<?xml version="1.0" encoding="utf-8" standalone="no"?>
<!DOCTYPE svg PUBLIC "-//W3C//DTD SVG 1.1//EN"
  "http://www.w3.org/Graphics/SVG/1.1/DTD/svg11.dtd">
<svg xmlns:xlink="http://www.w3.org/1999/xlink" width="460.8pt" height="345.6pt" viewBox="0 0 460.8 345.6" xmlns="http://www.w3.org/2000/svg" version="1.1">
 <metadata>
  <rdf:RDF xmlns:dc="http://purl.org/dc/elements/1.1/" xmlns:cc="http://creativecommons.org/ns#" xmlns:rdf="http://www.w3.org/1999/02/22-rdf-syntax-ns#">
   <cc:Work>
    <dc:type rdf:resource="http://purl.org/dc/dcmitype/StillImage"/>
    <dc:date>2024-04-25T01:54:22.052686</dc:date>
    <dc:format>image/svg+xml</dc:format>
    <dc:creator>
     <cc:Agent>
      <dc:title>Matplotlib v3.7.2, https://matplotlib.org/</dc:title>
     </cc:Agent>
    </dc:creator>
   </cc:Work>
  </rdf:RDF>
 </metadata>
 <defs>
  <style type="text/css">*{stroke-linejoin: round; stroke-linecap: butt}</style>
 </defs>
 <g id="figure_1">
  <g id="patch_1">
   <path d="M 0 345.6 
L 460.8 345.6 
L 460.8 0 
L 0 0 
z
" style="fill: #ffffff"/>
  </g>
  <g id="axes_1">
   <g id="patch_2">
    <path d="M 57.6 307.584 
L 414.72 307.584 
L 414.72 41.472 
L 57.6 41.472 
z
" style="fill: #ffffff"/>
   </g>
   <g id="matplotlib.axis_1">
    <g id="xtick_1">
     <g id="line2d_1">
      <defs>
       <path id="mdc842a9e83" d="M 0 0 
L 0 3.5 
" style="stroke: #000000; stroke-width: 0.8"/>
      </defs>
      <g>
       <use xlink:href="#mdc842a9e83" x="73.832727" y="307.584" style="stroke: #000000; stroke-width: 0.8"/>
      </g>
     </g>
     <g id="text_1">
      <!-- 0 -->
      <g transform="translate(70.651477 322.182437) scale(0.1 -0.1)">
       <defs>
        <path id="DejaVuSans-30" d="M 2034 4250 
Q 1547 4250 1301 3770 
Q 1056 3291 1056 2328 
Q 1056 1369 1301 889 
Q 1547 409 2034 409 
Q 2525 409 2770 889 
Q 3016 1369 3016 2328 
Q 3016 3291 2770 3770 
Q 2525 4250 2034 4250 
z
M 2034 4750 
Q 2819 4750 3233 4129 
Q 3647 3509 3647 2328 
Q 3647 1150 3233 529 
Q 2819 -91 2034 -91 
Q 1250 -91 836 529 
Q 422 1150 422 2328 
Q 422 3509 836 4129 
Q 1250 4750 2034 4750 
z
" transform="scale(0.015625)"/>
       </defs>
       <use xlink:href="#DejaVuSans-30"/>
      </g>
     </g>
    </g>
    <g id="xtick_2">
     <g id="line2d_2">
      <g>
       <use xlink:href="#mdc842a9e83" x="138.77013" y="307.584" style="stroke: #000000; stroke-width: 0.8"/>
      </g>
     </g>
     <g id="text_2">
      <!-- 2000 -->
      <g transform="translate(126.04513 322.182437) scale(0.1 -0.1)">
       <defs>
        <path id="DejaVuSans-32" d="M 1228 531 
L 3431 531 
L 3431 0 
L 469 0 
L 469 531 
Q 828 903 1448 1529 
Q 2069 2156 2228 2338 
Q 2531 2678 2651 2914 
Q 2772 3150 2772 3378 
Q 2772 3750 2511 3984 
Q 2250 4219 1831 4219 
Q 1534 4219 1204 4116 
Q 875 4013 500 3803 
L 500 4441 
Q 881 4594 1212 4672 
Q 1544 4750 1819 4750 
Q 2544 4750 2975 4387 
Q 3406 4025 3406 3419 
Q 3406 3131 3298 2873 
Q 3191 2616 2906 2266 
Q 2828 2175 2409 1742 
Q 1991 1309 1228 531 
z
" transform="scale(0.015625)"/>
       </defs>
       <use xlink:href="#DejaVuSans-32"/>
       <use xlink:href="#DejaVuSans-30" x="63.623047"/>
       <use xlink:href="#DejaVuSans-30" x="127.246094"/>
       <use xlink:href="#DejaVuSans-30" x="190.869141"/>
      </g>
     </g>
    </g>
    <g id="xtick_3">
     <g id="line2d_3">
      <g>
       <use xlink:href="#mdc842a9e83" x="203.707533" y="307.584" style="stroke: #000000; stroke-width: 0.8"/>
      </g>
     </g>
     <g id="text_3">
      <!-- 4000 -->
      <g transform="translate(190.982533 322.182437) scale(0.1 -0.1)">
       <defs>
        <path id="DejaVuSans-34" d="M 2419 4116 
L 825 1625 
L 2419 1625 
L 2419 4116 
z
M 2253 4666 
L 3047 4666 
L 3047 1625 
L 3713 1625 
L 3713 1100 
L 3047 1100 
L 3047 0 
L 2419 0 
L 2419 1100 
L 313 1100 
L 313 1709 
L 2253 4666 
z
" transform="scale(0.015625)"/>
       </defs>
       <use xlink:href="#DejaVuSans-34"/>
       <use xlink:href="#DejaVuSans-30" x="63.623047"/>
       <use xlink:href="#DejaVuSans-30" x="127.246094"/>
       <use xlink:href="#DejaVuSans-30" x="190.869141"/>
      </g>
     </g>
    </g>
    <g id="xtick_4">
     <g id="line2d_4">
      <g>
       <use xlink:href="#mdc842a9e83" x="268.644936" y="307.584" style="stroke: #000000; stroke-width: 0.8"/>
      </g>
     </g>
     <g id="text_4">
      <!-- 6000 -->
      <g transform="translate(255.919936 322.182437) scale(0.1 -0.1)">
       <defs>
        <path id="DejaVuSans-36" d="M 2113 2584 
Q 1688 2584 1439 2293 
Q 1191 2003 1191 1497 
Q 1191 994 1439 701 
Q 1688 409 2113 409 
Q 2538 409 2786 701 
Q 3034 994 3034 1497 
Q 3034 2003 2786 2293 
Q 2538 2584 2113 2584 
z
M 3366 4563 
L 3366 3988 
Q 3128 4100 2886 4159 
Q 2644 4219 2406 4219 
Q 1781 4219 1451 3797 
Q 1122 3375 1075 2522 
Q 1259 2794 1537 2939 
Q 1816 3084 2150 3084 
Q 2853 3084 3261 2657 
Q 3669 2231 3669 1497 
Q 3669 778 3244 343 
Q 2819 -91 2113 -91 
Q 1303 -91 875 529 
Q 447 1150 447 2328 
Q 447 3434 972 4092 
Q 1497 4750 2381 4750 
Q 2619 4750 2861 4703 
Q 3103 4656 3366 4563 
z
" transform="scale(0.015625)"/>
       </defs>
       <use xlink:href="#DejaVuSans-36"/>
       <use xlink:href="#DejaVuSans-30" x="63.623047"/>
       <use xlink:href="#DejaVuSans-30" x="127.246094"/>
       <use xlink:href="#DejaVuSans-30" x="190.869141"/>
      </g>
     </g>
    </g>
    <g id="xtick_5">
     <g id="line2d_5">
      <g>
       <use xlink:href="#mdc842a9e83" x="333.582339" y="307.584" style="stroke: #000000; stroke-width: 0.8"/>
      </g>
     </g>
     <g id="text_5">
      <!-- 8000 -->
      <g transform="translate(320.857339 322.182437) scale(0.1 -0.1)">
       <defs>
        <path id="DejaVuSans-38" d="M 2034 2216 
Q 1584 2216 1326 1975 
Q 1069 1734 1069 1313 
Q 1069 891 1326 650 
Q 1584 409 2034 409 
Q 2484 409 2743 651 
Q 3003 894 3003 1313 
Q 3003 1734 2745 1975 
Q 2488 2216 2034 2216 
z
M 1403 2484 
Q 997 2584 770 2862 
Q 544 3141 544 3541 
Q 544 4100 942 4425 
Q 1341 4750 2034 4750 
Q 2731 4750 3128 4425 
Q 3525 4100 3525 3541 
Q 3525 3141 3298 2862 
Q 3072 2584 2669 2484 
Q 3125 2378 3379 2068 
Q 3634 1759 3634 1313 
Q 3634 634 3220 271 
Q 2806 -91 2034 -91 
Q 1263 -91 848 271 
Q 434 634 434 1313 
Q 434 1759 690 2068 
Q 947 2378 1403 2484 
z
M 1172 3481 
Q 1172 3119 1398 2916 
Q 1625 2713 2034 2713 
Q 2441 2713 2670 2916 
Q 2900 3119 2900 3481 
Q 2900 3844 2670 4047 
Q 2441 4250 2034 4250 
Q 1625 4250 1398 4047 
Q 1172 3844 1172 3481 
z
" transform="scale(0.015625)"/>
       </defs>
       <use xlink:href="#DejaVuSans-38"/>
       <use xlink:href="#DejaVuSans-30" x="63.623047"/>
       <use xlink:href="#DejaVuSans-30" x="127.246094"/>
       <use xlink:href="#DejaVuSans-30" x="190.869141"/>
      </g>
     </g>
    </g>
    <g id="xtick_6">
     <g id="line2d_6">
      <g>
       <use xlink:href="#mdc842a9e83" x="398.519741" y="307.584" style="stroke: #000000; stroke-width: 0.8"/>
      </g>
     </g>
     <g id="text_6">
      <!-- 10000 -->
      <g transform="translate(382.613491 322.182437) scale(0.1 -0.1)">
       <defs>
        <path id="DejaVuSans-31" d="M 794 531 
L 1825 531 
L 1825 4091 
L 703 3866 
L 703 4441 
L 1819 4666 
L 2450 4666 
L 2450 531 
L 3481 531 
L 3481 0 
L 794 0 
L 794 531 
z
" transform="scale(0.015625)"/>
       </defs>
       <use xlink:href="#DejaVuSans-31"/>
       <use xlink:href="#DejaVuSans-30" x="63.623047"/>
       <use xlink:href="#DejaVuSans-30" x="127.246094"/>
       <use xlink:href="#DejaVuSans-30" x="190.869141"/>
       <use xlink:href="#DejaVuSans-30" x="254.492188"/>
      </g>
     </g>
    </g>
   </g>
   <g id="matplotlib.axis_2">
    <g id="ytick_1">
     <g id="line2d_7">
      <defs>
       <path id="m277273bfc6" d="M 0 0 
L -3.5 0 
" style="stroke: #000000; stroke-width: 0.8"/>
      </defs>
      <g>
       <use xlink:href="#m277273bfc6" x="57.6" y="295.488" style="stroke: #000000; stroke-width: 0.8"/>
      </g>
     </g>
     <g id="text_7">
      <!-- −300 -->
      <g transform="translate(23.132812 299.287219) scale(0.1 -0.1)">
       <defs>
        <path id="DejaVuSans-2212" d="M 678 2272 
L 4684 2272 
L 4684 1741 
L 678 1741 
L 678 2272 
z
" transform="scale(0.015625)"/>
        <path id="DejaVuSans-33" d="M 2597 2516 
Q 3050 2419 3304 2112 
Q 3559 1806 3559 1356 
Q 3559 666 3084 287 
Q 2609 -91 1734 -91 
Q 1441 -91 1130 -33 
Q 819 25 488 141 
L 488 750 
Q 750 597 1062 519 
Q 1375 441 1716 441 
Q 2309 441 2620 675 
Q 2931 909 2931 1356 
Q 2931 1769 2642 2001 
Q 2353 2234 1838 2234 
L 1294 2234 
L 1294 2753 
L 1863 2753 
Q 2328 2753 2575 2939 
Q 2822 3125 2822 3475 
Q 2822 3834 2567 4026 
Q 2313 4219 1838 4219 
Q 1578 4219 1281 4162 
Q 984 4106 628 3988 
L 628 4550 
Q 988 4650 1302 4700 
Q 1616 4750 1894 4750 
Q 2613 4750 3031 4423 
Q 3450 4097 3450 3541 
Q 3450 3153 3228 2886 
Q 3006 2619 2597 2516 
z
" transform="scale(0.015625)"/>
       </defs>
       <use xlink:href="#DejaVuSans-2212"/>
       <use xlink:href="#DejaVuSans-33" x="83.789062"/>
       <use xlink:href="#DejaVuSans-30" x="147.412109"/>
       <use xlink:href="#DejaVuSans-30" x="211.035156"/>
      </g>
     </g>
    </g>
    <g id="ytick_2">
     <g id="line2d_8">
      <g>
       <use xlink:href="#m277273bfc6" x="57.6" y="263.658297" style="stroke: #000000; stroke-width: 0.8"/>
      </g>
     </g>
     <g id="text_8">
      <!-- −250 -->
      <g transform="translate(23.132812 267.457516) scale(0.1 -0.1)">
       <defs>
        <path id="DejaVuSans-35" d="M 691 4666 
L 3169 4666 
L 3169 4134 
L 1269 4134 
L 1269 2991 
Q 1406 3038 1543 3061 
Q 1681 3084 1819 3084 
Q 2600 3084 3056 2656 
Q 3513 2228 3513 1497 
Q 3513 744 3044 326 
Q 2575 -91 1722 -91 
Q 1428 -91 1123 -41 
Q 819 9 494 109 
L 494 744 
Q 775 591 1075 516 
Q 1375 441 1709 441 
Q 2250 441 2565 725 
Q 2881 1009 2881 1497 
Q 2881 1984 2565 2268 
Q 2250 2553 1709 2553 
Q 1456 2553 1204 2497 
Q 953 2441 691 2322 
L 691 4666 
z
" transform="scale(0.015625)"/>
       </defs>
       <use xlink:href="#DejaVuSans-2212"/>
       <use xlink:href="#DejaVuSans-32" x="83.789062"/>
       <use xlink:href="#DejaVuSans-35" x="147.412109"/>
       <use xlink:href="#DejaVuSans-30" x="211.035156"/>
      </g>
     </g>
    </g>
    <g id="ytick_3">
     <g id="line2d_9">
      <g>
       <use xlink:href="#m277273bfc6" x="57.6" y="231.828594" style="stroke: #000000; stroke-width: 0.8"/>
      </g>
     </g>
     <g id="text_9">
      <!-- −200 -->
      <g transform="translate(23.132812 235.627813) scale(0.1 -0.1)">
       <use xlink:href="#DejaVuSans-2212"/>
       <use xlink:href="#DejaVuSans-32" x="83.789062"/>
       <use xlink:href="#DejaVuSans-30" x="147.412109"/>
       <use xlink:href="#DejaVuSans-30" x="211.035156"/>
      </g>
     </g>
    </g>
    <g id="ytick_4">
     <g id="line2d_10">
      <g>
       <use xlink:href="#m277273bfc6" x="57.6" y="199.998891" style="stroke: #000000; stroke-width: 0.8"/>
      </g>
     </g>
     <g id="text_10">
      <!-- −150 -->
      <g transform="translate(23.132812 203.79811) scale(0.1 -0.1)">
       <use xlink:href="#DejaVuSans-2212"/>
       <use xlink:href="#DejaVuSans-31" x="83.789062"/>
       <use xlink:href="#DejaVuSans-35" x="147.412109"/>
       <use xlink:href="#DejaVuSans-30" x="211.035156"/>
      </g>
     </g>
    </g>
    <g id="ytick_5">
     <g id="line2d_11">
      <g>
       <use xlink:href="#m277273bfc6" x="57.6" y="168.169188" style="stroke: #000000; stroke-width: 0.8"/>
      </g>
     </g>
     <g id="text_11">
      <!-- −100 -->
      <g transform="translate(23.132812 171.968407) scale(0.1 -0.1)">
       <use xlink:href="#DejaVuSans-2212"/>
       <use xlink:href="#DejaVuSans-31" x="83.789062"/>
       <use xlink:href="#DejaVuSans-30" x="147.412109"/>
       <use xlink:href="#DejaVuSans-30" x="211.035156"/>
      </g>
     </g>
    </g>
    <g id="ytick_6">
     <g id="line2d_12">
      <g>
       <use xlink:href="#m277273bfc6" x="57.6" y="136.339485" style="stroke: #000000; stroke-width: 0.8"/>
      </g>
     </g>
     <g id="text_12">
      <!-- −50 -->
      <g transform="translate(29.495313 140.138703) scale(0.1 -0.1)">
       <use xlink:href="#DejaVuSans-2212"/>
       <use xlink:href="#DejaVuSans-35" x="83.789062"/>
       <use xlink:href="#DejaVuSans-30" x="147.412109"/>
      </g>
     </g>
    </g>
    <g id="ytick_7">
     <g id="line2d_13">
      <g>
       <use xlink:href="#m277273bfc6" x="57.6" y="104.509782" style="stroke: #000000; stroke-width: 0.8"/>
      </g>
     </g>
     <g id="text_13">
      <!-- 0 -->
      <g transform="translate(44.2375 108.309) scale(0.1 -0.1)">
       <use xlink:href="#DejaVuSans-30"/>
      </g>
     </g>
    </g>
    <g id="ytick_8">
     <g id="line2d_14">
      <g>
       <use xlink:href="#m277273bfc6" x="57.6" y="72.680079" style="stroke: #000000; stroke-width: 0.8"/>
      </g>
     </g>
     <g id="text_14">
      <!-- 50 -->
      <g transform="translate(37.875 76.479297) scale(0.1 -0.1)">
       <use xlink:href="#DejaVuSans-35"/>
       <use xlink:href="#DejaVuSans-30" x="63.623047"/>
      </g>
     </g>
    </g>
   </g>
   <g id="line2d_15">
    <path d="M 73.832727 98.978593 
L 73.865196 295.488 
L 73.897665 73.004999 
L 73.930133 103.34182 
L 73.962602 99.893049 
L 73.995071 74.041875 
L 74.060008 103.912403 
L 74.124946 99.62583 
L 74.157414 295.488 
L 74.222352 103.738303 
L 74.25482 106.100952 
L 74.287289 83.301297 
L 74.352226 84.992371 
L 74.384695 103.836564 
L 74.417164 295.488 
L 74.449633 98.412389 
L 74.482101 103.912403 
L 74.51457 103.65943 
L 74.547039 103.912403 
L 74.611976 80.225028 
L 74.676914 295.488 
L 74.709382 77.049038 
L 74.806788 103.836564 
L 74.839257 88.313 
L 74.904194 100.114038 
L 75.001601 295.488 
L 75.034069 87.342716 
L 75.131475 89.667855 
L 75.163944 99.240307 
L 75.196413 85.130097 
L 75.228881 76.689803 
L 75.26135 81.770589 
L 75.293819 295.488 
L 75.358756 102.974334 
L 75.423694 88.764818 
L 75.456162 102.974334 
L 75.488631 100.114038 
L 75.5211 78.853799 
L 75.553568 103.912403 
L 75.618506 295.488 
L 75.650975 103.836564 
L 75.683443 80.95654 
L 75.748381 295.488 
L 75.780849 96.841523 
L 75.813318 105.411158 
L 75.845787 85.759034 
L 75.878255 295.488 
L 75.943193 105.135549 
L 76.105536 78.240214 
L 76.138005 103.836564 
L 76.202942 103.264102 
L 76.235411 89.2472 
L 76.332817 295.488 
L 76.365286 79.595046 
L 76.462692 100.114038 
L 76.495161 97.852843 
L 76.527629 295.488 
L 76.560098 81.307443 
L 76.592567 102.974334 
L 76.625036 102.317073 
L 76.657504 106.025226 
L 76.689973 295.488 
L 76.75491 99.893049 
L 76.787379 102.974334 
L 76.819848 100.680578 
L 76.852317 295.488 
L 76.917254 80.518721 
L 76.949723 101.833919 
L 77.01466 85.130097 
L 77.079597 295.488 
L 77.112066 103.836564 
L 77.177004 103.912403 
L 77.209472 87.708878 
L 77.339347 103.836564 
L 77.371816 97.852843 
L 77.469222 93.795048 
L 77.501691 295.488 
L 77.631565 66.701297 
L 77.76144 107.157686 
L 77.793909 99.844507 
L 77.923784 295.488 
L 77.956252 295.488 
L 77.988721 66.106313 
L 78.086127 112.000029 
L 78.118596 112.62207 
L 78.151065 155.603056 
L 78.216002 108.533965 
L 78.280939 107.644452 
L 78.313408 112.000029 
L 78.378345 102.120429 
L 78.443283 153.395852 
L 78.475752 155.603056 
L 78.573158 84.183266 
L 78.605626 89.087946 
L 78.638095 93.501937 
L 78.670564 77.80708 
L 78.735501 84.549861 
L 78.800439 99.22042 
L 78.832907 91.896943 
L 78.865376 91.807668 
L 78.962782 97.786359 
L 79.092657 91.032671 
L 79.125126 99.22042 
L 79.190063 97.786359 
L 79.319938 94.329938 
L 79.936843 94.37427 
L 79.969312 89.04329 
L 80.001781 98.178311 
L 80.034249 96.282715 
L 80.099187 96.544074 
L 80.131655 94.130733 
L 80.164124 97.863536 
L 80.196593 88.706124 
L 80.26153 96.544074 
L 80.293999 94.130733 
L 80.326468 100.339721 
L 80.358936 93.767153 
L 80.391405 94.130733 
L 80.423874 89.04329 
L 80.456342 100.339721 
L 80.488811 94.130733 
L 80.52128 94.130733 
L 80.553748 98.34351 
L 80.586217 89.04329 
L 80.618686 94.130733 
L 80.683623 94.130733 
L 80.716092 96.402753 
L 80.781029 93.767153 
L 80.813498 87.765306 
L 80.910904 89.443491 
L 81.00831 93.697017 
L 81.105716 86.293364 
L 81.138185 92.95376 
L 81.203122 89.267432 
L 81.235591 86.481822 
L 81.26806 95.369008 
L 81.332997 86.831612 
L 81.397935 94.246869 
L 81.430403 86.293364 
L 81.52781 91.830594 
L 81.560278 85.021217 
L 81.625216 91.830594 
L 81.820028 87.16039 
L 81.917434 94.61098 
L 81.949903 88.392659 
L 81.982371 94.801529 
L 82.01484 89.237307 
L 82.047309 91.665497 
L 82.112246 88.83825 
L 82.144715 88.323982 
L 82.177184 98.80767 
L 82.242121 94.801529 
L 82.371996 92.385662 
L 82.404464 94.246869 
L 82.436933 92.385662 
L 82.534339 89.020688 
L 82.501871 92.95376 
L 82.566808 90.23966 
L 82.696683 95.369008 
L 82.729151 88.391043 
L 82.826558 90.019661 
L 82.859026 88.392659 
L 82.891495 91.830594 
L 83.02137 93.893628 
L 83.053838 93.393771 
L 83.118776 88.118244 
L 83.151245 93.91264 
L 83.183713 88.750053 
L 83.216182 99.003884 
L 83.281119 88.750053 
L 83.378525 93.707185 
L 83.443463 87.933138 
L 83.475932 91.9374 
L 83.5084 97.83997 
L 83.540869 88.446165 
L 83.573338 92.935218 
L 83.605806 82.866116 
L 83.638275 96.622352 
L 83.670744 94.63259 
L 83.800619 80.790581 
L 83.930493 88.275666 
L 83.962962 87.643528 
L 83.995431 84.496361 
L 84.125306 95.025058 
L 84.222712 87.453892 
L 84.25518 92.727479 
L 84.320118 86.208513 
L 84.352587 91.374201 
L 84.417524 91.755074 
L 84.449993 87.160375 
L 84.547399 86.520192 
L 84.579867 93.91264 
L 84.677274 86.837444 
L 84.709742 97.680501 
L 84.77468 89.625679 
L 84.807148 90.111424 
L 84.839617 88.109442 
L 84.872086 92.191003 
L 84.937023 93.036405 
L 85.001961 88.446165 
L 85.099367 97.680501 
L 85.131835 80.995943 
L 85.196773 93.103463 
L 85.229241 92.085868 
L 85.26171 97.680501 
L 85.294179 81.489275 
L 85.359116 82.325504 
L 85.424054 97.680501 
L 85.52146 95.62428 
L 85.553928 97.680501 
L 85.586397 80.453951 
L 85.651335 94.216605 
L 85.683803 89.1663 
L 85.716272 96.140146 
L 85.748741 95.62428 
L 85.781209 97.680501 
L 85.813678 90.518794 
L 85.878615 97.680501 
L 85.943553 91.87136 
L 85.976022 93.18788 
L 86.105896 99.864567 
L 86.203303 85.229547 
L 86.235771 97.680501 
L 86.300709 93.18788 
L 86.365646 97.680501 
L 86.430583 69.714506 
L 86.463052 97.680501 
L 86.52799 88.66571 
L 86.560458 75.289356 
L 86.592927 97.144274 
L 86.625396 93.18788 
L 86.657864 93.18788 
L 86.690333 92.081933 
L 86.722802 97.680501 
L 86.75527 97.144274 
L 86.787739 66.887925 
L 86.852677 85.333693 
L 86.885145 85.553718 
L 86.917614 95.597854 
L 86.950083 80.675969 
L 86.982551 82.010258 
L 87.01502 67.539033 
L 87.047489 81.876116 
L 87.144895 105.094131 
L 87.27477 67.982164 
L 87.372176 93.621309 
L 87.404644 69.798219 
L 87.469582 83.633845 
L 87.502051 89.965305 
L 87.566988 83.837131 
L 87.631925 88.026817 
L 87.664394 86.932798 
L 87.7618 69.714506 
L 87.794269 71.166649 
L 87.924144 94.402494 
L 87.956612 79.931238 
L 88.054018 81.998661 
L 88.118956 90.52679 
L 88.183893 89.965305 
L 88.216362 72.06307 
L 88.281299 83.352212 
L 88.313768 89.965305 
L 88.378706 90.247601 
L 88.411174 69.645734 
L 88.443643 94.989432 
L 88.541049 85.941969 
L 88.670924 69.937762 
L 88.800799 86.388928 
L 88.898205 74.895352 
L 88.963142 73.327241 
L 89.02808 92.494215 
L 89.093017 79.279217 
L 89.222892 83.025222 
L 89.25536 94.764418 
L 89.320298 88.656025 
L 89.352767 80.368187 
L 89.385235 94.514621 
L 89.417704 104.462033 
L 89.450173 80.076781 
L 89.547579 89.965305 
L 89.580047 75.608402 
L 89.644985 95.091129 
L 89.77486 83.363286 
L 89.807328 95.700646 
L 89.872266 88.849031 
L 89.904734 89.782557 
L 89.937203 95.493853 
L 89.969672 70.623601 
L 90.034609 97.066881 
L 90.067078 80.14428 
L 90.099547 97.703253 
L 90.164484 95.700646 
L 90.229421 81.652841 
L 90.294359 89.782557 
L 90.326828 97.046972 
L 90.359296 70.585518 
L 90.391765 101.189672 
L 90.424234 90.757001 
L 90.456702 97.703253 
L 90.489171 64.902079 
L 90.554109 99.757113 
L 90.619046 78.654261 
L 90.651515 81.232563 
L 90.683983 95.662407 
L 90.748921 94.617038 
L 90.781389 83.259068 
L 90.846327 85.989338 
L 90.943733 96.082785 
L 91.041139 100.805084 
L 91.073608 80.184841 
L 91.106076 100.152783 
L 91.138545 69.910556 
L 91.171014 96.121799 
L 91.26842 96.758375 
L 91.300889 80.935978 
L 91.333357 96.121799 
L 91.398295 82.727492 
L 91.430763 81.848388 
L 91.463232 120.542209 
L 91.52817 80.996917 
L 91.560638 98.098041 
L 91.593107 72.929454 
L 91.625576 83.635706 
L 91.658044 80.996917 
L 91.690513 105.28504 
L 91.787919 97.432083 
L 91.820388 80.996917 
L 91.885325 81.848388 
L 91.917794 98.098041 
L 91.950263 84.780057 
L 91.982731 72.929454 
L 92.0152 99.659391 
L 92.047669 97.432083 
L 92.112606 80.14428 
L 92.145075 83.635706 
L 92.210012 97.750288 
L 92.242481 82.708375 
L 92.27495 80.964102 
L 92.339887 106.310197 
L 92.372356 103.092761 
L 92.437293 104.153953 
L 92.502231 78.003004 
L 92.534699 105.483401 
L 92.599637 94.549329 
L 92.729511 71.81893 
L 92.76198 90.548688 
L 92.859386 84.439974 
L 92.891855 86.297834 
L 92.956792 84.042591 
L 93.119136 80.141055 
L 93.151605 70.977509 
L 93.184073 71.768934 
L 93.216542 97.992051 
L 93.281479 91.716578 
L 93.411354 61.275113 
L 93.443823 86.652428 
L 93.541229 85.64843 
L 93.573698 89.944463 
L 93.606166 82.83516 
L 93.638635 82.926931 
L 93.671104 64.354389 
L 93.736041 86.898347 
L 93.76851 93.830312 
L 93.800979 81.664742 
L 93.833447 81.654121 
L 93.898385 82.977906 
L 93.930853 102.570406 
L 93.963322 81.660511 
L 93.995791 82.87927 
L 94.02826 90.609607 
L 94.060728 82.026166 
L 94.125666 89.077647 
L 94.158134 88.637854 
L 94.223072 88.738132 
L 94.288009 83.246003 
L 94.352947 87.757844 
L 94.385415 70.757824 
L 94.482821 74.880868 
L 94.51529 79.658466 
L 94.547759 72.467641 
L 94.580227 63.301693 
L 94.612696 73.065172 
L 94.77504 86.609191 
L 94.807508 85.235292 
L 94.872446 86.35742 
L 94.904914 87.279866 
L 94.937383 85.826439 
L 94.969852 87.038193 
L 95.002321 85.826439 
L 95.034789 87.206916 
L 95.067258 87.567754 
L 95.197133 85.655275 
L 95.229602 86.473365 
L 95.294539 86.118903 
L 95.327008 83.998696 
L 95.359476 85.074101 
L 95.391945 87.567754 
L 95.424414 85.735578 
L 95.456882 83.547301 
L 95.52182 85.142619 
L 95.554289 85.965073 
L 95.586757 83.73536 
L 95.651695 86.0433 
L 95.684163 84.184422 
L 95.716632 85.051988 
L 95.749101 83.309629 
L 95.781569 83.153342 
L 95.814038 85.330248 
L 95.878976 84.36527 
L 95.911444 83.063732 
L 95.943913 85.142619 
L 95.976382 86.340937 
L 96.138725 79.223014 
L 96.203663 78.454521 
L 96.301069 83.821201 
L 96.333537 83.651366 
L 96.366006 78.95005 
L 96.430943 79.841458 
L 96.463412 84.708962 
L 96.495881 79.515615 
L 96.52835 77.012336 
L 96.593287 79.841458 
L 96.690693 80.019084 
L 96.75563 75.740454 
L 96.788099 86.56128 
L 96.853037 73.639497 
L 96.885505 78.30682 
L 96.950443 76.822601 
L 96.982911 74.719384 
L 97.01538 78.87648 
L 97.080317 82.953905 
L 97.112786 77.115487 
L 97.145255 83.900433 
L 97.177724 79.975989 
L 97.210192 82.094667 
L 97.242661 103.836564 
L 97.307598 83.030616 
L 97.340067 83.158021 
L 97.372536 65.27188 
L 97.437473 86.956522 
L 97.469942 90.584725 
L 97.502411 85.519389 
L 97.534879 83.723783 
L 97.599817 85.141983 
L 97.664754 86.104901 
L 97.729692 86.02207 
L 97.924504 85.993305 
L 97.989441 80.558384 
L 98.086847 65.428367 
L 98.151785 65.96486 
L 98.216722 69.122018 
L 98.249191 58.205124 
L 98.346597 62.644361 
L 98.379066 55.684319 
L 98.411534 69.101204 
L 98.476472 93.757732 
L 98.50894 63.14259 
L 98.638815 98.921474 
L 98.573878 60.527213 
L 98.671284 72.245553 
L 98.703753 57.62958 
L 98.76869 59.890834 
L 98.801159 64.041648 
L 98.833627 56.530099 
L 98.866096 60.968673 
L 98.898565 101.562244 
L 98.931033 60.115414 
L 98.963502 61.14155 
L 99.02844 67.198525 
L 99.060908 63.722113 
L 99.125846 59.557638 
L 99.158314 64.819063 
L 99.25572 64.044253 
L 99.320658 62.830833 
L 99.385595 68.428499 
L 99.450533 68.681597 
L 99.483001 64.41862 
L 99.547939 75.951534 
L 99.612876 71.167325 
L 99.645345 69.576154 
L 99.677814 72.978319 
L 99.710282 74.272851 
L 99.742751 86.599314 
L 99.77522 77.385289 
L 99.807688 64.588365 
L 99.905095 67.416638 
L 100.132375 74.496391 
L 100.26225 90.880056 
L 100.359656 81.564796 
L 100.392125 89.11304 
L 100.457062 82.482337 
L 100.489531 85.047202 
L 100.522 55.678192 
L 100.586937 75.091774 
L 100.651875 71.361937 
L 100.716812 83.952798 
L 100.749281 64.012359 
L 100.814218 70.776482 
L 100.911624 86.457862 
L 100.944093 83.301007 
L 101.00903 86.742809 
L 101.041499 82.887834 
L 101.073968 86.099125 
L 101.106436 86.257204 
L 101.203843 84.032999 
L 101.236311 86.278489 
L 101.26878 78.55237 
L 101.301249 86.379853 
L 101.333717 86.327072 
L 101.366186 86.278489 
L 101.398655 86.433251 
L 101.463592 86.217621 
L 101.560998 86.278489 
L 101.593467 87.423322 
L 101.625936 86.217621 
L 101.658404 86.217621 
L 101.690873 86.236935 
L 101.75581 68.271344 
L 101.820748 81.463297 
L 101.918154 88.070342 
L 101.950623 86.148848 
L 101.983091 66.910857 
L 102.048029 87.386374 
L 102.080498 87.937151 
L 102.112966 86.13354 
L 102.210372 64.029588 
L 102.242841 71.86232 
L 102.27531 69.965937 
L 102.307778 72.484699 
L 102.340247 84.452973 
L 102.372716 69.042931 
L 102.405185 81.957139 
L 102.437653 61.425186 
L 102.502591 88.575129 
L 102.567528 73.46007 
L 102.599997 89.457442 
L 102.697403 91.90674 
L 102.76234 74.044573 
L 102.794809 90.889177 
L 102.827278 89.893148 
L 102.859746 89.916592 
L 102.892215 72.023222 
L 102.957152 89.307505 
L 102.989621 85.946443 
L 103.054559 88.616101 
L 103.087027 63.372916 
L 103.151965 70.714036 
L 103.184433 74.590323 
L 103.216902 63.465869 
L 103.249371 87.027781 
L 103.281839 85.323365 
L 103.314308 72.433269 
L 103.379246 89.138084 
L 103.444183 85.323365 
L 103.476652 89.792326 
L 103.50912 89.107094 
L 103.541589 91.48374 
L 103.574058 85.922862 
L 103.606526 91.098153 
L 103.671464 88.953082 
L 103.703933 90.708468 
L 103.736401 68.185023 
L 103.801339 90.958898 
L 103.866276 86.437797 
L 103.898745 87.500967 
L 103.931213 90.504007 
L 103.963682 67.464256 
L 103.996151 90.837088 
L 104.02862 88.659491 
L 104.061088 90.584235 
L 104.093557 84.902042 
L 104.158494 88.93962 
L 104.2559 85.99618 
L 104.288369 76.605509 
L 104.320838 86.148848 
L 104.353307 85.777165 
L 104.385775 85.683036 
L 104.418244 90.614573 
L 104.483181 85.843964 
L 104.51565 85.986783 
L 104.580588 89.070988 
L 104.613056 86.084137 
L 104.645525 78.436174 
L 104.710462 87.115453 
L 104.742931 88.475383 
L 104.7754 96.637144 
L 104.807868 87.612745 
L 104.840337 87.934877 
L 104.872806 88.430755 
L 104.905275 85.457027 
L 104.937743 89.465833 
L 104.970212 87.510337 
L 105.002681 89.698961 
L 105.067618 87.721892 
L 105.100087 75.557697 
L 105.165024 88.137507 
L 105.197493 87.680302 
L 105.229962 83.916548 
L 105.26243 89.456457 
L 105.294899 89.130458 
L 105.327368 87.913274 
L 105.359836 88.087367 
L 105.424774 70.441779 
L 105.457242 89.031973 
L 105.489711 86.546176 
L 105.52218 71.157087 
L 105.554649 87.959417 
L 105.619586 74.915259 
L 105.652055 88.12943 
L 105.749461 87.564574 
L 105.781929 91.494375 
L 105.846867 86.806761 
L 105.879336 88.577612 
L 106.106616 62.618053 
L 106.139085 76.889389 
L 106.204023 68.666497 
L 106.236491 68.741539 
L 106.366366 83.930869 
L 106.52871 82.893172 
L 106.561178 77.854268 
L 106.658584 79.767518 
L 106.691053 76.552686 
L 106.820928 96.738113 
L 106.853397 83.207933 
L 106.918334 96.361104 
L 106.950803 94.987222 
L 106.983271 96.738113 
L 107.01574 74.410388 
L 107.080678 97.957524 
L 107.113146 95.648215 
L 107.145615 76.345583 
L 107.210552 76.756716 
L 107.340427 98.395386 
L 107.437833 76.552686 
L 107.567708 96.738113 
L 107.697583 94.987222 
L 107.730052 94.987222 
L 107.76252 94.086345 
L 107.794989 95.311436 
L 107.827458 95.648215 
L 107.892395 94.086345 
L 107.924864 95.311436 
L 107.957332 95.311436 
L 108.02227 94.987222 
L 108.054739 95.997959 
L 108.152145 72.351712 
L 108.184613 82.23573 
L 108.217082 94.675196 
L 108.249551 81.354023 
L 108.282019 88.062193 
L 108.411894 82.331309 
L 108.476832 80.411231 
L 108.5093 70.047456 
L 108.574238 84.687562 
L 108.639175 89.362784 
L 108.76905 69.87932 
L 108.898925 99.812549 
L 108.963862 100.851579 
L 108.996331 100.322057 
L 109.0288 93.812531 
L 109.093737 101.402091 
L 109.158674 103.190594 
L 109.191143 102.570406 
L 109.321018 69.343536 
L 109.353487 105.670994 
L 109.450893 94.221503 
L 109.483361 105.022567 
L 109.51583 79.12219 
L 109.548299 95.482395 
L 109.645705 75.468801 
L 109.678174 81.299817 
L 109.710642 79.72147 
L 109.743111 72.728951 
L 109.77558 81.88018 
L 109.808048 90.08275 
L 109.840517 77.049558 
L 109.872986 80.597541 
L 109.905455 80.121463 
L 109.937923 80.513718 
L 110.002861 82.744083 
L 110.035329 81.00618 
L 110.067798 75.229011 
L 110.100267 106.345467 
L 110.165204 78.848253 
L 110.197673 85.397332 
L 110.230142 80.321578 
L 110.26261 68.693102 
L 110.295079 81.739836 
L 110.327548 80.60699 
L 110.360016 80.60699 
L 110.392485 88.472307 
L 110.457422 78.696765 
L 110.489891 86.099556 
L 110.52236 71.53875 
L 110.619766 74.137036 
L 110.652235 102.684739 
L 110.717172 81.559616 
L 110.749641 87.152459 
L 110.782109 78.77958 
L 110.814578 77.811621 
L 110.847047 79.148185 
L 110.944453 78.693247 
L 110.976922 90.08275 
L 111.00939 77.402506 
L 111.074328 78.280148 
L 111.139265 87.543252 
L 111.171734 80.508105 
L 111.301609 76.180421 
L 111.366546 74.077034 
L 111.431484 81.506682 
L 111.52889 67.643372 
L 111.658764 92.40522 
L 111.626296 66.551393 
L 111.691233 86.036017 
L 111.756171 74.21874 
L 111.821108 79.153695 
L 111.853577 79.97659 
L 111.918514 74.483587 
L 111.950983 79.786932 
L 111.983451 86.371593 
L 112.01592 85.561975 
L 112.080858 58.270544 
L 112.113326 73.161917 
L 112.145795 106.345467 
L 112.210732 73.20539 
L 112.27567 94.956994 
L 112.340607 78.984916 
L 112.470482 71.740901 
L 112.502951 80.008757 
L 112.535419 65.229145 
L 112.567888 78.984916 
L 112.600357 64.233848 
L 112.632825 79.786932 
L 112.665294 73.644956 
L 112.697763 78.984916 
L 112.7627 106.345467 
L 112.795169 70.4885 
L 112.827638 70.85646 
L 112.860106 106.345467 
L 112.892575 65.788757 
L 112.925044 104.815753 
L 113.087387 53.568 
L 113.217262 89.745636 
L 113.282199 89.523773 
L 113.347137 88.339332 
L 113.444543 93.80092 
L 113.477012 57.24448 
L 113.541949 75.712709 
L 113.574418 93.331586 
L 113.639355 68.558963 
L 113.704293 68.558963 
L 113.801699 93.294818 
L 113.834167 92.45472 
L 113.899105 93.151209 
L 113.964042 69.036315 
L 113.996511 92.159236 
L 114.02898 68.791756 
L 114.061448 78.805553 
L 114.093917 68.317457 
L 114.126386 76.194393 
L 114.158854 95.511071 
L 114.223792 68.791756 
L 114.288729 68.558963 
L 114.386135 92.45472 
L 114.451073 96.395164 
L 114.51601 76.178106 
L 114.580948 76.557055 
L 114.613416 93.889832 
L 114.678354 90.414965 
L 114.77576 73.50362 
L 114.743291 94.946204 
L 114.808228 73.677316 
L 114.873166 73.274711 
L 114.905635 93.151209 
L 115.003041 73.274711 
L 115.035509 97.106575 
L 115.100447 92.27633 
L 115.132915 85.897386 
L 115.165384 97.106575 
L 115.197853 91.970709 
L 115.230322 92.328645 
L 115.26279 78.220306 
L 115.327728 93.889832 
L 115.360196 92.900994 
L 115.392665 78.389195 
L 115.457602 94.674836 
L 115.490071 92.124836 
L 115.52254 78.220306 
L 115.555009 93.040591 
L 115.587477 92.701685 
L 115.652415 92.45472 
L 115.684883 75.941283 
L 115.749821 93.889832 
L 115.78229 78.658139 
L 115.847227 94.674836 
L 115.912164 93.355126 
L 115.944633 93.151209 
L 115.977102 91.784855 
L 116.042039 93.151209 
L 116.074508 95.511071 
L 116.106977 93.151209 
L 116.204383 78.220306 
L 116.26932 93.889832 
L 116.301789 72.974096 
L 116.334257 92.518892 
L 116.366726 78.658139 
L 116.431664 95.511071 
L 116.464132 96.395164 
L 116.496601 78.400832 
L 116.594007 78.454769 
L 116.658944 78.212457 
L 116.756351 93.889832 
L 116.788819 78.278002 
L 116.853757 93.151209 
L 116.886225 92.518892 
L 117.0161 78.373539 
L 117.113506 97.106575 
L 117.145975 91.784855 
L 117.243381 93.889832 
L 117.27585 77.791098 
L 117.340787 91.784855 
L 117.373256 93.151209 
L 117.438193 78.234533 
L 117.470662 91.784855 
L 117.503131 91.784855 
L 117.535599 79.993386 
L 117.568068 97.106575 
L 117.600537 91.142316 
L 117.730412 95.791794 
L 117.76288 92.45472 
L 117.795349 90.533372 
L 117.827818 91.784855 
L 117.860286 78.30079 
L 117.925224 91.142316 
L 117.990161 91.040796 
L 118.02263 93.151209 
L 118.087567 91.784855 
L 118.152505 92.45472 
L 118.184973 91.142316 
L 118.217442 91.784855 
L 118.249911 97.83455 
L 118.28238 97.3507 
L 118.379786 76.78178 
L 118.412254 78.635549 
L 118.477192 77.184515 
L 118.542129 98.345787 
L 118.574598 76.437959 
L 118.639535 97.106575 
L 118.736941 77.184515 
L 118.801879 77.791098 
L 118.866816 93.151209 
L 118.931754 92.45472 
L 119.02916 98.481861 
L 119.061628 77.184515 
L 119.094097 77.121311 
L 119.126566 78.14319 
L 119.159034 77.184515 
L 119.288909 91.142316 
L 119.353847 91.784855 
L 119.418784 77.184515 
L 119.451253 78.635549 
L 119.483721 78.073081 
L 119.581128 77.184515 
L 119.613596 92.136805 
L 119.743471 77.015253 
L 119.840877 78.358217 
L 119.905815 75.762696 
L 119.938283 77.121311 
L 120.068158 98.345787 
L 120.165564 76.004711 
L 120.26297 77.184515 
L 120.295439 77.517388 
L 120.327908 77.084517 
L 120.360376 92.354222 
L 120.425314 77.184515 
L 120.457783 77.517388 
L 120.490251 77.184515 
L 120.555189 90.40737 
L 120.587657 77.517388 
L 120.620126 77.474003 
L 120.652595 78.22376 
L 120.717532 77.517388 
L 120.750001 92.354222 
L 120.814938 90.40737 
L 120.847407 77.811576 
L 120.912344 93.13053 
L 120.944813 78.412714 
L 121.042219 77.184515 
L 121.074688 91.845912 
L 121.172094 77.184515 
L 121.237031 92.40338 
L 121.301969 90.40737 
L 121.366906 76.437959 
L 121.431844 77.184515 
L 121.464312 91.135929 
L 121.52925 77.184515 
L 121.561718 77.184515 
L 121.659124 90.40737 
L 121.724062 93.630451 
L 121.788999 77.184515 
L 121.821468 76.437959 
L 121.853937 77.184515 
L 121.886405 91.70195 
L 121.918874 77.184515 
L 121.951343 70.901932 
L 121.983811 80.644706 
L 122.01628 77.184515 
L 122.113686 93.369858 
L 122.081218 70.574138 
L 122.146155 93.1295 
L 122.243561 77.184515 
L 122.27603 77.517388 
L 122.308498 93.1295 
L 122.373436 77.454743 
L 122.405905 92.909332 
L 122.438373 77.184515 
L 122.503311 78.162246 
L 122.535779 92.670275 
L 122.568248 76.437959 
L 122.633186 92.023061 
L 122.698123 76.935374 
L 122.76306 77.670692 
L 122.795529 76.890841 
L 122.827998 90.288443 
L 122.892935 80.976185 
L 123.02281 75.29972 
L 122.957873 82.035543 
L 123.055279 75.680026 
L 123.087747 89.686602 
L 123.120216 75.064707 
L 123.152685 84.15435 
L 123.185153 75.159313 
L 123.250091 82.596 
L 123.28256 87.319536 
L 123.315028 75.680026 
L 123.379966 81.753938 
L 123.412434 89.642397 
L 123.444903 81.855897 
L 123.477372 74.672499 
L 123.542309 79.433461 
L 123.574778 83.720555 
L 123.607247 70.745065 
L 123.704653 75.680026 
L 123.802059 85.614419 
L 123.834527 84.371892 
L 123.866996 76.25759 
L 123.931934 85.302557 
L 123.964402 84.371892 
L 124.02934 75.680026 
L 124.061808 79.472333 
L 124.126746 86.0943 
L 124.159214 84.535316 
L 124.224152 73.036951 
L 124.289089 82.622074 
L 124.321558 84.899136 
L 124.354027 79.528821 
L 124.386495 80.974939 
L 124.418964 75.680026 
L 124.483901 79.178811 
L 124.548839 84.329598 
L 124.581308 75.964517 
L 124.678714 77.771893 
L 124.873526 90.255241 
L 124.905995 87.270708 
L 124.938463 92.489986 
L 124.970932 89.119751 
L 125.035869 93.321146 
L 125.068338 88.632025 
L 125.100807 77.894706 
L 125.165744 80.300811 
L 125.198213 85.38585 
L 125.26315 80.435652 
L 125.295619 79.381822 
L 125.328088 84.688525 
L 125.393025 79.942132 
L 125.425494 79.274145 
L 125.457963 80.545095 
L 125.490431 80.615227 
L 125.5229 80.129565 
L 125.555369 80.576202 
L 125.620306 79.071747 
L 125.685243 85.757337 
L 125.717712 70.706947 
L 125.78265 85.569641 
L 125.815118 85.38585 
L 125.847587 85.949002 
L 125.880056 85.569641 
L 126.00993 78.960475 
L 126.139805 87.86138 
L 126.204743 83.102907 
L 126.237211 87.86138 
L 126.302149 89.6478 
L 126.367086 90.185723 
L 126.432024 80.551095 
L 126.52943 90.233569 
L 126.626836 86.513045 
L 126.691773 80.359138 
L 126.756711 82.631646 
L 126.789179 80.76076 
L 126.854117 81.480462 
L 126.886585 85.266232 
L 126.951523 84.896073 
L 127.01646 86.532191 
L 127.048929 81.696367 
L 127.211272 86.980598 
L 127.243741 84.144045 
L 127.308679 85.277478 
L 127.373616 90.809803 
L 127.438553 87.554685 
L 127.568428 84.86331 
L 127.600897 85.266232 
L 127.698303 84.86331 
L 127.730772 89.009151 
L 127.828178 75.237365 
L 127.860646 87.40107 
L 127.958053 82.932216 
L 128.185333 62.265773 
L 128.217802 64.743018 
L 128.28274 62.265773 
L 128.315208 62.265773 
L 128.445083 63.614922 
L 128.477552 62.702661 
L 128.542489 63.152215 
L 128.639895 63.152215 
L 128.672364 62.265773 
L 128.704833 64.743018 
L 128.76977 63.152215 
L 128.802239 63.614922 
L 128.834707 63.152215 
L 128.867176 62.702661 
L 128.932114 63.152215 
L 128.964582 63.614922 
L 128.997051 62.265773 
L 129.094457 62.702661 
L 129.126926 62.702661 
L 129.159394 64.091296 
L 129.224332 63.152215 
L 129.256801 63.152215 
L 129.321738 64.581882 
L 129.354207 64.091296 
L 129.419144 63.152215 
L 129.484081 65.608027 
L 129.51655 63.614922 
L 129.581488 63.614922 
L 129.711362 65.087255 
L 129.743831 63.152215 
L 129.808769 64.581882 
L 129.841237 65.087255 
L 129.873706 64.091296 
L 129.906175 63.614922 
L 129.938643 65.087255 
L 129.971112 62.702661 
L 130.003581 64.091296 
L 130.036049 63.152215 
L 130.100987 63.614922 
L 130.133456 63.614922 
L 130.165924 64.581882 
L 130.198393 64.091296 
L 130.230862 63.152215 
L 130.26333 65.087255 
L 130.295799 65.087255 
L 130.328268 63.152215 
L 130.393205 64.581882 
L 130.425674 66.144848 
L 130.490611 65.087255 
L 130.52308 65.087255 
L 130.555549 67.269433 
L 130.652955 66.698406 
L 130.78283 65.087255 
L 130.815298 65.087255 
L 130.847767 66.698406 
L 130.912704 66.144848 
L 130.977642 67.269433 
L 131.042579 64.581882 
L 131.107517 67.269433 
L 131.172454 66.698406 
L 131.204923 65.608027 
L 131.237391 67.269433 
L 131.26986 68.467066 
L 131.302329 66.144848 
L 131.399735 68.467066 
L 131.432204 64.581882 
L 131.497141 67.85871 
L 131.52961 68.467066 
L 131.562078 65.087255 
L 131.627016 66.144848 
L 131.756891 68.467066 
L 131.821828 66.144848 
L 131.854297 67.85871 
L 131.886765 67.85871 
L 131.951703 66.144848 
L 131.984172 69.744617 
L 132.049109 68.467066 
L 132.081578 64.581882 
L 132.146515 65.608027 
L 132.211452 67.85871 
L 132.243921 67.269433 
L 132.27639 65.087255 
L 132.308859 67.85871 
L 132.341327 67.85871 
L 132.373796 67.85871 
L 132.406265 68.467066 
L 132.438733 66.144848 
L 132.471202 70.415766 
L 132.536139 66.698406 
L 132.601077 66.144848 
L 132.698483 70.415766 
L 132.795889 66.698406 
L 132.828358 67.85871 
L 132.860826 67.85871 
L 132.893295 69.095386 
L 132.925764 67.269433 
L 132.958233 67.269433 
L 132.990701 71.828218 
L 133.055639 65.608027 
L 133.185513 68.467066 
L 133.217982 67.85871 
L 133.250451 70.415766 
L 133.315388 69.095386 
L 133.412794 67.269433 
L 133.445263 67.85871 
L 133.607607 70.415766 
L 133.737481 67.85871 
L 133.76995 69.095386 
L 133.802419 66.698406 
L 133.834887 68.467066 
L 133.899825 69.095386 
L 133.964762 67.269433 
L 133.997231 69.095386 
L 134.062168 68.467066 
L 134.094637 67.85871 
L 134.127106 70.415766 
L 134.192043 67.269433 
L 134.224512 69.095386 
L 134.289449 67.269433 
L 134.321918 67.269433 
L 134.354387 71.109914 
L 134.419324 68.467066 
L 134.451793 68.467066 
L 134.51673 65.087255 
L 134.549199 70.415766 
L 134.646605 69.744617 
L 134.679074 67.269433 
L 134.711542 70.415766 
L 134.744011 68.467066 
L 134.808949 68.467066 
L 134.938823 72.571917 
L 135.068698 67.269433 
L 135.101167 71.109914 
L 135.133636 66.698406 
L 135.166104 70.415766 
L 135.231042 65.608027 
L 135.295979 67.269433 
L 135.328448 71.109914 
L 135.393385 69.744617 
L 135.52326 67.269433 
L 135.620666 66.698406 
L 135.653135 69.744617 
L 135.685603 67.85871 
L 135.718072 70.415766 
L 135.78301 68.467066 
L 135.815478 68.467066 
L 135.912884 66.144848 
L 135.945353 70.415766 
L 136.042759 69.095386 
L 136.107697 69.095386 
L 136.172634 66.698406 
L 136.205103 67.85871 
L 136.237571 69.744617 
L 136.302509 67.85871 
L 136.367446 69.095386 
L 136.399915 67.269433 
L 136.464852 67.85871 
L 136.497321 69.744617 
L 136.52979 67.85871 
L 136.562258 65.087255 
L 136.594727 69.095386 
L 136.627196 69.744617 
L 136.659665 69.095386 
L 136.692133 66.144848 
L 136.757071 69.095386 
L 136.886945 71.109914 
L 136.919414 67.269433 
L 137.01682 68.467066 
L 137.114226 65.608027 
L 137.244101 70.415766 
L 137.341507 67.85871 
L 137.373976 69.095386 
L 137.406445 69.744617 
L 137.536319 66.144848 
L 137.698663 72.571917 
L 137.796069 67.269433 
L 137.828538 68.467066 
L 137.861006 67.85871 
L 137.925944 69.744617 
L 137.958413 69.095386 
L 137.990881 66.698406 
L 138.055819 67.269433 
L 138.120756 68.920901 
L 138.185693 85.130097 
L 138.250631 84.055051 
L 138.315568 84.055051 
L 138.445443 85.130097 
L 138.477912 85.130097 
L 138.607787 84.055051 
L 138.737661 85.130097 
L 138.802599 84.055051 
L 138.835068 85.130097 
L 138.867536 85.130097 
L 138.964942 84.055051 
L 139.062348 85.130097 
L 139.159755 84.055051 
L 139.289629 85.130097 
L 139.419504 84.055051 
L 139.581848 84.055051 
L 139.646785 85.130097 
L 139.679254 84.055051 
L 139.744191 84.055051 
L 139.874066 85.130097 
L 139.971472 84.055051 
L 140.101347 85.130097 
L 140.231222 84.055051 
L 140.26369 84.055051 
L 140.328628 85.130097 
L 140.361096 84.055051 
L 140.458503 84.055051 
L 140.490971 85.130097 
L 140.555909 84.055051 
L 140.588377 84.055051 
L 140.718252 85.130097 
L 140.750721 85.130097 
L 140.848127 84.055051 
L 140.913064 85.130097 
L 140.945533 84.055051 
L 140.978002 84.055051 
L 141.010471 85.130097 
L 141.075408 84.055051 
L 141.107877 84.055051 
L 141.205283 85.130097 
L 141.302689 84.055051 
L 141.432564 85.130097 
L 141.465032 85.130097 
L 141.594907 84.055051 
L 141.724782 84.055051 
L 141.822188 85.130097 
L 141.952063 84.055051 
L 141.984532 84.055051 
L 142.114406 85.130097 
L 142.244281 84.055051 
L 142.27675 85.130097 
L 142.341687 84.055051 
L 142.439093 84.055051 
L 142.536499 85.130097 
L 142.666374 84.055051 
L 142.76378 85.130097 
L 142.893655 84.055051 
L 142.958593 85.130097 
L 142.991061 84.055051 
L 143.218342 84.055051 
L 143.348217 85.130097 
L 143.478092 84.055051 
L 143.510561 84.055051 
L 143.640435 85.130097 
L 143.77031 84.055051 
L 143.802779 85.130097 
L 143.867716 84.055051 
L 143.965122 84.055051 
L 144.062528 85.130097 
L 144.192403 84.055051 
L 144.224872 84.055051 
L 144.257341 85.130097 
L 144.322278 84.055051 
L 144.354747 84.055051 
L 144.387215 85.130097 
L 144.452153 84.005061 
L 144.549559 84.055051 
L 144.679434 85.130097 
L 144.841777 85.130097 
L 144.906715 84.055051 
L 144.939183 85.130097 
L 144.971652 85.130097 
L 145.004121 84.055051 
L 145.069058 85.130097 
L 145.101527 85.130097 
L 145.198933 84.055051 
L 145.328808 85.130097 
L 145.361276 85.130097 
L 145.426214 84.055051 
L 145.458683 85.130097 
L 145.491151 85.130097 
L 145.52362 84.055051 
L 145.588557 85.130097 
L 145.621026 85.130097 
L 145.750901 84.055051 
L 145.78337 84.055051 
L 145.913244 85.130097 
L 145.945713 85.130097 
L 145.978182 84.055051 
L 146.043119 85.130097 
L 146.075588 85.130097 
L 146.172994 84.055051 
L 146.2704 85.130097 
L 146.367806 84.055051 
L 146.400275 85.130097 
L 146.465212 84.055051 
L 146.53015 84.055051 
L 146.660025 85.130097 
L 146.724962 84.055051 
L 146.757431 85.130097 
L 146.822368 85.130097 
L 146.952243 84.055051 
L 147.147055 84.055051 
L 147.27693 85.130097 
L 147.309399 84.055051 
L 147.374336 85.130097 
L 147.504211 85.130097 
L 147.634086 84.005061 
L 147.76396 85.130097 
L 147.796429 85.130097 
L 147.926304 84.055051 
L 148.02371 85.130097 
L 148.088647 84.055051 
L 148.121116 85.130097 
L 148.186054 85.130097 
L 148.315928 84.055051 
L 148.348397 84.055051 
L 148.478272 85.130097 
L 148.575678 84.055051 
L 148.705553 85.130097 
L 148.835428 84.055051 
L 148.932834 84.055051 
L 149.03024 85.130097 
L 149.160115 84.055051 
L 149.257521 85.130097 
L 149.387395 84.055051 
L 149.419864 84.055051 
L 149.549739 85.130097 
L 149.679614 84.055051 
L 149.712082 84.055051 
L 149.809489 85.130097 
L 149.906895 84.055051 
L 150.004301 85.130097 
L 150.134176 84.055051 
L 150.296519 84.055051 
L 150.328988 85.130097 
L 150.393925 84.055051 
L 150.426394 84.055051 
L 150.5238 85.130097 
L 150.653675 84.055051 
L 150.78355 85.130097 
L 150.816018 85.130097 
L 150.913424 84.055051 
L 150.945893 85.130097 
L 151.010831 84.055051 
L 151.075768 84.055051 
L 151.140705 85.130097 
L 151.173174 84.055051 
L 151.205643 84.055051 
L 151.335518 85.130097 
L 151.465392 84.055051 
L 151.497861 84.055051 
L 151.595267 85.130097 
L 151.660205 84.055051 
L 151.692673 85.130097 
L 151.725142 85.130097 
L 151.757611 84.055051 
L 151.822548 85.130097 
L 151.887485 85.130097 
L 152.01736 84.055051 
L 152.082298 85.130097 
L 152.114766 84.055051 
L 152.147235 84.055051 
L 152.212172 85.130097 
L 152.244641 84.055051 
L 152.309579 84.055051 
L 152.374516 85.130097 
L 152.406985 84.055051 
L 152.439453 84.055051 
L 152.53686 85.130097 
L 152.601797 84.055051 
L 152.634266 85.130097 
L 152.666734 85.130097 
L 152.76414 84.055051 
L 152.894015 85.130097 
L 152.926484 85.130097 
L 153.056359 84.055051 
L 153.088827 84.055051 
L 153.218702 85.130097 
L 153.251171 85.130097 
L 153.28364 84.055051 
L 153.348577 85.130097 
L 153.381046 85.130097 
L 153.478452 84.055051 
L 153.608327 85.130097 
L 153.705733 84.055051 
L 153.803139 85.130097 
L 153.933014 84.055051 
L 154.03042 84.055051 
L 154.095357 85.130097 
L 154.127826 84.055051 
L 154.192763 84.055051 
L 154.322638 85.130097 
L 154.355107 84.055051 
L 154.420044 85.130097 
L 154.452513 85.130097 
L 154.582388 84.055051 
L 154.647325 84.055051 
L 154.7772 85.130097 
L 154.809669 85.130097 
L 154.842137 84.055051 
L 154.907075 85.130097 
L 154.939543 85.130097 
L 154.972012 84.055051 
L 155.03695 85.130097 
L 155.069418 85.130097 
L 155.166824 84.055051 
L 155.26423 85.130097 
L 155.361637 84.055051 
L 155.459043 85.130097 
L 155.588917 84.055051 
L 155.653855 85.130097 
L 155.686324 84.055051 
L 155.78373 84.055051 
L 155.881136 85.130097 
L 156.011011 84.055051 
L 156.108417 84.055051 
L 156.238291 85.130097 
L 156.27076 85.130097 
L 156.400635 84.055051 
L 156.433104 84.055051 
L 156.562978 85.130097 
L 156.692853 84.055051 
L 156.822728 85.130097 
L 156.920134 84.055051 
L 156.952603 85.130097 
L 157.01754 84.055051 
L 157.050009 84.055051 
L 157.114946 85.130097 
L 157.147415 84.055051 
L 157.244821 84.055051 
L 157.374696 85.130097 
L 157.439633 85.130097 
L 157.569508 84.055051 
L 157.796789 84.055051 
L 157.926664 85.130097 
L 158.02407 85.130097 
L 158.056539 84.055051 
L 158.121476 85.130097 
L 158.186414 85.130097 
L 158.28382 84.055051 
L 158.413694 85.130097 
L 158.511101 84.055051 
L 158.543569 85.130097 
L 158.608507 84.055051 
L 158.640975 84.055051 
L 158.77085 85.130097 
L 158.835788 85.130097 
L 158.868256 59.400743 
L 158.933194 85.130097 
L 158.965662 85.130097 
L 159.063068 84.055051 
L 159.160475 85.130097 
L 159.290349 84.055051 
L 159.387756 85.130097 
L 159.51763 84.055051 
L 159.647505 85.130097 
L 159.712443 85.130097 
L 159.809849 84.055051 
L 159.939723 85.130097 
L 160.03713 84.055051 
L 160.134536 85.130097 
L 160.231942 84.055051 
L 160.361817 85.130097 
L 160.491691 84.055051 
L 160.52416 84.055051 
L 160.556629 64.538169 
L 160.589097 85.130097 
L 160.621566 84.055051 
L 160.751441 85.130097 
L 160.816378 85.130097 
L 160.946253 84.055051 
L 160.978722 84.055051 
L 161.076128 85.130097 
L 161.206003 84.055051 
L 161.335878 85.130097 
L 161.368346 84.055051 
L 161.433284 85.130097 
L 161.563158 85.130097 
L 161.693033 84.055051 
L 161.725502 84.055051 
L 161.757971 85.130097 
L 161.822908 84.055051 
L 161.855377 84.055051 
L 161.985252 85.130097 
L 162.115126 84.055051 
L 162.245001 85.130097 
L 162.374876 84.055051 
L 162.504751 85.130097 
L 162.569688 85.130097 
L 162.667094 84.055051 
L 162.699563 85.130097 
L 162.7645 84.055051 
L 162.796969 84.055051 
L 162.829438 85.130097 
L 162.894375 84.055051 
L 162.959313 84.055051 
L 162.991781 85.130097 
L 163.056719 84.055051 
L 163.089187 84.055051 
L 163.121656 85.130097 
L 163.186594 84.055051 
L 163.284 84.055051 
L 163.316468 85.130097 
L 163.381406 84.055051 
L 163.413874 84.055051 
L 163.511281 85.130097 
L 163.641155 84.055051 
L 163.738561 84.055051 
L 163.77103 85.130097 
L 163.835968 84.055051 
L 163.900905 84.055051 
L 163.933374 85.130097 
L 163.998311 84.055051 
L 164.063249 84.055051 
L 164.160655 85.130097 
L 164.193123 84.055051 
L 164.258061 85.130097 
L 164.290529 85.130097 
L 164.420404 84.055051 
L 164.51781 85.130097 
L 164.647685 84.055051 
L 164.680154 84.055051 
L 164.810029 85.130097 
L 164.874966 84.055051 
L 164.907435 63.963377 
L 164.939903 85.130097 
L 164.972372 84.055051 
L 165.03731 83.915158 
L 165.069778 85.130097 
L 165.134716 84.055051 
L 165.167184 85.130097 
L 165.26459 85.130097 
L 165.329528 84.055051 
L 165.361997 85.130097 
L 165.426934 85.130097 
L 165.556809 84.055051 
L 165.654215 85.130097 
L 165.78409 84.055051 
L 166.011371 84.055051 
L 166.076308 85.130097 
L 166.108777 84.055051 
L 166.206183 84.055051 
L 166.336058 85.130097 
L 166.368526 85.130097 
L 166.465932 84.055051 
L 166.563339 85.130097 
L 166.693213 84.055051 
L 166.823088 85.130097 
L 166.855557 85.130097 
L 166.952963 84.055051 
L 167.082838 85.130097 
L 167.115306 85.130097 
L 167.212713 84.055051 
L 167.245181 85.130097 
L 167.310119 84.055051 
L 167.375056 84.055051 
L 167.407525 85.130097 
L 167.472462 84.055051 
L 167.504931 84.055051 
L 167.634806 85.130097 
L 167.699743 85.130097 
L 167.76468 84.055051 
L 167.797149 85.130097 
L 167.862087 85.130097 
L 167.959493 84.055051 
L 168.089367 85.130097 
L 168.186774 85.130097 
L 168.28418 84.055051 
L 168.316648 85.130097 
L 168.381586 84.055051 
L 168.414054 84.055051 
L 168.446523 85.130097 
L 168.511461 84.055051 
L 168.543929 84.055051 
L 168.641335 85.130097 
L 168.706273 84.055051 
L 168.738742 85.130097 
L 168.77121 85.130097 
L 168.901085 84.055051 
L 169.03096 84.055051 
L 169.128366 85.130097 
L 169.225772 84.055051 
L 169.323178 85.130097 
L 169.453053 84.055051 
L 169.582928 85.130097 
L 169.680334 84.055051 
L 169.810209 85.130097 
L 169.842677 84.055051 
L 169.907615 85.130097 
L 170.03749 85.130097 
L 170.167364 84.055051 
L 170.232302 85.130097 
L 170.26477 84.055051 
L 170.297239 84.055051 
L 170.329708 66.58365 
L 170.362177 85.130097 
L 170.394645 84.055051 
L 170.459583 85.130097 
L 170.492051 84.055051 
L 170.556989 84.055051 
L 170.654395 85.130097 
L 170.78427 84.055051 
L 170.816738 84.055051 
L 170.849207 85.130097 
L 170.914145 84.055051 
L 170.979082 84.055051 
L 171.044019 85.130097 
L 171.076488 84.055051 
L 171.141425 84.055051 
L 171.206363 85.130097 
L 171.238832 84.055051 
L 171.336238 84.055051 
L 171.466112 85.130097 
L 171.595987 84.055051 
L 171.628456 84.055051 
L 171.660925 85.130097 
L 171.725862 84.055051 
L 171.888206 84.055051 
L 171.920674 85.130097 
L 171.985612 84.055051 
L 172.01808 84.055051 
L 172.147955 85.130097 
L 172.180424 85.130097 
L 172.245361 84.055051 
L 172.27783 85.130097 
L 172.310299 85.130097 
L 172.407705 84.055051 
L 172.472642 85.130097 
L 172.505111 84.055051 
L 172.570048 84.055051 
L 172.634986 85.130097 
L 172.667454 84.055051 
L 172.76486 84.055051 
L 172.797329 85.130097 
L 172.862267 84.055051 
L 172.927204 84.055051 
L 172.959673 85.130097 
L 173.02461 84.055051 
L 173.089548 84.055051 
L 173.219422 85.130097 
L 173.316828 85.130097 
L 173.349297 84.055051 
L 173.414235 85.130097 
L 173.479172 85.130097 
L 173.511641 84.055051 
L 173.576578 85.130097 
L 173.609047 85.130097 
L 173.706453 84.055051 
L 173.77139 85.130097 
L 173.803859 84.055051 
L 173.998671 84.055051 
L 174.03114 85.130097 
L 174.096077 84.055051 
L 174.128546 84.055051 
L 174.225952 85.130097 
L 174.355827 84.055051 
L 174.453233 85.130097 
L 174.550639 84.055051 
L 174.680514 85.130097 
L 174.745451 85.130097 
L 174.77792 84.055051 
L 174.842857 85.130097 
L 174.875326 85.130097 
L 175.005201 84.055051 
L 175.03767 84.055051 
L 175.167544 85.130097 
L 175.200013 85.130097 
L 175.329888 84.055051 
L 175.362357 85.130097 
L 175.427294 84.055051 
L 175.492231 84.055051 
L 175.589638 85.130097 
L 175.687044 84.055051 
L 175.751981 85.130097 
L 175.78445 84.055051 
L 175.816918 84.055051 
L 175.946793 85.130097 
L 176.011731 84.055051 
L 176.044199 85.130097 
L 176.076668 85.130097 
L 176.206543 84.055051 
L 176.27148 84.055051 
L 176.303949 85.130097 
L 176.368886 84.055051 
L 176.433824 84.055051 
L 176.498761 85.130097 
L 176.53123 84.055051 
L 176.628636 84.055051 
L 176.726042 85.130097 
L 176.758511 84.055051 
L 176.823448 85.130097 
L 176.855917 85.130097 
L 176.985792 84.055051 
L 177.083198 84.055051 
L 177.213073 85.130097 
L 177.310479 84.055051 
L 177.440353 85.130097 
L 177.472822 85.130097 
L 177.602697 84.055051 
L 177.732572 85.130097 
L 177.862447 84.055051 
L 177.894915 84.055051 
L 177.959853 85.130097 
L 177.992321 84.055051 
L 178.089728 84.055051 
L 178.122196 85.130097 
L 178.187134 84.055051 
L 178.28454 84.055051 
L 178.381946 85.130097 
L 178.511821 84.055051 
L 178.576758 84.055051 
L 178.641695 85.130097 
L 178.674164 84.055051 
L 178.706633 84.055051 
L 178.77157 85.130097 
L 178.804039 84.055051 
L 178.836508 84.055051 
L 178.868976 85.130097 
L 178.933914 84.055051 
L 178.998851 84.055051 
L 179.03132 85.130097 
L 179.096257 84.055051 
L 179.258601 84.055051 
L 179.388476 85.130097 
L 179.453413 85.130097 
L 179.583288 84.055051 
L 179.615756 69.358135 
L 179.648225 85.130097 
L 179.680694 84.055051 
L 179.713163 84.055051 
L 179.843037 85.130097 
L 179.972912 84.055051 
L 180.102787 85.130097 
L 180.135256 85.130097 
L 180.265131 84.055051 
L 180.362537 84.055051 
L 180.492411 85.130097 
L 180.52488 85.130097 
L 180.654755 84.055051 
L 180.752161 85.130097 
L 180.882036 84.055051 
L 180.979442 85.130097 
L 181.109317 84.055051 
L 181.239192 85.130097 
L 181.304129 84.055051 
L 181.336598 85.130097 
L 181.369066 85.130097 
L 181.498941 84.055051 
L 181.563879 85.130097 
L 181.596347 84.055051 
L 181.726222 84.055051 
L 181.758691 85.130097 
L 181.823628 84.055051 
L 181.953503 84.055051 
L 181.985972 85.130097 
L 182.050909 84.055051 
L 182.375596 84.055051 
L 182.408065 85.130097 
L 182.473002 84.055051 
L 182.53794 84.055051 
L 182.570408 85.130097 
L 182.635346 84.055051 
L 182.667814 84.055051 
L 182.765221 85.130097 
L 182.830158 84.055051 
L 182.862627 85.130097 
L 182.927564 85.130097 
L 183.057439 84.055051 
L 183.187314 85.130097 
L 183.317188 84.055051 
L 183.349657 84.055051 
L 183.382126 85.130097 
L 183.447063 84.055051 
L 183.576938 84.055051 
L 183.609407 85.130097 
L 183.674344 84.055051 
L 183.804219 84.055051 
L 183.901625 85.130097 
L 184.0315 84.055051 
L 184.063969 84.055051 
L 184.161375 85.130097 
L 184.291249 84.055051 
L 184.323718 85.130097 
L 184.388656 84.055051 
L 184.486062 84.055051 
L 184.583468 85.130097 
L 184.713343 84.055051 
L 184.810749 85.130097 
L 184.875686 84.055051 
L 184.908155 85.130097 
L 184.940624 85.130097 
L 185.070498 84.055051 
L 185.200373 85.130097 
L 185.265311 84.055051 
L 185.297779 72.750531 
L 185.330248 85.130097 
L 185.362717 84.055051 
L 185.395185 84.055051 
L 185.427654 85.130097 
L 185.492591 84.055051 
L 185.719872 84.055051 
L 185.752341 85.130097 
L 185.817278 84.055051 
L 185.882216 84.055051 
L 185.947153 83.915158 
L 186.012091 85.130097 
L 186.141965 84.055051 
L 186.174434 84.055051 
L 186.304309 85.130097 
L 186.401715 84.055051 
L 186.466652 85.130097 
L 186.499121 84.055051 
L 186.693933 84.055051 
L 186.791339 85.130097 
L 186.856277 84.055051 
L 186.888746 85.130097 
L 186.953683 85.130097 
L 187.083558 84.055051 
L 187.116027 84.055051 
L 187.213433 85.130097 
L 187.343307 84.055051 
L 187.473182 85.130097 
L 187.505651 84.055051 
L 187.570588 85.130097 
L 187.635526 85.130097 
L 187.700463 84.055051 
L 187.732932 85.130097 
L 187.765401 85.130097 
L 187.895275 84.055051 
L 187.927744 84.055051 
L 188.057619 85.130097 
L 188.187494 84.055051 
L 188.252431 84.055051 
L 188.382306 85.130097 
L 188.512181 84.055051 
L 188.739462 84.055051 
L 188.869336 85.130097 
L 188.901805 84.055051 
L 188.934274 85.130097 
L 188.966742 97.196464 
L 189.03168 85.130097 
L 189.161555 84.055051 
L 189.258961 84.055051 
L 189.356367 85.130097 
L 189.421304 84.055051 
L 189.486242 97.933072 
L 189.51871 85.130097 
L 189.648585 85.130097 
L 189.77846 84.055051 
L 189.810929 84.055051 
L 189.940804 85.130097 
L 190.070678 84.055051 
L 190.103147 84.055051 
L 190.135616 85.130097 
L 190.200553 84.055051 
L 190.265491 84.055051 
L 190.362897 85.130097 
L 190.492771 84.055051 
L 190.622646 85.130097 
L 190.752521 84.055051 
L 190.817458 84.055051 
L 190.849927 83.915158 
L 190.882396 85.130097 
L 190.914865 84.055051 
L 190.947333 76.0266 
L 191.012271 85.130097 
L 191.109677 84.055051 
L 191.142145 85.130097 
L 191.207083 84.055051 
L 191.27202 84.055051 
L 191.401895 85.130097 
L 191.53177 84.055051 
L 191.661645 85.130097 
L 191.79152 84.055051 
L 191.823988 75.330163 
L 191.888926 84.055051 
L 191.921394 84.055051 
L 191.953863 85.130097 
L 192.0188 84.055051 
L 192.051269 84.055051 
L 192.083738 85.130097 
L 192.148675 84.055051 
L 192.213613 84.055051 
L 192.343487 85.130097 
L 192.440894 84.055051 
L 192.473362 85.130097 
L 192.5383 84.055051 
L 192.635706 84.055051 
L 192.668174 85.130097 
L 192.733112 84.055051 
L 192.862987 84.055051 
L 192.960393 85.130097 
L 193.02533 84.055051 
L 193.057799 85.130097 
L 193.090268 85.130097 
L 193.187674 84.055051 
L 193.28508 85.130097 
L 193.350017 84.055051 
L 193.382486 85.130097 
L 193.414955 85.130097 
L 193.544829 84.055051 
L 193.609767 85.130097 
L 193.642235 84.055051 
L 193.966923 84.055051 
L 194.03186 85.130097 
L 194.064329 84.055051 
L 194.129266 84.055051 
L 194.259141 85.130097 
L 194.356547 84.055051 
L 194.389016 85.130097 
L 194.453953 84.055051 
L 194.486422 84.055051 
L 194.551359 85.130097 
L 194.583828 84.055051 
L 194.648765 84.055051 
L 194.681234 85.130097 
L 194.713703 78.752254 
L 194.77864 85.130097 
L 194.876046 85.130097 
L 194.973452 84.055051 
L 195.03839 85.130097 
L 195.070858 84.055051 
L 195.103327 84.055051 
L 195.135796 85.130097 
L 195.200733 84.055051 
L 195.233202 84.055051 
L 195.265671 85.130097 
L 195.330608 84.055051 
L 195.395545 84.055051 
L 195.428014 85.130097 
L 195.492951 84.055051 
L 195.720232 84.055051 
L 195.850107 85.130097 
L 195.915045 85.130097 
L 196.044919 84.055051 
L 196.174794 84.055051 
L 196.207263 85.130097 
L 196.2722 84.055051 
L 196.499481 84.055051 
L 196.53195 85.130097 
L 196.596887 84.055051 
L 196.759231 84.055051 
L 196.889106 85.130097 
L 196.921574 85.130097 
L 197.051449 84.055051 
L 197.083918 84.055051 
L 197.181324 85.130097 
L 197.27873 84.055051 
L 197.376136 85.130097 
L 197.506011 84.055051 
L 197.635886 84.055051 
L 197.700823 85.130097 
L 197.733292 84.055051 
L 197.765761 84.055051 
L 197.830698 85.130097 
L 197.863167 84.055051 
L 197.928104 84.055051 
L 198.057979 85.130097 
L 198.187854 84.055051 
L 198.220322 84.055051 
L 198.317729 85.130097 
L 198.447603 84.055051 
L 198.480072 84.055051 
L 198.545009 85.130097 
L 198.577478 84.055051 
L 198.967103 84.055051 
L 199.03204 85.130097 
L 199.064509 84.055051 
L 199.129446 84.055051 
L 199.161915 85.130097 
L 199.226852 84.055051 
L 199.389196 84.055051 
L 199.454133 85.130097 
L 199.486602 84.055051 
L 199.51907 84.055051 
L 199.551539 85.130097 
L 199.616477 84.055051 
L 199.746351 84.055051 
L 199.843757 85.130097 
L 199.973632 84.055051 
L 200.006101 85.130097 
L 200.071038 84.055051 
L 200.265851 84.055051 
L 200.363257 85.130097 
L 200.460663 84.055051 
L 200.590538 85.130097 
L 200.623006 85.130097 
L 200.720412 84.055051 
L 200.850287 85.130097 
L 200.882756 85.130097 
L 201.012631 84.055051 
L 201.174974 84.055051 
L 201.207443 85.130097 
L 201.27238 84.055051 
L 201.369786 84.055051 
L 201.402255 85.130097 
L 201.467193 84.055051 
L 201.499661 84.055051 
L 201.53213 85.130097 
L 201.597067 84.055051 
L 201.662005 84.055051 
L 201.79188 85.130097 
L 201.824348 85.130097 
L 201.921754 84.055051 
L 202.01916 85.130097 
L 202.116567 84.055051 
L 202.246441 85.130097 
L 202.343847 84.055051 
L 202.376316 85.130097 
L 202.441254 84.055051 
L 202.473722 84.055051 
L 202.571128 85.130097 
L 202.701003 84.055051 
L 202.765941 85.130097 
L 202.798409 84.055051 
L 202.895815 84.055051 
L 203.02569 85.130097 
L 203.155565 84.055051 
L 203.512721 84.055051 
L 203.545189 85.130097 
L 203.610127 84.055051 
L 203.707533 84.055051 
L 203.837408 85.130097 
L 203.869876 85.130097 
L 203.999751 84.055051 
L 204.064689 84.055051 
L 204.194563 85.130097 
L 204.324438 84.055051 
L 204.421844 85.130097 
L 204.551719 84.055051 
L 204.681594 84.055051 
L 204.779 85.130097 
L 204.908875 84.055051 
L 204.973812 84.055051 
L 205.006281 85.130097 
L 205.071218 84.055051 
L 205.298499 84.055051 
L 205.395905 85.130097 
L 205.52578 84.055051 
L 205.558249 84.055051 
L 205.655655 85.130097 
L 205.720592 84.055051 
L 205.753061 85.130097 
L 205.78553 85.130097 
L 205.915405 84.055051 
L 206.012811 84.055051 
L 206.142686 85.130097 
L 206.27256 84.055051 
L 206.564779 84.055051 
L 206.694653 85.130097 
L 206.824528 84.055051 
L 206.889466 84.055051 
L 206.954403 85.130097 
L 206.986872 84.055051 
L 207.181684 84.055051 
L 207.311559 85.130097 
L 207.408965 84.055051 
L 207.441434 85.130097 
L 207.506371 84.055051 
L 207.733652 84.055051 
L 207.766121 85.130097 
L 207.831058 84.055051 
L 207.863527 84.055051 
L 207.960933 85.130097 
L 208.090808 84.055051 
L 208.123276 84.055051 
L 208.155745 85.130097 
L 208.220682 84.055051 
L 208.28562 84.055051 
L 208.318089 85.130097 
L 208.383026 84.055051 
L 208.642776 84.055051 
L 208.740182 85.130097 
L 208.837588 84.055051 
L 208.934994 85.130097 
L 209.064869 84.055051 
L 209.097337 85.130097 
L 209.129806 94.175937 
L 209.162275 84.055051 
L 209.194743 84.055051 
L 209.259681 85.130097 
L 209.29215 84.055051 
L 209.357087 84.055051 
L 209.389556 85.130097 
L 209.454493 84.055051 
L 209.551899 84.055051 
L 209.616837 85.130097 
L 209.649305 84.055051 
L 209.746711 84.055051 
L 209.844118 85.130097 
L 209.973992 84.055051 
L 210.233742 84.055051 
L 210.298679 85.130097 
L 210.331148 84.055051 
L 210.428554 84.055051 
L 210.461023 85.130097 
L 210.52596 84.055051 
L 210.818179 84.055051 
L 210.883116 85.130097 
L 210.915585 84.055051 
L 211.142866 84.055051 
L 211.175334 85.130097 
L 211.240272 84.055051 
L 211.305209 84.055051 
L 211.337678 85.130097 
L 211.402615 84.055051 
L 211.564959 84.055051 
L 211.694833 85.130097 
L 211.824708 84.055051 
L 211.954583 85.130097 
L 212.084458 84.055051 
L 212.181864 84.055051 
L 212.214333 85.130097 
L 212.27927 84.055051 
L 212.668895 84.055051 
L 212.701363 85.130097 
L 212.766301 84.055051 
L 213.253331 84.055051 
L 213.383206 85.130097 
L 213.513081 84.055051 
L 213.642956 84.055051 
L 213.740362 85.130097 
L 213.870236 84.055051 
L 214.03258 84.055051 
L 214.065049 85.130097 
L 214.129986 84.055051 
L 214.259861 84.055051 
L 214.29233 85.130097 
L 214.357267 84.055051 
L 214.422204 84.055051 
L 214.519611 85.130097 
L 214.617017 84.055051 
L 214.746891 85.130097 
L 214.844298 84.055051 
L 214.909235 85.130097 
L 214.941704 84.055051 
L 215.071578 84.055051 
L 215.104047 85.130097 
L 215.168985 84.055051 
L 215.266391 84.055051 
L 215.298859 85.130097 
L 215.363797 84.055051 
L 215.52614 84.055051 
L 215.558609 85.130097 
L 215.623546 84.055051 
L 215.720952 84.055051 
L 215.753421 85.130097 
L 215.818359 84.055051 
L 216.337858 84.055051 
L 216.370326 85.130097 
L 216.435264 84.055051 
L 216.500201 84.055051 
L 216.565139 85.130097 
L 216.597607 84.055051 
L 216.662545 84.055051 
L 216.759951 85.130097 
L 216.889826 84.055051 
L 216.954763 84.055051 
L 217.052169 85.130097 
L 217.182044 84.055051 
L 217.214513 85.130097 
L 217.27945 84.055051 
L 217.311919 84.055051 
L 217.344388 85.130097 
L 217.409325 84.055051 
L 217.636606 84.055051 
L 217.701543 85.130097 
L 217.734012 84.055051 
L 217.766481 84.055051 
L 217.831418 85.130097 
L 217.863887 84.055051 
L 218.02623 84.055051 
L 218.156105 85.130097 
L 218.28598 84.055051 
L 218.350917 85.130097 
L 218.383386 84.055051 
L 218.415855 84.055051 
L 218.545729 85.130097 
L 218.675604 84.055051 
L 218.77301 84.055051 
L 218.870416 85.130097 
L 219.000291 84.055051 
L 219.03276 85.130097 
L 219.097697 84.055051 
L 219.812009 84.055051 
L 219.844478 85.130097 
L 219.909415 84.055051 
L 220.071758 84.055051 
L 220.104227 85.130097 
L 220.169165 84.055051 
L 220.396445 84.055051 
L 220.428914 85.130097 
L 220.493852 84.055051 
L 220.591258 84.055051 
L 220.656195 85.130097 
L 220.688664 84.055051 
L 220.753601 84.055051 
L 220.78607 85.130097 
L 220.851007 84.055051 
L 220.948413 84.055051 
L 220.980882 85.130097 
L 221.045819 84.055051 
L 221.2731 84.055051 
L 221.338038 85.130097 
L 221.370507 84.055051 
L 221.467913 84.055051 
L 221.565319 85.130097 
L 221.695194 84.055051 
L 221.727662 84.055051 
L 221.857537 85.130097 
L 221.987412 84.055051 
L 222.019881 84.055051 
L 222.052349 85.130097 
L 222.117287 84.055051 
L 222.247161 84.055051 
L 222.377036 85.130097 
L 222.506911 84.055051 
L 223.02641 84.055051 
L 223.058879 85.130097 
L 223.123816 84.055051 
L 223.156285 84.055051 
L 223.253691 85.130097 
L 223.383566 84.055051 
L 223.513441 84.055051 
L 223.54591 85.130097 
L 223.610847 84.055051 
L 223.838128 84.055051 
L 223.935534 85.130097 
L 224.03294 84.055051 
L 224.130346 85.130097 
L 224.260221 84.055051 
L 224.29269 84.055051 
L 224.390096 85.130097 
L 224.519971 84.055051 
L 224.909595 84.055051 
L 224.942064 85.130097 
L 225.007001 84.055051 
L 225.071938 84.055051 
L 225.104407 85.130097 
L 225.169345 84.055051 
L 225.916125 84.055051 
L 225.981062 85.130097 
L 226.013531 84.055051 
L 226.240812 84.055051 
L 226.27328 85.130097 
L 226.338218 84.055051 
L 226.53303 84.055051 
L 226.565499 85.130097 
L 226.630436 84.055051 
L 226.79278 84.055051 
L 226.890186 85.130097 
L 227.020061 84.055051 
L 227.182404 84.055051 
L 227.214873 85.130097 
L 227.27981 84.055051 
L 227.53956 84.055051 
L 227.669435 85.130097 
L 227.734372 84.055051 
L 227.766841 85.130097 
L 227.799309 85.130097 
L 227.929184 84.055051 
L 227.994122 84.055051 
L 228.091528 96.497561 
L 228.221403 84.055051 
L 228.253871 97.196464 
L 228.318809 84.055051 
L 228.416215 84.055051 
L 228.448683 85.130097 
L 228.513621 84.055051 
L 228.870777 84.055051 
L 228.903245 85.130097 
L 228.968183 84.055051 
L 229.03312 84.055051 
L 229.065589 85.130097 
L 229.130526 84.055051 
L 229.390276 84.055051 
L 229.422744 85.130097 
L 229.487682 84.055051 
L 229.714963 84.055051 
L 229.812369 85.130097 
L 229.942244 84.055051 
L 230.072118 84.055051 
L 230.104587 85.130097 
L 230.169525 84.055051 
L 230.201993 84.055051 
L 230.234462 85.130097 
L 230.299399 84.055051 
L 230.396805 84.055051 
L 230.429274 96.497561 
L 230.461743 77.013805 
L 230.494212 76.329051 
L 230.52668 88.68965 
L 230.591618 77.013805 
L 230.624086 76.329662 
L 230.753961 87.62827 
L 230.78643 87.676395 
L 230.818899 88.68965 
L 230.948773 76.329051 
L 230.981242 91.650127 
L 231.04618 88.626272 
L 231.078648 76.329051 
L 231.176054 76.329662 
L 231.240992 91.868548 
L 231.305929 88.626272 
L 231.403335 92.004751 
L 231.370867 87.308266 
L 231.435804 91.810505 
L 231.500741 91.868548 
L 231.565679 91.675223 
L 231.695554 92.004751 
L 231.728022 89.347108 
L 231.79296 91.675223 
L 231.922834 92.146751 
L 231.955303 91.951741 
L 232.052709 91.951741 
L 232.117647 92.294597 
L 232.150115 92.004751 
L 232.182584 88.269272 
L 232.215053 92.294597 
L 232.247521 91.951741 
L 232.27999 92.146751 
L 232.344928 91.951741 
L 232.377396 91.810505 
L 232.409865 92.146751 
L 232.474802 92.098978 
L 232.507271 91.951741 
L 232.572208 92.098978 
L 232.669615 92.294597 
L 232.734552 91.382108 
L 232.767021 92.448338 
L 232.864427 92.098978 
L 232.896896 92.098978 
L 232.929364 92.448338 
L 232.994302 92.098978 
L 233.124176 92.598973 
L 233.156645 92.41165 
L 233.189114 92.41165 
L 233.221583 92.745756 
L 233.254051 92.57719 
L 233.351457 92.884593 
L 233.383926 70.952796 
L 233.481332 100.733178 
L 233.513801 92.74894 
L 233.578738 101.644945 
L 233.611207 100.375244 
L 233.708613 70.952796 
L 233.741082 98.981235 
L 233.806019 70.952796 
L 233.838488 71.312481 
L 233.903425 70.952796 
L 233.935894 70.538641 
L 233.968363 71.426946 
L 234.065769 73.305682 
L 234.228112 78.075302 
L 234.552799 87.336415 
L 234.909955 87.336415 
L 234.942424 86.380002 
L 235.03983 74.841667 
L 235.072299 81.73806 
L 235.104767 82.902684 
L 235.202173 82.873858 
L 235.234642 82.989026 
L 235.267111 81.664806 
L 235.364517 72.575471 
L 235.396986 73.439746 
L 235.429454 75.672017 
L 235.461923 70.656109 
L 235.52686 74.978428 
L 235.559329 72.245491 
L 235.591798 82.842043 
L 235.689204 78.73504 
L 235.819079 84.555097 
L 235.884016 84.555097 
L 235.916485 83.422963 
L 235.981422 83.555404 
L 236.013891 84.555097 
L 236.04636 82.594857 
L 236.078828 83.555404 
L 236.143766 84.555097 
L 236.241172 81.678378 
L 236.27364 81.671182 
L 236.371047 76.061506 
L 236.435984 79.097424 
L 236.565859 70.952796 
L 236.598327 76.781527 
L 236.695734 76.061506 
L 236.760671 77.526616 
L 236.79314 76.061506 
L 236.890546 74.039859 
L 237.020421 76.061506 
L 237.28017 68.051989 
L 237.377576 68.486874 
L 237.442514 68.051989 
L 237.474982 68.486874 
L 237.53992 84.112705 
L 237.572389 68.051989 
L 237.604857 68.051989 
L 237.734732 84.112705 
L 237.864607 83.182951 
L 237.897076 83.182951 
L 238.02695 84.112705 
L 238.059419 84.112705 
L 238.091888 89.353315 
L 238.189294 89.069324 
L 238.221763 73.368206 
L 238.2867 89.353315 
L 238.319169 89.353315 
L 238.449043 89.069324 
L 238.741262 89.069324 
L 238.871137 73.368206 
L 239.552979 73.368206 
L 239.585448 82.006483 
L 239.650385 73.368206 
L 239.845198 73.368206 
L 239.910135 70.599427 
L 239.942604 75.669008 
L 240.007541 71.047085 
L 240.072479 71.047085 
L 240.104947 71.506552 
L 240.169885 71.047085 
L 240.234822 71.047085 
L 240.299759 74.539228 
L 240.332228 71.047085 
L 240.429634 71.047085 
L 240.462103 74.539228 
L 240.52704 71.047085 
L 240.559509 71.047085 
L 240.591978 71.506552 
L 240.624446 87.400036 
L 240.689384 71.047085 
L 241.208883 71.047085 
L 241.241352 71.506552 
L 241.306289 71.047085 
L 241.338758 71.047085 
L 241.403695 71.506552 
L 241.436164 71.047085 
L 241.468633 71.047085 
L 241.501101 84.952524 
L 241.566039 71.047085 
L 241.630976 71.047085 
L 241.663445 84.952524 
L 241.728382 71.047085 
L 241.79332 71.047085 
L 241.825788 85.699783 
L 241.890726 71.047085 
L 242.085538 71.047085 
L 242.118007 89.008617 
L 242.182944 71.047085 
L 242.507631 71.047085 
L 242.5401 71.506552 
L 242.572569 89.92506 
L 242.637506 71.506552 
L 242.897256 71.506552 
L 242.994662 90.881463 
L 243.124536 71.506552 
L 243.28688 71.506552 
L 243.319349 91.230395 
L 243.416755 89.92506 
L 243.449223 91.039453 
L 243.481692 90.283293 
L 243.708973 71.506552 
L 243.741442 86.477308 
L 243.806379 71.506552 
L 244.163535 71.506552 
L 244.196004 91.353202 
L 244.260941 71.047085 
L 244.29341 71.047085 
L 244.423285 71.506552 
L 244.488222 71.506552 
L 244.520691 86.084956 
L 244.585628 71.506552 
L 245.04019 71.506552 
L 245.170065 86.084956 
L 245.299939 85.079282 
L 245.397346 92.532884 
L 245.429814 86.084956 
L 245.494752 103.050766 
L 245.52722 93.031545 
L 245.624626 85.079282 
L 245.657095 90.634432 
L 245.722033 86.084956 
L 245.819439 86.084956 
L 246.014251 101.644945 
L 246.371407 101.644945 
L 246.403875 89.295781 
L 246.468813 101.644945 
L 246.53375 101.644945 
L 246.598688 85.079282 
L 246.631156 101.644945 
L 246.761031 101.644945 
L 246.825968 88.530451 
L 246.858437 88.928792 
L 246.988312 295.488 
L 398.487273 295.488 
L 398.487273 295.488 
" clip-path="url(#p0a27c44c5f)" style="fill: none; stroke: #1f77b4; stroke-width: 1.5; stroke-linecap: square"/>
   </g>
   <g id="patch_3">
    <path d="M 57.6 307.584 
L 57.6 41.472 
" style="fill: none; stroke: #000000; stroke-width: 0.8; stroke-linejoin: miter; stroke-linecap: square"/>
   </g>
   <g id="patch_4">
    <path d="M 414.72 307.584 
L 414.72 41.472 
" style="fill: none; stroke: #000000; stroke-width: 0.8; stroke-linejoin: miter; stroke-linecap: square"/>
   </g>
   <g id="patch_5">
    <path d="M 57.6 307.584 
L 414.72 307.584 
" style="fill: none; stroke: #000000; stroke-width: 0.8; stroke-linejoin: miter; stroke-linecap: square"/>
   </g>
   <g id="patch_6">
    <path d="M 57.6 41.472 
L 414.72 41.472 
" style="fill: none; stroke: #000000; stroke-width: 0.8; stroke-linejoin: miter; stroke-linecap: square"/>
   </g>
  </g>
 </g>
 <defs>
  <clipPath id="p0a27c44c5f">
   <rect x="57.6" y="41.472" width="357.12" height="266.112"/>
  </clipPath>
 </defs>
</svg>
