<?xml version="1.0" encoding="utf-8" standalone="no"?>
<!DOCTYPE svg PUBLIC "-//W3C//DTD SVG 1.1//EN"
  "http://www.w3.org/Graphics/SVG/1.1/DTD/svg11.dtd">
<svg xmlns:xlink="http://www.w3.org/1999/xlink" width="460.8pt" height="345.6pt" viewBox="0 0 460.8 345.6" xmlns="http://www.w3.org/2000/svg" version="1.1">
 <metadata>
  <rdf:RDF xmlns:dc="http://purl.org/dc/elements/1.1/" xmlns:cc="http://creativecommons.org/ns#" xmlns:rdf="http://www.w3.org/1999/02/22-rdf-syntax-ns#">
   <cc:Work>
    <dc:type rdf:resource="http://purl.org/dc/dcmitype/StillImage"/>
    <dc:date>2024-04-24T20:50:00.412741</dc:date>
    <dc:format>image/svg+xml</dc:format>
    <dc:creator>
     <cc:Agent>
      <dc:title>Matplotlib v3.7.2, https://matplotlib.org/</dc:title>
     </cc:Agent>
    </dc:creator>
   </cc:Work>
  </rdf:RDF>
 </metadata>
 <defs>
  <style type="text/css">*{stroke-linejoin: round; stroke-linecap: butt}</style>
 </defs>
 <g id="figure_1">
  <g id="patch_1">
   <path d="M 0 345.6 
L 460.8 345.6 
L 460.8 0 
L 0 0 
z
" style="fill: #ffffff"/>
  </g>
  <g id="axes_1">
   <g id="patch_2">
    <path d="M 57.6 307.584 
L 414.72 307.584 
L 414.72 41.472 
L 57.6 41.472 
z
" style="fill: #ffffff"/>
   </g>
   <g id="matplotlib.axis_1">
    <g id="xtick_1">
     <g id="line2d_1">
      <defs>
       <path id="ma3af4fc295" d="M 0 0 
L 0 3.5 
" style="stroke: #000000; stroke-width: 0.8"/>
      </defs>
      <g>
       <use xlink:href="#ma3af4fc295" x="73.832727" y="307.584" style="stroke: #000000; stroke-width: 0.8"/>
      </g>
     </g>
     <g id="text_1">
      <!-- 0 -->
      <g transform="translate(70.651477 322.182437) scale(0.1 -0.1)">
       <defs>
        <path id="DejaVuSans-30" d="M 2034 4250 
Q 1547 4250 1301 3770 
Q 1056 3291 1056 2328 
Q 1056 1369 1301 889 
Q 1547 409 2034 409 
Q 2525 409 2770 889 
Q 3016 1369 3016 2328 
Q 3016 3291 2770 3770 
Q 2525 4250 2034 4250 
z
M 2034 4750 
Q 2819 4750 3233 4129 
Q 3647 3509 3647 2328 
Q 3647 1150 3233 529 
Q 2819 -91 2034 -91 
Q 1250 -91 836 529 
Q 422 1150 422 2328 
Q 422 3509 836 4129 
Q 1250 4750 2034 4750 
z
" transform="scale(0.015625)"/>
       </defs>
       <use xlink:href="#DejaVuSans-30"/>
      </g>
     </g>
    </g>
    <g id="xtick_2">
     <g id="line2d_2">
      <g>
       <use xlink:href="#ma3af4fc295" x="114.528494" y="307.584" style="stroke: #000000; stroke-width: 0.8"/>
      </g>
     </g>
     <g id="text_2">
      <!-- 2500 -->
      <g transform="translate(101.803494 322.182437) scale(0.1 -0.1)">
       <defs>
        <path id="DejaVuSans-32" d="M 1228 531 
L 3431 531 
L 3431 0 
L 469 0 
L 469 531 
Q 828 903 1448 1529 
Q 2069 2156 2228 2338 
Q 2531 2678 2651 2914 
Q 2772 3150 2772 3378 
Q 2772 3750 2511 3984 
Q 2250 4219 1831 4219 
Q 1534 4219 1204 4116 
Q 875 4013 500 3803 
L 500 4441 
Q 881 4594 1212 4672 
Q 1544 4750 1819 4750 
Q 2544 4750 2975 4387 
Q 3406 4025 3406 3419 
Q 3406 3131 3298 2873 
Q 3191 2616 2906 2266 
Q 2828 2175 2409 1742 
Q 1991 1309 1228 531 
z
" transform="scale(0.015625)"/>
        <path id="DejaVuSans-35" d="M 691 4666 
L 3169 4666 
L 3169 4134 
L 1269 4134 
L 1269 2991 
Q 1406 3038 1543 3061 
Q 1681 3084 1819 3084 
Q 2600 3084 3056 2656 
Q 3513 2228 3513 1497 
Q 3513 744 3044 326 
Q 2575 -91 1722 -91 
Q 1428 -91 1123 -41 
Q 819 9 494 109 
L 494 744 
Q 775 591 1075 516 
Q 1375 441 1709 441 
Q 2250 441 2565 725 
Q 2881 1009 2881 1497 
Q 2881 1984 2565 2268 
Q 2250 2553 1709 2553 
Q 1456 2553 1204 2497 
Q 953 2441 691 2322 
L 691 4666 
z
" transform="scale(0.015625)"/>
       </defs>
       <use xlink:href="#DejaVuSans-32"/>
       <use xlink:href="#DejaVuSans-35" x="63.623047"/>
       <use xlink:href="#DejaVuSans-30" x="127.246094"/>
       <use xlink:href="#DejaVuSans-30" x="190.869141"/>
      </g>
     </g>
    </g>
    <g id="xtick_3">
     <g id="line2d_3">
      <g>
       <use xlink:href="#ma3af4fc295" x="155.22426" y="307.584" style="stroke: #000000; stroke-width: 0.8"/>
      </g>
     </g>
     <g id="text_3">
      <!-- 5000 -->
      <g transform="translate(142.49926 322.182437) scale(0.1 -0.1)">
       <use xlink:href="#DejaVuSans-35"/>
       <use xlink:href="#DejaVuSans-30" x="63.623047"/>
       <use xlink:href="#DejaVuSans-30" x="127.246094"/>
       <use xlink:href="#DejaVuSans-30" x="190.869141"/>
      </g>
     </g>
    </g>
    <g id="xtick_4">
     <g id="line2d_4">
      <g>
       <use xlink:href="#ma3af4fc295" x="195.920026" y="307.584" style="stroke: #000000; stroke-width: 0.8"/>
      </g>
     </g>
     <g id="text_4">
      <!-- 7500 -->
      <g transform="translate(183.195026 322.182437) scale(0.1 -0.1)">
       <defs>
        <path id="DejaVuSans-37" d="M 525 4666 
L 3525 4666 
L 3525 4397 
L 1831 0 
L 1172 0 
L 2766 4134 
L 525 4134 
L 525 4666 
z
" transform="scale(0.015625)"/>
       </defs>
       <use xlink:href="#DejaVuSans-37"/>
       <use xlink:href="#DejaVuSans-35" x="63.623047"/>
       <use xlink:href="#DejaVuSans-30" x="127.246094"/>
       <use xlink:href="#DejaVuSans-30" x="190.869141"/>
      </g>
     </g>
    </g>
    <g id="xtick_5">
     <g id="line2d_5">
      <g>
       <use xlink:href="#ma3af4fc295" x="236.615793" y="307.584" style="stroke: #000000; stroke-width: 0.8"/>
      </g>
     </g>
     <g id="text_5">
      <!-- 10000 -->
      <g transform="translate(220.709543 322.182437) scale(0.1 -0.1)">
       <defs>
        <path id="DejaVuSans-31" d="M 794 531 
L 1825 531 
L 1825 4091 
L 703 3866 
L 703 4441 
L 1819 4666 
L 2450 4666 
L 2450 531 
L 3481 531 
L 3481 0 
L 794 0 
L 794 531 
z
" transform="scale(0.015625)"/>
       </defs>
       <use xlink:href="#DejaVuSans-31"/>
       <use xlink:href="#DejaVuSans-30" x="63.623047"/>
       <use xlink:href="#DejaVuSans-30" x="127.246094"/>
       <use xlink:href="#DejaVuSans-30" x="190.869141"/>
       <use xlink:href="#DejaVuSans-30" x="254.492188"/>
      </g>
     </g>
    </g>
    <g id="xtick_6">
     <g id="line2d_6">
      <g>
       <use xlink:href="#ma3af4fc295" x="277.311559" y="307.584" style="stroke: #000000; stroke-width: 0.8"/>
      </g>
     </g>
     <g id="text_6">
      <!-- 12500 -->
      <g transform="translate(261.405309 322.182437) scale(0.1 -0.1)">
       <use xlink:href="#DejaVuSans-31"/>
       <use xlink:href="#DejaVuSans-32" x="63.623047"/>
       <use xlink:href="#DejaVuSans-35" x="127.246094"/>
       <use xlink:href="#DejaVuSans-30" x="190.869141"/>
       <use xlink:href="#DejaVuSans-30" x="254.492188"/>
      </g>
     </g>
    </g>
    <g id="xtick_7">
     <g id="line2d_7">
      <g>
       <use xlink:href="#ma3af4fc295" x="318.007325" y="307.584" style="stroke: #000000; stroke-width: 0.8"/>
      </g>
     </g>
     <g id="text_7">
      <!-- 15000 -->
      <g transform="translate(302.101075 322.182437) scale(0.1 -0.1)">
       <use xlink:href="#DejaVuSans-31"/>
       <use xlink:href="#DejaVuSans-35" x="63.623047"/>
       <use xlink:href="#DejaVuSans-30" x="127.246094"/>
       <use xlink:href="#DejaVuSans-30" x="190.869141"/>
       <use xlink:href="#DejaVuSans-30" x="254.492188"/>
      </g>
     </g>
    </g>
    <g id="xtick_8">
     <g id="line2d_8">
      <g>
       <use xlink:href="#ma3af4fc295" x="358.703092" y="307.584" style="stroke: #000000; stroke-width: 0.8"/>
      </g>
     </g>
     <g id="text_8">
      <!-- 17500 -->
      <g transform="translate(342.796842 322.182437) scale(0.1 -0.1)">
       <use xlink:href="#DejaVuSans-31"/>
       <use xlink:href="#DejaVuSans-37" x="63.623047"/>
       <use xlink:href="#DejaVuSans-35" x="127.246094"/>
       <use xlink:href="#DejaVuSans-30" x="190.869141"/>
       <use xlink:href="#DejaVuSans-30" x="254.492188"/>
      </g>
     </g>
    </g>
    <g id="xtick_9">
     <g id="line2d_9">
      <g>
       <use xlink:href="#ma3af4fc295" x="399.398858" y="307.584" style="stroke: #000000; stroke-width: 0.8"/>
      </g>
     </g>
     <g id="text_9">
      <!-- 20000 -->
      <g transform="translate(383.492608 322.182437) scale(0.1 -0.1)">
       <use xlink:href="#DejaVuSans-32"/>
       <use xlink:href="#DejaVuSans-30" x="63.623047"/>
       <use xlink:href="#DejaVuSans-30" x="127.246094"/>
       <use xlink:href="#DejaVuSans-30" x="190.869141"/>
       <use xlink:href="#DejaVuSans-30" x="254.492188"/>
      </g>
     </g>
    </g>
   </g>
   <g id="matplotlib.axis_2">
    <g id="ytick_1">
     <g id="line2d_10">
      <defs>
       <path id="m2c65535f70" d="M 0 0 
L -3.5 0 
" style="stroke: #000000; stroke-width: 0.8"/>
      </defs>
      <g>
       <use xlink:href="#m2c65535f70" x="57.6" y="295.488" style="stroke: #000000; stroke-width: 0.8"/>
      </g>
     </g>
     <g id="text_10">
      <!-- −300 -->
      <g transform="translate(23.132812 299.287219) scale(0.1 -0.1)">
       <defs>
        <path id="DejaVuSans-2212" d="M 678 2272 
L 4684 2272 
L 4684 1741 
L 678 1741 
L 678 2272 
z
" transform="scale(0.015625)"/>
        <path id="DejaVuSans-33" d="M 2597 2516 
Q 3050 2419 3304 2112 
Q 3559 1806 3559 1356 
Q 3559 666 3084 287 
Q 2609 -91 1734 -91 
Q 1441 -91 1130 -33 
Q 819 25 488 141 
L 488 750 
Q 750 597 1062 519 
Q 1375 441 1716 441 
Q 2309 441 2620 675 
Q 2931 909 2931 1356 
Q 2931 1769 2642 2001 
Q 2353 2234 1838 2234 
L 1294 2234 
L 1294 2753 
L 1863 2753 
Q 2328 2753 2575 2939 
Q 2822 3125 2822 3475 
Q 2822 3834 2567 4026 
Q 2313 4219 1838 4219 
Q 1578 4219 1281 4162 
Q 984 4106 628 3988 
L 628 4550 
Q 988 4650 1302 4700 
Q 1616 4750 1894 4750 
Q 2613 4750 3031 4423 
Q 3450 4097 3450 3541 
Q 3450 3153 3228 2886 
Q 3006 2619 2597 2516 
z
" transform="scale(0.015625)"/>
       </defs>
       <use xlink:href="#DejaVuSans-2212"/>
       <use xlink:href="#DejaVuSans-33" x="83.789062"/>
       <use xlink:href="#DejaVuSans-30" x="147.412109"/>
       <use xlink:href="#DejaVuSans-30" x="211.035156"/>
      </g>
     </g>
    </g>
    <g id="ytick_2">
     <g id="line2d_11">
      <g>
       <use xlink:href="#m2c65535f70" x="57.6" y="265.867577" style="stroke: #000000; stroke-width: 0.8"/>
      </g>
     </g>
     <g id="text_11">
      <!-- −250 -->
      <g transform="translate(23.132812 269.666796) scale(0.1 -0.1)">
       <use xlink:href="#DejaVuSans-2212"/>
       <use xlink:href="#DejaVuSans-32" x="83.789062"/>
       <use xlink:href="#DejaVuSans-35" x="147.412109"/>
       <use xlink:href="#DejaVuSans-30" x="211.035156"/>
      </g>
     </g>
    </g>
    <g id="ytick_3">
     <g id="line2d_12">
      <g>
       <use xlink:href="#m2c65535f70" x="57.6" y="236.247154" style="stroke: #000000; stroke-width: 0.8"/>
      </g>
     </g>
     <g id="text_12">
      <!-- −200 -->
      <g transform="translate(23.132812 240.046373) scale(0.1 -0.1)">
       <use xlink:href="#DejaVuSans-2212"/>
       <use xlink:href="#DejaVuSans-32" x="83.789062"/>
       <use xlink:href="#DejaVuSans-30" x="147.412109"/>
       <use xlink:href="#DejaVuSans-30" x="211.035156"/>
      </g>
     </g>
    </g>
    <g id="ytick_4">
     <g id="line2d_13">
      <g>
       <use xlink:href="#m2c65535f70" x="57.6" y="206.626731" style="stroke: #000000; stroke-width: 0.8"/>
      </g>
     </g>
     <g id="text_13">
      <!-- −150 -->
      <g transform="translate(23.132812 210.42595) scale(0.1 -0.1)">
       <use xlink:href="#DejaVuSans-2212"/>
       <use xlink:href="#DejaVuSans-31" x="83.789062"/>
       <use xlink:href="#DejaVuSans-35" x="147.412109"/>
       <use xlink:href="#DejaVuSans-30" x="211.035156"/>
      </g>
     </g>
    </g>
    <g id="ytick_5">
     <g id="line2d_14">
      <g>
       <use xlink:href="#m2c65535f70" x="57.6" y="177.006308" style="stroke: #000000; stroke-width: 0.8"/>
      </g>
     </g>
     <g id="text_14">
      <!-- −100 -->
      <g transform="translate(23.132812 180.805527) scale(0.1 -0.1)">
       <use xlink:href="#DejaVuSans-2212"/>
       <use xlink:href="#DejaVuSans-31" x="83.789062"/>
       <use xlink:href="#DejaVuSans-30" x="147.412109"/>
       <use xlink:href="#DejaVuSans-30" x="211.035156"/>
      </g>
     </g>
    </g>
    <g id="ytick_6">
     <g id="line2d_15">
      <g>
       <use xlink:href="#m2c65535f70" x="57.6" y="147.385885" style="stroke: #000000; stroke-width: 0.8"/>
      </g>
     </g>
     <g id="text_15">
      <!-- −50 -->
      <g transform="translate(29.495313 151.185103) scale(0.1 -0.1)">
       <use xlink:href="#DejaVuSans-2212"/>
       <use xlink:href="#DejaVuSans-35" x="83.789062"/>
       <use xlink:href="#DejaVuSans-30" x="147.412109"/>
      </g>
     </g>
    </g>
    <g id="ytick_7">
     <g id="line2d_16">
      <g>
       <use xlink:href="#m2c65535f70" x="57.6" y="117.765462" style="stroke: #000000; stroke-width: 0.8"/>
      </g>
     </g>
     <g id="text_16">
      <!-- 0 -->
      <g transform="translate(44.2375 121.56468) scale(0.1 -0.1)">
       <use xlink:href="#DejaVuSans-30"/>
      </g>
     </g>
    </g>
    <g id="ytick_8">
     <g id="line2d_17">
      <g>
       <use xlink:href="#m2c65535f70" x="57.6" y="88.145039" style="stroke: #000000; stroke-width: 0.8"/>
      </g>
     </g>
     <g id="text_17">
      <!-- 50 -->
      <g transform="translate(37.875 91.944257) scale(0.1 -0.1)">
       <use xlink:href="#DejaVuSans-35"/>
       <use xlink:href="#DejaVuSans-30" x="63.623047"/>
      </g>
     </g>
    </g>
    <g id="ytick_9">
     <g id="line2d_18">
      <g>
       <use xlink:href="#m2c65535f70" x="57.6" y="58.524616" style="stroke: #000000; stroke-width: 0.8"/>
      </g>
     </g>
     <g id="text_18">
      <!-- 100 -->
      <g transform="translate(31.5125 62.323834) scale(0.1 -0.1)">
       <use xlink:href="#DejaVuSans-31"/>
       <use xlink:href="#DejaVuSans-30" x="63.623047"/>
       <use xlink:href="#DejaVuSans-30" x="127.246094"/>
      </g>
     </g>
    </g>
   </g>
   <g id="line2d_19">
    <path d="M 73.832727 112.618189 
L 73.849006 112.618189 
L 73.881562 295.488 
L 73.89784 88.447407 
L 73.946675 116.678567 
L 74.011789 89.412313 
L 74.044345 113.605222 
L 74.076902 117.209547 
L 74.125737 113.220502 
L 74.142015 113.220502 
L 74.174572 295.488 
L 74.239685 117.047531 
L 74.272242 119.24619 
L 74.304798 98.029045 
L 74.369911 99.602743 
L 74.402468 117.138972 
L 74.435025 295.488 
L 74.451303 112.091285 
L 74.500138 117.209547 
L 74.532694 116.974132 
L 74.565251 117.209547 
L 74.614086 95.166298 
L 74.679199 295.488 
L 74.695478 295.488 
L 74.728034 92.210751 
L 74.809426 117.138972 
L 74.825704 117.138972 
L 74.858261 102.692889 
L 74.923374 113.674824 
L 75.021044 295.488 
L 75.0536 101.789951 
L 75.134992 103.953704 
L 75.15127 103.953704 
L 75.183827 112.861738 
L 75.232662 91.876451 
L 75.24894 91.876451 
L 75.281497 96.604582 
L 75.314053 295.488 
L 75.379166 116.336589 
L 75.44428 103.113346 
L 75.493115 113.674824 
L 75.509393 113.674824 
L 75.541949 93.890245 
L 75.558228 117.209547 
L 75.574506 117.209547 
L 75.639619 295.488 
L 75.655898 117.138972 
L 75.672176 117.138972 
L 75.704733 95.847036 
L 75.769846 295.488 
L 75.802402 110.629452 
L 75.834959 118.604274 
L 75.851237 100.316192 
L 75.867516 100.316192 
L 75.900072 295.488 
L 75.965185 118.347795 
L 76.127968 93.319248 
L 76.160525 117.138972 
L 76.241917 103.562247 
L 76.258195 103.562247 
L 76.355865 295.488 
L 76.388421 94.580042 
L 76.469813 113.674824 
L 76.486091 113.674824 
L 76.518648 111.570577 
L 76.551204 295.488 
L 76.567483 96.173583 
L 76.616318 116.336589 
L 76.648874 115.724948 
L 76.681431 119.17572 
L 76.713988 295.488 
L 76.762822 113.469174 
L 76.779101 113.469174 
L 76.811657 116.336589 
L 76.844214 114.20204 
L 76.876771 295.488 
L 76.925606 95.439606 
L 76.941884 95.439606 
L 77.104667 295.488 
L 77.218615 102.130698 
L 77.234893 102.130698 
L 77.348841 117.138972 
L 77.36512 117.138972 
L 77.397676 111.570577 
L 77.479068 107.794431 
L 77.527903 295.488 
L 77.658129 82.581241 
L 77.788356 120.229576 
L 77.820912 113.424 
L 77.934861 295.488 
L 77.983695 295.488 
L 78.016252 82.027554 
L 78.097644 124.735816 
L 78.113922 124.735816 
L 78.146479 125.314681 
L 78.179035 165.312384 
L 78.22787 121.510329 
L 78.244148 121.510329 
L 78.292983 120.682556 
L 78.374375 163.25838 
L 78.406931 115.541953 
L 78.472045 163.25838 
L 78.504601 165.312384 
L 78.602271 98.471341 
L 78.634828 100.874713 
L 78.667384 106.167665 
L 78.683663 95.702114 
L 78.732498 99.469218 
L 78.765054 99.730909 
L 78.797611 93.193019 
L 78.813889 111.508708 
L 78.846446 105.223789 
L 78.862724 105.223789 
L 78.895281 112.843231 
L 78.976672 111.508708 
L 78.99295 111.508708 
L 79.025507 105.223789 
L 79.041785 112.843231 
L 79.09062 105.944994 
L 79.139455 105.409967 
L 79.204568 112.843231 
L 79.220847 112.843231 
L 79.253403 105.944994 
L 79.334795 108.333449 
L 80.132432 108.292195 
L 80.164989 108.106816 
L 80.197545 111.873454 
L 80.213823 107.262679 
L 80.262658 107.768472 
L 80.295215 107.516854 
L 80.327772 104.691736 
L 80.376606 107.768472 
L 80.392885 107.768472 
L 80.425441 107.262679 
L 80.457998 107.590429 
L 80.506833 104.691736 
L 80.555668 111.873454 
L 80.588224 107.516854 
L 80.653338 111.873454 
L 80.751008 111.873454 
L 80.848677 104.281091 
L 80.864956 104.691736 
L 80.881234 104.691736 
L 80.978904 106.382433 
L 81.01146 104.19678 
L 81.027739 107.281033 
L 81.092852 105.192452 
L 81.10913 105.192452 
L 81.141687 111.381903 
L 81.223078 110.820144 
L 81.239357 110.820144 
L 81.30447 105.06622 
L 81.353305 107.011536 
L 81.369583 107.011536 
L 81.40214 94.20864 
L 81.467253 103.240731 
L 81.49981 105.992641 
L 81.516088 99.331683 
L 81.581201 105.490194 
L 81.597479 105.490194 
L 81.630036 104.971316 
L 81.678871 106.31699 
L 81.695149 106.31699 
L 81.727706 104.877529 
L 81.743984 107.011536 
L 81.760263 107.011536 
L 81.792819 110.903701 
L 81.809097 105.966329 
L 81.857932 107.521665 
L 81.923046 102.767018 
L 81.939324 110.676714 
L 81.955602 110.676714 
L 81.988159 111.570752 
L 82.053272 99.644739 
L 82.118385 102.773353 
L 82.16722 101.389106 
L 82.216055 105.860226 
L 82.313725 81.096158 
L 82.330003 95.655045 
L 82.346282 95.655045 
L 82.378838 96.110796 
L 82.395117 95.094716 
L 82.411395 95.094716 
L 82.443951 80.435528 
L 82.46023 101.873926 
L 82.509065 83.180343 
L 82.5579 80.483187 
L 82.639291 101.011021 
L 82.736961 82.037605 
L 82.802074 88.255816 
L 82.834631 97.98363 
L 82.916022 90.916057 
L 82.932301 90.916057 
L 83.02997 77.973194 
L 83.095084 99.145455 
L 83.143919 85.039263 
L 83.160197 85.039263 
L 83.209032 82.553681 
L 83.274145 94.6539 
L 83.290423 94.6539 
L 83.355537 81.621468 
L 83.404372 90.670464 
L 83.42065 90.670464 
L 83.453206 94.205626 
L 83.469485 90.360263 
L 83.485763 90.360263 
L 83.51832 79.059491 
L 83.534598 103.18686 
L 83.583433 86.650155 
L 83.615989 98.296729 
L 83.632268 85.698704 
L 83.697381 92.454704 
L 83.713659 92.454704 
L 83.843886 73.726172 
L 83.876442 91.380021 
L 83.957834 84.071689 
L 83.974112 84.071689 
L 84.071782 95.923746 
L 84.104339 91.348203 
L 84.136895 81.617408 
L 84.18573 92.336711 
L 84.202009 92.336711 
L 84.234565 99.70094 
L 84.250843 78.342515 
L 84.299678 88.325388 
L 84.332235 88.807984 
L 84.429905 104.285667 
L 84.364792 88.778056 
L 84.446183 93.53337 
L 84.462461 93.53337 
L 84.527575 97.631594 
L 84.560131 96.611535 
L 84.592688 67.238074 
L 84.657801 93.16805 
L 84.690358 97.429048 
L 84.739193 88.058858 
L 84.755471 88.058858 
L 84.804306 67.555487 
L 84.853141 102.174514 
L 84.885697 67.76899 
L 84.950811 101.130007 
L 84.983367 103.445291 
L 85.015924 102.174514 
L 85.113594 61.28242 
L 85.129872 85.330117 
L 85.14615 85.330117 
L 85.211264 59.040409 
L 85.260098 65.297072 
L 85.276377 65.297072 
L 85.374047 83.655648 
L 85.406603 81.982402 
L 85.43916 69.798368 
L 85.455438 87.68254 
L 85.520551 71.932941 
L 85.53683 71.932941 
L 85.569386 64.075952 
L 85.585665 75.875111 
L 85.650778 66.811204 
L 85.667056 66.811204 
L 85.732169 83.435061 
L 85.781004 73.740253 
L 85.797283 73.740253 
L 85.894952 86.425462 
L 85.960066 64.03281 
L 86.008901 65.228474 
L 86.025179 65.228474 
L 86.057735 66.160657 
L 86.090292 81.742036 
L 86.10657 64.445087 
L 86.171684 72.249779 
L 86.187962 72.249779 
L 86.285632 80.216644 
L 86.236797 68.371807 
L 86.30191 76.041027 
L 86.318188 76.041027 
L 86.350745 73.761809 
L 86.367023 82.983953 
L 86.383302 82.983953 
L 86.415858 73.292597 
L 86.49725 73.869894 
L 86.513528 73.869894 
L 86.546085 81.646887 
L 86.59492 64.903829 
L 86.611198 64.903829 
L 86.757703 81.717895 
L 86.773981 81.717895 
L 86.806538 80.823461 
L 86.920486 70.654926 
L 86.936764 70.654926 
L 86.969321 63.208874 
L 87.018156 80.460603 
L 87.034434 80.460603 
L 87.132104 64.796145 
L 87.148382 71.416331 
L 87.16466 71.416331 
L 87.197217 75.835636 
L 87.213495 70.309881 
L 87.26233 74.912674 
L 87.311165 83.520518 
L 87.392557 70.553148 
L 87.425113 74.066492 
L 87.441392 65.541562 
L 87.45767 65.541562 
L 87.490226 63.234015 
L 87.506505 71.105715 
L 87.522783 71.105715 
L 87.55534 76.468448 
L 87.620453 75.215189 
L 87.65301 64.458918 
L 87.734401 65.083191 
L 87.750679 65.083191 
L 87.799514 64.763136 
L 87.848349 73.696162 
L 87.946019 65.298861 
L 87.978576 74.495383 
L 88.059967 72.667608 
L 88.076245 72.667608 
L 88.108802 64.167448 
L 88.173915 65.062188 
L 88.206472 79.620329 
L 88.271585 77.718712 
L 88.304142 56.175595 
L 88.385533 66.579397 
L 88.401812 66.579397 
L 88.499481 73.596367 
L 88.51576 69.945228 
L 88.532038 69.945228 
L 88.564595 63.785348 
L 88.629708 65.723123 
L 88.694821 79.608468 
L 88.711099 63.751989 
L 88.759934 70.766669 
L 88.792491 64.120331 
L 88.841326 73.265787 
L 88.873883 67.758748 
L 88.890161 67.758748 
L 88.922717 73.222491 
L 88.971552 65.480466 
L 88.987831 65.480466 
L 89.052944 64.496371 
L 89.18317 76.942409 
L 89.215727 70.216114 
L 89.297118 72.338686 
L 89.313397 72.338686 
L 89.37851 64.161431 
L 89.411067 71.081395 
L 89.443623 72.731287 
L 89.47618 72.361325 
L 89.508736 64.167448 
L 89.57385 71.231912 
L 89.606406 71.304825 
L 89.67152 67.754426 
L 89.704076 70.415699 
L 89.801746 72.308378 
L 89.834303 69.839361 
L 89.883138 75.862496 
L 89.899416 75.862496 
L 89.931972 75.19141 
L 89.948251 76.488776 
L 89.964529 76.488776 
L 89.997086 67.502419 
L 90.013364 83.8185 
L 90.062199 75.272172 
L 90.094755 78.893574 
L 90.111034 74.308591 
L 90.127312 74.308591 
L 90.224982 58.157598 
L 90.257539 66.671431 
L 90.290095 79.274744 
L 90.355208 78.268127 
L 90.387765 60.086957 
L 90.404043 85.202459 
L 90.452878 79.480826 
L 90.485435 81.8363 
L 90.550548 80.800205 
L 90.648218 67.738528 
L 90.680775 74.122414 
L 90.713331 81.392065 
L 90.729609 65.089139 
L 90.762166 65.560915 
L 90.778444 65.560915 
L 90.941227 89.737606 
L 90.973784 65.748828 
L 91.038897 85.795828 
L 91.071454 88.230278 
L 91.104011 59.7346 
L 91.185402 67.307792 
L 91.20168 67.307792 
L 91.234237 63.44398 
L 91.348185 86.249477 
L 91.364463 86.249477 
L 91.462133 63.978585 
L 91.478412 82.526675 
L 91.49469 82.526675 
L 91.559803 66.288095 
L 91.608638 75.221308 
L 91.624916 75.221308 
L 91.787699 64.819139 
L 91.836534 63.6918 
L 91.917926 80.507371 
L 92.048152 67.949491 
L 92.080709 55.999086 
L 92.096987 70.78735 
L 92.145822 69.597797 
L 92.210935 82.835047 
L 92.25977 72.638803 
L 92.276049 72.638803 
L 92.406275 82.241582 
L 92.471388 68.928421 
L 92.520223 78.466963 
L 92.536501 78.466963 
L 92.569058 64.963952 
L 92.617893 80.657289 
L 92.634171 80.657289 
L 92.666728 79.546852 
L 92.699285 69.41688 
L 92.780676 73.859867 
L 92.796954 73.859867 
L 92.927181 80.808871 
L 92.959737 75.40431 
L 93.008572 86.511924 
L 93.024851 86.511924 
L 93.089964 76.14606 
L 93.138799 78.517281 
L 93.155077 78.517281 
L 93.187634 80.22473 
L 93.203912 73.300702 
L 93.22019 73.300702 
L 93.252747 85.455041 
L 93.269025 66.180818 
L 93.31786 81.132502 
L 93.41553 70.968435 
L 93.431808 72.491247 
L 93.448087 72.491247 
L 93.480643 66.448441 
L 93.545756 68.286769 
L 93.643426 93.794734 
L 93.675983 67.48317 
L 93.757374 74.617011 
L 93.773653 74.617011 
L 93.936436 83.095478 
L 94.001549 70.091962 
L 94.034106 93.207927 
L 94.082941 68.745802 
L 94.099219 68.745802 
L 94.131776 67.225983 
L 94.229445 79.607525 
L 94.262002 78.250508 
L 94.327115 82.317977 
L 94.359672 81.959561 
L 94.457342 66.133033 
L 94.408507 98.319622 
L 94.47362 75.606532 
L 94.489898 75.606532 
L 94.522455 73.710803 
L 94.555011 97.448864 
L 94.57129 73.081725 
L 94.620125 76.614877 
L 94.652681 68.045588 
L 94.66896 85.84259 
L 94.717795 78.744627 
L 94.815464 94.375654 
L 94.831743 91.572061 
L 94.848021 91.572061 
L 94.880578 75.870645 
L 94.945691 79.963599 
L 94.978247 98.931252 
L 94.994526 74.193588 
L 95.059639 88.343789 
L 95.075917 88.343789 
L 95.173587 78.151378 
L 95.189865 87.349641 
L 95.206144 87.349641 
L 95.271257 65.316204 
L 95.287535 88.354889 
L 95.33637 71.980049 
L 95.368927 71.625372 
L 95.401483 93.108769 
L 95.482875 87.353547 
L 95.499153 87.353547 
L 95.596823 90.627215 
L 95.62938 85.825308 
L 95.678215 94.066487 
L 95.694493 94.066487 
L 95.72705 94.066487 
L 95.775884 92.327314 
L 95.824719 97.752817 
L 95.857276 86.848959 
L 95.873554 100.179016 
L 95.922389 88.240683 
L 95.954946 105.994182 
L 95.971224 84.731803 
L 96.036337 104.902879 
L 96.052616 104.902879 
L 96.085172 80.55534 
L 96.134007 107.183393 
L 96.150286 107.183393 
L 96.182842 107.892962 
L 96.215399 74.757923 
L 96.29679 81.197353 
L 96.313069 81.197353 
L 96.410738 101.087819 
L 96.508408 78.736465 
L 96.606078 108.292195 
L 96.638635 106.327234 
L 96.752583 83.012688 
L 96.768861 83.012688 
L 96.866531 108.896768 
L 96.899088 82.505492 
L 96.964201 108.292195 
L 96.996757 107.523715 
L 97.029314 90.701582 
L 97.078149 108.292195 
L 97.094427 108.292195 
L 97.126984 107.846954 
L 97.159541 117.855314 
L 97.175819 76.523329 
L 97.192097 76.523329 
L 97.224654 113.032398 
L 97.306045 92.260902 
L 97.322324 92.260902 
L 97.35488 89.903009 
L 97.387437 103.103279 
L 97.45255 92.347494 
L 97.55022 81.235686 
L 97.582777 111.4839 
L 97.664168 95.214553 
L 97.680446 95.214553 
L 97.713003 92.120383 
L 97.74556 113.470481 
L 97.794394 81.140887 
L 97.810673 81.140887 
L 97.843229 94.308874 
L 97.924621 93.247688 
L 97.940899 93.247688 
L 97.973456 89.664309 
L 98.006012 108.292195 
L 98.054847 82.060225 
L 98.071126 82.060225 
L 98.168796 117.438971 
L 98.201352 92.143266 
L 98.233909 92.120383 
L 98.266465 117.855314 
L 98.331579 92.596923 
L 98.364135 90.42112 
L 98.396692 117.855314 
L 98.41297 89.655741 
L 98.478083 96.545863 
L 98.494362 96.545863 
L 98.526918 89.223041 
L 98.592032 90.968226 
L 98.673423 89.687743 
L 98.722258 102.648603 
L 98.787371 95.425379 
L 98.819928 117.855314 
L 98.868763 83.463762 
L 98.885041 83.463762 
L 98.917598 96.396638 
L 98.998989 95.014975 
L 99.015267 95.014975 
L 99.096659 94.996746 
L 99.145494 117.855314 
L 99.178051 87.7072 
L 99.259442 106.786834 
L 99.27572 106.786834 
L 99.37339 92.615962 
L 99.324555 117.855314 
L 99.389669 94.519674 
L 99.405947 94.519674 
L 99.503617 105.248277 
L 99.454782 91.220326 
L 99.519895 104.147814 
L 99.536173 104.147814 
L 99.56873 92.902103 
L 99.585008 111.687598 
L 99.650121 93.370299 
L 99.6664 93.370299 
L 99.698956 111.877239 
L 99.76407 103.633959 
L 99.894296 71.476423 
L 99.959409 91.208499 
L 100.057079 87.055587 
L 100.073357 87.055587 
L 100.122192 81.342307 
L 100.203584 103.836102 
L 100.301254 73.062987 
L 100.317532 98.176947 
L 100.33381 98.176947 
L 100.447758 70.66252 
L 100.464037 70.66252 
L 100.496593 66.77186 
L 100.512872 77.294122 
L 100.545428 76.264895 
L 100.561707 76.264895 
L 100.594263 69.445521 
L 100.659376 72.28143 
L 100.691933 88.918693 
L 100.740768 71.200382 
L 100.773325 79.800836 
L 100.789603 79.800836 
L 100.82216 66.558102 
L 100.903551 75.425634 
L 100.919829 75.425634 
L 100.952386 80.567936 
L 101.001221 68.314495 
L 101.017499 68.314495 
L 101.050056 92.486513 
L 101.131447 76.491297 
L 101.147726 76.491297 
L 101.261674 66.688812 
L 101.196561 85.281635 
L 101.29423 66.98382 
L 101.326787 68.291711 
L 101.343065 65.790766 
L 101.375622 65.851318 
L 101.3919 65.851318 
L 101.457013 77.420343 
L 101.505848 70.357372 
L 101.522127 70.357372 
L 101.554683 84.906355 
L 101.603518 65.125152 
L 101.636075 79.132313 
L 101.652353 79.132313 
L 101.68491 65.790766 
L 101.701188 86.20915 
L 101.766301 68.268239 
L 101.78258 68.268239 
L 101.815136 62.578868 
L 101.831415 80.89177 
L 101.847693 80.89177 
L 101.912806 90.092863 
L 101.977919 70.042293 
L 102.010476 89.499718 
L 102.043032 88.187004 
L 102.075589 67.313621 
L 102.156981 68.732488 
L 102.173259 68.732488 
L 102.205816 87.50339 
L 102.287207 77.916547 
L 102.303485 77.916547 
L 102.401155 87.063975 
L 102.466268 65.866614 
L 102.515103 68.6375 
L 102.531382 68.6375 
L 102.580217 66.75272 
L 102.629052 74.444797 
L 102.661608 66.55371 
L 102.710443 79.67451 
L 102.726721 79.67451 
L 102.743 85.750678 
L 102.759278 63.276315 
L 102.808113 71.315616 
L 102.873226 73.876427 
L 102.905783 92.267058 
L 102.970896 79.084707 
L 103.036009 67.669103 
L 103.084844 70.129069 
L 103.101122 70.129069 
L 103.133679 98.309843 
L 103.149957 69.286573 
L 103.215071 90.996399 
L 103.231349 90.996399 
L 103.296462 96.256011 
L 103.345297 83.47714 
L 103.377854 100.528273 
L 103.394132 81.965481 
L 103.459245 86.777584 
L 103.475523 86.777584 
L 103.540637 78.522453 
L 103.589472 80.335711 
L 103.60575 80.335711 
L 103.768533 55.795899 
L 103.866203 82.401342 
L 103.882481 78.437874 
L 103.898759 78.437874 
L 103.931316 78.706486 
L 103.963873 65.229457 
L 104.028986 74.430697 
L 104.061543 96.469843 
L 104.142934 85.04595 
L 104.159212 85.04595 
L 104.289439 62.825546 
L 104.354552 83.12554 
L 104.403387 78.545403 
L 104.419665 78.545403 
L 104.452222 64.191831 
L 104.484778 71.63267 
L 104.517335 107.334946 
L 104.598727 83.515202 
L 104.615005 83.515202 
L 104.745231 53.925178 
L 104.696396 84.458843 
L 104.810345 56.371695 
L 104.875458 82.849236 
L 104.940571 71.896534 
L 105.005684 53.623507 
L 105.070798 57.141588 
L 105.168467 77.874253 
L 105.184746 60.738308 
L 105.201024 60.738308 
L 105.233581 79.266004 
L 105.298694 66.421396 
L 105.33125 53.568 
L 105.347529 68.603913 
L 105.396364 60.832999 
L 105.510312 111.403418 
L 105.52659 111.403418 
L 105.559147 57.081372 
L 105.640538 62.819017 
L 105.656817 62.819017 
L 105.72193 95.097881 
L 105.754486 68.132004 
L 105.787043 64.668559 
L 105.8196 81.926211 
L 105.835878 62.588074 
L 105.900991 73.580883 
L 105.917269 73.580883 
L 105.949826 75.497659 
L 105.966104 66.264354 
L 105.982383 66.264354 
L 106.047496 62.587612 
L 106.080053 65.252511 
L 106.096331 90.968922 
L 106.194001 77.717598 
L 106.226557 76.451135 
L 106.259114 65.039274 
L 106.324227 74.315289 
L 106.405619 64.839187 
L 106.438175 87.775662 
L 106.454454 87.775662 
L 106.48701 79.292406 
L 106.568402 80.838659 
L 106.58468 80.838659 
L 106.617237 69.657124 
L 106.633515 84.034146 
L 106.68235 76.58516 
L 106.747463 100.729459 
L 106.763741 74.345994 
L 106.78002 74.345994 
L 106.845133 79.518406 
L 106.959081 108.003402 
L 106.975359 108.003402 
L 107.105586 77.91481 
L 107.138142 89.441403 
L 107.154421 60.771914 
L 107.219534 85.733352 
L 107.235812 85.733352 
L 107.284647 103.795287 
L 107.34976 65.711345 
L 107.366039 65.711345 
L 107.463709 85.044126 
L 107.496265 75.041915 
L 107.593935 72.607233 
L 107.626492 102.446049 
L 107.691605 101.9875 
L 107.756718 62.759719 
L 107.772996 105.027619 
L 107.805553 86.356801 
L 107.821831 86.356801 
L 107.919501 69.136258 
L 107.935779 69.329137 
L 107.952058 69.329137 
L 107.984614 76.307176 
L 108.066006 76.263793 
L 108.082284 76.263793 
L 108.114841 86.092492 
L 108.163676 68.522612 
L 108.179954 68.522612 
L 108.342737 107.230331 
L 108.40785 69.043567 
L 108.456685 86.144802 
L 108.472964 86.144802 
L 108.60319 102.127311 
L 108.635747 64.492414 
L 108.70086 99.114413 
L 108.733416 102.542758 
L 108.749695 87.621509 
L 108.765973 87.621509 
L 108.879921 108.080715 
L 108.8962 108.080715 
L 109.010148 82.4083 
L 109.026426 82.4083 
L 109.058983 102.678458 
L 109.124096 85.309039 
L 109.156652 82.636238 
L 109.172931 87.372545 
L 109.189209 87.372545 
L 109.221766 102.713892 
L 109.270601 63.802926 
L 109.286879 63.802926 
L 109.319436 67.255615 
L 109.384549 104.307692 
L 109.433384 90.297835 
L 109.449662 90.297835 
L 109.531053 70.157404 
L 109.498497 101.522392 
L 109.56361 77.856767 
L 109.596167 108.922257 
L 109.677558 85.309039 
L 109.693837 85.309039 
L 109.75895 84.350186 
L 109.775228 85.964954 
L 109.791506 85.964954 
L 109.824063 59.918664 
L 109.840341 98.493639 
L 109.889176 84.876315 
L 109.921733 84.362771 
L 109.954289 114.734925 
L 110.019403 84.742194 
L 110.051959 65.378602 
L 110.068238 86.501813 
L 110.117073 75.250815 
L 110.247299 107.873734 
L 110.312412 64.390405 
L 110.361247 86.161168 
L 110.377525 86.161168 
L 110.410082 94.691099 
L 110.42636 83.66837 
L 110.491474 90.710293 
L 110.507752 90.710293 
L 110.540309 69.574604 
L 110.589143 105.647935 
L 110.6217 84.12165 
L 110.637978 84.12165 
L 110.670535 84.297758 
L 110.751926 82.73616 
L 110.800761 94.52433 
L 110.898431 83.463226 
L 110.91471 85.64354 
L 110.930988 85.64354 
L 110.963544 86.161168 
L 110.979823 84.227397 
L 110.996101 84.227397 
L 111.028658 83.544884 
L 111.044936 85.900918 
L 111.093771 84.255011 
L 111.191441 86.168191 
L 111.142606 83.526689 
L 111.207719 85.222367 
L 111.223997 85.222367 
L 111.256554 85.079312 
L 111.289111 82.286518 
L 111.354224 84.12165 
L 111.38678 85.347775 
L 111.403059 83.801675 
L 111.419337 83.801675 
L 111.48445 130.778527 
L 111.533285 109.6218 
L 111.549564 109.6218 
L 111.58212 114.852803 
L 111.630955 117.954285 
L 111.67979 81.766971 
L 111.712347 119.24619 
L 111.77746 110.193885 
L 111.810016 84.041028 
L 111.826295 130.778527 
L 111.87513 112.711747 
L 111.907686 117.954285 
L 111.972799 83.32987 
L 112.021634 84.082947 
L 112.037913 84.082947 
L 112.070469 113.404992 
L 112.135583 112.183723 
L 112.168139 77.768979 
L 112.249531 85.733706 
L 112.265809 85.733706 
L 112.298366 86.877281 
L 112.330922 105.632466 
L 112.347201 72.895541 
L 112.396035 89.815259 
L 112.526262 69.01672 
L 112.558819 95.260641 
L 112.607653 68.868353 
L 112.64021 89.813743 
L 112.656488 89.813743 
L 112.689045 66.218664 
L 112.754158 74.074855 
L 112.83555 70.94914 
L 112.884385 93.97077 
L 112.916941 96.170764 
L 112.949498 69.246901 
L 113.030889 77.151103 
L 113.047168 77.151103 
L 113.112281 101.438744 
L 113.161116 88.573744 
L 113.177394 88.573744 
L 113.209951 72.901038 
L 113.275064 84.848519 
L 113.340177 99.348405 
L 113.356456 72.030299 
L 113.372734 72.030299 
L 113.40529 72.483637 
L 113.437847 119.24619 
L 113.519239 112.853171 
L 113.535517 112.853171 
L 113.665743 71.228821 
L 113.6983 121.634606 
L 113.779691 99.794949 
L 113.909918 117.268011 
L 114.007588 99.161089 
L 114.023866 105.038722 
L 114.040144 105.038722 
L 114.072701 101.621168 
L 114.088979 106.19143 
L 114.105258 106.19143 
L 114.202927 119.231577 
L 114.349432 79.092135 
L 114.365711 79.092135 
L 114.447102 78.519246 
L 114.495937 88.470097 
L 114.56105 76.755119 
L 114.609885 82.673287 
L 114.626163 82.673287 
L 114.65872 82.405639 
L 114.85406 99.771957 
L 114.870338 91.598628 
L 114.886616 91.598628 
L 114.919173 101.192934 
L 114.935451 78.872891 
L 115.000564 93.758963 
L 115.016843 93.758963 
L 115.049399 86.854548 
L 115.114513 87.639496 
L 115.212182 102.642985 
L 115.228461 102.436771 
L 115.244739 102.436771 
L 115.309852 99.527237 
L 115.374966 81.412373 
L 115.391244 107.79626 
L 115.407522 107.79626 
L 115.505192 72.631307 
L 115.537749 76.106704 
L 115.635418 102.741529 
L 115.651697 101.214364 
L 115.667975 101.214364 
L 115.700532 81.279382 
L 115.765645 91.244143 
L 115.798202 103.45904 
L 115.847036 90.888838 
L 115.879593 102.879611 
L 115.895871 102.879611 
L 115.960985 101.749158 
L 116.058654 90.651427 
L 116.074933 92.249178 
L 116.091211 92.249178 
L 116.140046 90.291352 
L 116.172603 98.210688 
L 116.237716 94.718572 
L 116.270272 88.036604 
L 116.286551 100.463433 
L 116.335386 92.42856 
L 116.433055 103.137223 
L 116.384221 87.647775 
L 116.449334 95.640579 
L 116.465612 95.640579 
L 116.514447 94.906311 
L 116.595839 107.321232 
L 116.660952 107.062916 
L 116.693508 99.764074 
L 116.709787 107.092878 
L 116.758622 106.664526 
L 116.791178 106.664526 
L 116.823735 106.464167 
L 116.87257 106.874039 
L 116.888848 106.874039 
L 116.986518 106.090298 
L 117.002796 106.610387 
L 117.019074 106.610387 
L 117.051631 105.40372 
L 117.133023 106.247199 
L 117.181858 106.272805 
L 117.214414 106.437479 
L 117.230692 106.247199 
L 117.246971 106.247199 
L 117.279527 104.236508 
L 117.344641 106.090298 
L 117.377197 105.916517 
L 117.426032 106.272805 
L 117.44231 106.272805 
L 117.53998 105.348551 
L 117.572537 73.244911 
L 117.653928 76.030463 
L 117.670207 76.030463 
L 117.767877 98.112879 
L 117.784155 97.1511 
L 117.800433 97.1511 
L 117.83299 79.185651 
L 117.898103 97.1511 
L 117.963216 97.1511 
L 117.995773 79.761847 
L 118.060886 97.1511 
L 118.093443 97.1511 
L 118.125999 98.583512 
L 118.158556 98.500151 
L 118.191113 80.850151 
L 118.272504 95.378174 
L 118.288782 95.378174 
L 118.321339 97.1511 
L 118.337617 95.302622 
L 118.353896 95.302622 
L 118.386452 78.345785 
L 118.402731 97.1511 
L 118.451565 92.63955 
L 118.484122 93.598268 
L 118.5004 91.952878 
L 118.516679 91.952878 
L 118.614349 80.949509 
L 118.646905 83.428637 
L 118.69574 79.623203 
L 118.777132 87.237125 
L 118.907358 71.08294 
L 119.021306 83.713678 
L 119.037585 83.713678 
L 119.102698 74.379731 
L 119.135254 81.852641 
L 119.200368 88.124516 
L 119.216646 76.01805 
L 119.232924 76.01805 
L 119.265481 70.840401 
L 119.281759 88.136513 
L 119.298037 88.136513 
L 119.379429 88.610669 
L 119.428264 82.441391 
L 119.444542 94.994304 
L 119.542212 87.892572 
L 119.672438 100.839893 
L 119.591047 86.626812 
L 119.704995 97.289238 
L 119.770108 65.677288 
L 119.786387 101.682152 
L 119.802665 101.682152 
L 119.835222 102.571879 
L 119.900335 63.937372 
L 119.932891 102.571879 
L 120.04684 104.38588 
L 120.193344 104.38588 
L 120.225901 76.881108 
L 120.307292 97.1511 
L 120.323571 97.1511 
L 120.421241 104.38588 
L 120.437519 103.461243 
L 120.453797 103.461243 
L 120.502632 104.38588 
L 120.567745 88.556338 
L 120.584024 88.556338 
L 120.61658 104.38588 
L 120.632859 65.500804 
L 120.697972 97.1511 
L 120.71425 97.1511 
L 120.746807 88.875624 
L 120.795642 104.38588 
L 120.81192 104.38588 
L 120.877033 96.207862 
L 120.90959 97.1511 
L 120.942146 86.315622 
L 120.958425 103.461243 
L 121.00726 90.418396 
L 121.039816 100.898413 
L 121.088651 80.684875 
L 121.104929 80.684875 
L 121.137486 68.846324 
L 121.153764 102.571879 
L 121.170043 102.571879 
L 121.202599 102.574771 
L 121.235156 103.461243 
L 121.365382 71.110113 
L 121.47933 102.582629 
L 121.495609 102.582629 
L 121.560722 87.460041 
L 121.609557 97.092015 
L 121.690948 97.1511 
L 121.723505 73.242576 
L 121.804897 85.677405 
L 121.821175 85.677405 
L 121.886288 79.52097 
L 121.983958 94.43337 
L 121.935123 74.68248 
L 122.016515 92.430811 
L 122.049071 78.877074 
L 122.097906 94.28839 
L 122.114184 94.28839 
L 122.146741 94.708735 
L 122.163019 93.75186 
L 122.179298 93.75186 
L 122.228133 95.807457 
L 122.309524 75.328608 
L 122.407194 98.483394 
L 122.439751 97.40245 
L 122.472307 89.37212 
L 122.53742 93.4849 
L 122.569977 96.222193 
L 122.586255 89.630181 
L 122.63509 93.445049 
L 122.700203 93.208012 
L 122.73276 105.301212 
L 122.781595 90.103087 
L 122.814152 102.202069 
L 122.83043 102.202069 
L 122.862987 104.262993 
L 122.895543 84.932488 
L 122.960656 92.976241 
L 123.058326 105.411962 
L 123.074605 105.308368 
L 123.123439 105.308368 
L 123.155996 104.266125 
L 123.172274 105.411962 
L 123.221109 105.301212 
L 123.253666 84.748988 
L 123.335057 93.470758 
L 123.351336 93.470758 
L 123.383892 93.064884 
L 123.416449 107.616179 
L 123.432727 92.94078 
L 123.49784 105.308368 
L 123.514119 105.308368 
L 123.579232 99.599577 
L 123.611789 103.370169 
L 123.725737 105.411962 
L 123.742015 105.411962 
L 123.774572 103.370169 
L 123.855963 104.371458 
L 123.872242 104.371458 
L 123.98619 105.411962 
L 124.002468 105.411962 
L 124.035025 92.600079 
L 124.116416 99.972547 
L 124.132694 99.972547 
L 124.181529 97.635457 
L 124.279199 105.411962 
L 124.295478 105.411962 
L 124.393147 98.600882 
L 124.409426 104.371458 
L 124.425704 104.371458 
L 124.458261 105.411962 
L 124.523374 98.386844 
L 124.55593 99.512514 
L 124.588487 105.308368 
L 124.637322 96.567885 
L 124.669879 104.371458 
L 124.686157 104.371458 
L 124.718713 92.820833 
L 124.767548 109.98798 
L 124.800105 94.821492 
L 124.816383 94.821492 
L 124.897775 100.182948 
L 124.865218 92.070086 
L 124.930331 99.04629 
L 124.962888 81.748892 
L 125.028001 98.474556 
L 125.060558 104.077324 
L 125.076836 96.887336 
L 125.093115 96.887336 
L 125.125671 81.419522 
L 125.174506 101.928262 
L 125.190784 101.928262 
L 125.255898 101.125281 
L 125.272176 102.3147 
L 125.304733 101.360892 
L 125.321011 101.360892 
L 125.451237 100.106188 
L 125.516351 101.508761 
L 125.565185 101.08206 
L 125.581464 101.08206 
L 125.61402 102.769769 
L 125.662855 100.524393 
L 125.679134 100.524393 
L 125.71169 94.153735 
L 125.760525 102.009224 
L 125.776803 102.009224 
L 125.80936 102.411632 
L 125.90703 98.514632 
L 125.923308 100.199077 
L 125.972143 100.261233 
L 126.037256 111.081503 
L 126.053535 88.448858 
L 126.069813 88.448858 
L 126.167483 109.870184 
L 126.183761 104.509229 
L 126.200039 104.509229 
L 126.232596 65.988495 
L 126.248874 108.879733 
L 126.297709 108.038098 
L 126.330266 110.178832 
L 126.362822 108.976035 
L 126.395379 88.301721 
L 126.476771 99.527366 
L 126.493049 99.527366 
L 126.688389 109.98798 
L 126.704667 107.649121 
L 126.720945 107.649121 
L 126.818615 109.870184 
L 126.916285 107.555305 
L 126.948841 111.081503 
L 127.030233 109.870184 
L 127.111625 109.870184 
L 127.209294 111.081503 
L 127.372077 101.073311 
L 127.486026 107.555305 
L 127.502304 107.555305 
L 127.534861 112.331467 
L 127.616252 109.870184 
L 127.63253 109.870184 
L 127.681365 111.081503 
L 127.746479 108.69543 
L 127.762757 108.69543 
L 127.860427 102.330809 
L 127.892983 104.852667 
L 127.990653 79.590282 
L 128.104601 113.622321 
L 128.12088 113.622321 
L 128.218549 111.081503 
L 128.234828 112.331467 
L 128.251106 112.331467 
L 128.299941 114.956488 
L 128.348776 109.870184 
L 128.381332 112.331467 
L 128.430167 108.69543 
L 128.446446 108.69543 
L 128.511559 111.081503 
L 128.527837 107.555305 
L 128.544116 107.555305 
L 128.576672 111.081503 
L 128.658064 109.870184 
L 128.674342 109.870184 
L 128.706899 114.956488 
L 128.78829 112.331467 
L 128.804568 112.331467 
L 128.837125 108.69543 
L 128.853403 113.622321 
L 128.902238 113.622321 
L 128.999908 106.448011 
L 129.032465 113.622321 
L 129.113856 111.081503 
L 129.130135 111.081503 
L 129.227804 116.336589 
L 129.244083 113.622321 
L 129.292918 113.622321 
L 129.439422 109.870184 
L 129.455701 109.870184 
L 129.488257 114.956488 
L 129.553371 112.331467 
L 129.585927 84.300597 
L 129.65104 112.331467 
L 129.716154 113.622321 
L 129.74871 112.331467 
L 129.781267 112.331467 
L 129.878937 108.69543 
L 129.94405 113.622321 
L 129.992885 111.081503 
L 130.009163 111.081503 
L 130.04172 109.870184 
L 130.057998 112.331467 
L 130.106833 111.081503 
L 130.13939 111.081503 
L 130.253338 112.331467 
L 130.334729 112.331467 
L 130.399842 108.69543 
L 130.448677 109.870184 
L 130.464956 109.870184 
L 130.562626 113.622321 
L 130.513791 108.69543 
L 130.578904 111.081503 
L 130.595182 111.081503 
L 130.660295 109.870184 
L 130.692852 111.081503 
L 130.725409 111.081503 
L 130.871913 107.555305 
L 130.888192 107.555305 
L 130.953305 112.331467 
L 131.00214 109.870184 
L 131.018418 109.870184 
L 131.067253 111.081503 
L 131.148645 106.448011 
L 131.181201 106.448011 
L 131.246314 113.622321 
L 131.295149 109.870184 
L 131.311428 109.870184 
L 131.343984 112.331467 
L 131.360263 107.555305 
L 131.376541 107.555305 
L 131.457932 108.69543 
L 131.506767 104.325318 
L 131.571881 107.555305 
L 131.604437 106.448011 
L 131.734664 87.504189 
L 131.848612 109.870184 
L 131.86489 109.870184 
L 131.995117 84.246781 
L 132.092786 103.562171 
L 132.125343 83.734452 
L 132.141621 105.196516 
L 132.190456 86.422735 
L 132.223013 108.69543 
L 132.304404 104.500477 
L 132.320683 104.500477 
L 132.353239 104.805547 
L 132.450909 80.302048 
L 132.467187 85.514708 
L 132.483466 85.514708 
L 132.516022 78.557037 
L 132.532301 93.538577 
L 132.581136 88.01738 
L 132.646249 99.248292 
L 132.711362 95.192185 
L 132.743919 93.206238 
L 132.760197 99.219905 
L 132.809032 94.105898 
L 132.841588 105.411962 
L 132.857867 92.194031 
L 132.906702 104.292088 
L 132.939258 93.180093 
L 133.02065 100.077319 
L 133.036928 100.077319 
L 133.102041 92.67666 
L 133.167155 94.065484 
L 133.232268 86.748351 
L 133.248546 104.371458 
L 133.264824 104.371458 
L 133.395051 93.57748 
L 133.460164 104.050953 
L 133.492721 101.883963 
L 133.525277 84.617798 
L 133.574112 102.833813 
L 133.590391 102.833813 
L 133.655504 93.043021 
L 133.704339 101.484047 
L 133.720617 101.484047 
L 133.753174 102.444797 
L 133.78573 101.576953 
L 133.818287 81.361501 
L 133.899678 91.388198 
L 133.915957 91.388198 
L 134.013627 105.411962 
L 134.029905 93.380379 
L 134.046183 93.380379 
L 134.07874 101.395362 
L 134.160131 87.817848 
L 134.225245 104.484409 
L 134.274079 101.567825 
L 134.290358 101.567825 
L 134.355471 105.088706 
L 134.388028 103.25967 
L 134.420584 99.303844 
L 134.485697 102.090696 
L 134.518254 103.612819 
L 134.550811 94.66424 
L 134.599646 104.984899 
L 134.615924 104.984899 
L 134.64848 102.909256 
L 134.713594 104.880816 
L 134.778707 105.196516 
L 134.876377 95.305424 
L 134.892655 103.837319 
L 134.908933 103.837319 
L 134.94149 95.223623 
L 134.990325 104.985723 
L 135.022882 97.213324 
L 135.03916 97.213324 
L 135.071716 105.411962 
L 135.153108 104.579423 
L 135.169386 104.579423 
L 135.201943 104.394805 
L 135.2345 105.411962 
L 135.250778 104.0186 
L 135.315891 104.779868 
L 135.332169 104.779868 
L 135.364726 105.411962 
L 135.413561 104.120567 
L 135.494952 104.040485 
L 135.527509 103.859953 
L 135.560066 106.778966 
L 135.625179 104.579423 
L 135.657735 104.204429 
L 135.674014 105.088706 
L 135.722849 104.292088 
L 135.755405 88.483987 
L 135.771684 105.411962 
L 135.820519 105.411962 
L 135.853075 105.411962 
L 135.885632 104.478884 
L 135.950745 104.880816 
L 135.983302 107.291883 
L 136.064693 105.411962 
L 136.080971 105.411962 
L 136.113528 91.429252 
L 136.178641 105.411962 
L 136.308868 104.005594 
L 136.373981 105.411962 
L 136.422816 104.682845 
L 136.439094 104.682845 
L 136.504207 105.196516 
L 136.553042 104.880816 
L 136.569321 104.880816 
L 136.601877 104.478884 
L 136.618156 105.308368 
L 136.66699 104.984899 
L 136.699547 105.088706 
L 136.715825 104.880816 
L 136.732104 104.880816 
L 136.76466 104.204429 
L 136.813495 105.411962 
L 136.829774 105.411962 
L 136.894887 105.196516 
L 136.943722 105.301212 
L 136.992557 105.411962 
L 137.122783 103.919584 
L 137.187896 105.196516 
L 137.236731 104.880816 
L 137.25301 104.880816 
L 137.285566 104.677544 
L 137.334401 105.196516 
L 137.383236 105.088706 
L 137.415793 104.985723 
L 137.432071 105.411962 
L 137.448349 105.411962 
L 137.546019 104.579423 
L 137.578576 104.880816 
L 137.643689 105.411962 
L 137.692524 104.985723 
L 137.741359 104.985723 
L 137.773915 96.669745 
L 137.790194 105.411962 
L 137.839029 105.411962 
L 137.969255 104.985723 
L 138.01809 104.579423 
L 138.083203 105.411962 
L 138.099481 105.411962 
L 138.197151 104.677544 
L 138.21343 105.196516 
L 138.229708 105.196516 
L 138.343656 105.411962 
L 138.359934 105.411962 
L 138.457604 103.937404 
L 138.555274 105.411962 
L 138.571552 105.196516 
L 138.587831 105.196516 
L 138.636666 105.411962 
L 138.718057 104.677544 
L 138.832005 105.411962 
L 138.848284 105.411962 
L 138.962232 104.985723 
L 138.97851 104.985723 
L 139.092458 105.411962 
L 139.108736 105.411962 
L 139.222685 105.196516 
L 139.238963 105.196516 
L 139.304076 104.985723 
L 139.320354 105.411962 
L 139.401746 105.411962 
L 139.434303 104.880816 
L 139.515694 105.088706 
L 139.531972 105.088706 
L 139.564529 104.682845 
L 139.580807 105.411962 
L 139.629642 105.196516 
L 139.727312 105.411962 
L 139.824982 104.677544 
L 139.922652 105.411962 
L 139.93893 104.985723 
L 139.955208 104.985723 
L 140.069157 105.411962 
L 140.117991 105.411962 
L 140.215661 104.985723 
L 140.23194 105.196516 
L 140.280775 105.196516 
L 140.313331 104.985723 
L 140.362166 94.923379 
L 140.378444 105.196516 
L 140.427279 95.704818 
L 140.476114 95.484003 
L 140.524949 105.196516 
L 140.590062 95.58028 
L 140.622619 105.196516 
L 140.655176 104.985723 
L 140.704011 105.411962 
L 140.948185 105.411962 
L 140.964463 102.03703 
L 141.045855 105.411962 
L 141.208638 105.301212 
L 141.273751 78.098112 
L 141.306308 105.196516 
L 141.338864 104.993143 
L 141.371421 86.334362 
L 141.436534 88.550924 
L 141.534204 105.411962 
L 141.566761 85.229434 
L 141.631874 105.411962 
L 141.696987 104.682525 
L 141.713266 105.170141 
L 141.794657 81.694613 
L 141.810935 105.411962 
L 141.827214 105.411962 
L 141.85977 79.50653 
L 141.924883 105.411962 
L 141.95744 105.411962 
L 141.989997 104.371458 
L 142.05511 105.411962 
L 142.087667 105.411962 
L 142.185336 104.371458 
L 142.217893 90.421449 
L 142.234171 105.411962 
L 142.283006 105.411962 
L 142.315563 104.266125 
L 142.380676 105.411962 
L 142.413233 105.411962 
L 142.527181 80.127847 
L 142.543459 80.127847 
L 142.657407 105.411962 
L 142.673686 105.411962 
L 142.706242 82.248936 
L 142.771355 105.308368 
L 142.803912 104.371458 
L 142.82019 105.411962 
L 142.869025 105.411962 
L 143.259705 105.411962 
L 143.275983 98.028332 
L 143.357374 105.308368 
L 146.108408 105.308368 
L 146.140965 93.529968 
L 146.206078 105.308368 
L 149.396626 105.308368 
L 149.429183 100.365009 
L 149.478018 105.411962 
L 149.494296 105.411962 
L 149.608244 105.308368 
L 158.903157 105.308368 
L 158.96827 82.546229 
L 159.000827 105.308368 
L 159.131053 105.308368 
L 159.196167 68.996485 
L 159.26128 77.917833 
L 159.326393 107.715499 
L 159.35895 80.578765 
L 159.407785 80.434207 
L 159.45662 82.558011 
L 159.570568 118.671503 
L 159.782186 118.671503 
L 159.814742 81.985459 
L 159.879856 118.671503 
L 160.726328 118.671503 
L 160.758884 121.510329 
L 160.823997 118.671503 
L 161.637913 118.671503 
L 161.735583 77.018117 
L 161.849531 118.671503 
L 161.865809 118.671503 
L 161.898366 100.525239 
L 161.914644 121.510329 
L 161.963479 121.510329 
L 162.077427 118.671503 
L 162.158819 118.671503 
L 162.191375 100.949631 
L 162.256488 118.671503 
L 162.289045 118.671503 
L 162.354158 77.370093 
L 162.43555 78.107254 
L 162.451828 78.107254 
L 162.484385 118.671503 
L 162.565776 94.082989 
L 162.582054 94.082989 
L 162.614611 77.732981 
L 162.696003 78.492461 
L 162.712281 78.492461 
L 162.875064 83.974642 
L 162.907621 85.097539 
L 162.923899 83.188639 
L 162.940177 83.188639 
L 163.00529 118.671503 
L 163.037847 85.097539 
L 163.070404 83.817563 
L 163.135517 84.419853 
L 163.20063 121.510329 
L 163.233187 107.620767 
L 163.265743 84.43629 
L 163.282022 118.671503 
L 163.330857 118.671503 
L 163.786649 118.671503 
L 163.819206 84.419853 
L 163.835484 121.510329 
L 163.900597 96.039244 
L 163.916876 96.039244 
L 164.014545 80.079899 
L 164.047102 118.671503 
L 164.112215 94.622395 
L 164.144772 83.427921 
L 164.16105 118.671503 
L 164.177329 118.671503 
L 164.209885 121.510329 
L 164.242442 107.557542 
L 164.323833 118.671503 
L 164.795904 118.671503 
L 164.828461 121.510329 
L 164.893574 118.671503 
L 165.12147 118.671503 
L 165.235418 121.510329 
L 165.284253 121.510329 
L 165.398202 118.671503 
L 166.879527 118.671503 
L 167.009754 99.959525 
L 167.107424 93.95301 
L 167.123702 98.97258 
L 167.13998 98.97258 
L 167.172537 99.959525 
L 167.23765 99.194326 
L 167.286485 100.533064 
L 167.33532 83.887319 
L 167.367877 100.742591 
L 167.416712 65.620325 
L 167.43299 65.620325 
L 167.465546 65.107363 
L 167.595773 101.021948 
L 167.709721 87.507184 
L 167.725999 87.507184 
L 167.856226 99.58428 
L 167.953896 76.601493 
L 167.970174 76.653413 
L 167.986452 76.653413 
L 168.019009 76.3201 
L 168.084122 78.207207 
L 168.132957 77.763619 
L 168.149235 77.763619 
L 168.377132 85.763573 
L 168.442245 107.807317 
L 168.49108 104.766974 
L 168.539915 104.766974 
L 168.572471 104.513382 
L 168.605028 85.48466 
L 168.653863 104.766974 
L 168.670141 104.766974 
L 168.702698 105.30485 
L 168.735254 80.910241 
L 168.800368 85.48466 
L 168.832924 105.589683 
L 168.898037 104.753709 
L 168.946872 107.055361 
L 168.995707 80.475199 
L 169.06082 106.192674 
L 169.109655 98.093688 
L 169.125934 98.093688 
L 169.15849 105.885515 
L 169.223604 100.063263 
L 169.337552 85.555493 
L 169.35383 85.555493 
L 169.4515 87.539351 
L 169.54917 83.956251 
L 169.565448 85.31892 
L 169.581726 85.31892 
L 169.744509 89.986682 
L 169.777066 89.255445 
L 169.891014 95.559573 
L 169.907292 95.559573 
L 169.939849 94.571165 
L 170.004962 94.586985 
L 170.037519 78.589138 
L 170.102632 95.433492 
L 170.11891 95.433492 
L 170.21658 82.113298 
L 170.265415 86.012935 
L 170.281693 86.012935 
L 170.363085 84.299585 
L 170.395642 93.832021 
L 170.41192 93.832021 
L 170.542146 67.707533 
L 170.672373 94.653841 
L 170.737486 66.862295 
L 170.786321 89.308495 
L 170.802599 89.308495 
L 170.867713 95.073614 
L 170.900269 90.089247 
L 171.030496 66.818239 
L 171.063052 100.112822 
L 171.128165 76.052212 
L 171.225835 64.984875 
L 171.242114 68.360893 
L 171.258392 68.360893 
L 171.290948 66.2802 
L 171.307227 73.353537 
L 171.339783 70.496277 
L 171.356062 70.496277 
L 171.421175 68.368918 
L 171.437453 71.081812 
L 171.453732 71.081812 
L 171.486288 74.145516 
L 171.535123 67.741031 
L 171.551401 67.741031 
L 171.583958 72.999907 
L 171.649071 67.741031 
L 171.681628 66.321183 
L 171.714184 74.140722 
L 171.795576 67.754 
L 171.844411 67.741031 
L 171.876968 67.144913 
L 171.893246 68.388075 
L 171.942081 67.754 
L 172.13742 75.178912 
L 171.990916 66.953381 
L 172.169977 74.76586 
L 172.202534 74.261935 
L 172.251369 75.178912 
L 172.267647 75.178912 
L 172.300203 75.178912 
L 172.33276 75.698793 
L 172.381595 75.17579 
L 172.397873 75.17579 
L 172.462987 114.33351 
L 172.479265 73.020838 
L 172.495543 73.020838 
L 172.544378 72.670099 
L 172.593213 74.765721 
L 172.62577 73.023653 
L 172.772274 108.570561 
L 172.869944 84.994296 
L 172.918779 72.875771 
L 172.983892 112.498541 
L 173.000171 112.498541 
L 173.065284 115.406294 
L 173.114119 114.361172 
L 173.19551 114.361172 
L 173.228067 115.406294 
L 173.29318 77.441095 
L 173.325737 113.394261 
L 173.358293 115.406294 
L 173.374572 112.9379 
L 173.439685 114.873474 
L 173.455963 114.873474 
L 173.48852 113.394261 
L 173.504798 115.406294 
L 173.521076 115.406294 
L 173.569911 115.960697 
L 173.635025 76.918543 
L 173.651303 76.918543 
L 173.748973 116.473108 
L 173.765251 115.960697 
L 173.781529 115.960697 
L 173.879199 114.873474 
L 174.009426 118.347795 
L 174.041982 115.406294 
L 174.123374 115.960697 
L 174.139652 115.960697 
L 174.188487 115.406294 
L 174.237322 118.347795 
L 174.302435 114.361172 
L 174.35127 115.406294 
L 174.367548 115.406294 
L 174.400105 118.347795 
L 174.416383 114.873474 
L 174.481497 117.138972 
L 174.497775 117.138972 
L 174.562888 114.361172 
L 174.595445 116.537838 
L 174.64428 115.406294 
L 174.709393 118.347795 
L 174.725671 118.347795 
L 174.823341 115.406294 
L 174.855898 116.537838 
L 174.888454 117.138972 
L 174.904733 115.960697 
L 174.953567 116.473108 
L 174.986124 116.537838 
L 175.034959 117.138972 
L 175.083794 115.406294 
L 175.148907 117.138972 
L 175.197742 115.960697 
L 175.21402 115.960697 
L 175.262855 115.406294 
L 175.31169 118.347795 
L 175.441917 114.373504 
L 175.474473 113.748341 
L 175.490752 115.02251 
L 175.523308 115.02251 
L 175.572143 115.02251 
L 175.637256 113.748341 
L 175.653535 115.696604 
L 175.734926 115.696604 
L 175.832596 113.145873 
L 175.865153 91.189425 
L 175.913988 115.02251 
L 175.930266 115.02251 
L 175.962822 115.02251 
L 176.125606 112.565035 
L 176.255832 115.02251 
L 176.288389 113.748341 
L 176.353502 114.373504 
L 176.418615 115.696604 
L 176.451172 115.02251 
L 176.548841 114.373504 
L 176.679068 116.39713 
L 176.809294 115.02251 
L 176.906964 116.39713 
L 177.037191 113.748341 
L 177.069747 113.748341 
L 177.199974 115.696604 
L 177.313922 115.02251 
L 177.3302 115.02251 
L 177.42787 113.748341 
L 177.444148 114.373504 
L 177.460427 114.373504 
L 177.606931 116.39713 
L 177.62321 116.39713 
L 177.753436 113.748341 
L 177.769714 114.373504 
L 177.785993 114.373504 
L 177.818549 115.696604 
L 177.867384 113.748341 
L 177.883663 113.748341 
L 177.916219 113.748341 
L 178.046446 115.696604 
L 178.111559 113.748341 
L 178.160394 115.02251 
L 178.209229 115.02251 
L 178.274342 115.696604 
L 178.306899 115.02251 
L 178.404568 115.02251 
L 178.437125 115.696604 
L 178.502238 115.02251 
L 178.567351 115.02251 
L 178.697578 116.39713 
L 178.795248 116.39713 
L 178.909196 115.696604 
L 178.990587 115.696604 
L 179.120814 114.373504 
L 179.153371 114.373504 
L 179.283597 116.39713 
L 179.316154 115.696604 
L 179.381267 116.39713 
L 179.511493 116.39713 
L 179.609163 115.696604 
L 179.674276 116.39713 
L 179.690555 115.02251 
L 179.73939 115.02251 
L 179.869616 116.39713 
L 179.967286 115.696604 
L 180.081234 116.39713 
L 180.390522 116.39713 
L 180.520748 115.02251 
L 180.618418 115.02251 
L 180.716088 115.696604 
L 180.781201 114.373504 
L 180.797479 116.39713 
L 181.041654 116.39713 
L 181.074211 115.696604 
L 181.139324 116.39713 
L 182.278805 116.39713 
L 182.311362 115.696604 
L 182.376475 116.39713 
L 197.189734 116.39713 
L 197.254847 114.854396 
L 197.385074 85.879684 
L 197.336239 116.39713 
L 197.450187 88.467616 
L 197.482744 89.312474 
L 197.499022 88.28308 
L 197.5153 88.28308 
L 197.629248 121.625152 
L 198.296659 121.625152 
L 198.329216 92.87208 
L 198.394329 121.625152 
L 199.891933 121.625152 
L 199.92449 93.059585 
L 200.005881 95.15003 
L 200.02216 95.15003 
L 200.070994 93.738087 
L 200.136108 120.826809 
L 200.250056 120.826809 
L 200.380282 107.55675 
L 200.445395 108.540139 
L 200.543065 111.297271 
L 200.575622 110.438689 
L 200.608179 108.893035 
L 200.657013 112.702397 
L 200.673292 112.702397 
L 200.722127 112.21771 
L 200.770962 113.723551 
L 200.803518 111.749513 
L 200.852353 115.394501 
L 200.901188 115.394501 
L 201.177919 121.625152 
L 203.212708 121.625152 
L 203.310377 117.138972 
L 203.424326 121.625152 
L 204.775425 121.625152 
L 204.889373 108.496159 
L 204.905651 108.496159 
L 204.938208 98.023429 
L 204.987043 114.656319 
L 205.003321 114.656319 
L 205.052156 115.244135 
L 205.166104 98.009237 
L 205.198661 98.009237 
L 205.312609 103.836101 
L 205.394001 103.864072 
L 205.426557 103.960915 
L 205.507949 103.894138 
L 205.68701 103.926388 
L 205.752123 104.037235 
L 205.800958 103.997826 
L 205.88235 104.037235 
L 205.914906 101.775294 
L 205.996298 102.053826 
L 206.045133 102.053826 
L 206.07769 95.623663 
L 206.142803 99.986611 
L 206.305586 111.804817 
L 206.403256 110.427871 
L 206.533482 121.625152 
L 206.566039 116.543738 
L 206.663709 104.59546 
L 206.679987 104.652763 
L 206.696265 104.652763 
L 206.810213 121.625152 
L 207.314841 121.625152 
L 207.428789 117.138972 
L 207.477624 117.138972 
L 207.542737 121.625152 
L 207.575294 117.138972 
L 207.60785 104.652763 
L 207.624129 121.625152 
L 207.672964 121.625152 
L 207.835747 121.625152 
L 207.949695 104.3256 
L 207.965973 104.3256 
L 207.99853 105.017329 
L 208.031086 117.138972 
L 208.047365 104.59546 
L 208.0962 104.59546 
L 208.258983 105.087469 
L 208.291539 105.087469 
L 208.324096 104.751007 
L 208.372931 105.419001 
L 208.389209 105.419001 
L 208.486879 109.14897 
L 208.503157 108.707639 
L 208.519436 108.707639 
L 208.584549 107.525082 
L 208.600827 109.14897 
L 208.649662 109.178439 
L 208.698497 109.14897 
L 208.76361 111.222808 
L 208.796167 116.537838 
L 208.877558 113.960503 
L 208.95895 113.223221 
L 208.991506 115.406294 
L 209.007785 115.406294 
L 209.024063 115.960697 
L 209.040341 112.732924 
L 209.05662 112.732924 
L 209.089176 111.988769 
L 209.170568 112.259201 
L 209.251959 112.236911 
L 209.268238 110.872929 
L 209.300794 117.07224 
L 209.365907 117.138972 
L 209.431021 112.634551 
L 209.463577 115.960697 
L 209.496134 89.939147 
L 209.512412 117.765462 
L 209.577525 98.385196 
L 209.593804 98.385196 
L 209.675195 115.406294 
L 209.707752 84.142035 
L 209.756587 105.862192 
L 209.870535 295.488 
L 398.487273 295.488 
L 398.487273 295.488 
" clip-path="url(#pbc5c53a074)" style="fill: none; stroke: #1f77b4; stroke-width: 1.5; stroke-linecap: square"/>
   </g>
   <g id="patch_3">
    <path d="M 57.6 307.584 
L 57.6 41.472 
" style="fill: none; stroke: #000000; stroke-width: 0.8; stroke-linejoin: miter; stroke-linecap: square"/>
   </g>
   <g id="patch_4">
    <path d="M 414.72 307.584 
L 414.72 41.472 
" style="fill: none; stroke: #000000; stroke-width: 0.8; stroke-linejoin: miter; stroke-linecap: square"/>
   </g>
   <g id="patch_5">
    <path d="M 57.6 307.584 
L 414.72 307.584 
" style="fill: none; stroke: #000000; stroke-width: 0.8; stroke-linejoin: miter; stroke-linecap: square"/>
   </g>
   <g id="patch_6">
    <path d="M 57.6 41.472 
L 414.72 41.472 
" style="fill: none; stroke: #000000; stroke-width: 0.8; stroke-linejoin: miter; stroke-linecap: square"/>
   </g>
  </g>
 </g>
 <defs>
  <clipPath id="pbc5c53a074">
   <rect x="57.6" y="41.472" width="357.12" height="266.112"/>
  </clipPath>
 </defs>
</svg>
