<?xml version="1.0" encoding="utf-8" standalone="no"?>
<!DOCTYPE svg PUBLIC "-//W3C//DTD SVG 1.1//EN"
  "http://www.w3.org/Graphics/SVG/1.1/DTD/svg11.dtd">
<svg xmlns:xlink="http://www.w3.org/1999/xlink" width="460.8pt" height="345.6pt" viewBox="0 0 460.8 345.6" xmlns="http://www.w3.org/2000/svg" version="1.1">
 <metadata>
  <rdf:RDF xmlns:dc="http://purl.org/dc/elements/1.1/" xmlns:cc="http://creativecommons.org/ns#" xmlns:rdf="http://www.w3.org/1999/02/22-rdf-syntax-ns#">
   <cc:Work>
    <dc:type rdf:resource="http://purl.org/dc/dcmitype/StillImage"/>
    <dc:date>2024-04-24T20:00:23.374302</dc:date>
    <dc:format>image/svg+xml</dc:format>
    <dc:creator>
     <cc:Agent>
      <dc:title>Matplotlib v3.7.2, https://matplotlib.org/</dc:title>
     </cc:Agent>
    </dc:creator>
   </cc:Work>
  </rdf:RDF>
 </metadata>
 <defs>
  <style type="text/css">*{stroke-linejoin: round; stroke-linecap: butt}</style>
 </defs>
 <g id="figure_1">
  <g id="patch_1">
   <path d="M 0 345.6 
L 460.8 345.6 
L 460.8 0 
L 0 0 
z
" style="fill: #ffffff"/>
  </g>
  <g id="axes_1">
   <g id="patch_2">
    <path d="M 57.6 307.584 
L 414.72 307.584 
L 414.72 41.472 
L 57.6 41.472 
z
" style="fill: #ffffff"/>
   </g>
   <g id="matplotlib.axis_1">
    <g id="xtick_1">
     <g id="line2d_1">
      <defs>
       <path id="md469ced04b" d="M 0 0 
L 0 3.5 
" style="stroke: #000000; stroke-width: 0.8"/>
      </defs>
      <g>
       <use xlink:href="#md469ced04b" x="73.832727" y="307.584" style="stroke: #000000; stroke-width: 0.8"/>
      </g>
     </g>
     <g id="text_1">
      <!-- 0 -->
      <g transform="translate(70.651477 322.182437) scale(0.1 -0.1)">
       <defs>
        <path id="DejaVuSans-30" d="M 2034 4250 
Q 1547 4250 1301 3770 
Q 1056 3291 1056 2328 
Q 1056 1369 1301 889 
Q 1547 409 2034 409 
Q 2525 409 2770 889 
Q 3016 1369 3016 2328 
Q 3016 3291 2770 3770 
Q 2525 4250 2034 4250 
z
M 2034 4750 
Q 2819 4750 3233 4129 
Q 3647 3509 3647 2328 
Q 3647 1150 3233 529 
Q 2819 -91 2034 -91 
Q 1250 -91 836 529 
Q 422 1150 422 2328 
Q 422 3509 836 4129 
Q 1250 4750 2034 4750 
z
" transform="scale(0.015625)"/>
       </defs>
       <use xlink:href="#DejaVuSans-30"/>
      </g>
     </g>
    </g>
    <g id="xtick_2">
     <g id="line2d_2">
      <g>
       <use xlink:href="#md469ced04b" x="116.913214" y="307.584" style="stroke: #000000; stroke-width: 0.8"/>
      </g>
     </g>
     <g id="text_2">
      <!-- 250 -->
      <g transform="translate(107.369464 322.182437) scale(0.1 -0.1)">
       <defs>
        <path id="DejaVuSans-32" d="M 1228 531 
L 3431 531 
L 3431 0 
L 469 0 
L 469 531 
Q 828 903 1448 1529 
Q 2069 2156 2228 2338 
Q 2531 2678 2651 2914 
Q 2772 3150 2772 3378 
Q 2772 3750 2511 3984 
Q 2250 4219 1831 4219 
Q 1534 4219 1204 4116 
Q 875 4013 500 3803 
L 500 4441 
Q 881 4594 1212 4672 
Q 1544 4750 1819 4750 
Q 2544 4750 2975 4387 
Q 3406 4025 3406 3419 
Q 3406 3131 3298 2873 
Q 3191 2616 2906 2266 
Q 2828 2175 2409 1742 
Q 1991 1309 1228 531 
z
" transform="scale(0.015625)"/>
        <path id="DejaVuSans-35" d="M 691 4666 
L 3169 4666 
L 3169 4134 
L 1269 4134 
L 1269 2991 
Q 1406 3038 1543 3061 
Q 1681 3084 1819 3084 
Q 2600 3084 3056 2656 
Q 3513 2228 3513 1497 
Q 3513 744 3044 326 
Q 2575 -91 1722 -91 
Q 1428 -91 1123 -41 
Q 819 9 494 109 
L 494 744 
Q 775 591 1075 516 
Q 1375 441 1709 441 
Q 2250 441 2565 725 
Q 2881 1009 2881 1497 
Q 2881 1984 2565 2268 
Q 2250 2553 1709 2553 
Q 1456 2553 1204 2497 
Q 953 2441 691 2322 
L 691 4666 
z
" transform="scale(0.015625)"/>
       </defs>
       <use xlink:href="#DejaVuSans-32"/>
       <use xlink:href="#DejaVuSans-35" x="63.623047"/>
       <use xlink:href="#DejaVuSans-30" x="127.246094"/>
      </g>
     </g>
    </g>
    <g id="xtick_3">
     <g id="line2d_3">
      <g>
       <use xlink:href="#md469ced04b" x="159.9937" y="307.584" style="stroke: #000000; stroke-width: 0.8"/>
      </g>
     </g>
     <g id="text_3">
      <!-- 500 -->
      <g transform="translate(150.44995 322.182437) scale(0.1 -0.1)">
       <use xlink:href="#DejaVuSans-35"/>
       <use xlink:href="#DejaVuSans-30" x="63.623047"/>
       <use xlink:href="#DejaVuSans-30" x="127.246094"/>
      </g>
     </g>
    </g>
    <g id="xtick_4">
     <g id="line2d_4">
      <g>
       <use xlink:href="#md469ced04b" x="203.074186" y="307.584" style="stroke: #000000; stroke-width: 0.8"/>
      </g>
     </g>
     <g id="text_4">
      <!-- 750 -->
      <g transform="translate(193.530436 322.182437) scale(0.1 -0.1)">
       <defs>
        <path id="DejaVuSans-37" d="M 525 4666 
L 3525 4666 
L 3525 4397 
L 1831 0 
L 1172 0 
L 2766 4134 
L 525 4134 
L 525 4666 
z
" transform="scale(0.015625)"/>
       </defs>
       <use xlink:href="#DejaVuSans-37"/>
       <use xlink:href="#DejaVuSans-35" x="63.623047"/>
       <use xlink:href="#DejaVuSans-30" x="127.246094"/>
      </g>
     </g>
    </g>
    <g id="xtick_5">
     <g id="line2d_5">
      <g>
       <use xlink:href="#md469ced04b" x="246.154673" y="307.584" style="stroke: #000000; stroke-width: 0.8"/>
      </g>
     </g>
     <g id="text_5">
      <!-- 1000 -->
      <g transform="translate(233.429673 322.182437) scale(0.1 -0.1)">
       <defs>
        <path id="DejaVuSans-31" d="M 794 531 
L 1825 531 
L 1825 4091 
L 703 3866 
L 703 4441 
L 1819 4666 
L 2450 4666 
L 2450 531 
L 3481 531 
L 3481 0 
L 794 0 
L 794 531 
z
" transform="scale(0.015625)"/>
       </defs>
       <use xlink:href="#DejaVuSans-31"/>
       <use xlink:href="#DejaVuSans-30" x="63.623047"/>
       <use xlink:href="#DejaVuSans-30" x="127.246094"/>
       <use xlink:href="#DejaVuSans-30" x="190.869141"/>
      </g>
     </g>
    </g>
    <g id="xtick_6">
     <g id="line2d_6">
      <g>
       <use xlink:href="#md469ced04b" x="289.235159" y="307.584" style="stroke: #000000; stroke-width: 0.8"/>
      </g>
     </g>
     <g id="text_6">
      <!-- 1250 -->
      <g transform="translate(276.510159 322.182437) scale(0.1 -0.1)">
       <use xlink:href="#DejaVuSans-31"/>
       <use xlink:href="#DejaVuSans-32" x="63.623047"/>
       <use xlink:href="#DejaVuSans-35" x="127.246094"/>
       <use xlink:href="#DejaVuSans-30" x="190.869141"/>
      </g>
     </g>
    </g>
    <g id="xtick_7">
     <g id="line2d_7">
      <g>
       <use xlink:href="#md469ced04b" x="332.315646" y="307.584" style="stroke: #000000; stroke-width: 0.8"/>
      </g>
     </g>
     <g id="text_7">
      <!-- 1500 -->
      <g transform="translate(319.590646 322.182437) scale(0.1 -0.1)">
       <use xlink:href="#DejaVuSans-31"/>
       <use xlink:href="#DejaVuSans-35" x="63.623047"/>
       <use xlink:href="#DejaVuSans-30" x="127.246094"/>
       <use xlink:href="#DejaVuSans-30" x="190.869141"/>
      </g>
     </g>
    </g>
    <g id="xtick_8">
     <g id="line2d_8">
      <g>
       <use xlink:href="#md469ced04b" x="375.396132" y="307.584" style="stroke: #000000; stroke-width: 0.8"/>
      </g>
     </g>
     <g id="text_8">
      <!-- 1750 -->
      <g transform="translate(362.671132 322.182437) scale(0.1 -0.1)">
       <use xlink:href="#DejaVuSans-31"/>
       <use xlink:href="#DejaVuSans-37" x="63.623047"/>
       <use xlink:href="#DejaVuSans-35" x="127.246094"/>
       <use xlink:href="#DejaVuSans-30" x="190.869141"/>
      </g>
     </g>
    </g>
   </g>
   <g id="matplotlib.axis_2">
    <g id="ytick_1">
     <g id="line2d_9">
      <defs>
       <path id="m7082ba5289" d="M 0 0 
L -3.5 0 
" style="stroke: #000000; stroke-width: 0.8"/>
      </defs>
      <g>
       <use xlink:href="#m7082ba5289" x="57.6" y="295.488" style="stroke: #000000; stroke-width: 0.8"/>
      </g>
     </g>
     <g id="text_9">
      <!-- −500 -->
      <g transform="translate(23.132812 299.287219) scale(0.1 -0.1)">
       <defs>
        <path id="DejaVuSans-2212" d="M 678 2272 
L 4684 2272 
L 4684 1741 
L 678 1741 
L 678 2272 
z
" transform="scale(0.015625)"/>
       </defs>
       <use xlink:href="#DejaVuSans-2212"/>
       <use xlink:href="#DejaVuSans-35" x="83.789062"/>
       <use xlink:href="#DejaVuSans-30" x="147.412109"/>
       <use xlink:href="#DejaVuSans-30" x="211.035156"/>
      </g>
     </g>
    </g>
    <g id="ytick_2">
     <g id="line2d_10">
      <g>
       <use xlink:href="#m7082ba5289" x="57.6" y="255.206725" style="stroke: #000000; stroke-width: 0.8"/>
      </g>
     </g>
     <g id="text_10">
      <!-- −400 -->
      <g transform="translate(23.132812 259.005944) scale(0.1 -0.1)">
       <defs>
        <path id="DejaVuSans-34" d="M 2419 4116 
L 825 1625 
L 2419 1625 
L 2419 4116 
z
M 2253 4666 
L 3047 4666 
L 3047 1625 
L 3713 1625 
L 3713 1100 
L 3047 1100 
L 3047 0 
L 2419 0 
L 2419 1100 
L 313 1100 
L 313 1709 
L 2253 4666 
z
" transform="scale(0.015625)"/>
       </defs>
       <use xlink:href="#DejaVuSans-2212"/>
       <use xlink:href="#DejaVuSans-34" x="83.789062"/>
       <use xlink:href="#DejaVuSans-30" x="147.412109"/>
       <use xlink:href="#DejaVuSans-30" x="211.035156"/>
      </g>
     </g>
    </g>
    <g id="ytick_3">
     <g id="line2d_11">
      <g>
       <use xlink:href="#m7082ba5289" x="57.6" y="214.92545" style="stroke: #000000; stroke-width: 0.8"/>
      </g>
     </g>
     <g id="text_11">
      <!-- −300 -->
      <g transform="translate(23.132812 218.724668) scale(0.1 -0.1)">
       <defs>
        <path id="DejaVuSans-33" d="M 2597 2516 
Q 3050 2419 3304 2112 
Q 3559 1806 3559 1356 
Q 3559 666 3084 287 
Q 2609 -91 1734 -91 
Q 1441 -91 1130 -33 
Q 819 25 488 141 
L 488 750 
Q 750 597 1062 519 
Q 1375 441 1716 441 
Q 2309 441 2620 675 
Q 2931 909 2931 1356 
Q 2931 1769 2642 2001 
Q 2353 2234 1838 2234 
L 1294 2234 
L 1294 2753 
L 1863 2753 
Q 2328 2753 2575 2939 
Q 2822 3125 2822 3475 
Q 2822 3834 2567 4026 
Q 2313 4219 1838 4219 
Q 1578 4219 1281 4162 
Q 984 4106 628 3988 
L 628 4550 
Q 988 4650 1302 4700 
Q 1616 4750 1894 4750 
Q 2613 4750 3031 4423 
Q 3450 4097 3450 3541 
Q 3450 3153 3228 2886 
Q 3006 2619 2597 2516 
z
" transform="scale(0.015625)"/>
       </defs>
       <use xlink:href="#DejaVuSans-2212"/>
       <use xlink:href="#DejaVuSans-33" x="83.789062"/>
       <use xlink:href="#DejaVuSans-30" x="147.412109"/>
       <use xlink:href="#DejaVuSans-30" x="211.035156"/>
      </g>
     </g>
    </g>
    <g id="ytick_4">
     <g id="line2d_12">
      <g>
       <use xlink:href="#m7082ba5289" x="57.6" y="174.644175" style="stroke: #000000; stroke-width: 0.8"/>
      </g>
     </g>
     <g id="text_12">
      <!-- −200 -->
      <g transform="translate(23.132812 178.443393) scale(0.1 -0.1)">
       <use xlink:href="#DejaVuSans-2212"/>
       <use xlink:href="#DejaVuSans-32" x="83.789062"/>
       <use xlink:href="#DejaVuSans-30" x="147.412109"/>
       <use xlink:href="#DejaVuSans-30" x="211.035156"/>
      </g>
     </g>
    </g>
    <g id="ytick_5">
     <g id="line2d_13">
      <g>
       <use xlink:href="#m7082ba5289" x="57.6" y="134.362899" style="stroke: #000000; stroke-width: 0.8"/>
      </g>
     </g>
     <g id="text_13">
      <!-- −100 -->
      <g transform="translate(23.132812 138.162118) scale(0.1 -0.1)">
       <use xlink:href="#DejaVuSans-2212"/>
       <use xlink:href="#DejaVuSans-31" x="83.789062"/>
       <use xlink:href="#DejaVuSans-30" x="147.412109"/>
       <use xlink:href="#DejaVuSans-30" x="211.035156"/>
      </g>
     </g>
    </g>
    <g id="ytick_6">
     <g id="line2d_14">
      <g>
       <use xlink:href="#m7082ba5289" x="57.6" y="94.081624" style="stroke: #000000; stroke-width: 0.8"/>
      </g>
     </g>
     <g id="text_14">
      <!-- 0 -->
      <g transform="translate(44.2375 97.880843) scale(0.1 -0.1)">
       <use xlink:href="#DejaVuSans-30"/>
      </g>
     </g>
    </g>
    <g id="ytick_7">
     <g id="line2d_15">
      <g>
       <use xlink:href="#m7082ba5289" x="57.6" y="53.800349" style="stroke: #000000; stroke-width: 0.8"/>
      </g>
     </g>
     <g id="text_15">
      <!-- 100 -->
      <g transform="translate(31.5125 57.599568) scale(0.1 -0.1)">
       <use xlink:href="#DejaVuSans-31"/>
       <use xlink:href="#DejaVuSans-30" x="63.623047"/>
       <use xlink:href="#DejaVuSans-30" x="127.246094"/>
      </g>
     </g>
    </g>
   </g>
   <g id="line2d_16">
    <path d="M 73.832727 90.581696 
L 74.005049 295.488 
L 74.177371 94.081624 
L 74.349693 295.488 
L 74.522015 76.200222 
L 74.694337 295.488 
L 74.866659 93.754402 
L 75.038981 295.488 
L 75.211303 95.842799 
L 75.383625 295.488 
L 75.555947 81.911452 
L 75.728269 295.488 
L 75.900591 133.27069 
L 76.072913 295.488 
L 76.245235 141.43999 
L 76.417556 295.488 
L 76.589878 92.741045 
L 76.7622 295.488 
L 76.934522 95.71068 
L 77.106844 295.488 
L 77.279166 94.081624 
L 77.451488 295.488 
L 77.62381 96.35259 
L 77.796132 295.488 
L 77.968454 152.258347 
L 78.140776 295.488 
L 78.313098 95.088457 
L 78.48542 295.488 
L 78.657742 88.071691 
L 78.830064 295.488 
L 79.002386 89.013283 
L 79.174708 295.488 
L 79.34703 84.519308 
L 79.519351 295.488 
L 79.691673 93.655638 
L 79.863995 295.488 
L 80.036317 94.081624 
L 80.208639 295.488 
L 80.380961 92.388439 
L 80.553283 295.488 
L 80.725605 141.740828 
L 80.897927 295.488 
L 81.070249 93.543554 
L 81.242571 295.488 
L 81.414893 94.233364 
L 81.587215 295.488 
L 81.759537 94.081624 
L 81.931859 295.488 
L 82.104181 88.871492 
L 82.276503 295.488 
L 82.448825 94.525861 
L 82.621146 295.488 
L 82.793468 94.081624 
L 82.96579 295.488 
L 83.138112 108.021863 
L 83.310434 295.488 
L 83.482756 86.677723 
L 83.655078 295.488 
L 83.8274 91.128207 
L 83.999722 295.488 
L 84.172044 93.655638 
L 84.344366 295.488 
L 84.516688 83.832911 
L 84.68901 295.488 
L 84.861332 93.246892 
L 85.033654 295.488 
L 85.205976 91.300163 
L 85.378298 295.488 
L 85.55062 141.825637 
L 85.722942 295.488 
L 85.895263 98.954639 
L 86.067585 295.488 
L 86.239907 94.081624 
L 86.412229 295.488 
L 86.584551 83.218951 
L 86.756873 295.488 
L 86.929195 93.110051 
L 87.101517 295.488 
L 87.273839 94.081624 
L 87.446161 295.488 
L 87.618483 122.877519 
L 87.790805 295.488 
L 87.963127 144.972085 
L 88.135449 295.488 
L 88.307771 83.086792 
L 88.480093 295.488 
L 88.652415 84.983281 
L 88.824737 295.488 
L 88.997058 79.800279 
L 89.16938 295.488 
L 89.341702 94.081624 
L 89.514024 295.488 
L 89.686346 102.211562 
L 89.858668 295.488 
L 90.03099 93.110051 
L 90.203312 295.488 
L 90.375634 94.173569 
L 90.547956 295.488 
L 90.720278 96.693296 
L 90.8926 295.488 
L 91.064922 93.110051 
L 91.237244 295.488 
L 91.409566 93.021103 
L 91.581888 295.488 
L 91.75421 77.847484 
L 91.926532 295.488 
L 92.098854 93.703626 
L 92.271175 295.488 
L 92.443497 94.081624 
L 92.615819 295.488 
L 92.788141 94.081624 
L 92.960463 295.488 
L 93.132785 93.655638 
L 93.305107 295.488 
L 93.477429 128.957376 
L 93.649751 295.488 
L 93.822073 94.081624 
L 93.994395 295.488 
L 94.166717 94.081624 
L 94.339039 295.488 
L 94.511361 90.100105 
L 94.683683 295.488 
L 94.856005 94.651982 
L 95.028327 295.488 
L 95.200649 119.676155 
L 95.37297 295.488 
L 95.545292 94.081624 
L 95.717614 295.488 
L 95.889936 132.544011 
L 96.062258 295.488 
L 96.23458 97.270036 
L 96.406902 295.488 
L 96.579224 135.368408 
L 96.751546 295.488 
L 96.923868 100.15908 
L 97.09619 295.488 
L 97.268512 137.468402 
L 97.440834 295.488 
L 97.613156 84.508443 
L 97.785478 295.488 
L 97.9578 79.438743 
L 98.130122 295.488 
L 98.302444 93.655638 
L 98.474765 295.488 
L 98.647087 92.388439 
L 98.819409 295.488 
L 98.991731 145.862054 
L 99.164053 295.488 
L 99.336375 88.296955 
L 99.508697 295.488 
L 99.681019 94.081624 
L 99.853341 295.488 
L 100.025663 152.464205 
L 100.197985 295.488 
L 100.370307 94.081624 
L 100.542629 295.488 
L 100.714951 117.085799 
L 100.887273 295.488 
L 101.059595 94.525861 
L 101.231917 295.488 
L 101.404239 93.655638 
L 101.576561 295.488 
L 101.748882 139.758453 
L 101.921204 295.488 
L 102.093526 89.869364 
L 102.265848 295.488 
L 102.43817 94.081624 
L 102.610492 295.488 
L 102.782814 121.9729 
L 102.955136 295.488 
L 103.127458 93.496416 
L 103.29978 295.488 
L 103.472102 92.788331 
L 103.644424 295.488 
L 103.816746 95.040541 
L 103.989068 295.488 
L 104.16139 94.081624 
L 104.333712 295.488 
L 104.506034 95.494393 
L 104.678356 295.488 
L 104.850677 91.16033 
L 105.022999 295.488 
L 105.195321 93.110051 
L 105.367643 295.488 
L 105.539965 91.658648 
L 105.712287 295.488 
L 105.884609 94.081624 
L 106.056931 295.488 
L 106.229253 80.530028 
L 106.401575 295.488 
L 106.573897 89.493492 
L 106.746219 295.488 
L 106.918541 92.388439 
L 107.090863 295.488 
L 107.263185 92.179743 
L 107.435507 295.488 
L 107.607829 124.044529 
L 107.780151 295.488 
L 107.952472 94.081624 
L 108.124794 295.488 
L 108.297116 94.081624 
L 108.469438 295.488 
L 108.64176 94.131153 
L 108.814082 295.488 
L 108.986404 84.767915 
L 109.158726 295.488 
L 109.331048 93.703626 
L 109.50337 295.488 
L 109.675692 86.981235 
L 109.848014 295.488 
L 110.020336 93.655638 
L 110.192658 295.488 
L 110.36498 93.110051 
L 110.537302 295.488 
L 110.709624 153.949091 
L 110.881946 295.488 
L 111.054268 93.655638 
L 111.226589 295.488 
L 111.398911 90.415271 
L 111.571233 295.488 
L 111.743555 148.715719 
L 111.915877 295.488 
L 112.088199 94.081624 
L 112.260521 295.488 
L 112.432843 87.381069 
L 112.605165 295.488 
L 112.777487 94.081624 
L 112.949809 295.488 
L 113.122131 95.680561 
L 113.294453 295.488 
L 113.466775 197.190959 
L 113.639097 295.488 
L 113.811419 94.874628 
L 113.983741 295.488 
L 114.156063 73.792381 
L 114.328384 295.488 
L 114.500706 98.639208 
L 114.673028 295.488 
L 114.84535 93.655638 
L 115.017672 295.488 
L 115.189994 93.158414 
L 115.362316 295.488 
L 115.534638 95.757118 
L 115.70696 295.488 
L 115.879282 91.472752 
L 116.051604 295.488 
L 116.223926 94.081624 
L 116.396248 295.488 
L 116.56857 94.081624 
L 116.740892 295.488 
L 116.913214 94.477586 
L 117.085536 295.488 
L 117.257858 94.081624 
L 117.43018 295.488 
L 117.602501 94.081624 
L 117.774823 295.488 
L 117.947145 98.024582 
L 118.119467 295.488 
L 118.291789 149.98613 
L 118.464111 295.488 
L 118.636433 107.926565 
L 118.808755 295.488 
L 119.153399 295.488 
L 119.325721 102.828829 
L 119.498043 295.488 
L 120.187331 295.488 
L 120.359653 100.907988 
L 120.531975 295.488 
L 120.876618 295.488 
L 121.04894 94.987615 
L 121.221262 295.488 
L 121.393584 90.327635 
L 121.565906 295.488 
L 121.738228 103.253479 
L 121.91055 295.488 
L 122.082872 91.675276 
L 122.255194 295.488 
L 122.427516 90.847158 
L 122.599838 295.488 
L 122.77216 81.016657 
L 122.944482 295.488 
L 123.116804 91.103017 
L 123.289126 295.488 
L 123.461448 80.481797 
L 123.63377 295.488 
L 123.806091 91.90431 
L 123.978413 295.488 
L 124.150735 92.952798 
L 124.323057 295.488 
L 124.495379 93.258224 
L 124.667701 295.488 
L 124.840023 93.258224 
L 125.012345 295.488 
L 125.184667 82.175911 
L 125.356989 295.488 
L 125.529311 93.258224 
L 125.701633 295.488 
L 125.873955 91.90431 
L 126.046277 295.488 
L 126.218599 91.90431 
L 126.390921 295.488 
L 126.563243 83.333215 
L 126.735565 295.488 
L 126.907887 91.90431 
L 127.080208 295.488 
L 127.25253 82.175911 
L 127.424852 295.488 
L 127.597174 82.175911 
L 127.769496 295.488 
L 127.941818 92.350804 
L 128.11414 295.488 
L 128.286462 82.175911 
L 128.458784 295.488 
L 128.631106 91.90431 
L 128.803428 295.488 
L 128.97575 89.752361 
L 129.148072 295.488 
L 129.320394 90.996891 
L 129.492716 295.488 
L 129.665038 91.90431 
L 129.83736 295.488 
L 130.009682 93.258224 
L 130.182003 295.488 
L 130.354325 91.90431 
L 130.526647 295.488 
L 130.698969 90.996891 
L 130.871291 295.488 
L 131.043613 91.90431 
L 131.215935 295.488 
L 131.388257 82.175911 
L 131.560579 295.488 
L 131.732901 82.661318 
L 131.905223 295.488 
L 132.077545 93.258224 
L 132.249867 295.488 
L 132.422189 91.90431 
L 132.594511 295.488 
L 132.766833 82.175911 
L 132.939155 295.488 
L 133.111477 91.90431 
L 133.283798 295.488 
L 133.45612 93.258224 
L 133.628442 295.488 
L 133.800764 93.258224 
L 133.973086 295.488 
L 134.145408 93.258224 
L 134.31773 295.488 
L 134.490052 82.175911 
L 134.662374 295.488 
L 134.834696 93.258224 
L 135.007018 295.488 
L 135.17934 90.996891 
L 135.351662 295.488 
L 135.523984 91.980784 
L 135.696306 295.488 
L 135.868628 90.996891 
L 136.04095 295.488 
L 136.213272 89.147243 
L 136.385594 295.488 
L 136.557915 79.74484 
L 136.730237 295.488 
L 136.902559 93.258224 
L 137.074881 295.488 
L 137.247203 93.258224 
L 137.419525 295.488 
L 137.591847 93.258224 
L 137.764169 295.488 
L 137.936491 91.90431 
L 138.108813 295.488 
L 138.281135 91.90431 
L 138.453457 295.488 
L 138.625779 93.258224 
L 138.798101 295.488 
L 138.970423 92.350804 
L 139.142745 295.488 
L 139.315067 92.350804 
L 139.487389 295.488 
L 139.65971 91.90431 
L 139.832032 295.488 
L 140.004354 80.320386 
L 140.176676 295.488 
L 140.348998 91.90431 
L 140.52132 295.488 
L 140.693642 91.90431 
L 140.865964 295.488 
L 141.038286 91.485903 
L 141.210608 295.488 
L 141.38293 158.529757 
L 141.555252 295.488 
L 142.24454 295.488 
L 142.416862 90.506754 
L 142.589184 295.488 
L 142.761506 79.475941 
L 142.933827 295.488 
L 143.967759 295.488 
L 144.140081 160.058075 
L 144.312403 295.488 
L 144.484725 93.939661 
L 144.657047 295.488 
L 144.829369 83.333215 
L 145.001691 295.488 
L 145.174013 90.221124 
L 145.346335 295.488 
L 145.518657 88.111522 
L 145.690979 295.488 
L 145.863301 90.221124 
L 146.035622 295.488 
L 146.207944 81.899408 
L 146.380266 295.488 
L 146.552588 82.77015 
L 146.72491 295.488 
L 146.897232 81.899408 
L 147.069554 295.488 
L 147.241876 81.031516 
L 147.414198 295.488 
L 147.58652 80.526989 
L 147.758842 295.488 
L 147.931164 79.656246 
L 148.103486 295.488 
L 148.275808 80.985645 
L 148.44813 295.488 
L 148.620452 80.698898 
L 148.792774 295.488 
L 148.965096 83.555308 
L 149.137417 295.488 
L 149.309739 78.153055 
L 149.482061 295.488 
L 149.654383 75.146888 
L 149.826705 295.488 
L 149.999027 85.93318 
L 150.171349 295.488 
L 150.343671 81.139779 
L 150.515993 295.488 
L 150.688315 82.772096 
L 150.860637 295.488 
L 151.032959 86.443019 
L 151.205281 295.488 
L 151.377603 84.024395 
L 151.549925 295.488 
L 151.722247 71.535521 
L 151.894569 295.488 
L 152.066891 67.139205 
L 152.239213 295.488 
L 152.411534 75.134581 
L 152.583856 295.488 
L 152.756178 74.109174 
L 152.9285 295.488 
L 153.100822 73.449607 
L 153.273144 295.488 
L 153.445466 76.409723 
L 153.617788 295.488 
L 153.79011 74.445284 
L 153.962432 295.488 
L 154.134754 73.751706 
L 154.307076 295.488 
L 154.479398 78.735918 
L 154.65172 295.488 
L 154.824042 69.885695 
L 154.996364 295.488 
L 155.168686 73.681902 
L 155.341008 295.488 
L 155.513329 74.094708 
L 155.685651 295.488 
L 155.857973 77.533059 
L 156.030295 295.488 
L 156.202617 74.223197 
L 156.374939 295.488 
L 156.547261 72.824402 
L 156.719583 295.488 
L 156.891905 87.946633 
L 157.064227 295.488 
L 157.236549 103.018307 
L 157.408871 295.488 
L 157.581193 74.362944 
L 157.753515 295.488 
L 157.925837 96.621403 
L 158.098159 295.488 
L 158.270481 86.798613 
L 158.442803 295.488 
L 158.615124 99.130613 
L 158.787446 295.488 
L 158.959768 104.168947 
L 159.13209 295.488 
L 159.304412 85.212155 
L 159.476734 295.488 
L 159.649056 80.411337 
L 159.821378 295.488 
L 159.9937 84.91346 
L 160.166022 295.488 
L 160.338344 80.041922 
L 160.510666 295.488 
L 160.682988 84.809246 
L 160.85531 295.488 
L 161.027632 77.393995 
L 161.199954 295.488 
L 161.372276 77.688616 
L 161.544598 295.488 
L 161.71692 86.132894 
L 161.889241 295.488 
L 162.061563 78.888419 
L 162.233885 295.488 
L 162.406207 84.840936 
L 162.578529 295.488 
L 162.750851 80.63261 
L 162.923173 295.488 
L 163.095495 80.352807 
L 163.267817 295.488 
L 163.440139 83.895493 
L 163.612461 295.488 
L 163.784783 84.042938 
L 163.957105 295.488 
L 164.129427 84.814752 
L 164.301749 295.488 
L 164.474071 84.29567 
L 164.646393 295.488 
L 164.818715 80.133305 
L 164.991036 295.488 
L 165.163358 71.652369 
L 165.33568 295.488 
L 165.508002 82.465322 
L 165.680324 295.488 
L 165.852646 73.886382 
L 166.024968 295.488 
L 166.19729 75.409958 
L 166.369612 295.488 
L 166.541934 76.500337 
L 166.714256 295.488 
L 166.886578 83.867612 
L 167.0589 295.488 
L 167.231222 75.5546 
L 167.403544 295.488 
L 167.575866 76.951953 
L 167.748188 295.488 
L 167.92051 82.331495 
L 168.092831 295.488 
L 168.265153 83.751811 
L 168.437475 295.488 
L 168.609797 82.276378 
L 168.782119 295.488 
L 168.954441 79.663599 
L 169.126763 295.488 
L 169.299085 70.57844 
L 169.471407 295.488 
L 169.643729 81.455062 
L 169.816051 295.488 
L 169.988373 80.495309 
L 170.160695 295.488 
L 170.333017 73.587269 
L 170.505339 295.488 
L 170.677661 77.907099 
L 170.849983 295.488 
L 171.022305 81.239182 
L 171.194627 295.488 
L 171.366948 79.259426 
L 171.53927 295.488 
L 171.711592 83.230776 
L 171.883914 295.488 
L 172.056236 81.131631 
L 172.228558 295.488 
L 172.40088 71.921972 
L 172.573202 295.488 
L 172.745524 73.87126 
L 172.917846 295.488 
L 173.090168 73.587269 
L 173.26249 295.488 
L 173.434812 70.879037 
L 173.607134 295.488 
L 173.779456 77.962224 
L 173.951778 295.488 
L 174.1241 78.036401 
L 174.296422 295.488 
L 174.468743 70.60194 
L 174.641065 295.488 
L 174.813387 76.863672 
L 174.985709 295.488 
L 175.158031 76.368681 
L 175.330353 295.488 
L 175.502675 76.495116 
L 175.674997 295.488 
L 175.847319 71.006091 
L 176.019641 295.488 
L 176.191963 74.210065 
L 176.364285 295.488 
L 176.536607 75.910932 
L 176.708929 295.488 
L 176.881251 71.826803 
L 177.053573 295.488 
L 177.225895 82.023449 
L 177.398217 295.488 
L 177.570539 79.61382 
L 177.74286 295.488 
L 177.915182 75.736514 
L 178.087504 295.488 
L 178.259826 76.836001 
L 178.432148 295.488 
L 178.60447 82.264631 
L 178.776792 295.488 
L 178.949114 83.923941 
L 179.121436 295.488 
L 179.293758 81.405708 
L 179.46608 295.488 
L 179.638402 73.411925 
L 179.810724 295.488 
L 179.983046 82.174577 
L 180.155368 295.488 
L 180.32769 79.624222 
L 180.500012 295.488 
L 180.672334 80.978273 
L 180.844655 295.488 
L 181.016977 82.614403 
L 181.189299 295.488 
L 181.361621 111.078855 
L 181.533943 295.488 
L 181.706265 84.896594 
L 181.878587 295.488 
L 182.050909 79.637924 
L 182.223231 295.488 
L 182.395553 80.169793 
L 182.567875 295.488 
L 182.740197 84.052109 
L 182.912519 295.488 
L 183.084841 75.523541 
L 183.257163 295.488 
L 183.429485 80.328116 
L 183.601807 295.488 
L 183.774129 81.248328 
L 183.94645 295.488 
L 184.118772 81.013603 
L 184.291094 295.488 
L 184.463416 80.626706 
L 184.635738 295.488 
L 184.80806 79.92448 
L 184.980382 295.488 
L 185.152704 80.396694 
L 185.325026 295.488 
L 185.497348 81.781711 
L 185.66967 295.488 
L 185.841992 120.870326 
L 186.014314 295.488 
L 186.358958 295.488 
L 186.53128 93.873114 
L 186.703602 295.488 
L 186.875924 116.89614 
L 187.048246 295.488 
L 187.220567 87.194161 
L 187.392889 295.488 
L 187.565211 93.952513 
L 187.737533 295.488 
L 187.909855 71.834412 
L 188.082177 295.488 
L 188.254499 79.693623 
L 188.426821 295.488 
L 188.599143 81.999103 
L 188.771465 295.488 
L 188.943787 120.026019 
L 189.116109 295.488 
L 189.288431 80.944824 
L 189.460753 295.488 
L 189.633075 78.59089 
L 189.805397 295.488 
L 189.977719 97.484956 
L 190.150041 295.488 
L 190.322362 74.281855 
L 190.494684 295.488 
L 190.667006 84.423811 
L 190.839328 295.488 
L 191.01165 83.338604 
L 191.183972 295.488 
L 191.356294 80.191107 
L 191.528616 295.488 
L 191.700938 162.127998 
L 191.87326 295.488 
L 192.045582 83.1286 
L 192.217904 295.488 
L 192.390226 66.183602 
L 192.562548 295.488 
L 192.73487 82.322829 
L 192.907192 295.488 
L 193.079514 58.913987 
L 193.251836 295.488 
L 193.424157 68.858324 
L 193.596479 295.488 
L 193.768801 64.652694 
L 193.941123 295.488 
L 194.113445 55.914152 
L 194.285767 295.488 
L 194.458089 66.790451 
L 194.630411 295.488 
L 194.802733 58.973404 
L 194.975055 295.488 
L 195.147377 80.704534 
L 195.319699 295.488 
L 195.492021 68.995938 
L 195.664343 295.488 
L 195.836665 64.129508 
L 196.008987 295.488 
L 196.181309 68.210322 
L 196.353631 295.488 
L 196.525953 84.693804 
L 196.698274 295.488 
L 196.870596 65.642317 
L 197.042918 295.488 
L 197.21524 64.63437 
L 197.387562 295.488 
L 197.559884 62.43245 
L 197.732206 295.488 
L 197.904528 74.528225 
L 198.07685 295.488 
L 198.249172 69.473749 
L 198.421494 295.488 
L 198.593816 67.210303 
L 198.766138 295.488 
L 198.93846 80.506606 
L 199.110782 295.488 
L 199.283104 61.643303 
L 199.455426 295.488 
L 199.627748 61.949014 
L 199.800069 295.488 
L 199.972391 63.017037 
L 200.144713 295.488 
L 200.317035 83.568282 
L 200.489357 295.488 
L 200.661679 62.031439 
L 200.834001 295.488 
L 201.006323 73.107431 
L 201.178645 295.488 
L 201.350967 67.921533 
L 201.523289 295.488 
L 201.695611 86.187568 
L 201.867933 295.488 
L 202.040255 70.207391 
L 202.212577 295.488 
L 202.384899 69.601757 
L 202.557221 295.488 
L 202.729543 80.133857 
L 202.901865 295.488 
L 203.074186 66.765639 
L 203.246508 295.488 
L 203.41883 64.959276 
L 203.591152 295.488 
L 203.763474 66.121177 
L 203.935796 295.488 
L 204.108118 70.965189 
L 204.28044 295.488 
L 204.452762 76.215034 
L 204.625084 295.488 
L 204.797406 64.613544 
L 204.969728 295.488 
L 205.14205 70.786425 
L 205.314372 295.488 
L 205.486694 53.790485 
L 205.659016 295.488 
L 205.831338 60.999871 
L 206.00366 295.488 
L 206.175981 53.568 
L 206.348303 295.488 
L 206.520625 72.449158 
L 206.692947 295.488 
L 206.865269 70.111714 
L 207.037591 295.488 
L 207.209913 61.769294 
L 207.382235 295.488 
L 207.554557 58.843532 
L 207.726879 295.488 
L 207.899201 75.043922 
L 208.071523 295.488 
L 208.243845 61.467727 
L 208.416167 295.488 
L 208.588489 67.833706 
L 208.760811 295.488 
L 208.933133 70.861725 
L 209.105455 295.488 
L 209.277776 73.680542 
L 209.450098 295.488 
L 209.62242 69.22275 
L 209.794742 295.488 
L 209.967064 67.438723 
L 210.139386 295.488 
L 210.311708 67.224917 
L 210.48403 295.488 
L 210.656352 70.64327 
L 210.828674 295.488 
L 211.000996 76.522349 
L 211.173318 295.488 
L 211.34564 68.395427 
L 211.517962 295.488 
L 211.690284 70.330777 
L 211.862606 295.488 
L 212.034928 72.295931 
L 212.20725 295.488 
L 212.379572 72.408531 
L 212.551893 295.488 
L 212.724215 78.656775 
L 212.896537 295.488 
L 213.068859 69.256645 
L 213.241181 295.488 
L 213.413503 73.768934 
L 213.585825 295.488 
L 213.758147 62.625479 
L 213.930469 295.488 
L 214.102791 71.544111 
L 214.275113 295.488 
L 214.447435 67.265757 
L 214.619757 295.488 
L 214.792079 72.777892 
L 214.964401 295.488 
L 215.136723 62.543582 
L 215.309045 295.488 
L 215.481367 85.310362 
L 215.653688 295.488 
L 215.82601 79.461209 
L 215.998332 295.488 
L 216.170654 68.280338 
L 216.342976 295.488 
L 216.515298 77.542834 
L 216.68762 295.488 
L 216.859942 68.073993 
L 217.032264 295.488 
L 217.204586 82.967013 
L 217.376908 295.488 
L 217.54923 72.189128 
L 217.721552 295.488 
L 217.893874 80.48567 
L 218.066196 295.488 
L 218.238518 77.304852 
L 218.41084 295.488 
L 218.583162 79.424593 
L 218.755483 295.488 
L 218.927805 71.409658 
L 219.100127 295.488 
L 219.272449 76.494207 
L 219.444771 295.488 
L 219.617093 72.803881 
L 219.789415 295.488 
L 219.961737 78.494077 
L 220.134059 295.488 
L 220.306381 76.898969 
L 220.478703 295.488 
L 220.651025 75.610995 
L 220.823347 295.488 
L 220.995669 72.857963 
L 221.167991 295.488 
L 221.340313 82.935446 
L 221.512635 295.488 
L 221.684957 76.818951 
L 221.857279 295.488 
L 222.0296 71.415814 
L 222.201922 295.488 
L 222.374244 83.961576 
L 222.546566 295.488 
L 222.718888 68.124395 
L 222.89121 295.488 
L 223.063532 81.787657 
L 223.235854 295.488 
L 223.408176 83.298541 
L 223.580498 295.488 
L 223.75282 71.549505 
L 223.925142 295.488 
L 224.097464 75.76646 
L 224.269786 295.488 
L 224.442108 90.014378 
L 224.61443 295.488 
L 224.786752 79.018605 
L 224.959074 295.488 
L 225.131395 80.498103 
L 225.303717 295.488 
L 225.476039 73.359643 
L 225.648361 295.488 
L 225.820683 76.961646 
L 225.993005 295.488 
L 226.165327 74.150719 
L 226.337649 295.488 
L 226.509971 74.482137 
L 226.682293 295.488 
L 226.854615 73.694965 
L 227.026937 295.488 
L 227.199259 76.569787 
L 227.371581 295.488 
L 227.543903 77.133976 
L 227.716225 295.488 
L 227.888547 63.457141 
L 228.060869 295.488 
L 228.233191 78.026985 
L 228.405512 295.488 
L 228.577834 71.604814 
L 228.750156 295.488 
L 228.922478 76.255237 
L 229.0948 295.488 
L 229.267122 75.850199 
L 229.439444 295.488 
L 229.611766 74.806881 
L 229.784088 295.488 
L 229.95641 74.581662 
L 230.128732 295.488 
L 230.301054 64.424692 
L 230.473376 295.488 
L 230.645698 84.870419 
L 230.81802 295.488 
L 230.990342 73.266536 
L 231.162664 295.488 
L 231.334986 83.385703 
L 231.507307 295.488 
L 231.679629 71.326228 
L 231.851951 295.488 
L 232.024273 72.301302 
L 232.196595 295.488 
L 232.368917 82.47641 
L 232.541239 295.488 
L 232.713561 79.765164 
L 232.885883 295.488 
L 233.058205 79.296046 
L 233.230527 295.488 
L 233.402849 85.629235 
L 233.575171 295.488 
L 233.747493 78.452838 
L 233.919815 295.488 
L 234.092137 80.488828 
L 234.264459 295.488 
L 234.436781 77.821417 
L 234.609102 295.488 
L 234.781424 71.505763 
L 234.953746 295.488 
L 235.126068 82.012651 
L 235.29839 295.488 
L 235.470712 79.765164 
L 235.643034 295.488 
L 235.815356 75.383322 
L 235.987678 295.488 
L 236.16 75.762903 
L 236.332322 295.488 
L 236.504644 71.758644 
L 236.676966 295.488 
L 236.849288 67.028349 
L 237.02161 295.488 
L 237.193932 77.653096 
L 237.366254 295.488 
L 237.538576 75.652968 
L 237.710898 295.488 
L 237.883219 82.47641 
L 238.055541 295.488 
L 238.227863 65.917356 
L 238.400185 295.488 
L 238.572507 76.45204 
L 238.744829 295.488 
L 238.917151 72.283171 
L 239.089473 295.488 
L 239.261795 82.275187 
L 239.434117 295.488 
L 239.606439 79.765164 
L 239.778761 295.488 
L 239.951083 74.358626 
L 240.123405 295.488 
L 240.295727 78.278483 
L 240.468049 295.488 
L 240.640371 79.765168 
L 240.812693 295.488 
L 240.985014 82.012651 
L 241.157336 295.488 
L 241.329658 79.163264 
L 241.50198 295.488 
L 241.674302 71.224102 
L 241.846624 295.488 
L 242.018946 79.765164 
L 242.191268 295.488 
L 242.36359 73.622742 
L 242.535912 295.488 
L 242.708234 79.422601 
L 242.880556 295.488 
L 243.052878 66.787988 
L 243.2252 295.488 
L 243.397522 82.012651 
L 243.569844 295.488 
L 243.742166 79.765164 
L 243.914488 295.488 
L 244.086809 78.819583 
L 244.259131 295.488 
L 244.431453 82.012651 
L 244.603775 295.488 
L 244.776097 75.931252 
L 244.948419 295.488 
L 245.120741 66.804487 
L 245.293063 295.488 
L 245.465385 67.379643 
L 245.637707 295.488 
L 245.810029 77.549382 
L 245.982351 295.488 
L 246.154673 82.831629 
L 246.326995 295.488 
L 246.499317 79.377484 
L 246.671639 295.488 
L 246.843961 77.813449 
L 247.016283 295.488 
L 247.188605 81.300033 
L 247.360926 295.488 
L 247.533248 79.765168 
L 247.70557 295.488 
L 247.877892 88.599335 
L 248.050214 295.488 
L 248.222536 58.918862 
L 248.394858 295.488 
L 248.56718 81.211253 
L 248.739502 295.488 
L 248.911824 79.213442 
L 249.084146 295.488 
L 249.256468 70.775245 
L 249.42879 295.488 
L 249.601112 79.765164 
L 249.773434 295.488 
L 249.945756 79.79453 
L 250.118078 295.488 
L 250.2904 79.765168 
L 250.462721 295.488 
L 250.635043 79.765168 
L 250.807365 295.488 
L 250.979687 76.720825 
L 251.152009 295.488 
L 251.324331 69.695369 
L 251.496653 295.488 
L 251.668975 79.714566 
L 251.841297 295.488 
L 252.013619 80.654774 
L 252.185941 295.488 
L 252.358263 79.618585 
L 252.530585 295.488 
L 252.702907 82.640777 
L 252.875229 295.488 
L 253.047551 55.911876 
L 253.219873 295.488 
L 253.392195 65.846587 
L 253.564517 295.488 
L 253.736838 75.663274 
L 253.90916 295.488 
L 254.081482 71.616485 
L 254.253804 295.488 
L 254.426126 79.812679 
L 254.598448 295.488 
L 254.77077 82.023697 
L 254.943092 295.488 
L 255.115414 62.253383 
L 255.287736 295.488 
L 255.460058 68.257802 
L 255.63238 295.488 
L 255.804702 80.610793 
L 255.977024 295.488 
L 256.149346 74.537488 
L 256.321668 295.488 
L 256.49399 78.907208 
L 256.666312 295.488 
L 256.838633 73.377173 
L 257.010955 295.488 
L 257.183277 78.849876 
L 257.355599 295.488 
L 257.527921 78.807631 
L 257.700243 295.488 
L 257.872565 75.550682 
L 258.044887 295.488 
L 258.217209 76.225501 
L 258.389531 295.488 
L 258.561853 78.807628 
L 258.734175 295.488 
L 258.906497 61.935982 
L 259.078819 295.488 
L 259.251141 65.681687 
L 259.423463 295.488 
L 259.595785 65.331749 
L 259.768107 295.488 
L 259.940428 87.289583 
L 260.11275 295.488 
L 260.285072 78.907208 
L 260.457394 295.488 
L 260.629716 81.606475 
L 260.802038 295.488 
L 260.97436 79.62149 
L 261.146682 295.488 
L 261.319004 76.136738 
L 261.491326 295.488 
L 261.663648 76.691422 
L 261.83597 295.488 
L 262.008292 72.118803 
L 262.180614 87.781953 
L 262.352936 295.488 
L 262.525258 69.687352 
L 262.69758 295.488 
L 262.869902 84.304028 
L 263.042224 295.488 
L 263.214545 71.08375 
L 263.386867 94.07198 
L 263.559189 295.488 
L 263.731511 79.49874 
L 263.903833 295.488 
L 264.076155 83.692824 
L 264.248477 295.488 
L 264.420799 75.179339 
L 264.593121 295.488 
L 264.765443 87.960688 
L 264.937765 295.488 
L 265.110087 80.26675 
L 265.282409 295.488 
L 265.454731 89.164882 
L 265.627053 295.488 
L 265.799375 88.0314 
L 265.971697 295.488 
L 266.144019 90.796173 
L 266.31634 295.488 
L 266.488662 88.716936 
L 266.660984 295.488 
L 266.833306 60.917692 
L 267.005628 295.488 
L 267.17795 221.997899 
L 267.350272 295.488 
L 267.522594 92.070041 
L 267.694916 295.488 
L 267.867238 70.437471 
L 268.03956 295.488 
L 268.211882 80.164791 
L 268.384204 295.488 
L 268.556526 87.63589 
L 268.728848 295.488 
L 268.90117 86.551538 
L 269.073492 295.488 
L 269.245814 80.938478 
L 269.418135 295.488 
L 269.590457 88.337626 
L 269.762779 295.488 
L 269.935101 122.191402 
L 270.107423 295.488 
L 270.279745 78.465004 
L 270.452067 295.488 
L 270.624389 59.442307 
L 270.796711 84.370687 
L 270.969033 295.488 
L 271.141355 84.563599 
L 271.313677 295.488 
L 271.485999 59.452688 
L 271.658321 295.488 
L 271.830643 75.662458 
L 272.002965 295.488 
L 272.175287 75.120023 
L 272.347609 295.488 
L 272.519931 82.688129 
L 272.692252 295.488 
L 272.864574 61.059751 
L 273.036896 295.488 
L 273.209218 82.590607 
L 273.38154 78.494929 
L 273.553862 295.488 
L 273.726184 83.791952 
L 273.898506 295.488 
L 274.070828 79.556839 
L 274.24315 64.072572 
L 274.415472 295.488 
L 274.587794 63.196733 
L 274.760116 295.488 
L 274.932438 82.788216 
L 275.10476 295.488 
L 275.277082 76.534026 
L 275.449404 295.488 
L 275.621726 77.759478 
L 275.794047 295.488 
L 275.966369 76.159358 
L 276.138691 295.488 
L 276.311013 80.460348 
L 276.483335 295.488 
L 276.655657 74.730248 
L 276.827979 295.488 
L 277.000301 81.505749 
L 277.172623 295.488 
L 277.344945 72.435416 
L 277.517267 295.488 
L 277.689589 82.505665 
L 277.861911 295.488 
L 278.034233 64.78529 
L 278.206555 295.488 
L 278.378877 77.493469 
L 278.551199 295.488 
L 278.723521 82.505665 
L 278.895843 295.488 
L 279.068164 82.939187 
L 279.240486 295.488 
L 279.412808 66.39504 
L 279.58513 295.488 
L 279.757452 70.303139 
L 279.929774 295.488 
L 280.102096 66.158625 
L 280.274418 295.488 
L 280.44674 79.109446 
L 280.619062 295.488 
L 280.791384 74.167427 
L 280.963706 295.488 
L 281.136028 76.058768 
L 281.30835 295.488 
L 281.480672 62.529665 
L 281.652994 295.488 
L 281.825316 66.007618 
L 281.997638 295.488 
L 282.169959 75.094994 
L 282.342281 295.488 
L 282.514603 90.872154 
L 282.686925 295.488 
L 282.859247 57.185806 
L 283.031569 295.488 
L 283.203891 60.518973 
L 283.376213 295.488 
L 283.548535 75.122792 
L 283.720857 295.488 
L 283.893179 60.450518 
L 284.065501 295.488 
L 284.237823 71.89108 
L 284.410145 295.488 
L 284.582467 82.924975 
L 284.754789 295.488 
L 284.927111 76.277329 
L 285.099433 295.488 
L 285.271754 66.899826 
L 285.444076 295.488 
L 285.616398 68.506936 
L 285.78872 295.488 
L 285.961042 59.804974 
L 286.133364 295.488 
L 286.305686 70.303139 
L 286.478008 295.488 
L 286.65033 79.925218 
L 286.822652 295.488 
L 286.994974 67.545179 
L 287.167296 295.488 
L 287.339618 63.830181 
L 287.51194 295.488 
L 287.684262 75.745605 
L 287.856584 295.488 
L 288.028906 74.081748 
L 288.201228 295.488 
L 288.37355 74.838041 
L 288.545871 295.488 
L 288.718193 79.240492 
L 288.890515 295.488 
L 289.062837 73.795459 
L 289.235159 295.488 
L 289.407481 77.142512 
L 289.579803 295.488 
L 289.752125 66.136079 
L 289.924447 295.488 
L 290.096769 75.009194 
L 290.269091 295.488 
L 290.441413 81.346669 
L 290.613735 295.488 
L 290.786057 75.425029 
L 290.958379 295.488 
L 291.130701 68.041648 
L 291.303023 295.488 
L 291.475345 82.905974 
L 291.647666 295.488 
L 291.819988 75.425029 
L 291.99231 295.488 
L 292.164632 78.103381 
L 292.336954 295.488 
L 292.509276 75.122792 
L 292.681598 295.488 
L 292.85392 75.745605 
L 293.026242 295.488 
L 293.198564 75.122792 
L 293.370886 295.488 
L 293.543208 74.167427 
L 293.71553 295.488 
L 293.887852 78.103381 
L 294.060174 295.488 
L 294.232496 74.838041 
L 294.404818 295.488 
L 294.57714 75.745605 
L 294.749461 295.488 
L 294.921783 75.425029 
L 295.094105 295.488 
L 295.266427 82.887295 
L 295.438749 295.488 
L 295.611071 68.605555 
L 295.783393 295.488 
L 295.955715 74.318117 
L 296.128037 295.488 
L 296.300359 75.425029 
L 296.472681 295.488 
L 296.645003 70.511622 
L 296.817325 295.488 
L 296.989647 80.83157 
L 297.161969 295.488 
L 297.334291 75.616483 
L 297.506613 295.488 
L 297.678935 80.630108 
L 297.851257 295.488 
L 298.023578 76.336644 
L 298.1959 295.488 
L 298.368222 80.83157 
L 298.540544 295.488 
L 298.712866 82.939187 
L 298.885188 295.488 
L 299.05751 79.62149 
L 299.229832 295.488 
L 299.402154 80.692227 
L 299.574476 295.488 
L 299.746798 74.57739 
L 299.91912 295.488 
L 300.091442 74.57739 
L 300.263764 295.488 
L 300.436086 79.93518 
L 300.608408 295.488 
L 300.78073 79.93518 
L 300.953052 295.488 
L 301.125373 68.096074 
L 301.297695 295.488 
L 301.470017 78.779395 
L 301.642339 295.488 
L 301.814661 88.403168 
L 301.986983 295.488 
L 302.159305 70.511622 
L 302.331627 295.488 
L 302.503949 78.66141 
L 302.676271 295.488 
L 302.848593 95.517687 
L 303.020915 295.488 
L 303.193237 73.606263 
L 303.365559 295.488 
L 303.537881 91.572755 
L 303.710203 295.488 
L 303.882525 94.081624 
L 304.054847 295.488 
L 304.227169 94.081624 
L 304.39949 295.488 
L 304.571812 103.999325 
L 304.744134 295.488 
L 304.916456 100.813276 
L 305.088778 295.488 
L 305.2611 93.021077 
L 305.433422 295.488 
L 305.605744 92.47749 
L 305.778066 295.488 
L 305.950388 74.57739 
L 306.12271 295.488 
L 306.295032 97.542854 
L 306.467354 295.488 
L 306.639676 94.081624 
L 306.811998 295.488 
L 306.98432 98.690046 
L 307.156642 295.488 
L 307.328964 75.895881 
L 307.501285 295.488 
L 307.673607 94.081624 
L 307.845929 295.488 
L 308.018251 92.741203 
L 308.190573 295.488 
L 308.362895 93.108631 
L 308.535217 295.488 
L 308.707539 74.263324 
L 308.879861 295.488 
L 309.052183 59.133257 
L 309.224505 295.488 
L 309.396827 76.099186 
L 309.569149 295.488 
L 309.741471 84.267291 
L 309.913793 295.488 
L 310.086115 83.396274 
L 310.258437 295.488 
L 310.430759 92.542814 
L 310.60308 295.488 
L 310.775402 74.626627 
L 310.947724 295.488 
L 311.120046 75.085061 
L 311.292368 295.488 
L 311.46469 85.424416 
L 311.637012 295.488 
L 311.809334 67.105129 
L 311.981656 295.488 
L 312.153978 83.172638 
L 312.3263 295.488 
L 312.498622 85.424416 
L 312.670944 295.488 
L 312.843266 55.602208 
L 313.015588 295.488 
L 313.18791 74.354112 
L 313.360232 295.488 
L 313.532554 171.082306 
L 313.704876 295.488 
L 313.877197 85.452466 
L 314.049519 295.488 
L 314.221841 85.452466 
L 314.394163 295.488 
L 314.566485 85.424416 
L 314.738807 295.488 
L 314.911129 85.424416 
L 315.083451 295.488 
L 315.255773 85.424416 
L 315.428095 295.488 
L 315.600417 85.424416 
L 315.772739 295.488 
L 315.945061 85.424416 
L 316.117383 295.488 
L 316.289705 85.424416 
L 316.462027 295.488 
L 316.634349 56.897161 
L 316.806671 295.488 
L 316.978992 85.424416 
L 317.151314 295.488 
L 317.323636 85.424416 
L 317.495958 295.488 
L 317.66828 85.424416 
L 317.840602 295.488 
L 318.012924 85.424416 
L 318.185246 295.488 
L 318.357568 65.362379 
L 318.52989 295.488 
L 318.702212 63.28361 
L 318.874534 295.488 
L 319.046856 77.581814 
L 319.219178 295.488 
L 319.3915 56.913001 
L 319.563822 295.488 
L 319.736144 55.810003 
L 319.908466 295.488 
L 320.080787 59.783309 
L 320.253109 295.488 
L 320.425431 60.439405 
L 320.597753 295.488 
L 320.770075 64.285428 
L 320.942397 295.488 
L 321.114719 62.532138 
L 321.287041 295.488 
L 321.459363 68.364243 
L 321.631685 295.488 
L 321.804007 63.490506 
L 321.976329 295.488 
L 322.148651 64.374483 
L 322.320973 295.488 
L 322.493295 68.603749 
L 322.665617 295.488 
L 322.837939 60.465549 
L 323.010261 295.488 
L 323.182583 68.933629 
L 323.354904 295.488 
L 323.527226 66.420518 
L 323.699548 295.488 
L 323.87187 74.888052 
L 324.044192 295.488 
L 324.216514 63.048548 
L 324.388836 295.488 
L 324.561158 77.828454 
L 324.73348 295.488 
L 324.905802 82.571093 
L 325.078124 295.488 
L 325.250446 81.319801 
L 325.422768 295.488 
L 325.59509 99.318568 
L 325.767412 62.001166 
L 325.939734 295.488 
L 326.112056 74.088448 
L 326.284378 295.488 
L 326.456699 74.675452 
L 326.629021 295.488 
L 326.801343 67.759813 
L 326.973665 295.488 
L 327.145987 86.335453 
L 327.318309 295.488 
L 327.490631 69.162919 
L 327.662953 89.724738 
L 327.835275 295.488 
L 328.007597 76.487141 
L 328.179919 295.488 
L 328.352241 99.032219 
L 328.524563 295.488 
L 328.696885 72.204284 
L 328.869207 295.488 
L 329.041529 76.608941 
L 329.213851 295.488 
L 329.386173 91.670876 
L 329.558494 295.488 
L 329.730816 64.394874 
L 329.903138 295.488 
L 330.07546 60.63203 
L 330.247782 295.488 
L 330.420104 94.304921 
L 330.592426 295.488 
L 330.764748 73.504828 
L 330.93707 295.488 
L 331.109392 73.935416 
L 331.281714 295.488 
L 331.454036 64.38855 
L 331.626358 295.488 
L 331.79868 85.710196 
L 331.971002 295.488 
L 332.143324 71.94299 
L 332.315646 295.488 
L 332.487968 90.89895 
L 332.66029 295.488 
L 332.832611 100.366864 
L 333.004933 79.579588 
L 333.177255 295.488 
L 333.349577 87.242047 
L 333.521899 295.488 
L 333.694221 77.037746 
L 333.866543 295.488 
L 334.038865 62.679654 
L 334.211187 295.488 
L 334.383509 75.066148 
L 334.555831 295.488 
L 334.728153 76.54907 
L 334.900475 295.488 
L 335.072797 88.442579 
L 335.245119 295.488 
L 335.417441 96.287446 
L 335.589763 295.488 
L 335.762085 80.4454 
L 336.106728 69.241329 
L 336.27905 295.488 
L 336.451372 81.562526 
L 336.623694 77.586581 
L 336.796016 135.722563 
L 336.968338 295.488 
L 337.14066 72.522328 
L 337.312982 295.488 
L 337.485304 81.657113 
L 337.657626 295.488 
L 337.829948 62.894126 
L 338.00227 295.488 
L 338.174592 82.747433 
L 338.346914 79.238488 
L 338.519236 295.488 
L 338.691558 77.946832 
L 338.86388 295.488 
L 339.036202 65.266381 
L 339.208523 295.488 
L 339.380845 77.847831 
L 339.553167 295.488 
L 339.725489 78.928362 
L 339.897811 295.488 
L 340.070133 77.474313 
L 340.242455 295.488 
L 340.414777 75.077914 
L 340.587099 295.488 
L 340.759421 81.250018 
L 340.931743 75.275068 
L 341.104065 74.131566 
L 341.276387 295.488 
L 341.448709 81.274105 
L 341.621031 295.488 
L 341.793353 79.63743 
L 341.965675 295.488 
L 342.137997 83.825058 
L 342.310318 80.343947 
L 342.48264 295.488 
L 342.654962 75.215912 
L 342.827284 295.488 
L 342.999606 76.856532 
L 343.171928 295.488 
L 343.34425 75.374796 
L 343.516572 72.954462 
L 343.688894 295.488 
L 343.861216 79.773879 
L 344.033538 295.488 
L 344.20586 77.746912 
L 344.378182 295.488 
L 344.550504 82.656668 
L 344.722826 76.836894 
L 344.895148 295.488 
L 345.06747 81.943726 
L 345.239792 81.993068 
L 345.412113 295.488 
L 345.584435 100.118906 
L 345.756757 295.488 
L 345.929079 78.922089 
L 346.101401 295.488 
L 346.273723 78.899275 
L 346.446045 295.488 
L 346.618367 80.015193 
L 346.790689 295.488 
L 346.963011 84.276766 
L 347.135333 86.557206 
L 347.307655 295.488 
L 347.479977 82.100966 
L 347.652299 295.488 
L 347.824621 55.767828 
L 347.996943 295.488 
L 348.169265 86.524657 
L 348.341587 295.488 
L 348.513909 82.485005 
L 348.68623 56.819309 
L 348.858552 295.488 
L 349.030874 84.667395 
L 349.203196 73.730488 
L 349.54784 70.262187 
L 349.720162 88.017823 
L 349.892484 82.481436 
L 350.064806 295.488 
L 350.237128 70.22428 
L 350.40945 81.549577 
L 350.581772 295.488 
L 350.754094 89.654445 
L 350.926416 82.568963 
L 351.098738 295.488 
L 351.27106 93.222618 
L 351.443382 74.457858 
L 351.615704 295.488 
L 351.788025 78.479316 
L 351.960347 66.502859 
L 352.132669 83.825058 
L 352.304991 81.111444 
L 352.477313 66.758018 
L 352.649635 88.152809 
L 352.821957 295.488 
L 352.994279 60.912345 
L 353.166601 85.098813 
L 353.338923 295.488 
L 353.511245 79.538726 
L 353.683567 56.382806 
L 353.855889 295.488 
L 354.028211 61.030781 
L 354.200533 295.488 
L 354.372855 75.790461 
L 354.545177 295.488 
L 354.717499 83.679002 
L 354.88982 295.488 
L 355.062142 70.211699 
L 355.234464 68.980889 
L 355.406786 79.247246 
L 355.579108 295.488 
L 355.75143 71.573874 
L 355.923752 67.096195 
L 356.096074 85.59429 
L 356.268396 81.374492 
L 356.440718 80.987014 
L 356.61304 79.557228 
L 356.785362 70.233943 
L 356.957684 295.488 
L 357.130006 64.334332 
L 357.302328 295.488 
L 357.47465 61.650368 
L 357.646972 295.488 
L 357.819294 74.297264 
L 357.991616 75.26589 
L 358.163937 59.877531 
L 358.336259 295.488 
L 358.508581 74.340629 
L 358.680903 75.401659 
L 358.853225 80.162198 
L 359.025547 295.488 
L 359.197869 68.292242 
L 359.370191 295.488 
L 359.542513 78.957305 
L 359.714835 295.488 
L 359.887157 79.359308 
L 360.059479 295.488 
L 360.231801 76.106735 
L 360.404123 61.009194 
L 360.576445 295.488 
L 360.748767 59.893782 
L 360.921089 295.488 
L 361.093411 78.224322 
L 361.265732 295.488 
L 361.438054 71.476219 
L 361.610376 74.506796 
L 361.782698 295.488 
L 361.95502 74.506796 
L 362.127342 295.488 
L 362.299664 78.654052 
L 362.471986 80.024153 
L 362.644308 72.516143 
L 362.81663 295.488 
L 362.988952 59.320377 
L 363.161274 295.488 
L 363.333596 75.943241 
L 363.505918 295.488 
L 363.67824 70.54343 
L 363.850562 77.285374 
L 364.022884 88.774679 
L 364.195206 295.488 
L 364.367528 87.565064 
L 364.539849 295.488 
L 364.712171 72.111096 
L 364.884493 295.488 
L 365.056815 57.663396 
L 365.229137 295.488 
L 365.401459 72.111096 
L 365.573781 295.488 
L 365.746103 67.088536 
L 365.918425 295.488 
L 366.090747 66.410268 
L 366.263069 295.488 
L 366.435391 71.736226 
L 366.607713 295.488 
L 366.780035 76.692401 
L 366.952357 60.114477 
L 367.124679 295.488 
L 367.297001 71.179463 
L 367.469323 71.736226 
L 367.641644 295.488 
L 367.813966 71.736226 
L 367.986288 295.488 
L 368.15861 62.14836 
L 368.330932 61.811485 
L 368.503254 59.592627 
L 368.675576 295.488 
L 368.847898 71.736226 
L 369.02022 295.488 
L 369.192542 71.736226 
L 369.364864 295.488 
L 369.537186 59.637441 
L 369.709508 295.488 
L 369.88183 63.420131 
L 370.054152 295.488 
L 370.226474 59.520435 
L 370.398796 295.488 
L 370.571118 71.066728 
L 370.743439 295.488 
L 370.915761 72.425809 
L 371.088083 295.488 
L 371.260405 68.260009 
L 371.432727 295.488 
L 371.605049 58.218039 
L 371.777371 295.488 
L 371.949693 74.043581 
L 372.122015 67.90261 
L 372.294337 295.488 
L 372.466659 75.82501 
L 372.638981 295.488 
L 372.811303 71.736226 
L 372.983625 295.488 
L 373.155947 71.522838 
L 373.328269 295.488 
L 373.500591 58.225658 
L 373.672913 295.488 
L 373.845235 71.205838 
L 374.017556 69.986114 
L 374.3622 76.645131 
L 374.534522 86.789948 
L 374.706844 76.304283 
L 374.879166 295.488 
L 375.051488 74.935144 
L 375.22381 58.07947 
L 375.396132 295.488 
L 375.568454 65.178576 
L 375.740776 68.327465 
L 375.913098 81.180409 
L 376.08542 63.294586 
L 376.257742 295.488 
L 376.430064 77.828371 
L 376.602386 295.488 
L 376.774708 66.087911 
L 377.119351 60.282453 
L 377.291673 295.488 
L 377.463995 63.166692 
L 377.636317 66.994861 
L 377.808639 74.413912 
L 377.980961 295.488 
L 378.153283 64.532707 
L 378.325605 63.848528 
L 378.497927 64.750402 
L 378.842571 71.655343 
L 379.014893 66.021426 
L 379.187215 295.488 
L 379.359537 61.485889 
L 379.531859 63.339974 
L 379.704181 295.488 
L 379.876503 77.056125 
L 380.048825 82.305086 
L 380.221146 295.488 
L 380.393468 67.742597 
L 380.56579 66.299273 
L 380.738112 295.488 
L 380.910434 70.96649 
L 381.082756 68.665102 
L 381.255078 295.488 
L 381.4274 67.618548 
L 381.599722 70.154978 
L 381.772044 70.467574 
L 381.944366 69.555883 
L 382.116688 84.196487 
L 382.28901 295.488 
L 382.461332 66.703531 
L 382.633654 72.167111 
L 382.805976 68.619392 
L 382.978298 82.978569 
L 383.15062 295.488 
L 383.322942 64.679361 
L 383.495263 80.380191 
L 383.667585 81.158766 
L 383.839907 295.488 
L 384.012229 82.151593 
L 384.184551 295.488 
L 384.356873 82.448736 
L 384.529195 295.488 
L 384.701517 79.456446 
L 384.873839 84.131791 
L 385.046161 295.488 
L 385.218483 79.099053 
L 385.390805 295.488 
L 385.563127 74.688029 
L 385.735449 295.488 
L 385.907771 87.218581 
L 386.080093 74.580122 
L 386.252415 80.729776 
L 386.424737 295.488 
L 386.597058 83.885205 
L 386.76938 92.901897 
L 386.941702 60.550597 
L 387.114024 295.488 
L 387.286346 72.293992 
L 387.458668 80.042043 
L 387.63099 73.41532 
L 387.803312 295.488 
L 387.975634 121.571844 
L 388.320278 57.077455 
L 388.4926 295.488 
L 388.664922 70.147361 
L 388.837244 295.488 
L 389.009566 72.55184 
L 389.181888 295.488 
L 389.35421 72.179215 
L 389.526532 82.621252 
L 389.698854 78.94281 
L 389.871175 67.938797 
L 390.043497 295.488 
L 390.215819 71.431949 
L 390.388141 295.488 
L 390.560463 69.669117 
L 390.732785 64.938736 
L 390.905107 63.996916 
L 391.077429 295.488 
L 391.249751 74.505878 
L 391.422073 66.941078 
L 391.594395 295.488 
L 391.766717 67.24169 
L 392.111361 71.179493 
L 392.283683 295.488 
L 392.456005 73.46741 
L 392.628327 295.488 
L 392.800649 78.823213 
L 392.97297 65.012602 
L 393.145292 69.917229 
L 393.317614 78.545634 
L 393.489936 295.488 
L 393.662258 65.156694 
L 393.83458 295.488 
L 394.006902 69.43418 
L 394.179224 295.488 
L 394.351546 77.440722 
L 394.523868 295.488 
L 394.69619 85.983009 
L 394.868512 70.356461 
L 395.040834 109.655771 
L 395.213156 295.488 
L 395.385478 69.290501 
L 395.5578 295.488 
L 395.730122 79.007803 
L 395.902444 295.488 
L 396.074765 67.283278 
L 396.247087 295.488 
L 396.419409 69.5673 
L 396.591731 295.488 
L 396.764053 67.375825 
L 396.936375 295.488 
L 397.108697 70.668447 
L 397.281019 85.08278 
L 397.453341 66.211604 
L 397.625663 295.488 
L 397.797985 66.858393 
L 397.970307 295.488 
L 398.142629 71.488945 
L 398.314951 295.488 
L 398.487273 70.847661 
L 398.487273 70.847661 
" clip-path="url(#p7901ecab8b)" style="fill: none; stroke: #1f77b4; stroke-width: 1.5; stroke-linecap: square"/>
   </g>
   <g id="patch_3">
    <path d="M 57.6 307.584 
L 57.6 41.472 
" style="fill: none; stroke: #000000; stroke-width: 0.8; stroke-linejoin: miter; stroke-linecap: square"/>
   </g>
   <g id="patch_4">
    <path d="M 414.72 307.584 
L 414.72 41.472 
" style="fill: none; stroke: #000000; stroke-width: 0.8; stroke-linejoin: miter; stroke-linecap: square"/>
   </g>
   <g id="patch_5">
    <path d="M 57.6 307.584 
L 414.72 307.584 
" style="fill: none; stroke: #000000; stroke-width: 0.8; stroke-linejoin: miter; stroke-linecap: square"/>
   </g>
   <g id="patch_6">
    <path d="M 57.6 41.472 
L 414.72 41.472 
" style="fill: none; stroke: #000000; stroke-width: 0.8; stroke-linejoin: miter; stroke-linecap: square"/>
   </g>
  </g>
 </g>
 <defs>
  <clipPath id="p7901ecab8b">
   <rect x="57.6" y="41.472" width="357.12" height="266.112"/>
  </clipPath>
 </defs>
</svg>
