<?xml version="1.0" encoding="utf-8" standalone="no"?>
<!DOCTYPE svg PUBLIC "-//W3C//DTD SVG 1.1//EN"
  "http://www.w3.org/Graphics/SVG/1.1/DTD/svg11.dtd">
<svg xmlns:xlink="http://www.w3.org/1999/xlink" width="460.8pt" height="345.6pt" viewBox="0 0 460.8 345.6" xmlns="http://www.w3.org/2000/svg" version="1.1">
 <metadata>
  <rdf:RDF xmlns:dc="http://purl.org/dc/elements/1.1/" xmlns:cc="http://creativecommons.org/ns#" xmlns:rdf="http://www.w3.org/1999/02/22-rdf-syntax-ns#">
   <cc:Work>
    <dc:type rdf:resource="http://purl.org/dc/dcmitype/StillImage"/>
    <dc:date>2024-04-24T23:41:59.124628</dc:date>
    <dc:format>image/svg+xml</dc:format>
    <dc:creator>
     <cc:Agent>
      <dc:title>Matplotlib v3.7.2, https://matplotlib.org/</dc:title>
     </cc:Agent>
    </dc:creator>
   </cc:Work>
  </rdf:RDF>
 </metadata>
 <defs>
  <style type="text/css">*{stroke-linejoin: round; stroke-linecap: butt}</style>
 </defs>
 <g id="figure_1">
  <g id="patch_1">
   <path d="M 0 345.6 
L 460.8 345.6 
L 460.8 0 
L 0 0 
z
" style="fill: #ffffff"/>
  </g>
  <g id="axes_1">
   <g id="patch_2">
    <path d="M 57.6 307.584 
L 414.72 307.584 
L 414.72 41.472 
L 57.6 41.472 
z
" style="fill: #ffffff"/>
   </g>
   <g id="matplotlib.axis_1">
    <g id="xtick_1">
     <g id="line2d_1">
      <defs>
       <path id="mbdbc6c152a" d="M 0 0 
L 0 3.5 
" style="stroke: #000000; stroke-width: 0.8"/>
      </defs>
      <g>
       <use xlink:href="#mbdbc6c152a" x="73.832727" y="307.584" style="stroke: #000000; stroke-width: 0.8"/>
      </g>
     </g>
     <g id="text_1">
      <!-- 0 -->
      <g transform="translate(70.651477 322.182437) scale(0.1 -0.1)">
       <defs>
        <path id="DejaVuSans-30" d="M 2034 4250 
Q 1547 4250 1301 3770 
Q 1056 3291 1056 2328 
Q 1056 1369 1301 889 
Q 1547 409 2034 409 
Q 2525 409 2770 889 
Q 3016 1369 3016 2328 
Q 3016 3291 2770 3770 
Q 2525 4250 2034 4250 
z
M 2034 4750 
Q 2819 4750 3233 4129 
Q 3647 3509 3647 2328 
Q 3647 1150 3233 529 
Q 2819 -91 2034 -91 
Q 1250 -91 836 529 
Q 422 1150 422 2328 
Q 422 3509 836 4129 
Q 1250 4750 2034 4750 
z
" transform="scale(0.015625)"/>
       </defs>
       <use xlink:href="#DejaVuSans-30"/>
      </g>
     </g>
    </g>
    <g id="xtick_2">
     <g id="line2d_2">
      <g>
       <use xlink:href="#mbdbc6c152a" x="114.434847" y="307.584" style="stroke: #000000; stroke-width: 0.8"/>
      </g>
     </g>
     <g id="text_2">
      <!-- 250 -->
      <g transform="translate(104.891097 322.182437) scale(0.1 -0.1)">
       <defs>
        <path id="DejaVuSans-32" d="M 1228 531 
L 3431 531 
L 3431 0 
L 469 0 
L 469 531 
Q 828 903 1448 1529 
Q 2069 2156 2228 2338 
Q 2531 2678 2651 2914 
Q 2772 3150 2772 3378 
Q 2772 3750 2511 3984 
Q 2250 4219 1831 4219 
Q 1534 4219 1204 4116 
Q 875 4013 500 3803 
L 500 4441 
Q 881 4594 1212 4672 
Q 1544 4750 1819 4750 
Q 2544 4750 2975 4387 
Q 3406 4025 3406 3419 
Q 3406 3131 3298 2873 
Q 3191 2616 2906 2266 
Q 2828 2175 2409 1742 
Q 1991 1309 1228 531 
z
" transform="scale(0.015625)"/>
        <path id="DejaVuSans-35" d="M 691 4666 
L 3169 4666 
L 3169 4134 
L 1269 4134 
L 1269 2991 
Q 1406 3038 1543 3061 
Q 1681 3084 1819 3084 
Q 2600 3084 3056 2656 
Q 3513 2228 3513 1497 
Q 3513 744 3044 326 
Q 2575 -91 1722 -91 
Q 1428 -91 1123 -41 
Q 819 9 494 109 
L 494 744 
Q 775 591 1075 516 
Q 1375 441 1709 441 
Q 2250 441 2565 725 
Q 2881 1009 2881 1497 
Q 2881 1984 2565 2268 
Q 2250 2553 1709 2553 
Q 1456 2553 1204 2497 
Q 953 2441 691 2322 
L 691 4666 
z
" transform="scale(0.015625)"/>
       </defs>
       <use xlink:href="#DejaVuSans-32"/>
       <use xlink:href="#DejaVuSans-35" x="63.623047"/>
       <use xlink:href="#DejaVuSans-30" x="127.246094"/>
      </g>
     </g>
    </g>
    <g id="xtick_3">
     <g id="line2d_3">
      <g>
       <use xlink:href="#mbdbc6c152a" x="155.036966" y="307.584" style="stroke: #000000; stroke-width: 0.8"/>
      </g>
     </g>
     <g id="text_3">
      <!-- 500 -->
      <g transform="translate(145.493216 322.182437) scale(0.1 -0.1)">
       <use xlink:href="#DejaVuSans-35"/>
       <use xlink:href="#DejaVuSans-30" x="63.623047"/>
       <use xlink:href="#DejaVuSans-30" x="127.246094"/>
      </g>
     </g>
    </g>
    <g id="xtick_4">
     <g id="line2d_4">
      <g>
       <use xlink:href="#mbdbc6c152a" x="195.639085" y="307.584" style="stroke: #000000; stroke-width: 0.8"/>
      </g>
     </g>
     <g id="text_4">
      <!-- 750 -->
      <g transform="translate(186.095335 322.182437) scale(0.1 -0.1)">
       <defs>
        <path id="DejaVuSans-37" d="M 525 4666 
L 3525 4666 
L 3525 4397 
L 1831 0 
L 1172 0 
L 2766 4134 
L 525 4134 
L 525 4666 
z
" transform="scale(0.015625)"/>
       </defs>
       <use xlink:href="#DejaVuSans-37"/>
       <use xlink:href="#DejaVuSans-35" x="63.623047"/>
       <use xlink:href="#DejaVuSans-30" x="127.246094"/>
      </g>
     </g>
    </g>
    <g id="xtick_5">
     <g id="line2d_5">
      <g>
       <use xlink:href="#mbdbc6c152a" x="236.241204" y="307.584" style="stroke: #000000; stroke-width: 0.8"/>
      </g>
     </g>
     <g id="text_5">
      <!-- 1000 -->
      <g transform="translate(223.516204 322.182437) scale(0.1 -0.1)">
       <defs>
        <path id="DejaVuSans-31" d="M 794 531 
L 1825 531 
L 1825 4091 
L 703 3866 
L 703 4441 
L 1819 4666 
L 2450 4666 
L 2450 531 
L 3481 531 
L 3481 0 
L 794 0 
L 794 531 
z
" transform="scale(0.015625)"/>
       </defs>
       <use xlink:href="#DejaVuSans-31"/>
       <use xlink:href="#DejaVuSans-30" x="63.623047"/>
       <use xlink:href="#DejaVuSans-30" x="127.246094"/>
       <use xlink:href="#DejaVuSans-30" x="190.869141"/>
      </g>
     </g>
    </g>
    <g id="xtick_6">
     <g id="line2d_6">
      <g>
       <use xlink:href="#mbdbc6c152a" x="276.843323" y="307.584" style="stroke: #000000; stroke-width: 0.8"/>
      </g>
     </g>
     <g id="text_6">
      <!-- 1250 -->
      <g transform="translate(264.118323 322.182437) scale(0.1 -0.1)">
       <use xlink:href="#DejaVuSans-31"/>
       <use xlink:href="#DejaVuSans-32" x="63.623047"/>
       <use xlink:href="#DejaVuSans-35" x="127.246094"/>
       <use xlink:href="#DejaVuSans-30" x="190.869141"/>
      </g>
     </g>
    </g>
    <g id="xtick_7">
     <g id="line2d_7">
      <g>
       <use xlink:href="#mbdbc6c152a" x="317.445443" y="307.584" style="stroke: #000000; stroke-width: 0.8"/>
      </g>
     </g>
     <g id="text_7">
      <!-- 1500 -->
      <g transform="translate(304.720443 322.182437) scale(0.1 -0.1)">
       <use xlink:href="#DejaVuSans-31"/>
       <use xlink:href="#DejaVuSans-35" x="63.623047"/>
       <use xlink:href="#DejaVuSans-30" x="127.246094"/>
       <use xlink:href="#DejaVuSans-30" x="190.869141"/>
      </g>
     </g>
    </g>
    <g id="xtick_8">
     <g id="line2d_8">
      <g>
       <use xlink:href="#mbdbc6c152a" x="358.047562" y="307.584" style="stroke: #000000; stroke-width: 0.8"/>
      </g>
     </g>
     <g id="text_8">
      <!-- 1750 -->
      <g transform="translate(345.322562 322.182437) scale(0.1 -0.1)">
       <use xlink:href="#DejaVuSans-31"/>
       <use xlink:href="#DejaVuSans-37" x="63.623047"/>
       <use xlink:href="#DejaVuSans-35" x="127.246094"/>
       <use xlink:href="#DejaVuSans-30" x="190.869141"/>
      </g>
     </g>
    </g>
    <g id="xtick_9">
     <g id="line2d_9">
      <g>
       <use xlink:href="#mbdbc6c152a" x="398.649681" y="307.584" style="stroke: #000000; stroke-width: 0.8"/>
      </g>
     </g>
     <g id="text_9">
      <!-- 2000 -->
      <g transform="translate(385.924681 322.182437) scale(0.1 -0.1)">
       <use xlink:href="#DejaVuSans-32"/>
       <use xlink:href="#DejaVuSans-30" x="63.623047"/>
       <use xlink:href="#DejaVuSans-30" x="127.246094"/>
       <use xlink:href="#DejaVuSans-30" x="190.869141"/>
      </g>
     </g>
    </g>
   </g>
   <g id="matplotlib.axis_2">
    <g id="ytick_1">
     <g id="line2d_10">
      <defs>
       <path id="m24369918be" d="M 0 0 
L -3.5 0 
" style="stroke: #000000; stroke-width: 0.8"/>
      </defs>
      <g>
       <use xlink:href="#m24369918be" x="57.6" y="295.488" style="stroke: #000000; stroke-width: 0.8"/>
      </g>
     </g>
     <g id="text_10">
      <!-- −300 -->
      <g transform="translate(23.132812 299.287219) scale(0.1 -0.1)">
       <defs>
        <path id="DejaVuSans-2212" d="M 678 2272 
L 4684 2272 
L 4684 1741 
L 678 1741 
L 678 2272 
z
" transform="scale(0.015625)"/>
        <path id="DejaVuSans-33" d="M 2597 2516 
Q 3050 2419 3304 2112 
Q 3559 1806 3559 1356 
Q 3559 666 3084 287 
Q 2609 -91 1734 -91 
Q 1441 -91 1130 -33 
Q 819 25 488 141 
L 488 750 
Q 750 597 1062 519 
Q 1375 441 1716 441 
Q 2309 441 2620 675 
Q 2931 909 2931 1356 
Q 2931 1769 2642 2001 
Q 2353 2234 1838 2234 
L 1294 2234 
L 1294 2753 
L 1863 2753 
Q 2328 2753 2575 2939 
Q 2822 3125 2822 3475 
Q 2822 3834 2567 4026 
Q 2313 4219 1838 4219 
Q 1578 4219 1281 4162 
Q 984 4106 628 3988 
L 628 4550 
Q 988 4650 1302 4700 
Q 1616 4750 1894 4750 
Q 2613 4750 3031 4423 
Q 3450 4097 3450 3541 
Q 3450 3153 3228 2886 
Q 3006 2619 2597 2516 
z
" transform="scale(0.015625)"/>
       </defs>
       <use xlink:href="#DejaVuSans-2212"/>
       <use xlink:href="#DejaVuSans-33" x="83.789062"/>
       <use xlink:href="#DejaVuSans-30" x="147.412109"/>
       <use xlink:href="#DejaVuSans-30" x="211.035156"/>
      </g>
     </g>
    </g>
    <g id="ytick_2">
     <g id="line2d_11">
      <g>
       <use xlink:href="#m24369918be" x="57.6" y="265.867577" style="stroke: #000000; stroke-width: 0.8"/>
      </g>
     </g>
     <g id="text_11">
      <!-- −250 -->
      <g transform="translate(23.132812 269.666796) scale(0.1 -0.1)">
       <use xlink:href="#DejaVuSans-2212"/>
       <use xlink:href="#DejaVuSans-32" x="83.789062"/>
       <use xlink:href="#DejaVuSans-35" x="147.412109"/>
       <use xlink:href="#DejaVuSans-30" x="211.035156"/>
      </g>
     </g>
    </g>
    <g id="ytick_3">
     <g id="line2d_12">
      <g>
       <use xlink:href="#m24369918be" x="57.6" y="236.247154" style="stroke: #000000; stroke-width: 0.8"/>
      </g>
     </g>
     <g id="text_12">
      <!-- −200 -->
      <g transform="translate(23.132812 240.046373) scale(0.1 -0.1)">
       <use xlink:href="#DejaVuSans-2212"/>
       <use xlink:href="#DejaVuSans-32" x="83.789062"/>
       <use xlink:href="#DejaVuSans-30" x="147.412109"/>
       <use xlink:href="#DejaVuSans-30" x="211.035156"/>
      </g>
     </g>
    </g>
    <g id="ytick_4">
     <g id="line2d_13">
      <g>
       <use xlink:href="#m24369918be" x="57.6" y="206.626731" style="stroke: #000000; stroke-width: 0.8"/>
      </g>
     </g>
     <g id="text_13">
      <!-- −150 -->
      <g transform="translate(23.132812 210.42595) scale(0.1 -0.1)">
       <use xlink:href="#DejaVuSans-2212"/>
       <use xlink:href="#DejaVuSans-31" x="83.789062"/>
       <use xlink:href="#DejaVuSans-35" x="147.412109"/>
       <use xlink:href="#DejaVuSans-30" x="211.035156"/>
      </g>
     </g>
    </g>
    <g id="ytick_5">
     <g id="line2d_14">
      <g>
       <use xlink:href="#m24369918be" x="57.6" y="177.006308" style="stroke: #000000; stroke-width: 0.8"/>
      </g>
     </g>
     <g id="text_14">
      <!-- −100 -->
      <g transform="translate(23.132812 180.805527) scale(0.1 -0.1)">
       <use xlink:href="#DejaVuSans-2212"/>
       <use xlink:href="#DejaVuSans-31" x="83.789062"/>
       <use xlink:href="#DejaVuSans-30" x="147.412109"/>
       <use xlink:href="#DejaVuSans-30" x="211.035156"/>
      </g>
     </g>
    </g>
    <g id="ytick_6">
     <g id="line2d_15">
      <g>
       <use xlink:href="#m24369918be" x="57.6" y="147.385885" style="stroke: #000000; stroke-width: 0.8"/>
      </g>
     </g>
     <g id="text_15">
      <!-- −50 -->
      <g transform="translate(29.495313 151.185103) scale(0.1 -0.1)">
       <use xlink:href="#DejaVuSans-2212"/>
       <use xlink:href="#DejaVuSans-35" x="83.789062"/>
       <use xlink:href="#DejaVuSans-30" x="147.412109"/>
      </g>
     </g>
    </g>
    <g id="ytick_7">
     <g id="line2d_16">
      <g>
       <use xlink:href="#m24369918be" x="57.6" y="117.765462" style="stroke: #000000; stroke-width: 0.8"/>
      </g>
     </g>
     <g id="text_16">
      <!-- 0 -->
      <g transform="translate(44.2375 121.56468) scale(0.1 -0.1)">
       <use xlink:href="#DejaVuSans-30"/>
      </g>
     </g>
    </g>
    <g id="ytick_8">
     <g id="line2d_17">
      <g>
       <use xlink:href="#m24369918be" x="57.6" y="88.145039" style="stroke: #000000; stroke-width: 0.8"/>
      </g>
     </g>
     <g id="text_17">
      <!-- 50 -->
      <g transform="translate(37.875 91.944257) scale(0.1 -0.1)">
       <use xlink:href="#DejaVuSans-35"/>
       <use xlink:href="#DejaVuSans-30" x="63.623047"/>
      </g>
     </g>
    </g>
    <g id="ytick_9">
     <g id="line2d_18">
      <g>
       <use xlink:href="#m24369918be" x="57.6" y="58.524616" style="stroke: #000000; stroke-width: 0.8"/>
      </g>
     </g>
     <g id="text_18">
      <!-- 100 -->
      <g transform="translate(31.5125 62.323834) scale(0.1 -0.1)">
       <use xlink:href="#DejaVuSans-31"/>
       <use xlink:href="#DejaVuSans-30" x="63.623047"/>
       <use xlink:href="#DejaVuSans-30" x="127.246094"/>
      </g>
     </g>
    </g>
   </g>
   <g id="line2d_19">
    <path d="M 73.832727 112.618189 
L 73.995136 295.488 
L 74.157544 88.447407 
L 74.319953 116.678567 
L 74.482361 113.469174 
L 74.64477 89.412313 
L 74.807178 113.605222 
L 74.969587 117.209547 
L 75.131995 115.793899 
L 75.294404 113.220502 
L 75.456812 295.488 
L 75.619221 115.57884 
L 75.944037 119.24619 
L 76.106446 98.029045 
L 76.268854 109.561883 
L 76.431263 99.602743 
L 76.593671 117.138972 
L 76.75608 295.488 
L 76.918488 112.091285 
L 77.080897 117.209547 
L 77.243305 116.974132 
L 77.405714 117.209547 
L 77.568122 295.488 
L 77.730531 95.166298 
L 77.892939 118.418792 
L 78.055348 295.488 
L 78.217756 92.210751 
L 78.380165 98.370172 
L 78.704982 117.138972 
L 78.86739 102.692889 
L 79.029799 116.537838 
L 79.192207 113.674824 
L 79.354615 187.981603 
L 79.517024 119.24619 
L 79.679432 295.488 
L 79.841841 101.789951 
L 80.004249 116.336589 
L 80.166658 295.488 
L 80.329066 103.953704 
L 80.491475 112.861738 
L 80.816292 91.876451 
L 80.9787 96.604582 
L 81.141109 295.488 
L 81.303517 109.517281 
L 81.465926 116.336589 
L 81.628334 111.570577 
L 81.790743 103.113346 
L 81.953151 116.336589 
L 82.11556 113.674824 
L 82.277968 93.890245 
L 82.440377 117.209547 
L 82.602785 295.488 
L 82.765194 295.488 
L 82.927602 117.138972 
L 83.09001 95.847036 
L 83.252419 295.488 
L 83.414827 295.488 
L 83.577236 110.629452 
L 83.739644 118.604274 
L 83.902053 100.316192 
L 84.064461 295.488 
L 84.22687 111.469232 
L 84.389278 118.347795 
L 84.714095 108.143717 
L 84.876504 115.204667 
L 85.201321 93.319248 
L 85.363729 117.138972 
L 85.526138 99.067867 
L 85.688546 116.606244 
L 85.850955 103.562247 
L 86.013363 295.488 
L 86.175772 117.436327 
L 86.33818 295.488 
L 86.500588 94.580042 
L 86.662997 118.418792 
L 86.825405 117.138972 
L 87.150222 111.570577 
L 87.312631 295.488 
L 87.475039 96.173583 
L 87.637448 116.336589 
L 87.799856 115.724948 
L 87.962265 119.17572 
L 88.124673 295.488 
L 88.287082 118.347795 
L 88.44949 113.469174 
L 88.611899 116.336589 
L 88.774307 114.20204 
L 88.936716 295.488 
L 89.099124 96.74514 
L 89.261533 95.439606 
L 89.423941 115.275329 
L 89.58635 110.376839 
L 89.748758 99.730909 
L 89.911166 295.488 
L 90.073575 295.488 
L 90.235983 117.138972 
L 90.398392 103.897068 
L 90.5608 117.209547 
L 90.723209 102.130698 
L 90.885617 117.138972 
L 91.048026 116.336589 
L 91.210434 117.072265 
L 91.372843 117.138972 
L 91.535251 111.570577 
L 91.860068 295.488 
L 92.022477 107.794431 
L 92.184885 295.488 
L 92.347294 116.606244 
L 92.509702 112.500208 
L 92.672111 118.310567 
L 92.834519 82.581241 
L 93.159336 117.138972 
L 93.321745 116.407715 
L 93.484153 120.229576 
L 93.646561 113.424 
L 93.80897 295.488 
L 93.971378 295.488 
L 94.133787 118.347795 
L 94.296195 295.488 
L 94.458604 295.488 
L 94.621012 82.027554 
L 94.783421 114.034275 
L 95.108238 124.735816 
L 95.270646 125.314681 
L 95.433055 165.312384 
L 95.595463 125.314681 
L 95.757872 121.510329 
L 95.92028 124.735816 
L 96.082689 120.682556 
L 96.245097 124.735816 
L 96.407506 163.25838 
L 96.569914 115.541953 
L 96.732323 121.510329 
L 96.894731 163.25838 
L 97.057139 165.312384 
L 97.219548 125.314681 
L 97.381956 156.831806 
L 97.544365 98.471341 
L 97.706773 100.874713 
L 97.869182 106.167665 
L 98.03159 95.702114 
L 98.193999 99.469218 
L 98.356407 99.730909 
L 98.518816 93.193019 
L 98.681224 111.508708 
L 98.843633 105.223789 
L 99.006041 112.843231 
L 99.16845 105.944994 
L 99.330858 105.944994 
L 99.493267 111.508708 
L 99.655675 105.223789 
L 99.818084 112.843231 
L 99.980492 105.944994 
L 100.142901 112.843231 
L 100.305309 105.409967 
L 100.467717 105.944994 
L 100.630126 112.843231 
L 100.792534 105.944994 
L 100.954943 106.212037 
L 101.117351 108.292195 
L 101.604577 108.333449 
L 102.091802 108.292195 
L 102.579028 108.333449 
L 103.066253 108.292195 
L 105.177563 108.292195 
L 105.339972 108.106816 
L 105.50238 111.873454 
L 105.664789 107.262679 
L 105.827197 107.768472 
L 105.989606 107.516854 
L 106.152014 104.691736 
L 106.314423 107.516854 
L 106.476831 107.768472 
L 106.63924 107.262679 
L 106.801648 107.590429 
L 106.964057 111.873454 
L 107.126465 104.691736 
L 107.288874 111.873454 
L 107.451282 107.516854 
L 107.61369 111.498634 
L 107.776099 111.873454 
L 108.263324 111.873454 
L 108.425733 104.691736 
L 108.588141 107.859623 
L 108.75055 104.281091 
L 108.912958 104.691736 
L 109.075367 106.053665 
L 109.237775 105.906455 
L 109.400184 106.382433 
L 109.562592 104.19678 
L 109.725001 107.281033 
L 109.887409 107.095237 
L 110.049818 105.192452 
L 110.212226 111.381903 
L 110.374635 107.339761 
L 110.537043 110.820144 
L 110.699452 110.820144 
L 110.86186 106.445048 
L 111.024268 105.06622 
L 111.186677 107.339761 
L 111.349085 107.011536 
L 111.511494 94.20864 
L 111.673902 104.653775 
L 111.836311 103.240731 
L 111.998719 105.992641 
L 112.161128 99.331683 
L 112.485945 105.490194 
L 112.648353 104.971316 
L 112.810762 105.153645 
L 112.97317 106.31699 
L 113.135579 104.877529 
L 113.297987 107.011536 
L 113.460396 110.903701 
L 113.622804 105.966329 
L 113.785213 107.521665 
L 114.11003 102.767018 
L 114.272438 110.676714 
L 114.434847 111.570752 
L 114.759663 99.644739 
L 114.922072 102.459541 
L 115.08448 102.773353 
L 115.246889 105.658275 
L 115.409297 101.389106 
L 115.571706 105.860226 
L 115.734114 88.993142 
L 115.896523 92.245833 
L 116.058931 81.096158 
L 116.22134 95.655045 
L 116.383748 96.110796 
L 116.546157 95.094716 
L 116.708565 80.435528 
L 116.870974 101.873926 
L 117.033382 83.180343 
L 117.195791 94.106193 
L 117.358199 80.483187 
L 117.520608 96.821421 
L 117.683016 101.011021 
L 118.007833 96.403348 
L 118.170241 82.037605 
L 118.33265 88.046825 
L 118.495058 88.255816 
L 118.657467 97.98363 
L 119.144692 90.916057 
L 119.307101 85.859715 
L 119.469509 89.73309 
L 119.631918 77.973194 
L 119.794326 95.637327 
L 119.956735 99.145455 
L 120.119143 81.291063 
L 120.281552 85.039263 
L 120.44396 94.050857 
L 120.606369 82.553681 
L 120.931186 94.6539 
L 121.256003 81.621468 
L 121.418411 82.175841 
L 121.743228 94.205626 
L 121.905636 90.360263 
L 122.068045 79.059491 
L 122.230453 103.18686 
L 122.392862 86.650155 
L 122.55527 98.296729 
L 122.717679 85.698704 
L 123.042496 92.454704 
L 123.204904 82.53083 
L 123.367313 90.98525 
L 123.529721 88.878551 
L 123.69213 73.726172 
L 123.854538 91.380021 
L 124.016947 83.431837 
L 124.179355 90.555335 
L 124.341764 84.071689 
L 124.504172 89.548566 
L 124.666581 89.069953 
L 124.828989 95.923746 
L 124.991398 91.348203 
L 125.153806 81.617408 
L 125.316214 91.282014 
L 125.478623 92.336711 
L 125.641031 99.70094 
L 125.80344 78.342515 
L 125.965848 88.325388 
L 126.128257 88.807984 
L 126.290665 95.622739 
L 126.453074 88.778056 
L 126.615482 91.427718 
L 126.777891 104.285667 
L 126.940299 93.53337 
L 127.265116 97.631594 
L 127.427525 96.611535 
L 127.589933 67.238074 
L 127.752342 72.450123 
L 127.91475 93.16805 
L 128.077159 97.429048 
L 128.239567 95.020347 
L 128.401976 88.058858 
L 128.564384 100.69481 
L 128.726792 67.555487 
L 128.889201 102.174514 
L 129.051609 67.76899 
L 129.376426 101.130007 
L 129.538835 103.445291 
L 129.701243 102.174514 
L 129.863652 74.025152 
L 130.02606 82.876387 
L 130.188469 61.28242 
L 130.350877 85.330117 
L 130.513286 61.285133 
L 130.675694 59.040409 
L 130.838103 61.251439 
L 131.000511 65.297072 
L 131.16292 77.430803 
L 131.325328 76.105131 
L 131.487737 83.655648 
L 131.650145 81.982402 
L 131.812554 69.798368 
L 131.974962 87.68254 
L 132.299779 71.932941 
L 132.462187 64.075952 
L 132.624596 75.875111 
L 132.949413 66.811204 
L 133.27423 83.435061 
L 133.436638 71.471731 
L 133.761455 76.21591 
L 133.923864 76.234305 
L 134.086272 86.425462 
L 134.248681 65.052285 
L 134.411089 64.03281 
L 134.573498 72.478032 
L 134.735906 65.228474 
L 134.898315 66.160657 
L 135.060723 81.742036 
L 135.223132 64.445087 
L 135.38554 64.872477 
L 135.710357 76.987759 
L 135.872765 68.371807 
L 136.035174 80.216644 
L 136.359991 73.761809 
L 136.522399 82.983953 
L 136.684808 73.292597 
L 136.847216 75.175708 
L 137.009625 73.498687 
L 137.172033 73.869894 
L 137.334442 81.646887 
L 137.659259 64.903829 
L 137.821667 71.434775 
L 137.984076 66.307903 
L 138.146484 72.843971 
L 138.308893 73.118317 
L 138.471301 81.717895 
L 138.63371 80.823461 
L 138.796118 71.143137 
L 138.958527 71.021591 
L 139.120935 73.654189 
L 139.283343 70.654926 
L 139.445752 63.208874 
L 139.770569 80.460603 
L 139.932977 68.780372 
L 140.095386 67.662676 
L 140.257794 64.796145 
L 140.582611 75.835636 
L 140.74502 70.309881 
L 140.907428 74.912674 
L 141.069837 71.653599 
L 141.232245 83.520518 
L 141.557062 70.553148 
L 141.719471 74.066492 
L 141.881879 65.541562 
L 142.044288 63.234015 
L 142.369105 76.468448 
L 142.531513 73.204638 
L 142.693922 75.215189 
L 142.85633 64.458918 
L 143.018738 71.783583 
L 143.181147 70.050411 
L 143.343555 65.083191 
L 143.505964 73.255548 
L 143.668372 64.763136 
L 143.830781 73.696162 
L 143.993189 66.154484 
L 144.155598 69.610436 
L 144.318006 65.298861 
L 144.480415 74.495383 
L 144.642823 69.319557 
L 144.805232 74.231448 
L 144.96764 72.667608 
L 145.130049 64.167448 
L 145.292457 68.644872 
L 145.454866 65.062188 
L 145.617274 79.620329 
L 145.942091 77.718712 
L 146.1045 56.175595 
L 146.429316 66.882862 
L 146.591725 66.579397 
L 146.916542 73.030593 
L 147.07895 73.596367 
L 147.241359 69.945228 
L 147.403767 63.785348 
L 147.566176 68.007201 
L 147.728584 65.723123 
L 147.890993 69.299523 
L 148.053401 79.608468 
L 148.21581 63.751989 
L 148.378218 70.766669 
L 148.540627 64.120331 
L 148.865444 73.265787 
L 149.027852 67.758748 
L 149.190261 73.222491 
L 149.677486 64.801565 
L 149.839894 64.496371 
L 150.002303 70.230514 
L 150.164711 67.239293 
L 150.489528 76.942409 
L 150.651937 70.216114 
L 150.814345 73.118661 
L 151.139162 72.338686 
L 151.301571 70.695454 
L 151.463979 64.161431 
L 151.626388 71.081395 
L 151.788796 72.731287 
L 151.951205 72.361325 
L 152.113613 64.167448 
L 152.43843 71.231912 
L 152.600839 71.304825 
L 152.763247 70.205519 
L 152.925656 67.754426 
L 153.250473 72.04309 
L 153.412881 71.066354 
L 153.575289 72.308378 
L 153.737698 69.839361 
L 153.900106 70.930599 
L 154.062515 75.862496 
L 154.224923 75.19141 
L 154.387332 76.488776 
L 154.54974 67.502419 
L 154.712149 83.8185 
L 154.874557 75.272172 
L 155.036966 78.893574 
L 155.361783 67.989753 
L 155.524191 68.649544 
L 155.6866 58.157598 
L 156.011417 79.274744 
L 156.173825 67.935337 
L 156.336234 78.268127 
L 156.498642 60.086957 
L 156.661051 85.202459 
L 156.823459 79.480826 
L 156.985867 81.8363 
L 157.148276 80.266476 
L 157.310684 80.800205 
L 157.635501 75.572307 
L 157.79791 67.738528 
L 158.122727 81.392065 
L 158.285135 65.089139 
L 158.447544 65.560915 
L 158.772361 74.719091 
L 158.934769 86.331104 
L 159.097178 73.352413 
L 159.259586 89.737606 
L 159.421995 65.748828 
L 159.584403 87.866916 
L 159.746812 85.795828 
L 159.90922 88.230278 
L 160.071629 59.7346 
L 160.234037 86.858691 
L 160.396445 70.665811 
L 160.721262 63.44398 
L 160.883671 85.102055 
L 161.046079 81.745016 
L 161.208488 66.327436 
L 161.370896 86.249477 
L 161.695713 79.377461 
L 161.858122 63.978585 
L 162.02053 82.526675 
L 162.182939 66.938862 
L 162.345347 66.288095 
L 162.507756 80.937071 
L 162.994981 66.099048 
L 163.15739 67.246156 
L 163.319798 70.468512 
L 163.482207 64.819139 
L 163.644615 73.503972 
L 163.807024 63.6918 
L 163.969432 66.088888 
L 164.13184 80.507371 
L 164.294249 79.562668 
L 164.456657 75.652313 
L 164.619066 76.950025 
L 164.943883 55.999086 
L 165.106291 70.78735 
L 165.2687 69.597797 
L 165.593517 82.835047 
L 165.755925 71.593332 
L 165.918334 72.638803 
L 166.080742 77.499952 
L 166.243151 74.783932 
L 166.567968 82.241582 
L 166.892785 68.928421 
L 167.055193 78.19202 
L 167.217602 78.466963 
L 167.38001 64.963952 
L 167.704827 80.657289 
L 167.867235 79.546852 
L 168.029644 69.41688 
L 168.354461 77.922666 
L 168.516869 73.859867 
L 168.679278 76.850325 
L 169.004095 77.142817 
L 169.166503 80.808871 
L 169.328912 75.40431 
L 169.49132 78.702431 
L 169.653729 86.511924 
L 169.978546 76.14606 
L 170.140954 85.954331 
L 170.303363 78.517281 
L 170.465771 80.22473 
L 170.62818 73.300702 
L 170.790588 85.455041 
L 170.952996 66.180818 
L 171.115405 81.132502 
L 171.277813 72.126881 
L 171.440222 73.306402 
L 171.60263 70.968435 
L 171.765039 72.491247 
L 171.927447 66.448441 
L 172.089856 67.911159 
L 172.252264 68.286769 
L 172.73949 93.794734 
L 172.901898 67.48317 
L 173.064307 67.873297 
L 173.226715 82.936634 
L 173.389124 74.617011 
L 173.551532 75.569018 
L 173.713941 79.375686 
L 173.876349 76.770049 
L 174.201166 83.095478 
L 174.363575 78.3823 
L 174.525983 70.091962 
L 174.688391 93.207927 
L 175.013208 68.745802 
L 175.175617 67.225983 
L 175.338025 75.92334 
L 175.500434 76.592035 
L 175.662842 79.607525 
L 175.825251 78.250508 
L 176.150068 82.317977 
L 176.312476 81.959561 
L 176.474885 67.731134 
L 176.637293 98.319622 
L 176.799702 66.133033 
L 176.96211 75.606532 
L 177.124519 73.710803 
L 177.286927 97.448864 
L 177.449336 73.081725 
L 177.611744 76.614877 
L 177.774153 68.045588 
L 177.936561 85.84259 
L 178.098969 78.744627 
L 178.261378 92.604383 
L 178.423786 87.375626 
L 178.586195 94.375654 
L 178.748603 91.572061 
L 178.911012 75.870645 
L 179.07342 84.563173 
L 179.235829 79.963599 
L 179.398237 98.931252 
L 179.560646 74.193588 
L 179.723054 94.624091 
L 180.047871 83.14762 
L 180.21028 86.936895 
L 180.372688 78.151378 
L 180.535097 87.349641 
L 180.859914 65.316204 
L 181.022322 88.354889 
L 181.184731 71.980049 
L 181.347139 71.625372 
L 181.509548 93.108769 
L 181.671956 91.34054 
L 181.834364 87.791565 
L 181.996773 87.353547 
L 182.159181 90.396564 
L 182.32159 87.695959 
L 182.483998 90.627215 
L 182.646407 85.825308 
L 182.808815 92.825357 
L 182.971224 94.066487 
L 183.133632 94.066487 
L 183.296041 97.001176 
L 183.458449 92.327314 
L 183.620858 97.752817 
L 183.783266 86.848959 
L 183.945675 100.179016 
L 184.108083 88.240683 
L 184.270492 105.994182 
L 184.4329 84.731803 
L 184.757717 104.902879 
L 184.920126 80.55534 
L 185.244942 107.183393 
L 185.407351 107.892962 
L 185.569759 74.757923 
L 185.732168 102.557024 
L 185.894576 105.995107 
L 186.056985 81.197353 
L 186.219393 93.443811 
L 186.54421 101.087819 
L 186.706619 79.121779 
L 186.869027 79.403465 
L 187.031436 78.736465 
L 187.193844 102.113641 
L 187.356253 81.030799 
L 187.518661 108.292195 
L 187.68107 106.327234 
L 187.843478 85.633747 
L 188.005887 91.612112 
L 188.168295 84.916082 
L 188.330704 83.012688 
L 188.493112 94.364401 
L 188.65552 90.438431 
L 188.817929 108.896768 
L 188.980337 82.505492 
L 189.142746 85.311937 
L 189.305154 108.292195 
L 189.467563 107.523715 
L 189.629971 90.701582 
L 189.79238 96.871429 
L 189.954788 108.292195 
L 190.117197 107.846954 
L 190.279605 117.855314 
L 190.442014 76.523329 
L 190.604422 113.032398 
L 191.254056 89.903009 
L 191.416465 103.103279 
L 191.578873 90.407559 
L 191.741282 92.347494 
L 191.90369 89.669711 
L 192.066099 91.227043 
L 192.228507 81.235686 
L 192.390915 111.4839 
L 192.553324 90.537525 
L 192.715732 99.824207 
L 193.040549 92.120383 
L 193.202958 113.470481 
L 193.527775 81.140887 
L 193.690183 94.308874 
L 193.852592 90.023548 
L 194.015 90.03464 
L 194.177409 93.247688 
L 194.339817 89.664309 
L 194.502226 108.292195 
L 194.664634 103.010297 
L 194.827043 82.060225 
L 195.15186 90.808476 
L 195.314268 117.438971 
L 195.476677 92.143266 
L 195.639085 92.120383 
L 195.801493 117.855314 
L 195.963902 112.937429 
L 196.12631 92.596923 
L 196.288719 90.42112 
L 196.451127 117.855314 
L 196.613536 89.655741 
L 196.938353 96.545863 
L 197.100761 89.223041 
L 197.26317 91.363592 
L 197.425578 90.968226 
L 197.587987 96.952683 
L 197.912804 89.687743 
L 198.075212 102.648603 
L 198.237621 101.801974 
L 198.400029 95.425379 
L 198.562438 117.855314 
L 198.724846 87.086829 
L 198.887255 83.463762 
L 199.049663 96.396638 
L 199.212071 92.340343 
L 199.37448 91.683869 
L 199.699297 97.087175 
L 199.861705 98.404793 
L 200.024114 94.996746 
L 200.186522 117.855314 
L 200.348931 87.7072 
L 200.511339 97.263121 
L 200.673748 98.335505 
L 200.836156 106.786834 
L 200.998565 92.930762 
L 201.160973 117.855314 
L 201.323382 92.615962 
L 201.48579 94.519674 
L 201.648199 103.30873 
L 201.810607 91.220326 
L 201.973016 105.248277 
L 202.135424 104.147814 
L 202.297833 92.902103 
L 202.460241 111.687598 
L 202.62265 95.879413 
L 202.785058 93.370299 
L 202.947466 111.877239 
L 203.109875 111.205189 
L 203.272283 103.633959 
L 203.434692 90.619961 
L 203.5971 100.145933 
L 203.921917 71.476423 
L 204.084326 75.976732 
L 204.246734 91.208499 
L 204.571551 82.153694 
L 204.73396 88.374395 
L 204.896368 87.055587 
L 205.058777 100.030432 
L 205.221185 81.342307 
L 205.383594 86.933739 
L 205.546002 103.836102 
L 205.708411 82.82553 
L 205.870819 93.006342 
L 206.033228 73.062987 
L 206.195636 98.176947 
L 206.358044 74.67095 
L 206.520453 73.513768 
L 206.682861 75.960191 
L 207.007678 66.77186 
L 207.170087 77.294122 
L 207.332495 76.264895 
L 207.494904 69.445521 
L 207.657312 75.360251 
L 207.819721 72.28143 
L 207.982129 88.918693 
L 208.144538 73.080271 
L 208.306946 71.200382 
L 208.469355 79.800836 
L 208.631763 66.558102 
L 208.95658 76.190315 
L 209.118989 75.425634 
L 209.281397 80.567936 
L 209.606214 68.314495 
L 209.931031 92.486513 
L 210.580665 72.881837 
L 210.743073 85.281635 
L 211.06789 66.688812 
L 211.230299 66.98382 
L 211.392707 68.291711 
L 211.555116 65.790766 
L 211.717524 65.851318 
L 211.879933 69.694875 
L 212.042341 77.420343 
L 212.20475 69.219634 
L 212.367158 70.357372 
L 212.529567 84.906355 
L 212.691975 77.884909 
L 212.854384 65.125152 
L 213.016792 79.132313 
L 213.179201 65.790766 
L 213.341609 86.20915 
L 213.504017 65.851318 
L 213.666426 68.268239 
L 213.828834 62.578868 
L 213.991243 80.89177 
L 214.31606 90.092863 
L 214.478468 73.018641 
L 214.640877 70.042293 
L 214.803285 89.499718 
L 214.965694 88.187004 
L 215.128102 67.313621 
L 215.290511 67.947438 
L 215.452919 79.500171 
L 215.615328 68.732488 
L 215.777736 87.50339 
L 215.940145 71.659475 
L 216.102553 86.905623 
L 216.264962 77.916547 
L 216.42737 82.572699 
L 216.589779 81.851657 
L 216.752187 87.063975 
L 216.914595 66.573376 
L 217.077004 65.866614 
L 217.239412 80.771849 
L 217.401821 68.6375 
L 217.564229 71.431961 
L 217.726638 66.75272 
L 217.889046 74.444797 
L 218.051455 66.55371 
L 218.53868 85.750678 
L 218.701089 63.276315 
L 218.863497 71.315616 
L 219.025906 71.826059 
L 219.188314 73.876427 
L 219.350723 92.267058 
L 219.513131 82.163357 
L 219.67554 79.084707 
L 220.000357 67.669103 
L 220.162765 69.778873 
L 220.325173 70.129069 
L 220.487582 98.309843 
L 220.64999 69.286573 
L 220.812399 74.12669 
L 220.974807 90.996399 
L 221.299624 83.935504 
L 221.462033 96.256011 
L 221.624441 83.47714 
L 221.78685 100.528273 
L 221.949258 81.965481 
L 222.111667 82.847591 
L 222.274075 86.777584 
L 222.598892 78.522453 
L 222.761301 86.281229 
L 223.086118 73.148551 
L 223.410935 77.150336 
L 223.735752 55.795899 
L 223.89816 76.6073 
L 224.060568 68.068945 
L 224.222977 82.401342 
L 224.385385 78.437874 
L 224.547794 78.706486 
L 224.710202 65.229457 
L 224.872611 66.664225 
L 225.035019 74.430697 
L 225.197428 96.469843 
L 225.359836 87.176265 
L 225.522245 84.805568 
L 225.684653 85.04595 
L 225.847062 79.988399 
L 226.00947 64.348671 
L 226.171879 81.550719 
L 226.334287 62.825546 
L 226.496696 79.256193 
L 226.659104 83.12554 
L 226.821513 63.845925 
L 226.983921 78.545403 
L 227.14633 64.191831 
L 227.308738 71.63267 
L 227.471146 107.334946 
L 227.633555 74.813728 
L 227.795963 89.97121 
L 228.283189 69.69757 
L 228.445597 84.458843 
L 228.608006 53.925178 
L 228.770414 62.587531 
L 228.932823 56.371695 
L 229.095231 62.788323 
L 229.25764 82.849236 
L 229.420048 68.526861 
L 229.582457 71.896534 
L 229.907274 53.623507 
L 230.069682 69.414174 
L 230.232091 57.141588 
L 230.394499 68.936731 
L 230.556908 60.937033 
L 230.719316 77.874253 
L 230.881724 60.738308 
L 231.044133 79.266004 
L 231.206541 66.035645 
L 231.36895 66.421396 
L 231.531358 53.568 
L 231.693767 68.603913 
L 231.856175 60.832999 
L 232.018584 110.789795 
L 232.180992 66.058503 
L 232.343401 61.918066 
L 232.505809 111.403418 
L 232.668218 57.081372 
L 232.830626 63.943547 
L 232.993035 64.614545 
L 233.155443 62.819017 
L 233.48026 95.097881 
L 233.642669 68.132004 
L 233.805077 64.668559 
L 233.967486 81.926211 
L 234.129894 62.588074 
L 234.292303 76.152392 
L 234.454711 73.580883 
L 234.617119 75.497659 
L 234.779528 66.264354 
L 235.104345 62.587612 
L 235.266753 65.252511 
L 235.429162 90.968922 
L 235.59157 74.341187 
L 235.753979 81.289138 
L 236.078796 76.451135 
L 236.241204 65.039274 
L 236.403613 75.091566 
L 236.566021 74.315289 
L 236.72843 87.015556 
L 236.890838 85.5822 
L 237.053247 64.839187 
L 237.215655 87.775662 
L 237.378064 79.292406 
L 237.540472 83.026321 
L 237.702881 79.440799 
L 237.865289 80.838659 
L 238.027697 69.657124 
L 238.190106 84.034146 
L 238.352514 76.58516 
L 238.514923 81.722334 
L 238.677331 100.729459 
L 238.83974 74.345994 
L 239.002148 75.091566 
L 239.164557 79.518406 
L 239.326965 107.620748 
L 239.489374 82.621674 
L 239.651782 82.644096 
L 239.814191 108.003402 
L 239.976599 97.423953 
L 240.139008 79.123301 
L 240.301416 86.176027 
L 240.463825 77.91481 
L 240.626233 89.441403 
L 240.788642 60.771914 
L 241.113459 85.733352 
L 241.275867 67.964926 
L 241.438276 103.795287 
L 241.600684 73.839648 
L 241.763092 65.711345 
L 242.250318 85.044126 
L 242.412726 75.041915 
L 242.899952 72.607233 
L 243.06236 102.446049 
L 243.224769 72.908093 
L 243.387177 101.9875 
L 243.549586 71.204539 
L 243.711994 62.759719 
L 243.874403 105.027619 
L 244.19922 71.757529 
L 244.361628 71.31181 
L 244.524037 69.136258 
L 244.686445 69.329137 
L 244.848854 76.307176 
L 245.011262 73.508284 
L 245.336079 76.263793 
L 245.498487 86.092492 
L 245.823304 68.522612 
L 246.148121 90.919464 
L 246.31053 88.144946 
L 246.472938 90.521072 
L 246.635347 107.230331 
L 246.960164 69.043567 
L 247.122572 90.510457 
L 247.284981 86.144802 
L 247.447389 89.227785 
L 247.609798 94.424093 
L 247.772206 92.578061 
L 247.934615 102.127311 
L 248.097023 64.492414 
L 248.42184 99.114413 
L 248.584248 102.542758 
L 248.746657 87.621509 
L 248.909065 106.294883 
L 249.233882 90.219308 
L 249.396291 108.080715 
L 249.558699 85.091943 
L 249.721108 103.282811 
L 250.045925 82.4083 
L 250.208333 102.678458 
L 250.370742 86.04671 
L 250.53315 85.309039 
L 250.695559 82.636238 
L 250.857967 87.372545 
L 251.020376 102.713892 
L 251.345193 63.802926 
L 251.507601 67.255615 
L 251.67001 101.735148 
L 251.832418 104.307692 
L 251.994827 100.935298 
L 252.319643 84.518179 
L 252.482052 101.522392 
L 252.64446 70.157404 
L 252.806869 77.856767 
L 252.969277 108.922257 
L 253.131686 82.257652 
L 253.294094 90.060991 
L 253.456503 85.309039 
L 253.618911 84.503071 
L 253.78132 84.350186 
L 253.943728 85.964954 
L 254.106137 59.918664 
L 254.268545 98.493639 
L 254.430954 84.876315 
L 254.593362 84.362771 
L 254.755771 114.734925 
L 255.080588 84.742194 
L 255.242996 65.378602 
L 255.405405 86.501813 
L 255.567813 75.250815 
L 255.730221 88.31502 
L 255.89263 83.90147 
L 256.055038 86.629654 
L 256.217447 107.873734 
L 256.542264 64.390405 
L 256.704672 91.636438 
L 256.867081 86.161168 
L 257.029489 94.691099 
L 257.191898 83.66837 
L 257.354306 83.746146 
L 257.516715 90.710293 
L 257.679123 69.574604 
L 258.00394 105.647935 
L 258.166349 84.12165 
L 258.328757 84.297758 
L 258.491166 91.767476 
L 258.653574 88.451129 
L 258.815983 82.73616 
L 258.978391 94.52433 
L 259.140799 83.66837 
L 259.303208 84.198006 
L 259.465616 83.463226 
L 259.628025 85.64354 
L 259.790433 86.161168 
L 260.11525 83.544884 
L 260.277659 85.900918 
L 260.440067 84.255011 
L 260.602476 85.720804 
L 260.764884 83.526689 
L 260.927293 86.168191 
L 261.089701 85.222367 
L 261.25211 85.079312 
L 261.414518 82.286518 
L 261.576927 84.987065 
L 261.739335 84.12165 
L 261.901744 85.347775 
L 262.064152 83.801675 
L 262.388969 130.778527 
L 262.551378 128.612034 
L 262.713786 109.6218 
L 262.876194 114.852803 
L 263.038603 81.962522 
L 263.201011 117.954285 
L 263.36342 81.766971 
L 263.525828 119.24619 
L 263.688237 106.797692 
L 263.850645 110.193885 
L 264.013054 84.041028 
L 264.175462 130.778527 
L 264.337871 112.711747 
L 264.500279 117.954285 
L 264.662688 84.569227 
L 264.825096 83.32987 
L 264.987505 116.118641 
L 265.149913 84.082947 
L 265.312322 113.404992 
L 265.47473 94.220778 
L 265.637139 112.183723 
L 265.799547 77.768979 
L 265.961956 91.606274 
L 266.124364 84.03818 
L 266.449181 86.877281 
L 266.611589 105.632466 
L 266.773998 72.895541 
L 266.936406 89.815259 
L 267.261223 86.025353 
L 267.423632 87.431342 
L 267.58604 69.01672 
L 267.748449 95.260641 
L 268.073266 68.868353 
L 268.235674 89.813743 
L 268.398083 66.218664 
L 268.560491 67.026091 
L 268.7229 74.074855 
L 268.885308 86.484152 
L 269.047717 74.555713 
L 269.210125 70.94914 
L 269.372534 93.97077 
L 269.534942 96.170764 
L 269.69735 69.246901 
L 270.022167 76.540724 
L 270.184576 77.151103 
L 270.346984 97.110551 
L 270.509393 101.438744 
L 270.671801 86.443064 
L 270.83421 88.573744 
L 270.996618 72.901038 
L 271.483844 95.537249 
L 271.646252 99.348405 
L 271.808661 72.030299 
L 271.971069 72.483637 
L 272.133478 119.24619 
L 272.295886 100.536424 
L 272.458295 102.656036 
L 272.620703 112.853171 
L 272.783112 93.641073 
L 272.94552 111.282732 
L 273.107929 111.479956 
L 273.270337 71.228821 
L 273.432745 121.634606 
L 273.595154 82.882179 
L 273.757562 112.487103 
L 273.919971 99.794949 
L 274.244788 112.487103 
L 274.407196 105.200623 
L 274.569605 117.268011 
L 274.732013 101.866866 
L 275.05683 99.161089 
L 275.219239 105.038722 
L 275.381647 101.621168 
L 275.544056 106.19143 
L 275.706464 114.091812 
L 275.868873 110.615474 
L 276.031281 119.231577 
L 276.19369 102.782788 
L 276.356098 107.08188 
L 276.518507 100.023347 
L 276.680915 83.852432 
L 276.843323 79.092135 
L 277.005732 81.460904 
L 277.16814 80.867986 
L 277.330549 78.519246 
L 277.492957 88.470097 
L 277.817774 76.755119 
L 277.980183 76.993797 
L 278.142591 82.673287 
L 278.305 82.405639 
L 278.467408 83.858969 
L 278.629817 87.262962 
L 278.792225 86.890748 
L 278.954634 90.197962 
L 279.279451 99.771957 
L 279.441859 91.598628 
L 279.604268 101.192934 
L 279.766676 78.872891 
L 280.091493 93.758963 
L 280.253901 86.854548 
L 280.41631 90.125391 
L 280.578718 87.639496 
L 280.741127 101.287048 
L 280.903535 100.319963 
L 281.065944 102.642985 
L 281.228352 102.436771 
L 281.390761 101.814469 
L 281.553169 99.527237 
L 281.877986 81.412373 
L 282.040395 107.79626 
L 282.202803 101.393772 
L 282.365212 101.029391 
L 282.52762 72.631307 
L 282.690029 76.106704 
L 282.852437 99.763555 
L 283.014846 79.947411 
L 283.177254 102.741529 
L 283.339663 101.214364 
L 283.502071 81.279382 
L 283.66448 99.759004 
L 283.826888 91.244143 
L 283.989296 103.45904 
L 284.314113 90.888838 
L 284.476522 102.879611 
L 284.63893 101.869428 
L 284.801339 101.749158 
L 284.963747 90.920849 
L 285.126156 100.081389 
L 285.288564 90.651427 
L 285.450973 92.249178 
L 285.613381 91.566718 
L 285.77579 90.291352 
L 285.938198 98.210688 
L 286.100607 92.771475 
L 286.263015 94.718572 
L 286.425424 88.036604 
L 286.587832 100.463433 
L 286.750241 92.42856 
L 286.912649 97.072879 
L 287.075058 87.647775 
L 287.237466 103.137223 
L 287.399874 95.640579 
L 287.562283 103.367575 
L 287.724691 94.906311 
L 287.8871 107.062916 
L 288.049508 107.321232 
L 288.211917 107.290164 
L 288.374325 107.062916 
L 288.536734 99.764074 
L 288.699142 107.092878 
L 288.861551 106.664526 
L 289.023959 106.664526 
L 289.186368 106.464167 
L 289.511185 106.874039 
L 289.673593 106.272805 
L 289.836002 106.272805 
L 289.99841 106.090298 
L 290.160819 106.610387 
L 290.323227 105.40372 
L 290.648044 106.272805 
L 290.972861 106.272805 
L 291.135269 106.437479 
L 291.297678 106.247199 
L 291.460086 104.236508 
L 291.622495 105.916517 
L 291.784903 106.090298 
L 291.947312 105.916517 
L 292.10972 106.247199 
L 292.272129 106.272805 
L 292.759354 105.348551 
L 292.921763 73.244911 
L 293.084171 88.685692 
L 293.24658 78.767761 
L 293.408988 76.030463 
L 293.571397 97.1511 
L 293.733805 98.112879 
L 293.896214 98.112879 
L 294.058622 97.1511 
L 294.221031 79.185651 
L 294.383439 82.079822 
L 294.545847 97.1511 
L 294.870664 97.1511 
L 295.033073 79.761847 
L 295.195481 97.1511 
L 295.520298 97.1511 
L 295.682707 98.583512 
L 295.845115 98.500151 
L 296.007524 80.850151 
L 296.169932 96.345011 
L 296.332341 96.207862 
L 296.494749 95.378174 
L 296.657158 97.1511 
L 296.819566 95.302622 
L 296.981975 78.345785 
L 297.144383 97.1511 
L 297.306792 92.63955 
L 297.4692 93.598268 
L 297.631609 91.952878 
L 298.118834 80.949509 
L 298.443651 86.5027 
L 298.606059 79.623203 
L 298.930876 87.237125 
L 299.093285 81.286176 
L 299.255693 83.321544 
L 299.418102 72.633694 
L 299.58051 71.08294 
L 299.742919 82.493292 
L 299.905327 83.671369 
L 300.067736 81.342648 
L 300.230144 83.713678 
L 300.392553 75.437879 
L 300.554961 74.379731 
L 300.879778 87.303156 
L 301.042187 88.124516 
L 301.367004 70.840401 
L 301.529412 88.136513 
L 301.69182 87.285686 
L 301.854229 87.427576 
L 302.016637 88.610669 
L 302.179046 82.441391 
L 302.341454 94.994304 
L 302.503863 89.108309 
L 302.666271 89.48485 
L 302.82868 87.892572 
L 302.991088 90.567807 
L 303.153497 86.626812 
L 303.315905 98.878383 
L 303.478314 100.839893 
L 303.640722 97.289238 
L 303.803131 90.668824 
L 303.965539 65.677288 
L 304.127948 101.682152 
L 304.290356 102.571879 
L 304.452765 65.21994 
L 304.615173 63.937372 
L 304.777582 102.571879 
L 304.93999 104.38588 
L 306.076849 104.38588 
L 306.239258 76.881108 
L 306.401666 104.38588 
L 306.564075 97.1511 
L 306.726483 97.1511 
L 306.888892 104.38588 
L 307.213709 104.38588 
L 307.376117 103.461243 
L 307.538526 89.634679 
L 307.700934 104.38588 
L 307.863343 103.461243 
L 308.025751 88.556338 
L 308.18816 104.38588 
L 308.350568 65.500804 
L 308.512976 104.371458 
L 308.837793 88.875624 
L 309.16261 104.38588 
L 309.325019 103.461243 
L 309.487427 96.207862 
L 309.649836 97.1511 
L 309.812244 86.315622 
L 309.974653 103.461243 
L 310.137061 90.418396 
L 310.29947 100.898413 
L 310.461878 96.207862 
L 310.786695 68.846324 
L 310.949104 102.571879 
L 311.111512 102.574771 
L 311.273921 103.461243 
L 311.436329 82.735426 
L 311.598738 97.1511 
L 311.761146 96.345011 
L 311.923555 71.110113 
L 312.085963 101.718039 
L 312.248371 95.302622 
L 312.41078 97.1511 
L 312.573188 102.582629 
L 312.898005 87.460041 
L 313.060414 96.207862 
L 313.222822 97.092015 
L 313.547639 97.1511 
L 313.710048 73.242576 
L 313.872456 96.207862 
L 314.034865 96.207862 
L 314.197273 85.677405 
L 314.359682 84.271062 
L 314.52209 79.52097 
L 314.684499 89.004962 
L 314.846907 74.68248 
L 315.009316 94.43337 
L 315.171724 92.430811 
L 315.334133 78.877074 
L 315.658949 94.28839 
L 315.821358 94.708735 
L 315.983766 93.75186 
L 316.146175 86.51847 
L 316.308583 95.807457 
L 316.470992 94.91811 
L 316.6334 75.328608 
L 316.795809 91.851788 
L 316.958217 90.907089 
L 317.120626 98.483394 
L 317.283034 97.40245 
L 317.445443 89.37212 
L 317.607851 90.190618 
L 317.932668 96.222193 
L 318.095077 89.630181 
L 318.257485 93.445049 
L 318.419894 93.419338 
L 318.582302 93.208012 
L 318.744711 105.301212 
L 318.907119 90.800612 
L 319.069527 90.103087 
L 319.231936 102.202069 
L 319.394344 104.262993 
L 319.556753 84.932488 
L 319.719161 102.405816 
L 319.88157 92.976241 
L 320.043978 105.301212 
L 320.368795 105.411962 
L 320.693612 105.308368 
L 320.856021 104.266125 
L 321.018429 105.411962 
L 321.180838 105.301212 
L 321.343246 84.748988 
L 321.668063 105.051923 
L 321.830472 93.470758 
L 321.99288 93.064884 
L 322.155289 107.616179 
L 322.317697 92.94078 
L 322.480106 105.411962 
L 322.642514 105.308368 
L 322.804922 104.266125 
L 322.967331 99.599577 
L 323.292148 105.411962 
L 323.779373 105.411962 
L 323.941782 103.370169 
L 324.10419 105.411962 
L 324.266599 104.371458 
L 324.429007 104.371458 
L 324.591416 105.411962 
L 324.753824 104.371458 
L 324.916233 104.371458 
L 325.078641 105.411962 
L 325.24105 92.600079 
L 325.403458 104.371458 
L 325.565867 105.411962 
L 325.728275 99.972547 
L 325.890684 102.405816 
L 326.053092 97.635457 
L 326.2155 105.411962 
L 326.377909 104.371458 
L 326.540317 105.411962 
L 326.702726 104.371458 
L 326.865134 105.411962 
L 327.027543 98.600882 
L 327.189951 104.371458 
L 327.35236 105.411962 
L 327.514768 99.619208 
L 327.677177 98.386844 
L 327.839585 99.512514 
L 328.001994 105.308368 
L 328.164402 98.287084 
L 328.326811 96.567885 
L 328.489219 104.371458 
L 328.651628 92.820833 
L 328.814036 93.58694 
L 328.976445 109.98798 
L 329.138853 94.821492 
L 329.301262 99.22039 
L 329.46367 92.070086 
L 329.626078 100.182948 
L 329.788487 99.04629 
L 329.950895 81.748892 
L 330.275712 98.474556 
L 330.438121 104.077324 
L 330.600529 96.887336 
L 330.762938 81.419522 
L 330.925346 82.089371 
L 331.087755 101.928262 
L 331.412572 101.125281 
L 331.57498 102.3147 
L 331.737389 101.360892 
L 332.062206 101.125281 
L 332.224614 100.106188 
L 332.387023 100.106188 
L 332.549431 101.472794 
L 332.71184 101.508761 
L 333.036657 101.08206 
L 333.199065 102.769769 
L 333.361473 100.95537 
L 333.523882 100.524393 
L 333.68629 94.153735 
L 333.848699 96.975805 
L 334.011107 102.009224 
L 334.173516 102.411632 
L 334.335924 100.261233 
L 334.498333 102.411632 
L 334.660741 98.514632 
L 334.82315 100.199077 
L 334.985558 100.261233 
L 335.147967 110.524023 
L 335.310375 111.081503 
L 335.472784 88.448858 
L 335.635192 109.325055 
L 335.797601 109.472311 
L 335.960009 109.870184 
L 336.122418 104.509229 
L 336.284826 65.988495 
L 336.447235 108.879733 
L 336.609643 108.038098 
L 336.772051 110.178832 
L 336.93446 108.976035 
L 337.096868 88.301721 
L 337.259277 108.296065 
L 337.421685 108.800686 
L 337.584094 99.527366 
L 337.746502 100.747824 
L 337.908911 108.69543 
L 338.071319 108.69543 
L 338.233728 109.870184 
L 338.396136 108.69543 
L 338.558545 109.98798 
L 338.720953 107.649121 
L 338.883362 109.870184 
L 339.208179 109.870184 
L 339.370587 107.555305 
L 339.532996 108.69543 
L 339.695404 107.555305 
L 339.857813 111.081503 
L 340.020221 108.69543 
L 340.182629 109.870184 
L 340.669855 109.870184 
L 340.832263 111.081503 
L 340.994672 109.870184 
L 341.15708 111.081503 
L 341.319489 108.69543 
L 341.481897 108.69543 
L 341.644306 106.448011 
L 341.806714 107.555305 
L 341.969123 101.073311 
L 342.131531 107.555305 
L 342.29394 106.448011 
L 342.618757 107.555305 
L 342.781165 112.331467 
L 342.943574 108.69543 
L 343.105982 109.870184 
L 343.268391 109.870184 
L 343.430799 108.69543 
L 343.593208 111.081503 
L 344.080433 107.555305 
L 344.40525 102.330809 
L 344.567658 104.852667 
L 344.730067 83.485456 
L 344.892475 82.274089 
L 345.054884 79.590282 
L 345.217292 112.331467 
L 345.542109 81.876417 
L 345.704518 113.622321 
L 345.866926 112.331467 
L 346.029335 112.331467 
L 346.191743 111.081503 
L 346.354152 112.331467 
L 346.51656 111.081503 
L 346.678969 114.956488 
L 346.841377 109.870184 
L 347.003786 112.331467 
L 347.328602 108.69543 
L 347.653419 111.081503 
L 347.815828 107.555305 
L 347.978236 111.081503 
L 348.140645 109.870184 
L 348.465462 109.870184 
L 348.62787 114.956488 
L 348.790279 112.331467 
L 348.952687 113.622321 
L 349.115096 112.331467 
L 349.277504 108.69543 
L 349.439913 113.622321 
L 349.602321 113.622321 
L 349.927138 111.081503 
L 350.089547 106.448011 
L 350.251955 113.622321 
L 350.414364 111.081503 
L 350.576772 112.331467 
L 350.73918 111.081503 
L 351.063997 114.956488 
L 351.226406 116.336589 
L 351.388814 113.622321 
L 351.551223 113.622321 
L 351.87604 111.081503 
L 352.200857 111.081503 
L 352.363265 109.870184 
L 352.525674 114.956488 
L 352.850491 112.331467 
L 353.012899 84.300597 
L 353.175308 111.081503 
L 353.500125 113.622321 
L 353.662533 113.622321 
L 353.824942 112.331467 
L 353.98735 112.331467 
L 354.149759 111.081503 
L 354.312167 111.081503 
L 354.474575 108.69543 
L 354.799392 113.622321 
L 355.286618 109.870184 
L 355.449026 112.331467 
L 355.611435 111.081503 
L 355.773843 111.081503 
L 355.936252 112.331467 
L 356.748294 112.331467 
L 357.073111 108.69543 
L 357.23552 111.081503 
L 357.397928 109.870184 
L 357.560337 111.081503 
L 357.722745 108.69543 
L 357.885153 113.622321 
L 358.20997 109.870184 
L 358.372379 109.870184 
L 358.534787 111.081503 
L 358.697196 111.081503 
L 358.859604 109.870184 
L 359.022013 109.870184 
L 359.184421 108.69543 
L 359.34683 108.69543 
L 359.509238 107.555305 
L 359.671647 112.331467 
L 359.834055 112.331467 
L 359.996464 109.870184 
L 360.158872 109.870184 
L 360.321281 107.555305 
L 360.483689 111.081503 
L 360.646098 111.081503 
L 360.808506 106.448011 
L 360.970915 106.448011 
L 361.295732 113.622321 
L 361.620548 109.870184 
L 361.782957 112.331467 
L 362.107774 105.37187 
L 362.270182 104.872 
L 362.432591 108.69543 
L 362.594999 104.325318 
L 362.919816 107.555305 
L 363.082225 106.448011 
L 363.244633 103.701976 
L 363.407042 105.37187 
L 363.56945 105.37187 
L 363.731859 87.504189 
L 363.894267 107.555305 
L 364.056676 104.325318 
L 364.219084 105.37187 
L 364.381493 109.870184 
L 364.70631 102.153411 
L 364.868718 86.880563 
L 365.031126 84.246781 
L 365.193535 103.30689 
L 365.355943 87.504189 
L 365.518352 103.562171 
L 365.68076 83.734452 
L 365.843169 105.196516 
L 366.005577 86.422735 
L 366.167986 108.69543 
L 366.330394 88.107731 
L 366.492803 86.44943 
L 366.655211 104.500477 
L 366.81762 104.805547 
L 366.980028 87.521743 
L 367.142437 95.559334 
L 367.304845 80.302048 
L 367.467254 85.514708 
L 367.629662 78.557037 
L 367.792071 93.538577 
L 367.954479 88.01738 
L 368.116888 90.580116 
L 368.279296 99.248292 
L 368.441704 94.105898 
L 368.604113 95.192185 
L 368.766521 93.206238 
L 368.92893 99.219905 
L 369.091338 94.105898 
L 369.253747 105.411962 
L 369.416155 92.194031 
L 369.578564 104.292088 
L 369.740972 93.180093 
L 369.903381 94.313761 
L 370.065789 99.121593 
L 370.228198 100.077319 
L 370.390606 99.248292 
L 370.553015 92.67666 
L 370.715423 92.788801 
L 370.877832 94.065484 
L 371.04024 86.853792 
L 371.202649 86.748351 
L 371.365057 104.371458 
L 371.527466 100.957391 
L 371.689874 101.590015 
L 371.852283 101.476309 
L 372.014691 93.57748 
L 372.339508 104.050953 
L 372.501916 101.883963 
L 372.664325 84.617798 
L 372.826733 86.140155 
L 372.989142 102.833813 
L 373.15155 100.471 
L 373.313959 93.043021 
L 373.476367 100.094741 
L 373.801184 102.444797 
L 373.963593 101.576953 
L 374.126001 81.361501 
L 374.450818 93.952534 
L 374.613227 91.388198 
L 374.775635 94.713079 
L 374.938044 105.196516 
L 375.100452 105.411962 
L 375.262861 93.380379 
L 375.425269 89.990821 
L 375.587677 101.395362 
L 375.750086 89.983974 
L 375.912494 87.817848 
L 376.074903 103.174072 
L 376.237311 104.484409 
L 376.39972 101.706798 
L 376.562128 101.567825 
L 376.886945 105.088706 
L 377.049354 103.25967 
L 377.211762 99.303844 
L 377.374171 102.730762 
L 377.536579 102.090696 
L 377.698988 103.612819 
L 377.861396 94.66424 
L 378.023805 104.579423 
L 378.186213 104.984899 
L 378.348622 102.909256 
L 378.673439 104.880816 
L 378.835847 105.196516 
L 378.998255 105.196516 
L 379.323072 103.612819 
L 379.485481 95.305424 
L 379.647889 103.837319 
L 379.810298 95.223623 
L 379.972706 104.0186 
L 380.135115 104.985723 
L 380.297523 97.213324 
L 380.459932 105.411962 
L 380.62234 104.120567 
L 380.784749 105.196516 
L 381.109566 104.394805 
L 381.271974 105.411962 
L 381.434383 104.0186 
L 381.596791 104.103555 
L 381.921608 105.411962 
L 382.246425 104.120567 
L 382.408834 104.204429 
L 382.73365 103.859953 
L 382.896059 106.778966 
L 383.058467 104.292088 
L 383.220876 104.579423 
L 383.383284 104.204429 
L 383.545693 105.088706 
L 383.708101 104.292088 
L 383.87051 88.483987 
L 384.032918 105.411962 
L 384.357735 105.411962 
L 384.520144 104.478884 
L 384.682552 105.411962 
L 384.844961 104.880816 
L 385.007369 107.291883 
L 385.169778 105.088706 
L 385.494595 105.411962 
L 385.657003 91.429252 
L 385.819412 105.411962 
L 385.98182 105.411962 
L 386.144228 104.383565 
L 386.306637 104.485185 
L 386.469045 105.411962 
L 386.631454 104.005594 
L 386.793862 105.411962 
L 386.956271 105.411962 
L 387.281088 104.682845 
L 387.443496 105.196516 
L 387.605905 105.196516 
L 388.09313 104.478884 
L 388.255539 105.308368 
L 388.417947 104.984899 
L 388.580356 105.088706 
L 388.742764 104.880816 
L 388.905173 104.204429 
L 389.067581 104.579423 
L 389.22999 105.411962 
L 389.554806 105.196516 
L 389.717215 105.411962 
L 389.879623 105.301212 
L 390.042032 105.411962 
L 390.20444 104.579423 
L 390.366849 105.196516 
L 390.691666 103.919584 
L 390.854074 104.985723 
L 391.016483 105.196516 
L 391.178891 104.880816 
L 391.3413 104.880816 
L 391.503708 104.677544 
L 391.828525 105.196516 
L 392.153342 104.985723 
L 392.315751 105.411962 
L 392.478159 105.196516 
L 392.640568 104.579423 
L 392.802976 104.579423 
L 393.290201 105.411962 
L 393.615018 104.985723 
L 393.777427 104.985723 
L 393.939835 96.669745 
L 394.102244 105.411962 
L 394.264652 105.411962 
L 394.427061 105.196516 
L 394.589469 105.411962 
L 394.751878 105.411962 
L 394.914286 104.985723 
L 395.076695 105.411962 
L 395.239103 104.579423 
L 395.56392 105.411962 
L 395.726329 105.196516 
L 395.888737 105.411962 
L 396.051146 104.677544 
L 396.375963 105.411962 
L 396.538371 105.411962 
L 396.700779 105.196516 
L 396.863188 105.411962 
L 397.025596 104.478884 
L 397.188005 104.77958 
L 397.350413 103.937404 
L 397.512822 105.411962 
L 397.67523 104.677544 
L 397.837639 105.411962 
L 398.162456 104.880816 
L 398.324864 105.411962 
L 398.487273 105.411962 
L 398.487273 105.411962 
" clip-path="url(#p2c3a56cb8b)" style="fill: none; stroke: #1f77b4; stroke-width: 1.5; stroke-linecap: square"/>
   </g>
   <g id="patch_3">
    <path d="M 57.6 307.584 
L 57.6 41.472 
" style="fill: none; stroke: #000000; stroke-width: 0.8; stroke-linejoin: miter; stroke-linecap: square"/>
   </g>
   <g id="patch_4">
    <path d="M 414.72 307.584 
L 414.72 41.472 
" style="fill: none; stroke: #000000; stroke-width: 0.8; stroke-linejoin: miter; stroke-linecap: square"/>
   </g>
   <g id="patch_5">
    <path d="M 57.6 307.584 
L 414.72 307.584 
" style="fill: none; stroke: #000000; stroke-width: 0.8; stroke-linejoin: miter; stroke-linecap: square"/>
   </g>
   <g id="patch_6">
    <path d="M 57.6 41.472 
L 414.72 41.472 
" style="fill: none; stroke: #000000; stroke-width: 0.8; stroke-linejoin: miter; stroke-linecap: square"/>
   </g>
  </g>
 </g>
 <defs>
  <clipPath id="p2c3a56cb8b">
   <rect x="57.6" y="41.472" width="357.12" height="266.112"/>
  </clipPath>
 </defs>
</svg>
