<?xml version="1.0" encoding="utf-8" standalone="no"?>
<!DOCTYPE svg PUBLIC "-//W3C//DTD SVG 1.1//EN"
  "http://www.w3.org/Graphics/SVG/1.1/DTD/svg11.dtd">
<svg xmlns:xlink="http://www.w3.org/1999/xlink" width="460.8pt" height="345.6pt" viewBox="0 0 460.8 345.6" xmlns="http://www.w3.org/2000/svg" version="1.1">
 <metadata>
  <rdf:RDF xmlns:dc="http://purl.org/dc/elements/1.1/" xmlns:cc="http://creativecommons.org/ns#" xmlns:rdf="http://www.w3.org/1999/02/22-rdf-syntax-ns#">
   <cc:Work>
    <dc:type rdf:resource="http://purl.org/dc/dcmitype/StillImage"/>
    <dc:date>2024-04-28T13:47:51.845606</dc:date>
    <dc:format>image/svg+xml</dc:format>
    <dc:creator>
     <cc:Agent>
      <dc:title>Matplotlib v3.8.2, https://matplotlib.org/</dc:title>
     </cc:Agent>
    </dc:creator>
   </cc:Work>
  </rdf:RDF>
 </metadata>
 <defs>
  <style type="text/css">*{stroke-linejoin: round; stroke-linecap: butt}</style>
 </defs>
 <g id="figure_1">
  <g id="patch_1">
   <path d="M 0 345.6 
L 460.8 345.6 
L 460.8 0 
L 0 0 
z
" style="fill: #ffffff"/>
  </g>
  <g id="axes_1">
   <g id="patch_2">
    <path d="M 57.6 307.584 
L 414.72 307.584 
L 414.72 41.472 
L 57.6 41.472 
z
" style="fill: #ffffff"/>
   </g>
   <g id="matplotlib.axis_1">
    <g id="xtick_1">
     <g id="line2d_1">
      <defs>
       <path id="m9399ec5c81" d="M 0 0 
L 0 3.5 
" style="stroke: #000000; stroke-width: 0.8"/>
      </defs>
      <g>
       <use xlink:href="#m9399ec5c81" x="73.832727" y="307.584" style="stroke: #000000; stroke-width: 0.8"/>
      </g>
     </g>
     <g id="text_1">
      <!-- 0 -->
      <g transform="translate(70.651477 322.182437) scale(0.1 -0.1)">
       <defs>
        <path id="DejaVuSans-30" d="M 2034 4250 
Q 1547 4250 1301 3770 
Q 1056 3291 1056 2328 
Q 1056 1369 1301 889 
Q 1547 409 2034 409 
Q 2525 409 2770 889 
Q 3016 1369 3016 2328 
Q 3016 3291 2770 3770 
Q 2525 4250 2034 4250 
z
M 2034 4750 
Q 2819 4750 3233 4129 
Q 3647 3509 3647 2328 
Q 3647 1150 3233 529 
Q 2819 -91 2034 -91 
Q 1250 -91 836 529 
Q 422 1150 422 2328 
Q 422 3509 836 4129 
Q 1250 4750 2034 4750 
z
" transform="scale(0.015625)"/>
       </defs>
       <use xlink:href="#DejaVuSans-30"/>
      </g>
     </g>
    </g>
    <g id="xtick_2">
     <g id="line2d_2">
      <g>
       <use xlink:href="#m9399ec5c81" x="127.941818" y="307.584" style="stroke: #000000; stroke-width: 0.8"/>
      </g>
     </g>
     <g id="text_2">
      <!-- 100 -->
      <g transform="translate(118.398068 322.182437) scale(0.1 -0.1)">
       <defs>
        <path id="DejaVuSans-31" d="M 794 531 
L 1825 531 
L 1825 4091 
L 703 3866 
L 703 4441 
L 1819 4666 
L 2450 4666 
L 2450 531 
L 3481 531 
L 3481 0 
L 794 0 
L 794 531 
z
" transform="scale(0.015625)"/>
       </defs>
       <use xlink:href="#DejaVuSans-31"/>
       <use xlink:href="#DejaVuSans-30" x="63.623047"/>
       <use xlink:href="#DejaVuSans-30" x="127.246094"/>
      </g>
     </g>
    </g>
    <g id="xtick_3">
     <g id="line2d_3">
      <g>
       <use xlink:href="#m9399ec5c81" x="182.050909" y="307.584" style="stroke: #000000; stroke-width: 0.8"/>
      </g>
     </g>
     <g id="text_3">
      <!-- 200 -->
      <g transform="translate(172.507159 322.182437) scale(0.1 -0.1)">
       <defs>
        <path id="DejaVuSans-32" d="M 1228 531 
L 3431 531 
L 3431 0 
L 469 0 
L 469 531 
Q 828 903 1448 1529 
Q 2069 2156 2228 2338 
Q 2531 2678 2651 2914 
Q 2772 3150 2772 3378 
Q 2772 3750 2511 3984 
Q 2250 4219 1831 4219 
Q 1534 4219 1204 4116 
Q 875 4013 500 3803 
L 500 4441 
Q 881 4594 1212 4672 
Q 1544 4750 1819 4750 
Q 2544 4750 2975 4387 
Q 3406 4025 3406 3419 
Q 3406 3131 3298 2873 
Q 3191 2616 2906 2266 
Q 2828 2175 2409 1742 
Q 1991 1309 1228 531 
z
" transform="scale(0.015625)"/>
       </defs>
       <use xlink:href="#DejaVuSans-32"/>
       <use xlink:href="#DejaVuSans-30" x="63.623047"/>
       <use xlink:href="#DejaVuSans-30" x="127.246094"/>
      </g>
     </g>
    </g>
    <g id="xtick_4">
     <g id="line2d_4">
      <g>
       <use xlink:href="#m9399ec5c81" x="236.16" y="307.584" style="stroke: #000000; stroke-width: 0.8"/>
      </g>
     </g>
     <g id="text_4">
      <!-- 300 -->
      <g transform="translate(226.61625 322.182437) scale(0.1 -0.1)">
       <defs>
        <path id="DejaVuSans-33" d="M 2597 2516 
Q 3050 2419 3304 2112 
Q 3559 1806 3559 1356 
Q 3559 666 3084 287 
Q 2609 -91 1734 -91 
Q 1441 -91 1130 -33 
Q 819 25 488 141 
L 488 750 
Q 750 597 1062 519 
Q 1375 441 1716 441 
Q 2309 441 2620 675 
Q 2931 909 2931 1356 
Q 2931 1769 2642 2001 
Q 2353 2234 1838 2234 
L 1294 2234 
L 1294 2753 
L 1863 2753 
Q 2328 2753 2575 2939 
Q 2822 3125 2822 3475 
Q 2822 3834 2567 4026 
Q 2313 4219 1838 4219 
Q 1578 4219 1281 4162 
Q 984 4106 628 3988 
L 628 4550 
Q 988 4650 1302 4700 
Q 1616 4750 1894 4750 
Q 2613 4750 3031 4423 
Q 3450 4097 3450 3541 
Q 3450 3153 3228 2886 
Q 3006 2619 2597 2516 
z
" transform="scale(0.015625)"/>
       </defs>
       <use xlink:href="#DejaVuSans-33"/>
       <use xlink:href="#DejaVuSans-30" x="63.623047"/>
       <use xlink:href="#DejaVuSans-30" x="127.246094"/>
      </g>
     </g>
    </g>
    <g id="xtick_5">
     <g id="line2d_5">
      <g>
       <use xlink:href="#m9399ec5c81" x="290.269091" y="307.584" style="stroke: #000000; stroke-width: 0.8"/>
      </g>
     </g>
     <g id="text_5">
      <!-- 400 -->
      <g transform="translate(280.725341 322.182437) scale(0.1 -0.1)">
       <defs>
        <path id="DejaVuSans-34" d="M 2419 4116 
L 825 1625 
L 2419 1625 
L 2419 4116 
z
M 2253 4666 
L 3047 4666 
L 3047 1625 
L 3713 1625 
L 3713 1100 
L 3047 1100 
L 3047 0 
L 2419 0 
L 2419 1100 
L 313 1100 
L 313 1709 
L 2253 4666 
z
" transform="scale(0.015625)"/>
       </defs>
       <use xlink:href="#DejaVuSans-34"/>
       <use xlink:href="#DejaVuSans-30" x="63.623047"/>
       <use xlink:href="#DejaVuSans-30" x="127.246094"/>
      </g>
     </g>
    </g>
    <g id="xtick_6">
     <g id="line2d_6">
      <g>
       <use xlink:href="#m9399ec5c81" x="344.378182" y="307.584" style="stroke: #000000; stroke-width: 0.8"/>
      </g>
     </g>
     <g id="text_6">
      <!-- 500 -->
      <g transform="translate(334.834432 322.182437) scale(0.1 -0.1)">
       <defs>
        <path id="DejaVuSans-35" d="M 691 4666 
L 3169 4666 
L 3169 4134 
L 1269 4134 
L 1269 2991 
Q 1406 3038 1543 3061 
Q 1681 3084 1819 3084 
Q 2600 3084 3056 2656 
Q 3513 2228 3513 1497 
Q 3513 744 3044 326 
Q 2575 -91 1722 -91 
Q 1428 -91 1123 -41 
Q 819 9 494 109 
L 494 744 
Q 775 591 1075 516 
Q 1375 441 1709 441 
Q 2250 441 2565 725 
Q 2881 1009 2881 1497 
Q 2881 1984 2565 2268 
Q 2250 2553 1709 2553 
Q 1456 2553 1204 2497 
Q 953 2441 691 2322 
L 691 4666 
z
" transform="scale(0.015625)"/>
       </defs>
       <use xlink:href="#DejaVuSans-35"/>
       <use xlink:href="#DejaVuSans-30" x="63.623047"/>
       <use xlink:href="#DejaVuSans-30" x="127.246094"/>
      </g>
     </g>
    </g>
    <g id="xtick_7">
     <g id="line2d_7">
      <g>
       <use xlink:href="#m9399ec5c81" x="398.487273" y="307.584" style="stroke: #000000; stroke-width: 0.8"/>
      </g>
     </g>
     <g id="text_7">
      <!-- 600 -->
      <g transform="translate(388.943523 322.182437) scale(0.1 -0.1)">
       <defs>
        <path id="DejaVuSans-36" d="M 2113 2584 
Q 1688 2584 1439 2293 
Q 1191 2003 1191 1497 
Q 1191 994 1439 701 
Q 1688 409 2113 409 
Q 2538 409 2786 701 
Q 3034 994 3034 1497 
Q 3034 2003 2786 2293 
Q 2538 2584 2113 2584 
z
M 3366 4563 
L 3366 3988 
Q 3128 4100 2886 4159 
Q 2644 4219 2406 4219 
Q 1781 4219 1451 3797 
Q 1122 3375 1075 2522 
Q 1259 2794 1537 2939 
Q 1816 3084 2150 3084 
Q 2853 3084 3261 2657 
Q 3669 2231 3669 1497 
Q 3669 778 3244 343 
Q 2819 -91 2113 -91 
Q 1303 -91 875 529 
Q 447 1150 447 2328 
Q 447 3434 972 4092 
Q 1497 4750 2381 4750 
Q 2619 4750 2861 4703 
Q 3103 4656 3366 4563 
z
" transform="scale(0.015625)"/>
       </defs>
       <use xlink:href="#DejaVuSans-36"/>
       <use xlink:href="#DejaVuSans-30" x="63.623047"/>
       <use xlink:href="#DejaVuSans-30" x="127.246094"/>
      </g>
     </g>
    </g>
   </g>
   <g id="matplotlib.axis_2">
    <g id="ytick_1">
     <g id="line2d_8">
      <defs>
       <path id="mb5d33eb685" d="M 0 0 
L -3.5 0 
" style="stroke: #000000; stroke-width: 0.8"/>
      </defs>
      <g>
       <use xlink:href="#mb5d33eb685" x="57.6" y="295.89381" style="stroke: #000000; stroke-width: 0.8"/>
      </g>
     </g>
     <g id="text_8">
      <!-- −80 -->
      <g transform="translate(29.495313 299.693029) scale(0.1 -0.1)">
       <defs>
        <path id="DejaVuSans-2212" d="M 678 2272 
L 4684 2272 
L 4684 1741 
L 678 1741 
L 678 2272 
z
" transform="scale(0.015625)"/>
        <path id="DejaVuSans-38" d="M 2034 2216 
Q 1584 2216 1326 1975 
Q 1069 1734 1069 1313 
Q 1069 891 1326 650 
Q 1584 409 2034 409 
Q 2484 409 2743 651 
Q 3003 894 3003 1313 
Q 3003 1734 2745 1975 
Q 2488 2216 2034 2216 
z
M 1403 2484 
Q 997 2584 770 2862 
Q 544 3141 544 3541 
Q 544 4100 942 4425 
Q 1341 4750 2034 4750 
Q 2731 4750 3128 4425 
Q 3525 4100 3525 3541 
Q 3525 3141 3298 2862 
Q 3072 2584 2669 2484 
Q 3125 2378 3379 2068 
Q 3634 1759 3634 1313 
Q 3634 634 3220 271 
Q 2806 -91 2034 -91 
Q 1263 -91 848 271 
Q 434 634 434 1313 
Q 434 1759 690 2068 
Q 947 2378 1403 2484 
z
M 1172 3481 
Q 1172 3119 1398 2916 
Q 1625 2713 2034 2713 
Q 2441 2713 2670 2916 
Q 2900 3119 2900 3481 
Q 2900 3844 2670 4047 
Q 2441 4250 2034 4250 
Q 1625 4250 1398 4047 
Q 1172 3844 1172 3481 
z
" transform="scale(0.015625)"/>
       </defs>
       <use xlink:href="#DejaVuSans-2212"/>
       <use xlink:href="#DejaVuSans-38" x="83.789062"/>
       <use xlink:href="#DejaVuSans-30" x="147.412109"/>
      </g>
     </g>
    </g>
    <g id="ytick_2">
     <g id="line2d_9">
      <g>
       <use xlink:href="#mb5d33eb685" x="57.6" y="248.76226" style="stroke: #000000; stroke-width: 0.8"/>
      </g>
     </g>
     <g id="text_9">
      <!-- −60 -->
      <g transform="translate(29.495313 252.561479) scale(0.1 -0.1)">
       <use xlink:href="#DejaVuSans-2212"/>
       <use xlink:href="#DejaVuSans-36" x="83.789062"/>
       <use xlink:href="#DejaVuSans-30" x="147.412109"/>
      </g>
     </g>
    </g>
    <g id="ytick_3">
     <g id="line2d_10">
      <g>
       <use xlink:href="#mb5d33eb685" x="57.6" y="201.630711" style="stroke: #000000; stroke-width: 0.8"/>
      </g>
     </g>
     <g id="text_10">
      <!-- −40 -->
      <g transform="translate(29.495313 205.429929) scale(0.1 -0.1)">
       <use xlink:href="#DejaVuSans-2212"/>
       <use xlink:href="#DejaVuSans-34" x="83.789062"/>
       <use xlink:href="#DejaVuSans-30" x="147.412109"/>
      </g>
     </g>
    </g>
    <g id="ytick_4">
     <g id="line2d_11">
      <g>
       <use xlink:href="#mb5d33eb685" x="57.6" y="154.499161" style="stroke: #000000; stroke-width: 0.8"/>
      </g>
     </g>
     <g id="text_11">
      <!-- −20 -->
      <g transform="translate(29.495313 158.29838) scale(0.1 -0.1)">
       <use xlink:href="#DejaVuSans-2212"/>
       <use xlink:href="#DejaVuSans-32" x="83.789062"/>
       <use xlink:href="#DejaVuSans-30" x="147.412109"/>
      </g>
     </g>
    </g>
    <g id="ytick_5">
     <g id="line2d_12">
      <g>
       <use xlink:href="#mb5d33eb685" x="57.6" y="107.367612" style="stroke: #000000; stroke-width: 0.8"/>
      </g>
     </g>
     <g id="text_12">
      <!-- 0 -->
      <g transform="translate(44.2375 111.16683) scale(0.1 -0.1)">
       <use xlink:href="#DejaVuSans-30"/>
      </g>
     </g>
    </g>
    <g id="ytick_6">
     <g id="line2d_13">
      <g>
       <use xlink:href="#mb5d33eb685" x="57.6" y="60.236062" style="stroke: #000000; stroke-width: 0.8"/>
      </g>
     </g>
     <g id="text_13">
      <!-- 20 -->
      <g transform="translate(37.875 64.035281) scale(0.1 -0.1)">
       <use xlink:href="#DejaVuSans-32"/>
       <use xlink:href="#DejaVuSans-30" x="63.623047"/>
      </g>
     </g>
    </g>
   </g>
   <g id="line2d_14">
    <path d="M 73.832727 101.702519 
" clip-path="url(#pf0a6706883)" style="fill: none; stroke: #1f77b4; stroke-width: 1.5; stroke-linecap: square"/>
   </g>
   <g id="line2d_15">
    <path d="M 73.832727 101.702519 
L 74.373818 98.606797 
L 74.914909 81.566549 
L 75.456 104.949489 
L 75.997091 106.581787 
L 76.538182 79.278432 
L 77.079273 105.362243 
L 77.620364 93.263129 
L 78.161455 101.814982 
L 78.702545 90.701708 
L 79.243636 94.110438 
L 79.784727 86.830892 
L 80.325818 90.102376 
L 80.866909 92.383684 
L 81.408 101.597315 
L 81.949091 93.098143 
L 82.490182 102.613736 
L 83.031273 295.488 
L 83.572364 92.526596 
L 84.113455 93.737288 
L 84.654545 92.953907 
L 85.195636 92.395377 
L 85.736727 92.993014 
L 86.277818 94.39876 
L 86.818909 101.989786 
L 87.36 82.205734 
L 87.901091 93.231244 
L 88.442182 101.505647 
L 88.983273 93.525985 
L 89.524364 93.616359 
L 90.065455 94.645612 
L 90.606545 93.398429 
L 91.147636 94.124019 
L 91.688727 93.953077 
L 92.229818 103.151091 
L 92.770909 93.826792 
L 93.312 93.178737 
L 93.853091 94.37506 
L 94.394182 94.771747 
L 94.935273 132.816399 
L 95.476364 95.571759 
L 96.017455 93.9336 
L 96.558545 94.079459 
L 97.099636 94.169365 
L 97.640727 94.170099 
L 98.181818 94.126609 
L 98.722909 95.466555 
L 99.264 94.918054 
L 99.805091 94.885571 
L 100.346182 95.494886 
L 100.887273 94.133894 
L 101.428364 94.156823 
L 101.969455 96.374954 
L 102.510545 96.131471 
L 103.051636 95.425821 
L 103.592727 85.046806 
L 104.133818 95.986001 
L 104.674909 75.053268 
L 105.216 97.01122 
L 105.757091 95.50462 
L 106.298182 98.201036 
L 106.839273 96.714142 
L 107.380364 96.461803 
L 107.921455 97.042754 
L 108.462545 96.474491 
L 109.003636 97.07538 
L 109.544727 102.399175 
L 110.085818 96.592165 
L 110.626909 101.256995 
L 111.168 96.675967 
L 111.709091 95.466608 
L 112.250182 97.811936 
L 112.791273 99.3996 
L 113.332364 96.357378 
L 113.873455 96.759594 
L 114.414545 151.038526 
L 114.955636 104.636234 
L 115.496727 72.9609 
L 116.037818 75.422287 
L 116.578909 97.074155 
L 117.12 96.282705 
L 117.661091 97.747306 
L 118.202182 98.751137 
L 118.743273 97.329099 
L 119.284364 98.59552 
L 119.825455 97.771091 
L 120.366545 185.832695 
L 120.907636 99.244898 
L 121.448727 98.6355 
L 121.989818 106.372542 
L 122.530909 96.944274 
L 123.072 86.683847 
L 123.613091 98.151796 
L 124.154182 97.817625 
L 124.695273 98.297899 
L 125.236364 77.229303 
L 125.777455 97.835137 
L 126.318545 100.200562 
L 126.859636 97.998838 
L 127.400727 96.998655 
L 127.941818 98.391731 
" clip-path="url(#pf0a6706883)" style="fill: none; stroke: #ff7f0e; stroke-width: 1.5; stroke-linecap: square"/>
   </g>
   <g id="line2d_16">
    <path d="M 73.832727 101.702519 
L 74.373818 98.606797 
L 74.914909 81.566549 
L 75.456 104.949489 
L 75.997091 106.581787 
L 76.538182 79.278432 
L 77.079273 105.362243 
L 77.620364 93.263129 
L 78.161455 101.814982 
L 78.702545 90.701708 
L 79.243636 94.110438 
L 79.784727 86.830892 
L 80.325818 90.102376 
L 80.866909 92.383684 
L 81.408 101.597315 
L 81.949091 93.098143 
L 82.490182 102.613736 
L 83.031273 295.488 
L 83.572364 92.526596 
L 84.113455 93.737288 
L 84.654545 92.953907 
L 85.195636 92.395377 
L 85.736727 92.993014 
L 86.277818 94.39876 
L 86.818909 101.989786 
L 87.36 82.205734 
L 87.901091 93.231244 
L 88.442182 101.505647 
L 88.983273 93.525985 
L 89.524364 93.616359 
L 90.065455 94.645612 
L 90.606545 93.398429 
L 91.147636 94.124019 
L 91.688727 93.953077 
L 92.229818 103.151091 
L 92.770909 93.826792 
L 93.312 93.178737 
L 93.853091 94.37506 
L 94.394182 94.771747 
L 94.935273 132.816399 
L 95.476364 95.571759 
L 96.017455 93.9336 
L 97.099636 94.169365 
L 98.181818 94.126609 
L 98.722909 95.466555 
L 99.264 94.918054 
L 99.805091 94.885571 
L 100.346182 95.494886 
L 100.887273 94.133894 
L 101.428364 94.156823 
L 101.969455 96.374954 
L 102.510545 96.131471 
L 103.051636 95.425821 
L 103.592727 85.046806 
L 104.133818 95.986001 
L 104.674909 75.053268 
L 105.216 97.01122 
L 105.757091 95.50462 
L 106.298182 98.201036 
L 106.839273 96.714142 
L 107.380364 96.461803 
L 107.921455 97.042754 
L 108.462545 96.474491 
L 109.003636 97.07538 
L 109.544727 102.399175 
L 110.085818 96.592165 
L 110.626909 101.256995 
L 111.168 96.675967 
L 111.709091 95.466608 
L 112.250182 97.811936 
L 112.791273 99.3996 
L 113.332364 96.357378 
L 113.873455 96.759594 
L 114.414545 151.038526 
L 114.955636 104.636234 
L 115.496727 72.9609 
L 116.037818 75.422287 
L 116.578909 97.074155 
L 117.12 96.282705 
L 117.661091 97.747306 
L 118.202182 98.751137 
L 118.743273 97.329099 
L 119.284364 98.59552 
L 119.825455 97.771091 
L 120.366545 185.832695 
L 120.907636 99.244898 
L 121.448727 98.6355 
L 121.989818 106.372542 
L 123.072 86.683847 
L 123.613091 98.151796 
L 124.154182 97.817625 
L 124.695273 98.297899 
L 125.236364 77.229303 
L 125.777455 97.835137 
L 126.318545 100.200562 
L 126.859636 97.998838 
L 127.400727 96.998655 
L 127.941818 98.391731 
L 128.482909 97.15105 
L 129.024 78.261271 
L 129.565091 97.595387 
L 130.106182 97.564417 
L 130.647273 98.235933 
L 131.188364 98.391731 
L 131.729455 97.835137 
L 132.270545 98.184174 
L 132.811636 98.094756 
L 133.352727 97.367704 
L 133.893818 97.156627 
L 134.434909 97.397428 
L 134.976 96.711715 
L 135.517091 97.835137 
L 136.058182 97.500436 
L 136.599273 97.434871 
L 137.140364 97.747306 
L 137.681455 97.718584 
L 138.222545 97.083188 
L 138.763636 96.93212 
L 139.304727 97.008318 
L 139.845818 97.367704 
L 140.386909 97.132361 
L 140.928 97.434871 
L 141.469091 97.397428 
L 142.010182 96.776288 
L 143.092364 97.327899 
L 143.633455 97.914369 
L 144.174545 97.256637 
L 144.715636 96.834006 
L 145.797818 96.93212 
L 146.338909 97.256637 
L 146.88 96.877104 
L 147.421091 80.585596 
L 147.962182 97.298928 
L 148.503273 96.854723 
L 149.585455 96.939917 
L 150.126545 80.949762 
L 150.667636 104.711989 
L 151.208727 97.29568 
L 151.749818 96.93212 
L 152.290909 97.222917 
L 152.832 96.854723 
L 153.373091 80.767799 
L 153.914182 85.54158 
L 154.455273 96.840574 
L 154.996364 96.63542 
L 155.537455 97.035055 
L 156.078545 96.461193 
L 156.619636 99.022905 
L 157.160727 95.762568 
L 157.701818 106.466554 
L 158.242909 98.952352 
L 158.784 96.776288 
L 159.325091 96.854723 
L 159.866182 97.244413 
L 160.407273 103.017656 
L 160.948364 96.461193 
L 161.489455 103.017656 
L 162.030545 97.806096 
L 162.571636 96.854723 
L 163.112727 94.544104 
L 163.653818 96.854723 
L 164.194909 102.191963 
L 164.736 96.776288 
L 165.277091 96.908834 
L 165.818182 96.385902 
L 166.359273 163.911786 
L 166.900364 80.766558 
L 167.441455 105.581511 
L 167.982545 96.854723 
L 168.523636 103.857521 
L 169.064727 97.90036 
L 169.605818 156.380487 
L 170.146909 100.645594 
L 170.688 97.734435 
L 171.229091 96.595392 
L 171.770182 96.518379 
L 172.852364 103.857521 
L 173.393455 63.218515 
L 173.934545 89.396151 
L 174.475636 103.37177 
L 175.016727 103.017656 
L 175.557818 106.466554 
L 176.098909 67.666578 
L 176.64 105.581511 
L 177.181091 97.410178 
L 177.722182 195.838795 
L 178.263273 101.380029 
L 178.804364 100.32059 
L 179.345455 97.035055 
L 179.886545 104.685293 
L 180.427636 102.191963 
L 180.968727 103.105766 
L 181.509818 90.858064 
L 182.050909 84.195877 
L 182.050909 84.195877 
" clip-path="url(#pf0a6706883)" style="fill: none; stroke: #2ca02c; stroke-width: 1.5; stroke-linecap: square"/>
   </g>
   <g id="line2d_17">
    <path d="M 73.832727 101.702519 
L 74.373818 98.606797 
L 74.914909 81.566549 
L 75.456 104.949489 
L 75.997091 106.581787 
L 76.538182 79.278432 
L 77.079273 105.362243 
L 77.620364 93.263129 
L 78.161455 101.814982 
L 78.702545 90.701708 
L 79.243636 94.110438 
L 79.784727 86.830892 
L 80.325818 90.102376 
L 80.866909 92.383684 
L 81.408 101.597315 
L 81.949091 93.098143 
L 82.490182 102.613736 
L 83.031273 295.488 
L 83.572364 92.526596 
L 84.113455 93.737288 
L 84.654545 92.953907 
L 85.195636 92.395377 
L 85.736727 92.993014 
L 86.277818 94.39876 
L 86.818909 101.989786 
L 87.36 82.205734 
L 87.901091 93.231244 
L 88.442182 101.505647 
L 88.983273 93.525985 
L 89.524364 93.616359 
L 90.065455 94.645612 
L 90.606545 93.398429 
L 91.147636 94.124019 
L 91.688727 93.953077 
L 92.229818 103.151091 
L 92.770909 93.826792 
L 93.312 93.178737 
L 93.853091 94.37506 
L 94.394182 94.771747 
L 94.935273 132.816399 
L 95.476364 95.571759 
L 96.017455 93.9336 
L 97.099636 94.169365 
L 98.181818 94.126609 
L 98.722909 95.466555 
L 99.264 94.918054 
L 99.805091 94.885571 
L 100.346182 95.494886 
L 100.887273 94.133894 
L 101.428364 94.156823 
L 101.969455 96.374954 
L 102.510545 96.131471 
L 103.051636 95.425821 
L 103.592727 85.046806 
L 104.133818 95.986001 
L 104.674909 75.053268 
L 105.216 97.01122 
L 105.757091 95.50462 
L 106.298182 98.201036 
L 106.839273 96.714142 
L 107.380364 96.461803 
L 107.921455 97.042754 
L 108.462545 96.474491 
L 109.003636 97.07538 
L 109.544727 102.399175 
L 110.085818 96.592165 
L 110.626909 101.256995 
L 111.168 96.675967 
L 111.709091 95.466608 
L 112.250182 97.811936 
L 112.791273 99.3996 
L 113.332364 96.357378 
L 113.873455 96.759594 
L 114.414545 151.038526 
L 114.955636 104.636234 
L 115.496727 72.9609 
L 116.037818 75.422287 
L 116.578909 97.074155 
L 117.12 96.282705 
L 117.661091 97.747306 
L 118.202182 98.751137 
L 118.743273 97.329099 
L 119.284364 98.59552 
L 119.825455 97.771091 
L 120.366545 185.832695 
L 120.907636 99.244898 
L 121.448727 98.6355 
L 121.989818 106.372542 
L 123.072 86.683847 
L 123.613091 98.151796 
L 124.154182 97.817625 
L 124.695273 98.297899 
L 125.236364 77.229303 
L 125.777455 97.835137 
L 126.318545 100.200562 
L 126.859636 97.998838 
L 127.400727 96.998655 
L 127.941818 98.391731 
L 128.482909 97.15105 
L 129.024 78.261271 
L 129.565091 97.595387 
L 130.106182 97.564417 
L 130.647273 98.235933 
L 131.188364 98.391731 
L 131.729455 97.835137 
L 132.270545 98.184174 
L 132.811636 98.094756 
L 133.352727 97.367704 
L 133.893818 97.156627 
L 134.434909 97.397428 
L 134.976 96.711715 
L 135.517091 97.835137 
L 136.058182 97.500436 
L 136.599273 97.434871 
L 137.140364 97.747306 
L 137.681455 97.718584 
L 138.222545 97.083188 
L 138.763636 96.93212 
L 139.304727 97.008318 
L 139.845818 97.367704 
L 140.386909 97.132361 
L 140.928 97.434871 
L 141.469091 97.397428 
L 142.010182 96.776288 
L 143.092364 97.327899 
L 143.633455 97.914369 
L 144.174545 97.256637 
L 144.715636 96.834006 
L 145.797818 96.93212 
L 146.338909 97.256637 
L 146.88 96.877104 
L 147.421091 80.585596 
L 147.962182 97.298928 
L 148.503273 96.854723 
L 149.585455 96.939917 
L 150.126545 80.949762 
L 150.667636 104.711989 
L 151.208727 97.29568 
L 151.749818 96.93212 
L 152.290909 97.222917 
L 152.832 96.854723 
L 153.373091 80.767799 
L 153.914182 85.54158 
L 154.455273 96.840574 
L 154.996364 96.63542 
L 155.537455 97.035055 
L 156.078545 96.461193 
L 156.619636 99.022905 
L 157.160727 95.762568 
L 157.701818 106.466554 
L 158.242909 98.952352 
L 158.784 96.776288 
L 159.325091 96.854723 
L 159.866182 97.244413 
L 160.407273 103.017656 
L 160.948364 96.461193 
L 161.489455 103.017656 
L 162.030545 97.806096 
L 162.571636 96.854723 
L 163.112727 94.544104 
L 163.653818 96.854723 
L 164.194909 102.191963 
L 164.736 96.776288 
L 165.277091 96.908834 
L 165.818182 96.385902 
L 166.359273 163.911786 
L 166.900364 80.766558 
L 167.441455 105.581511 
L 167.982545 96.854723 
L 168.523636 103.857521 
L 169.064727 97.90036 
L 169.605818 156.380487 
L 170.146909 100.645594 
L 170.688 97.734435 
L 171.229091 96.595392 
L 171.770182 96.518379 
L 172.852364 103.857521 
L 173.393455 63.218515 
L 173.934545 89.396151 
L 174.475636 103.37177 
L 175.016727 103.017656 
L 175.557818 106.466554 
L 176.098909 67.666578 
L 176.64 105.581511 
L 177.181091 97.410178 
L 177.722182 195.838795 
L 178.263273 101.380029 
L 178.804364 100.32059 
L 179.345455 97.035055 
L 179.886545 104.685293 
L 180.427636 102.191963 
L 180.968727 103.105766 
L 181.509818 90.858064 
L 182.050909 84.195877 
L 182.592 105.581511 
L 183.133091 106.466554 
L 183.674182 94.754925 
L 184.215273 104.711989 
L 184.756364 103.985337 
L 185.297455 106.466554 
L 185.838545 95.849007 
L 186.379636 107.367612 
L 186.920727 97.653237 
L 187.461818 107.367612 
L 188.002909 106.961975 
L 188.544 105.645105 
L 189.085091 100.449466 
L 189.626182 107.367612 
L 190.167273 101.291188 
L 190.708364 105.581511 
L 191.249455 107.367612 
L 191.790545 104.711989 
L 192.331636 96.573465 
L 192.872727 99.235311 
L 193.413818 107.367612 
L 193.954909 106.82825 
L 194.496 107.187592 
L 195.037091 105.581511 
L 195.578182 86.475288 
L 196.119273 174.444019 
L 196.660364 104.763401 
L 197.201455 105.645105 
L 197.742545 107.506567 
L 198.283636 102.713991 
L 198.824727 107.367612 
L 199.365818 106.530025 
L 199.906909 107.367612 
L 200.448 105.72095 
L 200.989091 107.367612 
L 201.530182 101.706618 
L 202.071273 108.2053 
L 202.612364 104.188292 
L 203.153455 108.285195 
L 203.694545 133.612898 
L 204.235636 80.949762 
L 204.776727 103.535176 
L 205.317818 100.888579 
L 205.858909 103.857521 
L 206.4 104.387544 
L 206.941091 107.367612 
L 207.482182 96.888801 
L 208.023273 103.857521 
L 208.564364 106.28693 
L 209.105455 95.897099 
L 209.646545 81.453319 
L 210.187636 106.466554 
L 210.728727 105.941349 
L 211.269818 104.132766 
L 211.810909 104.711989 
L 212.352 103.081565 
L 212.893091 106.019591 
L 213.434182 103.022789 
L 213.975273 105.971529 
L 214.516364 105.125763 
L 215.057455 106.631849 
L 215.598545 106.019591 
L 216.139636 107.584571 
L 216.680727 108.285195 
L 217.221818 102.682543 
L 217.762909 98.658819 
L 218.304 97.796814 
L 218.845091 103.921335 
L 219.386182 105.531072 
L 219.927273 104.222228 
L 220.468364 106.158407 
L 221.009455 102.505789 
L 221.550545 105.581511 
L 222.091636 112.400624 
L 222.632727 106.28693 
L 223.173818 104.638423 
L 223.714909 94.031598 
L 224.256 107.367612 
L 224.797091 93.264329 
L 225.338182 173.338365 
L 225.879273 106.930026 
L 226.961455 107.367612 
L 227.502545 105.632918 
L 228.043636 107.187592 
L 228.584727 110.418473 
L 229.666909 92.791311 
L 230.208 89.374955 
L 230.749091 106.870002 
L 231.290182 105.581511 
L 231.831273 103.904395 
L 232.372364 106.019591 
L 232.913455 96.754021 
L 233.454545 93.987842 
L 233.995636 107.367612 
L 234.536727 92.015884 
L 235.077818 108.336543 
L 235.618909 109.271155 
L 236.16 108.285195 
L 236.16 108.285195 
" clip-path="url(#pf0a6706883)" style="fill: none; stroke: #d62728; stroke-width: 1.5; stroke-linecap: square"/>
   </g>
   <g id="line2d_18">
    <path d="M 73.832727 101.702519 
L 74.373818 98.606797 
L 74.914909 81.566549 
L 75.456 104.949489 
L 75.997091 106.581787 
L 76.538182 79.278432 
L 77.079273 105.362243 
L 77.620364 93.263129 
L 78.161455 101.814982 
L 78.702545 90.701708 
L 79.243636 94.110438 
L 79.784727 86.830892 
L 80.325818 90.102376 
L 80.866909 92.383684 
L 81.408 101.597315 
L 81.949091 93.098143 
L 82.490182 102.613736 
L 83.031273 295.488 
L 83.572364 92.526596 
L 84.113455 93.737288 
L 84.654545 92.953907 
L 85.195636 92.395377 
L 85.736727 92.993014 
L 86.277818 94.39876 
L 86.818909 101.989786 
L 87.36 82.205734 
L 87.901091 93.231244 
L 88.442182 101.505647 
L 88.983273 93.525985 
L 89.524364 93.616359 
L 90.065455 94.645612 
L 90.606545 93.398429 
L 91.147636 94.124019 
L 91.688727 93.953077 
L 92.229818 103.151091 
L 92.770909 93.826792 
L 93.312 93.178737 
L 93.853091 94.37506 
L 94.394182 94.771747 
L 94.935273 132.816399 
L 95.476364 95.571759 
L 96.017455 93.9336 
L 97.099636 94.169365 
L 98.181818 94.126609 
L 98.722909 95.466555 
L 99.264 94.918054 
L 99.805091 94.885571 
L 100.346182 95.494886 
L 100.887273 94.133894 
L 101.428364 94.156823 
L 101.969455 96.374954 
L 102.510545 96.131471 
L 103.051636 95.425821 
L 103.592727 85.046806 
L 104.133818 95.986001 
L 104.674909 75.053268 
L 105.216 97.01122 
L 105.757091 95.50462 
L 106.298182 98.201036 
L 106.839273 96.714142 
L 107.380364 96.461803 
L 107.921455 97.042754 
L 108.462545 96.474491 
L 109.003636 97.07538 
L 109.544727 102.399175 
L 110.085818 96.592165 
L 110.626909 101.256995 
L 111.168 96.675967 
L 111.709091 95.466608 
L 112.250182 97.811936 
L 112.791273 99.3996 
L 113.332364 96.357378 
L 113.873455 96.759594 
L 114.414545 151.038526 
L 114.955636 104.636234 
L 115.496727 72.9609 
L 116.037818 75.422287 
L 116.578909 97.074155 
L 117.12 96.282705 
L 117.661091 97.747306 
L 118.202182 98.751137 
L 118.743273 97.329099 
L 119.284364 98.59552 
L 119.825455 97.771091 
L 120.366545 185.832695 
L 120.907636 99.244898 
L 121.448727 98.6355 
L 121.989818 106.372542 
L 123.072 86.683847 
L 123.613091 98.151796 
L 124.154182 97.817625 
L 124.695273 98.297899 
L 125.236364 77.229303 
L 125.777455 97.835137 
L 126.318545 100.200562 
L 126.859636 97.998838 
L 127.400727 96.998655 
L 127.941818 98.391731 
L 128.482909 97.15105 
L 129.024 78.261271 
L 129.565091 97.595387 
L 130.106182 97.564417 
L 130.647273 98.235933 
L 131.188364 98.391731 
L 131.729455 97.835137 
L 132.270545 98.184174 
L 132.811636 98.094756 
L 133.352727 97.367704 
L 133.893818 97.156627 
L 134.434909 97.397428 
L 134.976 96.711715 
L 135.517091 97.835137 
L 136.058182 97.500436 
L 136.599273 97.434871 
L 137.140364 97.747306 
L 137.681455 97.718584 
L 138.222545 97.083188 
L 138.763636 96.93212 
L 139.304727 97.008318 
L 139.845818 97.367704 
L 140.386909 97.132361 
L 140.928 97.434871 
L 141.469091 97.397428 
L 142.010182 96.776288 
L 143.092364 97.327899 
L 143.633455 97.914369 
L 144.174545 97.256637 
L 144.715636 96.834006 
L 145.797818 96.93212 
L 146.338909 97.256637 
L 146.88 96.877104 
L 147.421091 80.585596 
L 147.962182 97.298928 
L 148.503273 96.854723 
L 149.585455 96.939917 
L 150.126545 80.949762 
L 150.667636 104.711989 
L 151.208727 97.29568 
L 151.749818 96.93212 
L 152.290909 97.222917 
L 152.832 96.854723 
L 153.373091 80.767799 
L 153.914182 85.54158 
L 154.455273 96.840574 
L 154.996364 96.63542 
L 155.537455 97.035055 
L 156.078545 96.461193 
L 156.619636 99.022905 
L 157.160727 95.762568 
L 157.701818 106.466554 
L 158.242909 98.952352 
L 158.784 96.776288 
L 159.325091 96.854723 
L 159.866182 97.244413 
L 160.407273 103.017656 
L 160.948364 96.461193 
L 161.489455 103.017656 
L 162.030545 97.806096 
L 162.571636 96.854723 
L 163.112727 94.544104 
L 163.653818 96.854723 
L 164.194909 102.191963 
L 164.736 96.776288 
L 165.277091 96.908834 
L 165.818182 96.385902 
L 166.359273 163.911786 
L 166.900364 80.766558 
L 167.441455 105.581511 
L 167.982545 96.854723 
L 168.523636 103.857521 
L 169.064727 97.90036 
L 169.605818 156.380487 
L 170.146909 100.645594 
L 170.688 97.734435 
L 171.229091 96.595392 
L 171.770182 96.518379 
L 172.852364 103.857521 
L 173.393455 63.218515 
L 173.934545 89.396151 
L 174.475636 103.37177 
L 175.016727 103.017656 
L 175.557818 106.466554 
L 176.098909 67.666578 
L 176.64 105.581511 
L 177.181091 97.410178 
L 177.722182 195.838795 
L 178.263273 101.380029 
L 178.804364 100.32059 
L 179.345455 97.035055 
L 179.886545 104.685293 
L 180.427636 102.191963 
L 180.968727 103.105766 
L 181.509818 90.858064 
L 182.050909 84.195877 
L 182.592 105.581511 
L 183.133091 106.466554 
L 183.674182 94.754925 
L 184.215273 104.711989 
L 184.756364 103.985337 
L 185.297455 106.466554 
L 185.838545 95.849007 
L 186.379636 107.367612 
L 186.920727 97.653237 
L 187.461818 107.367612 
L 188.002909 106.961975 
L 188.544 105.645105 
L 189.085091 100.449466 
L 189.626182 107.367612 
L 190.167273 101.291188 
L 190.708364 105.581511 
L 191.249455 107.367612 
L 191.790545 104.711989 
L 192.331636 96.573465 
L 192.872727 99.235311 
L 193.413818 107.367612 
L 193.954909 106.82825 
L 194.496 107.187592 
L 195.037091 105.581511 
L 195.578182 86.475288 
L 196.119273 174.444019 
L 196.660364 104.763401 
L 197.201455 105.645105 
L 197.742545 107.506567 
L 198.283636 102.713991 
L 198.824727 107.367612 
L 199.365818 106.530025 
L 199.906909 107.367612 
L 200.448 105.72095 
L 200.989091 107.367612 
L 201.530182 101.706618 
L 202.071273 108.2053 
L 202.612364 104.188292 
L 203.153455 108.285195 
L 203.694545 133.612898 
L 204.235636 80.949762 
L 204.776727 103.535176 
L 205.317818 100.888579 
L 205.858909 103.857521 
L 206.4 104.387544 
L 206.941091 107.367612 
L 207.482182 96.888801 
L 208.023273 103.857521 
L 208.564364 106.28693 
L 209.105455 95.897099 
L 209.646545 81.453319 
L 210.187636 106.466554 
L 210.728727 105.941349 
L 211.269818 104.132766 
L 211.810909 104.711989 
L 212.352 103.081565 
L 212.893091 106.019591 
L 213.434182 103.022789 
L 213.975273 105.971529 
L 214.516364 105.125763 
L 215.057455 106.631849 
L 215.598545 106.019591 
L 216.139636 107.584571 
L 216.680727 108.285195 
L 217.221818 102.682543 
L 217.762909 98.658819 
L 218.304 97.796814 
L 218.845091 103.921335 
L 219.386182 105.531072 
L 219.927273 104.222228 
L 220.468364 106.158407 
L 221.009455 102.505789 
L 221.550545 105.581511 
L 222.091636 112.400624 
L 222.632727 106.28693 
L 223.173818 104.638423 
L 223.714909 94.031598 
L 224.256 107.367612 
L 224.797091 93.264329 
L 225.338182 173.338365 
L 225.879273 106.930026 
L 226.961455 107.367612 
L 227.502545 105.632918 
L 228.043636 107.187592 
L 228.584727 110.418473 
L 229.666909 92.791311 
L 230.208 89.374955 
L 230.749091 106.870002 
L 231.290182 105.581511 
L 231.831273 103.904395 
L 232.372364 106.019591 
L 232.913455 96.754021 
L 233.454545 93.987842 
L 233.995636 107.367612 
L 234.536727 92.015884 
L 235.077818 108.336543 
L 235.618909 109.271155 
L 236.16 108.285195 
L 236.701091 106.019591 
L 237.242182 106.019591 
L 237.783273 100.482424 
L 238.324364 108.285195 
L 238.865455 105.573998 
L 239.406545 106.466554 
L 239.947636 106.466554 
L 241.029818 110.184876 
L 241.570909 98.672208 
L 242.112 108.885136 
L 242.653091 115.694262 
L 243.194182 68.289303 
L 243.735273 107.952509 
L 244.276364 111.144641 
L 244.817455 107.367612 
L 245.358545 107.367612 
L 245.899636 105.467002 
L 246.440727 120.770098 
L 246.981818 184.819396 
L 248.064 103.103962 
L 248.605091 115.556483 
L 249.146182 93.252412 
L 249.687273 107.187592 
L 250.228364 97.620093 
L 250.769455 107.367612 
L 251.310545 74.050366 
L 251.851636 87.494457 
L 252.392727 105.581511 
L 252.933818 118.230661 
L 253.474909 105.769758 
L 254.016 196.810599 
L 254.557091 175.428109 
L 255.098182 166.426782 
L 255.639273 107.457449 
L 256.180364 126.320343 
L 256.721455 209.665337 
L 257.262545 107.187592 
L 257.803636 289.588903 
L 258.344727 107.367612 
L 258.885818 107.367612 
L 259.426909 65.125078 
L 259.968 112.914348 
L 260.509091 208.259133 
L 261.050182 185.169174 
L 261.591273 191.389121 
L 262.132364 107.176816 
L 262.673455 118.786349 
L 263.214545 103.396333 
L 263.755636 186.349195 
L 264.296727 96.833532 
L 264.837818 108.285195 
L 265.378909 109.211234 
L 265.92 176.542341 
L 266.461091 173.769317 
L 267.002182 105.359691 
L 267.543273 203.758434 
L 268.084364 194.862482 
L 268.625455 103.913135 
L 269.166545 97.279638 
L 269.707636 107.367612 
L 270.248727 106.556227 
L 270.789818 108.285195 
L 271.330909 96.526919 
L 271.872 108.233149 
L 272.413091 108.285195 
L 272.954182 98.404519 
L 273.495273 107.367612 
L 274.036364 138.805133 
L 274.577455 103.644368 
L 275.118545 108.234627 
L 275.659636 107.367612 
L 276.200727 108.285195 
L 276.741818 184.106879 
L 277.282909 99.177625 
L 277.824 102.100958 
L 278.365091 100.240127 
L 278.906182 96.8998 
L 279.447273 108.8561 
L 279.988364 101.866319 
L 280.529455 178.840892 
L 281.070545 103.022518 
L 281.611636 89.191658 
L 282.152727 108.285195 
L 282.693818 108.730483 
L 283.234909 106.089769 
L 283.776 104.577639 
L 284.317091 107.367612 
L 284.858182 107.367612 
L 285.399273 108.643469 
L 285.940364 104.373542 
L 286.481455 124.006216 
L 287.022545 109.552224 
L 287.563636 107.367612 
L 288.104727 180.256239 
L 288.645818 108.285195 
L 289.186909 185.15792 
L 289.728 92.741537 
L 290.269091 107.367612 
L 290.269091 107.367612 
" clip-path="url(#pf0a6706883)" style="fill: none; stroke: #9467bd; stroke-width: 1.5; stroke-linecap: square"/>
   </g>
   <g id="line2d_19">
    <path d="M 73.832727 101.702519 
L 74.373818 98.606797 
L 74.914909 81.566549 
L 75.456 104.949489 
L 75.997091 106.581787 
L 76.538182 79.278432 
L 77.079273 105.362243 
L 77.620364 93.263129 
L 78.161455 101.814982 
L 78.702545 90.701708 
L 79.243636 94.110438 
L 79.784727 86.830892 
L 80.325818 90.102376 
L 80.866909 92.383684 
L 81.408 101.597315 
L 81.949091 93.098143 
L 82.490182 102.613736 
L 83.031273 295.488 
L 83.572364 92.526596 
L 84.113455 93.737288 
L 84.654545 92.953907 
L 85.195636 92.395377 
L 85.736727 92.993014 
L 86.277818 94.39876 
L 86.818909 101.989786 
L 87.36 82.205734 
L 87.901091 93.231244 
L 88.442182 101.505647 
L 88.983273 93.525985 
L 89.524364 93.616359 
L 90.065455 94.645612 
L 90.606545 93.398429 
L 91.147636 94.124019 
L 91.688727 93.953077 
L 92.229818 103.151091 
L 92.770909 93.826792 
L 93.312 93.178737 
L 93.853091 94.37506 
L 94.394182 94.771747 
L 94.935273 132.816399 
L 95.476364 95.571759 
L 96.017455 93.9336 
L 97.099636 94.169365 
L 98.181818 94.126609 
L 98.722909 95.466555 
L 99.264 94.918054 
L 99.805091 94.885571 
L 100.346182 95.494886 
L 100.887273 94.133894 
L 101.428364 94.156823 
L 101.969455 96.374954 
L 102.510545 96.131471 
L 103.051636 95.425821 
L 103.592727 85.046806 
L 104.133818 95.986001 
L 104.674909 75.053268 
L 105.216 97.01122 
L 105.757091 95.50462 
L 106.298182 98.201036 
L 106.839273 96.714142 
L 107.380364 96.461803 
L 107.921455 97.042754 
L 108.462545 96.474491 
L 109.003636 97.07538 
L 109.544727 102.399175 
L 110.085818 96.592165 
L 110.626909 101.256995 
L 111.168 96.675967 
L 111.709091 95.466608 
L 112.250182 97.811936 
L 112.791273 99.3996 
L 113.332364 96.357378 
L 113.873455 96.759594 
L 114.414545 151.038526 
L 114.955636 104.636234 
L 115.496727 72.9609 
L 116.037818 75.422287 
L 116.578909 97.074155 
L 117.12 96.282705 
L 117.661091 97.747306 
L 118.202182 98.751137 
L 118.743273 97.329099 
L 119.284364 98.59552 
L 119.825455 97.771091 
L 120.366545 185.832695 
L 120.907636 99.244898 
L 121.448727 98.6355 
L 121.989818 106.372542 
L 123.072 86.683847 
L 123.613091 98.151796 
L 124.154182 97.817625 
L 124.695273 98.297899 
L 125.236364 77.229303 
L 125.777455 97.835137 
L 126.318545 100.200562 
L 126.859636 97.998838 
L 127.400727 96.998655 
L 127.941818 98.391731 
L 128.482909 97.15105 
L 129.024 78.261271 
L 129.565091 97.595387 
L 130.106182 97.564417 
L 130.647273 98.235933 
L 131.188364 98.391731 
L 131.729455 97.835137 
L 132.270545 98.184174 
L 132.811636 98.094756 
L 133.352727 97.367704 
L 133.893818 97.156627 
L 134.434909 97.397428 
L 134.976 96.711715 
L 135.517091 97.835137 
L 136.058182 97.500436 
L 136.599273 97.434871 
L 137.140364 97.747306 
L 137.681455 97.718584 
L 138.222545 97.083188 
L 138.763636 96.93212 
L 139.304727 97.008318 
L 139.845818 97.367704 
L 140.386909 97.132361 
L 140.928 97.434871 
L 141.469091 97.397428 
L 142.010182 96.776288 
L 143.092364 97.327899 
L 143.633455 97.914369 
L 144.174545 97.256637 
L 144.715636 96.834006 
L 145.797818 96.93212 
L 146.338909 97.256637 
L 146.88 96.877104 
L 147.421091 80.585596 
L 147.962182 97.298928 
L 148.503273 96.854723 
L 149.585455 96.939917 
L 150.126545 80.949762 
L 150.667636 104.711989 
L 151.208727 97.29568 
L 151.749818 96.93212 
L 152.290909 97.222917 
L 152.832 96.854723 
L 153.373091 80.767799 
L 153.914182 85.54158 
L 154.455273 96.840574 
L 154.996364 96.63542 
L 155.537455 97.035055 
L 156.078545 96.461193 
L 156.619636 99.022905 
L 157.160727 95.762568 
L 157.701818 106.466554 
L 158.242909 98.952352 
L 158.784 96.776288 
L 159.325091 96.854723 
L 159.866182 97.244413 
L 160.407273 103.017656 
L 160.948364 96.461193 
L 161.489455 103.017656 
L 162.030545 97.806096 
L 162.571636 96.854723 
L 163.112727 94.544104 
L 163.653818 96.854723 
L 164.194909 102.191963 
L 164.736 96.776288 
L 165.277091 96.908834 
L 165.818182 96.385902 
L 166.359273 163.911786 
L 166.900364 80.766558 
L 167.441455 105.581511 
L 167.982545 96.854723 
L 168.523636 103.857521 
L 169.064727 97.90036 
L 169.605818 156.380487 
L 170.146909 100.645594 
L 170.688 97.734435 
L 171.229091 96.595392 
L 171.770182 96.518379 
L 172.852364 103.857521 
L 173.393455 63.218515 
L 173.934545 89.396151 
L 174.475636 103.37177 
L 175.016727 103.017656 
L 175.557818 106.466554 
L 176.098909 67.666578 
L 176.64 105.581511 
L 177.181091 97.410178 
L 177.722182 195.838795 
L 178.263273 101.380029 
L 178.804364 100.32059 
L 179.345455 97.035055 
L 179.886545 104.685293 
L 180.427636 102.191963 
L 180.968727 103.105766 
L 181.509818 90.858064 
L 182.050909 84.195877 
L 182.592 105.581511 
L 183.133091 106.466554 
L 183.674182 94.754925 
L 184.215273 104.711989 
L 184.756364 103.985337 
L 185.297455 106.466554 
L 185.838545 95.849007 
L 186.379636 107.367612 
L 186.920727 97.653237 
L 187.461818 107.367612 
L 188.002909 106.961975 
L 188.544 105.645105 
L 189.085091 100.449466 
L 189.626182 107.367612 
L 190.167273 101.291188 
L 190.708364 105.581511 
L 191.249455 107.367612 
L 191.790545 104.711989 
L 192.331636 96.573465 
L 192.872727 99.235311 
L 193.413818 107.367612 
L 193.954909 106.82825 
L 194.496 107.187592 
L 195.037091 105.581511 
L 195.578182 86.475288 
L 196.119273 174.444019 
L 196.660364 104.763401 
L 197.201455 105.645105 
L 197.742545 107.506567 
L 198.283636 102.713991 
L 198.824727 107.367612 
L 199.365818 106.530025 
L 199.906909 107.367612 
L 200.448 105.72095 
L 200.989091 107.367612 
L 201.530182 101.706618 
L 202.071273 108.2053 
L 202.612364 104.188292 
L 203.153455 108.285195 
L 203.694545 133.612898 
L 204.235636 80.949762 
L 204.776727 103.535176 
L 205.317818 100.888579 
L 205.858909 103.857521 
L 206.4 104.387544 
L 206.941091 107.367612 
L 207.482182 96.888801 
L 208.023273 103.857521 
L 208.564364 106.28693 
L 209.105455 95.897099 
L 209.646545 81.453319 
L 210.187636 106.466554 
L 210.728727 105.941349 
L 211.269818 104.132766 
L 211.810909 104.711989 
L 212.352 103.081565 
L 212.893091 106.019591 
L 213.434182 103.022789 
L 213.975273 105.971529 
L 214.516364 105.125763 
L 215.057455 106.631849 
L 215.598545 106.019591 
L 216.139636 107.584571 
L 216.680727 108.285195 
L 217.221818 102.682543 
L 217.762909 98.658819 
L 218.304 97.796814 
L 218.845091 103.921335 
L 219.386182 105.531072 
L 219.927273 104.222228 
L 220.468364 106.158407 
L 221.009455 102.505789 
L 221.550545 105.581511 
L 222.091636 112.400624 
L 222.632727 106.28693 
L 223.173818 104.638423 
L 223.714909 94.031598 
L 224.256 107.367612 
L 224.797091 93.264329 
L 225.338182 173.338365 
L 225.879273 106.930026 
L 226.961455 107.367612 
L 227.502545 105.632918 
L 228.043636 107.187592 
L 228.584727 110.418473 
L 229.666909 92.791311 
L 230.208 89.374955 
L 230.749091 106.870002 
L 231.290182 105.581511 
L 231.831273 103.904395 
L 232.372364 106.019591 
L 232.913455 96.754021 
L 233.454545 93.987842 
L 233.995636 107.367612 
L 234.536727 92.015884 
L 235.077818 108.336543 
L 235.618909 109.271155 
L 236.16 108.285195 
L 236.701091 106.019591 
L 237.242182 106.019591 
L 237.783273 100.482424 
L 238.324364 108.285195 
L 238.865455 105.573998 
L 239.406545 106.466554 
L 239.947636 106.466554 
L 241.029818 110.184876 
L 241.570909 98.672208 
L 242.112 108.885136 
L 242.653091 115.694262 
L 243.194182 68.289303 
L 243.735273 107.952509 
L 244.276364 111.144641 
L 244.817455 107.367612 
L 245.358545 107.367612 
L 245.899636 105.467002 
L 246.440727 120.770098 
L 246.981818 184.819396 
L 248.064 103.103962 
L 248.605091 115.556483 
L 249.146182 93.252412 
L 249.687273 107.187592 
L 250.228364 97.620093 
L 250.769455 107.367612 
L 251.310545 74.050366 
L 251.851636 87.494457 
L 252.392727 105.581511 
L 252.933818 118.230661 
L 253.474909 105.769758 
L 254.016 196.810599 
L 254.557091 175.428109 
L 255.098182 166.426782 
L 255.639273 107.457449 
L 256.180364 126.320343 
L 256.721455 209.665337 
L 257.262545 107.187592 
L 257.803636 289.588903 
L 258.344727 107.367612 
L 258.885818 107.367612 
L 259.426909 65.125078 
L 259.968 112.914348 
L 260.509091 208.259133 
L 261.050182 185.169174 
L 261.591273 191.389121 
L 262.132364 107.176816 
L 262.673455 118.786349 
L 263.214545 103.396333 
L 263.755636 186.349195 
L 264.296727 96.833532 
L 264.837818 108.285195 
L 265.378909 109.211234 
L 265.92 176.542341 
L 266.461091 173.769317 
L 267.002182 105.359691 
L 267.543273 203.758434 
L 268.084364 194.862482 
L 268.625455 103.913135 
L 269.166545 97.279638 
L 269.707636 107.367612 
L 270.248727 106.556227 
L 270.789818 108.285195 
L 271.330909 96.526919 
L 271.872 108.233149 
L 272.413091 108.285195 
L 272.954182 98.404519 
L 273.495273 107.367612 
L 274.036364 138.805133 
L 274.577455 103.644368 
L 275.118545 108.234627 
L 275.659636 107.367612 
L 276.200727 108.285195 
L 276.741818 184.106879 
L 277.282909 99.177625 
L 277.824 102.100958 
L 278.365091 100.240127 
L 278.906182 96.8998 
L 279.447273 108.8561 
L 279.988364 101.866319 
L 280.529455 178.840892 
L 281.070545 103.022518 
L 281.611636 89.191658 
L 282.152727 108.285195 
L 282.693818 108.730483 
L 283.234909 106.089769 
L 283.776 104.577639 
L 284.317091 107.367612 
L 284.858182 107.367612 
L 285.399273 108.643469 
L 285.940364 104.373542 
L 286.481455 124.006216 
L 287.022545 109.552224 
L 287.563636 107.367612 
L 288.104727 180.256239 
L 288.645818 108.285195 
L 289.186909 185.15792 
L 289.728 92.741537 
L 290.269091 107.367612 
L 291.351273 107.367612 
L 291.892364 180.543585 
L 292.433455 107.367612 
L 292.974545 120.637962 
L 293.515636 107.367612 
L 294.056727 107.787109 
L 294.597818 58.100949 
L 295.138909 109.708518 
L 295.68 126.419345 
L 296.221091 107.367612 
L 296.762182 107.367612 
L 297.303273 98.712466 
L 297.844364 108.285195 
L 298.385455 104.003244 
L 298.926545 108.285195 
L 299.467636 107.367612 
L 300.008727 107.367612 
L 300.549818 53.568 
L 301.090909 107.367612 
L 301.632 107.676395 
L 302.173091 109.316052 
L 302.714182 107.367612 
L 303.255273 111.142603 
L 303.796364 97.976708 
L 304.337455 107.367612 
L 304.878545 107.367612 
L 305.419636 97.82547 
L 305.960727 98.203478 
L 306.501818 107.367612 
L 307.042909 125.201471 
L 307.584 109.219843 
L 308.125091 184.255593 
L 308.666182 108.285195 
L 309.207273 113.40006 
L 309.748364 65.027228 
L 310.289455 185.10287 
L 310.830545 79.915997 
L 311.912727 129.512731 
L 312.453818 107.367612 
L 312.994909 106.426266 
L 313.536 167.647035 
L 314.077091 108.37519 
L 314.618182 185.10287 
L 315.159273 105.659491 
L 315.700364 119.544888 
L 316.241455 108.511555 
L 316.782545 108.749741 
L 317.323636 108.37519 
L 317.864727 107.367612 
L 318.405818 108.336543 
L 318.946909 107.316296 
L 319.488 107.367612 
L 320.029091 106.023512 
L 321.111273 117.225516 
L 321.652364 62.636606 
L 322.193455 108.285195 
L 322.734545 102.780991 
L 323.275636 107.367612 
L 323.816727 107.367612 
L 324.357818 106.418082 
L 324.898909 107.753288 
L 325.44 107.367612 
L 325.981091 108.285195 
L 326.522182 96.586027 
L 327.063273 107.367612 
L 327.604364 107.367612 
L 328.145455 111.142603 
L 328.686545 110.172116 
L 329.227636 107.367612 
L 329.768727 103.913135 
L 330.850909 103.913135 
L 331.392 180.256239 
L 331.933091 108.37519 
L 332.474182 180.543585 
L 333.015273 115.878764 
L 333.556364 187.871633 
L 334.097455 108.109489 
L 334.638545 107.676395 
L 335.179636 56.910451 
L 335.720727 60.829112 
L 336.261818 107.367612 
L 336.802909 103.022518 
L 337.344 109.309985 
L 337.885091 109.219843 
L 338.426182 106.426266 
L 338.967273 103.022518 
L 339.508364 107.367612 
L 340.049455 177.673136 
L 340.590545 107.367612 
L 341.131636 112.131922 
L 341.672727 94.652559 
L 342.213818 108.730483 
L 342.754909 107.367612 
L 343.296 161.250977 
L 343.837091 128.100427 
L 344.378182 120.691117 
L 344.378182 120.691117 
" clip-path="url(#pf0a6706883)" style="fill: none; stroke: #8c564b; stroke-width: 1.5; stroke-linecap: square"/>
   </g>
   <g id="line2d_20">
    <path d="M 73.832727 101.702519 
L 74.373818 98.606797 
L 74.914909 81.566549 
L 75.456 104.949489 
L 75.997091 106.581787 
L 76.538182 79.278432 
L 77.079273 105.362243 
L 77.620364 93.263129 
L 78.161455 101.814982 
L 78.702545 90.701708 
L 79.243636 94.110438 
L 79.784727 86.830892 
L 80.325818 90.102376 
L 80.866909 92.383684 
L 81.408 101.597315 
L 81.949091 93.098143 
L 82.490182 102.613736 
L 83.031273 295.488 
L 83.572364 92.526596 
L 84.113455 93.737288 
L 84.654545 92.953907 
L 85.195636 92.395377 
L 85.736727 92.993014 
L 86.277818 94.39876 
L 86.818909 101.989786 
L 87.36 82.205734 
L 87.901091 93.231244 
L 88.442182 101.505647 
L 88.983273 93.525985 
L 89.524364 93.616359 
L 90.065455 94.645612 
L 90.606545 93.398429 
L 91.147636 94.124019 
L 91.688727 93.953077 
L 92.229818 103.151091 
L 92.770909 93.826792 
L 93.312 93.178737 
L 93.853091 94.37506 
L 94.394182 94.771747 
L 94.935273 132.816399 
L 95.476364 95.571759 
L 96.017455 93.9336 
L 97.099636 94.169365 
L 98.181818 94.126609 
L 98.722909 95.466555 
L 99.264 94.918054 
L 99.805091 94.885571 
L 100.346182 95.494886 
L 100.887273 94.133894 
L 101.428364 94.156823 
L 101.969455 96.374954 
L 102.510545 96.131471 
L 103.051636 95.425821 
L 103.592727 85.046806 
L 104.133818 95.986001 
L 104.674909 75.053268 
L 105.216 97.01122 
L 105.757091 95.50462 
L 106.298182 98.201036 
L 106.839273 96.714142 
L 107.380364 96.461803 
L 107.921455 97.042754 
L 108.462545 96.474491 
L 109.003636 97.07538 
L 109.544727 102.399175 
L 110.085818 96.592165 
L 110.626909 101.256995 
L 111.168 96.675967 
L 111.709091 95.466608 
L 112.250182 97.811936 
L 112.791273 99.3996 
L 113.332364 96.357378 
L 113.873455 96.759594 
L 114.414545 151.038526 
L 114.955636 104.636234 
L 115.496727 72.9609 
L 116.037818 75.422287 
L 116.578909 97.074155 
L 117.12 96.282705 
L 117.661091 97.747306 
L 118.202182 98.751137 
L 118.743273 97.329099 
L 119.284364 98.59552 
L 119.825455 97.771091 
L 120.366545 185.832695 
L 120.907636 99.244898 
L 121.448727 98.6355 
L 121.989818 106.372542 
L 123.072 86.683847 
L 123.613091 98.151796 
L 124.154182 97.817625 
L 124.695273 98.297899 
L 125.236364 77.229303 
L 125.777455 97.835137 
L 126.318545 100.200562 
L 126.859636 97.998838 
L 127.400727 96.998655 
L 127.941818 98.391731 
L 128.482909 97.15105 
L 129.024 78.261271 
L 129.565091 97.595387 
L 130.106182 97.564417 
L 130.647273 98.235933 
L 131.188364 98.391731 
L 131.729455 97.835137 
L 132.270545 98.184174 
L 132.811636 98.094756 
L 133.352727 97.367704 
L 133.893818 97.156627 
L 134.434909 97.397428 
L 134.976 96.711715 
L 135.517091 97.835137 
L 136.058182 97.500436 
L 136.599273 97.434871 
L 137.140364 97.747306 
L 137.681455 97.718584 
L 138.222545 97.083188 
L 138.763636 96.93212 
L 139.304727 97.008318 
L 139.845818 97.367704 
L 140.386909 97.132361 
L 140.928 97.434871 
L 141.469091 97.397428 
L 142.010182 96.776288 
L 143.092364 97.327899 
L 143.633455 97.914369 
L 144.174545 97.256637 
L 144.715636 96.834006 
L 145.797818 96.93212 
L 146.338909 97.256637 
L 146.88 96.877104 
L 147.421091 80.585596 
L 147.962182 97.298928 
L 148.503273 96.854723 
L 149.585455 96.939917 
L 150.126545 80.949762 
L 150.667636 104.711989 
L 151.208727 97.29568 
L 151.749818 96.93212 
L 152.290909 97.222917 
L 152.832 96.854723 
L 153.373091 80.767799 
L 153.914182 85.54158 
L 154.455273 96.840574 
L 154.996364 96.63542 
L 155.537455 97.035055 
L 156.078545 96.461193 
L 156.619636 99.022905 
L 157.160727 95.762568 
L 157.701818 106.466554 
L 158.242909 98.952352 
L 158.784 96.776288 
L 159.325091 96.854723 
L 159.866182 97.244413 
L 160.407273 103.017656 
L 160.948364 96.461193 
L 161.489455 103.017656 
L 162.030545 97.806096 
L 162.571636 96.854723 
L 163.112727 94.544104 
L 163.653818 96.854723 
L 164.194909 102.191963 
L 164.736 96.776288 
L 165.277091 96.908834 
L 165.818182 96.385902 
L 166.359273 163.911786 
L 166.900364 80.766558 
L 167.441455 105.581511 
L 167.982545 96.854723 
L 168.523636 103.857521 
L 169.064727 97.90036 
L 169.605818 156.380487 
L 170.146909 100.645594 
L 170.688 97.734435 
L 171.229091 96.595392 
L 171.770182 96.518379 
L 172.852364 103.857521 
L 173.393455 63.218515 
L 173.934545 89.396151 
L 174.475636 103.37177 
L 175.016727 103.017656 
L 175.557818 106.466554 
L 176.098909 67.666578 
L 176.64 105.581511 
L 177.181091 97.410178 
L 177.722182 195.838795 
L 178.263273 101.380029 
L 178.804364 100.32059 
L 179.345455 97.035055 
L 179.886545 104.685293 
L 180.427636 102.191963 
L 180.968727 103.105766 
L 181.509818 90.858064 
L 182.050909 84.195877 
L 182.592 105.581511 
L 183.133091 106.466554 
L 183.674182 94.754925 
L 184.215273 104.711989 
L 184.756364 103.985337 
L 185.297455 106.466554 
L 185.838545 95.849007 
L 186.379636 107.367612 
L 186.920727 97.653237 
L 187.461818 107.367612 
L 188.002909 106.961975 
L 188.544 105.645105 
L 189.085091 100.449466 
L 189.626182 107.367612 
L 190.167273 101.291188 
L 190.708364 105.581511 
L 191.249455 107.367612 
L 191.790545 104.711989 
L 192.331636 96.573465 
L 192.872727 99.235311 
L 193.413818 107.367612 
L 193.954909 106.82825 
L 194.496 107.187592 
L 195.037091 105.581511 
L 195.578182 86.475288 
L 196.119273 174.444019 
L 196.660364 104.763401 
L 197.201455 105.645105 
L 197.742545 107.506567 
L 198.283636 102.713991 
L 198.824727 107.367612 
L 199.365818 106.530025 
L 199.906909 107.367612 
L 200.448 105.72095 
L 200.989091 107.367612 
L 201.530182 101.706618 
L 202.071273 108.2053 
L 202.612364 104.188292 
L 203.153455 108.285195 
L 203.694545 133.612898 
L 204.235636 80.949762 
L 204.776727 103.535176 
L 205.317818 100.888579 
L 205.858909 103.857521 
L 206.4 104.387544 
L 206.941091 107.367612 
L 207.482182 96.888801 
L 208.023273 103.857521 
L 208.564364 106.28693 
L 209.105455 95.897099 
L 209.646545 81.453319 
L 210.187636 106.466554 
L 210.728727 105.941349 
L 211.269818 104.132766 
L 211.810909 104.711989 
L 212.352 103.081565 
L 212.893091 106.019591 
L 213.434182 103.022789 
L 213.975273 105.971529 
L 214.516364 105.125763 
L 215.057455 106.631849 
L 215.598545 106.019591 
L 216.139636 107.584571 
L 216.680727 108.285195 
L 217.221818 102.682543 
L 217.762909 98.658819 
L 218.304 97.796814 
L 218.845091 103.921335 
L 219.386182 105.531072 
L 219.927273 104.222228 
L 220.468364 106.158407 
L 221.009455 102.505789 
L 221.550545 105.581511 
L 222.091636 112.400624 
L 222.632727 106.28693 
L 223.173818 104.638423 
L 223.714909 94.031598 
L 224.256 107.367612 
L 224.797091 93.264329 
L 225.338182 173.338365 
L 225.879273 106.930026 
L 226.961455 107.367612 
L 227.502545 105.632918 
L 228.043636 107.187592 
L 228.584727 110.418473 
L 229.666909 92.791311 
L 230.208 89.374955 
L 230.749091 106.870002 
L 231.290182 105.581511 
L 231.831273 103.904395 
L 232.372364 106.019591 
L 232.913455 96.754021 
L 233.454545 93.987842 
L 233.995636 107.367612 
L 234.536727 92.015884 
L 235.077818 108.336543 
L 235.618909 109.271155 
L 236.16 108.285195 
L 236.701091 106.019591 
L 237.242182 106.019591 
L 237.783273 100.482424 
L 238.324364 108.285195 
L 238.865455 105.573998 
L 239.406545 106.466554 
L 239.947636 106.466554 
L 241.029818 110.184876 
L 241.570909 98.672208 
L 242.112 108.885136 
L 242.653091 115.694262 
L 243.194182 68.289303 
L 243.735273 107.952509 
L 244.276364 111.144641 
L 244.817455 107.367612 
L 245.358545 107.367612 
L 245.899636 105.467002 
L 246.440727 120.770098 
L 246.981818 184.819396 
L 248.064 103.103962 
L 248.605091 115.556483 
L 249.146182 93.252412 
L 249.687273 107.187592 
L 250.228364 97.620093 
L 250.769455 107.367612 
L 251.310545 74.050366 
L 251.851636 87.494457 
L 252.392727 105.581511 
L 252.933818 118.230661 
L 253.474909 105.769758 
L 254.016 196.810599 
L 254.557091 175.428109 
L 255.098182 166.426782 
L 255.639273 107.457449 
L 256.180364 126.320343 
L 256.721455 209.665337 
L 257.262545 107.187592 
L 257.803636 289.588903 
L 258.344727 107.367612 
L 258.885818 107.367612 
L 259.426909 65.125078 
L 259.968 112.914348 
L 260.509091 208.259133 
L 261.050182 185.169174 
L 261.591273 191.389121 
L 262.132364 107.176816 
L 262.673455 118.786349 
L 263.214545 103.396333 
L 263.755636 186.349195 
L 264.296727 96.833532 
L 264.837818 108.285195 
L 265.378909 109.211234 
L 265.92 176.542341 
L 266.461091 173.769317 
L 267.002182 105.359691 
L 267.543273 203.758434 
L 268.084364 194.862482 
L 268.625455 103.913135 
L 269.166545 97.279638 
L 269.707636 107.367612 
L 270.248727 106.556227 
L 270.789818 108.285195 
L 271.330909 96.526919 
L 271.872 108.233149 
L 272.413091 108.285195 
L 272.954182 98.404519 
L 273.495273 107.367612 
L 274.036364 138.805133 
L 274.577455 103.644368 
L 275.118545 108.234627 
L 275.659636 107.367612 
L 276.200727 108.285195 
L 276.741818 184.106879 
L 277.282909 99.177625 
L 277.824 102.100958 
L 278.365091 100.240127 
L 278.906182 96.8998 
L 279.447273 108.8561 
L 279.988364 101.866319 
L 280.529455 178.840892 
L 281.070545 103.022518 
L 281.611636 89.191658 
L 282.152727 108.285195 
L 282.693818 108.730483 
L 283.234909 106.089769 
L 283.776 104.577639 
L 284.317091 107.367612 
L 284.858182 107.367612 
L 285.399273 108.643469 
L 285.940364 104.373542 
L 286.481455 124.006216 
L 287.022545 109.552224 
L 287.563636 107.367612 
L 288.104727 180.256239 
L 288.645818 108.285195 
L 289.186909 185.15792 
L 289.728 92.741537 
L 290.269091 107.367612 
L 291.351273 107.367612 
L 291.892364 180.543585 
L 292.433455 107.367612 
L 292.974545 120.637962 
L 293.515636 107.367612 
L 294.056727 107.787109 
L 294.597818 58.100949 
L 295.138909 109.708518 
L 295.68 126.419345 
L 296.221091 107.367612 
L 296.762182 107.367612 
L 297.303273 98.712466 
L 297.844364 108.285195 
L 298.385455 104.003244 
L 298.926545 108.285195 
L 299.467636 107.367612 
L 300.008727 107.367612 
L 300.549818 53.568 
L 301.090909 107.367612 
L 301.632 107.676395 
L 302.173091 109.316052 
L 302.714182 107.367612 
L 303.255273 111.142603 
L 303.796364 97.976708 
L 304.337455 107.367612 
L 304.878545 107.367612 
L 305.419636 97.82547 
L 305.960727 98.203478 
L 306.501818 107.367612 
L 307.042909 125.201471 
L 307.584 109.219843 
L 308.125091 184.255593 
L 308.666182 108.285195 
L 309.207273 113.40006 
L 309.748364 65.027228 
L 310.289455 185.10287 
L 310.830545 79.915997 
L 311.912727 129.512731 
L 312.453818 107.367612 
L 312.994909 106.426266 
L 313.536 167.647035 
L 314.077091 108.37519 
L 314.618182 185.10287 
L 315.159273 105.659491 
L 315.700364 119.544888 
L 316.241455 108.511555 
L 316.782545 108.749741 
L 317.323636 108.37519 
L 317.864727 107.367612 
L 318.405818 108.336543 
L 318.946909 107.316296 
L 319.488 107.367612 
L 320.029091 106.023512 
L 321.111273 117.225516 
L 321.652364 62.636606 
L 322.193455 108.285195 
L 322.734545 102.780991 
L 323.275636 107.367612 
L 323.816727 107.367612 
L 324.357818 106.418082 
L 324.898909 107.753288 
L 325.44 107.367612 
L 325.981091 108.285195 
L 326.522182 96.586027 
L 327.063273 107.367612 
L 327.604364 107.367612 
L 328.145455 111.142603 
L 328.686545 110.172116 
L 329.227636 107.367612 
L 329.768727 103.913135 
L 330.850909 103.913135 
L 331.392 180.256239 
L 331.933091 108.37519 
L 332.474182 180.543585 
L 333.015273 115.878764 
L 333.556364 187.871633 
L 334.097455 108.109489 
L 334.638545 107.676395 
L 335.179636 56.910451 
L 335.720727 60.829112 
L 336.261818 107.367612 
L 336.802909 103.022518 
L 337.344 109.309985 
L 337.885091 109.219843 
L 338.426182 106.426266 
L 338.967273 103.022518 
L 339.508364 107.367612 
L 340.049455 177.673136 
L 340.590545 107.367612 
L 341.131636 112.131922 
L 341.672727 94.652559 
L 342.213818 108.730483 
L 342.754909 107.367612 
L 343.296 161.250977 
L 343.837091 128.100427 
L 344.378182 120.691117 
L 344.919273 109.165074 
L 345.460364 107.367612 
L 346.542545 107.350223 
L 347.083636 108.285195 
L 347.624727 107.367612 
L 348.165818 117.213027 
L 348.706909 107.367612 
L 349.248 107.367612 
L 349.789091 93.670204 
L 350.330182 124.006216 
L 350.871273 183.106676 
L 351.412364 107.367612 
L 351.953455 180.543585 
L 352.494545 180.256239 
L 353.035636 108.285195 
L 353.576727 105.359691 
L 354.117818 126.419345 
L 354.658909 107.367612 
L 355.2 107.367612 
L 355.741091 184.91628 
L 356.282182 107.062745 
L 356.823273 103.913135 
L 357.364364 107.367612 
L 357.905455 95.484055 
L 358.446545 166.568934 
L 358.987636 184.91628 
L 359.528727 184.91628 
L 360.069818 107.367612 
L 360.610909 108.285195 
L 361.152 124.006216 
L 361.693091 180.543585 
L 362.234182 107.367612 
L 362.775273 90.100099 
L 363.316364 107.367612 
L 363.857455 171.973694 
L 364.398545 107.367612 
L 364.939636 106.418082 
L 365.480727 97.654927 
L 366.021818 107.367612 
L 366.562909 107.457449 
L 367.104 108.285195 
L 367.645091 182.704417 
L 368.186182 102.465537 
L 368.727273 108.285195 
L 369.268364 108.104799 
L 369.809455 109.918241 
L 370.350545 104.578054 
L 370.891636 184.91628 
L 371.432727 182.704417 
L 371.973818 65.911011 
L 372.514909 109.219843 
L 373.056 98.489986 
L 373.597091 109.165074 
L 374.138182 109.316052 
L 374.679273 107.367612 
L 375.220364 104.269695 
L 375.761455 174.79459 
L 376.302545 109.219843 
L 376.843636 60.089287 
L 377.384727 108.285195 
L 377.925818 104.717482 
L 378.466909 119.879036 
L 379.008 107.367612 
L 379.549091 107.367612 
L 380.090182 110.172116 
L 380.631273 107.367612 
L 381.172364 107.367612 
L 381.713455 122.545835 
L 382.254545 107.367612 
L 383.336727 107.367612 
L 383.877818 108.285195 
L 384.418909 107.367612 
L 384.96 108.511555 
L 385.501091 97.773601 
L 386.042182 125.201471 
L 386.583273 108.285195 
L 387.124364 107.367612 
L 387.665455 107.367612 
L 388.206545 105.746966 
L 388.747636 126.419345 
L 389.288727 107.367612 
L 389.829818 108.285195 
L 390.370909 184.91628 
L 390.912 107.367612 
L 391.453091 165.924694 
L 391.994182 111.790326 
L 392.535273 108.285195 
L 393.076364 103.913135 
L 393.617455 189.625535 
L 394.158545 106.426266 
L 395.240727 108.285195 
L 395.781818 114.782695 
L 396.322909 107.367612 
L 396.864 106.426266 
L 397.405091 107.062745 
L 397.946182 103.937635 
L 398.487273 107.367612 
L 398.487273 107.367612 
" clip-path="url(#pf0a6706883)" style="fill: none; stroke: #e377c2; stroke-width: 1.5; stroke-linecap: square"/>
   </g>
   <g id="patch_3">
    <path d="M 57.6 307.584 
L 57.6 41.472 
" style="fill: none; stroke: #000000; stroke-width: 0.8; stroke-linejoin: miter; stroke-linecap: square"/>
   </g>
   <g id="patch_4">
    <path d="M 414.72 307.584 
L 414.72 41.472 
" style="fill: none; stroke: #000000; stroke-width: 0.8; stroke-linejoin: miter; stroke-linecap: square"/>
   </g>
   <g id="patch_5">
    <path d="M 57.6 307.584 
L 414.72 307.584 
" style="fill: none; stroke: #000000; stroke-width: 0.8; stroke-linejoin: miter; stroke-linecap: square"/>
   </g>
   <g id="patch_6">
    <path d="M 57.6 41.472 
L 414.72 41.472 
" style="fill: none; stroke: #000000; stroke-width: 0.8; stroke-linejoin: miter; stroke-linecap: square"/>
   </g>
  </g>
 </g>
 <defs>
  <clipPath id="pf0a6706883">
   <rect x="57.6" y="41.472" width="357.12" height="266.112"/>
  </clipPath>
 </defs>
</svg>
