<?xml version="1.0" encoding="utf-8" standalone="no"?>
<!DOCTYPE svg PUBLIC "-//W3C//DTD SVG 1.1//EN"
  "http://www.w3.org/Graphics/SVG/1.1/DTD/svg11.dtd">
<svg xmlns:xlink="http://www.w3.org/1999/xlink" width="460.8pt" height="345.6pt" viewBox="0 0 460.8 345.6" xmlns="http://www.w3.org/2000/svg" version="1.1">
 <metadata>
  <rdf:RDF xmlns:dc="http://purl.org/dc/elements/1.1/" xmlns:cc="http://creativecommons.org/ns#" xmlns:rdf="http://www.w3.org/1999/02/22-rdf-syntax-ns#">
   <cc:Work>
    <dc:type rdf:resource="http://purl.org/dc/dcmitype/StillImage"/>
    <dc:date>2024-04-28T11:39:30.694168</dc:date>
    <dc:format>image/svg+xml</dc:format>
    <dc:creator>
     <cc:Agent>
      <dc:title>Matplotlib v3.8.2, https://matplotlib.org/</dc:title>
     </cc:Agent>
    </dc:creator>
   </cc:Work>
  </rdf:RDF>
 </metadata>
 <defs>
  <style type="text/css">*{stroke-linejoin: round; stroke-linecap: butt}</style>
 </defs>
 <g id="figure_1">
  <g id="patch_1">
   <path d="M 0 345.6 
L 460.8 345.6 
L 460.8 0 
L 0 0 
z
" style="fill: #ffffff"/>
  </g>
  <g id="axes_1">
   <g id="patch_2">
    <path d="M 57.6 307.584 
L 414.72 307.584 
L 414.72 41.472 
L 57.6 41.472 
z
" style="fill: #ffffff"/>
   </g>
   <g id="matplotlib.axis_1">
    <g id="xtick_1">
     <g id="line2d_1">
      <defs>
       <path id="m8f2010ff62" d="M 0 0 
L 0 3.5 
" style="stroke: #000000; stroke-width: 0.8"/>
      </defs>
      <g>
       <use xlink:href="#m8f2010ff62" x="73.832727" y="307.584" style="stroke: #000000; stroke-width: 0.8"/>
      </g>
     </g>
     <g id="text_1">
      <!-- 0 -->
      <g transform="translate(70.651477 322.182437) scale(0.1 -0.1)">
       <defs>
        <path id="DejaVuSans-30" d="M 2034 4250 
Q 1547 4250 1301 3770 
Q 1056 3291 1056 2328 
Q 1056 1369 1301 889 
Q 1547 409 2034 409 
Q 2525 409 2770 889 
Q 3016 1369 3016 2328 
Q 3016 3291 2770 3770 
Q 2525 4250 2034 4250 
z
M 2034 4750 
Q 2819 4750 3233 4129 
Q 3647 3509 3647 2328 
Q 3647 1150 3233 529 
Q 2819 -91 2034 -91 
Q 1250 -91 836 529 
Q 422 1150 422 2328 
Q 422 3509 836 4129 
Q 1250 4750 2034 4750 
z
" transform="scale(0.015625)"/>
       </defs>
       <use xlink:href="#DejaVuSans-30"/>
      </g>
     </g>
    </g>
    <g id="xtick_2">
     <g id="line2d_2">
      <g>
       <use xlink:href="#m8f2010ff62" x="127.941818" y="307.584" style="stroke: #000000; stroke-width: 0.8"/>
      </g>
     </g>
     <g id="text_2">
      <!-- 500 -->
      <g transform="translate(118.398068 322.182437) scale(0.1 -0.1)">
       <defs>
        <path id="DejaVuSans-35" d="M 691 4666 
L 3169 4666 
L 3169 4134 
L 1269 4134 
L 1269 2991 
Q 1406 3038 1543 3061 
Q 1681 3084 1819 3084 
Q 2600 3084 3056 2656 
Q 3513 2228 3513 1497 
Q 3513 744 3044 326 
Q 2575 -91 1722 -91 
Q 1428 -91 1123 -41 
Q 819 9 494 109 
L 494 744 
Q 775 591 1075 516 
Q 1375 441 1709 441 
Q 2250 441 2565 725 
Q 2881 1009 2881 1497 
Q 2881 1984 2565 2268 
Q 2250 2553 1709 2553 
Q 1456 2553 1204 2497 
Q 953 2441 691 2322 
L 691 4666 
z
" transform="scale(0.015625)"/>
       </defs>
       <use xlink:href="#DejaVuSans-35"/>
       <use xlink:href="#DejaVuSans-30" x="63.623047"/>
       <use xlink:href="#DejaVuSans-30" x="127.246094"/>
      </g>
     </g>
    </g>
    <g id="xtick_3">
     <g id="line2d_3">
      <g>
       <use xlink:href="#m8f2010ff62" x="182.050909" y="307.584" style="stroke: #000000; stroke-width: 0.8"/>
      </g>
     </g>
     <g id="text_3">
      <!-- 1000 -->
      <g transform="translate(169.325909 322.182437) scale(0.1 -0.1)">
       <defs>
        <path id="DejaVuSans-31" d="M 794 531 
L 1825 531 
L 1825 4091 
L 703 3866 
L 703 4441 
L 1819 4666 
L 2450 4666 
L 2450 531 
L 3481 531 
L 3481 0 
L 794 0 
L 794 531 
z
" transform="scale(0.015625)"/>
       </defs>
       <use xlink:href="#DejaVuSans-31"/>
       <use xlink:href="#DejaVuSans-30" x="63.623047"/>
       <use xlink:href="#DejaVuSans-30" x="127.246094"/>
       <use xlink:href="#DejaVuSans-30" x="190.869141"/>
      </g>
     </g>
    </g>
    <g id="xtick_4">
     <g id="line2d_4">
      <g>
       <use xlink:href="#m8f2010ff62" x="236.16" y="307.584" style="stroke: #000000; stroke-width: 0.8"/>
      </g>
     </g>
     <g id="text_4">
      <!-- 1500 -->
      <g transform="translate(223.435 322.182437) scale(0.1 -0.1)">
       <use xlink:href="#DejaVuSans-31"/>
       <use xlink:href="#DejaVuSans-35" x="63.623047"/>
       <use xlink:href="#DejaVuSans-30" x="127.246094"/>
       <use xlink:href="#DejaVuSans-30" x="190.869141"/>
      </g>
     </g>
    </g>
    <g id="xtick_5">
     <g id="line2d_5">
      <g>
       <use xlink:href="#m8f2010ff62" x="290.269091" y="307.584" style="stroke: #000000; stroke-width: 0.8"/>
      </g>
     </g>
     <g id="text_5">
      <!-- 2000 -->
      <g transform="translate(277.544091 322.182437) scale(0.1 -0.1)">
       <defs>
        <path id="DejaVuSans-32" d="M 1228 531 
L 3431 531 
L 3431 0 
L 469 0 
L 469 531 
Q 828 903 1448 1529 
Q 2069 2156 2228 2338 
Q 2531 2678 2651 2914 
Q 2772 3150 2772 3378 
Q 2772 3750 2511 3984 
Q 2250 4219 1831 4219 
Q 1534 4219 1204 4116 
Q 875 4013 500 3803 
L 500 4441 
Q 881 4594 1212 4672 
Q 1544 4750 1819 4750 
Q 2544 4750 2975 4387 
Q 3406 4025 3406 3419 
Q 3406 3131 3298 2873 
Q 3191 2616 2906 2266 
Q 2828 2175 2409 1742 
Q 1991 1309 1228 531 
z
" transform="scale(0.015625)"/>
       </defs>
       <use xlink:href="#DejaVuSans-32"/>
       <use xlink:href="#DejaVuSans-30" x="63.623047"/>
       <use xlink:href="#DejaVuSans-30" x="127.246094"/>
       <use xlink:href="#DejaVuSans-30" x="190.869141"/>
      </g>
     </g>
    </g>
    <g id="xtick_6">
     <g id="line2d_6">
      <g>
       <use xlink:href="#m8f2010ff62" x="344.378182" y="307.584" style="stroke: #000000; stroke-width: 0.8"/>
      </g>
     </g>
     <g id="text_6">
      <!-- 2500 -->
      <g transform="translate(331.653182 322.182437) scale(0.1 -0.1)">
       <use xlink:href="#DejaVuSans-32"/>
       <use xlink:href="#DejaVuSans-35" x="63.623047"/>
       <use xlink:href="#DejaVuSans-30" x="127.246094"/>
       <use xlink:href="#DejaVuSans-30" x="190.869141"/>
      </g>
     </g>
    </g>
    <g id="xtick_7">
     <g id="line2d_7">
      <g>
       <use xlink:href="#m8f2010ff62" x="398.487273" y="307.584" style="stroke: #000000; stroke-width: 0.8"/>
      </g>
     </g>
     <g id="text_7">
      <!-- 3000 -->
      <g transform="translate(385.762273 322.182437) scale(0.1 -0.1)">
       <defs>
        <path id="DejaVuSans-33" d="M 2597 2516 
Q 3050 2419 3304 2112 
Q 3559 1806 3559 1356 
Q 3559 666 3084 287 
Q 2609 -91 1734 -91 
Q 1441 -91 1130 -33 
Q 819 25 488 141 
L 488 750 
Q 750 597 1062 519 
Q 1375 441 1716 441 
Q 2309 441 2620 675 
Q 2931 909 2931 1356 
Q 2931 1769 2642 2001 
Q 2353 2234 1838 2234 
L 1294 2234 
L 1294 2753 
L 1863 2753 
Q 2328 2753 2575 2939 
Q 2822 3125 2822 3475 
Q 2822 3834 2567 4026 
Q 2313 4219 1838 4219 
Q 1578 4219 1281 4162 
Q 984 4106 628 3988 
L 628 4550 
Q 988 4650 1302 4700 
Q 1616 4750 1894 4750 
Q 2613 4750 3031 4423 
Q 3450 4097 3450 3541 
Q 3450 3153 3228 2886 
Q 3006 2619 2597 2516 
z
" transform="scale(0.015625)"/>
       </defs>
       <use xlink:href="#DejaVuSans-33"/>
       <use xlink:href="#DejaVuSans-30" x="63.623047"/>
       <use xlink:href="#DejaVuSans-30" x="127.246094"/>
       <use xlink:href="#DejaVuSans-30" x="190.869141"/>
      </g>
     </g>
    </g>
   </g>
   <g id="matplotlib.axis_2">
    <g id="ytick_1">
     <g id="line2d_8">
      <defs>
       <path id="m6d4e3650ca" d="M 0 0 
L -3.5 0 
" style="stroke: #000000; stroke-width: 0.8"/>
      </defs>
      <g>
       <use xlink:href="#m6d4e3650ca" x="57.6" y="294.780215" style="stroke: #000000; stroke-width: 0.8"/>
      </g>
     </g>
     <g id="text_8">
      <!-- −40 -->
      <g transform="translate(29.495313 298.579434) scale(0.1 -0.1)">
       <defs>
        <path id="DejaVuSans-2212" d="M 678 2272 
L 4684 2272 
L 4684 1741 
L 678 1741 
L 678 2272 
z
" transform="scale(0.015625)"/>
        <path id="DejaVuSans-34" d="M 2419 4116 
L 825 1625 
L 2419 1625 
L 2419 4116 
z
M 2253 4666 
L 3047 4666 
L 3047 1625 
L 3713 1625 
L 3713 1100 
L 3047 1100 
L 3047 0 
L 2419 0 
L 2419 1100 
L 313 1100 
L 313 1709 
L 2253 4666 
z
" transform="scale(0.015625)"/>
       </defs>
       <use xlink:href="#DejaVuSans-2212"/>
       <use xlink:href="#DejaVuSans-34" x="83.789062"/>
       <use xlink:href="#DejaVuSans-30" x="147.412109"/>
      </g>
     </g>
    </g>
    <g id="ytick_2">
     <g id="line2d_9">
      <g>
       <use xlink:href="#m6d4e3650ca" x="57.6" y="264.944595" style="stroke: #000000; stroke-width: 0.8"/>
      </g>
     </g>
     <g id="text_9">
      <!-- −35 -->
      <g transform="translate(29.495313 268.743813) scale(0.1 -0.1)">
       <use xlink:href="#DejaVuSans-2212"/>
       <use xlink:href="#DejaVuSans-33" x="83.789062"/>
       <use xlink:href="#DejaVuSans-35" x="147.412109"/>
      </g>
     </g>
    </g>
    <g id="ytick_3">
     <g id="line2d_10">
      <g>
       <use xlink:href="#m6d4e3650ca" x="57.6" y="235.108974" style="stroke: #000000; stroke-width: 0.8"/>
      </g>
     </g>
     <g id="text_10">
      <!-- −30 -->
      <g transform="translate(29.495313 238.908193) scale(0.1 -0.1)">
       <use xlink:href="#DejaVuSans-2212"/>
       <use xlink:href="#DejaVuSans-33" x="83.789062"/>
       <use xlink:href="#DejaVuSans-30" x="147.412109"/>
      </g>
     </g>
    </g>
    <g id="ytick_4">
     <g id="line2d_11">
      <g>
       <use xlink:href="#m6d4e3650ca" x="57.6" y="205.273354" style="stroke: #000000; stroke-width: 0.8"/>
      </g>
     </g>
     <g id="text_11">
      <!-- −25 -->
      <g transform="translate(29.495313 209.072573) scale(0.1 -0.1)">
       <use xlink:href="#DejaVuSans-2212"/>
       <use xlink:href="#DejaVuSans-32" x="83.789062"/>
       <use xlink:href="#DejaVuSans-35" x="147.412109"/>
      </g>
     </g>
    </g>
    <g id="ytick_5">
     <g id="line2d_12">
      <g>
       <use xlink:href="#m6d4e3650ca" x="57.6" y="175.437734" style="stroke: #000000; stroke-width: 0.8"/>
      </g>
     </g>
     <g id="text_12">
      <!-- −20 -->
      <g transform="translate(29.495313 179.236952) scale(0.1 -0.1)">
       <use xlink:href="#DejaVuSans-2212"/>
       <use xlink:href="#DejaVuSans-32" x="83.789062"/>
       <use xlink:href="#DejaVuSans-30" x="147.412109"/>
      </g>
     </g>
    </g>
    <g id="ytick_6">
     <g id="line2d_13">
      <g>
       <use xlink:href="#m6d4e3650ca" x="57.6" y="145.602113" style="stroke: #000000; stroke-width: 0.8"/>
      </g>
     </g>
     <g id="text_13">
      <!-- −15 -->
      <g transform="translate(29.495313 149.401332) scale(0.1 -0.1)">
       <use xlink:href="#DejaVuSans-2212"/>
       <use xlink:href="#DejaVuSans-31" x="83.789062"/>
       <use xlink:href="#DejaVuSans-35" x="147.412109"/>
      </g>
     </g>
    </g>
    <g id="ytick_7">
     <g id="line2d_14">
      <g>
       <use xlink:href="#m6d4e3650ca" x="57.6" y="115.766493" style="stroke: #000000; stroke-width: 0.8"/>
      </g>
     </g>
     <g id="text_14">
      <!-- −10 -->
      <g transform="translate(29.495313 119.565712) scale(0.1 -0.1)">
       <use xlink:href="#DejaVuSans-2212"/>
       <use xlink:href="#DejaVuSans-31" x="83.789062"/>
       <use xlink:href="#DejaVuSans-30" x="147.412109"/>
      </g>
     </g>
    </g>
    <g id="ytick_8">
     <g id="line2d_15">
      <g>
       <use xlink:href="#m6d4e3650ca" x="57.6" y="85.930873" style="stroke: #000000; stroke-width: 0.8"/>
      </g>
     </g>
     <g id="text_15">
      <!-- −5 -->
      <g transform="translate(35.857813 89.730092) scale(0.1 -0.1)">
       <use xlink:href="#DejaVuSans-2212"/>
       <use xlink:href="#DejaVuSans-35" x="83.789062"/>
      </g>
     </g>
    </g>
    <g id="ytick_9">
     <g id="line2d_16">
      <g>
       <use xlink:href="#m6d4e3650ca" x="57.6" y="56.095253" style="stroke: #000000; stroke-width: 0.8"/>
      </g>
     </g>
     <g id="text_16">
      <!-- 0 -->
      <g transform="translate(44.2375 59.894471) scale(0.1 -0.1)">
       <use xlink:href="#DejaVuSans-30"/>
      </g>
     </g>
    </g>
   </g>
   <g id="line2d_17">
    <path d="M 73.832727 117.378824 
" clip-path="url(#p2046375c03)" style="fill: none; stroke: #1f77b4; stroke-width: 1.5; stroke-linecap: square"/>
   </g>
   <g id="line2d_18">
    <path d="M 73.832727 117.378824 
L 74.049164 56.095253 
L 74.157382 56.095253 
L 74.2656 60.685943 
L 74.482036 56.095253 
L 74.590255 56.095253 
L 74.698473 70.985068 
L 74.806691 116.192962 
L 75.131345 56.095253 
L 75.239564 56.095253 
L 75.347782 108.311593 
L 75.564218 56.095253 
L 75.672436 68.521879 
L 75.780655 56.095253 
L 75.888873 57.297344 
L 75.997091 106.743025 
L 76.213527 56.095253 
L 76.429964 56.095253 
L 76.538182 90.948901 
L 76.754618 56.095253 
L 76.971055 56.095253 
L 77.079273 101.115788 
L 77.187491 56.095253 
L 77.295709 70.607667 
L 77.512145 56.095253 
L 77.620364 86.587954 
L 77.8368 56.095253 
L 77.945018 61.293591 
L 78.053236 56.095253 
L 78.161455 149.223841 
L 78.269673 56.095253 
L 78.486109 70.636309 
L 78.594327 151.167668 
L 78.702545 56.439087 
L 78.918982 87.560836 
L 79.0272 120.832245 
L 79.243636 56.095253 
L 79.351855 56.095253 
L 79.460073 63.907042 
L 79.676509 56.095253 
L 79.784727 56.095253 
L 79.892945 111.88354 
L 80.109382 56.095253 
L 80.542255 56.095253 
L 80.650473 53.568 
L 80.758691 89.258005 
L 80.975127 56.095253 
L 81.191564 60.987937 
L 81.299782 56.929907 
L 81.408 76.190965 
L 81.624436 56.095253 
L 81.732655 56.095253 
L 81.840873 56.591768 
L 81.949091 65.579094 
L 82.057309 56.095253 
L 82.381964 105.388543 
L 82.490182 63.35089 
L 82.5984 73.923101 
L 82.706618 56.095253 
L 82.814836 56.439087 
L 83.031273 56.095253 
L 83.139491 60.492293 
L 83.247709 56.095253 
L 83.355927 63.35089 
L 83.464145 56.095253 
L 83.572364 64.764884 
L 83.680582 56.439087 
L 83.7888 69.549372 
L 84.005236 56.095253 
L 84.113455 57.616706 
L 84.329891 56.095253 
L 84.438109 56.095253 
L 84.546327 70.985068 
L 84.762764 56.095253 
L 84.870982 60.637148 
L 85.087418 56.095253 
L 85.412073 56.095253 
L 85.520291 90.948901 
L 85.736727 56.095253 
L 86.1696 56.095253 
L 86.277818 131.886496 
L 86.494255 56.095253 
L 86.710691 56.095253 
L 86.818909 60.431607 
L 86.927127 56.095253 
L 87.035345 70.595627 
L 87.576436 56.095253 
L 87.901091 56.095253 
L 88.009309 62.301134 
L 88.117527 92.646326 
L 88.225745 56.095253 
L 88.333964 138.07142 
L 88.442182 56.095253 
L 88.5504 59.849012 
L 88.766836 56.095253 
L 88.983273 56.095253 
L 89.091491 65.37823 
L 89.307927 56.095253 
L 89.416145 56.095253 
L 89.524364 78.972184 
L 89.7408 56.095253 
L 89.957236 56.095253 
L 90.065455 56.785736 
L 90.173673 56.095253 
L 90.281891 117.296668 
L 90.498327 56.095253 
L 90.714764 68.319678 
L 90.9312 56.095253 
L 91.147636 56.095253 
L 91.255855 56.929907 
L 91.364073 77.886929 
L 91.580509 56.095253 
L 91.688727 105.100764 
L 91.796945 79.210666 
L 91.905164 182.135451 
L 92.013382 56.095253 
L 92.1216 63.402403 
L 92.229818 56.095253 
L 92.338036 147.799869 
L 92.554473 57.111326 
L 92.770909 56.095253 
L 92.879127 111.849782 
L 93.095564 56.095253 
L 93.203782 56.095253 
L 93.312 56.785736 
L 93.528436 56.095253 
L 93.636655 89.664201 
L 93.744873 56.095253 
L 93.853091 61.293591 
L 93.961309 88.674981 
L 94.285964 56.095253 
L 95.151709 56.095253 
L 95.259927 84.531926 
L 95.476364 56.095253 
L 95.584582 109.748486 
L 95.6928 56.095253 
L 95.801018 61.293591 
L 95.909236 56.095253 
L 96.017455 113.311294 
L 96.233891 56.095253 
L 96.450327 56.095253 
L 96.666764 91.253485 
L 96.8832 56.095253 
L 97.099636 56.095253 
L 97.207855 61.293591 
L 97.424291 56.095253 
L 97.640727 56.095253 
L 97.748945 82.024846 
L 97.965382 56.095253 
L 98.0736 56.095253 
L 98.181818 81.35239 
L 98.398255 56.095253 
L 98.939345 56.095253 
L 99.047564 68.518742 
L 99.264 56.095253 
L 99.913309 56.095253 
L 100.021527 98.257575 
L 100.129745 60.987937 
L 100.237964 65.140079 
L 100.4544 56.095253 
L 100.995491 56.095253 
L 101.103709 59.020832 
L 101.320145 56.095253 
L 101.536582 56.095253 
L 101.6448 61.293591 
L 101.753018 56.095253 
L 101.861236 73.628744 
L 101.969455 56.095253 
L 102.077673 79.01091 
L 102.185891 56.095253 
L 102.294109 88.372246 
L 102.402327 170.550274 
L 102.510545 56.095253 
L 102.618764 65.37823 
L 102.726982 111.238316 
L 102.943418 56.095253 
L 103.376291 56.095253 
L 103.484509 66.699383 
L 103.592727 92.783936 
L 103.809164 56.095253 
L 103.917382 67.079555 
L 104.0256 56.095253 
L 104.242036 70.227076 
L 104.350255 107.979497 
L 104.458473 56.095253 
L 104.566691 56.439087 
L 104.674909 95.004347 
L 104.891345 56.095253 
L 105.432436 56.095253 
L 105.540655 63.216094 
L 105.648873 56.095253 
L 105.757091 137.919184 
L 105.973527 56.095253 
L 106.189964 56.095253 
L 106.298182 56.929907 
L 106.4064 70.491245 
L 106.622836 56.095253 
L 106.731055 56.439087 
L 106.839273 56.095253 
L 107.055709 140.254011 
L 107.272145 56.095253 
L 107.380364 114.65407 
L 107.488582 56.095253 
L 107.5968 70.985068 
L 107.705018 56.095253 
L 107.813236 57.297344 
L 108.029673 56.095253 
L 108.137891 56.095253 
L 108.246109 60.637148 
L 108.462545 56.095253 
L 108.895418 56.095253 
L 109.003636 60.492293 
L 109.220073 56.095253 
L 109.328291 56.929907 
L 109.436509 56.095253 
L 109.544727 53.632797 
L 109.761164 69.549372 
L 109.869382 89.801256 
L 109.9776 56.095253 
L 110.085818 88.454128 
L 110.302255 56.095253 
L 110.410473 56.095253 
L 110.518691 92.861504 
L 110.735127 56.095253 
L 111.059782 56.095253 
L 111.168 60.987937 
L 111.276218 107.325139 
L 111.492655 56.095253 
L 111.709091 56.095253 
L 111.817309 71.391817 
L 111.925527 56.095253 
L 112.033745 57.297344 
L 112.141964 103.775744 
L 112.3584 56.095253 
L 112.574836 56.095253 
L 112.683055 70.607667 
L 112.899491 56.095253 
L 113.007709 61.293591 
L 113.224145 56.095253 
L 113.981673 56.095253 
L 114.089891 84.420007 
L 114.306327 56.095253 
L 114.7392 56.095253 
L 114.847418 65.347608 
L 114.955636 56.095253 
L 115.063855 64.481682 
L 115.172073 89.469472 
L 115.280291 54.058999 
L 115.388509 64.723917 
L 115.604945 56.095253 
L 115.713164 56.591767 
L 115.821382 61.293591 
L 115.9296 89.801256 
L 116.146036 56.095253 
L 116.254255 56.591767 
L 116.470691 56.095253 
L 116.578909 56.095253 
L 116.687127 123.185749 
L 116.903564 56.095253 
L 117.011782 60.492293 
L 117.12 56.929907 
L 117.228218 60.987937 
L 117.444655 56.095253 
L 117.661091 56.095253 
L 117.769309 84.606299 
L 117.985745 56.095253 
L 118.093964 56.095253 
L 118.202182 90.717802 
L 118.418618 56.095253 
L 118.526836 56.095253 
L 118.635055 60.987937 
L 118.851491 56.095253 
L 119.284364 56.095253 
L 119.5008 84.681483 
L 119.609018 56.095253 
L 119.717236 88.674981 
L 119.933673 225.622113 
L 120.150109 56.095253 
L 120.258327 71.375092 
L 120.366545 123.674516 
L 120.474764 56.095253 
L 120.582982 56.591768 
L 120.6912 295.488 
L 120.799418 273.332196 
L 120.907636 56.095253 
L 121.015855 221.219571 
L 121.232291 65.510305 
L 121.340509 65.826198 
L 121.448727 65.021128 
L 121.665164 56.929907 
L 121.8816 63.354178 
L 121.989818 56.095253 
L 122.098036 59.034776 
L 122.206255 58.639769 
L 122.314473 61.000528 
L 122.530909 56.755216 
L 122.639127 60.592835 
L 122.747345 57.124181 
L 122.963782 58.588344 
L 123.072 56.755216 
L 123.288436 61.129698 
L 123.396655 56.755216 
L 123.721309 59.832914 
L 123.829527 57.105465 
L 123.937745 57.46944 
L 124.154182 59.952384 
L 124.370618 59.952384 
L 124.478836 59.066342 
L 124.587055 59.952384 
L 124.695273 56.41853 
L 124.911709 59.952384 
L 125.019927 59.952384 
L 125.128145 57.46944 
L 125.236364 59.952384 
L 125.344582 58.239293 
L 125.561018 59.952384 
L 125.669236 57.84732 
L 125.777455 59.952384 
L 125.885673 56.755216 
L 126.102109 59.952384 
L 126.210327 59.952384 
L 126.426764 58.213676 
L 126.534982 56.095253 
L 126.751418 59.952384 
L 126.859636 57.105465 
L 127.076073 59.952384 
L 128.374691 59.952384 
L 128.591127 56.095253 
L 128.807564 59.952384 
L 130.430836 59.952384 
L 130.539055 58.239293 
L 130.755491 59.952384 
L 134.976 59.952384 
L 135.084218 57.105465 
L 135.300655 59.952384 
L 135.408873 59.952384 
L 135.625309 56.095253 
L 135.841745 57.46944 
L 136.058182 56.095253 
L 136.1664 58.239293 
L 136.274618 56.095253 
L 136.382836 59.952384 
L 136.599273 56.755216 
L 136.707491 56.41853 
L 136.815709 59.066342 
L 137.032145 56.095253 
L 137.140364 59.952384 
L 137.3568 56.41853 
L 137.573236 59.952384 
L 137.681455 59.952384 
L 137.789673 57.46944 
L 138.006109 59.952384 
L 138.114327 56.41853 
L 138.222545 57.46944 
L 138.330764 57.105465 
L 138.5472 59.952384 
L 138.655418 58.239293 
L 138.763636 59.952384 
L 138.871855 56.095253 
L 138.980073 57.84732 
L 139.088291 57.105465 
L 139.196509 58.239293 
L 139.412945 57.46944 
L 139.521164 56.095253 
L 139.629382 56.755216 
L 139.7376 56.41853 
L 139.845818 56.755216 
L 139.954036 56.41853 
L 140.062255 59.952384 
L 140.170473 56.41853 
L 140.278691 59.952384 
L 140.495127 56.095253 
L 140.603345 59.952384 
L 140.819782 57.105465 
L 140.928 56.41853 
L 141.036218 56.755216 
L 141.144436 56.095253 
L 141.252655 57.105465 
L 141.360873 59.952384 
L 141.469091 59.066342 
L 141.577309 56.755216 
L 141.685527 57.105465 
L 141.901964 57.84732 
L 142.010182 58.239293 
L 142.226618 56.095253 
L 142.334836 56.755216 
L 142.443055 56.41853 
L 142.551273 57.105465 
L 142.659491 56.755216 
L 142.875927 59.952384 
L 142.984145 56.41853 
L 143.092364 56.755216 
L 143.200582 59.501866 
L 143.3088 58.645561 
L 143.525236 59.952384 
L 143.633455 56.095253 
L 143.849891 59.952384 
L 143.958109 57.105465 
L 144.066327 59.952384 
L 144.174545 57.46944 
L 144.390982 59.501866 
L 144.4992 59.066342 
L 144.607418 56.41853 
L 144.715636 58.645561 
L 144.823855 57.84732 
L 144.932073 59.952384 
L 145.148509 56.095253 
L 145.256727 58.645561 
L 145.473164 56.41853 
L 145.581382 56.41853 
L 145.797818 59.952384 
L 145.906036 56.41853 
L 146.014255 59.952384 
L 146.122473 59.066342 
L 146.230691 59.952384 
L 146.338909 57.105465 
L 146.447127 59.066342 
L 146.555345 56.755216 
L 146.663564 59.952384 
L 146.771782 58.645561 
L 146.88 59.952384 
L 146.988218 56.41853 
L 147.096436 57.46944 
L 147.312873 56.755216 
L 147.421091 59.501866 
L 147.529309 57.46944 
L 147.637527 59.952384 
L 147.745745 56.755216 
L 147.962182 59.952384 
L 148.0704 59.952384 
L 148.178618 59.066342 
L 148.395055 59.952384 
L 148.503273 59.952384 
L 148.719709 56.41853 
L 148.936145 59.952384 
L 149.152582 59.952384 
L 149.2608 57.84732 
L 149.369018 59.952384 
L 149.477236 56.755216 
L 149.693673 59.952384 
L 150.018327 59.952384 
L 150.126545 57.84732 
L 150.342982 59.952384 
L 150.4512 59.952384 
L 150.559418 58.645561 
L 150.775855 59.952384 
L 150.884073 59.952384 
L 150.992291 57.46944 
L 151.100509 59.952384 
L 151.208727 56.41853 
L 151.316945 59.952384 
L 151.533382 56.755216 
L 151.749818 59.952384 
L 151.858036 56.41853 
L 151.966255 59.952384 
L 152.074473 56.755216 
L 152.290909 59.952384 
L 152.832 59.952384 
L 152.940218 66.649566 
L 153.048436 130.659981 
L 153.156655 66.390729 
L 153.264873 75.961452 
L 153.373091 63.561811 
L 153.589527 130.659981 
L 154.130618 130.659981 
L 154.238836 122.220902 
L 154.455273 130.659981 
L 154.563491 130.659981 
L 154.671709 88.086455 
L 154.779927 98.864948 
L 154.888145 130.659981 
L 154.996364 63.561811 
L 155.104582 73.534727 
L 155.2128 66.13554 
L 155.321018 71.72832 
L 155.429236 69.770728 
L 155.537455 75.117344 
L 155.645673 124.682089 
L 155.753891 68.002316 
L 155.862109 74.30936 
L 155.970327 68.572943 
L 156.078545 71.72832 
L 156.186764 81.988452 
L 156.294982 68.865103 
L 156.4032 130.659981 
L 156.619636 66.912161 
L 156.727855 65.273103 
L 156.836073 66.390729 
L 156.944291 61.029641 
L 157.160727 98.864948 
L 157.268945 75.117344 
L 157.377164 90.572044 
L 157.485382 62.713066 
L 157.5936 130.659981 
L 157.810036 68.572943 
L 157.918255 79.767228 
L 158.134691 64.415175 
L 158.242909 74.30936 
L 158.351127 72.429931 
L 158.459345 67.723578 
L 158.567564 88.884739 
L 158.675782 62.713066 
L 158.784 130.659981 
L 159.000436 62.713066 
L 159.108655 81.988452 
L 159.216873 58.540391 
L 159.325091 93.360265 
L 159.541527 68.865103 
L 159.649745 71.72832 
L 159.757964 62.713066 
L 159.866182 72.429931 
L 160.082618 130.659981 
L 160.299055 58.540391 
L 160.515491 75.117344 
L 160.623709 59.365295 
L 160.840145 69.162018 
L 160.948364 70.400372 
L 161.056582 57.72039 
L 161.1648 93.360265 
L 161.273018 73.159128 
L 161.489455 130.659981 
L 161.705891 61.029641 
L 161.814109 130.659981 
L 161.922327 56.905331 
L 162.030545 119.508304 
L 162.138764 67.178619 
L 162.3552 83.83079 
L 162.463418 61.029641 
L 162.679855 76.844791 
L 162.788073 130.659981 
L 162.896291 70.400372 
L 163.004509 130.659981 
L 163.112727 102.834165 
L 163.220945 130.659981 
L 163.329164 68.285393 
L 163.5456 85.852751 
L 163.653818 130.659981 
L 163.762036 66.390729 
L 163.870255 69.770728 
L 163.978473 92.393562 
L 164.194909 68.002316 
L 164.303127 67.723578 
L 164.411345 81.988452 
L 164.627782 68.865103 
L 164.736 69.770728 
L 164.844218 57.72039 
L 164.952436 107.461942 
L 165.060655 64.415175 
L 165.168873 90.572044 
L 165.385309 56.905331 
L 165.493527 130.659981 
L 165.709964 57.72039 
L 165.818182 66.13554 
L 165.9264 62.713066 
L 166.034618 74.30936 
L 166.142836 130.659981 
L 166.359273 61.868993 
L 166.575709 76.39801 
L 166.683927 130.659981 
L 166.792145 66.912161 
L 166.900364 130.659981 
L 167.1168 77.77084 
L 167.225018 70.723485 
L 167.333236 95.418575 
L 167.441455 85.852751 
L 167.549673 130.659981 
L 167.657891 61.029641 
L 167.874327 73.534727 
L 167.982545 130.659981 
L 168.198982 62.713066 
L 168.415418 71.72832 
L 168.523636 66.13554 
L 168.740073 130.659981 
L 168.956509 61.029641 
L 169.172945 72.075801 
L 169.281164 56.905331 
L 169.389382 68.865103 
L 169.4976 68.285393 
L 169.605818 74.30936 
L 169.714036 56.905331 
L 169.822255 130.659981 
L 169.930473 67.178619 
L 170.255127 130.659981 
L 170.363345 56.095253 
L 170.579782 130.659981 
L 170.688 130.659981 
L 170.796218 66.649566 
L 171.012655 130.659981 
L 171.229091 130.659981 
L 171.337309 73.918037 
L 171.445527 114.987009 
L 171.553745 104.295639 
L 171.661964 65.273103 
L 171.770182 68.285393 
L 171.8784 59.365295 
L 171.986618 104.295639 
L 172.094836 59.365295 
L 172.203055 91.46495 
L 172.311273 79.248693 
L 172.419491 82.58432 
L 172.527709 122.005124 
L 172.635927 65.273103 
L 172.744145 68.002316 
L 172.852364 67.449052 
L 172.960582 88.086455 
L 173.177018 58.540391 
L 173.285236 66.390729 
L 173.393455 62.713066 
L 173.501673 74.30936 
L 173.609891 61.868993 
L 173.718109 130.659981 
L 173.934545 65.273103 
L 174.150982 130.659981 
L 174.367418 61.029641 
L 174.583855 130.659981 
L 174.692073 65.273103 
L 174.800291 130.659981 
L 174.908509 63.561811 
L 175.016727 68.285393 
L 175.124945 130.659981 
L 175.233164 69.162018 
L 175.341382 130.659981 
L 175.4496 83.198114 
L 175.666036 130.659981 
L 175.882473 65.273103 
L 175.990691 130.659981 
L 176.098909 66.13554 
L 176.207127 130.659981 
L 176.315345 68.865103 
L 176.423564 130.659981 
L 176.531782 69.770728 
L 176.748218 130.659981 
L 176.856436 56.905331 
L 176.964655 130.659981 
L 177.072873 71.387253 
L 177.181091 89.712647 
L 177.289309 130.659981 
L 177.397527 95.418575 
L 177.505745 130.659981 
L 177.613964 83.83079 
L 177.722182 130.659981 
L 177.8304 87.316072 
L 177.938618 130.659981 
L 178.046836 70.723485 
L 178.263273 130.659981 
L 178.371491 74.30936 
L 178.479709 83.83079 
L 178.587927 70.400372 
L 178.696145 130.659981 
L 178.912582 65.273103 
L 179.0208 73.918037 
L 179.129018 70.082847 
L 179.237236 95.418575 
L 179.345455 70.723485 
L 179.453673 130.659981 
L 179.670109 79.767228 
L 179.778327 130.659981 
L 179.886545 69.46384 
L 180.102982 130.659981 
L 180.319418 130.659981 
L 180.427636 66.390729 
L 180.644073 130.659981 
L 180.752291 57.72039 
L 180.968727 130.659981 
L 181.076945 130.659981 
L 181.185164 67.449052 
L 181.4016 130.659981 
L 181.509818 130.659981 
L 181.618036 56.905331 
L 181.726255 57.72039 
L 181.834473 67.723578 
L 182.050909 130.659981 
L 182.050909 130.659981 
" clip-path="url(#p2046375c03)" style="fill: none; stroke: #ff7f0e; stroke-width: 1.5; stroke-linecap: square"/>
   </g>
   <g id="line2d_19">
    <path d="M 73.832727 117.378824 
L 74.049164 56.095253 
L 74.157382 56.095253 
L 74.2656 60.685943 
L 74.482036 56.095253 
L 74.590255 56.095253 
L 74.698473 70.985068 
L 74.806691 116.192962 
L 75.131345 56.095253 
L 75.239564 56.095253 
L 75.347782 108.311593 
L 75.564218 56.095253 
L 75.672436 68.521879 
L 75.780655 56.095253 
L 75.888873 57.297344 
L 75.997091 106.743025 
L 76.213527 56.095253 
L 76.429964 56.095253 
L 76.538182 90.948901 
L 76.754618 56.095253 
L 76.971055 56.095253 
L 77.079273 101.115788 
L 77.187491 56.095253 
L 77.295709 70.607667 
L 77.512145 56.095253 
L 77.620364 86.587954 
L 77.8368 56.095253 
L 77.945018 61.293591 
L 78.053236 56.095253 
L 78.161455 149.223841 
L 78.269673 56.095253 
L 78.486109 70.636309 
L 78.594327 151.167668 
L 78.702545 56.439087 
L 78.918982 87.560836 
L 79.0272 120.832245 
L 79.243636 56.095253 
L 79.351855 56.095253 
L 79.460073 63.907042 
L 79.676509 56.095253 
L 79.784727 56.095253 
L 79.892945 111.88354 
L 80.109382 56.095253 
L 80.542255 56.095253 
L 80.650473 53.568 
L 80.758691 89.258005 
L 80.975127 56.095253 
L 81.191564 60.987937 
L 81.299782 56.929907 
L 81.408 76.190965 
L 81.624436 56.095253 
L 81.732655 56.095253 
L 81.840873 56.591768 
L 81.949091 65.579094 
L 82.057309 56.095253 
L 82.381964 105.388543 
L 82.490182 63.35089 
L 82.5984 73.923101 
L 82.706618 56.095253 
L 82.814836 56.439087 
L 83.031273 56.095253 
L 83.139491 60.492293 
L 83.247709 56.095253 
L 83.355927 63.35089 
L 83.464145 56.095253 
L 83.572364 64.764884 
L 83.680582 56.439087 
L 83.7888 69.549372 
L 84.005236 56.095253 
L 84.113455 57.616706 
L 84.329891 56.095253 
L 84.438109 56.095253 
L 84.546327 70.985068 
L 84.762764 56.095253 
L 84.870982 60.637148 
L 85.087418 56.095253 
L 85.412073 56.095253 
L 85.520291 90.948901 
L 85.736727 56.095253 
L 86.1696 56.095253 
L 86.277818 131.886496 
L 86.494255 56.095253 
L 86.710691 56.095253 
L 86.818909 60.431607 
L 86.927127 56.095253 
L 87.035345 70.595627 
L 87.576436 56.095253 
L 87.901091 56.095253 
L 88.009309 62.301134 
L 88.117527 92.646326 
L 88.225745 56.095253 
L 88.333964 138.07142 
L 88.442182 56.095253 
L 88.5504 59.849012 
L 88.766836 56.095253 
L 88.983273 56.095253 
L 89.091491 65.37823 
L 89.307927 56.095253 
L 89.416145 56.095253 
L 89.524364 78.972184 
L 89.7408 56.095253 
L 89.957236 56.095253 
L 90.065455 56.785736 
L 90.173673 56.095253 
L 90.281891 117.296668 
L 90.498327 56.095253 
L 90.714764 68.319678 
L 90.9312 56.095253 
L 91.147636 56.095253 
L 91.255855 56.929907 
L 91.364073 77.886929 
L 91.580509 56.095253 
L 91.688727 105.100764 
L 91.796945 79.210666 
L 91.905164 182.135451 
L 92.013382 56.095253 
L 92.1216 63.402403 
L 92.229818 56.095253 
L 92.338036 147.799869 
L 92.554473 57.111326 
L 92.770909 56.095253 
L 92.879127 111.849782 
L 93.095564 56.095253 
L 93.203782 56.095253 
L 93.312 56.785736 
L 93.528436 56.095253 
L 93.636655 89.664201 
L 93.744873 56.095253 
L 93.853091 61.293591 
L 93.961309 88.674981 
L 94.285964 56.095253 
L 95.151709 56.095253 
L 95.259927 84.531926 
L 95.476364 56.095253 
L 95.584582 109.748486 
L 95.6928 56.095253 
L 95.801018 61.293591 
L 95.909236 56.095253 
L 96.017455 113.311294 
L 96.233891 56.095253 
L 96.450327 56.095253 
L 96.666764 91.253485 
L 96.8832 56.095253 
L 97.099636 56.095253 
L 97.207855 61.293591 
L 97.424291 56.095253 
L 97.640727 56.095253 
L 97.748945 82.024846 
L 97.965382 56.095253 
L 98.0736 56.095253 
L 98.181818 81.35239 
L 98.398255 56.095253 
L 98.939345 56.095253 
L 99.047564 68.518742 
L 99.264 56.095253 
L 99.913309 56.095253 
L 100.021527 98.257575 
L 100.129745 60.987937 
L 100.237964 65.140079 
L 100.4544 56.095253 
L 100.995491 56.095253 
L 101.103709 59.020832 
L 101.320145 56.095253 
L 101.536582 56.095253 
L 101.6448 61.293591 
L 101.753018 56.095253 
L 101.861236 73.628744 
L 101.969455 56.095253 
L 102.077673 79.01091 
L 102.185891 56.095253 
L 102.294109 88.372246 
L 102.402327 170.550274 
L 102.510545 56.095253 
L 102.618764 65.37823 
L 102.726982 111.238316 
L 102.943418 56.095253 
L 103.376291 56.095253 
L 103.484509 66.699383 
L 103.592727 92.783936 
L 103.809164 56.095253 
L 103.917382 67.079555 
L 104.0256 56.095253 
L 104.242036 70.227076 
L 104.350255 107.979497 
L 104.458473 56.095253 
L 104.566691 56.439087 
L 104.674909 95.004347 
L 104.891345 56.095253 
L 105.432436 56.095253 
L 105.540655 63.216094 
L 105.648873 56.095253 
L 105.757091 137.919184 
L 105.973527 56.095253 
L 106.189964 56.095253 
L 106.298182 56.929907 
L 106.4064 70.491245 
L 106.622836 56.095253 
L 106.731055 56.439087 
L 106.839273 56.095253 
L 107.055709 140.254011 
L 107.272145 56.095253 
L 107.380364 114.65407 
L 107.488582 56.095253 
L 107.5968 70.985068 
L 107.705018 56.095253 
L 107.813236 57.297344 
L 108.029673 56.095253 
L 108.137891 56.095253 
L 108.246109 60.637148 
L 108.462545 56.095253 
L 108.895418 56.095253 
L 109.003636 60.492293 
L 109.220073 56.095253 
L 109.328291 56.929907 
L 109.436509 56.095253 
L 109.544727 53.632797 
L 109.761164 69.549372 
L 109.869382 89.801256 
L 109.9776 56.095253 
L 110.085818 88.454128 
L 110.302255 56.095253 
L 110.410473 56.095253 
L 110.518691 92.861504 
L 110.735127 56.095253 
L 111.059782 56.095253 
L 111.168 60.987937 
L 111.276218 107.325139 
L 111.492655 56.095253 
L 111.709091 56.095253 
L 111.817309 71.391817 
L 111.925527 56.095253 
L 112.033745 57.297344 
L 112.141964 103.775744 
L 112.3584 56.095253 
L 112.574836 56.095253 
L 112.683055 70.607667 
L 112.899491 56.095253 
L 113.007709 61.293591 
L 113.224145 56.095253 
L 113.981673 56.095253 
L 114.089891 84.420007 
L 114.306327 56.095253 
L 114.7392 56.095253 
L 114.847418 65.347608 
L 114.955636 56.095253 
L 115.063855 64.481682 
L 115.172073 89.469472 
L 115.280291 54.058999 
L 115.388509 64.723917 
L 115.604945 56.095253 
L 115.713164 56.591767 
L 115.821382 61.293591 
L 115.9296 89.801256 
L 116.146036 56.095253 
L 116.254255 56.591767 
L 116.470691 56.095253 
L 116.578909 56.095253 
L 116.687127 123.185749 
L 116.903564 56.095253 
L 117.011782 60.492293 
L 117.12 56.929907 
L 117.228218 60.987937 
L 117.444655 56.095253 
L 117.661091 56.095253 
L 117.769309 84.606299 
L 117.985745 56.095253 
L 118.093964 56.095253 
L 118.202182 90.717802 
L 118.418618 56.095253 
L 118.526836 56.095253 
L 118.635055 60.987937 
L 118.851491 56.095253 
L 119.284364 56.095253 
L 119.5008 84.681483 
L 119.609018 56.095253 
L 119.717236 88.674981 
L 119.933673 225.622113 
L 120.150109 56.095253 
L 120.258327 71.375092 
L 120.366545 123.674516 
L 120.474764 56.095253 
L 120.582982 56.591768 
L 120.6912 295.488 
L 120.799418 273.332196 
L 120.907636 56.095253 
L 121.015855 221.219571 
L 121.232291 65.510305 
L 121.340509 65.826198 
L 121.448727 65.021128 
L 121.665164 56.929907 
L 121.8816 63.354178 
L 121.989818 56.095253 
L 122.098036 59.034776 
L 122.206255 58.639769 
L 122.314473 61.000528 
L 122.530909 56.755216 
L 122.639127 60.592835 
L 122.747345 57.124181 
L 122.963782 58.588344 
L 123.072 56.755216 
L 123.288436 61.129698 
L 123.396655 56.755216 
L 123.721309 59.832914 
L 123.829527 57.105465 
L 123.937745 57.46944 
L 124.154182 59.952384 
L 124.370618 59.952384 
L 124.478836 59.066342 
L 124.587055 59.952384 
L 124.695273 56.41853 
L 124.911709 59.952384 
L 125.019927 59.952384 
L 125.128145 57.46944 
L 125.236364 59.952384 
L 125.344582 58.239293 
L 125.561018 59.952384 
L 125.669236 57.84732 
L 125.777455 59.952384 
L 125.885673 56.755216 
L 126.102109 59.952384 
L 126.210327 59.952384 
L 126.426764 58.213676 
L 126.534982 56.095253 
L 126.751418 59.952384 
L 126.859636 57.105465 
L 127.076073 59.952384 
L 128.374691 59.952384 
L 128.591127 56.095253 
L 128.807564 59.952384 
L 130.430836 59.952384 
L 130.539055 58.239293 
L 130.755491 59.952384 
L 134.976 59.952384 
L 135.084218 57.105465 
L 135.300655 59.952384 
L 135.408873 59.952384 
L 135.625309 56.095253 
L 135.841745 57.46944 
L 136.058182 56.095253 
L 136.1664 58.239293 
L 136.274618 56.095253 
L 136.382836 59.952384 
L 136.599273 56.755216 
L 136.707491 56.41853 
L 136.815709 59.066342 
L 137.032145 56.095253 
L 137.140364 59.952384 
L 137.3568 56.41853 
L 137.573236 59.952384 
L 137.681455 59.952384 
L 137.789673 57.46944 
L 138.006109 59.952384 
L 138.114327 56.41853 
L 138.222545 57.46944 
L 138.330764 57.105465 
L 138.5472 59.952384 
L 138.655418 58.239293 
L 138.763636 59.952384 
L 138.871855 56.095253 
L 138.980073 57.84732 
L 139.088291 57.105465 
L 139.196509 58.239293 
L 139.412945 57.46944 
L 139.521164 56.095253 
L 139.629382 56.755216 
L 139.7376 56.41853 
L 139.845818 56.755216 
L 139.954036 56.41853 
L 140.062255 59.952384 
L 140.170473 56.41853 
L 140.278691 59.952384 
L 140.495127 56.095253 
L 140.603345 59.952384 
L 140.819782 57.105465 
L 140.928 56.41853 
L 141.036218 56.755216 
L 141.144436 56.095253 
L 141.252655 57.105465 
L 141.360873 59.952384 
L 141.469091 59.066342 
L 141.577309 56.755216 
L 141.685527 57.105465 
L 141.901964 57.84732 
L 142.010182 58.239293 
L 142.226618 56.095253 
L 142.334836 56.755216 
L 142.443055 56.41853 
L 142.551273 57.105465 
L 142.659491 56.755216 
L 142.875927 59.952384 
L 142.984145 56.41853 
L 143.092364 56.755216 
L 143.200582 59.501866 
L 143.3088 58.645561 
L 143.525236 59.952384 
L 143.633455 56.095253 
L 143.849891 59.952384 
L 143.958109 57.105465 
L 144.066327 59.952384 
L 144.174545 57.46944 
L 144.390982 59.501866 
L 144.4992 59.066342 
L 144.607418 56.41853 
L 144.715636 58.645561 
L 144.823855 57.84732 
L 144.932073 59.952384 
L 145.148509 56.095253 
L 145.256727 58.645561 
L 145.473164 56.41853 
L 145.581382 56.41853 
L 145.797818 59.952384 
L 145.906036 56.41853 
L 146.014255 59.952384 
L 146.122473 59.066342 
L 146.230691 59.952384 
L 146.338909 57.105465 
L 146.447127 59.066342 
L 146.555345 56.755216 
L 146.663564 59.952384 
L 146.771782 58.645561 
L 146.88 59.952384 
L 146.988218 56.41853 
L 147.096436 57.46944 
L 147.312873 56.755216 
L 147.421091 59.501866 
L 147.529309 57.46944 
L 147.637527 59.952384 
L 147.745745 56.755216 
L 147.962182 59.952384 
L 148.0704 59.952384 
L 148.178618 59.066342 
L 148.395055 59.952384 
L 148.503273 59.952384 
L 148.719709 56.41853 
L 148.936145 59.952384 
L 149.152582 59.952384 
L 149.2608 57.84732 
L 149.369018 59.952384 
L 149.477236 56.755216 
L 149.693673 59.952384 
L 150.018327 59.952384 
L 150.126545 57.84732 
L 150.342982 59.952384 
L 150.4512 59.952384 
L 150.559418 58.645561 
L 150.775855 59.952384 
L 150.884073 59.952384 
L 150.992291 57.46944 
L 151.100509 59.952384 
L 151.208727 56.41853 
L 151.316945 59.952384 
L 151.533382 56.755216 
L 151.749818 59.952384 
L 151.858036 56.41853 
L 151.966255 59.952384 
L 152.074473 56.755216 
L 152.290909 59.952384 
L 152.832 59.952384 
L 152.940218 66.649566 
L 153.048436 130.659981 
L 153.156655 66.390729 
L 153.264873 75.961452 
L 153.373091 63.561811 
L 153.589527 130.659981 
L 154.130618 130.659981 
L 154.238836 122.220902 
L 154.455273 130.659981 
L 154.563491 130.659981 
L 154.671709 88.086455 
L 154.779927 98.864948 
L 154.888145 130.659981 
L 154.996364 63.561811 
L 155.104582 73.534727 
L 155.2128 66.13554 
L 155.321018 71.72832 
L 155.429236 69.770728 
L 155.537455 75.117344 
L 155.645673 124.682089 
L 155.753891 68.002316 
L 155.862109 74.30936 
L 155.970327 68.572943 
L 156.078545 71.72832 
L 156.186764 81.988452 
L 156.294982 68.865103 
L 156.4032 130.659981 
L 156.619636 66.912161 
L 156.727855 65.273103 
L 156.836073 66.390729 
L 156.944291 61.029641 
L 157.160727 98.864948 
L 157.268945 75.117344 
L 157.377164 90.572044 
L 157.485382 62.713066 
L 157.5936 130.659981 
L 157.810036 68.572943 
L 157.918255 79.767228 
L 158.134691 64.415175 
L 158.242909 74.30936 
L 158.351127 72.429931 
L 158.459345 67.723578 
L 158.567564 88.884739 
L 158.675782 62.713066 
L 158.784 130.659981 
L 159.000436 62.713066 
L 159.108655 81.988452 
L 159.216873 58.540391 
L 159.325091 93.360265 
L 159.541527 68.865103 
L 159.649745 71.72832 
L 159.757964 62.713066 
L 159.866182 72.429931 
L 160.082618 130.659981 
L 160.299055 58.540391 
L 160.515491 75.117344 
L 160.623709 59.365295 
L 160.840145 69.162018 
L 160.948364 70.400372 
L 161.056582 57.72039 
L 161.1648 93.360265 
L 161.273018 73.159128 
L 161.489455 130.659981 
L 161.705891 61.029641 
L 161.814109 130.659981 
L 161.922327 56.905331 
L 162.030545 119.508304 
L 162.138764 67.178619 
L 162.3552 83.83079 
L 162.463418 61.029641 
L 162.679855 76.844791 
L 162.788073 130.659981 
L 162.896291 70.400372 
L 163.004509 130.659981 
L 163.112727 102.834165 
L 163.220945 130.659981 
L 163.329164 68.285393 
L 163.5456 85.852751 
L 163.653818 130.659981 
L 163.762036 66.390729 
L 163.870255 69.770728 
L 163.978473 92.393562 
L 164.194909 68.002316 
L 164.303127 67.723578 
L 164.411345 81.988452 
L 164.627782 68.865103 
L 164.736 69.770728 
L 164.844218 57.72039 
L 164.952436 107.461942 
L 165.060655 64.415175 
L 165.168873 90.572044 
L 165.385309 56.905331 
L 165.493527 130.659981 
L 165.709964 57.72039 
L 165.818182 66.13554 
L 165.9264 62.713066 
L 166.034618 74.30936 
L 166.142836 130.659981 
L 166.359273 61.868993 
L 166.575709 76.39801 
L 166.683927 130.659981 
L 166.792145 66.912161 
L 166.900364 130.659981 
L 167.1168 77.77084 
L 167.225018 70.723485 
L 167.333236 95.418575 
L 167.441455 85.852751 
L 167.549673 130.659981 
L 167.657891 61.029641 
L 167.874327 73.534727 
L 167.982545 130.659981 
L 168.198982 62.713066 
L 168.415418 71.72832 
L 168.523636 66.13554 
L 168.740073 130.659981 
L 168.956509 61.029641 
L 169.172945 72.075801 
L 169.281164 56.905331 
L 169.389382 68.865103 
L 169.4976 68.285393 
L 169.605818 74.30936 
L 169.714036 56.905331 
L 169.822255 130.659981 
L 169.930473 67.178619 
L 170.255127 130.659981 
L 170.363345 56.095253 
L 170.579782 130.659981 
L 170.688 130.659981 
L 170.796218 66.649566 
L 171.012655 130.659981 
L 171.229091 130.659981 
L 171.337309 73.918037 
L 171.445527 114.987009 
L 171.553745 104.295639 
L 171.661964 65.273103 
L 171.770182 68.285393 
L 171.8784 59.365295 
L 171.986618 104.295639 
L 172.094836 59.365295 
L 172.203055 91.46495 
L 172.311273 79.248693 
L 172.419491 82.58432 
L 172.527709 122.005124 
L 172.635927 65.273103 
L 172.744145 68.002316 
L 172.852364 67.449052 
L 172.960582 88.086455 
L 173.177018 58.540391 
L 173.285236 66.390729 
L 173.393455 62.713066 
L 173.501673 74.30936 
L 173.609891 61.868993 
L 173.718109 130.659981 
L 173.934545 65.273103 
L 174.150982 130.659981 
L 174.367418 61.029641 
L 174.583855 130.659981 
L 174.692073 65.273103 
L 174.800291 130.659981 
L 174.908509 63.561811 
L 175.016727 68.285393 
L 175.124945 130.659981 
L 175.233164 69.162018 
L 175.341382 130.659981 
L 175.4496 83.198114 
L 175.666036 130.659981 
L 175.882473 65.273103 
L 175.990691 130.659981 
L 176.098909 66.13554 
L 176.207127 130.659981 
L 176.315345 68.865103 
L 176.423564 130.659981 
L 176.531782 69.770728 
L 176.748218 130.659981 
L 176.856436 56.905331 
L 176.964655 130.659981 
L 177.072873 71.387253 
L 177.181091 89.712647 
L 177.289309 130.659981 
L 177.397527 95.418575 
L 177.505745 130.659981 
L 177.613964 83.83079 
L 177.722182 130.659981 
L 177.8304 87.316072 
L 177.938618 130.659981 
L 178.046836 70.723485 
L 178.263273 130.659981 
L 178.371491 74.30936 
L 178.479709 83.83079 
L 178.587927 70.400372 
L 178.696145 130.659981 
L 178.912582 65.273103 
L 179.0208 73.918037 
L 179.129018 70.082847 
L 179.237236 95.418575 
L 179.345455 70.723485 
L 179.453673 130.659981 
L 179.670109 79.767228 
L 179.778327 130.659981 
L 179.886545 69.46384 
L 180.102982 130.659981 
L 180.319418 130.659981 
L 180.427636 66.390729 
L 180.644073 130.659981 
L 180.752291 57.72039 
L 180.968727 130.659981 
L 181.076945 130.659981 
L 181.185164 67.449052 
L 181.4016 130.659981 
L 181.509818 130.659981 
L 181.618036 56.905331 
L 181.726255 57.72039 
L 181.834473 67.723578 
L 182.050909 130.659981 
L 182.159127 81.409618 
L 182.375564 130.659981 
L 182.700218 130.659981 
L 182.808436 69.770728 
L 183.024873 130.659981 
L 183.133091 61.029641 
L 183.349527 130.659981 
L 183.457745 130.659981 
L 183.565964 97.663666 
L 183.7824 130.659981 
L 183.890618 130.659981 
L 183.998836 68.865103 
L 184.215273 130.659981 
L 184.431709 62.713066 
L 184.648145 130.659981 
L 184.756364 130.659981 
L 184.864582 66.390729 
L 185.189236 130.659981 
L 185.297455 130.659981 
L 185.405673 66.13554 
L 185.513891 70.082847 
L 185.730327 130.659981 
L 185.838545 56.905331 
L 186.054982 130.659981 
L 186.704291 130.659981 
L 186.812509 80.299762 
L 187.028945 130.659981 
L 187.461818 130.659981 
L 187.678255 81.409618 
L 187.894691 130.659981 
L 188.219345 130.659981 
L 188.327564 67.178619 
L 188.544 130.659981 
L 188.868655 130.659981 
L 188.976873 62.713066 
L 189.193309 130.659981 
L 189.517964 130.659981 
L 189.7344 69.46384 
L 189.950836 130.659981 
L 190.167273 130.659981 
L 190.275491 85.852751 
L 190.383709 130.659981 
L 190.600145 70.723485 
L 190.708364 130.659981 
L 190.816582 66.912161 
L 191.033018 130.659981 
L 191.141236 85.852751 
L 191.249455 130.659981 
L 191.465891 56.095253 
L 191.682327 130.659981 
L 191.790545 69.46384 
L 192.1152 130.659981 
L 192.223418 130.659981 
L 192.331636 68.285393 
L 192.548073 130.659981 
L 192.656291 70.400372 
L 192.872727 130.659981 
L 192.980945 60.19506 
L 193.197382 130.659981 
L 193.3056 81.988452 
L 193.413818 130.659981 
L 193.522036 92.393562 
L 193.738473 130.659981 
L 194.171345 130.659981 
L 194.279564 68.285393 
L 194.387782 130.659981 
L 194.496 63.561811 
L 194.712436 130.659981 
L 195.469964 130.659981 
L 195.578182 71.72832 
L 195.794618 130.659981 
L 196.011055 130.659981 
L 196.119273 114.987009 
L 196.335709 130.659981 
L 196.552145 130.659981 
L 196.768582 61.868993 
L 196.8768 58.540391 
L 197.093236 61.868993 
L 197.201455 56.095253 
L 197.309673 57.72039 
L 197.526109 56.905331 
L 197.850764 60.19506 
L 198.0672 56.095253 
L 198.175418 130.659981 
L 198.283636 73.159128 
L 198.500073 130.659981 
L 199.041164 130.659981 
L 199.149382 76.39801 
L 199.2576 130.659981 
L 199.365818 73.534727 
L 199.582255 130.659981 
L 199.798691 130.659981 
L 199.906909 88.884739 
L 200.123345 130.659981 
L 200.556218 130.659981 
L 200.664436 85.852751 
L 200.772655 130.659981 
L 200.880873 69.162018 
L 200.989091 130.659981 
L 201.097309 57.72039 
L 201.205527 76.844791 
L 201.313745 63.561811 
L 201.421964 130.659981 
L 201.6384 56.905331 
L 201.746618 56.095253 
L 201.854836 73.918037 
L 202.287709 56.095253 
L 202.504145 66.13554 
L 202.612364 56.905331 
L 202.720582 66.13554 
L 202.8288 60.19506 
L 203.045236 66.390729 
L 203.153455 56.095253 
L 203.261673 71.387253 
L 203.369891 56.095253 
L 203.586327 66.390729 
L 203.910982 57.72039 
L 204.0192 66.13554 
L 204.127418 64.415175 
L 204.343855 58.540391 
L 204.452073 66.13554 
L 204.560291 57.72039 
L 204.668509 61.868993 
L 204.884945 56.095253 
L 205.2096 56.095253 
L 205.317818 62.713066 
L 205.426036 56.095253 
L 205.534255 59.365295 
L 205.750691 56.095253 
L 205.858909 56.905331 
L 205.967127 68.002316 
L 206.183564 56.095253 
L 206.4 56.095253 
L 206.616436 57.72039 
L 206.724655 56.905331 
L 206.941091 59.365295 
L 207.157527 56.905331 
L 207.265745 58.540391 
L 207.373964 64.415175 
L 207.482182 56.095253 
L 207.5904 56.905331 
L 207.698618 56.095253 
L 207.915055 61.029641 
L 208.023273 60.19506 
L 208.239709 62.713066 
L 208.456145 56.905331 
L 208.564364 64.415175 
L 208.672582 56.905331 
L 208.889018 60.19506 
L 208.997236 56.095253 
L 209.213673 61.868993 
L 209.321891 57.72039 
L 209.538327 60.19506 
L 209.646545 56.095253 
L 209.754764 57.72039 
L 209.9712 56.095253 
L 210.079418 60.19506 
L 210.295855 56.095253 
L 210.404073 58.540391 
L 210.512291 56.095253 
L 210.620509 64.415175 
L 210.836945 56.905331 
L 210.945164 58.540391 
L 211.1616 56.095253 
L 211.269818 59.365295 
L 211.378036 56.095253 
L 211.486255 59.365295 
L 211.702691 56.905331 
L 211.810909 56.095253 
L 211.919127 60.19506 
L 212.135564 56.905331 
L 212.352 56.095253 
L 212.460218 56.095253 
L 212.676655 56.905331 
L 212.784873 56.095253 
L 212.893091 57.72039 
L 213.001309 56.095253 
L 213.109527 66.649566 
L 213.325964 56.095253 
L 213.434182 59.365295 
L 213.758836 56.095253 
L 213.867055 57.72039 
L 213.975273 56.095253 
L 214.083491 59.365295 
L 214.191709 56.095253 
L 214.299927 56.905331 
L 214.516364 56.095253 
L 214.624582 56.905331 
L 214.7328 56.095253 
L 214.949236 57.72039 
L 215.273891 56.095253 
L 215.382109 56.905331 
L 215.598545 56.095253 
L 215.706764 56.905331 
L 215.814982 66.390729 
L 216.031418 56.905331 
L 216.139636 59.365295 
L 216.247855 56.905331 
L 216.356073 58.540391 
L 216.572509 56.095253 
L 216.788945 58.540391 
L 216.897164 60.19506 
L 217.1136 56.095253 
L 217.221818 56.905331 
L 217.330036 63.561811 
L 217.546473 56.095253 
L 217.654691 56.095253 
L 217.762909 59.365295 
L 217.871127 56.095253 
L 218.087564 57.72039 
L 218.195782 57.72039 
L 218.304 65.273103 
L 218.520436 56.095253 
L 218.628655 56.095253 
L 218.736873 60.19506 
L 218.953309 56.095253 
L 219.061527 58.540391 
L 219.277964 56.905331 
L 219.4944 56.095253 
L 219.710836 56.095253 
L 219.819055 59.365295 
L 220.251927 56.095253 
L 220.360145 59.365295 
L 220.468364 56.095253 
L 220.576582 59.365295 
L 220.6848 58.540391 
L 220.901236 56.095253 
L 221.009455 56.095253 
L 221.334109 57.72039 
L 221.442327 60.19506 
L 221.550545 57.72039 
L 221.766982 60.19506 
L 221.983418 56.905331 
L 222.308073 56.905331 
L 222.416291 61.868993 
L 222.632727 56.095253 
L 222.740945 58.540391 
L 222.957382 56.095253 
L 223.173818 57.72039 
L 223.390255 60.19506 
L 223.606691 56.095253 
L 223.714909 59.365295 
L 223.823127 58.540391 
L 224.039564 56.095253 
L 224.256 57.72039 
L 224.364218 57.72039 
L 224.472436 61.029641 
L 224.688873 56.095253 
L 224.905309 60.19506 
L 225.229964 56.095253 
L 225.338182 56.905331 
L 225.4464 62.713066 
L 225.554618 56.095253 
L 225.771055 61.868993 
L 225.879273 56.095253 
L 226.095709 57.72039 
L 226.312145 56.095253 
L 226.420364 59.365295 
L 226.528582 56.095253 
L 226.6368 56.905331 
L 226.745018 56.095253 
L 226.853236 59.365295 
L 226.961455 56.095253 
L 227.069673 60.19506 
L 227.286109 58.540391 
L 227.394327 57.72039 
L 227.502545 59.365295 
L 227.610764 58.540391 
L 227.718982 66.649566 
L 227.935418 56.095253 
L 228.043636 60.19506 
L 228.151855 56.095253 
L 228.260073 56.905331 
L 228.476509 56.095253 
L 228.584727 61.868993 
L 228.692945 60.19506 
L 228.801164 64.415175 
L 229.0176 56.095253 
L 229.342255 56.095253 
L 229.450473 57.72039 
L 229.666909 56.095253 
L 229.775127 56.095253 
L 229.883345 57.72039 
L 229.991564 56.095253 
L 230.099782 58.540391 
L 230.208 56.095253 
L 230.316218 57.72039 
L 230.424436 56.095253 
L 230.532655 56.905331 
L 230.640873 56.095253 
L 230.749091 61.868993 
L 230.965527 56.095253 
L 231.181964 56.095253 
L 231.3984 56.905331 
L 231.506618 56.905331 
L 231.614836 56.095253 
L 231.723055 56.905331 
L 231.939491 56.095253 
L 232.155927 58.540391 
L 232.264145 57.72039 
L 232.372364 57.72039 
L 232.5888 56.095253 
L 232.913455 56.095253 
L 233.238109 57.72039 
L 233.562764 56.095253 
L 233.670982 56.095253 
L 233.887418 58.540391 
L 234.103855 56.095253 
L 234.320291 56.095253 
L 234.428509 57.72039 
L 234.644945 56.095253 
L 234.753164 56.095253 
L 234.861382 58.540391 
L 235.077818 56.095253 
L 235.186036 57.72039 
L 235.510691 56.095253 
L 235.618909 58.540391 
L 235.727127 63.561811 
L 235.943564 56.095253 
L 236.051782 56.095253 
L 236.16 56.905331 
L 236.268218 56.095253 
L 236.376436 56.905331 
L 236.484655 56.095253 
L 236.701091 56.905331 
L 236.917527 56.095253 
L 237.133964 57.72039 
L 237.242182 56.905331 
L 237.3504 61.868993 
L 237.566836 56.095253 
L 237.675055 56.095253 
L 237.783273 61.029641 
L 237.999709 56.095253 
L 238.216145 56.905331 
L 238.432582 56.095253 
L 238.5408 58.540391 
L 238.649018 56.095253 
L 238.757236 56.905331 
L 238.865455 56.095253 
L 238.973673 56.905331 
L 239.081891 56.095253 
L 239.190109 61.029641 
L 239.406545 56.095253 
L 239.7312 56.095253 
L 239.839418 61.029641 
L 240.055855 56.905331 
L 240.272291 56.095253 
L 240.380509 62.713066 
L 240.596945 56.095253 
L 240.705164 56.905331 
L 240.813382 56.095253 
L 241.029818 57.72039 
L 241.138036 58.540391 
L 241.354473 56.095253 
L 241.462691 56.095253 
L 241.679127 58.540391 
L 241.787345 59.365295 
L 241.895564 56.095253 
L 242.003782 57.72039 
L 242.220218 56.095253 
L 242.328436 60.19506 
L 242.544873 56.095253 
L 242.653091 59.365295 
L 242.869527 56.095253 
L 242.977745 58.540391 
L 243.194182 56.095253 
L 243.3024 58.540391 
L 243.518836 56.095253 
L 243.843491 56.095253 
L 243.951709 56.905331 
L 244.059927 56.095253 
L 244.168145 58.540391 
L 244.4928 56.095253 
L 244.709236 56.905331 
L 244.817455 62.713066 
L 244.925673 56.095253 
L 245.033891 56.905331 
L 245.250327 56.095253 
L 245.358545 56.905331 
L 245.574982 56.095253 
L 245.899636 56.095253 
L 246.007855 57.72039 
L 246.116073 56.905331 
L 246.224291 58.540391 
L 246.332509 56.095253 
L 246.440727 57.72039 
L 246.657164 56.095253 
L 246.765382 60.19506 
L 246.8736 56.095253 
L 246.981818 62.713066 
L 247.090036 56.905331 
L 247.198255 66.13554 
L 247.414691 56.095253 
L 247.631127 56.905331 
L 247.739345 60.19506 
L 247.955782 56.095253 
L 248.064 57.72039 
L 248.280436 56.095253 
L 248.496873 59.365295 
L 248.713309 56.095253 
L 248.821527 56.095253 
L 248.929745 56.905331 
L 249.037964 56.095253 
L 249.146182 59.365295 
L 249.362618 56.095253 
L 249.470836 56.905331 
L 249.579055 56.095253 
L 249.687273 57.72039 
L 249.903709 56.095253 
L 250.011927 56.905331 
L 250.120145 59.365295 
L 250.336582 56.905331 
L 250.4448 59.365295 
L 250.769455 56.095253 
L 250.877673 56.905331 
L 250.985891 59.365295 
L 251.202327 56.095253 
L 251.310545 56.905331 
L 251.526982 56.095253 
L 251.6352 56.095253 
L 251.743418 56.905331 
L 251.959855 56.095253 
L 252.068073 56.095253 
L 252.176291 61.029641 
L 252.284509 56.095253 
L 252.500945 64.415175 
L 252.609164 56.905331 
L 252.717382 57.72039 
L 252.933818 56.095253 
L 253.042036 56.095253 
L 253.258473 56.905331 
L 253.474909 56.905331 
L 253.583127 57.72039 
L 253.907782 56.095253 
L 254.016 56.905331 
L 254.232436 56.095253 
L 254.448873 56.905331 
L 254.557091 59.365295 
L 254.773527 56.095253 
L 254.881745 56.095253 
L 255.098182 58.540391 
L 255.314618 56.095253 
L 255.531055 56.095253 
L 255.639273 56.905331 
L 255.747491 56.095253 
L 255.963927 57.72039 
L 256.180364 56.095253 
L 256.288582 57.72039 
L 256.3968 56.095253 
L 256.505018 56.905331 
L 256.613236 56.095253 
L 256.829673 56.905331 
L 256.937891 56.905331 
L 257.154327 56.095253 
L 257.262545 56.095253 
L 257.478982 56.905331 
L 257.5872 61.029641 
L 257.803636 56.905331 
L 258.020073 56.905331 
L 258.236509 56.095253 
L 258.344727 58.540391 
L 258.561164 56.905331 
L 258.669382 56.905331 
L 258.885818 56.095253 
L 258.994036 57.72039 
L 259.102255 56.095253 
L 259.210473 61.029641 
L 259.318691 56.095253 
L 259.426909 58.540391 
L 259.643345 56.905331 
L 259.751564 59.365295 
L 259.859782 58.540391 
L 260.076218 56.095253 
L 260.184436 56.905331 
L 260.400873 56.095253 
L 260.509091 56.095253 
L 260.725527 57.72039 
L 260.941964 56.095253 
L 261.050182 56.095253 
L 261.266618 57.72039 
L 261.374836 56.095253 
L 261.483055 57.72039 
L 261.807709 56.095253 
L 262.024145 56.905331 
L 262.132364 56.905331 
L 262.240582 58.540391 
L 262.457018 56.905331 
L 262.565236 59.365295 
L 262.673455 56.095253 
L 262.889891 59.365295 
L 262.998109 58.540391 
L 263.106327 56.095253 
L 263.214545 66.13554 
L 263.322764 57.72039 
L 263.430982 63.561811 
L 263.5392 56.095253 
L 263.755636 68.865103 
L 263.972073 148.367864 
L 264.080291 162.067948 
L 264.296727 130.659981 
L 265.811782 130.659981 
L 265.92 68.002316 
L 266.028218 130.659981 
L 266.136436 56.095253 
L 266.244655 72.075801 
L 266.352873 56.905331 
L 266.569309 68.285393 
L 266.785745 56.905331 
L 266.893964 57.72039 
L 267.002182 56.095253 
L 267.218618 56.905331 
L 267.326836 74.709017 
L 267.543273 56.095253 
L 267.651491 56.905331 
L 267.867927 56.095253 
L 267.976145 56.905331 
L 268.084364 56.095253 
L 268.3008 58.540391 
L 268.517236 56.095253 
L 268.625455 56.905331 
L 268.733673 60.19506 
L 268.950109 56.905331 
L 269.058327 56.095253 
L 269.166545 58.540391 
L 269.382982 56.905331 
L 269.4912 57.72039 
L 269.707636 56.095253 
L 269.815855 59.365295 
L 269.924073 56.905331 
L 270.032291 58.540391 
L 270.140509 64.415175 
L 270.356945 56.905331 
L 270.465164 57.72039 
L 270.789818 56.095253 
L 271.006255 56.095253 
L 271.222691 56.905331 
L 271.330909 56.095253 
L 271.439127 56.905331 
L 271.547345 56.095253 
L 271.655564 57.72039 
L 271.763782 56.095253 
L 271.980218 60.19506 
L 272.196655 56.095253 
L 272.629527 56.095253 
L 272.845964 56.905331 
L 272.954182 56.905331 
L 273.170618 56.095253 
L 273.278836 56.905331 
L 273.495273 56.095253 
L 273.603491 57.72039 
L 273.819927 56.095253 
L 273.928145 56.095253 
L 274.036364 56.905331 
L 274.144582 56.095253 
L 274.361018 57.72039 
L 274.469236 57.72039 
L 274.577455 59.365295 
L 274.685673 56.095253 
L 274.902109 57.72039 
L 275.118545 56.095253 
L 275.226764 56.095253 
L 275.334982 57.72039 
L 275.659636 56.095253 
L 275.767855 56.905331 
L 275.876073 56.095253 
L 275.984291 57.72039 
L 276.200727 56.095253 
L 276.741818 56.095253 
L 276.958255 56.905331 
L 277.066473 56.905331 
L 277.282909 56.095253 
L 277.391127 56.905331 
L 277.499345 56.095253 
L 277.607564 56.905331 
L 277.824 56.095253 
L 277.932218 58.540391 
L 278.148655 56.095253 
L 278.256873 56.095253 
L 278.473309 56.905331 
L 278.689745 56.095253 
L 278.797964 57.72039 
L 279.0144 56.095253 
L 279.230836 56.095253 
L 279.339055 57.72039 
L 279.555491 56.095253 
L 280.096582 56.095253 
L 280.2048 56.905331 
L 280.421236 56.095253 
L 280.529455 56.095253 
L 280.637673 56.905331 
L 280.854109 56.095253 
L 281.3952 56.095253 
L 281.503418 56.905331 
L 281.719855 56.095253 
L 281.828073 56.905331 
L 282.044509 56.095253 
L 282.260945 56.905331 
L 282.369164 56.095253 
L 282.5856 56.905331 
L 282.802036 56.095253 
L 282.910255 56.095253 
L 283.018473 56.905331 
L 283.234909 56.095253 
L 283.559564 56.095253 
L 283.667782 56.905331 
L 283.884218 56.095253 
L 284.208873 56.095253 
L 284.317091 56.905331 
L 284.533527 56.095253 
L 285.074618 56.095253 
L 285.182836 56.905331 
L 285.291055 56.095253 
L 285.399273 56.905331 
L 285.615709 56.095253 
L 286.265018 56.095253 
L 286.373236 58.540391 
L 286.589673 56.095253 
L 287.888291 56.095253 
L 287.996509 60.19506 
L 288.212945 56.095253 
L 290.160873 56.095253 
L 290.269091 56.905331 
L 290.269091 56.905331 
" clip-path="url(#p2046375c03)" style="fill: none; stroke: #2ca02c; stroke-width: 1.5; stroke-linecap: square"/>
   </g>
   <g id="line2d_20">
    <path d="M 73.832727 117.378824 
L 74.049164 56.095253 
L 74.157382 56.095253 
L 74.2656 60.685943 
L 74.482036 56.095253 
L 74.590255 56.095253 
L 74.698473 70.985068 
L 74.806691 116.192962 
L 75.131345 56.095253 
L 75.239564 56.095253 
L 75.347782 108.311593 
L 75.564218 56.095253 
L 75.672436 68.521879 
L 75.780655 56.095253 
L 75.888873 57.297344 
L 75.997091 106.743025 
L 76.213527 56.095253 
L 76.429964 56.095253 
L 76.538182 90.948901 
L 76.754618 56.095253 
L 76.971055 56.095253 
L 77.079273 101.115788 
L 77.187491 56.095253 
L 77.295709 70.607667 
L 77.512145 56.095253 
L 77.620364 86.587954 
L 77.8368 56.095253 
L 77.945018 61.293591 
L 78.053236 56.095253 
L 78.161455 149.223841 
L 78.269673 56.095253 
L 78.486109 70.636309 
L 78.594327 151.167668 
L 78.702545 56.439087 
L 78.918982 87.560836 
L 79.0272 120.832245 
L 79.243636 56.095253 
L 79.351855 56.095253 
L 79.460073 63.907042 
L 79.676509 56.095253 
L 79.784727 56.095253 
L 79.892945 111.88354 
L 80.109382 56.095253 
L 80.542255 56.095253 
L 80.650473 53.568 
L 80.758691 89.258005 
L 80.975127 56.095253 
L 81.191564 60.987937 
L 81.299782 56.929907 
L 81.408 76.190965 
L 81.624436 56.095253 
L 81.732655 56.095253 
L 81.840873 56.591768 
L 81.949091 65.579094 
L 82.057309 56.095253 
L 82.381964 105.388543 
L 82.490182 63.35089 
L 82.5984 73.923101 
L 82.706618 56.095253 
L 82.814836 56.439087 
L 83.031273 56.095253 
L 83.139491 60.492293 
L 83.247709 56.095253 
L 83.355927 63.35089 
L 83.464145 56.095253 
L 83.572364 64.764884 
L 83.680582 56.439087 
L 83.7888 69.549372 
L 84.005236 56.095253 
L 84.113455 57.616706 
L 84.329891 56.095253 
L 84.438109 56.095253 
L 84.546327 70.985068 
L 84.762764 56.095253 
L 84.870982 60.637148 
L 85.087418 56.095253 
L 85.412073 56.095253 
L 85.520291 90.948901 
L 85.736727 56.095253 
L 86.1696 56.095253 
L 86.277818 131.886496 
L 86.494255 56.095253 
L 86.710691 56.095253 
L 86.818909 60.431607 
L 86.927127 56.095253 
L 87.035345 70.595627 
L 87.576436 56.095253 
L 87.901091 56.095253 
L 88.009309 62.301134 
L 88.117527 92.646326 
L 88.225745 56.095253 
L 88.333964 138.07142 
L 88.442182 56.095253 
L 88.5504 59.849012 
L 88.766836 56.095253 
L 88.983273 56.095253 
L 89.091491 65.37823 
L 89.307927 56.095253 
L 89.416145 56.095253 
L 89.524364 78.972184 
L 89.7408 56.095253 
L 89.957236 56.095253 
L 90.065455 56.785736 
L 90.173673 56.095253 
L 90.281891 117.296668 
L 90.498327 56.095253 
L 90.714764 68.319678 
L 90.9312 56.095253 
L 91.147636 56.095253 
L 91.255855 56.929907 
L 91.364073 77.886929 
L 91.580509 56.095253 
L 91.688727 105.100764 
L 91.796945 79.210666 
L 91.905164 182.135451 
L 92.013382 56.095253 
L 92.1216 63.402403 
L 92.229818 56.095253 
L 92.338036 147.799869 
L 92.554473 57.111326 
L 92.770909 56.095253 
L 92.879127 111.849782 
L 93.095564 56.095253 
L 93.203782 56.095253 
L 93.312 56.785736 
L 93.528436 56.095253 
L 93.636655 89.664201 
L 93.744873 56.095253 
L 93.853091 61.293591 
L 93.961309 88.674981 
L 94.285964 56.095253 
L 95.151709 56.095253 
L 95.259927 84.531926 
L 95.476364 56.095253 
L 95.584582 109.748486 
L 95.6928 56.095253 
L 95.801018 61.293591 
L 95.909236 56.095253 
L 96.017455 113.311294 
L 96.233891 56.095253 
L 96.450327 56.095253 
L 96.666764 91.253485 
L 96.8832 56.095253 
L 97.099636 56.095253 
L 97.207855 61.293591 
L 97.424291 56.095253 
L 97.640727 56.095253 
L 97.748945 82.024846 
L 97.965382 56.095253 
L 98.0736 56.095253 
L 98.181818 81.35239 
L 98.398255 56.095253 
L 98.939345 56.095253 
L 99.047564 68.518742 
L 99.264 56.095253 
L 99.913309 56.095253 
L 100.021527 98.257575 
L 100.129745 60.987937 
L 100.237964 65.140079 
L 100.4544 56.095253 
L 100.995491 56.095253 
L 101.103709 59.020832 
L 101.320145 56.095253 
L 101.536582 56.095253 
L 101.6448 61.293591 
L 101.753018 56.095253 
L 101.861236 73.628744 
L 101.969455 56.095253 
L 102.077673 79.01091 
L 102.185891 56.095253 
L 102.294109 88.372246 
L 102.402327 170.550274 
L 102.510545 56.095253 
L 102.618764 65.37823 
L 102.726982 111.238316 
L 102.943418 56.095253 
L 103.376291 56.095253 
L 103.484509 66.699383 
L 103.592727 92.783936 
L 103.809164 56.095253 
L 103.917382 67.079555 
L 104.0256 56.095253 
L 104.242036 70.227076 
L 104.350255 107.979497 
L 104.458473 56.095253 
L 104.566691 56.439087 
L 104.674909 95.004347 
L 104.891345 56.095253 
L 105.432436 56.095253 
L 105.540655 63.216094 
L 105.648873 56.095253 
L 105.757091 137.919184 
L 105.973527 56.095253 
L 106.189964 56.095253 
L 106.298182 56.929907 
L 106.4064 70.491245 
L 106.622836 56.095253 
L 106.731055 56.439087 
L 106.839273 56.095253 
L 107.055709 140.254011 
L 107.272145 56.095253 
L 107.380364 114.65407 
L 107.488582 56.095253 
L 107.5968 70.985068 
L 107.705018 56.095253 
L 107.813236 57.297344 
L 108.029673 56.095253 
L 108.137891 56.095253 
L 108.246109 60.637148 
L 108.462545 56.095253 
L 108.895418 56.095253 
L 109.003636 60.492293 
L 109.220073 56.095253 
L 109.328291 56.929907 
L 109.436509 56.095253 
L 109.544727 53.632797 
L 109.761164 69.549372 
L 109.869382 89.801256 
L 109.9776 56.095253 
L 110.085818 88.454128 
L 110.302255 56.095253 
L 110.410473 56.095253 
L 110.518691 92.861504 
L 110.735127 56.095253 
L 111.059782 56.095253 
L 111.168 60.987937 
L 111.276218 107.325139 
L 111.492655 56.095253 
L 111.709091 56.095253 
L 111.817309 71.391817 
L 111.925527 56.095253 
L 112.033745 57.297344 
L 112.141964 103.775744 
L 112.3584 56.095253 
L 112.574836 56.095253 
L 112.683055 70.607667 
L 112.899491 56.095253 
L 113.007709 61.293591 
L 113.224145 56.095253 
L 113.981673 56.095253 
L 114.089891 84.420007 
L 114.306327 56.095253 
L 114.7392 56.095253 
L 114.847418 65.347608 
L 114.955636 56.095253 
L 115.063855 64.481682 
L 115.172073 89.469472 
L 115.280291 54.058999 
L 115.388509 64.723917 
L 115.604945 56.095253 
L 115.713164 56.591767 
L 115.821382 61.293591 
L 115.9296 89.801256 
L 116.146036 56.095253 
L 116.254255 56.591767 
L 116.470691 56.095253 
L 116.578909 56.095253 
L 116.687127 123.185749 
L 116.903564 56.095253 
L 117.011782 60.492293 
L 117.12 56.929907 
L 117.228218 60.987937 
L 117.444655 56.095253 
L 117.661091 56.095253 
L 117.769309 84.606299 
L 117.985745 56.095253 
L 118.093964 56.095253 
L 118.202182 90.717802 
L 118.418618 56.095253 
L 118.526836 56.095253 
L 118.635055 60.987937 
L 118.851491 56.095253 
L 119.284364 56.095253 
L 119.5008 84.681483 
L 119.609018 56.095253 
L 119.717236 88.674981 
L 119.933673 225.622113 
L 120.150109 56.095253 
L 120.258327 71.375092 
L 120.366545 123.674516 
L 120.474764 56.095253 
L 120.582982 56.591768 
L 120.6912 295.488 
L 120.799418 273.332196 
L 120.907636 56.095253 
L 121.015855 221.219571 
L 121.232291 65.510305 
L 121.340509 65.826198 
L 121.448727 65.021128 
L 121.665164 56.929907 
L 121.8816 63.354178 
L 121.989818 56.095253 
L 122.098036 59.034776 
L 122.206255 58.639769 
L 122.314473 61.000528 
L 122.530909 56.755216 
L 122.639127 60.592835 
L 122.747345 57.124181 
L 122.963782 58.588344 
L 123.072 56.755216 
L 123.288436 61.129698 
L 123.396655 56.755216 
L 123.721309 59.832914 
L 123.829527 57.105465 
L 123.937745 57.46944 
L 124.154182 59.952384 
L 124.370618 59.952384 
L 124.478836 59.066342 
L 124.587055 59.952384 
L 124.695273 56.41853 
L 124.911709 59.952384 
L 125.019927 59.952384 
L 125.128145 57.46944 
L 125.236364 59.952384 
L 125.344582 58.239293 
L 125.561018 59.952384 
L 125.669236 57.84732 
L 125.777455 59.952384 
L 125.885673 56.755216 
L 126.102109 59.952384 
L 126.210327 59.952384 
L 126.426764 58.213676 
L 126.534982 56.095253 
L 126.751418 59.952384 
L 126.859636 57.105465 
L 127.076073 59.952384 
L 128.374691 59.952384 
L 128.591127 56.095253 
L 128.807564 59.952384 
L 130.430836 59.952384 
L 130.539055 58.239293 
L 130.755491 59.952384 
L 134.976 59.952384 
L 135.084218 57.105465 
L 135.300655 59.952384 
L 135.408873 59.952384 
L 135.625309 56.095253 
L 135.841745 57.46944 
L 136.058182 56.095253 
L 136.1664 58.239293 
L 136.274618 56.095253 
L 136.382836 59.952384 
L 136.599273 56.755216 
L 136.707491 56.41853 
L 136.815709 59.066342 
L 137.032145 56.095253 
L 137.140364 59.952384 
L 137.3568 56.41853 
L 137.573236 59.952384 
L 137.681455 59.952384 
L 137.789673 57.46944 
L 138.006109 59.952384 
L 138.114327 56.41853 
L 138.222545 57.46944 
L 138.330764 57.105465 
L 138.5472 59.952384 
L 138.655418 58.239293 
L 138.763636 59.952384 
L 138.871855 56.095253 
L 138.980073 57.84732 
L 139.088291 57.105465 
L 139.196509 58.239293 
L 139.412945 57.46944 
L 139.521164 56.095253 
L 139.629382 56.755216 
L 139.7376 56.41853 
L 139.845818 56.755216 
L 139.954036 56.41853 
L 140.062255 59.952384 
L 140.170473 56.41853 
L 140.278691 59.952384 
L 140.495127 56.095253 
L 140.603345 59.952384 
L 140.819782 57.105465 
L 140.928 56.41853 
L 141.036218 56.755216 
L 141.144436 56.095253 
L 141.252655 57.105465 
L 141.360873 59.952384 
L 141.469091 59.066342 
L 141.577309 56.755216 
L 141.685527 57.105465 
L 141.901964 57.84732 
L 142.010182 58.239293 
L 142.226618 56.095253 
L 142.334836 56.755216 
L 142.443055 56.41853 
L 142.551273 57.105465 
L 142.659491 56.755216 
L 142.875927 59.952384 
L 142.984145 56.41853 
L 143.092364 56.755216 
L 143.200582 59.501866 
L 143.3088 58.645561 
L 143.525236 59.952384 
L 143.633455 56.095253 
L 143.849891 59.952384 
L 143.958109 57.105465 
L 144.066327 59.952384 
L 144.174545 57.46944 
L 144.390982 59.501866 
L 144.4992 59.066342 
L 144.607418 56.41853 
L 144.715636 58.645561 
L 144.823855 57.84732 
L 144.932073 59.952384 
L 145.148509 56.095253 
L 145.256727 58.645561 
L 145.473164 56.41853 
L 145.581382 56.41853 
L 145.797818 59.952384 
L 145.906036 56.41853 
L 146.014255 59.952384 
L 146.122473 59.066342 
L 146.230691 59.952384 
L 146.338909 57.105465 
L 146.447127 59.066342 
L 146.555345 56.755216 
L 146.663564 59.952384 
L 146.771782 58.645561 
L 146.88 59.952384 
L 146.988218 56.41853 
L 147.096436 57.46944 
L 147.312873 56.755216 
L 147.421091 59.501866 
L 147.529309 57.46944 
L 147.637527 59.952384 
L 147.745745 56.755216 
L 147.962182 59.952384 
L 148.0704 59.952384 
L 148.178618 59.066342 
L 148.395055 59.952384 
L 148.503273 59.952384 
L 148.719709 56.41853 
L 148.936145 59.952384 
L 149.152582 59.952384 
L 149.2608 57.84732 
L 149.369018 59.952384 
L 149.477236 56.755216 
L 149.693673 59.952384 
L 150.018327 59.952384 
L 150.126545 57.84732 
L 150.342982 59.952384 
L 150.4512 59.952384 
L 150.559418 58.645561 
L 150.775855 59.952384 
L 150.884073 59.952384 
L 150.992291 57.46944 
L 151.100509 59.952384 
L 151.208727 56.41853 
L 151.316945 59.952384 
L 151.533382 56.755216 
L 151.749818 59.952384 
L 151.858036 56.41853 
L 151.966255 59.952384 
L 152.074473 56.755216 
L 152.290909 59.952384 
L 152.832 59.952384 
L 152.940218 66.649566 
L 153.048436 130.659981 
L 153.156655 66.390729 
L 153.264873 75.961452 
L 153.373091 63.561811 
L 153.589527 130.659981 
L 154.130618 130.659981 
L 154.238836 122.220902 
L 154.455273 130.659981 
L 154.563491 130.659981 
L 154.671709 88.086455 
L 154.779927 98.864948 
L 154.888145 130.659981 
L 154.996364 63.561811 
L 155.104582 73.534727 
L 155.2128 66.13554 
L 155.321018 71.72832 
L 155.429236 69.770728 
L 155.537455 75.117344 
L 155.645673 124.682089 
L 155.753891 68.002316 
L 155.862109 74.30936 
L 155.970327 68.572943 
L 156.078545 71.72832 
L 156.186764 81.988452 
L 156.294982 68.865103 
L 156.4032 130.659981 
L 156.619636 66.912161 
L 156.727855 65.273103 
L 156.836073 66.390729 
L 156.944291 61.029641 
L 157.160727 98.864948 
L 157.268945 75.117344 
L 157.377164 90.572044 
L 157.485382 62.713066 
L 157.5936 130.659981 
L 157.810036 68.572943 
L 157.918255 79.767228 
L 158.134691 64.415175 
L 158.242909 74.30936 
L 158.351127 72.429931 
L 158.459345 67.723578 
L 158.567564 88.884739 
L 158.675782 62.713066 
L 158.784 130.659981 
L 159.000436 62.713066 
L 159.108655 81.988452 
L 159.216873 58.540391 
L 159.325091 93.360265 
L 159.541527 68.865103 
L 159.649745 71.72832 
L 159.757964 62.713066 
L 159.866182 72.429931 
L 160.082618 130.659981 
L 160.299055 58.540391 
L 160.515491 75.117344 
L 160.623709 59.365295 
L 160.840145 69.162018 
L 160.948364 70.400372 
L 161.056582 57.72039 
L 161.1648 93.360265 
L 161.273018 73.159128 
L 161.489455 130.659981 
L 161.705891 61.029641 
L 161.814109 130.659981 
L 161.922327 56.905331 
L 162.030545 119.508304 
L 162.138764 67.178619 
L 162.3552 83.83079 
L 162.463418 61.029641 
L 162.679855 76.844791 
L 162.788073 130.659981 
L 162.896291 70.400372 
L 163.004509 130.659981 
L 163.112727 102.834165 
L 163.220945 130.659981 
L 163.329164 68.285393 
L 163.5456 85.852751 
L 163.653818 130.659981 
L 163.762036 66.390729 
L 163.870255 69.770728 
L 163.978473 92.393562 
L 164.194909 68.002316 
L 164.303127 67.723578 
L 164.411345 81.988452 
L 164.627782 68.865103 
L 164.736 69.770728 
L 164.844218 57.72039 
L 164.952436 107.461942 
L 165.060655 64.415175 
L 165.168873 90.572044 
L 165.385309 56.905331 
L 165.493527 130.659981 
L 165.709964 57.72039 
L 165.818182 66.13554 
L 165.9264 62.713066 
L 166.034618 74.30936 
L 166.142836 130.659981 
L 166.359273 61.868993 
L 166.575709 76.39801 
L 166.683927 130.659981 
L 166.792145 66.912161 
L 166.900364 130.659981 
L 167.1168 77.77084 
L 167.225018 70.723485 
L 167.333236 95.418575 
L 167.441455 85.852751 
L 167.549673 130.659981 
L 167.657891 61.029641 
L 167.874327 73.534727 
L 167.982545 130.659981 
L 168.198982 62.713066 
L 168.415418 71.72832 
L 168.523636 66.13554 
L 168.740073 130.659981 
L 168.956509 61.029641 
L 169.172945 72.075801 
L 169.281164 56.905331 
L 169.389382 68.865103 
L 169.4976 68.285393 
L 169.605818 74.30936 
L 169.714036 56.905331 
L 169.822255 130.659981 
L 169.930473 67.178619 
L 170.255127 130.659981 
L 170.363345 56.095253 
L 170.579782 130.659981 
L 170.688 130.659981 
L 170.796218 66.649566 
L 171.012655 130.659981 
L 171.229091 130.659981 
L 171.337309 73.918037 
L 171.445527 114.987009 
L 171.553745 104.295639 
L 171.661964 65.273103 
L 171.770182 68.285393 
L 171.8784 59.365295 
L 171.986618 104.295639 
L 172.094836 59.365295 
L 172.203055 91.46495 
L 172.311273 79.248693 
L 172.419491 82.58432 
L 172.527709 122.005124 
L 172.635927 65.273103 
L 172.744145 68.002316 
L 172.852364 67.449052 
L 172.960582 88.086455 
L 173.177018 58.540391 
L 173.285236 66.390729 
L 173.393455 62.713066 
L 173.501673 74.30936 
L 173.609891 61.868993 
L 173.718109 130.659981 
L 173.934545 65.273103 
L 174.150982 130.659981 
L 174.367418 61.029641 
L 174.583855 130.659981 
L 174.692073 65.273103 
L 174.800291 130.659981 
L 174.908509 63.561811 
L 175.016727 68.285393 
L 175.124945 130.659981 
L 175.233164 69.162018 
L 175.341382 130.659981 
L 175.4496 83.198114 
L 175.666036 130.659981 
L 175.882473 65.273103 
L 175.990691 130.659981 
L 176.098909 66.13554 
L 176.207127 130.659981 
L 176.315345 68.865103 
L 176.423564 130.659981 
L 176.531782 69.770728 
L 176.748218 130.659981 
L 176.856436 56.905331 
L 176.964655 130.659981 
L 177.072873 71.387253 
L 177.181091 89.712647 
L 177.289309 130.659981 
L 177.397527 95.418575 
L 177.505745 130.659981 
L 177.613964 83.83079 
L 177.722182 130.659981 
L 177.8304 87.316072 
L 177.938618 130.659981 
L 178.046836 70.723485 
L 178.263273 130.659981 
L 178.371491 74.30936 
L 178.479709 83.83079 
L 178.587927 70.400372 
L 178.696145 130.659981 
L 178.912582 65.273103 
L 179.0208 73.918037 
L 179.129018 70.082847 
L 179.237236 95.418575 
L 179.345455 70.723485 
L 179.453673 130.659981 
L 179.670109 79.767228 
L 179.778327 130.659981 
L 179.886545 69.46384 
L 180.102982 130.659981 
L 180.319418 130.659981 
L 180.427636 66.390729 
L 180.644073 130.659981 
L 180.752291 57.72039 
L 180.968727 130.659981 
L 181.076945 130.659981 
L 181.185164 67.449052 
L 181.4016 130.659981 
L 181.509818 130.659981 
L 181.618036 56.905331 
L 181.726255 57.72039 
L 181.834473 67.723578 
L 182.050909 130.659981 
L 182.159127 81.409618 
L 182.375564 130.659981 
L 182.700218 130.659981 
L 182.808436 69.770728 
L 183.024873 130.659981 
L 183.133091 61.029641 
L 183.349527 130.659981 
L 183.457745 130.659981 
L 183.565964 97.663666 
L 183.7824 130.659981 
L 183.890618 130.659981 
L 183.998836 68.865103 
L 184.215273 130.659981 
L 184.431709 62.713066 
L 184.648145 130.659981 
L 184.756364 130.659981 
L 184.864582 66.390729 
L 185.189236 130.659981 
L 185.297455 130.659981 
L 185.405673 66.13554 
L 185.513891 70.082847 
L 185.730327 130.659981 
L 185.838545 56.905331 
L 186.054982 130.659981 
L 186.704291 130.659981 
L 186.812509 80.299762 
L 187.028945 130.659981 
L 187.461818 130.659981 
L 187.678255 81.409618 
L 187.894691 130.659981 
L 188.219345 130.659981 
L 188.327564 67.178619 
L 188.544 130.659981 
L 188.868655 130.659981 
L 188.976873 62.713066 
L 189.193309 130.659981 
L 189.517964 130.659981 
L 189.7344 69.46384 
L 189.950836 130.659981 
L 190.167273 130.659981 
L 190.275491 85.852751 
L 190.383709 130.659981 
L 190.600145 70.723485 
L 190.708364 130.659981 
L 190.816582 66.912161 
L 191.033018 130.659981 
L 191.141236 85.852751 
L 191.249455 130.659981 
L 191.465891 56.095253 
L 191.682327 130.659981 
L 191.790545 69.46384 
L 192.1152 130.659981 
L 192.223418 130.659981 
L 192.331636 68.285393 
L 192.548073 130.659981 
L 192.656291 70.400372 
L 192.872727 130.659981 
L 192.980945 60.19506 
L 193.197382 130.659981 
L 193.3056 81.988452 
L 193.413818 130.659981 
L 193.522036 92.393562 
L 193.738473 130.659981 
L 194.171345 130.659981 
L 194.279564 68.285393 
L 194.387782 130.659981 
L 194.496 63.561811 
L 194.712436 130.659981 
L 195.469964 130.659981 
L 195.578182 71.72832 
L 195.794618 130.659981 
L 196.011055 130.659981 
L 196.119273 114.987009 
L 196.335709 130.659981 
L 196.552145 130.659981 
L 196.768582 61.868993 
L 196.8768 58.540391 
L 197.093236 61.868993 
L 197.201455 56.095253 
L 197.309673 57.72039 
L 197.526109 56.905331 
L 197.850764 60.19506 
L 198.0672 56.095253 
L 198.175418 130.659981 
L 198.283636 73.159128 
L 198.500073 130.659981 
L 199.041164 130.659981 
L 199.149382 76.39801 
L 199.2576 130.659981 
L 199.365818 73.534727 
L 199.582255 130.659981 
L 199.798691 130.659981 
L 199.906909 88.884739 
L 200.123345 130.659981 
L 200.556218 130.659981 
L 200.664436 85.852751 
L 200.772655 130.659981 
L 200.880873 69.162018 
L 200.989091 130.659981 
L 201.097309 57.72039 
L 201.205527 76.844791 
L 201.313745 63.561811 
L 201.421964 130.659981 
L 201.6384 56.905331 
L 201.746618 56.095253 
L 201.854836 73.918037 
L 202.287709 56.095253 
L 202.504145 66.13554 
L 202.612364 56.905331 
L 202.720582 66.13554 
L 202.8288 60.19506 
L 203.045236 66.390729 
L 203.153455 56.095253 
L 203.261673 71.387253 
L 203.369891 56.095253 
L 203.586327 66.390729 
L 203.910982 57.72039 
L 204.0192 66.13554 
L 204.127418 64.415175 
L 204.343855 58.540391 
L 204.452073 66.13554 
L 204.560291 57.72039 
L 204.668509 61.868993 
L 204.884945 56.095253 
L 205.2096 56.095253 
L 205.317818 62.713066 
L 205.426036 56.095253 
L 205.534255 59.365295 
L 205.750691 56.095253 
L 205.858909 56.905331 
L 205.967127 68.002316 
L 206.183564 56.095253 
L 206.4 56.095253 
L 206.616436 57.72039 
L 206.724655 56.905331 
L 206.941091 59.365295 
L 207.157527 56.905331 
L 207.265745 58.540391 
L 207.373964 64.415175 
L 207.482182 56.095253 
L 207.5904 56.905331 
L 207.698618 56.095253 
L 207.915055 61.029641 
L 208.023273 60.19506 
L 208.239709 62.713066 
L 208.456145 56.905331 
L 208.564364 64.415175 
L 208.672582 56.905331 
L 208.889018 60.19506 
L 208.997236 56.095253 
L 209.213673 61.868993 
L 209.321891 57.72039 
L 209.538327 60.19506 
L 209.646545 56.095253 
L 209.754764 57.72039 
L 209.9712 56.095253 
L 210.079418 60.19506 
L 210.295855 56.095253 
L 210.404073 58.540391 
L 210.512291 56.095253 
L 210.620509 64.415175 
L 210.836945 56.905331 
L 210.945164 58.540391 
L 211.1616 56.095253 
L 211.269818 59.365295 
L 211.378036 56.095253 
L 211.486255 59.365295 
L 211.702691 56.905331 
L 211.810909 56.095253 
L 211.919127 60.19506 
L 212.135564 56.905331 
L 212.352 56.095253 
L 212.460218 56.095253 
L 212.676655 56.905331 
L 212.784873 56.095253 
L 212.893091 57.72039 
L 213.001309 56.095253 
L 213.109527 66.649566 
L 213.325964 56.095253 
L 213.434182 59.365295 
L 213.758836 56.095253 
L 213.867055 57.72039 
L 213.975273 56.095253 
L 214.083491 59.365295 
L 214.191709 56.095253 
L 214.299927 56.905331 
L 214.516364 56.095253 
L 214.624582 56.905331 
L 214.7328 56.095253 
L 214.949236 57.72039 
L 215.273891 56.095253 
L 215.382109 56.905331 
L 215.598545 56.095253 
L 215.706764 56.905331 
L 215.814982 66.390729 
L 216.031418 56.905331 
L 216.139636 59.365295 
L 216.247855 56.905331 
L 216.356073 58.540391 
L 216.572509 56.095253 
L 216.788945 58.540391 
L 216.897164 60.19506 
L 217.1136 56.095253 
L 217.221818 56.905331 
L 217.330036 63.561811 
L 217.546473 56.095253 
L 217.654691 56.095253 
L 217.762909 59.365295 
L 217.871127 56.095253 
L 218.087564 57.72039 
L 218.195782 57.72039 
L 218.304 65.273103 
L 218.520436 56.095253 
L 218.628655 56.095253 
L 218.736873 60.19506 
L 218.953309 56.095253 
L 219.061527 58.540391 
L 219.277964 56.905331 
L 219.4944 56.095253 
L 219.710836 56.095253 
L 219.819055 59.365295 
L 220.251927 56.095253 
L 220.360145 59.365295 
L 220.468364 56.095253 
L 220.576582 59.365295 
L 220.6848 58.540391 
L 220.901236 56.095253 
L 221.009455 56.095253 
L 221.334109 57.72039 
L 221.442327 60.19506 
L 221.550545 57.72039 
L 221.766982 60.19506 
L 221.983418 56.905331 
L 222.308073 56.905331 
L 222.416291 61.868993 
L 222.632727 56.095253 
L 222.740945 58.540391 
L 222.957382 56.095253 
L 223.173818 57.72039 
L 223.390255 60.19506 
L 223.606691 56.095253 
L 223.714909 59.365295 
L 223.823127 58.540391 
L 224.039564 56.095253 
L 224.256 57.72039 
L 224.364218 57.72039 
L 224.472436 61.029641 
L 224.688873 56.095253 
L 224.905309 60.19506 
L 225.229964 56.095253 
L 225.338182 56.905331 
L 225.4464 62.713066 
L 225.554618 56.095253 
L 225.771055 61.868993 
L 225.879273 56.095253 
L 226.095709 57.72039 
L 226.312145 56.095253 
L 226.420364 59.365295 
L 226.528582 56.095253 
L 226.6368 56.905331 
L 226.745018 56.095253 
L 226.853236 59.365295 
L 226.961455 56.095253 
L 227.069673 60.19506 
L 227.286109 58.540391 
L 227.394327 57.72039 
L 227.502545 59.365295 
L 227.610764 58.540391 
L 227.718982 66.649566 
L 227.935418 56.095253 
L 228.043636 60.19506 
L 228.151855 56.095253 
L 228.260073 56.905331 
L 228.476509 56.095253 
L 228.584727 61.868993 
L 228.692945 60.19506 
L 228.801164 64.415175 
L 229.0176 56.095253 
L 229.342255 56.095253 
L 229.450473 57.72039 
L 229.666909 56.095253 
L 229.775127 56.095253 
L 229.883345 57.72039 
L 229.991564 56.095253 
L 230.099782 58.540391 
L 230.208 56.095253 
L 230.316218 57.72039 
L 230.424436 56.095253 
L 230.532655 56.905331 
L 230.640873 56.095253 
L 230.749091 61.868993 
L 230.965527 56.095253 
L 231.181964 56.095253 
L 231.3984 56.905331 
L 231.506618 56.905331 
L 231.614836 56.095253 
L 231.723055 56.905331 
L 231.939491 56.095253 
L 232.155927 58.540391 
L 232.264145 57.72039 
L 232.372364 57.72039 
L 232.5888 56.095253 
L 232.913455 56.095253 
L 233.238109 57.72039 
L 233.562764 56.095253 
L 233.670982 56.095253 
L 233.887418 58.540391 
L 234.103855 56.095253 
L 234.320291 56.095253 
L 234.428509 57.72039 
L 234.644945 56.095253 
L 234.753164 56.095253 
L 234.861382 58.540391 
L 235.077818 56.095253 
L 235.186036 57.72039 
L 235.510691 56.095253 
L 235.618909 58.540391 
L 235.727127 63.561811 
L 235.943564 56.095253 
L 236.051782 56.095253 
L 236.16 56.905331 
L 236.268218 56.095253 
L 236.376436 56.905331 
L 236.484655 56.095253 
L 236.701091 56.905331 
L 236.917527 56.095253 
L 237.133964 57.72039 
L 237.242182 56.905331 
L 237.3504 61.868993 
L 237.566836 56.095253 
L 237.675055 56.095253 
L 237.783273 61.029641 
L 237.999709 56.095253 
L 238.216145 56.905331 
L 238.432582 56.095253 
L 238.5408 58.540391 
L 238.649018 56.095253 
L 238.757236 56.905331 
L 238.865455 56.095253 
L 238.973673 56.905331 
L 239.081891 56.095253 
L 239.190109 61.029641 
L 239.406545 56.095253 
L 239.7312 56.095253 
L 239.839418 61.029641 
L 240.055855 56.905331 
L 240.272291 56.095253 
L 240.380509 62.713066 
L 240.596945 56.095253 
L 240.705164 56.905331 
L 240.813382 56.095253 
L 241.029818 57.72039 
L 241.138036 58.540391 
L 241.354473 56.095253 
L 241.462691 56.095253 
L 241.679127 58.540391 
L 241.787345 59.365295 
L 241.895564 56.095253 
L 242.003782 57.72039 
L 242.220218 56.095253 
L 242.328436 60.19506 
L 242.544873 56.095253 
L 242.653091 59.365295 
L 242.869527 56.095253 
L 242.977745 58.540391 
L 243.194182 56.095253 
L 243.3024 58.540391 
L 243.518836 56.095253 
L 243.843491 56.095253 
L 243.951709 56.905331 
L 244.059927 56.095253 
L 244.168145 58.540391 
L 244.4928 56.095253 
L 244.709236 56.905331 
L 244.817455 62.713066 
L 244.925673 56.095253 
L 245.033891 56.905331 
L 245.250327 56.095253 
L 245.358545 56.905331 
L 245.574982 56.095253 
L 245.899636 56.095253 
L 246.007855 57.72039 
L 246.116073 56.905331 
L 246.224291 58.540391 
L 246.332509 56.095253 
L 246.440727 57.72039 
L 246.657164 56.095253 
L 246.765382 60.19506 
L 246.8736 56.095253 
L 246.981818 62.713066 
L 247.090036 56.905331 
L 247.198255 66.13554 
L 247.414691 56.095253 
L 247.631127 56.905331 
L 247.739345 60.19506 
L 247.955782 56.095253 
L 248.064 57.72039 
L 248.280436 56.095253 
L 248.496873 59.365295 
L 248.713309 56.095253 
L 248.821527 56.095253 
L 248.929745 56.905331 
L 249.037964 56.095253 
L 249.146182 59.365295 
L 249.362618 56.095253 
L 249.470836 56.905331 
L 249.579055 56.095253 
L 249.687273 57.72039 
L 249.903709 56.095253 
L 250.011927 56.905331 
L 250.120145 59.365295 
L 250.336582 56.905331 
L 250.4448 59.365295 
L 250.769455 56.095253 
L 250.877673 56.905331 
L 250.985891 59.365295 
L 251.202327 56.095253 
L 251.310545 56.905331 
L 251.526982 56.095253 
L 251.6352 56.095253 
L 251.743418 56.905331 
L 251.959855 56.095253 
L 252.068073 56.095253 
L 252.176291 61.029641 
L 252.284509 56.095253 
L 252.500945 64.415175 
L 252.609164 56.905331 
L 252.717382 57.72039 
L 252.933818 56.095253 
L 253.042036 56.095253 
L 253.258473 56.905331 
L 253.474909 56.905331 
L 253.583127 57.72039 
L 253.907782 56.095253 
L 254.016 56.905331 
L 254.232436 56.095253 
L 254.448873 56.905331 
L 254.557091 59.365295 
L 254.773527 56.095253 
L 254.881745 56.095253 
L 255.098182 58.540391 
L 255.314618 56.095253 
L 255.531055 56.095253 
L 255.639273 56.905331 
L 255.747491 56.095253 
L 255.963927 57.72039 
L 256.180364 56.095253 
L 256.288582 57.72039 
L 256.3968 56.095253 
L 256.505018 56.905331 
L 256.613236 56.095253 
L 256.829673 56.905331 
L 256.937891 56.905331 
L 257.154327 56.095253 
L 257.262545 56.095253 
L 257.478982 56.905331 
L 257.5872 61.029641 
L 257.803636 56.905331 
L 258.020073 56.905331 
L 258.236509 56.095253 
L 258.344727 58.540391 
L 258.561164 56.905331 
L 258.669382 56.905331 
L 258.885818 56.095253 
L 258.994036 57.72039 
L 259.102255 56.095253 
L 259.210473 61.029641 
L 259.318691 56.095253 
L 259.426909 58.540391 
L 259.643345 56.905331 
L 259.751564 59.365295 
L 259.859782 58.540391 
L 260.076218 56.095253 
L 260.184436 56.905331 
L 260.400873 56.095253 
L 260.509091 56.095253 
L 260.725527 57.72039 
L 260.941964 56.095253 
L 261.050182 56.095253 
L 261.266618 57.72039 
L 261.374836 56.095253 
L 261.483055 57.72039 
L 261.807709 56.095253 
L 262.024145 56.905331 
L 262.132364 56.905331 
L 262.240582 58.540391 
L 262.457018 56.905331 
L 262.565236 59.365295 
L 262.673455 56.095253 
L 262.889891 59.365295 
L 262.998109 58.540391 
L 263.106327 56.095253 
L 263.214545 66.13554 
L 263.322764 57.72039 
L 263.430982 63.561811 
L 263.5392 56.095253 
L 263.755636 68.865103 
L 263.972073 148.367864 
L 264.080291 162.067948 
L 264.296727 130.659981 
L 265.811782 130.659981 
L 265.92 68.002316 
L 266.028218 130.659981 
L 266.136436 56.095253 
L 266.244655 72.075801 
L 266.352873 56.905331 
L 266.569309 68.285393 
L 266.785745 56.905331 
L 266.893964 57.72039 
L 267.002182 56.095253 
L 267.218618 56.905331 
L 267.326836 74.709017 
L 267.543273 56.095253 
L 267.651491 56.905331 
L 267.867927 56.095253 
L 267.976145 56.905331 
L 268.084364 56.095253 
L 268.3008 58.540391 
L 268.517236 56.095253 
L 268.625455 56.905331 
L 268.733673 60.19506 
L 268.950109 56.905331 
L 269.058327 56.095253 
L 269.166545 58.540391 
L 269.382982 56.905331 
L 269.4912 57.72039 
L 269.707636 56.095253 
L 269.815855 59.365295 
L 269.924073 56.905331 
L 270.032291 58.540391 
L 270.140509 64.415175 
L 270.356945 56.905331 
L 270.465164 57.72039 
L 270.789818 56.095253 
L 271.006255 56.095253 
L 271.222691 56.905331 
L 271.330909 56.095253 
L 271.439127 56.905331 
L 271.547345 56.095253 
L 271.655564 57.72039 
L 271.763782 56.095253 
L 271.980218 60.19506 
L 272.196655 56.095253 
L 272.629527 56.095253 
L 272.845964 56.905331 
L 272.954182 56.905331 
L 273.170618 56.095253 
L 273.278836 56.905331 
L 273.495273 56.095253 
L 273.603491 57.72039 
L 273.819927 56.095253 
L 273.928145 56.095253 
L 274.036364 56.905331 
L 274.144582 56.095253 
L 274.361018 57.72039 
L 274.469236 57.72039 
L 274.577455 59.365295 
L 274.685673 56.095253 
L 274.902109 57.72039 
L 275.118545 56.095253 
L 275.226764 56.095253 
L 275.334982 57.72039 
L 275.659636 56.095253 
L 275.767855 56.905331 
L 275.876073 56.095253 
L 275.984291 57.72039 
L 276.200727 56.095253 
L 276.741818 56.095253 
L 276.958255 56.905331 
L 277.066473 56.905331 
L 277.282909 56.095253 
L 277.391127 56.905331 
L 277.499345 56.095253 
L 277.607564 56.905331 
L 277.824 56.095253 
L 277.932218 58.540391 
L 278.148655 56.095253 
L 278.256873 56.095253 
L 278.473309 56.905331 
L 278.689745 56.095253 
L 278.797964 57.72039 
L 279.0144 56.095253 
L 279.230836 56.095253 
L 279.339055 57.72039 
L 279.555491 56.095253 
L 280.096582 56.095253 
L 280.2048 56.905331 
L 280.421236 56.095253 
L 280.529455 56.095253 
L 280.637673 56.905331 
L 280.854109 56.095253 
L 281.3952 56.095253 
L 281.503418 56.905331 
L 281.719855 56.095253 
L 281.828073 56.905331 
L 282.044509 56.095253 
L 282.260945 56.905331 
L 282.369164 56.095253 
L 282.5856 56.905331 
L 282.802036 56.095253 
L 282.910255 56.095253 
L 283.018473 56.905331 
L 283.234909 56.095253 
L 283.559564 56.095253 
L 283.667782 56.905331 
L 283.884218 56.095253 
L 284.208873 56.095253 
L 284.317091 56.905331 
L 284.533527 56.095253 
L 285.074618 56.095253 
L 285.182836 56.905331 
L 285.291055 56.095253 
L 285.399273 56.905331 
L 285.615709 56.095253 
L 286.265018 56.095253 
L 286.373236 58.540391 
L 286.589673 56.095253 
L 287.888291 56.095253 
L 287.996509 60.19506 
L 288.212945 56.095253 
L 290.160873 56.095253 
L 290.269091 56.905331 
L 290.485527 56.095253 
L 291.134836 56.095253 
L 291.243055 56.905331 
L 291.351273 56.095253 
L 291.459491 57.72039 
L 291.675927 56.095253 
L 292.000582 56.095253 
L 292.217018 56.905331 
L 292.433455 56.095253 
L 293.190982 56.095253 
L 293.2992 56.905331 
L 293.515636 56.095253 
L 293.623855 56.095253 
L 293.732073 56.905331 
L 293.948509 56.095253 
L 294.706036 56.095253 
L 294.814255 57.72039 
L 295.138909 56.095253 
L 295.247127 56.905331 
L 295.463564 56.095253 
L 296.112873 56.095253 
L 296.221091 57.72039 
L 296.437527 56.095253 
L 297.627927 56.095253 
L 297.736145 56.905331 
L 297.952582 56.095253 
L 299.142982 56.095253 
L 299.2512 56.905331 
L 299.359418 56.095253 
L 299.467636 56.905331 
L 299.684073 56.095253 
L 299.792291 56.095253 
L 299.900509 56.905331 
L 300.008727 56.095253 
L 300.116945 57.72039 
L 300.333382 56.095253 
L 300.549818 56.095253 
L 300.658036 56.905331 
L 300.874473 56.095253 
L 300.982691 56.095253 
L 301.090909 56.905331 
L 301.307345 56.095253 
L 302.064873 56.095253 
L 302.281309 56.905331 
L 302.497745 56.095253 
L 304.0128 56.095253 
L 304.121018 56.905331 
L 304.229236 56.095253 
L 304.337455 56.905331 
L 304.553891 56.095253 
L 305.852509 56.095253 
L 305.960727 56.905331 
L 306.177164 56.095253 
L 311.696291 56.095253 
L 311.804509 56.905331 
L 312.020945 56.095253 
L 314.185309 56.095253 
L 314.293527 56.905331 
L 314.509964 56.095253 
L 316.566109 56.095253 
L 316.674327 56.905331 
L 316.890764 56.095253 
L 318.081164 56.095253 
L 318.189382 56.905331 
L 318.405818 56.095253 
L 319.920873 56.095253 
L 320.137309 56.905331 
L 320.353745 56.095253 
L 321.977018 56.095253 
L 322.085236 56.905331 
L 322.301673 56.095253 
L 325.548218 56.095253 
L 325.656436 56.905331 
L 325.872873 56.095253 
L 326.955055 56.095253 
L 327.063273 56.905331 
L 327.279709 56.095253 
L 336.911127 56.095253 
L 337.019345 56.905331 
L 337.235782 56.095253 
L 347.408291 56.095253 
L 347.516509 56.905331 
L 347.732945 56.095253 
L 348.0576 56.095253 
L 348.165818 56.905331 
L 348.382255 56.095253 
L 349.464436 56.095253 
L 349.572655 56.905331 
L 349.680873 56.095253 
L 349.789091 56.905331 
L 350.005527 56.095253 
L 356.173964 56.095253 
L 356.282182 56.905331 
L 356.498618 56.095253 
L 398.487273 56.095253 
L 398.487273 56.095253 
" clip-path="url(#p2046375c03)" style="fill: none; stroke: #d62728; stroke-width: 1.5; stroke-linecap: square"/>
   </g>
   <g id="patch_3">
    <path d="M 57.6 307.584 
L 57.6 41.472 
" style="fill: none; stroke: #000000; stroke-width: 0.8; stroke-linejoin: miter; stroke-linecap: square"/>
   </g>
   <g id="patch_4">
    <path d="M 414.72 307.584 
L 414.72 41.472 
" style="fill: none; stroke: #000000; stroke-width: 0.8; stroke-linejoin: miter; stroke-linecap: square"/>
   </g>
   <g id="patch_5">
    <path d="M 57.6 307.584 
L 414.72 307.584 
" style="fill: none; stroke: #000000; stroke-width: 0.8; stroke-linejoin: miter; stroke-linecap: square"/>
   </g>
   <g id="patch_6">
    <path d="M 57.6 41.472 
L 414.72 41.472 
" style="fill: none; stroke: #000000; stroke-width: 0.8; stroke-linejoin: miter; stroke-linecap: square"/>
   </g>
  </g>
 </g>
 <defs>
  <clipPath id="p2046375c03">
   <rect x="57.6" y="41.472" width="357.12" height="266.112"/>
  </clipPath>
 </defs>
</svg>
