<?xml version="1.0" encoding="utf-8" standalone="no"?>
<!DOCTYPE svg PUBLIC "-//W3C//DTD SVG 1.1//EN"
  "http://www.w3.org/Graphics/SVG/1.1/DTD/svg11.dtd">
<svg xmlns:xlink="http://www.w3.org/1999/xlink" width="460.8pt" height="345.6pt" viewBox="0 0 460.8 345.6" xmlns="http://www.w3.org/2000/svg" version="1.1">
 <metadata>
  <rdf:RDF xmlns:dc="http://purl.org/dc/elements/1.1/" xmlns:cc="http://creativecommons.org/ns#" xmlns:rdf="http://www.w3.org/1999/02/22-rdf-syntax-ns#">
   <cc:Work>
    <dc:type rdf:resource="http://purl.org/dc/dcmitype/StillImage"/>
    <dc:date>2024-04-28T13:47:38.458776</dc:date>
    <dc:format>image/svg+xml</dc:format>
    <dc:creator>
     <cc:Agent>
      <dc:title>Matplotlib v3.8.2, https://matplotlib.org/</dc:title>
     </cc:Agent>
    </dc:creator>
   </cc:Work>
  </rdf:RDF>
 </metadata>
 <defs>
  <style type="text/css">*{stroke-linejoin: round; stroke-linecap: butt}</style>
 </defs>
 <g id="figure_1">
  <g id="patch_1">
   <path d="M 0 345.6 
L 460.8 345.6 
L 460.8 0 
L 0 0 
z
" style="fill: #ffffff"/>
  </g>
  <g id="axes_1">
   <g id="patch_2">
    <path d="M 57.6 307.584 
L 414.72 307.584 
L 414.72 41.472 
L 57.6 41.472 
z
" style="fill: #ffffff"/>
   </g>
   <g id="matplotlib.axis_1">
    <g id="xtick_1">
     <g id="line2d_1">
      <defs>
       <path id="m363ac0f0b1" d="M 0 0 
L 0 3.5 
" style="stroke: #000000; stroke-width: 0.8"/>
      </defs>
      <g>
       <use xlink:href="#m363ac0f0b1" x="73.832727" y="307.584" style="stroke: #000000; stroke-width: 0.8"/>
      </g>
     </g>
     <g id="text_1">
      <!-- 0 -->
      <g transform="translate(70.651477 322.182437) scale(0.1 -0.1)">
       <defs>
        <path id="DejaVuSans-30" d="M 2034 4250 
Q 1547 4250 1301 3770 
Q 1056 3291 1056 2328 
Q 1056 1369 1301 889 
Q 1547 409 2034 409 
Q 2525 409 2770 889 
Q 3016 1369 3016 2328 
Q 3016 3291 2770 3770 
Q 2525 4250 2034 4250 
z
M 2034 4750 
Q 2819 4750 3233 4129 
Q 3647 3509 3647 2328 
Q 3647 1150 3233 529 
Q 2819 -91 2034 -91 
Q 1250 -91 836 529 
Q 422 1150 422 2328 
Q 422 3509 836 4129 
Q 1250 4750 2034 4750 
z
" transform="scale(0.015625)"/>
       </defs>
       <use xlink:href="#DejaVuSans-30"/>
      </g>
     </g>
    </g>
    <g id="xtick_2">
     <g id="line2d_2">
      <g>
       <use xlink:href="#m363ac0f0b1" x="114.414545" y="307.584" style="stroke: #000000; stroke-width: 0.8"/>
      </g>
     </g>
     <g id="text_2">
      <!-- 50 -->
      <g transform="translate(108.052045 322.182437) scale(0.1 -0.1)">
       <defs>
        <path id="DejaVuSans-35" d="M 691 4666 
L 3169 4666 
L 3169 4134 
L 1269 4134 
L 1269 2991 
Q 1406 3038 1543 3061 
Q 1681 3084 1819 3084 
Q 2600 3084 3056 2656 
Q 3513 2228 3513 1497 
Q 3513 744 3044 326 
Q 2575 -91 1722 -91 
Q 1428 -91 1123 -41 
Q 819 9 494 109 
L 494 744 
Q 775 591 1075 516 
Q 1375 441 1709 441 
Q 2250 441 2565 725 
Q 2881 1009 2881 1497 
Q 2881 1984 2565 2268 
Q 2250 2553 1709 2553 
Q 1456 2553 1204 2497 
Q 953 2441 691 2322 
L 691 4666 
z
" transform="scale(0.015625)"/>
       </defs>
       <use xlink:href="#DejaVuSans-35"/>
       <use xlink:href="#DejaVuSans-30" x="63.623047"/>
      </g>
     </g>
    </g>
    <g id="xtick_3">
     <g id="line2d_3">
      <g>
       <use xlink:href="#m363ac0f0b1" x="154.996364" y="307.584" style="stroke: #000000; stroke-width: 0.8"/>
      </g>
     </g>
     <g id="text_3">
      <!-- 100 -->
      <g transform="translate(145.452614 322.182437) scale(0.1 -0.1)">
       <defs>
        <path id="DejaVuSans-31" d="M 794 531 
L 1825 531 
L 1825 4091 
L 703 3866 
L 703 4441 
L 1819 4666 
L 2450 4666 
L 2450 531 
L 3481 531 
L 3481 0 
L 794 0 
L 794 531 
z
" transform="scale(0.015625)"/>
       </defs>
       <use xlink:href="#DejaVuSans-31"/>
       <use xlink:href="#DejaVuSans-30" x="63.623047"/>
       <use xlink:href="#DejaVuSans-30" x="127.246094"/>
      </g>
     </g>
    </g>
    <g id="xtick_4">
     <g id="line2d_4">
      <g>
       <use xlink:href="#m363ac0f0b1" x="195.578182" y="307.584" style="stroke: #000000; stroke-width: 0.8"/>
      </g>
     </g>
     <g id="text_4">
      <!-- 150 -->
      <g transform="translate(186.034432 322.182437) scale(0.1 -0.1)">
       <use xlink:href="#DejaVuSans-31"/>
       <use xlink:href="#DejaVuSans-35" x="63.623047"/>
       <use xlink:href="#DejaVuSans-30" x="127.246094"/>
      </g>
     </g>
    </g>
    <g id="xtick_5">
     <g id="line2d_5">
      <g>
       <use xlink:href="#m363ac0f0b1" x="236.16" y="307.584" style="stroke: #000000; stroke-width: 0.8"/>
      </g>
     </g>
     <g id="text_5">
      <!-- 200 -->
      <g transform="translate(226.61625 322.182437) scale(0.1 -0.1)">
       <defs>
        <path id="DejaVuSans-32" d="M 1228 531 
L 3431 531 
L 3431 0 
L 469 0 
L 469 531 
Q 828 903 1448 1529 
Q 2069 2156 2228 2338 
Q 2531 2678 2651 2914 
Q 2772 3150 2772 3378 
Q 2772 3750 2511 3984 
Q 2250 4219 1831 4219 
Q 1534 4219 1204 4116 
Q 875 4013 500 3803 
L 500 4441 
Q 881 4594 1212 4672 
Q 1544 4750 1819 4750 
Q 2544 4750 2975 4387 
Q 3406 4025 3406 3419 
Q 3406 3131 3298 2873 
Q 3191 2616 2906 2266 
Q 2828 2175 2409 1742 
Q 1991 1309 1228 531 
z
" transform="scale(0.015625)"/>
       </defs>
       <use xlink:href="#DejaVuSans-32"/>
       <use xlink:href="#DejaVuSans-30" x="63.623047"/>
       <use xlink:href="#DejaVuSans-30" x="127.246094"/>
      </g>
     </g>
    </g>
    <g id="xtick_6">
     <g id="line2d_6">
      <g>
       <use xlink:href="#m363ac0f0b1" x="276.741818" y="307.584" style="stroke: #000000; stroke-width: 0.8"/>
      </g>
     </g>
     <g id="text_6">
      <!-- 250 -->
      <g transform="translate(267.198068 322.182437) scale(0.1 -0.1)">
       <use xlink:href="#DejaVuSans-32"/>
       <use xlink:href="#DejaVuSans-35" x="63.623047"/>
       <use xlink:href="#DejaVuSans-30" x="127.246094"/>
      </g>
     </g>
    </g>
    <g id="xtick_7">
     <g id="line2d_7">
      <g>
       <use xlink:href="#m363ac0f0b1" x="317.323636" y="307.584" style="stroke: #000000; stroke-width: 0.8"/>
      </g>
     </g>
     <g id="text_7">
      <!-- 300 -->
      <g transform="translate(307.779886 322.182437) scale(0.1 -0.1)">
       <defs>
        <path id="DejaVuSans-33" d="M 2597 2516 
Q 3050 2419 3304 2112 
Q 3559 1806 3559 1356 
Q 3559 666 3084 287 
Q 2609 -91 1734 -91 
Q 1441 -91 1130 -33 
Q 819 25 488 141 
L 488 750 
Q 750 597 1062 519 
Q 1375 441 1716 441 
Q 2309 441 2620 675 
Q 2931 909 2931 1356 
Q 2931 1769 2642 2001 
Q 2353 2234 1838 2234 
L 1294 2234 
L 1294 2753 
L 1863 2753 
Q 2328 2753 2575 2939 
Q 2822 3125 2822 3475 
Q 2822 3834 2567 4026 
Q 2313 4219 1838 4219 
Q 1578 4219 1281 4162 
Q 984 4106 628 3988 
L 628 4550 
Q 988 4650 1302 4700 
Q 1616 4750 1894 4750 
Q 2613 4750 3031 4423 
Q 3450 4097 3450 3541 
Q 3450 3153 3228 2886 
Q 3006 2619 2597 2516 
z
" transform="scale(0.015625)"/>
       </defs>
       <use xlink:href="#DejaVuSans-33"/>
       <use xlink:href="#DejaVuSans-30" x="63.623047"/>
       <use xlink:href="#DejaVuSans-30" x="127.246094"/>
      </g>
     </g>
    </g>
    <g id="xtick_8">
     <g id="line2d_8">
      <g>
       <use xlink:href="#m363ac0f0b1" x="357.905455" y="307.584" style="stroke: #000000; stroke-width: 0.8"/>
      </g>
     </g>
     <g id="text_8">
      <!-- 350 -->
      <g transform="translate(348.361705 322.182437) scale(0.1 -0.1)">
       <use xlink:href="#DejaVuSans-33"/>
       <use xlink:href="#DejaVuSans-35" x="63.623047"/>
       <use xlink:href="#DejaVuSans-30" x="127.246094"/>
      </g>
     </g>
    </g>
    <g id="xtick_9">
     <g id="line2d_9">
      <g>
       <use xlink:href="#m363ac0f0b1" x="398.487273" y="307.584" style="stroke: #000000; stroke-width: 0.8"/>
      </g>
     </g>
     <g id="text_9">
      <!-- 400 -->
      <g transform="translate(388.943523 322.182437) scale(0.1 -0.1)">
       <defs>
        <path id="DejaVuSans-34" d="M 2419 4116 
L 825 1625 
L 2419 1625 
L 2419 4116 
z
M 2253 4666 
L 3047 4666 
L 3047 1625 
L 3713 1625 
L 3713 1100 
L 3047 1100 
L 3047 0 
L 2419 0 
L 2419 1100 
L 313 1100 
L 313 1709 
L 2253 4666 
z
" transform="scale(0.015625)"/>
       </defs>
       <use xlink:href="#DejaVuSans-34"/>
       <use xlink:href="#DejaVuSans-30" x="63.623047"/>
       <use xlink:href="#DejaVuSans-30" x="127.246094"/>
      </g>
     </g>
    </g>
   </g>
   <g id="matplotlib.axis_2">
    <g id="ytick_1">
     <g id="line2d_10">
      <defs>
       <path id="md2d71f1926" d="M 0 0 
L -3.5 0 
" style="stroke: #000000; stroke-width: 0.8"/>
      </defs>
      <g>
       <use xlink:href="#md2d71f1926" x="57.6" y="295.910671" style="stroke: #000000; stroke-width: 0.8"/>
      </g>
     </g>
     <g id="text_10">
      <!-- −80 -->
      <g transform="translate(29.495313 299.709889) scale(0.1 -0.1)">
       <defs>
        <path id="DejaVuSans-2212" d="M 678 2272 
L 4684 2272 
L 4684 1741 
L 678 1741 
L 678 2272 
z
" transform="scale(0.015625)"/>
        <path id="DejaVuSans-38" d="M 2034 2216 
Q 1584 2216 1326 1975 
Q 1069 1734 1069 1313 
Q 1069 891 1326 650 
Q 1584 409 2034 409 
Q 2484 409 2743 651 
Q 3003 894 3003 1313 
Q 3003 1734 2745 1975 
Q 2488 2216 2034 2216 
z
M 1403 2484 
Q 997 2584 770 2862 
Q 544 3141 544 3541 
Q 544 4100 942 4425 
Q 1341 4750 2034 4750 
Q 2731 4750 3128 4425 
Q 3525 4100 3525 3541 
Q 3525 3141 3298 2862 
Q 3072 2584 2669 2484 
Q 3125 2378 3379 2068 
Q 3634 1759 3634 1313 
Q 3634 634 3220 271 
Q 2806 -91 2034 -91 
Q 1263 -91 848 271 
Q 434 634 434 1313 
Q 434 1759 690 2068 
Q 947 2378 1403 2484 
z
M 1172 3481 
Q 1172 3119 1398 2916 
Q 1625 2713 2034 2713 
Q 2441 2713 2670 2916 
Q 2900 3119 2900 3481 
Q 2900 3844 2670 4047 
Q 2441 4250 2034 4250 
Q 1625 4250 1398 4047 
Q 1172 3844 1172 3481 
z
" transform="scale(0.015625)"/>
       </defs>
       <use xlink:href="#DejaVuSans-2212"/>
       <use xlink:href="#DejaVuSans-38" x="83.789062"/>
       <use xlink:href="#DejaVuSans-30" x="147.412109"/>
      </g>
     </g>
    </g>
    <g id="ytick_2">
     <g id="line2d_11">
      <g>
       <use xlink:href="#md2d71f1926" x="57.6" y="246.820863" style="stroke: #000000; stroke-width: 0.8"/>
      </g>
     </g>
     <g id="text_11">
      <!-- −60 -->
      <g transform="translate(29.495313 250.620081) scale(0.1 -0.1)">
       <defs>
        <path id="DejaVuSans-36" d="M 2113 2584 
Q 1688 2584 1439 2293 
Q 1191 2003 1191 1497 
Q 1191 994 1439 701 
Q 1688 409 2113 409 
Q 2538 409 2786 701 
Q 3034 994 3034 1497 
Q 3034 2003 2786 2293 
Q 2538 2584 2113 2584 
z
M 3366 4563 
L 3366 3988 
Q 3128 4100 2886 4159 
Q 2644 4219 2406 4219 
Q 1781 4219 1451 3797 
Q 1122 3375 1075 2522 
Q 1259 2794 1537 2939 
Q 1816 3084 2150 3084 
Q 2853 3084 3261 2657 
Q 3669 2231 3669 1497 
Q 3669 778 3244 343 
Q 2819 -91 2113 -91 
Q 1303 -91 875 529 
Q 447 1150 447 2328 
Q 447 3434 972 4092 
Q 1497 4750 2381 4750 
Q 2619 4750 2861 4703 
Q 3103 4656 3366 4563 
z
" transform="scale(0.015625)"/>
       </defs>
       <use xlink:href="#DejaVuSans-2212"/>
       <use xlink:href="#DejaVuSans-36" x="83.789062"/>
       <use xlink:href="#DejaVuSans-30" x="147.412109"/>
      </g>
     </g>
    </g>
    <g id="ytick_3">
     <g id="line2d_12">
      <g>
       <use xlink:href="#md2d71f1926" x="57.6" y="197.731054" style="stroke: #000000; stroke-width: 0.8"/>
      </g>
     </g>
     <g id="text_12">
      <!-- −40 -->
      <g transform="translate(29.495313 201.530273) scale(0.1 -0.1)">
       <use xlink:href="#DejaVuSans-2212"/>
       <use xlink:href="#DejaVuSans-34" x="83.789062"/>
       <use xlink:href="#DejaVuSans-30" x="147.412109"/>
      </g>
     </g>
    </g>
    <g id="ytick_4">
     <g id="line2d_13">
      <g>
       <use xlink:href="#md2d71f1926" x="57.6" y="148.641246" style="stroke: #000000; stroke-width: 0.8"/>
      </g>
     </g>
     <g id="text_13">
      <!-- −20 -->
      <g transform="translate(29.495313 152.440465) scale(0.1 -0.1)">
       <use xlink:href="#DejaVuSans-2212"/>
       <use xlink:href="#DejaVuSans-32" x="83.789062"/>
       <use xlink:href="#DejaVuSans-30" x="147.412109"/>
      </g>
     </g>
    </g>
    <g id="ytick_5">
     <g id="line2d_14">
      <g>
       <use xlink:href="#md2d71f1926" x="57.6" y="99.551438" style="stroke: #000000; stroke-width: 0.8"/>
      </g>
     </g>
     <g id="text_14">
      <!-- 0 -->
      <g transform="translate(44.2375 103.350657) scale(0.1 -0.1)">
       <use xlink:href="#DejaVuSans-30"/>
      </g>
     </g>
    </g>
    <g id="ytick_6">
     <g id="line2d_15">
      <g>
       <use xlink:href="#md2d71f1926" x="57.6" y="50.46163" style="stroke: #000000; stroke-width: 0.8"/>
      </g>
     </g>
     <g id="text_15">
      <!-- 20 -->
      <g transform="translate(37.875 54.260849) scale(0.1 -0.1)">
       <use xlink:href="#DejaVuSans-32"/>
       <use xlink:href="#DejaVuSans-30" x="63.623047"/>
      </g>
     </g>
    </g>
   </g>
   <g id="line2d_16">
    <path d="M 73.832727 93.650968 
" clip-path="url(#p76a8ab3b7f)" style="fill: none; stroke: #1f77b4; stroke-width: 1.5; stroke-linecap: square"/>
   </g>
   <g id="line2d_17">
    <path d="M 73.832727 93.650968 
L 74.644364 90.426623 
L 75.456 72.678373 
L 76.267636 97.032846 
L 77.079273 98.732964 
L 77.890909 70.295187 
L 78.702545 97.46275 
L 79.514182 84.860932 
L 80.325818 93.768103 
L 81.137455 82.193087 
L 81.949091 85.743446 
L 82.760727 78.161443 
L 83.572364 81.568853 
L 84.384 83.944947 
L 85.195636 93.541393 
L 86.007273 84.689091 
L 86.818909 94.600045 
L 87.630545 295.488 
L 88.442182 84.093796 
L 89.253818 85.354792 
L 90.065455 84.538862 
L 90.877091 83.957126 
L 91.688727 84.579594 
L 92.500364 86.043747 
L 93.312 93.950171 
L 94.123636 73.344115 
L 94.935273 84.827722 
L 95.746909 93.445917 
L 96.558545 85.134709 
L 97.370182 85.228838 
L 98.181818 86.300855 
L 98.993455 85.001853 
L 99.805091 85.75759 
L 100.616727 85.579546 
L 101.428364 95.159727 
L 102.24 85.448014 
L 103.051636 84.773033 
L 103.863273 86.019062 
L 104.674909 86.432231 
L 105.486545 126.057591 
L 106.298182 87.265483 
L 107.109818 85.559259 
L 107.921455 85.711179 
L 108.733091 85.80482 
L 109.544727 85.805585 
L 110.356364 85.760288 
L 111.168 87.155907 
L 111.979636 86.584616 
L 112.791273 86.550784 
L 113.602909 87.185416 
L 114.414545 85.767876 
L 115.226182 85.791757 
L 116.037818 88.102049 
L 116.849455 87.84845 
L 117.661091 87.11348 
L 118.472727 76.303231 
L 119.284364 87.696935 
L 120.096 65.894473 
L 120.907636 88.764751 
L 121.719273 87.195554 
L 122.530909 90.004003 
L 123.342545 88.45533 
L 124.154182 88.192507 
L 124.965818 88.797595 
L 125.777455 88.205722 
L 126.589091 88.831577 
L 127.400727 94.376569 
L 128.212364 88.328285 
L 129.024 93.186933 
L 129.835636 88.415569 
L 130.647273 87.155963 
L 131.458909 89.598736 
L 132.270545 91.252365 
L 133.082182 88.083743 
L 133.893818 88.50267 
L 134.705455 145.036826 
L 135.517091 96.706576 
L 136.328727 63.71517 
L 137.140364 66.278825 
L 137.952 88.830301 
L 138.763636 88.005967 
L 139.575273 89.531421 
L 140.386909 90.57696 
L 141.198545 89.095838 
L 142.010182 90.414877 
L 142.821818 89.556194 
L 143.633455 181.27665 
L 144.445091 91.091236 
L 145.256727 90.456518 
L 146.068364 98.515024 
L 146.88 88.695024 
L 147.691636 78.008289 
L 148.503273 89.952716 
L 149.314909 89.604661 
L 150.126545 90.104891 
L 150.938182 68.16092 
L 151.749818 89.622901 
L 152.561455 92.086606 
L 153.373091 89.793404 
L 154.184727 88.751664 
L 154.996364 90.202621 
" clip-path="url(#p76a8ab3b7f)" style="fill: none; stroke: #ff7f0e; stroke-width: 1.5; stroke-linecap: square"/>
   </g>
   <g id="line2d_18">
    <path d="M 73.832727 93.650968 
L 74.644364 90.426623 
L 75.456 72.678373 
L 76.267636 97.032846 
L 77.079273 98.732964 
L 77.890909 70.295187 
L 78.702545 97.46275 
L 79.514182 84.860932 
L 80.325818 93.768103 
L 81.137455 82.193087 
L 81.949091 85.743446 
L 82.760727 78.161443 
L 83.572364 81.568853 
L 84.384 83.944947 
L 85.195636 93.541393 
L 86.007273 84.689091 
L 86.818909 94.600045 
L 87.630545 295.488 
L 88.442182 84.093796 
L 89.253818 85.354792 
L 90.065455 84.538862 
L 90.877091 83.957126 
L 91.688727 84.579594 
L 92.500364 86.043747 
L 93.312 93.950171 
L 94.123636 73.344115 
L 94.935273 84.827722 
L 95.746909 93.445917 
L 96.558545 85.134709 
L 97.370182 85.228838 
L 98.181818 86.300855 
L 98.993455 85.001853 
L 99.805091 85.75759 
L 100.616727 85.579546 
L 101.428364 95.159727 
L 102.24 85.448014 
L 103.051636 84.773033 
L 103.863273 86.019062 
L 104.674909 86.432231 
L 105.486545 126.057591 
L 106.298182 87.265483 
L 107.109818 85.559259 
L 108.733091 85.80482 
L 110.356364 85.760288 
L 111.168 87.155907 
L 111.979636 86.584616 
L 112.791273 86.550784 
L 113.602909 87.185416 
L 114.414545 85.767876 
L 115.226182 85.791757 
L 116.037818 88.102049 
L 116.849455 87.84845 
L 117.661091 87.11348 
L 118.472727 76.303231 
L 119.284364 87.696935 
L 120.096 65.894473 
L 120.907636 88.764751 
L 121.719273 87.195554 
L 122.530909 90.004003 
L 123.342545 88.45533 
L 124.154182 88.192507 
L 124.965818 88.797595 
L 125.777455 88.205722 
L 126.589091 88.831577 
L 127.400727 94.376569 
L 128.212364 88.328285 
L 129.024 93.186933 
L 129.835636 88.415569 
L 130.647273 87.155963 
L 131.458909 89.598736 
L 132.270545 91.252365 
L 133.082182 88.083743 
L 133.893818 88.50267 
L 134.705455 145.036826 
L 135.517091 96.706576 
L 136.328727 63.71517 
L 137.140364 66.278825 
L 137.952 88.830301 
L 138.763636 88.005967 
L 139.575273 89.531421 
L 140.386909 90.57696 
L 141.198545 89.095838 
L 142.010182 90.414877 
L 142.821818 89.556194 
L 143.633455 181.27665 
L 144.445091 91.091236 
L 145.256727 90.456518 
L 146.068364 98.515024 
L 147.691636 78.008289 
L 148.503273 89.952716 
L 149.314909 89.604661 
L 150.126545 90.104891 
L 150.938182 68.16092 
L 151.749818 89.622901 
L 152.561455 92.086606 
L 153.373091 89.793404 
L 154.184727 88.751664 
L 154.996364 90.202621 
L 155.808 88.910391 
L 156.619636 69.235765 
L 157.431273 89.37319 
L 158.242909 89.340933 
L 159.054545 90.040349 
L 159.866182 90.202621 
L 160.677818 89.622901 
L 161.489455 89.98644 
L 162.301091 89.893306 
L 163.112727 89.136047 
L 163.924364 88.9162 
L 164.736 89.167006 
L 165.547636 88.452802 
L 166.359273 89.622901 
L 167.170909 89.274293 
L 167.982545 89.206005 
L 168.794182 89.531421 
L 169.605818 89.501506 
L 170.417455 88.839709 
L 171.229091 88.682365 
L 172.040727 88.761729 
L 172.852364 89.136047 
L 173.664 88.890926 
L 174.475636 89.206005 
L 175.287273 89.167006 
L 176.098909 88.520058 
L 177.722182 89.094588 
L 178.533818 89.705425 
L 179.345455 89.020365 
L 180.157091 88.580174 
L 181.780364 88.682365 
L 182.592 89.020365 
L 183.403636 88.625063 
L 184.215273 71.656663 
L 185.026909 89.064413 
L 185.838545 88.601752 
L 187.461818 88.690486 
L 188.273455 72.035959 
L 189.085091 96.785478 
L 189.896727 89.06103 
L 190.708364 88.682365 
L 191.52 88.985244 
L 192.331636 88.601752 
L 193.143273 71.846436 
L 193.954909 76.818562 
L 194.766545 88.587015 
L 195.578182 88.373337 
L 196.389818 88.789576 
L 197.201455 88.191871 
L 198.013091 90.86002 
L 198.824727 87.464219 
L 199.636364 98.612943 
L 200.448 90.786535 
L 201.259636 88.520058 
L 202.071273 88.601752 
L 202.882909 89.007633 
L 203.694545 95.020747 
L 204.506182 88.191871 
L 205.317818 95.020747 
L 206.129455 89.592654 
L 206.941091 88.601752 
L 207.752727 86.19513 
L 208.564364 88.601752 
L 209.376 94.160748 
L 210.187636 88.520058 
L 210.999273 88.658112 
L 211.810909 88.113452 
L 212.622545 158.444955 
L 213.434182 71.845144 
L 214.245818 97.691127 
L 215.057455 88.601752 
L 215.869091 95.895508 
L 216.680727 89.690834 
L 217.492364 150.600739 
L 218.304 92.550129 
L 219.115636 89.518015 
L 219.927273 88.331646 
L 220.738909 88.251434 
L 221.550545 92.483329 
L 222.362182 95.895508 
L 223.173818 53.568 
L 223.985455 80.833286 
L 224.797091 95.389574 
L 225.608727 95.020747 
L 226.420364 98.612943 
L 227.232 58.200875 
L 228.043636 97.691127 
L 228.855273 89.180285 
L 229.666909 191.698492 
L 230.478545 93.315079 
L 231.290182 92.211621 
L 232.101818 88.789576 
L 232.913455 96.757673 
L 233.725091 94.160748 
L 234.536727 95.112518 
L 235.348364 82.355939 
L 236.16 75.416946 
L 236.16 75.416946 
" clip-path="url(#p76a8ab3b7f)" style="fill: none; stroke: #2ca02c; stroke-width: 1.5; stroke-linecap: square"/>
   </g>
   <g id="line2d_19">
    <path d="M 73.832727 93.650968 
L 74.644364 90.426623 
L 75.456 72.678373 
L 76.267636 97.032846 
L 77.079273 98.732964 
L 77.890909 70.295187 
L 78.702545 97.46275 
L 79.514182 84.860932 
L 80.325818 93.768103 
L 81.137455 82.193087 
L 81.949091 85.743446 
L 82.760727 78.161443 
L 83.572364 81.568853 
L 84.384 83.944947 
L 85.195636 93.541393 
L 86.007273 84.689091 
L 86.818909 94.600045 
L 87.630545 295.488 
L 88.442182 84.093796 
L 89.253818 85.354792 
L 90.065455 84.538862 
L 90.877091 83.957126 
L 91.688727 84.579594 
L 92.500364 86.043747 
L 93.312 93.950171 
L 94.123636 73.344115 
L 94.935273 84.827722 
L 95.746909 93.445917 
L 96.558545 85.134709 
L 97.370182 85.228838 
L 98.181818 86.300855 
L 98.993455 85.001853 
L 99.805091 85.75759 
L 100.616727 85.579546 
L 101.428364 95.159727 
L 102.24 85.448014 
L 103.051636 84.773033 
L 103.863273 86.019062 
L 104.674909 86.432231 
L 105.486545 126.057591 
L 106.298182 87.265483 
L 107.109818 85.559259 
L 108.733091 85.80482 
L 110.356364 85.760288 
L 111.168 87.155907 
L 111.979636 86.584616 
L 112.791273 86.550784 
L 113.602909 87.185416 
L 114.414545 85.767876 
L 115.226182 85.791757 
L 116.037818 88.102049 
L 116.849455 87.84845 
L 117.661091 87.11348 
L 118.472727 76.303231 
L 119.284364 87.696935 
L 120.096 65.894473 
L 120.907636 88.764751 
L 121.719273 87.195554 
L 122.530909 90.004003 
L 123.342545 88.45533 
L 124.154182 88.192507 
L 124.965818 88.797595 
L 125.777455 88.205722 
L 126.589091 88.831577 
L 127.400727 94.376569 
L 128.212364 88.328285 
L 129.024 93.186933 
L 129.835636 88.415569 
L 130.647273 87.155963 
L 131.458909 89.598736 
L 132.270545 91.252365 
L 133.082182 88.083743 
L 133.893818 88.50267 
L 134.705455 145.036826 
L 135.517091 96.706576 
L 136.328727 63.71517 
L 137.140364 66.278825 
L 137.952 88.830301 
L 138.763636 88.005967 
L 139.575273 89.531421 
L 140.386909 90.57696 
L 141.198545 89.095838 
L 142.010182 90.414877 
L 142.821818 89.556194 
L 143.633455 181.27665 
L 144.445091 91.091236 
L 145.256727 90.456518 
L 146.068364 98.515024 
L 147.691636 78.008289 
L 148.503273 89.952716 
L 149.314909 89.604661 
L 150.126545 90.104891 
L 150.938182 68.16092 
L 151.749818 89.622901 
L 152.561455 92.086606 
L 153.373091 89.793404 
L 154.184727 88.751664 
L 154.996364 90.202621 
L 155.808 88.910391 
L 156.619636 69.235765 
L 157.431273 89.37319 
L 158.242909 89.340933 
L 159.054545 90.040349 
L 159.866182 90.202621 
L 160.677818 89.622901 
L 161.489455 89.98644 
L 162.301091 89.893306 
L 163.112727 89.136047 
L 163.924364 88.9162 
L 164.736 89.167006 
L 165.547636 88.452802 
L 166.359273 89.622901 
L 167.170909 89.274293 
L 167.982545 89.206005 
L 168.794182 89.531421 
L 169.605818 89.501506 
L 170.417455 88.839709 
L 171.229091 88.682365 
L 172.040727 88.761729 
L 172.852364 89.136047 
L 173.664 88.890926 
L 174.475636 89.206005 
L 175.287273 89.167006 
L 176.098909 88.520058 
L 177.722182 89.094588 
L 178.533818 89.705425 
L 179.345455 89.020365 
L 180.157091 88.580174 
L 181.780364 88.682365 
L 182.592 89.020365 
L 183.403636 88.625063 
L 184.215273 71.656663 
L 185.026909 89.064413 
L 185.838545 88.601752 
L 187.461818 88.690486 
L 188.273455 72.035959 
L 189.085091 96.785478 
L 189.896727 89.06103 
L 190.708364 88.682365 
L 191.52 88.985244 
L 192.331636 88.601752 
L 193.143273 71.846436 
L 193.954909 76.818562 
L 194.766545 88.587015 
L 195.578182 88.373337 
L 196.389818 88.789576 
L 197.201455 88.191871 
L 198.013091 90.86002 
L 198.824727 87.464219 
L 199.636364 98.612943 
L 200.448 90.786535 
L 201.259636 88.520058 
L 202.071273 88.601752 
L 202.882909 89.007633 
L 203.694545 95.020747 
L 204.506182 88.191871 
L 205.317818 95.020747 
L 206.129455 89.592654 
L 206.941091 88.601752 
L 207.752727 86.19513 
L 208.564364 88.601752 
L 209.376 94.160748 
L 210.187636 88.520058 
L 210.999273 88.658112 
L 211.810909 88.113452 
L 212.622545 158.444955 
L 213.434182 71.845144 
L 214.245818 97.691127 
L 215.057455 88.601752 
L 215.869091 95.895508 
L 216.680727 89.690834 
L 217.492364 150.600739 
L 218.304 92.550129 
L 219.115636 89.518015 
L 219.927273 88.331646 
L 220.738909 88.251434 
L 221.550545 92.483329 
L 222.362182 95.895508 
L 223.173818 53.568 
L 223.985455 80.833286 
L 224.797091 95.389574 
L 225.608727 95.020747 
L 226.420364 98.612943 
L 227.232 58.200875 
L 228.043636 97.691127 
L 228.855273 89.180285 
L 229.666909 191.698492 
L 230.478545 93.315079 
L 231.290182 92.211621 
L 232.101818 88.789576 
L 232.913455 96.757673 
L 233.725091 94.160748 
L 234.536727 95.112518 
L 235.348364 82.355939 
L 236.16 75.416946 
L 236.971636 97.691127 
L 237.783273 98.612943 
L 238.594909 86.41471 
L 239.406545 96.785478 
L 240.218182 96.028634 
L 241.029818 98.612943 
L 241.841455 87.554249 
L 242.653091 99.551438 
L 243.464727 89.433443 
L 244.276364 99.551438 
L 245.088 99.128948 
L 245.899636 97.757363 
L 246.711273 92.345852 
L 247.522909 99.551438 
L 248.334545 93.222546 
L 249.146182 97.691127 
L 249.957818 99.551438 
L 250.769455 96.785478 
L 251.581091 88.308808 
L 252.392727 91.08125 
L 253.204364 99.551438 
L 254.016 98.989666 
L 254.827636 99.363939 
L 255.639273 97.691127 
L 256.450909 77.791064 
L 257.262545 169.414789 
L 258.074182 96.839026 
L 258.885818 97.757363 
L 259.697455 99.696167 
L 260.509091 94.704465 
L 261.320727 99.551438 
L 262.132364 98.679051 
L 262.944 99.551438 
L 263.755636 97.83636 
L 264.567273 99.551438 
L 265.378909 93.655237 
L 266.190545 100.423932 
L 267.002182 96.240022 
L 267.813818 100.507147 
L 268.625455 126.887185 
L 269.437091 72.035959 
L 270.248727 95.55977 
L 271.060364 92.80321 
L 271.872 95.895508 
L 272.683636 96.447552 
L 273.495273 99.551438 
L 274.306909 88.637246 
L 275.118545 95.895508 
L 275.930182 98.425856 
L 276.741818 87.60434 
L 277.553455 72.560439 
L 278.365091 98.612943 
L 279.176727 98.065916 
L 279.988364 96.182188 
L 280.8 96.785478 
L 281.611636 95.087312 
L 282.423273 98.147409 
L 283.234909 95.026093 
L 284.046545 98.09735 
L 284.858182 97.216443 
L 285.669818 98.785106 
L 286.481455 98.147409 
L 287.293091 99.777412 
L 288.104727 100.507147 
L 288.916364 94.67171 
L 289.728 90.480806 
L 290.539636 89.582986 
L 291.351273 95.961973 
L 292.162909 97.638593 
L 292.974545 96.275368 
L 293.786182 98.291993 
L 294.597818 94.487613 
L 295.409455 97.691127 
L 296.221091 104.793567 
L 297.032727 98.425856 
L 297.844364 96.708855 
L 298.656 85.661329 
L 299.467636 99.551438 
L 300.279273 84.862181 
L 301.090909 168.263197 
L 301.902545 99.095672 
L 303.525818 99.551438 
L 304.337455 97.74467 
L 305.149091 99.363939 
L 305.960727 102.72906 
L 307.584 84.369511 
L 308.395636 80.811209 
L 309.207273 99.033153 
L 310.018909 97.691127 
L 310.830545 95.944329 
L 311.642182 98.147409 
L 312.453818 88.496866 
L 313.265455 85.615755 
L 314.077091 99.551438 
L 314.888727 83.561865 
L 315.700364 100.560627 
L 316.512 101.534072 
L 317.323636 100.507147 
L 317.323636 100.507147 
" clip-path="url(#p76a8ab3b7f)" style="fill: none; stroke: #d62728; stroke-width: 1.5; stroke-linecap: square"/>
   </g>
   <g id="line2d_20">
    <path d="M 73.832727 93.650968 
L 74.644364 90.426623 
L 75.456 72.678373 
L 76.267636 97.032846 
L 77.079273 98.732964 
L 77.890909 70.295187 
L 78.702545 97.46275 
L 79.514182 84.860932 
L 80.325818 93.768103 
L 81.137455 82.193087 
L 81.949091 85.743446 
L 82.760727 78.161443 
L 83.572364 81.568853 
L 84.384 83.944947 
L 85.195636 93.541393 
L 86.007273 84.689091 
L 86.818909 94.600045 
L 87.630545 295.488 
L 88.442182 84.093796 
L 89.253818 85.354792 
L 90.065455 84.538862 
L 90.877091 83.957126 
L 91.688727 84.579594 
L 92.500364 86.043747 
L 93.312 93.950171 
L 94.123636 73.344115 
L 94.935273 84.827722 
L 95.746909 93.445917 
L 96.558545 85.134709 
L 97.370182 85.228838 
L 98.181818 86.300855 
L 98.993455 85.001853 
L 99.805091 85.75759 
L 100.616727 85.579546 
L 101.428364 95.159727 
L 102.24 85.448014 
L 103.051636 84.773033 
L 103.863273 86.019062 
L 104.674909 86.432231 
L 105.486545 126.057591 
L 106.298182 87.265483 
L 107.109818 85.559259 
L 108.733091 85.80482 
L 110.356364 85.760288 
L 111.168 87.155907 
L 111.979636 86.584616 
L 112.791273 86.550784 
L 113.602909 87.185416 
L 114.414545 85.767876 
L 115.226182 85.791757 
L 116.037818 88.102049 
L 116.849455 87.84845 
L 117.661091 87.11348 
L 118.472727 76.303231 
L 119.284364 87.696935 
L 120.096 65.894473 
L 120.907636 88.764751 
L 121.719273 87.195554 
L 122.530909 90.004003 
L 123.342545 88.45533 
L 124.154182 88.192507 
L 124.965818 88.797595 
L 125.777455 88.205722 
L 126.589091 88.831577 
L 127.400727 94.376569 
L 128.212364 88.328285 
L 129.024 93.186933 
L 129.835636 88.415569 
L 130.647273 87.155963 
L 131.458909 89.598736 
L 132.270545 91.252365 
L 133.082182 88.083743 
L 133.893818 88.50267 
L 134.705455 145.036826 
L 135.517091 96.706576 
L 136.328727 63.71517 
L 137.140364 66.278825 
L 137.952 88.830301 
L 138.763636 88.005967 
L 139.575273 89.531421 
L 140.386909 90.57696 
L 141.198545 89.095838 
L 142.010182 90.414877 
L 142.821818 89.556194 
L 143.633455 181.27665 
L 144.445091 91.091236 
L 145.256727 90.456518 
L 146.068364 98.515024 
L 147.691636 78.008289 
L 148.503273 89.952716 
L 149.314909 89.604661 
L 150.126545 90.104891 
L 150.938182 68.16092 
L 151.749818 89.622901 
L 152.561455 92.086606 
L 153.373091 89.793404 
L 154.184727 88.751664 
L 154.996364 90.202621 
L 155.808 88.910391 
L 156.619636 69.235765 
L 157.431273 89.37319 
L 158.242909 89.340933 
L 159.054545 90.040349 
L 159.866182 90.202621 
L 160.677818 89.622901 
L 161.489455 89.98644 
L 162.301091 89.893306 
L 163.112727 89.136047 
L 163.924364 88.9162 
L 164.736 89.167006 
L 165.547636 88.452802 
L 166.359273 89.622901 
L 167.170909 89.274293 
L 167.982545 89.206005 
L 168.794182 89.531421 
L 169.605818 89.501506 
L 170.417455 88.839709 
L 171.229091 88.682365 
L 172.040727 88.761729 
L 172.852364 89.136047 
L 173.664 88.890926 
L 174.475636 89.206005 
L 175.287273 89.167006 
L 176.098909 88.520058 
L 177.722182 89.094588 
L 178.533818 89.705425 
L 179.345455 89.020365 
L 180.157091 88.580174 
L 181.780364 88.682365 
L 182.592 89.020365 
L 183.403636 88.625063 
L 184.215273 71.656663 
L 185.026909 89.064413 
L 185.838545 88.601752 
L 187.461818 88.690486 
L 188.273455 72.035959 
L 189.085091 96.785478 
L 189.896727 89.06103 
L 190.708364 88.682365 
L 191.52 88.985244 
L 192.331636 88.601752 
L 193.143273 71.846436 
L 193.954909 76.818562 
L 194.766545 88.587015 
L 195.578182 88.373337 
L 196.389818 88.789576 
L 197.201455 88.191871 
L 198.013091 90.86002 
L 198.824727 87.464219 
L 199.636364 98.612943 
L 200.448 90.786535 
L 201.259636 88.520058 
L 202.071273 88.601752 
L 202.882909 89.007633 
L 203.694545 95.020747 
L 204.506182 88.191871 
L 205.317818 95.020747 
L 206.129455 89.592654 
L 206.941091 88.601752 
L 207.752727 86.19513 
L 208.564364 88.601752 
L 209.376 94.160748 
L 210.187636 88.520058 
L 210.999273 88.658112 
L 211.810909 88.113452 
L 212.622545 158.444955 
L 213.434182 71.845144 
L 214.245818 97.691127 
L 215.057455 88.601752 
L 215.869091 95.895508 
L 216.680727 89.690834 
L 217.492364 150.600739 
L 218.304 92.550129 
L 219.115636 89.518015 
L 219.927273 88.331646 
L 220.738909 88.251434 
L 221.550545 92.483329 
L 222.362182 95.895508 
L 223.173818 53.568 
L 223.985455 80.833286 
L 224.797091 95.389574 
L 225.608727 95.020747 
L 226.420364 98.612943 
L 227.232 58.200875 
L 228.043636 97.691127 
L 228.855273 89.180285 
L 229.666909 191.698492 
L 230.478545 93.315079 
L 231.290182 92.211621 
L 232.101818 88.789576 
L 232.913455 96.757673 
L 233.725091 94.160748 
L 234.536727 95.112518 
L 235.348364 82.355939 
L 236.16 75.416946 
L 236.971636 97.691127 
L 237.783273 98.612943 
L 238.594909 86.41471 
L 239.406545 96.785478 
L 240.218182 96.028634 
L 241.029818 98.612943 
L 241.841455 87.554249 
L 242.653091 99.551438 
L 243.464727 89.433443 
L 244.276364 99.551438 
L 245.088 99.128948 
L 245.899636 97.757363 
L 246.711273 92.345852 
L 247.522909 99.551438 
L 248.334545 93.222546 
L 249.146182 97.691127 
L 249.957818 99.551438 
L 250.769455 96.785478 
L 251.581091 88.308808 
L 252.392727 91.08125 
L 253.204364 99.551438 
L 254.016 98.989666 
L 254.827636 99.363939 
L 255.639273 97.691127 
L 256.450909 77.791064 
L 257.262545 169.414789 
L 258.074182 96.839026 
L 258.885818 97.757363 
L 259.697455 99.696167 
L 260.509091 94.704465 
L 261.320727 99.551438 
L 262.132364 98.679051 
L 262.944 99.551438 
L 263.755636 97.83636 
L 264.567273 99.551438 
L 265.378909 93.655237 
L 266.190545 100.423932 
L 267.002182 96.240022 
L 267.813818 100.507147 
L 268.625455 126.887185 
L 269.437091 72.035959 
L 270.248727 95.55977 
L 271.060364 92.80321 
L 271.872 95.895508 
L 272.683636 96.447552 
L 273.495273 99.551438 
L 274.306909 88.637246 
L 275.118545 95.895508 
L 275.930182 98.425856 
L 276.741818 87.60434 
L 277.553455 72.560439 
L 278.365091 98.612943 
L 279.176727 98.065916 
L 279.988364 96.182188 
L 280.8 96.785478 
L 281.611636 95.087312 
L 282.423273 98.147409 
L 283.234909 95.026093 
L 284.046545 98.09735 
L 284.858182 97.216443 
L 285.669818 98.785106 
L 286.481455 98.147409 
L 287.293091 99.777412 
L 288.104727 100.507147 
L 288.916364 94.67171 
L 289.728 90.480806 
L 290.539636 89.582986 
L 291.351273 95.961973 
L 292.162909 97.638593 
L 292.974545 96.275368 
L 293.786182 98.291993 
L 294.597818 94.487613 
L 295.409455 97.691127 
L 296.221091 104.793567 
L 297.032727 98.425856 
L 297.844364 96.708855 
L 298.656 85.661329 
L 299.467636 99.551438 
L 300.279273 84.862181 
L 301.090909 168.263197 
L 301.902545 99.095672 
L 303.525818 99.551438 
L 304.337455 97.74467 
L 305.149091 99.363939 
L 305.960727 102.72906 
L 307.584 84.369511 
L 308.395636 80.811209 
L 309.207273 99.033153 
L 310.018909 97.691127 
L 310.830545 95.944329 
L 311.642182 98.147409 
L 312.453818 88.496866 
L 313.265455 85.615755 
L 314.077091 99.551438 
L 314.888727 83.561865 
L 315.700364 100.560627 
L 316.512 101.534072 
L 317.323636 100.507147 
L 318.135273 98.147409 
L 318.946909 98.147409 
L 319.758545 92.38018 
L 320.570182 100.507147 
L 321.381818 97.683302 
L 322.193455 98.612943 
L 323.005091 98.612943 
L 324.628364 102.485756 
L 325.44 90.494752 
L 326.251636 101.132014 
L 327.063273 108.224051 
L 327.874909 58.849473 
L 328.686545 100.160637 
L 329.498182 103.485398 
L 330.309818 99.551438 
L 331.121455 99.551438 
L 331.933091 97.571861 
L 332.744727 113.510782 
L 333.556364 180.22125 
L 334.368 140.906933 
L 335.179636 95.11064 
L 335.991273 108.080547 
L 336.802909 84.84977 
L 337.614545 99.363939 
L 338.426182 89.398922 
L 339.237818 99.551438 
L 340.049455 64.849902 
L 340.861091 78.852578 
L 341.672727 97.691127 
L 342.484364 110.865834 
L 343.296 97.887196 
L 344.107636 192.710673 
L 344.919273 170.439767 
L 345.730909 161.064445 
L 346.542545 99.645009 
L 347.354182 119.291633 
L 348.165818 206.09951 
L 348.977455 99.363939 
L 349.789091 289.343803 
L 350.600727 99.551438 
L 351.412364 99.551438 
L 352.224 55.553779 
L 353.035636 105.328635 
L 353.847273 204.63488 
L 354.658909 180.585561 
L 355.470545 187.06394 
L 356.282182 99.352715 
L 357.093818 111.44461 
L 357.905455 95.415158 
L 358.717091 181.81461 
L 359.528727 88.579681 
L 360.340364 100.507147 
L 361.152 101.471661 
L 361.963636 171.600294 
L 362.775273 168.712054 
L 363.586909 97.460091 
L 364.398545 199.947182 
L 365.210182 190.681614 
L 366.021818 95.953432 
L 366.833455 89.044321 
L 367.645091 99.551438 
L 368.456727 98.706342 
L 369.268364 100.507147 
L 370.08 88.260328 
L 370.891636 100.452938 
L 371.703273 100.507147 
L 372.514909 90.21594 
L 373.326545 99.551438 
L 374.138182 132.295151 
L 374.949818 95.673498 
L 375.761455 100.454477 
L 376.573091 99.551438 
L 377.384727 100.507147 
L 378.196364 179.479129 
L 379.008 91.021168 
L 379.819636 94.065962 
L 380.631273 92.127816 
L 381.442909 88.648701 
L 382.254545 101.101771 
L 383.066182 93.821573 
L 383.877818 173.994346 
L 384.689455 95.025812 
L 385.501091 80.620296 
L 386.312727 100.507147 
L 387.124364 100.970935 
L 387.936 98.220503 
L 388.747636 96.645545 
L 389.559273 99.551438 
L 390.370909 99.551438 
L 391.182545 100.880306 
L 391.994182 96.432969 
L 392.805818 116.881356 
L 393.617455 101.826819 
L 394.429091 99.551438 
L 395.240727 175.4685 
L 396.052364 100.507147 
L 396.864 180.573839 
L 397.675636 84.317668 
L 398.487273 99.551438 
L 398.487273 99.551438 
" clip-path="url(#p76a8ab3b7f)" style="fill: none; stroke: #9467bd; stroke-width: 1.5; stroke-linecap: square"/>
   </g>
   <g id="patch_3">
    <path d="M 57.6 307.584 
L 57.6 41.472 
" style="fill: none; stroke: #000000; stroke-width: 0.8; stroke-linejoin: miter; stroke-linecap: square"/>
   </g>
   <g id="patch_4">
    <path d="M 414.72 307.584 
L 414.72 41.472 
" style="fill: none; stroke: #000000; stroke-width: 0.8; stroke-linejoin: miter; stroke-linecap: square"/>
   </g>
   <g id="patch_5">
    <path d="M 57.6 307.584 
L 414.72 307.584 
" style="fill: none; stroke: #000000; stroke-width: 0.8; stroke-linejoin: miter; stroke-linecap: square"/>
   </g>
   <g id="patch_6">
    <path d="M 57.6 41.472 
L 414.72 41.472 
" style="fill: none; stroke: #000000; stroke-width: 0.8; stroke-linejoin: miter; stroke-linecap: square"/>
   </g>
  </g>
 </g>
 <defs>
  <clipPath id="p76a8ab3b7f">
   <rect x="57.6" y="41.472" width="357.12" height="266.112"/>
  </clipPath>
 </defs>
</svg>
