<?xml version="1.0" encoding="utf-8" standalone="no"?>
<!DOCTYPE svg PUBLIC "-//W3C//DTD SVG 1.1//EN"
  "http://www.w3.org/Graphics/SVG/1.1/DTD/svg11.dtd">
<svg xmlns:xlink="http://www.w3.org/1999/xlink" width="460.8pt" height="345.6pt" viewBox="0 0 460.8 345.6" xmlns="http://www.w3.org/2000/svg" version="1.1">
 <metadata>
  <rdf:RDF xmlns:dc="http://purl.org/dc/elements/1.1/" xmlns:cc="http://creativecommons.org/ns#" xmlns:rdf="http://www.w3.org/1999/02/22-rdf-syntax-ns#">
   <cc:Work>
    <dc:type rdf:resource="http://purl.org/dc/dcmitype/StillImage"/>
    <dc:date>2024-04-28T13:47:46.069672</dc:date>
    <dc:format>image/svg+xml</dc:format>
    <dc:creator>
     <cc:Agent>
      <dc:title>Matplotlib v3.8.2, https://matplotlib.org/</dc:title>
     </cc:Agent>
    </dc:creator>
   </cc:Work>
  </rdf:RDF>
 </metadata>
 <defs>
  <style type="text/css">*{stroke-linejoin: round; stroke-linecap: butt}</style>
 </defs>
 <g id="figure_1">
  <g id="patch_1">
   <path d="M 0 345.6 
L 460.8 345.6 
L 460.8 0 
L 0 0 
z
" style="fill: #ffffff"/>
  </g>
  <g id="axes_1">
   <g id="patch_2">
    <path d="M 57.6 307.584 
L 414.72 307.584 
L 414.72 41.472 
L 57.6 41.472 
z
" style="fill: #ffffff"/>
   </g>
   <g id="matplotlib.axis_1">
    <g id="xtick_1">
     <g id="line2d_1">
      <defs>
       <path id="m62f9a0d21a" d="M 0 0 
L 0 3.5 
" style="stroke: #000000; stroke-width: 0.8"/>
      </defs>
      <g>
       <use xlink:href="#m62f9a0d21a" x="73.832727" y="307.584" style="stroke: #000000; stroke-width: 0.8"/>
      </g>
     </g>
     <g id="text_1">
      <!-- 0 -->
      <g transform="translate(70.651477 322.182437) scale(0.1 -0.1)">
       <defs>
        <path id="DejaVuSans-30" d="M 2034 4250 
Q 1547 4250 1301 3770 
Q 1056 3291 1056 2328 
Q 1056 1369 1301 889 
Q 1547 409 2034 409 
Q 2525 409 2770 889 
Q 3016 1369 3016 2328 
Q 3016 3291 2770 3770 
Q 2525 4250 2034 4250 
z
M 2034 4750 
Q 2819 4750 3233 4129 
Q 3647 3509 3647 2328 
Q 3647 1150 3233 529 
Q 2819 -91 2034 -91 
Q 1250 -91 836 529 
Q 422 1150 422 2328 
Q 422 3509 836 4129 
Q 1250 4750 2034 4750 
z
" transform="scale(0.015625)"/>
       </defs>
       <use xlink:href="#DejaVuSans-30"/>
      </g>
     </g>
    </g>
    <g id="xtick_2">
     <g id="line2d_2">
      <g>
       <use xlink:href="#m62f9a0d21a" x="138.763636" y="307.584" style="stroke: #000000; stroke-width: 0.8"/>
      </g>
     </g>
     <g id="text_2">
      <!-- 100 -->
      <g transform="translate(129.219886 322.182437) scale(0.1 -0.1)">
       <defs>
        <path id="DejaVuSans-31" d="M 794 531 
L 1825 531 
L 1825 4091 
L 703 3866 
L 703 4441 
L 1819 4666 
L 2450 4666 
L 2450 531 
L 3481 531 
L 3481 0 
L 794 0 
L 794 531 
z
" transform="scale(0.015625)"/>
       </defs>
       <use xlink:href="#DejaVuSans-31"/>
       <use xlink:href="#DejaVuSans-30" x="63.623047"/>
       <use xlink:href="#DejaVuSans-30" x="127.246094"/>
      </g>
     </g>
    </g>
    <g id="xtick_3">
     <g id="line2d_3">
      <g>
       <use xlink:href="#m62f9a0d21a" x="203.694545" y="307.584" style="stroke: #000000; stroke-width: 0.8"/>
      </g>
     </g>
     <g id="text_3">
      <!-- 200 -->
      <g transform="translate(194.150795 322.182437) scale(0.1 -0.1)">
       <defs>
        <path id="DejaVuSans-32" d="M 1228 531 
L 3431 531 
L 3431 0 
L 469 0 
L 469 531 
Q 828 903 1448 1529 
Q 2069 2156 2228 2338 
Q 2531 2678 2651 2914 
Q 2772 3150 2772 3378 
Q 2772 3750 2511 3984 
Q 2250 4219 1831 4219 
Q 1534 4219 1204 4116 
Q 875 4013 500 3803 
L 500 4441 
Q 881 4594 1212 4672 
Q 1544 4750 1819 4750 
Q 2544 4750 2975 4387 
Q 3406 4025 3406 3419 
Q 3406 3131 3298 2873 
Q 3191 2616 2906 2266 
Q 2828 2175 2409 1742 
Q 1991 1309 1228 531 
z
" transform="scale(0.015625)"/>
       </defs>
       <use xlink:href="#DejaVuSans-32"/>
       <use xlink:href="#DejaVuSans-30" x="63.623047"/>
       <use xlink:href="#DejaVuSans-30" x="127.246094"/>
      </g>
     </g>
    </g>
    <g id="xtick_4">
     <g id="line2d_4">
      <g>
       <use xlink:href="#m62f9a0d21a" x="268.625455" y="307.584" style="stroke: #000000; stroke-width: 0.8"/>
      </g>
     </g>
     <g id="text_4">
      <!-- 300 -->
      <g transform="translate(259.081705 322.182437) scale(0.1 -0.1)">
       <defs>
        <path id="DejaVuSans-33" d="M 2597 2516 
Q 3050 2419 3304 2112 
Q 3559 1806 3559 1356 
Q 3559 666 3084 287 
Q 2609 -91 1734 -91 
Q 1441 -91 1130 -33 
Q 819 25 488 141 
L 488 750 
Q 750 597 1062 519 
Q 1375 441 1716 441 
Q 2309 441 2620 675 
Q 2931 909 2931 1356 
Q 2931 1769 2642 2001 
Q 2353 2234 1838 2234 
L 1294 2234 
L 1294 2753 
L 1863 2753 
Q 2328 2753 2575 2939 
Q 2822 3125 2822 3475 
Q 2822 3834 2567 4026 
Q 2313 4219 1838 4219 
Q 1578 4219 1281 4162 
Q 984 4106 628 3988 
L 628 4550 
Q 988 4650 1302 4700 
Q 1616 4750 1894 4750 
Q 2613 4750 3031 4423 
Q 3450 4097 3450 3541 
Q 3450 3153 3228 2886 
Q 3006 2619 2597 2516 
z
" transform="scale(0.015625)"/>
       </defs>
       <use xlink:href="#DejaVuSans-33"/>
       <use xlink:href="#DejaVuSans-30" x="63.623047"/>
       <use xlink:href="#DejaVuSans-30" x="127.246094"/>
      </g>
     </g>
    </g>
    <g id="xtick_5">
     <g id="line2d_5">
      <g>
       <use xlink:href="#m62f9a0d21a" x="333.556364" y="307.584" style="stroke: #000000; stroke-width: 0.8"/>
      </g>
     </g>
     <g id="text_5">
      <!-- 400 -->
      <g transform="translate(324.012614 322.182437) scale(0.1 -0.1)">
       <defs>
        <path id="DejaVuSans-34" d="M 2419 4116 
L 825 1625 
L 2419 1625 
L 2419 4116 
z
M 2253 4666 
L 3047 4666 
L 3047 1625 
L 3713 1625 
L 3713 1100 
L 3047 1100 
L 3047 0 
L 2419 0 
L 2419 1100 
L 313 1100 
L 313 1709 
L 2253 4666 
z
" transform="scale(0.015625)"/>
       </defs>
       <use xlink:href="#DejaVuSans-34"/>
       <use xlink:href="#DejaVuSans-30" x="63.623047"/>
       <use xlink:href="#DejaVuSans-30" x="127.246094"/>
      </g>
     </g>
    </g>
    <g id="xtick_6">
     <g id="line2d_6">
      <g>
       <use xlink:href="#m62f9a0d21a" x="398.487273" y="307.584" style="stroke: #000000; stroke-width: 0.8"/>
      </g>
     </g>
     <g id="text_6">
      <!-- 500 -->
      <g transform="translate(388.943523 322.182437) scale(0.1 -0.1)">
       <defs>
        <path id="DejaVuSans-35" d="M 691 4666 
L 3169 4666 
L 3169 4134 
L 1269 4134 
L 1269 2991 
Q 1406 3038 1543 3061 
Q 1681 3084 1819 3084 
Q 2600 3084 3056 2656 
Q 3513 2228 3513 1497 
Q 3513 744 3044 326 
Q 2575 -91 1722 -91 
Q 1428 -91 1123 -41 
Q 819 9 494 109 
L 494 744 
Q 775 591 1075 516 
Q 1375 441 1709 441 
Q 2250 441 2565 725 
Q 2881 1009 2881 1497 
Q 2881 1984 2565 2268 
Q 2250 2553 1709 2553 
Q 1456 2553 1204 2497 
Q 953 2441 691 2322 
L 691 4666 
z
" transform="scale(0.015625)"/>
       </defs>
       <use xlink:href="#DejaVuSans-35"/>
       <use xlink:href="#DejaVuSans-30" x="63.623047"/>
       <use xlink:href="#DejaVuSans-30" x="127.246094"/>
      </g>
     </g>
    </g>
   </g>
   <g id="matplotlib.axis_2">
    <g id="ytick_1">
     <g id="line2d_7">
      <defs>
       <path id="m5d9e04d8f9" d="M 0 0 
L -3.5 0 
" style="stroke: #000000; stroke-width: 0.8"/>
      </defs>
      <g>
       <use xlink:href="#m5d9e04d8f9" x="57.6" y="295.89381" style="stroke: #000000; stroke-width: 0.8"/>
      </g>
     </g>
     <g id="text_7">
      <!-- −80 -->
      <g transform="translate(29.495313 299.693029) scale(0.1 -0.1)">
       <defs>
        <path id="DejaVuSans-2212" d="M 678 2272 
L 4684 2272 
L 4684 1741 
L 678 1741 
L 678 2272 
z
" transform="scale(0.015625)"/>
        <path id="DejaVuSans-38" d="M 2034 2216 
Q 1584 2216 1326 1975 
Q 1069 1734 1069 1313 
Q 1069 891 1326 650 
Q 1584 409 2034 409 
Q 2484 409 2743 651 
Q 3003 894 3003 1313 
Q 3003 1734 2745 1975 
Q 2488 2216 2034 2216 
z
M 1403 2484 
Q 997 2584 770 2862 
Q 544 3141 544 3541 
Q 544 4100 942 4425 
Q 1341 4750 2034 4750 
Q 2731 4750 3128 4425 
Q 3525 4100 3525 3541 
Q 3525 3141 3298 2862 
Q 3072 2584 2669 2484 
Q 3125 2378 3379 2068 
Q 3634 1759 3634 1313 
Q 3634 634 3220 271 
Q 2806 -91 2034 -91 
Q 1263 -91 848 271 
Q 434 634 434 1313 
Q 434 1759 690 2068 
Q 947 2378 1403 2484 
z
M 1172 3481 
Q 1172 3119 1398 2916 
Q 1625 2713 2034 2713 
Q 2441 2713 2670 2916 
Q 2900 3119 2900 3481 
Q 2900 3844 2670 4047 
Q 2441 4250 2034 4250 
Q 1625 4250 1398 4047 
Q 1172 3844 1172 3481 
z
" transform="scale(0.015625)"/>
       </defs>
       <use xlink:href="#DejaVuSans-2212"/>
       <use xlink:href="#DejaVuSans-38" x="83.789062"/>
       <use xlink:href="#DejaVuSans-30" x="147.412109"/>
      </g>
     </g>
    </g>
    <g id="ytick_2">
     <g id="line2d_8">
      <g>
       <use xlink:href="#m5d9e04d8f9" x="57.6" y="248.76226" style="stroke: #000000; stroke-width: 0.8"/>
      </g>
     </g>
     <g id="text_8">
      <!-- −60 -->
      <g transform="translate(29.495313 252.561479) scale(0.1 -0.1)">
       <defs>
        <path id="DejaVuSans-36" d="M 2113 2584 
Q 1688 2584 1439 2293 
Q 1191 2003 1191 1497 
Q 1191 994 1439 701 
Q 1688 409 2113 409 
Q 2538 409 2786 701 
Q 3034 994 3034 1497 
Q 3034 2003 2786 2293 
Q 2538 2584 2113 2584 
z
M 3366 4563 
L 3366 3988 
Q 3128 4100 2886 4159 
Q 2644 4219 2406 4219 
Q 1781 4219 1451 3797 
Q 1122 3375 1075 2522 
Q 1259 2794 1537 2939 
Q 1816 3084 2150 3084 
Q 2853 3084 3261 2657 
Q 3669 2231 3669 1497 
Q 3669 778 3244 343 
Q 2819 -91 2113 -91 
Q 1303 -91 875 529 
Q 447 1150 447 2328 
Q 447 3434 972 4092 
Q 1497 4750 2381 4750 
Q 2619 4750 2861 4703 
Q 3103 4656 3366 4563 
z
" transform="scale(0.015625)"/>
       </defs>
       <use xlink:href="#DejaVuSans-2212"/>
       <use xlink:href="#DejaVuSans-36" x="83.789062"/>
       <use xlink:href="#DejaVuSans-30" x="147.412109"/>
      </g>
     </g>
    </g>
    <g id="ytick_3">
     <g id="line2d_9">
      <g>
       <use xlink:href="#m5d9e04d8f9" x="57.6" y="201.630711" style="stroke: #000000; stroke-width: 0.8"/>
      </g>
     </g>
     <g id="text_9">
      <!-- −40 -->
      <g transform="translate(29.495313 205.429929) scale(0.1 -0.1)">
       <use xlink:href="#DejaVuSans-2212"/>
       <use xlink:href="#DejaVuSans-34" x="83.789062"/>
       <use xlink:href="#DejaVuSans-30" x="147.412109"/>
      </g>
     </g>
    </g>
    <g id="ytick_4">
     <g id="line2d_10">
      <g>
       <use xlink:href="#m5d9e04d8f9" x="57.6" y="154.499161" style="stroke: #000000; stroke-width: 0.8"/>
      </g>
     </g>
     <g id="text_10">
      <!-- −20 -->
      <g transform="translate(29.495313 158.29838) scale(0.1 -0.1)">
       <use xlink:href="#DejaVuSans-2212"/>
       <use xlink:href="#DejaVuSans-32" x="83.789062"/>
       <use xlink:href="#DejaVuSans-30" x="147.412109"/>
      </g>
     </g>
    </g>
    <g id="ytick_5">
     <g id="line2d_11">
      <g>
       <use xlink:href="#m5d9e04d8f9" x="57.6" y="107.367612" style="stroke: #000000; stroke-width: 0.8"/>
      </g>
     </g>
     <g id="text_11">
      <!-- 0 -->
      <g transform="translate(44.2375 111.16683) scale(0.1 -0.1)">
       <use xlink:href="#DejaVuSans-30"/>
      </g>
     </g>
    </g>
    <g id="ytick_6">
     <g id="line2d_12">
      <g>
       <use xlink:href="#m5d9e04d8f9" x="57.6" y="60.236062" style="stroke: #000000; stroke-width: 0.8"/>
      </g>
     </g>
     <g id="text_12">
      <!-- 20 -->
      <g transform="translate(37.875 64.035281) scale(0.1 -0.1)">
       <use xlink:href="#DejaVuSans-32"/>
       <use xlink:href="#DejaVuSans-30" x="63.623047"/>
      </g>
     </g>
    </g>
   </g>
   <g id="line2d_13">
    <path d="M 73.832727 101.702519 
" clip-path="url(#paf9223f86a)" style="fill: none; stroke: #1f77b4; stroke-width: 1.5; stroke-linecap: square"/>
   </g>
   <g id="line2d_14">
    <path d="M 73.832727 101.702519 
L 74.482036 98.606797 
L 75.131345 81.566549 
L 75.780655 104.949489 
L 76.429964 106.581787 
L 77.079273 79.278432 
L 77.728582 105.362243 
L 78.377891 93.263129 
L 79.0272 101.814982 
L 79.676509 90.701708 
L 80.325818 94.110438 
L 80.975127 86.830892 
L 81.624436 90.102376 
L 82.273745 92.383684 
L 82.923055 101.597315 
L 83.572364 93.098143 
L 84.221673 102.613736 
L 84.870982 295.488 
L 85.520291 92.526596 
L 86.1696 93.737288 
L 86.818909 92.953907 
L 87.468218 92.395377 
L 88.117527 92.993014 
L 88.766836 94.39876 
L 89.416145 101.989786 
L 90.065455 82.205734 
L 90.714764 93.231244 
L 91.364073 101.505647 
L 92.013382 93.525985 
L 92.662691 93.616359 
L 93.312 94.645612 
L 93.961309 93.398429 
L 94.610618 94.124019 
L 95.259927 93.953077 
L 95.909236 103.151091 
L 96.558545 93.826792 
L 97.207855 93.178737 
L 97.857164 94.37506 
L 98.506473 94.771747 
L 99.155782 132.816399 
L 99.805091 95.571759 
L 100.4544 93.9336 
L 101.103709 94.079459 
L 101.753018 94.169365 
L 102.402327 94.170099 
L 103.051636 94.126609 
L 103.700945 95.466555 
L 104.350255 94.918054 
L 104.999564 94.885571 
L 105.648873 95.494886 
L 106.298182 94.133894 
L 106.947491 94.156823 
L 107.5968 96.374954 
L 108.246109 96.131471 
L 108.895418 95.425821 
L 109.544727 85.046806 
L 110.194036 95.986001 
L 110.843345 75.053268 
L 111.492655 97.01122 
L 112.141964 95.50462 
L 112.791273 98.201036 
L 113.440582 96.714142 
L 114.089891 96.461803 
L 114.7392 97.042754 
L 115.388509 96.474491 
L 116.037818 97.07538 
L 116.687127 102.399175 
L 117.336436 96.592165 
L 117.985745 101.256995 
L 118.635055 96.675967 
L 119.284364 95.466608 
L 119.933673 97.811936 
L 120.582982 99.3996 
L 121.232291 96.357378 
L 121.8816 96.759594 
L 122.530909 151.038526 
L 123.180218 104.636234 
L 123.829527 72.9609 
L 124.478836 75.422287 
L 125.128145 97.074155 
L 125.777455 96.282705 
L 126.426764 97.747306 
L 127.076073 98.751137 
L 127.725382 97.329099 
L 128.374691 98.59552 
L 129.024 97.771091 
L 129.673309 185.832695 
L 130.322618 99.244898 
L 130.971927 98.6355 
L 131.621236 106.372542 
L 132.270545 96.944274 
L 132.919855 86.683847 
L 133.569164 98.151796 
L 134.218473 97.817625 
L 134.867782 98.297899 
L 135.517091 77.229303 
L 136.1664 97.835137 
L 136.815709 100.200562 
L 137.465018 97.998838 
L 138.114327 96.998655 
L 138.763636 98.391731 
" clip-path="url(#paf9223f86a)" style="fill: none; stroke: #ff7f0e; stroke-width: 1.5; stroke-linecap: square"/>
   </g>
   <g id="line2d_15">
    <path d="M 73.832727 101.702519 
L 74.482036 98.606797 
L 75.131345 81.566549 
L 75.780655 104.949489 
L 76.429964 106.581787 
L 77.079273 79.278432 
L 77.728582 105.362243 
L 78.377891 93.263129 
L 79.0272 101.814982 
L 79.676509 90.701708 
L 80.325818 94.110438 
L 80.975127 86.830892 
L 81.624436 90.102376 
L 82.273745 92.383684 
L 82.923055 101.597315 
L 83.572364 93.098143 
L 84.221673 102.613736 
L 84.870982 295.488 
L 85.520291 92.526596 
L 86.1696 93.737288 
L 86.818909 92.953907 
L 87.468218 92.395377 
L 88.117527 92.993014 
L 88.766836 94.39876 
L 89.416145 101.989786 
L 90.065455 82.205734 
L 90.714764 93.231244 
L 91.364073 101.505647 
L 92.013382 93.525985 
L 92.662691 93.616359 
L 93.312 94.645612 
L 93.961309 93.398429 
L 94.610618 94.124019 
L 95.259927 93.953077 
L 95.909236 103.151091 
L 96.558545 93.826792 
L 97.207855 93.178737 
L 97.857164 94.37506 
L 98.506473 94.771747 
L 99.155782 132.816399 
L 99.805091 95.571759 
L 100.4544 93.9336 
L 101.753018 94.169365 
L 103.051636 94.126609 
L 103.700945 95.466555 
L 104.350255 94.918054 
L 104.999564 94.885571 
L 105.648873 95.494886 
L 106.298182 94.133894 
L 106.947491 94.156823 
L 107.5968 96.374954 
L 108.246109 96.131471 
L 108.895418 95.425821 
L 109.544727 85.046806 
L 110.194036 95.986001 
L 110.843345 75.053268 
L 111.492655 97.01122 
L 112.141964 95.50462 
L 112.791273 98.201036 
L 113.440582 96.714142 
L 114.089891 96.461803 
L 114.7392 97.042754 
L 115.388509 96.474491 
L 116.037818 97.07538 
L 116.687127 102.399175 
L 117.336436 96.592165 
L 117.985745 101.256995 
L 118.635055 96.675967 
L 119.284364 95.466608 
L 119.933673 97.811936 
L 120.582982 99.3996 
L 121.232291 96.357378 
L 121.8816 96.759594 
L 122.530909 151.038526 
L 123.180218 104.636234 
L 123.829527 72.9609 
L 124.478836 75.422287 
L 125.128145 97.074155 
L 125.777455 96.282705 
L 126.426764 97.747306 
L 127.076073 98.751137 
L 127.725382 97.329099 
L 128.374691 98.59552 
L 129.024 97.771091 
L 129.673309 185.832695 
L 130.322618 99.244898 
L 130.971927 98.6355 
L 131.621236 106.372542 
L 132.919855 86.683847 
L 133.569164 98.151796 
L 134.218473 97.817625 
L 134.867782 98.297899 
L 135.517091 77.229303 
L 136.1664 97.835137 
L 136.815709 100.200562 
L 137.465018 97.998838 
L 138.114327 96.998655 
L 138.763636 98.391731 
L 139.412945 97.15105 
L 140.062255 78.261271 
L 140.711564 97.595387 
L 141.360873 97.564417 
L 142.010182 98.235933 
L 142.659491 98.391731 
L 143.3088 97.835137 
L 143.958109 98.184174 
L 144.607418 98.094756 
L 145.256727 97.367704 
L 145.906036 97.156627 
L 146.555345 97.397428 
L 147.204655 96.711715 
L 147.853964 97.835137 
L 148.503273 97.500436 
L 149.152582 97.434871 
L 149.801891 97.747306 
L 150.4512 97.718584 
L 151.100509 97.083188 
L 151.749818 96.93212 
L 152.399127 97.008318 
L 153.048436 97.367704 
L 153.697745 97.132361 
L 154.347055 97.434871 
L 154.996364 97.397428 
L 155.645673 96.776288 
L 156.944291 97.327899 
L 157.5936 97.914369 
L 158.242909 97.256637 
L 158.892218 96.834006 
L 160.190836 96.93212 
L 160.840145 97.256637 
L 161.489455 96.877104 
L 162.138764 80.585596 
L 162.788073 97.298928 
L 163.437382 96.854723 
L 164.736 96.939917 
L 165.385309 80.949762 
L 166.034618 104.711989 
L 166.683927 97.29568 
L 167.333236 96.93212 
L 167.982545 97.222917 
L 168.631855 96.854723 
L 169.281164 80.767799 
L 169.930473 85.54158 
L 170.579782 96.840574 
L 171.229091 96.63542 
L 171.8784 97.035055 
L 172.527709 96.461193 
L 173.177018 99.022905 
L 173.826327 95.762568 
L 174.475636 106.466554 
L 175.124945 98.952352 
L 175.774255 96.776288 
L 176.423564 96.854723 
L 177.072873 97.244413 
L 177.722182 103.017656 
L 178.371491 96.461193 
L 179.0208 103.017656 
L 179.670109 97.806096 
L 180.319418 96.854723 
L 180.968727 94.544104 
L 181.618036 96.854723 
L 182.267345 102.191963 
L 182.916655 96.776288 
L 183.565964 96.908834 
L 184.215273 96.385902 
L 184.864582 163.911786 
L 185.513891 80.766558 
L 186.1632 105.581511 
L 186.812509 96.854723 
L 187.461818 103.857521 
L 188.111127 97.90036 
L 188.760436 156.380487 
L 189.409745 100.645594 
L 190.059055 97.734435 
L 190.708364 96.595392 
L 191.357673 96.518379 
L 192.006982 100.581459 
L 192.656291 103.857521 
L 193.3056 63.218515 
L 193.954909 89.396151 
L 194.604218 103.37177 
L 195.253527 103.017656 
L 195.902836 106.466554 
L 196.552145 67.666578 
L 197.201455 105.581511 
L 197.850764 97.410178 
L 198.500073 195.838795 
L 199.149382 101.380029 
L 199.798691 100.32059 
L 200.448 97.035055 
L 201.097309 104.685293 
L 201.746618 102.191963 
L 202.395927 103.105766 
L 203.045236 90.858064 
L 203.694545 84.195877 
L 203.694545 84.195877 
" clip-path="url(#paf9223f86a)" style="fill: none; stroke: #2ca02c; stroke-width: 1.5; stroke-linecap: square"/>
   </g>
   <g id="line2d_16">
    <path d="M 73.832727 101.702519 
L 74.482036 98.606797 
L 75.131345 81.566549 
L 75.780655 104.949489 
L 76.429964 106.581787 
L 77.079273 79.278432 
L 77.728582 105.362243 
L 78.377891 93.263129 
L 79.0272 101.814982 
L 79.676509 90.701708 
L 80.325818 94.110438 
L 80.975127 86.830892 
L 81.624436 90.102376 
L 82.273745 92.383684 
L 82.923055 101.597315 
L 83.572364 93.098143 
L 84.221673 102.613736 
L 84.870982 295.488 
L 85.520291 92.526596 
L 86.1696 93.737288 
L 86.818909 92.953907 
L 87.468218 92.395377 
L 88.117527 92.993014 
L 88.766836 94.39876 
L 89.416145 101.989786 
L 90.065455 82.205734 
L 90.714764 93.231244 
L 91.364073 101.505647 
L 92.013382 93.525985 
L 92.662691 93.616359 
L 93.312 94.645612 
L 93.961309 93.398429 
L 94.610618 94.124019 
L 95.259927 93.953077 
L 95.909236 103.151091 
L 96.558545 93.826792 
L 97.207855 93.178737 
L 97.857164 94.37506 
L 98.506473 94.771747 
L 99.155782 132.816399 
L 99.805091 95.571759 
L 100.4544 93.9336 
L 101.753018 94.169365 
L 103.051636 94.126609 
L 103.700945 95.466555 
L 104.350255 94.918054 
L 104.999564 94.885571 
L 105.648873 95.494886 
L 106.298182 94.133894 
L 106.947491 94.156823 
L 107.5968 96.374954 
L 108.246109 96.131471 
L 108.895418 95.425821 
L 109.544727 85.046806 
L 110.194036 95.986001 
L 110.843345 75.053268 
L 111.492655 97.01122 
L 112.141964 95.50462 
L 112.791273 98.201036 
L 113.440582 96.714142 
L 114.089891 96.461803 
L 114.7392 97.042754 
L 115.388509 96.474491 
L 116.037818 97.07538 
L 116.687127 102.399175 
L 117.336436 96.592165 
L 117.985745 101.256995 
L 118.635055 96.675967 
L 119.284364 95.466608 
L 119.933673 97.811936 
L 120.582982 99.3996 
L 121.232291 96.357378 
L 121.8816 96.759594 
L 122.530909 151.038526 
L 123.180218 104.636234 
L 123.829527 72.9609 
L 124.478836 75.422287 
L 125.128145 97.074155 
L 125.777455 96.282705 
L 126.426764 97.747306 
L 127.076073 98.751137 
L 127.725382 97.329099 
L 128.374691 98.59552 
L 129.024 97.771091 
L 129.673309 185.832695 
L 130.322618 99.244898 
L 130.971927 98.6355 
L 131.621236 106.372542 
L 132.919855 86.683847 
L 133.569164 98.151796 
L 134.218473 97.817625 
L 134.867782 98.297899 
L 135.517091 77.229303 
L 136.1664 97.835137 
L 136.815709 100.200562 
L 137.465018 97.998838 
L 138.114327 96.998655 
L 138.763636 98.391731 
L 139.412945 97.15105 
L 140.062255 78.261271 
L 140.711564 97.595387 
L 141.360873 97.564417 
L 142.010182 98.235933 
L 142.659491 98.391731 
L 143.3088 97.835137 
L 143.958109 98.184174 
L 144.607418 98.094756 
L 145.256727 97.367704 
L 145.906036 97.156627 
L 146.555345 97.397428 
L 147.204655 96.711715 
L 147.853964 97.835137 
L 148.503273 97.500436 
L 149.152582 97.434871 
L 149.801891 97.747306 
L 150.4512 97.718584 
L 151.100509 97.083188 
L 151.749818 96.93212 
L 152.399127 97.008318 
L 153.048436 97.367704 
L 153.697745 97.132361 
L 154.347055 97.434871 
L 154.996364 97.397428 
L 155.645673 96.776288 
L 156.944291 97.327899 
L 157.5936 97.914369 
L 158.242909 97.256637 
L 158.892218 96.834006 
L 160.190836 96.93212 
L 160.840145 97.256637 
L 161.489455 96.877104 
L 162.138764 80.585596 
L 162.788073 97.298928 
L 163.437382 96.854723 
L 164.736 96.939917 
L 165.385309 80.949762 
L 166.034618 104.711989 
L 166.683927 97.29568 
L 167.333236 96.93212 
L 167.982545 97.222917 
L 168.631855 96.854723 
L 169.281164 80.767799 
L 169.930473 85.54158 
L 170.579782 96.840574 
L 171.229091 96.63542 
L 171.8784 97.035055 
L 172.527709 96.461193 
L 173.177018 99.022905 
L 173.826327 95.762568 
L 174.475636 106.466554 
L 175.124945 98.952352 
L 175.774255 96.776288 
L 176.423564 96.854723 
L 177.072873 97.244413 
L 177.722182 103.017656 
L 178.371491 96.461193 
L 179.0208 103.017656 
L 179.670109 97.806096 
L 180.319418 96.854723 
L 180.968727 94.544104 
L 181.618036 96.854723 
L 182.267345 102.191963 
L 182.916655 96.776288 
L 183.565964 96.908834 
L 184.215273 96.385902 
L 184.864582 163.911786 
L 185.513891 80.766558 
L 186.1632 105.581511 
L 186.812509 96.854723 
L 187.461818 103.857521 
L 188.111127 97.90036 
L 188.760436 156.380487 
L 189.409745 100.645594 
L 190.059055 97.734435 
L 190.708364 96.595392 
L 191.357673 96.518379 
L 192.006982 100.581459 
L 192.656291 103.857521 
L 193.3056 63.218515 
L 193.954909 89.396151 
L 194.604218 103.37177 
L 195.253527 103.017656 
L 195.902836 106.466554 
L 196.552145 67.666578 
L 197.201455 105.581511 
L 197.850764 97.410178 
L 198.500073 195.838795 
L 199.149382 101.380029 
L 199.798691 100.32059 
L 200.448 97.035055 
L 201.097309 104.685293 
L 201.746618 102.191963 
L 202.395927 103.105766 
L 203.045236 90.858064 
L 203.694545 84.195877 
L 204.343855 105.581511 
L 204.993164 106.466554 
L 205.642473 94.754925 
L 206.291782 104.711989 
L 206.941091 103.985337 
L 207.5904 106.466554 
L 208.239709 95.849007 
L 208.889018 107.367612 
L 209.538327 97.653237 
L 210.187636 107.367612 
L 210.836945 106.961975 
L 211.486255 105.645105 
L 212.135564 100.449466 
L 212.784873 107.367612 
L 213.434182 101.291188 
L 214.083491 105.581511 
L 214.7328 107.367612 
L 215.382109 104.711989 
L 216.031418 96.573465 
L 216.680727 99.235311 
L 217.330036 107.367612 
L 217.979345 106.82825 
L 218.628655 107.187592 
L 219.277964 105.581511 
L 219.927273 86.475288 
L 220.576582 174.444019 
L 221.225891 104.763401 
L 221.8752 105.645105 
L 222.524509 107.506567 
L 223.173818 102.713991 
L 223.823127 107.367612 
L 224.472436 106.530025 
L 225.121745 107.367612 
L 225.771055 105.72095 
L 226.420364 107.367612 
L 227.069673 101.706618 
L 227.718982 108.2053 
L 228.368291 104.188292 
L 229.0176 108.285195 
L 229.666909 133.612898 
L 230.316218 80.949762 
L 230.965527 103.535176 
L 231.614836 100.888579 
L 232.264145 103.857521 
L 232.913455 104.387544 
L 233.562764 107.367612 
L 234.212073 96.888801 
L 234.861382 103.857521 
L 235.510691 106.28693 
L 236.16 95.897099 
L 236.809309 81.453319 
L 237.458618 106.466554 
L 238.107927 105.941349 
L 238.757236 104.132766 
L 239.406545 104.711989 
L 240.055855 103.081565 
L 240.705164 106.019591 
L 241.354473 103.022789 
L 242.003782 105.971529 
L 242.653091 105.125763 
L 243.3024 106.631849 
L 243.951709 106.019591 
L 244.601018 107.584571 
L 245.250327 108.285195 
L 245.899636 102.682543 
L 246.548945 98.658819 
L 247.198255 97.796814 
L 247.847564 103.921335 
L 248.496873 105.531072 
L 249.146182 104.222228 
L 249.795491 106.158407 
L 250.4448 102.505789 
L 251.094109 105.581511 
L 251.743418 112.400624 
L 252.392727 106.28693 
L 253.042036 104.638423 
L 253.691345 94.031598 
L 254.340655 107.367612 
L 254.989964 93.264329 
L 255.639273 173.338365 
L 256.288582 106.930026 
L 257.5872 107.367612 
L 258.236509 105.632918 
L 258.885818 107.187592 
L 259.535127 110.418473 
L 260.833745 92.791311 
L 261.483055 89.374955 
L 262.132364 106.870002 
L 262.781673 105.581511 
L 263.430982 103.904395 
L 264.080291 106.019591 
L 264.7296 96.754021 
L 265.378909 93.987842 
L 266.028218 107.367612 
L 266.677527 92.015884 
L 267.326836 108.336543 
L 267.976145 109.271155 
L 268.625455 108.285195 
L 268.625455 108.285195 
" clip-path="url(#paf9223f86a)" style="fill: none; stroke: #d62728; stroke-width: 1.5; stroke-linecap: square"/>
   </g>
   <g id="line2d_17">
    <path d="M 73.832727 101.702519 
L 74.482036 98.606797 
L 75.131345 81.566549 
L 75.780655 104.949489 
L 76.429964 106.581787 
L 77.079273 79.278432 
L 77.728582 105.362243 
L 78.377891 93.263129 
L 79.0272 101.814982 
L 79.676509 90.701708 
L 80.325818 94.110438 
L 80.975127 86.830892 
L 81.624436 90.102376 
L 82.273745 92.383684 
L 82.923055 101.597315 
L 83.572364 93.098143 
L 84.221673 102.613736 
L 84.870982 295.488 
L 85.520291 92.526596 
L 86.1696 93.737288 
L 86.818909 92.953907 
L 87.468218 92.395377 
L 88.117527 92.993014 
L 88.766836 94.39876 
L 89.416145 101.989786 
L 90.065455 82.205734 
L 90.714764 93.231244 
L 91.364073 101.505647 
L 92.013382 93.525985 
L 92.662691 93.616359 
L 93.312 94.645612 
L 93.961309 93.398429 
L 94.610618 94.124019 
L 95.259927 93.953077 
L 95.909236 103.151091 
L 96.558545 93.826792 
L 97.207855 93.178737 
L 97.857164 94.37506 
L 98.506473 94.771747 
L 99.155782 132.816399 
L 99.805091 95.571759 
L 100.4544 93.9336 
L 101.753018 94.169365 
L 103.051636 94.126609 
L 103.700945 95.466555 
L 104.350255 94.918054 
L 104.999564 94.885571 
L 105.648873 95.494886 
L 106.298182 94.133894 
L 106.947491 94.156823 
L 107.5968 96.374954 
L 108.246109 96.131471 
L 108.895418 95.425821 
L 109.544727 85.046806 
L 110.194036 95.986001 
L 110.843345 75.053268 
L 111.492655 97.01122 
L 112.141964 95.50462 
L 112.791273 98.201036 
L 113.440582 96.714142 
L 114.089891 96.461803 
L 114.7392 97.042754 
L 115.388509 96.474491 
L 116.037818 97.07538 
L 116.687127 102.399175 
L 117.336436 96.592165 
L 117.985745 101.256995 
L 118.635055 96.675967 
L 119.284364 95.466608 
L 119.933673 97.811936 
L 120.582982 99.3996 
L 121.232291 96.357378 
L 121.8816 96.759594 
L 122.530909 151.038526 
L 123.180218 104.636234 
L 123.829527 72.9609 
L 124.478836 75.422287 
L 125.128145 97.074155 
L 125.777455 96.282705 
L 126.426764 97.747306 
L 127.076073 98.751137 
L 127.725382 97.329099 
L 128.374691 98.59552 
L 129.024 97.771091 
L 129.673309 185.832695 
L 130.322618 99.244898 
L 130.971927 98.6355 
L 131.621236 106.372542 
L 132.919855 86.683847 
L 133.569164 98.151796 
L 134.218473 97.817625 
L 134.867782 98.297899 
L 135.517091 77.229303 
L 136.1664 97.835137 
L 136.815709 100.200562 
L 137.465018 97.998838 
L 138.114327 96.998655 
L 138.763636 98.391731 
L 139.412945 97.15105 
L 140.062255 78.261271 
L 140.711564 97.595387 
L 141.360873 97.564417 
L 142.010182 98.235933 
L 142.659491 98.391731 
L 143.3088 97.835137 
L 143.958109 98.184174 
L 144.607418 98.094756 
L 145.256727 97.367704 
L 145.906036 97.156627 
L 146.555345 97.397428 
L 147.204655 96.711715 
L 147.853964 97.835137 
L 148.503273 97.500436 
L 149.152582 97.434871 
L 149.801891 97.747306 
L 150.4512 97.718584 
L 151.100509 97.083188 
L 151.749818 96.93212 
L 152.399127 97.008318 
L 153.048436 97.367704 
L 153.697745 97.132361 
L 154.347055 97.434871 
L 154.996364 97.397428 
L 155.645673 96.776288 
L 156.944291 97.327899 
L 157.5936 97.914369 
L 158.242909 97.256637 
L 158.892218 96.834006 
L 160.190836 96.93212 
L 160.840145 97.256637 
L 161.489455 96.877104 
L 162.138764 80.585596 
L 162.788073 97.298928 
L 163.437382 96.854723 
L 164.736 96.939917 
L 165.385309 80.949762 
L 166.034618 104.711989 
L 166.683927 97.29568 
L 167.333236 96.93212 
L 167.982545 97.222917 
L 168.631855 96.854723 
L 169.281164 80.767799 
L 169.930473 85.54158 
L 170.579782 96.840574 
L 171.229091 96.63542 
L 171.8784 97.035055 
L 172.527709 96.461193 
L 173.177018 99.022905 
L 173.826327 95.762568 
L 174.475636 106.466554 
L 175.124945 98.952352 
L 175.774255 96.776288 
L 176.423564 96.854723 
L 177.072873 97.244413 
L 177.722182 103.017656 
L 178.371491 96.461193 
L 179.0208 103.017656 
L 179.670109 97.806096 
L 180.319418 96.854723 
L 180.968727 94.544104 
L 181.618036 96.854723 
L 182.267345 102.191963 
L 182.916655 96.776288 
L 183.565964 96.908834 
L 184.215273 96.385902 
L 184.864582 163.911786 
L 185.513891 80.766558 
L 186.1632 105.581511 
L 186.812509 96.854723 
L 187.461818 103.857521 
L 188.111127 97.90036 
L 188.760436 156.380487 
L 189.409745 100.645594 
L 190.059055 97.734435 
L 190.708364 96.595392 
L 191.357673 96.518379 
L 192.006982 100.581459 
L 192.656291 103.857521 
L 193.3056 63.218515 
L 193.954909 89.396151 
L 194.604218 103.37177 
L 195.253527 103.017656 
L 195.902836 106.466554 
L 196.552145 67.666578 
L 197.201455 105.581511 
L 197.850764 97.410178 
L 198.500073 195.838795 
L 199.149382 101.380029 
L 199.798691 100.32059 
L 200.448 97.035055 
L 201.097309 104.685293 
L 201.746618 102.191963 
L 202.395927 103.105766 
L 203.045236 90.858064 
L 203.694545 84.195877 
L 204.343855 105.581511 
L 204.993164 106.466554 
L 205.642473 94.754925 
L 206.291782 104.711989 
L 206.941091 103.985337 
L 207.5904 106.466554 
L 208.239709 95.849007 
L 208.889018 107.367612 
L 209.538327 97.653237 
L 210.187636 107.367612 
L 210.836945 106.961975 
L 211.486255 105.645105 
L 212.135564 100.449466 
L 212.784873 107.367612 
L 213.434182 101.291188 
L 214.083491 105.581511 
L 214.7328 107.367612 
L 215.382109 104.711989 
L 216.031418 96.573465 
L 216.680727 99.235311 
L 217.330036 107.367612 
L 217.979345 106.82825 
L 218.628655 107.187592 
L 219.277964 105.581511 
L 219.927273 86.475288 
L 220.576582 174.444019 
L 221.225891 104.763401 
L 221.8752 105.645105 
L 222.524509 107.506567 
L 223.173818 102.713991 
L 223.823127 107.367612 
L 224.472436 106.530025 
L 225.121745 107.367612 
L 225.771055 105.72095 
L 226.420364 107.367612 
L 227.069673 101.706618 
L 227.718982 108.2053 
L 228.368291 104.188292 
L 229.0176 108.285195 
L 229.666909 133.612898 
L 230.316218 80.949762 
L 230.965527 103.535176 
L 231.614836 100.888579 
L 232.264145 103.857521 
L 232.913455 104.387544 
L 233.562764 107.367612 
L 234.212073 96.888801 
L 234.861382 103.857521 
L 235.510691 106.28693 
L 236.16 95.897099 
L 236.809309 81.453319 
L 237.458618 106.466554 
L 238.107927 105.941349 
L 238.757236 104.132766 
L 239.406545 104.711989 
L 240.055855 103.081565 
L 240.705164 106.019591 
L 241.354473 103.022789 
L 242.003782 105.971529 
L 242.653091 105.125763 
L 243.3024 106.631849 
L 243.951709 106.019591 
L 244.601018 107.584571 
L 245.250327 108.285195 
L 245.899636 102.682543 
L 246.548945 98.658819 
L 247.198255 97.796814 
L 247.847564 103.921335 
L 248.496873 105.531072 
L 249.146182 104.222228 
L 249.795491 106.158407 
L 250.4448 102.505789 
L 251.094109 105.581511 
L 251.743418 112.400624 
L 252.392727 106.28693 
L 253.042036 104.638423 
L 253.691345 94.031598 
L 254.340655 107.367612 
L 254.989964 93.264329 
L 255.639273 173.338365 
L 256.288582 106.930026 
L 257.5872 107.367612 
L 258.236509 105.632918 
L 258.885818 107.187592 
L 259.535127 110.418473 
L 260.833745 92.791311 
L 261.483055 89.374955 
L 262.132364 106.870002 
L 262.781673 105.581511 
L 263.430982 103.904395 
L 264.080291 106.019591 
L 264.7296 96.754021 
L 265.378909 93.987842 
L 266.028218 107.367612 
L 266.677527 92.015884 
L 267.326836 108.336543 
L 267.976145 109.271155 
L 268.625455 108.285195 
L 269.274764 106.019591 
L 269.924073 106.019591 
L 270.573382 100.482424 
L 271.222691 108.285195 
L 271.872 105.573998 
L 272.521309 106.466554 
L 273.170618 106.466554 
L 274.469236 110.184876 
L 275.118545 98.672208 
L 275.767855 108.885136 
L 276.417164 115.694262 
L 277.066473 68.289303 
L 277.715782 107.952509 
L 278.365091 111.144641 
L 279.0144 107.367612 
L 279.663709 107.367612 
L 280.313018 105.467002 
L 280.962327 120.770098 
L 281.611636 184.819396 
L 282.910255 103.103962 
L 283.559564 115.556483 
L 284.208873 93.252412 
L 284.858182 107.187592 
L 285.507491 97.620093 
L 286.1568 107.367612 
L 286.806109 74.050366 
L 287.455418 87.494457 
L 288.104727 105.581511 
L 288.754036 118.230661 
L 289.403345 105.769758 
L 290.052655 196.810599 
L 290.701964 175.428109 
L 291.351273 166.426782 
L 292.000582 107.457449 
L 292.649891 126.320343 
L 293.2992 209.665337 
L 293.948509 107.187592 
L 294.597818 289.588903 
L 295.247127 107.367612 
L 295.896436 107.367612 
L 296.545745 65.125078 
L 297.195055 112.914348 
L 297.844364 208.259133 
L 298.493673 185.169174 
L 299.142982 191.389121 
L 299.792291 107.176816 
L 300.4416 118.786349 
L 301.090909 103.396333 
L 301.740218 186.349195 
L 302.389527 96.833532 
L 303.038836 108.285195 
L 303.688145 109.211234 
L 304.337455 176.542341 
L 304.986764 173.769317 
L 305.636073 105.359691 
L 306.285382 203.758434 
L 306.934691 194.862482 
L 307.584 103.913135 
L 308.233309 97.279638 
L 308.882618 107.367612 
L 309.531927 106.556227 
L 310.181236 108.285195 
L 310.830545 96.526919 
L 311.479855 108.233149 
L 312.129164 108.285195 
L 312.778473 98.404519 
L 313.427782 107.367612 
L 314.077091 138.805133 
L 314.7264 103.644368 
L 315.375709 108.234627 
L 316.025018 107.367612 
L 316.674327 108.285195 
L 317.323636 184.106879 
L 317.972945 99.177625 
L 318.622255 102.100958 
L 319.271564 100.240127 
L 319.920873 96.8998 
L 320.570182 108.8561 
L 321.219491 101.866319 
L 321.8688 178.840892 
L 322.518109 103.022518 
L 323.167418 89.191658 
L 323.816727 108.285195 
L 324.466036 108.730483 
L 325.115345 106.089769 
L 325.764655 104.577639 
L 326.413964 107.367612 
L 327.063273 107.367612 
L 327.712582 108.643469 
L 328.361891 104.373542 
L 329.0112 124.006216 
L 329.660509 109.552224 
L 330.309818 107.367612 
L 330.959127 180.256239 
L 331.608436 108.285195 
L 332.257745 185.15792 
L 332.907055 92.741537 
L 333.556364 107.367612 
L 333.556364 107.367612 
" clip-path="url(#paf9223f86a)" style="fill: none; stroke: #9467bd; stroke-width: 1.5; stroke-linecap: square"/>
   </g>
   <g id="line2d_18">
    <path d="M 73.832727 101.702519 
L 74.482036 98.606797 
L 75.131345 81.566549 
L 75.780655 104.949489 
L 76.429964 106.581787 
L 77.079273 79.278432 
L 77.728582 105.362243 
L 78.377891 93.263129 
L 79.0272 101.814982 
L 79.676509 90.701708 
L 80.325818 94.110438 
L 80.975127 86.830892 
L 81.624436 90.102376 
L 82.273745 92.383684 
L 82.923055 101.597315 
L 83.572364 93.098143 
L 84.221673 102.613736 
L 84.870982 295.488 
L 85.520291 92.526596 
L 86.1696 93.737288 
L 86.818909 92.953907 
L 87.468218 92.395377 
L 88.117527 92.993014 
L 88.766836 94.39876 
L 89.416145 101.989786 
L 90.065455 82.205734 
L 90.714764 93.231244 
L 91.364073 101.505647 
L 92.013382 93.525985 
L 92.662691 93.616359 
L 93.312 94.645612 
L 93.961309 93.398429 
L 94.610618 94.124019 
L 95.259927 93.953077 
L 95.909236 103.151091 
L 96.558545 93.826792 
L 97.207855 93.178737 
L 97.857164 94.37506 
L 98.506473 94.771747 
L 99.155782 132.816399 
L 99.805091 95.571759 
L 100.4544 93.9336 
L 101.753018 94.169365 
L 103.051636 94.126609 
L 103.700945 95.466555 
L 104.350255 94.918054 
L 104.999564 94.885571 
L 105.648873 95.494886 
L 106.298182 94.133894 
L 106.947491 94.156823 
L 107.5968 96.374954 
L 108.246109 96.131471 
L 108.895418 95.425821 
L 109.544727 85.046806 
L 110.194036 95.986001 
L 110.843345 75.053268 
L 111.492655 97.01122 
L 112.141964 95.50462 
L 112.791273 98.201036 
L 113.440582 96.714142 
L 114.089891 96.461803 
L 114.7392 97.042754 
L 115.388509 96.474491 
L 116.037818 97.07538 
L 116.687127 102.399175 
L 117.336436 96.592165 
L 117.985745 101.256995 
L 118.635055 96.675967 
L 119.284364 95.466608 
L 119.933673 97.811936 
L 120.582982 99.3996 
L 121.232291 96.357378 
L 121.8816 96.759594 
L 122.530909 151.038526 
L 123.180218 104.636234 
L 123.829527 72.9609 
L 124.478836 75.422287 
L 125.128145 97.074155 
L 125.777455 96.282705 
L 126.426764 97.747306 
L 127.076073 98.751137 
L 127.725382 97.329099 
L 128.374691 98.59552 
L 129.024 97.771091 
L 129.673309 185.832695 
L 130.322618 99.244898 
L 130.971927 98.6355 
L 131.621236 106.372542 
L 132.919855 86.683847 
L 133.569164 98.151796 
L 134.218473 97.817625 
L 134.867782 98.297899 
L 135.517091 77.229303 
L 136.1664 97.835137 
L 136.815709 100.200562 
L 137.465018 97.998838 
L 138.114327 96.998655 
L 138.763636 98.391731 
L 139.412945 97.15105 
L 140.062255 78.261271 
L 140.711564 97.595387 
L 141.360873 97.564417 
L 142.010182 98.235933 
L 142.659491 98.391731 
L 143.3088 97.835137 
L 143.958109 98.184174 
L 144.607418 98.094756 
L 145.256727 97.367704 
L 145.906036 97.156627 
L 146.555345 97.397428 
L 147.204655 96.711715 
L 147.853964 97.835137 
L 148.503273 97.500436 
L 149.152582 97.434871 
L 149.801891 97.747306 
L 150.4512 97.718584 
L 151.100509 97.083188 
L 151.749818 96.93212 
L 152.399127 97.008318 
L 153.048436 97.367704 
L 153.697745 97.132361 
L 154.347055 97.434871 
L 154.996364 97.397428 
L 155.645673 96.776288 
L 156.944291 97.327899 
L 157.5936 97.914369 
L 158.242909 97.256637 
L 158.892218 96.834006 
L 160.190836 96.93212 
L 160.840145 97.256637 
L 161.489455 96.877104 
L 162.138764 80.585596 
L 162.788073 97.298928 
L 163.437382 96.854723 
L 164.736 96.939917 
L 165.385309 80.949762 
L 166.034618 104.711989 
L 166.683927 97.29568 
L 167.333236 96.93212 
L 167.982545 97.222917 
L 168.631855 96.854723 
L 169.281164 80.767799 
L 169.930473 85.54158 
L 170.579782 96.840574 
L 171.229091 96.63542 
L 171.8784 97.035055 
L 172.527709 96.461193 
L 173.177018 99.022905 
L 173.826327 95.762568 
L 174.475636 106.466554 
L 175.124945 98.952352 
L 175.774255 96.776288 
L 176.423564 96.854723 
L 177.072873 97.244413 
L 177.722182 103.017656 
L 178.371491 96.461193 
L 179.0208 103.017656 
L 179.670109 97.806096 
L 180.319418 96.854723 
L 180.968727 94.544104 
L 181.618036 96.854723 
L 182.267345 102.191963 
L 182.916655 96.776288 
L 183.565964 96.908834 
L 184.215273 96.385902 
L 184.864582 163.911786 
L 185.513891 80.766558 
L 186.1632 105.581511 
L 186.812509 96.854723 
L 187.461818 103.857521 
L 188.111127 97.90036 
L 188.760436 156.380487 
L 189.409745 100.645594 
L 190.059055 97.734435 
L 190.708364 96.595392 
L 191.357673 96.518379 
L 192.006982 100.581459 
L 192.656291 103.857521 
L 193.3056 63.218515 
L 193.954909 89.396151 
L 194.604218 103.37177 
L 195.253527 103.017656 
L 195.902836 106.466554 
L 196.552145 67.666578 
L 197.201455 105.581511 
L 197.850764 97.410178 
L 198.500073 195.838795 
L 199.149382 101.380029 
L 199.798691 100.32059 
L 200.448 97.035055 
L 201.097309 104.685293 
L 201.746618 102.191963 
L 202.395927 103.105766 
L 203.045236 90.858064 
L 203.694545 84.195877 
L 204.343855 105.581511 
L 204.993164 106.466554 
L 205.642473 94.754925 
L 206.291782 104.711989 
L 206.941091 103.985337 
L 207.5904 106.466554 
L 208.239709 95.849007 
L 208.889018 107.367612 
L 209.538327 97.653237 
L 210.187636 107.367612 
L 210.836945 106.961975 
L 211.486255 105.645105 
L 212.135564 100.449466 
L 212.784873 107.367612 
L 213.434182 101.291188 
L 214.083491 105.581511 
L 214.7328 107.367612 
L 215.382109 104.711989 
L 216.031418 96.573465 
L 216.680727 99.235311 
L 217.330036 107.367612 
L 217.979345 106.82825 
L 218.628655 107.187592 
L 219.277964 105.581511 
L 219.927273 86.475288 
L 220.576582 174.444019 
L 221.225891 104.763401 
L 221.8752 105.645105 
L 222.524509 107.506567 
L 223.173818 102.713991 
L 223.823127 107.367612 
L 224.472436 106.530025 
L 225.121745 107.367612 
L 225.771055 105.72095 
L 226.420364 107.367612 
L 227.069673 101.706618 
L 227.718982 108.2053 
L 228.368291 104.188292 
L 229.0176 108.285195 
L 229.666909 133.612898 
L 230.316218 80.949762 
L 230.965527 103.535176 
L 231.614836 100.888579 
L 232.264145 103.857521 
L 232.913455 104.387544 
L 233.562764 107.367612 
L 234.212073 96.888801 
L 234.861382 103.857521 
L 235.510691 106.28693 
L 236.16 95.897099 
L 236.809309 81.453319 
L 237.458618 106.466554 
L 238.107927 105.941349 
L 238.757236 104.132766 
L 239.406545 104.711989 
L 240.055855 103.081565 
L 240.705164 106.019591 
L 241.354473 103.022789 
L 242.003782 105.971529 
L 242.653091 105.125763 
L 243.3024 106.631849 
L 243.951709 106.019591 
L 244.601018 107.584571 
L 245.250327 108.285195 
L 245.899636 102.682543 
L 246.548945 98.658819 
L 247.198255 97.796814 
L 247.847564 103.921335 
L 248.496873 105.531072 
L 249.146182 104.222228 
L 249.795491 106.158407 
L 250.4448 102.505789 
L 251.094109 105.581511 
L 251.743418 112.400624 
L 252.392727 106.28693 
L 253.042036 104.638423 
L 253.691345 94.031598 
L 254.340655 107.367612 
L 254.989964 93.264329 
L 255.639273 173.338365 
L 256.288582 106.930026 
L 257.5872 107.367612 
L 258.236509 105.632918 
L 258.885818 107.187592 
L 259.535127 110.418473 
L 260.833745 92.791311 
L 261.483055 89.374955 
L 262.132364 106.870002 
L 262.781673 105.581511 
L 263.430982 103.904395 
L 264.080291 106.019591 
L 264.7296 96.754021 
L 265.378909 93.987842 
L 266.028218 107.367612 
L 266.677527 92.015884 
L 267.326836 108.336543 
L 267.976145 109.271155 
L 268.625455 108.285195 
L 269.274764 106.019591 
L 269.924073 106.019591 
L 270.573382 100.482424 
L 271.222691 108.285195 
L 271.872 105.573998 
L 272.521309 106.466554 
L 273.170618 106.466554 
L 274.469236 110.184876 
L 275.118545 98.672208 
L 275.767855 108.885136 
L 276.417164 115.694262 
L 277.066473 68.289303 
L 277.715782 107.952509 
L 278.365091 111.144641 
L 279.0144 107.367612 
L 279.663709 107.367612 
L 280.313018 105.467002 
L 280.962327 120.770098 
L 281.611636 184.819396 
L 282.910255 103.103962 
L 283.559564 115.556483 
L 284.208873 93.252412 
L 284.858182 107.187592 
L 285.507491 97.620093 
L 286.1568 107.367612 
L 286.806109 74.050366 
L 287.455418 87.494457 
L 288.104727 105.581511 
L 288.754036 118.230661 
L 289.403345 105.769758 
L 290.052655 196.810599 
L 290.701964 175.428109 
L 291.351273 166.426782 
L 292.000582 107.457449 
L 292.649891 126.320343 
L 293.2992 209.665337 
L 293.948509 107.187592 
L 294.597818 289.588903 
L 295.247127 107.367612 
L 295.896436 107.367612 
L 296.545745 65.125078 
L 297.195055 112.914348 
L 297.844364 208.259133 
L 298.493673 185.169174 
L 299.142982 191.389121 
L 299.792291 107.176816 
L 300.4416 118.786349 
L 301.090909 103.396333 
L 301.740218 186.349195 
L 302.389527 96.833532 
L 303.038836 108.285195 
L 303.688145 109.211234 
L 304.337455 176.542341 
L 304.986764 173.769317 
L 305.636073 105.359691 
L 306.285382 203.758434 
L 306.934691 194.862482 
L 307.584 103.913135 
L 308.233309 97.279638 
L 308.882618 107.367612 
L 309.531927 106.556227 
L 310.181236 108.285195 
L 310.830545 96.526919 
L 311.479855 108.233149 
L 312.129164 108.285195 
L 312.778473 98.404519 
L 313.427782 107.367612 
L 314.077091 138.805133 
L 314.7264 103.644368 
L 315.375709 108.234627 
L 316.025018 107.367612 
L 316.674327 108.285195 
L 317.323636 184.106879 
L 317.972945 99.177625 
L 318.622255 102.100958 
L 319.271564 100.240127 
L 319.920873 96.8998 
L 320.570182 108.8561 
L 321.219491 101.866319 
L 321.8688 178.840892 
L 322.518109 103.022518 
L 323.167418 89.191658 
L 323.816727 108.285195 
L 324.466036 108.730483 
L 325.115345 106.089769 
L 325.764655 104.577639 
L 326.413964 107.367612 
L 327.063273 107.367612 
L 327.712582 108.643469 
L 328.361891 104.373542 
L 329.0112 124.006216 
L 329.660509 109.552224 
L 330.309818 107.367612 
L 330.959127 180.256239 
L 331.608436 108.285195 
L 332.257745 185.15792 
L 332.907055 92.741537 
L 333.556364 107.367612 
L 334.854982 107.367612 
L 335.504291 180.543585 
L 336.1536 107.367612 
L 336.802909 120.637962 
L 337.452218 107.367612 
L 338.101527 107.787109 
L 338.750836 58.100949 
L 339.400145 109.708518 
L 340.049455 126.419345 
L 340.698764 107.367612 
L 341.348073 107.367612 
L 341.997382 98.712466 
L 342.646691 108.285195 
L 343.296 104.003244 
L 343.945309 108.285195 
L 344.594618 107.367612 
L 345.243927 107.367612 
L 345.893236 53.568 
L 346.542545 107.367612 
L 347.191855 107.676395 
L 347.841164 109.316052 
L 348.490473 107.367612 
L 349.139782 111.142603 
L 349.789091 97.976708 
L 350.4384 107.367612 
L 351.087709 107.367612 
L 351.737018 97.82547 
L 352.386327 98.203478 
L 353.035636 107.367612 
L 353.684945 125.201471 
L 354.334255 109.219843 
L 354.983564 184.255593 
L 355.632873 108.285195 
L 356.282182 113.40006 
L 356.931491 65.027228 
L 357.5808 185.10287 
L 358.230109 79.915997 
L 359.528727 129.512731 
L 360.178036 107.367612 
L 360.827345 106.426266 
L 361.476655 167.647035 
L 362.125964 108.37519 
L 362.775273 185.10287 
L 363.424582 105.659491 
L 364.073891 119.544888 
L 364.7232 108.511555 
L 365.372509 108.749741 
L 366.021818 108.37519 
L 366.671127 107.367612 
L 367.320436 108.336543 
L 367.969745 107.316296 
L 368.619055 107.367612 
L 369.268364 106.023512 
L 370.566982 117.225516 
L 371.216291 62.636606 
L 371.8656 108.285195 
L 372.514909 102.780991 
L 373.164218 107.367612 
L 373.813527 107.367612 
L 374.462836 106.418082 
L 375.112145 107.753288 
L 375.761455 107.367612 
L 376.410764 108.285195 
L 377.060073 96.586027 
L 377.709382 107.367612 
L 378.358691 107.367612 
L 379.008 111.142603 
L 379.657309 110.172116 
L 380.306618 107.367612 
L 380.955927 103.913135 
L 382.254545 103.913135 
L 382.903855 180.256239 
L 383.553164 108.37519 
L 384.202473 180.543585 
L 384.851782 115.878764 
L 385.501091 187.871633 
L 386.1504 108.109489 
L 386.799709 107.676395 
L 387.449018 56.910451 
L 388.098327 60.829112 
L 388.747636 107.367612 
L 389.396945 103.022518 
L 390.046255 109.309985 
L 390.695564 109.219843 
L 391.344873 106.426266 
L 391.994182 103.022518 
L 392.643491 107.367612 
L 393.2928 177.673136 
L 393.942109 107.367612 
L 394.591418 112.131922 
L 395.240727 94.652559 
L 395.890036 108.730483 
L 396.539345 107.367612 
L 397.188655 161.250977 
L 397.837964 128.100427 
L 398.487273 120.691117 
L 398.487273 120.691117 
" clip-path="url(#paf9223f86a)" style="fill: none; stroke: #8c564b; stroke-width: 1.5; stroke-linecap: square"/>
   </g>
   <g id="patch_3">
    <path d="M 57.6 307.584 
L 57.6 41.472 
" style="fill: none; stroke: #000000; stroke-width: 0.8; stroke-linejoin: miter; stroke-linecap: square"/>
   </g>
   <g id="patch_4">
    <path d="M 414.72 307.584 
L 414.72 41.472 
" style="fill: none; stroke: #000000; stroke-width: 0.8; stroke-linejoin: miter; stroke-linecap: square"/>
   </g>
   <g id="patch_5">
    <path d="M 57.6 307.584 
L 414.72 307.584 
" style="fill: none; stroke: #000000; stroke-width: 0.8; stroke-linejoin: miter; stroke-linecap: square"/>
   </g>
   <g id="patch_6">
    <path d="M 57.6 41.472 
L 414.72 41.472 
" style="fill: none; stroke: #000000; stroke-width: 0.8; stroke-linejoin: miter; stroke-linecap: square"/>
   </g>
  </g>
 </g>
 <defs>
  <clipPath id="paf9223f86a">
   <rect x="57.6" y="41.472" width="357.12" height="266.112"/>
  </clipPath>
 </defs>
</svg>
