<?xml version="1.0" encoding="utf-8" standalone="no"?>
<!DOCTYPE svg PUBLIC "-//W3C//DTD SVG 1.1//EN"
  "http://www.w3.org/Graphics/SVG/1.1/DTD/svg11.dtd">
<svg xmlns:xlink="http://www.w3.org/1999/xlink" width="460.8pt" height="345.6pt" viewBox="0 0 460.8 345.6" xmlns="http://www.w3.org/2000/svg" version="1.1">
 <metadata>
  <rdf:RDF xmlns:dc="http://purl.org/dc/elements/1.1/" xmlns:cc="http://creativecommons.org/ns#" xmlns:rdf="http://www.w3.org/1999/02/22-rdf-syntax-ns#">
   <cc:Work>
    <dc:type rdf:resource="http://purl.org/dc/dcmitype/StillImage"/>
    <dc:date>2024-04-28T11:39:24.173953</dc:date>
    <dc:format>image/svg+xml</dc:format>
    <dc:creator>
     <cc:Agent>
      <dc:title>Matplotlib v3.8.2, https://matplotlib.org/</dc:title>
     </cc:Agent>
    </dc:creator>
   </cc:Work>
  </rdf:RDF>
 </metadata>
 <defs>
  <style type="text/css">*{stroke-linejoin: round; stroke-linecap: butt}</style>
 </defs>
 <g id="figure_1">
  <g id="patch_1">
   <path d="M 0 345.6 
L 460.8 345.6 
L 460.8 0 
L 0 0 
z
" style="fill: #ffffff"/>
  </g>
  <g id="axes_1">
   <g id="patch_2">
    <path d="M 57.6 307.584 
L 414.72 307.584 
L 414.72 41.472 
L 57.6 41.472 
z
" style="fill: #ffffff"/>
   </g>
   <g id="matplotlib.axis_1">
    <g id="xtick_1">
     <g id="line2d_1">
      <defs>
       <path id="m603a4db424" d="M 0 0 
L 0 3.5 
" style="stroke: #000000; stroke-width: 0.8"/>
      </defs>
      <g>
       <use xlink:href="#m603a4db424" x="73.832727" y="307.584" style="stroke: #000000; stroke-width: 0.8"/>
      </g>
     </g>
     <g id="text_1">
      <!-- 0 -->
      <g transform="translate(70.651477 322.182437) scale(0.1 -0.1)">
       <defs>
        <path id="DejaVuSans-30" d="M 2034 4250 
Q 1547 4250 1301 3770 
Q 1056 3291 1056 2328 
Q 1056 1369 1301 889 
Q 1547 409 2034 409 
Q 2525 409 2770 889 
Q 3016 1369 3016 2328 
Q 3016 3291 2770 3770 
Q 2525 4250 2034 4250 
z
M 2034 4750 
Q 2819 4750 3233 4129 
Q 3647 3509 3647 2328 
Q 3647 1150 3233 529 
Q 2819 -91 2034 -91 
Q 1250 -91 836 529 
Q 422 1150 422 2328 
Q 422 3509 836 4129 
Q 1250 4750 2034 4750 
z
" transform="scale(0.015625)"/>
       </defs>
       <use xlink:href="#DejaVuSans-30"/>
      </g>
     </g>
    </g>
    <g id="xtick_2">
     <g id="line2d_2">
      <g>
       <use xlink:href="#m603a4db424" x="114.414545" y="307.584" style="stroke: #000000; stroke-width: 0.8"/>
      </g>
     </g>
     <g id="text_2">
      <!-- 250 -->
      <g transform="translate(104.870795 322.182437) scale(0.1 -0.1)">
       <defs>
        <path id="DejaVuSans-32" d="M 1228 531 
L 3431 531 
L 3431 0 
L 469 0 
L 469 531 
Q 828 903 1448 1529 
Q 2069 2156 2228 2338 
Q 2531 2678 2651 2914 
Q 2772 3150 2772 3378 
Q 2772 3750 2511 3984 
Q 2250 4219 1831 4219 
Q 1534 4219 1204 4116 
Q 875 4013 500 3803 
L 500 4441 
Q 881 4594 1212 4672 
Q 1544 4750 1819 4750 
Q 2544 4750 2975 4387 
Q 3406 4025 3406 3419 
Q 3406 3131 3298 2873 
Q 3191 2616 2906 2266 
Q 2828 2175 2409 1742 
Q 1991 1309 1228 531 
z
" transform="scale(0.015625)"/>
        <path id="DejaVuSans-35" d="M 691 4666 
L 3169 4666 
L 3169 4134 
L 1269 4134 
L 1269 2991 
Q 1406 3038 1543 3061 
Q 1681 3084 1819 3084 
Q 2600 3084 3056 2656 
Q 3513 2228 3513 1497 
Q 3513 744 3044 326 
Q 2575 -91 1722 -91 
Q 1428 -91 1123 -41 
Q 819 9 494 109 
L 494 744 
Q 775 591 1075 516 
Q 1375 441 1709 441 
Q 2250 441 2565 725 
Q 2881 1009 2881 1497 
Q 2881 1984 2565 2268 
Q 2250 2553 1709 2553 
Q 1456 2553 1204 2497 
Q 953 2441 691 2322 
L 691 4666 
z
" transform="scale(0.015625)"/>
       </defs>
       <use xlink:href="#DejaVuSans-32"/>
       <use xlink:href="#DejaVuSans-35" x="63.623047"/>
       <use xlink:href="#DejaVuSans-30" x="127.246094"/>
      </g>
     </g>
    </g>
    <g id="xtick_3">
     <g id="line2d_3">
      <g>
       <use xlink:href="#m603a4db424" x="154.996364" y="307.584" style="stroke: #000000; stroke-width: 0.8"/>
      </g>
     </g>
     <g id="text_3">
      <!-- 500 -->
      <g transform="translate(145.452614 322.182437) scale(0.1 -0.1)">
       <use xlink:href="#DejaVuSans-35"/>
       <use xlink:href="#DejaVuSans-30" x="63.623047"/>
       <use xlink:href="#DejaVuSans-30" x="127.246094"/>
      </g>
     </g>
    </g>
    <g id="xtick_4">
     <g id="line2d_4">
      <g>
       <use xlink:href="#m603a4db424" x="195.578182" y="307.584" style="stroke: #000000; stroke-width: 0.8"/>
      </g>
     </g>
     <g id="text_4">
      <!-- 750 -->
      <g transform="translate(186.034432 322.182437) scale(0.1 -0.1)">
       <defs>
        <path id="DejaVuSans-37" d="M 525 4666 
L 3525 4666 
L 3525 4397 
L 1831 0 
L 1172 0 
L 2766 4134 
L 525 4134 
L 525 4666 
z
" transform="scale(0.015625)"/>
       </defs>
       <use xlink:href="#DejaVuSans-37"/>
       <use xlink:href="#DejaVuSans-35" x="63.623047"/>
       <use xlink:href="#DejaVuSans-30" x="127.246094"/>
      </g>
     </g>
    </g>
    <g id="xtick_5">
     <g id="line2d_5">
      <g>
       <use xlink:href="#m603a4db424" x="236.16" y="307.584" style="stroke: #000000; stroke-width: 0.8"/>
      </g>
     </g>
     <g id="text_5">
      <!-- 1000 -->
      <g transform="translate(223.435 322.182437) scale(0.1 -0.1)">
       <defs>
        <path id="DejaVuSans-31" d="M 794 531 
L 1825 531 
L 1825 4091 
L 703 3866 
L 703 4441 
L 1819 4666 
L 2450 4666 
L 2450 531 
L 3481 531 
L 3481 0 
L 794 0 
L 794 531 
z
" transform="scale(0.015625)"/>
       </defs>
       <use xlink:href="#DejaVuSans-31"/>
       <use xlink:href="#DejaVuSans-30" x="63.623047"/>
       <use xlink:href="#DejaVuSans-30" x="127.246094"/>
       <use xlink:href="#DejaVuSans-30" x="190.869141"/>
      </g>
     </g>
    </g>
    <g id="xtick_6">
     <g id="line2d_6">
      <g>
       <use xlink:href="#m603a4db424" x="276.741818" y="307.584" style="stroke: #000000; stroke-width: 0.8"/>
      </g>
     </g>
     <g id="text_6">
      <!-- 1250 -->
      <g transform="translate(264.016818 322.182437) scale(0.1 -0.1)">
       <use xlink:href="#DejaVuSans-31"/>
       <use xlink:href="#DejaVuSans-32" x="63.623047"/>
       <use xlink:href="#DejaVuSans-35" x="127.246094"/>
       <use xlink:href="#DejaVuSans-30" x="190.869141"/>
      </g>
     </g>
    </g>
    <g id="xtick_7">
     <g id="line2d_7">
      <g>
       <use xlink:href="#m603a4db424" x="317.323636" y="307.584" style="stroke: #000000; stroke-width: 0.8"/>
      </g>
     </g>
     <g id="text_7">
      <!-- 1500 -->
      <g transform="translate(304.598636 322.182437) scale(0.1 -0.1)">
       <use xlink:href="#DejaVuSans-31"/>
       <use xlink:href="#DejaVuSans-35" x="63.623047"/>
       <use xlink:href="#DejaVuSans-30" x="127.246094"/>
       <use xlink:href="#DejaVuSans-30" x="190.869141"/>
      </g>
     </g>
    </g>
    <g id="xtick_8">
     <g id="line2d_8">
      <g>
       <use xlink:href="#m603a4db424" x="357.905455" y="307.584" style="stroke: #000000; stroke-width: 0.8"/>
      </g>
     </g>
     <g id="text_8">
      <!-- 1750 -->
      <g transform="translate(345.180455 322.182437) scale(0.1 -0.1)">
       <use xlink:href="#DejaVuSans-31"/>
       <use xlink:href="#DejaVuSans-37" x="63.623047"/>
       <use xlink:href="#DejaVuSans-35" x="127.246094"/>
       <use xlink:href="#DejaVuSans-30" x="190.869141"/>
      </g>
     </g>
    </g>
    <g id="xtick_9">
     <g id="line2d_9">
      <g>
       <use xlink:href="#m603a4db424" x="398.487273" y="307.584" style="stroke: #000000; stroke-width: 0.8"/>
      </g>
     </g>
     <g id="text_9">
      <!-- 2000 -->
      <g transform="translate(385.762273 322.182437) scale(0.1 -0.1)">
       <use xlink:href="#DejaVuSans-32"/>
       <use xlink:href="#DejaVuSans-30" x="63.623047"/>
       <use xlink:href="#DejaVuSans-30" x="127.246094"/>
       <use xlink:href="#DejaVuSans-30" x="190.869141"/>
      </g>
     </g>
    </g>
   </g>
   <g id="matplotlib.axis_2">
    <g id="ytick_1">
     <g id="line2d_10">
      <defs>
       <path id="m5fb836d687" d="M 0 0 
L -3.5 0 
" style="stroke: #000000; stroke-width: 0.8"/>
      </defs>
      <g>
       <use xlink:href="#m5fb836d687" x="57.6" y="294.780215" style="stroke: #000000; stroke-width: 0.8"/>
      </g>
     </g>
     <g id="text_10">
      <!-- −40 -->
      <g transform="translate(29.495313 298.579434) scale(0.1 -0.1)">
       <defs>
        <path id="DejaVuSans-2212" d="M 678 2272 
L 4684 2272 
L 4684 1741 
L 678 1741 
L 678 2272 
z
" transform="scale(0.015625)"/>
        <path id="DejaVuSans-34" d="M 2419 4116 
L 825 1625 
L 2419 1625 
L 2419 4116 
z
M 2253 4666 
L 3047 4666 
L 3047 1625 
L 3713 1625 
L 3713 1100 
L 3047 1100 
L 3047 0 
L 2419 0 
L 2419 1100 
L 313 1100 
L 313 1709 
L 2253 4666 
z
" transform="scale(0.015625)"/>
       </defs>
       <use xlink:href="#DejaVuSans-2212"/>
       <use xlink:href="#DejaVuSans-34" x="83.789062"/>
       <use xlink:href="#DejaVuSans-30" x="147.412109"/>
      </g>
     </g>
    </g>
    <g id="ytick_2">
     <g id="line2d_11">
      <g>
       <use xlink:href="#m5fb836d687" x="57.6" y="264.944595" style="stroke: #000000; stroke-width: 0.8"/>
      </g>
     </g>
     <g id="text_11">
      <!-- −35 -->
      <g transform="translate(29.495313 268.743813) scale(0.1 -0.1)">
       <defs>
        <path id="DejaVuSans-33" d="M 2597 2516 
Q 3050 2419 3304 2112 
Q 3559 1806 3559 1356 
Q 3559 666 3084 287 
Q 2609 -91 1734 -91 
Q 1441 -91 1130 -33 
Q 819 25 488 141 
L 488 750 
Q 750 597 1062 519 
Q 1375 441 1716 441 
Q 2309 441 2620 675 
Q 2931 909 2931 1356 
Q 2931 1769 2642 2001 
Q 2353 2234 1838 2234 
L 1294 2234 
L 1294 2753 
L 1863 2753 
Q 2328 2753 2575 2939 
Q 2822 3125 2822 3475 
Q 2822 3834 2567 4026 
Q 2313 4219 1838 4219 
Q 1578 4219 1281 4162 
Q 984 4106 628 3988 
L 628 4550 
Q 988 4650 1302 4700 
Q 1616 4750 1894 4750 
Q 2613 4750 3031 4423 
Q 3450 4097 3450 3541 
Q 3450 3153 3228 2886 
Q 3006 2619 2597 2516 
z
" transform="scale(0.015625)"/>
       </defs>
       <use xlink:href="#DejaVuSans-2212"/>
       <use xlink:href="#DejaVuSans-33" x="83.789062"/>
       <use xlink:href="#DejaVuSans-35" x="147.412109"/>
      </g>
     </g>
    </g>
    <g id="ytick_3">
     <g id="line2d_12">
      <g>
       <use xlink:href="#m5fb836d687" x="57.6" y="235.108974" style="stroke: #000000; stroke-width: 0.8"/>
      </g>
     </g>
     <g id="text_12">
      <!-- −30 -->
      <g transform="translate(29.495313 238.908193) scale(0.1 -0.1)">
       <use xlink:href="#DejaVuSans-2212"/>
       <use xlink:href="#DejaVuSans-33" x="83.789062"/>
       <use xlink:href="#DejaVuSans-30" x="147.412109"/>
      </g>
     </g>
    </g>
    <g id="ytick_4">
     <g id="line2d_13">
      <g>
       <use xlink:href="#m5fb836d687" x="57.6" y="205.273354" style="stroke: #000000; stroke-width: 0.8"/>
      </g>
     </g>
     <g id="text_13">
      <!-- −25 -->
      <g transform="translate(29.495313 209.072573) scale(0.1 -0.1)">
       <use xlink:href="#DejaVuSans-2212"/>
       <use xlink:href="#DejaVuSans-32" x="83.789062"/>
       <use xlink:href="#DejaVuSans-35" x="147.412109"/>
      </g>
     </g>
    </g>
    <g id="ytick_5">
     <g id="line2d_14">
      <g>
       <use xlink:href="#m5fb836d687" x="57.6" y="175.437734" style="stroke: #000000; stroke-width: 0.8"/>
      </g>
     </g>
     <g id="text_14">
      <!-- −20 -->
      <g transform="translate(29.495313 179.236952) scale(0.1 -0.1)">
       <use xlink:href="#DejaVuSans-2212"/>
       <use xlink:href="#DejaVuSans-32" x="83.789062"/>
       <use xlink:href="#DejaVuSans-30" x="147.412109"/>
      </g>
     </g>
    </g>
    <g id="ytick_6">
     <g id="line2d_15">
      <g>
       <use xlink:href="#m5fb836d687" x="57.6" y="145.602113" style="stroke: #000000; stroke-width: 0.8"/>
      </g>
     </g>
     <g id="text_15">
      <!-- −15 -->
      <g transform="translate(29.495313 149.401332) scale(0.1 -0.1)">
       <use xlink:href="#DejaVuSans-2212"/>
       <use xlink:href="#DejaVuSans-31" x="83.789062"/>
       <use xlink:href="#DejaVuSans-35" x="147.412109"/>
      </g>
     </g>
    </g>
    <g id="ytick_7">
     <g id="line2d_16">
      <g>
       <use xlink:href="#m5fb836d687" x="57.6" y="115.766493" style="stroke: #000000; stroke-width: 0.8"/>
      </g>
     </g>
     <g id="text_16">
      <!-- −10 -->
      <g transform="translate(29.495313 119.565712) scale(0.1 -0.1)">
       <use xlink:href="#DejaVuSans-2212"/>
       <use xlink:href="#DejaVuSans-31" x="83.789062"/>
       <use xlink:href="#DejaVuSans-30" x="147.412109"/>
      </g>
     </g>
    </g>
    <g id="ytick_8">
     <g id="line2d_17">
      <g>
       <use xlink:href="#m5fb836d687" x="57.6" y="85.930873" style="stroke: #000000; stroke-width: 0.8"/>
      </g>
     </g>
     <g id="text_17">
      <!-- −5 -->
      <g transform="translate(35.857813 89.730092) scale(0.1 -0.1)">
       <use xlink:href="#DejaVuSans-2212"/>
       <use xlink:href="#DejaVuSans-35" x="83.789062"/>
      </g>
     </g>
    </g>
    <g id="ytick_9">
     <g id="line2d_18">
      <g>
       <use xlink:href="#m5fb836d687" x="57.6" y="56.095253" style="stroke: #000000; stroke-width: 0.8"/>
      </g>
     </g>
     <g id="text_18">
      <!-- 0 -->
      <g transform="translate(44.2375 59.894471) scale(0.1 -0.1)">
       <use xlink:href="#DejaVuSans-30"/>
      </g>
     </g>
    </g>
   </g>
   <g id="line2d_19">
    <path d="M 73.832727 117.378824 
" clip-path="url(#p2af003a612)" style="fill: none; stroke: #1f77b4; stroke-width: 1.5; stroke-linecap: square"/>
   </g>
   <g id="line2d_20">
    <path d="M 73.832727 117.378824 
L 73.995055 56.095253 
L 74.319709 56.095253 
L 74.482036 60.685943 
L 74.644364 56.095253 
L 74.969018 56.095253 
L 75.131345 70.985068 
L 75.293673 116.192962 
L 75.618327 69.549372 
L 75.780655 56.095253 
L 75.942982 56.095253 
L 76.105309 108.311593 
L 76.267636 56.095253 
L 76.429964 56.095253 
L 76.592291 68.521879 
L 76.754618 56.095253 
L 76.916945 57.297344 
L 77.079273 106.743025 
L 77.2416 56.095253 
L 77.728582 56.095253 
L 77.890909 90.948901 
L 78.053236 56.095253 
L 78.540218 56.095253 
L 78.702545 101.115788 
L 78.864873 56.095253 
L 79.0272 70.607667 
L 79.351855 56.095253 
L 79.514182 86.587954 
L 79.676509 56.095253 
L 79.838836 56.095253 
L 80.001164 61.293591 
L 80.163491 56.095253 
L 80.325818 149.223841 
L 80.488145 56.095253 
L 80.650473 67.727414 
L 80.8128 70.636309 
L 80.975127 151.167668 
L 81.137455 56.439087 
L 81.462109 87.560836 
L 81.624436 120.832245 
L 81.786764 56.095253 
L 82.111418 56.095253 
L 82.273745 63.907042 
L 82.436073 56.095253 
L 82.760727 56.095253 
L 82.923055 111.88354 
L 83.085382 56.095253 
L 83.897018 56.095253 
L 84.059345 53.568 
L 84.221673 89.258005 
L 84.384 56.095253 
L 84.546327 56.095253 
L 84.870982 60.987937 
L 85.033309 56.929907 
L 85.195636 76.190965 
L 85.357964 56.095253 
L 85.682618 56.095253 
L 85.844945 56.591768 
L 86.007273 65.579094 
L 86.1696 56.095253 
L 86.656582 105.388543 
L 86.818909 63.35089 
L 86.981236 73.923101 
L 87.143564 56.095253 
L 87.305891 56.439087 
L 87.468218 56.095253 
L 87.630545 56.095253 
L 87.792873 60.492293 
L 87.9552 56.095253 
L 88.117527 63.35089 
L 88.279855 56.095253 
L 88.442182 64.764884 
L 88.604509 56.439087 
L 88.766836 69.549372 
L 89.091491 56.095253 
L 89.253818 57.616706 
L 89.416145 56.095253 
L 89.7408 56.095253 
L 89.903127 70.985068 
L 90.065455 56.095253 
L 90.227782 56.095253 
L 90.390109 60.637148 
L 90.552436 56.095253 
L 91.201745 56.095253 
L 91.364073 90.948901 
L 91.5264 56.095253 
L 92.338036 56.095253 
L 92.500364 131.886496 
L 92.662691 56.095253 
L 93.149673 56.095253 
L 93.312 60.431607 
L 93.474327 56.095253 
L 93.636655 70.595627 
L 93.961309 63.907042 
L 94.123636 56.095253 
L 94.935273 56.095253 
L 95.0976 62.301134 
L 95.259927 92.646326 
L 95.422255 56.095253 
L 95.584582 138.07142 
L 95.746909 56.095253 
L 95.909236 59.849012 
L 96.071564 56.095253 
L 96.558545 56.095253 
L 96.720873 65.37823 
L 96.8832 56.591767 
L 97.045527 56.095253 
L 97.207855 56.095253 
L 97.370182 78.972184 
L 97.532509 56.095253 
L 98.019491 56.095253 
L 98.181818 56.785736 
L 98.344145 56.095253 
L 98.506473 117.296668 
L 98.6688 64.723917 
L 98.831127 56.095253 
L 99.155782 68.319678 
L 99.318109 56.095253 
L 99.805091 56.095253 
L 99.967418 56.929907 
L 100.129745 77.886929 
L 100.292073 56.095253 
L 100.4544 56.095253 
L 100.616727 105.100764 
L 100.779055 79.210666 
L 100.941382 182.135451 
L 101.103709 56.095253 
L 101.266036 63.402403 
L 101.428364 56.095253 
L 101.590691 147.799869 
L 101.753018 72.670824 
L 101.915345 57.111326 
L 102.077673 56.095253 
L 102.24 56.095253 
L 102.402327 111.849782 
L 102.564655 56.095253 
L 102.889309 56.095253 
L 103.051636 56.785736 
L 103.213964 56.095253 
L 103.376291 56.095253 
L 103.538618 89.664201 
L 103.700945 56.095253 
L 103.863273 61.293591 
L 104.0256 88.674981 
L 104.187927 74.544651 
L 104.350255 70.985068 
L 104.512582 56.095253 
L 105.8112 56.095253 
L 105.973527 84.531926 
L 106.135855 56.095253 
L 106.298182 56.095253 
L 106.460509 109.748486 
L 106.622836 56.095253 
L 106.785164 61.293591 
L 106.947491 56.095253 
L 107.109818 113.311294 
L 107.272145 56.095253 
L 107.759127 56.095253 
L 107.921455 86.284849 
L 108.083782 91.253485 
L 108.246109 59.020832 
L 108.408436 56.095253 
L 108.733091 56.095253 
L 108.895418 61.293591 
L 109.057745 56.095253 
L 109.544727 56.095253 
L 109.707055 82.024846 
L 109.869382 56.095253 
L 110.194036 56.095253 
L 110.356364 81.35239 
L 110.518691 56.095253 
L 111.492655 56.095253 
L 111.654982 68.518742 
L 111.817309 56.095253 
L 112.9536 56.095253 
L 113.115927 98.257575 
L 113.278255 60.987937 
L 113.440582 65.140079 
L 113.602909 56.095253 
L 114.576873 56.095253 
L 114.7392 59.020832 
L 114.901527 56.095253 
L 115.388509 56.095253 
L 115.550836 61.293591 
L 115.713164 56.095253 
L 115.875491 73.628744 
L 116.037818 56.095253 
L 116.200145 79.01091 
L 116.362473 56.095253 
L 116.5248 88.372246 
L 116.687127 170.550274 
L 116.849455 56.095253 
L 117.011782 65.37823 
L 117.174109 111.238316 
L 117.336436 56.095253 
L 118.148073 56.095253 
L 118.3104 66.699383 
L 118.472727 92.783936 
L 118.635055 56.095253 
L 118.797382 56.095253 
L 118.959709 67.079555 
L 119.122036 56.095253 
L 119.446691 70.227076 
L 119.609018 107.979497 
L 119.771345 56.095253 
L 119.933673 56.439087 
L 120.096 95.004347 
L 120.420655 56.095253 
L 121.232291 56.095253 
L 121.394618 63.216094 
L 121.556945 56.095253 
L 121.719273 137.919184 
L 121.8816 56.095253 
L 122.368582 56.095253 
L 122.530909 56.929907 
L 122.693236 70.491245 
L 122.855564 56.095253 
L 123.017891 56.095253 
L 123.180218 56.439087 
L 123.342545 56.095253 
L 123.6672 140.254011 
L 123.829527 56.095253 
L 123.991855 56.095253 
L 124.154182 114.65407 
L 124.316509 56.095253 
L 124.478836 70.985068 
L 124.641164 56.095253 
L 124.803491 57.297344 
L 124.965818 56.095253 
L 125.290473 56.095253 
L 125.4528 60.637148 
L 125.615127 56.095253 
L 126.426764 56.095253 
L 126.589091 60.492293 
L 126.751418 56.095253 
L 126.913745 56.095253 
L 127.076073 56.929907 
L 127.2384 56.095253 
L 127.400727 53.632797 
L 127.725382 69.549372 
L 127.887709 89.801256 
L 128.050036 56.095253 
L 128.212364 88.454128 
L 128.537018 56.095253 
L 128.699345 56.095253 
L 128.861673 92.861504 
L 129.024 56.095253 
L 129.673309 56.095253 
L 129.835636 60.987937 
L 129.997964 107.325139 
L 130.322618 56.095253 
L 130.647273 56.095253 
L 130.8096 71.391817 
L 130.971927 56.095253 
L 131.134255 57.297344 
L 131.296582 103.775744 
L 131.458909 56.095253 
L 131.945891 56.095253 
L 132.108218 70.607667 
L 132.270545 58.662496 
L 132.432873 56.095253 
L 132.5952 61.293591 
L 132.757527 56.095253 
L 134.056145 56.095253 
L 134.218473 84.420007 
L 134.3808 56.095253 
L 135.192436 56.095253 
L 135.354764 65.347608 
L 135.517091 56.095253 
L 135.679418 64.481682 
L 135.841745 89.469472 
L 136.004073 54.058999 
L 136.1664 64.723917 
L 136.328727 56.095253 
L 136.491055 56.095253 
L 136.653382 56.591767 
L 136.815709 61.293591 
L 136.978036 89.801256 
L 137.140364 56.439087 
L 137.302691 56.095253 
L 137.465018 56.591767 
L 137.627345 56.095253 
L 137.952 56.095253 
L 138.114327 123.185749 
L 138.276655 60.431607 
L 138.438982 56.095253 
L 138.601309 60.492293 
L 138.763636 56.929907 
L 138.925964 60.987937 
L 139.088291 56.929907 
L 139.250618 56.095253 
L 139.575273 56.095253 
L 139.7376 84.606299 
L 139.899927 56.095253 
L 140.224582 56.095253 
L 140.386909 90.717802 
L 140.549236 56.095253 
L 140.873891 56.095253 
L 141.036218 60.987937 
L 141.198545 56.095253 
L 142.010182 56.095253 
L 142.334836 84.681483 
L 142.497164 56.095253 
L 142.659491 88.674981 
L 142.821818 224.303626 
L 142.984145 225.622113 
L 143.3088 56.095253 
L 143.471127 71.375092 
L 143.633455 123.674516 
L 143.795782 56.095253 
L 143.958109 56.591768 
L 144.120436 295.488 
L 144.282764 273.332196 
L 144.445091 56.095253 
L 144.607418 221.219571 
L 144.769745 66.624491 
L 144.932073 65.510305 
L 145.0944 65.826198 
L 145.256727 65.021128 
L 145.581382 56.929907 
L 145.906036 63.354178 
L 146.068364 56.095253 
L 146.230691 59.034776 
L 146.393018 58.639769 
L 146.555345 61.000528 
L 146.717673 56.791772 
L 146.88 56.755216 
L 147.042327 60.592835 
L 147.204655 57.124181 
L 147.529309 58.588344 
L 147.691636 56.755216 
L 148.016291 61.129698 
L 148.178618 56.755216 
L 148.503273 59.771196 
L 148.6656 59.832914 
L 148.827927 57.105465 
L 148.990255 57.46944 
L 149.152582 59.403693 
L 149.314909 59.952384 
L 149.639564 59.952384 
L 149.801891 59.066342 
L 149.964218 59.952384 
L 150.126545 56.41853 
L 150.288873 59.832914 
L 150.613527 59.952384 
L 150.775855 57.46944 
L 150.938182 59.952384 
L 151.100509 58.239293 
L 151.425164 59.952384 
L 151.587491 57.84732 
L 151.749818 59.952384 
L 151.912145 56.755216 
L 152.074473 59.952384 
L 152.399127 59.952384 
L 152.723782 58.213676 
L 152.886109 56.095253 
L 153.048436 59.952384 
L 153.210764 59.952384 
L 153.373091 57.105465 
L 153.535418 59.952384 
L 155.645673 59.952384 
L 155.808 56.755216 
L 155.970327 56.095253 
L 156.132655 59.952384 
L 158.729891 59.952384 
L 158.892218 58.239293 
L 159.054545 59.952384 
L 165.547636 59.952384 
L 165.709964 57.105465 
L 165.872291 59.952384 
L 166.196945 59.952384 
L 166.5216 56.095253 
L 166.683927 57.46944 
L 166.846255 57.46944 
L 167.170909 56.095253 
L 167.333236 58.239293 
L 167.495564 56.095253 
L 167.657891 59.952384 
L 167.820218 56.755216 
L 167.982545 56.755216 
L 168.144873 56.41853 
L 168.3072 59.066342 
L 168.469527 56.755216 
L 168.631855 56.095253 
L 168.794182 59.952384 
L 168.956509 56.755216 
L 169.118836 56.41853 
L 169.281164 59.952384 
L 169.605818 59.952384 
L 169.768145 57.46944 
L 169.930473 59.952384 
L 170.0928 59.952384 
L 170.255127 56.41853 
L 170.417455 57.46944 
L 170.579782 57.105465 
L 170.742109 59.952384 
L 170.904436 59.952384 
L 171.066764 58.239293 
L 171.229091 59.952384 
L 171.391418 56.095253 
L 171.553745 57.84732 
L 171.716073 57.105465 
L 171.8784 58.239293 
L 172.203055 57.46944 
L 172.365382 56.095253 
L 172.527709 56.755216 
L 172.690036 56.41853 
L 172.852364 56.755216 
L 173.014691 56.41853 
L 173.177018 59.952384 
L 173.339345 56.41853 
L 173.501673 59.952384 
L 173.664 56.095253 
L 173.826327 56.095253 
L 173.988655 59.952384 
L 174.313309 57.105465 
L 174.475636 56.41853 
L 174.637964 56.755216 
L 174.800291 56.095253 
L 174.962618 57.105465 
L 175.124945 59.952384 
L 175.287273 59.066342 
L 175.4496 56.755216 
L 175.611927 57.105465 
L 175.774255 57.84732 
L 175.936582 57.84732 
L 176.098909 58.239293 
L 176.261236 56.41853 
L 176.423564 56.095253 
L 176.585891 56.755216 
L 176.748218 56.41853 
L 176.910545 57.105465 
L 177.072873 56.755216 
L 177.397527 59.952384 
L 177.559855 56.41853 
L 177.722182 56.755216 
L 177.884509 59.501866 
L 178.046836 58.645561 
L 178.209164 59.952384 
L 178.371491 59.952384 
L 178.533818 56.095253 
L 178.858473 59.952384 
L 179.0208 57.105465 
L 179.183127 59.952384 
L 179.345455 57.46944 
L 179.507782 59.066342 
L 179.670109 59.501866 
L 179.832436 59.066342 
L 179.994764 56.41853 
L 180.157091 58.645561 
L 180.319418 57.84732 
L 180.481745 59.952384 
L 180.644073 56.41853 
L 180.8064 56.095253 
L 180.968727 58.645561 
L 181.131055 56.41853 
L 181.455709 56.41853 
L 181.618036 59.952384 
L 181.780364 59.952384 
L 181.942691 56.41853 
L 182.105018 59.952384 
L 182.267345 59.066342 
L 182.429673 59.952384 
L 182.592 57.105465 
L 182.754327 59.066342 
L 182.916655 56.755216 
L 183.078982 59.952384 
L 183.241309 58.645561 
L 183.403636 59.952384 
L 183.565964 56.41853 
L 183.728291 57.46944 
L 184.052945 56.755216 
L 184.215273 59.501866 
L 184.3776 57.46944 
L 184.539927 59.952384 
L 184.702255 56.755216 
L 184.864582 59.952384 
L 185.189236 59.952384 
L 185.351564 59.066342 
L 185.513891 59.952384 
L 185.838545 59.952384 
L 186.000873 57.105465 
L 186.1632 56.41853 
L 186.325527 59.952384 
L 186.812509 59.952384 
L 186.974836 57.84732 
L 187.137164 59.952384 
L 187.299491 56.755216 
L 187.461818 59.952384 
L 188.111127 59.952384 
L 188.273455 57.84732 
L 188.435782 59.952384 
L 188.760436 59.952384 
L 188.922764 58.645561 
L 189.085091 59.952384 
L 189.409745 59.952384 
L 189.572073 57.46944 
L 189.7344 59.952384 
L 189.896727 56.41853 
L 190.059055 59.952384 
L 190.221382 57.46944 
L 190.383709 56.755216 
L 190.546036 59.952384 
L 190.708364 59.952384 
L 190.870691 56.41853 
L 191.033018 59.952384 
L 191.195345 56.755216 
L 191.357673 59.952384 
L 192.331636 59.952384 
L 192.493964 66.649566 
L 192.656291 130.659981 
L 192.818618 66.390729 
L 192.980945 75.961452 
L 193.143273 63.561811 
L 193.3056 130.659981 
L 194.279564 130.659981 
L 194.441891 122.220902 
L 194.604218 130.659981 
L 194.928873 130.659981 
L 195.0912 88.086455 
L 195.253527 98.864948 
L 195.415855 130.659981 
L 195.578182 63.561811 
L 195.740509 73.534727 
L 195.902836 66.13554 
L 196.065164 71.72832 
L 196.227491 69.770728 
L 196.389818 75.117344 
L 196.552145 124.682089 
L 196.714473 68.002316 
L 196.8768 74.30936 
L 197.039127 68.572943 
L 197.201455 71.72832 
L 197.363782 81.988452 
L 197.526109 68.865103 
L 197.688436 130.659981 
L 197.850764 72.429931 
L 198.013091 66.912161 
L 198.175418 65.273103 
L 198.337745 66.390729 
L 198.500073 61.029641 
L 198.6624 90.572044 
L 198.824727 98.864948 
L 198.987055 75.117344 
L 199.149382 90.572044 
L 199.311709 62.713066 
L 199.474036 130.659981 
L 199.636364 71.052378 
L 199.798691 68.572943 
L 199.961018 79.767228 
L 200.285673 64.415175 
L 200.448 74.30936 
L 200.610327 72.429931 
L 200.772655 67.723578 
L 200.934982 88.884739 
L 201.097309 62.713066 
L 201.259636 130.659981 
L 201.584291 62.713066 
L 201.746618 81.988452 
L 201.908945 58.540391 
L 202.071273 93.360265 
L 202.2336 72.790953 
L 202.395927 68.865103 
L 202.558255 71.72832 
L 202.720582 62.713066 
L 202.882909 72.429931 
L 203.045236 130.659981 
L 203.207564 130.659981 
L 203.532218 58.540391 
L 203.856873 75.117344 
L 204.0192 59.365295 
L 204.181527 67.178619 
L 204.506182 70.400372 
L 204.668509 57.72039 
L 204.830836 93.360265 
L 204.993164 73.159128 
L 205.155491 117.174065 
L 205.317818 130.659981 
L 205.480145 70.723485 
L 205.642473 61.029641 
L 205.8048 130.659981 
L 205.967127 56.905331 
L 206.129455 119.508304 
L 206.291782 67.178619 
L 206.616436 83.83079 
L 206.778764 61.029641 
L 206.941091 74.709017 
L 207.103418 76.844791 
L 207.265745 130.659981 
L 207.428073 70.400372 
L 207.5904 130.659981 
L 207.752727 102.834165 
L 207.915055 130.659981 
L 208.077382 68.285393 
L 208.402036 85.852751 
L 208.564364 130.659981 
L 208.726691 66.390729 
L 208.889018 69.770728 
L 209.051345 92.393562 
L 209.213673 70.082847 
L 209.376 68.002316 
L 209.538327 67.723578 
L 209.700655 81.988452 
L 210.025309 68.865103 
L 210.187636 69.770728 
L 210.349964 57.72039 
L 210.512291 107.461942 
L 210.674618 64.415175 
L 210.836945 90.572044 
L 210.999273 61.029641 
L 211.1616 56.905331 
L 211.323927 130.659981 
L 211.648582 57.72039 
L 211.810909 66.13554 
L 211.973236 62.713066 
L 212.135564 74.30936 
L 212.297891 130.659981 
L 212.622545 61.868993 
L 212.9472 76.39801 
L 213.109527 130.659981 
L 213.271855 66.912161 
L 213.434182 130.659981 
L 213.596509 82.58432 
L 213.921164 70.723485 
L 214.083491 95.418575 
L 214.245818 85.852751 
L 214.408145 130.659981 
L 214.570473 61.029641 
L 214.895127 73.534727 
L 215.057455 130.659981 
L 215.219782 66.649566 
L 215.382109 62.713066 
L 215.706764 71.72832 
L 215.869091 66.13554 
L 216.193745 130.659981 
L 216.356073 65.273103 
L 216.5184 61.029641 
L 216.680727 71.052378 
L 216.843055 72.075801 
L 217.005382 56.905331 
L 217.167709 68.865103 
L 217.330036 68.285393 
L 217.492364 74.30936 
L 217.654691 56.905331 
L 217.817018 130.659981 
L 217.979345 67.178619 
L 218.466327 130.659981 
L 218.628655 56.095253 
L 218.790982 112.933582 
L 218.953309 130.659981 
L 219.115636 130.659981 
L 219.277964 66.649566 
L 219.440291 130.659981 
L 219.927273 130.659981 
L 220.0896 73.918037 
L 220.251927 114.987009 
L 220.414255 104.295639 
L 220.576582 65.273103 
L 220.738909 68.285393 
L 220.901236 59.365295 
L 221.063564 104.295639 
L 221.225891 59.365295 
L 221.388218 91.46495 
L 221.550545 79.248693 
L 221.712873 82.58432 
L 221.8752 122.005124 
L 222.037527 65.273103 
L 222.199855 68.002316 
L 222.362182 67.449052 
L 222.524509 88.086455 
L 222.849164 58.540391 
L 223.011491 66.390729 
L 223.173818 62.713066 
L 223.336145 74.30936 
L 223.498473 61.868993 
L 223.6608 130.659981 
L 223.985455 65.273103 
L 224.147782 130.659981 
L 224.310109 130.659981 
L 224.634764 61.029641 
L 224.797091 130.659981 
L 224.959418 130.659981 
L 225.121745 65.273103 
L 225.284073 130.659981 
L 225.4464 63.561811 
L 225.608727 68.285393 
L 225.771055 130.659981 
L 225.933382 69.162018 
L 226.095709 130.659981 
L 226.258036 83.198114 
L 226.420364 130.659981 
L 226.582691 130.659981 
L 226.907345 65.273103 
L 227.069673 130.659981 
L 227.232 66.13554 
L 227.394327 130.659981 
L 227.556655 68.865103 
L 227.718982 130.659981 
L 227.881309 69.770728 
L 228.043636 130.659981 
L 228.205964 130.659981 
L 228.368291 56.905331 
L 228.530618 130.659981 
L 228.692945 71.387253 
L 228.855273 89.712647 
L 229.0176 130.659981 
L 229.179927 95.418575 
L 229.342255 130.659981 
L 229.504582 83.83079 
L 229.666909 130.659981 
L 229.829236 87.316072 
L 229.991564 130.659981 
L 230.153891 70.723485 
L 230.316218 130.659981 
L 230.478545 130.659981 
L 230.640873 74.30936 
L 230.8032 83.83079 
L 230.965527 70.400372 
L 231.127855 130.659981 
L 231.290182 70.400372 
L 231.452509 65.273103 
L 231.614836 73.918037 
L 231.777164 70.082847 
L 231.939491 95.418575 
L 232.101818 70.723485 
L 232.264145 130.659981 
L 232.5888 79.767228 
L 232.751127 130.659981 
L 232.913455 69.46384 
L 233.075782 130.659981 
L 233.562764 130.659981 
L 233.725091 66.390729 
L 233.887418 130.659981 
L 234.049745 130.659981 
L 234.212073 57.72039 
L 234.3744 130.659981 
L 234.699055 130.659981 
L 234.861382 67.449052 
L 235.023709 130.659981 
L 235.348364 130.659981 
L 235.510691 56.905331 
L 235.673018 57.72039 
L 235.835345 67.723578 
L 235.997673 130.659981 
L 236.16 130.659981 
L 236.16 130.659981 
" clip-path="url(#p2af003a612)" style="fill: none; stroke: #ff7f0e; stroke-width: 1.5; stroke-linecap: square"/>
   </g>
   <g id="line2d_21">
    <path d="M 73.832727 117.378824 
L 73.995055 56.095253 
L 74.319709 56.095253 
L 74.482036 60.685943 
L 74.644364 56.095253 
L 74.969018 56.095253 
L 75.131345 70.985068 
L 75.293673 116.192962 
L 75.618327 69.549372 
L 75.780655 56.095253 
L 75.942982 56.095253 
L 76.105309 108.311593 
L 76.267636 56.095253 
L 76.429964 56.095253 
L 76.592291 68.521879 
L 76.754618 56.095253 
L 76.916945 57.297344 
L 77.079273 106.743025 
L 77.2416 56.095253 
L 77.728582 56.095253 
L 77.890909 90.948901 
L 78.053236 56.095253 
L 78.540218 56.095253 
L 78.702545 101.115788 
L 78.864873 56.095253 
L 79.0272 70.607667 
L 79.351855 56.095253 
L 79.514182 86.587954 
L 79.676509 56.095253 
L 79.838836 56.095253 
L 80.001164 61.293591 
L 80.163491 56.095253 
L 80.325818 149.223841 
L 80.488145 56.095253 
L 80.650473 67.727414 
L 80.8128 70.636309 
L 80.975127 151.167668 
L 81.137455 56.439087 
L 81.462109 87.560836 
L 81.624436 120.832245 
L 81.786764 56.095253 
L 82.111418 56.095253 
L 82.273745 63.907042 
L 82.436073 56.095253 
L 82.760727 56.095253 
L 82.923055 111.88354 
L 83.085382 56.095253 
L 83.897018 56.095253 
L 84.059345 53.568 
L 84.221673 89.258005 
L 84.384 56.095253 
L 84.546327 56.095253 
L 84.870982 60.987937 
L 85.033309 56.929907 
L 85.195636 76.190965 
L 85.357964 56.095253 
L 85.682618 56.095253 
L 85.844945 56.591768 
L 86.007273 65.579094 
L 86.1696 56.095253 
L 86.656582 105.388543 
L 86.818909 63.35089 
L 86.981236 73.923101 
L 87.143564 56.095253 
L 87.305891 56.439087 
L 87.468218 56.095253 
L 87.630545 56.095253 
L 87.792873 60.492293 
L 87.9552 56.095253 
L 88.117527 63.35089 
L 88.279855 56.095253 
L 88.442182 64.764884 
L 88.604509 56.439087 
L 88.766836 69.549372 
L 89.091491 56.095253 
L 89.253818 57.616706 
L 89.416145 56.095253 
L 89.7408 56.095253 
L 89.903127 70.985068 
L 90.065455 56.095253 
L 90.227782 56.095253 
L 90.390109 60.637148 
L 90.552436 56.095253 
L 91.201745 56.095253 
L 91.364073 90.948901 
L 91.5264 56.095253 
L 92.338036 56.095253 
L 92.500364 131.886496 
L 92.662691 56.095253 
L 93.149673 56.095253 
L 93.312 60.431607 
L 93.474327 56.095253 
L 93.636655 70.595627 
L 93.961309 63.907042 
L 94.123636 56.095253 
L 94.935273 56.095253 
L 95.0976 62.301134 
L 95.259927 92.646326 
L 95.422255 56.095253 
L 95.584582 138.07142 
L 95.746909 56.095253 
L 95.909236 59.849012 
L 96.071564 56.095253 
L 96.558545 56.095253 
L 96.720873 65.37823 
L 96.8832 56.591767 
L 97.045527 56.095253 
L 97.207855 56.095253 
L 97.370182 78.972184 
L 97.532509 56.095253 
L 98.019491 56.095253 
L 98.181818 56.785736 
L 98.344145 56.095253 
L 98.506473 117.296668 
L 98.6688 64.723917 
L 98.831127 56.095253 
L 99.155782 68.319678 
L 99.318109 56.095253 
L 99.805091 56.095253 
L 99.967418 56.929907 
L 100.129745 77.886929 
L 100.292073 56.095253 
L 100.4544 56.095253 
L 100.616727 105.100764 
L 100.779055 79.210666 
L 100.941382 182.135451 
L 101.103709 56.095253 
L 101.266036 63.402403 
L 101.428364 56.095253 
L 101.590691 147.799869 
L 101.753018 72.670824 
L 101.915345 57.111326 
L 102.077673 56.095253 
L 102.24 56.095253 
L 102.402327 111.849782 
L 102.564655 56.095253 
L 102.889309 56.095253 
L 103.051636 56.785736 
L 103.213964 56.095253 
L 103.376291 56.095253 
L 103.538618 89.664201 
L 103.700945 56.095253 
L 103.863273 61.293591 
L 104.0256 88.674981 
L 104.187927 74.544651 
L 104.350255 70.985068 
L 104.512582 56.095253 
L 105.8112 56.095253 
L 105.973527 84.531926 
L 106.135855 56.095253 
L 106.298182 56.095253 
L 106.460509 109.748486 
L 106.622836 56.095253 
L 106.785164 61.293591 
L 106.947491 56.095253 
L 107.109818 113.311294 
L 107.272145 56.095253 
L 107.759127 56.095253 
L 107.921455 86.284849 
L 108.083782 91.253485 
L 108.246109 59.020832 
L 108.408436 56.095253 
L 108.733091 56.095253 
L 108.895418 61.293591 
L 109.057745 56.095253 
L 109.544727 56.095253 
L 109.707055 82.024846 
L 109.869382 56.095253 
L 110.194036 56.095253 
L 110.356364 81.35239 
L 110.518691 56.095253 
L 111.492655 56.095253 
L 111.654982 68.518742 
L 111.817309 56.095253 
L 112.9536 56.095253 
L 113.115927 98.257575 
L 113.278255 60.987937 
L 113.440582 65.140079 
L 113.602909 56.095253 
L 114.576873 56.095253 
L 114.7392 59.020832 
L 114.901527 56.095253 
L 115.388509 56.095253 
L 115.550836 61.293591 
L 115.713164 56.095253 
L 115.875491 73.628744 
L 116.037818 56.095253 
L 116.200145 79.01091 
L 116.362473 56.095253 
L 116.5248 88.372246 
L 116.687127 170.550274 
L 116.849455 56.095253 
L 117.011782 65.37823 
L 117.174109 111.238316 
L 117.336436 56.095253 
L 118.148073 56.095253 
L 118.3104 66.699383 
L 118.472727 92.783936 
L 118.635055 56.095253 
L 118.797382 56.095253 
L 118.959709 67.079555 
L 119.122036 56.095253 
L 119.446691 70.227076 
L 119.609018 107.979497 
L 119.771345 56.095253 
L 119.933673 56.439087 
L 120.096 95.004347 
L 120.420655 56.095253 
L 121.232291 56.095253 
L 121.394618 63.216094 
L 121.556945 56.095253 
L 121.719273 137.919184 
L 121.8816 56.095253 
L 122.368582 56.095253 
L 122.530909 56.929907 
L 122.693236 70.491245 
L 122.855564 56.095253 
L 123.017891 56.095253 
L 123.180218 56.439087 
L 123.342545 56.095253 
L 123.6672 140.254011 
L 123.829527 56.095253 
L 123.991855 56.095253 
L 124.154182 114.65407 
L 124.316509 56.095253 
L 124.478836 70.985068 
L 124.641164 56.095253 
L 124.803491 57.297344 
L 124.965818 56.095253 
L 125.290473 56.095253 
L 125.4528 60.637148 
L 125.615127 56.095253 
L 126.426764 56.095253 
L 126.589091 60.492293 
L 126.751418 56.095253 
L 126.913745 56.095253 
L 127.076073 56.929907 
L 127.2384 56.095253 
L 127.400727 53.632797 
L 127.725382 69.549372 
L 127.887709 89.801256 
L 128.050036 56.095253 
L 128.212364 88.454128 
L 128.537018 56.095253 
L 128.699345 56.095253 
L 128.861673 92.861504 
L 129.024 56.095253 
L 129.673309 56.095253 
L 129.835636 60.987937 
L 129.997964 107.325139 
L 130.322618 56.095253 
L 130.647273 56.095253 
L 130.8096 71.391817 
L 130.971927 56.095253 
L 131.134255 57.297344 
L 131.296582 103.775744 
L 131.458909 56.095253 
L 131.945891 56.095253 
L 132.108218 70.607667 
L 132.270545 58.662496 
L 132.432873 56.095253 
L 132.5952 61.293591 
L 132.757527 56.095253 
L 134.056145 56.095253 
L 134.218473 84.420007 
L 134.3808 56.095253 
L 135.192436 56.095253 
L 135.354764 65.347608 
L 135.517091 56.095253 
L 135.679418 64.481682 
L 135.841745 89.469472 
L 136.004073 54.058999 
L 136.1664 64.723917 
L 136.328727 56.095253 
L 136.491055 56.095253 
L 136.653382 56.591767 
L 136.815709 61.293591 
L 136.978036 89.801256 
L 137.140364 56.439087 
L 137.302691 56.095253 
L 137.465018 56.591767 
L 137.627345 56.095253 
L 137.952 56.095253 
L 138.114327 123.185749 
L 138.276655 60.431607 
L 138.438982 56.095253 
L 138.601309 60.492293 
L 138.763636 56.929907 
L 138.925964 60.987937 
L 139.088291 56.929907 
L 139.250618 56.095253 
L 139.575273 56.095253 
L 139.7376 84.606299 
L 139.899927 56.095253 
L 140.224582 56.095253 
L 140.386909 90.717802 
L 140.549236 56.095253 
L 140.873891 56.095253 
L 141.036218 60.987937 
L 141.198545 56.095253 
L 142.010182 56.095253 
L 142.334836 84.681483 
L 142.497164 56.095253 
L 142.659491 88.674981 
L 142.821818 224.303626 
L 142.984145 225.622113 
L 143.3088 56.095253 
L 143.471127 71.375092 
L 143.633455 123.674516 
L 143.795782 56.095253 
L 143.958109 56.591768 
L 144.120436 295.488 
L 144.282764 273.332196 
L 144.445091 56.095253 
L 144.607418 221.219571 
L 144.769745 66.624491 
L 144.932073 65.510305 
L 145.0944 65.826198 
L 145.256727 65.021128 
L 145.581382 56.929907 
L 145.906036 63.354178 
L 146.068364 56.095253 
L 146.230691 59.034776 
L 146.393018 58.639769 
L 146.555345 61.000528 
L 146.717673 56.791772 
L 146.88 56.755216 
L 147.042327 60.592835 
L 147.204655 57.124181 
L 147.529309 58.588344 
L 147.691636 56.755216 
L 148.016291 61.129698 
L 148.178618 56.755216 
L 148.503273 59.771196 
L 148.6656 59.832914 
L 148.827927 57.105465 
L 148.990255 57.46944 
L 149.152582 59.403693 
L 149.314909 59.952384 
L 149.639564 59.952384 
L 149.801891 59.066342 
L 149.964218 59.952384 
L 150.126545 56.41853 
L 150.288873 59.832914 
L 150.613527 59.952384 
L 150.775855 57.46944 
L 150.938182 59.952384 
L 151.100509 58.239293 
L 151.425164 59.952384 
L 151.587491 57.84732 
L 151.749818 59.952384 
L 151.912145 56.755216 
L 152.074473 59.952384 
L 152.399127 59.952384 
L 152.723782 58.213676 
L 152.886109 56.095253 
L 153.048436 59.952384 
L 153.210764 59.952384 
L 153.373091 57.105465 
L 153.535418 59.952384 
L 155.645673 59.952384 
L 155.808 56.755216 
L 155.970327 56.095253 
L 156.132655 59.952384 
L 158.729891 59.952384 
L 158.892218 58.239293 
L 159.054545 59.952384 
L 165.547636 59.952384 
L 165.709964 57.105465 
L 165.872291 59.952384 
L 166.196945 59.952384 
L 166.5216 56.095253 
L 166.683927 57.46944 
L 166.846255 57.46944 
L 167.170909 56.095253 
L 167.333236 58.239293 
L 167.495564 56.095253 
L 167.657891 59.952384 
L 167.820218 56.755216 
L 167.982545 56.755216 
L 168.144873 56.41853 
L 168.3072 59.066342 
L 168.469527 56.755216 
L 168.631855 56.095253 
L 168.794182 59.952384 
L 168.956509 56.755216 
L 169.118836 56.41853 
L 169.281164 59.952384 
L 169.605818 59.952384 
L 169.768145 57.46944 
L 169.930473 59.952384 
L 170.0928 59.952384 
L 170.255127 56.41853 
L 170.417455 57.46944 
L 170.579782 57.105465 
L 170.742109 59.952384 
L 170.904436 59.952384 
L 171.066764 58.239293 
L 171.229091 59.952384 
L 171.391418 56.095253 
L 171.553745 57.84732 
L 171.716073 57.105465 
L 171.8784 58.239293 
L 172.203055 57.46944 
L 172.365382 56.095253 
L 172.527709 56.755216 
L 172.690036 56.41853 
L 172.852364 56.755216 
L 173.014691 56.41853 
L 173.177018 59.952384 
L 173.339345 56.41853 
L 173.501673 59.952384 
L 173.664 56.095253 
L 173.826327 56.095253 
L 173.988655 59.952384 
L 174.313309 57.105465 
L 174.475636 56.41853 
L 174.637964 56.755216 
L 174.800291 56.095253 
L 174.962618 57.105465 
L 175.124945 59.952384 
L 175.287273 59.066342 
L 175.4496 56.755216 
L 175.611927 57.105465 
L 175.774255 57.84732 
L 175.936582 57.84732 
L 176.098909 58.239293 
L 176.261236 56.41853 
L 176.423564 56.095253 
L 176.585891 56.755216 
L 176.748218 56.41853 
L 176.910545 57.105465 
L 177.072873 56.755216 
L 177.397527 59.952384 
L 177.559855 56.41853 
L 177.722182 56.755216 
L 177.884509 59.501866 
L 178.046836 58.645561 
L 178.209164 59.952384 
L 178.371491 59.952384 
L 178.533818 56.095253 
L 178.858473 59.952384 
L 179.0208 57.105465 
L 179.183127 59.952384 
L 179.345455 57.46944 
L 179.507782 59.066342 
L 179.670109 59.501866 
L 179.832436 59.066342 
L 179.994764 56.41853 
L 180.157091 58.645561 
L 180.319418 57.84732 
L 180.481745 59.952384 
L 180.644073 56.41853 
L 180.8064 56.095253 
L 180.968727 58.645561 
L 181.131055 56.41853 
L 181.455709 56.41853 
L 181.618036 59.952384 
L 181.780364 59.952384 
L 181.942691 56.41853 
L 182.105018 59.952384 
L 182.267345 59.066342 
L 182.429673 59.952384 
L 182.592 57.105465 
L 182.754327 59.066342 
L 182.916655 56.755216 
L 183.078982 59.952384 
L 183.241309 58.645561 
L 183.403636 59.952384 
L 183.565964 56.41853 
L 183.728291 57.46944 
L 184.052945 56.755216 
L 184.215273 59.501866 
L 184.3776 57.46944 
L 184.539927 59.952384 
L 184.702255 56.755216 
L 184.864582 59.952384 
L 185.189236 59.952384 
L 185.351564 59.066342 
L 185.513891 59.952384 
L 185.838545 59.952384 
L 186.000873 57.105465 
L 186.1632 56.41853 
L 186.325527 59.952384 
L 186.812509 59.952384 
L 186.974836 57.84732 
L 187.137164 59.952384 
L 187.299491 56.755216 
L 187.461818 59.952384 
L 188.111127 59.952384 
L 188.273455 57.84732 
L 188.435782 59.952384 
L 188.760436 59.952384 
L 188.922764 58.645561 
L 189.085091 59.952384 
L 189.409745 59.952384 
L 189.572073 57.46944 
L 189.7344 59.952384 
L 189.896727 56.41853 
L 190.059055 59.952384 
L 190.221382 57.46944 
L 190.383709 56.755216 
L 190.546036 59.952384 
L 190.708364 59.952384 
L 190.870691 56.41853 
L 191.033018 59.952384 
L 191.195345 56.755216 
L 191.357673 59.952384 
L 192.331636 59.952384 
L 192.493964 66.649566 
L 192.656291 130.659981 
L 192.818618 66.390729 
L 192.980945 75.961452 
L 193.143273 63.561811 
L 193.3056 130.659981 
L 194.279564 130.659981 
L 194.441891 122.220902 
L 194.604218 130.659981 
L 194.928873 130.659981 
L 195.0912 88.086455 
L 195.253527 98.864948 
L 195.415855 130.659981 
L 195.578182 63.561811 
L 195.740509 73.534727 
L 195.902836 66.13554 
L 196.065164 71.72832 
L 196.227491 69.770728 
L 196.389818 75.117344 
L 196.552145 124.682089 
L 196.714473 68.002316 
L 196.8768 74.30936 
L 197.039127 68.572943 
L 197.201455 71.72832 
L 197.363782 81.988452 
L 197.526109 68.865103 
L 197.688436 130.659981 
L 197.850764 72.429931 
L 198.013091 66.912161 
L 198.175418 65.273103 
L 198.337745 66.390729 
L 198.500073 61.029641 
L 198.6624 90.572044 
L 198.824727 98.864948 
L 198.987055 75.117344 
L 199.149382 90.572044 
L 199.311709 62.713066 
L 199.474036 130.659981 
L 199.636364 71.052378 
L 199.798691 68.572943 
L 199.961018 79.767228 
L 200.285673 64.415175 
L 200.448 74.30936 
L 200.610327 72.429931 
L 200.772655 67.723578 
L 200.934982 88.884739 
L 201.097309 62.713066 
L 201.259636 130.659981 
L 201.584291 62.713066 
L 201.746618 81.988452 
L 201.908945 58.540391 
L 202.071273 93.360265 
L 202.2336 72.790953 
L 202.395927 68.865103 
L 202.558255 71.72832 
L 202.720582 62.713066 
L 202.882909 72.429931 
L 203.045236 130.659981 
L 203.207564 130.659981 
L 203.532218 58.540391 
L 203.856873 75.117344 
L 204.0192 59.365295 
L 204.181527 67.178619 
L 204.506182 70.400372 
L 204.668509 57.72039 
L 204.830836 93.360265 
L 204.993164 73.159128 
L 205.155491 117.174065 
L 205.317818 130.659981 
L 205.480145 70.723485 
L 205.642473 61.029641 
L 205.8048 130.659981 
L 205.967127 56.905331 
L 206.129455 119.508304 
L 206.291782 67.178619 
L 206.616436 83.83079 
L 206.778764 61.029641 
L 206.941091 74.709017 
L 207.103418 76.844791 
L 207.265745 130.659981 
L 207.428073 70.400372 
L 207.5904 130.659981 
L 207.752727 102.834165 
L 207.915055 130.659981 
L 208.077382 68.285393 
L 208.402036 85.852751 
L 208.564364 130.659981 
L 208.726691 66.390729 
L 208.889018 69.770728 
L 209.051345 92.393562 
L 209.213673 70.082847 
L 209.376 68.002316 
L 209.538327 67.723578 
L 209.700655 81.988452 
L 210.025309 68.865103 
L 210.187636 69.770728 
L 210.349964 57.72039 
L 210.512291 107.461942 
L 210.674618 64.415175 
L 210.836945 90.572044 
L 210.999273 61.029641 
L 211.1616 56.905331 
L 211.323927 130.659981 
L 211.648582 57.72039 
L 211.810909 66.13554 
L 211.973236 62.713066 
L 212.135564 74.30936 
L 212.297891 130.659981 
L 212.622545 61.868993 
L 212.9472 76.39801 
L 213.109527 130.659981 
L 213.271855 66.912161 
L 213.434182 130.659981 
L 213.596509 82.58432 
L 213.921164 70.723485 
L 214.083491 95.418575 
L 214.245818 85.852751 
L 214.408145 130.659981 
L 214.570473 61.029641 
L 214.895127 73.534727 
L 215.057455 130.659981 
L 215.219782 66.649566 
L 215.382109 62.713066 
L 215.706764 71.72832 
L 215.869091 66.13554 
L 216.193745 130.659981 
L 216.356073 65.273103 
L 216.5184 61.029641 
L 216.680727 71.052378 
L 216.843055 72.075801 
L 217.005382 56.905331 
L 217.167709 68.865103 
L 217.330036 68.285393 
L 217.492364 74.30936 
L 217.654691 56.905331 
L 217.817018 130.659981 
L 217.979345 67.178619 
L 218.466327 130.659981 
L 218.628655 56.095253 
L 218.790982 112.933582 
L 218.953309 130.659981 
L 219.115636 130.659981 
L 219.277964 66.649566 
L 219.440291 130.659981 
L 219.927273 130.659981 
L 220.0896 73.918037 
L 220.251927 114.987009 
L 220.414255 104.295639 
L 220.576582 65.273103 
L 220.738909 68.285393 
L 220.901236 59.365295 
L 221.063564 104.295639 
L 221.225891 59.365295 
L 221.388218 91.46495 
L 221.550545 79.248693 
L 221.712873 82.58432 
L 221.8752 122.005124 
L 222.037527 65.273103 
L 222.199855 68.002316 
L 222.362182 67.449052 
L 222.524509 88.086455 
L 222.849164 58.540391 
L 223.011491 66.390729 
L 223.173818 62.713066 
L 223.336145 74.30936 
L 223.498473 61.868993 
L 223.6608 130.659981 
L 223.985455 65.273103 
L 224.147782 130.659981 
L 224.310109 130.659981 
L 224.634764 61.029641 
L 224.797091 130.659981 
L 224.959418 130.659981 
L 225.121745 65.273103 
L 225.284073 130.659981 
L 225.4464 63.561811 
L 225.608727 68.285393 
L 225.771055 130.659981 
L 225.933382 69.162018 
L 226.095709 130.659981 
L 226.258036 83.198114 
L 226.420364 130.659981 
L 226.582691 130.659981 
L 226.907345 65.273103 
L 227.069673 130.659981 
L 227.232 66.13554 
L 227.394327 130.659981 
L 227.556655 68.865103 
L 227.718982 130.659981 
L 227.881309 69.770728 
L 228.043636 130.659981 
L 228.205964 130.659981 
L 228.368291 56.905331 
L 228.530618 130.659981 
L 228.692945 71.387253 
L 228.855273 89.712647 
L 229.0176 130.659981 
L 229.179927 95.418575 
L 229.342255 130.659981 
L 229.504582 83.83079 
L 229.666909 130.659981 
L 229.829236 87.316072 
L 229.991564 130.659981 
L 230.153891 70.723485 
L 230.316218 130.659981 
L 230.478545 130.659981 
L 230.640873 74.30936 
L 230.8032 83.83079 
L 230.965527 70.400372 
L 231.127855 130.659981 
L 231.290182 70.400372 
L 231.452509 65.273103 
L 231.614836 73.918037 
L 231.777164 70.082847 
L 231.939491 95.418575 
L 232.101818 70.723485 
L 232.264145 130.659981 
L 232.5888 79.767228 
L 232.751127 130.659981 
L 232.913455 69.46384 
L 233.075782 130.659981 
L 233.562764 130.659981 
L 233.725091 66.390729 
L 233.887418 130.659981 
L 234.049745 130.659981 
L 234.212073 57.72039 
L 234.3744 130.659981 
L 234.699055 130.659981 
L 234.861382 67.449052 
L 235.023709 130.659981 
L 235.348364 130.659981 
L 235.510691 56.905331 
L 235.673018 57.72039 
L 235.835345 67.723578 
L 235.997673 130.659981 
L 236.16 130.659981 
L 236.322327 81.409618 
L 236.484655 130.659981 
L 237.133964 130.659981 
L 237.296291 69.770728 
L 237.458618 130.659981 
L 237.620945 130.659981 
L 237.783273 61.029641 
L 237.9456 130.659981 
L 238.270255 130.659981 
L 238.432582 97.663666 
L 238.594909 130.659981 
L 238.919564 130.659981 
L 239.081891 68.865103 
L 239.406545 130.659981 
L 239.7312 62.713066 
L 239.893527 130.659981 
L 240.218182 130.659981 
L 240.380509 66.390729 
L 240.705164 130.659981 
L 241.029818 130.659981 
L 241.192145 66.13554 
L 241.354473 70.082847 
L 241.5168 130.659981 
L 241.679127 130.659981 
L 241.841455 56.905331 
L 242.003782 130.659981 
L 243.140073 130.659981 
L 243.3024 80.299762 
L 243.464727 130.659981 
L 244.276364 130.659981 
L 244.438691 82.58432 
L 244.601018 81.409618 
L 244.763345 130.659981 
L 245.412655 130.659981 
L 245.574982 67.178619 
L 245.737309 130.659981 
L 246.386618 130.659981 
L 246.548945 62.713066 
L 246.711273 130.659981 
L 247.360582 130.659981 
L 247.685236 69.46384 
L 247.847564 130.659981 
L 248.334545 130.659981 
L 248.496873 85.852751 
L 248.6592 130.659981 
L 248.821527 75.534696 
L 248.983855 70.723485 
L 249.146182 130.659981 
L 249.308509 66.912161 
L 249.470836 130.659981 
L 249.633164 130.659981 
L 249.795491 85.852751 
L 249.957818 130.659981 
L 250.120145 63.561811 
L 250.282473 56.095253 
L 250.4448 130.659981 
L 250.607127 130.659981 
L 250.769455 69.46384 
L 251.094109 130.659981 
L 251.418764 130.659981 
L 251.581091 68.285393 
L 251.743418 130.659981 
L 251.905745 130.659981 
L 252.068073 70.400372 
L 252.2304 130.659981 
L 252.392727 130.659981 
L 252.555055 60.19506 
L 252.717382 130.659981 
L 252.879709 130.659981 
L 253.042036 81.988452 
L 253.204364 130.659981 
L 253.366691 92.393562 
L 253.529018 130.659981 
L 254.340655 130.659981 
L 254.502982 68.285393 
L 254.665309 130.659981 
L 254.827636 63.561811 
L 254.989964 130.659981 
L 256.288582 130.659981 
L 256.450909 71.72832 
L 256.613236 130.659981 
L 257.100218 130.659981 
L 257.262545 114.987009 
L 257.424873 130.659981 
L 257.911855 130.659981 
L 258.236509 61.868993 
L 258.398836 58.540391 
L 258.561164 61.868993 
L 258.723491 61.868993 
L 258.885818 56.095253 
L 259.048145 57.72039 
L 259.210473 56.905331 
L 259.3728 56.905331 
L 259.697455 60.19506 
L 259.859782 60.19506 
L 260.184436 56.095253 
L 260.346764 130.659981 
L 260.509091 73.159128 
L 260.671418 130.659981 
L 261.645382 130.659981 
L 261.807709 76.39801 
L 261.970036 130.659981 
L 262.132364 73.534727 
L 262.294691 130.659981 
L 262.781673 130.659981 
L 262.944 88.884739 
L 263.106327 130.659981 
L 263.917964 130.659981 
L 264.080291 85.852751 
L 264.242618 130.659981 
L 264.404945 69.162018 
L 264.567273 130.659981 
L 264.7296 57.72039 
L 264.891927 76.844791 
L 265.054255 63.561811 
L 265.216582 130.659981 
L 265.378909 60.19506 
L 265.541236 56.905331 
L 265.703564 56.095253 
L 265.865891 73.918037 
L 266.190545 66.390729 
L 266.352873 57.72039 
L 266.5152 56.095253 
L 266.839855 66.13554 
L 267.002182 56.905331 
L 267.164509 66.13554 
L 267.326836 60.19506 
L 267.489164 66.390729 
L 267.651491 66.390729 
L 267.813818 56.095253 
L 267.976145 71.387253 
L 268.138473 56.095253 
L 268.463127 66.390729 
L 268.950109 57.72039 
L 269.112436 66.13554 
L 269.274764 64.415175 
L 269.437091 58.540391 
L 269.599418 58.540391 
L 269.761745 66.13554 
L 269.924073 57.72039 
L 270.0864 61.868993 
L 270.248727 56.095253 
L 270.898036 56.095253 
L 271.060364 62.713066 
L 271.222691 56.095253 
L 271.385018 59.365295 
L 271.547345 56.095253 
L 271.709673 56.095253 
L 271.872 56.905331 
L 272.034327 68.002316 
L 272.196655 56.095253 
L 272.683636 56.095253 
L 272.845964 57.72039 
L 273.008291 57.72039 
L 273.170618 56.905331 
L 273.495273 59.365295 
L 273.6576 56.905331 
L 273.819927 56.905331 
L 273.982255 58.540391 
L 274.144582 64.415175 
L 274.306909 56.095253 
L 274.469236 56.905331 
L 274.631564 56.095253 
L 274.793891 60.19506 
L 274.956218 61.029641 
L 275.118545 60.19506 
L 275.280873 62.713066 
L 275.4432 62.713066 
L 275.767855 56.905331 
L 275.930182 64.415175 
L 276.092509 56.905331 
L 276.417164 60.19506 
L 276.579491 56.095253 
L 276.904145 61.868993 
L 277.066473 57.72039 
L 277.391127 60.19506 
L 277.553455 56.095253 
L 277.715782 57.72039 
L 278.040436 56.095253 
L 278.202764 60.19506 
L 278.365091 56.905331 
L 278.527418 56.095253 
L 278.689745 58.540391 
L 278.852073 56.095253 
L 279.0144 64.415175 
L 279.339055 56.905331 
L 279.501382 58.540391 
L 279.663709 56.095253 
L 279.826036 56.095253 
L 279.988364 59.365295 
L 280.150691 56.095253 
L 280.313018 59.365295 
L 280.475345 56.905331 
L 280.637673 56.905331 
L 280.8 56.095253 
L 280.962327 60.19506 
L 281.124655 56.905331 
L 281.286982 56.905331 
L 281.449309 56.095253 
L 281.773964 56.095253 
L 281.936291 56.905331 
L 282.098618 56.905331 
L 282.260945 56.095253 
L 282.423273 57.72039 
L 282.5856 56.095253 
L 282.747927 66.649566 
L 282.910255 56.095253 
L 283.072582 56.095253 
L 283.234909 59.365295 
L 283.559564 56.905331 
L 283.721891 56.095253 
L 283.884218 57.72039 
L 284.046545 56.095253 
L 284.208873 59.365295 
L 284.3712 56.095253 
L 284.533527 56.905331 
L 284.695855 56.095253 
L 284.858182 56.095253 
L 285.020509 56.905331 
L 285.182836 56.095253 
L 285.507491 57.72039 
L 285.832145 56.095253 
L 285.994473 56.095253 
L 286.1568 56.905331 
L 286.319127 56.095253 
L 286.481455 56.095253 
L 286.643782 56.905331 
L 286.806109 66.390729 
L 286.968436 57.72039 
L 287.130764 56.905331 
L 287.293091 59.365295 
L 287.455418 56.905331 
L 287.617745 58.540391 
L 287.780073 56.095253 
L 287.9424 56.095253 
L 288.104727 58.540391 
L 288.267055 58.540391 
L 288.429382 60.19506 
L 288.754036 56.095253 
L 288.916364 56.905331 
L 289.078691 63.561811 
L 289.241018 56.905331 
L 289.403345 56.095253 
L 289.565673 56.095253 
L 289.728 59.365295 
L 289.890327 56.095253 
L 290.052655 57.72039 
L 290.377309 57.72039 
L 290.539636 65.273103 
L 290.701964 56.095253 
L 291.026618 56.095253 
L 291.188945 60.19506 
L 291.351273 56.095253 
L 291.5136 56.095253 
L 291.675927 58.540391 
L 291.838255 56.905331 
L 292.000582 56.905331 
L 292.162909 56.095253 
L 292.649891 56.095253 
L 292.812218 59.365295 
L 293.136873 57.72039 
L 293.2992 56.095253 
L 293.461527 56.095253 
L 293.623855 59.365295 
L 293.786182 56.095253 
L 293.948509 59.365295 
L 294.110836 58.540391 
L 294.273164 56.095253 
L 294.597818 56.095253 
L 294.922473 57.72039 
L 295.0848 57.72039 
L 295.247127 60.19506 
L 295.409455 57.72039 
L 295.571782 58.540391 
L 295.734109 60.19506 
L 295.896436 56.905331 
L 296.545745 56.905331 
L 296.708073 61.868993 
L 296.8704 56.095253 
L 297.032727 56.095253 
L 297.195055 58.540391 
L 297.357382 56.095253 
L 297.519709 56.095253 
L 297.682036 57.72039 
L 297.844364 57.72039 
L 298.006691 58.540391 
L 298.169018 60.19506 
L 298.331345 56.905331 
L 298.493673 56.095253 
L 298.656 59.365295 
L 298.818327 58.540391 
L 298.980655 56.095253 
L 299.142982 56.095253 
L 299.305309 57.72039 
L 299.629964 57.72039 
L 299.792291 61.029641 
L 300.116945 56.095253 
L 300.279273 60.19506 
L 300.4416 60.19506 
L 300.928582 56.095253 
L 301.090909 56.905331 
L 301.253236 62.713066 
L 301.415564 56.095253 
L 301.740218 61.868993 
L 301.902545 56.095253 
L 302.2272 57.72039 
L 302.551855 56.095253 
L 302.714182 59.365295 
L 302.876509 56.095253 
L 303.038836 56.905331 
L 303.201164 56.095253 
L 303.363491 59.365295 
L 303.525818 56.095253 
L 303.688145 60.19506 
L 303.850473 58.540391 
L 304.0128 58.540391 
L 304.175127 57.72039 
L 304.337455 59.365295 
L 304.499782 58.540391 
L 304.662109 66.649566 
L 304.824436 56.095253 
L 304.986764 56.095253 
L 305.149091 60.19506 
L 305.311418 56.095253 
L 305.473745 56.905331 
L 305.636073 56.095253 
L 305.7984 56.095253 
L 305.960727 61.868993 
L 306.123055 60.19506 
L 306.285382 64.415175 
L 306.447709 56.905331 
L 306.610036 56.095253 
L 307.097018 56.095253 
L 307.259345 57.72039 
L 307.421673 56.095253 
L 307.746327 56.095253 
L 307.908655 57.72039 
L 308.070982 56.095253 
L 308.233309 58.540391 
L 308.395636 56.095253 
L 308.557964 57.72039 
L 308.720291 56.095253 
L 308.882618 56.905331 
L 309.044945 56.095253 
L 309.207273 61.868993 
L 309.3696 56.905331 
L 309.531927 56.095253 
L 309.856582 56.095253 
L 310.018909 56.905331 
L 310.343564 56.905331 
L 310.505891 56.095253 
L 310.668218 56.905331 
L 310.830545 56.095253 
L 310.992873 56.095253 
L 311.1552 56.905331 
L 311.317527 58.540391 
L 311.479855 57.72039 
L 311.642182 57.72039 
L 311.804509 56.095253 
L 312.453818 56.095253 
L 312.616145 56.905331 
L 312.778473 56.905331 
L 312.9408 57.72039 
L 313.265455 56.095253 
L 313.590109 56.095253 
L 313.752436 58.540391 
L 313.914764 58.540391 
L 314.077091 56.095253 
L 314.564073 56.095253 
L 314.7264 57.72039 
L 314.888727 56.095253 
L 315.213382 56.095253 
L 315.375709 58.540391 
L 315.700364 56.095253 
L 315.862691 57.72039 
L 316.025018 56.905331 
L 316.187345 56.905331 
L 316.349673 56.095253 
L 316.512 58.540391 
L 316.674327 63.561811 
L 316.998982 56.095253 
L 317.161309 56.095253 
L 317.323636 56.905331 
L 317.485964 56.095253 
L 317.648291 56.905331 
L 317.810618 56.095253 
L 317.972945 56.905331 
L 318.135273 56.905331 
L 318.2976 56.095253 
L 318.459927 56.095253 
L 318.784582 57.72039 
L 318.946909 56.905331 
L 319.109236 61.868993 
L 319.271564 56.095253 
L 319.596218 56.095253 
L 319.758545 61.029641 
L 319.920873 56.095253 
L 320.0832 56.095253 
L 320.245527 56.905331 
L 320.407855 56.905331 
L 320.570182 56.095253 
L 320.732509 56.095253 
L 320.894836 58.540391 
L 321.057164 56.095253 
L 321.219491 56.905331 
L 321.381818 56.095253 
L 321.544145 56.905331 
L 321.706473 56.095253 
L 321.8688 61.029641 
L 322.031127 56.095253 
L 322.680436 56.095253 
L 322.842764 61.029641 
L 323.005091 56.905331 
L 323.167418 56.905331 
L 323.329745 56.095253 
L 323.492073 56.095253 
L 323.6544 62.713066 
L 323.816727 56.095253 
L 323.979055 56.095253 
L 324.141382 56.905331 
L 324.303709 56.095253 
L 324.466036 57.72039 
L 324.628364 57.72039 
L 324.790691 58.540391 
L 325.115345 56.095253 
L 325.277673 56.095253 
L 325.44 58.540391 
L 325.602327 58.540391 
L 325.764655 59.365295 
L 325.926982 56.095253 
L 326.089309 57.72039 
L 326.251636 56.095253 
L 326.413964 56.095253 
L 326.576291 60.19506 
L 326.900945 56.095253 
L 327.063273 59.365295 
L 327.2256 56.095253 
L 327.387927 56.095253 
L 327.550255 58.540391 
L 327.712582 56.095253 
L 327.874909 56.095253 
L 328.037236 58.540391 
L 328.199564 56.095253 
L 328.848873 56.095253 
L 329.0112 56.905331 
L 329.173527 56.095253 
L 329.335855 58.540391 
L 329.498182 57.72039 
L 329.660509 56.095253 
L 329.822836 56.095253 
L 329.985164 56.905331 
L 330.147491 56.905331 
L 330.309818 62.713066 
L 330.472145 56.095253 
L 330.634473 56.905331 
L 330.7968 56.095253 
L 330.959127 56.095253 
L 331.121455 56.905331 
L 331.283782 56.095253 
L 331.933091 56.095253 
L 332.095418 57.72039 
L 332.257745 56.905331 
L 332.420073 58.540391 
L 332.5824 56.095253 
L 332.744727 57.72039 
L 332.907055 56.095253 
L 333.069382 56.095253 
L 333.231709 60.19506 
L 333.394036 56.095253 
L 333.556364 62.713066 
L 333.718691 56.905331 
L 333.881018 66.13554 
L 334.043345 56.905331 
L 334.205673 56.095253 
L 334.368 56.905331 
L 334.530327 56.905331 
L 334.692655 60.19506 
L 334.854982 56.905331 
L 335.017309 56.095253 
L 335.179636 57.72039 
L 335.341964 56.095253 
L 335.504291 56.095253 
L 335.828945 59.365295 
L 336.1536 56.095253 
L 336.315927 56.095253 
L 336.478255 56.905331 
L 336.640582 56.095253 
L 336.802909 59.365295 
L 336.965236 56.095253 
L 337.127564 56.095253 
L 337.289891 56.905331 
L 337.452218 56.095253 
L 337.614545 57.72039 
L 337.776873 56.095253 
L 337.9392 56.095253 
L 338.101527 56.905331 
L 338.263855 59.365295 
L 338.426182 58.540391 
L 338.588509 56.905331 
L 338.750836 59.365295 
L 339.075491 57.72039 
L 339.237818 56.095253 
L 339.400145 56.905331 
L 339.562473 59.365295 
L 339.887127 56.095253 
L 340.049455 56.905331 
L 340.211782 56.095253 
L 340.536436 56.095253 
L 340.698764 56.905331 
L 340.861091 56.095253 
L 341.185745 56.095253 
L 341.348073 61.029641 
L 341.5104 56.095253 
L 341.835055 64.415175 
L 341.997382 56.905331 
L 342.159709 57.72039 
L 342.322036 56.095253 
L 342.646691 56.095253 
L 342.809018 56.905331 
L 343.296 56.905331 
L 343.458327 57.72039 
L 343.620655 56.905331 
L 343.782982 56.905331 
L 343.945309 56.095253 
L 344.107636 56.905331 
L 344.269964 56.095253 
L 344.432291 56.095253 
L 344.594618 56.905331 
L 344.756945 56.905331 
L 344.919273 59.365295 
L 345.243927 56.095253 
L 345.406255 56.095253 
L 345.568582 58.540391 
L 345.730909 58.540391 
L 345.893236 56.095253 
L 346.380218 56.095253 
L 346.542545 56.905331 
L 346.704873 56.095253 
L 346.8672 57.72039 
L 347.029527 57.72039 
L 347.191855 56.095253 
L 347.354182 56.095253 
L 347.516509 57.72039 
L 347.678836 56.095253 
L 347.841164 56.905331 
L 348.003491 56.095253 
L 348.165818 56.905331 
L 348.490473 56.905331 
L 348.6528 56.095253 
L 348.977455 56.095253 
L 349.139782 56.905331 
L 349.302109 56.905331 
L 349.464436 61.029641 
L 349.626764 57.72039 
L 349.789091 56.905331 
L 350.113745 56.905331 
L 350.276073 56.095253 
L 350.4384 56.095253 
L 350.600727 58.540391 
L 350.763055 56.905331 
L 351.087709 56.905331 
L 351.250036 56.095253 
L 351.412364 56.095253 
L 351.574691 57.72039 
L 351.737018 56.095253 
L 351.899345 61.029641 
L 352.061673 56.095253 
L 352.224 58.540391 
L 352.548655 56.905331 
L 352.710982 59.365295 
L 352.873309 58.540391 
L 353.035636 56.095253 
L 353.197964 56.095253 
L 353.360291 56.905331 
L 353.522618 56.095253 
L 353.847273 56.095253 
L 354.0096 57.72039 
L 354.171927 57.72039 
L 354.334255 56.095253 
L 354.658909 56.095253 
L 354.821236 57.72039 
L 354.983564 57.72039 
L 355.145891 56.095253 
L 355.308218 57.72039 
L 355.632873 56.095253 
L 355.7952 56.095253 
L 355.957527 56.905331 
L 356.282182 56.905331 
L 356.444509 58.540391 
L 356.769164 56.905331 
L 356.931491 59.365295 
L 357.093818 56.095253 
L 357.418473 59.365295 
L 357.5808 58.540391 
L 357.743127 56.095253 
L 357.905455 66.13554 
L 358.067782 57.72039 
L 358.230109 63.561811 
L 358.392436 56.095253 
L 358.717091 68.865103 
L 358.879418 130.659981 
L 359.204073 162.067948 
L 359.3664 130.659981 
L 361.801309 130.659981 
L 361.963636 68.002316 
L 362.125964 130.659981 
L 362.288291 56.095253 
L 362.450618 72.075801 
L 362.612945 56.905331 
L 362.9376 68.285393 
L 363.262255 56.905331 
L 363.424582 57.72039 
L 363.586909 56.095253 
L 363.749236 56.905331 
L 363.911564 56.905331 
L 364.073891 74.709017 
L 364.398545 56.095253 
L 364.560873 56.905331 
L 364.7232 56.095253 
L 364.885527 56.095253 
L 365.047855 56.905331 
L 365.210182 56.095253 
L 365.372509 56.905331 
L 365.534836 58.540391 
L 365.859491 56.095253 
L 366.021818 56.905331 
L 366.184145 60.19506 
L 366.5088 56.905331 
L 366.671127 56.095253 
L 366.833455 58.540391 
L 367.158109 56.905331 
L 367.320436 57.72039 
L 367.482764 56.095253 
L 367.645091 56.095253 
L 367.807418 59.365295 
L 367.969745 56.905331 
L 368.132073 58.540391 
L 368.2944 64.415175 
L 368.456727 56.905331 
L 368.619055 56.905331 
L 368.781382 57.72039 
L 369.106036 56.095253 
L 369.593018 56.095253 
L 369.755345 56.905331 
L 369.917673 56.905331 
L 370.08 56.095253 
L 370.242327 56.905331 
L 370.404655 56.095253 
L 370.566982 57.72039 
L 370.729309 56.095253 
L 371.053964 60.19506 
L 371.216291 56.905331 
L 371.378618 56.095253 
L 372.027927 56.095253 
L 372.190255 56.905331 
L 372.514909 56.905331 
L 372.677236 56.095253 
L 372.839564 56.095253 
L 373.001891 56.905331 
L 373.164218 56.095253 
L 373.326545 56.095253 
L 373.488873 57.72039 
L 373.6512 56.095253 
L 373.975855 56.095253 
L 374.138182 56.905331 
L 374.300509 56.095253 
L 374.462836 57.72039 
L 374.787491 57.72039 
L 374.949818 59.365295 
L 375.112145 56.095253 
L 375.4368 57.72039 
L 375.599127 56.095253 
L 375.923782 56.095253 
L 376.086109 57.72039 
L 376.410764 56.095253 
L 376.573091 56.095253 
L 376.735418 56.905331 
L 376.897745 56.095253 
L 377.060073 57.72039 
L 377.2224 56.095253 
L 378.196364 56.095253 
L 378.358691 56.905331 
L 378.683345 56.905331 
L 378.845673 56.095253 
L 379.008 56.095253 
L 379.170327 56.905331 
L 379.332655 56.095253 
L 379.494982 56.905331 
L 379.657309 56.095253 
L 379.819636 56.095253 
L 379.981964 58.540391 
L 380.306618 56.095253 
L 380.468945 56.095253 
L 380.631273 56.905331 
L 380.7936 56.905331 
L 380.955927 56.095253 
L 381.118255 56.095253 
L 381.280582 57.72039 
L 381.442909 56.095253 
L 381.929891 56.095253 
L 382.092218 57.72039 
L 382.254545 56.095253 
L 383.228509 56.095253 
L 383.390836 56.905331 
L 383.553164 56.095253 
L 383.877818 56.095253 
L 384.040145 56.905331 
L 384.202473 56.095253 
L 385.176436 56.095253 
L 385.338764 56.905331 
L 385.501091 56.095253 
L 385.663418 56.095253 
L 385.825745 56.905331 
L 385.988073 56.095253 
L 386.1504 56.095253 
L 386.312727 56.905331 
L 386.475055 56.905331 
L 386.637382 56.095253 
L 386.799709 56.905331 
L 386.962036 56.905331 
L 387.124364 56.095253 
L 387.449018 56.095253 
L 387.611345 56.905331 
L 387.773673 56.095253 
L 388.422982 56.095253 
L 388.585309 56.905331 
L 388.747636 56.095253 
L 389.396945 56.095253 
L 389.559273 56.905331 
L 389.7216 56.095253 
L 390.695564 56.095253 
L 390.857891 56.905331 
L 391.020218 56.095253 
L 391.182545 56.905331 
L 391.344873 56.095253 
L 392.481164 56.095253 
L 392.643491 58.540391 
L 392.805818 56.095253 
L 394.916073 56.095253 
L 395.0784 60.19506 
L 395.240727 56.095253 
L 398.324945 56.095253 
L 398.487273 56.905331 
L 398.487273 56.905331 
" clip-path="url(#p2af003a612)" style="fill: none; stroke: #2ca02c; stroke-width: 1.5; stroke-linecap: square"/>
   </g>
   <g id="patch_3">
    <path d="M 57.6 307.584 
L 57.6 41.472 
" style="fill: none; stroke: #000000; stroke-width: 0.8; stroke-linejoin: miter; stroke-linecap: square"/>
   </g>
   <g id="patch_4">
    <path d="M 414.72 307.584 
L 414.72 41.472 
" style="fill: none; stroke: #000000; stroke-width: 0.8; stroke-linejoin: miter; stroke-linecap: square"/>
   </g>
   <g id="patch_5">
    <path d="M 57.6 307.584 
L 414.72 307.584 
" style="fill: none; stroke: #000000; stroke-width: 0.8; stroke-linejoin: miter; stroke-linecap: square"/>
   </g>
   <g id="patch_6">
    <path d="M 57.6 41.472 
L 414.72 41.472 
" style="fill: none; stroke: #000000; stroke-width: 0.8; stroke-linejoin: miter; stroke-linecap: square"/>
   </g>
  </g>
 </g>
 <defs>
  <clipPath id="p2af003a612">
   <rect x="57.6" y="41.472" width="357.12" height="266.112"/>
  </clipPath>
 </defs>
</svg>
