<?xml version="1.0" encoding="utf-8" standalone="no"?>
<!DOCTYPE svg PUBLIC "-//W3C//DTD SVG 1.1//EN"
  "http://www.w3.org/Graphics/SVG/1.1/DTD/svg11.dtd">
<svg xmlns:xlink="http://www.w3.org/1999/xlink" width="460.8pt" height="345.6pt" viewBox="0 0 460.8 345.6" xmlns="http://www.w3.org/2000/svg" version="1.1">
 <metadata>
  <rdf:RDF xmlns:dc="http://purl.org/dc/elements/1.1/" xmlns:cc="http://creativecommons.org/ns#" xmlns:rdf="http://www.w3.org/1999/02/22-rdf-syntax-ns#">
   <cc:Work>
    <dc:type rdf:resource="http://purl.org/dc/dcmitype/StillImage"/>
    <dc:date>2024-04-28T11:36:04.983429</dc:date>
    <dc:format>image/svg+xml</dc:format>
    <dc:creator>
     <cc:Agent>
      <dc:title>Matplotlib v3.8.2, https://matplotlib.org/</dc:title>
     </cc:Agent>
    </dc:creator>
   </cc:Work>
  </rdf:RDF>
 </metadata>
 <defs>
  <style type="text/css">*{stroke-linejoin: round; stroke-linecap: butt}</style>
 </defs>
 <g id="figure_1">
  <g id="patch_1">
   <path d="M 0 345.6 
L 460.8 345.6 
L 460.8 0 
L 0 0 
z
" style="fill: #ffffff"/>
  </g>
  <g id="axes_1">
   <g id="patch_2">
    <path d="M 57.6 307.584 
L 414.72 307.584 
L 414.72 41.472 
L 57.6 41.472 
z
" style="fill: #ffffff"/>
   </g>
   <g id="matplotlib.axis_1">
    <g id="xtick_1">
     <g id="line2d_1">
      <defs>
       <path id="m3a0485319a" d="M 0 0 
L 0 3.5 
" style="stroke: #000000; stroke-width: 0.8"/>
      </defs>
      <g>
       <use xlink:href="#m3a0485319a" x="73.832727" y="307.584" style="stroke: #000000; stroke-width: 0.8"/>
      </g>
     </g>
     <g id="text_1">
      <!-- 0 -->
      <g transform="translate(70.651477 322.182437) scale(0.1 -0.1)">
       <defs>
        <path id="DejaVuSans-30" d="M 2034 4250 
Q 1547 4250 1301 3770 
Q 1056 3291 1056 2328 
Q 1056 1369 1301 889 
Q 1547 409 2034 409 
Q 2525 409 2770 889 
Q 3016 1369 3016 2328 
Q 3016 3291 2770 3770 
Q 2525 4250 2034 4250 
z
M 2034 4750 
Q 2819 4750 3233 4129 
Q 3647 3509 3647 2328 
Q 3647 1150 3233 529 
Q 2819 -91 2034 -91 
Q 1250 -91 836 529 
Q 422 1150 422 2328 
Q 422 3509 836 4129 
Q 1250 4750 2034 4750 
z
" transform="scale(0.015625)"/>
       </defs>
       <use xlink:href="#DejaVuSans-30"/>
      </g>
     </g>
    </g>
    <g id="xtick_2">
     <g id="line2d_2">
      <g>
       <use xlink:href="#m3a0485319a" x="138.763636" y="307.584" style="stroke: #000000; stroke-width: 0.8"/>
      </g>
     </g>
     <g id="text_2">
      <!-- 200 -->
      <g transform="translate(129.219886 322.182437) scale(0.1 -0.1)">
       <defs>
        <path id="DejaVuSans-32" d="M 1228 531 
L 3431 531 
L 3431 0 
L 469 0 
L 469 531 
Q 828 903 1448 1529 
Q 2069 2156 2228 2338 
Q 2531 2678 2651 2914 
Q 2772 3150 2772 3378 
Q 2772 3750 2511 3984 
Q 2250 4219 1831 4219 
Q 1534 4219 1204 4116 
Q 875 4013 500 3803 
L 500 4441 
Q 881 4594 1212 4672 
Q 1544 4750 1819 4750 
Q 2544 4750 2975 4387 
Q 3406 4025 3406 3419 
Q 3406 3131 3298 2873 
Q 3191 2616 2906 2266 
Q 2828 2175 2409 1742 
Q 1991 1309 1228 531 
z
" transform="scale(0.015625)"/>
       </defs>
       <use xlink:href="#DejaVuSans-32"/>
       <use xlink:href="#DejaVuSans-30" x="63.623047"/>
       <use xlink:href="#DejaVuSans-30" x="127.246094"/>
      </g>
     </g>
    </g>
    <g id="xtick_3">
     <g id="line2d_3">
      <g>
       <use xlink:href="#m3a0485319a" x="203.694545" y="307.584" style="stroke: #000000; stroke-width: 0.8"/>
      </g>
     </g>
     <g id="text_3">
      <!-- 400 -->
      <g transform="translate(194.150795 322.182437) scale(0.1 -0.1)">
       <defs>
        <path id="DejaVuSans-34" d="M 2419 4116 
L 825 1625 
L 2419 1625 
L 2419 4116 
z
M 2253 4666 
L 3047 4666 
L 3047 1625 
L 3713 1625 
L 3713 1100 
L 3047 1100 
L 3047 0 
L 2419 0 
L 2419 1100 
L 313 1100 
L 313 1709 
L 2253 4666 
z
" transform="scale(0.015625)"/>
       </defs>
       <use xlink:href="#DejaVuSans-34"/>
       <use xlink:href="#DejaVuSans-30" x="63.623047"/>
       <use xlink:href="#DejaVuSans-30" x="127.246094"/>
      </g>
     </g>
    </g>
    <g id="xtick_4">
     <g id="line2d_4">
      <g>
       <use xlink:href="#m3a0485319a" x="268.625455" y="307.584" style="stroke: #000000; stroke-width: 0.8"/>
      </g>
     </g>
     <g id="text_4">
      <!-- 600 -->
      <g transform="translate(259.081705 322.182437) scale(0.1 -0.1)">
       <defs>
        <path id="DejaVuSans-36" d="M 2113 2584 
Q 1688 2584 1439 2293 
Q 1191 2003 1191 1497 
Q 1191 994 1439 701 
Q 1688 409 2113 409 
Q 2538 409 2786 701 
Q 3034 994 3034 1497 
Q 3034 2003 2786 2293 
Q 2538 2584 2113 2584 
z
M 3366 4563 
L 3366 3988 
Q 3128 4100 2886 4159 
Q 2644 4219 2406 4219 
Q 1781 4219 1451 3797 
Q 1122 3375 1075 2522 
Q 1259 2794 1537 2939 
Q 1816 3084 2150 3084 
Q 2853 3084 3261 2657 
Q 3669 2231 3669 1497 
Q 3669 778 3244 343 
Q 2819 -91 2113 -91 
Q 1303 -91 875 529 
Q 447 1150 447 2328 
Q 447 3434 972 4092 
Q 1497 4750 2381 4750 
Q 2619 4750 2861 4703 
Q 3103 4656 3366 4563 
z
" transform="scale(0.015625)"/>
       </defs>
       <use xlink:href="#DejaVuSans-36"/>
       <use xlink:href="#DejaVuSans-30" x="63.623047"/>
       <use xlink:href="#DejaVuSans-30" x="127.246094"/>
      </g>
     </g>
    </g>
    <g id="xtick_5">
     <g id="line2d_5">
      <g>
       <use xlink:href="#m3a0485319a" x="333.556364" y="307.584" style="stroke: #000000; stroke-width: 0.8"/>
      </g>
     </g>
     <g id="text_5">
      <!-- 800 -->
      <g transform="translate(324.012614 322.182437) scale(0.1 -0.1)">
       <defs>
        <path id="DejaVuSans-38" d="M 2034 2216 
Q 1584 2216 1326 1975 
Q 1069 1734 1069 1313 
Q 1069 891 1326 650 
Q 1584 409 2034 409 
Q 2484 409 2743 651 
Q 3003 894 3003 1313 
Q 3003 1734 2745 1975 
Q 2488 2216 2034 2216 
z
M 1403 2484 
Q 997 2584 770 2862 
Q 544 3141 544 3541 
Q 544 4100 942 4425 
Q 1341 4750 2034 4750 
Q 2731 4750 3128 4425 
Q 3525 4100 3525 3541 
Q 3525 3141 3298 2862 
Q 3072 2584 2669 2484 
Q 3125 2378 3379 2068 
Q 3634 1759 3634 1313 
Q 3634 634 3220 271 
Q 2806 -91 2034 -91 
Q 1263 -91 848 271 
Q 434 634 434 1313 
Q 434 1759 690 2068 
Q 947 2378 1403 2484 
z
M 1172 3481 
Q 1172 3119 1398 2916 
Q 1625 2713 2034 2713 
Q 2441 2713 2670 2916 
Q 2900 3119 2900 3481 
Q 2900 3844 2670 4047 
Q 2441 4250 2034 4250 
Q 1625 4250 1398 4047 
Q 1172 3844 1172 3481 
z
" transform="scale(0.015625)"/>
       </defs>
       <use xlink:href="#DejaVuSans-38"/>
       <use xlink:href="#DejaVuSans-30" x="63.623047"/>
       <use xlink:href="#DejaVuSans-30" x="127.246094"/>
      </g>
     </g>
    </g>
    <g id="xtick_6">
     <g id="line2d_6">
      <g>
       <use xlink:href="#m3a0485319a" x="398.487273" y="307.584" style="stroke: #000000; stroke-width: 0.8"/>
      </g>
     </g>
     <g id="text_6">
      <!-- 1000 -->
      <g transform="translate(385.762273 322.182437) scale(0.1 -0.1)">
       <defs>
        <path id="DejaVuSans-31" d="M 794 531 
L 1825 531 
L 1825 4091 
L 703 3866 
L 703 4441 
L 1819 4666 
L 2450 4666 
L 2450 531 
L 3481 531 
L 3481 0 
L 794 0 
L 794 531 
z
" transform="scale(0.015625)"/>
       </defs>
       <use xlink:href="#DejaVuSans-31"/>
       <use xlink:href="#DejaVuSans-30" x="63.623047"/>
       <use xlink:href="#DejaVuSans-30" x="127.246094"/>
       <use xlink:href="#DejaVuSans-30" x="190.869141"/>
      </g>
     </g>
    </g>
   </g>
   <g id="matplotlib.axis_2">
    <g id="ytick_1">
     <g id="line2d_7">
      <defs>
       <path id="mcf694f6904" d="M 0 0 
L -3.5 0 
" style="stroke: #000000; stroke-width: 0.8"/>
      </defs>
      <g>
       <use xlink:href="#mcf694f6904" x="57.6" y="294.780215" style="stroke: #000000; stroke-width: 0.8"/>
      </g>
     </g>
     <g id="text_7">
      <!-- −40 -->
      <g transform="translate(29.495313 298.579434) scale(0.1 -0.1)">
       <defs>
        <path id="DejaVuSans-2212" d="M 678 2272 
L 4684 2272 
L 4684 1741 
L 678 1741 
L 678 2272 
z
" transform="scale(0.015625)"/>
       </defs>
       <use xlink:href="#DejaVuSans-2212"/>
       <use xlink:href="#DejaVuSans-34" x="83.789062"/>
       <use xlink:href="#DejaVuSans-30" x="147.412109"/>
      </g>
     </g>
    </g>
    <g id="ytick_2">
     <g id="line2d_8">
      <g>
       <use xlink:href="#mcf694f6904" x="57.6" y="264.944595" style="stroke: #000000; stroke-width: 0.8"/>
      </g>
     </g>
     <g id="text_8">
      <!-- −35 -->
      <g transform="translate(29.495313 268.743813) scale(0.1 -0.1)">
       <defs>
        <path id="DejaVuSans-33" d="M 2597 2516 
Q 3050 2419 3304 2112 
Q 3559 1806 3559 1356 
Q 3559 666 3084 287 
Q 2609 -91 1734 -91 
Q 1441 -91 1130 -33 
Q 819 25 488 141 
L 488 750 
Q 750 597 1062 519 
Q 1375 441 1716 441 
Q 2309 441 2620 675 
Q 2931 909 2931 1356 
Q 2931 1769 2642 2001 
Q 2353 2234 1838 2234 
L 1294 2234 
L 1294 2753 
L 1863 2753 
Q 2328 2753 2575 2939 
Q 2822 3125 2822 3475 
Q 2822 3834 2567 4026 
Q 2313 4219 1838 4219 
Q 1578 4219 1281 4162 
Q 984 4106 628 3988 
L 628 4550 
Q 988 4650 1302 4700 
Q 1616 4750 1894 4750 
Q 2613 4750 3031 4423 
Q 3450 4097 3450 3541 
Q 3450 3153 3228 2886 
Q 3006 2619 2597 2516 
z
" transform="scale(0.015625)"/>
        <path id="DejaVuSans-35" d="M 691 4666 
L 3169 4666 
L 3169 4134 
L 1269 4134 
L 1269 2991 
Q 1406 3038 1543 3061 
Q 1681 3084 1819 3084 
Q 2600 3084 3056 2656 
Q 3513 2228 3513 1497 
Q 3513 744 3044 326 
Q 2575 -91 1722 -91 
Q 1428 -91 1123 -41 
Q 819 9 494 109 
L 494 744 
Q 775 591 1075 516 
Q 1375 441 1709 441 
Q 2250 441 2565 725 
Q 2881 1009 2881 1497 
Q 2881 1984 2565 2268 
Q 2250 2553 1709 2553 
Q 1456 2553 1204 2497 
Q 953 2441 691 2322 
L 691 4666 
z
" transform="scale(0.015625)"/>
       </defs>
       <use xlink:href="#DejaVuSans-2212"/>
       <use xlink:href="#DejaVuSans-33" x="83.789062"/>
       <use xlink:href="#DejaVuSans-35" x="147.412109"/>
      </g>
     </g>
    </g>
    <g id="ytick_3">
     <g id="line2d_9">
      <g>
       <use xlink:href="#mcf694f6904" x="57.6" y="235.108974" style="stroke: #000000; stroke-width: 0.8"/>
      </g>
     </g>
     <g id="text_9">
      <!-- −30 -->
      <g transform="translate(29.495313 238.908193) scale(0.1 -0.1)">
       <use xlink:href="#DejaVuSans-2212"/>
       <use xlink:href="#DejaVuSans-33" x="83.789062"/>
       <use xlink:href="#DejaVuSans-30" x="147.412109"/>
      </g>
     </g>
    </g>
    <g id="ytick_4">
     <g id="line2d_10">
      <g>
       <use xlink:href="#mcf694f6904" x="57.6" y="205.273354" style="stroke: #000000; stroke-width: 0.8"/>
      </g>
     </g>
     <g id="text_10">
      <!-- −25 -->
      <g transform="translate(29.495313 209.072573) scale(0.1 -0.1)">
       <use xlink:href="#DejaVuSans-2212"/>
       <use xlink:href="#DejaVuSans-32" x="83.789062"/>
       <use xlink:href="#DejaVuSans-35" x="147.412109"/>
      </g>
     </g>
    </g>
    <g id="ytick_5">
     <g id="line2d_11">
      <g>
       <use xlink:href="#mcf694f6904" x="57.6" y="175.437734" style="stroke: #000000; stroke-width: 0.8"/>
      </g>
     </g>
     <g id="text_11">
      <!-- −20 -->
      <g transform="translate(29.495313 179.236952) scale(0.1 -0.1)">
       <use xlink:href="#DejaVuSans-2212"/>
       <use xlink:href="#DejaVuSans-32" x="83.789062"/>
       <use xlink:href="#DejaVuSans-30" x="147.412109"/>
      </g>
     </g>
    </g>
    <g id="ytick_6">
     <g id="line2d_12">
      <g>
       <use xlink:href="#mcf694f6904" x="57.6" y="145.602113" style="stroke: #000000; stroke-width: 0.8"/>
      </g>
     </g>
     <g id="text_12">
      <!-- −15 -->
      <g transform="translate(29.495313 149.401332) scale(0.1 -0.1)">
       <use xlink:href="#DejaVuSans-2212"/>
       <use xlink:href="#DejaVuSans-31" x="83.789062"/>
       <use xlink:href="#DejaVuSans-35" x="147.412109"/>
      </g>
     </g>
    </g>
    <g id="ytick_7">
     <g id="line2d_13">
      <g>
       <use xlink:href="#mcf694f6904" x="57.6" y="115.766493" style="stroke: #000000; stroke-width: 0.8"/>
      </g>
     </g>
     <g id="text_13">
      <!-- −10 -->
      <g transform="translate(29.495313 119.565712) scale(0.1 -0.1)">
       <use xlink:href="#DejaVuSans-2212"/>
       <use xlink:href="#DejaVuSans-31" x="83.789062"/>
       <use xlink:href="#DejaVuSans-30" x="147.412109"/>
      </g>
     </g>
    </g>
    <g id="ytick_8">
     <g id="line2d_14">
      <g>
       <use xlink:href="#mcf694f6904" x="57.6" y="85.930873" style="stroke: #000000; stroke-width: 0.8"/>
      </g>
     </g>
     <g id="text_14">
      <!-- −5 -->
      <g transform="translate(35.857813 89.730092) scale(0.1 -0.1)">
       <use xlink:href="#DejaVuSans-2212"/>
       <use xlink:href="#DejaVuSans-35" x="83.789062"/>
      </g>
     </g>
    </g>
    <g id="ytick_9">
     <g id="line2d_15">
      <g>
       <use xlink:href="#mcf694f6904" x="57.6" y="56.095253" style="stroke: #000000; stroke-width: 0.8"/>
      </g>
     </g>
     <g id="text_15">
      <!-- 0 -->
      <g transform="translate(44.2375 59.894471) scale(0.1 -0.1)">
       <use xlink:href="#DejaVuSans-30"/>
      </g>
     </g>
    </g>
   </g>
   <g id="line2d_16">
    <path d="M 73.832727 117.378824 
" clip-path="url(#p1944edf31f)" style="fill: none; stroke: #1f77b4; stroke-width: 1.5; stroke-linecap: square"/>
   </g>
   <g id="line2d_17">
    <path d="M 73.832727 117.378824 
L 74.157382 56.095253 
L 74.806691 56.095253 
L 75.131345 60.685943 
L 75.456 56.095253 
L 76.105309 56.095253 
L 76.429964 70.985068 
L 76.754618 116.192962 
L 77.403927 69.549372 
L 77.728582 56.095253 
L 78.053236 56.095253 
L 78.377891 108.311593 
L 78.702545 56.095253 
L 79.0272 56.095253 
L 79.351855 68.521879 
L 79.676509 56.095253 
L 80.001164 57.297344 
L 80.325818 106.743025 
L 80.650473 56.095253 
L 81.624436 56.095253 
L 81.949091 90.948901 
L 82.273745 56.095253 
L 83.247709 56.095253 
L 83.572364 101.115788 
L 83.897018 56.095253 
L 84.221673 70.607667 
L 84.546327 60.189978 
L 84.870982 56.095253 
L 85.195636 86.587954 
L 85.520291 56.095253 
L 85.844945 56.095253 
L 86.1696 61.293591 
L 86.494255 56.095253 
L 86.818909 149.223841 
L 87.143564 56.095253 
L 87.468218 67.727414 
L 87.792873 70.636309 
L 88.117527 151.167668 
L 88.442182 56.439087 
L 89.091491 87.560836 
L 89.416145 120.832245 
L 89.7408 56.095253 
L 90.390109 56.095253 
L 90.714764 63.907042 
L 91.039418 56.095253 
L 91.688727 56.095253 
L 92.013382 111.88354 
L 92.338036 56.095253 
L 93.961309 56.095253 
L 94.285964 53.568 
L 94.610618 89.258005 
L 94.935273 56.095253 
L 95.259927 56.095253 
L 95.584582 59.35837 
L 95.909236 60.987937 
L 96.233891 56.929907 
L 96.558545 76.190965 
L 96.8832 56.095253 
L 97.532509 56.095253 
L 97.857164 56.591768 
L 98.181818 65.579094 
L 98.506473 56.095253 
L 98.831127 70.78336 
L 99.480436 105.388543 
L 99.805091 63.35089 
L 100.129745 73.923101 
L 100.4544 56.095253 
L 100.779055 56.439087 
L 101.103709 56.095253 
L 101.428364 56.095253 
L 101.753018 60.492293 
L 102.077673 56.095253 
L 102.402327 63.35089 
L 102.726982 56.095253 
L 103.051636 64.764884 
L 103.376291 56.439087 
L 103.700945 69.549372 
L 104.0256 64.507566 
L 104.350255 56.095253 
L 104.674909 57.616706 
L 104.999564 56.095253 
L 105.648873 56.095253 
L 105.973527 70.985068 
L 106.298182 56.095253 
L 106.622836 56.095253 
L 106.947491 60.637148 
L 107.272145 56.095253 
L 108.570764 56.095253 
L 108.895418 90.948901 
L 109.220073 56.095253 
L 110.843345 56.095253 
L 111.168 131.886496 
L 111.492655 56.095253 
L 112.466618 56.095253 
L 112.791273 60.431607 
L 113.115927 56.095253 
L 113.440582 70.595627 
L 114.089891 63.907042 
L 114.414545 56.095253 
L 116.037818 56.095253 
L 116.362473 62.301134 
L 116.687127 92.646326 
L 117.011782 56.095253 
L 117.336436 138.07142 
L 117.661091 56.095253 
L 117.985745 59.849012 
L 118.3104 56.095253 
L 119.284364 56.095253 
L 119.609018 65.37823 
L 119.933673 56.591767 
L 120.258327 56.095253 
L 120.582982 56.095253 
L 120.907636 78.972184 
L 121.232291 56.095253 
L 122.206255 56.095253 
L 122.530909 56.785736 
L 122.855564 56.095253 
L 123.180218 117.296668 
L 123.504873 64.723917 
L 123.829527 56.095253 
L 124.478836 68.319678 
L 124.803491 56.095253 
L 125.777455 56.095253 
L 126.102109 56.929907 
L 126.426764 77.886929 
L 126.751418 56.095253 
L 127.076073 56.095253 
L 127.400727 105.100764 
L 127.725382 79.210666 
L 128.050036 182.135451 
L 128.374691 56.095253 
L 128.699345 63.402403 
L 129.024 56.095253 
L 129.348655 147.799869 
L 129.673309 72.670824 
L 129.997964 57.111326 
L 130.322618 56.095253 
L 130.647273 56.095253 
L 130.971927 111.849782 
L 131.296582 56.095253 
L 131.945891 56.095253 
L 132.270545 56.785736 
L 132.5952 56.095253 
L 132.919855 56.095253 
L 133.244509 89.664201 
L 133.569164 56.095253 
L 133.893818 61.293591 
L 134.218473 88.674981 
L 134.543127 74.544651 
L 134.867782 70.985068 
L 135.192436 56.095253 
L 137.789673 56.095253 
L 138.114327 84.531926 
L 138.438982 56.095253 
L 138.763636 56.095253 
L 139.088291 109.748486 
L 139.412945 56.095253 
L 139.7376 61.293591 
L 140.062255 56.095253 
L 140.386909 113.311294 
L 140.711564 56.095253 
L 141.685527 56.095253 
L 142.010182 86.284849 
L 142.334836 91.253485 
L 142.659491 59.020832 
L 142.984145 56.095253 
L 143.633455 56.095253 
L 143.958109 61.293591 
L 144.282764 56.095253 
L 145.256727 56.095253 
L 145.581382 82.024846 
L 145.906036 56.095253 
L 146.555345 56.095253 
L 146.88 81.35239 
L 147.204655 56.095253 
L 149.152582 56.095253 
L 149.477236 68.518742 
L 149.801891 56.095253 
L 152.074473 56.095253 
L 152.399127 98.257575 
L 152.723782 60.987937 
L 153.048436 65.140079 
L 153.373091 56.095253 
L 155.321018 56.095253 
L 155.645673 59.020832 
L 155.970327 56.095253 
L 156.944291 56.095253 
L 157.268945 61.293591 
L 157.5936 56.095253 
L 157.918255 73.628744 
L 158.242909 56.095253 
L 158.567564 79.01091 
L 158.892218 56.095253 
L 159.216873 88.372246 
L 159.541527 170.550274 
L 159.866182 56.095253 
L 160.190836 65.37823 
L 160.515491 111.238316 
L 160.840145 56.095253 
L 162.463418 56.095253 
L 162.788073 66.699383 
L 163.112727 92.783936 
L 163.437382 56.095253 
L 163.762036 56.095253 
L 164.086691 67.079555 
L 164.411345 56.095253 
L 165.060655 70.227076 
L 165.385309 107.979497 
L 165.709964 56.095253 
L 166.034618 56.439087 
L 166.359273 95.004347 
L 166.683927 66.135199 
L 167.008582 56.095253 
L 168.631855 56.095253 
L 168.956509 63.216094 
L 169.281164 56.095253 
L 169.605818 137.919184 
L 169.930473 56.095253 
L 170.904436 56.095253 
L 171.229091 56.929907 
L 171.553745 70.491245 
L 171.8784 56.095253 
L 172.203055 56.095253 
L 172.527709 56.439087 
L 172.852364 56.095253 
L 173.177018 88.674981 
L 173.501673 140.254011 
L 173.826327 56.095253 
L 174.150982 56.095253 
L 174.475636 114.65407 
L 174.800291 56.095253 
L 175.124945 70.985068 
L 175.4496 56.095253 
L 175.774255 57.297344 
L 176.098909 56.095253 
L 176.748218 56.095253 
L 177.072873 60.637148 
L 177.397527 56.095253 
L 179.0208 56.095253 
L 179.345455 60.492293 
L 179.670109 56.095253 
L 179.994764 56.095253 
L 180.319418 56.929907 
L 180.644073 56.095253 
L 180.968727 53.632797 
L 181.618036 69.549372 
L 181.942691 89.801256 
L 182.267345 56.095253 
L 182.592 88.454128 
L 183.241309 56.095253 
L 183.565964 56.095253 
L 183.890618 92.861504 
L 184.215273 56.095253 
L 185.513891 56.095253 
L 185.838545 60.987937 
L 186.1632 107.325139 
L 186.487855 74.366844 
L 186.812509 56.095253 
L 187.461818 56.095253 
L 187.786473 71.391817 
L 188.111127 56.095253 
L 188.435782 57.297344 
L 188.760436 103.775744 
L 189.085091 56.095253 
L 190.059055 56.095253 
L 190.383709 70.607667 
L 190.708364 58.662496 
L 191.033018 56.095253 
L 191.357673 61.293591 
L 191.682327 56.095253 
L 194.279564 56.095253 
L 194.604218 84.420007 
L 194.928873 56.095253 
L 196.552145 56.095253 
L 196.8768 65.347608 
L 197.201455 56.095253 
L 197.526109 64.481682 
L 197.850764 89.469472 
L 198.175418 54.058999 
L 198.500073 64.723917 
L 198.824727 56.095253 
L 199.149382 56.095253 
L 199.474036 56.591767 
L 199.798691 61.293591 
L 200.123345 89.801256 
L 200.448 56.439087 
L 200.772655 56.095253 
L 201.097309 56.591767 
L 201.421964 56.095253 
L 202.071273 56.095253 
L 202.395927 123.185749 
L 202.720582 60.431607 
L 203.045236 56.095253 
L 203.369891 60.492293 
L 203.694545 56.929907 
L 204.0192 60.987937 
L 204.343855 56.929907 
L 204.668509 56.095253 
L 205.317818 56.095253 
L 205.642473 84.606299 
L 205.967127 56.095253 
L 206.616436 56.095253 
L 206.941091 90.717802 
L 207.265745 56.095253 
L 207.915055 56.095253 
L 208.239709 60.987937 
L 208.564364 56.095253 
L 210.187636 56.095253 
L 210.512291 74.120813 
L 210.836945 84.681483 
L 211.1616 56.095253 
L 211.486255 88.674981 
L 211.810909 224.303626 
L 212.135564 225.622113 
L 212.460218 109.79921 
L 212.784873 56.095253 
L 213.109527 71.375092 
L 213.434182 123.674516 
L 213.758836 56.095253 
L 214.083491 56.591768 
L 214.408145 295.488 
L 214.7328 273.332196 
L 215.057455 56.095253 
L 215.382109 221.219571 
L 215.706764 66.624491 
L 216.031418 65.510305 
L 216.356073 65.826198 
L 216.680727 65.021128 
L 217.005382 59.713506 
L 217.330036 56.929907 
L 217.979345 63.354178 
L 218.304 56.095253 
L 218.628655 59.034776 
L 218.953309 58.639769 
L 219.277964 61.000528 
L 219.602618 56.791772 
L 219.927273 56.755216 
L 220.251927 60.592835 
L 220.576582 57.124181 
L 220.901236 58.201778 
L 221.225891 58.588344 
L 221.550545 56.755216 
L 221.8752 59.771196 
L 222.199855 61.129698 
L 222.524509 56.755216 
L 223.173818 59.771196 
L 223.498473 59.832914 
L 223.823127 57.105465 
L 224.147782 57.46944 
L 224.472436 59.403693 
L 224.797091 59.952384 
L 225.4464 59.952384 
L 225.771055 59.066342 
L 226.095709 59.952384 
L 226.420364 56.41853 
L 226.745018 59.832914 
L 227.069673 59.952384 
L 227.394327 59.952384 
L 227.718982 57.46944 
L 228.043636 59.952384 
L 228.368291 58.239293 
L 228.692945 59.501866 
L 229.0176 59.952384 
L 229.342255 57.84732 
L 229.666909 59.952384 
L 229.991564 56.755216 
L 230.316218 59.952384 
L 230.965527 59.952384 
L 231.614836 58.213676 
L 231.939491 56.095253 
L 232.264145 59.952384 
L 232.5888 59.952384 
L 232.913455 57.105465 
L 233.238109 59.952384 
L 237.458618 59.952384 
L 237.783273 56.755216 
L 238.107927 56.095253 
L 238.432582 59.952384 
L 243.627055 59.952384 
L 243.951709 58.239293 
L 244.276364 59.952384 
L 257.262545 59.952384 
L 257.5872 57.105465 
L 257.911855 59.952384 
L 258.561164 59.952384 
L 259.210473 56.095253 
L 259.535127 57.46944 
L 259.859782 57.46944 
L 260.184436 56.41853 
L 260.509091 56.095253 
L 260.833745 58.239293 
L 261.1584 56.095253 
L 261.483055 59.952384 
L 261.807709 56.755216 
L 262.132364 56.755216 
L 262.457018 56.41853 
L 262.781673 59.066342 
L 263.106327 56.755216 
L 263.430982 56.095253 
L 263.755636 59.952384 
L 264.080291 56.755216 
L 264.404945 56.41853 
L 264.7296 59.952384 
L 265.378909 59.952384 
L 265.703564 57.46944 
L 266.028218 59.952384 
L 266.352873 59.952384 
L 266.677527 56.41853 
L 267.002182 57.46944 
L 267.326836 57.105465 
L 267.651491 59.952384 
L 267.976145 59.952384 
L 268.3008 58.239293 
L 268.625455 59.952384 
L 268.950109 56.095253 
L 269.274764 57.84732 
L 269.599418 57.105465 
L 269.924073 58.239293 
L 270.573382 57.46944 
L 270.898036 56.095253 
L 271.222691 56.755216 
L 271.547345 56.41853 
L 271.872 56.755216 
L 272.196655 56.41853 
L 272.521309 59.952384 
L 272.845964 56.41853 
L 273.170618 59.952384 
L 273.495273 56.095253 
L 273.819927 56.095253 
L 274.144582 59.952384 
L 274.469236 57.84732 
L 275.118545 56.41853 
L 275.4432 56.755216 
L 275.767855 56.095253 
L 276.092509 57.105465 
L 276.417164 59.952384 
L 276.741818 59.066342 
L 277.066473 56.755216 
L 277.391127 57.105465 
L 277.715782 57.84732 
L 278.040436 57.84732 
L 278.365091 58.239293 
L 278.689745 56.41853 
L 279.0144 56.095253 
L 279.339055 56.755216 
L 279.663709 56.41853 
L 279.988364 57.105465 
L 280.313018 56.755216 
L 280.962327 59.952384 
L 281.286982 56.41853 
L 281.611636 56.755216 
L 281.936291 59.501866 
L 282.260945 58.645561 
L 282.5856 59.952384 
L 282.910255 59.952384 
L 283.234909 56.095253 
L 283.884218 59.952384 
L 284.208873 57.105465 
L 284.533527 59.952384 
L 284.858182 57.46944 
L 285.182836 59.066342 
L 285.507491 59.501866 
L 285.832145 59.066342 
L 286.1568 56.41853 
L 286.481455 58.645561 
L 286.806109 57.84732 
L 287.130764 59.952384 
L 287.455418 56.41853 
L 287.780073 56.095253 
L 288.104727 58.645561 
L 288.429382 56.41853 
L 289.078691 56.41853 
L 289.403345 59.952384 
L 289.728 59.952384 
L 290.052655 56.41853 
L 290.377309 59.952384 
L 290.701964 59.066342 
L 291.026618 59.952384 
L 291.351273 57.105465 
L 291.675927 59.066342 
L 292.000582 56.755216 
L 292.325236 59.952384 
L 292.649891 58.645561 
L 292.974545 59.952384 
L 293.2992 56.41853 
L 293.623855 57.46944 
L 294.273164 56.755216 
L 294.597818 59.501866 
L 294.922473 57.46944 
L 295.247127 59.952384 
L 295.571782 56.755216 
L 295.896436 59.952384 
L 296.545745 59.952384 
L 296.8704 59.066342 
L 297.195055 59.952384 
L 297.844364 59.952384 
L 298.169018 57.105465 
L 298.493673 56.41853 
L 298.818327 59.952384 
L 299.792291 59.952384 
L 300.116945 57.84732 
L 300.4416 59.952384 
L 300.766255 56.755216 
L 301.090909 59.952384 
L 302.389527 59.952384 
L 302.714182 57.84732 
L 303.038836 59.952384 
L 303.688145 59.952384 
L 304.0128 58.645561 
L 304.337455 59.952384 
L 304.986764 59.952384 
L 305.311418 57.46944 
L 305.636073 59.952384 
L 305.960727 56.41853 
L 306.285382 59.952384 
L 306.610036 57.46944 
L 306.934691 56.755216 
L 307.259345 59.952384 
L 307.584 59.952384 
L 307.908655 56.41853 
L 308.233309 59.952384 
L 308.557964 56.755216 
L 308.882618 59.952384 
L 310.830545 59.952384 
L 311.1552 66.649566 
L 311.479855 130.659981 
L 311.804509 66.390729 
L 312.129164 75.961452 
L 312.453818 63.561811 
L 312.778473 130.659981 
L 314.7264 130.659981 
L 315.051055 122.220902 
L 315.375709 130.659981 
L 316.025018 130.659981 
L 316.349673 88.086455 
L 316.674327 98.864948 
L 316.998982 130.659981 
L 317.323636 63.561811 
L 317.648291 73.534727 
L 317.972945 66.13554 
L 318.2976 71.72832 
L 318.622255 69.770728 
L 318.946909 75.117344 
L 319.271564 124.682089 
L 319.596218 68.002316 
L 319.920873 74.30936 
L 320.245527 68.572943 
L 320.570182 71.72832 
L 320.894836 81.988452 
L 321.219491 68.865103 
L 321.544145 130.659981 
L 321.8688 72.429931 
L 322.193455 66.912161 
L 322.518109 65.273103 
L 322.842764 66.390729 
L 323.167418 61.029641 
L 323.492073 90.572044 
L 323.816727 98.864948 
L 324.141382 75.117344 
L 324.466036 90.572044 
L 324.790691 62.713066 
L 325.115345 130.659981 
L 325.44 71.052378 
L 325.764655 68.572943 
L 326.089309 79.767228 
L 326.738618 64.415175 
L 327.063273 74.30936 
L 327.387927 72.429931 
L 327.712582 67.723578 
L 328.037236 88.884739 
L 328.361891 62.713066 
L 328.686545 130.659981 
L 329.0112 81.409618 
L 329.335855 62.713066 
L 329.660509 81.988452 
L 329.985164 58.540391 
L 330.309818 93.360265 
L 330.634473 72.790953 
L 330.959127 68.865103 
L 331.283782 71.72832 
L 331.608436 62.713066 
L 331.933091 72.429931 
L 332.257745 130.659981 
L 332.5824 130.659981 
L 333.231709 58.540391 
L 333.556364 70.082847 
L 333.881018 75.117344 
L 334.205673 59.365295 
L 334.530327 67.178619 
L 334.854982 69.162018 
L 335.179636 70.400372 
L 335.504291 57.72039 
L 335.828945 93.360265 
L 336.1536 73.159128 
L 336.478255 117.174065 
L 336.802909 130.659981 
L 337.127564 70.723485 
L 337.452218 61.029641 
L 337.776873 130.659981 
L 338.101527 56.905331 
L 338.426182 119.508304 
L 338.750836 67.178619 
L 339.075491 78.251085 
L 339.400145 83.83079 
L 339.7248 61.029641 
L 340.049455 74.709017 
L 340.374109 76.844791 
L 340.698764 130.659981 
L 341.023418 70.400372 
L 341.348073 130.659981 
L 341.672727 102.834165 
L 341.997382 130.659981 
L 342.322036 68.285393 
L 342.646691 80.846981 
L 342.971345 85.852751 
L 343.296 130.659981 
L 343.620655 66.390729 
L 343.945309 69.770728 
L 344.269964 92.393562 
L 344.594618 70.082847 
L 344.919273 68.002316 
L 345.243927 67.723578 
L 345.568582 81.988452 
L 345.893236 73.534727 
L 346.217891 68.865103 
L 346.542545 69.770728 
L 346.8672 57.72039 
L 347.191855 107.461942 
L 347.516509 64.415175 
L 347.841164 90.572044 
L 348.165818 61.029641 
L 348.490473 56.905331 
L 348.815127 130.659981 
L 349.139782 78.743514 
L 349.464436 57.72039 
L 349.789091 66.13554 
L 350.113745 62.713066 
L 350.4384 74.30936 
L 350.763055 130.659981 
L 351.087709 86.571996 
L 351.412364 61.868993 
L 352.061673 76.39801 
L 352.386327 130.659981 
L 352.710982 66.912161 
L 353.035636 130.659981 
L 353.360291 82.58432 
L 353.684945 77.77084 
L 354.0096 70.723485 
L 354.334255 95.418575 
L 354.658909 85.852751 
L 354.983564 130.659981 
L 355.308218 61.029641 
L 355.632873 70.400372 
L 355.957527 73.534727 
L 356.282182 130.659981 
L 356.606836 66.649566 
L 356.931491 62.713066 
L 357.256145 68.285393 
L 357.5808 71.72832 
L 357.905455 66.13554 
L 358.554764 130.659981 
L 358.879418 65.273103 
L 359.204073 61.029641 
L 359.528727 71.052378 
L 359.853382 72.075801 
L 360.178036 56.905331 
L 360.502691 68.865103 
L 360.827345 68.285393 
L 361.152 74.30936 
L 361.476655 56.905331 
L 361.801309 130.659981 
L 362.125964 67.178619 
L 362.450618 93.360265 
L 362.775273 130.659981 
L 363.099927 130.659981 
L 363.424582 56.095253 
L 363.749236 112.933582 
L 364.073891 130.659981 
L 364.398545 130.659981 
L 364.7232 66.649566 
L 365.047855 130.659981 
L 366.021818 130.659981 
L 366.346473 73.918037 
L 366.671127 114.987009 
L 366.995782 104.295639 
L 367.320436 65.273103 
L 367.645091 68.285393 
L 367.969745 59.365295 
L 368.2944 104.295639 
L 368.619055 59.365295 
L 368.943709 91.46495 
L 369.268364 79.248693 
L 369.593018 82.58432 
L 369.917673 122.005124 
L 370.242327 65.273103 
L 370.566982 68.002316 
L 370.891636 67.449052 
L 371.216291 88.086455 
L 371.540945 69.770728 
L 371.8656 58.540391 
L 372.190255 66.390729 
L 372.514909 62.713066 
L 372.839564 74.30936 
L 373.164218 61.868993 
L 373.488873 130.659981 
L 373.813527 83.198114 
L 374.138182 65.273103 
L 374.462836 130.659981 
L 374.787491 130.659981 
L 375.112145 81.409618 
L 375.4368 61.029641 
L 375.761455 130.659981 
L 376.086109 130.659981 
L 376.410764 65.273103 
L 376.735418 130.659981 
L 377.060073 63.561811 
L 377.384727 68.285393 
L 377.709382 130.659981 
L 378.034036 69.162018 
L 378.358691 130.659981 
L 378.683345 83.198114 
L 379.008 130.659981 
L 379.332655 130.659981 
L 379.657309 81.988452 
L 379.981964 65.273103 
L 380.306618 130.659981 
L 380.631273 66.13554 
L 380.955927 130.659981 
L 381.280582 68.865103 
L 381.605236 130.659981 
L 381.929891 69.770728 
L 382.254545 130.659981 
L 382.5792 130.659981 
L 382.903855 56.905331 
L 383.228509 130.659981 
L 383.553164 71.387253 
L 383.877818 89.712647 
L 384.202473 130.659981 
L 384.527127 95.418575 
L 384.851782 130.659981 
L 385.176436 83.83079 
L 385.501091 130.659981 
L 385.825745 87.316072 
L 386.1504 130.659981 
L 386.475055 70.723485 
L 386.799709 130.659981 
L 387.124364 130.659981 
L 387.449018 74.30936 
L 387.773673 83.83079 
L 388.098327 70.400372 
L 388.422982 130.659981 
L 388.747636 70.400372 
L 389.072291 65.273103 
L 389.396945 73.918037 
L 389.7216 70.082847 
L 390.046255 95.418575 
L 390.370909 70.723485 
L 390.695564 130.659981 
L 391.344873 79.767228 
L 391.669527 130.659981 
L 391.994182 69.46384 
L 392.318836 130.659981 
L 393.2928 130.659981 
L 393.617455 66.390729 
L 393.942109 130.659981 
L 394.266764 130.659981 
L 394.591418 57.72039 
L 394.916073 130.659981 
L 395.565382 130.659981 
L 395.890036 67.449052 
L 396.214691 130.659981 
L 396.864 130.659981 
L 397.188655 56.905331 
L 397.513309 57.72039 
L 397.837964 67.723578 
L 398.162618 130.659981 
L 398.487273 130.659981 
L 398.487273 130.659981 
" clip-path="url(#p1944edf31f)" style="fill: none; stroke: #ff7f0e; stroke-width: 1.5; stroke-linecap: square"/>
   </g>
   <g id="patch_3">
    <path d="M 57.6 307.584 
L 57.6 41.472 
" style="fill: none; stroke: #000000; stroke-width: 0.8; stroke-linejoin: miter; stroke-linecap: square"/>
   </g>
   <g id="patch_4">
    <path d="M 414.72 307.584 
L 414.72 41.472 
" style="fill: none; stroke: #000000; stroke-width: 0.8; stroke-linejoin: miter; stroke-linecap: square"/>
   </g>
   <g id="patch_5">
    <path d="M 57.6 307.584 
L 414.72 307.584 
" style="fill: none; stroke: #000000; stroke-width: 0.8; stroke-linejoin: miter; stroke-linecap: square"/>
   </g>
   <g id="patch_6">
    <path d="M 57.6 41.472 
L 414.72 41.472 
" style="fill: none; stroke: #000000; stroke-width: 0.8; stroke-linejoin: miter; stroke-linecap: square"/>
   </g>
  </g>
 </g>
 <defs>
  <clipPath id="p1944edf31f">
   <rect x="57.6" y="41.472" width="357.12" height="266.112"/>
  </clipPath>
 </defs>
</svg>
