<?xml version="1.0" encoding="utf-8" standalone="no"?>
<!DOCTYPE svg PUBLIC "-//W3C//DTD SVG 1.1//EN"
  "http://www.w3.org/Graphics/SVG/1.1/DTD/svg11.dtd">
<svg xmlns:xlink="http://www.w3.org/1999/xlink" width="460.8pt" height="345.6pt" viewBox="0 0 460.8 345.6" xmlns="http://www.w3.org/2000/svg" version="1.1">
 <metadata>
  <rdf:RDF xmlns:dc="http://purl.org/dc/elements/1.1/" xmlns:cc="http://creativecommons.org/ns#" xmlns:rdf="http://www.w3.org/1999/02/22-rdf-syntax-ns#">
   <cc:Work>
    <dc:type rdf:resource="http://purl.org/dc/dcmitype/StillImage"/>
    <dc:date>2024-04-28T13:47:17.039792</dc:date>
    <dc:format>image/svg+xml</dc:format>
    <dc:creator>
     <cc:Agent>
      <dc:title>Matplotlib v3.8.2, https://matplotlib.org/</dc:title>
     </cc:Agent>
    </dc:creator>
   </cc:Work>
  </rdf:RDF>
 </metadata>
 <defs>
  <style type="text/css">*{stroke-linejoin: round; stroke-linecap: butt}</style>
 </defs>
 <g id="figure_1">
  <g id="patch_1">
   <path d="M 0 345.6 
L 460.8 345.6 
L 460.8 0 
L 0 0 
z
" style="fill: #ffffff"/>
  </g>
  <g id="axes_1">
   <g id="patch_2">
    <path d="M 57.6 307.584 
L 414.72 307.584 
L 414.72 41.472 
L 57.6 41.472 
z
" style="fill: #ffffff"/>
   </g>
   <g id="matplotlib.axis_1">
    <g id="xtick_1">
     <g id="line2d_1">
      <defs>
       <path id="m059862eab3" d="M 0 0 
L 0 3.5 
" style="stroke: #000000; stroke-width: 0.8"/>
      </defs>
      <g>
       <use xlink:href="#m059862eab3" x="73.832727" y="307.584" style="stroke: #000000; stroke-width: 0.8"/>
      </g>
     </g>
     <g id="text_1">
      <!-- 0 -->
      <g transform="translate(70.651477 322.182437) scale(0.1 -0.1)">
       <defs>
        <path id="DejaVuSans-30" d="M 2034 4250 
Q 1547 4250 1301 3770 
Q 1056 3291 1056 2328 
Q 1056 1369 1301 889 
Q 1547 409 2034 409 
Q 2525 409 2770 889 
Q 3016 1369 3016 2328 
Q 3016 3291 2770 3770 
Q 2525 4250 2034 4250 
z
M 2034 4750 
Q 2819 4750 3233 4129 
Q 3647 3509 3647 2328 
Q 3647 1150 3233 529 
Q 2819 -91 2034 -91 
Q 1250 -91 836 529 
Q 422 1150 422 2328 
Q 422 3509 836 4129 
Q 1250 4750 2034 4750 
z
" transform="scale(0.015625)"/>
       </defs>
       <use xlink:href="#DejaVuSans-30"/>
      </g>
     </g>
    </g>
    <g id="xtick_2">
     <g id="line2d_2">
      <g>
       <use xlink:href="#m059862eab3" x="127.941818" y="307.584" style="stroke: #000000; stroke-width: 0.8"/>
      </g>
     </g>
     <g id="text_2">
      <!-- 50 -->
      <g transform="translate(121.579318 322.182437) scale(0.1 -0.1)">
       <defs>
        <path id="DejaVuSans-35" d="M 691 4666 
L 3169 4666 
L 3169 4134 
L 1269 4134 
L 1269 2991 
Q 1406 3038 1543 3061 
Q 1681 3084 1819 3084 
Q 2600 3084 3056 2656 
Q 3513 2228 3513 1497 
Q 3513 744 3044 326 
Q 2575 -91 1722 -91 
Q 1428 -91 1123 -41 
Q 819 9 494 109 
L 494 744 
Q 775 591 1075 516 
Q 1375 441 1709 441 
Q 2250 441 2565 725 
Q 2881 1009 2881 1497 
Q 2881 1984 2565 2268 
Q 2250 2553 1709 2553 
Q 1456 2553 1204 2497 
Q 953 2441 691 2322 
L 691 4666 
z
" transform="scale(0.015625)"/>
       </defs>
       <use xlink:href="#DejaVuSans-35"/>
       <use xlink:href="#DejaVuSans-30" x="63.623047"/>
      </g>
     </g>
    </g>
    <g id="xtick_3">
     <g id="line2d_3">
      <g>
       <use xlink:href="#m059862eab3" x="182.050909" y="307.584" style="stroke: #000000; stroke-width: 0.8"/>
      </g>
     </g>
     <g id="text_3">
      <!-- 100 -->
      <g transform="translate(172.507159 322.182437) scale(0.1 -0.1)">
       <defs>
        <path id="DejaVuSans-31" d="M 794 531 
L 1825 531 
L 1825 4091 
L 703 3866 
L 703 4441 
L 1819 4666 
L 2450 4666 
L 2450 531 
L 3481 531 
L 3481 0 
L 794 0 
L 794 531 
z
" transform="scale(0.015625)"/>
       </defs>
       <use xlink:href="#DejaVuSans-31"/>
       <use xlink:href="#DejaVuSans-30" x="63.623047"/>
       <use xlink:href="#DejaVuSans-30" x="127.246094"/>
      </g>
     </g>
    </g>
    <g id="xtick_4">
     <g id="line2d_4">
      <g>
       <use xlink:href="#m059862eab3" x="236.16" y="307.584" style="stroke: #000000; stroke-width: 0.8"/>
      </g>
     </g>
     <g id="text_4">
      <!-- 150 -->
      <g transform="translate(226.61625 322.182437) scale(0.1 -0.1)">
       <use xlink:href="#DejaVuSans-31"/>
       <use xlink:href="#DejaVuSans-35" x="63.623047"/>
       <use xlink:href="#DejaVuSans-30" x="127.246094"/>
      </g>
     </g>
    </g>
    <g id="xtick_5">
     <g id="line2d_5">
      <g>
       <use xlink:href="#m059862eab3" x="290.269091" y="307.584" style="stroke: #000000; stroke-width: 0.8"/>
      </g>
     </g>
     <g id="text_5">
      <!-- 200 -->
      <g transform="translate(280.725341 322.182437) scale(0.1 -0.1)">
       <defs>
        <path id="DejaVuSans-32" d="M 1228 531 
L 3431 531 
L 3431 0 
L 469 0 
L 469 531 
Q 828 903 1448 1529 
Q 2069 2156 2228 2338 
Q 2531 2678 2651 2914 
Q 2772 3150 2772 3378 
Q 2772 3750 2511 3984 
Q 2250 4219 1831 4219 
Q 1534 4219 1204 4116 
Q 875 4013 500 3803 
L 500 4441 
Q 881 4594 1212 4672 
Q 1544 4750 1819 4750 
Q 2544 4750 2975 4387 
Q 3406 4025 3406 3419 
Q 3406 3131 3298 2873 
Q 3191 2616 2906 2266 
Q 2828 2175 2409 1742 
Q 1991 1309 1228 531 
z
" transform="scale(0.015625)"/>
       </defs>
       <use xlink:href="#DejaVuSans-32"/>
       <use xlink:href="#DejaVuSans-30" x="63.623047"/>
       <use xlink:href="#DejaVuSans-30" x="127.246094"/>
      </g>
     </g>
    </g>
    <g id="xtick_6">
     <g id="line2d_6">
      <g>
       <use xlink:href="#m059862eab3" x="344.378182" y="307.584" style="stroke: #000000; stroke-width: 0.8"/>
      </g>
     </g>
     <g id="text_6">
      <!-- 250 -->
      <g transform="translate(334.834432 322.182437) scale(0.1 -0.1)">
       <use xlink:href="#DejaVuSans-32"/>
       <use xlink:href="#DejaVuSans-35" x="63.623047"/>
       <use xlink:href="#DejaVuSans-30" x="127.246094"/>
      </g>
     </g>
    </g>
    <g id="xtick_7">
     <g id="line2d_7">
      <g>
       <use xlink:href="#m059862eab3" x="398.487273" y="307.584" style="stroke: #000000; stroke-width: 0.8"/>
      </g>
     </g>
     <g id="text_7">
      <!-- 300 -->
      <g transform="translate(388.943523 322.182437) scale(0.1 -0.1)">
       <defs>
        <path id="DejaVuSans-33" d="M 2597 2516 
Q 3050 2419 3304 2112 
Q 3559 1806 3559 1356 
Q 3559 666 3084 287 
Q 2609 -91 1734 -91 
Q 1441 -91 1130 -33 
Q 819 25 488 141 
L 488 750 
Q 750 597 1062 519 
Q 1375 441 1716 441 
Q 2309 441 2620 675 
Q 2931 909 2931 1356 
Q 2931 1769 2642 2001 
Q 2353 2234 1838 2234 
L 1294 2234 
L 1294 2753 
L 1863 2753 
Q 2328 2753 2575 2939 
Q 2822 3125 2822 3475 
Q 2822 3834 2567 4026 
Q 2313 4219 1838 4219 
Q 1578 4219 1281 4162 
Q 984 4106 628 3988 
L 628 4550 
Q 988 4650 1302 4700 
Q 1616 4750 1894 4750 
Q 2613 4750 3031 4423 
Q 3450 4097 3450 3541 
Q 3450 3153 3228 2886 
Q 3006 2619 2597 2516 
z
" transform="scale(0.015625)"/>
       </defs>
       <use xlink:href="#DejaVuSans-33"/>
       <use xlink:href="#DejaVuSans-30" x="63.623047"/>
       <use xlink:href="#DejaVuSans-30" x="127.246094"/>
      </g>
     </g>
    </g>
   </g>
   <g id="matplotlib.axis_2">
    <g id="ytick_1">
     <g id="line2d_8">
      <defs>
       <path id="m4a54d053e6" d="M 0 0 
L -3.5 0 
" style="stroke: #000000; stroke-width: 0.8"/>
      </defs>
      <g>
       <use xlink:href="#m4a54d053e6" x="57.6" y="295.910671" style="stroke: #000000; stroke-width: 0.8"/>
      </g>
     </g>
     <g id="text_8">
      <!-- −80 -->
      <g transform="translate(29.495313 299.709889) scale(0.1 -0.1)">
       <defs>
        <path id="DejaVuSans-2212" d="M 678 2272 
L 4684 2272 
L 4684 1741 
L 678 1741 
L 678 2272 
z
" transform="scale(0.015625)"/>
        <path id="DejaVuSans-38" d="M 2034 2216 
Q 1584 2216 1326 1975 
Q 1069 1734 1069 1313 
Q 1069 891 1326 650 
Q 1584 409 2034 409 
Q 2484 409 2743 651 
Q 3003 894 3003 1313 
Q 3003 1734 2745 1975 
Q 2488 2216 2034 2216 
z
M 1403 2484 
Q 997 2584 770 2862 
Q 544 3141 544 3541 
Q 544 4100 942 4425 
Q 1341 4750 2034 4750 
Q 2731 4750 3128 4425 
Q 3525 4100 3525 3541 
Q 3525 3141 3298 2862 
Q 3072 2584 2669 2484 
Q 3125 2378 3379 2068 
Q 3634 1759 3634 1313 
Q 3634 634 3220 271 
Q 2806 -91 2034 -91 
Q 1263 -91 848 271 
Q 434 634 434 1313 
Q 434 1759 690 2068 
Q 947 2378 1403 2484 
z
M 1172 3481 
Q 1172 3119 1398 2916 
Q 1625 2713 2034 2713 
Q 2441 2713 2670 2916 
Q 2900 3119 2900 3481 
Q 2900 3844 2670 4047 
Q 2441 4250 2034 4250 
Q 1625 4250 1398 4047 
Q 1172 3844 1172 3481 
z
" transform="scale(0.015625)"/>
       </defs>
       <use xlink:href="#DejaVuSans-2212"/>
       <use xlink:href="#DejaVuSans-38" x="83.789062"/>
       <use xlink:href="#DejaVuSans-30" x="147.412109"/>
      </g>
     </g>
    </g>
    <g id="ytick_2">
     <g id="line2d_9">
      <g>
       <use xlink:href="#m4a54d053e6" x="57.6" y="246.820863" style="stroke: #000000; stroke-width: 0.8"/>
      </g>
     </g>
     <g id="text_9">
      <!-- −60 -->
      <g transform="translate(29.495313 250.620081) scale(0.1 -0.1)">
       <defs>
        <path id="DejaVuSans-36" d="M 2113 2584 
Q 1688 2584 1439 2293 
Q 1191 2003 1191 1497 
Q 1191 994 1439 701 
Q 1688 409 2113 409 
Q 2538 409 2786 701 
Q 3034 994 3034 1497 
Q 3034 2003 2786 2293 
Q 2538 2584 2113 2584 
z
M 3366 4563 
L 3366 3988 
Q 3128 4100 2886 4159 
Q 2644 4219 2406 4219 
Q 1781 4219 1451 3797 
Q 1122 3375 1075 2522 
Q 1259 2794 1537 2939 
Q 1816 3084 2150 3084 
Q 2853 3084 3261 2657 
Q 3669 2231 3669 1497 
Q 3669 778 3244 343 
Q 2819 -91 2113 -91 
Q 1303 -91 875 529 
Q 447 1150 447 2328 
Q 447 3434 972 4092 
Q 1497 4750 2381 4750 
Q 2619 4750 2861 4703 
Q 3103 4656 3366 4563 
z
" transform="scale(0.015625)"/>
       </defs>
       <use xlink:href="#DejaVuSans-2212"/>
       <use xlink:href="#DejaVuSans-36" x="83.789062"/>
       <use xlink:href="#DejaVuSans-30" x="147.412109"/>
      </g>
     </g>
    </g>
    <g id="ytick_3">
     <g id="line2d_10">
      <g>
       <use xlink:href="#m4a54d053e6" x="57.6" y="197.731054" style="stroke: #000000; stroke-width: 0.8"/>
      </g>
     </g>
     <g id="text_10">
      <!-- −40 -->
      <g transform="translate(29.495313 201.530273) scale(0.1 -0.1)">
       <defs>
        <path id="DejaVuSans-34" d="M 2419 4116 
L 825 1625 
L 2419 1625 
L 2419 4116 
z
M 2253 4666 
L 3047 4666 
L 3047 1625 
L 3713 1625 
L 3713 1100 
L 3047 1100 
L 3047 0 
L 2419 0 
L 2419 1100 
L 313 1100 
L 313 1709 
L 2253 4666 
z
" transform="scale(0.015625)"/>
       </defs>
       <use xlink:href="#DejaVuSans-2212"/>
       <use xlink:href="#DejaVuSans-34" x="83.789062"/>
       <use xlink:href="#DejaVuSans-30" x="147.412109"/>
      </g>
     </g>
    </g>
    <g id="ytick_4">
     <g id="line2d_11">
      <g>
       <use xlink:href="#m4a54d053e6" x="57.6" y="148.641246" style="stroke: #000000; stroke-width: 0.8"/>
      </g>
     </g>
     <g id="text_11">
      <!-- −20 -->
      <g transform="translate(29.495313 152.440465) scale(0.1 -0.1)">
       <use xlink:href="#DejaVuSans-2212"/>
       <use xlink:href="#DejaVuSans-32" x="83.789062"/>
       <use xlink:href="#DejaVuSans-30" x="147.412109"/>
      </g>
     </g>
    </g>
    <g id="ytick_5">
     <g id="line2d_12">
      <g>
       <use xlink:href="#m4a54d053e6" x="57.6" y="99.551438" style="stroke: #000000; stroke-width: 0.8"/>
      </g>
     </g>
     <g id="text_12">
      <!-- 0 -->
      <g transform="translate(44.2375 103.350657) scale(0.1 -0.1)">
       <use xlink:href="#DejaVuSans-30"/>
      </g>
     </g>
    </g>
    <g id="ytick_6">
     <g id="line2d_13">
      <g>
       <use xlink:href="#m4a54d053e6" x="57.6" y="50.46163" style="stroke: #000000; stroke-width: 0.8"/>
      </g>
     </g>
     <g id="text_13">
      <!-- 20 -->
      <g transform="translate(37.875 54.260849) scale(0.1 -0.1)">
       <use xlink:href="#DejaVuSans-32"/>
       <use xlink:href="#DejaVuSans-30" x="63.623047"/>
      </g>
     </g>
    </g>
   </g>
   <g id="line2d_14">
    <path d="M 73.832727 93.650968 
" clip-path="url(#p0c6ccb7d7a)" style="fill: none; stroke: #1f77b4; stroke-width: 1.5; stroke-linecap: square"/>
   </g>
   <g id="line2d_15">
    <path d="M 73.832727 93.650968 
L 74.914909 90.426623 
L 75.997091 72.678373 
L 77.079273 97.032846 
L 78.161455 98.732964 
L 79.243636 70.295187 
L 80.325818 97.46275 
L 81.408 84.860932 
L 82.490182 93.768103 
L 83.572364 82.193087 
L 84.654545 85.743446 
L 85.736727 78.161443 
L 86.818909 81.568853 
L 87.901091 83.944947 
L 88.983273 93.541393 
L 90.065455 84.689091 
L 91.147636 94.600045 
L 92.229818 295.488 
L 93.312 84.093796 
L 94.394182 85.354792 
L 95.476364 84.538862 
L 96.558545 83.957126 
L 97.640727 84.579594 
L 98.722909 86.043747 
L 99.805091 93.950171 
L 100.887273 73.344115 
L 101.969455 84.827722 
L 103.051636 93.445917 
L 104.133818 85.134709 
L 105.216 85.228838 
L 106.298182 86.300855 
L 107.380364 85.001853 
L 108.462545 85.75759 
L 109.544727 85.579546 
L 110.626909 95.159727 
L 111.709091 85.448014 
L 112.791273 84.773033 
L 113.873455 86.019062 
L 114.955636 86.432231 
L 116.037818 126.057591 
L 117.12 87.265483 
L 118.202182 85.559259 
L 119.284364 85.711179 
L 120.366545 85.80482 
L 121.448727 85.805585 
L 122.530909 85.760288 
L 123.613091 87.155907 
L 124.695273 86.584616 
L 125.777455 86.550784 
L 126.859636 87.185416 
L 127.941818 85.767876 
L 129.024 85.791757 
L 130.106182 88.102049 
L 131.188364 87.84845 
L 132.270545 87.11348 
L 133.352727 76.303231 
L 134.434909 87.696935 
L 135.517091 65.894473 
L 136.599273 88.764751 
L 137.681455 87.195554 
L 138.763636 90.004003 
L 139.845818 88.45533 
L 140.928 88.192507 
L 142.010182 88.797595 
L 143.092364 88.205722 
L 144.174545 88.831577 
L 145.256727 94.376569 
L 146.338909 88.328285 
L 147.421091 93.186933 
L 148.503273 88.415569 
L 149.585455 87.155963 
L 150.667636 89.598736 
L 151.749818 91.252365 
L 152.832 88.083743 
L 153.914182 88.50267 
L 154.996364 145.036826 
L 156.078545 96.706576 
L 157.160727 63.71517 
L 158.242909 66.278825 
L 159.325091 88.830301 
L 160.407273 88.005967 
L 161.489455 89.531421 
L 162.571636 90.57696 
L 163.653818 89.095838 
L 164.736 90.414877 
L 165.818182 89.556194 
L 166.900364 181.27665 
L 167.982545 91.091236 
L 169.064727 90.456518 
L 170.146909 98.515024 
L 171.229091 88.695024 
L 172.311273 78.008289 
L 173.393455 89.952716 
L 174.475636 89.604661 
L 175.557818 90.104891 
L 176.64 68.16092 
L 177.722182 89.622901 
L 178.804364 92.086606 
L 179.886545 89.793404 
L 180.968727 88.751664 
L 182.050909 90.202621 
" clip-path="url(#p0c6ccb7d7a)" style="fill: none; stroke: #ff7f0e; stroke-width: 1.5; stroke-linecap: square"/>
   </g>
   <g id="line2d_16">
    <path d="M 73.832727 93.650968 
L 74.914909 90.426623 
L 75.997091 72.678373 
L 77.079273 97.032846 
L 78.161455 98.732964 
L 79.243636 70.295187 
L 80.325818 97.46275 
L 81.408 84.860932 
L 82.490182 93.768103 
L 83.572364 82.193087 
L 84.654545 85.743446 
L 85.736727 78.161443 
L 86.818909 81.568853 
L 87.901091 83.944947 
L 88.983273 93.541393 
L 90.065455 84.689091 
L 91.147636 94.600045 
L 92.229818 295.488 
L 93.312 84.093796 
L 94.394182 85.354792 
L 95.476364 84.538862 
L 96.558545 83.957126 
L 97.640727 84.579594 
L 98.722909 86.043747 
L 99.805091 93.950171 
L 100.887273 73.344115 
L 101.969455 84.827722 
L 103.051636 93.445917 
L 104.133818 85.134709 
L 105.216 85.228838 
L 106.298182 86.300855 
L 107.380364 85.001853 
L 108.462545 85.75759 
L 109.544727 85.579546 
L 110.626909 95.159727 
L 111.709091 85.448014 
L 112.791273 84.773033 
L 113.873455 86.019062 
L 114.955636 86.432231 
L 116.037818 126.057591 
L 117.12 87.265483 
L 118.202182 85.559259 
L 120.366545 85.80482 
L 122.530909 85.760288 
L 123.613091 87.155907 
L 124.695273 86.584616 
L 125.777455 86.550784 
L 126.859636 87.185416 
L 127.941818 85.767876 
L 129.024 85.791757 
L 130.106182 88.102049 
L 131.188364 87.84845 
L 132.270545 87.11348 
L 133.352727 76.303231 
L 134.434909 87.696935 
L 135.517091 65.894473 
L 136.599273 88.764751 
L 137.681455 87.195554 
L 138.763636 90.004003 
L 139.845818 88.45533 
L 140.928 88.192507 
L 142.010182 88.797595 
L 143.092364 88.205722 
L 144.174545 88.831577 
L 145.256727 94.376569 
L 146.338909 88.328285 
L 147.421091 93.186933 
L 148.503273 88.415569 
L 149.585455 87.155963 
L 150.667636 89.598736 
L 151.749818 91.252365 
L 152.832 88.083743 
L 153.914182 88.50267 
L 154.996364 145.036826 
L 156.078545 96.706576 
L 157.160727 63.71517 
L 158.242909 66.278825 
L 159.325091 88.830301 
L 160.407273 88.005967 
L 161.489455 89.531421 
L 162.571636 90.57696 
L 163.653818 89.095838 
L 164.736 90.414877 
L 165.818182 89.556194 
L 166.900364 181.27665 
L 167.982545 91.091236 
L 169.064727 90.456518 
L 170.146909 98.515024 
L 172.311273 78.008289 
L 173.393455 89.952716 
L 174.475636 89.604661 
L 175.557818 90.104891 
L 176.64 68.16092 
L 177.722182 89.622901 
L 178.804364 92.086606 
L 179.886545 89.793404 
L 180.968727 88.751664 
L 182.050909 90.202621 
L 183.133091 88.910391 
L 184.215273 69.235765 
L 185.297455 89.37319 
L 186.379636 89.340933 
L 187.461818 90.040349 
L 188.544 90.202621 
L 189.626182 89.622901 
L 190.708364 89.98644 
L 191.790545 89.893306 
L 192.872727 89.136047 
L 193.954909 88.9162 
L 195.037091 89.167006 
L 196.119273 88.452802 
L 197.201455 89.622901 
L 198.283636 89.274293 
L 199.365818 89.206005 
L 200.448 89.531421 
L 201.530182 89.501506 
L 202.612364 88.839709 
L 203.694545 88.682365 
L 204.776727 88.761729 
L 205.858909 89.136047 
L 206.941091 88.890926 
L 208.023273 89.206005 
L 209.105455 89.167006 
L 210.187636 88.520058 
L 212.352 89.094588 
L 213.434182 89.705425 
L 214.516364 89.020365 
L 215.598545 88.580174 
L 217.762909 88.682365 
L 218.845091 89.020365 
L 219.927273 88.625063 
L 221.009455 71.656663 
L 222.091636 89.064413 
L 223.173818 88.601752 
L 225.338182 88.690486 
L 226.420364 72.035959 
L 227.502545 96.785478 
L 228.584727 89.06103 
L 229.666909 88.682365 
L 230.749091 88.985244 
L 231.831273 88.601752 
L 232.913455 71.846436 
L 233.995636 76.818562 
L 235.077818 88.587015 
L 236.16 88.373337 
L 237.242182 88.789576 
L 238.324364 88.191871 
L 239.406545 90.86002 
L 240.488727 87.464219 
L 241.570909 98.612943 
L 242.653091 90.786535 
L 243.735273 88.520058 
L 244.817455 88.601752 
L 245.899636 89.007633 
L 246.981818 95.020747 
L 248.064 88.191871 
L 249.146182 95.020747 
L 250.228364 89.592654 
L 251.310545 88.601752 
L 252.392727 86.19513 
L 253.474909 88.601752 
L 254.557091 94.160748 
L 255.639273 88.520058 
L 256.721455 88.658112 
L 257.803636 88.113452 
L 258.885818 158.444955 
L 259.968 71.845144 
L 261.050182 97.691127 
L 262.132364 88.601752 
L 263.214545 95.895508 
L 264.296727 89.690834 
L 265.378909 150.600739 
L 266.461091 92.550129 
L 267.543273 89.518015 
L 268.625455 88.331646 
L 269.707636 88.251434 
L 270.789818 92.483329 
L 271.872 95.895508 
L 272.954182 53.568 
L 274.036364 80.833286 
L 275.118545 95.389574 
L 276.200727 95.020747 
L 277.282909 98.612943 
L 278.365091 58.200875 
L 279.447273 97.691127 
L 280.529455 89.180285 
L 281.611636 191.698492 
L 282.693818 93.315079 
L 283.776 92.211621 
L 284.858182 88.789576 
L 285.940364 96.757673 
L 287.022545 94.160748 
L 288.104727 95.112518 
L 289.186909 82.355939 
L 290.269091 75.416946 
L 290.269091 75.416946 
" clip-path="url(#p0c6ccb7d7a)" style="fill: none; stroke: #2ca02c; stroke-width: 1.5; stroke-linecap: square"/>
   </g>
   <g id="line2d_17">
    <path d="M 73.832727 93.650968 
L 74.914909 90.426623 
L 75.997091 72.678373 
L 77.079273 97.032846 
L 78.161455 98.732964 
L 79.243636 70.295187 
L 80.325818 97.46275 
L 81.408 84.860932 
L 82.490182 93.768103 
L 83.572364 82.193087 
L 84.654545 85.743446 
L 85.736727 78.161443 
L 86.818909 81.568853 
L 87.901091 83.944947 
L 88.983273 93.541393 
L 90.065455 84.689091 
L 91.147636 94.600045 
L 92.229818 295.488 
L 93.312 84.093796 
L 94.394182 85.354792 
L 95.476364 84.538862 
L 96.558545 83.957126 
L 97.640727 84.579594 
L 98.722909 86.043747 
L 99.805091 93.950171 
L 100.887273 73.344115 
L 101.969455 84.827722 
L 103.051636 93.445917 
L 104.133818 85.134709 
L 105.216 85.228838 
L 106.298182 86.300855 
L 107.380364 85.001853 
L 108.462545 85.75759 
L 109.544727 85.579546 
L 110.626909 95.159727 
L 111.709091 85.448014 
L 112.791273 84.773033 
L 113.873455 86.019062 
L 114.955636 86.432231 
L 116.037818 126.057591 
L 117.12 87.265483 
L 118.202182 85.559259 
L 120.366545 85.80482 
L 122.530909 85.760288 
L 123.613091 87.155907 
L 124.695273 86.584616 
L 125.777455 86.550784 
L 126.859636 87.185416 
L 127.941818 85.767876 
L 129.024 85.791757 
L 130.106182 88.102049 
L 131.188364 87.84845 
L 132.270545 87.11348 
L 133.352727 76.303231 
L 134.434909 87.696935 
L 135.517091 65.894473 
L 136.599273 88.764751 
L 137.681455 87.195554 
L 138.763636 90.004003 
L 139.845818 88.45533 
L 140.928 88.192507 
L 142.010182 88.797595 
L 143.092364 88.205722 
L 144.174545 88.831577 
L 145.256727 94.376569 
L 146.338909 88.328285 
L 147.421091 93.186933 
L 148.503273 88.415569 
L 149.585455 87.155963 
L 150.667636 89.598736 
L 151.749818 91.252365 
L 152.832 88.083743 
L 153.914182 88.50267 
L 154.996364 145.036826 
L 156.078545 96.706576 
L 157.160727 63.71517 
L 158.242909 66.278825 
L 159.325091 88.830301 
L 160.407273 88.005967 
L 161.489455 89.531421 
L 162.571636 90.57696 
L 163.653818 89.095838 
L 164.736 90.414877 
L 165.818182 89.556194 
L 166.900364 181.27665 
L 167.982545 91.091236 
L 169.064727 90.456518 
L 170.146909 98.515024 
L 172.311273 78.008289 
L 173.393455 89.952716 
L 174.475636 89.604661 
L 175.557818 90.104891 
L 176.64 68.16092 
L 177.722182 89.622901 
L 178.804364 92.086606 
L 179.886545 89.793404 
L 180.968727 88.751664 
L 182.050909 90.202621 
L 183.133091 88.910391 
L 184.215273 69.235765 
L 185.297455 89.37319 
L 186.379636 89.340933 
L 187.461818 90.040349 
L 188.544 90.202621 
L 189.626182 89.622901 
L 190.708364 89.98644 
L 191.790545 89.893306 
L 192.872727 89.136047 
L 193.954909 88.9162 
L 195.037091 89.167006 
L 196.119273 88.452802 
L 197.201455 89.622901 
L 198.283636 89.274293 
L 199.365818 89.206005 
L 200.448 89.531421 
L 201.530182 89.501506 
L 202.612364 88.839709 
L 203.694545 88.682365 
L 204.776727 88.761729 
L 205.858909 89.136047 
L 206.941091 88.890926 
L 208.023273 89.206005 
L 209.105455 89.167006 
L 210.187636 88.520058 
L 212.352 89.094588 
L 213.434182 89.705425 
L 214.516364 89.020365 
L 215.598545 88.580174 
L 217.762909 88.682365 
L 218.845091 89.020365 
L 219.927273 88.625063 
L 221.009455 71.656663 
L 222.091636 89.064413 
L 223.173818 88.601752 
L 225.338182 88.690486 
L 226.420364 72.035959 
L 227.502545 96.785478 
L 228.584727 89.06103 
L 229.666909 88.682365 
L 230.749091 88.985244 
L 231.831273 88.601752 
L 232.913455 71.846436 
L 233.995636 76.818562 
L 235.077818 88.587015 
L 236.16 88.373337 
L 237.242182 88.789576 
L 238.324364 88.191871 
L 239.406545 90.86002 
L 240.488727 87.464219 
L 241.570909 98.612943 
L 242.653091 90.786535 
L 243.735273 88.520058 
L 244.817455 88.601752 
L 245.899636 89.007633 
L 246.981818 95.020747 
L 248.064 88.191871 
L 249.146182 95.020747 
L 250.228364 89.592654 
L 251.310545 88.601752 
L 252.392727 86.19513 
L 253.474909 88.601752 
L 254.557091 94.160748 
L 255.639273 88.520058 
L 256.721455 88.658112 
L 257.803636 88.113452 
L 258.885818 158.444955 
L 259.968 71.845144 
L 261.050182 97.691127 
L 262.132364 88.601752 
L 263.214545 95.895508 
L 264.296727 89.690834 
L 265.378909 150.600739 
L 266.461091 92.550129 
L 267.543273 89.518015 
L 268.625455 88.331646 
L 269.707636 88.251434 
L 270.789818 92.483329 
L 271.872 95.895508 
L 272.954182 53.568 
L 274.036364 80.833286 
L 275.118545 95.389574 
L 276.200727 95.020747 
L 277.282909 98.612943 
L 278.365091 58.200875 
L 279.447273 97.691127 
L 280.529455 89.180285 
L 281.611636 191.698492 
L 282.693818 93.315079 
L 283.776 92.211621 
L 284.858182 88.789576 
L 285.940364 96.757673 
L 287.022545 94.160748 
L 288.104727 95.112518 
L 289.186909 82.355939 
L 290.269091 75.416946 
L 291.351273 97.691127 
L 292.433455 98.612943 
L 293.515636 86.41471 
L 294.597818 96.785478 
L 295.68 96.028634 
L 296.762182 98.612943 
L 297.844364 87.554249 
L 298.926545 99.551438 
L 300.008727 89.433443 
L 301.090909 99.551438 
L 302.173091 99.128948 
L 303.255273 97.757363 
L 304.337455 92.345852 
L 305.419636 99.551438 
L 306.501818 93.222546 
L 307.584 97.691127 
L 308.666182 99.551438 
L 309.748364 96.785478 
L 310.830545 88.308808 
L 311.912727 91.08125 
L 312.994909 99.551438 
L 314.077091 98.989666 
L 315.159273 99.363939 
L 316.241455 97.691127 
L 317.323636 77.791064 
L 318.405818 169.414789 
L 319.488 96.839026 
L 320.570182 97.757363 
L 321.652364 99.696167 
L 322.734545 94.704465 
L 323.816727 99.551438 
L 324.898909 98.679051 
L 325.981091 99.551438 
L 327.063273 97.83636 
L 328.145455 99.551438 
L 329.227636 93.655237 
L 330.309818 100.423932 
L 331.392 96.240022 
L 332.474182 100.507147 
L 333.556364 126.887185 
L 334.638545 72.035959 
L 335.720727 95.55977 
L 336.802909 92.80321 
L 337.885091 95.895508 
L 338.967273 96.447552 
L 340.049455 99.551438 
L 341.131636 88.637246 
L 342.213818 95.895508 
L 343.296 98.425856 
L 344.378182 87.60434 
L 345.460364 72.560439 
L 346.542545 98.612943 
L 347.624727 98.065916 
L 348.706909 96.182188 
L 349.789091 96.785478 
L 350.871273 95.087312 
L 351.953455 98.147409 
L 353.035636 95.026093 
L 354.117818 98.09735 
L 355.2 97.216443 
L 356.282182 98.785106 
L 357.364364 98.147409 
L 358.446545 99.777412 
L 359.528727 100.507147 
L 360.610909 94.67171 
L 361.693091 90.480806 
L 362.775273 89.582986 
L 363.857455 95.961973 
L 364.939636 97.638593 
L 366.021818 96.275368 
L 367.104 98.291993 
L 368.186182 94.487613 
L 369.268364 97.691127 
L 370.350545 104.793567 
L 371.432727 98.425856 
L 372.514909 96.708855 
L 373.597091 85.661329 
L 374.679273 99.551438 
L 375.761455 84.862181 
L 376.843636 168.263197 
L 377.925818 99.095672 
L 380.090182 99.551438 
L 381.172364 97.74467 
L 382.254545 99.363939 
L 383.336727 102.72906 
L 385.501091 84.369511 
L 386.583273 80.811209 
L 387.665455 99.033153 
L 388.747636 97.691127 
L 389.829818 95.944329 
L 390.912 98.147409 
L 391.994182 88.496866 
L 393.076364 85.615755 
L 394.158545 99.551438 
L 395.240727 83.561865 
L 396.322909 100.560627 
L 397.405091 101.534072 
L 398.487273 100.507147 
L 398.487273 100.507147 
" clip-path="url(#p0c6ccb7d7a)" style="fill: none; stroke: #d62728; stroke-width: 1.5; stroke-linecap: square"/>
   </g>
   <g id="patch_3">
    <path d="M 57.6 307.584 
L 57.6 41.472 
" style="fill: none; stroke: #000000; stroke-width: 0.8; stroke-linejoin: miter; stroke-linecap: square"/>
   </g>
   <g id="patch_4">
    <path d="M 414.72 307.584 
L 414.72 41.472 
" style="fill: none; stroke: #000000; stroke-width: 0.8; stroke-linejoin: miter; stroke-linecap: square"/>
   </g>
   <g id="patch_5">
    <path d="M 57.6 307.584 
L 414.72 307.584 
" style="fill: none; stroke: #000000; stroke-width: 0.8; stroke-linejoin: miter; stroke-linecap: square"/>
   </g>
   <g id="patch_6">
    <path d="M 57.6 41.472 
L 414.72 41.472 
" style="fill: none; stroke: #000000; stroke-width: 0.8; stroke-linejoin: miter; stroke-linecap: square"/>
   </g>
  </g>
 </g>
 <defs>
  <clipPath id="p0c6ccb7d7a">
   <rect x="57.6" y="41.472" width="357.12" height="266.112"/>
  </clipPath>
 </defs>
</svg>
