<?xml version="1.0" encoding="utf-8" standalone="no"?>
<!DOCTYPE svg PUBLIC "-//W3C//DTD SVG 1.1//EN"
  "http://www.w3.org/Graphics/SVG/1.1/DTD/svg11.dtd">
<svg xmlns:xlink="http://www.w3.org/1999/xlink" width="460.8pt" height="345.6pt" viewBox="0 0 460.8 345.6" xmlns="http://www.w3.org/2000/svg" version="1.1">
 <metadata>
  <rdf:RDF xmlns:dc="http://purl.org/dc/elements/1.1/" xmlns:cc="http://creativecommons.org/ns#" xmlns:rdf="http://www.w3.org/1999/02/22-rdf-syntax-ns#">
   <cc:Work>
    <dc:type rdf:resource="http://purl.org/dc/dcmitype/StillImage"/>
    <dc:date>2024-04-28T13:47:58.313590</dc:date>
    <dc:format>image/svg+xml</dc:format>
    <dc:creator>
     <cc:Agent>
      <dc:title>Matplotlib v3.8.2, https://matplotlib.org/</dc:title>
     </cc:Agent>
    </dc:creator>
   </cc:Work>
  </rdf:RDF>
 </metadata>
 <defs>
  <style type="text/css">*{stroke-linejoin: round; stroke-linecap: butt}</style>
 </defs>
 <g id="figure_1">
  <g id="patch_1">
   <path d="M 0 345.6 
L 460.8 345.6 
L 460.8 0 
L 0 0 
z
" style="fill: #ffffff"/>
  </g>
  <g id="axes_1">
   <g id="patch_2">
    <path d="M 57.6 307.584 
L 414.72 307.584 
L 414.72 41.472 
L 57.6 41.472 
z
" style="fill: #ffffff"/>
   </g>
   <g id="matplotlib.axis_1">
    <g id="xtick_1">
     <g id="line2d_1">
      <defs>
       <path id="md8bcf281f8" d="M 0 0 
L 0 3.5 
" style="stroke: #000000; stroke-width: 0.8"/>
      </defs>
      <g>
       <use xlink:href="#md8bcf281f8" x="73.832727" y="307.584" style="stroke: #000000; stroke-width: 0.8"/>
      </g>
     </g>
     <g id="text_1">
      <!-- 0 -->
      <g transform="translate(70.651477 322.182437) scale(0.1 -0.1)">
       <defs>
        <path id="DejaVuSans-30" d="M 2034 4250 
Q 1547 4250 1301 3770 
Q 1056 3291 1056 2328 
Q 1056 1369 1301 889 
Q 1547 409 2034 409 
Q 2525 409 2770 889 
Q 3016 1369 3016 2328 
Q 3016 3291 2770 3770 
Q 2525 4250 2034 4250 
z
M 2034 4750 
Q 2819 4750 3233 4129 
Q 3647 3509 3647 2328 
Q 3647 1150 3233 529 
Q 2819 -91 2034 -91 
Q 1250 -91 836 529 
Q 422 1150 422 2328 
Q 422 3509 836 4129 
Q 1250 4750 2034 4750 
z
" transform="scale(0.015625)"/>
       </defs>
       <use xlink:href="#DejaVuSans-30"/>
      </g>
     </g>
    </g>
    <g id="xtick_2">
     <g id="line2d_2">
      <g>
       <use xlink:href="#md8bcf281f8" x="120.211948" y="307.584" style="stroke: #000000; stroke-width: 0.8"/>
      </g>
     </g>
     <g id="text_2">
      <!-- 100 -->
      <g transform="translate(110.668198 322.182437) scale(0.1 -0.1)">
       <defs>
        <path id="DejaVuSans-31" d="M 794 531 
L 1825 531 
L 1825 4091 
L 703 3866 
L 703 4441 
L 1819 4666 
L 2450 4666 
L 2450 531 
L 3481 531 
L 3481 0 
L 794 0 
L 794 531 
z
" transform="scale(0.015625)"/>
       </defs>
       <use xlink:href="#DejaVuSans-31"/>
       <use xlink:href="#DejaVuSans-30" x="63.623047"/>
       <use xlink:href="#DejaVuSans-30" x="127.246094"/>
      </g>
     </g>
    </g>
    <g id="xtick_3">
     <g id="line2d_3">
      <g>
       <use xlink:href="#md8bcf281f8" x="166.591169" y="307.584" style="stroke: #000000; stroke-width: 0.8"/>
      </g>
     </g>
     <g id="text_3">
      <!-- 200 -->
      <g transform="translate(157.047419 322.182437) scale(0.1 -0.1)">
       <defs>
        <path id="DejaVuSans-32" d="M 1228 531 
L 3431 531 
L 3431 0 
L 469 0 
L 469 531 
Q 828 903 1448 1529 
Q 2069 2156 2228 2338 
Q 2531 2678 2651 2914 
Q 2772 3150 2772 3378 
Q 2772 3750 2511 3984 
Q 2250 4219 1831 4219 
Q 1534 4219 1204 4116 
Q 875 4013 500 3803 
L 500 4441 
Q 881 4594 1212 4672 
Q 1544 4750 1819 4750 
Q 2544 4750 2975 4387 
Q 3406 4025 3406 3419 
Q 3406 3131 3298 2873 
Q 3191 2616 2906 2266 
Q 2828 2175 2409 1742 
Q 1991 1309 1228 531 
z
" transform="scale(0.015625)"/>
       </defs>
       <use xlink:href="#DejaVuSans-32"/>
       <use xlink:href="#DejaVuSans-30" x="63.623047"/>
       <use xlink:href="#DejaVuSans-30" x="127.246094"/>
      </g>
     </g>
    </g>
    <g id="xtick_4">
     <g id="line2d_4">
      <g>
       <use xlink:href="#md8bcf281f8" x="212.97039" y="307.584" style="stroke: #000000; stroke-width: 0.8"/>
      </g>
     </g>
     <g id="text_4">
      <!-- 300 -->
      <g transform="translate(203.42664 322.182437) scale(0.1 -0.1)">
       <defs>
        <path id="DejaVuSans-33" d="M 2597 2516 
Q 3050 2419 3304 2112 
Q 3559 1806 3559 1356 
Q 3559 666 3084 287 
Q 2609 -91 1734 -91 
Q 1441 -91 1130 -33 
Q 819 25 488 141 
L 488 750 
Q 750 597 1062 519 
Q 1375 441 1716 441 
Q 2309 441 2620 675 
Q 2931 909 2931 1356 
Q 2931 1769 2642 2001 
Q 2353 2234 1838 2234 
L 1294 2234 
L 1294 2753 
L 1863 2753 
Q 2328 2753 2575 2939 
Q 2822 3125 2822 3475 
Q 2822 3834 2567 4026 
Q 2313 4219 1838 4219 
Q 1578 4219 1281 4162 
Q 984 4106 628 3988 
L 628 4550 
Q 988 4650 1302 4700 
Q 1616 4750 1894 4750 
Q 2613 4750 3031 4423 
Q 3450 4097 3450 3541 
Q 3450 3153 3228 2886 
Q 3006 2619 2597 2516 
z
" transform="scale(0.015625)"/>
       </defs>
       <use xlink:href="#DejaVuSans-33"/>
       <use xlink:href="#DejaVuSans-30" x="63.623047"/>
       <use xlink:href="#DejaVuSans-30" x="127.246094"/>
      </g>
     </g>
    </g>
    <g id="xtick_5">
     <g id="line2d_5">
      <g>
       <use xlink:href="#md8bcf281f8" x="259.34961" y="307.584" style="stroke: #000000; stroke-width: 0.8"/>
      </g>
     </g>
     <g id="text_5">
      <!-- 400 -->
      <g transform="translate(249.80586 322.182437) scale(0.1 -0.1)">
       <defs>
        <path id="DejaVuSans-34" d="M 2419 4116 
L 825 1625 
L 2419 1625 
L 2419 4116 
z
M 2253 4666 
L 3047 4666 
L 3047 1625 
L 3713 1625 
L 3713 1100 
L 3047 1100 
L 3047 0 
L 2419 0 
L 2419 1100 
L 313 1100 
L 313 1709 
L 2253 4666 
z
" transform="scale(0.015625)"/>
       </defs>
       <use xlink:href="#DejaVuSans-34"/>
       <use xlink:href="#DejaVuSans-30" x="63.623047"/>
       <use xlink:href="#DejaVuSans-30" x="127.246094"/>
      </g>
     </g>
    </g>
    <g id="xtick_6">
     <g id="line2d_6">
      <g>
       <use xlink:href="#md8bcf281f8" x="305.728831" y="307.584" style="stroke: #000000; stroke-width: 0.8"/>
      </g>
     </g>
     <g id="text_6">
      <!-- 500 -->
      <g transform="translate(296.185081 322.182437) scale(0.1 -0.1)">
       <defs>
        <path id="DejaVuSans-35" d="M 691 4666 
L 3169 4666 
L 3169 4134 
L 1269 4134 
L 1269 2991 
Q 1406 3038 1543 3061 
Q 1681 3084 1819 3084 
Q 2600 3084 3056 2656 
Q 3513 2228 3513 1497 
Q 3513 744 3044 326 
Q 2575 -91 1722 -91 
Q 1428 -91 1123 -41 
Q 819 9 494 109 
L 494 744 
Q 775 591 1075 516 
Q 1375 441 1709 441 
Q 2250 441 2565 725 
Q 2881 1009 2881 1497 
Q 2881 1984 2565 2268 
Q 2250 2553 1709 2553 
Q 1456 2553 1204 2497 
Q 953 2441 691 2322 
L 691 4666 
z
" transform="scale(0.015625)"/>
       </defs>
       <use xlink:href="#DejaVuSans-35"/>
       <use xlink:href="#DejaVuSans-30" x="63.623047"/>
       <use xlink:href="#DejaVuSans-30" x="127.246094"/>
      </g>
     </g>
    </g>
    <g id="xtick_7">
     <g id="line2d_7">
      <g>
       <use xlink:href="#md8bcf281f8" x="352.108052" y="307.584" style="stroke: #000000; stroke-width: 0.8"/>
      </g>
     </g>
     <g id="text_7">
      <!-- 600 -->
      <g transform="translate(342.564302 322.182437) scale(0.1 -0.1)">
       <defs>
        <path id="DejaVuSans-36" d="M 2113 2584 
Q 1688 2584 1439 2293 
Q 1191 2003 1191 1497 
Q 1191 994 1439 701 
Q 1688 409 2113 409 
Q 2538 409 2786 701 
Q 3034 994 3034 1497 
Q 3034 2003 2786 2293 
Q 2538 2584 2113 2584 
z
M 3366 4563 
L 3366 3988 
Q 3128 4100 2886 4159 
Q 2644 4219 2406 4219 
Q 1781 4219 1451 3797 
Q 1122 3375 1075 2522 
Q 1259 2794 1537 2939 
Q 1816 3084 2150 3084 
Q 2853 3084 3261 2657 
Q 3669 2231 3669 1497 
Q 3669 778 3244 343 
Q 2819 -91 2113 -91 
Q 1303 -91 875 529 
Q 447 1150 447 2328 
Q 447 3434 972 4092 
Q 1497 4750 2381 4750 
Q 2619 4750 2861 4703 
Q 3103 4656 3366 4563 
z
" transform="scale(0.015625)"/>
       </defs>
       <use xlink:href="#DejaVuSans-36"/>
       <use xlink:href="#DejaVuSans-30" x="63.623047"/>
       <use xlink:href="#DejaVuSans-30" x="127.246094"/>
      </g>
     </g>
    </g>
    <g id="xtick_8">
     <g id="line2d_8">
      <g>
       <use xlink:href="#md8bcf281f8" x="398.487273" y="307.584" style="stroke: #000000; stroke-width: 0.8"/>
      </g>
     </g>
     <g id="text_8">
      <!-- 700 -->
      <g transform="translate(388.943523 322.182437) scale(0.1 -0.1)">
       <defs>
        <path id="DejaVuSans-37" d="M 525 4666 
L 3525 4666 
L 3525 4397 
L 1831 0 
L 1172 0 
L 2766 4134 
L 525 4134 
L 525 4666 
z
" transform="scale(0.015625)"/>
       </defs>
       <use xlink:href="#DejaVuSans-37"/>
       <use xlink:href="#DejaVuSans-30" x="63.623047"/>
       <use xlink:href="#DejaVuSans-30" x="127.246094"/>
      </g>
     </g>
    </g>
   </g>
   <g id="matplotlib.axis_2">
    <g id="ytick_1">
     <g id="line2d_9">
      <defs>
       <path id="m7468679b50" d="M 0 0 
L -3.5 0 
" style="stroke: #000000; stroke-width: 0.8"/>
      </defs>
      <g>
       <use xlink:href="#m7468679b50" x="57.6" y="295.89381" style="stroke: #000000; stroke-width: 0.8"/>
      </g>
     </g>
     <g id="text_9">
      <!-- −80 -->
      <g transform="translate(29.495313 299.693029) scale(0.1 -0.1)">
       <defs>
        <path id="DejaVuSans-2212" d="M 678 2272 
L 4684 2272 
L 4684 1741 
L 678 1741 
L 678 2272 
z
" transform="scale(0.015625)"/>
        <path id="DejaVuSans-38" d="M 2034 2216 
Q 1584 2216 1326 1975 
Q 1069 1734 1069 1313 
Q 1069 891 1326 650 
Q 1584 409 2034 409 
Q 2484 409 2743 651 
Q 3003 894 3003 1313 
Q 3003 1734 2745 1975 
Q 2488 2216 2034 2216 
z
M 1403 2484 
Q 997 2584 770 2862 
Q 544 3141 544 3541 
Q 544 4100 942 4425 
Q 1341 4750 2034 4750 
Q 2731 4750 3128 4425 
Q 3525 4100 3525 3541 
Q 3525 3141 3298 2862 
Q 3072 2584 2669 2484 
Q 3125 2378 3379 2068 
Q 3634 1759 3634 1313 
Q 3634 634 3220 271 
Q 2806 -91 2034 -91 
Q 1263 -91 848 271 
Q 434 634 434 1313 
Q 434 1759 690 2068 
Q 947 2378 1403 2484 
z
M 1172 3481 
Q 1172 3119 1398 2916 
Q 1625 2713 2034 2713 
Q 2441 2713 2670 2916 
Q 2900 3119 2900 3481 
Q 2900 3844 2670 4047 
Q 2441 4250 2034 4250 
Q 1625 4250 1398 4047 
Q 1172 3844 1172 3481 
z
" transform="scale(0.015625)"/>
       </defs>
       <use xlink:href="#DejaVuSans-2212"/>
       <use xlink:href="#DejaVuSans-38" x="83.789062"/>
       <use xlink:href="#DejaVuSans-30" x="147.412109"/>
      </g>
     </g>
    </g>
    <g id="ytick_2">
     <g id="line2d_10">
      <g>
       <use xlink:href="#m7468679b50" x="57.6" y="248.76226" style="stroke: #000000; stroke-width: 0.8"/>
      </g>
     </g>
     <g id="text_10">
      <!-- −60 -->
      <g transform="translate(29.495313 252.561479) scale(0.1 -0.1)">
       <use xlink:href="#DejaVuSans-2212"/>
       <use xlink:href="#DejaVuSans-36" x="83.789062"/>
       <use xlink:href="#DejaVuSans-30" x="147.412109"/>
      </g>
     </g>
    </g>
    <g id="ytick_3">
     <g id="line2d_11">
      <g>
       <use xlink:href="#m7468679b50" x="57.6" y="201.630711" style="stroke: #000000; stroke-width: 0.8"/>
      </g>
     </g>
     <g id="text_11">
      <!-- −40 -->
      <g transform="translate(29.495313 205.429929) scale(0.1 -0.1)">
       <use xlink:href="#DejaVuSans-2212"/>
       <use xlink:href="#DejaVuSans-34" x="83.789062"/>
       <use xlink:href="#DejaVuSans-30" x="147.412109"/>
      </g>
     </g>
    </g>
    <g id="ytick_4">
     <g id="line2d_12">
      <g>
       <use xlink:href="#m7468679b50" x="57.6" y="154.499161" style="stroke: #000000; stroke-width: 0.8"/>
      </g>
     </g>
     <g id="text_12">
      <!-- −20 -->
      <g transform="translate(29.495313 158.29838) scale(0.1 -0.1)">
       <use xlink:href="#DejaVuSans-2212"/>
       <use xlink:href="#DejaVuSans-32" x="83.789062"/>
       <use xlink:href="#DejaVuSans-30" x="147.412109"/>
      </g>
     </g>
    </g>
    <g id="ytick_5">
     <g id="line2d_13">
      <g>
       <use xlink:href="#m7468679b50" x="57.6" y="107.367612" style="stroke: #000000; stroke-width: 0.8"/>
      </g>
     </g>
     <g id="text_13">
      <!-- 0 -->
      <g transform="translate(44.2375 111.16683) scale(0.1 -0.1)">
       <use xlink:href="#DejaVuSans-30"/>
      </g>
     </g>
    </g>
    <g id="ytick_6">
     <g id="line2d_14">
      <g>
       <use xlink:href="#m7468679b50" x="57.6" y="60.236062" style="stroke: #000000; stroke-width: 0.8"/>
      </g>
     </g>
     <g id="text_14">
      <!-- 20 -->
      <g transform="translate(37.875 64.035281) scale(0.1 -0.1)">
       <use xlink:href="#DejaVuSans-32"/>
       <use xlink:href="#DejaVuSans-30" x="63.623047"/>
      </g>
     </g>
    </g>
   </g>
   <g id="line2d_15">
    <path d="M 73.832727 101.702519 
" clip-path="url(#p141ed925b6)" style="fill: none; stroke: #1f77b4; stroke-width: 1.5; stroke-linecap: square"/>
   </g>
   <g id="line2d_16">
    <path d="M 73.832727 101.702519 
L 74.296519 98.606797 
L 74.760312 81.566549 
L 75.224104 104.949489 
L 75.687896 106.581787 
L 76.151688 79.278432 
L 76.615481 105.362243 
L 77.079273 93.263129 
L 77.543065 101.814982 
L 78.006857 90.701708 
L 78.470649 94.110438 
L 78.934442 86.830892 
L 79.398234 90.102376 
L 79.862026 92.383684 
L 80.325818 101.597315 
L 80.78961 93.098143 
L 81.253403 102.613736 
L 81.717195 295.488 
L 82.180987 92.526596 
L 82.644779 93.737288 
L 83.108571 92.953907 
L 83.572364 92.395377 
L 84.036156 92.993014 
L 84.499948 94.39876 
L 84.96374 101.989786 
L 85.427532 82.205734 
L 85.891325 93.231244 
L 86.355117 101.505647 
L 86.818909 93.525985 
L 87.282701 93.616359 
L 87.746494 94.645612 
L 88.210286 93.398429 
L 88.674078 94.124019 
L 89.13787 93.953077 
L 89.601662 103.151091 
L 90.065455 93.826792 
L 90.529247 93.178737 
L 90.993039 94.37506 
L 91.456831 94.771747 
L 91.920623 132.816399 
L 92.384416 95.571759 
L 92.848208 93.9336 
L 93.312 94.079459 
L 93.775792 94.169365 
L 94.239584 94.170099 
L 94.703377 94.126609 
L 95.167169 95.466555 
L 95.630961 94.918054 
L 96.094753 94.885571 
L 96.558545 95.494886 
L 97.022338 94.133894 
L 97.48613 94.156823 
L 97.949922 96.374954 
L 98.413714 96.131471 
L 98.877506 95.425821 
L 99.341299 85.046806 
L 99.805091 95.986001 
L 100.268883 75.053268 
L 100.732675 97.01122 
L 101.196468 95.50462 
L 101.66026 98.201036 
L 102.124052 96.714142 
L 102.587844 96.461803 
L 103.051636 97.042754 
L 103.515429 96.474491 
L 103.979221 97.07538 
L 104.443013 102.399175 
L 104.906805 96.592165 
L 105.370597 101.256995 
L 105.83439 96.675967 
L 106.298182 95.466608 
L 106.761974 97.811936 
L 107.225766 99.3996 
L 107.689558 96.357378 
L 108.153351 96.759594 
L 108.617143 151.038526 
L 109.080935 104.636234 
L 109.544727 72.9609 
L 110.008519 75.422287 
L 110.472312 97.074155 
L 110.936104 96.282705 
L 111.399896 97.747306 
L 111.863688 98.751137 
L 112.327481 97.329099 
L 112.791273 98.59552 
L 113.255065 97.771091 
L 113.718857 185.832695 
L 114.182649 99.244898 
L 114.646442 98.6355 
L 115.110234 106.372542 
L 115.574026 96.944274 
L 116.037818 86.683847 
L 116.50161 98.151796 
L 116.965403 97.817625 
L 117.429195 98.297899 
L 117.892987 77.229303 
L 118.356779 97.835137 
L 118.820571 100.200562 
L 119.284364 97.998838 
L 119.748156 96.998655 
L 120.211948 98.391731 
" clip-path="url(#p141ed925b6)" style="fill: none; stroke: #ff7f0e; stroke-width: 1.5; stroke-linecap: square"/>
   </g>
   <g id="line2d_17">
    <path d="M 73.832727 101.702519 
L 74.296519 98.606797 
L 74.760312 81.566549 
L 75.224104 104.949489 
L 75.687896 106.581787 
L 76.151688 79.278432 
L 76.615481 105.362243 
L 77.079273 93.263129 
L 77.543065 101.814982 
L 78.006857 90.701708 
L 78.470649 94.110438 
L 78.934442 86.830892 
L 79.398234 90.102376 
L 79.862026 92.383684 
L 80.325818 101.597315 
L 80.78961 93.098143 
L 81.253403 102.613736 
L 81.717195 295.488 
L 82.180987 92.526596 
L 82.644779 93.737288 
L 83.108571 92.953907 
L 83.572364 92.395377 
L 84.036156 92.993014 
L 84.499948 94.39876 
L 84.96374 101.989786 
L 85.427532 82.205734 
L 85.891325 93.231244 
L 86.355117 101.505647 
L 86.818909 93.525985 
L 87.282701 93.616359 
L 87.746494 94.645612 
L 88.210286 93.398429 
L 88.674078 94.124019 
L 89.13787 93.953077 
L 89.601662 103.151091 
L 90.065455 93.826792 
L 90.529247 93.178737 
L 90.993039 94.37506 
L 91.456831 94.771747 
L 91.920623 132.816399 
L 92.384416 95.571759 
L 92.848208 93.9336 
L 93.775792 94.169365 
L 94.703377 94.126609 
L 95.167169 95.466555 
L 95.630961 94.918054 
L 96.094753 94.885571 
L 96.558545 95.494886 
L 97.022338 94.133894 
L 97.48613 94.156823 
L 97.949922 96.374954 
L 98.413714 96.131471 
L 98.877506 95.425821 
L 99.341299 85.046806 
L 99.805091 95.986001 
L 100.268883 75.053268 
L 100.732675 97.01122 
L 101.196468 95.50462 
L 101.66026 98.201036 
L 102.124052 96.714142 
L 102.587844 96.461803 
L 103.051636 97.042754 
L 103.515429 96.474491 
L 103.979221 97.07538 
L 104.443013 102.399175 
L 104.906805 96.592165 
L 105.370597 101.256995 
L 105.83439 96.675967 
L 106.298182 95.466608 
L 106.761974 97.811936 
L 107.225766 99.3996 
L 107.689558 96.357378 
L 108.153351 96.759594 
L 108.617143 151.038526 
L 109.080935 104.636234 
L 109.544727 72.9609 
L 110.008519 75.422287 
L 110.472312 97.074155 
L 110.936104 96.282705 
L 111.399896 97.747306 
L 111.863688 98.751137 
L 112.327481 97.329099 
L 112.791273 98.59552 
L 113.255065 97.771091 
L 113.718857 185.832695 
L 114.182649 99.244898 
L 114.646442 98.6355 
L 115.110234 106.372542 
L 116.037818 86.683847 
L 116.50161 98.151796 
L 116.965403 97.817625 
L 117.429195 98.297899 
L 117.892987 77.229303 
L 118.356779 97.835137 
L 118.820571 100.200562 
L 119.284364 97.998838 
L 119.748156 96.998655 
L 120.211948 98.391731 
L 120.67574 97.15105 
L 121.139532 78.261271 
L 121.603325 97.595387 
L 122.067117 97.564417 
L 122.530909 98.235933 
L 122.994701 98.391731 
L 123.458494 97.835137 
L 123.922286 98.184174 
L 124.386078 98.094756 
L 124.84987 97.367704 
L 125.313662 97.156627 
L 125.777455 97.397428 
L 126.241247 96.711715 
L 126.705039 97.835137 
L 127.168831 97.500436 
L 127.632623 97.434871 
L 128.096416 97.747306 
L 128.560208 97.718584 
L 129.024 97.083188 
L 129.487792 96.93212 
L 129.951584 97.008318 
L 130.415377 97.367704 
L 130.879169 97.132361 
L 131.342961 97.434871 
L 131.806753 97.397428 
L 132.270545 96.776288 
L 133.19813 97.327899 
L 133.661922 97.914369 
L 134.125714 97.256637 
L 134.589506 96.834006 
L 135.517091 96.93212 
L 135.980883 97.256637 
L 136.444675 96.877104 
L 136.908468 80.585596 
L 137.37226 97.298928 
L 137.836052 96.854723 
L 138.763636 96.939917 
L 139.227429 80.949762 
L 139.691221 104.711989 
L 140.155013 97.29568 
L 140.618805 96.93212 
L 141.082597 97.222917 
L 141.54639 96.854723 
L 142.010182 80.767799 
L 142.473974 85.54158 
L 142.937766 96.840574 
L 143.401558 96.63542 
L 143.865351 97.035055 
L 144.329143 96.461193 
L 144.792935 99.022905 
L 145.256727 95.762568 
L 145.720519 106.466554 
L 146.184312 98.952352 
L 146.648104 96.776288 
L 147.111896 96.854723 
L 147.575688 97.244413 
L 148.039481 103.017656 
L 148.503273 96.461193 
L 148.967065 103.017656 
L 149.430857 97.806096 
L 149.894649 96.854723 
L 150.358442 94.544104 
L 150.822234 96.854723 
L 151.286026 102.191963 
L 151.749818 96.776288 
L 152.21361 96.908834 
L 152.677403 96.385902 
L 153.141195 163.911786 
L 153.604987 80.766558 
L 154.068779 105.581511 
L 154.532571 96.854723 
L 154.996364 103.857521 
L 155.460156 97.90036 
L 155.923948 156.380487 
L 156.38774 100.645594 
L 156.851532 97.734435 
L 157.315325 96.595392 
L 157.779117 96.518379 
L 158.706701 103.857521 
L 159.170494 63.218515 
L 159.634286 89.396151 
L 160.098078 103.37177 
L 160.56187 103.017656 
L 161.025662 106.466554 
L 161.489455 67.666578 
L 161.953247 105.581511 
L 162.417039 97.410178 
L 162.880831 195.838795 
L 163.344623 101.380029 
L 163.808416 100.32059 
L 164.272208 97.035055 
L 164.736 104.685293 
L 165.199792 102.191963 
L 165.663584 103.105766 
L 166.127377 90.858064 
L 166.591169 84.195877 
L 166.591169 84.195877 
" clip-path="url(#p141ed925b6)" style="fill: none; stroke: #2ca02c; stroke-width: 1.5; stroke-linecap: square"/>
   </g>
   <g id="line2d_18">
    <path d="M 73.832727 101.702519 
L 74.296519 98.606797 
L 74.760312 81.566549 
L 75.224104 104.949489 
L 75.687896 106.581787 
L 76.151688 79.278432 
L 76.615481 105.362243 
L 77.079273 93.263129 
L 77.543065 101.814982 
L 78.006857 90.701708 
L 78.470649 94.110438 
L 78.934442 86.830892 
L 79.398234 90.102376 
L 79.862026 92.383684 
L 80.325818 101.597315 
L 80.78961 93.098143 
L 81.253403 102.613736 
L 81.717195 295.488 
L 82.180987 92.526596 
L 82.644779 93.737288 
L 83.108571 92.953907 
L 83.572364 92.395377 
L 84.036156 92.993014 
L 84.499948 94.39876 
L 84.96374 101.989786 
L 85.427532 82.205734 
L 85.891325 93.231244 
L 86.355117 101.505647 
L 86.818909 93.525985 
L 87.282701 93.616359 
L 87.746494 94.645612 
L 88.210286 93.398429 
L 88.674078 94.124019 
L 89.13787 93.953077 
L 89.601662 103.151091 
L 90.065455 93.826792 
L 90.529247 93.178737 
L 90.993039 94.37506 
L 91.456831 94.771747 
L 91.920623 132.816399 
L 92.384416 95.571759 
L 92.848208 93.9336 
L 93.775792 94.169365 
L 94.703377 94.126609 
L 95.167169 95.466555 
L 95.630961 94.918054 
L 96.094753 94.885571 
L 96.558545 95.494886 
L 97.022338 94.133894 
L 97.48613 94.156823 
L 97.949922 96.374954 
L 98.413714 96.131471 
L 98.877506 95.425821 
L 99.341299 85.046806 
L 99.805091 95.986001 
L 100.268883 75.053268 
L 100.732675 97.01122 
L 101.196468 95.50462 
L 101.66026 98.201036 
L 102.124052 96.714142 
L 102.587844 96.461803 
L 103.051636 97.042754 
L 103.515429 96.474491 
L 103.979221 97.07538 
L 104.443013 102.399175 
L 104.906805 96.592165 
L 105.370597 101.256995 
L 105.83439 96.675967 
L 106.298182 95.466608 
L 106.761974 97.811936 
L 107.225766 99.3996 
L 107.689558 96.357378 
L 108.153351 96.759594 
L 108.617143 151.038526 
L 109.080935 104.636234 
L 109.544727 72.9609 
L 110.008519 75.422287 
L 110.472312 97.074155 
L 110.936104 96.282705 
L 111.399896 97.747306 
L 111.863688 98.751137 
L 112.327481 97.329099 
L 112.791273 98.59552 
L 113.255065 97.771091 
L 113.718857 185.832695 
L 114.182649 99.244898 
L 114.646442 98.6355 
L 115.110234 106.372542 
L 116.037818 86.683847 
L 116.50161 98.151796 
L 116.965403 97.817625 
L 117.429195 98.297899 
L 117.892987 77.229303 
L 118.356779 97.835137 
L 118.820571 100.200562 
L 119.284364 97.998838 
L 119.748156 96.998655 
L 120.211948 98.391731 
L 120.67574 97.15105 
L 121.139532 78.261271 
L 121.603325 97.595387 
L 122.067117 97.564417 
L 122.530909 98.235933 
L 122.994701 98.391731 
L 123.458494 97.835137 
L 123.922286 98.184174 
L 124.386078 98.094756 
L 124.84987 97.367704 
L 125.313662 97.156627 
L 125.777455 97.397428 
L 126.241247 96.711715 
L 126.705039 97.835137 
L 127.168831 97.500436 
L 127.632623 97.434871 
L 128.096416 97.747306 
L 128.560208 97.718584 
L 129.024 97.083188 
L 129.487792 96.93212 
L 129.951584 97.008318 
L 130.415377 97.367704 
L 130.879169 97.132361 
L 131.342961 97.434871 
L 131.806753 97.397428 
L 132.270545 96.776288 
L 133.19813 97.327899 
L 133.661922 97.914369 
L 134.125714 97.256637 
L 134.589506 96.834006 
L 135.517091 96.93212 
L 135.980883 97.256637 
L 136.444675 96.877104 
L 136.908468 80.585596 
L 137.37226 97.298928 
L 137.836052 96.854723 
L 138.763636 96.939917 
L 139.227429 80.949762 
L 139.691221 104.711989 
L 140.155013 97.29568 
L 140.618805 96.93212 
L 141.082597 97.222917 
L 141.54639 96.854723 
L 142.010182 80.767799 
L 142.473974 85.54158 
L 142.937766 96.840574 
L 143.401558 96.63542 
L 143.865351 97.035055 
L 144.329143 96.461193 
L 144.792935 99.022905 
L 145.256727 95.762568 
L 145.720519 106.466554 
L 146.184312 98.952352 
L 146.648104 96.776288 
L 147.111896 96.854723 
L 147.575688 97.244413 
L 148.039481 103.017656 
L 148.503273 96.461193 
L 148.967065 103.017656 
L 149.430857 97.806096 
L 149.894649 96.854723 
L 150.358442 94.544104 
L 150.822234 96.854723 
L 151.286026 102.191963 
L 151.749818 96.776288 
L 152.21361 96.908834 
L 152.677403 96.385902 
L 153.141195 163.911786 
L 153.604987 80.766558 
L 154.068779 105.581511 
L 154.532571 96.854723 
L 154.996364 103.857521 
L 155.460156 97.90036 
L 155.923948 156.380487 
L 156.38774 100.645594 
L 156.851532 97.734435 
L 157.315325 96.595392 
L 157.779117 96.518379 
L 158.706701 103.857521 
L 159.170494 63.218515 
L 159.634286 89.396151 
L 160.098078 103.37177 
L 160.56187 103.017656 
L 161.025662 106.466554 
L 161.489455 67.666578 
L 161.953247 105.581511 
L 162.417039 97.410178 
L 162.880831 195.838795 
L 163.344623 101.380029 
L 163.808416 100.32059 
L 164.272208 97.035055 
L 164.736 104.685293 
L 165.199792 102.191963 
L 165.663584 103.105766 
L 166.127377 90.858064 
L 166.591169 84.195877 
L 167.054961 105.581511 
L 167.518753 106.466554 
L 167.982545 94.754925 
L 168.446338 104.711989 
L 168.91013 103.985337 
L 169.373922 106.466554 
L 169.837714 95.849007 
L 170.301506 107.367612 
L 170.765299 97.653237 
L 171.229091 107.367612 
L 171.692883 106.961975 
L 172.156675 105.645105 
L 172.620468 100.449466 
L 173.08426 107.367612 
L 173.548052 101.291188 
L 174.011844 105.581511 
L 174.475636 107.367612 
L 174.939429 104.711989 
L 175.403221 96.573465 
L 175.867013 99.235311 
L 176.330805 107.367612 
L 176.794597 106.82825 
L 177.25839 107.187592 
L 177.722182 105.581511 
L 178.185974 86.475288 
L 178.649766 174.444019 
L 179.113558 104.763401 
L 179.577351 105.645105 
L 180.041143 107.506567 
L 180.504935 102.713991 
L 180.968727 107.367612 
L 181.432519 106.530025 
L 181.896312 107.367612 
L 182.360104 105.72095 
L 182.823896 107.367612 
L 183.287688 101.706618 
L 183.751481 108.2053 
L 184.215273 104.188292 
L 184.679065 108.285195 
L 185.142857 133.612898 
L 185.606649 80.949762 
L 186.070442 103.535176 
L 186.534234 100.888579 
L 186.998026 103.857521 
L 187.461818 104.387544 
L 187.92561 107.367612 
L 188.389403 96.888801 
L 188.853195 103.857521 
L 189.316987 106.28693 
L 189.780779 95.897099 
L 190.244571 81.453319 
L 190.708364 106.466554 
L 191.172156 105.941349 
L 191.635948 104.132766 
L 192.09974 104.711989 
L 192.563532 103.081565 
L 193.027325 106.019591 
L 193.491117 103.022789 
L 193.954909 105.971529 
L 194.418701 105.125763 
L 194.882494 106.631849 
L 195.346286 106.019591 
L 195.810078 107.584571 
L 196.27387 108.285195 
L 196.737662 102.682543 
L 197.201455 98.658819 
L 197.665247 97.796814 
L 198.129039 103.921335 
L 198.592831 105.531072 
L 199.056623 104.222228 
L 199.520416 106.158407 
L 199.984208 102.505789 
L 200.448 105.581511 
L 200.911792 112.400624 
L 201.375584 106.28693 
L 201.839377 104.638423 
L 202.303169 94.031598 
L 202.766961 107.367612 
L 203.230753 93.264329 
L 203.694545 173.338365 
L 204.158338 106.930026 
L 205.085922 107.367612 
L 205.549714 105.632918 
L 206.013506 107.187592 
L 206.477299 110.418473 
L 207.404883 92.791311 
L 207.868675 89.374955 
L 208.332468 106.870002 
L 208.79626 105.581511 
L 209.260052 103.904395 
L 209.723844 106.019591 
L 210.187636 96.754021 
L 210.651429 93.987842 
L 211.115221 107.367612 
L 211.579013 92.015884 
L 212.042805 108.336543 
L 212.506597 109.271155 
L 212.97039 108.285195 
L 212.97039 108.285195 
" clip-path="url(#p141ed925b6)" style="fill: none; stroke: #d62728; stroke-width: 1.5; stroke-linecap: square"/>
   </g>
   <g id="line2d_19">
    <path d="M 73.832727 101.702519 
L 74.296519 98.606797 
L 74.760312 81.566549 
L 75.224104 104.949489 
L 75.687896 106.581787 
L 76.151688 79.278432 
L 76.615481 105.362243 
L 77.079273 93.263129 
L 77.543065 101.814982 
L 78.006857 90.701708 
L 78.470649 94.110438 
L 78.934442 86.830892 
L 79.398234 90.102376 
L 79.862026 92.383684 
L 80.325818 101.597315 
L 80.78961 93.098143 
L 81.253403 102.613736 
L 81.717195 295.488 
L 82.180987 92.526596 
L 82.644779 93.737288 
L 83.108571 92.953907 
L 83.572364 92.395377 
L 84.036156 92.993014 
L 84.499948 94.39876 
L 84.96374 101.989786 
L 85.427532 82.205734 
L 85.891325 93.231244 
L 86.355117 101.505647 
L 86.818909 93.525985 
L 87.282701 93.616359 
L 87.746494 94.645612 
L 88.210286 93.398429 
L 88.674078 94.124019 
L 89.13787 93.953077 
L 89.601662 103.151091 
L 90.065455 93.826792 
L 90.529247 93.178737 
L 90.993039 94.37506 
L 91.456831 94.771747 
L 91.920623 132.816399 
L 92.384416 95.571759 
L 92.848208 93.9336 
L 93.775792 94.169365 
L 94.703377 94.126609 
L 95.167169 95.466555 
L 95.630961 94.918054 
L 96.094753 94.885571 
L 96.558545 95.494886 
L 97.022338 94.133894 
L 97.48613 94.156823 
L 97.949922 96.374954 
L 98.413714 96.131471 
L 98.877506 95.425821 
L 99.341299 85.046806 
L 99.805091 95.986001 
L 100.268883 75.053268 
L 100.732675 97.01122 
L 101.196468 95.50462 
L 101.66026 98.201036 
L 102.124052 96.714142 
L 102.587844 96.461803 
L 103.051636 97.042754 
L 103.515429 96.474491 
L 103.979221 97.07538 
L 104.443013 102.399175 
L 104.906805 96.592165 
L 105.370597 101.256995 
L 105.83439 96.675967 
L 106.298182 95.466608 
L 106.761974 97.811936 
L 107.225766 99.3996 
L 107.689558 96.357378 
L 108.153351 96.759594 
L 108.617143 151.038526 
L 109.080935 104.636234 
L 109.544727 72.9609 
L 110.008519 75.422287 
L 110.472312 97.074155 
L 110.936104 96.282705 
L 111.399896 97.747306 
L 111.863688 98.751137 
L 112.327481 97.329099 
L 112.791273 98.59552 
L 113.255065 97.771091 
L 113.718857 185.832695 
L 114.182649 99.244898 
L 114.646442 98.6355 
L 115.110234 106.372542 
L 116.037818 86.683847 
L 116.50161 98.151796 
L 116.965403 97.817625 
L 117.429195 98.297899 
L 117.892987 77.229303 
L 118.356779 97.835137 
L 118.820571 100.200562 
L 119.284364 97.998838 
L 119.748156 96.998655 
L 120.211948 98.391731 
L 120.67574 97.15105 
L 121.139532 78.261271 
L 121.603325 97.595387 
L 122.067117 97.564417 
L 122.530909 98.235933 
L 122.994701 98.391731 
L 123.458494 97.835137 
L 123.922286 98.184174 
L 124.386078 98.094756 
L 124.84987 97.367704 
L 125.313662 97.156627 
L 125.777455 97.397428 
L 126.241247 96.711715 
L 126.705039 97.835137 
L 127.168831 97.500436 
L 127.632623 97.434871 
L 128.096416 97.747306 
L 128.560208 97.718584 
L 129.024 97.083188 
L 129.487792 96.93212 
L 129.951584 97.008318 
L 130.415377 97.367704 
L 130.879169 97.132361 
L 131.342961 97.434871 
L 131.806753 97.397428 
L 132.270545 96.776288 
L 133.19813 97.327899 
L 133.661922 97.914369 
L 134.125714 97.256637 
L 134.589506 96.834006 
L 135.517091 96.93212 
L 135.980883 97.256637 
L 136.444675 96.877104 
L 136.908468 80.585596 
L 137.37226 97.298928 
L 137.836052 96.854723 
L 138.763636 96.939917 
L 139.227429 80.949762 
L 139.691221 104.711989 
L 140.155013 97.29568 
L 140.618805 96.93212 
L 141.082597 97.222917 
L 141.54639 96.854723 
L 142.010182 80.767799 
L 142.473974 85.54158 
L 142.937766 96.840574 
L 143.401558 96.63542 
L 143.865351 97.035055 
L 144.329143 96.461193 
L 144.792935 99.022905 
L 145.256727 95.762568 
L 145.720519 106.466554 
L 146.184312 98.952352 
L 146.648104 96.776288 
L 147.111896 96.854723 
L 147.575688 97.244413 
L 148.039481 103.017656 
L 148.503273 96.461193 
L 148.967065 103.017656 
L 149.430857 97.806096 
L 149.894649 96.854723 
L 150.358442 94.544104 
L 150.822234 96.854723 
L 151.286026 102.191963 
L 151.749818 96.776288 
L 152.21361 96.908834 
L 152.677403 96.385902 
L 153.141195 163.911786 
L 153.604987 80.766558 
L 154.068779 105.581511 
L 154.532571 96.854723 
L 154.996364 103.857521 
L 155.460156 97.90036 
L 155.923948 156.380487 
L 156.38774 100.645594 
L 156.851532 97.734435 
L 157.315325 96.595392 
L 157.779117 96.518379 
L 158.706701 103.857521 
L 159.170494 63.218515 
L 159.634286 89.396151 
L 160.098078 103.37177 
L 160.56187 103.017656 
L 161.025662 106.466554 
L 161.489455 67.666578 
L 161.953247 105.581511 
L 162.417039 97.410178 
L 162.880831 195.838795 
L 163.344623 101.380029 
L 163.808416 100.32059 
L 164.272208 97.035055 
L 164.736 104.685293 
L 165.199792 102.191963 
L 165.663584 103.105766 
L 166.127377 90.858064 
L 166.591169 84.195877 
L 167.054961 105.581511 
L 167.518753 106.466554 
L 167.982545 94.754925 
L 168.446338 104.711989 
L 168.91013 103.985337 
L 169.373922 106.466554 
L 169.837714 95.849007 
L 170.301506 107.367612 
L 170.765299 97.653237 
L 171.229091 107.367612 
L 171.692883 106.961975 
L 172.156675 105.645105 
L 172.620468 100.449466 
L 173.08426 107.367612 
L 173.548052 101.291188 
L 174.011844 105.581511 
L 174.475636 107.367612 
L 174.939429 104.711989 
L 175.403221 96.573465 
L 175.867013 99.235311 
L 176.330805 107.367612 
L 176.794597 106.82825 
L 177.25839 107.187592 
L 177.722182 105.581511 
L 178.185974 86.475288 
L 178.649766 174.444019 
L 179.113558 104.763401 
L 179.577351 105.645105 
L 180.041143 107.506567 
L 180.504935 102.713991 
L 180.968727 107.367612 
L 181.432519 106.530025 
L 181.896312 107.367612 
L 182.360104 105.72095 
L 182.823896 107.367612 
L 183.287688 101.706618 
L 183.751481 108.2053 
L 184.215273 104.188292 
L 184.679065 108.285195 
L 185.142857 133.612898 
L 185.606649 80.949762 
L 186.070442 103.535176 
L 186.534234 100.888579 
L 186.998026 103.857521 
L 187.461818 104.387544 
L 187.92561 107.367612 
L 188.389403 96.888801 
L 188.853195 103.857521 
L 189.316987 106.28693 
L 189.780779 95.897099 
L 190.244571 81.453319 
L 190.708364 106.466554 
L 191.172156 105.941349 
L 191.635948 104.132766 
L 192.09974 104.711989 
L 192.563532 103.081565 
L 193.027325 106.019591 
L 193.491117 103.022789 
L 193.954909 105.971529 
L 194.418701 105.125763 
L 194.882494 106.631849 
L 195.346286 106.019591 
L 195.810078 107.584571 
L 196.27387 108.285195 
L 196.737662 102.682543 
L 197.201455 98.658819 
L 197.665247 97.796814 
L 198.129039 103.921335 
L 198.592831 105.531072 
L 199.056623 104.222228 
L 199.520416 106.158407 
L 199.984208 102.505789 
L 200.448 105.581511 
L 200.911792 112.400624 
L 201.375584 106.28693 
L 201.839377 104.638423 
L 202.303169 94.031598 
L 202.766961 107.367612 
L 203.230753 93.264329 
L 203.694545 173.338365 
L 204.158338 106.930026 
L 205.085922 107.367612 
L 205.549714 105.632918 
L 206.013506 107.187592 
L 206.477299 110.418473 
L 207.404883 92.791311 
L 207.868675 89.374955 
L 208.332468 106.870002 
L 208.79626 105.581511 
L 209.260052 103.904395 
L 209.723844 106.019591 
L 210.187636 96.754021 
L 210.651429 93.987842 
L 211.115221 107.367612 
L 211.579013 92.015884 
L 212.042805 108.336543 
L 212.506597 109.271155 
L 212.97039 108.285195 
L 213.434182 106.019591 
L 213.897974 106.019591 
L 214.361766 100.482424 
L 214.825558 108.285195 
L 215.289351 105.573998 
L 215.753143 106.466554 
L 216.216935 106.466554 
L 217.144519 110.184876 
L 217.608312 98.672208 
L 218.072104 108.885136 
L 218.535896 115.694262 
L 218.999688 68.289303 
L 219.463481 107.952509 
L 219.927273 111.144641 
L 220.391065 107.367612 
L 220.854857 107.367612 
L 221.318649 105.467002 
L 221.782442 120.770098 
L 222.246234 184.819396 
L 223.173818 103.103962 
L 223.63761 115.556483 
L 224.101403 93.252412 
L 224.565195 107.187592 
L 225.028987 97.620093 
L 225.492779 107.367612 
L 225.956571 74.050366 
L 226.420364 87.494457 
L 226.884156 105.581511 
L 227.347948 118.230661 
L 227.81174 105.769758 
L 228.275532 196.810599 
L 228.739325 175.428109 
L 229.203117 166.426782 
L 229.666909 107.457449 
L 230.130701 126.320343 
L 230.594494 209.665337 
L 231.058286 107.187592 
L 231.522078 289.588903 
L 231.98587 107.367612 
L 232.449662 107.367612 
L 232.913455 65.125078 
L 233.377247 112.914348 
L 233.841039 208.259133 
L 234.304831 185.169174 
L 234.768623 191.389121 
L 235.232416 107.176816 
L 235.696208 118.786349 
L 236.16 103.396333 
L 236.623792 186.349195 
L 237.087584 96.833532 
L 237.551377 108.285195 
L 238.015169 109.211234 
L 238.478961 176.542341 
L 238.942753 173.769317 
L 239.406545 105.359691 
L 239.870338 203.758434 
L 240.33413 194.862482 
L 240.797922 103.913135 
L 241.261714 97.279638 
L 241.725506 107.367612 
L 242.189299 106.556227 
L 242.653091 108.285195 
L 243.116883 96.526919 
L 243.580675 108.233149 
L 244.044468 108.285195 
L 244.50826 98.404519 
L 244.972052 107.367612 
L 245.435844 138.805133 
L 245.899636 103.644368 
L 246.363429 108.234627 
L 246.827221 107.367612 
L 247.291013 108.285195 
L 247.754805 184.106879 
L 248.218597 99.177625 
L 248.68239 102.100958 
L 249.146182 100.240127 
L 249.609974 96.8998 
L 250.073766 108.8561 
L 250.537558 101.866319 
L 251.001351 178.840892 
L 251.465143 103.022518 
L 251.928935 89.191658 
L 252.392727 108.285195 
L 252.856519 108.730483 
L 253.320312 106.089769 
L 253.784104 104.577639 
L 254.247896 107.367612 
L 254.711688 107.367612 
L 255.175481 108.643469 
L 255.639273 104.373542 
L 256.103065 124.006216 
L 256.566857 109.552224 
L 257.030649 107.367612 
L 257.494442 180.256239 
L 257.958234 108.285195 
L 258.422026 185.15792 
L 258.885818 92.741537 
L 259.34961 107.367612 
L 259.34961 107.367612 
" clip-path="url(#p141ed925b6)" style="fill: none; stroke: #9467bd; stroke-width: 1.5; stroke-linecap: square"/>
   </g>
   <g id="line2d_20">
    <path d="M 73.832727 101.702519 
L 74.296519 98.606797 
L 74.760312 81.566549 
L 75.224104 104.949489 
L 75.687896 106.581787 
L 76.151688 79.278432 
L 76.615481 105.362243 
L 77.079273 93.263129 
L 77.543065 101.814982 
L 78.006857 90.701708 
L 78.470649 94.110438 
L 78.934442 86.830892 
L 79.398234 90.102376 
L 79.862026 92.383684 
L 80.325818 101.597315 
L 80.78961 93.098143 
L 81.253403 102.613736 
L 81.717195 295.488 
L 82.180987 92.526596 
L 82.644779 93.737288 
L 83.108571 92.953907 
L 83.572364 92.395377 
L 84.036156 92.993014 
L 84.499948 94.39876 
L 84.96374 101.989786 
L 85.427532 82.205734 
L 85.891325 93.231244 
L 86.355117 101.505647 
L 86.818909 93.525985 
L 87.282701 93.616359 
L 87.746494 94.645612 
L 88.210286 93.398429 
L 88.674078 94.124019 
L 89.13787 93.953077 
L 89.601662 103.151091 
L 90.065455 93.826792 
L 90.529247 93.178737 
L 90.993039 94.37506 
L 91.456831 94.771747 
L 91.920623 132.816399 
L 92.384416 95.571759 
L 92.848208 93.9336 
L 93.775792 94.169365 
L 94.703377 94.126609 
L 95.167169 95.466555 
L 95.630961 94.918054 
L 96.094753 94.885571 
L 96.558545 95.494886 
L 97.022338 94.133894 
L 97.48613 94.156823 
L 97.949922 96.374954 
L 98.413714 96.131471 
L 98.877506 95.425821 
L 99.341299 85.046806 
L 99.805091 95.986001 
L 100.268883 75.053268 
L 100.732675 97.01122 
L 101.196468 95.50462 
L 101.66026 98.201036 
L 102.124052 96.714142 
L 102.587844 96.461803 
L 103.051636 97.042754 
L 103.515429 96.474491 
L 103.979221 97.07538 
L 104.443013 102.399175 
L 104.906805 96.592165 
L 105.370597 101.256995 
L 105.83439 96.675967 
L 106.298182 95.466608 
L 106.761974 97.811936 
L 107.225766 99.3996 
L 107.689558 96.357378 
L 108.153351 96.759594 
L 108.617143 151.038526 
L 109.080935 104.636234 
L 109.544727 72.9609 
L 110.008519 75.422287 
L 110.472312 97.074155 
L 110.936104 96.282705 
L 111.399896 97.747306 
L 111.863688 98.751137 
L 112.327481 97.329099 
L 112.791273 98.59552 
L 113.255065 97.771091 
L 113.718857 185.832695 
L 114.182649 99.244898 
L 114.646442 98.6355 
L 115.110234 106.372542 
L 116.037818 86.683847 
L 116.50161 98.151796 
L 116.965403 97.817625 
L 117.429195 98.297899 
L 117.892987 77.229303 
L 118.356779 97.835137 
L 118.820571 100.200562 
L 119.284364 97.998838 
L 119.748156 96.998655 
L 120.211948 98.391731 
L 120.67574 97.15105 
L 121.139532 78.261271 
L 121.603325 97.595387 
L 122.067117 97.564417 
L 122.530909 98.235933 
L 122.994701 98.391731 
L 123.458494 97.835137 
L 123.922286 98.184174 
L 124.386078 98.094756 
L 124.84987 97.367704 
L 125.313662 97.156627 
L 125.777455 97.397428 
L 126.241247 96.711715 
L 126.705039 97.835137 
L 127.168831 97.500436 
L 127.632623 97.434871 
L 128.096416 97.747306 
L 128.560208 97.718584 
L 129.024 97.083188 
L 129.487792 96.93212 
L 129.951584 97.008318 
L 130.415377 97.367704 
L 130.879169 97.132361 
L 131.342961 97.434871 
L 131.806753 97.397428 
L 132.270545 96.776288 
L 133.19813 97.327899 
L 133.661922 97.914369 
L 134.125714 97.256637 
L 134.589506 96.834006 
L 135.517091 96.93212 
L 135.980883 97.256637 
L 136.444675 96.877104 
L 136.908468 80.585596 
L 137.37226 97.298928 
L 137.836052 96.854723 
L 138.763636 96.939917 
L 139.227429 80.949762 
L 139.691221 104.711989 
L 140.155013 97.29568 
L 140.618805 96.93212 
L 141.082597 97.222917 
L 141.54639 96.854723 
L 142.010182 80.767799 
L 142.473974 85.54158 
L 142.937766 96.840574 
L 143.401558 96.63542 
L 143.865351 97.035055 
L 144.329143 96.461193 
L 144.792935 99.022905 
L 145.256727 95.762568 
L 145.720519 106.466554 
L 146.184312 98.952352 
L 146.648104 96.776288 
L 147.111896 96.854723 
L 147.575688 97.244413 
L 148.039481 103.017656 
L 148.503273 96.461193 
L 148.967065 103.017656 
L 149.430857 97.806096 
L 149.894649 96.854723 
L 150.358442 94.544104 
L 150.822234 96.854723 
L 151.286026 102.191963 
L 151.749818 96.776288 
L 152.21361 96.908834 
L 152.677403 96.385902 
L 153.141195 163.911786 
L 153.604987 80.766558 
L 154.068779 105.581511 
L 154.532571 96.854723 
L 154.996364 103.857521 
L 155.460156 97.90036 
L 155.923948 156.380487 
L 156.38774 100.645594 
L 156.851532 97.734435 
L 157.315325 96.595392 
L 157.779117 96.518379 
L 158.706701 103.857521 
L 159.170494 63.218515 
L 159.634286 89.396151 
L 160.098078 103.37177 
L 160.56187 103.017656 
L 161.025662 106.466554 
L 161.489455 67.666578 
L 161.953247 105.581511 
L 162.417039 97.410178 
L 162.880831 195.838795 
L 163.344623 101.380029 
L 163.808416 100.32059 
L 164.272208 97.035055 
L 164.736 104.685293 
L 165.199792 102.191963 
L 165.663584 103.105766 
L 166.127377 90.858064 
L 166.591169 84.195877 
L 167.054961 105.581511 
L 167.518753 106.466554 
L 167.982545 94.754925 
L 168.446338 104.711989 
L 168.91013 103.985337 
L 169.373922 106.466554 
L 169.837714 95.849007 
L 170.301506 107.367612 
L 170.765299 97.653237 
L 171.229091 107.367612 
L 171.692883 106.961975 
L 172.156675 105.645105 
L 172.620468 100.449466 
L 173.08426 107.367612 
L 173.548052 101.291188 
L 174.011844 105.581511 
L 174.475636 107.367612 
L 174.939429 104.711989 
L 175.403221 96.573465 
L 175.867013 99.235311 
L 176.330805 107.367612 
L 176.794597 106.82825 
L 177.25839 107.187592 
L 177.722182 105.581511 
L 178.185974 86.475288 
L 178.649766 174.444019 
L 179.113558 104.763401 
L 179.577351 105.645105 
L 180.041143 107.506567 
L 180.504935 102.713991 
L 180.968727 107.367612 
L 181.432519 106.530025 
L 181.896312 107.367612 
L 182.360104 105.72095 
L 182.823896 107.367612 
L 183.287688 101.706618 
L 183.751481 108.2053 
L 184.215273 104.188292 
L 184.679065 108.285195 
L 185.142857 133.612898 
L 185.606649 80.949762 
L 186.070442 103.535176 
L 186.534234 100.888579 
L 186.998026 103.857521 
L 187.461818 104.387544 
L 187.92561 107.367612 
L 188.389403 96.888801 
L 188.853195 103.857521 
L 189.316987 106.28693 
L 189.780779 95.897099 
L 190.244571 81.453319 
L 190.708364 106.466554 
L 191.172156 105.941349 
L 191.635948 104.132766 
L 192.09974 104.711989 
L 192.563532 103.081565 
L 193.027325 106.019591 
L 193.491117 103.022789 
L 193.954909 105.971529 
L 194.418701 105.125763 
L 194.882494 106.631849 
L 195.346286 106.019591 
L 195.810078 107.584571 
L 196.27387 108.285195 
L 196.737662 102.682543 
L 197.201455 98.658819 
L 197.665247 97.796814 
L 198.129039 103.921335 
L 198.592831 105.531072 
L 199.056623 104.222228 
L 199.520416 106.158407 
L 199.984208 102.505789 
L 200.448 105.581511 
L 200.911792 112.400624 
L 201.375584 106.28693 
L 201.839377 104.638423 
L 202.303169 94.031598 
L 202.766961 107.367612 
L 203.230753 93.264329 
L 203.694545 173.338365 
L 204.158338 106.930026 
L 205.085922 107.367612 
L 205.549714 105.632918 
L 206.013506 107.187592 
L 206.477299 110.418473 
L 207.404883 92.791311 
L 207.868675 89.374955 
L 208.332468 106.870002 
L 208.79626 105.581511 
L 209.260052 103.904395 
L 209.723844 106.019591 
L 210.187636 96.754021 
L 210.651429 93.987842 
L 211.115221 107.367612 
L 211.579013 92.015884 
L 212.042805 108.336543 
L 212.506597 109.271155 
L 212.97039 108.285195 
L 213.434182 106.019591 
L 213.897974 106.019591 
L 214.361766 100.482424 
L 214.825558 108.285195 
L 215.289351 105.573998 
L 215.753143 106.466554 
L 216.216935 106.466554 
L 217.144519 110.184876 
L 217.608312 98.672208 
L 218.072104 108.885136 
L 218.535896 115.694262 
L 218.999688 68.289303 
L 219.463481 107.952509 
L 219.927273 111.144641 
L 220.391065 107.367612 
L 220.854857 107.367612 
L 221.318649 105.467002 
L 221.782442 120.770098 
L 222.246234 184.819396 
L 223.173818 103.103962 
L 223.63761 115.556483 
L 224.101403 93.252412 
L 224.565195 107.187592 
L 225.028987 97.620093 
L 225.492779 107.367612 
L 225.956571 74.050366 
L 226.420364 87.494457 
L 226.884156 105.581511 
L 227.347948 118.230661 
L 227.81174 105.769758 
L 228.275532 196.810599 
L 228.739325 175.428109 
L 229.203117 166.426782 
L 229.666909 107.457449 
L 230.130701 126.320343 
L 230.594494 209.665337 
L 231.058286 107.187592 
L 231.522078 289.588903 
L 231.98587 107.367612 
L 232.449662 107.367612 
L 232.913455 65.125078 
L 233.377247 112.914348 
L 233.841039 208.259133 
L 234.304831 185.169174 
L 234.768623 191.389121 
L 235.232416 107.176816 
L 235.696208 118.786349 
L 236.16 103.396333 
L 236.623792 186.349195 
L 237.087584 96.833532 
L 237.551377 108.285195 
L 238.015169 109.211234 
L 238.478961 176.542341 
L 238.942753 173.769317 
L 239.406545 105.359691 
L 239.870338 203.758434 
L 240.33413 194.862482 
L 240.797922 103.913135 
L 241.261714 97.279638 
L 241.725506 107.367612 
L 242.189299 106.556227 
L 242.653091 108.285195 
L 243.116883 96.526919 
L 243.580675 108.233149 
L 244.044468 108.285195 
L 244.50826 98.404519 
L 244.972052 107.367612 
L 245.435844 138.805133 
L 245.899636 103.644368 
L 246.363429 108.234627 
L 246.827221 107.367612 
L 247.291013 108.285195 
L 247.754805 184.106879 
L 248.218597 99.177625 
L 248.68239 102.100958 
L 249.146182 100.240127 
L 249.609974 96.8998 
L 250.073766 108.8561 
L 250.537558 101.866319 
L 251.001351 178.840892 
L 251.465143 103.022518 
L 251.928935 89.191658 
L 252.392727 108.285195 
L 252.856519 108.730483 
L 253.320312 106.089769 
L 253.784104 104.577639 
L 254.247896 107.367612 
L 254.711688 107.367612 
L 255.175481 108.643469 
L 255.639273 104.373542 
L 256.103065 124.006216 
L 256.566857 109.552224 
L 257.030649 107.367612 
L 257.494442 180.256239 
L 257.958234 108.285195 
L 258.422026 185.15792 
L 258.885818 92.741537 
L 259.34961 107.367612 
L 260.277195 107.367612 
L 260.740987 180.543585 
L 261.204779 107.367612 
L 261.668571 120.637962 
L 262.132364 107.367612 
L 262.596156 107.787109 
L 263.059948 58.100949 
L 263.52374 109.708518 
L 263.987532 126.419345 
L 264.451325 107.367612 
L 264.915117 107.367612 
L 265.378909 98.712466 
L 265.842701 108.285195 
L 266.306494 104.003244 
L 266.770286 108.285195 
L 267.234078 107.367612 
L 267.69787 107.367612 
L 268.161662 53.568 
L 268.625455 107.367612 
L 269.089247 107.676395 
L 269.553039 109.316052 
L 270.016831 107.367612 
L 270.480623 111.142603 
L 270.944416 97.976708 
L 271.408208 107.367612 
L 271.872 107.367612 
L 272.335792 97.82547 
L 272.799584 98.203478 
L 273.263377 107.367612 
L 273.727169 125.201471 
L 274.190961 109.219843 
L 274.654753 184.255593 
L 275.118545 108.285195 
L 275.582338 113.40006 
L 276.04613 65.027228 
L 276.509922 185.10287 
L 276.973714 79.915997 
L 277.901299 129.512731 
L 278.365091 107.367612 
L 278.828883 106.426266 
L 279.292675 167.647035 
L 279.756468 108.37519 
L 280.22026 185.10287 
L 280.684052 105.659491 
L 281.147844 119.544888 
L 281.611636 108.511555 
L 282.075429 108.749741 
L 282.539221 108.37519 
L 283.003013 107.367612 
L 283.466805 108.336543 
L 283.930597 107.316296 
L 284.39439 107.367612 
L 284.858182 106.023512 
L 285.785766 117.225516 
L 286.249558 62.636606 
L 286.713351 108.285195 
L 287.177143 102.780991 
L 287.640935 107.367612 
L 288.104727 107.367612 
L 288.568519 106.418082 
L 289.032312 107.753288 
L 289.496104 107.367612 
L 289.959896 108.285195 
L 290.423688 96.586027 
L 290.887481 107.367612 
L 291.351273 107.367612 
L 291.815065 111.142603 
L 292.278857 110.172116 
L 293.206442 103.913135 
L 294.134026 103.913135 
L 294.597818 180.256239 
L 295.06161 108.37519 
L 295.525403 180.543585 
L 295.989195 115.878764 
L 296.452987 187.871633 
L 296.916779 108.109489 
L 297.380571 107.676395 
L 297.844364 56.910451 
L 298.308156 60.829112 
L 298.771948 107.367612 
L 299.23574 103.022518 
L 299.699532 109.309985 
L 300.163325 109.219843 
L 301.090909 103.022518 
L 301.554701 107.367612 
L 302.018494 177.673136 
L 302.482286 107.367612 
L 302.946078 112.131922 
L 303.40987 94.652559 
L 303.873662 108.730483 
L 304.337455 107.367612 
L 304.801247 161.250977 
L 305.265039 128.100427 
L 305.728831 120.691117 
L 305.728831 120.691117 
" clip-path="url(#p141ed925b6)" style="fill: none; stroke: #8c564b; stroke-width: 1.5; stroke-linecap: square"/>
   </g>
   <g id="line2d_21">
    <path d="M 73.832727 101.702519 
L 74.296519 98.606797 
L 74.760312 81.566549 
L 75.224104 104.949489 
L 75.687896 106.581787 
L 76.151688 79.278432 
L 76.615481 105.362243 
L 77.079273 93.263129 
L 77.543065 101.814982 
L 78.006857 90.701708 
L 78.470649 94.110438 
L 78.934442 86.830892 
L 79.398234 90.102376 
L 79.862026 92.383684 
L 80.325818 101.597315 
L 80.78961 93.098143 
L 81.253403 102.613736 
L 81.717195 295.488 
L 82.180987 92.526596 
L 82.644779 93.737288 
L 83.108571 92.953907 
L 83.572364 92.395377 
L 84.036156 92.993014 
L 84.499948 94.39876 
L 84.96374 101.989786 
L 85.427532 82.205734 
L 85.891325 93.231244 
L 86.355117 101.505647 
L 86.818909 93.525985 
L 87.282701 93.616359 
L 87.746494 94.645612 
L 88.210286 93.398429 
L 88.674078 94.124019 
L 89.13787 93.953077 
L 89.601662 103.151091 
L 90.065455 93.826792 
L 90.529247 93.178737 
L 90.993039 94.37506 
L 91.456831 94.771747 
L 91.920623 132.816399 
L 92.384416 95.571759 
L 92.848208 93.9336 
L 93.775792 94.169365 
L 94.703377 94.126609 
L 95.167169 95.466555 
L 95.630961 94.918054 
L 96.094753 94.885571 
L 96.558545 95.494886 
L 97.022338 94.133894 
L 97.48613 94.156823 
L 97.949922 96.374954 
L 98.413714 96.131471 
L 98.877506 95.425821 
L 99.341299 85.046806 
L 99.805091 95.986001 
L 100.268883 75.053268 
L 100.732675 97.01122 
L 101.196468 95.50462 
L 101.66026 98.201036 
L 102.124052 96.714142 
L 102.587844 96.461803 
L 103.051636 97.042754 
L 103.515429 96.474491 
L 103.979221 97.07538 
L 104.443013 102.399175 
L 104.906805 96.592165 
L 105.370597 101.256995 
L 105.83439 96.675967 
L 106.298182 95.466608 
L 106.761974 97.811936 
L 107.225766 99.3996 
L 107.689558 96.357378 
L 108.153351 96.759594 
L 108.617143 151.038526 
L 109.080935 104.636234 
L 109.544727 72.9609 
L 110.008519 75.422287 
L 110.472312 97.074155 
L 110.936104 96.282705 
L 111.399896 97.747306 
L 111.863688 98.751137 
L 112.327481 97.329099 
L 112.791273 98.59552 
L 113.255065 97.771091 
L 113.718857 185.832695 
L 114.182649 99.244898 
L 114.646442 98.6355 
L 115.110234 106.372542 
L 116.037818 86.683847 
L 116.50161 98.151796 
L 116.965403 97.817625 
L 117.429195 98.297899 
L 117.892987 77.229303 
L 118.356779 97.835137 
L 118.820571 100.200562 
L 119.284364 97.998838 
L 119.748156 96.998655 
L 120.211948 98.391731 
L 120.67574 97.15105 
L 121.139532 78.261271 
L 121.603325 97.595387 
L 122.067117 97.564417 
L 122.530909 98.235933 
L 122.994701 98.391731 
L 123.458494 97.835137 
L 123.922286 98.184174 
L 124.386078 98.094756 
L 124.84987 97.367704 
L 125.313662 97.156627 
L 125.777455 97.397428 
L 126.241247 96.711715 
L 126.705039 97.835137 
L 127.168831 97.500436 
L 127.632623 97.434871 
L 128.096416 97.747306 
L 128.560208 97.718584 
L 129.024 97.083188 
L 129.487792 96.93212 
L 129.951584 97.008318 
L 130.415377 97.367704 
L 130.879169 97.132361 
L 131.342961 97.434871 
L 131.806753 97.397428 
L 132.270545 96.776288 
L 133.19813 97.327899 
L 133.661922 97.914369 
L 134.125714 97.256637 
L 134.589506 96.834006 
L 135.517091 96.93212 
L 135.980883 97.256637 
L 136.444675 96.877104 
L 136.908468 80.585596 
L 137.37226 97.298928 
L 137.836052 96.854723 
L 138.763636 96.939917 
L 139.227429 80.949762 
L 139.691221 104.711989 
L 140.155013 97.29568 
L 140.618805 96.93212 
L 141.082597 97.222917 
L 141.54639 96.854723 
L 142.010182 80.767799 
L 142.473974 85.54158 
L 142.937766 96.840574 
L 143.401558 96.63542 
L 143.865351 97.035055 
L 144.329143 96.461193 
L 144.792935 99.022905 
L 145.256727 95.762568 
L 145.720519 106.466554 
L 146.184312 98.952352 
L 146.648104 96.776288 
L 147.111896 96.854723 
L 147.575688 97.244413 
L 148.039481 103.017656 
L 148.503273 96.461193 
L 148.967065 103.017656 
L 149.430857 97.806096 
L 149.894649 96.854723 
L 150.358442 94.544104 
L 150.822234 96.854723 
L 151.286026 102.191963 
L 151.749818 96.776288 
L 152.21361 96.908834 
L 152.677403 96.385902 
L 153.141195 163.911786 
L 153.604987 80.766558 
L 154.068779 105.581511 
L 154.532571 96.854723 
L 154.996364 103.857521 
L 155.460156 97.90036 
L 155.923948 156.380487 
L 156.38774 100.645594 
L 156.851532 97.734435 
L 157.315325 96.595392 
L 157.779117 96.518379 
L 158.706701 103.857521 
L 159.170494 63.218515 
L 159.634286 89.396151 
L 160.098078 103.37177 
L 160.56187 103.017656 
L 161.025662 106.466554 
L 161.489455 67.666578 
L 161.953247 105.581511 
L 162.417039 97.410178 
L 162.880831 195.838795 
L 163.344623 101.380029 
L 163.808416 100.32059 
L 164.272208 97.035055 
L 164.736 104.685293 
L 165.199792 102.191963 
L 165.663584 103.105766 
L 166.127377 90.858064 
L 166.591169 84.195877 
L 167.054961 105.581511 
L 167.518753 106.466554 
L 167.982545 94.754925 
L 168.446338 104.711989 
L 168.91013 103.985337 
L 169.373922 106.466554 
L 169.837714 95.849007 
L 170.301506 107.367612 
L 170.765299 97.653237 
L 171.229091 107.367612 
L 171.692883 106.961975 
L 172.156675 105.645105 
L 172.620468 100.449466 
L 173.08426 107.367612 
L 173.548052 101.291188 
L 174.011844 105.581511 
L 174.475636 107.367612 
L 174.939429 104.711989 
L 175.403221 96.573465 
L 175.867013 99.235311 
L 176.330805 107.367612 
L 176.794597 106.82825 
L 177.25839 107.187592 
L 177.722182 105.581511 
L 178.185974 86.475288 
L 178.649766 174.444019 
L 179.113558 104.763401 
L 179.577351 105.645105 
L 180.041143 107.506567 
L 180.504935 102.713991 
L 180.968727 107.367612 
L 181.432519 106.530025 
L 181.896312 107.367612 
L 182.360104 105.72095 
L 182.823896 107.367612 
L 183.287688 101.706618 
L 183.751481 108.2053 
L 184.215273 104.188292 
L 184.679065 108.285195 
L 185.142857 133.612898 
L 185.606649 80.949762 
L 186.070442 103.535176 
L 186.534234 100.888579 
L 186.998026 103.857521 
L 187.461818 104.387544 
L 187.92561 107.367612 
L 188.389403 96.888801 
L 188.853195 103.857521 
L 189.316987 106.28693 
L 189.780779 95.897099 
L 190.244571 81.453319 
L 190.708364 106.466554 
L 191.172156 105.941349 
L 191.635948 104.132766 
L 192.09974 104.711989 
L 192.563532 103.081565 
L 193.027325 106.019591 
L 193.491117 103.022789 
L 193.954909 105.971529 
L 194.418701 105.125763 
L 194.882494 106.631849 
L 195.346286 106.019591 
L 195.810078 107.584571 
L 196.27387 108.285195 
L 196.737662 102.682543 
L 197.201455 98.658819 
L 197.665247 97.796814 
L 198.129039 103.921335 
L 198.592831 105.531072 
L 199.056623 104.222228 
L 199.520416 106.158407 
L 199.984208 102.505789 
L 200.448 105.581511 
L 200.911792 112.400624 
L 201.375584 106.28693 
L 201.839377 104.638423 
L 202.303169 94.031598 
L 202.766961 107.367612 
L 203.230753 93.264329 
L 203.694545 173.338365 
L 204.158338 106.930026 
L 205.085922 107.367612 
L 205.549714 105.632918 
L 206.013506 107.187592 
L 206.477299 110.418473 
L 207.404883 92.791311 
L 207.868675 89.374955 
L 208.332468 106.870002 
L 208.79626 105.581511 
L 209.260052 103.904395 
L 209.723844 106.019591 
L 210.187636 96.754021 
L 210.651429 93.987842 
L 211.115221 107.367612 
L 211.579013 92.015884 
L 212.042805 108.336543 
L 212.506597 109.271155 
L 212.97039 108.285195 
L 213.434182 106.019591 
L 213.897974 106.019591 
L 214.361766 100.482424 
L 214.825558 108.285195 
L 215.289351 105.573998 
L 215.753143 106.466554 
L 216.216935 106.466554 
L 217.144519 110.184876 
L 217.608312 98.672208 
L 218.072104 108.885136 
L 218.535896 115.694262 
L 218.999688 68.289303 
L 219.463481 107.952509 
L 219.927273 111.144641 
L 220.391065 107.367612 
L 220.854857 107.367612 
L 221.318649 105.467002 
L 221.782442 120.770098 
L 222.246234 184.819396 
L 223.173818 103.103962 
L 223.63761 115.556483 
L 224.101403 93.252412 
L 224.565195 107.187592 
L 225.028987 97.620093 
L 225.492779 107.367612 
L 225.956571 74.050366 
L 226.420364 87.494457 
L 226.884156 105.581511 
L 227.347948 118.230661 
L 227.81174 105.769758 
L 228.275532 196.810599 
L 228.739325 175.428109 
L 229.203117 166.426782 
L 229.666909 107.457449 
L 230.130701 126.320343 
L 230.594494 209.665337 
L 231.058286 107.187592 
L 231.522078 289.588903 
L 231.98587 107.367612 
L 232.449662 107.367612 
L 232.913455 65.125078 
L 233.377247 112.914348 
L 233.841039 208.259133 
L 234.304831 185.169174 
L 234.768623 191.389121 
L 235.232416 107.176816 
L 235.696208 118.786349 
L 236.16 103.396333 
L 236.623792 186.349195 
L 237.087584 96.833532 
L 237.551377 108.285195 
L 238.015169 109.211234 
L 238.478961 176.542341 
L 238.942753 173.769317 
L 239.406545 105.359691 
L 239.870338 203.758434 
L 240.33413 194.862482 
L 240.797922 103.913135 
L 241.261714 97.279638 
L 241.725506 107.367612 
L 242.189299 106.556227 
L 242.653091 108.285195 
L 243.116883 96.526919 
L 243.580675 108.233149 
L 244.044468 108.285195 
L 244.50826 98.404519 
L 244.972052 107.367612 
L 245.435844 138.805133 
L 245.899636 103.644368 
L 246.363429 108.234627 
L 246.827221 107.367612 
L 247.291013 108.285195 
L 247.754805 184.106879 
L 248.218597 99.177625 
L 248.68239 102.100958 
L 249.146182 100.240127 
L 249.609974 96.8998 
L 250.073766 108.8561 
L 250.537558 101.866319 
L 251.001351 178.840892 
L 251.465143 103.022518 
L 251.928935 89.191658 
L 252.392727 108.285195 
L 252.856519 108.730483 
L 253.320312 106.089769 
L 253.784104 104.577639 
L 254.247896 107.367612 
L 254.711688 107.367612 
L 255.175481 108.643469 
L 255.639273 104.373542 
L 256.103065 124.006216 
L 256.566857 109.552224 
L 257.030649 107.367612 
L 257.494442 180.256239 
L 257.958234 108.285195 
L 258.422026 185.15792 
L 258.885818 92.741537 
L 259.34961 107.367612 
L 260.277195 107.367612 
L 260.740987 180.543585 
L 261.204779 107.367612 
L 261.668571 120.637962 
L 262.132364 107.367612 
L 262.596156 107.787109 
L 263.059948 58.100949 
L 263.52374 109.708518 
L 263.987532 126.419345 
L 264.451325 107.367612 
L 264.915117 107.367612 
L 265.378909 98.712466 
L 265.842701 108.285195 
L 266.306494 104.003244 
L 266.770286 108.285195 
L 267.234078 107.367612 
L 267.69787 107.367612 
L 268.161662 53.568 
L 268.625455 107.367612 
L 269.089247 107.676395 
L 269.553039 109.316052 
L 270.016831 107.367612 
L 270.480623 111.142603 
L 270.944416 97.976708 
L 271.408208 107.367612 
L 271.872 107.367612 
L 272.335792 97.82547 
L 272.799584 98.203478 
L 273.263377 107.367612 
L 273.727169 125.201471 
L 274.190961 109.219843 
L 274.654753 184.255593 
L 275.118545 108.285195 
L 275.582338 113.40006 
L 276.04613 65.027228 
L 276.509922 185.10287 
L 276.973714 79.915997 
L 277.901299 129.512731 
L 278.365091 107.367612 
L 278.828883 106.426266 
L 279.292675 167.647035 
L 279.756468 108.37519 
L 280.22026 185.10287 
L 280.684052 105.659491 
L 281.147844 119.544888 
L 281.611636 108.511555 
L 282.075429 108.749741 
L 282.539221 108.37519 
L 283.003013 107.367612 
L 283.466805 108.336543 
L 283.930597 107.316296 
L 284.39439 107.367612 
L 284.858182 106.023512 
L 285.785766 117.225516 
L 286.249558 62.636606 
L 286.713351 108.285195 
L 287.177143 102.780991 
L 287.640935 107.367612 
L 288.104727 107.367612 
L 288.568519 106.418082 
L 289.032312 107.753288 
L 289.496104 107.367612 
L 289.959896 108.285195 
L 290.423688 96.586027 
L 290.887481 107.367612 
L 291.351273 107.367612 
L 291.815065 111.142603 
L 292.278857 110.172116 
L 293.206442 103.913135 
L 294.134026 103.913135 
L 294.597818 180.256239 
L 295.06161 108.37519 
L 295.525403 180.543585 
L 295.989195 115.878764 
L 296.452987 187.871633 
L 296.916779 108.109489 
L 297.380571 107.676395 
L 297.844364 56.910451 
L 298.308156 60.829112 
L 298.771948 107.367612 
L 299.23574 103.022518 
L 299.699532 109.309985 
L 300.163325 109.219843 
L 301.090909 103.022518 
L 301.554701 107.367612 
L 302.018494 177.673136 
L 302.482286 107.367612 
L 302.946078 112.131922 
L 303.40987 94.652559 
L 303.873662 108.730483 
L 304.337455 107.367612 
L 304.801247 161.250977 
L 305.265039 128.100427 
L 305.728831 120.691117 
L 306.192623 109.165074 
L 306.656416 107.367612 
L 307.584 107.350223 
L 308.047792 108.285195 
L 308.511584 107.367612 
L 308.975377 117.213027 
L 309.439169 107.367612 
L 309.902961 107.367612 
L 310.366753 93.670204 
L 310.830545 124.006216 
L 311.294338 183.106676 
L 311.75813 107.367612 
L 312.221922 180.543585 
L 312.685714 180.256239 
L 313.149506 108.285195 
L 313.613299 105.359691 
L 314.077091 126.419345 
L 314.540883 107.367612 
L 315.004675 107.367612 
L 315.468468 184.91628 
L 315.93226 107.062745 
L 316.396052 103.913135 
L 316.859844 107.367612 
L 317.323636 95.484055 
L 317.787429 166.568934 
L 318.251221 184.91628 
L 318.715013 184.91628 
L 319.178805 107.367612 
L 319.642597 108.285195 
L 320.10639 124.006216 
L 320.570182 180.543585 
L 321.033974 107.367612 
L 321.497766 90.100099 
L 321.961558 107.367612 
L 322.425351 171.973694 
L 322.889143 107.367612 
L 323.352935 106.418082 
L 323.816727 97.654927 
L 324.280519 107.367612 
L 324.744312 107.457449 
L 325.208104 108.285195 
L 325.671896 182.704417 
L 326.135688 102.465537 
L 326.599481 108.285195 
L 327.063273 108.104799 
L 327.527065 109.918241 
L 327.990857 104.578054 
L 328.454649 184.91628 
L 328.918442 182.704417 
L 329.382234 65.911011 
L 329.846026 109.219843 
L 330.309818 98.489986 
L 330.77361 109.165074 
L 331.237403 109.316052 
L 331.701195 107.367612 
L 332.164987 104.269695 
L 332.628779 174.79459 
L 333.092571 109.219843 
L 333.556364 60.089287 
L 334.020156 108.285195 
L 334.483948 104.717482 
L 334.94774 119.879036 
L 335.411532 107.367612 
L 335.875325 107.367612 
L 336.339117 110.172116 
L 336.802909 107.367612 
L 337.266701 107.367612 
L 337.730494 122.545835 
L 338.194286 107.367612 
L 339.12187 107.367612 
L 339.585662 108.285195 
L 340.049455 107.367612 
L 340.513247 108.511555 
L 340.977039 97.773601 
L 341.440831 125.201471 
L 341.904623 108.285195 
L 342.368416 107.367612 
L 342.832208 107.367612 
L 343.296 105.746966 
L 343.759792 126.419345 
L 344.223584 107.367612 
L 344.687377 108.285195 
L 345.151169 184.91628 
L 345.614961 107.367612 
L 346.078753 165.924694 
L 346.542545 111.790326 
L 347.006338 108.285195 
L 347.47013 103.913135 
L 347.933922 189.625535 
L 348.397714 106.426266 
L 349.325299 108.285195 
L 349.789091 114.782695 
L 350.252883 107.367612 
L 350.716675 106.426266 
L 351.180468 107.062745 
L 351.64426 103.937635 
L 352.108052 107.367612 
L 352.108052 107.367612 
" clip-path="url(#p141ed925b6)" style="fill: none; stroke: #e377c2; stroke-width: 1.5; stroke-linecap: square"/>
   </g>
   <g id="line2d_22">
    <path d="M 73.832727 101.702519 
L 74.296519 98.606797 
L 74.760312 81.566549 
L 75.224104 104.949489 
L 75.687896 106.581787 
L 76.151688 79.278432 
L 76.615481 105.362243 
L 77.079273 93.263129 
L 77.543065 101.814982 
L 78.006857 90.701708 
L 78.470649 94.110438 
L 78.934442 86.830892 
L 79.398234 90.102376 
L 79.862026 92.383684 
L 80.325818 101.597315 
L 80.78961 93.098143 
L 81.253403 102.613736 
L 81.717195 295.488 
L 82.180987 92.526596 
L 82.644779 93.737288 
L 83.108571 92.953907 
L 83.572364 92.395377 
L 84.036156 92.993014 
L 84.499948 94.39876 
L 84.96374 101.989786 
L 85.427532 82.205734 
L 85.891325 93.231244 
L 86.355117 101.505647 
L 86.818909 93.525985 
L 87.282701 93.616359 
L 87.746494 94.645612 
L 88.210286 93.398429 
L 88.674078 94.124019 
L 89.13787 93.953077 
L 89.601662 103.151091 
L 90.065455 93.826792 
L 90.529247 93.178737 
L 90.993039 94.37506 
L 91.456831 94.771747 
L 91.920623 132.816399 
L 92.384416 95.571759 
L 92.848208 93.9336 
L 93.775792 94.169365 
L 94.703377 94.126609 
L 95.167169 95.466555 
L 95.630961 94.918054 
L 96.094753 94.885571 
L 96.558545 95.494886 
L 97.022338 94.133894 
L 97.48613 94.156823 
L 97.949922 96.374954 
L 98.413714 96.131471 
L 98.877506 95.425821 
L 99.341299 85.046806 
L 99.805091 95.986001 
L 100.268883 75.053268 
L 100.732675 97.01122 
L 101.196468 95.50462 
L 101.66026 98.201036 
L 102.124052 96.714142 
L 102.587844 96.461803 
L 103.051636 97.042754 
L 103.515429 96.474491 
L 103.979221 97.07538 
L 104.443013 102.399175 
L 104.906805 96.592165 
L 105.370597 101.256995 
L 105.83439 96.675967 
L 106.298182 95.466608 
L 106.761974 97.811936 
L 107.225766 99.3996 
L 107.689558 96.357378 
L 108.153351 96.759594 
L 108.617143 151.038526 
L 109.080935 104.636234 
L 109.544727 72.9609 
L 110.008519 75.422287 
L 110.472312 97.074155 
L 110.936104 96.282705 
L 111.399896 97.747306 
L 111.863688 98.751137 
L 112.327481 97.329099 
L 112.791273 98.59552 
L 113.255065 97.771091 
L 113.718857 185.832695 
L 114.182649 99.244898 
L 114.646442 98.6355 
L 115.110234 106.372542 
L 116.037818 86.683847 
L 116.50161 98.151796 
L 116.965403 97.817625 
L 117.429195 98.297899 
L 117.892987 77.229303 
L 118.356779 97.835137 
L 118.820571 100.200562 
L 119.284364 97.998838 
L 119.748156 96.998655 
L 120.211948 98.391731 
L 120.67574 97.15105 
L 121.139532 78.261271 
L 121.603325 97.595387 
L 122.067117 97.564417 
L 122.530909 98.235933 
L 122.994701 98.391731 
L 123.458494 97.835137 
L 123.922286 98.184174 
L 124.386078 98.094756 
L 124.84987 97.367704 
L 125.313662 97.156627 
L 125.777455 97.397428 
L 126.241247 96.711715 
L 126.705039 97.835137 
L 127.168831 97.500436 
L 127.632623 97.434871 
L 128.096416 97.747306 
L 128.560208 97.718584 
L 129.024 97.083188 
L 129.487792 96.93212 
L 129.951584 97.008318 
L 130.415377 97.367704 
L 130.879169 97.132361 
L 131.342961 97.434871 
L 131.806753 97.397428 
L 132.270545 96.776288 
L 133.19813 97.327899 
L 133.661922 97.914369 
L 134.125714 97.256637 
L 134.589506 96.834006 
L 135.517091 96.93212 
L 135.980883 97.256637 
L 136.444675 96.877104 
L 136.908468 80.585596 
L 137.37226 97.298928 
L 137.836052 96.854723 
L 138.763636 96.939917 
L 139.227429 80.949762 
L 139.691221 104.711989 
L 140.155013 97.29568 
L 140.618805 96.93212 
L 141.082597 97.222917 
L 141.54639 96.854723 
L 142.010182 80.767799 
L 142.473974 85.54158 
L 142.937766 96.840574 
L 143.401558 96.63542 
L 143.865351 97.035055 
L 144.329143 96.461193 
L 144.792935 99.022905 
L 145.256727 95.762568 
L 145.720519 106.466554 
L 146.184312 98.952352 
L 146.648104 96.776288 
L 147.111896 96.854723 
L 147.575688 97.244413 
L 148.039481 103.017656 
L 148.503273 96.461193 
L 148.967065 103.017656 
L 149.430857 97.806096 
L 149.894649 96.854723 
L 150.358442 94.544104 
L 150.822234 96.854723 
L 151.286026 102.191963 
L 151.749818 96.776288 
L 152.21361 96.908834 
L 152.677403 96.385902 
L 153.141195 163.911786 
L 153.604987 80.766558 
L 154.068779 105.581511 
L 154.532571 96.854723 
L 154.996364 103.857521 
L 155.460156 97.90036 
L 155.923948 156.380487 
L 156.38774 100.645594 
L 156.851532 97.734435 
L 157.315325 96.595392 
L 157.779117 96.518379 
L 158.706701 103.857521 
L 159.170494 63.218515 
L 159.634286 89.396151 
L 160.098078 103.37177 
L 160.56187 103.017656 
L 161.025662 106.466554 
L 161.489455 67.666578 
L 161.953247 105.581511 
L 162.417039 97.410178 
L 162.880831 195.838795 
L 163.344623 101.380029 
L 163.808416 100.32059 
L 164.272208 97.035055 
L 164.736 104.685293 
L 165.199792 102.191963 
L 165.663584 103.105766 
L 166.127377 90.858064 
L 166.591169 84.195877 
L 167.054961 105.581511 
L 167.518753 106.466554 
L 167.982545 94.754925 
L 168.446338 104.711989 
L 168.91013 103.985337 
L 169.373922 106.466554 
L 169.837714 95.849007 
L 170.301506 107.367612 
L 170.765299 97.653237 
L 171.229091 107.367612 
L 171.692883 106.961975 
L 172.156675 105.645105 
L 172.620468 100.449466 
L 173.08426 107.367612 
L 173.548052 101.291188 
L 174.011844 105.581511 
L 174.475636 107.367612 
L 174.939429 104.711989 
L 175.403221 96.573465 
L 175.867013 99.235311 
L 176.330805 107.367612 
L 176.794597 106.82825 
L 177.25839 107.187592 
L 177.722182 105.581511 
L 178.185974 86.475288 
L 178.649766 174.444019 
L 179.113558 104.763401 
L 179.577351 105.645105 
L 180.041143 107.506567 
L 180.504935 102.713991 
L 180.968727 107.367612 
L 181.432519 106.530025 
L 181.896312 107.367612 
L 182.360104 105.72095 
L 182.823896 107.367612 
L 183.287688 101.706618 
L 183.751481 108.2053 
L 184.215273 104.188292 
L 184.679065 108.285195 
L 185.142857 133.612898 
L 185.606649 80.949762 
L 186.070442 103.535176 
L 186.534234 100.888579 
L 186.998026 103.857521 
L 187.461818 104.387544 
L 187.92561 107.367612 
L 188.389403 96.888801 
L 188.853195 103.857521 
L 189.316987 106.28693 
L 189.780779 95.897099 
L 190.244571 81.453319 
L 190.708364 106.466554 
L 191.172156 105.941349 
L 191.635948 104.132766 
L 192.09974 104.711989 
L 192.563532 103.081565 
L 193.027325 106.019591 
L 193.491117 103.022789 
L 193.954909 105.971529 
L 194.418701 105.125763 
L 194.882494 106.631849 
L 195.346286 106.019591 
L 195.810078 107.584571 
L 196.27387 108.285195 
L 196.737662 102.682543 
L 197.201455 98.658819 
L 197.665247 97.796814 
L 198.129039 103.921335 
L 198.592831 105.531072 
L 199.056623 104.222228 
L 199.520416 106.158407 
L 199.984208 102.505789 
L 200.448 105.581511 
L 200.911792 112.400624 
L 201.375584 106.28693 
L 201.839377 104.638423 
L 202.303169 94.031598 
L 202.766961 107.367612 
L 203.230753 93.264329 
L 203.694545 173.338365 
L 204.158338 106.930026 
L 205.085922 107.367612 
L 205.549714 105.632918 
L 206.013506 107.187592 
L 206.477299 110.418473 
L 207.404883 92.791311 
L 207.868675 89.374955 
L 208.332468 106.870002 
L 208.79626 105.581511 
L 209.260052 103.904395 
L 209.723844 106.019591 
L 210.187636 96.754021 
L 210.651429 93.987842 
L 211.115221 107.367612 
L 211.579013 92.015884 
L 212.042805 108.336543 
L 212.506597 109.271155 
L 212.97039 108.285195 
L 213.434182 106.019591 
L 213.897974 106.019591 
L 214.361766 100.482424 
L 214.825558 108.285195 
L 215.289351 105.573998 
L 215.753143 106.466554 
L 216.216935 106.466554 
L 217.144519 110.184876 
L 217.608312 98.672208 
L 218.072104 108.885136 
L 218.535896 115.694262 
L 218.999688 68.289303 
L 219.463481 107.952509 
L 219.927273 111.144641 
L 220.391065 107.367612 
L 220.854857 107.367612 
L 221.318649 105.467002 
L 221.782442 120.770098 
L 222.246234 184.819396 
L 223.173818 103.103962 
L 223.63761 115.556483 
L 224.101403 93.252412 
L 224.565195 107.187592 
L 225.028987 97.620093 
L 225.492779 107.367612 
L 225.956571 74.050366 
L 226.420364 87.494457 
L 226.884156 105.581511 
L 227.347948 118.230661 
L 227.81174 105.769758 
L 228.275532 196.810599 
L 228.739325 175.428109 
L 229.203117 166.426782 
L 229.666909 107.457449 
L 230.130701 126.320343 
L 230.594494 209.665337 
L 231.058286 107.187592 
L 231.522078 289.588903 
L 231.98587 107.367612 
L 232.449662 107.367612 
L 232.913455 65.125078 
L 233.377247 112.914348 
L 233.841039 208.259133 
L 234.304831 185.169174 
L 234.768623 191.389121 
L 235.232416 107.176816 
L 235.696208 118.786349 
L 236.16 103.396333 
L 236.623792 186.349195 
L 237.087584 96.833532 
L 237.551377 108.285195 
L 238.015169 109.211234 
L 238.478961 176.542341 
L 238.942753 173.769317 
L 239.406545 105.359691 
L 239.870338 203.758434 
L 240.33413 194.862482 
L 240.797922 103.913135 
L 241.261714 97.279638 
L 241.725506 107.367612 
L 242.189299 106.556227 
L 242.653091 108.285195 
L 243.116883 96.526919 
L 243.580675 108.233149 
L 244.044468 108.285195 
L 244.50826 98.404519 
L 244.972052 107.367612 
L 245.435844 138.805133 
L 245.899636 103.644368 
L 246.363429 108.234627 
L 246.827221 107.367612 
L 247.291013 108.285195 
L 247.754805 184.106879 
L 248.218597 99.177625 
L 248.68239 102.100958 
L 249.146182 100.240127 
L 249.609974 96.8998 
L 250.073766 108.8561 
L 250.537558 101.866319 
L 251.001351 178.840892 
L 251.465143 103.022518 
L 251.928935 89.191658 
L 252.392727 108.285195 
L 252.856519 108.730483 
L 253.320312 106.089769 
L 253.784104 104.577639 
L 254.247896 107.367612 
L 254.711688 107.367612 
L 255.175481 108.643469 
L 255.639273 104.373542 
L 256.103065 124.006216 
L 256.566857 109.552224 
L 257.030649 107.367612 
L 257.494442 180.256239 
L 257.958234 108.285195 
L 258.422026 185.15792 
L 258.885818 92.741537 
L 259.34961 107.367612 
L 260.277195 107.367612 
L 260.740987 180.543585 
L 261.204779 107.367612 
L 261.668571 120.637962 
L 262.132364 107.367612 
L 262.596156 107.787109 
L 263.059948 58.100949 
L 263.52374 109.708518 
L 263.987532 126.419345 
L 264.451325 107.367612 
L 264.915117 107.367612 
L 265.378909 98.712466 
L 265.842701 108.285195 
L 266.306494 104.003244 
L 266.770286 108.285195 
L 267.234078 107.367612 
L 267.69787 107.367612 
L 268.161662 53.568 
L 268.625455 107.367612 
L 269.089247 107.676395 
L 269.553039 109.316052 
L 270.016831 107.367612 
L 270.480623 111.142603 
L 270.944416 97.976708 
L 271.408208 107.367612 
L 271.872 107.367612 
L 272.335792 97.82547 
L 272.799584 98.203478 
L 273.263377 107.367612 
L 273.727169 125.201471 
L 274.190961 109.219843 
L 274.654753 184.255593 
L 275.118545 108.285195 
L 275.582338 113.40006 
L 276.04613 65.027228 
L 276.509922 185.10287 
L 276.973714 79.915997 
L 277.901299 129.512731 
L 278.365091 107.367612 
L 278.828883 106.426266 
L 279.292675 167.647035 
L 279.756468 108.37519 
L 280.22026 185.10287 
L 280.684052 105.659491 
L 281.147844 119.544888 
L 281.611636 108.511555 
L 282.075429 108.749741 
L 282.539221 108.37519 
L 283.003013 107.367612 
L 283.466805 108.336543 
L 283.930597 107.316296 
L 284.39439 107.367612 
L 284.858182 106.023512 
L 285.785766 117.225516 
L 286.249558 62.636606 
L 286.713351 108.285195 
L 287.177143 102.780991 
L 287.640935 107.367612 
L 288.104727 107.367612 
L 288.568519 106.418082 
L 289.032312 107.753288 
L 289.496104 107.367612 
L 289.959896 108.285195 
L 290.423688 96.586027 
L 290.887481 107.367612 
L 291.351273 107.367612 
L 291.815065 111.142603 
L 292.278857 110.172116 
L 293.206442 103.913135 
L 294.134026 103.913135 
L 294.597818 180.256239 
L 295.06161 108.37519 
L 295.525403 180.543585 
L 295.989195 115.878764 
L 296.452987 187.871633 
L 296.916779 108.109489 
L 297.380571 107.676395 
L 297.844364 56.910451 
L 298.308156 60.829112 
L 298.771948 107.367612 
L 299.23574 103.022518 
L 299.699532 109.309985 
L 300.163325 109.219843 
L 301.090909 103.022518 
L 301.554701 107.367612 
L 302.018494 177.673136 
L 302.482286 107.367612 
L 302.946078 112.131922 
L 303.40987 94.652559 
L 303.873662 108.730483 
L 304.337455 107.367612 
L 304.801247 161.250977 
L 305.265039 128.100427 
L 305.728831 120.691117 
L 306.192623 109.165074 
L 306.656416 107.367612 
L 307.584 107.350223 
L 308.047792 108.285195 
L 308.511584 107.367612 
L 308.975377 117.213027 
L 309.439169 107.367612 
L 309.902961 107.367612 
L 310.366753 93.670204 
L 310.830545 124.006216 
L 311.294338 183.106676 
L 311.75813 107.367612 
L 312.221922 180.543585 
L 312.685714 180.256239 
L 313.149506 108.285195 
L 313.613299 105.359691 
L 314.077091 126.419345 
L 314.540883 107.367612 
L 315.004675 107.367612 
L 315.468468 184.91628 
L 315.93226 107.062745 
L 316.396052 103.913135 
L 316.859844 107.367612 
L 317.323636 95.484055 
L 317.787429 166.568934 
L 318.251221 184.91628 
L 318.715013 184.91628 
L 319.178805 107.367612 
L 319.642597 108.285195 
L 320.10639 124.006216 
L 320.570182 180.543585 
L 321.033974 107.367612 
L 321.497766 90.100099 
L 321.961558 107.367612 
L 322.425351 171.973694 
L 322.889143 107.367612 
L 323.352935 106.418082 
L 323.816727 97.654927 
L 324.280519 107.367612 
L 324.744312 107.457449 
L 325.208104 108.285195 
L 325.671896 182.704417 
L 326.135688 102.465537 
L 326.599481 108.285195 
L 327.063273 108.104799 
L 327.527065 109.918241 
L 327.990857 104.578054 
L 328.454649 184.91628 
L 328.918442 182.704417 
L 329.382234 65.911011 
L 329.846026 109.219843 
L 330.309818 98.489986 
L 330.77361 109.165074 
L 331.237403 109.316052 
L 331.701195 107.367612 
L 332.164987 104.269695 
L 332.628779 174.79459 
L 333.092571 109.219843 
L 333.556364 60.089287 
L 334.020156 108.285195 
L 334.483948 104.717482 
L 334.94774 119.879036 
L 335.411532 107.367612 
L 335.875325 107.367612 
L 336.339117 110.172116 
L 336.802909 107.367612 
L 337.266701 107.367612 
L 337.730494 122.545835 
L 338.194286 107.367612 
L 339.12187 107.367612 
L 339.585662 108.285195 
L 340.049455 107.367612 
L 340.513247 108.511555 
L 340.977039 97.773601 
L 341.440831 125.201471 
L 341.904623 108.285195 
L 342.368416 107.367612 
L 342.832208 107.367612 
L 343.296 105.746966 
L 343.759792 126.419345 
L 344.223584 107.367612 
L 344.687377 108.285195 
L 345.151169 184.91628 
L 345.614961 107.367612 
L 346.078753 165.924694 
L 346.542545 111.790326 
L 347.006338 108.285195 
L 347.47013 103.913135 
L 347.933922 189.625535 
L 348.397714 106.426266 
L 349.325299 108.285195 
L 349.789091 114.782695 
L 350.252883 107.367612 
L 350.716675 106.426266 
L 351.180468 107.062745 
L 351.64426 103.937635 
L 352.108052 107.367612 
L 352.571844 107.367612 
L 353.035636 180.543585 
L 353.499429 107.367612 
L 353.963221 95.926657 
L 354.427013 103.022518 
L 354.890805 64.591111 
L 355.354597 108.285195 
L 355.81839 107.367612 
L 356.745974 107.367612 
L 357.209766 126.137498 
L 357.673558 162.651088 
L 358.137351 91.996764 
L 358.601143 107.367612 
L 359.064935 107.367612 
L 359.528727 172.621432 
L 359.992519 163.428062 
L 360.456312 184.91628 
L 360.920104 107.367612 
L 361.383896 108.285195 
L 361.847688 130.215897 
L 362.311481 140.732999 
L 362.775273 109.219843 
L 363.239065 124.006216 
L 363.702857 110.172116 
L 364.166649 124.006216 
L 364.630442 126.855567 
L 365.094234 125.201471 
L 365.558026 106.691339 
L 366.021818 167.691856 
L 366.48561 74.798543 
L 366.949403 170.213516 
L 367.413195 145.644276 
L 367.876987 103.913135 
L 368.340779 108.285195 
L 368.804571 107.459277 
L 369.268364 107.367612 
L 369.732156 108.285195 
L 370.195948 91.884732 
L 370.65974 103.022518 
L 371.123532 121.397521 
L 371.587325 124.928753 
L 372.051117 107.367612 
L 372.514909 107.367612 
L 372.978701 166.635743 
L 373.442494 180.543585 
L 373.906286 108.285195 
L 374.370078 111.142603 
L 374.83387 109.219843 
L 375.297662 112.928075 
L 375.761455 107.367612 
L 376.225247 124.006216 
L 376.689039 89.479035 
L 377.152831 111.539283 
L 377.616623 108.109489 
L 378.080416 107.367612 
L 378.544208 126.137498 
L 379.008 110.676418 
L 379.471792 107.459277 
L 380.399377 107.367612 
L 380.863169 184.91628 
L 381.326961 107.367612 
L 381.790753 125.201471 
L 382.254545 107.367612 
L 382.718338 106.426266 
L 383.18213 180.543585 
L 383.645922 108.285195 
L 384.109714 107.367612 
L 385.037299 107.367612 
L 385.501091 128.624836 
L 385.964883 175.391267 
L 386.428675 113.347696 
L 386.892468 91.707419 
L 387.35626 109.219843 
L 387.820052 109.219843 
L 388.283844 128.925803 
L 388.747636 107.367612 
L 389.211429 110.172116 
L 389.675221 107.367612 
L 390.139013 108.109489 
L 390.602805 110.945474 
L 391.066597 187.181061 
L 391.53039 107.367612 
L 391.994182 103.82257 
L 392.457974 113.815596 
L 392.921766 107.367612 
L 393.385558 124.006216 
L 393.849351 108.285195 
L 394.313143 124.006216 
L 394.776935 111.142603 
L 395.240727 107.367612 
L 395.704519 65.027228 
L 396.168312 106.426266 
L 396.632104 107.459277 
L 397.095896 107.367612 
L 397.559688 187.337509 
L 398.023481 107.367612 
L 398.487273 127.660543 
L 398.487273 127.660543 
" clip-path="url(#p141ed925b6)" style="fill: none; stroke: #7f7f7f; stroke-width: 1.5; stroke-linecap: square"/>
   </g>
   <g id="patch_3">
    <path d="M 57.6 307.584 
L 57.6 41.472 
" style="fill: none; stroke: #000000; stroke-width: 0.8; stroke-linejoin: miter; stroke-linecap: square"/>
   </g>
   <g id="patch_4">
    <path d="M 414.72 307.584 
L 414.72 41.472 
" style="fill: none; stroke: #000000; stroke-width: 0.8; stroke-linejoin: miter; stroke-linecap: square"/>
   </g>
   <g id="patch_5">
    <path d="M 57.6 307.584 
L 414.72 307.584 
" style="fill: none; stroke: #000000; stroke-width: 0.8; stroke-linejoin: miter; stroke-linecap: square"/>
   </g>
   <g id="patch_6">
    <path d="M 57.6 41.472 
L 414.72 41.472 
" style="fill: none; stroke: #000000; stroke-width: 0.8; stroke-linejoin: miter; stroke-linecap: square"/>
   </g>
  </g>
 </g>
 <defs>
  <clipPath id="p141ed925b6">
   <rect x="57.6" y="41.472" width="357.12" height="266.112"/>
  </clipPath>
 </defs>
</svg>
