<?xml version="1.0" encoding="utf-8" standalone="no"?>
<!DOCTYPE svg PUBLIC "-//W3C//DTD SVG 1.1//EN"
  "http://www.w3.org/Graphics/SVG/1.1/DTD/svg11.dtd">
<svg xmlns:xlink="http://www.w3.org/1999/xlink" width="460.8pt" height="345.6pt" viewBox="0 0 460.8 345.6" xmlns="http://www.w3.org/2000/svg" version="1.1">
 <metadata>
  <rdf:RDF xmlns:dc="http://purl.org/dc/elements/1.1/" xmlns:cc="http://creativecommons.org/ns#" xmlns:rdf="http://www.w3.org/1999/02/22-rdf-syntax-ns#">
   <cc:Work>
    <dc:type rdf:resource="http://purl.org/dc/dcmitype/StillImage"/>
    <dc:date>2024-04-28T13:47:04.988500</dc:date>
    <dc:format>image/svg+xml</dc:format>
    <dc:creator>
     <cc:Agent>
      <dc:title>Matplotlib v3.8.2, https://matplotlib.org/</dc:title>
     </cc:Agent>
    </dc:creator>
   </cc:Work>
  </rdf:RDF>
 </metadata>
 <defs>
  <style type="text/css">*{stroke-linejoin: round; stroke-linecap: butt}</style>
 </defs>
 <g id="figure_1">
  <g id="patch_1">
   <path d="M 0 345.6 
L 460.8 345.6 
L 460.8 0 
L 0 0 
z
" style="fill: #ffffff"/>
  </g>
  <g id="axes_1">
   <g id="patch_2">
    <path d="M 57.6 307.584 
L 414.72 307.584 
L 414.72 41.472 
L 57.6 41.472 
z
" style="fill: #ffffff"/>
   </g>
   <g id="matplotlib.axis_1">
    <g id="xtick_1">
     <g id="line2d_1">
      <defs>
       <path id="mf83969e2ee" d="M 0 0 
L 0 3.5 
" style="stroke: #000000; stroke-width: 0.8"/>
      </defs>
      <g>
       <use xlink:href="#mf83969e2ee" x="73.832727" y="307.584" style="stroke: #000000; stroke-width: 0.8"/>
      </g>
     </g>
     <g id="text_1">
      <!-- 0 -->
      <g transform="translate(70.651477 322.182437) scale(0.1 -0.1)">
       <defs>
        <path id="DejaVuSans-30" d="M 2034 4250 
Q 1547 4250 1301 3770 
Q 1056 3291 1056 2328 
Q 1056 1369 1301 889 
Q 1547 409 2034 409 
Q 2525 409 2770 889 
Q 3016 1369 3016 2328 
Q 3016 3291 2770 3770 
Q 2525 4250 2034 4250 
z
M 2034 4750 
Q 2819 4750 3233 4129 
Q 3647 3509 3647 2328 
Q 3647 1150 3233 529 
Q 2819 -91 2034 -91 
Q 1250 -91 836 529 
Q 422 1150 422 2328 
Q 422 3509 836 4129 
Q 1250 4750 2034 4750 
z
" transform="scale(0.015625)"/>
       </defs>
       <use xlink:href="#DejaVuSans-30"/>
      </g>
     </g>
    </g>
    <g id="xtick_2">
     <g id="line2d_2">
      <g>
       <use xlink:href="#mf83969e2ee" x="114.414545" y="307.584" style="stroke: #000000; stroke-width: 0.8"/>
      </g>
     </g>
     <g id="text_2">
      <!-- 25 -->
      <g transform="translate(108.052045 322.182437) scale(0.1 -0.1)">
       <defs>
        <path id="DejaVuSans-32" d="M 1228 531 
L 3431 531 
L 3431 0 
L 469 0 
L 469 531 
Q 828 903 1448 1529 
Q 2069 2156 2228 2338 
Q 2531 2678 2651 2914 
Q 2772 3150 2772 3378 
Q 2772 3750 2511 3984 
Q 2250 4219 1831 4219 
Q 1534 4219 1204 4116 
Q 875 4013 500 3803 
L 500 4441 
Q 881 4594 1212 4672 
Q 1544 4750 1819 4750 
Q 2544 4750 2975 4387 
Q 3406 4025 3406 3419 
Q 3406 3131 3298 2873 
Q 3191 2616 2906 2266 
Q 2828 2175 2409 1742 
Q 1991 1309 1228 531 
z
" transform="scale(0.015625)"/>
        <path id="DejaVuSans-35" d="M 691 4666 
L 3169 4666 
L 3169 4134 
L 1269 4134 
L 1269 2991 
Q 1406 3038 1543 3061 
Q 1681 3084 1819 3084 
Q 2600 3084 3056 2656 
Q 3513 2228 3513 1497 
Q 3513 744 3044 326 
Q 2575 -91 1722 -91 
Q 1428 -91 1123 -41 
Q 819 9 494 109 
L 494 744 
Q 775 591 1075 516 
Q 1375 441 1709 441 
Q 2250 441 2565 725 
Q 2881 1009 2881 1497 
Q 2881 1984 2565 2268 
Q 2250 2553 1709 2553 
Q 1456 2553 1204 2497 
Q 953 2441 691 2322 
L 691 4666 
z
" transform="scale(0.015625)"/>
       </defs>
       <use xlink:href="#DejaVuSans-32"/>
       <use xlink:href="#DejaVuSans-35" x="63.623047"/>
      </g>
     </g>
    </g>
    <g id="xtick_3">
     <g id="line2d_3">
      <g>
       <use xlink:href="#mf83969e2ee" x="154.996364" y="307.584" style="stroke: #000000; stroke-width: 0.8"/>
      </g>
     </g>
     <g id="text_3">
      <!-- 50 -->
      <g transform="translate(148.633864 322.182437) scale(0.1 -0.1)">
       <use xlink:href="#DejaVuSans-35"/>
       <use xlink:href="#DejaVuSans-30" x="63.623047"/>
      </g>
     </g>
    </g>
    <g id="xtick_4">
     <g id="line2d_4">
      <g>
       <use xlink:href="#mf83969e2ee" x="195.578182" y="307.584" style="stroke: #000000; stroke-width: 0.8"/>
      </g>
     </g>
     <g id="text_4">
      <!-- 75 -->
      <g transform="translate(189.215682 322.182437) scale(0.1 -0.1)">
       <defs>
        <path id="DejaVuSans-37" d="M 525 4666 
L 3525 4666 
L 3525 4397 
L 1831 0 
L 1172 0 
L 2766 4134 
L 525 4134 
L 525 4666 
z
" transform="scale(0.015625)"/>
       </defs>
       <use xlink:href="#DejaVuSans-37"/>
       <use xlink:href="#DejaVuSans-35" x="63.623047"/>
      </g>
     </g>
    </g>
    <g id="xtick_5">
     <g id="line2d_5">
      <g>
       <use xlink:href="#mf83969e2ee" x="236.16" y="307.584" style="stroke: #000000; stroke-width: 0.8"/>
      </g>
     </g>
     <g id="text_5">
      <!-- 100 -->
      <g transform="translate(226.61625 322.182437) scale(0.1 -0.1)">
       <defs>
        <path id="DejaVuSans-31" d="M 794 531 
L 1825 531 
L 1825 4091 
L 703 3866 
L 703 4441 
L 1819 4666 
L 2450 4666 
L 2450 531 
L 3481 531 
L 3481 0 
L 794 0 
L 794 531 
z
" transform="scale(0.015625)"/>
       </defs>
       <use xlink:href="#DejaVuSans-31"/>
       <use xlink:href="#DejaVuSans-30" x="63.623047"/>
       <use xlink:href="#DejaVuSans-30" x="127.246094"/>
      </g>
     </g>
    </g>
    <g id="xtick_6">
     <g id="line2d_6">
      <g>
       <use xlink:href="#mf83969e2ee" x="276.741818" y="307.584" style="stroke: #000000; stroke-width: 0.8"/>
      </g>
     </g>
     <g id="text_6">
      <!-- 125 -->
      <g transform="translate(267.198068 322.182437) scale(0.1 -0.1)">
       <use xlink:href="#DejaVuSans-31"/>
       <use xlink:href="#DejaVuSans-32" x="63.623047"/>
       <use xlink:href="#DejaVuSans-35" x="127.246094"/>
      </g>
     </g>
    </g>
    <g id="xtick_7">
     <g id="line2d_7">
      <g>
       <use xlink:href="#mf83969e2ee" x="317.323636" y="307.584" style="stroke: #000000; stroke-width: 0.8"/>
      </g>
     </g>
     <g id="text_7">
      <!-- 150 -->
      <g transform="translate(307.779886 322.182437) scale(0.1 -0.1)">
       <use xlink:href="#DejaVuSans-31"/>
       <use xlink:href="#DejaVuSans-35" x="63.623047"/>
       <use xlink:href="#DejaVuSans-30" x="127.246094"/>
      </g>
     </g>
    </g>
    <g id="xtick_8">
     <g id="line2d_8">
      <g>
       <use xlink:href="#mf83969e2ee" x="357.905455" y="307.584" style="stroke: #000000; stroke-width: 0.8"/>
      </g>
     </g>
     <g id="text_8">
      <!-- 175 -->
      <g transform="translate(348.361705 322.182437) scale(0.1 -0.1)">
       <use xlink:href="#DejaVuSans-31"/>
       <use xlink:href="#DejaVuSans-37" x="63.623047"/>
       <use xlink:href="#DejaVuSans-35" x="127.246094"/>
      </g>
     </g>
    </g>
    <g id="xtick_9">
     <g id="line2d_9">
      <g>
       <use xlink:href="#mf83969e2ee" x="398.487273" y="307.584" style="stroke: #000000; stroke-width: 0.8"/>
      </g>
     </g>
     <g id="text_9">
      <!-- 200 -->
      <g transform="translate(388.943523 322.182437) scale(0.1 -0.1)">
       <use xlink:href="#DejaVuSans-32"/>
       <use xlink:href="#DejaVuSans-30" x="63.623047"/>
       <use xlink:href="#DejaVuSans-30" x="127.246094"/>
      </g>
     </g>
    </g>
   </g>
   <g id="matplotlib.axis_2">
    <g id="ytick_1">
     <g id="line2d_10">
      <defs>
       <path id="mcf62d42882" d="M 0 0 
L -3.5 0 
" style="stroke: #000000; stroke-width: 0.8"/>
      </defs>
      <g>
       <use xlink:href="#mcf62d42882" x="57.6" y="295.910671" style="stroke: #000000; stroke-width: 0.8"/>
      </g>
     </g>
     <g id="text_10">
      <!-- −80 -->
      <g transform="translate(29.495313 299.709889) scale(0.1 -0.1)">
       <defs>
        <path id="DejaVuSans-2212" d="M 678 2272 
L 4684 2272 
L 4684 1741 
L 678 1741 
L 678 2272 
z
" transform="scale(0.015625)"/>
        <path id="DejaVuSans-38" d="M 2034 2216 
Q 1584 2216 1326 1975 
Q 1069 1734 1069 1313 
Q 1069 891 1326 650 
Q 1584 409 2034 409 
Q 2484 409 2743 651 
Q 3003 894 3003 1313 
Q 3003 1734 2745 1975 
Q 2488 2216 2034 2216 
z
M 1403 2484 
Q 997 2584 770 2862 
Q 544 3141 544 3541 
Q 544 4100 942 4425 
Q 1341 4750 2034 4750 
Q 2731 4750 3128 4425 
Q 3525 4100 3525 3541 
Q 3525 3141 3298 2862 
Q 3072 2584 2669 2484 
Q 3125 2378 3379 2068 
Q 3634 1759 3634 1313 
Q 3634 634 3220 271 
Q 2806 -91 2034 -91 
Q 1263 -91 848 271 
Q 434 634 434 1313 
Q 434 1759 690 2068 
Q 947 2378 1403 2484 
z
M 1172 3481 
Q 1172 3119 1398 2916 
Q 1625 2713 2034 2713 
Q 2441 2713 2670 2916 
Q 2900 3119 2900 3481 
Q 2900 3844 2670 4047 
Q 2441 4250 2034 4250 
Q 1625 4250 1398 4047 
Q 1172 3844 1172 3481 
z
" transform="scale(0.015625)"/>
       </defs>
       <use xlink:href="#DejaVuSans-2212"/>
       <use xlink:href="#DejaVuSans-38" x="83.789062"/>
       <use xlink:href="#DejaVuSans-30" x="147.412109"/>
      </g>
     </g>
    </g>
    <g id="ytick_2">
     <g id="line2d_11">
      <g>
       <use xlink:href="#mcf62d42882" x="57.6" y="246.820863" style="stroke: #000000; stroke-width: 0.8"/>
      </g>
     </g>
     <g id="text_11">
      <!-- −60 -->
      <g transform="translate(29.495313 250.620081) scale(0.1 -0.1)">
       <defs>
        <path id="DejaVuSans-36" d="M 2113 2584 
Q 1688 2584 1439 2293 
Q 1191 2003 1191 1497 
Q 1191 994 1439 701 
Q 1688 409 2113 409 
Q 2538 409 2786 701 
Q 3034 994 3034 1497 
Q 3034 2003 2786 2293 
Q 2538 2584 2113 2584 
z
M 3366 4563 
L 3366 3988 
Q 3128 4100 2886 4159 
Q 2644 4219 2406 4219 
Q 1781 4219 1451 3797 
Q 1122 3375 1075 2522 
Q 1259 2794 1537 2939 
Q 1816 3084 2150 3084 
Q 2853 3084 3261 2657 
Q 3669 2231 3669 1497 
Q 3669 778 3244 343 
Q 2819 -91 2113 -91 
Q 1303 -91 875 529 
Q 447 1150 447 2328 
Q 447 3434 972 4092 
Q 1497 4750 2381 4750 
Q 2619 4750 2861 4703 
Q 3103 4656 3366 4563 
z
" transform="scale(0.015625)"/>
       </defs>
       <use xlink:href="#DejaVuSans-2212"/>
       <use xlink:href="#DejaVuSans-36" x="83.789062"/>
       <use xlink:href="#DejaVuSans-30" x="147.412109"/>
      </g>
     </g>
    </g>
    <g id="ytick_3">
     <g id="line2d_12">
      <g>
       <use xlink:href="#mcf62d42882" x="57.6" y="197.731054" style="stroke: #000000; stroke-width: 0.8"/>
      </g>
     </g>
     <g id="text_12">
      <!-- −40 -->
      <g transform="translate(29.495313 201.530273) scale(0.1 -0.1)">
       <defs>
        <path id="DejaVuSans-34" d="M 2419 4116 
L 825 1625 
L 2419 1625 
L 2419 4116 
z
M 2253 4666 
L 3047 4666 
L 3047 1625 
L 3713 1625 
L 3713 1100 
L 3047 1100 
L 3047 0 
L 2419 0 
L 2419 1100 
L 313 1100 
L 313 1709 
L 2253 4666 
z
" transform="scale(0.015625)"/>
       </defs>
       <use xlink:href="#DejaVuSans-2212"/>
       <use xlink:href="#DejaVuSans-34" x="83.789062"/>
       <use xlink:href="#DejaVuSans-30" x="147.412109"/>
      </g>
     </g>
    </g>
    <g id="ytick_4">
     <g id="line2d_13">
      <g>
       <use xlink:href="#mcf62d42882" x="57.6" y="148.641246" style="stroke: #000000; stroke-width: 0.8"/>
      </g>
     </g>
     <g id="text_13">
      <!-- −20 -->
      <g transform="translate(29.495313 152.440465) scale(0.1 -0.1)">
       <use xlink:href="#DejaVuSans-2212"/>
       <use xlink:href="#DejaVuSans-32" x="83.789062"/>
       <use xlink:href="#DejaVuSans-30" x="147.412109"/>
      </g>
     </g>
    </g>
    <g id="ytick_5">
     <g id="line2d_14">
      <g>
       <use xlink:href="#mcf62d42882" x="57.6" y="99.551438" style="stroke: #000000; stroke-width: 0.8"/>
      </g>
     </g>
     <g id="text_14">
      <!-- 0 -->
      <g transform="translate(44.2375 103.350657) scale(0.1 -0.1)">
       <use xlink:href="#DejaVuSans-30"/>
      </g>
     </g>
    </g>
    <g id="ytick_6">
     <g id="line2d_15">
      <g>
       <use xlink:href="#mcf62d42882" x="57.6" y="50.46163" style="stroke: #000000; stroke-width: 0.8"/>
      </g>
     </g>
     <g id="text_15">
      <!-- 20 -->
      <g transform="translate(37.875 54.260849) scale(0.1 -0.1)">
       <use xlink:href="#DejaVuSans-32"/>
       <use xlink:href="#DejaVuSans-30" x="63.623047"/>
      </g>
     </g>
    </g>
   </g>
   <g id="line2d_16">
    <path d="M 73.832727 93.650968 
" clip-path="url(#p80636a7376)" style="fill: none; stroke: #1f77b4; stroke-width: 1.5; stroke-linecap: square"/>
   </g>
   <g id="line2d_17">
    <path d="M 73.832727 93.650968 
L 75.456 90.426623 
L 77.079273 72.678373 
L 78.702545 97.032846 
L 80.325818 98.732964 
L 81.949091 70.295187 
L 83.572364 97.46275 
L 85.195636 84.860932 
L 86.818909 93.768103 
L 88.442182 82.193087 
L 90.065455 85.743446 
L 91.688727 78.161443 
L 93.312 81.568853 
L 94.935273 83.944947 
L 96.558545 93.541393 
L 98.181818 84.689091 
L 99.805091 94.600045 
L 101.428364 295.488 
L 103.051636 84.093796 
L 104.674909 85.354792 
L 106.298182 84.538862 
L 107.921455 83.957126 
L 109.544727 84.579594 
L 111.168 86.043747 
L 112.791273 93.950171 
L 114.414545 73.344115 
L 116.037818 84.827722 
L 117.661091 93.445917 
L 119.284364 85.134709 
L 120.907636 85.228838 
L 122.530909 86.300855 
L 124.154182 85.001853 
L 125.777455 85.75759 
L 127.400727 85.579546 
L 129.024 95.159727 
L 130.647273 85.448014 
L 132.270545 84.773033 
L 133.893818 86.019062 
L 135.517091 86.432231 
L 137.140364 126.057591 
L 138.763636 87.265483 
L 140.386909 85.559259 
L 142.010182 85.711179 
L 143.633455 85.80482 
L 145.256727 85.805585 
L 146.88 85.760288 
L 148.503273 87.155907 
L 150.126545 86.584616 
L 151.749818 86.550784 
L 153.373091 87.185416 
L 154.996364 85.767876 
L 156.619636 85.791757 
L 158.242909 88.102049 
L 159.866182 87.84845 
L 161.489455 87.11348 
L 163.112727 76.303231 
L 164.736 87.696935 
L 166.359273 65.894473 
L 167.982545 88.764751 
L 169.605818 87.195554 
L 171.229091 90.004003 
L 172.852364 88.45533 
L 174.475636 88.192507 
L 176.098909 88.797595 
L 177.722182 88.205722 
L 179.345455 88.831577 
L 180.968727 94.376569 
L 182.592 88.328285 
L 184.215273 93.186933 
L 185.838545 88.415569 
L 187.461818 87.155963 
L 189.085091 89.598736 
L 190.708364 91.252365 
L 192.331636 88.083743 
L 193.954909 88.50267 
L 195.578182 145.036826 
L 197.201455 96.706576 
L 198.824727 63.71517 
L 200.448 66.278825 
L 202.071273 88.830301 
L 203.694545 88.005967 
L 205.317818 89.531421 
L 206.941091 90.57696 
L 208.564364 89.095838 
L 210.187636 90.414877 
L 211.810909 89.556194 
L 213.434182 181.27665 
L 215.057455 91.091236 
L 216.680727 90.456518 
L 218.304 98.515024 
L 219.927273 88.695024 
L 221.550545 78.008289 
L 223.173818 89.952716 
L 224.797091 89.604661 
L 226.420364 90.104891 
L 228.043636 68.16092 
L 229.666909 89.622901 
L 231.290182 92.086606 
L 232.913455 89.793404 
L 234.536727 88.751664 
L 236.16 90.202621 
" clip-path="url(#p80636a7376)" style="fill: none; stroke: #ff7f0e; stroke-width: 1.5; stroke-linecap: square"/>
   </g>
   <g id="line2d_18">
    <path d="M 73.832727 93.650968 
L 75.456 90.426623 
L 77.079273 72.678373 
L 78.702545 97.032846 
L 80.325818 98.732964 
L 81.949091 70.295187 
L 83.572364 97.46275 
L 85.195636 84.860932 
L 86.818909 93.768103 
L 88.442182 82.193087 
L 90.065455 85.743446 
L 91.688727 78.161443 
L 93.312 81.568853 
L 94.935273 83.944947 
L 96.558545 93.541393 
L 98.181818 84.689091 
L 99.805091 94.600045 
L 101.428364 295.488 
L 103.051636 84.093796 
L 104.674909 85.354792 
L 106.298182 84.538862 
L 107.921455 83.957126 
L 109.544727 84.579594 
L 111.168 86.043747 
L 112.791273 93.950171 
L 114.414545 73.344115 
L 116.037818 84.827722 
L 117.661091 93.445917 
L 119.284364 85.134709 
L 120.907636 85.228838 
L 122.530909 86.300855 
L 124.154182 85.001853 
L 125.777455 85.75759 
L 127.400727 85.579546 
L 129.024 95.159727 
L 130.647273 85.448014 
L 132.270545 84.773033 
L 133.893818 86.019062 
L 135.517091 86.432231 
L 137.140364 126.057591 
L 138.763636 87.265483 
L 140.386909 85.559259 
L 143.633455 85.80482 
L 146.88 85.760288 
L 148.503273 87.155907 
L 150.126545 86.584616 
L 151.749818 86.550784 
L 153.373091 87.185416 
L 154.996364 85.767876 
L 156.619636 85.791757 
L 158.242909 88.102049 
L 159.866182 87.84845 
L 161.489455 87.11348 
L 163.112727 76.303231 
L 164.736 87.696935 
L 166.359273 65.894473 
L 167.982545 88.764751 
L 169.605818 87.195554 
L 171.229091 90.004003 
L 172.852364 88.45533 
L 174.475636 88.192507 
L 176.098909 88.797595 
L 177.722182 88.205722 
L 179.345455 88.831577 
L 180.968727 94.376569 
L 182.592 88.328285 
L 184.215273 93.186933 
L 185.838545 88.415569 
L 187.461818 87.155963 
L 189.085091 89.598736 
L 190.708364 91.252365 
L 192.331636 88.083743 
L 193.954909 88.50267 
L 195.578182 145.036826 
L 197.201455 96.706576 
L 198.824727 63.71517 
L 200.448 66.278825 
L 202.071273 88.830301 
L 203.694545 88.005967 
L 205.317818 89.531421 
L 206.941091 90.57696 
L 208.564364 89.095838 
L 210.187636 90.414877 
L 211.810909 89.556194 
L 213.434182 181.27665 
L 215.057455 91.091236 
L 216.680727 90.456518 
L 218.304 98.515024 
L 219.927273 88.695024 
L 221.550545 78.008289 
L 223.173818 89.952716 
L 224.797091 89.604661 
L 226.420364 90.104891 
L 228.043636 68.16092 
L 229.666909 89.622901 
L 231.290182 92.086606 
L 232.913455 89.793404 
L 234.536727 88.751664 
L 236.16 90.202621 
L 237.783273 88.910391 
L 239.406545 69.235765 
L 241.029818 89.37319 
L 242.653091 89.340933 
L 244.276364 90.040349 
L 245.899636 90.202621 
L 247.522909 89.622901 
L 249.146182 89.98644 
L 250.769455 89.893306 
L 252.392727 89.136047 
L 254.016 88.9162 
L 255.639273 89.167006 
L 257.262545 88.452802 
L 258.885818 89.622901 
L 260.509091 89.274293 
L 262.132364 89.206005 
L 263.755636 89.531421 
L 265.378909 89.501506 
L 267.002182 88.839709 
L 268.625455 88.682365 
L 270.248727 88.761729 
L 271.872 89.136047 
L 273.495273 88.890926 
L 275.118545 89.206005 
L 276.741818 89.167006 
L 278.365091 88.520058 
L 281.611636 89.094588 
L 283.234909 89.705425 
L 284.858182 89.020365 
L 286.481455 88.580174 
L 289.728 88.682365 
L 291.351273 89.020365 
L 292.974545 88.625063 
L 294.597818 71.656663 
L 296.221091 89.064413 
L 297.844364 88.601752 
L 301.090909 88.690486 
L 302.714182 72.035959 
L 304.337455 96.785478 
L 305.960727 89.06103 
L 307.584 88.682365 
L 309.207273 88.985244 
L 310.830545 88.601752 
L 312.453818 71.846436 
L 314.077091 76.818562 
L 315.700364 88.587015 
L 317.323636 88.373337 
L 318.946909 88.789576 
L 320.570182 88.191871 
L 322.193455 90.86002 
L 323.816727 87.464219 
L 325.44 98.612943 
L 327.063273 90.786535 
L 328.686545 88.520058 
L 330.309818 88.601752 
L 331.933091 89.007633 
L 333.556364 95.020747 
L 335.179636 88.191871 
L 336.802909 95.020747 
L 338.426182 89.592654 
L 340.049455 88.601752 
L 341.672727 86.19513 
L 343.296 88.601752 
L 344.919273 94.160748 
L 346.542545 88.520058 
L 348.165818 88.658112 
L 349.789091 88.113452 
L 351.412364 158.444955 
L 353.035636 71.845144 
L 354.658909 97.691127 
L 356.282182 88.601752 
L 357.905455 95.895508 
L 359.528727 89.690834 
L 361.152 150.600739 
L 362.775273 92.550129 
L 364.398545 89.518015 
L 366.021818 88.331646 
L 367.645091 88.251434 
L 369.268364 92.483329 
L 370.891636 95.895508 
L 372.514909 53.568 
L 374.138182 80.833286 
L 375.761455 95.389574 
L 377.384727 95.020747 
L 379.008 98.612943 
L 380.631273 58.200875 
L 382.254545 97.691127 
L 383.877818 89.180285 
L 385.501091 191.698492 
L 387.124364 93.315079 
L 388.747636 92.211621 
L 390.370909 88.789576 
L 391.994182 96.757673 
L 393.617455 94.160748 
L 395.240727 95.112518 
L 396.864 82.355939 
L 398.487273 75.416946 
L 398.487273 75.416946 
" clip-path="url(#p80636a7376)" style="fill: none; stroke: #2ca02c; stroke-width: 1.5; stroke-linecap: square"/>
   </g>
   <g id="patch_3">
    <path d="M 57.6 307.584 
L 57.6 41.472 
" style="fill: none; stroke: #000000; stroke-width: 0.8; stroke-linejoin: miter; stroke-linecap: square"/>
   </g>
   <g id="patch_4">
    <path d="M 414.72 307.584 
L 414.72 41.472 
" style="fill: none; stroke: #000000; stroke-width: 0.8; stroke-linejoin: miter; stroke-linecap: square"/>
   </g>
   <g id="patch_5">
    <path d="M 57.6 307.584 
L 414.72 307.584 
" style="fill: none; stroke: #000000; stroke-width: 0.8; stroke-linejoin: miter; stroke-linecap: square"/>
   </g>
   <g id="patch_6">
    <path d="M 57.6 41.472 
L 414.72 41.472 
" style="fill: none; stroke: #000000; stroke-width: 0.8; stroke-linejoin: miter; stroke-linecap: square"/>
   </g>
  </g>
 </g>
 <defs>
  <clipPath id="p80636a7376">
   <rect x="57.6" y="41.472" width="357.12" height="266.112"/>
  </clipPath>
 </defs>
</svg>
