<?xml version="1.0" encoding="utf-8" standalone="no"?>
<!DOCTYPE svg PUBLIC "-//W3C//DTD SVG 1.1//EN"
  "http://www.w3.org/Graphics/SVG/1.1/DTD/svg11.dtd">
<svg xmlns:xlink="http://www.w3.org/1999/xlink" width="460.8pt" height="345.6pt" viewBox="0 0 460.8 345.6" xmlns="http://www.w3.org/2000/svg" version="1.1">
 <metadata>
  <rdf:RDF xmlns:dc="http://purl.org/dc/elements/1.1/" xmlns:cc="http://creativecommons.org/ns#" xmlns:rdf="http://www.w3.org/1999/02/22-rdf-syntax-ns#">
   <cc:Work>
    <dc:type rdf:resource="http://purl.org/dc/dcmitype/StillImage"/>
    <dc:date>2024-04-18T13:22:51.169436</dc:date>
    <dc:format>image/svg+xml</dc:format>
    <dc:creator>
     <cc:Agent>
      <dc:title>Matplotlib v3.7.2, https://matplotlib.org/</dc:title>
     </cc:Agent>
    </dc:creator>
   </cc:Work>
  </rdf:RDF>
 </metadata>
 <defs>
  <style type="text/css">*{stroke-linejoin: round; stroke-linecap: butt}</style>
 </defs>
 <g id="figure_1">
  <g id="patch_1">
   <path d="M 0 345.6 
L 460.8 345.6 
L 460.8 0 
L 0 0 
z
" style="fill: #ffffff"/>
  </g>
  <g id="axes_1">
   <g id="patch_2">
    <path d="M 57.6 307.584 
L 414.72 307.584 
L 414.72 41.472 
L 57.6 41.472 
z
" style="fill: #ffffff"/>
   </g>
   <g id="matplotlib.axis_1">
    <g id="xtick_1">
     <g id="line2d_1">
      <defs>
       <path id="me9ebd14ba7" d="M 0 0 
L 0 3.5 
" style="stroke: #000000; stroke-width: 0.8"/>
      </defs>
      <g>
       <use xlink:href="#me9ebd14ba7" x="73.832727" y="307.584" style="stroke: #000000; stroke-width: 0.8"/>
      </g>
     </g>
     <g id="text_1">
      <!-- 0 -->
      <g transform="translate(70.651477 322.182437) scale(0.1 -0.1)">
       <defs>
        <path id="DejaVuSans-30" d="M 2034 4250 
Q 1547 4250 1301 3770 
Q 1056 3291 1056 2328 
Q 1056 1369 1301 889 
Q 1547 409 2034 409 
Q 2525 409 2770 889 
Q 3016 1369 3016 2328 
Q 3016 3291 2770 3770 
Q 2525 4250 2034 4250 
z
M 2034 4750 
Q 2819 4750 3233 4129 
Q 3647 3509 3647 2328 
Q 3647 1150 3233 529 
Q 2819 -91 2034 -91 
Q 1250 -91 836 529 
Q 422 1150 422 2328 
Q 422 3509 836 4129 
Q 1250 4750 2034 4750 
z
" transform="scale(0.015625)"/>
       </defs>
       <use xlink:href="#DejaVuSans-30"/>
      </g>
     </g>
    </g>
    <g id="xtick_2">
     <g id="line2d_2">
      <g>
       <use xlink:href="#me9ebd14ba7" x="138.893758" y="307.584" style="stroke: #000000; stroke-width: 0.8"/>
      </g>
     </g>
     <g id="text_2">
      <!-- 100 -->
      <g transform="translate(129.350008 322.182437) scale(0.1 -0.1)">
       <defs>
        <path id="DejaVuSans-31" d="M 794 531 
L 1825 531 
L 1825 4091 
L 703 3866 
L 703 4441 
L 1819 4666 
L 2450 4666 
L 2450 531 
L 3481 531 
L 3481 0 
L 794 0 
L 794 531 
z
" transform="scale(0.015625)"/>
       </defs>
       <use xlink:href="#DejaVuSans-31"/>
       <use xlink:href="#DejaVuSans-30" x="63.623047"/>
       <use xlink:href="#DejaVuSans-30" x="127.246094"/>
      </g>
     </g>
    </g>
    <g id="xtick_3">
     <g id="line2d_3">
      <g>
       <use xlink:href="#me9ebd14ba7" x="203.95479" y="307.584" style="stroke: #000000; stroke-width: 0.8"/>
      </g>
     </g>
     <g id="text_3">
      <!-- 200 -->
      <g transform="translate(194.41104 322.182437) scale(0.1 -0.1)">
       <defs>
        <path id="DejaVuSans-32" d="M 1228 531 
L 3431 531 
L 3431 0 
L 469 0 
L 469 531 
Q 828 903 1448 1529 
Q 2069 2156 2228 2338 
Q 2531 2678 2651 2914 
Q 2772 3150 2772 3378 
Q 2772 3750 2511 3984 
Q 2250 4219 1831 4219 
Q 1534 4219 1204 4116 
Q 875 4013 500 3803 
L 500 4441 
Q 881 4594 1212 4672 
Q 1544 4750 1819 4750 
Q 2544 4750 2975 4387 
Q 3406 4025 3406 3419 
Q 3406 3131 3298 2873 
Q 3191 2616 2906 2266 
Q 2828 2175 2409 1742 
Q 1991 1309 1228 531 
z
" transform="scale(0.015625)"/>
       </defs>
       <use xlink:href="#DejaVuSans-32"/>
       <use xlink:href="#DejaVuSans-30" x="63.623047"/>
       <use xlink:href="#DejaVuSans-30" x="127.246094"/>
      </g>
     </g>
    </g>
    <g id="xtick_4">
     <g id="line2d_4">
      <g>
       <use xlink:href="#me9ebd14ba7" x="269.015821" y="307.584" style="stroke: #000000; stroke-width: 0.8"/>
      </g>
     </g>
     <g id="text_4">
      <!-- 300 -->
      <g transform="translate(259.472071 322.182437) scale(0.1 -0.1)">
       <defs>
        <path id="DejaVuSans-33" d="M 2597 2516 
Q 3050 2419 3304 2112 
Q 3559 1806 3559 1356 
Q 3559 666 3084 287 
Q 2609 -91 1734 -91 
Q 1441 -91 1130 -33 
Q 819 25 488 141 
L 488 750 
Q 750 597 1062 519 
Q 1375 441 1716 441 
Q 2309 441 2620 675 
Q 2931 909 2931 1356 
Q 2931 1769 2642 2001 
Q 2353 2234 1838 2234 
L 1294 2234 
L 1294 2753 
L 1863 2753 
Q 2328 2753 2575 2939 
Q 2822 3125 2822 3475 
Q 2822 3834 2567 4026 
Q 2313 4219 1838 4219 
Q 1578 4219 1281 4162 
Q 984 4106 628 3988 
L 628 4550 
Q 988 4650 1302 4700 
Q 1616 4750 1894 4750 
Q 2613 4750 3031 4423 
Q 3450 4097 3450 3541 
Q 3450 3153 3228 2886 
Q 3006 2619 2597 2516 
z
" transform="scale(0.015625)"/>
       </defs>
       <use xlink:href="#DejaVuSans-33"/>
       <use xlink:href="#DejaVuSans-30" x="63.623047"/>
       <use xlink:href="#DejaVuSans-30" x="127.246094"/>
      </g>
     </g>
    </g>
    <g id="xtick_5">
     <g id="line2d_5">
      <g>
       <use xlink:href="#me9ebd14ba7" x="334.076852" y="307.584" style="stroke: #000000; stroke-width: 0.8"/>
      </g>
     </g>
     <g id="text_5">
      <!-- 400 -->
      <g transform="translate(324.533102 322.182437) scale(0.1 -0.1)">
       <defs>
        <path id="DejaVuSans-34" d="M 2419 4116 
L 825 1625 
L 2419 1625 
L 2419 4116 
z
M 2253 4666 
L 3047 4666 
L 3047 1625 
L 3713 1625 
L 3713 1100 
L 3047 1100 
L 3047 0 
L 2419 0 
L 2419 1100 
L 313 1100 
L 313 1709 
L 2253 4666 
z
" transform="scale(0.015625)"/>
       </defs>
       <use xlink:href="#DejaVuSans-34"/>
       <use xlink:href="#DejaVuSans-30" x="63.623047"/>
       <use xlink:href="#DejaVuSans-30" x="127.246094"/>
      </g>
     </g>
    </g>
    <g id="xtick_6">
     <g id="line2d_6">
      <g>
       <use xlink:href="#me9ebd14ba7" x="399.137883" y="307.584" style="stroke: #000000; stroke-width: 0.8"/>
      </g>
     </g>
     <g id="text_6">
      <!-- 500 -->
      <g transform="translate(389.594133 322.182437) scale(0.1 -0.1)">
       <defs>
        <path id="DejaVuSans-35" d="M 691 4666 
L 3169 4666 
L 3169 4134 
L 1269 4134 
L 1269 2991 
Q 1406 3038 1543 3061 
Q 1681 3084 1819 3084 
Q 2600 3084 3056 2656 
Q 3513 2228 3513 1497 
Q 3513 744 3044 326 
Q 2575 -91 1722 -91 
Q 1428 -91 1123 -41 
Q 819 9 494 109 
L 494 744 
Q 775 591 1075 516 
Q 1375 441 1709 441 
Q 2250 441 2565 725 
Q 2881 1009 2881 1497 
Q 2881 1984 2565 2268 
Q 2250 2553 1709 2553 
Q 1456 2553 1204 2497 
Q 953 2441 691 2322 
L 691 4666 
z
" transform="scale(0.015625)"/>
       </defs>
       <use xlink:href="#DejaVuSans-35"/>
       <use xlink:href="#DejaVuSans-30" x="63.623047"/>
       <use xlink:href="#DejaVuSans-30" x="127.246094"/>
      </g>
     </g>
    </g>
   </g>
   <g id="matplotlib.axis_2">
    <g id="ytick_1">
     <g id="line2d_7">
      <defs>
       <path id="md76d497fd7" d="M 0 0 
L -3.5 0 
" style="stroke: #000000; stroke-width: 0.8"/>
      </defs>
      <g>
       <use xlink:href="#md76d497fd7" x="57.6" y="297.807034" style="stroke: #000000; stroke-width: 0.8"/>
      </g>
     </g>
     <g id="text_7">
      <!-- 0 -->
      <g transform="translate(44.2375 301.606253) scale(0.1 -0.1)">
       <use xlink:href="#DejaVuSans-30"/>
      </g>
     </g>
    </g>
    <g id="ytick_2">
     <g id="line2d_8">
      <g>
       <use xlink:href="#md76d497fd7" x="57.6" y="266.292722" style="stroke: #000000; stroke-width: 0.8"/>
      </g>
     </g>
     <g id="text_8">
      <!-- 500 -->
      <g transform="translate(31.5125 270.09194) scale(0.1 -0.1)">
       <use xlink:href="#DejaVuSans-35"/>
       <use xlink:href="#DejaVuSans-30" x="63.623047"/>
       <use xlink:href="#DejaVuSans-30" x="127.246094"/>
      </g>
     </g>
    </g>
    <g id="ytick_3">
     <g id="line2d_9">
      <g>
       <use xlink:href="#md76d497fd7" x="57.6" y="234.778409" style="stroke: #000000; stroke-width: 0.8"/>
      </g>
     </g>
     <g id="text_9">
      <!-- 1000 -->
      <g transform="translate(25.15 238.577628) scale(0.1 -0.1)">
       <use xlink:href="#DejaVuSans-31"/>
       <use xlink:href="#DejaVuSans-30" x="63.623047"/>
       <use xlink:href="#DejaVuSans-30" x="127.246094"/>
       <use xlink:href="#DejaVuSans-30" x="190.869141"/>
      </g>
     </g>
    </g>
    <g id="ytick_4">
     <g id="line2d_10">
      <g>
       <use xlink:href="#md76d497fd7" x="57.6" y="203.264097" style="stroke: #000000; stroke-width: 0.8"/>
      </g>
     </g>
     <g id="text_10">
      <!-- 1500 -->
      <g transform="translate(25.15 207.063316) scale(0.1 -0.1)">
       <use xlink:href="#DejaVuSans-31"/>
       <use xlink:href="#DejaVuSans-35" x="63.623047"/>
       <use xlink:href="#DejaVuSans-30" x="127.246094"/>
       <use xlink:href="#DejaVuSans-30" x="190.869141"/>
      </g>
     </g>
    </g>
    <g id="ytick_5">
     <g id="line2d_11">
      <g>
       <use xlink:href="#md76d497fd7" x="57.6" y="171.749785" style="stroke: #000000; stroke-width: 0.8"/>
      </g>
     </g>
     <g id="text_11">
      <!-- 2000 -->
      <g transform="translate(25.15 175.549003) scale(0.1 -0.1)">
       <use xlink:href="#DejaVuSans-32"/>
       <use xlink:href="#DejaVuSans-30" x="63.623047"/>
       <use xlink:href="#DejaVuSans-30" x="127.246094"/>
       <use xlink:href="#DejaVuSans-30" x="190.869141"/>
      </g>
     </g>
    </g>
    <g id="ytick_6">
     <g id="line2d_12">
      <g>
       <use xlink:href="#md76d497fd7" x="57.6" y="140.235472" style="stroke: #000000; stroke-width: 0.8"/>
      </g>
     </g>
     <g id="text_12">
      <!-- 2500 -->
      <g transform="translate(25.15 144.034691) scale(0.1 -0.1)">
       <use xlink:href="#DejaVuSans-32"/>
       <use xlink:href="#DejaVuSans-35" x="63.623047"/>
       <use xlink:href="#DejaVuSans-30" x="127.246094"/>
       <use xlink:href="#DejaVuSans-30" x="190.869141"/>
      </g>
     </g>
    </g>
    <g id="ytick_7">
     <g id="line2d_13">
      <g>
       <use xlink:href="#md76d497fd7" x="57.6" y="108.72116" style="stroke: #000000; stroke-width: 0.8"/>
      </g>
     </g>
     <g id="text_13">
      <!-- 3000 -->
      <g transform="translate(25.15 112.520379) scale(0.1 -0.1)">
       <use xlink:href="#DejaVuSans-33"/>
       <use xlink:href="#DejaVuSans-30" x="63.623047"/>
       <use xlink:href="#DejaVuSans-30" x="127.246094"/>
       <use xlink:href="#DejaVuSans-30" x="190.869141"/>
      </g>
     </g>
    </g>
    <g id="ytick_8">
     <g id="line2d_14">
      <g>
       <use xlink:href="#md76d497fd7" x="57.6" y="77.206848" style="stroke: #000000; stroke-width: 0.8"/>
      </g>
     </g>
     <g id="text_14">
      <!-- 3500 -->
      <g transform="translate(25.15 81.006066) scale(0.1 -0.1)">
       <use xlink:href="#DejaVuSans-33"/>
       <use xlink:href="#DejaVuSans-35" x="63.623047"/>
       <use xlink:href="#DejaVuSans-30" x="127.246094"/>
       <use xlink:href="#DejaVuSans-30" x="190.869141"/>
      </g>
     </g>
    </g>
    <g id="ytick_9">
     <g id="line2d_15">
      <g>
       <use xlink:href="#md76d497fd7" x="57.6" y="45.692535" style="stroke: #000000; stroke-width: 0.8"/>
      </g>
     </g>
     <g id="text_15">
      <!-- 4000 -->
      <g transform="translate(25.15 49.491754) scale(0.1 -0.1)">
       <use xlink:href="#DejaVuSans-34"/>
       <use xlink:href="#DejaVuSans-30" x="63.623047"/>
       <use xlink:href="#DejaVuSans-30" x="127.246094"/>
       <use xlink:href="#DejaVuSans-30" x="190.869141"/>
      </g>
     </g>
    </g>
   </g>
   <g id="line2d_16">
    <path d="M 73.832727 213.036471 
L 75.133948 79.431546 
L 75.784558 171.439852 
L 76.435169 145.064186 
L 77.085779 201.014768 
L 77.736389 167.703434 
L 78.386999 150.751511 
L 79.03761 177.864301 
L 79.68822 94.670917 
L 80.33883 104.995369 
L 80.989441 196.565236 
L 81.640051 53.568 
L 82.290661 177.676378 
L 82.941272 199.510243 
L 83.591882 193.889686 
L 84.242492 219.370138 
L 84.893103 193.688012 
L 85.543713 247.258604 
L 86.194323 224.790988 
L 86.844934 99.838228 
L 87.495544 115.149694 
L 88.146154 59.431437 
L 88.796764 96.681991 
L 89.447375 63.31864 
L 90.097985 184.363337 
L 90.748595 243.781574 
L 91.399206 231.797237 
L 92.049816 208.246032 
L 92.700426 262.513317 
L 93.351037 194.044836 
L 94.001647 214.467365 
L 94.652257 214.474134 
L 95.302868 263.565979 
L 95.953478 288.232996 
L 96.604088 221.991099 
L 97.254698 232.166172 
L 97.905309 200.095711 
L 98.555919 263.697244 
L 99.206529 252.804373 
L 99.85714 192.22008 
L 100.50775 191.492074 
L 101.15836 197.636956 
L 101.808971 197.828252 
L 102.459581 295.169846 
L 103.110191 294.460763 
L 103.760802 241.650233 
L 104.411412 249.314944 
L 105.062022 166.184005 
L 105.712633 232.353497 
L 106.363243 137.27792 
L 107.013853 153.329742 
L 107.664463 212.060788 
L 108.315074 231.826233 
L 108.965684 275.349614 
L 109.616294 225.211659 
L 110.266905 287.638668 
L 110.917515 211.486158 
L 111.568125 245.49711 
L 112.218736 271.615912 
L 112.869346 199.838253 
L 113.519956 233.992785 
L 114.170567 230.146097 
L 114.821177 263.013145 
L 115.471787 228.9758 
L 116.122398 228.539395 
L 116.773008 231.945043 
L 117.423618 227.206679 
L 118.074228 241.452313 
L 118.724839 224.527551 
L 119.375449 240.146475 
L 120.026059 259.278982 
L 120.67667 210.720033 
L 121.32728 281.02493 
L 121.97789 202.117893 
L 122.628501 225.026245 
L 123.279111 263.732634 
L 123.929721 231.387279 
L 124.580332 231.604156 
L 125.881552 288.287413 
L 126.532163 223.335348 
L 127.182773 262.199039 
L 127.833383 248.962006 
L 128.483993 177.044516 
L 129.134604 197.64088 
L 129.785214 212.201404 
L 130.435824 293.263295 
L 131.086435 232.156456 
L 131.737045 196.129526 
L 132.387655 175.031826 
L 133.038266 234.295785 
L 133.688876 254.411927 
L 134.339486 295.129801 
L 134.990097 291.528235 
L 135.640707 200.208101 
L 136.941927 281.590305 
L 137.592538 226.494916 
L 138.243148 294.489482 
L 138.893758 226.474526 
L 139.544369 288.573627 
L 140.194979 294.010775 
L 140.845589 200.506872 
L 141.4962 208.312625 
L 142.14681 214.409538 
L 142.79742 234.010577 
L 143.448031 263.513932 
L 144.098641 237.830219 
L 144.749251 207.735859 
L 145.399862 294.69027 
L 146.050472 294.257973 
L 146.701082 231.811006 
L 147.351692 261.341912 
L 148.002303 262.859517 
L 149.303523 137.560757 
L 149.954134 252.419536 
L 150.604744 195.452307 
L 151.255354 245.067453 
L 151.905965 225.680777 
L 152.556575 137.53737 
L 153.207185 209.01444 
L 153.857796 200.312353 
L 154.508406 214.416391 
L 155.159016 247.87685 
L 155.809627 190.46077 
L 156.460237 215.084929 
L 157.110847 222.316087 
L 157.761457 174.127608 
L 158.412068 195.092814 
L 159.062678 231.771017 
L 159.713288 238.40871 
L 160.363899 227.997485 
L 161.014509 202.444792 
L 161.665119 192.652267 
L 162.31573 197.032326 
L 162.96634 166.744429 
L 163.61695 225.914899 
L 164.267561 177.066474 
L 164.918171 168.741627 
L 165.568781 240.603647 
L 166.219392 248.932837 
L 166.870002 287.101267 
L 167.520612 270.753895 
L 168.171222 168.864669 
L 168.821833 232.09574 
L 169.472443 228.562801 
L 170.123053 232.361046 
L 170.773664 291.676107 
L 171.424274 279.704536 
L 172.074884 255.081883 
L 172.725495 262.569801 
L 173.376105 281.055574 
L 174.026715 219.170367 
L 174.677326 169.237908 
L 175.327936 261.269506 
L 175.978546 200.195712 
L 176.629156 269.326764 
L 177.279767 237.108937 
L 177.930377 231.680104 
L 178.580987 287.535815 
L 179.231598 200.923788 
L 179.882208 263.070514 
L 180.532818 262.388149 
L 181.183429 195.445195 
L 181.834039 288.572129 
L 182.484649 230.7713 
L 183.13526 216.156592 
L 183.78587 224.184138 
L 184.43648 274.322202 
L 185.087091 227.301137 
L 185.737701 270.774489 
L 186.388311 177.260981 
L 187.038921 230.971065 
L 187.689532 272.860184 
L 188.340142 289.400866 
L 188.990752 268.514289 
L 189.641363 244.038184 
L 190.291973 211.211561 
L 190.942583 259.787099 
L 191.593194 137.604783 
L 192.243804 230.554707 
L 192.894414 212.512645 
L 193.545025 232.095065 
L 194.195635 242.072229 
L 194.846245 224.969394 
L 195.496856 173.075049 
L 196.147466 231.026581 
L 196.798076 194.72783 
L 197.448686 218.91864 
L 198.099297 212.580352 
L 198.749907 201.56666 
L 199.400517 224.085603 
L 200.051128 251.456403 
L 200.701738 140.731292 
L 201.352348 137.762582 
L 202.002959 231.511074 
L 202.653569 264.275089 
L 203.304179 289.425049 
L 203.95479 243.634674 
L 204.6054 185.420879 
L 205.25601 275.090357 
L 205.906621 168.946616 
L 206.557231 283.336569 
L 207.207841 245.342317 
L 207.858451 152.16645 
L 208.509062 229.382273 
L 209.159672 211.931494 
L 209.810282 285.12898 
L 210.460893 168.688092 
L 211.111503 238.093402 
L 211.762113 295.439629 
L 212.412724 232.345824 
L 213.063334 150.299452 
L 213.713944 199.996326 
L 214.364555 232.331808 
L 215.015165 250.661517 
L 215.665775 205.936108 
L 216.316385 169.585742 
L 216.966996 167.440629 
L 217.617606 168.456293 
L 218.268216 137.323758 
L 218.918827 202.550894 
L 219.569437 161.026411 
L 220.220047 231.725873 
L 220.870658 198.976184 
L 221.521268 253.38249 
L 222.171878 232.034509 
L 222.822489 232.031614 
L 223.473099 263.187586 
L 224.123709 200.257698 
L 224.77432 295.469254 
L 225.42493 295.241583 
L 226.07554 200.255503 
L 226.72615 295.153124 
L 227.376761 175.311357 
L 228.027371 137.918374 
L 229.328592 263.234357 
L 229.979202 157.779069 
L 230.629812 260.161025 
L 231.280423 234.786612 
L 231.931033 231.318653 
L 232.581643 203.440448 
L 233.232254 278.321656 
L 233.882864 115.020255 
L 234.533474 202.325871 
L 235.184085 138.146936 
L 235.834695 196.01083 
L 236.485305 232.092961 
L 237.135915 293.326579 
L 237.786526 263.083861 
L 238.437136 200.426343 
L 239.087746 169.012299 
L 239.738357 169.205147 
L 240.388967 204.910801 
L 241.039577 197.223031 
L 241.690188 294.279865 
L 242.340798 166.783105 
L 242.991408 168.971205 
L 243.642019 284.105278 
L 244.292629 231.948411 
L 244.943239 169.165964 
L 245.59385 263.158088 
L 246.24446 275.592851 
L 246.89507 294.625132 
L 247.54568 171.215787 
L 248.196291 220.829936 
L 248.846901 213.55417 
L 249.497511 231.0978 
L 250.148122 294.584095 
L 250.798732 232.120018 
L 251.449342 232.535595 
L 252.099953 211.217861 
L 252.750563 231.589126 
L 253.401173 195.080648 
L 254.051784 223.96475 
L 254.702394 200.417435 
L 255.353004 231.089436 
L 256.003615 294.805875 
L 256.654225 219.046393 
L 257.304835 241.216002 
L 257.955445 225.996295 
L 258.606056 240.126659 
L 259.256666 250.181445 
L 259.907276 229.032047 
L 260.557887 225.459596 
L 261.208497 253.823667 
L 261.859107 295.488 
L 262.509718 257.930197 
L 263.160328 241.112856 
L 263.810938 239.325723 
L 264.461549 263.723217 
L 265.112159 212.552716 
L 265.762769 263.007423 
L 266.413379 250.2057 
L 267.06399 295.170077 
L 267.7146 251.639288 
L 268.36521 234.07735 
L 269.015821 260.122628 
L 269.666431 195.840111 
L 270.317041 199.787382 
L 270.967652 231.691985 
L 271.618262 229.439501 
L 272.268872 255.479778 
L 273.570093 136.657338 
L 274.220703 235.097986 
L 274.871314 263.502906 
L 276.172534 195.155252 
L 276.823144 178.549835 
L 277.473755 269.903093 
L 278.124365 226.073149 
L 278.774975 200.724319 
L 279.425586 274.444087 
L 280.076196 250.413279 
L 280.726806 264.536148 
L 281.377417 256.912807 
L 282.028027 272.451347 
L 282.678637 294.918777 
L 283.329248 187.46873 
L 283.979858 250.814889 
L 284.630468 281.129033 
L 285.281079 113.654972 
L 285.931689 201.088682 
L 287.232909 263.100222 
L 287.88352 273.531109 
L 288.53413 274.94371 
L 289.18474 285.990929 
L 289.835351 265.468866 
L 290.485961 284.214957 
L 291.136571 275.820044 
L 291.787182 264.666657 
L 292.437792 275.445303 
L 293.088402 292.963474 
L 293.739013 196.885747 
L 294.389623 231.614098 
L 295.040233 197.716706 
L 295.690844 252.827714 
L 296.341454 214.557946 
L 296.992064 202.14388 
L 297.642674 266.002434 
L 298.293285 285.691878 
L 298.943895 156.631372 
L 299.594505 224.068158 
L 300.245116 218.754831 
L 300.895726 159.791555 
L 301.546336 137.538655 
L 302.196947 228.11693 
L 302.847557 199.855063 
L 303.498167 283.778357 
L 304.148778 248.179392 
L 304.799388 154.559004 
L 305.449998 173.649107 
L 306.100608 229.125126 
L 306.751219 199.441334 
L 307.401829 215.894697 
L 308.052439 156.433887 
L 308.70305 154.691703 
L 309.35366 251.981927 
L 310.00427 238.464954 
L 310.654881 231.510999 
L 311.305491 232.459659 
L 311.956101 168.387967 
L 312.606712 293.908214 
L 313.257322 261.717615 
L 313.907932 193.374324 
L 314.558543 220.357595 
L 315.209153 229.203327 
L 315.859763 294.142867 
L 316.510373 251.823193 
L 317.160984 257.865264 
L 317.811594 254.178864 
L 318.462204 294.97591 
L 319.112815 179.141405 
L 319.763425 270.605506 
L 320.414035 264.429598 
L 321.064646 244.408431 
L 321.715256 293.615743 
L 322.365866 289.537884 
L 323.016477 243.743277 
L 323.667087 213.602266 
L 324.317697 150.923312 
L 324.968308 152.697079 
L 325.618918 197.335425 
L 326.269528 178.17005 
L 326.920138 119.870523 
L 327.570749 264.607346 
L 328.221359 231.352583 
L 328.871969 206.352576 
L 329.52258 236.395627 
L 330.17319 241.42782 
L 330.8238 238.048391 
L 331.474411 271.964293 
L 332.125021 264.437156 
L 332.775631 201.383914 
L 333.426242 207.054608 
L 334.076852 198.42854 
L 334.727462 193.280403 
L 335.378073 164.151051 
L 336.028683 239.085995 
L 336.679293 257.455194 
L 337.329903 242.938361 
L 337.980514 283.840507 
L 338.631124 231.874043 
L 339.281734 208.297705 
L 339.932345 199.565116 
L 340.582955 108.293764 
L 341.233565 169.293653 
L 341.884176 176.438038 
L 343.185396 278.615507 
L 343.836007 235.664766 
L 344.486617 250.775453 
L 345.137227 259.573419 
L 345.787837 207.064626 
L 346.438448 193.529768 
L 347.089058 294.228652 
L 347.739668 221.023677 
L 348.390279 211.951381 
L 349.040889 233.819587 
L 349.691499 192.480343 
L 350.34211 261.041448 
L 350.99272 147.379173 
L 351.64333 226.746671 
L 352.293941 266.40487 
L 352.944551 221.875866 
L 353.595161 279.479963 
L 354.245772 146.648206 
L 354.896382 189.632134 
L 355.546992 191.359837 
L 356.197602 282.439221 
L 356.848213 205.547104 
L 357.498823 243.758321 
L 358.149433 247.056049 
L 358.800044 238.03125 
L 359.450654 285.25044 
L 360.101264 177.349247 
L 360.751875 192.253473 
L 361.402485 200.155251 
L 362.053095 273.73278 
L 362.703706 219.908225 
L 363.354316 232.547699 
L 364.004926 127.90807 
L 364.655537 202.374638 
L 365.306147 169.959451 
L 365.956757 231.617723 
L 367.257978 148.794117 
L 368.559198 295.342328 
L 369.209809 233.476585 
L 369.860419 214.891743 
L 370.511029 263.313551 
L 371.16164 219.620235 
L 371.81225 211.256268 
L 373.113471 250.715037 
L 373.764081 254.208706 
L 374.414691 162.100849 
L 375.065302 152.162825 
L 375.715912 152.80235 
L 377.017132 270.752962 
L 377.667743 138.087038 
L 378.318353 263.5453 
L 378.968963 171.980917 
L 379.619574 246.144465 
L 380.270184 211.99617 
L 380.920794 291.532923 
L 381.571405 294.843145 
L 382.222015 279.522606 
L 382.872625 167.691733 
L 383.523236 264.954411 
L 384.173846 163.445379 
L 384.824456 262.010056 
L 385.475066 253.098066 
L 386.125677 197.76912 
L 386.776287 232.062006 
L 387.426897 294.959519 
L 388.077508 197.080117 
L 388.728118 226.2673 
L 389.378728 193.592727 
L 390.029339 249.297399 
L 390.679949 257.338298 
L 391.330559 161.898834 
L 391.98117 253.382292 
L 392.63178 255.81973 
L 393.28239 233.053545 
L 393.933001 220.752609 
L 394.583611 231.681118 
L 395.234221 263.224931 
L 395.884831 288.47276 
L 396.535442 224.046496 
L 397.836662 270.510901 
L 398.487273 263.258397 
L 398.487273 263.258397 
" clip-path="url(#p369b5a4eac)" style="fill: none; stroke: #1f77b4; stroke-width: 1.5; stroke-linecap: square"/>
   </g>
   <g id="patch_3">
    <path d="M 57.6 307.584 
L 57.6 41.472 
" style="fill: none; stroke: #000000; stroke-width: 0.8; stroke-linejoin: miter; stroke-linecap: square"/>
   </g>
   <g id="patch_4">
    <path d="M 414.72 307.584 
L 414.72 41.472 
" style="fill: none; stroke: #000000; stroke-width: 0.8; stroke-linejoin: miter; stroke-linecap: square"/>
   </g>
   <g id="patch_5">
    <path d="M 57.6 307.584 
L 414.72 307.584 
" style="fill: none; stroke: #000000; stroke-width: 0.8; stroke-linejoin: miter; stroke-linecap: square"/>
   </g>
   <g id="patch_6">
    <path d="M 57.6 41.472 
L 414.72 41.472 
" style="fill: none; stroke: #000000; stroke-width: 0.8; stroke-linejoin: miter; stroke-linecap: square"/>
   </g>
  </g>
 </g>
 <defs>
  <clipPath id="p369b5a4eac">
   <rect x="57.6" y="41.472" width="357.12" height="266.112"/>
  </clipPath>
 </defs>
</svg>
