<?xml version="1.0" encoding="utf-8" standalone="no"?>
<!DOCTYPE svg PUBLIC "-//W3C//DTD SVG 1.1//EN"
  "http://www.w3.org/Graphics/SVG/1.1/DTD/svg11.dtd">
<svg xmlns:xlink="http://www.w3.org/1999/xlink" width="460.8pt" height="345.6pt" viewBox="0 0 460.8 345.6" xmlns="http://www.w3.org/2000/svg" version="1.1">
 <metadata>
  <rdf:RDF xmlns:dc="http://purl.org/dc/elements/1.1/" xmlns:cc="http://creativecommons.org/ns#" xmlns:rdf="http://www.w3.org/1999/02/22-rdf-syntax-ns#">
   <cc:Work>
    <dc:type rdf:resource="http://purl.org/dc/dcmitype/StillImage"/>
    <dc:date>2024-04-18T13:07:25.653762</dc:date>
    <dc:format>image/svg+xml</dc:format>
    <dc:creator>
     <cc:Agent>
      <dc:title>Matplotlib v3.7.2, https://matplotlib.org/</dc:title>
     </cc:Agent>
    </dc:creator>
   </cc:Work>
  </rdf:RDF>
 </metadata>
 <defs>
  <style type="text/css">*{stroke-linejoin: round; stroke-linecap: butt}</style>
 </defs>
 <g id="figure_1">
  <g id="patch_1">
   <path d="M 0 345.6 
L 460.8 345.6 
L 460.8 0 
L 0 0 
z
" style="fill: #ffffff"/>
  </g>
  <g id="axes_1">
   <g id="patch_2">
    <path d="M 57.6 307.584 
L 414.72 307.584 
L 414.72 41.472 
L 57.6 41.472 
z
" style="fill: #ffffff"/>
   </g>
   <g id="matplotlib.axis_1">
    <g id="xtick_1">
     <g id="line2d_1">
      <defs>
       <path id="m3bb3864b4d" d="M 0 0 
L 0 3.5 
" style="stroke: #000000; stroke-width: 0.8"/>
      </defs>
      <g>
       <use xlink:href="#m3bb3864b4d" x="73.832727" y="307.584" style="stroke: #000000; stroke-width: 0.8"/>
      </g>
     </g>
     <g id="text_1">
      <!-- 0 -->
      <g transform="translate(70.651477 322.182437) scale(0.1 -0.1)">
       <defs>
        <path id="DejaVuSans-30" d="M 2034 4250 
Q 1547 4250 1301 3770 
Q 1056 3291 1056 2328 
Q 1056 1369 1301 889 
Q 1547 409 2034 409 
Q 2525 409 2770 889 
Q 3016 1369 3016 2328 
Q 3016 3291 2770 3770 
Q 2525 4250 2034 4250 
z
M 2034 4750 
Q 2819 4750 3233 4129 
Q 3647 3509 3647 2328 
Q 3647 1150 3233 529 
Q 2819 -91 2034 -91 
Q 1250 -91 836 529 
Q 422 1150 422 2328 
Q 422 3509 836 4129 
Q 1250 4750 2034 4750 
z
" transform="scale(0.015625)"/>
       </defs>
       <use xlink:href="#DejaVuSans-30"/>
      </g>
     </g>
    </g>
    <g id="xtick_2">
     <g id="line2d_2">
      <g>
       <use xlink:href="#m3bb3864b4d" x="138.893758" y="307.584" style="stroke: #000000; stroke-width: 0.8"/>
      </g>
     </g>
     <g id="text_2">
      <!-- 100 -->
      <g transform="translate(129.350008 322.182437) scale(0.1 -0.1)">
       <defs>
        <path id="DejaVuSans-31" d="M 794 531 
L 1825 531 
L 1825 4091 
L 703 3866 
L 703 4441 
L 1819 4666 
L 2450 4666 
L 2450 531 
L 3481 531 
L 3481 0 
L 794 0 
L 794 531 
z
" transform="scale(0.015625)"/>
       </defs>
       <use xlink:href="#DejaVuSans-31"/>
       <use xlink:href="#DejaVuSans-30" x="63.623047"/>
       <use xlink:href="#DejaVuSans-30" x="127.246094"/>
      </g>
     </g>
    </g>
    <g id="xtick_3">
     <g id="line2d_3">
      <g>
       <use xlink:href="#m3bb3864b4d" x="203.95479" y="307.584" style="stroke: #000000; stroke-width: 0.8"/>
      </g>
     </g>
     <g id="text_3">
      <!-- 200 -->
      <g transform="translate(194.41104 322.182437) scale(0.1 -0.1)">
       <defs>
        <path id="DejaVuSans-32" d="M 1228 531 
L 3431 531 
L 3431 0 
L 469 0 
L 469 531 
Q 828 903 1448 1529 
Q 2069 2156 2228 2338 
Q 2531 2678 2651 2914 
Q 2772 3150 2772 3378 
Q 2772 3750 2511 3984 
Q 2250 4219 1831 4219 
Q 1534 4219 1204 4116 
Q 875 4013 500 3803 
L 500 4441 
Q 881 4594 1212 4672 
Q 1544 4750 1819 4750 
Q 2544 4750 2975 4387 
Q 3406 4025 3406 3419 
Q 3406 3131 3298 2873 
Q 3191 2616 2906 2266 
Q 2828 2175 2409 1742 
Q 1991 1309 1228 531 
z
" transform="scale(0.015625)"/>
       </defs>
       <use xlink:href="#DejaVuSans-32"/>
       <use xlink:href="#DejaVuSans-30" x="63.623047"/>
       <use xlink:href="#DejaVuSans-30" x="127.246094"/>
      </g>
     </g>
    </g>
    <g id="xtick_4">
     <g id="line2d_4">
      <g>
       <use xlink:href="#m3bb3864b4d" x="269.015821" y="307.584" style="stroke: #000000; stroke-width: 0.8"/>
      </g>
     </g>
     <g id="text_4">
      <!-- 300 -->
      <g transform="translate(259.472071 322.182437) scale(0.1 -0.1)">
       <defs>
        <path id="DejaVuSans-33" d="M 2597 2516 
Q 3050 2419 3304 2112 
Q 3559 1806 3559 1356 
Q 3559 666 3084 287 
Q 2609 -91 1734 -91 
Q 1441 -91 1130 -33 
Q 819 25 488 141 
L 488 750 
Q 750 597 1062 519 
Q 1375 441 1716 441 
Q 2309 441 2620 675 
Q 2931 909 2931 1356 
Q 2931 1769 2642 2001 
Q 2353 2234 1838 2234 
L 1294 2234 
L 1294 2753 
L 1863 2753 
Q 2328 2753 2575 2939 
Q 2822 3125 2822 3475 
Q 2822 3834 2567 4026 
Q 2313 4219 1838 4219 
Q 1578 4219 1281 4162 
Q 984 4106 628 3988 
L 628 4550 
Q 988 4650 1302 4700 
Q 1616 4750 1894 4750 
Q 2613 4750 3031 4423 
Q 3450 4097 3450 3541 
Q 3450 3153 3228 2886 
Q 3006 2619 2597 2516 
z
" transform="scale(0.015625)"/>
       </defs>
       <use xlink:href="#DejaVuSans-33"/>
       <use xlink:href="#DejaVuSans-30" x="63.623047"/>
       <use xlink:href="#DejaVuSans-30" x="127.246094"/>
      </g>
     </g>
    </g>
    <g id="xtick_5">
     <g id="line2d_5">
      <g>
       <use xlink:href="#m3bb3864b4d" x="334.076852" y="307.584" style="stroke: #000000; stroke-width: 0.8"/>
      </g>
     </g>
     <g id="text_5">
      <!-- 400 -->
      <g transform="translate(324.533102 322.182437) scale(0.1 -0.1)">
       <defs>
        <path id="DejaVuSans-34" d="M 2419 4116 
L 825 1625 
L 2419 1625 
L 2419 4116 
z
M 2253 4666 
L 3047 4666 
L 3047 1625 
L 3713 1625 
L 3713 1100 
L 3047 1100 
L 3047 0 
L 2419 0 
L 2419 1100 
L 313 1100 
L 313 1709 
L 2253 4666 
z
" transform="scale(0.015625)"/>
       </defs>
       <use xlink:href="#DejaVuSans-34"/>
       <use xlink:href="#DejaVuSans-30" x="63.623047"/>
       <use xlink:href="#DejaVuSans-30" x="127.246094"/>
      </g>
     </g>
    </g>
    <g id="xtick_6">
     <g id="line2d_6">
      <g>
       <use xlink:href="#m3bb3864b4d" x="399.137883" y="307.584" style="stroke: #000000; stroke-width: 0.8"/>
      </g>
     </g>
     <g id="text_6">
      <!-- 500 -->
      <g transform="translate(389.594133 322.182437) scale(0.1 -0.1)">
       <defs>
        <path id="DejaVuSans-35" d="M 691 4666 
L 3169 4666 
L 3169 4134 
L 1269 4134 
L 1269 2991 
Q 1406 3038 1543 3061 
Q 1681 3084 1819 3084 
Q 2600 3084 3056 2656 
Q 3513 2228 3513 1497 
Q 3513 744 3044 326 
Q 2575 -91 1722 -91 
Q 1428 -91 1123 -41 
Q 819 9 494 109 
L 494 744 
Q 775 591 1075 516 
Q 1375 441 1709 441 
Q 2250 441 2565 725 
Q 2881 1009 2881 1497 
Q 2881 1984 2565 2268 
Q 2250 2553 1709 2553 
Q 1456 2553 1204 2497 
Q 953 2441 691 2322 
L 691 4666 
z
" transform="scale(0.015625)"/>
       </defs>
       <use xlink:href="#DejaVuSans-35"/>
       <use xlink:href="#DejaVuSans-30" x="63.623047"/>
       <use xlink:href="#DejaVuSans-30" x="127.246094"/>
      </g>
     </g>
    </g>
   </g>
   <g id="matplotlib.axis_2">
    <g id="ytick_1">
     <g id="line2d_7">
      <defs>
       <path id="m17e8d44fc9" d="M 0 0 
L -3.5 0 
" style="stroke: #000000; stroke-width: 0.8"/>
      </defs>
      <g>
       <use xlink:href="#m17e8d44fc9" x="57.6" y="298.043921" style="stroke: #000000; stroke-width: 0.8"/>
      </g>
     </g>
     <g id="text_7">
      <!-- 0 -->
      <g transform="translate(44.2375 301.84314) scale(0.1 -0.1)">
       <use xlink:href="#DejaVuSans-30"/>
      </g>
     </g>
    </g>
    <g id="ytick_2">
     <g id="line2d_8">
      <g>
       <use xlink:href="#m17e8d44fc9" x="57.6" y="239.344118" style="stroke: #000000; stroke-width: 0.8"/>
      </g>
     </g>
     <g id="text_8">
      <!-- 1000 -->
      <g transform="translate(25.15 243.143337) scale(0.1 -0.1)">
       <use xlink:href="#DejaVuSans-31"/>
       <use xlink:href="#DejaVuSans-30" x="63.623047"/>
       <use xlink:href="#DejaVuSans-30" x="127.246094"/>
       <use xlink:href="#DejaVuSans-30" x="190.869141"/>
      </g>
     </g>
    </g>
    <g id="ytick_3">
     <g id="line2d_9">
      <g>
       <use xlink:href="#m17e8d44fc9" x="57.6" y="180.644316" style="stroke: #000000; stroke-width: 0.8"/>
      </g>
     </g>
     <g id="text_9">
      <!-- 2000 -->
      <g transform="translate(25.15 184.443535) scale(0.1 -0.1)">
       <use xlink:href="#DejaVuSans-32"/>
       <use xlink:href="#DejaVuSans-30" x="63.623047"/>
       <use xlink:href="#DejaVuSans-30" x="127.246094"/>
       <use xlink:href="#DejaVuSans-30" x="190.869141"/>
      </g>
     </g>
    </g>
    <g id="ytick_4">
     <g id="line2d_10">
      <g>
       <use xlink:href="#m17e8d44fc9" x="57.6" y="121.944513" style="stroke: #000000; stroke-width: 0.8"/>
      </g>
     </g>
     <g id="text_10">
      <!-- 3000 -->
      <g transform="translate(25.15 125.743732) scale(0.1 -0.1)">
       <use xlink:href="#DejaVuSans-33"/>
       <use xlink:href="#DejaVuSans-30" x="63.623047"/>
       <use xlink:href="#DejaVuSans-30" x="127.246094"/>
       <use xlink:href="#DejaVuSans-30" x="190.869141"/>
      </g>
     </g>
    </g>
    <g id="ytick_5">
     <g id="line2d_11">
      <g>
       <use xlink:href="#m17e8d44fc9" x="57.6" y="63.244711" style="stroke: #000000; stroke-width: 0.8"/>
      </g>
     </g>
     <g id="text_11">
      <!-- 4000 -->
      <g transform="translate(25.15 67.043929) scale(0.1 -0.1)">
       <use xlink:href="#DejaVuSans-34"/>
       <use xlink:href="#DejaVuSans-30" x="63.623047"/>
       <use xlink:href="#DejaVuSans-30" x="127.246094"/>
       <use xlink:href="#DejaVuSans-30" x="190.869141"/>
      </g>
     </g>
    </g>
   </g>
   <g id="line2d_12">
    <path d="M 73.832727 179.245097 
L 74.483338 145.813991 
L 75.133948 169.18639 
L 75.784558 150.528631 
L 76.435169 293.172516 
L 77.085779 255.41397 
L 77.736389 192.736178 
L 78.386999 232.461225 
L 79.03761 145.063749 
L 79.68822 146.10133 
L 80.33883 188.260126 
L 80.989441 118.558616 
L 81.640051 193.13879 
L 82.290661 106.193245 
L 82.941272 153.110297 
L 83.591882 268.916346 
L 84.242492 129.268091 
L 84.893103 226.314522 
L 85.543713 135.957263 
L 86.194323 166.383873 
L 86.844934 235.321826 
L 87.495544 261.227738 
L 88.146154 168.64602 
L 88.796764 206.510798 
L 89.447375 80.08229 
L 90.097985 121.316376 
L 90.748595 169.898639 
L 91.399206 274.20436 
L 92.049816 233.403639 
L 92.700426 202.18203 
L 93.351037 236.072317 
L 94.001647 261.415797 
L 94.652257 178.648841 
L 95.302868 230.253975 
L 95.953478 170.972678 
L 96.604088 253.13302 
L 97.254698 253.233774 
L 97.905309 246.009187 
L 98.555919 105.140328 
L 99.206529 95.506196 
L 99.85714 113.470299 
L 100.50775 164.060747 
L 101.15836 97.680413 
L 101.808971 76.289847 
L 102.459581 110.335671 
L 103.110191 104.874073 
L 103.760802 126.140091 
L 104.411412 113.35408 
L 105.062022 166.052541 
L 105.712633 159.201541 
L 106.363243 72.64473 
L 107.013853 164.481613 
L 107.664463 155.481993 
L 108.315074 220.340549 
L 108.965684 257.623991 
L 109.616294 177.97452 
L 110.266905 228.588641 
L 110.917515 227.521063 
L 111.568125 263.073434 
L 112.218736 246.82068 
L 112.869346 237.866712 
L 113.519956 186.238465 
L 114.170567 272.476676 
L 114.821177 224.304239 
L 115.471787 159.072719 
L 116.122398 220.182998 
L 116.773008 223.813706 
L 117.423618 183.386795 
L 118.074228 210.574637 
L 118.724839 208.365346 
L 119.375449 206.73671 
L 120.026059 243.703103 
L 120.67667 234.627396 
L 121.32728 241.2761 
L 121.97789 287.174026 
L 122.628501 190.430675 
L 123.279111 203.396277 
L 123.929721 181.326721 
L 124.580332 295.488 
L 125.230942 255.664717 
L 126.532163 240.367616 
L 127.182773 199.482434 
L 127.833383 262.545868 
L 128.483993 294.534692 
L 129.134604 181.981767 
L 129.785214 246.702528 
L 130.435824 265.233168 
L 131.086435 177.118594 
L 131.737045 249.269671 
L 132.387655 239.450814 
L 133.038266 261.982943 
L 133.688876 232.35498 
L 134.339486 196.454783 
L 134.990097 234.79539 
L 136.291317 187.586925 
L 137.592538 255.931489 
L 138.243148 181.689965 
L 138.893758 210.381251 
L 139.544369 256.204515 
L 140.194979 205.894169 
L 140.845589 234.405657 
L 141.4962 273.04718 
L 142.14681 213.449515 
L 142.79742 236.865207 
L 143.448031 193.358665 
L 144.098641 227.008665 
L 144.749251 148.431108 
L 145.399862 176.23925 
L 146.050472 211.247975 
L 146.701082 231.996367 
L 147.351692 239.983962 
L 148.002303 203.743414 
L 148.652913 247.794779 
L 149.303523 265.093191 
L 149.954134 208.771968 
L 150.604744 177.69467 
L 151.255354 253.129291 
L 151.905965 208.261462 
L 152.556575 223.537739 
L 153.207185 178.764047 
L 153.857796 223.792912 
L 154.508406 240.325773 
L 155.159016 221.504513 
L 155.809627 215.542493 
L 156.460237 224.20382 
L 157.110847 236.166402 
L 157.761457 214.202961 
L 158.412068 259.755176 
L 159.062678 263.826672 
L 159.713288 190.108711 
L 160.363899 254.236298 
L 161.014509 230.000862 
L 161.665119 220.582991 
L 162.31573 177.644507 
L 162.96634 232.292387 
L 163.61695 262.544219 
L 164.267561 285.062802 
L 164.918171 226.166955 
L 165.568781 234.33103 
L 166.219392 258.537774 
L 166.870002 262.801041 
L 167.520612 181.258012 
L 168.171222 208.504685 
L 168.821833 294.925847 
L 169.472443 176.085215 
L 170.123053 199.921169 
L 170.773664 272.245599 
L 171.424274 247.537266 
L 172.074884 197.134655 
L 172.725495 293.102986 
L 173.376105 185.960912 
L 174.026715 142.553071 
L 174.677326 263.880203 
L 175.327936 239.209675 
L 175.978546 205.723568 
L 176.629156 224.011855 
L 177.279767 154.328238 
L 177.930377 156.402047 
L 178.580987 213.826699 
L 179.231598 220.491856 
L 179.882208 235.821391 
L 180.532818 142.724839 
L 181.183429 206.851661 
L 182.484649 269.291856 
L 183.13526 173.912803 
L 183.78587 224.011963 
L 184.43648 260.815032 
L 185.087091 227.12418 
L 185.737701 232.732117 
L 186.388311 250.462229 
L 187.038921 256.926451 
L 187.689532 290.073283 
L 188.340142 158.614559 
L 188.990752 238.017962 
L 189.641363 254.914416 
L 190.291973 241.666921 
L 190.942583 253.113212 
L 191.593194 168.956796 
L 192.243804 256.818641 
L 193.545025 149.268498 
L 194.195635 243.852601 
L 194.846245 224.987342 
L 195.496856 231.907521 
L 196.147466 202.865966 
L 196.798076 251.260876 
L 197.448686 253.997088 
L 198.099297 207.089539 
L 198.749907 208.229488 
L 199.400517 167.779807 
L 200.051128 264.608732 
L 200.701738 174.715135 
L 201.352348 200.499513 
L 202.002959 169.158666 
L 202.653569 288.920881 
L 203.304179 226.90976 
L 203.95479 222.171653 
L 204.6054 276.592298 
L 205.25601 192.996697 
L 205.906621 210.204976 
L 206.557231 209.064775 
L 207.207841 191.885204 
L 207.858451 168.282483 
L 208.509062 206.585241 
L 209.159672 207.187095 
L 209.810282 183.979622 
L 210.460893 228.004345 
L 211.111503 293.350767 
L 211.762113 262.014646 
L 212.412724 210.960529 
L 213.063334 209.633937 
L 213.713944 239.372556 
L 214.364555 175.312846 
L 215.015165 294.537893 
L 216.316385 227.794453 
L 216.966996 259.707168 
L 217.617606 244.684844 
L 218.268216 145.232414 
L 218.918827 167.623283 
L 219.569437 221.57649 
L 220.220047 204.198499 
L 220.870658 183.756473 
L 221.521268 178.093616 
L 222.171878 291.354288 
L 222.822489 228.960664 
L 224.123709 203.988239 
L 224.77432 187.309125 
L 225.42493 192.024828 
L 226.07554 166.843754 
L 226.72615 181.433614 
L 227.376761 271.795828 
L 228.027371 207.927786 
L 228.677981 204.066392 
L 229.328592 203.933422 
L 229.979202 228.971915 
L 230.629812 116.491974 
L 231.280423 221.065703 
L 231.931033 189.223716 
L 232.581643 223.472534 
L 233.232254 239.051612 
L 233.882864 162.45707 
L 234.533474 191.543194 
L 235.184085 256.355249 
L 235.834695 219.126817 
L 236.485305 225.289679 
L 237.135915 210.637155 
L 237.786526 184.727478 
L 238.437136 241.851366 
L 239.087746 236.032025 
L 239.738357 238.277585 
L 240.388967 253.151749 
L 241.039577 123.363943 
L 241.690188 167.306655 
L 242.340798 229.178517 
L 242.991408 228.694019 
L 243.642019 200.232371 
L 244.292629 165.570649 
L 244.943239 177.850415 
L 245.59385 240.755026 
L 246.24446 187.640301 
L 246.89507 293.81453 
L 247.54568 208.731118 
L 248.196291 221.996879 
L 248.846901 247.383714 
L 249.497511 294.857988 
L 250.148122 229.848212 
L 250.798732 148.108471 
L 251.449342 223.664095 
L 252.099953 265.610295 
L 252.750563 264.608131 
L 253.401173 206.721115 
L 254.051784 176.498017 
L 254.702394 278.747293 
L 255.353004 198.115025 
L 256.003615 207.388531 
L 256.654225 153.429207 
L 257.304835 253.167869 
L 257.955445 248.381065 
L 258.606056 220.115338 
L 259.256666 257.491558 
L 259.907276 199.118013 
L 260.557887 160.394902 
L 261.208497 265.341299 
L 262.509718 255.009315 
L 263.160328 245.409218 
L 263.810938 201.881255 
L 264.461549 166.154262 
L 265.112159 228.069091 
L 265.762769 277.605053 
L 266.413379 265.566966 
L 267.7146 216.375538 
L 268.36521 281.85627 
L 269.015821 143.192781 
L 269.666431 214.337152 
L 270.317041 238.447562 
L 270.967652 154.142484 
L 271.618262 265.495851 
L 272.268872 184.378253 
L 273.570093 253.955549 
L 274.220703 216.745099 
L 274.871314 264.165538 
L 275.521924 230.57071 
L 276.172534 232.44365 
L 277.473755 205.471554 
L 278.124365 229.399336 
L 278.774975 196.413634 
L 279.425586 209.434874 
L 280.076196 209.86859 
L 280.726806 244.051054 
L 281.377417 230.066323 
L 282.028027 261.210615 
L 282.678637 236.868055 
L 283.329248 185.053528 
L 283.979858 154.05158 
L 284.630468 252.445608 
L 285.281079 293.720065 
L 285.931689 265.180891 
L 286.582299 244.973219 
L 287.232909 208.993551 
L 287.88352 179.209709 
L 288.53413 209.549472 
L 289.18474 202.395694 
L 289.835351 236.811305 
L 290.485961 203.798444 
L 291.136571 209.052318 
L 291.787182 282.972139 
L 292.437792 264.32541 
L 293.088402 161.872029 
L 293.739013 294.085881 
L 294.389623 228.708247 
L 295.040233 188.008206 
L 295.690844 160.796429 
L 296.341454 168.834804 
L 296.992064 254.372331 
L 297.642674 235.494156 
L 298.293285 163.009877 
L 298.943895 145.567823 
L 299.594505 136.050064 
L 300.245116 154.860573 
L 300.895726 157.130397 
L 301.546336 133.741395 
L 302.196947 120.773354 
L 302.847557 142.934804 
L 303.498167 113.575479 
L 304.148778 96.049683 
L 304.799388 119.183895 
L 305.449998 93.332844 
L 306.100608 137.663155 
L 306.751219 88.174046 
L 307.401829 116.228178 
L 308.052439 165.681844 
L 308.70305 110.771198 
L 309.35366 103.048262 
L 310.00427 57.691745 
L 310.654881 203.91316 
L 311.305491 146.467395 
L 311.956101 62.666614 
L 312.606712 113.435664 
L 313.257322 125.98937 
L 313.907932 167.989243 
L 314.558543 117.82852 
L 315.859763 141.620127 
L 316.510373 78.651536 
L 317.160984 103.528315 
L 317.811594 162.587169 
L 318.462204 53.590975 
L 319.112815 53.568 
L 319.763425 129.949809 
L 320.414035 90.315355 
L 321.064646 116.989819 
L 321.715256 211.81743 
L 322.365866 155.787551 
L 323.016477 55.948912 
L 323.667087 184.823788 
L 324.968308 126.650086 
L 325.618918 234.767377 
L 326.269528 186.00526 
L 326.920138 193.075541 
L 327.570749 173.090261 
L 328.221359 139.258133 
L 328.871969 155.180749 
L 329.52258 84.223057 
L 330.17319 181.76209 
L 330.8238 147.33416 
L 331.474411 121.273084 
L 332.125021 145.833803 
L 332.775631 107.879803 
L 333.426242 135.36732 
L 334.076852 111.980324 
L 334.727462 112.160738 
L 335.378073 55.435582 
L 336.028683 92.897209 
L 336.679293 156.129383 
L 337.329903 203.431754 
L 337.980514 101.995764 
L 338.631124 88.029639 
L 339.281734 169.291153 
L 339.932345 115.276809 
L 340.582955 133.103378 
L 341.884176 84.954833 
L 342.534786 174.832422 
L 343.185396 182.907672 
L 343.836007 136.5208 
L 344.486617 180.151036 
L 345.137227 175.027998 
L 345.787837 198.634553 
L 346.438448 116.669488 
L 347.089058 145.83736 
L 347.739668 107.035557 
L 348.390279 156.189396 
L 349.040889 128.359673 
L 349.691499 72.701652 
L 350.34211 136.255684 
L 350.99272 94.933719 
L 351.64333 80.235162 
L 352.293941 178.655287 
L 352.944551 178.625854 
L 353.595161 158.353662 
L 354.245772 121.010404 
L 354.896382 141.732673 
L 355.546992 115.46114 
L 356.197602 121.288938 
L 356.848213 60.381039 
L 357.498823 91.743919 
L 358.149433 154.726038 
L 358.800044 131.232512 
L 359.450654 129.105072 
L 360.101264 123.624285 
L 360.751875 126.9794 
L 361.402485 147.74006 
L 362.053095 89.659054 
L 362.703706 102.340857 
L 363.354316 168.2167 
L 364.004926 100.968912 
L 364.655537 176.338381 
L 365.306147 146.417261 
L 365.956757 100.653895 
L 366.607367 147.631076 
L 367.257978 85.44028 
L 367.908588 191.381142 
L 368.559198 61.550901 
L 369.209809 105.871435 
L 369.860419 118.76274 
L 370.511029 83.535356 
L 371.16164 116.49668 
L 371.81225 100.58877 
L 372.46286 114.010998 
L 373.113471 101.591264 
L 373.764081 133.681587 
L 374.414691 107.419939 
L 375.065302 64.785436 
L 376.366522 171.77922 
L 377.017132 103.552397 
L 377.667743 171.150086 
L 378.318353 155.76183 
L 378.968963 149.635594 
L 379.619574 103.059651 
L 380.270184 132.87785 
L 380.920794 249.06409 
L 381.571405 214.569956 
L 382.222015 236.062367 
L 382.872625 180.603997 
L 383.523236 281.626028 
L 384.173846 206.713519 
L 384.824456 231.803324 
L 385.475066 225.722686 
L 386.125677 223.499988 
L 386.776287 277.665187 
L 387.426897 253.180819 
L 388.077508 170.589831 
L 388.728118 185.068205 
L 389.378728 249.732066 
L 390.029339 223.137897 
L 390.679949 185.27755 
L 391.330559 277.202992 
L 391.98117 257.802639 
L 392.63178 233.89176 
L 393.28239 191.568763 
L 393.933001 285.598507 
L 394.583611 194.084607 
L 395.884831 291.735181 
L 397.186052 149.210473 
L 397.836662 291.86082 
L 398.487273 239.033979 
L 398.487273 239.033979 
" clip-path="url(#pfe3a540eab)" style="fill: none; stroke: #1f77b4; stroke-width: 1.5; stroke-linecap: square"/>
   </g>
   <g id="patch_3">
    <path d="M 57.6 307.584 
L 57.6 41.472 
" style="fill: none; stroke: #000000; stroke-width: 0.8; stroke-linejoin: miter; stroke-linecap: square"/>
   </g>
   <g id="patch_4">
    <path d="M 414.72 307.584 
L 414.72 41.472 
" style="fill: none; stroke: #000000; stroke-width: 0.8; stroke-linejoin: miter; stroke-linecap: square"/>
   </g>
   <g id="patch_5">
    <path d="M 57.6 307.584 
L 414.72 307.584 
" style="fill: none; stroke: #000000; stroke-width: 0.8; stroke-linejoin: miter; stroke-linecap: square"/>
   </g>
   <g id="patch_6">
    <path d="M 57.6 41.472 
L 414.72 41.472 
" style="fill: none; stroke: #000000; stroke-width: 0.8; stroke-linejoin: miter; stroke-linecap: square"/>
   </g>
  </g>
 </g>
 <defs>
  <clipPath id="pfe3a540eab">
   <rect x="57.6" y="41.472" width="357.12" height="266.112"/>
  </clipPath>
 </defs>
</svg>
