<?xml version="1.0" encoding="utf-8" standalone="no"?>
<!DOCTYPE svg PUBLIC "-//W3C//DTD SVG 1.1//EN"
  "http://www.w3.org/Graphics/SVG/1.1/DTD/svg11.dtd">
<svg xmlns:xlink="http://www.w3.org/1999/xlink" width="460.8pt" height="345.6pt" viewBox="0 0 460.8 345.6" xmlns="http://www.w3.org/2000/svg" version="1.1">
 <metadata>
  <rdf:RDF xmlns:dc="http://purl.org/dc/elements/1.1/" xmlns:cc="http://creativecommons.org/ns#" xmlns:rdf="http://www.w3.org/1999/02/22-rdf-syntax-ns#">
   <cc:Work>
    <dc:type rdf:resource="http://purl.org/dc/dcmitype/StillImage"/>
    <dc:date>2024-04-17T21:39:02.057064</dc:date>
    <dc:format>image/svg+xml</dc:format>
    <dc:creator>
     <cc:Agent>
      <dc:title>Matplotlib v3.7.2, https://matplotlib.org/</dc:title>
     </cc:Agent>
    </dc:creator>
   </cc:Work>
  </rdf:RDF>
 </metadata>
 <defs>
  <style type="text/css">*{stroke-linejoin: round; stroke-linecap: butt}</style>
 </defs>
 <g id="figure_1">
  <g id="patch_1">
   <path d="M 0 345.6 
L 460.8 345.6 
L 460.8 0 
L 0 0 
z
" style="fill: #ffffff"/>
  </g>
  <g id="axes_1">
   <g id="patch_2">
    <path d="M 57.6 307.584 
L 414.72 307.584 
L 414.72 41.472 
L 57.6 41.472 
z
" style="fill: #ffffff"/>
   </g>
   <g id="matplotlib.axis_1">
    <g id="xtick_1">
     <g id="line2d_1">
      <defs>
       <path id="ma9d67278d0" d="M 0 0 
L 0 3.5 
" style="stroke: #000000; stroke-width: 0.8"/>
      </defs>
      <g>
       <use xlink:href="#ma9d67278d0" x="73.832727" y="307.584" style="stroke: #000000; stroke-width: 0.8"/>
      </g>
     </g>
     <g id="text_1">
      <!-- 0 -->
      <g transform="translate(70.651477 322.182437) scale(0.1 -0.1)">
       <defs>
        <path id="DejaVuSans-30" d="M 2034 4250 
Q 1547 4250 1301 3770 
Q 1056 3291 1056 2328 
Q 1056 1369 1301 889 
Q 1547 409 2034 409 
Q 2525 409 2770 889 
Q 3016 1369 3016 2328 
Q 3016 3291 2770 3770 
Q 2525 4250 2034 4250 
z
M 2034 4750 
Q 2819 4750 3233 4129 
Q 3647 3509 3647 2328 
Q 3647 1150 3233 529 
Q 2819 -91 2034 -91 
Q 1250 -91 836 529 
Q 422 1150 422 2328 
Q 422 3509 836 4129 
Q 1250 4750 2034 4750 
z
" transform="scale(0.015625)"/>
       </defs>
       <use xlink:href="#DejaVuSans-30"/>
      </g>
     </g>
    </g>
    <g id="xtick_2">
     <g id="line2d_2">
      <g>
       <use xlink:href="#ma9d67278d0" x="138.828632" y="307.584" style="stroke: #000000; stroke-width: 0.8"/>
      </g>
     </g>
     <g id="text_2">
      <!-- 200 -->
      <g transform="translate(129.284882 322.182437) scale(0.1 -0.1)">
       <defs>
        <path id="DejaVuSans-32" d="M 1228 531 
L 3431 531 
L 3431 0 
L 469 0 
L 469 531 
Q 828 903 1448 1529 
Q 2069 2156 2228 2338 
Q 2531 2678 2651 2914 
Q 2772 3150 2772 3378 
Q 2772 3750 2511 3984 
Q 2250 4219 1831 4219 
Q 1534 4219 1204 4116 
Q 875 4013 500 3803 
L 500 4441 
Q 881 4594 1212 4672 
Q 1544 4750 1819 4750 
Q 2544 4750 2975 4387 
Q 3406 4025 3406 3419 
Q 3406 3131 3298 2873 
Q 3191 2616 2906 2266 
Q 2828 2175 2409 1742 
Q 1991 1309 1228 531 
z
" transform="scale(0.015625)"/>
       </defs>
       <use xlink:href="#DejaVuSans-32"/>
       <use xlink:href="#DejaVuSans-30" x="63.623047"/>
       <use xlink:href="#DejaVuSans-30" x="127.246094"/>
      </g>
     </g>
    </g>
    <g id="xtick_3">
     <g id="line2d_3">
      <g>
       <use xlink:href="#ma9d67278d0" x="203.824537" y="307.584" style="stroke: #000000; stroke-width: 0.8"/>
      </g>
     </g>
     <g id="text_3">
      <!-- 400 -->
      <g transform="translate(194.280787 322.182437) scale(0.1 -0.1)">
       <defs>
        <path id="DejaVuSans-34" d="M 2419 4116 
L 825 1625 
L 2419 1625 
L 2419 4116 
z
M 2253 4666 
L 3047 4666 
L 3047 1625 
L 3713 1625 
L 3713 1100 
L 3047 1100 
L 3047 0 
L 2419 0 
L 2419 1100 
L 313 1100 
L 313 1709 
L 2253 4666 
z
" transform="scale(0.015625)"/>
       </defs>
       <use xlink:href="#DejaVuSans-34"/>
       <use xlink:href="#DejaVuSans-30" x="63.623047"/>
       <use xlink:href="#DejaVuSans-30" x="127.246094"/>
      </g>
     </g>
    </g>
    <g id="xtick_4">
     <g id="line2d_4">
      <g>
       <use xlink:href="#ma9d67278d0" x="268.820442" y="307.584" style="stroke: #000000; stroke-width: 0.8"/>
      </g>
     </g>
     <g id="text_4">
      <!-- 600 -->
      <g transform="translate(259.276692 322.182437) scale(0.1 -0.1)">
       <defs>
        <path id="DejaVuSans-36" d="M 2113 2584 
Q 1688 2584 1439 2293 
Q 1191 2003 1191 1497 
Q 1191 994 1439 701 
Q 1688 409 2113 409 
Q 2538 409 2786 701 
Q 3034 994 3034 1497 
Q 3034 2003 2786 2293 
Q 2538 2584 2113 2584 
z
M 3366 4563 
L 3366 3988 
Q 3128 4100 2886 4159 
Q 2644 4219 2406 4219 
Q 1781 4219 1451 3797 
Q 1122 3375 1075 2522 
Q 1259 2794 1537 2939 
Q 1816 3084 2150 3084 
Q 2853 3084 3261 2657 
Q 3669 2231 3669 1497 
Q 3669 778 3244 343 
Q 2819 -91 2113 -91 
Q 1303 -91 875 529 
Q 447 1150 447 2328 
Q 447 3434 972 4092 
Q 1497 4750 2381 4750 
Q 2619 4750 2861 4703 
Q 3103 4656 3366 4563 
z
" transform="scale(0.015625)"/>
       </defs>
       <use xlink:href="#DejaVuSans-36"/>
       <use xlink:href="#DejaVuSans-30" x="63.623047"/>
       <use xlink:href="#DejaVuSans-30" x="127.246094"/>
      </g>
     </g>
    </g>
    <g id="xtick_5">
     <g id="line2d_5">
      <g>
       <use xlink:href="#ma9d67278d0" x="333.816347" y="307.584" style="stroke: #000000; stroke-width: 0.8"/>
      </g>
     </g>
     <g id="text_5">
      <!-- 800 -->
      <g transform="translate(324.272597 322.182437) scale(0.1 -0.1)">
       <defs>
        <path id="DejaVuSans-38" d="M 2034 2216 
Q 1584 2216 1326 1975 
Q 1069 1734 1069 1313 
Q 1069 891 1326 650 
Q 1584 409 2034 409 
Q 2484 409 2743 651 
Q 3003 894 3003 1313 
Q 3003 1734 2745 1975 
Q 2488 2216 2034 2216 
z
M 1403 2484 
Q 997 2584 770 2862 
Q 544 3141 544 3541 
Q 544 4100 942 4425 
Q 1341 4750 2034 4750 
Q 2731 4750 3128 4425 
Q 3525 4100 3525 3541 
Q 3525 3141 3298 2862 
Q 3072 2584 2669 2484 
Q 3125 2378 3379 2068 
Q 3634 1759 3634 1313 
Q 3634 634 3220 271 
Q 2806 -91 2034 -91 
Q 1263 -91 848 271 
Q 434 634 434 1313 
Q 434 1759 690 2068 
Q 947 2378 1403 2484 
z
M 1172 3481 
Q 1172 3119 1398 2916 
Q 1625 2713 2034 2713 
Q 2441 2713 2670 2916 
Q 2900 3119 2900 3481 
Q 2900 3844 2670 4047 
Q 2441 4250 2034 4250 
Q 1625 4250 1398 4047 
Q 1172 3844 1172 3481 
z
" transform="scale(0.015625)"/>
       </defs>
       <use xlink:href="#DejaVuSans-38"/>
       <use xlink:href="#DejaVuSans-30" x="63.623047"/>
       <use xlink:href="#DejaVuSans-30" x="127.246094"/>
      </g>
     </g>
    </g>
    <g id="xtick_6">
     <g id="line2d_6">
      <g>
       <use xlink:href="#ma9d67278d0" x="398.812252" y="307.584" style="stroke: #000000; stroke-width: 0.8"/>
      </g>
     </g>
     <g id="text_6">
      <!-- 1000 -->
      <g transform="translate(386.087252 322.182437) scale(0.1 -0.1)">
       <defs>
        <path id="DejaVuSans-31" d="M 794 531 
L 1825 531 
L 1825 4091 
L 703 3866 
L 703 4441 
L 1819 4666 
L 2450 4666 
L 2450 531 
L 3481 531 
L 3481 0 
L 794 0 
L 794 531 
z
" transform="scale(0.015625)"/>
       </defs>
       <use xlink:href="#DejaVuSans-31"/>
       <use xlink:href="#DejaVuSans-30" x="63.623047"/>
       <use xlink:href="#DejaVuSans-30" x="127.246094"/>
       <use xlink:href="#DejaVuSans-30" x="190.869141"/>
      </g>
     </g>
    </g>
   </g>
   <g id="matplotlib.axis_2">
    <g id="ytick_1">
     <g id="line2d_7">
      <defs>
       <path id="mf740c1f57c" d="M 0 0 
L -3.5 0 
" style="stroke: #000000; stroke-width: 0.8"/>
      </defs>
      <g>
       <use xlink:href="#mf740c1f57c" x="57.6" y="297.510355" style="stroke: #000000; stroke-width: 0.8"/>
      </g>
     </g>
     <g id="text_7">
      <!-- 0 -->
      <g transform="translate(44.2375 301.309574) scale(0.1 -0.1)">
       <use xlink:href="#DejaVuSans-30"/>
      </g>
     </g>
    </g>
    <g id="ytick_2">
     <g id="line2d_8">
      <g>
       <use xlink:href="#mf740c1f57c" x="57.6" y="240.966993" style="stroke: #000000; stroke-width: 0.8"/>
      </g>
     </g>
     <g id="text_8">
      <!-- 1000 -->
      <g transform="translate(25.15 244.766212) scale(0.1 -0.1)">
       <use xlink:href="#DejaVuSans-31"/>
       <use xlink:href="#DejaVuSans-30" x="63.623047"/>
       <use xlink:href="#DejaVuSans-30" x="127.246094"/>
       <use xlink:href="#DejaVuSans-30" x="190.869141"/>
      </g>
     </g>
    </g>
    <g id="ytick_3">
     <g id="line2d_9">
      <g>
       <use xlink:href="#mf740c1f57c" x="57.6" y="184.423631" style="stroke: #000000; stroke-width: 0.8"/>
      </g>
     </g>
     <g id="text_9">
      <!-- 2000 -->
      <g transform="translate(25.15 188.22285) scale(0.1 -0.1)">
       <use xlink:href="#DejaVuSans-32"/>
       <use xlink:href="#DejaVuSans-30" x="63.623047"/>
       <use xlink:href="#DejaVuSans-30" x="127.246094"/>
       <use xlink:href="#DejaVuSans-30" x="190.869141"/>
      </g>
     </g>
    </g>
    <g id="ytick_4">
     <g id="line2d_10">
      <g>
       <use xlink:href="#mf740c1f57c" x="57.6" y="127.880269" style="stroke: #000000; stroke-width: 0.8"/>
      </g>
     </g>
     <g id="text_10">
      <!-- 3000 -->
      <g transform="translate(25.15 131.679488) scale(0.1 -0.1)">
       <defs>
        <path id="DejaVuSans-33" d="M 2597 2516 
Q 3050 2419 3304 2112 
Q 3559 1806 3559 1356 
Q 3559 666 3084 287 
Q 2609 -91 1734 -91 
Q 1441 -91 1130 -33 
Q 819 25 488 141 
L 488 750 
Q 750 597 1062 519 
Q 1375 441 1716 441 
Q 2309 441 2620 675 
Q 2931 909 2931 1356 
Q 2931 1769 2642 2001 
Q 2353 2234 1838 2234 
L 1294 2234 
L 1294 2753 
L 1863 2753 
Q 2328 2753 2575 2939 
Q 2822 3125 2822 3475 
Q 2822 3834 2567 4026 
Q 2313 4219 1838 4219 
Q 1578 4219 1281 4162 
Q 984 4106 628 3988 
L 628 4550 
Q 988 4650 1302 4700 
Q 1616 4750 1894 4750 
Q 2613 4750 3031 4423 
Q 3450 4097 3450 3541 
Q 3450 3153 3228 2886 
Q 3006 2619 2597 2516 
z
" transform="scale(0.015625)"/>
       </defs>
       <use xlink:href="#DejaVuSans-33"/>
       <use xlink:href="#DejaVuSans-30" x="63.623047"/>
       <use xlink:href="#DejaVuSans-30" x="127.246094"/>
       <use xlink:href="#DejaVuSans-30" x="190.869141"/>
      </g>
     </g>
    </g>
    <g id="ytick_5">
     <g id="line2d_11">
      <g>
       <use xlink:href="#mf740c1f57c" x="57.6" y="71.336907" style="stroke: #000000; stroke-width: 0.8"/>
      </g>
     </g>
     <g id="text_11">
      <!-- 4000 -->
      <g transform="translate(25.15 75.136126) scale(0.1 -0.1)">
       <use xlink:href="#DejaVuSans-34"/>
       <use xlink:href="#DejaVuSans-30" x="63.623047"/>
       <use xlink:href="#DejaVuSans-30" x="127.246094"/>
       <use xlink:href="#DejaVuSans-30" x="190.869141"/>
      </g>
     </g>
    </g>
   </g>
   <g id="line2d_12">
    <path d="M 73.832727 216.289178 
L 74.157707 123.660124 
L 74.807666 249.859138 
L 75.132645 271.176822 
L 75.457625 284.689666 
L 75.782604 154.994647 
L 76.107584 85.919292 
L 76.432563 231.625178 
L 76.757543 224.115711 
L 77.082523 259.163878 
L 77.407502 263.635929 
L 77.732482 274.233693 
L 78.057461 183.80851 
L 78.382441 261.624387 
L 79.357379 220.111373 
L 79.682359 292.610907 
L 80.007338 180.535855 
L 80.332318 268.787263 
L 80.657297 274.409101 
L 80.982277 263.449553 
L 81.307256 223.832836 
L 81.632236 233.436085 
L 81.957215 292.797369 
L 82.282195 252.920465 
L 82.607174 240.899971 
L 82.932154 210.439432 
L 83.257133 258.352898 
L 83.582113 238.377589 
L 83.907093 245.935854 
L 84.232072 249.228041 
L 84.557052 178.512897 
L 84.882031 292.872625 
L 85.207011 260.602561 
L 85.53199 254.12968 
L 85.85697 292.324315 
L 86.181949 224.905959 
L 86.506929 250.95153 
L 86.831908 226.369428 
L 87.156888 212.075177 
L 87.481867 262.774606 
L 87.806847 258.355251 
L 88.131826 176.920393 
L 88.456806 265.348356 
L 88.781785 196.808031 
L 89.106765 263.920254 
L 89.431744 151.658234 
L 89.756724 243.142837 
L 90.081704 219.926211 
L 90.406683 230.890857 
L 90.731663 236.233388 
L 91.056642 169.224341 
L 91.381622 217.812655 
L 91.706601 247.558445 
L 92.031581 265.574711 
L 92.35656 231.77591 
L 92.68154 153.51331 
L 93.006519 188.068574 
L 93.331499 294.36118 
L 93.981458 257.240819 
L 94.306437 217.921137 
L 94.631417 238.752851 
L 94.956396 237.444464 
L 95.281376 252.857615 
L 95.606355 181.85106 
L 95.931335 290.136212 
L 96.256314 263.913565 
L 96.581294 209.779927 
L 96.906274 231.806119 
L 97.231253 287.099449 
L 97.556233 215.02547 
L 97.881212 266.435571 
L 98.206192 283.316986 
L 98.531171 209.275915 
L 98.856151 211.054162 
L 99.18113 207.000353 
L 99.50611 216.112747 
L 99.831089 252.549769 
L 100.156069 175.378154 
L 100.481048 253.633812 
L 100.806028 139.451883 
L 101.131007 204.910676 
L 101.455987 198.318357 
L 101.780966 238.434651 
L 102.105946 199.957861 
L 102.430925 292.292111 
L 102.755905 237.739739 
L 103.080885 237.196912 
L 103.405864 236.003695 
L 104.055823 286.547458 
L 104.380803 220.185866 
L 104.705782 294.295005 
L 105.030762 272.034228 
L 105.355741 221.179756 
L 105.680721 204.803623 
L 106.0057 266.132875 
L 106.33068 288.562007 
L 106.655659 293.407976 
L 107.305618 233.18728 
L 107.630598 291.881323 
L 107.955577 205.241191 
L 108.280557 290.183149 
L 108.605536 223.232001 
L 108.930516 266.270902 
L 109.255495 292.037155 
L 109.580475 236.71678 
L 109.905455 266.730806 
L 110.230434 237.911922 
L 110.555414 264.421841 
L 110.880393 273.929546 
L 111.205373 274.917481 
L 111.530352 241.366612 
L 111.855332 271.193945 
L 112.180311 161.411586 
L 112.505291 292.558754 
L 112.83027 252.662748 
L 113.15525 235.132266 
L 113.480229 209.943558 
L 113.805209 247.750932 
L 114.130188 209.498364 
L 114.455168 265.142958 
L 114.780147 241.413413 
L 115.105127 260.374367 
L 115.430106 259.195622 
L 115.755086 292.65632 
L 116.405045 225.897218 
L 116.730025 261.165207 
L 117.055004 263.260141 
L 117.379984 222.956253 
L 117.704963 262.492749 
L 118.029943 275.654174 
L 118.354922 237.006775 
L 118.679902 249.719404 
L 119.004881 292.664797 
L 119.329861 265.306426 
L 119.65484 252.367298 
L 119.97982 200.15701 
L 120.304799 265.083038 
L 120.629779 278.288243 
L 120.954758 272.500919 
L 121.279738 231.618261 
L 121.604717 223.379075 
L 121.929697 227.994848 
L 122.254676 292.211298 
L 122.579656 252.056445 
L 122.904636 290.746835 
L 123.229615 221.93287 
L 123.554595 295.488 
L 123.879574 230.059627 
L 124.204554 293.379779 
L 124.854513 230.536545 
L 125.179492 247.491259 
L 125.504472 295.144677 
L 125.829451 202.543557 
L 126.154431 255.641209 
L 126.47941 262.212796 
L 126.80439 289.421522 
L 127.129369 207.447038 
L 127.454349 277.993396 
L 127.779328 227.247751 
L 128.104308 214.668404 
L 128.754267 244.488082 
L 129.079247 193.167251 
L 129.404226 248.07623 
L 129.729206 232.784319 
L 130.054185 241.748669 
L 130.379165 293.551465 
L 130.704144 292.844267 
L 131.029124 264.52771 
L 131.354103 216.989992 
L 131.679083 236.646943 
L 132.004062 291.61399 
L 132.329042 263.617108 
L 132.654021 259.716581 
L 132.979001 63.750484 
L 133.30398 283.341282 
L 133.953939 64.081828 
L 134.278919 265.175518 
L 134.603898 217.345674 
L 134.928878 230.111231 
L 135.253857 255.278947 
L 135.578837 63.788651 
L 135.903817 234.637454 
L 136.228796 292.142636 
L 136.553776 224.260722 
L 136.878755 271.450525 
L 137.203735 58.502977 
L 137.528714 266.220091 
L 137.853694 266.988509 
L 138.178673 65.391054 
L 138.503653 264.355789 
L 139.153612 68.52473 
L 139.478591 207.785885 
L 139.803571 237.543678 
L 140.12855 212.366694 
L 140.45353 246.234211 
L 140.778509 252.683933 
L 141.103489 240.055927 
L 141.428468 63.662842 
L 141.753448 220.39893 
L 142.078428 234.036461 
L 142.403407 280.820325 
L 142.728387 226.262804 
L 143.053366 230.609178 
L 143.378346 256.780263 
L 143.703325 252.790523 
L 144.028305 237.576485 
L 144.353284 213.672723 
L 144.678264 164.608223 
L 145.003243 261.746899 
L 145.328223 264.157874 
L 145.653202 245.354589 
L 145.978182 264.089797 
L 146.303161 210.765757 
L 146.628141 271.336988 
L 146.95312 87.658714 
L 147.2781 292.028935 
L 147.603079 281.103296 
L 147.928059 237.329451 
L 148.253038 213.743236 
L 148.578018 251.801103 
L 148.902998 222.732172 
L 149.227977 242.780062 
L 149.552957 210.045592 
L 149.877936 261.887393 
L 150.202916 238.054744 
L 150.527895 235.388251 
L 150.852875 287.391782 
L 151.177854 267.062274 
L 151.502834 228.834899 
L 151.827813 259.452897 
L 152.152793 195.39548 
L 152.477772 207.930815 
L 152.802752 267.312736 
L 153.127731 237.447109 
L 153.77769 260.616489 
L 154.427649 215.432705 
L 154.752629 63.967328 
L 155.077609 208.354487 
L 155.402588 53.568 
L 155.727568 262.074148 
L 156.052547 265.758092 
L 156.377527 138.831691 
L 156.702506 264.229669 
L 157.027486 292.867609 
L 157.352465 270.476904 
L 157.677445 288.729658 
L 158.002424 261.002352 
L 158.327404 223.244631 
L 158.652383 243.368555 
L 158.977363 251.361363 
L 159.302342 266.932704 
L 159.627322 292.178781 
L 159.952301 224.816931 
L 160.277281 238.272141 
L 160.60226 214.939193 
L 160.92724 267.139267 
L 161.252219 243.355254 
L 161.577199 291.968849 
L 161.902179 275.635441 
L 162.227158 293.775326 
L 162.552138 231.927415 
L 162.877117 225.015701 
L 163.202097 206.28806 
L 163.527076 233.280344 
L 163.852056 293.004605 
L 164.177035 236.356957 
L 164.502015 245.887487 
L 164.826994 293.413025 
L 165.151974 258.268413 
L 165.801933 235.135339 
L 166.126912 234.625525 
L 166.451892 201.124985 
L 166.776871 284.832821 
L 167.42683 204.907514 
L 167.75181 232.274554 
L 168.07679 289.820056 
L 168.401769 217.889293 
L 168.726749 203.447286 
L 169.051728 206.855366 
L 169.701687 292.393651 
L 170.026667 206.54718 
L 170.351646 292.902827 
L 170.676626 281.922556 
L 171.001605 236.518342 
L 171.326585 292.092949 
L 171.651564 231.335146 
L 171.976544 93.019873 
L 172.301523 234.985783 
L 172.626503 237.100743 
L 172.951482 292.644018 
L 173.276462 92.76571 
L 173.601441 233.235544 
L 173.926421 222.568231 
L 174.2514 263.122566 
L 174.57638 236.474499 
L 174.90136 63.837278 
L 175.226339 256.152304 
L 175.551319 291.660073 
L 175.876298 268.23032 
L 176.201278 235.8863 
L 176.851237 284.179088 
L 177.176216 203.648248 
L 177.501196 265.252601 
L 177.826175 59.447817 
L 178.151155 224.953262 
L 178.476134 266.861429 
L 178.801114 234.907082 
L 179.126093 292.947082 
L 179.451073 274.716664 
L 179.776052 93.032029 
L 180.101032 240.77308 
L 180.426011 245.062082 
L 180.750991 252.458152 
L 181.075971 78.837114 
L 181.40095 226.803108 
L 181.72593 63.863288 
L 182.050909 166.727992 
L 182.375889 229.609743 
L 182.700868 188.594801 
L 183.025848 115.899849 
L 183.350827 192.562798 
L 183.675807 92.25993 
L 184.000786 275.658547 
L 184.325766 102.378764 
L 184.650745 87.203257 
L 184.975725 87.317757 
L 185.300704 275.798247 
L 185.625684 63.901455 
L 185.950663 70.676929 
L 186.275643 275.044797 
L 186.600622 271.366312 
L 186.925602 266.166638 
L 187.250581 110.877745 
L 187.575561 92.363122 
L 187.900541 169.97029 
L 188.22552 100.535134 
L 188.5505 293.000044 
L 188.875479 280.589914 
L 189.200459 104.901746 
L 189.525438 61.819262 
L 189.850418 290.892365 
L 190.175397 63.519055 
L 190.500377 232.141692 
L 190.825356 213.798947 
L 191.150336 88.353405 
L 191.475315 76.619608 
L 192.125274 131.571232 
L 192.450254 223.004446 
L 192.775233 76.579977 
L 193.100213 228.664572 
L 193.425192 266.442357 
L 193.750172 252.40556 
L 194.075152 254.883436 
L 194.400131 87.492194 
L 194.725111 264.475961 
L 195.05009 264.811046 
L 195.37507 237.163991 
L 195.700049 234.669579 
L 196.025029 278.387753 
L 196.350008 230.072857 
L 196.674988 246.760104 
L 196.999967 175.680536 
L 197.324947 255.26548 
L 197.649926 82.038304 
L 197.974906 64.835834 
L 198.299885 81.810151 
L 198.624865 234.273436 
L 198.949844 237.685744 
L 199.274824 236.768681 
L 199.599803 293.879581 
L 199.924783 223.437626 
L 200.249762 266.636827 
L 200.574742 92.310253 
L 201.224701 243.226563 
L 201.549681 221.851159 
L 201.87466 279.335996 
L 202.19964 265.41482 
L 202.524619 210.029516 
L 202.849599 196.79201 
L 203.174578 129.546734 
L 203.499558 220.433297 
L 203.824537 84.748561 
L 204.149517 289.89272 
L 204.474496 70.817988 
L 204.799476 224.926688 
L 205.124455 290.295162 
L 205.449435 258.527318 
L 205.774414 258.09478 
L 206.099394 87.961707 
L 206.424373 238.758508 
L 206.749353 211.7852 
L 207.074333 220.772197 
L 207.399312 238.202826 
L 207.724292 221.551812 
L 208.049271 235.553258 
L 208.374251 265.531987 
L 208.69923 261.568941 
L 209.02421 234.919434 
L 209.349189 76.422134 
L 209.674169 154.152219 
L 209.999148 290.833918 
L 210.324128 186.050937 
L 210.649107 240.124135 
L 210.974087 207.365115 
L 211.299066 124.227792 
L 211.624046 87.567679 
L 211.949025 284.269556 
L 212.274005 233.031066 
L 212.598984 290.650399 
L 212.923964 284.493742 
L 213.248943 254.443294 
L 213.573923 203.992185 
L 213.898903 224.90625 
L 214.223882 237.894094 
L 214.548862 215.443149 
L 214.873841 184.357408 
L 215.198821 244.371329 
L 215.5238 237.577939 
L 216.173759 285.584488 
L 216.498739 287.434092 
L 216.823718 217.3138 
L 217.148698 245.901762 
L 217.473677 81.859852 
L 217.798657 266.97271 
L 218.123636 64.663276 
L 218.773595 203.437642 
L 219.098575 263.838976 
L 219.423554 263.661179 
L 219.748534 289.028573 
L 220.073514 92.684005 
L 220.398493 293.165389 
L 220.723473 182.133357 
L 221.048452 235.590054 
L 221.373432 237.600971 
L 221.698411 231.705832 
L 222.023391 232.200808 
L 222.34837 259.928589 
L 222.67335 237.996738 
L 222.998329 277.653712 
L 223.323309 213.967051 
L 223.648288 274.599511 
L 223.973268 237.246594 
L 224.298247 237.424198 
L 224.623227 242.61853 
L 224.948206 236.856609 
L 225.598165 266.260458 
L 226.248124 210.069885 
L 226.573104 265.107458 
L 226.898084 228.515291 
L 227.223063 238.08019 
L 227.548043 292.4412 
L 227.873022 238.921257 
L 228.198002 275.521288 
L 228.522981 266.869129 
L 228.847961 261.428105 
L 229.17294 287.580921 
L 229.49792 104.436037 
L 229.822899 201.748539 
L 230.147879 257.13733 
L 230.472858 259.206413 
L 230.797838 207.592707 
L 231.122817 284.503883 
L 231.447797 72.62834 
L 231.772776 292.668475 
L 232.097756 263.840502 
L 232.422735 292.082552 
L 233.072695 207.526408 
L 233.397674 286.841484 
L 233.722654 269.651141 
L 234.047633 215.772105 
L 234.372613 86.860604 
L 234.697592 237.015382 
L 235.022572 207.973581 
L 235.347551 234.632002 
L 235.672531 245.085711 
L 235.99751 224.634049 
L 236.32249 291.631616 
L 236.647469 98.64675 
L 236.972449 254.980497 
L 237.297428 229.399633 
L 237.622408 260.787492 
L 237.947387 129.838931 
L 238.272367 200.680413 
L 238.597346 240.445877 
L 238.922326 215.30486 
L 239.247305 293.835171 
L 239.572285 217.065038 
L 239.897265 63.929161 
L 240.222244 247.965185 
L 240.872203 290.265285 
L 241.197183 245.004372 
L 241.522162 246.095217 
L 241.847142 224.439289 
L 242.172121 282.644812 
L 242.497101 64.231951 
L 242.82208 224.11877 
L 243.14706 231.119196 
L 243.472039 64.509579 
L 243.797019 235.76067 
L 244.121998 92.792568 
L 244.446978 92.537946 
L 244.771957 210.361645 
L 245.096937 64.255416 
L 245.421916 262.168303 
L 245.746896 112.207702 
L 246.071876 289.491046 
L 246.396855 245.585796 
L 246.721835 144.152349 
L 247.046814 171.400446 
L 247.371794 209.533928 
L 247.696773 264.617428 
L 248.021753 263.885983 
L 248.346732 76.514017 
L 248.671712 229.103411 
L 248.996691 237.365864 
L 249.321671 237.732567 
L 249.64665 291.749876 
L 249.97163 91.522073 
L 250.296609 262.542493 
L 250.621589 266.35224 
L 250.946568 199.357113 
L 251.271548 276.229315 
L 251.596527 269.343615 
L 251.921507 237.734686 
L 252.246486 289.668946 
L 252.571466 63.662842 
L 252.896446 233.861906 
L 253.221425 274.397886 
L 253.546405 220.328823 
L 253.871384 268.359808 
L 254.196364 281.110634 
L 254.521343 63.816357 
L 254.846323 281.675292 
L 255.171302 228.117638 
L 255.496282 64.080132 
L 255.821261 232.680011 
L 256.146241 92.467161 
L 256.47122 189.986402 
L 256.7962 189.999011 
L 257.121179 270.604632 
L 257.446159 203.847847 
L 257.771138 197.942791 
L 258.096118 93.183848 
L 258.421097 295.27782 
L 258.746077 292.534155 
L 259.071057 259.98351 
L 259.396036 250.50102 
L 260.045995 264.401506 
L 260.370975 238.180986 
L 260.695954 265.726006 
L 261.345913 92.553955 
L 261.995872 63.977788 
L 262.320852 182.670949 
L 262.645831 238.061709 
L 262.970811 64.33175 
L 263.29579 264.16668 
L 263.62077 160.945798 
L 263.945749 241.348248 
L 264.270729 210.247446 
L 264.595708 211.347884 
L 264.920688 264.907036 
L 265.245667 274.179404 
L 265.570647 63.842367 
L 265.895627 231.964469 
L 266.220606 237.52047 
L 266.545586 159.329348 
L 266.870565 276.334097 
L 267.195545 191.972313 
L 267.520524 293.868599 
L 267.845504 236.466768 
L 268.170483 207.413619 
L 268.495463 267.272364 
L 268.820442 122.176356 
L 269.145422 82.141495 
L 269.470401 240.686391 
L 269.795381 231.253241 
L 270.770319 264.969614 
L 271.095299 63.751332 
L 271.420278 63.902303 
L 271.745258 289.028568 
L 272.070238 274.72952 
L 272.395217 176.468521 
L 272.720197 263.891678 
L 273.370156 200.796894 
L 273.695135 255.097136 
L 274.020115 274.514 
L 274.345094 237.574536 
L 274.670074 292.271524 
L 274.995053 236.286074 
L 275.320033 76.422134 
L 275.645012 291.000763 
L 275.969992 242.894523 
L 276.294971 264.502733 
L 276.619951 137.470599 
L 276.94493 124.103524 
L 277.26991 237.69252 
L 277.594889 257.217532 
L 277.919869 92.428995 
L 278.244848 64.47226 
L 278.569828 263.624361 
L 278.894808 92.629441 
L 279.219787 220.521337 
L 279.544767 207.781005 
L 279.869746 245.082956 
L 280.194726 240.13438 
L 280.519705 264.662613 
L 280.844685 263.889374 
L 281.169664 64.824525 
L 281.494644 243.43193 
L 281.819623 235.510177 
L 282.144603 235.711834 
L 282.469582 257.933704 
L 282.794562 246.98706 
L 283.119541 128.296395 
L 283.444521 174.687922 
L 283.7695 120.413958 
L 284.09448 287.188038 
L 284.419459 202.554584 
L 284.744439 154.540967 
L 285.069419 166.366384 
L 285.394398 234.941276 
L 285.719378 98.100521 
L 286.044357 264.684157 
L 286.369337 250.383358 
L 286.694316 293.525093 
L 287.019296 231.080823 
L 287.669255 252.223234 
L 287.994234 92.314494 
L 288.319214 264.425412 
L 288.644193 278.3111 
L 288.969173 233.773144 
L 289.294152 260.818728 
L 289.619132 235.370201 
L 290.269091 287.57573 
L 290.59407 207.482266 
L 290.91905 201.243566 
L 291.244029 246.934439 
L 291.569009 260.46272 
L 291.893989 160.909322 
L 292.218968 193.748247 
L 292.543948 120.026336 
L 292.868927 140.088559 
L 293.518886 238.98703 
L 293.843866 236.759723 
L 294.168845 203.965625 
L 294.493825 197.184251 
L 295.143784 263.927602 
L 295.468763 193.489028 
L 295.793743 255.768019 
L 296.118722 238.016515 
L 296.443702 210.148137 
L 296.768681 265.746404 
L 297.093661 123.015568 
L 297.41864 234.276257 
L 297.74362 92.591274 
L 298.0686 263.838954 
L 298.393579 235.428862 
L 298.718559 266.612856 
L 299.043538 238.361065 
L 299.368518 251.337051 
L 299.693497 234.753085 
L 300.018477 233.34214 
L 300.343456 263.748897 
L 300.668436 167.779803 
L 300.993415 292.699861 
L 301.318395 266.192087 
L 301.643374 206.957475 
L 301.968354 249.538149 
L 302.293333 264.727981 
L 302.618313 232.761936 
L 302.943292 238.271228 
L 303.268272 109.233832 
L 303.593251 179.883187 
L 303.918231 130.418183 
L 304.24321 288.742195 
L 304.56819 225.369542 
L 304.89317 248.836992 
L 305.218149 287.589686 
L 305.543129 64.065431 
L 305.868108 274.508211 
L 306.193088 138.658952 
L 306.518067 63.864136 
L 306.843047 247.801427 
L 307.168026 184.434951 
L 307.493006 293.987596 
L 307.817985 99.230336 
L 308.142965 213.544944 
L 308.467944 91.532311 
L 308.792924 222.861975 
L 309.117903 192.697511 
L 309.442883 287.347684 
L 309.767862 236.881387 
L 310.092842 205.320014 
L 310.417821 258.863885 
L 310.742801 187.797966 
L 311.067781 187.313406 
L 311.39276 277.648038 
L 311.71774 283.426583 
L 312.042719 263.635864 
L 312.367699 266.790009 
L 312.692678 137.67046 
L 313.017658 266.361054 
L 313.342637 162.466315 
L 313.667617 231.399876 
L 313.992596 218.677102 
L 314.317576 251.798747 
L 314.642555 243.830423 
L 314.967535 171.295702 
L 315.292514 223.042785 
L 315.617494 142.120563 
L 315.942473 234.939381 
L 316.267453 203.891844 
L 316.592432 294.036051 
L 316.917412 212.566886 
L 317.242391 92.222611 
L 317.567371 248.443131 
L 317.892351 93.032029 
L 318.21733 218.476155 
L 318.54231 236.599841 
L 318.867289 243.200218 
L 319.192269 208.561476 
L 319.517248 266.963474 
L 319.842228 238.486672 
L 320.167207 184.785593 
L 320.492187 293.636446 
L 320.817166 125.314892 
L 321.142146 236.748389 
L 321.467125 242.508956 
L 321.792105 214.565828 
L 322.117084 174.059238 
L 322.442064 201.563699 
L 322.767043 191.339416 
L 323.092023 245.348872 
L 323.417002 92.336263 
L 323.741982 248.819116 
L 324.066962 241.718204 
L 324.391941 223.056236 
L 324.716921 229.066522 
L 325.0419 166.857862 
L 325.36688 234.427605 
L 325.691859 226.587254 
L 326.016839 287.953498 
L 326.341818 208.245239 
L 326.666798 249.050937 
L 326.991777 238.628386 
L 327.316757 163.282366 
L 327.641736 169.895184 
L 327.966716 159.293325 
L 328.291695 182.869093 
L 328.616675 293.219792 
L 328.941654 208.462811 
L 329.266634 212.038867 
L 329.591613 235.955907 
L 329.916593 193.534398 
L 330.241572 235.703777 
L 330.566552 237.495703 
L 330.891532 264.049858 
L 331.216511 214.733435 
L 331.541491 59.181498 
L 331.86647 289.643752 
L 332.19145 295.047648 
L 332.516429 257.906844 
L 332.841409 237.333861 
L 333.166388 177.184386 
L 333.816347 293.880036 
L 334.141327 100.200151 
L 334.466306 256.112858 
L 334.791286 178.920378 
L 335.116265 255.392576 
L 335.441245 265.000035 
L 335.766224 224.366012 
L 336.091204 145.096998 
L 336.416183 229.007058 
L 336.741163 160.144625 
L 337.066143 140.414241 
L 337.391122 264.151165 
L 337.716102 167.657711 
L 338.041081 264.707709 
L 338.366061 229.244672 
L 339.01602 199.774965 
L 339.340999 249.495314 
L 339.665979 248.610746 
L 339.990958 236.512676 
L 340.315938 255.270572 
L 340.640917 234.051251 
L 341.290876 241.443075 
L 341.615856 265.747034 
L 341.940835 230.754244 
L 342.265815 253.86228 
L 342.590794 235.63081 
L 342.915774 263.773813 
L 343.240753 266.173432 
L 343.565733 153.168506 
L 343.890713 213.069209 
L 344.215692 203.235926 
L 344.540672 291.963641 
L 344.865651 264.110843 
L 345.190631 219.142599 
L 345.84059 280.52178 
L 346.165569 86.927325 
L 346.490549 293.808639 
L 346.815528 236.952299 
L 347.140508 234.304946 
L 347.465487 291.912335 
L 347.790467 165.944018 
L 348.115446 263.63711 
L 348.440426 291.307622 
L 348.765405 271.980726 
L 349.090385 236.681138 
L 349.415364 235.438997 
L 349.740344 182.336697 
L 350.065324 260.899116 
L 350.390303 237.425902 
L 350.715283 233.228127 
L 351.040262 86.938634 
L 351.365242 294.783564 
L 351.690221 187.327991 
L 352.015201 295.102764 
L 352.34018 202.40776 
L 352.66516 263.042285 
L 352.990139 199.165767 
L 353.315119 257.200522 
L 353.640098 86.813673 
L 353.965078 248.828165 
L 354.290057 237.109097 
L 354.615037 229.660024 
L 354.940016 233.594828 
L 355.264996 289.838026 
L 355.589975 235.472392 
L 355.914955 247.561178 
L 356.564914 286.718486 
L 356.889894 92.90622 
L 357.214873 221.802101 
L 357.539853 192.478817 
L 357.864832 264.2861 
L 358.189812 253.573258 
L 358.514791 237.597903 
L 358.839771 189.368995 
L 359.16475 92.754402 
L 359.48973 245.422077 
L 359.814709 265.131629 
L 360.139689 87.705738 
L 360.464668 118.072957 
L 360.789648 160.316736 
L 361.114627 285.447268 
L 361.439607 243.854846 
L 361.764586 241.768845 
L 362.089566 249.586836 
L 362.414545 167.736529 
L 362.739525 236.173552 
L 363.064505 101.824635 
L 363.389484 237.599318 
L 363.714464 195.252692 
L 364.039443 238.820458 
L 364.364423 259.637359 
L 364.689402 163.829439 
L 365.014382 193.209108 
L 365.339361 283.537023 
L 366.3143 227.969632 
L 366.639279 289.733823 
L 366.964259 294.463368 
L 367.289238 258.507857 
L 367.614218 292.497093 
L 368.264177 108.578012 
L 368.589156 92.542647 
L 368.914136 261.482211 
L 369.239115 294.908435 
L 369.564095 261.137229 
L 369.889075 264.578605 
L 370.214054 252.584801 
L 370.539034 117.315085 
L 370.864013 237.262832 
L 371.188993 291.678923 
L 371.513972 86.949943 
L 371.838952 289.860471 
L 372.163931 77.546726 
L 372.488911 92.417686 
L 372.81389 267.194443 
L 373.13887 287.235505 
L 373.463849 260.224186 
L 374.113808 142.843026 
L 374.438788 141.550713 
L 374.763767 236.111545 
L 375.088747 206.863629 
L 375.413726 217.71988 
L 375.738706 257.271674 
L 376.063686 223.523884 
L 376.388665 261.061467 
L 377.038624 172.752367 
L 377.363604 263.624361 
L 377.688583 198.014951 
L 378.013563 184.062467 
L 378.338542 207.673191 
L 378.663522 271.632992 
L 378.988501 259.910082 
L 379.313481 203.484154 
L 379.63846 264.463169 
L 379.96344 289.761601 
L 380.288419 186.854594 
L 380.613399 250.53575 
L 380.938378 101.734254 
L 381.263358 251.732607 
L 381.588337 211.929653 
L 382.238296 235.883702 
L 382.563276 238.538705 
L 382.888256 264.158413 
L 383.213235 261.453779 
L 383.538215 154.346466 
L 383.863194 245.390041 
L 384.188174 64.070519 
L 384.513153 110.70543 
L 384.838133 229.512566 
L 385.163112 265.916761 
L 385.488092 230.56194 
L 385.813071 146.156886 
L 386.138051 92.352661 
L 386.46303 264.588641 
L 386.78801 241.700236 
L 387.112989 200.841691 
L 387.437969 211.083837 
L 387.762948 268.181929 
L 388.087928 243.282193 
L 388.412907 264.03576 
L 388.737887 237.353687 
L 389.062867 135.596921 
L 389.387846 286.769373 
L 389.712826 131.365205 
L 390.037805 146.615176 
L 390.362785 263.899651 
L 390.687764 228.3964 
L 391.012744 240.682987 
L 391.337723 87.404551 
L 391.662703 92.20169 
L 391.987682 203.151171 
L 392.312662 138.086668 
L 392.637641 240.648965 
L 392.962621 247.604522 
L 393.2876 140.330082 
L 393.937559 265.168594 
L 394.262539 264.966312 
L 394.587518 253.135977 
L 394.912498 63.588205 
L 395.237477 263.548819 
L 395.562457 149.176885 
L 395.887437 184.779978 
L 396.212416 264.023261 
L 396.537396 99.43285 
L 396.862375 118.459036 
L 397.187355 263.965729 
L 397.512334 233.02356 
L 397.837314 263.628114 
L 398.162293 244.113677 
L 398.487273 260.48468 
L 398.487273 260.48468 
" clip-path="url(#p9870df0afa)" style="fill: none; stroke: #1f77b4; stroke-width: 1.5; stroke-linecap: square"/>
   </g>
   <g id="patch_3">
    <path d="M 57.6 307.584 
L 57.6 41.472 
" style="fill: none; stroke: #000000; stroke-width: 0.8; stroke-linejoin: miter; stroke-linecap: square"/>
   </g>
   <g id="patch_4">
    <path d="M 414.72 307.584 
L 414.72 41.472 
" style="fill: none; stroke: #000000; stroke-width: 0.8; stroke-linejoin: miter; stroke-linecap: square"/>
   </g>
   <g id="patch_5">
    <path d="M 57.6 307.584 
L 414.72 307.584 
" style="fill: none; stroke: #000000; stroke-width: 0.8; stroke-linejoin: miter; stroke-linecap: square"/>
   </g>
   <g id="patch_6">
    <path d="M 57.6 41.472 
L 414.72 41.472 
" style="fill: none; stroke: #000000; stroke-width: 0.8; stroke-linejoin: miter; stroke-linecap: square"/>
   </g>
  </g>
 </g>
 <defs>
  <clipPath id="p9870df0afa">
   <rect x="57.6" y="41.472" width="357.12" height="266.112"/>
  </clipPath>
 </defs>
</svg>
