<?xml version="1.0" encoding="utf-8" standalone="no"?>
<!DOCTYPE svg PUBLIC "-//W3C//DTD SVG 1.1//EN"
  "http://www.w3.org/Graphics/SVG/1.1/DTD/svg11.dtd">
<svg xmlns:xlink="http://www.w3.org/1999/xlink" width="720pt" height="432pt" viewBox="0 0 720 432" xmlns="http://www.w3.org/2000/svg" version="1.1">
 <metadata>
  <rdf:RDF xmlns:dc="http://purl.org/dc/elements/1.1/" xmlns:cc="http://creativecommons.org/ns#" xmlns:rdf="http://www.w3.org/1999/02/22-rdf-syntax-ns#">
   <cc:Work>
    <dc:type rdf:resource="http://purl.org/dc/dcmitype/StillImage"/>
    <dc:date>2024-05-01T18:07:56.229675</dc:date>
    <dc:format>image/svg+xml</dc:format>
    <dc:creator>
     <cc:Agent>
      <dc:title>Matplotlib v3.8.2, https://matplotlib.org/</dc:title>
     </cc:Agent>
    </dc:creator>
   </cc:Work>
  </rdf:RDF>
 </metadata>
 <defs>
  <style type="text/css">*{stroke-linejoin: round; stroke-linecap: butt}</style>
 </defs>
 <g id="figure_1">
  <g id="patch_1">
   <path d="M 0 432 
L 720 432 
L 720 0 
L 0 0 
z
" style="fill: #ffffff"/>
  </g>
  <g id="axes_1">
   <g id="patch_2">
    <path d="M 90 384.48 
L 648 384.48 
L 648 51.84 
L 90 51.84 
z
" style="fill: #ffffff"/>
   </g>
   <g id="matplotlib.axis_1">
    <g id="xtick_1">
     <g id="line2d_1">
      <path d="M 115.08899 384.48 
L 115.08899 51.84 
" clip-path="url(#p374f086f20)" style="fill: none; stroke: #808080; stroke-opacity: 0.2; stroke-linecap: square"/>
     </g>
     <g id="line2d_2">
      <defs>
       <path id="m851ca55e0f" d="M 0 0 
L 0 3.5 
" style="stroke: #000000; stroke-width: 0.8"/>
      </defs>
      <g>
       <use xlink:href="#m851ca55e0f" x="115.08899" y="384.48" style="stroke: #000000; stroke-width: 0.8"/>
      </g>
     </g>
     <g id="text_1">
      <!-- 0.0 -->
      <g transform="translate(107.137427 399.078438) scale(0.1 -0.1)">
       <defs>
        <path id="DejaVuSans-30" d="M 2034 4250 
Q 1547 4250 1301 3770 
Q 1056 3291 1056 2328 
Q 1056 1369 1301 889 
Q 1547 409 2034 409 
Q 2525 409 2770 889 
Q 3016 1369 3016 2328 
Q 3016 3291 2770 3770 
Q 2525 4250 2034 4250 
z
M 2034 4750 
Q 2819 4750 3233 4129 
Q 3647 3509 3647 2328 
Q 3647 1150 3233 529 
Q 2819 -91 2034 -91 
Q 1250 -91 836 529 
Q 422 1150 422 2328 
Q 422 3509 836 4129 
Q 1250 4750 2034 4750 
z
" transform="scale(0.015625)"/>
        <path id="DejaVuSans-2e" d="M 684 794 
L 1344 794 
L 1344 0 
L 684 0 
L 684 794 
z
" transform="scale(0.015625)"/>
       </defs>
       <use xlink:href="#DejaVuSans-30"/>
       <use xlink:href="#DejaVuSans-2e" x="63.623047"/>
       <use xlink:href="#DejaVuSans-30" x="95.410156"/>
      </g>
     </g>
    </g>
    <g id="xtick_2">
     <g id="line2d_3">
      <path d="M 183.750701 384.48 
L 183.750701 51.84 
" clip-path="url(#p374f086f20)" style="fill: none; stroke: #808080; stroke-opacity: 0.2; stroke-linecap: square"/>
     </g>
     <g id="line2d_4">
      <g>
       <use xlink:href="#m851ca55e0f" x="183.750701" y="384.48" style="stroke: #000000; stroke-width: 0.8"/>
      </g>
     </g>
     <g id="text_2">
      <!-- 0.5 -->
      <g transform="translate(175.799139 399.078438) scale(0.1 -0.1)">
       <defs>
        <path id="DejaVuSans-35" d="M 691 4666 
L 3169 4666 
L 3169 4134 
L 1269 4134 
L 1269 2991 
Q 1406 3038 1543 3061 
Q 1681 3084 1819 3084 
Q 2600 3084 3056 2656 
Q 3513 2228 3513 1497 
Q 3513 744 3044 326 
Q 2575 -91 1722 -91 
Q 1428 -91 1123 -41 
Q 819 9 494 109 
L 494 744 
Q 775 591 1075 516 
Q 1375 441 1709 441 
Q 2250 441 2565 725 
Q 2881 1009 2881 1497 
Q 2881 1984 2565 2268 
Q 2250 2553 1709 2553 
Q 1456 2553 1204 2497 
Q 953 2441 691 2322 
L 691 4666 
z
" transform="scale(0.015625)"/>
       </defs>
       <use xlink:href="#DejaVuSans-30"/>
       <use xlink:href="#DejaVuSans-2e" x="63.623047"/>
       <use xlink:href="#DejaVuSans-35" x="95.410156"/>
      </g>
     </g>
    </g>
    <g id="xtick_3">
     <g id="line2d_5">
      <path d="M 252.412413 384.48 
L 252.412413 51.84 
" clip-path="url(#p374f086f20)" style="fill: none; stroke: #808080; stroke-opacity: 0.2; stroke-linecap: square"/>
     </g>
     <g id="line2d_6">
      <g>
       <use xlink:href="#m851ca55e0f" x="252.412413" y="384.48" style="stroke: #000000; stroke-width: 0.8"/>
      </g>
     </g>
     <g id="text_3">
      <!-- 1.0 -->
      <g transform="translate(244.460851 399.078438) scale(0.1 -0.1)">
       <defs>
        <path id="DejaVuSans-31" d="M 794 531 
L 1825 531 
L 1825 4091 
L 703 3866 
L 703 4441 
L 1819 4666 
L 2450 4666 
L 2450 531 
L 3481 531 
L 3481 0 
L 794 0 
L 794 531 
z
" transform="scale(0.015625)"/>
       </defs>
       <use xlink:href="#DejaVuSans-31"/>
       <use xlink:href="#DejaVuSans-2e" x="63.623047"/>
       <use xlink:href="#DejaVuSans-30" x="95.410156"/>
      </g>
     </g>
    </g>
    <g id="xtick_4">
     <g id="line2d_7">
      <path d="M 321.074125 384.48 
L 321.074125 51.84 
" clip-path="url(#p374f086f20)" style="fill: none; stroke: #808080; stroke-opacity: 0.2; stroke-linecap: square"/>
     </g>
     <g id="line2d_8">
      <g>
       <use xlink:href="#m851ca55e0f" x="321.074125" y="384.48" style="stroke: #000000; stroke-width: 0.8"/>
      </g>
     </g>
     <g id="text_4">
      <!-- 1.5 -->
      <g transform="translate(313.122563 399.078438) scale(0.1 -0.1)">
       <use xlink:href="#DejaVuSans-31"/>
       <use xlink:href="#DejaVuSans-2e" x="63.623047"/>
       <use xlink:href="#DejaVuSans-35" x="95.410156"/>
      </g>
     </g>
    </g>
    <g id="xtick_5">
     <g id="line2d_9">
      <path d="M 389.735837 384.48 
L 389.735837 51.84 
" clip-path="url(#p374f086f20)" style="fill: none; stroke: #808080; stroke-opacity: 0.2; stroke-linecap: square"/>
     </g>
     <g id="line2d_10">
      <g>
       <use xlink:href="#m851ca55e0f" x="389.735837" y="384.48" style="stroke: #000000; stroke-width: 0.8"/>
      </g>
     </g>
     <g id="text_5">
      <!-- 2.0 -->
      <g transform="translate(381.784274 399.078438) scale(0.1 -0.1)">
       <defs>
        <path id="DejaVuSans-32" d="M 1228 531 
L 3431 531 
L 3431 0 
L 469 0 
L 469 531 
Q 828 903 1448 1529 
Q 2069 2156 2228 2338 
Q 2531 2678 2651 2914 
Q 2772 3150 2772 3378 
Q 2772 3750 2511 3984 
Q 2250 4219 1831 4219 
Q 1534 4219 1204 4116 
Q 875 4013 500 3803 
L 500 4441 
Q 881 4594 1212 4672 
Q 1544 4750 1819 4750 
Q 2544 4750 2975 4387 
Q 3406 4025 3406 3419 
Q 3406 3131 3298 2873 
Q 3191 2616 2906 2266 
Q 2828 2175 2409 1742 
Q 1991 1309 1228 531 
z
" transform="scale(0.015625)"/>
       </defs>
       <use xlink:href="#DejaVuSans-32"/>
       <use xlink:href="#DejaVuSans-2e" x="63.623047"/>
       <use xlink:href="#DejaVuSans-30" x="95.410156"/>
      </g>
     </g>
    </g>
    <g id="xtick_6">
     <g id="line2d_11">
      <path d="M 458.397549 384.48 
L 458.397549 51.84 
" clip-path="url(#p374f086f20)" style="fill: none; stroke: #808080; stroke-opacity: 0.2; stroke-linecap: square"/>
     </g>
     <g id="line2d_12">
      <g>
       <use xlink:href="#m851ca55e0f" x="458.397549" y="384.48" style="stroke: #000000; stroke-width: 0.8"/>
      </g>
     </g>
     <g id="text_6">
      <!-- 2.5 -->
      <g transform="translate(450.445986 399.078438) scale(0.1 -0.1)">
       <use xlink:href="#DejaVuSans-32"/>
       <use xlink:href="#DejaVuSans-2e" x="63.623047"/>
       <use xlink:href="#DejaVuSans-35" x="95.410156"/>
      </g>
     </g>
    </g>
    <g id="xtick_7">
     <g id="line2d_13">
      <path d="M 527.059261 384.48 
L 527.059261 51.84 
" clip-path="url(#p374f086f20)" style="fill: none; stroke: #808080; stroke-opacity: 0.2; stroke-linecap: square"/>
     </g>
     <g id="line2d_14">
      <g>
       <use xlink:href="#m851ca55e0f" x="527.059261" y="384.48" style="stroke: #000000; stroke-width: 0.8"/>
      </g>
     </g>
     <g id="text_7">
      <!-- 3.0 -->
      <g transform="translate(519.107698 399.078438) scale(0.1 -0.1)">
       <defs>
        <path id="DejaVuSans-33" d="M 2597 2516 
Q 3050 2419 3304 2112 
Q 3559 1806 3559 1356 
Q 3559 666 3084 287 
Q 2609 -91 1734 -91 
Q 1441 -91 1130 -33 
Q 819 25 488 141 
L 488 750 
Q 750 597 1062 519 
Q 1375 441 1716 441 
Q 2309 441 2620 675 
Q 2931 909 2931 1356 
Q 2931 1769 2642 2001 
Q 2353 2234 1838 2234 
L 1294 2234 
L 1294 2753 
L 1863 2753 
Q 2328 2753 2575 2939 
Q 2822 3125 2822 3475 
Q 2822 3834 2567 4026 
Q 2313 4219 1838 4219 
Q 1578 4219 1281 4162 
Q 984 4106 628 3988 
L 628 4550 
Q 988 4650 1302 4700 
Q 1616 4750 1894 4750 
Q 2613 4750 3031 4423 
Q 3450 4097 3450 3541 
Q 3450 3153 3228 2886 
Q 3006 2619 2597 2516 
z
" transform="scale(0.015625)"/>
       </defs>
       <use xlink:href="#DejaVuSans-33"/>
       <use xlink:href="#DejaVuSans-2e" x="63.623047"/>
       <use xlink:href="#DejaVuSans-30" x="95.410156"/>
      </g>
     </g>
    </g>
    <g id="xtick_8">
     <g id="line2d_15">
      <path d="M 595.720973 384.48 
L 595.720973 51.84 
" clip-path="url(#p374f086f20)" style="fill: none; stroke: #808080; stroke-opacity: 0.2; stroke-linecap: square"/>
     </g>
     <g id="line2d_16">
      <g>
       <use xlink:href="#m851ca55e0f" x="595.720973" y="384.48" style="stroke: #000000; stroke-width: 0.8"/>
      </g>
     </g>
     <g id="text_8">
      <!-- 3.5 -->
      <g transform="translate(587.76941 399.078438) scale(0.1 -0.1)">
       <use xlink:href="#DejaVuSans-33"/>
       <use xlink:href="#DejaVuSans-2e" x="63.623047"/>
       <use xlink:href="#DejaVuSans-35" x="95.410156"/>
      </g>
     </g>
    </g>
    <g id="text_9">
     <!-- Timesteps -->
     <g transform="translate(338.215312 414.27625) scale(0.12 -0.12)">
      <defs>
       <path id="DejaVuSans-54" d="M -19 4666 
L 3928 4666 
L 3928 4134 
L 2272 4134 
L 2272 0 
L 1638 0 
L 1638 4134 
L -19 4134 
L -19 4666 
z
" transform="scale(0.015625)"/>
       <path id="DejaVuSans-69" d="M 603 3500 
L 1178 3500 
L 1178 0 
L 603 0 
L 603 3500 
z
M 603 4863 
L 1178 4863 
L 1178 4134 
L 603 4134 
L 603 4863 
z
" transform="scale(0.015625)"/>
       <path id="DejaVuSans-6d" d="M 3328 2828 
Q 3544 3216 3844 3400 
Q 4144 3584 4550 3584 
Q 5097 3584 5394 3201 
Q 5691 2819 5691 2113 
L 5691 0 
L 5113 0 
L 5113 2094 
Q 5113 2597 4934 2840 
Q 4756 3084 4391 3084 
Q 3944 3084 3684 2787 
Q 3425 2491 3425 1978 
L 3425 0 
L 2847 0 
L 2847 2094 
Q 2847 2600 2669 2842 
Q 2491 3084 2119 3084 
Q 1678 3084 1418 2786 
Q 1159 2488 1159 1978 
L 1159 0 
L 581 0 
L 581 3500 
L 1159 3500 
L 1159 2956 
Q 1356 3278 1631 3431 
Q 1906 3584 2284 3584 
Q 2666 3584 2933 3390 
Q 3200 3197 3328 2828 
z
" transform="scale(0.015625)"/>
       <path id="DejaVuSans-65" d="M 3597 1894 
L 3597 1613 
L 953 1613 
Q 991 1019 1311 708 
Q 1631 397 2203 397 
Q 2534 397 2845 478 
Q 3156 559 3463 722 
L 3463 178 
Q 3153 47 2828 -22 
Q 2503 -91 2169 -91 
Q 1331 -91 842 396 
Q 353 884 353 1716 
Q 353 2575 817 3079 
Q 1281 3584 2069 3584 
Q 2775 3584 3186 3129 
Q 3597 2675 3597 1894 
z
M 3022 2063 
Q 3016 2534 2758 2815 
Q 2500 3097 2075 3097 
Q 1594 3097 1305 2825 
Q 1016 2553 972 2059 
L 3022 2063 
z
" transform="scale(0.015625)"/>
       <path id="DejaVuSans-73" d="M 2834 3397 
L 2834 2853 
Q 2591 2978 2328 3040 
Q 2066 3103 1784 3103 
Q 1356 3103 1142 2972 
Q 928 2841 928 2578 
Q 928 2378 1081 2264 
Q 1234 2150 1697 2047 
L 1894 2003 
Q 2506 1872 2764 1633 
Q 3022 1394 3022 966 
Q 3022 478 2636 193 
Q 2250 -91 1575 -91 
Q 1294 -91 989 -36 
Q 684 19 347 128 
L 347 722 
Q 666 556 975 473 
Q 1284 391 1588 391 
Q 1994 391 2212 530 
Q 2431 669 2431 922 
Q 2431 1156 2273 1281 
Q 2116 1406 1581 1522 
L 1381 1569 
Q 847 1681 609 1914 
Q 372 2147 372 2553 
Q 372 3047 722 3315 
Q 1072 3584 1716 3584 
Q 2034 3584 2315 3537 
Q 2597 3491 2834 3397 
z
" transform="scale(0.015625)"/>
       <path id="DejaVuSans-74" d="M 1172 4494 
L 1172 3500 
L 2356 3500 
L 2356 3053 
L 1172 3053 
L 1172 1153 
Q 1172 725 1289 603 
Q 1406 481 1766 481 
L 2356 481 
L 2356 0 
L 1766 0 
Q 1100 0 847 248 
Q 594 497 594 1153 
L 594 3053 
L 172 3053 
L 172 3500 
L 594 3500 
L 594 4494 
L 1172 4494 
z
" transform="scale(0.015625)"/>
       <path id="DejaVuSans-70" d="M 1159 525 
L 1159 -1331 
L 581 -1331 
L 581 3500 
L 1159 3500 
L 1159 2969 
Q 1341 3281 1617 3432 
Q 1894 3584 2278 3584 
Q 2916 3584 3314 3078 
Q 3713 2572 3713 1747 
Q 3713 922 3314 415 
Q 2916 -91 2278 -91 
Q 1894 -91 1617 61 
Q 1341 213 1159 525 
z
M 3116 1747 
Q 3116 2381 2855 2742 
Q 2594 3103 2138 3103 
Q 1681 3103 1420 2742 
Q 1159 2381 1159 1747 
Q 1159 1113 1420 752 
Q 1681 391 2138 391 
Q 2594 391 2855 752 
Q 3116 1113 3116 1747 
z
" transform="scale(0.015625)"/>
      </defs>
      <use xlink:href="#DejaVuSans-54"/>
      <use xlink:href="#DejaVuSans-69" x="57.958984"/>
      <use xlink:href="#DejaVuSans-6d" x="85.742188"/>
      <use xlink:href="#DejaVuSans-65" x="183.154297"/>
      <use xlink:href="#DejaVuSans-73" x="244.677734"/>
      <use xlink:href="#DejaVuSans-74" x="296.777344"/>
      <use xlink:href="#DejaVuSans-65" x="335.986328"/>
      <use xlink:href="#DejaVuSans-70" x="397.509766"/>
      <use xlink:href="#DejaVuSans-73" x="460.986328"/>
     </g>
    </g>
    <g id="text_10">
     <!-- 1e6 -->
     <g transform="translate(629.121875 411.756563) scale(0.1 -0.1)">
      <defs>
       <path id="DejaVuSans-36" d="M 2113 2584 
Q 1688 2584 1439 2293 
Q 1191 2003 1191 1497 
Q 1191 994 1439 701 
Q 1688 409 2113 409 
Q 2538 409 2786 701 
Q 3034 994 3034 1497 
Q 3034 2003 2786 2293 
Q 2538 2584 2113 2584 
z
M 3366 4563 
L 3366 3988 
Q 3128 4100 2886 4159 
Q 2644 4219 2406 4219 
Q 1781 4219 1451 3797 
Q 1122 3375 1075 2522 
Q 1259 2794 1537 2939 
Q 1816 3084 2150 3084 
Q 2853 3084 3261 2657 
Q 3669 2231 3669 1497 
Q 3669 778 3244 343 
Q 2819 -91 2113 -91 
Q 1303 -91 875 529 
Q 447 1150 447 2328 
Q 447 3434 972 4092 
Q 1497 4750 2381 4750 
Q 2619 4750 2861 4703 
Q 3103 4656 3366 4563 
z
" transform="scale(0.015625)"/>
      </defs>
      <use xlink:href="#DejaVuSans-31"/>
      <use xlink:href="#DejaVuSans-65" x="63.623047"/>
      <use xlink:href="#DejaVuSans-36" x="125.146484"/>
     </g>
    </g>
   </g>
   <g id="matplotlib.axis_2">
    <g id="ytick_1">
     <g id="line2d_17">
      <path d="M 90 358.599381 
L 648 358.599381 
" clip-path="url(#p374f086f20)" style="fill: none; stroke: #808080; stroke-opacity: 0.2; stroke-linecap: square"/>
     </g>
     <g id="line2d_18">
      <defs>
       <path id="mf872ba7a64" d="M 0 0 
L -3.5 0 
" style="stroke: #000000; stroke-width: 0.8"/>
      </defs>
      <g>
       <use xlink:href="#mf872ba7a64" x="90" y="358.599381" style="stroke: #000000; stroke-width: 0.8"/>
      </g>
     </g>
     <g id="text_11">
      <!-- −300 -->
      <g transform="translate(55.532812 362.398599) scale(0.1 -0.1)">
       <defs>
        <path id="DejaVuSans-2212" d="M 678 2272 
L 4684 2272 
L 4684 1741 
L 678 1741 
L 678 2272 
z
" transform="scale(0.015625)"/>
       </defs>
       <use xlink:href="#DejaVuSans-2212"/>
       <use xlink:href="#DejaVuSans-33" x="83.789062"/>
       <use xlink:href="#DejaVuSans-30" x="147.412109"/>
       <use xlink:href="#DejaVuSans-30" x="211.035156"/>
      </g>
     </g>
    </g>
    <g id="ytick_2">
     <g id="line2d_19">
      <path d="M 90 317.939722 
L 648 317.939722 
" clip-path="url(#p374f086f20)" style="fill: none; stroke: #808080; stroke-opacity: 0.2; stroke-linecap: square"/>
     </g>
     <g id="line2d_20">
      <g>
       <use xlink:href="#mf872ba7a64" x="90" y="317.939722" style="stroke: #000000; stroke-width: 0.8"/>
      </g>
     </g>
     <g id="text_12">
      <!-- −250 -->
      <g transform="translate(55.532812 321.738941) scale(0.1 -0.1)">
       <use xlink:href="#DejaVuSans-2212"/>
       <use xlink:href="#DejaVuSans-32" x="83.789062"/>
       <use xlink:href="#DejaVuSans-35" x="147.412109"/>
       <use xlink:href="#DejaVuSans-30" x="211.035156"/>
      </g>
     </g>
    </g>
    <g id="ytick_3">
     <g id="line2d_21">
      <path d="M 90 277.280063 
L 648 277.280063 
" clip-path="url(#p374f086f20)" style="fill: none; stroke: #808080; stroke-opacity: 0.2; stroke-linecap: square"/>
     </g>
     <g id="line2d_22">
      <g>
       <use xlink:href="#mf872ba7a64" x="90" y="277.280063" style="stroke: #000000; stroke-width: 0.8"/>
      </g>
     </g>
     <g id="text_13">
      <!-- −200 -->
      <g transform="translate(55.532812 281.079282) scale(0.1 -0.1)">
       <use xlink:href="#DejaVuSans-2212"/>
       <use xlink:href="#DejaVuSans-32" x="83.789062"/>
       <use xlink:href="#DejaVuSans-30" x="147.412109"/>
       <use xlink:href="#DejaVuSans-30" x="211.035156"/>
      </g>
     </g>
    </g>
    <g id="ytick_4">
     <g id="line2d_23">
      <path d="M 90 236.620404 
L 648 236.620404 
" clip-path="url(#p374f086f20)" style="fill: none; stroke: #808080; stroke-opacity: 0.2; stroke-linecap: square"/>
     </g>
     <g id="line2d_24">
      <g>
       <use xlink:href="#mf872ba7a64" x="90" y="236.620404" style="stroke: #000000; stroke-width: 0.8"/>
      </g>
     </g>
     <g id="text_14">
      <!-- −150 -->
      <g transform="translate(55.532812 240.419623) scale(0.1 -0.1)">
       <use xlink:href="#DejaVuSans-2212"/>
       <use xlink:href="#DejaVuSans-31" x="83.789062"/>
       <use xlink:href="#DejaVuSans-35" x="147.412109"/>
       <use xlink:href="#DejaVuSans-30" x="211.035156"/>
      </g>
     </g>
    </g>
    <g id="ytick_5">
     <g id="line2d_25">
      <path d="M 90 195.960746 
L 648 195.960746 
" clip-path="url(#p374f086f20)" style="fill: none; stroke: #808080; stroke-opacity: 0.2; stroke-linecap: square"/>
     </g>
     <g id="line2d_26">
      <g>
       <use xlink:href="#mf872ba7a64" x="90" y="195.960746" style="stroke: #000000; stroke-width: 0.8"/>
      </g>
     </g>
     <g id="text_15">
      <!-- −100 -->
      <g transform="translate(55.532812 199.759964) scale(0.1 -0.1)">
       <use xlink:href="#DejaVuSans-2212"/>
       <use xlink:href="#DejaVuSans-31" x="83.789062"/>
       <use xlink:href="#DejaVuSans-30" x="147.412109"/>
       <use xlink:href="#DejaVuSans-30" x="211.035156"/>
      </g>
     </g>
    </g>
    <g id="ytick_6">
     <g id="line2d_27">
      <path d="M 90 155.301087 
L 648 155.301087 
" clip-path="url(#p374f086f20)" style="fill: none; stroke: #808080; stroke-opacity: 0.2; stroke-linecap: square"/>
     </g>
     <g id="line2d_28">
      <g>
       <use xlink:href="#mf872ba7a64" x="90" y="155.301087" style="stroke: #000000; stroke-width: 0.8"/>
      </g>
     </g>
     <g id="text_16">
      <!-- −50 -->
      <g transform="translate(61.895313 159.100306) scale(0.1 -0.1)">
       <use xlink:href="#DejaVuSans-2212"/>
       <use xlink:href="#DejaVuSans-35" x="83.789062"/>
       <use xlink:href="#DejaVuSans-30" x="147.412109"/>
      </g>
     </g>
    </g>
    <g id="ytick_7">
     <g id="line2d_29">
      <path d="M 90 114.641428 
L 648 114.641428 
" clip-path="url(#p374f086f20)" style="fill: none; stroke: #808080; stroke-opacity: 0.2; stroke-linecap: square"/>
     </g>
     <g id="line2d_30">
      <g>
       <use xlink:href="#mf872ba7a64" x="90" y="114.641428" style="stroke: #000000; stroke-width: 0.8"/>
      </g>
     </g>
     <g id="text_17">
      <!-- 0 -->
      <g transform="translate(76.6375 118.440647) scale(0.1 -0.1)">
       <use xlink:href="#DejaVuSans-30"/>
      </g>
     </g>
    </g>
    <g id="ytick_8">
     <g id="line2d_31">
      <path d="M 90 73.981769 
L 648 73.981769 
" clip-path="url(#p374f086f20)" style="fill: none; stroke: #808080; stroke-opacity: 0.2; stroke-linecap: square"/>
     </g>
     <g id="line2d_32">
      <g>
       <use xlink:href="#mf872ba7a64" x="90" y="73.981769" style="stroke: #000000; stroke-width: 0.8"/>
      </g>
     </g>
     <g id="text_18">
      <!-- 50 -->
      <g transform="translate(70.275 77.780988) scale(0.1 -0.1)">
       <use xlink:href="#DejaVuSans-35"/>
       <use xlink:href="#DejaVuSans-30" x="63.623047"/>
      </g>
     </g>
    </g>
    <g id="text_19">
     <!-- Rewards -->
     <g transform="translate(49.037187 243.630937) rotate(-90) scale(0.12 -0.12)">
      <defs>
       <path id="DejaVuSans-52" d="M 2841 2188 
Q 3044 2119 3236 1894 
Q 3428 1669 3622 1275 
L 4263 0 
L 3584 0 
L 2988 1197 
Q 2756 1666 2539 1819 
Q 2322 1972 1947 1972 
L 1259 1972 
L 1259 0 
L 628 0 
L 628 4666 
L 2053 4666 
Q 2853 4666 3247 4331 
Q 3641 3997 3641 3322 
Q 3641 2881 3436 2590 
Q 3231 2300 2841 2188 
z
M 1259 4147 
L 1259 2491 
L 2053 2491 
Q 2509 2491 2742 2702 
Q 2975 2913 2975 3322 
Q 2975 3731 2742 3939 
Q 2509 4147 2053 4147 
L 1259 4147 
z
" transform="scale(0.015625)"/>
       <path id="DejaVuSans-77" d="M 269 3500 
L 844 3500 
L 1563 769 
L 2278 3500 
L 2956 3500 
L 3675 769 
L 4391 3500 
L 4966 3500 
L 4050 0 
L 3372 0 
L 2619 2869 
L 1863 0 
L 1184 0 
L 269 3500 
z
" transform="scale(0.015625)"/>
       <path id="DejaVuSans-61" d="M 2194 1759 
Q 1497 1759 1228 1600 
Q 959 1441 959 1056 
Q 959 750 1161 570 
Q 1363 391 1709 391 
Q 2188 391 2477 730 
Q 2766 1069 2766 1631 
L 2766 1759 
L 2194 1759 
z
M 3341 1997 
L 3341 0 
L 2766 0 
L 2766 531 
Q 2569 213 2275 61 
Q 1981 -91 1556 -91 
Q 1019 -91 701 211 
Q 384 513 384 1019 
Q 384 1609 779 1909 
Q 1175 2209 1959 2209 
L 2766 2209 
L 2766 2266 
Q 2766 2663 2505 2880 
Q 2244 3097 1772 3097 
Q 1472 3097 1187 3025 
Q 903 2953 641 2809 
L 641 3341 
Q 956 3463 1253 3523 
Q 1550 3584 1831 3584 
Q 2591 3584 2966 3190 
Q 3341 2797 3341 1997 
z
" transform="scale(0.015625)"/>
       <path id="DejaVuSans-72" d="M 2631 2963 
Q 2534 3019 2420 3045 
Q 2306 3072 2169 3072 
Q 1681 3072 1420 2755 
Q 1159 2438 1159 1844 
L 1159 0 
L 581 0 
L 581 3500 
L 1159 3500 
L 1159 2956 
Q 1341 3275 1631 3429 
Q 1922 3584 2338 3584 
Q 2397 3584 2469 3576 
Q 2541 3569 2628 3553 
L 2631 2963 
z
" transform="scale(0.015625)"/>
       <path id="DejaVuSans-64" d="M 2906 2969 
L 2906 4863 
L 3481 4863 
L 3481 0 
L 2906 0 
L 2906 525 
Q 2725 213 2448 61 
Q 2172 -91 1784 -91 
Q 1150 -91 751 415 
Q 353 922 353 1747 
Q 353 2572 751 3078 
Q 1150 3584 1784 3584 
Q 2172 3584 2448 3432 
Q 2725 3281 2906 2969 
z
M 947 1747 
Q 947 1113 1208 752 
Q 1469 391 1925 391 
Q 2381 391 2643 752 
Q 2906 1113 2906 1747 
Q 2906 2381 2643 2742 
Q 2381 3103 1925 3103 
Q 1469 3103 1208 2742 
Q 947 2381 947 1747 
z
" transform="scale(0.015625)"/>
      </defs>
      <use xlink:href="#DejaVuSans-52"/>
      <use xlink:href="#DejaVuSans-65" x="64.982422"/>
      <use xlink:href="#DejaVuSans-77" x="126.505859"/>
      <use xlink:href="#DejaVuSans-61" x="208.292969"/>
      <use xlink:href="#DejaVuSans-72" x="269.572266"/>
      <use xlink:href="#DejaVuSans-64" x="308.935547"/>
      <use xlink:href="#DejaVuSans-73" x="372.412109"/>
     </g>
    </g>
   </g>
   <g id="line2d_33">
    <path d="M 115.363636 368.317771 
L 115.638283 368.837503 
L 115.91293 369.064824 
L 116.462224 369.114821 
L 117.286164 368.866994 
L 118.659399 367.736055 
L 119.483339 366.687684 
L 121.13122 364.359457 
L 122.229808 363.179383 
L 123.328395 362.199529 
L 126.074863 359.480673 
L 127.173451 358.693807 
L 128.272038 358.188444 
L 129.370626 357.950577 
L 130.194566 357.495297 
L 131.5678 356.361877 
L 132.666388 355.426089 
L 133.490328 355.039257 
L 134.588916 354.68025 
L 136.511444 354.491033 
L 137.610031 354.547358 
L 138.983265 354.197438 
L 139.807206 353.686111 
L 140.356499 353.357148 
L 142.004381 352.866224 
L 142.553674 352.945028 
L 143.377615 353.091585 
L 145.300143 353.363441 
L 145.849436 353.237072 
L 147.222671 353.185218 
L 148.870552 353.089407 
L 150.243786 352.603605 
L 152.166314 351.448788 
L 152.990254 350.899927 
L 154.638136 350.085834 
L 155.187429 350.031379 
L 156.286017 349.742574 
L 157.109957 349.641565 
L 158.208545 349.641041 
L 159.856426 350.275924 
L 160.955013 350.799872 
L 161.778954 350.97087 
L 162.602894 350.740456 
L 163.152188 350.499006 
L 164.525422 350.353622 
L 165.349363 350.519647 
L 165.898656 350.637847 
L 167.546537 350.423937 
L 168.370478 350.198118 
L 169.743712 350.169148 
L 171.116946 350.422365 
L 171.940887 350.284027 
L 172.490181 350.085449 
L 173.314121 349.677291 
L 174.687355 349.382924 
L 175.785943 349.666056 
L 176.335237 349.848527 
L 178.532411 351.066404 
L 179.081705 351.075371 
L 179.905646 350.729577 
L 182.10282 349.534228 
L 182.926761 349.554307 
L 184.299995 349.709774 
L 184.849289 349.431201 
L 185.398582 348.860071 
L 187.046464 346.777841 
L 187.595757 346.579803 
L 188.145051 346.75358 
L 189.792932 347.61866 
L 190.342226 347.701479 
L 193.637988 347.103481 
L 194.187282 347.054437 
L 194.736575 346.966734 
L 197.483044 347.104089 
L 198.856278 346.961661 
L 201.3281 346.93306 
L 204.623862 346.34826 
L 206.54639 345.576428 
L 207.095683 345.67286 
L 208.743565 346.239146 
L 209.292858 346.274873 
L 210.116799 345.869416 
L 210.940739 345.503899 
L 211.76468 345.446547 
L 212.58862 345.782858 
L 213.412561 346.124909 
L 214.236501 346.183331 
L 216.159029 345.990588 
L 217.257617 346.303728 
L 218.356204 346.503878 
L 218.905498 346.351728 
L 219.454792 345.92831 
L 220.278732 344.860084 
L 221.377319 343.257096 
L 221.926613 342.902903 
L 222.475907 342.708919 
L 223.299847 342.793609 
L 224.123788 342.939697 
L 226.870256 342.626613 
L 227.41955 342.546724 
L 227.968844 342.429317 
L 228.792784 342.583378 
L 230.166019 342.850751 
L 230.715312 342.908295 
L 232.088547 342.68499 
L 233.187134 342.953698 
L 234.285721 343.41892 
L 235.109662 343.487711 
L 237.581483 342.64225 
L 238.405424 342.269531 
L 238.954718 342.240776 
L 243.07442 343.000215 
L 244.173008 343.690828 
L 244.722302 343.907927 
L 245.271595 343.828985 
L 246.095536 343.392435 
L 247.46877 342.601336 
L 248.842004 342.277964 
L 249.940592 342.077863 
L 250.764532 342.115602 
L 252.961707 342.664579 
L 253.511001 342.424212 
L 254.334941 341.776329 
L 255.433529 340.402771 
L 256.257469 339.511348 
L 257.356057 338.693485 
L 257.90535 338.495569 
L 258.454644 338.536506 
L 259.553231 338.995997 
L 262.025053 340.42131 
L 263.398287 340.180878 
L 264.771521 339.063873 
L 265.595462 339.007475 
L 265.870109 339.094353 
L 268.34193 341.66593 
L 268.616577 341.874477 
L 269.165871 341.827159 
L 270.539105 341.557471 
L 273.285574 339.83262 
L 274.384161 339.399547 
L 275.482748 338.829273 
L 276.032042 338.818165 
L 277.13063 338.852506 
L 278.229217 339.413344 
L 280.975685 339.370519 
L 281.799626 339.608539 
L 282.34892 339.526226 
L 283.447507 339.221845 
L 284.271448 339.378155 
L 286.193975 340.621818 
L 287.017916 340.406914 
L 290.039031 337.813413 
L 290.862972 337.437357 
L 291.961559 336.597477 
L 293.060147 336.34404 
L 293.60944 336.005732 
L 295.257321 335.945952 
L 295.806615 335.709064 
L 296.081262 335.746184 
L 297.729143 335.297523 
L 298.00379 335.467408 
L 299.651671 337.782646 
L 300.475612 338.443668 
L 300.750258 338.478422 
L 301.299552 338.093947 
L 302.123493 337.419239 
L 302.672786 337.255049 
L 304.046021 336.642996 
L 304.869961 336.375626 
L 305.419255 336.218792 
L 306.517842 336.283989 
L 307.341783 336.300459 
L 309.264311 337.199739 
L 310.088251 337.849445 
L 310.362898 337.821848 
L 312.285426 336.711367 
L 312.83472 336.189085 
L 313.109367 336.171271 
L 313.65866 336.322585 
L 313.933307 336.227938 
L 314.482601 336.339558 
L 315.031894 335.863554 
L 316.130482 335.545309 
L 317.229069 334.605353 
L 317.778363 334.912767 
L 318.05301 334.887504 
L 318.87695 334.329457 
L 319.426244 334.318561 
L 319.700891 334.353655 
L 319.975538 334.158382 
L 320.799478 333.264404 
L 321.348772 333.033949 
L 321.898066 332.840254 
L 322.172713 332.658944 
L 322.447359 332.635668 
L 323.820594 333.969824 
L 324.919181 334.468607 
L 325.193828 334.433948 
L 326.292415 333.756743 
L 327.391003 333.824408 
L 328.214943 333.896533 
L 328.764237 333.605977 
L 329.038884 333.298178 
L 330.137471 331.421071 
L 330.961412 330.546552 
L 331.236058 330.528685 
L 331.510705 330.681512 
L 331.785352 331.157485 
L 332.334646 332.634151 
L 333.433233 334.309421 
L 333.70788 334.680325 
L 333.982527 334.835871 
L 334.257174 334.683046 
L 334.531821 334.22293 
L 335.081114 332.552187 
L 335.630408 331.420962 
L 337.003642 327.476117 
L 337.278289 326.924853 
L 337.552936 326.699745 
L 337.827583 326.647267 
L 338.10223 326.471044 
L 338.376877 326.492465 
L 338.92617 326.913024 
L 340.024758 327.419658 
L 340.574051 327.437436 
L 340.848698 327.350151 
L 341.947286 326.306352 
L 342.221932 325.81386 
L 342.496579 325.690721 
L 343.045873 326.124255 
L 343.32052 326.176613 
L 344.419107 327.038642 
L 344.968401 328.30016 
L 345.243048 328.510527 
L 346.066988 328.565495 
L 346.890929 328.79579 
L 347.165576 329.006405 
L 347.714869 328.561843 
L 348.53881 328.810637 
L 349.088104 328.468755 
L 349.912044 328.00403 
L 350.735985 328.597785 
L 351.010631 328.637858 
L 351.285278 328.853813 
L 351.834572 329.802789 
L 352.658513 331.469215 
L 353.482453 332.013544 
L 354.031747 332.375997 
L 354.581041 332.138277 
L 355.130334 331.700944 
L 355.404981 331.851055 
L 355.954275 332.561479 
L 356.228922 333.091828 
L 356.503568 333.311127 
L 357.052862 333.172802 
L 357.602156 333.043525 
L 357.876803 332.814466 
L 358.426096 331.868313 
L 358.700743 331.101067 
L 358.97539 329.99037 
L 359.250037 329.380148 
L 359.799331 329.27342 
L 360.073977 329.365493 
L 360.348624 328.700173 
L 360.897918 326.041976 
L 361.447212 322.92303 
L 362.271152 319.503508 
L 362.820446 316.598097 
L 363.095093 316.629616 
L 363.644386 319.51777 
L 364.19368 322.578863 
L 364.468327 323.257178 
L 365.566914 322.965015 
L 365.841561 322.221961 
L 366.940149 317.324547 
L 367.214795 317.173287 
L 367.764089 319.234175 
L 369.686617 326.476836 
L 370.235911 328.909305 
L 371.059851 329.820758 
L 371.334498 329.9341 
L 371.609145 329.457841 
L 372.158439 327.588953 
L 372.433086 325.884382 
L 374.080967 309.123728 
L 375.179554 299.135298 
L 375.454201 298.879861 
L 376.003495 299.857148 
L 376.278141 300.742755 
L 376.827435 303.923901 
L 377.102082 305.754985 
L 378.200669 316.488774 
L 378.749963 318.831423 
L 379.02461 319.421284 
L 379.573904 319.633703 
L 380.123197 321.313596 
L 380.397844 321.377707 
L 381.221785 319.288545 
L 381.496432 319.108009 
L 382.045725 318.347519 
L 382.320372 318.232941 
L 382.595019 317.818473 
L 382.869666 317.014468 
L 383.144313 317.13176 
L 383.693606 319.601034 
L 384.792194 320.505051 
L 385.066841 320.554339 
L 385.341487 320.203708 
L 385.616134 319.358601 
L 385.890781 317.655099 
L 386.440075 313.602434 
L 387.264015 312.056122 
L 387.813309 311.630019 
L 388.911896 309.469848 
L 390.285131 304.700054 
L 391.383718 297.91999 
L 391.658365 297.025101 
L 391.933012 295.448782 
L 392.207659 292.464537 
L 393.306246 276.25106 
L 394.954127 261.777377 
L 395.228774 260.8757 
L 396.327361 254.005729 
L 397.425949 243.704194 
L 398.249889 238.71189 
L 398.524536 238.67936 
L 400.447064 248.381336 
L 400.721711 248.765523 
L 400.996358 248.893258 
L 401.271005 247.770586 
L 402.369592 241.429692 
L 402.918886 239.161792 
L 403.193533 239.291435 
L 403.742826 243.33145 
L 404.566767 251.701887 
L 405.665354 268.334014 
L 406.214648 273.277546 
L 406.489295 274.900625 
L 406.763942 275.343645 
L 407.038588 274.988633 
L 407.313235 273.421723 
L 407.862529 265.878803 
L 408.411823 256.742656 
L 408.961116 248.46305 
L 409.235763 244.344471 
L 409.51041 242.913858 
L 409.785057 243.335116 
L 410.059704 243.325982 
L 410.608997 243.99765 
L 410.883644 245.242374 
L 411.158291 245.732418 
L 411.707585 243.395825 
L 411.982232 241.258135 
L 413.080819 223.423336 
L 413.90476 215.047417 
L 414.179406 215.950429 
L 414.454053 218.573249 
L 415.003347 228.770122 
L 416.101934 247.367765 
L 416.651228 254.837188 
L 416.925875 255.90502 
L 417.200522 255.913276 
L 417.475169 254.537577 
L 418.024462 250.94387 
L 418.573756 246.928971 
L 419.12305 240.358161 
L 419.672343 236.825537 
L 419.94699 235.374893 
L 420.221637 234.690453 
L 420.496284 234.662364 
L 420.770931 235.194181 
L 421.320224 237.346817 
L 421.869518 241.078516 
L 422.144165 241.292696 
L 422.693459 243.178612 
L 422.968106 241.87686 
L 423.517399 233.69309 
L 424.066693 224.277438 
L 424.615987 212.233529 
L 425.16528 201.487194 
L 425.439927 196.160256 
L 425.714574 193.533606 
L 425.989221 193.947877 
L 426.263868 195.576641 
L 426.813161 196.385286 
L 428.186396 211.013101 
L 428.461042 212.28146 
L 428.735689 211.420426 
L 429.010336 210.183922 
L 429.55963 213.330521 
L 430.108924 212.455941 
L 430.38357 212.512866 
L 430.658217 211.627013 
L 431.207511 209.129772 
L 431.482158 208.457123 
L 431.756805 206.65307 
L 432.306098 198.643181 
L 432.855392 194.038757 
L 433.679333 182.653161 
L 434.228626 176.3163 
L 434.503273 176.272017 
L 434.77792 176.957953 
L 435.052567 176.420521 
L 435.601861 173.203853 
L 435.876507 172.685244 
L 436.151154 174.090197 
L 436.425801 176.989447 
L 436.975095 184.650188 
L 437.249742 184.238899 
L 437.524388 183.506291 
L 437.799035 185.022887 
L 438.622976 192.395549 
L 438.897623 190.760189 
L 439.446916 179.759184 
L 439.721563 174.147734 
L 439.99621 171.567124 
L 440.270857 170.120329 
L 440.545504 166.247174 
L 441.369444 150.621541 
L 441.644091 148.668097 
L 441.918738 149.54722 
L 442.742679 154.007559 
L 443.017325 152.534898 
L 443.291972 152.095481 
L 444.115913 156.408086 
L 444.39056 158.944285 
L 444.939853 161.073953 
L 445.489147 162.270751 
L 446.587734 173.649084 
L 446.862381 174.008685 
L 447.411675 170.591446 
L 447.686322 170.54817 
L 447.960969 170.640919 
L 448.235615 171.553741 
L 448.510262 172.038749 
L 448.784909 172.983759 
L 449.60885 177.367396 
L 449.883497 180.070288 
L 450.158143 181.48367 
L 450.707437 182.193971 
L 450.982084 181.648004 
L 451.256731 180.587576 
L 452.080671 173.205592 
L 452.355318 172.440067 
L 452.629965 172.493801 
L 452.904612 173.139797 
L 453.179259 173.280964 
L 453.728552 171.782287 
L 454.003199 170.528156 
L 454.277846 170.724884 
L 454.552493 172.391871 
L 454.82714 173.021345 
L 455.101787 172.973843 
L 455.376434 173.981303 
L 456.749668 183.567705 
L 457.024315 183.538578 
L 457.848255 174.165665 
L 459.221489 149.923834 
L 459.496136 147.834385 
L 459.770783 147.337078 
L 460.320077 151.074377 
L 460.594724 151.605613 
L 461.144017 154.094178 
L 461.418664 154.066188 
L 461.967958 152.465606 
L 462.517252 145.783542 
L 463.066545 136.701391 
L 463.341192 134.211889 
L 463.890486 130.986461 
L 464.165133 129.453585 
L 464.439779 129.742587 
L 464.714426 131.307159 
L 464.989073 133.744518 
L 465.538367 142.246366 
L 466.087661 150.471008 
L 466.636954 153.775578 
L 466.911601 156.365101 
L 467.186248 157.105538 
L 467.460895 155.680786 
L 467.735542 154.999483 
L 468.010189 153.832004 
L 468.559482 150.013052 
L 468.834129 149.876899 
L 469.65807 152.425365 
L 469.932716 154.018525 
L 470.48201 159.26543 
L 471.031304 162.363054 
L 471.305951 163.025677 
L 471.580598 162.446301 
L 472.404538 159.951001 
L 472.953832 153.946139 
L 473.503125 146.23753 
L 474.052419 140.451416 
L 474.601713 133.432258 
L 475.151007 124.83633 
L 475.425653 122.610111 
L 475.7003 121.416792 
L 476.249594 120.047296 
L 476.524241 118.718769 
L 476.798888 118.323952 
L 477.073534 119.217234 
L 477.897475 126.631861 
L 478.446769 129.318338 
L 478.996062 136.441297 
L 480.643943 162.999571 
L 481.193237 169.799287 
L 481.467884 170.022362 
L 481.742531 168.027787 
L 482.017178 163.97825 
L 482.841118 146.018997 
L 484.214353 128.810952 
L 484.488999 126.278508 
L 484.763646 125.808972 
L 485.31294 129.36541 
L 485.587587 129.860992 
L 486.411527 129.539351 
L 486.686174 130.665949 
L 486.960821 132.965713 
L 487.510115 140.566105 
L 487.784762 143.020517 
L 488.334055 145.211606 
L 488.608702 145.566136 
L 488.883349 144.975107 
L 489.157996 143.830147 
L 489.707289 139.199283 
L 490.53123 129.696584 
L 490.805877 127.683787 
L 491.080524 127.958587 
L 491.355171 130.221524 
L 491.904464 140.237715 
L 492.728405 157.75507 
L 493.826992 170.183924 
L 494.101639 170.036497 
L 494.650933 164.680222 
L 495.474873 156.09987 
L 495.74952 155.463994 
L 496.024167 153.723484 
L 496.298814 152.799952 
L 496.848107 153.205304 
L 497.397401 154.646398 
L 497.672048 155.527502 
L 498.770635 164.750815 
L 499.045282 164.962461 
L 499.869223 158.755318 
L 500.418517 151.628281 
L 500.96781 139.774356 
L 501.517104 128.437392 
L 501.791751 125.590026 
L 502.341044 123.441898 
L 502.615691 122.496723 
L 502.890338 122.358448 
L 503.714279 124.593277 
L 504.538219 129.04687 
L 505.087513 136.513075 
L 506.735394 160.891864 
L 507.010041 161.086336 
L 507.284688 159.765528 
L 507.559335 156.072069 
L 508.657922 134.007837 
L 509.207216 126.938622 
L 509.481862 125.714606 
L 510.031156 130.56673 
L 510.58045 138.878728 
L 511.129744 146.592289 
L 511.40439 148.59001 
L 511.679037 148.987722 
L 511.953684 147.733845 
L 512.228331 144.013264 
L 513.052271 120.835766 
L 513.601565 103.830768 
L 514.150859 92.893021 
L 514.700153 86.257515 
L 514.974799 85.757222 
L 515.249446 87.595163 
L 515.524093 90.937723 
L 516.897327 113.612045 
L 517.721268 122.493841 
L 517.995915 123.952011 
L 518.270562 123.607716 
L 519.094502 119.082512 
L 520.467736 105.872692 
L 520.742383 105.400236 
L 521.01703 105.827087 
L 521.291677 105.950971 
L 521.566324 104.882792 
L 521.840971 104.39316 
L 522.115617 104.659549 
L 522.664911 105.667724 
L 522.939558 106.47006 
L 523.214205 105.270183 
L 523.763499 99.975749 
L 524.312792 97.289835 
L 524.862086 94.952684 
L 525.686026 89.413058 
L 526.23532 88.09357 
L 526.784614 85.373221 
L 527.608554 82.057318 
L 527.883201 82.028255 
L 528.157848 82.853217 
L 528.432495 85.279722 
L 531.178963 120.144861 
L 531.728257 119.893298 
L 532.002904 120.320534 
L 532.277551 121.138593 
L 532.826845 123.298242 
L 533.101491 122.02013 
L 533.650785 115.129054 
L 534.200079 107.027733 
L 534.474726 104.51196 
L 534.749372 103.547547 
L 535.024019 103.331086 
L 535.573313 102.04007 
L 535.84796 102.569142 
L 536.122607 104.792743 
L 536.6719 114.542994 
L 537.221194 123.79476 
L 537.495841 124.182544 
L 537.770488 123.20332 
L 538.319781 119.925179 
L 538.594428 118.402289 
L 538.869075 116.087754 
L 539.967663 98.541871 
L 540.242309 96.222892 
L 540.516956 95.026186 
L 540.791603 94.749824 
L 541.06625 95.41661 
L 541.340897 95.645709 
L 541.615544 95.591778 
L 542.714131 102.197059 
L 543.263425 106.442465 
L 543.538072 107.452453 
L 543.812718 107.520202 
L 544.087365 107.186394 
L 544.362012 107.321604 
L 544.636659 106.208682 
L 545.185953 101.651534 
L 545.460599 100.303807 
L 546.28454 92.527734 
L 546.559187 92.10983 
L 546.833834 94.190912 
L 547.108481 97.552259 
L 547.383127 102.503218 
L 548.207068 125.734653 
L 549.305655 166.948133 
L 549.854949 176.271961 
L 550.129596 178.832458 
L 550.404243 179.205266 
L 550.67889 177.698201 
L 550.953536 172.964042 
L 552.052124 143.757515 
L 553.150711 120.648863 
L 553.425358 117.757761 
L 553.700005 117.225265 
L 553.974652 118.265902 
L 554.249299 118.471707 
L 555.073239 111.962506 
L 555.347886 111.587915 
L 555.89718 112.185934 
L 556.171827 111.019582 
L 556.995767 105.558011 
L 557.270414 105.612099 
L 557.545061 106.318826 
L 557.819708 105.775417 
L 558.369001 99.611921 
L 558.918295 93.196883 
L 559.742236 87.862302 
L 560.016882 86.782987 
L 560.291529 86.420162 
L 560.566176 86.70974 
L 560.840823 88.289529 
L 563.037998 106.025805 
L 564.411232 112.545524 
L 564.685879 111.258247 
L 566.33376 97.3975 
L 566.883054 95.094879 
L 567.1577 94.838238 
L 567.706994 96.70722 
L 567.981641 96.644713 
L 568.530935 98.051008 
L 569.080228 96.989381 
L 570.453463 90.009623 
L 570.728109 90.209693 
L 571.277403 89.599663 
L 571.826697 90.965145 
L 572.101344 92.034626 
L 572.375991 92.655091 
L 573.199931 91.979505 
L 573.749225 90.126875 
L 574.023872 89.905245 
L 574.298518 89.866212 
L 574.847812 90.761336 
L 575.122459 91.677857 
L 575.397106 93.574832 
L 575.9464 100.37402 
L 576.495693 108.026394 
L 576.77034 109.97134 
L 577.044987 110.654537 
L 577.319634 110.884488 
L 577.594281 112.052141 
L 578.143574 116.082254 
L 578.418221 115.790429 
L 578.967515 113.158467 
L 579.242162 112.946883 
L 579.791455 114.84434 
L 580.066102 115.984278 
L 580.340749 115.759629 
L 581.16469 111.060621 
L 581.439337 111.317101 
L 581.713983 110.62773 
L 582.263277 107.512155 
L 583.087218 105.792771 
L 583.361864 105.784673 
L 583.636511 105.409989 
L 583.911158 104.307791 
L 584.460452 100.286346 
L 585.009746 97.745524 
L 585.559039 92.676742 
L 586.38298 84.011484 
L 586.657627 84.239748 
L 587.756214 90.616856 
L 588.305508 97.170219 
L 589.129448 108.03043 
L 589.404095 107.220352 
L 591.60127 90.465998 
L 591.875917 90.34117 
L 592.150564 92.233471 
L 592.699857 98.919308 
L 593.523798 109.723203 
L 594.347738 115.95562 
L 594.897032 117.422573 
L 595.171679 117.719797 
L 595.446326 117.214732 
L 595.995619 114.680544 
L 596.270266 114.542622 
L 596.544913 115.969484 
L 597.094207 121.141806 
L 597.918147 131.746666 
L 599.016735 142.757754 
L 599.291382 143.338705 
L 599.840675 139.581066 
L 600.939263 129.513791 
L 601.488556 127.166748 
L 602.03785 123.629569 
L 602.312497 123.570059 
L 602.861791 122.526566 
L 603.136437 123.456897 
L 603.685731 127.735915 
L 604.784319 132.012201 
L 605.058965 131.83184 
L 605.333612 132.460942 
L 605.608259 134.020875 
L 605.882906 134.288564 
L 606.4322 129.994227 
L 606.981493 128.227801 
L 607.25614 127.921479 
L 607.530787 129.118669 
L 607.805434 130.871891 
L 608.080081 131.014977 
L 608.904021 126.305233 
L 609.178668 124.765052 
L 610.826549 106.662546 
L 611.101196 107.101317 
L 611.925137 111.486578 
L 613.573018 128.206885 
L 613.847665 129.13255 
L 614.396958 129.096478 
L 615.220899 132.783351 
L 615.495546 133.574585 
L 615.770192 132.705961 
L 616.594133 124.585922 
L 617.143427 121.245581 
L 617.69272 115.716765 
L 618.516661 112.079406 
L 619.889895 123.4303 
L 620.164542 124.642029 
L 620.439189 124.015839 
L 621.263129 117.709656 
L 622.636364 96.214343 
L 622.636364 96.214343 
" clip-path="url(#p374f086f20)" style="fill: none; stroke: #ff0000; stroke-width: 1.5; stroke-linecap: square"/>
   </g>
   <g id="line2d_34">
    <path d="M 115.363636 368.317771 
L 115.638283 369.010747 
L 115.91293 369.091863 
L 116.187577 369.36 
L 116.736871 368.974244 
L 117.286164 367.869864 
L 118.110105 364.709705 
L 118.384752 364.581636 
L 119.757986 363.312974 
L 120.032633 363.245704 
L 120.581926 363.444602 
L 120.856573 363.206057 
L 121.405867 361.929244 
L 121.955161 360.969857 
L 122.229808 360.881309 
L 122.504454 361.049712 
L 122.779101 360.888501 
L 123.053748 360.87737 
L 123.328395 360.169855 
L 123.603042 359.954784 
L 123.877689 359.175185 
L 124.152335 359.268982 
L 124.426982 359.064066 
L 124.701629 359.292212 
L 125.800217 357.391988 
L 126.074863 357.326616 
L 126.34951 357.683346 
L 126.624157 358.381562 
L 127.173451 359.047676 
L 127.722744 358.289274 
L 128.272038 356.954634 
L 128.546685 356.847609 
L 129.095979 357.294522 
L 129.645272 356.66118 
L 130.469213 354.610849 
L 130.74386 354.338926 
L 131.018507 354.55088 
L 131.293154 355.113357 
L 131.5678 355.191261 
L 131.842447 355.121128 
L 132.117094 354.848717 
L 132.391741 354.962943 
L 132.941035 354.428703 
L 133.215681 354.037566 
L 133.764975 354.733361 
L 134.039622 354.784963 
L 134.314269 354.017182 
L 134.588916 353.999752 
L 134.863563 354.440069 
L 135.138209 355.119817 
L 135.412856 355.039862 
L 135.687503 354.369963 
L 135.96215 354.063416 
L 136.236797 354.336911 
L 136.511444 354.946806 
L 136.78609 355.167787 
L 137.335384 354.514431 
L 137.884678 353.2911 
L 138.159325 352.781733 
L 138.433972 352.809969 
L 139.257912 352.596208 
L 140.356499 353.093015 
L 140.631146 353.388439 
L 140.905793 353.107815 
L 141.455087 352.098732 
L 141.729734 352.271292 
L 142.553674 354.660707 
L 142.828321 354.75941 
L 143.102968 354.483385 
L 143.652262 352.351093 
L 143.926909 352.40396 
L 144.201555 353.130774 
L 144.476202 353.250964 
L 145.025496 352.780749 
L 145.57479 353.406058 
L 145.849436 353.190553 
L 146.124083 353.259999 
L 146.673377 353.971182 
L 146.948024 353.814796 
L 147.497318 352.744363 
L 147.771964 352.469738 
L 148.046611 352.543061 
L 148.595905 351.665933 
L 148.870552 351.672384 
L 149.419845 353.572139 
L 149.694492 353.43367 
L 150.243786 350.553295 
L 150.518433 350.13497 
L 150.79308 350.167932 
L 151.067727 350.656254 
L 151.342373 350.631615 
L 151.61702 350.792771 
L 152.166314 349.771672 
L 152.440961 349.707204 
L 152.990254 350.532685 
L 153.539548 349.811672 
L 153.814195 349.62358 
L 154.088842 349.900608 
L 154.363489 349.656975 
L 154.638136 349.575349 
L 155.187429 349.811997 
L 155.736723 348.62703 
L 156.01137 348.789877 
L 156.286017 349.948144 
L 156.560663 350.270539 
L 156.83531 350.260988 
L 157.109957 349.381502 
L 157.384604 349.872779 
L 157.659251 349.852332 
L 157.933898 350.258693 
L 158.208545 350.164047 
L 158.483191 350.27896 
L 159.032485 351.14202 
L 159.307132 352.054775 
L 159.581779 352.208315 
L 159.856426 352.049426 
L 160.955013 349.638435 
L 161.22966 349.41496 
L 161.778954 350.505832 
L 162.0536 350.660239 
L 162.877541 349.466336 
L 163.152188 350.053055 
L 163.426835 351.332334 
L 163.701482 351.932209 
L 163.976128 351.578632 
L 164.250775 350.64177 
L 164.525422 350.255865 
L 164.800069 350.41526 
L 165.074716 350.720036 
L 165.349363 350.490435 
L 165.898656 349.730199 
L 166.173303 350.02921 
L 166.44795 350.749211 
L 166.997244 350.562827 
L 167.271891 349.60813 
L 167.821184 349.143896 
L 168.370478 350.24383 
L 168.919772 351.515583 
L 169.194418 351.328946 
L 169.743712 350.505208 
L 170.018359 350.777899 
L 170.293006 350.824549 
L 170.567653 350.119511 
L 170.8423 349.053423 
L 171.116946 348.605264 
L 171.66624 349.796899 
L 171.940887 349.745677 
L 172.490181 348.472171 
L 172.764827 348.860155 
L 173.314121 350.483333 
L 173.588768 350.256181 
L 174.138062 348.642408 
L 174.412709 348.807595 
L 174.687355 349.986563 
L 174.962002 350.638084 
L 175.236649 350.86464 
L 175.511296 350.557298 
L 175.785943 350.540103 
L 176.335237 351.600372 
L 176.609883 352.072069 
L 176.88453 351.468987 
L 177.708471 351.393875 
L 178.257764 350.517668 
L 178.532411 350.42285 
L 178.807058 350.130001 
L 179.356352 348.664844 
L 179.630999 348.561713 
L 180.180292 349.876538 
L 180.454939 349.840197 
L 180.729586 349.597811 
L 181.004233 349.122608 
L 181.553527 349.479311 
L 182.10282 349.594504 
L 182.377467 349.956791 
L 182.926761 351.117841 
L 183.201408 350.639927 
L 183.476055 349.911396 
L 183.750701 348.852032 
L 184.025348 348.529411 
L 184.849289 344.442627 
L 185.123936 344.191694 
L 185.673229 345.731864 
L 185.947876 346.752972 
L 186.49717 347.602081 
L 186.771817 347.515115 
L 187.046464 347.802606 
L 187.32111 347.726554 
L 188.145051 348.659964 
L 188.419698 348.26187 
L 188.968991 346.646453 
L 189.243638 346.737982 
L 189.792932 347.677275 
L 190.067579 347.639678 
L 190.342226 347.768172 
L 190.616873 347.046101 
L 190.891519 346.886715 
L 191.166166 346.271734 
L 191.440813 347.261344 
L 191.990107 348.363727 
L 192.539401 346.207835 
L 192.814047 345.824116 
L 193.363341 346.756008 
L 193.637988 346.972146 
L 193.912635 346.952476 
L 194.461928 347.784905 
L 194.736575 348.311439 
L 195.011222 348.355342 
L 195.285869 347.372499 
L 195.560516 346.913262 
L 195.835163 346.115284 
L 196.10981 346.175741 
L 196.384456 346.004889 
L 196.93375 347.428302 
L 197.208397 347.408858 
L 197.757691 347.011857 
L 198.032337 347.561693 
L 198.306984 347.2434 
L 198.856278 346.05949 
L 199.680219 347.940451 
L 199.954865 347.818969 
L 200.229512 347.438955 
L 200.778806 345.764843 
L 201.053453 345.341928 
L 201.3281 345.515681 
L 201.602746 346.163461 
L 202.15204 347.640166 
L 202.426687 347.726121 
L 202.701334 347.104868 
L 202.975981 346.975119 
L 203.250628 346.26474 
L 203.525274 346.184496 
L 203.799921 345.049884 
L 204.074568 344.72495 
L 204.349215 343.846548 
L 204.898509 344.819759 
L 205.173155 345.951272 
L 205.447802 346.434399 
L 205.722449 346.519251 
L 206.271743 345.903854 
L 206.54639 346.243172 
L 207.095683 347.354591 
L 207.37033 347.136357 
L 207.644977 346.452705 
L 208.468918 345.563822 
L 208.743565 344.883405 
L 209.018211 344.732476 
L 209.567505 344.982063 
L 209.842152 344.550764 
L 210.116799 344.665162 
L 210.391446 344.908749 
L 210.666092 346.02099 
L 211.215386 347.005658 
L 211.76468 346.999767 
L 212.039327 347.447611 
L 212.313974 347.19815 
L 212.58862 346.322215 
L 212.863267 344.886079 
L 213.137914 344.526621 
L 213.412561 344.813796 
L 213.687208 345.507531 
L 213.961855 345.523804 
L 214.236501 345.709194 
L 214.511148 346.384975 
L 214.785795 347.364394 
L 215.060442 347.600482 
L 215.335089 346.99965 
L 215.609736 345.885657 
L 215.884383 345.52337 
L 216.159029 345.543474 
L 217.257617 347.595648 
L 217.532264 347.924368 
L 217.80691 347.523265 
L 218.081557 346.649977 
L 219.180145 340.935352 
L 219.454792 340.880236 
L 220.004085 342.443952 
L 220.278732 342.983271 
L 221.102673 342.901617 
L 221.651966 343.789425 
L 221.926613 343.659233 
L 222.20126 343.109758 
L 222.475907 342.160979 
L 223.299847 343.050142 
L 223.574494 342.329472 
L 223.849141 342.573756 
L 224.123788 342.357311 
L 224.398435 343.316237 
L 224.673082 343.33944 
L 224.947729 343.97149 
L 225.771669 341.203769 
L 226.046316 341.257783 
L 226.320963 341.439351 
L 227.144903 343.561279 
L 227.41955 343.318848 
L 227.694197 343.227644 
L 227.968844 342.732003 
L 228.243491 342.962218 
L 228.518138 343.491047 
L 229.067431 343.137732 
L 229.342078 342.35114 
L 229.891372 342.461625 
L 230.166019 342.979566 
L 230.440665 342.716851 
L 230.989959 341.354318 
L 231.264606 341.543512 
L 231.8139 343.694941 
L 232.088547 344.546951 
L 232.363193 344.966188 
L 232.63784 345.625091 
L 232.912487 345.207453 
L 233.736428 341.655905 
L 234.011074 341.429195 
L 234.285721 341.474463 
L 235.109662 344.996692 
L 235.384309 344.656524 
L 235.658956 343.771399 
L 236.208249 341.179409 
L 236.482896 340.895686 
L 236.757543 340.930211 
L 237.85613 342.504969 
L 238.130777 342.489717 
L 238.405424 342.284042 
L 238.680071 342.765525 
L 239.229365 344.748153 
L 239.504011 344.312598 
L 240.053305 341.442125 
L 240.327952 340.693879 
L 240.602599 340.504793 
L 241.151893 342.103025 
L 241.426539 343.687749 
L 241.701186 344.189254 
L 241.975833 345.298992 
L 242.25048 345.00701 
L 242.525127 345.322141 
L 243.623714 343.283249 
L 244.447655 343.377823 
L 244.996948 342.266278 
L 245.271595 341.496374 
L 246.095536 342.794095 
L 246.370183 342.640365 
L 246.644829 343.09138 
L 246.919476 343.196996 
L 247.194123 342.607729 
L 247.46877 341.533772 
L 247.743417 341.201248 
L 248.018064 341.246886 
L 248.292711 341.568468 
L 248.567357 341.512258 
L 248.842004 341.705374 
L 249.116651 341.736266 
L 249.391298 342.351889 
L 249.665945 343.31209 
L 249.940592 343.531589 
L 250.215238 343.119508 
L 250.489885 342.182031 
L 251.039179 342.947056 
L 251.313826 343.118966 
L 251.588473 342.551266 
L 251.86312 342.62187 
L 252.412413 343.610866 
L 252.68706 342.496927 
L 253.236354 338.545712 
L 253.511001 338.245291 
L 253.785647 338.602942 
L 254.060294 339.572431 
L 254.609588 340.031723 
L 254.884235 339.958752 
L 255.158882 339.613967 
L 255.433529 338.854436 
L 255.708175 336.919416 
L 255.982822 336.123896 
L 256.257469 336.601692 
L 256.532116 338.323105 
L 256.806763 339.148107 
L 257.08141 338.961579 
L 257.90535 340.015188 
L 258.179997 339.508316 
L 258.454644 338.753943 
L 258.729291 338.775249 
L 259.003938 339.190393 
L 259.278584 340.648132 
L 259.553231 341.295705 
L 259.827878 341.174982 
L 260.377172 339.554902 
L 261.201112 342.159199 
L 261.750406 341.161989 
L 262.574347 337.322732 
L 262.848993 337.804676 
L 263.398287 337.742602 
L 263.672934 337.076859 
L 263.947581 337.490729 
L 264.496875 340.985029 
L 264.771521 342.344751 
L 265.046168 341.436731 
L 265.320815 341.033577 
L 265.595462 339.92955 
L 265.870109 340.842178 
L 266.419402 343.593012 
L 266.694049 343.277845 
L 267.243343 340.972289 
L 267.51799 340.88554 
L 267.792637 341.27055 
L 268.616577 343.049853 
L 268.891224 342.6465 
L 269.440518 340.035635 
L 269.989811 339.271975 
L 270.264458 339.984449 
L 270.539105 339.577283 
L 270.813752 340.140058 
L 271.088399 339.444236 
L 271.363046 340.547658 
L 271.637693 340.693554 
L 271.912339 341.13584 
L 272.186986 339.44251 
L 272.73628 338.407342 
L 273.010927 338.751016 
L 273.560221 338.099793 
L 274.384161 339.479529 
L 274.933455 337.33634 
L 275.208102 337.248669 
L 276.032042 341.058822 
L 276.306689 341.014259 
L 276.855983 338.676166 
L 277.13063 338.534562 
L 277.679923 340.324518 
L 277.95457 340.051402 
L 278.778511 337.590933 
L 279.053157 338.415989 
L 279.602451 340.696526 
L 279.877098 340.834137 
L 280.151745 341.231373 
L 280.701039 340.423574 
L 280.975685 338.691861 
L 281.524979 337.905774 
L 281.799626 338.41298 
L 282.074273 337.903551 
L 282.34892 338.095835 
L 283.17286 340.290372 
L 283.447507 340.570635 
L 283.996801 342.619611 
L 284.271448 342.691533 
L 284.546094 342.318802 
L 285.095388 340.457556 
L 285.370035 338.650261 
L 285.644682 337.825566 
L 285.919329 338.162156 
L 286.193975 339.145595 
L 286.743269 339.810995 
L 287.017916 339.729495 
L 287.292563 339.122347 
L 287.56721 337.684052 
L 287.841857 336.933818 
L 288.116503 336.942727 
L 288.665797 338.395298 
L 288.940444 338.343778 
L 289.215091 337.760321 
L 289.489738 335.373391 
L 289.764385 334.409088 
L 290.039031 334.352192 
L 290.588325 339.259777 
L 290.862972 338.477187 
L 291.412266 334.586879 
L 291.686912 335.455849 
L 291.961559 335.230025 
L 292.236206 335.166298 
L 292.510853 334.481833 
L 293.060147 336.700856 
L 293.334794 336.930837 
L 293.60944 336.182039 
L 293.884087 336.064045 
L 294.158734 336.685921 
L 294.433381 336.219148 
L 294.708028 336.616194 
L 295.257321 334.896327 
L 295.531968 332.429135 
L 295.806615 332.306198 
L 296.355909 335.883525 
L 296.905203 336.066647 
L 297.179849 337.022474 
L 297.454496 338.679139 
L 298.00379 339.525284 
L 298.278437 340.470133 
L 298.553084 342.020477 
L 298.82773 342.186468 
L 299.102377 339.903202 
L 299.651671 333.338718 
L 299.926318 333.356446 
L 300.475612 337.580804 
L 301.024905 338.690559 
L 301.299552 339.094364 
L 301.574199 338.696315 
L 302.123493 335.900503 
L 302.672786 335.082349 
L 303.22208 334.815215 
L 303.496727 335.573879 
L 304.046021 337.492852 
L 304.320667 337.46102 
L 304.595314 336.242631 
L 304.869961 335.766561 
L 305.144608 335.705653 
L 305.419255 336.993199 
L 305.693902 337.693666 
L 305.968549 337.616629 
L 306.243195 336.334405 
L 306.517842 334.385262 
L 306.792489 334.190728 
L 307.067136 334.291193 
L 307.341783 336.866585 
L 307.61643 338.058979 
L 307.891076 340.976003 
L 308.165723 341.423611 
L 308.44037 341.153478 
L 308.989664 337.122353 
L 309.538958 335.234064 
L 310.088251 336.431554 
L 310.362898 336.240336 
L 310.637545 334.879611 
L 310.912192 335.306619 
L 311.186839 338.05176 
L 311.461485 338.280719 
L 311.736132 337.389983 
L 312.010779 334.010253 
L 312.285426 335.382779 
L 312.560073 334.971854 
L 312.83472 335.708508 
L 313.109367 335.566479 
L 313.65866 338.921524 
L 314.207954 337.980308 
L 315.031894 327.220994 
L 315.306541 330.171114 
L 315.855835 340.745697 
L 316.130482 339.958066 
L 316.954422 332.567305 
L 317.229069 332.405498 
L 318.05301 333.521569 
L 318.327657 334.56336 
L 318.602303 334.929044 
L 318.87695 334.820429 
L 319.151597 334.465072 
L 319.426244 335.060212 
L 319.700891 333.792697 
L 320.250185 326.351925 
L 320.524831 327.24885 
L 321.074125 335.465571 
L 321.348772 336.83731 
L 321.623419 335.245322 
L 321.898066 335.281473 
L 322.172713 334.601653 
L 322.447359 336.102726 
L 322.722006 335.814196 
L 322.996653 335.787957 
L 323.545947 333.469579 
L 323.820594 332.21737 
L 324.09524 332.144119 
L 324.644534 333.714468 
L 324.919181 333.007993 
L 325.193828 333.224365 
L 325.743122 334.967879 
L 326.017768 335.327816 
L 326.292415 334.009449 
L 326.841709 333.313943 
L 327.116356 335.657575 
L 327.665649 334.58931 
L 327.940296 330.884908 
L 328.214943 331.632377 
L 328.48959 329.64749 
L 328.764237 329.995464 
L 329.038884 325.561592 
L 329.588177 324.180772 
L 330.137471 334.788533 
L 330.412118 337.162759 
L 330.961412 333.801245 
L 331.236058 334.398815 
L 332.059999 340.07915 
L 332.609293 332.537154 
L 332.88394 327.950139 
L 333.70788 336.135561 
L 334.531821 327.177551 
L 335.355761 322.265069 
L 336.179702 326.199135 
L 336.454349 328.710375 
L 336.728995 329.651095 
L 337.003642 328.883052 
L 337.278289 325.948482 
L 337.552936 325.521239 
L 337.827583 326.230958 
L 338.10223 328.274748 
L 338.376877 328.695729 
L 338.651523 329.56608 
L 338.92617 328.629806 
L 339.200817 328.682889 
L 339.475464 329.8029 
L 340.299404 318.359212 
L 340.574051 325.413076 
L 341.123345 329.948344 
L 341.397992 326.843184 
L 341.947286 323.509707 
L 342.221932 320.837735 
L 342.771226 328.597115 
L 343.045873 334.286441 
L 343.32052 334.426301 
L 343.595167 334.08457 
L 344.419107 324.307097 
L 344.693754 324.735659 
L 345.243048 327.473102 
L 345.517695 325.763761 
L 346.341635 336.952368 
L 347.165576 325.363986 
L 347.440222 324.337908 
L 347.714869 322.851689 
L 347.989516 323.709734 
L 348.53881 331.231157 
L 348.813457 332.168145 
L 349.637397 327.53982 
L 349.912044 327.921045 
L 350.186691 330.527238 
L 350.461338 331.532065 
L 350.735985 331.448342 
L 351.010631 329.360912 
L 351.834572 337.880456 
L 352.109219 337.254234 
L 352.383866 335.790866 
L 352.933159 328.564768 
L 353.207806 326.526997 
L 354.581041 333.114196 
L 354.855687 333.948848 
L 355.679628 340.861731 
L 355.954275 339.77282 
L 356.228922 340.130002 
L 357.052862 312.137209 
L 357.602156 323.920767 
L 357.876803 333.952173 
L 358.426096 339.489567 
L 358.97539 333.274467 
L 359.250037 323.418855 
L 359.524684 322.778086 
L 359.799331 320.344551 
L 360.073977 328.07407 
L 360.897918 287.791145 
L 361.721859 328.914143 
L 361.996505 331.763654 
L 362.271152 330.244961 
L 362.820446 325.915846 
L 363.095093 331.777035 
L 363.644386 337.163301 
L 364.19368 323.474775 
L 364.742974 295.937841 
L 365.017621 286.951758 
L 365.292268 297.525826 
L 365.841561 332.251895 
L 366.116208 338.403927 
L 366.390855 337.371416 
L 366.665502 332.861609 
L 366.940149 330.733211 
L 367.214795 321.151446 
L 367.764089 309.483254 
L 368.58803 332.924993 
L 369.137323 341.813203 
L 369.41197 343.964668 
L 369.961264 338.478316 
L 370.235911 332.74206 
L 370.785205 308.709627 
L 371.059851 307.701737 
L 371.609145 320.007121 
L 371.883792 317.327677 
L 372.158439 317.094923 
L 372.433086 309.965541 
L 372.982379 284.356524 
L 373.257026 280.550374 
L 373.531673 294.418932 
L 374.080967 307.127984 
L 374.63026 288.737512 
L 374.904907 285.34825 
L 375.179554 294.261958 
L 375.728848 324.794624 
L 376.003495 332.970694 
L 376.278141 334.170479 
L 376.552788 338.184826 
L 376.827435 330.921212 
L 377.376729 295.790942 
L 377.651376 297.373055 
L 378.200669 333.398425 
L 378.475316 333.205725 
L 379.02461 319.073675 
L 379.299257 324.904631 
L 379.573904 323.183725 
L 379.84855 322.527478 
L 380.123197 317.895213 
L 380.397844 315.27421 
L 380.672491 310.230154 
L 380.947138 301.814092 
L 381.771078 322.637177 
L 382.045725 318.478282 
L 382.869666 333.701692 
L 383.144313 334.448438 
L 383.418959 337.578129 
L 383.968253 312.576632 
L 384.2429 292.486929 
L 384.517547 293.706665 
L 384.792194 299.281384 
L 385.066841 316.945566 
L 385.341487 320.889155 
L 385.616134 319.487888 
L 385.890781 305.872369 
L 386.165428 303.595771 
L 386.440075 309.70428 
L 386.714722 318.692847 
L 386.989369 317.658032 
L 387.264015 311.092554 
L 387.538662 312.70367 
L 387.813309 321.519389 
L 388.087956 316.425927 
L 388.362603 296.32324 
L 388.63725 266.489993 
L 388.911896 266.208366 
L 389.186543 285.260488 
L 389.46119 315.552241 
L 389.735837 331.719615 
L 390.010484 328.153618 
L 390.285131 319.33171 
L 390.559778 300.564178 
L 391.109071 243.9403 
L 391.383718 232.934118 
L 391.933012 284.089174 
L 392.207659 279.830336 
L 392.482305 261.897421 
L 392.756952 256.037488 
L 393.031599 269.852086 
L 393.306246 269.670201 
L 393.580893 252.576221 
L 393.85554 247.177414 
L 394.130187 253.974941 
L 394.404833 271.033339 
L 394.67948 266.501115 
L 395.228774 231.530357 
L 395.778068 240.644943 
L 396.052714 235.391968 
L 396.327361 215.116631 
L 396.876655 234.39024 
L 397.151302 251.814901 
L 397.425949 246.540105 
L 397.700596 244.512751 
L 397.975242 236.138407 
L 398.249889 240.662508 
L 398.799183 271.511695 
L 399.07383 282.627603 
L 399.348477 259.873898 
L 399.623123 251.127472 
L 399.89777 228.211454 
L 400.172417 247.918215 
L 400.447064 228.248463 
L 400.721711 221.632351 
L 400.996358 192.484797 
L 401.820298 267.085178 
L 402.094945 266.0517 
L 402.369592 252.05903 
L 402.644239 255.916656 
L 402.918886 256.813175 
L 403.193533 260.582777 
L 403.468179 253.693377 
L 404.017473 260.768618 
L 404.566767 286.275913 
L 404.841414 307.566548 
L 405.11606 316.813368 
L 405.390707 317.148964 
L 406.214648 232.489013 
L 406.489295 246.044609 
L 406.763942 228.578972 
L 407.038588 222.341564 
L 407.313235 207.753411 
L 407.862529 255.01778 
L 408.137176 257.883192 
L 408.411823 255.298295 
L 408.686469 236.505645 
L 408.961116 237.228799 
L 409.235763 230.221595 
L 409.785057 273.702212 
L 410.059704 279.850874 
L 410.608997 229.056714 
L 410.883644 228.002472 
L 411.158291 228.612503 
L 411.432938 207.596293 
L 411.707585 164.840313 
L 411.982232 144.400359 
L 412.256878 164.864022 
L 412.806172 249.016016 
L 413.080819 259.658411 
L 413.355466 256.747478 
L 413.630113 248.224283 
L 413.90476 259.762156 
L 414.179406 259.095437 
L 414.454053 258.006816 
L 414.7287 255.211681 
L 415.277994 265.869879 
L 415.827287 249.833962 
L 416.101934 256.984804 
L 416.376581 261.055378 
L 416.651228 260.149643 
L 416.925875 231.798115 
L 417.200522 221.121765 
L 417.475169 218.858901 
L 417.749815 239.286585 
L 418.024462 239.34349 
L 418.299109 235.06623 
L 418.573756 222.007169 
L 418.848403 222.685156 
L 419.397697 235.675772 
L 419.672343 241.562523 
L 419.94699 233.024997 
L 420.496284 258.266911 
L 420.770931 278.050004 
L 421.045578 267.015334 
L 421.594871 234.11951 
L 421.869518 221.824797 
L 422.418812 210.556949 
L 422.693459 227.424427 
L 422.968106 211.370567 
L 423.517399 151.8861 
L 424.34134 192.665054 
L 424.615987 175.908595 
L 424.890633 176.491546 
L 425.714574 241.820034 
L 425.989221 240.136968 
L 426.263868 240.851855 
L 426.813161 191.254661 
L 427.087808 173.866874 
L 427.637102 210.870742 
L 427.911749 230.239766 
L 428.186396 233.308296 
L 428.461042 227.058129 
L 428.735689 206.554394 
L 429.010336 200.620053 
L 429.55963 224.835808 
L 430.108924 188.561844 
L 430.38357 200.480708 
L 430.658217 219.12271 
L 430.932864 218.078335 
L 431.482158 159.269479 
L 431.756805 147.128053 
L 432.031451 151.457665 
L 432.855392 198.664758 
L 433.130039 198.082421 
L 433.679333 164.980914 
L 433.953979 134.066065 
L 434.228626 146.723092 
L 434.503273 170.107537 
L 434.77792 214.854322 
L 435.052567 202.008761 
L 435.327214 183.726182 
L 435.601861 148.550535 
L 436.151154 189.085559 
L 436.425801 235.158238 
L 436.700448 240.945128 
L 436.975095 227.25812 
L 437.524388 141.802243 
L 437.799035 145.502028 
L 438.348329 205.551763 
L 438.622976 191.515037 
L 439.17227 106.532022 
L 439.446916 101.982667 
L 439.721563 111.199715 
L 439.99621 151.706005 
L 440.545504 183.834653 
L 441.094797 157.078077 
L 441.369444 146.257629 
L 441.644091 146.689525 
L 441.918738 146.810031 
L 442.193385 155.496163 
L 442.468032 171.858387 
L 442.742679 174.469541 
L 443.017325 159.408137 
L 443.291972 131.808885 
L 443.566619 131.353723 
L 443.841266 150.253886 
L 444.39056 201.923909 
L 444.665206 204.774188 
L 444.939853 199.173798 
L 445.2145 179.814452 
L 445.489147 170.879591 
L 445.763794 169.903678 
L 446.038441 162.112782 
L 446.313088 171.127389 
L 446.587734 155.187601 
L 446.862381 152.153505 
L 447.137028 126.963735 
L 447.411675 141.466367 
L 448.235615 229.926054 
L 448.784909 226.494071 
L 449.059556 217.689078 
L 449.334203 190.833012 
L 449.883497 102.121362 
L 450.158143 96.68053 
L 450.982084 218.203178 
L 451.256731 226.070452 
L 452.080671 166.310964 
L 452.355318 164.686565 
L 452.629965 147.263721 
L 452.904612 144.491934 
L 453.179259 139.986762 
L 453.728552 172.038572 
L 454.277846 185.141518 
L 454.552493 206.604622 
L 454.82714 213.630991 
L 455.101787 210.623378 
L 455.376434 193.170662 
L 455.65108 203.197153 
L 455.925727 196.743047 
L 456.200374 182.978614 
L 456.475021 142.246084 
L 457.024315 113.1686 
L 457.298961 111.706677 
L 457.573608 107.732946 
L 457.848255 122.922238 
L 458.397549 171.784377 
L 458.672196 187.98164 
L 458.946843 184.394446 
L 459.496136 160.195697 
L 459.770783 159.295844 
L 460.04543 165.978494 
L 460.86937 110.389151 
L 461.418664 149.43182 
L 461.693311 152.286616 
L 462.242605 110.637744 
L 462.517252 104.600282 
L 462.791898 107.365906 
L 463.066545 106.045913 
L 463.341192 117.730117 
L 463.890486 174.95921 
L 464.165133 175.51238 
L 464.439779 173.319415 
L 464.714426 169.070806 
L 464.989073 181.189534 
L 466.636954 121.481783 
L 466.911601 143.076634 
L 467.186248 145.753883 
L 467.460895 152.344253 
L 467.735542 146.814305 
L 468.284835 165.725455 
L 468.559482 175.215564 
L 468.834129 167.968007 
L 469.108776 173.467506 
L 469.383423 158.44154 
L 469.65807 164.727496 
L 469.932716 158.747517 
L 470.207363 171.892902 
L 470.48201 171.532757 
L 471.031304 153.968028 
L 471.305951 142.065925 
L 471.580598 137.285262 
L 472.129891 142.227308 
L 472.404538 148.440845 
L 472.953832 118.78781 
L 473.228479 100.472025 
L 473.503125 110.295823 
L 474.052419 139.289503 
L 474.87636 89.323752 
L 475.151007 99.221994 
L 475.425653 129.289459 
L 475.974947 141.829169 
L 476.249594 128.073708 
L 476.524241 134.984531 
L 476.798888 135.815497 
L 477.073534 143.093928 
L 477.348181 140.544893 
L 477.622828 141.501136 
L 477.897475 128.137498 
L 478.172122 120.204718 
L 478.446769 127.029559 
L 478.996062 208.039529 
L 479.270709 236.893086 
L 479.545356 238.687478 
L 479.820003 224.884129 
L 480.09465 188.637959 
L 480.643943 97.117504 
L 480.91859 90.220406 
L 481.193237 104.33547 
L 481.467884 131.227967 
L 481.742531 131.016663 
L 482.017178 129.616661 
L 482.291825 115.867507 
L 482.566471 124.668082 
L 482.841118 148.999156 
L 483.115765 159.270292 
L 483.390412 159.873961 
L 483.665059 131.039649 
L 483.939706 115.763635 
L 484.214353 92.916801 
L 484.488999 84.399397 
L 484.763646 88.737449 
L 485.038293 121.514022 
L 485.31294 168.746396 
L 485.587587 190.168678 
L 485.862234 185.722273 
L 486.13688 153.513625 
L 486.411527 143.783236 
L 486.686174 124.719584 
L 486.960821 132.748105 
L 487.235468 130.74961 
L 487.510115 153.686908 
L 487.784762 166.933445 
L 488.059408 171.135892 
L 488.334055 156.256914 
L 488.883349 93.904252 
L 489.157996 75.843395 
L 489.432643 74.210313 
L 489.707289 86.685021 
L 489.981936 118.161597 
L 490.256583 164.556834 
L 490.53123 183.612968 
L 490.805877 194.520716 
L 491.080524 186.844471 
L 491.355171 213.384385 
L 491.629817 214.592366 
L 491.904464 211.578039 
L 492.453758 143.495058 
L 492.728405 119.105488 
L 493.003052 112.033183 
L 493.277698 124.520072 
L 493.826992 169.305963 
L 494.101639 188.107179 
L 494.376286 178.736438 
L 494.650933 178.219274 
L 494.92558 149.084144 
L 495.474873 118.421999 
L 495.74952 122.282896 
L 496.298814 155.216117 
L 496.848107 206.876364 
L 497.397401 181.130641 
L 497.672048 149.365409 
L 497.946695 162.295633 
L 498.221342 166.006125 
L 498.495989 183.462427 
L 498.770635 164.592424 
L 499.319929 92.135882 
L 499.594576 88.552791 
L 500.14387 117.519698 
L 500.418517 102.810308 
L 500.693163 101.221075 
L 500.96781 109.229194 
L 501.242457 145.962232 
L 501.517104 166.390358 
L 501.791751 166.900158 
L 502.341044 118.961689 
L 502.615691 108.912284 
L 502.890338 112.922835 
L 503.439632 88.021568 
L 503.714279 98.322999 
L 503.988926 139.34864 
L 504.263572 199.65342 
L 504.538219 223.226227 
L 504.812866 233.955724 
L 505.36216 207.08287 
L 506.1861 85.268611 
L 506.460747 88.387405 
L 507.010041 123.410687 
L 507.284688 122.665711 
L 507.559335 120.078718 
L 507.833981 126.568045 
L 508.108628 120.73548 
L 508.383275 128.948333 
L 508.657922 118.315318 
L 508.932569 139.470303 
L 509.207216 143.155487 
L 509.481862 182.525882 
L 510.031156 212.594549 
L 511.40439 81.572747 
L 511.679037 68.966726 
L 511.953684 69.705376 
L 512.228331 69.882445 
L 512.502978 70.23153 
L 512.777625 69.651263 
L 513.052271 70.770388 
L 513.326918 70.122364 
L 513.601565 79.532147 
L 514.150859 132.375238 
L 514.425506 142.192847 
L 514.700153 115.376383 
L 514.974799 101.797449 
L 515.249446 95.19263 
L 515.524093 128.581375 
L 516.073387 145.0828 
L 516.348034 125.909467 
L 516.897327 136.827949 
L 517.171974 135.236142 
L 517.721268 100.224372 
L 517.995915 97.081443 
L 518.270562 87.703157 
L 518.819855 97.351297 
L 519.094502 111.602543 
L 519.918443 97.543554 
L 520.19309 88.723146 
L 521.01703 152.280436 
L 521.840971 70.294923 
L 522.664911 98.5763 
L 523.214205 80.398388 
L 523.488852 86.753095 
L 524.038145 116.11881 
L 524.862086 73.192493 
L 525.41138 71.995419 
L 525.686026 70.238939 
L 525.960673 70.887325 
L 526.23532 72.17452 
L 527.059261 102.226778 
L 527.608554 81.426137 
L 527.883201 80.96062 
L 528.157848 98.42539 
L 528.432495 142.817099 
L 528.707142 168.248875 
L 528.981789 175.955055 
L 529.531082 94.891171 
L 529.805729 68.763075 
L 530.080376 79.03797 
L 530.355023 102.496298 
L 530.904317 159.379133 
L 531.178963 167.841745 
L 531.45361 155.642465 
L 531.728257 135.675438 
L 532.277551 80.988152 
L 532.552198 77.152753 
L 533.101491 96.394421 
L 533.925432 67.711851 
L 534.200079 77.40449 
L 534.474726 106.62947 
L 534.749372 151.397452 
L 535.024019 176.077414 
L 535.298666 171.635192 
L 535.84796 113.127967 
L 536.122607 102.569874 
L 536.6719 129.4324 
L 536.946547 134.599104 
L 538.319781 67.675285 
L 539.143722 97.532738 
L 539.693016 105.772906 
L 539.967663 110.999714 
L 540.242309 98.643913 
L 540.791603 90.129202 
L 541.06625 109.82765 
L 541.340897 109.502734 
L 541.615544 108.388325 
L 541.89019 101.073463 
L 542.439484 126.688081 
L 542.714131 122.402788 
L 543.263425 104.447031 
L 543.538072 108.793422 
L 544.362012 68.75095 
L 544.636659 67.920408 
L 544.911306 68.413736 
L 545.735246 112.680259 
L 546.009893 101.232632 
L 546.28454 99.025634 
L 546.559187 112.718154 
L 547.108481 202.117043 
L 547.383127 220.33313 
L 547.657774 195.811163 
L 547.932421 194.916154 
L 548.207068 199.952033 
L 548.481715 222.809719 
L 548.756362 214.272889 
L 549.305655 144.647696 
L 549.580302 127.180397 
L 549.854949 145.57142 
L 550.129596 141.051882 
L 550.404243 139.552689 
L 551.228183 79.41118 
L 551.50283 86.653379 
L 552.052124 147.588546 
L 552.326771 145.441102 
L 552.876064 101.907221 
L 553.150711 106.663615 
L 553.700005 129.698576 
L 553.974652 120.744127 
L 554.523945 80.944483 
L 554.798592 70.750872 
L 555.073239 82.965955 
L 555.622533 137.695419 
L 555.89718 148.455645 
L 556.995767 80.324595 
L 557.270414 71.317586 
L 557.545061 71.443134 
L 558.094354 67.709601 
L 558.369001 66.96 
L 558.918295 89.095787 
L 559.192942 109.646669 
L 559.467589 109.885323 
L 559.742236 108.101684 
L 560.016882 102.333216 
L 560.566176 113.174184 
L 561.390117 69.106622 
L 561.664763 83.743494 
L 562.488704 163.387995 
L 562.763351 153.117645 
L 563.037998 122.480412 
L 563.861938 77.937873 
L 564.136585 69.400664 
L 564.411232 70.021257 
L 564.685879 70.341375 
L 565.509819 116.103297 
L 566.608407 103.766632 
L 567.1577 100.59704 
L 567.981641 72.674516 
L 568.805582 101.959012 
L 569.354875 80.331859 
L 569.629522 80.150264 
L 570.178816 101.249492 
L 570.453463 91.741294 
L 570.728109 90.831087 
L 571.002756 89.278566 
L 571.277403 107.308883 
L 571.55205 106.888038 
L 571.826697 107.176315 
L 572.101344 87.706356 
L 572.650637 69.131741 
L 573.199931 73.575345 
L 573.474578 74.418526 
L 573.749225 82.350331 
L 574.023872 103.35409 
L 574.298518 135.170219 
L 574.573165 148.512388 
L 574.847812 135.435257 
L 575.122459 101.656269 
L 575.397106 91.818701 
L 575.671753 110.640138 
L 575.9464 139.859624 
L 576.221046 141.098533 
L 576.77034 82.894891 
L 577.044987 77.77987 
L 577.319634 87.388885 
L 577.594281 118.589987 
L 577.868927 132.658419 
L 578.143574 159.029144 
L 578.967515 103.679828 
L 579.242162 99.389819 
L 579.516809 97.325546 
L 579.791455 87.936562 
L 580.066102 89.405903 
L 580.340749 92.487146 
L 580.615396 116.404042 
L 580.890043 119.163451 
L 581.16469 131.723734 
L 581.439337 120.850276 
L 581.713983 119.714091 
L 581.98863 93.554724 
L 582.263277 79.807377 
L 582.537924 78.380395 
L 582.812571 91.11144 
L 583.087218 113.041633 
L 583.361864 113.59099 
L 583.636511 113.061936 
L 584.185805 80.938791 
L 584.460452 69.948747 
L 584.735099 68.800943 
L 585.009746 69.1917 
L 585.559039 69.375157 
L 585.833686 69.592279 
L 586.108333 71.13637 
L 586.38298 94.790588 
L 586.932273 166.240505 
L 587.20692 157.407691 
L 587.756214 97.522817 
L 588.030861 94.584525 
L 588.305508 105.383296 
L 589.129448 72.612235 
L 589.404095 71.687499 
L 589.953389 70.710266 
L 590.502682 90.345574 
L 590.777329 116.971498 
L 591.326623 130.08562 
L 591.60127 113.526784 
L 591.875917 106.171886 
L 592.150564 109.244861 
L 592.42521 110.080923 
L 592.699857 124.587133 
L 592.974504 129.101629 
L 593.249151 142.408243 
L 594.073091 103.582832 
L 594.347738 102.830836 
L 594.622385 93.14529 
L 594.897032 96.016973 
L 595.171679 100.383107 
L 595.446326 123.569819 
L 595.995619 135.682223 
L 596.270266 132.69728 
L 596.544913 151.174195 
L 596.81956 179.341264 
L 597.094207 195.902458 
L 597.368854 179.752468 
L 597.918147 118.566612 
L 598.192794 105.02363 
L 598.467441 101.831341 
L 598.742088 109.0178 
L 599.016735 119.241418 
L 599.291382 141.762767 
L 599.566028 144.459162 
L 599.840675 151.480245 
L 600.115322 132.448687 
L 600.389969 123.279419 
L 600.664616 96.165471 
L 601.21391 106.130449 
L 601.488556 133.489276 
L 601.763203 122.828531 
L 602.03785 133.099621 
L 602.312497 125.049217 
L 602.587144 146.125142 
L 602.861791 126.854849 
L 603.136437 138.337868 
L 603.411084 143.441315 
L 603.685731 168.659429 
L 603.960378 161.600461 
L 604.784319 89.320355 
L 605.058965 87.45273 
L 605.333612 99.843056 
L 605.608259 135.961049 
L 605.882906 154.127622 
L 606.157553 154.735104 
L 606.4322 137.639877 
L 606.706846 144.12428 
L 606.981493 145.057428 
L 607.25614 143.385024 
L 607.530787 123.702415 
L 607.805434 112.215059 
L 608.080081 106.007648 
L 608.629374 81.573253 
L 608.904021 80.967632 
L 609.453315 100.328162 
L 610.002609 107.969937 
L 610.277256 120.553496 
L 610.551902 126.220224 
L 610.826549 146.11223 
L 611.101196 147.311157 
L 611.375843 151.753694 
L 611.925137 115.420214 
L 612.199783 100.92342 
L 612.47443 100.362488 
L 612.749077 113.66687 
L 613.023724 132.944175 
L 613.298371 169.248732 
L 613.573018 178.311653 
L 613.847665 168.383269 
L 614.122311 122.802933 
L 614.396958 99.583413 
L 614.671605 104.265915 
L 614.946252 127.004756 
L 615.220899 133.020642 
L 615.770192 107.398805 
L 616.044839 101.365526 
L 616.594133 98.584866 
L 616.86878 98.503275 
L 617.143427 97.956466 
L 617.418074 106.204576 
L 617.967367 152.583386 
L 618.242014 153.613133 
L 618.516661 133.184763 
L 618.791308 136.334892 
L 619.065955 149.162319 
L 619.340601 146.429339 
L 619.889895 84.887738 
L 620.164542 70.758082 
L 620.439189 69.833662 
L 620.988483 71.624395 
L 621.263129 81.801146 
L 621.812423 117.9743 
L 622.08707 118.142785 
L 622.636364 82.441328 
L 622.636364 82.441328 
" clip-path="url(#p374f086f20)" style="fill: none; stroke: #ff0000; stroke-opacity: 0.1; stroke-width: 2; stroke-linecap: square"/>
   </g>
   <g id="patch_3">
    <path d="M 90 384.48 
L 90 51.84 
" style="fill: none; stroke: #000000; stroke-width: 0.8; stroke-linejoin: miter; stroke-linecap: square"/>
   </g>
   <g id="patch_4">
    <path d="M 648 384.48 
L 648 51.84 
" style="fill: none; stroke: #000000; stroke-width: 0.8; stroke-linejoin: miter; stroke-linecap: square"/>
   </g>
   <g id="patch_5">
    <path d="M 90 384.48 
L 648 384.48 
" style="fill: none; stroke: #000000; stroke-width: 0.8; stroke-linejoin: miter; stroke-linecap: square"/>
   </g>
   <g id="patch_6">
    <path d="M 90 51.84 
L 648 51.84 
" style="fill: none; stroke: #000000; stroke-width: 0.8; stroke-linejoin: miter; stroke-linecap: square"/>
   </g>
   <g id="text_20">
    <!-- two_action_scale_min -->
    <g transform="translate(292.964687 45.84) scale(0.14 -0.14)">
     <defs>
      <path id="DejaVuSans-6f" d="M 1959 3097 
Q 1497 3097 1228 2736 
Q 959 2375 959 1747 
Q 959 1119 1226 758 
Q 1494 397 1959 397 
Q 2419 397 2687 759 
Q 2956 1122 2956 1747 
Q 2956 2369 2687 2733 
Q 2419 3097 1959 3097 
z
M 1959 3584 
Q 2709 3584 3137 3096 
Q 3566 2609 3566 1747 
Q 3566 888 3137 398 
Q 2709 -91 1959 -91 
Q 1206 -91 779 398 
Q 353 888 353 1747 
Q 353 2609 779 3096 
Q 1206 3584 1959 3584 
z
" transform="scale(0.015625)"/>
      <path id="DejaVuSans-5f" d="M 3263 -1063 
L 3263 -1509 
L -63 -1509 
L -63 -1063 
L 3263 -1063 
z
" transform="scale(0.015625)"/>
      <path id="DejaVuSans-63" d="M 3122 3366 
L 3122 2828 
Q 2878 2963 2633 3030 
Q 2388 3097 2138 3097 
Q 1578 3097 1268 2742 
Q 959 2388 959 1747 
Q 959 1106 1268 751 
Q 1578 397 2138 397 
Q 2388 397 2633 464 
Q 2878 531 3122 666 
L 3122 134 
Q 2881 22 2623 -34 
Q 2366 -91 2075 -91 
Q 1284 -91 818 406 
Q 353 903 353 1747 
Q 353 2603 823 3093 
Q 1294 3584 2113 3584 
Q 2378 3584 2631 3529 
Q 2884 3475 3122 3366 
z
" transform="scale(0.015625)"/>
      <path id="DejaVuSans-6e" d="M 3513 2113 
L 3513 0 
L 2938 0 
L 2938 2094 
Q 2938 2591 2744 2837 
Q 2550 3084 2163 3084 
Q 1697 3084 1428 2787 
Q 1159 2491 1159 1978 
L 1159 0 
L 581 0 
L 581 3500 
L 1159 3500 
L 1159 2956 
Q 1366 3272 1645 3428 
Q 1925 3584 2291 3584 
Q 2894 3584 3203 3211 
Q 3513 2838 3513 2113 
z
" transform="scale(0.015625)"/>
      <path id="DejaVuSans-6c" d="M 603 4863 
L 1178 4863 
L 1178 0 
L 603 0 
L 603 4863 
z
" transform="scale(0.015625)"/>
     </defs>
     <use xlink:href="#DejaVuSans-74"/>
     <use xlink:href="#DejaVuSans-77" x="39.208984"/>
     <use xlink:href="#DejaVuSans-6f" x="120.996094"/>
     <use xlink:href="#DejaVuSans-5f" x="182.177734"/>
     <use xlink:href="#DejaVuSans-61" x="232.177734"/>
     <use xlink:href="#DejaVuSans-63" x="293.457031"/>
     <use xlink:href="#DejaVuSans-74" x="348.4375"/>
     <use xlink:href="#DejaVuSans-69" x="387.646484"/>
     <use xlink:href="#DejaVuSans-6f" x="415.429688"/>
     <use xlink:href="#DejaVuSans-6e" x="476.611328"/>
     <use xlink:href="#DejaVuSans-5f" x="539.990234"/>
     <use xlink:href="#DejaVuSans-73" x="589.990234"/>
     <use xlink:href="#DejaVuSans-63" x="642.089844"/>
     <use xlink:href="#DejaVuSans-61" x="697.070312"/>
     <use xlink:href="#DejaVuSans-6c" x="758.349609"/>
     <use xlink:href="#DejaVuSans-65" x="786.132812"/>
     <use xlink:href="#DejaVuSans-5f" x="847.65625"/>
     <use xlink:href="#DejaVuSans-6d" x="897.65625"/>
     <use xlink:href="#DejaVuSans-69" x="995.068359"/>
     <use xlink:href="#DejaVuSans-6e" x="1022.851562"/>
    </g>
   </g>
   <g id="legend_1">
    <g id="patch_7">
     <path d="M 97 74.79625 
L 225.382812 74.79625 
Q 227.382812 74.79625 227.382812 72.79625 
L 227.382812 58.84 
Q 227.382812 56.84 225.382812 56.84 
L 97 56.84 
Q 95 56.84 95 58.84 
L 95 72.79625 
Q 95 74.79625 97 74.79625 
z
" style="fill: #ffffff; opacity: 0.8; stroke: #cccccc; stroke-linejoin: miter"/>
    </g>
    <g id="line2d_35">
     <path d="M 99 64.938437 
L 109 64.938437 
L 119 64.938437 
" style="fill: none; stroke: #ff0000; stroke-width: 1.5; stroke-linecap: square"/>
    </g>
    <g id="text_21">
     <!-- reward_avg_1_runs -->
     <g transform="translate(127 68.438437) scale(0.1 -0.1)">
      <defs>
       <path id="DejaVuSans-76" d="M 191 3500 
L 800 3500 
L 1894 563 
L 2988 3500 
L 3597 3500 
L 2284 0 
L 1503 0 
L 191 3500 
z
" transform="scale(0.015625)"/>
       <path id="DejaVuSans-67" d="M 2906 1791 
Q 2906 2416 2648 2759 
Q 2391 3103 1925 3103 
Q 1463 3103 1205 2759 
Q 947 2416 947 1791 
Q 947 1169 1205 825 
Q 1463 481 1925 481 
Q 2391 481 2648 825 
Q 2906 1169 2906 1791 
z
M 3481 434 
Q 3481 -459 3084 -895 
Q 2688 -1331 1869 -1331 
Q 1566 -1331 1297 -1286 
Q 1028 -1241 775 -1147 
L 775 -588 
Q 1028 -725 1275 -790 
Q 1522 -856 1778 -856 
Q 2344 -856 2625 -561 
Q 2906 -266 2906 331 
L 2906 616 
Q 2728 306 2450 153 
Q 2172 0 1784 0 
Q 1141 0 747 490 
Q 353 981 353 1791 
Q 353 2603 747 3093 
Q 1141 3584 1784 3584 
Q 2172 3584 2450 3431 
Q 2728 3278 2906 2969 
L 2906 3500 
L 3481 3500 
L 3481 434 
z
" transform="scale(0.015625)"/>
       <path id="DejaVuSans-75" d="M 544 1381 
L 544 3500 
L 1119 3500 
L 1119 1403 
Q 1119 906 1312 657 
Q 1506 409 1894 409 
Q 2359 409 2629 706 
Q 2900 1003 2900 1516 
L 2900 3500 
L 3475 3500 
L 3475 0 
L 2900 0 
L 2900 538 
Q 2691 219 2414 64 
Q 2138 -91 1772 -91 
Q 1169 -91 856 284 
Q 544 659 544 1381 
z
M 1991 3584 
L 1991 3584 
z
" transform="scale(0.015625)"/>
      </defs>
      <use xlink:href="#DejaVuSans-72"/>
      <use xlink:href="#DejaVuSans-65" x="38.863281"/>
      <use xlink:href="#DejaVuSans-77" x="100.386719"/>
      <use xlink:href="#DejaVuSans-61" x="182.173828"/>
      <use xlink:href="#DejaVuSans-72" x="243.453125"/>
      <use xlink:href="#DejaVuSans-64" x="282.816406"/>
      <use xlink:href="#DejaVuSans-5f" x="346.292969"/>
      <use xlink:href="#DejaVuSans-61" x="396.292969"/>
      <use xlink:href="#DejaVuSans-76" x="457.572266"/>
      <use xlink:href="#DejaVuSans-67" x="516.751953"/>
      <use xlink:href="#DejaVuSans-5f" x="580.228516"/>
      <use xlink:href="#DejaVuSans-31" x="630.228516"/>
      <use xlink:href="#DejaVuSans-5f" x="693.851562"/>
      <use xlink:href="#DejaVuSans-72" x="743.851562"/>
      <use xlink:href="#DejaVuSans-75" x="784.964844"/>
      <use xlink:href="#DejaVuSans-6e" x="848.34375"/>
      <use xlink:href="#DejaVuSans-73" x="911.722656"/>
     </g>
    </g>
   </g>
  </g>
 </g>
 <defs>
  <clipPath id="p374f086f20">
   <rect x="90" y="51.84" width="558" height="332.64"/>
  </clipPath>
 </defs>
</svg>
