<?xml version="1.0" encoding="utf-8" standalone="no"?>
<!DOCTYPE svg PUBLIC "-//W3C//DTD SVG 1.1//EN"
  "http://www.w3.org/Graphics/SVG/1.1/DTD/svg11.dtd">
<svg xmlns:xlink="http://www.w3.org/1999/xlink" width="460.8pt" height="345.6pt" viewBox="0 0 460.8 345.6" xmlns="http://www.w3.org/2000/svg" version="1.1">
 <metadata>
  <rdf:RDF xmlns:dc="http://purl.org/dc/elements/1.1/" xmlns:cc="http://creativecommons.org/ns#" xmlns:rdf="http://www.w3.org/1999/02/22-rdf-syntax-ns#">
   <cc:Work>
    <dc:type rdf:resource="http://purl.org/dc/dcmitype/StillImage"/>
    <dc:date>2024-05-05T11:53:02.992474</dc:date>
    <dc:format>image/svg+xml</dc:format>
    <dc:creator>
     <cc:Agent>
      <dc:title>Matplotlib v3.7.2, https://matplotlib.org/</dc:title>
     </cc:Agent>
    </dc:creator>
   </cc:Work>
  </rdf:RDF>
 </metadata>
 <defs>
  <style type="text/css">*{stroke-linejoin: round; stroke-linecap: butt}</style>
 </defs>
 <g id="figure_1">
  <g id="patch_1">
   <path d="M 0 345.6 
L 460.8 345.6 
L 460.8 0 
L 0 0 
z
" style="fill: #ffffff"/>
  </g>
  <g id="axes_1">
   <g id="patch_2">
    <path d="M 57.44 136.24 
L 144.22482 136.24 
L 144.22482 25.44 
L 57.44 25.44 
z
" style="fill: #ffffff"/>
   </g>
   <g id="matplotlib.axis_1">
    <g id="xtick_1">
     <g id="line2d_1">
      <defs>
       <path id="m47e1bc19a9" d="M 0 0 
L 0 3.5 
" style="stroke: #000000; stroke-width: 0.8"/>
      </defs>
      <g>
       <use xlink:href="#m47e1bc19a9" x="61.384765" y="136.24" style="stroke: #000000; stroke-width: 0.8"/>
      </g>
     </g>
     <g id="text_1">
      <!-- 0 -->
      <g transform="translate(58.203515 150.838437) scale(0.1 -0.1)">
       <defs>
        <path id="DejaVuSans-30" d="M 2034 4250 
Q 1547 4250 1301 3770 
Q 1056 3291 1056 2328 
Q 1056 1369 1301 889 
Q 1547 409 2034 409 
Q 2525 409 2770 889 
Q 3016 1369 3016 2328 
Q 3016 3291 2770 3770 
Q 2525 4250 2034 4250 
z
M 2034 4750 
Q 2819 4750 3233 4129 
Q 3647 3509 3647 2328 
Q 3647 1150 3233 529 
Q 2819 -91 2034 -91 
Q 1250 -91 836 529 
Q 422 1150 422 2328 
Q 422 3509 836 4129 
Q 1250 4750 2034 4750 
z
" transform="scale(0.015625)"/>
       </defs>
       <use xlink:href="#DejaVuSans-30"/>
      </g>
     </g>
    </g>
    <g id="xtick_2">
     <g id="line2d_2">
      <g>
       <use xlink:href="#m47e1bc19a9" x="141.076978" y="136.24" style="stroke: #000000; stroke-width: 0.8"/>
      </g>
     </g>
     <g id="text_2">
      <!-- 100 -->
      <g transform="translate(131.533228 150.838437) scale(0.1 -0.1)">
       <defs>
        <path id="DejaVuSans-31" d="M 794 531 
L 1825 531 
L 1825 4091 
L 703 3866 
L 703 4441 
L 1819 4666 
L 2450 4666 
L 2450 531 
L 3481 531 
L 3481 0 
L 794 0 
L 794 531 
z
" transform="scale(0.015625)"/>
       </defs>
       <use xlink:href="#DejaVuSans-31"/>
       <use xlink:href="#DejaVuSans-30" x="63.623047"/>
       <use xlink:href="#DejaVuSans-30" x="127.246094"/>
      </g>
     </g>
    </g>
    <g id="text_3">
     <!-- Iteration -->
     <g transform="translate(79.623816 164.516562) scale(0.1 -0.1)">
      <defs>
       <path id="DejaVuSans-49" d="M 628 4666 
L 1259 4666 
L 1259 0 
L 628 0 
L 628 4666 
z
" transform="scale(0.015625)"/>
       <path id="DejaVuSans-74" d="M 1172 4494 
L 1172 3500 
L 2356 3500 
L 2356 3053 
L 1172 3053 
L 1172 1153 
Q 1172 725 1289 603 
Q 1406 481 1766 481 
L 2356 481 
L 2356 0 
L 1766 0 
Q 1100 0 847 248 
Q 594 497 594 1153 
L 594 3053 
L 172 3053 
L 172 3500 
L 594 3500 
L 594 4494 
L 1172 4494 
z
" transform="scale(0.015625)"/>
       <path id="DejaVuSans-65" d="M 3597 1894 
L 3597 1613 
L 953 1613 
Q 991 1019 1311 708 
Q 1631 397 2203 397 
Q 2534 397 2845 478 
Q 3156 559 3463 722 
L 3463 178 
Q 3153 47 2828 -22 
Q 2503 -91 2169 -91 
Q 1331 -91 842 396 
Q 353 884 353 1716 
Q 353 2575 817 3079 
Q 1281 3584 2069 3584 
Q 2775 3584 3186 3129 
Q 3597 2675 3597 1894 
z
M 3022 2063 
Q 3016 2534 2758 2815 
Q 2500 3097 2075 3097 
Q 1594 3097 1305 2825 
Q 1016 2553 972 2059 
L 3022 2063 
z
" transform="scale(0.015625)"/>
       <path id="DejaVuSans-72" d="M 2631 2963 
Q 2534 3019 2420 3045 
Q 2306 3072 2169 3072 
Q 1681 3072 1420 2755 
Q 1159 2438 1159 1844 
L 1159 0 
L 581 0 
L 581 3500 
L 1159 3500 
L 1159 2956 
Q 1341 3275 1631 3429 
Q 1922 3584 2338 3584 
Q 2397 3584 2469 3576 
Q 2541 3569 2628 3553 
L 2631 2963 
z
" transform="scale(0.015625)"/>
       <path id="DejaVuSans-61" d="M 2194 1759 
Q 1497 1759 1228 1600 
Q 959 1441 959 1056 
Q 959 750 1161 570 
Q 1363 391 1709 391 
Q 2188 391 2477 730 
Q 2766 1069 2766 1631 
L 2766 1759 
L 2194 1759 
z
M 3341 1997 
L 3341 0 
L 2766 0 
L 2766 531 
Q 2569 213 2275 61 
Q 1981 -91 1556 -91 
Q 1019 -91 701 211 
Q 384 513 384 1019 
Q 384 1609 779 1909 
Q 1175 2209 1959 2209 
L 2766 2209 
L 2766 2266 
Q 2766 2663 2505 2880 
Q 2244 3097 1772 3097 
Q 1472 3097 1187 3025 
Q 903 2953 641 2809 
L 641 3341 
Q 956 3463 1253 3523 
Q 1550 3584 1831 3584 
Q 2591 3584 2966 3190 
Q 3341 2797 3341 1997 
z
" transform="scale(0.015625)"/>
       <path id="DejaVuSans-69" d="M 603 3500 
L 1178 3500 
L 1178 0 
L 603 0 
L 603 3500 
z
M 603 4863 
L 1178 4863 
L 1178 4134 
L 603 4134 
L 603 4863 
z
" transform="scale(0.015625)"/>
       <path id="DejaVuSans-6f" d="M 1959 3097 
Q 1497 3097 1228 2736 
Q 959 2375 959 1747 
Q 959 1119 1226 758 
Q 1494 397 1959 397 
Q 2419 397 2687 759 
Q 2956 1122 2956 1747 
Q 2956 2369 2687 2733 
Q 2419 3097 1959 3097 
z
M 1959 3584 
Q 2709 3584 3137 3096 
Q 3566 2609 3566 1747 
Q 3566 888 3137 398 
Q 2709 -91 1959 -91 
Q 1206 -91 779 398 
Q 353 888 353 1747 
Q 353 2609 779 3096 
Q 1206 3584 1959 3584 
z
" transform="scale(0.015625)"/>
       <path id="DejaVuSans-6e" d="M 3513 2113 
L 3513 0 
L 2938 0 
L 2938 2094 
Q 2938 2591 2744 2837 
Q 2550 3084 2163 3084 
Q 1697 3084 1428 2787 
Q 1159 2491 1159 1978 
L 1159 0 
L 581 0 
L 581 3500 
L 1159 3500 
L 1159 2956 
Q 1366 3272 1645 3428 
Q 1925 3584 2291 3584 
Q 2894 3584 3203 3211 
Q 3513 2838 3513 2113 
z
" transform="scale(0.015625)"/>
      </defs>
      <use xlink:href="#DejaVuSans-49"/>
      <use xlink:href="#DejaVuSans-74" x="29.492188"/>
      <use xlink:href="#DejaVuSans-65" x="68.701172"/>
      <use xlink:href="#DejaVuSans-72" x="130.224609"/>
      <use xlink:href="#DejaVuSans-61" x="171.337891"/>
      <use xlink:href="#DejaVuSans-74" x="232.617188"/>
      <use xlink:href="#DejaVuSans-69" x="271.826172"/>
      <use xlink:href="#DejaVuSans-6f" x="299.609375"/>
      <use xlink:href="#DejaVuSans-6e" x="360.791016"/>
     </g>
    </g>
   </g>
   <g id="matplotlib.axis_2">
    <g id="ytick_1">
     <g id="line2d_3">
      <defs>
       <path id="m665a42ed31" d="M 0 0 
L -3.5 0 
" style="stroke: #000000; stroke-width: 0.8"/>
      </defs>
      <g>
       <use xlink:href="#m665a42ed31" x="57.44" y="131.239362" style="stroke: #000000; stroke-width: 0.8"/>
      </g>
     </g>
     <g id="text_4">
      <!-- 125 -->
      <g transform="translate(31.3525 135.038581) scale(0.1 -0.1)">
       <defs>
        <path id="DejaVuSans-32" d="M 1228 531 
L 3431 531 
L 3431 0 
L 469 0 
L 469 531 
Q 828 903 1448 1529 
Q 2069 2156 2228 2338 
Q 2531 2678 2651 2914 
Q 2772 3150 2772 3378 
Q 2772 3750 2511 3984 
Q 2250 4219 1831 4219 
Q 1534 4219 1204 4116 
Q 875 4013 500 3803 
L 500 4441 
Q 881 4594 1212 4672 
Q 1544 4750 1819 4750 
Q 2544 4750 2975 4387 
Q 3406 4025 3406 3419 
Q 3406 3131 3298 2873 
Q 3191 2616 2906 2266 
Q 2828 2175 2409 1742 
Q 1991 1309 1228 531 
z
" transform="scale(0.015625)"/>
        <path id="DejaVuSans-35" d="M 691 4666 
L 3169 4666 
L 3169 4134 
L 1269 4134 
L 1269 2991 
Q 1406 3038 1543 3061 
Q 1681 3084 1819 3084 
Q 2600 3084 3056 2656 
Q 3513 2228 3513 1497 
Q 3513 744 3044 326 
Q 2575 -91 1722 -91 
Q 1428 -91 1123 -41 
Q 819 9 494 109 
L 494 744 
Q 775 591 1075 516 
Q 1375 441 1709 441 
Q 2250 441 2565 725 
Q 2881 1009 2881 1497 
Q 2881 1984 2565 2268 
Q 2250 2553 1709 2553 
Q 1456 2553 1204 2497 
Q 953 2441 691 2322 
L 691 4666 
z
" transform="scale(0.015625)"/>
       </defs>
       <use xlink:href="#DejaVuSans-31"/>
       <use xlink:href="#DejaVuSans-32" x="63.623047"/>
       <use xlink:href="#DejaVuSans-35" x="127.246094"/>
      </g>
     </g>
    </g>
    <g id="ytick_2">
     <g id="line2d_4">
      <g>
       <use xlink:href="#m665a42ed31" x="57.44" y="103.863358" style="stroke: #000000; stroke-width: 0.8"/>
      </g>
     </g>
     <g id="text_5">
      <!-- 150 -->
      <g transform="translate(31.3525 107.662577) scale(0.1 -0.1)">
       <use xlink:href="#DejaVuSans-31"/>
       <use xlink:href="#DejaVuSans-35" x="63.623047"/>
       <use xlink:href="#DejaVuSans-30" x="127.246094"/>
      </g>
     </g>
    </g>
    <g id="ytick_3">
     <g id="line2d_5">
      <g>
       <use xlink:href="#m665a42ed31" x="57.44" y="76.487354" style="stroke: #000000; stroke-width: 0.8"/>
      </g>
     </g>
     <g id="text_6">
      <!-- 175 -->
      <g transform="translate(31.3525 80.286573) scale(0.1 -0.1)">
       <defs>
        <path id="DejaVuSans-37" d="M 525 4666 
L 3525 4666 
L 3525 4397 
L 1831 0 
L 1172 0 
L 2766 4134 
L 525 4134 
L 525 4666 
z
" transform="scale(0.015625)"/>
       </defs>
       <use xlink:href="#DejaVuSans-31"/>
       <use xlink:href="#DejaVuSans-37" x="63.623047"/>
       <use xlink:href="#DejaVuSans-35" x="127.246094"/>
      </g>
     </g>
    </g>
    <g id="ytick_4">
     <g id="line2d_6">
      <g>
       <use xlink:href="#m665a42ed31" x="57.44" y="49.11135" style="stroke: #000000; stroke-width: 0.8"/>
      </g>
     </g>
     <g id="text_7">
      <!-- 200 -->
      <g transform="translate(31.3525 52.910569) scale(0.1 -0.1)">
       <use xlink:href="#DejaVuSans-32"/>
       <use xlink:href="#DejaVuSans-30" x="63.623047"/>
       <use xlink:href="#DejaVuSans-30" x="127.246094"/>
      </g>
     </g>
    </g>
    <g id="text_8">
     <!-- Fitness -->
     <g transform="translate(25.272813 98.157187) rotate(-90) scale(0.1 -0.1)">
      <defs>
       <path id="DejaVuSans-46" d="M 628 4666 
L 3309 4666 
L 3309 4134 
L 1259 4134 
L 1259 2759 
L 3109 2759 
L 3109 2228 
L 1259 2228 
L 1259 0 
L 628 0 
L 628 4666 
z
" transform="scale(0.015625)"/>
       <path id="DejaVuSans-73" d="M 2834 3397 
L 2834 2853 
Q 2591 2978 2328 3040 
Q 2066 3103 1784 3103 
Q 1356 3103 1142 2972 
Q 928 2841 928 2578 
Q 928 2378 1081 2264 
Q 1234 2150 1697 2047 
L 1894 2003 
Q 2506 1872 2764 1633 
Q 3022 1394 3022 966 
Q 3022 478 2636 193 
Q 2250 -91 1575 -91 
Q 1294 -91 989 -36 
Q 684 19 347 128 
L 347 722 
Q 666 556 975 473 
Q 1284 391 1588 391 
Q 1994 391 2212 530 
Q 2431 669 2431 922 
Q 2431 1156 2273 1281 
Q 2116 1406 1581 1522 
L 1381 1569 
Q 847 1681 609 1914 
Q 372 2147 372 2553 
Q 372 3047 722 3315 
Q 1072 3584 1716 3584 
Q 2034 3584 2315 3537 
Q 2597 3491 2834 3397 
z
" transform="scale(0.015625)"/>
      </defs>
      <use xlink:href="#DejaVuSans-46"/>
      <use xlink:href="#DejaVuSans-69" x="50.269531"/>
      <use xlink:href="#DejaVuSans-74" x="78.052734"/>
      <use xlink:href="#DejaVuSans-6e" x="117.261719"/>
      <use xlink:href="#DejaVuSans-65" x="180.640625"/>
      <use xlink:href="#DejaVuSans-73" x="242.164062"/>
      <use xlink:href="#DejaVuSans-73" x="294.263672"/>
     </g>
    </g>
   </g>
   <g id="line2d_7">
    <path d="M 61.384765 30.476364 
L 62.181687 71.477303 
L 62.978609 71.477303 
L 63.775531 95.47624 
L 64.572453 107.158064 
L 65.369375 107.158064 
L 66.166297 114.17425 
L 66.963219 114.17425 
L 67.760142 115.990607 
L 68.557064 120.062958 
L 69.353986 120.113314 
L 70.150908 121.822811 
L 70.94783 121.822811 
L 71.744752 121.977279 
L 72.541674 121.977279 
L 73.338597 121.996228 
L 74.135519 122.016537 
L 74.932441 122.016537 
L 75.729363 122.933107 
L 76.526285 122.933107 
L 77.323207 123.470223 
L 78.120129 123.529007 
L 78.917051 123.549697 
L 79.713974 123.552048 
L 80.510896 123.552048 
L 81.307818 123.552253 
L 82.10474 123.554656 
L 82.901662 123.555315 
L 83.698584 123.555315 
L 84.495506 123.555315 
L 85.292428 123.555315 
L 86.089351 123.555315 
L 86.886273 123.555315 
L 87.683195 123.555315 
L 88.480117 123.555802 
L 89.277039 123.555802 
L 90.073961 123.555802 
L 90.870883 123.555802 
L 91.667806 123.555802 
L 92.464728 123.556179 
L 93.26165 123.556179 
L 94.058572 123.556179 
L 94.855494 123.556179 
L 95.652416 123.556179 
L 96.449338 123.556179 
L 97.24626 123.556179 
L 98.043183 123.556179 
L 98.840105 123.556179 
L 99.637027 123.556179 
L 100.433949 123.556179 
L 101.230871 123.556246 
L 102.027793 123.556246 
L 102.824715 123.556246 
L 103.621638 123.556246 
L 104.41856 123.556246 
L 105.215482 123.556246 
L 106.012404 123.556246 
L 106.809326 123.556258 
L 107.606248 123.556258 
L 108.40317 123.556258 
L 109.200092 123.556258 
L 109.997015 123.556258 
L 110.793937 123.556258 
L 111.590859 123.556258 
L 112.387781 123.556258 
L 113.184703 123.556258 
L 113.981625 123.556258 
L 114.778547 123.556258 
L 115.575469 123.556258 
L 116.372392 123.556258 
L 117.169314 123.556258 
L 117.966236 123.556258 
L 118.763158 123.556258 
L 119.56008 123.556258 
L 120.357002 123.556258 
L 121.153924 123.556258 
L 121.950847 123.556258 
L 122.747769 123.556258 
L 123.544691 123.556258 
L 124.341613 123.556258 
L 125.138535 123.556258 
L 125.935457 123.556258 
L 126.732379 123.556258 
L 127.529301 123.556258 
L 128.326224 123.556258 
L 129.123146 123.556258 
L 129.920068 123.556258 
L 130.71699 123.556258 
L 131.513912 123.556258 
L 132.310834 123.556258 
L 133.107756 123.556258 
L 133.904679 123.556258 
L 134.701601 123.556258 
L 135.498523 123.556259 
L 136.295445 123.556259 
L 137.092367 123.556259 
L 137.889289 123.556259 
L 138.686211 123.556259 
L 139.483133 123.556259 
L 140.280056 123.556259 
" clip-path="url(#pe4f8a951bd)" style="fill: none; stroke: #4682b4; stroke-opacity: 0.8; stroke-width: 0.5; stroke-linecap: square"/>
   </g>
   <g id="line2d_8">
    <path d="M 61.384765 95.599336 
L 62.181687 107.196682 
L 62.978609 107.196682 
L 63.775531 107.196682 
L 64.572453 107.196682 
L 65.369375 107.196682 
L 66.166297 114.176826 
L 66.963219 114.176826 
L 67.760142 118.077207 
L 68.557064 118.077207 
L 69.353986 118.077207 
L 70.150908 118.077207 
L 70.94783 118.911355 
L 71.744752 122.251545 
L 72.541674 122.251545 
L 73.338597 124.533036 
L 74.135519 125.927231 
L 74.932441 130.313378 
L 75.729363 130.313378 
L 76.526285 130.631323 
L 77.323207 130.654499 
L 78.120129 130.654499 
L 78.917051 130.654499 
L 79.713974 130.654499 
L 80.510896 130.657436 
L 81.307818 130.657436 
L 82.10474 130.657436 
L 82.901662 130.657436 
L 83.698584 130.657436 
L 84.495506 130.657436 
L 85.292428 130.657436 
L 86.089351 130.657436 
L 86.886273 130.657436 
L 87.683195 130.657436 
L 88.480117 130.657436 
L 89.277039 130.657436 
L 90.073961 130.657436 
L 90.870883 130.657436 
L 91.667806 130.657436 
L 92.464728 130.657436 
L 93.26165 130.657436 
L 94.058572 130.657436 
L 94.855494 130.657436 
L 95.652416 130.657436 
L 96.449338 130.657436 
L 97.24626 130.657436 
L 98.043183 130.657436 
L 98.840105 130.657436 
L 99.637027 130.657436 
L 100.433949 130.657436 
L 101.230871 130.657436 
L 102.027793 130.657436 
L 102.824715 130.657436 
L 103.621638 130.657436 
L 104.41856 130.657436 
L 105.215482 130.657436 
L 106.012404 130.657436 
L 106.809326 130.657436 
L 107.606248 130.657436 
L 108.40317 130.657436 
L 109.200092 130.657436 
L 109.997015 130.657436 
L 110.793937 130.657436 
L 111.590859 130.657436 
L 112.387781 130.657436 
L 113.184703 130.657436 
L 113.981625 130.657436 
L 114.778547 130.657436 
L 115.575469 130.657436 
L 116.372392 130.657436 
L 117.169314 130.657436 
L 117.966236 130.657436 
L 118.763158 130.657436 
L 119.56008 130.657436 
L 120.357002 130.657436 
L 121.153924 130.657436 
L 121.950847 130.657436 
L 122.747769 130.657436 
L 123.544691 130.657436 
L 124.341613 130.657436 
L 125.138535 130.657436 
L 125.935457 130.657436 
L 126.732379 130.657436 
L 127.529301 130.657436 
L 128.326224 130.657436 
L 129.123146 130.657436 
L 129.920068 130.657436 
L 130.71699 130.657436 
L 131.513912 130.657436 
L 132.310834 130.657436 
L 133.107756 130.657436 
L 133.904679 130.657436 
L 134.701601 130.657436 
L 135.498523 130.657436 
L 136.295445 130.657436 
L 137.092367 130.657436 
L 137.889289 130.657436 
L 138.686211 130.657436 
L 139.483133 130.657436 
L 140.280056 130.657436 
" clip-path="url(#pe4f8a951bd)" style="fill: none; stroke: #cd5c5c; stroke-opacity: 0.8; stroke-width: 0.5; stroke-linecap: square"/>
   </g>
   <g id="line2d_9">
    <path d="M 61.384765 76.433731 
L 62.181687 105.981399 
L 62.978609 109.614044 
L 63.775531 109.614044 
L 64.572453 109.717786 
L 65.369375 109.717786 
L 66.166297 114.894217 
L 66.963219 115.852141 
L 67.760142 115.852141 
L 68.557064 115.852141 
L 69.353986 119.125944 
L 70.150908 120.463994 
L 70.94783 122.554555 
L 71.744752 125.257738 
L 72.541674 127.370656 
L 73.338597 129.999014 
L 74.135519 130.719291 
L 74.932441 130.719291 
L 75.729363 131.025985 
L 76.526285 131.025985 
L 77.323207 131.203636 
L 78.120129 131.203636 
L 78.917051 131.203636 
L 79.713974 131.203636 
L 80.510896 131.203636 
L 81.307818 131.203636 
L 82.10474 131.203636 
L 82.901662 131.203636 
L 83.698584 131.203636 
L 84.495506 131.203636 
L 85.292428 131.203636 
L 86.089351 131.203636 
L 86.886273 131.203636 
L 87.683195 131.203636 
L 88.480117 131.203636 
L 89.277039 131.203636 
L 90.073961 131.203636 
L 90.870883 131.203636 
L 91.667806 131.203636 
L 92.464728 131.203636 
L 93.26165 131.203636 
L 94.058572 131.203636 
L 94.855494 131.203636 
L 95.652416 131.203636 
L 96.449338 131.203636 
L 97.24626 131.203636 
L 98.043183 131.203636 
L 98.840105 131.203636 
L 99.637027 131.203636 
L 100.433949 131.203636 
L 101.230871 131.203636 
L 102.027793 131.203636 
L 102.824715 131.203636 
L 103.621638 131.203636 
L 104.41856 131.203636 
L 105.215482 131.203636 
L 106.012404 131.203636 
L 106.809326 131.203636 
L 107.606248 131.203636 
L 108.40317 131.203636 
L 109.200092 131.203636 
L 109.997015 131.203636 
L 110.793937 131.203636 
L 111.590859 131.203636 
L 112.387781 131.203636 
L 113.184703 131.203636 
L 113.981625 131.203636 
L 114.778547 131.203636 
L 115.575469 131.203636 
L 116.372392 131.203636 
L 117.169314 131.203636 
L 117.966236 131.203636 
L 118.763158 131.203636 
L 119.56008 131.203636 
L 120.357002 131.203636 
L 121.153924 131.203636 
L 121.950847 131.203636 
L 122.747769 131.203636 
L 123.544691 131.203636 
L 124.341613 131.203636 
L 125.138535 131.203636 
L 125.935457 131.203636 
L 126.732379 131.203636 
L 127.529301 131.203636 
L 128.326224 131.203636 
L 129.123146 131.203636 
L 129.920068 131.203636 
L 130.71699 131.203636 
L 131.513912 131.203636 
L 132.310834 131.203636 
L 133.107756 131.203636 
L 133.904679 131.203636 
L 134.701601 131.203636 
L 135.498523 131.203636 
L 136.295445 131.203636 
L 137.092367 131.203636 
L 137.889289 131.203636 
L 138.686211 131.203636 
L 139.483133 131.203636 
L 140.280056 131.203636 
" clip-path="url(#pe4f8a951bd)" style="fill: none; stroke: #008000; stroke-opacity: 0.8; stroke-width: 0.5; stroke-linecap: square"/>
   </g>
   <g id="patch_3">
    <path d="M 57.44 136.24 
L 57.44 25.44 
" style="fill: none; stroke: #000000; stroke-width: 0.8; stroke-linejoin: miter; stroke-linecap: square"/>
   </g>
   <g id="patch_4">
    <path d="M 144.22482 136.24 
L 144.22482 25.44 
" style="fill: none; stroke: #000000; stroke-width: 0.8; stroke-linejoin: miter; stroke-linecap: square"/>
   </g>
   <g id="patch_5">
    <path d="M 57.44 136.24 
L 144.22482 136.24 
" style="fill: none; stroke: #000000; stroke-width: 0.8; stroke-linejoin: miter; stroke-linecap: square"/>
   </g>
   <g id="patch_6">
    <path d="M 57.44 25.44 
L 144.22482 25.44 
" style="fill: none; stroke: #000000; stroke-width: 0.8; stroke-linejoin: miter; stroke-linecap: square"/>
   </g>
   <g id="text_9">
    <!-- scale-5_5 -->
    <g transform="translate(72.57241 19.44) scale(0.12 -0.12)">
     <defs>
      <path id="DejaVuSans-63" d="M 3122 3366 
L 3122 2828 
Q 2878 2963 2633 3030 
Q 2388 3097 2138 3097 
Q 1578 3097 1268 2742 
Q 959 2388 959 1747 
Q 959 1106 1268 751 
Q 1578 397 2138 397 
Q 2388 397 2633 464 
Q 2878 531 3122 666 
L 3122 134 
Q 2881 22 2623 -34 
Q 2366 -91 2075 -91 
Q 1284 -91 818 406 
Q 353 903 353 1747 
Q 353 2603 823 3093 
Q 1294 3584 2113 3584 
Q 2378 3584 2631 3529 
Q 2884 3475 3122 3366 
z
" transform="scale(0.015625)"/>
      <path id="DejaVuSans-6c" d="M 603 4863 
L 1178 4863 
L 1178 0 
L 603 0 
L 603 4863 
z
" transform="scale(0.015625)"/>
      <path id="DejaVuSans-2d" d="M 313 2009 
L 1997 2009 
L 1997 1497 
L 313 1497 
L 313 2009 
z
" transform="scale(0.015625)"/>
      <path id="DejaVuSans-5f" d="M 3263 -1063 
L 3263 -1509 
L -63 -1509 
L -63 -1063 
L 3263 -1063 
z
" transform="scale(0.015625)"/>
     </defs>
     <use xlink:href="#DejaVuSans-73"/>
     <use xlink:href="#DejaVuSans-63" x="52.099609"/>
     <use xlink:href="#DejaVuSans-61" x="107.080078"/>
     <use xlink:href="#DejaVuSans-6c" x="168.359375"/>
     <use xlink:href="#DejaVuSans-65" x="196.142578"/>
     <use xlink:href="#DejaVuSans-2d" x="257.666016"/>
     <use xlink:href="#DejaVuSans-35" x="293.75"/>
     <use xlink:href="#DejaVuSans-5f" x="357.373047"/>
     <use xlink:href="#DejaVuSans-35" x="407.373047"/>
    </g>
   </g>
   <g id="legend_1">
    <g id="patch_7">
     <path d="M 67.865445 78.030625 
L 137.22482 78.030625 
Q 139.22482 78.030625 139.22482 76.030625 
L 139.22482 32.44 
Q 139.22482 30.44 137.22482 30.44 
L 67.865445 30.44 
Q 65.865445 30.44 65.865445 32.44 
L 65.865445 76.030625 
Q 65.865445 78.030625 67.865445 78.030625 
z
" style="fill: #ffffff; opacity: 0.8; stroke: #cccccc; stroke-linejoin: miter"/>
    </g>
    <g id="line2d_10">
     <path d="M 69.865445 38.538437 
L 79.865445 38.538437 
L 89.865445 38.538437 
" style="fill: none; stroke: #4682b4; stroke-opacity: 0.8; stroke-width: 0.5; stroke-linecap: square"/>
    </g>
    <g id="text_10">
     <!-- PSO -->
     <g transform="translate(97.865445 42.038437) scale(0.1 -0.1)">
      <defs>
       <path id="DejaVuSans-50" d="M 1259 4147 
L 1259 2394 
L 2053 2394 
Q 2494 2394 2734 2622 
Q 2975 2850 2975 3272 
Q 2975 3691 2734 3919 
Q 2494 4147 2053 4147 
L 1259 4147 
z
M 628 4666 
L 2053 4666 
Q 2838 4666 3239 4311 
Q 3641 3956 3641 3272 
Q 3641 2581 3239 2228 
Q 2838 1875 2053 1875 
L 1259 1875 
L 1259 0 
L 628 0 
L 628 4666 
z
" transform="scale(0.015625)"/>
       <path id="DejaVuSans-53" d="M 3425 4513 
L 3425 3897 
Q 3066 4069 2747 4153 
Q 2428 4238 2131 4238 
Q 1616 4238 1336 4038 
Q 1056 3838 1056 3469 
Q 1056 3159 1242 3001 
Q 1428 2844 1947 2747 
L 2328 2669 
Q 3034 2534 3370 2195 
Q 3706 1856 3706 1288 
Q 3706 609 3251 259 
Q 2797 -91 1919 -91 
Q 1588 -91 1214 -16 
Q 841 59 441 206 
L 441 856 
Q 825 641 1194 531 
Q 1563 422 1919 422 
Q 2459 422 2753 634 
Q 3047 847 3047 1241 
Q 3047 1584 2836 1778 
Q 2625 1972 2144 2069 
L 1759 2144 
Q 1053 2284 737 2584 
Q 422 2884 422 3419 
Q 422 4038 858 4394 
Q 1294 4750 2059 4750 
Q 2388 4750 2728 4690 
Q 3069 4631 3425 4513 
z
" transform="scale(0.015625)"/>
       <path id="DejaVuSans-4f" d="M 2522 4238 
Q 1834 4238 1429 3725 
Q 1025 3213 1025 2328 
Q 1025 1447 1429 934 
Q 1834 422 2522 422 
Q 3209 422 3611 934 
Q 4013 1447 4013 2328 
Q 4013 3213 3611 3725 
Q 3209 4238 2522 4238 
z
M 2522 4750 
Q 3503 4750 4090 4092 
Q 4678 3434 4678 2328 
Q 4678 1225 4090 567 
Q 3503 -91 2522 -91 
Q 1538 -91 948 565 
Q 359 1222 359 2328 
Q 359 3434 948 4092 
Q 1538 4750 2522 4750 
z
" transform="scale(0.015625)"/>
      </defs>
      <use xlink:href="#DejaVuSans-50"/>
      <use xlink:href="#DejaVuSans-53" x="60.302734"/>
      <use xlink:href="#DejaVuSans-4f" x="123.779297"/>
     </g>
    </g>
    <g id="line2d_11">
     <path d="M 69.865445 53.216563 
L 79.865445 53.216563 
L 89.865445 53.216563 
" style="fill: none; stroke: #cd5c5c; stroke-opacity: 0.8; stroke-width: 0.5; stroke-linecap: square"/>
    </g>
    <g id="text_11">
     <!-- G_GA -->
     <g transform="translate(97.865445 56.716563) scale(0.1 -0.1)">
      <defs>
       <path id="DejaVuSans-47" d="M 3809 666 
L 3809 1919 
L 2778 1919 
L 2778 2438 
L 4434 2438 
L 4434 434 
Q 4069 175 3628 42 
Q 3188 -91 2688 -91 
Q 1594 -91 976 548 
Q 359 1188 359 2328 
Q 359 3472 976 4111 
Q 1594 4750 2688 4750 
Q 3144 4750 3555 4637 
Q 3966 4525 4313 4306 
L 4313 3634 
Q 3963 3931 3569 4081 
Q 3175 4231 2741 4231 
Q 1884 4231 1454 3753 
Q 1025 3275 1025 2328 
Q 1025 1384 1454 906 
Q 1884 428 2741 428 
Q 3075 428 3337 486 
Q 3600 544 3809 666 
z
" transform="scale(0.015625)"/>
       <path id="DejaVuSans-41" d="M 2188 4044 
L 1331 1722 
L 3047 1722 
L 2188 4044 
z
M 1831 4666 
L 2547 4666 
L 4325 0 
L 3669 0 
L 3244 1197 
L 1141 1197 
L 716 0 
L 50 0 
L 1831 4666 
z
" transform="scale(0.015625)"/>
      </defs>
      <use xlink:href="#DejaVuSans-47"/>
      <use xlink:href="#DejaVuSans-5f" x="77.490234"/>
      <use xlink:href="#DejaVuSans-47" x="127.490234"/>
      <use xlink:href="#DejaVuSans-41" x="204.980469"/>
     </g>
    </g>
    <g id="line2d_12">
     <path d="M 69.865445 68.172812 
L 79.865445 68.172812 
L 89.865445 68.172812 
" style="fill: none; stroke: #008000; stroke-opacity: 0.8; stroke-width: 0.5; stroke-linecap: square"/>
    </g>
    <g id="text_12">
     <!-- ORI_GA -->
     <g transform="translate(97.865445 71.672812) scale(0.1 -0.1)">
      <defs>
       <path id="DejaVuSans-52" d="M 2841 2188 
Q 3044 2119 3236 1894 
Q 3428 1669 3622 1275 
L 4263 0 
L 3584 0 
L 2988 1197 
Q 2756 1666 2539 1819 
Q 2322 1972 1947 1972 
L 1259 1972 
L 1259 0 
L 628 0 
L 628 4666 
L 2053 4666 
Q 2853 4666 3247 4331 
Q 3641 3997 3641 3322 
Q 3641 2881 3436 2590 
Q 3231 2300 2841 2188 
z
M 1259 4147 
L 1259 2491 
L 2053 2491 
Q 2509 2491 2742 2702 
Q 2975 2913 2975 3322 
Q 2975 3731 2742 3939 
Q 2509 4147 2053 4147 
L 1259 4147 
z
" transform="scale(0.015625)"/>
      </defs>
      <use xlink:href="#DejaVuSans-4f"/>
      <use xlink:href="#DejaVuSans-52" x="78.710938"/>
      <use xlink:href="#DejaVuSans-49" x="148.193359"/>
      <use xlink:href="#DejaVuSans-5f" x="177.685547"/>
      <use xlink:href="#DejaVuSans-47" x="227.685547"/>
      <use xlink:href="#DejaVuSans-41" x="305.175781"/>
     </g>
    </g>
   </g>
  </g>
  <g id="axes_2">
   <g id="patch_8">
    <path d="M 207.44 136.24 
L 294.22482 136.24 
L 294.22482 25.44 
L 207.44 25.44 
z
" style="fill: #ffffff"/>
   </g>
   <g id="matplotlib.axis_3">
    <g id="xtick_3">
     <g id="line2d_13">
      <g>
       <use xlink:href="#m47e1bc19a9" x="211.384765" y="136.24" style="stroke: #000000; stroke-width: 0.8"/>
      </g>
     </g>
     <g id="text_13">
      <!-- 0 -->
      <g transform="translate(208.203515 150.838437) scale(0.1 -0.1)">
       <use xlink:href="#DejaVuSans-30"/>
      </g>
     </g>
    </g>
    <g id="xtick_4">
     <g id="line2d_14">
      <g>
       <use xlink:href="#m47e1bc19a9" x="291.076978" y="136.24" style="stroke: #000000; stroke-width: 0.8"/>
      </g>
     </g>
     <g id="text_14">
      <!-- 100 -->
      <g transform="translate(281.533228 150.838437) scale(0.1 -0.1)">
       <use xlink:href="#DejaVuSans-31"/>
       <use xlink:href="#DejaVuSans-30" x="63.623047"/>
       <use xlink:href="#DejaVuSans-30" x="127.246094"/>
      </g>
     </g>
    </g>
    <g id="text_15">
     <!-- Iteration -->
     <g transform="translate(229.623816 164.516562) scale(0.1 -0.1)">
      <use xlink:href="#DejaVuSans-49"/>
      <use xlink:href="#DejaVuSans-74" x="29.492188"/>
      <use xlink:href="#DejaVuSans-65" x="68.701172"/>
      <use xlink:href="#DejaVuSans-72" x="130.224609"/>
      <use xlink:href="#DejaVuSans-61" x="171.337891"/>
      <use xlink:href="#DejaVuSans-74" x="232.617188"/>
      <use xlink:href="#DejaVuSans-69" x="271.826172"/>
      <use xlink:href="#DejaVuSans-6f" x="299.609375"/>
      <use xlink:href="#DejaVuSans-6e" x="360.791016"/>
     </g>
    </g>
   </g>
   <g id="matplotlib.axis_4">
    <g id="ytick_5">
     <g id="line2d_15">
      <g>
       <use xlink:href="#m665a42ed31" x="207.44" y="112.391993" style="stroke: #000000; stroke-width: 0.8"/>
      </g>
     </g>
     <g id="text_16">
      <!-- 250 -->
      <g transform="translate(181.3525 116.191212) scale(0.1 -0.1)">
       <use xlink:href="#DejaVuSans-32"/>
       <use xlink:href="#DejaVuSans-35" x="63.623047"/>
       <use xlink:href="#DejaVuSans-30" x="127.246094"/>
      </g>
     </g>
    </g>
    <g id="ytick_6">
     <g id="line2d_16">
      <g>
       <use xlink:href="#m665a42ed31" x="207.44" y="85.622179" style="stroke: #000000; stroke-width: 0.8"/>
      </g>
     </g>
     <g id="text_17">
      <!-- 500 -->
      <g transform="translate(181.3525 89.421398) scale(0.1 -0.1)">
       <use xlink:href="#DejaVuSans-35"/>
       <use xlink:href="#DejaVuSans-30" x="63.623047"/>
       <use xlink:href="#DejaVuSans-30" x="127.246094"/>
      </g>
     </g>
    </g>
    <g id="ytick_7">
     <g id="line2d_17">
      <g>
       <use xlink:href="#m665a42ed31" x="207.44" y="58.852366" style="stroke: #000000; stroke-width: 0.8"/>
      </g>
     </g>
     <g id="text_18">
      <!-- 750 -->
      <g transform="translate(181.3525 62.651585) scale(0.1 -0.1)">
       <use xlink:href="#DejaVuSans-37"/>
       <use xlink:href="#DejaVuSans-35" x="63.623047"/>
       <use xlink:href="#DejaVuSans-30" x="127.246094"/>
      </g>
     </g>
    </g>
    <g id="ytick_8">
     <g id="line2d_18">
      <g>
       <use xlink:href="#m665a42ed31" x="207.44" y="32.082552" style="stroke: #000000; stroke-width: 0.8"/>
      </g>
     </g>
     <g id="text_19">
      <!-- 1000 -->
      <g transform="translate(174.99 35.881771) scale(0.1 -0.1)">
       <use xlink:href="#DejaVuSans-31"/>
       <use xlink:href="#DejaVuSans-30" x="63.623047"/>
       <use xlink:href="#DejaVuSans-30" x="127.246094"/>
       <use xlink:href="#DejaVuSans-30" x="190.869141"/>
      </g>
     </g>
    </g>
    <g id="text_20">
     <!-- Fitness -->
     <g transform="translate(168.910313 98.157187) rotate(-90) scale(0.1 -0.1)">
      <use xlink:href="#DejaVuSans-46"/>
      <use xlink:href="#DejaVuSans-69" x="50.269531"/>
      <use xlink:href="#DejaVuSans-74" x="78.052734"/>
      <use xlink:href="#DejaVuSans-6e" x="117.261719"/>
      <use xlink:href="#DejaVuSans-65" x="180.640625"/>
      <use xlink:href="#DejaVuSans-73" x="242.164062"/>
      <use xlink:href="#DejaVuSans-73" x="294.263672"/>
     </g>
    </g>
   </g>
   <g id="line2d_19">
    <path d="M 211.384765 126.31475 
L 212.181687 129.317724 
L 212.978609 129.427887 
L 213.775531 129.508622 
L 214.572453 129.568658 
L 215.369375 130.146272 
L 216.166297 130.146272 
L 216.963219 130.267418 
L 217.760142 130.330374 
L 218.557064 130.403505 
L 219.353986 130.452357 
L 220.150908 130.485431 
L 220.94783 130.571248 
L 221.744752 130.691171 
L 222.541674 130.711603 
L 223.338597 130.769854 
L 224.135519 130.805744 
L 224.932441 130.833468 
L 225.729363 130.841627 
L 226.526285 130.841627 
L 227.323207 130.886168 
L 228.120129 130.887777 
L 228.917051 130.914828 
L 229.713974 130.930481 
L 230.510896 130.972147 
L 231.307818 131.005812 
L 232.10474 131.007096 
L 232.901662 131.012094 
L 233.698584 131.012176 
L 234.495506 131.013824 
L 235.292428 131.013927 
L 236.089351 131.014086 
L 236.886273 131.014339 
L 237.683195 131.014339 
L 238.480117 131.014347 
L 239.277039 131.014347 
L 240.073961 131.014556 
L 240.870883 131.014556 
L 241.667806 131.014556 
L 242.464728 131.014556 
L 243.26165 131.014556 
L 244.058572 131.014559 
L 244.855494 131.014562 
L 245.652416 131.014562 
L 246.449338 131.014562 
L 247.24626 131.014562 
L 248.043183 131.014562 
L 248.840105 131.014582 
L 249.637027 131.014602 
L 250.433949 131.014609 
L 251.230871 131.045043 
L 252.027793 131.045043 
L 252.824715 131.046548 
L 253.621638 131.046553 
L 254.41856 131.046627 
L 255.215482 131.046695 
L 256.012404 131.046754 
L 256.809326 131.046754 
L 257.606248 131.046754 
L 258.40317 131.046754 
L 259.200092 131.046754 
L 259.997015 131.046754 
L 260.793937 131.046754 
L 261.590859 131.046763 
L 262.387781 131.046763 
L 263.184703 131.046763 
L 263.981625 131.046763 
L 264.778547 131.046763 
L 265.575469 131.046764 
L 266.372392 131.046764 
L 267.169314 131.046764 
L 267.966236 131.046764 
L 268.763158 131.046764 
L 269.56008 131.046764 
L 270.357002 131.046764 
L 271.153924 131.046765 
L 271.950847 131.046765 
L 272.747769 131.046765 
L 273.544691 131.046765 
L 274.341613 131.046765 
L 275.138535 131.046766 
L 275.935457 131.046766 
L 276.732379 131.046766 
L 277.529301 131.046766 
L 278.326224 131.046766 
L 279.123146 131.046766 
L 279.920068 131.046766 
L 280.71699 131.046766 
L 281.513912 131.046766 
L 282.310834 131.046766 
L 283.107756 131.046766 
L 283.904679 131.046766 
L 284.701601 131.046766 
L 285.498523 131.046766 
L 286.295445 131.046766 
L 287.092367 131.046766 
L 287.889289 131.046766 
L 288.686211 131.046766 
L 289.483133 131.046766 
L 290.280056 131.046766 
" clip-path="url(#p60d5abce38)" style="fill: none; stroke: #4682b4; stroke-opacity: 0.8; stroke-width: 0.5; stroke-linecap: square"/>
   </g>
   <g id="line2d_20">
    <path d="M 211.384765 32.189632 
L 212.181687 123.739998 
L 212.978609 125.167718 
L 213.775531 126.852872 
L 214.572453 126.852872 
L 215.369375 127.834952 
L 216.166297 127.834952 
L 216.963219 128.190959 
L 217.760142 128.190959 
L 218.557064 128.190959 
L 219.353986 128.359951 
L 220.150908 128.359951 
L 220.94783 128.588488 
L 221.744752 128.745627 
L 222.541674 129.08857 
L 223.338597 129.293039 
L 224.135519 129.401506 
L 224.932441 129.710235 
L 225.729363 129.710235 
L 226.526285 129.710235 
L 227.323207 129.774895 
L 228.120129 130.159773 
L 228.917051 130.159773 
L 229.713974 130.307153 
L 230.510896 130.406616 
L 231.307818 130.453551 
L 232.10474 130.457722 
L 232.901662 130.498811 
L 233.698584 130.58949 
L 234.495506 130.641148 
L 235.292428 130.701167 
L 236.089351 130.748353 
L 236.886273 130.8679 
L 237.683195 130.87821 
L 238.480117 130.914821 
L 239.277039 131.032222 
L 240.073961 131.048664 
L 240.870883 131.048664 
L 241.667806 131.09718 
L 242.464728 131.152087 
L 243.26165 131.154709 
L 244.058572 131.186568 
L 244.855494 131.186781 
L 245.652416 131.19009 
L 246.449338 131.201282 
L 247.24626 131.201282 
L 248.043183 131.201282 
L 248.840105 131.203636 
L 249.637027 131.203636 
L 250.433949 131.203636 
L 251.230871 131.203636 
L 252.027793 131.203636 
L 252.824715 131.203636 
L 253.621638 131.203636 
L 254.41856 131.203636 
L 255.215482 131.203636 
L 256.012404 131.203636 
L 256.809326 131.203636 
L 257.606248 131.203636 
L 258.40317 131.203636 
L 259.200092 131.203636 
L 259.997015 131.203636 
L 260.793937 131.203636 
L 261.590859 131.203636 
L 262.387781 131.203636 
L 263.184703 131.203636 
L 263.981625 131.203636 
L 264.778547 131.203636 
L 265.575469 131.203636 
L 266.372392 131.203636 
L 267.169314 131.203636 
L 267.966236 131.203636 
L 268.763158 131.203636 
L 269.56008 131.203636 
L 270.357002 131.203636 
L 271.153924 131.203636 
L 271.950847 131.203636 
L 272.747769 131.203636 
L 273.544691 131.203636 
L 274.341613 131.203636 
L 275.138535 131.203636 
L 275.935457 131.203636 
L 276.732379 131.203636 
L 277.529301 131.203636 
L 278.326224 131.203636 
L 279.123146 131.203636 
L 279.920068 131.203636 
L 280.71699 131.203636 
L 281.513912 131.203636 
L 282.310834 131.203636 
L 283.107756 131.203636 
L 283.904679 131.203636 
L 284.701601 131.203636 
L 285.498523 131.203636 
L 286.295445 131.203636 
L 287.092367 131.203636 
L 287.889289 131.203636 
L 288.686211 131.203636 
L 289.483133 131.203636 
L 290.280056 131.203636 
" clip-path="url(#p60d5abce38)" style="fill: none; stroke: #cd5c5c; stroke-opacity: 0.8; stroke-width: 0.5; stroke-linecap: square"/>
   </g>
   <g id="line2d_21">
    <path d="M 211.384765 30.476364 
L 212.181687 117.21201 
L 212.978609 125.581124 
L 213.775531 127.35356 
L 214.572453 127.35356 
L 215.369375 127.35356 
L 216.166297 127.357704 
L 216.963219 127.357704 
L 217.760142 127.50496 
L 218.557064 127.50496 
L 219.353986 127.50496 
L 220.150908 128.053035 
L 220.94783 128.053035 
L 221.744752 128.069864 
L 222.541674 128.069864 
L 223.338597 128.540235 
L 224.135519 128.720388 
L 224.932441 128.836753 
L 225.729363 129.389352 
L 226.526285 129.389352 
L 227.323207 129.906635 
L 228.120129 129.906635 
L 228.917051 129.906635 
L 229.713974 130.074335 
L 230.510896 130.293744 
L 231.307818 130.325819 
L 232.10474 130.509781 
L 232.901662 130.63583 
L 233.698584 130.63583 
L 234.495506 130.786187 
L 235.292428 130.793887 
L 236.089351 130.83188 
L 236.886273 130.83188 
L 237.683195 130.895921 
L 238.480117 130.947332 
L 239.277039 131.000066 
L 240.073961 131.069777 
L 240.870883 131.069777 
L 241.667806 131.070818 
L 242.464728 131.088224 
L 243.26165 131.103626 
L 244.058572 131.103626 
L 244.855494 131.103626 
L 245.652416 131.120481 
L 246.449338 131.120481 
L 247.24626 131.125551 
L 248.043183 131.129912 
L 248.840105 131.129912 
L 249.637027 131.132533 
L 250.433949 131.132533 
L 251.230871 131.133038 
L 252.027793 131.133038 
L 252.824715 131.133038 
L 253.621638 131.133038 
L 254.41856 131.133038 
L 255.215482 131.133038 
L 256.012404 131.133038 
L 256.809326 131.133038 
L 257.606248 131.133038 
L 258.40317 131.133038 
L 259.200092 131.133038 
L 259.997015 131.133038 
L 260.793937 131.133038 
L 261.590859 131.133038 
L 262.387781 131.133038 
L 263.184703 131.133038 
L 263.981625 131.133038 
L 264.778547 131.142431 
L 265.575469 131.142431 
L 266.372392 131.142431 
L 267.169314 131.142431 
L 267.966236 131.142431 
L 268.763158 131.142431 
L 269.56008 131.142431 
L 270.357002 131.142431 
L 271.153924 131.142431 
L 271.950847 131.142431 
L 272.747769 131.142431 
L 273.544691 131.142431 
L 274.341613 131.142431 
L 275.138535 131.142431 
L 275.935457 131.142431 
L 276.732379 131.142431 
L 277.529301 131.142431 
L 278.326224 131.142431 
L 279.123146 131.142431 
L 279.920068 131.142431 
L 280.71699 131.142431 
L 281.513912 131.142431 
L 282.310834 131.142431 
L 283.107756 131.142431 
L 283.904679 131.142431 
L 284.701601 131.142431 
L 285.498523 131.142431 
L 286.295445 131.142431 
L 287.092367 131.142431 
L 287.889289 131.142431 
L 288.686211 131.142431 
L 289.483133 131.142431 
L 290.280056 131.142431 
" clip-path="url(#p60d5abce38)" style="fill: none; stroke: #008000; stroke-opacity: 0.8; stroke-width: 0.5; stroke-linecap: square"/>
   </g>
   <g id="patch_9">
    <path d="M 207.44 136.24 
L 207.44 25.44 
" style="fill: none; stroke: #000000; stroke-width: 0.8; stroke-linejoin: miter; stroke-linecap: square"/>
   </g>
   <g id="patch_10">
    <path d="M 294.22482 136.24 
L 294.22482 25.44 
" style="fill: none; stroke: #000000; stroke-width: 0.8; stroke-linejoin: miter; stroke-linecap: square"/>
   </g>
   <g id="patch_11">
    <path d="M 207.44 136.24 
L 294.22482 136.24 
" style="fill: none; stroke: #000000; stroke-width: 0.8; stroke-linejoin: miter; stroke-linecap: square"/>
   </g>
   <g id="patch_12">
    <path d="M 207.44 25.44 
L 294.22482 25.44 
" style="fill: none; stroke: #000000; stroke-width: 0.8; stroke-linejoin: miter; stroke-linecap: square"/>
   </g>
   <g id="text_21">
    <!-- scale-7_7 -->
    <g transform="translate(222.57241 19.44) scale(0.12 -0.12)">
     <use xlink:href="#DejaVuSans-73"/>
     <use xlink:href="#DejaVuSans-63" x="52.099609"/>
     <use xlink:href="#DejaVuSans-61" x="107.080078"/>
     <use xlink:href="#DejaVuSans-6c" x="168.359375"/>
     <use xlink:href="#DejaVuSans-65" x="196.142578"/>
     <use xlink:href="#DejaVuSans-2d" x="257.666016"/>
     <use xlink:href="#DejaVuSans-37" x="293.75"/>
     <use xlink:href="#DejaVuSans-5f" x="357.373047"/>
     <use xlink:href="#DejaVuSans-37" x="407.373047"/>
    </g>
   </g>
   <g id="legend_2">
    <g id="patch_13">
     <path d="M 217.865445 78.030625 
L 287.22482 78.030625 
Q 289.22482 78.030625 289.22482 76.030625 
L 289.22482 32.44 
Q 289.22482 30.44 287.22482 30.44 
L 217.865445 30.44 
Q 215.865445 30.44 215.865445 32.44 
L 215.865445 76.030625 
Q 215.865445 78.030625 217.865445 78.030625 
z
" style="fill: #ffffff; opacity: 0.8; stroke: #cccccc; stroke-linejoin: miter"/>
    </g>
    <g id="line2d_22">
     <path d="M 219.865445 38.538437 
L 229.865445 38.538437 
L 239.865445 38.538437 
" style="fill: none; stroke: #4682b4; stroke-opacity: 0.8; stroke-width: 0.5; stroke-linecap: square"/>
    </g>
    <g id="text_22">
     <!-- PSO -->
     <g transform="translate(247.865445 42.038437) scale(0.1 -0.1)">
      <use xlink:href="#DejaVuSans-50"/>
      <use xlink:href="#DejaVuSans-53" x="60.302734"/>
      <use xlink:href="#DejaVuSans-4f" x="123.779297"/>
     </g>
    </g>
    <g id="line2d_23">
     <path d="M 219.865445 53.216563 
L 229.865445 53.216563 
L 239.865445 53.216563 
" style="fill: none; stroke: #cd5c5c; stroke-opacity: 0.8; stroke-width: 0.5; stroke-linecap: square"/>
    </g>
    <g id="text_23">
     <!-- G_GA -->
     <g transform="translate(247.865445 56.716563) scale(0.1 -0.1)">
      <use xlink:href="#DejaVuSans-47"/>
      <use xlink:href="#DejaVuSans-5f" x="77.490234"/>
      <use xlink:href="#DejaVuSans-47" x="127.490234"/>
      <use xlink:href="#DejaVuSans-41" x="204.980469"/>
     </g>
    </g>
    <g id="line2d_24">
     <path d="M 219.865445 68.172812 
L 229.865445 68.172812 
L 239.865445 68.172812 
" style="fill: none; stroke: #008000; stroke-opacity: 0.8; stroke-width: 0.5; stroke-linecap: square"/>
    </g>
    <g id="text_24">
     <!-- ORI_GA -->
     <g transform="translate(247.865445 71.672812) scale(0.1 -0.1)">
      <use xlink:href="#DejaVuSans-4f"/>
      <use xlink:href="#DejaVuSans-52" x="78.710938"/>
      <use xlink:href="#DejaVuSans-49" x="148.193359"/>
      <use xlink:href="#DejaVuSans-5f" x="177.685547"/>
      <use xlink:href="#DejaVuSans-47" x="227.685547"/>
      <use xlink:href="#DejaVuSans-41" x="305.175781"/>
     </g>
    </g>
   </g>
  </g>
  <g id="axes_3">
   <g id="patch_14">
    <path d="M 357.44 136.24 
L 444.22482 136.24 
L 444.22482 25.44 
L 357.44 25.44 
z
" style="fill: #ffffff"/>
   </g>
   <g id="matplotlib.axis_5">
    <g id="xtick_5">
     <g id="line2d_25">
      <g>
       <use xlink:href="#m47e1bc19a9" x="361.384765" y="136.24" style="stroke: #000000; stroke-width: 0.8"/>
      </g>
     </g>
     <g id="text_25">
      <!-- 0 -->
      <g transform="translate(358.203515 150.838437) scale(0.1 -0.1)">
       <use xlink:href="#DejaVuSans-30"/>
      </g>
     </g>
    </g>
    <g id="xtick_6">
     <g id="line2d_26">
      <g>
       <use xlink:href="#m47e1bc19a9" x="441.076978" y="136.24" style="stroke: #000000; stroke-width: 0.8"/>
      </g>
     </g>
     <g id="text_26">
      <!-- 100 -->
      <g transform="translate(431.533228 150.838437) scale(0.1 -0.1)">
       <use xlink:href="#DejaVuSans-31"/>
       <use xlink:href="#DejaVuSans-30" x="63.623047"/>
       <use xlink:href="#DejaVuSans-30" x="127.246094"/>
      </g>
     </g>
    </g>
    <g id="text_27">
     <!-- Iteration -->
     <g transform="translate(379.623816 164.516562) scale(0.1 -0.1)">
      <use xlink:href="#DejaVuSans-49"/>
      <use xlink:href="#DejaVuSans-74" x="29.492188"/>
      <use xlink:href="#DejaVuSans-65" x="68.701172"/>
      <use xlink:href="#DejaVuSans-72" x="130.224609"/>
      <use xlink:href="#DejaVuSans-61" x="171.337891"/>
      <use xlink:href="#DejaVuSans-74" x="232.617188"/>
      <use xlink:href="#DejaVuSans-69" x="271.826172"/>
      <use xlink:href="#DejaVuSans-6f" x="299.609375"/>
      <use xlink:href="#DejaVuSans-6e" x="360.791016"/>
     </g>
    </g>
   </g>
   <g id="matplotlib.axis_6">
    <g id="ytick_9">
     <g id="line2d_27">
      <g>
       <use xlink:href="#m665a42ed31" x="357.44" y="113.122528" style="stroke: #000000; stroke-width: 0.8"/>
      </g>
     </g>
     <g id="text_28">
      <!-- 500 -->
      <g transform="translate(331.3525 116.921746) scale(0.1 -0.1)">
       <use xlink:href="#DejaVuSans-35"/>
       <use xlink:href="#DejaVuSans-30" x="63.623047"/>
       <use xlink:href="#DejaVuSans-30" x="127.246094"/>
      </g>
     </g>
    </g>
    <g id="ytick_10">
     <g id="line2d_28">
      <g>
       <use xlink:href="#m665a42ed31" x="357.44" y="87.414501" style="stroke: #000000; stroke-width: 0.8"/>
      </g>
     </g>
     <g id="text_29">
      <!-- 1000 -->
      <g transform="translate(324.99 91.21372) scale(0.1 -0.1)">
       <use xlink:href="#DejaVuSans-31"/>
       <use xlink:href="#DejaVuSans-30" x="63.623047"/>
       <use xlink:href="#DejaVuSans-30" x="127.246094"/>
       <use xlink:href="#DejaVuSans-30" x="190.869141"/>
      </g>
     </g>
    </g>
    <g id="ytick_11">
     <g id="line2d_29">
      <g>
       <use xlink:href="#m665a42ed31" x="357.44" y="61.706474" style="stroke: #000000; stroke-width: 0.8"/>
      </g>
     </g>
     <g id="text_30">
      <!-- 1500 -->
      <g transform="translate(324.99 65.505693) scale(0.1 -0.1)">
       <use xlink:href="#DejaVuSans-31"/>
       <use xlink:href="#DejaVuSans-35" x="63.623047"/>
       <use xlink:href="#DejaVuSans-30" x="127.246094"/>
       <use xlink:href="#DejaVuSans-30" x="190.869141"/>
      </g>
     </g>
    </g>
    <g id="ytick_12">
     <g id="line2d_30">
      <g>
       <use xlink:href="#m665a42ed31" x="357.44" y="35.998448" style="stroke: #000000; stroke-width: 0.8"/>
      </g>
     </g>
     <g id="text_31">
      <!-- 2000 -->
      <g transform="translate(324.99 39.797667) scale(0.1 -0.1)">
       <use xlink:href="#DejaVuSans-32"/>
       <use xlink:href="#DejaVuSans-30" x="63.623047"/>
       <use xlink:href="#DejaVuSans-30" x="127.246094"/>
       <use xlink:href="#DejaVuSans-30" x="190.869141"/>
      </g>
     </g>
    </g>
    <g id="text_32">
     <!-- Fitness -->
     <g transform="translate(318.910313 98.157187) rotate(-90) scale(0.1 -0.1)">
      <use xlink:href="#DejaVuSans-46"/>
      <use xlink:href="#DejaVuSans-69" x="50.269531"/>
      <use xlink:href="#DejaVuSans-74" x="78.052734"/>
      <use xlink:href="#DejaVuSans-6e" x="117.261719"/>
      <use xlink:href="#DejaVuSans-65" x="180.640625"/>
      <use xlink:href="#DejaVuSans-73" x="242.164062"/>
      <use xlink:href="#DejaVuSans-73" x="294.263672"/>
     </g>
    </g>
   </g>
   <g id="line2d_31">
    <path d="M 361.384765 83.414332 
L 362.181687 124.254252 
L 362.978609 124.254252 
L 363.775531 124.254252 
L 364.572453 125.717374 
L 365.369375 126.580854 
L 366.166297 126.785782 
L 366.963219 126.78597 
L 367.760142 127.206099 
L 368.557064 127.362651 
L 369.353986 127.670633 
L 370.150908 127.884828 
L 370.94783 127.936437 
L 371.744752 128.171965 
L 372.541674 128.260478 
L 373.338597 128.304025 
L 374.135519 128.347382 
L 374.932441 128.402782 
L 375.729363 128.551449 
L 376.526285 128.551449 
L 377.323207 128.602933 
L 378.120129 128.621495 
L 378.917051 128.664308 
L 379.713974 128.69993 
L 380.510896 128.716381 
L 381.307818 128.894368 
L 382.10474 129.052887 
L 382.901662 129.074034 
L 383.698584 129.104207 
L 384.495506 129.126907 
L 385.292428 129.160522 
L 386.089351 129.191691 
L 386.886273 129.234395 
L 387.683195 129.273124 
L 388.480117 129.316006 
L 389.277039 129.317127 
L 390.073961 129.317127 
L 390.870883 129.317127 
L 391.667806 129.317127 
L 392.464728 129.317127 
L 393.26165 129.317127 
L 394.058572 129.317127 
L 394.855494 129.317127 
L 395.652416 129.317127 
L 396.449338 129.317127 
L 397.24626 129.317201 
L 398.043183 129.31724 
L 398.840105 129.31724 
L 399.637027 129.31724 
L 400.433949 129.31724 
L 401.230871 129.317274 
L 402.027793 129.317274 
L 402.824715 129.317274 
L 403.621638 129.317274 
L 404.41856 129.317274 
L 405.215482 129.317274 
L 406.012404 129.317274 
L 406.809326 129.317274 
L 407.606248 129.317274 
L 408.40317 129.317274 
L 409.200092 129.317274 
L 409.997015 129.317274 
L 410.793937 129.317274 
L 411.590859 129.317274 
L 412.387781 129.317274 
L 413.184703 129.317274 
L 413.981625 129.317274 
L 414.778547 129.317275 
L 415.575469 129.31728 
L 416.372392 129.31728 
L 417.169314 129.31728 
L 417.966236 129.31728 
L 418.763158 129.317281 
L 419.56008 129.317282 
L 420.357002 129.317286 
L 421.153924 129.317286 
L 421.950847 129.317286 
L 422.747769 129.317286 
L 423.544691 129.317286 
L 424.341613 129.317286 
L 425.138535 129.317286 
L 425.935457 129.317286 
L 426.732379 129.317286 
L 427.529301 129.317286 
L 428.326224 129.317286 
L 429.123146 129.317286 
L 429.920068 129.317286 
L 430.71699 129.317286 
L 431.513912 129.317286 
L 432.310834 129.317286 
L 433.107756 129.317286 
L 433.904679 129.317286 
L 434.701601 129.317286 
L 435.498523 129.317286 
L 436.295445 129.317286 
L 437.092367 129.317286 
L 437.889289 129.317286 
L 438.686211 129.317286 
L 439.483133 129.317287 
L 440.280056 129.317287 
" clip-path="url(#pde9d81e6a7)" style="fill: none; stroke: #4682b4; stroke-opacity: 0.8; stroke-width: 0.5; stroke-linecap: square"/>
   </g>
   <g id="line2d_32">
    <path d="M 361.384765 82.915288 
L 362.181687 82.915288 
L 362.978609 82.915288 
L 363.775531 82.915288 
L 364.572453 82.915288 
L 365.369375 82.915288 
L 366.166297 82.915288 
L 366.963219 84.648317 
L 367.760142 86.64326 
L 368.557064 86.766659 
L 369.353986 86.787225 
L 370.150908 121.376913 
L 370.94783 123.375505 
L 371.744752 126.210379 
L 372.541674 126.210379 
L 373.338597 126.358524 
L 374.135519 126.513689 
L 374.932441 126.811905 
L 375.729363 126.835217 
L 376.526285 126.867839 
L 377.323207 127.129705 
L 378.120129 127.136892 
L 378.917051 127.136892 
L 379.713974 127.180229 
L 380.510896 127.180229 
L 381.307818 127.596665 
L 382.10474 127.596665 
L 382.901662 127.596665 
L 383.698584 127.596665 
L 384.495506 127.596665 
L 385.292428 127.769969 
L 386.089351 127.964267 
L 386.886273 127.992586 
L 387.683195 127.992586 
L 388.480117 128.114983 
L 389.277039 128.176699 
L 390.073961 128.298437 
L 390.870883 128.438169 
L 391.667806 128.710778 
L 392.464728 129.220633 
L 393.26165 129.220633 
L 394.058572 129.302377 
L 394.855494 129.329909 
L 395.652416 129.453149 
L 396.449338 129.566125 
L 397.24626 129.566125 
L 398.043183 129.566125 
L 398.840105 129.717837 
L 399.637027 129.990879 
L 400.433949 130.02135 
L 401.230871 130.144031 
L 402.027793 130.212066 
L 402.824715 130.283961 
L 403.621638 130.40993 
L 404.41856 130.540767 
L 405.215482 130.607141 
L 406.012404 130.616436 
L 406.809326 130.679978 
L 407.606248 130.73304 
L 408.40317 130.73304 
L 409.200092 130.75872 
L 409.997015 130.795178 
L 410.793937 130.799502 
L 411.590859 130.861022 
L 412.387781 130.880038 
L 413.184703 130.883697 
L 413.981625 130.910569 
L 414.778547 130.954667 
L 415.575469 130.954667 
L 416.372392 130.954667 
L 417.169314 130.962024 
L 417.966236 130.963783 
L 418.763158 130.979558 
L 419.56008 130.982675 
L 420.357002 130.982983 
L 421.153924 130.995073 
L 421.950847 131.008107 
L 422.747769 131.008107 
L 423.544691 131.022281 
L 424.341613 131.071463 
L 425.138535 131.071463 
L 425.935457 131.071463 
L 426.732379 131.08166 
L 427.529301 131.090071 
L 428.326224 131.119092 
L 429.123146 131.123996 
L 429.920068 131.150287 
L 430.71699 131.158443 
L 431.513912 131.158443 
L 432.310834 131.16109 
L 433.107756 131.16109 
L 433.904679 131.161321 
L 434.701601 131.163984 
L 435.498523 131.165052 
L 436.295445 131.167724 
L 437.092367 131.167724 
L 437.889289 131.169269 
L 438.686211 131.203084 
L 439.483133 131.203084 
L 440.280056 131.203636 
" clip-path="url(#pde9d81e6a7)" style="fill: none; stroke: #cd5c5c; stroke-opacity: 0.8; stroke-width: 0.5; stroke-linecap: square"/>
   </g>
   <g id="line2d_33">
    <path d="M 361.384765 30.476364 
L 362.181687 30.476364 
L 362.978609 40.307113 
L 363.775531 50.549191 
L 364.572453 68.339145 
L 365.369375 73.151688 
L 366.166297 79.239349 
L 366.963219 83.455465 
L 367.760142 83.455465 
L 368.557064 84.997947 
L 369.353986 87.465917 
L 370.150908 87.465917 
L 370.94783 87.465917 
L 371.744752 87.465917 
L 372.541674 125.540718 
L 373.338597 126.80626 
L 374.135519 126.80626 
L 374.932441 127.330338 
L 375.729363 127.457965 
L 376.526285 127.457965 
L 377.323207 127.659876 
L 378.120129 127.659876 
L 378.917051 127.659876 
L 379.713974 127.659876 
L 380.510896 127.659876 
L 381.307818 127.659876 
L 382.10474 127.659876 
L 382.901662 127.659876 
L 383.698584 127.659876 
L 384.495506 127.659876 
L 385.292428 127.936864 
L 386.089351 127.936864 
L 386.886273 128.058842 
L 387.683195 128.382122 
L 388.480117 128.382122 
L 389.277039 128.382122 
L 390.073961 128.714134 
L 390.870883 128.714134 
L 391.667806 128.809208 
L 392.464728 128.852032 
L 393.26165 129.13938 
L 394.058572 129.15035 
L 394.855494 129.377134 
L 395.652416 129.439566 
L 396.449338 129.753788 
L 397.24626 129.764475 
L 398.043183 129.764475 
L 398.840105 129.82376 
L 399.637027 129.948179 
L 400.433949 130.065372 
L 401.230871 130.092046 
L 402.027793 130.260167 
L 402.824715 130.260167 
L 403.621638 130.295528 
L 404.41856 130.385034 
L 405.215482 130.530292 
L 406.012404 130.605524 
L 406.809326 130.605524 
L 407.606248 130.610513 
L 408.40317 130.705495 
L 409.200092 130.71865 
L 409.997015 130.77212 
L 410.793937 130.820748 
L 411.590859 130.849979 
L 412.387781 130.849979 
L 413.184703 130.882709 
L 413.981625 130.882709 
L 414.778547 130.893752 
L 415.575469 130.893752 
L 416.372392 130.958534 
L 417.169314 130.958534 
L 417.966236 130.958534 
L 418.763158 130.969603 
L 419.56008 130.969603 
L 420.357002 130.973314 
L 421.153924 130.980433 
L 421.950847 130.99599 
L 422.747769 131.009817 
L 423.544691 131.009817 
L 424.341613 131.01333 
L 425.138535 131.01333 
L 425.935457 131.031256 
L 426.732379 131.036307 
L 427.529301 131.048141 
L 428.326224 131.049606 
L 429.123146 131.060486 
L 429.920068 131.060486 
L 430.71699 131.074742 
L 431.513912 131.075937 
L 432.310834 131.087896 
L 433.107756 131.091774 
L 433.904679 131.091774 
L 434.701601 131.09826 
L 435.498523 131.09826 
L 436.295445 131.09826 
L 437.092367 131.09826 
L 437.889289 131.113183 
L 438.686211 131.113183 
L 439.483133 131.126696 
L 440.280056 131.126696 
" clip-path="url(#pde9d81e6a7)" style="fill: none; stroke: #008000; stroke-opacity: 0.8; stroke-width: 0.5; stroke-linecap: square"/>
   </g>
   <g id="patch_15">
    <path d="M 357.44 136.24 
L 357.44 25.44 
" style="fill: none; stroke: #000000; stroke-width: 0.8; stroke-linejoin: miter; stroke-linecap: square"/>
   </g>
   <g id="patch_16">
    <path d="M 444.22482 136.24 
L 444.22482 25.44 
" style="fill: none; stroke: #000000; stroke-width: 0.8; stroke-linejoin: miter; stroke-linecap: square"/>
   </g>
   <g id="patch_17">
    <path d="M 357.44 136.24 
L 444.22482 136.24 
" style="fill: none; stroke: #000000; stroke-width: 0.8; stroke-linejoin: miter; stroke-linecap: square"/>
   </g>
   <g id="patch_18">
    <path d="M 357.44 25.44 
L 444.22482 25.44 
" style="fill: none; stroke: #000000; stroke-width: 0.8; stroke-linejoin: miter; stroke-linecap: square"/>
   </g>
   <g id="text_33">
    <!-- scale-10_10 -->
    <g transform="translate(364.93741 19.44) scale(0.12 -0.12)">
     <use xlink:href="#DejaVuSans-73"/>
     <use xlink:href="#DejaVuSans-63" x="52.099609"/>
     <use xlink:href="#DejaVuSans-61" x="107.080078"/>
     <use xlink:href="#DejaVuSans-6c" x="168.359375"/>
     <use xlink:href="#DejaVuSans-65" x="196.142578"/>
     <use xlink:href="#DejaVuSans-2d" x="257.666016"/>
     <use xlink:href="#DejaVuSans-31" x="293.75"/>
     <use xlink:href="#DejaVuSans-30" x="357.373047"/>
     <use xlink:href="#DejaVuSans-5f" x="420.996094"/>
     <use xlink:href="#DejaVuSans-31" x="470.996094"/>
     <use xlink:href="#DejaVuSans-30" x="534.619141"/>
    </g>
   </g>
   <g id="legend_3">
    <g id="patch_19">
     <path d="M 367.865445 78.030625 
L 437.22482 78.030625 
Q 439.22482 78.030625 439.22482 76.030625 
L 439.22482 32.44 
Q 439.22482 30.44 437.22482 30.44 
L 367.865445 30.44 
Q 365.865445 30.44 365.865445 32.44 
L 365.865445 76.030625 
Q 365.865445 78.030625 367.865445 78.030625 
z
" style="fill: #ffffff; opacity: 0.8; stroke: #cccccc; stroke-linejoin: miter"/>
    </g>
    <g id="line2d_34">
     <path d="M 369.865445 38.538437 
L 379.865445 38.538437 
L 389.865445 38.538437 
" style="fill: none; stroke: #4682b4; stroke-opacity: 0.8; stroke-width: 0.5; stroke-linecap: square"/>
    </g>
    <g id="text_34">
     <!-- PSO -->
     <g transform="translate(397.865445 42.038437) scale(0.1 -0.1)">
      <use xlink:href="#DejaVuSans-50"/>
      <use xlink:href="#DejaVuSans-53" x="60.302734"/>
      <use xlink:href="#DejaVuSans-4f" x="123.779297"/>
     </g>
    </g>
    <g id="line2d_35">
     <path d="M 369.865445 53.216563 
L 379.865445 53.216563 
L 389.865445 53.216563 
" style="fill: none; stroke: #cd5c5c; stroke-opacity: 0.8; stroke-width: 0.5; stroke-linecap: square"/>
    </g>
    <g id="text_35">
     <!-- G_GA -->
     <g transform="translate(397.865445 56.716563) scale(0.1 -0.1)">
      <use xlink:href="#DejaVuSans-47"/>
      <use xlink:href="#DejaVuSans-5f" x="77.490234"/>
      <use xlink:href="#DejaVuSans-47" x="127.490234"/>
      <use xlink:href="#DejaVuSans-41" x="204.980469"/>
     </g>
    </g>
    <g id="line2d_36">
     <path d="M 369.865445 68.172812 
L 379.865445 68.172812 
L 389.865445 68.172812 
" style="fill: none; stroke: #008000; stroke-opacity: 0.8; stroke-width: 0.5; stroke-linecap: square"/>
    </g>
    <g id="text_36">
     <!-- ORI_GA -->
     <g transform="translate(397.865445 71.672812) scale(0.1 -0.1)">
      <use xlink:href="#DejaVuSans-4f"/>
      <use xlink:href="#DejaVuSans-52" x="78.710938"/>
      <use xlink:href="#DejaVuSans-49" x="148.193359"/>
      <use xlink:href="#DejaVuSans-5f" x="177.685547"/>
      <use xlink:href="#DejaVuSans-47" x="227.685547"/>
      <use xlink:href="#DejaVuSans-41" x="305.175781"/>
     </g>
    </g>
   </g>
  </g>
  <g id="axes_4">
   <g id="patch_20">
    <path d="M 57.44 303.64 
L 144.22482 303.64 
L 144.22482 192.84 
L 57.44 192.84 
z
" style="fill: #ffffff"/>
   </g>
   <g id="matplotlib.axis_7">
    <g id="xtick_7">
     <g id="line2d_37">
      <g>
       <use xlink:href="#m47e1bc19a9" x="61.384765" y="303.64" style="stroke: #000000; stroke-width: 0.8"/>
      </g>
     </g>
     <g id="text_37">
      <!-- 0 -->
      <g transform="translate(58.203515 318.238437) scale(0.1 -0.1)">
       <use xlink:href="#DejaVuSans-30"/>
      </g>
     </g>
    </g>
    <g id="xtick_8">
     <g id="line2d_38">
      <g>
       <use xlink:href="#m47e1bc19a9" x="141.076978" y="303.64" style="stroke: #000000; stroke-width: 0.8"/>
      </g>
     </g>
     <g id="text_38">
      <!-- 100 -->
      <g transform="translate(131.533228 318.238437) scale(0.1 -0.1)">
       <use xlink:href="#DejaVuSans-31"/>
       <use xlink:href="#DejaVuSans-30" x="63.623047"/>
       <use xlink:href="#DejaVuSans-30" x="127.246094"/>
      </g>
     </g>
    </g>
    <g id="text_39">
     <!-- Iteration -->
     <g transform="translate(79.623816 331.916562) scale(0.1 -0.1)">
      <use xlink:href="#DejaVuSans-49"/>
      <use xlink:href="#DejaVuSans-74" x="29.492188"/>
      <use xlink:href="#DejaVuSans-65" x="68.701172"/>
      <use xlink:href="#DejaVuSans-72" x="130.224609"/>
      <use xlink:href="#DejaVuSans-61" x="171.337891"/>
      <use xlink:href="#DejaVuSans-74" x="232.617188"/>
      <use xlink:href="#DejaVuSans-69" x="271.826172"/>
      <use xlink:href="#DejaVuSans-6f" x="299.609375"/>
      <use xlink:href="#DejaVuSans-6e" x="360.791016"/>
     </g>
    </g>
   </g>
   <g id="matplotlib.axis_8">
    <g id="ytick_13">
     <g id="line2d_39">
      <g>
       <use xlink:href="#m665a42ed31" x="57.44" y="300.690576" style="stroke: #000000; stroke-width: 0.8"/>
      </g>
     </g>
     <g id="text_40">
      <!-- 0 -->
      <g transform="translate(44.0775 304.489794) scale(0.1 -0.1)">
       <use xlink:href="#DejaVuSans-30"/>
      </g>
     </g>
    </g>
    <g id="ytick_14">
     <g id="line2d_40">
      <g>
       <use xlink:href="#m665a42ed31" x="57.44" y="274.108484" style="stroke: #000000; stroke-width: 0.8"/>
      </g>
     </g>
     <g id="text_41">
      <!-- 1000 -->
      <g transform="translate(24.99 277.907703) scale(0.1 -0.1)">
       <use xlink:href="#DejaVuSans-31"/>
       <use xlink:href="#DejaVuSans-30" x="63.623047"/>
       <use xlink:href="#DejaVuSans-30" x="127.246094"/>
       <use xlink:href="#DejaVuSans-30" x="190.869141"/>
      </g>
     </g>
    </g>
    <g id="ytick_15">
     <g id="line2d_41">
      <g>
       <use xlink:href="#m665a42ed31" x="57.44" y="247.526393" style="stroke: #000000; stroke-width: 0.8"/>
      </g>
     </g>
     <g id="text_42">
      <!-- 2000 -->
      <g transform="translate(24.99 251.325612) scale(0.1 -0.1)">
       <use xlink:href="#DejaVuSans-32"/>
       <use xlink:href="#DejaVuSans-30" x="63.623047"/>
       <use xlink:href="#DejaVuSans-30" x="127.246094"/>
       <use xlink:href="#DejaVuSans-30" x="190.869141"/>
      </g>
     </g>
    </g>
    <g id="ytick_16">
     <g id="line2d_42">
      <g>
       <use xlink:href="#m665a42ed31" x="57.44" y="220.944302" style="stroke: #000000; stroke-width: 0.8"/>
      </g>
     </g>
     <g id="text_43">
      <!-- 3000 -->
      <g transform="translate(24.99 224.743521) scale(0.1 -0.1)">
       <defs>
        <path id="DejaVuSans-33" d="M 2597 2516 
Q 3050 2419 3304 2112 
Q 3559 1806 3559 1356 
Q 3559 666 3084 287 
Q 2609 -91 1734 -91 
Q 1441 -91 1130 -33 
Q 819 25 488 141 
L 488 750 
Q 750 597 1062 519 
Q 1375 441 1716 441 
Q 2309 441 2620 675 
Q 2931 909 2931 1356 
Q 2931 1769 2642 2001 
Q 2353 2234 1838 2234 
L 1294 2234 
L 1294 2753 
L 1863 2753 
Q 2328 2753 2575 2939 
Q 2822 3125 2822 3475 
Q 2822 3834 2567 4026 
Q 2313 4219 1838 4219 
Q 1578 4219 1281 4162 
Q 984 4106 628 3988 
L 628 4550 
Q 988 4650 1302 4700 
Q 1616 4750 1894 4750 
Q 2613 4750 3031 4423 
Q 3450 4097 3450 3541 
Q 3450 3153 3228 2886 
Q 3006 2619 2597 2516 
z
" transform="scale(0.015625)"/>
       </defs>
       <use xlink:href="#DejaVuSans-33"/>
       <use xlink:href="#DejaVuSans-30" x="63.623047"/>
       <use xlink:href="#DejaVuSans-30" x="127.246094"/>
       <use xlink:href="#DejaVuSans-30" x="190.869141"/>
      </g>
     </g>
    </g>
    <g id="ytick_17">
     <g id="line2d_43">
      <g>
       <use xlink:href="#m665a42ed31" x="57.44" y="194.362211" style="stroke: #000000; stroke-width: 0.8"/>
      </g>
     </g>
     <g id="text_44">
      <!-- 4000 -->
      <g transform="translate(24.99 198.16143) scale(0.1 -0.1)">
       <defs>
        <path id="DejaVuSans-34" d="M 2419 4116 
L 825 1625 
L 2419 1625 
L 2419 4116 
z
M 2253 4666 
L 3047 4666 
L 3047 1625 
L 3713 1625 
L 3713 1100 
L 3047 1100 
L 3047 0 
L 2419 0 
L 2419 1100 
L 313 1100 
L 313 1709 
L 2253 4666 
z
" transform="scale(0.015625)"/>
       </defs>
       <use xlink:href="#DejaVuSans-34"/>
       <use xlink:href="#DejaVuSans-30" x="63.623047"/>
       <use xlink:href="#DejaVuSans-30" x="127.246094"/>
       <use xlink:href="#DejaVuSans-30" x="190.869141"/>
      </g>
     </g>
    </g>
    <g id="text_45">
     <!-- Fitness -->
     <g transform="translate(18.910312 265.557187) rotate(-90) scale(0.1 -0.1)">
      <use xlink:href="#DejaVuSans-46"/>
      <use xlink:href="#DejaVuSans-69" x="50.269531"/>
      <use xlink:href="#DejaVuSans-74" x="78.052734"/>
      <use xlink:href="#DejaVuSans-6e" x="117.261719"/>
      <use xlink:href="#DejaVuSans-65" x="180.640625"/>
      <use xlink:href="#DejaVuSans-73" x="242.164062"/>
      <use xlink:href="#DejaVuSans-73" x="294.263672"/>
     </g>
    </g>
   </g>
   <g id="line2d_44">
    <path d="M 61.384765 267.744732 
L 62.181687 270.99838 
L 62.978609 272.49761 
L 63.775531 295.325019 
L 64.572453 296.699812 
L 65.369375 296.953176 
L 66.166297 297.502871 
L 66.963219 297.762894 
L 67.760142 297.915219 
L 68.557064 297.941172 
L 69.353986 298.027555 
L 70.150908 298.040898 
L 70.94783 298.099607 
L 71.744752 298.10549 
L 72.541674 298.133873 
L 73.338597 298.157408 
L 74.135519 298.174393 
L 74.932441 298.221676 
L 75.729363 298.235756 
L 76.526285 298.248797 
L 77.323207 298.25339 
L 78.120129 298.254327 
L 78.917051 298.260796 
L 79.713974 298.262058 
L 80.510896 298.267961 
L 81.307818 298.270742 
L 82.10474 298.275209 
L 82.901662 298.290944 
L 83.698584 298.30816 
L 84.495506 298.324393 
L 85.292428 298.345316 
L 86.089351 298.345508 
L 86.886273 298.347659 
L 87.683195 298.360203 
L 88.480117 298.360335 
L 89.277039 298.367875 
L 90.073961 298.373082 
L 90.870883 298.373868 
L 91.667806 298.378073 
L 92.464728 298.378487 
L 93.26165 298.379112 
L 94.058572 298.379151 
L 94.855494 298.37945 
L 95.652416 298.37971 
L 96.449338 298.380084 
L 97.24626 298.380486 
L 98.043183 298.380906 
L 98.840105 298.381491 
L 99.637027 298.38213 
L 100.433949 298.38291 
L 101.230871 298.384038 
L 102.027793 298.385246 
L 102.824715 298.387047 
L 103.621638 298.388971 
L 104.41856 298.391986 
L 105.215482 298.394795 
L 106.012404 298.396744 
L 106.809326 298.396774 
L 107.606248 298.396774 
L 108.40317 298.396774 
L 109.200092 298.396795 
L 109.997015 298.396811 
L 110.793937 298.396837 
L 111.590859 298.396837 
L 112.387781 298.39685 
L 113.184703 298.396878 
L 113.981625 298.396878 
L 114.778547 298.396881 
L 115.575469 298.396881 
L 116.372392 298.396911 
L 117.169314 298.396911 
L 117.966236 298.396911 
L 118.763158 298.396911 
L 119.56008 298.396912 
L 120.357002 298.396912 
L 121.153924 298.396914 
L 121.950847 298.396918 
L 122.747769 298.396918 
L 123.544691 298.396918 
L 124.341613 298.396918 
L 125.138535 298.396918 
L 125.935457 298.396918 
L 126.732379 298.396918 
L 127.529301 298.396918 
L 128.326224 298.396918 
L 129.123146 298.396918 
L 129.920068 298.396918 
L 130.71699 298.396918 
L 131.513912 298.396918 
L 132.310834 298.396918 
L 133.107756 298.396918 
L 133.904679 298.396918 
L 134.701601 298.396918 
L 135.498523 298.396918 
L 136.295445 298.396918 
L 137.092367 298.396918 
L 137.889289 298.396918 
L 138.686211 298.396918 
L 139.483133 298.396918 
L 140.280056 298.396918 
" clip-path="url(#p7dd2d187d0)" style="fill: none; stroke: #4682b4; stroke-opacity: 0.8; stroke-width: 0.5; stroke-linecap: square"/>
   </g>
   <g id="line2d_45">
    <path d="M 61.384765 271.107366 
L 62.181687 271.107366 
L 62.978609 271.107366 
L 63.775531 271.107366 
L 64.572453 271.107366 
L 65.369375 271.107366 
L 66.166297 271.107366 
L 66.963219 271.107366 
L 67.760142 271.107366 
L 68.557064 271.107366 
L 69.353986 272.210523 
L 70.150908 272.210523 
L 70.94783 272.253054 
L 71.744752 273.688487 
L 72.541674 296.90531 
L 73.338597 296.90531 
L 74.135519 297.419295 
L 74.932441 297.516995 
L 75.729363 297.516995 
L 76.526285 297.692458 
L 77.323207 297.841997 
L 78.120129 297.842037 
L 78.917051 297.842808 
L 79.713974 297.861309 
L 80.510896 297.864306 
L 81.307818 297.864306 
L 82.10474 297.864306 
L 82.901662 297.903484 
L 83.698584 297.936074 
L 84.495506 297.94004 
L 85.292428 297.960288 
L 86.089351 297.960288 
L 86.886273 297.972383 
L 87.683195 298.009703 
L 88.480117 298.009703 
L 89.277039 298.041344 
L 90.073961 298.100656 
L 90.870883 298.100656 
L 91.667806 298.126418 
L 92.464728 298.126418 
L 93.26165 298.137682 
L 94.058572 298.146222 
L 94.855494 298.166913 
L 95.652416 298.20744 
L 96.449338 298.20744 
L 97.24626 298.20744 
L 98.043183 298.221079 
L 98.840105 298.262223 
L 99.637027 298.262223 
L 100.433949 298.277902 
L 101.230871 298.301679 
L 102.027793 298.31213 
L 102.824715 298.317815 
L 103.621638 298.333666 
L 104.41856 298.336341 
L 105.215482 298.355863 
L 106.012404 298.355863 
L 106.809326 298.363025 
L 107.606248 298.375617 
L 108.40317 298.375617 
L 109.200092 298.393258 
L 109.997015 298.40782 
L 110.793937 298.40782 
L 111.590859 298.421612 
L 112.387781 298.431747 
L 113.184703 298.461745 
L 113.981625 298.476395 
L 114.778547 298.476395 
L 115.575469 298.476395 
L 116.372392 298.477824 
L 117.169314 298.48854 
L 117.966236 298.502515 
L 118.763158 298.502515 
L 119.56008 298.506589 
L 120.357002 298.512872 
L 121.153924 298.512939 
L 121.950847 298.51617 
L 122.747769 298.523053 
L 123.544691 298.537514 
L 124.341613 298.537514 
L 125.138535 298.537514 
L 125.935457 298.541346 
L 126.732379 298.546064 
L 127.529301 298.549795 
L 128.326224 298.553542 
L 129.123146 298.556056 
L 129.920068 298.556918 
L 130.71699 298.561725 
L 131.513912 298.565519 
L 132.310834 298.57058 
L 133.107756 298.57058 
L 133.904679 298.57397 
L 134.701601 298.57397 
L 135.498523 298.57397 
L 136.295445 298.57397 
L 137.092367 298.576403 
L 137.889289 298.576403 
L 138.686211 298.576403 
L 139.483133 298.576403 
L 140.280056 298.576403 
" clip-path="url(#p7dd2d187d0)" style="fill: none; stroke: #cd5c5c; stroke-opacity: 0.8; stroke-width: 0.5; stroke-linecap: square"/>
   </g>
   <g id="line2d_46">
    <path d="M 61.384765 197.876364 
L 62.181687 200.800394 
L 62.978609 209.572484 
L 63.775531 220.736962 
L 64.572453 229.966264 
L 65.369375 237.653805 
L 66.166297 249.158534 
L 66.963219 251.146874 
L 67.760142 260.057191 
L 68.557064 267.553341 
L 69.353986 267.553341 
L 70.150908 268.754851 
L 70.94783 269.467251 
L 71.744752 270.349777 
L 72.541674 271.838374 
L 73.338597 272.593305 
L 74.135519 272.98672 
L 74.932441 273.69912 
L 75.729363 274.050004 
L 76.526285 296.71677 
L 77.323207 296.71677 
L 78.120129 296.71677 
L 78.917051 296.954801 
L 79.713974 297.479363 
L 80.510896 297.479363 
L 81.307818 297.479363 
L 82.10474 297.571551 
L 82.901662 297.571551 
L 83.698584 297.571551 
L 84.495506 297.571551 
L 85.292428 297.571551 
L 86.089351 297.571551 
L 86.886273 297.571551 
L 87.683195 297.571551 
L 88.480117 297.652672 
L 89.277039 297.652672 
L 90.073961 297.758925 
L 90.870883 297.878299 
L 91.667806 297.882591 
L 92.464728 297.882591 
L 93.26165 297.886496 
L 94.058572 297.926624 
L 94.855494 297.955689 
L 95.652416 298.001828 
L 96.449338 298.003984 
L 97.24626 298.055227 
L 98.043183 298.093158 
L 98.840105 298.146823 
L 99.637027 298.146823 
L 100.433949 298.186978 
L 101.230871 298.235945 
L 102.027793 298.27117 
L 102.824715 298.285862 
L 103.621638 298.285862 
L 104.41856 298.285862 
L 105.215482 298.285862 
L 106.012404 298.287652 
L 106.809326 298.333962 
L 107.606248 298.372638 
L 108.40317 298.372638 
L 109.200092 298.372638 
L 109.997015 298.393219 
L 110.793937 298.405267 
L 111.590859 298.451646 
L 112.387781 298.451646 
L 113.184703 298.451646 
L 113.981625 298.451646 
L 114.778547 298.47272 
L 115.575469 298.478733 
L 116.372392 298.479671 
L 117.169314 298.496886 
L 117.966236 298.505551 
L 118.763158 298.513986 
L 119.56008 298.525661 
L 120.357002 298.525661 
L 121.153924 298.570939 
L 121.950847 298.570939 
L 122.747769 298.570939 
L 123.544691 298.570939 
L 124.341613 298.570939 
L 125.138535 298.588646 
L 125.935457 298.588646 
L 126.732379 298.588646 
L 127.529301 298.588646 
L 128.326224 298.588646 
L 129.123146 298.5916 
L 129.920068 298.5916 
L 130.71699 298.5916 
L 131.513912 298.593197 
L 132.310834 298.593197 
L 133.107756 298.595584 
L 133.904679 298.595584 
L 134.701601 298.59667 
L 135.498523 298.601006 
L 136.295445 298.601006 
L 137.092367 298.603636 
L 137.889289 298.603636 
L 138.686211 298.603636 
L 139.483133 298.603636 
L 140.280056 298.603636 
" clip-path="url(#p7dd2d187d0)" style="fill: none; stroke: #008000; stroke-opacity: 0.8; stroke-width: 0.5; stroke-linecap: square"/>
   </g>
   <g id="patch_21">
    <path d="M 57.44 303.64 
L 57.44 192.84 
" style="fill: none; stroke: #000000; stroke-width: 0.8; stroke-linejoin: miter; stroke-linecap: square"/>
   </g>
   <g id="patch_22">
    <path d="M 144.22482 303.64 
L 144.22482 192.84 
" style="fill: none; stroke: #000000; stroke-width: 0.8; stroke-linejoin: miter; stroke-linecap: square"/>
   </g>
   <g id="patch_23">
    <path d="M 57.44 303.64 
L 144.22482 303.64 
" style="fill: none; stroke: #000000; stroke-width: 0.8; stroke-linejoin: miter; stroke-linecap: square"/>
   </g>
   <g id="patch_24">
    <path d="M 57.44 192.84 
L 144.22482 192.84 
" style="fill: none; stroke: #000000; stroke-width: 0.8; stroke-linejoin: miter; stroke-linecap: square"/>
   </g>
   <g id="text_46">
    <!-- scale-12_12 -->
    <g transform="translate(64.93741 186.84) scale(0.12 -0.12)">
     <use xlink:href="#DejaVuSans-73"/>
     <use xlink:href="#DejaVuSans-63" x="52.099609"/>
     <use xlink:href="#DejaVuSans-61" x="107.080078"/>
     <use xlink:href="#DejaVuSans-6c" x="168.359375"/>
     <use xlink:href="#DejaVuSans-65" x="196.142578"/>
     <use xlink:href="#DejaVuSans-2d" x="257.666016"/>
     <use xlink:href="#DejaVuSans-31" x="293.75"/>
     <use xlink:href="#DejaVuSans-32" x="357.373047"/>
     <use xlink:href="#DejaVuSans-5f" x="420.996094"/>
     <use xlink:href="#DejaVuSans-31" x="470.996094"/>
     <use xlink:href="#DejaVuSans-32" x="534.619141"/>
    </g>
   </g>
   <g id="legend_4">
    <g id="patch_25">
     <path d="M 67.865445 245.1525 
L 137.22482 245.1525 
Q 139.22482 245.1525 139.22482 243.1525 
L 139.22482 199.84 
Q 139.22482 197.84 137.22482 197.84 
L 67.865445 197.84 
Q 65.865445 197.84 65.865445 199.84 
L 65.865445 243.1525 
Q 65.865445 245.1525 67.865445 245.1525 
z
" style="fill: #ffffff; opacity: 0.8; stroke: #cccccc; stroke-linejoin: miter"/>
    </g>
    <g id="line2d_47">
     <path d="M 69.865445 205.938437 
L 79.865445 205.938437 
L 89.865445 205.938437 
" style="fill: none; stroke: #4682b4; stroke-opacity: 0.8; stroke-width: 0.5; stroke-linecap: square"/>
    </g>
    <g id="text_47">
     <!-- PSO -->
     <g transform="translate(97.865445 209.438437) scale(0.1 -0.1)">
      <use xlink:href="#DejaVuSans-50"/>
      <use xlink:href="#DejaVuSans-53" x="60.302734"/>
      <use xlink:href="#DejaVuSans-4f" x="123.779297"/>
     </g>
    </g>
    <g id="line2d_48">
     <path d="M 69.865445 220.616562 
L 79.865445 220.616562 
L 89.865445 220.616562 
" style="fill: none; stroke: #cd5c5c; stroke-opacity: 0.8; stroke-width: 0.5; stroke-linecap: square"/>
    </g>
    <g id="text_48">
     <!-- G-GA -->
     <g transform="translate(97.865445 224.116562) scale(0.1 -0.1)">
      <use xlink:href="#DejaVuSans-47"/>
      <use xlink:href="#DejaVuSans-2d" x="77.490234"/>
      <use xlink:href="#DejaVuSans-47" x="117.199219"/>
      <use xlink:href="#DejaVuSans-41" x="194.689453"/>
     </g>
    </g>
    <g id="line2d_49">
     <path d="M 69.865445 235.294687 
L 79.865445 235.294687 
L 89.865445 235.294687 
" style="fill: none; stroke: #008000; stroke-opacity: 0.8; stroke-width: 0.5; stroke-linecap: square"/>
    </g>
    <g id="text_49">
     <!-- ORI_GA -->
     <g transform="translate(97.865445 238.794687) scale(0.1 -0.1)">
      <use xlink:href="#DejaVuSans-4f"/>
      <use xlink:href="#DejaVuSans-52" x="78.710938"/>
      <use xlink:href="#DejaVuSans-49" x="148.193359"/>
      <use xlink:href="#DejaVuSans-5f" x="177.685547"/>
      <use xlink:href="#DejaVuSans-47" x="227.685547"/>
      <use xlink:href="#DejaVuSans-41" x="305.175781"/>
     </g>
    </g>
   </g>
  </g>
  <g id="axes_5">
   <g id="patch_26">
    <path d="M 207.44 303.64 
L 294.22482 303.64 
L 294.22482 192.84 
L 207.44 192.84 
z
" style="fill: #ffffff"/>
   </g>
   <g id="matplotlib.axis_9">
    <g id="xtick_9">
     <g id="line2d_50">
      <g>
       <use xlink:href="#m47e1bc19a9" x="207.44" y="303.64" style="stroke: #000000; stroke-width: 0.8"/>
      </g>
     </g>
     <g id="text_50">
      <!-- 0.0 -->
      <g transform="translate(199.488438 318.238437) scale(0.1 -0.1)">
       <defs>
        <path id="DejaVuSans-2e" d="M 684 794 
L 1344 794 
L 1344 0 
L 684 0 
L 684 794 
z
" transform="scale(0.015625)"/>
       </defs>
       <use xlink:href="#DejaVuSans-30"/>
       <use xlink:href="#DejaVuSans-2e" x="63.623047"/>
       <use xlink:href="#DejaVuSans-30" x="95.410156"/>
      </g>
     </g>
    </g>
    <g id="xtick_10">
     <g id="line2d_51">
      <g>
       <use xlink:href="#m47e1bc19a9" x="250.83241" y="303.64" style="stroke: #000000; stroke-width: 0.8"/>
      </g>
     </g>
     <g id="text_51">
      <!-- 0.5 -->
      <g transform="translate(242.880848 318.238437) scale(0.1 -0.1)">
       <use xlink:href="#DejaVuSans-30"/>
       <use xlink:href="#DejaVuSans-2e" x="63.623047"/>
       <use xlink:href="#DejaVuSans-35" x="95.410156"/>
      </g>
     </g>
    </g>
    <g id="xtick_11">
     <g id="line2d_52">
      <g>
       <use xlink:href="#m47e1bc19a9" x="294.22482" y="303.64" style="stroke: #000000; stroke-width: 0.8"/>
      </g>
     </g>
     <g id="text_52">
      <!-- 1.0 -->
      <g transform="translate(286.273258 318.238437) scale(0.1 -0.1)">
       <use xlink:href="#DejaVuSans-31"/>
       <use xlink:href="#DejaVuSans-2e" x="63.623047"/>
       <use xlink:href="#DejaVuSans-30" x="95.410156"/>
      </g>
     </g>
    </g>
   </g>
   <g id="matplotlib.axis_10">
    <g id="ytick_18">
     <g id="line2d_53">
      <g>
       <use xlink:href="#m665a42ed31" x="207.44" y="303.64" style="stroke: #000000; stroke-width: 0.8"/>
      </g>
     </g>
     <g id="text_53">
      <!-- 0.0 -->
      <g transform="translate(184.536875 307.439219) scale(0.1 -0.1)">
       <use xlink:href="#DejaVuSans-30"/>
       <use xlink:href="#DejaVuSans-2e" x="63.623047"/>
       <use xlink:href="#DejaVuSans-30" x="95.410156"/>
      </g>
     </g>
    </g>
    <g id="ytick_19">
     <g id="line2d_54">
      <g>
       <use xlink:href="#m665a42ed31" x="207.44" y="281.48" style="stroke: #000000; stroke-width: 0.8"/>
      </g>
     </g>
     <g id="text_54">
      <!-- 0.2 -->
      <g transform="translate(184.536875 285.279219) scale(0.1 -0.1)">
       <use xlink:href="#DejaVuSans-30"/>
       <use xlink:href="#DejaVuSans-2e" x="63.623047"/>
       <use xlink:href="#DejaVuSans-32" x="95.410156"/>
      </g>
     </g>
    </g>
    <g id="ytick_20">
     <g id="line2d_55">
      <g>
       <use xlink:href="#m665a42ed31" x="207.44" y="259.32" style="stroke: #000000; stroke-width: 0.8"/>
      </g>
     </g>
     <g id="text_55">
      <!-- 0.4 -->
      <g transform="translate(184.536875 263.119219) scale(0.1 -0.1)">
       <use xlink:href="#DejaVuSans-30"/>
       <use xlink:href="#DejaVuSans-2e" x="63.623047"/>
       <use xlink:href="#DejaVuSans-34" x="95.410156"/>
      </g>
     </g>
    </g>
    <g id="ytick_21">
     <g id="line2d_56">
      <g>
       <use xlink:href="#m665a42ed31" x="207.44" y="237.16" style="stroke: #000000; stroke-width: 0.8"/>
      </g>
     </g>
     <g id="text_56">
      <!-- 0.6 -->
      <g transform="translate(184.536875 240.959219) scale(0.1 -0.1)">
       <defs>
        <path id="DejaVuSans-36" d="M 2113 2584 
Q 1688 2584 1439 2293 
Q 1191 2003 1191 1497 
Q 1191 994 1439 701 
Q 1688 409 2113 409 
Q 2538 409 2786 701 
Q 3034 994 3034 1497 
Q 3034 2003 2786 2293 
Q 2538 2584 2113 2584 
z
M 3366 4563 
L 3366 3988 
Q 3128 4100 2886 4159 
Q 2644 4219 2406 4219 
Q 1781 4219 1451 3797 
Q 1122 3375 1075 2522 
Q 1259 2794 1537 2939 
Q 1816 3084 2150 3084 
Q 2853 3084 3261 2657 
Q 3669 2231 3669 1497 
Q 3669 778 3244 343 
Q 2819 -91 2113 -91 
Q 1303 -91 875 529 
Q 447 1150 447 2328 
Q 447 3434 972 4092 
Q 1497 4750 2381 4750 
Q 2619 4750 2861 4703 
Q 3103 4656 3366 4563 
z
" transform="scale(0.015625)"/>
       </defs>
       <use xlink:href="#DejaVuSans-30"/>
       <use xlink:href="#DejaVuSans-2e" x="63.623047"/>
       <use xlink:href="#DejaVuSans-36" x="95.410156"/>
      </g>
     </g>
    </g>
    <g id="ytick_22">
     <g id="line2d_57">
      <g>
       <use xlink:href="#m665a42ed31" x="207.44" y="215" style="stroke: #000000; stroke-width: 0.8"/>
      </g>
     </g>
     <g id="text_57">
      <!-- 0.8 -->
      <g transform="translate(184.536875 218.799219) scale(0.1 -0.1)">
       <defs>
        <path id="DejaVuSans-38" d="M 2034 2216 
Q 1584 2216 1326 1975 
Q 1069 1734 1069 1313 
Q 1069 891 1326 650 
Q 1584 409 2034 409 
Q 2484 409 2743 651 
Q 3003 894 3003 1313 
Q 3003 1734 2745 1975 
Q 2488 2216 2034 2216 
z
M 1403 2484 
Q 997 2584 770 2862 
Q 544 3141 544 3541 
Q 544 4100 942 4425 
Q 1341 4750 2034 4750 
Q 2731 4750 3128 4425 
Q 3525 4100 3525 3541 
Q 3525 3141 3298 2862 
Q 3072 2584 2669 2484 
Q 3125 2378 3379 2068 
Q 3634 1759 3634 1313 
Q 3634 634 3220 271 
Q 2806 -91 2034 -91 
Q 1263 -91 848 271 
Q 434 634 434 1313 
Q 434 1759 690 2068 
Q 947 2378 1403 2484 
z
M 1172 3481 
Q 1172 3119 1398 2916 
Q 1625 2713 2034 2713 
Q 2441 2713 2670 2916 
Q 2900 3119 2900 3481 
Q 2900 3844 2670 4047 
Q 2441 4250 2034 4250 
Q 1625 4250 1398 4047 
Q 1172 3844 1172 3481 
z
" transform="scale(0.015625)"/>
       </defs>
       <use xlink:href="#DejaVuSans-30"/>
       <use xlink:href="#DejaVuSans-2e" x="63.623047"/>
       <use xlink:href="#DejaVuSans-38" x="95.410156"/>
      </g>
     </g>
    </g>
    <g id="ytick_23">
     <g id="line2d_58">
      <g>
       <use xlink:href="#m665a42ed31" x="207.44" y="192.84" style="stroke: #000000; stroke-width: 0.8"/>
      </g>
     </g>
     <g id="text_58">
      <!-- 1.0 -->
      <g transform="translate(184.536875 196.639219) scale(0.1 -0.1)">
       <use xlink:href="#DejaVuSans-31"/>
       <use xlink:href="#DejaVuSans-2e" x="63.623047"/>
       <use xlink:href="#DejaVuSans-30" x="95.410156"/>
      </g>
     </g>
    </g>
   </g>
   <g id="patch_27">
    <path d="M 207.44 303.64 
L 207.44 192.84 
" style="fill: none; stroke: #000000; stroke-width: 0.8; stroke-linejoin: miter; stroke-linecap: square"/>
   </g>
   <g id="patch_28">
    <path d="M 294.22482 303.64 
L 294.22482 192.84 
" style="fill: none; stroke: #000000; stroke-width: 0.8; stroke-linejoin: miter; stroke-linecap: square"/>
   </g>
   <g id="patch_29">
    <path d="M 207.44 303.64 
L 294.22482 303.64 
" style="fill: none; stroke: #000000; stroke-width: 0.8; stroke-linejoin: miter; stroke-linecap: square"/>
   </g>
   <g id="patch_30">
    <path d="M 207.44 192.84 
L 294.22482 192.84 
" style="fill: none; stroke: #000000; stroke-width: 0.8; stroke-linejoin: miter; stroke-linecap: square"/>
   </g>
  </g>
  <g id="axes_6"/>
 </g>
 <defs>
  <clipPath id="pe4f8a951bd">
   <rect x="57.44" y="25.44" width="86.78482" height="110.8"/>
  </clipPath>
  <clipPath id="p60d5abce38">
   <rect x="207.44" y="25.44" width="86.78482" height="110.8"/>
  </clipPath>
  <clipPath id="pde9d81e6a7">
   <rect x="357.44" y="25.44" width="86.78482" height="110.8"/>
  </clipPath>
  <clipPath id="p7dd2d187d0">
   <rect x="57.44" y="192.84" width="86.78482" height="110.8"/>
  </clipPath>
 </defs>
</svg>
