<?xml version="1.0" encoding="utf-8" standalone="no"?>
<!DOCTYPE svg PUBLIC "-//W3C//DTD SVG 1.1//EN"
  "http://www.w3.org/Graphics/SVG/1.1/DTD/svg11.dtd">
<svg xmlns:xlink="http://www.w3.org/1999/xlink" width="720pt" height="432pt" viewBox="0 0 720 432" xmlns="http://www.w3.org/2000/svg" version="1.1">
 <metadata>
  <rdf:RDF xmlns:dc="http://purl.org/dc/elements/1.1/" xmlns:cc="http://creativecommons.org/ns#" xmlns:rdf="http://www.w3.org/1999/02/22-rdf-syntax-ns#">
   <cc:Work>
    <dc:type rdf:resource="http://purl.org/dc/dcmitype/StillImage"/>
    <dc:date>2024-05-04T19:39:40.962098</dc:date>
    <dc:format>image/svg+xml</dc:format>
    <dc:creator>
     <cc:Agent>
      <dc:title>Matplotlib v3.7.2, https://matplotlib.org/</dc:title>
     </cc:Agent>
    </dc:creator>
   </cc:Work>
  </rdf:RDF>
 </metadata>
 <defs>
  <style type="text/css">*{stroke-linejoin: round; stroke-linecap: butt}</style>
 </defs>
 <g id="figure_1">
  <g id="patch_1">
   <path d="M 0 432 
L 720 432 
L 720 0 
L 0 0 
z
" style="fill: #ffffff"/>
  </g>
  <g id="axes_1">
   <g id="patch_2">
    <path d="M 90 384.48 
L 648 384.48 
L 648 51.84 
L 90 51.84 
z
" style="fill: #ffffff"/>
   </g>
   <g id="matplotlib.axis_1">
    <g id="xtick_1">
     <g id="line2d_1">
      <path d="M 115.160646 384.48 
L 115.160646 51.84 
" clip-path="url(#pb662f6471e)" style="fill: none; stroke: #808080; stroke-opacity: 0.2; stroke-linecap: square"/>
     </g>
     <g id="line2d_2">
      <defs>
       <path id="m6be54070c1" d="M 0 0 
L 0 3.5 
" style="stroke: #000000; stroke-width: 0.8"/>
      </defs>
      <g>
       <use xlink:href="#m6be54070c1" x="115.160646" y="384.48" style="stroke: #000000; stroke-width: 0.8"/>
      </g>
     </g>
     <g id="text_1">
      <!-- 0 -->
      <g transform="translate(111.979396 399.078438) scale(0.1 -0.1)">
       <defs>
        <path id="DejaVuSans-30" d="M 2034 4250 
Q 1547 4250 1301 3770 
Q 1056 3291 1056 2328 
Q 1056 1369 1301 889 
Q 1547 409 2034 409 
Q 2525 409 2770 889 
Q 3016 1369 3016 2328 
Q 3016 3291 2770 3770 
Q 2525 4250 2034 4250 
z
M 2034 4750 
Q 2819 4750 3233 4129 
Q 3647 3509 3647 2328 
Q 3647 1150 3233 529 
Q 2819 -91 2034 -91 
Q 1250 -91 836 529 
Q 422 1150 422 2328 
Q 422 3509 836 4129 
Q 1250 4750 2034 4750 
z
" transform="scale(0.015625)"/>
       </defs>
       <use xlink:href="#DejaVuSans-30"/>
      </g>
     </g>
    </g>
    <g id="xtick_2">
     <g id="line2d_3">
      <path d="M 216.65579 384.48 
L 216.65579 51.84 
" clip-path="url(#pb662f6471e)" style="fill: none; stroke: #808080; stroke-opacity: 0.2; stroke-linecap: square"/>
     </g>
     <g id="line2d_4">
      <g>
       <use xlink:href="#m6be54070c1" x="216.65579" y="384.48" style="stroke: #000000; stroke-width: 0.8"/>
      </g>
     </g>
     <g id="text_2">
      <!-- 1 -->
      <g transform="translate(213.47454 399.078438) scale(0.1 -0.1)">
       <defs>
        <path id="DejaVuSans-31" d="M 794 531 
L 1825 531 
L 1825 4091 
L 703 3866 
L 703 4441 
L 1819 4666 
L 2450 4666 
L 2450 531 
L 3481 531 
L 3481 0 
L 794 0 
L 794 531 
z
" transform="scale(0.015625)"/>
       </defs>
       <use xlink:href="#DejaVuSans-31"/>
      </g>
     </g>
    </g>
    <g id="xtick_3">
     <g id="line2d_5">
      <path d="M 318.150933 384.48 
L 318.150933 51.84 
" clip-path="url(#pb662f6471e)" style="fill: none; stroke: #808080; stroke-opacity: 0.2; stroke-linecap: square"/>
     </g>
     <g id="line2d_6">
      <g>
       <use xlink:href="#m6be54070c1" x="318.150933" y="384.48" style="stroke: #000000; stroke-width: 0.8"/>
      </g>
     </g>
     <g id="text_3">
      <!-- 2 -->
      <g transform="translate(314.969683 399.078438) scale(0.1 -0.1)">
       <defs>
        <path id="DejaVuSans-32" d="M 1228 531 
L 3431 531 
L 3431 0 
L 469 0 
L 469 531 
Q 828 903 1448 1529 
Q 2069 2156 2228 2338 
Q 2531 2678 2651 2914 
Q 2772 3150 2772 3378 
Q 2772 3750 2511 3984 
Q 2250 4219 1831 4219 
Q 1534 4219 1204 4116 
Q 875 4013 500 3803 
L 500 4441 
Q 881 4594 1212 4672 
Q 1544 4750 1819 4750 
Q 2544 4750 2975 4387 
Q 3406 4025 3406 3419 
Q 3406 3131 3298 2873 
Q 3191 2616 2906 2266 
Q 2828 2175 2409 1742 
Q 1991 1309 1228 531 
z
" transform="scale(0.015625)"/>
       </defs>
       <use xlink:href="#DejaVuSans-32"/>
      </g>
     </g>
    </g>
    <g id="xtick_4">
     <g id="line2d_7">
      <path d="M 419.646077 384.48 
L 419.646077 51.84 
" clip-path="url(#pb662f6471e)" style="fill: none; stroke: #808080; stroke-opacity: 0.2; stroke-linecap: square"/>
     </g>
     <g id="line2d_8">
      <g>
       <use xlink:href="#m6be54070c1" x="419.646077" y="384.48" style="stroke: #000000; stroke-width: 0.8"/>
      </g>
     </g>
     <g id="text_4">
      <!-- 3 -->
      <g transform="translate(416.464827 399.078438) scale(0.1 -0.1)">
       <defs>
        <path id="DejaVuSans-33" d="M 2597 2516 
Q 3050 2419 3304 2112 
Q 3559 1806 3559 1356 
Q 3559 666 3084 287 
Q 2609 -91 1734 -91 
Q 1441 -91 1130 -33 
Q 819 25 488 141 
L 488 750 
Q 750 597 1062 519 
Q 1375 441 1716 441 
Q 2309 441 2620 675 
Q 2931 909 2931 1356 
Q 2931 1769 2642 2001 
Q 2353 2234 1838 2234 
L 1294 2234 
L 1294 2753 
L 1863 2753 
Q 2328 2753 2575 2939 
Q 2822 3125 2822 3475 
Q 2822 3834 2567 4026 
Q 2313 4219 1838 4219 
Q 1578 4219 1281 4162 
Q 984 4106 628 3988 
L 628 4550 
Q 988 4650 1302 4700 
Q 1616 4750 1894 4750 
Q 2613 4750 3031 4423 
Q 3450 4097 3450 3541 
Q 3450 3153 3228 2886 
Q 3006 2619 2597 2516 
z
" transform="scale(0.015625)"/>
       </defs>
       <use xlink:href="#DejaVuSans-33"/>
      </g>
     </g>
    </g>
    <g id="xtick_5">
     <g id="line2d_9">
      <path d="M 521.14122 384.48 
L 521.14122 51.84 
" clip-path="url(#pb662f6471e)" style="fill: none; stroke: #808080; stroke-opacity: 0.2; stroke-linecap: square"/>
     </g>
     <g id="line2d_10">
      <g>
       <use xlink:href="#m6be54070c1" x="521.14122" y="384.48" style="stroke: #000000; stroke-width: 0.8"/>
      </g>
     </g>
     <g id="text_5">
      <!-- 4 -->
      <g transform="translate(517.95997 399.078438) scale(0.1 -0.1)">
       <defs>
        <path id="DejaVuSans-34" d="M 2419 4116 
L 825 1625 
L 2419 1625 
L 2419 4116 
z
M 2253 4666 
L 3047 4666 
L 3047 1625 
L 3713 1625 
L 3713 1100 
L 3047 1100 
L 3047 0 
L 2419 0 
L 2419 1100 
L 313 1100 
L 313 1709 
L 2253 4666 
z
" transform="scale(0.015625)"/>
       </defs>
       <use xlink:href="#DejaVuSans-34"/>
      </g>
     </g>
    </g>
    <g id="xtick_6">
     <g id="line2d_11">
      <path d="M 622.636364 384.48 
L 622.636364 51.84 
" clip-path="url(#pb662f6471e)" style="fill: none; stroke: #808080; stroke-opacity: 0.2; stroke-linecap: square"/>
     </g>
     <g id="line2d_12">
      <g>
       <use xlink:href="#m6be54070c1" x="622.636364" y="384.48" style="stroke: #000000; stroke-width: 0.8"/>
      </g>
     </g>
     <g id="text_6">
      <!-- 5 -->
      <g transform="translate(619.455114 399.078438) scale(0.1 -0.1)">
       <defs>
        <path id="DejaVuSans-35" d="M 691 4666 
L 3169 4666 
L 3169 4134 
L 1269 4134 
L 1269 2991 
Q 1406 3038 1543 3061 
Q 1681 3084 1819 3084 
Q 2600 3084 3056 2656 
Q 3513 2228 3513 1497 
Q 3513 744 3044 326 
Q 2575 -91 1722 -91 
Q 1428 -91 1123 -41 
Q 819 9 494 109 
L 494 744 
Q 775 591 1075 516 
Q 1375 441 1709 441 
Q 2250 441 2565 725 
Q 2881 1009 2881 1497 
Q 2881 1984 2565 2268 
Q 2250 2553 1709 2553 
Q 1456 2553 1204 2497 
Q 953 2441 691 2322 
L 691 4666 
z
" transform="scale(0.015625)"/>
       </defs>
       <use xlink:href="#DejaVuSans-35"/>
      </g>
     </g>
    </g>
    <g id="text_7">
     <!-- Timesteps -->
     <g transform="translate(338.215312 414.27625) scale(0.12 -0.12)">
      <defs>
       <path id="DejaVuSans-54" d="M -19 4666 
L 3928 4666 
L 3928 4134 
L 2272 4134 
L 2272 0 
L 1638 0 
L 1638 4134 
L -19 4134 
L -19 4666 
z
" transform="scale(0.015625)"/>
       <path id="DejaVuSans-69" d="M 603 3500 
L 1178 3500 
L 1178 0 
L 603 0 
L 603 3500 
z
M 603 4863 
L 1178 4863 
L 1178 4134 
L 603 4134 
L 603 4863 
z
" transform="scale(0.015625)"/>
       <path id="DejaVuSans-6d" d="M 3328 2828 
Q 3544 3216 3844 3400 
Q 4144 3584 4550 3584 
Q 5097 3584 5394 3201 
Q 5691 2819 5691 2113 
L 5691 0 
L 5113 0 
L 5113 2094 
Q 5113 2597 4934 2840 
Q 4756 3084 4391 3084 
Q 3944 3084 3684 2787 
Q 3425 2491 3425 1978 
L 3425 0 
L 2847 0 
L 2847 2094 
Q 2847 2600 2669 2842 
Q 2491 3084 2119 3084 
Q 1678 3084 1418 2786 
Q 1159 2488 1159 1978 
L 1159 0 
L 581 0 
L 581 3500 
L 1159 3500 
L 1159 2956 
Q 1356 3278 1631 3431 
Q 1906 3584 2284 3584 
Q 2666 3584 2933 3390 
Q 3200 3197 3328 2828 
z
" transform="scale(0.015625)"/>
       <path id="DejaVuSans-65" d="M 3597 1894 
L 3597 1613 
L 953 1613 
Q 991 1019 1311 708 
Q 1631 397 2203 397 
Q 2534 397 2845 478 
Q 3156 559 3463 722 
L 3463 178 
Q 3153 47 2828 -22 
Q 2503 -91 2169 -91 
Q 1331 -91 842 396 
Q 353 884 353 1716 
Q 353 2575 817 3079 
Q 1281 3584 2069 3584 
Q 2775 3584 3186 3129 
Q 3597 2675 3597 1894 
z
M 3022 2063 
Q 3016 2534 2758 2815 
Q 2500 3097 2075 3097 
Q 1594 3097 1305 2825 
Q 1016 2553 972 2059 
L 3022 2063 
z
" transform="scale(0.015625)"/>
       <path id="DejaVuSans-73" d="M 2834 3397 
L 2834 2853 
Q 2591 2978 2328 3040 
Q 2066 3103 1784 3103 
Q 1356 3103 1142 2972 
Q 928 2841 928 2578 
Q 928 2378 1081 2264 
Q 1234 2150 1697 2047 
L 1894 2003 
Q 2506 1872 2764 1633 
Q 3022 1394 3022 966 
Q 3022 478 2636 193 
Q 2250 -91 1575 -91 
Q 1294 -91 989 -36 
Q 684 19 347 128 
L 347 722 
Q 666 556 975 473 
Q 1284 391 1588 391 
Q 1994 391 2212 530 
Q 2431 669 2431 922 
Q 2431 1156 2273 1281 
Q 2116 1406 1581 1522 
L 1381 1569 
Q 847 1681 609 1914 
Q 372 2147 372 2553 
Q 372 3047 722 3315 
Q 1072 3584 1716 3584 
Q 2034 3584 2315 3537 
Q 2597 3491 2834 3397 
z
" transform="scale(0.015625)"/>
       <path id="DejaVuSans-74" d="M 1172 4494 
L 1172 3500 
L 2356 3500 
L 2356 3053 
L 1172 3053 
L 1172 1153 
Q 1172 725 1289 603 
Q 1406 481 1766 481 
L 2356 481 
L 2356 0 
L 1766 0 
Q 1100 0 847 248 
Q 594 497 594 1153 
L 594 3053 
L 172 3053 
L 172 3500 
L 594 3500 
L 594 4494 
L 1172 4494 
z
" transform="scale(0.015625)"/>
       <path id="DejaVuSans-70" d="M 1159 525 
L 1159 -1331 
L 581 -1331 
L 581 3500 
L 1159 3500 
L 1159 2969 
Q 1341 3281 1617 3432 
Q 1894 3584 2278 3584 
Q 2916 3584 3314 3078 
Q 3713 2572 3713 1747 
Q 3713 922 3314 415 
Q 2916 -91 2278 -91 
Q 1894 -91 1617 61 
Q 1341 213 1159 525 
z
M 3116 1747 
Q 3116 2381 2855 2742 
Q 2594 3103 2138 3103 
Q 1681 3103 1420 2742 
Q 1159 2381 1159 1747 
Q 1159 1113 1420 752 
Q 1681 391 2138 391 
Q 2594 391 2855 752 
Q 3116 1113 3116 1747 
z
" transform="scale(0.015625)"/>
      </defs>
      <use xlink:href="#DejaVuSans-54"/>
      <use xlink:href="#DejaVuSans-69" x="57.958984"/>
      <use xlink:href="#DejaVuSans-6d" x="85.742188"/>
      <use xlink:href="#DejaVuSans-65" x="183.154297"/>
      <use xlink:href="#DejaVuSans-73" x="244.677734"/>
      <use xlink:href="#DejaVuSans-74" x="296.777344"/>
      <use xlink:href="#DejaVuSans-65" x="335.986328"/>
      <use xlink:href="#DejaVuSans-70" x="397.509766"/>
      <use xlink:href="#DejaVuSans-73" x="460.986328"/>
     </g>
    </g>
    <g id="text_8">
     <!-- 1e6 -->
     <g transform="translate(629.121875 411.756563) scale(0.1 -0.1)">
      <defs>
       <path id="DejaVuSans-36" d="M 2113 2584 
Q 1688 2584 1439 2293 
Q 1191 2003 1191 1497 
Q 1191 994 1439 701 
Q 1688 409 2113 409 
Q 2538 409 2786 701 
Q 3034 994 3034 1497 
Q 3034 2003 2786 2293 
Q 2538 2584 2113 2584 
z
M 3366 4563 
L 3366 3988 
Q 3128 4100 2886 4159 
Q 2644 4219 2406 4219 
Q 1781 4219 1451 3797 
Q 1122 3375 1075 2522 
Q 1259 2794 1537 2939 
Q 1816 3084 2150 3084 
Q 2853 3084 3261 2657 
Q 3669 2231 3669 1497 
Q 3669 778 3244 343 
Q 2819 -91 2113 -91 
Q 1303 -91 875 529 
Q 447 1150 447 2328 
Q 447 3434 972 4092 
Q 1497 4750 2381 4750 
Q 2619 4750 2861 4703 
Q 3103 4656 3366 4563 
z
" transform="scale(0.015625)"/>
      </defs>
      <use xlink:href="#DejaVuSans-31"/>
      <use xlink:href="#DejaVuSans-65" x="63.623047"/>
      <use xlink:href="#DejaVuSans-36" x="125.146484"/>
     </g>
    </g>
   </g>
   <g id="matplotlib.axis_2">
    <g id="ytick_1">
     <g id="line2d_13">
      <path d="M 90 368.406801 
L 648 368.406801 
" clip-path="url(#pb662f6471e)" style="fill: none; stroke: #808080; stroke-opacity: 0.2; stroke-linecap: square"/>
     </g>
     <g id="line2d_14">
      <defs>
       <path id="m27ab3381cb" d="M 0 0 
L -3.5 0 
" style="stroke: #000000; stroke-width: 0.8"/>
      </defs>
      <g>
       <use xlink:href="#m27ab3381cb" x="90" y="368.406801" style="stroke: #000000; stroke-width: 0.8"/>
      </g>
     </g>
     <g id="text_9">
      <!-- −260 -->
      <g transform="translate(55.532812 372.206019) scale(0.1 -0.1)">
       <defs>
        <path id="DejaVuSans-2212" d="M 678 2272 
L 4684 2272 
L 4684 1741 
L 678 1741 
L 678 2272 
z
" transform="scale(0.015625)"/>
       </defs>
       <use xlink:href="#DejaVuSans-2212"/>
       <use xlink:href="#DejaVuSans-32" x="83.789062"/>
       <use xlink:href="#DejaVuSans-36" x="147.412109"/>
       <use xlink:href="#DejaVuSans-30" x="211.035156"/>
      </g>
     </g>
    </g>
    <g id="ytick_2">
     <g id="line2d_15">
      <path d="M 90 322.063753 
L 648 322.063753 
" clip-path="url(#pb662f6471e)" style="fill: none; stroke: #808080; stroke-opacity: 0.2; stroke-linecap: square"/>
     </g>
     <g id="line2d_16">
      <g>
       <use xlink:href="#m27ab3381cb" x="90" y="322.063753" style="stroke: #000000; stroke-width: 0.8"/>
      </g>
     </g>
     <g id="text_10">
      <!-- −240 -->
      <g transform="translate(55.532812 325.862971) scale(0.1 -0.1)">
       <use xlink:href="#DejaVuSans-2212"/>
       <use xlink:href="#DejaVuSans-32" x="83.789062"/>
       <use xlink:href="#DejaVuSans-34" x="147.412109"/>
       <use xlink:href="#DejaVuSans-30" x="211.035156"/>
      </g>
     </g>
    </g>
    <g id="ytick_3">
     <g id="line2d_17">
      <path d="M 90 275.720705 
L 648 275.720705 
" clip-path="url(#pb662f6471e)" style="fill: none; stroke: #808080; stroke-opacity: 0.2; stroke-linecap: square"/>
     </g>
     <g id="line2d_18">
      <g>
       <use xlink:href="#m27ab3381cb" x="90" y="275.720705" style="stroke: #000000; stroke-width: 0.8"/>
      </g>
     </g>
     <g id="text_11">
      <!-- −220 -->
      <g transform="translate(55.532812 279.519923) scale(0.1 -0.1)">
       <use xlink:href="#DejaVuSans-2212"/>
       <use xlink:href="#DejaVuSans-32" x="83.789062"/>
       <use xlink:href="#DejaVuSans-32" x="147.412109"/>
       <use xlink:href="#DejaVuSans-30" x="211.035156"/>
      </g>
     </g>
    </g>
    <g id="ytick_4">
     <g id="line2d_19">
      <path d="M 90 229.377657 
L 648 229.377657 
" clip-path="url(#pb662f6471e)" style="fill: none; stroke: #808080; stroke-opacity: 0.2; stroke-linecap: square"/>
     </g>
     <g id="line2d_20">
      <g>
       <use xlink:href="#m27ab3381cb" x="90" y="229.377657" style="stroke: #000000; stroke-width: 0.8"/>
      </g>
     </g>
     <g id="text_12">
      <!-- −200 -->
      <g transform="translate(55.532812 233.176875) scale(0.1 -0.1)">
       <use xlink:href="#DejaVuSans-2212"/>
       <use xlink:href="#DejaVuSans-32" x="83.789062"/>
       <use xlink:href="#DejaVuSans-30" x="147.412109"/>
       <use xlink:href="#DejaVuSans-30" x="211.035156"/>
      </g>
     </g>
    </g>
    <g id="ytick_5">
     <g id="line2d_21">
      <path d="M 90 183.034609 
L 648 183.034609 
" clip-path="url(#pb662f6471e)" style="fill: none; stroke: #808080; stroke-opacity: 0.2; stroke-linecap: square"/>
     </g>
     <g id="line2d_22">
      <g>
       <use xlink:href="#m27ab3381cb" x="90" y="183.034609" style="stroke: #000000; stroke-width: 0.8"/>
      </g>
     </g>
     <g id="text_13">
      <!-- −180 -->
      <g transform="translate(55.532812 186.833827) scale(0.1 -0.1)">
       <defs>
        <path id="DejaVuSans-38" d="M 2034 2216 
Q 1584 2216 1326 1975 
Q 1069 1734 1069 1313 
Q 1069 891 1326 650 
Q 1584 409 2034 409 
Q 2484 409 2743 651 
Q 3003 894 3003 1313 
Q 3003 1734 2745 1975 
Q 2488 2216 2034 2216 
z
M 1403 2484 
Q 997 2584 770 2862 
Q 544 3141 544 3541 
Q 544 4100 942 4425 
Q 1341 4750 2034 4750 
Q 2731 4750 3128 4425 
Q 3525 4100 3525 3541 
Q 3525 3141 3298 2862 
Q 3072 2584 2669 2484 
Q 3125 2378 3379 2068 
Q 3634 1759 3634 1313 
Q 3634 634 3220 271 
Q 2806 -91 2034 -91 
Q 1263 -91 848 271 
Q 434 634 434 1313 
Q 434 1759 690 2068 
Q 947 2378 1403 2484 
z
M 1172 3481 
Q 1172 3119 1398 2916 
Q 1625 2713 2034 2713 
Q 2441 2713 2670 2916 
Q 2900 3119 2900 3481 
Q 2900 3844 2670 4047 
Q 2441 4250 2034 4250 
Q 1625 4250 1398 4047 
Q 1172 3844 1172 3481 
z
" transform="scale(0.015625)"/>
       </defs>
       <use xlink:href="#DejaVuSans-2212"/>
       <use xlink:href="#DejaVuSans-31" x="83.789062"/>
       <use xlink:href="#DejaVuSans-38" x="147.412109"/>
       <use xlink:href="#DejaVuSans-30" x="211.035156"/>
      </g>
     </g>
    </g>
    <g id="ytick_6">
     <g id="line2d_23">
      <path d="M 90 136.691561 
L 648 136.691561 
" clip-path="url(#pb662f6471e)" style="fill: none; stroke: #808080; stroke-opacity: 0.2; stroke-linecap: square"/>
     </g>
     <g id="line2d_24">
      <g>
       <use xlink:href="#m27ab3381cb" x="90" y="136.691561" style="stroke: #000000; stroke-width: 0.8"/>
      </g>
     </g>
     <g id="text_14">
      <!-- −160 -->
      <g transform="translate(55.532812 140.490779) scale(0.1 -0.1)">
       <use xlink:href="#DejaVuSans-2212"/>
       <use xlink:href="#DejaVuSans-31" x="83.789062"/>
       <use xlink:href="#DejaVuSans-36" x="147.412109"/>
       <use xlink:href="#DejaVuSans-30" x="211.035156"/>
      </g>
     </g>
    </g>
    <g id="ytick_7">
     <g id="line2d_25">
      <path d="M 90 90.348512 
L 648 90.348512 
" clip-path="url(#pb662f6471e)" style="fill: none; stroke: #808080; stroke-opacity: 0.2; stroke-linecap: square"/>
     </g>
     <g id="line2d_26">
      <g>
       <use xlink:href="#m27ab3381cb" x="90" y="90.348512" style="stroke: #000000; stroke-width: 0.8"/>
      </g>
     </g>
     <g id="text_15">
      <!-- −140 -->
      <g transform="translate(55.532812 94.147731) scale(0.1 -0.1)">
       <use xlink:href="#DejaVuSans-2212"/>
       <use xlink:href="#DejaVuSans-31" x="83.789062"/>
       <use xlink:href="#DejaVuSans-34" x="147.412109"/>
       <use xlink:href="#DejaVuSans-30" x="211.035156"/>
      </g>
     </g>
    </g>
    <g id="text_16">
     <!-- Rewards -->
     <g transform="translate(49.037187 243.630937) rotate(-90) scale(0.12 -0.12)">
      <defs>
       <path id="DejaVuSans-52" d="M 2841 2188 
Q 3044 2119 3236 1894 
Q 3428 1669 3622 1275 
L 4263 0 
L 3584 0 
L 2988 1197 
Q 2756 1666 2539 1819 
Q 2322 1972 1947 1972 
L 1259 1972 
L 1259 0 
L 628 0 
L 628 4666 
L 2053 4666 
Q 2853 4666 3247 4331 
Q 3641 3997 3641 3322 
Q 3641 2881 3436 2590 
Q 3231 2300 2841 2188 
z
M 1259 4147 
L 1259 2491 
L 2053 2491 
Q 2509 2491 2742 2702 
Q 2975 2913 2975 3322 
Q 2975 3731 2742 3939 
Q 2509 4147 2053 4147 
L 1259 4147 
z
" transform="scale(0.015625)"/>
       <path id="DejaVuSans-77" d="M 269 3500 
L 844 3500 
L 1563 769 
L 2278 3500 
L 2956 3500 
L 3675 769 
L 4391 3500 
L 4966 3500 
L 4050 0 
L 3372 0 
L 2619 2869 
L 1863 0 
L 1184 0 
L 269 3500 
z
" transform="scale(0.015625)"/>
       <path id="DejaVuSans-61" d="M 2194 1759 
Q 1497 1759 1228 1600 
Q 959 1441 959 1056 
Q 959 750 1161 570 
Q 1363 391 1709 391 
Q 2188 391 2477 730 
Q 2766 1069 2766 1631 
L 2766 1759 
L 2194 1759 
z
M 3341 1997 
L 3341 0 
L 2766 0 
L 2766 531 
Q 2569 213 2275 61 
Q 1981 -91 1556 -91 
Q 1019 -91 701 211 
Q 384 513 384 1019 
Q 384 1609 779 1909 
Q 1175 2209 1959 2209 
L 2766 2209 
L 2766 2266 
Q 2766 2663 2505 2880 
Q 2244 3097 1772 3097 
Q 1472 3097 1187 3025 
Q 903 2953 641 2809 
L 641 3341 
Q 956 3463 1253 3523 
Q 1550 3584 1831 3584 
Q 2591 3584 2966 3190 
Q 3341 2797 3341 1997 
z
" transform="scale(0.015625)"/>
       <path id="DejaVuSans-72" d="M 2631 2963 
Q 2534 3019 2420 3045 
Q 2306 3072 2169 3072 
Q 1681 3072 1420 2755 
Q 1159 2438 1159 1844 
L 1159 0 
L 581 0 
L 581 3500 
L 1159 3500 
L 1159 2956 
Q 1341 3275 1631 3429 
Q 1922 3584 2338 3584 
Q 2397 3584 2469 3576 
Q 2541 3569 2628 3553 
L 2631 2963 
z
" transform="scale(0.015625)"/>
       <path id="DejaVuSans-64" d="M 2906 2969 
L 2906 4863 
L 3481 4863 
L 3481 0 
L 2906 0 
L 2906 525 
Q 2725 213 2448 61 
Q 2172 -91 1784 -91 
Q 1150 -91 751 415 
Q 353 922 353 1747 
Q 353 2572 751 3078 
Q 1150 3584 1784 3584 
Q 2172 3584 2448 3432 
Q 2725 3281 2906 2969 
z
M 947 1747 
Q 947 1113 1208 752 
Q 1469 391 1925 391 
Q 2381 391 2643 752 
Q 2906 1113 2906 1747 
Q 2906 2381 2643 2742 
Q 2381 3103 1925 3103 
Q 1469 3103 1208 2742 
Q 947 2381 947 1747 
z
" transform="scale(0.015625)"/>
      </defs>
      <use xlink:href="#DejaVuSans-52"/>
      <use xlink:href="#DejaVuSans-65" x="64.982422"/>
      <use xlink:href="#DejaVuSans-77" x="126.505859"/>
      <use xlink:href="#DejaVuSans-61" x="208.292969"/>
      <use xlink:href="#DejaVuSans-72" x="269.572266"/>
      <use xlink:href="#DejaVuSans-64" x="308.935547"/>
      <use xlink:href="#DejaVuSans-73" x="372.412109"/>
     </g>
    </g>
   </g>
   <g id="line2d_27">
    <path d="M 115.363636 364.844179 
L 115.566627 368.231045 
L 115.769617 367.736552 
L 116.378588 362.781044 
L 116.987559 360.764952 
L 117.393539 360.369649 
L 118.00251 359.048012 
L 118.814471 359.245511 
L 119.017462 359.327702 
L 119.423442 359.03287 
L 120.032413 359.17858 
L 120.438394 358.246754 
L 121.047364 356.621759 
L 121.656335 355.027425 
L 122.265306 352.718585 
L 122.671287 351.791936 
L 123.889228 347.422369 
L 124.295209 345.830676 
L 124.90418 342.924053 
L 125.919131 339.25971 
L 126.325112 338.640661 
L 126.934083 338.827937 
L 127.137073 339.070203 
L 127.746044 340.324903 
L 128.152024 340.481694 
L 128.760995 340.230332 
L 129.166976 339.562555 
L 129.978937 337.254771 
L 130.587908 335.983566 
L 131.196879 334.409873 
L 131.399869 334.174915 
L 132.21183 333.849974 
L 132.820801 333.181131 
L 133.429772 332.916546 
L 134.241733 331.56653 
L 135.053694 331.323887 
L 135.459675 330.67288 
L 136.068646 329.340371 
L 136.880607 326.767394 
L 137.692568 325.19108 
L 137.895558 325.045138 
L 138.098549 325.071854 
L 138.707519 325.681003 
L 139.1135 325.500171 
L 139.519481 326.049277 
L 140.128451 326.947199 
L 140.940413 327.467761 
L 141.143403 327.662904 
L 141.346393 327.659017 
L 141.752374 327.108044 
L 142.361345 325.54349 
L 142.970315 323.150438 
L 143.782277 319.55065 
L 144.594238 318.076331 
L 145.000218 318.29065 
L 145.406199 318.954695 
L 145.812179 319.751441 
L 146.01517 319.753829 
L 147.030121 320.666591 
L 147.436102 321.219182 
L 147.842082 321.114371 
L 148.654043 322.328713 
L 148.857034 322.434584 
L 149.466005 321.626749 
L 149.668995 321.678831 
L 149.871985 321.883425 
L 150.074975 321.761742 
L 151.089927 320.149291 
L 151.495907 319.696943 
L 151.901888 318.788311 
L 152.307869 318.117495 
L 152.510859 317.963184 
L 152.713849 318.059461 
L 153.11983 318.662822 
L 153.52581 319.706551 
L 154.540762 323.068864 
L 154.946742 323.507683 
L 155.352723 323.936911 
L 155.555713 323.868747 
L 155.961694 323.157211 
L 156.164684 323.108921 
L 156.773655 323.908753 
L 156.976645 324.347401 
L 157.788606 325.021407 
L 157.991597 325.297211 
L 158.194587 325.072373 
L 158.803558 322.600027 
L 159.412529 320.071694 
L 160.0215 318.552933 
L 160.22449 318.484065 
L 160.63047 319.091743 
L 161.442432 320.846438 
L 161.645422 320.970169 
L 162.051402 321.443584 
L 163.066354 321.898814 
L 163.675325 322.848862 
L 163.878315 322.858491 
L 164.081305 322.997257 
L 164.893266 324.140263 
L 165.299247 324.081485 
L 165.502237 324.31244 
L 166.111208 325.671792 
L 166.517189 326.009426 
L 167.53214 325.374246 
L 168.344101 324.000491 
L 168.547092 323.899605 
L 168.750082 323.948833 
L 169.562043 324.850686 
L 170.374004 324.790791 
L 170.779985 324.969553 
L 171.185965 324.666077 
L 171.591946 324.277106 
L 171.997926 324.745416 
L 172.403907 325.262828 
L 172.606897 325.245245 
L 172.809888 325.113496 
L 173.215868 325.355467 
L 174.43381 326.997748 
L 175.651752 329.50646 
L 175.854742 329.490825 
L 176.260722 328.612795 
L 176.869693 326.698583 
L 177.275674 325.406233 
L 178.087635 324.019262 
L 178.493616 324.090148 
L 178.696606 324.216824 
L 179.305577 324.895601 
L 179.711557 325.074283 
L 180.117538 325.849062 
L 180.523518 326.599282 
L 180.929499 326.918332 
L 181.33548 327.093119 
L 182.147441 327.565983 
L 182.350431 327.581336 
L 182.553421 327.772727 
L 183.162392 328.707631 
L 183.568373 329.315127 
L 183.771363 329.30619 
L 184.177344 329.138367 
L 184.583324 329.073995 
L 184.989305 328.662779 
L 185.395285 328.402996 
L 185.598276 328.20733 
L 186.004256 328.300773 
L 186.207247 328.12768 
L 186.613227 326.945385 
L 187.222198 324.368192 
L 187.831169 321.934509 
L 188.237149 320.948013 
L 188.44014 320.917062 
L 189.049111 321.686862 
L 191.079013 326.48742 
L 191.687984 328.728884 
L 192.093965 329.329521 
L 192.296955 329.442401 
L 192.702936 329.952375 
L 192.905926 329.793999 
L 193.108916 329.385296 
L 193.920877 326.63484 
L 194.529848 326.143776 
L 194.732839 326.074997 
L 195.138819 326.351963 
L 195.5448 326.95276 
L 195.95078 327.457698 
L 196.559751 327.619546 
L 197.168722 327.092308 
L 197.574703 327.102448 
L 198.183673 327.334087 
L 198.386664 327.250328 
L 198.589654 327.42372 
L 198.995635 327.917747 
L 199.401615 327.956461 
L 199.604605 327.701407 
L 200.416567 325.403818 
L 201.025537 323.404805 
L 201.431518 322.500632 
L 201.634508 322.487595 
L 201.837499 322.983544 
L 202.243479 325.057211 
L 203.664411 333.337125 
L 204.070392 334.562976 
L 204.679363 334.664525 
L 204.882353 334.640789 
L 205.085343 334.731658 
L 205.491324 335.096925 
L 206.303285 334.59058 
L 206.709266 334.521628 
L 207.115246 334.595379 
L 207.927207 334.182223 
L 208.536178 332.812531 
L 209.348139 330.152334 
L 210.363091 326.329642 
L 210.972062 325.558286 
L 211.175052 325.362671 
L 211.581032 325.419921 
L 211.784023 325.750281 
L 212.392994 327.680127 
L 212.798974 328.259096 
L 213.001964 328.367397 
L 213.204955 328.299447 
L 213.813926 327.560202 
L 214.219906 326.42848 
L 214.625887 325.068679 
L 214.828877 324.761076 
L 215.031867 324.750127 
L 215.234858 325.030171 
L 215.843828 326.433086 
L 216.046819 326.659771 
L 216.249809 327.176028 
L 216.85878 329.520815 
L 217.06177 329.582696 
L 217.467751 328.878717 
L 217.670741 328.469108 
L 217.873731 328.397969 
L 218.076722 328.47388 
L 218.279712 328.338767 
L 218.685692 327.379233 
L 218.888683 326.896394 
L 219.091673 326.835203 
L 219.497654 327.049965 
L 219.700644 327.057655 
L 220.106624 326.957024 
L 220.512605 327.042498 
L 220.918586 327.175566 
L 221.324566 327.512261 
L 221.933537 328.434168 
L 222.136527 328.315753 
L 222.542508 327.820517 
L 222.948488 328.137451 
L 223.96344 328.245781 
L 224.16643 328.547467 
L 224.572411 329.695337 
L 224.775401 329.865583 
L 224.978391 329.857819 
L 225.181382 329.727829 
L 225.790353 328.46926 
L 226.399323 326.232456 
L 226.805304 324.672683 
L 227.414275 323.414655 
L 227.820255 323.132042 
L 228.226236 323.171498 
L 228.632217 323.630983 
L 229.241187 323.52646 
L 229.647168 323.971818 
L 230.459129 325.257501 
L 230.662119 325.329451 
L 231.0681 326.160534 
L 231.27109 326.546342 
L 231.474081 326.667542 
L 231.677071 326.539474 
L 232.083051 325.719741 
L 233.098003 322.925772 
L 233.706974 320.600617 
L 234.721925 317.936158 
L 234.924915 317.707317 
L 235.330896 318.168427 
L 235.939867 319.466286 
L 236.751828 322.345584 
L 237.157809 323.717263 
L 237.563789 324.310672 
L 238.37575 324.823484 
L 238.781731 325.526869 
L 238.984721 325.709685 
L 239.390702 326.506277 
L 239.796682 327.936617 
L 240.405653 330.195045 
L 240.608643 330.324344 
L 241.217614 329.577447 
L 241.623595 328.648211 
L 242.232566 325.595356 
L 242.638546 324.007112 
L 243.450507 322.902841 
L 243.653498 322.692433 
L 244.059478 322.856153 
L 244.465459 323.324176 
L 244.871439 323.525433 
L 245.27742 323.775169 
L 245.683401 324.404188 
L 245.886391 324.51541 
L 246.495362 325.375363 
L 247.510313 327.072038 
L 248.119284 327.649337 
L 248.322274 327.666054 
L 248.525265 327.537777 
L 248.728255 327.190941 
L 249.540216 324.446462 
L 250.961148 319.967233 
L 251.773109 318.85887 
L 252.991051 317.68892 
L 253.600022 317.621838 
L 254.006002 317.36102 
L 254.208993 317.449777 
L 254.817964 318.700802 
L 255.832915 321.593871 
L 256.238896 323.124988 
L 256.847866 324.772271 
L 257.456837 326.471038 
L 257.862818 327.194317 
L 258.674779 327.96871 
L 258.877769 327.867844 
L 260.095711 325.685542 
L 260.704682 323.868405 
L 261.110662 323.289814 
L 261.719633 322.914313 
L 261.922624 322.904721 
L 262.125614 323.209378 
L 262.531594 324.261301 
L 263.546546 325.334253 
L 263.952526 325.442572 
L 264.155517 325.272399 
L 264.358507 324.870492 
L 264.561497 324.724567 
L 264.967478 325.104692 
L 265.982429 326.801634 
L 266.5914 328.466217 
L 266.79439 328.560712 
L 266.997381 328.465344 
L 267.606352 327.479399 
L 268.012332 326.337123 
L 269.230274 321.945503 
L 270.042235 320.547638 
L 270.245225 320.35212 
L 270.651206 320.471761 
L 271.463167 319.879197 
L 272.072138 320.033149 
L 272.275128 320.318176 
L 272.884099 320.600954 
L 273.29008 321.229323 
L 273.69606 321.531857 
L 274.102041 321.168953 
L 274.508021 320.556613 
L 274.711012 320.459593 
L 275.725963 319.190889 
L 275.928953 319.25748 
L 276.537924 320.270432 
L 277.755866 322.585553 
L 277.958856 322.728774 
L 278.161847 322.548276 
L 278.567827 321.697071 
L 279.176798 320.053296 
L 279.582779 319.359375 
L 280.39474 317.5327 
L 281.003711 317.401015 
L 281.409691 317.021957 
L 281.612681 317.093512 
L 281.815672 317.290689 
L 282.221652 318.56657 
L 283.439594 323.343339 
L 284.048565 325.729983 
L 284.657536 326.859973 
L 285.063516 326.8495 
L 285.469497 326.611374 
L 285.672487 326.395681 
L 286.890429 323.227437 
L 287.90538 321.511259 
L 288.311361 321.621418 
L 288.920332 321.495829 
L 289.326312 321.436003 
L 289.935283 321.383629 
L 290.544254 320.925069 
L 290.747244 320.99181 
L 291.762196 323.255726 
L 292.371167 324.706934 
L 292.574157 325.096157 
L 292.777147 325.243392 
L 292.980138 324.91144 
L 294.40107 319.011602 
L 294.80705 317.350915 
L 295.01004 316.903414 
L 296.024992 316.23203 
L 296.633963 316.21919 
L 297.242934 315.401097 
L 297.648914 315.148455 
L 298.257885 314.991317 
L 298.460875 315.097865 
L 298.663866 315.480245 
L 299.069846 316.592775 
L 299.678817 317.287564 
L 300.084798 317.399714 
L 300.287788 317.220619 
L 300.490778 316.851555 
L 300.896759 315.435178 
L 302.1147 310.342626 
L 302.723671 308.822843 
L 302.926662 308.65853 
L 303.332642 309.121896 
L 303.738623 309.831094 
L 304.144603 311.282296 
L 304.753574 313.782857 
L 305.159555 314.593194 
L 305.362545 314.713656 
L 305.768526 315.165507 
L 305.971516 315.105816 
L 306.174506 314.853803 
L 306.986467 313.357545 
L 307.392448 313.125816 
L 308.001419 312.30258 
L 308.204409 312.055196 
L 308.407399 312.014472 
L 308.81338 312.321552 
L 309.21936 312.456136 
L 309.625341 313.236483 
L 310.234312 314.427043 
L 310.437302 314.526152 
L 310.843283 314.177538 
L 311.046273 313.866859 
L 311.452254 312.623106 
L 312.264215 309.87844 
L 312.670195 308.833189 
L 313.076176 308.422453 
L 313.482156 308.578877 
L 314.091127 309.142699 
L 314.497108 309.836918 
L 315.106079 311.563242 
L 315.91804 313.840115 
L 316.527011 315.543574 
L 317.135982 315.927514 
L 317.744953 315.969885 
L 318.556914 315.232097 
L 318.962894 315.123432 
L 319.368875 315.190607 
L 319.774855 314.615298 
L 320.383826 313.582332 
L 320.992797 311.90459 
L 321.601768 309.275685 
L 322.616719 307.427271 
L 322.81971 307.183576 
L 323.0227 307.242846 
L 323.631671 308.088069 
L 324.443632 308.145218 
L 325.052603 308.793246 
L 325.458583 308.621209 
L 326.270545 308.921163 
L 326.473535 308.771092 
L 327.285496 307.667555 
L 327.691477 307.377894 
L 328.300447 306.898201 
L 328.706428 307.091446 
L 330.12736 307.986652 
L 330.533341 308.292568 
L 330.939321 308.701138 
L 331.345302 309.385712 
L 331.548292 309.451416 
L 331.954273 309.313451 
L 332.969224 308.206872 
L 333.578195 306.76854 
L 333.984175 306.786601 
L 334.390156 306.7929 
L 334.593146 306.773534 
L 334.796137 306.89052 
L 335.202117 307.566537 
L 335.608098 308.223808 
L 336.217069 308.632146 
L 336.623049 309.055648 
L 336.82604 308.922847 
L 337.23202 307.919372 
L 337.638001 306.998407 
L 338.246972 306.064733 
L 338.652952 305.739539 
L 339.058933 306.279548 
L 340.073884 308.056035 
L 340.479865 307.789176 
L 340.885845 307.775679 
L 341.291826 307.839591 
L 341.900797 308.020208 
L 342.103787 308.291336 
L 343.524719 311.933279 
L 343.9307 312.533364 
L 344.13369 312.773101 
L 344.33668 312.69233 
L 344.945651 311.038389 
L 345.351632 309.281161 
L 346.569573 303.348219 
L 347.381534 301.184504 
L 347.990505 300.113599 
L 348.599476 299.703157 
L 349.005457 299.334814 
L 349.411437 299.187706 
L 349.614428 299.367592 
L 350.629379 301.549267 
L 351.23835 303.180102 
L 351.44134 303.572873 
L 351.64433 303.708801 
L 352.253301 303.328155 
L 352.456292 303.548197 
L 352.862272 303.682603 
L 353.471243 304.273335 
L 354.080214 304.752117 
L 354.283204 304.690043 
L 354.689185 303.642137 
L 354.892175 302.885494 
L 355.704136 297.478448 
L 356.516097 292.656555 
L 356.922078 291.702682 
L 357.125068 291.847786 
L 357.328058 292.280984 
L 357.734039 294.123827 
L 358.14002 295.789384 
L 358.34301 296.137941 
L 358.546 296.174751 
L 358.748991 295.99419 
L 359.357961 294.732478 
L 359.966932 293.016676 
L 360.169923 293.048534 
L 360.575903 294.075205 
L 361.590855 297.192149 
L 361.996835 298.121392 
L 363.011787 298.791533 
L 363.417767 299.455986 
L 363.620757 299.859144 
L 364.026738 300.127602 
L 364.229728 300.395028 
L 364.432719 300.464653 
L 364.635709 300.385957 
L 364.838699 300.109103 
L 366.665612 295.870101 
L 366.868602 296.039137 
L 367.274583 296.851996 
L 367.680563 297.605133 
L 368.086544 298.810505 
L 368.695515 301.0811 
L 368.898505 301.535525 
L 369.101495 301.612167 
L 369.304485 301.476325 
L 369.507476 300.790762 
L 369.913456 296.917824 
L 370.725417 286.779791 
L 371.334388 279.448355 
L 371.537379 278.546539 
L 371.740369 279.452603 
L 372.34934 285.480765 
L 373.161301 298.349774 
L 373.567281 304.044534 
L 373.770272 305.451488 
L 373.973262 305.919705 
L 374.176252 306.073377 
L 374.379243 305.714991 
L 374.582233 304.012416 
L 375.191204 294.696594 
L 375.800175 284.181809 
L 376.409145 278.631711 
L 376.612136 278.451434 
L 377.221107 283.977911 
L 378.236058 294.48085 
L 378.642039 299.627439 
L 379.048019 302.472437 
L 379.85998 310.647182 
L 380.265961 312.637893 
L 380.468951 312.962401 
L 381.077922 313.036161 
L 381.686893 311.421166 
L 381.889883 311.125721 
L 382.092874 311.294639 
L 382.498854 312.312762 
L 382.904835 313.004708 
L 383.107825 312.882901 
L 383.919786 310.525854 
L 384.731747 305.901099 
L 385.137728 304.195158 
L 386.35567 303.924464 
L 387.370621 304.749471 
L 387.573611 304.5471 
L 387.979592 303.308058 
L 388.385572 302.93754 
L 388.994543 303.278141 
L 389.197534 302.659196 
L 389.400524 302.474079 
L 389.603514 303.196748 
L 390.415475 307.434423 
L 391.024446 309.141174 
L 391.430427 310.985423 
L 391.836407 311.249591 
L 392.039398 311.256475 
L 392.242388 311.040694 
L 393.257339 308.970313 
L 393.46033 309.076456 
L 393.66332 308.88402 
L 394.0693 307.37573 
L 394.272291 307.079602 
L 395.287242 307.795672 
L 395.490232 307.591288 
L 395.693223 307.803954 
L 396.099203 309.325673 
L 396.911164 310.500555 
L 397.114155 310.452744 
L 397.520135 310.58708 
L 397.723126 310.547525 
L 397.926116 310.645129 
L 398.129106 311.062619 
L 398.738077 313.028418 
L 398.941067 313.258768 
L 399.347048 312.852145 
L 399.753028 312.309025 
L 400.159009 310.246884 
L 400.97097 304.569126 
L 401.376951 303.817597 
L 402.188912 300.620612 
L 402.391902 299.966801 
L 402.594893 299.908079 
L 403.406854 300.714213 
L 404.015825 303.29327 
L 404.624795 304.606419 
L 405.233766 303.596324 
L 405.842737 302.218779 
L 406.451708 304.400094 
L 407.87264 312.948264 
L 408.278621 313.680571 
L 409.090582 314.323497 
L 409.496562 314.947568 
L 409.902543 314.558803 
L 410.105533 314.605442 
L 410.308523 314.826565 
L 410.714504 315.448591 
L 410.917494 315.237068 
L 411.323475 314.081866 
L 411.729455 312.927345 
L 411.932446 312.613068 
L 412.135436 311.900853 
L 412.541417 309.099174 
L 412.947397 306.004568 
L 413.353378 304.320235 
L 413.556368 303.735266 
L 414.77431 295.658813 
L 415.383281 293.056206 
L 415.586271 292.545794 
L 415.789261 292.934967 
L 416.804213 299.560263 
L 417.210193 300.726889 
L 417.413183 300.391308 
L 417.819164 297.913743 
L 418.834115 289.016909 
L 419.037106 288.866676 
L 419.240096 289.077922 
L 419.443086 290.030487 
L 419.849067 294.151919 
L 421.269999 309.630373 
L 421.472989 310.694661 
L 421.675979 311.154215 
L 421.87897 311.167011 
L 422.08196 311.041119 
L 422.690931 310.08135 
L 423.502892 308.442751 
L 423.908873 308.241488 
L 424.111863 308.309094 
L 424.517844 309.105953 
L 424.923824 310.29183 
L 425.329805 312.840521 
L 425.735785 315.757682 
L 425.938776 316.340829 
L 426.141766 315.791208 
L 426.547746 313.755475 
L 426.953727 310.68154 
L 427.562698 303.267433 
L 427.968678 299.02896 
L 428.577649 300.332883 
L 428.98363 302.213385 
L 430.201572 310.540123 
L 430.404562 310.83562 
L 430.607552 310.899789 
L 431.013533 310.523534 
L 431.216523 309.597343 
L 432.231474 302.905932 
L 432.434465 302.800486 
L 433.246426 304.176229 
L 433.855397 306.316752 
L 434.058387 306.649302 
L 434.261377 306.218239 
L 435.276329 300.258044 
L 435.479319 300.327786 
L 435.8853 301.242699 
L 436.29128 304.477251 
L 437.306232 313.43784 
L 437.509222 314.016643 
L 437.712212 314.089083 
L 437.915202 313.775684 
L 439.133144 307.765299 
L 439.742115 306.16514 
L 439.945105 305.616203 
L 440.351086 303.54768 
L 440.757066 300.98321 
L 441.772018 291.106775 
L 441.975008 290.410333 
L 442.177998 290.819815 
L 442.98996 294.314851 
L 443.801921 301.084553 
L 444.004911 301.156741 
L 444.410892 299.905598 
L 444.816872 299.189997 
L 445.222853 297.33979 
L 445.628833 293.66792 
L 446.034814 290.630498 
L 446.237804 290.348487 
L 446.440794 288.987675 
L 447.658736 276.676166 
L 447.861727 276.676304 
L 448.064717 276.179261 
L 448.267707 274.560612 
L 448.470697 274.503418 
L 449.079668 280.197513 
L 449.282659 278.473541 
L 449.891629 262.115263 
L 451.109571 219.842031 
L 451.312561 219.432215 
L 452.530503 260.325041 
L 453.342464 292.15972 
L 453.545455 293.998901 
L 454.154425 301.626521 
L 454.560406 303.591594 
L 454.763396 303.870456 
L 454.966387 303.866404 
L 455.169377 303.60225 
L 455.372367 303.639663 
L 455.575357 304.067074 
L 455.981338 303.798059 
L 456.184328 304.087799 
L 456.590309 305.360736 
L 456.996289 303.156218 
L 457.40227 298.114697 
L 458.214231 284.76256 
L 458.620212 277.809073 
L 458.823202 277.536644 
L 459.026192 277.519128 
L 459.229183 278.73696 
L 459.838153 284.448487 
L 460.244134 288.464661 
L 460.650115 292.526819 
L 461.259085 294.035651 
L 461.462076 294.263597 
L 461.868056 295.654506 
L 463.288988 301.796257 
L 463.694969 302.921486 
L 463.897959 303.183254 
L 464.100949 303.155337 
L 464.30394 302.833338 
L 464.50693 302.256328 
L 464.912911 299.765962 
L 466.130852 289.892873 
L 466.536833 288.28866 
L 466.739823 288.584426 
L 467.145804 292.049586 
L 467.957765 299.95896 
L 468.363745 302.282747 
L 468.566736 303.07227 
L 468.769726 303.103124 
L 469.175707 301.83704 
L 469.784678 299.519598 
L 469.987668 298.831608 
L 470.190658 298.556257 
L 470.393648 298.972194 
L 471.002619 301.477004 
L 471.61159 302.29228 
L 471.81458 301.582666 
L 472.423551 297.896795 
L 472.829532 293.800468 
L 473.032522 292.87199 
L 473.641493 291.855723 
L 473.844483 292.870765 
L 474.859435 301.767459 
L 475.265415 303.156059 
L 475.671396 303.832871 
L 475.874386 303.66255 
L 476.077376 303.078393 
L 476.889338 298.837973 
L 477.498308 295.265923 
L 477.904289 293.10471 
L 478.31027 290.960294 
L 478.51326 290.694378 
L 478.71625 290.045965 
L 478.91924 290.134512 
L 479.528211 293.558965 
L 479.934192 295.348909 
L 480.949143 302.708067 
L 481.152134 302.91521 
L 481.558114 302.498922 
L 481.761104 302.400349 
L 481.964095 302.15127 
L 482.370075 300.609516 
L 483.385027 293.148143 
L 484.805959 275.717437 
L 485.61792 262.943483 
L 485.82091 261.433058 
L 486.0239 260.929613 
L 486.429881 262.829737 
L 486.835862 266.018478 
L 487.038852 268.126253 
L 487.850813 284.142395 
L 489.271745 302.444487 
L 489.880716 305.360355 
L 490.083706 305.894153 
L 490.286696 305.65542 
L 490.489687 305.100884 
L 490.895667 302.779328 
L 491.504638 298.920249 
L 491.910619 297.990248 
L 492.113609 298.056085 
L 492.72258 299.534079 
L 492.92557 298.597106 
L 493.534541 293.354889 
L 494.143512 284.304984 
L 494.752483 273.445485 
L 494.955473 272.814872 
L 495.158463 272.874234 
L 495.361454 272.511282 
L 495.767434 271.214315 
L 496.173415 270.831873 
L 496.782386 273.510551 
L 497.391357 270.703658 
L 497.594347 271.125389 
L 497.797337 272.149381 
L 498.406308 277.544518 
L 498.609298 279.021793 
L 499.62425 292.019245 
L 499.82724 293.504736 
L 500.233221 294.292364 
L 500.436211 294.198403 
L 500.639201 293.049311 
L 501.248172 287.9359 
L 502.263123 282.034095 
L 502.466114 282.107015 
L 503.278075 287.104666 
L 503.887046 288.954089 
L 504.699007 295.257835 
L 505.104987 297.826383 
L 506.119939 306.564369 
L 506.525919 308.223905 
L 507.13489 312.163979 
L 507.743861 313.177876 
L 508.149842 314.585184 
L 508.352832 314.581997 
L 508.555822 314.131615 
L 508.758813 312.859035 
L 509.367783 307.648208 
L 509.773764 303.936408 
L 510.179745 299.114052 
L 510.585725 296.187544 
L 510.991706 295.109461 
L 511.600677 294.290213 
L 511.803667 294.847518 
L 512.209647 297.211183 
L 512.615628 298.205604 
L 512.818618 298.359475 
L 513.427589 299.418417 
L 513.83357 299.923649 
L 514.23955 299.195459 
L 514.442541 299.554932 
L 514.848521 301.043749 
L 515.660482 302.470824 
L 516.066463 302.014834 
L 516.269453 301.367411 
L 517.690385 292.903057 
L 518.096366 291.720352 
L 518.502346 291.85093 
L 519.111317 291.524342 
L 519.517298 292.420956 
L 519.720288 292.488269 
L 519.923278 293.367106 
L 520.532249 299.003983 
L 521.547201 313.123847 
L 521.750191 314.785805 
L 521.953181 315.059549 
L 522.359162 313.612103 
L 522.562152 312.400339 
L 522.968133 306.550014 
L 523.780094 294.486291 
L 524.389065 288.359948 
L 524.795045 284.295033 
L 524.998036 283.473391 
L 525.201026 282.104026 
L 525.607006 277.871499 
L 526.012987 276.487617 
L 526.215977 275.648736 
L 526.418968 275.723807 
L 526.621958 276.359863 
L 526.824948 275.884318 
L 527.230929 273.328625 
L 527.8399 274.532072 
L 528.04289 274.746617 
L 528.651861 277.110158 
L 528.854851 278.605675 
L 530.478773 302.418937 
L 531.087744 306.740624 
L 531.290734 307.434701 
L 531.493725 307.668439 
L 531.696715 307.532443 
L 532.305686 306.165288 
L 532.711666 308.027515 
L 532.914657 308.260381 
L 533.117647 308.139607 
L 533.320637 307.5209 
L 533.726618 305.681298 
L 533.929608 305.936534 
L 534.335589 306.660924 
L 534.741569 306.045934 
L 534.94456 306.036847 
L 535.14755 305.900395 
L 535.35054 306.803558 
L 535.756521 309.942445 
L 535.959511 310.006351 
L 536.162501 309.385399 
L 536.568482 305.512907 
L 537.380443 295.257674 
L 537.786424 288.856047 
L 537.989414 287.301837 
L 538.192404 286.801307 
L 539.613336 296.568674 
L 540.019317 297.536999 
L 540.222307 297.634948 
L 540.628288 296.58543 
L 540.831278 296.350626 
L 541.034268 296.364934 
L 541.440249 298.873428 
L 541.643239 300.302502 
L 541.846229 300.749941 
L 542.25221 299.630221 
L 542.658191 296.92938 
L 543.267161 290.521636 
L 543.876132 283.799425 
L 544.079123 283.807139 
L 544.282113 284.111159 
L 544.688093 285.507526 
L 545.094074 289.356899 
L 545.500055 293.641908 
L 545.906035 295.545247 
L 546.109025 296.078866 
L 546.312016 296.193264 
L 546.717996 295.406447 
L 547.123977 292.799716 
L 547.529957 287.544574 
L 547.732948 286.622904 
L 548.544909 281.529808 
L 548.747899 281.835218 
L 549.15388 283.481113 
L 549.762851 293.212047 
L 550.371821 302.253766 
L 550.777802 304.991263 
L 550.980792 305.668493 
L 551.183783 305.874691 
L 551.386773 304.880283 
L 551.792753 300.758956 
L 552.198734 299.069699 
L 552.401724 298.772715 
L 552.807705 299.396527 
L 553.010695 300.158008 
L 553.822656 306.331267 
L 554.025647 306.305173 
L 554.431627 305.957595 
L 554.837608 305.762136 
L 555.040598 304.814197 
L 555.446579 300.267486 
L 555.852559 294.98137 
L 556.25854 290.86148 
L 556.66452 284.130076 
L 557.070501 277.676871 
L 557.273491 275.769432 
L 557.476482 276.220136 
L 557.882462 280.784161 
L 558.288443 285.30921 
L 559.100404 296.754102 
L 559.303394 297.733683 
L 559.506384 297.204764 
L 559.912365 292.457427 
L 560.115355 291.03639 
L 560.521336 285.986716 
L 561.942268 258.718833 
L 562.551239 247.30141 
L 562.754229 246.447576 
L 563.3632 251.499198 
L 563.76918 258.430086 
L 563.972171 259.399648 
L 564.175161 258.725432 
L 564.378151 258.555888 
L 564.581142 257.789079 
L 565.799083 243.457785 
L 566.002074 245.866592 
L 567.828986 299.226317 
L 568.031976 301.442125 
L 568.437957 301.764551 
L 568.640947 301.172579 
L 569.249918 296.963806 
L 569.655899 294.498279 
L 570.061879 293.243333 
L 570.46786 290.930108 
L 571.076831 283.656893 
L 571.888792 272.841998 
L 572.294772 268.870655 
L 572.497763 267.46736 
L 572.700753 268.339136 
L 573.309724 274.444443 
L 573.918695 279.676083 
L 574.527666 281.664362 
L 574.730656 280.524582 
L 575.542617 268.50315 
L 575.948598 261.119735 
L 576.760559 254.101135 
L 577.166539 253.582561 
L 577.36953 255.270567 
L 578.181491 267.917972 
L 578.384481 269.3678 
L 578.790462 270.190875 
L 579.196442 272.212522 
L 579.399433 272.284387 
L 579.805413 271.298447 
L 580.008403 271.458902 
L 580.211394 272.783315 
L 580.414384 274.926731 
L 581.226345 287.802168 
L 582.038306 295.652582 
L 582.241297 296.781195 
L 582.444287 296.854351 
L 582.647277 295.862801 
L 583.053258 292.973873 
L 583.256248 292.700337 
L 583.459238 291.597777 
L 584.47419 283.293718 
L 585.083161 282.000923 
L 585.286151 280.648442 
L 585.489141 280.52378 
L 586.098112 283.90882 
L 586.301102 283.827719 
L 586.910073 281.392803 
L 587.113063 280.279298 
L 587.316054 279.80666 
L 587.519044 278.822548 
L 588.128015 273.559318 
L 588.331005 273.233084 
L 588.533995 274.12923 
L 590.157918 290.039485 
L 590.360908 290.683108 
L 590.563898 289.877876 
L 591.172869 279.800813 
L 591.57885 276.539107 
L 592.593801 264.272447 
L 592.796791 264.932737 
L 593.202772 268.876333 
L 593.405762 269.482366 
L 593.608753 269.535317 
L 593.811743 270.869185 
L 594.420714 278.260006 
L 594.826694 283.689337 
L 595.029685 283.693435 
L 595.232675 283.146199 
L 595.435665 282.922929 
L 595.841646 283.338705 
L 596.044636 283.971277 
L 596.247626 284.180086 
L 596.856597 280.897801 
L 597.059587 281.776396 
L 597.871549 288.807418 
L 598.074539 289.380501 
L 598.277529 290.785751 
L 599.08949 301.53075 
L 599.292481 302.500749 
L 599.495471 302.808667 
L 599.698461 300.702969 
L 600.510422 281.988169 
L 601.119393 262.877689 
L 601.728364 242.312071 
L 601.931354 242.098886 
L 602.337335 242.493971 
L 602.540325 242.652342 
L 602.743316 242.65012 
L 602.946306 243.377749 
L 603.352286 249.448577 
L 604.164248 271.741691 
L 605.58518 302.64824 
L 606.19415 308.148488 
L 606.803121 310.842471 
L 607.006112 311.273894 
L 607.209102 310.760915 
L 607.615082 307.084447 
L 608.630034 295.397939 
L 609.036014 290.799441 
L 609.441995 285.430354 
L 609.847976 273.158002 
L 611.471898 220.0465 
L 611.674888 220.88501 
L 612.68984 248.366163 
L 613.501801 276.741876 
L 613.704791 280.794579 
L 613.907781 281.636219 
L 614.110772 281.616883 
L 614.313762 281.205846 
L 614.516752 280.022809 
L 615.328713 271.784506 
L 615.531704 268.920205 
L 615.937684 259.247855 
L 616.140674 257.223287 
L 616.343665 257.593063 
L 616.546655 257.30035 
L 616.952636 252.500177 
L 617.561606 242.533967 
L 617.764597 242.531198 
L 618.170577 245.886767 
L 618.373568 245.488223 
L 618.576558 247.368735 
L 619.185529 263.430404 
L 619.99749 285.472306 
L 620.606461 297.450905 
L 621.012441 300.95003 
L 621.418422 302.373472 
L 621.621412 302.63294 
L 621.824402 302.08957 
L 622.230383 299.29443 
L 622.636364 294.98644 
L 622.636364 294.98644 
" clip-path="url(#pb662f6471e)" style="fill: none; stroke: #ff0000; stroke-width: 1.5; stroke-linecap: square"/>
   </g>
   <g id="line2d_28">
    <path d="M 115.363636 364.844179 
L 115.566627 369.36 
L 115.972607 365.066394 
L 116.378588 356.312038 
L 116.581578 354.771157 
L 116.784568 355.493079 
L 117.190549 358.149771 
L 117.393539 361.125355 
L 117.59653 361.062792 
L 118.00251 359.682593 
L 118.2055 361.789142 
L 118.408491 362.451745 
L 118.611481 361.229653 
L 118.814471 356.513501 
L 119.220452 354.722703 
L 119.423442 356.595142 
L 119.626432 356.657834 
L 119.829423 359.252401 
L 120.032413 360.00926 
L 120.235403 358.327831 
L 120.641384 348.879256 
L 120.844374 347.733811 
L 121.047364 348.882217 
L 121.453345 352.489071 
L 121.656335 352.51008 
L 121.859326 351.91434 
L 122.062316 349.743992 
L 122.265306 349.580555 
L 122.468296 349.146887 
L 122.671287 347.825081 
L 123.077267 339.459903 
L 123.280258 340.156671 
L 123.686238 344.067947 
L 123.889228 341.90576 
L 124.092219 341.51254 
L 124.295209 338.885043 
L 124.498199 338.242651 
L 124.70119 336.194469 
L 124.90418 336.739515 
L 125.10717 336.52456 
L 125.31016 335.067483 
L 125.513151 334.745965 
L 125.716141 336.860419 
L 126.122122 344.773108 
L 126.325112 344.426385 
L 126.528102 342.399237 
L 126.731092 342.121616 
L 126.934083 341.452628 
L 127.137073 342.684195 
L 127.340063 340.313774 
L 127.543054 339.823413 
L 127.746044 336.87463 
L 127.949034 336.621237 
L 128.152024 335.407976 
L 128.355015 337.0996 
L 128.558005 337.761559 
L 128.760995 341.462824 
L 129.166976 338.469063 
L 129.369966 332.820463 
L 129.775947 328.956406 
L 130.587908 336.423507 
L 130.993888 334.192964 
L 131.196879 332.032632 
L 131.399869 332.78859 
L 131.80585 336.826331 
L 132.00884 335.125464 
L 132.21183 332.114968 
L 132.41482 327.27647 
L 132.617811 327.218387 
L 132.820801 328.140227 
L 133.226782 333.137167 
L 133.632762 334.708814 
L 134.444723 328.616428 
L 134.647714 330.591852 
L 134.850704 329.250942 
L 135.053694 328.914285 
L 135.256684 326.498139 
L 135.459675 326.21264 
L 135.662665 325.632631 
L 136.271636 319.343416 
L 136.474626 320.949692 
L 136.880607 331.894658 
L 137.083597 333.25426 
L 137.692568 320.700804 
L 137.895558 321.720299 
L 138.707519 329.8827 
L 138.91051 329.920547 
L 139.1135 328.1367 
L 139.31649 327.434114 
L 139.519481 327.364934 
L 139.722471 329.050714 
L 139.925461 327.906247 
L 140.128451 327.520518 
L 140.331442 325.960482 
L 140.534432 327.132575 
L 140.737422 327.351005 
L 140.940413 328.045173 
L 141.549383 323.666501 
L 141.955364 318.758206 
L 142.158354 317.55738 
L 142.361345 317.673856 
L 142.564335 318.20039 
L 142.767325 316.41487 
L 142.970315 316.163176 
L 143.173306 314.659112 
L 143.579286 315.571014 
L 143.985267 323.22202 
L 144.188257 324.407346 
L 144.594238 318.764153 
L 145.000218 320.784273 
L 145.406199 317.833971 
L 145.812179 322.903566 
L 146.01517 322.877794 
L 146.21816 319.476034 
L 146.42115 318.003226 
L 146.624141 319.619929 
L 147.030121 327.08927 
L 147.233111 327.405484 
L 147.436102 324.834655 
L 147.639092 318.774066 
L 147.842082 316.77874 
L 148.045073 318.563694 
L 148.248063 323.758698 
L 148.451053 325.744601 
L 148.654043 324.392697 
L 149.060024 319.54439 
L 149.263014 318.07583 
L 149.466005 317.962341 
L 149.668995 319.370475 
L 150.074975 323.918916 
L 150.277966 322.931835 
L 150.683946 316.421203 
L 150.886937 313.504964 
L 151.089927 314.953802 
L 151.292917 313.954157 
L 151.495907 316.597461 
L 151.698898 317.184087 
L 151.901888 320.137066 
L 152.104878 320.508326 
L 152.307869 321.240983 
L 152.510859 320.600986 
L 153.11983 326.101622 
L 153.32282 325.087353 
L 153.931791 328.076094 
L 154.540762 317.733098 
L 154.743752 318.01162 
L 154.946742 320.391387 
L 155.352723 328.148981 
L 155.555713 328.809575 
L 155.961694 319.153564 
L 156.164684 321.235628 
L 156.570665 332.877851 
L 156.773655 330.326203 
L 157.179635 324.084026 
L 157.382626 324.57189 
L 157.585616 323.817013 
L 158.194587 313.217045 
L 158.397577 311.749078 
L 158.600567 313.522549 
L 158.803558 313.581816 
L 159.209538 318.571572 
L 159.615519 329.137092 
L 159.818509 328.136211 
L 160.22449 318.291712 
L 160.63047 317.790743 
L 160.833461 319.810296 
L 161.036451 320.228825 
L 161.239441 321.720531 
L 161.442432 321.03867 
L 162.051402 326.315933 
L 162.660373 318.687662 
L 163.269344 329.788444 
L 163.675325 322.208137 
L 163.878315 319.13567 
L 164.081305 323.059098 
L 164.487286 325.720322 
L 164.690276 325.518189 
L 164.893266 327.852025 
L 165.096257 328.238397 
L 165.502237 325.935277 
L 165.908218 329.970134 
L 166.111208 329.031481 
L 166.720179 318.497475 
L 166.923169 317.917801 
L 167.12616 321.013156 
L 167.32915 321.935975 
L 167.53214 325.50233 
L 167.73513 326.40329 
L 167.938121 330.68253 
L 168.344101 326.77388 
L 168.547092 321.670609 
L 168.750082 323.020119 
L 168.953072 322.061616 
L 169.156062 326.813477 
L 169.359053 326.603955 
L 169.562043 327.175391 
L 169.968024 320.943847 
L 170.171014 321.071136 
L 170.779985 328.68136 
L 171.185965 324.632908 
L 171.388956 322.159322 
L 171.591946 324.18508 
L 171.794936 324.410539 
L 171.997926 327.284271 
L 172.200917 327.295419 
L 172.403907 329.202359 
L 173.012878 322.342815 
L 173.215868 323.375441 
L 174.23082 336.621108 
L 174.43381 335.03682 
L 175.042781 326.607534 
L 175.448761 324.386544 
L 175.651752 322.984538 
L 175.854742 323.784058 
L 176.057732 323.305 
L 176.260722 323.286977 
L 176.463713 321.783686 
L 176.666703 322.743116 
L 176.869693 322.654137 
L 177.478664 328.977054 
L 177.681654 328.007352 
L 178.087635 320.365074 
L 178.290625 318.649017 
L 178.899596 329.404594 
L 179.102586 331.493842 
L 179.305577 330.794989 
L 179.508567 329.305652 
L 179.711557 326.09964 
L 179.914548 325.418088 
L 180.117538 325.593033 
L 180.320528 327.172739 
L 180.726509 326.794837 
L 180.929499 326.312895 
L 181.132489 328.522609 
L 181.33548 328.992296 
L 181.74146 327.452213 
L 181.944451 328.24316 
L 182.147441 330.216164 
L 182.350431 329.891145 
L 182.756412 333.05689 
L 182.959402 333.539785 
L 183.568373 325.980822 
L 183.771363 322.457025 
L 183.974353 320.968924 
L 184.177344 321.906264 
L 184.583324 334.669474 
L 184.786315 337.650181 
L 185.598276 324.253024 
L 185.801266 319.895902 
L 186.207247 317.402801 
L 186.410237 318.97625 
L 186.613227 319.010879 
L 186.816217 320.29108 
L 187.019208 320.12185 
L 187.222198 320.143683 
L 187.425188 318.864074 
L 187.831169 322.555916 
L 188.034159 325.858244 
L 188.237149 325.648516 
L 188.44014 327.703779 
L 188.64313 326.928357 
L 188.84612 326.700684 
L 189.252101 319.144398 
L 189.455091 320.369296 
L 190.064062 332.82036 
L 190.267052 333.111446 
L 190.673033 327.584137 
L 190.876023 327.897622 
L 191.282004 335.278885 
L 191.484994 335.766954 
L 191.687984 333.255367 
L 192.093965 324.465198 
L 192.296955 321.937288 
L 192.499945 322.479579 
L 192.905926 325.240672 
L 193.108916 325.824053 
L 193.311907 325.764297 
L 193.514897 324.784321 
L 193.717887 325.022035 
L 193.920877 326.118589 
L 194.123868 329.850775 
L 194.326858 330.530216 
L 194.529848 329.864189 
L 194.732839 327.951534 
L 194.935829 329.043608 
L 195.138819 328.550724 
L 195.341809 327.262439 
L 195.5448 323.56138 
L 195.74779 323.465166 
L 195.95078 324.663932 
L 196.153771 329.593082 
L 196.356761 331.00518 
L 196.559751 329.941607 
L 196.762741 324.663984 
L 196.965732 323.426753 
L 197.168722 325.384155 
L 197.371712 328.752368 
L 197.574703 329.273135 
L 197.777693 328.839415 
L 197.980683 330.111892 
L 198.183673 329.960248 
L 198.386664 330.067995 
L 198.589654 327.984463 
L 198.792644 327.470261 
L 198.995635 325.185498 
L 199.604605 321.974105 
L 200.010586 315.5869 
L 200.213576 316.257355 
L 200.619557 324.040747 
L 200.822547 326.36655 
L 201.025537 325.756393 
L 201.634508 329.725932 
L 201.837499 332.171764 
L 202.243479 342.702681 
L 202.446469 344.917389 
L 203.05544 326.776403 
L 203.258431 325.470816 
L 203.461421 327.486018 
L 204.070392 343.016423 
L 204.273382 341.819614 
L 204.679363 334.814193 
L 205.085343 328.204824 
L 205.288334 328.880558 
L 205.694314 334.830336 
L 205.897304 337.285539 
L 206.100295 338.054499 
L 206.303285 338.085085 
L 206.506275 336.861165 
L 206.709266 333.612157 
L 206.912256 332.147099 
L 207.115246 331.536941 
L 207.521227 333.732469 
L 207.724217 332.917758 
L 207.927207 330.656706 
L 208.333188 323.778806 
L 208.536178 322.186253 
L 208.942159 327.119316 
L 209.145149 330.670738 
L 209.348139 330.85472 
L 209.55113 327.612921 
L 209.95711 317.201569 
L 210.1601 315.981047 
L 210.363091 319.854193 
L 210.769071 332.227942 
L 211.175052 334.561855 
L 211.581032 331.254557 
L 211.784023 325.940786 
L 211.987013 325.078754 
L 212.190003 326.22819 
L 212.392994 329.512497 
L 212.595984 329.850827 
L 213.204955 322.923699 
L 213.407945 322.707844 
L 213.610935 321.08043 
L 213.813926 321.248475 
L 214.219906 325.262195 
L 214.422896 324.674308 
L 214.625887 323.697165 
L 214.828877 326.340984 
L 215.234858 337.828988 
L 215.437848 339.558768 
L 216.046819 320.246256 
L 216.249809 321.474733 
L 216.65579 334.792231 
L 216.85878 335.273015 
L 217.467751 320.338942 
L 218.076722 328.056501 
L 218.279712 328.738156 
L 218.482702 330.820091 
L 218.685692 331.547008 
L 218.888683 329.38907 
L 219.294663 322.079664 
L 219.497654 321.535493 
L 219.700644 322.240886 
L 220.106624 330.533666 
L 220.309615 335.949829 
L 220.512605 335.614305 
L 220.918586 324.926414 
L 221.121576 324.122002 
L 221.527556 329.3582 
L 221.730547 328.517537 
L 221.933537 328.92291 
L 222.136527 325.839321 
L 222.542508 324.349778 
L 223.354469 333.948685 
L 223.96344 330.104632 
L 224.16643 329.566332 
L 224.36942 329.540689 
L 224.572411 329.734943 
L 224.775401 328.31682 
L 225.384372 321.140213 
L 225.587362 319.997883 
L 225.790353 320.914033 
L 225.993343 320.480056 
L 226.196333 322.541447 
L 226.399323 322.997977 
L 226.805304 326.844527 
L 227.008294 327.531408 
L 227.211285 325.270872 
L 227.414275 320.678507 
L 227.617265 318.981142 
L 227.820255 320.243784 
L 228.632217 328.83491 
L 228.835207 327.2266 
L 229.241187 320.640326 
L 229.444178 322.307388 
L 229.850158 330.842259 
L 230.053149 332.009743 
L 230.256139 331.254403 
L 230.86511 322.307775 
L 231.0681 322.991618 
L 231.27109 325.66399 
L 231.677071 322.717164 
L 231.880061 318.920922 
L 232.083051 320.859606 
L 232.286042 321.044309 
L 232.489032 322.51395 
L 232.895013 317.231306 
L 233.098003 314.012163 
L 233.300993 313.685882 
L 233.706974 318.609187 
L 234.315945 317.124382 
L 234.518935 318.514107 
L 234.924915 319.41069 
L 235.127906 321.027625 
L 235.533886 329.301558 
L 235.736877 329.288119 
L 236.142857 322.485474 
L 236.548838 322.344077 
L 236.751828 324.327199 
L 236.954818 324.930328 
L 237.157809 327.354713 
L 237.563789 325.940812 
L 237.96977 321.980387 
L 238.17276 322.675687 
L 238.37575 325.640895 
L 238.781731 335.083678 
L 238.984721 335.83513 
L 239.187711 334.256892 
L 239.390702 330.954074 
L 239.593692 331.54621 
L 239.796682 331.237925 
L 239.999673 332.623196 
L 240.405653 329.608942 
L 241.014624 316.758684 
L 241.217614 319.248979 
L 241.623595 326.464205 
L 241.826585 326.127935 
L 242.232566 320.19188 
L 242.435556 321.045725 
L 242.841537 324.474441 
L 243.044527 323.073027 
L 243.247517 323.286643 
L 243.450507 322.97738 
L 243.856488 324.801957 
L 244.059478 324.982979 
L 244.262469 323.153329 
L 244.465459 322.550149 
L 244.668449 323.538466 
L 244.871439 326.228242 
L 245.07443 327.099929 
L 245.27742 326.841335 
L 245.48041 326.84687 
L 245.683401 326.082828 
L 245.886391 326.555012 
L 246.089381 325.528462 
L 246.292371 325.966738 
L 246.495362 326.862884 
L 246.698352 328.828859 
L 246.901342 332.910755 
L 247.104333 333.014332 
L 247.307323 331.71495 
L 247.510313 325.923974 
L 247.713304 323.440965 
L 247.916294 323.019552 
L 248.119284 323.601621 
L 248.322274 323.409658 
L 248.525265 321.266524 
L 248.728255 321.012924 
L 248.931245 320.011271 
L 249.134236 320.272002 
L 249.337226 319.074935 
L 249.540216 319.209742 
L 249.743206 319.914259 
L 249.946197 320.131814 
L 250.149187 319.570625 
L 250.352177 318.320805 
L 250.555168 318.068647 
L 250.758158 318.472321 
L 251.367129 314.988276 
L 251.773109 320.931051 
L 251.9761 322.086358 
L 252.38208 315.232375 
L 252.788061 313.579242 
L 252.991051 315.434766 
L 253.194041 315.928525 
L 253.397032 319.847062 
L 253.600022 320.83095 
L 253.803012 320.88875 
L 254.006002 318.758464 
L 254.208993 320.692153 
L 254.614973 327.149568 
L 255.020954 321.70601 
L 255.223944 321.119745 
L 255.426934 324.645163 
L 255.629925 326.186044 
L 255.832915 326.590181 
L 256.035905 326.487866 
L 256.238896 328.828756 
L 256.644876 330.289232 
L 256.847866 328.654944 
L 257.050857 328.675181 
L 257.253847 328.438883 
L 257.456837 328.459428 
L 257.862818 324.430157 
L 258.065808 325.240337 
L 258.471789 331.073356 
L 258.877769 326.171909 
L 259.08076 321.536729 
L 259.28375 319.843998 
L 259.48674 320.578638 
L 259.892721 323.612589 
L 260.095711 320.755514 
L 260.298701 319.474129 
L 260.501692 320.254984 
L 260.907672 328.197719 
L 261.110662 326.69623 
L 261.313653 323.410276 
L 261.516643 322.188699 
L 262.125614 327.536841 
L 262.328604 328.612334 
L 262.734585 326.779544 
L 262.937575 322.934822 
L 263.140565 323.205542 
L 263.343556 321.842233 
L 263.546546 323.70512 
L 263.749536 323.2748 
L 264.155517 324.757597 
L 264.358507 324.142238 
L 264.764488 329.250787 
L 264.967478 334.255373 
L 265.170468 334.307792 
L 265.373458 332.209662 
L 265.576449 327.214602 
L 265.779439 326.519894 
L 265.982429 326.39415 
L 266.18542 328.51159 
L 266.38841 328.416149 
L 267.606352 320.199423 
L 267.809342 320.310209 
L 268.012332 321.144847 
L 268.621303 316.808245 
L 269.027284 322.696438 
L 269.230274 323.894252 
L 269.433264 320.923894 
L 269.636255 320.037815 
L 270.042235 320.704949 
L 270.448216 317.280378 
L 270.854196 319.168857 
L 271.260177 317.756398 
L 271.463167 318.369439 
L 271.666157 323.702855 
L 271.869148 325.540537 
L 272.072138 328.469598 
L 272.681109 317.684901 
L 272.884099 316.848924 
L 273.087089 316.756392 
L 273.49307 320.87768 
L 273.69606 321.966716 
L 273.899051 321.639482 
L 274.305031 318.268334 
L 274.508021 318.924964 
L 275.116992 316.43145 
L 275.522973 322.240217 
L 275.725963 320.985273 
L 275.928953 320.951623 
L 276.537924 330.453544 
L 277.146895 318.976379 
L 277.349885 318.04751 
L 277.552876 316.341699 
L 277.755866 316.799569 
L 277.958856 317.954283 
L 278.161847 320.30663 
L 278.364837 320.867793 
L 278.567827 318.987965 
L 278.770817 315.456212 
L 278.973808 316.491284 
L 279.379788 322.227756 
L 279.582779 319.370269 
L 279.785769 313.86402 
L 279.988759 311.488295 
L 280.191749 310.821908 
L 280.80072 320.605543 
L 281.003711 321.02348 
L 281.206701 322.438668 
L 281.409691 322.796642 
L 281.612681 322.103119 
L 281.815672 322.015324 
L 282.018662 321.330245 
L 282.221652 324.597276 
L 282.830623 328.632597 
L 283.033613 328.9519 
L 283.236604 328.93532 
L 283.439594 326.905597 
L 284.048565 328.757208 
L 284.251555 327.169804 
L 284.454545 323.928983 
L 284.657536 324.341436 
L 284.860526 323.346348 
L 285.063516 323.30554 
L 285.266507 321.437864 
L 285.672487 325.182769 
L 285.875477 325.242371 
L 286.281458 317.850088 
L 286.484448 317.786418 
L 286.687439 321.027986 
L 286.890429 321.898179 
L 287.093419 321.814427 
L 287.296409 320.656984 
L 287.90538 323.544439 
L 288.108371 323.361178 
L 288.514351 322.124694 
L 288.717341 320.390588 
L 288.920332 316.826679 
L 289.123322 317.227727 
L 289.326312 318.085897 
L 289.529303 323.689544 
L 289.732293 322.767214 
L 289.935283 323.098953 
L 290.138273 320.724748 
L 290.544254 322.757869 
L 290.747244 323.665188 
L 291.356215 333.161934 
L 291.559206 329.940912 
L 291.965186 321.122371 
L 292.168176 321.056667 
L 292.371167 321.920012 
L 292.777147 319.417539 
L 293.183128 314.340735 
L 293.386118 313.420131 
L 293.792099 317.5244 
L 293.995089 317.127986 
L 294.40107 313.813609 
L 295.01004 319.757517 
L 295.416021 316.271953 
L 295.619011 315.468365 
L 295.822002 315.560922 
L 296.024992 315.417928 
L 296.227982 313.751947 
L 296.430972 313.41009 
L 296.633963 311.877139 
L 296.836953 311.823587 
L 297.039943 312.052187 
L 297.648914 320.6006 
L 297.851904 319.757285 
L 298.054895 317.972666 
L 298.257885 314.770721 
L 298.663866 319.399954 
L 298.866856 322.637171 
L 299.069846 320.7645 
L 299.272836 316.206918 
L 299.475827 314.338624 
L 299.678817 313.940357 
L 299.881807 315.701676 
L 300.490778 305.810808 
L 300.896759 312.424991 
L 301.099749 310.35428 
L 301.302739 306.153515 
L 301.50573 305.604144 
L 301.70872 307.960688 
L 301.91171 308.743705 
L 302.317691 304.503368 
L 302.520681 306.815216 
L 302.926662 316.768622 
L 303.129652 318.566526 
L 303.332642 317.896225 
L 303.941613 313.089911 
L 304.550584 319.004597 
L 304.956564 314.079515 
L 305.159555 310.780019 
L 305.362545 310.754092 
L 305.768526 312.977889 
L 305.971516 312.720325 
L 306.174506 311.698332 
L 306.377496 313.449352 
L 306.580487 312.597593 
L 306.783477 313.049875 
L 306.986467 312.823464 
L 307.189458 314.456361 
L 307.392448 312.99501 
L 307.798428 307.621354 
L 308.001419 307.071674 
L 308.407399 313.080796 
L 308.61039 318.087004 
L 308.81338 319.637282 
L 309.01637 319.794179 
L 309.21936 318.815285 
L 309.422351 318.551027 
L 309.625341 316.915066 
L 310.234312 306.438035 
L 310.640292 308.239261 
L 310.843283 309.560398 
L 311.249263 308.788426 
L 311.452254 309.494462 
L 311.655244 308.63485 
L 311.858234 309.566732 
L 312.061224 307.684663 
L 312.264215 307.511237 
L 312.467205 305.241973 
L 312.670195 305.228791 
L 312.873186 307.441362 
L 313.279166 314.728884 
L 313.482156 314.072306 
L 313.685147 313.92218 
L 313.888137 312.028475 
L 314.091127 312.187019 
L 314.294118 309.893244 
L 314.497108 309.937064 
L 315.106079 320.262527 
L 315.309069 317.842313 
L 315.512059 318.312824 
L 315.71505 318.171065 
L 315.91804 319.434686 
L 316.12103 318.570053 
L 316.527011 311.299009 
L 316.730001 310.13325 
L 317.338972 315.821112 
L 317.744953 319.759267 
L 317.947943 318.658285 
L 318.556914 311.785148 
L 318.759904 311.309848 
L 318.962894 311.666484 
L 319.368875 316.710925 
L 319.571865 315.931306 
L 319.977846 307.095103 
L 320.180836 307.136554 
L 320.383826 308.494174 
L 320.586817 309.032551 
L 320.992797 303.535364 
L 321.195787 301.9407 
L 321.601768 306.796937 
L 322.007749 313.308495 
L 322.210739 312.701273 
L 322.413729 310.968995 
L 322.81971 304.702849 
L 323.0227 304.039577 
L 323.428681 309.056134 
L 323.631671 309.791599 
L 323.834661 308.057004 
L 324.037651 308.479241 
L 324.240642 309.465859 
L 324.443632 311.202719 
L 324.646622 311.839395 
L 324.849613 311.837515 
L 325.458583 303.906315 
L 325.661574 306.746294 
L 325.864564 307.641976 
L 326.067554 309.733541 
L 326.270545 306.868408 
L 326.676525 305.687175 
L 326.879515 305.735423 
L 327.082506 307.040856 
L 327.285496 306.452942 
L 327.691477 308.80856 
L 327.894467 308.718706 
L 328.097457 307.488375 
L 328.300447 305.46236 
L 328.503438 306.429539 
L 328.706428 308.171137 
L 328.909418 308.616802 
L 329.315399 307.080865 
L 329.721379 311.821476 
L 329.92437 312.117093 
L 330.12736 308.367297 
L 330.33035 307.037509 
L 330.533341 306.597559 
L 331.142311 314.015227 
L 331.345302 313.479012 
L 331.548292 311.997785 
L 331.954273 301.48986 
L 332.157263 298.973355 
L 332.563243 304.756607 
L 332.766234 308.753901 
L 332.969224 308.801763 
L 333.172214 310.217157 
L 333.375205 308.551356 
L 333.578195 309.480843 
L 333.781185 308.668346 
L 333.984175 308.609285 
L 334.390156 302.687673 
L 334.593146 302.580466 
L 335.202117 317.462403 
L 335.405107 315.250372 
L 335.811088 306.845365 
L 336.014078 305.931017 
L 336.217069 307.00373 
L 336.82604 301.13724 
L 337.02903 301.912199 
L 337.23202 301.509607 
L 338.246972 313.725969 
L 338.449962 313.781169 
L 339.058933 305.05969 
L 339.261923 304.09784 
L 339.464913 303.841023 
L 340.073884 310.084023 
L 340.276874 306.926826 
L 340.479865 306.265665 
L 340.682855 307.875545 
L 340.885845 311.993177 
L 341.088836 311.184079 
L 341.291826 309.500178 
L 341.494816 305.850921 
L 341.697806 309.553962 
L 341.900797 311.082124 
L 342.103787 313.998415 
L 342.306777 312.879925 
L 342.712758 316.961486 
L 342.915748 316.757783 
L 343.321729 312.985098 
L 343.524719 312.361681 
L 343.9307 308.189082 
L 344.13369 306.248776 
L 344.33668 305.957741 
L 344.742661 301.58579 
L 344.945651 301.124934 
L 345.351632 304.664024 
L 345.554622 304.534469 
L 345.757612 301.620804 
L 345.960602 301.097463 
L 346.163593 297.082713 
L 346.366583 296.663514 
L 346.569573 295.933946 
L 347.178544 302.301944 
L 347.381534 304.304015 
L 347.787515 300.453989 
L 347.990505 297.118963 
L 348.396486 295.424507 
L 348.599476 294.822331 
L 348.802466 295.274356 
L 349.005457 298.308564 
L 349.614428 310.172719 
L 349.817418 311.036862 
L 350.020408 310.332422 
L 350.426389 299.128321 
L 350.629379 295.202987 
L 350.832369 299.715976 
L 351.03536 301.523587 
L 351.23835 304.696258 
L 351.44134 304.512714 
L 351.64433 306.836328 
L 352.253301 301.568102 
L 352.862272 309.09272 
L 353.065262 308.643398 
L 353.268253 307.596715 
L 353.674233 301.562026 
L 353.877224 297.558373 
L 354.080214 296.021148 
L 354.283204 296.009511 
L 354.486194 297.199034 
L 354.892175 294.761982 
L 355.501146 281.899366 
L 355.704136 282.810161 
L 355.907126 281.795094 
L 356.516097 302.85425 
L 356.719088 306.892918 
L 356.922078 306.761793 
L 357.125068 304.318536 
L 357.531049 296.730583 
L 357.937029 293.461338 
L 358.34301 283.695828 
L 358.546 281.089933 
L 358.951981 292.20418 
L 359.357961 300.044549 
L 359.560952 302.402097 
L 359.763942 301.51128 
L 360.169923 297.626162 
L 360.372913 297.531726 
L 360.575903 295.637041 
L 360.981884 296.465578 
L 361.184874 298.957727 
L 361.387864 298.388892 
L 361.590855 298.169638 
L 361.793845 298.760589 
L 362.199825 302.046259 
L 362.402816 300.63774 
L 362.605806 300.488669 
L 362.808796 299.381869 
L 363.011787 301.423949 
L 363.214777 302.234695 
L 363.417767 303.926345 
L 363.823748 297.721732 
L 364.026738 296.771777 
L 364.432719 301.366201 
L 364.635709 298.534254 
L 364.838699 291.161539 
L 365.041689 288.060108 
L 365.24468 290.352183 
L 365.44767 299.26166 
L 365.65066 301.032351 
L 366.056641 294.37288 
L 366.259631 294.107026 
L 366.462621 296.811838 
L 366.665612 297.091338 
L 367.477573 306.945492 
L 368.086544 300.375309 
L 368.289534 301.937018 
L 368.695515 300.432955 
L 368.898505 301.285847 
L 369.101495 300.574662 
L 369.304485 296.565653 
L 369.913456 244.544346 
L 370.116447 247.378172 
L 370.522427 283.214118 
L 370.725417 288.442361 
L 370.928408 288.601884 
L 371.537379 305.435378 
L 371.740369 303.829514 
L 371.943359 300.331772 
L 372.146349 300.648888 
L 372.55233 312.35267 
L 372.75532 314.518744 
L 372.958311 314.092028 
L 373.161301 314.679657 
L 373.364291 317.817545 
L 373.567281 313.351234 
L 373.770272 301.011651 
L 373.973262 280.84483 
L 374.176252 271.951419 
L 374.379243 273.224436 
L 374.582233 270.455671 
L 374.988213 247.545444 
L 375.597184 296.374359 
L 375.800175 296.44287 
L 376.003165 297.011448 
L 376.206155 298.939859 
L 376.815126 288.496762 
L 377.018116 297.367002 
L 377.221107 297.846086 
L 377.424097 296.29779 
L 377.627087 292.702986 
L 378.033068 315.240949 
L 378.236058 320.601475 
L 378.439048 320.665274 
L 378.642039 316.895756 
L 378.845029 315.425755 
L 379.048019 316.042915 
L 379.251009 318.420108 
L 379.454 318.778134 
L 379.85998 308.041119 
L 380.062971 305.01 
L 380.468951 303.773181 
L 380.671942 306.08866 
L 381.280912 321.780185 
L 381.483903 318.825815 
L 381.686893 317.532767 
L 381.889883 310.585841 
L 382.295864 315.891451 
L 382.498854 314.302451 
L 383.513806 292.767325 
L 384.122776 311.917998 
L 384.731747 302.163971 
L 385.137728 305.319469 
L 385.340718 300.619228 
L 385.543708 299.537092 
L 385.746699 301.90239 
L 385.949689 310.051248 
L 386.152679 312.171958 
L 386.55866 302.301867 
L 386.76165 298.770861 
L 387.167631 309.20299 
L 387.370621 307.26271 
L 387.776602 285.368915 
L 387.979592 289.940271 
L 388.588563 316.525655 
L 388.791553 317.909279 
L 389.400524 297.992298 
L 389.806504 309.79353 
L 390.009495 316.522334 
L 390.212485 317.917286 
L 390.618466 315.854196 
L 390.821456 313.532693 
L 391.024446 313.041044 
L 391.430427 302.844879 
L 391.633417 300.364547 
L 392.039398 316.150586 
L 392.242388 316.113872 
L 392.648368 299.471053 
L 392.851359 300.246939 
L 393.257339 313.053969 
L 393.46033 316.223216 
L 394.0693 296.368875 
L 394.475281 307.031561 
L 394.678271 310.562927 
L 394.881262 309.821284 
L 395.287242 319.627138 
L 395.490232 319.212934 
L 396.099203 304.581687 
L 396.302194 303.505602 
L 396.505184 304.655656 
L 397.317145 315.874381 
L 397.723126 315.398 
L 397.926116 316.182846 
L 398.332096 323.0885 
L 398.535087 322.550252 
L 398.738077 317.375304 
L 399.144058 290.6547 
L 399.347048 284.95139 
L 399.956019 309.214808 
L 400.361999 308.371545 
L 400.56499 307.416414 
L 400.76798 307.999075 
L 400.97097 298.163845 
L 401.17396 299.3588 
L 401.376951 291.675303 
L 401.579941 292.402863 
L 401.782931 285.305116 
L 401.985922 288.056735 
L 402.594893 313.532693 
L 403.000873 320.035009 
L 403.203863 318.439134 
L 403.406854 313.725531 
L 404.015825 282.729833 
L 404.218815 285.092582 
L 404.827786 305.689312 
L 405.233766 316.840119 
L 405.436757 317.402904 
L 405.842737 299.788555 
L 406.045727 302.170227 
L 406.451708 319.360846 
L 406.654698 320.591614 
L 407.060679 316.915323 
L 407.466659 313.387665 
L 407.66965 313.17943 
L 407.87264 311.29852 
L 408.07563 311.453383 
L 408.278621 309.677312 
L 408.684601 315.264223 
L 408.887591 322.073819 
L 409.090582 322.620152 
L 409.293572 321.403905 
L 409.496562 314.44426 
L 409.902543 307.640947 
L 410.105533 307.828816 
L 410.308523 311.932493 
L 410.714504 322.985748 
L 410.917494 320.3651 
L 411.323475 298.689993 
L 411.526465 292.592741 
L 411.932446 308.066376 
L 412.135436 311.263969 
L 412.338426 299.549862 
L 412.744407 292.291073 
L 412.947397 298.829846 
L 413.150387 300.922672 
L 413.353378 301.562953 
L 413.556368 300.766522 
L 413.962349 286.419718 
L 414.165339 275.012119 
L 414.368329 278.416763 
L 415.383281 307.587266 
L 415.586271 320.27316 
L 415.789261 320.764834 
L 415.992251 317.966873 
L 416.195242 304.874112 
L 416.398232 302.431782 
L 416.804213 284.053185 
L 417.007203 272.186584 
L 417.210193 268.401902 
L 417.616174 284.946112 
L 417.819164 291.466837 
L 418.022154 290.646951 
L 418.225145 291.718711 
L 418.428135 294.270565 
L 418.631125 292.340686 
L 418.834115 299.351411 
L 419.037106 301.288499 
L 419.646077 317.986929 
L 419.849067 323.728781 
L 420.052057 322.141532 
L 420.661028 304.469949 
L 420.864018 305.294958 
L 421.067009 305.589494 
L 421.269999 306.3773 
L 421.472989 308.647775 
L 421.87897 315.366152 
L 422.487941 305.228868 
L 422.690931 305.355282 
L 422.893921 306.239558 
L 423.096911 306.077924 
L 423.502892 303.489768 
L 424.111863 317.469457 
L 424.314853 319.516301 
L 424.720834 320.561569 
L 424.923824 320.247311 
L 425.126814 322.95305 
L 425.329805 328.312984 
L 425.532795 327.611814 
L 425.735785 326.339903 
L 426.344756 254.577745 
L 426.953727 307.444272 
L 427.156717 306.9889 
L 427.562698 318.677466 
L 427.765688 317.030383 
L 428.171669 297.290124 
L 428.374659 296.103639 
L 429.592601 329.567954 
L 430.201572 303.940943 
L 430.810542 285.479443 
L 431.216523 302.044148 
L 431.419513 306.395426 
L 431.622504 300.069342 
L 431.825494 300.596597 
L 432.028484 301.555898 
L 432.231474 315.508889 
L 432.637455 325.854151 
L 433.449416 290.424092 
L 433.652406 290.489024 
L 433.855397 285.98605 
L 434.058387 295.304144 
L 434.261377 294.713888 
L 434.464368 302.421226 
L 434.667358 301.427271 
L 434.870348 305.473044 
L 435.073338 299.400354 
L 435.479319 312.206277 
L 435.682309 324.901698 
L 435.8853 325.375607 
L 436.08829 327.02699 
L 436.29128 325.721687 
L 436.49427 322.471031 
L 437.103241 298.258642 
L 437.306232 297.853887 
L 437.712212 307.711723 
L 437.915202 307.14747 
L 438.118193 303.556785 
L 438.321183 304.824628 
L 438.727164 309.812839 
L 438.930154 310.758109 
L 439.133144 311.039359 
L 439.336134 309.744947 
L 439.742115 300.856324 
L 440.351086 266.298648 
L 440.554076 272.247911 
L 440.960057 295.962267 
L 441.163047 296.212931 
L 441.366037 295.218126 
L 441.569028 295.103659 
L 442.177998 308.736573 
L 442.380989 304.671181 
L 442.786969 293.38858 
L 442.98996 298.716228 
L 443.39594 313.99324 
L 443.59893 312.637242 
L 443.801921 302.095718 
L 444.207901 272.880622 
L 444.410892 272.361065 
L 445.019862 301.328895 
L 445.222853 305.639184 
L 445.425843 300.399021 
L 445.628833 287.880091 
L 445.831824 268.298196 
L 446.034814 261.867532 
L 446.237804 273.40623 
L 446.440794 273.449432 
L 446.643785 265.356597 
L 446.846775 242.871001 
L 447.455746 295.538485 
L 447.861727 292.282397 
L 448.064717 295.266786 
L 448.470697 281.32049 
L 448.673688 277.36511 
L 448.876678 288.80569 
L 449.079668 293.323185 
L 449.688639 66.96 
L 450.29761 260.337593 
L 450.703591 272.919473 
L 450.906581 287.507904 
L 451.109571 284.780616 
L 451.312561 292.2316 
L 451.515552 293.531857 
L 451.718542 291.9107 
L 452.124523 279.946727 
L 452.733493 317.173866 
L 453.139474 321.54157 
L 453.951435 296.667814 
L 454.154425 296.621574 
L 454.560406 288.990805 
L 454.763396 292.058097 
L 455.169377 317.917183 
L 455.372367 322.682072 
L 455.575357 319.439397 
L 455.981338 308.610958 
L 456.184328 309.828544 
L 456.387319 309.186899 
L 456.996289 236.354886 
L 457.19928 242.114528 
L 457.60526 265.683367 
L 458.011241 297.639808 
L 458.214231 303.413843 
L 458.417221 291.985467 
L 458.620212 289.370946 
L 458.823202 292.330105 
L 459.026192 299.594944 
L 459.432173 292.812613 
L 459.635163 286.781168 
L 459.838153 286.629781 
L 460.041144 292.248258 
L 460.447124 297.727319 
L 460.650115 295.030977 
L 461.056095 301.549719 
L 461.259085 303.887984 
L 461.462076 302.11186 
L 461.665066 299.309445 
L 461.868056 299.55375 
L 462.071047 301.351654 
L 462.274037 306.68888 
L 462.477027 308.793215 
L 462.680017 307.727943 
L 463.085998 300.036207 
L 463.288988 302.402534 
L 463.491979 306.084953 
L 463.694969 304.980263 
L 464.100949 292.315635 
L 464.30394 291.32325 
L 464.50693 295.85143 
L 464.912911 274.538288 
L 465.115901 258.744319 
L 465.521881 282.616653 
L 465.724872 300.948753 
L 465.927862 307.563863 
L 466.130852 310.124857 
L 466.333843 306.71285 
L 466.536833 306.477762 
L 466.739823 303.463764 
L 466.942813 305.001298 
L 467.145804 301.944562 
L 467.348794 304.22706 
L 467.551784 305.089453 
L 467.957765 308.216373 
L 468.566736 284.77539 
L 468.972716 287.638412 
L 469.378697 301.24522 
L 469.784678 310.79302 
L 469.987668 311.810817 
L 470.190658 310.501188 
L 470.393648 307.808322 
L 470.596639 310.351654 
L 470.799629 309.357776 
L 471.4086 278.666398 
L 471.61159 289.172186 
L 471.81458 287.262647 
L 472.017571 281.230945 
L 472.220561 271.016551 
L 472.626542 299.625092 
L 472.829532 308.659103 
L 473.032522 303.07801 
L 473.641493 310.033278 
L 474.047474 304.517966 
L 474.250464 303.877325 
L 474.656444 307.907934 
L 475.265415 292.24419 
L 475.874386 300.503499 
L 476.077376 302.653456 
L 476.483357 292.877596 
L 477.092328 281.992953 
L 477.295318 273.057241 
L 477.904289 300.603909 
L 478.31027 292.378688 
L 478.91924 300.275105 
L 479.325221 310.050141 
L 479.528211 308.905648 
L 479.934192 290.779749 
L 480.137182 292.202429 
L 480.746153 320.831543 
L 480.949143 318.937451 
L 481.355124 293.855615 
L 481.761104 271.646378 
L 481.964095 273.926868 
L 482.167085 279.719595 
L 482.370075 294.134342 
L 482.776056 307.17247 
L 482.979046 306.13369 
L 483.182036 309.30425 
L 483.791007 218.416728 
L 484.399978 262.472849 
L 484.805959 271.678098 
L 485.008949 281.178937 
L 485.41493 242.305153 
L 485.61792 228.059841 
L 486.0239 290.098146 
L 486.226891 313.752076 
L 487.241842 284.628894 
L 487.647823 292.867684 
L 488.053803 305.174286 
L 488.459784 321.804721 
L 488.662774 322.901661 
L 488.865764 320.434434 
L 489.271745 310.418054 
L 489.677726 289.123217 
L 489.880716 280.865375 
L 490.083706 286.269386 
L 490.286696 287.806251 
L 490.895667 303.490437 
L 491.301648 312.59144 
L 491.910619 298.336833 
L 492.113609 299.171857 
L 492.316599 297.15403 
L 492.51959 299.952326 
L 492.92557 265.500003 
L 493.128561 241.80161 
L 493.331551 250.009298 
L 493.737531 279.730769 
L 493.940522 276.95464 
L 494.143512 266.31268 
L 494.346502 269.569695 
L 494.549493 268.447704 
L 494.752483 270.789547 
L 495.158463 292.526985 
L 495.361454 290.15986 
L 495.767434 251.883488 
L 495.970425 247.14087 
L 496.173415 251.134379 
L 496.579395 285.913626 
L 496.782386 285.642597 
L 496.985376 271.788497 
L 497.188366 271.599417 
L 497.391357 280.061787 
L 497.797337 289.018199 
L 498.000327 293.50194 
L 498.203318 305.340066 
L 498.406308 306.1418 
L 498.812289 301.301913 
L 499.015279 298.417238 
L 499.62425 283.468052 
L 499.82724 287.013167 
L 500.03023 292.575002 
L 500.233221 294.157952 
L 500.436211 283.23384 
L 500.842191 254.553904 
L 501.045182 263.2717 
L 501.451162 296.167901 
L 501.654153 305.834855 
L 501.857143 299.617137 
L 502.060133 298.372157 
L 502.263123 281.927893 
L 502.466114 284.58752 
L 502.669104 282.558493 
L 502.872094 290.677949 
L 503.075085 289.645169 
L 503.481065 290.791335 
L 503.684055 295.115811 
L 504.293026 318.903672 
L 504.496017 315.323826 
L 504.901997 298.086529 
L 505.307978 308.202135 
L 505.510968 317.692548 
L 506.119939 306.643078 
L 506.322929 311.131531 
L 506.72891 324.419318 
L 506.9319 327.19694 
L 507.13489 322.988837 
L 507.540871 304.751226 
L 508.149842 310.681797 
L 508.555822 294.358591 
L 508.758813 291.357673 
L 508.961803 290.613249 
L 509.164793 291.849347 
L 509.367783 293.879919 
L 509.570774 299.461347 
L 510.179745 282.20608 
L 510.585725 299.754261 
L 510.788715 304.144158 
L 510.991706 300.678547 
L 511.194696 294.912983 
L 511.803667 307.391441 
L 512.006657 302.962899 
L 512.209647 302.957595 
L 512.412638 299.266088 
L 512.818618 289.513117 
L 513.021609 290.772154 
L 513.224599 299.331175 
L 513.427589 302.062093 
L 513.63058 307.129757 
L 513.83357 307.203803 
L 514.03656 306.865602 
L 514.23955 303.962879 
L 514.442541 304.064808 
L 514.645531 307.77753 
L 515.051512 301.022207 
L 515.254502 293.475396 
L 515.660482 300.9409 
L 515.863473 301.280183 
L 516.472444 275.245585 
L 516.675434 281.92779 
L 516.878424 293.360002 
L 517.081414 297.763518 
L 517.284405 295.160841 
L 517.487395 298.655004 
L 517.690385 305.157397 
L 517.893376 306.982 
L 518.096366 295.276364 
L 518.299356 277.11545 
L 518.502346 272.426049 
L 518.705337 275.437652 
L 518.908327 281.754312 
L 519.517298 319.179979 
L 519.720288 318.853776 
L 519.923278 325.878893 
L 520.329259 324.112605 
L 520.532249 318.015842 
L 520.73524 317.703387 
L 521.14122 328.780585 
L 521.547201 306.98339 
L 521.750191 287.338598 
L 521.953181 282.619099 
L 522.156172 273.449767 
L 522.359162 289.459178 
L 522.765142 302.992224 
L 522.968133 290.455528 
L 523.171123 290.819192 
L 523.374113 295.130409 
L 523.577104 287.699971 
L 523.983084 256.565424 
L 524.592055 275.454412 
L 524.795045 280.510954 
L 524.998036 293.18897 
L 525.201026 293.390022 
L 525.607006 248.823843 
L 525.809997 252.912896 
L 526.215977 288.220866 
L 526.418968 288.006041 
L 526.621958 286.14305 
L 526.824948 282.476646 
L 527.027938 274.996826 
L 527.230929 252.364555 
L 527.433919 247.261568 
L 527.636909 253.591256 
L 528.04289 304.853386 
L 528.24588 316.969648 
L 528.44887 319.347947 
L 529.260832 298.915812 
L 529.463822 300.688974 
L 529.666812 304.305663 
L 530.072793 313.814664 
L 530.275783 311.883163 
L 530.681764 294.549241 
L 530.884754 299.466548 
L 531.290734 323.517277 
L 531.493725 323.66663 
L 531.899705 298.656343 
L 532.102696 285.132154 
L 532.711666 320.960814 
L 532.914657 320.272929 
L 533.117647 320.877783 
L 533.726618 281.233416 
L 534.741569 326.655679 
L 534.94456 326.158187 
L 535.35054 319.185901 
L 535.553531 318.929933 
L 535.959511 287.792605 
L 536.162501 255.793194 
L 536.568482 244.704281 
L 536.974463 290.281613 
L 537.177453 308.064316 
L 537.583433 307.298883 
L 537.786424 308.205585 
L 537.989414 305.673658 
L 538.395395 297.180188 
L 538.598385 297.425111 
L 538.801375 301.733161 
L 539.207356 287.30263 
L 539.410346 272.742572 
L 539.613336 277.689872 
L 540.019317 307.89125 
L 540.222307 313.819093 
L 540.425297 311.08166 
L 540.628288 314.637897 
L 540.831278 314.966032 
L 541.034268 308.793318 
L 541.440249 291.264807 
L 541.643239 294.261683 
L 541.846229 287.854396 
L 542.04922 277.429424 
L 542.25221 257.127668 
L 542.861181 292.76318 
L 543.064171 283.324363 
L 543.267161 279.869926 
L 543.470152 282.845459 
L 544.079123 300.011928 
L 544.282113 300.778674 
L 544.485103 301.078771 
L 544.688093 300.699839 
L 545.094074 305.609396 
L 545.297064 312.833196 
L 545.906035 259.148868 
L 546.312016 294.434285 
L 546.515006 300.720333 
L 546.717996 283.990029 
L 546.920987 279.857826 
L 547.123977 288.059387 
L 547.326967 280.902321 
L 547.732948 246.810984 
L 548.138928 276.999258 
L 548.544909 313.859488 
L 548.950889 326.689278 
L 549.35687 322.642474 
L 549.55986 317.17953 
L 550.168831 280.622074 
L 550.574812 294.725036 
L 550.980792 307.393938 
L 551.386773 300.159711 
L 551.589763 285.397159 
L 551.995744 291.067102 
L 552.198734 309.424665 
L 552.604715 320.990267 
L 552.807705 320.358045 
L 553.010695 324.794285 
L 553.213685 326.406148 
L 553.416676 317.144618 
L 554.025647 263.049511 
L 554.228637 274.888847 
L 554.837608 334.662548 
L 555.040598 328.7535 
L 555.243588 306.576678 
L 555.649569 235.065081 
L 555.852559 212.918717 
L 556.25854 259.15152 
L 556.46153 279.341384 
L 556.66452 283.264761 
L 557.070501 313.7305 
L 557.273491 319.183352 
L 557.476482 318.969324 
L 557.679472 316.569501 
L 557.882462 309.153249 
L 558.288443 282.693428 
L 558.491433 284.504926 
L 558.897414 292.101865 
L 559.303394 269.576904 
L 559.506384 265.6845 
L 559.912365 282.684108 
L 560.115355 291.503345 
L 560.521336 282.088651 
L 561.130307 187.278731 
L 561.536287 219.813945 
L 562.145258 275.989417 
L 562.348248 288.252611 
L 562.551239 287.744383 
L 562.957219 277.60576 
L 563.3632 255.274023 
L 563.76918 271.91473 
L 564.378151 163.236421 
L 564.784132 249.336809 
L 564.987122 271.042992 
L 565.393103 291.362359 
L 565.596093 306.742149 
L 566.002074 300.848086 
L 566.205064 298.23148 
L 566.814035 318.144547 
L 567.220015 309.61395 
L 567.625996 291.690931 
L 567.828986 283.986039 
L 568.031976 280.896013 
L 568.234967 281.794939 
L 568.843938 299.33241 
L 569.249918 305.549691 
L 569.452908 299.629057 
L 569.858889 279.467128 
L 570.26487 274.679994 
L 570.87384 235.106867 
L 571.076831 242.780246 
L 571.482811 289.062714 
L 571.685802 289.749492 
L 571.888792 278.168647 
L 572.091782 274.899635 
L 572.294772 278.501931 
L 572.497763 277.28141 
L 572.700753 278.144086 
L 573.106734 298.680312 
L 573.309724 300.709726 
L 574.324675 246.921358 
L 574.527666 256.838539 
L 574.730656 259.388101 
L 574.933646 259.300668 
L 575.136636 257.261625 
L 575.542617 237.370185 
L 575.745607 217.300684 
L 576.151588 253.196979 
L 576.354578 283.563158 
L 576.557568 289.041525 
L 576.760559 286.047892 
L 577.166539 269.226988 
L 577.77551 291.272324 
L 577.9785 273.552494 
L 578.181491 267.874646 
L 578.384481 243.926181 
L 578.587471 244.980588 
L 578.790462 238.203664 
L 579.399433 304.256771 
L 579.602423 311.494757 
L 579.805413 310.325316 
L 580.414384 291.654912 
L 580.617374 289.812802 
L 580.820365 296.099133 
L 581.023355 295.137129 
L 581.226345 293.456472 
L 581.429335 286.339957 
L 581.632326 291.726538 
L 582.038306 313.067537 
L 582.241297 310.676854 
L 582.647277 266.563061 
L 582.850267 256.951461 
L 583.256248 287.758414 
L 583.459238 284.041882 
L 583.865219 262.546354 
L 584.271199 305.347532 
L 584.47419 308.623496 
L 584.88017 268.910697 
L 585.083161 270.036575 
L 585.286151 272.467448 
L 585.489141 279.595885 
L 585.692131 278.908617 
L 585.895122 293.413862 
L 586.098112 299.929309 
L 586.301102 299.733201 
L 586.910073 242.961911 
L 587.113063 243.751622 
L 587.519044 268.713404 
L 588.128015 297.558399 
L 588.533995 318.425926 
L 588.736986 327.301392 
L 588.939976 313.331847 
L 589.548947 251.400517 
L 589.954927 286.290987 
L 590.157918 287.374179 
L 590.360908 283.610943 
L 590.563898 283.088554 
L 591.172869 224.756534 
L 591.57885 290.160555 
L 591.78184 295.748033 
L 592.187821 244.591152 
L 592.593801 261.043501 
L 592.999782 285.572052 
L 593.405762 305.257961 
L 593.608753 304.977998 
L 594.217723 265.790754 
L 594.420714 276.412761 
L 594.623704 294.37494 
L 594.826694 294.410624 
L 595.232675 258.283669 
L 595.435665 263.18957 
L 596.044636 305.458137 
L 596.247626 297.736819 
L 596.653607 270.414451 
L 596.856597 273.228787 
L 597.465568 314.817966 
L 597.668558 317.801917 
L 597.871549 316.535877 
L 598.074539 304.854983 
L 598.480519 298.122651 
L 598.8865 314.023749 
L 599.08949 311.030709 
L 599.495471 286.593324 
L 600.104442 141.107821 
L 600.713413 308.132157 
L 600.916403 304.60195 
L 601.322383 247.862508 
L 601.525374 198.382551 
L 601.931354 176.397743 
L 602.337335 278.142464 
L 602.540325 316.593548 
L 602.946306 306.061189 
L 603.149296 299.340675 
L 603.555277 271.969647 
L 603.758267 268.297913 
L 603.961257 282.080361 
L 604.367238 323.768688 
L 604.570228 328.581722 
L 604.976209 313.556997 
L 605.58518 319.658935 
L 605.78817 310.374337 
L 605.99116 306.937021 
L 606.19415 299.805676 
L 606.397141 305.154256 
L 606.600131 303.649986 
L 606.803121 304.852331 
L 607.006112 295.004768 
L 607.209102 293.384254 
L 608.021063 280.109546 
L 608.224053 286.361892 
L 608.427044 287.435841 
L 608.630034 286.645692 
L 608.833024 282.013885 
L 609.441995 243.831307 
L 610.050966 114.429956 
L 610.456946 224.208012 
L 610.659937 260.427035 
L 610.862927 246.721259 
L 611.065917 254.632816 
L 611.471898 282.344671 
L 611.674888 289.853249 
L 611.877878 287.863768 
L 612.080869 280.486238 
L 612.486849 260.070863 
L 613.09582 308.46333 
L 613.29881 308.687295 
L 613.501801 310.584168 
L 613.704791 306.774718 
L 613.907781 282.285609 
L 614.313762 183.639257 
L 614.516752 182.865199 
L 614.719742 217.967174 
L 615.125723 317.771949 
L 615.328713 325.674211 
L 615.531704 312.6815 
L 616.140674 166.50049 
L 616.546655 230.557602 
L 616.749645 246.391503 
L 616.952636 221.073626 
L 617.561606 284.9871 
L 617.967587 262.036272 
L 618.170577 259.370311 
L 618.779548 315.495347 
L 619.185529 314.455331 
L 619.388519 306.855638 
L 619.7945 278.567919 
L 620.20048 302.359564 
L 620.40347 319.951617 
L 620.606461 322.363129 
L 620.809451 319.881072 
L 621.012441 315.97129 
L 621.215432 308.749807 
L 621.824402 238.971903 
L 622.433373 303.865533 
L 622.636364 299.064934 
L 622.636364 299.064934 
" clip-path="url(#pb662f6471e)" style="fill: none; stroke: #ff0000; stroke-opacity: 0.1; stroke-width: 2; stroke-linecap: square"/>
   </g>
   <g id="patch_3">
    <path d="M 90 384.48 
L 90 51.84 
" style="fill: none; stroke: #000000; stroke-width: 0.8; stroke-linejoin: miter; stroke-linecap: square"/>
   </g>
   <g id="patch_4">
    <path d="M 648 384.48 
L 648 51.84 
" style="fill: none; stroke: #000000; stroke-width: 0.8; stroke-linejoin: miter; stroke-linecap: square"/>
   </g>
   <g id="patch_5">
    <path d="M 90 384.48 
L 648 384.48 
" style="fill: none; stroke: #000000; stroke-width: 0.8; stroke-linejoin: miter; stroke-linecap: square"/>
   </g>
   <g id="patch_6">
    <path d="M 90 51.84 
L 648 51.84 
" style="fill: none; stroke: #000000; stroke-width: 0.8; stroke-linejoin: miter; stroke-linecap: square"/>
   </g>
   <g id="text_17">
    <!-- scale_15_15 -->
    <g transform="translate(326.147969 45.84) scale(0.14 -0.14)">
     <defs>
      <path id="DejaVuSans-63" d="M 3122 3366 
L 3122 2828 
Q 2878 2963 2633 3030 
Q 2388 3097 2138 3097 
Q 1578 3097 1268 2742 
Q 959 2388 959 1747 
Q 959 1106 1268 751 
Q 1578 397 2138 397 
Q 2388 397 2633 464 
Q 2878 531 3122 666 
L 3122 134 
Q 2881 22 2623 -34 
Q 2366 -91 2075 -91 
Q 1284 -91 818 406 
Q 353 903 353 1747 
Q 353 2603 823 3093 
Q 1294 3584 2113 3584 
Q 2378 3584 2631 3529 
Q 2884 3475 3122 3366 
z
" transform="scale(0.015625)"/>
      <path id="DejaVuSans-6c" d="M 603 4863 
L 1178 4863 
L 1178 0 
L 603 0 
L 603 4863 
z
" transform="scale(0.015625)"/>
      <path id="DejaVuSans-5f" d="M 3263 -1063 
L 3263 -1509 
L -63 -1509 
L -63 -1063 
L 3263 -1063 
z
" transform="scale(0.015625)"/>
     </defs>
     <use xlink:href="#DejaVuSans-73"/>
     <use xlink:href="#DejaVuSans-63" x="52.099609"/>
     <use xlink:href="#DejaVuSans-61" x="107.080078"/>
     <use xlink:href="#DejaVuSans-6c" x="168.359375"/>
     <use xlink:href="#DejaVuSans-65" x="196.142578"/>
     <use xlink:href="#DejaVuSans-5f" x="257.666016"/>
     <use xlink:href="#DejaVuSans-31" x="307.666016"/>
     <use xlink:href="#DejaVuSans-35" x="371.289062"/>
     <use xlink:href="#DejaVuSans-5f" x="434.912109"/>
     <use xlink:href="#DejaVuSans-31" x="484.912109"/>
     <use xlink:href="#DejaVuSans-35" x="548.535156"/>
    </g>
   </g>
   <g id="legend_1">
    <g id="patch_7">
     <path d="M 97 74.79625 
L 225.382812 74.79625 
Q 227.382812 74.79625 227.382812 72.79625 
L 227.382812 58.84 
Q 227.382812 56.84 225.382812 56.84 
L 97 56.84 
Q 95 56.84 95 58.84 
L 95 72.79625 
Q 95 74.79625 97 74.79625 
z
" style="fill: #ffffff; opacity: 0.8; stroke: #cccccc; stroke-linejoin: miter"/>
    </g>
    <g id="line2d_29">
     <path d="M 99 64.938437 
L 109 64.938437 
L 119 64.938437 
" style="fill: none; stroke: #ff0000; stroke-width: 1.5; stroke-linecap: square"/>
    </g>
    <g id="text_18">
     <!-- reward_avg_1_runs -->
     <g transform="translate(127 68.438437) scale(0.1 -0.1)">
      <defs>
       <path id="DejaVuSans-76" d="M 191 3500 
L 800 3500 
L 1894 563 
L 2988 3500 
L 3597 3500 
L 2284 0 
L 1503 0 
L 191 3500 
z
" transform="scale(0.015625)"/>
       <path id="DejaVuSans-67" d="M 2906 1791 
Q 2906 2416 2648 2759 
Q 2391 3103 1925 3103 
Q 1463 3103 1205 2759 
Q 947 2416 947 1791 
Q 947 1169 1205 825 
Q 1463 481 1925 481 
Q 2391 481 2648 825 
Q 2906 1169 2906 1791 
z
M 3481 434 
Q 3481 -459 3084 -895 
Q 2688 -1331 1869 -1331 
Q 1566 -1331 1297 -1286 
Q 1028 -1241 775 -1147 
L 775 -588 
Q 1028 -725 1275 -790 
Q 1522 -856 1778 -856 
Q 2344 -856 2625 -561 
Q 2906 -266 2906 331 
L 2906 616 
Q 2728 306 2450 153 
Q 2172 0 1784 0 
Q 1141 0 747 490 
Q 353 981 353 1791 
Q 353 2603 747 3093 
Q 1141 3584 1784 3584 
Q 2172 3584 2450 3431 
Q 2728 3278 2906 2969 
L 2906 3500 
L 3481 3500 
L 3481 434 
z
" transform="scale(0.015625)"/>
       <path id="DejaVuSans-75" d="M 544 1381 
L 544 3500 
L 1119 3500 
L 1119 1403 
Q 1119 906 1312 657 
Q 1506 409 1894 409 
Q 2359 409 2629 706 
Q 2900 1003 2900 1516 
L 2900 3500 
L 3475 3500 
L 3475 0 
L 2900 0 
L 2900 538 
Q 2691 219 2414 64 
Q 2138 -91 1772 -91 
Q 1169 -91 856 284 
Q 544 659 544 1381 
z
M 1991 3584 
L 1991 3584 
z
" transform="scale(0.015625)"/>
       <path id="DejaVuSans-6e" d="M 3513 2113 
L 3513 0 
L 2938 0 
L 2938 2094 
Q 2938 2591 2744 2837 
Q 2550 3084 2163 3084 
Q 1697 3084 1428 2787 
Q 1159 2491 1159 1978 
L 1159 0 
L 581 0 
L 581 3500 
L 1159 3500 
L 1159 2956 
Q 1366 3272 1645 3428 
Q 1925 3584 2291 3584 
Q 2894 3584 3203 3211 
Q 3513 2838 3513 2113 
z
" transform="scale(0.015625)"/>
      </defs>
      <use xlink:href="#DejaVuSans-72"/>
      <use xlink:href="#DejaVuSans-65" x="38.863281"/>
      <use xlink:href="#DejaVuSans-77" x="100.386719"/>
      <use xlink:href="#DejaVuSans-61" x="182.173828"/>
      <use xlink:href="#DejaVuSans-72" x="243.453125"/>
      <use xlink:href="#DejaVuSans-64" x="282.816406"/>
      <use xlink:href="#DejaVuSans-5f" x="346.292969"/>
      <use xlink:href="#DejaVuSans-61" x="396.292969"/>
      <use xlink:href="#DejaVuSans-76" x="457.572266"/>
      <use xlink:href="#DejaVuSans-67" x="516.751953"/>
      <use xlink:href="#DejaVuSans-5f" x="580.228516"/>
      <use xlink:href="#DejaVuSans-31" x="630.228516"/>
      <use xlink:href="#DejaVuSans-5f" x="693.851562"/>
      <use xlink:href="#DejaVuSans-72" x="743.851562"/>
      <use xlink:href="#DejaVuSans-75" x="784.964844"/>
      <use xlink:href="#DejaVuSans-6e" x="848.34375"/>
      <use xlink:href="#DejaVuSans-73" x="911.722656"/>
     </g>
    </g>
   </g>
  </g>
 </g>
 <defs>
  <clipPath id="pb662f6471e">
   <rect x="90" y="51.84" width="558" height="332.64"/>
  </clipPath>
 </defs>
</svg>
