<?xml version="1.0" encoding="utf-8" standalone="no"?>
<!DOCTYPE svg PUBLIC "-//W3C//DTD SVG 1.1//EN"
  "http://www.w3.org/Graphics/SVG/1.1/DTD/svg11.dtd">
<svg xmlns:xlink="http://www.w3.org/1999/xlink" width="720pt" height="432pt" viewBox="0 0 720 432" xmlns="http://www.w3.org/2000/svg" version="1.1">
 <metadata>
  <rdf:RDF xmlns:dc="http://purl.org/dc/elements/1.1/" xmlns:cc="http://creativecommons.org/ns#" xmlns:rdf="http://www.w3.org/1999/02/22-rdf-syntax-ns#">
   <cc:Work>
    <dc:type rdf:resource="http://purl.org/dc/dcmitype/StillImage"/>
    <dc:date>2024-05-02T12:51:52.945791</dc:date>
    <dc:format>image/svg+xml</dc:format>
    <dc:creator>
     <cc:Agent>
      <dc:title>Matplotlib v3.8.2, https://matplotlib.org/</dc:title>
     </cc:Agent>
    </dc:creator>
   </cc:Work>
  </rdf:RDF>
 </metadata>
 <defs>
  <style type="text/css">*{stroke-linejoin: round; stroke-linecap: butt}</style>
 </defs>
 <g id="figure_1">
  <g id="patch_1">
   <path d="M 0 432 
L 720 432 
L 720 0 
L 0 0 
z
" style="fill: #ffffff"/>
  </g>
  <g id="axes_1">
   <g id="patch_2">
    <path d="M 90 384.48 
L 648 384.48 
L 648 51.84 
L 90 51.84 
z
" style="fill: #ffffff"/>
   </g>
   <g id="matplotlib.axis_1">
    <g id="xtick_1">
     <g id="line2d_1">
      <path d="M 115.160646 384.48 
L 115.160646 51.84 
" clip-path="url(#p29440aacd7)" style="fill: none; stroke: #808080; stroke-opacity: 0.2; stroke-linecap: square"/>
     </g>
     <g id="line2d_2">
      <defs>
       <path id="m82b789387c" d="M 0 0 
L 0 3.5 
" style="stroke: #000000; stroke-width: 0.8"/>
      </defs>
      <g>
       <use xlink:href="#m82b789387c" x="115.160646" y="384.48" style="stroke: #000000; stroke-width: 0.8"/>
      </g>
     </g>
     <g id="text_1">
      <!-- 0.0 -->
      <g transform="translate(107.209084 399.078438) scale(0.1 -0.1)">
       <defs>
        <path id="DejaVuSans-30" d="M 2034 4250 
Q 1547 4250 1301 3770 
Q 1056 3291 1056 2328 
Q 1056 1369 1301 889 
Q 1547 409 2034 409 
Q 2525 409 2770 889 
Q 3016 1369 3016 2328 
Q 3016 3291 2770 3770 
Q 2525 4250 2034 4250 
z
M 2034 4750 
Q 2819 4750 3233 4129 
Q 3647 3509 3647 2328 
Q 3647 1150 3233 529 
Q 2819 -91 2034 -91 
Q 1250 -91 836 529 
Q 422 1150 422 2328 
Q 422 3509 836 4129 
Q 1250 4750 2034 4750 
z
" transform="scale(0.015625)"/>
        <path id="DejaVuSans-2e" d="M 684 794 
L 1344 794 
L 1344 0 
L 684 0 
L 684 794 
z
" transform="scale(0.015625)"/>
       </defs>
       <use xlink:href="#DejaVuSans-30"/>
       <use xlink:href="#DejaVuSans-2e" x="63.623047"/>
       <use xlink:href="#DejaVuSans-30" x="95.410156"/>
      </g>
     </g>
    </g>
    <g id="xtick_2">
     <g id="line2d_3">
      <path d="M 216.65579 384.48 
L 216.65579 51.84 
" clip-path="url(#p29440aacd7)" style="fill: none; stroke: #808080; stroke-opacity: 0.2; stroke-linecap: square"/>
     </g>
     <g id="line2d_4">
      <g>
       <use xlink:href="#m82b789387c" x="216.65579" y="384.48" style="stroke: #000000; stroke-width: 0.8"/>
      </g>
     </g>
     <g id="text_2">
      <!-- 0.2 -->
      <g transform="translate(208.704227 399.078438) scale(0.1 -0.1)">
       <defs>
        <path id="DejaVuSans-32" d="M 1228 531 
L 3431 531 
L 3431 0 
L 469 0 
L 469 531 
Q 828 903 1448 1529 
Q 2069 2156 2228 2338 
Q 2531 2678 2651 2914 
Q 2772 3150 2772 3378 
Q 2772 3750 2511 3984 
Q 2250 4219 1831 4219 
Q 1534 4219 1204 4116 
Q 875 4013 500 3803 
L 500 4441 
Q 881 4594 1212 4672 
Q 1544 4750 1819 4750 
Q 2544 4750 2975 4387 
Q 3406 4025 3406 3419 
Q 3406 3131 3298 2873 
Q 3191 2616 2906 2266 
Q 2828 2175 2409 1742 
Q 1991 1309 1228 531 
z
" transform="scale(0.015625)"/>
       </defs>
       <use xlink:href="#DejaVuSans-30"/>
       <use xlink:href="#DejaVuSans-2e" x="63.623047"/>
       <use xlink:href="#DejaVuSans-32" x="95.410156"/>
      </g>
     </g>
    </g>
    <g id="xtick_3">
     <g id="line2d_5">
      <path d="M 318.150933 384.48 
L 318.150933 51.84 
" clip-path="url(#p29440aacd7)" style="fill: none; stroke: #808080; stroke-opacity: 0.2; stroke-linecap: square"/>
     </g>
     <g id="line2d_6">
      <g>
       <use xlink:href="#m82b789387c" x="318.150933" y="384.48" style="stroke: #000000; stroke-width: 0.8"/>
      </g>
     </g>
     <g id="text_3">
      <!-- 0.4 -->
      <g transform="translate(310.199371 399.078438) scale(0.1 -0.1)">
       <defs>
        <path id="DejaVuSans-34" d="M 2419 4116 
L 825 1625 
L 2419 1625 
L 2419 4116 
z
M 2253 4666 
L 3047 4666 
L 3047 1625 
L 3713 1625 
L 3713 1100 
L 3047 1100 
L 3047 0 
L 2419 0 
L 2419 1100 
L 313 1100 
L 313 1709 
L 2253 4666 
z
" transform="scale(0.015625)"/>
       </defs>
       <use xlink:href="#DejaVuSans-30"/>
       <use xlink:href="#DejaVuSans-2e" x="63.623047"/>
       <use xlink:href="#DejaVuSans-34" x="95.410156"/>
      </g>
     </g>
    </g>
    <g id="xtick_4">
     <g id="line2d_7">
      <path d="M 419.646077 384.48 
L 419.646077 51.84 
" clip-path="url(#p29440aacd7)" style="fill: none; stroke: #808080; stroke-opacity: 0.2; stroke-linecap: square"/>
     </g>
     <g id="line2d_8">
      <g>
       <use xlink:href="#m82b789387c" x="419.646077" y="384.48" style="stroke: #000000; stroke-width: 0.8"/>
      </g>
     </g>
     <g id="text_4">
      <!-- 0.6 -->
      <g transform="translate(411.694514 399.078438) scale(0.1 -0.1)">
       <defs>
        <path id="DejaVuSans-36" d="M 2113 2584 
Q 1688 2584 1439 2293 
Q 1191 2003 1191 1497 
Q 1191 994 1439 701 
Q 1688 409 2113 409 
Q 2538 409 2786 701 
Q 3034 994 3034 1497 
Q 3034 2003 2786 2293 
Q 2538 2584 2113 2584 
z
M 3366 4563 
L 3366 3988 
Q 3128 4100 2886 4159 
Q 2644 4219 2406 4219 
Q 1781 4219 1451 3797 
Q 1122 3375 1075 2522 
Q 1259 2794 1537 2939 
Q 1816 3084 2150 3084 
Q 2853 3084 3261 2657 
Q 3669 2231 3669 1497 
Q 3669 778 3244 343 
Q 2819 -91 2113 -91 
Q 1303 -91 875 529 
Q 447 1150 447 2328 
Q 447 3434 972 4092 
Q 1497 4750 2381 4750 
Q 2619 4750 2861 4703 
Q 3103 4656 3366 4563 
z
" transform="scale(0.015625)"/>
       </defs>
       <use xlink:href="#DejaVuSans-30"/>
       <use xlink:href="#DejaVuSans-2e" x="63.623047"/>
       <use xlink:href="#DejaVuSans-36" x="95.410156"/>
      </g>
     </g>
    </g>
    <g id="xtick_5">
     <g id="line2d_9">
      <path d="M 521.14122 384.48 
L 521.14122 51.84 
" clip-path="url(#p29440aacd7)" style="fill: none; stroke: #808080; stroke-opacity: 0.2; stroke-linecap: square"/>
     </g>
     <g id="line2d_10">
      <g>
       <use xlink:href="#m82b789387c" x="521.14122" y="384.48" style="stroke: #000000; stroke-width: 0.8"/>
      </g>
     </g>
     <g id="text_5">
      <!-- 0.8 -->
      <g transform="translate(513.189658 399.078438) scale(0.1 -0.1)">
       <defs>
        <path id="DejaVuSans-38" d="M 2034 2216 
Q 1584 2216 1326 1975 
Q 1069 1734 1069 1313 
Q 1069 891 1326 650 
Q 1584 409 2034 409 
Q 2484 409 2743 651 
Q 3003 894 3003 1313 
Q 3003 1734 2745 1975 
Q 2488 2216 2034 2216 
z
M 1403 2484 
Q 997 2584 770 2862 
Q 544 3141 544 3541 
Q 544 4100 942 4425 
Q 1341 4750 2034 4750 
Q 2731 4750 3128 4425 
Q 3525 4100 3525 3541 
Q 3525 3141 3298 2862 
Q 3072 2584 2669 2484 
Q 3125 2378 3379 2068 
Q 3634 1759 3634 1313 
Q 3634 634 3220 271 
Q 2806 -91 2034 -91 
Q 1263 -91 848 271 
Q 434 634 434 1313 
Q 434 1759 690 2068 
Q 947 2378 1403 2484 
z
M 1172 3481 
Q 1172 3119 1398 2916 
Q 1625 2713 2034 2713 
Q 2441 2713 2670 2916 
Q 2900 3119 2900 3481 
Q 2900 3844 2670 4047 
Q 2441 4250 2034 4250 
Q 1625 4250 1398 4047 
Q 1172 3844 1172 3481 
z
" transform="scale(0.015625)"/>
       </defs>
       <use xlink:href="#DejaVuSans-30"/>
       <use xlink:href="#DejaVuSans-2e" x="63.623047"/>
       <use xlink:href="#DejaVuSans-38" x="95.410156"/>
      </g>
     </g>
    </g>
    <g id="xtick_6">
     <g id="line2d_11">
      <path d="M 622.636364 384.48 
L 622.636364 51.84 
" clip-path="url(#p29440aacd7)" style="fill: none; stroke: #808080; stroke-opacity: 0.2; stroke-linecap: square"/>
     </g>
     <g id="line2d_12">
      <g>
       <use xlink:href="#m82b789387c" x="622.636364" y="384.48" style="stroke: #000000; stroke-width: 0.8"/>
      </g>
     </g>
     <g id="text_6">
      <!-- 1.0 -->
      <g transform="translate(614.684801 399.078438) scale(0.1 -0.1)">
       <defs>
        <path id="DejaVuSans-31" d="M 794 531 
L 1825 531 
L 1825 4091 
L 703 3866 
L 703 4441 
L 1819 4666 
L 2450 4666 
L 2450 531 
L 3481 531 
L 3481 0 
L 794 0 
L 794 531 
z
" transform="scale(0.015625)"/>
       </defs>
       <use xlink:href="#DejaVuSans-31"/>
       <use xlink:href="#DejaVuSans-2e" x="63.623047"/>
       <use xlink:href="#DejaVuSans-30" x="95.410156"/>
      </g>
     </g>
    </g>
    <g id="text_7">
     <!-- Timesteps -->
     <g transform="translate(338.215312 414.27625) scale(0.12 -0.12)">
      <defs>
       <path id="DejaVuSans-54" d="M -19 4666 
L 3928 4666 
L 3928 4134 
L 2272 4134 
L 2272 0 
L 1638 0 
L 1638 4134 
L -19 4134 
L -19 4666 
z
" transform="scale(0.015625)"/>
       <path id="DejaVuSans-69" d="M 603 3500 
L 1178 3500 
L 1178 0 
L 603 0 
L 603 3500 
z
M 603 4863 
L 1178 4863 
L 1178 4134 
L 603 4134 
L 603 4863 
z
" transform="scale(0.015625)"/>
       <path id="DejaVuSans-6d" d="M 3328 2828 
Q 3544 3216 3844 3400 
Q 4144 3584 4550 3584 
Q 5097 3584 5394 3201 
Q 5691 2819 5691 2113 
L 5691 0 
L 5113 0 
L 5113 2094 
Q 5113 2597 4934 2840 
Q 4756 3084 4391 3084 
Q 3944 3084 3684 2787 
Q 3425 2491 3425 1978 
L 3425 0 
L 2847 0 
L 2847 2094 
Q 2847 2600 2669 2842 
Q 2491 3084 2119 3084 
Q 1678 3084 1418 2786 
Q 1159 2488 1159 1978 
L 1159 0 
L 581 0 
L 581 3500 
L 1159 3500 
L 1159 2956 
Q 1356 3278 1631 3431 
Q 1906 3584 2284 3584 
Q 2666 3584 2933 3390 
Q 3200 3197 3328 2828 
z
" transform="scale(0.015625)"/>
       <path id="DejaVuSans-65" d="M 3597 1894 
L 3597 1613 
L 953 1613 
Q 991 1019 1311 708 
Q 1631 397 2203 397 
Q 2534 397 2845 478 
Q 3156 559 3463 722 
L 3463 178 
Q 3153 47 2828 -22 
Q 2503 -91 2169 -91 
Q 1331 -91 842 396 
Q 353 884 353 1716 
Q 353 2575 817 3079 
Q 1281 3584 2069 3584 
Q 2775 3584 3186 3129 
Q 3597 2675 3597 1894 
z
M 3022 2063 
Q 3016 2534 2758 2815 
Q 2500 3097 2075 3097 
Q 1594 3097 1305 2825 
Q 1016 2553 972 2059 
L 3022 2063 
z
" transform="scale(0.015625)"/>
       <path id="DejaVuSans-73" d="M 2834 3397 
L 2834 2853 
Q 2591 2978 2328 3040 
Q 2066 3103 1784 3103 
Q 1356 3103 1142 2972 
Q 928 2841 928 2578 
Q 928 2378 1081 2264 
Q 1234 2150 1697 2047 
L 1894 2003 
Q 2506 1872 2764 1633 
Q 3022 1394 3022 966 
Q 3022 478 2636 193 
Q 2250 -91 1575 -91 
Q 1294 -91 989 -36 
Q 684 19 347 128 
L 347 722 
Q 666 556 975 473 
Q 1284 391 1588 391 
Q 1994 391 2212 530 
Q 2431 669 2431 922 
Q 2431 1156 2273 1281 
Q 2116 1406 1581 1522 
L 1381 1569 
Q 847 1681 609 1914 
Q 372 2147 372 2553 
Q 372 3047 722 3315 
Q 1072 3584 1716 3584 
Q 2034 3584 2315 3537 
Q 2597 3491 2834 3397 
z
" transform="scale(0.015625)"/>
       <path id="DejaVuSans-74" d="M 1172 4494 
L 1172 3500 
L 2356 3500 
L 2356 3053 
L 1172 3053 
L 1172 1153 
Q 1172 725 1289 603 
Q 1406 481 1766 481 
L 2356 481 
L 2356 0 
L 1766 0 
Q 1100 0 847 248 
Q 594 497 594 1153 
L 594 3053 
L 172 3053 
L 172 3500 
L 594 3500 
L 594 4494 
L 1172 4494 
z
" transform="scale(0.015625)"/>
       <path id="DejaVuSans-70" d="M 1159 525 
L 1159 -1331 
L 581 -1331 
L 581 3500 
L 1159 3500 
L 1159 2969 
Q 1341 3281 1617 3432 
Q 1894 3584 2278 3584 
Q 2916 3584 3314 3078 
Q 3713 2572 3713 1747 
Q 3713 922 3314 415 
Q 2916 -91 2278 -91 
Q 1894 -91 1617 61 
Q 1341 213 1159 525 
z
M 3116 1747 
Q 3116 2381 2855 2742 
Q 2594 3103 2138 3103 
Q 1681 3103 1420 2742 
Q 1159 2381 1159 1747 
Q 1159 1113 1420 752 
Q 1681 391 2138 391 
Q 2594 391 2855 752 
Q 3116 1113 3116 1747 
z
" transform="scale(0.015625)"/>
      </defs>
      <use xlink:href="#DejaVuSans-54"/>
      <use xlink:href="#DejaVuSans-69" x="57.958984"/>
      <use xlink:href="#DejaVuSans-6d" x="85.742188"/>
      <use xlink:href="#DejaVuSans-65" x="183.154297"/>
      <use xlink:href="#DejaVuSans-73" x="244.677734"/>
      <use xlink:href="#DejaVuSans-74" x="296.777344"/>
      <use xlink:href="#DejaVuSans-65" x="335.986328"/>
      <use xlink:href="#DejaVuSans-70" x="397.509766"/>
      <use xlink:href="#DejaVuSans-73" x="460.986328"/>
     </g>
    </g>
    <g id="text_8">
     <!-- 1e7 -->
     <g transform="translate(629.121875 411.756563) scale(0.1 -0.1)">
      <defs>
       <path id="DejaVuSans-37" d="M 525 4666 
L 3525 4666 
L 3525 4397 
L 1831 0 
L 1172 0 
L 2766 4134 
L 525 4134 
L 525 4666 
z
" transform="scale(0.015625)"/>
      </defs>
      <use xlink:href="#DejaVuSans-31"/>
      <use xlink:href="#DejaVuSans-65" x="63.623047"/>
      <use xlink:href="#DejaVuSans-37" x="125.146484"/>
     </g>
    </g>
   </g>
   <g id="matplotlib.axis_2">
    <g id="ytick_1">
     <g id="line2d_13">
      <path d="M 90 363.126569 
L 648 363.126569 
" clip-path="url(#p29440aacd7)" style="fill: none; stroke: #808080; stroke-opacity: 0.2; stroke-linecap: square"/>
     </g>
     <g id="line2d_14">
      <defs>
       <path id="m7cff89eb4e" d="M 0 0 
L -3.5 0 
" style="stroke: #000000; stroke-width: 0.8"/>
      </defs>
      <g>
       <use xlink:href="#m7cff89eb4e" x="90" y="363.126569" style="stroke: #000000; stroke-width: 0.8"/>
      </g>
     </g>
     <g id="text_9">
      <!-- −300 -->
      <g transform="translate(55.532812 366.925788) scale(0.1 -0.1)">
       <defs>
        <path id="DejaVuSans-2212" d="M 678 2272 
L 4684 2272 
L 4684 1741 
L 678 1741 
L 678 2272 
z
" transform="scale(0.015625)"/>
        <path id="DejaVuSans-33" d="M 2597 2516 
Q 3050 2419 3304 2112 
Q 3559 1806 3559 1356 
Q 3559 666 3084 287 
Q 2609 -91 1734 -91 
Q 1441 -91 1130 -33 
Q 819 25 488 141 
L 488 750 
Q 750 597 1062 519 
Q 1375 441 1716 441 
Q 2309 441 2620 675 
Q 2931 909 2931 1356 
Q 2931 1769 2642 2001 
Q 2353 2234 1838 2234 
L 1294 2234 
L 1294 2753 
L 1863 2753 
Q 2328 2753 2575 2939 
Q 2822 3125 2822 3475 
Q 2822 3834 2567 4026 
Q 2313 4219 1838 4219 
Q 1578 4219 1281 4162 
Q 984 4106 628 3988 
L 628 4550 
Q 988 4650 1302 4700 
Q 1616 4750 1894 4750 
Q 2613 4750 3031 4423 
Q 3450 4097 3450 3541 
Q 3450 3153 3228 2886 
Q 3006 2619 2597 2516 
z
" transform="scale(0.015625)"/>
       </defs>
       <use xlink:href="#DejaVuSans-2212"/>
       <use xlink:href="#DejaVuSans-33" x="83.789062"/>
       <use xlink:href="#DejaVuSans-30" x="147.412109"/>
       <use xlink:href="#DejaVuSans-30" x="211.035156"/>
      </g>
     </g>
    </g>
    <g id="ytick_2">
     <g id="line2d_15">
      <path d="M 90 322.285983 
L 648 322.285983 
" clip-path="url(#p29440aacd7)" style="fill: none; stroke: #808080; stroke-opacity: 0.2; stroke-linecap: square"/>
     </g>
     <g id="line2d_16">
      <g>
       <use xlink:href="#m7cff89eb4e" x="90" y="322.285983" style="stroke: #000000; stroke-width: 0.8"/>
      </g>
     </g>
     <g id="text_10">
      <!-- −250 -->
      <g transform="translate(55.532812 326.085201) scale(0.1 -0.1)">
       <defs>
        <path id="DejaVuSans-35" d="M 691 4666 
L 3169 4666 
L 3169 4134 
L 1269 4134 
L 1269 2991 
Q 1406 3038 1543 3061 
Q 1681 3084 1819 3084 
Q 2600 3084 3056 2656 
Q 3513 2228 3513 1497 
Q 3513 744 3044 326 
Q 2575 -91 1722 -91 
Q 1428 -91 1123 -41 
Q 819 9 494 109 
L 494 744 
Q 775 591 1075 516 
Q 1375 441 1709 441 
Q 2250 441 2565 725 
Q 2881 1009 2881 1497 
Q 2881 1984 2565 2268 
Q 2250 2553 1709 2553 
Q 1456 2553 1204 2497 
Q 953 2441 691 2322 
L 691 4666 
z
" transform="scale(0.015625)"/>
       </defs>
       <use xlink:href="#DejaVuSans-2212"/>
       <use xlink:href="#DejaVuSans-32" x="83.789062"/>
       <use xlink:href="#DejaVuSans-35" x="147.412109"/>
       <use xlink:href="#DejaVuSans-30" x="211.035156"/>
      </g>
     </g>
    </g>
    <g id="ytick_3">
     <g id="line2d_17">
      <path d="M 90 281.445396 
L 648 281.445396 
" clip-path="url(#p29440aacd7)" style="fill: none; stroke: #808080; stroke-opacity: 0.2; stroke-linecap: square"/>
     </g>
     <g id="line2d_18">
      <g>
       <use xlink:href="#m7cff89eb4e" x="90" y="281.445396" style="stroke: #000000; stroke-width: 0.8"/>
      </g>
     </g>
     <g id="text_11">
      <!-- −200 -->
      <g transform="translate(55.532812 285.244614) scale(0.1 -0.1)">
       <use xlink:href="#DejaVuSans-2212"/>
       <use xlink:href="#DejaVuSans-32" x="83.789062"/>
       <use xlink:href="#DejaVuSans-30" x="147.412109"/>
       <use xlink:href="#DejaVuSans-30" x="211.035156"/>
      </g>
     </g>
    </g>
    <g id="ytick_4">
     <g id="line2d_19">
      <path d="M 90 240.604809 
L 648 240.604809 
" clip-path="url(#p29440aacd7)" style="fill: none; stroke: #808080; stroke-opacity: 0.2; stroke-linecap: square"/>
     </g>
     <g id="line2d_20">
      <g>
       <use xlink:href="#m7cff89eb4e" x="90" y="240.604809" style="stroke: #000000; stroke-width: 0.8"/>
      </g>
     </g>
     <g id="text_12">
      <!-- −150 -->
      <g transform="translate(55.532812 244.404028) scale(0.1 -0.1)">
       <use xlink:href="#DejaVuSans-2212"/>
       <use xlink:href="#DejaVuSans-31" x="83.789062"/>
       <use xlink:href="#DejaVuSans-35" x="147.412109"/>
       <use xlink:href="#DejaVuSans-30" x="211.035156"/>
      </g>
     </g>
    </g>
    <g id="ytick_5">
     <g id="line2d_21">
      <path d="M 90 199.764222 
L 648 199.764222 
" clip-path="url(#p29440aacd7)" style="fill: none; stroke: #808080; stroke-opacity: 0.2; stroke-linecap: square"/>
     </g>
     <g id="line2d_22">
      <g>
       <use xlink:href="#m7cff89eb4e" x="90" y="199.764222" style="stroke: #000000; stroke-width: 0.8"/>
      </g>
     </g>
     <g id="text_13">
      <!-- −100 -->
      <g transform="translate(55.532812 203.563441) scale(0.1 -0.1)">
       <use xlink:href="#DejaVuSans-2212"/>
       <use xlink:href="#DejaVuSans-31" x="83.789062"/>
       <use xlink:href="#DejaVuSans-30" x="147.412109"/>
       <use xlink:href="#DejaVuSans-30" x="211.035156"/>
      </g>
     </g>
    </g>
    <g id="ytick_6">
     <g id="line2d_23">
      <path d="M 90 158.923635 
L 648 158.923635 
" clip-path="url(#p29440aacd7)" style="fill: none; stroke: #808080; stroke-opacity: 0.2; stroke-linecap: square"/>
     </g>
     <g id="line2d_24">
      <g>
       <use xlink:href="#m7cff89eb4e" x="90" y="158.923635" style="stroke: #000000; stroke-width: 0.8"/>
      </g>
     </g>
     <g id="text_14">
      <!-- −50 -->
      <g transform="translate(61.895313 162.722854) scale(0.1 -0.1)">
       <use xlink:href="#DejaVuSans-2212"/>
       <use xlink:href="#DejaVuSans-35" x="83.789062"/>
       <use xlink:href="#DejaVuSans-30" x="147.412109"/>
      </g>
     </g>
    </g>
    <g id="ytick_7">
     <g id="line2d_25">
      <path d="M 90 118.083049 
L 648 118.083049 
" clip-path="url(#p29440aacd7)" style="fill: none; stroke: #808080; stroke-opacity: 0.2; stroke-linecap: square"/>
     </g>
     <g id="line2d_26">
      <g>
       <use xlink:href="#m7cff89eb4e" x="90" y="118.083049" style="stroke: #000000; stroke-width: 0.8"/>
      </g>
     </g>
     <g id="text_15">
      <!-- 0 -->
      <g transform="translate(76.6375 121.882267) scale(0.1 -0.1)">
       <use xlink:href="#DejaVuSans-30"/>
      </g>
     </g>
    </g>
    <g id="ytick_8">
     <g id="line2d_27">
      <path d="M 90 77.242462 
L 648 77.242462 
" clip-path="url(#p29440aacd7)" style="fill: none; stroke: #808080; stroke-opacity: 0.2; stroke-linecap: square"/>
     </g>
     <g id="line2d_28">
      <g>
       <use xlink:href="#m7cff89eb4e" x="90" y="77.242462" style="stroke: #000000; stroke-width: 0.8"/>
      </g>
     </g>
     <g id="text_16">
      <!-- 50 -->
      <g transform="translate(70.275 81.041681) scale(0.1 -0.1)">
       <use xlink:href="#DejaVuSans-35"/>
       <use xlink:href="#DejaVuSans-30" x="63.623047"/>
      </g>
     </g>
    </g>
    <g id="text_17">
     <!-- Rewards -->
     <g transform="translate(49.037187 243.630937) rotate(-90) scale(0.12 -0.12)">
      <defs>
       <path id="DejaVuSans-52" d="M 2841 2188 
Q 3044 2119 3236 1894 
Q 3428 1669 3622 1275 
L 4263 0 
L 3584 0 
L 2988 1197 
Q 2756 1666 2539 1819 
Q 2322 1972 1947 1972 
L 1259 1972 
L 1259 0 
L 628 0 
L 628 4666 
L 2053 4666 
Q 2853 4666 3247 4331 
Q 3641 3997 3641 3322 
Q 3641 2881 3436 2590 
Q 3231 2300 2841 2188 
z
M 1259 4147 
L 1259 2491 
L 2053 2491 
Q 2509 2491 2742 2702 
Q 2975 2913 2975 3322 
Q 2975 3731 2742 3939 
Q 2509 4147 2053 4147 
L 1259 4147 
z
" transform="scale(0.015625)"/>
       <path id="DejaVuSans-77" d="M 269 3500 
L 844 3500 
L 1563 769 
L 2278 3500 
L 2956 3500 
L 3675 769 
L 4391 3500 
L 4966 3500 
L 4050 0 
L 3372 0 
L 2619 2869 
L 1863 0 
L 1184 0 
L 269 3500 
z
" transform="scale(0.015625)"/>
       <path id="DejaVuSans-61" d="M 2194 1759 
Q 1497 1759 1228 1600 
Q 959 1441 959 1056 
Q 959 750 1161 570 
Q 1363 391 1709 391 
Q 2188 391 2477 730 
Q 2766 1069 2766 1631 
L 2766 1759 
L 2194 1759 
z
M 3341 1997 
L 3341 0 
L 2766 0 
L 2766 531 
Q 2569 213 2275 61 
Q 1981 -91 1556 -91 
Q 1019 -91 701 211 
Q 384 513 384 1019 
Q 384 1609 779 1909 
Q 1175 2209 1959 2209 
L 2766 2209 
L 2766 2266 
Q 2766 2663 2505 2880 
Q 2244 3097 1772 3097 
Q 1472 3097 1187 3025 
Q 903 2953 641 2809 
L 641 3341 
Q 956 3463 1253 3523 
Q 1550 3584 1831 3584 
Q 2591 3584 2966 3190 
Q 3341 2797 3341 1997 
z
" transform="scale(0.015625)"/>
       <path id="DejaVuSans-72" d="M 2631 2963 
Q 2534 3019 2420 3045 
Q 2306 3072 2169 3072 
Q 1681 3072 1420 2755 
Q 1159 2438 1159 1844 
L 1159 0 
L 581 0 
L 581 3500 
L 1159 3500 
L 1159 2956 
Q 1341 3275 1631 3429 
Q 1922 3584 2338 3584 
Q 2397 3584 2469 3576 
Q 2541 3569 2628 3553 
L 2631 2963 
z
" transform="scale(0.015625)"/>
       <path id="DejaVuSans-64" d="M 2906 2969 
L 2906 4863 
L 3481 4863 
L 3481 0 
L 2906 0 
L 2906 525 
Q 2725 213 2448 61 
Q 2172 -91 1784 -91 
Q 1150 -91 751 415 
Q 353 922 353 1747 
Q 353 2572 751 3078 
Q 1150 3584 1784 3584 
Q 2172 3584 2448 3432 
Q 2725 3281 2906 2969 
z
M 947 1747 
Q 947 1113 1208 752 
Q 1469 391 1925 391 
Q 2381 391 2643 752 
Q 2906 1113 2906 1747 
Q 2906 2381 2643 2742 
Q 2381 3103 1925 3103 
Q 1469 3103 1208 2742 
Q 947 2381 947 1747 
z
" transform="scale(0.015625)"/>
      </defs>
      <use xlink:href="#DejaVuSans-52"/>
      <use xlink:href="#DejaVuSans-65" x="64.982422"/>
      <use xlink:href="#DejaVuSans-77" x="126.505859"/>
      <use xlink:href="#DejaVuSans-61" x="208.292969"/>
      <use xlink:href="#DejaVuSans-72" x="269.572266"/>
      <use xlink:href="#DejaVuSans-64" x="308.935547"/>
      <use xlink:href="#DejaVuSans-73" x="372.412109"/>
     </g>
    </g>
   </g>
   <g id="line2d_29">
    <path d="M 115.363636 368.795488 
L 115.769617 369.28896 
L 115.972607 369.26079 
L 116.581578 368.775353 
L 117.190549 368.409019 
L 117.59653 368.045399 
L 118.408491 366.847151 
L 119.017462 365.516758 
L 121.047364 360.612249 
L 121.656335 359.775152 
L 122.062316 359.482415 
L 123.077267 359.335913 
L 123.686238 359.284154 
L 124.295209 358.999249 
L 125.31016 358.145658 
L 125.919131 357.758646 
L 126.731092 357.521508 
L 128.152024 357.382913 
L 128.760995 357.020394 
L 129.369966 356.390847 
L 130.790898 354.506588 
L 131.399869 354.024296 
L 132.21183 353.854905 
L 133.835752 353.651746 
L 135.053694 353.635941 
L 136.068646 353.394933 
L 136.677617 353.250216 
L 137.083597 353.277797 
L 138.098549 353.495689 
L 139.1135 353.469681 
L 139.722471 353.357327 
L 141.346393 353.288852 
L 141.752374 352.984724 
L 142.564335 351.893067 
L 143.173306 351.168494 
L 143.782277 350.80896 
L 144.797228 350.729043 
L 145.406199 350.749397 
L 147.842082 350.699822 
L 148.451053 350.648279 
L 149.466005 350.523966 
L 150.277966 350.507707 
L 151.495907 350.730474 
L 152.104878 350.920924 
L 153.52581 350.605576 
L 154.946742 349.762925 
L 155.758703 348.30243 
L 156.570665 346.918457 
L 156.976645 346.457902 
L 157.382626 346.432788 
L 157.991597 346.601207 
L 158.803558 346.883842 
L 159.209538 346.929687 
L 160.0215 346.823219 
L 160.833461 346.867709 
L 161.442432 346.736021 
L 162.051402 346.778904 
L 162.660373 346.655871 
L 163.878315 346.91573 
L 164.284296 346.850255 
L 164.690276 346.888269 
L 165.502237 346.780541 
L 166.517189 346.987963 
L 167.32915 346.670359 
L 167.73513 346.252575 
L 169.359053 343.72536 
L 169.765033 343.205833 
L 170.171014 343.095021 
L 170.982975 343.140749 
L 171.997926 343.748785 
L 172.403907 343.792852 
L 173.012878 343.490001 
L 174.43381 342.765713 
L 174.83979 342.838912 
L 175.245771 342.980513 
L 176.057732 343.014818 
L 176.666703 343.005543 
L 177.072684 342.813079 
L 177.681654 342.534192 
L 178.290625 342.52034 
L 178.696606 342.532583 
L 179.305577 342.222099 
L 179.914548 341.720271 
L 181.132489 340.35486 
L 181.53847 340.374582 
L 182.959402 339.764348 
L 183.974353 339.008648 
L 185.395285 338.985558 
L 186.004256 338.710171 
L 186.613227 338.51524 
L 188.034159 338.673852 
L 188.44014 338.779592 
L 188.84612 338.666151 
L 189.252101 338.577166 
L 190.267052 339.177559 
L 190.876023 339.721964 
L 191.282004 340.081613 
L 191.890975 340.11563 
L 192.296955 339.684535 
L 195.138819 336.327637 
L 195.5448 336.344395 
L 195.74779 336.395656 
L 197.168722 335.547236 
L 197.574703 334.360367 
L 197.980683 333.049105 
L 198.792644 331.988155 
L 199.401615 330.443233 
L 199.604605 330.297948 
L 200.416567 330.362004 
L 200.619557 330.243716 
L 201.431518 328.082387 
L 201.837499 326.105906 
L 202.243479 323.23503 
L 202.64946 319.968772 
L 202.85245 319.78124 
L 203.05544 319.840935 
L 203.258431 320.189147 
L 203.664411 321.903124 
L 204.273382 324.708114 
L 204.476372 325.143595 
L 204.679363 324.472646 
L 205.085343 319.658808 
L 205.491324 308.766675 
L 206.709266 271.353312 
L 207.115246 265.53402 
L 207.318236 266.132766 
L 208.333188 278.422717 
L 208.536178 279.329032 
L 208.739168 278.782762 
L 209.145149 275.194653 
L 209.75412 258.997537 
L 210.769071 225.767123 
L 211.378042 212.205818 
L 211.784023 206.652857 
L 211.987013 207.038254 
L 212.798974 214.989992 
L 214.016916 240.318712 
L 214.422896 242.064976 
L 214.625887 242.401932 
L 214.828877 241.446767 
L 215.640838 223.905802 
L 215.843828 222.647696 
L 216.249809 223.37979 
L 216.452799 222.431985 
L 216.85878 218.486091 
L 217.26476 220.184565 
L 217.467751 217.305304 
L 217.873731 203.684302 
L 218.888683 153.790256 
L 219.294663 138.95258 
L 219.700644 133.521474 
L 219.903634 131.915283 
L 220.106624 132.704498 
L 220.309615 135.752089 
L 220.715595 143.984008 
L 221.121576 145.844451 
L 221.527556 149.731748 
L 222.136527 154.346814 
L 222.339518 153.926732 
L 222.542508 152.083477 
L 222.745498 151.805389 
L 223.151479 153.509553 
L 223.354469 152.226763 
L 223.96344 146.999259 
L 224.16643 146.191928 
L 224.36942 146.251046 
L 224.775401 148.147213 
L 224.978391 147.771741 
L 225.181382 147.783961 
L 225.587362 148.281813 
L 225.790353 147.652834 
L 225.993343 147.388765 
L 226.196333 147.784621 
L 226.399323 147.918667 
L 226.805304 146.674609 
L 227.008294 146.803349 
L 227.414275 144.757364 
L 227.617265 145.080827 
L 227.820255 146.442494 
L 228.023246 146.878979 
L 228.429226 141.608261 
L 228.835207 133.369854 
L 230.459129 94.044517 
L 230.86511 90.273463 
L 231.27109 88.215636 
L 231.474081 88.329767 
L 231.880061 92.144491 
L 232.286042 95.990367 
L 232.895013 97.653894 
L 233.300993 98.793724 
L 233.503983 97.951601 
L 234.112954 91.470605 
L 234.518935 89.859362 
L 235.330896 87.532872 
L 235.533886 87.576264 
L 235.939867 88.587145 
L 236.142857 88.316923 
L 236.345847 87.806138 
L 236.751828 88.086383 
L 237.360799 88.671633 
L 237.766779 88.926972 
L 237.96977 89.28162 
L 238.37575 91.905106 
L 238.578741 92.10003 
L 239.390702 92.083915 
L 239.593692 92.832954 
L 240.405653 97.53857 
L 240.811634 104.656963 
L 241.623595 122.482741 
L 242.232566 129.271516 
L 242.435556 129.725436 
L 242.638546 127.677213 
L 243.247517 112.239949 
L 244.059478 92.551298 
L 244.465459 84.490897 
L 244.668449 82.564851 
L 244.871439 81.952067 
L 245.27742 81.760611 
L 245.886391 81.978346 
L 246.089381 82.294961 
L 246.495362 83.40304 
L 246.698352 83.612192 
L 247.307323 83.503684 
L 247.510313 83.287386 
L 247.713304 84.090536 
L 247.916294 86.934083 
L 248.322274 98.415263 
L 248.728255 117.978287 
L 249.337226 161.192921 
L 249.946197 208.296196 
L 250.352177 227.819227 
L 250.758158 237.463808 
L 250.961148 238.941625 
L 251.164138 238.232785 
L 251.367129 235.715516 
L 252.991051 194.151896 
L 253.397032 183.843049 
L 255.832915 141.536186 
L 256.644876 131.993217 
L 256.847866 132.093146 
L 257.050857 131.080792 
L 257.456837 127.249155 
L 258.268798 119.982418 
L 258.471789 119.989907 
L 258.674779 119.795204 
L 259.08076 115.027865 
L 259.28375 114.354438 
L 260.095711 110.336058 
L 260.298701 110.230498 
L 260.704682 107.898852 
L 260.907672 108.022653 
L 261.516643 110.088172 
L 261.719633 111.485756 
L 261.922624 111.979924 
L 262.328604 111.095662 
L 262.531594 111.661374 
L 262.937575 113.562856 
L 263.140565 113.575871 
L 263.952526 109.625515 
L 264.155517 107.810193 
L 264.764488 95.390442 
L 265.373458 84.321426 
L 265.982429 75.986051 
L 266.18542 74.557813 
L 266.38841 74.238557 
L 266.79439 74.487952 
L 267.200371 74.524282 
L 267.403361 74.407561 
L 267.606352 74.726979 
L 269.027284 80.231589 
L 269.839245 86.719717 
L 270.651206 88.887491 
L 271.057187 89.48491 
L 271.260177 88.206314 
L 271.869148 80.955454 
L 272.478119 75.906765 
L 272.884099 75.266539 
L 273.087089 75.06554 
L 273.29008 75.607513 
L 274.305031 82.739597 
L 274.508021 82.713719 
L 275.928953 73.439715 
L 276.334934 71.009167 
L 276.537924 70.544995 
L 277.349885 70.951125 
L 277.552876 70.894189 
L 278.973808 69.721314 
L 279.176798 69.864922 
L 279.582779 71.19862 
L 279.988759 73.362854 
L 281.206701 83.299155 
L 281.612681 83.510144 
L 281.815672 83.472335 
L 282.018662 82.608615 
L 282.627633 78.114214 
L 283.033613 77.367836 
L 283.236604 77.437154 
L 283.642584 78.441278 
L 283.845575 79.398553 
L 284.251555 85.246384 
L 284.657536 90.750872 
L 285.672487 94.478433 
L 285.875477 94.358992 
L 286.281458 89.912342 
L 286.687439 85.33931 
L 287.90538 77.689364 
L 288.311361 76.054419 
L 288.920332 73.767775 
L 289.529303 74.196174 
L 289.732293 74.781357 
L 290.138273 77.24471 
L 290.950235 83.725022 
L 291.559206 83.225048 
L 291.762196 82.185597 
L 292.980138 71.475985 
L 293.386118 70.203739 
L 293.589108 70.232702 
L 293.792099 70.696066 
L 295.213031 76.845397 
L 295.416021 76.947021 
L 297.445924 69.589257 
L 298.054895 69.651693 
L 298.257885 70.345524 
L 300.084798 83.033959 
L 300.287788 83.040998 
L 301.91171 71.539537 
L 302.1147 70.609739 
L 302.317691 70.784022 
L 303.738623 76.780846 
L 303.941613 77.53249 
L 304.144603 77.431114 
L 304.550584 75.520336 
L 304.753574 75.204666 
L 305.159555 75.957267 
L 305.971516 78.152114 
L 306.377496 80.722406 
L 306.580487 82.222495 
L 306.783477 82.431567 
L 308.001419 75.368745 
L 308.81338 70.464132 
L 309.21936 70.227535 
L 310.031322 69.532492 
L 311.046273 69.397326 
L 311.452254 69.656607 
L 311.858234 69.933073 
L 312.873186 70.015791 
L 314.091127 69.187062 
L 314.903089 68.871187 
L 316.527011 68.949185 
L 316.932991 69.077628 
L 317.135982 69.646549 
L 318.962894 79.362763 
L 319.165885 79.384672 
L 321.195787 69.18521 
L 322.007749 69.494332 
L 322.81971 69.705266 
L 323.428681 69.442576 
L 324.849613 69.629484 
L 325.255593 69.827145 
L 325.458583 70.266218 
L 327.285496 77.273452 
L 327.488486 77.220557 
L 329.518389 68.489065 
L 329.92437 68.52695 
L 330.33035 68.770211 
L 331.142311 69.666967 
L 331.345302 69.904159 
L 331.548292 70.567367 
L 332.360253 75.049787 
L 332.766234 80.27098 
L 333.578195 93.309403 
L 334.187166 99.259445 
L 334.390156 101.650152 
L 334.593146 102.6793 
L 334.796137 101.981231 
L 335.405107 97.766381 
L 335.608098 97.454931 
L 336.014078 97.709259 
L 336.217069 96.857613 
L 336.82604 90.706064 
L 337.23202 88.524381 
L 337.638001 83.506827 
L 338.246972 75.492295 
L 338.449962 74.854808 
L 338.855942 74.55989 
L 339.058933 74.918169 
L 339.261923 75.771003 
L 339.667904 78.936852 
L 340.276874 84.181138 
L 340.885845 87.265693 
L 341.088836 87.319107 
L 342.306777 81.655441 
L 342.712758 79.801501 
L 342.915748 79.123404 
L 343.118738 78.935094 
L 344.13369 80.346896 
L 344.33668 80.965212 
L 344.53967 80.860923 
L 346.569573 70.094964 
L 347.178544 70.166901 
L 347.381534 70.779182 
L 348.193496 74.223366 
L 348.396486 75.046187 
L 348.802466 78.161485 
L 349.208447 81.666107 
L 349.411437 82.4047 
L 349.614428 82.350421 
L 349.817418 82.859102 
L 350.426389 85.851826 
L 350.629379 85.868736 
L 351.23835 83.026459 
L 351.44134 82.592947 
L 351.64433 82.592182 
L 351.847321 81.681913 
L 352.659282 74.902653 
L 353.065262 73.290968 
L 353.268253 73.116723 
L 353.674233 73.841323 
L 354.080214 75.614674 
L 354.892175 80.357267 
L 355.095165 82.274114 
L 355.298156 82.993481 
L 355.501146 82.644784 
L 355.704136 82.977378 
L 356.719088 88.673433 
L 356.922078 88.840882 
L 357.125068 88.092039 
L 357.328058 87.940925 
L 357.531049 88.322497 
L 357.734039 87.401678 
L 358.951981 74.754766 
L 359.763942 70.892843 
L 360.372913 70.975688 
L 360.575903 71.075184 
L 360.778893 71.041484 
L 361.590855 70.480169 
L 362.605806 71.077141 
L 363.011787 71.531278 
L 363.620757 72.429466 
L 364.635709 72.222812 
L 365.24468 71.426076 
L 365.65066 70.594896 
L 366.259631 70.10148 
L 366.665612 70.076997 
L 367.274583 70.422044 
L 368.086544 71.511006 
L 368.289534 71.650292 
L 369.304485 71.639806 
L 369.710466 71.283812 
L 371.334388 69.318294 
L 371.740369 69.08685 
L 372.34934 69.054628 
L 375.394194 69.125383 
L 376.206155 69.651485 
L 376.409145 70.215856 
L 377.627087 75.82193 
L 378.236058 78.028284 
L 378.439048 77.894726 
L 379.65699 72.217775 
L 380.265961 70.191153 
L 380.468951 69.951201 
L 380.874932 70.412832 
L 381.686893 71.595587 
L 382.701844 71.908282 
L 382.904835 71.837102 
L 383.513806 71.133274 
L 384.325767 69.996713 
L 384.934738 69.264702 
L 385.543708 68.93154 
L 386.96464 68.917398 
L 387.167631 69.342014 
L 388.994543 77.075849 
L 389.197534 77.076517 
L 390.212485 73.207527 
L 391.227436 69.88089 
L 391.633417 69.980394 
L 393.257339 68.884983 
L 393.46033 68.818991 
L 393.86631 69.01071 
L 395.287242 69.982975 
L 395.490232 69.993334 
L 397.723126 68.78129 
L 398.332096 68.832914 
L 399.956019 69.802604 
L 400.361999 71.23434 
L 401.376951 75.432153 
L 401.985922 78.054266 
L 402.188912 78.060518 
L 403.000873 75.458647 
L 404.015825 72.814549 
L 404.218815 72.719161 
L 404.421805 72.944582 
L 404.827786 72.886856 
L 405.030776 72.717559 
L 406.248718 70.802119 
L 406.451708 70.682974 
L 407.060679 70.93974 
L 408.07563 71.396168 
L 408.481611 71.047498 
L 409.293572 69.831776 
L 409.902543 69.124818 
L 410.105533 69.382009 
L 411.120485 73.549945 
L 411.526465 75.344053 
L 412.135436 79.52192 
L 412.338426 79.610441 
L 412.744407 80.151414 
L 413.556368 81.361846 
L 413.759358 81.092677 
L 413.962349 80.454287 
L 414.165339 80.248422 
L 414.571319 80.703159 
L 414.9773 80.587128 
L 415.383281 80.739764 
L 415.789261 81.300133 
L 416.195242 82.101629 
L 416.398232 82.614674 
L 416.601222 83.594933 
L 417.413183 92.646131 
L 417.819164 96.843736 
L 418.428135 100.409876 
L 418.631125 101.130413 
L 418.834115 100.034817 
L 420.052057 89.051089 
L 420.255047 89.106537 
L 420.458038 88.459372 
L 420.661028 87.415502 
L 420.864018 87.35065 
L 421.472989 88.796546 
L 421.87897 89.721668 
L 422.08196 88.627657 
L 422.487941 84.296886 
L 423.299902 77.694585 
L 423.908873 72.494609 
L 424.111863 71.599736 
L 424.720834 70.982054 
L 425.938776 71.552327 
L 426.141766 72.173821 
L 427.156717 77.780322 
L 427.968678 81.817947 
L 428.171669 81.846185 
L 428.98363 76.761266 
L 430.201572 70.20182 
L 430.607552 70.094858 
L 430.810542 70.226677 
L 431.216523 70.64372 
L 431.825494 70.689317 
L 432.028484 70.731473 
L 432.231474 71.279842 
L 433.043436 75.056102 
L 434.058387 79.550273 
L 434.261377 79.533379 
L 435.479319 73.682692 
L 436.29128 70.160677 
L 438.118193 69.107584 
L 438.727164 69.047453 
L 438.930154 69.497832 
L 440.351086 76.437653 
L 440.757066 78.652343 
L 440.960057 78.809616 
L 441.975008 74.419758 
L 442.98996 69.401125 
L 443.801921 68.782388 
L 445.019862 68.665769 
L 446.034814 68.746513 
L 447.049765 68.907858 
L 447.252756 69.385511 
L 448.673688 75.904636 
L 449.282659 80.170279 
L 450.29761 79.986526 
L 450.5006 79.978666 
L 450.703591 79.120489 
L 451.312561 74.391866 
L 452.733493 68.886317 
L 454.966387 68.606548 
L 455.169377 69.097392 
L 456.996289 77.94456 
L 457.19928 77.960307 
L 459.026192 69.453182 
L 459.229183 69.091929 
L 459.838153 69.586607 
L 461.056095 70.697297 
L 461.462076 70.613039 
L 461.665066 70.456743 
L 461.868056 70.758995 
L 463.694969 78.067584 
L 463.897959 78.032456 
L 464.100949 77.450013 
L 464.70992 77.139896 
L 464.912911 77.535665 
L 465.724872 80.854663 
L 466.333843 84.50585 
L 466.739823 86.180728 
L 466.942813 86.115379 
L 468.160755 80.106865 
L 468.972716 73.538252 
L 469.378697 72.289736 
L 469.987668 72.611451 
L 470.190658 73.253633 
L 471.20561 78.630242 
L 471.4086 78.758673 
L 473.438503 70.877819 
L 473.641493 71.017666 
L 473.844483 71.009925 
L 474.453454 70.665532 
L 474.859435 70.469034 
L 475.062425 70.862654 
L 477.092328 79.871735 
L 478.107279 79.382952 
L 478.91924 78.378007 
L 479.122231 77.766897 
L 480.949143 69.393284 
L 481.152134 68.893053 
L 481.355124 68.828552 
L 481.558114 69.198712 
L 482.573066 73.342715 
L 482.776056 74.650686 
L 484.602968 93.714871 
L 484.805959 94.795126 
L 485.008949 94.14355 
L 485.61792 88.966293 
L 487.038852 72.024032 
L 487.647823 69.477046 
L 488.256794 69.184453 
L 488.865764 68.897274 
L 489.880716 68.721392 
L 490.692677 68.999174 
L 491.910619 69.515843 
L 493.737531 70.578344 
L 493.940522 70.590286 
L 494.955473 69.926809 
L 495.564444 69.382411 
L 495.970425 69.347536 
L 497.594347 70.436982 
L 498.000327 70.228599 
L 499.62425 68.754633 
L 500.233221 68.674379 
L 502.872094 68.693251 
L 503.075085 69.123211 
L 503.684055 72.148922 
L 505.104987 83.635423 
L 505.510968 83.711469 
L 505.713958 82.882761 
L 506.9319 72.775059 
L 507.13489 72.310355 
L 507.540871 72.243522 
L 507.743861 73.075854 
L 508.961803 82.584422 
L 509.570774 82.582339 
L 509.773764 81.716113 
L 510.991706 71.758262 
L 511.803667 68.739918 
L 513.63058 68.768526 
L 513.83357 69.227129 
L 515.863473 77.957465 
L 517.284405 71.889892 
L 517.893376 69.424258 
L 518.299356 69.212499 
L 518.502346 69.568518 
L 519.314308 73.064003 
L 519.517298 74.415793 
L 520.126269 81.977606 
L 520.532249 86.828603 
L 521.547201 95.431908 
L 521.750191 95.765822 
L 522.562152 95.552348 
L 523.171123 95.740358 
L 523.577104 93.73734 
L 523.983084 90.706795 
L 524.592055 84.96089 
L 525.201026 78.332381 
L 525.607006 76.3274 
L 525.809997 76.05803 
L 526.418968 76.756196 
L 526.621958 77.414085 
L 526.824948 78.505351 
L 527.027938 78.726211 
L 527.636909 76.174349 
L 529.057841 69.938229 
L 529.463822 70.124176 
L 529.666812 70.85717 
L 531.087744 79.746515 
L 531.493725 81.9167 
L 531.696715 81.729254 
L 531.899705 80.920489 
L 532.305686 80.637591 
L 532.508676 80.98515 
L 533.523628 85.062677 
L 533.929608 87.932373 
L 534.335589 89.030436 
L 534.538579 88.790434 
L 534.94456 87.177842 
L 535.756521 86.577098 
L 535.959511 86.104495 
L 536.568482 84.013011 
L 536.771472 84.255865 
L 536.974463 84.133982 
L 537.177453 83.645403 
L 537.786424 83.553506 
L 537.989414 84.024684 
L 538.598385 86.918476 
L 538.801375 87.037293 
L 539.004365 86.601026 
L 539.207356 85.611945 
L 540.222307 76.306599 
L 540.628288 74.788605 
L 540.831278 74.51973 
L 541.034268 74.742922 
L 541.237259 75.457216 
L 541.643239 78.315624 
L 542.04922 82.57772 
L 542.25221 83.471591 
L 543.470152 81.343613 
L 543.673142 80.117595 
L 544.282113 74.387879 
L 545.703045 68.598454 
L 547.123977 68.391773 
L 548.544909 68.493281 
L 549.15388 68.835081 
L 549.35687 69.610887 
L 551.183783 82.016582 
L 551.386773 81.988416 
L 553.213685 69.737079 
L 553.416676 69.503379 
L 555.040598 76.99308 
L 555.243588 77.920761 
L 555.446579 77.890939 
L 556.055549 75.310386 
L 557.273491 74.430166 
L 557.476482 74.802469 
L 557.882462 76.51551 
L 558.085452 76.519806 
L 560.115355 68.29119 
L 561.333297 68.315305 
L 562.957219 68.522771 
L 563.56619 68.948702 
L 565.190112 70.051321 
L 566.408054 69.457561 
L 568.031976 68.511234 
L 568.437957 68.614458 
L 569.046928 68.990507 
L 569.858889 69.867917 
L 570.061879 70.060785 
L 570.26487 70.088177 
L 571.076831 69.560282 
L 571.888792 68.750667 
L 572.091782 69.001667 
L 573.309724 74.022456 
L 573.918695 76.601008 
L 574.121685 76.61144 
L 575.948598 68.913991 
L 576.151588 68.48344 
L 577.77551 68.713324 
L 578.384481 68.584824 
L 579.196442 68.630606 
L 579.399433 69.098084 
L 581.023355 75.867461 
L 581.226345 76.577384 
L 581.429335 76.413114 
L 582.444287 71.628348 
L 583.256248 68.842571 
L 583.459238 68.618724 
L 584.068209 69.193371 
L 584.271199 69.713901 
L 585.286151 74.49672 
L 585.895122 80.798155 
L 587.722034 104.383972 
L 587.925025 104.978369 
L 588.128015 104.758804 
L 588.331005 104.162823 
L 588.533995 102.615411 
L 588.939976 96.032554 
L 589.548947 86.351883 
L 590.157918 79.675759 
L 590.360908 78.797853 
L 590.766889 78.189907 
L 590.969879 78.526532 
L 591.375859 80.806818 
L 592.187821 86.349334 
L 592.390811 86.700781 
L 592.593801 86.585305 
L 592.796791 86.734006 
L 592.999782 86.586721 
L 593.202772 85.414714 
L 594.014733 77.419329 
L 594.217723 76.65122 
L 594.420714 76.329108 
L 594.623704 77.06733 
L 594.826694 78.931565 
L 595.232675 86.176255 
L 596.653607 116.543094 
L 596.856597 119.307243 
L 597.871549 124.589312 
L 598.074539 124.811527 
L 598.480519 123.181288 
L 598.8865 118.330219 
L 599.292481 113.032018 
L 599.901451 103.308469 
L 600.307432 101.04395 
L 600.510422 100.263983 
L 600.713413 100.225767 
L 600.916403 100.461799 
L 601.119393 100.091758 
L 601.322383 100.897914 
L 601.728364 103.446519 
L 601.931354 103.324541 
L 602.540325 99.891385 
L 602.743316 99.600559 
L 602.946306 100.279609 
L 603.352286 104.542631 
L 603.758267 104.601764 
L 603.961257 106.004915 
L 604.976209 118.016065 
L 605.382189 116.151718 
L 605.58518 116.612729 
L 605.78817 116.30382 
L 606.19415 112.141202 
L 606.600131 104.875889 
L 607.209102 92.479282 
L 608.224053 77.47806 
L 608.630034 74.526558 
L 609.441995 72.283542 
L 609.847976 71.945474 
L 610.862927 71.117202 
L 611.268908 71.095399 
L 611.674888 70.770391 
L 612.486849 70.485769 
L 612.68984 70.347515 
L 613.09582 69.63829 
L 613.29881 69.90905 
L 614.719742 77.27137 
L 615.328713 81.911519 
L 616.140674 80.309234 
L 616.749645 79.308057 
L 616.952636 78.046196 
L 617.358616 74.468427 
L 618.170577 71.615494 
L 618.373568 71.291209 
L 618.576558 71.902557 
L 618.982538 74.69305 
L 620.40347 93.079661 
L 620.606461 93.538236 
L 621.012441 93.192925 
L 621.215432 92.053431 
L 622.230383 82.976397 
L 622.636364 80.315044 
L 622.636364 80.315044 
" clip-path="url(#p29440aacd7)" style="fill: none; stroke: #ff0000; stroke-width: 1.5; stroke-linecap: square"/>
   </g>
   <g id="line2d_30">
    <path d="M 115.363636 368.795488 
L 115.769617 369.36 
L 115.972607 369.302707 
L 116.175598 368.854879 
L 116.581578 367.733814 
L 116.987559 367.563672 
L 118.00251 363.915637 
L 118.611481 362.562833 
L 119.017462 361.035395 
L 119.423442 360.764096 
L 119.626432 360.345289 
L 120.032413 358.996933 
L 120.235403 358.726132 
L 120.844374 359.495061 
L 121.250355 359.26864 
L 122.265306 359.572113 
L 122.468296 359.667299 
L 122.874277 359.254664 
L 123.077267 358.994019 
L 123.280258 358.924509 
L 123.889228 357.485368 
L 124.092219 357.443348 
L 124.498199 357.70686 
L 125.10717 356.960276 
L 125.716141 357.899655 
L 126.122122 358.100019 
L 126.528102 357.48388 
L 126.934083 356.886509 
L 127.137073 356.980624 
L 127.543054 357.421221 
L 127.746044 357.39079 
L 127.949034 357.085938 
L 128.760995 354.531604 
L 128.963986 354.331485 
L 129.166976 354.334426 
L 129.572956 353.414823 
L 129.775947 353.320282 
L 130.587908 354.521712 
L 130.993888 354.081196 
L 131.196879 353.445925 
L 131.399869 353.381715 
L 132.00884 353.556894 
L 132.21183 353.301613 
L 132.820801 354.144218 
L 133.023791 353.990512 
L 133.226782 353.518304 
L 133.429772 353.378747 
L 133.632762 353.452551 
L 133.835752 353.879916 
L 134.241733 354.087731 
L 135.256684 352.330542 
L 135.459675 352.566709 
L 136.068646 353.791037 
L 136.474626 353.87103 
L 136.880607 353.463668 
L 137.083597 353.615142 
L 137.286587 354.03727 
L 137.489578 354.077266 
L 137.895558 353.06 
L 138.098549 352.835821 
L 138.301539 353.121869 
L 138.504529 353.024578 
L 138.707519 353.202316 
L 138.91051 353.074367 
L 139.31649 353.302384 
L 139.722471 354.233613 
L 139.925461 354.339672 
L 140.128451 354.219255 
L 140.534432 353.450754 
L 141.346393 350.124424 
L 141.549383 350.735771 
L 141.955364 351.093816 
L 142.158354 350.539882 
L 142.361345 350.766002 
L 142.564335 350.734301 
L 143.173306 350.138818 
L 143.579286 351.569083 
L 143.782277 351.768149 
L 143.985267 351.352646 
L 144.391247 349.901688 
L 144.594238 349.582415 
L 145.000218 350.686499 
L 145.406199 351.256416 
L 145.609189 351.358781 
L 145.812179 351.305615 
L 146.21816 350.231635 
L 146.42115 350.348031 
L 146.624141 350.893743 
L 146.827131 350.990145 
L 147.233111 350.262393 
L 147.639092 350.696219 
L 147.842082 350.587711 
L 148.045073 350.25692 
L 148.248063 350.211351 
L 148.654043 350.84605 
L 149.060024 350.880946 
L 149.263014 350.414111 
L 149.466005 350.253281 
L 149.668995 349.599196 
L 150.074975 350.24396 
L 150.277966 351.469413 
L 150.683946 351.986237 
L 150.886937 351.405666 
L 151.089927 351.319755 
L 151.292917 350.813831 
L 151.901888 350.591277 
L 152.510859 349.282935 
L 152.713849 349.437331 
L 153.32282 352.215072 
L 153.52581 351.771879 
L 154.134781 347.596845 
L 154.540762 346.960368 
L 154.743752 347.18431 
L 154.946742 346.907738 
L 155.352723 345.624227 
L 155.555713 345.691804 
L 155.758703 345.907524 
L 155.961694 345.880606 
L 156.164684 345.408589 
L 156.570665 346.713745 
L 156.773655 347.55046 
L 157.179635 347.713468 
L 157.382626 348.11808 
L 157.585616 347.891143 
L 157.788606 347.107602 
L 157.991597 345.744552 
L 158.194587 345.235297 
L 158.397577 345.651136 
L 159.006548 347.675259 
L 159.209538 347.828012 
L 159.412529 347.694618 
L 159.615519 346.511965 
L 159.818509 346.302997 
L 160.0215 346.412042 
L 160.22449 347.471547 
L 160.42748 347.465484 
L 160.63047 346.902011 
L 160.833461 345.803617 
L 161.036451 345.366241 
L 161.239441 345.518386 
L 162.051402 348.42875 
L 162.254393 347.851836 
L 162.660373 346.099956 
L 162.863364 346.43582 
L 163.066354 347.190418 
L 163.269344 347.280031 
L 163.472334 346.846286 
L 163.675325 346.127374 
L 163.878315 346.098304 
L 164.284296 346.551263 
L 164.690276 347.219742 
L 164.893266 347.428491 
L 165.502237 347.627385 
L 165.705228 347.353653 
L 165.908218 347.811785 
L 166.314198 346.454325 
L 166.517189 344.309033 
L 166.720179 343.699455 
L 166.923169 344.298405 
L 167.12616 345.900337 
L 167.32915 346.021352 
L 167.53214 345.465411 
L 167.938121 342.966703 
L 168.141111 341.68508 
L 168.344101 341.63353 
L 168.547092 342.075579 
L 168.750082 343.031503 
L 168.953072 343.339287 
L 169.359053 342.575287 
L 169.562043 342.543494 
L 169.765033 342.909145 
L 170.374004 344.606434 
L 170.576994 344.672414 
L 170.779985 344.416789 
L 170.982975 344.353204 
L 171.591946 342.647701 
L 171.794936 342.973745 
L 172.200917 344.307327 
L 172.403907 343.906817 
L 172.809888 340.918547 
L 173.012878 340.742461 
L 173.621849 344.266023 
L 174.027829 342.825004 
L 174.23082 342.611381 
L 174.43381 343.039944 
L 174.6368 342.780542 
L 175.042781 343.194403 
L 175.245771 343.920648 
L 175.448761 344.048579 
L 176.057732 341.716699 
L 176.463713 341.833168 
L 176.869693 342.396559 
L 177.072684 342.442282 
L 177.275674 342.172371 
L 177.681654 342.687952 
L 177.884645 343.477228 
L 178.087635 343.766625 
L 178.290625 343.692195 
L 178.696606 341.980221 
L 179.305577 336.514298 
L 179.508567 337.399559 
L 179.914548 342.433406 
L 180.117538 342.79843 
L 180.523518 340.82318 
L 180.929499 338.967729 
L 181.132489 339.12688 
L 181.33548 340.150654 
L 181.53847 340.355592 
L 181.74146 340.382456 
L 181.944451 339.016456 
L 182.147441 338.728312 
L 182.350431 337.73869 
L 182.553421 338.254489 
L 182.756412 338.195969 
L 182.959402 338.881419 
L 183.162392 338.603267 
L 183.771363 340.436601 
L 183.974353 340.232589 
L 184.583324 338.097434 
L 184.786315 338.048897 
L 184.989305 337.472028 
L 185.192295 337.462535 
L 185.598276 338.770541 
L 185.801266 338.739493 
L 186.004256 337.767714 
L 186.207247 337.886342 
L 186.613227 340.354421 
L 186.816217 340.876291 
L 187.425188 336.830804 
L 187.628179 336.874667 
L 187.831169 337.343598 
L 188.44014 340.368987 
L 188.64313 340.321331 
L 189.049111 337.56725 
L 189.252101 337.623955 
L 189.658081 340.290546 
L 189.861072 340.627399 
L 190.064062 341.487248 
L 190.470043 344.053253 
L 191.079013 336.928613 
L 191.282004 337.490688 
L 191.484994 337.371987 
L 191.687984 337.694165 
L 191.890975 337.727699 
L 192.093965 338.74306 
L 192.296955 338.941182 
L 192.499945 339.783206 
L 193.108916 335.915839 
L 193.717887 335.656201 
L 193.920877 337.055754 
L 194.123868 336.960005 
L 194.326858 335.583224 
L 194.529848 333.009713 
L 194.732839 332.604983 
L 195.138819 337.06374 
L 195.5448 342.948824 
L 195.74779 341.984169 
L 195.95078 338.143711 
L 196.356761 325.670551 
L 196.559751 323.510029 
L 197.168722 338.15845 
L 197.371712 337.97729 
L 197.574703 331.888376 
L 197.980683 327.256708 
L 198.183673 330.944831 
L 198.386664 329.695445 
L 198.589654 329.650747 
L 198.792644 325.409235 
L 198.995635 328.014619 
L 199.198625 327.822251 
L 199.401615 330.823362 
L 199.604605 329.245464 
L 200.213576 338.418768 
L 200.416567 338.769325 
L 201.025537 302.347672 
L 201.228528 305.009398 
L 201.634508 317.984244 
L 201.837499 321.468 
L 202.040489 321.517826 
L 202.243479 323.110681 
L 202.64946 317.803528 
L 203.461421 340.709906 
L 203.664411 340.324716 
L 204.070392 326.168198 
L 204.679363 266.440038 
L 204.882353 263.164468 
L 205.085343 262.465296 
L 205.694314 222.059371 
L 205.897304 254.606686 
L 206.303285 280.049392 
L 206.506275 270.748257 
L 206.709266 295.661087 
L 207.115246 311.311645 
L 207.318236 297.450558 
L 207.521227 293.006277 
L 207.927207 270.926476 
L 208.739168 235.111559 
L 208.942159 239.970682 
L 209.145149 233.202226 
L 209.348139 220.380196 
L 209.55113 215.926984 
L 209.75412 200.891123 
L 209.95711 199.691562 
L 210.1601 170.092211 
L 210.363091 191.798774 
L 210.566081 195.474227 
L 210.769071 236.019772 
L 210.972062 216.043289 
L 211.175052 210.341045 
L 211.378042 194.783232 
L 211.784023 216.920436 
L 211.987013 221.096667 
L 212.595984 261.904908 
L 212.798974 269.501975 
L 213.001964 268.051979 
L 213.204955 272.373322 
L 213.407945 267.65048 
L 214.016916 180.109554 
L 214.219906 191.026242 
L 214.422896 208.842903 
L 214.625887 243.040106 
L 214.828877 234.274672 
L 215.234858 164.882413 
L 215.437848 183.520895 
L 215.843828 292.747329 
L 216.046819 299.074299 
L 216.452799 229.926085 
L 216.85878 142.9073 
L 217.06177 119.996103 
L 217.26476 116.836322 
L 218.076722 140.588717 
L 218.482702 96.876175 
L 218.685692 96.12498 
L 219.091673 169.824142 
L 219.294663 176.954273 
L 219.700644 157.63595 
L 219.903634 156.206693 
L 220.106624 139.951585 
L 220.309615 144.996342 
L 220.512605 140.09352 
L 220.715595 149.255688 
L 220.918586 131.343007 
L 221.121576 135.032899 
L 221.527556 192.746593 
L 221.730547 207.499057 
L 222.136527 141.482018 
L 222.339518 113.216221 
L 222.542508 108.249071 
L 222.948488 130.371446 
L 223.151479 156.943856 
L 223.354469 168.551722 
L 223.557459 170.062533 
L 223.76045 165.614458 
L 223.96344 144.676923 
L 224.16643 147.441931 
L 224.36942 130.672187 
L 224.572411 151.939478 
L 224.775401 145.116767 
L 224.978391 159.46804 
L 225.181382 149.016063 
L 225.384372 152.749982 
L 225.587362 141.089522 
L 225.790353 118.271269 
L 225.993343 115.739434 
L 226.196333 137.299371 
L 226.399323 173.051946 
L 226.602314 183.118334 
L 227.008294 158.979079 
L 227.414275 124.445458 
L 227.617265 111.125846 
L 227.820255 126.587574 
L 228.023246 120.894914 
L 228.226236 119.682756 
L 228.429226 97.715675 
L 229.038197 80.592588 
L 229.444178 83.021051 
L 229.647168 82.628963 
L 230.053149 76.135355 
L 230.662119 111.476294 
L 231.27109 83.287649 
L 231.880061 129.97502 
L 232.489032 77.65556 
L 232.895013 78.526916 
L 233.503983 86.070754 
L 233.909964 86.894027 
L 234.518935 103.209551 
L 235.127906 79.119187 
L 235.330896 80.656426 
L 235.533886 83.369258 
L 235.736877 82.719738 
L 235.939867 81.612123 
L 236.142857 79.552614 
L 236.751828 114.300956 
L 237.563789 77.780096 
L 237.766779 76.791963 
L 237.96977 78.951559 
L 238.578741 121.712633 
L 239.187711 76.340493 
L 239.390702 78.768684 
L 240.405653 145.970263 
L 240.811634 178.299508 
L 241.014624 177.845932 
L 241.826585 78.658804 
L 242.435556 102.765687 
L 242.841537 78.387024 
L 243.044527 72.443865 
L 243.450507 78.887602 
L 243.653498 77.418167 
L 244.059478 79.043259 
L 244.465459 84.40826 
L 244.668449 85.781375 
L 244.871439 86.210238 
L 245.07443 85.773171 
L 245.27742 85.993265 
L 245.48041 84.996165 
L 245.683401 84.641242 
L 246.089381 80.151936 
L 246.292371 79.404871 
L 246.495362 82.86847 
L 246.698352 84.300069 
L 246.901342 84.126733 
L 247.104333 80.981862 
L 247.307323 82.292328 
L 247.510313 82.727716 
L 247.713304 108.253945 
L 247.916294 148.033883 
L 248.322274 251.135563 
L 248.525265 279.009981 
L 248.931245 284.894229 
L 249.134236 276.036949 
L 249.743206 219.484662 
L 249.946197 212.711977 
L 250.149187 198.256687 
L 250.352177 202.836914 
L 250.555168 215.402255 
L 250.961148 245.950715 
L 251.164138 242.138845 
L 251.9761 137.943 
L 252.17909 137.614496 
L 252.58507 184.576815 
L 252.788061 203.950573 
L 252.991051 194.627339 
L 253.397032 163.732433 
L 253.600022 162.07318 
L 254.208993 102.8879 
L 254.411983 118.005597 
L 254.614973 122.605309 
L 254.817964 136.837237 
L 255.020954 136.586875 
L 255.223944 157.133683 
L 255.426934 157.058355 
L 255.629925 156.682413 
L 256.238896 100.081398 
L 256.441886 85.363585 
L 256.644876 85.425255 
L 257.050857 146.575429 
L 257.253847 146.958169 
L 257.659828 107.89442 
L 257.862818 114.853048 
L 258.065808 115.71895 
L 258.268798 115.18746 
L 258.471789 103.476222 
L 259.28375 100.930737 
L 259.48674 100.911306 
L 259.68973 92.942219 
L 259.892721 103.692786 
L 260.298701 151.419649 
L 260.501692 140.577753 
L 260.907672 82.749633 
L 261.110662 88.779846 
L 261.516643 120.023367 
L 261.922624 99.842907 
L 262.125614 107.694764 
L 262.328604 140.398091 
L 262.531594 154.73812 
L 262.734585 140.151895 
L 263.140565 82.63695 
L 263.343556 74.016264 
L 263.546546 74.622819 
L 263.952526 74.356739 
L 264.561497 72.770318 
L 264.967478 73.387237 
L 265.373458 75.295201 
L 265.576449 76.252032 
L 265.779439 76.524176 
L 265.982429 75.912629 
L 266.38841 73.231517 
L 266.79439 73.76593 
L 266.997381 73.952344 
L 267.403361 70.915102 
L 268.012332 105.073379 
L 268.621303 74.026374 
L 268.824293 74.85454 
L 269.027284 74.795521 
L 269.636255 122.46783 
L 270.245225 72.242276 
L 270.651206 70.170751 
L 270.854196 69.178243 
L 271.666157 68.07581 
L 271.869148 68.041477 
L 272.275128 69.193045 
L 272.884099 118.330606 
L 273.49307 68.050661 
L 273.899051 68.342526 
L 274.102041 68.712379 
L 274.508021 68.459312 
L 275.116992 73.296535 
L 275.319983 71.314995 
L 275.522973 71.319161 
L 275.725963 71.471887 
L 275.928953 73.330678 
L 276.537924 68.029806 
L 276.740915 68.352346 
L 277.349885 72.40602 
L 277.958856 68.266763 
L 278.161847 68.451099 
L 278.364837 68.286221 
L 278.567827 67.637681 
L 278.770817 67.446085 
L 278.973808 67.44721 
L 279.582779 99.352194 
L 279.785769 90.752237 
L 279.988759 91.998774 
L 280.191749 90.445443 
L 280.39474 98.756784 
L 281.003711 68.024451 
L 281.409691 68.808363 
L 281.815672 70.292764 
L 282.018662 71.200923 
L 282.221652 71.284682 
L 282.424643 71.173669 
L 283.033613 113.207835 
L 283.642584 69.653137 
L 283.845575 79.106272 
L 284.251555 126.81109 
L 284.454545 130.902446 
L 285.063516 69.189025 
L 285.266507 69.470807 
L 285.469497 70.064311 
L 285.672487 69.80805 
L 285.875477 69.255386 
L 286.484448 97.551043 
L 287.093419 68.406701 
L 287.296409 68.087246 
L 287.4994 68.06511 
L 287.90538 68.525973 
L 288.108371 68.540694 
L 288.311361 68.384565 
L 288.717341 68.747865 
L 289.326312 102.125633 
L 289.529303 90.97824 
L 289.935283 87.801587 
L 290.138273 97.09734 
L 290.747244 68.384456 
L 290.950235 68.674352 
L 291.153225 68.646072 
L 291.559206 68.143805 
L 291.965186 68.378412 
L 292.168176 68.80388 
L 292.574157 68.878763 
L 292.980138 68.417927 
L 293.183128 68.255872 
L 293.792099 97.382807 
L 294.40107 68.332761 
L 294.80705 68.35987 
L 295.416021 72.217545 
L 296.024992 68.41044 
L 296.430972 68.643776 
L 296.836953 68.464703 
L 297.445924 72.291593 
L 298.054895 68.762586 
L 298.663866 116.770768 
L 299.272836 69.449824 
L 299.475827 68.289216 
L 299.881807 68.717516 
L 300.287788 69.004843 
L 300.490778 69.10325 
L 300.896759 68.686032 
L 301.302739 70.962849 
L 301.50573 72.275493 
L 301.91171 70.03653 
L 302.520681 97.4081 
L 303.129652 68.845102 
L 304.550584 68.808136 
L 305.159555 113.010239 
L 305.768526 71.108124 
L 306.174506 71.126656 
L 306.377496 72.331899 
L 306.986467 68.785983 
L 307.595438 72.290277 
L 308.204409 68.867346 
L 308.81338 69.184514 
L 309.01637 69.078791 
L 309.422351 68.466301 
L 309.625341 68.179164 
L 310.234312 71.309141 
L 310.640292 69.525352 
L 310.843283 69.878024 
L 311.249263 72.102266 
L 311.858234 68.738608 
L 312.061224 68.882176 
L 314.903089 68.815642 
L 315.512059 68.336718 
L 315.91804 68.599586 
L 316.527011 71.760076 
L 316.932991 69.716358 
L 317.541962 103.796185 
L 318.353923 68.066716 
L 318.962894 69.594345 
L 319.571865 68.764265 
L 320.383826 68.837687 
L 320.586817 68.837687 
L 321.195787 72.179609 
L 321.804758 68.436641 
L 322.413729 68.882176 
L 323.22569 68.859931 
L 323.834661 72.381987 
L 324.443632 68.927473 
L 324.646622 68.957241 
L 324.849613 68.807065 
L 325.255593 68.167792 
L 325.864564 99.033728 
L 326.473535 68.392352 
L 327.285496 68.859931 
L 327.691477 68.56027 
L 327.894467 68.137035 
L 328.300447 67.889886 
L 328.706428 68.586526 
L 328.909418 68.867346 
L 329.92437 68.941848 
L 330.33035 71.155581 
L 330.533341 73.248044 
L 330.939321 73.088484 
L 331.345302 69.991887 
L 331.954273 97.852047 
L 332.157263 88.235504 
L 332.360253 89.497696 
L 332.563243 100.945921 
L 332.766234 131.616902 
L 332.969224 140.507843 
L 333.172214 129.041431 
L 333.578195 80.754153 
L 333.781185 72.243674 
L 333.984175 71.155581 
L 334.187166 80.956251 
L 334.593146 123.405784 
L 334.796137 123.568339 
L 335.202117 80.855411 
L 335.405107 80.986137 
L 335.811088 102.110095 
L 336.420059 69.090617 
L 336.82604 68.949372 
L 337.43501 69.002093 
L 337.840991 68.942202 
L 338.043981 69.111999 
L 338.652952 98.08217 
L 338.855942 88.240451 
L 339.261923 90.404593 
L 339.464913 101.153563 
L 340.073884 70.683808 
L 340.682855 98.66521 
L 341.291826 69.813196 
L 341.697806 71.889695 
L 342.103787 69.776766 
L 342.306777 70.483889 
L 342.915748 105.547793 
L 343.524719 72.006644 
L 343.727709 73.657257 
L 344.33668 68.756623 
L 345.351632 68.742338 
L 345.960602 73.738739 
L 346.569573 68.838014 
L 346.975554 68.830689 
L 347.178544 69.918773 
L 347.787515 99.915622 
L 348.396486 68.867564 
L 349.005457 101.556569 
L 349.614428 68.867346 
L 350.223398 101.534189 
L 350.832369 68.867918 
L 351.44134 68.889827 
L 351.64433 68.852634 
L 352.253301 73.61894 
L 352.862272 68.867346 
L 353.065262 70.327669 
L 353.674233 107.405304 
L 354.283204 68.987136 
L 354.689185 68.987245 
L 355.298156 101.68332 
L 355.501146 90.77951 
L 355.907126 99.326537 
L 356.110117 114.488805 
L 356.719088 68.964674 
L 357.531049 68.949499 
L 358.14002 73.134452 
L 358.546 70.362357 
L 358.748991 70.470993 
L 359.154971 73.415535 
L 359.763942 69.039966 
L 360.169923 69.024655 
L 360.778893 71.913573 
L 361.387864 69.001966 
L 361.996835 76.2601 
L 362.402816 71.416661 
L 362.605806 70.448748 
L 363.011787 73.371065 
L 363.620757 73.476306 
L 364.229728 68.957032 
L 365.041689 68.867464 
L 365.44767 68.8677 
L 366.259631 72.398977 
L 366.665612 73.671315 
L 367.274583 68.942202 
L 367.680563 71.894269 
L 367.883553 74.346156 
L 368.289534 73.33026 
L 368.492524 70.900844 
L 368.898505 69.017013 
L 370.522427 69.032596 
L 374.785223 69.093285 
L 375.191204 68.994914 
L 375.800175 73.445748 
L 376.206155 70.576897 
L 376.815126 97.949756 
L 377.424097 69.108324 
L 378.439048 68.987027 
L 379.251009 68.874761 
L 379.454 69.770404 
L 379.85998 74.373084 
L 380.062971 74.916563 
L 380.671942 68.956796 
L 381.280912 73.286098 
L 381.889883 73.461331 
L 382.498854 68.927373 
L 383.513806 68.911953 
L 384.731747 68.942202 
L 386.35567 68.897241 
L 386.96464 68.837805 
L 387.573611 97.682449 
L 388.182582 68.83049 
L 389.197534 68.919604 
L 389.400524 68.867682 
L 390.009495 73.088312 
L 390.618466 68.53416 
L 390.821456 68.389484 
L 391.633417 68.919595 
L 392.242388 68.441097 
L 393.257339 68.837687 
L 393.86631 72.985538 
L 394.475281 68.845555 
L 395.287242 68.815542 
L 398.129106 68.830617 
L 398.738077 72.666973 
L 399.347048 68.882648 
L 399.956019 68.852752 
L 400.56499 97.793808 
L 401.17396 72.794078 
L 401.782931 68.934307 
L 402.188912 68.882176 
L 402.391902 70.123884 
L 403.000873 77.763079 
L 403.406854 77.786377 
L 403.812834 71.441029 
L 404.015825 68.897006 
L 404.827786 68.927709 
L 405.436757 72.605249 
L 405.842737 69.784444 
L 406.045727 69.928539 
L 406.248718 71.337231 
L 406.451708 74.072896 
L 406.857689 74.068513 
L 407.263669 70.062315 
L 407.466659 68.74222 
L 408.684601 68.771253 
L 409.902543 68.808127 
L 410.511514 97.672911 
L 411.120485 68.779094 
L 411.323475 68.771679 
L 411.526465 70.053103 
L 412.135436 99.32288 
L 412.541417 80.83126 
L 412.744407 74.219886 
L 412.947397 76.918287 
L 413.556368 68.764564 
L 414.165339 100.068148 
L 414.77431 74.258458 
L 414.9773 74.141472 
L 415.586271 74.77127 
L 416.195242 109.267753 
L 416.398232 100.601789 
L 416.601222 102.400535 
L 416.804213 109.323886 
L 417.007203 125.630226 
L 417.210193 123.140956 
L 417.819164 82.694426 
L 418.225145 75.657793 
L 418.834115 101.052433 
L 419.240096 82.212099 
L 419.443086 73.906548 
L 419.646077 76.705816 
L 419.849067 77.331449 
L 420.458038 119.561714 
L 421.067009 72.872628 
L 421.269999 76.602907 
L 421.675979 76.526844 
L 422.08196 71.444732 
L 422.28495 69.756845 
L 422.487941 69.7785 
L 422.893921 69.166154 
L 423.299902 71.91959 
L 423.502892 73.739501 
L 424.111863 69.292597 
L 424.517844 68.749308 
L 424.720834 70.436705 
L 425.126814 77.164365 
L 425.329805 77.164483 
L 425.938776 68.771471 
L 426.547746 105.461047 
L 426.953727 86.548688 
L 427.156717 75.461286 
L 427.359708 72.153679 
L 427.765688 69.45251 
L 427.968678 69.774751 
L 428.577649 68.764038 
L 428.98363 68.771253 
L 429.592601 73.528401 
L 430.201572 68.847942 
L 430.607552 69.750184 
L 431.216523 73.683168 
L 431.825494 68.779639 
L 432.028484 68.779412 
L 432.637455 104.49122 
L 433.246426 68.778568 
L 433.855397 68.771452 
L 434.464368 73.753314 
L 434.667358 72.617438 
L 435.073338 69.064343 
L 435.276329 68.735005 
L 436.08829 68.823719 
L 436.697261 69.794273 
L 437.306232 68.867346 
L 437.915202 68.823275 
L 438.524173 68.7864 
L 438.727164 68.808445 
L 439.336134 100.659529 
L 439.945105 71.728129 
L 440.148096 73.224955 
L 440.757066 69.442409 
L 440.960057 69.741326 
L 441.569028 68.698457 
L 442.380989 68.648114 
L 442.98996 68.647497 
L 443.59893 68.676321 
L 444.410892 68.68448 
L 445.425843 68.647597 
L 446.034814 69.711866 
L 446.643785 68.72739 
L 447.049765 68.698348 
L 447.658736 98.24035 
L 448.267707 68.647297 
L 448.470697 68.618373 
L 449.079668 97.502896 
L 449.688639 68.589648 
L 450.29761 68.654612 
L 450.906581 69.648599 
L 451.515552 68.640291 
L 454.966387 68.611366 
L 455.575357 101.35862 
L 456.184328 68.64039 
L 456.996289 68.597054 
L 457.60526 69.638943 
L 458.214231 68.611566 
L 458.823202 68.560724 
L 459.432173 73.647837 
L 459.838153 72.782071 
L 460.244134 70.015339 
L 460.447124 68.997029 
L 460.650115 68.976055 
L 461.056095 69.67 
L 461.665066 68.626278 
L 462.274037 101.30108 
L 462.883008 68.553718 
L 463.897959 68.632885 
L 464.50693 98.288714 
L 464.70992 89.509268 
L 464.912911 90.355131 
L 465.115901 89.564566 
L 465.318891 98.375514 
L 465.927862 68.683827 
L 466.536833 97.582898 
L 467.145804 68.801021 
L 469.175707 68.764156 
L 469.784678 100.445959 
L 470.393648 73.012212 
L 471.002619 68.778976 
L 471.61159 68.808327 
L 472.220561 75.704705 
L 472.829532 68.858724 
L 473.438503 68.720375 
L 474.047474 72.674687 
L 474.656444 68.720093 
L 474.859435 68.727399 
L 475.468406 102.207659 
L 476.077376 70.681567 
L 476.483357 73.517083 
L 476.889338 70.167801 
L 477.498308 97.430908 
L 478.107279 68.618473 
L 478.71625 70.628365 
L 479.325221 68.575436 
L 480.137182 68.510953 
L 481.355124 68.582642 
L 481.964095 97.524414 
L 482.573066 68.661909 
L 482.776056 78.250907 
L 483.182036 116.714453 
L 483.385027 117.411439 
L 483.791007 100.377184 
L 483.993998 100.474375 
L 484.602968 71.103377 
L 484.805959 70.482101 
L 485.008949 70.578077 
L 485.41493 69.139698 
L 485.61792 68.64039 
L 485.82091 68.654903 
L 486.429881 70.775346 
L 487.241842 68.287038 
L 488.053803 68.654703 
L 489.068755 68.654703 
L 489.474735 68.661909 
L 490.083706 70.816277 
L 490.692677 68.66965 
L 490.895667 68.640409 
L 491.504638 70.414542 
L 491.707629 69.881436 
L 492.113609 71.680228 
L 492.316599 73.138219 
L 492.92557 69.382428 
L 493.331551 70.780029 
L 493.940522 68.735322 
L 494.549493 68.705862 
L 495.361454 68.71276 
L 495.970425 73.673666 
L 496.376405 72.180226 
L 496.579395 70.065827 
L 496.985376 68.640191 
L 497.594347 68.618573 
L 498.812289 68.684163 
L 499.421259 68.662227 
L 500.03023 68.728225 
L 500.639201 68.698557 
L 501.451162 68.683645 
L 502.669104 68.669115 
L 502.872094 68.698239 
L 503.481065 97.553647 
L 503.684055 97.548783 
L 504.090036 98.291301 
L 504.699007 69.1335 
L 504.901997 68.7864 
L 505.916949 68.713386 
L 506.72891 68.735005 
L 507.337881 97.612249 
L 507.540871 87.984072 
L 507.946851 87.95218 
L 508.149842 97.575374 
L 508.758813 68.72739 
L 512.615628 68.756723 
L 513.63058 68.749308 
L 514.23955 99.516745 
L 514.848521 69.600834 
L 515.254502 71.237153 
L 515.863473 69.180067 
L 516.269453 69.835186 
L 516.878424 68.771679 
L 518.299356 68.772206 
L 518.908327 99.502152 
L 519.314308 79.673103 
L 519.517298 79.397983 
L 519.923278 117.19178 
L 520.126269 116.839571 
L 520.532249 87.542031 
L 520.73524 87.133889 
L 520.93823 96.37349 
L 521.14122 87.170246 
L 521.547201 87.998375 
L 521.750191 107.825527 
L 522.156172 109.018408 
L 522.359162 89.205977 
L 522.765142 88.039787 
L 522.968133 97.533045 
L 523.577104 68.460828 
L 524.186074 68.669415 
L 524.795045 68.647597 
L 525.404016 100.023386 
L 525.809997 82.467107 
L 526.012987 73.026724 
L 526.215977 71.507372 
L 526.418968 70.972796 
L 526.824948 68.433401 
L 527.027938 68.117976 
L 527.433919 68.596954 
L 528.04289 71.390351 
L 528.651861 71.08175 
L 528.854851 70.251116 
L 529.260832 70.160205 
L 529.463822 70.967051 
L 530.072793 112.389816 
L 530.681764 68.611267 
L 531.696715 68.597054 
L 532.305686 111.902942 
L 532.914657 97.45936 
L 533.523628 68.633284 
L 533.726618 68.662009 
L 534.335589 101.251499 
L 534.741569 82.951794 
L 534.94456 83.554574 
L 535.35054 99.394042 
L 535.959511 69.102815 
L 536.568482 69.055249 
L 536.974463 90.453003 
L 537.177453 112.26498 
L 537.583433 112.257702 
L 537.989414 80.238246 
L 538.192404 69.66686 
L 538.801375 68.597354 
L 539.410346 68.640499 
L 540.019317 68.209613 
L 540.628288 110.184016 
L 541.237259 68.647597 
L 541.440249 68.647497 
L 542.04922 97.901782 
L 542.658191 68.416865 
L 542.861181 68.323468 
L 543.470152 69.429022 
L 544.485103 68.203206 
L 544.891084 68.482319 
L 545.094074 68.475113 
L 545.500055 68.224624 
L 545.906035 68.511343 
L 546.109025 68.510563 
L 546.515006 68.258213 
L 547.123977 68.590048 
L 547.732948 68.227692 
L 548.138928 68.296504 
L 548.544909 69.897146 
L 548.747899 71.35894 
L 548.950889 71.376701 
L 549.15388 71.27204 
L 549.762851 111.926929 
L 550.371821 69.350699 
L 550.777802 70.786028 
L 551.386773 68.971862 
L 551.792753 69.286752 
L 552.198734 68.342835 
L 552.401724 68.104145 
L 552.807705 68.234898 
L 553.213685 69.161453 
L 553.822656 101.209497 
L 554.431627 68.579175 
L 554.837608 68.382795 
L 555.040598 68.210711 
L 555.649569 68.42664 
L 555.852559 68.292556 
L 556.46153 96.864167 
L 557.070501 68.632785 
L 557.476482 68.640291 
L 558.085452 67.857794 
L 558.694423 68.392379 
L 559.100404 68.140665 
L 559.506384 68.392161 
L 559.709375 68.445989 
L 560.115355 68.295324 
L 560.521336 68.253648 
L 560.927316 68.440553 
L 561.130307 68.455074 
L 561.333297 68.333551 
L 562.145258 68.691051 
L 562.348248 68.570462 
L 562.754229 68.959274 
L 562.957219 69.416616 
L 563.56619 72.323948 
L 564.175161 69.10924 
L 564.378151 69.344183 
L 564.581142 69.124288 
L 564.987122 69.330379 
L 565.190112 69.638907 
L 565.799083 68.618573 
L 566.408054 68.625679 
L 566.814035 68.359752 
L 567.017025 68.091738 
L 567.220015 68.082544 
L 567.423006 67.83014 
L 567.625996 67.840732 
L 567.828986 67.739837 
L 568.031976 68.476538 
L 568.640947 73.684965 
L 569.249918 69.046627 
L 569.655899 69.71575 
L 570.26487 67.939021 
L 570.46786 67.966203 
L 570.87384 67.772864 
L 571.279821 68.710709 
L 571.482811 69.328101 
L 571.888792 68.750587 
L 572.497763 97.071665 
L 573.106734 67.843464 
L 573.512714 68.649947 
L 573.715704 68.652334 
L 573.918695 68.903767 
L 574.121685 68.882956 
L 574.324675 69.002111 
L 574.527666 68.199757 
L 574.933646 67.719054 
L 575.339627 68.361113 
L 575.542617 68.520646 
L 576.151588 69.828316 
L 576.557568 68.706434 
L 576.760559 68.452624 
L 576.963549 68.596301 
L 577.166539 68.446579 
L 577.36953 68.001208 
L 577.57252 67.877525 
L 577.77551 67.912584 
L 577.9785 68.093408 
L 578.181491 67.810029 
L 578.587471 69.798875 
L 578.790462 71.324035 
L 579.196442 69.43729 
L 579.805413 96.734158 
L 580.414384 67.55512 
L 580.617374 67.434658 
L 580.820365 67.139844 
L 581.226345 67.083438 
L 581.835316 67.398855 
L 582.444287 71.484347 
L 582.850267 70.550804 
L 583.459238 68.370334 
L 583.662229 67.632154 
L 583.865219 67.606044 
L 584.068209 68.67525 
L 584.67718 99.000938 
L 585.083161 77.297361 
L 585.286151 80.460646 
L 585.692131 106.541027 
L 586.098112 100.177664 
L 586.301102 106.280282 
L 586.504093 116.954315 
L 586.707083 136.50219 
L 586.910073 136.878422 
L 587.113063 126.147912 
L 587.519044 78.300977 
L 587.722034 69.108052 
L 587.925025 69.089092 
L 588.128015 69.38191 
L 588.331005 69.102715 
L 588.939976 96.491937 
L 589.548947 67.004453 
L 589.751937 67.485355 
L 590.157918 70.838921 
L 590.766889 101.907653 
L 590.969879 94.405074 
L 591.172869 96.791734 
L 591.375859 95.918626 
L 591.57885 103.022946 
L 592.187821 70.179173 
L 592.390811 68.579184 
L 592.593801 68.032692 
L 592.999782 70.736157 
L 593.405762 69.553214 
L 593.608753 68.365969 
L 593.811743 68.365933 
L 594.420714 112.147559 
L 594.623704 112.177699 
L 594.826694 121.755062 
L 595.029685 145.766414 
L 595.232675 155.198447 
L 595.435665 145.432964 
L 595.841646 86.009066 
L 596.044636 92.334774 
L 596.450617 128.817098 
L 596.653607 128.191239 
L 597.059587 148.672648 
L 597.262578 153.881692 
L 597.668558 127.415613 
L 598.074539 93.292041 
L 598.277529 78.465483 
L 598.480519 77.779942 
L 598.68351 74.827921 
L 599.495471 109.818293 
L 599.698461 110.423524 
L 599.901451 126.177607 
L 600.104442 124.616444 
L 600.307432 125.044871 
L 600.713413 82.887212 
L 600.916403 68.304508 
L 601.119393 67.672832 
L 601.322383 82.062223 
L 601.728364 139.848894 
L 601.931354 139.704264 
L 602.337335 81.583217 
L 602.540325 77.135704 
L 602.743316 86.995929 
L 603.352286 138.895266 
L 603.555277 135.87888 
L 603.961257 118.138038 
L 604.164248 125.040088 
L 604.367238 117.825771 
L 604.570228 123.649739 
L 604.773218 113.923544 
L 604.976209 119.035778 
L 605.179199 96.305759 
L 605.58518 86.756621 
L 605.78817 96.959063 
L 606.397141 70.107947 
L 606.600131 70.666537 
L 606.803121 70.36694 
L 607.006112 71.347404 
L 607.209102 70.913115 
L 607.615082 74.082489 
L 607.818073 76.403478 
L 608.021063 75.672377 
L 608.427044 70.565988 
L 608.630034 69.832436 
L 608.833024 69.603983 
L 609.036014 68.940024 
L 609.239005 69.547342 
L 609.644985 73.811054 
L 609.847976 73.223975 
L 610.253956 68.963921 
L 610.456946 68.955544 
L 610.659937 69.336831 
L 610.862927 71.422905 
L 611.065917 72.154296 
L 611.268908 73.349365 
L 611.877878 67.755284 
L 612.080869 67.736951 
L 612.283859 68.032555 
L 612.68984 67.723592 
L 612.89283 67.400797 
L 613.09582 67.375213 
L 613.704791 110.597005 
L 614.313762 66.96 
L 614.516752 66.977099 
L 614.719742 67.485981 
L 615.328713 96.931718 
L 615.937684 67.981541 
L 616.343665 69.54766 
L 616.952636 67.451811 
L 617.155626 67.442709 
L 617.358616 67.548014 
L 617.967587 72.860203 
L 618.170577 71.231998 
L 618.373568 79.354846 
L 618.779548 119.787136 
L 618.982538 122.054777 
L 619.388519 100.710933 
L 619.591509 98.478051 
L 620.20048 69.653119 
L 620.40347 70.362012 
L 621.012441 97.419372 
L 621.621412 70.114482 
L 621.824402 72.503066 
L 622.027393 73.556354 
L 622.230383 73.048651 
L 622.636364 69.328282 
L 622.636364 69.328282 
" clip-path="url(#p29440aacd7)" style="fill: none; stroke: #ff0000; stroke-opacity: 0.1; stroke-width: 2; stroke-linecap: square"/>
   </g>
   <g id="patch_3">
    <path d="M 90 384.48 
L 90 51.84 
" style="fill: none; stroke: #000000; stroke-width: 0.8; stroke-linejoin: miter; stroke-linecap: square"/>
   </g>
   <g id="patch_4">
    <path d="M 648 384.48 
L 648 51.84 
" style="fill: none; stroke: #000000; stroke-width: 0.8; stroke-linejoin: miter; stroke-linecap: square"/>
   </g>
   <g id="patch_5">
    <path d="M 90 384.48 
L 648 384.48 
" style="fill: none; stroke: #000000; stroke-width: 0.8; stroke-linejoin: miter; stroke-linecap: square"/>
   </g>
   <g id="patch_6">
    <path d="M 90 51.84 
L 648 51.84 
" style="fill: none; stroke: #000000; stroke-width: 0.8; stroke-linejoin: miter; stroke-linecap: square"/>
   </g>
   <g id="text_18">
    <!-- two_action_scale_min_2000steps -->
    <g transform="translate(252.86125 45.84) scale(0.14 -0.14)">
     <defs>
      <path id="DejaVuSans-6f" d="M 1959 3097 
Q 1497 3097 1228 2736 
Q 959 2375 959 1747 
Q 959 1119 1226 758 
Q 1494 397 1959 397 
Q 2419 397 2687 759 
Q 2956 1122 2956 1747 
Q 2956 2369 2687 2733 
Q 2419 3097 1959 3097 
z
M 1959 3584 
Q 2709 3584 3137 3096 
Q 3566 2609 3566 1747 
Q 3566 888 3137 398 
Q 2709 -91 1959 -91 
Q 1206 -91 779 398 
Q 353 888 353 1747 
Q 353 2609 779 3096 
Q 1206 3584 1959 3584 
z
" transform="scale(0.015625)"/>
      <path id="DejaVuSans-5f" d="M 3263 -1063 
L 3263 -1509 
L -63 -1509 
L -63 -1063 
L 3263 -1063 
z
" transform="scale(0.015625)"/>
      <path id="DejaVuSans-63" d="M 3122 3366 
L 3122 2828 
Q 2878 2963 2633 3030 
Q 2388 3097 2138 3097 
Q 1578 3097 1268 2742 
Q 959 2388 959 1747 
Q 959 1106 1268 751 
Q 1578 397 2138 397 
Q 2388 397 2633 464 
Q 2878 531 3122 666 
L 3122 134 
Q 2881 22 2623 -34 
Q 2366 -91 2075 -91 
Q 1284 -91 818 406 
Q 353 903 353 1747 
Q 353 2603 823 3093 
Q 1294 3584 2113 3584 
Q 2378 3584 2631 3529 
Q 2884 3475 3122 3366 
z
" transform="scale(0.015625)"/>
      <path id="DejaVuSans-6e" d="M 3513 2113 
L 3513 0 
L 2938 0 
L 2938 2094 
Q 2938 2591 2744 2837 
Q 2550 3084 2163 3084 
Q 1697 3084 1428 2787 
Q 1159 2491 1159 1978 
L 1159 0 
L 581 0 
L 581 3500 
L 1159 3500 
L 1159 2956 
Q 1366 3272 1645 3428 
Q 1925 3584 2291 3584 
Q 2894 3584 3203 3211 
Q 3513 2838 3513 2113 
z
" transform="scale(0.015625)"/>
      <path id="DejaVuSans-6c" d="M 603 4863 
L 1178 4863 
L 1178 0 
L 603 0 
L 603 4863 
z
" transform="scale(0.015625)"/>
     </defs>
     <use xlink:href="#DejaVuSans-74"/>
     <use xlink:href="#DejaVuSans-77" x="39.208984"/>
     <use xlink:href="#DejaVuSans-6f" x="120.996094"/>
     <use xlink:href="#DejaVuSans-5f" x="182.177734"/>
     <use xlink:href="#DejaVuSans-61" x="232.177734"/>
     <use xlink:href="#DejaVuSans-63" x="293.457031"/>
     <use xlink:href="#DejaVuSans-74" x="348.4375"/>
     <use xlink:href="#DejaVuSans-69" x="387.646484"/>
     <use xlink:href="#DejaVuSans-6f" x="415.429688"/>
     <use xlink:href="#DejaVuSans-6e" x="476.611328"/>
     <use xlink:href="#DejaVuSans-5f" x="539.990234"/>
     <use xlink:href="#DejaVuSans-73" x="589.990234"/>
     <use xlink:href="#DejaVuSans-63" x="642.089844"/>
     <use xlink:href="#DejaVuSans-61" x="697.070312"/>
     <use xlink:href="#DejaVuSans-6c" x="758.349609"/>
     <use xlink:href="#DejaVuSans-65" x="786.132812"/>
     <use xlink:href="#DejaVuSans-5f" x="847.65625"/>
     <use xlink:href="#DejaVuSans-6d" x="897.65625"/>
     <use xlink:href="#DejaVuSans-69" x="995.068359"/>
     <use xlink:href="#DejaVuSans-6e" x="1022.851562"/>
     <use xlink:href="#DejaVuSans-5f" x="1086.230469"/>
     <use xlink:href="#DejaVuSans-32" x="1136.230469"/>
     <use xlink:href="#DejaVuSans-30" x="1199.853516"/>
     <use xlink:href="#DejaVuSans-30" x="1263.476562"/>
     <use xlink:href="#DejaVuSans-30" x="1327.099609"/>
     <use xlink:href="#DejaVuSans-73" x="1390.722656"/>
     <use xlink:href="#DejaVuSans-74" x="1442.822266"/>
     <use xlink:href="#DejaVuSans-65" x="1482.03125"/>
     <use xlink:href="#DejaVuSans-70" x="1543.554688"/>
     <use xlink:href="#DejaVuSans-73" x="1607.03125"/>
    </g>
   </g>
   <g id="legend_1">
    <g id="patch_7">
     <path d="M 97 74.79625 
L 225.382812 74.79625 
Q 227.382812 74.79625 227.382812 72.79625 
L 227.382812 58.84 
Q 227.382812 56.84 225.382812 56.84 
L 97 56.84 
Q 95 56.84 95 58.84 
L 95 72.79625 
Q 95 74.79625 97 74.79625 
z
" style="fill: #ffffff; opacity: 0.8; stroke: #cccccc; stroke-linejoin: miter"/>
    </g>
    <g id="line2d_31">
     <path d="M 99 64.938437 
L 109 64.938437 
L 119 64.938437 
" style="fill: none; stroke: #ff0000; stroke-width: 1.5; stroke-linecap: square"/>
    </g>
    <g id="text_19">
     <!-- reward_avg_1_runs -->
     <g transform="translate(127 68.438437) scale(0.1 -0.1)">
      <defs>
       <path id="DejaVuSans-76" d="M 191 3500 
L 800 3500 
L 1894 563 
L 2988 3500 
L 3597 3500 
L 2284 0 
L 1503 0 
L 191 3500 
z
" transform="scale(0.015625)"/>
       <path id="DejaVuSans-67" d="M 2906 1791 
Q 2906 2416 2648 2759 
Q 2391 3103 1925 3103 
Q 1463 3103 1205 2759 
Q 947 2416 947 1791 
Q 947 1169 1205 825 
Q 1463 481 1925 481 
Q 2391 481 2648 825 
Q 2906 1169 2906 1791 
z
M 3481 434 
Q 3481 -459 3084 -895 
Q 2688 -1331 1869 -1331 
Q 1566 -1331 1297 -1286 
Q 1028 -1241 775 -1147 
L 775 -588 
Q 1028 -725 1275 -790 
Q 1522 -856 1778 -856 
Q 2344 -856 2625 -561 
Q 2906 -266 2906 331 
L 2906 616 
Q 2728 306 2450 153 
Q 2172 0 1784 0 
Q 1141 0 747 490 
Q 353 981 353 1791 
Q 353 2603 747 3093 
Q 1141 3584 1784 3584 
Q 2172 3584 2450 3431 
Q 2728 3278 2906 2969 
L 2906 3500 
L 3481 3500 
L 3481 434 
z
" transform="scale(0.015625)"/>
       <path id="DejaVuSans-75" d="M 544 1381 
L 544 3500 
L 1119 3500 
L 1119 1403 
Q 1119 906 1312 657 
Q 1506 409 1894 409 
Q 2359 409 2629 706 
Q 2900 1003 2900 1516 
L 2900 3500 
L 3475 3500 
L 3475 0 
L 2900 0 
L 2900 538 
Q 2691 219 2414 64 
Q 2138 -91 1772 -91 
Q 1169 -91 856 284 
Q 544 659 544 1381 
z
M 1991 3584 
L 1991 3584 
z
" transform="scale(0.015625)"/>
      </defs>
      <use xlink:href="#DejaVuSans-72"/>
      <use xlink:href="#DejaVuSans-65" x="38.863281"/>
      <use xlink:href="#DejaVuSans-77" x="100.386719"/>
      <use xlink:href="#DejaVuSans-61" x="182.173828"/>
      <use xlink:href="#DejaVuSans-72" x="243.453125"/>
      <use xlink:href="#DejaVuSans-64" x="282.816406"/>
      <use xlink:href="#DejaVuSans-5f" x="346.292969"/>
      <use xlink:href="#DejaVuSans-61" x="396.292969"/>
      <use xlink:href="#DejaVuSans-76" x="457.572266"/>
      <use xlink:href="#DejaVuSans-67" x="516.751953"/>
      <use xlink:href="#DejaVuSans-5f" x="580.228516"/>
      <use xlink:href="#DejaVuSans-31" x="630.228516"/>
      <use xlink:href="#DejaVuSans-5f" x="693.851562"/>
      <use xlink:href="#DejaVuSans-72" x="743.851562"/>
      <use xlink:href="#DejaVuSans-75" x="784.964844"/>
      <use xlink:href="#DejaVuSans-6e" x="848.34375"/>
      <use xlink:href="#DejaVuSans-73" x="911.722656"/>
     </g>
    </g>
   </g>
  </g>
 </g>
 <defs>
  <clipPath id="p29440aacd7">
   <rect x="90" y="51.84" width="558" height="332.64"/>
  </clipPath>
 </defs>
</svg>
