<?xml version="1.0" encoding="utf-8" standalone="no"?>
<!DOCTYPE svg PUBLIC "-//W3C//DTD SVG 1.1//EN"
  "http://www.w3.org/Graphics/SVG/1.1/DTD/svg11.dtd">
<svg xmlns:xlink="http://www.w3.org/1999/xlink" width="460.8pt" height="345.6pt" viewBox="0 0 460.8 345.6" xmlns="http://www.w3.org/2000/svg" version="1.1">
 <metadata>
  <rdf:RDF xmlns:dc="http://purl.org/dc/elements/1.1/" xmlns:cc="http://creativecommons.org/ns#" xmlns:rdf="http://www.w3.org/1999/02/22-rdf-syntax-ns#">
   <cc:Work>
    <dc:type rdf:resource="http://purl.org/dc/dcmitype/StillImage"/>
    <dc:date>2024-04-27T15:29:12.511018</dc:date>
    <dc:format>image/svg+xml</dc:format>
    <dc:creator>
     <cc:Agent>
      <dc:title>Matplotlib v3.8.2, https://matplotlib.org/</dc:title>
     </cc:Agent>
    </dc:creator>
   </cc:Work>
  </rdf:RDF>
 </metadata>
 <defs>
  <style type="text/css">*{stroke-linejoin: round; stroke-linecap: butt}</style>
 </defs>
 <g id="figure_1">
  <g id="patch_1">
   <path d="M 0 345.6 
L 460.8 345.6 
L 460.8 0 
L 0 0 
z
" style="fill: #ffffff"/>
  </g>
  <g id="axes_1">
   <g id="patch_2">
    <path d="M 57.6 307.584 
L 414.72 307.584 
L 414.72 41.472 
L 57.6 41.472 
z
" style="fill: #ffffff"/>
   </g>
   <g id="matplotlib.axis_1">
    <g id="xtick_1">
     <g id="line2d_1">
      <defs>
       <path id="m2d5b52bdbf" d="M 0 0 
L 0 3.5 
" style="stroke: #000000; stroke-width: 0.8"/>
      </defs>
      <g>
       <use xlink:href="#m2d5b52bdbf" x="73.832727" y="307.584" style="stroke: #000000; stroke-width: 0.8"/>
      </g>
     </g>
     <g id="text_1">
      <!-- 0 -->
      <g transform="translate(70.651477 322.182437) scale(0.1 -0.1)">
       <defs>
        <path id="DejaVuSans-30" d="M 2034 4250 
Q 1547 4250 1301 3770 
Q 1056 3291 1056 2328 
Q 1056 1369 1301 889 
Q 1547 409 2034 409 
Q 2525 409 2770 889 
Q 3016 1369 3016 2328 
Q 3016 3291 2770 3770 
Q 2525 4250 2034 4250 
z
M 2034 4750 
Q 2819 4750 3233 4129 
Q 3647 3509 3647 2328 
Q 3647 1150 3233 529 
Q 2819 -91 2034 -91 
Q 1250 -91 836 529 
Q 422 1150 422 2328 
Q 422 3509 836 4129 
Q 1250 4750 2034 4750 
z
" transform="scale(0.015625)"/>
       </defs>
       <use xlink:href="#DejaVuSans-30"/>
      </g>
     </g>
    </g>
    <g id="xtick_2">
     <g id="line2d_2">
      <g>
       <use xlink:href="#m2d5b52bdbf" x="127.959861" y="307.584" style="stroke: #000000; stroke-width: 0.8"/>
      </g>
     </g>
     <g id="text_2">
      <!-- 500 -->
      <g transform="translate(118.416111 322.182437) scale(0.1 -0.1)">
       <defs>
        <path id="DejaVuSans-35" d="M 691 4666 
L 3169 4666 
L 3169 4134 
L 1269 4134 
L 1269 2991 
Q 1406 3038 1543 3061 
Q 1681 3084 1819 3084 
Q 2600 3084 3056 2656 
Q 3513 2228 3513 1497 
Q 3513 744 3044 326 
Q 2575 -91 1722 -91 
Q 1428 -91 1123 -41 
Q 819 9 494 109 
L 494 744 
Q 775 591 1075 516 
Q 1375 441 1709 441 
Q 2250 441 2565 725 
Q 2881 1009 2881 1497 
Q 2881 1984 2565 2268 
Q 2250 2553 1709 2553 
Q 1456 2553 1204 2497 
Q 953 2441 691 2322 
L 691 4666 
z
" transform="scale(0.015625)"/>
       </defs>
       <use xlink:href="#DejaVuSans-35"/>
       <use xlink:href="#DejaVuSans-30" x="63.623047"/>
       <use xlink:href="#DejaVuSans-30" x="127.246094"/>
      </g>
     </g>
    </g>
    <g id="xtick_3">
     <g id="line2d_3">
      <g>
       <use xlink:href="#m2d5b52bdbf" x="182.086994" y="307.584" style="stroke: #000000; stroke-width: 0.8"/>
      </g>
     </g>
     <g id="text_3">
      <!-- 1000 -->
      <g transform="translate(169.361994 322.182437) scale(0.1 -0.1)">
       <defs>
        <path id="DejaVuSans-31" d="M 794 531 
L 1825 531 
L 1825 4091 
L 703 3866 
L 703 4441 
L 1819 4666 
L 2450 4666 
L 2450 531 
L 3481 531 
L 3481 0 
L 794 0 
L 794 531 
z
" transform="scale(0.015625)"/>
       </defs>
       <use xlink:href="#DejaVuSans-31"/>
       <use xlink:href="#DejaVuSans-30" x="63.623047"/>
       <use xlink:href="#DejaVuSans-30" x="127.246094"/>
       <use xlink:href="#DejaVuSans-30" x="190.869141"/>
      </g>
     </g>
    </g>
    <g id="xtick_4">
     <g id="line2d_4">
      <g>
       <use xlink:href="#m2d5b52bdbf" x="236.214127" y="307.584" style="stroke: #000000; stroke-width: 0.8"/>
      </g>
     </g>
     <g id="text_4">
      <!-- 1500 -->
      <g transform="translate(223.489127 322.182437) scale(0.1 -0.1)">
       <use xlink:href="#DejaVuSans-31"/>
       <use xlink:href="#DejaVuSans-35" x="63.623047"/>
       <use xlink:href="#DejaVuSans-30" x="127.246094"/>
       <use xlink:href="#DejaVuSans-30" x="190.869141"/>
      </g>
     </g>
    </g>
    <g id="xtick_5">
     <g id="line2d_5">
      <g>
       <use xlink:href="#m2d5b52bdbf" x="290.34126" y="307.584" style="stroke: #000000; stroke-width: 0.8"/>
      </g>
     </g>
     <g id="text_5">
      <!-- 2000 -->
      <g transform="translate(277.61626 322.182437) scale(0.1 -0.1)">
       <defs>
        <path id="DejaVuSans-32" d="M 1228 531 
L 3431 531 
L 3431 0 
L 469 0 
L 469 531 
Q 828 903 1448 1529 
Q 2069 2156 2228 2338 
Q 2531 2678 2651 2914 
Q 2772 3150 2772 3378 
Q 2772 3750 2511 3984 
Q 2250 4219 1831 4219 
Q 1534 4219 1204 4116 
Q 875 4013 500 3803 
L 500 4441 
Q 881 4594 1212 4672 
Q 1544 4750 1819 4750 
Q 2544 4750 2975 4387 
Q 3406 4025 3406 3419 
Q 3406 3131 3298 2873 
Q 3191 2616 2906 2266 
Q 2828 2175 2409 1742 
Q 1991 1309 1228 531 
z
" transform="scale(0.015625)"/>
       </defs>
       <use xlink:href="#DejaVuSans-32"/>
       <use xlink:href="#DejaVuSans-30" x="63.623047"/>
       <use xlink:href="#DejaVuSans-30" x="127.246094"/>
       <use xlink:href="#DejaVuSans-30" x="190.869141"/>
      </g>
     </g>
    </g>
    <g id="xtick_6">
     <g id="line2d_6">
      <g>
       <use xlink:href="#m2d5b52bdbf" x="344.468394" y="307.584" style="stroke: #000000; stroke-width: 0.8"/>
      </g>
     </g>
     <g id="text_6">
      <!-- 2500 -->
      <g transform="translate(331.743394 322.182437) scale(0.1 -0.1)">
       <use xlink:href="#DejaVuSans-32"/>
       <use xlink:href="#DejaVuSans-35" x="63.623047"/>
       <use xlink:href="#DejaVuSans-30" x="127.246094"/>
       <use xlink:href="#DejaVuSans-30" x="190.869141"/>
      </g>
     </g>
    </g>
    <g id="xtick_7">
     <g id="line2d_7">
      <g>
       <use xlink:href="#m2d5b52bdbf" x="398.595527" y="307.584" style="stroke: #000000; stroke-width: 0.8"/>
      </g>
     </g>
     <g id="text_7">
      <!-- 3000 -->
      <g transform="translate(385.870527 322.182437) scale(0.1 -0.1)">
       <defs>
        <path id="DejaVuSans-33" d="M 2597 2516 
Q 3050 2419 3304 2112 
Q 3559 1806 3559 1356 
Q 3559 666 3084 287 
Q 2609 -91 1734 -91 
Q 1441 -91 1130 -33 
Q 819 25 488 141 
L 488 750 
Q 750 597 1062 519 
Q 1375 441 1716 441 
Q 2309 441 2620 675 
Q 2931 909 2931 1356 
Q 2931 1769 2642 2001 
Q 2353 2234 1838 2234 
L 1294 2234 
L 1294 2753 
L 1863 2753 
Q 2328 2753 2575 2939 
Q 2822 3125 2822 3475 
Q 2822 3834 2567 4026 
Q 2313 4219 1838 4219 
Q 1578 4219 1281 4162 
Q 984 4106 628 3988 
L 628 4550 
Q 988 4650 1302 4700 
Q 1616 4750 1894 4750 
Q 2613 4750 3031 4423 
Q 3450 4097 3450 3541 
Q 3450 3153 3228 2886 
Q 3006 2619 2597 2516 
z
" transform="scale(0.015625)"/>
       </defs>
       <use xlink:href="#DejaVuSans-33"/>
       <use xlink:href="#DejaVuSans-30" x="63.623047"/>
       <use xlink:href="#DejaVuSans-30" x="127.246094"/>
       <use xlink:href="#DejaVuSans-30" x="190.869141"/>
      </g>
     </g>
    </g>
   </g>
   <g id="matplotlib.axis_2">
    <g id="ytick_1">
     <g id="line2d_8">
      <defs>
       <path id="md545ee9607" d="M 0 0 
L -3.5 0 
" style="stroke: #000000; stroke-width: 0.8"/>
      </defs>
      <g>
       <use xlink:href="#md545ee9607" x="57.6" y="261.919284" style="stroke: #000000; stroke-width: 0.8"/>
      </g>
     </g>
     <g id="text_8">
      <!-- −100 -->
      <g transform="translate(23.132812 265.718502) scale(0.1 -0.1)">
       <defs>
        <path id="DejaVuSans-2212" d="M 678 2272 
L 4684 2272 
L 4684 1741 
L 678 1741 
L 678 2272 
z
" transform="scale(0.015625)"/>
       </defs>
       <use xlink:href="#DejaVuSans-2212"/>
       <use xlink:href="#DejaVuSans-31" x="83.789062"/>
       <use xlink:href="#DejaVuSans-30" x="147.412109"/>
       <use xlink:href="#DejaVuSans-30" x="211.035156"/>
      </g>
     </g>
    </g>
    <g id="ytick_2">
     <g id="line2d_9">
      <g>
       <use xlink:href="#md545ee9607" x="57.6" y="206.114026" style="stroke: #000000; stroke-width: 0.8"/>
      </g>
     </g>
     <g id="text_9">
      <!-- −50 -->
      <g transform="translate(29.495313 209.913245) scale(0.1 -0.1)">
       <use xlink:href="#DejaVuSans-2212"/>
       <use xlink:href="#DejaVuSans-35" x="83.789062"/>
       <use xlink:href="#DejaVuSans-30" x="147.412109"/>
      </g>
     </g>
    </g>
    <g id="ytick_3">
     <g id="line2d_10">
      <g>
       <use xlink:href="#md545ee9607" x="57.6" y="150.308768" style="stroke: #000000; stroke-width: 0.8"/>
      </g>
     </g>
     <g id="text_10">
      <!-- 0 -->
      <g transform="translate(44.2375 154.107987) scale(0.1 -0.1)">
       <use xlink:href="#DejaVuSans-30"/>
      </g>
     </g>
    </g>
    <g id="ytick_4">
     <g id="line2d_11">
      <g>
       <use xlink:href="#md545ee9607" x="57.6" y="94.50351" style="stroke: #000000; stroke-width: 0.8"/>
      </g>
     </g>
     <g id="text_11">
      <!-- 50 -->
      <g transform="translate(37.875 98.302729) scale(0.1 -0.1)">
       <use xlink:href="#DejaVuSans-35"/>
       <use xlink:href="#DejaVuSans-30" x="63.623047"/>
      </g>
     </g>
    </g>
   </g>
   <g id="line2d_12">
    <path d="M 73.832727 268.148996 
L 74.049236 145.708099 
L 74.15749 151.991604 
L 74.265744 277.171427 
L 74.482253 155.468497 
L 74.590507 141.658902 
L 74.698761 151.889102 
L 74.807016 142.408341 
L 75.023524 151.293938 
L 75.131778 149.743904 
L 75.240033 151.471811 
L 75.348287 90.630482 
L 75.564796 151.889102 
L 75.67305 147.682807 
L 75.781304 151.889102 
L 75.889558 148.296883 
L 75.997813 102.02327 
L 76.214321 149.515034 
L 76.322575 266.103573 
L 76.43083 149.194001 
L 76.539084 153.031149 
L 76.647338 94.278177 
L 76.972101 217.624718 
L 77.080355 134.288557 
L 77.296864 155.536208 
L 77.513372 54.533802 
L 77.729881 192.9386 
L 77.838135 140.611493 
L 77.946389 191.486261 
L 78.162898 146.176714 
L 78.271152 145.8645 
L 78.379406 149.491569 
L 78.487661 149.04101 
L 78.595915 192.9386 
L 78.704169 169.241174 
L 78.812424 192.9386 
L 78.920678 262.714683 
L 79.137186 149.831054 
L 79.245441 192.9386 
L 79.461949 149.491569 
L 79.786712 262.714683 
L 79.894966 149.285847 
L 80.00322 202.541734 
L 80.111475 192.9386 
L 80.219729 149.885106 
L 80.436238 268.167901 
L 80.652746 150.179113 
L 80.761 222.359848 
L 80.869255 149.940677 
L 81.085763 153.563619 
L 81.194017 156.27771 
L 81.302272 153.563619 
L 81.51878 156.27771 
L 81.735289 199.512888 
L 81.843543 195.109699 
L 81.951797 205.194487 
L 82.168306 189.42144 
L 82.27656 189.563461 
L 82.493069 189.491099 
L 82.709577 189.638632 
L 82.817831 189.491099 
L 83.03434 189.797834 
L 83.142594 189.716718 
L 83.250848 189.8821 
L 83.359103 190.571401 
L 83.575611 189.797834 
L 83.683866 189.8821 
L 83.79212 190.155066 
L 83.900374 189.969638 
L 84.225137 190.685898 
L 84.333391 190.461241 
L 84.5499 193.076608 
L 85.091171 193.076608 
L 85.199425 181.288181 
L 85.524188 193.076608 
L 85.740697 163.080425 
L 85.848951 178.783669 
L 85.957205 160.050946 
L 86.173714 193.076608 
L 86.498476 160.050946 
L 86.714985 155.991859 
L 86.823239 153.563619 
L 86.931494 154.75222 
L 87.039748 157.285773 
L 87.256256 153.563619 
L 87.581019 153.563619 
L 87.689273 154.75222 
L 87.797528 157.285773 
L 87.905782 153.563619 
L 88.014036 154.75222 
L 88.12229 157.285773 
L 88.338799 154.75222 
L 88.447053 153.563619 
L 88.663562 158.637508 
L 88.771816 193.076608 
L 88.988325 189.354386 
L 111.180449 189.354386 
L 111.288704 193.076608 
L 111.505212 153.563619 
L 112.262992 153.563619 
L 112.4795 157.285773 
L 112.587755 190.685898 
L 112.804263 153.563619 
L 124.062707 153.563619 
L 124.170961 189.638632 
L 124.279215 189.354386 
L 132.939557 189.354386 
L 133.047811 295.488 
L 133.26432 217.352125 
L 134.671625 217.352125 
L 134.888134 220.484169 
L 134.996388 220.484169 
L 135.212896 156.27771 
L 135.429405 153.563619 
L 136.078931 153.563619 
L 136.187185 156.27771 
L 136.295439 153.563619 
L 136.403693 168.233406 
L 136.511948 165.064662 
L 136.620202 171.536282 
L 136.728456 153.563619 
L 136.83671 165.064662 
L 136.944965 159.094605 
L 137.053219 162.021109 
L 137.269727 190.445386 
L 137.377982 178.58478 
L 137.486236 153.563619 
L 137.59449 171.536282 
L 137.702745 153.563619 
L 137.810999 165.064662 
L 137.919253 153.563619 
L 138.027507 159.094605 
L 138.135762 153.563619 
L 138.244016 156.27771 
L 138.460524 153.563619 
L 139.434813 153.563619 
L 139.543067 162.021109 
L 139.86783 153.563619 
L 142.141169 153.563619 
L 142.249424 150.308768 
L 142.357678 150.591328 
L 142.465932 151.26562 
L 142.682441 150.056562 
L 142.790695 150.056562 
L 142.898949 150.591328 
L 143.115458 153.388046 
L 143.331966 191.513577 
L 143.440221 178.816301 
L 143.656729 116.818 
L 143.764983 110.501695 
L 143.873238 113.58474 
L 143.981492 145.147528 
L 144.198001 123.794544 
L 144.306255 123.794544 
L 144.414509 155.856195 
L 144.522763 123.794544 
L 144.631018 135.813439 
L 144.847526 123.794544 
L 144.95578 116.818 
L 145.280543 131.570775 
L 145.497052 107.556082 
L 145.605306 99.435527 
L 145.71356 131.570775 
L 145.821815 127.57251 
L 145.930069 131.570775 
L 146.146577 107.556082 
L 146.363086 110.501695 
L 146.47134 102.032706 
L 146.687849 150.308768 
L 146.904357 110.501695 
L 147.012611 69.033669 
L 147.120866 75.986751 
L 147.22912 72.436183 
L 147.445629 53.568 
L 147.553883 53.926963 
L 147.770391 53.568 
L 147.878646 53.568 
L 147.9869 59.513067 
L 148.419917 123.794544 
L 148.528171 116.818 
L 148.636425 72.436183 
L 148.74468 116.818 
L 148.852934 113.58474 
L 148.961188 116.818 
L 149.177697 107.556082 
L 149.394205 94.528594 
L 149.50246 77.824907 
L 149.610714 85.676492 
L 149.718968 102.032706 
L 149.827222 87.783901 
L 149.935477 94.528594 
L 150.043731 77.824907 
L 150.151985 85.676492 
L 150.476748 65.758019 
L 150.585002 69.033669 
L 150.693257 81.643444 
L 150.909765 74.191537 
L 151.018019 79.709295 
L 151.234528 75.986751 
L 151.451036 81.643444 
L 151.559291 94.528594 
L 151.884053 79.709295 
L 152.100562 85.676492 
L 152.317071 81.643444 
L 152.425325 85.676492 
L 152.641833 74.191537 
L 152.750088 70.7178 
L 152.858342 77.824907 
L 153.07485 67.381218 
L 153.291359 67.381218 
L 153.507867 70.7178 
L 153.616122 69.033669 
L 153.83263 77.824907 
L 153.940885 75.986751 
L 154.265647 70.7178 
L 154.373902 77.824907 
L 154.59041 70.7178 
L 154.698664 74.191537 
L 154.806919 72.436183 
L 154.915173 74.191537 
L 155.34819 67.381218 
L 155.456444 69.033669 
L 155.672953 64.16176 
L 155.781207 69.033669 
L 155.889461 65.758019 
L 156.10597 70.7178 
L 156.214224 70.7178 
L 156.322478 72.436183 
L 156.430733 69.033669 
L 156.647241 75.986751 
L 156.755495 69.033669 
L 156.86375 74.191537 
L 157.405021 65.758019 
L 157.62153 65.758019 
L 158.054547 70.7178 
L 158.162801 70.7178 
L 158.271055 74.191537 
L 158.595818 70.7178 
L 158.812327 70.7178 
L 158.920581 65.758019 
L 159.245344 70.7178 
L 159.353598 69.033669 
L 159.461852 70.7178 
L 159.570106 74.191537 
L 159.786615 70.7178 
L 160.111378 74.191537 
L 160.219632 69.033669 
L 160.436141 72.436183 
L 160.652649 74.191537 
L 160.760903 72.436183 
L 160.869158 74.191537 
L 161.085666 67.381218 
L 161.19392 74.191537 
L 161.410429 70.7178 
L 161.518683 72.436183 
L 161.735192 70.7178 
L 161.843446 74.191537 
L 162.059955 70.7178 
L 162.276463 69.033669 
L 162.384717 70.7178 
L 162.492972 67.381218 
L 162.601226 69.033669 
L 162.70948 65.758019 
L 162.925989 67.381218 
L 163.142497 65.758019 
L 163.250751 65.758019 
L 163.46726 67.381218 
L 163.575514 67.381218 
L 163.683769 70.7178 
L 163.792023 69.033669 
L 163.900277 70.7178 
L 164.116786 69.033669 
L 164.22504 72.436183 
L 164.441548 69.033669 
L 164.549803 70.7178 
L 164.658057 67.381218 
L 164.766311 69.033669 
L 164.874565 65.758019 
L 165.091074 69.033669 
L 165.307583 67.381218 
L 165.524091 69.033669 
L 165.7406 67.381218 
L 166.390125 67.381218 
L 166.714888 70.7178 
L 167.039651 65.758019 
L 167.147905 67.381218 
L 167.256159 64.16176 
L 167.472668 69.033669 
L 167.580922 69.033669 
L 167.689176 67.381218 
L 167.905685 70.7178 
L 168.338702 62.590239 
L 168.446956 64.16176 
L 168.663465 69.033669 
L 168.879973 64.16176 
L 168.988228 65.758019 
L 169.096482 64.16176 
L 169.204736 65.758019 
L 169.421245 62.590239 
L 169.529499 68.528178 
L 169.637753 64.16176 
L 169.962516 67.381218 
L 170.07077 67.381218 
L 170.287279 64.16176 
L 170.612042 69.033669 
L 170.82855 62.590239 
L 170.936804 67.381218 
L 171.153313 65.758019 
L 171.261567 65.758019 
L 171.369821 67.381218 
L 171.478076 65.758019 
L 171.694584 69.033669 
L 171.911093 64.16176 
L 172.019347 65.758019 
L 172.235856 64.16176 
L 172.34411 64.16176 
L 172.452364 62.590239 
L 172.560618 64.16176 
L 172.668873 67.381218 
L 172.777127 64.16176 
L 172.885381 69.033669 
L 172.993635 61.041348 
L 173.10189 62.590239 
L 173.318398 65.758019 
L 173.426653 64.16176 
L 173.534907 65.758019 
L 173.751415 61.041348 
L 173.85967 62.590239 
L 174.076178 65.758019 
L 174.292687 61.041348 
L 174.509195 67.381218 
L 174.617449 64.16176 
L 174.833958 65.758019 
L 175.050467 65.758019 
L 175.158721 61.041348 
L 175.266975 64.16176 
L 175.375229 61.041348 
L 175.483484 62.590239 
L 175.591738 61.041348 
L 175.699992 64.16176 
L 175.808246 61.041348 
L 176.024755 67.381218 
L 176.241263 61.041348 
L 176.457772 64.16176 
L 176.674281 61.041348 
L 176.782535 65.758019 
L 176.999043 61.041348 
L 177.107298 62.590239 
L 177.43206 59.513067 
L 177.756823 62.590239 
L 177.865077 61.041348 
L 178.081586 64.16176 
L 178.298095 61.041348 
L 178.406349 61.041348 
L 178.622857 62.590239 
L 178.839366 67.381218 
L 179.055874 62.590239 
L 179.272383 65.758019 
L 179.380637 62.590239 
L 179.7054 65.758019 
L 179.813654 62.590239 
L 179.921909 65.758019 
L 180.030163 62.590239 
L 180.138417 70.236145 
L 180.246671 59.513067 
L 180.46318 62.590239 
L 180.571434 64.16176 
L 180.679688 59.513067 
L 180.787943 68.528178 
L 181.004451 64.16176 
L 181.112705 72.864664 
L 181.22096 64.16176 
L 181.329214 74.665111 
L 181.545723 65.758019 
L 181.653977 67.381218 
L 181.870485 61.041348 
L 182.086994 62.590239 
L 182.195248 62.590239 
L 182.411757 64.16176 
L 182.520011 74.665111 
L 182.736519 62.590239 
L 182.844774 65.758019 
L 182.953028 62.590239 
L 183.061282 64.16176 
L 183.169537 62.590239 
L 183.386045 74.665111 
L 183.494299 61.041348 
L 183.602554 64.16176 
L 183.710808 59.513067 
L 183.819062 67.686605 
L 183.927316 61.041348 
L 184.143825 65.758019 
L 184.252079 62.590239 
L 184.360333 71.103133 
L 184.576842 64.16176 
L 184.793351 64.16176 
L 184.901605 61.041348 
L 185.009859 62.590239 
L 185.118113 61.041348 
L 185.226368 67.920851 
L 185.442876 61.041348 
L 185.55113 61.041348 
L 185.659385 64.16176 
L 185.767639 61.041348 
L 185.984147 67.686605 
L 186.092402 61.041348 
L 186.200656 71.103133 
L 186.525419 59.513067 
L 186.633673 64.16176 
L 186.741927 61.041348 
L 186.958436 71.103133 
L 187.174944 73.759855 
L 187.283199 62.590239 
L 187.391453 64.16176 
L 187.499707 62.590239 
L 187.716216 65.758019 
L 187.82447 71.103133 
L 188.040979 70.236145 
L 188.257487 74.665111 
L 188.365741 74.665111 
L 188.473996 69.377927 
L 188.58225 70.236145 
L 188.798758 59.513067 
L 188.907013 71.979199 
L 189.123521 62.590239 
L 189.34003 71.979199 
L 189.448284 68.528178 
L 189.556538 73.759855 
L 189.773047 70.236145 
L 189.881301 74.665111 
L 190.206064 69.377927 
L 190.314318 71.979199 
L 190.422572 58.374135 
L 190.639081 70.236145 
L 190.747335 67.381218 
L 190.855589 69.033669 
L 190.963844 76.507227 
L 191.072098 70.236145 
L 191.180352 71.103133 
L 191.396861 78.393942 
L 191.505115 79.354994 
L 191.613369 71.103133 
L 191.829878 76.507227 
L 192.046386 77.444819 
L 192.154641 80.328384 
L 192.371149 78.393942 
L 192.479403 77.444819 
L 192.587658 78.393942 
L 192.695912 75.580782 
L 192.912421 80.328384 
L 193.020675 74.665111 
L 193.237183 77.444819 
L 193.345438 77.444819 
L 193.453692 70.236145 
L 193.6702 74.665111 
L 193.778455 72.864664 
L 193.994963 56.144573 
L 194.211472 74.665111 
L 194.42798 77.444819 
L 194.536235 72.385897 
L 194.644489 72.864664 
L 194.860997 77.444819 
L 195.18576 69.514924 
L 195.402269 75.580782 
L 195.510523 74.665111 
L 195.618777 76.507227 
L 195.835286 74.665111 
L 195.94354 65.758019 
L 196.051794 76.507227 
L 196.160049 75.580782 
L 196.268303 78.393942 
L 196.593066 73.759855 
L 196.70132 74.665111 
L 196.809574 72.864664 
L 196.917828 76.507227 
L 197.134337 74.665111 
L 197.242591 75.580782 
L 197.350845 77.444819 
L 197.4591 73.759855 
L 197.675608 80.328384 
L 197.783862 75.580782 
L 197.892117 78.393942 
L 198.108625 74.665111 
L 198.325134 73.759855 
L 198.433388 77.444819 
L 198.541642 76.507227 
L 198.649897 65.758019 
L 198.758151 78.393942 
L 198.866405 74.665111 
L 198.974659 75.580782 
L 199.082914 78.393942 
L 199.191168 67.381218 
L 199.407676 69.033669 
L 199.515931 67.381218 
L 199.624185 76.507227 
L 199.732439 67.381218 
L 199.840694 69.033669 
L 199.948948 77.444819 
L 200.057202 76.507227 
L 200.273711 64.16176 
L 200.381965 69.033669 
L 200.598473 62.590239 
L 200.814982 64.552961 
L 200.923236 74.665111 
L 201.139745 65.758019 
L 201.247999 65.758019 
L 201.464508 67.381218 
L 201.572762 64.16176 
L 201.681016 76.507227 
L 201.897525 67.381218 
L 202.005779 65.758019 
L 202.114033 78.393942 
L 202.222287 65.758019 
L 202.330542 77.444819 
L 202.438796 73.274796 
L 202.655304 80.328384 
L 202.763559 77.269043 
L 202.980067 65.758019 
L 203.196576 82.313898 
L 203.30483 70.7178 
L 203.521339 81.314539 
L 203.737847 70.7178 
L 204.06261 67.381218 
L 204.170864 69.033669 
L 204.279118 79.354994 
L 204.387373 69.033669 
L 204.712136 72.436183 
L 205.036898 69.033669 
L 205.145153 67.381218 
L 205.469915 70.7178 
L 205.57817 70.7178 
L 205.794678 69.033669 
L 205.902932 70.7178 
L 206.119441 67.381218 
L 206.33595 69.033669 
L 206.444204 69.033669 
L 206.552458 72.436183 
L 206.660712 69.033669 
L 206.877221 70.7178 
L 206.985475 70.7178 
L 207.201984 69.033669 
L 207.743255 69.033669 
L 207.851509 67.381218 
L 207.959764 70.7178 
L 208.176272 69.033669 
L 208.284526 69.033669 
L 208.392781 67.381218 
L 208.609289 69.033669 
L 208.717543 69.033669 
L 208.825798 67.381218 
L 209.042306 69.033669 
L 209.15056 67.381218 
L 209.258815 69.033669 
L 209.367069 67.381218 
L 209.583578 69.033669 
L 209.800086 69.033669 
L 210.016595 70.7178 
L 210.124849 67.381218 
L 210.341357 69.033669 
L 210.557866 69.033669 
L 210.66612 67.381218 
L 210.774374 69.033669 
L 210.990883 67.381218 
L 211.207392 69.033669 
L 211.315646 67.381218 
L 211.640409 72.436183 
L 211.748663 69.033669 
L 211.965171 70.7178 
L 212.18168 70.7178 
L 212.289934 69.033669 
L 212.398188 70.7178 
L 212.614697 67.381218 
L 212.831206 70.7178 
L 212.93946 69.033669 
L 213.155968 70.7178 
L 213.588985 70.7178 
L 213.913748 67.381218 
L 214.346765 72.436183 
L 214.45502 72.436183 
L 214.671528 70.7178 
L 214.779782 70.7178 
L 214.888037 72.436183 
L 214.996291 70.7178 
L 215.321054 74.191537 
L 215.645816 74.191537 
L 215.862325 75.986751 
L 215.970579 87.525347 
L 216.187088 75.986751 
L 216.511851 72.436183 
L 216.728359 75.986751 
L 217.053122 72.436183 
L 217.161376 74.191537 
L 217.26963 70.7178 
L 217.377885 72.436183 
L 217.594393 69.033669 
L 217.810902 69.033669 
L 218.02741 72.436183 
L 218.243919 70.7178 
L 218.352173 70.7178 
L 218.460427 65.758019 
L 218.568682 67.381218 
L 218.676936 65.758019 
L 218.893444 67.381218 
L 219.109953 65.758019 
L 219.218207 65.758019 
L 219.54297 62.590239 
L 219.651224 61.041348 
L 219.867733 64.16176 
L 220.084241 62.590239 
L 220.192496 62.590239 
L 220.30075 61.041348 
L 220.409004 62.590239 
L 220.625513 59.513067 
L 220.733767 62.590239 
L 220.842021 61.041348 
L 220.950276 62.590239 
L 221.166784 61.041348 
L 221.275038 62.590239 
L 221.383293 61.041348 
L 221.491547 64.16176 
L 221.708055 59.513067 
L 221.81631 59.513067 
L 222.141072 62.590239 
L 222.249327 61.041348 
L 222.465835 64.16176 
L 222.790598 59.513067 
L 222.898852 59.513067 
L 223.007107 61.041348 
L 223.115361 59.513067 
L 223.223615 61.041348 
L 223.331869 59.513067 
L 223.548378 61.041348 
L 223.764886 61.041348 
L 224.089649 58.003449 
L 224.306158 59.513067 
L 224.414412 58.003449 
L 224.522666 61.041348 
L 224.630921 59.513067 
L 224.739175 61.041348 
L 224.955683 59.513067 
L 225.280446 62.590239 
L 225.3887 62.590239 
L 225.605209 61.041348 
L 226.038226 61.041348 
L 226.254735 59.513067 
L 226.579497 59.513067 
L 226.687752 58.003449 
L 226.90426 59.513067 
L 227.229023 59.513067 
L 227.337277 58.003449 
L 227.445532 59.513067 
L 227.66204 58.003449 
L 227.878549 59.513067 
L 228.095057 58.003449 
L 228.311566 59.513067 
L 228.528074 59.513067 
L 228.636328 58.003449 
L 228.961091 61.041348 
L 229.285854 58.003449 
L 229.394108 58.003449 
L 229.502363 59.513067 
L 229.610617 58.003449 
L 229.718871 61.041348 
L 229.827125 59.513067 
L 229.93538 61.041348 
L 230.260142 56.510609 
L 230.368397 56.510609 
L 230.584905 58.003449 
L 230.909668 58.003449 
L 231.017922 59.513067 
L 231.234431 56.510609 
L 231.342685 59.513067 
L 231.667448 56.510609 
L 231.883956 58.003449 
L 232.100465 58.003449 
L 232.316974 56.510609 
L 232.749991 56.510609 
L 232.858245 58.003449 
L 233.074753 56.510609 
L 233.291262 56.510609 
L 233.399516 58.003449 
L 233.616025 55.032719 
L 233.724279 56.510609 
L 233.832533 55.032719 
L 234.049042 56.510609 
L 234.157296 55.032719 
L 234.373805 56.510609 
L 234.482059 55.032719 
L 234.698567 56.510609 
L 234.915076 55.032719 
L 235.239839 55.032719 
L 235.456347 56.510609 
L 235.564602 56.510609 
L 235.78111 53.568 
L 236.105873 56.510609 
L 236.214127 56.510609 
L 236.53889 53.568 
L 236.647144 63.492511 
L 236.863653 53.568 
L 236.971907 53.568 
L 237.080161 58.003449 
L 237.29667 55.032719 
L 237.404924 56.510609 
L 237.621433 55.032719 
L 237.729687 55.032719 
L 237.837941 58.003449 
L 238.162704 55.032719 
L 238.270958 55.032719 
L 238.487467 56.510609 
L 238.81223 53.568 
L 238.920484 56.510609 
L 239.245247 53.568 
L 239.461755 58.003449 
L 239.570009 58.003449 
L 239.678264 56.510609 
L 239.786518 58.003449 
L 240.003026 55.032719 
L 240.219535 56.510609 
L 240.327789 56.510609 
L 240.544298 58.003449 
L 240.760806 55.032719 
L 240.869061 56.510609 
L 240.977315 55.032719 
L 241.193823 56.510609 
L 241.410332 55.032719 
L 241.62684 55.032719 
L 241.843349 56.510609 
L 241.951603 55.032719 
L 242.059858 56.510609 
L 242.276366 55.032719 
L 242.38462 55.032719 
L 242.492875 56.510609 
L 242.709383 55.032719 
L 242.925892 56.510609 
L 243.1424 55.032719 
L 243.250654 56.510609 
L 243.358909 55.032719 
L 243.467163 58.003449 
L 243.683672 55.032719 
L 243.791926 56.510609 
L 244.116689 53.568 
L 244.224943 55.032719 
L 244.441451 53.568 
L 244.549706 56.510609 
L 244.766214 53.568 
L 244.874468 56.510609 
L 245.090977 53.568 
L 245.199231 53.568 
L 245.523994 56.510609 
L 245.632248 55.032719 
L 245.740503 58.003449 
L 245.848757 55.032719 
L 246.065265 56.510609 
L 246.281774 56.510609 
L 246.390028 55.032719 
L 246.498282 56.510609 
L 246.714791 55.032719 
L 246.9313 55.032719 
L 247.039554 53.568 
L 247.256062 55.032719 
L 247.689079 55.032719 
L 247.797334 56.510609 
L 247.905588 55.032719 
L 248.122096 56.510609 
L 248.230351 56.510609 
L 248.338605 55.032719 
L 248.446859 56.510609 
L 248.555114 55.032719 
L 248.771622 56.510609 
L 248.988131 55.032719 
L 249.096385 55.032719 
L 249.312893 53.568 
L 249.529402 53.568 
L 249.637656 56.510609 
L 249.74591 53.568 
L 249.962419 55.032719 
L 250.178928 55.032719 
L 250.287182 56.510609 
L 250.611945 53.568 
L 250.720199 53.568 
L 250.936707 55.032719 
L 251.26147 55.032719 
L 251.369724 56.510609 
L 251.586233 55.032719 
L 251.694487 56.510609 
L 251.802742 55.032719 
L 251.910996 56.510609 
L 252.01925 55.032719 
L 252.127504 56.510609 
L 252.235759 53.568 
L 252.344013 55.032719 
L 252.452267 53.568 
L 252.77703 56.510609 
L 253.101793 56.510609 
L 253.318301 55.032719 
L 253.53481 55.032719 
L 253.643064 53.568 
L 253.859573 58.003449 
L 254.076081 55.032719 
L 254.29259 56.510609 
L 254.509098 56.510609 
L 254.725607 55.032719 
L 254.833861 55.032719 
L 254.942115 53.568 
L 255.158624 55.032719 
L 255.483387 55.032719 
L 255.591641 56.510609 
L 255.916404 53.568 
L 256.241166 56.510609 
L 256.349421 56.510609 
L 256.565929 55.032719 
L 256.674184 55.032719 
L 256.890692 53.568 
L 257.215455 56.510609 
L 257.323709 55.032719 
L 257.540218 56.510609 
L 257.648472 56.510609 
L 257.86498 53.568 
L 258.081489 55.032719 
L 258.297998 53.568 
L 258.406252 53.568 
L 258.514506 56.510609 
L 258.731015 55.032719 
L 258.947523 55.032719 
L 259.164032 56.510609 
L 259.272286 56.510609 
L 259.488794 55.032719 
L 259.705303 55.032719 
L 259.921812 53.568 
L 260.13832 56.510609 
L 260.246574 56.510609 
L 260.463083 55.032719 
L 260.571337 55.032719 
L 260.787846 53.568 
L 261.004354 56.510609 
L 261.220863 55.032719 
L 261.329117 55.032719 
L 261.437371 53.568 
L 261.545626 55.032719 
L 261.65388 53.568 
L 261.978643 58.003449 
L 262.086897 53.568 
L 262.303405 55.032719 
L 262.519914 53.568 
L 262.628168 53.568 
L 262.736422 56.510609 
L 262.952931 53.568 
L 263.061185 55.032719 
L 263.16944 53.568 
L 263.385948 56.510609 
L 263.602457 53.568 
L 263.710711 56.510609 
L 263.818965 55.032719 
L 264.035474 56.510609 
L 264.251982 55.032719 
L 264.468491 56.510609 
L 264.576745 55.032719 
L 264.793254 56.510609 
L 265.009762 55.032719 
L 265.118016 56.510609 
L 265.334525 55.032719 
L 265.442779 55.032719 
L 265.551033 53.568 
L 265.659288 55.032719 
L 265.767542 53.568 
L 265.875796 55.032719 
L 265.98405 53.568 
L 266.308813 56.510609 
L 266.417068 55.032719 
L 266.525322 56.510609 
L 266.850085 53.568 
L 267.174847 56.510609 
L 267.391356 53.568 
L 267.607864 56.510609 
L 267.824373 56.510609 
L 267.932627 55.032719 
L 268.040882 56.510609 
L 268.25739 55.032719 
L 268.365644 55.032719 
L 268.582153 58.003449 
L 268.906916 53.568 
L 269.01517 55.032719 
L 269.123424 53.568 
L 269.231678 56.510609 
L 269.339933 55.032719 
L 269.448187 56.510609 
L 269.556441 55.032719 
L 269.664696 56.510609 
L 269.881204 55.032719 
L 270.53073 55.032719 
L 270.638984 56.510609 
L 270.747238 53.568 
L 270.855492 55.032719 
L 270.963747 53.568 
L 271.180255 55.032719 
L 271.28851 53.568 
L 271.505018 56.510609 
L 271.721527 53.568 
L 271.829781 55.032719 
L 272.046289 53.568 
L 272.154544 53.568 
L 272.371052 55.032719 
L 272.587561 53.568 
L 273.020578 53.568 
L 273.237086 55.032719 
L 273.453595 53.568 
L 273.778358 53.568 
L 273.886612 56.510609 
L 274.10312 53.568 
L 274.211375 56.510609 
L 274.427883 53.568 
L 274.8609 53.568 
L 275.077409 58.003449 
L 275.185663 53.568 
L 275.402172 55.032719 
L 275.510426 53.568 
L 275.61868 56.510609 
L 275.835189 55.032719 
L 275.943443 55.032719 
L 276.051697 56.510609 
L 276.159951 53.568 
L 276.37646 56.510609 
L 276.701223 56.510609 
L 276.809477 53.568 
L 277.025986 56.510609 
L 277.242494 56.510609 
L 277.350748 55.032719 
L 277.567257 56.510609 
L 277.783765 53.568 
L 278.000274 58.003449 
L 278.108528 56.510609 
L 278.325037 55.032719 
L 278.433291 58.003449 
L 278.758054 55.032719 
L 278.866308 56.510609 
L 278.974562 55.032719 
L 279.191071 56.510609 
L 279.840597 56.510609 
L 279.948851 55.032719 
L 280.057105 56.510609 
L 280.165359 55.032719 
L 280.273614 58.003449 
L 280.490122 56.510609 
L 280.706631 56.510609 
L 280.814885 55.032719 
L 281.031393 58.003449 
L 281.356156 55.032719 
L 281.572665 56.510609 
L 281.680919 55.032719 
L 281.897428 56.510609 
L 282.005682 55.032719 
L 282.22219 56.510609 
L 282.438699 55.032719 
L 282.763462 55.032719 
L 282.871716 56.510609 
L 283.196479 53.568 
L 283.521242 56.510609 
L 283.629496 55.032719 
L 283.846004 56.510609 
L 284.603784 56.510609 
L 284.820293 55.032719 
L 284.928547 55.032719 
L 285.036801 56.510609 
L 285.25331 55.032719 
L 285.686327 55.032719 
L 285.902835 53.568 
L 286.01109 56.510609 
L 286.227598 55.032719 
L 286.335853 56.510609 
L 286.552361 55.032719 
L 286.660615 55.032719 
L 286.76887 53.568 
L 286.985378 56.510609 
L 287.201887 53.568 
L 287.310141 55.032719 
L 287.418395 53.568 
L 287.526649 56.510609 
L 287.743158 53.568 
L 287.959667 56.510609 
L 288.176175 53.568 
L 288.392684 56.510609 
L 288.609192 53.568 
L 288.825701 56.510609 
L 288.933955 55.032719 
L 289.042209 56.510609 
L 289.258718 55.032719 
L 289.366972 56.510609 
L 289.583481 53.568 
L 289.691735 56.510609 
L 289.799989 53.568 
L 290.016498 58.003449 
L 290.124752 53.568 
L 290.34126 56.510609 
L 290.449515 53.568 
L 290.557769 56.510609 
L 290.774277 55.032719 
L 290.882532 55.032719 
L 290.990786 53.568 
L 291.09904 55.032719 
L 291.207295 53.568 
L 291.423803 55.032719 
L 291.640312 55.032719 
L 291.748566 53.568 
L 291.965074 55.032719 
L 292.181583 53.568 
L 292.398091 55.032719 
L 292.6146 53.568 
L 292.722854 53.568 
L 292.939363 55.032719 
L 293.047617 55.032719 
L 293.155871 53.568 
L 293.37238 55.032719 
L 293.480634 55.032719 
L 293.588888 53.568 
L 293.805397 55.032719 
L 294.021905 55.032719 
L 294.13016 56.510609 
L 294.238414 55.032719 
L 294.454923 56.510609 
L 294.671431 53.568 
L 294.88794 56.510609 
L 295.104448 55.032719 
L 295.212702 55.032719 
L 295.320957 56.510609 
L 295.429211 55.032719 
L 295.537465 56.510609 
L 295.862228 53.568 
L 296.078737 53.568 
L 296.295245 55.032719 
L 296.403499 55.032719 
L 296.728262 58.003449 
L 297.053025 55.032719 
L 297.161279 55.032719 
L 297.377788 56.510609 
L 297.486042 55.032719 
L 297.594296 56.510609 
L 297.810805 53.568 
L 298.135568 56.510609 
L 298.352076 55.032719 
L 298.893347 55.032719 
L 299.109856 56.510609 
L 299.434619 53.568 
L 299.651127 56.510609 
L 299.759382 55.032719 
L 299.867636 56.510609 
L 299.97589 55.032719 
L 300.084144 56.510609 
L 300.408907 53.568 
L 300.517161 53.568 
L 300.73367 55.032719 
L 300.841924 53.568 
L 300.950179 55.032719 
L 301.166687 53.568 
L 301.274941 53.568 
L 301.383196 56.510609 
L 301.49145 53.568 
L 301.816213 56.510609 
L 302.032721 55.032719 
L 302.140975 55.032719 
L 302.24923 56.510609 
L 302.465738 53.568 
L 302.682247 53.568 
L 302.790501 56.510609 
L 302.898755 53.568 
L 303.115264 55.032719 
L 303.331772 53.568 
L 303.440027 56.510609 
L 303.656535 55.032719 
L 303.764789 55.032719 
L 303.873044 53.568 
L 304.197807 56.510609 
L 304.306061 53.568 
L 304.522569 56.510609 
L 304.739078 55.032719 
L 304.847332 56.510609 
L 305.063841 55.032719 
L 305.172095 55.032719 
L 305.280349 53.568 
L 305.496858 55.032719 
L 305.713366 53.568 
L 306.254638 53.568 
L 306.471146 55.032719 
L 306.687655 55.032719 
L 306.795909 56.510609 
L 306.904163 53.568 
L 307.228926 56.510609 
L 307.445435 55.032719 
L 307.553689 55.032719 
L 307.770197 56.510609 
L 307.986706 55.032719 
L 308.527977 55.032719 
L 308.636231 53.568 
L 308.744486 56.510609 
L 308.960994 55.032719 
L 309.069249 55.032719 
L 309.177503 56.510609 
L 309.502266 53.568 
L 309.61052 56.510609 
L 309.827028 53.568 
L 310.043537 55.032719 
L 310.151791 55.032719 
L 310.3683 53.568 
L 310.476554 53.568 
L 310.584808 55.032719 
L 310.693063 53.568 
L 310.801317 55.032719 
L 311.017825 53.568 
L 311.234334 55.032719 
L 311.883859 55.032719 
L 312.100368 53.568 
L 312.208622 55.032719 
L 312.316877 53.568 
L 312.533385 55.032719 
L 312.641639 55.032719 
L 312.749894 53.568 
L 312.966402 55.032719 
L 313.182911 53.568 
L 313.291165 53.568 
L 313.399419 55.032719 
L 313.507673 53.568 
L 313.615928 55.032719 
L 313.724182 62.793404 
L 313.940691 53.926963 
L 314.157199 53.926963 
L 314.373708 55.028193 
L 314.914979 55.028193 
L 315.131487 53.926963 
L 315.997522 53.926963 
L 316.322284 56.144573 
L 316.430539 56.144573 
L 316.538793 55.028193 
L 316.755301 56.144573 
L 317.513081 56.144573 
L 317.621336 55.028193 
L 317.837844 56.144573 
L 318.48737 56.144573 
L 318.703878 56.531533 
L 319.028641 56.531533 
L 319.136895 56.144573 
L 319.353404 56.531533 
L 320.652455 56.531533 
L 320.868964 57.674713 
L 321.734998 57.674713 
L 321.843252 58.835389 
L 322.059761 57.674713 
L 325.84866 57.674713 
L 326.065168 58.835389 
L 326.173423 57.674713 
L 326.389931 58.835389 
L 326.60644 57.674713 
L 326.714694 57.674713 
L 326.931203 58.835389 
L 327.580728 58.835389 
L 327.688982 57.674713 
L 327.905491 58.835389 
L 329.312796 58.835389 
L 329.529305 59.253264 
L 329.745813 59.253264 
L 329.854068 58.835389 
L 330.070576 59.253264 
L 332.668679 59.253264 
L 332.776933 60.444538 
L 332.993441 59.253264 
L 333.534713 59.253264 
L 333.751221 60.444538 
L 333.859476 59.253264 
L 334.075984 60.444538 
L 334.292493 59.253264 
L 335.375035 59.253264 
L 335.48329 60.444538 
L 335.591544 59.253264 
L 335.808052 60.444538 
L 336.132815 60.444538 
L 336.241069 59.253264 
L 336.457578 60.444538 
L 336.565832 60.444538 
L 336.674087 59.253264 
L 336.890595 60.444538 
L 337.323612 60.444538 
L 337.431866 59.253264 
L 337.648375 60.444538 
L 338.947426 60.444538 
L 339.05568 59.253264 
L 339.272189 60.444538 
L 341.653783 60.444538 
L 341.762037 61.656095 
L 341.870291 60.444538 
L 342.0868 61.656095 
L 342.195054 60.444538 
L 342.303308 61.656095 
L 342.519817 60.444538 
L 343.277597 60.444538 
L 343.385851 61.656095 
L 343.710614 59.253264 
L 343.927122 60.444538 
L 344.143631 60.444538 
L 344.251885 61.656095 
L 344.468394 60.444538 
L 344.576648 61.656095 
L 344.684902 60.444538 
L 344.901411 61.656095 
L 345.009665 61.656095 
L 345.117919 62.108354 
L 345.334428 61.656095 
L 345.767445 63.355046 
L 345.983953 62.108354 
L 346.200462 63.355046 
L 346.308716 63.355046 
L 346.416971 64.625363 
L 346.633479 63.355046 
L 347.066496 63.355046 
L 347.283005 62.108354 
L 347.391259 63.355046 
L 347.607767 61.656095 
L 347.716022 61.656095 
L 347.824276 60.444538 
L 348.040785 61.656095 
L 348.257293 61.656095 
L 348.365547 62.108354 
L 348.473802 61.656095 
L 348.582056 62.108354 
L 348.798564 61.656095 
L 349.664599 61.656095 
L 349.881107 60.444538 
L 350.097616 61.656095 
L 350.314124 61.656095 
L 350.422378 62.108354 
L 350.530633 61.656095 
L 350.747141 62.108354 
L 350.855395 62.108354 
L 350.96365 61.656095 
L 351.071904 62.108354 
L 351.288413 63.355046 
L 351.396667 63.355046 
L 351.504921 62.108354 
L 351.72143 63.355046 
L 351.937938 63.355046 
L 352.154447 64.625363 
L 352.262701 63.355046 
L 352.370955 65.116167 
L 352.479209 63.355046 
L 352.587464 64.625363 
L 352.803972 63.355046 
L 352.912226 64.625363 
L 353.128735 63.355046 
L 353.236989 63.355046 
L 353.345244 62.108354 
L 353.453498 63.355046 
L 353.561752 62.108354 
L 353.778261 63.355046 
L 353.886515 63.355046 
L 354.103023 64.625363 
L 354.319532 65.116167 
L 354.427786 64.625363 
L 354.53604 65.116167 
L 354.644295 64.625363 
L 354.752549 65.116167 
L 354.860803 64.625363 
L 354.969058 65.116167 
L 355.077312 66.427085 
L 355.29382 64.625363 
L 355.510329 64.625363 
L 355.618583 65.116167 
L 355.726837 64.625363 
L 355.835092 65.116167 
L 356.0516 67.765665 
L 356.376363 65.116167 
L 356.592872 65.116167 
L 356.917634 67.765665 
L 357.350651 67.765665 
L 357.458906 66.427085 
L 357.675414 67.765665 
L 357.783668 67.765665 
L 358.000177 66.427085 
L 358.108431 66.427085 
L 358.216686 65.116167 
L 358.32494 66.427085 
L 358.541448 64.625363 
L 358.649703 65.116167 
L 358.866211 64.625363 
L 359.08272 65.116167 
L 359.299228 65.116167 
L 359.407482 66.427085 
L 359.623991 65.116167 
L 359.948754 65.116167 
L 360.057008 66.427085 
L 360.165262 65.116167 
L 360.273517 66.427085 
L 360.490025 65.116167 
L 360.598279 65.116167 
L 360.706534 66.427085 
L 360.923042 64.625363 
L 361.139551 65.116167 
L 361.247805 65.116167 
L 361.464314 64.625363 
L 361.572568 65.116167 
L 361.680822 66.427085 
L 361.897331 64.625363 
L 362.005585 65.116167 
L 362.222093 64.625363 
L 362.438602 64.625363 
L 362.763365 66.427085 
L 362.871619 65.116167 
L 362.979873 66.427085 
L 363.196382 64.625363 
L 363.41289 65.116167 
L 363.521145 65.116167 
L 363.737653 66.427085 
L 363.845907 66.427085 
L 363.954162 65.116167 
L 364.17067 66.427085 
L 364.495433 66.427085 
L 364.603687 65.116167 
L 364.711942 67.765665 
L 364.92845 66.427085 
L 365.361467 66.427085 
L 365.469721 65.116167 
L 365.577976 66.427085 
L 365.68623 65.116167 
L 365.902738 66.427085 
L 366.010993 66.427085 
L 366.227501 65.116167 
L 366.335756 66.427085 
L 366.552264 65.116167 
L 366.660518 65.116167 
L 366.768773 66.427085 
L 366.985281 65.116167 
L 367.20179 66.427085 
L 367.418298 66.427085 
L 367.526552 65.116167 
L 367.743061 66.427085 
L 367.95957 66.427085 
L 368.067824 68.300051 
L 368.284332 67.765665 
L 368.392587 68.300051 
L 368.609095 67.765665 
L 368.825604 68.300051 
L 368.933858 67.765665 
L 369.150366 68.300051 
L 369.258621 67.765665 
L 369.366875 69.685883 
L 369.583384 67.765665 
L 369.799892 67.765665 
L 370.016401 66.427085 
L 370.124655 66.427085 
L 370.341163 68.300051 
L 370.557672 67.765665 
L 370.665926 69.685883 
L 370.882435 67.765665 
L 370.990689 67.765665 
L 371.098943 69.685883 
L 371.315452 68.300051 
L 371.423706 68.300051 
L 371.53196 67.765665 
L 371.640215 68.300051 
L 371.856723 67.765665 
L 372.28974 67.765665 
L 372.397994 68.300051 
L 372.614503 67.765665 
L 372.722757 67.765665 
L 372.939266 68.300051 
L 373.04752 67.765665 
L 373.264029 68.300051 
L 373.588791 68.300051 
L 373.697046 67.765665 
L 373.913554 68.300051 
L 374.238317 68.300051 
L 374.346571 69.685883 
L 374.454826 67.765665 
L 374.887843 69.685883 
L 374.996097 69.685883 
L 375.104351 68.300051 
L 375.212605 69.685883 
L 375.32086 68.300051 
L 375.537368 69.685883 
L 375.645622 68.300051 
L 375.862131 69.685883 
L 375.970385 68.300051 
L 376.295148 71.104307 
L 376.403402 69.685883 
L 376.511657 71.104307 
L 376.619911 69.685883 
L 376.836419 71.104307 
L 376.944674 71.104307 
L 377.161182 71.688426 
L 377.269436 71.104307 
L 377.485945 71.688426 
L 377.918962 71.688426 
L 378.027216 73.162268 
L 378.135471 71.688426 
L 378.460233 74.67478 
L 378.568488 73.162268 
L 378.784996 74.67478 
L 378.89325 73.162268 
L 379.109759 75.316225 
L 379.218013 74.67478 
L 379.326268 76.894295 
L 379.434522 75.316225 
L 379.542776 76.894295 
L 379.759285 75.316225 
L 380.084047 78.518623 
L 380.192302 76.894295 
L 380.40881 78.518623 
L 380.517064 78.518623 
L 380.625319 79.226878 
L 380.733573 80.929511 
L 380.841827 80.860173 
L 380.950082 78.518623 
L 381.16659 79.226878 
L 381.383099 78.518623 
L 381.491353 78.518623 
L 381.599607 80.929511 
L 381.816116 79.226878 
L 382.032624 79.226878 
L 382.249133 78.518623 
L 382.465641 78.518623 
L 382.790404 80.929511 
L 382.898658 78.518623 
L 383.115167 79.226878 
L 383.223421 79.226878 
L 383.331675 78.518623 
L 383.764692 80.929511 
L 383.872947 79.226878 
L 384.089455 80.929511 
L 384.305964 79.226878 
L 384.630727 82.687998 
L 384.738981 80.929511 
L 384.847235 82.687998 
L 384.955489 80.929511 
L 385.063744 83.475066 
L 385.280252 82.687998 
L 385.388506 85.328106 
L 385.605015 82.687998 
L 385.821524 87.249318 
L 386.038032 82.687998 
L 386.146286 87.249318 
L 386.362795 85.328106 
L 386.579303 87.249318 
L 386.687558 87.249318 
L 386.795812 85.328106 
L 387.01232 88.130613 
L 387.120575 87.249318 
L 387.337083 88.130613 
L 387.445338 87.249318 
L 387.661846 88.130613 
L 387.7701 87.249318 
L 388.094863 90.167417 
L 388.311372 87.249318 
L 388.419626 88.130613 
L 388.852643 85.328106 
L 388.960897 85.328106 
L 389.177406 87.249318 
L 389.393914 83.475066 
L 389.610423 87.249318 
L 389.826931 87.249318 
L 389.935186 88.130613 
L 390.04344 85.328106 
L 390.151694 88.130613 
L 390.259948 85.328106 
L 390.368203 88.130613 
L 390.476457 87.249318 
L 390.584711 90.167417 
L 390.80122 87.249318 
L 391.017728 93.284124 
L 391.125983 90.167417 
L 391.342491 95.548498 
L 391.450745 93.284124 
L 391.559 97.918511 
L 391.667254 95.548498 
L 391.883762 97.918511 
L 391.992017 97.918511 
L 392.208525 101.605976 
L 392.31678 104.291353 
L 392.425034 97.918511 
L 392.533288 104.291353 
L 392.641542 101.605976 
L 392.749797 104.291353 
L 392.858051 111.616007 
L 392.966305 97.918511 
L 393.074559 101.605976 
L 393.291068 113.159122 
L 393.507576 108.523246 
L 393.724085 113.159122 
L 393.832339 113.159122 
L 394.048848 120.1882 
L 394.157102 116.556762 
L 394.265356 122.033392 
L 394.373611 120.1882 
L 394.481865 122.033392 
L 394.590119 120.1882 
L 394.698373 122.033392 
L 394.914882 126.076439 
L 398.487273 126.076439 
L 398.487273 126.076439 
" clip-path="url(#p38dfee0368)" style="fill: none; stroke: #1f77b4; stroke-width: 1.5; stroke-linecap: square"/>
   </g>
   <g id="patch_3">
    <path d="M 57.6 307.584 
L 57.6 41.472 
" style="fill: none; stroke: #000000; stroke-width: 0.8; stroke-linejoin: miter; stroke-linecap: square"/>
   </g>
   <g id="patch_4">
    <path d="M 414.72 307.584 
L 414.72 41.472 
" style="fill: none; stroke: #000000; stroke-width: 0.8; stroke-linejoin: miter; stroke-linecap: square"/>
   </g>
   <g id="patch_5">
    <path d="M 57.6 307.584 
L 414.72 307.584 
" style="fill: none; stroke: #000000; stroke-width: 0.8; stroke-linejoin: miter; stroke-linecap: square"/>
   </g>
   <g id="patch_6">
    <path d="M 57.6 41.472 
L 414.72 41.472 
" style="fill: none; stroke: #000000; stroke-width: 0.8; stroke-linejoin: miter; stroke-linecap: square"/>
   </g>
  </g>
 </g>
 <defs>
  <clipPath id="p38dfee0368">
   <rect x="57.6" y="41.472" width="357.12" height="266.112"/>
  </clipPath>
 </defs>
</svg>
