<?xml version="1.0" encoding="utf-8" standalone="no"?>
<!DOCTYPE svg PUBLIC "-//W3C//DTD SVG 1.1//EN"
  "http://www.w3.org/Graphics/SVG/1.1/DTD/svg11.dtd">
<svg xmlns:xlink="http://www.w3.org/1999/xlink" width="460.8pt" height="345.6pt" viewBox="0 0 460.8 345.6" xmlns="http://www.w3.org/2000/svg" version="1.1">
 <metadata>
  <rdf:RDF xmlns:dc="http://purl.org/dc/elements/1.1/" xmlns:cc="http://creativecommons.org/ns#" xmlns:rdf="http://www.w3.org/1999/02/22-rdf-syntax-ns#">
   <cc:Work>
    <dc:type rdf:resource="http://purl.org/dc/dcmitype/StillImage"/>
    <dc:date>2024-04-27T13:33:31.392766</dc:date>
    <dc:format>image/svg+xml</dc:format>
    <dc:creator>
     <cc:Agent>
      <dc:title>Matplotlib v3.8.2, https://matplotlib.org/</dc:title>
     </cc:Agent>
    </dc:creator>
   </cc:Work>
  </rdf:RDF>
 </metadata>
 <defs>
  <style type="text/css">*{stroke-linejoin: round; stroke-linecap: butt}</style>
 </defs>
 <g id="figure_1">
  <g id="patch_1">
   <path d="M 0 345.6 
L 460.8 345.6 
L 460.8 0 
L 0 0 
z
" style="fill: #ffffff"/>
  </g>
  <g id="axes_1">
   <g id="patch_2">
    <path d="M 57.6 307.584 
L 414.72 307.584 
L 414.72 41.472 
L 57.6 41.472 
z
" style="fill: #ffffff"/>
   </g>
   <g id="matplotlib.axis_1">
    <g id="xtick_1">
     <g id="line2d_1">
      <defs>
       <path id="me516a0f657" d="M 0 0 
L 0 3.5 
" style="stroke: #000000; stroke-width: 0.8"/>
      </defs>
      <g>
       <use xlink:href="#me516a0f657" x="73.832727" y="307.584" style="stroke: #000000; stroke-width: 0.8"/>
      </g>
     </g>
     <g id="text_1">
      <!-- 0 -->
      <g transform="translate(70.651477 322.182437) scale(0.1 -0.1)">
       <defs>
        <path id="DejaVuSans-30" d="M 2034 4250 
Q 1547 4250 1301 3770 
Q 1056 3291 1056 2328 
Q 1056 1369 1301 889 
Q 1547 409 2034 409 
Q 2525 409 2770 889 
Q 3016 1369 3016 2328 
Q 3016 3291 2770 3770 
Q 2525 4250 2034 4250 
z
M 2034 4750 
Q 2819 4750 3233 4129 
Q 3647 3509 3647 2328 
Q 3647 1150 3233 529 
Q 2819 -91 2034 -91 
Q 1250 -91 836 529 
Q 422 1150 422 2328 
Q 422 3509 836 4129 
Q 1250 4750 2034 4750 
z
" transform="scale(0.015625)"/>
       </defs>
       <use xlink:href="#DejaVuSans-30"/>
      </g>
     </g>
    </g>
    <g id="xtick_2">
     <g id="line2d_2">
      <g>
       <use xlink:href="#me516a0f657" x="138.77013" y="307.584" style="stroke: #000000; stroke-width: 0.8"/>
      </g>
     </g>
     <g id="text_2">
      <!-- 2000 -->
      <g transform="translate(126.04513 322.182437) scale(0.1 -0.1)">
       <defs>
        <path id="DejaVuSans-32" d="M 1228 531 
L 3431 531 
L 3431 0 
L 469 0 
L 469 531 
Q 828 903 1448 1529 
Q 2069 2156 2228 2338 
Q 2531 2678 2651 2914 
Q 2772 3150 2772 3378 
Q 2772 3750 2511 3984 
Q 2250 4219 1831 4219 
Q 1534 4219 1204 4116 
Q 875 4013 500 3803 
L 500 4441 
Q 881 4594 1212 4672 
Q 1544 4750 1819 4750 
Q 2544 4750 2975 4387 
Q 3406 4025 3406 3419 
Q 3406 3131 3298 2873 
Q 3191 2616 2906 2266 
Q 2828 2175 2409 1742 
Q 1991 1309 1228 531 
z
" transform="scale(0.015625)"/>
       </defs>
       <use xlink:href="#DejaVuSans-32"/>
       <use xlink:href="#DejaVuSans-30" x="63.623047"/>
       <use xlink:href="#DejaVuSans-30" x="127.246094"/>
       <use xlink:href="#DejaVuSans-30" x="190.869141"/>
      </g>
     </g>
    </g>
    <g id="xtick_3">
     <g id="line2d_3">
      <g>
       <use xlink:href="#me516a0f657" x="203.707533" y="307.584" style="stroke: #000000; stroke-width: 0.8"/>
      </g>
     </g>
     <g id="text_3">
      <!-- 4000 -->
      <g transform="translate(190.982533 322.182437) scale(0.1 -0.1)">
       <defs>
        <path id="DejaVuSans-34" d="M 2419 4116 
L 825 1625 
L 2419 1625 
L 2419 4116 
z
M 2253 4666 
L 3047 4666 
L 3047 1625 
L 3713 1625 
L 3713 1100 
L 3047 1100 
L 3047 0 
L 2419 0 
L 2419 1100 
L 313 1100 
L 313 1709 
L 2253 4666 
z
" transform="scale(0.015625)"/>
       </defs>
       <use xlink:href="#DejaVuSans-34"/>
       <use xlink:href="#DejaVuSans-30" x="63.623047"/>
       <use xlink:href="#DejaVuSans-30" x="127.246094"/>
       <use xlink:href="#DejaVuSans-30" x="190.869141"/>
      </g>
     </g>
    </g>
    <g id="xtick_4">
     <g id="line2d_4">
      <g>
       <use xlink:href="#me516a0f657" x="268.644936" y="307.584" style="stroke: #000000; stroke-width: 0.8"/>
      </g>
     </g>
     <g id="text_4">
      <!-- 6000 -->
      <g transform="translate(255.919936 322.182437) scale(0.1 -0.1)">
       <defs>
        <path id="DejaVuSans-36" d="M 2113 2584 
Q 1688 2584 1439 2293 
Q 1191 2003 1191 1497 
Q 1191 994 1439 701 
Q 1688 409 2113 409 
Q 2538 409 2786 701 
Q 3034 994 3034 1497 
Q 3034 2003 2786 2293 
Q 2538 2584 2113 2584 
z
M 3366 4563 
L 3366 3988 
Q 3128 4100 2886 4159 
Q 2644 4219 2406 4219 
Q 1781 4219 1451 3797 
Q 1122 3375 1075 2522 
Q 1259 2794 1537 2939 
Q 1816 3084 2150 3084 
Q 2853 3084 3261 2657 
Q 3669 2231 3669 1497 
Q 3669 778 3244 343 
Q 2819 -91 2113 -91 
Q 1303 -91 875 529 
Q 447 1150 447 2328 
Q 447 3434 972 4092 
Q 1497 4750 2381 4750 
Q 2619 4750 2861 4703 
Q 3103 4656 3366 4563 
z
" transform="scale(0.015625)"/>
       </defs>
       <use xlink:href="#DejaVuSans-36"/>
       <use xlink:href="#DejaVuSans-30" x="63.623047"/>
       <use xlink:href="#DejaVuSans-30" x="127.246094"/>
       <use xlink:href="#DejaVuSans-30" x="190.869141"/>
      </g>
     </g>
    </g>
    <g id="xtick_5">
     <g id="line2d_5">
      <g>
       <use xlink:href="#me516a0f657" x="333.582339" y="307.584" style="stroke: #000000; stroke-width: 0.8"/>
      </g>
     </g>
     <g id="text_5">
      <!-- 8000 -->
      <g transform="translate(320.857339 322.182437) scale(0.1 -0.1)">
       <defs>
        <path id="DejaVuSans-38" d="M 2034 2216 
Q 1584 2216 1326 1975 
Q 1069 1734 1069 1313 
Q 1069 891 1326 650 
Q 1584 409 2034 409 
Q 2484 409 2743 651 
Q 3003 894 3003 1313 
Q 3003 1734 2745 1975 
Q 2488 2216 2034 2216 
z
M 1403 2484 
Q 997 2584 770 2862 
Q 544 3141 544 3541 
Q 544 4100 942 4425 
Q 1341 4750 2034 4750 
Q 2731 4750 3128 4425 
Q 3525 4100 3525 3541 
Q 3525 3141 3298 2862 
Q 3072 2584 2669 2484 
Q 3125 2378 3379 2068 
Q 3634 1759 3634 1313 
Q 3634 634 3220 271 
Q 2806 -91 2034 -91 
Q 1263 -91 848 271 
Q 434 634 434 1313 
Q 434 1759 690 2068 
Q 947 2378 1403 2484 
z
M 1172 3481 
Q 1172 3119 1398 2916 
Q 1625 2713 2034 2713 
Q 2441 2713 2670 2916 
Q 2900 3119 2900 3481 
Q 2900 3844 2670 4047 
Q 2441 4250 2034 4250 
Q 1625 4250 1398 4047 
Q 1172 3844 1172 3481 
z
" transform="scale(0.015625)"/>
       </defs>
       <use xlink:href="#DejaVuSans-38"/>
       <use xlink:href="#DejaVuSans-30" x="63.623047"/>
       <use xlink:href="#DejaVuSans-30" x="127.246094"/>
       <use xlink:href="#DejaVuSans-30" x="190.869141"/>
      </g>
     </g>
    </g>
    <g id="xtick_6">
     <g id="line2d_6">
      <g>
       <use xlink:href="#me516a0f657" x="398.519741" y="307.584" style="stroke: #000000; stroke-width: 0.8"/>
      </g>
     </g>
     <g id="text_6">
      <!-- 10000 -->
      <g transform="translate(382.613491 322.182437) scale(0.1 -0.1)">
       <defs>
        <path id="DejaVuSans-31" d="M 794 531 
L 1825 531 
L 1825 4091 
L 703 3866 
L 703 4441 
L 1819 4666 
L 2450 4666 
L 2450 531 
L 3481 531 
L 3481 0 
L 794 0 
L 794 531 
z
" transform="scale(0.015625)"/>
       </defs>
       <use xlink:href="#DejaVuSans-31"/>
       <use xlink:href="#DejaVuSans-30" x="63.623047"/>
       <use xlink:href="#DejaVuSans-30" x="127.246094"/>
       <use xlink:href="#DejaVuSans-30" x="190.869141"/>
       <use xlink:href="#DejaVuSans-30" x="254.492188"/>
      </g>
     </g>
    </g>
   </g>
   <g id="matplotlib.axis_2">
    <g id="ytick_1">
     <g id="line2d_7">
      <defs>
       <path id="m3efea19719" d="M 0 0 
L -3.5 0 
" style="stroke: #000000; stroke-width: 0.8"/>
      </defs>
      <g>
       <use xlink:href="#m3efea19719" x="57.6" y="261.919284" style="stroke: #000000; stroke-width: 0.8"/>
      </g>
     </g>
     <g id="text_7">
      <!-- −100 -->
      <g transform="translate(23.132812 265.718502) scale(0.1 -0.1)">
       <defs>
        <path id="DejaVuSans-2212" d="M 678 2272 
L 4684 2272 
L 4684 1741 
L 678 1741 
L 678 2272 
z
" transform="scale(0.015625)"/>
       </defs>
       <use xlink:href="#DejaVuSans-2212"/>
       <use xlink:href="#DejaVuSans-31" x="83.789062"/>
       <use xlink:href="#DejaVuSans-30" x="147.412109"/>
       <use xlink:href="#DejaVuSans-30" x="211.035156"/>
      </g>
     </g>
    </g>
    <g id="ytick_2">
     <g id="line2d_8">
      <g>
       <use xlink:href="#m3efea19719" x="57.6" y="206.114026" style="stroke: #000000; stroke-width: 0.8"/>
      </g>
     </g>
     <g id="text_8">
      <!-- −50 -->
      <g transform="translate(29.495313 209.913245) scale(0.1 -0.1)">
       <defs>
        <path id="DejaVuSans-35" d="M 691 4666 
L 3169 4666 
L 3169 4134 
L 1269 4134 
L 1269 2991 
Q 1406 3038 1543 3061 
Q 1681 3084 1819 3084 
Q 2600 3084 3056 2656 
Q 3513 2228 3513 1497 
Q 3513 744 3044 326 
Q 2575 -91 1722 -91 
Q 1428 -91 1123 -41 
Q 819 9 494 109 
L 494 744 
Q 775 591 1075 516 
Q 1375 441 1709 441 
Q 2250 441 2565 725 
Q 2881 1009 2881 1497 
Q 2881 1984 2565 2268 
Q 2250 2553 1709 2553 
Q 1456 2553 1204 2497 
Q 953 2441 691 2322 
L 691 4666 
z
" transform="scale(0.015625)"/>
       </defs>
       <use xlink:href="#DejaVuSans-2212"/>
       <use xlink:href="#DejaVuSans-35" x="83.789062"/>
       <use xlink:href="#DejaVuSans-30" x="147.412109"/>
      </g>
     </g>
    </g>
    <g id="ytick_3">
     <g id="line2d_9">
      <g>
       <use xlink:href="#m3efea19719" x="57.6" y="150.308768" style="stroke: #000000; stroke-width: 0.8"/>
      </g>
     </g>
     <g id="text_9">
      <!-- 0 -->
      <g transform="translate(44.2375 154.107987) scale(0.1 -0.1)">
       <use xlink:href="#DejaVuSans-30"/>
      </g>
     </g>
    </g>
    <g id="ytick_4">
     <g id="line2d_10">
      <g>
       <use xlink:href="#m3efea19719" x="57.6" y="94.50351" style="stroke: #000000; stroke-width: 0.8"/>
      </g>
     </g>
     <g id="text_10">
      <!-- 50 -->
      <g transform="translate(37.875 98.302729) scale(0.1 -0.1)">
       <use xlink:href="#DejaVuSans-35"/>
       <use xlink:href="#DejaVuSans-30" x="63.623047"/>
      </g>
     </g>
    </g>
   </g>
   <g id="line2d_11">
    <path d="M 73.832727 268.148996 
L 73.897665 145.708099 
L 73.930133 151.991604 
L 73.962602 277.171427 
L 74.027539 155.468497 
L 74.060008 141.658902 
L 74.157414 146.594319 
L 74.25482 151.471811 
L 74.287289 90.630482 
L 74.352226 151.889102 
L 74.384695 147.682807 
L 74.449633 148.296883 
L 74.482101 102.02327 
L 74.547039 149.515034 
L 74.579507 266.103573 
L 74.611976 149.194001 
L 74.644445 153.031149 
L 74.676914 94.278177 
L 74.741851 145.54984 
L 74.77432 217.624718 
L 74.806788 134.288557 
L 74.839257 143.779871 
L 74.871726 155.536208 
L 74.936663 54.533802 
L 74.969132 117.903664 
L 75.001601 192.9386 
L 75.066538 191.486261 
L 75.163944 145.8645 
L 75.196413 149.491569 
L 75.228881 149.04101 
L 75.358756 262.714683 
L 75.5211 149.491569 
L 75.618506 262.714683 
L 75.650975 149.285847 
L 75.748381 149.885106 
L 75.813318 268.167901 
L 75.845787 195.984799 
L 75.943193 149.940677 
L 75.910724 222.359848 
L 75.975662 153.563619 
L 76.00813 153.563619 
L 76.170474 172.918306 
L 76.26788 205.194487 
L 76.300349 189.42144 
L 76.332817 189.42144 
L 76.495161 189.716718 
L 76.527629 189.491099 
L 76.592567 189.797834 
L 76.625036 189.716718 
L 76.657504 189.8821 
L 76.689973 190.571401 
L 76.722442 189.797834 
L 76.75491 189.797834 
L 76.917254 190.355241 
L 76.949723 190.685898 
L 76.982191 190.461241 
L 77.112066 193.076608 
L 77.306878 193.076608 
L 77.404284 163.080425 
L 77.501691 166.413834 
L 77.566628 193.076547 
L 77.599097 170.099665 
L 77.728971 157.285773 
L 77.76144 155.991859 
L 77.793909 176.424439 
L 77.858846 155.991859 
L 77.988721 153.563619 
L 78.086127 153.563619 
L 78.118596 154.75222 
L 78.183533 153.563619 
L 78.216002 153.563619 
L 78.313408 155.991859 
L 78.378345 153.563619 
L 78.410814 155.991859 
L 78.573158 153.563619 
L 78.605626 153.563619 
L 78.735501 154.75222 
L 78.76797 154.75222 
L 78.800439 153.563619 
L 78.865376 191.945393 
L 78.962782 189.354386 
L 92.047669 189.354386 
L 92.177544 53.568 
L 92.664574 53.568 
L 92.794449 55.028193 
L 92.826918 64.625363 
L 92.956792 189.354386 
L 93.119136 189.354386 
L 93.249011 53.568 
L 93.281479 53.568 
L 93.443823 217.352125 
L 93.476292 57.948902 
L 93.541229 129.474045 
L 93.606166 295.488 
L 93.638635 145.016626 
L 93.671104 116.818 
L 93.76851 217.352125 
L 93.800979 87.78392 
L 93.865916 217.352125 
L 94.093197 217.352125 
L 94.125666 295.488 
L 94.158134 189.354386 
L 94.190603 189.354386 
L 96.593287 189.354386 
L 96.658224 217.352125 
L 96.690693 189.354386 
L 96.950443 189.354386 
L 97.01538 217.352125 
L 97.047849 189.354386 
L 97.502411 189.354386 
L 97.534879 217.352125 
L 97.599817 189.354386 
L 102.567528 189.354386 
L 102.632465 90.167417 
L 102.664934 93.284124 
L 102.697403 189.354386 
L 102.729872 88.130613 
L 102.76234 88.130613 
L 102.794809 90.167417 
L 102.924684 189.354386 
L 102.989621 189.354386 
L 103.119496 217.352125 
L 103.249371 189.354386 
L 103.411714 189.354386 
L 103.541589 217.352125 
L 103.574058 217.352125 
L 103.606526 189.354386 
L 103.671464 217.352125 
L 103.76887 217.352125 
L 103.898745 189.354386 
L 104.093557 189.354386 
L 104.126026 217.352125 
L 104.190963 189.354386 
L 104.223432 189.354386 
L 104.2559 295.488 
L 104.320838 189.354386 
L 104.385775 189.354386 
L 104.51565 217.352125 
L 104.645525 189.354386 
L 104.677994 189.354386 
L 104.807868 217.352125 
L 104.840337 217.352125 
L 105.002681 82.687998 
L 105.100087 295.488 
L 105.132555 189.354386 
L 105.26243 88.130613 
L 105.294899 88.130613 
L 105.424774 189.354386 
L 105.554649 217.352125 
L 105.814398 73.162268 
L 105.846867 75.316225 
L 105.911804 73.162268 
L 106.00921 217.352125 
L 106.139085 76.228821 
L 106.171554 76.894295 
L 106.236491 72.557611 
L 106.301429 161.842144 
L 106.333897 161.842144 
L 106.431303 217.352125 
L 106.463772 175.392498 
L 106.496241 127.57251 
L 106.561178 155.856195 
L 106.593647 155.856246 
L 106.626116 150.308816 
L 106.658584 168.329115 
L 106.691053 161.8422 
L 106.723522 140.328285 
L 106.755991 191.636195 
L 106.820928 189.354386 
L 106.885865 217.352125 
L 106.918334 217.352125 
L 106.950803 211.603923 
L 107.01574 217.352125 
L 107.080678 175.392498 
L 107.145615 217.352125 
L 107.178084 211.603923 
L 107.340427 168.329115 
L 107.405365 183.123798 
L 107.502771 127.57251 
L 107.535239 155.856195 
L 107.567708 168.329115 
L 107.600177 161.842144 
L 107.76252 69.685883 
L 107.794989 68.300051 
L 107.892395 155.856195 
L 107.924864 135.813439 
L 107.957332 123.794544 
L 107.989801 145.147528 
L 108.02227 140.328285 
L 108.054739 135.813439 
L 108.087207 145.147528 
L 108.282019 183.123798 
L 108.476832 104.736494 
L 108.5093 87.783901 
L 108.541769 104.736494 
L 108.574238 155.856195 
L 108.639175 140.328285 
L 108.704113 116.818 
L 108.76905 155.856195 
L 108.833987 150.308768 
L 108.931394 116.818 
L 108.963862 123.794544 
L 108.996331 127.57251 
L 109.0288 110.501695 
L 109.061268 145.147528 
L 109.191143 120.215853 
L 109.223612 135.813439 
L 109.288549 116.818 
L 109.450893 85.676492 
L 109.483361 87.783901 
L 109.51583 89.958167 
L 109.580768 113.58474 
L 109.613236 107.556082 
L 109.743111 79.709295 
L 109.77558 85.676492 
L 109.937923 116.818 
L 109.970392 110.501695 
L 110.002861 110.501695 
L 110.067798 131.570775 
L 110.100267 127.57251 
L 110.132735 116.818 
L 110.197673 127.57251 
L 110.230142 127.57251 
L 110.26261 135.813439 
L 110.327548 127.57251 
L 110.360016 127.57251 
L 110.457422 107.556082 
L 110.489891 120.215853 
L 110.52236 123.794544 
L 110.587297 102.032706 
L 110.652235 107.556082 
L 110.782109 113.58474 
L 110.911984 94.528594 
L 110.944453 102.032706 
L 110.976922 102.032706 
L 111.041859 89.958167 
L 111.139265 92.204503 
L 111.171734 89.958167 
L 111.204203 94.528594 
L 111.236671 94.528594 
L 111.26914 99.435527 
L 111.334077 96.936661 
L 111.366546 89.958167 
L 111.431484 94.528594 
L 111.463952 99.435527 
L 111.496421 89.958167 
L 111.52889 85.676492 
L 111.561358 87.783901 
L 111.593827 102.032706 
L 111.691233 96.936661 
L 111.723702 89.958167 
L 111.788639 94.528594 
L 111.821108 102.032706 
L 111.853577 89.958167 
L 111.950983 79.709295 
L 112.01592 81.643444 
L 112.048389 79.709295 
L 112.080858 81.643444 
L 112.243201 92.204503 
L 112.308138 89.958167 
L 112.340607 89.958167 
L 112.405545 87.783901 
L 112.470482 94.528594 
L 112.535419 81.643444 
L 112.600357 83.631147 
L 112.730232 96.936661 
L 112.7627 102.032706 
L 112.795169 99.435527 
L 112.860106 92.204503 
L 112.925044 94.528594 
L 112.989981 96.936661 
L 113.087387 77.824907 
L 113.119856 87.783901 
L 113.152325 85.676492 
L 113.184793 94.528594 
L 113.249731 83.631147 
L 113.314668 83.631147 
L 113.444543 75.986751 
L 113.606887 92.204503 
L 113.704293 75.986751 
L 113.736761 79.709295 
L 113.866636 85.676492 
L 113.996511 79.709295 
L 114.02898 79.709295 
L 114.061448 83.631147 
L 114.093917 77.824907 
L 114.126386 77.824907 
L 114.158854 79.709295 
L 114.256261 72.436183 
L 114.288729 75.986751 
L 114.321198 75.986751 
L 114.451073 77.824907 
L 114.483541 77.824907 
L 114.613416 79.709295 
L 114.678354 79.709295 
L 114.808228 81.643444 
L 114.840697 81.643444 
L 114.873166 79.709295 
L 114.938103 81.643444 
L 115.003041 81.643444 
L 115.035509 77.824907 
L 115.165384 148.282306 
L 115.327728 148.32919 
L 116.074508 148.417829 
L 116.334257 148.505079 
L 119.02916 148.611798 
L 119.223972 148.694779 
L 120.327908 148.788119 
L 120.52272 148.892735 
L 120.620126 148.838955 
L 120.652595 215.988524 
L 120.685063 215.789089 
L 120.750001 57.410138 
L 120.814938 59.187058 
L 120.847407 58.710016 
L 120.879876 59.187058 
L 120.944813 61.805481 
L 120.977282 59.225156 
L 121.042219 215.826475 
L 121.107157 215.813475 
L 121.301969 216.0082 
L 121.431844 148.838955 
L 121.659124 149.009698 
L 121.821468 149.073191 
L 121.951343 149.140253 
L 125.230682 149.140253 
L 125.360556 149.009698 
L 125.425494 149.073191 
L 125.555369 149.140253 
L 125.652775 149.073191 
L 125.78265 149.140253 
L 130.036049 149.140253 
L 130.068518 167.140171 
L 130.133456 149.140253 
L 130.165924 149.140253 
L 130.198393 151.836224 
L 130.26333 149.140253 
L 130.620486 149.140253 
L 130.652955 154.70221 
L 130.717892 149.140253 
L 130.815298 149.140253 
L 130.847767 151.836224 
L 130.912704 149.140253 
L 131.107517 149.140253 
L 131.139985 146.472685 
L 131.237391 160.637808 
L 131.26986 146.472685 
L 131.367266 149.140253 
L 135.068698 149.073191 
L 135.198573 149.009698 
L 155.491511 148.9496 
L 155.52398 151.652469 
L 155.588917 148.892735 
L 155.718792 148.9496 
L 156.238291 148.892735 
L 156.303229 151.652469 
L 156.335698 148.892735 
L 157.114946 148.892735 
L 157.147415 151.652469 
L 157.212353 148.9496 
L 157.861727 148.892735 
L 157.959133 168.379934 
L 158.02407 148.892735 
L 158.089007 151.652469 
L 158.153945 151.652469 
L 158.218882 168.379934 
L 158.251351 159.647758 
L 158.28382 151.652469 
L 158.316288 160.464243 
L 158.381226 168.379934 
L 158.511101 148.892735 
L 158.673444 161.72701 
L 158.738381 169.14189 
L 158.803319 142.21708 
L 158.933194 162.88234 
L 158.965662 162.88234 
L 159.0306 151.652469 
L 159.063068 163.624301 
L 159.095537 154.459318 
L 159.225412 148.9496 
L 159.322818 215.988524 
L 159.387756 154.459318 
L 159.420224 206.580688 
L 159.51763 166.919623 
L 159.582568 142.21708 
L 159.615036 144.675971 
L 159.712443 199.69577 
L 159.77738 185.891214 
L 159.809849 185.891214 
L 159.842317 154.459318 
L 159.874786 199.69577 
L 159.939723 157.376931 
L 159.972192 166.919623 
L 160.004661 148.892735 
L 160.03713 154.459318 
L 160.069598 148.892735 
L 160.134536 154.459318 
L 160.167004 154.459318 
L 160.361817 136.599635 
L 160.459223 132.572887 
L 160.654035 161.313872 
L 160.881316 86.977588 
L 161.011191 86.977588 
L 161.108597 90.170794 
L 161.141065 87.625902 
L 161.206003 89.746539 
L 161.238471 89.048731 
L 161.400815 98.123899 
L 161.433284 93.376684 
L 161.465752 95.593575 
L 161.53069 112.021758 
L 161.563158 96.816664 
L 161.855377 93.191004 
L 161.887846 93.191004 
L 161.920314 89.75694 
L 161.985252 93.191004 
L 162.01772 102.104818 
L 162.082658 93.191004 
L 162.147595 93.191004 
L 162.180064 94.346721 
L 162.245001 93.191004 
L 162.27747 93.191004 
L 162.407345 90.849796 
L 162.602157 90.849796 
L 162.796969 87.530469 
L 162.861907 87.530469 
L 162.991781 89.75694 
L 163.056719 89.75694 
L 163.186594 85.47604 
L 163.381406 85.47604 
L 163.478812 88.684525 
L 163.511281 85.47604 
L 163.576218 88.684525 
L 163.641155 88.684525 
L 163.77103 90.946814 
L 163.900905 87.6319 
L 164.322998 87.6319 
L 164.452873 83.493383 
L 164.582748 84.476013 
L 164.907435 84.476013 
L 164.972372 81.46272 
L 165.004841 84.476013 
L 165.329528 84.476013 
L 165.459403 78.577487 
L 165.589277 81.46272 
L 165.621746 81.46272 
L 165.751621 78.577487 
L 165.78409 79.487313 
L 165.913964 81.46272 
L 166.043839 78.577487 
L 166.076308 79.487313 
L 166.108777 78.577487 
L 166.141245 76.6785 
L 166.206183 77.682124 
L 166.336058 78.577487 
L 166.465932 75.807387 
L 166.563339 75.807387 
L 166.595807 78.577487 
L 166.660745 75.807387 
L 166.790619 75.807387 
L 166.823088 76.6785 
L 166.855557 75.807387 
L 166.888026 73.976905 
L 166.920494 76.6785 
L 166.985432 76.6785 
L 167.115306 73.976905 
L 167.147775 75.807387 
L 167.180244 73.976905 
L 167.310119 71.371735 
L 167.342587 73.976905 
L 167.407525 71.371735 
L 167.439993 68.853232 
L 167.504931 71.371735 
L 167.5374 71.371735 
L 167.667274 67.940747 
L 167.699743 70.436122 
L 167.732212 67.940747 
L 167.894555 58.77995 
L 167.959493 57.246381 
L 167.991961 59.267136 
L 168.056899 57.592239 
L 168.251711 56.005682 
L 168.28418 56.412667 
L 168.316648 59.32131 
L 168.381586 56.750659 
L 168.478992 57.80699 
L 168.511461 63.209069 
L 168.608867 63.113787 
L 168.641335 62.696245 
L 168.673804 62.71653 
L 169.290709 82.3013 
L 169.355647 81.618352 
L 169.388116 82.338007 
L 169.420584 82.3013 
L 169.453053 81.618352 
L 169.582928 86.467725 
L 169.745271 88.033222 
L 169.77774 87.399515 
L 169.810209 87.399515 
L 169.842677 88.874414 
L 169.940083 88.393344 
L 169.972552 88.393344 
L 170.03749 87.796565 
L 170.069958 88.393344 
L 170.102427 88.393344 
L 170.26477 91.248449 
L 170.394645 87.796565 
L 170.459583 89.45306 
L 170.492051 88.393344 
L 170.52452 88.314949 
L 170.556989 87.796565 
L 170.589457 88.393344 
L 170.621926 89.45306 
L 170.686864 88.314949 
L 170.719332 88.314949 
L 170.751801 88.961469 
L 170.78427 87.796565 
L 170.816738 87.796565 
L 170.849207 88.961469 
L 170.914145 87.8033 
L 170.979082 88.316463 
L 171.011551 85.595026 
L 171.076488 87.8033 
L 171.108957 86.119238 
L 171.141425 83.480858 
L 171.173894 86.746758 
L 171.206363 84.075694 
L 171.238832 86.205466 
L 171.303769 84.574217 
L 171.401175 82.011129 
L 171.466112 85.088691 
L 171.498581 84.075694 
L 171.595987 82.989388 
L 171.725862 84.075694 
L 171.758331 84.075694 
L 171.953143 79.064901 
L 171.985612 82.00721 
L 172.050549 80.001509 
L 172.147955 80.001509 
L 172.27783 82.011129 
L 172.310299 82.011129 
L 172.342767 80.001509 
L 172.407705 82.011129 
L 172.472642 82.011129 
L 172.667454 76.23726 
L 172.699923 76.23726 
L 172.732392 76.672955 
L 172.797329 82.011129 
L 172.862267 81.51837 
L 172.992141 75.251202 
L 173.057079 77.134294 
L 173.089548 75.251202 
L 173.154485 75.251202 
L 173.219422 77.134294 
L 173.251891 73.008243 
L 173.316828 77.134294 
L 173.349297 77.134294 
L 173.479172 73.008243 
L 173.544109 80.001509 
L 173.609047 77.134294 
L 174.063609 77.134294 
L 174.225952 72.5601 
L 174.323358 76.23726 
L 174.420764 59.230209 
L 174.453233 63.677548 
L 174.51817 62.936174 
L 174.615576 74.076488 
L 174.648045 64.552909 
L 174.680514 76.340842 
L 174.745451 67.729433 
L 174.875326 59.372284 
L 175.03767 64.26008 
L 175.102607 60.600738 
L 175.26495 72.352757 
L 175.297419 62.649503 
L 175.394825 66.50675 
L 175.459763 66.50675 
L 175.492231 74.076488 
L 175.557169 66.50675 
L 175.622106 78.24483 
L 175.687044 70.236522 
L 175.751981 69.777437 
L 175.849387 74.54138 
L 175.881856 71.890987 
L 175.946793 71.06665 
L 176.011731 74.54138 
L 176.076668 74.076488 
L 176.141605 71.890987 
L 176.27148 75.922625 
L 176.303949 74.076488 
L 176.368886 75.922625 
L 176.401355 75.922625 
L 176.433824 74.59226 
L 176.563699 78.24483 
L 176.855917 78.24483 
L 176.985792 75.460058 
L 177.148135 75.460058 
L 177.213073 77.339884 
L 177.245541 75.460058 
L 177.375416 75.460058 
L 177.505291 77.339884 
L 177.635166 75.460058 
L 177.732572 78.351103 
L 177.765041 75.571062 
L 177.829978 77.449218 
L 177.894915 77.449218 
L 177.992321 79.37498 
L 178.089728 76.561229 
L 178.219602 79.37498 
L 178.252071 79.37498 
L 178.317008 81.352019 
L 178.446883 78.461909 
L 178.609227 78.461909 
L 178.641695 80.412013 
L 178.674164 77.563215 
L 178.706633 76.6785 
L 178.804039 81.578282 
L 178.836508 80.644854 
L 179.161195 80.644854 
L 179.193663 79.726905 
L 179.258601 80.644854 
L 179.291069 80.644854 
L 179.323538 77.806213 
L 179.388476 79.726905 
L 179.843037 79.726905 
L 179.875506 81.217063 
L 179.907975 78.824012 
L 179.940443 78.824012 
L 179.972912 80.769056 
L 180.03785 80.294069 
L 180.070318 79.833453 
L 180.167724 77.479186 
L 180.297599 80.294069 
L 180.52488 78.493635 
L 180.557349 78.493635 
L 180.589818 81.347542 
L 180.654755 78.932068 
L 180.687224 78.932068 
L 180.719692 79.964875 
L 180.752161 78.932068 
L 180.849567 71.777285 
L 180.979442 80.425634 
L 181.109317 70.966745 
L 181.174254 80.425634 
L 181.206723 78.045371 
L 181.239192 70.966745 
L 181.27166 81.034839 
L 181.304129 81.034839 
L 181.336598 76.751316 
L 181.401535 79.519091 
L 181.434004 79.657368 
L 181.498941 82.095831 
L 181.53141 71.841311 
L 181.596347 80.559949 
L 181.661285 78.184599 
L 181.758691 71.03256 
L 181.791159 72.454604 
L 181.888566 78.184599 
L 181.953503 79.067339 
L 181.985972 71.03256 
L 182.115846 80.559949 
L 182.343127 70.508621 
L 182.473002 76.462035 
L 182.53794 70.000986 
L 182.570408 77.316282 
L 182.602877 77.466185 
L 182.635346 77.316282 
L 182.700283 70.577903 
L 182.732752 80.264242 
L 182.830158 78.05047 
L 182.862627 78.05047 
L 182.895095 78.330228 
L 182.927564 74.794415 
L 183.02497 76.051838 
L 183.122376 79.802083 
L 183.154845 73.857491 
L 183.252251 75.219418 
L 183.317188 73.857491 
L 183.349657 77.466185 
L 183.414595 75.219418 
L 183.544469 73.054171 
L 183.576938 73.054171 
L 183.641875 75.219418 
L 183.674344 73.054171 
L 183.934094 73.054171 
L 184.161375 70.542782 
L 184.291249 76.194178 
L 184.51853 70.542782 
L 184.77828 70.542782 
L 184.810749 72.263292 
L 184.875686 71.845488 
L 185.005561 69.782577 
L 185.03803 70.542782 
L 185.102967 69.782577 
L 185.200373 69.782577 
L 185.330248 72.436183 
L 187.830338 72.436183 
L 187.927744 73.766166 
L 188.02515 72.019624 
L 188.057619 72.436183 
L 188.252431 72.436183 
L 188.382306 73.766166 
L 188.447243 72.436183 
L 188.512181 72.019624 
L 188.544649 77.558132 
L 188.674524 70.7178 
L 188.77193 74.718426 
L 188.901805 70.7178 
L 188.934274 77.558132 
L 189.03168 76.119544 
L 189.064149 76.119544 
L 189.29143 70.7178 
L 189.356367 70.7178 
L 189.486242 76.119544 
L 189.616117 70.7178 
L 189.713523 70.7178 
L 189.745991 78.406161 
L 189.810929 72.019624 
L 189.908335 72.019624 
L 189.940804 73.352498 
L 189.973272 79.43761 
L 190.005741 70.7178 
L 190.03821 70.7178 
L 190.070678 72.019624 
L 190.135616 70.7178 
L 190.362897 70.7178 
L 190.427834 72.436183 
L 190.460303 70.7178 
L 190.622646 70.7178 
L 190.655115 72.436183 
L 190.720052 70.7178 
L 190.849927 70.7178 
L 190.979802 73.352498 
L 191.109677 70.7178 
L 191.336958 70.7178 
L 191.401895 76.949206 
L 191.434364 74.148722 
L 191.53177 70.7178 
L 191.564239 76.949206 
L 191.629176 70.7178 
L 191.661645 70.7178 
L 191.726582 77.362004 
L 191.79152 76.949206 
L 191.856457 70.7178 
L 191.888926 81.446106 
L 191.953863 70.7178 
L 192.0188 75.530841 
L 192.083738 72.800655 
L 192.116207 71.484586 
L 192.181144 72.800655 
L 192.343487 78.406161 
L 192.375956 76.949206 
L 192.505831 72.800655 
L 192.5383 72.800655 
L 192.700643 75.530841 
L 192.765581 71.484586 
L 192.798049 72.800655 
L 192.830518 75.530841 
L 192.862987 70.7178 
L 192.992861 70.7178 
L 193.057799 72.800655 
L 193.122736 71.484586 
L 193.155205 71.484586 
L 193.187674 72.800655 
L 193.252611 71.484586 
L 193.350017 70.7178 
L 193.479892 72.800655 
L 193.642235 70.7178 
L 193.77211 70.7178 
L 193.804579 72.436183 
L 193.869516 70.7178 
L 194.453953 70.7178 
L 194.583828 69.033669 
L 194.648765 70.7178 
L 194.681234 69.033669 
L 194.713703 69.033669 
L 194.843577 70.7178 
L 194.973452 69.033669 
L 195.168264 69.033669 
L 195.200733 70.7178 
L 195.265671 69.033669 
L 195.460483 69.033669 
L 195.557889 67.381218 
L 195.655295 69.033669 
L 195.687764 67.381218 
L 195.752701 69.033669 
L 195.882576 69.033669 
L 196.012451 67.381218 
L 196.369606 67.381218 
L 196.434544 65.758019 
L 196.467013 67.381218 
L 196.53195 67.381218 
L 196.596887 65.758019 
L 196.629356 67.381218 
L 196.661825 67.381218 
L 196.759231 64.16176 
L 196.7917 65.758019 
L 196.824168 67.381218 
L 196.889106 65.758019 
L 197.01898 64.16176 
L 197.148855 65.758019 
L 197.27873 64.16176 
L 197.506011 64.16176 
L 197.635886 62.590239 
L 197.700823 62.590239 
L 197.733292 64.16176 
L 197.798229 62.590239 
L 197.928104 62.590239 
L 197.993041 61.041348 
L 198.02551 62.590239 
L 198.155385 62.590239 
L 198.187854 61.041348 
L 198.252791 62.590239 
L 198.317729 62.590239 
L 198.447603 61.041348 
L 198.480072 62.590239 
L 198.545009 61.041348 
L 198.642416 61.041348 
L 198.77229 62.590239 
L 198.869696 61.041348 
L 198.934634 62.590239 
L 198.967103 61.041348 
L 199.03204 61.041348 
L 199.161915 62.21388 
L 199.29179 61.041348 
L 199.324258 60.670013 
L 199.389196 61.041348 
L 199.616477 61.041348 
L 199.713883 59.513067 
L 199.843757 61.041348 
L 199.908695 61.041348 
L 199.941164 59.513067 
L 200.006101 60.670013 
L 200.103507 61.041348 
L 200.233382 59.513067 
L 200.298319 59.513067 
L 200.395725 61.041348 
L 200.493131 59.513067 
L 200.5256 61.041348 
L 200.590538 59.513067 
L 200.752881 59.513067 
L 200.78535 61.041348 
L 200.850287 59.513067 
L 201.337318 59.513067 
L 201.402255 59.146379 
L 201.434724 59.513067 
L 201.564599 59.513067 
L 201.597067 58.003449 
L 201.662005 59.513067 
L 201.694473 61.041348 
L 201.759411 59.513067 
L 201.824348 58.003449 
L 201.856817 59.513067 
L 201.921754 59.513067 
L 201.954223 61.041348 
L 202.01916 59.513067 
L 202.116567 59.513067 
L 202.149035 61.041348 
L 202.213973 59.513067 
L 202.376316 59.513067 
L 202.408785 58.003449 
L 202.473722 59.513067 
L 202.506191 59.513067 
L 202.636066 58.003449 
L 202.733472 59.513067 
L 202.830878 58.003449 
L 202.895815 59.513067 
L 202.928284 58.003449 
L 203.058159 58.003449 
L 203.090628 59.513067 
L 203.155565 58.003449 
L 203.382846 58.003449 
L 203.447783 59.513067 
L 203.480252 58.003449 
L 204.03222 58.003449 
L 204.064689 56.510609 
L 204.129626 58.003449 
L 204.162095 58.003449 
L 204.194563 56.510609 
L 204.259501 58.003449 
L 204.421844 58.003449 
L 204.454313 56.510609 
L 204.51925 58.003449 
L 204.584188 58.003449 
L 204.714063 56.510609 
L 204.746531 56.510609 
L 204.876406 58.003449 
L 205.006281 56.510609 
L 205.103687 56.510609 
L 205.136156 58.003449 
L 205.201093 56.510609 
L 205.233562 56.510609 
L 205.363437 58.003449 
L 205.493312 56.510609 
L 205.817999 56.510609 
L 205.915405 58.003449 
L 206.045279 56.510609 
L 206.077748 58.003449 
L 206.142686 56.510609 
L 206.369966 56.510609 
L 206.499841 58.003449 
L 206.629716 56.510609 
L 206.824528 56.510609 
L 206.889466 55.032719 
L 206.921934 56.510609 
L 207.766121 56.510609 
L 207.895995 55.032719 
L 208.02587 56.510609 
L 208.155745 55.032719 
L 208.28562 55.032719 
L 208.383026 56.510609 
L 208.512901 55.032719 
L 208.707713 55.032719 
L 208.740182 56.510609 
L 208.805119 55.032719 
L 209.0324 55.032719 
L 209.064869 56.510609 
L 209.129806 55.032719 
L 209.194743 55.032719 
L 209.324618 56.510609 
L 209.422024 56.510609 
L 209.551899 55.032719 
L 209.584368 56.510609 
L 209.649305 55.032719 
L 210.396085 55.032719 
L 210.428554 56.510609 
L 210.493492 55.032719 
L 211.305209 55.032719 
L 211.337678 56.996291 
L 211.370146 81.1745 
L 211.467553 76.547738 
L 211.564959 83.31121 
L 211.597427 83.054035 
L 211.629896 81.496422 
L 211.662365 83.888166 
L 211.79224 86.369516 
L 211.824708 84.900086 
L 211.857177 87.035809 
L 211.889646 86.27921 
L 211.922114 86.27921 
L 211.954583 86.975987 
L 211.987052 86.27921 
L 212.01952 85.025353 
L 212.084458 86.27921 
L 212.116927 85.629501 
L 212.149395 86.37907 
L 212.214333 86.574107 
L 212.246801 86.37907 
L 212.311739 86.27921 
L 212.474082 83.707434 
L 212.603957 82.968968 
L 212.831238 80.929511 
L 212.863707 80.929511 
L 212.993582 80.192785 
L 213.123456 80.277491 
L 213.188394 81.172607 
L 213.318269 79.226878 
L 213.415675 79.226878 
L 213.545549 78.518623 
L 213.642956 78.518623 
L 213.77283 77.827454 
L 213.805299 77.827454 
L 213.837768 77.700177 
L 213.870236 86.774861 
L 213.935174 76.894295 
L 214.422204 76.894295 
L 214.552079 76.228805 
L 214.746891 76.228805 
L 214.876766 75.316225 
L 215.396265 75.316225 
L 215.428734 74.67478 
L 215.493672 75.316225 
L 215.52614 75.316225 
L 215.656015 74.67478 
L 215.980702 74.67478 
L 216.110577 74.048287 
L 216.435264 74.048287 
L 216.565139 73.162268 
L 217.084638 73.162268 
L 217.214513 72.557611 
L 217.441794 72.557611 
L 217.571668 71.688426 
L 217.961293 71.688426 
L 217.993762 71.887469 
L 218.123636 71.104307 
L 218.188574 71.104307 
L 218.318449 71.309295 
L 218.350917 71.309295 
L 218.545729 69.769035 
L 218.578198 79.426761 
L 218.643136 69.769035 
L 218.740542 70.615993 
L 218.870416 69.769035 
L 218.902885 86.774861 
L 218.967823 69.769035 
L 219.097697 87.919234 
L 219.130166 69.769035 
L 219.195104 79.426761 
L 219.227572 79.426761 
L 219.357447 69.769035 
L 219.422384 69.769035 
L 219.552259 78.98488 
L 219.584728 78.576054 
L 219.617197 79.426761 
L 219.649665 79.426761 
L 219.682134 88.91531 
L 219.747071 80.470121 
L 219.77954 80.893185 
L 219.876946 78.576054 
L 219.909415 80.023232 
L 219.941884 80.023232 
L 219.974352 79.426761 
L 220.03929 80.023232 
L 220.136696 80.893185 
L 220.169165 80.023232 
L 220.234102 80.893185 
L 220.396445 83.484615 
L 220.558789 81.955831 
L 220.623726 83.484615 
L 220.721132 80.893185 
L 220.753601 81.511035 
L 220.915945 83.484615 
L 221.045819 81.511035 
L 221.208163 83.042053 
L 221.338038 81.511035 
L 221.370507 81.511035 
L 221.53285 83.042053 
L 221.565319 81.511035 
L 221.597787 83.042053 
L 221.630256 84.135024 
L 221.662725 83.042053 
L 221.695194 82.146932 
L 221.760131 83.042053 
L 221.7926 83.042053 
L 221.825068 82.146932 
L 221.890006 83.042053 
L 221.922474 83.042053 
L 222.052349 82.146932 
L 222.084818 83.701602 
L 222.117287 81.08013 
L 222.149755 82.146932 
L 222.214693 82.146932 
L 222.377036 83.701602 
L 222.441974 83.701602 
L 222.571848 81.724919 
L 222.669255 82.801506 
L 222.701723 82.613811 
L 222.734192 82.613811 
L 222.766661 83.701602 
L 222.799129 81.724919 
L 222.831598 82.613811 
L 222.896535 82.613811 
L 222.993942 81.724919 
L 223.02641 83.282552 
L 223.091348 81.724919 
L 223.123816 82.613811 
L 223.221222 82.388567 
L 223.318629 82.388567 
L 223.416035 84.193709 
L 223.448503 83.971123 
L 223.513441 82.877568 
L 223.54591 83.971123 
L 223.578378 83.971123 
L 223.740722 81.989318 
L 223.805659 83.782802 
L 223.870597 82.877568 
L 223.903065 82.877568 
L 223.935534 81.799065 
L 224.000471 82.877568 
L 224.03294 82.877568 
L 224.065409 83.386051 
L 224.162815 81.799065 
L 224.357627 91.398961 
L 224.455033 83.386051 
L 224.487502 84.48672 
L 224.519971 83.386051 
L 224.552439 91.398961 
L 224.617377 83.386051 
L 224.682314 83.386051 
L 224.747251 82.48636 
L 224.77972 83.386051 
L 224.812189 83.386051 
L 224.844658 91.398961 
L 224.909595 89.641912 
L 225.03947 84.099636 
L 225.071938 84.099636 
L 225.104407 85.022934 
L 225.136876 84.099636 
L 225.266751 83.003169 
L 225.299219 83.003169 
L 225.461563 90.942032 
L 225.591438 83.003169 
L 225.721312 84.644602 
L 225.753781 99.873051 
L 225.78625 84.099636 
L 225.818719 89.182394 
L 225.883656 85.022934 
L 225.916125 90.942032 
L 225.948593 83.003169 
L 225.981062 84.099636 
L 226.078468 85.764677 
L 226.110937 84.644602 
L 226.143406 96.219529 
L 226.240812 92.762876 
L 226.305749 92.762876 
L 226.338218 84.644602 
L 226.403155 85.396504 
L 226.53303 92.762876 
L 226.565499 92.762876 
L 226.597967 85.764677 
L 226.662905 90.942032 
L 226.695374 90.942032 
L 226.760311 84.644602 
L 226.79278 88.074457 
L 226.955123 92.762876 
L 226.987592 92.762876 
L 227.117467 90.942032 
L 227.149935 90.942032 
L 227.214873 92.762876 
L 227.344748 88.739558 
L 227.377216 89.182394 
L 227.442154 88.739558 
L 227.572028 88.739558 
L 227.734372 83.003169 
L 227.864247 103.746368 
L 227.994122 85.382965 
L 228.02659 93.841337 
L 228.091528 88.739558 
L 228.123996 85.382965 
L 228.188934 87.034311 
L 228.221403 87.034311 
L 228.351277 83.346289 
L 228.448683 85.382965 
L 228.481152 82.228689 
L 228.578558 83.346289 
L 228.611027 84.949941 
L 228.675964 83.346289 
L 228.805839 81.790248 
L 228.935714 83.782132 
L 229.03312 81.790248 
L 229.098057 83.782132 
L 229.130526 82.228689 
L 229.227932 82.228689 
L 229.325338 81.790248 
L 229.357807 83.782132 
L 229.390276 83.346289 
L 229.520151 80.278889 
L 229.552619 82.228689 
L 229.617557 81.790248 
L 229.682494 82.228689 
L 229.714963 80.278889 
L 229.7799 81.790248 
L 229.812369 80.719754 
L 229.844838 80.278889 
L 229.974712 82.228689 
L 230.007181 82.228689 
L 230.137056 81.790248 
L 230.299399 85.382965 
L 230.429274 83.346289 
L 230.461743 83.346289 
L 230.559149 85.382965 
L 230.624086 83.346289 
L 230.656555 83.782132 
L 230.689024 85.382965 
L 230.721493 83.346289 
L 230.753961 83.346289 
L 230.78643 83.346289 
L 230.851367 85.382965 
L 230.883836 84.949941 
L 230.948773 83.346289 
L 230.981242 84.531816 
L 231.04618 84.949941 
L 231.143586 83.346289 
L 231.695554 106.890751 
L 231.728022 104.471337 
L 231.79296 104.849019 
L 231.987772 112.792617 
L 232.020241 112.425906 
L 232.052709 112.425906 
L 232.085178 109.779919 
L 232.150115 112.792617 
L 232.27999 112.792617 
L 232.312459 113.186178 
L 232.377396 115.939135 
L 232.409865 112.792617 
L 232.442334 112.792617 
L 232.474802 113.186178 
L 232.53974 110.15955 
L 232.604677 115.939135 
L 232.669615 112.792617 
L 232.702083 115.939135 
L 232.799489 115.939135 
L 232.831958 113.186178 
L 232.864427 118.836194 
L 232.961833 118.836194 
L 233.059239 115.559137 
L 233.091708 118.836194 
L 233.189114 118.472131 
L 233.28652 118.472131 
L 233.351457 115.207485 
L 233.383926 118.472131 
L 233.416395 118.472131 
L 233.578738 112.425906 
L 233.643676 112.792617 
L 233.676144 112.425906 
L 233.708613 112.425906 
L 233.741082 112.792617 
L 233.77355 110.15955 
L 233.838488 112.792617 
L 234.000831 112.792617 
L 234.098237 113.186178 
L 234.195644 110.15955 
L 234.228112 110.56467 
L 234.29305 110.56467 
L 234.422924 94.602134 
L 234.455393 94.602134 
L 234.487862 95.254596 
L 234.520331 108.063471 
L 234.585268 94.602134 
L 234.650205 96.343491 
L 234.682674 93.971534 
L 234.747611 96.343491 
L 234.78008 96.343491 
L 234.845018 94.602134 
L 234.974892 97.64906 
L 235.104767 96.343491 
L 235.137236 95.731963 
L 235.234642 97.64906 
L 235.299579 96.343491 
L 235.332048 97.64906 
L 235.396986 97.64906 
L 235.52686 96.343491 
L 235.656735 97.64906 
L 235.689204 96.343491 
L 235.754141 97.64906 
L 235.851547 97.64906 
L 235.981422 102.953065 
L 236.013891 98.513761 
L 236.04636 105.249316 
L 236.078828 102.953065 
L 236.176234 105.249316 
L 236.306109 97.097972 
L 236.371047 98.513761 
L 236.403515 97.097972 
L 236.468453 97.097972 
L 236.500921 95.771869 
L 236.565859 96.936661 
L 236.598327 96.936661 
L 236.728202 95.771869 
L 236.825608 96.568055 
L 236.890546 95.221186 
L 236.923014 96.568055 
L 237.020421 96.568055 
L 237.052889 98.00599 
L 237.117827 96.568055 
L 237.215233 94.528594 
L 237.28017 96.568055 
L 237.312639 95.221186 
L 237.442514 94.528594 
L 237.474982 97.519107 
L 237.53992 94.528594 
L 237.637326 96.936661 
L 237.767201 94.528594 
L 239.098417 94.528594 
L 239.228292 96.936661 
L 239.520511 96.936661 
L 239.747792 107.556082 
L 239.877666 107.556082 
L 240.007541 106.845665 
L 240.072479 106.845665 
L 240.202353 108.350737 
L 240.299759 106.845665 
L 240.397166 108.350737 
L 240.52704 106.845665 
L 240.559509 106.845665 
L 240.591978 108.350737 
L 240.656915 107.556082 
L 240.689384 107.556082 
L 240.78679 109.037222 
L 240.916665 107.556082 
L 241.014071 107.556082 
L 241.04654 109.037222 
L 241.111477 107.556082 
L 241.176414 107.556082 
L 241.306289 109.753853 
L 241.436164 109.753853 
L 241.468633 108.296327 
L 241.501101 109.753853 
L 241.53357 111.317053 
L 241.566039 109.753853 
L 241.598507 109.067474 
L 241.630976 110.501695 
L 241.760851 110.501695 
L 241.79332 112.03985 
L 241.858257 111.281883 
L 241.890726 111.281883 
L 241.955663 112.795345 
L 241.988132 111.281883 
L 242.020601 111.281883 
L 242.150475 113.58474 
L 242.377756 113.58474 
L 242.507631 115.982347 
L 242.5401 114.409322 
L 242.605037 115.982347 
L 242.734912 115.27047 
L 242.864787 116.818 
L 242.897256 115.27047 
L 242.962193 116.818 
L 243.189474 116.818 
L 243.319349 116.16966 
L 243.351817 116.16966 
L 243.514161 119.328564 
L 243.579098 119.328564 
L 243.611567 119.56178 
L 243.708973 118.606087 
L 243.838848 120.215853 
L 243.968723 119.56178 
L 244.03366 119.56178 
L 244.163535 121.145203 
L 244.196004 121.145203 
L 244.228472 122.84944 
L 244.29341 122.118413 
L 244.390816 122.118413 
L 244.423285 124.204301 
L 244.488222 123.137417 
L 244.520691 123.137417 
L 244.650565 124.785885 
L 244.715503 124.785885 
L 244.812909 124.204301 
L 244.975252 126.915713 
L 245.235002 126.915713 
L 245.429814 132.147871 
L 245.592158 132.147871 
L 245.754501 135.171173 
L 245.78697 135.171173 
L 245.819439 137.042476 
L 245.916845 136.498262 
L 246.014251 136.498262 
L 246.111657 138.337705 
L 246.241532 136.498262 
L 246.403875 143.063743 
L 246.436344 141.141222 
L 246.501281 143.063743 
L 246.598688 143.063743 
L 246.728562 144.546989 
L 247.215593 144.546989 
L 247.28053 141.141222 
L 247.345468 143.063743 
L 247.377936 144.546989 
L 247.410405 142.657567 
L 247.442874 142.657567 
L 247.572749 141.141222 
L 248.157185 141.141222 
L 248.28706 139.702669 
L 248.54681 139.702669 
L 248.676684 137.894532 
L 248.709153 138.337705 
L 248.77409 137.894532 
L 248.806559 137.894532 
L 248.936434 136.498262 
L 249.390996 136.498262 
L 249.455933 135.171173 
L 249.488402 136.498262 
L 249.585808 136.498262 
L 249.715683 135.171173 
L 251.111837 135.171173 
L 251.209243 133.439014 
L 251.241712 133.909702 
L 251.339118 133.439014 
L 251.468993 133.909702 
L 251.501461 133.909702 
L 251.53393 133.439014 
L 251.598868 133.909702 
L 251.728742 133.909702 
L 251.858617 133.439014 
L 251.988492 133.909702 
L 252.28071 133.909702 
L 252.378116 132.147871 
L 252.475522 133.909702 
L 252.507991 133.439014 
L 252.572929 133.909702 
L 252.605397 133.439014 
L 252.670335 133.909702 
L 252.735272 132.147871 
L 252.962553 132.147871 
L 253.092428 133.909702 
L 253.124896 133.909702 
L 253.254771 132.147871 
L 253.384646 132.147871 
L 253.449584 133.909702 
L 253.482052 132.4922 
L 253.514521 131.570775 
L 253.54699 133.541181 
L 253.579458 133.541181 
L 253.676864 131.570775 
L 253.806739 134.64734 
L 253.904145 134.64734 
L 253.936614 133.541181 
L 254.001551 134.64734 
L 254.098958 134.64734 
L 254.228832 132.4922 
L 254.261301 132.4922 
L 254.358707 135.675956 
L 254.391176 134.66485 
L 254.423645 134.64734 
L 254.488582 132.4922 
L 254.521051 134.66485 
L 254.618457 134.66485 
L 254.683394 131.49785 
L 254.715863 132.4922 
L 254.7808 134.64734 
L 254.910675 131.570775 
L 257.086078 131.570775 
L 257.151015 130.487516 
L 257.183484 133.541181 
L 257.248422 130.487516 
L 257.28089 130.487516 
L 257.313359 129.45823 
L 257.410765 133.541181 
L 257.443234 132.4922 
L 257.573109 132.4922 
L 257.638046 130.55578 
L 257.702983 133.709156 
L 257.735452 131.570775 
L 257.767921 131.570775 
L 257.800389 133.709156 
L 257.865327 131.570775 
L 258.060139 131.570775 
L 258.190014 130.918569 
L 258.449764 130.918569 
L 258.579638 130.514572 
L 259.975792 130.514572 
L 260.105667 128.998309 
L 260.235542 130.514572 
L 260.430354 130.514572 
L 260.495292 128.998309 
L 260.52776 130.514572 
L 260.592698 130.514572 
L 260.690104 128.998309 
L 260.722573 130.514572 
L 260.78751 128.998309 
L 260.917385 129.257524 
L 261.599228 129.257524 
L 261.729102 127.715591 
L 261.858977 127.715591 
L 261.891446 129.257524 
L 261.956383 127.715591 
L 262.768101 127.715591 
L 262.897976 126.282545 
L 263.02785 126.282545 
L 263.157725 127.715591 
L 263.2876 126.282545 
L 263.612287 126.282545 
L 263.644756 124.949531 
L 263.709693 126.282545 
L 264.001911 126.282545 
L 264.03438 124.949531 
L 264.099318 126.282545 
L 264.131786 126.282545 
L 264.261661 124.949531 
L 264.326598 124.949531 
L 264.424005 126.282545 
L 264.553879 124.949531 
L 264.586348 126.282545 
L 264.651285 124.949531 
L 265.52794 124.949531 
L 265.560409 123.708862 
L 265.625347 124.949531 
L 266.307189 124.949531 
L 266.339658 126.282545 
L 266.404595 124.949531 
L 266.437064 124.949531 
L 266.53447 126.282545 
L 266.664345 124.949531 
L 266.761751 126.282545 
L 266.891626 124.949531 
L 266.989032 126.490868 
L 266.956563 123.186245 
L 267.021501 126.282545 
L 267.086438 126.282545 
L 267.118907 123.708862 
L 267.183844 126.490868 
L 268.937154 126.490868 
L 268.969623 123.83952 
L 269.03456 124.204301 
L 269.164435 125.825531 
L 269.196904 125.825531 
L 269.326778 124.204301 
L 269.456653 125.825531 
L 271.826869 125.825531 
L 271.956743 124.204301 
L 271.989212 124.204301 
L 272.119087 125.825531 
L 272.248962 124.204301 
L 272.28143 125.825531 
L 272.346368 124.204301 
L 272.898336 124.204301 
L 273.060679 121.295878 
L 274.002271 121.295878 
L 274.132146 120.69992 
L 274.326959 120.69992 
L 274.359427 121.295878 
L 274.424365 120.69992 
L 274.456833 120.69992 
L 274.586708 119.990636 
L 275.30102 119.990636 
L 275.430894 119.439385 
L 275.658175 119.439385 
L 275.78805 119.990636 
L 275.950394 118.774621 
L 275.982862 118.774621 
L 276.015331 119.439385 
L 276.080268 118.774621 
L 276.145206 118.774621 
L 276.307549 119.981995 
L 276.404955 118.774621 
L 276.437424 119.981995 
L 276.502362 118.774621 
L 276.53483 118.774621 
L 276.599768 119.981995 
L 276.632236 118.264731 
L 276.664705 118.264731 
L 276.79458 119.350987 
L 276.924455 119.350987 
L 277.054329 118.868332 
L 277.184204 118.868332 
L 277.314079 118.277038 
L 277.54136 118.277038 
L 277.638766 117.8311 
L 277.768641 119.127713 
L 277.898516 117.8311 
L 278.060859 117.8311 
L 278.190734 119.00487 
L 278.320609 118.583535 
L 278.515421 118.583535 
L 278.645296 118.059024 
L 278.742702 118.059024 
L 278.775171 116.743016 
L 278.840108 118.059024 
L 278.872577 118.059024 
L 279.002452 117.553652 
L 279.132326 117.553652 
L 279.164795 116.228164 
L 279.229732 117.553652 
L 279.327139 117.553652 
L 279.424545 118.93288 
L 279.457013 118.455489 
L 279.586888 117.066929 
L 279.651826 117.066929 
L 279.684294 118.455489 
L 279.7817 117.996187 
L 279.814169 116.708185 
L 279.879106 117.996187 
L 280.04145 116.253934 
L 280.171325 117.659167 
L 280.203793 117.659167 
L 280.3012 116.253934 
L 280.333668 117.659167 
L 280.431074 117.23145 
L 280.496012 117.23145 
L 280.625887 116.820775 
L 280.658355 117.23145 
L 280.723293 116.820775 
L 280.820699 116.525896 
L 280.853167 116.820775 
L 280.918105 116.525896 
L 280.983042 116.525896 
L 281.112917 116.145038 
L 281.470073 116.145038 
L 281.502542 115.877237 
L 281.567479 116.145038 
L 281.632416 116.145038 
L 281.79476 115.525252 
L 282.022041 115.525252 
L 282.054509 114.070041 
L 282.119447 115.189094 
L 282.151916 115.189094 
L 282.249322 114.959661 
L 282.28179 115.189094 
L 282.346728 114.959661 
L 282.379196 114.959661 
L 282.509071 113.821409 
L 282.671415 113.725064 
L 282.703883 113.488714 
L 282.736352 114.651287 
L 282.80129 113.725064 
L 282.866227 113.725064 
L 282.898696 113.488714 
L 282.931164 113.725064 
L 282.996102 113.488714 
L 283.02857 114.651287 
L 283.158445 113.17152 
L 283.255851 114.358256 
L 283.28832 113.17152 
L 283.353258 114.165717 
L 283.418195 114.165717 
L 283.515601 112.960202 
L 283.580538 114.165717 
L 283.645476 113.899741 
L 283.742882 114.165717 
L 283.775351 113.899741 
L 283.840288 114.165717 
L 283.872757 114.358256 
L 283.937694 114.165717 
L 284.0351 114.165717 
L 284.164975 113.899741 
L 284.262381 115.218906 
L 284.327319 115.069267 
L 284.424725 113.731416 
L 284.457193 113.899741 
L 284.522131 113.731416 
L 284.619537 114.854126 
L 284.652006 114.728325 
L 284.78188 113.347705 
L 284.879286 114.539937 
L 284.911755 113.135078 
L 284.976693 114.816998 
L 285.171505 113.014195 
L 285.203973 114.816998 
L 285.236442 112.937394 
L 285.268911 113.135078 
L 285.398786 113.014195 
L 285.431254 113.027711 
L 285.463723 112.828153 
L 285.496192 113.070496 
L 285.528661 113.070496 
L 287.119627 113.114292 
L 287.249502 111.569912 
L 287.574189 111.569912 
L 287.606657 113.114292 
L 287.671595 111.569912 
L 287.866407 111.569912 
L 287.996282 113.114292 
L 288.061219 113.114292 
L 288.093688 111.569912 
L 288.158625 113.114292 
L 288.191094 113.114292 
L 288.320969 111.569912 
L 289.457373 111.616007 
L 289.522311 110.126835 
L 289.554779 111.616007 
L 289.587248 111.616007 
L 289.684654 110.126835 
L 289.78206 111.616007 
L 289.814529 110.126835 
L 289.879466 111.616007 
L 289.911935 111.616007 
L 289.944404 110.126835 
L 290.009341 111.616007 
L 290.236622 111.616007 
L 290.269091 110.126835 
L 290.334028 111.616007 
L 290.366497 111.616007 
L 290.496372 110.126835 
L 290.593778 110.126835 
L 290.691184 111.616007 
L 290.821059 110.126835 
L 290.950934 110.126835 
L 290.983402 111.616007 
L 291.04834 110.126835 
L 291.080808 110.126835 
L 291.210683 111.616007 
L 291.79512 111.616007 
L 291.924995 110.126835 
L 292.671775 110.126835 
L 292.704244 108.523246 
L 292.769181 110.126835 
L 293.28868 110.126835 
L 293.321149 108.523246 
L 293.386086 110.126835 
L 294.100398 110.126835 
L 294.132866 108.523246 
L 294.197804 110.126835 
L 294.230272 110.126835 
L 294.29521 108.523246 
L 294.327679 110.126835 
L 294.490022 110.126835 
L 294.619897 108.523246 
L 294.652366 110.126835 
L 294.717303 108.523246 
L 295.106927 108.523246 
L 295.139396 110.126835 
L 295.204334 108.523246 
L 295.626427 108.523246 
L 295.756301 110.126835 
L 295.886176 108.523246 
L 295.983582 110.126835 
L 296.113457 108.523246 
L 296.243332 110.126835 
L 296.470613 110.126835 
L 296.568019 108.523246 
L 296.697894 110.126835 
L 296.990112 110.126835 
L 297.119987 108.523246 
L 297.249862 110.126835 
L 297.314799 108.523246 
L 297.347268 110.126835 
L 297.379737 110.126835 
L 297.444674 108.523246 
L 297.477143 110.126835 
L 297.736892 110.126835 
L 297.769361 108.523246 
L 297.834298 110.126835 
L 297.931704 110.126835 
L 297.964173 108.523246 
L 298.029111 110.126835 
L 298.158985 110.126835 
L 298.28886 108.523246 
L 298.418735 110.126835 
L 298.451204 108.523246 
L 298.516141 110.126835 
L 301.016231 110.126835 
L 301.146106 111.616007 
L 301.243512 111.616007 
L 301.373387 110.126835 
L 301.503262 111.616007 
L 301.730543 111.616007 
L 301.860417 110.126835 
L 301.990292 111.616007 
L 302.185104 111.616007 
L 302.217573 110.126835 
L 302.28251 111.616007 
L 302.347448 111.616007 
L 302.477323 110.126835 
L 302.574729 110.126835 
L 302.672135 111.616007 
L 302.769541 110.126835 
L 302.899416 111.616007 
L 302.931884 111.616007 
L 303.029291 110.126835 
L 303.159165 111.616007 
L 303.191634 111.616007 
L 303.224103 110.126835 
L 303.28904 111.616007 
L 303.386446 111.616007 
L 303.483852 110.126835 
L 303.516321 111.616007 
L 303.581258 110.126835 
L 303.905946 110.126835 
L 304.003352 111.616007 
L 304.133226 110.126835 
L 304.165695 110.126835 
L 304.263101 111.616007 
L 304.360507 110.126835 
L 304.392976 111.616007 
L 304.457913 110.126835 
L 304.587788 110.126835 
L 304.620257 111.616007 
L 304.685194 110.126835 
L 305.04235 110.126835 
L 305.172225 111.616007 
L 305.269631 111.616007 
L 305.399506 110.126835 
L 305.496912 110.126835 
L 305.561849 111.616007 
L 305.594318 110.126835 
L 305.821599 110.126835 
L 305.854068 108.523246 
L 305.919005 110.126835 
L 306.438504 110.126835 
L 306.503442 108.523246 
L 306.53591 110.126835 
L 307.05541 110.126835 
L 307.087878 111.616007 
L 307.152816 110.126835 
L 307.380097 110.126835 
L 307.509971 111.616007 
L 307.607377 110.126835 
L 307.737252 111.616007 
L 307.769721 110.126835 
L 307.834658 111.616007 
L 307.932064 111.616007 
L 308.061939 110.126835 
L 308.094408 110.126835 
L 308.224283 111.616007 
L 308.28922 111.616007 
L 308.451564 108.523246 
L 308.54897 111.616007 
L 308.581439 110.126835 
L 308.646376 110.126835 
L 308.776251 111.616007 
L 308.906126 111.616007 
L 308.938594 113.159122 
L 309.003532 111.616007 
L 309.036 111.616007 
L 309.165875 110.126835 
L 309.198344 110.126835 
L 309.230813 108.688886 
L 309.328219 109.056663 
L 309.360687 115.43765 
L 309.425625 111.616007 
L 309.490562 111.616007 
L 309.523031 113.159122 
L 309.5555 111.616007 
L 309.685374 110.126835 
L 309.847718 113.159122 
L 309.880187 113.159122 
L 310.04253 120.1882 
L 310.107467 120.1882 
L 310.237342 126.076439 
L 310.269811 124.084042 
L 310.399686 120.1882 
L 310.497092 124.084042 
L 310.529561 122.033392 
L 310.562029 122.033392 
L 310.626967 118.414043 
L 310.659435 122.033392 
L 310.691904 122.033392 
L 310.854248 113.159122 
L 311.04906 113.159122 
L 311.178935 114.90489 
L 311.308809 113.159122 
L 311.341278 114.90489 
L 311.406216 113.159122 
L 311.53609 113.159122 
L 311.568559 114.90489 
L 311.633496 113.159122 
L 311.990652 113.159122 
L 312.120527 111.616007 
L 312.315339 111.616007 
L 312.347808 113.159122 
L 312.412745 111.616007 
L 312.445214 111.616007 
L 312.477683 110.126835 
L 312.54262 111.616007 
L 312.575089 111.616007 
L 312.704964 110.126835 
L 312.899776 110.126835 
L 313.029651 109.056663 
L 313.127057 109.128168 
L 313.191994 112.095036 
L 313.224463 121.090393 
L 313.321869 118.606087 
L 313.451744 120.215853 
L 313.906306 120.215853 
L 314.03618 116.818 
L 314.198524 116.818 
L 314.230993 110.501695 
L 314.263461 132.84042 
L 314.360867 126.076439 
L 314.458273 126.076439 
L 314.490742 127.271808 
L 314.523211 124.120339 
L 314.653086 103.157236 
L 314.685554 103.157236 
L 314.815429 122.284467 
L 314.977773 110.501695 
L 315.075179 127.814339 
L 315.172585 102.533125 
L 315.205054 102.630018 
L 315.269991 102.630018 
L 315.464803 104.258192 
L 315.497272 104.309342 
L 315.886896 109.971116 
L 315.919365 109.971116 
L 316.081709 112.19641 
L 316.179115 112.19641 
L 316.308989 113.829092 
L 316.341458 113.829092 
L 316.373927 117.673593 
L 316.438864 113.829092 
L 316.471333 113.829092 
L 316.503802 112.485205 
L 316.53627 117.673593 
L 316.601208 112.485205 
L 316.698614 117.673593 
L 316.731083 112.485205 
L 316.79602 115.183635 
L 316.893426 115.183635 
L 316.925895 114.409322 
L 316.990832 115.183635 
L 317.05577 115.183635 
L 317.153176 114.409322 
L 317.185644 115.982347 
L 317.218113 113.58474 
L 319.133766 113.58474 
L 319.263641 112.099294 
L 319.29611 112.099294 
L 319.425985 110.652439 
L 319.458453 110.652439 
L 319.55586 105.052187 
L 319.588328 106.363722 
L 319.620797 106.363722 
L 319.750672 111.814422 
L 319.880547 111.814422 
L 319.913015 111.953161 
L 319.977953 113.443085 
L 320.04289 113.308589 
L 320.172765 113.308589 
L 320.335108 116.298286 
L 320.367577 116.075728 
L 320.432515 118.068264 
L 320.529921 101.682123 
L 320.562389 103.011291 
L 320.659795 103.011291 
L 320.692264 101.682123 
L 320.78967 101.704049 
L 320.822139 101.704049 
L 321.04942 96.48449 
L 321.081889 96.48449 
L 321.114357 95.323168 
L 321.179295 96.48449 
L 321.374107 96.48449 
L 321.53645 99.04213 
L 321.601388 99.019134 
L 321.633856 100.277902 
L 321.698794 99.019134 
L 321.731263 99.019134 
L 321.763731 100.277902 
L 321.861137 100.255663 
L 321.893606 100.255663 
L 321.958543 104.340959 
L 322.023481 102.930128 
L 322.05595 104.265181 
L 322.153356 104.214215 
L 322.54298 104.114337 
L 323.094948 104.017353 
L 323.127417 104.017353 
L 323.159885 105.551331 
L 323.257292 105.527799 
L 323.28976 105.969786 
L 323.419635 123.408072 
L 324.620977 123.408072 
L 324.750852 112.805596 
L 325.010601 105.070774 
L 325.04307 105.070774 
L 325.205414 102.206535 
L 325.237882 102.206535 
L 325.335288 100.818214 
L 325.367757 102.206535 
L 325.432695 100.818214 
L 325.595038 98.123257 
L 325.627507 98.123257 
L 325.78985 95.530011 
L 325.919725 96.814434 
L 326.0496 95.530011 
L 326.082069 95.530011 
L 326.244412 93.030553 
L 326.309349 93.030553 
L 326.406756 94.269024 
L 326.53663 93.030553 
L 326.569099 93.030553 
L 326.698974 91.813723 
L 326.731443 91.813723 
L 326.828849 90.617697 
L 326.958724 91.813723 
L 327.05613 91.813723 
L 327.186004 90.617697 
L 327.218473 90.617697 
L 327.283411 89.441677 
L 327.315879 90.617697 
L 327.348348 90.617697 
L 327.478223 89.441677 
L 327.835378 89.441677 
L 327.965253 88.284898 
L 328.095128 88.284898 
L 328.225003 87.146632 
L 328.354878 87.146632 
L 328.484752 86.026178 
L 328.614627 86.026178 
L 328.647096 84.922869 
L 328.712033 86.026178 
L 328.744502 86.026178 
L 328.874377 84.922869 
L 329.361407 84.922869 
L 329.393876 86.026178 
L 329.458814 84.922869 
L 329.686094 84.922869 
L 329.815969 83.836062 
L 330.432875 83.836062 
L 330.562749 82.765142 
L 330.595218 83.836062 
L 330.660155 82.765142 
L 331.017311 82.765142 
L 331.147186 81.709517 
L 331.277061 82.765142 
L 331.309529 82.765142 
L 331.439404 84.307334 
L 331.471873 84.307334 
L 331.601748 86.430635 
L 331.666685 85.360098 
L 331.699154 86.430635 
L 331.829029 86.430635 
L 331.958904 84.843872 
L 331.991372 85.360098 
L 332.023841 84.843872 
L 332.05631 83.310162 
L 332.121247 84.375889 
L 332.186184 84.375889 
L 332.218653 85.307015 
L 332.283591 84.375889 
L 332.316059 84.375889 
L 332.380997 86.026178 
L 332.445934 84.922869 
L 332.478403 84.922869 
L 332.608278 85.307015 
L 332.738152 84.922869 
L 333.030371 84.922869 
L 333.160245 86.026178 
L 333.29012 84.922869 
L 333.322589 84.922869 
L 333.355058 86.026178 
L 333.419995 84.922869 
L 333.484932 84.922869 
L 333.647276 82.964967 
L 333.842088 81.727718 
L 333.874557 81.80511 
L 333.907026 82.26573 
L 333.939494 82.153571 
L 333.971963 79.769704 
L 334.069369 80.20867 
L 334.101838 83.605552 
L 334.134307 78.780257 
L 334.166775 78.736853 
L 334.29665 76.828913 
L 334.329119 77.30974 
L 334.361587 78.226188 
L 334.394056 75.462265 
L 334.458994 77.8059 
L 334.523931 76.307794 
L 334.588868 79.745443 
L 334.653806 75.131717 
L 334.718743 75.52731 
L 334.881087 77.254722 
L 334.913555 73.855121 
L 334.978493 75.441296 
L 335.04343 75.3729 
L 335.173305 78.858514 
L 335.205774 76.719882 
L 335.270711 79.34733 
L 335.30318 79.292206 
L 335.335648 78.934923 
L 335.368117 79.860767 
L 335.433055 77.25698 
L 335.465523 77.77985 
L 335.497992 80.10773 
L 335.562929 78.879706 
L 335.595398 78.320552 
L 335.725273 82.023024 
L 335.757742 79.069583 
L 335.855148 79.677743 
L 335.985023 83.048319 
L 336.017491 80.9115 
L 336.04996 83.048319 
L 336.082429 84.606399 
L 336.114897 81.299186 
L 336.147366 81.255248 
L 336.212303 79.860012 
L 336.342178 84.285423 
L 336.374647 84.249115 
L 336.407116 82.407547 
L 336.439584 85.911097 
L 336.53699 83.145009 
L 336.569459 85.865728 
L 336.666865 84.749387 
L 336.699334 84.749387 
L 336.829209 83.634152 
L 336.894146 83.634152 
L 337.024021 67.135429 
L 337.088958 65.895788 
L 337.153896 109.605872 
L 337.186364 111.187035 
L 337.251302 109.605872 
L 337.316239 111.187035 
L 337.381177 108.060462 
L 337.511051 64.43306 
L 337.54352 64.43306 
L 337.575989 63.686594 
L 337.705864 77.338942 
L 337.835738 63.207377 
L 337.965613 76.336571 
L 338.192894 76.336571 
L 338.257832 112.805596 
L 338.2903 76.336571 
L 338.452644 76.336571 
L 338.582519 114.463301 
L 338.679925 76.336571 
L 338.8098 114.463301 
L 339.069549 114.463301 
L 339.134487 112.805596 
L 339.166955 114.463301 
L 339.29683 65.626021 
L 339.394236 65.626021 
L 339.426705 63.91279 
L 339.491642 65.626021 
L 339.524111 65.626021 
L 339.653986 63.91279 
L 339.686454 63.91279 
L 339.783861 64.790128 
L 339.848798 63.91279 
L 339.881267 64.790128 
L 339.978673 64.790128 
L 340.011141 63.91279 
L 340.076079 64.790128 
L 340.173485 64.790128 
L 340.205954 63.091919 
L 340.270891 64.790128 
L 340.498172 64.790128 
L 340.628047 207.765329 
L 340.660516 207.765329 
L 340.725453 205.802648 
L 340.757922 207.765329 
L 340.79039 207.765329 
L 340.855328 205.802648 
L 340.887796 207.765329 
L 340.920265 64.790128 
L 340.985203 207.765329 
L 341.115077 205.802648 
L 341.472233 205.802648 
L 341.602108 207.553697 
L 342.348888 207.553697 
L 342.413825 205.334833 
L 342.446294 207.553697 
L 342.5437 207.553697 
L 342.576169 205.334833 
L 342.641106 207.553697 
L 342.673575 207.553697 
L 342.80345 205.334833 
L 343.745042 205.334833 
L 343.80998 207.553697 
L 343.842448 205.334833 
L 344.069729 205.334833 
L 344.199604 207.553697 
L 344.589228 65.674472 
L 344.946384 65.674472 
L 345.141196 63.091919 
L 345.206134 65.674472 
L 345.238602 63.962725 
L 345.271071 63.091919 
L 345.30354 65.674472 
L 345.400946 64.790128 
L 345.530821 63.091919 
L 345.595758 64.790128 
L 345.628227 63.091919 
L 345.79057 63.091919 
L 345.823039 63.962725 
L 345.887976 63.091919 
L 345.952914 63.091919 
L 346.082789 63.962725 
L 346.180195 63.962725 
L 346.212663 66.757159 
L 346.277601 63.962725 
L 346.375007 63.962725 
L 346.407476 64.844741 
L 346.472413 63.962725 
L 346.504882 63.962725 
L 346.667225 65.775294 
L 346.699694 65.775294 
L 346.732163 66.757159 
L 346.764631 65.775294 
L 346.829569 64.387693 
L 346.862037 65.253946 
L 346.894506 65.253946 
L 346.959444 64.387693 
L 346.991912 64.823963 
L 347.121787 65.674472 
L 347.186724 65.271733 
L 347.219193 65.674472 
L 347.251662 65.73121 
L 347.349068 64.823963 
L 347.381537 65.271733 
L 347.414005 65.271733 
L 347.446474 66.106511 
L 347.511412 65.73121 
L 347.54388 65.73121 
L 347.608818 67.473792 
L 347.706224 67.449309 
L 347.738692 67.449309 
L 347.771161 65.73121 
L 347.80363 67.473792 
L 347.836099 67.005954 
L 347.868567 67.473792 
L 347.901036 66.550267 
L 347.965973 66.550267 
L 348.095848 67.473792 
L 348.225723 66.550267 
L 348.258192 66.550267 
L 348.29066 67.473792 
L 348.355598 66.550267 
L 348.420535 66.550267 
L 348.453004 67.473792 
L 348.517941 66.550267 
L 348.582879 66.550267 
L 348.615347 67.473792 
L 348.680285 66.550267 
L 348.745222 66.550267 
L 348.875097 67.005954 
L 348.940034 66.550267 
L 348.972503 67.908994 
L 349.004972 66.159646 
L 349.03744 66.159646 
L 349.167315 67.001767 
L 349.264721 67.001767 
L 349.362127 67.473792 
L 349.394596 66.202613 
L 349.459534 67.005954 
L 349.492002 67.41667 
L 349.524471 66.550267 
L 349.55694 66.550267 
L 349.719283 68.323827 
L 349.784221 68.323827 
L 349.881627 68.308281 
L 349.946564 70.242254 
L 350.011502 68.952588 
L 350.108908 69.191943 
L 350.173845 69.191943 
L 350.336189 71.03353 
L 350.466063 69.191943 
L 350.498532 69.191943 
L 350.628407 70.57438 
L 350.693344 65.674472 
L 350.725813 67.41667 
L 350.758282 74.74475 
L 350.855688 71.901005 
L 350.920625 71.901005 
L 351.0505 68.276638 
L 351.082969 69.146377 
L 351.147906 68.276638 
L 351.212843 68.276638 
L 351.375187 66.517517 
L 352.933685 66.517517 
L 352.966153 64.790128 
L 353.031091 66.517517 
L 353.096028 66.517517 
L 353.160966 64.790128 
L 353.193434 66.517517 
L 353.225903 66.517517 
L 353.355778 64.790128 
L 353.518121 64.790128 
L 353.55059 66.517517 
L 353.615527 64.790128 
L 353.745402 64.790128 
L 353.81034 63.091919 
L 353.842808 64.790128 
L 354.167495 64.790128 
L 354.199964 63.091919 
L 354.264901 64.790128 
L 354.427245 64.790128 
L 354.589588 63.091919 
L 354.686995 63.091919 
L 354.784401 64.790128 
L 354.914275 63.091919 
L 354.946744 63.091919 
L 355.076619 64.790128 
L 355.174025 64.790128 
L 355.3039 63.091919 
L 355.498712 63.091919 
L 355.628587 64.790128 
L 355.693524 64.790128 
L 355.823399 65.674472 
L 355.888336 65.674472 
L 355.920805 63.962725 
L 355.985743 65.674472 
L 356.148086 63.091919 
L 356.180555 65.674472 
L 356.245492 63.962725 
L 356.277961 63.962725 
L 356.342898 63.091919 
L 356.375367 63.962725 
L 356.602648 63.962725 
L 356.635117 62.278947 
L 356.700054 63.962725 
L 356.959804 63.962725 
L 357.089678 62.278947 
L 357.414365 62.278947 
L 357.446834 60.62077 
L 357.511772 62.278947 
L 358.128677 62.278947 
L 358.258552 60.62077 
L 358.29102 60.62077 
L 358.420895 61.584556 
L 358.453364 60.675751 
L 358.518301 61.124676 
L 358.583239 61.584556 
L 358.615707 61.124676 
L 358.648176 59.553123 
L 358.713113 61.473596 
L 358.745582 61.584556 
L 358.875457 59.935628 
L 359.005332 61.456243 
L 359.037801 61.473596 
L 359.070269 60.237591 
L 359.135207 61.473596 
L 359.232613 61.473596 
L 359.394956 59.482429 
L 359.5573 62.314733 
L 359.589768 61.087806 
L 359.654706 62.751569 
L 359.784581 61.473596 
L 359.881987 61.473596 
L 359.914455 62.332231 
L 359.979393 61.473596 
L 360.04433 62.332231 
L 360.109268 61.888802 
L 360.141736 61.888802 
L 360.206674 62.750316 
L 360.271611 62.332231 
L 360.336549 62.332231 
L 360.401486 66.528034 
L 360.466423 65.096499 
L 360.596298 66.550663 
L 360.693704 66.550663 
L 360.726173 62.332231 
L 360.758642 68.661266 
L 360.823579 71.787961 
L 360.856048 70.205086 
L 360.985923 68.037795 
L 361.018391 68.037795 
L 361.05086 68.661266 
L 361.115797 68.037795 
L 361.213204 68.037795 
L 361.245672 68.661266 
L 361.278141 66.550663 
L 361.343078 68.037795 
L 361.472953 68.037795 
L 361.537891 68.661266 
L 361.570359 66.550663 
L 361.602828 68.037795 
L 361.667765 66.550663 
L 361.79764 66.550663 
L 361.895046 68.037795 
L 362.024921 66.573778 
L 362.317139 66.573778 
L 362.349608 65.120439 
L 362.414545 66.573778 
L 362.447014 66.573778 
L 362.479483 65.120439 
L 362.54442 66.573778 
L 362.609358 66.573778 
L 362.641826 65.120439 
L 362.706764 66.573778 
L 362.771701 66.573778 
L 362.901576 65.120439 
L 363.096388 65.120439 
L 363.226263 61.79467 
L 363.323669 61.270835 
L 363.388606 64.892191 
L 363.453544 64.892191 
L 363.55095 61.270835 
L 363.680825 64.892191 
L 363.745762 63.19698 
L 363.778231 64.892191 
L 364.037981 64.892191 
L 364.070449 64.068151 
L 364.135387 64.892191 
L 364.427605 64.892191 
L 364.460074 63.19698 
L 364.525011 64.892191 
L 364.719823 64.892191 
L 364.752292 66.616639 
L 364.817229 64.892191 
L 364.979573 64.892191 
L 365.012042 65.759417 
L 365.076979 64.892191 
L 365.141916 64.892191 
L 365.174385 66.616639 
L 365.239322 64.892191 
L 365.271791 64.892191 
L 365.30426 65.776927 
L 365.369197 64.892191 
L 365.661416 64.892191 
L 365.726353 66.616639 
L 365.79129 65.776927 
L 365.888697 65.776927 
L 366.018571 67.516212 
L 366.05104 67.516212 
L 366.083509 65.776927 
L 366.148446 67.516212 
L 366.343258 67.516212 
L 366.440664 65.776927 
L 366.570539 67.516212 
L 366.700414 66.616639 
L 366.862758 66.616639 
L 366.992632 64.892191 
L 367.447194 64.892191 
L 367.577069 63.19698 
L 367.869287 63.19698 
L 367.999162 101.434479 
L 368.031631 101.434479 
L 368.161506 63.19698 
L 368.616067 63.19698 
L 368.681005 101.420888 
L 368.713474 61.528586 
L 369.265441 61.528586 
L 369.395316 59.884697 
L 369.460254 101.420888 
L 369.525191 101.407834 
L 369.590128 101.407834 
L 369.720003 59.721305 
L 369.784941 59.721305 
L 369.817409 59.567 
L 369.914815 101.407834 
L 369.947284 59.721305 
L 370.04469 59.802427 
L 370.239502 59.802427 
L 370.30444 101.407834 
L 370.336909 59.886341 
L 370.369377 59.886341 
L 370.434315 101.407834 
L 370.466783 59.044955 
L 370.531721 59.131176 
L 370.56419 58.382781 
L 370.629127 59.131176 
L 370.79147 59.220376 
L 370.823939 59.312686 
L 370.856408 59.220376 
L 370.986283 60.87257 
L 371.278501 60.87257 
L 371.31097 60.723335 
L 371.375907 60.87257 
L 371.635657 60.87257 
L 371.765531 61.027946 
L 372.414905 61.027946 
L 372.54478 101.383334 
L 372.674655 101.383334 
L 372.80453 61.027946 
L 372.869467 61.027946 
L 372.999342 101.383334 
L 373.129217 101.383334 
L 373.194154 61.027946 
L 373.226623 101.383334 
L 376.668305 101.350608 
L 376.79818 98.634978 
L 377.025461 98.634978 
L 377.090398 101.340778 
L 377.122867 98.634978 
L 377.155336 98.634978 
L 377.252742 101.340778 
L 377.382617 98.634978 
L 377.415086 98.634978 
L 377.447554 101.340778 
L 377.512492 98.634978 
L 377.80471 98.634978 
L 377.837179 101.340778 
L 377.902116 98.634978 
L 377.967053 98.634978 
L 378.031991 98.625747 
L 378.096928 101.340778 
L 378.129397 101.340778 
L 378.226803 98.625747 
L 378.356678 101.340778 
L 378.519021 98.617062 
L 378.583959 98.617062 
L 378.713834 101.340778 
L 378.746302 99.897947 
L 378.843708 99.907546 
L 378.876177 99.907546 
L 378.941114 98.587871 
L 379.006052 98.594328 
L 379.265801 98.608928 
L 379.622957 98.617062 
L 379.687895 97.203549 
L 379.752832 97.215403 
L 379.785301 97.209189 
L 379.850238 76.605831 
L 379.882707 81.01373 
L 379.980113 97.203549 
L 380.109988 72.531848 
L 380.142456 72.531848 
L 380.174925 76.605831 
L 380.239863 71.84976 
L 380.272331 68.751536 
L 380.3048 72.531848 
L 380.337269 70.291942 
L 380.402206 70.291942 
L 380.467143 68.751536 
L 380.532081 74.178891 
L 380.56455 72.531848 
L 380.597018 80.21025 
L 380.661956 75.872554 
L 380.824299 68.775353 
L 380.889237 74.199118 
L 380.954174 74.178891 
L 380.986643 70.291942 
L 381.019111 74.199118 
L 381.05158 72.552957 
L 381.116517 74.178891 
L 381.148986 68.751536 
L 381.213924 74.178891 
L 381.31133 70.291942 
L 381.343798 75.872554 
L 381.408736 68.751536 
L 381.441204 68.775353 
L 381.473673 71.871365 
L 381.538611 68.775353 
L 381.571079 68.154155 
L 381.733423 74.199118 
L 381.79836 68.775353 
L 381.830829 72.552957 
L 381.863298 74.199118 
L 381.895766 70.31491 
L 381.928235 70.31491 
L 381.993172 68.775353 
L 382.025641 70.31491 
L 382.187985 70.31491 
L 382.220453 68.775353 
L 382.252922 72.552957 
L 382.285391 68.154155 
L 382.317859 68.154155 
L 382.415266 70.31491 
L 382.480203 68.154155 
L 382.512672 72.574574 
L 382.54514 66.696768 
L 382.577609 70.31491 
L 382.610078 68.154155 
L 382.642546 70.31491 
L 382.707484 74.199118 
L 382.739953 70.31491 
L 382.80489 71.893477 
L 382.837359 66.671169 
L 382.902296 75.89189 
L 382.967233 70.31491 
L 382.999702 71.893477 
L 383.06464 65.247521 
L 383.129577 68.154155 
L 383.226983 70.31491 
L 383.389327 63.278173 
L 383.519201 68.775353 
L 383.55167 68.775353 
L 383.616607 66.696768 
L 383.649076 68.775353 
L 383.714014 68.775353 
L 383.778951 70.31491 
L 383.908826 64.679038 
L 384.038701 68.775353 
L 384.103638 70.31491 
L 384.136107 68.775353 
L 384.168575 68.178929 
L 384.201044 70.31491 
L 384.265982 68.775353 
L 384.29845 68.775353 
L 384.428325 68.178929 
L 384.493262 68.154155 
L 384.5582 68.775353 
L 384.590669 66.696768 
L 384.655606 65.247521 
L 384.688075 68.178929 
L 384.785481 64.679038 
L 384.817949 68.178929 
L 384.882887 65.247521 
L 385.012762 64.679038 
L 385.04523 68.154155 
L 385.110168 63.278173 
L 385.175105 66.696768 
L 385.207574 63.278173 
L 385.240043 63.278173 
L 385.30498 65.247521 
L 385.337449 61.905289 
L 385.434855 63.278173 
L 385.532261 63.278173 
L 385.56473 61.905289 
L 385.597198 63.278173 
L 385.629667 64.679038 
L 385.694604 63.278173 
L 385.759542 61.382919 
L 385.79201 61.905289 
L 385.824479 64.679038 
L 385.856948 61.382919 
L 385.889417 61.905289 
L 385.921885 61.905289 
L 385.954354 63.278173 
L 385.986823 61.905289 
L 386.019291 60.051762 
L 386.084229 61.382919 
L 386.116697 61.382919 
L 386.246572 58.744545 
L 386.279041 60.051762 
L 386.343978 58.263253 
L 386.441385 60.051762 
L 386.571259 56.992295 
L 386.701134 60.554682 
L 386.733603 60.554682 
L 386.863478 59.904214 
L 386.895946 60.890631 
L 386.928415 56.01296 
L 386.993352 56.442787 
L 387.05829 60.890631 
L 387.123227 60.40959 
L 387.350508 61.887115 
L 387.382977 61.887115 
L 387.512852 61.010828 
L 387.642726 61.010828 
L 387.675195 60.37301 
L 387.707664 63.011122 
L 387.772601 62.124029 
L 387.870007 61.010828 
L 387.934945 62.124029 
L 387.967413 61.010828 
L 387.999882 61.010828 
L 388.06482 62.124029 
L 388.097288 56.920634 
L 388.194694 57.832442 
L 388.227163 57.552052 
L 388.324569 62.124029 
L 388.357038 57.552052 
L 388.421975 60.140744 
L 388.454444 61.24364 
L 388.486913 60.140744 
L 388.616787 55.962416 
L 389.136287 55.962416 
L 389.266162 54.389959 
L 389.785661 54.389959 
L 389.915536 55.962416 
L 390.110348 55.962416 
L 390.142816 54.389959 
L 390.207754 55.962416 
L 390.467503 55.962416 
L 390.56491 55.14174 
L 390.629847 55.962416 
L 390.662316 55.14174 
L 390.727253 55.14174 
L 390.922065 57.552052 
L 391.181815 57.552052 
L 391.214284 56.723375 
L 391.279221 57.552052 
L 391.344158 57.552052 
L 391.441565 56.723375 
L 391.474033 59.160878 
L 391.571439 58.323168 
L 391.603908 59.160878 
L 391.636377 58.323168 
L 391.701314 56.723375 
L 391.831189 59.160878 
L 392.642906 59.160878 
L 392.707844 60.790977 
L 392.740313 59.160878 
L 392.772781 58.323168 
L 392.80525 60.790977 
L 392.870187 58.323168 
L 392.902656 58.323168 
L 393.000062 60.790977 
L 393.129937 58.323168 
L 393.454624 58.323168 
L 393.584499 59.943165 
L 393.909186 59.943165 
L 394.039061 58.323168 
L 394.168935 57.490194 
L 394.201404 57.490194 
L 394.331279 59.100636 
L 394.363748 59.100636 
L 394.396216 57.490194 
L 394.461154 59.100636 
L 394.55856 59.100636 
L 394.591029 56.820087 
L 394.655966 59.100636 
L 395.240403 59.100636 
L 395.272871 59.943165 
L 395.337809 59.100636 
L 395.402746 59.100636 
L 395.435215 59.943165 
L 395.500152 59.100636 
L 395.56509 59.100636 
L 395.597558 59.943165 
L 395.662496 59.100636 
L 395.954714 59.100636 
L 396.084589 59.943165 
L 396.117058 59.100636 
L 396.181995 59.943165 
L 396.214464 61.585489 
L 396.246932 59.100636 
L 396.279401 59.943165 
L 396.31187 59.100636 
L 396.376807 59.943165 
L 396.441745 59.943165 
L 396.474213 59.100636 
L 396.604088 61.585489 
L 396.733963 59.943165 
L 396.863838 59.943165 
L 396.993712 61.585489 
L 397.026181 61.585489 
L 397.156056 59.943165 
L 397.220993 59.943165 
L 397.285931 61.585489 
L 397.318399 59.943165 
L 397.837899 59.943165 
L 397.870367 59.100636 
L 397.935305 59.943165 
L 398.000242 59.943165 
L 398.097648 59.100636 
L 398.162586 59.943165 
L 398.195054 59.100636 
L 398.259992 59.100636 
L 398.389867 59.943165 
L 398.487273 59.943165 
L 398.487273 59.943165 
" clip-path="url(#p0386a6e5a6)" style="fill: none; stroke: #1f77b4; stroke-width: 1.5; stroke-linecap: square"/>
   </g>
   <g id="patch_3">
    <path d="M 57.6 307.584 
L 57.6 41.472 
" style="fill: none; stroke: #000000; stroke-width: 0.8; stroke-linejoin: miter; stroke-linecap: square"/>
   </g>
   <g id="patch_4">
    <path d="M 414.72 307.584 
L 414.72 41.472 
" style="fill: none; stroke: #000000; stroke-width: 0.8; stroke-linejoin: miter; stroke-linecap: square"/>
   </g>
   <g id="patch_5">
    <path d="M 57.6 307.584 
L 414.72 307.584 
" style="fill: none; stroke: #000000; stroke-width: 0.8; stroke-linejoin: miter; stroke-linecap: square"/>
   </g>
   <g id="patch_6">
    <path d="M 57.6 41.472 
L 414.72 41.472 
" style="fill: none; stroke: #000000; stroke-width: 0.8; stroke-linejoin: miter; stroke-linecap: square"/>
   </g>
  </g>
 </g>
 <defs>
  <clipPath id="p0386a6e5a6">
   <rect x="57.6" y="41.472" width="357.12" height="266.112"/>
  </clipPath>
 </defs>
</svg>
