<?xml version="1.0" encoding="utf-8" standalone="no"?>
<!DOCTYPE svg PUBLIC "-//W3C//DTD SVG 1.1//EN"
  "http://www.w3.org/Graphics/SVG/1.1/DTD/svg11.dtd">
<svg xmlns:xlink="http://www.w3.org/1999/xlink" width="460.8pt" height="345.6pt" viewBox="0 0 460.8 345.6" xmlns="http://www.w3.org/2000/svg" version="1.1">
 <metadata>
  <rdf:RDF xmlns:dc="http://purl.org/dc/elements/1.1/" xmlns:cc="http://creativecommons.org/ns#" xmlns:rdf="http://www.w3.org/1999/02/22-rdf-syntax-ns#">
   <cc:Work>
    <dc:type rdf:resource="http://purl.org/dc/dcmitype/StillImage"/>
    <dc:date>2024-04-26T18:19:31.719846</dc:date>
    <dc:format>image/svg+xml</dc:format>
    <dc:creator>
     <cc:Agent>
      <dc:title>Matplotlib v3.8.2, https://matplotlib.org/</dc:title>
     </cc:Agent>
    </dc:creator>
   </cc:Work>
  </rdf:RDF>
 </metadata>
 <defs>
  <style type="text/css">*{stroke-linejoin: round; stroke-linecap: butt}</style>
 </defs>
 <g id="figure_1">
  <g id="patch_1">
   <path d="M 0 345.6 
L 460.8 345.6 
L 460.8 0 
L 0 0 
z
" style="fill: #ffffff"/>
  </g>
  <g id="axes_1">
   <g id="patch_2">
    <path d="M 57.6 307.584 
L 414.72 307.584 
L 414.72 41.472 
L 57.6 41.472 
z
" style="fill: #ffffff"/>
   </g>
   <g id="matplotlib.axis_1">
    <g id="xtick_1">
     <g id="line2d_1">
      <defs>
       <path id="m4082aeafb1" d="M 0 0 
L 0 3.5 
" style="stroke: #000000; stroke-width: 0.8"/>
      </defs>
      <g>
       <use xlink:href="#m4082aeafb1" x="73.832727" y="307.584" style="stroke: #000000; stroke-width: 0.8"/>
      </g>
     </g>
     <g id="text_1">
      <!-- 0 -->
      <g transform="translate(70.651477 322.182437) scale(0.1 -0.1)">
       <defs>
        <path id="DejaVuSans-30" d="M 2034 4250 
Q 1547 4250 1301 3770 
Q 1056 3291 1056 2328 
Q 1056 1369 1301 889 
Q 1547 409 2034 409 
Q 2525 409 2770 889 
Q 3016 1369 3016 2328 
Q 3016 3291 2770 3770 
Q 2525 4250 2034 4250 
z
M 2034 4750 
Q 2819 4750 3233 4129 
Q 3647 3509 3647 2328 
Q 3647 1150 3233 529 
Q 2819 -91 2034 -91 
Q 1250 -91 836 529 
Q 422 1150 422 2328 
Q 422 3509 836 4129 
Q 1250 4750 2034 4750 
z
" transform="scale(0.015625)"/>
       </defs>
       <use xlink:href="#DejaVuSans-30"/>
      </g>
     </g>
    </g>
    <g id="xtick_2">
     <g id="line2d_2">
      <g>
       <use xlink:href="#m4082aeafb1" x="138.776625" y="307.584" style="stroke: #000000; stroke-width: 0.8"/>
      </g>
     </g>
     <g id="text_2">
      <!-- 1000 -->
      <g transform="translate(126.051625 322.182437) scale(0.1 -0.1)">
       <defs>
        <path id="DejaVuSans-31" d="M 794 531 
L 1825 531 
L 1825 4091 
L 703 3866 
L 703 4441 
L 1819 4666 
L 2450 4666 
L 2450 531 
L 3481 531 
L 3481 0 
L 794 0 
L 794 531 
z
" transform="scale(0.015625)"/>
       </defs>
       <use xlink:href="#DejaVuSans-31"/>
       <use xlink:href="#DejaVuSans-30" x="63.623047"/>
       <use xlink:href="#DejaVuSans-30" x="127.246094"/>
       <use xlink:href="#DejaVuSans-30" x="190.869141"/>
      </g>
     </g>
    </g>
    <g id="xtick_3">
     <g id="line2d_3">
      <g>
       <use xlink:href="#m4082aeafb1" x="203.720523" y="307.584" style="stroke: #000000; stroke-width: 0.8"/>
      </g>
     </g>
     <g id="text_3">
      <!-- 2000 -->
      <g transform="translate(190.995523 322.182437) scale(0.1 -0.1)">
       <defs>
        <path id="DejaVuSans-32" d="M 1228 531 
L 3431 531 
L 3431 0 
L 469 0 
L 469 531 
Q 828 903 1448 1529 
Q 2069 2156 2228 2338 
Q 2531 2678 2651 2914 
Q 2772 3150 2772 3378 
Q 2772 3750 2511 3984 
Q 2250 4219 1831 4219 
Q 1534 4219 1204 4116 
Q 875 4013 500 3803 
L 500 4441 
Q 881 4594 1212 4672 
Q 1544 4750 1819 4750 
Q 2544 4750 2975 4387 
Q 3406 4025 3406 3419 
Q 3406 3131 3298 2873 
Q 3191 2616 2906 2266 
Q 2828 2175 2409 1742 
Q 1991 1309 1228 531 
z
" transform="scale(0.015625)"/>
       </defs>
       <use xlink:href="#DejaVuSans-32"/>
       <use xlink:href="#DejaVuSans-30" x="63.623047"/>
       <use xlink:href="#DejaVuSans-30" x="127.246094"/>
       <use xlink:href="#DejaVuSans-30" x="190.869141"/>
      </g>
     </g>
    </g>
    <g id="xtick_4">
     <g id="line2d_4">
      <g>
       <use xlink:href="#m4082aeafb1" x="268.664421" y="307.584" style="stroke: #000000; stroke-width: 0.8"/>
      </g>
     </g>
     <g id="text_4">
      <!-- 3000 -->
      <g transform="translate(255.939421 322.182437) scale(0.1 -0.1)">
       <defs>
        <path id="DejaVuSans-33" d="M 2597 2516 
Q 3050 2419 3304 2112 
Q 3559 1806 3559 1356 
Q 3559 666 3084 287 
Q 2609 -91 1734 -91 
Q 1441 -91 1130 -33 
Q 819 25 488 141 
L 488 750 
Q 750 597 1062 519 
Q 1375 441 1716 441 
Q 2309 441 2620 675 
Q 2931 909 2931 1356 
Q 2931 1769 2642 2001 
Q 2353 2234 1838 2234 
L 1294 2234 
L 1294 2753 
L 1863 2753 
Q 2328 2753 2575 2939 
Q 2822 3125 2822 3475 
Q 2822 3834 2567 4026 
Q 2313 4219 1838 4219 
Q 1578 4219 1281 4162 
Q 984 4106 628 3988 
L 628 4550 
Q 988 4650 1302 4700 
Q 1616 4750 1894 4750 
Q 2613 4750 3031 4423 
Q 3450 4097 3450 3541 
Q 3450 3153 3228 2886 
Q 3006 2619 2597 2516 
z
" transform="scale(0.015625)"/>
       </defs>
       <use xlink:href="#DejaVuSans-33"/>
       <use xlink:href="#DejaVuSans-30" x="63.623047"/>
       <use xlink:href="#DejaVuSans-30" x="127.246094"/>
       <use xlink:href="#DejaVuSans-30" x="190.869141"/>
      </g>
     </g>
    </g>
    <g id="xtick_5">
     <g id="line2d_5">
      <g>
       <use xlink:href="#m4082aeafb1" x="333.608319" y="307.584" style="stroke: #000000; stroke-width: 0.8"/>
      </g>
     </g>
     <g id="text_5">
      <!-- 4000 -->
      <g transform="translate(320.883319 322.182437) scale(0.1 -0.1)">
       <defs>
        <path id="DejaVuSans-34" d="M 2419 4116 
L 825 1625 
L 2419 1625 
L 2419 4116 
z
M 2253 4666 
L 3047 4666 
L 3047 1625 
L 3713 1625 
L 3713 1100 
L 3047 1100 
L 3047 0 
L 2419 0 
L 2419 1100 
L 313 1100 
L 313 1709 
L 2253 4666 
z
" transform="scale(0.015625)"/>
       </defs>
       <use xlink:href="#DejaVuSans-34"/>
       <use xlink:href="#DejaVuSans-30" x="63.623047"/>
       <use xlink:href="#DejaVuSans-30" x="127.246094"/>
       <use xlink:href="#DejaVuSans-30" x="190.869141"/>
      </g>
     </g>
    </g>
    <g id="xtick_6">
     <g id="line2d_6">
      <g>
       <use xlink:href="#m4082aeafb1" x="398.552217" y="307.584" style="stroke: #000000; stroke-width: 0.8"/>
      </g>
     </g>
     <g id="text_6">
      <!-- 5000 -->
      <g transform="translate(385.827217 322.182437) scale(0.1 -0.1)">
       <defs>
        <path id="DejaVuSans-35" d="M 691 4666 
L 3169 4666 
L 3169 4134 
L 1269 4134 
L 1269 2991 
Q 1406 3038 1543 3061 
Q 1681 3084 1819 3084 
Q 2600 3084 3056 2656 
Q 3513 2228 3513 1497 
Q 3513 744 3044 326 
Q 2575 -91 1722 -91 
Q 1428 -91 1123 -41 
Q 819 9 494 109 
L 494 744 
Q 775 591 1075 516 
Q 1375 441 1709 441 
Q 2250 441 2565 725 
Q 2881 1009 2881 1497 
Q 2881 1984 2565 2268 
Q 2250 2553 1709 2553 
Q 1456 2553 1204 2497 
Q 953 2441 691 2322 
L 691 4666 
z
" transform="scale(0.015625)"/>
       </defs>
       <use xlink:href="#DejaVuSans-35"/>
       <use xlink:href="#DejaVuSans-30" x="63.623047"/>
       <use xlink:href="#DejaVuSans-30" x="127.246094"/>
       <use xlink:href="#DejaVuSans-30" x="190.869141"/>
      </g>
     </g>
    </g>
   </g>
   <g id="matplotlib.axis_2">
    <g id="ytick_1">
     <g id="line2d_7">
      <defs>
       <path id="md4c4156d17" d="M 0 0 
L -3.5 0 
" style="stroke: #000000; stroke-width: 0.8"/>
      </defs>
      <g>
       <use xlink:href="#md4c4156d17" x="57.6" y="289.41128" style="stroke: #000000; stroke-width: 0.8"/>
      </g>
     </g>
     <g id="text_7">
      <!-- −150 -->
      <g transform="translate(23.132812 293.210498) scale(0.1 -0.1)">
       <defs>
        <path id="DejaVuSans-2212" d="M 678 2272 
L 4684 2272 
L 4684 1741 
L 678 1741 
L 678 2272 
z
" transform="scale(0.015625)"/>
       </defs>
       <use xlink:href="#DejaVuSans-2212"/>
       <use xlink:href="#DejaVuSans-31" x="83.789062"/>
       <use xlink:href="#DejaVuSans-35" x="147.412109"/>
       <use xlink:href="#DejaVuSans-30" x="211.035156"/>
      </g>
     </g>
    </g>
    <g id="ytick_2">
     <g id="line2d_8">
      <g>
       <use xlink:href="#md4c4156d17" x="57.6" y="239.553473" style="stroke: #000000; stroke-width: 0.8"/>
      </g>
     </g>
     <g id="text_8">
      <!-- −100 -->
      <g transform="translate(23.132812 243.352692) scale(0.1 -0.1)">
       <use xlink:href="#DejaVuSans-2212"/>
       <use xlink:href="#DejaVuSans-31" x="83.789062"/>
       <use xlink:href="#DejaVuSans-30" x="147.412109"/>
       <use xlink:href="#DejaVuSans-30" x="211.035156"/>
      </g>
     </g>
    </g>
    <g id="ytick_3">
     <g id="line2d_9">
      <g>
       <use xlink:href="#md4c4156d17" x="57.6" y="189.695666" style="stroke: #000000; stroke-width: 0.8"/>
      </g>
     </g>
     <g id="text_9">
      <!-- −50 -->
      <g transform="translate(29.495313 193.494885) scale(0.1 -0.1)">
       <use xlink:href="#DejaVuSans-2212"/>
       <use xlink:href="#DejaVuSans-35" x="83.789062"/>
       <use xlink:href="#DejaVuSans-30" x="147.412109"/>
      </g>
     </g>
    </g>
    <g id="ytick_4">
     <g id="line2d_10">
      <g>
       <use xlink:href="#md4c4156d17" x="57.6" y="139.83786" style="stroke: #000000; stroke-width: 0.8"/>
      </g>
     </g>
     <g id="text_10">
      <!-- 0 -->
      <g transform="translate(44.2375 143.637079) scale(0.1 -0.1)">
       <use xlink:href="#DejaVuSans-30"/>
      </g>
     </g>
    </g>
    <g id="ytick_5">
     <g id="line2d_11">
      <g>
       <use xlink:href="#md4c4156d17" x="57.6" y="89.980053" style="stroke: #000000; stroke-width: 0.8"/>
      </g>
     </g>
     <g id="text_11">
      <!-- 50 -->
      <g transform="translate(37.875 93.779272) scale(0.1 -0.1)">
       <use xlink:href="#DejaVuSans-35"/>
       <use xlink:href="#DejaVuSans-30" x="63.623047"/>
      </g>
     </g>
    </g>
   </g>
   <g id="line2d_12">
    <path d="M 73.832727 245.119253 
L 73.962615 135.727508 
L 74.027559 141.341347 
L 74.092503 253.180117 
L 74.222391 144.44769 
L 74.287335 132.109854 
L 74.352278 141.24977 
L 74.417222 132.779421 
L 74.482166 136.519279 
L 74.54711 140.718035 
L 74.612054 139.333197 
L 74.676998 140.876951 
L 74.741942 86.519793 
L 74.87183 141.24977 
L 74.936774 137.491761 
L 75.001717 141.24977 
L 75.066661 138.040391 
L 75.131605 96.698394 
L 75.326437 243.291821 
L 75.521269 89.778735 
L 75.7161 199.979606 
L 75.781044 125.525004 
L 75.845988 134.004781 
L 75.910932 144.508185 
L 76.04082 53.568 
L 76.170708 131.180722 
L 76.235651 131.174073 
L 76.300595 138.958746 
L 76.365539 210.79503 
L 76.495427 138.623545 
L 76.560371 177.924413 
L 76.690259 138.479274 
L 76.755203 158.569414 
L 76.820147 137.999152 
L 76.88509 138.479274 
L 76.950034 150.515091 
L 77.014978 134.233906 
L 77.079922 177.611669 
L 77.144866 138.524692 
L 77.20981 177.924413 
L 77.274754 138.85715 
L 77.469586 207.875484 
L 77.534529 140.73473 
L 77.599473 150.301957 
L 77.664417 145.170661 
L 77.859249 195.837376 
L 77.924193 197.854004 
L 78.054081 163.17025 
L 78.183968 178.047712 
L 78.313856 178.047712 
L 78.443744 175.437534 
L 78.508688 175.809499 
L 78.638576 178.047712 
L 78.70352 178.047712 
L 78.963295 152.701011 
L 79.028239 152.701011 
L 79.223071 143.807751 
L 79.288015 146.07129 
L 79.352959 144.915274 
L 79.54779 142.745825 
L 80.586893 142.745825 
L 80.651837 154.159458 
L 80.781724 142.745825 
L 81.236332 142.745825 
L 81.301276 147.278963 
L 81.496107 253.370002 
L 81.625995 146.821338 
L 81.690939 175.142782 
L 81.820827 170.737361 
L 81.885771 139.83786 
L 82.015658 170.737361 
L 82.080602 170.737361 
L 82.21049 139.83786 
L 82.275434 170.737361 
L 82.405322 139.83786 
L 82.470266 170.737361 
L 82.600153 139.83786 
L 82.730041 170.737361 
L 82.924873 170.737361 
L 83.054761 139.83786 
L 83.119705 170.737361 
L 83.249592 139.83786 
L 83.37948 139.83786 
L 83.444424 170.737361 
L 83.574312 139.83786 
L 83.7042 170.737361 
L 83.834088 139.83786 
L 84.093863 139.83786 
L 84.158807 170.737361 
L 84.288695 139.83786 
L 84.353639 170.737361 
L 84.483527 139.83786 
L 84.613414 170.737361 
L 84.678358 139.83786 
L 84.808246 170.737361 
L 84.938134 139.83786 
L 85.003078 170.737361 
L 85.132966 139.83786 
L 85.197909 170.737361 
L 85.262853 139.83786 
L 85.327797 170.737361 
L 85.457685 139.83786 
L 85.652517 139.83786 
L 85.717461 170.737361 
L 85.782404 139.83786 
L 85.912292 170.737361 
L 86.04218 139.83786 
L 86.107124 139.83786 
L 86.172068 170.737361 
L 86.237012 139.83786 
L 86.3669 170.737361 
L 86.496787 139.83786 
L 86.626675 170.737361 
L 86.821507 170.737361 
L 86.886451 139.83786 
L 86.951395 170.737361 
L 87.081282 139.83786 
L 87.276114 139.83786 
L 87.406002 170.737361 
L 87.470946 170.737361 
L 87.600834 139.83786 
L 87.860609 139.83786 
L 87.990497 170.737361 
L 88.055441 139.83786 
L 88.185329 170.737361 
L 88.38016 170.737361 
L 88.510048 139.83786 
L 88.574992 170.737361 
L 88.639936 139.83786 
L 88.70488 170.737361 
L 88.834768 139.83786 
L 88.964655 139.83786 
L 89.029599 170.737361 
L 89.159487 139.83786 
L 89.289375 139.83786 
L 89.354319 170.737361 
L 89.484207 139.83786 
L 89.679038 139.83786 
L 89.743982 170.737361 
L 89.87387 139.83786 
L 90.003758 170.737361 
L 90.068702 170.737361 
L 90.19859 139.83786 
L 90.393421 188.874127 
L 90.588253 154.159458 
L 90.848029 154.159458 
L 90.977916 145.461888 
L 92.471626 145.461888 
L 92.53657 136.611209 
L 92.731402 65.598378 
L 92.861289 154.159458 
L 95.394101 154.159458 
L 95.459045 156.531777 
L 95.523989 212.740439 
L 95.588933 212.057401 
L 95.718821 211.921866 
L 95.848709 145.461888 
L 99.290735 145.461888 
L 99.355679 129.962218 
L 99.485567 170.78065 
L 99.550511 132.070276 
L 99.615455 145.461888 
L 99.87523 145.461888 
L 99.940174 173.825774 
L 100.070062 145.461888 
L 100.589613 145.461888 
L 100.654557 173.825774 
L 100.784445 145.461888 
L 101.303996 145.461888 
L 101.36894 173.825774 
L 101.433884 145.461888 
L 101.498828 192.774154 
L 101.628716 145.461888 
L 101.693659 145.461888 
L 101.758603 192.774154 
L 101.823547 173.825774 
L 101.888491 145.461888 
L 101.953435 192.774154 
L 102.018379 173.825774 
L 102.083323 145.461888 
L 102.148267 173.825774 
L 102.278155 132.939278 
L 102.408042 145.461888 
L 102.472986 145.461888 
L 102.53793 173.825774 
L 102.667818 145.461888 
L 102.732762 145.461888 
L 102.797706 173.825774 
L 102.927594 135.139552 
L 102.992537 173.825774 
L 103.057481 145.461888 
L 103.122425 173.825774 
L 103.252313 135.455466 
L 103.382201 173.825774 
L 103.447145 173.825774 
L 103.641976 134.259835 
L 103.70692 173.825774 
L 103.901752 135.663484 
L 103.966696 136.891672 
L 104.03164 156.700167 
L 104.096584 137.095635 
L 104.161528 137.402111 
L 104.226471 136.687848 
L 104.356359 145.461888 
L 104.421303 132.107309 
L 104.551191 156.700167 
L 104.616135 136.483996 
L 104.681079 145.461888 
L 104.746023 145.461888 
L 104.87591 136.177698 
L 104.940854 145.461888 
L 105.070742 134.817311 
L 105.20063 137.299866 
L 105.265574 145.461888 
L 105.395462 135.663484 
L 105.460406 137.402111 
L 105.525349 130.991017 
L 105.655237 156.458619 
L 105.785125 156.700167 
L 105.850069 193.908631 
L 105.979957 156.299239 
L 106.044901 193.908631 
L 106.109845 156.700167 
L 106.239732 193.908631 
L 106.304676 156.219933 
L 106.434564 193.908631 
L 106.564452 193.908631 
L 106.629396 155.904359 
L 106.69434 156.700167 
L 106.759283 156.299239 
L 106.824227 193.908631 
L 106.954115 155.825674 
L 107.019059 156.538768 
L 107.084003 136.381996 
L 107.213891 156.299239 
L 107.473666 156.700167 
L 107.668498 156.619272 
L 107.733442 155.983086 
L 107.798386 193.908631 
L 107.86333 156.299239 
L 107.993218 193.908631 
L 108.058161 193.908631 
L 108.123105 156.700167 
L 108.188049 193.908631 
L 108.252993 156.619272 
L 108.317937 156.700167 
L 108.382881 156.538768 
L 108.447825 156.700167 
L 108.512769 193.908631 
L 108.577713 156.700167 
L 108.642657 193.908631 
L 108.772544 156.219933 
L 108.837488 193.908631 
L 108.967376 156.061896 
L 109.03232 156.299239 
L 109.097264 193.908631 
L 109.162208 156.378788 
L 109.227152 156.700167 
L 109.292096 156.619272 
L 109.357039 193.908631 
L 109.486927 156.378788 
L 109.551871 156.619272 
L 109.616815 156.219933 
L 109.746703 156.700167 
L 109.876591 193.908631 
L 110.006478 156.538768 
L 110.071422 193.908631 
L 110.136366 156.619272 
L 110.266254 193.908631 
L 110.461086 135.97277 
L 110.52603 135.455466 
L 110.655917 156.378788 
L 110.720861 136.381996 
L 110.850749 156.619272 
L 110.915693 156.700167 
L 110.980637 136.483996 
L 111.045581 156.219933 
L 111.110525 135.766893 
L 111.175469 145.461888 
L 111.240412 136.483996 
L 111.305356 193.908631 
L 111.3703 156.538768 
L 111.500188 145.461888 
L 112.279515 145.461888 
L 112.344459 124.736477 
L 112.474347 145.461888 
L 112.86401 145.461888 
L 112.928954 124.736477 
L 113.058842 145.461888 
L 116.111205 145.461888 
L 116.176149 213.858094 
L 116.241093 152.082284 
L 116.306036 229.715287 
L 116.37098 145.461888 
L 116.435924 162.555059 
L 116.630756 145.461888 
L 116.825588 145.461888 
L 116.955475 158.569414 
L 117.085363 145.461888 
L 117.150307 145.461888 
L 117.280195 218.862432 
L 117.345139 183.893637 
L 117.475027 138.027368 
L 121.176829 138.027368 
L 121.306717 165.867193 
L 121.436604 138.027368 
L 121.501548 138.027368 
L 121.631436 143.837678 
L 121.761324 138.027368 
L 122.670538 138.027368 
L 122.735482 168.898437 
L 122.86537 138.027368 
L 123.060202 138.027368 
L 123.125146 168.898437 
L 123.255034 138.027368 
L 123.319977 138.027368 
L 123.384921 138.994493 
L 123.449865 138.027368 
L 123.579753 168.898437 
L 123.644697 138.027368 
L 123.839529 210.224384 
L 123.904473 168.898437 
L 123.969416 192.774154 
L 124.164248 138.027368 
L 124.294136 168.898437 
L 124.35908 168.898437 
L 124.488968 138.027368 
L 124.553912 138.027368 
L 124.618855 168.898437 
L 124.683799 138.027368 
L 124.748743 168.898437 
L 124.813687 138.027368 
L 124.878631 214.692397 
L 124.943575 138.027368 
L 125.008519 189.525025 
L 125.073463 138.027368 
L 125.138407 139.068969 
L 125.20335 138.027368 
L 125.268294 257.53382 
L 125.333238 184.360147 
L 125.398182 189.525025 
L 125.463126 138.763513 
L 125.52807 192.774154 
L 125.722902 138.027368 
L 125.787846 138.027368 
L 125.852789 195.447455 
L 125.917733 138.027368 
L 125.982677 152.248108 
L 126.047621 138.027368 
L 126.112565 192.774154 
L 126.242453 138.793879 
L 126.307397 257.53382 
L 126.372341 189.525025 
L 126.437285 138.027368 
L 126.502228 182.023447 
L 126.567172 138.027368 
L 126.632116 257.53382 
L 126.69706 192.774154 
L 126.826948 257.53382 
L 126.956836 189.525025 
L 127.02178 202.280632 
L 127.086724 138.027368 
L 127.151667 186.856025 
L 127.281555 138.027368 
L 127.346499 192.774154 
L 127.411443 138.027368 
L 127.476387 138.677238 
L 127.541331 138.027368 
L 127.606275 152.207574 
L 127.671219 214.692397 
L 127.736163 138.027368 
L 127.801106 152.288108 
L 127.86605 138.027368 
L 127.995938 192.774154 
L 128.060882 152.207574 
L 128.125826 192.774154 
L 128.19077 138.027368 
L 128.255714 138.994493 
L 128.320658 138.027368 
L 128.385601 206.098915 
L 128.450545 138.027368 
L 128.515489 192.774154 
L 128.645377 138.027368 
L 128.710321 202.280632 
L 128.840209 138.027368 
L 128.905153 192.774154 
L 129.03504 138.027368 
L 129.099984 138.027368 
L 129.164928 139.031225 
L 129.294816 138.027368 
L 129.749423 138.027368 
L 129.814367 192.774154 
L 129.879311 138.027368 
L 129.944255 257.53382 
L 130.074143 138.027368 
L 130.139087 138.027368 
L 130.268975 192.774154 
L 130.333918 138.027368 
L 130.398862 138.994493 
L 130.463806 152.327621 
L 130.52875 257.53382 
L 130.593694 152.248108 
L 130.658638 192.774154 
L 130.723582 210.224384 
L 130.85347 138.027368 
L 130.918414 138.027368 
L 131.113245 219.544095 
L 131.243133 138.027368 
L 131.373021 198.738988 
L 131.502909 192.774154 
L 131.567852 138.027368 
L 131.632796 186.856025 
L 131.762684 138.027368 
L 131.827628 151.950332 
L 131.892572 210.224384 
L 131.957516 192.774154 
L 132.087404 138.027368 
L 132.152348 138.027368 
L 132.217291 219.544095 
L 132.282235 138.027368 
L 132.347179 182.023447 
L 132.477067 138.027368 
L 132.542011 138.027368 
L 132.606955 219.544095 
L 132.671899 192.774154 
L 132.736843 214.692397 
L 132.801787 139.068969 
L 132.86673 192.774154 
L 132.931674 192.774154 
L 132.996618 138.027368 
L 133.061562 210.224384 
L 133.19145 138.027368 
L 133.256394 184.360147 
L 133.321338 152.327621 
L 133.451226 138.027368 
L 133.516169 195.447455 
L 133.581113 192.774154 
L 133.646057 138.027368 
L 133.711001 192.774154 
L 133.775945 189.525025 
L 133.905833 192.774154 
L 133.970777 224.82763 
L 134.035721 214.692397 
L 134.230552 152.124713 
L 134.295496 192.774154 
L 134.425384 138.027368 
L 134.490328 138.027368 
L 134.555272 257.53382 
L 134.68516 138.027368 
L 134.815047 192.774154 
L 134.879991 138.027368 
L 135.074823 257.53382 
L 135.204711 138.027368 
L 135.334599 257.53382 
L 135.399542 138.027368 
L 135.464486 182.023447 
L 135.659318 230.599718 
L 135.85415 152.327621 
L 135.919094 192.774154 
L 135.984038 138.027368 
L 136.048981 192.774154 
L 136.113925 138.923957 
L 136.243813 192.774154 
L 136.373701 138.027368 
L 136.438645 138.763513 
L 136.568533 192.774154 
L 136.633477 186.856025 
L 136.828308 210.224384 
L 136.893252 192.774154 
L 136.958196 138.027368 
L 137.02314 192.774154 
L 137.153028 138.027368 
L 137.217972 138.027368 
L 137.282915 138.825084 
L 137.347859 182.023447 
L 137.477747 138.027368 
L 137.542691 192.774154 
L 137.607635 138.027368 
L 137.672579 192.774154 
L 137.802467 138.027368 
L 137.867411 138.027368 
L 137.932354 152.327621 
L 137.997298 192.774154 
L 138.127186 138.027368 
L 138.19213 210.224384 
L 138.257074 206.098915 
L 138.322018 138.027368 
L 138.386962 182.023447 
L 138.51685 138.027368 
L 138.581793 139.068969 
L 138.646737 138.027368 
L 138.711681 206.098915 
L 138.776625 182.023447 
L 138.906513 192.774154 
L 138.971457 138.027368 
L 139.036401 192.774154 
L 139.101345 182.023447 
L 139.166289 152.124713 
L 139.296176 210.224384 
L 139.36112 138.027368 
L 139.426064 138.890099 
L 139.491008 152.166459 
L 139.620896 138.027368 
L 139.68584 192.774154 
L 139.750784 138.027368 
L 139.815728 202.280632 
L 139.880671 192.382892 
L 139.945615 152.327621 
L 140.010559 257.53382 
L 140.075503 138.733965 
L 140.140447 138.994493 
L 140.270335 192.774154 
L 140.400223 138.027368 
L 140.53011 138.027368 
L 140.595054 192.774154 
L 140.659998 182.023447 
L 140.789886 138.027368 
L 140.85483 138.027368 
L 140.919774 138.890099 
L 140.984718 138.027368 
L 141.049662 178.827904 
L 141.179549 138.027368 
L 141.244493 183.893637 
L 141.309437 138.027368 
L 141.439325 183.893637 
L 141.504269 138.027368 
L 141.634157 183.893637 
L 141.699101 138.027368 
L 141.764044 183.893637 
L 141.893932 138.027368 
L 141.958876 138.027368 
L 142.088764 183.893637 
L 142.218652 138.027368 
L 142.283596 138.027368 
L 142.34854 183.893637 
L 142.413483 145.13287 
L 142.543371 183.893637 
L 142.738203 183.893637 
L 142.803147 138.027368 
L 142.933035 183.893637 
L 143.51753 183.893637 
L 143.582474 138.027368 
L 143.647417 183.893637 
L 143.712361 138.027368 
L 143.842249 183.893637 
L 143.972137 183.893637 
L 144.037081 145.13287 
L 144.166969 183.893637 
L 144.231913 183.893637 
L 144.3618 138.027368 
L 144.426744 209.178205 
L 144.491688 138.85715 
L 144.556632 184.536429 
L 144.621576 181.465673 
L 144.881352 145.856713 
L 145.400903 145.856713 
L 145.465847 172.958175 
L 145.530791 172.248264 
L 145.660678 177.924413 
L 146.115286 177.924413 
L 146.245173 218.879186 
L 146.440005 139.508998 
L 146.569893 225.37598 
L 146.634837 177.924413 
L 146.699781 207.421729 
L 146.829668 177.924413 
L 146.894612 225.37598 
L 146.959556 177.924413 
L 147.0245 212.914489 
L 147.154388 177.924413 
L 147.219332 240.264103 
L 147.34922 139.45935 
L 147.479107 218.879186 
L 147.608995 177.924413 
L 147.868771 177.924413 
L 147.933715 225.37598 
L 147.998659 212.914489 
L 148.063603 177.924413 
L 148.258434 225.37598 
L 148.388322 177.924413 
L 148.842929 177.924413 
L 148.907873 218.879186 
L 149.037761 177.924413 
L 149.102705 177.924413 
L 149.167649 207.421729 
L 149.232593 177.924413 
L 149.427424 240.264103 
L 149.752144 139.45935 
L 149.882032 177.924413 
L 150.011919 177.924413 
L 150.076863 212.914489 
L 150.206751 177.924413 
L 150.661358 177.924413 
L 150.791246 212.914489 
L 150.85619 207.421729 
L 150.921134 177.924413 
L 150.986078 240.264103 
L 151.051022 139.45935 
L 151.115966 177.924413 
L 151.18091 177.924413 
L 151.245854 218.879186 
L 151.375741 177.924413 
L 151.440685 177.924413 
L 151.505629 218.879186 
L 151.570573 212.914489 
L 151.635517 212.914489 
L 151.700461 177.924413 
L 151.765405 225.37598 
L 151.895293 177.924413 
L 151.960236 177.924413 
L 152.02518 218.879186 
L 152.155068 177.924413 
L 152.220012 177.924413 
L 152.284956 218.879186 
L 152.3499 212.914489 
L 152.479788 177.924413 
L 152.544731 240.264103 
L 152.609675 177.924413 
L 152.674619 212.914489 
L 152.739563 177.924413 
L 152.804507 212.914489 
L 152.869451 177.924413 
L 152.934395 218.879186 
L 152.999339 177.924413 
L 153.064283 240.264103 
L 153.19417 177.924413 
L 153.324058 177.924413 
L 153.389002 225.37598 
L 153.51889 177.924413 
L 153.583834 232.476029 
L 153.648778 225.37598 
L 153.778666 177.924413 
L 153.908553 240.264103 
L 153.973497 177.924413 
L 154.038441 240.264103 
L 154.168329 177.924413 
L 154.493048 177.924413 
L 154.622936 240.264103 
L 154.752824 177.924413 
L 155.142487 177.924413 
L 155.272375 232.476029 
L 155.337319 212.914489 
L 155.402263 218.879186 
L 155.467207 207.421729 
L 155.532151 212.914489 
L 155.597095 218.879186 
L 155.726982 177.924413 
L 155.791926 225.37598 
L 155.85687 177.924413 
L 155.921814 218.879186 
L 156.051702 177.924413 
L 156.116646 218.879186 
L 156.246534 177.924413 
L 156.311478 218.879186 
L 156.376421 212.914489 
L 156.441365 218.879186 
L 156.506309 139.364082 
L 156.571253 177.924413 
L 156.701141 177.924413 
L 156.766085 240.264103 
L 156.831029 207.421729 
L 156.895973 212.914489 
L 156.960917 177.924413 
L 157.02586 240.264103 
L 157.090804 177.924413 
L 157.155748 218.879186 
L 157.285636 177.924413 
L 157.35058 218.879186 
L 157.415524 177.924413 
L 157.480468 218.879186 
L 157.610356 177.924413 
L 157.740243 177.924413 
L 157.805187 232.476029 
L 157.870131 177.924413 
L 157.935075 218.879186 
L 158.000019 177.924413 
L 158.129907 212.914489 
L 158.259795 177.924413 
L 158.389682 177.924413 
L 158.454626 240.264103 
L 158.51957 212.914489 
L 158.584514 177.924413 
L 158.649458 207.421729 
L 158.714402 177.924413 
L 158.779346 212.914489 
L 158.84429 177.924413 
L 158.909233 207.421729 
L 158.974177 139.411058 
L 159.039121 225.37598 
L 159.104065 177.924413 
L 159.169009 207.421729 
L 159.298897 177.924413 
L 159.558672 177.924413 
L 159.623616 212.914489 
L 159.753504 177.924413 
L 159.818448 212.914489 
L 159.883392 207.421729 
L 160.01328 177.924413 
L 160.597775 177.924413 
L 160.662719 225.37598 
L 160.792607 177.924413 
L 160.987438 177.924413 
L 161.052382 218.879186 
L 161.18227 177.924413 
L 161.247214 177.924413 
L 161.377102 232.476029 
L 161.442046 207.421729 
L 161.506989 240.264103 
L 161.571933 225.37598 
L 161.636877 177.924413 
L 161.766765 240.264103 
L 161.896653 177.924413 
L 161.961597 240.264103 
L 162.026541 218.879186 
L 162.091484 218.879186 
L 162.221372 177.924413 
L 162.35126 218.879186 
L 162.481148 177.924413 
L 162.611036 177.924413 
L 162.67598 232.476029 
L 162.740923 177.924413 
L 162.805867 207.421729 
L 162.935755 177.924413 
L 163.260475 177.924413 
L 163.325419 207.421729 
L 163.455306 177.924413 
L 163.52025 177.924413 
L 163.715082 232.476029 
L 163.84497 177.924413 
L 163.909914 232.476029 
L 164.039801 177.924413 
L 164.104745 240.264103 
L 164.169689 177.924413 
L 164.234633 218.879186 
L 164.364521 218.879186 
L 164.494409 207.421729 
L 164.624296 177.924413 
L 165.01396 177.924413 
L 165.078904 139.45935 
L 165.208792 240.264103 
L 165.338679 177.924413 
L 165.468567 225.37598 
L 165.598455 177.924413 
L 165.728343 177.924413 
L 165.923174 225.37598 
L 165.988118 177.924413 
L 166.053062 232.476029 
L 166.18295 139.45935 
L 166.312838 232.476029 
L 166.377782 177.924413 
L 166.442726 232.476029 
L 166.50767 212.914489 
L 166.702501 139.45935 
L 166.832389 225.37598 
L 166.897333 177.924413 
L 166.962277 240.264103 
L 167.027221 207.421729 
L 167.092165 177.924413 
L 167.157109 212.914489 
L 167.222052 177.924413 
L 167.286996 207.421729 
L 167.416884 177.924413 
L 167.67666 177.924413 
L 167.741604 218.879186 
L 167.806547 177.924413 
L 167.871491 212.914489 
L 168.001379 177.924413 
L 168.131267 225.37598 
L 168.261155 177.924413 
L 168.326099 240.264103 
L 168.391043 212.914489 
L 168.52093 177.924413 
L 168.585874 177.924413 
L 168.715762 218.879186 
L 168.84565 177.924413 
L 168.910594 240.264103 
L 169.040482 139.45935 
L 169.170369 177.924413 
L 169.495089 177.924413 
L 169.560033 212.914489 
L 169.689921 177.924413 
L 169.754864 177.924413 
L 169.819808 218.879186 
L 169.884752 207.421729 
L 169.949696 177.924413 
L 170.01464 240.264103 
L 170.079584 218.879186 
L 170.209472 177.924413 
L 170.274416 218.879186 
L 170.404303 177.924413 
L 170.729023 177.924413 
L 170.858911 207.421729 
L 170.988798 177.924413 
L 171.053742 177.924413 
L 171.118686 232.476029 
L 171.248574 177.924413 
L 171.443406 177.924413 
L 171.50835 240.264103 
L 171.638237 177.924413 
L 171.768125 177.924413 
L 171.833069 139.508998 
L 171.898013 218.879186 
L 171.962957 177.924413 
L 172.027901 207.421729 
L 172.157789 177.924413 
L 172.222733 212.914489 
L 172.35262 177.924413 
L 172.417564 212.914489 
L 172.482508 177.924413 
L 172.547452 232.476029 
L 172.612396 207.421729 
L 172.67734 240.264103 
L 172.807228 177.924413 
L 172.872172 240.264103 
L 172.937115 232.476029 
L 173.002059 225.37598 
L 173.131947 177.924413 
L 173.326779 177.924413 
L 173.391723 240.264103 
L 173.521611 177.924413 
L 173.586554 177.924413 
L 173.651498 240.264103 
L 173.781386 177.924413 
L 173.911274 177.924413 
L 173.976218 212.914489 
L 174.041162 177.924413 
L 174.106106 240.264103 
L 174.235993 177.924413 
L 174.300937 225.37598 
L 174.430825 177.924413 
L 174.820488 177.924413 
L 174.885432 232.476029 
L 174.950376 207.421729 
L 175.01532 232.476029 
L 175.145208 177.924413 
L 175.34004 177.924413 
L 175.404984 240.264103 
L 175.469927 232.476029 
L 175.729703 177.924413 
L 175.794647 212.914489 
L 175.924535 177.924413 
L 176.054423 177.924413 
L 176.119366 232.476029 
L 176.249254 177.924413 
L 176.379142 225.37598 
L 176.444086 177.924413 
L 176.50903 225.37598 
L 176.638918 177.924413 
L 176.703861 177.924413 
L 176.768805 240.264103 
L 176.833749 177.924413 
L 176.963637 225.37598 
L 177.093525 177.924413 
L 177.158469 177.924413 
L 177.223413 139.508998 
L 177.3533 177.924413 
L 177.483188 177.924413 
L 177.548132 207.421729 
L 177.67802 177.924413 
L 177.742964 177.924413 
L 177.807908 218.879186 
L 177.937796 177.924413 
L 178.002739 212.914489 
L 178.132627 177.924413 
L 178.197571 212.914489 
L 178.262515 177.924413 
L 178.327459 240.264103 
L 178.392403 232.476029 
L 178.522291 177.924413 
L 178.652178 177.924413 
L 178.782066 225.37598 
L 178.911954 177.924413 
L 178.976898 225.37598 
L 179.106786 177.924413 
L 179.17173 218.879186 
L 179.236674 177.924413 
L 179.301617 240.264103 
L 179.431505 177.924413 
L 179.496449 232.476029 
L 179.626337 177.924413 
L 179.756225 225.37598 
L 180.016 177.924413 
L 180.080944 225.37598 
L 180.210832 177.924413 
L 180.275776 177.924413 
L 180.34072 218.879186 
L 180.405664 177.924413 
L 180.470608 225.37598 
L 180.535551 177.924413 
L 180.600495 240.264103 
L 180.730383 177.924413 
L 180.795327 177.924413 
L 180.860271 218.879186 
L 180.925215 177.924413 
L 180.990159 212.914489 
L 181.055103 139.45935 
L 181.120047 212.914489 
L 181.18499 177.924413 
L 181.444766 177.924413 
L 181.50971 212.914489 
L 181.574654 177.924413 
L 181.639598 225.37598 
L 181.704542 212.914489 
L 181.769486 177.924413 
L 181.834429 218.879186 
L 181.899373 212.914489 
L 181.964317 218.879186 
L 182.159149 177.924413 
L 182.224093 218.879186 
L 182.289037 177.924413 
L 182.353981 240.264103 
L 182.418925 139.508998 
L 182.483868 177.924413 
L 182.613756 225.37598 
L 182.743644 177.924413 
L 182.808588 177.924413 
L 182.938476 218.879186 
L 183.068363 177.924413 
L 183.522971 177.924413 
L 183.587915 240.264103 
L 183.652859 225.37598 
L 183.717802 212.914489 
L 183.84769 177.924413 
L 184.042522 177.924413 
L 184.107466 240.264103 
L 184.237354 177.924413 
L 184.367241 177.924413 
L 184.432185 218.879186 
L 184.497129 177.924413 
L 184.691961 232.476029 
L 184.756905 177.924413 
L 184.821849 240.264103 
L 184.886793 218.879186 
L 184.951737 218.879186 
L 185.081624 177.924413 
L 185.3414 177.924413 
L 185.471288 240.264103 
L 185.601176 177.924413 
L 185.666119 207.421729 
L 185.796007 177.924413 
L 185.860951 207.421729 
L 185.990839 177.924413 
L 186.055783 177.924413 
L 186.120727 207.421729 
L 186.185671 177.924413 
L 186.250614 212.914489 
L 186.380502 177.924413 
L 186.445446 225.37598 
L 186.51039 212.914489 
L 186.640278 177.924413 
L 186.705222 177.924413 
L 186.770166 212.914489 
L 186.83511 139.508998 
L 186.900053 240.264103 
L 186.964997 177.924413 
L 187.094885 177.924413 
L 187.159829 218.879186 
L 187.289717 177.924413 
L 188.133988 177.924413 
L 188.263875 138.027368 
L 192.095565 138.027368 
L 192.160509 112.591206 
L 192.290397 163.103851 
L 192.355341 105.700622 
L 192.420285 145.461888 
L 192.809948 145.461888 
L 192.874892 132.754357 
L 193.00478 73.86544 
L 193.069724 73.86544 
L 193.199612 149.187531 
L 249.505971 149.187531 
L 249.635859 156.863273 
L 249.765747 156.863273 
L 249.895634 149.187531 
L 253.272717 149.187531 
L 253.402605 72.648101 
L 253.532493 72.648101 
L 253.727324 72.428944 
L 253.792268 72.428944 
L 253.9871 72.197254 
L 254.376763 71.864305 
L 254.441707 71.950448 
L 254.506651 71.864305 
L 254.571595 71.864305 
L 254.636539 71.592459 
L 254.701483 85.350745 
L 254.831371 125.837716 
L 254.896315 125.752601 
L 255.026202 187.460353 
L 255.091146 187.518413 
L 255.221034 151.810069 
L 255.415866 151.810069 
L 255.545754 152.082284 
L 255.610697 151.995153 
L 255.675641 152.082284 
L 257.429127 152.166459 
L 257.49407 152.248108 
L 257.559014 152.166459 
L 257.883734 152.166459 
L 257.948678 151.810069 
L 258.013622 151.90459 
L 258.403285 151.810069 
L 258.598117 151.710996 
L 259.767107 151.710996 
L 259.832051 240.264103 
L 259.961939 151.710996 
L 260.091826 240.264103 
L 260.15677 151.710996 
L 260.221714 240.264103 
L 260.351602 151.710996 
L 260.416546 151.710996 
L 260.48149 240.264103 
L 260.611378 151.710996 
L 260.676321 151.710996 
L 260.741265 240.264103 
L 260.806209 151.810069 
L 260.871153 240.264103 
L 261.001041 151.810069 
L 261.130929 240.264103 
L 261.260817 240.264103 
L 261.390704 151.810069 
L 261.520592 151.810069 
L 261.65048 240.264103 
L 261.715424 151.810069 
L 261.780368 240.264103 
L 261.910256 151.810069 
L 261.975199 240.264103 
L 262.105087 151.810069 
L 262.234975 240.264103 
L 262.299919 240.264103 
L 262.364863 151.810069 
L 262.494751 240.264103 
L 262.559694 151.810069 
L 262.689582 240.264103 
L 262.754526 151.810069 
L 262.884414 240.264103 
L 263.014302 240.264103 
L 263.14419 151.810069 
L 263.274077 240.264103 
L 263.339021 151.810069 
L 263.403965 240.264103 
L 263.468909 151.810069 
L 263.598797 240.264103 
L 263.663741 240.264103 
L 263.728685 151.810069 
L 263.793629 152.405357 
L 263.858572 240.264103 
L 263.923516 152.704821 
L 264.053404 225.37598 
L 264.118348 225.37598 
L 264.183292 152.556797 
L 264.248236 240.264103 
L 264.378124 152.556797 
L 264.443068 240.264103 
L 264.508011 152.556797 
L 264.637899 240.264103 
L 264.767787 152.556797 
L 264.962619 152.556797 
L 265.027563 240.264103 
L 265.15745 152.631098 
L 265.222394 240.264103 
L 265.287338 152.631098 
L 265.417226 240.264103 
L 265.547114 152.631098 
L 265.612058 152.631098 
L 265.677002 240.264103 
L 265.806889 152.631098 
L 265.871833 240.264103 
L 265.936777 152.631098 
L 266.066665 240.264103 
L 266.196553 240.264103 
L 266.261497 152.631098 
L 266.326441 240.264103 
L 266.456328 152.556797 
L 266.586216 152.556797 
L 266.716104 240.264103 
L 266.845992 240.264103 
L 266.910936 152.556797 
L 266.97588 240.264103 
L 267.105767 152.631098 
L 267.170711 152.556797 
L 267.235655 152.631098 
L 267.300599 152.631098 
L 267.365543 240.264103 
L 267.495431 152.631098 
L 267.560375 152.556797 
L 267.625319 240.264103 
L 267.755206 152.481646 
L 268.079926 152.481646 
L 268.209814 240.264103 
L 268.274757 240.264103 
L 268.339701 152.481646 
L 268.469589 240.264103 
L 268.534533 240.264103 
L 268.664421 152.481646 
L 268.729365 240.264103 
L 268.859253 152.481646 
L 268.924196 152.481646 
L 269.054084 240.264103 
L 269.119028 152.481646 
L 269.183972 240.264103 
L 269.31386 152.481646 
L 269.443748 152.481646 
L 269.508692 240.264103 
L 269.638579 152.481646 
L 269.703523 152.481646 
L 269.833411 240.264103 
L 269.898355 152.481646 
L 269.963299 240.264103 
L 270.028243 149.187531 
L 270.093187 240.264103 
L 270.158131 152.481646 
L 270.288018 240.264103 
L 270.352962 240.264103 
L 270.612738 152.481646 
L 270.742626 240.264103 
L 270.80757 240.264103 
L 270.872513 149.187531 
L 271.002401 240.264103 
L 271.262177 240.264103 
L 271.327121 152.481646 
L 271.457008 240.264103 
L 271.521952 240.264103 
L 271.586896 216.965202 
L 271.65184 240.264103 
L 271.781728 209.662806 
L 271.846672 240.264103 
L 271.911616 149.187531 
L 271.97656 209.662806 
L 272.106447 240.264103 
L 272.171391 149.187531 
L 272.301279 240.264103 
L 272.366223 150.515091 
L 272.496111 240.264103 
L 272.561055 209.662806 
L 272.625999 240.264103 
L 272.690943 152.481646 
L 272.82083 240.264103 
L 272.885774 240.264103 
L 272.950718 149.187531 
L 273.015662 240.264103 
L 273.080606 209.662806 
L 273.14555 240.264103 
L 273.210494 149.187531 
L 273.275438 240.264103 
L 273.405325 149.187531 
L 273.470269 240.264103 
L 273.535213 149.187531 
L 273.600157 152.481646 
L 273.730045 240.264103 
L 273.859933 240.264103 
L 273.989821 149.187531 
L 274.119708 240.264103 
L 274.184652 150.515091 
L 274.249596 240.264103 
L 274.31454 149.187531 
L 274.379484 209.662806 
L 274.444428 149.187531 
L 274.574316 240.264103 
L 274.639259 149.187531 
L 274.704203 152.481646 
L 274.769147 209.662806 
L 274.834091 149.187531 
L 274.963979 240.264103 
L 275.093867 240.264103 
L 275.158811 149.187531 
L 275.223755 150.515091 
L 275.288698 149.187531 
L 275.353642 152.481646 
L 275.48353 240.264103 
L 275.548474 209.662806 
L 275.613418 240.264103 
L 275.678362 209.662806 
L 275.743306 240.264103 
L 275.80825 149.187531 
L 275.873194 240.264103 
L 275.938137 149.187531 
L 276.003081 209.662806 
L 276.132969 240.264103 
L 276.262857 240.264103 
L 276.327801 152.481646 
L 276.392745 209.662806 
L 276.457689 209.662806 
L 276.587576 149.187531 
L 276.717464 240.264103 
L 276.782408 225.192657 
L 276.912296 240.264103 
L 277.107128 240.264103 
L 277.172072 209.662806 
L 277.237015 240.264103 
L 277.301959 149.187531 
L 277.366903 150.515091 
L 277.431847 240.264103 
L 277.496791 149.187531 
L 277.561735 152.778226 
L 277.626679 240.264103 
L 277.691623 152.778226 
L 277.756567 240.264103 
L 277.82151 152.778226 
L 277.886454 240.264103 
L 277.951398 152.778226 
L 278.016342 240.264103 
L 278.14623 149.187531 
L 278.211174 149.187531 
L 278.276118 152.778226 
L 278.470949 240.264103 
L 278.535893 240.264103 
L 278.600837 152.778226 
L 278.665781 240.264103 
L 278.730725 149.187531 
L 278.795669 240.264103 
L 278.925557 152.778226 
L 278.990501 149.187531 
L 279.120388 240.264103 
L 279.250276 149.187531 
L 279.31522 209.662806 
L 279.445108 149.697539 
L 279.574996 240.264103 
L 279.63994 240.264103 
L 279.704884 209.662806 
L 279.769827 240.264103 
L 279.834771 149.697539 
L 279.964659 240.264103 
L 280.094547 240.264103 
L 280.159491 209.662806 
L 280.224435 240.264103 
L 280.354323 149.187531 
L 280.48421 240.264103 
L 280.549154 240.264103 
L 280.614098 147.271744 
L 280.679042 148.456962 
L 280.80893 240.264103 
L 281.003761 240.264103 
L 281.133649 149.187531 
L 281.198593 149.187531 
L 281.328481 240.264103 
L 281.393425 149.187531 
L 281.458369 152.778226 
L 281.588257 240.264103 
L 281.783088 149.187531 
L 281.848032 240.264103 
L 281.912976 204.135512 
L 282.042864 240.264103 
L 282.172752 240.264103 
L 282.237696 145.103786 
L 282.302639 149.187531 
L 282.367583 151.930668 
L 282.432527 209.662806 
L 282.497471 150.515091 
L 282.627359 240.264103 
L 282.692303 240.264103 
L 282.757247 151.930668 
L 282.887135 240.264103 
L 283.017022 240.264103 
L 283.081966 216.965202 
L 283.276798 295.488 
L 283.47163 150.515091 
L 283.536573 240.264103 
L 283.601517 166.060356 
L 283.666461 216.965202 
L 283.731405 149.187531 
L 283.926237 240.264103 
L 284.056125 149.187531 
L 284.250956 280.229204 
L 284.445788 149.187531 
L 284.575676 240.264103 
L 284.64062 240.264103 
L 284.705564 216.965202 
L 284.770508 149.187531 
L 284.835451 170.232788 
L 284.965339 216.965202 
L 285.095227 149.187531 
L 285.160171 209.662806 
L 285.225115 152.778226 
L 285.355003 209.662806 
L 285.419947 216.965202 
L 285.549834 209.662806 
L 285.614778 280.254798 
L 285.679722 149.187531 
L 285.744666 240.264103 
L 285.874554 175.001213 
L 285.939498 180.451034 
L 286.134329 240.264103 
L 286.199273 240.264103 
L 286.264217 149.187531 
L 286.329161 240.264103 
L 286.394105 209.662806 
L 286.523993 150.515091 
L 286.588937 150.515091 
L 286.718824 240.264103 
L 286.783768 186.692373 
L 286.848712 280.254798 
L 287.043544 149.187531 
L 287.238376 240.264103 
L 287.30332 149.187531 
L 287.368263 152.778226 
L 287.498151 240.264103 
L 287.563095 240.264103 
L 287.692983 152.778226 
L 287.757927 240.264103 
L 287.822871 149.187531 
L 287.887815 209.662806 
L 287.952759 149.187531 
L 288.017702 216.965202 
L 288.082646 152.778226 
L 288.212534 209.662806 
L 288.277478 193.867604 
L 288.537254 240.264103 
L 288.602198 149.187531 
L 288.667141 240.264103 
L 288.732085 149.187531 
L 288.797029 202.162254 
L 288.861973 149.187531 
L 288.926917 150.515091 
L 288.991861 150.515091 
L 289.056805 209.662806 
L 289.186693 152.778226 
L 289.251637 149.187531 
L 289.381524 211.821063 
L 289.511412 149.187531 
L 289.576356 152.778226 
L 289.6413 150.515091 
L 289.706244 149.187531 
L 289.836132 223.172158 
L 289.901075 149.187531 
L 289.966019 209.662806 
L 290.030963 152.778226 
L 290.095907 236.664478 
L 290.160851 209.662806 
L 290.225795 150.515091 
L 290.420627 244.400967 
L 290.550514 152.778226 
L 290.615458 240.264103 
L 290.680402 216.965202 
L 290.745346 209.662806 
L 290.81029 240.264103 
L 290.875234 150.515091 
L 290.940178 216.965202 
L 291.005122 149.187531 
L 291.070066 209.662806 
L 291.13501 149.187531 
L 291.199953 150.515091 
L 291.329841 244.400967 
L 291.459729 152.778226 
L 291.524673 209.662806 
L 291.589617 149.187531 
L 291.719505 244.400967 
L 291.784449 149.187531 
L 291.914336 244.400967 
L 292.044224 216.965202 
L 292.109168 209.662806 
L 292.239056 216.965202 
L 292.368944 149.187531 
L 292.433888 216.965202 
L 292.498831 209.662806 
L 292.563775 209.662806 
L 292.693663 244.400967 
L 292.758607 186.216957 
L 292.823551 240.264103 
L 292.888495 150.515091 
L 292.953439 209.662806 
L 293.083326 209.662806 
L 293.14827 244.400967 
L 293.213214 193.409401 
L 293.278158 240.264103 
L 293.343102 209.662806 
L 293.408046 150.515091 
L 293.537934 240.264103 
L 293.602878 209.662806 
L 293.667822 244.400967 
L 293.797709 149.187531 
L 293.927597 244.400967 
L 294.057485 149.187531 
L 294.187373 209.662806 
L 294.252317 149.187531 
L 294.317261 216.965202 
L 294.382204 209.662806 
L 294.447148 209.662806 
L 294.512092 216.965202 
L 294.706924 209.662806 
L 294.771868 222.764466 
L 294.836812 148.299083 
L 294.9667 240.264103 
L 295.096587 149.187531 
L 295.161531 149.187531 
L 295.226475 240.264103 
L 295.356363 152.778226 
L 295.421307 244.400967 
L 295.486251 163.081438 
L 295.551195 209.662806 
L 295.616139 244.400967 
L 295.746026 149.187531 
L 295.81097 244.400967 
L 295.875914 240.264103 
L 296.070746 167.552019 
L 296.13569 280.254798 
L 296.200634 209.662806 
L 296.330521 209.662806 
L 296.395465 244.400967 
L 296.460409 244.017901 
L 296.590297 240.264103 
L 296.655241 244.017901 
L 296.720185 240.264103 
L 296.785129 149.187531 
L 296.850073 209.662806 
L 297.044904 149.187531 
L 297.174792 244.400967 
L 297.30468 150.515091 
L 297.369624 152.778226 
L 297.434568 244.400967 
L 297.499512 209.662806 
L 297.564455 244.400967 
L 297.694343 209.662806 
L 297.759287 240.264103 
L 297.824231 149.187531 
L 297.889175 185.239266 
L 298.019063 209.662806 
L 298.084007 209.662806 
L 298.148951 244.400967 
L 298.408726 149.187531 
L 298.538614 216.965202 
L 298.668502 149.187531 
L 298.863333 244.400967 
L 298.928277 244.400967 
L 299.058165 209.662806 
L 299.123109 209.662806 
L 299.188053 244.400967 
L 299.317941 149.187531 
L 299.382885 244.400967 
L 299.447828 240.264103 
L 299.512772 209.662806 
L 299.64266 244.400967 
L 299.707604 240.264103 
L 299.772548 150.515091 
L 299.837492 209.662806 
L 299.902436 244.400967 
L 300.032324 209.662806 
L 300.097267 209.662806 
L 300.227155 244.017901 
L 300.292099 181.877416 
L 300.357043 209.662806 
L 300.421987 244.017901 
L 300.551875 209.662806 
L 300.681763 209.662806 
L 300.746706 244.017901 
L 300.81165 209.662806 
L 300.876594 244.017901 
L 301.006482 209.662806 
L 301.071426 240.264103 
L 301.13637 149.187531 
L 301.201314 244.017901 
L 301.266258 240.264103 
L 301.331202 149.187531 
L 301.396145 244.017901 
L 301.461089 209.662806 
L 301.590977 209.662806 
L 301.720865 244.017901 
L 301.850753 209.662806 
L 301.98064 209.662806 
L 302.110528 244.400967 
L 302.240416 244.017901 
L 302.370304 244.017901 
L 302.435248 240.264103 
L 302.500192 244.017901 
L 302.565136 220.569847 
L 302.630079 240.264103 
L 302.695023 180.785387 
L 302.759967 191.090207 
L 302.889855 244.017901 
L 302.954799 203.116972 
L 303.019743 244.017901 
L 303.084687 217.311992 
L 303.149631 244.017901 
L 303.214575 225.409239 
L 303.344462 244.017901 
L 303.409406 244.017901 
L 303.47435 240.264103 
L 303.539294 225.409239 
L 303.604238 244.017901 
L 303.669182 225.409239 
L 303.734126 244.017901 
L 303.79907 225.409239 
L 303.928957 244.017901 
L 303.993901 240.264103 
L 304.058845 178.633943 
L 304.188733 244.017901 
L 304.318621 235.194447 
L 304.383565 225.409239 
L 304.448509 244.017901 
L 304.513453 240.264103 
L 305.097948 240.264103 
L 305.227835 139.83786 
L 305.357723 175.467773 
L 305.422667 139.83786 
L 305.552555 240.264103 
L 305.617499 175.467773 
L 305.747387 240.264103 
L 305.81233 139.83786 
L 305.942218 240.264103 
L 398.487273 240.264103 
L 398.487273 240.264103 
" clip-path="url(#p743d3b14e7)" style="fill: none; stroke: #1f77b4; stroke-width: 1.5; stroke-linecap: square"/>
   </g>
   <g id="patch_3">
    <path d="M 57.6 307.584 
L 57.6 41.472 
" style="fill: none; stroke: #000000; stroke-width: 0.8; stroke-linejoin: miter; stroke-linecap: square"/>
   </g>
   <g id="patch_4">
    <path d="M 414.72 307.584 
L 414.72 41.472 
" style="fill: none; stroke: #000000; stroke-width: 0.8; stroke-linejoin: miter; stroke-linecap: square"/>
   </g>
   <g id="patch_5">
    <path d="M 57.6 307.584 
L 414.72 307.584 
" style="fill: none; stroke: #000000; stroke-width: 0.8; stroke-linejoin: miter; stroke-linecap: square"/>
   </g>
   <g id="patch_6">
    <path d="M 57.6 41.472 
L 414.72 41.472 
" style="fill: none; stroke: #000000; stroke-width: 0.8; stroke-linejoin: miter; stroke-linecap: square"/>
   </g>
  </g>
 </g>
 <defs>
  <clipPath id="p743d3b14e7">
   <rect x="57.6" y="41.472" width="357.12" height="266.112"/>
  </clipPath>
 </defs>
</svg>
