<?xml version="1.0" encoding="utf-8" standalone="no"?>
<!DOCTYPE svg PUBLIC "-//W3C//DTD SVG 1.1//EN"
  "http://www.w3.org/Graphics/SVG/1.1/DTD/svg11.dtd">
<svg xmlns:xlink="http://www.w3.org/1999/xlink" width="460.8pt" height="345.6pt" viewBox="0 0 460.8 345.6" xmlns="http://www.w3.org/2000/svg" version="1.1">
 <metadata>
  <rdf:RDF xmlns:dc="http://purl.org/dc/elements/1.1/" xmlns:cc="http://creativecommons.org/ns#" xmlns:rdf="http://www.w3.org/1999/02/22-rdf-syntax-ns#">
   <cc:Work>
    <dc:type rdf:resource="http://purl.org/dc/dcmitype/StillImage"/>
    <dc:date>2024-04-26T21:14:36.021280</dc:date>
    <dc:format>image/svg+xml</dc:format>
    <dc:creator>
     <cc:Agent>
      <dc:title>Matplotlib v3.8.2, https://matplotlib.org/</dc:title>
     </cc:Agent>
    </dc:creator>
   </cc:Work>
  </rdf:RDF>
 </metadata>
 <defs>
  <style type="text/css">*{stroke-linejoin: round; stroke-linecap: butt}</style>
 </defs>
 <g id="figure_1">
  <g id="patch_1">
   <path d="M 0 345.6 
L 460.8 345.6 
L 460.8 0 
L 0 0 
z
" style="fill: #ffffff"/>
  </g>
  <g id="axes_1">
   <g id="patch_2">
    <path d="M 57.6 307.584 
L 414.72 307.584 
L 414.72 41.472 
L 57.6 41.472 
z
" style="fill: #ffffff"/>
   </g>
   <g id="matplotlib.axis_1">
    <g id="xtick_1">
     <g id="line2d_1">
      <defs>
       <path id="m30674e7e8f" d="M 0 0 
L 0 3.5 
" style="stroke: #000000; stroke-width: 0.8"/>
      </defs>
      <g>
       <use xlink:href="#m30674e7e8f" x="73.832727" y="307.584" style="stroke: #000000; stroke-width: 0.8"/>
      </g>
     </g>
     <g id="text_1">
      <!-- 0 -->
      <g transform="translate(70.651477 322.182437) scale(0.1 -0.1)">
       <defs>
        <path id="DejaVuSans-30" d="M 2034 4250 
Q 1547 4250 1301 3770 
Q 1056 3291 1056 2328 
Q 1056 1369 1301 889 
Q 1547 409 2034 409 
Q 2525 409 2770 889 
Q 3016 1369 3016 2328 
Q 3016 3291 2770 3770 
Q 2525 4250 2034 4250 
z
M 2034 4750 
Q 2819 4750 3233 4129 
Q 3647 3509 3647 2328 
Q 3647 1150 3233 529 
Q 2819 -91 2034 -91 
Q 1250 -91 836 529 
Q 422 1150 422 2328 
Q 422 3509 836 4129 
Q 1250 4750 2034 4750 
z
" transform="scale(0.015625)"/>
       </defs>
       <use xlink:href="#DejaVuSans-30"/>
      </g>
     </g>
    </g>
    <g id="xtick_2">
     <g id="line2d_2">
      <g>
       <use xlink:href="#m30674e7e8f" x="138.77013" y="307.584" style="stroke: #000000; stroke-width: 0.8"/>
      </g>
     </g>
     <g id="text_2">
      <!-- 2000 -->
      <g transform="translate(126.04513 322.182437) scale(0.1 -0.1)">
       <defs>
        <path id="DejaVuSans-32" d="M 1228 531 
L 3431 531 
L 3431 0 
L 469 0 
L 469 531 
Q 828 903 1448 1529 
Q 2069 2156 2228 2338 
Q 2531 2678 2651 2914 
Q 2772 3150 2772 3378 
Q 2772 3750 2511 3984 
Q 2250 4219 1831 4219 
Q 1534 4219 1204 4116 
Q 875 4013 500 3803 
L 500 4441 
Q 881 4594 1212 4672 
Q 1544 4750 1819 4750 
Q 2544 4750 2975 4387 
Q 3406 4025 3406 3419 
Q 3406 3131 3298 2873 
Q 3191 2616 2906 2266 
Q 2828 2175 2409 1742 
Q 1991 1309 1228 531 
z
" transform="scale(0.015625)"/>
       </defs>
       <use xlink:href="#DejaVuSans-32"/>
       <use xlink:href="#DejaVuSans-30" x="63.623047"/>
       <use xlink:href="#DejaVuSans-30" x="127.246094"/>
       <use xlink:href="#DejaVuSans-30" x="190.869141"/>
      </g>
     </g>
    </g>
    <g id="xtick_3">
     <g id="line2d_3">
      <g>
       <use xlink:href="#m30674e7e8f" x="203.707533" y="307.584" style="stroke: #000000; stroke-width: 0.8"/>
      </g>
     </g>
     <g id="text_3">
      <!-- 4000 -->
      <g transform="translate(190.982533 322.182437) scale(0.1 -0.1)">
       <defs>
        <path id="DejaVuSans-34" d="M 2419 4116 
L 825 1625 
L 2419 1625 
L 2419 4116 
z
M 2253 4666 
L 3047 4666 
L 3047 1625 
L 3713 1625 
L 3713 1100 
L 3047 1100 
L 3047 0 
L 2419 0 
L 2419 1100 
L 313 1100 
L 313 1709 
L 2253 4666 
z
" transform="scale(0.015625)"/>
       </defs>
       <use xlink:href="#DejaVuSans-34"/>
       <use xlink:href="#DejaVuSans-30" x="63.623047"/>
       <use xlink:href="#DejaVuSans-30" x="127.246094"/>
       <use xlink:href="#DejaVuSans-30" x="190.869141"/>
      </g>
     </g>
    </g>
    <g id="xtick_4">
     <g id="line2d_4">
      <g>
       <use xlink:href="#m30674e7e8f" x="268.644936" y="307.584" style="stroke: #000000; stroke-width: 0.8"/>
      </g>
     </g>
     <g id="text_4">
      <!-- 6000 -->
      <g transform="translate(255.919936 322.182437) scale(0.1 -0.1)">
       <defs>
        <path id="DejaVuSans-36" d="M 2113 2584 
Q 1688 2584 1439 2293 
Q 1191 2003 1191 1497 
Q 1191 994 1439 701 
Q 1688 409 2113 409 
Q 2538 409 2786 701 
Q 3034 994 3034 1497 
Q 3034 2003 2786 2293 
Q 2538 2584 2113 2584 
z
M 3366 4563 
L 3366 3988 
Q 3128 4100 2886 4159 
Q 2644 4219 2406 4219 
Q 1781 4219 1451 3797 
Q 1122 3375 1075 2522 
Q 1259 2794 1537 2939 
Q 1816 3084 2150 3084 
Q 2853 3084 3261 2657 
Q 3669 2231 3669 1497 
Q 3669 778 3244 343 
Q 2819 -91 2113 -91 
Q 1303 -91 875 529 
Q 447 1150 447 2328 
Q 447 3434 972 4092 
Q 1497 4750 2381 4750 
Q 2619 4750 2861 4703 
Q 3103 4656 3366 4563 
z
" transform="scale(0.015625)"/>
       </defs>
       <use xlink:href="#DejaVuSans-36"/>
       <use xlink:href="#DejaVuSans-30" x="63.623047"/>
       <use xlink:href="#DejaVuSans-30" x="127.246094"/>
       <use xlink:href="#DejaVuSans-30" x="190.869141"/>
      </g>
     </g>
    </g>
    <g id="xtick_5">
     <g id="line2d_5">
      <g>
       <use xlink:href="#m30674e7e8f" x="333.582339" y="307.584" style="stroke: #000000; stroke-width: 0.8"/>
      </g>
     </g>
     <g id="text_5">
      <!-- 8000 -->
      <g transform="translate(320.857339 322.182437) scale(0.1 -0.1)">
       <defs>
        <path id="DejaVuSans-38" d="M 2034 2216 
Q 1584 2216 1326 1975 
Q 1069 1734 1069 1313 
Q 1069 891 1326 650 
Q 1584 409 2034 409 
Q 2484 409 2743 651 
Q 3003 894 3003 1313 
Q 3003 1734 2745 1975 
Q 2488 2216 2034 2216 
z
M 1403 2484 
Q 997 2584 770 2862 
Q 544 3141 544 3541 
Q 544 4100 942 4425 
Q 1341 4750 2034 4750 
Q 2731 4750 3128 4425 
Q 3525 4100 3525 3541 
Q 3525 3141 3298 2862 
Q 3072 2584 2669 2484 
Q 3125 2378 3379 2068 
Q 3634 1759 3634 1313 
Q 3634 634 3220 271 
Q 2806 -91 2034 -91 
Q 1263 -91 848 271 
Q 434 634 434 1313 
Q 434 1759 690 2068 
Q 947 2378 1403 2484 
z
M 1172 3481 
Q 1172 3119 1398 2916 
Q 1625 2713 2034 2713 
Q 2441 2713 2670 2916 
Q 2900 3119 2900 3481 
Q 2900 3844 2670 4047 
Q 2441 4250 2034 4250 
Q 1625 4250 1398 4047 
Q 1172 3844 1172 3481 
z
" transform="scale(0.015625)"/>
       </defs>
       <use xlink:href="#DejaVuSans-38"/>
       <use xlink:href="#DejaVuSans-30" x="63.623047"/>
       <use xlink:href="#DejaVuSans-30" x="127.246094"/>
       <use xlink:href="#DejaVuSans-30" x="190.869141"/>
      </g>
     </g>
    </g>
    <g id="xtick_6">
     <g id="line2d_6">
      <g>
       <use xlink:href="#m30674e7e8f" x="398.519741" y="307.584" style="stroke: #000000; stroke-width: 0.8"/>
      </g>
     </g>
     <g id="text_6">
      <!-- 10000 -->
      <g transform="translate(382.613491 322.182437) scale(0.1 -0.1)">
       <defs>
        <path id="DejaVuSans-31" d="M 794 531 
L 1825 531 
L 1825 4091 
L 703 3866 
L 703 4441 
L 1819 4666 
L 2450 4666 
L 2450 531 
L 3481 531 
L 3481 0 
L 794 0 
L 794 531 
z
" transform="scale(0.015625)"/>
       </defs>
       <use xlink:href="#DejaVuSans-31"/>
       <use xlink:href="#DejaVuSans-30" x="63.623047"/>
       <use xlink:href="#DejaVuSans-30" x="127.246094"/>
       <use xlink:href="#DejaVuSans-30" x="190.869141"/>
       <use xlink:href="#DejaVuSans-30" x="254.492188"/>
      </g>
     </g>
    </g>
   </g>
   <g id="matplotlib.axis_2">
    <g id="ytick_1">
     <g id="line2d_7">
      <defs>
       <path id="mae29a020e4" d="M 0 0 
L -3.5 0 
" style="stroke: #000000; stroke-width: 0.8"/>
      </defs>
      <g>
       <use xlink:href="#mae29a020e4" x="57.6" y="262.570078" style="stroke: #000000; stroke-width: 0.8"/>
      </g>
     </g>
     <g id="text_7">
      <!-- −100 -->
      <g transform="translate(23.132812 266.369297) scale(0.1 -0.1)">
       <defs>
        <path id="DejaVuSans-2212" d="M 678 2272 
L 4684 2272 
L 4684 1741 
L 678 1741 
L 678 2272 
z
" transform="scale(0.015625)"/>
       </defs>
       <use xlink:href="#DejaVuSans-2212"/>
       <use xlink:href="#DejaVuSans-31" x="83.789062"/>
       <use xlink:href="#DejaVuSans-30" x="147.412109"/>
       <use xlink:href="#DejaVuSans-30" x="211.035156"/>
      </g>
     </g>
    </g>
    <g id="ytick_2">
     <g id="line2d_8">
      <g>
       <use xlink:href="#mae29a020e4" x="57.6" y="207.846465" style="stroke: #000000; stroke-width: 0.8"/>
      </g>
     </g>
     <g id="text_8">
      <!-- −50 -->
      <g transform="translate(29.495313 211.645684) scale(0.1 -0.1)">
       <defs>
        <path id="DejaVuSans-35" d="M 691 4666 
L 3169 4666 
L 3169 4134 
L 1269 4134 
L 1269 2991 
Q 1406 3038 1543 3061 
Q 1681 3084 1819 3084 
Q 2600 3084 3056 2656 
Q 3513 2228 3513 1497 
Q 3513 744 3044 326 
Q 2575 -91 1722 -91 
Q 1428 -91 1123 -41 
Q 819 9 494 109 
L 494 744 
Q 775 591 1075 516 
Q 1375 441 1709 441 
Q 2250 441 2565 725 
Q 2881 1009 2881 1497 
Q 2881 1984 2565 2268 
Q 2250 2553 1709 2553 
Q 1456 2553 1204 2497 
Q 953 2441 691 2322 
L 691 4666 
z
" transform="scale(0.015625)"/>
       </defs>
       <use xlink:href="#DejaVuSans-2212"/>
       <use xlink:href="#DejaVuSans-35" x="83.789062"/>
       <use xlink:href="#DejaVuSans-30" x="147.412109"/>
      </g>
     </g>
    </g>
    <g id="ytick_3">
     <g id="line2d_9">
      <g>
       <use xlink:href="#mae29a020e4" x="57.6" y="153.122853" style="stroke: #000000; stroke-width: 0.8"/>
      </g>
     </g>
     <g id="text_9">
      <!-- 0 -->
      <g transform="translate(44.2375 156.922071) scale(0.1 -0.1)">
       <use xlink:href="#DejaVuSans-30"/>
      </g>
     </g>
    </g>
    <g id="ytick_4">
     <g id="line2d_10">
      <g>
       <use xlink:href="#mae29a020e4" x="57.6" y="98.39924" style="stroke: #000000; stroke-width: 0.8"/>
      </g>
     </g>
     <g id="text_10">
      <!-- 50 -->
      <g transform="translate(37.875 102.198459) scale(0.1 -0.1)">
       <use xlink:href="#DejaVuSans-35"/>
       <use xlink:href="#DejaVuSans-30" x="63.623047"/>
      </g>
     </g>
    </g>
    <g id="ytick_5">
     <g id="line2d_11">
      <g>
       <use xlink:href="#mae29a020e4" x="57.6" y="43.675627" style="stroke: #000000; stroke-width: 0.8"/>
      </g>
     </g>
     <g id="text_11">
      <!-- 100 -->
      <g transform="translate(31.5125 47.474846) scale(0.1 -0.1)">
       <use xlink:href="#DejaVuSans-31"/>
       <use xlink:href="#DejaVuSans-30" x="63.623047"/>
       <use xlink:href="#DejaVuSans-30" x="127.246094"/>
      </g>
     </g>
    </g>
   </g>
   <g id="line2d_12">
    <path d="M 73.832727 268.679043 
L 73.897665 148.611356 
L 73.930133 154.773071 
L 73.962602 277.526596 
L 74.027539 158.182573 
L 74.060008 144.640643 
L 74.157414 149.480399 
L 74.25482 154.263353 
L 74.287289 94.601281 
L 74.352226 154.672556 
L 74.384695 150.54779 
L 74.449633 151.149963 
L 74.482101 105.773248 
L 74.547039 152.344503 
L 74.579507 266.673265 
L 74.611976 152.029693 
L 74.644445 155.792467 
L 74.676914 98.178274 
L 74.741851 148.456165 
L 74.77432 219.134052 
L 74.806788 137.413153 
L 74.839257 146.720502 
L 74.871726 158.248972 
L 74.936663 59.204244 
L 74.969132 121.345841 
L 75.001601 194.926412 
L 75.066538 193.502223 
L 75.163944 148.764726 
L 75.196413 152.321493 
L 75.228881 151.879667 
L 75.358756 263.350061 
L 75.5211 152.321493 
L 75.618506 263.350061 
L 75.650975 152.119758 
L 75.748381 152.707403 
L 75.813318 268.697581 
L 75.845787 197.913568 
L 75.943193 152.761896 
L 75.910724 223.777403 
L 75.975662 156.314617 
L 76.00813 156.314617 
L 76.170474 175.294161 
L 76.26788 206.944749 
L 76.300349 191.477424 
L 76.332817 191.477424 
L 76.495161 191.690405 
L 76.527629 191.545732 
L 76.560098 191.690405 
L 76.689973 192.605096 
L 76.787379 191.846522 
L 76.949723 192.717373 
L 76.982191 192.49707 
L 77.112066 195.061745 
L 77.144535 195.061745 
L 77.177004 188.899076 
L 77.241941 195.061745 
L 77.371816 195.061745 
L 77.436753 191.874566 
L 77.501691 156.314617 
L 77.599097 159.964626 
L 77.664034 168.915762 
L 77.728971 162.676203 
L 77.891315 156.314617 
L 77.988721 157.48018 
L 78.118596 156.314617 
L 78.248471 157.48018 
L 78.378345 156.314617 
L 78.50822 156.314617 
L 78.638095 157.48018 
L 78.670564 157.48018 
L 78.800439 156.314617 
L 78.897845 156.314617 
L 79.027719 161.290161 
L 79.092657 157.48018 
L 79.157594 195.061745 
L 79.255 191.411669 
L 85.391585 191.411669 
L 85.424054 195.061745 
L 85.553928 152.875535 
L 85.618866 153.122853 
L 85.651335 152.761896 
L 85.716272 153.122853 
L 85.781209 152.995711 
L 85.813678 153.257425 
L 85.846147 152.875535 
L 85.878615 152.875535 
L 86.073428 153.257425 
L 86.138365 153.257425 
L 86.300709 153.880859 
L 86.333177 153.711024 
L 86.495521 152.119758 
L 86.52799 152.278923 
L 86.690333 152.995711 
L 86.722802 154.061158 
L 86.820208 153.880859 
L 86.852677 153.880859 
L 86.982551 153.711024 
L 87.01502 153.711024 
L 87.144895 153.550935 
L 87.307238 153.880859 
L 87.339707 153.880859 
L 87.502051 154.252706 
L 87.566988 154.252706 
L 87.664394 154.061158 
L 87.696863 154.252706 
L 87.729331 153.880859 
L 87.7618 153.880859 
L 87.826738 154.252706 
L 87.859206 153.880859 
L 88.054018 153.399936 
L 88.118956 153.711024 
L 88.183893 153.550935 
L 88.216362 153.399936 
L 88.281299 153.550935 
L 88.313768 153.550935 
L 88.346237 153.399936 
L 88.411174 153.550935 
L 88.443643 153.550935 
L 88.476112 153.399936 
L 88.50858 153.550935 
L 88.541049 153.711024 
L 88.573518 153.399936 
L 88.605986 153.550935 
L 88.638455 153.399936 
L 88.703393 153.550935 
L 88.76833 153.550935 
L 88.930673 153.880859 
L 89.190423 153.880859 
L 89.320298 154.061158 
L 89.385235 154.061158 
L 89.482641 153.880859 
L 89.51511 154.061158 
L 89.547579 153.711024 
L 89.580047 153.880859 
L 89.677454 153.550935 
L 89.709922 153.880859 
L 89.77486 153.711024 
L 89.839797 153.711024 
L 89.937203 154.061158 
L 89.969672 153.880859 
L 90.034609 153.880859 
L 90.067078 153.399936 
L 90.099547 159.568743 
L 90.132015 154.6161 
L 90.26189 141.154171 
L 90.359296 143.943693 
L 90.489171 141.154171 
L 90.554109 145.503612 
L 90.619046 142.497021 
L 90.651515 142.497021 
L 90.683983 149.008613 
L 90.748921 141.154171 
L 90.781389 137.672163 
L 90.846327 138.748368 
L 90.878796 139.906983 
L 90.911264 137.672163 
L 91.073608 134.887715 
L 91.138545 136.672999 
L 91.171014 135.746204 
L 91.300889 134.094009 
L 91.333357 135.746204 
L 91.365826 133.362044 
L 91.495701 132.073304 
L 91.52817 124.63464 
L 91.593107 131.512466 
L 91.625576 144.676429 
L 91.658044 115.180054 
L 91.690513 112.147239 
L 91.722982 115.180054 
L 91.852857 116.69326 
L 92.0152 107.99737 
L 92.177544 115.180054 
L 92.404824 101.748049 
L 92.469762 100.666485 
L 92.567168 107.99737 
L 92.599637 104.186063 
L 92.632105 109.286372 
L 92.664574 105.364042 
L 92.826918 112.147239 
L 93.02173 101.748049 
L 93.184073 109.286372 
L 93.249011 107.99737 
L 93.378886 101.748049 
L 93.443823 101.748049 
L 93.541229 99.423974 
L 93.703573 107.99737 
L 93.930853 102.862837 
L 94.060728 102.862837 
L 94.093197 101.748049 
L 94.223072 105.364042 
L 94.320478 105.364042 
L 94.385415 102.862837 
L 94.450353 112.147239 
L 94.51529 109.286372 
L 94.580227 109.286372 
L 94.710102 129.360206 
L 94.904914 129.214384 
L 94.937383 191.22882 
L 95.002321 153.257425 
L 95.26207 153.257425 
L 95.294539 153.399936 
L 95.359476 153.257425 
L 95.424414 153.257425 
L 95.554289 153.399936 
L 95.586757 153.257425 
L 95.651695 153.399936 
L 95.684163 153.399936 
L 95.781569 153.122853 
L 95.911444 153.550935 
L 96.041319 153.399936 
L 96.171194 153.399936 
L 96.203663 153.550935 
L 96.2686 153.399936 
L 96.398475 153.257425 
L 96.463412 153.257425 
L 96.593287 153.399936 
L 96.658224 153.399936 
L 96.788099 153.257425 
L 96.885505 191.348376 
L 96.950443 128.963055 
L 97.01538 129.021191 
L 97.177724 129.021191 
L 97.307598 129.051394 
L 97.502411 129.114145 
L 97.534879 129.082373 
L 97.664754 191.348376 
L 97.697223 129.082373 
L 97.794629 129.146726 
L 97.956972 129.214384 
L 97.989441 129.114145 
L 98.054379 129.146726 
L 98.216722 129.285491 
L 98.314128 109.099171 
L 98.379066 119.900953 
L 98.411534 123.505602 
L 98.444003 115.134852 
L 98.476472 115.090685 
L 98.606346 96.056294 
L 98.638815 111.923574 
L 98.736221 106.600751 
L 98.76869 110.682181 
L 98.801159 105.262801 
L 98.833627 109.190654 
L 98.898565 102.862837 
L 98.963502 115.180054 
L 98.995971 109.286372 
L 99.093377 105.312857 
L 99.223252 109.237971 
L 99.288189 105.312857 
L 99.418064 115.134852 
L 99.450533 115.134852 
L 99.677814 99.314183 
L 99.840157 116.649298 
L 99.872626 109.237971 
L 99.937563 115.134852 
L 99.970032 113.719746 
L 100.002501 115.134852 
L 100.132375 125.356075 
L 100.164844 123.586096 
L 100.327188 107.947769 
L 100.359656 109.144396 
L 100.489531 129.322388 
L 100.554469 127.329147 
L 100.586937 129.285491 
L 100.619406 129.249497 
L 100.749281 111.966286 
L 100.781749 115.047529 
L 100.814218 129.249497 
L 100.879156 123.505602 
L 100.911624 116.564395 
L 100.944093 129.214384 
L 101.106436 129.249497 
L 102.892215 129.146726 
L 103.02209 129.114145 
L 103.119496 129.146726 
L 103.151965 129.114145 
L 104.710462 129.021191 
L 104.872806 55.2879 
L 104.905275 55.334813 
L 105.197493 55.684971 
L 105.229962 55.632494 
L 105.359836 55.738317 
L 105.944273 56.520731 
L 106.561178 56.588625 
L 106.593647 61.011731 
L 106.658584 56.588625 
L 107.01574 71.337316 
L 107.113146 61.961003 
L 107.210552 76.393974 
L 107.372896 57.023217 
L 107.437833 57.023217 
L 107.470302 63.607434 
L 107.535239 57.100511 
L 107.567708 57.023217 
L 107.632645 57.100511 
L 107.730052 57.179295 
L 107.859926 57.100511 
L 108.119676 57.179295 
L 108.249551 57.259608 
L 108.5093 57.341493 
L 108.639175 57.424992 
L 109.743111 57.510152 
L 109.77558 57.597018 
L 109.808048 57.510152 
L 109.840517 57.424992 
L 109.872986 57.597018 
L 109.905455 57.510152 
L 110.035329 57.597018 
L 110.100267 57.776065 
L 110.165204 57.685639 
L 110.392485 57.341493 
L 110.684703 57.341493 
L 110.782109 57.179295 
L 110.814578 57.259608 
L 110.879516 57.179295 
L 111.204203 57.259608 
L 111.334077 57.424992 
L 111.463952 57.341493 
L 111.561358 57.424992 
L 111.691233 57.510152 
L 111.788639 57.597018 
L 111.821108 57.685639 
L 111.886045 57.597018 
L 112.340607 57.510152 
L 112.405545 193.309206 
L 112.470482 152.761896 
L 112.7627 152.761896 
L 112.795169 152.875535 
L 112.860106 152.761896 
L 113.152325 152.761896 
L 113.249731 191.17239 
L 113.314668 59.042435 
L 113.444543 64.400532 
L 113.477012 191.118087 
L 113.541949 71.566893 
L 113.671824 57.259608 
L 113.704293 57.868349 
L 113.899105 57.100511 
L 114.02898 57.179295 
L 114.256261 57.259608 
L 114.321198 57.424992 
L 114.386135 57.341493 
L 114.580948 57.259608 
L 114.613416 57.179295 
L 114.645885 57.341493 
L 114.678354 57.259608 
L 115.295259 57.179295 
L 115.392665 57.100511 
L 115.425134 57.179295 
L 115.490071 57.100511 
L 115.52254 57.023217 
L 115.587477 57.100511 
L 115.977102 57.179295 
L 116.139445 57.341493 
L 116.171914 57.259608 
L 116.236851 57.341493 
L 117.048569 57.424992 
L 117.178444 57.510152 
L 119.581128 57.597018 
L 119.646065 57.685639 
L 119.678534 57.597018 
L 119.711002 57.341493 
L 119.77594 57.597018 
L 119.873346 57.597018 
L 120.003221 57.962543 
L 120.133095 57.776065 
L 120.198033 57.868349 
L 120.327908 57.962543 
L 120.392845 57.868349 
L 120.425314 57.962543 
L 121.983811 57.962543 
L 122.01628 57.776065 
L 122.081218 57.962543 
L 122.146155 57.962543 
L 122.178624 57.776065 
L 122.243561 57.962543 
L 122.308498 58.15689 
L 122.340967 58.058704 
L 122.373436 57.962543 
L 122.438373 58.058704 
L 122.827998 58.15689 
L 122.860466 58.257162 
L 122.925404 58.15689 
L 123.50984 58.058704 
L 123.607247 57.868349 
L 123.737121 58.058704 
L 123.802059 57.962543 
L 123.834527 58.058704 
L 124.483901 57.962543 
L 124.51637 57.868349 
L 124.581308 57.962543 
L 125.26315 58.058704 
L 125.393025 58.15689 
L 126.983991 58.058704 
L 127.01646 57.962543 
L 127.081398 58.058704 
L 130.133456 58.15689 
L 130.165924 58.257162 
L 130.230862 58.15689 
L 134.646605 58.15689 
L 134.77648 57.962543 
L 139.906535 57.868349 
L 140.003941 57.776065 
L 140.133816 57.868349 
L 142.211812 57.868349 
L 142.244281 58.058704 
L 142.309219 57.868349 
L 142.439093 57.962543 
L 142.504031 58.058704 
L 142.568968 58.15689 
L 142.666374 57.868349 
L 142.698843 57.962543 
L 143.543029 57.962543 
L 143.575498 57.776065 
L 143.607967 57.868349 
L 143.705373 58.058704 
L 143.835248 57.868349 
L 143.965122 57.868349 
L 143.997591 58.058704 
L 144.062528 57.962543 
L 144.127466 57.868349 
L 144.159935 57.962543 
L 144.711902 57.868349 
L 144.744371 57.776065 
L 144.809309 57.868349 
L 145.036589 57.776065 
L 145.166464 57.685639 
L 145.26387 57.776065 
L 145.328808 57.685639 
L 145.361276 57.776065 
L 145.880776 57.776065 
L 145.913244 57.597018 
L 145.978182 57.776065 
L 146.043119 57.685639 
L 146.075588 57.776065 
L 148.056179 57.685639 
L 148.186054 57.597018 
L 148.315928 57.685639 
L 153.933014 57.597018 
L 153.965482 57.510152 
L 154.03042 57.597018 
L 158.413694 57.510152 
L 158.511101 57.424992 
L 158.640975 57.510152 
L 158.738381 57.424992 
L 158.77085 57.510152 
L 158.835788 57.424992 
L 159.192943 57.510152 
L 159.225412 57.597018 
L 159.257881 57.510152 
L 159.355287 57.424992 
L 159.485162 57.510152 
L 166.855557 57.424992 
L 166.888026 57.341493 
L 166.952963 57.424992 
L 168.868616 57.510152 
L 168.998491 57.597018 
L 169.485522 57.510152 
L 169.615396 56.947372 
L 169.745271 146.271694 
L 169.810209 145.456663 
L 169.842677 146.271694 
L 170.394645 146.271694 
L 170.427114 143.842689 
L 170.492051 146.271694 
L 170.589457 146.271694 
L 170.719332 149.013005 
L 170.78427 149.013005 
L 170.849207 151.065373 
L 170.914145 184.115824 
L 170.946613 167.93787 
L 171.108957 153.298273 
L 171.238832 152.197179 
L 172.245361 152.278923 
L 172.375236 152.365239 
L 177.602697 152.456394 
L 177.732572 152.552676 
L 177.765041 152.456394 
L 177.829978 152.552676 
L 179.03132 152.654398 
L 179.161195 152.761896 
L 179.875506 152.761896 
L 179.972912 152.875535 
L 180.102787 152.761896 
L 180.232662 152.875535 
L 180.362537 152.761896 
L 180.395005 152.761896 
L 180.52488 152.875535 
L 181.044379 152.875535 
L 181.076848 152.761896 
L 181.141785 152.875535 
L 182.050909 152.875535 
L 182.083378 152.761896 
L 182.148315 152.875535 
L 182.27819 152.875535 
L 182.343127 152.761896 
L 182.375596 152.875535 
L 182.473002 152.875535 
L 182.570408 152.761896 
L 182.700283 152.875535 
L 182.960033 152.875535 
L 182.992501 152.761896 
L 183.057439 152.875535 
L 184.0315 152.875535 
L 184.161375 152.995711 
L 184.226312 152.875535 
L 184.258781 152.995711 
L 184.323718 152.995711 
L 184.356187 152.875535 
L 184.421124 152.995711 
L 184.453593 152.995711 
L 184.51853 152.875535 
L 184.550999 152.995711 
L 184.615937 152.995711 
L 184.745811 152.875535 
L 184.875686 152.995711 
L 185.005561 152.875535 
L 185.070498 152.875535 
L 185.167904 152.995711 
L 185.232842 152.875535 
L 185.265311 152.995711 
L 186.174434 152.995711 
L 186.304309 153.399936 
L 186.336778 153.257425 
L 186.369246 153.257425 
L 186.466652 153.399936 
L 186.53159 153.257425 
L 186.564059 153.399936 
L 186.661465 153.399936 
L 186.791339 153.257425 
L 186.921214 153.399936 
L 186.986152 153.399936 
L 187.116027 153.257425 
L 187.310839 153.257425 
L 187.343307 153.399936 
L 187.408245 153.257425 
L 187.440714 153.257425 
L 187.473182 153.399936 
L 187.53812 153.257425 
L 187.862807 153.257425 
L 187.895275 153.399936 
L 187.960213 153.257425 
L 188.382306 153.257425 
L 188.512181 153.399936 
L 188.544649 153.399936 
L 188.642055 153.257425 
L 188.739462 153.399936 
L 188.869336 153.257425 
L 188.901805 153.257425 
L 188.966742 153.399936 
L 188.999211 153.257425 
L 189.03168 153.257425 
L 189.161555 153.399936 
L 189.908335 153.399936 
L 189.973272 153.550935 
L 190.005741 153.399936 
L 190.03821 153.399936 
L 190.168084 153.550935 
L 190.752521 153.550935 
L 190.882396 153.711024 
L 190.947333 153.711024 
L 191.077208 153.880859 
L 191.174614 153.880859 
L 191.304489 154.061158 
L 191.726582 154.061158 
L 191.856457 154.252706 
L 192.116207 154.252706 
L 192.246081 154.456367 
L 192.27855 154.456367 
L 192.375956 154.252706 
L 192.505831 154.456367 
L 193.350017 154.456367 
L 193.479892 154.673088 
L 193.609767 154.456367 
L 193.739642 154.673088 
L 194.843577 154.673088 
L 194.940984 154.903915 
L 195.070858 154.673088 
L 195.135796 154.673088 
L 195.265671 154.903915 
L 196.467013 154.903915 
L 196.596887 155.149999 
L 196.921574 155.149999 
L 196.986512 155.412616 
L 197.116387 61.441682 
L 197.246261 295.488 
L 197.311199 295.488 
L 197.441074 287.641578 
L 197.570948 287.641578 
L 197.700823 280.62486 
L 197.765761 280.62486 
L 197.895635 274.310832 
L 197.928104 274.310832 
L 198.057979 268.597283 
L 198.187854 268.597283 
L 198.317729 263.401029 
L 198.512541 263.401029 
L 198.545009 258.653684 
L 198.609947 263.401029 
L 198.707353 263.401029 
L 198.869696 274.310832 
L 199.03204 274.310832 
L 199.064509 268.597283 
L 199.096977 274.310832 
L 199.161915 60.865144 
L 199.194383 268.597283 
L 199.356727 268.597283 
L 199.389196 60.521992 
L 199.454133 268.597283 
L 199.551539 234.119384 
L 199.648945 82.856189 
L 199.681414 146.382629 
L 199.713883 212.603055 
L 199.746351 203.328287 
L 199.876226 59.78283 
L 199.908695 74.176836 
L 199.941164 59.78283 
L 200.03857 212.603055 
L 200.071038 137.760295 
L 200.135976 203.328287 
L 200.168444 203.328287 
L 200.200913 59.589262 
L 200.265851 203.328287 
L 200.395725 187.091877 
L 200.493131 194.860072 
L 200.5256 59.291174 
L 200.623006 59.179805 
L 200.655475 173.315874 
L 200.720412 59.072597 
L 200.850287 59.827203 
L 200.882756 59.179805 
L 201.012631 115.336897 
L 201.077568 112.294523 
L 201.110037 115.336897 
L 201.174974 115.368326 
L 201.27238 112.357987 
L 201.304849 113.84716 
L 201.337318 110.866973 
L 201.369786 68.043276 
L 201.402255 110.899556 
L 201.434724 97.416931 
L 201.467193 97.416931 
L 201.499661 102.369806 
L 201.53213 219.157305 
L 201.629536 204.65306 
L 201.79188 188.16981 
L 201.824348 188.16981 
L 201.921754 180.916544 
L 201.954223 215.765073 
L 202.051629 180.916544 
L 202.181504 268.123126 
L 202.311379 197.386164 
L 202.376316 197.386164 
L 202.506191 182.007515 
L 202.571128 189.372901 
L 202.603597 93.65406 
L 202.668534 182.007515 
L 202.701003 175.209227 
L 202.733472 182.007515 
L 202.765941 114.57192 
L 202.830878 202.70822 
L 202.863347 198.340269 
L 202.895815 198.353829 
L 202.960753 93.584024 
L 202.993222 190.192626 
L 203.02569 198.368142 
L 203.058159 190.178257 
L 203.090628 190.192626 
L 203.123096 194.186123 
L 203.188034 95.86982 
L 203.252971 100.609929 
L 203.382846 194.942892 
L 203.415315 198.415856 
L 203.447783 97.00832 
L 203.512721 190.906162 
L 203.545189 190.240373 
L 203.675064 98.672241 
L 203.707533 98.672241 
L 203.740002 186.410909 
L 203.804939 96.253239 
L 203.902345 95.877676 
L 203.934814 101.195739 
L 203.999751 95.806362 
L 204.03222 101.195739 
L 204.097157 101.126521 
L 204.129626 177.506546 
L 204.194563 102.42068 
L 204.227032 103.053834 
L 204.259501 98.522969 
L 204.29197 164.97542 
L 204.356907 104.302995 
L 204.454313 104.302995 
L 204.486782 171.006257 
L 204.551719 104.302995 
L 204.681594 101.390308 
L 204.811469 105.654609 
L 204.941344 105.654609 
L 205.006281 185.992653 
L 205.03875 105.654609 
L 205.071218 107.031966 
L 205.103687 105.654609 
L 205.233562 178.818977 
L 205.266031 178.818977 
L 205.395905 136.827573 
L 205.428374 172.198437 
L 205.493312 166.064196 
L 205.52578 104.77244 
L 205.590718 180.248299 
L 205.623186 180.248299 
L 205.655655 161.43943 
L 205.753061 167.243405 
L 205.817999 173.49312 
L 206.012811 109.654704 
L 206.110217 189.309686 
L 206.142686 109.654704 
L 206.207623 161.43943 
L 206.240092 156.030617 
L 206.369966 181.801135 
L 206.53231 168.517596 
L 206.629716 193.233316 
L 206.759591 168.517596 
L 206.79206 183.484875 
L 206.856997 168.517596 
L 206.889466 168.517596 
L 206.954403 191.190717 
L 207.01934 183.484875 
L 207.051809 183.484875 
L 207.084278 185.307775 
L 207.116747 183.484875 
L 207.246621 176.412463 
L 207.473902 176.412463 
L 207.506371 193.233316 
L 207.571308 176.412463 
L 207.636246 176.412463 
L 207.766121 187.279061 
L 207.798589 169.891803 
L 207.863527 178.049947 
L 207.895995 178.049947 
L 207.960933 185.307775 
L 207.993402 178.049947 
L 208.02587 178.049947 
L 208.058339 185.307775 
L 208.123276 178.049947 
L 208.188214 178.049947 
L 208.220682 171.3716 
L 208.28562 178.049947 
L 208.350557 178.049947 
L 208.480432 171.3716 
L 208.77265 171.3716 
L 208.805119 181.718196 
L 208.870056 171.3716 
L 209.0324 171.3716 
L 209.064869 165.199653 
L 209.097337 179.815735 
L 209.162275 179.815735 
L 209.29215 172.963162 
L 209.909055 172.963162 
L 209.941524 181.718196 
L 209.973992 172.963162 
L 210.071398 166.642424 
L 210.136336 181.718196 
L 210.168805 166.642424 
L 210.266211 166.642424 
L 210.298679 176.509728 
L 210.363617 166.642424 
L 210.396085 166.642424 
L 210.461023 176.509728 
L 210.52596 174.673336 
L 210.720772 174.673336 
L 210.753241 176.509728 
L 210.818179 174.673336 
L 211.402615 174.673336 
L 211.500021 166.642424 
L 211.53249 174.673336 
L 211.597427 168.188868 
L 211.662365 168.188868 
L 211.694833 166.642424 
L 211.727302 174.673336 
L 211.79224 168.188868 
L 211.824708 168.188868 
L 211.857177 160.787874 
L 211.922114 168.188868 
L 211.954583 168.188868 
L 212.084458 160.787874 
L 213.058519 160.787874 
L 213.090988 168.188868 
L 213.155925 160.787874 
L 213.2858 160.787874 
L 213.350737 168.188868 
L 213.383206 160.787874 
L 213.707893 160.787874 
L 213.740362 163.696396 
L 213.77283 160.787874 
L 213.870236 155.344413 
L 213.967643 163.696396 
L 214.000111 155.344413 
L 214.065049 162.193939 
L 214.097517 162.193939 
L 214.129986 160.787874 
L 214.194923 162.193939 
L 214.259861 162.193939 
L 214.29233 155.344413 
L 214.357267 162.193939 
L 215.720952 162.193939 
L 215.818359 156.629366 
L 215.915765 162.193939 
L 216.045639 156.629366 
L 217.798949 156.629366 
L 217.831418 151.445284 
L 217.896355 156.629366 
L 217.928824 156.629366 
L 218.02623 151.445284 
L 218.091168 156.629366 
L 218.123636 151.445284 
L 219.065229 151.445284 
L 219.162635 141.047484 
L 219.29251 157.999368 
L 219.454853 146.599352 
L 219.519791 151.445284 
L 219.552259 146.599352 
L 219.617197 146.599352 
L 219.649665 151.445284 
L 219.714603 146.599352 
L 221.045819 146.599352 
L 221.110757 154.035431 
L 221.143226 146.599352 
L 221.208163 146.599352 
L 221.305569 157.999368 
L 221.338038 154.035431 
L 221.435444 142.055364 
L 221.467913 146.599352 
L 221.53285 146.599352 
L 221.662725 154.035431 
L 221.727662 154.035431 
L 221.825068 142.055364 
L 221.857537 154.035431 
L 221.922474 142.055364 
L 221.954943 142.055364 
L 222.052349 154.035431 
L 222.084818 142.055364 
L 222.149755 146.599352 
L 222.182224 152.70062 
L 222.214693 142.055364 
L 222.312099 142.055364 
L 222.409505 152.70062 
L 222.571848 142.055364 
L 222.636786 152.70062 
L 222.669255 142.055364 
L 222.701723 142.055364 
L 222.831598 152.70062 
L 222.929004 142.055364 
L 223.058879 152.70062 
L 223.091348 152.70062 
L 223.221222 137.782152 
L 223.416035 152.70062 
L 223.480972 142.055364 
L 223.513441 152.70062 
L 223.578378 152.70062 
L 223.610847 137.782152 
L 223.675784 152.70062 
L 223.77319 142.055364 
L 223.805659 152.70062 
L 223.838128 137.782152 
L 223.870597 137.782152 
L 223.903065 137.782152 
L 224.03294 152.70062 
L 224.130346 148.981124 
L 224.162815 152.70062 
L 224.227752 148.981124 
L 224.325158 137.782152 
L 224.390096 152.70062 
L 224.455033 148.981124 
L 224.519971 148.981124 
L 224.584908 137.782152 
L 224.617377 148.981124 
L 224.649845 148.981124 
L 224.77972 137.782152 
L 224.942064 137.782152 
L 224.974532 147.754883 
L 225.03947 137.782152 
L 225.136876 137.782152 
L 225.266751 133.752726 
L 225.396625 147.754883 
L 225.5265 133.752726 
L 225.558969 137.782152 
L 225.623906 133.752726 
L 225.851187 133.752726 
L 225.883656 147.754883 
L 225.948593 133.752726 
L 225.981062 133.752726 
L 226.110937 147.754883 
L 226.143406 133.752726 
L 226.175874 155.454104 
L 226.208343 137.782152 
L 226.338218 155.454104 
L 228.123996 155.454104 
L 228.156465 154.035431 
L 228.221403 155.454104 
L 228.28634 155.454104 
L 228.351277 154.035431 
L 228.383746 155.454104 
L 228.416215 155.454104 
L 228.513621 154.035431 
L 228.643496 155.454104 
L 228.740902 154.035431 
L 228.838308 155.454104 
L 228.968183 154.035431 
L 229.03312 154.035431 
L 229.162995 129.943581 
L 229.227932 154.035431 
L 229.260401 133.752726 
L 229.357807 129.943581 
L 229.487682 150.281773 
L 229.520151 150.281773 
L 229.650025 129.943581 
L 229.682494 150.281773 
L 229.747431 129.943581 
L 230.818899 129.943581 
L 230.851367 148.981124 
L 230.916305 129.943581 
L 231.630616 129.943581 
L 231.663085 126.334138 
L 231.728022 129.943581 
L 231.825428 129.943581 
L 231.955303 126.334138 
L 232.085178 129.943581 
L 232.215053 126.334138 
L 232.831958 126.334138 
L 232.929364 112.830339 
L 233.059239 126.334138 
L 233.124176 126.334138 
L 233.254051 111.189111 
L 233.383926 112.682842 
L 233.513801 111.909584 
L 233.611207 111.909584 
L 233.643676 110.357161 
L 233.77355 119.644063 
L 233.870957 116.533239 
L 233.903425 155.454104 
L 233.935894 114.886895 
L 233.968363 114.886895 
L 234.000831 114.886895 
L 234.130706 111.834669 
L 234.195644 114.886895 
L 234.228112 139.821982 
L 234.29305 113.205143 
L 234.325518 113.344114 
L 234.390456 113.205143 
L 234.422924 112.508842 
L 234.455393 119.644063 
L 234.520331 113.205143 
L 234.650205 110.882842 
L 234.78008 121.120229 
L 234.812549 114.744949 
L 234.845018 114.744949 
L 234.877486 113.212607 
L 234.942424 121.120229 
L 234.974892 114.744949 
L 235.007361 114.744949 
L 235.072299 112.373637 
L 235.104767 113.073232 
L 235.202173 113.897113 
L 235.332048 113.073232 
L 235.429454 113.802028 
L 235.52686 112.245202 
L 235.624266 113.766063 
L 235.656735 112.947957 
L 235.721673 113.766063 
L 235.819079 113.766063 
L 235.851547 116.812742 
L 235.916485 112.950762 
L 235.981422 114.482456 
L 236.078828 100.974692 
L 236.208703 113.641572 
L 236.241172 100.974692 
L 236.338578 101.70877 
L 236.371047 101.70877 
L 236.403515 100.428682 
L 236.468453 100.974692 
L 236.500921 100.974692 
L 236.53339 101.70877 
L 236.565859 151.660874 
L 236.598327 57.438635 
L 236.630796 58.179838 
L 236.663265 57.438635 
L 236.695734 56.384217 
L 236.728202 57.916657 
L 236.79314 125.312424 
L 236.825608 57.438635 
L 236.858077 57.438635 
L 236.987952 56.384217 
L 237.052889 56.384217 
L 237.085358 114.619903 
L 237.150295 56.384217 
L 237.410045 56.4429 
L 237.442514 56.502597 
L 237.572389 56.077771 
L 237.734732 56.198842 
L 237.864607 56.198842 
L 237.897076 56.563331 
L 237.962013 56.198842 
L 238.02695 56.198842 
L 238.156825 56.4429 
L 238.189294 56.198842 
L 238.254231 56.4429 
L 238.384106 56.502597 
L 238.513981 56.4429 
L 238.54645 56.563331 
L 238.643856 56.502597 
L 239.617917 56.502597 
L 239.715323 56.324197 
L 239.747792 56.625127 
L 239.845198 56.563331 
L 239.877666 56.324197 
L 239.910135 56.625127 
L 239.942604 56.625127 
L 240.007541 56.688012 
L 240.104947 56.324197 
L 240.202353 56.688012 
L 240.234822 56.324197 
L 240.332228 56.388547 
L 240.364697 56.388547 
L 240.462103 56.625127 
L 240.559509 56.324197 
L 240.591978 56.688012 
L 240.656915 56.324197 
L 240.721853 56.388547 
L 240.78679 56.625127 
L 240.819259 56.324197 
L 241.176414 56.324197 
L 241.27382 56.688012 
L 241.338758 56.520731 
L 241.403695 56.388547 
L 241.436164 56.454049 
L 241.468633 111.698556 
L 241.53357 56.388547 
L 241.630976 56.454049 
L 241.695914 55.11371 
L 241.760851 55.176709 
L 241.890726 56.454049 
L 241.955663 55.051795 
L 242.020601 55.11371 
L 242.118007 55.176709 
L 242.150475 55.240819 
L 242.182944 97.953731 
L 242.215413 55.176709 
L 242.247882 55.176709 
L 242.312819 55.11371 
L 242.345288 59.162531 
L 242.410225 55.176709 
L 242.572569 55.176709 
L 242.637506 53.856439 
L 242.702443 150.281773 
L 242.734912 145.452879 
L 242.767381 58.743451 
L 242.832318 145.452879 
L 242.897256 145.452879 
L 242.929724 53.978791 
L 242.994662 145.452879 
L 243.189474 145.452879 
L 243.254411 53.767306 
L 243.319349 53.899044 
L 243.351817 53.832594 
L 243.384286 53.899044 
L 243.416755 55.372479 
L 243.514161 145.452879 
L 243.54663 139.821982 
L 243.676504 145.452879 
L 243.871317 145.452879 
L 243.903785 140.929795 
L 243.968723 145.452879 
L 244.098597 145.452879 
L 244.131066 140.929795 
L 244.196004 145.452879 
L 244.228472 145.452879 
L 244.358347 140.929795 
L 245.04019 140.929795 
L 245.170065 136.680263 
L 245.267471 136.680263 
L 245.299939 140.929795 
L 245.364877 136.680263 
L 245.689564 136.680263 
L 245.819439 132.67645 
L 245.884376 136.680263 
L 245.916845 132.67645 
L 245.949313 132.67645 
L 245.981782 136.680263 
L 246.04672 132.67645 
L 246.111657 132.67645 
L 246.144126 59.895885 
L 246.241532 61.378133 
L 246.274 63.703565 
L 246.306469 95.32473 
L 246.371407 60.708261 
L 246.403875 59.895885 
L 246.436344 61.378133 
L 246.598688 61.378133 
L 246.728562 60.708261 
L 246.761031 61.378133 
L 246.7935 60.708261 
L 246.923375 59.895885 
L 247.020781 60.563315 
L 247.150655 59.895885 
L 247.183124 60.563315 
L 247.248062 59.895885 
L 247.377936 59.895885 
L 247.410405 59.234622 
L 247.475342 59.895885 
L 247.572749 59.895885 
L 247.605217 59.234622 
L 247.670155 59.895885 
L 247.702623 59.895885 
L 247.767561 58.428127 
L 247.800029 59.895885 
L 247.962373 58.428127 
L 248.222123 58.428127 
L 248.384466 56.973122 
L 248.449403 56.973122 
L 248.611747 54.888739 
L 248.676684 54.888739 
L 248.709153 55.529167 
L 248.77409 54.734331 
L 248.871497 54.81081 
L 248.968903 54.888739 
L 249.098778 54.81081 
L 249.228652 54.888739 
L 250.170245 54.81081 
L 250.300119 54.734331 
L 250.559869 54.659264 
L 250.624806 54.585573 
L 250.657275 54.659264 
L 250.722213 54.585573 
L 250.852087 54.513221 
L 251.144306 54.442176 
L 251.274181 54.372404 
L 251.306649 54.442176 
L 251.339118 54.372404 
L 251.468993 54.303873 
L 251.826148 54.236553 
L 251.858617 54.170413 
L 251.923555 54.236553 
L 252.085898 54.236553 
L 252.248242 54.04156 
L 252.475522 54.04156 
L 252.605397 53.917093 
L 252.767741 53.856439 
L 252.800209 53.796806 
L 252.865147 53.856439 
L 253.189834 53.917093 
L 253.222303 53.978791 
L 253.254771 53.856439 
L 253.28724 53.796806 
L 253.352177 53.856439 
L 253.54699 53.856439 
L 253.676864 53.738168 
L 253.741802 53.796806 
L 253.774271 53.738168 
L 253.806739 53.680502 
L 253.839208 53.796806 
L 253.871677 53.738168 
L 254.196364 53.680502 
L 254.228832 53.623787 
L 254.29377 53.680502 
L 254.521051 53.917093 
L 254.683394 53.738168 
L 254.715863 53.796806 
L 254.748332 53.738168 
L 254.845738 53.680502 
L 255.04055 53.856439 
L 255.170425 53.856439 
L 255.267831 53.978791 
L 255.300299 53.796806 
L 255.365237 53.917093 
L 255.397706 53.978791 
L 255.430174 53.917093 
L 255.495112 53.978791 
L 255.560049 53.856439 
L 255.624986 53.978791 
L 255.689924 53.917093 
L 255.949674 53.856439 
L 255.982142 53.738168 
L 256.04708 53.796806 
L 256.209423 53.978791 
L 256.274361 53.917093 
L 256.371767 54.04156 
L 256.404235 53.978791 
L 256.53411 53.917093 
L 256.663985 53.917093 
L 256.696454 54.105425 
L 256.761391 53.978791 
L 257.313359 54.04156 
L 257.378296 54.105425 
L 257.410765 54.04156 
L 257.475702 53.978791 
L 257.573109 54.170413 
L 257.605577 54.105425 
L 257.897796 54.170413 
L 258.02767 54.236553 
L 258.060139 54.170413 
L 258.092608 54.303873 
L 258.125077 54.303873 
L 258.190014 54.170413 
L 258.222483 54.372404 
L 258.352357 54.236553 
L 258.449764 54.372404 
L 258.482232 54.303873 
L 258.514701 54.236553 
L 258.579638 54.303873 
L 258.969263 54.303873 
L 259.066669 54.442176 
L 259.099138 54.372404 
L 260.04073 54.442176 
L 260.170605 54.513221 
L 262.28107 54.585573 
L 262.313539 54.659264 
L 262.378476 54.585573 
L 263.807099 54.513221 
L 263.839568 77.18649 
L 263.904505 54.513221 
L 263.969443 54.585573 
L 264.001911 54.513221 
L 264.196724 54.513221 
L 264.229192 61.101293 
L 264.326598 155.454104 
L 264.391536 54.513221 
L 264.456473 85.491684 
L 264.586348 155.454104 
L 264.618817 155.454104 
L 264.748692 54.372404 
L 264.878566 54.442176 
L 265.008441 54.372404 
L 265.04091 155.454104 
L 265.105847 54.442176 
L 266.112377 54.372404 
L 266.209783 54.303873 
L 266.242252 54.372404 
L 266.307189 54.303873 
L 266.372127 54.303873 
L 266.404595 118.678533 
L 266.469533 54.303873 
L 266.502001 54.303873 
L 266.53447 95.105991 
L 266.599408 54.372404 
L 266.631876 54.372404 
L 266.664345 60.97056 
L 266.761751 155.454104 
L 266.891626 54.303873 
L 266.924095 54.303873 
L 267.053969 155.454104 
L 267.183844 54.372404 
L 267.313719 54.442176 
L 267.411125 54.372404 
L 267.508531 155.454104 
L 267.541 54.372404 
L 267.605937 155.454104 
L 267.670875 155.454104 
L 267.703343 54.372404 
L 267.768281 107.993883 
L 267.80075 118.678533 
L 267.930624 54.372404 
L 268.125437 54.372404 
L 268.157905 60.97056 
L 268.222843 54.442176 
L 268.417655 54.442176 
L 268.450124 95.105991 
L 268.515061 54.442176 
L 268.612467 54.372404 
L 268.742342 54.442176 
L 272.119087 54.513221 
L 272.216493 54.585573 
L 272.346368 54.513221 
L 274.878926 54.585573 
L 274.911395 54.659264 
L 274.976333 54.585573 
L 276.632236 54.659264 
L 276.762111 54.734331 
L 278.905045 54.81081 
L 278.937514 54.888739 
L 279.002452 54.81081 
L 279.132326 54.734331 
L 279.262201 54.81081 
L 279.619357 54.734331 
L 279.651826 54.659264 
L 279.716763 54.734331 
L 280.268731 54.734331 
L 280.3012 155.454104 
L 280.366137 54.734331 
L 280.398606 54.734331 
L 280.431074 118.678533 
L 280.496012 54.659264 
L 280.52848 54.734331 
L 280.658355 155.454104 
L 281.210323 155.454104 
L 281.242792 136.680263 
L 281.307729 155.454104 
L 282.022041 155.454104 
L 282.054509 87.701256 
L 282.119447 155.454104 
L 283.840288 155.454104 
L 283.970163 54.81081 
L 284.0351 54.734331 
L 284.164975 155.454104 
L 284.197444 155.454104 
L 284.327319 54.734331 
L 284.457193 155.454104 
L 284.489662 54.734331 
L 284.554599 155.454104 
L 284.652006 155.454104 
L 284.684474 79.200538 
L 284.749412 155.454104 
L 284.78188 155.454104 
L 284.911755 54.734331 
L 285.268911 54.734331 
L 285.30138 102.794653 
L 285.366317 54.81081 
L 285.496192 54.734331 
L 287.476783 54.81081 
L 287.606657 54.888739 
L 287.736532 54.81081 
L 294.554959 54.888739 
L 294.587428 54.968156 
L 294.652366 54.888739 
L 295.30174 54.888739 
L 295.334208 67.028771 
L 295.399146 54.888739 
L 295.691364 54.968156 
L 295.723833 54.372404 
L 295.78877 54.888739 
L 296.080988 54.888739 
L 296.113457 67.117425 
L 296.178395 54.888739 
L 296.210863 54.303873 
L 296.275801 67.877171 
L 296.340738 67.117425 
L 296.470613 54.968156 
L 296.925175 54.968156 
L 296.957643 67.117425 
L 297.022581 54.968156 
L 297.607017 54.968156 
L 297.639486 67.966584 
L 297.736892 67.117425 
L 297.866767 54.968156 
L 298.094048 54.968156 
L 298.126517 67.117425 
L 298.191454 54.968156 
L 298.223923 55.049103 
L 298.321329 67.117425 
L 298.451204 54.968156 
L 299.490202 55.049103 
L 299.522671 55.13162 
L 299.587608 55.049103 
L 300.529201 55.049103 
L 300.561669 66.274399 
L 300.626607 55.049103 
L 300.756481 55.049103 
L 300.78895 66.274399 
L 300.853888 55.049103 
L 300.886356 55.049103 
L 300.983762 67.117425 
L 301.113637 55.13162 
L 301.146106 55.049103 
L 301.178575 66.274399 
L 301.243512 55.049103 
L 301.275981 55.049103 
L 301.308449 66.274399 
L 301.373387 55.13162 
L 301.405855 55.049103 
L 301.470793 55.13162 
L 303.386446 55.13162 
L 303.418915 53.680502 
L 303.483852 53.738168 
L 303.516321 55.13162 
L 303.613727 68.059298 
L 303.678665 53.738168 
L 303.743602 55.13162 
L 303.776071 53.796806 
L 303.808539 67.209318 
L 303.873477 55.215751 
L 303.905946 55.13162 
L 303.938414 54.105425 
L 304.003352 55.215751 
L 304.7826 55.215751 
L 304.912475 53.796806 
L 304.977413 55.215751 
L 305.009881 54.04156 
L 305.074819 54.04156 
L 305.139756 55.215751 
L 305.172225 53.680502 
L 305.237162 53.568 
L 305.399506 55.13162 
L 305.431974 53.796806 
L 305.496912 55.215751 
L 305.529381 55.13162 
L 305.594318 53.738168 
L 305.626787 53.856439 
L 305.756661 55.215751 
L 305.821599 53.623787 
L 305.854068 53.796806 
L 305.886536 55.215751 
L 305.951474 53.917093 
L 306.016411 54.236553 
L 306.113817 54.105425 
L 306.146286 53.738168 
L 306.243692 53.856439 
L 306.276161 53.978791 
L 306.308629 53.856439 
L 306.341098 53.738168 
L 306.373567 54.105425 
L 306.470973 53.978791 
L 306.600848 53.856439 
L 306.665785 54.04156 
L 306.730723 54.170413 
L 306.79566 53.796806 
L 306.958003 55.215751 
L 306.990472 53.796806 
L 307.087878 54.105425 
L 307.120347 53.917093 
L 307.185284 54.04156 
L 307.250222 55.215751 
L 307.28269 54.105425 
L 307.315159 53.917093 
L 307.380097 53.978791 
L 307.412565 54.303873 
L 307.477503 53.917093 
L 307.607377 54.372404 
L 307.672315 53.680502 
L 307.769721 53.917093 
L 307.80219 53.917093 
L 307.964533 55.215751 
L 307.997002 53.917093 
L 308.061939 55.13162 
L 308.191814 55.215751 
L 308.224283 55.215751 
L 308.256751 245.747797 
L 308.28922 54.372404 
L 308.321689 55.215751 
L 308.354158 53.978791 
L 308.419095 54.303873 
L 308.451564 55.215751 
L 308.54897 55.13162 
L 308.581439 55.301542 
L 308.646376 55.215751 
L 308.678845 54.303873 
L 308.743782 55.215751 
L 308.776251 55.215751 
L 308.841188 245.747797 
L 308.873657 54.170413 
L 308.971063 55.215751 
L 309.003532 245.747797 
L 309.068469 55.215751 
L 309.100938 54.372404 
L 309.165875 55.215751 
L 309.328219 55.301542 
L 309.360687 54.442176 
L 309.425625 55.215751 
L 309.458093 55.301542 
L 309.523031 55.215751 
L 312.250402 55.301542 
L 312.28287 55.389038 
L 312.347808 55.301542 
L 314.523211 55.389038 
L 314.55568 270.147259 
L 314.620617 55.389038 
L 315.692084 55.478287 
L 315.724553 55.569341 
L 315.78949 55.478287 
L 316.731083 55.569341 
L 316.763551 282.710923 
L 316.828489 55.569341 
L 316.860957 55.569341 
L 316.893426 282.710923 
L 316.958363 55.66225 
L 316.990832 55.66225 
L 317.023301 282.710923 
L 317.088238 55.66225 
L 317.153176 55.66225 
L 317.185644 282.710923 
L 317.250582 55.66225 
L 317.347988 55.66225 
L 317.380457 282.710923 
L 317.445394 55.66225 
L 317.737612 55.757068 
L 317.867487 282.710923 
L 317.964893 282.710923 
L 318.029831 289.816057 
L 318.062299 55.757068 
L 318.192174 289.816057 
L 318.224643 289.816057 
L 318.354518 55.757068 
L 320.594858 55.853851 
L 320.724733 55.952657 
L 322.120887 55.853851 
L 322.153356 55.757068 
L 322.185824 55.853851 
L 322.218293 55.952657 
L 322.283231 55.853851 
L 322.80273 55.853851 
L 322.835198 55.569341 
L 322.900136 55.757068 
L 322.997542 55.853851 
L 323.030011 55.569341 
L 323.094948 55.757068 
L 323.192354 55.853851 
L 323.322229 55.757068 
L 323.452104 55.853851 
L 324.166415 55.757068 
L 324.231353 55.853851 
L 324.29629 55.66225 
L 324.393696 55.853851 
L 324.426165 55.757068 
L 324.458633 55.757068 
L 324.491102 55.952657 
L 324.55604 55.853851 
L 326.893786 55.853851 
L 326.926255 55.66225 
L 326.991192 55.757068 
L 327.023661 55.757068 
L 327.153536 55.569341 
L 327.315879 55.757068 
L 327.380817 55.569341 
L 327.413285 54.442176 
L 327.445754 55.66225 
L 327.478223 55.66225 
L 327.54316 55.66225 
L 327.575629 55.478287 
L 327.640566 55.66225 
L 327.737972 55.389038 
L 327.770441 55.478287 
L 327.932785 55.66225 
L 327.997722 55.478287 
L 328.095128 54.236553 
L 328.225003 55.569341 
L 328.28994 54.236553 
L 328.322409 55.569341 
L 328.387346 55.478287 
L 328.517221 54.236553 
L 328.54969 54.236553 
L 328.582159 54.105425 
L 328.647096 54.303873 
L 328.679565 54.170413 
L 328.776971 55.569341 
L 328.809439 55.478287 
L 328.841908 54.105425 
L 328.939314 54.236553 
L 329.004252 54.442176 
L 329.03672 54.303873 
L 329.069189 55.049103 
L 329.134127 54.105425 
L 329.199064 54.170413 
L 329.29647 55.478287 
L 329.328939 55.389038 
L 329.361407 55.569341 
L 329.491282 54.236553 
L 329.523751 54.170413 
L 329.55622 54.303873 
L 329.588688 54.372404 
L 329.686094 54.105425 
L 329.718563 55.478287 
L 329.783501 54.105425 
L 329.913375 55.478287 
L 329.945844 54.585573 
L 330.075719 153.122853 
L 330.108188 55.051795 
L 330.173125 153.122853 
L 330.205594 153.122853 
L 330.335468 55.11371 
L 330.400406 55.11371 
L 330.432875 66.300249 
L 330.497812 55.11371 
L 330.562749 55.051795 
L 330.595218 55.11371 
L 331.504342 55.051795 
L 331.53681 153.122853 
L 331.601748 55.176709 
L 331.634217 67.408003 
L 331.666685 55.11371 
L 331.699154 55.176709 
L 331.764091 55.11371 
L 331.893966 153.122853 
L 331.958904 153.122853 
L 332.088778 55.176709 
L 332.121247 55.240819 
L 332.153716 153.122853 
L 332.218653 97.864631 
L 332.251122 55.240819 
L 332.283591 153.122853 
L 332.445934 153.122853 
L 332.510871 55.306065 
L 332.54334 153.122853 
L 332.608278 153.122853 
L 332.640746 55.579014 
L 332.705684 153.122853 
L 332.738152 153.122853 
L 332.80309 55.440087 
L 332.835558 116.336533 
L 332.932965 153.122853 
L 332.965433 146.720502 
L 333.030371 153.122853 
L 333.160245 56.356806 
L 333.192714 56.27216 
L 333.225183 56.356806 
L 333.322589 153.122853 
L 333.355058 56.443135 
L 333.419995 153.122853 
L 333.582339 153.122853 
L 333.614807 56.443135 
L 333.679745 153.122853 
L 333.777151 153.122853 
L 333.80962 56.443135 
L 333.874557 153.122853 
L 333.971963 153.122853 
L 334.004432 56.531195 
L 334.101838 74.674034 
L 334.166775 56.443135 
L 334.199244 56.531195 
L 334.264181 153.122853 
L 334.29665 56.356806 
L 334.361587 56.531195 
L 334.458994 153.122853 
L 334.491462 56.531195 
L 334.588868 56.712701 
L 334.621337 56.621033 
L 334.718743 153.122853 
L 334.848618 56.712701 
L 335.140836 56.806253 
L 335.238242 56.901742 
L 335.270711 56.806253 
L 335.335648 56.901742 
L 335.660335 56.999227 
L 335.79021 57.098765 
L 336.53699 57.200419 
L 336.666865 102.629302 
L 336.699334 102.629302 
L 336.829209 105.148962 
L 339.524111 105.148962 
L 339.653986 107.125688 
L 339.686454 107.125688 
L 339.751392 105.148962 
L 339.881267 109.127727 
L 339.913735 105.148962 
L 339.978673 108.436032 
L 340.011141 108.436032 
L 340.076079 112.624866 
L 340.173485 109.867484 
L 340.205954 108.436032 
L 340.238422 111.892483 
L 340.270891 111.892483 
L 340.400766 114.013388 
L 340.530641 111.892483 
L 340.595578 111.892483 
L 340.725453 112.624866 
L 340.757922 112.624866 
L 340.855328 114.013388 
L 340.887796 112.624866 
L 340.952734 114.013388 
L 342.154076 114.013388 
L 342.186544 112.624866 
L 342.251482 114.013388 
L 342.381357 114.013388 
L 342.511231 112.624866 
L 342.641106 114.013388 
L 342.80345 114.013388 
L 342.933325 112.624866 
L 343.030731 114.013388 
L 343.063199 112.624866 
L 343.128137 114.013388 
L 343.160606 114.013388 
L 343.193074 112.624866 
L 343.258012 114.013388 
L 343.517761 114.013388 
L 343.615167 111.892483 
L 343.647636 114.013388 
L 343.712573 112.624866 
L 343.777511 112.624866 
L 343.80998 108.990583 
L 343.874917 112.624866 
L 344.004792 114.013388 
L 344.102198 114.013388 
L 344.232073 112.624866 
L 344.29701 112.624866 
L 344.394416 111.892483 
L 344.524291 112.624866 
L 344.719103 112.624866 
L 344.784041 114.013388 
L 344.816509 112.624866 
L 344.913915 112.624866 
L 344.946384 108.436032 
L 345.011321 112.624866 
L 345.04379 112.624866 
L 345.173665 111.892483 
L 345.238602 111.892483 
L 345.271071 112.624866 
L 345.336009 111.892483 
L 345.433415 108.436032 
L 345.498352 111.892483 
L 345.530821 109.867484 
L 345.563289 109.867484 
L 345.758102 111.892483 
L 345.887976 111.892483 
L 346.017851 108.436032 
L 346.05032 108.436032 
L 346.180195 111.892483 
L 346.31007 108.436032 
L 346.407476 109.867484 
L 346.439944 108.436032 
L 346.472413 109.867484 
L 346.602288 111.892483 
L 346.732163 109.867484 
L 346.7971 109.867484 
L 346.829569 111.892483 
L 346.894506 109.867484 
L 347.251662 109.867484 
L 347.381537 107.125688 
L 347.414005 109.867484 
L 347.511412 109.207814 
L 347.54388 109.207814 
L 347.706224 104.519138 
L 347.738692 106.431816 
L 347.80363 104.519138 
L 347.998442 104.519138 
L 348.030911 103.865359 
L 348.095848 104.519138 
L 348.128317 104.519138 
L 348.160786 108.573949 
L 348.225723 104.519138 
L 348.615347 104.519138 
L 348.647816 103.865359 
L 348.712753 104.519138 
L 348.745222 108.573949 
L 348.81016 104.519138 
L 349.004972 104.519138 
L 349.03744 108.573949 
L 349.102378 106.431816 
L 349.134847 106.431816 
L 349.264721 108.573949 
L 349.329659 108.573949 
L 349.362127 106.647716 
L 349.427065 108.573949 
L 349.459534 109.243041 
L 349.524471 105.760516 
L 349.55694 109.938438 
L 349.686814 111.266981 
L 349.881627 111.266981 
L 350.011502 109.205142 
L 350.04397 109.205142 
L 350.076439 108.279946 
L 350.108908 109.938438 
L 350.173845 109.938438 
L 350.271251 110.66109 
L 350.30372 109.938438 
L 350.368657 110.66109 
L 350.433595 110.66109 
L 350.563469 109.938438 
L 350.758282 112.008763 
L 351.959624 112.008763 
L 352.089498 109.205142 
L 352.121967 109.205142 
L 352.154436 108.9812 
L 352.284311 112.779975 
L 352.673935 112.779975 
L 352.80381 109.489616 
L 352.836279 109.630134 
L 352.901216 109.489616 
L 352.933685 109.355803 
L 353.031091 108.54654 
L 353.063559 112.192268 
L 353.160966 111.412008 
L 353.29084 112.192268 
L 356.407836 112.192268 
L 356.440304 111.696263 
L 356.505242 112.192268 
L 362.479483 112.192268 
L 362.511952 108.178791 
L 362.576889 112.192268 
L 363.356138 112.192268 
L 363.388606 108.178791 
L 363.453544 110.141779 
L 365.239322 110.141779 
L 365.336729 110.970465 
L 365.369197 110.141779 
L 365.434135 110.970465 
L 367.382257 110.970465 
L 367.414725 111.831338 
L 367.479663 110.970465 
L 367.609538 110.970465 
L 367.739412 111.831338 
L 367.80435 111.831338 
L 367.934225 110.970465 
L 368.486193 110.970465 
L 368.583599 109.843112 
L 368.648536 111.831338 
L 368.681005 110.970465 
L 368.745942 110.970465 
L 368.875817 111.831338 
L 368.908286 111.831338 
L 368.973223 110.970465 
L 369.005692 111.831338 
L 369.655066 111.831338 
L 369.784941 109.843112 
L 369.947284 111.831338 
L 370.30444 111.831338 
L 370.336909 109.843112 
L 370.401846 111.831338 
L 370.466783 111.831338 
L 370.56419 109.843112 
L 370.694064 111.831338 
L 370.726533 111.831338 
L 370.759002 109.843112 
L 370.823939 111.831338 
L 370.953814 111.831338 
L 370.986283 109.843112 
L 371.05122 111.831338 
L 371.246032 111.831338 
L 371.278501 109.843112 
L 371.343438 111.831338 
L 371.440844 111.831338 
L 371.570719 109.843112 
L 371.700594 110.722691 
L 372.122687 110.722691 
L 372.252562 109.843112 
L 372.285031 110.722691 
L 372.349968 109.843112 
L 372.512312 109.843112 
L 372.609718 110.722691 
L 372.739593 109.843112 
L 372.901936 109.843112 
L 373.031811 110.722691 
L 373.129217 110.722691 
L 373.259092 109.843112 
L 376.0514 109.843112 
L 376.181275 108.995553 
L 379.103458 108.995553 
L 379.135927 108.178791 
L 379.200864 108.995553 
L 379.330739 108.995553 
L 379.363208 108.178791 
L 379.428145 108.995553 
L 379.493082 108.995553 
L 379.622957 108.178791 
L 381.506142 108.178791 
L 381.636017 107.391679 
L 381.830829 107.391679 
L 381.895766 108.178791 
L 381.928235 107.391679 
L 382.05811 107.391679 
L 382.187985 106.283679 
L 382.252922 107.391679 
L 382.285391 106.283679 
L 383.681545 106.283679 
L 383.81142 105.506712 
L 383.876357 105.506712 
L 383.973763 106.283679 
L 384.006232 105.506712 
L 384.071169 106.283679 
L 384.201044 106.283679 
L 384.330919 105.506712 
L 384.395856 105.506712 
L 384.428325 106.283679 
L 384.493262 105.506712 
L 384.623137 105.506712 
L 384.688075 106.283679 
L 384.720543 105.506712 
L 384.753012 105.506712 
L 384.882887 106.283679 
L 384.915356 106.283679 
L 385.04523 105.506712 
L 385.142636 106.283679 
L 385.175105 105.506712 
L 385.240043 106.283679 
L 385.434855 106.283679 
L 385.56473 105.506712 
L 385.694604 106.283679 
L 386.343978 106.283679 
L 386.473853 105.24708 
L 387.80507 105.24708 
L 387.837539 104.452528 
L 387.902476 105.24708 
L 388.779131 105.24708 
L 388.8116 104.277409 
L 388.876537 105.24708 
L 389.071349 105.24708 
L 389.201224 104.277409 
L 389.590849 104.277409 
L 389.623317 103.46599 
L 389.688255 104.277409 
L 389.720723 104.277409 
L 389.753192 103.46599 
L 389.818129 104.277409 
L 391.766252 104.277409 
L 391.896126 105.117016 
L 392.026001 105.117016 
L 392.155876 104.277409 
L 392.902656 104.277409 
L 393.032531 102.036192 
L 393.162406 102.036192 
L 393.292281 101.546264 
L 393.714374 101.546264 
L 393.746842 100.742058 
L 393.81178 101.546264 
L 393.844248 101.546264 
L 393.974123 100.296973 
L 394.071529 101.546264 
L 394.103998 100.296973 
L 394.201404 100.742058 
L 394.233873 101.546264 
L 394.29881 100.742058 
L 394.720903 100.742058 
L 394.785841 99.908594 
L 394.818309 100.296973 
L 394.883247 100.296973 
L 395.013122 100.742058 
L 395.078059 100.742058 
L 395.175465 99.908594 
L 395.240403 101.165832 
L 395.272871 100.458236 
L 395.370277 100.458236 
L 395.500152 99.574373 
L 395.694964 99.574373 
L 395.792371 98.717491 
L 395.922245 99.574373 
L 396.149526 99.574373 
L 396.279401 98.717491 
L 397.05865 98.717491 
L 397.188525 97.645899 
L 397.220993 97.645899 
L 397.350868 98.717491 
L 397.448274 97.645899 
L 397.578149 98.717491 
L 397.610618 98.717491 
L 397.740493 97.645899 
L 397.772961 97.645899 
L 397.902836 98.717491 
L 398.032711 97.645899 
L 398.487273 97.645899 
L 398.487273 97.645899 
" clip-path="url(#pa21d4bbf26)" style="fill: none; stroke: #1f77b4; stroke-width: 1.5; stroke-linecap: square"/>
   </g>
   <g id="patch_3">
    <path d="M 57.6 307.584 
L 57.6 41.472 
" style="fill: none; stroke: #000000; stroke-width: 0.8; stroke-linejoin: miter; stroke-linecap: square"/>
   </g>
   <g id="patch_4">
    <path d="M 414.72 307.584 
L 414.72 41.472 
" style="fill: none; stroke: #000000; stroke-width: 0.8; stroke-linejoin: miter; stroke-linecap: square"/>
   </g>
   <g id="patch_5">
    <path d="M 57.6 307.584 
L 414.72 307.584 
" style="fill: none; stroke: #000000; stroke-width: 0.8; stroke-linejoin: miter; stroke-linecap: square"/>
   </g>
   <g id="patch_6">
    <path d="M 57.6 41.472 
L 414.72 41.472 
" style="fill: none; stroke: #000000; stroke-width: 0.8; stroke-linejoin: miter; stroke-linecap: square"/>
   </g>
  </g>
 </g>
 <defs>
  <clipPath id="pa21d4bbf26">
   <rect x="57.6" y="41.472" width="357.12" height="266.112"/>
  </clipPath>
 </defs>
</svg>
