<?xml version="1.0" encoding="utf-8" standalone="no"?>
<!DOCTYPE svg PUBLIC "-//W3C//DTD SVG 1.1//EN"
  "http://www.w3.org/Graphics/SVG/1.1/DTD/svg11.dtd">
<svg xmlns:xlink="http://www.w3.org/1999/xlink" width="460.8pt" height="345.6pt" viewBox="0 0 460.8 345.6" xmlns="http://www.w3.org/2000/svg" version="1.1">
 <metadata>
  <rdf:RDF xmlns:dc="http://purl.org/dc/elements/1.1/" xmlns:cc="http://creativecommons.org/ns#" xmlns:rdf="http://www.w3.org/1999/02/22-rdf-syntax-ns#">
   <cc:Work>
    <dc:type rdf:resource="http://purl.org/dc/dcmitype/StillImage"/>
    <dc:date>2024-04-27T17:27:38.105110</dc:date>
    <dc:format>image/svg+xml</dc:format>
    <dc:creator>
     <cc:Agent>
      <dc:title>Matplotlib v3.8.2, https://matplotlib.org/</dc:title>
     </cc:Agent>
    </dc:creator>
   </cc:Work>
  </rdf:RDF>
 </metadata>
 <defs>
  <style type="text/css">*{stroke-linejoin: round; stroke-linecap: butt}</style>
 </defs>
 <g id="figure_1">
  <g id="patch_1">
   <path d="M 0 345.6 
L 460.8 345.6 
L 460.8 0 
L 0 0 
z
" style="fill: #ffffff"/>
  </g>
  <g id="axes_1">
   <g id="patch_2">
    <path d="M 57.6 307.584 
L 414.72 307.584 
L 414.72 41.472 
L 57.6 41.472 
z
" style="fill: #ffffff"/>
   </g>
   <g id="matplotlib.axis_1">
    <g id="xtick_1">
     <g id="line2d_1">
      <defs>
       <path id="m7e27e9eaae" d="M 0 0 
L 0 3.5 
" style="stroke: #000000; stroke-width: 0.8"/>
      </defs>
      <g>
       <use xlink:href="#m7e27e9eaae" x="73.832727" y="307.584" style="stroke: #000000; stroke-width: 0.8"/>
      </g>
     </g>
     <g id="text_1">
      <!-- 0 -->
      <g transform="translate(70.651477 322.182437) scale(0.1 -0.1)">
       <defs>
        <path id="DejaVuSans-30" d="M 2034 4250 
Q 1547 4250 1301 3770 
Q 1056 3291 1056 2328 
Q 1056 1369 1301 889 
Q 1547 409 2034 409 
Q 2525 409 2770 889 
Q 3016 1369 3016 2328 
Q 3016 3291 2770 3770 
Q 2525 4250 2034 4250 
z
M 2034 4750 
Q 2819 4750 3233 4129 
Q 3647 3509 3647 2328 
Q 3647 1150 3233 529 
Q 2819 -91 2034 -91 
Q 1250 -91 836 529 
Q 422 1150 422 2328 
Q 422 3509 836 4129 
Q 1250 4750 2034 4750 
z
" transform="scale(0.015625)"/>
       </defs>
       <use xlink:href="#DejaVuSans-30"/>
      </g>
     </g>
    </g>
    <g id="xtick_2">
     <g id="line2d_2">
      <g>
       <use xlink:href="#m7e27e9eaae" x="127.959861" y="307.584" style="stroke: #000000; stroke-width: 0.8"/>
      </g>
     </g>
     <g id="text_2">
      <!-- 500 -->
      <g transform="translate(118.416111 322.182437) scale(0.1 -0.1)">
       <defs>
        <path id="DejaVuSans-35" d="M 691 4666 
L 3169 4666 
L 3169 4134 
L 1269 4134 
L 1269 2991 
Q 1406 3038 1543 3061 
Q 1681 3084 1819 3084 
Q 2600 3084 3056 2656 
Q 3513 2228 3513 1497 
Q 3513 744 3044 326 
Q 2575 -91 1722 -91 
Q 1428 -91 1123 -41 
Q 819 9 494 109 
L 494 744 
Q 775 591 1075 516 
Q 1375 441 1709 441 
Q 2250 441 2565 725 
Q 2881 1009 2881 1497 
Q 2881 1984 2565 2268 
Q 2250 2553 1709 2553 
Q 1456 2553 1204 2497 
Q 953 2441 691 2322 
L 691 4666 
z
" transform="scale(0.015625)"/>
       </defs>
       <use xlink:href="#DejaVuSans-35"/>
       <use xlink:href="#DejaVuSans-30" x="63.623047"/>
       <use xlink:href="#DejaVuSans-30" x="127.246094"/>
      </g>
     </g>
    </g>
    <g id="xtick_3">
     <g id="line2d_3">
      <g>
       <use xlink:href="#m7e27e9eaae" x="182.086994" y="307.584" style="stroke: #000000; stroke-width: 0.8"/>
      </g>
     </g>
     <g id="text_3">
      <!-- 1000 -->
      <g transform="translate(169.361994 322.182437) scale(0.1 -0.1)">
       <defs>
        <path id="DejaVuSans-31" d="M 794 531 
L 1825 531 
L 1825 4091 
L 703 3866 
L 703 4441 
L 1819 4666 
L 2450 4666 
L 2450 531 
L 3481 531 
L 3481 0 
L 794 0 
L 794 531 
z
" transform="scale(0.015625)"/>
       </defs>
       <use xlink:href="#DejaVuSans-31"/>
       <use xlink:href="#DejaVuSans-30" x="63.623047"/>
       <use xlink:href="#DejaVuSans-30" x="127.246094"/>
       <use xlink:href="#DejaVuSans-30" x="190.869141"/>
      </g>
     </g>
    </g>
    <g id="xtick_4">
     <g id="line2d_4">
      <g>
       <use xlink:href="#m7e27e9eaae" x="236.214127" y="307.584" style="stroke: #000000; stroke-width: 0.8"/>
      </g>
     </g>
     <g id="text_4">
      <!-- 1500 -->
      <g transform="translate(223.489127 322.182437) scale(0.1 -0.1)">
       <use xlink:href="#DejaVuSans-31"/>
       <use xlink:href="#DejaVuSans-35" x="63.623047"/>
       <use xlink:href="#DejaVuSans-30" x="127.246094"/>
       <use xlink:href="#DejaVuSans-30" x="190.869141"/>
      </g>
     </g>
    </g>
    <g id="xtick_5">
     <g id="line2d_5">
      <g>
       <use xlink:href="#m7e27e9eaae" x="290.34126" y="307.584" style="stroke: #000000; stroke-width: 0.8"/>
      </g>
     </g>
     <g id="text_5">
      <!-- 2000 -->
      <g transform="translate(277.61626 322.182437) scale(0.1 -0.1)">
       <defs>
        <path id="DejaVuSans-32" d="M 1228 531 
L 3431 531 
L 3431 0 
L 469 0 
L 469 531 
Q 828 903 1448 1529 
Q 2069 2156 2228 2338 
Q 2531 2678 2651 2914 
Q 2772 3150 2772 3378 
Q 2772 3750 2511 3984 
Q 2250 4219 1831 4219 
Q 1534 4219 1204 4116 
Q 875 4013 500 3803 
L 500 4441 
Q 881 4594 1212 4672 
Q 1544 4750 1819 4750 
Q 2544 4750 2975 4387 
Q 3406 4025 3406 3419 
Q 3406 3131 3298 2873 
Q 3191 2616 2906 2266 
Q 2828 2175 2409 1742 
Q 1991 1309 1228 531 
z
" transform="scale(0.015625)"/>
       </defs>
       <use xlink:href="#DejaVuSans-32"/>
       <use xlink:href="#DejaVuSans-30" x="63.623047"/>
       <use xlink:href="#DejaVuSans-30" x="127.246094"/>
       <use xlink:href="#DejaVuSans-30" x="190.869141"/>
      </g>
     </g>
    </g>
    <g id="xtick_6">
     <g id="line2d_6">
      <g>
       <use xlink:href="#m7e27e9eaae" x="344.468394" y="307.584" style="stroke: #000000; stroke-width: 0.8"/>
      </g>
     </g>
     <g id="text_6">
      <!-- 2500 -->
      <g transform="translate(331.743394 322.182437) scale(0.1 -0.1)">
       <use xlink:href="#DejaVuSans-32"/>
       <use xlink:href="#DejaVuSans-35" x="63.623047"/>
       <use xlink:href="#DejaVuSans-30" x="127.246094"/>
       <use xlink:href="#DejaVuSans-30" x="190.869141"/>
      </g>
     </g>
    </g>
    <g id="xtick_7">
     <g id="line2d_7">
      <g>
       <use xlink:href="#m7e27e9eaae" x="398.595527" y="307.584" style="stroke: #000000; stroke-width: 0.8"/>
      </g>
     </g>
     <g id="text_7">
      <!-- 3000 -->
      <g transform="translate(385.870527 322.182437) scale(0.1 -0.1)">
       <defs>
        <path id="DejaVuSans-33" d="M 2597 2516 
Q 3050 2419 3304 2112 
Q 3559 1806 3559 1356 
Q 3559 666 3084 287 
Q 2609 -91 1734 -91 
Q 1441 -91 1130 -33 
Q 819 25 488 141 
L 488 750 
Q 750 597 1062 519 
Q 1375 441 1716 441 
Q 2309 441 2620 675 
Q 2931 909 2931 1356 
Q 2931 1769 2642 2001 
Q 2353 2234 1838 2234 
L 1294 2234 
L 1294 2753 
L 1863 2753 
Q 2328 2753 2575 2939 
Q 2822 3125 2822 3475 
Q 2822 3834 2567 4026 
Q 2313 4219 1838 4219 
Q 1578 4219 1281 4162 
Q 984 4106 628 3988 
L 628 4550 
Q 988 4650 1302 4700 
Q 1616 4750 1894 4750 
Q 2613 4750 3031 4423 
Q 3450 4097 3450 3541 
Q 3450 3153 3228 2886 
Q 3006 2619 2597 2516 
z
" transform="scale(0.015625)"/>
       </defs>
       <use xlink:href="#DejaVuSans-33"/>
       <use xlink:href="#DejaVuSans-30" x="63.623047"/>
       <use xlink:href="#DejaVuSans-30" x="127.246094"/>
       <use xlink:href="#DejaVuSans-30" x="190.869141"/>
      </g>
     </g>
    </g>
   </g>
   <g id="matplotlib.axis_2">
    <g id="ytick_1">
     <g id="line2d_8">
      <defs>
       <path id="ma5c131bca6" d="M 0 0 
L -3.5 0 
" style="stroke: #000000; stroke-width: 0.8"/>
      </defs>
      <g>
       <use xlink:href="#ma5c131bca6" x="57.6" y="270.916383" style="stroke: #000000; stroke-width: 0.8"/>
      </g>
     </g>
     <g id="text_8">
      <!-- −100 -->
      <g transform="translate(23.132812 274.715601) scale(0.1 -0.1)">
       <defs>
        <path id="DejaVuSans-2212" d="M 678 2272 
L 4684 2272 
L 4684 1741 
L 678 1741 
L 678 2272 
z
" transform="scale(0.015625)"/>
       </defs>
       <use xlink:href="#DejaVuSans-2212"/>
       <use xlink:href="#DejaVuSans-31" x="83.789062"/>
       <use xlink:href="#DejaVuSans-30" x="147.412109"/>
       <use xlink:href="#DejaVuSans-30" x="211.035156"/>
      </g>
     </g>
    </g>
    <g id="ytick_2">
     <g id="line2d_9">
      <g>
       <use xlink:href="#ma5c131bca6" x="57.6" y="213.793647" style="stroke: #000000; stroke-width: 0.8"/>
      </g>
     </g>
     <g id="text_9">
      <!-- −50 -->
      <g transform="translate(29.495313 217.592866) scale(0.1 -0.1)">
       <use xlink:href="#DejaVuSans-2212"/>
       <use xlink:href="#DejaVuSans-35" x="83.789062"/>
       <use xlink:href="#DejaVuSans-30" x="147.412109"/>
      </g>
     </g>
    </g>
    <g id="ytick_3">
     <g id="line2d_10">
      <g>
       <use xlink:href="#ma5c131bca6" x="57.6" y="156.670912" style="stroke: #000000; stroke-width: 0.8"/>
      </g>
     </g>
     <g id="text_10">
      <!-- 0 -->
      <g transform="translate(44.2375 160.470131) scale(0.1 -0.1)">
       <use xlink:href="#DejaVuSans-30"/>
      </g>
     </g>
    </g>
    <g id="ytick_4">
     <g id="line2d_11">
      <g>
       <use xlink:href="#ma5c131bca6" x="57.6" y="99.548177" style="stroke: #000000; stroke-width: 0.8"/>
      </g>
     </g>
     <g id="text_11">
      <!-- 50 -->
      <g transform="translate(37.875 103.347396) scale(0.1 -0.1)">
       <use xlink:href="#DejaVuSans-35"/>
       <use xlink:href="#DejaVuSans-30" x="63.623047"/>
      </g>
     </g>
    </g>
    <g id="ytick_5">
     <g id="line2d_12">
      <g>
       <use xlink:href="#ma5c131bca6" x="57.6" y="42.425442" style="stroke: #000000; stroke-width: 0.8"/>
      </g>
     </g>
     <g id="text_12">
      <!-- 100 -->
      <g transform="translate(31.5125 46.22466) scale(0.1 -0.1)">
       <use xlink:href="#DejaVuSans-31"/>
       <use xlink:href="#DejaVuSans-30" x="63.623047"/>
       <use xlink:href="#DejaVuSans-30" x="127.246094"/>
      </g>
     </g>
    </g>
   </g>
   <g id="line2d_13">
    <path d="M 73.832727 277.293169 
L 74.049236 151.961628 
L 74.15749 158.393477 
L 74.265744 286.528606 
L 74.482253 161.952454 
L 74.590507 147.816836 
L 74.698761 158.288555 
L 74.807016 148.583967 
L 75.023524 157.67934 
L 75.131778 156.092713 
L 75.240033 157.861413 
L 75.348287 95.583712 
L 75.564796 158.288555 
L 75.67305 153.982957 
L 75.781304 158.288555 
L 75.889558 154.611529 
L 75.997813 107.245466 
L 76.214321 155.858439 
L 76.322575 275.199457 
L 76.43083 155.529827 
L 76.539084 159.457564 
L 76.647338 99.317523 
L 76.972101 225.57609 
L 77.080355 140.272488 
L 77.296864 162.021764 
L 77.513372 58.634844 
L 77.729881 200.307169 
L 77.838135 146.744699 
L 77.946389 198.820543 
L 78.162898 152.441307 
L 78.271152 152.121722 
L 78.379406 155.834421 
L 78.487661 155.373224 
L 78.595915 200.307169 
L 78.704169 176.050283 
L 78.812424 200.307169 
L 78.920678 271.73056 
L 79.137186 156.18192 
L 79.245441 200.307169 
L 79.461949 155.834421 
L 79.786712 271.73056 
L 79.894966 155.623841 
L 80.00322 210.137019 
L 80.111475 200.307169 
L 80.219729 156.237248 
L 80.436238 277.31252 
L 80.652746 156.538197 
L 80.761 230.423009 
L 80.869255 156.294131 
L 81.085763 160.002605 
L 81.302272 160.002605 
L 81.410526 162.780772 
L 81.627034 179.814227 
L 81.843543 211.963926 
L 81.951797 212.852399 
L 82.168306 196.706975 
L 82.27656 196.929294 
L 82.493069 196.778278 
L 82.709577 197.009224 
L 82.817831 196.852349 
L 82.926086 196.929294 
L 83.03434 197.17851 
L 83.142594 197.009224 
L 83.250848 197.17851 
L 83.359103 197.884085 
L 83.467357 197.092255 
L 83.575611 197.457921 
L 83.683866 197.268116 
L 83.79212 197.457921 
L 83.900374 197.17851 
L 84.225137 198.001285 
L 84.333391 197.771324 
L 84.5499 200.448436 
L 85.740697 200.448436 
L 85.848951 171.408391 
L 85.957205 176.929042 
L 86.173714 200.448436 
L 86.390222 176.929042 
L 86.498476 185.818062 
L 86.606731 174.994001 
L 86.714985 176.929042 
L 86.823239 173.156194 
L 86.931494 160.002605 
L 87.148002 165.196281 
L 87.364511 161.219268 
L 87.472765 162.488172 
L 87.581019 160.002605 
L 87.797528 161.219268 
L 87.905782 161.219268 
L 88.014036 165.196281 
L 88.230545 160.002605 
L 88.338799 160.002605 
L 88.447053 165.196281 
L 88.555308 161.219268 
L 88.663562 163.812634 
L 88.771816 160.002605 
L 88.88007 161.219268 
L 89.096579 160.002605 
L 89.204833 160.002605 
L 89.421342 162.488172 
L 89.63785 160.002605 
L 89.746104 161.219268 
L 89.962613 160.002605 
L 90.070867 160.002605 
L 90.179122 161.219268 
L 90.287376 160.002605 
L 90.39563 161.219268 
L 90.612139 160.002605 
L 90.936901 160.002605 
L 91.045156 165.196281 
L 91.15341 197.009224 
L 91.261664 196.638338 
L 126.877318 196.638338 
L 126.985572 130.936659 
L 127.093826 130.951127 
L 127.418589 130.997924 
L 127.526843 130.909394 
L 127.635098 131.031997 
L 127.743352 130.909394 
L 127.959861 131.127576 
L 128.176369 196.638338 
L 140.842118 196.638338 
L 141.058627 225.297061 
L 141.491644 225.297061 
L 141.708152 86.384504 
L 141.816407 92.669928 
L 142.032915 132.789483 
L 142.141169 120.409456 
L 142.357678 77.7031 
L 142.465932 77.084168 
L 142.682441 117.223243 
L 142.790695 86.633632 
L 142.898949 104.596632 
L 143.007204 90.512766 
L 143.115458 92.669928 
L 143.331966 82.475817 
L 143.548475 129.530728 
L 143.656729 115.924054 
L 143.764983 143.067008 
L 143.873238 87.183175 
L 143.981492 162.913087 
L 144.089746 94.895525 
L 144.198001 119.079885 
L 144.522763 97.194893 
L 144.631018 99.573853 
L 144.739272 97.194893 
L 145.064035 133.397886 
L 145.172289 125.867549 
L 145.497052 190.260655 
L 145.71356 151.387823 
L 145.821815 168.476574 
L 145.930069 156.670912 
L 146.038323 182.346764 
L 146.146577 295.488 
L 146.363086 162.349305 
L 146.579594 151.387823 
L 146.904357 168.476574 
L 147.120866 151.387823 
L 147.337374 168.476574 
L 147.445629 146.454805 
L 147.553883 162.349305 
L 147.770391 122.389477 
L 147.878646 137.490543 
L 147.9869 133.397886 
L 148.095154 137.490543 
L 148.203408 146.454805 
L 148.311663 133.397886 
L 148.419917 137.490543 
L 148.528171 119.079885 
L 148.636425 125.867549 
L 148.74468 110.022745 
L 148.852934 112.9089 
L 149.069443 122.389477 
L 149.177697 122.389477 
L 149.285951 119.079885 
L 149.394205 122.389477 
L 149.50246 110.022745 
L 149.718968 122.389477 
L 149.935477 112.9089 
L 150.043731 112.9089 
L 150.151985 119.079885 
L 150.260239 115.924054 
L 150.368494 119.079885 
L 150.585002 110.022745 
L 150.693257 112.9089 
L 150.801511 122.389477 
L 150.909765 104.596632 
L 151.018019 105.835876 
L 151.126274 122.245939 
L 151.234528 107.255126 
L 151.342782 115.924054 
L 151.451036 112.9089 
L 151.559291 119.079885 
L 151.775799 102.03877 
L 151.992308 115.924054 
L 152.100562 112.9089 
L 152.208816 117.409788 
L 152.425325 107.104007 
L 152.641833 119.079885 
L 152.858342 107.255126 
L 152.966596 119.079885 
L 153.07485 115.924054 
L 153.183105 105.991669 
L 153.399613 115.924054 
L 153.83263 104.757239 
L 153.940885 110.022745 
L 154.049139 107.581472 
L 154.157393 125.867549 
L 154.373902 107.414109 
L 154.482156 108.702808 
L 154.59041 122.245939 
L 154.806919 109.8732 
L 154.915173 112.486525 
L 155.023427 111.092123 
L 155.131681 129.009998 
L 155.239936 111.230013 
L 155.34819 118.797215 
L 155.456444 109.8732 
L 155.564699 111.375044 
L 155.672953 109.8732 
L 155.781207 112.760899 
L 155.889461 122.109716 
L 155.997716 111.527672 
L 156.10597 119.079885 
L 156.322478 110.022745 
L 156.430733 110.180138 
L 156.647241 109.8732 
L 156.755495 109.8732 
L 156.86375 111.230013 
L 156.972004 109.731027 
L 157.080258 129.256635 
L 157.296767 109.8732 
L 157.405021 112.620253 
L 157.513275 123.895005 
L 157.729784 111.375044 
L 157.838038 109.8732 
L 158.054547 120.367508 
L 158.162801 111.375044 
L 158.379309 114.181576 
L 158.487564 111.375044 
L 158.595818 112.760899 
L 158.704072 129.256635 
L 158.812327 120.641506 
L 158.920581 124.03411 
L 159.028835 111.375044 
L 159.137089 119.079885 
L 159.245344 111.375044 
L 159.353598 118.934886 
L 159.461852 110.022745 
L 159.678361 117.409788 
L 159.894869 105.991669 
L 160.003123 122.389477 
L 160.219632 114.325086 
L 160.327886 112.9089 
L 160.436141 114.325086 
L 160.652649 120.641506 
L 160.760903 112.760899 
L 160.869158 118.934886 
L 160.977412 108.548614 
L 161.19392 109.8732 
L 161.302175 123.895005 
L 161.410429 111.375044 
L 161.518683 123.895005 
L 161.626937 112.760899 
L 161.735192 139.425851 
L 161.843446 107.414109 
L 161.9517 108.402033 
L 162.059955 118.666433 
L 162.276463 105.284631 
L 162.384717 106.823499 
L 162.492972 105.412498 
L 162.70948 123.518547 
L 162.817734 116.882736 
L 163.034243 100.152577 
L 163.142497 101.737478 
L 163.250751 106.823499 
L 163.46726 97.856664 
L 163.575514 100.420979 
L 163.683769 100.283576 
L 163.792023 100.420979 
L 163.900277 98.992716 
L 164.008531 106.569207 
L 164.116786 96.607079 
L 164.22504 105.412498 
L 164.333294 90.194186 
L 164.441548 95.653034 
L 164.658057 87.94668 
L 164.766311 98.992716 
L 164.874565 87.148794 
L 164.98282 88.096874 
L 165.091074 91.191721 
L 165.199328 105.54673 
L 165.307583 82.305077 
L 165.415837 84.404693 
L 165.524091 94.895525 
L 165.7406 76.959873 
L 165.957108 90.512766 
L 166.065362 90.512766 
L 166.173617 80.594265 
L 166.390125 84.404693 
L 166.606634 80.594265 
L 166.931397 84.404693 
L 167.147905 84.404693 
L 167.256159 82.475817 
L 167.472668 84.404693 
L 167.580922 84.404693 
L 167.689176 86.384504 
L 167.797431 82.475817 
L 167.905685 88.419134 
L 168.122193 82.475817 
L 168.338702 82.475817 
L 168.555211 84.404693 
L 168.771719 84.404693 
L 169.096482 80.594265 
L 169.204736 80.594265 
L 169.529499 76.959873 
L 169.746007 76.959873 
L 169.854262 78.756668 
L 169.962516 75.200922 
L 170.07077 80.594265 
L 170.179025 75.200922 
L 170.612042 80.594265 
L 170.82855 73.477031 
L 170.936804 73.477031 
L 171.153313 69.209137 
L 171.369821 71.785569 
L 171.478076 68.490104 
L 171.58633 70.124048 
L 171.694584 68.490104 
L 172.019347 72.535127 
L 172.127601 67.780763 
L 172.235856 70.857775 
L 172.34411 66.881481 
L 172.560618 70.857775 
L 172.668873 66.881481 
L 172.777127 70.857775 
L 173.10189 65.988872 
L 173.210144 71.6019 
L 173.318398 65.102606 
L 173.426653 70.676979 
L 173.643161 64.739737 
L 173.85967 66.507798 
L 173.967924 65.800846 
L 174.076178 72.356623 
L 174.184432 65.800846 
L 174.292687 66.332628 
L 174.400941 72.1858 
L 174.617449 66.507798 
L 174.725704 69.760005 
L 174.833958 65.6207 
L 174.942212 66.164659 
L 175.050467 70.338134 
L 175.158721 64.739737 
L 175.591738 68.366938 
L 175.699992 67.471444 
L 175.808246 68.366938 
L 175.916501 72.498512 
L 176.241263 64.569395 
L 176.349518 65.557285 
L 176.457772 74.426478 
L 176.566026 70.136561 
L 176.674281 86.857865 
L 176.782535 86.199513 
L 176.890789 65.557285 
L 176.999043 70.383959 
L 177.107298 70.136561 
L 177.215552 70.708682 
L 177.323806 73.5924 
L 177.540315 154.596609 
L 181.437468 154.596609 
L 181.545723 151.888369 
L 181.762231 133.15452 
L 181.870485 135.251517 
L 181.97874 129.135131 
L 182.086994 131.116717 
L 182.411757 115.007082 
L 182.628265 119.979188 
L 182.844774 123.500773 
L 182.953028 123.500773 
L 183.277791 103.253381 
L 183.494299 111.8783 
L 183.819062 99.308154 
L 184.035571 111.8783 
L 184.143825 95.570626 
L 184.360333 104.619118 
L 184.468588 88.628887 
L 184.576842 89.741351 
L 184.793351 82.27522 
L 184.901605 81.264667 
L 185.009859 92.017613 
L 185.226368 74.515288 
L 185.334622 74.515288 
L 185.442876 71.773754 
L 185.55113 76.390045 
L 185.659385 73.5924 
L 185.767639 74.515288 
L 185.875893 73.5924 
L 185.984147 77.342688 
L 186.200656 75.447709 
L 186.30891 71.773754 
L 186.525419 75.447709 
L 186.633673 72.678675 
L 186.741927 75.447709 
L 186.850182 73.5924 
L 187.06669 82.27522 
L 187.174944 79.280536 
L 187.391453 81.264667 
L 187.607961 80.266594 
L 187.82447 72.678675 
L 187.932724 78.306045 
L 188.149233 75.447709 
L 188.257487 72.678675 
L 188.473996 65.6576 
L 188.690504 61.482816 
L 188.798758 54.25448 
L 189.015267 65.6576 
L 189.123521 58.232427 
L 189.34003 63.970907 
L 189.448284 62.306952 
L 189.556538 63.136226 
L 189.664793 62.306952 
L 189.773047 68.235256 
L 189.881301 63.136226 
L 189.989555 69.108364 
L 190.314318 60.663553 
L 190.422572 64.811272 
L 190.530827 76.390045 
L 190.855589 59.848904 
L 191.072098 72.678675 
L 191.505115 53.568 
L 191.721624 53.70832 
L 191.938132 54.014228 
L 192.262895 54.799587 
L 192.912421 56.521119 
L 193.128929 57.646241 
L 196.160049 57.646241 
L 196.376557 154.596609 
L 196.593066 154.596609 
L 196.809574 57.646241 
L 198.866405 57.646241 
L 199.082914 154.596609 
L 199.732439 154.596609 
L 199.840694 57.646241 
L 200.057202 154.596609 
L 211.315646 154.596609 
L 211.532154 57.603474 
L 211.640409 67.398395 
L 211.856917 53.895343 
L 212.073426 56.626894 
L 212.18168 53.974018 
L 212.398188 54.268416 
L 212.614697 54.181141 
L 213.047714 54.404397 
L 213.155968 54.546805 
L 213.372477 54.546805 
L 214.238511 55.016968 
L 214.346765 55.131137 
L 214.779782 54.961284 
L 214.996291 55.073579 
L 215.645816 55.131137 
L 215.970579 55.371304 
L 216.187088 55.309726 
L 216.511851 55.371304 
L 216.620105 55.371304 
L 216.728359 55.497683 
L 217.161376 55.371304 
L 217.26963 55.433948 
L 217.377885 55.309726 
L 217.702648 55.371304 
L 217.919156 173.899679 
L 218.02741 155.406165 
L 218.135665 155.47481 
L 219.434716 155.5473 
L 219.651224 155.623841 
L 225.3887 155.5473 
L 225.605209 155.47481 
L 225.821718 155.5473 
L 227.120769 155.5473 
L 227.337277 224.285533 
L 227.770294 224.253811 
L 228.203311 224.253811 
L 228.311566 214.105481 
L 228.41982 224.285533 
L 228.528074 149.01868 
L 228.636328 224.285533 
L 228.852837 155.195914 
L 228.961091 249.903294 
L 229.069346 246.528332 
L 229.1776 165.235298 
L 229.285854 166.840199 
L 229.394108 149.352229 
L 229.502363 185.436988 
L 229.610617 183.632419 
L 229.718871 160.970472 
L 229.827125 162.255928 
L 229.93538 160.970472 
L 230.043634 156.675887 
L 230.151888 173.03472 
L 230.260142 153.98685 
L 230.368397 183.632419 
L 230.476651 173.03472 
L 230.584905 174.702693 
L 230.69316 171.37446 
L 230.801414 191.336595 
L 231.017922 173.107667 
L 231.126177 162.170743 
L 231.234431 163.603707 
L 231.342685 135.253944 
L 231.450939 163.603707 
L 231.559194 145.070735 
L 231.667448 146.33079 
L 231.775702 143.862323 
L 231.883956 191.336595 
L 231.992211 156.495155 
L 232.100465 197.905356 
L 232.208719 191.336595 
L 232.316974 128.331695 
L 232.425228 156.484797 
L 232.533482 141.718585 
L 232.641736 155.0965 
L 232.749991 211.585093 
L 232.966499 138.378305 
L 233.183008 155.0965 
L 233.291262 137.247751 
L 233.50777 171.37446 
L 233.724279 138.378305 
L 233.940788 160.641786 
L 234.049042 193.563213 
L 234.157296 140.480718 
L 234.26555 153.84264 
L 234.373805 140.515449 
L 234.590313 151.205079 
L 234.698567 155.0965 
L 234.806822 138.378305 
L 235.02333 148.653449 
L 235.239839 138.299565 
L 235.348093 182.067701 
L 235.456347 137.247751 
L 235.564602 174.660532 
L 235.78111 133.126577 
L 235.889364 171.37446 
L 236.105873 155.166399 
L 236.322381 155.065211 
L 237.404924 154.975077 
L 237.837941 154.895131 
L 239.245247 154.792746 
L 239.678264 154.762995 
L 252.560521 154.73533 
L 252.77703 155.946653 
L 252.885284 155.946653 
L 253.101793 154.73533 
L 253.210047 154.73533 
L 253.318301 155.946653 
L 253.426556 154.73533 
L 253.643064 155.946653 
L 253.751318 154.73533 
L 253.859573 155.946653 
L 254.076081 154.73533 
L 254.184335 155.946653 
L 254.29259 154.73533 
L 254.400844 155.946653 
L 254.509098 154.73533 
L 254.725607 155.946653 
L 254.833861 155.946653 
L 254.942115 154.73533 
L 255.05037 155.946653 
L 255.266878 154.73533 
L 256.024658 154.73533 
L 256.132912 155.946653 
L 256.241166 154.73533 
L 256.349421 155.946653 
L 256.457675 154.73533 
L 256.565929 155.946653 
L 256.782438 154.73533 
L 257.107201 154.73533 
L 257.215455 155.946653 
L 257.431963 154.73533 
L 257.648472 155.946653 
L 257.756726 154.73533 
L 257.86498 155.946653 
L 258.081489 154.73533 
L 258.189743 155.946653 
L 258.406252 154.73533 
L 258.839269 154.73533 
L 258.947523 155.946653 
L 259.055777 154.73533 
L 259.272286 155.946653 
L 259.488794 155.946653 
L 259.705303 154.73533 
L 259.813557 155.946653 
L 259.921812 154.73533 
L 260.13832 155.946653 
L 260.571337 155.946653 
L 260.787846 154.73533 
L 261.004354 155.946653 
L 261.112608 154.73533 
L 261.329117 155.946653 
L 261.545626 154.73533 
L 261.870388 154.73533 
L 262.086897 155.946653 
L 262.195151 154.73533 
L 262.41166 155.946653 
L 262.628168 154.73533 
L 262.736422 155.946653 
L 262.844677 154.73533 
L 262.952931 155.946653 
L 263.061185 154.73533 
L 263.277694 155.946653 
L 263.385948 155.946653 
L 263.494202 154.73533 
L 263.602457 155.946653 
L 263.818965 154.73533 
L 263.927219 155.946653 
L 264.035474 154.73533 
L 264.143728 155.946653 
L 264.360236 154.73533 
L 264.468491 154.73533 
L 264.576745 155.946653 
L 264.793254 154.73533 
L 324.982626 154.824641 
L 325.199134 154.933879 
L 357.56716 154.858745 
L 357.675414 89.577643 
L 357.891923 154.858745 
L 358.000177 154.858745 
L 358.216686 79.551198 
L 358.32494 83.378327 
L 358.541448 154.858745 
L 358.649703 154.858745 
L 358.757957 92.894869 
L 358.974465 154.858745 
L 363.954162 154.858745 
L 364.062416 108.058564 
L 364.17067 154.858745 
L 364.278924 77.663847 
L 364.387179 154.858745 
L 364.495433 82.423842 
L 364.711942 154.858745 
L 364.820196 77.663847 
L 364.92845 154.858745 
L 365.144959 76.783238 
L 365.253213 77.663847 
L 365.361467 76.783238 
L 365.577976 77.663847 
L 365.68623 76.783238 
L 365.794484 154.858745 
L 366.010993 77.663847 
L 366.227501 77.663847 
L 366.335756 76.783238 
L 366.552264 77.663847 
L 366.660518 77.663847 
L 366.877027 76.783238 
L 367.093535 76.783238 
L 367.310044 84.431219 
L 367.418298 154.858745 
L 367.526552 102.638695 
L 367.743061 154.858745 
L 367.851315 87.50421 
L 367.95957 154.858745 
L 368.067824 84.431219 
L 368.176078 154.858745 
L 368.284332 76.783238 
L 368.500841 154.858745 
L 368.609095 110.972599 
L 368.825604 154.858745 
L 368.933858 94.085582 
L 369.150366 154.858745 
L 370.124655 154.858745 
L 370.232909 106.676769 
L 370.449418 154.858745 
L 370.77418 154.858745 
L 370.882435 152.138767 
L 370.990689 154.858745 
L 371.098943 87.50421 
L 371.207198 154.858745 
L 371.315452 102.638695 
L 371.53196 154.858745 
L 373.04752 154.858745 
L 373.155774 102.638695 
L 373.264029 154.858745 
L 373.480537 94.085582 
L 373.697046 154.858745 
L 373.8053 154.858745 
L 373.913554 84.431219 
L 374.130063 154.858745 
L 374.238317 80.557144 
L 374.346571 83.464529 
L 374.56308 75.91443 
L 374.671334 83.464529 
L 374.779588 75.91443 
L 374.996097 80.557144 
L 375.104351 80.557144 
L 375.32086 75.91443 
L 375.645622 75.91443 
L 375.862131 75.057087 
L 376.619911 75.057087 
L 376.728165 74.210887 
L 376.944674 75.057087 
L 377.161182 75.057087 
L 377.269436 74.210887 
L 377.485945 75.057087 
L 377.594199 74.210887 
L 377.702454 75.057087 
L 377.918962 74.210887 
L 378.027216 74.210887 
L 378.243725 73.375518 
L 378.351979 73.375518 
L 378.460233 74.210887 
L 378.676742 73.375518 
L 379.218013 73.375518 
L 379.434522 72.443222 
L 379.867539 72.443222 
L 380.084047 71.625638 
L 380.192302 71.625638 
L 380.40881 70.817948 
L 380.517064 71.625638 
L 380.625319 70.817948 
L 380.841827 71.625638 
L 380.950082 71.625638 
L 381.16659 70.817948 
L 381.274844 65.777285 
L 381.383099 146.752809 
L 381.599607 61.889903 
L 381.707861 248.846985 
L 381.816116 134.80183 
L 381.92437 136.087722 
L 382.032624 151.312559 
L 382.140878 63.045186 
L 382.249133 244.932536 
L 382.357387 63.166812 
L 382.465641 244.803385 
L 382.68215 64.058941 
L 382.790404 254.036087 
L 382.898658 146.228035 
L 383.006913 248.846985 
L 383.223421 65.859351 
L 383.331675 248.846985 
L 383.548184 142.382021 
L 383.656438 130.687763 
L 383.764692 243.743651 
L 383.872947 144.783659 
L 383.981201 149.258004 
L 384.19771 142.911716 
L 384.305964 237.729153 
L 384.522472 140.939067 
L 384.738981 152.383965 
L 384.955489 145.803109 
L 385.063744 128.746692 
L 385.280252 144.344378 
L 385.496761 138.002616 
L 385.713269 145.379655 
L 385.821524 126.331082 
L 385.929778 129.756173 
L 386.146286 144.977085 
L 386.254541 138.297862 
L 386.471049 248.715745 
L 386.579303 236.519992 
L 386.687558 240.276703 
L 386.904066 133.718092 
L 387.01232 156.361385 
L 387.120575 151.052814 
L 387.228829 152.645621 
L 387.337083 152.244858 
L 387.445338 247.942575 
L 387.661846 138.279869 
L 387.7701 247.942575 
L 387.878355 244.013356 
L 387.986609 148.726694 
L 388.094863 244.013356 
L 388.203117 240.207835 
L 388.311372 243.761165 
L 388.419626 149.930702 
L 388.52788 151.513981 
L 388.636134 151.513981 
L 388.744389 143.268727 
L 388.852643 153.765841 
L 389.069152 153.128792 
L 389.28566 160.292612 
L 389.393914 158.173955 
L 389.502169 252.801559 
L 389.610423 247.942575 
L 389.718677 160.292612 
L 389.826931 252.801559 
L 389.935186 154.442214 
L 390.151694 244.761235 
L 390.259948 153.847077 
L 390.368203 236.272193 
L 390.476457 232.699006 
L 390.584711 153.801214 
L 390.692966 252.801559 
L 390.80122 158.990887 
L 390.909474 240.931532 
L 391.017728 168.941752 
L 391.125983 248.715745 
L 391.234237 168.347898 
L 391.450745 254.191722 
L 391.559 168.347898 
L 391.667254 257.025632 
L 391.775508 157.734096 
L 391.883762 244.013356 
L 391.992017 154.630138 
L 392.100271 167.880108 
L 392.208525 163.803481 
L 392.31678 150.413496 
L 392.425034 240.931532 
L 392.641542 145.254112 
L 392.858051 178.169348 
L 392.966305 165.33055 
L 393.074559 169.441413 
L 393.291068 240.207835 
L 393.399322 236.272193 
L 393.615831 158.390493 
L 393.832339 169.283558 
L 393.940594 166.908754 
L 394.048848 178.075183 
L 394.157102 162.854847 
L 394.265356 175.788421 
L 394.373611 145.893576 
L 394.481865 185.247313 
L 394.590119 182.8444 
L 394.698373 157.7559 
L 394.806628 167.396736 
L 395.023136 150.413496 
L 395.13139 223.054791 
L 395.347899 167.396736 
L 395.456153 172.183774 
L 395.564408 185.588488 
L 395.672662 162.854847 
L 395.88917 169.758197 
L 395.997425 160.669186 
L 396.105679 197.885137 
L 396.322187 174.676522 
L 396.430442 209.1263 
L 396.64695 156.456467 
L 396.863459 185.588488 
L 396.971713 165.096518 
L 397.079967 192.754662 
L 397.188222 165.096518 
L 397.40473 200.566785 
L 397.512984 212.166369 
L 397.729493 167.396736 
L 397.837747 174.676522 
L 397.946001 209.1263 
L 398.16251 183.328478 
L 398.270764 192.754662 
L 398.487273 158.537144 
L 398.487273 158.537144 
" clip-path="url(#p83ec1bcf30)" style="fill: none; stroke: #1f77b4; stroke-width: 1.5; stroke-linecap: square"/>
   </g>
   <g id="patch_3">
    <path d="M 57.6 307.584 
L 57.6 41.472 
" style="fill: none; stroke: #000000; stroke-width: 0.8; stroke-linejoin: miter; stroke-linecap: square"/>
   </g>
   <g id="patch_4">
    <path d="M 414.72 307.584 
L 414.72 41.472 
" style="fill: none; stroke: #000000; stroke-width: 0.8; stroke-linejoin: miter; stroke-linecap: square"/>
   </g>
   <g id="patch_5">
    <path d="M 57.6 307.584 
L 414.72 307.584 
" style="fill: none; stroke: #000000; stroke-width: 0.8; stroke-linejoin: miter; stroke-linecap: square"/>
   </g>
   <g id="patch_6">
    <path d="M 57.6 41.472 
L 414.72 41.472 
" style="fill: none; stroke: #000000; stroke-width: 0.8; stroke-linejoin: miter; stroke-linecap: square"/>
   </g>
  </g>
 </g>
 <defs>
  <clipPath id="p83ec1bcf30">
   <rect x="57.6" y="41.472" width="357.12" height="266.112"/>
  </clipPath>
 </defs>
</svg>
