<?xml version="1.0" encoding="utf-8" standalone="no"?>
<!DOCTYPE svg PUBLIC "-//W3C//DTD SVG 1.1//EN"
  "http://www.w3.org/Graphics/SVG/1.1/DTD/svg11.dtd">
<svg xmlns:xlink="http://www.w3.org/1999/xlink" width="460.8pt" height="345.6pt" viewBox="0 0 460.8 345.6" xmlns="http://www.w3.org/2000/svg" version="1.1">
 <metadata>
  <rdf:RDF xmlns:dc="http://purl.org/dc/elements/1.1/" xmlns:cc="http://creativecommons.org/ns#" xmlns:rdf="http://www.w3.org/1999/02/22-rdf-syntax-ns#">
   <cc:Work>
    <dc:type rdf:resource="http://purl.org/dc/dcmitype/StillImage"/>
    <dc:date>2024-04-27T02:24:25.575398</dc:date>
    <dc:format>image/svg+xml</dc:format>
    <dc:creator>
     <cc:Agent>
      <dc:title>Matplotlib v3.8.2, https://matplotlib.org/</dc:title>
     </cc:Agent>
    </dc:creator>
   </cc:Work>
  </rdf:RDF>
 </metadata>
 <defs>
  <style type="text/css">*{stroke-linejoin: round; stroke-linecap: butt}</style>
 </defs>
 <g id="figure_1">
  <g id="patch_1">
   <path d="M 0 345.6 
L 460.8 345.6 
L 460.8 0 
L 0 0 
z
" style="fill: #ffffff"/>
  </g>
  <g id="axes_1">
   <g id="patch_2">
    <path d="M 57.6 307.584 
L 414.72 307.584 
L 414.72 41.472 
L 57.6 41.472 
z
" style="fill: #ffffff"/>
   </g>
   <g id="matplotlib.axis_1">
    <g id="xtick_1">
     <g id="line2d_1">
      <defs>
       <path id="m60e2168e1a" d="M 0 0 
L 0 3.5 
" style="stroke: #000000; stroke-width: 0.8"/>
      </defs>
      <g>
       <use xlink:href="#m60e2168e1a" x="73.832727" y="307.584" style="stroke: #000000; stroke-width: 0.8"/>
      </g>
     </g>
     <g id="text_1">
      <!-- 0 -->
      <g transform="translate(70.651477 322.182437) scale(0.1 -0.1)">
       <defs>
        <path id="DejaVuSans-30" d="M 2034 4250 
Q 1547 4250 1301 3770 
Q 1056 3291 1056 2328 
Q 1056 1369 1301 889 
Q 1547 409 2034 409 
Q 2525 409 2770 889 
Q 3016 1369 3016 2328 
Q 3016 3291 2770 3770 
Q 2525 4250 2034 4250 
z
M 2034 4750 
Q 2819 4750 3233 4129 
Q 3647 3509 3647 2328 
Q 3647 1150 3233 529 
Q 2819 -91 2034 -91 
Q 1250 -91 836 529 
Q 422 1150 422 2328 
Q 422 3509 836 4129 
Q 1250 4750 2034 4750 
z
" transform="scale(0.015625)"/>
       </defs>
       <use xlink:href="#DejaVuSans-30"/>
      </g>
     </g>
    </g>
    <g id="xtick_2">
     <g id="line2d_2">
      <g>
       <use xlink:href="#m60e2168e1a" x="138.77013" y="307.584" style="stroke: #000000; stroke-width: 0.8"/>
      </g>
     </g>
     <g id="text_2">
      <!-- 2000 -->
      <g transform="translate(126.04513 322.182437) scale(0.1 -0.1)">
       <defs>
        <path id="DejaVuSans-32" d="M 1228 531 
L 3431 531 
L 3431 0 
L 469 0 
L 469 531 
Q 828 903 1448 1529 
Q 2069 2156 2228 2338 
Q 2531 2678 2651 2914 
Q 2772 3150 2772 3378 
Q 2772 3750 2511 3984 
Q 2250 4219 1831 4219 
Q 1534 4219 1204 4116 
Q 875 4013 500 3803 
L 500 4441 
Q 881 4594 1212 4672 
Q 1544 4750 1819 4750 
Q 2544 4750 2975 4387 
Q 3406 4025 3406 3419 
Q 3406 3131 3298 2873 
Q 3191 2616 2906 2266 
Q 2828 2175 2409 1742 
Q 1991 1309 1228 531 
z
" transform="scale(0.015625)"/>
       </defs>
       <use xlink:href="#DejaVuSans-32"/>
       <use xlink:href="#DejaVuSans-30" x="63.623047"/>
       <use xlink:href="#DejaVuSans-30" x="127.246094"/>
       <use xlink:href="#DejaVuSans-30" x="190.869141"/>
      </g>
     </g>
    </g>
    <g id="xtick_3">
     <g id="line2d_3">
      <g>
       <use xlink:href="#m60e2168e1a" x="203.707533" y="307.584" style="stroke: #000000; stroke-width: 0.8"/>
      </g>
     </g>
     <g id="text_3">
      <!-- 4000 -->
      <g transform="translate(190.982533 322.182437) scale(0.1 -0.1)">
       <defs>
        <path id="DejaVuSans-34" d="M 2419 4116 
L 825 1625 
L 2419 1625 
L 2419 4116 
z
M 2253 4666 
L 3047 4666 
L 3047 1625 
L 3713 1625 
L 3713 1100 
L 3047 1100 
L 3047 0 
L 2419 0 
L 2419 1100 
L 313 1100 
L 313 1709 
L 2253 4666 
z
" transform="scale(0.015625)"/>
       </defs>
       <use xlink:href="#DejaVuSans-34"/>
       <use xlink:href="#DejaVuSans-30" x="63.623047"/>
       <use xlink:href="#DejaVuSans-30" x="127.246094"/>
       <use xlink:href="#DejaVuSans-30" x="190.869141"/>
      </g>
     </g>
    </g>
    <g id="xtick_4">
     <g id="line2d_4">
      <g>
       <use xlink:href="#m60e2168e1a" x="268.644936" y="307.584" style="stroke: #000000; stroke-width: 0.8"/>
      </g>
     </g>
     <g id="text_4">
      <!-- 6000 -->
      <g transform="translate(255.919936 322.182437) scale(0.1 -0.1)">
       <defs>
        <path id="DejaVuSans-36" d="M 2113 2584 
Q 1688 2584 1439 2293 
Q 1191 2003 1191 1497 
Q 1191 994 1439 701 
Q 1688 409 2113 409 
Q 2538 409 2786 701 
Q 3034 994 3034 1497 
Q 3034 2003 2786 2293 
Q 2538 2584 2113 2584 
z
M 3366 4563 
L 3366 3988 
Q 3128 4100 2886 4159 
Q 2644 4219 2406 4219 
Q 1781 4219 1451 3797 
Q 1122 3375 1075 2522 
Q 1259 2794 1537 2939 
Q 1816 3084 2150 3084 
Q 2853 3084 3261 2657 
Q 3669 2231 3669 1497 
Q 3669 778 3244 343 
Q 2819 -91 2113 -91 
Q 1303 -91 875 529 
Q 447 1150 447 2328 
Q 447 3434 972 4092 
Q 1497 4750 2381 4750 
Q 2619 4750 2861 4703 
Q 3103 4656 3366 4563 
z
" transform="scale(0.015625)"/>
       </defs>
       <use xlink:href="#DejaVuSans-36"/>
       <use xlink:href="#DejaVuSans-30" x="63.623047"/>
       <use xlink:href="#DejaVuSans-30" x="127.246094"/>
       <use xlink:href="#DejaVuSans-30" x="190.869141"/>
      </g>
     </g>
    </g>
    <g id="xtick_5">
     <g id="line2d_5">
      <g>
       <use xlink:href="#m60e2168e1a" x="333.582339" y="307.584" style="stroke: #000000; stroke-width: 0.8"/>
      </g>
     </g>
     <g id="text_5">
      <!-- 8000 -->
      <g transform="translate(320.857339 322.182437) scale(0.1 -0.1)">
       <defs>
        <path id="DejaVuSans-38" d="M 2034 2216 
Q 1584 2216 1326 1975 
Q 1069 1734 1069 1313 
Q 1069 891 1326 650 
Q 1584 409 2034 409 
Q 2484 409 2743 651 
Q 3003 894 3003 1313 
Q 3003 1734 2745 1975 
Q 2488 2216 2034 2216 
z
M 1403 2484 
Q 997 2584 770 2862 
Q 544 3141 544 3541 
Q 544 4100 942 4425 
Q 1341 4750 2034 4750 
Q 2731 4750 3128 4425 
Q 3525 4100 3525 3541 
Q 3525 3141 3298 2862 
Q 3072 2584 2669 2484 
Q 3125 2378 3379 2068 
Q 3634 1759 3634 1313 
Q 3634 634 3220 271 
Q 2806 -91 2034 -91 
Q 1263 -91 848 271 
Q 434 634 434 1313 
Q 434 1759 690 2068 
Q 947 2378 1403 2484 
z
M 1172 3481 
Q 1172 3119 1398 2916 
Q 1625 2713 2034 2713 
Q 2441 2713 2670 2916 
Q 2900 3119 2900 3481 
Q 2900 3844 2670 4047 
Q 2441 4250 2034 4250 
Q 1625 4250 1398 4047 
Q 1172 3844 1172 3481 
z
" transform="scale(0.015625)"/>
       </defs>
       <use xlink:href="#DejaVuSans-38"/>
       <use xlink:href="#DejaVuSans-30" x="63.623047"/>
       <use xlink:href="#DejaVuSans-30" x="127.246094"/>
       <use xlink:href="#DejaVuSans-30" x="190.869141"/>
      </g>
     </g>
    </g>
    <g id="xtick_6">
     <g id="line2d_6">
      <g>
       <use xlink:href="#m60e2168e1a" x="398.519741" y="307.584" style="stroke: #000000; stroke-width: 0.8"/>
      </g>
     </g>
     <g id="text_6">
      <!-- 10000 -->
      <g transform="translate(382.613491 322.182437) scale(0.1 -0.1)">
       <defs>
        <path id="DejaVuSans-31" d="M 794 531 
L 1825 531 
L 1825 4091 
L 703 3866 
L 703 4441 
L 1819 4666 
L 2450 4666 
L 2450 531 
L 3481 531 
L 3481 0 
L 794 0 
L 794 531 
z
" transform="scale(0.015625)"/>
       </defs>
       <use xlink:href="#DejaVuSans-31"/>
       <use xlink:href="#DejaVuSans-30" x="63.623047"/>
       <use xlink:href="#DejaVuSans-30" x="127.246094"/>
       <use xlink:href="#DejaVuSans-30" x="190.869141"/>
       <use xlink:href="#DejaVuSans-30" x="254.492188"/>
      </g>
     </g>
    </g>
   </g>
   <g id="matplotlib.axis_2">
    <g id="ytick_1">
     <g id="line2d_7">
      <defs>
       <path id="m17109494e1" d="M 0 0 
L -3.5 0 
" style="stroke: #000000; stroke-width: 0.8"/>
      </defs>
      <g>
       <use xlink:href="#m17109494e1" x="57.6" y="262.094812" style="stroke: #000000; stroke-width: 0.8"/>
      </g>
     </g>
     <g id="text_7">
      <!-- −100 -->
      <g transform="translate(23.132812 265.89403) scale(0.1 -0.1)">
       <defs>
        <path id="DejaVuSans-2212" d="M 678 2272 
L 4684 2272 
L 4684 1741 
L 678 1741 
L 678 2272 
z
" transform="scale(0.015625)"/>
       </defs>
       <use xlink:href="#DejaVuSans-2212"/>
       <use xlink:href="#DejaVuSans-31" x="83.789062"/>
       <use xlink:href="#DejaVuSans-30" x="147.412109"/>
       <use xlink:href="#DejaVuSans-30" x="211.035156"/>
      </g>
     </g>
    </g>
    <g id="ytick_2">
     <g id="line2d_8">
      <g>
       <use xlink:href="#m17109494e1" x="57.6" y="206.893531" style="stroke: #000000; stroke-width: 0.8"/>
      </g>
     </g>
     <g id="text_8">
      <!-- −50 -->
      <g transform="translate(29.495313 210.69275) scale(0.1 -0.1)">
       <defs>
        <path id="DejaVuSans-35" d="M 691 4666 
L 3169 4666 
L 3169 4134 
L 1269 4134 
L 1269 2991 
Q 1406 3038 1543 3061 
Q 1681 3084 1819 3084 
Q 2600 3084 3056 2656 
Q 3513 2228 3513 1497 
Q 3513 744 3044 326 
Q 2575 -91 1722 -91 
Q 1428 -91 1123 -41 
Q 819 9 494 109 
L 494 744 
Q 775 591 1075 516 
Q 1375 441 1709 441 
Q 2250 441 2565 725 
Q 2881 1009 2881 1497 
Q 2881 1984 2565 2268 
Q 2250 2553 1709 2553 
Q 1456 2553 1204 2497 
Q 953 2441 691 2322 
L 691 4666 
z
" transform="scale(0.015625)"/>
       </defs>
       <use xlink:href="#DejaVuSans-2212"/>
       <use xlink:href="#DejaVuSans-35" x="83.789062"/>
       <use xlink:href="#DejaVuSans-30" x="147.412109"/>
      </g>
     </g>
    </g>
    <g id="ytick_3">
     <g id="line2d_9">
      <g>
       <use xlink:href="#m17109494e1" x="57.6" y="151.692251" style="stroke: #000000; stroke-width: 0.8"/>
      </g>
     </g>
     <g id="text_9">
      <!-- 0 -->
      <g transform="translate(44.2375 155.491469) scale(0.1 -0.1)">
       <use xlink:href="#DejaVuSans-30"/>
      </g>
     </g>
    </g>
    <g id="ytick_4">
     <g id="line2d_10">
      <g>
       <use xlink:href="#m17109494e1" x="57.6" y="96.49097" style="stroke: #000000; stroke-width: 0.8"/>
      </g>
     </g>
     <g id="text_10">
      <!-- 50 -->
      <g transform="translate(37.875 100.290189) scale(0.1 -0.1)">
       <use xlink:href="#DejaVuSans-35"/>
       <use xlink:href="#DejaVuSans-30" x="63.623047"/>
      </g>
     </g>
    </g>
   </g>
   <g id="line2d_11">
    <path d="M 73.832727 268.2571 
L 73.897665 147.141375 
L 73.930133 153.356873 
L 73.962602 277.181882 
L 74.027539 156.796136 
L 74.060008 143.136002 
L 74.157414 148.018003 
L 74.25482 152.842706 
L 74.287289 92.659859 
L 74.352226 153.255481 
L 74.384695 149.094711 
L 74.449633 149.70214 
L 74.482101 103.929343 
L 74.547039 150.907107 
L 74.579507 266.233815 
L 74.611976 150.589549 
L 74.644445 154.385167 
L 74.676914 93.091575 
L 74.709382 155.564354 
L 74.741851 146.984828 
L 74.77432 218.279644 
L 74.806788 135.845425 
L 74.839257 145.234016 
L 74.871726 156.863114 
L 74.936663 55.796703 
L 74.969132 112.99393 
L 75.001601 193.51444 
L 75.066538 143.685263 
L 75.196413 151.06787 
L 75.228881 207.634916 
L 75.26135 149.578193 
L 75.293819 205.236822 
L 75.326288 150.074281 
L 75.358756 206.503608 
L 75.423694 150.840955 
L 75.456162 154.263807 
L 75.553568 123.738079 
L 75.683443 155.828819 
L 75.813318 154.911875 
L 75.943193 122.210909 
L 76.073068 293.894569 
L 76.105536 154.911875 
L 76.170474 158.193832 
L 76.202942 293.894569 
L 76.235411 115.196604 
L 76.300349 293.487584 
L 76.365286 110.92789 
L 76.430223 150.690965 
L 76.462692 152.046804 
L 76.495161 110.788858 
L 76.560098 155.113892 
L 76.592567 151.328143 
L 76.625036 152.281538 
L 76.657504 125.565251 
L 76.722442 158.970974 
L 76.75491 228.480509 
L 76.787379 153.284092 
L 76.819848 176.848621 
L 76.852317 163.25893 
L 76.884785 194.009056 
L 76.917254 209.597568 
L 76.949723 155.113892 
L 77.01466 205.236822 
L 77.047129 205.236822 
L 77.177004 149.687721 
L 77.436753 149.687721 
L 77.534159 193.860702 
L 77.664034 149.687721 
L 77.696503 149.687721 
L 77.793909 262.881603 
L 77.891315 149.687721 
L 77.923784 150.212846 
L 78.02119 193.860702 
L 78.053658 150.013647 
L 78.086127 193.860702 
L 78.118596 262.881603 
L 78.151065 150.347792 
L 78.216002 150.570932 
L 78.280939 149.687721 
L 78.378345 150.883896 
L 78.50822 149.687721 
L 78.540689 150.758497 
L 78.605626 149.687721 
L 78.638095 149.687721 
L 78.670564 150.758497 
L 78.735501 149.687721 
L 78.832907 149.687721 
L 78.865376 150.758497 
L 78.930313 149.687721 
L 92.632105 149.687721 
L 92.729511 87.414871 
L 92.76198 88.466538 
L 92.794449 84.803337 
L 92.826918 89.31529 
L 92.859386 90.187046 
L 92.891855 79.995398 
L 92.956792 85.581886 
L 93.02173 95.284781 
L 93.086667 89.31529 
L 93.151605 84.044359 
L 93.184073 89.31529 
L 93.216542 92.201806 
L 93.249011 86.602556 
L 93.281479 82.335129 
L 93.411354 149.687721 
L 103.638995 149.687721 
L 103.76887 154.911875 
L 103.866276 149.687721 
L 103.996151 154.911875 
L 104.158494 154.911875 
L 104.288369 149.687721 
L 104.418244 149.687721 
L 104.450713 154.911875 
L 104.51565 149.687721 
L 114.223792 149.687721 
L 114.321198 208.450949 
L 114.353667 208.35118 
L 114.386135 191.107294 
L 114.418604 198.873767 
L 114.548479 295.488 
L 114.613416 295.300066 
L 114.743291 218.202001 
L 114.77576 218.270093 
L 114.938103 218.136002 
L 114.970572 218.136002 
L 115.100447 218.010001 
L 115.197853 218.072024 
L 115.327728 218.136002 
L 115.490071 218.010001 
L 116.951163 218.010001 
L 117.081038 190.31528 
L 117.340787 190.31528 
L 117.470662 218.010001 
L 117.892755 218.010001 
L 117.990161 218.564916 
L 118.02263 218.48768 
L 118.055099 135.921067 
L 118.152505 152.456874 
L 118.184973 152.456874 
L 118.314848 152.285556 
L 118.50966 152.285556 
L 118.607067 152.456874 
L 118.736941 152.285556 
L 119.02916 152.285556 
L 119.159034 152.456874 
L 119.51619 152.456874 
L 119.548659 152.285556 
L 119.613596 152.456874 
L 120.490251 152.456874 
L 120.620126 152.638746 
L 120.717532 152.638746 
L 120.847407 152.456874 
L 120.977282 152.638746 
L 121.561718 152.638746 
L 121.691593 152.831967 
L 121.918874 152.831967 
L 121.951343 152.638746 
L 122.01628 152.831967 
L 122.990341 152.831967 
L 123.120216 153.037405 
L 123.315028 153.037405 
L 123.379966 152.831967 
L 123.412434 153.037405 
L 127.341147 153.037405 
L 127.373616 153.256018 
L 127.438553 153.037405 
L 129.743831 153.037405 
L 129.873706 152.831967 
L 130.847767 152.831967 
L 130.977642 152.638746 
L 131.107517 152.638746 
L 131.237391 152.456874 
L 131.302329 152.456874 
L 131.432204 152.638746 
L 131.52961 152.456874 
L 131.562078 152.638746 
L 131.594547 150.536382 
L 131.724422 55.998503 
L 133.575138 55.998503 
L 133.607607 54.753786 
L 133.672544 55.998503 
L 133.705013 55.998503 
L 134.062168 67.962666 
L 134.127106 66.358584 
L 134.256981 62.530791 
L 134.321918 63.224016 
L 134.711542 71.255646 
L 134.744011 71.255646 
L 134.808949 72.949381 
L 134.971292 66.358584 
L 135.068698 71.255646 
L 135.101167 71.118304 
L 135.133636 71.255646 
L 135.166104 72.029411 
L 135.198573 71.118304 
L 135.26351 66.215221 
L 135.295979 66.358584 
L 135.328448 71.118304 
L 135.393385 66.077531 
L 135.425854 66.077531 
L 135.458323 61.539505 
L 135.490791 70.215694 
L 135.52326 70.085638 
L 135.555729 69.19283 
L 135.653135 61.395475 
L 135.685603 62.934531 
L 135.718072 64.360194 
L 135.750541 62.233278 
L 135.815478 60.705038 
L 135.912884 63.92512 
L 135.945353 62.934531 
L 135.977822 62.934531 
L 136.107697 66.077531 
L 136.237571 62.934531 
L 136.432384 68.566544 
L 136.464852 65.351688 
L 136.52979 69.321227 
L 136.562258 67.685681 
L 136.594727 68.566544 
L 136.627196 70.085638 
L 136.659665 66.945975 
L 136.692133 68.566544 
L 136.724602 68.566544 
L 136.822008 65.351688 
L 136.854477 67.821356 
L 136.886945 68.434557 
L 136.919414 65.351688 
L 136.984352 69.321227 
L 137.081758 65.215708 
L 137.211632 66.077531 
L 137.27657 66.812015 
L 137.309039 65.215708 
L 137.341507 68.434557 
L 137.373976 66.812015 
L 137.438913 66.812015 
L 137.536319 62.934531 
L 137.601257 63.643441 
L 137.698663 66.077531 
L 137.828538 63.643441 
L 137.958413 61.395475 
L 137.990881 64.49453 
L 138.055819 62.934531 
L 138.088287 62.934531 
L 138.120756 63.781489 
L 138.185693 62.934531 
L 138.315568 62.934531 
L 138.412974 63.781489 
L 138.51038 62.093111 
L 138.477912 64.49453 
L 138.575318 62.233278 
L 138.607787 62.093111 
L 138.705193 63.781489 
L 138.77013 61.395475 
L 138.802599 62.934531 
L 138.867536 62.934531 
L 138.932474 60.562701 
L 138.964942 61.395475 
L 138.997411 62.093111 
L 139.02988 60.562701 
L 139.062348 59.875383 
L 139.094817 60.705038 
L 139.127286 61.395475 
L 139.159755 60.562701 
L 139.192223 59.050263 
L 139.224692 62.934531 
L 139.289629 62.093111 
L 139.354567 59.875383 
L 139.387035 60.562701 
L 139.51691 62.233278 
L 139.614316 60.562701 
L 139.646785 61.256942 
L 139.679254 62.934531 
L 139.711722 60.562701 
L 139.744191 61.395475 
L 139.77666 61.395475 
L 139.906535 59.875383 
L 140.003941 61.395475 
L 140.036409 60.705038 
L 140.101347 61.256942 
L 140.133816 61.395475 
L 140.166284 59.875383 
L 140.198753 62.233278 
L 140.231222 62.233278 
L 140.426034 59.875383 
L 140.588377 62.934531 
L 140.718252 58.372342 
L 140.750721 59.050263 
L 140.848127 61.256942 
L 140.880596 59.875383 
L 140.913064 59.050263 
L 140.945533 60.562701 
L 140.978002 60.562701 
L 141.140345 58.229401 
L 141.172814 58.372342 
L 141.27022 59.734674 
L 141.302689 59.050263 
L 141.367626 57.553912 
L 141.465032 59.734674 
L 141.52997 57.553912 
L 141.562438 59.734674 
L 141.659845 58.229401 
L 141.692313 59.050263 
L 141.757251 59.050263 
L 141.789719 57.553912 
L 141.822188 59.050263 
L 141.854657 59.875383 
L 141.887125 59.050263 
L 141.919594 56.739266 
L 142.017 57.553912 
L 142.179344 60.562701 
L 142.309219 58.229401 
L 142.374156 58.229401 
L 142.536499 56.071819 
L 142.666374 58.229401 
L 142.796249 55.92814 
L 142.828718 56.071819 
L 142.893655 55.92814 
L 142.991061 58.911117 
L 143.088467 56.071819 
L 143.120936 56.739266 
L 143.153405 56.071819 
L 143.185873 57.553912 
L 143.218342 57.553912 
L 143.250811 57.412529 
L 143.28328 56.739266 
L 143.315748 57.553912 
L 143.380686 58.229401 
L 143.413154 57.412529 
L 143.445623 57.412529 
L 143.640435 54.602198 
L 143.77031 56.739266 
L 143.932654 54.456163 
L 143.997591 55.92814 
L 144.03006 54.602198 
L 144.127466 55.998503 
L 144.257341 54.602198 
L 144.387215 56.739266 
L 144.419684 55.262462 
L 144.484622 56.599379 
L 144.51709 56.599379 
L 144.549559 55.92814 
L 144.582028 57.412529 
L 144.614496 57.412529 
L 144.711902 55.92814 
L 144.744371 57.412529 
L 144.77684 56.599379 
L 144.809309 54.456163 
L 144.841777 58.091759 
L 144.874246 56.599379 
L 144.939183 58.091759 
L 144.971652 57.276331 
L 145.036589 56.599379 
L 145.069058 57.276331 
L 145.101527 57.276331 
L 145.133996 55.120271 
L 145.198933 55.92814 
L 145.296339 57.276331 
L 145.426214 55.789689 
L 145.556089 57.276331 
L 145.621026 55.789689 
L 145.653495 56.464567 
L 145.685964 56.464567 
L 145.718432 56.599379 
L 145.750901 58.091759 
L 145.78337 56.599379 
L 145.815838 55.789689 
L 145.913244 58.091759 
L 146.010651 56.464567 
L 146.075588 58.648001 
L 146.108057 57.959151 
L 146.302869 55.789689 
L 146.367806 55.789689 
L 146.53015 57.14506 
L 146.562618 55.656207 
L 146.627556 57.14506 
L 146.724962 57.276331 
L 146.757431 56.464567 
L 146.789899 58.648001 
L 146.854837 56.599379 
L 146.984712 54.315401 
L 147.01718 55.998503 
L 147.082118 55.120271 
L 147.114586 54.456163 
L 147.147055 55.120271 
L 147.211992 54.315401 
L 147.27693 55.998503 
L 147.309399 55.998503 
L 147.341867 54.315401 
L 147.439273 54.456163 
L 147.471742 55.998503 
L 147.504211 54.315401 
L 147.536679 54.315401 
L 147.569148 55.120271 
L 147.634086 54.983199 
L 147.666554 54.315401 
L 147.699023 55.789689 
L 147.76396 55.789689 
L 147.828898 57.276331 
L 147.861367 56.464567 
L 147.926304 56.599379 
L 147.991241 55.120271 
L 148.121116 55.789689 
L 148.153585 55.789689 
L 148.218522 56.599379 
L 148.250991 55.789689 
L 148.28346 55.92814 
L 148.315928 57.276331 
L 148.348397 55.789689 
L 148.413334 55.120271 
L 148.445803 55.789689 
L 148.510741 55.789689 
L 148.543209 55.120271 
L 148.608147 55.92814 
L 148.673084 56.599379 
L 148.77049 55.120271 
L 148.835428 56.464567 
L 148.867896 54.983199 
L 148.900365 54.315401 
L 148.932834 55.789689 
L 148.965302 55.789689 
L 149.03024 57.276331 
L 149.062708 56.599379 
L 149.095177 55.789689 
L 149.127646 56.599379 
L 149.192583 58.091759 
L 149.225052 56.599379 
L 149.257521 56.599379 
L 149.322458 57.959151 
L 149.387395 57.276331 
L 149.452333 57.276331 
L 149.484802 55.789689 
L 149.549739 56.599379 
L 149.614676 56.599379 
L 149.744551 55.120271 
L 149.77702 58.091759 
L 149.841957 57.276331 
L 149.939363 54.456163 
L 149.971832 56.599379 
L 150.036769 55.789689 
L 150.101707 55.92814 
L 150.134176 54.456163 
L 150.26405 56.599379 
L 150.296519 55.120271 
L 150.361457 55.789689 
L 150.393925 57.276331 
L 150.458863 55.789689 
L 150.588737 57.276331 
L 150.718612 55.789689 
L 150.78355 56.599379 
L 150.816018 55.120271 
L 150.945893 55.789689 
L 150.978362 55.120271 
L 151.010831 56.464567 
L 151.043299 56.464567 
L 151.173174 57.276331 
L 151.205643 57.276331 
L 151.303049 58.091759 
L 151.335518 57.276331 
L 151.367986 58.091759 
L 151.400455 58.777116 
L 151.432924 57.276331 
L 151.465392 57.276331 
L 151.595267 55.120271 
L 151.725142 57.276331 
L 151.855017 57.276331 
L 151.984892 56.464567 
L 152.01736 56.599379 
L 152.049829 55.789689 
L 152.082298 55.92814 
L 152.212172 58.091759 
L 152.244641 57.959151 
L 152.27711 58.091759 
L 152.374516 57.959151 
L 152.406985 58.777116 
L 152.439453 58.777116 
L 152.53686 57.276331 
L 152.634266 59.599221 
L 152.666734 58.777116 
L 152.796609 57.276331 
L 152.861547 57.276331 
L 152.991421 58.091759 
L 153.02389 58.091759 
L 153.121296 59.468762 
L 153.153765 58.777116 
L 153.218702 58.777116 
L 153.348577 60.166869 
L 153.445983 56.599379 
L 153.478452 57.276331 
L 153.543389 57.276331 
L 153.673264 58.777116 
L 153.803139 57.276331 
L 153.835608 58.091759 
L 153.868076 56.464567 
L 153.900545 57.276331 
L 153.997951 57.276331 
L 154.03042 57.959151 
L 154.062888 57.276331 
L 154.095357 56.599379 
L 154.127826 57.276331 
L 154.290169 59.468762 
L 154.355107 57.959151 
L 154.387575 58.777116 
L 154.452513 60.293879 
L 154.51745 59.599221 
L 154.744731 58.777116 
L 154.7772 59.468762 
L 154.809669 57.276331 
L 154.874606 59.599221 
L 154.907075 59.468762 
L 154.972012 59.599221 
L 155.03695 58.777116 
L 155.101887 58.777116 
L 155.134356 57.959151 
L 155.231762 58.091759 
L 155.26423 58.091759 
L 155.426574 59.599221 
L 155.459043 59.599221 
L 155.52398 60.995264 
L 155.556449 59.599221 
L 155.588917 59.599221 
L 155.686324 58.777116 
L 155.718792 59.599221 
L 155.78373 58.777116 
L 155.881136 58.777116 
L 155.913604 58.091759 
L 155.946073 59.599221 
L 156.043479 60.293879 
L 156.140885 59.599221 
L 156.27076 60.293879 
L 156.303229 59.599221 
L 156.368166 60.293879 
L 156.400635 61.123625 
L 156.465572 60.293879 
L 156.498041 60.293879 
L 156.53051 61.123625 
L 156.595447 60.293879 
L 156.660385 59.599221 
L 156.692853 60.293879 
L 156.725322 60.293879 
L 156.757791 58.777116 
L 156.822728 59.599221 
L 156.985072 61.123625 
L 157.082478 58.911117 
L 157.114946 59.599221 
L 157.212353 60.425738 
L 157.342227 59.599221 
L 157.407165 59.599221 
L 157.53704 61.123625 
L 157.601977 60.293879 
L 157.634446 60.425738 
L 157.731852 60.293879 
L 157.76432 61.123625 
L 157.894195 59.599221 
L 157.926664 59.599221 
L 158.02407 61.82851 
L 158.056539 60.425738 
L 158.089007 60.425738 
L 158.121476 60.293879 
L 158.251351 59.599221 
L 158.28382 59.599221 
L 158.413694 60.293879 
L 158.543569 57.344039 
L 158.576038 58.127074 
L 158.640975 57.344039 
L 158.77085 57.344039 
L 158.933194 58.91432 
L 159.063068 58.127074 
L 159.192943 58.91432 
L 159.257881 58.91432 
L 159.51763 62.922521 
L 159.550099 62.922521 
L 159.679974 62.110424 
L 159.712443 62.922521 
L 159.77738 62.110424 
L 159.842317 62.110424 
L 159.972192 61.303819 
L 160.004661 61.303819 
L 160.134536 62.110424 
L 160.26441 61.303819 
L 160.361817 61.303819 
L 160.426754 60.502439 
L 160.459223 61.303819 
L 160.589097 61.303819 
L 160.654035 60.502439 
L 160.686504 61.303819 
L 160.816378 61.303819 
L 160.978722 59.706025 
L 161.141065 61.303819 
L 161.27094 60.502439 
L 161.368346 60.502439 
L 161.498221 59.706025 
L 161.595627 59.706025 
L 161.660565 60.502439 
L 161.693033 59.706025 
L 161.757971 59.706025 
L 161.887846 58.127074 
L 161.952783 58.91432 
L 161.985252 58.127074 
L 162.050189 58.127074 
L 162.180064 59.706025 
L 162.245001 58.127074 
L 162.27747 58.91432 
L 162.342407 58.91432 
L 162.472282 58.127074 
L 162.53722 58.127074 
L 162.634626 57.344039 
L 162.7645 58.91432 
L 162.829438 58.127074 
L 162.861907 58.91432 
L 162.894375 58.91432 
L 162.926844 57.344039 
L 162.991781 58.127074 
L 163.121656 58.91432 
L 163.219062 57.344039 
L 163.251531 58.127074 
L 163.381406 58.91432 
L 163.511281 57.256357 
L 163.641155 58.778129 
L 163.673624 58.778129 
L 163.738561 58.067889 
L 163.835968 60.316505 
L 163.868436 60.316505 
L 163.933374 58.778129 
L 163.965842 59.494365 
L 164.063249 59.494365 
L 164.128186 58.676539 
L 164.160655 59.395434 
L 164.193123 60.120459 
L 164.225592 59.395434 
L 164.258061 57.862761 
L 164.322998 59.395434 
L 164.452873 57.862761 
L 164.485342 57.963577 
L 164.615216 59.395434 
L 164.745091 57.256357 
L 164.842497 60.216791 
L 164.874966 58.676539 
L 164.907435 58.778129 
L 164.939903 58.676539 
L 164.972372 60.216791 
L 165.004841 57.152847 
L 165.03731 57.963577 
L 165.102247 55.055333 
L 165.167184 55.998503 
L 165.199653 55.998503 
L 165.26459 53.568 
L 165.297059 55.998503 
L 165.394465 55.998503 
L 165.459403 54.366312 
L 165.491871 55.998503 
L 165.52434 55.998503 
L 165.654215 53.568 
L 165.78409 55.998503 
L 166.173714 55.998503 
L 166.27112 53.568 
L 166.400995 55.998503 
L 166.693213 55.998503 
L 166.823088 53.68208 
L 166.888026 55.998503 
L 166.985432 55.167327 
L 167.0179 55.167327 
L 167.147775 54.481275 
L 167.27765 56.664654 
L 167.310119 55.167327 
L 167.375056 55.971297 
L 167.504931 57.363458 
L 167.569868 55.85841 
L 167.634806 56.664654 
L 167.667274 57.363458 
L 167.732212 56.664654 
L 167.76468 55.971297 
L 167.829618 56.664654 
L 167.862087 56.664654 
L 167.927024 58.175863 
L 167.959493 57.474321 
L 168.02443 57.474321 
L 168.186774 58.992168 
L 168.28418 57.474321 
L 168.316648 58.175863 
L 168.381586 57.474321 
L 168.414054 58.992168 
L 168.446523 57.474321 
L 168.511461 58.175863 
L 168.608867 58.175863 
L 168.673804 56.664654 
L 168.706273 57.474321 
L 168.836148 58.992168 
L 168.901085 58.992168 
L 169.03096 149.687721 
L 169.323178 149.687721 
L 169.388116 58.883283 
L 169.420584 59.596766 
L 169.550459 149.687721 
L 169.77774 149.687721 
L 169.810209 58.883283 
L 169.875146 60.419756 
L 170.005021 149.687721 
L 170.199833 149.687721 
L 170.329708 58.778129 
L 170.427114 60.316505 
L 170.556989 149.687721 
L 170.589457 149.687721 
L 170.621926 58.778129 
L 170.686864 149.687721 
L 171.2713 149.687721 
L 171.336238 58.778129 
L 171.368706 59.596766 
L 171.498581 149.687721 
L 171.758331 149.687721 
L 171.823268 58.067889 
L 171.888206 59.494365 
L 171.920674 59.596766 
L 172.050549 149.687721 
L 172.083018 59.596766 
L 172.147955 149.687721 
L 172.245361 149.687721 
L 172.342767 58.778129 
L 172.375236 59.494365 
L 172.407705 59.494365 
L 172.440173 58.778129 
L 172.505111 149.687721 
L 172.53758 59.494365 
L 172.570048 60.216791 
L 172.602517 59.494365 
L 172.667454 149.687721 
L 172.699923 59.494365 
L 172.76486 59.494365 
L 172.797329 149.687721 
L 172.862267 59.494365 
L 172.894735 59.494365 
L 172.927204 57.963577 
L 172.992141 59.494365 
L 173.02461 59.494365 
L 173.057079 60.216791 
L 173.186954 149.687721 
L 173.316828 149.687721 
L 173.381766 60.120459 
L 173.446703 60.851813 
L 173.576578 56.896352 
L 173.609047 57.708058 
L 173.706453 61.143228 
L 173.77139 61.042694 
L 173.803859 60.945606 
L 173.836328 61.247368 
L 173.901265 60.945606 
L 173.933734 59.706025 
L 173.998671 60.502439 
L 174.063609 60.502439 
L 174.128546 61.681014 
L 174.161015 60.502439 
L 174.193483 59.706025 
L 174.225952 60.851813 
L 174.258421 60.502439 
L 174.323358 62.188793 
L 174.388296 61.303819 
L 174.453233 61.303819 
L 174.485702 62.922521 
L 174.550639 62.110424 
L 174.583108 62.110424 
L 174.680514 63.17246 
L 174.810389 61.589703 
L 174.842857 61.681014 
L 174.875326 60.945606 
L 174.940263 61.589703 
L 175.005201 61.681014 
L 175.03767 62.334343 
L 175.102607 61.589703 
L 175.232482 60.120459 
L 175.26495 61.681014 
L 175.362357 61.589703 
L 175.394825 60.120459 
L 175.427294 61.681014 
L 175.459763 62.423227 
L 175.557169 62.334343 
L 175.589638 62.334343 
L 175.751981 60.761174 
L 175.849387 60.851813 
L 175.881856 61.589703 
L 175.914325 60.761174 
L 175.946793 61.501468 
L 176.011731 60.027362 
L 176.044199 60.761174 
L 176.206543 60.851813 
L 176.239012 60.120459 
L 176.303949 60.945606 
L 176.368886 61.042694 
L 176.53123 62.418937 
L 176.563699 62.301747 
L 176.596167 61.467154 
L 176.661105 61.583176 
L 176.758511 62.418937 
L 176.790979 62.301747 
L 176.823448 62.301747 
L 176.855917 61.583176 
L 176.920854 62.301747 
L 177.01826 63.141604 
L 177.148135 62.301747 
L 177.180604 62.418937 
L 177.245541 62.301747 
L 177.375416 60.752444 
L 177.505291 62.301747 
L 177.602697 149.687721 
L 177.635166 62.301747 
L 177.700103 149.687721 
L 218.480792 149.687721 
L 218.513261 67.193768 
L 218.610667 68.621558 
L 218.643136 68.727148 
L 218.77301 66.440419 
L 218.805479 67.193768 
L 218.837948 67.955931 
L 218.870416 67.193768 
L 218.902885 66.440419 
L 218.935354 67.193768 
L 219.000291 67.955931 
L 219.03276 67.309639 
L 219.065229 67.193768 
L 219.097697 67.955931 
L 219.130166 66.440419 
L 219.260041 66.440419 
L 219.29251 67.193768 
L 219.357447 66.440419 
L 219.422384 66.440419 
L 219.487322 65.695655 
L 219.519791 66.440419 
L 219.649665 66.440419 
L 219.77954 65.695655 
L 219.812009 66.440419 
L 219.876946 65.695655 
L 220.03929 65.695655 
L 220.104227 64.959252 
L 220.136696 65.695655 
L 220.331508 65.695655 
L 220.428914 64.959252 
L 220.461383 65.695655 
L 220.52632 64.959252 
L 220.591258 64.959252 
L 220.721132 65.695655 
L 220.851007 64.959252 
L 221.013351 64.959252 
L 221.078288 64.106685 
L 221.110757 64.959252 
L 221.143226 64.959252 
L 221.175694 64.230998 
L 221.240632 64.959252 
L 221.2731 64.959252 
L 221.402975 64.106685 
L 221.53285 64.230998 
L 221.565319 64.230998 
L 221.630256 64.106685 
L 221.662725 64.230998 
L 221.727662 64.230998 
L 221.760131 64.106685 
L 221.825068 64.230998 
L 221.857537 64.230998 
L 221.890006 63.38296 
L 221.954943 64.230998 
L 222.214693 64.230998 
L 222.27963 63.38296 
L 222.344568 63.510687 
L 222.506911 64.959252 
L 222.636786 64.230998 
L 222.734192 64.230998 
L 222.864067 63.38296 
L 223.156285 63.38296 
L 223.253691 63.510687 
L 223.480972 62.666889 
L 223.610847 63.38296 
L 223.643316 63.38296 
L 223.675784 64.230998 
L 223.740722 63.38296 
L 225.136876 63.38296 
L 225.169345 64.106685 
L 225.234282 63.38296 
L 225.266751 63.38296 
L 225.299219 64.106685 
L 225.364157 63.38296 
L 225.494032 63.38296 
L 225.5265 62.666889 
L 225.591438 63.38296 
L 225.948593 63.38296 
L 225.981062 64.106685 
L 226.046 63.38296 
L 226.338218 63.38296 
L 226.370687 64.106685 
L 226.403155 63.260011 
L 226.468093 62.540576 
L 226.500561 63.260011 
L 226.53303 63.260011 
L 226.565499 64.106685 
L 226.630436 63.38296 
L 226.695374 63.38296 
L 226.727842 63.260011 
L 226.760311 63.38296 
L 226.857717 64.106685 
L 226.955123 63.38296 
L 226.987592 64.106685 
L 227.052529 63.38296 
L 227.084998 63.38296 
L 227.182404 63.260011 
L 227.312279 64.106685 
L 227.442154 63.260011 
L 227.474622 63.38296 
L 227.53956 63.260011 
L 227.766841 63.260011 
L 227.864247 63.987012 
L 227.929184 63.260011 
L 227.961653 63.987012 
L 228.02659 63.987012 
L 228.156465 63.260011 
L 228.221403 63.260011 
L 228.253871 63.987012 
L 228.318809 63.260011 
L 228.351277 63.260011 
L 228.481152 63.987012 
L 228.513621 63.260011 
L 228.578558 63.987012 
L 228.740902 63.987012 
L 228.77337 63.260011 
L 228.838308 63.987012 
L 228.935714 63.987012 
L 228.968183 63.260011 
L 229.03312 63.987012 
L 229.195464 63.987012 
L 229.325338 63.260011 
L 229.455213 63.987012 
L 229.487682 63.987012 
L 229.520151 63.260011 
L 229.585088 63.987012 
L 229.650025 63.987012 
L 229.682494 63.871756 
L 229.747431 63.987012 
L 229.7799 63.987012 
L 229.812369 63.871756 
L 229.844838 63.987012 
L 229.909775 64.721784 
L 229.942244 63.871756 
L 230.007181 63.987012 
L 230.137056 64.721784 
L 230.266931 64.721784 
L 230.364337 63.987012 
L 230.396805 65.464538 
L 230.461743 63.987012 
L 230.494212 63.987012 
L 230.591618 64.721784 
L 230.721493 63.987012 
L 230.818899 64.721784 
L 230.883836 63.987012 
L 230.916305 64.721784 
L 230.981242 64.721784 
L 231.078648 63.987012 
L 231.176054 64.721784 
L 231.27346 63.987012 
L 231.338398 63.871756 
L 231.403335 64.721784 
L 231.500741 64.721784 
L 231.630616 63.987012 
L 231.760491 64.721784 
L 231.890366 63.871756 
L 231.922834 63.871756 
L 231.955303 63.141604 
L 232.020241 63.871756 
L 232.150115 63.987012 
L 232.182584 63.871756 
L 232.247521 63.987012 
L 232.312459 63.987012 
L 232.344928 63.141604 
L 232.409865 63.871756 
L 232.474802 63.987012 
L 232.507271 64.721784 
L 232.572208 63.987012 
L 232.702083 63.987012 
L 232.734552 64.721784 
L 232.799489 63.871756 
L 232.864427 63.871756 
L 232.896896 63.987012 
L 232.994302 63.871756 
L 233.02677 64.721784 
L 233.124176 64.721784 
L 233.156645 63.871756 
L 233.221583 64.721784 
L 233.383926 64.721784 
L 233.513801 63.987012 
L 233.578738 63.987012 
L 233.708613 64.721784 
L 233.870957 64.721784 
L 234.000831 63.987012 
L 234.0333 63.987012 
L 234.163175 64.721784 
L 234.228112 64.721784 
L 234.260581 63.987012 
L 234.325518 64.721784 
L 234.617737 64.721784 
L 234.682674 63.871756 
L 234.715143 64.721784 
L 234.845018 64.721784 
L 234.942424 63.871756 
L 234.974892 63.987012 
L 235.072299 64.721784 
L 235.104767 63.987012 
L 235.169705 64.721784 
L 235.202173 64.721784 
L 235.234642 63.987012 
L 235.299579 64.721784 
L 235.332048 64.721784 
L 235.429454 63.871756 
L 235.461923 63.987012 
L 235.559329 64.721784 
L 235.656735 63.141604 
L 235.689204 63.871756 
L 235.754141 63.871756 
L 235.78661 64.721784 
L 235.851547 63.871756 
L 235.948953 63.871756 
L 235.981422 64.721784 
L 236.04636 63.871756 
L 236.078828 63.141604 
L 236.111297 64.721784 
L 236.143766 63.871756 
L 236.27364 64.721784 
L 236.403515 63.871756 
L 236.500921 63.871756 
L 236.630796 63.987012 
L 236.663265 63.871756 
L 236.79314 64.721784 
L 236.825608 63.987012 
L 236.890546 64.721784 
L 236.987952 64.721784 
L 237.085358 63.871756 
L 237.117827 63.987012 
L 237.28017 63.987012 
L 237.312639 64.721784 
L 237.377576 63.871756 
L 237.53992 63.871756 
L 237.637326 64.721784 
L 237.734732 63.871756 
L 237.864607 64.721784 
L 237.962013 64.721784 
L 238.091888 63.871756 
L 238.189294 63.871756 
L 238.2867 64.721784 
L 238.384106 63.871756 
L 238.481512 64.721784 
L 238.513981 64.609598 
L 238.611387 64.721784 
L 238.643856 63.871756 
L 238.741262 64.721784 
L 238.838668 63.871756 
L 238.936074 64.721784 
L 239.065949 63.871756 
L 239.098417 64.609598 
L 239.163355 63.871756 
L 239.195824 63.871756 
L 239.325698 64.609598 
L 239.358167 64.609598 
L 239.488042 63.871756 
L 239.520511 63.871756 
L 239.650385 64.609598 
L 239.682854 64.721784 
L 239.715323 64.609598 
L 239.845198 63.871756 
L 239.910135 64.609598 
L 239.942604 63.871756 
L 240.007541 63.871756 
L 240.137416 64.609598 
L 240.299759 63.027522 
L 240.429634 64.609598 
L 240.559509 63.871756 
L 240.624446 63.871756 
L 240.656915 63.141604 
L 240.721853 63.871756 
L 240.916665 63.871756 
L 241.04654 63.027522 
L 241.208883 64.609598 
L 241.27382 64.609598 
L 241.403695 63.871756 
L 241.436164 63.871756 
L 241.468633 63.141604 
L 241.53357 63.871756 
L 241.988132 63.871756 
L 242.020601 64.609598 
L 242.085538 63.871756 
L 242.118007 63.871756 
L 242.182944 63.141604 
L 242.215413 63.871756 
L 242.28035 63.871756 
L 242.377756 63.141604 
L 242.410225 63.871756 
L 242.475162 63.141604 
L 242.5401 63.141604 
L 242.669975 63.871756 
L 242.832318 63.871756 
L 242.897256 63.141604 
L 242.929724 63.871756 
L 242.994662 63.871756 
L 243.02713 63.027522 
L 243.124536 63.141604 
L 243.157005 63.141604 
L 243.189474 63.027522 
L 243.319349 63.871756 
L 243.838848 63.871756 
L 243.871317 63.141604 
L 243.936254 63.871756 
L 244.03366 63.871756 
L 244.066129 63.027522 
L 244.131066 63.871756 
L 244.163535 63.871756 
L 244.196004 63.141604 
L 244.260941 63.871756 
L 244.423285 63.871756 
L 244.553159 64.609598 
L 244.618097 63.871756 
L 244.650565 64.609598 
L 245.170065 64.609598 
L 245.299939 65.355347 
L 245.397346 65.355347 
L 245.429814 64.609598 
L 245.494752 65.355347 
L 245.592158 65.355347 
L 245.624626 66.215494 
L 245.689564 65.355347 
L 246.144126 65.355347 
L 246.209063 66.109223 
L 246.241532 65.355347 
L 246.338938 65.355347 
L 246.468813 66.109223 
L 246.598688 66.109223 
L 246.631156 65.355347 
L 246.696094 66.109223 
L 247.053249 66.109223 
L 247.183124 66.974879 
L 247.312999 66.109223 
L 247.377936 66.109223 
L 247.507811 66.974879 
L 247.637686 66.109223 
L 247.767561 66.974879 
L 247.832498 66.109223 
L 247.864967 66.974879 
L 248.059779 66.974879 
L 248.189654 66.109223 
L 248.28706 66.974879 
L 248.319529 66.109223 
L 248.384466 66.871459 
L 248.449403 66.871459 
L 248.54681 66.109223 
L 248.676684 66.871459 
L 248.709153 66.871459 
L 248.741622 66.109223 
L 248.806559 66.871459 
L 249.001371 66.871459 
L 249.03384 66.109223 
L 249.098778 66.871459 
L 249.163715 66.871459 
L 249.29359 67.74293 
L 249.423465 66.871459 
L 249.455933 66.871459 
L 249.553339 67.74293 
L 249.650745 66.871459 
L 249.683214 88.374496 
L 249.748152 67.74293 
L 249.878026 67.74293 
L 249.910495 66.871459 
L 249.975432 67.642292 
L 250.007901 71.000442 
L 250.072839 67.642292 
L 250.105307 67.642292 
L 250.137776 69.306021 
L 250.202713 67.642292 
L 250.267651 67.642292 
L 250.300119 71.000442 
L 250.365057 67.642292 
L 250.429994 67.642292 
L 250.462463 71.000442 
L 250.5274 67.642292 
L 250.559869 67.642292 
L 250.657275 72.728124 
L 250.689744 71.000442 
L 250.722213 72.728124 
L 250.852087 68.519893 
L 250.949493 68.519893 
L 250.981962 73.559258 
L 251.014431 67.642292 
L 251.0469 68.519893 
L 251.209243 68.519893 
L 251.241712 67.642292 
L 251.339118 71.813127 
L 251.404055 67.642292 
L 251.436524 73.559258 
L 251.598868 68.421971 
L 251.501461 75.34277 
L 251.631336 68.519893 
L 251.663805 68.421971 
L 251.79368 71.813127 
L 251.858617 68.421971 
L 251.923555 68.519893 
L 251.956023 68.421971 
L 251.988492 68.519893 
L 252.053429 71.813127 
L 252.085898 70.101578 
L 252.118367 70.101578 
L 252.215773 68.421971 
L 252.345648 71.813127 
L 252.475522 68.421971 
L 252.507991 70.101578 
L 252.572929 68.421971 
L 252.605397 68.421971 
L 252.702803 70.101578 
L 252.832678 68.421971 
L 252.962553 68.421971 
L 253.02749 70.906838 
L 253.059959 67.642292 
L 253.189834 68.421971 
L 253.254771 68.421971 
L 253.384646 70.906838 
L 253.417115 68.421971 
L 253.514521 69.210752 
L 253.936614 69.210752 
L 254.001551 68.421971 
L 254.03402 69.210752 
L 254.261301 69.210752 
L 254.391176 70.0089 
L 254.521051 70.0089 
L 254.650925 64.778945 
L 254.715863 70.0089 
L 254.813269 68.784491 
L 254.975612 68.784491 
L 255.008081 69.650803 
L 255.073019 68.784491 
L 255.495112 68.784491 
L 255.624986 69.650803 
L 256.04708 69.650803 
L 256.176954 70.525286 
L 256.858797 70.525286 
L 256.988672 71.408276 
L 257.118547 71.408276 
L 257.183484 72.30012 
L 257.215953 71.408276 
L 257.28089 71.408276 
L 257.378296 70.525286 
L 257.508171 71.408276 
L 257.573109 70.525286 
L 257.605577 71.408276 
L 257.767921 71.408276 
L 257.832858 70.525286 
L 257.865327 71.408276 
L 257.897796 71.408276 
L 257.962733 70.525286 
L 257.995202 71.408276 
L 258.28742 71.408276 
L 258.384826 69.650803 
L 258.417295 70.525286 
L 258.449764 70.525286 
L 258.482232 69.650803 
L 258.54717 70.525286 
L 258.579638 70.525286 
L 258.677044 72.30012 
L 258.709513 71.408276 
L 258.741982 71.408276 
L 258.871857 70.525286 
L 258.936794 70.525286 
L 259.066669 69.650803 
L 259.196544 69.650803 
L 259.326418 70.525286 
L 259.488762 70.525286 
L 259.521231 69.650803 
L 259.586168 70.525286 
L 260.105667 70.525286 
L 260.170605 69.650803 
L 260.203073 70.525286 
L 260.332948 70.525286 
L 260.462823 71.408276 
L 260.495292 70.525286 
L 260.560229 71.408276 
L 260.690104 71.408276 
L 260.819979 70.525286 
L 260.852447 70.525286 
L 260.982322 71.408276 
L 261.209603 71.408276 
L 261.242072 70.525286 
L 261.307009 71.408276 
L 261.436884 72.30012 
L 261.566759 71.408276 
L 261.631696 71.408276 
L 261.664165 72.30012 
L 261.729102 71.408276 
L 261.761571 71.408276 
L 261.891446 72.30012 
L 261.956383 72.30012 
L 262.086258 73.201177 
L 262.410945 73.201177 
L 262.475882 72.30012 
L 262.508351 73.201177 
L 262.54082 73.201177 
L 262.670695 72.30012 
L 262.703163 73.201177 
L 262.768101 72.30012 
L 262.80057 71.408276 
L 262.865507 72.30012 
L 262.897976 72.30012 
L 263.02785 73.201177 
L 263.060319 72.30012 
L 263.125257 73.201177 
L 263.157725 73.201177 
L 263.2876 72.30012 
L 263.449944 72.30012 
L 263.54735 71.408276 
L 263.677224 72.30012 
L 263.742162 72.30012 
L 263.872037 73.201177 
L 264.229192 73.201177 
L 264.261661 72.30012 
L 264.326598 73.201177 
L 264.359067 73.201177 
L 264.456473 72.30012 
L 264.586348 73.201177 
L 264.651285 73.201177 
L 264.78116 74.111815 
L 265.04091 74.111815 
L 265.073379 73.201177 
L 265.138316 74.111815 
L 265.235722 74.111815 
L 265.333128 73.201177 
L 265.365597 74.111815 
L 265.430534 73.201177 
L 265.625347 73.201177 
L 265.657815 72.30012 
L 265.722753 73.201177 
L 265.755221 73.201177 
L 265.885096 74.111815 
L 265.950034 74.111815 
L 266.079908 72.30012 
L 266.209783 73.201177 
L 266.242252 73.201177 
L 266.372127 74.111815 
L 266.502001 74.111815 
L 266.53447 75.032414 
L 266.599408 74.111815 
L 266.729282 74.111815 
L 266.859157 73.201177 
L 267.053969 73.201177 
L 267.183844 74.111815 
L 267.216313 74.111815 
L 267.346188 73.201177 
L 267.508531 75.032414 
L 267.638406 74.111815 
L 267.768281 75.032414 
L 267.865687 75.032414 
L 267.995562 74.111815 
L 268.222843 74.111815 
L 268.352717 73.201177 
L 268.385186 73.201177 
L 268.482592 74.111815 
L 268.54753 73.201177 
L 268.579998 74.111815 
L 268.709873 74.111815 
L 268.807279 73.201177 
L 268.937154 74.111815 
L 269.002091 74.111815 
L 269.099498 75.032414 
L 269.229372 74.111815 
L 269.456653 74.111815 
L 269.489122 75.032414 
L 269.554059 74.111815 
L 269.586528 74.111815 
L 269.716403 75.032414 
L 269.78134 75.032414 
L 269.846278 74.111815 
L 269.878746 75.032414 
L 269.976153 75.032414 
L 270.073559 75.963367 
L 270.235902 74.111815 
L 270.365777 75.032414 
L 270.398246 75.032414 
L 270.495652 74.111815 
L 270.52812 75.032414 
L 270.593058 74.111815 
L 271.080088 74.111815 
L 271.177494 75.032414 
L 271.274901 74.111815 
L 271.307369 75.032414 
L 271.372307 74.111815 
L 271.404775 74.111815 
L 271.53465 73.201177 
L 271.664525 73.201177 
L 271.696994 72.30012 
L 271.761931 73.201177 
L 271.826869 73.201177 
L 271.924275 74.111815 
L 271.956743 73.201177 
L 272.021681 74.111815 
L 272.151556 74.111815 
L 272.28143 75.032414 
L 272.313899 74.111815 
L 272.378836 75.032414 
L 272.573649 75.032414 
L 272.606117 75.963367 
L 272.671055 75.032414 
L 272.703523 75.032414 
L 272.735992 74.111815 
L 272.80093 75.032414 
L 273.158085 75.032414 
L 273.190554 75.963367 
L 273.255491 75.032414 
L 273.645116 75.032414 
L 273.742522 75.963367 
L 273.872397 75.032414 
L 273.969803 75.032414 
L 274.099678 74.111815 
L 274.229552 75.032414 
L 274.29449 74.111815 
L 274.326959 75.032414 
L 274.489302 75.032414 
L 274.586708 74.111815 
L 274.619177 75.032414 
L 274.684114 74.111815 
L 274.716583 74.111815 
L 274.846458 75.032414 
L 275.495832 75.032414 
L 275.5283 75.963367 
L 275.593238 75.032414 
L 276.275081 75.032414 
L 276.307549 74.111815 
L 276.372487 75.032414 
L 276.53483 75.032414 
L 276.599768 75.963367 
L 276.632236 75.032414 
L 277.508891 75.032414 
L 277.54136 75.963367 
L 277.606297 75.032414 
L 277.703703 75.032414 
L 277.833578 75.963367 
L 278.255671 75.963367 
L 278.28814 75.032414 
L 278.320609 75.963367 
L 278.450484 76.905078 
L 278.580358 76.905078 
L 278.710233 77.857967 
L 278.840108 76.905078 
L 279.29467 76.905078 
L 279.327139 77.857967 
L 279.392076 76.905078 
L 279.521951 76.905078 
L 279.651826 77.857967 
L 279.716763 77.857967 
L 279.846638 78.822468 
L 279.911575 78.822468 
L 280.04145 77.857967 
L 280.171325 78.822468 
L 280.3012 78.822468 
L 280.333668 79.799029 
L 280.398606 78.822468 
L 280.52848 78.822468 
L 280.658355 77.857967 
L 280.690824 77.857967 
L 280.820699 78.822468 
L 280.885636 78.822468 
L 280.918105 79.799029 
L 280.983042 78.822468 
L 281.080448 77.857967 
L 281.112917 78.822468 
L 281.177855 77.857967 
L 281.242792 77.857967 
L 281.372667 78.822468 
L 281.53501 78.822468 
L 281.664885 79.799029 
L 281.762291 79.799029 
L 281.892166 78.822468 
L 281.989572 78.822468 
L 282.022041 79.799029 
L 282.086978 78.822468 
L 282.216853 77.857967 
L 282.346728 77.857967 
L 282.476603 78.822468 
L 282.574009 78.822468 
L 282.671415 77.857967 
L 282.80129 78.822468 
L 282.963633 78.822468 
L 283.093508 79.799029 
L 283.158445 78.822468 
L 283.190914 79.799029 
L 283.353258 79.799029 
L 283.385726 78.822468 
L 283.450664 79.799029 
L 283.613007 79.799029 
L 283.645476 80.788116 
L 283.710413 79.799029 
L 283.742882 79.799029 
L 283.905225 77.857967 
L 283.937694 77.857967 
L 284.0351 78.822468 
L 284.100038 77.857967 
L 284.132506 79.799029 
L 284.197444 78.822468 
L 284.262381 78.822468 
L 284.392256 77.857967 
L 284.522131 78.822468 
L 284.619537 78.822468 
L 284.684474 79.799029 
L 284.716943 78.822468 
L 284.78188 78.822468 
L 284.911755 77.857967 
L 285.139036 77.857967 
L 285.268911 78.822468 
L 285.398786 77.857967 
L 285.528661 78.822468 
L 285.561129 76.905078 
L 285.626067 77.857967 
L 285.755941 78.822468 
L 285.885816 76.905078 
L 286.015691 77.857967 
L 286.113097 77.857967 
L 286.145566 76.905078 
L 286.210503 77.857967 
L 286.502722 77.857967 
L 286.53519 76.905078 
L 286.600128 77.857967 
L 286.924815 77.857967 
L 286.989752 78.822468 
L 287.022221 77.857967 
L 287.087158 77.857967 
L 287.119627 78.822468 
L 287.184564 77.857967 
L 287.346908 77.857967 
L 287.411845 78.822468 
L 287.444314 77.857967 
L 287.671595 77.857967 
L 287.80147 78.822468 
L 287.833938 78.822468 
L 287.866407 79.799029 
L 287.931344 78.822468 
L 288.418375 78.822468 
L 288.54825 79.799029 
L 288.710593 79.799029 
L 288.840468 78.822468 
L 288.937874 78.822468 
L 288.970343 79.799029 
L 289.03528 78.822468 
L 289.067749 78.822468 
L 289.132686 79.799029 
L 289.165155 78.822468 
L 289.197624 78.822468 
L 289.327499 79.799029 
L 289.457373 78.822468 
L 289.587248 79.799029 
L 289.78206 79.799029 
L 289.879466 78.822468 
L 289.911935 79.799029 
L 289.976873 78.822468 
L 290.04181 78.822468 
L 290.074279 79.799029 
L 290.139216 78.822468 
L 290.463903 78.822468 
L 290.593778 77.857967 
L 290.658715 78.822468 
L 290.691184 77.857967 
L 290.821059 77.857967 
L 290.853528 78.822468 
L 290.918465 77.857967 
L 291.243152 77.857967 
L 291.373027 76.905078 
L 291.405495 76.905078 
L 291.53537 77.857967 
L 291.762651 77.857967 
L 291.860057 78.822468 
L 291.989932 77.857967 
L 292.5419 77.857967 
L 292.574369 76.905078 
L 292.639306 77.857967 
L 293.093868 77.857967 
L 293.191274 76.905078 
L 293.28868 77.857967 
L 293.386086 76.905078 
L 293.515961 77.857967 
L 293.775711 77.857967 
L 293.808179 78.822468 
L 293.873117 77.857967 
L 294.262741 77.857967 
L 294.392616 78.822468 
L 294.490022 78.822468 
L 294.619897 77.857967 
L 294.78224 77.857967 
L 294.912115 78.822468 
L 295.204334 78.822468 
L 295.30174 79.799029 
L 295.431614 78.822468 
L 295.78877 78.822468 
L 295.918645 77.857967 
L 295.983582 77.857967 
L 296.080988 78.822468 
L 296.210863 77.857967 
L 296.308269 77.857967 
L 296.438144 78.822468 
L 296.503082 78.822468 
L 296.600488 77.857967 
L 296.730362 78.822468 
L 296.827769 78.822468 
L 296.860237 77.857967 
L 296.925175 78.822468 
L 296.957643 78.822468 
L 297.087518 77.857967 
L 297.347268 77.857967 
L 297.379737 76.905078 
L 297.444674 77.857967 
L 297.639486 77.857967 
L 297.736892 78.822468 
L 297.866767 77.857967 
L 297.931704 77.857967 
L 297.964173 78.822468 
L 298.029111 77.857967 
L 298.938234 77.857967 
L 298.970703 78.822468 
L 299.03564 77.857967 
L 299.425265 77.857967 
L 299.55514 76.905078 
L 299.685014 76.905078 
L 299.717483 77.857967 
L 299.78242 76.905078 
L 299.977233 76.905078 
L 300.107107 77.857967 
L 301.243512 77.857967 
L 301.373387 76.905078 
L 301.405855 77.857967 
L 301.470793 76.905078 
L 302.120167 76.905078 
L 302.217573 77.857967 
L 302.347448 76.905078 
L 302.444854 76.905078 
L 302.574729 77.857967 
L 302.866947 77.857967 
L 302.996822 76.905078 
L 303.126697 77.857967 
L 303.159165 77.857967 
L 303.256571 76.905078 
L 303.28904 77.857967 
L 303.353978 76.905078 
L 303.613727 76.905078 
L 303.743602 77.857967 
L 303.873477 76.905078 
L 304.133226 76.905078 
L 304.198164 77.857967 
L 304.230633 76.905078 
L 304.685194 76.905078 
L 304.815069 77.857967 
L 304.847538 77.857967 
L 304.977413 76.905078 
L 305.107287 77.857967 
L 305.139756 77.857967 
L 305.237162 76.905078 
L 305.367037 77.857967 
L 305.399506 77.857967 
L 305.529381 76.905078 
L 305.951474 76.905078 
L 305.983942 77.857967 
L 306.04888 76.905078 
L 306.990472 76.905078 
L 307.022941 77.857967 
L 307.087878 76.905078 
L 307.477503 76.905078 
L 307.607377 75.963367 
L 307.672315 75.963367 
L 307.704784 76.905078 
L 307.769721 75.963367 
L 307.964533 75.963367 
L 308.061939 76.905078 
L 308.191814 75.963367 
L 308.808719 75.963367 
L 308.841188 76.905078 
L 308.906126 75.963367 
L 308.938594 75.963367 
L 308.971063 76.905078 
L 309.036 75.963367 
L 309.100938 75.963367 
L 309.133406 76.905078 
L 309.198344 75.963367 
L 309.685374 75.963367 
L 309.717843 75.032414 
L 309.78278 75.963367 
L 309.912655 75.963367 
L 310.010061 75.032414 
L 310.139936 75.963367 
L 310.269811 75.032414 
L 310.724373 75.032414 
L 310.756842 75.963367 
L 310.821779 75.032414 
L 311.211403 75.032414 
L 311.341278 74.111815 
L 311.406216 74.111815 
L 311.438684 75.032414 
L 311.503622 74.111815 
L 311.53609 74.111815 
L 311.601028 75.032414 
L 311.633496 74.111815 
L 312.217933 74.111815 
L 312.250402 73.201177 
L 312.315339 74.111815 
L 312.672495 74.111815 
L 312.80237 73.201177 
L 312.867307 73.201177 
L 312.997182 74.111815 
L 313.062119 74.111815 
L 313.191994 73.201177 
L 313.256932 73.201177 
L 313.321869 74.111815 
L 313.354338 73.201177 
L 314.653086 73.201177 
L 314.78296 72.30012 
L 314.815429 72.30012 
L 314.847898 73.201177 
L 314.912835 72.30012 
L 314.977773 72.30012 
L 315.075179 73.201177 
L 315.205054 72.30012 
L 315.886896 72.30012 
L 316.016771 71.408276 
L 316.04924 72.30012 
L 316.114177 71.408276 
L 316.211583 71.408276 
L 316.341458 72.30012 
L 316.503802 72.30012 
L 316.53627 71.408276 
L 316.601208 72.30012 
L 316.666145 72.30012 
L 316.79602 71.408276 
L 317.05577 71.408276 
L 317.185644 72.30012 
L 317.315519 72.30012 
L 317.380457 71.408276 
L 317.412925 72.30012 
L 317.510331 72.30012 
L 317.607738 71.408276 
L 317.640206 72.30012 
L 317.705144 71.408276 
L 317.737612 71.408276 
L 317.835018 72.30012 
L 317.964893 71.408276 
L 319.068829 71.408276 
L 319.166235 72.30012 
L 319.29611 71.408276 
L 322.867667 71.408276 
L 322.900136 70.525286 
L 322.965073 71.408276 
L 323.484572 71.408276 
L 323.517041 70.525286 
L 323.581979 71.408276 
L 323.614447 71.408276 
L 323.646916 70.525286 
L 323.711853 71.408276 
L 323.776791 71.408276 
L 323.906666 70.525286 
L 324.03654 71.408276 
L 324.263821 71.408276 
L 324.29629 70.525286 
L 324.361227 71.408276 
L 324.783321 71.408276 
L 324.913195 70.525286 
L 325.04307 71.408276 
L 325.335288 71.408276 
L 325.367757 70.525286 
L 325.432695 71.408276 
L 325.562569 71.408276 
L 325.659975 70.525286 
L 325.78985 71.408276 
L 325.952194 71.408276 
L 326.082069 70.525286 
L 326.211943 71.408276 
L 326.569099 71.408276 
L 326.601568 70.525286 
L 326.666505 71.408276 
L 326.698974 71.408276 
L 326.828849 70.525286 
L 326.958724 71.408276 
L 327.80291 71.408276 
L 327.835378 70.525286 
L 327.900316 71.408276 
L 328.160065 71.408276 
L 328.192534 70.525286 
L 328.257472 71.408276 
L 328.906846 71.408276 
L 328.939314 70.525286 
L 329.004252 71.408276 
L 329.29647 71.408276 
L 329.328939 70.525286 
L 329.393876 71.408276 
L 331.634217 71.408276 
L 331.666685 70.525286 
L 331.731623 71.408276 
L 331.991372 71.408276 
L 332.023841 72.30012 
L 332.088778 71.408276 
L 333.484932 71.408276 
L 333.614807 72.30012 
L 333.777151 72.30012 
L 333.874557 71.408276 
L 334.004432 72.30012 
L 334.231713 72.30012 
L 334.361587 73.201177 
L 334.881087 73.201177 
L 335.010961 74.111815 
L 335.04343 74.111815 
L 335.173305 75.032414 
L 335.205774 75.032414 
L 335.335648 75.963367 
L 335.400586 75.963367 
L 335.530461 75.032414 
L 335.692804 75.032414 
L 335.725273 75.963367 
L 335.79021 75.032414 
L 336.04996 75.032414 
L 336.082429 74.111815 
L 336.147366 75.032414 
L 336.666865 75.032414 
L 336.79674 73.201177 
L 336.926615 75.963367 
L 337.05649 75.032414 
L 337.121427 75.032414 
L 337.153896 75.963367 
L 337.218833 75.032414 
L 337.251302 75.032414 
L 337.348708 73.070137 
L 337.381177 75.963367 
L 337.446114 73.144184 
L 337.478583 72.224981 
L 337.575989 75.963367 
L 337.673395 71.390221 
L 337.705864 72.301181 
L 337.738332 73.144184 
L 337.770801 71.390221 
L 337.835738 66.871459 
L 337.900676 67.642292 
L 337.965613 67.642292 
L 338.095488 66.109223 
L 338.127957 67.74293 
L 338.192894 67.642292 
L 338.322769 66.871459 
L 338.420175 66.871459 
L 338.55005 66.006825 
L 338.614987 66.871459 
L 338.647456 66.109223 
L 338.679925 66.109223 
L 338.8098 66.871459 
L 338.874737 66.871459 
L 338.907206 67.642292 
L 338.972143 66.871459 
L 339.134487 66.871459 
L 339.166955 66.006825 
L 339.231893 66.871459 
L 339.394236 68.519893 
L 339.55658 68.519893 
L 339.589048 67.642292 
L 339.653986 68.519893 
L 339.686454 68.519893 
L 339.816329 69.306021 
L 339.881267 69.306021 
L 339.913735 70.101578 
L 339.978673 69.306021 
L 340.108548 69.306021 
L 340.238422 70.101578 
L 340.270891 70.101578 
L 340.433235 71.813127 
L 340.563109 69.306021 
L 340.660516 71.000442 
L 340.692984 70.101578 
L 340.79039 69.306021 
L 340.887796 70.101578 
L 340.985203 69.306021 
L 341.115077 71.813127 
L 341.244952 70.101578 
L 341.342358 71.000442 
L 341.439764 70.101578 
L 341.472233 70.197806 
L 341.667045 70.197806 
L 341.79692 71.000442 
L 341.829389 70.197806 
L 341.894326 71.000442 
L 341.926795 71.000442 
L 341.959264 70.197806 
L 342.024201 71.000442 
L 342.089138 71.000442 
L 342.219013 72.728124 
L 342.251482 72.728124 
L 342.283951 71.000442 
L 342.348888 72.728124 
L 342.673575 72.728124 
L 342.706044 71.000442 
L 342.770981 72.728124 
L 343.128137 72.728124 
L 343.193074 71.907695 
L 343.225543 72.728124 
L 343.972323 72.728124 
L 344.069729 71.907695 
L 344.199604 72.728124 
L 345.141196 72.728124 
L 345.271071 71.000442 
L 345.563289 71.000442 
L 345.595758 71.813127 
L 345.725633 69.306021 
L 345.855508 71.813127 
L 345.887976 71.813127 
L 346.05032 69.306021 
L 346.180195 71.000442 
L 346.277601 71.000442 
L 346.342538 68.421971 
L 346.375007 71.813127 
L 346.439944 70.101578 
L 346.602288 70.101578 
L 346.667225 69.306021 
L 346.7971 71.000442 
L 346.926975 69.306021 
L 346.959444 71.000442 
L 347.024381 69.306021 
L 347.05685 69.306021 
L 347.121787 70.101578 
L 347.186724 66.006825 
L 347.316599 70.101578 
L 347.608818 70.101578 
L 347.706224 68.421971 
L 347.836099 70.101578 
L 347.868567 66.006825 
L 347.933505 70.101578 
L 347.998442 70.101578 
L 348.063379 69.306021 
L 348.095848 70.101578 
L 348.128317 70.101578 
L 348.160786 66.006825 
L 348.225723 70.101578 
L 348.355598 68.421971 
L 348.420535 70.101578 
L 348.453004 66.006825 
L 348.517941 69.306021 
L 348.55041 69.306021 
L 348.615347 70.101578 
L 348.647816 69.306021 
L 348.712753 69.306021 
L 348.745222 67.642292 
L 348.81016 68.421971 
L 348.907566 68.421971 
L 348.940034 66.771808 
L 349.004972 68.421971 
L 349.102378 68.421971 
L 349.134847 66.006825 
L 349.167315 69.306021 
L 349.199784 69.306021 
L 349.264721 69.306021 
L 349.29719 71.000442 
L 349.362127 69.306021 
L 349.427065 69.306021 
L 349.459534 71.000442 
L 349.524471 69.306021 
L 349.654346 69.306021 
L 349.686814 71.000442 
L 349.751752 69.306021 
L 349.816689 69.306021 
L 350.011502 58.91432 
L 350.141376 59.761598 
L 350.173845 59.706025 
L 350.238782 58.91432 
L 350.271251 59.706025 
L 350.433595 59.706025 
L 350.563469 58.91432 
L 350.595938 59.706025 
L 350.660876 58.91432 
L 350.725813 58.91432 
L 350.758282 59.706025 
L 350.823219 58.91432 
L 351.472593 58.91432 
L 351.53753 59.706025 
L 351.569999 58.91432 
L 351.602468 58.91432 
L 351.732343 59.706025 
L 352.089498 59.706025 
L 352.219373 58.91432 
L 352.414185 58.91432 
L 352.446654 59.706025 
L 352.511592 58.91432 
L 352.706404 58.91432 
L 352.836279 58.127074 
L 353.063559 58.127074 
L 353.128497 57.344039 
L 353.160966 58.127074 
L 353.55059 58.127074 
L 353.647996 58.91432 
L 353.680465 58.127074 
L 353.745402 58.91432 
L 354.135027 58.91432 
L 354.264901 58.127074 
L 354.394776 58.127074 
L 354.524651 58.91432 
L 355.011682 58.91432 
L 355.141556 58.127074 
L 355.174025 58.127074 
L 355.3039 58.91432 
L 355.336369 58.127074 
L 355.401306 58.91432 
L 355.661056 58.91432 
L 355.693524 59.706025 
L 355.758462 58.91432 
L 356.180555 58.91432 
L 356.213023 59.706025 
L 356.277961 58.91432 
L 356.31043 58.91432 
L 356.342898 59.706025 
L 356.407836 58.91432 
L 356.635117 58.91432 
L 356.700054 59.706025 
L 356.732523 58.91432 
L 356.862398 58.91432 
L 356.992272 58.127074 
L 357.024741 58.127074 
L 357.122147 57.344039 
L 357.154616 58.127074 
L 357.219553 57.344039 
L 357.252022 57.344039 
L 357.381897 58.127074 
L 357.771521 58.127074 
L 357.901396 58.91432 
L 358.031271 58.127074 
L 358.063739 58.127074 
L 358.193614 58.91432 
L 358.355958 58.91432 
L 358.485833 58.367004 
L 358.518301 58.304181 
L 358.583239 58.367004 
L 358.615707 58.367004 
L 358.648176 58.127074 
L 358.680645 58.367004 
L 358.778051 58.91432 
L 358.907926 58.367004 
L 358.940394 58.367004 
L 358.972863 59.706025 
L 359.037801 58.91432 
L 359.135207 58.91432 
L 359.200144 59.706025 
L 359.232613 58.91432 
L 359.362488 58.91432 
L 359.524831 59.706025 
L 359.5573 58.91432 
L 359.622237 59.706025 
L 359.784581 59.706025 
L 359.817049 60.502439 
L 359.849518 59.706025 
L 359.914455 58.91432 
L 359.979393 59.182717 
L 360.076799 58.91432 
L 360.206674 59.706025 
L 360.30408 59.706025 
L 360.336549 60.502439 
L 360.369017 59.706025 
L 360.498892 59.182717 
L 360.531361 59.182717 
L 360.628767 60.502439 
L 360.758642 59.706025 
L 360.856048 59.706025 
L 360.888516 59.247735 
L 360.920985 59.706025 
L 360.953454 60.502439 
L 361.018391 59.706025 
L 361.05086 59.706025 
L 361.083329 60.502439 
L 361.148266 59.706025 
L 361.31061 59.706025 
L 361.440484 60.502439 
L 361.472953 60.502439 
L 361.602828 59.706025 
L 361.732703 60.502439 
L 361.830109 60.502439 
L 361.959984 59.706025 
L 362.05739 59.706025 
L 362.089858 59.247735 
L 362.122327 59.706025 
L 362.252202 60.502439 
L 362.674295 60.502439 
L 362.80417 62.110424 
L 362.934045 61.303819 
L 362.966513 61.303819 
L 362.998982 62.110424 
L 363.031451 61.303819 
L 363.063919 60.502439 
L 363.128857 61.303819 
L 363.258732 61.303819 
L 363.388606 60.502439 
L 363.55095 62.110424 
L 363.615887 62.110424 
L 363.745762 61.303819 
L 363.778231 61.303819 
L 363.908106 62.110424 
L 364.037981 61.303819 
L 364.232793 61.303819 
L 364.362668 62.110424 
L 364.525011 60.502439 
L 364.654886 61.303819 
L 364.687355 61.303819 
L 364.817229 62.110424 
L 364.882167 62.110424 
L 365.012042 61.303819 
L 365.30426 61.303819 
L 365.369197 62.110424 
L 365.401666 61.303819 
L 365.693884 61.303819 
L 365.726353 60.502439 
L 365.79129 60.826971 
L 365.921165 61.303819 
L 365.953634 61.303819 
L 366.05104 60.826971 
L 366.083509 60.851813 
L 366.213384 60.851813 
L 366.278321 60.851813 
L 366.408196 60.120459 
L 366.440664 60.120459 
L 366.473133 61.589703 
L 366.538071 60.851813 
L 367.025101 60.851813 
L 367.05757 62.423227 
L 367.122507 60.851813 
L 367.252382 60.851813 
L 367.284851 62.423227 
L 367.349788 60.851813 
L 367.382257 60.851813 
L 367.479663 62.423227 
L 367.512132 60.851813 
L 367.577069 62.423227 
L 367.739412 62.423227 
L 367.869287 60.851813 
L 368.713474 60.892456 
L 368.843348 61.656056 
L 368.908286 60.892456 
L 368.940754 61.721809 
L 368.973223 61.721809 
L 369.005692 60.892456 
L 369.070629 61.656056 
L 369.200504 61.656056 
L 369.330379 62.110424 
L 369.362848 62.110424 
L 369.395316 61.656056 
L 369.460254 62.110424 
L 369.525191 62.110424 
L 369.55766 61.656056 
L 369.622597 62.110424 
L 369.655066 62.110424 
L 369.687535 61.656056 
L 369.784941 61.721809 
L 369.817409 61.721809 
L 369.882347 61.656056 
L 369.914815 62.110424 
L 369.947284 61.721809 
L 370.012222 62.110424 
L 370.271971 62.110424 
L 370.369377 61.721809 
L 370.466783 62.110424 
L 370.499252 61.656056 
L 370.56419 62.110424 
L 370.79147 62.110424 
L 370.856408 61.721809 
L 370.888877 62.110424 
L 370.953814 62.110424 
L 370.986283 62.922521 
L 371.05122 62.110424 
L 371.116157 62.110424 
L 371.181095 61.656056 
L 371.246032 61.721809 
L 371.343438 62.110424 
L 371.375907 61.656056 
L 371.473313 61.721809 
L 371.505782 61.656056 
L 371.570719 61.721809 
L 371.603188 61.721809 
L 371.733063 62.110424 
L 372.285031 62.110424 
L 372.382437 61.721809 
L 372.512312 62.110424 
L 373.06428 62.110424 
L 373.096748 62.922521 
L 373.161686 62.110424 
L 373.259092 62.110424 
L 373.388967 62.922521 
L 373.486373 62.922521 
L 373.616247 63.74038 
L 373.713654 63.74038 
L 373.843528 62.922521 
L 373.875997 62.922521 
L 373.908466 63.74038 
L 373.973403 62.922521 
L 374.038341 62.922521 
L 374.070809 62.110424 
L 374.135747 62.922521 
L 374.265621 62.922521 
L 374.363028 63.74038 
L 374.460434 62.922521 
L 374.622777 64.564279 
L 374.655246 64.564279 
L 374.752652 63.74038 
L 374.817589 64.564279 
L 374.850058 63.74038 
L 374.914995 63.74038 
L 374.979933 64.564279 
L 375.012402 63.74038 
L 375.109808 63.74038 
L 375.239683 64.564279 
L 375.272151 64.564279 
L 375.402026 63.74038 
L 375.56437 65.394499 
L 375.629307 65.394499 
L 375.726713 64.564279 
L 375.759182 65.394499 
L 375.824119 64.564279 
L 375.986463 64.564279 
L 376.148806 66.231331 
L 376.213744 65.394499 
L 376.246212 66.231331 
L 376.441024 66.231331 
L 376.570899 65.394499 
L 376.635837 65.394499 
L 376.733243 67.07507 
L 376.765711 65.394499 
L 376.830649 66.231331 
L 376.863118 66.231331 
L 376.895586 67.07507 
L 376.960524 66.231331 
L 376.992992 66.231331 
L 377.025461 65.394499 
L 377.05793 67.07507 
L 377.382617 67.07507 
L 377.512492 69.650803 
L 377.54496 68.784491 
L 377.674835 67.92602 
L 377.739773 67.92602 
L 377.837179 67.07507 
L 377.902116 67.92602 
L 377.934585 67.07507 
L 378.031991 67.07507 
L 378.226803 70.525286 
L 378.356678 69.650803 
L 378.389147 69.650803 
L 378.421615 68.784491 
L 378.454084 70.525286 
L 378.486553 69.650803 
L 378.616427 71.408276 
L 378.681365 70.525286 
L 378.713834 71.408276 
L 378.746302 71.408276 
L 378.778771 70.525286 
L 378.81124 72.30012 
L 378.843708 72.30012 
L 378.876177 71.408276 
L 378.941114 72.30012 
L 378.973583 72.30012 
L 379.070989 69.650803 
L 379.103458 70.525286 
L 379.265801 72.30012 
L 379.330739 72.30012 
L 379.395676 70.525286 
L 379.428145 71.408276 
L 379.460614 71.408276 
L 379.493082 70.525286 
L 379.525551 72.30012 
L 379.55802 72.30012 
L 379.655426 70.525286 
L 379.817769 74.111815 
L 379.947644 70.525286 
L 379.980113 70.525286 
L 380.077519 69.650803 
L 380.207394 72.30012 
L 380.272331 70.525286 
L 380.3048 71.408276 
L 380.369737 74.111815 
L 380.402206 73.201177 
L 380.434675 72.30012 
L 380.467143 75.032414 
L 380.532081 74.111815 
L 380.597018 72.30012 
L 380.661956 73.201177 
L 380.79183 74.111815 
L 380.824299 74.111815 
L 380.856768 75.032414 
L 380.889237 72.30012 
L 380.954174 75.032414 
L 381.084049 73.201177 
L 381.213924 74.111815 
L 381.343798 72.30012 
L 381.408736 75.032414 
L 381.506142 74.111815 
L 381.538611 73.201177 
L 381.571079 74.111815 
L 381.668485 75.963367 
L 381.700954 75.032414 
L 381.765891 75.032414 
L 381.79836 74.111815 
L 381.863298 75.032414 
L 382.025641 76.905078 
L 382.090579 76.905078 
L 382.155516 75.032414 
L 382.220453 75.963367 
L 382.382797 77.857967 
L 382.415266 76.905078 
L 382.480203 77.857967 
L 382.54514 77.857967 
L 382.610078 76.905078 
L 382.642546 77.857967 
L 383.584139 77.857967 
L 383.714014 78.822468 
L 384.265982 78.822468 
L 384.395856 77.857967 
L 384.525731 78.822468 
L 384.753012 78.822468 
L 384.785481 77.857967 
L 384.850418 78.822468 
L 385.110168 78.822468 
L 385.142636 77.857967 
L 385.207574 78.822468 
L 385.402386 78.822468 
L 385.467323 77.857967 
L 385.499792 78.822468 
L 385.56473 78.822468 
L 385.662136 77.857967 
L 385.79201 78.822468 
L 385.921885 77.857967 
L 385.986823 77.857967 
L 386.116697 78.822468 
L 387.05829 78.822468 
L 387.090759 79.799029 
L 387.155696 78.822468 
L 388.8116 78.822468 
L 388.973943 75.032414 
L 389.006412 75.032414 
L 389.038881 73.201177 
L 389.071349 75.963367 
L 389.201224 62.045015 
L 389.233693 62.045015 
L 389.363568 62.565779 
L 389.396036 62.565779 
L 389.428505 63.407157 
L 389.460974 62.565779 
L 389.493442 68.784491 
L 389.525911 62.045015 
L 389.55838 62.565779 
L 389.623317 62.045015 
L 389.688255 68.784491 
L 389.720723 62.565779 
L 389.785661 62.045015 
L 389.818129 62.565779 
L 389.948004 73.201177 
L 390.04541 62.045015 
L 390.077879 70.525286 
L 390.110348 70.525286 
L 390.142816 62.045015 
L 390.175285 73.201177 
L 390.207754 68.784491 
L 390.240223 68.784491 
L 390.370097 62.045015 
L 390.467503 73.201177 
L 390.499972 63.375253 
L 390.532441 74.111815 
L 390.56491 73.201177 
L 390.597378 73.201177 
L 390.629847 71.408276 
L 390.694784 73.201177 
L 390.727253 73.201177 
L 390.857128 62.565779 
L 390.987003 77.857967 
L 391.149346 79.799029 
L 391.214284 79.799029 
L 391.246752 78.822468 
L 391.31169 79.799029 
L 391.506502 79.799029 
L 391.636377 78.822468 
L 391.928595 78.822468 
L 392.026001 79.799029 
L 392.155876 78.822468 
L 392.967593 78.822468 
L 393.097468 79.799029 
L 393.519561 79.799029 
L 393.649436 78.822468 
L 393.779311 79.799029 
L 393.81178 79.799029 
L 393.941655 78.822468 
L 394.331279 78.822468 
L 394.461154 79.799029 
L 394.688435 79.799029 
L 394.818309 78.822468 
L 394.915716 78.822468 
L 395.013122 79.799029 
L 395.110528 78.822468 
L 395.240403 79.799029 
L 395.272871 78.822468 
L 395.337809 79.799029 
L 395.402746 79.799029 
L 395.532621 78.822468 
L 396.571619 78.822468 
L 396.604088 77.857967 
L 396.669025 78.822468 
L 396.701494 78.822468 
L 396.733963 77.857967 
L 396.7989 78.822468 
L 398.487273 78.822468 
L 398.487273 78.822468 
" clip-path="url(#p74b7a51a9b)" style="fill: none; stroke: #1f77b4; stroke-width: 1.5; stroke-linecap: square"/>
   </g>
   <g id="patch_3">
    <path d="M 57.6 307.584 
L 57.6 41.472 
" style="fill: none; stroke: #000000; stroke-width: 0.8; stroke-linejoin: miter; stroke-linecap: square"/>
   </g>
   <g id="patch_4">
    <path d="M 414.72 307.584 
L 414.72 41.472 
" style="fill: none; stroke: #000000; stroke-width: 0.8; stroke-linejoin: miter; stroke-linecap: square"/>
   </g>
   <g id="patch_5">
    <path d="M 57.6 307.584 
L 414.72 307.584 
" style="fill: none; stroke: #000000; stroke-width: 0.8; stroke-linejoin: miter; stroke-linecap: square"/>
   </g>
   <g id="patch_6">
    <path d="M 57.6 41.472 
L 414.72 41.472 
" style="fill: none; stroke: #000000; stroke-width: 0.8; stroke-linejoin: miter; stroke-linecap: square"/>
   </g>
  </g>
 </g>
 <defs>
  <clipPath id="p74b7a51a9b">
   <rect x="57.6" y="41.472" width="357.12" height="266.112"/>
  </clipPath>
 </defs>
</svg>
