<?xml version="1.0" encoding="utf-8" standalone="no"?>
<!DOCTYPE svg PUBLIC "-//W3C//DTD SVG 1.1//EN"
  "http://www.w3.org/Graphics/SVG/1.1/DTD/svg11.dtd">
<svg xmlns:xlink="http://www.w3.org/1999/xlink" width="460.8pt" height="345.6pt" viewBox="0 0 460.8 345.6" xmlns="http://www.w3.org/2000/svg" version="1.1">
 <metadata>
  <rdf:RDF xmlns:dc="http://purl.org/dc/elements/1.1/" xmlns:cc="http://creativecommons.org/ns#" xmlns:rdf="http://www.w3.org/1999/02/22-rdf-syntax-ns#">
   <cc:Work>
    <dc:type rdf:resource="http://purl.org/dc/dcmitype/StillImage"/>
    <dc:date>2024-04-27T02:26:58.039438</dc:date>
    <dc:format>image/svg+xml</dc:format>
    <dc:creator>
     <cc:Agent>
      <dc:title>Matplotlib v3.8.2, https://matplotlib.org/</dc:title>
     </cc:Agent>
    </dc:creator>
   </cc:Work>
  </rdf:RDF>
 </metadata>
 <defs>
  <style type="text/css">*{stroke-linejoin: round; stroke-linecap: butt}</style>
 </defs>
 <g id="figure_1">
  <g id="patch_1">
   <path d="M 0 345.6 
L 460.8 345.6 
L 460.8 0 
L 0 0 
z
" style="fill: #ffffff"/>
  </g>
  <g id="axes_1">
   <g id="patch_2">
    <path d="M 57.6 307.584 
L 414.72 307.584 
L 414.72 41.472 
L 57.6 41.472 
z
" style="fill: #ffffff"/>
   </g>
   <g id="matplotlib.axis_1">
    <g id="xtick_1">
     <g id="line2d_1">
      <defs>
       <path id="mda37c67938" d="M 0 0 
L 0 3.5 
" style="stroke: #000000; stroke-width: 0.8"/>
      </defs>
      <g>
       <use xlink:href="#mda37c67938" x="73.832727" y="307.584" style="stroke: #000000; stroke-width: 0.8"/>
      </g>
     </g>
     <g id="text_1">
      <!-- 0 -->
      <g transform="translate(70.651477 322.182437) scale(0.1 -0.1)">
       <defs>
        <path id="DejaVuSans-30" d="M 2034 4250 
Q 1547 4250 1301 3770 
Q 1056 3291 1056 2328 
Q 1056 1369 1301 889 
Q 1547 409 2034 409 
Q 2525 409 2770 889 
Q 3016 1369 3016 2328 
Q 3016 3291 2770 3770 
Q 2525 4250 2034 4250 
z
M 2034 4750 
Q 2819 4750 3233 4129 
Q 3647 3509 3647 2328 
Q 3647 1150 3233 529 
Q 2819 -91 2034 -91 
Q 1250 -91 836 529 
Q 422 1150 422 2328 
Q 422 3509 836 4129 
Q 1250 4750 2034 4750 
z
" transform="scale(0.015625)"/>
       </defs>
       <use xlink:href="#DejaVuSans-30"/>
      </g>
     </g>
    </g>
    <g id="xtick_2">
     <g id="line2d_2">
      <g>
       <use xlink:href="#mda37c67938" x="138.77013" y="307.584" style="stroke: #000000; stroke-width: 0.8"/>
      </g>
     </g>
     <g id="text_2">
      <!-- 2000 -->
      <g transform="translate(126.04513 322.182437) scale(0.1 -0.1)">
       <defs>
        <path id="DejaVuSans-32" d="M 1228 531 
L 3431 531 
L 3431 0 
L 469 0 
L 469 531 
Q 828 903 1448 1529 
Q 2069 2156 2228 2338 
Q 2531 2678 2651 2914 
Q 2772 3150 2772 3378 
Q 2772 3750 2511 3984 
Q 2250 4219 1831 4219 
Q 1534 4219 1204 4116 
Q 875 4013 500 3803 
L 500 4441 
Q 881 4594 1212 4672 
Q 1544 4750 1819 4750 
Q 2544 4750 2975 4387 
Q 3406 4025 3406 3419 
Q 3406 3131 3298 2873 
Q 3191 2616 2906 2266 
Q 2828 2175 2409 1742 
Q 1991 1309 1228 531 
z
" transform="scale(0.015625)"/>
       </defs>
       <use xlink:href="#DejaVuSans-32"/>
       <use xlink:href="#DejaVuSans-30" x="63.623047"/>
       <use xlink:href="#DejaVuSans-30" x="127.246094"/>
       <use xlink:href="#DejaVuSans-30" x="190.869141"/>
      </g>
     </g>
    </g>
    <g id="xtick_3">
     <g id="line2d_3">
      <g>
       <use xlink:href="#mda37c67938" x="203.707533" y="307.584" style="stroke: #000000; stroke-width: 0.8"/>
      </g>
     </g>
     <g id="text_3">
      <!-- 4000 -->
      <g transform="translate(190.982533 322.182437) scale(0.1 -0.1)">
       <defs>
        <path id="DejaVuSans-34" d="M 2419 4116 
L 825 1625 
L 2419 1625 
L 2419 4116 
z
M 2253 4666 
L 3047 4666 
L 3047 1625 
L 3713 1625 
L 3713 1100 
L 3047 1100 
L 3047 0 
L 2419 0 
L 2419 1100 
L 313 1100 
L 313 1709 
L 2253 4666 
z
" transform="scale(0.015625)"/>
       </defs>
       <use xlink:href="#DejaVuSans-34"/>
       <use xlink:href="#DejaVuSans-30" x="63.623047"/>
       <use xlink:href="#DejaVuSans-30" x="127.246094"/>
       <use xlink:href="#DejaVuSans-30" x="190.869141"/>
      </g>
     </g>
    </g>
    <g id="xtick_4">
     <g id="line2d_4">
      <g>
       <use xlink:href="#mda37c67938" x="268.644936" y="307.584" style="stroke: #000000; stroke-width: 0.8"/>
      </g>
     </g>
     <g id="text_4">
      <!-- 6000 -->
      <g transform="translate(255.919936 322.182437) scale(0.1 -0.1)">
       <defs>
        <path id="DejaVuSans-36" d="M 2113 2584 
Q 1688 2584 1439 2293 
Q 1191 2003 1191 1497 
Q 1191 994 1439 701 
Q 1688 409 2113 409 
Q 2538 409 2786 701 
Q 3034 994 3034 1497 
Q 3034 2003 2786 2293 
Q 2538 2584 2113 2584 
z
M 3366 4563 
L 3366 3988 
Q 3128 4100 2886 4159 
Q 2644 4219 2406 4219 
Q 1781 4219 1451 3797 
Q 1122 3375 1075 2522 
Q 1259 2794 1537 2939 
Q 1816 3084 2150 3084 
Q 2853 3084 3261 2657 
Q 3669 2231 3669 1497 
Q 3669 778 3244 343 
Q 2819 -91 2113 -91 
Q 1303 -91 875 529 
Q 447 1150 447 2328 
Q 447 3434 972 4092 
Q 1497 4750 2381 4750 
Q 2619 4750 2861 4703 
Q 3103 4656 3366 4563 
z
" transform="scale(0.015625)"/>
       </defs>
       <use xlink:href="#DejaVuSans-36"/>
       <use xlink:href="#DejaVuSans-30" x="63.623047"/>
       <use xlink:href="#DejaVuSans-30" x="127.246094"/>
       <use xlink:href="#DejaVuSans-30" x="190.869141"/>
      </g>
     </g>
    </g>
    <g id="xtick_5">
     <g id="line2d_5">
      <g>
       <use xlink:href="#mda37c67938" x="333.582339" y="307.584" style="stroke: #000000; stroke-width: 0.8"/>
      </g>
     </g>
     <g id="text_5">
      <!-- 8000 -->
      <g transform="translate(320.857339 322.182437) scale(0.1 -0.1)">
       <defs>
        <path id="DejaVuSans-38" d="M 2034 2216 
Q 1584 2216 1326 1975 
Q 1069 1734 1069 1313 
Q 1069 891 1326 650 
Q 1584 409 2034 409 
Q 2484 409 2743 651 
Q 3003 894 3003 1313 
Q 3003 1734 2745 1975 
Q 2488 2216 2034 2216 
z
M 1403 2484 
Q 997 2584 770 2862 
Q 544 3141 544 3541 
Q 544 4100 942 4425 
Q 1341 4750 2034 4750 
Q 2731 4750 3128 4425 
Q 3525 4100 3525 3541 
Q 3525 3141 3298 2862 
Q 3072 2584 2669 2484 
Q 3125 2378 3379 2068 
Q 3634 1759 3634 1313 
Q 3634 634 3220 271 
Q 2806 -91 2034 -91 
Q 1263 -91 848 271 
Q 434 634 434 1313 
Q 434 1759 690 2068 
Q 947 2378 1403 2484 
z
M 1172 3481 
Q 1172 3119 1398 2916 
Q 1625 2713 2034 2713 
Q 2441 2713 2670 2916 
Q 2900 3119 2900 3481 
Q 2900 3844 2670 4047 
Q 2441 4250 2034 4250 
Q 1625 4250 1398 4047 
Q 1172 3844 1172 3481 
z
" transform="scale(0.015625)"/>
       </defs>
       <use xlink:href="#DejaVuSans-38"/>
       <use xlink:href="#DejaVuSans-30" x="63.623047"/>
       <use xlink:href="#DejaVuSans-30" x="127.246094"/>
       <use xlink:href="#DejaVuSans-30" x="190.869141"/>
      </g>
     </g>
    </g>
    <g id="xtick_6">
     <g id="line2d_6">
      <g>
       <use xlink:href="#mda37c67938" x="398.519741" y="307.584" style="stroke: #000000; stroke-width: 0.8"/>
      </g>
     </g>
     <g id="text_6">
      <!-- 10000 -->
      <g transform="translate(382.613491 322.182437) scale(0.1 -0.1)">
       <defs>
        <path id="DejaVuSans-31" d="M 794 531 
L 1825 531 
L 1825 4091 
L 703 3866 
L 703 4441 
L 1819 4666 
L 2450 4666 
L 2450 531 
L 3481 531 
L 3481 0 
L 794 0 
L 794 531 
z
" transform="scale(0.015625)"/>
       </defs>
       <use xlink:href="#DejaVuSans-31"/>
       <use xlink:href="#DejaVuSans-30" x="63.623047"/>
       <use xlink:href="#DejaVuSans-30" x="127.246094"/>
       <use xlink:href="#DejaVuSans-30" x="190.869141"/>
       <use xlink:href="#DejaVuSans-30" x="254.492188"/>
      </g>
     </g>
    </g>
   </g>
   <g id="matplotlib.axis_2">
    <g id="ytick_1">
     <g id="line2d_7">
      <defs>
       <path id="m1f1a253115" d="M 0 0 
L -3.5 0 
" style="stroke: #000000; stroke-width: 0.8"/>
      </defs>
      <g>
       <use xlink:href="#m1f1a253115" x="57.6" y="263.714609" style="stroke: #000000; stroke-width: 0.8"/>
      </g>
     </g>
     <g id="text_7">
      <!-- −100 -->
      <g transform="translate(23.132812 267.513827) scale(0.1 -0.1)">
       <defs>
        <path id="DejaVuSans-2212" d="M 678 2272 
L 4684 2272 
L 4684 1741 
L 678 1741 
L 678 2272 
z
" transform="scale(0.015625)"/>
       </defs>
       <use xlink:href="#DejaVuSans-2212"/>
       <use xlink:href="#DejaVuSans-31" x="83.789062"/>
       <use xlink:href="#DejaVuSans-30" x="147.412109"/>
       <use xlink:href="#DejaVuSans-30" x="211.035156"/>
      </g>
     </g>
    </g>
    <g id="ytick_2">
     <g id="line2d_8">
      <g>
       <use xlink:href="#m1f1a253115" x="57.6" y="210.10493" style="stroke: #000000; stroke-width: 0.8"/>
      </g>
     </g>
     <g id="text_8">
      <!-- −50 -->
      <g transform="translate(29.495313 213.904148) scale(0.1 -0.1)">
       <defs>
        <path id="DejaVuSans-35" d="M 691 4666 
L 3169 4666 
L 3169 4134 
L 1269 4134 
L 1269 2991 
Q 1406 3038 1543 3061 
Q 1681 3084 1819 3084 
Q 2600 3084 3056 2656 
Q 3513 2228 3513 1497 
Q 3513 744 3044 326 
Q 2575 -91 1722 -91 
Q 1428 -91 1123 -41 
Q 819 9 494 109 
L 494 744 
Q 775 591 1075 516 
Q 1375 441 1709 441 
Q 2250 441 2565 725 
Q 2881 1009 2881 1497 
Q 2881 1984 2565 2268 
Q 2250 2553 1709 2553 
Q 1456 2553 1204 2497 
Q 953 2441 691 2322 
L 691 4666 
z
" transform="scale(0.015625)"/>
       </defs>
       <use xlink:href="#DejaVuSans-2212"/>
       <use xlink:href="#DejaVuSans-35" x="83.789062"/>
       <use xlink:href="#DejaVuSans-30" x="147.412109"/>
      </g>
     </g>
    </g>
    <g id="ytick_3">
     <g id="line2d_9">
      <g>
       <use xlink:href="#m1f1a253115" x="57.6" y="156.495251" style="stroke: #000000; stroke-width: 0.8"/>
      </g>
     </g>
     <g id="text_9">
      <!-- 0 -->
      <g transform="translate(44.2375 160.294469) scale(0.1 -0.1)">
       <use xlink:href="#DejaVuSans-30"/>
      </g>
     </g>
    </g>
    <g id="ytick_4">
     <g id="line2d_10">
      <g>
       <use xlink:href="#m1f1a253115" x="57.6" y="102.885572" style="stroke: #000000; stroke-width: 0.8"/>
      </g>
     </g>
     <g id="text_10">
      <!-- 50 -->
      <g transform="translate(37.875 106.68479) scale(0.1 -0.1)">
       <use xlink:href="#DejaVuSans-35"/>
       <use xlink:href="#DejaVuSans-30" x="63.623047"/>
      </g>
     </g>
    </g>
    <g id="ytick_5">
     <g id="line2d_11">
      <g>
       <use xlink:href="#m1f1a253115" x="57.6" y="49.275893" style="stroke: #000000; stroke-width: 0.8"/>
      </g>
     </g>
     <g id="text_11">
      <!-- 100 -->
      <g transform="translate(31.5125 53.075111) scale(0.1 -0.1)">
       <use xlink:href="#DejaVuSans-31"/>
       <use xlink:href="#DejaVuSans-30" x="63.623047"/>
       <use xlink:href="#DejaVuSans-30" x="127.246094"/>
      </g>
     </g>
    </g>
   </g>
   <g id="line2d_12">
    <path d="M 73.832727 269.699222 
L 73.897665 152.075589 
L 73.930133 158.111878 
L 73.962602 278.366678 
L 74.027539 161.451977 
L 74.060008 148.185702 
L 74.157414 152.926942 
L 74.25482 157.612535 
L 74.287289 99.164922 
L 74.352226 158.013409 
L 74.384695 153.972605 
L 74.449633 154.56252 
L 74.482101 110.109477 
L 74.547039 155.732745 
L 74.579507 267.734273 
L 74.611976 155.424343 
L 74.644445 159.110523 
L 74.676914 99.58419 
L 74.709382 160.255711 
L 74.741851 151.923556 
L 74.77432 221.16275 
L 74.806788 141.105332 
L 74.839257 150.223224 
L 74.871726 161.517024 
L 74.936663 63.36463 
L 74.969132 118.912707 
L 75.001601 197.111594 
L 75.066538 148.719127 
L 75.196413 155.888873 
L 75.228881 210.824939 
L 75.26135 154.442147 
L 75.293819 208.495988 
L 75.326288 154.923931 
L 75.358756 209.72625 
L 75.423694 155.6685 
L 75.456162 158.992663 
L 75.553568 129.347073 
L 75.683443 160.512551 
L 75.715912 162.229353 
L 75.748381 159.622044 
L 75.813318 159.622044 
L 75.845787 160.512551 
L 75.975662 127.863936 
L 76.00813 295.488 
L 76.105536 294.597494 
L 76.138005 264.139017 
L 76.170474 127.863936 
L 76.235411 294.370337 
L 76.26788 159.622044 
L 76.300349 158.01393 
L 76.332817 127.863936 
L 76.397755 156.914619 
L 76.430223 147.444999 
L 76.462692 157.700324 
L 76.495161 156.766694 
L 76.527629 156.560227 
L 76.560098 156.627084 
L 76.592567 157.602106 
L 76.625036 119.873508 
L 76.689973 155.13493 
L 76.722442 152.865607 
L 76.819848 211.738324 
L 76.852317 155.710204 
L 76.949723 165.857563 
L 76.982191 264.478714 
L 77.047129 158.198031 
L 77.112066 154.663163 
L 77.177004 197.447872 
L 77.209472 155.627915 
L 77.241941 156.141641 
L 77.371816 197.447872 
L 77.404284 197.447872 
L 77.436753 256.104577 
L 77.469222 154.548517 
L 77.501691 197.447872 
L 77.631565 154.548517 
L 79.644625 154.548517 
L 79.677094 155.13493 
L 79.742031 154.548517 
L 80.683623 154.548517 
L 80.813498 154.704671 
L 80.943373 154.548517 
L 81.00831 154.548517 
L 81.040779 154.846581 
L 81.105716 154.548517 
L 99.320658 154.548517 
L 99.353127 153.469754 
L 99.450533 87.529587 
L 99.483001 96.763407 
L 99.51547 97.833586 
L 99.547939 95.916786 
L 99.580407 86.865611 
L 99.612876 98.720076 
L 99.645345 89.137882 
L 99.677814 96.763407 
L 99.77522 94.071161 
L 99.840157 89.845622 
L 99.970032 154.548517 
L 224.552439 154.548517 
L 224.682314 154.90371 
L 224.714783 194.816931 
L 224.747251 60.938792 
L 224.77972 219.609831 
L 224.812189 155.308286 
L 224.844658 160.715839 
L 224.909595 155.372709 
L 225.007001 61.926038 
L 225.071938 155.247291 
L 225.136876 155.189557 
L 225.753781 155.083265 
L 225.916125 155.03443 
L 233.54627 155.13493 
L 233.676144 155.189557 
L 237.052889 155.189557 
L 237.085358 63.46238 
L 237.182764 63.560611 
L 237.312639 63.560611 
L 237.345108 63.366193 
L 237.474982 156.914619 
L 237.604857 156.914619 
L 237.734732 156.766694 
L 237.832138 156.766694 
L 237.929544 156.627084 
L 238.059419 156.766694 
L 238.2867 156.766694 
L 238.449043 157.07145 
L 239.065949 157.07145 
L 239.163355 159.766034 
L 239.195824 157.237828 
L 239.228292 159.766034 
L 239.260761 165.463494 
L 239.358167 194.430676 
L 239.488042 157.07145 
L 239.747792 157.07145 
L 239.845198 157.237828 
L 239.877666 157.07145 
L 239.942604 157.237828 
L 240.104947 157.237828 
L 240.202353 157.07145 
L 240.234822 157.237828 
L 240.299759 157.07145 
L 241.111477 157.07145 
L 241.241352 156.914619 
L 241.403695 156.914619 
L 241.53357 156.766694 
L 241.663445 156.766694 
L 241.858257 157.237828 
L 242.118007 157.237828 
L 242.215413 157.414456 
L 242.345288 157.237828 
L 242.377756 157.237828 
L 242.410225 157.07145 
L 242.475162 157.237828 
L 242.864787 157.237828 
L 243.02713 157.602106 
L 247.735092 157.602106 
L 247.864967 157.414456 
L 248.189654 157.414456 
L 248.222123 157.602106 
L 248.28706 157.414456 
L 253.157365 157.414456 
L 253.189834 178.132043 
L 253.254771 157.414456 
L 253.28724 157.414456 
L 253.352177 178.132043 
L 253.417115 170.32837 
L 253.449584 170.32837 
L 253.54699 156.495251 
L 253.611927 160.063401 
L 254.001551 116.866152 
L 254.03402 118.617676 
L 254.066489 115.178245 
L 254.131426 113.888163 
L 254.163895 115.546612 
L 254.228832 115.546612 
L 254.29377 113.888163 
L 254.326238 115.546612 
L 254.358707 115.546612 
L 254.391176 114.271495 
L 254.423645 115.961757 
L 254.456113 116.424229 
L 254.521051 115.178627 
L 254.553519 116.934843 
L 254.618457 116.934843 
L 254.650925 117.494691 
L 254.683394 120.642661 
L 254.7808 119.35068 
L 254.878206 117.494691 
L 254.975612 119.35068 
L 255.008081 117.494691 
L 255.105487 117.581639 
L 255.137956 117.581639 
L 255.267831 119.484948 
L 255.300299 117.581639 
L 255.365237 119.484948 
L 255.495112 119.484948 
L 255.52758 118.314016 
L 255.560049 120.25865 
L 255.624986 120.25865 
L 255.722393 122.275226 
L 255.754861 121.458197 
L 255.884736 118.314016 
L 255.917205 120.25865 
L 255.982142 118.314016 
L 256.079548 118.314016 
L 256.209423 122.275226 
L 256.241892 119.103406 
L 256.339298 120.25865 
L 256.404235 120.25865 
L 256.436704 121.458197 
L 256.469173 119.484948 
L 256.501641 119.484948 
L 256.53411 121.458197 
L 256.599048 119.484948 
L 256.663985 119.484948 
L 256.761391 121.458197 
L 256.79386 120.700135 
L 256.826328 120.700135 
L 256.858797 119.484948 
L 256.891266 121.458197 
L 256.923735 120.700135 
L 256.988672 120.700135 
L 257.118547 121.961803 
L 257.151015 121.961803 
L 257.183484 119.998387 
L 257.248422 122.70427 
L 257.313359 121.275331 
L 257.378296 121.961803 
L 257.410765 121.961803 
L 257.508171 118.767901 
L 257.54064 119.998387 
L 257.638046 119.998387 
L 257.735452 120.700135 
L 257.865327 118.767901 
L 257.995202 121.961803 
L 258.125077 119.998387 
L 258.190014 120.700135 
L 258.222483 119.998387 
L 258.254951 119.998387 
L 258.319889 121.961803 
L 258.352357 121.275331 
L 258.482232 119.998387 
L 258.514701 121.275331 
L 258.54717 119.35068 
L 258.677044 118.10515 
L 258.709513 118.10515 
L 258.741982 119.35068 
L 258.774451 117.494691 
L 258.806919 118.10515 
L 258.839388 118.10515 
L 258.871857 119.35068 
L 258.904325 117.494691 
L 258.936794 117.494691 
L 259.0342 118.10515 
L 259.066669 115.104479 
L 259.164075 116.278517 
L 259.196544 116.278517 
L 259.229012 117.494691 
L 259.29395 116.278517 
L 259.358887 116.278517 
L 259.391356 116.903835 
L 259.488762 114.515176 
L 259.521231 115.104479 
L 259.683574 112.812054 
L 259.78098 115.104479 
L 259.813449 113.970633 
L 259.845918 113.366629 
L 259.943324 115.104479 
L 259.975792 111.687307 
L 260.04073 115.104479 
L 260.073199 115.104479 
L 260.203073 113.366629 
L 260.332948 113.366629 
L 260.365417 115.104479 
L 260.430354 113.970633 
L 260.560229 111.687307 
L 260.722573 114.515176 
L 260.755041 114.515176 
L 260.884916 112.812054 
L 261.014791 112.812054 
L 261.144666 111.166299 
L 261.209603 111.166299 
L 261.242072 111.687307 
L 261.371947 110.063748 
L 261.436884 110.063748 
L 261.501821 113.366629 
L 261.566759 111.687307 
L 261.599228 111.687307 
L 261.729102 110.063748 
L 261.761571 110.063748 
L 261.79404 111.166299 
L 261.826508 109.575261 
L 261.858977 110.063748 
L 261.988852 108.493381 
L 262.053789 110.063748 
L 262.086258 109.575261 
L 262.118727 108.036476 
L 262.183664 110.063748 
L 262.216133 108.493381 
L 262.28107 108.493381 
L 262.313539 109.575261 
L 262.346008 108.036476 
L 262.508351 103.889446 
L 262.54082 105.106665 
L 262.573289 102.883726 
L 262.833038 91.534924 
L 262.865507 91.534924 
L 262.995382 89.845622 
L 263.02785 89.845622 
L 263.125257 92.291026 
L 263.157725 89.845622 
L 263.222663 91.534924 
L 263.255131 91.534924 
L 263.352537 89.137882 
L 263.385006 89.845622 
L 263.514881 91.534924 
L 263.644756 89.845622 
L 263.709693 89.137882 
L 263.742162 90.79783 
L 263.774631 89.845622 
L 263.839568 90.79783 
L 264.001911 93.282267 
L 264.066849 89.845622 
L 264.099318 90.79783 
L 264.131786 93.282267 
L 264.229192 92.291026 
L 264.261661 92.291026 
L 264.326598 89.845622 
L 264.424005 90.79783 
L 264.488942 92.291026 
L 264.521411 90.79783 
L 264.553879 90.79783 
L 264.651285 91.534924 
L 264.716223 89.845622 
L 264.78116 90.79783 
L 264.813629 90.79783 
L 264.943504 89.845622 
L 265.008441 89.845622 
L 265.138316 88.209977 
L 265.203253 89.137882 
L 265.235722 88.209977 
L 265.365597 87.529587 
L 265.398066 87.529587 
L 265.430534 88.209977 
L 265.463003 86.865611 
L 265.625347 86.865611 
L 265.722753 85.969166 
L 265.755221 86.865611 
L 265.78769 85.329859 
L 265.950034 82.38397 
L 265.982502 82.38397 
L 266.144846 80.406977 
L 266.209783 80.968115 
L 266.404595 74.654432 
L 266.437064 75.913773 
L 266.53447 78.51397 
L 266.631876 158.01393 
L 266.761751 156.141641 
L 266.826688 156.141641 
L 266.859157 156.252967 
L 266.989032 157.801621 
L 268.579998 157.801621 
L 268.709873 157.602106 
L 269.067029 157.602106 
L 269.099498 162.240268 
L 269.131966 194.205524 
L 269.164435 76.516795 
L 269.261841 84.672702 
L 269.29431 88.195323 
L 269.359247 132.523929 
L 269.424185 114.975383 
L 269.456653 115.434258 
L 269.489122 114.825503 
L 269.618997 111.703468 
L 269.651466 97.982939 
L 269.683934 117.195294 
L 269.716403 117.195294 
L 269.748872 116.57825 
L 269.878746 72.699256 
L 269.943684 103.703365 
L 269.976153 83.476944 
L 270.04109 66.265063 
L 270.106027 67.603001 
L 270.170965 67.603001 
L 270.30084 68.634865 
L 270.52812 68.634865 
L 270.560589 67.275901 
L 270.625527 68.634865 
L 270.755401 68.634865 
L 270.78787 117.414454 
L 270.820339 68.474398 
L 270.852807 68.474398 
L 271.7944 68.474398 
L 271.826869 129.414005 
L 271.924275 126.525772 
L 272.021681 99.20552 
L 272.086618 53.568 
L 272.151556 68.316601 
L 272.28143 53.568 
L 272.378836 84.611323 
L 272.411305 71.857096 
L 272.476243 71.857096 
L 272.573649 86.134532 
L 272.606117 73.298438 
L 272.638586 87.680733 
L 272.703523 74.756792 
L 272.735992 74.756792 
L 272.80093 89.251658 
L 272.833398 76.233999 
L 272.898336 76.233999 
L 272.963273 77.731962 
L 273.093148 94.131079 
L 273.158085 80.798173 
L 273.190554 95.819601 
L 273.223023 82.370655 
L 273.255491 82.370655 
L 273.28796 83.972386 
L 273.320429 99.302398 
L 273.385366 85.605766 
L 273.450304 85.605766 
L 273.515241 101.101289 
L 273.54771 87.273333 
L 273.580178 87.273333 
L 273.710053 104.826589 
L 273.742522 104.826589 
L 273.807459 90.721971 
L 273.839928 106.758466 
L 273.872397 106.758466 
L 273.904865 92.508965 
L 273.937334 108.740431 
L 274.002271 94.342034 
L 274.099678 110.775681 
L 274.132146 96.224691 
L 274.164615 112.867636 
L 274.229552 98.160717 
L 274.326959 98.160717 
L 274.456833 115.01996 
L 274.586708 100.154196 
L 274.651646 100.154196 
L 274.78152 117.236589 
L 274.911395 117.236589 
L 275.04127 102.209549 
L 275.073739 102.209549 
L 275.106207 119.521763 
L 275.171145 102.209549 
L 275.365957 80.950538 
L 275.398426 80.950538 
L 275.5283 95.732051 
L 275.560769 95.732051 
L 275.690644 82.658309 
L 275.852987 82.658309 
L 275.885456 97.4362 
L 275.950394 82.658309 
L 276.0478 82.658309 
L 276.080268 105.858977 
L 276.177674 102.512846 
L 276.307549 102.512846 
L 276.340018 85.492327 
L 276.404955 102.512846 
L 276.437424 102.512846 
L 276.599768 68.370013 
L 276.827049 165.9826 
L 276.956923 171.431448 
L 276.989392 171.431448 
L 277.054329 165.9826 
L 277.184204 117.772043 
L 277.314079 138.13805 
L 277.379016 139.298461 
L 277.508891 85.492327 
L 277.573829 117.236589 
L 277.638766 115.01996 
L 277.768641 98.189622 
L 277.866047 110.775681 
L 277.898516 96.484189 
L 277.930984 121.880057 
L 278.02839 129.445281 
L 278.060859 126.836214 
L 278.190734 114.321261 
L 278.223203 129.445281 
L 278.28814 114.858256 
L 278.418015 114.321261 
L 278.612827 114.321261 
L 278.645296 169.115002 
L 278.742702 154.851726 
L 278.807639 154.851726 
L 278.840108 85.863628 
L 278.905045 154.851726 
L 279.327139 154.851726 
L 279.392076 86.605508 
L 279.424545 154.851726 
L 279.846638 154.851726 
L 279.879106 156.498926 
L 279.944044 154.851726 
L 280.268731 154.851726 
L 280.398606 153.236391 
L 280.431074 153.236391 
L 280.560949 154.851726 
L 280.690824 153.236391 
L 280.853167 153.236391 
L 280.950574 154.851726 
L 281.080448 153.236391 
L 281.145386 153.236391 
L 281.275261 154.851726 
L 281.405135 153.236391 
L 281.437604 154.851726 
L 281.502542 153.236391 
L 281.79476 153.236391 
L 281.924635 151.651779 
L 282.054509 153.236391 
L 282.151916 153.236391 
L 282.249322 151.651779 
L 282.346728 153.236391 
L 282.476603 150.096802 
L 282.606477 151.651779 
L 282.736352 150.096802 
L 282.80129 150.096802 
L 282.833758 102.265398 
L 282.866227 158.761941 
L 282.898696 158.761941 
L 282.963633 158.761941 
L 283.093508 138.192436 
L 283.190914 136.534149 
L 283.223383 77.252512 
L 283.255851 171.358135 
L 283.28832 152.208368 
L 283.320789 171.561859 
L 283.385726 83.166787 
L 283.450664 83.778495 
L 283.515601 83.778495 
L 283.677945 81.756849 
L 283.742882 81.756849 
L 283.807819 81.325479 
L 283.937694 74.847813 
L 283.970163 75.551623 
L 284.0351 74.847813 
L 284.132506 74.847813 
L 284.262381 75.551623 
L 284.327319 75.551623 
L 284.457193 76.262757 
L 284.489662 76.262757 
L 284.587068 75.551623 
L 284.716943 76.262757 
L 284.749412 75.551623 
L 284.814349 76.262757 
L 284.846818 76.262757 
L 284.879286 75.551623 
L 284.944224 76.262757 
L 285.333848 76.262757 
L 285.463723 76.981522 
L 285.723473 76.981522 
L 285.853348 77.708239 
L 285.885816 76.981522 
L 285.950754 77.708239 
L 285.983222 77.708239 
L 286.015691 76.981522 
L 286.080628 77.708239 
L 286.210503 77.708239 
L 286.275441 76.981522 
L 286.307909 77.708239 
L 286.372847 77.708239 
L 286.405315 78.443238 
L 286.470253 77.708239 
L 286.502722 77.708239 
L 286.53519 78.443238 
L 286.600128 77.708239 
L 286.632596 77.708239 
L 286.730002 76.981522 
L 286.762471 77.708239 
L 286.827409 76.981522 
L 286.924815 76.981522 
L 286.989752 163.931221 
L 287.054689 148.516088 
L 287.119627 82.689091 
L 287.152096 153.236391 
L 287.184564 107.534305 
L 287.314439 170.822982 
L 287.346908 170.822982 
L 287.54172 185.71079 
L 287.574189 180.449075 
L 287.606657 105.611672 
L 287.704063 113.377751 
L 287.931344 120.876459 
L 288.2885 128.807898 
L 288.320969 128.807898 
L 288.483312 133.503269 
L 288.515781 131.581978 
L 288.580718 132.760537 
L 288.645656 132.760537 
L 288.807999 136.933261 
L 288.937874 136.933261 
L 289.002812 139.191219 
L 289.067749 138.497928 
L 289.165155 136.2287 
L 289.29503 139.191219 
L 289.424905 138.497928 
L 289.489842 138.497928 
L 289.522311 139.191219 
L 289.554779 138.497928 
L 289.587248 136.2287 
L 289.619717 139.191219 
L 289.652186 139.191219 
L 289.684654 139.191219 
L 289.717123 138.497928 
L 289.749592 139.191219 
L 289.879466 141.5773 
L 290.009341 139.191219 
L 290.04181 142.271253 
L 290.074279 139.191219 
L 290.106747 136.2287 
L 290.139216 141.5773 
L 290.171685 139.191219 
L 290.204154 139.191219 
L 290.30156 142.271253 
L 290.334028 141.5773 
L 290.366497 142.271253 
L 290.398966 141.5773 
L 290.593778 133.375773 
L 290.626247 133.375773 
L 290.691184 135.536674 
L 290.723653 132.685498 
L 290.78859 132.685498 
L 290.821059 133.375773 
L 290.885996 132.685498 
L 291.04834 127.970313 
L 291.080808 127.970313 
L 291.275621 130.625192 
L 291.373027 128.66552 
L 291.53537 133.375773 
L 291.632776 130.625192 
L 291.665245 131.323748 
L 291.697714 130.625192 
L 291.762651 131.323748 
L 291.892526 134.077471 
L 291.924995 134.077471 
L 292.087338 136.933261 
L 292.217213 134.792815 
L 292.347088 134.792815 
L 292.476963 137.652743 
L 292.509431 135.524148 
L 292.574369 137.652743 
L 292.639306 137.652743 
L 292.769181 141.364101 
L 292.80165 141.364101 
L 292.931524 144.455171 
L 292.963993 144.455171 
L 293.321149 138.389654 
L 293.386086 141.364101 
L 293.451024 139.146632 
L 293.580898 139.146632 
L 293.710773 141.364101 
L 293.743242 139.146632 
L 293.808179 141.364101 
L 293.840648 141.364101 
L 293.938054 139.146632 
L 293.970523 139.92644 
L 294.03546 139.92644 
L 294.165335 142.91745 
L 294.230272 139.92644 
L 294.29521 140.731974 
L 294.360147 140.731974 
L 294.457553 137.839362 
L 294.490022 139.92644 
L 294.554959 139.92644 
L 294.684834 135.858372 
L 294.717303 137.839362 
L 294.749772 137.839362 
L 294.879647 133.975792 
L 294.944584 136.694662 
L 294.977053 133.975792 
L 295.106927 134.826767 
L 295.236802 131.359806 
L 295.269271 133.050364 
L 295.334208 131.359806 
L 295.464083 129.75025 
L 295.496552 129.75025 
L 295.593958 130.679301 
L 295.691364 128.725485 
L 295.756301 129.774725 
L 295.78877 129.774725 
L 295.918645 128.491003 
L 295.951114 127.498597 
L 295.983582 128.918052 
L 296.016051 128.918052 
L 296.470613 138.840061 
L 296.568019 137.607733 
L 296.665425 138.840061 
L 296.697894 136.395582 
L 296.762831 137.607733 
L 296.892706 137.607733 
L 296.990112 138.840061 
L 297.119987 137.607733 
L 297.574549 137.607733 
L 297.607017 136.395582 
L 297.671955 137.607733 
L 297.769361 137.607733 
L 297.834298 138.840061 
L 297.866767 137.607733 
L 297.899236 137.607733 
L 298.029111 141.367776 
L 298.061579 140.093191 
L 298.094048 124.333319 
L 298.158985 138.840061 
L 298.191454 137.607733 
L 298.256391 138.840061 
L 298.28886 138.840061 
L 298.321329 123.080011 
L 298.386266 137.607733 
L 298.418735 138.840061 
L 298.451204 123.080011 
L 298.516141 140.093191 
L 298.54861 124.333319 
L 298.581078 123.080011 
L 298.613547 133.266391 
L 298.710953 132.130911 
L 298.840828 131.01315 
L 298.938234 131.01315 
L 298.970703 129.912596 
L 299.03564 131.01315 
L 299.068109 131.01315 
L 299.100578 129.912596 
L 299.133046 132.130911 
L 299.165515 131.01315 
L 299.262921 132.130911 
L 299.29539 131.01315 
L 299.360327 132.130911 
L 299.490202 132.130911 
L 299.522671 131.01315 
L 299.587608 132.130911 
L 299.749952 132.130911 
L 299.879827 131.01315 
L 300.04217 131.01315 
L 300.172045 133.266391 
L 300.30192 132.130911 
L 300.464263 132.130911 
L 300.529201 131.01315 
L 300.561669 132.130911 
L 300.724013 132.130911 
L 300.78895 131.01315 
L 300.821419 132.130911 
L 300.853888 133.266391 
L 300.918825 132.130911 
L 300.951294 132.130911 
L 300.983762 131.01315 
L 301.0487 132.130911 
L 301.243512 132.130911 
L 301.373387 131.01315 
L 301.470793 131.01315 
L 301.600668 132.130911 
L 301.665605 132.130911 
L 301.763011 131.01315 
L 301.892886 132.130911 
L 301.957823 132.130911 
L 302.087698 133.266391 
L 302.120167 132.130911 
L 302.152636 133.266391 
L 302.185104 137.607733 
L 302.217573 132.130911 
L 302.250042 132.130911 
L 302.379917 133.266391 
L 302.509791 133.266391 
L 302.54226 137.607733 
L 302.607197 134.420125 
L 302.737072 133.266391 
L 302.866947 133.266391 
L 302.899416 132.130911 
L 302.964353 133.266391 
L 303.029291 133.266391 
L 303.126697 137.607733 
L 303.224103 132.130911 
L 303.256571 133.266391 
L 303.386446 133.266391 
L 303.581258 138.840061 
L 303.613727 137.607733 
L 303.743602 133.266391 
L 303.776071 132.130911 
L 303.841008 133.266391 
L 303.905946 133.266391 
L 303.938414 132.130911 
L 304.003352 133.266391 
L 304.165695 133.266391 
L 304.198164 138.840061 
L 304.263101 132.130911 
L 304.360507 132.130911 
L 304.457913 137.607733 
L 304.490382 132.130911 
L 304.587788 133.266391 
L 304.620257 133.266391 
L 304.652726 132.130911 
L 304.717663 133.266391 
L 304.7826 133.266391 
L 304.815069 137.607733 
L 304.880007 132.130911 
L 304.912475 132.130911 
L 304.944944 134.420125 
L 305.009881 133.266391 
L 305.04235 133.266391 
L 305.074819 137.607733 
L 305.107287 132.130911 
L 305.139756 133.266391 
L 305.204694 134.420125 
L 305.237162 133.266391 
L 305.269631 133.266391 
L 305.399506 134.420125 
L 305.529381 133.266391 
L 305.594318 133.266391 
L 305.626787 138.840061 
L 305.691724 133.266391 
L 305.854068 133.266391 
L 305.951474 134.420125 
L 306.016411 133.266391 
L 306.04888 134.420125 
L 306.211223 134.420125 
L 306.243692 135.592665 
L 306.308629 134.420125 
L 306.373567 134.420125 
L 306.503442 133.266391 
L 306.53591 133.266391 
L 306.698254 135.592665 
L 306.828129 133.266391 
L 306.925535 135.592665 
L 306.958003 134.420125 
L 307.022941 134.420125 
L 307.05541 135.592665 
L 307.120347 134.420125 
L 307.185284 134.420125 
L 307.250222 122.970056 
L 307.315159 124.153286 
L 307.412565 127.634481 
L 307.477503 126.495064 
L 307.574909 126.495064 
L 307.607377 125.264826 
L 307.672315 126.495064 
L 307.737252 126.495064 
L 307.769721 125.264826 
L 307.80219 126.418052 
L 307.834658 127.634481 
L 307.867127 125.264826 
L 307.899596 126.418052 
L 307.932064 126.418052 
L 308.061939 137.996485 
L 308.094408 137.996485 
L 308.224283 136.784586 
L 308.354158 139.228982 
L 308.484032 136.784586 
L 308.516501 137.996485 
L 308.581439 136.784586 
L 308.678845 136.784586 
L 308.776251 137.996485 
L 308.841188 136.784586 
L 308.873657 137.996485 
L 308.906126 137.996485 
L 309.036 136.784586 
L 309.165875 136.784586 
L 309.198344 137.996485 
L 309.263281 136.784586 
L 309.360687 136.784586 
L 309.393156 135.592665 
L 309.458093 136.784586 
L 309.587968 136.784586 
L 309.620437 135.592665 
L 309.652906 136.784586 
L 309.685374 137.996485 
L 309.717843 136.784586 
L 309.847718 133.936842 
L 310.010061 137.996485 
L 310.107467 133.936842 
L 310.139936 135.592665 
L 310.204874 133.936842 
L 310.269811 137.996485 
L 310.334748 136.784586 
L 310.367217 137.996485 
L 310.432154 136.784586 
L 310.497092 136.784586 
L 310.529561 137.996485 
L 310.594498 136.784586 
L 310.626967 136.784586 
L 310.659435 135.592665 
L 310.724373 136.784586 
L 311.178935 136.784586 
L 311.308809 135.592665 
L 311.406216 135.592665 
L 311.438684 141.367776 
L 311.503622 136.784586 
L 311.698434 136.784586 
L 311.730903 141.367776 
L 311.79584 136.784586 
L 311.860777 136.784586 
L 311.958183 141.367776 
L 312.088058 136.784586 
L 312.217933 136.784586 
L 312.250402 135.592665 
L 312.315339 136.784586 
L 312.347808 141.367776 
L 312.412745 136.784586 
L 312.54262 136.784586 
L 312.607557 141.367776 
L 312.640026 136.784586 
L 312.672495 135.592665 
L 312.80237 141.367776 
L 312.899776 141.367776 
L 313.029651 136.784586 
L 313.094588 136.784586 
L 313.191994 141.367776 
L 313.256932 133.936842 
L 313.2894 141.367776 
L 313.419275 141.367776 
L 313.516681 133.936842 
L 313.581619 143.984042 
L 313.646556 141.367776 
L 313.743962 142.664492 
L 313.841368 133.217213 
L 313.873837 142.664492 
L 313.938774 133.936842 
L 314.03618 130.692912 
L 314.068649 133.217213 
L 314.101118 133.217213 
L 314.133586 130.692912 
L 314.198524 133.053809 
L 314.29593 133.053809 
L 314.425805 130.856535 
L 314.458273 130.856535 
L 314.490742 143.984042 
L 314.55568 130.692912 
L 314.588148 130.856535 
L 314.620617 143.984042 
L 314.685554 130.856535 
L 314.78296 130.856535 
L 314.815429 131.270594 
L 314.880367 130.856535 
L 314.945304 143.984042 
L 314.977773 143.984042 
L 315.04271 142.664492 
L 315.075179 143.984042 
L 315.107647 143.984042 
L 315.237522 131.270594 
L 315.269991 131.270594 
L 315.334928 129.476106 
L 315.432335 143.984042 
L 315.497272 129.476106 
L 315.562209 131.270594 
L 315.627147 143.984042 
L 315.659615 131.270594 
L 315.757022 129.476106 
L 315.78949 130.18295 
L 315.821959 130.18295 
L 315.886896 143.984042 
L 315.919365 130.18295 
L 316.04924 130.18295 
L 316.179115 143.984042 
L 316.211583 145.327162 
L 316.341458 130.18295 
L 316.406396 130.18295 
L 316.471333 131.010092 
L 316.503802 130.18295 
L 316.53627 130.18295 
L 316.601208 128.609953 
L 316.666145 128.914467 
L 317.153176 128.914467 
L 317.185644 127.787281 
L 317.250582 128.914467 
L 317.315519 128.914467 
L 317.445394 130.259388 
L 317.510331 130.259388 
L 317.5428 131.416411 
L 317.575269 130.259388 
L 317.705144 127.787281 
L 317.867487 130.259388 
L 317.899956 130.259388 
L 318.029831 128.914467 
L 318.159705 130.259388 
L 318.192174 130.259388 
L 318.257112 128.914467 
L 318.322049 129.1432 
L 318.354518 128.460294 
L 318.386986 129.592312 
L 318.516861 133.013344 
L 318.581799 133.013344 
L 318.614267 132.129708 
L 318.646736 134.067269 
L 318.711673 134.067269 
L 318.809079 135.242107 
L 318.841548 134.392872 
L 319.003892 138.805505 
L 319.03636 138.805505 
L 319.101298 140.358851 
L 319.133766 139.526973 
L 319.263641 139.526973 
L 319.425985 143.897718 
L 319.55586 143.063114 
L 319.718203 148.910129 
L 319.78314 145.896199 
L 319.815609 148.910129 
L 319.880547 145.052315 
L 319.945484 148.057367 
L 319.977953 148.910129 
L 320.04289 148.057367 
L 320.107828 148.057367 
L 320.172765 147.198299 
L 320.205234 148.057367 
L 320.335108 150.389831 
L 320.367577 150.389831 
L 320.497452 148.057367 
L 320.529921 148.057367 
L 320.562389 152.124181 
L 320.627327 148.910129 
L 320.659795 148.910129 
L 320.822139 143.897718 
L 320.887076 143.897718 
L 321.016951 144.732146 
L 321.146826 141.196597 
L 321.211763 141.196597 
L 321.309169 137.388824 
L 321.374107 138.248436 
L 321.406576 140.509293 
L 321.471513 138.248436 
L 321.666325 133.915487 
L 321.698794 136.76319 
L 321.7962 135.784077 
L 321.991012 132.216041 
L 322.088418 133.957092 
L 322.218293 132.216041 
L 322.315699 130.555375 
L 322.348168 131.545799 
L 322.575449 131.545799 
L 322.640386 130.995004 
L 322.705324 133.618825 
L 322.737792 130.995004 
L 322.835198 132.055851 
L 322.867667 132.055851 
L 322.900136 133.618825 
L 322.965073 132.055851 
L 323.192354 132.055851 
L 323.322229 133.618825 
L 323.452104 133.618825 
L 323.54951 132.055851 
L 323.679385 133.618825 
L 323.744322 133.618825 
L 323.776791 132.055851 
L 323.841728 133.618825 
L 323.906666 133.618825 
L 323.971603 132.055851 
L 324.004072 133.618825 
L 324.133946 133.618825 
L 324.231353 132.055851 
L 324.361227 133.618825 
L 324.393696 132.055851 
L 324.458633 133.618825 
L 324.620977 133.618825 
L 324.685914 134.706836 
L 324.750852 132.055851 
L 324.783321 132.055851 
L 324.880727 134.706836 
L 324.978133 132.055851 
L 325.075539 133.618825 
L 325.108008 132.055851 
L 325.172945 133.618825 
L 325.205414 133.618825 
L 325.30282 132.055851 
L 325.400226 133.618825 
L 325.562569 130.995004 
L 325.724913 133.618825 
L 325.78985 133.618825 
L 325.952194 130.995004 
L 326.082069 132.055851 
L 326.211943 132.055851 
L 326.276881 133.618825 
L 326.309349 132.055851 
L 326.731443 132.055851 
L 326.763911 133.618825 
L 326.828849 132.055851 
L 326.926255 132.055851 
L 327.05613 130.995004 
L 327.283411 130.995004 
L 327.380817 132.055851 
L 327.510691 130.995004 
L 327.575629 130.995004 
L 327.608098 129.495737 
L 327.673035 130.995004 
L 327.835378 130.995004 
L 327.965253 132.055851 
L 328.225003 132.055851 
L 328.28994 133.618825 
L 328.322409 132.055851 
L 328.452284 132.055851 
L 328.582159 130.995004 
L 328.712033 132.055851 
L 328.744502 132.055851 
L 328.776971 133.618825 
L 328.841908 132.055851 
L 328.874377 132.055851 
L 328.939314 130.995004 
L 329.004252 141.56626 
L 329.03672 130.995004 
L 329.069189 132.055851 
L 329.134127 130.995004 
L 329.264001 130.995004 
L 329.29647 141.56626 
L 329.361407 130.995004 
L 329.458814 130.995004 
L 329.588688 139.511372 
L 329.621157 139.511372 
L 329.751032 130.995004 
L 329.848438 139.511372 
L 329.945844 130.995004 
L 329.978313 140.394901 
L 330.04325 130.995004 
L 330.075719 130.995004 
L 330.108188 139.511372 
L 330.173125 130.995004 
L 330.238062 130.995004 
L 330.270531 141.56626 
L 330.335468 139.511372 
L 330.432875 130.995004 
L 330.465343 141.56626 
L 330.530281 130.995004 
L 330.725093 130.995004 
L 330.822499 132.055851 
L 330.854968 141.56626 
L 330.887436 130.995004 
L 330.919905 130.995004 
L 331.147186 130.995004 
L 331.277061 139.511372 
L 331.341998 139.511372 
L 331.374467 130.995004 
L 331.439404 139.511372 
L 331.504342 139.511372 
L 331.569279 141.56626 
L 331.634217 130.995004 
L 331.666685 132.055851 
L 331.79656 139.511372 
L 331.861497 137.561396 
L 331.893966 139.511372 
L 331.926435 139.511372 
L 331.958904 129.495737 
L 332.023841 130.995004 
L 332.05631 139.511372 
L 332.088778 129.495737 
L 332.121247 129.495737 
L 332.186184 129.495737 
L 332.316059 138.461687 
L 332.445934 138.461687 
L 332.575809 137.561396 
L 332.640746 138.461687 
L 332.738152 129.495737 
L 332.868027 137.561396 
L 332.965433 138.461687 
L 333.062839 129.495737 
L 333.160245 138.461687 
L 333.192714 136.625796 
L 333.29012 136.625796 
L 333.322589 128.460294 
L 333.419995 129.495737 
L 333.452464 128.460294 
L 333.54987 136.625796 
L 333.582339 135.709062 
L 333.647276 136.625796 
L 333.679745 135.709062 
L 333.971963 135.709062 
L 334.101838 134.881185 
L 334.199244 134.881185 
L 334.231713 136.625796 
L 334.29665 134.881185 
L 334.361587 134.881185 
L 334.458994 136.625796 
L 334.491462 134.881185 
L 334.5564 135.853065 
L 334.588868 136.625796 
L 334.621337 135.853065 
L 334.653806 129.495737 
L 334.718743 135.853065 
L 334.848618 134.881185 
L 334.946024 135.853065 
L 335.075899 134.881185 
L 335.205774 135.853065 
L 335.238242 134.212381 
L 335.30318 135.853065 
L 335.368117 135.853065 
L 335.497992 134.212381 
L 335.660335 134.212381 
L 335.725273 132.654297 
L 335.757742 134.212381 
L 335.79021 134.212381 
L 335.855148 132.654297 
L 335.887616 134.212381 
L 335.952554 134.212381 
L 335.985023 132.654297 
L 336.04996 134.212381 
L 336.082429 135.245753 
L 336.147366 134.212381 
L 336.179835 132.654297 
L 336.244772 134.212381 
L 336.374647 132.654297 
L 336.504522 133.707843 
L 336.53699 133.707843 
L 336.666865 132.251069 
L 336.699334 132.251069 
L 336.829209 133.707843 
L 336.959084 132.251069 
L 337.218833 132.251069 
L 337.251302 130.873962 
L 337.316239 132.251069 
L 337.478583 132.251069 
L 337.608458 130.873962 
L 337.640926 132.02869 
L 337.705864 130.873962 
L 337.738332 130.873962 
L 337.835738 130.762112 
L 337.868207 132.02869 
L 337.998082 130.762112 
L 338.030551 130.762112 
L 338.095488 132.02869 
L 338.127957 132.015467 
L 338.257832 129.576208 
L 338.387706 130.762112 
L 338.679925 130.762112 
L 338.744862 129.576208 
L 338.777331 130.762112 
L 338.874737 130.762112 
L 339.004612 129.576208 
L 339.134487 129.576208 
L 339.199424 130.762112 
L 339.231893 129.576208 
L 339.29683 129.576208 
L 339.329299 130.762112 
L 339.394236 129.576208 
L 340.04361 129.576208 
L 340.173485 128.358845 
L 340.205954 128.358845 
L 340.335828 129.576208 
L 340.563109 129.576208 
L 340.660516 128.358845 
L 340.725453 129.576208 
L 340.757922 128.358845 
L 340.822859 128.358845 
L 340.855328 129.576208 
L 340.920265 128.358845 
L 341.147546 128.358845 
L 341.180015 129.576208 
L 341.244952 128.358845 
L 341.342358 128.358845 
L 341.472233 129.576208 
L 341.504702 129.576208 
L 341.634577 128.358845 
L 341.667045 128.358845 
L 341.764451 127.201596 
L 341.79692 128.358845 
L 341.861857 127.201596 
L 341.894326 127.201596 
L 342.024201 128.358845 
L 342.121607 126.030801 
L 342.154076 127.201596 
L 342.219013 127.201596 
L 342.381357 124.900237 
L 342.413825 126.030801 
L 342.478763 124.900237 
L 342.511231 124.900237 
L 342.673575 122.667842 
L 342.706044 123.773541 
L 342.770981 122.667842 
L 342.80345 122.667842 
L 342.835919 123.773541 
L 342.868387 122.667842 
L 342.933325 117.383824 
L 343.095668 113.377751 
L 343.160606 113.377751 
L 343.29048 111.549111 
L 343.420355 113.046038 
L 343.485293 113.046038 
L 343.517761 113.791949 
L 343.647636 111.036678 
L 343.680105 111.036678 
L 343.842448 109.078026 
L 343.907386 109.078026 
L 343.939854 109.807666 
L 343.972323 113.046038 
L 344.069729 111.774187 
L 344.102198 111.774187 
L 344.232073 111.036678 
L 344.329479 111.036678 
L 344.394416 111.600258 
L 344.524291 110.314237 
L 344.621697 110.314237 
L 344.751572 109.605099 
L 344.816509 109.605099 
L 345.011321 111.552125 
L 345.04379 111.552125 
L 345.108728 112.277707 
L 345.141196 110.872476 
L 345.173665 112.277707 
L 345.238602 111.607683 
L 345.368477 111.607683 
L 345.400946 110.199998 
L 345.465883 110.942805 
L 345.563289 110.942805 
L 345.693164 109.533423 
L 346.017851 109.533423 
L 346.147726 110.281909 
L 346.407476 110.281909 
L 346.602288 112.880176 
L 346.634757 112.880176 
L 346.667225 112.216551 
L 346.764631 113.861636 
L 346.7971 113.190419 
L 347.05685 113.190419 
L 347.186724 114.900244 
L 347.219193 114.900244 
L 347.251662 114.218526 
L 347.316599 114.900244 
L 347.349068 114.900244 
L 347.446474 116.684794 
L 347.478943 115.99595 
L 348.29066 115.99595 
L 348.323129 114.218526 
L 348.388066 115.99595 
L 348.582879 115.99595 
L 348.712753 114.900244 
L 349.362127 114.900244 
L 349.492002 115.576976 
L 349.719283 115.576976 
L 349.751752 114.900244 
L 349.816689 115.576976 
L 350.953094 115.576976 
L 350.985563 116.249326 
L 351.0505 115.576976 
L 351.082969 115.576976 
L 351.212843 116.249326 
L 351.277781 115.576976 
L 351.31025 116.249326 
L 351.342718 116.249326 
L 351.440124 115.576976 
L 351.569999 116.249326 
L 352.284311 116.249326 
L 352.316779 115.194111 
L 352.349248 116.917974 
L 352.381717 116.249326 
L 352.446654 116.249326 
L 352.511592 116.917974 
L 352.576529 115.194111 
L 352.608998 115.194111 
L 352.673935 116.917974 
L 352.706404 115.194111 
L 352.738872 115.194111 
L 352.771341 116.917974 
L 352.836279 115.194111 
L 352.868747 115.194111 
L 352.998622 116.917974 
L 353.128497 115.856852 
L 354.005152 115.856852 
L 354.03762 116.518382 
L 354.102558 115.856852 
L 354.135027 115.856852 
L 354.199964 116.518382 
L 354.232433 115.856852 
L 354.362308 115.856852 
L 354.394776 116.518382 
L 354.459714 115.856852 
L 354.492182 115.856852 
L 354.622057 114.862023 
L 354.654526 114.862023 
L 354.784401 116.518382 
L 354.914275 116.518382 
L 355.011682 114.862023 
L 355.141556 116.518382 
L 355.661056 116.518382 
L 355.693524 114.862023 
L 355.758462 116.518382 
L 355.953274 116.518382 
L 355.985743 114.862023 
L 356.083149 115.522552 
L 356.115617 116.518382 
L 356.148086 114.862023 
L 356.180555 115.522552 
L 356.375367 115.522552 
L 356.407836 114.862023 
L 356.472773 115.522552 
L 356.764991 115.522552 
L 356.79746 114.862023 
L 356.862398 115.522552 
L 361.083329 115.522552 
L 361.115797 116.184703 
L 361.180735 115.522552 
L 361.79764 115.522552 
L 361.830109 116.184703 
L 361.895046 115.522552 
L 362.024921 114.596253 
L 362.122327 114.596253 
L 362.154796 116.184703 
L 362.219733 114.596253 
L 363.031451 114.596253 
L 363.128857 116.184703 
L 363.258732 114.596253 
L 363.8107 114.596253 
L 363.843168 116.184703 
L 363.908106 114.596253 
L 364.232793 114.596253 
L 364.330199 116.184703 
L 364.460074 114.596253 
L 364.492542 114.596253 
L 364.525011 116.184703 
L 364.589948 114.596253 
L 364.622417 114.596253 
L 364.719823 116.184703 
L 364.849698 114.596253 
L 364.947104 114.596253 
L 364.979573 116.184703 
L 365.04451 114.596253 
L 369.55766 114.596253 
L 369.687535 113.071906 
L 369.914815 113.071906 
L 370.04469 114.596253 
L 370.077159 113.071906 
L 370.142096 114.596253 
L 370.174565 114.596253 
L 370.207034 113.071906 
L 370.271971 114.596253 
L 370.434315 114.596253 
L 370.466783 113.071906 
L 370.531721 113.739858 
L 370.596658 113.739858 
L 370.726533 113.071906 
L 371.473313 113.071906 
L 371.538251 113.739858 
L 371.570719 113.071906 
L 371.603188 113.071906 
L 371.733063 113.739858 
L 371.960344 113.739858 
L 372.05775 113.071906 
L 372.187625 113.739858 
L 372.901936 113.739858 
L 372.966873 112.277707 
L 372.999342 113.739858 
L 373.194154 113.739858 
L 373.226623 112.277707 
L 373.29156 113.739858 
L 373.518841 113.739858 
L 373.55131 112.277707 
L 373.616247 113.739858 
L 373.81106 113.739858 
L 373.843528 112.277707 
L 373.908466 112.954127 
L 375.142276 112.954127 
L 375.272151 113.638284 
L 375.30462 113.638284 
L 375.402026 112.954127 
L 375.531901 113.638284 
L 375.629307 112.954127 
L 375.759182 113.638284 
L 375.856588 113.638284 
L 375.889057 112.954127 
L 375.953994 113.638284 
L 376.830649 113.638284 
L 376.960524 115.093913 
L 376.992992 115.093913 
L 377.090398 113.638284 
L 377.220273 115.093913 
L 377.350148 113.638284 
L 377.447554 115.093913 
L 377.577429 113.638284 
L 377.674835 115.093913 
L 377.80471 113.638284 
L 377.837179 113.638284 
L 377.967053 115.093913 
L 379.135927 115.093913 
L 379.200864 113.638284 
L 379.233333 115.093913 
L 380.04505 115.093913 
L 380.174925 113.638284 
L 380.239863 115.093913 
L 380.272331 113.638284 
L 380.434675 113.638284 
L 380.56455 115.093913 
L 380.597018 115.093913 
L 380.726893 113.638284 
L 380.986643 113.638284 
L 381.019111 115.093913 
L 381.084049 113.638284 
L 382.155516 113.638284 
L 382.187985 112.954127 
L 382.252922 113.638284 
L 382.317859 113.638284 
L 382.447734 112.954127 
L 382.577609 113.638284 
L 382.610078 113.638284 
L 382.739953 112.954127 
L 382.772421 112.954127 
L 382.902296 113.638284 
L 382.934765 113.638284 
L 382.967233 112.954127 
L 383.032171 113.638284 
L 383.421795 113.638284 
L 383.519201 112.954127 
L 383.55167 113.638284 
L 383.616607 112.954127 
L 383.649076 112.954127 
L 383.681545 113.638284 
L 383.746482 112.954127 
L 383.81142 112.954127 
L 383.908826 113.638284 
L 383.941294 112.954127 
L 384.006232 113.638284 
L 384.136107 113.638284 
L 384.265982 112.954127 
L 384.29845 112.954127 
L 384.428325 113.638284 
L 384.460794 113.638284 
L 384.5582 112.954127 
L 384.590669 113.638284 
L 384.655606 112.954127 
L 384.688075 112.954127 
L 384.785481 113.638284 
L 384.915356 112.954127 
L 384.947824 112.954127 
L 385.077699 113.638284 
L 385.110168 113.638284 
L 385.240043 112.954127 
L 385.369917 113.638284 
L 385.402386 113.638284 
L 385.532261 112.954127 
L 385.597198 112.954127 
L 385.629667 113.638284 
L 385.694604 112.954127 
L 385.727073 112.954127 
L 385.824479 113.638284 
L 385.954354 112.954127 
L 385.986823 112.954127 
L 386.05176 113.638284 
L 386.084229 112.954127 
L 386.571259 112.954127 
L 386.701134 111.552125 
L 386.733603 111.552125 
L 386.863478 112.954127 
L 387.123227 112.954127 
L 387.253102 112.240305 
L 387.318039 112.240305 
L 387.350508 113.638284 
L 387.415446 112.240305 
L 387.447914 111.552125 
L 387.512852 112.240305 
L 387.577789 112.240305 
L 387.610258 113.638284 
L 387.675195 112.240305 
L 387.707664 111.552125 
L 387.772601 112.240305 
L 387.837539 112.240305 
L 387.902476 111.552125 
L 387.934945 112.240305 
L 387.967413 112.240305 
L 387.999882 111.552125 
L 388.06482 112.240305 
L 388.259632 112.240305 
L 388.324569 111.552125 
L 388.357038 112.240305 
L 388.421975 112.240305 
L 388.55185 111.552125 
L 388.746662 111.552125 
L 388.876537 112.240305 
L 388.909006 111.552125 
L 388.973943 112.240305 
L 389.038881 112.240305 
L 389.168755 111.552125 
L 389.233693 111.552125 
L 389.266162 110.204235 
L 389.331099 111.552125 
L 389.396036 112.240305 
L 389.428505 111.552125 
L 389.460974 111.552125 
L 389.590849 110.204235 
L 389.720723 111.552125 
L 389.785661 111.552125 
L 389.915536 110.204235 
L 390.04541 110.204235 
L 390.077879 111.552125 
L 390.142816 110.204235 
L 390.175285 110.204235 
L 390.207754 111.552125 
L 390.272691 110.204235 
L 390.30516 110.204235 
L 390.435035 111.552125 
L 390.467503 111.552125 
L 390.499972 110.204235 
L 390.56491 111.552125 
L 390.694784 112.240305 
L 390.889597 110.204235 
L 390.922065 110.204235 
L 391.05194 111.552125 
L 391.181815 110.204235 
L 391.214284 110.204235 
L 391.279221 111.552125 
L 391.31169 110.204235 
L 391.506502 110.204235 
L 391.603908 111.552125 
L 391.733783 110.204235 
L 391.863658 111.552125 
L 391.896126 111.552125 
L 392.026001 110.204235 
L 392.285751 110.204235 
L 392.415626 111.552125 
L 392.610438 111.552125 
L 392.740313 110.204235 
L 392.837719 110.204235 
L 392.967593 111.552125 
L 393.097468 110.204235 
L 393.227343 111.552125 
L 393.357218 110.204235 
L 393.422155 112.240305 
L 393.454624 110.204235 
L 393.487093 110.204235 
L 393.616968 111.552125 
L 393.714374 110.204235 
L 393.746842 111.552125 
L 393.81178 110.204235 
L 394.136467 110.204235 
L 394.233873 111.552125 
L 394.266342 110.204235 
L 394.331279 111.552125 
L 394.363748 111.552125 
L 394.461154 110.204235 
L 394.591029 111.552125 
L 394.785841 111.552125 
L 394.850778 110.204235 
L 394.883247 112.240305 
L 394.980653 111.552125 
L 395.078059 111.552125 
L 395.175465 112.240305 
L 395.30534 111.552125 
L 395.370277 111.552125 
L 395.500152 110.204235 
L 395.597558 111.552125 
L 395.662496 110.204235 
L 395.694964 111.552125 
L 395.727433 111.552125 
L 395.857308 110.204235 
L 395.987183 110.204235 
L 396.117058 111.552125 
L 396.246932 110.204235 
L 396.279401 110.204235 
L 396.376807 111.552125 
L 396.506682 110.204235 
L 396.636557 111.552125 
L 396.766432 111.552125 
L 396.7989 112.240305 
L 396.863838 111.552125 
L 396.993712 110.204235 
L 397.123587 111.552125 
L 397.188525 111.552125 
L 397.220993 112.240305 
L 397.285931 111.552125 
L 397.318399 111.552125 
L 397.448274 110.204235 
L 397.54568 110.204235 
L 397.675555 111.552125 
L 397.708024 112.240305 
L 397.772961 111.552125 
L 397.935305 111.552125 
L 397.967774 110.204235 
L 398.032711 111.552125 
L 398.324929 111.552125 
L 398.454804 112.240305 
L 398.487273 112.240305 
L 398.487273 112.240305 
" clip-path="url(#p260c102ed3)" style="fill: none; stroke: #1f77b4; stroke-width: 1.5; stroke-linecap: square"/>
   </g>
   <g id="patch_3">
    <path d="M 57.6 307.584 
L 57.6 41.472 
" style="fill: none; stroke: #000000; stroke-width: 0.8; stroke-linejoin: miter; stroke-linecap: square"/>
   </g>
   <g id="patch_4">
    <path d="M 414.72 307.584 
L 414.72 41.472 
" style="fill: none; stroke: #000000; stroke-width: 0.8; stroke-linejoin: miter; stroke-linecap: square"/>
   </g>
   <g id="patch_5">
    <path d="M 57.6 307.584 
L 414.72 307.584 
" style="fill: none; stroke: #000000; stroke-width: 0.8; stroke-linejoin: miter; stroke-linecap: square"/>
   </g>
   <g id="patch_6">
    <path d="M 57.6 41.472 
L 414.72 41.472 
" style="fill: none; stroke: #000000; stroke-width: 0.8; stroke-linejoin: miter; stroke-linecap: square"/>
   </g>
  </g>
 </g>
 <defs>
  <clipPath id="p260c102ed3">
   <rect x="57.6" y="41.472" width="357.12" height="266.112"/>
  </clipPath>
 </defs>
</svg>
