<?xml version="1.0" encoding="utf-8" standalone="no"?>
<!DOCTYPE svg PUBLIC "-//W3C//DTD SVG 1.1//EN"
  "http://www.w3.org/Graphics/SVG/1.1/DTD/svg11.dtd">
<svg xmlns:xlink="http://www.w3.org/1999/xlink" width="460.8pt" height="345.6pt" viewBox="0 0 460.8 345.6" xmlns="http://www.w3.org/2000/svg" version="1.1">
 <metadata>
  <rdf:RDF xmlns:dc="http://purl.org/dc/elements/1.1/" xmlns:cc="http://creativecommons.org/ns#" xmlns:rdf="http://www.w3.org/1999/02/22-rdf-syntax-ns#">
   <cc:Work>
    <dc:type rdf:resource="http://purl.org/dc/dcmitype/StillImage"/>
    <dc:date>2024-04-27T15:34:27.617214</dc:date>
    <dc:format>image/svg+xml</dc:format>
    <dc:creator>
     <cc:Agent>
      <dc:title>Matplotlib v3.8.2, https://matplotlib.org/</dc:title>
     </cc:Agent>
    </dc:creator>
   </cc:Work>
  </rdf:RDF>
 </metadata>
 <defs>
  <style type="text/css">*{stroke-linejoin: round; stroke-linecap: butt}</style>
 </defs>
 <g id="figure_1">
  <g id="patch_1">
   <path d="M 0 345.6 
L 460.8 345.6 
L 460.8 0 
L 0 0 
z
" style="fill: #ffffff"/>
  </g>
  <g id="axes_1">
   <g id="patch_2">
    <path d="M 57.6 307.584 
L 414.72 307.584 
L 414.72 41.472 
L 57.6 41.472 
z
" style="fill: #ffffff"/>
   </g>
   <g id="matplotlib.axis_1">
    <g id="xtick_1">
     <g id="line2d_1">
      <defs>
       <path id="m7c203076f6" d="M 0 0 
L 0 3.5 
" style="stroke: #000000; stroke-width: 0.8"/>
      </defs>
      <g>
       <use xlink:href="#m7c203076f6" x="73.832727" y="307.584" style="stroke: #000000; stroke-width: 0.8"/>
      </g>
     </g>
     <g id="text_1">
      <!-- 0 -->
      <g transform="translate(70.651477 322.182437) scale(0.1 -0.1)">
       <defs>
        <path id="DejaVuSans-30" d="M 2034 4250 
Q 1547 4250 1301 3770 
Q 1056 3291 1056 2328 
Q 1056 1369 1301 889 
Q 1547 409 2034 409 
Q 2525 409 2770 889 
Q 3016 1369 3016 2328 
Q 3016 3291 2770 3770 
Q 2525 4250 2034 4250 
z
M 2034 4750 
Q 2819 4750 3233 4129 
Q 3647 3509 3647 2328 
Q 3647 1150 3233 529 
Q 2819 -91 2034 -91 
Q 1250 -91 836 529 
Q 422 1150 422 2328 
Q 422 3509 836 4129 
Q 1250 4750 2034 4750 
z
" transform="scale(0.015625)"/>
       </defs>
       <use xlink:href="#DejaVuSans-30"/>
      </g>
     </g>
    </g>
    <g id="xtick_2">
     <g id="line2d_2">
      <g>
       <use xlink:href="#m7c203076f6" x="127.959861" y="307.584" style="stroke: #000000; stroke-width: 0.8"/>
      </g>
     </g>
     <g id="text_2">
      <!-- 500 -->
      <g transform="translate(118.416111 322.182437) scale(0.1 -0.1)">
       <defs>
        <path id="DejaVuSans-35" d="M 691 4666 
L 3169 4666 
L 3169 4134 
L 1269 4134 
L 1269 2991 
Q 1406 3038 1543 3061 
Q 1681 3084 1819 3084 
Q 2600 3084 3056 2656 
Q 3513 2228 3513 1497 
Q 3513 744 3044 326 
Q 2575 -91 1722 -91 
Q 1428 -91 1123 -41 
Q 819 9 494 109 
L 494 744 
Q 775 591 1075 516 
Q 1375 441 1709 441 
Q 2250 441 2565 725 
Q 2881 1009 2881 1497 
Q 2881 1984 2565 2268 
Q 2250 2553 1709 2553 
Q 1456 2553 1204 2497 
Q 953 2441 691 2322 
L 691 4666 
z
" transform="scale(0.015625)"/>
       </defs>
       <use xlink:href="#DejaVuSans-35"/>
       <use xlink:href="#DejaVuSans-30" x="63.623047"/>
       <use xlink:href="#DejaVuSans-30" x="127.246094"/>
      </g>
     </g>
    </g>
    <g id="xtick_3">
     <g id="line2d_3">
      <g>
       <use xlink:href="#m7c203076f6" x="182.086994" y="307.584" style="stroke: #000000; stroke-width: 0.8"/>
      </g>
     </g>
     <g id="text_3">
      <!-- 1000 -->
      <g transform="translate(169.361994 322.182437) scale(0.1 -0.1)">
       <defs>
        <path id="DejaVuSans-31" d="M 794 531 
L 1825 531 
L 1825 4091 
L 703 3866 
L 703 4441 
L 1819 4666 
L 2450 4666 
L 2450 531 
L 3481 531 
L 3481 0 
L 794 0 
L 794 531 
z
" transform="scale(0.015625)"/>
       </defs>
       <use xlink:href="#DejaVuSans-31"/>
       <use xlink:href="#DejaVuSans-30" x="63.623047"/>
       <use xlink:href="#DejaVuSans-30" x="127.246094"/>
       <use xlink:href="#DejaVuSans-30" x="190.869141"/>
      </g>
     </g>
    </g>
    <g id="xtick_4">
     <g id="line2d_4">
      <g>
       <use xlink:href="#m7c203076f6" x="236.214127" y="307.584" style="stroke: #000000; stroke-width: 0.8"/>
      </g>
     </g>
     <g id="text_4">
      <!-- 1500 -->
      <g transform="translate(223.489127 322.182437) scale(0.1 -0.1)">
       <use xlink:href="#DejaVuSans-31"/>
       <use xlink:href="#DejaVuSans-35" x="63.623047"/>
       <use xlink:href="#DejaVuSans-30" x="127.246094"/>
       <use xlink:href="#DejaVuSans-30" x="190.869141"/>
      </g>
     </g>
    </g>
    <g id="xtick_5">
     <g id="line2d_5">
      <g>
       <use xlink:href="#m7c203076f6" x="290.34126" y="307.584" style="stroke: #000000; stroke-width: 0.8"/>
      </g>
     </g>
     <g id="text_5">
      <!-- 2000 -->
      <g transform="translate(277.61626 322.182437) scale(0.1 -0.1)">
       <defs>
        <path id="DejaVuSans-32" d="M 1228 531 
L 3431 531 
L 3431 0 
L 469 0 
L 469 531 
Q 828 903 1448 1529 
Q 2069 2156 2228 2338 
Q 2531 2678 2651 2914 
Q 2772 3150 2772 3378 
Q 2772 3750 2511 3984 
Q 2250 4219 1831 4219 
Q 1534 4219 1204 4116 
Q 875 4013 500 3803 
L 500 4441 
Q 881 4594 1212 4672 
Q 1544 4750 1819 4750 
Q 2544 4750 2975 4387 
Q 3406 4025 3406 3419 
Q 3406 3131 3298 2873 
Q 3191 2616 2906 2266 
Q 2828 2175 2409 1742 
Q 1991 1309 1228 531 
z
" transform="scale(0.015625)"/>
       </defs>
       <use xlink:href="#DejaVuSans-32"/>
       <use xlink:href="#DejaVuSans-30" x="63.623047"/>
       <use xlink:href="#DejaVuSans-30" x="127.246094"/>
       <use xlink:href="#DejaVuSans-30" x="190.869141"/>
      </g>
     </g>
    </g>
    <g id="xtick_6">
     <g id="line2d_6">
      <g>
       <use xlink:href="#m7c203076f6" x="344.468394" y="307.584" style="stroke: #000000; stroke-width: 0.8"/>
      </g>
     </g>
     <g id="text_6">
      <!-- 2500 -->
      <g transform="translate(331.743394 322.182437) scale(0.1 -0.1)">
       <use xlink:href="#DejaVuSans-32"/>
       <use xlink:href="#DejaVuSans-35" x="63.623047"/>
       <use xlink:href="#DejaVuSans-30" x="127.246094"/>
       <use xlink:href="#DejaVuSans-30" x="190.869141"/>
      </g>
     </g>
    </g>
    <g id="xtick_7">
     <g id="line2d_7">
      <g>
       <use xlink:href="#m7c203076f6" x="398.595527" y="307.584" style="stroke: #000000; stroke-width: 0.8"/>
      </g>
     </g>
     <g id="text_7">
      <!-- 3000 -->
      <g transform="translate(385.870527 322.182437) scale(0.1 -0.1)">
       <defs>
        <path id="DejaVuSans-33" d="M 2597 2516 
Q 3050 2419 3304 2112 
Q 3559 1806 3559 1356 
Q 3559 666 3084 287 
Q 2609 -91 1734 -91 
Q 1441 -91 1130 -33 
Q 819 25 488 141 
L 488 750 
Q 750 597 1062 519 
Q 1375 441 1716 441 
Q 2309 441 2620 675 
Q 2931 909 2931 1356 
Q 2931 1769 2642 2001 
Q 2353 2234 1838 2234 
L 1294 2234 
L 1294 2753 
L 1863 2753 
Q 2328 2753 2575 2939 
Q 2822 3125 2822 3475 
Q 2822 3834 2567 4026 
Q 2313 4219 1838 4219 
Q 1578 4219 1281 4162 
Q 984 4106 628 3988 
L 628 4550 
Q 988 4650 1302 4700 
Q 1616 4750 1894 4750 
Q 2613 4750 3031 4423 
Q 3450 4097 3450 3541 
Q 3450 3153 3228 2886 
Q 3006 2619 2597 2516 
z
" transform="scale(0.015625)"/>
       </defs>
       <use xlink:href="#DejaVuSans-33"/>
       <use xlink:href="#DejaVuSans-30" x="63.623047"/>
       <use xlink:href="#DejaVuSans-30" x="127.246094"/>
       <use xlink:href="#DejaVuSans-30" x="190.869141"/>
      </g>
     </g>
    </g>
   </g>
   <g id="matplotlib.axis_2">
    <g id="ytick_1">
     <g id="line2d_8">
      <defs>
       <path id="mf2f449a95c" d="M 0 0 
L -3.5 0 
" style="stroke: #000000; stroke-width: 0.8"/>
      </defs>
      <g>
       <use xlink:href="#mf2f449a95c" x="57.6" y="268.120959" style="stroke: #000000; stroke-width: 0.8"/>
      </g>
     </g>
     <g id="text_8">
      <!-- −150 -->
      <g transform="translate(23.132812 271.920178) scale(0.1 -0.1)">
       <defs>
        <path id="DejaVuSans-2212" d="M 678 2272 
L 4684 2272 
L 4684 1741 
L 678 1741 
L 678 2272 
z
" transform="scale(0.015625)"/>
       </defs>
       <use xlink:href="#DejaVuSans-2212"/>
       <use xlink:href="#DejaVuSans-31" x="83.789062"/>
       <use xlink:href="#DejaVuSans-35" x="147.412109"/>
       <use xlink:href="#DejaVuSans-30" x="211.035156"/>
      </g>
     </g>
    </g>
    <g id="ytick_2">
     <g id="line2d_9">
      <g>
       <use xlink:href="#mf2f449a95c" x="57.6" y="223.975441" style="stroke: #000000; stroke-width: 0.8"/>
      </g>
     </g>
     <g id="text_9">
      <!-- −100 -->
      <g transform="translate(23.132812 227.774659) scale(0.1 -0.1)">
       <use xlink:href="#DejaVuSans-2212"/>
       <use xlink:href="#DejaVuSans-31" x="83.789062"/>
       <use xlink:href="#DejaVuSans-30" x="147.412109"/>
       <use xlink:href="#DejaVuSans-30" x="211.035156"/>
      </g>
     </g>
    </g>
    <g id="ytick_3">
     <g id="line2d_10">
      <g>
       <use xlink:href="#mf2f449a95c" x="57.6" y="179.829922" style="stroke: #000000; stroke-width: 0.8"/>
      </g>
     </g>
     <g id="text_10">
      <!-- −50 -->
      <g transform="translate(29.495313 183.629141) scale(0.1 -0.1)">
       <use xlink:href="#DejaVuSans-2212"/>
       <use xlink:href="#DejaVuSans-35" x="83.789062"/>
       <use xlink:href="#DejaVuSans-30" x="147.412109"/>
      </g>
     </g>
    </g>
    <g id="ytick_4">
     <g id="line2d_11">
      <g>
       <use xlink:href="#mf2f449a95c" x="57.6" y="135.684404" style="stroke: #000000; stroke-width: 0.8"/>
      </g>
     </g>
     <g id="text_11">
      <!-- 0 -->
      <g transform="translate(44.2375 139.483622) scale(0.1 -0.1)">
       <use xlink:href="#DejaVuSans-30"/>
      </g>
     </g>
    </g>
    <g id="ytick_5">
     <g id="line2d_12">
      <g>
       <use xlink:href="#mf2f449a95c" x="57.6" y="91.538885" style="stroke: #000000; stroke-width: 0.8"/>
      </g>
     </g>
     <g id="text_12">
      <!-- 50 -->
      <g transform="translate(37.875 95.338104) scale(0.1 -0.1)">
       <use xlink:href="#DejaVuSans-35"/>
       <use xlink:href="#DejaVuSans-30" x="63.623047"/>
      </g>
     </g>
    </g>
    <g id="ytick_6">
     <g id="line2d_13">
      <g>
       <use xlink:href="#mf2f449a95c" x="57.6" y="47.393367" style="stroke: #000000; stroke-width: 0.8"/>
      </g>
     </g>
     <g id="text_13">
      <!-- 100 -->
      <g transform="translate(31.5125 51.192586) scale(0.1 -0.1)">
       <use xlink:href="#DejaVuSans-31"/>
       <use xlink:href="#DejaVuSans-30" x="63.623047"/>
       <use xlink:href="#DejaVuSans-30" x="127.246094"/>
      </g>
     </g>
    </g>
   </g>
   <g id="line2d_14">
    <path d="M 73.832727 228.903541 
L 74.049236 132.044981 
L 74.15749 137.015634 
L 74.265744 236.040859 
L 74.482253 139.766078 
L 74.590507 128.841808 
L 74.698761 136.934549 
L 74.807016 129.434662 
L 75.023524 136.463736 
L 75.131778 135.237561 
L 75.240033 136.604445 
L 75.348287 88.475073 
L 75.564796 136.934549 
L 75.67305 133.607101 
L 75.781304 136.934549 
L 75.889558 134.092874 
L 75.997813 97.487495 
L 76.214321 135.05651 
L 76.322575 227.285481 
L 76.43083 134.802552 
L 76.539084 137.837981 
L 76.647338 91.360632 
L 76.972101 189.406099 
L 77.18861 134.937663 
L 77.296864 145.138327 
L 77.405118 138.762137 
L 77.513372 161.973269 
L 77.729881 224.604652 
L 77.838135 135.306501 
L 77.946389 149.148591 
L 78.054644 138.597137 
L 78.271152 153.980366 
L 78.379406 200.388527 
L 78.487661 135.39322 
L 78.704169 205.66984 
L 78.812424 205.66984 
L 79.028932 137.542393 
L 79.245441 135.684404 
L 79.353695 135.73791 
L 79.461949 142.099946 
L 79.678458 138.259211 
L 79.786712 138.259199 
L 80.00322 148.365153 
L 80.219729 138.259211 
L 80.327983 138.127342 
L 80.436238 137.423893 
L 80.544492 131.950219 
L 80.652746 135.849618 
L 80.869255 135.73791 
L 80.977509 135.73791 
L 81.085763 135.907927 
L 81.302272 135.684404 
L 81.735289 135.684404 
L 81.843543 135.849618 
L 82.060052 135.684404 
L 82.168306 135.632396 
L 82.27656 135.73791 
L 82.384814 135.684404 
L 82.493069 135.849618 
L 82.601323 135.73791 
L 82.709577 131.859836 
L 82.817831 135.73791 
L 83.03434 131.833662 
L 83.142594 153.484518 
L 83.467357 138.259199 
L 83.79212 138.259199 
L 84.008628 146.527707 
L 84.116883 138.259199 
L 84.225137 146.527707 
L 84.441645 136.360379 
L 84.5499 153.281856 
L 84.658154 109.823749 
L 84.766408 113.693018 
L 84.982917 141.887348 
L 85.199425 130.421901 
L 85.30768 82.134442 
L 85.524188 129.82599 
L 85.740697 118.242218 
L 85.848951 148.615099 
L 85.957205 120.101578 
L 86.065459 185.156906 
L 86.173714 149.090924 
L 86.498476 155.327963 
L 86.606731 161.715972 
L 86.823239 134.081343 
L 87.472765 134.081343 
L 87.581019 131.219692 
L 87.689273 135.003606 
L 87.797528 134.816055 
L 88.014036 136.595856 
L 88.230545 135.484893 
L 88.338799 136.158882 
L 88.447053 135.907927 
L 88.555308 136.029738 
L 88.663562 136.595856 
L 88.988325 170.595936 
L 89.096579 136.295887 
L 89.204833 164.298362 
L 89.313087 104.327711 
L 89.529596 203.975143 
L 89.63785 128.983405 
L 89.854359 146.6369 
L 89.962613 146.36863 
L 90.070867 148.769763 
L 90.179122 110.606204 
L 90.39563 136.011709 
L 90.503884 100.613632 
L 90.612139 150.190217 
L 90.720393 140.540467 
L 90.828647 88.467255 
L 91.045156 155.48045 
L 91.15341 167.204189 
L 91.261664 147.174632 
L 91.369918 100.789601 
L 91.478173 141.531952 
L 91.694681 260.092842 
L 91.802936 260.127462 
L 91.91119 109.277414 
L 92.019444 260.081427 
L 92.235953 121.51135 
L 92.344207 147.607175 
L 92.452461 106.834807 
L 92.560715 116.079735 
L 92.66897 198.006632 
L 92.777224 147.677527 
L 92.885478 260.150948 
L 92.993732 255.977862 
L 93.101987 141.035812 
L 93.210241 260.127462 
L 93.42675 116.117648 
L 93.535004 260.16284 
L 93.643258 216.047532 
L 93.751512 254.308811 
L 93.859767 147.607175 
L 93.968021 260.11585 
L 94.076275 141.013667 
L 94.184529 141.531939 
L 94.292784 147.607175 
L 94.401038 136.595856 
L 94.509292 260.16284 
L 94.617546 147.53822 
L 94.725801 260.150948 
L 94.834055 147.53822 
L 95.050564 260.11585 
L 95.158818 141.128846 
L 95.267072 147.53822 
L 95.375326 260.11585 
L 95.591835 147.53822 
L 95.700089 147.53822 
L 95.808343 260.11585 
L 95.916598 260.104313 
L 96.024852 147.470451 
L 96.133106 147.5042 
L 96.24136 260.104313 
L 96.349615 260.092842 
L 96.566123 260.070059 
L 96.674378 147.470451 
L 96.782632 151.76294 
L 96.890886 260.104313 
L 97.107395 93.979301 
L 97.323903 275.602503 
L 97.432157 260.081427 
L 97.540412 147.470451 
L 97.648666 147.5042 
L 97.75692 92.585369 
L 97.865174 122.591304 
L 97.973429 260.16284 
L 98.081683 150.918674 
L 98.189937 260.199226 
L 98.406446 122.799533 
L 98.5147 260.174844 
L 98.622954 260.139158 
L 98.839463 260.150948 
L 98.947717 156.264928 
L 99.055971 260.127462 
L 99.27248 147.470451 
L 99.380734 136.595856 
L 99.488988 147.5042 
L 99.597243 126.978456 
L 99.813751 260.11585 
L 99.922006 295.488 
L 100.03026 151.814321 
L 100.138514 260.092842 
L 100.246768 154.605488 
L 100.355023 260.104313 
L 100.463277 144.499533 
L 100.571531 147.40366 
L 100.679785 260.104313 
L 100.78804 147.436946 
L 100.896294 260.081427 
L 101.112802 147.272193 
L 101.221057 117.076189 
L 101.437565 147.337642 
L 101.54582 133.164858 
L 101.654074 147.272193 
L 101.762328 99.723361 
L 101.870582 264.013067 
L 101.978837 149.800448 
L 102.087091 249.566765 
L 102.303599 142.861688 
L 102.520108 150.330212 
L 102.628362 168.847195 
L 102.736616 151.637893 
L 102.844871 173.855919 
L 103.061379 139.136737 
L 103.169634 127.119009 
L 103.277888 173.855919 
L 103.386142 139.971653 
L 103.602651 151.637893 
L 103.819159 147.142171 
L 104.035668 141.531952 
L 104.143922 141.531952 
L 104.252176 186.558719 
L 104.36043 139.136737 
L 104.468685 151.637893 
L 104.576939 139.136737 
L 104.793448 142.861688 
L 104.901702 140.869027 
L 105.009956 141.531939 
L 105.11821 151.637893 
L 105.226465 141.531952 
L 105.442973 173.855919 
L 105.659482 141.531952 
L 105.767736 141.531952 
L 105.87599 203.975143 
L 106.200753 141.831433 
L 106.309007 141.531952 
L 106.417262 181.893936 
L 106.525516 143.488642 
L 106.742024 255.977862 
L 106.958533 138.259211 
L 107.066787 141.531952 
L 107.175041 138.259211 
L 107.283296 141.531939 
L 107.39155 138.259211 
L 107.499804 149.800448 
L 107.716313 141.531952 
L 107.824567 141.531939 
L 107.932821 138.259211 
L 108.14933 141.531952 
L 108.257584 141.531939 
L 108.474093 149.800448 
L 108.690601 138.259211 
L 108.798855 141.531939 
L 108.90711 138.259211 
L 109.015364 149.800448 
L 109.123618 264.505631 
L 109.340127 141.531952 
L 109.448381 149.800448 
L 109.556635 138.259211 
L 109.66489 141.531939 
L 109.881398 149.800448 
L 109.989652 138.259211 
L 110.206161 141.531939 
L 110.314415 138.259211 
L 110.530924 141.531939 
L 110.639178 136.226367 
L 110.747432 149.800448 
L 110.855686 249.566765 
L 111.072195 136.226367 
L 111.180449 264.505631 
L 111.396958 149.800448 
L 111.613466 138.259211 
L 111.721721 146.83891 
L 111.938229 141.531939 
L 112.262992 141.531939 
L 112.371246 249.742214 
L 112.4795 249.566765 
L 112.587755 249.566765 
L 112.696009 138.259211 
L 112.804263 141.531939 
L 112.912518 248.336184 
L 113.020772 136.158882 
L 113.129026 138.259211 
L 113.23728 138.259211 
L 113.345535 149.800448 
L 113.562043 125.010048 
L 113.778552 138.259211 
L 113.886806 124.439848 
L 114.211569 149.800448 
L 114.319823 136.093361 
L 114.428077 149.800448 
L 114.644586 249.916013 
L 114.75284 149.800448 
L 114.861094 249.652068 
L 114.969349 138.259211 
L 115.077603 258.994617 
L 115.185857 136.093361 
L 115.294111 249.742214 
L 115.402366 136.093361 
L 115.51062 149.800448 
L 115.618874 141.531939 
L 115.727128 250.41496 
L 115.835383 141.531939 
L 115.943637 149.800448 
L 116.051891 136.158882 
L 116.160146 138.259211 
L 116.2684 149.800448 
L 116.376654 136.093361 
L 116.484908 136.226367 
L 116.593163 136.226367 
L 116.701417 141.531939 
L 116.809671 249.486484 
L 116.917925 136.158882 
L 117.02618 136.226367 
L 117.242688 136.029738 
L 117.350942 136.158882 
L 117.459197 141.531939 
L 117.567451 249.566765 
L 117.675705 248.405009 
L 117.892214 131.704909 
L 118.000468 141.531939 
L 118.108722 138.259211 
L 118.216977 249.652068 
L 118.433485 136.226367 
L 118.541739 136.158882 
L 118.758248 149.800448 
L 118.866502 249.742214 
L 118.974756 119.389267 
L 119.083011 249.936338 
L 119.299519 135.967947 
L 119.516028 262.639683 
L 119.624282 135.849618 
L 119.732536 139.28733 
L 119.840791 135.484893 
L 119.949045 135.581839 
L 120.057299 135.684404 
L 120.165553 251.304306 
L 120.382062 135.39322 
L 120.490316 135.581839 
L 120.59857 135.484893 
L 120.706825 135.684404 
L 120.815079 139.28733 
L 121.031587 110.608489 
L 121.248096 135.684404 
L 121.35635 135.792964 
L 121.464605 135.73791 
L 121.681113 253.520021 
L 121.789367 141.531939 
L 121.897622 145.09696 
L 122.005876 250.147772 
L 122.222384 119.055818 
L 122.330639 152.768042 
L 122.438893 249.936338 
L 122.655401 143.792892 
L 122.763656 250.955807 
L 122.980164 141.531939 
L 123.088419 149.800448 
L 123.196673 144.499546 
L 123.304927 254.371948 
L 123.413181 125.893569 
L 123.521436 255.261903 
L 123.62969 125.893569 
L 123.737944 138.259211 
L 123.846198 136.029738 
L 123.954453 53.568 
L 124.170961 249.916013 
L 124.38747 67.67597 
L 124.603978 138.259211 
L 124.712233 141.531939 
L 124.820487 263.629909 
L 125.036995 141.531939 
L 125.14525 64.354188 
L 125.253504 258.994617 
L 125.361758 136.029738 
L 125.470012 152.768042 
L 125.578267 66.617198 
L 125.686521 141.531939 
L 125.794775 68.29255 
L 126.011284 141.531939 
L 126.119538 136.029738 
L 126.227792 141.531939 
L 126.336047 136.158882 
L 126.552555 250.41496 
L 126.660809 152.768042 
L 126.769064 249.566765 
L 126.877318 248.405009 
L 127.093826 138.259211 
L 127.202081 138.259211 
L 127.310335 249.411405 
L 127.418589 138.259211 
L 127.526843 149.800448 
L 127.743352 116.16421 
L 127.959861 138.259211 
L 128.068115 141.531939 
L 128.176369 115.993366 
L 128.392878 138.259211 
L 128.609386 115.993366 
L 128.71764 141.531939 
L 128.825895 127.377121 
L 128.934149 140.331697 
L 129.042403 127.377121 
L 129.150657 141.531939 
L 129.258912 127.103988 
L 129.47542 138.259211 
L 129.691929 141.531939 
L 129.908437 116.902382 
L 130.016692 117.102297 
L 130.124946 209.599844 
L 130.341454 124.96756 
L 130.557963 141.531939 
L 130.666217 141.531939 
L 130.774471 138.259211 
L 130.882726 152.768042 
L 130.99098 149.800448 
L 131.099234 117.3096 
L 131.315743 136.158882 
L 131.423997 136.158882 
L 131.640506 136.029738 
L 131.74876 136.029738 
L 131.857014 135.907927 
L 132.181777 136.295887 
L 132.398285 136.029738 
L 132.50654 136.158882 
L 132.614794 136.029738 
L 132.939557 136.295887 
L 133.372574 136.295887 
L 133.480828 136.158882 
L 133.697337 136.441334 
L 133.913845 136.295887 
L 134.022099 117.992103 
L 134.130354 136.295887 
L 134.238608 136.158882 
L 134.346862 136.295887 
L 134.455117 136.029738 
L 134.563371 136.158882 
L 134.671625 135.907927 
L 134.779879 136.295887 
L 134.996388 136.158882 
L 135.212896 136.158882 
L 135.429405 136.029738 
L 136.295439 136.029738 
L 136.620202 136.295887 
L 136.728456 136.158882 
L 136.944965 136.295887 
L 137.919253 136.295887 
L 138.027507 136.441334 
L 138.244016 136.295887 
L 138.460524 136.441334 
L 138.677033 136.295887 
L 138.785287 136.295887 
L 138.893541 136.029738 
L 139.11005 136.158882 
L 139.218304 136.029738 
L 139.326559 136.158882 
L 139.543067 135.907927 
L 139.759576 136.158882 
L 139.86783 136.029738 
L 139.976084 136.158882 
L 140.084338 136.029738 
L 140.192593 136.295887 
L 140.300847 136.158882 
L 140.517355 136.441334 
L 140.842118 135.792964 
L 140.950373 135.792964 
L 141.166881 135.907927 
L 141.491644 135.907927 
L 141.599898 136.029738 
L 141.816407 135.792964 
L 142.141169 135.792964 
L 142.357678 135.907927 
L 142.465932 135.792964 
L 142.682441 136.029738 
L 142.790695 135.792964 
L 143.007204 136.029738 
L 143.223712 135.792964 
L 143.331966 135.792964 
L 143.548475 135.907927 
L 143.656729 135.684404 
L 143.764983 135.792964 
L 143.873238 135.684404 
L 144.306255 136.158882 
L 144.414509 135.907927 
L 144.522763 136.158882 
L 144.631018 136.029738 
L 144.739272 136.441334 
L 144.95578 136.158882 
L 145.064035 136.158882 
L 145.172289 136.595856 
L 145.280543 136.441334 
L 145.388797 136.029738 
L 145.497052 136.295887 
L 145.71356 136.029738 
L 146.146577 135.684404 
L 146.796103 135.792964 
L 147.012611 135.907927 
L 147.22912 135.684404 
L 148.636425 135.581839 
L 148.74468 135.484893 
L 148.852934 135.581839 
L 149.069443 135.484893 
L 149.285951 135.684404 
L 149.394205 136.158882 
L 149.610714 135.581839 
L 150.260239 135.684404 
L 150.585002 135.907927 
L 150.801511 136.441334 
L 151.234528 136.441334 
L 151.342782 136.595856 
L 151.451036 136.441334 
L 151.667545 136.595856 
L 151.992308 136.595856 
L 152.100562 136.441334 
L 152.317071 136.595856 
L 152.533579 135.684404 
L 153.291359 135.792964 
L 153.507867 135.907927 
L 153.724376 135.907927 
L 153.940885 135.684404 
L 154.157393 135.581839 
L 154.373902 136.158882 
L 154.482156 136.158882 
L 154.59041 135.907927 
L 154.806919 136.029738 
L 155.023427 136.029738 
L 155.131681 136.158882 
L 155.239936 135.907927 
L 155.456444 136.029738 
L 155.564699 136.029738 
L 155.672953 135.907927 
L 156.214224 136.441334 
L 156.647241 136.441334 
L 156.86375 136.595856 
L 157.946292 136.595856 
L 158.054547 136.760149 
L 158.162801 136.595856 
L 158.379309 136.760149 
L 158.812327 136.760149 
L 159.028835 136.934978 
L 159.245344 136.760149 
L 159.353598 136.934978 
L 159.570106 136.760149 
L 159.786615 136.760149 
L 160.003123 136.934978 
L 160.760903 136.934978 
L 160.977412 136.760149 
L 161.19392 136.934978 
L 161.410429 136.760149 
L 161.626937 137.121186 
L 161.735192 137.121186 
L 161.843446 136.295887 
L 162.059955 136.934978 
L 162.168209 137.121186 
L 162.384717 136.934978 
L 162.492972 137.121186 
L 162.70948 136.760149 
L 162.925989 137.121186 
L 163.250751 136.760149 
L 163.575514 137.121186 
L 163.683769 136.934978 
L 163.900277 137.121186 
L 164.008531 137.121186 
L 164.116786 136.760149 
L 164.441548 137.319702 
L 164.658057 137.121186 
L 165.199328 137.121186 
L 165.307583 136.760149 
L 165.415837 136.934978 
L 165.524091 136.760149 
L 165.7406 137.121186 
L 165.848854 137.121186 
L 165.957108 136.934978 
L 166.065362 137.319702 
L 166.281871 137.121186 
L 166.498379 137.319702 
L 166.714888 136.934978 
L 166.823142 136.934978 
L 167.039651 137.319702 
L 167.147905 136.934978 
L 167.364414 137.121186 
L 167.472668 137.121186 
L 167.689176 136.934978 
L 167.797431 137.319702 
L 168.013939 137.121186 
L 168.122193 137.121186 
L 168.230448 137.319702 
L 168.338702 136.595856 
L 168.555211 136.760149 
L 168.663465 137.319702 
L 168.879973 136.595856 
L 168.988228 137.319702 
L 169.204736 136.934978 
L 169.31299 137.319702 
L 169.421245 137.121186 
L 169.637753 137.319702 
L 170.395533 137.319702 
L 170.612042 137.121186 
L 170.82855 137.121186 
L 170.936804 137.319702 
L 171.045059 136.934978 
L 171.261567 137.319702 
L 171.369821 137.121186 
L 171.478076 137.319702 
L 171.58633 137.121186 
L 171.802839 137.319702 
L 172.019347 137.121186 
L 172.127601 137.319702 
L 172.235856 147.142171 
L 172.452364 137.319702 
L 172.993635 137.319702 
L 173.10189 137.121186 
L 173.318398 137.319702 
L 174.509195 137.319702 
L 174.617449 137.531555 
L 174.833958 136.934978 
L 175.050467 137.319702 
L 175.158721 137.121186 
L 175.375229 137.531555 
L 175.483484 137.319702 
L 175.591738 137.531555 
L 175.808246 137.319702 
L 175.916501 137.319702 
L 176.024755 137.531555 
L 176.241263 137.319702 
L 176.566026 137.319702 
L 176.674281 137.531555 
L 176.890789 137.319702 
L 177.107298 137.319702 
L 177.215552 137.531555 
L 177.43206 137.121186 
L 177.756823 137.531555 
L 177.973332 137.319702 
L 178.081586 137.531555 
L 178.298095 137.319702 
L 178.406349 137.319702 
L 178.514603 137.531555 
L 178.622857 137.319702 
L 178.839366 137.531555 
L 179.055874 137.531555 
L 179.272383 137.319702 
L 179.380637 137.319702 
L 179.488891 137.531555 
L 179.7054 137.319702 
L 179.813654 137.319702 
L 179.921909 137.531555 
L 180.030163 137.319702 
L 180.246671 137.531555 
L 180.354926 137.531555 
L 180.46318 137.319702 
L 180.679688 137.531555 
L 181.653977 137.531555 
L 181.762231 137.319702 
L 182.086994 137.757886 
L 182.303502 137.531555 
L 182.736519 137.531555 
L 182.953028 137.757886 
L 183.061282 137.531555 
L 183.169537 137.757886 
L 183.386045 137.531555 
L 183.494299 137.531555 
L 183.710808 137.757886 
L 183.819062 137.531555 
L 184.035571 137.757886 
L 184.360333 137.757886 
L 184.468588 137.531555 
L 184.685096 137.757886 
L 185.334622 137.757886 
L 185.55113 137.531555 
L 185.659385 137.531555 
L 185.767639 137.757886 
L 185.875893 137.531555 
L 186.092402 137.999963 
L 186.30891 137.757886 
L 186.417165 137.757886 
L 186.633673 137.999963 
L 186.741927 137.757886 
L 186.850182 137.999963 
L 187.06669 137.757886 
L 187.174944 137.757886 
L 187.283199 137.999963 
L 187.499707 137.757886 
L 187.607961 137.999963 
L 187.82447 137.757886 
L 188.040979 137.999963 
L 188.257487 137.999963 
L 188.473996 138.259199 
L 188.58225 137.999963 
L 188.798758 138.259199 
L 188.907013 137.757886 
L 189.015267 138.259199 
L 189.123521 137.999963 
L 189.34003 138.259199 
L 189.448284 138.259199 
L 189.556538 137.999963 
L 189.773047 138.259199 
L 198.974659 138.259199 
L 199.299422 137.531555 
L 199.407676 137.531555 
L 199.515931 137.121186 
L 199.732439 137.319702 
L 199.840694 137.319702 
L 199.948948 137.121186 
L 200.165456 137.319702 
L 200.923236 137.319702 
L 201.139745 137.121186 
L 201.247999 137.319702 
L 201.356253 137.121186 
L 201.572762 137.319702 
L 203.30483 137.319702 
L 203.521339 137.121186 
L 203.629593 137.121186 
L 203.846101 137.319702 
L 203.954356 137.319702 
L 204.170864 137.121186 
L 204.279118 137.319702 
L 204.495627 137.121186 
L 204.712136 137.319702 
L 204.82039 137.121186 
L 205.036898 137.319702 
L 205.57817 137.319702 
L 205.794678 137.121186 
L 206.011187 137.319702 
L 206.119441 137.121186 
L 206.33595 137.319702 
L 206.985475 137.319702 
L 207.201984 137.121186 
L 207.310238 137.531555 
L 207.526746 137.319702 
L 207.635001 137.531555 
L 207.851509 137.121186 
L 208.068018 137.319702 
L 208.176272 137.319702 
L 208.392781 137.121186 
L 208.501035 137.531555 
L 208.717543 137.319702 
L 209.042306 137.319702 
L 209.15056 137.531555 
L 209.475323 137.121186 
L 209.691832 137.319702 
L 209.90834 137.319702 
L 210.016595 137.121186 
L 210.233103 137.531555 
L 210.341357 137.319702 
L 210.449612 137.531555 
L 210.66612 137.319702 
L 210.882629 137.531555 
L 210.990883 137.531555 
L 211.207392 137.121186 
L 211.532154 137.121186 
L 211.856917 136.760149 
L 211.965171 137.121186 
L 212.073426 136.934978 
L 212.289934 137.121186 
L 212.398188 137.121186 
L 212.614697 136.934978 
L 212.722951 136.934978 
L 212.831206 137.121186 
L 213.155968 136.760149 
L 213.264223 136.760149 
L 213.480731 136.934978 
L 213.588985 136.934978 
L 213.805494 136.760149 
L 214.022002 136.934978 
L 214.130257 136.934978 
L 214.238511 136.760149 
L 214.346765 136.934978 
L 214.45502 136.760149 
L 214.563274 136.934978 
L 214.779782 136.760149 
L 215.645816 136.760149 
L 215.754071 136.934978 
L 215.970579 136.760149 
L 216.511851 136.760149 
L 216.620105 136.295887 
L 216.944868 71.851654 
L 217.053122 71.851654 
L 217.161376 69.271618 
L 217.377885 82.938152 
L 218.460427 67.536625 
L 218.568682 67.536625 
L 218.893444 63.859213 
L 219.001699 60.314972 
L 219.109953 62.665009 
L 219.326462 59.156286 
L 219.434716 60.314972 
L 219.651224 59.156286 
L 221.383293 59.156286 
L 221.708055 84.556151 
L 221.924564 81.365753 
L 222.032818 81.365753 
L 222.141072 79.835718 
L 222.249327 82.938152 
L 222.357581 81.365753 
L 222.57409 86.223246 
L 222.790598 86.223246 
L 223.764886 101.864302 
L 223.873141 99.633828 
L 224.414412 111.878988 
L 224.630921 117.698573 
L 224.739175 109.431396 
L 224.847429 155.527182 
L 225.063938 142.446944 
L 225.280446 144.80804 
L 225.496955 144.80804 
L 225.605209 149.939648 
L 225.821718 140.072772 
L 226.14648 140.072772 
L 226.254735 135.684404 
L 226.362989 119.312894 
L 226.471243 120.861456 
L 226.579497 119.429177 
L 226.687752 120.861456 
L 226.796006 119.312894 
L 227.120769 122.460329 
L 227.337277 122.357098 
L 227.445532 122.357098 
L 227.66204 120.754847 
L 227.878549 122.357098 
L 228.203311 122.357098 
L 228.311566 127.585718 
L 228.41982 119.312894 
L 228.636328 123.088611 
L 228.744583 117.502062 
L 228.852837 117.90968 
L 228.961091 116.834037 
L 229.069346 118.703741 
L 229.1776 115.493938 
L 229.394108 116.939425 
L 229.502363 115.755471 
L 229.610617 116.939425 
L 229.827125 116.63504 
L 229.93538 116.939425 
L 230.043634 116.574998 
L 230.368397 118.732737 
L 230.476651 117.408578 
L 230.909668 120.807762 
L 231.017922 120.807762 
L 231.126177 119.788116 
L 231.667448 124.465563 
L 231.883956 123.212793 
L 231.992211 123.212793 
L 232.208719 125.223903 
L 232.425228 123.309915 
L 232.533482 125.223903 
L 232.641736 124.438141 
L 232.749991 125.038347 
L 232.858245 123.920827 
L 233.074753 125.038347 
L 233.291262 124.020925 
L 233.50777 124.759413 
L 233.616025 124.65622 
L 233.724279 125.761672 
L 233.940788 125.420307 
L 234.049042 125.420307 
L 234.157296 126.110597 
L 234.26555 125.420307 
L 234.482059 126.110597 
L 234.590313 125.420307 
L 234.806822 126.110597 
L 235.348093 126.21453 
L 235.564602 126.933279 
L 235.672856 126.21453 
L 235.889364 126.933279 
L 235.997619 126.83184 
L 236.214127 126.933279 
L 237.404924 126.933279 
L 237.513178 125.921767 
L 237.729687 126.933279 
L 237.946195 125.921767 
L 238.05445 127.684651 
L 238.379212 125.921767 
L 238.487467 125.921767 
L 238.595721 127.040449 
L 238.703975 126.029778 
L 238.81223 127.684651 
L 239.028738 126.933279 
L 239.136992 127.684651 
L 239.353501 126.029778 
L 239.461755 125.921767 
L 239.570009 127.789205 
L 239.786518 126.029778 
L 240.003026 127.684651 
L 240.111281 127.684651 
L 240.327789 126.029778 
L 240.544298 127.789205 
L 240.760806 127.684651 
L 240.869061 126.029778 
L 241.085569 127.789205 
L 241.518586 127.789205 
L 241.62684 126.143983 
L 241.735095 127.899755 
L 241.951603 127.789205 
L 242.492875 127.789205 
L 242.601129 126.029778 
L 242.817637 127.789205 
L 242.925892 126.143983 
L 243.1424 127.789205 
L 243.791926 127.789205 
L 244.008434 126.143983 
L 245.740503 126.143983 
L 245.848757 125.417606 
L 246.065265 126.143983 
L 247.147808 126.143983 
L 247.364317 125.921767 
L 247.580825 127.492062 
L 247.797334 125.722803 
L 247.905588 125.722803 
L 248.013842 127.492062 
L 248.230351 125.722803 
L 248.446859 125.631162 
L 248.555114 127.403367 
L 248.771622 125.631162 
L 249.312893 125.544336 
L 249.529402 123.827782 
L 249.74591 122.166661 
L 249.854165 125.544336 
L 250.070673 122.166661 
L 250.178928 122.166661 
L 250.287182 122.902593 
L 250.395436 118.882744 
L 250.611945 122.166661 
L 250.720199 122.166661 
L 250.828453 119.656018 
L 251.477979 123.917485 
L 251.586233 123.917485 
L 251.694487 122.259318 
L 251.910996 123.917485 
L 252.01925 122.259318 
L 252.127504 124.012152 
L 252.235759 123.917485 
L 252.452267 124.012152 
L 252.560521 124.012152 
L 252.77703 125.722803 
L 253.210047 125.722803 
L 253.318301 124.012152 
L 253.426556 125.819561 
L 253.53481 124.012152 
L 253.643064 125.722803 
L 253.751318 124.112101 
L 253.859573 125.722803 
L 254.076081 124.012152 
L 254.29259 125.819561 
L 254.833861 125.819561 
L 254.942115 124.112101 
L 255.266878 127.585718 
L 255.483387 125.819561 
L 255.591641 127.585718 
L 255.808149 125.819561 
L 255.916404 127.585718 
L 256.132912 125.819561 
L 256.349421 125.819561 
L 256.457675 127.585718 
L 256.674184 125.819561 
L 257.107201 125.819561 
L 257.215455 127.585718 
L 257.431963 125.819561 
L 257.540218 125.819561 
L 257.648472 127.585718 
L 257.86498 125.819561 
L 258.189743 125.921767 
L 258.406252 127.684651 
L 258.62276 127.684651 
L 258.839269 125.921767 
L 258.947523 127.684651 
L 259.055777 125.921767 
L 259.272286 127.789205 
L 259.488794 127.684651 
L 259.813557 127.684651 
L 259.921812 125.921767 
L 260.13832 127.684651 
L 260.8961 127.585718 
L 261.112608 125.819561 
L 261.65388 125.722803 
L 261.870388 124.012152 
L 261.978643 124.012152 
L 262.086897 122.357098 
L 262.195151 124.012152 
L 262.41166 122.357098 
L 262.519914 122.357098 
L 262.628168 124.012152 
L 263.061185 118.999719 
L 263.277694 117.488884 
L 263.385948 117.488884 
L 263.602457 116.02342 
L 264.468491 116.02342 
L 264.684999 114.498137 
L 264.793254 114.60123 
L 265.009762 116.02342 
L 265.118016 114.60123 
L 265.334525 116.02342 
L 265.442779 116.02342 
L 265.551033 114.60123 
L 265.767542 117.488884 
L 265.875796 116.02342 
L 265.98405 116.128751 
L 266.417068 120.754847 
L 266.525322 120.653867 
L 266.74183 120.754847 
L 266.850085 122.259318 
L 267.066593 120.754847 
L 267.283102 120.653867 
L 267.391356 119.098536 
L 267.607864 120.754847 
L 267.932627 120.754847 
L 268.040882 122.357098 
L 268.25739 120.653867 
L 268.473899 120.754847 
L 268.690407 120.653867 
L 268.798661 119.202809 
L 269.231678 124.112101 
L 269.448187 124.217674 
L 269.556441 127.684651 
L 269.664696 124.217674 
L 269.989458 127.684651 
L 270.314221 124.112101 
L 270.747238 124.217674 
L 270.963747 125.921767 
L 271.180255 125.819561 
L 271.28851 124.217674 
L 271.505018 125.921767 
L 271.613272 125.819561 
L 271.721527 124.112101 
L 271.829781 125.819561 
L 271.938035 124.112101 
L 272.046289 124.217674 
L 272.262798 127.684651 
L 272.479306 125.819561 
L 272.587561 124.112101 
L 272.804069 125.921767 
L 272.912324 125.921767 
L 273.128832 127.684651 
L 273.345341 124.217674 
L 273.561849 127.789205 
L 273.778358 127.789205 
L 273.994866 129.61077 
L 274.10312 127.684651 
L 274.319629 127.789205 
L 274.536138 122.935383 
L 274.752646 121.493116 
L 275.077409 124.704161 
L 275.185663 124.704161 
L 275.293917 126.392702 
L 275.402172 124.704161 
L 275.510426 124.844139 
L 275.61868 124.704161 
L 275.726934 126.392702 
L 275.943443 129.950774 
L 276.268206 129.950774 
L 276.484714 128.140497 
L 276.809477 128.140497 
L 277.025986 129.950774 
L 277.567257 129.950774 
L 277.675511 129.830963 
L 277.89202 129.950774 
L 278.216783 129.950774 
L 278.325037 133.773052 
L 278.541545 129.950774 
L 278.6498 131.827028 
L 278.866308 129.950774 
L 278.974562 129.950774 
L 279.082817 129.830963 
L 279.299325 129.950774 
L 279.624088 129.950774 
L 279.840597 131.827028 
L 280.381868 131.827028 
L 280.598376 129.830963 
L 280.706631 129.830963 
L 280.923139 129.950774 
L 281.031393 129.830963 
L 281.139648 129.950774 
L 281.247902 129.830963 
L 281.356156 129.950774 
L 281.572665 131.827028 
L 281.789173 131.71108 
L 282.005682 133.660853 
L 282.22219 131.71108 
L 282.330445 131.71108 
L 282.438699 131.827028 
L 282.655207 129.950774 
L 282.763462 131.827028 
L 282.97997 131.71108 
L 283.088225 133.660853 
L 283.304733 131.71108 
L 283.412987 129.830963 
L 283.629496 131.71108 
L 283.73775 131.71108 
L 283.846004 129.950774 
L 284.279021 135.684404 
L 284.387276 135.684404 
L 284.712039 129.830963 
L 284.820293 129.950774 
L 284.928547 131.71108 
L 285.036801 129.830963 
L 285.25331 131.827028 
L 285.361564 129.830963 
L 285.469818 131.71108 
L 285.686327 129.830963 
L 286.444107 129.830963 
L 286.660615 129.950774 
L 286.877124 131.94982 
L 287.093632 132.07994 
L 287.201887 132.07994 
L 287.526649 136.295887 
L 287.743158 136.441334 
L 288.609192 136.441334 
L 288.825701 136.595856 
L 289.366972 136.595856 
L 289.583481 136.441334 
L 290.233006 136.441334 
L 290.449515 136.595856 
L 290.557769 136.595856 
L 290.774277 136.441334 
L 291.85682 136.441334 
L 291.965074 136.595856 
L 292.073329 136.441334 
L 292.289837 136.595856 
L 292.939363 136.595856 
L 293.155871 136.441334 
L 293.480634 136.441334 
L 293.588888 136.595856 
L 293.805397 136.441334 
L 294.021905 136.441334 
L 294.13016 136.595856 
L 294.346668 136.441334 
L 294.779685 136.441334 
L 294.88794 136.295887 
L 294.996194 132.36432 
L 295.104448 134.29289 
L 295.212702 132.36432 
L 295.429211 134.443265 
L 295.537465 132.519788 
L 295.753974 136.441334 
L 295.862228 136.295887 
L 295.970482 134.29289 
L 296.078737 134.443265 
L 296.186991 136.295887 
L 296.295245 132.36432 
L 296.403499 134.443265 
L 296.620008 132.36432 
L 297.486042 132.36432 
L 297.702551 134.29289 
L 297.919059 132.36432 
L 298.243822 132.36432 
L 298.352076 134.29289 
L 298.568585 132.36432 
L 299.326365 132.36432 
L 299.434619 132.217914 
L 299.542873 130.35474 
L 299.651127 134.29289 
L 299.867636 132.36432 
L 300.084144 132.217914 
L 300.192399 132.217914 
L 300.300653 136.158882 
L 300.408907 132.217914 
L 300.73367 136.158882 
L 300.841924 136.029738 
L 301.058433 134.017771 
L 301.166687 136.029738 
L 301.274941 133.89187 
L 301.49145 136.029738 
L 301.707958 133.89187 
L 301.816213 136.029738 
L 302.032721 135.907927 
L 302.24923 135.907927 
L 302.465738 135.792964 
L 302.682247 135.792964 
L 302.898755 135.581839 
L 304.630824 135.581839 
L 304.847332 133.554848 
L 304.955586 133.554848 
L 305.172095 135.581839 
L 305.280349 135.581839 
L 305.496858 133.554848 
L 307.445435 133.554848 
L 307.553689 135.484893 
L 307.661943 131.601534 
L 307.770197 133.554848 
L 307.878452 133.454646 
L 307.986706 133.554848 
L 308.203214 135.581839 
L 308.527977 135.484893 
L 308.636231 131.497982 
L 308.744486 131.601534 
L 309.069249 135.684404 
L 309.177503 135.484893 
L 309.394011 129.71777 
L 309.61052 135.581839 
L 309.827028 133.554848 
L 309.935283 133.660853 
L 310.151791 135.684404 
L 310.3683 135.581839 
L 310.476554 133.554848 
L 310.693063 135.581839 
L 311.12608 135.581839 
L 311.342588 131.497982 
L 311.559097 127.789205 
L 311.667351 131.497982 
L 311.775605 127.789205 
L 312.208622 133.454646 
L 312.425131 129.61077 
L 312.533385 129.61077 
L 312.641639 127.789205 
L 312.749894 131.497982 
L 312.966402 129.61077 
L 313.074656 129.61077 
L 313.291165 133.554848 
L 313.507673 127.789205 
L 313.615928 127.899755 
L 313.724182 135.684404 
L 313.832436 135.484893 
L 314.048945 129.61077 
L 314.265453 129.61077 
L 314.373708 133.554848 
L 314.481962 131.601534 
L 314.590216 133.454646 
L 314.806725 129.61077 
L 314.914979 131.497982 
L 315.023233 131.40005 
L 315.131487 127.789205 
L 315.347996 131.497982 
L 315.564505 127.789205 
L 315.781013 127.789205 
L 315.997522 131.497982 
L 316.105776 129.71777 
L 316.322284 135.581839 
L 316.430539 135.684404 
L 316.538793 135.581839 
L 316.755301 135.684404 
L 316.863556 135.484893 
L 317.080064 129.61077 
L 317.188319 129.509574 
L 317.296573 125.921767 
L 317.404827 127.789205 
L 317.513081 133.454646 
L 317.72959 131.497982 
L 317.837844 129.61077 
L 318.054353 135.684404 
L 318.920387 135.581839 
L 319.028641 133.554848 
L 319.24515 135.581839 
L 319.353404 133.554848 
L 319.461658 135.581839 
L 319.894675 127.789205 
L 320.111184 133.554848 
L 320.219438 135.484893 
L 320.327692 127.789205 
L 320.435947 131.497982 
L 320.652455 127.684651 
L 321.518489 127.789205 
L 321.626743 129.61077 
L 321.734998 127.789205 
L 321.843252 133.454646 
L 321.951506 127.789205 
L 322.059761 129.509574 
L 322.168015 125.921767 
L 322.276269 127.684651 
L 322.492778 124.112101 
L 322.601032 124.217674 
L 323.034049 129.71777 
L 323.250557 135.684404 
L 325.632151 135.581839 
L 325.740406 131.601534 
L 325.956914 135.684404 
L 326.173423 135.581839 
L 326.281677 133.660853 
L 326.389931 135.684404 
L 326.498185 135.581839 
L 326.714694 133.554848 
L 326.822948 135.581839 
L 327.147711 126.029778 
L 327.36422 129.61077 
L 327.580728 126.029778 
L 327.688982 127.684651 
L 327.797237 125.921767 
L 327.905491 127.684651 
L 328.338508 120.861456 
L 328.446762 124.217674 
L 328.555017 124.112101 
L 328.771525 120.861456 
L 329.096288 120.861456 
L 329.204542 114.824702 
L 329.421051 120.861456 
L 329.637559 120.861456 
L 329.854068 119.202809 
L 329.962322 110.120888 
L 330.178831 119.202809 
L 330.395339 113.451033 
L 330.611848 119.202809 
L 330.720102 108.202658 
L 331.044865 114.824702 
L 331.153119 105.826618 
L 331.369627 116.2399 
L 331.477882 105.826618 
L 331.586136 119.202809 
L 331.69439 110.694956 
L 331.910899 116.2399 
L 332.019153 104.062231 
L 332.235662 116.2399 
L 332.343916 114.824702 
L 332.45217 110.694956 
L 332.560424 116.2399 
L 332.668679 108.202658 
L 332.885187 116.2399 
L 332.993441 104.711877 
L 333.101696 116.2399 
L 333.20995 106.474756 
L 333.426459 120.861456 
L 333.534713 113.576099 
L 333.751221 124.329244 
L 333.96773 127.789205 
L 334.075984 127.684651 
L 334.292493 125.921767 
L 334.400747 125.921767 
L 334.617255 129.71777 
L 334.72551 133.554848 
L 335.050273 127.789205 
L 335.266781 133.454646 
L 335.48329 131.497982 
L 335.808052 127.684651 
L 335.916307 127.789205 
L 336.024561 131.497982 
L 336.241069 127.789205 
L 336.674087 127.789205 
L 336.782341 129.61077 
L 336.890595 126.029778 
L 336.998849 129.61077 
L 337.107104 127.789205 
L 337.215358 129.509574 
L 337.323612 125.921767 
L 337.431866 127.789205 
L 337.540121 125.921767 
L 337.864883 129.61077 
L 337.973138 129.61077 
L 338.081392 125.921767 
L 338.189646 127.684651 
L 338.297901 125.921767 
L 338.406155 127.899755 
L 338.622663 135.684404 
L 338.730918 135.581839 
L 338.947426 131.71108 
L 339.163935 135.684404 
L 340.354732 135.581839 
L 340.57124 127.789205 
L 340.679494 127.684651 
L 340.896003 124.217674 
L 341.112511 125.921767 
L 341.32902 125.921767 
L 341.653783 129.61077 
L 341.762037 131.40005 
L 341.870291 126.029778 
L 341.978546 129.61077 
L 342.195054 127.684651 
L 342.303308 125.921767 
L 342.411563 127.899755 
L 342.519817 135.581839 
L 342.628071 131.601534 
L 342.952834 135.581839 
L 343.169343 131.497982 
L 343.277597 127.789205 
L 343.385851 129.61077 
L 343.60236 127.789205 
L 343.927122 133.554848 
L 344.035377 131.601534 
L 344.251885 135.581839 
L 344.468394 133.554848 
L 344.576648 131.601534 
L 344.684902 131.71108 
L 344.901411 135.581839 
L 345.117919 127.789205 
L 345.334428 133.554848 
L 345.442682 131.601534 
L 345.767445 135.684404 
L 346.092208 135.581839 
L 346.200462 133.660853 
L 346.416971 135.684404 
L 348.257293 135.684404 
L 348.365547 131.71108 
L 348.473802 135.684404 
L 348.582056 131.71108 
L 348.798564 135.684404 
L 349.123327 135.581839 
L 349.231581 131.601534 
L 349.339836 131.71108 
L 349.556344 135.684404 
L 349.664599 131.71108 
L 349.881107 135.684404 
L 350.20587 135.581839 
L 350.422378 129.61077 
L 350.530633 129.61077 
L 350.747141 127.684651 
L 350.855395 126.029778 
L 351.071904 129.61077 
L 351.396667 129.61077 
L 351.613175 125.921767 
L 351.72143 125.921767 
L 352.046192 120.861456 
L 352.262701 122.460329 
L 352.479209 120.861456 
L 352.587464 120.861456 
L 352.695718 117.698573 
L 352.803972 120.861456 
L 352.912226 117.698573 
L 353.020481 120.861456 
L 353.236989 114.824702 
L 353.345244 119.202809 
L 353.453498 116.2399 
L 353.561752 119.202809 
L 353.670006 116.2399 
L 353.886515 120.861456 
L 353.994769 116.2399 
L 354.103023 117.698573 
L 354.319532 120.861456 
L 354.427786 120.861456 
L 354.53604 119.312894 
L 354.644295 120.861456 
L 354.860803 117.698573 
L 354.969058 117.698573 
L 355.077312 116.2399 
L 355.29382 120.861456 
L 355.510329 120.861456 
L 355.726837 117.812238 
L 355.835092 124.217674 
L 356.0516 122.460329 
L 356.159854 116.357252 
L 356.376363 122.460329 
L 356.484617 119.312894 
L 356.592872 122.460329 
L 356.80938 119.202809 
L 357.025889 114.824702 
L 357.242397 120.861456 
L 357.458906 122.460329 
L 357.56716 113.576099 
L 357.675414 127.684651 
L 357.783668 125.921767 
L 357.891923 120.974064 
L 358.000177 125.921767 
L 358.216686 124.217674 
L 358.32494 125.921767 
L 358.433194 122.569368 
L 358.541448 127.684651 
L 358.649703 122.569368 
L 358.866211 125.921767 
L 359.08272 124.112101 
L 359.190974 124.217674 
L 359.515737 119.312894 
L 359.732245 125.921767 
L 359.8405 115.07385 
L 359.948754 127.684651 
L 360.057008 125.921767 
L 360.165262 126.029778 
L 360.273517 131.497982 
L 360.381771 127.789205 
L 360.490025 129.61077 
L 360.706534 124.217674 
L 360.814788 122.569368 
L 360.923042 125.921767 
L 361.031296 121.330828 
L 361.139551 131.40005 
L 361.356059 122.460329 
L 361.572568 124.217674 
L 361.897331 127.684651 
L 362.005585 127.684651 
L 362.113839 124.447215 
L 362.222093 135.581839 
L 362.330348 133.454646 
L 362.438602 127.789205 
L 362.65511 129.61077 
L 362.763365 120.974064 
L 362.979873 125.921767 
L 363.088128 122.460329 
L 363.196382 124.217674 
L 363.41289 120.861456 
L 363.521145 124.112101 
L 363.629399 120.974064 
L 363.737653 125.819561 
L 363.954162 116.357252 
L 364.387179 133.554848 
L 364.495433 133.454646 
L 364.603687 127.789205 
L 364.711942 129.61077 
L 365.036704 124.112101 
L 365.144959 124.217674 
L 365.253213 124.112101 
L 365.469721 122.460329 
L 365.577976 122.460329 
L 365.68623 124.112101 
L 366.010993 120.861456 
L 366.119247 116.2399 
L 366.335756 117.698573 
L 366.44401 117.698573 
L 366.660518 110.694956 
L 366.768773 113.332593 
L 366.877027 109.431396 
L 366.985281 116.2399 
L 367.093535 114.709962 
L 367.20179 109.431396 
L 367.310044 114.709962 
L 367.418298 111.994824 
L 367.526552 116.128751 
L 367.634807 109.431396 
L 367.743061 113.451033 
L 367.851315 109.431396 
L 367.95957 110.694956 
L 368.067824 114.709962 
L 368.176078 104.571969 
L 368.392587 117.698573 
L 368.500841 111.994824 
L 368.717349 116.128751 
L 368.825604 110.694956 
L 369.042112 113.332593 
L 369.150366 113.332593 
L 369.258621 114.824702 
L 369.366875 114.709962 
L 369.475129 107.007349 
L 369.691638 116.128751 
L 369.799892 116.128751 
L 369.908146 111.994824 
L 370.016401 116.128751 
L 370.232909 113.332593 
L 370.341163 104.571969 
L 370.449418 116.128751 
L 370.665926 111.994824 
L 370.77418 111.994824 
L 370.882435 116.128751 
L 371.098943 111.994824 
L 371.207198 111.994824 
L 371.315452 113.332593 
L 371.53196 116.128751 
L 371.640215 109.308022 
L 371.748469 111.994824 
L 371.856723 108.07534 
L 372.073232 113.332593 
L 372.181486 116.128751 
L 372.28974 114.709962 
L 372.397994 116.128751 
L 372.506249 104.571969 
L 372.722757 114.709962 
L 372.831012 108.07534 
L 373.04752 113.332593 
L 373.372283 113.332593 
L 373.480537 109.308022 
L 373.697046 113.332593 
L 373.913554 113.332593 
L 374.021808 111.994824 
L 374.130063 113.332593 
L 374.238317 110.575407 
L 374.346571 113.332593 
L 374.56308 109.308022 
L 374.779588 113.332593 
L 374.996097 105.580104 
L 375.104351 113.220361 
L 375.212605 97.067264 
L 375.429114 113.220361 
L 375.753877 113.220361 
L 375.862131 110.575407 
L 375.970385 111.878988 
L 376.07864 107.954661 
L 376.186894 111.878988 
L 376.403402 91.668123 
L 376.511657 106.751444 
L 376.619911 93.363222 
L 376.836419 107.954661 
L 376.944674 107.954661 
L 377.052928 93.85747 
L 377.269436 109.19107 
L 377.485945 105.580104 
L 377.594199 102.111614 
L 377.702454 94.746803 
L 377.918962 105.580104 
L 378.027216 109.19107 
L 378.135471 102.111614 
L 378.243725 109.19107 
L 378.460233 105.580104 
L 378.676742 109.19107 
L 378.89325 109.19107 
L 379.001505 105.580104 
L 379.109759 110.575407 
L 379.218013 109.308022 
L 379.326268 110.575407 
L 379.434522 106.751444 
L 379.65103 110.575407 
L 379.759285 110.575407 
L 379.975793 109.19107 
L 380.084047 92.339593 
L 380.192302 106.751444 
L 380.300556 100.018555 
L 380.40881 109.19107 
L 380.625319 103.328194 
L 380.841827 113.332593 
L 380.950082 108.202658 
L 381.058336 114.709962 
L 381.16659 111.994824 
L 381.274844 113.332593 
L 381.383099 117.698573 
L 381.491353 114.824702 
L 381.599607 117.698573 
L 381.707861 111.994824 
L 381.816116 112.117076 
L 382.032624 117.698573 
L 382.249133 110.694956 
L 382.357387 114.824702 
L 382.465641 113.332593 
L 382.573896 117.698573 
L 382.790404 109.431396 
L 383.006913 117.698573 
L 383.115167 117.698573 
L 383.223421 114.824702 
L 383.331675 119.202809 
L 383.548184 114.824702 
L 383.656438 116.2399 
L 383.764692 122.460329 
L 383.981201 117.698573 
L 384.089455 117.698573 
L 384.19771 116.2399 
L 384.305964 117.698573 
L 384.522472 113.451033 
L 384.630727 116.357252 
L 384.738981 124.112101 
L 384.847235 119.202809 
L 384.955489 120.861456 
L 385.171998 116.2399 
L 385.280252 119.202809 
L 385.496761 117.698573 
L 385.605015 111.994824 
L 385.821524 119.202809 
L 385.929778 114.945853 
L 386.146286 125.921767 
L 386.254541 122.460329 
L 386.362795 122.569368 
L 386.687558 126.029778 
L 386.795812 131.40005 
L 387.01232 119.312894 
L 387.337083 125.921767 
L 387.553592 120.861456 
L 387.7701 122.460329 
L 387.878355 122.460329 
L 388.094863 117.698573 
L 388.203117 117.698573 
L 388.311372 113.451033 
L 388.52788 120.861456 
L 388.636134 110.954404 
L 388.744389 116.357252 
L 388.852643 115.07385 
L 388.960897 129.61077 
L 389.069152 124.329244 
L 389.177406 133.454646 
L 389.393914 124.217674 
L 389.502169 127.684651 
L 389.610423 122.684603 
L 389.718677 129.509574 
L 389.935186 122.460329 
L 390.151694 122.460329 
L 390.259948 124.112101 
L 390.368203 119.312894 
L 390.476457 124.112101 
L 390.584711 122.460329 
L 390.692966 124.112101 
L 390.80122 117.812238 
L 391.017728 127.789205 
L 391.125983 127.684651 
L 391.342491 122.460329 
L 391.450745 122.460329 
L 391.775508 117.698573 
L 391.883762 117.812238 
L 392.100271 116.2399 
L 392.208525 117.698573 
L 392.533288 112.117076 
L 392.749797 117.698573 
L 392.966305 117.698573 
L 393.182814 109.308022 
L 393.291068 114.709962 
L 393.507576 110.575407 
L 393.615831 113.332593 
L 393.724085 109.308022 
L 393.832339 110.575407 
L 393.940594 114.709962 
L 394.157102 110.575407 
L 394.481865 110.575407 
L 394.590119 113.220361 
L 394.698373 111.878988 
L 394.806628 108.07534 
L 394.914882 113.220361 
L 395.13139 110.575407 
L 395.239645 113.220361 
L 395.456153 109.19107 
L 395.564408 106.751444 
L 395.672662 109.19107 
L 395.780916 105.580104 
L 395.88917 109.19107 
L 395.997425 106.751444 
L 396.105679 107.954661 
L 396.322187 103.198529 
L 396.430442 103.198529 
L 396.538696 96.919109 
L 396.755204 106.633355 
L 396.971713 99.883562 
L 397.188222 103.198529 
L 397.296476 91.419476 
L 397.40473 103.198529 
L 397.512984 100.921069 
L 397.621239 104.313718 
L 397.837747 100.921069 
L 397.946001 104.313718 
L 398.270764 95.977615 
L 398.379018 101.051944 
L 398.487273 96.919109 
L 398.487273 96.919109 
" clip-path="url(#p6bc0bdb9ce)" style="fill: none; stroke: #1f77b4; stroke-width: 1.5; stroke-linecap: square"/>
   </g>
   <g id="patch_3">
    <path d="M 57.6 307.584 
L 57.6 41.472 
" style="fill: none; stroke: #000000; stroke-width: 0.8; stroke-linejoin: miter; stroke-linecap: square"/>
   </g>
   <g id="patch_4">
    <path d="M 414.72 307.584 
L 414.72 41.472 
" style="fill: none; stroke: #000000; stroke-width: 0.8; stroke-linejoin: miter; stroke-linecap: square"/>
   </g>
   <g id="patch_5">
    <path d="M 57.6 307.584 
L 414.72 307.584 
" style="fill: none; stroke: #000000; stroke-width: 0.8; stroke-linejoin: miter; stroke-linecap: square"/>
   </g>
   <g id="patch_6">
    <path d="M 57.6 41.472 
L 414.72 41.472 
" style="fill: none; stroke: #000000; stroke-width: 0.8; stroke-linejoin: miter; stroke-linecap: square"/>
   </g>
  </g>
 </g>
 <defs>
  <clipPath id="p6bc0bdb9ce">
   <rect x="57.6" y="41.472" width="357.12" height="266.112"/>
  </clipPath>
 </defs>
</svg>
