<?xml version="1.0" encoding="utf-8" standalone="no"?>
<!DOCTYPE svg PUBLIC "-//W3C//DTD SVG 1.1//EN"
  "http://www.w3.org/Graphics/SVG/1.1/DTD/svg11.dtd">
<svg xmlns:xlink="http://www.w3.org/1999/xlink" width="460.8pt" height="345.6pt" viewBox="0 0 460.8 345.6" xmlns="http://www.w3.org/2000/svg" version="1.1">
 <metadata>
  <rdf:RDF xmlns:dc="http://purl.org/dc/elements/1.1/" xmlns:cc="http://creativecommons.org/ns#" xmlns:rdf="http://www.w3.org/1999/02/22-rdf-syntax-ns#">
   <cc:Work>
    <dc:type rdf:resource="http://purl.org/dc/dcmitype/StillImage"/>
    <dc:date>2024-04-27T10:11:37.382403</dc:date>
    <dc:format>image/svg+xml</dc:format>
    <dc:creator>
     <cc:Agent>
      <dc:title>Matplotlib v3.8.2, https://matplotlib.org/</dc:title>
     </cc:Agent>
    </dc:creator>
   </cc:Work>
  </rdf:RDF>
 </metadata>
 <defs>
  <style type="text/css">*{stroke-linejoin: round; stroke-linecap: butt}</style>
 </defs>
 <g id="figure_1">
  <g id="patch_1">
   <path d="M 0 345.6 
L 460.8 345.6 
L 460.8 0 
L 0 0 
z
" style="fill: #ffffff"/>
  </g>
  <g id="axes_1">
   <g id="patch_2">
    <path d="M 57.6 307.584 
L 414.72 307.584 
L 414.72 41.472 
L 57.6 41.472 
z
" style="fill: #ffffff"/>
   </g>
   <g id="matplotlib.axis_1">
    <g id="xtick_1">
     <g id="line2d_1">
      <defs>
       <path id="m685392e500" d="M 0 0 
L 0 3.5 
" style="stroke: #000000; stroke-width: 0.8"/>
      </defs>
      <g>
       <use xlink:href="#m685392e500" x="73.832727" y="307.584" style="stroke: #000000; stroke-width: 0.8"/>
      </g>
     </g>
     <g id="text_1">
      <!-- 0 -->
      <g transform="translate(70.651477 322.182437) scale(0.1 -0.1)">
       <defs>
        <path id="DejaVuSans-30" d="M 2034 4250 
Q 1547 4250 1301 3770 
Q 1056 3291 1056 2328 
Q 1056 1369 1301 889 
Q 1547 409 2034 409 
Q 2525 409 2770 889 
Q 3016 1369 3016 2328 
Q 3016 3291 2770 3770 
Q 2525 4250 2034 4250 
z
M 2034 4750 
Q 2819 4750 3233 4129 
Q 3647 3509 3647 2328 
Q 3647 1150 3233 529 
Q 2819 -91 2034 -91 
Q 1250 -91 836 529 
Q 422 1150 422 2328 
Q 422 3509 836 4129 
Q 1250 4750 2034 4750 
z
" transform="scale(0.015625)"/>
       </defs>
       <use xlink:href="#DejaVuSans-30"/>
      </g>
     </g>
    </g>
    <g id="xtick_2">
     <g id="line2d_2">
      <g>
       <use xlink:href="#m685392e500" x="141.497284" y="307.584" style="stroke: #000000; stroke-width: 0.8"/>
      </g>
     </g>
     <g id="text_2">
      <!-- 500 -->
      <g transform="translate(131.953534 322.182437) scale(0.1 -0.1)">
       <defs>
        <path id="DejaVuSans-35" d="M 691 4666 
L 3169 4666 
L 3169 4134 
L 1269 4134 
L 1269 2991 
Q 1406 3038 1543 3061 
Q 1681 3084 1819 3084 
Q 2600 3084 3056 2656 
Q 3513 2228 3513 1497 
Q 3513 744 3044 326 
Q 2575 -91 1722 -91 
Q 1428 -91 1123 -41 
Q 819 9 494 109 
L 494 744 
Q 775 591 1075 516 
Q 1375 441 1709 441 
Q 2250 441 2565 725 
Q 2881 1009 2881 1497 
Q 2881 1984 2565 2268 
Q 2250 2553 1709 2553 
Q 1456 2553 1204 2497 
Q 953 2441 691 2322 
L 691 4666 
z
" transform="scale(0.015625)"/>
       </defs>
       <use xlink:href="#DejaVuSans-35"/>
       <use xlink:href="#DejaVuSans-30" x="63.623047"/>
       <use xlink:href="#DejaVuSans-30" x="127.246094"/>
      </g>
     </g>
    </g>
    <g id="xtick_3">
     <g id="line2d_3">
      <g>
       <use xlink:href="#m685392e500" x="209.161842" y="307.584" style="stroke: #000000; stroke-width: 0.8"/>
      </g>
     </g>
     <g id="text_3">
      <!-- 1000 -->
      <g transform="translate(196.436842 322.182437) scale(0.1 -0.1)">
       <defs>
        <path id="DejaVuSans-31" d="M 794 531 
L 1825 531 
L 1825 4091 
L 703 3866 
L 703 4441 
L 1819 4666 
L 2450 4666 
L 2450 531 
L 3481 531 
L 3481 0 
L 794 0 
L 794 531 
z
" transform="scale(0.015625)"/>
       </defs>
       <use xlink:href="#DejaVuSans-31"/>
       <use xlink:href="#DejaVuSans-30" x="63.623047"/>
       <use xlink:href="#DejaVuSans-30" x="127.246094"/>
       <use xlink:href="#DejaVuSans-30" x="190.869141"/>
      </g>
     </g>
    </g>
    <g id="xtick_4">
     <g id="line2d_4">
      <g>
       <use xlink:href="#m685392e500" x="276.826399" y="307.584" style="stroke: #000000; stroke-width: 0.8"/>
      </g>
     </g>
     <g id="text_4">
      <!-- 1500 -->
      <g transform="translate(264.101399 322.182437) scale(0.1 -0.1)">
       <use xlink:href="#DejaVuSans-31"/>
       <use xlink:href="#DejaVuSans-35" x="63.623047"/>
       <use xlink:href="#DejaVuSans-30" x="127.246094"/>
       <use xlink:href="#DejaVuSans-30" x="190.869141"/>
      </g>
     </g>
    </g>
    <g id="xtick_5">
     <g id="line2d_5">
      <g>
       <use xlink:href="#m685392e500" x="344.490956" y="307.584" style="stroke: #000000; stroke-width: 0.8"/>
      </g>
     </g>
     <g id="text_5">
      <!-- 2000 -->
      <g transform="translate(331.765956 322.182437) scale(0.1 -0.1)">
       <defs>
        <path id="DejaVuSans-32" d="M 1228 531 
L 3431 531 
L 3431 0 
L 469 0 
L 469 531 
Q 828 903 1448 1529 
Q 2069 2156 2228 2338 
Q 2531 2678 2651 2914 
Q 2772 3150 2772 3378 
Q 2772 3750 2511 3984 
Q 2250 4219 1831 4219 
Q 1534 4219 1204 4116 
Q 875 4013 500 3803 
L 500 4441 
Q 881 4594 1212 4672 
Q 1544 4750 1819 4750 
Q 2544 4750 2975 4387 
Q 3406 4025 3406 3419 
Q 3406 3131 3298 2873 
Q 3191 2616 2906 2266 
Q 2828 2175 2409 1742 
Q 1991 1309 1228 531 
z
" transform="scale(0.015625)"/>
       </defs>
       <use xlink:href="#DejaVuSans-32"/>
       <use xlink:href="#DejaVuSans-30" x="63.623047"/>
       <use xlink:href="#DejaVuSans-30" x="127.246094"/>
       <use xlink:href="#DejaVuSans-30" x="190.869141"/>
      </g>
     </g>
    </g>
    <g id="xtick_6">
     <g id="line2d_6">
      <g>
       <use xlink:href="#m685392e500" x="412.155513" y="307.584" style="stroke: #000000; stroke-width: 0.8"/>
      </g>
     </g>
     <g id="text_6">
      <!-- 2500 -->
      <g transform="translate(399.430513 322.182437) scale(0.1 -0.1)">
       <use xlink:href="#DejaVuSans-32"/>
       <use xlink:href="#DejaVuSans-35" x="63.623047"/>
       <use xlink:href="#DejaVuSans-30" x="127.246094"/>
       <use xlink:href="#DejaVuSans-30" x="190.869141"/>
      </g>
     </g>
    </g>
   </g>
   <g id="matplotlib.axis_2">
    <g id="ytick_1">
     <g id="line2d_7">
      <defs>
       <path id="m1789a3bd62" d="M 0 0 
L -3.5 0 
" style="stroke: #000000; stroke-width: 0.8"/>
      </defs>
      <g>
       <use xlink:href="#m1789a3bd62" x="57.6" y="279.206943" style="stroke: #000000; stroke-width: 0.8"/>
      </g>
     </g>
     <g id="text_7">
      <!-- −100 -->
      <g transform="translate(23.132812 283.006161) scale(0.1 -0.1)">
       <defs>
        <path id="DejaVuSans-2212" d="M 678 2272 
L 4684 2272 
L 4684 1741 
L 678 1741 
L 678 2272 
z
" transform="scale(0.015625)"/>
       </defs>
       <use xlink:href="#DejaVuSans-2212"/>
       <use xlink:href="#DejaVuSans-31" x="83.789062"/>
       <use xlink:href="#DejaVuSans-30" x="147.412109"/>
       <use xlink:href="#DejaVuSans-30" x="211.035156"/>
      </g>
     </g>
    </g>
    <g id="ytick_2">
     <g id="line2d_8">
      <g>
       <use xlink:href="#m1789a3bd62" x="57.6" y="249.421994" style="stroke: #000000; stroke-width: 0.8"/>
      </g>
     </g>
     <g id="text_8">
      <!-- −75 -->
      <g transform="translate(29.495313 253.221212) scale(0.1 -0.1)">
       <defs>
        <path id="DejaVuSans-37" d="M 525 4666 
L 3525 4666 
L 3525 4397 
L 1831 0 
L 1172 0 
L 2766 4134 
L 525 4134 
L 525 4666 
z
" transform="scale(0.015625)"/>
       </defs>
       <use xlink:href="#DejaVuSans-2212"/>
       <use xlink:href="#DejaVuSans-37" x="83.789062"/>
       <use xlink:href="#DejaVuSans-35" x="147.412109"/>
      </g>
     </g>
    </g>
    <g id="ytick_3">
     <g id="line2d_9">
      <g>
       <use xlink:href="#m1789a3bd62" x="57.6" y="219.637045" style="stroke: #000000; stroke-width: 0.8"/>
      </g>
     </g>
     <g id="text_9">
      <!-- −50 -->
      <g transform="translate(29.495313 223.436264) scale(0.1 -0.1)">
       <use xlink:href="#DejaVuSans-2212"/>
       <use xlink:href="#DejaVuSans-35" x="83.789062"/>
       <use xlink:href="#DejaVuSans-30" x="147.412109"/>
      </g>
     </g>
    </g>
    <g id="ytick_4">
     <g id="line2d_10">
      <g>
       <use xlink:href="#m1789a3bd62" x="57.6" y="189.852096" style="stroke: #000000; stroke-width: 0.8"/>
      </g>
     </g>
     <g id="text_10">
      <!-- −25 -->
      <g transform="translate(29.495313 193.651315) scale(0.1 -0.1)">
       <use xlink:href="#DejaVuSans-2212"/>
       <use xlink:href="#DejaVuSans-32" x="83.789062"/>
       <use xlink:href="#DejaVuSans-35" x="147.412109"/>
      </g>
     </g>
    </g>
    <g id="ytick_5">
     <g id="line2d_11">
      <g>
       <use xlink:href="#m1789a3bd62" x="57.6" y="160.067147" style="stroke: #000000; stroke-width: 0.8"/>
      </g>
     </g>
     <g id="text_11">
      <!-- 0 -->
      <g transform="translate(44.2375 163.866366) scale(0.1 -0.1)">
       <use xlink:href="#DejaVuSans-30"/>
      </g>
     </g>
    </g>
    <g id="ytick_6">
     <g id="line2d_12">
      <g>
       <use xlink:href="#m1789a3bd62" x="57.6" y="130.282199" style="stroke: #000000; stroke-width: 0.8"/>
      </g>
     </g>
     <g id="text_12">
      <!-- 25 -->
      <g transform="translate(37.875 134.081417) scale(0.1 -0.1)">
       <use xlink:href="#DejaVuSans-32"/>
       <use xlink:href="#DejaVuSans-35" x="63.623047"/>
      </g>
     </g>
    </g>
    <g id="ytick_7">
     <g id="line2d_13">
      <g>
       <use xlink:href="#m1789a3bd62" x="57.6" y="100.49725" style="stroke: #000000; stroke-width: 0.8"/>
      </g>
     </g>
     <g id="text_13">
      <!-- 50 -->
      <g transform="translate(37.875 104.296469) scale(0.1 -0.1)">
       <use xlink:href="#DejaVuSans-35"/>
       <use xlink:href="#DejaVuSans-30" x="63.623047"/>
      </g>
     </g>
    </g>
    <g id="ytick_8">
     <g id="line2d_14">
      <g>
       <use xlink:href="#m1789a3bd62" x="57.6" y="70.712301" style="stroke: #000000; stroke-width: 0.8"/>
      </g>
     </g>
     <g id="text_14">
      <!-- 75 -->
      <g transform="translate(37.875 74.51152) scale(0.1 -0.1)">
       <use xlink:href="#DejaVuSans-37"/>
       <use xlink:href="#DejaVuSans-35" x="63.623047"/>
      </g>
     </g>
    </g>
   </g>
   <g id="line2d_15">
    <path d="M 73.832727 285.856913 
L 73.968056 157.264039 
L 74.103386 155.156116 
L 74.238715 161.863508 
L 74.374044 295.488 
L 74.509373 181.934351 
L 74.780031 150.833759 
L 74.91536 161.754091 
L 75.050689 151.633755 
L 75.321348 161.118777 
L 75.456677 159.464178 
L 75.592006 161.308649 
L 75.727335 96.362946 
L 75.862664 151.899794 
L 75.997993 161.754091 
L 76.133322 157.264039 
L 76.268651 161.754091 
L 76.40398 157.91954 
L 76.53931 108.524294 
L 76.809968 159.219868 
L 76.945297 283.673506 
L 77.080626 158.877178 
L 77.215955 162.973181 
L 77.351284 100.256715 
L 77.757272 231.924252 
L 77.892601 142.966208 
L 78.163259 165.647232 
L 78.433917 57.831173 
L 78.704575 205.5728 
L 78.839905 149.715691 
L 78.975234 204.022487 
L 79.110563 158.895399 
L 79.245892 155.656344 
L 79.381221 155.323068 
L 79.51655 159.19482 
L 79.651879 158.713866 
L 79.787208 205.5728 
L 79.922537 180.276739 
L 80.057867 205.5728 
L 80.193196 280.056 
L 80.463854 159.557207 
L 80.599183 205.5728 
L 80.734512 163.377956 
L 80.869841 159.19482 
L 81.275829 280.056 
L 81.411158 158.97522 
L 81.546487 215.823766 
L 81.681816 205.5728 
L 81.817145 159.614905 
L 82.087803 285.877093 
L 82.358461 159.928746 
L 82.493791 236.978816 
L 82.62912 159.674224 
L 82.764449 163.541572 
L 82.899778 163.541572 
L 83.035107 166.438756 
L 83.170436 163.541572 
L 83.305765 166.438756 
L 83.441094 166.438756 
L 83.711753 212.590592 
L 83.847082 207.890363 
L 83.982411 218.655473 
L 84.11774 201.818372 
L 84.253069 201.818372 
L 84.388398 201.969974 
L 84.659056 201.89273 
L 84.929715 202.050216 
L 85.065044 201.89273 
L 85.335702 202.220158 
L 85.471031 202.13357 
L 85.60636 202.310108 
L 85.741689 203.04591 
L 85.877018 202.220158 
L 86.147677 202.220158 
L 86.283006 202.601489 
L 86.418335 202.310108 
L 86.824322 203.168131 
L 86.959651 202.928318 
L 87.09498 205.720119 
L 87.636297 205.720119 
L 87.771626 199.011688 
L 87.906955 205.720119 
L 88.583601 205.720119 
L 88.71893 202.250686 
L 88.854259 202.250686 
L 89.124917 163.541572 
L 89.395575 183.320894 
L 89.530905 167.514824 
L 89.666234 170.466535 
L 89.801563 177.258666 
L 89.936892 170.466535 
L 90.072221 170.466535 
L 90.342879 163.541572 
L 90.478208 166.133621 
L 90.748867 163.541572 
L 90.884196 164.810356 
L 91.154854 164.810356 
L 91.290183 163.541572 
L 91.69617 163.541572 
L 91.831499 164.810356 
L 91.966829 163.541572 
L 92.102158 163.541572 
L 92.237487 164.810356 
L 92.372816 163.541572 
L 92.508145 163.541572 
L 92.643474 164.810356 
L 92.778803 163.541572 
L 93.32012 163.541572 
L 93.455449 164.810356 
L 93.590778 163.541572 
L 93.726107 163.541572 
L 93.861436 164.810356 
L 93.996765 164.810356 
L 94.132094 163.541572 
L 94.267424 163.541572 
L 94.402753 164.810356 
L 94.538082 163.541572 
L 94.944069 163.541572 
L 95.079398 166.133621 
L 95.214727 163.541572 
L 95.350056 164.810356 
L 95.485386 168.957746 
L 95.756044 164.810356 
L 95.891373 179.175205 
L 96.026702 205.720119 
L 96.162031 201.746795 
L 122.009892 201.746795 
L 122.145221 205.720119 
L 122.28055 160.213638 
L 122.415879 160.53314 
L 122.686538 159.797928 
L 122.957196 160.067147 
L 123.092525 159.674224 
L 123.227854 160.067147 
L 123.363183 160.067147 
L 123.633841 159.928746 
L 123.76917 160.213638 
L 123.9045 159.797928 
L 124.039829 159.797928 
L 124.310487 159.928746 
L 124.445816 159.928746 
L 124.851803 160.213638 
L 125.122462 160.213638 
L 125.528449 160.707407 
L 125.663778 160.53314 
L 125.799107 160.892283 
L 125.934436 160.707407 
L 126.069765 160.213638 
L 126.205095 159.14848 
L 126.340424 158.97522 
L 126.475753 159.341668 
L 126.611082 158.97522 
L 127.423057 159.928746 
L 127.558386 161.088548 
L 127.693715 160.892283 
L 128.099702 160.892283 
L 128.37036 160.707407 
L 128.776348 160.707407 
L 129.047006 160.53314 
L 129.182335 160.707407 
L 129.317664 160.53314 
L 129.723652 160.892283 
L 130.129639 160.892283 
L 130.264968 161.088548 
L 130.535626 161.088548 
L 130.670955 161.29706 
L 131.076943 161.29706 
L 131.212272 161.088548 
L 131.48293 161.088548 
L 131.618259 161.29706 
L 131.753588 160.892283 
L 131.888917 160.892283 
L 132.159576 161.29706 
L 132.430234 160.707407 
L 132.700892 160.53314 
L 132.836221 160.368769 
L 132.97155 160.53314 
L 133.106879 160.368769 
L 133.377538 160.707407 
L 133.648196 160.53314 
L 133.783525 160.368769 
L 134.054183 160.53314 
L 134.189512 160.53314 
L 134.324841 160.368769 
L 134.5955 160.53314 
L 134.730829 160.53314 
L 134.866158 160.368769 
L 135.136816 160.707407 
L 135.272145 160.368769 
L 135.407474 160.53314 
L 135.542803 160.368769 
L 135.813462 160.53314 
L 136.08412 160.53314 
L 136.219449 160.707407 
L 136.490107 160.53314 
L 136.896095 160.892283 
L 137.843398 160.892283 
L 137.978728 161.088548 
L 138.114057 160.892283 
L 138.249386 161.088548 
L 138.655373 161.088548 
L 138.790702 160.892283 
L 139.06136 160.892283 
L 139.19669 161.088548 
L 139.332019 160.707407 
L 139.467348 160.892283 
L 139.738006 160.707407 
L 139.873335 160.53314 
L 140.008664 160.892283 
L 140.279322 160.707407 
L 140.549981 160.707407 
L 140.955968 161.088548 
L 141.091297 160.892283 
L 141.361955 160.892283 
L 141.497284 160.368769 
L 141.632614 167.083882 
L 141.767943 161.692636 
L 141.903272 151.773152 
L 142.038601 151.773152 
L 142.309259 147.038528 
L 142.444588 148.500299 
L 142.579917 148.500299 
L 142.715247 150.075088 
L 142.850576 147.038528 
L 143.256563 147.038528 
L 143.391892 148.500299 
L 143.527221 151.773152 
L 143.66255 148.500299 
L 143.933209 148.500299 
L 144.068538 155.588554 
L 144.339196 147.038528 
L 144.474525 143.248155 
L 144.609854 145.680889 
L 144.745183 144.419669 
L 144.880512 145.680889 
L 145.151171 142.160506 
L 145.2865 143.248155 
L 145.421829 142.160506 
L 145.557158 142.160506 
L 145.692487 140.217119 
L 145.963145 142.160506 
L 146.233803 140.217119 
L 146.369133 140.217119 
L 146.504462 141.151635 
L 146.639791 139.353123 
L 146.77512 141.151635 
L 147.045778 137.82392 
L 147.316436 137.82392 
L 147.451766 137.153466 
L 147.587095 129.056039 
L 147.722424 136.54296 
L 147.857753 136.54296 
L 147.993082 150.872715 
L 148.128411 118.764161 
L 148.26374 115.462761 
L 148.534398 120.411375 
L 148.669728 120.411375 
L 148.805057 118.764161 
L 148.940386 120.411375 
L 149.075715 117.174529 
L 149.211044 117.174529 
L 149.346373 115.462761 
L 149.481702 115.462761 
L 149.617031 110.945384 
L 149.75236 115.462761 
L 149.88769 112.348538 
L 150.158348 115.462761 
L 150.293677 118.764161 
L 150.564335 112.348538 
L 150.834993 112.348538 
L 150.970322 110.945384 
L 151.240981 104.142627 
L 151.37631 105.35614 
L 151.511639 102.96528 
L 151.646968 105.35614 
L 151.782297 105.35614 
L 151.917626 110.945384 
L 152.052955 106.79655 
L 152.188285 112.348538 
L 152.323614 108.07885 
L 152.458943 110.945384 
L 152.594272 108.07885 
L 152.86493 110.945384 
L 153.000259 115.462761 
L 153.135588 112.348538 
L 153.406247 112.348538 
L 153.812234 104.142627 
L 154.082892 106.79655 
L 154.218221 110.945384 
L 154.35355 110.945384 
L 154.488879 112.348538 
L 154.624209 110.945384 
L 154.759538 110.945384 
L 155.030196 104.142627 
L 155.571512 104.142627 
L 155.706841 101.612733 
L 155.9775 101.612733 
L 156.112829 105.35614 
L 156.248158 104.142627 
L 156.383487 105.35614 
L 156.654145 110.945384 
L 156.924804 108.07885 
L 157.330791 108.07885 
L 157.601449 105.35614 
L 158.142766 105.35614 
L 158.278095 104.142627 
L 158.413424 108.07885 
L 159.225398 108.07885 
L 159.360728 105.35614 
L 159.496057 105.35614 
L 159.766715 115.462761 
L 159.902044 112.348538 
L 160.308031 112.348538 
L 160.57869 120.411375 
L 160.849348 134.200098 
L 161.661323 134.041361 
L 161.796652 201.547752 
L 161.931981 160.067147 
L 162.202639 160.213638 
L 163.149943 160.213638 
L 163.285272 160.368769 
L 163.55593 160.213638 
L 163.826588 160.213638 
L 163.961917 160.368769 
L 164.097247 160.213638 
L 164.367905 160.368769 
L 164.503234 160.213638 
L 164.773892 160.368769 
L 164.909221 160.368769 
L 165.315209 160.067147 
L 165.450538 160.368769 
L 165.585867 160.213638 
L 165.856525 160.53314 
L 166.127183 160.368769 
L 166.939158 160.368769 
L 167.074487 160.53314 
L 167.480474 160.213638 
L 167.615804 160.368769 
L 167.886462 160.213638 
L 168.15712 160.213638 
L 168.292449 160.368769 
L 168.563107 160.213638 
L 168.833766 160.368769 
L 168.969095 160.368769 
L 169.239753 160.213638 
L 169.510411 160.213638 
L 169.64574 201.677896 
L 169.781069 201.61158 
L 169.916398 201.677896 
L 170.051728 133.767774 
L 171.134361 133.831059 
L 171.405019 133.863937 
L 171.675677 133.863937 
L 172.352323 133.932246 
L 172.622981 133.89766 
L 172.75831 201.677896 
L 173.164297 201.677896 
L 173.299626 133.89766 
L 173.976272 133.967712 
L 175.194234 134.041361 
L 175.464892 134.118766 
L 175.87088 112.144759 
L 176.006209 113.721464 
L 176.276867 127.827013 
L 176.412196 118.714956 
L 176.547525 118.666877 
L 177.088842 97.946814 
L 177.224171 115.219289 
L 177.494829 104.0265 
L 177.765487 113.86796 
L 177.900816 107.968643 
L 178.036145 112.244344 
L 178.171474 110.945384 
L 178.306804 105.35614 
L 178.442133 118.714956 
L 178.577462 118.764161 
L 178.84812 110.945384 
L 178.983449 112.244344 
L 179.118778 108.023132 
L 179.254107 112.295851 
L 179.524766 109.532002 
L 179.660095 112.295851 
L 179.795424 108.07885 
L 179.930753 108.023132 
L 180.066082 115.411814 
L 180.201411 108.07885 
L 180.472069 118.714956 
L 180.607399 118.714956 
L 180.742728 113.919051 
L 180.878057 113.86796 
L 181.013386 109.477944 
L 181.148715 112.244344 
L 181.284044 110.89139 
L 181.554702 101.49322 
L 181.690031 107.863236 
L 181.825361 105.242516 
L 182.231348 120.36352 
L 182.366677 112.295851 
L 182.637335 118.714956 
L 182.772664 117.174529 
L 182.907993 118.714956 
L 183.178652 127.870299 
L 183.313981 125.97508 
L 183.44931 129.841363 
L 183.584639 127.914636 
L 183.719968 124.038221 
L 183.855297 123.992124 
L 183.990626 127.870299 
L 184.125956 112.348538 
L 184.261285 110.89139 
L 184.396614 112.193989 
L 184.93793 134.15893 
L 185.073259 129.841363 
L 185.343918 134.118766 
L 185.479247 134.079584 
L 185.614576 118.619899 
L 185.749905 120.226481 
L 185.885234 118.573996 
L 186.020563 115.265784 
L 186.155892 118.619899 
L 186.291221 134.079584 
L 186.42655 127.827013 
L 186.56188 127.827013 
L 186.697209 120.271099 
L 186.832538 134.041361 
L 187.373854 134.079584 
L 191.02774 134.004077 
L 191.433728 133.967712 
L 192.110373 134.041361 
L 192.516361 134.041361 
L 195.087614 133.932246 
L 195.493601 133.932246 
L 195.899588 133.967712 
L 196.440905 133.932246 
L 202.530715 133.831059 
L 202.936702 53.619067 
L 203.072032 53.670943 
L 203.207361 53.568 
L 204.560652 54.000235 
L 204.83131 53.94311 
L 205.643285 54.177365 
L 205.913943 54.238402 
L 207.537892 54.910009 
L 210.244475 54.983916 
L 210.379804 59.798729 
L 210.515133 54.983916 
L 210.650462 54.983916 
L 210.785791 56.574879 
L 210.92112 55.059174 
L 211.056449 55.135818 
L 211.191778 57.448648 
L 211.462437 67.396843 
L 211.597766 61.577823 
L 211.868424 70.083624 
L 212.003753 67.534116 
L 212.139082 71.038741 
L 212.274411 61.725625 
L 212.40974 66.605801 
L 212.54507 60.832068 
L 212.680399 75.537856 
L 212.815728 72.837873 
L 212.951057 76.543212 
L 213.086386 65.050174 
L 213.221715 65.050174 
L 213.627702 55.456995 
L 213.898361 55.456995 
L 214.03369 62.624305 
L 214.169019 55.456995 
L 214.304348 55.541134 
L 214.439677 55.456995 
L 214.845664 55.626895 
L 217.687576 55.71432 
L 217.958234 55.803457 
L 220.529487 55.894351 
L 220.664816 55.987053 
L 220.935475 55.894351 
L 223.506728 55.987053 
L 223.642057 56.081612 
L 223.912715 55.894351 
L 224.048044 56.081612 
L 224.318702 55.987053 
L 224.589361 56.081612 
L 224.860019 56.178081 
L 224.995348 56.276515 
L 225.536665 55.987053 
L 225.807323 55.987053 
L 226.077981 55.803457 
L 227.431272 55.803457 
L 227.70193 55.626895 
L 229.596538 55.71432 
L 230.002525 55.894351 
L 231.761804 55.987053 
L 232.167791 56.178081 
L 232.438449 56.081612 
L 234.333057 55.987053 
L 234.468386 190.441302 
L 234.603715 203.812377 
L 234.874373 159.674224 
L 236.092335 159.674224 
L 236.227665 159.797928 
L 236.498323 159.674224 
L 237.716285 159.674224 
L 237.851614 179.664629 
L 237.986943 171.185947 
L 238.122272 201.486325 
L 238.257601 171.20541 
L 238.39293 57.655034 
L 238.52826 198.09929 
L 238.663589 63.48764 
L 238.798918 62.205761 
L 238.934247 63.48764 
L 239.069576 201.427213 
L 239.204905 66.620758 
L 239.340234 71.288648 
L 239.610892 59.184141 
L 239.746222 63.401657 
L 239.881551 55.71432 
L 240.01688 56.376971 
L 240.422867 55.71432 
L 240.693525 55.71432 
L 240.828854 55.541134 
L 241.099513 55.626895 
L 241.234842 55.541134 
L 241.5055 55.626895 
L 242.317475 55.71432 
L 242.588133 55.894351 
L 242.858791 55.803457 
L 243.670766 55.71432 
L 243.806095 55.626895 
L 243.941424 55.803457 
L 244.212082 55.71432 
L 244.347411 55.803457 
L 244.482741 55.71432 
L 244.61807 55.803457 
L 244.753399 55.71432 
L 245.024057 55.803457 
L 245.836032 55.803457 
L 246.10669 55.626895 
L 247.459981 55.541134 
L 247.59531 55.456995 
L 247.865968 55.541134 
L 249.489918 55.626895 
L 249.760576 55.71432 
L 251.113867 55.803457 
L 251.249196 55.894351 
L 251.519854 55.803457 
L 253.955779 55.894351 
L 254.226437 55.987053 
L 264.511449 56.081612 
L 264.782108 56.178081 
L 264.917437 56.081612 
L 265.052766 55.803457 
L 265.323424 56.081612 
L 265.729411 56.081612 
L 265.864741 56.276515 
L 266.135399 56.376971 
L 266.270728 56.479507 
L 266.406057 56.276515 
L 267.082703 56.376971 
L 267.218032 56.479507 
L 267.48869 56.376971 
L 267.624019 56.479507 
L 267.894677 56.376971 
L 268.165336 56.479507 
L 274.525804 56.479507 
L 274.661133 56.276515 
L 274.796462 56.479507 
L 275.20245 56.479507 
L 275.337779 56.276515 
L 275.473108 56.479507 
L 275.743766 56.584184 
L 275.879095 56.691066 
L 276.149753 56.479507 
L 276.420412 56.584184 
L 278.044361 56.691066 
L 278.17969 56.800217 
L 278.450348 56.691066 
L 280.886272 56.584184 
L 281.29226 56.376971 
L 281.427589 56.584184 
L 281.698247 56.479507 
L 281.833576 56.584184 
L 282.104234 56.479507 
L 282.374893 56.584184 
L 284.946146 56.479507 
L 285.081475 56.376971 
L 285.352133 56.479507 
L 288.194044 56.584184 
L 288.329374 56.691066 
L 288.464703 56.584184 
L 288.735361 56.691066 
L 295.366488 56.584184 
L 295.501817 56.479507 
L 295.772475 56.584184 
L 308.493412 56.691066 
L 308.628741 56.800217 
L 308.899399 56.691066 
L 327.304159 56.691066 
L 327.439488 56.479507 
L 349.227475 56.376971 
L 349.498133 56.276515 
L 351.122083 56.276515 
L 351.257412 56.479507 
L 360.053804 56.584184 
L 360.324462 56.691066 
L 360.459792 56.376971 
L 362.354399 56.376971 
L 362.489728 56.584184 
L 362.895716 56.376971 
L 364.654994 56.376971 
L 364.790323 56.584184 
L 364.925652 56.479507 
L 365.060981 56.584184 
L 365.196311 56.376971 
L 366.143614 56.376971 
L 366.278943 56.584184 
L 366.684931 56.376971 
L 370.609475 56.276515 
L 370.880133 56.178081 
L 398.487273 56.081612 
L 398.487273 56.081612 
" clip-path="url(#p621ddd43d3)" style="fill: none; stroke: #1f77b4; stroke-width: 1.5; stroke-linecap: square"/>
   </g>
   <g id="patch_3">
    <path d="M 57.6 307.584 
L 57.6 41.472 
" style="fill: none; stroke: #000000; stroke-width: 0.8; stroke-linejoin: miter; stroke-linecap: square"/>
   </g>
   <g id="patch_4">
    <path d="M 414.72 307.584 
L 414.72 41.472 
" style="fill: none; stroke: #000000; stroke-width: 0.8; stroke-linejoin: miter; stroke-linecap: square"/>
   </g>
   <g id="patch_5">
    <path d="M 57.6 307.584 
L 414.72 307.584 
" style="fill: none; stroke: #000000; stroke-width: 0.8; stroke-linejoin: miter; stroke-linecap: square"/>
   </g>
   <g id="patch_6">
    <path d="M 57.6 41.472 
L 414.72 41.472 
" style="fill: none; stroke: #000000; stroke-width: 0.8; stroke-linejoin: miter; stroke-linecap: square"/>
   </g>
  </g>
 </g>
 <defs>
  <clipPath id="p621ddd43d3">
   <rect x="57.6" y="41.472" width="357.12" height="266.112"/>
  </clipPath>
 </defs>
</svg>
