<?xml version="1.0" encoding="utf-8" standalone="no"?>
<!DOCTYPE svg PUBLIC "-//W3C//DTD SVG 1.1//EN"
  "http://www.w3.org/Graphics/SVG/1.1/DTD/svg11.dtd">
<svg xmlns:xlink="http://www.w3.org/1999/xlink" width="460.8pt" height="345.6pt" viewBox="0 0 460.8 345.6" xmlns="http://www.w3.org/2000/svg" version="1.1">
 <metadata>
  <rdf:RDF xmlns:dc="http://purl.org/dc/elements/1.1/" xmlns:cc="http://creativecommons.org/ns#" xmlns:rdf="http://www.w3.org/1999/02/22-rdf-syntax-ns#">
   <cc:Work>
    <dc:type rdf:resource="http://purl.org/dc/dcmitype/StillImage"/>
    <dc:date>2024-04-26T15:22:57.045517</dc:date>
    <dc:format>image/svg+xml</dc:format>
    <dc:creator>
     <cc:Agent>
      <dc:title>Matplotlib v3.7.2, https://matplotlib.org/</dc:title>
     </cc:Agent>
    </dc:creator>
   </cc:Work>
  </rdf:RDF>
 </metadata>
 <defs>
  <style type="text/css">*{stroke-linejoin: round; stroke-linecap: butt}</style>
 </defs>
 <g id="figure_1">
  <g id="patch_1">
   <path d="M 0 345.6 
L 460.8 345.6 
L 460.8 0 
L 0 0 
z
" style="fill: #ffffff"/>
  </g>
  <g id="axes_1">
   <g id="patch_2">
    <path d="M 57.6 307.584 
L 414.72 307.584 
L 414.72 41.472 
L 57.6 41.472 
z
" style="fill: #ffffff"/>
   </g>
   <g id="matplotlib.axis_1">
    <g id="xtick_1">
     <g id="line2d_1">
      <defs>
       <path id="ma818162c94" d="M 0 0 
L 0 3.5 
" style="stroke: #000000; stroke-width: 0.8"/>
      </defs>
      <g>
       <use xlink:href="#ma818162c94" x="73.832727" y="307.584" style="stroke: #000000; stroke-width: 0.8"/>
      </g>
     </g>
     <g id="text_1">
      <!-- 0 -->
      <g transform="translate(70.651477 322.182437) scale(0.1 -0.1)">
       <defs>
        <path id="DejaVuSans-30" d="M 2034 4250 
Q 1547 4250 1301 3770 
Q 1056 3291 1056 2328 
Q 1056 1369 1301 889 
Q 1547 409 2034 409 
Q 2525 409 2770 889 
Q 3016 1369 3016 2328 
Q 3016 3291 2770 3770 
Q 2525 4250 2034 4250 
z
M 2034 4750 
Q 2819 4750 3233 4129 
Q 3647 3509 3647 2328 
Q 3647 1150 3233 529 
Q 2819 -91 2034 -91 
Q 1250 -91 836 529 
Q 422 1150 422 2328 
Q 422 3509 836 4129 
Q 1250 4750 2034 4750 
z
" transform="scale(0.015625)"/>
       </defs>
       <use xlink:href="#DejaVuSans-30"/>
      </g>
     </g>
    </g>
    <g id="xtick_2">
     <g id="line2d_2">
      <g>
       <use xlink:href="#ma818162c94" x="127.959861" y="307.584" style="stroke: #000000; stroke-width: 0.8"/>
      </g>
     </g>
     <g id="text_2">
      <!-- 500 -->
      <g transform="translate(118.416111 322.182437) scale(0.1 -0.1)">
       <defs>
        <path id="DejaVuSans-35" d="M 691 4666 
L 3169 4666 
L 3169 4134 
L 1269 4134 
L 1269 2991 
Q 1406 3038 1543 3061 
Q 1681 3084 1819 3084 
Q 2600 3084 3056 2656 
Q 3513 2228 3513 1497 
Q 3513 744 3044 326 
Q 2575 -91 1722 -91 
Q 1428 -91 1123 -41 
Q 819 9 494 109 
L 494 744 
Q 775 591 1075 516 
Q 1375 441 1709 441 
Q 2250 441 2565 725 
Q 2881 1009 2881 1497 
Q 2881 1984 2565 2268 
Q 2250 2553 1709 2553 
Q 1456 2553 1204 2497 
Q 953 2441 691 2322 
L 691 4666 
z
" transform="scale(0.015625)"/>
       </defs>
       <use xlink:href="#DejaVuSans-35"/>
       <use xlink:href="#DejaVuSans-30" x="63.623047"/>
       <use xlink:href="#DejaVuSans-30" x="127.246094"/>
      </g>
     </g>
    </g>
    <g id="xtick_3">
     <g id="line2d_3">
      <g>
       <use xlink:href="#ma818162c94" x="182.086994" y="307.584" style="stroke: #000000; stroke-width: 0.8"/>
      </g>
     </g>
     <g id="text_3">
      <!-- 1000 -->
      <g transform="translate(169.361994 322.182437) scale(0.1 -0.1)">
       <defs>
        <path id="DejaVuSans-31" d="M 794 531 
L 1825 531 
L 1825 4091 
L 703 3866 
L 703 4441 
L 1819 4666 
L 2450 4666 
L 2450 531 
L 3481 531 
L 3481 0 
L 794 0 
L 794 531 
z
" transform="scale(0.015625)"/>
       </defs>
       <use xlink:href="#DejaVuSans-31"/>
       <use xlink:href="#DejaVuSans-30" x="63.623047"/>
       <use xlink:href="#DejaVuSans-30" x="127.246094"/>
       <use xlink:href="#DejaVuSans-30" x="190.869141"/>
      </g>
     </g>
    </g>
    <g id="xtick_4">
     <g id="line2d_4">
      <g>
       <use xlink:href="#ma818162c94" x="236.214127" y="307.584" style="stroke: #000000; stroke-width: 0.8"/>
      </g>
     </g>
     <g id="text_4">
      <!-- 1500 -->
      <g transform="translate(223.489127 322.182437) scale(0.1 -0.1)">
       <use xlink:href="#DejaVuSans-31"/>
       <use xlink:href="#DejaVuSans-35" x="63.623047"/>
       <use xlink:href="#DejaVuSans-30" x="127.246094"/>
       <use xlink:href="#DejaVuSans-30" x="190.869141"/>
      </g>
     </g>
    </g>
    <g id="xtick_5">
     <g id="line2d_5">
      <g>
       <use xlink:href="#ma818162c94" x="290.34126" y="307.584" style="stroke: #000000; stroke-width: 0.8"/>
      </g>
     </g>
     <g id="text_5">
      <!-- 2000 -->
      <g transform="translate(277.61626 322.182437) scale(0.1 -0.1)">
       <defs>
        <path id="DejaVuSans-32" d="M 1228 531 
L 3431 531 
L 3431 0 
L 469 0 
L 469 531 
Q 828 903 1448 1529 
Q 2069 2156 2228 2338 
Q 2531 2678 2651 2914 
Q 2772 3150 2772 3378 
Q 2772 3750 2511 3984 
Q 2250 4219 1831 4219 
Q 1534 4219 1204 4116 
Q 875 4013 500 3803 
L 500 4441 
Q 881 4594 1212 4672 
Q 1544 4750 1819 4750 
Q 2544 4750 2975 4387 
Q 3406 4025 3406 3419 
Q 3406 3131 3298 2873 
Q 3191 2616 2906 2266 
Q 2828 2175 2409 1742 
Q 1991 1309 1228 531 
z
" transform="scale(0.015625)"/>
       </defs>
       <use xlink:href="#DejaVuSans-32"/>
       <use xlink:href="#DejaVuSans-30" x="63.623047"/>
       <use xlink:href="#DejaVuSans-30" x="127.246094"/>
       <use xlink:href="#DejaVuSans-30" x="190.869141"/>
      </g>
     </g>
    </g>
    <g id="xtick_6">
     <g id="line2d_6">
      <g>
       <use xlink:href="#ma818162c94" x="344.468394" y="307.584" style="stroke: #000000; stroke-width: 0.8"/>
      </g>
     </g>
     <g id="text_6">
      <!-- 2500 -->
      <g transform="translate(331.743394 322.182437) scale(0.1 -0.1)">
       <use xlink:href="#DejaVuSans-32"/>
       <use xlink:href="#DejaVuSans-35" x="63.623047"/>
       <use xlink:href="#DejaVuSans-30" x="127.246094"/>
       <use xlink:href="#DejaVuSans-30" x="190.869141"/>
      </g>
     </g>
    </g>
    <g id="xtick_7">
     <g id="line2d_7">
      <g>
       <use xlink:href="#ma818162c94" x="398.595527" y="307.584" style="stroke: #000000; stroke-width: 0.8"/>
      </g>
     </g>
     <g id="text_7">
      <!-- 3000 -->
      <g transform="translate(385.870527 322.182437) scale(0.1 -0.1)">
       <defs>
        <path id="DejaVuSans-33" d="M 2597 2516 
Q 3050 2419 3304 2112 
Q 3559 1806 3559 1356 
Q 3559 666 3084 287 
Q 2609 -91 1734 -91 
Q 1441 -91 1130 -33 
Q 819 25 488 141 
L 488 750 
Q 750 597 1062 519 
Q 1375 441 1716 441 
Q 2309 441 2620 675 
Q 2931 909 2931 1356 
Q 2931 1769 2642 2001 
Q 2353 2234 1838 2234 
L 1294 2234 
L 1294 2753 
L 1863 2753 
Q 2328 2753 2575 2939 
Q 2822 3125 2822 3475 
Q 2822 3834 2567 4026 
Q 2313 4219 1838 4219 
Q 1578 4219 1281 4162 
Q 984 4106 628 3988 
L 628 4550 
Q 988 4650 1302 4700 
Q 1616 4750 1894 4750 
Q 2613 4750 3031 4423 
Q 3450 4097 3450 3541 
Q 3450 3153 3228 2886 
Q 3006 2619 2597 2516 
z
" transform="scale(0.015625)"/>
       </defs>
       <use xlink:href="#DejaVuSans-33"/>
       <use xlink:href="#DejaVuSans-30" x="63.623047"/>
       <use xlink:href="#DejaVuSans-30" x="127.246094"/>
       <use xlink:href="#DejaVuSans-30" x="190.869141"/>
      </g>
     </g>
    </g>
   </g>
   <g id="matplotlib.axis_2">
    <g id="ytick_1">
     <g id="line2d_8">
      <defs>
       <path id="m0209141d88" d="M 0 0 
L -3.5 0 
" style="stroke: #000000; stroke-width: 0.8"/>
      </defs>
      <g>
       <use xlink:href="#m0209141d88" x="57.6" y="296.805935" style="stroke: #000000; stroke-width: 0.8"/>
      </g>
     </g>
     <g id="text_8">
      <!-- −150 -->
      <g transform="translate(23.132812 300.605154) scale(0.1 -0.1)">
       <defs>
        <path id="DejaVuSans-2212" d="M 678 2272 
L 4684 2272 
L 4684 1741 
L 678 1741 
L 678 2272 
z
" transform="scale(0.015625)"/>
       </defs>
       <use xlink:href="#DejaVuSans-2212"/>
       <use xlink:href="#DejaVuSans-31" x="83.789062"/>
       <use xlink:href="#DejaVuSans-35" x="147.412109"/>
       <use xlink:href="#DejaVuSans-30" x="211.035156"/>
      </g>
     </g>
    </g>
    <g id="ytick_2">
     <g id="line2d_9">
      <g>
       <use xlink:href="#m0209141d88" x="57.6" y="248.931016" style="stroke: #000000; stroke-width: 0.8"/>
      </g>
     </g>
     <g id="text_9">
      <!-- −100 -->
      <g transform="translate(23.132812 252.730234) scale(0.1 -0.1)">
       <use xlink:href="#DejaVuSans-2212"/>
       <use xlink:href="#DejaVuSans-31" x="83.789062"/>
       <use xlink:href="#DejaVuSans-30" x="147.412109"/>
       <use xlink:href="#DejaVuSans-30" x="211.035156"/>
      </g>
     </g>
    </g>
    <g id="ytick_3">
     <g id="line2d_10">
      <g>
       <use xlink:href="#m0209141d88" x="57.6" y="201.056096" style="stroke: #000000; stroke-width: 0.8"/>
      </g>
     </g>
     <g id="text_10">
      <!-- −50 -->
      <g transform="translate(29.495313 204.855314) scale(0.1 -0.1)">
       <use xlink:href="#DejaVuSans-2212"/>
       <use xlink:href="#DejaVuSans-35" x="83.789062"/>
       <use xlink:href="#DejaVuSans-30" x="147.412109"/>
      </g>
     </g>
    </g>
    <g id="ytick_4">
     <g id="line2d_11">
      <g>
       <use xlink:href="#m0209141d88" x="57.6" y="153.181176" style="stroke: #000000; stroke-width: 0.8"/>
      </g>
     </g>
     <g id="text_11">
      <!-- 0 -->
      <g transform="translate(44.2375 156.980395) scale(0.1 -0.1)">
       <use xlink:href="#DejaVuSans-30"/>
      </g>
     </g>
    </g>
    <g id="ytick_5">
     <g id="line2d_12">
      <g>
       <use xlink:href="#m0209141d88" x="57.6" y="105.306256" style="stroke: #000000; stroke-width: 0.8"/>
      </g>
     </g>
     <g id="text_12">
      <!-- 50 -->
      <g transform="translate(37.875 109.105475) scale(0.1 -0.1)">
       <use xlink:href="#DejaVuSans-35"/>
       <use xlink:href="#DejaVuSans-30" x="63.623047"/>
      </g>
     </g>
    </g>
    <g id="ytick_6">
     <g id="line2d_13">
      <g>
       <use xlink:href="#m0209141d88" x="57.6" y="57.431336" style="stroke: #000000; stroke-width: 0.8"/>
      </g>
     </g>
     <g id="text_13">
      <!-- 100 -->
      <g transform="translate(31.5125 61.230555) scale(0.1 -0.1)">
       <use xlink:href="#DejaVuSans-31"/>
       <use xlink:href="#DejaVuSans-30" x="63.623047"/>
       <use xlink:href="#DejaVuSans-30" x="127.246094"/>
      </g>
     </g>
    </g>
   </g>
   <g id="line2d_14">
    <path d="M 73.832727 144.861738 
L 73.940982 153.181176 
L 74.049236 110.676528 
L 74.265744 157.367543 
L 74.373999 124.2523 
L 74.590507 265.753478 
L 74.698761 149.994578 
L 74.807016 157.053492 
L 74.91527 153.181176 
L 75.023524 158.579331 
L 75.131778 291.469049 
L 75.348287 138.895378 
L 75.456541 141.133571 
L 75.564796 130.451254 
L 75.781304 153.181176 
L 75.889558 149.156423 
L 75.997813 266.468581 
L 76.106067 151.902165 
L 76.214321 153.541866 
L 76.322575 153.181176 
L 76.43083 140.796531 
L 76.539084 154.237141 
L 76.647338 153.181176 
L 76.755592 186.317554 
L 76.863847 135.581872 
L 77.080355 152.168593 
L 77.18861 128.819667 
L 77.296864 151.196992 
L 77.405118 146.569557 
L 77.513372 266.670174 
L 77.729881 153.181176 
L 77.838135 127.360265 
L 78.162898 221.62991 
L 78.271152 274.149378 
L 78.379406 127.04612 
L 78.487661 131.554131 
L 78.595915 119.233975 
L 78.812424 172.506291 
L 78.920678 150.871716 
L 79.028932 153.399731 
L 79.137186 159.3892 
L 79.353695 150.660285 
L 79.461949 114.592122 
L 79.678458 153.181176 
L 79.786712 153.181176 
L 79.894966 152.168593 
L 80.00322 236.081919 
L 80.219729 153.181176 
L 80.327983 143.716981 
L 80.436238 154.536933 
L 80.544492 214.020168 
L 80.652746 153.181176 
L 80.761 244.607462 
L 80.869255 160.76013 
L 80.977509 175.454429 
L 81.085763 142.830015 
L 81.194017 160.750223 
L 81.302272 256.312891 
L 81.51878 118.374593 
L 81.627034 152.168593 
L 81.735289 149.156423 
L 81.843543 276.264863 
L 81.951797 139.430837 
L 82.060052 153.181176 
L 82.168306 291.95838 
L 82.27656 153.181176 
L 82.384814 207.862813 
L 82.601323 152.168593 
L 82.709577 261.756414 
L 82.817831 143.168504 
L 82.926086 153.181176 
L 83.03434 149.190067 
L 83.142594 256.312891 
L 83.359103 150.106978 
L 83.467357 155.46055 
L 83.575611 153.181176 
L 83.683866 156.539371 
L 83.79212 146.237169 
L 83.900374 150.871716 
L 84.008628 147.421686 
L 84.116883 153.181176 
L 84.225137 120.968611 
L 84.441645 149.156423 
L 84.5499 148.660345 
L 84.658154 224.403929 
L 84.874662 153.181176 
L 84.982917 153.298907 
L 85.091171 131.0422 
L 85.199425 152.282662 
L 85.30768 136.30333 
L 85.415934 152.168593 
L 85.524188 150.871716 
L 85.632442 295.488 
L 85.848951 144.46614 
L 85.957205 283.048112 
L 86.173714 137.253748 
L 86.390222 156.981898 
L 86.498476 148.132008 
L 86.606731 152.781459 
L 86.714985 104.953017 
L 86.823239 164.014693 
L 87.039748 150.986676 
L 87.148002 157.163877 
L 87.256256 146.979805 
L 87.472765 153.181176 
L 87.581019 154.122389 
L 87.797528 153.181176 
L 88.014036 122.715161 
L 88.12229 123.959991 
L 88.230545 114.046607 
L 88.338799 152.566536 
L 88.447053 148.695206 
L 88.555308 131.812367 
L 88.88007 199.152089 
L 88.988325 176.879683 
L 89.421342 218.911146 
L 89.529596 136.7845 
L 89.63785 153.181176 
L 89.746104 140.896225 
L 89.854359 222.96221 
L 89.962613 219.238741 
L 90.070867 171.854959 
L 90.287376 195.755904 
L 90.503884 177.539436 
L 90.720393 181.420707 
L 90.828647 150.677511 
L 90.936901 155.001378 
L 91.045156 154.492237 
L 91.15341 176.363971 
L 91.261664 169.916979 
L 91.369918 171.383806 
L 91.586427 134.534585 
L 91.694681 145.542895 
L 91.802936 215.982728 
L 91.91119 103.233734 
L 92.127698 188.988669 
L 92.235953 151.646182 
L 92.344207 155.619318 
L 92.452461 127.573354 
L 92.560715 154.520393 
L 92.66897 128.30856 
L 92.777224 152.844378 
L 92.885478 121.446437 
L 92.993732 128.458118 
L 93.101987 157.874424 
L 93.42675 146.394206 
L 93.535004 145.697717 
L 93.643258 155.149676 
L 93.751512 151.116319 
L 93.859767 121.745244 
L 93.968021 168.272545 
L 94.184529 151.914741 
L 94.292784 152.830226 
L 94.401038 169.396738 
L 94.617546 121.222577 
L 94.834055 142.108393 
L 94.942309 123.524009 
L 95.158818 143.971023 
L 95.267072 113.838169 
L 95.375326 132.966966 
L 95.483581 114.760945 
L 95.591835 127.275432 
L 95.808343 91.308447 
L 95.916598 130.542637 
L 96.024852 106.714699 
L 96.133106 114.587403 
L 96.457869 211.652177 
L 96.566123 214.287081 
L 96.674378 210.195552 
L 96.782632 199.862593 
L 96.890886 148.429189 
L 96.99914 225.058978 
L 97.107395 214.284794 
L 97.323903 144.989132 
L 97.432157 219.297778 
L 97.540412 144.989132 
L 97.648666 218.186377 
L 97.75692 214.25388 
L 97.865174 221.287613 
L 97.973429 220.107119 
L 98.189937 195.187305 
L 98.298192 201.868829 
L 98.406446 199.862593 
L 98.5147 165.179022 
L 98.622954 221.287613 
L 98.731209 179.866086 
L 98.839463 219.297778 
L 98.947717 180.583487 
L 99.164226 220.107119 
L 99.488988 203.31713 
L 99.597243 186.075772 
L 99.813751 230.476735 
L 99.922006 214.42415 
L 100.138514 160.934265 
L 100.246768 214.25388 
L 100.355023 161.533576 
L 100.463277 162.461372 
L 100.571531 160.934265 
L 100.679785 164.793043 
L 100.78804 161.533576 
L 100.896294 220.107119 
L 101.004548 215.938718 
L 101.112802 216.40127 
L 101.329311 220.107119 
L 101.437565 220.107119 
L 101.654074 155.236277 
L 101.870582 166.756068 
L 102.087091 161.533576 
L 102.195345 230.584209 
L 102.303599 220.107119 
L 102.411854 161.533576 
L 102.628362 220.107119 
L 102.844871 226.710505 
L 102.953125 216.830688 
L 103.061379 226.710505 
L 103.169634 172.024478 
L 103.386142 191.404943 
L 103.494396 190.312421 
L 103.710905 147.491296 
L 103.819159 170.330974 
L 103.927413 226.710505 
L 104.143922 175.667779 
L 104.252176 226.710505 
L 104.468685 165.382833 
L 104.576939 165.382833 
L 104.685193 153.181176 
L 104.901702 231.984297 
L 105.009956 226.710505 
L 105.226465 150.084647 
L 105.334719 234.249903 
L 105.442973 176.071627 
L 105.659482 218.252808 
L 105.767736 209.563236 
L 105.87599 166.001735 
L 105.984244 234.866366 
L 106.092499 231.717605 
L 106.200753 186.373587 
L 106.309007 251.447124 
L 106.525516 228.466238 
L 106.63377 161.002095 
L 106.742024 165.312064 
L 106.850279 219.057308 
L 107.175041 141.406622 
L 107.283296 145.504454 
L 107.39155 164.411287 
L 107.608058 124.867153 
L 107.716313 174.426376 
L 107.932821 131.463657 
L 108.14933 168.954991 
L 108.474093 115.599035 
L 108.582347 172.799886 
L 108.798855 133.213408 
L 109.015364 130.568215 
L 109.123618 130.568215 
L 109.340127 153.245296 
L 109.448381 168.954991 
L 109.556635 129.663294 
L 109.66489 132.007991 
L 109.773144 178.45375 
L 110.097907 119.306164 
L 110.206161 170.768725 
L 110.314415 152.155616 
L 110.530924 169.343022 
L 110.639178 165.21628 
L 110.747432 114.507623 
L 110.963941 154.634004 
L 111.180449 129.663294 
L 111.288704 155.750171 
L 111.396958 153.245296 
L 111.505212 159.546319 
L 111.613466 129.872493 
L 111.721721 154.634004 
L 111.829975 129.58815 
L 112.046483 152.155616 
L 112.154738 158.351596 
L 112.262992 152.155616 
L 112.4795 155.750171 
L 112.587755 130.794293 
L 112.696009 156.808607 
L 112.804263 146.290833 
L 112.912518 152.155616 
L 113.020772 130.169698 
L 113.23728 174.122756 
L 113.453789 129.663294 
L 113.562043 130.568215 
L 113.778552 115.640359 
L 114.103314 144.093064 
L 114.319823 154.634004 
L 114.428077 137.345445 
L 114.644586 170.052643 
L 114.75284 130.568215 
L 114.969349 159.883376 
L 115.185857 152.155616 
L 115.294111 130.568215 
L 115.402366 156.915232 
L 115.618874 129.663294 
L 115.727128 129.663294 
L 115.835383 152.155616 
L 116.051891 127.322933 
L 116.160146 164.975429 
L 116.2684 114.507623 
L 116.484908 177.673137 
L 116.701417 129.663294 
L 116.809671 166.382208 
L 117.02618 118.002176 
L 117.242688 154.634004 
L 117.350942 153.245296 
L 117.459197 134.896617 
L 117.567451 155.568745 
L 117.675705 129.663294 
L 117.78396 131.463657 
L 117.892214 120.837472 
L 118.000468 157.207724 
L 118.108722 116.835528 
L 118.216977 167.211454 
L 118.433485 122.003203 
L 118.649994 163.232661 
L 118.758248 167.610393 
L 118.866502 184.750492 
L 119.191265 116.619137 
L 119.516028 154.24434 
L 119.624282 142.852071 
L 119.840791 154.280584 
L 120.057299 152.155616 
L 120.165553 152.101723 
L 120.273808 154.528715 
L 120.382062 186.70448 
L 120.490316 128.652854 
L 120.59857 152.101723 
L 120.706825 117.319492 
L 120.923333 150.779634 
L 121.031587 125.132823 
L 121.139842 154.528715 
L 121.248096 117.351673 
L 121.35635 164.641741 
L 121.681113 137.111387 
L 121.897622 154.528715 
L 122.005876 120.139678 
L 122.11413 152.101723 
L 122.222384 131.636866 
L 122.330639 133.831148 
L 122.438893 118.72316 
L 122.547147 154.528715 
L 122.763656 131.636866 
L 122.87191 154.528715 
L 123.088419 114.728416 
L 123.196673 152.101723 
L 123.521436 117.318227 
L 123.62969 123.254605 
L 123.737944 124.937819 
L 124.170961 260.920887 
L 124.279215 252.475109 
L 124.495724 175.364728 
L 124.603978 226.710505 
L 124.712233 212.470401 
L 124.928741 272.700952 
L 125.14525 248.883301 
L 125.253504 256.106862 
L 125.470012 248.883301 
L 125.578267 247.454388 
L 125.794775 248.883301 
L 125.903029 226.710505 
L 126.119538 248.883301 
L 126.336047 226.710505 
L 126.552555 248.883301 
L 126.660809 226.710505 
L 126.769064 153.181176 
L 126.985572 242.112345 
L 127.093826 235.712807 
L 127.202081 153.181176 
L 127.418589 234.097306 
L 127.526843 234.097306 
L 127.743352 226.710505 
L 127.851606 226.710505 
L 127.959861 242.112345 
L 128.068115 226.710505 
L 128.176369 240.565792 
L 128.392878 226.710505 
L 128.501132 226.710505 
L 128.71764 153.181176 
L 128.934149 242.112345 
L 129.042403 248.883301 
L 129.258912 153.181176 
L 129.583675 153.181176 
L 129.800183 242.112345 
L 130.016692 226.710505 
L 130.124946 153.181176 
L 130.341454 226.710505 
L 130.449709 226.710505 
L 130.557963 153.181176 
L 130.666217 226.710505 
L 130.774471 153.181176 
L 130.99098 248.883301 
L 131.099234 226.710505 
L 131.207489 153.181176 
L 131.423997 226.710505 
L 131.532251 226.710505 
L 131.640506 153.181176 
L 131.857014 226.710505 
L 132.290031 226.710505 
L 132.50654 153.181176 
L 132.614794 153.181176 
L 132.723048 237.734752 
L 132.939557 153.181176 
L 133.156065 226.710505 
L 133.589082 226.710505 
L 133.697337 153.181176 
L 133.913845 226.710505 
L 134.130354 226.710505 
L 134.238608 153.181176 
L 134.346862 226.710505 
L 134.563371 153.181176 
L 134.671625 237.734752 
L 134.779879 153.181176 
L 134.996388 226.710505 
L 135.104642 153.181176 
L 135.321151 226.710505 
L 135.429405 242.112345 
L 135.645913 226.710505 
L 135.754168 226.710505 
L 135.970676 153.181176 
L 136.078931 153.181176 
L 136.295439 226.710505 
L 136.511948 226.710505 
L 136.620202 153.181176 
L 136.83671 226.710505 
L 136.944965 226.710505 
L 137.053219 153.181176 
L 137.161473 226.710505 
L 137.377982 153.181176 
L 137.486236 153.181176 
L 137.59449 226.710505 
L 137.702745 153.181176 
L 137.919253 226.710505 
L 138.027507 235.712807 
L 138.244016 226.710505 
L 138.35227 237.734752 
L 138.568779 153.181176 
L 138.677033 248.883301 
L 138.893541 226.710505 
L 139.001796 226.710505 
L 139.11005 153.181176 
L 139.326559 226.710505 
L 139.434813 226.710505 
L 139.651321 153.181176 
L 139.759576 226.710505 
L 139.86783 153.181176 
L 140.084338 226.710505 
L 140.733864 226.710505 
L 140.842118 153.181176 
L 140.950373 226.710505 
L 141.058627 153.181176 
L 141.166881 226.710505 
L 141.38339 153.181176 
L 141.491644 235.712807 
L 141.599898 153.181176 
L 141.816407 226.710505 
L 142.141169 226.710505 
L 142.357678 153.181176 
L 142.574187 226.710505 
L 142.682441 153.181176 
L 142.898949 226.710505 
L 143.007204 153.181176 
L 143.223712 226.710505 
L 143.440221 226.710505 
L 143.548475 153.181176 
L 143.764983 226.710505 
L 143.873238 226.710505 
L 143.981492 153.181176 
L 144.198001 226.710505 
L 144.306255 226.710505 
L 144.414509 153.181176 
L 144.631018 226.710505 
L 144.95578 226.710505 
L 145.064035 153.181176 
L 145.172289 226.710505 
L 145.388797 153.181176 
L 145.497052 226.710505 
L 145.71356 153.181176 
L 145.821815 153.181176 
L 145.930069 226.710505 
L 146.146577 153.181176 
L 146.254832 226.710505 
L 146.363086 153.181176 
L 146.579594 226.710505 
L 146.687849 226.710505 
L 146.796103 153.181176 
L 147.012611 226.710505 
L 147.22912 226.710505 
L 147.337374 242.112345 
L 147.553883 226.710505 
L 147.770391 153.181176 
L 147.878646 248.883301 
L 147.9869 226.710505 
L 148.095154 235.712807 
L 148.203408 226.710505 
L 148.311663 235.712807 
L 148.528171 226.710505 
L 148.74468 226.710505 
L 148.961188 242.210426 
L 149.069443 225.738216 
L 149.177697 153.181176 
L 149.285951 226.710505 
L 149.394205 220.107119 
L 149.50246 223.863504 
L 149.610714 220.107119 
L 149.718968 180.910018 
L 149.827222 191.473471 
L 149.935477 76.755324 
L 150.043731 78.574589 
L 150.151985 74.569926 
L 150.585002 143.858061 
L 150.909765 143.858061 
L 151.018019 143.068505 
L 151.234528 143.858061 
L 151.342782 143.858061 
L 151.559291 143.068505 
L 151.775799 143.068505 
L 151.992308 146.845266 
L 152.208816 145.225469 
L 152.533579 145.225469 
L 152.641833 143.068505 
L 152.858342 145.225469 
L 153.183105 145.225469 
L 153.399613 134.354711 
L 153.507867 134.354711 
L 153.724376 120.961388 
L 153.940885 144.004646 
L 154.049139 144.988624 
L 154.157393 153.109907 
L 154.265647 143.934845 
L 154.373902 155.32913 
L 154.59041 151.797947 
L 154.698664 157.939217 
L 154.806919 149.221044 
L 154.915173 156.143247 
L 155.023427 153.109907 
L 155.239936 143.934845 
L 155.34819 143.934845 
L 155.456444 149.221044 
L 155.564699 143.934845 
L 155.672953 153.109907 
L 155.889461 140.716559 
L 155.997716 151.223927 
L 156.10597 140.716559 
L 156.214224 157.939217 
L 156.322478 155.996087 
L 156.538987 148.005633 
L 156.647241 140.716559 
L 156.86375 148.005633 
L 156.972004 148.005633 
L 157.080258 159.991676 
L 157.188513 148.005633 
L 157.296767 149.62543 
L 157.513275 148.005633 
L 157.62153 159.991676 
L 157.838038 140.716559 
L 158.054547 154.157193 
L 158.271055 148.005633 
L 159.353598 148.005633 
L 159.461852 155.996087 
L 159.678361 148.005633 
L 159.786615 148.005633 
L 159.894869 155.996087 
L 160.003123 200.259871 
L 160.219632 148.005633 
L 160.327886 155.996087 
L 160.544395 148.005633 
L 160.652649 159.991676 
L 160.760903 157.939217 
L 160.977412 148.005633 
L 161.085666 157.939217 
L 161.19392 148.005633 
L 161.302175 200.259871 
L 161.518683 148.005633 
L 161.9517 148.005633 
L 162.059955 193.416256 
L 162.276463 148.005633 
L 162.492972 148.005633 
L 162.601226 151.223927 
L 162.817734 148.005633 
L 162.925989 159.991676 
L 163.034243 208.348713 
L 163.250751 159.991676 
L 163.46726 148.005633 
L 163.683769 148.005633 
L 163.792023 208.348713 
L 164.008531 148.005633 
L 164.116786 208.348713 
L 164.333294 148.005633 
L 164.658057 148.005633 
L 164.766311 193.416256 
L 164.98282 148.005633 
L 165.091074 159.991676 
L 165.307583 148.005633 
L 165.632345 148.005633 
L 165.7406 155.996087 
L 165.957108 208.348713 
L 166.173617 148.005633 
L 166.281871 208.348713 
L 166.390125 200.259871 
L 166.606634 148.005633 
L 167.147905 148.005633 
L 167.256159 200.259871 
L 167.472668 148.005633 
L 167.580922 200.259871 
L 167.797431 148.005633 
L 168.338702 148.005633 
L 168.446956 208.348713 
L 168.663465 148.005633 
L 169.31299 148.005633 
L 169.421245 208.348713 
L 169.529499 148.005633 
L 169.637753 193.416256 
L 169.854262 148.005633 
L 170.179025 148.005633 
L 170.287279 155.996087 
L 170.503787 148.005633 
L 170.720296 148.005633 
L 170.82855 193.416256 
L 171.045059 148.005633 
L 171.58633 148.005633 
L 171.802839 208.348713 
L 172.019347 148.005633 
L 172.127601 148.005633 
L 172.34411 200.259871 
L 172.452364 155.996087 
L 172.560618 208.348713 
L 172.668873 193.416256 
L 172.885381 148.005633 
L 173.10189 208.348713 
L 173.318398 148.005633 
L 174.076178 148.005633 
L 174.184432 208.348713 
L 174.400941 148.005633 
L 174.509195 157.939217 
L 174.725704 148.005633 
L 174.833958 193.416256 
L 174.942212 148.005633 
L 175.050467 208.348713 
L 175.266975 148.005633 
L 175.375229 148.005633 
L 175.483484 159.991676 
L 175.699992 148.005633 
L 176.349518 148.005633 
L 176.457772 193.416256 
L 176.566026 148.005633 
L 176.674281 159.991676 
L 176.890789 148.005633 
L 177.215552 148.005633 
L 177.323806 200.259871 
L 177.540315 148.005633 
L 177.648569 148.005633 
L 177.756823 157.939217 
L 177.973332 148.005633 
L 178.298095 148.005633 
L 178.406349 159.991676 
L 178.622857 148.005633 
L 178.839366 148.005633 
L 178.94762 200.259871 
L 179.164129 148.005633 
L 179.272383 159.991676 
L 179.488891 148.005633 
L 179.7054 148.005633 
L 179.921909 157.939217 
L 180.030163 157.939217 
L 180.246671 148.005633 
L 180.354926 155.996087 
L 180.571434 148.005633 
L 180.787943 148.005633 
L 180.896197 155.996087 
L 181.112705 148.005633 
L 181.22096 148.005633 
L 181.329214 159.991676 
L 181.545723 148.005633 
L 181.762231 148.005633 
L 181.870485 159.991676 
L 182.086994 148.005633 
L 182.195248 148.005633 
L 182.303502 208.348713 
L 182.520011 148.005633 
L 182.628265 148.005633 
L 182.736519 155.996087 
L 182.953028 148.005633 
L 183.494299 148.005633 
L 183.602554 155.996087 
L 183.819062 148.005633 
L 183.927316 208.348713 
L 184.143825 148.005633 
L 184.252079 148.005633 
L 184.360333 200.259871 
L 184.576842 148.005633 
L 184.685096 159.991676 
L 184.901605 148.005633 
L 185.009859 148.005633 
L 185.118113 208.348713 
L 185.334622 148.005633 
L 185.659385 148.005633 
L 185.767639 193.416256 
L 185.875893 159.991676 
L 185.984147 208.348713 
L 186.200656 148.005633 
L 186.633673 148.005633 
L 186.850182 193.416256 
L 186.958436 148.005633 
L 187.06669 193.416256 
L 187.283199 148.005633 
L 188.365741 148.005633 
L 188.473996 159.991676 
L 188.690504 148.005633 
L 188.798758 200.259871 
L 189.015267 148.005633 
L 189.556538 148.005633 
L 189.664793 208.348713 
L 189.881301 157.939217 
L 189.989555 148.005633 
L 190.09781 208.348713 
L 190.314318 148.005633 
L 190.422572 148.005633 
L 190.530827 159.991676 
L 190.747335 148.005633 
L 191.072098 148.005633 
L 191.180352 159.991676 
L 191.396861 208.348713 
L 191.613369 148.005633 
L 191.829878 148.005633 
L 192.046386 208.348713 
L 192.154641 200.259871 
L 192.371149 148.005633 
L 192.479403 208.348713 
L 192.587658 193.416256 
L 192.804166 148.005633 
L 193.886709 148.005633 
L 194.103217 157.939217 
L 194.319726 148.005633 
L 195.294014 148.005633 
L 195.402269 193.416256 
L 195.618777 148.005633 
L 195.727031 193.416256 
L 195.94354 148.005633 
L 196.268303 148.005633 
L 196.376557 159.991676 
L 196.593066 148.005633 
L 196.917828 148.005633 
L 197.026083 200.259871 
L 197.242591 148.005633 
L 197.4591 157.939217 
L 197.675608 148.005633 
L 197.783862 193.416256 
L 198.000371 148.005633 
L 198.108625 208.348713 
L 198.21688 148.005633 
L 198.325134 159.991676 
L 198.541642 148.005633 
L 198.649897 148.005633 
L 198.758151 157.939217 
L 198.974659 148.005633 
L 199.299422 148.005633 
L 199.407676 208.348713 
L 199.624185 148.005633 
L 200.057202 148.005633 
L 200.165456 140.716551 
L 200.273711 157.939217 
L 200.381965 143.934845 
L 200.598473 159.991676 
L 200.923236 120.961388 
L 201.139745 133.264467 
L 201.247999 130.391227 
L 201.464508 133.264467 
L 201.897525 133.264467 
L 202.005779 133.930725 
L 202.222287 133.264467 
L 202.438796 134.463741 
L 202.655304 134.354711 
L 202.763559 134.463741 
L 202.871813 134.354711 
L 202.980067 133.930725 
L 203.088322 134.354711 
L 203.196576 133.264467 
L 203.30483 130.391227 
L 203.521339 133.264467 
L 203.629593 133.264467 
L 203.737847 130.391227 
L 203.846101 134.354711 
L 203.954356 133.930725 
L 204.06261 134.354711 
L 204.279118 133.264467 
L 204.603881 133.264467 
L 204.712136 130.391227 
L 204.82039 118.53237 
L 205.036898 133.264467 
L 205.253407 118.53237 
L 205.469915 118.53237 
L 205.686424 120.961388 
L 205.902932 118.53237 
L 206.011187 118.53237 
L 206.119441 120.961388 
L 206.227695 118.53237 
L 206.444204 120.961388 
L 206.660712 120.961388 
L 206.877221 118.53237 
L 207.093729 120.961388 
L 207.201984 120.961388 
L 207.310238 118.53237 
L 207.418492 120.961388 
L 207.635001 118.53237 
L 207.959764 118.53237 
L 208.176272 120.961388 
L 208.392781 118.53237 
L 208.825798 118.53237 
L 209.042306 120.961388 
L 209.258815 118.53237 
L 209.475323 120.961388 
L 209.583578 118.53237 
L 209.691832 120.961388 
L 209.800086 118.53237 
L 209.90834 120.961388 
L 210.124849 118.53237 
L 210.233103 120.961388 
L 210.449612 118.53237 
L 210.557866 120.961388 
L 210.66612 118.53237 
L 210.882629 120.961388 
L 210.990883 120.961388 
L 211.099137 118.53237 
L 211.207392 120.961388 
L 211.315646 118.53237 
L 211.4239 119.622607 
L 211.532154 118.53237 
L 211.748663 120.961388 
L 211.856917 120.961388 
L 211.965171 119.622607 
L 212.073426 120.961388 
L 212.18168 119.622607 
L 212.289934 119.731647 
L 212.398188 119.622607 
L 212.506443 122.160663 
L 212.722951 119.622607 
L 212.93946 122.160663 
L 213.155968 119.622607 
L 213.372477 122.051626 
L 213.588985 122.160663 
L 213.69724 122.160663 
L 213.913748 130.391227 
L 214.022002 119.622607 
L 214.238511 130.391227 
L 214.346765 130.391227 
L 214.45502 133.264467 
L 214.671528 130.391227 
L 214.779782 130.391227 
L 214.888037 119.622607 
L 215.104545 130.391227 
L 215.212799 130.391227 
L 215.321054 119.622607 
L 215.537562 133.264467 
L 216.403596 133.264467 
L 216.511851 130.536952 
L 216.836613 94.65986 
L 217.053122 92.251663 
L 217.161376 94.65986 
L 217.26963 92.251663 
L 217.377885 94.65986 
L 217.486139 92.251663 
L 217.594393 92.407401 
L 217.702648 94.65986 
L 217.810902 92.251663 
L 218.02741 94.65986 
L 218.135665 92.251663 
L 218.243919 94.65986 
L 218.352173 90.694516 
L 218.460427 94.65986 
L 218.676936 90.694516 
L 218.893444 93.102712 
L 219.001699 93.102712 
L 219.109953 90.694516 
L 219.218207 93.102712 
L 219.326462 119.385241 
L 219.54297 93.102712 
L 219.759479 93.102712 
L 219.867733 98.435104 
L 220.084241 93.102712 
L 220.30075 94.237518 
L 220.517258 93.662231 
L 220.625513 93.662231 
L 220.733767 94.237518 
L 220.842021 93.662231 
L 220.950276 98.435104 
L 221.05853 94.829223 
L 221.275038 100.161591 
L 221.383293 104.826145 
L 221.491547 93.662231 
L 221.599801 100.161591 
L 221.708055 94.237518 
L 221.81631 100.770392 
L 222.032818 100.161591 
L 222.141072 93.102712 
L 222.249327 93.662231 
L 222.357581 94.829223 
L 222.465835 102.042253 
L 222.682344 98.765584 
L 222.790598 100.770392 
L 222.898852 94.237518 
L 223.223615 95.438033 
L 223.331869 95.438033 
L 223.440124 102.042253 
L 223.548378 99.569894 
L 223.656632 100.770392 
L 223.873141 93.662231 
L 224.089649 95.438033 
L 224.197904 96.064673 
L 224.414412 94.237518 
L 224.522666 103.391803 
L 224.739175 96.064673 
L 224.847429 96.709911 
L 225.063938 94.237518 
L 225.3887 96.709911 
L 225.496955 97.37456 
L 225.605209 95.438033 
L 225.713463 96.064673 
L 225.821718 95.438033 
L 225.929972 93.102712 
L 226.038226 95.438033 
L 226.14648 94.237518 
L 226.254735 98.05948 
L 226.362989 94.237518 
L 226.471243 97.37456 
L 226.687752 94.829223 
L 226.796006 97.37456 
L 227.012514 94.114832 
L 227.120769 96.709911 
L 227.337277 95.316397 
L 227.445532 98.05948 
L 227.553786 93.662231 
L 227.770294 95.438033 
L 227.878549 95.438033 
L 227.986803 94.829223 
L 228.095057 96.709911 
L 228.311566 92.434107 
L 228.41982 94.829223 
L 228.528074 94.237518 
L 228.636328 94.70706 
L 228.744583 94.237518 
L 228.852837 94.829223 
L 228.961091 94.70706 
L 229.069346 94.829223 
L 229.1776 92.434107 
L 229.394108 94.237518 
L 229.502363 94.70706 
L 229.610617 96.064673 
L 229.827125 92.434107 
L 229.93538 95.438033 
L 230.043634 93.662231 
L 230.151888 96.064673 
L 230.368397 92.978988 
L 230.476651 94.829223 
L 230.584905 90.637902 
L 230.801414 94.237518 
L 230.909668 93.662231 
L 231.017922 97.37456 
L 231.126177 92.434107 
L 231.342685 93.662231 
L 231.450939 93.662231 
L 231.559194 94.114832 
L 231.667448 93.662231 
L 231.883956 94.237518 
L 232.100465 93.102712 
L 232.208719 93.102712 
L 232.316974 92.434107 
L 232.425228 94.829223 
L 232.641736 91.253274 
L 232.749991 93.539024 
L 232.858245 90.694516 
L 232.966499 93.102712 
L 233.074753 90.694516 
L 233.183008 91.253274 
L 233.291262 90.694516 
L 233.399516 91.253274 
L 233.616025 90.694516 
L 235.456347 90.694516 
L 235.564602 89.013043 
L 235.672856 90.694516 
L 235.78111 123.971134 
L 235.997619 90.694516 
L 236.755398 90.694516 
L 236.863653 89.013043 
L 236.971907 90.694516 
L 237.188416 89.013043 
L 237.404924 89.013043 
L 237.513178 90.694516 
L 237.729687 89.013043 
L 237.837941 90.694516 
L 237.946195 89.013043 
L 238.162704 90.694516 
L 238.379212 89.013043 
L 238.487467 90.694516 
L 238.595721 89.013043 
L 238.703975 90.694516 
L 238.920484 89.013043 
L 239.028738 89.013043 
L 239.136992 90.694516 
L 239.353501 89.013043 
L 239.678264 89.013043 
L 239.786518 87.821995 
L 240.003026 89.013043 
L 240.652552 89.013043 
L 240.760806 87.821995 
L 240.869061 137.6825 
L 241.085569 87.821995 
L 241.410332 93.884056 
L 241.518586 94.488712 
L 241.62684 99.352082 
L 241.735095 109.847919 
L 241.843349 107.522283 
L 242.059858 111.03954 
L 242.168112 111.03954 
L 242.276366 112.380468 
L 242.38462 137.6825 
L 242.492875 109.75239 
L 242.601129 137.6825 
L 242.817637 112.380468 
L 243.034146 109.566777 
L 243.250654 139.23885 
L 243.358909 141.306069 
L 243.467163 140.787663 
L 243.683672 137.6825 
L 243.90018 137.6825 
L 244.008434 99.387951 
L 244.224943 137.6825 
L 244.333197 138.739888 
L 244.441451 137.6825 
L 244.549706 108.515878 
L 244.65796 109.75239 
L 244.766214 112.570895 
L 244.982723 137.783044 
L 245.090977 102.772202 
L 245.199231 138.165814 
L 245.41574 98.010033 
L 245.523994 108.612006 
L 245.740503 98.414378 
L 245.848757 102.263416 
L 245.957011 100.835625 
L 246.17352 113.967796 
L 246.281774 102.765487 
L 246.390028 109.945216 
L 246.606537 97.277235 
L 246.714791 112.570895 
L 246.9313 98.128546 
L 247.039554 101.795345 
L 247.147808 111.231171 
L 247.364317 100.275695 
L 247.472571 100.892773 
L 247.580825 112.570895 
L 247.689079 98.209527 
L 247.797334 99.514691 
L 247.905588 94.449599 
L 248.122096 99.514691 
L 248.230351 115.933388 
L 248.446859 94.41215 
L 248.555114 95.796495 
L 248.663368 92.775782 
L 248.771622 93.76675 
L 249.096385 128.648405 
L 249.204639 163.882404 
L 249.312893 134.602701 
L 249.421148 163.882404 
L 249.529402 161.933986 
L 249.637656 157.089178 
L 249.74591 161.997493 
L 249.854165 136.234478 
L 249.962419 158.503818 
L 250.070673 116.713639 
L 250.178928 138.507097 
L 250.50369 114.92649 
L 250.611945 124.766114 
L 250.828453 104.237637 
L 250.936707 138.328626 
L 251.044962 136.496674 
L 251.26147 115.444746 
L 251.369724 117.620674 
L 251.586233 105.173044 
L 251.694487 110.217319 
L 251.802742 103.545223 
L 251.910996 111.982804 
L 252.01925 111.360116 
L 252.127504 103.545223 
L 252.344013 119.853775 
L 252.560521 119.853775 
L 252.668776 118.274949 
L 252.885284 102.820336 
L 253.101793 123.223903 
L 253.318301 118.274949 
L 253.426556 123.223903 
L 253.53481 119.853773 
L 253.643064 126.911672 
L 253.751318 163.882404 
L 253.859573 119.853773 
L 253.967827 140.143117 
L 254.076081 135.305546 
L 254.184335 163.882404 
L 254.400844 132.669423 
L 254.617352 108.528775 
L 254.725607 163.882404 
L 254.833861 152.84004 
L 254.942115 119.583451 
L 255.158624 132.669423 
L 255.375132 163.882404 
L 255.591641 108.598094 
L 255.699895 163.882404 
L 255.808149 127.479932 
L 256.024658 136.02156 
L 256.241166 111.824446 
L 256.565929 89.493333 
L 256.674184 90.694516 
L 256.890692 80.766105 
L 257.215455 89.493333 
L 257.323709 82.438445 
L 257.540218 86.207743 
L 257.648472 84.245791 
L 257.756726 77.073872 
L 257.86498 87.253867 
L 258.081489 73.931748 
L 258.189743 77.763065 
L 258.297998 77.073872 
L 258.514506 88.347823 
L 258.62276 80.766105 
L 258.839269 82.438445 
L 258.947523 75.759699 
L 259.055777 96.172168 
L 259.272286 61.92905 
L 259.488794 60.9164 
L 259.597049 60.936202 
L 259.705303 97.76535 
L 259.921812 60.986116 
L 260.030066 113.475133 
L 260.354829 60.986116 
L 261.870388 60.986116 
L 262.086897 70.32917 
L 262.195151 70.32917 
L 262.303405 60.986116 
L 262.519914 70.32917 
L 262.736422 69.526625 
L 262.952931 69.526625 
L 263.061185 60.936202 
L 263.277694 69.526625 
L 263.494202 69.526625 
L 263.710711 60.936202 
L 263.818965 69.526625 
L 263.927219 53.568 
L 264.035474 54.421325 
L 264.143728 69.526625 
L 264.251982 68.883519 
L 264.360236 69.597626 
L 264.468491 68.812197 
L 264.576745 69.95743 
L 264.684999 69.243167 
L 264.901508 71.301954 
L 265.009762 71.089117 
L 265.226271 73.96545 
L 265.334525 74.350613 
L 265.442779 75.427813 
L 265.551033 110.460673 
L 265.659288 74.386772 
L 265.767542 110.460673 
L 265.875796 77.886747 
L 266.092305 110.460673 
L 266.308813 110.460673 
L 266.417068 77.957515 
L 266.633576 110.460673 
L 266.74183 110.460673 
L 266.850085 81.201894 
L 267.066593 110.460673 
L 272.804069 110.460673 
L 272.912324 109.413369 
L 273.128832 110.460673 
L 273.886612 110.460673 
L 273.994866 86.793858 
L 274.211375 110.460673 
L 275.077409 110.460673 
L 275.185663 105.316139 
L 275.402172 110.460673 
L 279.515834 110.460673 
L 279.624088 116.595072 
L 279.732342 108.417888 
L 279.840597 162.522754 
L 280.057105 65.34408 
L 280.273614 174.057302 
L 280.381868 169.950019 
L 280.490122 174.057302 
L 280.598376 162.482287 
L 280.814885 174.057302 
L 281.464411 174.057302 
L 281.572665 162.448745 
L 281.789173 174.057302 
L 282.22219 174.057302 
L 282.330445 88.890346 
L 282.546953 174.057302 
L 283.954259 174.057302 
L 284.062513 127.612623 
L 284.170767 135.371454 
L 284.387276 105.565024 
L 284.603784 91.008413 
L 284.712039 91.991325 
L 284.820293 84.21845 
L 284.928547 85.171872 
L 285.145056 84.834219 
L 285.25331 91.15114 
L 285.361564 82.712827 
L 285.578073 91.15114 
L 285.794581 91.15114 
L 285.902835 92.705352 
L 286.119344 91.15114 
L 286.877124 91.15114 
L 286.985378 92.705352 
L 287.201887 91.15114 
L 289.799989 91.15114 
L 289.908243 89.650752 
L 290.016498 91.15114 
L 290.124752 89.650752 
L 290.34126 91.15114 
L 290.666023 91.15114 
L 290.774277 89.650752 
L 290.882532 91.15114 
L 290.990786 88.199884 
L 291.207295 91.15114 
L 291.315549 81.562466 
L 291.532057 85.431386 
L 291.640312 84.106913 
L 291.748566 91.15114 
L 291.965074 86.794619 
L 292.073329 89.650752 
L 292.289837 62.547689 
L 292.398091 76.995453 
L 292.506346 76.670113 
L 292.6146 76.613355 
L 292.722854 71.589643 
L 292.939363 78.236767 
L 293.155871 62.610628 
L 293.264126 78.551739 
L 293.480634 76.059017 
L 293.697143 78.037522 
L 293.913651 76.670113 
L 294.021905 77.224048 
L 294.13016 76.852276 
L 294.238414 77.744237 
L 294.454923 74.102424 
L 294.563177 76.308986 
L 294.779685 73.128305 
L 294.88794 72.681247 
L 295.104448 74.322826 
L 295.212702 74.184814 
L 295.320957 73.216629 
L 295.429211 73.451559 
L 295.537465 73.357512 
L 295.645719 73.953667 
L 295.753974 72.506087 
L 295.862228 74.049919 
L 295.970482 71.108085 
L 296.186991 74.095395 
L 296.295245 72.019144 
L 296.403499 73.143401 
L 296.511754 70.822605 
L 296.620008 82.805073 
L 296.836516 71.767151 
L 296.944771 72.019144 
L 297.053025 71.058127 
L 297.161279 73.443061 
L 297.269533 84.38656 
L 297.377788 72.060638 
L 297.486042 84.805715 
L 297.594296 72.328411 
L 297.702551 74.116645 
L 298.027313 72.577221 
L 298.352076 74.312084 
L 298.676839 71.858915 
L 298.785093 73.915354 
L 299.001602 72.186956 
L 299.21811 73.752748 
L 299.326365 69.177806 
L 299.542873 73.230468 
L 299.651127 73.230468 
L 299.759382 75.043404 
L 299.867636 74.543746 
L 300.084144 72.46421 
L 300.192399 75.25315 
L 300.300653 74.098664 
L 300.408907 71.302458 
L 300.625416 73.116295 
L 300.73367 71.331504 
L 300.841924 76.255068 
L 301.058433 72.268638 
L 301.166687 69.329606 
L 301.274941 73.5341 
L 301.383196 69.671435 
L 301.599704 72.521525 
L 301.707958 70.188766 
L 301.816213 70.221071 
L 301.924467 68.25484 
L 302.032721 70.221071 
L 302.140975 69.177806 
L 302.24923 66.257664 
L 302.357484 69.369183 
L 302.573993 68.25484 
L 302.790501 68.911559 
L 303.00701 67.407738 
L 303.223518 68.505101 
L 303.440027 67.753492 
L 303.548281 65.228122 
L 303.656535 69.277025 
L 303.764789 66.309608 
L 303.873044 67.496753 
L 304.089552 65.490541 
L 304.197807 67.988499 
L 304.414315 65.206339 
L 304.630824 70.304927 
L 304.739078 70.874745 
L 304.955586 63.893714 
L 305.063841 69.297455 
L 305.280349 67.03009 
L 305.388603 71.759313 
L 305.496858 69.038321 
L 305.713366 69.50897 
L 305.929875 64.029183 
L 306.038129 77.686298 
L 306.146383 66.037551 
L 306.254638 75.086289 
L 306.362892 66.924701 
L 306.5794 73.083788 
L 306.687655 68.298109 
L 306.795909 68.536171 
L 306.904163 74.385345 
L 307.012417 74.32206 
L 307.120672 72.376203 
L 307.228926 72.842571 
L 307.33718 67.604324 
L 307.445435 70.8853 
L 307.553689 67.64622 
L 307.661943 71.391068 
L 307.770197 65.357477 
L 307.878452 70.178087 
L 307.986706 61.463341 
L 308.09496 69.701673 
L 308.203214 66.924701 
L 308.419723 69.470917 
L 308.527977 65.572203 
L 308.636231 69.701673 
L 308.744486 62.718623 
L 308.85274 68.079604 
L 308.960994 66.467329 
L 309.069249 62.246306 
L 309.177503 71.362881 
L 309.285757 70.654177 
L 309.394011 72.1502 
L 309.61052 61.57369 
L 309.827028 73.708903 
L 309.935283 59.9966 
L 310.043537 77.086359 
L 310.151791 57.996402 
L 310.260045 62.495409 
L 310.584808 57.095637 
L 310.693063 62.057542 
L 310.801317 55.649444 
L 310.909571 63.579174 
L 311.12608 55.649444 
L 311.234334 55.717697 
L 311.342588 64.676177 
L 311.559097 55.649444 
L 311.667351 55.717697 
L 311.775605 55.932864 
L 311.883859 55.717697 
L 312.100368 55.932864 
L 312.208622 66.467329 
L 312.316877 63.579174 
L 312.425131 55.787637 
L 312.533385 55.859335 
L 313.182911 55.787637 
L 313.291165 67.381422 
L 313.507673 55.859335 
L 313.724182 56.008302 
L 313.832436 55.932864 
L 314.048945 56.165237 
L 314.69847 56.085731 
L 314.806725 56.008302 
L 314.914979 56.085731 
L 315.023233 56.008302 
L 315.239742 56.246911 
L 315.45625 56.165237 
L 316.21403 56.246911 
L 316.322284 56.330849 
L 316.538793 56.246911 
L 316.755301 56.330849 
L 316.863556 56.330849 
L 316.97181 56.165237 
L 317.080064 56.330849 
L 317.188319 56.165237 
L 317.404827 56.246911 
L 318.703878 56.330849 
L 318.920387 56.505931 
L 319.028641 56.330849 
L 319.136895 56.417153 
L 319.24515 56.246911 
L 319.569912 56.417153 
L 320.002929 56.505931 
L 320.111184 56.597295 
L 320.219438 56.417153 
L 320.435947 56.505931 
L 321.085472 56.505931 
L 321.301981 56.788272 
L 321.410235 56.597295 
L 321.626743 56.788272 
L 321.843252 56.691366 
L 322.492778 56.691366 
L 322.601032 56.991137 
L 322.709286 56.691366 
L 322.925795 56.788272 
L 323.142303 56.788272 
L 323.250557 56.991137 
L 323.358812 56.788272 
L 323.467066 56.888148 
L 323.57532 56.691366 
L 323.683575 56.888148 
L 323.791829 56.788272 
L 324.008337 56.888148 
L 324.982626 56.788272 
L 325.09088 56.597295 
L 325.307389 56.888148 
L 325.523897 56.691366 
L 325.632151 56.888148 
L 325.84866 56.788272 
L 325.956914 56.888148 
L 326.065168 56.691366 
L 326.281677 56.888148 
L 326.60644 56.691366 
L 326.931203 56.888148 
L 327.147711 56.788272 
L 327.36422 56.888148 
L 327.580728 56.788272 
L 328.338508 56.888148 
L 328.555017 57.097393 
L 328.771525 57.097393 
L 328.879779 56.888148 
L 329.096288 57.097393 
L 329.204542 56.991137 
L 329.312796 57.207078 
L 329.421051 56.991137 
L 329.637559 57.207078 
L 329.854068 57.097393 
L 330.611848 57.097393 
L 330.720102 57.320364 
L 330.93661 57.097393 
L 331.261373 57.320364 
L 331.369627 57.097393 
L 331.477882 57.207078 
L 331.586136 57.097393 
L 331.802645 57.320364 
L 332.019153 57.097393 
L 332.343916 57.320364 
L 332.560424 57.097393 
L 332.885187 57.320364 
L 333.101696 57.320364 
L 333.20995 57.207078 
L 333.426459 57.320364 
L 333.534713 57.320364 
L 333.642967 57.097393 
L 333.859476 57.437436 
L 333.96773 57.437436 
L 334.075984 57.320364 
L 334.292493 57.437436 
L 334.400747 57.437436 
L 334.617255 57.320364 
L 334.72551 57.558491 
L 334.833764 57.320364 
L 335.050273 57.558491 
L 335.158527 57.320364 
L 335.375035 57.558491 
L 335.591544 57.437436 
L 335.808052 57.437436 
L 335.916307 57.320364 
L 336.132815 57.437436 
L 336.349324 57.320364 
L 336.565832 57.437436 
L 336.782341 57.320364 
L 336.890595 57.558491 
L 336.998849 57.437436 
L 337.107104 57.558491 
L 337.431866 57.320364 
L 337.540121 57.320364 
L 337.648375 57.437436 
L 337.756629 57.207078 
L 337.973138 57.437436 
L 338.081392 57.320364 
L 338.189646 57.437436 
L 338.297901 57.320364 
L 338.406155 57.558491 
L 338.622663 57.437436 
L 338.730918 57.437436 
L 338.947426 57.558491 
L 339.163935 57.558491 
L 339.272189 57.437436 
L 339.488697 57.558491 
L 340.138223 57.558491 
L 340.354732 57.437436 
L 340.57124 57.437436 
L 340.787749 57.558491 
L 341.220766 57.558491 
L 341.32902 57.683739 
L 341.545529 57.558491 
L 341.653783 57.683739 
L 341.870291 57.558491 
L 341.978546 57.683739 
L 342.195054 57.558491 
L 342.519817 57.558491 
L 342.628071 57.683739 
L 342.736325 57.558491 
L 342.952834 57.683739 
L 343.061088 57.683739 
L 343.277597 57.813405 
L 344.251885 57.813405 
L 344.360139 62.916594 
L 344.468394 57.683739 
L 344.576648 58.279405 
L 344.684902 63.476348 
L 344.901411 57.813405 
L 345.009665 61.478686 
L 345.226174 57.683739 
L 345.334428 57.813405 
L 345.442682 57.558491 
L 345.659191 57.813405 
L 345.875699 57.683739 
L 346.092208 57.683739 
L 346.200462 57.813405 
L 346.308716 60.540899 
L 346.416971 57.558491 
L 346.633479 62.756606 
L 346.741733 57.683739 
L 346.849988 57.813405 
L 346.958242 57.813405 
L 347.17475 60.685123 
L 347.283005 57.813405 
L 347.499513 60.734208 
L 347.93253 60.685123 
L 348.040785 60.58823 
L 348.257293 60.783448 
L 348.365547 60.783448 
L 348.473802 60.44993 
L 348.69031 60.832669 
L 349.015073 60.783448 
L 352.046192 60.783448 
L 352.154447 60.636389 
L 352.370955 60.783448 
L 352.803972 60.494688 
L 352.912226 60.540899 
L 353.020481 60.734208 
L 353.128735 60.44993 
L 353.236989 60.540899 
L 353.345244 60.44993 
L 353.453498 60.685123 
L 353.670006 60.494688 
L 353.778261 60.494688 
L 353.886515 67.308006 
L 354.103023 60.494688 
L 354.319532 70.828145 
L 354.427786 70.443608 
L 354.53604 71.773661 
L 354.644295 70.761728 
L 354.860803 72.518234 
L 354.969058 71.434797 
L 355.185566 72.457902 
L 355.510329 75.094719 
L 355.618583 75.050222 
L 355.726837 75.050222 
L 355.835092 76.662938 
L 355.943346 75.463298 
L 356.0516 75.891737 
L 356.268109 78.334221 
L 356.376363 77.081936 
L 356.484617 77.109837 
L 356.592872 77.081936 
L 356.80938 78.805021 
L 357.025889 78.805021 
L 357.242397 78.312115 
L 357.350651 78.822312 
L 357.56716 80.114747 
L 357.783668 80.10321 
L 358.000177 81.447028 
L 358.108431 81.447028 
L 358.216686 82.010517 
L 358.541448 80.10321 
L 358.866211 82.838928 
L 358.974465 81.447028 
L 359.190974 82.015086 
L 359.299228 81.447192 
L 359.515737 82.026904 
L 359.623991 81.447192 
L 359.8405 84.296557 
L 359.948754 82.839248 
L 360.165262 84.282942 
L 360.381771 84.296557 
L 360.598279 84.949877 
L 360.706534 84.318938 
L 360.814788 84.949877 
L 360.923042 83.461711 
L 361.139551 87.139733 
L 361.247805 85.599976 
L 361.356059 87.139733 
L 361.572568 84.987192 
L 361.680822 84.949877 
L 361.789076 86.460801 
L 362.005585 84.949877 
L 362.113839 85.599976 
L 362.222093 87.177682 
L 362.438602 84.987192 
L 362.546856 87.177682 
L 362.65511 86.541133 
L 362.979873 89.557224 
L 363.196382 88.772628 
L 363.41289 88.818371 
L 363.521145 87.227503 
L 363.629399 88.818371 
L 363.737653 88.101207 
L 363.954162 88.877122 
L 364.062416 88.101207 
L 364.387179 91.246649 
L 364.711942 89.557224 
L 364.820196 90.526785 
L 364.92845 89.619243 
L 365.036704 91.303571 
L 365.144959 89.619243 
L 365.253213 89.697193 
L 365.361467 89.619243 
L 365.469721 90.594858 
L 365.577976 89.619243 
L 365.68623 89.697193 
L 365.794484 89.619243 
L 365.902738 90.594858 
L 366.119247 89.697193 
L 366.335756 89.794862 
L 366.44401 89.794862 
L 366.552264 89.046519 
L 366.877027 91.573399 
L 367.093535 90.787965 
L 367.20179 90.787965 
L 367.310044 92.48313 
L 367.526552 90.787965 
L 367.743061 93.429328 
L 367.851315 91.573399 
L 368.067824 91.710716 
L 368.176078 91.710716 
L 368.284332 90.922878 
L 368.392587 92.604226 
L 368.500841 91.573399 
L 368.717349 92.604226 
L 368.933858 91.573399 
L 369.042112 92.604226 
L 369.150366 90.07058 
L 369.366875 92.755598 
L 369.475129 92.604226 
L 369.583384 95.369122 
L 369.691638 91.710716 
L 369.908146 93.429328 
L 370.124655 92.755598 
L 370.341163 94.433936 
L 370.665926 92.755598 
L 370.882435 93.582678 
L 370.990689 91.882414 
L 371.207198 92.098225 
L 371.315452 94.014571 
L 371.423706 93.185454 
L 371.53196 94.014571 
L 371.640215 93.774082 
L 371.748469 95.752377 
L 371.964977 94.014571 
L 372.073232 95.752377 
L 372.28974 93.185454 
L 372.397994 92.098225 
L 372.506249 94.626518 
L 372.614503 93.774082 
L 372.939266 94.319334 
L 373.264029 91.580071 
L 373.480537 91.580071 
L 373.588791 93.490764 
L 373.8053 90.467606 
L 373.913554 102.498458 
L 374.130063 53.980385 
L 374.238317 60.312887 
L 374.346571 53.980385 
L 374.671334 54.363451 
L 374.779588 54.166581 
L 375.104351 54.567447 
L 375.429114 54.567447 
L 375.645622 60.209788 
L 375.753877 54.775835 
L 375.862131 60.203287 
L 376.07864 54.986503 
L 376.186894 55.626612 
L 376.403402 54.986503 
L 376.511657 54.986503 
L 376.836419 55.408516 
L 376.944674 55.408516 
L 377.052928 174.451452 
L 377.269436 55.408516 
L 377.594199 55.824434 
L 377.702454 55.617635 
L 377.918962 56.028355 
L 378.027216 55.824434 
L 378.243725 56.028355 
L 378.460233 56.028355 
L 378.568488 56.228983 
L 378.676742 56.028355 
L 378.784996 56.426013 
L 379.001505 56.228983 
L 379.109759 56.228983 
L 379.434522 56.619232 
L 379.65103 56.426013 
L 379.759285 56.619232 
L 379.867539 56.426013 
L 379.975793 56.619232 
L 380.192302 63.183201 
L 380.300556 90.979187 
L 380.40881 56.619232 
L 380.625319 66.718251 
L 380.733573 65.418072 
L 380.841827 66.960404 
L 380.950082 71.29936 
L 381.058336 64.343754 
L 381.16659 85.267809 
L 381.383099 66.309608 
L 381.599607 62.674795 
L 381.707861 85.62271 
L 381.92437 68.505113 
L 382.032624 67.609501 
L 382.140878 65.623783 
L 382.357387 67.348727 
L 382.465641 84.386317 
L 382.68215 66.065893 
L 382.790404 92.783943 
L 382.898658 69.241133 
L 383.006913 70.766399 
L 383.115167 98.676936 
L 383.223421 58.864439 
L 383.43993 69.631075 
L 383.548184 70.460261 
L 383.656438 67.657878 
L 383.764692 58.205354 
L 383.872947 66.257664 
L 383.981201 59.079161 
L 384.19771 95.886242 
L 384.305964 91.941169 
L 384.522472 58.428274 
L 384.630727 57.74548 
L 384.738981 59.079161 
L 384.955489 106.447825 
L 385.063744 106.447825 
L 385.171998 104.545167 
L 385.388506 110.460673 
L 386.038032 110.460673 
L 386.146286 108.417888 
L 386.254541 59.929981 
L 386.471049 110.460673 
L 386.687558 110.460673 
L 386.904066 106.447825 
L 387.228829 110.460673 
L 387.337083 59.929981 
L 387.553592 110.460673 
L 387.878355 110.460673 
L 387.986609 60.143307 
L 388.094863 110.460673 
L 388.311372 59.505076 
L 388.52788 60.792208 
L 388.636134 60.35783 
L 388.852643 110.460673 
L 388.960897 110.460673 
L 389.069152 59.929981 
L 389.177406 60.143307 
L 389.28566 110.460673 
L 389.393914 59.505076 
L 389.502169 59.929981 
L 389.718677 60.143307 
L 389.826931 60.143307 
L 389.935186 60.573989 
L 390.04344 110.460673 
L 390.151694 58.864439 
L 390.259948 59.717397 
L 390.368203 59.929981 
L 390.584711 59.717397 
L 390.80122 60.143307 
L 391.017728 59.079161 
L 391.125983 60.143307 
L 391.234237 59.505076 
L 391.342491 60.143307 
L 391.559 59.929981 
L 391.775508 60.35783 
L 392.100271 59.505076 
L 392.208525 60.143307 
L 392.31678 59.292512 
L 392.425034 59.505076 
L 392.641542 60.35783 
L 392.858051 59.717397 
L 393.074559 60.573989 
L 393.182814 60.143307 
L 393.399322 60.573989 
L 393.832339 59.929981 
L 393.940594 60.573989 
L 394.048848 60.35783 
L 394.157102 60.792208 
L 394.265356 60.35783 
L 394.481865 61.236477 
L 394.590119 60.792208 
L 394.806628 61.693899 
L 395.13139 61.012901 
L 395.347899 61.693899 
L 395.456153 61.236477 
L 395.780916 61.928557 
L 395.997425 62.411835 
L 396.213933 59.22589 
L 396.322187 62.167729 
L 396.430442 59.416675 
L 396.538696 61.928557 
L 396.64695 59.416675 
L 396.863459 59.615909 
L 397.296476 59.615909 
L 397.621239 60.042165 
L 397.837747 59.824187 
L 397.946001 59.824187 
L 398.054256 60.042165 
L 398.16251 59.824187 
L 398.487273 60.270574 
L 398.487273 60.270574 
" clip-path="url(#p45fdb8349a)" style="fill: none; stroke: #1f77b4; stroke-width: 1.5; stroke-linecap: square"/>
   </g>
   <g id="patch_3">
    <path d="M 57.6 307.584 
L 57.6 41.472 
" style="fill: none; stroke: #000000; stroke-width: 0.8; stroke-linejoin: miter; stroke-linecap: square"/>
   </g>
   <g id="patch_4">
    <path d="M 414.72 307.584 
L 414.72 41.472 
" style="fill: none; stroke: #000000; stroke-width: 0.8; stroke-linejoin: miter; stroke-linecap: square"/>
   </g>
   <g id="patch_5">
    <path d="M 57.6 307.584 
L 414.72 307.584 
" style="fill: none; stroke: #000000; stroke-width: 0.8; stroke-linejoin: miter; stroke-linecap: square"/>
   </g>
   <g id="patch_6">
    <path d="M 57.6 41.472 
L 414.72 41.472 
" style="fill: none; stroke: #000000; stroke-width: 0.8; stroke-linejoin: miter; stroke-linecap: square"/>
   </g>
  </g>
 </g>
 <defs>
  <clipPath id="p45fdb8349a">
   <rect x="57.6" y="41.472" width="357.12" height="266.112"/>
  </clipPath>
 </defs>
</svg>
