<?xml version="1.0" encoding="utf-8" standalone="no"?>
<!DOCTYPE svg PUBLIC "-//W3C//DTD SVG 1.1//EN"
  "http://www.w3.org/Graphics/SVG/1.1/DTD/svg11.dtd">
<svg xmlns:xlink="http://www.w3.org/1999/xlink" width="460.8pt" height="345.6pt" viewBox="0 0 460.8 345.6" xmlns="http://www.w3.org/2000/svg" version="1.1">
 <metadata>
  <rdf:RDF xmlns:dc="http://purl.org/dc/elements/1.1/" xmlns:cc="http://creativecommons.org/ns#" xmlns:rdf="http://www.w3.org/1999/02/22-rdf-syntax-ns#">
   <cc:Work>
    <dc:type rdf:resource="http://purl.org/dc/dcmitype/StillImage"/>
    <dc:date>2024-04-27T10:28:43.560822</dc:date>
    <dc:format>image/svg+xml</dc:format>
    <dc:creator>
     <cc:Agent>
      <dc:title>Matplotlib v3.8.2, https://matplotlib.org/</dc:title>
     </cc:Agent>
    </dc:creator>
   </cc:Work>
  </rdf:RDF>
 </metadata>
 <defs>
  <style type="text/css">*{stroke-linejoin: round; stroke-linecap: butt}</style>
 </defs>
 <g id="figure_1">
  <g id="patch_1">
   <path d="M 0 345.6 
L 460.8 345.6 
L 460.8 0 
L 0 0 
z
" style="fill: #ffffff"/>
  </g>
  <g id="axes_1">
   <g id="patch_2">
    <path d="M 57.6 307.584 
L 414.72 307.584 
L 414.72 41.472 
L 57.6 41.472 
z
" style="fill: #ffffff"/>
   </g>
   <g id="matplotlib.axis_1">
    <g id="xtick_1">
     <g id="line2d_1">
      <defs>
       <path id="m2ec81e3cf7" d="M 0 0 
L 0 3.5 
" style="stroke: #000000; stroke-width: 0.8"/>
      </defs>
      <g>
       <use xlink:href="#m2ec81e3cf7" x="73.832727" y="307.584" style="stroke: #000000; stroke-width: 0.8"/>
      </g>
     </g>
     <g id="text_1">
      <!-- 0 -->
      <g transform="translate(70.651477 322.182437) scale(0.1 -0.1)">
       <defs>
        <path id="DejaVuSans-30" d="M 2034 4250 
Q 1547 4250 1301 3770 
Q 1056 3291 1056 2328 
Q 1056 1369 1301 889 
Q 1547 409 2034 409 
Q 2525 409 2770 889 
Q 3016 1369 3016 2328 
Q 3016 3291 2770 3770 
Q 2525 4250 2034 4250 
z
M 2034 4750 
Q 2819 4750 3233 4129 
Q 3647 3509 3647 2328 
Q 3647 1150 3233 529 
Q 2819 -91 2034 -91 
Q 1250 -91 836 529 
Q 422 1150 422 2328 
Q 422 3509 836 4129 
Q 1250 4750 2034 4750 
z
" transform="scale(0.015625)"/>
       </defs>
       <use xlink:href="#DejaVuSans-30"/>
      </g>
     </g>
    </g>
    <g id="xtick_2">
     <g id="line2d_2">
      <g>
       <use xlink:href="#m2ec81e3cf7" x="138.77013" y="307.584" style="stroke: #000000; stroke-width: 0.8"/>
      </g>
     </g>
     <g id="text_2">
      <!-- 2000 -->
      <g transform="translate(126.04513 322.182437) scale(0.1 -0.1)">
       <defs>
        <path id="DejaVuSans-32" d="M 1228 531 
L 3431 531 
L 3431 0 
L 469 0 
L 469 531 
Q 828 903 1448 1529 
Q 2069 2156 2228 2338 
Q 2531 2678 2651 2914 
Q 2772 3150 2772 3378 
Q 2772 3750 2511 3984 
Q 2250 4219 1831 4219 
Q 1534 4219 1204 4116 
Q 875 4013 500 3803 
L 500 4441 
Q 881 4594 1212 4672 
Q 1544 4750 1819 4750 
Q 2544 4750 2975 4387 
Q 3406 4025 3406 3419 
Q 3406 3131 3298 2873 
Q 3191 2616 2906 2266 
Q 2828 2175 2409 1742 
Q 1991 1309 1228 531 
z
" transform="scale(0.015625)"/>
       </defs>
       <use xlink:href="#DejaVuSans-32"/>
       <use xlink:href="#DejaVuSans-30" x="63.623047"/>
       <use xlink:href="#DejaVuSans-30" x="127.246094"/>
       <use xlink:href="#DejaVuSans-30" x="190.869141"/>
      </g>
     </g>
    </g>
    <g id="xtick_3">
     <g id="line2d_3">
      <g>
       <use xlink:href="#m2ec81e3cf7" x="203.707533" y="307.584" style="stroke: #000000; stroke-width: 0.8"/>
      </g>
     </g>
     <g id="text_3">
      <!-- 4000 -->
      <g transform="translate(190.982533 322.182437) scale(0.1 -0.1)">
       <defs>
        <path id="DejaVuSans-34" d="M 2419 4116 
L 825 1625 
L 2419 1625 
L 2419 4116 
z
M 2253 4666 
L 3047 4666 
L 3047 1625 
L 3713 1625 
L 3713 1100 
L 3047 1100 
L 3047 0 
L 2419 0 
L 2419 1100 
L 313 1100 
L 313 1709 
L 2253 4666 
z
" transform="scale(0.015625)"/>
       </defs>
       <use xlink:href="#DejaVuSans-34"/>
       <use xlink:href="#DejaVuSans-30" x="63.623047"/>
       <use xlink:href="#DejaVuSans-30" x="127.246094"/>
       <use xlink:href="#DejaVuSans-30" x="190.869141"/>
      </g>
     </g>
    </g>
    <g id="xtick_4">
     <g id="line2d_4">
      <g>
       <use xlink:href="#m2ec81e3cf7" x="268.644936" y="307.584" style="stroke: #000000; stroke-width: 0.8"/>
      </g>
     </g>
     <g id="text_4">
      <!-- 6000 -->
      <g transform="translate(255.919936 322.182437) scale(0.1 -0.1)">
       <defs>
        <path id="DejaVuSans-36" d="M 2113 2584 
Q 1688 2584 1439 2293 
Q 1191 2003 1191 1497 
Q 1191 994 1439 701 
Q 1688 409 2113 409 
Q 2538 409 2786 701 
Q 3034 994 3034 1497 
Q 3034 2003 2786 2293 
Q 2538 2584 2113 2584 
z
M 3366 4563 
L 3366 3988 
Q 3128 4100 2886 4159 
Q 2644 4219 2406 4219 
Q 1781 4219 1451 3797 
Q 1122 3375 1075 2522 
Q 1259 2794 1537 2939 
Q 1816 3084 2150 3084 
Q 2853 3084 3261 2657 
Q 3669 2231 3669 1497 
Q 3669 778 3244 343 
Q 2819 -91 2113 -91 
Q 1303 -91 875 529 
Q 447 1150 447 2328 
Q 447 3434 972 4092 
Q 1497 4750 2381 4750 
Q 2619 4750 2861 4703 
Q 3103 4656 3366 4563 
z
" transform="scale(0.015625)"/>
       </defs>
       <use xlink:href="#DejaVuSans-36"/>
       <use xlink:href="#DejaVuSans-30" x="63.623047"/>
       <use xlink:href="#DejaVuSans-30" x="127.246094"/>
       <use xlink:href="#DejaVuSans-30" x="190.869141"/>
      </g>
     </g>
    </g>
    <g id="xtick_5">
     <g id="line2d_5">
      <g>
       <use xlink:href="#m2ec81e3cf7" x="333.582339" y="307.584" style="stroke: #000000; stroke-width: 0.8"/>
      </g>
     </g>
     <g id="text_5">
      <!-- 8000 -->
      <g transform="translate(320.857339 322.182437) scale(0.1 -0.1)">
       <defs>
        <path id="DejaVuSans-38" d="M 2034 2216 
Q 1584 2216 1326 1975 
Q 1069 1734 1069 1313 
Q 1069 891 1326 650 
Q 1584 409 2034 409 
Q 2484 409 2743 651 
Q 3003 894 3003 1313 
Q 3003 1734 2745 1975 
Q 2488 2216 2034 2216 
z
M 1403 2484 
Q 997 2584 770 2862 
Q 544 3141 544 3541 
Q 544 4100 942 4425 
Q 1341 4750 2034 4750 
Q 2731 4750 3128 4425 
Q 3525 4100 3525 3541 
Q 3525 3141 3298 2862 
Q 3072 2584 2669 2484 
Q 3125 2378 3379 2068 
Q 3634 1759 3634 1313 
Q 3634 634 3220 271 
Q 2806 -91 2034 -91 
Q 1263 -91 848 271 
Q 434 634 434 1313 
Q 434 1759 690 2068 
Q 947 2378 1403 2484 
z
M 1172 3481 
Q 1172 3119 1398 2916 
Q 1625 2713 2034 2713 
Q 2441 2713 2670 2916 
Q 2900 3119 2900 3481 
Q 2900 3844 2670 4047 
Q 2441 4250 2034 4250 
Q 1625 4250 1398 4047 
Q 1172 3844 1172 3481 
z
" transform="scale(0.015625)"/>
       </defs>
       <use xlink:href="#DejaVuSans-38"/>
       <use xlink:href="#DejaVuSans-30" x="63.623047"/>
       <use xlink:href="#DejaVuSans-30" x="127.246094"/>
       <use xlink:href="#DejaVuSans-30" x="190.869141"/>
      </g>
     </g>
    </g>
    <g id="xtick_6">
     <g id="line2d_6">
      <g>
       <use xlink:href="#m2ec81e3cf7" x="398.519741" y="307.584" style="stroke: #000000; stroke-width: 0.8"/>
      </g>
     </g>
     <g id="text_6">
      <!-- 10000 -->
      <g transform="translate(382.613491 322.182437) scale(0.1 -0.1)">
       <defs>
        <path id="DejaVuSans-31" d="M 794 531 
L 1825 531 
L 1825 4091 
L 703 3866 
L 703 4441 
L 1819 4666 
L 2450 4666 
L 2450 531 
L 3481 531 
L 3481 0 
L 794 0 
L 794 531 
z
" transform="scale(0.015625)"/>
       </defs>
       <use xlink:href="#DejaVuSans-31"/>
       <use xlink:href="#DejaVuSans-30" x="63.623047"/>
       <use xlink:href="#DejaVuSans-30" x="127.246094"/>
       <use xlink:href="#DejaVuSans-30" x="190.869141"/>
       <use xlink:href="#DejaVuSans-30" x="254.492188"/>
      </g>
     </g>
    </g>
   </g>
   <g id="matplotlib.axis_2">
    <g id="ytick_1">
     <g id="line2d_7">
      <defs>
       <path id="maafc89ba23" d="M 0 0 
L -3.5 0 
" style="stroke: #000000; stroke-width: 0.8"/>
      </defs>
      <g>
       <use xlink:href="#maafc89ba23" x="57.6" y="296.860296" style="stroke: #000000; stroke-width: 0.8"/>
      </g>
     </g>
     <g id="text_7">
      <!-- −150 -->
      <g transform="translate(23.132812 300.659515) scale(0.1 -0.1)">
       <defs>
        <path id="DejaVuSans-2212" d="M 678 2272 
L 4684 2272 
L 4684 1741 
L 678 1741 
L 678 2272 
z
" transform="scale(0.015625)"/>
        <path id="DejaVuSans-35" d="M 691 4666 
L 3169 4666 
L 3169 4134 
L 1269 4134 
L 1269 2991 
Q 1406 3038 1543 3061 
Q 1681 3084 1819 3084 
Q 2600 3084 3056 2656 
Q 3513 2228 3513 1497 
Q 3513 744 3044 326 
Q 2575 -91 1722 -91 
Q 1428 -91 1123 -41 
Q 819 9 494 109 
L 494 744 
Q 775 591 1075 516 
Q 1375 441 1709 441 
Q 2250 441 2565 725 
Q 2881 1009 2881 1497 
Q 2881 1984 2565 2268 
Q 2250 2553 1709 2553 
Q 1456 2553 1204 2497 
Q 953 2441 691 2322 
L 691 4666 
z
" transform="scale(0.015625)"/>
       </defs>
       <use xlink:href="#DejaVuSans-2212"/>
       <use xlink:href="#DejaVuSans-31" x="83.789062"/>
       <use xlink:href="#DejaVuSans-35" x="147.412109"/>
       <use xlink:href="#DejaVuSans-30" x="211.035156"/>
      </g>
     </g>
    </g>
    <g id="ytick_2">
     <g id="line2d_8">
      <g>
       <use xlink:href="#maafc89ba23" x="57.6" y="247.010691" style="stroke: #000000; stroke-width: 0.8"/>
      </g>
     </g>
     <g id="text_8">
      <!-- −100 -->
      <g transform="translate(23.132812 250.80991) scale(0.1 -0.1)">
       <use xlink:href="#DejaVuSans-2212"/>
       <use xlink:href="#DejaVuSans-31" x="83.789062"/>
       <use xlink:href="#DejaVuSans-30" x="147.412109"/>
       <use xlink:href="#DejaVuSans-30" x="211.035156"/>
      </g>
     </g>
    </g>
    <g id="ytick_3">
     <g id="line2d_9">
      <g>
       <use xlink:href="#maafc89ba23" x="57.6" y="197.161086" style="stroke: #000000; stroke-width: 0.8"/>
      </g>
     </g>
     <g id="text_9">
      <!-- −50 -->
      <g transform="translate(29.495313 200.960305) scale(0.1 -0.1)">
       <use xlink:href="#DejaVuSans-2212"/>
       <use xlink:href="#DejaVuSans-35" x="83.789062"/>
       <use xlink:href="#DejaVuSans-30" x="147.412109"/>
      </g>
     </g>
    </g>
    <g id="ytick_4">
     <g id="line2d_10">
      <g>
       <use xlink:href="#maafc89ba23" x="57.6" y="147.311482" style="stroke: #000000; stroke-width: 0.8"/>
      </g>
     </g>
     <g id="text_10">
      <!-- 0 -->
      <g transform="translate(44.2375 151.1107) scale(0.1 -0.1)">
       <use xlink:href="#DejaVuSans-30"/>
      </g>
     </g>
    </g>
    <g id="ytick_5">
     <g id="line2d_11">
      <g>
       <use xlink:href="#maafc89ba23" x="57.6" y="97.461877" style="stroke: #000000; stroke-width: 0.8"/>
      </g>
     </g>
     <g id="text_11">
      <!-- 50 -->
      <g transform="translate(37.875 101.261096) scale(0.1 -0.1)">
       <use xlink:href="#DejaVuSans-35"/>
       <use xlink:href="#DejaVuSans-30" x="63.623047"/>
      </g>
     </g>
    </g>
    <g id="ytick_6">
     <g id="line2d_12">
      <g>
       <use xlink:href="#maafc89ba23" x="57.6" y="47.612272" style="stroke: #000000; stroke-width: 0.8"/>
      </g>
     </g>
     <g id="text_12">
      <!-- 100 -->
      <g transform="translate(31.5125 51.411491) scale(0.1 -0.1)">
       <use xlink:href="#DejaVuSans-31"/>
       <use xlink:href="#DejaVuSans-30" x="63.623047"/>
       <use xlink:href="#DejaVuSans-30" x="127.246094"/>
      </g>
     </g>
    </g>
   </g>
   <g id="line2d_13">
    <path d="M 73.832727 138.648894 
L 73.865196 147.311482 
L 73.897665 103.053655 
L 73.962602 151.670523 
L 73.995071 117.189383 
L 74.060008 264.527026 
L 74.092477 143.993447 
L 74.189883 152.932293 
L 74.222352 291.30328 
L 74.287289 132.436442 
L 74.319758 134.766952 
L 74.352226 123.644025 
L 74.384695 146.257133 
L 74.417164 147.311482 
L 74.449633 143.12072 
L 74.482101 265.271625 
L 74.547039 147.68705 
L 74.579507 147.311482 
L 74.611976 134.41601 
L 74.644445 148.411002 
L 74.676914 147.311482 
L 74.709382 181.814628 
L 74.741851 128.986264 
L 74.77432 140.001551 
L 74.806788 146.257133 
L 74.839257 121.945139 
L 74.904194 140.427155 
L 74.936663 265.481533 
L 75.001601 147.311482 
L 75.034069 120.425543 
L 75.099007 147.311482 
L 75.163944 273.269229 
L 75.196413 120.09844 
L 75.228881 124.792392 
L 75.26135 111.964069 
L 75.326288 167.433695 
L 75.391225 147.539051 
L 75.423694 153.775567 
L 75.456162 144.906764 
L 75.488631 144.686612 
L 75.5211 107.130755 
L 75.586037 147.311482 
L 75.618506 147.311482 
L 75.650975 146.257133 
L 75.683443 233.631611 
L 75.748381 147.311482 
L 75.780849 137.456919 
L 75.813318 148.723159 
L 75.878255 147.311482 
L 75.910724 242.508805 
L 76.00813 136.533369 
L 76.040599 155.192727 
L 76.073068 254.697045 
L 76.105536 123.617131 
L 76.138005 111.06924 
L 76.235411 275.471971 
L 76.26788 132.993986 
L 76.300349 147.311482 
L 76.332817 291.812795 
L 76.397755 204.248559 
L 76.462692 146.257133 
L 76.495161 260.365096 
L 76.527629 136.885819 
L 76.592567 216.344503 
L 76.657504 144.110483 
L 76.722442 147.311482 
L 76.75491 150.808191 
L 76.787379 140.081057 
L 76.852317 141.314432 
L 76.884785 147.311482 
L 76.917254 113.770254 
L 76.982191 143.12072 
L 77.01466 142.604182 
L 77.047129 221.471942 
L 77.112066 147.311482 
L 77.144535 147.434069 
L 77.177004 124.259345 
L 77.241941 129.73748 
L 77.27441 146.257133 
L 77.306878 144.906764 
L 77.339347 295.488 
L 77.404284 138.236979 
L 77.436753 282.535007 
L 77.501691 130.727099 
L 77.566628 151.268972 
L 77.664034 97.094068 
L 77.696503 158.591846 
L 77.793909 151.458456 
L 77.826378 140.854325 
L 77.891315 147.311482 
L 77.923784 148.291517 
L 77.988721 147.311482 
L 78.118596 105.242902 
L 78.345877 291.130437 
L 78.378345 132.726498 
L 78.443283 239.934412 
L 78.475752 248.373392 
L 78.50822 134.700014 
L 78.573158 187.625802 
L 78.605626 250.997451 
L 78.703032 249.343285 
L 78.735501 171.13262 
L 78.832907 173.130774 
L 78.865376 172.148575 
L 78.897845 172.31907 
L 78.930313 146.612911 
L 78.962782 197.239912 
L 78.995251 155.081702 
L 79.092657 201.921883 
L 79.190063 112.477015 
L 79.255 115.930588 
L 79.352407 159.201454 
L 79.384875 151.03448 
L 79.449813 111.573542 
L 79.482281 111.74238 
L 79.547219 171.162292 
L 79.612156 143.739001 
L 79.709562 111.74238 
L 79.742031 113.24944 
L 79.7745 111.428471 
L 79.871906 163.310798 
L 79.904374 112.145312 
L 80.001781 116.642136 
L 80.066718 133.150002 
L 80.099187 164.490491 
L 80.131655 103.920994 
L 80.164124 146.243621 
L 80.26153 120.113596 
L 80.293999 120.307617 
L 80.326468 165.325921 
L 80.358936 118.890665 
L 80.423874 150.056345 
L 80.488811 110.325766 
L 80.553748 124.026637 
L 80.651155 113.226574 
L 80.683623 91.413619 
L 80.748561 120.258231 
L 80.910904 245.170174 
L 80.943373 136.291181 
L 81.00831 218.214325 
L 81.105716 156.008391 
L 81.138185 216.997902 
L 81.170654 147.787653 
L 81.203122 154.783383 
L 81.235591 159.402301 
L 81.300529 156.008391 
L 81.332997 219.402479 
L 81.397935 216.997902 
L 81.430403 137.103649 
L 81.52781 156.008391 
L 81.560278 156.008391 
L 81.592747 257.339206 
L 81.657684 154.783383 
L 81.690153 216.997902 
L 81.722622 154.783383 
L 81.820028 156.008391 
L 81.852497 245.170174 
L 81.917434 219.402479 
L 82.01484 155.38436 
L 82.144715 257.339206 
L 82.209652 137.103649 
L 82.27459 156.008391 
L 82.339527 256.410053 
L 82.404464 225.27708 
L 82.469402 155.38436 
L 82.501871 257.339206 
L 82.566808 154.783383 
L 82.599277 137.933201 
L 82.631745 216.997902 
L 82.696683 159.402301 
L 82.729151 155.38436 
L 82.76162 219.402479 
L 82.826558 216.997902 
L 82.859026 137.103649 
L 82.891495 219.402479 
L 82.923964 219.402479 
L 82.988901 225.101911 
L 83.02137 156.008391 
L 83.118776 223.873656 
L 83.151245 219.402479 
L 83.183713 216.997902 
L 83.216182 228.40741 
L 83.313588 155.38436 
L 83.346057 174.882805 
L 83.378525 153.079765 
L 83.410994 253.567418 
L 83.475932 232.260077 
L 83.670744 151.921969 
L 83.703213 229.133182 
L 83.800619 216.997902 
L 83.898025 156.008391 
L 83.930493 244.220364 
L 84.0279 219.402479 
L 84.060368 213.058071 
L 84.125306 221.729468 
L 84.190243 144.087231 
L 84.25518 223.873656 
L 84.320118 214.884233 
L 84.385055 156.472158 
L 84.417524 160.016418 
L 84.449993 260.688767 
L 84.482461 144.140437 
L 84.51493 163.635962 
L 84.547399 163.635962 
L 84.677274 213.058071 
L 84.742211 157.342326 
L 84.77468 184.99942 
L 84.807148 213.058071 
L 84.872086 198.099298 
L 84.904554 198.099298 
L 85.034429 173.360898 
L 85.066898 137.471535 
L 85.131835 149.986439 
L 85.196773 161.920463 
L 85.326648 115.594591 
L 85.52146 159.316946 
L 85.553928 109.65025 
L 85.586397 161.920463 
L 85.618866 159.316946 
L 85.813678 107.072992 
L 85.846147 122.36435 
L 85.911084 146.019675 
L 85.943553 122.823564 
L 85.976022 122.07354 
L 86.00849 159.846055 
L 86.073428 122.36435 
L 86.105896 111.021749 
L 86.138365 122.07354 
L 86.26824 159.846055 
L 86.333177 122.823564 
L 86.365646 123.76581 
L 86.398115 159.481392 
L 86.463052 122.07354 
L 86.495521 147.378246 
L 86.560458 163.54951 
L 86.625396 157.007954 
L 86.722802 123.755272 
L 86.75527 167.974985 
L 86.787739 122.07354 
L 86.820208 162.12853 
L 86.852677 124.001212 
L 86.917614 146.243621 
L 86.950083 148.483859 
L 86.982551 122.36435 
L 87.01502 160.833226 
L 87.047489 146.243621 
L 87.079957 144.864223 
L 87.112426 122.823564 
L 87.144895 136.894927 
L 87.177364 160.799798 
L 87.242301 135.987849 
L 87.27477 153.939166 
L 87.307238 107.116953 
L 87.404644 122.36435 
L 87.534519 172.186345 
L 87.664394 137.448643 
L 87.729331 135.987849 
L 87.7618 124.001212 
L 87.794269 146.019675 
L 87.859206 194.98975 
L 88.02155 190.790452 
L 88.054018 123.096795 
L 88.151425 137.448643 
L 88.183893 121.507632 
L 88.248831 178.465407 
L 88.313768 155.194102 
L 88.346237 135.320277 
L 88.378706 201.160845 
L 88.443643 166.026645 
L 88.476112 151.769583 
L 88.50858 182.758383 
L 88.541049 159.213052 
L 88.573518 159.019119 
L 88.703393 210.944319 
L 88.800799 241.440543 
L 88.833267 230.654414 
L 88.865736 232.992335 
L 88.898205 221.239241 
L 88.930673 238.750812 
L 88.963142 242.386332 
L 88.995611 226.206334 
L 89.02808 244.632207 
L 89.060548 230.320319 
L 89.190423 249.26912 
L 89.222892 230.320319 
L 89.287829 243.55756 
L 89.320298 242.19902 
L 89.352767 251.783694 
L 89.417704 245.177234 
L 89.450173 242.19902 
L 89.482641 245.177234 
L 89.51511 249.058803 
L 89.547579 229.435417 
L 89.612516 243.55756 
L 89.644985 247.074593 
L 89.677454 227.060052 
L 89.742391 241.087622 
L 89.77486 249.26912 
L 89.872266 247.074593 
L 89.937203 249.26912 
L 89.969672 239.364678 
L 90.067078 241.440543 
L 90.099547 248.069643 
L 90.132015 230.320319 
L 90.164484 249.26912 
L 90.196953 249.26912 
L 90.229421 238.468191 
L 90.326828 241.087622 
L 90.424234 251.783694 
L 90.456702 247.074593 
L 90.52164 251.783694 
L 90.619046 242.19902 
L 90.651515 251.783694 
L 90.683983 231.315492 
L 90.716452 249.26912 
L 90.846327 227.060052 
L 90.943733 226.53575 
L 90.976202 251.783694 
L 91.106076 245.177234 
L 91.138545 245.177234 
L 91.203483 249.26912 
L 91.235951 240.211629 
L 91.300889 249.26912 
L 91.333357 234.678249 
L 91.398295 249.26912 
L 91.495701 240.211629 
L 91.52817 242.19902 
L 91.593107 247.074593 
L 91.625576 223.003991 
L 91.690513 251.783694 
L 91.787919 229.096738 
L 91.820388 243.55756 
L 91.885325 249.26912 
L 91.917794 242.19902 
L 91.982731 245.177234 
L 92.0152 249.26912 
L 92.047669 247.074593 
L 92.177544 241.087622 
L 92.307418 245.177234 
L 92.339887 251.783694 
L 92.372356 243.55756 
L 92.437293 249.26912 
L 92.534699 238.231729 
L 92.567168 249.26912 
L 92.632105 241.087622 
L 92.664574 238.468191 
L 92.697043 251.783694 
L 92.76198 247.074593 
L 92.794449 242.19902 
L 92.826918 245.177234 
L 92.859386 249.26912 
L 92.891855 245.177234 
L 92.956792 224.460236 
L 92.989261 235.692401 
L 93.119136 248.069643 
L 93.249011 241.087622 
L 93.313948 249.26912 
L 93.346417 243.55756 
L 93.411354 242.19902 
L 93.50876 249.26912 
L 93.638635 241.087622 
L 93.736041 251.783694 
L 93.833447 229.096738 
L 93.865916 247.074593 
L 93.995791 249.26912 
L 94.060728 249.26912 
L 94.223072 242.19902 
L 94.385415 249.26912 
L 94.417884 248.069643 
L 94.450353 241.087622 
L 94.51529 243.55756 
L 94.547759 249.26912 
L 94.612696 248.069643 
L 94.645165 242.19902 
L 94.710102 243.55756 
L 94.742571 251.783694 
L 94.77504 241.087622 
L 94.807508 248.069643 
L 94.904914 243.55756 
L 94.937383 248.069643 
L 95.002321 244.30558 
L 95.034789 243.55756 
L 95.067258 224.460236 
L 95.132195 238.750812 
L 95.229602 251.783694 
L 95.26207 245.177234 
L 95.294539 245.177234 
L 95.327008 247.074593 
L 95.424414 240.211629 
L 95.489351 249.26912 
L 95.52182 247.074593 
L 95.586757 240.211629 
L 95.619226 244.632207 
L 95.651695 249.26912 
L 95.684163 234.678249 
L 95.716632 251.783694 
L 95.749101 247.074593 
L 95.781569 251.783694 
L 95.814038 238.750812 
L 95.878976 251.783694 
L 95.976382 243.55756 
L 96.073788 249.26912 
L 96.106256 238.468191 
L 96.171194 240.211629 
L 96.333537 248.069643 
L 96.366006 243.55756 
L 96.463412 244.632207 
L 96.495881 251.783694 
L 96.52835 247.074593 
L 96.560818 227.174268 
L 96.593287 249.26912 
L 96.625756 243.55756 
L 96.658224 245.177234 
L 96.690693 244.632207 
L 96.723162 240.211629 
L 96.820568 241.087622 
L 96.853037 249.26912 
L 96.917974 243.55756 
L 96.950443 241.087622 
L 96.982911 243.55756 
L 97.01538 247.074593 
L 97.047849 242.19902 
L 97.080317 245.177234 
L 97.112786 244.632207 
L 97.145255 251.783694 
L 97.210192 245.177234 
L 97.242661 243.55756 
L 97.27513 247.074593 
L 97.307598 247.074593 
L 97.340067 243.55756 
L 97.405005 245.177234 
L 97.437473 248.069643 
L 97.469942 243.55756 
L 97.502411 244.632207 
L 97.534879 242.19902 
L 97.599817 251.783694 
L 97.664754 248.069643 
L 97.697223 229.435417 
L 97.76216 238.231729 
L 97.794629 238.468191 
L 97.892035 249.26912 
L 97.924504 243.55756 
L 97.956972 238.468191 
L 97.989441 245.177234 
L 98.054379 248.069643 
L 98.086847 243.55756 
L 98.184253 244.632207 
L 98.281659 245.177234 
L 98.411534 240.211629 
L 98.444003 244.632207 
L 98.476472 241.087622 
L 98.50894 229.435417 
L 98.541409 241.440543 
L 98.638815 249.26912 
L 98.671284 243.55756 
L 98.736221 249.26912 
L 98.76869 249.26912 
L 98.801159 248.069643 
L 98.833627 240.211629 
L 98.898565 242.19902 
L 98.963502 248.069643 
L 98.995971 243.55756 
L 99.060908 245.177234 
L 99.125846 240.211629 
L 99.158314 248.069643 
L 99.223252 244.632207 
L 99.288189 241.440543 
L 99.320658 242.19902 
L 99.483001 251.783694 
L 99.612876 241.087622 
L 99.645345 251.783694 
L 99.742751 249.26912 
L 99.807688 242.19902 
L 99.840157 251.783694 
L 99.872626 242.19902 
L 99.905095 234.678249 
L 99.937563 251.783694 
L 99.970032 241.087622 
L 100.002501 251.783694 
L 100.067438 241.087622 
L 100.099907 234.678249 
L 100.132375 247.074593 
L 100.294719 251.783694 
L 100.424594 243.55756 
L 100.489531 251.783694 
L 100.554469 234.678249 
L 100.586937 249.26912 
L 100.619406 251.783694 
L 100.684343 241.087622 
L 100.749281 243.55756 
L 100.814218 245.177234 
L 100.846687 243.55756 
L 100.879156 243.55756 
L 100.944093 245.177234 
L 101.00903 241.087622 
L 101.171374 249.26912 
L 101.203843 248.069643 
L 101.236311 240.211629 
L 101.333717 242.19902 
L 101.398655 245.177234 
L 101.431123 240.211629 
L 101.463592 251.783694 
L 101.496061 251.783694 
L 101.625936 242.19902 
L 101.75581 249.26912 
L 101.820748 242.19902 
L 101.853217 249.26912 
L 101.885685 248.069643 
L 101.918154 242.19902 
L 101.983091 244.632207 
L 102.01556 251.783694 
L 102.112966 249.26912 
L 102.210372 241.087622 
L 102.242841 251.783694 
L 102.307778 249.26912 
L 102.437653 243.55756 
L 102.470122 251.783694 
L 102.502591 241.087622 
L 102.567528 249.26912 
L 102.632465 249.26912 
L 102.664934 245.177234 
L 102.697403 249.26912 
L 102.729872 251.783694 
L 102.827278 242.19902 
L 102.924684 251.783694 
L 102.989621 247.074593 
L 103.02209 248.069643 
L 103.054559 249.26912 
L 103.087027 247.074593 
L 103.151965 238.468191 
L 103.184433 242.19902 
L 103.249371 251.783694 
L 103.314308 248.069643 
L 103.411714 249.26912 
L 103.476652 241.087622 
L 103.541589 251.783694 
L 103.574058 244.632207 
L 103.638995 249.26912 
L 103.736401 235.692401 
L 103.898745 251.783694 
L 104.02862 244.632207 
L 104.061088 243.55756 
L 104.093557 251.783694 
L 104.158494 241.087622 
L 104.190963 249.26912 
L 104.320838 229.435417 
L 104.385775 251.783694 
L 104.450713 247.074593 
L 104.483181 249.26912 
L 104.51565 241.087622 
L 104.580588 248.069643 
L 104.742931 240.211629 
L 104.872806 249.26912 
L 104.937743 241.087622 
L 105.002681 241.440543 
L 105.035149 248.069643 
L 105.100087 244.632207 
L 105.165024 245.177234 
L 105.197493 242.19902 
L 105.229962 247.074593 
L 105.294899 243.55756 
L 105.327368 243.55756 
L 105.359836 251.783694 
L 105.424774 241.440543 
L 105.489711 229.435417 
L 105.554649 235.692401 
L 105.684523 249.26912 
L 105.749461 244.632207 
L 105.846867 245.177234 
L 105.944273 251.783694 
L 106.00921 244.632207 
L 106.041679 251.783694 
L 106.204023 241.440543 
L 106.301429 249.26912 
L 106.431303 245.177234 
L 106.496241 243.55756 
L 106.561178 249.26912 
L 106.593647 241.087622 
L 106.658584 243.55756 
L 106.723522 244.632207 
L 106.755991 242.19902 
L 106.788459 245.177234 
L 106.820928 247.074593 
L 106.853397 240.211629 
L 106.918334 241.087622 
L 107.048209 251.783694 
L 107.080678 249.26912 
L 107.210552 241.087622 
L 107.243021 247.074593 
L 107.340427 245.177234 
L 107.372896 241.087622 
L 107.405365 247.074593 
L 107.502771 251.783694 
L 107.76252 231.315671 
L 107.794989 239.869732 
L 107.859926 230.366313 
L 107.892395 224.794871 
L 107.924864 237.599917 
L 107.957332 231.315671 
L 108.02227 229.305969 
L 108.087207 235.627661 
L 108.119676 231.315671 
L 108.152145 242.459987 
L 108.217082 239.869732 
L 108.314488 224.794871 
L 108.444363 238.816586 
L 108.574238 230.366313 
L 108.606706 232.533274 
L 108.736581 239.901194 
L 108.801519 233.965692 
L 108.866456 219.546893 
L 108.898925 235.419115 
L 108.931394 233.965692 
L 108.963862 242.491196 
L 109.0288 237.631631 
L 109.158674 231.34838 
L 109.256081 242.491196 
L 109.385955 232.267948 
L 109.51583 239.901194 
L 109.645705 233.965692 
L 109.77558 242.491196 
L 109.840517 224.827954 
L 109.905455 232.533274 
L 109.937923 230.399268 
L 109.970392 233.965692 
L 110.035329 232.533274 
L 110.067798 239.901194 
L 110.132735 229.336636 
L 110.197673 242.491196 
L 110.26261 238.816586 
L 110.295079 239.901194 
L 110.327548 237.631631 
L 110.360016 238.816586 
L 110.424954 232.533274 
L 110.489891 237.631631 
L 110.619766 150.770021 
L 110.684703 203.529709 
L 110.749641 204.984431 
L 110.814578 185.150111 
L 110.944453 111.950558 
L 111.00939 119.861675 
L 111.041859 112.133514 
L 111.074328 112.133514 
L 111.139265 113.367522 
L 111.171734 120.30632 
L 111.236671 111.773999 
L 111.26914 112.929977 
L 111.366546 112.518747 
L 111.431484 117.297484 
L 111.463952 112.518747 
L 111.496421 112.133514 
L 111.52889 112.518747 
L 111.561358 112.721093 
L 111.626296 119.21943 
L 111.658764 112.518747 
L 111.691233 105.67784 
L 111.723702 113.59627 
L 111.756171 112.721093 
L 111.788639 112.929977 
L 111.821108 114.578915 
L 111.853577 108.901009 
L 111.886045 112.929977 
L 111.918514 118.083176 
L 111.950983 112.133514 
L 111.983451 108.800242 
L 112.01592 112.721093 
L 112.080858 108.963645 
L 112.113326 108.853311 
L 112.178264 108.930467 
L 112.308138 128.96781 
L 112.405545 113.449235 
L 112.567888 159.138153 
L 112.665294 120.803646 
L 112.697763 184.015101 
L 112.795169 158.013887 
L 112.860106 160.402563 
L 112.925044 121.838923 
L 112.957512 124.526382 
L 113.02245 187.882111 
L 113.054919 137.486556 
L 113.119856 121.963138 
L 113.152325 152.361063 
L 113.184793 121.953609 
L 113.217262 123.689043 
L 113.249731 122.585289 
L 113.282199 113.473639 
L 113.314668 123.138227 
L 113.347137 122.171578 
L 113.379606 122.421358 
L 113.444543 162.321793 
L 113.477012 116.979282 
L 113.574418 124.21143 
L 113.639355 116.778281 
L 113.671824 122.341426 
L 113.801699 138.580668 
L 113.834167 126.356203 
L 113.899105 127.139052 
L 113.931574 134.340391 
L 113.996511 130.797774 
L 114.02898 129.219838 
L 114.126386 159.37427 
L 114.158854 132.726132 
L 114.223792 137.296167 
L 114.256261 149.47609 
L 114.321198 135.706754 
L 114.353667 137.370401 
L 114.386135 152.658836 
L 114.451073 139.107289 
L 114.51601 119.041419 
L 114.548479 135.53784 
L 114.613416 152.771822 
L 114.678354 113.068429 
L 114.710822 128.755052 
L 114.743291 183.118624 
L 114.77576 124.431265 
L 114.840697 164.892044 
L 114.938103 122.230455 
L 114.970572 181.196268 
L 115.067978 160.603032 
L 115.100447 151.937842 
L 115.132915 162.341493 
L 115.197853 177.646941 
L 115.327728 133.679618 
L 115.360196 139.338932 
L 115.425134 177.646941 
L 115.457602 121.054304 
L 115.52254 177.646941 
L 115.587477 177.576008 
L 115.684883 177.646941 
L 115.717352 115.418287 
L 115.847227 177.646941 
L 115.912164 116.246489 
L 115.944633 149.594056 
L 116.042039 179.258173 
L 116.074508 141.335295 
L 116.139445 177.646941 
L 116.171914 176.004712 
L 116.204383 177.646941 
L 116.236851 154.364034 
L 116.26932 179.258173 
L 116.301789 156.191387 
L 116.366726 177.646941 
L 116.399195 123.631892 
L 116.431664 179.258173 
L 116.464132 177.646941 
L 116.594007 177.646941 
L 116.626476 174.024407 
L 116.658944 119.179264 
L 116.691413 177.646941 
L 116.723882 177.646941 
L 116.756351 184.729856 
L 116.821288 182.807499 
L 116.853757 179.258173 
L 116.886225 206.412388 
L 116.951163 188.91535 
L 117.0161 200.986328 
L 117.048569 193.630075 
L 117.113506 219.593511 
L 117.145975 162.423629 
L 117.178444 195.008444 
L 117.243381 155.653516 
L 117.27585 182.807499 
L 117.340787 202.983723 
L 117.405725 156.908053 
L 117.438193 199.419582 
L 117.503131 212.267501 
L 117.535599 127.285437 
L 117.600537 155.54789 
L 117.730412 205.133093 
L 117.76288 201.950172 
L 117.827818 136.733668 
L 117.860286 169.148507 
L 117.892755 212.267501 
L 117.925224 169.148507 
L 117.957692 136.733668 
L 117.990161 169.148507 
L 118.02263 191.20021 
L 118.055099 126.269222 
L 118.120036 205.133093 
L 118.28238 169.148507 
L 118.314848 188.91535 
L 118.444723 123.450427 
L 118.477192 123.860245 
L 118.574598 191.20021 
L 118.607067 169.148507 
L 118.801879 118.865327 
L 118.931754 167.48484 
L 118.964222 156.908053 
L 118.996691 124.337256 
L 119.094097 134.894887 
L 119.126566 126.485469 
L 119.159034 156.329864 
L 119.191503 121.539119 
L 119.256441 149.283188 
L 119.386315 195.17024 
L 119.451253 177.317369 
L 119.51619 123.723432 
L 119.548659 156.908053 
L 119.646065 193.198771 
L 119.678534 124.732758 
L 119.743471 129.795993 
L 119.873346 195.928914 
L 119.905815 124.732758 
L 119.970752 127.219028 
L 120.068158 195.928914 
L 120.100627 125.937993 
L 120.165564 200.025516 
L 120.198033 193.198771 
L 120.230502 126.485469 
L 120.295439 193.198771 
L 120.327908 160.486866 
L 120.360376 195.928914 
L 120.392845 193.198771 
L 120.457783 201.763636 
L 120.620126 127.219028 
L 120.717532 201.763636 
L 120.750001 190.581457 
L 120.78247 190.581457 
L 120.814938 197.387355 
L 120.847407 194.535488 
L 121.00975 126.485469 
L 121.042219 203.49572 
L 121.107157 177.130325 
L 121.139625 156.908053 
L 121.172094 162.643135 
L 121.301969 206.774955 
L 121.334437 206.774955 
L 121.366906 205.247421 
L 121.399375 126.485469 
L 121.464312 203.49572 
L 121.496781 162.643135 
L 121.561718 194.535488 
L 121.594187 206.774955 
L 121.659124 126.856049 
L 121.691593 200.370503 
L 121.756531 206.774955 
L 121.788999 203.792797 
L 121.918874 126.485469 
L 122.01628 205.247421 
L 122.048749 126.485469 
L 122.146155 158.651019 
L 122.211092 160.486866 
L 122.243561 158.651019 
L 122.27603 158.651019 
L 122.373436 201.222938 
L 122.405905 198.633564 
L 122.503311 126.485469 
L 122.535779 162.423657 
L 122.633186 158.651019 
L 122.665654 156.908053 
L 122.730592 160.486866 
L 122.76306 126.485469 
L 122.860466 177.130325 
L 122.892935 160.486866 
L 122.957873 156.908053 
L 122.990341 126.485469 
L 123.055279 160.486866 
L 123.087747 178.798743 
L 123.120216 155.283102 
L 123.185153 126.856049 
L 123.217622 158.651019 
L 123.250091 156.908053 
L 123.379966 126.485469 
L 123.412434 126.485469 
L 123.542309 158.651019 
L 123.574778 156.908053 
L 123.607247 177.153993 
L 123.639715 150.738507 
L 123.672184 177.130325 
L 123.76959 126.485469 
L 123.866996 177.130325 
L 123.899465 126.485469 
L 123.964402 148.809137 
L 123.996871 177.130325 
L 124.061808 156.908053 
L 124.094277 126.856049 
L 124.126746 152.487259 
L 124.159214 184.368277 
L 124.191683 126.485469 
L 124.256621 177.130325 
L 124.289089 177.130325 
L 124.321558 184.368277 
L 124.386495 177.130325 
L 124.483901 177.130325 
L 124.51637 184.368277 
L 124.548839 177.130325 
L 124.581308 156.908053 
L 124.646245 177.130325 
L 124.678714 177.130325 
L 124.711182 186.881325 
L 124.77612 177.130325 
L 124.808588 109.637059 
L 124.873526 177.130325 
L 124.970932 177.130325 
L 125.003401 138.322965 
L 125.068338 177.130325 
L 125.165744 177.130325 
L 125.198213 180.143593 
L 125.295619 179.37506 
L 125.328088 179.37506 
L 125.360556 152.487259 
L 125.425494 179.37506 
L 125.457963 179.37506 
L 125.555369 128.933701 
L 125.685243 179.37506 
L 126.432024 179.37506 
L 126.626836 123.712045 
L 126.659304 123.495966 
L 126.724242 147.818576 
L 126.756711 141.221626 
L 126.821648 123.2139 
L 126.854117 152.599531 
L 126.886585 122.016316 
L 126.919054 122.341426 
L 126.951523 123.2139 
L 126.983991 121.740059 
L 127.01646 122.016316 
L 127.048929 121.826709 
L 127.081398 120.772063 
L 127.146335 121.918797 
L 127.178804 121.121663 
L 127.211272 121.381035 
L 127.243741 120.565275 
L 127.308679 121.121663 
L 127.341147 121.381035 
L 127.373616 121.121663 
L 127.406085 120.35808 
L 127.438553 120.88334 
L 127.471022 121.518628 
L 127.503491 120.213429 
L 127.535959 121.381035 
L 127.568428 115.585252 
L 127.600897 119.686048 
L 127.730772 212.484113 
L 127.76324 212.484113 
L 127.795709 119.452995 
L 127.860646 212.484113 
L 127.958053 212.484113 
L 127.990521 121.52107 
L 128.055459 212.484113 
L 130.945173 212.484113 
L 131.042579 123.457547 
L 131.075048 212.484113 
L 131.139985 124.703287 
L 131.204923 125.544129 
L 131.26986 126.458731 
L 131.302329 123.435554 
L 131.367266 133.845728 
L 131.432204 132.593232 
L 131.464672 98.420904 
L 131.52961 133.188781 
L 131.562078 133.188781 
L 131.659484 133.845728 
L 131.691953 133.188781 
L 131.756891 133.845728 
L 131.854297 133.845728 
L 131.886765 132.243302 
L 131.951703 133.845728 
L 132.01664 133.845728 
L 132.049109 132.999545 
L 132.081578 133.845728 
L 132.114046 134.205381 
L 132.178984 133.845728 
L 132.211452 133.845728 
L 132.341327 133.188781 
L 132.373796 120.271012 
L 132.406265 135.058402 
L 132.438733 133.845728 
L 132.471202 133.845728 
L 132.503671 135.058402 
L 132.568608 133.845728 
L 132.601077 116.921137 
L 132.698483 123.264098 
L 132.730952 134.626889 
L 132.795889 133.845728 
L 132.828358 117.832859 
L 132.893295 121.132657 
L 132.990701 133.845728 
L 133.055639 108.917618 
L 133.120576 117.032065 
L 133.217982 113.139501 
L 133.250451 133.845728 
L 133.28292 108.239987 
L 133.380326 113.139501 
L 133.445263 133.845728 
L 133.5102 117.149415 
L 133.542669 116.921137 
L 133.640075 113.139501 
L 133.737481 133.845728 
L 133.76995 118.496682 
L 133.802419 117.988995 
L 133.899825 113.139501 
L 134.0297 131.926523 
L 134.127106 113.139501 
L 134.159575 120.740925 
L 134.289449 113.139501 
L 134.321918 119.914314 
L 134.386855 113.139501 
L 134.484262 113.139501 
L 134.51673 110.590061 
L 134.581668 113.139501 
L 134.614136 113.139501 
L 134.744011 119.063875 
L 134.873886 113.139501 
L 135.036229 113.139501 
L 135.166104 110.590061 
L 135.295979 115.354753 
L 135.393385 113.139501 
L 135.458323 111.132359 
L 135.490791 119.914314 
L 135.620666 110.590061 
L 135.685603 113.139501 
L 135.718072 110.590061 
L 135.78301 113.139501 
L 135.815478 110.590061 
L 135.847947 115.354753 
L 135.912884 110.590061 
L 136.075228 110.590061 
L 136.107697 115.64269 
L 136.172634 110.590061 
L 136.205103 108.381233 
L 136.27004 115.354753 
L 136.334977 112.922499 
L 136.464852 110.590061 
L 136.497321 110.590061 
L 136.594727 115.952665 
L 136.627196 115.354753 
L 136.724602 110.590061 
L 136.757071 111.540286 
L 136.789539 110.590061 
L 136.886945 115.354753 
L 136.984352 105.957529 
L 137.01682 110.590061 
L 137.146695 104.186989 
L 137.244101 110.590061 
L 137.309039 104.846808 
L 137.341507 115.354753 
L 137.406445 110.590061 
L 137.438913 105.957529 
L 137.471382 110.590061 
L 137.503851 115.336806 
L 137.536319 105.957529 
L 137.568788 115.034964 
L 137.633726 115.354753 
L 137.698663 98.471326 
L 137.731132 119.067765 
L 137.796069 104.186989 
L 137.893475 110.590061 
L 137.925944 98.471326 
L 137.958413 108.381233 
L 137.990881 117.804656 
L 138.02335 111.458261 
L 138.055819 104.186989 
L 138.153225 105.957529 
L 138.185693 105.957529 
L 138.218162 96.731837 
L 138.250631 104.186989 
L 138.2831 120.382131 
L 138.348037 104.186989 
L 138.380506 104.186989 
L 138.51038 113.189226 
L 138.542849 112.352639 
L 138.672724 104.186989 
L 138.737661 104.186989 
L 138.77013 114.059886 
L 138.835068 104.186989 
L 138.932474 111.548982 
L 138.964942 96.731837 
L 139.02988 100.66636 
L 139.094817 121.444704 
L 139.159755 112.081149 
L 139.51691 93.869689 
L 139.646785 93.869689 
L 139.679254 97.431388 
L 139.744191 93.869689 
L 139.841597 93.869689 
L 139.874066 101.496802 
L 139.939003 93.869689 
L 147.082118 93.869689 
L 147.114586 95.640518 
L 147.179524 93.869689 
L 147.309399 93.869689 
L 147.341867 95.640518 
L 147.406805 93.869689 
L 148.802959 93.869689 
L 148.932834 95.640518 
L 149.062708 93.869689 
L 149.095177 93.869689 
L 149.127646 95.640518 
L 149.192583 93.869689 
L 149.257521 93.869689 
L 149.387395 95.640518 
L 149.51727 95.640518 
L 149.582208 93.869689 
L 149.614676 95.640518 
L 149.679614 95.640518 
L 149.809489 93.869689 
L 149.841957 93.869689 
L 149.939363 95.640518 
L 149.971832 93.869689 
L 150.036769 95.640518 
L 151.140705 95.640518 
L 151.367986 105.647341 
L 151.400455 103.468105 
L 151.432924 105.647341 
L 151.53033 115.547514 
L 151.562798 103.468105 
L 151.595267 118.385321 
L 151.627736 115.547514 
L 151.692673 124.619975 
L 151.725142 121.40222 
L 151.887485 181.199986 
L 153.77067 181.199986 
L 153.803139 105.010775 
L 153.868076 181.199986 
L 154.160295 181.199986 
L 154.192763 92.919007 
L 154.257701 181.199986 
L 154.484982 181.199986 
L 154.51745 176.855267 
L 154.549919 155.625306 
L 154.614856 173.092855 
L 154.647325 165.640042 
L 154.712262 173.092855 
L 154.7772 173.092855 
L 154.809669 169.573584 
L 154.842137 173.092855 
L 154.907075 181.519623 
L 154.939543 173.092855 
L 154.972012 173.092855 
L 155.004481 176.855267 
L 155.166824 149.824302 
L 155.199293 169.24242 
L 155.26423 165.67699 
L 155.394105 138.742243 
L 155.426574 143.197336 
L 155.459043 134.704446 
L 155.491511 135.531891 
L 155.52398 140.157561 
L 155.556449 131.641396 
L 155.588917 137.97276 
L 155.718792 126.460114 
L 155.751261 127.050076 
L 155.816198 126.460114 
L 155.946073 125.953661 
L 158.900725 125.953661 
L 158.933194 120.174513 
L 158.998131 121.826036 
L 159.160475 129.795792 
L 159.290349 118.588316 
L 159.420224 125.953661 
L 159.485162 129.795792 
L 159.550099 120.174513 
L 159.582568 120.174513 
L 159.77738 129.795792 
L 159.809849 117.063571 
L 159.874786 129.795792 
L 159.939723 129.795792 
L 159.972192 117.063571 
L 160.069598 118.588316 
L 160.102067 118.588316 
L 160.134536 117.063571 
L 160.26441 129.795792 
L 160.296879 129.795792 
L 160.426754 118.588316 
L 160.459223 118.588316 
L 160.556629 125.953661 
L 160.654035 123.547099 
L 160.686504 123.547099 
L 160.718972 121.826036 
L 160.78391 123.547099 
L 161.076128 123.547099 
L 161.108597 129.795792 
L 161.173534 123.547099 
L 161.757971 123.547099 
L 161.790439 123.745958 
L 161.855377 123.547099 
L 161.887846 123.547099 
L 162.01772 124.202797 
L 162.27747 125.678762 
L 162.309939 125.346007 
L 162.439813 127.623423 
L 162.472282 127.196791 
L 162.53722 127.196791 
L 162.7645 129.523521 
L 162.796969 129.018974 
L 162.829438 129.523521 
L 162.861907 130.593514 
L 162.926844 130.048249 
L 162.959313 130.048249 
L 163.121656 131.15971 
L 163.154125 131.15971 
L 163.186594 131.74727 
L 163.251531 124.713568 
L 163.284 133.643084 
L 163.413874 131.74727 
L 163.446343 132.356668 
L 163.511281 133.643084 
L 163.543749 124.713568 
L 163.608687 133.643084 
L 163.641155 132.98842 
L 163.738561 124.713568 
L 163.706093 133.643084 
L 163.77103 125.953661 
L 163.803499 125.953661 
L 163.835968 124.713568 
L 163.868436 130.011883 
L 163.933374 126.44159 
L 163.998311 124.713568 
L 164.03078 125.953661 
L 164.095717 125.953661 
L 164.193123 124.713568 
L 164.322998 125.953661 
L 164.355467 125.953661 
L 164.452873 124.713568 
L 164.582748 125.953661 
L 164.615216 125.953661 
L 164.647685 124.713568 
L 164.712623 125.953661 
L 164.874966 125.953661 
L 164.907435 124.713568 
L 164.972372 125.953661 
L 165.167184 125.953661 
L 165.232122 124.713568 
L 165.26459 125.953661 
L 165.329528 125.953661 
L 165.394465 124.713568 
L 165.426934 125.953661 
L 165.556809 125.953661 
L 165.686684 130.467594 
L 165.719152 125.953661 
L 165.78409 130.467594 
L 165.849027 130.467594 
L 165.978902 125.953661 
L 166.108777 130.467594 
L 166.141245 130.467594 
L 166.238652 125.953661 
L 166.368526 130.467594 
L 166.498401 130.467594 
L 166.595807 125.953661 
L 166.725682 130.467594 
L 166.855557 130.467594 
L 166.888026 125.953661 
L 166.952963 130.467594 
L 167.245181 130.467594 
L 167.27765 125.953661 
L 167.342587 130.467594 
L 167.504931 130.467594 
L 167.634806 124.713568 
L 168.349117 124.713568 
L 168.478992 125.028587 
L 168.543929 124.713568 
L 168.576398 125.028587 
L 168.608867 125.028587 
L 168.641335 124.713568 
L 168.706273 125.028587 
L 168.836148 125.028587 
L 168.868616 124.713568 
L 168.933554 125.028587 
L 168.998491 125.028587 
L 169.128366 122.915093 
L 169.193303 124.487511 
L 169.258241 123.430923 
L 169.290709 123.430923 
L 169.615396 116.073605 
L 169.647865 117.317415 
L 169.712803 116.481829 
L 169.745271 116.481829 
L 169.842677 114.502133 
L 169.875146 114.885983 
L 169.940083 113.751907 
L 170.005021 114.502133 
L 170.03749 116.896397 
L 170.102427 114.901449 
L 170.26477 113.751907 
L 170.329708 113.385351 
L 170.394645 114.468729 
L 170.427114 113.321547 
L 170.492051 114.124138 
L 170.589457 114.080493 
L 170.621926 115.263194 
L 170.654395 115.263194 
L 170.78427 114.468729 
L 170.881676 113.321547 
L 170.914145 114.080493 
L 170.979082 115.263194 
L 171.011551 114.86293 
L 171.044019 113.698129 
L 171.108957 114.080493 
L 171.238832 115.669619 
L 171.336238 114.080493 
L 171.401175 115.669619 
L 171.466112 115.263194 
L 171.498581 109.121419 
L 171.53105 116.501356 
L 171.563519 115.263194 
L 171.693393 117.358979 
L 171.725862 109.606483 
L 171.758331 118.243371 
L 171.790799 116.926877 
L 171.823268 116.501356 
L 171.855737 122.401144 
L 171.920674 122.039026 
L 171.953143 119.622195 
L 171.985612 139.399097 
L 172.01808 111.142794 
L 172.050549 109.362302 
L 172.083018 177.516893 
L 172.147955 142.049158 
L 172.212893 122.795008 
L 172.245361 202.84514 
L 172.27783 112.290268 
L 172.310299 114.916448 
L 172.342767 120.87246 
L 172.375236 114.298391 
L 172.407705 105.735424 
L 172.440173 115.564299 
L 172.472642 115.564299 
L 172.505111 114.906219 
L 172.53758 105.247956 
L 172.602517 114.20168 
L 172.667454 115.899794 
L 172.699923 113.22597 
L 172.76486 115.890593 
L 172.862267 124.713568 
L 172.927204 114.20168 
L 172.959673 115.899794 
L 173.02461 124.713568 
L 173.057079 115.233126 
L 173.122016 114.20168 
L 173.219422 124.713568 
L 173.251891 115.899794 
L 173.28436 115.564299 
L 173.316828 124.713568 
L 173.381766 115.899794 
L 173.479172 115.899794 
L 173.609047 124.713568 
L 173.641515 116.929505 
L 173.706453 124.713568 
L 173.738922 124.713568 
L 173.836328 116.929505 
L 173.966202 124.713568 
L 174.161015 124.713568 
L 174.193483 116.929505 
L 174.258421 124.713568 
L 174.290889 124.713568 
L 174.323358 116.929505 
L 174.388296 124.713568 
L 174.615576 124.713568 
L 174.648045 115.612094 
L 174.680514 132.604367 
L 174.712983 124.713568 
L 174.842857 132.604367 
L 174.875326 124.713568 
L 174.940263 132.604367 
L 175.005201 132.604367 
L 175.070138 123.547099 
L 175.102607 132.604367 
L 175.167544 132.604367 
L 175.200013 123.547099 
L 175.26495 132.604367 
L 175.297419 132.604367 
L 175.329888 123.547099 
L 175.394825 132.604367 
L 175.427294 132.604367 
L 175.557169 123.547099 
L 175.589638 123.547099 
L 175.719512 132.604367 
L 175.751981 123.547099 
L 175.816918 132.604367 
L 175.849387 132.604367 
L 175.979262 123.547099 
L 176.109137 132.604367 
L 176.141605 123.547099 
L 176.206543 132.604367 
L 176.239012 132.604367 
L 176.368886 123.547099 
L 176.498761 132.604367 
L 176.596167 123.547099 
L 176.726042 132.604367 
L 176.758511 123.547099 
L 176.823448 132.604367 
L 176.855917 132.604367 
L 176.888386 115.612094 
L 176.953323 132.604367 
L 177.115666 132.604367 
L 177.180604 115.612094 
L 177.213073 132.604367 
L 177.27801 132.604367 
L 177.375416 115.612094 
L 177.407885 132.604367 
L 177.472822 115.612094 
L 177.53776 115.612094 
L 177.570228 132.604367 
L 177.635166 115.612094 
L 178.122196 115.612094 
L 178.154665 132.604367 
L 178.219602 115.612094 
L 178.446883 115.612094 
L 178.479352 132.604367 
L 178.544289 115.612094 
L 178.674164 123.502891 
L 179.226132 123.502891 
L 179.258601 152.653771 
L 179.291069 97.505261 
L 179.453413 95.782254 
L 179.485882 95.782254 
L 179.550819 95.2938 
L 179.583288 95.667653 
L 179.615756 95.667653 
L 179.7781 98.400404 
L 179.875506 94.439158 
L 180.070318 156.394101 
L 180.135256 152.896569 
L 180.167724 152.896569 
L 180.200193 102.836143 
L 180.232662 179.438708 
L 182.050909 179.438708 
L 182.180784 190.424572 
L 183.414595 190.424572 
L 183.447063 135.689735 
L 183.479532 198.675315 
L 183.512001 189.534625 
L 183.544469 198.038291 
L 183.674344 131.437895 
L 183.706813 198.675315 
L 183.77175 131.437895 
L 193.642235 131.437895 
L 193.739642 123.547099 
L 193.869516 131.437895 
L 193.999391 123.547099 
L 194.259141 123.547099 
L 194.389016 99.522683 
L 194.486422 123.547099 
L 194.583828 101.36479 
L 194.616297 125.882628 
L 194.681234 99.191883 
L 194.713703 99.191883 
L 194.843577 95.065944 
L 194.876046 98.253143 
L 194.940984 93.99879 
L 194.973452 93.99879 
L 195.103327 95.258711 
L 195.135796 95.258711 
L 195.168264 114.476851 
L 195.233202 93.353805 
L 195.265671 110.695066 
L 195.298139 92.489593 
L 195.330608 114.476851 
L 195.363077 111.476742 
L 195.428014 113.681209 
L 195.460483 111.476742 
L 195.492951 110.695066 
L 195.622826 114.476851 
L 195.752701 110.695066 
L 195.78517 110.695066 
L 195.817638 112.565333 
L 195.850107 111.476742 
L 195.882576 109.641035 
L 195.947513 110.695066 
L 196.077388 113.681209 
L 196.207263 108.266898 
L 196.239732 110.14505 
L 196.2722 111.001491 
L 196.304669 110.849474 
L 196.369606 105.898002 
L 196.434544 106.912249 
L 196.467013 105.300293 
L 196.53195 106.912249 
L 196.564419 106.769047 
L 196.694293 102.460689 
L 196.7917 104.008457 
L 196.824168 103.90076 
L 196.986512 100.647916 
L 197.083918 100.772794 
L 197.116387 102.067312 
L 197.148855 100.089473 
L 197.376136 96.469791 
L 197.408605 99.046772 
L 197.473542 98.564714 
L 197.570948 95.486931 
L 197.603417 96.989485 
L 197.635886 96.581247 
L 197.668354 96.989485 
L 197.733292 95.12203 
L 197.798229 123.547099 
L 198.447603 123.547099 
L 198.577478 122.216597 
L 198.707353 122.216597 
L 198.902165 106.673252 
L 199.064509 106.752539 
L 199.194383 116.871581 
L 199.356727 117.341706 
L 199.421664 117.341706 
L 199.551539 122.216597 
L 199.876226 122.216597 
L 199.941164 121.687506 
L 199.973632 122.216597 
L 200.006101 122.216597 
L 200.103507 125.020441 
L 200.168444 121.687506 
L 200.233382 122.216597 
L 200.265851 121.205875 
L 200.298319 125.020441 
L 200.395725 124.985493 
L 200.428194 113.729833 
L 200.460663 125.020441 
L 200.493131 124.985493 
L 200.5256 124.985493 
L 200.590538 127.453238 
L 200.623006 125.020441 
L 200.655475 125.020441 
L 200.720412 127.4114 
L 200.78535 122.216597 
L 202.27891 122.216597 
L 202.408785 121.687506 
L 202.441254 128.47442 
L 202.506191 127.305394 
L 202.53866 121.687506 
L 202.603597 128.040522 
L 202.636066 127.650994 
L 202.668534 121.205875 
L 202.701003 128.47442 
L 202.733472 127.650994 
L 202.765941 127.650994 
L 202.895815 127.155017 
L 203.058159 127.155017 
L 203.090628 127.232898 
L 203.123096 127.1171 
L 203.155565 127.155017 
L 203.317909 127.132955 
L 204.03222 127.124423 
L 204.129626 125.630826 
L 204.162095 125.858871 
L 204.194563 127.103903 
L 204.227032 125.773872 
L 204.259501 125.773872 
L 204.389376 125.850854 
L 204.551719 126.016683 
L 204.779 126.105955 
L 204.941344 126.298417 
L 205.136156 126.40215 
L 205.168624 126.511286 
L 205.298499 131.437895 
L 209.097337 131.437895 
L 209.194743 126.511286 
L 209.227212 131.437895 
L 209.29215 126.511286 
L 209.357087 126.40215 
L 209.422024 131.437895 
L 209.454493 126.511286 
L 209.486962 126.511286 
L 209.51943 131.437895 
L 209.584368 126.511286 
L 209.746711 126.298417 
L 210.688304 126.19978 
L 210.818179 126.105955 
L 210.850647 126.19978 
L 210.915585 126.105955 
L 211.337678 126.016683 
L 211.402615 126.101609 
L 211.435084 125.931723 
L 211.500021 126.016683 
L 211.53249 125.931723 
L 212.181864 125.850854 
L 212.214333 125.773872 
L 212.27927 125.850854 
L 212.993582 125.773872 
L 213.058519 125.700587 
L 213.090988 125.773872 
L 213.675424 125.773872 
L 213.707893 125.93585 
L 213.77283 125.773872 
L 213.837768 125.700587 
L 213.870236 125.93585 
L 213.935174 125.700587 
L 214.000111 125.773872 
L 214.03258 125.700587 
L 214.129986 125.773872 
L 214.194923 125.858871 
L 214.227392 125.773872 
L 214.357267 125.858871 
L 214.389736 127.113012 
L 214.422204 125.773872 
L 214.454673 125.773872 
L 214.519611 125.858871 
L 214.552079 125.773872 
L 214.584548 125.700587 
L 214.649485 125.773872 
L 217.052169 125.850854 
L 217.149575 125.931723 
L 217.182044 125.850854 
L 217.246981 125.931723 
L 217.27945 126.016683 
L 217.344388 125.931723 
L 218.480792 126.016683 
L 218.610667 126.105955 
L 220.104227 126.19978 
L 220.234102 126.298417 
L 221.922474 126.40215 
L 222.019881 126.511286 
L 222.149755 126.40215 
L 222.604317 126.511286 
L 222.734192 126.626158 
L 222.864067 126.511286 
L 222.929004 126.511286 
L 222.961473 126.626158 
L 223.02641 126.511286 
L 223.188754 126.511286 
L 223.318629 126.626158 
L 223.448503 126.511286 
L 223.513441 126.511286 
L 223.643316 126.626158 
L 223.838128 126.626158 
L 223.968003 126.511286 
L 224.065409 126.511286 
L 224.195284 126.626158 
L 224.260221 126.626158 
L 224.325158 126.747133 
L 224.357627 126.626158 
L 224.519971 126.626158 
L 224.617377 126.511286 
L 224.714783 126.626158 
L 224.844658 126.511286 
L 224.974532 126.511286 
L 225.104407 126.626158 
L 225.201813 126.626158 
L 225.331688 126.511286 
L 225.364157 126.511286 
L 225.461563 126.626158 
L 225.623906 126.40215 
L 225.753781 126.511286 
L 226.597967 126.40215 
L 226.630436 116.696149 
L 226.727842 116.871581 
L 226.857717 116.871581 
L 226.987592 126.595533 
L 227.020061 126.595533 
L 227.084998 116.871581 
L 227.149935 117.083341 
L 227.182404 117.083341 
L 227.214873 116.871581 
L 227.247341 117.083341 
L 227.344748 116.696149 
L 227.377216 126.486604 
L 227.507091 116.549496 
L 227.572028 116.696149 
L 227.604497 116.549496 
L 227.636966 116.549496 
L 227.766841 126.383039 
L 227.896715 116.549496 
L 228.02659 126.383039 
L 228.156465 126.298417 
L 228.28634 116.549496 
L 228.318809 116.549496 
L 228.416215 126.383039 
L 228.448683 126.19978 
L 228.513621 126.19978 
L 228.54609 126.383039 
L 228.611027 126.284534 
L 228.740902 116.425971 
L 228.805839 116.321272 
L 228.870777 126.284534 
L 228.903245 116.425971 
L 228.968183 126.19978 
L 229.098057 126.105955 
L 229.130526 126.105955 
L 229.260401 126.284534 
L 229.455213 126.190809 
L 229.552619 116.425971 
L 229.585088 116.549496 
L 229.617557 116.425971 
L 229.650025 126.284534 
L 229.714963 116.549496 
L 229.844838 116.425971 
L 229.909775 116.425971 
L 229.942244 126.190809 
L 230.03965 126.016683 
L 230.169525 126.016683 
L 230.201993 126.190809 
L 230.331868 116.232076 
L 230.396805 126.101609 
L 230.461743 126.016683 
L 230.52668 126.101609 
L 230.559149 116.232076 
L 230.624086 126.101609 
L 230.721493 126.101609 
L 230.78643 116.155782 
L 230.851367 116.321272 
L 231.013711 116.155782 
L 231.143586 116.232076 
L 231.370867 116.155782 
L 231.435804 116.090326 
L 231.468273 116.155782 
L 231.500741 125.93585 
L 231.53321 116.090326 
L 231.598147 125.773872 
L 231.728022 125.858871 
L 231.760491 116.034059 
L 231.825428 125.773872 
L 231.890366 125.700587 
L 231.922834 125.858871 
L 232.052709 116.034059 
L 232.182584 116.034059 
L 232.27999 115.985644 
L 232.312459 125.785571 
L 232.442334 115.985644 
L 232.53974 115.943993 
L 232.572208 125.785571 
L 232.637146 115.985644 
L 233.870957 115.877548 
L 233.968363 115.851393 
L 234.065769 109.958439 
L 234.098237 110.283775 
L 234.130706 109.958439 
L 234.163175 110.283775 
L 234.487862 111.480722 
L 234.585268 111.480722 
L 234.715143 120.87365 
L 235.007361 120.87365 
L 235.137236 119.793847 
L 235.332048 119.77135 
L 235.396986 119.963503 
L 235.494392 120.320798 
L 235.52686 111.480722 
L 236.53339 111.48072 
L 236.923014 109.126924 
L 236.987952 108.92816 
L 237.052889 116.155782 
L 237.085358 116.034059 
L 237.117827 116.321272 
L 237.150295 116.232076 
L 237.215233 116.321272 
L 237.28017 116.549496 
L 237.312639 116.425971 
L 237.345108 116.321272 
L 237.377576 116.425971 
L 237.442514 116.321272 
L 237.474982 116.549496 
L 237.604857 116.155782 
L 237.767201 116.696149 
L 237.929544 114.247887 
L 237.962013 115.789996 
L 238.02695 115.327282 
L 238.124356 113.550535 
L 238.156825 114.247887 
L 238.254231 112.087734 
L 238.2867 113.550535 
L 238.319169 113.949565 
L 238.449043 155.597069 
L 238.54645 113.949565 
L 238.676324 152.953532 
L 238.741262 152.953532 
L 238.806199 154.59404 
L 238.871137 148.97868 
L 238.903605 150.562923 
L 239.065949 141.697601 
L 239.130886 143.177418 
L 239.163355 138.352201 
L 239.228292 143.177418 
L 239.260761 143.177418 
L 239.29323 138.352201 
L 239.358167 143.177418 
L 239.390636 143.177418 
L 239.552979 133.869869 
L 239.682854 133.869869 
L 239.812729 138.352201 
L 239.910135 138.352201 
L 239.942604 133.869869 
L 240.007541 138.352201 
L 240.04001 138.352201 
L 240.202353 129.691009 
L 240.234822 129.691009 
L 240.267291 125.782096 
L 240.299759 133.869869 
L 240.332228 133.869869 
L 240.624446 110.150985 
L 240.754321 206.530796 
L 240.819259 208.700843 
L 240.884196 108.817786 
L 240.981602 131.318925 
L 241.014071 179.046805 
L 241.04654 127.247518 
L 241.079008 103.053112 
L 241.143946 131.318925 
L 241.176414 110.853001 
L 241.338758 157.442348 
L 241.371227 100.919892 
L 241.468633 107.799009 
L 241.501101 92.359771 
L 241.630976 141.317776 
L 241.663445 118.74177 
L 241.79332 193.979047 
L 241.923195 113.82945 
L 241.988132 127.48266 
L 242.020601 89.78967 
L 242.085538 188.913432 
L 242.150475 127.48266 
L 242.182944 89.523483 
L 242.247882 90.052466 
L 242.28035 126.328003 
L 242.345288 84.164341 
L 242.475162 124.212821 
L 242.572569 96.793637 
L 242.637506 123.256764 
L 242.669975 90.425825 
L 242.702443 95.155777 
L 242.767381 93.807331 
L 242.799849 93.139429 
L 242.897256 120.8405 
L 243.02713 120.207282 
L 243.059599 119.106214 
L 243.092068 119.677596 
L 243.124536 100.62092 
L 243.189474 119.268792 
L 243.254411 99.584162 
L 243.28688 73.382916 
L 243.384286 73.795413 
L 243.871317 53.568 
L 243.903785 53.721675 
L 243.936254 53.568 
L 244.001191 114.685084 
L 244.03366 89.969137 
L 244.066129 53.721675 
L 244.131066 90.774514 
L 244.163535 53.872803 
L 244.29341 114.97164 
L 244.358347 116.715092 
L 244.423285 89.184843 
L 244.455753 90.704476 
L 244.585628 114.97164 
L 244.618097 114.97164 
L 244.650565 91.742885 
L 244.715503 114.97164 
L 244.812909 116.715092 
L 244.910315 117.016384 
L 244.942784 114.97164 
L 244.975252 90.774514 
L 245.04019 116.715092 
L 245.072659 117.016384 
L 245.105127 116.715092 
L 245.137596 114.97164 
L 245.202533 117.016384 
L 245.299939 88.264449 
L 245.332408 114.97164 
L 245.397346 113.272733 
L 245.429814 60.980073 
L 245.462283 116.715092 
L 245.494752 115.574349 
L 245.52722 114.685084 
L 245.559689 116.715092 
L 245.624626 116.715092 
L 245.722033 113.865719 
L 245.754501 114.97164 
L 245.78697 114.97164 
L 245.851907 113.272733 
L 245.884376 90.043505 
L 245.949313 113.272733 
L 245.981782 113.865719 
L 246.014251 117.016384 
L 246.04672 113.564454 
L 246.079188 113.564454 
L 246.111657 90.847477 
L 246.176594 114.97164 
L 246.209063 114.97164 
L 246.241532 113.564454 
L 246.306469 116.217369 
L 246.338938 67.485584 
L 246.468813 114.97164 
L 246.566219 113.272733 
L 246.631156 114.97164 
L 246.663625 113.272733 
L 246.696094 85.987587 
L 246.761031 90.120956 
L 246.858437 114.97164 
L 246.890906 113.564454 
L 246.988312 69.968673 
L 247.053249 70.414891 
L 247.085718 70.414891 
L 247.215593 71.267506 
L 247.345468 71.267506 
L 247.507811 69.585857 
L 247.54028 70.008792 
L 247.572749 69.585857 
L 247.670155 68.793813 
L 247.702623 70.489385 
L 247.767561 69.628863 
L 247.864967 68.793813 
L 247.994842 69.628863 
L 248.157185 67.251525 
L 248.222123 66.902232 
L 248.254591 67.299089 
L 248.28706 67.251525 
L 248.351997 65.019941 
L 248.449403 65.072705 
L 248.481872 65.072705 
L 248.54681 65.873095 
L 248.579278 65.072705 
L 248.676684 64.49449 
L 248.709153 65.873095 
L 248.741622 63.704446 
L 248.77409 64.774044 
L 248.871497 62.724915 
L 248.903965 63.508126 
L 248.968903 63.508126 
L 249.098778 60.602168 
L 249.196184 62.724915 
L 249.228652 62.273433 
L 249.390996 59.454207 
L 249.455933 59.454207 
L 249.520871 58.690052 
L 249.585808 60.504643 
L 249.650745 61.373524 
L 249.683214 60.504643 
L 249.813089 58.664916 
L 249.845558 57.837229 
L 249.878026 58.856764 
L 249.942964 58.774221 
L 249.975432 59.743999 
L 250.105307 58.856764 
L 250.137776 60.433588 
L 250.202713 58.752326 
L 250.235182 58.856764 
L 250.267651 58.667176 
L 250.300119 58.667176 
L 250.365057 57.904382 
L 250.397526 58.752326 
L 250.429994 58.667176 
L 250.462463 57.128076 
L 250.559869 57.227297 
L 250.592338 57.265968 
L 250.722213 58.838015 
L 250.657275 56.446828 
L 250.754681 58.757805 
L 250.917025 56.55439 
L 251.0469 57.227297 
L 251.079368 57.265968 
L 251.111837 57.208577 
L 251.144306 56.54948 
L 251.176774 57.357874 
L 251.209243 57.357874 
L 251.663805 66.388922 
L 251.696274 64.727219 
L 251.761211 66.388922 
L 251.826148 66.08094 
L 251.891086 69.045306 
L 251.923555 68.666576 
L 252.085898 72.825108 
L 252.150835 73.818497 
L 252.183304 72.825108 
L 252.215773 72.825108 
L 252.410585 74.715947 
L 252.443054 73.818497 
L 252.54046 78.258587 
L 252.572929 77.309777 
L 252.605397 76.712867 
L 252.637866 78.258587 
L 252.670335 74.715947 
L 252.702803 74.715947 
L 252.865147 78.287668 
L 252.897616 78.918056 
L 252.962553 78.287668 
L 252.995022 78.287668 
L 253.02749 77.338052 
L 253.124896 76.77326 
L 253.157365 79.893188 
L 253.189834 78.946076 
L 253.222303 80.561015 
L 253.254771 79.893188 
L 253.319709 78.317235 
L 253.417115 83.0081 
L 253.611927 77.39605 
L 253.644396 81.281948 
L 253.709333 77.425813 
L 254.001551 86.700766 
L 254.066489 84.812231 
L 254.098958 84.812231 
L 254.29377 87.56319 
L 254.456113 85.624324 
L 254.553519 86.700766 
L 254.585988 84.812231 
L 254.650925 86.700766 
L 254.683394 86.700766 
L 254.748332 84.030653 
L 254.813269 84.812231 
L 254.878206 84.812231 
L 254.910675 85.624324 
L 255.008081 82.271961 
L 255.04055 84.030653 
L 255.170425 83.0081 
L 255.332768 84.812231 
L 255.365237 84.812231 
L 255.52758 82.271961 
L 255.624986 84.812231 
L 255.657455 84.030653 
L 255.689924 84.030653 
L 255.722393 85.624324 
L 255.754861 83.0081 
L 255.78733 84.030653 
L 255.917205 82.271961 
L 255.949674 83.0081 
L 256.014611 82.271961 
L 256.112017 79.922045 
L 256.144486 80.588429 
L 256.274361 81.281948 
L 256.306829 81.281948 
L 256.436704 78.347309 
L 256.469173 78.974655 
L 256.566579 78.974655 
L 256.631516 80.588429 
L 256.663985 79.922045 
L 256.728922 78.974655 
L 256.761391 79.922045 
L 256.79386 79.922045 
L 256.826328 78.347309 
L 256.923735 78.974655 
L 257.021141 78.974655 
L 257.151015 77.425813 
L 257.183484 78.347309 
L 257.215953 76.835417 
L 257.475702 73.984211 
L 257.573109 74.850906 
L 257.702983 72.133771 
L 257.800389 73.485604 
L 257.930264 71.648487 
L 257.995202 72.097116 
L 258.157545 69.12836 
L 258.384826 67.201011 
L 258.417295 64.727219 
L 258.482232 66.029687 
L 258.514701 65.977981 
L 258.54717 64.939183 
L 258.579638 66.291941 
L 258.644576 65.124935 
L 258.677044 65.873095 
L 258.709513 65.072705 
L 258.806919 63.584396 
L 258.839388 179.888208 
L 258.871857 64.249694 
L 258.936794 179.888208 
L 259.001731 179.888208 
L 259.0342 123.688627 
L 259.099138 179.888208 
L 259.29395 179.888208 
L 259.423825 122.008416 
L 259.456293 122.008416 
L 259.488762 122.839318 
L 259.553699 122.008416 
L 259.586168 122.008416 
L 259.618637 121.195377 
L 259.683574 122.008416 
L 259.716043 122.008416 
L 259.78098 121.195377 
L 259.813449 122.008416 
L 259.845918 122.008416 
L 259.975792 121.195377 
L 261.144666 121.195377 
L 261.274541 124.115379 
L 264.359067 124.115379 
L 264.488942 201.869655 
L 267.28125 201.869655 
L 267.411125 209.889107 
L 276.53483 209.889107 
L 276.664705 125.917897 
L 276.729642 125.917897 
L 276.762111 121.979981 
L 276.859517 123.614913 
L 278.353077 123.614913 
L 278.385546 121.979981 
L 278.450484 123.614913 
L 278.645296 123.614913 
L 278.807639 117.482518 
L 278.872577 117.482518 
L 278.937514 114.785807 
L 278.969983 116.106273 
L 279.002452 103.751392 
L 279.132326 171.477152 
L 279.359607 156.810163 
L 279.424545 156.810163 
L 279.586888 145.399131 
L 279.619357 145.399131 
L 279.684294 140.317522 
L 279.814169 124.932935 
L 280.138856 124.932935 
L 280.268731 121.332183 
L 280.3012 122.550868 
L 280.496012 121.332183 
L 280.560949 122.550868 
L 280.593418 120.959363 
L 280.625887 120.959363 
L 280.723293 121.721558 
L 280.918105 120.602913 
L 280.950574 120.602913 
L 281.015511 121.332183 
L 281.04798 120.959363 
L 281.080448 120.26268 
L 281.112917 120.959363 
L 281.242792 122.127704 
L 281.405135 120.26268 
L 281.697354 123.925435 
L 281.79476 122.127704 
L 281.957103 124.93293 
L 282.086978 122.99133 
L 282.216853 124.932935 
L 284.652006 124.93293 
L 284.976693 117.921012 
L 285.106567 117.195185 
L 285.171505 117.195185 
L 285.30138 119.008678 
L 285.820879 119.008678 
L 285.950754 97.177154 
L 286.015691 97.920983 
L 286.04816 97.470804 
L 286.53519 119.617146 
L 286.567659 119.617146 
L 286.600128 122.313638 
L 286.665065 119.617146 
L 286.730002 119.617146 
L 286.827409 122.313638 
L 286.924815 119.617146 
L 287.054689 122.313638 
L 287.152096 122.313638 
L 287.28197 125.199631 
L 287.411845 125.199631 
L 287.509251 122.313638 
L 287.639126 125.199631 
L 287.80147 125.199631 
L 287.931344 128.287684 
L 288.126157 128.287684 
L 288.256031 131.592226 
L 288.353438 131.592226 
L 288.483312 128.287684 
L 289.03528 128.287684 
L 289.165155 131.592226 
L 289.359967 131.592226 
L 289.392436 128.287684 
L 289.457373 131.592226 
L 289.619717 131.592226 
L 289.652186 128.287684 
L 289.717123 131.592226 
L 289.814529 131.592226 
L 289.944404 128.287684 
L 290.106747 128.287684 
L 290.171685 131.592226 
L 290.204154 128.287684 
L 290.236622 128.287684 
L 290.366497 131.592226 
L 290.561309 131.592226 
L 290.626247 135.129864 
L 290.658715 131.592226 
L 290.723653 131.592226 
L 290.853528 135.129864 
L 291.373027 135.129864 
L 291.502902 138.919768 
L 292.184744 138.919768 
L 292.217213 142.984167 
L 292.28215 138.919768 
L 292.347088 138.919768 
L 292.476963 142.984167 
L 292.5419 142.984167 
L 292.671775 115.356516 
L 295.626427 115.356516 
L 295.756301 117.103031 
L 300.529201 117.103031 
L 300.626607 130.671391 
L 300.724013 117.103031 
L 300.853888 130.671391 
L 304.620257 130.671391 
L 304.652726 129.037783 
L 304.717663 130.671391 
L 304.880007 130.671391 
L 304.912475 129.037783 
L 304.977413 130.671391 
L 305.04235 130.671391 
L 305.172225 129.037783 
L 305.3021 129.037783 
L 305.431974 130.671391 
L 306.406036 130.671391 
L 306.503442 129.037783 
L 306.633316 130.671391 
L 306.698254 130.671391 
L 306.763191 129.037783 
L 306.79566 130.671391 
L 306.893066 130.671391 
L 307.022941 129.037783 
L 307.509971 129.037783 
L 307.54244 130.671391 
L 307.607377 129.037783 
L 307.899596 129.037783 
L 307.932064 130.671391 
L 307.997002 129.037783 
L 308.386626 129.037783 
L 308.451564 69.232539 
L 308.516501 70.324909 
L 308.776251 78.215511 
L 308.971063 94.303817 
L 309.036 93.410431 
L 309.100938 98.922075 
L 309.133406 121.545147 
L 309.198344 101.831014 
L 309.652906 101.831014 
L 309.685374 121.545147 
L 309.750312 101.831014 
L 309.78278 101.831014 
L 309.912655 121.545147 
L 309.977593 121.545147 
L 310.107467 101.831014 
L 310.237342 101.831014 
L 310.367217 121.545147 
L 310.432154 121.545147 
L 310.562029 101.831014 
L 311.081529 101.831014 
L 311.211403 81.702108 
L 311.373747 81.702108 
L 311.53609 82.567244 
L 311.665965 82.567244 
L 311.763371 83.024625 
L 311.893246 129.037783 
L 311.990652 129.037783 
L 312.120527 99.568779 
L 318.451924 99.568779 
L 318.484392 112.780695 
L 318.54933 99.568779 
L 318.581799 99.568779 
L 318.711673 112.780695 
L 319.425985 112.780695 
L 319.55586 99.568779 
L 319.588328 99.568779 
L 319.718203 129.037783 
L 321.081889 129.037783 
L 321.211763 107.314195 
L 321.341638 107.314195 
L 321.471513 106.816584 
L 325.530101 106.816584 
L 325.659975 100.564494 
L 329.523751 100.564494 
L 329.653626 106.816584 
L 329.686094 100.564494 
L 329.751032 106.816584 
L 329.880907 106.816584 
L 329.978313 108.9449 
L 330.108188 100.564494 
L 330.238062 106.816584 
L 330.627687 106.816584 
L 330.692624 108.9449 
L 330.725093 106.816584 
L 331.341998 106.816584 
L 331.406936 108.9449 
L 331.439404 106.816584 
L 331.471873 106.816584 
L 331.504342 108.9449 
L 331.569279 106.816584 
L 331.79656 106.816584 
L 331.861497 108.9449 
L 331.893966 106.816584 
L 332.54334 106.816584 
L 332.673215 108.9449 
L 332.705684 108.9449 
L 332.835558 106.816584 
L 332.900496 106.816584 
L 333.030371 108.9449 
L 333.062839 108.9449 
L 333.192714 106.816584 
L 333.225183 106.816584 
L 333.257652 108.9449 
L 333.322589 106.816584 
L 335.627867 106.816584 
L 335.757742 100.564494 
L 336.30971 100.564494 
L 336.439584 102.693013 
L 336.472053 100.564494 
L 336.53699 102.693013 
L 336.601928 102.693013 
L 336.731803 100.564494 
L 336.959084 100.564494 
L 337.088958 102.693013 
L 398.487273 102.693013 
L 398.487273 102.693013 
" clip-path="url(#pe6754702ae)" style="fill: none; stroke: #1f77b4; stroke-width: 1.5; stroke-linecap: square"/>
   </g>
   <g id="patch_3">
    <path d="M 57.6 307.584 
L 57.6 41.472 
" style="fill: none; stroke: #000000; stroke-width: 0.8; stroke-linejoin: miter; stroke-linecap: square"/>
   </g>
   <g id="patch_4">
    <path d="M 414.72 307.584 
L 414.72 41.472 
" style="fill: none; stroke: #000000; stroke-width: 0.8; stroke-linejoin: miter; stroke-linecap: square"/>
   </g>
   <g id="patch_5">
    <path d="M 57.6 307.584 
L 414.72 307.584 
" style="fill: none; stroke: #000000; stroke-width: 0.8; stroke-linejoin: miter; stroke-linecap: square"/>
   </g>
   <g id="patch_6">
    <path d="M 57.6 41.472 
L 414.72 41.472 
" style="fill: none; stroke: #000000; stroke-width: 0.8; stroke-linejoin: miter; stroke-linecap: square"/>
   </g>
  </g>
 </g>
 <defs>
  <clipPath id="pe6754702ae">
   <rect x="57.6" y="41.472" width="357.12" height="266.112"/>
  </clipPath>
 </defs>
</svg>
