<?xml version="1.0" encoding="utf-8" standalone="no"?>
<!DOCTYPE svg PUBLIC "-//W3C//DTD SVG 1.1//EN"
  "http://www.w3.org/Graphics/SVG/1.1/DTD/svg11.dtd">
<svg xmlns:xlink="http://www.w3.org/1999/xlink" width="460.8pt" height="345.6pt" viewBox="0 0 460.8 345.6" xmlns="http://www.w3.org/2000/svg" version="1.1">
 <metadata>
  <rdf:RDF xmlns:dc="http://purl.org/dc/elements/1.1/" xmlns:cc="http://creativecommons.org/ns#" xmlns:rdf="http://www.w3.org/1999/02/22-rdf-syntax-ns#">
   <cc:Work>
    <dc:type rdf:resource="http://purl.org/dc/dcmitype/StillImage"/>
    <dc:date>2024-04-26T17:05:47.926070</dc:date>
    <dc:format>image/svg+xml</dc:format>
    <dc:creator>
     <cc:Agent>
      <dc:title>Matplotlib v3.8.2, https://matplotlib.org/</dc:title>
     </cc:Agent>
    </dc:creator>
   </cc:Work>
  </rdf:RDF>
 </metadata>
 <defs>
  <style type="text/css">*{stroke-linejoin: round; stroke-linecap: butt}</style>
 </defs>
 <g id="figure_1">
  <g id="patch_1">
   <path d="M 0 345.6 
L 460.8 345.6 
L 460.8 0 
L 0 0 
z
" style="fill: #ffffff"/>
  </g>
  <g id="axes_1">
   <g id="patch_2">
    <path d="M 57.6 307.584 
L 414.72 307.584 
L 414.72 41.472 
L 57.6 41.472 
z
" style="fill: #ffffff"/>
   </g>
   <g id="matplotlib.axis_1">
    <g id="xtick_1">
     <g id="line2d_1">
      <defs>
       <path id="mfc7f826eea" d="M 0 0 
L 0 3.5 
" style="stroke: #000000; stroke-width: 0.8"/>
      </defs>
      <g>
       <use xlink:href="#mfc7f826eea" x="73.832727" y="307.584" style="stroke: #000000; stroke-width: 0.8"/>
      </g>
     </g>
     <g id="text_1">
      <!-- 0 -->
      <g transform="translate(70.651477 322.182437) scale(0.1 -0.1)">
       <defs>
        <path id="DejaVuSans-30" d="M 2034 4250 
Q 1547 4250 1301 3770 
Q 1056 3291 1056 2328 
Q 1056 1369 1301 889 
Q 1547 409 2034 409 
Q 2525 409 2770 889 
Q 3016 1369 3016 2328 
Q 3016 3291 2770 3770 
Q 2525 4250 2034 4250 
z
M 2034 4750 
Q 2819 4750 3233 4129 
Q 3647 3509 3647 2328 
Q 3647 1150 3233 529 
Q 2819 -91 2034 -91 
Q 1250 -91 836 529 
Q 422 1150 422 2328 
Q 422 3509 836 4129 
Q 1250 4750 2034 4750 
z
" transform="scale(0.015625)"/>
       </defs>
       <use xlink:href="#DejaVuSans-30"/>
      </g>
     </g>
    </g>
    <g id="xtick_2">
     <g id="line2d_2">
      <g>
       <use xlink:href="#mfc7f826eea" x="138.77013" y="307.584" style="stroke: #000000; stroke-width: 0.8"/>
      </g>
     </g>
     <g id="text_2">
      <!-- 2000 -->
      <g transform="translate(126.04513 322.182437) scale(0.1 -0.1)">
       <defs>
        <path id="DejaVuSans-32" d="M 1228 531 
L 3431 531 
L 3431 0 
L 469 0 
L 469 531 
Q 828 903 1448 1529 
Q 2069 2156 2228 2338 
Q 2531 2678 2651 2914 
Q 2772 3150 2772 3378 
Q 2772 3750 2511 3984 
Q 2250 4219 1831 4219 
Q 1534 4219 1204 4116 
Q 875 4013 500 3803 
L 500 4441 
Q 881 4594 1212 4672 
Q 1544 4750 1819 4750 
Q 2544 4750 2975 4387 
Q 3406 4025 3406 3419 
Q 3406 3131 3298 2873 
Q 3191 2616 2906 2266 
Q 2828 2175 2409 1742 
Q 1991 1309 1228 531 
z
" transform="scale(0.015625)"/>
       </defs>
       <use xlink:href="#DejaVuSans-32"/>
       <use xlink:href="#DejaVuSans-30" x="63.623047"/>
       <use xlink:href="#DejaVuSans-30" x="127.246094"/>
       <use xlink:href="#DejaVuSans-30" x="190.869141"/>
      </g>
     </g>
    </g>
    <g id="xtick_3">
     <g id="line2d_3">
      <g>
       <use xlink:href="#mfc7f826eea" x="203.707533" y="307.584" style="stroke: #000000; stroke-width: 0.8"/>
      </g>
     </g>
     <g id="text_3">
      <!-- 4000 -->
      <g transform="translate(190.982533 322.182437) scale(0.1 -0.1)">
       <defs>
        <path id="DejaVuSans-34" d="M 2419 4116 
L 825 1625 
L 2419 1625 
L 2419 4116 
z
M 2253 4666 
L 3047 4666 
L 3047 1625 
L 3713 1625 
L 3713 1100 
L 3047 1100 
L 3047 0 
L 2419 0 
L 2419 1100 
L 313 1100 
L 313 1709 
L 2253 4666 
z
" transform="scale(0.015625)"/>
       </defs>
       <use xlink:href="#DejaVuSans-34"/>
       <use xlink:href="#DejaVuSans-30" x="63.623047"/>
       <use xlink:href="#DejaVuSans-30" x="127.246094"/>
       <use xlink:href="#DejaVuSans-30" x="190.869141"/>
      </g>
     </g>
    </g>
    <g id="xtick_4">
     <g id="line2d_4">
      <g>
       <use xlink:href="#mfc7f826eea" x="268.644936" y="307.584" style="stroke: #000000; stroke-width: 0.8"/>
      </g>
     </g>
     <g id="text_4">
      <!-- 6000 -->
      <g transform="translate(255.919936 322.182437) scale(0.1 -0.1)">
       <defs>
        <path id="DejaVuSans-36" d="M 2113 2584 
Q 1688 2584 1439 2293 
Q 1191 2003 1191 1497 
Q 1191 994 1439 701 
Q 1688 409 2113 409 
Q 2538 409 2786 701 
Q 3034 994 3034 1497 
Q 3034 2003 2786 2293 
Q 2538 2584 2113 2584 
z
M 3366 4563 
L 3366 3988 
Q 3128 4100 2886 4159 
Q 2644 4219 2406 4219 
Q 1781 4219 1451 3797 
Q 1122 3375 1075 2522 
Q 1259 2794 1537 2939 
Q 1816 3084 2150 3084 
Q 2853 3084 3261 2657 
Q 3669 2231 3669 1497 
Q 3669 778 3244 343 
Q 2819 -91 2113 -91 
Q 1303 -91 875 529 
Q 447 1150 447 2328 
Q 447 3434 972 4092 
Q 1497 4750 2381 4750 
Q 2619 4750 2861 4703 
Q 3103 4656 3366 4563 
z
" transform="scale(0.015625)"/>
       </defs>
       <use xlink:href="#DejaVuSans-36"/>
       <use xlink:href="#DejaVuSans-30" x="63.623047"/>
       <use xlink:href="#DejaVuSans-30" x="127.246094"/>
       <use xlink:href="#DejaVuSans-30" x="190.869141"/>
      </g>
     </g>
    </g>
    <g id="xtick_5">
     <g id="line2d_5">
      <g>
       <use xlink:href="#mfc7f826eea" x="333.582339" y="307.584" style="stroke: #000000; stroke-width: 0.8"/>
      </g>
     </g>
     <g id="text_5">
      <!-- 8000 -->
      <g transform="translate(320.857339 322.182437) scale(0.1 -0.1)">
       <defs>
        <path id="DejaVuSans-38" d="M 2034 2216 
Q 1584 2216 1326 1975 
Q 1069 1734 1069 1313 
Q 1069 891 1326 650 
Q 1584 409 2034 409 
Q 2484 409 2743 651 
Q 3003 894 3003 1313 
Q 3003 1734 2745 1975 
Q 2488 2216 2034 2216 
z
M 1403 2484 
Q 997 2584 770 2862 
Q 544 3141 544 3541 
Q 544 4100 942 4425 
Q 1341 4750 2034 4750 
Q 2731 4750 3128 4425 
Q 3525 4100 3525 3541 
Q 3525 3141 3298 2862 
Q 3072 2584 2669 2484 
Q 3125 2378 3379 2068 
Q 3634 1759 3634 1313 
Q 3634 634 3220 271 
Q 2806 -91 2034 -91 
Q 1263 -91 848 271 
Q 434 634 434 1313 
Q 434 1759 690 2068 
Q 947 2378 1403 2484 
z
M 1172 3481 
Q 1172 3119 1398 2916 
Q 1625 2713 2034 2713 
Q 2441 2713 2670 2916 
Q 2900 3119 2900 3481 
Q 2900 3844 2670 4047 
Q 2441 4250 2034 4250 
Q 1625 4250 1398 4047 
Q 1172 3844 1172 3481 
z
" transform="scale(0.015625)"/>
       </defs>
       <use xlink:href="#DejaVuSans-38"/>
       <use xlink:href="#DejaVuSans-30" x="63.623047"/>
       <use xlink:href="#DejaVuSans-30" x="127.246094"/>
       <use xlink:href="#DejaVuSans-30" x="190.869141"/>
      </g>
     </g>
    </g>
    <g id="xtick_6">
     <g id="line2d_6">
      <g>
       <use xlink:href="#mfc7f826eea" x="398.519741" y="307.584" style="stroke: #000000; stroke-width: 0.8"/>
      </g>
     </g>
     <g id="text_6">
      <!-- 10000 -->
      <g transform="translate(382.613491 322.182437) scale(0.1 -0.1)">
       <defs>
        <path id="DejaVuSans-31" d="M 794 531 
L 1825 531 
L 1825 4091 
L 703 3866 
L 703 4441 
L 1819 4666 
L 2450 4666 
L 2450 531 
L 3481 531 
L 3481 0 
L 794 0 
L 794 531 
z
" transform="scale(0.015625)"/>
       </defs>
       <use xlink:href="#DejaVuSans-31"/>
       <use xlink:href="#DejaVuSans-30" x="63.623047"/>
       <use xlink:href="#DejaVuSans-30" x="127.246094"/>
       <use xlink:href="#DejaVuSans-30" x="190.869141"/>
       <use xlink:href="#DejaVuSans-30" x="254.492188"/>
      </g>
     </g>
    </g>
   </g>
   <g id="matplotlib.axis_2">
    <g id="ytick_1">
     <g id="line2d_7">
      <defs>
       <path id="m8c5b11b2d5" d="M 0 0 
L -3.5 0 
" style="stroke: #000000; stroke-width: 0.8"/>
      </defs>
      <g>
       <use xlink:href="#m8c5b11b2d5" x="57.6" y="297.070402" style="stroke: #000000; stroke-width: 0.8"/>
      </g>
     </g>
     <g id="text_7">
      <!-- −150 -->
      <g transform="translate(23.132812 300.869621) scale(0.1 -0.1)">
       <defs>
        <path id="DejaVuSans-2212" d="M 678 2272 
L 4684 2272 
L 4684 1741 
L 678 1741 
L 678 2272 
z
" transform="scale(0.015625)"/>
        <path id="DejaVuSans-35" d="M 691 4666 
L 3169 4666 
L 3169 4134 
L 1269 4134 
L 1269 2991 
Q 1406 3038 1543 3061 
Q 1681 3084 1819 3084 
Q 2600 3084 3056 2656 
Q 3513 2228 3513 1497 
Q 3513 744 3044 326 
Q 2575 -91 1722 -91 
Q 1428 -91 1123 -41 
Q 819 9 494 109 
L 494 744 
Q 775 591 1075 516 
Q 1375 441 1709 441 
Q 2250 441 2565 725 
Q 2881 1009 2881 1497 
Q 2881 1984 2565 2268 
Q 2250 2553 1709 2553 
Q 1456 2553 1204 2497 
Q 953 2441 691 2322 
L 691 4666 
z
" transform="scale(0.015625)"/>
       </defs>
       <use xlink:href="#DejaVuSans-2212"/>
       <use xlink:href="#DejaVuSans-31" x="83.789062"/>
       <use xlink:href="#DejaVuSans-35" x="147.412109"/>
       <use xlink:href="#DejaVuSans-30" x="211.035156"/>
      </g>
     </g>
    </g>
    <g id="ytick_2">
     <g id="line2d_8">
      <g>
       <use xlink:href="#m8c5b11b2d5" x="57.6" y="239.588534" style="stroke: #000000; stroke-width: 0.8"/>
      </g>
     </g>
     <g id="text_8">
      <!-- −100 -->
      <g transform="translate(23.132812 243.387753) scale(0.1 -0.1)">
       <use xlink:href="#DejaVuSans-2212"/>
       <use xlink:href="#DejaVuSans-31" x="83.789062"/>
       <use xlink:href="#DejaVuSans-30" x="147.412109"/>
       <use xlink:href="#DejaVuSans-30" x="211.035156"/>
      </g>
     </g>
    </g>
    <g id="ytick_3">
     <g id="line2d_9">
      <g>
       <use xlink:href="#m8c5b11b2d5" x="57.6" y="182.106665" style="stroke: #000000; stroke-width: 0.8"/>
      </g>
     </g>
     <g id="text_9">
      <!-- −50 -->
      <g transform="translate(29.495313 185.905884) scale(0.1 -0.1)">
       <use xlink:href="#DejaVuSans-2212"/>
       <use xlink:href="#DejaVuSans-35" x="83.789062"/>
       <use xlink:href="#DejaVuSans-30" x="147.412109"/>
      </g>
     </g>
    </g>
    <g id="ytick_4">
     <g id="line2d_10">
      <g>
       <use xlink:href="#m8c5b11b2d5" x="57.6" y="124.624797" style="stroke: #000000; stroke-width: 0.8"/>
      </g>
     </g>
     <g id="text_10">
      <!-- 0 -->
      <g transform="translate(44.2375 128.424015) scale(0.1 -0.1)">
       <use xlink:href="#DejaVuSans-30"/>
      </g>
     </g>
    </g>
    <g id="ytick_5">
     <g id="line2d_11">
      <g>
       <use xlink:href="#m8c5b11b2d5" x="57.6" y="67.142928" style="stroke: #000000; stroke-width: 0.8"/>
      </g>
     </g>
     <g id="text_11">
      <!-- 50 -->
      <g transform="translate(37.875 70.942147) scale(0.1 -0.1)">
       <use xlink:href="#DejaVuSans-35"/>
       <use xlink:href="#DejaVuSans-30" x="63.623047"/>
      </g>
     </g>
    </g>
   </g>
   <g id="line2d_12">
    <path d="M 73.832727 114.635917 
L 73.865196 124.624797 
L 73.897665 73.59084 
L 73.962602 129.651232 
L 73.995071 89.89083 
L 74.060008 259.786721 
L 74.092477 120.798751 
L 74.189883 131.106187 
L 74.222352 290.662575 
L 74.287289 107.472301 
L 74.319758 110.159627 
L 74.352226 97.333714 
L 74.384695 123.409021 
L 74.417164 124.624797 
L 74.449633 119.792405 
L 74.482101 260.645322 
L 74.547039 125.057866 
L 74.579507 124.624797 
L 74.611976 109.754954 
L 74.644445 125.89266 
L 74.676914 124.624797 
L 74.709382 164.410575 
L 74.741851 103.493882 
L 74.77432 116.195673 
L 74.806788 123.409021 
L 74.839257 95.37472 
L 74.904194 116.68644 
L 74.936663 260.887368 
L 75.001601 124.624797 
L 75.034069 93.622464 
L 75.099007 124.624797 
L 75.163944 269.867407 
L 75.196413 93.24528 
L 75.228881 98.657904 
L 75.26135 83.86549 
L 75.326288 147.827838 
L 75.391225 124.887209 
L 75.423694 132.078571 
L 75.456162 121.851903 
L 75.488631 121.598044 
L 75.5211 78.292167 
L 75.586037 124.624797 
L 75.618506 124.624797 
L 75.650975 123.409021 
L 75.683443 224.161039 
L 75.748381 124.624797 
L 75.780849 113.261443 
L 75.813318 126.25261 
L 75.878255 124.624797 
L 75.910724 234.397383 
L 76.00813 112.196493 
L 76.040599 133.712707 
L 76.073068 248.451714 
L 76.105536 97.302704 
L 76.138005 82.833658 
L 76.235411 272.407401 
L 76.26788 108.11521 
L 76.300349 124.624797 
L 76.332817 291.2501 
L 76.397755 190.27927 
L 76.462692 123.409021 
L 76.495161 254.987576 
L 76.527629 112.602905 
L 76.592567 204.227174 
L 76.657504 120.933707 
L 76.722442 124.624797 
L 76.75491 128.656873 
L 76.787379 116.287352 
L 76.852317 117.709564 
L 76.884785 124.624797 
L 76.917254 85.948212 
L 76.982191 119.792405 
L 77.01466 119.196782 
L 77.047129 210.139654 
L 77.112066 124.624797 
L 77.144535 124.766152 
L 77.177004 98.043244 
L 77.241941 104.360113 
L 77.27441 123.409021 
L 77.306878 121.851903 
L 77.339347 295.488 
L 77.404284 114.160935 
L 77.436753 280.551828 
L 77.501691 105.501248 
L 77.566628 129.188201 
L 77.664034 66.718805 
L 77.696503 137.63225 
L 77.793909 129.406697 
L 77.826378 117.179012 
L 77.891315 124.624797 
L 77.923784 125.754881 
L 77.988721 124.624797 
L 78.118596 76.115273 
L 78.345877 290.463268 
L 78.378345 107.806767 
L 78.443283 231.428835 
L 78.475752 241.159872 
L 78.50822 110.08244 
L 78.573158 171.111473 
L 78.605626 244.18569 
L 78.703032 242.278261 
L 78.735501 152.093089 
L 78.832907 154.397172 
L 78.865376 153.264593 
L 78.897845 153.461192 
L 78.930313 123.819271 
L 78.962782 182.197559 
L 78.995251 133.584682 
L 79.092657 187.596367 
L 79.190063 84.456971 
L 79.255 88.439306 
L 79.352407 138.335193 
L 79.384875 128.917808 
L 79.449813 83.415171 
L 79.482281 83.609859 
L 79.547219 152.127305 
L 79.612156 120.505349 
L 79.709562 83.609859 
L 79.742031 85.347658 
L 79.7745 83.247888 
L 79.871906 143.073701 
L 79.904374 84.074482 
L 80.001781 89.259796 
L 80.066718 108.295113 
L 80.099187 144.434012 
L 80.131655 74.590974 
L 80.164124 123.39344 
L 80.26153 93.262757 
L 80.293999 93.486483 
L 80.326468 145.397351 
L 80.358936 91.852588 
L 80.423874 127.789915 
L 80.488811 81.976353 
L 80.553748 97.774907 
L 80.651155 85.321292 
L 80.683623 60.168647 
L 80.748561 93.429536 
L 80.910904 237.466223 
L 80.943373 111.917223 
L 81.00831 206.383277 
L 81.105716 134.653253 
L 81.138185 204.980613 
L 81.170654 125.173872 
L 81.203122 133.24069 
L 81.235591 138.56679 
L 81.300529 134.653253 
L 81.332997 207.753344 
L 81.397935 204.980613 
L 81.430403 112.854085 
L 81.52781 134.653253 
L 81.560278 134.653253 
L 81.592747 251.498404 
L 81.657684 133.24069 
L 81.690153 204.980613 
L 81.722622 133.24069 
L 81.820028 134.653253 
L 81.852497 237.466223 
L 81.917434 207.753344 
L 82.01484 133.93368 
L 82.144715 251.498404 
L 82.209652 112.854085 
L 82.27459 134.653253 
L 82.339527 250.426992 
L 82.404464 214.527381 
L 82.469402 133.93368 
L 82.501871 251.498404 
L 82.566808 133.24069 
L 82.599277 113.810646 
L 82.631745 204.980613 
L 82.696683 138.56679 
L 82.729151 133.93368 
L 82.76162 207.753344 
L 82.826558 204.980613 
L 82.859026 112.854085 
L 82.891495 207.753344 
L 82.923964 207.753344 
L 82.988901 214.325392 
L 83.02137 134.653253 
L 83.118776 212.909085 
L 83.151245 207.753344 
L 83.183713 204.980613 
L 83.216182 218.136983 
L 83.313588 133.93368 
L 83.346057 156.41745 
L 83.378525 131.276238 
L 83.410994 247.149134 
L 83.475932 222.579515 
L 83.670744 129.941176 
L 83.703213 218.973874 
L 83.800619 204.980613 
L 83.898025 134.653253 
L 83.930493 236.370991 
L 84.0279 207.753344 
L 84.060368 200.437571 
L 84.125306 210.436609 
L 84.190243 120.906894 
L 84.25518 212.909085 
L 84.320118 202.543328 
L 84.385055 135.188026 
L 84.417524 139.274932 
L 84.449993 255.360802 
L 84.482461 120.968246 
L 84.51493 143.44865 
L 84.547399 143.44865 
L 84.677274 200.437571 
L 84.742211 136.191422 
L 84.77468 168.082977 
L 84.807148 200.437571 
L 84.872086 183.188523 
L 84.904554 183.188523 
L 85.034429 154.66253 
L 85.066898 113.278297 
L 85.131835 127.709306 
L 85.196773 141.470498 
L 85.326648 88.051866 
L 85.52146 138.468368 
L 85.553928 81.197412 
L 85.586397 141.470498 
L 85.618866 138.468368 
L 85.813678 78.225561 
L 85.846147 95.858114 
L 85.911084 123.135206 
L 85.943553 96.387636 
L 85.976022 95.522779 
L 86.00849 139.078486 
L 86.073428 95.858114 
L 86.105896 82.778895 
L 86.138365 95.522779 
L 86.26824 139.078486 
L 86.333177 96.387636 
L 86.365646 97.474146 
L 86.398115 138.657991 
L 86.463052 95.522779 
L 86.495521 124.701783 
L 86.560458 143.348961 
L 86.625396 135.805855 
L 86.722802 97.461995 
L 86.75527 148.452002 
L 86.787739 95.522779 
L 86.820208 141.710421 
L 86.852677 97.74559 
L 86.917614 123.39344 
L 86.950083 125.976672 
L 86.982551 95.858114 
L 87.01502 140.216799 
L 87.047489 123.39344 
L 87.079957 121.802849 
L 87.112426 96.387636 
L 87.144895 112.613407 
L 87.177364 140.178253 
L 87.242301 111.567451 
L 87.27477 132.267218 
L 87.307238 78.276252 
L 87.404644 95.858114 
L 87.534519 153.308146 
L 87.664394 113.2519 
L 87.729331 111.567451 
L 87.7618 97.74559 
L 87.794269 124.701783 
L 87.859206 179.602885 
L 88.02155 174.76065 
L 88.054018 96.702701 
L 88.151425 113.2519 
L 88.183893 94.870227 
L 88.248831 160.548568 
L 88.313768 133.714292 
L 88.346237 110.797669 
L 88.378706 186.71881 
L 88.443643 146.20536 
L 88.476112 129.765459 
L 88.605986 191.453325 
L 88.670924 189.510886 
L 88.800799 233.165564 
L 88.865736 223.423886 
L 88.898205 209.871325 
L 88.930673 230.064019 
L 88.963142 234.256159 
L 88.995611 215.598909 
L 89.02808 236.84589 
L 89.060548 220.342768 
L 89.190423 242.192741 
L 89.222892 220.342768 
L 89.287829 235.606708 
L 89.320298 234.040167 
L 89.352767 245.092311 
L 89.417704 237.474364 
L 89.450173 234.040167 
L 89.482641 237.474364 
L 89.51511 241.950223 
L 89.547579 219.322384 
L 89.612516 235.606708 
L 89.644985 239.66222 
L 89.677454 216.583336 
L 89.742391 232.758608 
L 89.77486 242.192741 
L 89.872266 239.66222 
L 89.937203 242.192741 
L 89.969672 230.771872 
L 90.067078 233.165564 
L 90.099547 240.809617 
L 90.132015 220.342768 
L 90.164484 242.192741 
L 90.196953 242.192741 
L 90.229421 229.738127 
L 90.326828 232.758608 
L 90.424234 245.092311 
L 90.456702 239.66222 
L 90.52164 245.092311 
L 90.619046 234.040167 
L 90.651515 245.092311 
L 90.683983 221.490308 
L 90.716452 242.192741 
L 90.846327 216.583336 
L 90.943733 215.97876 
L 90.976202 245.092311 
L 91.106076 237.474364 
L 91.138545 237.474364 
L 91.203483 242.192741 
L 91.235951 231.748495 
L 91.300889 242.192741 
L 91.333357 225.367923 
L 91.398295 242.192741 
L 91.495701 231.748495 
L 91.52817 234.040167 
L 91.593107 239.66222 
L 91.625576 211.906269 
L 91.690513 245.092311 
L 91.787919 218.93185 
L 91.820388 235.606708 
L 91.885325 242.192741 
L 91.917794 234.040167 
L 91.982731 237.474364 
L 92.0152 242.192741 
L 92.047669 239.66222 
L 92.177544 232.758608 
L 92.307418 237.474364 
L 92.339887 245.092311 
L 92.372356 235.606708 
L 92.437293 242.192741 
L 92.534699 229.465461 
L 92.567168 242.192741 
L 92.632105 232.758608 
L 92.664574 229.738127 
L 92.697043 245.092311 
L 92.76198 239.66222 
L 92.794449 234.040167 
L 92.826918 237.474364 
L 92.859386 242.192741 
L 92.891855 237.474364 
L 92.956792 213.585473 
L 92.989261 226.537348 
L 93.119136 240.809617 
L 93.249011 232.758608 
L 93.313948 242.192741 
L 93.346417 235.606708 
L 93.411354 234.040167 
L 93.50876 242.192741 
L 93.638635 232.758608 
L 93.736041 245.092311 
L 93.833447 218.93185 
L 93.865916 239.66222 
L 93.995791 242.192741 
L 94.060728 242.192741 
L 94.223072 234.040167 
L 94.385415 242.192741 
L 94.417884 240.809617 
L 94.450353 232.758608 
L 94.51529 235.606708 
L 94.547759 242.192741 
L 94.612696 240.809617 
L 94.645165 234.040167 
L 94.710102 235.606708 
L 94.742571 245.092311 
L 94.77504 232.758608 
L 94.807508 240.809617 
L 94.904914 235.606708 
L 94.937383 240.809617 
L 95.002321 236.469255 
L 95.034789 235.606708 
L 95.067258 213.585473 
L 95.132195 230.064019 
L 95.229602 245.092311 
L 95.26207 237.474364 
L 95.294539 237.474364 
L 95.327008 239.66222 
L 95.424414 231.748495 
L 95.489351 242.192741 
L 95.52182 239.66222 
L 95.586757 231.748495 
L 95.619226 236.84589 
L 95.651695 242.192741 
L 95.684163 225.367923 
L 95.716632 245.092311 
L 95.749101 239.66222 
L 95.781569 245.092311 
L 95.814038 230.064019 
L 95.878976 245.092311 
L 95.976382 235.606708 
L 96.073788 242.192741 
L 96.106256 229.738127 
L 96.171194 231.748495 
L 96.333537 240.809617 
L 96.366006 235.606708 
L 96.463412 236.84589 
L 96.495881 245.092311 
L 96.52835 239.66222 
L 96.560818 216.715039 
L 96.593287 242.192741 
L 96.625756 235.606708 
L 96.658224 237.474364 
L 96.690693 236.84589 
L 96.723162 231.748495 
L 96.820568 232.758608 
L 96.853037 242.192741 
L 96.917974 235.606708 
L 96.950443 232.758608 
L 96.982911 235.606708 
L 97.01538 239.66222 
L 97.047849 234.040167 
L 97.080317 237.474364 
L 97.112786 236.84589 
L 97.145255 245.092311 
L 97.210192 237.474364 
L 97.242661 235.606708 
L 97.27513 239.66222 
L 97.307598 239.66222 
L 97.340067 235.606708 
L 97.405005 237.474364 
L 97.437473 240.809617 
L 97.469942 235.606708 
L 97.502411 236.84589 
L 97.534879 234.040167 
L 97.599817 245.092311 
L 97.664754 240.809617 
L 97.697223 219.322384 
L 97.76216 229.465461 
L 97.794629 229.738127 
L 97.892035 242.192741 
L 97.924504 235.606708 
L 97.956972 229.738127 
L 97.989441 237.474364 
L 98.054379 240.809617 
L 98.086847 235.606708 
L 98.184253 236.84589 
L 98.281659 237.474364 
L 98.411534 231.748495 
L 98.444003 236.84589 
L 98.476472 232.758608 
L 98.50894 219.322384 
L 98.541409 233.165564 
L 98.638815 242.192741 
L 98.671284 235.606708 
L 98.736221 242.192741 
L 98.76869 242.192741 
L 98.801159 240.809617 
L 98.833627 231.748495 
L 98.898565 234.040167 
L 98.963502 240.809617 
L 98.995971 235.606708 
L 99.060908 237.474364 
L 99.125846 231.748495 
L 99.158314 240.809617 
L 99.223252 236.84589 
L 99.288189 233.165564 
L 99.320658 234.040167 
L 99.483001 245.092311 
L 99.612876 232.758608 
L 99.645345 245.092311 
L 99.742751 242.192741 
L 99.807688 234.040167 
L 99.840157 245.092311 
L 99.872626 234.040167 
L 99.905095 225.367923 
L 99.937563 245.092311 
L 99.970032 232.758608 
L 100.002501 245.092311 
L 100.067438 232.758608 
L 100.099907 225.367923 
L 100.132375 239.66222 
L 100.294719 245.092311 
L 100.424594 235.606708 
L 100.489531 245.092311 
L 100.554469 225.367923 
L 100.586937 242.192741 
L 100.619406 245.092311 
L 100.684343 232.758608 
L 100.749281 235.606708 
L 100.814218 237.474364 
L 100.846687 235.606708 
L 100.879156 235.606708 
L 100.944093 237.474364 
L 101.00903 232.758608 
L 101.171374 242.192741 
L 101.203843 240.809617 
L 101.236311 231.748495 
L 101.333717 234.040167 
L 101.398655 237.474364 
L 101.431123 231.748495 
L 101.463592 245.092311 
L 101.496061 245.092311 
L 101.625936 234.040167 
L 101.75581 242.192741 
L 101.820748 234.040167 
L 101.853217 242.192741 
L 101.885685 240.809617 
L 101.918154 234.040167 
L 101.983091 236.84589 
L 102.01556 245.092311 
L 102.112966 242.192741 
L 102.210372 232.758608 
L 102.242841 245.092311 
L 102.307778 242.192741 
L 102.437653 235.606708 
L 102.470122 245.092311 
L 102.502591 232.758608 
L 102.567528 242.192741 
L 102.632465 242.192741 
L 102.664934 237.474364 
L 102.697403 242.192741 
L 102.729872 245.092311 
L 102.827278 234.040167 
L 102.924684 245.092311 
L 102.989621 239.66222 
L 103.02209 240.809617 
L 103.054559 242.192741 
L 103.087027 239.66222 
L 103.151965 229.738127 
L 103.184433 234.040167 
L 103.249371 245.092311 
L 103.314308 240.809617 
L 103.411714 242.192741 
L 103.476652 232.758608 
L 103.541589 245.092311 
L 103.574058 236.84589 
L 103.638995 242.192741 
L 103.736401 226.537348 
L 103.898745 245.092311 
L 104.02862 236.84589 
L 104.061088 235.606708 
L 104.093557 245.092311 
L 104.158494 232.758608 
L 104.190963 242.192741 
L 104.320838 219.322384 
L 104.385775 245.092311 
L 104.450713 239.66222 
L 104.483181 242.192741 
L 104.51565 232.758608 
L 104.580588 240.809617 
L 104.742931 231.748495 
L 104.872806 242.192741 
L 104.937743 232.758608 
L 105.002681 233.165564 
L 105.035149 240.809617 
L 105.100087 236.84589 
L 105.165024 237.474364 
L 105.197493 234.040167 
L 105.229962 239.66222 
L 105.294899 235.606708 
L 105.327368 235.606708 
L 105.359836 245.092311 
L 105.424774 233.165564 
L 105.489711 219.322384 
L 105.554649 226.537348 
L 105.684523 242.192741 
L 105.749461 236.84589 
L 105.846867 237.474364 
L 105.944273 245.092311 
L 106.00921 236.84589 
L 106.041679 245.092311 
L 106.204023 233.165564 
L 106.301429 242.192741 
L 106.431303 237.474364 
L 106.496241 235.606708 
L 106.561178 242.192741 
L 106.593647 232.758608 
L 106.658584 235.606708 
L 106.723522 236.84589 
L 106.755991 234.040167 
L 106.788459 237.474364 
L 106.820928 239.66222 
L 106.853397 231.748495 
L 106.918334 232.758608 
L 107.048209 245.092311 
L 107.080678 242.192741 
L 107.210552 232.758608 
L 107.243021 239.66222 
L 107.340427 237.474364 
L 107.372896 232.758608 
L 107.405365 239.66222 
L 107.502771 245.092311 
L 107.600177 239.66222 
L 107.632645 242.192741 
L 107.76252 232.758608 
L 107.794989 242.192741 
L 107.859926 231.748495 
L 107.924864 237.638033 
L 107.957332 220.932463 
L 107.989801 234.870979 
L 108.02227 218.649886 
L 108.054739 223.959515 
L 108.152145 233.808637 
L 108.217082 230.817477 
L 108.314488 213.406927 
L 108.444363 229.666908 
L 108.574238 220.536347 
L 108.606706 222.40049 
L 108.736581 230.911703 
L 108.801519 224.509123 
L 108.866456 207.881574 
L 108.898925 226.186541 
L 108.931394 224.509123 
L 108.963862 234.341091 
L 109.0288 228.736916 
L 109.158674 221.490515 
L 109.256081 234.341091 
L 109.385955 222.553069 
L 109.51583 231.354252 
L 109.645705 224.509123 
L 109.77558 234.341091 
L 109.840517 213.971343 
L 109.905455 222.857108 
L 109.937923 220.395805 
L 109.970392 224.509123 
L 110.035329 222.857108 
L 110.067798 231.354252 
L 110.132735 219.173115 
L 110.197673 234.341091 
L 110.26261 230.10403 
L 110.295079 231.354252 
L 110.327548 228.736916 
L 110.360016 230.10403 
L 110.424954 222.857108 
L 110.489891 228.736916 
L 110.52236 230.10403 
L 110.587297 231.354252 
L 110.684703 222.857108 
L 110.749641 221.490515 
L 110.847047 234.341091 
L 110.879516 234.341091 
L 110.976922 221.490515 
L 111.00939 231.354252 
L 111.139265 222.857108 
L 111.171734 224.509123 
L 111.334077 149.054108 
L 111.366546 216.677438 
L 111.431484 138.42201 
L 111.593827 122.03741 
L 111.626296 136.769225 
L 111.658764 132.392343 
L 111.691233 106.322727 
L 111.756171 129.293544 
L 111.821108 103.219884 
L 111.886045 123.816431 
L 111.950983 137.006508 
L 111.983451 136.654779 
L 112.048389 112.80496 
L 112.080858 116.258088 
L 112.113326 132.392343 
L 112.178264 119.921862 
L 112.210732 119.921862 
L 112.340607 153.186457 
L 112.470482 115.408236 
L 112.535419 136.302546 
L 112.567888 106.322727 
L 112.632825 140.115526 
L 112.697763 129.350292 
L 112.795169 123.816431 
L 112.827638 228.872167 
L 112.957512 103.262411 
L 113.02245 94.930212 
L 113.087387 234.474187 
L 113.184793 112.80496 
L 113.217262 137.006508 
L 113.249731 132.392343 
L 113.282199 137.006508 
L 113.347137 228.872167 
L 113.379606 127.964611 
L 113.412074 209.638583 
L 113.444543 224.646507 
L 113.50948 135.822171 
L 113.574418 159.604703 
L 113.834167 102.36386 
L 113.866636 147.500548 
L 113.931574 132.849326 
L 113.964042 127.819303 
L 113.996511 96.647284 
L 114.02898 222.995551 
L 114.093917 166.808002 
L 114.191323 84.550757 
L 114.256261 89.386248 
L 114.288729 137.736856 
L 114.353667 94.942171 
L 114.451073 106.677613 
L 114.483541 102.864412 
L 114.51601 163.755193 
L 114.580948 94.49582 
L 114.613416 95.979729 
L 114.710822 134.669048 
L 114.840697 97.720257 
L 114.873166 107.452584 
L 114.905635 221.63001 
L 114.970572 132.810878 
L 115.003041 136.699918 
L 115.035509 99.98247 
L 115.067978 121.621602 
L 115.132915 214.371421 
L 115.165384 109.301773 
L 115.197853 115.594411 
L 115.230322 114.919612 
L 115.26279 90.417086 
L 115.295259 125.606513 
L 115.360196 91.312964 
L 115.392665 94.540989 
L 115.457602 88.667039 
L 115.52254 160.147421 
L 115.652415 87.871041 
L 115.749821 153.075663 
L 115.879696 104.436772 
L 115.912164 97.39592 
L 115.944633 110.228378 
L 116.00957 146.671468 
L 116.042039 103.145574 
L 116.074508 128.0449 
L 116.139445 135.996921 
L 116.26932 84.093763 
L 116.301789 98.369968 
L 116.334257 165.609685 
L 116.399195 77.400012 
L 116.464132 159.604703 
L 116.496601 226.599017 
L 116.52907 107.54197 
L 116.561538 226.318501 
L 116.594007 98.957006 
L 116.658944 237.439727 
L 116.756351 100.762983 
L 116.788819 101.45516 
L 116.821288 139.253142 
L 116.886225 105.274305 
L 116.918694 101.090135 
L 116.951163 226.599017 
L 117.0161 104.703961 
L 117.145975 230.199386 
L 117.210912 95.182188 
L 117.27585 105.167862 
L 117.308318 236.075602 
L 117.340787 104.541796 
L 117.373256 111.089645 
L 117.405725 104.877321 
L 117.470662 107.665376 
L 117.503131 231.850209 
L 117.568068 103.827623 
L 117.665474 90.205169 
L 117.76288 111.089645 
L 117.795349 99.326316 
L 117.827818 107.47779 
L 117.860286 76.854706 
L 117.892755 116.197542 
L 117.925224 98.628011 
L 117.957692 102.462802 
L 117.990161 95.999626 
L 118.055099 102.332753 
L 118.152505 95.243041 
L 118.184973 90.42257 
L 118.217442 106.711272 
L 118.28238 100.189937 
L 118.314848 236.075602 
L 118.412254 94.827482 
L 118.444723 97.39592 
L 118.477192 89.912423 
L 118.50966 96.101979 
L 118.542129 107.037998 
L 118.574598 98.012505 
L 118.607067 79.937864 
L 118.672004 97.823651 
L 118.801879 238.691729 
L 118.834347 215.04554 
L 118.899285 81.691786 
L 118.931754 107.448941 
L 118.964222 215.04554 
L 118.996691 96.29588 
L 119.02916 107.281498 
L 119.061628 109.106339 
L 119.126566 168.401051 
L 119.191503 160.511302 
L 119.288909 160.851255 
L 119.386315 160.511302 
L 119.418784 160.851255 
L 119.451253 109.880037 
L 119.51619 160.511302 
L 119.548659 161.911484 
L 119.613596 161.197886 
L 119.743471 159.851145 
L 119.77594 160.851255 
L 119.808408 206.062884 
L 119.840877 159.851145 
L 119.873346 160.177955 
L 119.905815 159.530807 
L 119.938283 160.851255 
L 119.970752 159.851145 
L 120.035689 160.851255 
L 120.068158 160.177955 
L 120.165564 159.851145 
L 120.230502 159.530807 
L 120.295439 160.177955 
L 120.392845 159.851145 
L 120.490251 160.851255 
L 120.52272 160.177955 
L 120.620126 159.530807 
L 120.717532 160.851255 
L 120.750001 160.177955 
L 120.78247 160.177955 
L 120.847407 139.483822 
L 120.879876 159.851145 
L 120.944813 160.511302 
L 120.977282 158.529321 
L 121.042219 160.511302 
L 121.074688 161.197886 
L 121.107157 159.851145 
L 121.139625 159.530807 
L 121.172094 159.851145 
L 121.204563 160.511302 
L 121.237031 159.530807 
L 121.2695 159.530807 
L 121.301969 159.851145 
L 121.366906 145.348129 
L 121.399375 160.511302 
L 121.431844 160.511302 
L 121.464312 159.530807 
L 121.52925 145.348129 
L 121.561718 160.177955 
L 121.691593 159.530807 
L 121.724062 160.511302 
L 121.788999 159.530807 
L 121.821468 159.530807 
L 121.853937 159.851145 
L 121.886405 145.348129 
L 121.918874 206.062884 
L 121.951343 115.832284 
L 121.983811 159.851145 
L 122.113686 159.530807 
L 122.146155 119.367595 
L 122.211092 159.530807 
L 122.27603 159.851145 
L 122.308498 206.062884 
L 122.373436 159.530807 
L 122.470842 105.264516 
L 122.568248 159.851145 
L 122.600717 159.530807 
L 122.730592 159.530807 
L 122.795529 204.11171 
L 122.827998 159.530807 
L 122.957873 159.530807 
L 122.990341 204.11171 
L 123.055279 159.530807 
L 123.152685 159.530807 
L 123.185153 159.851145 
L 123.250091 159.530807 
L 123.28256 159.530807 
L 123.347497 204.11171 
L 123.379966 159.530807 
L 123.412434 159.530807 
L 123.50984 204.11171 
L 123.542309 161.597494 
L 123.607247 204.11171 
L 123.704653 161.597494 
L 123.737121 204.11171 
L 123.76959 166.733971 
L 123.866996 111.617038 
L 123.899465 121.870995 
L 124.02934 184.428425 
L 124.061808 111.663433 
L 124.126746 182.758848 
L 124.159214 161.597494 
L 124.224152 165.91422 
L 124.256621 176.177115 
L 124.289089 107.735345 
L 124.386495 109.849437 
L 124.418964 106.892578 
L 124.483901 182.390106 
L 124.548839 161.597494 
L 124.678714 107.622478 
L 124.711182 116.463549 
L 124.743651 180.556942 
L 124.77612 109.100741 
L 124.808588 109.790903 
L 124.841057 109.200881 
L 124.873526 104.242268 
L 124.905995 118.141884 
L 124.970932 99.869196 
L 125.003401 112.941869 
L 125.035869 102.983038 
L 125.068338 117.065058 
L 125.133276 174.519657 
L 125.165744 109.072468 
L 125.198213 161.597494 
L 125.295619 103.75675 
L 125.425494 183.974176 
L 125.457963 177.537696 
L 125.5229 183.974176 
L 125.587837 100.210213 
L 125.620306 177.537696 
L 125.652775 191.017429 
L 125.717712 177.537696 
L 125.750181 177.537696 
L 125.847587 171.622601 
L 125.880056 174.519657 
L 125.944993 100.85278 
L 125.977462 177.537696 
L 126.107337 171.622601 
L 126.139805 174.519657 
L 126.204743 171.622601 
L 126.367086 171.622601 
L 126.496961 177.537696 
L 126.561898 171.622601 
L 126.594367 194.798564 
L 126.691773 189.761797 
L 126.854117 104.242268 
L 126.951523 177.537696 
L 126.983991 171.622601 
L 127.113866 171.622601 
L 127.243741 177.537696 
L 127.27621 161.597494 
L 127.341147 183.974176 
L 127.471022 171.622601 
L 127.568428 174.519657 
L 127.600897 157.711127 
L 127.698303 161.597494 
L 127.76324 157.711127 
L 127.795709 161.597494 
L 127.828178 161.597494 
L 127.860646 172.610086 
L 127.893115 157.711127 
L 127.925584 157.711127 
L 127.958053 157.711127 
L 127.990521 182.064773 
L 128.055459 161.597494 
L 128.087927 161.597494 
L 128.217802 157.711127 
L 128.250271 157.711127 
L 128.28274 161.597494 
L 128.347677 157.711127 
L 128.704833 157.711127 
L 128.76977 161.597494 
L 128.802239 157.711127 
L 129.224332 157.711127 
L 129.386675 175.628181 
L 129.51655 157.711127 
L 129.873706 157.711127 
L 129.906175 159.604791 
L 129.971112 157.711127 
L 130.036049 157.711127 
L 130.068518 159.604791 
L 130.133456 157.711127 
L 130.230862 157.711127 
L 130.26333 159.604791 
L 130.328268 157.711127 
L 130.620486 157.711127 
L 130.652955 161.597494 
L 130.717892 159.604791 
L 130.847767 157.711127 
L 130.977642 157.711127 
L 131.075048 159.604791 
L 131.172454 157.711127 
L 131.26986 159.604791 
L 131.334797 157.711127 
L 131.367266 159.604791 
L 131.399735 159.604791 
L 131.497141 157.711127 
L 131.562078 159.604791 
L 131.594547 186.517574 
L 131.627016 157.711127 
L 131.659484 159.604791 
L 131.789359 157.711127 
L 131.821828 157.711127 
L 131.854297 130.417444 
L 131.919234 157.711127 
L 131.984172 157.711127 
L 132.01664 159.604791 
L 132.081578 157.711127 
L 132.146515 157.711127 
L 132.27639 159.604791 
L 132.308859 159.604791 
L 132.341327 161.597494 
L 132.406265 159.604791 
L 132.438733 157.711127 
L 132.568608 163.69754 
L 132.601077 159.604791 
L 132.633546 161.597494 
L 132.666014 170.740538 
L 132.730952 165.91422 
L 132.76342 165.91422 
L 132.828358 170.740538 
L 132.860826 163.69754 
L 132.893295 173.375223 
L 132.925764 173.375223 
L 132.958233 170.740538 
L 132.990701 176.177115 
L 133.02317 176.177115 
L 133.185513 182.353846 
L 133.250451 173.375223 
L 133.315388 179.163421 
L 133.5102 192.640306 
L 133.542669 191.746157 
L 133.76995 198.165858 
L 133.802419 195.733402 
L 133.899825 198.165858 
L 133.932294 184.212832 
L 133.964762 198.165858 
L 133.997231 178.034687 
L 134.094637 178.034687 
L 134.192043 181.064803 
L 134.321918 178.034687 
L 135.166104 178.034687 
L 135.198573 175.11483 
L 135.26351 178.034687 
L 135.458323 178.034687 
L 135.490791 175.11483 
L 135.555729 178.034687 
L 135.718072 178.034687 
L 135.750541 175.11483 
L 135.815478 178.034687 
L 135.912884 178.034687 
L 135.945353 176.215906 
L 136.01029 178.034687 
L 136.042759 178.034687 
L 136.075228 82.281113 
L 136.140165 178.034687 
L 136.172634 178.034687 
L 136.205103 110.495699 
L 136.27004 144.532145 
L 136.367446 179.893449 
L 136.399915 166.599413 
L 136.464852 178.034687 
L 136.497321 166.599413 
L 136.52979 164.740651 
L 136.562258 166.599413 
L 136.594727 139.452354 
L 136.659665 170.932468 
L 136.692133 150.113199 
L 136.724602 154.446315 
L 136.854477 82.281113 
L 136.822008 154.686211 
L 136.951883 98.915391 
L 136.984352 111.730252 
L 137.081758 110.161274 
L 137.114226 110.668566 
L 137.146695 110.161274 
L 137.179164 82.281113 
L 137.244101 110.668566 
L 137.341507 110.668566 
L 137.373976 110.161274 
L 137.406445 82.281113 
L 137.471382 110.668566 
L 137.536319 110.668566 
L 137.633726 82.281113 
L 137.731132 110.668566 
L 137.828538 82.281113 
L 137.958413 110.668566 
L 138.02335 82.281113 
L 138.055819 110.668566 
L 138.088287 110.668566 
L 138.120756 110.161274 
L 138.185693 110.668566 
L 138.250631 82.281113 
L 138.315568 82.281113 
L 138.348037 110.668566 
L 138.445443 100.03987 
L 138.477912 110.668566 
L 138.51038 82.281113 
L 138.575318 87.689786 
L 138.705193 203.310254 
L 138.737661 110.668566 
L 138.802599 203.310254 
L 138.835068 186.558685 
L 138.867536 107.182914 
L 138.964942 110.161274 
L 139.062348 203.310254 
L 139.094817 110.668566 
L 139.159755 203.310254 
L 139.192223 203.310254 
L 139.257161 110.668566 
L 139.289629 203.310254 
L 139.322098 203.310254 
L 139.354567 110.668566 
L 139.419504 203.310254 
L 139.549379 203.310254 
L 139.581848 89.41137 
L 139.679254 98.915391 
L 139.744191 141.258408 
L 139.809129 203.310254 
L 139.874066 92.313087 
L 139.906535 203.310254 
L 139.971472 139.418642 
L 140.101347 93.001213 
L 140.133816 96.167679 
L 140.198753 92.155102 
L 140.231222 110.668566 
L 140.328628 93.001213 
L 140.361096 98.915391 
L 140.393565 110.668566 
L 140.426034 92.155102 
L 140.458503 92.155102 
L 140.52344 84.723441 
L 140.588377 110.668566 
L 140.653315 68.30693 
L 140.78319 72.558624 
L 140.880596 70.390424 
L 140.913064 110.668566 
L 140.945533 98.915391 
L 141.010471 110.668566 
L 141.042939 110.668566 
L 141.107877 111.730252 
L 141.172814 98.915391 
L 141.205283 92.965386 
L 141.237751 110.668566 
L 141.27022 98.915391 
L 141.302689 68.30693 
L 141.335158 110.668566 
L 141.367626 98.915391 
L 141.432564 110.668566 
L 141.465032 98.915391 
L 141.52997 98.915391 
L 141.562438 100.01585 
L 141.594907 112.85628 
L 141.627376 98.915391 
L 141.659845 100.01585 
L 141.692313 98.915391 
L 141.757251 111.730252 
L 141.789719 70.390424 
L 141.854657 98.915391 
L 141.887125 98.915391 
L 142.017 102.409885 
L 142.081938 94.924595 
L 142.179344 113.429955 
L 142.211812 109.774467 
L 142.27675 105.093992 
L 142.309219 109.774467 
L 142.406625 125.211137 
L 142.439093 115.319389 
L 142.504031 122.479309 
L 142.568968 119.957536 
L 142.828718 138.908615 
L 142.861186 134.98399 
L 142.893655 134.98399 
L 142.926124 125.211137 
L 142.958593 131.425384 
L 143.02353 153.596759 
L 143.055999 143.262528 
L 143.088467 96.894485 
L 143.120936 153.596759 
L 143.250811 166.928578 
L 143.28328 96.3431 
L 143.348217 166.928578 
L 143.380686 166.928578 
L 143.413154 159.807721 
L 143.478092 166.92851 
L 143.543029 96.3431 
L 143.575498 166.928578 
L 143.867716 166.928578 
L 143.900185 93.917421 
L 143.997591 96.3431 
L 144.127466 166.928578 
L 144.224872 166.928578 
L 144.257341 90.984578 
L 144.354747 91.524417 
L 144.484622 166.928578 
L 144.51709 166.928578 
L 144.614496 88.678275 
L 144.744371 166.928578 
L 144.809309 166.928578 
L 144.939183 93.016582 
L 144.971652 166.928578 
L 145.036589 164.249385 
L 145.166464 93.016582 
L 145.198933 166.928578 
L 145.26387 95.595908 
L 145.328808 166.928578 
L 145.361276 164.249385 
L 145.393745 97.056148 
L 145.491151 98.606194 
L 145.588557 169.712974 
L 145.621026 130.234194 
L 145.653495 94.759999 
L 145.685964 169.712974 
L 145.718432 128.036954 
L 145.78337 101.12542 
L 145.815838 130.756004 
L 145.848307 107.928246 
L 145.880776 169.712974 
L 145.913244 101.12542 
L 145.945713 104.633449 
L 146.010651 115.504526 
L 146.043119 90.653063 
L 146.075588 166.928578 
L 146.140525 107.527092 
L 146.172994 112.688298 
L 146.205463 99.005309 
L 146.237931 164.249385 
L 146.2704 91.826189 
L 146.335338 152.121705 
L 146.53015 96.3431 
L 146.562618 105.582103 
L 146.692493 169.712974 
L 146.724962 164.249385 
L 146.757431 117.449307 
L 146.822368 135.164707 
L 146.854837 159.530807 
L 146.887305 110.360004 
L 146.952243 152.121705 
L 147.01718 130.756004 
L 147.114586 115.504526 
L 147.179524 166.928578 
L 147.244461 159.530807 
L 147.27693 159.530807 
L 147.309399 131.501538 
L 147.374336 159.530807 
L 147.504211 159.530807 
L 147.536679 166.928578 
L 147.601617 159.530807 
L 147.731492 159.530807 
L 147.796429 166.928578 
L 147.861367 164.249385 
L 147.991241 159.530807 
L 148.056179 159.530807 
L 148.088647 166.928578 
L 148.153585 159.530807 
L 148.218522 159.530807 
L 148.348397 169.712974 
L 148.543209 159.530807 
L 148.575678 166.928578 
L 148.673084 164.249385 
L 148.738021 166.928578 
L 148.802959 159.530807 
L 148.900365 166.928578 
L 149.03024 159.530807 
L 149.095177 166.928578 
L 149.127646 159.530807 
L 149.160115 159.530807 
L 149.289989 166.928578 
L 149.322458 166.928578 
L 149.452333 159.530807 
L 149.549739 166.928578 
L 149.614676 169.712974 
L 149.647145 159.530807 
L 149.77702 166.928578 
L 149.906895 159.530807 
L 149.939363 159.530807 
L 149.971832 166.928578 
L 150.004301 159.530807 
L 150.036769 115.357087 
L 150.101707 159.530807 
L 150.199113 166.928578 
L 150.328988 159.530807 
L 150.361457 166.928578 
L 150.426394 159.530807 
L 150.458863 159.530807 
L 150.5238 166.928578 
L 150.556269 159.530807 
L 150.686144 159.530807 
L 150.78355 166.928578 
L 150.913424 159.530807 
L 150.945893 159.530807 
L 151.010831 166.928578 
L 151.043299 159.530807 
L 151.205643 159.530807 
L 151.238111 166.928578 
L 151.303049 159.530807 
L 151.367986 159.530807 
L 151.497861 166.928578 
L 151.627736 159.530807 
L 151.757611 159.530807 
L 151.790079 166.928578 
L 151.855017 159.530807 
L 153.933014 159.530807 
L 153.965482 172.610086 
L 154.03042 159.530807 
L 156.855197 159.530807 
L 156.887665 144.659236 
L 156.952603 159.530807 
L 157.179884 159.530807 
L 157.212353 146.642858 
L 157.27729 159.530807 
L 157.407165 159.530807 
L 157.439633 146.642858 
L 157.504571 159.530807 
L 158.251351 159.530807 
L 158.28382 196.908545 
L 158.348757 159.530807 
L 158.511101 159.530807 
L 158.608507 196.908545 
L 158.640975 159.530807 
L 158.705913 196.908545 
L 173.381766 196.908545 
L 173.414235 146.553215 
L 173.479172 181.990881 
L 173.609047 196.908545 
L 173.706453 196.908545 
L 173.738922 181.990881 
L 173.77139 72.580036 
L 173.836328 196.908545 
L 173.868796 196.908545 
L 173.901265 72.331206 
L 173.966202 196.908545 
L 173.998671 181.990881 
L 174.03114 196.908545 
L 174.096077 71.843873 
L 174.128546 181.990881 
L 174.161015 196.908545 
L 174.290889 88.934675 
L 174.388296 196.908545 
L 174.453233 181.990881 
L 174.51817 88.934675 
L 174.550639 146.553215 
L 174.648045 181.990881 
L 174.77792 88.934675 
L 174.940263 181.990881 
L 175.135076 181.990881 
L 175.167544 146.553215 
L 175.232482 181.990881 
L 176.076668 181.990881 
L 176.141605 155.923338 
L 176.174074 176.155602 
L 176.206543 181.990881 
L 176.368886 147.318583 
L 176.401355 155.923338 
L 176.433824 139.51544 
L 176.466292 147.318583 
L 176.498761 139.51544 
L 176.53123 165.474605 
L 176.563699 104.306527 
L 176.661105 155.923338 
L 176.693573 139.51544 
L 176.726042 91.590299 
L 176.790979 150.490375 
L 176.953323 192.163215 
L 177.01826 181.990881 
L 177.083198 183.794623 
L 177.148135 187.727983 
L 177.180604 183.794623 
L 177.310479 185.703916 
L 177.440353 183.794623 
L 177.570228 187.727983 
L 177.602697 181.990881 
L 177.635166 189.877188 
L 177.667634 187.727983 
L 177.765041 187.727983 
L 177.894915 185.703916 
L 177.927384 187.727983 
L 178.057259 196.908545 
L 181.044379 196.908545 
L 181.141785 102.177761 
L 181.174254 196.908545 
L 181.239192 102.177761 
L 181.304129 102.177761 
L 181.336598 196.908545 
L 181.401535 102.177761 
L 183.317188 102.177761 
L 183.447063 159.530807 
L 189.745991 159.530807 
L 189.77846 106.08892 
L 189.843397 159.530807 
L 189.875866 159.530807 
L 190.005741 166.733971 
L 190.03821 106.08892 
L 190.103147 159.530807 
L 190.233022 166.733971 
L 190.330428 159.530807 
L 190.427834 166.733971 
L 190.52524 106.08892 
L 190.557709 106.794614 
L 190.622646 107.156478 
L 190.687584 106.438786 
L 190.78499 107.156478 
L 190.849927 106.08892 
L 190.882396 106.438786 
L 190.947333 107.156478 
L 190.979802 106.438786 
L 191.012271 106.438786 
L 191.044739 106.08892 
L 191.109677 166.733971 
L 191.174614 159.530807 
L 192.0188 159.530807 
L 192.051269 106.680899 
L 192.116207 159.530807 
L 192.181144 159.530807 
L 192.213613 107.864214 
L 192.27855 159.530807 
L 200.720412 159.530807 
L 200.850287 158.512421 
L 200.882756 159.530807 
L 200.947693 158.512421 
L 201.012631 158.512421 
L 201.142506 159.530807 
L 201.27238 158.512421 
L 201.369786 142.916337 
L 201.402255 196.908545 
L 201.467193 145.526806 
L 201.499661 145.526806 
L 201.564599 151.069221 
L 201.597067 142.321169 
L 201.662005 146.642858 
L 201.694473 164.430994 
L 201.759411 145.526806 
L 201.824348 139.555499 
L 201.856817 146.642858 
L 201.986692 168.105506 
L 202.116567 130.170652 
L 202.149035 138.125267 
L 202.213973 138.125267 
L 202.343847 147.753269 
L 202.376316 220.034238 
L 202.441254 144.324851 
L 202.506191 143.298628 
L 202.571128 149.795642 
L 202.668534 142.252904 
L 202.701003 143.298628 
L 202.830878 140.289363 
L 202.928284 84.932249 
L 202.960753 89.100309 
L 202.993222 89.100309 
L 203.123096 86.984152 
L 203.155565 86.984152 
L 203.188034 91.284674 
L 203.252971 86.984152 
L 203.28544 84.932249 
L 203.350377 86.984152 
L 203.382846 86.984152 
L 203.512721 93.468953 
L 203.545189 93.468953 
L 203.740002 103.355285 
L 203.77247 100.747577 
L 203.837408 103.355285 
L 203.934814 103.355285 
L 204.259501 121.421858 
L 204.454313 126.743667 
L 205.428374 126.743667 
L 205.558249 290.56366 
L 205.753061 290.56366 
L 205.882936 130.835894 
L 206.012811 130.835894 
L 206.142686 155.399246 
L 206.305029 147.753269 
L 206.337498 147.753269 
L 206.564779 135.311714 
L 206.694653 138.125267 
L 206.727122 138.125267 
L 206.79206 132.665207 
L 206.824528 135.311714 
L 206.954403 245.342909 
L 207.214153 245.342909 
L 207.246621 143.491849 
L 207.344027 147.202969 
L 207.376496 147.202969 
L 207.506371 143.521675 
L 207.571308 143.521675 
L 207.668715 140.093257 
L 207.701183 143.521675 
L 207.766121 140.093257 
L 208.02587 140.093257 
L 208.123276 136.891483 
L 208.155745 140.093257 
L 208.220682 136.891483 
L 208.415495 136.891483 
L 208.545369 133.893673 
L 208.642776 133.893673 
L 208.77265 131.08012 
L 208.934994 131.08012 
L 209.064869 128.433613 
L 209.162275 249.957744 
L 209.194743 150.647091 
L 209.259681 150.647091 
L 209.324618 148.173106 
L 209.357087 195.079764 
L 209.389556 129.008063 
L 209.422024 190.806674 
L 209.51943 128.552519 
L 209.551899 129.008063 
L 209.584368 148.173106 
L 209.681774 145.838064 
L 209.714243 154.896695 
L 209.746711 145.838064 
L 209.77918 129.008063 
L 209.844118 145.838064 
L 209.909055 145.838064 
L 209.973992 128.552519 
L 210.006461 143.630213 
L 210.03893 145.838064 
L 210.071398 141.53912 
L 210.168805 121.354151 
L 210.201273 141.53912 
L 210.233742 119.241606 
L 210.266211 119.241606 
L 211.629896 119.241606 
L 211.662365 141.53912 
L 211.727302 119.241606 
L 211.759771 119.241606 
L 211.889646 141.53912 
L 212.084458 141.53912 
L 212.214333 119.241606 
L 212.246801 119.241606 
L 212.376676 141.53912 
L 213.967643 141.53912 
L 214.097517 119.241606 
L 214.194923 141.53912 
L 214.324798 119.241606 
L 215.883296 119.241606 
L 216.013171 75.076653 
L 216.662545 75.076653 
L 216.727482 76.088437 
L 216.759951 75.076653 
L 216.79242 75.076653 
L 216.857357 77.156883 
L 216.922294 76.088437 
L 216.954763 76.088437 
L 217.084638 78.285659 
L 217.117107 74.35006 
L 217.182044 78.285659 
L 217.246981 78.285659 
L 217.27945 77.156883 
L 217.344388 78.285659 
L 217.409325 78.285659 
L 217.474262 79.478903 
L 217.506731 78.285659 
L 217.604137 73.866319 
L 217.669075 78.285659 
L 217.701543 73.866319 
L 217.734012 74.183026 
L 217.766481 75.738947 
L 217.798949 73.43435 
L 217.831418 74.183026 
L 217.961293 73.43435 
L 218.02623 73.30178 
L 218.091168 80.621767 
L 218.253511 72.828223 
L 218.28598 74.460031 
L 218.318449 72.092638 
L 218.350917 70.909865 
L 218.383386 72.53235 
L 218.415855 72.444989 
L 218.448323 72.53235 
L 218.513261 71.948955 
L 218.578198 72.363256 
L 218.610667 70.016887 
L 218.675604 72.53235 
L 218.77301 72.151839 
L 218.837948 72.216678 
L 218.870416 66.960519 
L 218.902885 72.62534 
L 218.935354 72.151839 
L 218.967823 72.039085 
L 219.000291 72.444989 
L 219.03276 72.151839 
L 219.065229 66.909897 
L 219.097697 72.53235 
L 219.130166 72.363256 
L 219.260041 71.856386 
L 219.29251 72.444989 
L 219.357447 72.039085 
L 219.389916 72.039085 
L 219.422384 71.912401 
L 219.487322 71.948955 
L 219.617197 72.828223 
L 219.682134 70.016887 
L 219.714603 72.216678 
L 219.812009 73.05368 
L 219.844478 72.216678 
L 219.909415 73.30178 
L 219.941884 66.691613 
L 220.006821 73.05368 
L 220.03929 72.938126 
L 220.071758 73.05368 
L 220.104227 69.198475 
L 220.136696 73.43435 
L 220.169165 73.43435 
L 220.201633 73.57262 
L 220.234102 71.621296 
L 220.266571 73.57262 
L 220.396445 74.96954 
L 220.461383 75.111586 
L 220.52632 73.30178 
L 220.591258 73.43435 
L 220.688664 72.938126 
L 220.721132 73.174894 
L 220.753601 73.30178 
L 220.78607 67.254986 
L 220.851007 73.43435 
L 220.883476 76.536037 
L 221.013351 67.254986 
L 221.045819 67.175288 
L 221.175694 75.111586 
L 221.2731 67.53531 
L 221.305569 73.716603 
L 221.338038 78.885354 
L 221.402975 73.716603 
L 221.500381 79.092075 
L 221.53285 143.584137 
L 221.597787 76.536037 
L 221.630256 67.295682 
L 221.695194 72.012555 
L 221.727662 73.866319 
L 221.760131 67.341242 
L 221.825068 73.866319 
L 221.857537 70.8212 
L 221.890006 73.57262 
L 221.922474 75.25953 
L 222.019881 70.8212 
L 222.084818 75.111586 
L 222.117287 66.941539 
L 222.182224 73.716603 
L 222.214693 73.716603 
L 222.247161 73.57262 
L 222.27963 70.8212 
L 222.312099 74.021786 
L 222.344568 74.021786 
L 222.441974 73.563696 
L 222.506911 67.705534 
L 222.636786 79.214576 
L 222.734192 75.25953 
L 222.766661 139.480158 
L 222.831598 68.976662 
L 222.896535 75.413391 
L 222.929004 74.183026 
L 222.961473 69.647671 
L 223.02641 74.021786 
L 223.058879 74.021786 
L 223.123816 67.401254 
L 223.188754 69.080854 
L 223.221222 143.146022 
L 223.28616 77.853564 
L 223.383566 68.236243 
L 223.513441 80.621767 
L 223.54591 80.621767 
L 223.578378 70.774523 
L 223.643316 80.621767 
L 223.708253 70.587906 
L 223.740722 80.621767 
L 223.77319 81.975523 
L 223.838128 70.774523 
L 223.870597 80.621767 
L 223.935534 79.343515 
L 223.968003 69.646181 
L 224.03294 78.135353 
L 224.195284 74.183026 
L 224.227752 74.183026 
L 224.260221 67.441522 
L 224.325158 76.682089 
L 224.357627 76.682089 
L 224.390096 76.992491 
L 224.422564 76.834234 
L 224.455033 76.474412 
L 224.487502 76.834234 
L 224.519971 78.135353 
L 224.552439 76.834234 
L 224.584908 70.774523 
L 224.617377 78.135353 
L 224.649845 143.584137 
L 224.714783 68.321909 
L 224.812189 76.992491 
L 224.844658 67.453257 
L 224.909595 67.618334 
L 225.03947 76.992491 
L 225.104407 76.992491 
L 225.169345 71.632102 
L 225.266751 74.522913 
L 225.299219 74.35006 
L 225.331688 74.701611 
L 225.396625 74.701611 
L 225.461563 74.35006 
L 225.494032 67.934885 
L 225.5265 74.886181 
L 225.591438 69.804144 
L 225.623906 70.665317 
L 225.753781 74.886181 
L 225.851187 74.886181 
L 225.883656 142.724904 
L 225.948593 68.60416 
L 226.078468 74.886181 
L 226.468093 74.886181 
L 226.500561 142.724904 
L 226.565499 74.886181 
L 229.065589 74.886181 
L 229.195464 74.522913 
L 229.227932 74.701611 
L 229.260401 74.522913 
L 229.390276 73.43435 
L 229.520151 72.216678 
L 229.617557 72.151839 
L 229.747431 71.912401 
L 229.7799 71.948955 
L 229.942244 71.856386 
L 229.974712 68.363059 
L 230.03965 71.856386 
L 230.169525 71.856386 
L 230.201993 67.723324 
L 230.234462 71.881539 
L 230.299399 68.376826 
L 230.429274 71.856386 
L 230.591618 71.856386 
L 230.624086 66.675723 
L 230.689024 71.856386 
L 230.753961 71.856386 
L 230.78643 70.381249 
L 230.851367 71.856386 
L 230.916305 71.856386 
L 231.013711 68.363059 
L 231.143586 71.881539 
L 231.208523 71.856386 
L 231.240992 69.950061 
L 231.27346 71.881539 
L 231.305929 71.856386 
L 231.370867 71.856386 
L 231.435804 66.559416 
L 231.468273 68.363059 
L 231.53321 71.881539 
L 231.630616 71.856386 
L 231.728022 71.856386 
L 231.79296 66.589412 
L 231.825428 66.894999 
L 231.890366 71.856386 
L 231.922834 66.894999 
L 231.955303 66.559416 
L 232.085178 71.856386 
L 232.215053 71.912401 
L 232.344928 67.712915 
L 232.474802 71.856386 
L 232.53974 71.856386 
L 232.572208 66.894999 
L 232.637146 71.856386 
L 232.669615 71.856386 
L 232.702083 73.727346 
L 232.767021 71.856386 
L 232.831958 71.856386 
L 232.961833 70.36015 
L 232.994302 70.36015 
L 233.02677 66.589412 
L 233.091708 71.881539 
L 233.156645 71.856386 
L 233.28652 66.675723 
L 233.383926 71.856386 
L 233.416395 69.921152 
L 233.448863 70.36015 
L 233.481332 66.675723 
L 233.513801 71.856386 
L 233.54627 67.178853 
L 233.676144 71.856386 
L 233.708613 77.736205 
L 233.741082 66.906556 
L 233.77355 71.881539 
L 233.838488 71.856386 
L 233.870957 66.559416 
L 233.935894 66.916968 
L 234.000831 66.583221 
L 234.0333 71.856386 
L 234.163175 66.559416 
L 234.29305 72.865175 
L 234.325518 72.056941 
L 234.357987 71.301953 
L 234.422924 71.856386 
L 234.487862 71.856386 
L 234.585268 66.675723 
L 234.617737 76.633732 
L 234.682674 71.856386 
L 234.747611 71.856386 
L 234.877486 66.533785 
L 234.942424 71.881539 
L 235.007361 71.856386 
L 235.03983 67.712915 
L 235.104767 71.856386 
L 235.137236 71.856386 
L 235.169705 68.363059 
L 235.202173 71.856386 
L 235.234642 77.736205 
L 235.299579 71.856386 
L 235.364517 71.856386 
L 235.396986 66.675723 
L 235.461923 71.881539 
L 235.494392 71.856386 
L 235.52686 77.736205 
L 235.559329 71.301953 
L 235.591798 66.719023 
L 235.689204 67.712915 
L 235.721673 66.894999 
L 235.819079 73.727346 
L 235.916485 66.675723 
L 236.013891 71.856386 
L 236.04636 66.719023 
L 236.143766 68.808672 
L 236.176234 67.501273 
L 236.208703 73.727346 
L 236.27364 66.894999 
L 236.306109 71.856386 
L 236.338578 66.916968 
L 236.403515 67.501273 
L 236.468453 71.856386 
L 236.500921 67.881612 
L 236.53339 66.719023 
L 236.565859 71.856386 
L 236.598327 66.583221 
L 236.630796 68.317894 
L 236.695734 66.559416 
L 236.760671 72.056941 
L 236.825608 71.301953 
L 236.858077 72.865175 
L 236.890546 70.599739 
L 236.923014 67.866213 
L 236.955483 74.644348 
L 237.020421 71.856386 
L 237.052889 137.472514 
L 237.085358 67.881612 
L 237.117827 68.808672 
L 237.182764 75.617271 
L 237.28017 66.589412 
L 237.377576 71.856386 
L 237.442514 66.719023 
L 237.474982 68.317894 
L 237.572389 75.617271 
L 237.669795 66.894999 
L 237.734732 78.885354 
L 237.767201 66.916968 
L 237.799669 67.712915 
L 237.832138 77.72529 
L 237.864607 67.178853 
L 237.897076 67.501273 
L 237.962013 66.675723 
L 237.994482 71.856386 
L 238.02695 75.617271 
L 238.059419 66.675723 
L 238.091888 66.916968 
L 238.124356 72.056941 
L 238.189294 66.719023 
L 238.254231 71.881539 
L 238.319169 68.317894 
L 238.351637 68.317894 
L 238.416575 66.894999 
L 238.481512 72.056941 
L 238.513981 66.589412 
L 238.676324 76.647399 
L 238.741262 66.533785 
L 238.806199 71.881539 
L 238.838668 76.647399 
L 238.871137 70.36015 
L 238.968543 66.533785 
L 239.001011 67.881612 
L 239.098417 72.865175 
L 239.130886 71.856386 
L 239.163355 66.533785 
L 239.260761 67.178853 
L 239.325698 66.677101 
L 239.358167 72.056941 
L 239.390636 66.899221 
L 239.423104 67.178853 
L 239.488042 94.116891 
L 239.520511 67.881612 
L 239.552979 67.501273 
L 239.650385 94.116891 
L 239.747792 66.533065 
L 239.715323 97.220325 
L 239.78026 69.352937 
L 239.812729 67.178853 
L 239.845198 133.443038 
L 239.910135 68.301222 
L 239.942604 104.067882 
L 240.007541 97.220325 
L 240.04001 69.921152 
L 240.137416 72.865175 
L 240.234822 68.317894 
L 240.332228 104.067882 
L 240.364697 102.268405 
L 240.429634 68.790937 
L 240.462103 73.727346 
L 240.494572 104.067882 
L 240.52704 67.881612 
L 240.559509 74.627467 
L 240.624446 71.881539 
L 240.656915 74.644348 
L 240.721853 97.220325 
L 240.754321 68.808672 
L 240.78679 72.865175 
L 240.884196 71.881539 
L 240.916665 72.056941 
L 241.014071 70.599739 
L 241.04654 98.847812 
L 241.079008 70.599739 
L 241.176414 71.856386 
L 241.27382 109.867561 
L 241.306289 74.627467 
L 241.371227 111.949001 
L 241.436164 118.711485 
L 241.501101 71.856386 
L 241.566039 111.949001 
L 241.630976 100.529488 
L 241.663445 102.268405 
L 241.695914 137.472514 
L 241.760851 92.635951 
L 241.858257 91.199175 
L 241.890726 107.863322 
L 241.988132 71.301953 
L 242.020601 76.647399 
L 242.182944 116.364899 
L 242.312819 72.056941 
L 242.442694 114.11286 
L 242.572569 68.782009 
L 242.702443 114.11286 
L 242.832318 92.148333 
L 243.936254 92.148333 
L 244.098597 92.808447 
L 244.131066 92.808447 
L 244.29341 93.545295 
L 244.390816 93.545295 
L 244.488222 97.968966 
L 244.553159 81.758295 
L 244.585628 94.358135 
L 244.715503 98.88945 
L 244.747972 99.376416 
L 244.78044 94.793018 
L 244.845378 98.88945 
L 244.910315 98.88945 
L 245.007721 94.358135 
L 245.137596 103.125827 
L 245.170065 92.575389 
L 245.267471 94.793018 
L 245.332408 103.125827 
L 245.364877 72.88416 
L 245.429814 87.416616 
L 245.462283 86.940508 
L 245.592158 72.88416 
L 245.624626 72.88416 
L 245.722033 74.582422 
L 245.754501 64.592786 
L 245.819439 73.999402 
L 245.884376 73.433415 
L 245.916845 80.520455 
L 245.981782 73.433415 
L 246.014251 73.433415 
L 246.176594 72.351367 
L 246.241532 72.351367 
L 246.338938 102.295521 
L 246.403875 97.535238 
L 246.501281 97.968966 
L 246.631156 97.535238 
L 246.663625 97.535238 
L 246.761031 97.119106 
L 246.890906 97.535238 
L 246.988312 97.535238 
L 247.020781 97.119106 
L 247.085718 97.535238 
L 247.118187 97.535238 
L 247.150655 97.968966 
L 247.215593 97.535238 
L 247.248062 97.119106 
L 247.312999 97.535238 
L 247.345468 97.535238 
L 247.475342 96.720559 
L 247.507811 97.119106 
L 247.572749 96.720559 
L 247.605217 96.720559 
L 247.637686 97.119106 
L 247.702623 96.720559 
L 247.800029 96.339625 
L 247.929904 96.720559 
L 247.962373 96.720559 
L 248.059779 96.339625 
L 248.189654 96.720559 
L 248.319529 96.720559 
L 248.384466 96.339625 
L 248.416935 96.720559 
L 248.514341 96.720559 
L 248.644216 97.119106 
L 248.839028 97.119106 
L 248.936434 97.535238 
L 249.066309 97.119106 
L 249.163715 97.119106 
L 249.228652 97.535238 
L 249.326058 96.720559 
L 249.455933 97.417419 
L 249.585808 97.119106 
L 249.618277 97.535238 
L 249.650745 97.119106 
L 249.748152 96.720559 
L 249.910495 97.535238 
L 250.04037 97.119106 
L 250.072839 97.119106 
L 250.105307 96.720559 
L 250.170245 97.119106 
L 250.332588 97.968966 
L 250.397526 97.968966 
L 250.5274 98.420341 
L 250.559869 98.420341 
L 250.754681 96.927732 
L 250.884556 97.366832 
L 250.917025 97.366832 
L 251.014431 96.506166 
L 251.0469 96.808325 
L 251.176774 96.927732 
L 251.209243 96.927732 
L 251.241712 97.366832 
L 251.306649 96.927732 
L 251.339118 96.927732 
L 251.468993 97.366832 
L 251.566399 97.366832 
L 251.696274 97.823528 
L 251.826148 97.823528 
L 251.956023 81.873668 
L 251.988492 82.573192 
L 252.020961 81.187531 
L 252.053429 81.187531 
L 252.28071 78.570496 
L 252.313179 78.570496 
L 252.345648 79.206234 
L 252.378116 77.946623 
L 252.410585 77.946623 
L 252.54046 77.334344 
L 252.572929 77.946623 
L 252.637866 77.334344 
L 252.800209 75.564466 
L 252.897616 76.733394 
L 252.930084 76.143517 
L 253.059959 74.996003 
L 253.092428 75.564466 
L 253.124896 74.996003 
L 253.157365 73.88992 
L 253.222303 74.996003 
L 253.28724 75.564466 
L 253.319709 74.437895 
L 253.449584 76.143517 
L 253.482052 75.564466 
L 253.644396 74.437895 
L 253.839208 74.437895 
L 253.904145 72.823507 
L 254.001551 73.351861 
L 254.066489 73.351861 
L 254.131426 73.88992 
L 254.163895 72.823507 
L 254.228832 73.88992 
L 254.261301 74.437895 
L 254.326238 73.88992 
L 254.358707 73.88992 
L 254.488582 72.823507 
L 254.585988 73.88992 
L 254.618457 73.351861 
L 254.650925 72.823507 
L 254.715863 73.351861 
L 254.813269 74.996003 
L 254.845738 73.88992 
L 254.878206 73.88992 
L 255.008081 72.823507 
L 255.04055 72.823507 
L 255.202893 71.795112 
L 258.060139 71.795112 
L 258.352357 92.608083 
L 258.449764 86.167169 
L 258.612107 100.840958 
L 260.365417 100.840958 
L 260.495292 103.975613 
L 260.560229 100.840958 
L 260.592698 103.975613 
L 260.657635 103.975613 
L 260.722573 100.840958 
L 260.755041 103.975613 
L 260.78751 103.975613 
L 260.917385 100.840958 
L 260.949854 103.975613 
L 261.014791 100.840958 
L 261.144666 100.840958 
L 261.274541 103.975613 
L 261.371947 103.975613 
L 261.436884 100.840958 
L 261.469353 103.975613 
L 261.53429 103.975613 
L 261.566759 100.840958 
L 261.599228 103.975613 
L 261.631696 107.581286 
L 261.664165 103.975613 
L 261.696634 100.840958 
L 261.761571 103.975613 
L 261.79404 103.975613 
L 261.923915 100.840958 
L 261.988852 100.840958 
L 262.118727 107.581286 
L 262.248602 100.840958 
L 262.28107 100.840958 
L 262.410945 107.581286 
L 262.670695 107.581286 
L 262.703163 100.840958 
L 262.768101 107.581286 
L 262.80057 111.011414 
L 262.833038 107.581286 
L 262.962913 100.840958 
L 262.995382 107.581286 
L 263.060319 100.840958 
L 263.125257 100.840958 
L 263.222663 107.581286 
L 263.352537 100.840958 
L 263.385006 100.840958 
L 263.417475 104.448278 
L 263.482412 100.840958 
L 272.606117 100.840958 
L 272.671055 74.973014 
L 272.703523 76.489041 
L 272.833398 100.840958 
L 272.963273 73.489523 
L 273.02821 73.489523 
L 273.060679 100.840958 
L 273.125617 74.973014 
L 273.190554 74.973014 
L 273.255491 73.489523 
L 273.28796 74.973014 
L 273.320429 76.991002 
L 273.352897 73.489523 
L 273.385366 74.973014 
L 273.417835 74.973014 
L 273.515241 73.489523 
L 273.677584 76.991002 
L 273.710053 74.973014 
L 273.742522 76.489041 
L 273.872397 78.555242 
L 274.03474 76.489041 
L 274.099678 80.15628 
L 274.132146 78.039282 
L 274.164615 76.489041 
L 274.197084 100.840958 
L 274.262021 78.039282 
L 274.29449 78.039282 
L 274.391896 82.913592 
L 274.424365 81.249617 
L 274.521771 76.489041 
L 274.554239 79.625513 
L 274.586708 81.249617 
L 274.619177 79.625513 
L 274.78152 76.489041 
L 274.846458 76.489041 
L 274.878926 78.039282 
L 274.943864 76.489041 
L 274.976333 76.489041 
L 275.04127 74.973014 
L 275.073739 76.489041 
L 275.106207 76.489041 
L 275.138676 74.973014 
L 275.203613 76.489041 
L 275.268551 76.489041 
L 275.333488 78.555242 
L 275.365957 74.973014 
L 275.495832 76.489041 
L 275.625707 76.489041 
L 275.755581 74.973014 
L 275.78805 74.973014 
L 275.820519 72.036982 
L 275.885456 74.973014 
L 276.015331 73.489523 
L 276.0478 73.489523 
L 276.145206 72.036982 
L 276.307549 74.973014 
L 276.372487 72.036982 
L 276.437424 73.489523 
L 276.53483 73.489523 
L 276.632236 72.036982 
L 276.664705 73.489523 
L 276.729642 72.036982 
L 276.827049 72.036982 
L 276.891986 74.973014 
L 276.924455 73.489523 
L 277.086798 70.613888 
L 277.216673 72.036982 
L 277.314079 70.613888 
L 277.476423 73.489523 
L 277.54136 73.489523 
L 277.606297 78.039282 
L 277.80111 105.099589 
L 277.930984 104.533188 
L 278.02839 95.547344 
L 278.093328 103.457522 
L 278.158265 102.947584 
L 278.255671 103.20026 
L 278.320609 102.699458 
L 278.353077 102.947584 
L 278.450484 102.947584 
L 278.482952 102.45585 
L 278.54789 102.699458 
L 279.067389 102.699458 
L 279.197264 102.947584 
L 279.262201 102.45585 
L 279.29467 102.947584 
L 279.392076 102.699458 
L 279.457013 97.35708 
L 279.521951 97.544522 
L 279.554419 97.544522 
L 279.716763 98.457467 
L 279.749232 98.663749 
L 279.879106 81.290542 
L 279.911575 85.207681 
L 279.944044 79.673528 
L 280.008981 73.106884 
L 280.04145 78.093792 
L 280.106387 80.770745 
L 280.138856 77.602702 
L 280.171325 79.168487 
L 280.268731 79.673528 
L 280.3012 71.235839 
L 280.333668 82.946777 
L 280.398606 72.224642 
L 280.431074 77.602702 
L 280.496012 74.573534 
L 280.560949 72.661666 
L 280.593418 74.116814 
L 280.723293 75.602748 
L 280.78823 75.602748 
L 280.853167 73.668605 
L 280.885636 76.648537 
L 280.950574 74.116814 
L 281.015511 70.809419 
L 281.080448 72.224642 
L 281.112917 72.224642 
L 281.210323 70.390747 
L 281.242792 71.795655 
L 281.340198 71.795655 
L 281.372667 75.142735 
L 281.437604 71.795655 
L 281.470073 71.795655 
L 281.502542 71.374553 
L 281.53501 72.373407 
L 281.567479 71.795655 
L 281.632416 71.374553 
L 281.697354 72.79706 
L 281.729822 72.79706 
L 281.762291 71.795655 
L 281.827229 72.79706 
L 281.924635 72.79706 
L 282.022041 72.373407 
L 282.054509 73.814053 
L 282.086978 72.373407 
L 282.151916 73.814053 
L 282.28179 73.814053 
L 282.346728 73.387725 
L 282.411665 74.847063 
L 282.54154 116.141974 
L 282.606477 74.847063 
L 282.638946 117.906865 
L 282.736352 117.906865 
L 282.768821 118.018378 
L 282.833758 119.928257 
L 282.866227 76.337073 
L 282.931164 106.212599 
L 282.963633 121.997915 
L 282.996102 73.814053 
L 283.093508 93.219471 
L 283.125977 95.834387 
L 283.158445 93.219471 
L 283.255851 113.17542 
L 283.28832 109.880037 
L 283.320789 109.880037 
L 283.353258 109.106339 
L 283.385726 110.276605 
L 283.418195 109.880037 
L 283.450664 110.276605 
L 283.483132 109.880037 
L 283.580538 108.729032 
L 283.613007 109.106339 
L 283.645476 108.729032 
L 283.677945 109.489978 
L 283.710413 110.276605 
L 283.775351 109.489978 
L 283.872757 108.357974 
L 283.905225 108.729032 
L 283.937694 109.106339 
L 283.970163 108.357974 
L 284.132506 107.281498 
L 284.229912 107.993084 
L 284.359787 107.281498 
L 285.333848 107.281498 
L 285.463723 108.357974 
L 285.593598 141.848941 
L 285.658535 137.838763 
L 285.755941 154.546307 
L 285.78841 150.066771 
L 285.820879 154.546307 
L 285.983222 164.377171 
L 286.080628 164.377171 
L 286.210503 164.155429 
L 286.242972 164.155429 
L 286.340378 157.335934 
L 286.372847 158.514486 
L 286.405315 162.117079 
L 286.437784 156.458104 
L 286.470253 158.514486 
L 286.502722 156.458104 
L 286.632596 163.518606 
L 286.762471 162.929588 
L 286.79494 153.086528 
L 286.924815 104.002473 
L 287.087158 103.683124 
L 287.119627 103.839843 
L 287.184564 103.683124 
L 287.217033 103.683124 
L 287.346908 103.532162 
L 287.379376 103.532162 
L 287.509251 103.386802 
L 287.639126 103.532162 
L 287.671595 103.532162 
L 287.80147 103.683124 
L 287.931344 103.683124 
L 288.061219 103.839843 
L 288.093688 103.839843 
L 288.126157 103.683124 
L 288.191094 103.839843 
L 288.320969 103.839843 
L 288.515781 104.346025 
L 288.710593 104.346025 
L 288.840468 104.5272 
L 288.872937 91.703738 
L 288.937874 104.5272 
L 288.970343 104.5272 
L 289.002812 104.714787 
L 289.132686 91.577692 
L 289.165155 92.131867 
L 289.262561 104.714787 
L 289.327499 92.131867 
L 289.359967 92.729177 
L 289.392436 104.714787 
L 289.457373 93.370618 
L 289.587248 94.057425 
L 289.717123 93.370618 
L 289.749592 94.057425 
L 289.78206 92.729177 
L 289.814529 92.863266 
L 289.976873 91.703738 
L 290.106747 92.115597 
L 290.431434 92.115597 
L 290.561309 92.932494 
L 290.78859 92.932494 
L 290.918465 94.375752 
L 291.145746 94.375752 
L 291.178215 96.908028 
L 291.243152 94.375752 
L 291.275621 94.375752 
L 291.405495 96.908028 
L 291.697714 96.908028 
L 291.827589 107.665937 
L 291.860057 101.687843 
L 291.924995 107.665937 
L 294.619897 107.665937 
L 294.749772 157.939227 
L 294.879647 107.665937 
L 294.944584 107.665937 
L 294.977053 152.308382 
L 295.04199 107.665937 
L 296.600488 107.665937 
L 296.632956 152.308382 
L 296.697894 107.665937 
L 297.217393 107.665937 
L 297.249862 108.63683 
L 297.28233 147.339362 
L 297.347268 108.63683 
L 297.509611 108.63683 
L 297.607017 109.66596 
L 297.704424 142.920799 
L 297.834298 110.756907 
L 297.996642 110.756907 
L 298.094048 111.913725 
L 298.158985 110.756907 
L 298.191454 111.913725 
L 298.28886 111.913725 
L 298.418735 110.756907 
L 298.808359 110.756907 
L 298.938234 111.913725 
L 299.262921 111.913725 
L 299.392796 113.141009 
L 299.490202 113.141009 
L 299.522671 111.913725 
L 299.587608 113.141009 
L 299.620077 113.141009 
L 299.717483 138.965555 
L 299.749952 138.860954 
L 299.912295 111.663631 
L 300.074639 114.77902 
L 300.236982 114.77902 
L 300.431794 124.247487 
L 300.496732 115.635607 
L 300.561669 122.332432 
L 300.691544 124.247487 
L 300.724013 124.247487 
L 300.983762 108.918724 
L 301.113637 108.918724 
L 301.146106 110.574047 
L 301.211043 108.918724 
L 301.340918 108.918724 
L 301.470793 99.499028 
L 301.503262 110.574047 
L 301.568199 99.499028 
L 301.600668 98.27262 
L 301.633136 102.178791 
L 301.730543 101.556651 
L 301.763011 101.556651 
L 301.827949 98.27262 
L 301.860417 101.252642 
L 301.892886 101.252642 
L 301.925355 101.556651 
L 301.990292 101.252642 
L 302.022761 101.252642 
L 302.152636 100.953257 
L 302.185104 93.343115 
L 302.250042 100.953257 
L 302.28251 100.953257 
L 302.314979 110.574047 
L 302.412385 165.136285 
L 302.444854 164.98432 
L 302.477323 164.98432 
L 302.574729 78.533599 
L 302.607197 100.953257 
L 302.672135 100.953257 
L 302.769541 86.577831 
L 302.80201 164.98432 
L 302.834478 164.98432 
L 302.964353 113.243432 
L 302.996822 113.243432 
L 303.029291 115.144489 
L 303.159165 164.98432 
L 303.28904 165.136285 
L 303.321509 164.98432 
L 303.386446 165.136285 
L 303.451384 165.136285 
L 303.483852 164.98432 
L 303.54879 165.136285 
L 303.678665 165.136285 
L 303.711133 158.708094 
L 303.808539 119.928257 
L 303.841008 127.110187 
L 303.873477 118.018378 
L 303.938414 124.321335 
L 304.003352 124.321335 
L 304.068289 121.754111 
L 304.100758 124.321335 
L 304.133226 127.110187 
L 304.165695 124.321335 
L 304.328039 113.455027 
L 304.392976 124.321335 
L 304.425445 113.455027 
L 304.457913 112.779523 
L 304.490382 113.455027 
L 304.620257 130.151432 
L 304.750132 112.333445 
L 304.847538 112.333445 
L 304.880007 130.151432 
L 304.944944 111.293433 
L 304.977413 111.293433 
L 305.009881 112.333445 
L 305.04235 111.700139 
L 305.172225 110.699849 
L 305.3021 110.699849 
L 305.431974 111.293433 
L 305.496912 111.293433 
L 305.659255 110.127283 
L 305.821599 109.238133 
L 305.951474 109.774072 
L 306.081348 109.774072 
L 306.146286 108.417806 
L 306.243692 108.721799 
L 306.373567 107.935629 
L 306.406036 108.417806 
L 306.438504 107.471937 
L 306.470973 107.935629 
L 306.665785 106.368419 
L 306.79566 106.782272 
L 306.828129 106.782272 
L 306.925535 105.770241 
L 306.958003 106.153342 
L 307.022941 105.070362 
L 307.05541 171.568277 
L 307.087878 104.193785 
L 307.120347 109.450975 
L 307.152816 109.450975 
L 307.28269 94.942204 
L 307.315159 94.942204 
L 307.347628 99.377021 
L 307.412565 94.942204 
L 307.574909 87.03189 
L 307.607377 90.840737 
L 307.639846 83.481272 
L 307.672315 87.03189 
L 307.737252 87.03189 
L 307.769721 83.481272 
L 307.834658 87.03189 
L 307.867127 87.03189 
L 307.997002 80.15963 
L 308.126877 83.481272 
L 308.28922 77.041924 
L 308.321689 77.041924 
L 308.354158 80.15963 
L 308.386626 74.106587 
L 308.419095 77.041924 
L 308.516501 74.106587 
L 308.646376 77.041924 
L 308.743782 77.041924 
L 308.776251 80.15963 
L 308.841188 77.041924 
L 308.873657 77.041924 
L 309.003532 74.106587 
L 309.100938 74.106587 
L 309.198344 71.334938 
L 309.29575 74.106587 
L 309.328219 71.334938 
L 309.393156 74.106587 
L 309.5555 74.106587 
L 309.620437 77.041924 
L 309.652906 74.106587 
L 309.717843 74.106587 
L 309.847718 77.041924 
L 309.912655 77.041924 
L 309.945124 100.780692 
L 310.04253 93.637595 
L 310.204874 87.177266 
L 310.334748 90.329722 
L 310.367217 90.329722 
L 310.497092 87.177266 
L 310.562029 87.177266 
L 310.691904 90.329722 
L 310.724373 84.167075 
L 310.78931 87.177266 
L 310.821779 90.329722 
L 310.854248 84.167075 
L 310.886716 81.287415 
L 310.951654 84.167075 
L 311.113997 84.167075 
L 311.211403 81.287415 
L 311.341278 84.167075 
L 311.373747 84.167075 
L 311.503622 81.287415 
L 311.665965 81.287415 
L 311.828309 75.878701 
L 311.925715 75.878701 
L 311.990652 78.527774 
L 312.023121 75.878701 
L 312.05559 75.878701 
L 312.088058 78.527774 
L 312.152996 75.878701 
L 312.217933 75.878701 
L 312.315339 78.527774 
L 312.477683 73.33167 
L 314.55568 73.33167 
L 314.685554 78.527774 
L 314.718023 75.878701 
L 314.78296 78.527774 
L 314.977773 93.637595 
L 315.140116 122.678644 
L 315.205054 153.750331 
L 315.237522 196.908545 
L 315.334928 196.576067 
L 315.464803 195.978647 
L 315.497272 53.568 
L 315.594678 56.658584 
L 315.724553 64.060842 
L 315.757022 70.838324 
L 315.854428 70.610538 
L 315.951834 70.838324 
L 315.984302 69.631697 
L 316.04924 70.838324 
L 316.114177 70.838324 
L 316.276521 73.674468 
L 316.373927 72.336689 
L 316.53627 76.959419 
L 316.568739 75.094448 
L 316.633676 76.959419 
L 316.698614 76.603571 
L 316.731083 76.776504 
L 316.893426 80.049698 
L 316.925895 80.188025 
L 316.958363 78.360968 
L 317.023301 80.049698 
L 317.185644 83.781979 
L 317.380457 83.781979 
L 317.5428 98.133158 
L 317.575269 98.095961 
L 317.80255 135.282966 
L 317.964893 141.070685 
L 317.997362 141.070685 
L 318.127237 144.260875 
L 318.159705 141.070685 
L 318.224643 144.260875 
L 318.257112 144.260875 
L 318.386986 147.677864 
L 318.419455 147.677864 
L 318.451924 151.34788 
L 318.484392 147.677864 
L 318.516861 144.260875 
L 318.54933 151.34788 
L 318.581799 194.260242 
L 318.679205 193.813608 
L 318.711673 193.682402 
L 318.874017 95.476784 
L 318.906486 100.373732 
L 318.971423 124.474255 
L 319.003892 93.913908 
L 319.133766 109.330792 
L 319.231173 107.476562 
L 319.393516 111.23292 
L 319.425985 111.23292 
L 319.55586 114.181062 
L 319.653266 107.721885 
L 319.78314 112.99277 
L 320.692264 112.99277 
L 320.724733 114.181062 
L 320.854608 145.646495 
L 320.984482 113.117897 
L 321.568919 113.117897 
L 321.633856 145.795072 
L 321.666325 113.117897 
L 321.698794 113.117897 
L 321.731263 103.255956 
L 321.861137 145.953545 
L 321.926075 145.953545 
L 322.05595 146.122825 
L 322.80273 146.122825 
L 322.835198 145.953545 
L 322.900136 146.122825 
L 323.127417 104.889244 
L 323.192354 104.889244 
L 323.354698 94.719848 
L 323.419635 94.719848 
L 323.581979 124.24205 
L 323.646916 117.120503 
L 323.711853 117.306958 
L 323.939134 146.303955 
L 324.361227 148.383355 
L 324.523571 147.724053 
L 324.685914 147.724053 
L 324.815789 147.437464 
L 325.270351 147.437464 
L 325.400226 147.174255 
L 326.179475 147.174255 
L 326.309349 124.624797 
L 398.487273 124.624797 
L 398.487273 124.624797 
" clip-path="url(#p1b68acd56a)" style="fill: none; stroke: #1f77b4; stroke-width: 1.5; stroke-linecap: square"/>
   </g>
   <g id="patch_3">
    <path d="M 57.6 307.584 
L 57.6 41.472 
" style="fill: none; stroke: #000000; stroke-width: 0.8; stroke-linejoin: miter; stroke-linecap: square"/>
   </g>
   <g id="patch_4">
    <path d="M 414.72 307.584 
L 414.72 41.472 
" style="fill: none; stroke: #000000; stroke-width: 0.8; stroke-linejoin: miter; stroke-linecap: square"/>
   </g>
   <g id="patch_5">
    <path d="M 57.6 307.584 
L 414.72 307.584 
" style="fill: none; stroke: #000000; stroke-width: 0.8; stroke-linejoin: miter; stroke-linecap: square"/>
   </g>
   <g id="patch_6">
    <path d="M 57.6 41.472 
L 414.72 41.472 
" style="fill: none; stroke: #000000; stroke-width: 0.8; stroke-linejoin: miter; stroke-linecap: square"/>
   </g>
  </g>
 </g>
 <defs>
  <clipPath id="p1b68acd56a">
   <rect x="57.6" y="41.472" width="357.12" height="266.112"/>
  </clipPath>
 </defs>
</svg>
