<?xml version="1.0" encoding="utf-8" standalone="no"?>
<!DOCTYPE svg PUBLIC "-//W3C//DTD SVG 1.1//EN"
  "http://www.w3.org/Graphics/SVG/1.1/DTD/svg11.dtd">
<svg xmlns:xlink="http://www.w3.org/1999/xlink" width="460.8pt" height="345.6pt" viewBox="0 0 460.8 345.6" xmlns="http://www.w3.org/2000/svg" version="1.1">
 <metadata>
  <rdf:RDF xmlns:dc="http://purl.org/dc/elements/1.1/" xmlns:cc="http://creativecommons.org/ns#" xmlns:rdf="http://www.w3.org/1999/02/22-rdf-syntax-ns#">
   <cc:Work>
    <dc:type rdf:resource="http://purl.org/dc/dcmitype/StillImage"/>
    <dc:date>2024-04-26T18:41:30.084355</dc:date>
    <dc:format>image/svg+xml</dc:format>
    <dc:creator>
     <cc:Agent>
      <dc:title>Matplotlib v3.8.2, https://matplotlib.org/</dc:title>
     </cc:Agent>
    </dc:creator>
   </cc:Work>
  </rdf:RDF>
 </metadata>
 <defs>
  <style type="text/css">*{stroke-linejoin: round; stroke-linecap: butt}</style>
 </defs>
 <g id="figure_1">
  <g id="patch_1">
   <path d="M 0 345.6 
L 460.8 345.6 
L 460.8 0 
L 0 0 
z
" style="fill: #ffffff"/>
  </g>
  <g id="axes_1">
   <g id="patch_2">
    <path d="M 57.6 307.584 
L 414.72 307.584 
L 414.72 41.472 
L 57.6 41.472 
z
" style="fill: #ffffff"/>
   </g>
   <g id="matplotlib.axis_1">
    <g id="xtick_1">
     <g id="line2d_1">
      <defs>
       <path id="m3127972e84" d="M 0 0 
L 0 3.5 
" style="stroke: #000000; stroke-width: 0.8"/>
      </defs>
      <g>
       <use xlink:href="#m3127972e84" x="73.832727" y="307.584" style="stroke: #000000; stroke-width: 0.8"/>
      </g>
     </g>
     <g id="text_1">
      <!-- 0 -->
      <g transform="translate(70.651477 322.182437) scale(0.1 -0.1)">
       <defs>
        <path id="DejaVuSans-30" d="M 2034 4250 
Q 1547 4250 1301 3770 
Q 1056 3291 1056 2328 
Q 1056 1369 1301 889 
Q 1547 409 2034 409 
Q 2525 409 2770 889 
Q 3016 1369 3016 2328 
Q 3016 3291 2770 3770 
Q 2525 4250 2034 4250 
z
M 2034 4750 
Q 2819 4750 3233 4129 
Q 3647 3509 3647 2328 
Q 3647 1150 3233 529 
Q 2819 -91 2034 -91 
Q 1250 -91 836 529 
Q 422 1150 422 2328 
Q 422 3509 836 4129 
Q 1250 4750 2034 4750 
z
" transform="scale(0.015625)"/>
       </defs>
       <use xlink:href="#DejaVuSans-30"/>
      </g>
     </g>
    </g>
    <g id="xtick_2">
     <g id="line2d_2">
      <g>
       <use xlink:href="#m3127972e84" x="138.77013" y="307.584" style="stroke: #000000; stroke-width: 0.8"/>
      </g>
     </g>
     <g id="text_2">
      <!-- 2000 -->
      <g transform="translate(126.04513 322.182437) scale(0.1 -0.1)">
       <defs>
        <path id="DejaVuSans-32" d="M 1228 531 
L 3431 531 
L 3431 0 
L 469 0 
L 469 531 
Q 828 903 1448 1529 
Q 2069 2156 2228 2338 
Q 2531 2678 2651 2914 
Q 2772 3150 2772 3378 
Q 2772 3750 2511 3984 
Q 2250 4219 1831 4219 
Q 1534 4219 1204 4116 
Q 875 4013 500 3803 
L 500 4441 
Q 881 4594 1212 4672 
Q 1544 4750 1819 4750 
Q 2544 4750 2975 4387 
Q 3406 4025 3406 3419 
Q 3406 3131 3298 2873 
Q 3191 2616 2906 2266 
Q 2828 2175 2409 1742 
Q 1991 1309 1228 531 
z
" transform="scale(0.015625)"/>
       </defs>
       <use xlink:href="#DejaVuSans-32"/>
       <use xlink:href="#DejaVuSans-30" x="63.623047"/>
       <use xlink:href="#DejaVuSans-30" x="127.246094"/>
       <use xlink:href="#DejaVuSans-30" x="190.869141"/>
      </g>
     </g>
    </g>
    <g id="xtick_3">
     <g id="line2d_3">
      <g>
       <use xlink:href="#m3127972e84" x="203.707533" y="307.584" style="stroke: #000000; stroke-width: 0.8"/>
      </g>
     </g>
     <g id="text_3">
      <!-- 4000 -->
      <g transform="translate(190.982533 322.182437) scale(0.1 -0.1)">
       <defs>
        <path id="DejaVuSans-34" d="M 2419 4116 
L 825 1625 
L 2419 1625 
L 2419 4116 
z
M 2253 4666 
L 3047 4666 
L 3047 1625 
L 3713 1625 
L 3713 1100 
L 3047 1100 
L 3047 0 
L 2419 0 
L 2419 1100 
L 313 1100 
L 313 1709 
L 2253 4666 
z
" transform="scale(0.015625)"/>
       </defs>
       <use xlink:href="#DejaVuSans-34"/>
       <use xlink:href="#DejaVuSans-30" x="63.623047"/>
       <use xlink:href="#DejaVuSans-30" x="127.246094"/>
       <use xlink:href="#DejaVuSans-30" x="190.869141"/>
      </g>
     </g>
    </g>
    <g id="xtick_4">
     <g id="line2d_4">
      <g>
       <use xlink:href="#m3127972e84" x="268.644936" y="307.584" style="stroke: #000000; stroke-width: 0.8"/>
      </g>
     </g>
     <g id="text_4">
      <!-- 6000 -->
      <g transform="translate(255.919936 322.182437) scale(0.1 -0.1)">
       <defs>
        <path id="DejaVuSans-36" d="M 2113 2584 
Q 1688 2584 1439 2293 
Q 1191 2003 1191 1497 
Q 1191 994 1439 701 
Q 1688 409 2113 409 
Q 2538 409 2786 701 
Q 3034 994 3034 1497 
Q 3034 2003 2786 2293 
Q 2538 2584 2113 2584 
z
M 3366 4563 
L 3366 3988 
Q 3128 4100 2886 4159 
Q 2644 4219 2406 4219 
Q 1781 4219 1451 3797 
Q 1122 3375 1075 2522 
Q 1259 2794 1537 2939 
Q 1816 3084 2150 3084 
Q 2853 3084 3261 2657 
Q 3669 2231 3669 1497 
Q 3669 778 3244 343 
Q 2819 -91 2113 -91 
Q 1303 -91 875 529 
Q 447 1150 447 2328 
Q 447 3434 972 4092 
Q 1497 4750 2381 4750 
Q 2619 4750 2861 4703 
Q 3103 4656 3366 4563 
z
" transform="scale(0.015625)"/>
       </defs>
       <use xlink:href="#DejaVuSans-36"/>
       <use xlink:href="#DejaVuSans-30" x="63.623047"/>
       <use xlink:href="#DejaVuSans-30" x="127.246094"/>
       <use xlink:href="#DejaVuSans-30" x="190.869141"/>
      </g>
     </g>
    </g>
    <g id="xtick_5">
     <g id="line2d_5">
      <g>
       <use xlink:href="#m3127972e84" x="333.582339" y="307.584" style="stroke: #000000; stroke-width: 0.8"/>
      </g>
     </g>
     <g id="text_5">
      <!-- 8000 -->
      <g transform="translate(320.857339 322.182437) scale(0.1 -0.1)">
       <defs>
        <path id="DejaVuSans-38" d="M 2034 2216 
Q 1584 2216 1326 1975 
Q 1069 1734 1069 1313 
Q 1069 891 1326 650 
Q 1584 409 2034 409 
Q 2484 409 2743 651 
Q 3003 894 3003 1313 
Q 3003 1734 2745 1975 
Q 2488 2216 2034 2216 
z
M 1403 2484 
Q 997 2584 770 2862 
Q 544 3141 544 3541 
Q 544 4100 942 4425 
Q 1341 4750 2034 4750 
Q 2731 4750 3128 4425 
Q 3525 4100 3525 3541 
Q 3525 3141 3298 2862 
Q 3072 2584 2669 2484 
Q 3125 2378 3379 2068 
Q 3634 1759 3634 1313 
Q 3634 634 3220 271 
Q 2806 -91 2034 -91 
Q 1263 -91 848 271 
Q 434 634 434 1313 
Q 434 1759 690 2068 
Q 947 2378 1403 2484 
z
M 1172 3481 
Q 1172 3119 1398 2916 
Q 1625 2713 2034 2713 
Q 2441 2713 2670 2916 
Q 2900 3119 2900 3481 
Q 2900 3844 2670 4047 
Q 2441 4250 2034 4250 
Q 1625 4250 1398 4047 
Q 1172 3844 1172 3481 
z
" transform="scale(0.015625)"/>
       </defs>
       <use xlink:href="#DejaVuSans-38"/>
       <use xlink:href="#DejaVuSans-30" x="63.623047"/>
       <use xlink:href="#DejaVuSans-30" x="127.246094"/>
       <use xlink:href="#DejaVuSans-30" x="190.869141"/>
      </g>
     </g>
    </g>
    <g id="xtick_6">
     <g id="line2d_6">
      <g>
       <use xlink:href="#m3127972e84" x="398.519741" y="307.584" style="stroke: #000000; stroke-width: 0.8"/>
      </g>
     </g>
     <g id="text_6">
      <!-- 10000 -->
      <g transform="translate(382.613491 322.182437) scale(0.1 -0.1)">
       <defs>
        <path id="DejaVuSans-31" d="M 794 531 
L 1825 531 
L 1825 4091 
L 703 3866 
L 703 4441 
L 1819 4666 
L 2450 4666 
L 2450 531 
L 3481 531 
L 3481 0 
L 794 0 
L 794 531 
z
" transform="scale(0.015625)"/>
       </defs>
       <use xlink:href="#DejaVuSans-31"/>
       <use xlink:href="#DejaVuSans-30" x="63.623047"/>
       <use xlink:href="#DejaVuSans-30" x="127.246094"/>
       <use xlink:href="#DejaVuSans-30" x="190.869141"/>
       <use xlink:href="#DejaVuSans-30" x="254.492188"/>
      </g>
     </g>
    </g>
   </g>
   <g id="matplotlib.axis_2">
    <g id="ytick_1">
     <g id="line2d_7">
      <defs>
       <path id="maf694230d0" d="M 0 0 
L -3.5 0 
" style="stroke: #000000; stroke-width: 0.8"/>
      </defs>
      <g>
       <use xlink:href="#maf694230d0" x="57.6" y="296.871262" style="stroke: #000000; stroke-width: 0.8"/>
      </g>
     </g>
     <g id="text_7">
      <!-- −150 -->
      <g transform="translate(23.132812 300.67048) scale(0.1 -0.1)">
       <defs>
        <path id="DejaVuSans-2212" d="M 678 2272 
L 4684 2272 
L 4684 1741 
L 678 1741 
L 678 2272 
z
" transform="scale(0.015625)"/>
        <path id="DejaVuSans-35" d="M 691 4666 
L 3169 4666 
L 3169 4134 
L 1269 4134 
L 1269 2991 
Q 1406 3038 1543 3061 
Q 1681 3084 1819 3084 
Q 2600 3084 3056 2656 
Q 3513 2228 3513 1497 
Q 3513 744 3044 326 
Q 2575 -91 1722 -91 
Q 1428 -91 1123 -41 
Q 819 9 494 109 
L 494 744 
Q 775 591 1075 516 
Q 1375 441 1709 441 
Q 2250 441 2565 725 
Q 2881 1009 2881 1497 
Q 2881 1984 2565 2268 
Q 2250 2553 1709 2553 
Q 1456 2553 1204 2497 
Q 953 2441 691 2322 
L 691 4666 
z
" transform="scale(0.015625)"/>
       </defs>
       <use xlink:href="#DejaVuSans-2212"/>
       <use xlink:href="#DejaVuSans-31" x="83.789062"/>
       <use xlink:href="#DejaVuSans-35" x="147.412109"/>
       <use xlink:href="#DejaVuSans-30" x="211.035156"/>
      </g>
     </g>
    </g>
    <g id="ytick_2">
     <g id="line2d_8">
      <g>
       <use xlink:href="#maf694230d0" x="57.6" y="246.623319" style="stroke: #000000; stroke-width: 0.8"/>
      </g>
     </g>
     <g id="text_8">
      <!-- −100 -->
      <g transform="translate(23.132812 250.422538) scale(0.1 -0.1)">
       <use xlink:href="#DejaVuSans-2212"/>
       <use xlink:href="#DejaVuSans-31" x="83.789062"/>
       <use xlink:href="#DejaVuSans-30" x="147.412109"/>
       <use xlink:href="#DejaVuSans-30" x="211.035156"/>
      </g>
     </g>
    </g>
    <g id="ytick_3">
     <g id="line2d_9">
      <g>
       <use xlink:href="#maf694230d0" x="57.6" y="196.375377" style="stroke: #000000; stroke-width: 0.8"/>
      </g>
     </g>
     <g id="text_9">
      <!-- −50 -->
      <g transform="translate(29.495313 200.174596) scale(0.1 -0.1)">
       <use xlink:href="#DejaVuSans-2212"/>
       <use xlink:href="#DejaVuSans-35" x="83.789062"/>
       <use xlink:href="#DejaVuSans-30" x="147.412109"/>
      </g>
     </g>
    </g>
    <g id="ytick_4">
     <g id="line2d_10">
      <g>
       <use xlink:href="#maf694230d0" x="57.6" y="146.127435" style="stroke: #000000; stroke-width: 0.8"/>
      </g>
     </g>
     <g id="text_10">
      <!-- 0 -->
      <g transform="translate(44.2375 149.926654) scale(0.1 -0.1)">
       <use xlink:href="#DejaVuSans-30"/>
      </g>
     </g>
    </g>
    <g id="ytick_5">
     <g id="line2d_11">
      <g>
       <use xlink:href="#maf694230d0" x="57.6" y="95.879493" style="stroke: #000000; stroke-width: 0.8"/>
      </g>
     </g>
     <g id="text_11">
      <!-- 50 -->
      <g transform="translate(37.875 99.678711) scale(0.1 -0.1)">
       <use xlink:href="#DejaVuSans-35"/>
       <use xlink:href="#DejaVuSans-30" x="63.623047"/>
      </g>
     </g>
    </g>
    <g id="ytick_6">
     <g id="line2d_12">
      <g>
       <use xlink:href="#maf694230d0" x="57.6" y="45.63155" style="stroke: #000000; stroke-width: 0.8"/>
      </g>
     </g>
     <g id="text_12">
      <!-- 100 -->
      <g transform="translate(31.5125 49.430769) scale(0.1 -0.1)">
       <use xlink:href="#DejaVuSans-31"/>
       <use xlink:href="#DejaVuSans-30" x="63.623047"/>
       <use xlink:href="#DejaVuSans-30" x="127.246094"/>
      </g>
     </g>
    </g>
   </g>
   <g id="line2d_13">
    <path d="M 73.832727 137.395627 
L 73.865196 146.127435 
L 73.897665 101.515954 
L 73.962602 150.521308 
L 73.995071 115.764637 
L 74.060008 264.279623 
L 74.092477 142.782886 
L 74.189883 151.793161 
L 74.222352 291.269841 
L 74.287289 131.133531 
L 74.319758 133.482665 
L 74.352226 122.270856 
L 74.384695 145.064661 
L 74.417164 146.127435 
L 74.449633 141.903186 
L 74.482101 265.030172 
L 74.547039 146.506004 
L 74.579507 146.127435 
L 74.611976 133.128919 
L 74.644445 147.235741 
L 74.676914 146.127435 
L 74.709382 180.906289 
L 74.741851 127.655784 
L 74.77432 138.759092 
L 74.806788 145.064661 
L 74.839257 120.558396 
L 74.904194 139.188097 
L 74.936663 265.241757 
L 75.001601 146.127435 
L 75.034069 119.026656 
L 75.099007 146.127435 
L 75.163944 273.091684 
L 75.196413 118.696939 
L 75.228881 123.4284 
L 75.26135 110.497569 
L 75.326288 166.41044 
L 75.391225 146.356823 
L 75.423694 152.643173 
L 75.456162 143.703502 
L 75.488631 143.48159 
L 75.5211 105.625632 
L 75.586037 146.127435 
L 75.618506 146.127435 
L 75.650975 145.064661 
L 75.683443 233.13733 
L 75.748381 146.127435 
L 75.780849 136.194127 
L 75.813318 147.550393 
L 75.878255 146.127435 
L 75.910724 242.08546 
L 76.00813 135.263197 
L 76.040599 154.071658 
L 76.073068 254.371094 
L 76.105536 122.243748 
L 76.138005 109.595589 
L 76.235411 275.312028 
L 76.26788 131.695532 
L 76.300349 146.127435 
L 76.332817 291.783427 
L 76.397755 203.519484 
L 76.462692 145.064661 
L 76.495161 260.084437 
L 76.527629 135.618463 
L 76.592567 215.712084 
L 76.657504 142.900858 
L 76.722442 146.127435 
L 76.75491 149.652086 
L 76.787379 138.839233 
L 76.852317 140.082464 
L 76.884785 146.127435 
L 76.917254 112.318186 
L 76.982191 141.903186 
L 77.01466 141.38252 
L 77.047129 220.880496 
L 77.112066 146.127435 
L 77.144535 146.251001 
L 77.177004 122.891093 
L 77.241941 128.413003 
L 77.27441 145.064661 
L 77.306878 143.703502 
L 77.339347 295.488 
L 77.404284 136.98042 
L 77.436753 282.431502 
L 77.501691 129.41053 
L 77.566628 150.116548 
L 77.664034 95.508744 
L 77.696503 157.497938 
L 77.793909 150.307547 
L 77.826378 139.61868 
L 77.891315 146.127435 
L 77.923784 147.115302 
L 77.988721 146.127435 
L 78.118596 103.722694 
L 78.345877 291.095616 
L 78.378345 131.425905 
L 78.443283 239.490495 
L 78.475752 247.99691 
L 78.50822 133.415192 
L 78.573158 186.763898 
L 78.605626 250.641937 
L 78.703032 248.974552 
L 78.735501 170.138923 
L 78.832907 172.153044 
L 78.865376 171.162996 
L 78.897845 171.334854 
L 78.930313 145.423282 
L 78.962782 196.454832 
L 78.995251 153.959745 
L 79.092657 201.174216 
L 79.255 112.990704 
L 79.319938 168.474341 
L 79.352407 140.104315 
L 79.384875 119.868514 
L 79.449813 120.944986 
L 79.482281 163.178713 
L 79.579687 161.271867 
L 79.612156 156.795543 
L 79.644625 113.00875 
L 79.742031 127.29792 
L 79.806968 143.014893 
L 79.839437 104.39526 
L 79.936843 164.443566 
L 79.969312 114.431354 
L 80.066718 124.156398 
L 80.099187 150.750036 
L 80.131655 140.687535 
L 80.196593 110.137065 
L 80.229061 162.683113 
L 80.293999 140.574484 
L 80.423874 104.01408 
L 80.52128 143.264511 
L 80.651155 75.329232 
L 80.910904 241.206775 
L 81.040779 154.893839 
L 81.073248 153.659043 
L 81.105716 154.264822 
L 81.138185 216.370705 
L 81.203122 154.893839 
L 81.235591 154.893839 
L 81.365466 253.23244 
L 81.495341 154.893839 
L 81.625216 257.034367 
L 81.722622 154.264822 
L 81.75509 218.794496 
L 81.852497 216.370705 
L 81.884965 216.370705 
L 81.949903 154.264822 
L 81.982371 231.517909 
L 82.112246 177.919623 
L 82.177184 134.215717 
L 82.209652 216.370705 
L 82.27459 154.264822 
L 82.307058 154.264822 
L 82.371996 153.659043 
L 82.404464 216.370705 
L 82.436933 153.659043 
L 82.501871 154.893839 
L 82.534339 216.370705 
L 82.599277 182.012375 
L 82.631745 154.264822 
L 82.729151 257.034367 
L 82.76162 224.539471 
L 82.794089 216.370705 
L 82.923964 137.529335 
L 83.053838 218.794496 
L 83.118776 257.034367 
L 83.183713 154.893839 
L 83.216182 221.515751 
L 83.313588 216.370705 
L 83.378525 153.659043 
L 83.410994 181.059974 
L 83.443463 218.794496 
L 83.475932 154.264822 
L 83.5084 154.264822 
L 83.638275 221.515751 
L 83.76815 153.072487 
L 83.800619 154.264822 
L 83.865556 216.370705 
L 83.898025 154.893839 
L 83.962962 154.893839 
L 84.060368 218.794496 
L 84.092837 216.370705 
L 84.125306 136.674214 
L 84.222712 154.893839 
L 84.25518 221.515751 
L 84.320118 154.893839 
L 84.352587 154.893839 
L 84.385055 218.794496 
L 84.449993 179.510188 
L 84.51493 115.976336 
L 84.547399 189.162936 
L 84.579867 156.238434 
L 84.612336 156.238434 
L 84.644805 237.933206 
L 84.709742 188.686227 
L 84.839617 162.885626 
L 84.872086 171.287108 
L 84.937023 160.737936 
L 85.001961 173.324677 
L 85.066898 105.61172 
L 85.196773 158.76217 
L 85.26171 109.547719 
L 85.326648 122.157436 
L 85.424054 162.049463 
L 85.391585 119.664679 
L 85.456522 152.300671 
L 85.488991 153.702882 
L 85.586397 114.177987 
L 85.651335 146.040443 
L 85.683803 143.660621 
L 85.716272 111.006987 
L 85.781209 143.660621 
L 85.813678 143.660621 
L 85.846147 120.980956 
L 85.878615 143.660621 
L 85.911084 158.228833 
L 85.976022 163.195174 
L 86.040959 120.980956 
L 86.073428 120.980956 
L 86.105896 121.843421 
L 86.170834 120.716761 
L 86.235771 154.582262 
L 86.300709 121.364971 
L 86.333177 159.886199 
L 86.430583 158.471898 
L 86.495521 120.980956 
L 86.52799 133.676081 
L 86.560458 155.581047 
L 86.592927 121.364971 
L 86.690333 120.687822 
L 86.820208 146.040443 
L 86.852677 120.687822 
L 86.885145 154.582262 
L 86.917614 133.225557 
L 86.982551 143.660621 
L 87.01502 120.687822 
L 87.047489 159.886199 
L 87.079957 158.471898 
L 87.177364 120.687822 
L 87.209832 134.861029 
L 87.242301 133.676081 
L 87.27477 144.825305 
L 87.307238 120.980956 
L 87.339707 143.660621 
L 87.437113 120.687822 
L 87.502051 148.634992 
L 87.534519 139.69713 
L 87.566988 121.843421 
L 87.599457 155.823774 
L 87.631925 134.861029 
L 87.664394 134.219937 
L 87.696863 134.861029 
L 87.729331 138.493127 
L 87.7618 120.980956 
L 87.794269 137.413994 
L 87.826738 159.886199 
L 87.859206 134.219937 
L 87.891675 134.861029 
L 87.924144 120.687822 
L 87.956612 142.218654 
L 87.989081 147.309181 
L 88.02155 120.687822 
L 88.086487 157.119099 
L 88.151425 136.452893 
L 88.183893 166.254663 
L 88.216362 133.225557 
L 88.248831 120.687822 
L 88.313768 162.439075 
L 88.378706 161.366443 
L 88.411174 152.40734 
L 88.443643 162.917539 
L 88.476112 159.886199 
L 88.50858 162.917539 
L 88.541049 117.235873 
L 88.605986 134.219937 
L 88.670924 122.420288 
L 88.703393 189.881363 
L 88.800799 134.861029 
L 88.833267 154.13352 
L 88.898205 150.049005 
L 88.963142 169.774899 
L 89.093017 121.663407 
L 89.125486 124.550137 
L 89.190423 161.030321 
L 89.25536 148.181847 
L 89.287829 135.300615 
L 89.385235 139.668693 
L 89.417704 132.862695 
L 89.482641 155.314097 
L 89.51511 119.679027 
L 89.547579 153.997434 
L 89.677454 219.983829 
L 89.709922 202.368343 
L 89.77486 202.847798 
L 89.904734 244.955726 
L 89.937203 229.920588 
L 90.034609 232.527788 
L 90.132015 248.687797 
L 90.164484 246.130834 
L 90.196953 238.297437 
L 90.229421 248.687797 
L 90.26189 246.130834 
L 90.326828 241.962008 
L 90.359296 231.280792 
L 90.424234 243.896592 
L 90.456702 240.307442 
L 90.489171 248.899795 
L 90.52164 240.65292 
L 90.619046 251.434462 
L 90.683983 230.802703 
L 90.748921 244.225829 
L 90.781389 251.434462 
L 90.813858 238.012558 
L 90.846327 246.687732 
L 90.878796 247.690733 
L 90.911264 246.687732 
L 90.943733 238.297437 
L 91.00867 248.899795 
L 91.073608 251.434462 
L 91.106076 238.012558 
L 91.203483 251.434462 
L 91.235951 246.687732 
L 91.365826 216.103135 
L 91.430763 251.434462 
L 91.495701 239.769927 
L 91.560638 248.899795 
L 91.625576 247.690733 
L 91.722982 241.773199 
L 91.787919 241.502635 
L 91.820388 248.899795 
L 91.917794 241.502635 
L 91.950263 243.142595 
L 92.112606 251.434462 
L 92.242481 241.773199 
L 92.307418 241.773199 
L 92.502231 251.434462 
L 92.664574 241.008661 
L 92.729511 248.899795 
L 92.76198 246.687732 
L 92.794449 244.775212 
L 92.826918 248.899795 
L 92.859386 246.687732 
L 92.891855 247.690733 
L 92.989261 238.012558 
L 93.086667 248.899795 
L 93.119136 243.142595 
L 93.151605 229.927701 
L 93.184073 251.434462 
L 93.216542 246.687732 
L 93.249011 248.899795 
L 93.281479 244.775212 
L 93.313948 221.512892 
L 93.346417 248.899795 
L 93.378886 241.008661 
L 93.411354 239.769927 
L 93.443823 251.434462 
L 93.50876 246.687732 
L 93.541229 244.775212 
L 93.573698 246.687732 
L 93.606166 251.434462 
L 93.638635 248.899795 
L 93.671104 241.008661 
L 93.736041 244.775212 
L 93.76851 244.775212 
L 93.800979 248.899795 
L 93.833447 243.142595 
L 93.865916 241.773199 
L 93.898385 244.775212 
L 93.930853 248.899795 
L 93.995791 243.142595 
L 94.02826 240.65292 
L 94.060728 244.775212 
L 94.093197 246.687732 
L 94.125666 239.769927 
L 94.190603 244.775212 
L 94.223072 248.899795 
L 94.288009 246.687732 
L 94.352947 237.774206 
L 94.385415 241.008661 
L 94.417884 251.434462 
L 94.450353 240.65292 
L 94.482821 241.773199 
L 94.612696 246.687732 
L 94.645165 244.775212 
L 94.677634 247.690733 
L 94.710102 251.434462 
L 94.742571 244.775212 
L 94.77504 246.687732 
L 94.872446 240.65292 
L 94.904914 251.434462 
L 94.937383 238.012558 
L 94.969852 244.775212 
L 95.034789 248.899795 
L 95.067258 237.774206 
L 95.132195 248.899795 
L 95.197133 244.775212 
L 95.229602 244.225829 
L 95.294539 244.775212 
L 95.327008 244.775212 
L 95.359476 248.899795 
L 95.391945 238.012558 
L 95.424414 251.434462 
L 95.456882 246.687732 
L 95.489351 248.899795 
L 95.619226 240.307442 
L 95.684163 247.690733 
L 95.749101 246.687732 
L 95.781569 239.769927 
L 95.814038 251.434462 
L 95.846507 244.775212 
L 95.878976 244.225829 
L 95.943913 251.434462 
L 96.00885 233.360902 
L 96.041319 241.008661 
L 96.171194 251.434462 
L 96.301069 243.896592 
L 96.398475 247.690733 
L 96.463412 239.769927 
L 96.495881 248.899795 
L 96.52835 251.434462 
L 96.593287 248.899795 
L 96.625756 240.65292 
L 96.690693 244.225829 
L 96.723162 248.899795 
L 96.788099 247.690733 
L 96.853037 251.434462 
L 96.885505 234.192331 
L 96.917974 247.690733 
L 96.982911 243.142595 
L 97.01538 239.769927 
L 97.145255 251.434462 
L 97.177724 241.962008 
L 97.242661 244.775212 
L 97.307598 251.434462 
L 97.340067 248.899795 
L 97.405005 243.142595 
L 97.437473 248.899795 
L 97.502411 244.775212 
L 97.534879 246.687732 
L 97.567348 248.899795 
L 97.599817 244.775212 
L 97.632285 246.687732 
L 97.664754 246.687732 
L 97.729692 240.65292 
L 97.76216 243.142595 
L 97.859566 248.899795 
L 97.892035 247.690733 
L 97.924504 246.687732 
L 97.956972 240.65292 
L 97.989441 248.899795 
L 98.02191 244.775212 
L 98.054379 247.690733 
L 98.086847 243.142595 
L 98.119316 244.775212 
L 98.151785 244.775212 
L 98.281659 251.434462 
L 98.411534 244.225829 
L 98.444003 251.434462 
L 98.50894 246.687732 
L 98.541409 246.687732 
L 98.573878 241.008661 
L 98.606346 251.434462 
L 98.638815 243.142595 
L 98.671284 244.225829 
L 98.703753 232.594925 
L 98.76869 246.687732 
L 98.866096 239.769927 
L 98.931033 243.142595 
L 98.995971 241.773199 
L 99.093377 248.899795 
L 99.158314 243.142595 
L 99.190783 251.434462 
L 99.25572 243.142595 
L 99.288189 246.687732 
L 99.320658 241.773199 
L 99.353127 244.225829 
L 99.385595 244.225829 
L 99.450533 241.773199 
L 99.483001 243.142595 
L 99.51547 232.594925 
L 99.547939 244.225829 
L 99.645345 248.899795 
L 99.677814 243.142595 
L 99.742751 244.775212 
L 99.840157 247.690733 
L 99.872626 246.687732 
L 99.937563 241.008661 
L 100.034969 243.142595 
L 100.099907 247.690733 
L 100.132375 241.773199 
L 100.164844 246.687732 
L 100.197313 248.899795 
L 100.294719 235.214587 
L 100.327188 244.775212 
L 100.392125 244.225829 
L 100.457062 246.687732 
L 100.489531 243.142595 
L 100.522 251.434462 
L 100.554469 251.434462 
L 100.651875 235.214587 
L 100.684343 248.899795 
L 100.716812 251.434462 
L 100.879156 238.012558 
L 100.976562 251.434462 
L 101.00903 246.687732 
L 101.106436 248.899795 
L 101.171374 233.360902 
L 101.301249 246.687732 
L 101.333717 248.899795 
L 101.366186 241.008661 
L 101.431123 241.773199 
L 101.52853 246.687732 
L 101.560998 239.769927 
L 101.593467 248.899795 
L 101.625936 248.899795 
L 101.658404 251.434462 
L 101.75581 240.65292 
L 101.885685 251.434462 
L 102.01556 238.012558 
L 102.048029 247.690733 
L 102.145435 246.687732 
L 102.210372 248.899795 
L 102.242841 243.142595 
L 102.27531 247.690733 
L 102.307778 238.012558 
L 102.340247 244.775212 
L 102.405185 241.773199 
L 102.470122 251.434462 
L 102.502591 241.773199 
L 102.535059 234.192331 
L 102.567528 246.687732 
L 102.599997 241.008661 
L 102.632465 248.899795 
L 102.697403 244.775212 
L 102.729872 244.775212 
L 102.827278 247.690733 
L 102.794809 243.142595 
L 102.859746 246.687732 
L 102.892215 247.690733 
L 102.957152 241.773199 
L 102.989621 247.690733 
L 103.02209 244.775212 
L 103.054559 251.434462 
L 103.087027 247.690733 
L 103.184433 251.434462 
L 103.216902 238.012558 
L 103.281839 241.773199 
L 103.379246 248.899795 
L 103.411714 246.687732 
L 103.476652 240.65292 
L 103.541589 243.142595 
L 103.574058 243.142595 
L 103.606526 239.769927 
L 103.703933 248.899795 
L 103.736401 247.690733 
L 103.76887 246.687732 
L 103.801339 251.434462 
L 103.866276 248.899795 
L 103.931213 246.687732 
L 103.963682 251.434462 
L 103.996151 240.65292 
L 104.02862 246.687732 
L 104.061088 246.687732 
L 104.158494 247.690733 
L 104.190963 239.769927 
L 104.320838 248.899795 
L 104.353307 244.775212 
L 104.418244 247.690733 
L 104.450713 246.687732 
L 104.580588 240.65292 
L 104.710462 251.434462 
L 104.742931 239.769927 
L 104.840337 243.142595 
L 104.872806 247.690733 
L 104.937743 243.142595 
L 104.970212 240.65292 
L 105.002681 251.434462 
L 105.067618 238.012558 
L 105.100087 247.690733 
L 105.165024 246.687732 
L 105.26243 228.907605 
L 105.294899 241.773199 
L 105.327368 240.65292 
L 105.457242 251.434462 
L 105.52218 240.65292 
L 105.554649 241.008661 
L 105.652055 248.899795 
L 105.684523 244.775212 
L 105.749461 248.899795 
L 105.781929 248.899795 
L 105.814398 239.769927 
L 105.846867 251.434462 
L 105.879336 251.434462 
L 106.041679 234.192331 
L 106.074148 247.690733 
L 106.139085 241.773199 
L 106.171554 238.012558 
L 106.204023 246.687732 
L 106.236491 251.434462 
L 106.26896 243.142595 
L 106.301429 248.899795 
L 106.333897 247.690733 
L 106.366366 240.65292 
L 106.398835 251.434462 
L 106.431303 243.142595 
L 106.463772 247.690733 
L 106.52871 241.773199 
L 106.561178 246.687732 
L 106.593647 248.899795 
L 106.691053 239.769927 
L 106.788459 251.434462 
L 106.820928 244.225829 
L 106.885865 239.769927 
L 106.950803 238.012558 
L 106.983271 248.899795 
L 107.113146 243.142595 
L 107.145615 243.142595 
L 107.178084 241.008661 
L 107.27549 251.434462 
L 107.340427 240.65292 
L 107.372896 246.687732 
L 107.405365 246.687732 
L 107.470302 244.775212 
L 107.502771 251.434462 
L 107.535239 238.012558 
L 107.600177 251.434462 
L 107.632645 251.434462 
L 107.794989 239.769927 
L 107.924864 251.434462 
L 107.957332 241.773199 
L 108.02227 244.775212 
L 108.054739 248.899795 
L 108.087207 243.142595 
L 108.119676 241.773199 
L 108.152145 244.775212 
L 108.184613 251.434462 
L 108.217082 243.142595 
L 108.249551 244.775212 
L 108.282019 239.769927 
L 108.314488 246.687732 
L 108.346957 246.687732 
L 108.379426 244.775212 
L 108.411894 251.434462 
L 108.476832 243.142595 
L 108.5093 235.214587 
L 108.541769 244.775212 
L 108.574238 246.687732 
L 108.606706 240.65292 
L 108.671644 243.142595 
L 108.76905 251.434462 
L 108.736581 238.012558 
L 108.801519 248.899795 
L 108.833987 243.142595 
L 108.866456 246.687732 
L 108.931394 251.434462 
L 108.963862 241.008661 
L 109.0288 247.690733 
L 109.061268 246.687732 
L 109.093737 239.769927 
L 109.126206 251.434462 
L 109.158674 244.775212 
L 109.223612 241.008661 
L 109.288549 248.899795 
L 109.321018 248.899795 
L 109.385955 240.65292 
L 109.418424 243.142595 
L 109.548299 248.899795 
L 109.580768 246.687732 
L 109.613236 234.192331 
L 109.645705 248.899795 
L 109.678174 241.773199 
L 109.743111 246.687732 
L 109.77558 251.434462 
L 109.808048 244.775212 
L 109.840517 244.775212 
L 109.905455 248.899795 
L 109.937923 234.192331 
L 110.067798 248.899795 
L 110.165204 234.192331 
L 110.230142 251.434462 
L 110.26261 241.008661 
L 110.295079 234.192331 
L 110.327548 251.434462 
L 110.424954 247.690733 
L 110.52236 248.899795 
L 110.554829 244.775212 
L 110.587297 244.775212 
L 110.619766 241.008661 
L 110.652235 251.434462 
L 110.717172 246.687732 
L 110.749641 239.769927 
L 110.814578 246.687732 
L 110.911984 248.899795 
L 111.00939 240.65292 
L 111.139265 251.434462 
L 111.171734 241.773199 
L 111.236671 248.899795 
L 111.366546 246.687732 
L 111.399015 246.687732 
L 111.431484 228.907605 
L 111.463952 247.690733 
L 111.496421 241.773199 
L 111.561358 244.775212 
L 111.593827 240.65292 
L 111.723702 247.690733 
L 111.756171 244.775212 
L 111.788639 243.142595 
L 111.918514 248.899795 
L 111.950983 239.769927 
L 111.983451 251.434462 
L 112.048389 241.008661 
L 112.178264 246.687732 
L 112.308138 176.092631 
L 112.405545 185.502978 
L 112.438013 171.626457 
L 112.502951 189.358334 
L 112.567888 178.119235 
L 112.665294 182.84238 
L 112.697763 189.358334 
L 112.730232 186.585087 
L 112.827638 167.39182 
L 112.989981 247.748672 
L 113.02245 240.864624 
L 113.152325 247.748672 
L 113.314668 209.453654 
L 113.347137 215.62281 
L 113.379606 242.851687 
L 113.444543 222.788532 
L 113.574418 223.593806 
L 113.606887 222.966959 
L 113.639355 219.066091 
L 113.704293 222.788532 
L 113.801699 223.23493 
L 113.834167 222.788532 
L 113.931574 224.045237 
L 113.996511 206.678189 
L 114.061448 223.23493 
L 114.126386 222.788532 
L 114.158854 223.23493 
L 114.191323 225.233864 
L 114.223792 224.62663 
L 114.288729 237.255577 
L 114.321198 181.068037 
L 114.386135 235.268495 
L 114.418604 235.268495 
L 114.451073 233.561703 
L 114.580948 176.678524 
L 114.645885 172.943506 
L 114.710822 183.676001 
L 114.840697 172.943506 
L 114.905635 181.068037 
L 114.970572 179.871843 
L 115.003041 177.67979 
L 115.035509 183.676001 
L 115.067978 179.871843 
L 115.165384 166.27934 
L 115.132915 182.33499 
L 115.197853 172.943506 
L 115.230322 185.094647 
L 115.295259 176.678524 
L 115.327728 179.871843 
L 115.360196 177.67979 
L 115.425134 172.943506 
L 115.457602 177.67979 
L 115.52254 181.068037 
L 115.555009 176.678524 
L 115.619946 182.33499 
L 115.717352 172.943506 
L 115.684883 185.094647 
L 115.749821 179.871843 
L 115.78229 248.783763 
L 115.814758 179.871843 
L 115.912164 121.443839 
L 115.944633 135.598514 
L 115.977102 129.380285 
L 116.00957 193.705945 
L 116.042039 122.965437 
L 116.074508 161.25709 
L 116.139445 121.443839 
L 116.204383 124.942641 
L 116.236851 132.616244 
L 116.26932 241.570806 
L 116.334257 230.315061 
L 116.366726 120.687822 
L 116.399195 232.961167 
L 116.464132 132.567912 
L 116.496601 120.687822 
L 116.52907 184.239851 
L 116.594007 121.443839 
L 116.626476 121.443839 
L 116.658944 231.513353 
L 116.691413 120.687822 
L 116.723882 127.947563 
L 116.821288 122.630898 
L 116.788819 129.380285 
L 116.853757 123.94088 
L 116.886225 121.975344 
L 117.0161 234.672609 
L 117.113506 237.868943 
L 117.145975 120.980956 
L 117.178444 120.687822 
L 117.243381 238.956074 
L 117.27585 121.975344 
L 117.340787 129.951097 
L 117.373256 126.481996 
L 117.405725 191.49116 
L 117.470662 123.400767 
L 117.503131 120.687822 
L 117.568068 234.446461 
L 117.600537 124.998806 
L 117.633005 134.068509 
L 117.665474 120.980956 
L 117.697943 120.687822 
L 117.76288 236.664364 
L 117.827818 232.961167 
L 117.860286 231.272279 
L 117.892755 237.868943 
L 117.957692 120.687822 
L 117.990161 200.438296 
L 118.02263 188.104593 
L 118.087567 238.956074 
L 118.120036 135.531822 
L 118.217442 137.370175 
L 118.314848 187.635375 
L 118.28238 123.592334 
L 118.347317 177.372572 
L 118.379786 188.104593 
L 118.477192 122.965437 
L 118.542129 120.980956 
L 118.607067 190.081544 
L 118.76941 120.688979 
L 118.866816 192.396881 
L 118.996691 121.975344 
L 119.061628 118.682407 
L 119.126566 191.91728 
L 119.159034 191.143789 
L 119.191503 109.063481 
L 119.256441 121.6258 
L 119.386315 199.929695 
L 119.451253 191.143789 
L 119.483721 191.91728 
L 119.613596 122.989319 
L 119.646065 124.815808 
L 119.743471 114.506778 
L 119.77594 196.996002 
L 119.808408 133.10013 
L 119.905815 138.940842 
L 119.970752 196.276349 
L 120.035689 177.488527 
L 120.100627 178.174028 
L 120.165564 124.168448 
L 120.26297 192.25815 
L 120.295439 184.424035 
L 120.327908 188.148014 
L 120.360376 110.350725 
L 120.425314 200.716005 
L 120.457783 145.051041 
L 120.52272 181.753895 
L 120.620126 198.365779 
L 120.652595 191.91728 
L 120.717532 197.538664 
L 120.750001 192.25815 
L 120.847407 150.484899 
L 120.879876 114.506778 
L 120.912344 189.069177 
L 120.977282 192.503818 
L 121.00975 189.069177 
L 121.042219 183.261351 
L 121.074688 187.355381 
L 121.107157 200.716005 
L 121.172094 195.260231 
L 121.204563 109.943297 
L 121.2695 198.503897 
L 121.334437 198.554338 
L 121.366906 145.280225 
L 121.399375 193.393362 
L 121.431844 134.310732 
L 121.496781 180.456619 
L 121.52925 195.448677 
L 121.561718 182.201677 
L 121.594187 123.716427 
L 121.626656 188.774984 
L 121.659124 187.635375 
L 121.691593 198.864138 
L 121.756531 184.77047 
L 121.788999 146.587312 
L 121.853937 198.594736 
L 121.951343 187.968534 
L 121.983811 146.194733 
L 122.048749 196.276349 
L 122.081218 149.585807 
L 122.146155 143.660621 
L 122.178624 191.944796 
L 122.243561 122.965437 
L 122.27603 186.724412 
L 122.308498 194.918379 
L 122.340967 187.635375 
L 122.373436 131.730664 
L 122.438373 193.393362 
L 122.503311 205.742192 
L 122.568248 125.354006 
L 122.698123 197.373413 
L 122.730592 158.10116 
L 122.795529 193.01215 
L 122.827998 182.939779 
L 122.860466 191.790854 
L 122.892935 114.705646 
L 122.957873 148.744782 
L 123.02281 143.660621 
L 123.087747 198.503897 
L 123.120216 131.173002 
L 123.217622 145.051041 
L 123.250091 188.774984 
L 123.28256 167.090633 
L 123.315028 120.807116 
L 123.347497 189.473675 
L 123.379966 143.660621 
L 123.412434 145.051041 
L 123.444903 179.871843 
L 123.50984 146.194733 
L 123.542309 145.051041 
L 123.672184 187.145537 
L 123.704653 157.218001 
L 123.76959 188.774984 
L 123.964402 120.14046 
L 123.996871 178.300491 
L 124.061808 122.385316 
L 124.224152 178.743365 
L 124.256621 138.940842 
L 124.321558 194.135156 
L 124.354027 143.987641 
L 124.483901 123.94088 
L 124.51637 131.207817 
L 124.548839 181.068037 
L 124.613776 137.002967 
L 124.646245 148.744966 
L 124.678714 135.678646 
L 124.711182 122.630898 
L 124.743651 125.691767 
L 124.808588 121.975344 
L 124.841057 165.23802 
L 124.873526 123.94088 
L 124.905995 176.678524 
L 124.938463 145.051041 
L 124.970932 145.051041 
L 125.003401 125.507141 
L 125.100807 177.67979 
L 125.133276 122.630898 
L 125.230682 136.544127 
L 125.26315 148.118873 
L 125.295619 132.567912 
L 125.328088 125.354006 
L 125.457963 190.271551 
L 125.620306 135.678646 
L 125.750181 188.023021 
L 125.847587 144.061169 
L 125.880056 151.158095 
L 125.977462 127.150768 
L 126.074868 185.27817 
L 126.107337 134.068509 
L 126.139805 197.073804 
L 126.172274 163.338624 
L 126.204743 161.454965 
L 126.334617 132.698751 
L 126.399555 130.674656 
L 126.432024 145.393692 
L 126.464492 127.947563 
L 126.594367 182.33499 
L 126.626836 124.590272 
L 126.659304 237.868943 
L 126.724242 132.81574 
L 126.789179 192.778012 
L 126.821648 135.699051 
L 126.854117 134.549693 
L 126.886585 141.440408 
L 126.919054 138.937729 
L 126.951523 241.570806 
L 126.983991 128.837018 
L 127.01646 166.639833 
L 127.081398 127.947563 
L 127.113866 172.943506 
L 127.178804 132.553512 
L 127.211272 148.601527 
L 127.243741 234.672609 
L 127.308679 129.111339 
L 127.406085 238.956074 
L 127.471022 127.150768 
L 127.503491 157.541587 
L 127.535959 189.116372 
L 127.568428 133.125015 
L 127.600897 126.505322 
L 127.633366 132.698751 
L 127.698303 130.537264 
L 127.730772 238.956074 
L 127.76324 177.372572 
L 127.828178 238.956074 
L 127.925584 135.960281 
L 127.990521 241.570806 
L 128.055459 234.446461 
L 128.087927 231.272279 
L 128.152865 236.664364 
L 128.217802 127.061595 
L 128.250271 174.755186 
L 128.28274 121.663407 
L 128.347677 164.718554 
L 128.380146 131.538791 
L 128.445083 237.868943 
L 128.477552 234.446461 
L 128.51002 124.550137 
L 128.542489 236.664364 
L 128.607427 163.576623 
L 128.704833 234.672609 
L 128.672364 151.148955 
L 128.737301 222.991011 
L 128.802239 128.978644 
L 128.867176 131.382189 
L 128.932114 140.5551 
L 128.964582 125.446896 
L 129.02952 236.664364 
L 129.094457 234.446461 
L 129.126926 234.446461 
L 129.159394 231.272279 
L 129.191863 237.868943 
L 129.224332 125.191965 
L 129.321738 146.901311 
L 129.419144 238.956074 
L 129.451613 169.487496 
L 129.484081 241.570806 
L 129.51655 231.513353 
L 129.549019 234.446461 
L 129.581488 138.671556 
L 129.613956 236.664364 
L 129.646425 236.664364 
L 129.743831 231.272279 
L 129.808769 122.965437 
L 129.841237 142.670102 
L 129.906175 237.868943 
L 130.003581 234.672609 
L 130.068518 122.630898 
L 130.133456 169.487496 
L 130.165924 172.943506 
L 130.230862 231.513353 
L 130.295799 127.947563 
L 130.328268 131.260391 
L 130.360736 228.319739 
L 130.425674 126.809377 
L 130.458143 132.598914 
L 130.52308 238.956074 
L 130.555549 234.672609 
L 130.588017 142.670102 
L 130.652955 151.361863 
L 130.685423 241.570806 
L 130.717892 137.043862 
L 130.78283 236.664364 
L 130.912704 139.126855 
L 130.945173 142.429986 
L 130.977642 122.630898 
L 131.01011 238.956074 
L 131.075048 236.664364 
L 131.107517 122.630898 
L 131.172454 130.804573 
L 131.237391 234.672609 
L 131.26986 130.537264 
L 131.302329 129.6862 
L 131.334797 134.068509 
L 131.367266 122.393615 
L 131.432204 135.604495 
L 131.464672 135.604495 
L 131.497141 241.570806 
L 131.52961 124.265399 
L 131.594547 231.272279 
L 131.659484 232.961167 
L 131.691953 123.333441 
L 131.789359 241.570806 
L 131.854297 122.890116 
L 131.919234 140.267153 
L 131.951703 128.596746 
L 132.081578 238.956074 
L 132.146515 123.333441 
L 132.178984 124.550137 
L 132.211452 229.354454 
L 132.27639 225.565921 
L 132.308859 126.936563 
L 132.373796 230.315061 
L 132.406265 231.513353 
L 132.438733 132.567912 
L 132.503671 236.664364 
L 132.536139 232.961167 
L 132.666014 123.333441 
L 132.698483 236.664364 
L 132.76342 135.49898 
L 132.828358 135.531822 
L 132.925764 126.481996 
L 132.958233 236.664364 
L 133.055639 123.592334 
L 133.088107 241.570806 
L 133.153045 231.513353 
L 133.217982 121.975344 
L 133.250451 236.664364 
L 133.28292 229.354454 
L 133.315388 234.446461 
L 133.380326 124.732142 
L 133.445263 131.260391 
L 133.477732 125.691767 
L 133.575138 236.664364 
L 133.607607 121.443839 
L 133.672544 230.315061 
L 133.737481 241.570806 
L 133.76995 125.512824 
L 133.834887 137.002967 
L 133.932294 119.310361 
L 133.964762 234.672609 
L 133.997231 232.961167 
L 134.0297 138.337975 
L 134.062168 234.672609 
L 134.094637 223.109766 
L 134.159575 229.066329 
L 134.192043 117.957666 
L 134.256981 120.804527 
L 134.289449 218.411209 
L 134.354387 125.512824 
L 134.386855 140.443997 
L 134.451793 237.868943 
L 134.484262 226.819626 
L 134.581668 133.491413 
L 134.614136 229.066329 
L 134.679074 124.649489 
L 134.808949 234.446348 
L 134.873886 231.600613 
L 134.906355 221.613818 
L 134.938823 138.510354 
L 135.036229 171.080728 
L 135.068698 126.059925 
L 135.101167 225.565921 
L 135.133636 140.231523 
L 135.198573 231.600613 
L 135.231042 122.778947 
L 135.26351 128.320601 
L 135.295979 238.956074 
L 135.360916 124.732142 
L 135.393385 127.913661 
L 135.458323 224.839985 
L 135.490791 130.482797 
L 135.555729 119.349353 
L 135.588197 234.446348 
L 135.653135 125.333259 
L 135.685603 120.852347 
L 135.718072 229.066329 
L 135.750541 119.890684 
L 135.78301 133.299033 
L 135.880416 171.709894 
L 135.912884 120.512848 
L 135.945353 234.446348 
L 136.01029 133.299033 
L 136.075228 229.066329 
L 136.107697 118.631027 
L 136.237571 223.109766 
L 136.302509 234.446348 
L 136.334977 118.420829 
L 136.432384 226.819626 
L 136.464852 119.349353 
L 136.52979 169.48745 
L 136.594727 135.103837 
L 136.659665 229.066329 
L 136.692133 234.446348 
L 136.724602 229.066329 
L 136.757071 130.482797 
L 136.822008 229.066329 
L 136.854477 226.819626 
L 136.886945 234.446348 
L 136.919414 127.913661 
L 136.984352 184.50307 
L 137.01682 231.600613 
L 137.049289 154.468636 
L 137.114226 229.066329 
L 137.211632 119.785926 
L 137.244101 231.600613 
L 137.27657 118.631027 
L 137.309039 228.319739 
L 137.341507 153.699054 
L 137.373976 234.446348 
L 137.406445 231.600613 
L 137.471382 218.411209 
L 137.536319 136.560794 
L 137.568788 219.274751 
L 137.601257 169.48745 
L 137.633726 171.955251 
L 137.666194 149.333848 
L 137.7636 231.600613 
L 137.796069 118.631027 
L 137.861006 234.446348 
L 137.925944 124.649489 
L 137.990881 164.604341 
L 138.055819 120.512848 
L 138.088287 231.272279 
L 138.185693 226.819626 
L 138.218162 224.839985 
L 138.315568 231.600613 
L 138.348037 119.890684 
L 138.412974 138.510354 
L 138.445443 234.446348 
L 138.542849 231.600613 
L 138.640255 224.839985 
L 138.672724 118.420829 
L 138.737661 228.319631 
L 138.77013 231.600613 
L 138.802599 226.819626 
L 138.835068 120.512848 
L 138.932474 128.967408 
L 138.997411 231.600613 
L 139.062348 224.839985 
L 139.094817 228.319739 
L 139.192223 121.252995 
L 139.289629 231.600613 
L 139.257161 118.420829 
L 139.322098 228.319739 
L 139.354567 224.839985 
L 139.387035 174.671443 
L 139.484442 178.292842 
L 139.646785 121.446504 
L 139.679254 224.839985 
L 139.77666 184.574522 
L 139.809129 130.596809 
L 139.841597 226.819626 
L 139.874066 160.503656 
L 139.906535 223.109766 
L 139.939003 175.850672 
L 139.971472 130.211722 
L 140.036409 165.633855 
L 140.068878 172.884229 
L 140.166284 122.378719 
L 140.296159 231.600613 
L 140.231222 118.420829 
L 140.328628 226.819626 
L 140.361096 136.759546 
L 140.458503 170.258725 
L 140.490971 222.564943 
L 140.52344 143.147745 
L 140.555909 124.478119 
L 140.588377 143.265756 
L 140.620846 153.882906 
L 140.653315 234.446348 
L 140.718252 127.913661 
L 140.78319 225.565921 
L 140.815658 123.287815 
L 140.848127 163.292328 
L 140.913064 144.167363 
L 140.978002 176.619814 
L 141.010471 121.021741 
L 141.107877 134.142126 
L 141.172814 132.91238 
L 141.205283 143.101978 
L 141.237751 110.763154 
L 141.27022 144.683611 
L 141.302689 121.901438 
L 141.335158 127.12592 
L 141.367626 112.001853 
L 141.400095 136.272535 
L 141.432564 132.03954 
L 141.52997 167.694991 
L 141.562438 112.173628 
L 141.627376 149.922539 
L 141.659845 157.92732 
L 141.692313 139.477473 
L 141.724782 139.477473 
L 141.757251 115.290346 
L 141.822188 139.477473 
L 141.887125 139.477473 
L 141.919594 146.413175 
L 141.984532 139.477473 
L 142.114406 139.477473 
L 142.146875 111.919363 
L 142.179344 153.463483 
L 142.211812 141.868627 
L 142.27675 115.487944 
L 142.341687 118.040324 
L 142.471562 149.922539 
L 142.504031 122.742342 
L 142.536499 170.663663 
L 142.568968 124.826295 
L 142.601437 163.292328 
L 142.666374 137.229566 
L 142.698843 132.625713 
L 142.731312 171.998854 
L 142.796249 155.444305 
L 142.828718 136.693523 
L 142.861186 152.530639 
L 142.893655 228.319739 
L 142.958593 156.375468 
L 142.991061 160.803792 
L 143.120936 136.389127 
L 143.218342 217.928143 
L 143.250811 174.440342 
L 143.28328 139.991685 
L 143.315748 184.821524 
L 143.348217 229.066329 
L 143.380686 164.513015 
L 143.445623 157.893376 
L 143.543029 150.107896 
L 143.705373 224.839985 
L 143.737841 130.349493 
L 143.77031 229.066329 
L 143.802779 176.905138 
L 143.835248 217.928143 
L 143.900185 173.327028 
L 143.932654 160.503656 
L 143.997591 234.446348 
L 144.03006 163.29237 
L 144.062528 141.999198 
L 144.094997 234.446348 
L 144.159935 226.819626 
L 144.289809 153.141401 
L 144.322278 145.816684 
L 144.387215 231.600613 
L 144.452153 170.258725 
L 144.51709 170.258725 
L 144.549559 171.080728 
L 144.582028 170.258725 
L 144.614496 166.27934 
L 144.646965 226.819626 
L 144.711902 169.48745 
L 144.744371 160.503656 
L 144.77684 229.066329 
L 144.841777 163.29237 
L 144.874246 169.971006 
L 144.906715 163.29237 
L 144.939183 157.893376 
L 145.036589 229.066329 
L 145.069058 163.29237 
L 145.133996 170.258725 
L 145.166464 229.066329 
L 145.231402 180.728007 
L 145.26387 155.444305 
L 145.328808 184.384173 
L 145.426214 157.186653 
L 145.458683 224.839985 
L 145.491151 134.791576 
L 145.52362 166.81713 
L 145.621026 184.172532 
L 145.653495 183.763156 
L 145.750901 153.13444 
L 145.78337 156.182657 
L 145.880776 226.819626 
L 145.913244 183.965541 
L 145.945713 156.800114 
L 146.010651 157.186653 
L 146.043119 184.384173 
L 146.075588 145.81248 
L 146.108057 157.893376 
L 146.140525 166.27934 
L 146.172994 156.800114 
L 146.302869 139.376813 
L 146.335338 184.384173 
L 146.400275 156.800114 
L 146.432744 160.503656 
L 146.465212 180.728007 
L 146.53015 156.800114 
L 146.562618 169.971006 
L 146.627556 156.800114 
L 146.660025 157.030238 
L 146.692493 166.27934 
L 146.724962 150.971472 
L 146.757431 148.922898 
L 146.822368 157.108175 
L 146.854837 155.444305 
L 146.887305 150.971472 
L 146.919774 156.724633 
L 146.952243 156.649765 
L 146.984712 153.141401 
L 147.01718 129.723997 
L 147.082118 150.971472 
L 147.211992 157.893376 
L 147.244461 147.378034 
L 147.309399 153.141401 
L 147.374336 157.108175 
L 147.406805 155.444305 
L 147.471742 150.971472 
L 147.504211 157.893376 
L 147.536679 156.800114 
L 147.569148 145.149869 
L 147.601617 156.952916 
L 147.634086 180.728007 
L 147.666554 153.141401 
L 147.699023 156.724633 
L 147.76396 156.800114 
L 147.828898 145.149869 
L 147.893835 146.985404 
L 147.991241 156.724633 
L 148.088647 141.753052 
L 148.056179 156.800114 
L 148.121116 143.408171 
L 148.153585 156.800114 
L 148.218522 141.753052 
L 148.380866 156.501863 
L 148.478272 141.753052 
L 148.510741 143.408171 
L 148.543209 143.408171 
L 148.575678 141.753052 
L 148.608147 156.284593 
L 148.673084 141.753052 
L 148.705553 141.753052 
L 148.835428 156.356405 
L 148.900365 141.753052 
L 148.932834 156.284593 
L 148.965302 156.284593 
L 148.997771 121.178467 
L 149.062708 141.753052 
L 149.192583 156.284593 
L 149.322458 141.753052 
L 149.419864 141.753052 
L 149.549739 156.284593 
L 149.647145 156.284593 
L 149.744551 141.753052 
L 149.874426 156.284593 
L 150.004301 141.753052 
L 150.101707 156.284593 
L 150.166644 140.178005 
L 150.199113 156.501863 
L 150.231582 141.753052 
L 150.26405 156.428828 
L 150.296519 104.565873 
L 150.328988 156.649765 
L 150.361457 156.501863 
L 150.491331 140.178005 
L 150.556269 141.753052 
L 150.588737 118.058712 
L 150.621206 141.753052 
L 150.686144 156.800114 
L 150.718612 141.753052 
L 150.751081 108.800071 
L 150.816018 152.914098 
L 150.848487 152.914098 
L 150.978362 102.391584 
L 151.010831 149.532341 
L 151.075768 106.8237 
L 151.108237 104.565873 
L 151.140705 146.292752 
L 151.205643 139.000218 
L 151.303049 112.508327 
L 151.335518 119.579049 
L 151.400455 148.282536 
L 151.432924 119.579049 
L 151.465392 111.830367 
L 151.497861 152.914098 
L 151.595267 147.085052 
L 151.660205 136.332382 
L 151.692673 106.8237 
L 151.725142 145.940355 
L 151.757611 143.1898 
L 151.790079 152.914098 
L 151.822548 139.000218 
L 151.919954 104.565873 
L 152.049829 145.940355 
L 152.179704 104.565873 
L 152.244641 139.000218 
L 152.27711 104.565873 
L 152.309579 105.870674 
L 152.342047 152.914098 
L 152.374516 104.565873 
L 152.406985 118.018264 
L 152.439453 130.51234 
L 152.471922 94.26093 
L 152.504391 152.914098 
L 152.569328 101.640436 
L 152.601797 152.914098 
L 152.666734 131.701374 
L 152.731672 131.886901 
L 152.76414 106.376009 
L 152.796609 156.126351 
L 152.861547 149.532341 
L 152.926484 156.126351 
L 152.991421 104.565873 
L 153.02389 95.738322 
L 153.153765 130.274383 
L 153.218702 118.545966 
L 153.251171 135.868981 
L 153.316108 118.545966 
L 153.348577 118.545966 
L 153.381046 127.134597 
L 153.445983 118.545966 
L 153.478452 110.086413 
L 153.510921 131.886901 
L 153.575858 118.545966 
L 153.608327 118.545966 
L 153.640795 118.058712 
L 153.738201 118.545966 
L 153.77067 114.254655 
L 153.803139 165.451515 
L 153.868076 114.254655 
L 153.965482 151.413017 
L 154.03042 114.254655 
L 154.095357 118.058712 
L 154.127826 131.701374 
L 154.192763 118.058712 
L 154.225232 119.381244 
L 154.257701 118.058712 
L 154.387575 139.964578 
L 154.420044 118.545966 
L 154.452513 131.038481 
L 154.484982 151.716266 
L 154.51745 119.607181 
L 154.614856 118.058712 
L 154.744731 141.386977 
L 154.7772 141.386977 
L 154.842137 182.05988 
L 154.874606 139.964578 
L 154.939543 143.230286 
L 155.004481 119.719787 
L 155.101887 157.982686 
L 155.134356 139.964578 
L 155.231762 118.865293 
L 155.329168 184.546028 
L 155.361637 118.865293 
L 155.394105 193.040258 
L 155.426574 134.871969 
L 155.459043 196.2835 
L 155.52398 111.021698 
L 155.556449 118.865293 
L 155.588917 111.021698 
L 155.621386 177.933161 
L 155.686324 115.9293 
L 155.78373 145.069638 
L 155.751261 110.941726 
L 155.816198 138.002114 
L 155.848667 139.668708 
L 155.881136 190.591474 
L 155.913604 122.179503 
L 155.946073 139.668708 
L 155.978542 106.263334 
L 156.043479 148.735206 
L 156.075948 184.546028 
L 156.108417 145.601352 
L 156.140885 158.262329 
L 156.238291 115.9293 
L 156.368166 120.263306 
L 156.400635 120.263306 
L 156.465572 152.261068 
L 156.498041 121.335365 
L 156.53051 115.9293 
L 156.562978 121.194992 
L 156.627916 148.848965 
L 156.660385 110.941726 
L 156.725322 154.333764 
L 156.855197 148.848965 
L 156.887665 126.873112 
L 156.952603 130.918259 
L 156.985072 203.09932 
L 157.01754 120.263306 
L 157.082478 172.81817 
L 157.114946 120.263306 
L 157.147415 148.848965 
L 157.179884 203.09932 
L 157.212353 145.069638 
L 157.244821 158.180159 
L 157.27729 120.263306 
L 157.309759 201.414672 
L 157.342227 198.343243 
L 157.374696 201.414672 
L 157.407165 203.09932 
L 157.472102 120.263306 
L 157.53704 145.069638 
L 157.601977 120.263306 
L 157.666914 199.828746 
L 157.699383 120.263306 
L 157.796789 152.261068 
L 157.829258 201.414672 
L 157.894195 152.261068 
L 157.959133 152.261068 
L 158.056539 120.263306 
L 158.186414 201.414672 
L 158.251351 120.263306 
L 158.28382 158.180159 
L 158.316288 203.11153 
L 158.381226 152.261068 
L 158.413694 158.262329 
L 158.446163 121.194992 
L 158.478632 193.685885 
L 158.511101 122.179503 
L 158.640975 145.069638 
L 158.673444 145.069638 
L 158.705913 124.321913 
L 158.738381 170.091401 
L 158.77085 170.091401 
L 158.803319 203.11153 
L 158.835788 123.22045 
L 158.900725 123.22045 
L 158.998131 152.261068 
L 159.0306 146.904755 
L 159.063068 123.22045 
L 159.128006 144.26547 
L 159.290349 152.261068 
L 159.322818 126.725444 
L 159.387756 149.820842 
L 159.420224 203.09932 
L 159.452693 145.369402 
L 159.51763 124.321913 
L 159.550099 126.725444 
L 159.582568 158.670451 
L 159.647505 126.725444 
L 159.712443 156.048955 
L 159.77738 154.104084 
L 159.842317 125.488503 
L 159.907255 145.069638 
L 159.939723 150.629707 
L 159.972192 143.268406 
L 160.004661 126.725444 
L 160.03713 145.601352 
L 160.069598 139.668708 
L 160.102067 139.668708 
L 160.134536 147.35939 
L 160.231942 145.601352 
L 160.329348 136.415425 
L 160.361817 139.668708 
L 160.426754 136.415425 
L 160.556629 159.440924 
L 160.621566 139.668708 
L 160.654035 142.337796 
L 160.686504 171.777945 
L 160.751441 159.440924 
L 160.78391 104.6783 
L 160.848847 148.821635 
L 160.881316 159.440924 
L 160.913784 144.249782 
L 160.946253 156.350904 
L 160.978722 108.654603 
L 161.043659 145.601352 
L 161.076128 156.350904 
L 161.108597 139.668708 
L 161.141065 147.35939 
L 161.173534 143.268406 
L 161.303409 159.440924 
L 161.400815 142.337796 
L 161.433284 159.440924 
L 161.465752 146.421216 
L 161.563158 156.350904 
L 161.595627 116.608016 
L 161.660565 156.341932 
L 161.725502 150.954839 
L 161.757971 156.341932 
L 161.855377 108.654603 
L 161.887846 138.002114 
L 161.920314 153.265684 
L 161.952783 112.262456 
L 162.01772 149.211034 
L 162.050189 143.929658 
L 162.082658 159.440924 
L 162.147595 153.265684 
L 162.180064 127.618691 
L 162.212533 156.341932 
L 162.245001 153.265684 
L 162.27747 150.954839 
L 162.309939 154.771216 
L 162.342407 156.341932 
L 162.439813 118.055465 
L 162.472282 158.670451 
L 162.569688 148.655137 
L 162.699563 130.798443 
L 162.829438 156.341932 
L 162.861907 119.244514 
L 162.926844 127.506577 
L 163.02425 157.74621 
L 163.089187 156.341932 
L 163.121656 150.954839 
L 163.154125 159.440924 
L 163.186594 113.487163 
L 163.251531 156.341932 
L 163.348937 135.608906 
L 163.381406 154.898243 
L 163.413874 138.445594 
L 163.446343 113.395896 
L 163.478812 152.092867 
L 163.511281 146.361386 
L 163.576218 156.341932 
L 163.608687 138.445594 
L 163.641155 156.23435 
L 163.706093 153.631191 
L 163.803499 98.505925 
L 163.835968 247.465183 
L 163.900905 153.265684 
L 163.933374 136.023377 
L 163.965842 156.341932 
L 163.998311 137.956263 
L 164.03078 153.514584 
L 164.063249 260.95935 
L 164.095717 131.89835 
L 164.128186 235.632275 
L 164.160655 127.656679 
L 164.258061 153.412224 
L 164.290529 156.234326 
L 164.355467 119.060361 
L 164.387936 156.23435 
L 164.420404 153.265684 
L 164.485342 156.341932 
L 164.51781 100.788748 
L 164.550279 156.341932 
L 164.647685 135.045759 
L 164.745091 156.341932 
L 164.77756 154.898243 
L 164.810029 103.292747 
L 164.874966 151.133037 
L 165.004841 156.341932 
L 165.03731 136.995294 
L 165.102247 153.265684 
L 165.167184 154.898243 
L 165.199653 146.421216 
L 165.26459 153.265684 
L 165.297059 153.518564 
L 165.329528 156.341932 
L 165.361997 153.631191 
L 165.426934 152.198573 
L 165.459403 156.23435 
L 165.491871 88.955123 
L 165.556809 156.234326 
L 165.589277 153.514584 
L 165.621746 84.920863 
L 165.654215 156.341932 
L 165.719152 88.745409 
L 165.78409 154.898243 
L 165.816558 153.518564 
L 165.849027 96.857592 
L 165.881496 156.341932 
L 165.913964 130.666241 
L 165.946433 151.829034 
L 165.978902 106.963704 
L 166.011371 97.622447 
L 166.108777 154.898243 
L 166.173714 156.23435 
L 166.206183 97.210406 
L 166.238652 156.23435 
L 166.336058 151.829034 
L 166.433464 152.092867 
L 166.465932 132.076216 
L 166.53087 159.465801 
L 166.595807 153.265684 
L 166.628276 134.902791 
L 166.660745 159.465801 
L 166.693213 136.415425 
L 166.758151 156.23435 
L 166.823088 151.829331 
L 166.888026 156.23435 
L 166.952963 154.791277 
L 166.985432 156.23435 
L 167.0179 132.076216 
L 167.082838 151.829034 
L 167.115306 154.791277 
L 167.147775 229.883358 
L 167.212713 156.23435 
L 167.245181 156.23435 
L 167.27765 159.465801 
L 167.310119 151.829034 
L 167.342587 231.055266 
L 167.407525 130.758916 
L 167.439993 159.465801 
L 167.5374 151.829034 
L 167.634806 156.23435 
L 167.667274 154.791277 
L 167.699743 82.560216 
L 167.76468 153.265684 
L 167.797149 156.23435 
L 167.829618 154.791277 
L 167.894555 134.902791 
L 167.927024 151.829034 
L 167.959493 156.23435 
L 167.991961 234.850202 
L 168.02443 82.560216 
L 168.056899 133.458933 
L 168.121836 159.465801 
L 168.186774 156.23435 
L 168.219242 153.265684 
L 168.251711 159.465801 
L 168.28418 157.962258 
L 168.316648 77.759342 
L 168.381586 156.23435 
L 168.478992 137.985472 
L 168.511461 156.23435 
L 168.543929 136.415425 
L 168.576398 76.536472 
L 168.608867 153.265684 
L 168.641335 133.458933 
L 168.77121 156.23435 
L 168.803679 156.23435 
L 168.836148 153.265684 
L 168.868616 73.63093 
L 168.933554 74.203072 
L 169.063429 156.23435 
L 169.193303 75.257025 
L 169.225772 157.962258 
L 169.323178 151.829034 
L 169.355647 77.797546 
L 169.420584 131.247838 
L 169.485522 156.23435 
L 169.550459 159.465801 
L 169.582928 80.929956 
L 169.680334 156.23435 
L 169.712803 154.791277 
L 169.745271 152.092867 
L 169.77774 79.379315 
L 169.810209 233.14911 
L 169.842677 154.791277 
L 169.875146 153.265684 
L 169.907615 76.498245 
L 169.972552 136.995294 
L 170.102427 156.23435 
L 170.134896 154.791277 
L 170.199833 156.23435 
L 170.232302 74.083451 
L 170.297239 159.465801 
L 170.329708 77.797546 
L 170.427114 156.23435 
L 170.459583 76.536472 
L 170.52452 128.785834 
L 170.556989 156.23435 
L 170.621926 127.197802 
L 170.654395 131.038481 
L 170.719332 156.23435 
L 170.751801 131.038481 
L 170.816738 156.23435 
L 170.849207 129.307036 
L 170.881676 129.024514 
L 171.011551 155.157136 
L 171.044019 154.791277 
L 171.108957 156.23435 
L 171.141425 108.150262 
L 171.206363 131.167239 
L 171.303769 159.465801 
L 171.336238 156.23435 
L 171.433644 157.962258 
L 171.466112 228.221205 
L 171.53105 154.791277 
L 171.628456 159.465801 
L 171.758331 136.415425 
L 171.790799 136.415425 
L 171.823268 134.902791 
L 171.855737 157.962258 
L 171.920674 134.902791 
L 171.953143 136.415425 
L 172.050549 159.465801 
L 172.147955 136.415425 
L 172.180424 157.962258 
L 172.245361 136.415425 
L 172.27783 136.415425 
L 172.310299 159.465801 
L 172.375236 156.527625 
L 172.407705 133.458933 
L 172.472642 159.465801 
L 172.505111 136.415425 
L 172.602517 159.465801 
L 172.634986 156.527625 
L 172.732392 159.465801 
L 172.76486 136.415425 
L 172.862267 230.921704 
L 172.894735 134.902791 
L 172.992141 156.23435 
L 173.057079 159.465801 
L 173.122016 136.415425 
L 173.154485 159.465801 
L 173.219422 154.791277 
L 173.316828 159.465801 
L 173.349297 136.415425 
L 173.381766 136.415425 
L 173.479172 133.458933 
L 173.544109 161.043529 
L 173.609047 134.902791 
L 173.673984 151.829331 
L 173.706453 159.465801 
L 173.738922 132.079082 
L 173.803859 134.902791 
L 173.836328 159.465801 
L 173.933734 154.791277 
L 173.966202 156.23435 
L 173.998671 134.902791 
L 174.063609 154.791277 
L 174.096077 226.99825 
L 174.128546 153.412224 
L 174.161015 153.412224 
L 174.193483 153.265684 
L 174.258421 106.341908 
L 174.323358 223.442121 
L 174.355827 153.265684 
L 174.388296 136.415425 
L 174.420764 156.23435 
L 174.453233 153.265684 
L 174.485702 159.465801 
L 174.51817 156.263436 
L 174.550639 139.370728 
L 174.615576 153.265684 
L 174.648045 153.412224 
L 174.77792 156.23435 
L 174.810389 149.373774 
L 174.875326 154.791277 
L 174.940263 156.263436 
L 174.972732 151.413017 
L 175.005201 107.628582 
L 175.070138 153.265684 
L 175.135076 136.415425 
L 175.167544 138.445594 
L 175.200013 154.791277 
L 175.232482 131.606161 
L 175.26495 153.416371 
L 175.297419 107.628582 
L 175.362357 109.144768 
L 175.492231 155.960656 
L 175.5247 136.415425 
L 175.589638 147.673512 
L 175.622106 147.673512 
L 175.687044 151.413017 
L 175.719512 128.537256 
L 175.78445 152.286243 
L 175.816918 147.830961 
L 175.849387 116.027623 
L 175.914325 149.409569 
L 175.946793 122.548693 
L 176.141605 223.442121 
L 176.174074 223.442121 
L 176.206543 226.99825 
L 176.27148 136.415425 
L 176.303949 150.660059 
L 176.368886 141.478133 
L 176.401355 249.416025 
L 176.498761 142.337796 
L 176.53123 143.491793 
L 176.563699 136.415425 
L 176.628636 142.337796 
L 176.693573 138.445594 
L 176.726042 142.337796 
L 176.758511 142.337796 
L 176.855917 135.608906 
L 176.888386 171.27943 
L 177.01826 116.064872 
L 177.050729 163.55441 
L 177.148135 160.844931 
L 177.180604 169.142757 
L 177.245541 179.226406 
L 177.310479 134.902791 
L 177.440353 142.337796 
L 177.505291 134.902791 
L 177.53776 142.337796 
L 177.602697 136.415425 
L 177.667634 164.731269 
L 177.765041 136.415425 
L 177.797509 142.337796 
L 177.829978 134.902791 
L 177.927384 169.699316 
L 178.02479 134.902791 
L 178.057259 142.337796 
L 178.089728 133.458933 
L 178.122196 166.496382 
L 178.187134 136.415425 
L 178.317008 142.337796 
L 178.381946 142.337796 
L 178.446883 140.819912 
L 178.479352 142.337796 
L 178.511821 170.560381 
L 178.576758 167.929961 
L 178.706633 133.458933 
L 178.804039 142.337796 
L 178.836508 122.566596 
L 178.868976 152.966165 
L 178.901445 136.415425 
L 178.966382 134.902791 
L 178.998851 136.415425 
L 179.03132 142.337796 
L 179.096257 136.415425 
L 179.128726 136.415425 
L 179.226132 142.337796 
L 179.356007 136.415425 
L 179.485882 142.337796 
L 179.51835 136.415425 
L 179.583288 142.337796 
L 179.648225 136.415425 
L 179.680694 142.337796 
L 179.713163 142.337796 
L 179.745631 136.415425 
L 179.810569 142.337796 
L 179.907975 142.337796 
L 179.972912 136.415425 
L 180.005381 142.337796 
L 180.03785 140.819912 
L 180.102787 142.337796 
L 180.135256 142.337796 
L 180.200193 136.415425 
L 180.232662 142.337796 
L 180.362537 142.337796 
L 180.395005 134.902791 
L 180.459943 142.337796 
L 180.589818 142.337796 
L 180.687224 116.140494 
L 180.817098 142.337796 
L 180.946973 142.337796 
L 181.044379 136.415425 
L 181.174254 142.337796 
L 181.27166 142.337796 
L 181.304129 136.415425 
L 181.369066 142.337796 
L 181.401535 142.337796 
L 181.434004 136.415425 
L 181.498941 142.337796 
L 181.53141 139.668708 
L 181.563879 142.337796 
L 181.596347 145.216898 
L 181.661285 136.415425 
L 181.693753 138.002114 
L 181.791159 147.276316 
L 181.823628 138.002114 
L 181.888566 142.337796 
L 182.01844 142.337796 
L 182.050909 136.415425 
L 182.115846 142.337796 
L 182.148315 142.337796 
L 182.180784 140.819912 
L 182.245721 142.337796 
L 182.473002 142.337796 
L 182.505471 136.415425 
L 182.570408 142.337796 
L 182.667814 142.337796 
L 182.765221 136.415425 
L 182.895095 142.337796 
L 183.219782 142.337796 
L 183.252251 140.819912 
L 183.317188 142.337796 
L 183.479532 142.337796 
L 183.512001 140.819912 
L 183.576938 142.337796 
L 183.641875 142.337796 
L 183.674344 136.415425 
L 183.739282 142.337796 
L 183.869156 142.337796 
L 183.934094 136.415425 
L 183.966562 142.337796 
L 184.291249 142.337796 
L 184.323718 145.601352 
L 184.388656 174.752029 
L 184.453593 162.895776 
L 184.486062 160.81073 
L 184.51853 173.802192 
L 184.583468 162.895776 
L 184.615937 162.895776 
L 184.648405 167.884817 
L 184.713343 162.895776 
L 184.843217 162.895776 
L 184.973092 152.124016 
L 185.03803 162.895776 
L 185.070498 136.851528 
L 185.135436 162.895776 
L 185.232842 162.895776 
L 185.265311 136.851528 
L 185.362717 143.678335 
L 185.395185 162.895776 
L 185.427654 128.721175 
L 185.460123 128.721175 
L 185.492591 118.812944 
L 185.589998 162.895776 
L 185.622466 147.662708 
L 185.654935 162.895776 
L 185.687404 141.421719 
L 185.719872 143.678335 
L 185.752341 147.662708 
L 185.817278 115.71288 
L 185.849747 133.900038 
L 185.947153 162.895776 
L 186.044559 126.434357 
L 186.077028 133.900038 
L 186.109497 157.15956 
L 186.141965 118.812944 
L 186.174434 120.522004 
L 186.206903 118.812944 
L 186.239372 133.900038 
L 186.304309 131.200751 
L 186.369246 107.364711 
L 186.434184 111.723382 
L 186.53159 124.317749 
L 186.596527 107.364711 
L 186.628996 124.317749 
L 186.693933 126.434357 
L 186.758871 112.975181 
L 186.888746 124.317749 
L 186.921214 114.302752 
L 187.01862 118.152659 
L 187.505651 118.152659 
L 187.53812 118.961194 
L 187.603057 118.152659 
L 187.895275 118.152659 
L 187.992681 120.918032 
L 188.090088 93.185465 
L 188.2849 96.349092 
L 188.317368 95.324831 
L 188.349837 96.349092 
L 188.479712 99.530572 
L 188.544649 97.390889 
L 188.609587 98.451081 
L 188.739462 100.630311 
L 188.869336 98.451081 
L 188.901805 100.630311 
L 188.966742 98.451081 
L 189.03168 91.387195 
L 189.096617 95.731222 
L 189.388836 135.003551 
L 189.421304 131.879491 
L 189.453773 133.610481 
L 189.616117 139.730194 
L 189.648585 139.730194 
L 189.77846 136.362213 
L 189.810929 135.003551 
L 189.875866 145.61216 
L 189.940804 141.849928 
L 190.03821 139.730194 
L 190.070678 151.225717 
L 190.135616 147.138516 
L 190.168084 141.849928 
L 190.233022 145.61216 
L 190.362897 156.753152 
L 190.492771 149.63166 
L 190.52524 151.225717 
L 190.557709 150.45992 
L 190.590178 112.970459 
L 190.655115 156.753152 
L 190.687584 159.681375 
L 190.752521 118.783271 
L 190.78499 120.339467 
L 190.817458 162.725506 
L 190.882396 125.297011 
L 191.304489 143.670221 
L 191.856457 143.670221 
L 191.888926 145.188105 
L 191.953863 143.670221 
L 192.116207 143.670221 
L 192.148675 145.188105 
L 192.181144 143.670221 
L 192.213613 110.842536 
L 192.27855 145.188105 
L 192.311019 145.188105 
L 192.343487 143.670221 
L 192.408425 110.719165 
L 192.473362 110.842536 
L 192.505831 143.670221 
L 192.570768 110.842536 
L 192.830518 110.842536 
L 192.862987 110.719165 
L 192.927924 110.842536 
L 194.583828 110.842536 
L 194.681234 100.964597 
L 194.713703 103.180184 
L 194.746171 103.180184 
L 194.876046 102.061439 
L 194.940984 102.061439 
L 194.973452 103.180184 
L 195.005921 102.061439 
L 195.168264 99.888619 
L 195.200733 100.964597 
L 195.233202 98.832522 
L 195.265671 98.832522 
L 195.428014 95.774393 
L 195.460483 96.776276 
L 195.492951 95.774393 
L 195.720232 88.288472 
L 195.752701 88.288472 
L 195.78517 87.408694 
L 195.817638 89.179209 
L 195.850107 88.288472 
L 195.882576 88.288472 
L 195.915045 88.536 
L 196.044919 83.28553 
L 196.077388 83.416455 
L 196.369606 74.166953 
L 196.402075 74.253132 
L 196.53195 73.065613 
L 196.661825 74.109136 
L 196.694293 73.155023 
L 196.7917 73.417105 
L 196.824168 73.417105 
L 196.856637 74.477769 
L 196.889106 73.120643 
L 196.954043 74.14722 
L 196.986512 73.417105 
L 197.051449 74.105691 
L 197.181324 74.477769 
L 197.213793 74.105691 
L 197.246261 74.420995 
L 197.311199 75.384699 
L 197.343667 74.232091 
L 197.408605 75.081791 
L 197.473542 74.883585 
L 197.506011 75.587572 
L 197.570948 75.384126 
L 197.603417 74.990218 
L 197.668354 75.384126 
L 197.733292 75.337134 
L 197.928104 79.630537 
L 198.02551 76.984024 
L 198.122916 77.375666 
L 198.220322 78.346779 
L 198.252791 77.55976 
L 198.28526 78.877835 
L 198.317729 79.032299 
L 198.350197 78.099399 
L 198.382666 78.763781 
L 198.512541 112.963178 
L 198.545009 112.963178 
L 198.577478 112.833893 
L 198.642416 112.963178 
L 198.707353 113.098527 
L 198.739822 112.963178 
L 198.77229 112.963178 
L 198.804759 110.842536 
L 198.869696 112.963178 
L 198.902165 112.963178 
L 198.999571 113.541124 
L 199.03204 113.098527 
L 199.064509 112.963178 
L 199.096977 117.163978 
L 199.161915 112.963178 
L 199.194383 112.963178 
L 199.324258 113.387481 
L 199.356727 112.963178 
L 199.389196 113.387481 
L 199.421664 113.700905 
L 199.551539 82.294473 
L 199.584008 80.845222 
L 199.648945 82.294473 
L 199.681414 82.294473 
L 199.746351 85.098288 
L 199.843757 84.065391 
L 199.908695 82.294473 
L 199.941164 117.163978 
L 200.006101 82.294473 
L 200.071038 84.065391 
L 200.200913 117.163978 
L 200.395725 117.163978 
L 200.428194 83.135052 
L 200.493131 117.163978 
L 201.53213 117.163978 
L 201.564599 121.706554 
L 201.629536 117.163978 
L 201.824348 117.163978 
L 201.921754 124.82337 
L 201.954223 124.689729 
L 201.986692 124.753382 
L 202.01916 123.180068 
L 202.051629 98.065348 
L 202.084098 124.689729 
L 202.116567 124.689729 
L 202.27891 127.936554 
L 202.311379 124.82337 
L 202.343847 98.065348 
L 202.408785 125.735934 
L 202.473722 125.375427 
L 202.506191 124.753382 
L 202.53866 126.4316 
L 202.603597 126.295279 
L 202.701003 95.080422 
L 202.733472 98.065348 
L 202.765941 98.065348 
L 202.830878 118.906139 
L 202.960753 117.163978 
L 202.993222 115.675747 
L 203.02569 128.280042 
L 203.058159 115.129628 
L 203.123096 127.112903 
L 203.155565 122.535795 
L 203.188034 122.837239 
L 203.220502 129.614156 
L 203.252971 122.705244 
L 203.28544 125.489352 
L 203.317909 126.509421 
L 203.350377 113.653421 
L 203.415315 124.982278 
L 203.480252 120.931693 
L 203.512721 123.404656 
L 203.545189 126.509421 
L 203.577658 122.579085 
L 203.610127 123.404656 
L 203.707533 126.185957 
L 203.869876 120.267376 
L 203.999751 126.185957 
L 204.064689 123.117421 
L 204.097157 124.632433 
L 204.162095 126.185957 
L 204.194563 124.632433 
L 204.29197 121.638945 
L 204.324438 127.780112 
L 204.389376 123.117421 
L 204.51925 126.185957 
L 204.681594 123.117421 
L 204.746531 126.185957 
L 204.779 120.195162 
L 204.843937 126.185957 
L 204.876406 126.185957 
L 204.973812 123.117421 
L 205.006281 127.780112 
L 205.103687 126.185957 
L 205.136156 127.780112 
L 205.201093 126.185957 
L 205.233562 123.117421 
L 205.266031 126.185957 
L 205.298499 127.780112 
L 205.330968 126.185957 
L 205.460843 123.117421 
L 205.558249 124.632433 
L 205.590718 123.117421 
L 205.655655 124.632433 
L 205.688124 127.780112 
L 205.753061 126.185957 
L 205.78553 126.185957 
L 205.882936 127.780112 
L 205.915405 126.185957 
L 205.947873 127.780112 
L 205.980342 129.417176 
L 206.045279 127.780112 
L 206.077748 127.780112 
L 206.110217 124.632433 
L 206.175154 127.780112 
L 206.305029 127.780112 
L 206.369966 123.117421 
L 206.434904 126.185957 
L 206.467373 126.185957 
L 206.499841 127.780112 
L 206.53231 124.632433 
L 206.564779 126.185957 
L 206.629716 120.195162 
L 206.662185 127.780112 
L 206.727122 123.117421 
L 206.759591 117.404871 
L 206.824528 124.632433 
L 206.856997 118.784344 
L 207.01934 126.185957 
L 207.084278 117.404871 
L 207.149215 118.784344 
L 207.181684 118.784344 
L 207.214153 110.842536 
L 207.27909 118.784344 
L 207.311559 120.195162 
L 207.344027 118.784344 
L 207.636246 110.842536 
L 207.766121 110.842536 
L 207.895995 105.537269 
L 210.363617 105.537269 
L 210.493492 113.939943 
L 212.311739 113.855746 
L 212.344208 114.328164 
L 212.409145 113.939943 
L 212.441614 113.855746 
L 212.474082 114.029288 
L 212.506551 114.029288 
L 212.636426 113.855746 
L 212.668895 113.855746 
L 212.733832 114.123775 
L 212.766301 113.855746 
L 212.831238 114.029288 
L 212.863707 113.939943 
L 212.928644 113.855746 
L 212.961113 113.939943 
L 213.02605 114.029288 
L 213.058519 114.673277 
L 213.155925 114.553101 
L 213.188394 114.929064 
L 213.220862 114.438064 
L 213.2858 114.798596 
L 213.350737 114.553101 
L 213.415675 115.205472 
L 213.448143 115.064686 
L 213.480612 115.658906 
L 213.545549 115.50257 
L 213.578018 115.064686 
L 213.610487 115.658906 
L 213.642956 115.658906 
L 213.740362 115.064686 
L 213.77283 115.820451 
L 213.837768 115.658906 
L 213.902705 115.205472 
L 213.935174 116.159227 
L 213.967643 115.064686 
L 214.000111 115.064686 
L 214.097517 115.50257 
L 214.129986 115.35143 
L 214.29233 114.798596 
L 214.389736 115.35143 
L 214.454673 114.798596 
L 214.487142 115.205472 
L 214.519611 115.820451 
L 214.584548 115.205472 
L 214.714423 115.987219 
L 214.876766 115.205472 
L 215.03911 116.336493 
L 215.071578 115.987219 
L 215.104047 117.302407 
L 215.168985 116.159227 
L 215.201453 116.159227 
L 215.331328 117.098537 
L 215.396265 116.900035 
L 215.461203 117.726356 
L 215.493672 117.511671 
L 215.591078 116.900035 
L 215.623546 117.098537 
L 215.688484 116.900035 
L 215.720952 117.098537 
L 215.753421 117.302407 
L 215.78589 116.706876 
L 215.850827 117.302407 
L 215.883296 117.098537 
L 215.915765 117.511671 
L 215.948233 117.511671 
L 216.078108 117.302407 
L 216.175514 117.302407 
L 216.207983 117.726356 
L 216.240452 116.900035 
L 216.305389 117.302407 
L 216.370326 117.098537 
L 216.402795 116.706876 
L 216.467733 117.098537 
L 216.500201 117.098537 
L 216.597607 117.726356 
L 216.695014 116.900035 
L 216.727482 117.302407 
L 216.759951 117.098537 
L 216.79242 117.726356 
L 216.857357 116.900035 
L 216.922294 117.098537 
L 217.052169 116.336493 
L 217.149575 117.098537 
L 217.182044 116.900035 
L 217.214513 117.098537 
L 217.246981 116.900035 
L 217.311919 115.987219 
L 217.376856 116.706876 
L 217.5392 117.726356 
L 217.571668 117.302407 
L 217.604137 116.900035 
L 217.636606 117.302407 
L 217.798949 118.172108 
L 217.831418 117.946491 
L 217.896355 117.946491 
L 217.993762 118.403237 
L 218.091168 108.317407 
L 218.123636 118.403237 
L 218.188574 108.350922 
L 218.448323 108.350922 
L 226.305749 108.350922 
L 226.338218 118.403237 
L 226.370687 108.335885 
L 226.403155 108.350922 
L 226.435624 108.350922 
L 226.500561 118.403237 
L 226.53303 108.350922 
L 226.565499 108.335885 
L 226.695374 118.403237 
L 226.825248 108.350922 
L 226.890186 108.350922 
L 227.020061 118.403237 
L 227.117467 118.403237 
L 227.214873 108.324721 
L 227.344748 118.403237 
L 227.377216 118.403237 
L 227.442154 108.335885 
L 227.507091 108.350922 
L 228.02659 108.350922 
L 228.059059 118.172108 
L 228.123996 108.369857 
L 228.253871 108.350922 
L 228.481152 108.369857 
L 228.513621 118.172108 
L 228.578558 108.369857 
L 228.708433 108.369857 
L 228.740902 118.172108 
L 228.77337 108.350922 
L 228.805839 108.369857 
L 228.968183 108.369857 
L 229.098057 118.172108 
L 229.130526 108.350922 
L 229.227932 108.369857 
L 229.422744 108.369857 
L 229.747431 108.350922 
L 229.877306 118.172108 
L 232.604677 118.172108 
L 232.637146 108.350922 
L 232.702083 118.172108 
L 232.734552 118.172108 
L 232.831958 108.335885 
L 232.896896 108.324721 
L 232.929364 118.172108 
L 232.994302 108.350922 
L 233.059239 109.172362 
L 233.156645 118.172108 
L 233.221583 108.324721 
L 233.28652 108.485328 
L 233.416395 108.369857 
L 233.643676 108.350922 
L 233.935894 108.350922 
L 233.968363 107.221145 
L 234.000831 108.369857 
L 234.0333 107.234626 
L 234.098237 107.221145 
L 234.163175 108.369857 
L 234.195644 108.369857 
L 234.29305 107.221145 
L 234.325518 107.234626 
L 234.390456 107.234626 
L 234.487862 108.369857 
L 234.585268 107.221145 
L 234.617737 107.234626 
L 234.747611 107.234626 
L 234.78008 108.369857 
L 234.845018 107.234626 
L 234.877486 107.234626 
L 235.007361 108.369857 
L 235.104767 107.234626 
L 235.234642 108.369857 
L 235.364517 107.234626 
L 238.384106 107.234626 
L 238.578918 95.743732 
L 238.611387 96.628309 
L 238.643856 95.810286 
L 238.676324 103.990441 
L 238.708793 95.011221 
L 238.741262 96.628309 
L 238.871137 82.048947 
L 238.936074 98.325276 
L 238.968543 82.103984 
L 239.001011 81.207714 
L 239.03348 82.172439 
L 239.163355 88.252398 
L 239.098417 81.821378 
L 239.195824 87.346731 
L 239.228292 94.949359 
L 239.29323 87.333421 
L 239.358167 92.903027 
L 239.390636 89.119637 
L 239.488042 87.395778 
L 239.520511 88.152196 
L 239.552979 92.420478 
L 239.617917 89.552964 
L 239.650385 89.119637 
L 239.682854 92.420478 
L 239.747792 89.552964 
L 239.812729 87.395778 
L 239.877666 88.152196 
L 239.910135 86.762661 
L 240.104947 89.432458 
L 240.267291 106.746478 
L 240.332228 105.758544 
L 240.462103 111.081008 
L 240.494572 109.052221 
L 240.559509 110.109194 
L 240.591978 114.653124 
L 240.689384 113.465881 
L 240.721853 108.023366 
L 240.78679 111.195922 
L 240.916665 114.653124 
L 240.949133 114.56058 
L 241.014071 114.653124 
L 241.208883 114.653124 
L 241.338758 115.967425 
L 241.436164 114.653124 
L 241.468633 115.967425 
L 241.566039 115.878183 
L 241.598507 115.967425 
L 241.695914 114.56058 
L 241.825788 115.878183 
L 241.923195 115.878183 
L 242.053069 114.56058 
L 242.150475 115.967425 
L 242.182944 115.878183 
L 242.215413 114.56058 
L 242.28035 115.878183 
L 242.442694 115.878183 
L 242.572569 114.56058 
L 242.637506 115.967425 
L 242.669975 114.56058 
L 242.799849 114.56058 
L 242.864787 108.350611 
L 242.994662 95.9591 
L 243.02713 100.711059 
L 243.124536 98.750191 
L 243.28688 89.786277 
L 243.319349 79.07406 
L 243.384286 89.786277 
L 243.449223 88.952057 
L 243.741442 103.784794 
L 243.806379 100.711059 
L 243.936254 108.16861 
L 243.968723 107.039022 
L 244.001191 109.322518 
L 244.066129 109.322518 
L 244.098597 114.207554 
L 244.131066 109.322518 
L 244.163535 104.848186 
L 244.196004 108.16861 
L 244.228472 115.503521 
L 244.260941 108.16861 
L 244.325878 103.784794 
L 244.358347 108.16861 
L 244.390816 114.207554 
L 244.455753 107.039022 
L 244.488222 111.708361 
L 244.520691 111.708361 
L 244.683034 125.62135 
L 244.715503 125.891539 
L 244.747972 122.742117 
L 244.877846 133.574884 
L 244.910315 132.643975 
L 245.072659 124.166841 
L 245.170065 132.643975 
L 245.299939 125.753005 
L 245.397346 129.081871 
L 245.429814 127.390207 
L 245.78697 114.259221 
L 245.819439 114.259221 
L 246.209063 90.442472 
L 246.371407 96.681552 
L 246.468813 96.681552 
L 246.598688 100.109838 
L 246.631156 96.681552 
L 246.696094 100.381751 
L 248.644216 100.381751 
L 248.77409 92.639787 
L 248.871497 92.639787 
L 249.001371 101.982291 
L 249.423465 102.015235 
L 249.748152 102.122356 
L 249.813089 102.035689 
L 249.845558 102.06037 
L 249.910495 102.159635 
L 249.942964 102.122356 
L 250.105307 102.015235 
L 250.137776 102.089263 
L 250.235182 102.035689 
L 250.462463 102.089263 
L 250.754681 101.976995 
L 251.274181 102.015235 
L 251.306649 96.34471 
L 251.371587 101.999026 
L 251.436524 101.999026 
L 251.566399 96.34471 
L 251.598868 96.34471 
L 251.728742 100.381751 
L 252.28071 100.381751 
L 252.410585 101.22972 
L 252.475522 101.22972 
L 252.507991 100.381751 
L 252.572929 101.22972 
L 255.949674 101.22972 
L 256.014611 102.128626 
L 256.04708 101.22972 
L 256.079548 101.22972 
L 256.209423 103.081596 
L 256.241892 102.128626 
L 256.306829 103.081596 
L 256.339298 103.081596 
L 256.469173 104.092173 
L 256.501641 104.092173 
L 256.566579 103.081596 
L 256.599048 104.092173 
L 256.728922 104.092173 
L 256.858797 105.164373 
L 257.021141 105.164373 
L 257.151015 106.302745 
L 257.410765 106.302745 
L 257.54064 107.512461 
L 257.573109 107.512461 
L 257.702983 108.799402 
L 257.962733 108.799402 
L 258.092608 110.17028 
L 258.222483 108.799402 
L 258.449764 108.799402 
L 258.612107 111.632775 
L 259.196544 111.632775 
L 259.326418 113.19571 
L 259.358887 111.632775 
L 259.423825 113.19571 
L 259.586168 116.665222 
L 259.716043 114.869262 
L 259.845918 116.665222 
L 259.975792 116.572373 
L 260.105667 114.381912 
L 260.138136 114.318358 
L 260.268011 110.30595 
L 260.365417 242.152599 
L 260.397886 238.448266 
L 260.495292 238.448266 
L 260.52776 108.286155 
L 260.592698 235.023281 
L 260.690104 235.023281 
L 260.819979 231.846564 
L 260.884916 231.846564 
L 261.04726 226.135032 
L 261.144666 226.135032 
L 261.307009 221.14159 
L 261.404415 221.14159 
L 261.53429 218.872323 
L 261.566759 218.872323 
L 261.664165 216.736498 
L 261.696634 218.872323 
L 261.761571 216.736498 
L 261.826508 216.736498 
L 261.988852 211.020108 
L 262.086258 212.820078 
L 262.248602 209.314483 
L 263.904505 209.314483 
L 263.936974 143.408171 
L 264.001911 209.314483 
L 264.813629 209.314483 
L 264.846098 143.408171 
L 264.911035 209.314483 
L 265.365597 209.314483 
L 265.495472 143.408171 
L 268.742342 143.408171 
L 268.807279 140.269618 
L 268.839748 141.819891 
L 268.969623 143.408171 
L 269.359247 143.408171 
L 269.489122 209.314483 
L 269.618997 143.408171 
L 269.651466 143.408171 
L 269.78134 209.314483 
L 269.911215 143.408171 
L 270.30084 143.408171 
L 270.430714 209.314483 
L 272.995742 209.314483 
L 273.125617 116.770006 
L 273.190554 116.770006 
L 273.320429 209.314483 
L 273.450304 209.314483 
L 273.580178 115.000809 
L 273.710053 115.000809 
L 273.807459 113.35156 
L 273.937334 209.314483 
L 273.969803 113.35156 
L 274.03474 209.314483 
L 278.385546 209.314483 
L 278.515421 102.43544 
L 278.645296 103.375552 
L 278.677765 103.375552 
L 278.742702 102.43544 
L 278.775171 103.375552 
L 278.840108 103.375552 
L 278.969983 102.43544 
L 279.002452 102.43544 
L 279.132326 101.548805 
L 279.684294 101.548805 
L 279.814169 102.43544 
L 279.846638 102.43544 
L 279.976513 101.548805 
L 280.236262 101.548805 
L 280.366137 209.314483 
L 280.463543 209.314483 
L 280.52848 101.548805 
L 280.560949 209.314483 
L 280.593418 209.314483 
L 280.723293 101.548805 
L 280.78823 101.548805 
L 280.918105 209.314483 
L 281.04798 101.548805 
L 281.112917 101.548805 
L 281.145386 209.314483 
L 281.210323 101.548805 
L 281.372667 101.548805 
L 281.470073 209.314483 
L 281.599948 101.548805 
L 281.729822 209.314483 
L 281.859697 101.548805 
L 294.814709 101.548805 
L 295.009521 104.372593 
L 295.04199 104.372593 
L 295.236802 107.747102 
L 295.269271 107.747102 
L 295.399146 109.01661 
L 295.431614 109.01661 
L 295.593958 111.810815 
L 295.626427 111.810815 
L 295.756301 113.35156 
L 295.821239 113.35156 
L 295.951114 116.770006 
L 296.04852 115.000809 
L 296.178395 116.770006 
L 296.957643 116.770006 
L 297.087518 118.672464 
L 297.509611 118.672464 
L 297.607017 120.723759 
L 297.671955 118.672464 
L 297.704424 120.723759 
L 298.061579 120.723759 
L 298.094048 118.672464 
L 298.158985 120.723759 
L 298.353798 120.723759 
L 298.483672 118.672464 
L 298.54861 118.672464 
L 298.581078 120.723759 
L 298.646016 118.672464 
L 298.743422 118.672464 
L 298.873297 116.770006 
L 298.905765 116.770006 
L 299.03564 120.723759 
L 299.068109 118.672464 
L 299.133046 120.723759 
L 299.360327 120.723759 
L 299.392796 118.672464 
L 299.457733 120.723759 
L 299.620077 120.723759 
L 299.749952 122.942228 
L 299.78242 122.942228 
L 299.912295 125.349602 
L 300.236982 125.386391 
L 300.431794 133.503826 
L 300.464263 128.157119 
L 300.496732 133.647394 
L 300.529201 131.136119 
L 300.561669 131.136119 
L 300.626607 133.503826 
L 300.691544 128.157119 
L 300.756481 128.274704 
L 300.78895 128.157119 
L 300.821419 128.157119 
L 300.918825 125.386391 
L 300.951294 125.438426 
L 301.0487 125.505807 
L 301.081168 133.503826 
L 301.146106 125.588646 
L 301.178575 125.588646 
L 301.275981 136.589704 
L 301.340918 132.772208 
L 301.373387 132.453363 
L 301.438324 136.589704 
L 301.470793 128.157119 
L 301.568199 128.274704 
L 301.600668 125.588646 
L 301.633136 132.772208 
L 301.698074 130.223217 
L 301.827949 125.505807 
L 301.860417 130.615755 
L 301.925355 125.438426 
L 301.957823 130.529966 
L 302.022761 122.969692 
L 302.087698 123.00739 
L 302.152636 130.529966 
L 302.185104 127.85212 
L 302.314979 122.937176 
L 302.347448 122.942228 
L 302.444854 122.942228 
L 302.574729 125.321427 
L 302.607197 122.969692 
L 302.639666 130.529966 
L 302.672135 122.946312 
L 302.704604 122.969692 
L 302.737072 122.969692 
L 302.866947 136.589704 
L 302.899416 125.588646 
L 302.996822 125.931252 
L 303.029291 125.931252 
L 303.061759 130.526127 
L 303.126697 126.077333 
L 303.224103 126.077333 
L 303.256571 133.106934 
L 303.321509 125.966831 
L 303.418915 126.077333 
L 303.54879 129.119194 
L 303.581258 128.915393 
L 303.646196 128.72927 
L 303.678665 147.689745 
L 303.808539 128.72927 
L 303.841008 128.652548 
L 303.873477 131.717994 
L 303.938414 128.915393 
L 303.970883 128.72927 
L 304.003352 147.689745 
L 304.100758 147.315032 
L 304.198164 126.077333 
L 304.328039 158.678128 
L 304.392976 129.580857 
L 304.457913 129.839285 
L 304.490382 129.839285 
L 304.620257 161.277724 
L 304.7826 176.546374 
L 304.815069 175.245931 
L 304.880007 175.245931 
L 305.009881 168.022433 
L 305.04235 165.569197 
L 305.074819 170.20802 
L 305.237162 178.743365 
L 305.334568 177.67979 
L 305.367037 179.871843 
L 305.431974 177.67979 
L 305.464443 177.67979 
L 305.561849 176.678524 
L 305.659255 177.67979 
L 305.821599 169.487496 
L 306.04888 157.893376 
L 306.243692 166.27934 
L 306.308629 160.503656 
L 306.341098 163.29237 
L 306.406036 163.29237 
L 306.53591 155.444305 
L 306.600848 155.444305 
L 306.633316 153.141401 
L 306.698254 155.444305 
L 306.730723 155.444305 
L 306.925535 148.922898 
L 306.958003 148.922898 
L 307.120347 145.149869 
L 307.152816 145.149869 
L 307.28269 143.408171 
L 307.380097 145.149869 
L 307.509971 143.408171 
L 315.140116 143.408171 
L 315.237522 146.985404 
L 315.269991 143.408171 
L 315.334928 146.985404 
L 315.432335 150.971472 
L 315.562209 146.985404 
L 315.594678 146.985404 
L 315.78949 155.444305 
L 315.821959 150.971472 
L 315.886896 153.141401 
L 316.016771 157.893376 
L 316.179115 163.29237 
L 316.244052 163.29237 
L 316.471333 153.141401 
L 316.666145 163.29237 
L 316.79602 160.503656 
L 316.828489 163.29237 
L 316.860957 157.893376 
L 316.893426 160.503656 
L 317.088238 153.141401 
L 317.185644 160.503656 
L 317.250582 157.893376 
L 317.380457 104.721116 
L 317.412925 104.686489 
L 317.445394 153.141401 
L 317.510331 104.721116 
L 317.640206 104.721116 
L 317.705144 103.10925 
L 317.737612 146.985404 
L 317.770081 103.10925 
L 317.80255 148.922898 
L 317.835018 104.721116 
L 317.932425 150.971472 
L 317.964893 148.922898 
L 317.997362 150.971472 
L 318.127237 103.002813 
L 318.159705 103.002813 
L 318.192174 155.444305 
L 318.28958 150.971472 
L 318.386986 148.922898 
L 318.516861 103.051817 
L 318.54933 103.051817 
L 318.646736 150.971472 
L 318.679205 148.922898 
L 318.711673 103.002813 
L 318.744142 150.971472 
L 318.776611 104.686489 
L 318.841548 155.444305 
L 318.874017 153.141401 
L 319.003892 101.388118 
L 319.03636 101.450281 
L 319.133766 99.993454 
L 319.166235 145.149869 
L 319.198704 99.993454 
L 319.263641 143.408171 
L 319.29611 141.753052 
L 319.328579 143.408171 
L 319.361047 99.993454 
L 319.425985 145.149869 
L 319.458453 145.149869 
L 319.490922 146.985404 
L 319.55586 150.971472 
L 319.588328 101.334016 
L 319.620797 153.141401 
L 319.685734 150.971472 
L 319.718203 101.334016 
L 319.78314 150.971472 
L 319.880547 150.971472 
L 319.945484 148.922898 
L 319.977953 150.971472 
L 320.010421 150.971472 
L 320.172765 146.985404 
L 320.367577 146.985404 
L 320.400046 148.922898 
L 320.432515 146.985404 
L 320.562389 145.149869 
L 321.439044 145.149869 
L 321.53645 143.408171 
L 321.666325 145.149869 
L 321.7962 143.408171 
L 326.666505 143.408171 
L 326.79638 145.149869 
L 326.893786 145.149869 
L 327.023661 53.568 
L 327.121067 53.806872 
L 327.153536 53.568 
L 327.283411 77.574855 
L 327.315879 77.574855 
L 327.445754 144.989361 
L 328.257472 144.989361 
L 328.387346 145.149869 
L 328.484752 145.149869 
L 328.614627 223.557482 
L 328.906846 223.557482 
L 328.971783 221.14159 
L 329.069189 160.503656 
L 329.101658 163.29237 
L 329.231533 166.27934 
L 329.29647 166.27934 
L 329.458814 172.943506 
L 329.491282 172.943506 
L 329.55622 176.678524 
L 329.588688 172.943506 
L 329.621157 172.943506 
L 329.751032 176.678524 
L 329.848438 176.678524 
L 329.978313 177.67979 
L 330.270531 177.67979 
L 330.400406 178.743365 
L 330.530281 178.743365 
L 330.627687 177.67979 
L 330.725093 178.743365 
L 330.822499 177.67979 
L 330.952374 178.743365 
L 331.017311 178.743365 
L 331.147186 179.871843 
L 331.179655 179.871843 
L 331.309529 181.068037 
L 331.471873 181.068037 
L 331.601748 179.871843 
L 331.79656 179.871843 
L 331.829029 181.068037 
L 331.893966 179.871843 
L 331.991372 179.871843 
L 332.121247 181.068037 
L 332.283591 181.068037 
L 332.316059 182.33499 
L 332.380997 181.068037 
L 332.510871 181.068037 
L 332.54334 179.871843 
L 332.608278 181.068037 
L 332.640746 181.068037 
L 332.770621 179.871843 
L 332.868027 179.871843 
L 332.965433 178.743365 
L 332.997902 179.871843 
L 333.062839 178.743365 
L 333.127777 178.743365 
L 333.257652 177.67979 
L 333.322589 177.67979 
L 333.452464 178.743365 
L 333.484932 178.743365 
L 333.614807 177.67979 
L 333.712213 177.67979 
L 333.842088 176.678524 
L 333.874557 177.67979 
L 333.939494 176.678524 
L 333.971963 176.678524 
L 334.101838 177.67979 
L 334.653806 177.67979 
L 334.718743 176.678524 
L 334.751212 177.67979 
L 334.783681 177.67979 
L 334.913555 176.678524 
L 335.04343 176.678524 
L 335.140836 177.67979 
L 335.270711 176.678524 
L 335.335648 176.678524 
L 335.368117 177.67979 
L 335.433055 176.678524 
L 335.497992 176.678524 
L 335.627867 172.943506 
L 335.692804 176.678524 
L 335.725273 172.943506 
L 335.79021 172.943506 
L 335.920085 177.67979 
L 336.04996 177.67979 
L 336.179835 176.678524 
L 336.894146 176.678524 
L 336.991552 172.943506 
L 337.121427 176.678524 
L 337.251302 169.487496 
L 337.381177 172.943506 
L 337.511051 169.487496 
L 337.54352 169.487496 
L 337.673395 172.943506 
L 337.738332 172.943506 
L 337.868207 169.487496 
L 337.933145 169.487496 
L 338.063019 166.27934 
L 338.127957 169.487496 
L 338.160425 167.228667 
L 338.192894 164.14061 
L 338.257832 167.228667 
L 338.2903 167.228667 
L 338.322769 169.487496 
L 338.355238 167.228667 
L 338.452644 164.14061 
L 338.517581 167.228667 
L 338.55005 165.054103 
L 338.582519 165.054103 
L 338.777331 160.116048 
L 338.842268 162.092548 
L 338.972143 157.454939 
L 339.102018 155.645924 
L 339.166955 155.645924 
L 339.199424 158.206805 
L 339.264361 155.645924 
L 339.29683 155.645924 
L 339.459174 151.573742 
L 339.524111 151.573742 
L 339.718923 160.458314 
L 339.751392 155.645924 
L 339.816329 160.458314 
L 339.978673 154.95807 
L 340.108548 157.832253 
L 340.173485 157.832253 
L 340.30336 155.367185 
L 340.887796 155.367185 
L 341.017671 153.048064 
L 341.212483 153.048064 
L 341.342358 150.861692 
L 341.602108 150.861692 
L 341.731983 153.048064 
L 341.764451 153.048064 
L 341.894326 150.861692 
L 342.348888 150.861692 
L 342.446294 148.796445 
L 342.576169 150.861692 
L 342.868387 150.861692 
L 342.965793 148.796445 
L 342.998262 150.861692 
L 343.063199 148.796445 
L 343.128137 148.796445 
L 343.258012 150.861692 
L 343.387886 150.861692 
L 343.420355 153.048064 
L 343.485293 150.861692 
L 343.517761 150.861692 
L 343.647636 148.796445 
L 344.654166 148.796445 
L 344.719103 146.842043 
L 344.751572 148.796445 
L 345.04379 148.796445 
L 345.076259 146.842043 
L 345.141196 148.796445 
L 345.173665 148.796445 
L 345.30354 146.842043 
L 345.368477 146.842043 
L 345.498352 148.796445 
L 345.595758 148.796445 
L 345.660696 146.842043 
L 345.693164 148.796445 
L 346.082789 148.796445 
L 346.212663 146.842043 
L 346.277601 146.842043 
L 346.375007 148.796445 
L 346.407476 146.842043 
L 346.472413 148.796445 
L 346.602288 148.796445 
L 346.732163 150.861692 
L 346.7971 150.861692 
L 346.926975 148.796445 
L 347.154256 148.796445 
L 347.284131 150.861692 
L 347.446474 150.861692 
L 347.576349 148.796445 
L 347.706224 148.796445 
L 347.771161 146.842043 
L 347.80363 148.796445 
L 347.965973 148.796445 
L 348.095848 146.842043 
L 348.258192 146.842043 
L 348.388066 144.989361 
L 348.453004 144.989361 
L 348.582879 146.842043 
L 348.615347 146.842043 
L 348.745222 148.796445 
L 349.167315 148.796445 
L 349.29719 146.842043 
L 349.589408 146.842043 
L 349.654346 144.989361 
L 349.686814 146.842043 
L 349.784221 146.842043 
L 349.914095 144.989361 
L 350.108908 144.989361 
L 350.141376 146.842043 
L 350.206314 144.989361 
L 350.238782 144.989361 
L 350.368657 146.842043 
L 350.466063 146.842043 
L 350.595938 144.989361 
L 350.628407 144.989361 
L 350.758282 146.842043 
L 350.855688 146.842043 
L 350.985563 144.989361 
L 358.518301 144.989361 
L 358.648176 146.842043 
L 358.778051 144.989361 
L 359.005332 144.989361 
L 359.135207 146.842043 
L 359.849518 146.842043 
L 359.979393 148.796445 
L 360.336549 148.796445 
L 360.466423 150.861692 
L 360.953454 150.861692 
L 361.083329 153.048064 
L 361.148266 153.048064 
L 361.278141 155.367185 
L 361.79764 155.367185 
L 361.927515 157.832253 
L 362.024921 157.832253 
L 362.154796 155.367185 
L 362.284671 155.367185 
L 362.414545 157.832253 
L 362.901576 157.832253 
L 363.031451 160.458314 
L 363.875637 160.458314 
L 363.908106 163.262597 
L 363.973043 160.458314 
L 364.167855 160.458314 
L 364.29773 163.262597 
L 365.206854 163.262597 
L 365.239322 160.458314 
L 365.30426 163.262597 
L 365.369197 163.262597 
L 365.401666 160.458314 
L 365.466603 163.262597 
L 366.440664 163.262597 
L 366.505602 166.264929 
L 366.538071 163.262597 
L 367.154976 163.262597 
L 367.284851 166.264929 
L 367.479663 166.264929 
L 367.512132 163.262597 
L 367.577069 166.264929 
L 367.674475 166.264929 
L 367.706944 163.262597 
L 367.771881 166.264929 
L 367.80435 166.264929 
L 367.934225 163.262597 
L 367.999162 163.262597 
L 368.129037 166.264929 
L 368.193974 163.262597 
L 368.226443 166.264929 
L 368.258912 166.264929 
L 368.388787 163.262597 
L 368.518661 163.262597 
L 368.648536 166.264929 
L 368.81088 166.264929 
L 368.940754 163.262597 
L 369.168035 163.262597 
L 369.29791 166.264929 
L 369.395316 163.262597 
L 369.525191 166.264929 
L 369.947284 166.264929 
L 369.979753 163.262597 
L 370.04469 166.264929 
L 370.207034 166.264929 
L 370.336909 163.262597 
L 370.369377 163.262597 
L 370.434315 166.264929 
L 370.466783 163.262597 
L 371.668125 163.262597 
L 371.798 160.458314 
L 372.934405 160.458314 
L 373.031811 157.832253 
L 373.06428 158.563901 
L 373.096748 160.458314 
L 373.129217 157.832253 
L 373.161686 157.832221 
L 373.55131 157.832221 
L 373.616247 154.29635 
L 373.648716 157.832221 
L 373.681185 157.832221 
L 373.746122 154.29635 
L 373.778591 157.832253 
L 374.070809 157.832221 
L 374.103278 154.29635 
L 374.200684 155.367185 
L 374.233153 154.29635 
L 374.363028 157.832221 
L 374.622777 157.832221 
L 374.752652 154.29635 
L 374.785121 157.832221 
L 374.850058 155.367185 
L 374.882527 155.367185 
L 375.012402 157.832221 
L 375.109808 157.832221 
L 375.239683 154.29635 
L 375.369557 157.832221 
L 375.466963 157.832221 
L 375.596838 153.659957 
L 375.629307 155.367185 
L 375.694244 153.659957 
L 375.921525 153.659957 
L 375.953994 150.39712 
L 376.018931 153.659957 
L 376.181275 153.659957 
L 376.213744 155.367185 
L 376.278681 153.659957 
L 376.376087 147.319086 
L 376.408556 155.367185 
L 376.505962 153.659957 
L 376.830649 153.659957 
L 376.895586 155.367185 
L 376.928055 153.659957 
L 377.090398 153.659957 
L 377.122867 149.84233 
L 377.187805 153.048034 
L 377.220273 153.048034 
L 377.350148 146.815243 
L 377.480023 143.949365 
L 377.54496 146.815243 
L 377.577429 143.949365 
L 377.609898 143.949365 
L 377.642366 146.815243 
L 377.707304 143.949365 
L 377.80471 143.508907 
L 377.869647 143.949365 
L 377.902116 149.84233 
L 377.967053 143.949365 
L 378.06446 143.949365 
L 378.096928 149.84233 
L 378.161866 143.949365 
L 378.194334 141.229552 
L 378.259272 143.949365 
L 378.29174 143.508907 
L 378.324209 143.949365 
L 378.389147 146.33088 
L 378.421615 143.508907 
L 378.454084 143.508907 
L 378.583959 146.33088 
L 378.713834 143.508907 
L 378.843708 143.508907 
L 378.908646 146.33088 
L 378.941114 143.508907 
L 379.168395 143.508907 
L 379.200864 146.33088 
L 379.265801 143.508907 
L 379.29827 143.508907 
L 379.395676 137.926494 
L 379.493082 140.443484 
L 379.55802 137.926494 
L 379.622957 143.085755 
L 379.655426 140.443484 
L 379.687895 135.524086 
L 379.752832 140.443484 
L 379.785301 140.443484 
L 379.915176 137.926494 
L 379.947644 137.59004 
L 380.012582 137.926494 
L 380.142456 137.926494 
L 380.272331 137.59004 
L 380.532081 137.59004 
L 380.629487 144.989336 
L 380.759362 137.59004 
L 380.824299 144.989336 
L 380.889237 142.289581 
L 381.019111 144.989336 
L 381.116517 144.989336 
L 381.148986 142.289581 
L 381.213924 144.989361 
L 381.700954 144.989361 
L 381.733423 142.289581 
L 381.79836 144.989361 
L 383.973763 144.989361 
L 384.038701 146.842043 
L 384.071169 144.989361 
L 384.103638 144.989361 
L 384.233513 146.842043 
L 384.265982 146.842043 
L 384.29845 144.989361 
L 384.363388 146.842043 
L 384.817949 146.842043 
L 384.915356 141.639403 
L 384.947824 143.591215 
L 385.012762 143.591215 
L 385.207574 137.397826 
L 385.240043 137.397826 
L 385.402386 132.603721 
L 385.434855 132.603721 
L 385.597198 129.693216 
L 385.694604 132.603721 
L 385.824479 97.004456 
L 385.889417 97.217208 
L 385.921885 95.98544 
L 386.019291 96.258366 
L 386.149166 96.258366 
L 386.31151 96.559589 
L 386.603728 96.559589 
L 386.733603 96.720917 
L 386.960884 96.720917 
L 387.05829 96.889452 
L 387.123227 96.720917 
L 387.155696 96.889452 
L 387.870007 96.889452 
L 387.999882 97.065244 
L 388.162226 97.065244 
L 388.2921 97.248346 
L 389.038881 97.248346 
L 389.103818 97.438817 
L 389.136287 97.248346 
L 389.29863 97.248346 
L 389.428505 97.438817 
L 389.493442 97.438817 
L 389.525911 97.248346 
L 389.590849 97.438817 
L 389.655786 97.438817 
L 389.688255 97.248346 
L 389.753192 97.438817 
L 389.883067 97.438817 
L 389.948004 97.636715 
L 389.980473 97.438817 
L 390.077879 97.438817 
L 390.207754 97.636715 
L 390.30516 97.636715 
L 390.370097 97.438817 
L 390.402566 97.636715 
L 391.05194 97.636715 
L 391.084409 97.842107 
L 391.149346 97.636715 
L 391.409096 97.636715 
L 391.538971 97.842107 
L 392.383157 97.842107 
L 392.448094 98.055057 
L 392.480563 97.842107 
L 392.5455 97.842107 
L 392.675375 98.055057 
L 393.389687 98.055057 
L 393.422155 98.275639 
L 393.487093 98.055057 
L 393.81178 98.055057 
L 393.909186 98.275639 
L 394.039061 98.055057 
L 394.071529 98.055057 
L 394.168935 98.275639 
L 394.201404 98.055057 
L 394.266342 98.275639 
L 394.29881 98.275639 
L 394.331279 98.055057 
L 394.396216 98.275639 
L 394.623497 98.275639 
L 394.753372 98.055057 
L 394.818309 98.055057 
L 394.948184 98.275639 
L 395.013122 98.275639 
L 395.078059 98.055057 
L 395.110528 98.275639 
L 396.571619 98.275639 
L 396.604088 98.503925 
L 396.669025 98.275639 
L 397.415806 98.275639 
L 397.513212 98.503925 
L 397.643086 98.275639 
L 397.675555 98.503925 
L 397.740493 98.275639 
L 398.162586 98.275639 
L 398.195054 98.503925 
L 398.259992 98.275639 
L 398.422335 98.275639 
L 398.487273 98.503925 
L 398.487273 98.503925 
" clip-path="url(#p3e8dd8f9ee)" style="fill: none; stroke: #1f77b4; stroke-width: 1.5; stroke-linecap: square"/>
   </g>
   <g id="patch_3">
    <path d="M 57.6 307.584 
L 57.6 41.472 
" style="fill: none; stroke: #000000; stroke-width: 0.8; stroke-linejoin: miter; stroke-linecap: square"/>
   </g>
   <g id="patch_4">
    <path d="M 414.72 307.584 
L 414.72 41.472 
" style="fill: none; stroke: #000000; stroke-width: 0.8; stroke-linejoin: miter; stroke-linecap: square"/>
   </g>
   <g id="patch_5">
    <path d="M 57.6 307.584 
L 414.72 307.584 
" style="fill: none; stroke: #000000; stroke-width: 0.8; stroke-linejoin: miter; stroke-linecap: square"/>
   </g>
   <g id="patch_6">
    <path d="M 57.6 41.472 
L 414.72 41.472 
" style="fill: none; stroke: #000000; stroke-width: 0.8; stroke-linejoin: miter; stroke-linecap: square"/>
   </g>
  </g>
 </g>
 <defs>
  <clipPath id="p3e8dd8f9ee">
   <rect x="57.6" y="41.472" width="357.12" height="266.112"/>
  </clipPath>
 </defs>
</svg>
