<?xml version="1.0" encoding="utf-8" standalone="no"?>
<!DOCTYPE svg PUBLIC "-//W3C//DTD SVG 1.1//EN"
  "http://www.w3.org/Graphics/SVG/1.1/DTD/svg11.dtd">
<svg xmlns:xlink="http://www.w3.org/1999/xlink" width="460.8pt" height="345.6pt" viewBox="0 0 460.8 345.6" xmlns="http://www.w3.org/2000/svg" version="1.1">
 <metadata>
  <rdf:RDF xmlns:dc="http://purl.org/dc/elements/1.1/" xmlns:cc="http://creativecommons.org/ns#" xmlns:rdf="http://www.w3.org/1999/02/22-rdf-syntax-ns#">
   <cc:Work>
    <dc:type rdf:resource="http://purl.org/dc/dcmitype/StillImage"/>
    <dc:date>2024-04-26T23:37:28.398616</dc:date>
    <dc:format>image/svg+xml</dc:format>
    <dc:creator>
     <cc:Agent>
      <dc:title>Matplotlib v3.8.2, https://matplotlib.org/</dc:title>
     </cc:Agent>
    </dc:creator>
   </cc:Work>
  </rdf:RDF>
 </metadata>
 <defs>
  <style type="text/css">*{stroke-linejoin: round; stroke-linecap: butt}</style>
 </defs>
 <g id="figure_1">
  <g id="patch_1">
   <path d="M 0 345.6 
L 460.8 345.6 
L 460.8 0 
L 0 0 
z
" style="fill: #ffffff"/>
  </g>
  <g id="axes_1">
   <g id="patch_2">
    <path d="M 57.6 307.584 
L 414.72 307.584 
L 414.72 41.472 
L 57.6 41.472 
z
" style="fill: #ffffff"/>
   </g>
   <g id="matplotlib.axis_1">
    <g id="xtick_1">
     <g id="line2d_1">
      <defs>
       <path id="m544568be84" d="M 0 0 
L 0 3.5 
" style="stroke: #000000; stroke-width: 0.8"/>
      </defs>
      <g>
       <use xlink:href="#m544568be84" x="73.832727" y="307.584" style="stroke: #000000; stroke-width: 0.8"/>
      </g>
     </g>
     <g id="text_1">
      <!-- 0 -->
      <g transform="translate(70.651477 322.182437) scale(0.1 -0.1)">
       <defs>
        <path id="DejaVuSans-30" d="M 2034 4250 
Q 1547 4250 1301 3770 
Q 1056 3291 1056 2328 
Q 1056 1369 1301 889 
Q 1547 409 2034 409 
Q 2525 409 2770 889 
Q 3016 1369 3016 2328 
Q 3016 3291 2770 3770 
Q 2525 4250 2034 4250 
z
M 2034 4750 
Q 2819 4750 3233 4129 
Q 3647 3509 3647 2328 
Q 3647 1150 3233 529 
Q 2819 -91 2034 -91 
Q 1250 -91 836 529 
Q 422 1150 422 2328 
Q 422 3509 836 4129 
Q 1250 4750 2034 4750 
z
" transform="scale(0.015625)"/>
       </defs>
       <use xlink:href="#DejaVuSans-30"/>
      </g>
     </g>
    </g>
    <g id="xtick_2">
     <g id="line2d_2">
      <g>
       <use xlink:href="#m544568be84" x="138.77013" y="307.584" style="stroke: #000000; stroke-width: 0.8"/>
      </g>
     </g>
     <g id="text_2">
      <!-- 2000 -->
      <g transform="translate(126.04513 322.182437) scale(0.1 -0.1)">
       <defs>
        <path id="DejaVuSans-32" d="M 1228 531 
L 3431 531 
L 3431 0 
L 469 0 
L 469 531 
Q 828 903 1448 1529 
Q 2069 2156 2228 2338 
Q 2531 2678 2651 2914 
Q 2772 3150 2772 3378 
Q 2772 3750 2511 3984 
Q 2250 4219 1831 4219 
Q 1534 4219 1204 4116 
Q 875 4013 500 3803 
L 500 4441 
Q 881 4594 1212 4672 
Q 1544 4750 1819 4750 
Q 2544 4750 2975 4387 
Q 3406 4025 3406 3419 
Q 3406 3131 3298 2873 
Q 3191 2616 2906 2266 
Q 2828 2175 2409 1742 
Q 1991 1309 1228 531 
z
" transform="scale(0.015625)"/>
       </defs>
       <use xlink:href="#DejaVuSans-32"/>
       <use xlink:href="#DejaVuSans-30" x="63.623047"/>
       <use xlink:href="#DejaVuSans-30" x="127.246094"/>
       <use xlink:href="#DejaVuSans-30" x="190.869141"/>
      </g>
     </g>
    </g>
    <g id="xtick_3">
     <g id="line2d_3">
      <g>
       <use xlink:href="#m544568be84" x="203.707533" y="307.584" style="stroke: #000000; stroke-width: 0.8"/>
      </g>
     </g>
     <g id="text_3">
      <!-- 4000 -->
      <g transform="translate(190.982533 322.182437) scale(0.1 -0.1)">
       <defs>
        <path id="DejaVuSans-34" d="M 2419 4116 
L 825 1625 
L 2419 1625 
L 2419 4116 
z
M 2253 4666 
L 3047 4666 
L 3047 1625 
L 3713 1625 
L 3713 1100 
L 3047 1100 
L 3047 0 
L 2419 0 
L 2419 1100 
L 313 1100 
L 313 1709 
L 2253 4666 
z
" transform="scale(0.015625)"/>
       </defs>
       <use xlink:href="#DejaVuSans-34"/>
       <use xlink:href="#DejaVuSans-30" x="63.623047"/>
       <use xlink:href="#DejaVuSans-30" x="127.246094"/>
       <use xlink:href="#DejaVuSans-30" x="190.869141"/>
      </g>
     </g>
    </g>
    <g id="xtick_4">
     <g id="line2d_4">
      <g>
       <use xlink:href="#m544568be84" x="268.644936" y="307.584" style="stroke: #000000; stroke-width: 0.8"/>
      </g>
     </g>
     <g id="text_4">
      <!-- 6000 -->
      <g transform="translate(255.919936 322.182437) scale(0.1 -0.1)">
       <defs>
        <path id="DejaVuSans-36" d="M 2113 2584 
Q 1688 2584 1439 2293 
Q 1191 2003 1191 1497 
Q 1191 994 1439 701 
Q 1688 409 2113 409 
Q 2538 409 2786 701 
Q 3034 994 3034 1497 
Q 3034 2003 2786 2293 
Q 2538 2584 2113 2584 
z
M 3366 4563 
L 3366 3988 
Q 3128 4100 2886 4159 
Q 2644 4219 2406 4219 
Q 1781 4219 1451 3797 
Q 1122 3375 1075 2522 
Q 1259 2794 1537 2939 
Q 1816 3084 2150 3084 
Q 2853 3084 3261 2657 
Q 3669 2231 3669 1497 
Q 3669 778 3244 343 
Q 2819 -91 2113 -91 
Q 1303 -91 875 529 
Q 447 1150 447 2328 
Q 447 3434 972 4092 
Q 1497 4750 2381 4750 
Q 2619 4750 2861 4703 
Q 3103 4656 3366 4563 
z
" transform="scale(0.015625)"/>
       </defs>
       <use xlink:href="#DejaVuSans-36"/>
       <use xlink:href="#DejaVuSans-30" x="63.623047"/>
       <use xlink:href="#DejaVuSans-30" x="127.246094"/>
       <use xlink:href="#DejaVuSans-30" x="190.869141"/>
      </g>
     </g>
    </g>
    <g id="xtick_5">
     <g id="line2d_5">
      <g>
       <use xlink:href="#m544568be84" x="333.582339" y="307.584" style="stroke: #000000; stroke-width: 0.8"/>
      </g>
     </g>
     <g id="text_5">
      <!-- 8000 -->
      <g transform="translate(320.857339 322.182437) scale(0.1 -0.1)">
       <defs>
        <path id="DejaVuSans-38" d="M 2034 2216 
Q 1584 2216 1326 1975 
Q 1069 1734 1069 1313 
Q 1069 891 1326 650 
Q 1584 409 2034 409 
Q 2484 409 2743 651 
Q 3003 894 3003 1313 
Q 3003 1734 2745 1975 
Q 2488 2216 2034 2216 
z
M 1403 2484 
Q 997 2584 770 2862 
Q 544 3141 544 3541 
Q 544 4100 942 4425 
Q 1341 4750 2034 4750 
Q 2731 4750 3128 4425 
Q 3525 4100 3525 3541 
Q 3525 3141 3298 2862 
Q 3072 2584 2669 2484 
Q 3125 2378 3379 2068 
Q 3634 1759 3634 1313 
Q 3634 634 3220 271 
Q 2806 -91 2034 -91 
Q 1263 -91 848 271 
Q 434 634 434 1313 
Q 434 1759 690 2068 
Q 947 2378 1403 2484 
z
M 1172 3481 
Q 1172 3119 1398 2916 
Q 1625 2713 2034 2713 
Q 2441 2713 2670 2916 
Q 2900 3119 2900 3481 
Q 2900 3844 2670 4047 
Q 2441 4250 2034 4250 
Q 1625 4250 1398 4047 
Q 1172 3844 1172 3481 
z
" transform="scale(0.015625)"/>
       </defs>
       <use xlink:href="#DejaVuSans-38"/>
       <use xlink:href="#DejaVuSans-30" x="63.623047"/>
       <use xlink:href="#DejaVuSans-30" x="127.246094"/>
       <use xlink:href="#DejaVuSans-30" x="190.869141"/>
      </g>
     </g>
    </g>
    <g id="xtick_6">
     <g id="line2d_6">
      <g>
       <use xlink:href="#m544568be84" x="398.519741" y="307.584" style="stroke: #000000; stroke-width: 0.8"/>
      </g>
     </g>
     <g id="text_6">
      <!-- 10000 -->
      <g transform="translate(382.613491 322.182437) scale(0.1 -0.1)">
       <defs>
        <path id="DejaVuSans-31" d="M 794 531 
L 1825 531 
L 1825 4091 
L 703 3866 
L 703 4441 
L 1819 4666 
L 2450 4666 
L 2450 531 
L 3481 531 
L 3481 0 
L 794 0 
L 794 531 
z
" transform="scale(0.015625)"/>
       </defs>
       <use xlink:href="#DejaVuSans-31"/>
       <use xlink:href="#DejaVuSans-30" x="63.623047"/>
       <use xlink:href="#DejaVuSans-30" x="127.246094"/>
       <use xlink:href="#DejaVuSans-30" x="190.869141"/>
       <use xlink:href="#DejaVuSans-30" x="254.492188"/>
      </g>
     </g>
    </g>
   </g>
   <g id="matplotlib.axis_2">
    <g id="ytick_1">
     <g id="line2d_7">
      <defs>
       <path id="m1deae0c2e2" d="M 0 0 
L -3.5 0 
" style="stroke: #000000; stroke-width: 0.8"/>
      </defs>
      <g>
       <use xlink:href="#m1deae0c2e2" x="57.6" y="296.862374" style="stroke: #000000; stroke-width: 0.8"/>
      </g>
     </g>
     <g id="text_7">
      <!-- −150 -->
      <g transform="translate(23.132812 300.661593) scale(0.1 -0.1)">
       <defs>
        <path id="DejaVuSans-2212" d="M 678 2272 
L 4684 2272 
L 4684 1741 
L 678 1741 
L 678 2272 
z
" transform="scale(0.015625)"/>
        <path id="DejaVuSans-35" d="M 691 4666 
L 3169 4666 
L 3169 4134 
L 1269 4134 
L 1269 2991 
Q 1406 3038 1543 3061 
Q 1681 3084 1819 3084 
Q 2600 3084 3056 2656 
Q 3513 2228 3513 1497 
Q 3513 744 3044 326 
Q 2575 -91 1722 -91 
Q 1428 -91 1123 -41 
Q 819 9 494 109 
L 494 744 
Q 775 591 1075 516 
Q 1375 441 1709 441 
Q 2250 441 2565 725 
Q 2881 1009 2881 1497 
Q 2881 1984 2565 2268 
Q 2250 2553 1709 2553 
Q 1456 2553 1204 2497 
Q 953 2441 691 2322 
L 691 4666 
z
" transform="scale(0.015625)"/>
       </defs>
       <use xlink:href="#DejaVuSans-2212"/>
       <use xlink:href="#DejaVuSans-31" x="83.789062"/>
       <use xlink:href="#DejaVuSans-35" x="147.412109"/>
       <use xlink:href="#DejaVuSans-30" x="211.035156"/>
      </g>
     </g>
    </g>
    <g id="ytick_2">
     <g id="line2d_8">
      <g>
       <use xlink:href="#m1deae0c2e2" x="57.6" y="246.937291" style="stroke: #000000; stroke-width: 0.8"/>
      </g>
     </g>
     <g id="text_8">
      <!-- −100 -->
      <g transform="translate(23.132812 250.73651) scale(0.1 -0.1)">
       <use xlink:href="#DejaVuSans-2212"/>
       <use xlink:href="#DejaVuSans-31" x="83.789062"/>
       <use xlink:href="#DejaVuSans-30" x="147.412109"/>
       <use xlink:href="#DejaVuSans-30" x="211.035156"/>
      </g>
     </g>
    </g>
    <g id="ytick_3">
     <g id="line2d_9">
      <g>
       <use xlink:href="#m1deae0c2e2" x="57.6" y="197.012208" style="stroke: #000000; stroke-width: 0.8"/>
      </g>
     </g>
     <g id="text_9">
      <!-- −50 -->
      <g transform="translate(29.495313 200.811427) scale(0.1 -0.1)">
       <use xlink:href="#DejaVuSans-2212"/>
       <use xlink:href="#DejaVuSans-35" x="83.789062"/>
       <use xlink:href="#DejaVuSans-30" x="147.412109"/>
      </g>
     </g>
    </g>
    <g id="ytick_4">
     <g id="line2d_10">
      <g>
       <use xlink:href="#m1deae0c2e2" x="57.6" y="147.087125" style="stroke: #000000; stroke-width: 0.8"/>
      </g>
     </g>
     <g id="text_10">
      <!-- 0 -->
      <g transform="translate(44.2375 150.886344) scale(0.1 -0.1)">
       <use xlink:href="#DejaVuSans-30"/>
      </g>
     </g>
    </g>
    <g id="ytick_5">
     <g id="line2d_11">
      <g>
       <use xlink:href="#m1deae0c2e2" x="57.6" y="97.162042" style="stroke: #000000; stroke-width: 0.8"/>
      </g>
     </g>
     <g id="text_11">
      <!-- 50 -->
      <g transform="translate(37.875 100.961261) scale(0.1 -0.1)">
       <use xlink:href="#DejaVuSans-35"/>
       <use xlink:href="#DejaVuSans-30" x="63.623047"/>
      </g>
     </g>
    </g>
    <g id="ytick_6">
     <g id="line2d_12">
      <g>
       <use xlink:href="#m1deae0c2e2" x="57.6" y="47.236959" style="stroke: #000000; stroke-width: 0.8"/>
      </g>
     </g>
     <g id="text_12">
      <!-- 100 -->
      <g transform="translate(31.5125 51.036178) scale(0.1 -0.1)">
       <use xlink:href="#DejaVuSans-31"/>
       <use xlink:href="#DejaVuSans-30" x="63.623047"/>
       <use xlink:href="#DejaVuSans-30" x="127.246094"/>
      </g>
     </g>
    </g>
   </g>
   <g id="line2d_13">
    <path d="M 73.832727 138.411421 
L 73.865196 147.087125 
L 73.897665 102.762287 
L 73.962602 151.452766 
L 73.995071 116.919418 
L 74.060008 264.480147 
L 74.092477 143.764066 
L 74.189883 152.716447 
L 74.222352 291.296944 
L 74.287289 132.189562 
L 74.319758 134.523602 
L 74.352226 123.383832 
L 74.384695 146.031179 
L 74.417164 147.087125 
L 74.449633 142.890018 
L 74.482101 265.225873 
L 74.547039 147.463262 
L 74.579507 147.087125 
L 74.611976 134.172128 
L 74.644445 148.18831 
L 74.676914 147.087125 
L 74.709382 181.642513 
L 74.741851 128.734161 
L 74.77432 139.766126 
L 74.806788 146.031179 
L 74.839257 121.682375 
L 74.904194 140.192375 
L 74.936663 265.436099 
L 75.001601 147.087125 
L 75.034069 120.160477 
L 75.099007 147.087125 
L 75.163944 273.235588 
L 75.196413 119.832879 
L 75.228881 124.533939 
L 75.26135 111.686192 
L 75.326288 167.239806 
L 75.391225 147.315039 
L 75.423694 153.560997 
L 75.456162 144.678766 
L 75.488631 144.458281 
L 75.5211 106.84556 
L 75.586037 147.087125 
L 75.618506 147.087125 
L 75.650975 146.031179 
L 75.683443 233.537953 
L 75.748381 147.087125 
L 75.780849 137.217642 
L 75.813318 148.50094 
L 75.878255 147.087125 
L 75.910724 242.428588 
L 76.00813 136.292693 
L 76.040599 154.980304 
L 76.073068 254.635283 
L 76.105536 123.356898 
L 76.138005 110.790008 
L 76.235411 275.441665 
L 76.26788 132.747951 
L 76.300349 147.087125 
L 76.332817 291.80723 
L 76.397755 204.110411 
L 76.462692 146.031179 
L 76.495161 260.311916 
L 76.527629 136.645677 
L 76.592567 216.22467 
L 76.657504 143.88128 
L 76.722442 147.087125 
L 76.75491 150.589129 
L 76.787379 139.845752 
L 76.852317 141.080995 
L 76.884785 147.087125 
L 76.917254 113.495112 
L 76.982191 142.890018 
L 77.01466 142.372698 
L 77.047129 221.359873 
L 77.112066 147.087125 
L 77.144535 147.209898 
L 77.177004 124.000084 
L 77.241941 129.486514 
L 77.27441 146.031179 
L 77.306878 144.678766 
L 77.339347 295.488 
L 77.404284 137.998883 
L 77.436753 282.515394 
L 77.501691 130.477631 
L 77.566628 151.050607 
L 77.664034 96.793676 
L 77.696503 158.384569 
L 77.793909 151.240378 
L 77.826378 140.620191 
L 77.891315 147.087125 
L 77.923784 148.068644 
L 77.988721 147.087125 
L 78.118596 104.954848 
L 78.345877 291.123839 
L 78.378345 132.480057 
L 78.443283 239.850297 
L 78.475752 248.302055 
L 78.50822 134.456562 
L 78.573158 187.462486 
L 78.605626 250.930087 
L 78.703032 249.273416 
L 78.735501 170.944331 
L 78.832907 172.945511 
L 78.865376 171.961824 
L 78.897845 172.132578 
L 78.930313 146.387496 
L 78.962782 197.091152 
L 78.995251 154.86911 
L 79.092657 201.780212 
L 79.190063 112.199915 
L 79.255 115.658717 
L 79.352407 158.9951 
L 79.384875 150.815761 
L 79.449813 111.295074 
L 79.482281 111.464167 
L 79.547219 170.974049 
L 79.612156 143.509235 
L 79.709562 111.464167 
L 79.742031 112.973509 
L 79.7745 111.149783 
L 79.871906 163.110666 
L 79.904374 111.86771 
L 80.001781 116.371342 
L 80.066718 132.904203 
L 80.099187 164.292145 
L 80.131655 103.630939 
L 80.164124 146.017647 
L 80.26153 119.848059 
L 80.293999 120.042373 
L 80.326468 165.12884 
L 80.358936 118.623276 
L 80.423874 149.836145 
L 80.488811 110.045408 
L 80.553748 123.767025 
L 80.651155 112.950608 
L 80.683623 91.104626 
L 80.748561 119.992912 
L 80.910904 245.093987 
L 80.943373 136.050138 
L 81.00831 218.097324 
L 81.105716 155.797202 
L 81.138185 216.879059 
L 81.170654 147.564017 
L 81.203122 154.57034 
L 81.235591 159.196251 
L 81.300529 155.797202 
L 81.332997 219.287276 
L 81.397935 216.879059 
L 81.430403 136.863836 
L 81.52781 155.797202 
L 81.560278 155.797202 
L 81.592747 257.281444 
L 81.657684 154.57034 
L 81.690153 216.879059 
L 81.722622 154.57034 
L 81.820028 155.797202 
L 81.852497 245.093987 
L 81.917434 219.287276 
L 82.01484 155.172227 
L 82.144715 257.281444 
L 82.209652 136.863836 
L 82.27459 155.797202 
L 82.339527 256.350884 
L 82.404464 225.170773 
L 82.469402 155.172227 
L 82.501871 257.281444 
L 82.566808 154.57034 
L 82.599277 137.694644 
L 82.631745 216.879059 
L 82.696683 159.196251 
L 82.729151 155.172227 
L 82.76162 219.287276 
L 82.826558 216.879059 
L 82.859026 136.863836 
L 82.891495 219.287276 
L 82.923964 219.287276 
L 82.988901 224.995338 
L 83.02137 155.797202 
L 83.118776 223.765224 
L 83.151245 219.287276 
L 83.183713 216.879059 
L 83.216182 228.305842 
L 83.313588 155.172227 
L 83.346057 174.700195 
L 83.378525 152.864142 
L 83.410994 253.503946 
L 83.475932 232.164342 
L 83.670744 151.704593 
L 83.703213 229.032713 
L 83.800619 216.879059 
L 83.898025 155.797202 
L 83.930493 244.142738 
L 84.0279 219.287276 
L 84.060368 212.933263 
L 84.125306 221.617789 
L 84.190243 143.857992 
L 84.25518 223.765224 
L 84.320118 214.762189 
L 84.385055 156.261672 
L 84.417524 159.811298 
L 84.449993 260.636077 
L 84.482461 143.911279 
L 84.51493 163.436322 
L 84.547399 163.436322 
L 84.677274 212.933263 
L 84.742211 157.133157 
L 84.77468 184.832127 
L 84.807148 212.933263 
L 84.872086 197.95184 
L 84.904554 197.95184 
L 85.034429 173.175983 
L 85.066898 137.232279 
L 85.131835 149.766133 
L 85.196773 161.718226 
L 85.326648 115.322211 
L 85.52146 159.110767 
L 85.553928 109.36887 
L 85.586397 161.718226 
L 85.618866 159.110767 
L 85.813678 106.78771 
L 85.846147 122.10222 
L 85.911084 145.793362 
L 85.943553 122.56213 
L 85.976022 121.81097 
L 86.00849 159.640677 
L 86.073428 122.10222 
L 86.105896 110.742445 
L 86.138365 121.81097 
L 86.26824 159.640677 
L 86.333177 122.56213 
L 86.365646 123.505802 
L 86.398115 159.275462 
L 86.463052 121.81097 
L 86.495521 147.153991 
L 86.560458 163.349739 
L 86.625396 156.798279 
L 86.722802 123.495248 
L 86.75527 167.781915 
L 86.787739 121.81097 
L 86.820208 161.926608 
L 86.852677 123.741561 
L 86.917614 146.017647 
L 86.950083 148.261278 
L 86.982551 122.10222 
L 87.01502 160.629343 
L 87.047489 146.017647 
L 87.079957 144.636161 
L 87.112426 122.56213 
L 87.144895 136.654798 
L 87.177364 160.595865 
L 87.242301 135.746347 
L 87.27477 153.724844 
L 87.307238 106.831737 
L 87.404644 122.10222 
L 87.534519 171.999652 
L 87.664394 137.209353 
L 87.729331 135.746347 
L 87.7618 123.741561 
L 87.794269 145.793362 
L 87.859206 194.837584 
L 88.02155 190.631927 
L 88.054018 122.835775 
L 88.151425 137.209353 
L 88.183893 121.244205 
L 88.248831 178.288221 
L 88.313768 154.98168 
L 88.346237 135.077764 
L 88.378706 201.018023 
L 88.443643 165.830625 
L 88.476112 151.551976 
L 88.50858 182.587697 
L 88.541049 159.006716 
L 88.573518 158.812489 
L 88.703393 210.81631 
L 88.800799 241.358709 
L 88.833267 230.556248 
L 88.865736 232.897709 
L 88.898205 221.12682 
L 88.930673 238.664905 
L 88.963142 242.30593 
L 88.995611 226.101433 
L 89.02808 244.555205 
L 89.060548 230.221647 
L 89.190423 249.199139 
L 89.222892 230.221647 
L 89.287829 243.478931 
L 89.320298 242.118334 
L 89.352767 251.717521 
L 89.417704 245.101058 
L 89.450173 242.118334 
L 89.482641 245.101058 
L 89.51511 248.988503 
L 89.547579 229.335406 
L 89.612516 243.478931 
L 89.644985 247.00129 
L 89.677454 226.956444 
L 89.742391 241.005253 
L 89.77486 249.199139 
L 89.872266 247.00129 
L 89.937203 249.199139 
L 89.969672 239.279701 
L 90.067078 241.358709 
L 90.099547 247.997846 
L 90.132015 230.221647 
L 90.164484 249.199139 
L 90.196953 249.199139 
L 90.229421 238.381856 
L 90.326828 241.005253 
L 90.424234 251.717521 
L 90.456702 247.00129 
L 90.52164 251.717521 
L 90.619046 242.118334 
L 90.651515 251.717521 
L 90.683983 231.218327 
L 90.716452 249.199139 
L 90.846327 226.956444 
L 90.943733 226.431348 
L 90.976202 251.717521 
L 91.106076 245.101058 
L 91.138545 245.101058 
L 91.203483 249.199139 
L 91.235951 240.127934 
L 91.300889 249.199139 
L 91.333357 234.586176 
L 91.398295 249.199139 
L 91.495701 240.127934 
L 91.52817 242.118334 
L 91.593107 247.00129 
L 91.625576 222.894242 
L 91.690513 251.717521 
L 91.787919 228.996214 
L 91.820388 243.478931 
L 91.885325 249.199139 
L 91.917794 242.118334 
L 91.982731 245.101058 
L 92.0152 249.199139 
L 92.047669 247.00129 
L 92.177544 241.005253 
L 92.307418 245.101058 
L 92.339887 251.717521 
L 92.372356 243.478931 
L 92.437293 249.199139 
L 92.534699 238.145036 
L 92.567168 249.199139 
L 92.632105 241.005253 
L 92.664574 238.381856 
L 92.697043 251.717521 
L 92.76198 247.00129 
L 92.794449 242.118334 
L 92.826918 245.101058 
L 92.859386 249.199139 
L 92.891855 245.101058 
L 92.956792 224.352692 
L 92.989261 235.601863 
L 93.119136 247.997846 
L 93.249011 241.005253 
L 93.313948 249.199139 
L 93.346417 243.478931 
L 93.411354 242.118334 
L 93.50876 249.199139 
L 93.638635 241.005253 
L 93.736041 251.717521 
L 93.833447 228.996214 
L 93.865916 247.00129 
L 93.995791 249.199139 
L 94.060728 249.199139 
L 94.223072 242.118334 
L 94.385415 249.199139 
L 94.417884 247.997846 
L 94.450353 241.005253 
L 94.51529 243.478931 
L 94.547759 249.199139 
L 94.612696 247.997846 
L 94.645165 242.118334 
L 94.710102 243.478931 
L 94.742571 251.717521 
L 94.77504 241.005253 
L 94.807508 247.997846 
L 94.904914 243.478931 
L 94.937383 247.997846 
L 95.002321 244.228084 
L 95.034789 243.478931 
L 95.067258 224.352692 
L 95.132195 238.664905 
L 95.229602 251.717521 
L 95.26207 245.101058 
L 95.294539 245.101058 
L 95.327008 247.00129 
L 95.424414 240.127934 
L 95.489351 249.199139 
L 95.52182 247.00129 
L 95.586757 240.127934 
L 95.619226 244.555205 
L 95.651695 249.199139 
L 95.684163 234.586176 
L 95.716632 251.717521 
L 95.749101 247.00129 
L 95.781569 251.717521 
L 95.814038 238.664905 
L 95.878976 251.717521 
L 95.976382 243.478931 
L 96.073788 249.199139 
L 96.106256 238.381856 
L 96.171194 240.127934 
L 96.333537 247.997846 
L 96.366006 243.478931 
L 96.463412 244.555205 
L 96.495881 251.717521 
L 96.52835 247.00129 
L 96.560818 227.070833 
L 96.593287 249.199139 
L 96.625756 243.478931 
L 96.658224 245.101058 
L 96.690693 244.555205 
L 96.723162 240.127934 
L 96.820568 241.005253 
L 96.853037 249.199139 
L 96.917974 243.478931 
L 96.950443 241.005253 
L 96.982911 243.478931 
L 97.01538 247.00129 
L 97.047849 242.118334 
L 97.080317 245.101058 
L 97.112786 244.555205 
L 97.145255 251.717521 
L 97.210192 245.101058 
L 97.242661 243.478931 
L 97.27513 247.00129 
L 97.307598 247.00129 
L 97.340067 243.478931 
L 97.405005 245.101058 
L 97.437473 247.997846 
L 97.469942 243.478931 
L 97.502411 244.555205 
L 97.534879 242.118334 
L 97.599817 251.717521 
L 97.664754 247.997846 
L 97.697223 229.335406 
L 97.76216 238.145036 
L 97.794629 238.381856 
L 97.892035 249.199139 
L 97.924504 243.478931 
L 97.956972 238.381856 
L 97.989441 245.101058 
L 98.054379 247.997846 
L 98.086847 243.478931 
L 98.184253 244.555205 
L 98.281659 245.101058 
L 98.411534 240.127934 
L 98.444003 244.555205 
L 98.476472 241.005253 
L 98.50894 229.335406 
L 98.541409 241.358709 
L 98.638815 249.199139 
L 98.671284 243.478931 
L 98.736221 249.199139 
L 98.76869 249.199139 
L 98.801159 247.997846 
L 98.833627 240.127934 
L 98.898565 242.118334 
L 98.963502 247.997846 
L 98.995971 243.478931 
L 99.060908 245.101058 
L 99.125846 240.127934 
L 99.158314 247.997846 
L 99.223252 244.555205 
L 99.288189 241.358709 
L 99.320658 242.118334 
L 99.483001 251.717521 
L 99.612876 241.005253 
L 99.645345 251.717521 
L 99.742751 249.199139 
L 99.807688 242.118334 
L 99.840157 251.717521 
L 99.872626 242.118334 
L 99.905095 234.586176 
L 99.937563 251.717521 
L 99.970032 241.005253 
L 100.002501 251.717521 
L 100.067438 241.005253 
L 100.099907 234.586176 
L 100.132375 247.00129 
L 100.294719 251.717521 
L 100.424594 243.478931 
L 100.489531 251.717521 
L 100.554469 234.586176 
L 100.586937 249.199139 
L 100.619406 251.717521 
L 100.684343 241.005253 
L 100.749281 243.478931 
L 100.814218 245.101058 
L 100.846687 243.478931 
L 100.879156 243.478931 
L 100.944093 245.101058 
L 101.00903 241.005253 
L 101.171374 249.199139 
L 101.203843 247.997846 
L 101.236311 240.127934 
L 101.333717 242.118334 
L 101.398655 245.101058 
L 101.431123 240.127934 
L 101.463592 251.717521 
L 101.496061 251.717521 
L 101.625936 242.118334 
L 101.75581 249.199139 
L 101.820748 242.118334 
L 101.853217 249.199139 
L 101.885685 247.997846 
L 101.918154 242.118334 
L 101.983091 244.555205 
L 102.01556 251.717521 
L 102.112966 249.199139 
L 102.210372 241.005253 
L 102.242841 251.717521 
L 102.307778 249.199139 
L 102.437653 243.478931 
L 102.470122 251.717521 
L 102.502591 241.005253 
L 102.567528 249.199139 
L 102.632465 249.199139 
L 102.664934 245.101058 
L 102.697403 249.199139 
L 102.729872 251.717521 
L 102.827278 242.118334 
L 102.924684 251.717521 
L 102.989621 247.00129 
L 103.02209 247.997846 
L 103.054559 249.199139 
L 103.087027 247.00129 
L 103.151965 238.381856 
L 103.184433 242.118334 
L 103.249371 251.717521 
L 103.314308 247.997846 
L 103.411714 249.199139 
L 103.476652 241.005253 
L 103.541589 251.717521 
L 103.574058 244.555205 
L 103.638995 249.199139 
L 103.736401 235.601863 
L 103.898745 251.717521 
L 104.02862 244.555205 
L 104.061088 243.478931 
L 104.093557 251.717521 
L 104.158494 241.005253 
L 104.190963 249.199139 
L 104.320838 229.335406 
L 104.385775 251.717521 
L 104.450713 247.00129 
L 104.483181 249.199139 
L 104.51565 241.005253 
L 104.580588 247.997846 
L 104.742931 240.127934 
L 104.872806 249.199139 
L 104.937743 241.005253 
L 105.002681 241.358709 
L 105.035149 247.997846 
L 105.100087 244.555205 
L 105.165024 245.101058 
L 105.197493 242.118334 
L 105.229962 247.00129 
L 105.294899 243.478931 
L 105.327368 243.478931 
L 105.359836 251.717521 
L 105.424774 241.358709 
L 105.489711 229.335406 
L 105.554649 235.601863 
L 105.684523 249.199139 
L 105.749461 244.555205 
L 105.846867 245.101058 
L 105.944273 251.717521 
L 106.00921 244.555205 
L 106.041679 251.717521 
L 106.204023 241.358709 
L 106.301429 249.199139 
L 106.431303 245.101058 
L 106.496241 243.478931 
L 106.561178 249.199139 
L 106.593647 241.005253 
L 106.658584 243.478931 
L 106.723522 244.555205 
L 106.755991 242.118334 
L 106.788459 245.101058 
L 106.820928 247.00129 
L 106.853397 240.127934 
L 106.918334 241.005253 
L 107.048209 251.717521 
L 107.080678 249.199139 
L 107.210552 241.005253 
L 107.243021 247.00129 
L 107.340427 245.101058 
L 107.372896 241.005253 
L 107.405365 247.00129 
L 107.502771 251.717521 
L 107.76252 231.218507 
L 107.794989 239.785519 
L 107.859926 230.267711 
L 107.892395 224.687834 
L 107.924864 237.512268 
L 107.957332 231.218507 
L 108.02227 229.205761 
L 108.087207 235.537026 
L 108.119676 231.218507 
L 108.152145 242.379696 
L 108.217082 239.785519 
L 108.314488 224.687834 
L 108.444363 238.730779 
L 108.574238 230.267711 
L 108.606706 232.437954 
L 108.736581 239.785519 
L 108.801519 233.872539 
L 108.866456 219.398648 
L 108.898925 235.297175 
L 108.931394 233.840277 
L 108.963862 242.410952 
L 109.0288 237.512268 
L 109.158674 231.251265 
L 109.256081 242.410952 
L 109.385955 232.255499 
L 109.51583 239.817029 
L 109.645705 233.872539 
L 109.77558 242.410952 
L 109.840517 224.720966 
L 109.905455 232.437954 
L 109.937923 230.300716 
L 109.970392 233.536706 
L 110.035329 232.437954 
L 110.067798 239.817029 
L 110.132735 229.236475 
L 110.197673 242.410952 
L 110.26261 238.406809 
L 110.295079 239.817029 
L 110.327548 237.629758 
L 110.360016 238.406809 
L 110.392485 237.54403 
L 110.424954 232.437954 
L 110.489891 237.54403 
L 110.52236 238.814783 
L 110.587297 239.817029 
L 110.619766 226.109518 
L 110.749641 122.877269 
L 110.782109 125.387674 
L 110.814578 137.158943 
L 110.847047 112.045565 
L 110.911984 119.595756 
L 110.944453 111.67266 
L 111.00939 119.595756 
L 111.041859 111.855893 
L 111.074328 111.855893 
L 111.139265 113.09177 
L 111.171734 120.041074 
L 111.236671 111.495834 
L 111.26914 112.653563 
L 111.366546 112.24171 
L 111.399015 113.320865 
L 111.431484 111.495834 
L 111.463952 112.24171 
L 111.496421 111.855893 
L 111.52889 112.24171 
L 111.593827 112.653563 
L 111.691233 120.709439 
L 111.723702 120.36455 
L 111.756171 112.444363 
L 111.821108 114.304997 
L 111.853577 119.887328 
L 111.886045 112.653563 
L 111.918514 109.671283 
L 112.080858 141.197985 
L 112.113326 119.595756 
L 112.145795 158.407464 
L 112.178264 121.071318 
L 112.210732 167.52497 
L 112.308138 158.044486 
L 112.340607 120.437312 
L 112.373076 182.936526 
L 112.470482 189.214017 
L 112.502951 125.213408 
L 112.600357 132.437624 
L 112.632825 149.665087 
L 112.665294 130.358939 
L 112.730232 143.179678 
L 112.7627 150.029487 
L 112.795169 127.816999 
L 112.860106 137.211645 
L 112.925044 147.403285 
L 112.989981 127.816999 
L 113.054919 133.890495 
L 113.087387 133.705883 
L 113.119856 130.484907 
L 113.184793 145.16048 
L 113.217262 141.027854 
L 113.249731 135.383298 
L 113.282199 148.126535 
L 113.314668 145.382934 
L 113.347137 130.484907 
L 113.412074 135.397687 
L 113.444543 141.134362 
L 113.477012 126.476858 
L 113.541949 143.03344 
L 113.639355 139.086908 
L 113.671824 120.547564 
L 113.704293 145.003692 
L 113.736761 161.142243 
L 113.801699 143.071972 
L 113.834167 160.582401 
L 113.866636 169.44688 
L 113.899105 150.176409 
L 113.931574 161.449376 
L 113.964042 154.612145 
L 113.996511 165.227223 
L 114.093917 186.055138 
L 114.158854 161.449376 
L 114.191323 180.898952 
L 114.223792 197.080886 
L 114.256261 175.101288 
L 114.321198 191.790455 
L 114.353667 179.134346 
L 114.418604 191.790455 
L 114.451073 198.223035 
L 114.51601 165.151811 
L 114.613416 166.131451 
L 114.645885 186.133559 
L 114.710822 169.452101 
L 114.840697 144.838449 
L 114.905635 167.291028 
L 114.970572 164.109686 
L 115.003041 165.799345 
L 115.067978 137.038317 
L 115.165384 140.816041 
L 115.230322 179.199251 
L 115.295259 119.086297 
L 115.360196 137.038317 
L 115.392665 179.199251 
L 115.457602 119.627258 
L 115.490071 177.468516 
L 115.52254 177.468516 
L 115.555009 179.199251 
L 115.587477 177.468516 
L 115.619946 135.251157 
L 115.684883 177.468516 
L 115.749821 177.468516 
L 115.78229 179.199251 
L 115.879696 115.246238 
L 115.912164 148.982642 
L 116.042039 177.468516 
L 116.106977 177.468516 
L 116.139445 119.292069 
L 116.204383 177.468516 
L 116.236851 177.468516 
L 116.26932 179.082187 
L 116.399195 160.282459 
L 116.464132 177.468516 
L 116.496601 120.177087 
L 116.561538 177.468516 
L 116.594007 177.468516 
L 116.626476 171.061511 
L 116.658944 113.979759 
L 116.723882 177.468516 
L 116.756351 177.468516 
L 116.821288 179.082187 
L 116.853757 177.468516 
L 116.886225 134.150432 
L 116.951163 179.082187 
L 116.983631 180.812922 
L 117.0161 177.468516 
L 117.081038 119.292069 
L 117.113506 181.023216 
L 117.145975 156.698226 
L 117.210912 131.489433 
L 117.27585 191.575013 
L 117.340787 184.562155 
L 117.405725 156.698226 
L 117.470662 117.585948 
L 117.503131 212.141496 
L 117.568068 114.031577 
L 117.633005 160.282459 
L 117.665474 206.505587 
L 117.76288 195.018347 
L 117.827818 113.46519 
L 117.860286 156.698226 
L 117.892755 214.864374 
L 117.957692 168.957214 
L 117.990161 158.443832 
L 118.055099 122.976766 
L 118.087567 193.043893 
L 118.120036 156.698226 
L 118.152505 206.505587 
L 118.217442 158.443832 
L 118.249911 190.422617 
L 118.314848 181.023216 
L 118.347317 156.698226 
L 118.379786 158.443832 
L 118.412254 193.043893 
L 118.477192 160.282459 
L 118.50966 158.443832 
L 118.542129 160.282459 
L 118.574598 119.627258 
L 118.639535 158.443832 
L 118.704473 190.422617 
L 118.76941 187.906418 
L 118.866816 190.422617 
L 118.996691 118.961768 
L 119.094097 193.043893 
L 119.159034 191.38541 
L 119.191503 187.906418 
L 119.288909 119.627258 
L 119.321378 158.443832 
L 119.353847 158.443832 
L 119.386315 169.44126 
L 119.451253 155.143546 
L 119.483721 148.587048 
L 119.51619 203.356433 
L 119.581128 191.648211 
L 119.743471 119.627258 
L 119.905815 193.043893 
L 119.938283 187.906418 
L 120.068158 155.070815 
L 120.100627 206.640633 
L 120.165564 203.390474 
L 120.26297 155.070815 
L 120.327908 156.698226 
L 120.360376 156.698226 
L 120.457783 179.815523 
L 120.52272 188.764085 
L 120.620126 119.292069 
L 120.750001 155.143546 
L 120.814938 152.97242 
L 120.847407 158.655047 
L 120.879876 178.77435 
L 120.912344 152.97242 
L 120.977282 177.045863 
L 121.00975 172.642952 
L 121.042219 121.018369 
L 121.107157 176.951117 
L 121.172094 154.917588 
L 121.237031 156.698226 
L 121.2695 186.750667 
L 121.334437 161.449287 
L 121.366906 156.246 
L 121.399375 156.698226 
L 121.431844 122.116797 
L 121.464312 156.698226 
L 121.496781 178.77435 
L 121.52925 156.183583 
L 121.561718 158.443832 
L 121.594187 118.558966 
L 121.626656 156.183583 
L 121.659124 185.196293 
L 121.691593 134.547482 
L 121.756531 178.77435 
L 121.788999 178.77435 
L 121.821468 178.922695 
L 121.951343 113.46992 
L 122.081218 157.659328 
L 122.113686 118.343691 
L 122.146155 156.698226 
L 122.178624 176.951117 
L 122.211092 119.367222 
L 122.27603 153.869633 
L 122.308498 156.698226 
L 122.340967 192.953699 
L 122.373436 155.713972 
L 122.405905 155.713972 
L 122.438373 169.29112 
L 122.503311 153.869633 
L 122.535779 154.115063 
L 122.600717 161.449287 
L 122.633186 176.951117 
L 122.665654 157.659328 
L 122.730592 160.666909 
L 122.76306 150.519324 
L 122.827998 185.141273 
L 122.925404 176.951117 
L 122.957873 145.252059 
L 123.055279 151.143159 
L 123.087747 158.115858 
L 123.120216 129.801162 
L 123.185153 160.465316 
L 123.28256 152.270724 
L 123.315028 160.666909 
L 123.347497 154.047587 
L 123.379966 208.195347 
L 123.444903 152.270724 
L 123.477372 176.951117 
L 123.574778 171.62954 
L 123.607247 148.507739 
L 123.672184 165.649402 
L 123.704653 189.784455 
L 123.737121 148.507739 
L 123.802059 179.73269 
L 123.964402 155.79984 
L 123.996871 156.183583 
L 124.02934 148.507739 
L 124.061808 154.047587 
L 124.126746 148.507739 
L 124.191683 176.951117 
L 124.256621 180.633997 
L 124.321558 150.258717 
L 124.354027 184.049039 
L 124.386495 152.95163 
L 124.483901 178.209788 
L 124.51637 150.258717 
L 124.581308 179.73269 
L 124.678714 180.589965 
L 124.743651 117.472095 
L 124.873526 165.547048 
L 124.905995 156.563387 
L 124.970932 165.547048 
L 125.003401 163.712383 
L 125.035869 154.702314 
L 125.100807 165.547048 
L 125.133276 165.466917 
L 125.165744 163.712383 
L 125.198213 147.408967 
L 125.26315 165.547048 
L 125.295619 152.863745 
L 125.393025 175.249612 
L 125.425494 165.547048 
L 125.457963 126.601695 
L 125.5229 169.447954 
L 125.587837 144.772572 
L 125.620306 129.038854 
L 125.652775 163.712383 
L 125.685243 152.863745 
L 125.750181 163.712383 
L 125.78265 163.712383 
L 125.815118 132.32831 
L 125.880056 163.445813 
L 125.912524 163.712383 
L 126.00993 146.842489 
L 126.042399 160.628922 
L 126.204743 165.547048 
L 126.237211 163.712383 
L 126.334617 163.712383 
L 126.432024 217.946114 
L 126.464492 212.358435 
L 126.496961 212.358435 
L 126.52943 214.555501 
L 126.594367 212.358435 
L 126.626836 158.727779 
L 126.691773 217.946114 
L 126.789179 212.358435 
L 126.821648 113.838819 
L 126.886585 212.358435 
L 126.951523 116.83483 
L 126.983991 156.889152 
L 127.048929 155.143546 
L 127.113866 212.358435 
L 127.146335 116.326621 
L 127.178804 212.866452 
L 127.211272 117.65151 
L 127.341147 212.358435 
L 127.373616 212.358435 
L 127.438553 117.444281 
L 127.471022 212.358435 
L 127.503491 212.358435 
L 127.535959 117.141241 
L 127.633366 120.498148 
L 127.76324 212.358435 
L 127.860646 115.862503 
L 127.893115 119.052029 
L 127.925584 120.485861 
L 128.02299 112.496344 
L 128.055459 212.358435 
L 128.120396 212.358435 
L 128.250271 117.669054 
L 128.28274 117.66805 
L 128.315208 152.97242 
L 128.347677 112.496344 
L 128.380146 148.000336 
L 128.477552 92.322418 
L 128.51002 112.496344 
L 128.542489 112.496344 
L 128.574958 116.317346 
L 128.704833 212.358435 
L 128.76977 111.058291 
L 128.834707 117.66805 
L 128.867176 112.496344 
L 128.899645 116.317346 
L 128.964582 112.496344 
L 129.02952 212.358435 
L 129.061988 111.093475 
L 129.126926 212.358435 
L 129.256801 212.358435 
L 129.289269 111.093475 
L 129.354207 117.66805 
L 129.484081 212.358435 
L 129.549019 212.358435 
L 129.646425 111.669444 
L 129.7763 212.358435 
L 129.808769 112.496344 
L 129.841237 212.866452 
L 129.906175 124.133546 
L 129.938643 122.374061 
L 130.068518 180.812013 
L 130.133456 182.167646 
L 130.198393 123.852994 
L 130.295799 124.544125 
L 130.425674 182.167646 
L 130.555549 124.544125 
L 130.588017 126.2028 
L 130.652955 124.544125 
L 130.685423 121.273831 
L 130.750361 124.544125 
L 130.815298 124.544125 
L 130.847767 111.073943 
L 130.977642 173.575667 
L 131.042579 119.798729 
L 131.107517 134.276742 
L 131.172454 134.276742 
L 131.204923 128.577242 
L 131.26986 134.276742 
L 131.367266 166.699596 
L 131.497141 134.276742 
L 131.52961 134.276742 
L 131.594547 121.181349 
L 131.627016 125.793496 
L 131.756891 134.276742 
L 131.789359 134.276742 
L 131.854297 124.646718 
L 131.919234 125.99524 
L 131.951703 125.99524 
L 131.984172 127.17059 
L 132.01664 124.444699 
L 132.049109 124.646718 
L 132.114046 166.699596 
L 132.146515 165.09085 
L 132.178984 112.642602 
L 132.27639 134.276742 
L 132.308859 115.680827 
L 132.341327 166.699596 
L 132.406265 134.276742 
L 132.438733 134.276742 
L 132.471202 114.978521 
L 132.536139 134.276742 
L 132.568608 134.276742 
L 132.601077 118.161854 
L 132.666014 134.276742 
L 132.795889 134.276742 
L 132.893295 118.161854 
L 132.925764 134.276742 
L 132.958233 114.978521 
L 132.990701 115.680827 
L 133.055639 114.978521 
L 133.120576 134.276742 
L 133.153045 114.978521 
L 133.185513 114.978521 
L 133.250451 134.276742 
L 133.28292 117.3703 
L 133.347857 124.544125 
L 133.412794 123.409026 
L 133.5102 114.978521 
L 133.542669 117.3703 
L 133.607607 114.978521 
L 133.640075 120.230521 
L 133.705013 114.978521 
L 133.76995 114.978521 
L 133.802419 124.544125 
L 133.899825 123.409026 
L 133.997231 113.977617 
L 134.0297 117.3703 
L 134.062168 123.195622 
L 134.094637 113.977617 
L 134.127106 115.854211 
L 134.192043 113.977617 
L 134.224512 115.854211 
L 134.256981 120.514791 
L 134.354387 119.683295 
L 134.419324 115.854211 
L 134.451793 120.230521 
L 134.484262 119.683295 
L 134.581668 115.854211 
L 134.711542 123.532977 
L 134.77648 115.854211 
L 134.841417 120.230521 
L 134.873886 120.230521 
L 134.906355 119.953377 
L 134.971292 120.230521 
L 135.003761 115.854211 
L 135.068698 119.420211 
L 135.101167 119.953377 
L 135.133636 113.977617 
L 135.198573 120.230521 
L 135.231042 115.854211 
L 135.393385 123.325238 
L 135.458323 120.230521 
L 135.490791 122.549054 
L 135.52326 122.926241 
L 135.620666 123.532977 
L 135.653135 115.854211 
L 135.718072 123.123002 
L 135.750541 119.420211 
L 135.78301 113.977617 
L 135.815478 122.734933 
L 135.847947 118.436696 
L 135.912884 123.325238 
L 135.977822 122.549054 
L 136.01029 122.926241 
L 136.042759 122.087429 
L 136.075228 122.549054 
L 136.107697 122.549054 
L 136.237571 123.532977 
L 136.27004 122.734933 
L 136.334977 123.123002 
L 136.367446 123.123002 
L 136.399915 123.325238 
L 136.432384 122.368583 
L 136.464852 122.549054 
L 136.497321 113.977617 
L 136.52979 122.926241 
L 136.562258 122.734933 
L 136.659665 123.325238 
L 136.757071 121.859425 
L 136.789539 122.368583 
L 136.822008 121.5467 
L 136.854477 122.734933 
L 136.886945 121.859425 
L 136.984352 122.734933 
L 137.01682 121.5467 
L 137.049289 122.1935 
L 137.081758 123.532977 
L 137.211632 111.235065 
L 137.27657 122.368583 
L 137.309039 120.02928 
L 137.341507 111.235065 
L 137.406445 121.255218 
L 137.438913 111.443691 
L 137.471382 122.087429 
L 137.536319 111.235065 
L 137.568788 115.427156 
L 137.633726 111.443691 
L 137.666194 111.235065 
L 137.698663 122.087429 
L 137.7636 111.235065 
L 137.796069 111.443691 
L 137.925944 122.087429 
L 138.055819 111.235065 
L 138.088287 111.443691 
L 138.120756 111.235065 
L 138.250631 122.087429 
L 138.348037 111.443691 
L 138.380506 122.087429 
L 138.445443 111.443691 
L 138.477912 111.443691 
L 138.51038 111.235065 
L 138.607787 122.087429 
L 138.737661 111.235065 
L 138.802599 111.235065 
L 138.932474 122.087429 
L 138.964942 122.087429 
L 139.094817 111.235065 
L 139.224692 122.087429 
L 139.257161 122.087429 
L 139.289629 111.660811 
L 139.354567 122.087429 
L 139.419504 122.087429 
L 139.484442 111.235065 
L 139.51691 122.087429 
L 139.744191 122.087429 
L 139.77666 110.459924 
L 139.841597 122.087429 
L 140.101347 122.087429 
L 140.198753 111.235065 
L 140.328628 122.087429 
L 140.458503 113.033538 
L 140.555909 122.087429 
L 140.588377 120.023777 
L 140.620846 111.143109 
L 140.653315 122.087429 
L 140.685783 113.658772 
L 140.718252 122.087429 
L 140.750721 104.187176 
L 140.78319 120.023777 
L 140.815658 110.518692 
L 140.880596 120.023777 
L 140.913064 120.023777 
L 140.945533 110.506698 
L 141.042939 110.5286 
L 141.140345 128.875413 
L 141.237751 110.036876 
L 141.302689 111.143109 
L 141.335158 110.76891 
L 141.465032 120.023777 
L 141.562438 120.023777 
L 141.627376 110.036876 
L 141.659845 120.023777 
L 141.789719 120.023777 
L 141.919594 110.036876 
L 142.049469 120.023777 
L 142.211812 120.023777 
L 142.27675 99.56803 
L 142.309219 120.023777 
L 142.341687 120.023777 
L 142.374156 106.374854 
L 142.439093 120.023777 
L 142.666374 120.023777 
L 142.698843 100.295987 
L 142.76378 119.297069 
L 142.893655 120.023777 
L 142.926124 120.023777 
L 142.958593 119.297069 
L 142.991061 120.023777 
L 143.02353 113.658772 
L 143.088467 120.023777 
L 143.153405 120.023777 
L 143.250811 113.658772 
L 143.380686 120.023777 
L 143.413154 120.023777 
L 143.445623 119.297069 
L 143.510561 120.023777 
L 143.575498 120.023777 
L 143.607967 113.658772 
L 143.672904 120.023777 
L 143.705373 120.023777 
L 143.802779 113.658772 
L 143.932654 120.023777 
L 143.965122 120.023777 
L 144.062528 113.658772 
L 144.192403 120.023777 
L 144.322278 113.344096 
L 144.452153 113.658772 
L 144.484622 113.658772 
L 144.51709 119.297069 
L 144.582028 113.658772 
L 144.614496 113.658772 
L 144.646965 112.727049 
L 144.711902 113.658772 
L 144.77684 113.658772 
L 144.809309 120.023777 
L 144.874246 113.658772 
L 144.906715 113.658772 
L 145.036589 110.691589 
L 145.101527 113.033538 
L 145.166464 113.344096 
L 145.198933 97.131507 
L 145.231402 110.970905 
L 145.296339 97.131507 
L 145.328808 97.131507 
L 145.458683 100.674641 
L 145.491151 108.837864 
L 145.52362 97.131507 
L 145.556089 97.131507 
L 145.653495 99.199795 
L 145.718432 97.131507 
L 145.750901 99.927121 
L 145.880776 97.802695 
L 145.913244 99.927121 
L 145.978182 99.199795 
L 146.108057 90.870154 
L 146.562618 90.870154 
L 146.595087 109.242737 
L 146.660025 90.870154 
L 146.919774 90.870154 
L 146.952243 96.299807 
L 147.01718 90.870154 
L 147.147055 90.870154 
L 147.179524 116.095146 
L 147.244461 103.79028 
L 147.341867 90.870154 
L 147.439273 116.095146 
L 147.471742 107.110455 
L 147.569148 90.870154 
L 147.666554 116.095146 
L 147.76396 90.870154 
L 147.796429 109.289503 
L 147.893835 105.646882 
L 147.991241 116.095146 
L 148.153585 90.870154 
L 148.186054 90.870154 
L 148.28346 106.220417 
L 148.315928 90.870154 
L 148.348397 107.681817 
L 148.380866 116.095146 
L 148.413334 106.47616 
L 148.510741 107.368477 
L 148.543209 90.870154 
L 148.575678 90.870154 
L 148.673084 122.460152 
L 148.77049 90.870154 
L 148.932834 121.742269 
L 148.965302 107.368477 
L 148.997771 122.460152 
L 149.03024 121.039142 
L 149.062708 122.460152 
L 149.160115 107.368477 
L 149.225052 122.460152 
L 149.257521 107.368477 
L 149.354927 90.870154 
L 149.484802 107.368477 
L 149.647145 107.368477 
L 149.712082 119.014412 
L 149.744551 90.870154 
L 149.874426 107.368477 
L 149.906895 107.368477 
L 150.036769 102.537189 
L 150.069238 122.460152 
L 150.134176 107.368477 
L 150.166644 107.368477 
L 150.296519 102.537189 
L 150.328988 118.366497 
L 150.393925 107.368477 
L 150.5238 102.537189 
L 163.511281 102.537189 
L 163.543749 91.035344 
L 163.608687 102.537189 
L 163.641155 102.537189 
L 163.673624 100.406924 
L 163.738561 102.537189 
L 163.998311 102.537189 
L 164.063249 91.991101 
L 164.095717 95.245998 
L 164.128186 99.247619 
L 164.160655 94.904094 
L 164.193123 98.699657 
L 164.322998 90.926127 
L 164.420404 91.467681 
L 164.452873 96.028374 
L 164.51781 94.655752 
L 164.550279 92.760239 
L 164.615216 101.359945 
L 164.680154 98.699657 
L 164.712623 98.691976 
L 164.745091 97.658903 
L 164.842497 104.02328 
L 164.874966 102.537189 
L 165.134716 102.537189 
L 165.199653 102.401098 
L 165.232122 102.537189 
L 165.459403 102.537189 
L 165.491871 102.401098 
L 165.556809 102.537189 
L 165.686684 93.535011 
L 165.816558 102.537189 
L 175.557169 102.537189 
L 175.687044 92.103528 
L 176.174074 92.103528 
L 176.206543 74.438721 
L 176.27148 92.103528 
L 176.303949 92.103528 
L 176.433824 74.438721 
L 176.661105 74.438721 
L 176.693573 92.103528 
L 176.758511 74.438721 
L 176.920854 74.438721 
L 177.050729 92.103528 
L 179.226132 92.103528 
L 179.323538 84.323144 
L 179.356007 96.762113 
L 179.420944 88.076322 
L 179.485882 79.124151 
L 179.51835 82.536961 
L 179.550819 99.149321 
L 179.615756 86.168059 
L 179.648225 82.536961 
L 179.745631 101.624914 
L 179.7781 101.556441 
L 179.810569 100.375441 
L 179.843037 102.899075 
L 179.940443 101.624914 
L 179.972912 102.899075 
L 180.005381 100.375441 
L 180.03785 101.267572 
L 180.102787 101.267572 
L 180.135256 101.387086 
L 180.232662 104.802587 
L 180.297599 103.483139 
L 180.362537 110.584811 
L 180.395005 106.321418 
L 180.427474 105.299864 
L 180.492411 105.806075 
L 180.52488 107.180261 
L 180.557349 105.806075 
L 180.589818 104.314051 
L 180.622286 105.15762 
L 180.654755 107.383992 
L 180.687224 104.674212 
L 180.752161 106.884094 
L 180.817098 106.510086 
L 180.882036 107.893122 
L 180.946973 106.014184 
L 181.011911 106.510086 
L 181.044379 108.785332 
L 181.109317 107.015049 
L 181.141785 107.529275 
L 181.174254 103.483139 
L 181.206723 107.893122 
L 181.239192 106.660855 
L 181.27166 107.529275 
L 181.304129 104.314051 
L 181.369066 106.660855 
L 181.401535 106.660855 
L 181.498941 109.478029 
L 181.563879 105.806075 
L 181.596347 110.93793 
L 181.628816 108.247814 
L 181.726222 108.939921 
L 181.758691 108.586364 
L 181.791159 110.026246 
L 181.856097 109.683112 
L 181.888566 108.586364 
L 181.953503 109.129666 
L 181.985972 109.478029 
L 182.01844 112.076647 
L 182.050909 109.129666 
L 182.083378 110.026246 
L 182.148315 107.015049 
L 182.180784 110.384542 
L 182.343127 107.767709 
L 182.473002 104.929561 
L 182.505471 105.381327 
L 182.570408 90.734059 
L 182.602877 102.537189 
L 182.635346 102.537189 
L 182.667814 102.401098 
L 182.732752 102.537189 
L 182.765221 102.537189 
L 182.797689 102.401098 
L 182.862627 102.537189 
L 182.927564 102.537189 
L 182.960033 96.995412 
L 183.02497 102.537189 
L 183.414595 102.537189 
L 183.447063 102.401098 
L 183.512001 102.537189 
L 183.576938 102.537189 
L 183.609407 102.401098 
L 183.674344 102.537189 
L 183.739282 102.537189 
L 183.77175 84.021538 
L 183.836688 102.537189 
L 184.063969 102.537189 
L 184.161375 84.021538 
L 184.291249 102.537203 
L 184.421124 84.021538 
L 184.550999 102.537189 
L 195.233202 102.537203 
L 195.492951 77.867179 
L 195.52542 79.340175 
L 195.622826 76.423547 
L 195.655295 174.087195 
L 195.687764 75.00714 
L 195.752701 175.965593 
L 195.817638 75.00714 
L 195.850107 175.965593 
L 195.882576 177.731067 
L 195.915045 171.699712 
L 195.947513 117.461363 
L 196.012451 158.28923 
L 196.044919 163.524863 
L 196.109857 158.28923 
L 196.142326 155.802699 
L 196.174794 158.28923 
L 196.207263 123.253424 
L 196.2722 151.463328 
L 196.434544 163.524863 
L 196.467013 160.861616 
L 196.499481 172.115508 
L 196.564419 163.524863 
L 196.694293 143.647962 
L 196.856637 173.902022 
L 196.889106 178.407411 
L 196.921574 169.145788 
L 196.986512 155.802736 
L 197.01898 163.524863 
L 197.051449 169.145788 
L 197.083918 163.524863 
L 197.148855 151.0693 
L 197.213793 155.802736 
L 197.27873 168.64924 
L 197.311199 151.08002 
L 197.376136 165.341668 
L 197.408605 162.400542 
L 197.441074 176.982118 
L 197.506011 158.731025 
L 197.635886 179.175595 
L 197.765761 165.963852 
L 197.830698 165.963852 
L 197.863167 160.173109 
L 197.895635 165.963852 
L 198.187854 209.7595 
L 198.220322 72.837044 
L 198.317729 88.076322 
L 198.350197 88.076322 
L 198.415135 90.052973 
L 198.447603 88.076322 
L 198.512541 88.076322 
L 198.545009 90.052973 
L 198.577478 88.076322 
L 198.609947 86.168059 
L 198.674884 88.076322 
L 198.804759 90.052973 
L 198.837228 90.052973 
L 198.869696 77.490003 
L 198.902165 209.7595 
L 198.967103 195.208685 
L 199.096977 82.536961 
L 199.161915 84.323144 
L 199.194383 68.499207 
L 199.259321 90.052973 
L 199.324258 86.168059 
L 199.454133 90.052973 
L 199.486602 88.076322 
L 199.551539 90.052973 
L 199.713883 90.052973 
L 199.746351 86.168059 
L 199.811289 90.052973 
L 200.071038 90.052973 
L 200.103507 209.7595 
L 200.168444 77.490003 
L 200.265851 90.052973 
L 200.298319 84.323144 
L 200.330788 84.323144 
L 200.460663 209.7595 
L 200.558069 186.779628 
L 200.590538 195.208685 
L 200.687944 195.208685 
L 200.817819 204.621969 
L 200.882756 204.621969 
L 201.012631 165.963852 
L 201.045099 179.175595 
L 201.077568 186.779628 
L 201.110037 172.27067 
L 201.142506 179.175595 
L 201.27238 165.963852 
L 201.402255 179.175595 
L 201.53213 172.27067 
L 201.564599 172.27067 
L 201.597067 179.175595 
L 201.629536 165.963852 
L 201.662005 172.27067 
L 201.759411 165.963852 
L 201.824348 154.734634 
L 201.889286 197.765844 
L 201.921754 197.765844 
L 202.084098 154.831059 
L 202.213973 167.678117 
L 202.246441 165.963852 
L 202.27891 160.173109 
L 202.311379 165.963852 
L 202.473722 197.765844 
L 202.960753 197.765844 
L 203.090628 58.894883 
L 203.123096 58.894883 
L 203.155565 197.765844 
L 203.252971 165.963852 
L 203.28544 165.963852 
L 203.317909 160.908657 
L 203.350377 172.27067 
L 203.382846 172.27067 
L 203.415315 186.779628 
L 203.447783 59.144967 
L 203.512721 183.431986 
L 203.545189 172.27067 
L 203.577658 175.143945 
L 203.707533 197.765844 
L 203.77247 197.765844 
L 203.869876 179.175595 
L 203.902345 186.779628 
L 204.064689 172.27067 
L 204.259501 195.208685 
L 204.324438 172.27067 
L 204.389376 186.779628 
L 204.486782 195.208685 
L 204.51925 186.779628 
L 204.551719 195.208685 
L 204.616657 209.7595 
L 204.649125 195.208685 
L 204.714063 183.431986 
L 204.746531 186.779628 
L 204.811469 204.621969 
L 204.843937 195.208685 
L 205.071218 114.066474 
L 205.233562 139.035603 
L 205.266031 110.311088 
L 205.298499 154.831059 
L 205.330968 160.173109 
L 205.363437 154.831059 
L 205.395905 110.311088 
L 205.460843 126.472747 
L 205.493312 130.378653 
L 205.52578 122.808608 
L 205.558249 126.472747 
L 205.78553 102.201325 
L 205.817999 107.351311 
L 205.850467 107.351311 
L 205.882936 113.034804 
L 205.915405 107.351311 
L 206.045279 97.498377 
L 206.077748 99.798648 
L 206.110217 102.201325 
L 206.142686 99.798648 
L 206.337498 80.280705 
L 206.369966 81.948552 
L 206.467373 77.083511 
L 206.499841 60.539888 
L 206.564779 81.948552 
L 206.727122 72.587334 
L 206.856997 75.547728 
L 206.889466 75.547728 
L 207.01934 69.758025 
L 207.051809 71.1575 
L 207.084278 69.758025 
L 207.116747 84.624234 
L 207.214153 80.914621 
L 207.246621 80.247727 
L 207.27909 80.914621 
L 207.441434 84.976703 
L 207.473902 91.56636 
L 207.53884 87.058387 
L 207.733652 84.976703 
L 207.863527 87.058387 
L 207.895995 87.058387 
L 207.993402 85.666262 
L 208.123276 87.761444 
L 208.155745 80.688767 
L 208.220682 90.625959 
L 208.253151 90.625959 
L 208.350557 89.182761 
L 208.415495 78.948251 
L 208.447963 90.625959 
L 208.480432 90.625959 
L 208.545369 92.836011 
L 208.675244 84.281489 
L 208.77265 92.092969 
L 208.805119 89.080881 
L 208.902525 94.342393 
L 208.934994 94.193723 
L 208.999931 86.408669 
L 209.0324 95.72686 
L 209.064869 94.956596 
L 209.129806 76.322866 
L 209.194743 77.990772 
L 209.259681 77.41155 
L 209.29215 77.990772 
L 209.357087 78.594615 
L 209.389556 77.990772 
L 209.422024 77.990772 
L 209.551899 100.233309 
L 209.486962 76.322866 
L 209.616837 98.744491 
L 209.649305 80.9779 
L 209.746711 84.858983 
L 209.77918 84.184085 
L 209.941524 92.589624 
L 210.006461 92.954544 
L 210.071398 87.02244 
L 210.201273 113.836644 
L 210.298679 89.022306 
L 210.331148 89.765156 
L 210.363617 114.253246 
L 210.396085 88.875012 
L 210.428554 89.173444 
L 210.52596 88.142352 
L 210.558429 98.305836 
L 210.655835 98.665726 
L 210.688304 83.275173 
L 210.753241 98.665726 
L 210.78571 88.281345 
L 210.818179 82.313963 
L 210.883116 87.95597 
L 210.915585 98.484491 
L 210.948053 87.809259 
L 210.980522 88.420711 
L 211.012991 88.319486 
L 211.045459 89.614791 
L 211.207803 115.080486 
L 211.337678 79.542029 
L 211.500021 115.274643 
L 211.564959 114.099591 
L 211.597427 114.485277 
L 211.694833 111.816125 
L 211.727302 115.274643 
L 211.79224 113.719777 
L 211.889646 111.425915 
L 211.857177 114.876929 
L 211.922114 111.816125 
L 211.954583 113.022427 
L 212.01952 111.413422 
L 212.051989 112.614595 
L 212.084458 112.614595 
L 212.246801 109.844849 
L 212.27927 87.696513 
L 212.311739 112.731879 
L 212.344208 108.689766 
L 212.409145 113.294228 
L 212.441614 111.041597 
L 212.474082 109.869858 
L 212.53902 111.093011 
L 212.571488 114.068549 
L 212.636426 111.041597 
L 212.668895 109.463206 
L 212.733832 114.485277 
L 212.766301 109.844849 
L 212.798769 109.844849 
L 212.961113 112.499799 
L 212.993582 114.099591 
L 213.02605 111.467145 
L 213.058519 112.714464 
L 213.090988 112.614674 
L 213.253331 114.159421 
L 213.2858 114.159421 
L 213.383206 113.461773 
L 213.448143 113.425757 
L 213.513081 114.534859 
L 213.642956 113.844008 
L 213.740362 114.916154 
L 213.77283 114.159421 
L 213.805299 113.345746 
L 213.837768 114.916154 
L 213.870236 114.676318 
L 213.902705 114.876929 
L 213.935174 146.754727 
L 213.967643 114.159421 
L 214.03258 145.554563 
L 214.065049 147.415026 
L 214.129986 146.148651 
L 214.162455 144.972191 
L 214.259861 114.159421 
L 214.29233 141.423971 
L 214.324798 140.247073 
L 214.454673 112.977407 
L 214.584548 143.741154 
L 214.617017 111.905692 
L 214.681954 113.067356 
L 214.811829 140.357991 
L 214.844298 114.159421 
L 214.909235 137.036418 
L 214.974172 138.562482 
L 215.006641 137.535516 
L 215.136516 135.43207 
L 215.168985 137.036418 
L 215.201453 133.863219 
L 215.233922 133.863219 
L 215.331328 135.43207 
L 215.52614 130.240298 
L 215.558609 130.240298 
L 215.623546 129.355098 
L 215.656015 130.826116 
L 215.78589 89.089602 
L 215.948233 89.089602 
L 215.980702 117.165793 
L 216.045639 89.089602 
L 217.084638 89.089602 
L 217.214513 92.074864 
L 217.344388 92.074864 
L 217.506731 74.919552 
L 217.636606 92.074864 
L 218.156105 92.074864 
L 218.28598 105.977229 
L 218.318449 106.871304 
L 218.350917 89.089602 
L 218.415855 104.222136 
L 218.480792 104.222136 
L 218.513261 89.142672 
L 218.578198 105.094278 
L 218.643136 105.094278 
L 218.675604 105.977229 
L 218.708073 88.091007 
L 218.740542 106.871304 
L 218.77301 106.871304 
L 218.837948 106.871304 
L 218.870416 107.776825 
L 218.902885 88.831045 
L 218.967823 107.776825 
L 219.03276 107.776825 
L 219.130166 105.977229 
L 219.162635 106.871304 
L 219.195104 118.189003 
L 219.260041 106.871304 
L 219.29251 105.977229 
L 219.324978 106.871304 
L 219.422384 118.189003 
L 219.454853 117.757308 
L 219.487322 118.62748 
L 219.552259 118.189003 
L 219.584728 114.907721 
L 219.649665 118.189003 
L 219.747071 89.089602 
L 219.77954 100.306547 
L 219.909415 89.089602 
L 219.941884 89.089602 
L 219.974352 117.757308 
L 220.03929 89.089602 
L 220.071758 89.089602 
L 220.201633 100.306547 
L 220.461383 100.306547 
L 220.493852 117.757308 
L 220.591258 117.332282 
L 220.623726 100.306547 
L 220.688664 117.332282 
L 220.721132 117.332282 
L 220.851007 117.757308 
L 220.883476 117.757308 
L 220.948413 117.332282 
L 220.980882 118.189003 
L 221.143226 117.332282 
L 221.175694 117.332282 
L 221.305569 116.913813 
L 221.338038 100.306547 
L 221.402975 116.913813 
L 221.467913 116.501794 
L 221.500381 117.332282 
L 221.565319 116.501794 
L 221.695194 116.913813 
L 221.760131 116.913813 
L 221.922474 116.09612 
L 221.954943 116.913813 
L 222.019881 116.09612 
L 222.052349 116.09612 
L 222.084818 116.501794 
L 222.149755 116.09612 
L 222.182224 115.696688 
L 222.214693 116.09612 
L 222.344568 116.501794 
L 222.474442 115.696688 
L 222.571848 116.09612 
L 222.734192 115.303398 
L 222.766661 115.303398 
L 222.864067 114.534859 
L 222.896535 114.916154 
L 222.961473 114.916154 
L 223.253691 111.687474 
L 223.28616 99.135523 
L 223.383566 104.091417 
L 223.416035 104.091417 
L 223.54591 102.537189 
L 224.552439 102.537189 
L 224.682314 102.401098 
L 224.714783 102.401098 
L 224.812189 102.537189 
L 224.844658 102.401098 
L 224.877126 91.793006 
L 224.909595 102.537189 
L 224.942064 102.401098 
L 225.071938 102.537189 
L 231.013711 102.537189 
L 231.111117 91.793006 
L 231.208523 102.537189 
L 231.240992 91.793006 
L 231.305929 102.537189 
L 231.338398 102.537189 
L 231.370867 91.793006 
L 231.435804 99.135523 
L 231.53321 102.537189 
L 231.630616 91.793006 
L 231.79296 111.687474 
L 231.825428 99.135523 
L 231.890366 113.425757 
L 231.922834 113.425757 
L 232.020241 91.793006 
L 232.052709 99.135523 
L 232.182584 113.813151 
L 232.27999 111.687474 
L 232.409865 114.159421 
L 232.474802 113.425757 
L 232.507271 114.159421 
L 232.53974 114.159421 
L 232.669615 114.916154 
L 232.702083 113.78975 
L 232.767021 114.534859 
L 232.799489 115.303398 
L 232.864427 114.534859 
L 232.896896 114.159421 
L 232.929364 114.916154 
L 232.961833 114.534859 
L 233.059239 114.534859 
L 233.091708 115.303398 
L 233.124176 114.916154 
L 233.156645 114.159421 
L 233.189114 114.534859 
L 233.318989 115.303398 
L 233.383926 115.303398 
L 233.513801 114.534859 
L 233.643676 114.909502 
L 233.676144 114.909502 
L 233.806019 116.501794 
L 233.870957 115.696688 
L 233.903425 116.501794 
L 233.968363 116.913813 
L 234.000831 115.696688 
L 234.130706 116.913813 
L 234.163175 115.303398 
L 234.228112 116.058459 
L 234.260581 116.058459 
L 234.325518 116.913813 
L 234.390456 116.501794 
L 234.487862 115.696688 
L 234.617737 116.913813 
L 234.650205 116.913813 
L 234.682674 115.669474 
L 234.747611 116.453571 
L 234.78008 116.501794 
L 234.942424 118.62748 
L 234.974892 118.189003 
L 235.007361 118.62748 
L 235.169705 119.984784 
L 235.234642 119.072856 
L 235.267111 119.984784 
L 235.299579 119.984784 
L 235.429454 118.189003 
L 235.591798 119.072856 
L 235.624266 119.072856 
L 235.689204 119.525249 
L 235.721673 119.072856 
L 235.754141 118.189003 
L 235.78661 119.072856 
L 235.884016 119.525249 
L 236.013891 113.714655 
L 236.143766 114.459953 
L 236.176234 114.08442 
L 236.208703 114.459953 
L 236.241172 114.841342 
L 236.27364 114.08442 
L 236.306109 110.238049 
L 236.338578 115.228682 
L 236.371047 113.714655 
L 236.53339 112.992073 
L 236.955483 112.992073 
L 237.052889 122.394106 
L 237.182764 112.992073 
L 237.215233 110.238049 
L 237.28017 112.992073 
L 237.604857 112.992073 
L 237.637326 123.934011 
L 237.669795 110.238049 
L 237.702263 110.238049 
L 237.734732 110.238049 
L 237.864607 124.463922 
L 237.994482 127.39353 
L 238.02695 127.39353 
L 238.091888 124.463922 
L 238.124356 127.39353 
L 238.156825 127.39353 
L 238.221763 124.463922 
L 238.254231 127.39353 
L 238.449043 127.39353 
L 238.481512 124.463922 
L 238.54645 127.39353 
L 239.065949 127.39353 
L 239.098417 114.674018 
L 239.163355 127.39353 
L 239.260761 127.39353 
L 239.358167 124.463922 
L 239.488042 102.437889 
L 239.520511 102.437889 
L 239.650385 102.957877 
L 239.78026 102.437889 
L 239.877666 102.437889 
L 239.942604 102.957877 
L 239.975072 102.437889 
L 240.007541 102.437889 
L 240.072479 102.957877 
L 240.104947 102.437889 
L 240.299759 102.437889 
L 240.429634 102.957877 
L 240.494572 102.437889 
L 240.52704 102.957877 
L 240.591978 102.957877 
L 240.721853 102.437889 
L 240.819259 102.957877 
L 240.949133 102.437889 
L 241.079008 102.957877 
L 241.111477 102.957877 
L 241.241352 102.437889 
L 241.371227 102.957877 
L 241.468633 102.957877 
L 241.598507 102.437889 
L 241.728382 102.957877 
L 241.760851 102.437889 
L 241.890726 124.463922 
L 242.020601 102.437889 
L 242.053069 102.437889 
L 242.182944 102.957877 
L 242.215413 102.957877 
L 242.28035 102.437889 
L 242.312819 124.463922 
L 242.377756 102.437889 
L 242.410225 102.437889 
L 242.5401 124.463922 
L 244.358347 124.463922 
L 244.488222 123.934011 
L 244.553159 123.934011 
L 244.683034 123.412508 
L 244.845378 124.463922 
L 244.975252 123.934011 
L 245.04019 123.934011 
L 245.137596 123.412508 
L 245.267471 123.934011 
L 245.397346 123.412508 
L 245.462283 123.412508 
L 245.52722 122.394106 
L 245.592158 122.899257 
L 245.689564 122.899257 
L 245.78697 114.141866 
L 245.851907 122.899257 
L 245.884376 122.394106 
L 245.916845 114.141866 
L 245.949313 122.899257 
L 245.981782 122.394106 
L 246.04672 122.394106 
L 246.111657 121.896905 
L 246.144126 122.394106 
L 246.209063 122.394106 
L 246.338938 123.412508 
L 246.468813 122.899257 
L 246.501281 114.571871 
L 246.566219 122.899257 
L 246.598688 122.899257 
L 246.631156 123.412508 
L 246.663625 114.141866 
L 246.728562 122.899257 
L 246.761031 122.899257 
L 246.7935 123.412508 
L 246.825968 114.141866 
L 246.890906 122.899257 
L 246.923375 122.899257 
L 247.053249 114.571871 
L 247.085718 115.008499 
L 247.150655 114.571871 
L 247.183124 114.571871 
L 247.215593 115.451863 
L 247.248062 123.412508 
L 247.312999 114.571871 
L 247.345468 122.899257 
L 247.475342 123.412508 
L 247.54028 122.899257 
L 247.670155 114.141866 
L 247.702623 114.141866 
L 247.735092 122.899257 
L 247.800029 114.571871 
L 247.832498 114.571871 
L 247.864967 172.115508 
L 247.929904 114.571871 
L 247.962373 114.571871 
L 248.059779 178.407411 
L 248.092248 175.200263 
L 248.222123 178.407411 
L 248.351997 115.451863 
L 248.481872 178.407411 
L 248.514341 115.451863 
L 248.579278 178.407411 
L 248.611747 178.407411 
L 248.644216 115.008499 
L 248.709153 178.407411 
L 248.741622 178.407411 
L 248.77409 115.008499 
L 248.871497 115.451863 
L 248.903965 115.451863 
L 248.936434 115.008499 
L 249.001371 115.451863 
L 249.066309 115.451863 
L 249.196184 181.744947 
L 249.29359 181.744947 
L 249.358527 115.451863 
L 249.390996 181.744947 
L 249.455933 181.744947 
L 249.520871 115.451863 
L 249.553339 181.744947 
L 249.650745 181.744947 
L 249.683214 115.451863 
L 249.748152 181.744947 
L 250.819619 181.744947 
L 250.981962 171.605632 
L 251.014431 173.902064 
L 251.0469 171.605632 
L 251.176774 165.47967 
L 251.209243 167.405578 
L 251.241712 167.405578 
L 251.274181 163.657084 
L 251.339118 167.405578 
L 251.468993 158.731025 
L 251.501461 165.47967 
L 251.566399 161.929539 
L 251.598868 161.929539 
L 251.728742 115.110729 
L 251.79368 115.110729 
L 251.858617 115.451863 
L 251.891086 115.110729 
L 251.923555 115.110729 
L 251.956023 115.451863 
L 252.020961 115.110729 
L 252.053429 115.110729 
L 252.150835 124.463922 
L 252.183304 123.934011 
L 252.443054 119.143878 
L 252.670335 124.463922 
L 252.962553 124.463922 
L 253.02749 122.899257 
L 253.059959 123.412508 
L 253.222303 124.463922 
L 253.28724 123.934011 
L 253.319709 124.463922 
L 253.644396 124.463922 
L 253.709333 115.451863 
L 253.741802 124.463922 
L 253.904145 124.463922 
L 254.001551 115.451863 
L 254.131426 124.463922 
L 255.365237 124.463922 
L 255.397706 124.129963 
L 255.462643 124.463922 
L 255.657455 124.463922 
L 255.78733 124.129963 
L 255.884736 124.129963 
L 256.014611 124.463922 
L 256.079548 124.463922 
L 256.209423 124.129963 
L 256.241892 124.129963 
L 256.274361 115.110729 
L 256.339298 124.129963 
L 256.469173 124.463922 
L 256.599048 124.463922 
L 256.728922 124.129963 
L 256.826328 124.129963 
L 256.956203 115.110729 
L 257.021141 115.110729 
L 257.053609 124.463922 
L 257.151015 124.129963 
L 257.183484 124.129963 
L 257.313359 115.110729 
L 257.378296 124.129963 
L 257.410765 115.110729 
L 257.475702 115.110729 
L 257.54064 104.532408 
L 257.573109 123.641921 
L 257.638046 105.735019 
L 257.702983 106.967618 
L 257.865327 101.092204 
L 258.02767 123.99868 
L 258.092608 102.212166 
L 258.157545 109.13473 
L 258.319889 101.092204 
L 258.417295 105.735019 
L 258.449764 104.532408 
L 258.482232 102.212166 
L 258.54717 103.358523 
L 258.579638 104.532408 
L 258.612107 97.880185 
L 258.644576 105.735019 
L 258.709513 99.99756 
L 258.741982 101.092204 
L 258.774451 98.927212 
L 258.806919 97.880185 
L 258.969263 103.358523 
L 259.001731 103.358523 
L 259.131606 97.880185 
L 259.164075 98.927212 
L 259.29395 97.880185 
L 259.326418 97.880185 
L 259.586168 104.532408 
L 259.618637 102.212166 
L 259.651105 105.735019 
L 259.683574 105.735019 
L 259.813449 101.092204 
L 259.845918 108.231542 
L 259.910855 106.967618 
L 260.04073 101.092204 
L 260.073199 101.092204 
L 260.203073 97.880185 
L 260.365417 97.880185 
L 260.397886 99.99756 
L 260.462823 97.880185 
L 260.52776 97.880185 
L 260.657635 102.212166 
L 260.78751 97.880185 
L 262.573289 97.880185 
L 262.735632 106.967618 
L 262.768101 105.735019 
L 262.865507 120.652442 
L 262.930444 117.260453 
L 262.962913 117.260453 
L 262.995382 117.77162 
L 263.092788 116.212501 
L 263.125257 127.449262 
L 263.190194 116.769687 
L 263.2876 116.769687 
L 263.385006 114.541515 
L 263.417475 116.212501 
L 263.579818 116.212501 
L 263.709693 115.675351 
L 263.872037 115.675351 
L 264.03438 116.769687 
L 264.066849 116.769687 
L 264.261661 115.157868 
L 264.359067 115.157868 
L 264.521411 116.212501 
L 264.553879 116.212501 
L 264.716223 117.347317 
L 264.78116 115.647528 
L 264.846098 116.231043 
L 264.943504 117.945834 
L 264.975973 116.83549 
L 265.04091 116.83549 
L 265.105847 118.565723 
L 265.138316 116.83549 
L 265.268191 116.83549 
L 265.30066 118.565723 
L 265.365597 116.83549 
L 265.463003 116.83549 
L 265.52794 118.565723 
L 265.560409 116.83549 
L 265.625347 116.83549 
L 265.755221 118.565723 
L 266.502001 118.565723 
L 266.631876 120.349167 
L 266.696814 118.565723 
L 266.729282 120.349167 
L 267.118907 120.349167 
L 267.151376 118.734949 
L 267.216313 119.89003 
L 267.313719 120.349167 
L 267.411125 118.734949 
L 267.508531 120.349167 
L 267.638406 118.734949 
L 267.670875 120.349167 
L 267.735812 119.89003 
L 267.865687 118.734949 
L 267.995562 119.89003 
L 268.02803 119.89003 
L 268.157905 118.734949 
L 268.969623 118.734949 
L 269.099498 117.625187 
L 269.229372 118.734949 
L 269.359247 118.734949 
L 269.456653 117.625187 
L 269.586528 118.734949 
L 269.716403 117.625187 
L 270.657995 117.625187 
L 270.78787 116.558524 
L 270.820339 117.625187 
L 270.885276 116.558524 
L 271.53465 116.558524 
L 271.664525 115.532893 
L 271.729462 115.532893 
L 271.761931 116.558524 
L 271.826869 115.532893 
L 271.956743 115.532893 
L 272.086618 114.546375 
L 272.216493 114.546375 
L 272.346368 113.59718 
L 272.443774 113.59718 
L 272.476243 114.546375 
L 272.54118 113.59718 
L 272.573649 113.59718 
L 272.638586 112.727676 
L 272.671055 113.59718 
L 272.703523 113.59718 
L 272.80093 112.727676 
L 272.865867 86.138732 
L 272.898336 111.799558 
L 272.930804 113.59718 
L 272.995742 111.799558 
L 273.125617 111.799558 
L 273.255491 113.59718 
L 273.320429 113.59718 
L 273.450304 114.546375 
L 273.872397 114.546375 
L 273.904865 115.532893 
L 273.969803 114.546375 
L 274.002271 114.546375 
L 274.03474 115.532893 
L 274.099678 114.546375 
L 274.229552 114.546375 
L 274.359427 115.532893 
L 274.813989 115.532893 
L 274.878926 116.558524 
L 274.911395 115.532893 
L 274.943864 115.532893 
L 274.976333 116.558524 
L 275.04127 115.532893 
L 275.236082 115.532893 
L 275.333488 116.558524 
L 275.463363 115.532893 
L 275.593238 116.558524 
L 275.690644 115.532893 
L 275.820519 116.558524 
L 275.982862 116.558524 
L 276.015331 117.625187 
L 276.080268 116.558524 
L 276.210143 116.558524 
L 276.340018 117.625187 
L 276.53483 117.625187 
L 276.697174 115.532893 
L 276.827049 116.558524 
L 276.956923 115.532893 
L 277.411485 115.532893 
L 277.54136 114.546375 
L 277.703703 114.546375 
L 277.736172 115.532893 
L 277.80111 114.546375 
L 277.930984 114.546375 
L 277.995922 115.532893 
L 278.02839 114.546375 
L 278.320609 114.546375 
L 278.450484 113.59718 
L 278.580358 114.546375 
L 278.775171 114.546375 
L 278.905045 113.59718 
L 279.03492 114.546375 
L 279.164795 113.59718 
L 279.7817 113.59718 
L 279.814169 112.683638 
L 279.879106 113.59718 
L 279.911575 113.59718 
L 280.008981 112.683638 
L 280.138856 113.59718 
L 280.171325 113.59718 
L 280.3012 112.683638 
L 280.431074 113.59718 
L 280.52848 113.59718 
L 280.560949 112.683638 
L 280.625887 113.59718 
L 280.885636 113.59718 
L 280.918105 112.683638 
L 280.983042 113.59718 
L 281.145386 113.59718 
L 281.275261 112.683638 
L 281.340198 113.59718 
L 281.372667 112.683638 
L 281.470073 112.683638 
L 281.502542 111.804193 
L 281.567479 112.683638 
L 281.599948 112.683638 
L 281.632416 113.59718 
L 281.697354 112.683638 
L 281.957103 112.683638 
L 282.022041 111.804193 
L 282.054509 112.683638 
L 282.086978 112.683638 
L 282.216853 111.804193 
L 282.314259 112.683638 
L 282.379196 111.804193 
L 282.411665 112.683638 
L 282.54154 112.683638 
L 282.574009 113.59718 
L 282.638946 112.683638 
L 282.736352 112.683638 
L 282.866227 113.59718 
L 282.898696 113.59718 
L 282.963633 114.546375 
L 282.996102 113.59718 
L 283.02857 113.59718 
L 283.061039 114.546375 
L 283.125977 113.59718 
L 283.190914 113.59718 
L 283.28832 114.546375 
L 283.320789 113.59718 
L 283.385726 114.546375 
L 283.54807 114.546375 
L 283.710413 116.558524 
L 283.840288 115.532893 
L 283.970163 116.558524 
L 284.0351 116.558524 
L 284.164975 115.532893 
L 284.197444 116.558524 
L 284.262381 115.532893 
L 284.327319 115.532893 
L 284.457193 116.558524 
L 284.814349 116.558524 
L 284.846818 115.532893 
L 284.911755 116.558524 
L 285.463723 116.558524 
L 285.496192 117.625187 
L 285.561129 116.558524 
L 285.658535 116.558524 
L 285.78841 117.625187 
L 285.820879 117.625187 
L 285.853348 118.734949 
L 285.885816 116.558524 
L 285.918285 117.625187 
L 285.983222 117.625187 
L 286.080628 118.734949 
L 286.210503 117.625187 
L 286.340378 118.734949 
L 286.600128 118.734949 
L 286.632596 119.89003 
L 286.697534 118.734949 
L 286.730002 118.734949 
L 286.859877 119.89003 
L 287.119627 119.89003 
L 287.152096 118.734949 
L 287.217033 119.89003 
L 287.411845 119.89003 
L 287.54172 121.092824 
L 287.574189 121.092824 
L 287.671595 119.89003 
L 287.80147 121.092824 
L 287.898876 119.89003 
L 288.028751 121.092824 
L 288.158625 119.89003 
L 288.320969 122.345913 
L 288.353438 122.345913 
L 288.450844 121.092824 
L 288.54825 122.345913 
L 288.580718 121.092824 
L 288.645656 122.345913 
L 288.743062 122.345913 
L 288.775531 123.652086 
L 288.840468 122.345913 
L 288.905405 122.345913 
L 289.03528 123.652086 
L 289.424905 123.652086 
L 289.457373 122.345913 
L 289.522311 123.652086 
L 289.652186 123.652086 
L 289.684654 122.345913 
L 289.749592 123.652086 
L 289.911935 123.652086 
L 290.04181 122.345913 
L 290.171685 123.652086 
L 290.30156 123.652086 
L 290.334028 125.014361 
L 290.398966 123.652086 
L 290.528841 123.652086 
L 290.658715 125.014361 
L 290.78859 125.014361 
L 290.821059 123.652086 
L 290.885996 125.014361 
L 291.015871 125.014361 
L 291.080808 123.652086 
L 291.113277 125.014361 
L 291.243152 125.014361 
L 291.373027 126.436006 
L 291.600308 126.436006 
L 291.730182 125.014361 
L 291.762651 125.014361 
L 291.924995 127.92057 
L 292.087338 127.92057 
L 292.152276 126.436006 
L 292.184744 127.92057 
L 292.249682 127.92057 
L 292.379557 126.436006 
L 292.412025 126.436006 
L 292.444494 127.92057 
L 292.509431 126.436006 
L 292.5419 126.436006 
L 292.574369 127.92057 
L 292.639306 126.436006 
L 292.80165 126.436006 
L 292.866587 127.92057 
L 292.899056 126.436006 
L 293.191274 126.436006 
L 293.223743 127.92057 
L 293.28868 126.436006 
L 293.321149 126.436006 
L 293.451024 127.92057 
L 293.515961 127.92057 
L 293.613367 129.471909 
L 293.710773 127.92057 
L 293.840648 129.471909 
L 293.938054 129.471909 
L 294.067929 127.92057 
L 294.197804 129.471909 
L 307.672315 129.471909 
L 307.704784 121.05538 
L 307.769721 129.471909 
L 309.133406 129.471909 
L 309.230813 121.05538 
L 309.360687 129.471909 
L 309.393156 121.05538 
L 309.458093 129.471909 
L 310.78931 129.471909 
L 310.821779 121.05538 
L 310.886716 129.471909 
L 310.984122 129.471909 
L 311.113997 121.05538 
L 311.373747 121.05538 
L 311.406216 129.471909 
L 311.471153 121.05538 
L 313.873837 121.05538 
L 314.003712 121.662715 
L 314.068649 121.662715 
L 314.360867 125.535876 
L 314.523211 123.805825 
L 314.620617 124.63805 
L 314.718023 123.805825 
L 314.815429 125.535876 
L 314.847898 124.63805 
L 314.880367 124.63805 
L 315.010241 125.535876 
L 315.04271 125.535876 
L 315.237522 128.675868 
L 315.334928 127.548713 
L 315.464803 128.675868 
L 315.659615 128.675868 
L 315.78949 131.209293 
L 315.821959 131.209293 
L 315.886896 132.634288 
L 315.919365 131.209293 
L 316.081709 131.209293 
L 316.211583 132.634288 
L 316.244052 132.634288 
L 316.276521 131.209293 
L 316.341458 132.634288 
L 316.373927 132.634288 
L 316.406396 131.209293 
L 316.438864 132.634288 
L 316.601208 135.859768 
L 316.666145 135.859768 
L 316.79602 134.179874 
L 316.860957 137.690113 
L 316.893426 135.859768 
L 316.958363 135.859768 
L 317.088238 141.882271 
L 317.120707 137.690113 
L 317.185644 141.882271 
L 317.250582 144.294209 
L 317.28305 141.882271 
L 317.380457 141.882271 
L 317.412925 144.294209 
L 317.477863 141.882271 
L 317.575269 141.882271 
L 317.705144 144.294209 
L 317.835018 144.294209 
L 317.964893 141.882271 
L 318.224643 141.882271 
L 318.28958 139.690022 
L 318.322049 141.882271 
L 318.451924 144.294209 
L 318.484392 144.294209 
L 318.646736 139.690022 
L 318.679205 139.690022 
L 318.809079 141.882271 
L 318.841548 141.882271 
L 318.938954 137.690113 
L 318.971423 139.690022 
L 319.068829 139.690022 
L 319.198704 141.882271 
L 319.231173 141.882271 
L 319.361047 146.958943 
L 319.490922 144.294209 
L 319.620797 146.958943 
L 319.653266 146.958943 
L 319.750672 149.916929 
L 319.913015 144.294209 
L 319.945484 146.958943 
L 319.977953 144.294209 
L 320.140296 139.690022 
L 320.172765 139.690022 
L 320.205234 137.690113 
L 320.237702 139.690022 
L 320.367577 141.882271 
L 320.400046 141.882271 
L 320.497452 139.690022 
L 320.627327 141.882271 
L 320.659795 141.882271 
L 320.692264 144.294209 
L 320.724733 139.690022 
L 320.757202 139.690022 
L 320.887076 141.882271 
L 320.952014 141.882271 
L 320.984482 139.690022 
L 321.04942 141.882271 
L 321.114357 141.882271 
L 321.244232 139.690022 
L 321.374107 139.690022 
L 321.406576 137.690113 
L 321.471513 139.690022 
L 321.53645 139.690022 
L 321.666325 144.294209 
L 321.828669 139.690022 
L 321.926075 139.690022 
L 322.05595 141.882271 
L 322.120887 141.882271 
L 322.250762 139.690022 
L 322.380637 141.882271 
L 322.445574 141.882271 
L 322.607918 137.690113 
L 322.640386 137.690113 
L 322.705324 135.859768 
L 322.737792 137.690113 
L 322.770261 137.690113 
L 322.932605 134.179874 
L 322.997542 134.179874 
L 323.159885 137.690113 
L 323.224823 150.78744 
L 323.354698 132.036307 
L 323.419635 148.577218 
L 323.452104 132.036307 
L 323.517041 132.036307 
L 323.646916 148.577218 
L 323.711853 148.577218 
L 323.744322 132.036307 
L 323.809259 150.78744 
L 323.841728 148.577218 
L 323.971603 132.036307 
L 324.03654 148.577218 
L 324.101478 146.543354 
L 324.198884 144.666464 
L 324.328759 146.543354 
L 324.426165 134.179874 
L 324.458633 144.666464 
L 324.491102 132.634288 
L 324.55604 142.930145 
L 324.620977 142.930145 
L 324.718383 141.320433 
L 324.848258 142.930145 
L 325.205414 128.675868 
L 325.270351 129.893172 
L 325.30282 128.675868 
L 325.367757 127.548713 
L 325.400226 128.675868 
L 325.432695 128.675868 
L 325.562569 127.548713 
L 325.595038 128.675868 
L 325.659975 127.548713 
L 325.757382 125.535876 
L 325.887256 127.548713 
L 325.952194 127.548713 
L 326.114537 124.63805 
L 326.244412 126.504215 
L 326.276881 126.504215 
L 326.406756 132.036307 
L 328.939314 132.036307 
L 328.971783 131.696978 
L 329.03672 132.036307 
L 329.134127 132.036307 
L 329.264001 130.398036 
L 329.29647 131.035984 
L 329.328939 130.087525 
L 329.393876 130.087525 
L 329.523751 129.189039 
L 329.55622 129.189039 
L 329.621157 132.036307 
L 329.686094 131.035984 
L 329.718563 131.035984 
L 329.783501 130.398036 
L 329.815969 131.035984 
L 329.913375 130.087525 
L 329.978313 130.398036 
L 330.075719 132.036307 
L 330.108188 131.696978 
L 330.270531 128.616986 
L 330.432875 130.398036 
L 330.497812 129.782565 
L 330.530281 131.035984 
L 330.562749 129.782565 
L 330.595218 129.189039 
L 330.627687 129.782565 
L 330.660155 130.087525 
L 330.79003 128.065957 
L 330.822499 129.189039 
L 330.854968 127.535548 
L 330.919905 128.065957 
L 330.984842 126.535169 
L 331.017311 127.025394 
L 331.179655 124.374122 
L 331.212123 124.374122 
L 331.244592 127.025394 
L 331.309529 124.374122 
L 331.341998 124.374122 
L 331.471873 124.768311 
L 331.504342 123.641921 
L 331.53681 125.18135 
L 331.601748 126.535169 
L 331.634217 125.18135 
L 331.731623 122.401808 
L 331.764091 122.683682 
L 331.79656 127.535548 
L 331.893966 126.064582 
L 331.926435 128.065957 
L 331.958904 126.535169 
L 332.121247 122.401808 
L 332.186184 125.61338 
L 332.218653 123.303817 
L 332.316059 122.13891 
L 332.348528 122.984385 
L 332.445934 128.065957 
L 332.478403 125.61338 
L 332.673215 121.670875 
L 332.738152 123.303817 
L 332.80309 122.683682 
L 333.030371 125.18135 
L 333.095308 121.670875 
L 333.127777 122.683682 
L 333.192714 126.064582 
L 333.225183 123.99868 
L 333.257652 124.374122 
L 333.29012 123.641921 
L 333.387526 122.13891 
L 333.419995 122.683682 
L 333.582339 123.641921 
L 333.712213 121.895183 
L 333.744682 122.13891 
L 333.874557 100.973697 
L 333.971963 124.768311 
L 334.101838 100.973697 
L 334.231713 101.627292 
L 334.264181 123.99868 
L 334.29665 100.973697 
L 334.329119 100.973697 
L 334.361587 100.973697 
L 334.491462 101.294772 
L 334.5564 101.294772 
L 334.686274 100.973697 
L 335.822679 100.973697 
L 336.147366 97.575597 
L 336.179835 97.575597 
L 336.212303 97.768399 
L 336.244772 97.385266 
L 336.277241 97.385266 
L 336.439584 96.648216 
L 336.569459 112.15702 
L 336.764271 112.15702 
L 336.894146 112.549755 
L 337.05649 112.549755 
L 337.186364 123.388768 
L 337.218833 123.388768 
L 337.251302 161.929539 
L 337.283771 121.670875 
L 337.316239 121.670875 
L 337.348708 121.670875 
L 337.478583 155.833804 
L 337.640926 164.591448 
L 337.673395 160.962292 
L 337.705864 160.962292 
L 337.738332 164.591448 
L 337.80327 160.073516 
L 337.835738 163.784324 
L 337.998082 150.981527 
L 338.160425 141.892642 
L 338.192894 141.892642 
L 338.322769 59.949799 
L 338.517581 53.568 
L 338.874737 62.13918 
L 338.939674 60.855639 
L 338.972143 62.13918 
L 339.231893 68.8703 
L 339.361767 67.475888 
L 339.459174 67.475888 
L 339.718923 74.754502 
L 339.848798 73.232571 
L 339.913735 73.232571 
L 340.04361 74.754502 
L 340.141016 74.754502 
L 340.270891 73.232571 
L 340.30336 74.754502 
L 340.368297 73.232571 
L 340.433235 73.232571 
L 340.563109 74.754502 
L 340.692984 74.754502 
L 340.725453 73.232571 
L 340.79039 74.754502 
L 341.017671 74.754502 
L 341.244952 72.14308 
L 341.277421 72.774588 
L 341.374827 74.349455 
L 341.407296 74.055524 
L 341.439764 74.160916 
L 341.504702 73.598093 
L 341.53717 74.755368 
L 341.569639 72.09794 
L 341.602108 77.242542 
L 341.731983 81.153676 
L 341.764451 76.025998 
L 341.829389 78.950378 
L 342.154076 89.980276 
L 342.283951 102.509721 
L 342.446294 105.81129 
L 342.478763 102.893486 
L 342.511231 108.399643 
L 342.608638 108.93166 
L 342.641106 103.003239 
L 342.706044 109.022981 
L 342.738512 115.884251 
L 342.80345 109.022981 
L 342.835919 110.647065 
L 343.030731 96.865252 
L 343.160606 95.69825 
L 343.258012 96.670962 
L 343.387886 105.81129 
L 343.517761 96.511162 
L 343.55023 98.876702 
L 343.582699 96.378778 
L 343.615167 96.378778 
L 343.680105 79.018628 
L 343.80998 122.808608 
L 343.874917 133.177641 
L 343.939854 132.237889 
L 343.972323 130.536393 
L 344.004792 133.177641 
L 344.03726 133.177641 
L 344.167135 130.536393 
L 344.29701 132.237889 
L 344.394416 130.536393 
L 344.524291 134.073559 
L 344.686634 120.317889 
L 344.751572 132.237889 
L 344.784041 120.317889 
L 344.816509 121.831043 
L 344.848978 130.536393 
L 344.913915 120.317889 
L 344.946384 123.472209 
L 345.011321 121.831043 
L 345.04379 121.831043 
L 345.30354 129.698454 
L 345.400946 129.698454 
L 345.433415 131.346164 
L 345.465883 120.901256 
L 345.563289 123.472209 
L 345.887976 123.472209 
L 345.952914 121.831043 
L 345.985383 123.472209 
L 346.277601 123.472209 
L 346.439944 118.378082 
L 346.602288 115.57047 
L 346.667225 115.57047 
L 346.699694 113.185494 
L 346.732163 115.57047 
L 346.991912 124.388864 
L 347.186724 120.140621 
L 347.316599 120.140621 
L 347.576349 113.185494 
L 347.641286 113.185494 
L 347.738692 114.958263 
L 347.868567 112.574837 
L 347.901036 112.574837 
L 347.965973 120.206051 
L 347.998442 109.726201 
L 348.030911 109.726201 
L 348.095848 122.124485 
L 348.160786 121.19612 
L 348.225723 121.19612 
L 348.323129 122.124485 
L 348.388066 121.645747 
L 348.420535 122.124485 
L 348.517941 122.124485 
L 348.55041 120.206051 
L 348.680285 109.726201 
L 348.875097 115.57047 
L 348.940034 115.57047 
L 349.004972 112.574837 
L 349.03744 115.57047 
L 349.069909 115.57047 
L 349.199784 112.574837 
L 349.232253 112.574837 
L 349.264721 122.633205 
L 349.329659 111.995855 
L 349.394596 111.995855 
L 349.524471 122.633205 
L 349.589408 122.633205 
L 349.621877 110.304413 
L 349.719283 113.185494 
L 349.751752 113.185494 
L 349.881627 115.57047 
L 350.011502 116.899883 
L 350.04397 116.217262 
L 350.108908 113.185494 
L 350.206314 122.633205 
L 350.238782 121.645747 
L 350.401126 120.381023 
L 350.531001 87.479876 
L 350.563469 87.479876 
L 350.628407 88.153723 
L 350.660876 87.479876 
L 350.693344 87.479876 
L 350.79075 89.142308 
L 350.920625 121.19612 
L 350.953094 121.19612 
L 351.147906 109.726201 
L 351.180375 122.124485 
L 351.245312 112.574837 
L 351.342718 112.574837 
L 351.505062 117.619674 
L 352.05703 117.619674 
L 352.219373 104.125828 
L 352.251842 115.968017 
L 352.316779 104.125828 
L 352.349248 104.125828 
L 352.381717 125.317062 
L 352.446654 104.125828 
L 352.576529 104.125828 
L 352.641466 113.237132 
L 352.673935 104.125828 
L 352.933685 104.125828 
L 352.966153 96.171365 
L 353.031091 104.125828 
L 353.063559 100.184403 
L 353.096028 105.196888 
L 353.128497 105.196888 
L 353.225903 112.496585 
L 353.258372 105.196888 
L 353.29084 115.394818 
L 353.453184 134.765262 
L 353.485653 152.037074 
L 353.518121 138.727778 
L 353.647996 106.303652 
L 354.654526 106.303652 
L 354.784401 105.196888 
L 354.914275 105.196888 
L 355.04415 106.303652 
L 355.109088 106.303652 
L 355.238962 105.196888 
L 355.368837 105.196888 
L 355.401306 164.829515 
L 355.466243 105.196888 
L 355.498712 105.196888 
L 355.563649 198.505274 
L 355.596118 105.196888 
L 356.115617 105.196888 
L 356.245492 104.125828 
L 356.505242 104.125828 
L 356.53771 199.890438 
L 356.602648 104.125828 
L 356.764991 104.125828 
L 356.79746 168.00064 
L 356.862398 104.125828 
L 356.927335 104.125828 
L 356.959804 201.651847 
L 357.024741 199.822075 
L 357.154616 103.088776 
L 357.54424 103.088776 
L 357.641646 107.050584 
L 357.674115 106.811278 
L 357.80399 107.050584 
L 358.063739 107.050584 
L 358.096208 205.600737 
L 358.161146 107.293167 
L 358.355958 107.293167 
L 358.453364 104.125828 
L 358.485833 202.611225 
L 358.518301 103.088776 
L 358.55077 200.764955 
L 358.583239 104.125828 
L 358.648176 201.788478 
L 358.680645 200.764955 
L 358.81052 293.708895 
L 358.842988 104.125828 
L 358.907926 293.708895 
L 358.940394 293.708895 
L 358.972863 288.879613 
L 359.005332 201.277385 
L 359.037801 293.708895 
L 359.102738 202.611225 
L 359.135207 200.764955 
L 359.167675 293.708895 
L 359.200144 199.822075 
L 359.232613 200.764955 
L 359.29755 202.611225 
L 359.330019 200.764955 
L 359.362488 200.764955 
L 359.394956 199.822075 
L 359.459894 200.764955 
L 359.492362 200.764955 
L 359.524831 205.600737 
L 359.5573 79.357436 
L 359.622237 199.822075 
L 359.687175 203.998031 
L 359.719643 78.056426 
L 359.752112 205.600737 
L 359.784581 201.402224 
L 359.817049 201.402224 
L 359.946924 199.890438 
L 359.979393 199.890438 
L 360.011862 100.331496 
L 360.076799 201.402224 
L 360.206674 199.890438 
L 360.239142 267.286519 
L 360.30408 201.402224 
L 360.336549 203.998031 
L 360.369017 199.890438 
L 360.401486 201.402224 
L 360.466423 199.890438 
L 360.628767 206.228707 
L 360.693704 206.228707 
L 360.726173 207.239697 
L 360.823579 203.041051 
L 360.856048 206.228707 
L 360.920985 203.041051 
L 361.018391 199.890438 
L 361.05086 201.402224 
L 361.115797 199.890438 
L 361.180735 199.890438 
L 361.31061 203.998031 
L 361.375547 199.890438 
L 361.408016 203.998031 
L 361.440484 203.998031 
L 361.570359 200.764955 
L 361.602828 200.764955 
L 361.732703 197.577707 
L 361.862578 203.998031 
L 361.895046 201.651847 
L 362.05739 201.651847 
L 362.252202 197.577707 
L 362.382077 200.764955 
L 362.414545 200.764955 
L 362.447014 205.600737 
L 362.54442 203.998031 
L 362.576889 203.998031 
L 362.674295 201.402224 
L 362.706764 203.998031 
L 362.771701 201.402224 
L 362.80417 199.890438 
L 362.934045 206.228707 
L 362.966513 203.041051 
L 363.031451 206.228707 
L 363.063919 206.228707 
L 363.778231 71.234251 
L 363.940574 64.468307 
L 363.973043 69.791241 
L 364.037981 68.622548 
L 364.167855 63.48011 
L 364.265261 66.669935 
L 364.29773 65.073416 
L 364.330199 62.902212 
L 364.460074 86.896567 
L 364.492542 85.421829 
L 364.525011 86.149533 
L 364.622417 87.663698 
L 364.784761 85.421829 
L 364.849698 84.712727 
L 364.914635 87.663698 
L 364.947104 85.421829 
L 365.012042 87.663698 
L 365.04451 86.896567 
L 365.076979 87.663698 
L 365.109448 88.451739 
L 365.141916 85.421829 
L 365.206854 87.663698 
L 365.30426 85.421829 
L 365.336729 86.896567 
L 365.401666 87.663698 
L 365.434135 86.896567 
L 365.466603 86.896567 
L 365.499072 86.149533 
L 365.596478 85.421829 
L 365.628947 88.451739 
L 365.758822 86.149533 
L 365.823759 89.261548 
L 365.856228 87.663698 
L 365.986103 84.712727 
L 366.083509 89.261548 
L 366.245852 77.254873 
L 366.278321 77.056178 
L 366.343258 60.50323 
L 366.440664 61.73848 
L 366.505602 71.852231 
L 366.538071 63.282038 
L 366.570539 59.991104 
L 366.667945 60.153557 
L 366.862758 66.204566 
L 366.895226 64.698576 
L 366.927695 66.767661 
L 366.960164 66.632987 
L 367.122507 68.722162 
L 367.154976 68.754299 
L 367.187445 70.594054 
L 367.219913 67.621735 
L 367.317319 104.737336 
L 367.414725 71.562266 
L 367.479663 104.155701 
L 367.5446 103.595585 
L 367.642006 104.155701 
L 367.674475 102.537203 
L 367.739412 104.155701 
L 367.80435 103.595585 
L 367.836819 104.737336 
L 367.901756 104.155701 
L 367.934225 72.50564 
L 368.031631 73.884414 
L 368.129037 104.155701 
L 368.096568 73.548623 
L 368.161506 103.595585 
L 368.193974 103.595585 
L 368.226443 103.056301 
L 368.258912 104.155701 
L 368.29138 104.155701 
L 368.421255 103.056301 
L 368.453724 104.155701 
L 368.486193 103.056301 
L 368.518661 102.537203 
L 368.583599 105.341217 
L 368.648536 104.155701 
L 368.681005 103.056301 
L 368.745942 104.155701 
L 368.778411 104.737336 
L 368.81088 103.595585 
L 368.843348 104.155701 
L 368.875817 103.595585 
L 368.908286 104.155701 
L 368.940754 105.341217 
L 368.973223 103.595585 
L 369.005692 104.737336 
L 369.070629 104.155701 
L 369.103098 104.737336 
L 369.135567 77.781566 
L 369.200504 78.485722 
L 369.265441 103.056301 
L 369.29791 83.56672 
L 369.330379 80.608685 
L 369.362848 81.809952 
L 369.460254 104.737336 
L 369.492722 84.688468 
L 369.525191 105.341217 
L 369.55766 103.056301 
L 369.622597 102.537203 
L 369.655066 104.155701 
L 369.784941 103.056301 
L 369.817409 104.155701 
L 369.849878 103.595585 
L 369.882347 86.687509 
L 369.979753 87.691036 
L 370.04469 87.691036 
L 370.077159 86.687509 
L 370.109628 87.691036 
L 370.271971 93.27424 
L 370.336909 94.086079 
L 370.401846 90.821947 
L 370.56419 96.807343 
L 370.596658 96.807343 
L 370.629127 94.086079 
L 370.694064 97.488911 
L 370.759002 95.911583 
L 370.823939 100.500644 
L 370.888877 100.500644 
L 370.953814 99.231471 
L 370.986283 101.03655 
L 371.018751 101.03655 
L 371.05122 104.362267 
L 371.083689 99.231471 
L 371.116157 101.03655 
L 371.181095 101.03655 
L 371.31097 104.362267 
L 371.375907 101.03655 
L 371.408376 104.362267 
L 371.440844 104.362267 
L 371.603188 95.911583 
L 371.668125 95.911583 
L 371.765531 87.646337 
L 371.798 90.821947 
L 371.830469 104.155701 
L 371.927875 103.056301 
L 371.992812 103.595585 
L 372.025281 102.537203 
L 372.05775 103.595585 
L 372.090218 104.737336 
L 372.155156 104.155701 
L 372.187625 104.155701 
L 372.220093 102.537203 
L 372.317499 103.056301 
L 372.479843 103.056301 
L 372.577249 103.595585 
L 372.609718 103.056301 
L 372.642186 104.155701 
L 372.674655 103.595585 
L 372.707124 104.155701 
L 372.739593 103.595585 
L 372.772061 103.056301 
L 372.80453 104.737336 
L 372.869467 103.056301 
L 372.966873 103.595585 
L 373.096748 102.537203 
L 373.226623 103.595585 
L 373.259092 102.537203 
L 373.324029 103.056301 
L 373.356498 103.056301 
L 373.453904 104.155701 
L 373.486373 103.595585 
L 373.518841 102.537203 
L 373.55131 104.155701 
L 373.583779 103.595585 
L 373.648716 103.056301 
L 373.681185 103.595585 
L 373.713654 103.595585 
L 373.746122 103.056301 
L 373.778591 104.155701 
L 373.81106 104.737336 
L 373.875997 104.155701 
L 373.973403 103.056301 
L 374.005872 103.595585 
L 374.038341 103.595585 
L 374.135747 104.737336 
L 374.265621 103.056301 
L 374.363028 103.056301 
L 374.427965 104.155701 
L 374.460434 103.056301 
L 374.492902 102.537203 
L 374.525371 103.595585 
L 374.590308 103.595585 
L 374.622777 104.155701 
L 374.687715 103.595585 
L 374.785121 103.056301 
L 374.817589 103.595585 
L 374.882527 103.056301 
L 374.914995 103.056301 
L 374.947464 104.155701 
L 374.979933 103.595585 
L 375.012402 102.537203 
L 375.04487 103.595585 
L 375.077339 104.155701 
L 375.109808 102.537203 
L 375.174745 104.155701 
L 375.207214 104.155701 
L 375.239683 104.737336 
L 375.272151 103.595585 
L 375.30462 102.537203 
L 375.369557 103.595585 
L 375.402026 103.595585 
L 375.531901 102.537203 
L 375.56437 104.155701 
L 375.629307 103.056301 
L 375.661776 103.056301 
L 375.79165 104.155701 
L 375.921525 103.056301 
L 375.986463 102.537203 
L 376.0514 103.595585 
L 376.181275 103.056301 
L 376.278681 103.595585 
L 376.31115 102.537203 
L 376.376087 103.056301 
L 376.441024 102.537203 
L 376.505962 104.155701 
L 376.668305 103.056301 
L 376.700774 103.056301 
L 376.765711 103.595585 
L 376.79818 103.056301 
L 376.863118 103.056301 
L 376.992992 102.537203 
L 377.122867 104.155701 
L 377.252742 102.537203 
L 377.447554 104.155701 
L 377.577429 102.537203 
L 377.609898 103.056301 
L 377.674835 104.155701 
L 377.707304 103.595585 
L 377.739773 102.537203 
L 377.772241 103.056301 
L 377.837179 104.155701 
L 377.869647 102.537203 
L 377.934585 104.155701 
L 377.967053 104.737336 
L 378.031991 104.155701 
L 378.06446 103.056301 
L 378.129397 103.595585 
L 378.226803 103.595585 
L 378.259272 103.056301 
L 378.29174 103.595585 
L 378.324209 104.155701 
L 378.356678 103.056301 
L 378.389147 103.595585 
L 378.454084 103.595585 
L 378.55149 102.537203 
L 378.616427 103.595585 
L 378.681365 103.056301 
L 378.713834 102.537203 
L 378.746302 103.056301 
L 378.778771 104.155701 
L 378.81124 102.537203 
L 378.843708 103.595585 
L 378.876177 103.056301 
L 378.908646 104.155701 
L 378.941114 103.595585 
L 379.006052 104.737336 
L 379.038521 103.595585 
L 379.103458 103.595585 
L 379.233333 102.537203 
L 379.330739 103.595585 
L 379.363208 103.056301 
L 379.395676 103.056301 
L 379.525551 104.155701 
L 379.655426 99.888863 
L 379.785301 104.155701 
L 379.980113 99.789261 
L 380.04505 99.888863 
L 380.077519 103.056301 
L 380.142456 99.888863 
L 380.239863 99.789261 
L 380.272331 99.888863 
L 380.337269 99.789261 
L 380.954174 99.789261 
L 381.084049 101.338731 
L 381.213924 101.435593 
L 381.31133 101.338731 
L 381.441204 101.435593 
L 381.506142 101.338731 
L 381.571079 102.930452 
L 381.603548 101.338731 
L 381.668485 101.435593 
L 381.765891 102.930452 
L 381.895766 101.338731 
L 381.993172 101.435593 
L 382.090579 103.024329 
L 382.123047 102.930452 
L 382.155516 101.435593 
L 382.220453 102.930452 
L 382.252922 103.024329 
L 382.285391 102.930452 
L 382.350328 101.338731 
L 382.382797 103.024329 
L 382.480203 102.930452 
L 382.577609 103.024329 
L 382.675015 102.930452 
L 382.80489 103.024329 
L 382.902296 104.657451 
L 382.934765 104.566834 
L 383.06464 102.930452 
L 383.162046 102.930452 
L 383.194514 104.657451 
L 383.259452 103.024329 
L 383.29192 102.930452 
L 383.324389 103.024329 
L 383.421795 104.657451 
L 383.454264 104.566834 
L 383.519201 104.657451 
L 383.55167 104.566834 
L 384.071169 104.657451 
L 384.103638 106.337511 
L 384.201044 106.250461 
L 384.655606 106.250461 
L 384.720543 108.067251 
L 384.785481 107.98411 
L 384.915356 106.250461 
L 384.980293 106.337511 
L 385.012762 107.98411 
L 385.04523 106.250461 
L 385.077699 106.337511 
L 385.207574 106.337511 
L 385.272511 108.067251 
L 385.337449 107.98411 
L 385.369917 107.98411 
L 385.434855 106.250461 
L 385.467323 107.98411 
L 385.532261 108.067251 
L 385.56473 107.98411 
L 385.629667 108.067251 
L 385.662136 106.250461 
L 385.727073 108.067251 
L 385.921885 107.98411 
L 385.986823 106.337511 
L 386.019291 107.98411 
L 386.733603 108.067251 
L 386.766072 106.337511 
L 386.79854 108.159608 
L 386.831009 107.98411 
L 386.895946 108.067251 
L 386.928415 106.433367 
L 386.960884 108.159608 
L 386.993352 108.067251 
L 387.090759 108.067251 
L 387.123227 109.770772 
L 387.188165 107.98411 
L 387.220633 107.98411 
L 387.253102 109.849618 
L 387.318039 108.067251 
L 387.447914 107.98411 
L 387.54532 108.067251 
L 387.610258 109.770772 
L 387.642726 108.067251 
L 387.772601 107.98411 
L 387.837539 108.067251 
L 387.902476 109.849618 
L 387.934945 109.770772 
L 388.097288 106.250461 
L 388.162226 106.433367 
L 388.227163 106.337511 
L 388.2921 106.250461 
L 388.324569 106.433367 
L 388.389507 106.337511 
L 388.486913 106.337511 
L 388.55185 108.067251 
L 388.616787 107.98411 
L 388.681725 107.98411 
L 388.714194 106.250461 
L 388.8116 106.337511 
L 388.844068 108.067251 
L 388.876537 106.250461 
L 388.909006 106.337511 
L 389.363568 106.250461 
L 389.428505 107.98411 
L 389.460974 106.433367 
L 389.493442 106.250461 
L 389.525911 108.067251 
L 389.590849 106.337511 
L 389.785661 106.337511 
L 389.915536 107.98411 
L 390.012942 106.337511 
L 390.04541 108.067251 
L 390.110348 106.337511 
L 390.662316 106.337511 
L 390.727253 108.067251 
L 390.759722 107.98411 
L 390.922065 104.566834 
L 390.987003 104.566834 
L 391.149346 99.888863 
L 391.181815 99.995893 
L 391.246752 99.789261 
L 391.441565 95.479151 
L 391.474033 95.372558 
L 391.506502 95.592361 
L 391.538971 95.479151 
L 394.493622 95.479151 
L 394.526091 95.592361 
L 394.55856 95.372558 
L 394.655966 95.372558 
L 394.688435 95.592361 
L 394.753372 95.372558 
L 394.850778 95.479151 
L 394.980653 95.372558 
L 398.487273 95.372558 
L 398.487273 95.372558 
" clip-path="url(#p2b1f0e64fb)" style="fill: none; stroke: #1f77b4; stroke-width: 1.5; stroke-linecap: square"/>
   </g>
   <g id="patch_3">
    <path d="M 57.6 307.584 
L 57.6 41.472 
" style="fill: none; stroke: #000000; stroke-width: 0.8; stroke-linejoin: miter; stroke-linecap: square"/>
   </g>
   <g id="patch_4">
    <path d="M 414.72 307.584 
L 414.72 41.472 
" style="fill: none; stroke: #000000; stroke-width: 0.8; stroke-linejoin: miter; stroke-linecap: square"/>
   </g>
   <g id="patch_5">
    <path d="M 57.6 307.584 
L 414.72 307.584 
" style="fill: none; stroke: #000000; stroke-width: 0.8; stroke-linejoin: miter; stroke-linecap: square"/>
   </g>
   <g id="patch_6">
    <path d="M 57.6 41.472 
L 414.72 41.472 
" style="fill: none; stroke: #000000; stroke-width: 0.8; stroke-linejoin: miter; stroke-linecap: square"/>
   </g>
  </g>
 </g>
 <defs>
  <clipPath id="p2b1f0e64fb">
   <rect x="57.6" y="41.472" width="357.12" height="266.112"/>
  </clipPath>
 </defs>
</svg>
