<?xml version="1.0" encoding="utf-8" standalone="no"?>
<!DOCTYPE svg PUBLIC "-//W3C//DTD SVG 1.1//EN"
  "http://www.w3.org/Graphics/SVG/1.1/DTD/svg11.dtd">
<svg xmlns:xlink="http://www.w3.org/1999/xlink" width="460.8pt" height="345.6pt" viewBox="0 0 460.8 345.6" xmlns="http://www.w3.org/2000/svg" version="1.1">
 <metadata>
  <rdf:RDF xmlns:dc="http://purl.org/dc/elements/1.1/" xmlns:cc="http://creativecommons.org/ns#" xmlns:rdf="http://www.w3.org/1999/02/22-rdf-syntax-ns#">
   <cc:Work>
    <dc:type rdf:resource="http://purl.org/dc/dcmitype/StillImage"/>
    <dc:date>2024-04-29T17:35:31.846140</dc:date>
    <dc:format>image/svg+xml</dc:format>
    <dc:creator>
     <cc:Agent>
      <dc:title>Matplotlib v3.8.2, https://matplotlib.org/</dc:title>
     </cc:Agent>
    </dc:creator>
   </cc:Work>
  </rdf:RDF>
 </metadata>
 <defs>
  <style type="text/css">*{stroke-linejoin: round; stroke-linecap: butt}</style>
 </defs>
 <g id="figure_1">
  <g id="patch_1">
   <path d="M 0 345.6 
L 460.8 345.6 
L 460.8 0 
L 0 0 
z
" style="fill: #ffffff"/>
  </g>
  <g id="axes_1">
   <g id="patch_2">
    <path d="M 57.6 307.584 
L 414.72 307.584 
L 414.72 41.472 
L 57.6 41.472 
z
" style="fill: #ffffff"/>
   </g>
   <g id="matplotlib.axis_1">
    <g id="xtick_1">
     <g id="line2d_1">
      <defs>
       <path id="m1e64bbd1d1" d="M 0 0 
L 0 3.5 
" style="stroke: #000000; stroke-width: 0.8"/>
      </defs>
      <g>
       <use xlink:href="#m1e64bbd1d1" x="73.832727" y="307.584" style="stroke: #000000; stroke-width: 0.8"/>
      </g>
     </g>
     <g id="text_1">
      <!-- 0 -->
      <g transform="translate(70.651477 322.182437) scale(0.1 -0.1)">
       <defs>
        <path id="DejaVuSans-30" d="M 2034 4250 
Q 1547 4250 1301 3770 
Q 1056 3291 1056 2328 
Q 1056 1369 1301 889 
Q 1547 409 2034 409 
Q 2525 409 2770 889 
Q 3016 1369 3016 2328 
Q 3016 3291 2770 3770 
Q 2525 4250 2034 4250 
z
M 2034 4750 
Q 2819 4750 3233 4129 
Q 3647 3509 3647 2328 
Q 3647 1150 3233 529 
Q 2819 -91 2034 -91 
Q 1250 -91 836 529 
Q 422 1150 422 2328 
Q 422 3509 836 4129 
Q 1250 4750 2034 4750 
z
" transform="scale(0.015625)"/>
       </defs>
       <use xlink:href="#DejaVuSans-30"/>
      </g>
     </g>
    </g>
    <g id="xtick_2">
     <g id="line2d_2">
      <g>
       <use xlink:href="#m1e64bbd1d1" x="114.414545" y="307.584" style="stroke: #000000; stroke-width: 0.8"/>
      </g>
     </g>
     <g id="text_2">
      <!-- 250 -->
      <g transform="translate(104.870795 322.182437) scale(0.1 -0.1)">
       <defs>
        <path id="DejaVuSans-32" d="M 1228 531 
L 3431 531 
L 3431 0 
L 469 0 
L 469 531 
Q 828 903 1448 1529 
Q 2069 2156 2228 2338 
Q 2531 2678 2651 2914 
Q 2772 3150 2772 3378 
Q 2772 3750 2511 3984 
Q 2250 4219 1831 4219 
Q 1534 4219 1204 4116 
Q 875 4013 500 3803 
L 500 4441 
Q 881 4594 1212 4672 
Q 1544 4750 1819 4750 
Q 2544 4750 2975 4387 
Q 3406 4025 3406 3419 
Q 3406 3131 3298 2873 
Q 3191 2616 2906 2266 
Q 2828 2175 2409 1742 
Q 1991 1309 1228 531 
z
" transform="scale(0.015625)"/>
        <path id="DejaVuSans-35" d="M 691 4666 
L 3169 4666 
L 3169 4134 
L 1269 4134 
L 1269 2991 
Q 1406 3038 1543 3061 
Q 1681 3084 1819 3084 
Q 2600 3084 3056 2656 
Q 3513 2228 3513 1497 
Q 3513 744 3044 326 
Q 2575 -91 1722 -91 
Q 1428 -91 1123 -41 
Q 819 9 494 109 
L 494 744 
Q 775 591 1075 516 
Q 1375 441 1709 441 
Q 2250 441 2565 725 
Q 2881 1009 2881 1497 
Q 2881 1984 2565 2268 
Q 2250 2553 1709 2553 
Q 1456 2553 1204 2497 
Q 953 2441 691 2322 
L 691 4666 
z
" transform="scale(0.015625)"/>
       </defs>
       <use xlink:href="#DejaVuSans-32"/>
       <use xlink:href="#DejaVuSans-35" x="63.623047"/>
       <use xlink:href="#DejaVuSans-30" x="127.246094"/>
      </g>
     </g>
    </g>
    <g id="xtick_3">
     <g id="line2d_3">
      <g>
       <use xlink:href="#m1e64bbd1d1" x="154.996364" y="307.584" style="stroke: #000000; stroke-width: 0.8"/>
      </g>
     </g>
     <g id="text_3">
      <!-- 500 -->
      <g transform="translate(145.452614 322.182437) scale(0.1 -0.1)">
       <use xlink:href="#DejaVuSans-35"/>
       <use xlink:href="#DejaVuSans-30" x="63.623047"/>
       <use xlink:href="#DejaVuSans-30" x="127.246094"/>
      </g>
     </g>
    </g>
    <g id="xtick_4">
     <g id="line2d_4">
      <g>
       <use xlink:href="#m1e64bbd1d1" x="195.578182" y="307.584" style="stroke: #000000; stroke-width: 0.8"/>
      </g>
     </g>
     <g id="text_4">
      <!-- 750 -->
      <g transform="translate(186.034432 322.182437) scale(0.1 -0.1)">
       <defs>
        <path id="DejaVuSans-37" d="M 525 4666 
L 3525 4666 
L 3525 4397 
L 1831 0 
L 1172 0 
L 2766 4134 
L 525 4134 
L 525 4666 
z
" transform="scale(0.015625)"/>
       </defs>
       <use xlink:href="#DejaVuSans-37"/>
       <use xlink:href="#DejaVuSans-35" x="63.623047"/>
       <use xlink:href="#DejaVuSans-30" x="127.246094"/>
      </g>
     </g>
    </g>
    <g id="xtick_5">
     <g id="line2d_5">
      <g>
       <use xlink:href="#m1e64bbd1d1" x="236.16" y="307.584" style="stroke: #000000; stroke-width: 0.8"/>
      </g>
     </g>
     <g id="text_5">
      <!-- 1000 -->
      <g transform="translate(223.435 322.182437) scale(0.1 -0.1)">
       <defs>
        <path id="DejaVuSans-31" d="M 794 531 
L 1825 531 
L 1825 4091 
L 703 3866 
L 703 4441 
L 1819 4666 
L 2450 4666 
L 2450 531 
L 3481 531 
L 3481 0 
L 794 0 
L 794 531 
z
" transform="scale(0.015625)"/>
       </defs>
       <use xlink:href="#DejaVuSans-31"/>
       <use xlink:href="#DejaVuSans-30" x="63.623047"/>
       <use xlink:href="#DejaVuSans-30" x="127.246094"/>
       <use xlink:href="#DejaVuSans-30" x="190.869141"/>
      </g>
     </g>
    </g>
    <g id="xtick_6">
     <g id="line2d_6">
      <g>
       <use xlink:href="#m1e64bbd1d1" x="276.741818" y="307.584" style="stroke: #000000; stroke-width: 0.8"/>
      </g>
     </g>
     <g id="text_6">
      <!-- 1250 -->
      <g transform="translate(264.016818 322.182437) scale(0.1 -0.1)">
       <use xlink:href="#DejaVuSans-31"/>
       <use xlink:href="#DejaVuSans-32" x="63.623047"/>
       <use xlink:href="#DejaVuSans-35" x="127.246094"/>
       <use xlink:href="#DejaVuSans-30" x="190.869141"/>
      </g>
     </g>
    </g>
    <g id="xtick_7">
     <g id="line2d_7">
      <g>
       <use xlink:href="#m1e64bbd1d1" x="317.323636" y="307.584" style="stroke: #000000; stroke-width: 0.8"/>
      </g>
     </g>
     <g id="text_7">
      <!-- 1500 -->
      <g transform="translate(304.598636 322.182437) scale(0.1 -0.1)">
       <use xlink:href="#DejaVuSans-31"/>
       <use xlink:href="#DejaVuSans-35" x="63.623047"/>
       <use xlink:href="#DejaVuSans-30" x="127.246094"/>
       <use xlink:href="#DejaVuSans-30" x="190.869141"/>
      </g>
     </g>
    </g>
    <g id="xtick_8">
     <g id="line2d_8">
      <g>
       <use xlink:href="#m1e64bbd1d1" x="357.905455" y="307.584" style="stroke: #000000; stroke-width: 0.8"/>
      </g>
     </g>
     <g id="text_8">
      <!-- 1750 -->
      <g transform="translate(345.180455 322.182437) scale(0.1 -0.1)">
       <use xlink:href="#DejaVuSans-31"/>
       <use xlink:href="#DejaVuSans-37" x="63.623047"/>
       <use xlink:href="#DejaVuSans-35" x="127.246094"/>
       <use xlink:href="#DejaVuSans-30" x="190.869141"/>
      </g>
     </g>
    </g>
    <g id="xtick_9">
     <g id="line2d_9">
      <g>
       <use xlink:href="#m1e64bbd1d1" x="398.487273" y="307.584" style="stroke: #000000; stroke-width: 0.8"/>
      </g>
     </g>
     <g id="text_9">
      <!-- 2000 -->
      <g transform="translate(385.762273 322.182437) scale(0.1 -0.1)">
       <use xlink:href="#DejaVuSans-32"/>
       <use xlink:href="#DejaVuSans-30" x="63.623047"/>
       <use xlink:href="#DejaVuSans-30" x="127.246094"/>
       <use xlink:href="#DejaVuSans-30" x="190.869141"/>
      </g>
     </g>
    </g>
   </g>
   <g id="matplotlib.axis_2">
    <g id="ytick_1">
     <g id="line2d_10">
      <defs>
       <path id="mbc264c01cf" d="M 0 0 
L -3.5 0 
" style="stroke: #000000; stroke-width: 0.8"/>
      </defs>
      <g>
       <use xlink:href="#mbc264c01cf" x="57.6" y="275.272752" style="stroke: #000000; stroke-width: 0.8"/>
      </g>
     </g>
     <g id="text_10">
      <!-- −150 -->
      <g transform="translate(23.132812 279.071971) scale(0.1 -0.1)">
       <defs>
        <path id="DejaVuSans-2212" d="M 678 2272 
L 4684 2272 
L 4684 1741 
L 678 1741 
L 678 2272 
z
" transform="scale(0.015625)"/>
       </defs>
       <use xlink:href="#DejaVuSans-2212"/>
       <use xlink:href="#DejaVuSans-31" x="83.789062"/>
       <use xlink:href="#DejaVuSans-35" x="147.412109"/>
       <use xlink:href="#DejaVuSans-30" x="211.035156"/>
      </g>
     </g>
    </g>
    <g id="ytick_2">
     <g id="line2d_11">
      <g>
       <use xlink:href="#mbc264c01cf" x="57.6" y="242.928663" style="stroke: #000000; stroke-width: 0.8"/>
      </g>
     </g>
     <g id="text_11">
      <!-- −125 -->
      <g transform="translate(23.132812 246.727881) scale(0.1 -0.1)">
       <use xlink:href="#DejaVuSans-2212"/>
       <use xlink:href="#DejaVuSans-31" x="83.789062"/>
       <use xlink:href="#DejaVuSans-32" x="147.412109"/>
       <use xlink:href="#DejaVuSans-35" x="211.035156"/>
      </g>
     </g>
    </g>
    <g id="ytick_3">
     <g id="line2d_12">
      <g>
       <use xlink:href="#mbc264c01cf" x="57.6" y="210.584573" style="stroke: #000000; stroke-width: 0.8"/>
      </g>
     </g>
     <g id="text_12">
      <!-- −100 -->
      <g transform="translate(23.132812 214.383791) scale(0.1 -0.1)">
       <use xlink:href="#DejaVuSans-2212"/>
       <use xlink:href="#DejaVuSans-31" x="83.789062"/>
       <use xlink:href="#DejaVuSans-30" x="147.412109"/>
       <use xlink:href="#DejaVuSans-30" x="211.035156"/>
      </g>
     </g>
    </g>
    <g id="ytick_4">
     <g id="line2d_13">
      <g>
       <use xlink:href="#mbc264c01cf" x="57.6" y="178.240483" style="stroke: #000000; stroke-width: 0.8"/>
      </g>
     </g>
     <g id="text_13">
      <!-- −75 -->
      <g transform="translate(29.495313 182.039701) scale(0.1 -0.1)">
       <use xlink:href="#DejaVuSans-2212"/>
       <use xlink:href="#DejaVuSans-37" x="83.789062"/>
       <use xlink:href="#DejaVuSans-35" x="147.412109"/>
      </g>
     </g>
    </g>
    <g id="ytick_5">
     <g id="line2d_14">
      <g>
       <use xlink:href="#mbc264c01cf" x="57.6" y="145.896393" style="stroke: #000000; stroke-width: 0.8"/>
      </g>
     </g>
     <g id="text_14">
      <!-- −50 -->
      <g transform="translate(29.495313 149.695611) scale(0.1 -0.1)">
       <use xlink:href="#DejaVuSans-2212"/>
       <use xlink:href="#DejaVuSans-35" x="83.789062"/>
       <use xlink:href="#DejaVuSans-30" x="147.412109"/>
      </g>
     </g>
    </g>
    <g id="ytick_6">
     <g id="line2d_15">
      <g>
       <use xlink:href="#mbc264c01cf" x="57.6" y="113.552303" style="stroke: #000000; stroke-width: 0.8"/>
      </g>
     </g>
     <g id="text_15">
      <!-- −25 -->
      <g transform="translate(29.495313 117.351521) scale(0.1 -0.1)">
       <use xlink:href="#DejaVuSans-2212"/>
       <use xlink:href="#DejaVuSans-32" x="83.789062"/>
       <use xlink:href="#DejaVuSans-35" x="147.412109"/>
      </g>
     </g>
    </g>
    <g id="ytick_7">
     <g id="line2d_16">
      <g>
       <use xlink:href="#mbc264c01cf" x="57.6" y="81.208213" style="stroke: #000000; stroke-width: 0.8"/>
      </g>
     </g>
     <g id="text_16">
      <!-- 0 -->
      <g transform="translate(44.2375 85.007431) scale(0.1 -0.1)">
       <use xlink:href="#DejaVuSans-30"/>
      </g>
     </g>
    </g>
    <g id="ytick_8">
     <g id="line2d_17">
      <g>
       <use xlink:href="#mbc264c01cf" x="57.6" y="48.864123" style="stroke: #000000; stroke-width: 0.8"/>
      </g>
     </g>
     <g id="text_17">
      <!-- 25 -->
      <g transform="translate(37.875 52.663341) scale(0.1 -0.1)">
       <use xlink:href="#DejaVuSans-32"/>
       <use xlink:href="#DejaVuSans-35" x="63.623047"/>
      </g>
     </g>
    </g>
   </g>
   <g id="line2d_18">
    <path d="M 73.832727 81.120795 
" clip-path="url(#p7c5f9d90ab)" style="fill: none; stroke: #1f77b4; stroke-width: 1.5; stroke-linecap: square"/>
   </g>
   <g id="line2d_19">
    <path d="M 73.832727 81.120795 
L 74.157382 77.940532 
L 74.319709 80.776794 
L 74.482036 80.29783 
L 74.644364 62.064825 
L 74.806691 78.574352 
L 74.969018 80.804687 
L 75.131345 77.986424 
L 75.456 76.072248 
L 75.618327 73.627029 
L 75.780655 75.230212 
L 75.942982 79.279885 
L 76.267636 53.568 
L 76.429964 80.804687 
L 76.592291 73.204851 
L 76.916945 82.759475 
L 77.079273 108.942739 
L 77.403927 67.134197 
L 77.566255 82.365574 
L 77.728582 68.974037 
L 77.890909 76.548635 
L 78.053236 123.228729 
L 78.377891 79.148881 
L 78.540218 70.518615 
L 78.702545 70.693477 
L 78.864873 116.513971 
L 79.0272 81.914207 
L 79.189527 71.951778 
L 79.351855 69.889762 
L 79.514182 78.996501 
L 79.676509 79.947008 
L 79.838836 110.514943 
L 80.001164 80.194508 
L 80.163491 81.208213 
L 80.325818 81.08944 
L 80.488145 80.587923 
L 80.650473 80.731322 
L 80.8128 73.991986 
L 80.975127 83.480009 
L 81.137455 81.208213 
L 81.299782 92.148164 
L 81.462109 81.052059 
L 81.624436 78.520694 
L 81.786764 68.634057 
L 81.949091 92.662899 
L 82.111418 82.238976 
L 82.273745 81.208213 
L 82.436073 81.208213 
L 82.5984 91.576199 
L 82.760727 81.208213 
L 82.923055 80.32266 
L 83.085382 81.615504 
L 83.247709 81.208213 
L 83.572364 81.208213 
L 83.734691 77.510463 
L 83.897018 63.840037 
L 84.221673 81.208213 
L 84.384 81.208213 
L 84.546327 79.231016 
L 84.708655 74.736552 
L 84.870982 74.787809 
L 85.033309 75.804 
L 85.195636 78.503877 
L 85.357964 84.493125 
L 85.682618 105.818936 
L 86.007273 81.208213 
L 86.1696 98.044482 
L 86.331927 81.615504 
L 86.494255 81.208213 
L 86.818909 81.208213 
L 86.981236 85.893687 
L 87.143564 108.322144 
L 87.305891 221.684978 
L 87.468218 89.374757 
L 87.630545 165.230457 
L 87.9552 96.060989 
L 88.117527 98.044482 
L 88.442182 150.134011 
L 88.604509 85.076865 
L 88.766836 88.957257 
L 88.929164 81.043689 
L 89.091491 98.044482 
L 89.253818 79.818907 
L 89.416145 99.266901 
L 89.578473 150.14555 
L 89.7408 80.09024 
L 90.065455 97.909479 
L 90.390109 81.208213 
L 90.552436 81.208213 
L 90.714764 153.819265 
L 90.877091 88.971727 
L 91.039418 81.208213 
L 91.201745 81.208213 
L 91.364073 82.928823 
L 91.5264 80.729512 
L 91.688727 92.045628 
L 91.851055 76.707012 
L 92.013382 117.452001 
L 92.175709 81.208213 
L 92.338036 86.115294 
L 92.500364 81.208213 
L 92.662691 126.192122 
L 92.825018 76.573051 
L 92.987345 81.208213 
L 93.149673 80.198749 
L 93.312 118.896982 
L 93.474327 118.896982 
L 93.636655 119.873785 
L 93.798982 81.176404 
L 94.285964 81.208213 
L 94.448291 118.782573 
L 94.610618 81.208213 
L 94.772945 81.043689 
L 94.935273 94.410679 
L 95.0976 81.155089 
L 95.259927 159.64167 
L 95.422255 80.037143 
L 95.584582 111.78772 
L 95.746909 120.093456 
L 95.909236 85.582373 
L 96.071564 88.802346 
L 96.233891 81.155089 
L 96.396218 81.208213 
L 96.720873 150.262891 
L 96.8832 74.398116 
L 97.045527 81.208213 
L 97.207855 81.208213 
L 97.370182 80.139573 
L 97.532509 91.469124 
L 97.694836 81.208213 
L 97.857164 81.173622 
L 98.019491 118.896982 
L 98.181818 81.208213 
L 98.344145 77.845443 
L 98.506473 81.208213 
L 98.6688 81.257534 
L 98.831127 81.155089 
L 98.993455 78.815297 
L 99.155782 81.208213 
L 99.318109 81.208213 
L 99.480436 81.043689 
L 99.642764 81.208213 
L 99.967418 75.972767 
L 100.129745 91.434018 
L 100.292073 89.202571 
L 100.4544 81.208213 
L 100.941382 81.208213 
L 101.103709 81.043689 
L 101.266036 81.257534 
L 101.590691 81.155089 
L 101.753018 75.972767 
L 101.915345 81.260047 
L 102.077673 81.472851 
L 102.24 84.607866 
L 102.402327 79.818907 
L 102.564655 89.202571 
L 102.726982 81.208213 
L 102.889309 82.602863 
L 103.051636 81.155089 
L 103.376291 81.176404 
L 103.538618 76.089497 
L 103.700945 79.394711 
L 103.863273 76.688861 
L 104.0256 81.260047 
L 104.350255 81.208213 
L 104.674909 81.208213 
L 104.837236 80.63978 
L 104.999564 71.7236 
L 105.161891 85.245977 
L 105.324218 84.960307 
L 105.486545 86.052446 
L 105.648873 81.208213 
L 105.8112 81.472851 
L 105.973527 92.015158 
L 106.135855 81.501045 
L 106.298182 81.208213 
L 106.785164 81.257534 
L 106.947491 75.972767 
L 107.109818 81.208213 
L 107.272145 81.208213 
L 107.5968 78.576617 
L 107.759127 75.197085 
L 108.083782 87.121211 
L 108.246109 85.924168 
L 108.408436 85.587207 
L 108.570764 78.815297 
L 108.733091 83.130585 
L 108.895418 81.208213 
L 109.057745 81.208213 
L 109.220073 86.968012 
L 109.3824 81.199839 
L 109.707055 81.208213 
L 109.869382 85.023759 
L 110.031709 91.662626 
L 110.194036 82.51628 
L 110.356364 81.407789 
L 110.518691 81.208213 
L 110.681018 81.208213 
L 110.843345 80.614341 
L 111.005673 81.208213 
L 111.168 81.208213 
L 111.330327 76.373871 
L 111.492655 77.32423 
L 111.654982 76.227435 
L 111.817309 85.587207 
L 111.979636 75.641847 
L 112.141964 76.227435 
L 112.466618 86.348872 
L 112.628945 82.82922 
L 112.791273 83.292592 
L 112.9536 112.547848 
L 113.115927 84.288752 
L 113.278255 79.665631 
L 113.440582 111.948164 
L 113.602909 78.968712 
L 113.765236 85.846403 
L 114.089891 78.755948 
L 114.252218 91.898177 
L 114.576873 72.961844 
L 114.7392 71.62218 
L 114.901527 73.115892 
L 115.226182 177.229411 
L 115.388509 81.383575 
L 115.550836 158.856918 
L 115.713164 114.245268 
L 115.875491 102.97764 
L 116.037818 66.284832 
L 116.200145 167.32701 
L 116.362473 177.150306 
L 116.5248 160.24488 
L 116.687127 125.768436 
L 116.849455 129.455673 
L 117.174109 73.343687 
L 117.336436 81.208213 
L 117.498764 143.206061 
L 117.661091 162.183336 
L 117.823418 134.15123 
L 117.985745 286.293562 
L 118.148073 103.962674 
L 118.3104 92.779101 
L 118.472727 90.412481 
L 118.635055 100.704387 
L 118.797382 97.389169 
L 118.959709 202.0667 
L 119.122036 104.427318 
L 119.284364 178.024387 
L 119.446691 82.712808 
L 119.609018 102.258 
L 119.771345 90.292053 
L 119.933673 134.800162 
L 120.096 88.014739 
L 120.258327 93.920195 
L 120.420655 107.543079 
L 120.582982 106.260251 
L 120.745309 89.222362 
L 120.907636 117.680844 
L 121.232291 91.270069 
L 121.394618 86.959503 
L 121.556945 106.156809 
L 121.719273 84.070295 
L 121.8816 103.957155 
L 122.043927 88.517406 
L 122.206255 164.507092 
L 122.368582 97.389169 
L 122.530909 94.703797 
L 122.855564 101.485478 
L 123.017891 89.675867 
L 123.180218 139.624618 
L 123.342545 105.633714 
L 123.504873 99.981395 
L 123.829527 83.472976 
L 123.991855 119.897162 
L 124.154182 85.860599 
L 124.316509 104.010655 
L 124.641164 82.948684 
L 124.803491 76.215107 
L 125.128145 104.861133 
L 125.290473 98.20429 
L 125.4528 82.807845 
L 125.615127 180.605149 
L 125.777455 82.942127 
L 125.939782 116.187385 
L 126.102109 113.874001 
L 126.264436 102.400532 
L 126.426764 82.613859 
L 126.751418 97.881909 
L 126.913745 119.068822 
L 127.2384 96.028137 
L 127.400727 102.852148 
L 127.563055 92.826805 
L 127.725382 91.587332 
L 127.887709 94.576082 
L 128.050036 180.605149 
L 128.212364 109.365978 
L 128.374691 89.241473 
L 128.537018 121.537292 
L 128.699345 93.488976 
L 128.861673 89.893837 
L 129.024 101.377707 
L 129.186327 82.794418 
L 129.348655 90.11963 
L 129.510982 91.847688 
L 129.673309 89.521588 
L 129.835636 85.342803 
L 129.997964 234.510255 
L 130.160291 110.081997 
L 130.322618 89.766986 
L 130.484945 165.667615 
L 130.8096 85.117982 
L 130.971927 94.356863 
L 131.134255 89.031167 
L 131.296582 106.311656 
L 131.458909 184.95899 
L 131.783564 89.905416 
L 131.945891 94.041688 
L 132.108218 139.827578 
L 132.270545 89.715128 
L 132.432873 104.01781 
L 132.5952 175.186239 
L 132.757527 103.173693 
L 132.919855 93.920195 
L 133.082182 113.38334 
L 133.244509 94.939692 
L 133.406836 115.37849 
L 133.569164 89.794734 
L 133.731491 94.041688 
L 134.056145 181.883307 
L 134.218473 89.247039 
L 134.3808 100.814285 
L 134.543127 179.997846 
L 134.705455 98.738709 
L 134.867782 88.955032 
L 135.030109 90.174373 
L 135.192436 180.605149 
L 135.354764 99.669979 
L 135.517091 102.327252 
L 135.679418 181.883307 
L 135.841745 82.965313 
L 136.004073 91.065104 
L 136.1664 90.324275 
L 136.328727 180.605149 
L 136.491055 92.157315 
L 136.653382 94.071114 
L 136.815709 101.39748 
L 136.978036 90.174373 
L 137.140364 106.092643 
L 137.302691 101.535421 
L 137.465018 89.055786 
L 137.627345 135.039833 
L 137.789673 90.567893 
L 137.952 91.10553 
L 138.114327 107.239877 
L 138.601309 81.704915 
L 138.763636 89.59961 
L 138.925964 123.094702 
L 139.088291 84.707588 
L 139.250618 103.753266 
L 139.575273 100.620092 
L 139.7376 89.031167 
L 139.899927 100.620092 
L 140.224582 84.142084 
L 140.386909 104.057373 
L 140.549236 90.081436 
L 140.711564 182.312316 
L 140.873891 90.505091 
L 141.036218 94.834206 
L 141.198545 147.102482 
L 141.360873 101.050056 
L 141.847855 81.208213 
L 142.010182 129.741553 
L 142.172509 90.205371 
L 142.334836 106.065574 
L 142.497164 90.689474 
L 142.659491 135.039833 
L 142.821818 89.774163 
L 142.984145 94.585557 
L 143.146473 91.645337 
L 143.3088 98.568241 
L 143.471127 83.406277 
L 143.633455 84.536727 
L 143.795782 91.788814 
L 143.958109 114.824413 
L 144.120436 208.228148 
L 144.282764 89.362458 
L 144.445091 173.044771 
L 144.607418 83.660814 
L 144.769745 143.083192 
L 145.0944 81.907112 
L 145.581382 113.175002 
L 145.743709 91.84281 
L 145.906036 98.605381 
L 146.230691 85.617925 
L 146.393018 92.275622 
L 146.717673 90.297085 
L 146.88 90.449378 
L 147.042327 116.102428 
L 147.204655 179.634187 
L 147.366982 93.861879 
L 147.529309 88.956208 
L 147.691636 180.605149 
L 147.853964 92.389702 
L 148.016291 98.794935 
L 148.178618 91.184331 
L 148.340945 90.412481 
L 148.503273 94.071114 
L 148.6656 89.794734 
L 148.827927 100.469052 
L 148.990255 120.17046 
L 149.152582 88.266435 
L 149.314909 90.171584 
L 149.477236 165.773614 
L 149.639564 96.976177 
L 149.801891 91.110258 
L 149.964218 89.898694 
L 150.126545 150.282275 
L 150.288873 94.571024 
L 150.4512 95.470107 
L 150.613527 102.348221 
L 150.775855 76.258906 
L 150.938182 90.297085 
L 151.100509 88.981849 
L 151.262836 94.041688 
L 151.425164 89.055786 
L 151.587491 90.449378 
L 151.912145 91.269679 
L 152.074473 93.3901 
L 152.2368 83.100506 
L 152.399127 127.403265 
L 152.561455 89.270842 
L 152.723782 88.955032 
L 152.886109 94.041688 
L 153.048436 91.10553 
L 153.210764 90.808319 
L 153.373091 89.478808 
L 153.535418 107.448717 
L 153.697745 90.297085 
L 153.860073 91.10553 
L 154.0224 90.689474 
L 154.184727 98.568241 
L 154.347055 100.712635 
L 154.509382 90.171584 
L 154.671709 90.11963 
L 154.834036 173.089316 
L 154.996364 104.317479 
L 155.158691 116.311384 
L 155.321018 90.449378 
L 155.483345 94.041688 
L 155.645673 89.270842 
L 155.808 103.230092 
L 155.970327 89.905416 
L 156.132655 102.177447 
L 156.294982 94.410459 
L 156.457309 105.051358 
L 156.619636 88.955032 
L 156.781964 99.715826 
L 156.944291 94.041688 
L 157.106618 98.00999 
L 157.268945 90.089037 
L 157.431273 92.389702 
L 157.5936 89.007323 
L 157.755927 98.00999 
L 157.918255 115.878975 
L 158.080582 110.910926 
L 158.242909 94.071114 
L 158.405236 90.174373 
L 158.567564 90.089037 
L 158.729891 116.050449 
L 158.892218 94.410459 
L 159.054545 91.894712 
L 159.216873 94.991963 
L 159.3792 90.651545 
L 159.541527 91.587332 
L 159.703855 93.861879 
L 159.866182 89.270842 
L 160.028509 175.186239 
L 160.190836 92.131858 
L 160.353164 88.981849 
L 160.515491 92.063025 
L 160.677818 179.634187 
L 160.840145 104.010655 
L 161.002473 90.11963 
L 161.1648 89.270842 
L 161.327127 99.901808 
L 161.489455 90.11963 
L 161.651782 113.880454 
L 161.814109 91.10553 
L 161.976436 91.858695 
L 162.138764 89.031167 
L 162.301091 88.981849 
L 162.463418 90.292053 
L 162.625745 74.084562 
L 162.788073 89.478808 
L 162.9504 164.794843 
L 163.112727 94.236313 
L 163.275055 103.960359 
L 163.437382 90.449378 
L 163.599709 88.981849 
L 163.762036 90.089037 
L 164.086691 139.417015 
L 164.249018 89.465678 
L 164.411345 90.449378 
L 164.573673 86.005306 
L 164.736 96.028137 
L 164.898327 89.247039 
L 165.060655 92.779101 
L 165.222982 89.055786 
L 165.385309 89.007323 
L 165.547636 116.102428 
L 165.709964 89.905416 
L 165.872291 93.920195 
L 166.034618 93.571394 
L 166.196945 94.041688 
L 166.359273 175.186239 
L 166.683927 90.11963 
L 166.846255 90.412481 
L 167.008582 84.546701 
L 167.333236 94.071114 
L 167.495564 94.410459 
L 167.657891 90.808319 
L 167.820218 100.712635 
L 167.982545 88.981849 
L 168.144873 94.174829 
L 168.3072 88.955032 
L 168.469527 93.571394 
L 168.631855 117.925354 
L 168.794182 180.605149 
L 168.956509 91.184331 
L 169.118836 113.321941 
L 169.281164 93.571394 
L 169.443491 89.247039 
L 169.605818 89.471886 
L 169.768145 90.689474 
L 170.0928 110.935346 
L 170.255127 89.055786 
L 170.417455 90.089037 
L 170.579782 88.981849 
L 170.742109 175.186239 
L 170.904436 101.58588 
L 171.229091 88.981849 
L 171.391418 89.055786 
L 171.553745 98.632586 
L 171.8784 88.955032 
L 172.040727 88.981849 
L 172.203055 146.807898 
L 172.527709 90.11963 
L 172.690036 114.466221 
L 172.852364 89.247039 
L 173.014691 89.478808 
L 173.177018 93.571394 
L 173.339345 90.11963 
L 173.501673 93.920195 
L 173.664 84.321143 
L 173.826327 89.055786 
L 173.988655 90.11963 
L 174.150982 93.783459 
L 174.313309 100.31246 
L 174.475636 90.297085 
L 174.637964 90.11963 
L 174.962618 90.449378 
L 175.124945 83.856538 
L 175.287273 91.587332 
L 175.4496 90.297085 
L 175.774255 159.205037 
L 175.936582 100.368841 
L 176.098909 98.862494 
L 176.423564 159.863522 
L 176.585891 112.879681 
L 177.072873 191.941857 
L 177.2352 151.993905 
L 177.397527 193.999635 
L 177.559855 184.99792 
L 177.722182 164.027494 
L 177.884509 122.251544 
L 178.046836 220.881631 
L 178.209164 141.50048 
L 178.371491 161.5512 
L 178.533818 258.873751 
L 178.696145 138.956028 
L 178.858473 131.116161 
L 179.0208 142.249321 
L 179.183127 162.722214 
L 179.345455 295.488 
L 179.670109 106.710103 
L 179.832436 197.676566 
L 179.994764 72.986511 
L 180.157091 218.557665 
L 180.319418 119.061282 
L 180.481745 198.669547 
L 180.644073 102.284947 
L 180.968727 272.317258 
L 181.131055 102.863266 
L 181.293382 191.73078 
L 181.618036 138.821146 
L 181.780364 246.139019 
L 181.942691 152.468388 
L 182.105018 129.556654 
L 182.267345 198.725405 
L 182.592 99.981395 
L 182.754327 183.841621 
L 183.078982 126.706686 
L 183.241309 106.710103 
L 183.403636 103.616964 
L 183.565964 98.396737 
L 183.890618 240.744773 
L 184.052945 196.76689 
L 184.215273 113.904357 
L 184.3776 123.189704 
L 184.539927 123.405686 
L 184.702255 159.721838 
L 184.864582 163.610383 
L 185.189236 222.019223 
L 185.351564 157.060117 
L 185.676218 209.917662 
L 186.000873 91.860349 
L 186.1632 113.917614 
L 186.325527 104.72596 
L 186.487855 179.997846 
L 186.650182 101.079852 
L 186.812509 106.410915 
L 186.974836 179.997846 
L 187.137164 93.035125 
L 187.299491 89.349416 
L 187.461818 96.053535 
L 187.624145 132.605446 
L 187.786473 94.124366 
L 187.9488 179.246937 
L 188.111127 98.00999 
L 188.273455 134.690296 
L 188.435782 109.131546 
L 188.598109 163.403001 
L 188.760436 101.90068 
L 188.922764 160.271572 
L 189.085091 162.362416 
L 189.409745 72.735247 
L 189.572073 99.901808 
L 189.7344 99.288917 
L 189.896727 88.956208 
L 190.059055 133.638568 
L 190.221382 99.907855 
L 190.383709 179.997846 
L 190.546036 105.86256 
L 190.708364 185.786837 
L 190.870691 116.086277 
L 191.033018 116.102428 
L 191.195345 136.857472 
L 191.357673 116.102428 
L 191.682327 161.213382 
L 191.844655 180.605149 
L 192.169309 147.763386 
L 192.331636 131.224362 
L 192.493964 98.632586 
L 192.656291 101.485478 
L 192.818618 190.102183 
L 192.980945 181.648087 
L 193.143273 151.043833 
L 193.3056 97.500399 
L 193.467927 161.669585 
L 193.630255 177.417623 
L 193.792582 92.389702 
L 193.954909 220.830607 
L 194.117236 99.744917 
L 194.279564 180.605149 
L 194.441891 98.44347 
L 194.604218 130.910844 
L 194.766545 132.605446 
L 195.0912 198.3993 
L 195.253527 167.960519 
L 195.415855 162.362416 
L 195.578182 292.168953 
L 195.740509 144.6705 
L 195.902836 166.208244 
L 196.065164 275.291362 
L 196.227491 192.433512 
L 196.389818 197.177239 
L 196.552145 220.076276 
L 196.714473 99.085662 
L 196.8768 197.604862 
L 197.039127 157.62414 
L 197.201455 159.509113 
L 197.526109 241.246094 
L 197.688436 214.315544 
L 197.850764 223.86006 
L 198.013091 213.134851 
L 198.175418 242.750253 
L 198.337745 98.515442 
L 198.824727 250.932773 
L 198.987055 203.552528 
L 199.149382 210.607169 
L 199.311709 183.841621 
L 199.474036 201.655636 
L 199.636364 99.040903 
L 199.798691 117.959006 
L 199.961018 185.438164 
L 200.123345 114.82543 
L 200.285673 193.712419 
L 200.448 184.473537 
L 200.610327 152.131861 
L 200.772655 179.011761 
L 200.934982 181.337086 
L 201.097309 176.741515 
L 201.259636 69.694733 
L 201.421964 104.436472 
L 201.584291 112.342567 
L 201.746618 107.427714 
L 201.908945 201.881288 
L 202.071273 203.46019 
L 202.2336 210.325417 
L 202.395927 180.605149 
L 202.558255 185.338456 
L 202.720582 99.901808 
L 202.882909 217.148281 
L 203.045236 177.678684 
L 203.207564 97.525675 
L 203.369891 180.605149 
L 203.532218 201.532307 
L 203.694545 179.634187 
L 203.856873 117.374733 
L 204.0192 98.632586 
L 204.181527 101.377707 
L 204.343855 121.845916 
L 204.506182 114.82543 
L 204.668509 179.997846 
L 204.830836 93.920195 
L 204.993164 109.899982 
L 205.155491 91.184331 
L 205.317818 103.957155 
L 205.480145 152.92004 
L 205.642473 102.370072 
L 205.8048 161.669585 
L 205.967127 176.428707 
L 206.129455 130.116609 
L 206.291782 179.997846 
L 206.454109 92.389702 
L 206.941091 141.795781 
L 207.103418 99.901808 
L 207.265745 115.878975 
L 207.428073 94.991963 
L 207.5904 180.605149 
L 207.752727 99.901808 
L 207.915055 120.235981 
L 208.239709 88.955032 
L 208.402036 92.372499 
L 208.726691 103.022347 
L 208.889018 89.055786 
L 209.051345 116.234302 
L 209.213673 180.605149 
L 209.376 93.571394 
L 209.538327 90.089037 
L 209.700655 91.847688 
L 209.862982 88.955032 
L 210.025309 88.981849 
L 210.349964 115.878975 
L 210.512291 88.955032 
L 210.674618 90.449378 
L 210.836945 89.055786 
L 210.999273 103.385591 
L 211.1616 90.11963 
L 211.323927 179.997846 
L 211.648582 100.620092 
L 211.810909 99.901808 
L 212.135564 215.380778 
L 212.297891 98.632586 
L 212.784873 130.910844 
L 212.9472 113.321941 
L 213.109527 180.605149 
L 213.271855 89.362458 
L 213.434182 132.905517 
L 213.596509 138.837318 
L 213.921164 215.380778 
L 214.245818 116.18027 
L 214.408145 146.769303 
L 214.570473 215.380778 
L 214.7328 93.410299 
L 214.895127 124.804651 
L 215.057455 110.935346 
L 215.219782 157.324119 
L 215.382109 99.288917 
L 215.706764 148.353797 
L 215.869091 124.908852 
L 216.031418 133.903834 
L 216.193745 162.898613 
L 216.356073 109.248179 
L 216.5184 223.056711 
L 216.680727 96.26186 
L 216.843055 173.669224 
L 217.005382 174.185432 
L 217.167709 178.809021 
L 217.330036 159.133686 
L 217.492364 124.194533 
L 217.654691 163.289951 
L 217.817018 167.281659 
L 217.979345 163.403001 
L 218.141673 166.954477 
L 218.304 167.281659 
L 218.466327 177.678684 
L 218.628655 198.430536 
L 218.790982 184.573943 
L 218.953309 198.725405 
L 219.115636 161.4569 
L 219.277964 193.327401 
L 219.440291 185.460067 
L 219.602618 166.999133 
L 219.764945 166.999133 
L 219.927273 167.237387 
L 220.0896 201.515259 
L 220.414255 158.83789 
L 220.576582 104.43265 
L 220.738909 251.132641 
L 220.901236 192.716463 
L 221.063564 181.040951 
L 221.225891 177.678684 
L 221.388218 166.954477 
L 221.550545 135.582406 
L 221.712873 135.582406 
L 221.8752 167.606524 
L 222.037527 176.678772 
L 222.199855 167.237387 
L 222.362182 180.948035 
L 222.524509 159.863522 
L 222.686836 167.281659 
L 222.849164 145.861078 
L 223.011491 181.020126 
L 223.173818 163.495335 
L 223.336145 168.08292 
L 223.498473 157.62414 
L 223.6608 99.744917 
L 223.823127 168.08292 
L 223.985455 181.165259 
L 224.147782 176.370776 
L 224.310109 145.056637 
L 224.634764 177.669041 
L 224.797091 166.999133 
L 224.959418 167.281659 
L 225.121745 168.08292 
L 225.284073 270.890899 
L 225.4464 176.384165 
L 225.608727 163.184907 
L 225.771055 183.447946 
L 225.933382 165.149471 
L 226.095709 166.954477 
L 226.258036 159.606793 
L 226.420364 192.387416 
L 226.582691 191.853219 
L 226.745018 167.455596 
L 226.907345 167.237387 
L 227.069673 177.678684 
L 227.232 167.237387 
L 227.394327 173.823026 
L 227.556655 257.504988 
L 227.718982 184.202025 
L 227.881309 176.530632 
L 228.043636 198.725405 
L 228.205964 174.42522 
L 228.368291 175.589961 
L 228.530618 177.678684 
L 228.692945 210.733701 
L 228.855273 176.384165 
L 229.0176 176.827231 
L 229.179927 192.387416 
L 229.342255 189.487975 
L 229.504582 124.632572 
L 229.666909 174.025654 
L 229.829236 184.99792 
L 229.991564 167.281659 
L 230.153891 189.365929 
L 230.316218 178.29663 
L 230.478545 184.573943 
L 230.640873 176.658964 
L 230.8032 210.663237 
L 230.965527 146.118785 
L 231.452509 176.614957 
L 231.614836 177.678684 
L 231.777164 189.292278 
L 231.939491 166.954477 
L 232.101818 190.102183 
L 232.264145 145.861078 
L 232.426473 214.302956 
L 232.5888 176.658964 
L 232.751127 174.264071 
L 232.913455 176.390355 
L 233.075782 164.373915 
L 233.238109 118.107386 
L 233.562764 184.4842 
L 233.887418 138.978939 
L 234.049745 197.061506 
L 234.212073 195.81807 
L 234.3744 178.299858 
L 234.536727 184.468326 
L 234.699055 173.73209 
L 234.861382 90.27573 
L 235.023709 210.798627 
L 235.186036 167.237387 
L 235.510691 186.393593 
L 235.673018 180.733851 
L 235.835345 184.473537 
L 235.997673 96.058784 
L 236.16 138.299251 
L 236.16 138.299251 
" clip-path="url(#p7c5f9d90ab)" style="fill: none; stroke: #ff7f0e; stroke-width: 1.5; stroke-linecap: square"/>
   </g>
   <g id="line2d_20">
    <path d="M 73.832727 81.120795 
L 74.157382 77.940532 
L 74.319709 80.776794 
L 74.482036 80.29783 
L 74.644364 62.064825 
L 74.806691 78.574352 
L 74.969018 80.804687 
L 75.131345 77.986424 
L 75.456 76.072248 
L 75.618327 73.627029 
L 75.780655 75.230212 
L 75.942982 79.279885 
L 76.267636 53.568 
L 76.429964 80.804687 
L 76.592291 73.204851 
L 76.916945 82.759475 
L 77.079273 108.942739 
L 77.403927 67.134197 
L 77.566255 82.365574 
L 77.728582 68.974037 
L 77.890909 76.548635 
L 78.053236 123.228729 
L 78.377891 79.148881 
L 78.540218 70.518615 
L 78.702545 70.693477 
L 78.864873 116.513971 
L 79.0272 81.914207 
L 79.189527 71.951778 
L 79.351855 69.889762 
L 79.514182 78.996501 
L 79.676509 79.947008 
L 79.838836 110.514943 
L 80.001164 80.194508 
L 80.163491 81.208213 
L 80.325818 81.08944 
L 80.488145 80.587923 
L 80.650473 80.731322 
L 80.8128 73.991986 
L 80.975127 83.480009 
L 81.137455 81.208213 
L 81.299782 92.148164 
L 81.462109 81.052059 
L 81.624436 78.520694 
L 81.786764 68.634057 
L 81.949091 92.662899 
L 82.111418 82.238976 
L 82.273745 81.208213 
L 82.436073 81.208213 
L 82.5984 91.576199 
L 82.760727 81.208213 
L 82.923055 80.32266 
L 83.085382 81.615504 
L 83.247709 81.208213 
L 83.572364 81.208213 
L 83.734691 77.510463 
L 83.897018 63.840037 
L 84.221673 81.208213 
L 84.384 81.208213 
L 84.546327 79.231016 
L 84.708655 74.736552 
L 84.870982 74.787809 
L 85.033309 75.804 
L 85.195636 78.503877 
L 85.357964 84.493125 
L 85.682618 105.818936 
L 86.007273 81.208213 
L 86.1696 98.044482 
L 86.331927 81.615504 
L 86.494255 81.208213 
L 86.818909 81.208213 
L 86.981236 85.893687 
L 87.143564 108.322144 
L 87.305891 221.684978 
L 87.468218 89.374757 
L 87.630545 165.230457 
L 87.9552 96.060989 
L 88.117527 98.044482 
L 88.442182 150.134011 
L 88.604509 85.076865 
L 88.766836 88.957257 
L 88.929164 81.043689 
L 89.091491 98.044482 
L 89.253818 79.818907 
L 89.416145 99.266901 
L 89.578473 150.14555 
L 89.7408 80.09024 
L 90.065455 97.909479 
L 90.390109 81.208213 
L 90.552436 81.208213 
L 90.714764 153.819265 
L 90.877091 88.971727 
L 91.039418 81.208213 
L 91.201745 81.208213 
L 91.364073 82.928823 
L 91.5264 80.729512 
L 91.688727 92.045628 
L 91.851055 76.707012 
L 92.013382 117.452001 
L 92.175709 81.208213 
L 92.338036 86.115294 
L 92.500364 81.208213 
L 92.662691 126.192122 
L 92.825018 76.573051 
L 92.987345 81.208213 
L 93.149673 80.198749 
L 93.312 118.896982 
L 93.474327 118.896982 
L 93.636655 119.873785 
L 93.798982 81.176404 
L 94.285964 81.208213 
L 94.448291 118.782573 
L 94.610618 81.208213 
L 94.772945 81.043689 
L 94.935273 94.410679 
L 95.0976 81.155089 
L 95.259927 159.64167 
L 95.422255 80.037143 
L 95.584582 111.78772 
L 95.746909 120.093456 
L 95.909236 85.582373 
L 96.071564 88.802346 
L 96.233891 81.155089 
L 96.396218 81.208213 
L 96.720873 150.262891 
L 96.8832 74.398116 
L 97.045527 81.208213 
L 97.207855 81.208213 
L 97.370182 80.139573 
L 97.532509 91.469124 
L 97.694836 81.208213 
L 97.857164 81.173622 
L 98.019491 118.896982 
L 98.181818 81.208213 
L 98.344145 77.845443 
L 98.506473 81.208213 
L 98.6688 81.257534 
L 98.831127 81.155089 
L 98.993455 78.815297 
L 99.155782 81.208213 
L 99.318109 81.208213 
L 99.480436 81.043689 
L 99.642764 81.208213 
L 99.967418 75.972767 
L 100.129745 91.434018 
L 100.292073 89.202571 
L 100.4544 81.208213 
L 100.941382 81.208213 
L 101.103709 81.043689 
L 101.266036 81.257534 
L 101.590691 81.155089 
L 101.753018 75.972767 
L 101.915345 81.260047 
L 102.077673 81.472851 
L 102.24 84.607866 
L 102.402327 79.818907 
L 102.564655 89.202571 
L 102.726982 81.208213 
L 102.889309 82.602863 
L 103.051636 81.155089 
L 103.376291 81.176404 
L 103.538618 76.089497 
L 103.700945 79.394711 
L 103.863273 76.688861 
L 104.0256 81.260047 
L 104.350255 81.208213 
L 104.674909 81.208213 
L 104.837236 80.63978 
L 104.999564 71.7236 
L 105.161891 85.245977 
L 105.324218 84.960307 
L 105.486545 86.052446 
L 105.648873 81.208213 
L 105.8112 81.472851 
L 105.973527 92.015158 
L 106.135855 81.501045 
L 106.298182 81.208213 
L 106.785164 81.257534 
L 106.947491 75.972767 
L 107.109818 81.208213 
L 107.272145 81.208213 
L 107.5968 78.576617 
L 107.759127 75.197085 
L 108.083782 87.121211 
L 108.246109 85.924168 
L 108.408436 85.587207 
L 108.570764 78.815297 
L 108.733091 83.130585 
L 108.895418 81.208213 
L 109.057745 81.208213 
L 109.220073 86.968012 
L 109.3824 81.199839 
L 109.707055 81.208213 
L 109.869382 85.023759 
L 110.031709 91.662626 
L 110.194036 82.51628 
L 110.356364 81.407789 
L 110.518691 81.208213 
L 110.681018 81.208213 
L 110.843345 80.614341 
L 111.005673 81.208213 
L 111.168 81.208213 
L 111.330327 76.373871 
L 111.492655 77.32423 
L 111.654982 76.227435 
L 111.817309 85.587207 
L 111.979636 75.641847 
L 112.141964 76.227435 
L 112.466618 86.348872 
L 112.628945 82.82922 
L 112.791273 83.292592 
L 112.9536 112.547848 
L 113.115927 84.288752 
L 113.278255 79.665631 
L 113.440582 111.948164 
L 113.602909 78.968712 
L 113.765236 85.846403 
L 114.089891 78.755948 
L 114.252218 91.898177 
L 114.576873 72.961844 
L 114.7392 71.62218 
L 114.901527 73.115892 
L 115.226182 177.229411 
L 115.388509 81.383575 
L 115.550836 158.856918 
L 115.713164 114.245268 
L 115.875491 102.97764 
L 116.037818 66.284832 
L 116.200145 167.32701 
L 116.362473 177.150306 
L 116.5248 160.24488 
L 116.687127 125.768436 
L 116.849455 129.455673 
L 117.174109 73.343687 
L 117.336436 81.208213 
L 117.498764 143.206061 
L 117.661091 162.183336 
L 117.823418 134.15123 
L 117.985745 286.293562 
L 118.148073 103.962674 
L 118.3104 92.779101 
L 118.472727 90.412481 
L 118.635055 100.704387 
L 118.797382 97.389169 
L 118.959709 202.0667 
L 119.122036 104.427318 
L 119.284364 178.024387 
L 119.446691 82.712808 
L 119.609018 102.258 
L 119.771345 90.292053 
L 119.933673 134.800162 
L 120.096 88.014739 
L 120.258327 93.920195 
L 120.420655 107.543079 
L 120.582982 106.260251 
L 120.745309 89.222362 
L 120.907636 117.680844 
L 121.232291 91.270069 
L 121.394618 86.959503 
L 121.556945 106.156809 
L 121.719273 84.070295 
L 121.8816 103.957155 
L 122.043927 88.517406 
L 122.206255 164.507092 
L 122.368582 97.389169 
L 122.530909 94.703797 
L 122.855564 101.485478 
L 123.017891 89.675867 
L 123.180218 139.624618 
L 123.342545 105.633714 
L 123.504873 99.981395 
L 123.829527 83.472976 
L 123.991855 119.897162 
L 124.154182 85.860599 
L 124.316509 104.010655 
L 124.641164 82.948684 
L 124.803491 76.215107 
L 125.128145 104.861133 
L 125.290473 98.20429 
L 125.4528 82.807845 
L 125.615127 180.605149 
L 125.777455 82.942127 
L 125.939782 116.187385 
L 126.102109 113.874001 
L 126.264436 102.400532 
L 126.426764 82.613859 
L 126.751418 97.881909 
L 126.913745 119.068822 
L 127.2384 96.028137 
L 127.400727 102.852148 
L 127.563055 92.826805 
L 127.725382 91.587332 
L 127.887709 94.576082 
L 128.050036 180.605149 
L 128.212364 109.365978 
L 128.374691 89.241473 
L 128.537018 121.537292 
L 128.699345 93.488976 
L 128.861673 89.893837 
L 129.024 101.377707 
L 129.186327 82.794418 
L 129.348655 90.11963 
L 129.510982 91.847688 
L 129.673309 89.521588 
L 129.835636 85.342803 
L 129.997964 234.510255 
L 130.160291 110.081997 
L 130.322618 89.766986 
L 130.484945 165.667615 
L 130.8096 85.117982 
L 130.971927 94.356863 
L 131.134255 89.031167 
L 131.296582 106.311656 
L 131.458909 184.95899 
L 131.783564 89.905416 
L 131.945891 94.041688 
L 132.108218 139.827578 
L 132.270545 89.715128 
L 132.432873 104.01781 
L 132.5952 175.186239 
L 132.757527 103.173693 
L 132.919855 93.920195 
L 133.082182 113.38334 
L 133.244509 94.939692 
L 133.406836 115.37849 
L 133.569164 89.794734 
L 133.731491 94.041688 
L 134.056145 181.883307 
L 134.218473 89.247039 
L 134.3808 100.814285 
L 134.543127 179.997846 
L 134.705455 98.738709 
L 134.867782 88.955032 
L 135.030109 90.174373 
L 135.192436 180.605149 
L 135.354764 99.669979 
L 135.517091 102.327252 
L 135.679418 181.883307 
L 135.841745 82.965313 
L 136.004073 91.065104 
L 136.1664 90.324275 
L 136.328727 180.605149 
L 136.491055 92.157315 
L 136.653382 94.071114 
L 136.815709 101.39748 
L 136.978036 90.174373 
L 137.140364 106.092643 
L 137.302691 101.535421 
L 137.465018 89.055786 
L 137.627345 135.039833 
L 137.789673 90.567893 
L 137.952 91.10553 
L 138.114327 107.239877 
L 138.601309 81.704915 
L 138.763636 89.59961 
L 138.925964 123.094702 
L 139.088291 84.707588 
L 139.250618 103.753266 
L 139.575273 100.620092 
L 139.7376 89.031167 
L 139.899927 100.620092 
L 140.224582 84.142084 
L 140.386909 104.057373 
L 140.549236 90.081436 
L 140.711564 182.312316 
L 140.873891 90.505091 
L 141.036218 94.834206 
L 141.198545 147.102482 
L 141.360873 101.050056 
L 141.847855 81.208213 
L 142.010182 129.741553 
L 142.172509 90.205371 
L 142.334836 106.065574 
L 142.497164 90.689474 
L 142.659491 135.039833 
L 142.821818 89.774163 
L 142.984145 94.585557 
L 143.146473 91.645337 
L 143.3088 98.568241 
L 143.471127 83.406277 
L 143.633455 84.536727 
L 143.795782 91.788814 
L 143.958109 114.824413 
L 144.120436 208.228148 
L 144.282764 89.362458 
L 144.445091 173.044771 
L 144.607418 83.660814 
L 144.769745 143.083192 
L 145.0944 81.907112 
L 145.581382 113.175002 
L 145.743709 91.84281 
L 145.906036 98.605381 
L 146.230691 85.617925 
L 146.393018 92.275622 
L 146.717673 90.297085 
L 146.88 90.449378 
L 147.042327 116.102428 
L 147.204655 179.634187 
L 147.366982 93.861879 
L 147.529309 88.956208 
L 147.691636 180.605149 
L 147.853964 92.389702 
L 148.016291 98.794935 
L 148.178618 91.184331 
L 148.340945 90.412481 
L 148.503273 94.071114 
L 148.6656 89.794734 
L 148.827927 100.469052 
L 148.990255 120.17046 
L 149.152582 88.266435 
L 149.314909 90.171584 
L 149.477236 165.773614 
L 149.639564 96.976177 
L 149.801891 91.110258 
L 149.964218 89.898694 
L 150.126545 150.282275 
L 150.288873 94.571024 
L 150.4512 95.470107 
L 150.613527 102.348221 
L 150.775855 76.258906 
L 150.938182 90.297085 
L 151.100509 88.981849 
L 151.262836 94.041688 
L 151.425164 89.055786 
L 151.587491 90.449378 
L 151.912145 91.269679 
L 152.074473 93.3901 
L 152.2368 83.100506 
L 152.399127 127.403265 
L 152.561455 89.270842 
L 152.723782 88.955032 
L 152.886109 94.041688 
L 153.048436 91.10553 
L 153.210764 90.808319 
L 153.373091 89.478808 
L 153.535418 107.448717 
L 153.697745 90.297085 
L 153.860073 91.10553 
L 154.0224 90.689474 
L 154.184727 98.568241 
L 154.347055 100.712635 
L 154.509382 90.171584 
L 154.671709 90.11963 
L 154.834036 173.089316 
L 154.996364 104.317479 
L 155.158691 116.311384 
L 155.321018 90.449378 
L 155.483345 94.041688 
L 155.645673 89.270842 
L 155.808 103.230092 
L 155.970327 89.905416 
L 156.132655 102.177447 
L 156.294982 94.410459 
L 156.457309 105.051358 
L 156.619636 88.955032 
L 156.781964 99.715826 
L 156.944291 94.041688 
L 157.106618 98.00999 
L 157.268945 90.089037 
L 157.431273 92.389702 
L 157.5936 89.007323 
L 157.755927 98.00999 
L 157.918255 115.878975 
L 158.080582 110.910926 
L 158.242909 94.071114 
L 158.405236 90.174373 
L 158.567564 90.089037 
L 158.729891 116.050449 
L 158.892218 94.410459 
L 159.054545 91.894712 
L 159.216873 94.991963 
L 159.3792 90.651545 
L 159.541527 91.587332 
L 159.703855 93.861879 
L 159.866182 89.270842 
L 160.028509 175.186239 
L 160.190836 92.131858 
L 160.353164 88.981849 
L 160.515491 92.063025 
L 160.677818 179.634187 
L 160.840145 104.010655 
L 161.002473 90.11963 
L 161.1648 89.270842 
L 161.327127 99.901808 
L 161.489455 90.11963 
L 161.651782 113.880454 
L 161.814109 91.10553 
L 161.976436 91.858695 
L 162.138764 89.031167 
L 162.301091 88.981849 
L 162.463418 90.292053 
L 162.625745 74.084562 
L 162.788073 89.478808 
L 162.9504 164.794843 
L 163.112727 94.236313 
L 163.275055 103.960359 
L 163.437382 90.449378 
L 163.599709 88.981849 
L 163.762036 90.089037 
L 164.086691 139.417015 
L 164.249018 89.465678 
L 164.411345 90.449378 
L 164.573673 86.005306 
L 164.736 96.028137 
L 164.898327 89.247039 
L 165.060655 92.779101 
L 165.222982 89.055786 
L 165.385309 89.007323 
L 165.547636 116.102428 
L 165.709964 89.905416 
L 165.872291 93.920195 
L 166.034618 93.571394 
L 166.196945 94.041688 
L 166.359273 175.186239 
L 166.683927 90.11963 
L 166.846255 90.412481 
L 167.008582 84.546701 
L 167.333236 94.071114 
L 167.495564 94.410459 
L 167.657891 90.808319 
L 167.820218 100.712635 
L 167.982545 88.981849 
L 168.144873 94.174829 
L 168.3072 88.955032 
L 168.469527 93.571394 
L 168.631855 117.925354 
L 168.794182 180.605149 
L 168.956509 91.184331 
L 169.118836 113.321941 
L 169.281164 93.571394 
L 169.443491 89.247039 
L 169.605818 89.471886 
L 169.768145 90.689474 
L 170.0928 110.935346 
L 170.255127 89.055786 
L 170.417455 90.089037 
L 170.579782 88.981849 
L 170.742109 175.186239 
L 170.904436 101.58588 
L 171.229091 88.981849 
L 171.391418 89.055786 
L 171.553745 98.632586 
L 171.8784 88.955032 
L 172.040727 88.981849 
L 172.203055 146.807898 
L 172.527709 90.11963 
L 172.690036 114.466221 
L 172.852364 89.247039 
L 173.014691 89.478808 
L 173.177018 93.571394 
L 173.339345 90.11963 
L 173.501673 93.920195 
L 173.664 84.321143 
L 173.826327 89.055786 
L 173.988655 90.11963 
L 174.150982 93.783459 
L 174.313309 100.31246 
L 174.475636 90.297085 
L 174.637964 90.11963 
L 174.962618 90.449378 
L 175.124945 83.856538 
L 175.287273 91.587332 
L 175.4496 90.297085 
L 175.774255 159.205037 
L 175.936582 100.368841 
L 176.098909 98.862494 
L 176.423564 159.863522 
L 176.585891 112.879681 
L 177.072873 191.941857 
L 177.2352 151.993905 
L 177.397527 193.999635 
L 177.559855 184.99792 
L 177.722182 164.027494 
L 177.884509 122.251544 
L 178.046836 220.881631 
L 178.209164 141.50048 
L 178.371491 161.5512 
L 178.533818 258.873751 
L 178.696145 138.956028 
L 178.858473 131.116161 
L 179.0208 142.249321 
L 179.183127 162.722214 
L 179.345455 295.488 
L 179.670109 106.710103 
L 179.832436 197.676566 
L 179.994764 72.986511 
L 180.157091 218.557665 
L 180.319418 119.061282 
L 180.481745 198.669547 
L 180.644073 102.284947 
L 180.968727 272.317258 
L 181.131055 102.863266 
L 181.293382 191.73078 
L 181.618036 138.821146 
L 181.780364 246.139019 
L 181.942691 152.468388 
L 182.105018 129.556654 
L 182.267345 198.725405 
L 182.592 99.981395 
L 182.754327 183.841621 
L 183.078982 126.706686 
L 183.241309 106.710103 
L 183.403636 103.616964 
L 183.565964 98.396737 
L 183.890618 240.744773 
L 184.052945 196.76689 
L 184.215273 113.904357 
L 184.3776 123.189704 
L 184.539927 123.405686 
L 184.702255 159.721838 
L 184.864582 163.610383 
L 185.189236 222.019223 
L 185.351564 157.060117 
L 185.676218 209.917662 
L 186.000873 91.860349 
L 186.1632 113.917614 
L 186.325527 104.72596 
L 186.487855 179.997846 
L 186.650182 101.079852 
L 186.812509 106.410915 
L 186.974836 179.997846 
L 187.137164 93.035125 
L 187.299491 89.349416 
L 187.461818 96.053535 
L 187.624145 132.605446 
L 187.786473 94.124366 
L 187.9488 179.246937 
L 188.111127 98.00999 
L 188.273455 134.690296 
L 188.435782 109.131546 
L 188.598109 163.403001 
L 188.760436 101.90068 
L 188.922764 160.271572 
L 189.085091 162.362416 
L 189.409745 72.735247 
L 189.572073 99.901808 
L 189.7344 99.288917 
L 189.896727 88.956208 
L 190.059055 133.638568 
L 190.221382 99.907855 
L 190.383709 179.997846 
L 190.546036 105.86256 
L 190.708364 185.786837 
L 190.870691 116.086277 
L 191.033018 116.102428 
L 191.195345 136.857472 
L 191.357673 116.102428 
L 191.682327 161.213382 
L 191.844655 180.605149 
L 192.169309 147.763386 
L 192.331636 131.224362 
L 192.493964 98.632586 
L 192.656291 101.485478 
L 192.818618 190.102183 
L 192.980945 181.648087 
L 193.143273 151.043833 
L 193.3056 97.500399 
L 193.467927 161.669585 
L 193.630255 177.417623 
L 193.792582 92.389702 
L 193.954909 220.830607 
L 194.117236 99.744917 
L 194.279564 180.605149 
L 194.441891 98.44347 
L 194.604218 130.910844 
L 194.766545 132.605446 
L 195.0912 198.3993 
L 195.253527 167.960519 
L 195.415855 162.362416 
L 195.578182 292.168953 
L 195.740509 144.6705 
L 195.902836 166.208244 
L 196.065164 275.291362 
L 196.227491 192.433512 
L 196.389818 197.177239 
L 196.552145 220.076276 
L 196.714473 99.085662 
L 196.8768 197.604862 
L 197.039127 157.62414 
L 197.201455 159.509113 
L 197.526109 241.246094 
L 197.688436 214.315544 
L 197.850764 223.86006 
L 198.013091 213.134851 
L 198.175418 242.750253 
L 198.337745 98.515442 
L 198.824727 250.932773 
L 198.987055 203.552528 
L 199.149382 210.607169 
L 199.311709 183.841621 
L 199.474036 201.655636 
L 199.636364 99.040903 
L 199.798691 117.959006 
L 199.961018 185.438164 
L 200.123345 114.82543 
L 200.285673 193.712419 
L 200.448 184.473537 
L 200.610327 152.131861 
L 200.772655 179.011761 
L 200.934982 181.337086 
L 201.097309 176.741515 
L 201.259636 69.694733 
L 201.421964 104.436472 
L 201.584291 112.342567 
L 201.746618 107.427714 
L 201.908945 201.881288 
L 202.071273 203.46019 
L 202.2336 210.325417 
L 202.395927 180.605149 
L 202.558255 185.338456 
L 202.720582 99.901808 
L 202.882909 217.148281 
L 203.045236 177.678684 
L 203.207564 97.525675 
L 203.369891 180.605149 
L 203.532218 201.532307 
L 203.694545 179.634187 
L 203.856873 117.374733 
L 204.0192 98.632586 
L 204.181527 101.377707 
L 204.343855 121.845916 
L 204.506182 114.82543 
L 204.668509 179.997846 
L 204.830836 93.920195 
L 204.993164 109.899982 
L 205.155491 91.184331 
L 205.317818 103.957155 
L 205.480145 152.92004 
L 205.642473 102.370072 
L 205.8048 161.669585 
L 205.967127 176.428707 
L 206.129455 130.116609 
L 206.291782 179.997846 
L 206.454109 92.389702 
L 206.941091 141.795781 
L 207.103418 99.901808 
L 207.265745 115.878975 
L 207.428073 94.991963 
L 207.5904 180.605149 
L 207.752727 99.901808 
L 207.915055 120.235981 
L 208.239709 88.955032 
L 208.402036 92.372499 
L 208.726691 103.022347 
L 208.889018 89.055786 
L 209.051345 116.234302 
L 209.213673 180.605149 
L 209.376 93.571394 
L 209.538327 90.089037 
L 209.700655 91.847688 
L 209.862982 88.955032 
L 210.025309 88.981849 
L 210.349964 115.878975 
L 210.512291 88.955032 
L 210.674618 90.449378 
L 210.836945 89.055786 
L 210.999273 103.385591 
L 211.1616 90.11963 
L 211.323927 179.997846 
L 211.648582 100.620092 
L 211.810909 99.901808 
L 212.135564 215.380778 
L 212.297891 98.632586 
L 212.784873 130.910844 
L 212.9472 113.321941 
L 213.109527 180.605149 
L 213.271855 89.362458 
L 213.434182 132.905517 
L 213.596509 138.837318 
L 213.921164 215.380778 
L 214.245818 116.18027 
L 214.408145 146.769303 
L 214.570473 215.380778 
L 214.7328 93.410299 
L 214.895127 124.804651 
L 215.057455 110.935346 
L 215.219782 157.324119 
L 215.382109 99.288917 
L 215.706764 148.353797 
L 215.869091 124.908852 
L 216.031418 133.903834 
L 216.193745 162.898613 
L 216.356073 109.248179 
L 216.5184 223.056711 
L 216.680727 96.26186 
L 216.843055 173.669224 
L 217.005382 174.185432 
L 217.167709 178.809021 
L 217.330036 159.133686 
L 217.492364 124.194533 
L 217.654691 163.289951 
L 217.817018 167.281659 
L 217.979345 163.403001 
L 218.141673 166.954477 
L 218.304 167.281659 
L 218.466327 177.678684 
L 218.628655 198.430536 
L 218.790982 184.573943 
L 218.953309 198.725405 
L 219.115636 161.4569 
L 219.277964 193.327401 
L 219.440291 185.460067 
L 219.602618 166.999133 
L 219.764945 166.999133 
L 219.927273 167.237387 
L 220.0896 201.515259 
L 220.414255 158.83789 
L 220.576582 104.43265 
L 220.738909 251.132641 
L 220.901236 192.716463 
L 221.063564 181.040951 
L 221.225891 177.678684 
L 221.388218 166.954477 
L 221.550545 135.582406 
L 221.712873 135.582406 
L 221.8752 167.606524 
L 222.037527 176.678772 
L 222.199855 167.237387 
L 222.362182 180.948035 
L 222.524509 159.863522 
L 222.686836 167.281659 
L 222.849164 145.861078 
L 223.011491 181.020126 
L 223.173818 163.495335 
L 223.336145 168.08292 
L 223.498473 157.62414 
L 223.6608 99.744917 
L 223.823127 168.08292 
L 223.985455 181.165259 
L 224.147782 176.370776 
L 224.310109 145.056637 
L 224.634764 177.669041 
L 224.797091 166.999133 
L 224.959418 167.281659 
L 225.121745 168.08292 
L 225.284073 270.890899 
L 225.4464 176.384165 
L 225.608727 163.184907 
L 225.771055 183.447946 
L 225.933382 165.149471 
L 226.095709 166.954477 
L 226.258036 159.606793 
L 226.420364 192.387416 
L 226.582691 191.853219 
L 226.745018 167.455596 
L 226.907345 167.237387 
L 227.069673 177.678684 
L 227.232 167.237387 
L 227.394327 173.823026 
L 227.556655 257.504988 
L 227.718982 184.202025 
L 227.881309 176.530632 
L 228.043636 198.725405 
L 228.205964 174.42522 
L 228.368291 175.589961 
L 228.530618 177.678684 
L 228.692945 210.733701 
L 228.855273 176.384165 
L 229.0176 176.827231 
L 229.179927 192.387416 
L 229.342255 189.487975 
L 229.504582 124.632572 
L 229.666909 174.025654 
L 229.829236 184.99792 
L 229.991564 167.281659 
L 230.153891 189.365929 
L 230.316218 178.29663 
L 230.478545 184.573943 
L 230.640873 176.658964 
L 230.8032 210.663237 
L 230.965527 146.118785 
L 231.452509 176.614957 
L 231.614836 177.678684 
L 231.777164 189.292278 
L 231.939491 166.954477 
L 232.101818 190.102183 
L 232.264145 145.861078 
L 232.426473 214.302956 
L 232.5888 176.658964 
L 232.751127 174.264071 
L 232.913455 176.390355 
L 233.075782 164.373915 
L 233.238109 118.107386 
L 233.562764 184.4842 
L 233.887418 138.978939 
L 234.049745 197.061506 
L 234.212073 195.81807 
L 234.3744 178.299858 
L 234.536727 184.468326 
L 234.699055 173.73209 
L 234.861382 90.27573 
L 235.023709 210.798627 
L 235.186036 167.237387 
L 235.510691 186.393593 
L 235.673018 180.733851 
L 235.835345 184.473537 
L 235.997673 96.058784 
L 236.16 138.299251 
L 236.322327 77.861955 
L 236.484655 167.962219 
L 236.646982 193.155224 
L 236.809309 91.847688 
L 236.971636 62.67073 
L 237.133964 70.606922 
L 237.296291 71.167389 
L 237.458618 65.071996 
L 237.620945 64.953774 
L 237.9456 91.211755 
L 238.107927 82.225044 
L 238.270255 91.430366 
L 238.432582 81.208213 
L 238.594909 80.468148 
L 238.919564 81.85238 
L 239.081891 81.289652 
L 239.244218 81.208213 
L 239.406545 71.167389 
L 239.568873 81.152921 
L 239.7312 61.346909 
L 239.893527 81.208213 
L 240.055855 82.378403 
L 240.218182 81.208213 
L 240.380509 71.237123 
L 240.542836 82.590406 
L 240.705164 81.323958 
L 240.867491 73.514585 
L 241.029818 159.642881 
L 241.192145 81.85238 
L 241.354473 81.208213 
L 241.5168 75.405853 
L 241.679127 74.286795 
L 241.841455 61.028953 
L 242.003782 90.729748 
L 242.166109 81.208213 
L 242.328436 60.465808 
L 242.490764 81.208213 
L 242.815418 81.208213 
L 242.977745 68.669791 
L 243.140073 81.459267 
L 243.3024 83.402737 
L 243.464727 81.651734 
L 243.627055 82.637346 
L 243.789382 81.208213 
L 243.951709 56.831732 
L 244.276364 81.34191 
L 244.438691 68.325388 
L 244.601018 82.297542 
L 244.763345 82.323763 
L 244.925673 81.802986 
L 245.088 71.019386 
L 245.250327 82.519684 
L 245.412655 69.910937 
L 245.574982 71.204269 
L 245.737309 155.904631 
L 245.899636 130.314645 
L 246.061964 71.167389 
L 246.224291 97.91653 
L 246.386618 180.605149 
L 246.548945 84.714469 
L 246.8736 260.912831 
L 247.198255 176.56088 
L 247.360582 157.658455 
L 247.522909 99.288917 
L 247.685236 122.202648 
L 248.009891 180.605149 
L 248.334545 116.102428 
L 248.6592 96.26186 
L 248.821527 103.616964 
L 248.983855 98.280512 
L 249.146182 113.873076 
L 249.308509 157.658455 
L 249.470836 98.00999 
L 249.633164 103.616964 
L 249.795491 204.526616 
L 249.957818 180.605149 
L 250.120145 99.901808 
L 250.282473 116.18027 
L 250.4448 104.093931 
L 250.607127 102.370072 
L 250.769455 98.396737 
L 251.094109 209.781745 
L 251.256436 99.370939 
L 251.418764 95.919062 
L 251.581091 96.667758 
L 251.905745 198.213587 
L 252.2304 96.091468 
L 252.392727 96.283669 
L 252.555055 163.289951 
L 252.717382 157.658455 
L 252.879709 162.818746 
L 253.042036 157.658455 
L 253.204364 209.803571 
L 253.529018 98.396737 
L 253.691345 103.616964 
L 253.853673 93.234223 
L 254.016 163.289951 
L 254.178327 162.705689 
L 254.340655 201.351138 
L 254.502982 162.818746 
L 254.665309 87.62262 
L 254.827636 162.572344 
L 254.989964 96.091468 
L 255.152291 162.705689 
L 255.314618 105.209836 
L 255.476945 98.396737 
L 255.639273 180.605149 
L 255.8016 179.997846 
L 255.963927 96.26186 
L 256.126255 100.950516 
L 256.288582 115.878975 
L 256.613236 115.878975 
L 256.775564 116.234302 
L 256.937891 163.289951 
L 257.262545 96.21998 
L 257.424873 209.781745 
L 257.5872 179.997846 
L 257.749527 180.605149 
L 257.911855 163.289951 
L 258.074182 179.997846 
L 258.236509 98.00999 
L 258.398836 116.234302 
L 258.561164 180.605149 
L 258.723491 98.00999 
L 258.885818 103.616964 
L 259.048145 98.396737 
L 259.3728 179.997846 
L 259.535127 161.669585 
L 259.697455 180.605149 
L 259.859782 96.091468 
L 260.022109 103.616964 
L 260.184436 201.322425 
L 260.346764 113.649913 
L 260.671418 232.286963 
L 260.833745 98.00999 
L 260.996073 92.372499 
L 261.1584 98.00999 
L 261.320727 115.878975 
L 261.483055 88.956208 
L 261.645382 179.997846 
L 261.807709 90.11963 
L 261.970036 88.955032 
L 262.457018 88.956208 
L 262.619345 93.920195 
L 262.781673 93.920195 
L 262.944 88.956208 
L 263.106327 89.055786 
L 263.430982 88.981849 
L 263.593309 88.955032 
L 263.755636 89.055786 
L 264.080291 88.955032 
L 264.242618 88.981849 
L 264.404945 93.571394 
L 264.567273 93.920195 
L 264.891927 88.955032 
L 265.054255 93.920195 
L 265.216582 88.981849 
L 265.378909 93.920195 
L 265.541236 93.920195 
L 265.703564 93.571394 
L 265.865891 93.571394 
L 266.028218 88.956208 
L 266.190545 90.11963 
L 266.352873 93.571394 
L 266.5152 90.11963 
L 266.677527 93.571394 
L 266.839855 93.571394 
L 267.002182 93.920195 
L 267.164509 93.571394 
L 267.326836 88.956208 
L 267.489164 88.955032 
L 267.651491 93.571394 
L 267.813818 90.171584 
L 267.976145 90.11963 
L 268.138473 93.571394 
L 268.3008 88.956208 
L 268.787782 89.055786 
L 268.950109 90.171584 
L 269.274764 90.11963 
L 269.437091 93.920195 
L 269.599418 90.11963 
L 269.761745 88.956208 
L 269.924073 93.571394 
L 270.0864 88.955032 
L 270.248727 93.571394 
L 270.411055 93.920195 
L 270.573382 93.920195 
L 270.735709 90.11963 
L 270.898036 90.11963 
L 271.060364 88.955032 
L 271.222691 89.055786 
L 271.385018 88.956208 
L 271.547345 90.11963 
L 271.709673 93.920195 
L 271.872 93.571394 
L 272.034327 89.055786 
L 272.196655 88.955032 
L 272.358982 90.11963 
L 272.521309 88.955032 
L 272.845964 88.955032 
L 273.008291 93.571394 
L 273.170618 90.11963 
L 273.332945 93.920195 
L 273.495273 93.920195 
L 273.819927 88.956208 
L 273.982255 93.571394 
L 274.144582 88.956208 
L 274.306909 93.920195 
L 274.469236 90.11963 
L 274.631564 93.920195 
L 274.793891 90.11963 
L 274.956218 93.571394 
L 275.118545 93.920195 
L 275.280873 90.171584 
L 275.4432 93.920195 
L 275.605527 90.11963 
L 275.767855 90.11963 
L 275.930182 89.055786 
L 276.092509 93.920195 
L 276.254836 93.920195 
L 276.417164 88.955032 
L 276.579491 90.11963 
L 276.741818 106.210461 
L 276.904145 98.632586 
L 277.066473 116.102428 
L 277.2288 180.605149 
L 277.391127 90.11963 
L 277.553455 90.171584 
L 277.715782 88.955032 
L 277.878109 89.055786 
L 278.040436 88.955032 
L 278.202764 90.11963 
L 278.365091 93.571394 
L 278.527418 93.920195 
L 278.689745 88.956208 
L 279.501382 89.055786 
L 279.663709 93.571394 
L 279.826036 88.955032 
L 279.988364 93.571394 
L 280.150691 90.11963 
L 280.313018 90.171584 
L 280.475345 89.055786 
L 280.8 88.956208 
L 280.962327 93.920195 
L 281.124655 90.11963 
L 281.286982 89.055786 
L 281.449309 88.956208 
L 281.611636 93.920195 
L 281.773964 90.449378 
L 281.936291 90.171584 
L 282.098618 89.055786 
L 282.423273 88.956208 
L 282.5856 93.920195 
L 282.910255 88.981849 
L 283.072582 90.11963 
L 283.234909 93.571394 
L 283.397236 88.955032 
L 283.559564 88.955032 
L 283.721891 93.920195 
L 283.884218 88.955032 
L 284.046545 93.920195 
L 284.208873 88.981849 
L 284.3712 93.571394 
L 284.533527 88.955032 
L 284.695855 93.920195 
L 284.858182 89.055786 
L 285.182836 88.955032 
L 285.832145 88.956208 
L 285.994473 90.171584 
L 286.1568 88.955032 
L 286.319127 93.920195 
L 286.481455 83.404462 
L 286.643782 82.192474 
L 286.806109 89.901386 
L 286.968436 90.11963 
L 287.130764 87.557533 
L 287.293091 75.755128 
L 287.455418 84.587814 
L 287.617745 82.377298 
L 287.780073 75.602371 
L 287.9424 75.479116 
L 288.104727 75.562053 
L 288.267055 75.479116 
L 288.429382 75.602371 
L 288.591709 75.436625 
L 288.754036 82.377298 
L 288.916364 75.436625 
L 289.078691 75.755128 
L 289.241018 75.436625 
L 289.403345 75.641861 
L 289.565673 75.641861 
L 289.728 75.989827 
L 289.890327 75.680495 
L 290.052655 75.755128 
L 290.214982 75.479116 
L 290.377309 75.893982 
L 290.539636 75.602371 
L 290.701964 82.917119 
L 290.864291 75.791122 
L 291.026618 75.479116 
L 291.188945 82.917119 
L 291.351273 83.465328 
L 291.5136 75.989827 
L 291.675927 82.917119 
L 291.838255 75.562053 
L 292.000582 82.917119 
L 292.162909 82.917119 
L 292.325236 84.587814 
L 292.487564 84.022149 
L 292.649891 90.790306 
L 292.812218 88.816482 
L 293.136873 88.867171 
L 293.2992 89.462369 
L 293.461527 89.462369 
L 293.623855 85.746645 
L 293.786182 89.462369 
L 293.948509 88.181641 
L 294.110836 90.11963 
L 294.273164 89.462369 
L 294.435491 93.920195 
L 294.597818 90.11963 
L 294.760145 89.462369 
L 294.922473 90.11963 
L 295.0848 89.462369 
L 295.247127 90.11963 
L 295.571782 90.11963 
L 295.734109 93.920195 
L 295.896436 90.11963 
L 296.221091 90.11963 
L 296.383418 89.901386 
L 296.545745 90.171584 
L 297.032727 90.11963 
L 297.195055 88.956208 
L 297.357382 93.920195 
L 297.682036 86.374906 
L 297.844364 90.089079 
L 298.169018 83.748323 
L 298.331345 93.920195 
L 298.493673 90.171584 
L 298.656 90.089079 
L 299.142982 83.842553 
L 299.305309 84.228457 
L 299.467636 85.567375 
L 299.629964 90.567893 
L 299.954618 81.727625 
L 300.116945 83.949375 
L 300.4416 83.296708 
L 300.603927 84.472173 
L 300.928582 83.117619 
L 301.090909 83.795629 
L 301.415564 83.129923 
L 301.577891 83.36954 
L 301.740218 83.078223 
L 301.902545 83.217381 
L 302.064873 83.503441 
L 302.2272 82.569446 
L 302.551855 82.866779 
L 302.714182 82.980415 
L 302.876509 83.257963 
L 303.038836 82.595085 
L 303.201164 84.372257 
L 303.363491 83.174762 
L 303.525818 83.258925 
L 303.850473 83.795629 
L 304.337455 83.295137 
L 304.499782 83.602711 
L 304.662109 82.835282 
L 304.824436 83.842553 
L 305.149091 83.89358 
L 305.311418 83.752196 
L 305.473745 84.790316 
L 305.636073 83.586397 
L 305.7984 84.327607 
L 305.960727 83.752196 
L 306.123055 84.785829 
L 306.285382 83.032864 
L 306.447709 83.814723 
L 306.610036 86.123693 
L 306.772364 85.620424 
L 306.934691 83.672869 
L 307.097018 83.842553 
L 307.259345 82.938555 
L 307.421673 82.902811 
L 307.584 83.795629 
L 307.746327 83.363275 
L 307.908655 180.605149 
L 308.070982 98.632586 
L 308.395636 81.243212 
L 308.557964 100.712635 
L 308.882618 100.620092 
L 309.044945 180.605149 
L 309.207273 101.485478 
L 309.3696 180.605149 
L 309.531927 106.974505 
L 309.694255 91.623765 
L 309.856582 215.352402 
L 310.018909 180.605149 
L 310.181236 100.620092 
L 310.343564 98.00999 
L 310.668218 215.352402 
L 310.830545 215.352402 
L 310.992873 85.50857 
L 311.1552 98.632586 
L 311.317527 215.352402 
L 311.479855 98.00999 
L 311.642182 129.936307 
L 311.804509 101.570338 
L 311.966836 180.605149 
L 312.129164 180.605149 
L 312.291491 215.352402 
L 312.453818 101.485478 
L 312.616145 109.09066 
L 312.778473 98.00999 
L 312.9408 101.363975 
L 313.103127 215.380778 
L 313.265455 124.764566 
L 313.427782 215.352402 
L 313.590109 215.352402 
L 313.752436 98.00999 
L 313.914764 215.352402 
L 314.077091 215.352402 
L 314.239418 98.00999 
L 314.401745 215.352402 
L 314.564073 98.632586 
L 314.7264 215.352402 
L 314.888727 112.67072 
L 315.051055 99.025297 
L 315.213382 133.929093 
L 315.375709 104.017436 
L 315.538036 108.41458 
L 315.700364 129.936307 
L 315.862691 125.979184 
L 316.025018 215.352402 
L 316.187345 115.297104 
L 316.349673 140.576943 
L 316.512 129.936307 
L 316.674327 136.857472 
L 316.836655 112.058141 
L 316.998982 215.352402 
L 317.161309 100.190892 
L 317.323636 130.910844 
L 317.485964 127.763186 
L 317.648291 100.712635 
L 317.810618 215.352402 
L 317.972945 124.764566 
L 318.135273 129.936307 
L 318.2976 116.5241 
L 318.459927 113.113028 
L 318.622255 102.647569 
L 318.784582 215.352402 
L 318.946909 129.936307 
L 319.109236 125.979184 
L 319.271564 180.605149 
L 319.433891 99.025297 
L 319.596218 215.352402 
L 319.758545 105.482435 
L 319.920873 99.025297 
L 320.245527 114.246765 
L 320.407855 108.739642 
L 320.570182 133.550664 
L 320.732509 97.957185 
L 320.894836 99.025297 
L 321.057164 99.025297 
L 321.219491 105.482435 
L 321.381818 130.910844 
L 321.544145 95.996059 
L 321.706473 100.158852 
L 322.031127 157.62414 
L 322.193455 110.556664 
L 322.355782 161.669585 
L 322.518109 113.066772 
L 322.680436 105.482435 
L 322.842764 107.84905 
L 323.005091 112.51905 
L 323.167418 104.017436 
L 323.329745 215.352402 
L 323.6544 96.274642 
L 323.816727 105.080029 
L 323.979055 132.237374 
L 324.466036 112.51905 
L 324.628364 119.471948 
L 324.790691 104.298413 
L 324.953018 105.482435 
L 325.115345 108.739642 
L 325.44 96.949062 
L 325.602327 99.025297 
L 325.764655 107.052655 
L 325.926982 125.374517 
L 326.089309 110.556664 
L 326.251636 110.556664 
L 326.413964 105.482435 
L 326.576291 114.644597 
L 326.738618 180.605149 
L 326.900945 99.344255 
L 327.063273 105.482435 
L 327.2256 156.899942 
L 327.387927 93.334528 
L 327.550255 105.633658 
L 327.712582 95.334052 
L 328.037236 161.565388 
L 328.199564 163.255517 
L 328.361891 112.570316 
L 328.524218 96.949062 
L 328.686545 161.669585 
L 328.848873 99.249966 
L 329.0112 163.255517 
L 329.173527 98.00999 
L 329.498182 161.669585 
L 329.822836 161.669585 
L 329.985164 156.899942 
L 330.147491 163.289951 
L 330.309818 103.030791 
L 330.472145 161.669585 
L 330.634473 161.669585 
L 330.7968 90.630359 
L 330.959127 156.899942 
L 331.121455 163.289951 
L 331.283782 161.669585 
L 331.446109 95.338208 
L 331.608436 89.951763 
L 331.770764 91.307345 
L 331.933091 88.695024 
L 332.095418 89.307444 
L 332.257745 89.307444 
L 332.420073 101.223102 
L 332.744727 95.591389 
L 332.907055 129.936307 
L 333.069382 87.028664 
L 333.231709 86.524309 
L 333.394036 88.695024 
L 333.556364 215.352402 
L 333.718691 87.028664 
L 333.881018 81.275704 
L 334.043345 98.03533 
L 334.205673 87.992755 
L 334.368 85.435915 
L 334.530327 132.905517 
L 334.692655 87.464691 
L 334.854982 91.97471 
L 335.017309 88.01629 
L 335.341964 91.345866 
L 335.504291 88.595265 
L 335.666618 215.380778 
L 335.828945 89.835771 
L 335.991273 81.482235 
L 336.1536 89.203513 
L 336.315927 82.045275 
L 336.478255 94.168265 
L 336.640582 127.205668 
L 336.802909 86.938756 
L 336.965236 89.843131 
L 337.127564 87.464691 
L 337.289891 87.461215 
L 337.452218 88.595265 
L 337.614545 83.135709 
L 337.776873 90.397651 
L 338.101527 84.627221 
L 338.426182 112.050411 
L 338.588509 87.464691 
L 338.750836 129.518226 
L 338.913164 87.89097 
L 339.075491 87.464691 
L 339.400145 89.203513 
L 339.562473 112.91079 
L 339.7248 179.997846 
L 339.887127 91.109909 
L 340.049455 88.595265 
L 340.211782 89.687053 
L 340.374109 86.938756 
L 340.536436 86.262648 
L 340.698764 86.43694 
L 340.861091 215.380778 
L 341.023418 81.830626 
L 341.185745 92.189183 
L 341.348073 94.184848 
L 341.5104 86.335982 
L 341.672727 84.390694 
L 341.835055 163.217325 
L 341.997382 95.33495 
L 342.159709 89.722108 
L 342.322036 89.722108 
L 342.484364 85.012316 
L 342.646691 130.910844 
L 342.809018 88.471005 
L 343.133673 87.89097 
L 343.296 85.876894 
L 343.458327 86.938756 
L 343.620655 94.388827 
L 343.782982 88.595265 
L 343.945309 87.298146 
L 344.107636 88.471005 
L 344.269964 88.471005 
L 344.432291 87.338651 
L 344.594618 88.935402 
L 344.919273 85.378126 
L 345.243927 121.818403 
L 345.406255 113.175002 
L 345.568582 112.840666 
L 345.730909 98.554534 
L 345.893236 118.086326 
L 346.055564 90.771811 
L 346.217891 91.861769 
L 346.380218 88.397753 
L 346.542545 87.464691 
L 346.704873 97.049488 
L 346.8672 95.33495 
L 347.029527 89.722108 
L 347.354182 87.89097 
L 347.516509 90.781519 
L 347.678836 112.75581 
L 347.841164 86.973253 
L 348.003491 87.89097 
L 348.165818 91.861769 
L 348.6528 80.643919 
L 348.977455 98.624009 
L 349.139782 88.473948 
L 349.302109 86.410882 
L 349.464436 96.403137 
L 349.626764 129.016888 
L 349.789091 85.450166 
L 349.951418 86.335982 
L 350.113745 98.554534 
L 350.276073 81.725748 
L 350.4384 82.888581 
L 350.600727 93.669828 
L 350.763055 88.372063 
L 350.925382 121.966246 
L 351.087709 87.830624 
L 351.250036 90.951483 
L 351.412364 84.488007 
L 351.574691 110.325995 
L 351.899345 89.258157 
L 352.061673 98.487172 
L 352.224 82.435902 
L 352.386327 87.311875 
L 352.548655 81.021942 
L 352.873309 96.943749 
L 353.035636 82.706295 
L 353.197964 157.133524 
L 353.360291 87.992755 
L 353.522618 102.799401 
L 353.684945 101.380631 
L 353.847273 96.588271 
L 354.0096 80.828486 
L 354.171927 85.026916 
L 354.496582 99.675132 
L 354.821236 81.865106 
L 354.983564 95.479995 
L 355.145891 131.900034 
L 355.308218 89.100507 
L 355.470545 84.738336 
L 355.632873 89.524061 
L 355.7952 87.992755 
L 355.957527 102.141055 
L 356.119855 87.47256 
L 356.282182 89.100507 
L 356.444509 204.994037 
L 356.606836 82.14297 
L 356.769164 83.229344 
L 356.931491 82.742491 
L 357.093818 88.534983 
L 357.256145 89.100507 
L 357.418473 87.47256 
L 357.5808 87.47256 
L 357.743127 81.342872 
L 357.905455 86.812317 
L 358.067782 111.867778 
L 358.230109 94.152073 
L 358.392436 98.824772 
L 358.554764 88.534983 
L 358.717091 90.951483 
L 358.879418 98.824772 
L 359.041745 81.484211 
L 359.3664 94.097518 
L 359.528727 87.253311 
L 359.691055 88.935402 
L 359.853382 99.157402 
L 360.015709 94.6168 
L 360.178036 82.141942 
L 360.340364 88.387371 
L 360.502691 87.992755 
L 360.665018 88.371382 
L 360.827345 80.387116 
L 360.989673 93.609191 
L 361.152 84.030535 
L 361.314327 85.026916 
L 361.476655 82.290777 
L 361.638982 92.065246 
L 361.801309 91.94558 
L 361.963636 82.434366 
L 362.125964 85.70397 
L 362.288291 82.434366 
L 362.450618 89.647665 
L 362.612945 87.47256 
L 362.775273 81.480943 
L 362.9376 84.834186 
L 363.099927 92.065246 
L 363.262255 87.992755 
L 363.586909 89.772252 
L 363.749236 84.543318 
L 363.911564 86.293675 
L 364.073891 84.825011 
L 364.236218 87.788258 
L 364.398545 96.66791 
L 364.7232 80.672557 
L 364.885527 80.12615 
L 365.047855 85.884022 
L 365.210182 97.276134 
L 365.372509 96.785526 
L 365.534836 89.030449 
L 365.859491 103.571817 
L 366.021818 89.772252 
L 366.184145 85.756905 
L 366.346473 86.79124 
L 366.5088 81.871717 
L 366.671127 81.865106 
L 366.833455 91.181497 
L 366.995782 80.915854 
L 367.158109 86.949891 
L 367.320436 83.307209 
L 367.482764 91.306262 
L 367.645091 86.823073 
L 367.807418 89.121444 
L 367.969745 87.355893 
L 368.132073 90.138878 
L 368.2944 88.503201 
L 368.456727 88.503201 
L 368.619055 108.081455 
L 368.781382 88.642907 
L 368.943709 85.369107 
L 369.106036 85.825267 
L 369.593018 80.915854 
L 369.755345 88.371382 
L 369.917673 122.831326 
L 370.08 80.12615 
L 370.242327 110.531612 
L 370.404655 112.219546 
L 370.566982 80.916107 
L 370.729309 87.915342 
L 370.891636 86.282922 
L 371.053964 89.121444 
L 371.216291 81.128882 
L 371.378618 90.781519 
L 371.703273 85.825267 
L 371.8656 80.374512 
L 372.027927 110.969108 
L 372.190255 85.378126 
L 372.352582 79.964695 
L 372.514909 80.12615 
L 372.677236 114.933817 
L 372.839564 89.772252 
L 373.001891 86.293675 
L 373.164218 80.214066 
L 373.326545 89.772252 
L 373.488873 85.378126 
L 373.6512 86.293675 
L 373.813527 84.951965 
L 373.975855 84.95114 
L 374.138182 82.650221 
L 374.300509 82.457926 
L 374.462836 85.378126 
L 374.625164 79.835638 
L 374.787491 84.543318 
L 374.949818 81.056059 
L 375.112145 82.056524 
L 375.274473 100.739109 
L 375.4368 85.825267 
L 375.599127 84.418509 
L 375.761455 107.794745 
L 375.923782 84.95114 
L 376.086109 85.378126 
L 376.248436 79.963643 
L 376.410764 83.781797 
L 376.573091 83.307209 
L 376.735418 80.636255 
L 376.897745 86.293675 
L 377.060073 81.282489 
L 377.2224 82.650221 
L 377.384727 88.503201 
L 377.547055 81.865106 
L 377.709382 85.655387 
L 377.871709 79.920337 
L 378.034036 80.243494 
L 378.196364 79.92574 
L 378.358691 80.140648 
L 378.521018 81.524885 
L 378.845673 86.011735 
L 379.008 93.813952 
L 379.170327 80.032441 
L 379.332655 82.336374 
L 379.494982 89.885819 
L 379.819636 82.742491 
L 379.981964 88.054594 
L 380.144291 89.24464 
L 380.468945 94.6168 
L 380.631273 88.634933 
L 380.955927 89.885819 
L 381.118255 86.471647 
L 381.280582 95.150017 
L 381.442909 92.022782 
L 381.605236 109.551502 
L 381.767564 82.483982 
L 381.929891 97.55574 
L 382.092218 92.022782 
L 382.254545 94.543603 
L 382.416873 91.272171 
L 382.5792 91.272171 
L 382.741527 127.84712 
L 382.903855 88.634933 
L 383.066182 87.464691 
L 383.228509 89.203513 
L 383.390836 85.368765 
L 383.553164 88.01629 
L 383.715491 116.370334 
L 383.877818 86.671696 
L 384.040145 85.957854 
L 384.202473 87.373616 
L 384.3648 85.957854 
L 384.527127 88.01629 
L 384.851782 85.957854 
L 385.014109 86.43694 
L 385.176436 85.957854 
L 385.501091 90.560803 
L 385.663418 86.43694 
L 385.825745 85.957854 
L 385.988073 90.560803 
L 386.1504 91.272171 
L 386.312727 93.654773 
L 386.475055 85.677302 
L 386.637382 88.595265 
L 386.799709 83.151198 
L 386.962036 88.054594 
L 387.124364 88.01629 
L 387.286691 82.244966 
L 387.449018 84.762712 
L 387.773673 108.607388 
L 387.936 85.368765 
L 388.098327 82.338987 
L 388.260655 83.30147 
L 388.422982 82.351488 
L 388.585309 83.621249 
L 388.747636 83.402909 
L 388.909964 84.022178 
L 389.072291 83.783042 
L 389.234618 83.945222 
L 389.396945 83.460474 
L 389.559273 84.429406 
L 389.7216 84.429406 
L 389.883927 83.945222 
L 390.046255 85.212665 
L 390.208582 88.450394 
L 390.370909 84.048903 
L 390.533236 86.250621 
L 390.857891 86.683728 
L 391.020218 86.10547 
L 391.182545 89.031167 
L 391.669527 88.981849 
L 391.831855 87.933461 
L 391.994182 83.297262 
L 392.156509 88.981849 
L 392.318836 89.031167 
L 392.481164 86.068702 
L 392.643491 89.031167 
L 393.130473 88.981849 
L 393.2928 83.529603 
L 393.455127 89.031167 
L 393.779782 88.981849 
L 393.942109 87.060988 
L 394.104436 88.955032 
L 394.266764 83.75455 
L 394.429091 88.981849 
L 394.753745 89.031167 
L 394.916073 83.297262 
L 395.0784 89.031167 
L 395.240727 88.955032 
L 395.403055 87.933461 
L 395.565382 83.465559 
L 395.727709 88.450394 
L 395.890036 83.199491 
L 396.052364 87.472551 
L 396.214691 83.199491 
L 396.377018 86.693026 
L 396.539345 83.38321 
L 396.864 86.068702 
L 397.026327 83.199491 
L 397.350982 88.450394 
L 397.675636 83.199491 
L 397.837964 86.693026 
L 398.000291 87.060988 
L 398.162618 83.214956 
L 398.487273 86.67388 
L 398.487273 86.67388 
" clip-path="url(#p7c5f9d90ab)" style="fill: none; stroke: #2ca02c; stroke-width: 1.5; stroke-linecap: square"/>
   </g>
   <g id="patch_3">
    <path d="M 57.6 307.584 
L 57.6 41.472 
" style="fill: none; stroke: #000000; stroke-width: 0.8; stroke-linejoin: miter; stroke-linecap: square"/>
   </g>
   <g id="patch_4">
    <path d="M 414.72 307.584 
L 414.72 41.472 
" style="fill: none; stroke: #000000; stroke-width: 0.8; stroke-linejoin: miter; stroke-linecap: square"/>
   </g>
   <g id="patch_5">
    <path d="M 57.6 307.584 
L 414.72 307.584 
" style="fill: none; stroke: #000000; stroke-width: 0.8; stroke-linejoin: miter; stroke-linecap: square"/>
   </g>
   <g id="patch_6">
    <path d="M 57.6 41.472 
L 414.72 41.472 
" style="fill: none; stroke: #000000; stroke-width: 0.8; stroke-linejoin: miter; stroke-linecap: square"/>
   </g>
  </g>
 </g>
 <defs>
  <clipPath id="p7c5f9d90ab">
   <rect x="57.6" y="41.472" width="357.12" height="266.112"/>
  </clipPath>
 </defs>
</svg>
