<?xml version="1.0" encoding="utf-8" standalone="no"?>
<!DOCTYPE svg PUBLIC "-//W3C//DTD SVG 1.1//EN"
  "http://www.w3.org/Graphics/SVG/1.1/DTD/svg11.dtd">
<svg xmlns:xlink="http://www.w3.org/1999/xlink" width="460.8pt" height="345.6pt" viewBox="0 0 460.8 345.6" xmlns="http://www.w3.org/2000/svg" version="1.1">
 <metadata>
  <rdf:RDF xmlns:dc="http://purl.org/dc/elements/1.1/" xmlns:cc="http://creativecommons.org/ns#" xmlns:rdf="http://www.w3.org/1999/02/22-rdf-syntax-ns#">
   <cc:Work>
    <dc:type rdf:resource="http://purl.org/dc/dcmitype/StillImage"/>
    <dc:date>2024-04-29T17:19:10.064764</dc:date>
    <dc:format>image/svg+xml</dc:format>
    <dc:creator>
     <cc:Agent>
      <dc:title>Matplotlib v3.8.2, https://matplotlib.org/</dc:title>
     </cc:Agent>
    </dc:creator>
   </cc:Work>
  </rdf:RDF>
 </metadata>
 <defs>
  <style type="text/css">*{stroke-linejoin: round; stroke-linecap: butt}</style>
 </defs>
 <g id="figure_1">
  <g id="patch_1">
   <path d="M 0 345.6 
L 460.8 345.6 
L 460.8 0 
L 0 0 
z
" style="fill: #ffffff"/>
  </g>
  <g id="axes_1">
   <g id="patch_2">
    <path d="M 57.6 307.584 
L 414.72 307.584 
L 414.72 41.472 
L 57.6 41.472 
z
" style="fill: #ffffff"/>
   </g>
   <g id="matplotlib.axis_1">
    <g id="xtick_1">
     <g id="line2d_1">
      <defs>
       <path id="m033d0f011c" d="M 0 0 
L 0 3.5 
" style="stroke: #000000; stroke-width: 0.8"/>
      </defs>
      <g>
       <use xlink:href="#m033d0f011c" x="73.832727" y="307.584" style="stroke: #000000; stroke-width: 0.8"/>
      </g>
     </g>
     <g id="text_1">
      <!-- 0 -->
      <g transform="translate(70.651477 322.182437) scale(0.1 -0.1)">
       <defs>
        <path id="DejaVuSans-30" d="M 2034 4250 
Q 1547 4250 1301 3770 
Q 1056 3291 1056 2328 
Q 1056 1369 1301 889 
Q 1547 409 2034 409 
Q 2525 409 2770 889 
Q 3016 1369 3016 2328 
Q 3016 3291 2770 3770 
Q 2525 4250 2034 4250 
z
M 2034 4750 
Q 2819 4750 3233 4129 
Q 3647 3509 3647 2328 
Q 3647 1150 3233 529 
Q 2819 -91 2034 -91 
Q 1250 -91 836 529 
Q 422 1150 422 2328 
Q 422 3509 836 4129 
Q 1250 4750 2034 4750 
z
" transform="scale(0.015625)"/>
       </defs>
       <use xlink:href="#DejaVuSans-30"/>
      </g>
     </g>
    </g>
    <g id="xtick_2">
     <g id="line2d_2">
      <g>
       <use xlink:href="#m033d0f011c" x="138.763636" y="307.584" style="stroke: #000000; stroke-width: 0.8"/>
      </g>
     </g>
     <g id="text_2">
      <!-- 200 -->
      <g transform="translate(129.219886 322.182437) scale(0.1 -0.1)">
       <defs>
        <path id="DejaVuSans-32" d="M 1228 531 
L 3431 531 
L 3431 0 
L 469 0 
L 469 531 
Q 828 903 1448 1529 
Q 2069 2156 2228 2338 
Q 2531 2678 2651 2914 
Q 2772 3150 2772 3378 
Q 2772 3750 2511 3984 
Q 2250 4219 1831 4219 
Q 1534 4219 1204 4116 
Q 875 4013 500 3803 
L 500 4441 
Q 881 4594 1212 4672 
Q 1544 4750 1819 4750 
Q 2544 4750 2975 4387 
Q 3406 4025 3406 3419 
Q 3406 3131 3298 2873 
Q 3191 2616 2906 2266 
Q 2828 2175 2409 1742 
Q 1991 1309 1228 531 
z
" transform="scale(0.015625)"/>
       </defs>
       <use xlink:href="#DejaVuSans-32"/>
       <use xlink:href="#DejaVuSans-30" x="63.623047"/>
       <use xlink:href="#DejaVuSans-30" x="127.246094"/>
      </g>
     </g>
    </g>
    <g id="xtick_3">
     <g id="line2d_3">
      <g>
       <use xlink:href="#m033d0f011c" x="203.694545" y="307.584" style="stroke: #000000; stroke-width: 0.8"/>
      </g>
     </g>
     <g id="text_3">
      <!-- 400 -->
      <g transform="translate(194.150795 322.182437) scale(0.1 -0.1)">
       <defs>
        <path id="DejaVuSans-34" d="M 2419 4116 
L 825 1625 
L 2419 1625 
L 2419 4116 
z
M 2253 4666 
L 3047 4666 
L 3047 1625 
L 3713 1625 
L 3713 1100 
L 3047 1100 
L 3047 0 
L 2419 0 
L 2419 1100 
L 313 1100 
L 313 1709 
L 2253 4666 
z
" transform="scale(0.015625)"/>
       </defs>
       <use xlink:href="#DejaVuSans-34"/>
       <use xlink:href="#DejaVuSans-30" x="63.623047"/>
       <use xlink:href="#DejaVuSans-30" x="127.246094"/>
      </g>
     </g>
    </g>
    <g id="xtick_4">
     <g id="line2d_4">
      <g>
       <use xlink:href="#m033d0f011c" x="268.625455" y="307.584" style="stroke: #000000; stroke-width: 0.8"/>
      </g>
     </g>
     <g id="text_4">
      <!-- 600 -->
      <g transform="translate(259.081705 322.182437) scale(0.1 -0.1)">
       <defs>
        <path id="DejaVuSans-36" d="M 2113 2584 
Q 1688 2584 1439 2293 
Q 1191 2003 1191 1497 
Q 1191 994 1439 701 
Q 1688 409 2113 409 
Q 2538 409 2786 701 
Q 3034 994 3034 1497 
Q 3034 2003 2786 2293 
Q 2538 2584 2113 2584 
z
M 3366 4563 
L 3366 3988 
Q 3128 4100 2886 4159 
Q 2644 4219 2406 4219 
Q 1781 4219 1451 3797 
Q 1122 3375 1075 2522 
Q 1259 2794 1537 2939 
Q 1816 3084 2150 3084 
Q 2853 3084 3261 2657 
Q 3669 2231 3669 1497 
Q 3669 778 3244 343 
Q 2819 -91 2113 -91 
Q 1303 -91 875 529 
Q 447 1150 447 2328 
Q 447 3434 972 4092 
Q 1497 4750 2381 4750 
Q 2619 4750 2861 4703 
Q 3103 4656 3366 4563 
z
" transform="scale(0.015625)"/>
       </defs>
       <use xlink:href="#DejaVuSans-36"/>
       <use xlink:href="#DejaVuSans-30" x="63.623047"/>
       <use xlink:href="#DejaVuSans-30" x="127.246094"/>
      </g>
     </g>
    </g>
    <g id="xtick_5">
     <g id="line2d_5">
      <g>
       <use xlink:href="#m033d0f011c" x="333.556364" y="307.584" style="stroke: #000000; stroke-width: 0.8"/>
      </g>
     </g>
     <g id="text_5">
      <!-- 800 -->
      <g transform="translate(324.012614 322.182437) scale(0.1 -0.1)">
       <defs>
        <path id="DejaVuSans-38" d="M 2034 2216 
Q 1584 2216 1326 1975 
Q 1069 1734 1069 1313 
Q 1069 891 1326 650 
Q 1584 409 2034 409 
Q 2484 409 2743 651 
Q 3003 894 3003 1313 
Q 3003 1734 2745 1975 
Q 2488 2216 2034 2216 
z
M 1403 2484 
Q 997 2584 770 2862 
Q 544 3141 544 3541 
Q 544 4100 942 4425 
Q 1341 4750 2034 4750 
Q 2731 4750 3128 4425 
Q 3525 4100 3525 3541 
Q 3525 3141 3298 2862 
Q 3072 2584 2669 2484 
Q 3125 2378 3379 2068 
Q 3634 1759 3634 1313 
Q 3634 634 3220 271 
Q 2806 -91 2034 -91 
Q 1263 -91 848 271 
Q 434 634 434 1313 
Q 434 1759 690 2068 
Q 947 2378 1403 2484 
z
M 1172 3481 
Q 1172 3119 1398 2916 
Q 1625 2713 2034 2713 
Q 2441 2713 2670 2916 
Q 2900 3119 2900 3481 
Q 2900 3844 2670 4047 
Q 2441 4250 2034 4250 
Q 1625 4250 1398 4047 
Q 1172 3844 1172 3481 
z
" transform="scale(0.015625)"/>
       </defs>
       <use xlink:href="#DejaVuSans-38"/>
       <use xlink:href="#DejaVuSans-30" x="63.623047"/>
       <use xlink:href="#DejaVuSans-30" x="127.246094"/>
      </g>
     </g>
    </g>
    <g id="xtick_6">
     <g id="line2d_6">
      <g>
       <use xlink:href="#m033d0f011c" x="398.487273" y="307.584" style="stroke: #000000; stroke-width: 0.8"/>
      </g>
     </g>
     <g id="text_6">
      <!-- 1000 -->
      <g transform="translate(385.762273 322.182437) scale(0.1 -0.1)">
       <defs>
        <path id="DejaVuSans-31" d="M 794 531 
L 1825 531 
L 1825 4091 
L 703 3866 
L 703 4441 
L 1819 4666 
L 2450 4666 
L 2450 531 
L 3481 531 
L 3481 0 
L 794 0 
L 794 531 
z
" transform="scale(0.015625)"/>
       </defs>
       <use xlink:href="#DejaVuSans-31"/>
       <use xlink:href="#DejaVuSans-30" x="63.623047"/>
       <use xlink:href="#DejaVuSans-30" x="127.246094"/>
       <use xlink:href="#DejaVuSans-30" x="190.869141"/>
      </g>
     </g>
    </g>
   </g>
   <g id="matplotlib.axis_2">
    <g id="ytick_1">
     <g id="line2d_7">
      <defs>
       <path id="m41345b6ba9" d="M 0 0 
L -3.5 0 
" style="stroke: #000000; stroke-width: 0.8"/>
      </defs>
      <g>
       <use xlink:href="#m41345b6ba9" x="57.6" y="275.272752" style="stroke: #000000; stroke-width: 0.8"/>
      </g>
     </g>
     <g id="text_7">
      <!-- −150 -->
      <g transform="translate(23.132812 279.071971) scale(0.1 -0.1)">
       <defs>
        <path id="DejaVuSans-2212" d="M 678 2272 
L 4684 2272 
L 4684 1741 
L 678 1741 
L 678 2272 
z
" transform="scale(0.015625)"/>
        <path id="DejaVuSans-35" d="M 691 4666 
L 3169 4666 
L 3169 4134 
L 1269 4134 
L 1269 2991 
Q 1406 3038 1543 3061 
Q 1681 3084 1819 3084 
Q 2600 3084 3056 2656 
Q 3513 2228 3513 1497 
Q 3513 744 3044 326 
Q 2575 -91 1722 -91 
Q 1428 -91 1123 -41 
Q 819 9 494 109 
L 494 744 
Q 775 591 1075 516 
Q 1375 441 1709 441 
Q 2250 441 2565 725 
Q 2881 1009 2881 1497 
Q 2881 1984 2565 2268 
Q 2250 2553 1709 2553 
Q 1456 2553 1204 2497 
Q 953 2441 691 2322 
L 691 4666 
z
" transform="scale(0.015625)"/>
       </defs>
       <use xlink:href="#DejaVuSans-2212"/>
       <use xlink:href="#DejaVuSans-31" x="83.789062"/>
       <use xlink:href="#DejaVuSans-35" x="147.412109"/>
       <use xlink:href="#DejaVuSans-30" x="211.035156"/>
      </g>
     </g>
    </g>
    <g id="ytick_2">
     <g id="line2d_8">
      <g>
       <use xlink:href="#m41345b6ba9" x="57.6" y="242.928663" style="stroke: #000000; stroke-width: 0.8"/>
      </g>
     </g>
     <g id="text_8">
      <!-- −125 -->
      <g transform="translate(23.132812 246.727881) scale(0.1 -0.1)">
       <use xlink:href="#DejaVuSans-2212"/>
       <use xlink:href="#DejaVuSans-31" x="83.789062"/>
       <use xlink:href="#DejaVuSans-32" x="147.412109"/>
       <use xlink:href="#DejaVuSans-35" x="211.035156"/>
      </g>
     </g>
    </g>
    <g id="ytick_3">
     <g id="line2d_9">
      <g>
       <use xlink:href="#m41345b6ba9" x="57.6" y="210.584573" style="stroke: #000000; stroke-width: 0.8"/>
      </g>
     </g>
     <g id="text_9">
      <!-- −100 -->
      <g transform="translate(23.132812 214.383791) scale(0.1 -0.1)">
       <use xlink:href="#DejaVuSans-2212"/>
       <use xlink:href="#DejaVuSans-31" x="83.789062"/>
       <use xlink:href="#DejaVuSans-30" x="147.412109"/>
       <use xlink:href="#DejaVuSans-30" x="211.035156"/>
      </g>
     </g>
    </g>
    <g id="ytick_4">
     <g id="line2d_10">
      <g>
       <use xlink:href="#m41345b6ba9" x="57.6" y="178.240483" style="stroke: #000000; stroke-width: 0.8"/>
      </g>
     </g>
     <g id="text_10">
      <!-- −75 -->
      <g transform="translate(29.495313 182.039701) scale(0.1 -0.1)">
       <defs>
        <path id="DejaVuSans-37" d="M 525 4666 
L 3525 4666 
L 3525 4397 
L 1831 0 
L 1172 0 
L 2766 4134 
L 525 4134 
L 525 4666 
z
" transform="scale(0.015625)"/>
       </defs>
       <use xlink:href="#DejaVuSans-2212"/>
       <use xlink:href="#DejaVuSans-37" x="83.789062"/>
       <use xlink:href="#DejaVuSans-35" x="147.412109"/>
      </g>
     </g>
    </g>
    <g id="ytick_5">
     <g id="line2d_11">
      <g>
       <use xlink:href="#m41345b6ba9" x="57.6" y="145.896393" style="stroke: #000000; stroke-width: 0.8"/>
      </g>
     </g>
     <g id="text_11">
      <!-- −50 -->
      <g transform="translate(29.495313 149.695611) scale(0.1 -0.1)">
       <use xlink:href="#DejaVuSans-2212"/>
       <use xlink:href="#DejaVuSans-35" x="83.789062"/>
       <use xlink:href="#DejaVuSans-30" x="147.412109"/>
      </g>
     </g>
    </g>
    <g id="ytick_6">
     <g id="line2d_12">
      <g>
       <use xlink:href="#m41345b6ba9" x="57.6" y="113.552303" style="stroke: #000000; stroke-width: 0.8"/>
      </g>
     </g>
     <g id="text_12">
      <!-- −25 -->
      <g transform="translate(29.495313 117.351521) scale(0.1 -0.1)">
       <use xlink:href="#DejaVuSans-2212"/>
       <use xlink:href="#DejaVuSans-32" x="83.789062"/>
       <use xlink:href="#DejaVuSans-35" x="147.412109"/>
      </g>
     </g>
    </g>
    <g id="ytick_7">
     <g id="line2d_13">
      <g>
       <use xlink:href="#m41345b6ba9" x="57.6" y="81.208213" style="stroke: #000000; stroke-width: 0.8"/>
      </g>
     </g>
     <g id="text_13">
      <!-- 0 -->
      <g transform="translate(44.2375 85.007431) scale(0.1 -0.1)">
       <use xlink:href="#DejaVuSans-30"/>
      </g>
     </g>
    </g>
    <g id="ytick_8">
     <g id="line2d_14">
      <g>
       <use xlink:href="#m41345b6ba9" x="57.6" y="48.864123" style="stroke: #000000; stroke-width: 0.8"/>
      </g>
     </g>
     <g id="text_14">
      <!-- 25 -->
      <g transform="translate(37.875 52.663341) scale(0.1 -0.1)">
       <use xlink:href="#DejaVuSans-32"/>
       <use xlink:href="#DejaVuSans-35" x="63.623047"/>
      </g>
     </g>
    </g>
   </g>
   <g id="line2d_15">
    <path d="M 73.832727 81.120795 
" clip-path="url(#p0f5f09678c)" style="fill: none; stroke: #1f77b4; stroke-width: 1.5; stroke-linecap: square"/>
   </g>
   <g id="line2d_16">
    <path d="M 73.832727 81.120795 
L 74.157382 78.73138 
L 74.482036 77.940532 
L 74.806691 80.776794 
L 75.131345 80.29783 
L 75.456 62.064825 
L 75.780655 78.574352 
L 76.105309 80.804687 
L 76.429964 77.986424 
L 77.079273 76.072248 
L 77.403927 73.627029 
L 77.728582 75.230212 
L 78.053236 79.279885 
L 78.702545 53.568 
L 79.0272 80.804687 
L 79.351855 73.204851 
L 79.676509 79.66332 
L 80.001164 82.759475 
L 80.325818 108.942739 
L 80.975127 67.134197 
L 81.299782 82.365574 
L 81.624436 68.974037 
L 81.949091 76.548635 
L 82.273745 123.228729 
L 82.5984 93.399423 
L 82.923055 79.148881 
L 83.247709 70.518615 
L 83.572364 70.693477 
L 83.897018 116.513971 
L 84.221673 81.914207 
L 84.546327 71.951778 
L 84.870982 69.889762 
L 85.195636 78.996501 
L 85.520291 79.947008 
L 85.844945 110.514943 
L 86.1696 80.194508 
L 86.494255 81.208213 
L 86.818909 81.08944 
L 87.143564 80.587923 
L 87.468218 80.731322 
L 87.792873 73.991986 
L 88.117527 83.480009 
L 88.442182 81.208213 
L 88.766836 92.148164 
L 89.091491 81.052059 
L 89.416145 78.520694 
L 89.7408 68.634057 
L 90.065455 92.662899 
L 90.390109 82.238976 
L 90.714764 81.208213 
L 91.039418 81.208213 
L 91.364073 91.576199 
L 91.688727 81.208213 
L 92.013382 80.32266 
L 92.338036 81.615504 
L 92.662691 81.208213 
L 93.312 81.208213 
L 93.636655 77.510463 
L 93.961309 63.840037 
L 94.610618 81.208213 
L 94.935273 81.208213 
L 95.259927 79.231016 
L 95.584582 74.736552 
L 95.909236 74.787809 
L 96.233891 75.804 
L 96.558545 78.503877 
L 96.8832 84.493125 
L 97.207855 97.86001 
L 97.532509 105.818936 
L 98.181818 81.208213 
L 98.506473 98.044482 
L 98.831127 81.615504 
L 99.155782 81.208213 
L 99.805091 81.208213 
L 100.129745 85.893687 
L 100.4544 108.322144 
L 100.779055 221.684978 
L 101.103709 89.374757 
L 101.428364 165.230457 
L 101.753018 113.784947 
L 102.077673 96.060989 
L 102.402327 98.044482 
L 102.726982 119.39976 
L 103.051636 150.134011 
L 103.376291 85.076865 
L 103.700945 88.957257 
L 104.0256 81.043689 
L 104.350255 98.044482 
L 104.674909 79.818907 
L 104.999564 99.266901 
L 105.324218 150.14555 
L 105.648873 80.09024 
L 106.298182 97.909479 
L 106.947491 81.208213 
L 107.272145 81.208213 
L 107.5968 153.819265 
L 107.921455 88.971727 
L 108.246109 81.208213 
L 108.570764 81.208213 
L 108.895418 82.928823 
L 109.220073 80.729512 
L 109.544727 92.045628 
L 109.869382 76.707012 
L 110.194036 117.452001 
L 110.518691 81.208213 
L 110.843345 86.115294 
L 111.168 81.208213 
L 111.492655 126.192122 
L 111.817309 76.573051 
L 112.141964 81.208213 
L 112.466618 80.198749 
L 112.791273 118.896982 
L 113.115927 118.896982 
L 113.440582 119.873785 
L 113.765236 81.176404 
L 114.7392 81.208213 
L 115.063855 118.782573 
L 115.388509 81.208213 
L 115.713164 81.043689 
L 116.037818 94.410679 
L 116.362473 81.155089 
L 116.687127 159.64167 
L 117.011782 80.037143 
L 117.336436 111.78772 
L 117.661091 120.093456 
L 117.985745 85.582373 
L 118.3104 88.802346 
L 118.635055 81.155089 
L 118.959709 81.208213 
L 119.609018 150.262891 
L 119.933673 74.398116 
L 120.258327 81.208213 
L 120.582982 81.208213 
L 120.907636 80.139573 
L 121.232291 91.469124 
L 121.556945 81.208213 
L 121.8816 81.173622 
L 122.206255 118.896982 
L 122.530909 81.208213 
L 122.855564 77.845443 
L 123.180218 81.208213 
L 123.504873 81.257534 
L 123.829527 81.155089 
L 124.154182 78.815297 
L 124.478836 81.208213 
L 124.803491 81.208213 
L 125.128145 81.043689 
L 125.4528 81.208213 
L 126.102109 75.972767 
L 126.426764 91.434018 
L 126.751418 89.202571 
L 127.076073 81.208213 
L 128.050036 81.208213 
L 128.374691 81.043689 
L 128.699345 81.257534 
L 129.348655 81.155089 
L 129.673309 75.972767 
L 129.997964 81.260047 
L 130.322618 81.472851 
L 130.647273 84.607866 
L 130.971927 79.818907 
L 131.296582 89.202571 
L 131.621236 81.208213 
L 131.945891 82.602863 
L 132.270545 81.155089 
L 132.919855 81.176404 
L 133.244509 76.089497 
L 133.569164 79.394711 
L 133.893818 76.688861 
L 134.218473 81.260047 
L 134.867782 81.208213 
L 135.517091 81.208213 
L 135.841745 80.63978 
L 136.1664 71.7236 
L 136.491055 85.245977 
L 136.815709 84.960307 
L 137.140364 86.052446 
L 137.465018 81.208213 
L 137.789673 81.472851 
L 138.114327 92.015158 
L 138.438982 81.501045 
L 138.763636 81.208213 
L 139.7376 81.257534 
L 140.062255 75.972767 
L 140.386909 81.208213 
L 140.711564 81.208213 
L 141.360873 78.576617 
L 141.685527 75.197085 
L 142.010182 80.1534 
L 142.334836 87.121211 
L 142.659491 85.924168 
L 142.984145 85.587207 
L 143.3088 78.815297 
L 143.633455 83.130585 
L 143.958109 81.208213 
L 144.282764 81.208213 
L 144.607418 86.968012 
L 144.932073 81.199839 
L 145.581382 81.208213 
L 145.906036 85.023759 
L 146.230691 91.662626 
L 146.555345 82.51628 
L 146.88 81.407789 
L 147.204655 81.208213 
L 147.529309 81.208213 
L 147.853964 80.614341 
L 148.178618 81.208213 
L 148.503273 81.208213 
L 148.827927 76.373871 
L 149.152582 77.32423 
L 149.477236 76.227435 
L 149.801891 85.587207 
L 150.126545 75.641847 
L 150.4512 76.227435 
L 151.100509 86.348872 
L 151.425164 82.82922 
L 151.749818 83.292592 
L 152.074473 112.547848 
L 152.399127 84.288752 
L 152.723782 79.665631 
L 153.048436 111.948164 
L 153.373091 78.968712 
L 153.697745 85.846403 
L 154.0224 81.208213 
L 154.347055 78.755948 
L 154.671709 91.898177 
L 154.996364 78.727266 
L 155.321018 72.961844 
L 155.645673 71.62218 
L 155.970327 73.115892 
L 156.619636 177.229411 
L 156.944291 81.383575 
L 157.268945 158.856918 
L 157.5936 114.245268 
L 157.918255 102.97764 
L 158.242909 66.284832 
L 158.567564 167.32701 
L 158.892218 177.150306 
L 159.216873 160.24488 
L 159.541527 125.768436 
L 159.866182 129.455673 
L 160.515491 73.343687 
L 160.840145 81.208213 
L 161.1648 143.206061 
L 161.489455 162.183336 
L 161.814109 134.15123 
L 162.138764 286.293562 
L 162.463418 103.962674 
L 162.788073 92.779101 
L 163.112727 90.412481 
L 163.437382 100.704387 
L 163.762036 97.389169 
L 164.086691 202.0667 
L 164.411345 104.427318 
L 164.736 178.024387 
L 165.060655 82.712808 
L 165.385309 102.258 
L 165.709964 90.292053 
L 166.034618 134.800162 
L 166.359273 88.014739 
L 166.683927 93.920195 
L 167.008582 107.543079 
L 167.333236 106.260251 
L 167.657891 89.222362 
L 167.982545 117.680844 
L 168.3072 101.377707 
L 168.631855 91.270069 
L 168.956509 86.959503 
L 169.281164 106.156809 
L 169.605818 84.070295 
L 169.930473 103.957155 
L 170.255127 88.517406 
L 170.579782 164.507092 
L 170.904436 97.389169 
L 171.229091 94.703797 
L 171.8784 101.485478 
L 172.203055 89.675867 
L 172.527709 139.624618 
L 172.852364 105.633714 
L 173.177018 99.981395 
L 173.501673 89.465678 
L 173.826327 83.472976 
L 174.150982 119.897162 
L 174.475636 85.860599 
L 174.800291 104.010655 
L 175.124945 88.981849 
L 175.774255 76.215107 
L 176.423564 104.861133 
L 176.748218 98.20429 
L 177.072873 82.807845 
L 177.397527 180.605149 
L 177.722182 82.942127 
L 178.046836 116.187385 
L 178.371491 113.874001 
L 178.696145 102.400532 
L 179.0208 82.613859 
L 179.670109 97.881909 
L 179.994764 119.068822 
L 180.644073 96.028137 
L 180.968727 102.852148 
L 181.293382 92.826805 
L 181.618036 91.587332 
L 181.942691 94.576082 
L 182.267345 180.605149 
L 182.592 109.365978 
L 182.916655 89.241473 
L 183.241309 121.537292 
L 183.565964 93.488976 
L 183.890618 89.893837 
L 184.215273 101.377707 
L 184.539927 82.794418 
L 184.864582 90.11963 
L 185.189236 91.847688 
L 185.513891 89.521588 
L 185.838545 85.342803 
L 186.1632 234.510255 
L 186.487855 110.081997 
L 186.812509 89.766986 
L 187.137164 165.667615 
L 187.786473 85.117982 
L 188.111127 94.356863 
L 188.435782 89.031167 
L 188.760436 106.311656 
L 189.085091 184.95899 
L 189.409745 147.560412 
L 189.7344 89.905416 
L 190.059055 94.041688 
L 190.383709 139.827578 
L 190.708364 89.715128 
L 191.033018 104.01781 
L 191.357673 175.186239 
L 191.682327 103.173693 
L 192.006982 93.920195 
L 192.331636 113.38334 
L 192.656291 94.939692 
L 192.980945 115.37849 
L 193.3056 89.794734 
L 193.630255 94.041688 
L 193.954909 157.20262 
L 194.279564 181.883307 
L 194.604218 89.247039 
L 194.928873 100.814285 
L 195.253527 179.997846 
L 195.578182 98.738709 
L 195.902836 88.955032 
L 196.227491 90.174373 
L 196.552145 180.605149 
L 196.8768 99.669979 
L 197.201455 102.327252 
L 197.526109 181.883307 
L 197.850764 82.965313 
L 198.175418 91.065104 
L 198.500073 90.324275 
L 198.824727 180.605149 
L 199.149382 92.157315 
L 199.474036 94.071114 
L 199.798691 101.39748 
L 200.123345 90.174373 
L 200.448 106.092643 
L 200.772655 101.535421 
L 201.097309 89.055786 
L 201.421964 135.039833 
L 201.746618 90.567893 
L 202.071273 91.10553 
L 202.395927 107.239877 
L 202.720582 97.385722 
L 203.045236 91.184331 
L 203.369891 81.704915 
L 203.694545 89.59961 
L 204.0192 123.094702 
L 204.343855 84.707588 
L 204.668509 103.753266 
L 204.993164 101.79526 
L 205.317818 100.620092 
L 205.642473 89.031167 
L 205.967127 100.620092 
L 206.291782 90.162454 
L 206.616436 84.142084 
L 206.941091 104.057373 
L 207.265745 90.081436 
L 207.5904 182.312316 
L 207.915055 90.505091 
L 208.239709 94.834206 
L 208.564364 147.102482 
L 208.889018 101.050056 
L 209.862982 81.208213 
L 210.187636 129.741553 
L 210.512291 90.205371 
L 210.836945 106.065574 
L 211.1616 90.689474 
L 211.486255 135.039833 
L 211.810909 89.774163 
L 212.135564 94.585557 
L 212.460218 91.645337 
L 212.784873 98.568241 
L 213.109527 83.406277 
L 213.434182 84.536727 
L 213.758836 91.788814 
L 214.083491 114.824413 
L 214.408145 208.228148 
L 214.7328 89.362458 
L 215.057455 173.044771 
L 215.382109 83.660814 
L 215.706764 143.083192 
L 216.031418 97.117513 
L 216.356073 81.907112 
L 217.005382 106.029159 
L 217.330036 113.175002 
L 217.654691 91.84281 
L 217.979345 98.605381 
L 218.304 89.817753 
L 218.628655 85.617925 
L 218.953309 92.275622 
L 219.602618 90.297085 
L 219.927273 90.449378 
L 220.251927 116.102428 
L 220.576582 179.634187 
L 220.901236 93.861879 
L 221.225891 88.956208 
L 221.550545 180.605149 
L 221.8752 92.389702 
L 222.199855 98.794935 
L 222.524509 91.184331 
L 222.849164 90.412481 
L 223.173818 94.071114 
L 223.498473 89.794734 
L 223.823127 100.469052 
L 224.147782 120.17046 
L 224.472436 88.266435 
L 224.797091 90.171584 
L 225.121745 165.773614 
L 225.4464 96.976177 
L 225.771055 91.110258 
L 226.095709 89.898694 
L 226.420364 150.282275 
L 226.745018 94.571024 
L 227.069673 95.470107 
L 227.394327 102.348221 
L 227.718982 76.258906 
L 228.043636 90.297085 
L 228.368291 88.981849 
L 228.692945 94.041688 
L 229.0176 89.055786 
L 229.342255 90.449378 
L 229.991564 91.269679 
L 230.316218 93.3901 
L 230.640873 83.100506 
L 230.965527 127.403265 
L 231.290182 89.270842 
L 231.614836 88.955032 
L 231.939491 94.041688 
L 232.264145 91.10553 
L 232.5888 90.808319 
L 232.913455 89.478808 
L 233.238109 107.448717 
L 233.562764 90.297085 
L 233.887418 91.10553 
L 234.212073 90.689474 
L 234.536727 98.568241 
L 234.861382 100.712635 
L 235.186036 90.171584 
L 235.510691 90.11963 
L 235.835345 173.089316 
L 236.16 104.317479 
L 236.484655 116.311384 
L 236.809309 90.449378 
L 237.133964 94.041688 
L 237.458618 89.270842 
L 237.783273 103.230092 
L 238.107927 89.905416 
L 238.432582 102.177447 
L 238.757236 94.410459 
L 239.081891 105.051358 
L 239.406545 88.955032 
L 239.7312 99.715826 
L 240.055855 94.041688 
L 240.380509 98.00999 
L 240.705164 90.089037 
L 241.029818 92.389702 
L 241.354473 89.007323 
L 241.679127 98.00999 
L 242.003782 115.878975 
L 242.328436 110.910926 
L 242.653091 94.071114 
L 242.977745 90.174373 
L 243.3024 90.089037 
L 243.627055 116.050449 
L 243.951709 94.410459 
L 244.276364 91.894712 
L 244.601018 94.991963 
L 244.925673 90.651545 
L 245.250327 91.587332 
L 245.574982 93.861879 
L 245.899636 89.270842 
L 246.224291 175.186239 
L 246.548945 92.131858 
L 246.8736 88.981849 
L 247.198255 92.063025 
L 247.522909 179.634187 
L 247.847564 104.010655 
L 248.172218 90.11963 
L 248.496873 89.270842 
L 248.821527 99.901808 
L 249.146182 90.11963 
L 249.470836 113.880454 
L 249.795491 91.10553 
L 250.120145 91.858695 
L 250.4448 89.031167 
L 250.769455 88.981849 
L 251.094109 90.292053 
L 251.418764 74.084562 
L 251.743418 89.478808 
L 252.068073 164.794843 
L 252.392727 94.236313 
L 252.717382 103.960359 
L 253.042036 90.449378 
L 253.366691 88.981849 
L 253.691345 90.089037 
L 254.016 120.333741 
L 254.340655 139.417015 
L 254.665309 89.465678 
L 254.989964 90.449378 
L 255.314618 86.005306 
L 255.639273 96.028137 
L 255.963927 89.247039 
L 256.288582 92.779101 
L 256.613236 89.055786 
L 256.937891 89.007323 
L 257.262545 116.102428 
L 257.5872 89.905416 
L 257.911855 93.920195 
L 258.236509 93.571394 
L 258.561164 94.041688 
L 258.885818 175.186239 
L 259.210473 141.172295 
L 259.535127 90.11963 
L 259.859782 90.412481 
L 260.184436 84.546701 
L 260.509091 90.412481 
L 260.833745 94.071114 
L 261.1584 94.410459 
L 261.483055 90.808319 
L 261.807709 100.712635 
L 262.132364 88.981849 
L 262.457018 94.174829 
L 262.781673 88.955032 
L 263.106327 93.571394 
L 263.430982 117.925354 
L 263.755636 180.605149 
L 264.080291 91.184331 
L 264.404945 113.321941 
L 264.7296 93.571394 
L 265.054255 89.247039 
L 265.378909 89.471886 
L 265.703564 90.689474 
L 266.028218 98.632586 
L 266.352873 110.935346 
L 266.677527 89.055786 
L 267.002182 90.089037 
L 267.326836 88.981849 
L 267.651491 175.186239 
L 267.976145 101.58588 
L 268.625455 88.981849 
L 268.950109 89.055786 
L 269.274764 98.632586 
L 269.924073 88.955032 
L 270.248727 88.981849 
L 270.573382 146.807898 
L 271.222691 90.11963 
L 271.547345 114.466221 
L 271.872 89.247039 
L 272.196655 89.478808 
L 272.521309 93.571394 
L 272.845964 90.11963 
L 273.170618 93.920195 
L 273.495273 84.321143 
L 273.819927 89.055786 
L 274.144582 90.11963 
L 274.469236 93.783459 
L 274.793891 100.31246 
L 275.118545 90.297085 
L 275.4432 90.11963 
L 276.092509 90.449378 
L 276.417164 83.856538 
L 276.741818 91.587332 
L 277.066473 90.297085 
L 277.715782 159.205037 
L 278.040436 100.368841 
L 278.365091 98.862494 
L 279.0144 159.863522 
L 279.339055 112.879681 
L 279.663709 144.390932 
L 279.988364 161.062133 
L 280.313018 191.941857 
L 280.637673 151.993905 
L 280.962327 193.999635 
L 281.286982 184.99792 
L 281.611636 164.027494 
L 281.936291 122.251544 
L 282.260945 220.881631 
L 282.5856 141.50048 
L 282.910255 161.5512 
L 283.234909 258.873751 
L 283.559564 138.956028 
L 283.884218 131.116161 
L 284.208873 142.249321 
L 284.533527 162.722214 
L 284.858182 295.488 
L 285.182836 181.409581 
L 285.507491 106.710103 
L 285.832145 197.676566 
L 286.1568 72.986511 
L 286.481455 218.557665 
L 286.806109 119.061282 
L 287.130764 198.669547 
L 287.455418 102.284947 
L 288.104727 272.317258 
L 288.429382 102.863266 
L 288.754036 191.73078 
L 289.078691 159.721838 
L 289.403345 138.821146 
L 289.728 246.139019 
L 290.052655 152.468388 
L 290.377309 129.556654 
L 290.701964 198.725405 
L 291.026618 132.605446 
L 291.351273 99.981395 
L 291.675927 183.841621 
L 292.000582 146.118785 
L 292.649891 106.710103 
L 292.974545 103.616964 
L 293.2992 98.396737 
L 293.623855 204.353875 
L 293.948509 240.744773 
L 294.273164 196.76689 
L 294.597818 113.904357 
L 294.922473 123.189704 
L 295.247127 123.405686 
L 295.571782 159.721838 
L 295.896436 163.610383 
L 296.545745 222.019223 
L 296.8704 157.060117 
L 297.195055 177.678684 
L 297.519709 209.917662 
L 297.844364 162.293225 
L 298.169018 91.860349 
L 298.493673 113.917614 
L 298.818327 104.72596 
L 299.142982 179.997846 
L 299.467636 101.079852 
L 299.792291 106.410915 
L 300.116945 179.997846 
L 300.4416 93.035125 
L 300.766255 89.349416 
L 301.090909 96.053535 
L 301.415564 132.605446 
L 301.740218 94.124366 
L 302.064873 179.246937 
L 302.389527 98.00999 
L 302.714182 134.690296 
L 303.038836 109.131546 
L 303.363491 163.403001 
L 303.688145 101.90068 
L 304.0128 160.271572 
L 304.337455 162.362416 
L 304.986764 72.735247 
L 305.311418 99.901808 
L 305.636073 99.288917 
L 305.960727 88.956208 
L 306.285382 133.638568 
L 306.610036 99.907855 
L 306.934691 179.997846 
L 307.259345 105.86256 
L 307.584 185.786837 
L 307.908655 116.086277 
L 308.233309 116.102428 
L 308.557964 136.857472 
L 308.882618 116.102428 
L 309.207273 145.165489 
L 309.856582 180.605149 
L 310.181236 167.237387 
L 310.830545 131.224362 
L 311.1552 98.632586 
L 311.479855 101.485478 
L 311.804509 190.102183 
L 312.129164 181.648087 
L 312.453818 151.043833 
L 312.778473 97.500399 
L 313.103127 161.669585 
L 313.427782 177.417623 
L 313.752436 92.389702 
L 314.077091 220.830607 
L 314.401745 99.744917 
L 314.7264 180.605149 
L 315.051055 98.44347 
L 315.375709 130.910844 
L 315.700364 132.605446 
L 316.349673 198.3993 
L 316.674327 167.960519 
L 316.998982 162.362416 
L 317.323636 292.168953 
L 317.648291 144.6705 
L 317.972945 166.208244 
L 318.2976 275.291362 
L 318.622255 192.433512 
L 318.946909 197.177239 
L 319.271564 220.076276 
L 319.596218 99.085662 
L 319.920873 197.604862 
L 320.245527 157.62414 
L 320.570182 159.509113 
L 320.894836 210.725702 
L 321.219491 241.246094 
L 321.544145 214.315544 
L 321.8688 223.86006 
L 322.193455 213.134851 
L 322.518109 242.750253 
L 322.842764 98.515442 
L 323.167418 141.795781 
L 323.492073 211.594007 
L 323.816727 250.932773 
L 324.141382 203.552528 
L 324.466036 210.607169 
L 324.790691 183.841621 
L 325.115345 201.655636 
L 325.44 99.040903 
L 325.764655 117.959006 
L 326.089309 185.438164 
L 326.413964 114.82543 
L 326.738618 193.712419 
L 327.063273 184.473537 
L 327.387927 152.131861 
L 327.712582 179.011761 
L 328.037236 181.337086 
L 328.361891 176.741515 
L 328.686545 69.694733 
L 329.0112 104.436472 
L 329.335855 112.342567 
L 329.660509 107.427714 
L 329.985164 201.881288 
L 330.309818 203.46019 
L 330.634473 210.325417 
L 330.959127 180.605149 
L 331.283782 185.338456 
L 331.608436 99.901808 
L 331.933091 217.148281 
L 332.257745 177.678684 
L 332.5824 97.525675 
L 332.907055 180.605149 
L 333.231709 201.532307 
L 333.556364 179.634187 
L 333.881018 117.374733 
L 334.205673 98.632586 
L 334.530327 101.377707 
L 334.854982 121.845916 
L 335.179636 114.82543 
L 335.504291 179.997846 
L 335.828945 93.920195 
L 336.1536 109.899982 
L 336.478255 91.184331 
L 336.802909 103.957155 
L 337.127564 152.92004 
L 337.452218 102.370072 
L 337.776873 161.669585 
L 338.101527 176.428707 
L 338.426182 130.116609 
L 338.750836 179.997846 
L 339.075491 92.389702 
L 340.049455 141.795781 
L 340.374109 99.901808 
L 340.698764 115.878975 
L 341.023418 94.991963 
L 341.348073 180.605149 
L 341.672727 99.901808 
L 341.997382 120.235981 
L 342.646691 88.955032 
L 342.971345 92.372499 
L 343.296 99.901808 
L 343.620655 103.022347 
L 343.945309 89.055786 
L 344.269964 116.234302 
L 344.594618 180.605149 
L 344.919273 93.571394 
L 345.243927 90.089037 
L 345.568582 91.847688 
L 345.893236 88.955032 
L 346.217891 88.981849 
L 346.542545 105.86256 
L 346.8672 115.878975 
L 347.191855 88.955032 
L 347.516509 90.449378 
L 347.841164 89.055786 
L 348.165818 103.385591 
L 348.490473 90.11963 
L 348.815127 179.997846 
L 349.139782 120.941957 
L 349.464436 100.620092 
L 349.789091 99.901808 
L 350.4384 215.380778 
L 350.763055 98.632586 
L 351.087709 109.248179 
L 351.412364 116.102428 
L 351.737018 130.910844 
L 352.061673 113.321941 
L 352.386327 180.605149 
L 352.710982 89.362458 
L 353.035636 132.905517 
L 353.360291 138.837318 
L 354.0096 215.380778 
L 354.658909 116.18027 
L 354.983564 146.769303 
L 355.308218 215.380778 
L 355.632873 93.410299 
L 355.957527 124.804651 
L 356.282182 110.935346 
L 356.606836 157.324119 
L 356.931491 99.288917 
L 357.256145 129.558266 
L 357.5808 148.353797 
L 357.905455 124.908852 
L 358.230109 133.903834 
L 358.554764 162.898613 
L 358.879418 109.248179 
L 359.204073 223.056711 
L 359.528727 96.26186 
L 359.853382 173.669224 
L 360.178036 174.185432 
L 360.502691 178.809021 
L 360.827345 159.133686 
L 361.152 124.194533 
L 361.476655 163.289951 
L 361.801309 167.281659 
L 362.125964 163.403001 
L 362.450618 166.954477 
L 362.775273 167.281659 
L 363.099927 177.678684 
L 363.424582 198.430536 
L 363.749236 184.573943 
L 364.073891 198.725405 
L 364.398545 161.4569 
L 364.7232 193.327401 
L 365.047855 185.460067 
L 365.372509 166.999133 
L 365.697164 166.999133 
L 366.021818 167.237387 
L 366.346473 201.515259 
L 366.671127 184.99792 
L 366.995782 158.83789 
L 367.320436 104.43265 
L 367.645091 251.132641 
L 367.969745 192.716463 
L 368.2944 181.040951 
L 368.619055 177.678684 
L 368.943709 166.954477 
L 369.268364 135.582406 
L 369.593018 135.582406 
L 369.917673 167.606524 
L 370.242327 176.678772 
L 370.566982 167.237387 
L 370.891636 180.948035 
L 371.216291 159.863522 
L 371.540945 167.281659 
L 371.8656 145.861078 
L 372.190255 181.020126 
L 372.514909 163.495335 
L 372.839564 168.08292 
L 373.164218 157.62414 
L 373.488873 99.744917 
L 373.813527 168.08292 
L 374.138182 181.165259 
L 374.462836 176.370776 
L 374.787491 145.056637 
L 375.112145 168.08292 
L 375.4368 177.669041 
L 375.761455 166.999133 
L 376.086109 167.281659 
L 376.410764 168.08292 
L 376.735418 270.890899 
L 377.060073 176.384165 
L 377.384727 163.184907 
L 377.709382 183.447946 
L 378.034036 165.149471 
L 378.358691 166.954477 
L 378.683345 159.606793 
L 379.008 192.387416 
L 379.332655 191.853219 
L 379.657309 167.455596 
L 379.981964 167.237387 
L 380.306618 177.678684 
L 380.631273 167.237387 
L 380.955927 173.823026 
L 381.280582 257.504988 
L 381.605236 184.202025 
L 381.929891 176.530632 
L 382.254545 198.725405 
L 382.5792 174.42522 
L 382.903855 175.589961 
L 383.228509 177.678684 
L 383.553164 210.733701 
L 383.877818 176.384165 
L 384.202473 176.827231 
L 384.527127 192.387416 
L 384.851782 189.487975 
L 385.176436 124.632572 
L 385.501091 174.025654 
L 385.825745 184.99792 
L 386.1504 167.281659 
L 386.475055 189.365929 
L 386.799709 178.29663 
L 387.124364 184.573943 
L 387.449018 176.658964 
L 387.773673 210.663237 
L 388.098327 146.118785 
L 388.422982 158.196476 
L 388.747636 176.435263 
L 389.072291 176.614957 
L 389.396945 177.678684 
L 389.7216 189.292278 
L 390.046255 166.954477 
L 390.370909 190.102183 
L 390.695564 145.861078 
L 391.020218 214.302956 
L 391.344873 176.658964 
L 391.669527 174.264071 
L 391.994182 176.390355 
L 392.318836 164.373915 
L 392.643491 118.107386 
L 392.968145 158.83789 
L 393.2928 184.4842 
L 393.617455 166.954477 
L 393.942109 138.978939 
L 394.266764 197.061506 
L 394.591418 195.81807 
L 394.916073 178.299858 
L 395.240727 184.468326 
L 395.565382 173.73209 
L 395.890036 90.27573 
L 396.214691 210.798627 
L 396.539345 167.237387 
L 397.188655 186.393593 
L 397.513309 180.733851 
L 397.837964 184.473537 
L 398.162618 96.058784 
L 398.487273 138.299251 
L 398.487273 138.299251 
" clip-path="url(#p0f5f09678c)" style="fill: none; stroke: #ff7f0e; stroke-width: 1.5; stroke-linecap: square"/>
   </g>
   <g id="patch_3">
    <path d="M 57.6 307.584 
L 57.6 41.472 
" style="fill: none; stroke: #000000; stroke-width: 0.8; stroke-linejoin: miter; stroke-linecap: square"/>
   </g>
   <g id="patch_4">
    <path d="M 414.72 307.584 
L 414.72 41.472 
" style="fill: none; stroke: #000000; stroke-width: 0.8; stroke-linejoin: miter; stroke-linecap: square"/>
   </g>
   <g id="patch_5">
    <path d="M 57.6 307.584 
L 414.72 307.584 
" style="fill: none; stroke: #000000; stroke-width: 0.8; stroke-linejoin: miter; stroke-linecap: square"/>
   </g>
   <g id="patch_6">
    <path d="M 57.6 41.472 
L 414.72 41.472 
" style="fill: none; stroke: #000000; stroke-width: 0.8; stroke-linejoin: miter; stroke-linecap: square"/>
   </g>
  </g>
 </g>
 <defs>
  <clipPath id="p0f5f09678c">
   <rect x="57.6" y="41.472" width="357.12" height="266.112"/>
  </clipPath>
 </defs>
</svg>
