<?xml version="1.0" encoding="utf-8" standalone="no"?>
<!DOCTYPE svg PUBLIC "-//W3C//DTD SVG 1.1//EN"
  "http://www.w3.org/Graphics/SVG/1.1/DTD/svg11.dtd">
<svg xmlns:xlink="http://www.w3.org/1999/xlink" width="460.8pt" height="345.6pt" viewBox="0 0 460.8 345.6" xmlns="http://www.w3.org/2000/svg" version="1.1">
 <metadata>
  <rdf:RDF xmlns:dc="http://purl.org/dc/elements/1.1/" xmlns:cc="http://creativecommons.org/ns#" xmlns:rdf="http://www.w3.org/1999/02/22-rdf-syntax-ns#">
   <cc:Work>
    <dc:type rdf:resource="http://purl.org/dc/dcmitype/StillImage"/>
    <dc:date>2024-04-25T13:59:58.253094</dc:date>
    <dc:format>image/svg+xml</dc:format>
    <dc:creator>
     <cc:Agent>
      <dc:title>Matplotlib v3.7.2, https://matplotlib.org/</dc:title>
     </cc:Agent>
    </dc:creator>
   </cc:Work>
  </rdf:RDF>
 </metadata>
 <defs>
  <style type="text/css">*{stroke-linejoin: round; stroke-linecap: butt}</style>
 </defs>
 <g id="figure_1">
  <g id="patch_1">
   <path d="M 0 345.6 
L 460.8 345.6 
L 460.8 0 
L 0 0 
z
" style="fill: #ffffff"/>
  </g>
  <g id="axes_1">
   <g id="patch_2">
    <path d="M 57.6 307.584 
L 414.72 307.584 
L 414.72 41.472 
L 57.6 41.472 
z
" style="fill: #ffffff"/>
   </g>
   <g id="matplotlib.axis_1">
    <g id="xtick_1">
     <g id="line2d_1">
      <defs>
       <path id="m32bf7b6d94" d="M 0 0 
L 0 3.5 
" style="stroke: #000000; stroke-width: 0.8"/>
      </defs>
      <g>
       <use xlink:href="#m32bf7b6d94" x="73.832727" y="307.584" style="stroke: #000000; stroke-width: 0.8"/>
      </g>
     </g>
     <g id="text_1">
      <!-- 0 -->
      <g transform="translate(70.651477 322.182437) scale(0.1 -0.1)">
       <defs>
        <path id="DejaVuSans-30" d="M 2034 4250 
Q 1547 4250 1301 3770 
Q 1056 3291 1056 2328 
Q 1056 1369 1301 889 
Q 1547 409 2034 409 
Q 2525 409 2770 889 
Q 3016 1369 3016 2328 
Q 3016 3291 2770 3770 
Q 2525 4250 2034 4250 
z
M 2034 4750 
Q 2819 4750 3233 4129 
Q 3647 3509 3647 2328 
Q 3647 1150 3233 529 
Q 2819 -91 2034 -91 
Q 1250 -91 836 529 
Q 422 1150 422 2328 
Q 422 3509 836 4129 
Q 1250 4750 2034 4750 
z
" transform="scale(0.015625)"/>
       </defs>
       <use xlink:href="#DejaVuSans-30"/>
      </g>
     </g>
    </g>
    <g id="xtick_2">
     <g id="line2d_2">
      <g>
       <use xlink:href="#m32bf7b6d94" x="138.77013" y="307.584" style="stroke: #000000; stroke-width: 0.8"/>
      </g>
     </g>
     <g id="text_2">
      <!-- 2000 -->
      <g transform="translate(126.04513 322.182437) scale(0.1 -0.1)">
       <defs>
        <path id="DejaVuSans-32" d="M 1228 531 
L 3431 531 
L 3431 0 
L 469 0 
L 469 531 
Q 828 903 1448 1529 
Q 2069 2156 2228 2338 
Q 2531 2678 2651 2914 
Q 2772 3150 2772 3378 
Q 2772 3750 2511 3984 
Q 2250 4219 1831 4219 
Q 1534 4219 1204 4116 
Q 875 4013 500 3803 
L 500 4441 
Q 881 4594 1212 4672 
Q 1544 4750 1819 4750 
Q 2544 4750 2975 4387 
Q 3406 4025 3406 3419 
Q 3406 3131 3298 2873 
Q 3191 2616 2906 2266 
Q 2828 2175 2409 1742 
Q 1991 1309 1228 531 
z
" transform="scale(0.015625)"/>
       </defs>
       <use xlink:href="#DejaVuSans-32"/>
       <use xlink:href="#DejaVuSans-30" x="63.623047"/>
       <use xlink:href="#DejaVuSans-30" x="127.246094"/>
       <use xlink:href="#DejaVuSans-30" x="190.869141"/>
      </g>
     </g>
    </g>
    <g id="xtick_3">
     <g id="line2d_3">
      <g>
       <use xlink:href="#m32bf7b6d94" x="203.707533" y="307.584" style="stroke: #000000; stroke-width: 0.8"/>
      </g>
     </g>
     <g id="text_3">
      <!-- 4000 -->
      <g transform="translate(190.982533 322.182437) scale(0.1 -0.1)">
       <defs>
        <path id="DejaVuSans-34" d="M 2419 4116 
L 825 1625 
L 2419 1625 
L 2419 4116 
z
M 2253 4666 
L 3047 4666 
L 3047 1625 
L 3713 1625 
L 3713 1100 
L 3047 1100 
L 3047 0 
L 2419 0 
L 2419 1100 
L 313 1100 
L 313 1709 
L 2253 4666 
z
" transform="scale(0.015625)"/>
       </defs>
       <use xlink:href="#DejaVuSans-34"/>
       <use xlink:href="#DejaVuSans-30" x="63.623047"/>
       <use xlink:href="#DejaVuSans-30" x="127.246094"/>
       <use xlink:href="#DejaVuSans-30" x="190.869141"/>
      </g>
     </g>
    </g>
    <g id="xtick_4">
     <g id="line2d_4">
      <g>
       <use xlink:href="#m32bf7b6d94" x="268.644936" y="307.584" style="stroke: #000000; stroke-width: 0.8"/>
      </g>
     </g>
     <g id="text_4">
      <!-- 6000 -->
      <g transform="translate(255.919936 322.182437) scale(0.1 -0.1)">
       <defs>
        <path id="DejaVuSans-36" d="M 2113 2584 
Q 1688 2584 1439 2293 
Q 1191 2003 1191 1497 
Q 1191 994 1439 701 
Q 1688 409 2113 409 
Q 2538 409 2786 701 
Q 3034 994 3034 1497 
Q 3034 2003 2786 2293 
Q 2538 2584 2113 2584 
z
M 3366 4563 
L 3366 3988 
Q 3128 4100 2886 4159 
Q 2644 4219 2406 4219 
Q 1781 4219 1451 3797 
Q 1122 3375 1075 2522 
Q 1259 2794 1537 2939 
Q 1816 3084 2150 3084 
Q 2853 3084 3261 2657 
Q 3669 2231 3669 1497 
Q 3669 778 3244 343 
Q 2819 -91 2113 -91 
Q 1303 -91 875 529 
Q 447 1150 447 2328 
Q 447 3434 972 4092 
Q 1497 4750 2381 4750 
Q 2619 4750 2861 4703 
Q 3103 4656 3366 4563 
z
" transform="scale(0.015625)"/>
       </defs>
       <use xlink:href="#DejaVuSans-36"/>
       <use xlink:href="#DejaVuSans-30" x="63.623047"/>
       <use xlink:href="#DejaVuSans-30" x="127.246094"/>
       <use xlink:href="#DejaVuSans-30" x="190.869141"/>
      </g>
     </g>
    </g>
    <g id="xtick_5">
     <g id="line2d_5">
      <g>
       <use xlink:href="#m32bf7b6d94" x="333.582339" y="307.584" style="stroke: #000000; stroke-width: 0.8"/>
      </g>
     </g>
     <g id="text_5">
      <!-- 8000 -->
      <g transform="translate(320.857339 322.182437) scale(0.1 -0.1)">
       <defs>
        <path id="DejaVuSans-38" d="M 2034 2216 
Q 1584 2216 1326 1975 
Q 1069 1734 1069 1313 
Q 1069 891 1326 650 
Q 1584 409 2034 409 
Q 2484 409 2743 651 
Q 3003 894 3003 1313 
Q 3003 1734 2745 1975 
Q 2488 2216 2034 2216 
z
M 1403 2484 
Q 997 2584 770 2862 
Q 544 3141 544 3541 
Q 544 4100 942 4425 
Q 1341 4750 2034 4750 
Q 2731 4750 3128 4425 
Q 3525 4100 3525 3541 
Q 3525 3141 3298 2862 
Q 3072 2584 2669 2484 
Q 3125 2378 3379 2068 
Q 3634 1759 3634 1313 
Q 3634 634 3220 271 
Q 2806 -91 2034 -91 
Q 1263 -91 848 271 
Q 434 634 434 1313 
Q 434 1759 690 2068 
Q 947 2378 1403 2484 
z
M 1172 3481 
Q 1172 3119 1398 2916 
Q 1625 2713 2034 2713 
Q 2441 2713 2670 2916 
Q 2900 3119 2900 3481 
Q 2900 3844 2670 4047 
Q 2441 4250 2034 4250 
Q 1625 4250 1398 4047 
Q 1172 3844 1172 3481 
z
" transform="scale(0.015625)"/>
       </defs>
       <use xlink:href="#DejaVuSans-38"/>
       <use xlink:href="#DejaVuSans-30" x="63.623047"/>
       <use xlink:href="#DejaVuSans-30" x="127.246094"/>
       <use xlink:href="#DejaVuSans-30" x="190.869141"/>
      </g>
     </g>
    </g>
    <g id="xtick_6">
     <g id="line2d_6">
      <g>
       <use xlink:href="#m32bf7b6d94" x="398.519741" y="307.584" style="stroke: #000000; stroke-width: 0.8"/>
      </g>
     </g>
     <g id="text_6">
      <!-- 10000 -->
      <g transform="translate(382.613491 322.182437) scale(0.1 -0.1)">
       <defs>
        <path id="DejaVuSans-31" d="M 794 531 
L 1825 531 
L 1825 4091 
L 703 3866 
L 703 4441 
L 1819 4666 
L 2450 4666 
L 2450 531 
L 3481 531 
L 3481 0 
L 794 0 
L 794 531 
z
" transform="scale(0.015625)"/>
       </defs>
       <use xlink:href="#DejaVuSans-31"/>
       <use xlink:href="#DejaVuSans-30" x="63.623047"/>
       <use xlink:href="#DejaVuSans-30" x="127.246094"/>
       <use xlink:href="#DejaVuSans-30" x="190.869141"/>
       <use xlink:href="#DejaVuSans-30" x="254.492188"/>
      </g>
     </g>
    </g>
   </g>
   <g id="matplotlib.axis_2">
    <g id="ytick_1">
     <g id="line2d_7">
      <defs>
       <path id="mfa88df2083" d="M 0 0 
L -3.5 0 
" style="stroke: #000000; stroke-width: 0.8"/>
      </defs>
      <g>
       <use xlink:href="#mfa88df2083" x="57.6" y="295.488" style="stroke: #000000; stroke-width: 0.8"/>
      </g>
     </g>
     <g id="text_7">
      <!-- −300 -->
      <g transform="translate(23.132812 299.287219) scale(0.1 -0.1)">
       <defs>
        <path id="DejaVuSans-2212" d="M 678 2272 
L 4684 2272 
L 4684 1741 
L 678 1741 
L 678 2272 
z
" transform="scale(0.015625)"/>
        <path id="DejaVuSans-33" d="M 2597 2516 
Q 3050 2419 3304 2112 
Q 3559 1806 3559 1356 
Q 3559 666 3084 287 
Q 2609 -91 1734 -91 
Q 1441 -91 1130 -33 
Q 819 25 488 141 
L 488 750 
Q 750 597 1062 519 
Q 1375 441 1716 441 
Q 2309 441 2620 675 
Q 2931 909 2931 1356 
Q 2931 1769 2642 2001 
Q 2353 2234 1838 2234 
L 1294 2234 
L 1294 2753 
L 1863 2753 
Q 2328 2753 2575 2939 
Q 2822 3125 2822 3475 
Q 2822 3834 2567 4026 
Q 2313 4219 1838 4219 
Q 1578 4219 1281 4162 
Q 984 4106 628 3988 
L 628 4550 
Q 988 4650 1302 4700 
Q 1616 4750 1894 4750 
Q 2613 4750 3031 4423 
Q 3450 4097 3450 3541 
Q 3450 3153 3228 2886 
Q 3006 2619 2597 2516 
z
" transform="scale(0.015625)"/>
       </defs>
       <use xlink:href="#DejaVuSans-2212"/>
       <use xlink:href="#DejaVuSans-33" x="83.789062"/>
       <use xlink:href="#DejaVuSans-30" x="147.412109"/>
       <use xlink:href="#DejaVuSans-30" x="211.035156"/>
      </g>
     </g>
    </g>
    <g id="ytick_2">
     <g id="line2d_8">
      <g>
       <use xlink:href="#mfa88df2083" x="57.6" y="265.639639" style="stroke: #000000; stroke-width: 0.8"/>
      </g>
     </g>
     <g id="text_8">
      <!-- −250 -->
      <g transform="translate(23.132812 269.438858) scale(0.1 -0.1)">
       <defs>
        <path id="DejaVuSans-35" d="M 691 4666 
L 3169 4666 
L 3169 4134 
L 1269 4134 
L 1269 2991 
Q 1406 3038 1543 3061 
Q 1681 3084 1819 3084 
Q 2600 3084 3056 2656 
Q 3513 2228 3513 1497 
Q 3513 744 3044 326 
Q 2575 -91 1722 -91 
Q 1428 -91 1123 -41 
Q 819 9 494 109 
L 494 744 
Q 775 591 1075 516 
Q 1375 441 1709 441 
Q 2250 441 2565 725 
Q 2881 1009 2881 1497 
Q 2881 1984 2565 2268 
Q 2250 2553 1709 2553 
Q 1456 2553 1204 2497 
Q 953 2441 691 2322 
L 691 4666 
z
" transform="scale(0.015625)"/>
       </defs>
       <use xlink:href="#DejaVuSans-2212"/>
       <use xlink:href="#DejaVuSans-32" x="83.789062"/>
       <use xlink:href="#DejaVuSans-35" x="147.412109"/>
       <use xlink:href="#DejaVuSans-30" x="211.035156"/>
      </g>
     </g>
    </g>
    <g id="ytick_3">
     <g id="line2d_9">
      <g>
       <use xlink:href="#mfa88df2083" x="57.6" y="235.791278" style="stroke: #000000; stroke-width: 0.8"/>
      </g>
     </g>
     <g id="text_9">
      <!-- −200 -->
      <g transform="translate(23.132812 239.590497) scale(0.1 -0.1)">
       <use xlink:href="#DejaVuSans-2212"/>
       <use xlink:href="#DejaVuSans-32" x="83.789062"/>
       <use xlink:href="#DejaVuSans-30" x="147.412109"/>
       <use xlink:href="#DejaVuSans-30" x="211.035156"/>
      </g>
     </g>
    </g>
    <g id="ytick_4">
     <g id="line2d_10">
      <g>
       <use xlink:href="#mfa88df2083" x="57.6" y="205.942917" style="stroke: #000000; stroke-width: 0.8"/>
      </g>
     </g>
     <g id="text_10">
      <!-- −150 -->
      <g transform="translate(23.132812 209.742136) scale(0.1 -0.1)">
       <use xlink:href="#DejaVuSans-2212"/>
       <use xlink:href="#DejaVuSans-31" x="83.789062"/>
       <use xlink:href="#DejaVuSans-35" x="147.412109"/>
       <use xlink:href="#DejaVuSans-30" x="211.035156"/>
      </g>
     </g>
    </g>
    <g id="ytick_5">
     <g id="line2d_11">
      <g>
       <use xlink:href="#mfa88df2083" x="57.6" y="176.094556" style="stroke: #000000; stroke-width: 0.8"/>
      </g>
     </g>
     <g id="text_11">
      <!-- −100 -->
      <g transform="translate(23.132812 179.893775) scale(0.1 -0.1)">
       <use xlink:href="#DejaVuSans-2212"/>
       <use xlink:href="#DejaVuSans-31" x="83.789062"/>
       <use xlink:href="#DejaVuSans-30" x="147.412109"/>
       <use xlink:href="#DejaVuSans-30" x="211.035156"/>
      </g>
     </g>
    </g>
    <g id="ytick_6">
     <g id="line2d_12">
      <g>
       <use xlink:href="#mfa88df2083" x="57.6" y="146.246195" style="stroke: #000000; stroke-width: 0.8"/>
      </g>
     </g>
     <g id="text_12">
      <!-- −50 -->
      <g transform="translate(29.495313 150.045414) scale(0.1 -0.1)">
       <use xlink:href="#DejaVuSans-2212"/>
       <use xlink:href="#DejaVuSans-35" x="83.789062"/>
       <use xlink:href="#DejaVuSans-30" x="147.412109"/>
      </g>
     </g>
    </g>
    <g id="ytick_7">
     <g id="line2d_13">
      <g>
       <use xlink:href="#mfa88df2083" x="57.6" y="116.397834" style="stroke: #000000; stroke-width: 0.8"/>
      </g>
     </g>
     <g id="text_13">
      <!-- 0 -->
      <g transform="translate(44.2375 120.197053) scale(0.1 -0.1)">
       <use xlink:href="#DejaVuSans-30"/>
      </g>
     </g>
    </g>
    <g id="ytick_8">
     <g id="line2d_14">
      <g>
       <use xlink:href="#mfa88df2083" x="57.6" y="86.549474" style="stroke: #000000; stroke-width: 0.8"/>
      </g>
     </g>
     <g id="text_14">
      <!-- 50 -->
      <g transform="translate(37.875 90.348692) scale(0.1 -0.1)">
       <use xlink:href="#DejaVuSans-35"/>
       <use xlink:href="#DejaVuSans-30" x="63.623047"/>
      </g>
     </g>
    </g>
    <g id="ytick_9">
     <g id="line2d_15">
      <g>
       <use xlink:href="#mfa88df2083" x="57.6" y="56.701113" style="stroke: #000000; stroke-width: 0.8"/>
      </g>
     </g>
     <g id="text_15">
      <!-- 100 -->
      <g transform="translate(31.5125 60.500331) scale(0.1 -0.1)">
       <use xlink:href="#DejaVuSans-31"/>
       <use xlink:href="#DejaVuSans-30" x="63.623047"/>
       <use xlink:href="#DejaVuSans-30" x="127.246094"/>
      </g>
     </g>
    </g>
   </g>
   <g id="line2d_16">
    <path d="M 73.832727 111.210952 
L 73.865196 295.488 
L 73.897665 86.854168 
L 73.930133 115.302576 
L 73.962602 112.068485 
L 73.995071 87.8265 
L 74.060008 115.837642 
L 74.124946 111.8179 
L 74.157414 295.488 
L 74.222352 115.674379 
L 74.25482 117.889957 
L 74.287289 96.50954 
L 74.352226 98.095348 
L 74.384695 115.766524 
L 74.417164 295.488 
L 74.449633 110.679993 
L 74.482101 115.837642 
L 74.51457 115.600415 
L 74.547039 115.837642 
L 74.611976 93.624763 
L 74.676914 295.488 
L 74.709382 90.646473 
L 74.806788 115.766524 
L 74.839257 101.209274 
L 74.904194 112.275718 
L 75.001601 295.488 
L 75.034069 100.299388 
L 75.131475 102.479791 
L 75.163944 111.456375 
L 75.196413 98.224501 
L 75.228881 90.3096 
L 75.26135 95.074116 
L 75.293819 295.488 
L 75.358756 114.957966 
L 75.423694 101.632967 
L 75.456162 114.957966 
L 75.488631 112.275718 
L 75.5211 92.338891 
L 75.553568 115.837642 
L 75.618506 295.488 
L 75.650975 115.766524 
L 75.683443 94.31074 
L 75.748381 295.488 
L 75.780849 109.206911 
L 75.813318 117.243102 
L 75.845787 98.814288 
L 75.878255 295.488 
L 75.943193 116.984649 
L 76.105536 91.7635 
L 76.138005 115.766524 
L 76.202942 115.229696 
L 76.235411 102.085322 
L 76.332817 295.488 
L 76.365286 93.033996 
L 76.462692 112.275718 
L 76.495161 110.155279 
L 76.527629 295.488 
L 76.560098 94.6398 
L 76.592567 114.957966 
L 76.625036 114.341618 
L 76.657504 117.818945 
L 76.689973 295.488 
L 76.75491 112.068485 
L 76.787379 114.957966 
L 76.819848 112.806991 
L 76.852317 295.488 
L 76.917254 93.900174 
L 76.949723 113.88854 
L 77.01466 98.224501 
L 77.079597 295.488 
L 77.112066 115.766524 
L 77.177004 115.837642 
L 77.209472 100.642757 
L 77.339347 115.766524 
L 77.371816 110.155279 
L 77.469222 106.350074 
L 77.501691 295.488 
L 77.631565 80.942861 
L 77.76144 118.880911 
L 77.793909 112.022964 
L 77.923784 295.488 
L 77.956252 295.488 
L 77.988721 80.384913 
L 78.086127 123.421827 
L 78.118596 124.005147 
L 78.151065 164.310644 
L 78.216002 120.171519 
L 78.280939 119.337377 
L 78.313408 123.421827 
L 78.378345 114.157215 
L 78.443283 162.240834 
L 78.475752 164.310644 
L 78.573158 96.95524 
L 78.605626 99.377106 
L 78.638095 104.743181 
L 78.670564 94.164703 
L 78.703032 97.960795 
L 78.735501 98.224501 
L 78.76797 91.6363 
L 78.865376 111.437726 
L 78.897845 104.486405 
L 78.930313 104.486405 
L 78.995251 103.75965 
L 79.027719 111.437726 
L 79.125126 103.947261 
L 79.157594 104.486405 
L 79.190063 111.437726 
L 79.287469 109.633916 
L 79.417344 106.851668 
L 80.099187 106.851668 
L 80.131655 103.609452 
L 80.196593 105.814229 
L 80.229061 106.323915 
L 80.26153 106.070361 
L 80.293999 103.223503 
L 80.358936 106.323915 
L 80.391405 105.814229 
L 80.423874 106.144502 
L 80.488811 103.223503 
L 80.52128 110.460486 
L 80.553748 106.070361 
L 80.618686 110.460486 
L 80.716092 110.460486 
L 80.813498 102.611298 
L 80.845967 103.223503 
L 80.943373 104.651681 
L 80.975842 102.724738 
L 81.00831 105.596381 
L 81.040779 105.6455 
L 81.073248 103.728072 
L 81.203122 109.39907 
L 81.26806 103.419946 
L 81.332997 105.647111 
L 81.430403 102.611298 
L 81.462872 109.965152 
L 81.495341 101.283974 
L 81.560278 84.39859 
L 81.625216 90.730724 
L 81.657684 92.552172 
L 81.75509 108.489895 
L 81.787559 107.309975 
L 81.917434 99.294405 
L 82.01484 104.954749 
L 82.112246 76.977494 
L 82.144715 96.664386 
L 82.307058 111.099887 
L 82.501871 76.371925 
L 82.534339 80.431301 
L 82.566808 92.580385 
L 82.631745 80.755185 
L 82.664214 84.788779 
L 82.696683 71.829467 
L 82.729151 93.59208 
L 82.76162 72.732465 
L 82.794089 101.641166 
L 82.859026 90.153127 
L 82.891495 78.126438 
L 82.923964 102.384735 
L 82.956432 81.359345 
L 82.988901 88.376648 
L 83.02137 87.62695 
L 83.053838 76.235454 
L 83.118776 85.103855 
L 83.151245 86.477442 
L 83.216182 79.789265 
L 83.248651 86.274241 
L 83.281119 85.889922 
L 83.313588 90.604333 
L 83.346057 73.579223 
L 83.410994 85.12792 
L 83.443463 88.178559 
L 83.475932 81.150136 
L 83.5084 84.338883 
L 83.573338 82.520308 
L 83.670744 94.250214 
L 83.703213 84.441013 
L 83.76815 80.776986 
L 83.800619 83.653741 
L 83.833087 84.449217 
L 83.865556 80.3813 
L 83.898025 86.629762 
L 83.930493 88.146734 
L 83.962962 81.505694 
L 83.995431 103.768614 
L 84.0279 80.431017 
L 84.060368 82.55694 
L 84.157774 101.924721 
L 84.222712 110.461481 
L 84.25518 82.050439 
L 84.320118 104.197479 
L 84.352587 76.871295 
L 84.385055 76.528451 
L 84.417524 90.562013 
L 84.449993 69.199365 
L 84.482461 89.43191 
L 84.51493 75.838474 
L 84.612336 80.661914 
L 84.644805 88.544132 
L 84.709742 81.333302 
L 84.742211 55.501036 
L 84.807148 91.020321 
L 84.937023 75.887032 
L 85.034429 111.728344 
L 85.099367 109.735146 
L 85.131835 115.467125 
L 85.164304 79.673267 
L 85.229241 117.695846 
L 85.391585 67.516468 
L 85.424054 113.711329 
L 85.52146 94.759061 
L 85.553928 111.82504 
L 85.586397 81.330404 
L 85.618866 80.580411 
L 85.683803 101.466157 
L 85.716272 91.36691 
L 85.846147 65.333093 
L 85.878615 69.16122 
L 85.976022 117.695846 
L 86.00849 68.481288 
L 86.073428 84.913457 
L 86.105896 116.191032 
L 86.170834 106.460815 
L 86.203303 80.427322 
L 86.300709 91.065579 
L 86.398115 107.025531 
L 86.430583 79.686035 
L 86.52799 86.408888 
L 86.657864 97.839816 
L 86.722802 75.722834 
L 86.75527 92.924712 
L 86.787739 93.294526 
L 86.820208 115.02964 
L 86.852677 80.185401 
L 86.885145 95.411167 
L 86.982551 62.20108 
L 87.01502 90.803533 
L 87.047489 91.635712 
L 87.079957 91.45752 
L 87.112426 54.385941 
L 87.177364 54.597188 
L 87.209832 103.124537 
L 87.27477 99.136943 
L 87.307238 54.488201 
L 87.339707 103.907846 
L 87.372176 92.980729 
L 87.404644 96.454235 
L 87.437113 53.96939 
L 87.502051 89.437789 
L 87.534519 79.661212 
L 87.566988 101.63032 
L 87.631925 86.548544 
L 87.664394 93.432715 
L 87.696863 53.728935 
L 87.7618 104.993293 
L 87.826738 87.187459 
L 87.891675 93.350719 
L 87.989081 104.867652 
L 88.118956 75.547696 
L 88.216362 101.884589 
L 88.183893 54.583765 
L 88.248831 94.272661 
L 88.346237 88.030757 
L 88.313768 95.453332 
L 88.378706 89.101901 
L 88.411174 95.967029 
L 88.443643 85.899097 
L 88.476112 54.520252 
L 88.541049 97.337977 
L 88.573518 94.150737 
L 88.638455 67.045133 
L 88.670924 76.041089 
L 88.703393 98.905897 
L 88.800799 94.7945 
L 88.833267 56.905539 
L 88.898205 89.180137 
L 88.963142 82.327058 
L 88.995611 94.039086 
L 89.060548 86.614434 
L 89.093017 54.903519 
L 89.157954 91.778914 
L 89.190423 55.804356 
L 89.222892 55.860125 
L 89.287829 93.895274 
L 89.352767 85.66489 
L 89.385235 99.558835 
L 89.450173 89.333562 
L 89.482641 90.919005 
L 89.51511 83.264148 
L 89.547579 93.019382 
L 89.580047 112.222811 
L 89.644985 91.952835 
L 89.709922 105.687631 
L 89.742391 56.373883 
L 89.807328 90.724647 
L 89.839797 105.25404 
L 89.872266 71.813297 
L 89.904734 101.177294 
L 89.937203 84.252824 
L 89.969672 113.63726 
L 90.002141 99.270286 
L 90.067078 103.194375 
L 90.164484 69.060359 
L 90.196953 54.436267 
L 90.229421 64.976717 
L 90.26189 110.950175 
L 90.294359 55.647653 
L 90.359296 102.685683 
L 90.391765 107.503265 
L 90.554109 55.698198 
L 90.619046 62.207137 
L 90.651515 109.586066 
L 90.716452 93.22767 
L 90.748921 55.114668 
L 90.781389 109.404114 
L 90.846327 57.233148 
L 90.878796 81.550615 
L 90.911264 53.568 
L 90.943733 53.673584 
L 91.00867 54.458871 
L 91.041139 60.48549 
L 91.106076 109.65583 
L 91.171014 91.797562 
L 91.203483 84.366581 
L 91.235951 89.82351 
L 91.26842 113.729217 
L 91.300889 102.725164 
L 91.333357 54.581045 
L 91.398295 92.499922 
L 91.430763 112.288061 
L 91.495701 107.238569 
L 91.52817 53.619964 
L 91.593107 109.927493 
L 91.690513 54.932107 
L 91.722982 90.534623 
L 91.75545 113.373703 
L 91.852857 112.288061 
L 92.0152 55.114962 
L 92.145075 97.071757 
L 92.210012 92.677138 
L 92.242481 55.289034 
L 92.27495 113.672126 
L 92.307418 56.783436 
L 92.404824 91.659276 
L 92.437293 58.061253 
L 92.502231 58.73659 
L 92.664574 109.765084 
L 92.76198 68.750062 
L 92.794449 86.803152 
L 92.826918 295.488 
L 92.859386 56.839645 
L 92.891855 70.87972 
L 92.956792 56.41332 
L 92.989261 112.440114 
L 93.02173 56.726639 
L 93.054199 295.488 
L 93.119136 78.739765 
L 93.184073 60.585297 
L 93.216542 113.729217 
L 93.249011 54.121725 
L 93.346417 59.525837 
L 93.378886 55.406464 
L 93.541229 295.488 
L 93.671104 89.77046 
L 93.703573 108.454201 
L 93.736041 98.849357 
L 93.76851 56.015216 
L 93.833447 108.79997 
L 93.865916 295.488 
L 93.930853 69.359754 
L 93.963322 112.343692 
L 94.02826 56.118009 
L 94.060728 102.774002 
L 94.125666 55.341164 
L 94.190603 112.343692 
L 94.223072 107.41009 
L 94.288009 108.567709 
L 94.352947 54.897167 
L 94.450353 112.403024 
L 94.482821 78.220968 
L 94.547759 109.708727 
L 94.580227 115.02964 
L 94.612696 56.781123 
L 94.710102 295.488 
L 94.807508 97.835789 
L 94.839977 109.947215 
L 94.872446 112.343692 
L 94.904914 68.161177 
L 94.969852 99.753343 
L 95.002321 295.488 
L 95.034789 55.671253 
L 95.067258 58.248282 
L 95.099727 67.101329 
L 95.132195 64.527093 
L 95.26207 295.488 
L 95.327008 295.488 
L 95.391945 62.839004 
L 95.456882 109.708727 
L 95.489351 55.877048 
L 95.52182 115.02964 
L 95.554289 94.527957 
L 95.586757 95.227389 
L 95.619226 108.509165 
L 95.684163 96.900231 
L 95.716632 86.1636 
L 95.749101 108.454201 
L 95.814038 105.02125 
L 95.878976 111.062221 
L 95.976382 295.488 
L 96.073788 101.773784 
L 96.106256 109.708727 
L 96.138725 95.607306 
L 96.171194 109.765084 
L 96.203663 109.708727 
L 96.236131 105.02125 
L 96.2686 112.343692 
L 96.301069 111.062221 
L 96.398475 99.704823 
L 96.430943 103.854743 
L 96.463412 115.02964 
L 96.52835 103.804783 
L 96.560818 109.765084 
L 96.625756 106.059733 
L 96.658224 102.725164 
L 96.690693 106.112087 
L 96.723162 72.834786 
L 96.75563 109.825142 
L 96.788099 109.708727 
L 96.820568 295.488 
L 96.853037 109.193572 
L 96.885505 112.291234 
L 96.917974 58.123075 
L 96.982911 115.837642 
L 97.01538 115.02964 
L 97.080317 102.377299 
L 97.112786 112.440114 
L 97.145255 115.02964 
L 97.210192 295.488 
L 97.242661 107.777766 
L 97.27513 104.915742 
L 97.372536 115.02964 
L 97.405005 101.519094 
L 97.469942 115.02964 
L 97.502411 295.488 
L 97.534879 109.765084 
L 97.567348 111.00441 
L 97.599817 115.02964 
L 97.632285 107.413734 
L 97.664754 101.89224 
L 97.697223 115.02964 
L 97.729692 107.349293 
L 97.76216 115.02964 
L 97.892035 295.488 
L 98.02191 106.290196 
L 98.054379 295.488 
L 98.086847 98.58958 
L 98.119316 99.659082 
L 98.184253 106.059733 
L 98.249191 84.302022 
L 98.314128 295.488 
L 98.444003 94.203658 
L 98.541409 295.488 
L 98.573878 111.771311 
L 98.671284 113.63726 
L 98.703753 115.02964 
L 98.736221 295.488 
L 98.801159 100.750064 
L 98.833627 115.02964 
L 98.866096 85.77325 
L 98.898565 112.343692 
L 98.963502 115.02964 
L 99.060908 84.691056 
L 99.093377 84.8503 
L 99.223252 115.02964 
L 99.353127 70.554541 
L 99.483001 115.02964 
L 99.580407 79.781493 
L 99.677814 83.932935 
L 99.840157 112.36358 
L 99.872626 113.63726 
L 99.937563 72.935507 
L 100.002501 77.723993 
L 100.099907 55.02643 
L 100.229782 295.488 
L 100.359656 71.534349 
L 100.392125 79.271814 
L 100.424594 69.085195 
L 100.457062 73.16135 
L 100.489531 54.219755 
L 100.522 95.546181 
L 100.554469 106.17045 
L 100.586937 62.811848 
L 100.651875 84.622191 
L 100.749281 108.756126 
L 100.846687 68.508478 
L 100.879156 72.905041 
L 100.944093 72.206064 
L 101.041499 112.965308 
L 101.073968 63.854199 
L 101.106436 99.458525 
L 101.171374 295.488 
L 101.203843 67.691272 
L 101.26878 114.957966 
L 101.366186 108.560503 
L 101.398655 295.488 
L 101.496061 108.040866 
L 101.52853 113.567245 
L 101.560998 112.387225 
L 101.593467 114.341618 
L 101.625936 295.488 
L 101.690873 94.910864 
L 101.723342 105.077311 
L 101.75581 295.488 
L 101.820748 97.867686 
L 101.853217 110.004364 
L 101.918154 295.488 
L 101.950623 107.892476 
L 102.112966 115.766524 
L 102.145435 93.322175 
L 102.210372 114.957966 
L 102.242841 110.347351 
L 102.307778 114.341618 
L 102.340247 114.341618 
L 102.372716 113.749952 
L 102.405185 295.488 
L 102.437653 94.894533 
L 102.470122 114.957966 
L 102.599997 102.811499 
L 102.664934 111.297753 
L 102.729872 108.560503 
L 102.76234 108.040866 
L 102.827278 113.567245 
L 102.859746 295.488 
L 102.924684 114.957966 
L 102.989621 114.341618 
L 103.02209 295.488 
L 103.087027 82.280665 
L 103.151965 87.598793 
L 103.184433 64.501219 
L 103.216902 97.179901 
L 103.249371 110.347351 
L 103.314308 106.855568 
L 103.444183 73.564333 
L 103.50912 114.341618 
L 103.574058 99.673046 
L 103.606526 101.76295 
L 103.638995 84.803845 
L 103.671464 104.478763 
L 103.703933 114.341618 
L 103.736401 54.258811 
L 103.801339 112.965308 
L 103.866276 91.404202 
L 103.898745 101.63032 
L 103.931213 113.567245 
L 103.963682 75.24227 
L 103.996151 112.387225 
L 104.02862 295.488 
L 104.061088 82.906568 
L 104.093557 111.634758 
L 104.158494 108.560503 
L 104.223432 115.766524 
L 104.353307 100.429996 
L 104.385775 114.957966 
L 104.418244 93.861873 
L 104.450713 95.680605 
L 104.483181 95.673052 
L 104.51565 113.567245 
L 104.548119 91.404202 
L 104.580588 110.347351 
L 104.677994 80.659941 
L 104.710462 97.846361 
L 104.742931 92.64742 
L 104.7754 113.567245 
L 104.840337 85.007718 
L 104.872806 88.643147 
L 104.905275 79.530418 
L 104.937743 295.488 
L 105.002681 107.364072 
L 105.035149 84.434882 
L 105.100087 87.325477 
L 105.165024 111.069771 
L 105.197493 87.796455 
L 105.26243 77.991661 
L 105.294899 92.793983 
L 105.327368 77.888562 
L 105.359836 82.541486 
L 105.392305 67.844381 
L 105.424774 111.831755 
L 105.489711 66.521335 
L 105.52218 99.662817 
L 105.554649 100.879083 
L 105.652055 79.872256 
L 105.619586 105.440369 
L 105.684523 81.9217 
L 105.716992 75.378087 
L 105.749461 85.757534 
L 105.781929 295.488 
L 105.814398 72.340892 
L 105.846867 115.766524 
L 105.879336 77.465957 
L 105.976742 81.055342 
L 106.106616 114.957966 
L 106.041679 79.001214 
L 106.139085 114.341618 
L 106.171554 112.965308 
L 106.204023 81.958627 
L 106.26896 84.496251 
L 106.333897 112.965308 
L 106.366366 78.813191 
L 106.496241 295.488 
L 106.561178 87.21526 
L 106.626116 115.766524 
L 106.658584 113.181662 
L 106.691053 71.400452 
L 106.723522 106.203646 
L 106.820928 295.488 
L 106.853397 79.86631 
L 106.918334 295.488 
L 106.950803 295.488 
L 107.048209 81.981772 
L 107.080678 112.965308 
L 107.113146 115.766524 
L 107.210552 83.206556 
L 107.243021 85.15784 
L 107.27549 295.488 
L 107.307958 82.899435 
L 107.340427 112.222811 
L 107.437833 115.766524 
L 107.470302 113.749952 
L 107.535239 85.832984 
L 107.600177 295.488 
L 107.665114 295.488 
L 107.794989 113.567245 
L 107.892395 295.488 
L 107.989801 111.831755 
L 108.02227 295.488 
L 108.087207 114.957966 
L 108.152145 112.387225 
L 108.184613 114.957966 
L 108.282019 79.29354 
L 108.314488 295.488 
L 108.411894 79.001214 
L 108.444363 114.341618 
L 108.5093 114.957966 
L 108.606706 83.206556 
L 108.639175 295.488 
L 108.866456 295.488 
L 108.996331 82.889862 
L 109.0288 111.069771 
L 109.061268 295.488 
L 109.126206 113.567245 
L 109.191143 110.004364 
L 109.223612 114.957966 
L 109.256081 90.721241 
L 109.385955 295.488 
L 109.51583 114.957966 
L 109.548299 110.922024 
L 109.580768 295.488 
L 109.645705 85.489952 
L 109.678174 85.831207 
L 109.743111 115.766524 
L 109.840517 295.488 
L 109.905455 109.794996 
L 109.937923 295.488 
L 109.970392 295.488 
L 110.067798 109.10067 
L 110.100267 115.766524 
L 110.132735 114.341618 
L 110.165204 115.160764 
L 110.295079 295.488 
L 110.360016 114.957966 
L 110.392485 295.488 
L 110.457422 295.488 
L 110.587297 114.341618 
L 110.717172 295.488 
L 110.749641 295.488 
L 110.847047 80.75689 
L 110.879516 114.341618 
L 110.911984 84.823172 
L 111.041859 295.488 
L 111.139265 114.957966 
L 111.26914 295.488 
L 111.301609 83.523568 
L 111.366546 115.766524 
L 111.496421 295.488 
L 111.950983 295.488 
L 112.048389 88.281558 
L 112.145795 295.488 
L 112.243201 114.957966 
L 112.373076 295.488 
L 112.438013 295.488 
L 112.470482 114.341618 
L 112.567888 114.957966 
L 112.632825 114.957966 
L 112.665294 115.766524 
L 112.730232 114.957966 
L 112.795169 295.488 
L 112.957512 295.488 
L 112.989981 81.652578 
L 113.054919 295.488 
L 113.152325 295.488 
L 113.184793 79.905971 
L 113.249731 295.488 
L 113.347137 295.488 
L 113.379606 114.957966 
L 113.444543 295.488 
L 113.477012 295.488 
L 113.606887 114.957966 
L 113.736761 295.488 
L 113.801699 295.488 
L 113.931574 114.957966 
L 114.061448 295.488 
L 114.126386 295.488 
L 114.223792 114.579181 
L 114.353667 295.488 
L 115.230322 295.488 
L 115.26279 85.489952 
L 115.327728 295.488 
L 115.360196 295.488 
L 115.392665 115.766524 
L 115.457602 295.488 
L 115.490071 295.488 
L 115.52254 114.957966 
L 115.587477 295.488 
L 115.749821 295.488 
L 115.814758 114.957966 
L 115.847227 295.488 
L 115.879696 295.488 
L 115.912164 114.957966 
L 115.977102 295.488 
L 116.366726 295.488 
L 116.399195 114.957966 
L 116.464132 295.488 
L 116.626476 295.488 
L 116.658944 115.766524 
L 116.723882 295.488 
L 116.788819 295.488 
L 116.821288 114.957966 
L 116.886225 295.488 
L 116.983631 295.488 
L 117.0161 114.957966 
L 117.081038 295.488 
L 117.340787 295.488 
L 117.438193 114.957966 
L 117.568068 295.488 
L 118.672004 295.488 
L 118.704473 115.766524 
L 118.76941 295.488 
L 119.451253 295.488 
L 119.51619 114.957966 
L 119.548659 295.488 
L 120.327908 295.488 
L 120.360376 114.957966 
L 120.425314 295.488 
L 120.620126 295.488 
L 120.652595 114.957966 
L 120.717532 295.488 
L 120.78247 295.488 
L 120.814938 115.766524 
L 120.879876 295.488 
L 121.172094 295.488 
L 121.204563 114.957966 
L 121.2695 295.488 
L 121.431844 295.488 
L 121.464312 114.957966 
L 121.52925 295.488 
L 123.28256 295.488 
L 123.315028 114.957966 
L 123.379966 295.488 
L 123.704653 295.488 
L 123.737121 115.766524 
L 123.802059 295.488 
L 124.02934 295.488 
L 124.061808 114.957966 
L 124.126746 295.488 
L 124.289089 295.488 
L 124.386495 114.957966 
L 124.51637 295.488 
L 124.581308 115.766524 
L 124.613776 295.488 
L 124.841057 295.488 
L 124.970932 112.222811 
L 125.003401 114.341618 
L 125.100807 295.488 
L 125.133276 113.567245 
L 125.198213 115.766524 
L 125.26315 295.488 
L 125.295619 115.766524 
L 125.328088 114.957966 
L 125.393025 295.488 
L 125.425494 115.766524 
L 125.457963 114.957966 
L 125.587837 295.488 
L 125.620306 114.957966 
L 125.685243 295.488 
L 125.750181 295.488 
L 125.815118 114.957966 
L 125.847587 295.488 
L 126.237211 295.488 
L 126.26968 114.957966 
L 126.334617 295.488 
L 126.691773 295.488 
L 126.724242 114.957966 
L 126.789179 295.488 
L 126.919054 295.488 
L 126.951523 114.957966 
L 127.01646 295.488 
L 127.211272 295.488 
L 127.243741 114.957966 
L 127.308679 295.488 
L 129.02952 295.488 
L 129.094457 114.957966 
L 129.126926 295.488 
L 131.01011 295.488 
L 131.042579 115.766524 
L 131.107517 295.488 
L 131.886765 295.488 
L 131.919234 114.957966 
L 131.984172 295.488 
L 133.542669 295.488 
L 133.575138 115.766524 
L 133.640075 295.488 
L 133.834887 295.488 
L 133.867356 114.957966 
L 133.932294 295.488 
L 135.133636 295.488 
L 135.166104 114.957966 
L 135.231042 295.488 
L 135.458323 295.488 
L 135.490791 114.341618 
L 135.588197 114.957966 
L 135.685603 295.488 
L 135.718072 115.766524 
L 135.78301 295.488 
L 135.847947 295.488 
L 135.880416 113.567245 
L 135.945353 295.488 
L 135.977822 295.488 
L 136.107697 110.922024 
L 136.205103 295.488 
L 136.334977 113.567245 
L 136.464852 295.488 
L 136.562258 295.488 
L 136.659665 114.957966 
L 136.789539 295.488 
L 136.984352 295.488 
L 137.01682 114.957966 
L 137.081758 295.488 
L 137.211632 295.488 
L 137.244101 114.957966 
L 137.309039 295.488 
L 137.373976 295.488 
L 137.406445 114.957966 
L 137.471382 295.488 
L 137.666194 295.488 
L 137.698663 114.957966 
L 137.7636 295.488 
L 138.477912 295.488 
L 138.51038 114.957966 
L 138.575318 295.488 
L 138.607787 295.488 
L 138.640255 115.766524 
L 138.705193 295.488 
L 138.964942 295.488 
L 138.997411 114.957966 
L 139.062348 295.488 
L 139.77666 295.488 
L 139.809129 114.957966 
L 139.874066 295.488 
L 140.426034 295.488 
L 140.458503 114.957966 
L 140.52344 295.488 
L 141.465032 295.488 
L 141.497501 114.957966 
L 141.562438 295.488 
L 398.487273 295.488 
L 398.487273 295.488 
" clip-path="url(#pf8709ae4c9)" style="fill: none; stroke: #1f77b4; stroke-width: 1.5; stroke-linecap: square"/>
   </g>
   <g id="patch_3">
    <path d="M 57.6 307.584 
L 57.6 41.472 
" style="fill: none; stroke: #000000; stroke-width: 0.8; stroke-linejoin: miter; stroke-linecap: square"/>
   </g>
   <g id="patch_4">
    <path d="M 414.72 307.584 
L 414.72 41.472 
" style="fill: none; stroke: #000000; stroke-width: 0.8; stroke-linejoin: miter; stroke-linecap: square"/>
   </g>
   <g id="patch_5">
    <path d="M 57.6 307.584 
L 414.72 307.584 
" style="fill: none; stroke: #000000; stroke-width: 0.8; stroke-linejoin: miter; stroke-linecap: square"/>
   </g>
   <g id="patch_6">
    <path d="M 57.6 41.472 
L 414.72 41.472 
" style="fill: none; stroke: #000000; stroke-width: 0.8; stroke-linejoin: miter; stroke-linecap: square"/>
   </g>
  </g>
 </g>
 <defs>
  <clipPath id="pf8709ae4c9">
   <rect x="57.6" y="41.472" width="357.12" height="266.112"/>
  </clipPath>
 </defs>
</svg>
