<?xml version="1.0" encoding="utf-8" standalone="no"?>
<!DOCTYPE svg PUBLIC "-//W3C//DTD SVG 1.1//EN"
  "http://www.w3.org/Graphics/SVG/1.1/DTD/svg11.dtd">
<svg xmlns:xlink="http://www.w3.org/1999/xlink" width="460.8pt" height="345.6pt" viewBox="0 0 460.8 345.6" xmlns="http://www.w3.org/2000/svg" version="1.1">
 <metadata>
  <rdf:RDF xmlns:dc="http://purl.org/dc/elements/1.1/" xmlns:cc="http://creativecommons.org/ns#" xmlns:rdf="http://www.w3.org/1999/02/22-rdf-syntax-ns#">
   <cc:Work>
    <dc:type rdf:resource="http://purl.org/dc/dcmitype/StillImage"/>
    <dc:date>2024-04-25T13:14:34.610602</dc:date>
    <dc:format>image/svg+xml</dc:format>
    <dc:creator>
     <cc:Agent>
      <dc:title>Matplotlib v3.7.2, https://matplotlib.org/</dc:title>
     </cc:Agent>
    </dc:creator>
   </cc:Work>
  </rdf:RDF>
 </metadata>
 <defs>
  <style type="text/css">*{stroke-linejoin: round; stroke-linecap: butt}</style>
 </defs>
 <g id="figure_1">
  <g id="patch_1">
   <path d="M 0 345.6 
L 460.8 345.6 
L 460.8 0 
L 0 0 
z
" style="fill: #ffffff"/>
  </g>
  <g id="axes_1">
   <g id="patch_2">
    <path d="M 57.6 307.584 
L 414.72 307.584 
L 414.72 41.472 
L 57.6 41.472 
z
" style="fill: #ffffff"/>
   </g>
   <g id="matplotlib.axis_1">
    <g id="xtick_1">
     <g id="line2d_1">
      <defs>
       <path id="m2100bbcd74" d="M 0 0 
L 0 3.5 
" style="stroke: #000000; stroke-width: 0.8"/>
      </defs>
      <g>
       <use xlink:href="#m2100bbcd74" x="73.832727" y="307.584" style="stroke: #000000; stroke-width: 0.8"/>
      </g>
     </g>
     <g id="text_1">
      <!-- 0 -->
      <g transform="translate(70.651477 322.182437) scale(0.1 -0.1)">
       <defs>
        <path id="DejaVuSans-30" d="M 2034 4250 
Q 1547 4250 1301 3770 
Q 1056 3291 1056 2328 
Q 1056 1369 1301 889 
Q 1547 409 2034 409 
Q 2525 409 2770 889 
Q 3016 1369 3016 2328 
Q 3016 3291 2770 3770 
Q 2525 4250 2034 4250 
z
M 2034 4750 
Q 2819 4750 3233 4129 
Q 3647 3509 3647 2328 
Q 3647 1150 3233 529 
Q 2819 -91 2034 -91 
Q 1250 -91 836 529 
Q 422 1150 422 2328 
Q 422 3509 836 4129 
Q 1250 4750 2034 4750 
z
" transform="scale(0.015625)"/>
       </defs>
       <use xlink:href="#DejaVuSans-30"/>
      </g>
     </g>
    </g>
    <g id="xtick_2">
     <g id="line2d_2">
      <g>
       <use xlink:href="#m2100bbcd74" x="138.77013" y="307.584" style="stroke: #000000; stroke-width: 0.8"/>
      </g>
     </g>
     <g id="text_2">
      <!-- 2000 -->
      <g transform="translate(126.04513 322.182437) scale(0.1 -0.1)">
       <defs>
        <path id="DejaVuSans-32" d="M 1228 531 
L 3431 531 
L 3431 0 
L 469 0 
L 469 531 
Q 828 903 1448 1529 
Q 2069 2156 2228 2338 
Q 2531 2678 2651 2914 
Q 2772 3150 2772 3378 
Q 2772 3750 2511 3984 
Q 2250 4219 1831 4219 
Q 1534 4219 1204 4116 
Q 875 4013 500 3803 
L 500 4441 
Q 881 4594 1212 4672 
Q 1544 4750 1819 4750 
Q 2544 4750 2975 4387 
Q 3406 4025 3406 3419 
Q 3406 3131 3298 2873 
Q 3191 2616 2906 2266 
Q 2828 2175 2409 1742 
Q 1991 1309 1228 531 
z
" transform="scale(0.015625)"/>
       </defs>
       <use xlink:href="#DejaVuSans-32"/>
       <use xlink:href="#DejaVuSans-30" x="63.623047"/>
       <use xlink:href="#DejaVuSans-30" x="127.246094"/>
       <use xlink:href="#DejaVuSans-30" x="190.869141"/>
      </g>
     </g>
    </g>
    <g id="xtick_3">
     <g id="line2d_3">
      <g>
       <use xlink:href="#m2100bbcd74" x="203.707533" y="307.584" style="stroke: #000000; stroke-width: 0.8"/>
      </g>
     </g>
     <g id="text_3">
      <!-- 4000 -->
      <g transform="translate(190.982533 322.182437) scale(0.1 -0.1)">
       <defs>
        <path id="DejaVuSans-34" d="M 2419 4116 
L 825 1625 
L 2419 1625 
L 2419 4116 
z
M 2253 4666 
L 3047 4666 
L 3047 1625 
L 3713 1625 
L 3713 1100 
L 3047 1100 
L 3047 0 
L 2419 0 
L 2419 1100 
L 313 1100 
L 313 1709 
L 2253 4666 
z
" transform="scale(0.015625)"/>
       </defs>
       <use xlink:href="#DejaVuSans-34"/>
       <use xlink:href="#DejaVuSans-30" x="63.623047"/>
       <use xlink:href="#DejaVuSans-30" x="127.246094"/>
       <use xlink:href="#DejaVuSans-30" x="190.869141"/>
      </g>
     </g>
    </g>
    <g id="xtick_4">
     <g id="line2d_4">
      <g>
       <use xlink:href="#m2100bbcd74" x="268.644936" y="307.584" style="stroke: #000000; stroke-width: 0.8"/>
      </g>
     </g>
     <g id="text_4">
      <!-- 6000 -->
      <g transform="translate(255.919936 322.182437) scale(0.1 -0.1)">
       <defs>
        <path id="DejaVuSans-36" d="M 2113 2584 
Q 1688 2584 1439 2293 
Q 1191 2003 1191 1497 
Q 1191 994 1439 701 
Q 1688 409 2113 409 
Q 2538 409 2786 701 
Q 3034 994 3034 1497 
Q 3034 2003 2786 2293 
Q 2538 2584 2113 2584 
z
M 3366 4563 
L 3366 3988 
Q 3128 4100 2886 4159 
Q 2644 4219 2406 4219 
Q 1781 4219 1451 3797 
Q 1122 3375 1075 2522 
Q 1259 2794 1537 2939 
Q 1816 3084 2150 3084 
Q 2853 3084 3261 2657 
Q 3669 2231 3669 1497 
Q 3669 778 3244 343 
Q 2819 -91 2113 -91 
Q 1303 -91 875 529 
Q 447 1150 447 2328 
Q 447 3434 972 4092 
Q 1497 4750 2381 4750 
Q 2619 4750 2861 4703 
Q 3103 4656 3366 4563 
z
" transform="scale(0.015625)"/>
       </defs>
       <use xlink:href="#DejaVuSans-36"/>
       <use xlink:href="#DejaVuSans-30" x="63.623047"/>
       <use xlink:href="#DejaVuSans-30" x="127.246094"/>
       <use xlink:href="#DejaVuSans-30" x="190.869141"/>
      </g>
     </g>
    </g>
    <g id="xtick_5">
     <g id="line2d_5">
      <g>
       <use xlink:href="#m2100bbcd74" x="333.582339" y="307.584" style="stroke: #000000; stroke-width: 0.8"/>
      </g>
     </g>
     <g id="text_5">
      <!-- 8000 -->
      <g transform="translate(320.857339 322.182437) scale(0.1 -0.1)">
       <defs>
        <path id="DejaVuSans-38" d="M 2034 2216 
Q 1584 2216 1326 1975 
Q 1069 1734 1069 1313 
Q 1069 891 1326 650 
Q 1584 409 2034 409 
Q 2484 409 2743 651 
Q 3003 894 3003 1313 
Q 3003 1734 2745 1975 
Q 2488 2216 2034 2216 
z
M 1403 2484 
Q 997 2584 770 2862 
Q 544 3141 544 3541 
Q 544 4100 942 4425 
Q 1341 4750 2034 4750 
Q 2731 4750 3128 4425 
Q 3525 4100 3525 3541 
Q 3525 3141 3298 2862 
Q 3072 2584 2669 2484 
Q 3125 2378 3379 2068 
Q 3634 1759 3634 1313 
Q 3634 634 3220 271 
Q 2806 -91 2034 -91 
Q 1263 -91 848 271 
Q 434 634 434 1313 
Q 434 1759 690 2068 
Q 947 2378 1403 2484 
z
M 1172 3481 
Q 1172 3119 1398 2916 
Q 1625 2713 2034 2713 
Q 2441 2713 2670 2916 
Q 2900 3119 2900 3481 
Q 2900 3844 2670 4047 
Q 2441 4250 2034 4250 
Q 1625 4250 1398 4047 
Q 1172 3844 1172 3481 
z
" transform="scale(0.015625)"/>
       </defs>
       <use xlink:href="#DejaVuSans-38"/>
       <use xlink:href="#DejaVuSans-30" x="63.623047"/>
       <use xlink:href="#DejaVuSans-30" x="127.246094"/>
       <use xlink:href="#DejaVuSans-30" x="190.869141"/>
      </g>
     </g>
    </g>
    <g id="xtick_6">
     <g id="line2d_6">
      <g>
       <use xlink:href="#m2100bbcd74" x="398.519741" y="307.584" style="stroke: #000000; stroke-width: 0.8"/>
      </g>
     </g>
     <g id="text_6">
      <!-- 10000 -->
      <g transform="translate(382.613491 322.182437) scale(0.1 -0.1)">
       <defs>
        <path id="DejaVuSans-31" d="M 794 531 
L 1825 531 
L 1825 4091 
L 703 3866 
L 703 4441 
L 1819 4666 
L 2450 4666 
L 2450 531 
L 3481 531 
L 3481 0 
L 794 0 
L 794 531 
z
" transform="scale(0.015625)"/>
       </defs>
       <use xlink:href="#DejaVuSans-31"/>
       <use xlink:href="#DejaVuSans-30" x="63.623047"/>
       <use xlink:href="#DejaVuSans-30" x="127.246094"/>
       <use xlink:href="#DejaVuSans-30" x="190.869141"/>
       <use xlink:href="#DejaVuSans-30" x="254.492188"/>
      </g>
     </g>
    </g>
   </g>
   <g id="matplotlib.axis_2">
    <g id="ytick_1">
     <g id="line2d_7">
      <defs>
       <path id="m43dec14c0e" d="M 0 0 
L -3.5 0 
" style="stroke: #000000; stroke-width: 0.8"/>
      </defs>
      <g>
       <use xlink:href="#m43dec14c0e" x="57.6" y="295.488" style="stroke: #000000; stroke-width: 0.8"/>
      </g>
     </g>
     <g id="text_7">
      <!-- −300 -->
      <g transform="translate(23.132812 299.287219) scale(0.1 -0.1)">
       <defs>
        <path id="DejaVuSans-2212" d="M 678 2272 
L 4684 2272 
L 4684 1741 
L 678 1741 
L 678 2272 
z
" transform="scale(0.015625)"/>
        <path id="DejaVuSans-33" d="M 2597 2516 
Q 3050 2419 3304 2112 
Q 3559 1806 3559 1356 
Q 3559 666 3084 287 
Q 2609 -91 1734 -91 
Q 1441 -91 1130 -33 
Q 819 25 488 141 
L 488 750 
Q 750 597 1062 519 
Q 1375 441 1716 441 
Q 2309 441 2620 675 
Q 2931 909 2931 1356 
Q 2931 1769 2642 2001 
Q 2353 2234 1838 2234 
L 1294 2234 
L 1294 2753 
L 1863 2753 
Q 2328 2753 2575 2939 
Q 2822 3125 2822 3475 
Q 2822 3834 2567 4026 
Q 2313 4219 1838 4219 
Q 1578 4219 1281 4162 
Q 984 4106 628 3988 
L 628 4550 
Q 988 4650 1302 4700 
Q 1616 4750 1894 4750 
Q 2613 4750 3031 4423 
Q 3450 4097 3450 3541 
Q 3450 3153 3228 2886 
Q 3006 2619 2597 2516 
z
" transform="scale(0.015625)"/>
       </defs>
       <use xlink:href="#DejaVuSans-2212"/>
       <use xlink:href="#DejaVuSans-33" x="83.789062"/>
       <use xlink:href="#DejaVuSans-30" x="147.412109"/>
       <use xlink:href="#DejaVuSans-30" x="211.035156"/>
      </g>
     </g>
    </g>
    <g id="ytick_2">
     <g id="line2d_8">
      <g>
       <use xlink:href="#m43dec14c0e" x="57.6" y="264.709703" style="stroke: #000000; stroke-width: 0.8"/>
      </g>
     </g>
     <g id="text_8">
      <!-- −250 -->
      <g transform="translate(23.132812 268.508922) scale(0.1 -0.1)">
       <defs>
        <path id="DejaVuSans-35" d="M 691 4666 
L 3169 4666 
L 3169 4134 
L 1269 4134 
L 1269 2991 
Q 1406 3038 1543 3061 
Q 1681 3084 1819 3084 
Q 2600 3084 3056 2656 
Q 3513 2228 3513 1497 
Q 3513 744 3044 326 
Q 2575 -91 1722 -91 
Q 1428 -91 1123 -41 
Q 819 9 494 109 
L 494 744 
Q 775 591 1075 516 
Q 1375 441 1709 441 
Q 2250 441 2565 725 
Q 2881 1009 2881 1497 
Q 2881 1984 2565 2268 
Q 2250 2553 1709 2553 
Q 1456 2553 1204 2497 
Q 953 2441 691 2322 
L 691 4666 
z
" transform="scale(0.015625)"/>
       </defs>
       <use xlink:href="#DejaVuSans-2212"/>
       <use xlink:href="#DejaVuSans-32" x="83.789062"/>
       <use xlink:href="#DejaVuSans-35" x="147.412109"/>
       <use xlink:href="#DejaVuSans-30" x="211.035156"/>
      </g>
     </g>
    </g>
    <g id="ytick_3">
     <g id="line2d_9">
      <g>
       <use xlink:href="#m43dec14c0e" x="57.6" y="233.931406" style="stroke: #000000; stroke-width: 0.8"/>
      </g>
     </g>
     <g id="text_9">
      <!-- −200 -->
      <g transform="translate(23.132812 237.730625) scale(0.1 -0.1)">
       <use xlink:href="#DejaVuSans-2212"/>
       <use xlink:href="#DejaVuSans-32" x="83.789062"/>
       <use xlink:href="#DejaVuSans-30" x="147.412109"/>
       <use xlink:href="#DejaVuSans-30" x="211.035156"/>
      </g>
     </g>
    </g>
    <g id="ytick_4">
     <g id="line2d_10">
      <g>
       <use xlink:href="#m43dec14c0e" x="57.6" y="203.15311" style="stroke: #000000; stroke-width: 0.8"/>
      </g>
     </g>
     <g id="text_10">
      <!-- −150 -->
      <g transform="translate(23.132812 206.952328) scale(0.1 -0.1)">
       <use xlink:href="#DejaVuSans-2212"/>
       <use xlink:href="#DejaVuSans-31" x="83.789062"/>
       <use xlink:href="#DejaVuSans-35" x="147.412109"/>
       <use xlink:href="#DejaVuSans-30" x="211.035156"/>
      </g>
     </g>
    </g>
    <g id="ytick_5">
     <g id="line2d_11">
      <g>
       <use xlink:href="#m43dec14c0e" x="57.6" y="172.374813" style="stroke: #000000; stroke-width: 0.8"/>
      </g>
     </g>
     <g id="text_11">
      <!-- −100 -->
      <g transform="translate(23.132812 176.174032) scale(0.1 -0.1)">
       <use xlink:href="#DejaVuSans-2212"/>
       <use xlink:href="#DejaVuSans-31" x="83.789062"/>
       <use xlink:href="#DejaVuSans-30" x="147.412109"/>
       <use xlink:href="#DejaVuSans-30" x="211.035156"/>
      </g>
     </g>
    </g>
    <g id="ytick_6">
     <g id="line2d_12">
      <g>
       <use xlink:href="#m43dec14c0e" x="57.6" y="141.596516" style="stroke: #000000; stroke-width: 0.8"/>
      </g>
     </g>
     <g id="text_12">
      <!-- −50 -->
      <g transform="translate(29.495313 145.395735) scale(0.1 -0.1)">
       <use xlink:href="#DejaVuSans-2212"/>
       <use xlink:href="#DejaVuSans-35" x="83.789062"/>
       <use xlink:href="#DejaVuSans-30" x="147.412109"/>
      </g>
     </g>
    </g>
    <g id="ytick_7">
     <g id="line2d_13">
      <g>
       <use xlink:href="#m43dec14c0e" x="57.6" y="110.818219" style="stroke: #000000; stroke-width: 0.8"/>
      </g>
     </g>
     <g id="text_13">
      <!-- 0 -->
      <g transform="translate(44.2375 114.617438) scale(0.1 -0.1)">
       <use xlink:href="#DejaVuSans-30"/>
      </g>
     </g>
    </g>
    <g id="ytick_8">
     <g id="line2d_14">
      <g>
       <use xlink:href="#m43dec14c0e" x="57.6" y="80.039923" style="stroke: #000000; stroke-width: 0.8"/>
      </g>
     </g>
     <g id="text_14">
      <!-- 50 -->
      <g transform="translate(37.875 83.839141) scale(0.1 -0.1)">
       <use xlink:href="#DejaVuSans-35"/>
       <use xlink:href="#DejaVuSans-30" x="63.623047"/>
      </g>
     </g>
    </g>
    <g id="ytick_9">
     <g id="line2d_15">
      <g>
       <use xlink:href="#m43dec14c0e" x="57.6" y="49.261626" style="stroke: #000000; stroke-width: 0.8"/>
      </g>
     </g>
     <g id="text_15">
      <!-- 100 -->
      <g transform="translate(31.5125 53.060845) scale(0.1 -0.1)">
       <use xlink:href="#DejaVuSans-31"/>
       <use xlink:href="#DejaVuSans-30" x="63.623047"/>
       <use xlink:href="#DejaVuSans-30" x="127.246094"/>
      </g>
     </g>
    </g>
   </g>
   <g id="line2d_16">
    <path d="M 73.832727 105.469738 
L 73.865196 295.488 
L 73.897665 80.35411 
L 73.930133 109.688838 
L 73.962602 106.353988 
L 73.995071 81.356735 
L 74.060008 110.240574 
L 74.124946 106.095595 
L 74.157414 295.488 
L 74.222352 110.072224 
L 74.25482 112.35683 
L 74.287289 90.310299 
L 74.352226 91.945513 
L 74.384695 110.16724 
L 74.417164 295.488 
L 74.449633 104.922237 
L 74.482101 110.240574 
L 74.51457 109.995956 
L 74.547039 110.240574 
L 74.611976 87.335645 
L 74.676914 295.488 
L 74.709382 84.264566 
L 74.806788 110.16724 
L 74.839257 95.156454 
L 74.904194 106.567677 
L 75.001601 295.488 
L 75.034069 94.21822 
L 75.131475 96.466555 
L 75.163944 105.722807 
L 75.196413 92.078689 
L 75.228881 83.917197 
L 75.26135 88.830153 
L 75.293819 295.488 
L 75.358756 109.333491 
L 75.423694 95.593347 
L 75.456162 109.333491 
L 75.488631 106.567677 
L 75.5211 86.009711 
L 75.553568 110.240574 
L 75.618506 295.488 
L 75.650975 110.16724 
L 75.683443 88.042994 
L 75.748381 295.488 
L 75.780849 103.40326 
L 75.813318 111.689822 
L 75.845787 92.686851 
L 75.878255 295.488 
L 75.943193 111.423316 
L 76.105536 85.416394 
L 76.138005 110.16724 
L 76.202942 109.613687 
L 76.235411 96.059795 
L 76.332817 295.488 
L 76.365286 86.726473 
L 76.462692 106.567677 
L 76.495161 104.381175 
L 76.527629 295.488 
L 76.560098 88.382306 
L 76.592567 109.333491 
L 76.625036 108.697941 
L 76.657504 112.283605 
L 76.689973 295.488 
L 76.75491 106.353988 
L 76.787379 109.333491 
L 76.819848 107.115502 
L 76.852317 295.488 
L 76.917254 87.619637 
L 76.949723 108.230747 
L 77.01466 92.078689 
L 77.079597 295.488 
L 77.112066 110.16724 
L 77.177004 110.240574 
L 77.209472 94.572287 
L 77.339347 110.16724 
L 77.371816 104.381175 
L 77.469222 100.457417 
L 77.501691 295.488 
L 77.631565 74.258634 
L 77.76144 113.378657 
L 77.793909 106.307049 
L 77.923784 295.488 
L 77.956252 295.488 
L 77.988721 73.683303 
L 78.086127 118.061047 
L 78.118596 118.66254 
L 78.151065 160.223769 
L 78.216002 114.709475 
L 78.280939 113.849344 
L 78.313408 118.061047 
L 78.378345 108.507793 
L 78.443283 158.089473 
L 78.475752 160.223769 
L 78.573158 90.769884 
L 78.605626 93.267205 
L 78.638095 98.800461 
L 78.670564 87.892407 
L 78.703032 91.806768 
L 78.735501 92.078689 
L 78.76797 85.285231 
L 78.865376 105.703577 
L 78.897845 98.535685 
L 78.930313 98.535685 
L 78.995251 97.786288 
L 79.027719 105.703577 
L 79.125126 97.979744 
L 79.157594 98.535685 
L 79.190063 105.703577 
L 79.287469 103.843569 
L 79.417344 100.974639 
L 80.131655 101.017506 
L 80.293999 97.233437 
L 80.456342 104.695891 
L 80.488811 97.233437 
L 80.553748 100.16899 
L 80.683623 104.695891 
L 80.716092 104.695891 
L 80.845967 97.233437 
L 80.910904 100.16899 
L 80.943373 98.990224 
L 80.975842 96.719133 
L 81.00831 100.173988 
L 81.040779 99.730892 
L 81.073248 97.753726 
L 81.105716 103.688229 
L 81.203122 103.601406 
L 81.26806 97.622559 
L 81.332997 98.896199 
L 81.365466 96.80674 
L 81.397935 99.714386 
L 81.430403 101.258428 
L 81.560278 95.227453 
L 81.625216 96.18916 
L 81.690153 89.419955 
L 81.75509 88.123268 
L 81.787559 98.585195 
L 81.884965 91.413407 
L 81.949903 91.272011 
L 81.982371 99.094587 
L 82.01484 89.419955 
L 82.047309 90.223057 
L 82.079777 104.836692 
L 82.177184 102.865825 
L 82.209652 90.047875 
L 82.27459 97.426492 
L 82.307058 97.981817 
L 82.339527 93.311451 
L 82.404464 97.626776 
L 82.436933 95.96537 
L 82.469402 64.285613 
L 82.534339 67.458905 
L 82.599277 97.308221 
L 82.631745 79.748611 
L 82.664214 65.777704 
L 82.696683 86.511572 
L 82.729151 79.965453 
L 82.76162 86.95481 
L 82.826558 85.263208 
L 82.859026 68.596621 
L 82.956432 71.005358 
L 83.086307 91.989512 
L 83.118776 73.786911 
L 83.183713 83.594938 
L 83.313588 93.775701 
L 83.443463 71.761251 
L 83.5084 102.721437 
L 83.573338 88.806229 
L 83.703213 74.732176 
L 83.735681 84.643861 
L 83.800619 81.218004 
L 83.833087 70.99845 
L 83.865556 110.893907 
L 83.930493 84.643861 
L 83.962962 71.44757 
L 84.0279 83.880068 
L 84.092837 72.393751 
L 84.222712 91.210604 
L 84.320118 75.142402 
L 84.449993 92.156156 
L 84.482461 72.148524 
L 84.547399 96.828037 
L 84.579867 79.141715 
L 84.644805 77.277377 
L 84.709742 80.441774 
L 84.742211 58.744609 
L 84.807148 67.059129 
L 84.872086 74.010243 
L 84.904554 69.41409 
L 84.969492 56.421515 
L 85.066898 85.311089 
L 85.099367 61.139169 
L 85.164304 83.971431 
L 85.26171 64.380996 
L 85.229241 87.029163 
L 85.294179 66.587393 
L 85.456522 85.752974 
L 85.488991 86.779785 
L 85.553928 54.983718 
L 85.586397 84.730413 
L 85.618866 86.860194 
L 85.651335 84.958523 
L 85.748741 87.05613 
L 85.781209 69.646526 
L 85.813678 83.156016 
L 85.911084 81.315708 
L 85.943553 79.363952 
L 86.040959 88.643702 
L 86.105896 89.107145 
L 86.203303 77.360102 
L 86.333177 91.929261 
L 86.365646 85.034962 
L 86.398115 98.697818 
L 86.430583 100.013041 
L 86.52799 77.377698 
L 86.560458 86.215678 
L 86.592927 86.165121 
L 86.625396 88.075975 
L 86.657864 79.495533 
L 86.690333 90.031832 
L 86.722802 86.149057 
L 86.852677 86.165121 
L 86.885145 86.165121 
L 86.982551 70.051698 
L 87.01502 86.149057 
L 87.112426 86.117962 
L 87.144895 88.444549 
L 87.209832 86.133346 
L 87.339707 86.117962 
L 87.372176 87.297093 
L 87.437113 86.149057 
L 87.469582 66.217636 
L 87.502051 106.513122 
L 87.566988 71.390093 
L 87.599457 100.621217 
L 87.664394 68.726167 
L 87.696863 89.444444 
L 87.891675 69.804527 
L 88.02155 97.144453 
L 88.086487 99.560538 
L 88.151425 65.88528 
L 88.183893 90.479365 
L 88.281299 87.407498 
L 88.378706 74.371055 
L 88.443643 82.69458 
L 88.476112 79.595797 
L 88.541049 72.223022 
L 88.638455 72.536879 
L 88.670924 92.428978 
L 88.735861 85.704467 
L 88.76833 70.942822 
L 88.833267 90.48169 
L 88.865736 75.713434 
L 88.898205 73.227004 
L 88.963142 92.437197 
L 89.02808 89.50837 
L 89.060548 86.178571 
L 89.157954 77.90731 
L 89.190423 111.423316 
L 89.25536 88.839005 
L 89.352767 99.185383 
L 89.385235 106.718306 
L 89.417704 95.276672 
L 89.482641 96.550301 
L 89.547579 67.805536 
L 89.644985 64.419095 
L 89.677454 98.735669 
L 89.77486 65.546595 
L 89.937203 107.063367 
L 89.969672 84.903943 
L 90.067078 87.09908 
L 90.099547 108.841849 
L 90.196953 100.808432 
L 90.229421 56.448604 
L 90.294359 113.999236 
L 90.326828 84.430661 
L 90.391765 90.933868 
L 90.424234 98.97813 
L 90.456702 65.342745 
L 90.52164 98.564457 
L 90.586577 78.479941 
L 90.619046 83.009355 
L 90.651515 96.921402 
L 90.748921 95.902798 
L 90.846327 88.20491 
L 90.878796 90.911875 
L 90.911264 92.071796 
L 90.943733 56.318021 
L 91.041139 61.887901 
L 91.171014 101.414033 
L 91.203483 73.586116 
L 91.26842 97.99945 
L 91.300889 98.005915 
L 91.365826 71.266599 
L 91.398295 110.89363 
L 91.495701 110.099864 
L 91.593107 85.343986 
L 91.625576 108.668489 
L 91.658044 107.824074 
L 91.690513 67.014456 
L 91.75545 92.563988 
L 91.787919 94.585713 
L 91.852857 70.616444 
L 91.885325 96.22041 
L 91.917794 99.902976 
L 91.950263 75.432812 
L 92.0152 93.399969 
L 92.047669 95.949057 
L 92.145075 63.669688 
L 92.177544 66.238161 
L 92.210012 101.305891 
L 92.242481 60.802019 
L 92.27495 99.658182 
L 92.372356 53.58076 
L 92.404824 57.65773 
L 92.534699 109.98376 
L 92.664574 54.638737 
L 92.729511 97.754553 
L 92.794449 77.815955 
L 92.826918 53.568 
L 92.859386 82.371173 
L 92.891855 64.723112 
L 92.924324 111.506586 
L 92.989261 103.250152 
L 93.02173 60.046581 
L 93.086667 97.847584 
L 93.216542 65.395576 
L 93.249011 75.300694 
L 93.346417 104.798079 
L 93.411354 60.696002 
L 93.476292 77.965 
L 93.50876 78.677895 
L 93.541229 62.801412 
L 93.573698 84.927452 
L 93.606166 98.101123 
L 93.671104 81.583672 
L 93.703573 97.712169 
L 93.736041 64.263714 
L 93.800979 87.515886 
L 93.898385 83.301668 
L 93.930853 89.09066 
L 93.995791 83.511202 
L 94.02826 81.486595 
L 94.060728 86.150461 
L 94.125666 100.760854 
L 94.158134 60.91208 
L 94.223072 85.579433 
L 94.25554 80.943632 
L 94.288009 84.74898 
L 94.385415 105.629038 
L 94.51529 73.677949 
L 94.645165 94.016273 
L 94.742571 88.022705 
L 94.77504 89.852815 
L 94.807508 92.236251 
L 94.839977 91.943482 
L 94.872446 80.962147 
L 94.937383 95.52346 
L 95.034789 89.616296 
L 95.164664 62.244366 
L 95.229602 89.947934 
L 95.294539 89.041215 
L 95.424414 60.673451 
L 95.489351 61.98917 
L 95.52182 59.675102 
L 95.619226 94.207986 
L 95.684163 88.36413 
L 95.716632 86.856679 
L 95.749101 87.543847 
L 95.781569 92.289159 
L 95.814038 89.669133 
L 95.846507 77.854411 
L 95.878976 90.112094 
L 95.911444 85.54996 
L 96.041319 106.777581 
L 95.976382 84.48642 
L 96.073788 97.303339 
L 96.106256 59.675102 
L 96.171194 60.183937 
L 96.301069 92.955365 
L 96.333537 58.693433 
L 96.398475 97.735211 
L 96.52835 82.341725 
L 96.560818 84.232685 
L 96.593287 80.338194 
L 96.625756 82.171294 
L 96.658224 70.503735 
L 96.690693 82.672001 
L 96.723162 80.338194 
L 96.75563 80.338194 
L 96.788099 85.944754 
L 96.885505 83.729343 
L 96.917974 80.338194 
L 97.01538 80.772309 
L 97.112786 83.193269 
L 97.080317 80.338194 
L 97.145255 82.171294 
L 97.177724 81.222118 
L 97.210192 83.898932 
L 97.27513 81.351135 
L 97.307598 81.68823 
L 97.340067 80.338194 
L 97.372536 95.81252 
L 97.437473 79.9192 
L 97.469942 80.772309 
L 97.534879 99.645493 
L 97.599817 91.544752 
L 97.664754 94.680691 
L 97.697223 81.234726 
L 97.827098 102.658902 
L 97.859566 104.776734 
L 97.892035 100.141335 
L 97.924504 102.704208 
L 97.989441 76.58427 
L 98.054379 87.770829 
L 98.119316 112.283605 
L 98.184253 65.929331 
L 98.249191 69.005821 
L 98.379066 112.283605 
L 98.411534 60.117638 
L 98.476472 79.191812 
L 98.573878 112.35683 
L 98.671284 64.033336 
L 98.703753 68.980318 
L 98.866096 85.80868 
L 98.898565 65.463813 
L 98.931033 109.068519 
L 98.963502 81.60918 
L 98.995971 78.747713 
L 99.02844 112.283605 
L 99.093377 104.099635 
L 99.158314 68.851822 
L 99.223252 81.082324 
L 99.288189 108.409238 
L 99.320658 73.992978 
L 99.353127 107.831164 
L 99.385595 295.488 
L 99.418064 105.171808 
L 99.450533 107.899442 
L 99.483001 107.899442 
L 99.51547 103.872982 
L 99.547939 295.488 
L 99.612876 107.899442 
L 99.645345 109.333491 
L 99.742751 295.488 
L 99.872626 107.899442 
L 99.937563 106.513122 
L 99.970032 295.488 
L 100.067438 107.899442 
L 100.099907 110.746711 
L 100.132375 295.488 
L 100.197313 107.899442 
L 100.229782 107.899442 
L 100.26225 112.283605 
L 100.359656 295.488 
L 100.424594 109.333491 
L 100.457062 295.488 
L 100.522 295.488 
L 100.554469 107.899442 
L 100.619406 109.333491 
L 100.749281 295.488 
L 100.781749 112.283605 
L 100.846687 295.488 
L 100.911624 295.488 
L 101.041499 109.333491 
L 101.073968 109.333491 
L 101.203843 295.488 
L 101.236311 295.488 
L 101.26878 109.333491 
L 101.333717 295.488 
L 101.366186 295.488 
L 101.496061 107.899442 
L 101.52853 109.333491 
L 101.658404 295.488 
L 101.75581 64.505844 
L 101.885685 295.488 
L 102.01556 107.899442 
L 102.145435 295.488 
L 102.210372 295.488 
L 102.307778 106.513122 
L 102.340247 109.333491 
L 102.470122 295.488 
L 102.664934 295.488 
L 102.76234 109.333491 
L 102.892215 295.488 
L 102.924684 109.333491 
L 102.989621 295.488 
L 103.054559 295.488 
L 103.184433 109.333491 
L 103.216902 109.333491 
L 103.346777 295.488 
L 103.476652 107.899442 
L 103.50912 109.333491 
L 103.638995 295.488 
L 103.671464 295.488 
L 103.76887 107.899442 
L 103.898745 295.488 
L 103.963682 295.488 
L 104.093557 107.831164 
L 104.126026 109.333491 
L 104.2559 295.488 
L 104.288369 107.899442 
L 104.353307 295.488 
L 104.385775 295.488 
L 104.51565 107.899442 
L 104.580588 109.333491 
L 104.677994 295.488 
L 104.742931 109.333491 
L 104.7754 295.488 
L 104.872806 295.488 
L 104.970212 109.333491 
L 105.035149 295.488 
L 105.067618 109.333491 
L 105.132555 109.333491 
L 105.26243 295.488 
L 105.294899 295.488 
L 105.424774 109.333491 
L 105.457242 109.333491 
L 105.554649 295.488 
L 105.684523 109.333491 
L 105.814398 295.488 
L 105.846867 109.333491 
L 105.911804 295.488 
L 106.00921 295.488 
L 106.074148 107.899442 
L 106.139085 109.333491 
L 106.204023 105.171808 
L 106.26896 295.488 
L 106.366366 107.899442 
L 106.496241 295.488 
L 106.561178 106.513122 
L 106.593647 107.899442 
L 106.658584 295.488 
L 106.691053 109.333491 
L 106.723522 109.333491 
L 106.820928 295.488 
L 106.853397 109.333491 
L 106.918334 295.488 
L 107.048209 295.488 
L 107.080678 109.333491 
L 107.145615 295.488 
L 107.178084 295.488 
L 107.210552 109.333491 
L 107.27549 295.488 
L 107.307958 295.488 
L 107.340427 107.899442 
L 107.405365 295.488 
L 107.600177 295.488 
L 107.632645 107.899442 
L 107.697583 295.488 
L 107.730052 295.488 
L 107.859926 109.333491 
L 107.989801 295.488 
L 108.054739 295.488 
L 108.119676 107.899442 
L 108.152145 109.333491 
L 108.282019 295.488 
L 108.411894 295.488 
L 108.541769 107.899442 
L 108.671644 295.488 
L 108.898925 295.488 
L 109.0288 107.899442 
L 109.126206 295.488 
L 109.223612 105.171808 
L 109.353487 295.488 
L 109.450893 295.488 
L 109.580768 109.333491 
L 109.710642 295.488 
L 109.77558 295.488 
L 109.808048 107.899442 
L 109.872986 295.488 
L 109.970392 295.488 
L 110.002861 107.899442 
L 110.067798 295.488 
L 110.489891 295.488 
L 110.52236 109.333491 
L 110.587297 295.488 
L 111.041859 295.488 
L 111.074328 109.333491 
L 111.139265 295.488 
L 111.496421 295.488 
L 111.593827 107.899442 
L 111.723702 295.488 
L 111.853577 295.488 
L 111.886045 109.333491 
L 111.950983 295.488 
L 111.983451 295.488 
L 112.01592 107.899442 
L 112.113326 109.333491 
L 112.243201 295.488 
L 112.308138 295.488 
L 112.340607 109.333491 
L 112.405545 295.488 
L 112.438013 295.488 
L 112.470482 109.333491 
L 112.535419 295.488 
L 112.600357 295.488 
L 112.665294 109.333491 
L 112.697763 295.488 
L 112.7627 295.488 
L 112.795169 109.333491 
L 112.860106 295.488 
L 113.02245 295.488 
L 113.152325 109.333491 
L 113.217262 109.333491 
L 113.249731 295.488 
L 113.314668 109.333491 
L 113.379606 107.899442 
L 113.412074 295.488 
L 113.477012 106.513122 
L 113.541949 109.333491 
L 113.606887 107.899442 
L 113.671824 295.488 
L 113.704293 107.899442 
L 113.76923 109.333491 
L 113.899105 295.488 
L 114.02898 109.333491 
L 114.158854 295.488 
L 114.191323 107.899442 
L 114.256261 295.488 
L 114.418604 295.488 
L 114.548479 107.899442 
L 114.580948 107.899442 
L 114.613416 109.333491 
L 114.645885 107.899442 
L 114.710822 295.488 
L 114.743291 106.513122 
L 114.77576 106.513122 
L 114.808228 109.333491 
L 114.905635 107.899442 
L 114.938103 295.488 
L 114.970572 107.899442 
L 115.035509 295.488 
L 115.230322 295.488 
L 115.26279 109.333491 
L 115.327728 295.488 
L 115.392665 295.488 
L 115.425134 109.333491 
L 115.490071 295.488 
L 116.139445 295.488 
L 116.204383 109.333491 
L 116.236851 295.488 
L 116.26932 295.488 
L 116.301789 109.333491 
L 116.366726 295.488 
L 117.633005 295.488 
L 117.730412 109.333491 
L 117.860286 295.488 
L 118.542129 295.488 
L 118.607067 109.333491 
L 118.639535 295.488 
L 118.931754 295.488 
L 118.964222 109.333491 
L 119.02916 295.488 
L 119.711002 295.488 
L 119.743471 109.333491 
L 119.808408 295.488 
L 120.457783 295.488 
L 120.490251 109.333491 
L 120.555189 295.488 
L 121.464312 295.488 
L 121.496781 109.333491 
L 121.561718 295.488 
L 125.425494 295.488 
L 125.457963 109.333491 
L 125.5229 295.488 
L 126.886585 295.488 
L 126.919054 109.333491 
L 126.983991 295.488 
L 398.487273 295.488 
L 398.487273 295.488 
" clip-path="url(#pe87116e754)" style="fill: none; stroke: #1f77b4; stroke-width: 1.5; stroke-linecap: square"/>
   </g>
   <g id="patch_3">
    <path d="M 57.6 307.584 
L 57.6 41.472 
" style="fill: none; stroke: #000000; stroke-width: 0.8; stroke-linejoin: miter; stroke-linecap: square"/>
   </g>
   <g id="patch_4">
    <path d="M 414.72 307.584 
L 414.72 41.472 
" style="fill: none; stroke: #000000; stroke-width: 0.8; stroke-linejoin: miter; stroke-linecap: square"/>
   </g>
   <g id="patch_5">
    <path d="M 57.6 307.584 
L 414.72 307.584 
" style="fill: none; stroke: #000000; stroke-width: 0.8; stroke-linejoin: miter; stroke-linecap: square"/>
   </g>
   <g id="patch_6">
    <path d="M 57.6 41.472 
L 414.72 41.472 
" style="fill: none; stroke: #000000; stroke-width: 0.8; stroke-linejoin: miter; stroke-linecap: square"/>
   </g>
  </g>
 </g>
 <defs>
  <clipPath id="pe87116e754">
   <rect x="57.6" y="41.472" width="357.12" height="266.112"/>
  </clipPath>
 </defs>
</svg>
