<?xml version="1.0" encoding="utf-8" standalone="no"?>
<!DOCTYPE svg PUBLIC "-//W3C//DTD SVG 1.1//EN"
  "http://www.w3.org/Graphics/SVG/1.1/DTD/svg11.dtd">
<svg xmlns:xlink="http://www.w3.org/1999/xlink" width="460.8pt" height="345.6pt" viewBox="0 0 460.8 345.6" xmlns="http://www.w3.org/2000/svg" version="1.1">
 <metadata>
  <rdf:RDF xmlns:dc="http://purl.org/dc/elements/1.1/" xmlns:cc="http://creativecommons.org/ns#" xmlns:rdf="http://www.w3.org/1999/02/22-rdf-syntax-ns#">
   <cc:Work>
    <dc:type rdf:resource="http://purl.org/dc/dcmitype/StillImage"/>
    <dc:date>2024-04-25T16:42:45.605763</dc:date>
    <dc:format>image/svg+xml</dc:format>
    <dc:creator>
     <cc:Agent>
      <dc:title>Matplotlib v3.7.2, https://matplotlib.org/</dc:title>
     </cc:Agent>
    </dc:creator>
   </cc:Work>
  </rdf:RDF>
 </metadata>
 <defs>
  <style type="text/css">*{stroke-linejoin: round; stroke-linecap: butt}</style>
 </defs>
 <g id="figure_1">
  <g id="patch_1">
   <path d="M 0 345.6 
L 460.8 345.6 
L 460.8 0 
L 0 0 
z
" style="fill: #ffffff"/>
  </g>
  <g id="axes_1">
   <g id="patch_2">
    <path d="M 57.6 307.584 
L 414.72 307.584 
L 414.72 41.472 
L 57.6 41.472 
z
" style="fill: #ffffff"/>
   </g>
   <g id="matplotlib.axis_1">
    <g id="xtick_1">
     <g id="line2d_1">
      <defs>
       <path id="m4ba75e9e9f" d="M 0 0 
L 0 3.5 
" style="stroke: #000000; stroke-width: 0.8"/>
      </defs>
      <g>
       <use xlink:href="#m4ba75e9e9f" x="73.832727" y="307.584" style="stroke: #000000; stroke-width: 0.8"/>
      </g>
     </g>
     <g id="text_1">
      <!-- 0 -->
      <g transform="translate(70.651477 322.182437) scale(0.1 -0.1)">
       <defs>
        <path id="DejaVuSans-30" d="M 2034 4250 
Q 1547 4250 1301 3770 
Q 1056 3291 1056 2328 
Q 1056 1369 1301 889 
Q 1547 409 2034 409 
Q 2525 409 2770 889 
Q 3016 1369 3016 2328 
Q 3016 3291 2770 3770 
Q 2525 4250 2034 4250 
z
M 2034 4750 
Q 2819 4750 3233 4129 
Q 3647 3509 3647 2328 
Q 3647 1150 3233 529 
Q 2819 -91 2034 -91 
Q 1250 -91 836 529 
Q 422 1150 422 2328 
Q 422 3509 836 4129 
Q 1250 4750 2034 4750 
z
" transform="scale(0.015625)"/>
       </defs>
       <use xlink:href="#DejaVuSans-30"/>
      </g>
     </g>
    </g>
    <g id="xtick_2">
     <g id="line2d_2">
      <g>
       <use xlink:href="#m4ba75e9e9f" x="138.77013" y="307.584" style="stroke: #000000; stroke-width: 0.8"/>
      </g>
     </g>
     <g id="text_2">
      <!-- 2000 -->
      <g transform="translate(126.04513 322.182437) scale(0.1 -0.1)">
       <defs>
        <path id="DejaVuSans-32" d="M 1228 531 
L 3431 531 
L 3431 0 
L 469 0 
L 469 531 
Q 828 903 1448 1529 
Q 2069 2156 2228 2338 
Q 2531 2678 2651 2914 
Q 2772 3150 2772 3378 
Q 2772 3750 2511 3984 
Q 2250 4219 1831 4219 
Q 1534 4219 1204 4116 
Q 875 4013 500 3803 
L 500 4441 
Q 881 4594 1212 4672 
Q 1544 4750 1819 4750 
Q 2544 4750 2975 4387 
Q 3406 4025 3406 3419 
Q 3406 3131 3298 2873 
Q 3191 2616 2906 2266 
Q 2828 2175 2409 1742 
Q 1991 1309 1228 531 
z
" transform="scale(0.015625)"/>
       </defs>
       <use xlink:href="#DejaVuSans-32"/>
       <use xlink:href="#DejaVuSans-30" x="63.623047"/>
       <use xlink:href="#DejaVuSans-30" x="127.246094"/>
       <use xlink:href="#DejaVuSans-30" x="190.869141"/>
      </g>
     </g>
    </g>
    <g id="xtick_3">
     <g id="line2d_3">
      <g>
       <use xlink:href="#m4ba75e9e9f" x="203.707533" y="307.584" style="stroke: #000000; stroke-width: 0.8"/>
      </g>
     </g>
     <g id="text_3">
      <!-- 4000 -->
      <g transform="translate(190.982533 322.182437) scale(0.1 -0.1)">
       <defs>
        <path id="DejaVuSans-34" d="M 2419 4116 
L 825 1625 
L 2419 1625 
L 2419 4116 
z
M 2253 4666 
L 3047 4666 
L 3047 1625 
L 3713 1625 
L 3713 1100 
L 3047 1100 
L 3047 0 
L 2419 0 
L 2419 1100 
L 313 1100 
L 313 1709 
L 2253 4666 
z
" transform="scale(0.015625)"/>
       </defs>
       <use xlink:href="#DejaVuSans-34"/>
       <use xlink:href="#DejaVuSans-30" x="63.623047"/>
       <use xlink:href="#DejaVuSans-30" x="127.246094"/>
       <use xlink:href="#DejaVuSans-30" x="190.869141"/>
      </g>
     </g>
    </g>
    <g id="xtick_4">
     <g id="line2d_4">
      <g>
       <use xlink:href="#m4ba75e9e9f" x="268.644936" y="307.584" style="stroke: #000000; stroke-width: 0.8"/>
      </g>
     </g>
     <g id="text_4">
      <!-- 6000 -->
      <g transform="translate(255.919936 322.182437) scale(0.1 -0.1)">
       <defs>
        <path id="DejaVuSans-36" d="M 2113 2584 
Q 1688 2584 1439 2293 
Q 1191 2003 1191 1497 
Q 1191 994 1439 701 
Q 1688 409 2113 409 
Q 2538 409 2786 701 
Q 3034 994 3034 1497 
Q 3034 2003 2786 2293 
Q 2538 2584 2113 2584 
z
M 3366 4563 
L 3366 3988 
Q 3128 4100 2886 4159 
Q 2644 4219 2406 4219 
Q 1781 4219 1451 3797 
Q 1122 3375 1075 2522 
Q 1259 2794 1537 2939 
Q 1816 3084 2150 3084 
Q 2853 3084 3261 2657 
Q 3669 2231 3669 1497 
Q 3669 778 3244 343 
Q 2819 -91 2113 -91 
Q 1303 -91 875 529 
Q 447 1150 447 2328 
Q 447 3434 972 4092 
Q 1497 4750 2381 4750 
Q 2619 4750 2861 4703 
Q 3103 4656 3366 4563 
z
" transform="scale(0.015625)"/>
       </defs>
       <use xlink:href="#DejaVuSans-36"/>
       <use xlink:href="#DejaVuSans-30" x="63.623047"/>
       <use xlink:href="#DejaVuSans-30" x="127.246094"/>
       <use xlink:href="#DejaVuSans-30" x="190.869141"/>
      </g>
     </g>
    </g>
    <g id="xtick_5">
     <g id="line2d_5">
      <g>
       <use xlink:href="#m4ba75e9e9f" x="333.582339" y="307.584" style="stroke: #000000; stroke-width: 0.8"/>
      </g>
     </g>
     <g id="text_5">
      <!-- 8000 -->
      <g transform="translate(320.857339 322.182437) scale(0.1 -0.1)">
       <defs>
        <path id="DejaVuSans-38" d="M 2034 2216 
Q 1584 2216 1326 1975 
Q 1069 1734 1069 1313 
Q 1069 891 1326 650 
Q 1584 409 2034 409 
Q 2484 409 2743 651 
Q 3003 894 3003 1313 
Q 3003 1734 2745 1975 
Q 2488 2216 2034 2216 
z
M 1403 2484 
Q 997 2584 770 2862 
Q 544 3141 544 3541 
Q 544 4100 942 4425 
Q 1341 4750 2034 4750 
Q 2731 4750 3128 4425 
Q 3525 4100 3525 3541 
Q 3525 3141 3298 2862 
Q 3072 2584 2669 2484 
Q 3125 2378 3379 2068 
Q 3634 1759 3634 1313 
Q 3634 634 3220 271 
Q 2806 -91 2034 -91 
Q 1263 -91 848 271 
Q 434 634 434 1313 
Q 434 1759 690 2068 
Q 947 2378 1403 2484 
z
M 1172 3481 
Q 1172 3119 1398 2916 
Q 1625 2713 2034 2713 
Q 2441 2713 2670 2916 
Q 2900 3119 2900 3481 
Q 2900 3844 2670 4047 
Q 2441 4250 2034 4250 
Q 1625 4250 1398 4047 
Q 1172 3844 1172 3481 
z
" transform="scale(0.015625)"/>
       </defs>
       <use xlink:href="#DejaVuSans-38"/>
       <use xlink:href="#DejaVuSans-30" x="63.623047"/>
       <use xlink:href="#DejaVuSans-30" x="127.246094"/>
       <use xlink:href="#DejaVuSans-30" x="190.869141"/>
      </g>
     </g>
    </g>
    <g id="xtick_6">
     <g id="line2d_6">
      <g>
       <use xlink:href="#m4ba75e9e9f" x="398.519741" y="307.584" style="stroke: #000000; stroke-width: 0.8"/>
      </g>
     </g>
     <g id="text_6">
      <!-- 10000 -->
      <g transform="translate(382.613491 322.182437) scale(0.1 -0.1)">
       <defs>
        <path id="DejaVuSans-31" d="M 794 531 
L 1825 531 
L 1825 4091 
L 703 3866 
L 703 4441 
L 1819 4666 
L 2450 4666 
L 2450 531 
L 3481 531 
L 3481 0 
L 794 0 
L 794 531 
z
" transform="scale(0.015625)"/>
       </defs>
       <use xlink:href="#DejaVuSans-31"/>
       <use xlink:href="#DejaVuSans-30" x="63.623047"/>
       <use xlink:href="#DejaVuSans-30" x="127.246094"/>
       <use xlink:href="#DejaVuSans-30" x="190.869141"/>
       <use xlink:href="#DejaVuSans-30" x="254.492188"/>
      </g>
     </g>
    </g>
   </g>
   <g id="matplotlib.axis_2">
    <g id="ytick_1">
     <g id="line2d_7">
      <defs>
       <path id="ma0be4e0e38" d="M 0 0 
L -3.5 0 
" style="stroke: #000000; stroke-width: 0.8"/>
      </defs>
      <g>
       <use xlink:href="#ma0be4e0e38" x="57.6" y="295.488" style="stroke: #000000; stroke-width: 0.8"/>
      </g>
     </g>
     <g id="text_7">
      <!-- −300 -->
      <g transform="translate(23.132812 299.287219) scale(0.1 -0.1)">
       <defs>
        <path id="DejaVuSans-2212" d="M 678 2272 
L 4684 2272 
L 4684 1741 
L 678 1741 
L 678 2272 
z
" transform="scale(0.015625)"/>
        <path id="DejaVuSans-33" d="M 2597 2516 
Q 3050 2419 3304 2112 
Q 3559 1806 3559 1356 
Q 3559 666 3084 287 
Q 2609 -91 1734 -91 
Q 1441 -91 1130 -33 
Q 819 25 488 141 
L 488 750 
Q 750 597 1062 519 
Q 1375 441 1716 441 
Q 2309 441 2620 675 
Q 2931 909 2931 1356 
Q 2931 1769 2642 2001 
Q 2353 2234 1838 2234 
L 1294 2234 
L 1294 2753 
L 1863 2753 
Q 2328 2753 2575 2939 
Q 2822 3125 2822 3475 
Q 2822 3834 2567 4026 
Q 2313 4219 1838 4219 
Q 1578 4219 1281 4162 
Q 984 4106 628 3988 
L 628 4550 
Q 988 4650 1302 4700 
Q 1616 4750 1894 4750 
Q 2613 4750 3031 4423 
Q 3450 4097 3450 3541 
Q 3450 3153 3228 2886 
Q 3006 2619 2597 2516 
z
" transform="scale(0.015625)"/>
       </defs>
       <use xlink:href="#DejaVuSans-2212"/>
       <use xlink:href="#DejaVuSans-33" x="83.789062"/>
       <use xlink:href="#DejaVuSans-30" x="147.412109"/>
       <use xlink:href="#DejaVuSans-30" x="211.035156"/>
      </g>
     </g>
    </g>
    <g id="ytick_2">
     <g id="line2d_8">
      <g>
       <use xlink:href="#ma0be4e0e38" x="57.6" y="265.063994" style="stroke: #000000; stroke-width: 0.8"/>
      </g>
     </g>
     <g id="text_8">
      <!-- −250 -->
      <g transform="translate(23.132812 268.863213) scale(0.1 -0.1)">
       <defs>
        <path id="DejaVuSans-35" d="M 691 4666 
L 3169 4666 
L 3169 4134 
L 1269 4134 
L 1269 2991 
Q 1406 3038 1543 3061 
Q 1681 3084 1819 3084 
Q 2600 3084 3056 2656 
Q 3513 2228 3513 1497 
Q 3513 744 3044 326 
Q 2575 -91 1722 -91 
Q 1428 -91 1123 -41 
Q 819 9 494 109 
L 494 744 
Q 775 591 1075 516 
Q 1375 441 1709 441 
Q 2250 441 2565 725 
Q 2881 1009 2881 1497 
Q 2881 1984 2565 2268 
Q 2250 2553 1709 2553 
Q 1456 2553 1204 2497 
Q 953 2441 691 2322 
L 691 4666 
z
" transform="scale(0.015625)"/>
       </defs>
       <use xlink:href="#DejaVuSans-2212"/>
       <use xlink:href="#DejaVuSans-32" x="83.789062"/>
       <use xlink:href="#DejaVuSans-35" x="147.412109"/>
       <use xlink:href="#DejaVuSans-30" x="211.035156"/>
      </g>
     </g>
    </g>
    <g id="ytick_3">
     <g id="line2d_9">
      <g>
       <use xlink:href="#ma0be4e0e38" x="57.6" y="234.639989" style="stroke: #000000; stroke-width: 0.8"/>
      </g>
     </g>
     <g id="text_9">
      <!-- −200 -->
      <g transform="translate(23.132812 238.439207) scale(0.1 -0.1)">
       <use xlink:href="#DejaVuSans-2212"/>
       <use xlink:href="#DejaVuSans-32" x="83.789062"/>
       <use xlink:href="#DejaVuSans-30" x="147.412109"/>
       <use xlink:href="#DejaVuSans-30" x="211.035156"/>
      </g>
     </g>
    </g>
    <g id="ytick_4">
     <g id="line2d_10">
      <g>
       <use xlink:href="#ma0be4e0e38" x="57.6" y="204.215983" style="stroke: #000000; stroke-width: 0.8"/>
      </g>
     </g>
     <g id="text_10">
      <!-- −150 -->
      <g transform="translate(23.132812 208.015202) scale(0.1 -0.1)">
       <use xlink:href="#DejaVuSans-2212"/>
       <use xlink:href="#DejaVuSans-31" x="83.789062"/>
       <use xlink:href="#DejaVuSans-35" x="147.412109"/>
       <use xlink:href="#DejaVuSans-30" x="211.035156"/>
      </g>
     </g>
    </g>
    <g id="ytick_5">
     <g id="line2d_11">
      <g>
       <use xlink:href="#ma0be4e0e38" x="57.6" y="173.791977" style="stroke: #000000; stroke-width: 0.8"/>
      </g>
     </g>
     <g id="text_11">
      <!-- −100 -->
      <g transform="translate(23.132812 177.591196) scale(0.1 -0.1)">
       <use xlink:href="#DejaVuSans-2212"/>
       <use xlink:href="#DejaVuSans-31" x="83.789062"/>
       <use xlink:href="#DejaVuSans-30" x="147.412109"/>
       <use xlink:href="#DejaVuSans-30" x="211.035156"/>
      </g>
     </g>
    </g>
    <g id="ytick_6">
     <g id="line2d_12">
      <g>
       <use xlink:href="#ma0be4e0e38" x="57.6" y="143.367972" style="stroke: #000000; stroke-width: 0.8"/>
      </g>
     </g>
     <g id="text_12">
      <!-- −50 -->
      <g transform="translate(29.495313 147.16719) scale(0.1 -0.1)">
       <use xlink:href="#DejaVuSans-2212"/>
       <use xlink:href="#DejaVuSans-35" x="83.789062"/>
       <use xlink:href="#DejaVuSans-30" x="147.412109"/>
      </g>
     </g>
    </g>
    <g id="ytick_7">
     <g id="line2d_13">
      <g>
       <use xlink:href="#ma0be4e0e38" x="57.6" y="112.943966" style="stroke: #000000; stroke-width: 0.8"/>
      </g>
     </g>
     <g id="text_13">
      <!-- 0 -->
      <g transform="translate(44.2375 116.743185) scale(0.1 -0.1)">
       <use xlink:href="#DejaVuSans-30"/>
      </g>
     </g>
    </g>
    <g id="ytick_8">
     <g id="line2d_14">
      <g>
       <use xlink:href="#ma0be4e0e38" x="57.6" y="82.51996" style="stroke: #000000; stroke-width: 0.8"/>
      </g>
     </g>
     <g id="text_14">
      <!-- 50 -->
      <g transform="translate(37.875 86.319179) scale(0.1 -0.1)">
       <use xlink:href="#DejaVuSans-35"/>
       <use xlink:href="#DejaVuSans-30" x="63.623047"/>
      </g>
     </g>
    </g>
    <g id="ytick_9">
     <g id="line2d_15">
      <g>
       <use xlink:href="#ma0be4e0e38" x="57.6" y="52.095955" style="stroke: #000000; stroke-width: 0.8"/>
      </g>
     </g>
     <g id="text_15">
      <!-- 100 -->
      <g transform="translate(31.5125 55.895173) scale(0.1 -0.1)">
       <use xlink:href="#DejaVuSans-31"/>
       <use xlink:href="#DejaVuSans-30" x="63.623047"/>
       <use xlink:href="#DejaVuSans-30" x="127.246094"/>
      </g>
     </g>
    </g>
   </g>
   <g id="line2d_16">
    <path d="M 73.832727 107.657051 
L 73.865196 295.488 
L 73.897665 82.830531 
L 73.930133 111.827585 
L 73.962602 108.531123 
L 73.995071 83.821615 
L 74.060008 112.37297 
L 74.124946 108.275704 
L 74.157414 295.488 
L 74.222352 112.206558 
L 74.25482 114.464865 
L 74.287289 92.672114 
L 74.352226 94.288504 
L 74.384695 112.30048 
L 74.417164 295.488 
L 74.449633 107.115853 
L 74.482101 112.37297 
L 74.51457 112.131168 
L 74.547039 112.37297 
L 74.611976 89.731702 
L 74.676914 295.488 
L 74.709382 86.695973 
L 74.806788 112.30048 
L 74.839257 97.462484 
L 74.904194 108.742352 
L 75.001601 295.488 
L 75.034069 96.53505 
L 75.131475 98.757505 
L 75.163944 107.907208 
L 75.196413 94.420148 
L 75.228881 86.352603 
L 75.26135 91.209006 
L 75.293819 295.488 
L 75.358756 111.476329 
L 75.423694 97.894348 
L 75.456162 111.476329 
L 75.488631 108.742352 
L 75.5211 88.42103 
L 75.553568 112.37297 
L 75.618506 295.488 
L 75.650975 112.30048 
L 75.683443 90.430908 
L 75.748381 295.488 
L 75.780849 105.614361 
L 75.813318 113.805535 
L 75.845787 95.021309 
L 75.878255 295.488 
L 75.943193 113.542097 
L 76.105536 87.834543 
L 76.138005 112.30048 
L 76.202942 111.7533 
L 76.235411 98.355427 
L 76.332817 295.488 
L 76.365286 89.129541 
L 76.462692 108.742352 
L 76.495161 106.581019 
L 76.527629 295.488 
L 76.560098 90.766314 
L 76.592567 111.476329 
L 76.625036 110.848094 
L 76.657504 114.392484 
L 76.689973 295.488 
L 76.75491 108.531123 
L 76.787379 111.476329 
L 76.819848 109.283871 
L 76.852317 295.488 
L 76.917254 90.012424 
L 76.949723 110.386278 
L 77.01466 94.420148 
L 77.079597 295.488 
L 77.112066 112.30048 
L 77.177004 112.37297 
L 77.209472 96.885042 
L 77.339347 112.30048 
L 77.371816 106.581019 
L 77.469222 102.702428 
L 77.501691 295.488 
L 77.631565 76.80522 
L 77.76144 115.47493 
L 77.793909 108.484724 
L 77.923784 295.488 
L 77.956252 295.488 
L 78.053658 89.835646 
L 78.086127 105.058039 
L 78.118596 114.668715 
L 78.151065 94.017192 
L 78.183533 76.807922 
L 78.248471 89.260743 
L 78.280939 117.733586 
L 78.345877 116.682013 
L 78.378345 97.9718 
L 78.410814 153.73621 
L 78.475752 97.299436 
L 78.573158 105.704181 
L 78.605626 84.34789 
L 78.638095 110.447633 
L 78.670564 104.510329 
L 78.735501 108.786926 
L 78.76797 92.05658 
L 78.800439 110.068556 
L 78.832907 96.194463 
L 78.865376 109.468218 
L 78.897845 91.815823 
L 78.930313 88.385777 
L 78.962782 91.471309 
L 78.995251 121.81849 
L 79.060188 88.367332 
L 79.092657 112.292233 
L 79.125126 112.292233 
L 79.190063 88.367332 
L 79.255 97.998601 
L 79.319938 88.385777 
L 79.384875 122.113581 
L 79.482281 97.998601 
L 79.51475 99.299466 
L 79.612156 90.588083 
L 79.644625 112.292233 
L 79.677094 88.367332 
L 79.709562 97.540849 
L 79.742031 99.142712 
L 79.7745 91.287049 
L 79.806968 115.592057 
L 79.904374 113.615021 
L 79.936843 112.289997 
L 79.969312 121.573942 
L 80.001781 113.615021 
L 80.099187 90.536561 
L 80.164124 114.464865 
L 80.196593 112.292233 
L 80.229061 295.488 
L 80.293999 114.464865 
L 80.326468 113.615021 
L 80.358936 114.464865 
L 80.391405 98.573668 
L 80.423874 113.615021 
L 80.488811 97.998601 
L 80.553748 295.488 
L 80.618686 107.258905 
L 80.683623 114.464865 
L 80.748561 114.464865 
L 80.781029 90.648415 
L 80.813498 114.464865 
L 80.845967 295.488 
L 80.910904 113.615021 
L 80.943373 114.464865 
L 80.975842 111.402037 
L 81.00831 96.809753 
L 81.040779 113.615021 
L 81.073248 113.615021 
L 81.203122 114.464865 
L 81.26806 113.615021 
L 81.332997 295.488 
L 81.462872 114.464865 
L 81.495341 295.488 
L 81.52781 109.08243 
L 81.560278 114.464865 
L 81.657684 114.464865 
L 81.690153 113.615021 
L 81.787559 295.488 
L 81.884965 113.615021 
L 81.917434 114.464865 
L 81.982371 114.464865 
L 82.112246 113.615021 
L 82.144715 114.464865 
L 82.177184 113.615021 
L 82.209652 100.827514 
L 82.242121 114.464865 
L 82.27459 114.464865 
L 82.339527 114.464865 
L 82.371996 113.615021 
L 82.436933 114.464865 
L 82.566808 295.488 
L 82.696683 114.464865 
L 82.729151 114.464865 
L 82.76162 97.998601 
L 82.826558 114.464865 
L 82.859026 114.464865 
L 82.891495 295.488 
L 82.923964 97.998601 
L 82.956432 114.464865 
L 83.183713 114.464865 
L 83.281119 295.488 
L 83.410994 114.464865 
L 83.5084 295.488 
L 83.638275 114.464865 
L 83.670744 295.488 
L 83.735681 114.464865 
L 83.76815 114.464865 
L 83.833087 295.488 
L 83.865556 115.332108 
L 83.995431 114.464865 
L 84.125306 114.464865 
L 84.222712 295.488 
L 84.352587 113.615021 
L 84.482461 114.464865 
L 84.51493 114.464865 
L 84.612336 295.488 
L 84.709742 113.615021 
L 84.839617 295.488 
L 84.969492 113.615021 
L 85.034429 295.488 
L 85.066898 113.615021 
L 85.131835 113.615021 
L 85.196773 295.488 
L 85.229241 113.615021 
L 85.326648 113.615021 
L 85.359116 115.592057 
L 85.456522 295.488 
L 85.553928 113.615021 
L 85.586397 114.464865 
L 85.618866 113.615021 
L 85.651335 295.488 
L 85.716272 114.480965 
L 85.748741 113.615021 
L 85.781209 295.488 
L 85.846147 113.615021 
L 85.911084 113.615021 
L 85.943553 113.091922 
L 85.976022 113.615021 
L 86.073428 295.488 
L 86.105896 112.37297 
L 86.170834 113.615021 
L 86.26824 295.488 
L 86.398115 113.615021 
L 86.430583 113.615021 
L 86.52799 295.488 
L 86.592927 112.37297 
L 86.657864 113.018783 
L 86.722802 111.30641 
L 86.75527 113.238914 
L 86.787739 113.615021 
L 86.885145 295.488 
L 86.917614 112.37297 
L 87.01502 113.098013 
L 87.079957 295.488 
L 87.112426 112.37297 
L 87.144895 111.827585 
L 87.242301 295.488 
L 87.27477 111.827585 
L 87.339707 113.018783 
L 87.372176 295.488 
L 87.437113 110.331616 
L 87.502051 112.37297 
L 87.534519 110.890468 
L 87.566988 90.753595 
L 87.599457 111.827585 
L 87.631925 110.808151 
L 87.664394 295.488 
L 87.729331 112.37297 
L 87.7618 110.808151 
L 87.794269 111.827585 
L 87.859206 92.758994 
L 87.924144 295.488 
L 87.989081 94.976836 
L 88.054018 108.621819 
L 88.118956 96.168235 
L 88.151425 295.488 
L 88.216362 83.363585 
L 88.281299 111.30641 
L 88.346237 92.758994 
L 88.378706 96.168235 
L 88.443643 110.162509 
L 88.476112 88.953974 
L 88.541049 96.168235 
L 88.573518 109.581778 
L 88.605986 83.962299 
L 88.670924 82.98757 
L 88.735861 96.168235 
L 88.865736 80.04072 
L 89.157954 97.494349 
L 89.190423 103.468283 
L 89.222892 87.165182 
L 89.287829 100.237089 
L 89.385235 97.277653 
L 89.547579 103.25607 
L 89.612516 102.65029 
L 89.77486 109.628641 
L 89.937203 109.628641 
L 89.969672 107.712515 
L 90.034609 109.628641 
L 90.326828 109.628641 
L 90.456702 107.712515 
L 90.586577 109.628641 
L 90.683983 109.628641 
L 90.748921 107.712515 
L 90.781389 109.628641 
L 90.911264 109.628641 
L 90.943733 107.712515 
L 91.00867 109.628641 
L 91.138545 109.628641 
L 91.333357 103.25607 
L 91.463232 103.25607 
L 95.327008 103.25607 
L 95.359476 99.908951 
L 95.424414 103.25607 
L 95.489351 103.25607 
L 95.586757 99.908951 
L 95.684163 103.25607 
L 95.814038 99.756694 
L 95.976382 99.756694 
L 96.041319 99.908951 
L 96.073788 99.756694 
L 96.236131 99.756694 
L 96.2686 99.908951 
L 96.333537 99.756694 
L 96.625756 99.756694 
L 96.75563 100.73228 
L 96.788099 101.250781 
L 96.820568 100.827809 
L 96.885505 100.1775 
L 97.047849 102.870241 
L 97.080317 102.59452 
L 97.112786 106.591239 
L 97.145255 101.250781 
L 97.177724 102.59452 
L 97.210192 102.59452 
L 97.242661 102.870241 
L 97.340067 106.591239 
L 97.372536 102.59452 
L 97.437473 106.591239 
L 97.924504 106.591239 
L 98.054379 106.892112 
L 98.184253 106.591239 
L 98.346597 106.591239 
L 98.379066 101.250781 
L 98.444003 106.591239 
L 98.50894 106.591239 
L 98.573878 100.927401 
L 98.638815 102.870241 
L 98.801159 102.870241 
L 98.931033 100.469995 
L 98.963502 100.553372 
L 98.995971 102.870241 
L 99.02844 100.315473 
L 99.060908 101.031076 
L 99.093377 100.244393 
L 99.125846 100.927401 
L 99.158314 102.870241 
L 99.190783 99.767526 
L 99.223252 99.756694 
L 99.25572 100.927401 
L 99.320658 99.756694 
L 99.450533 99.756694 
L 99.580407 101.138859 
L 99.710282 99.756694 
L 99.905095 99.756694 
L 99.937563 97.617335 
L 100.002501 99.756694 
L 100.424594 99.756694 
L 100.457062 100.1775 
L 100.522 99.756694 
L 100.781749 99.756694 
L 100.879156 100.390687 
L 100.911624 100.315473 
L 100.976562 99.756694 
L 101.106436 102.870241 
L 101.171374 100.315473 
L 101.203843 101.031076 
L 101.236311 102.870241 
L 101.301249 101.250781 
L 101.333717 100.927401 
L 101.398655 101.250781 
L 101.431123 102.870241 
L 101.496061 100.73228 
L 101.560998 102.870241 
L 101.625936 101.138859 
L 101.658404 101.250781 
L 101.690873 101.138859 
L 101.723342 102.870241 
L 101.75581 101.138859 
L 101.788279 100.114863 
L 101.853217 101.031076 
L 101.885685 100.927401 
L 102.048029 102.870241 
L 102.145435 101.250781 
L 102.242841 102.870241 
L 102.27531 101.138859 
L 102.340247 102.870241 
L 102.405185 102.870241 
L 102.502591 101.250781 
L 102.599997 102.870241 
L 102.632465 90.876771 
L 102.729872 93.96906 
L 102.76234 93.96906 
L 102.924684 95.265227 
L 102.957152 94.371934 
L 103.02209 95.507455 
L 103.054559 94.584151 
L 103.119496 95.757496 
L 103.151965 95.030682 
L 103.184433 94.371934 
L 103.281839 96.545858 
L 103.314308 96.015487 
L 103.346777 96.814649 
L 103.379246 95.265227 
L 103.411714 96.28157 
L 103.476652 95.757496 
L 103.50912 96.838618 
L 103.606526 96.545858 
L 103.671464 96.015487 
L 103.703933 97.977278 
L 103.833807 95.507455 
L 103.866276 95.757496 
L 103.996151 97.738856 
L 104.02862 97.378123 
L 104.061088 97.673149 
L 104.093557 97.977278 
L 104.190963 95.507455 
L 104.320838 98.05689 
L 104.385775 95.507455 
L 104.450713 96.555894 
L 104.483181 96.838618 
L 104.51565 96.015487 
L 104.548119 98.384222 
L 104.613056 97.429923 
L 104.645525 95.757496 
L 104.742931 96.015487 
L 104.840337 97.673149 
L 104.872806 96.28157 
L 104.937743 97.092015 
L 104.970212 97.673149 
L 105.002681 97.129903 
L 105.067618 96.555894 
L 105.100087 97.378123 
L 105.132555 97.129903 
L 105.26243 95.507455 
L 105.294899 97.673149 
L 105.359836 95.757496 
L 105.424774 96.814649 
L 105.489711 96.015487 
L 105.52218 96.015487 
L 105.554649 96.28157 
L 105.684523 95.030682 
L 105.716992 96.28157 
L 105.814398 95.757496 
L 105.846867 96.015487 
L 105.879336 94.803696 
L 105.976742 95.030682 
L 106.00921 95.030682 
L 106.171554 93.96906 
L 107.730052 93.96906 
L 107.76252 94.166937 
L 107.827458 93.96906 
L 107.989801 93.96906 
L 108.054739 94.166937 
L 108.087207 93.96906 
L 108.152145 93.96906 
L 108.184613 95.097574 
L 108.217082 90.876771 
L 108.249551 101.842096 
L 108.314488 101.138859 
L 108.346957 89.829178 
L 108.379426 101.250781 
L 108.411894 100.244393 
L 108.444363 100.640802 
L 108.476832 99.756694 
L 108.541769 99.756694 
L 108.574238 100.390687 
L 108.639175 99.756694 
L 108.898925 99.756694 
L 108.963862 101.250781 
L 108.996331 99.756694 
L 109.256081 99.756694 
L 109.288549 100.73228 
L 109.353487 100.056571 
L 109.483361 99.756694 
L 110.295079 99.756694 
L 110.327548 103.256064 
L 110.392485 99.756694 
L 110.619766 99.756694 
L 110.652235 103.256064 
L 110.717172 99.756694 
L 111.236671 99.756694 
L 111.366546 103.256064 
L 111.399015 103.256064 
L 111.52889 99.756694 
L 111.626296 103.256064 
L 111.658764 102.417321 
L 111.691233 103.256064 
L 111.723702 102.417321 
L 111.821108 99.756694 
L 111.886045 103.256064 
L 111.918514 99.756694 
L 113.119856 99.756694 
L 113.217262 106.892112 
L 113.314668 99.756694 
L 113.347137 101.250781 
L 113.477012 100.927401 
L 113.50948 106.892112 
L 113.574418 101.250781 
L 113.606887 101.250781 
L 113.736761 106.892112 
L 113.76923 106.892112 
L 113.899105 101.250781 
L 114.02898 106.892112 
L 114.840697 106.892112 
L 114.873166 106.644535 
L 114.938103 106.892112 
L 115.003041 106.892112 
L 115.035509 106.644535 
L 115.165384 102.417321 
L 118.28238 102.417321 
L 118.379786 89.566111 
L 118.477192 113.205948 
L 118.607067 92.758994 
L 118.672004 96.168235 
L 118.704473 88.422792 
L 118.76941 97.969888 
L 118.834347 93.658782 
L 118.866816 97.269265 
L 118.899285 97.269265 
L 118.996691 93.84084 
L 119.126566 102.284743 
L 119.159034 102.284743 
L 119.191503 91.730218 
L 119.223972 107.019225 
L 119.288909 94.976836 
L 119.353847 101.131244 
L 119.386315 91.730218 
L 119.451253 94.976836 
L 119.483721 102.284743 
L 119.548659 101.131244 
L 119.581128 96.168235 
L 119.646065 97.013103 
L 119.678534 102.732385 
L 119.711002 90.063781 
L 119.77594 101.131244 
L 119.840877 87.46858 
L 119.905815 94.616134 
L 119.938283 94.899664 
L 119.970752 97.440698 
L 120.003221 88.48966 
L 120.100627 89.299937 
L 120.230502 106.091465 
L 120.327908 90.063781 
L 120.360376 100.028224 
L 120.425314 88.727998 
L 120.457783 89.278139 
L 120.490251 88.422792 
L 120.52272 88.422792 
L 120.555189 95.241806 
L 120.620126 88.422792 
L 120.685063 88.422792 
L 120.750001 85.958755 
L 120.814938 108.917563 
L 120.944813 103.256064 
L 121.172094 103.256064 
L 121.204563 108.238873 
L 121.2695 103.256064 
L 121.366906 103.256064 
L 121.399375 108.238873 
L 121.464312 103.256064 
L 121.496781 103.256064 
L 121.52925 103.765547 
L 121.594187 99.643238 
L 121.626656 101.130171 
L 121.756531 103.315405 
L 121.853937 103.315405 
L 121.918874 101.220992 
L 121.983811 78.461602 
L 122.048749 98.212944 
L 122.081218 101.355213 
L 122.146155 101.220992 
L 122.243561 82.51578 
L 122.308498 81.821301 
L 122.373436 96.577326 
L 122.438373 82.317494 
L 122.470842 83.427383 
L 122.503311 96.577326 
L 122.535779 82.669489 
L 122.568248 83.088332 
L 122.600717 81.170707 
L 122.698123 94.542895 
L 122.827998 75.440309 
L 122.892935 88.782217 
L 122.925404 81.170707 
L 122.990341 73.90181 
L 123.120216 100.211569 
L 123.152685 100.211569 
L 123.347497 95.524697 
L 123.379966 87.348175 
L 123.444903 89.585149 
L 123.477372 91.429922 
L 123.50984 88.774785 
L 123.574778 85.623882 
L 123.639715 86.148519 
L 123.672184 86.42897 
L 123.704653 86.335261 
L 123.737121 85.880294 
L 123.76959 90.265275 
L 123.834527 87.543506 
L 123.866996 85.623882 
L 124.094277 105.867708 
L 124.126746 105.363731 
L 124.191683 105.867708 
L 124.256621 105.867708 
L 124.354027 105.425864 
L 124.483901 105.867708 
L 124.581308 105.867708 
L 124.613776 105.500365 
L 124.711182 73.527069 
L 124.743651 73.915272 
L 124.873526 84.53267 
L 125.555369 84.53267 
L 125.685243 99.756694 
L 125.717712 96.467757 
L 125.750181 84.106235 
L 125.847587 84.53267 
L 125.912524 98.719996 
L 125.977462 97.338191 
L 126.00993 99.201405 
L 126.107337 87.746734 
L 126.139805 88.207615 
L 126.172274 96.759432 
L 126.204743 84.106235 
L 126.237211 89.377862 
L 126.496961 99.201405 
L 126.626836 84.106235 
L 126.691773 98.734235 
L 126.821648 97.338191 
L 126.854117 86.764466 
L 126.919054 97.338191 
L 126.951523 98.719996 
L 126.983991 97.233016 
L 127.01646 91.217503 
L 127.081398 96.73804 
L 127.113866 96.461187 
L 127.146335 89.967018 
L 127.211272 95.619325 
L 127.243741 99.360921 
L 127.341147 99.205458 
L 127.406085 93.287764 
L 127.471022 97.916999 
L 127.503491 97.916999 
L 127.535959 90.57452 
L 127.600897 97.711249 
L 127.665834 93.000019 
L 127.698303 95.619325 
L 127.795709 99.205458 
L 127.828178 94.034154 
L 127.860646 99.400174 
L 127.925584 95.619325 
L 127.958053 98.786446 
L 127.990521 98.252251 
L 128.02299 93.287764 
L 128.055459 99.201405 
L 128.120396 94.131928 
L 128.152865 94.103568 
L 128.217802 99.205458 
L 128.250271 98.252251 
L 128.28274 88.968183 
L 128.315208 99.253534 
L 128.347677 95.619325 
L 128.51002 99.485932 
L 128.607427 91.880621 
L 128.672364 99.229668 
L 128.704833 99.089783 
L 128.737301 94.034154 
L 128.802239 98.252251 
L 128.834707 98.489985 
L 128.867176 91.880621 
L 128.932114 98.200225 
L 128.964582 96.070692 
L 128.997051 99.205458 
L 129.02952 97.338191 
L 129.061988 99.205458 
L 129.126926 98.200225 
L 129.159394 98.252251 
L 129.191863 100.255324 
L 129.289269 93.287764 
L 129.386675 99.400174 
L 129.419144 98.786446 
L 129.451613 91.880621 
L 129.484081 99.400174 
L 129.51655 93.389138 
L 129.613956 98.786446 
L 129.581488 91.217503 
L 129.646425 98.489985 
L 129.678894 98.252251 
L 129.711362 99.205458 
L 129.743831 98.216247 
L 129.808769 94.81085 
L 129.841237 99.089783 
L 129.906175 99.089783 
L 129.938643 99.205458 
L 129.971112 98.216247 
L 130.003581 90.579948 
L 130.036049 99.825143 
L 130.068518 98.216247 
L 130.100987 97.916999 
L 130.133456 98.544777 
L 130.165924 99.205458 
L 130.198393 92.250322 
L 130.26333 94.81085 
L 130.328268 99.205458 
L 130.360736 98.252251 
L 130.458143 91.880621 
L 130.588017 98.786446 
L 130.652955 94.034154 
L 130.685423 99.089783 
L 130.717892 96.461187 
L 130.750361 99.089783 
L 130.815298 95.619325 
L 130.977642 99.717809 
L 131.042579 93.287764 
L 131.075048 98.252251 
L 131.107517 99.205458 
L 131.139985 97.338191 
L 131.237391 99.205458 
L 131.302329 89.800548 
L 131.334797 98.49306 
L 131.432204 95.286841 
L 131.497141 98.634518 
L 131.562078 98.252251 
L 131.594547 98.200225 
L 131.691953 98.252251 
L 131.724422 92.570332 
L 131.756891 98.786446 
L 131.821828 91.880621 
L 131.984172 99.186592 
L 132.114046 94.81085 
L 132.211452 98.279483 
L 132.341327 83.044211 
L 132.406265 97.338191 
L 132.438733 96.690313 
L 132.471202 83.044211 
L 132.536139 97.338191 
L 132.568608 99.52168 
L 132.633546 97.338191 
L 132.698483 83.044211 
L 132.730952 98.489985 
L 132.76342 97.029484 
L 132.795889 98.579273 
L 132.860826 99.172158 
L 132.925764 99.717809 
L 132.958233 89.800548 
L 132.990701 83.044211 
L 133.02317 98.200225 
L 133.055639 97.700334 
L 133.185513 83.044211 
L 133.315388 83.044211 
L 133.347857 95.619325 
L 133.412794 83.044211 
L 133.542669 83.044211 
L 133.672544 99.205458 
L 133.705013 98.252251 
L 133.802419 100.255324 
L 133.834887 83.044211 
L 133.932294 99.089783 
L 134.062168 83.044211 
L 134.192043 98.158138 
L 134.256981 83.044211 
L 134.289449 97.338191 
L 134.321918 104.824521 
L 134.386855 98.200225 
L 134.51673 83.044211 
L 134.549199 83.044211 
L 134.581668 99.205458 
L 134.646605 83.044211 
L 134.744011 83.044211 
L 134.873886 104.824521 
L 134.971292 83.044211 
L 135.003761 89.377862 
L 135.068698 83.044211 
L 135.101167 104.506358 
L 135.198573 83.044211 
L 135.231042 105.477661 
L 135.328448 104.974804 
L 135.360916 83.044211 
L 135.458323 90.579948 
L 135.490791 97.029484 
L 135.555729 94.81085 
L 135.685603 83.044211 
L 135.78301 96.2129 
L 135.880416 83.044211 
L 135.912884 97.888914 
L 135.977822 83.044211 
L 136.01029 83.044211 
L 136.107697 99.205458 
L 136.140165 96.461187 
L 136.237571 83.044211 
L 136.27004 98.158138 
L 136.334977 97.167623 
L 136.464852 83.044211 
L 136.497321 92.570332 
L 136.562258 84.106235 
L 136.594727 83.044211 
L 136.724602 97.338191 
L 136.822008 83.044211 
L 136.919414 99.400174 
L 136.984352 83.044211 
L 137.01682 92.807692 
L 137.049289 99.205458 
L 137.179164 83.044211 
L 137.211632 83.044211 
L 137.244101 96.2129 
L 137.309039 95.619325 
L 137.341507 88.811711 
L 137.373976 98.216247 
L 137.438913 90.715418 
L 137.503851 94.81085 
L 137.633726 83.044211 
L 137.698663 95.286841 
L 137.7636 92.570332 
L 137.828538 83.044211 
L 137.861006 84.106235 
L 137.893475 92.570332 
L 137.958413 84.106235 
L 138.088287 83.044211 
L 138.153225 84.106235 
L 138.218162 91.880621 
L 138.250631 83.044211 
L 138.2831 83.044211 
L 138.315568 84.106235 
L 138.380506 83.044211 
L 138.412974 83.044211 
L 138.51038 84.106235 
L 138.542849 83.044211 
L 138.607787 84.106235 
L 138.640255 84.106235 
L 138.672724 83.044211 
L 138.737661 84.106235 
L 138.932474 84.106235 
L 138.964942 83.044211 
L 139.02988 84.106235 
L 143.835248 84.106235 
L 143.965122 80.080714 
L 144.03006 84.106235 
L 144.159935 75.408535 
L 144.192403 84.106235 
L 144.257341 79.461157 
L 144.387215 70.995776 
L 144.549559 85.795538 
L 144.744371 85.795538 
L 144.77684 71.533177 
L 144.841777 85.795538 
L 144.874246 85.795538 
L 144.906715 74.512219 
L 144.971652 85.795538 
L 149.712082 85.795538 
L 149.744551 83.219582 
L 149.841957 84.146361 
L 149.971832 85.795538 
L 150.004301 85.027288 
L 150.069238 85.795538 
L 150.134176 85.795538 
L 150.166644 90.847119 
L 150.199113 85.679803 
L 150.231582 85.795538 
L 150.296519 85.795538 
L 150.328988 86.857811 
L 150.393925 85.795538 
L 150.491331 85.795538 
L 150.5238 82.452989 
L 150.588737 85.795538 
L 150.621206 88.505104 
L 150.686144 86.275631 
L 150.718612 85.795538 
L 150.751081 85.950246 
L 150.78355 87.73707 
L 150.816018 82.911146 
L 150.848487 85.027288 
L 150.880956 90.480076 
L 150.978362 88.505104 
L 151.010831 90.049061 
L 151.043299 89.542166 
L 151.075768 83.921133 
L 151.108237 91.231138 
L 151.173174 84.528501 
L 151.205643 85.027288 
L 151.335518 93.303416 
L 151.400455 92.571955 
L 151.432924 95.366192 
L 151.465392 91.740384 
L 151.497861 94.525842 
L 151.595267 92.178632 
L 151.627736 93.303416 
L 151.725142 93.197674 
L 151.790079 94.954389 
L 151.887485 92.485282 
L 151.919954 93.100137 
L 151.952423 92.571955 
L 152.049829 95.541841 
L 152.082298 94.730428 
L 152.114766 94.181901 
L 152.147235 94.730428 
L 152.27711 97.216965 
L 152.309579 97.184337 
L 152.342047 95.366192 
L 152.374516 97.292776 
L 152.406985 97.216965 
L 152.439453 97.253107 
L 152.471922 97.216965 
L 152.504391 95.424912 
L 152.53686 97.253107 
L 152.601797 95.740926 
L 152.634266 97.014274 
L 152.666734 88.697425 
L 152.731672 99.631121 
L 152.76414 100.633499 
L 152.796609 99.631121 
L 152.861547 94.523568 
L 152.894015 95.075219 
L 152.926484 100.633499 
L 152.958953 95.003491 
L 152.991421 95.075219 
L 153.02389 95.003491 
L 153.088827 94.871461 
L 153.153765 100.633499 
L 153.28364 94.871461 
L 153.381046 95.075219 
L 153.413514 100.633499 
L 153.478452 93.733105 
L 153.640795 102.028269 
L 153.77067 85.478653 
L 153.900545 95.003491 
L 153.965482 95.003491 
L 154.03042 85.513274 
L 154.062888 104.91269 
L 154.127826 94.935578 
L 154.192763 85.513274 
L 154.225232 85.63661 
L 154.290169 95.075219 
L 154.322638 85.513274 
L 154.355107 85.478653 
L 154.387575 85.513274 
L 154.420044 93.443622 
L 154.452513 83.32085 
L 154.51745 93.120725 
L 154.582388 93.443622 
L 154.647325 93.356996 
L 154.679794 93.356996 
L 154.712262 90.701117 
L 154.744731 93.443622 
L 154.7772 93.037441 
L 154.939543 93.080057 
L 155.004481 92.983987 
L 155.03695 93.080057 
L 155.52398 93.080057 
L 155.556449 91.873669 
L 155.621386 92.544719 
L 155.718792 92.237578 
L 155.751261 92.440901 
L 155.78373 92.544719 
L 155.816198 92.440901 
L 155.848667 91.713862 
L 155.881136 92.544719 
L 155.913604 92.544719 
L 155.946073 92.14103 
L 156.011011 92.337869 
L 156.075948 84.111331 
L 156.108417 90.395449 
L 156.140885 83.728269 
L 156.173354 87.439334 
L 156.205823 87.439334 
L 156.238291 91.139809 
L 156.27076 90.071199 
L 156.303229 83.918736 
L 156.335698 91.284275 
L 156.368166 93.883552 
L 156.433104 93.405661 
L 156.498041 87.053997 
L 156.53051 94.097672 
L 156.562978 94.135096 
L 156.595447 95.049728 
L 156.627916 93.790807 
L 156.660385 86.673346 
L 156.692853 91.855933 
L 156.725322 98.234288 
L 156.757791 89.96879 
L 156.790259 94.201659 
L 156.822728 84.043532 
L 156.887665 97.779952 
L 156.985072 104.337011 
L 157.082478 105.87856 
L 157.114946 98.514354 
L 157.147415 104.752941 
L 157.212353 102.79012 
L 157.342227 97.231639 
L 157.374696 97.863176 
L 157.407165 94.95364 
L 157.439633 97.933868 
L 157.472102 96.905489 
L 157.504571 100.079979 
L 157.601977 90.111877 
L 157.634446 95.946246 
L 157.666914 87.175123 
L 157.699383 89.846742 
L 157.731852 91.430735 
L 157.76432 88.182036 
L 157.829258 85.795538 
L 157.894195 86.367056 
L 157.959133 87.559904 
L 158.056539 85.795538 
L 158.089007 86.367056 
L 158.218882 85.795538 
L 158.251351 85.795538 
L 158.28382 86.367056 
L 158.348757 85.795538 
L 158.413694 85.795538 
L 158.446163 86.367056 
L 158.511101 85.795538 
L 158.576038 85.795538 
L 158.608507 86.95505 
L 158.673444 85.795538 
L 159.128006 85.795538 
L 159.192943 86.95505 
L 159.225412 85.795538 
L 163.02425 85.795538 
L 163.186594 87.559904 
L 163.251531 85.795538 
L 163.284 86.95505 
L 163.316468 86.95505 
L 163.413874 85.795538 
L 163.543749 87.559904 
L 163.576218 87.559904 
L 163.608687 88.182036 
L 163.641155 86.95505 
L 163.803499 85.795538 
L 163.933374 88.821897 
L 163.965842 86.367056 
L 164.03078 88.821897 
L 164.063249 90.156805 
L 164.095717 87.559904 
L 164.128186 88.821897 
L 164.258061 87.559904 
L 164.290529 88.182036 
L 164.322998 86.95505 
L 164.355467 85.795538 
L 164.387936 86.95505 
L 164.485342 89.479978 
L 164.51781 88.821897 
L 164.680154 86.95505 
L 164.874966 90.852947 
L 164.907435 90.156805 
L 164.972372 88.182036 
L 165.004841 88.821897 
L 165.102247 89.479978 
L 165.134716 88.182036 
L 165.26459 91.569016 
L 165.297059 92.305668 
L 165.329528 91.569016 
L 165.394465 90.852947 
L 165.426934 92.305668 
L 165.491871 91.569016 
L 165.52434 91.569016 
L 165.654215 93.84359 
L 165.686684 93.063607 
L 165.816558 91.569016 
L 165.946433 92.305668 
L 166.076308 91.569016 
L 166.173714 94.646425 
L 166.206183 93.063607 
L 166.238652 93.063607 
L 166.27112 94.646425 
L 166.303589 91.569016 
L 166.336058 91.569016 
L 166.400995 93.84359 
L 166.433464 90.156805 
L 166.498401 93.063607 
L 166.53087 94.646425 
L 166.563339 90.852947 
L 166.693213 92.305668 
L 166.725682 91.569016 
L 166.855557 93.84359 
L 166.952963 91.569016 
L 167.082838 93.84359 
L 167.147775 91.569016 
L 167.212713 92.305668 
L 167.245181 91.569016 
L 167.407525 95.472981 
L 167.472462 94.646425 
L 167.504931 97.201047 
L 167.602337 93.84359 
L 167.634806 95.472981 
L 167.76468 93.84359 
L 167.797149 96.32419 
L 167.894555 95.472981 
L 167.991961 97.201047 
L 168.121836 95.472981 
L 168.154305 96.32419 
L 168.186774 96.135737 
L 168.251711 93.84359 
L 168.28418 95.472981 
L 168.316648 96.32419 
L 168.349117 94.646425 
L 168.381586 94.646425 
L 168.414054 93.84359 
L 168.446523 95.472981 
L 168.478992 94.646425 
L 168.576398 97.201047 
L 168.608867 96.32419 
L 168.641335 98.104622 
L 168.706273 97.201047 
L 168.738742 95.472981 
L 168.77121 98.104622 
L 168.803679 97.201047 
L 168.836148 96.32419 
L 168.868616 99.036063 
L 168.966022 98.104622 
L 168.998491 97.201047 
L 169.063429 100.987553 
L 169.128366 99.036063 
L 169.290709 102.010342 
L 169.420584 99.996599 
L 169.453053 99.996599 
L 169.485522 100.987553 
L 169.51799 99.996599 
L 169.647865 98.104622 
L 169.745271 99.996599 
L 169.875146 97.201047 
L 169.972552 99.036063 
L 170.03749 95.472981 
L 170.069958 99.036063 
L 170.134896 98.104622 
L 170.167364 100.987553 
L 170.232302 99.996599 
L 170.362177 97.201047 
L 170.427114 99.882421 
L 170.459583 99.036063 
L 170.52452 97.201047 
L 170.556989 98.104622 
L 170.719332 100.987553 
L 170.751801 100.635181 
L 170.78427 99.036063 
L 170.816738 100.987553 
L 170.849207 100.987553 
L 170.881676 100.987553 
L 170.979082 99.036063 
L 171.044019 98.104622 
L 171.108957 100.635181 
L 171.238832 99.036063 
L 171.2713 98.535219 
L 171.336238 99.996599 
L 171.368706 98.104622 
L 171.401175 99.032865 
L 171.433644 98.104622 
L 171.498581 96.32419 
L 171.563519 97.201047 
L 171.628456 97.201047 
L 171.758331 99.996599 
L 171.855737 98.104622 
L 171.888206 99.996599 
L 171.920674 98.104622 
L 171.953143 96.135737 
L 172.01808 98.104622 
L 172.147955 100.987553 
L 172.245361 96.292723 
L 172.375236 100.987553 
L 172.440173 100.987553 
L 172.53758 99.036063 
L 172.570048 100.987553 
L 172.634986 99.036063 
L 172.699923 98.104622 
L 172.732392 99.032865 
L 172.862267 95.472981 
L 173.057079 99.032865 
L 173.089548 96.29189 
L 173.186954 96.32419 
L 173.28436 97.201047 
L 173.446703 93.84359 
L 173.479172 93.84359 
L 173.641515 96.32419 
L 173.738922 93.84359 
L 173.77139 95.472981 
L 173.803859 95.472981 
L 173.933734 93.84359 
L 174.128546 96.32419 
L 174.161015 94.646425 
L 174.193483 95.472981 
L 174.225952 97.201047 
L 174.258421 93.84359 
L 174.290889 93.84359 
L 174.323358 95.472981 
L 174.388296 94.646425 
L 174.420764 94.646425 
L 174.453233 93.84359 
L 174.485702 95.472981 
L 174.51817 94.646425 
L 174.550639 94.646425 
L 174.648045 96.32419 
L 174.745451 93.84359 
L 174.875326 95.472981 
L 174.940263 92.305668 
L 174.972732 93.84359 
L 175.005201 95.472981 
L 175.070138 93.84359 
L 175.135076 93.84359 
L 175.200013 93.063607 
L 175.232482 95.472981 
L 175.297419 93.063607 
L 175.362357 93.84359 
L 175.5247 93.84359 
L 175.557169 93.063607 
L 175.589638 93.84359 
L 175.687044 95.472981 
L 175.719512 93.063607 
L 175.816918 93.84359 
L 175.849387 93.84359 
L 175.946793 92.305668 
L 175.979262 93.063607 
L 176.076668 93.063607 
L 176.109137 92.305668 
L 176.141605 93.84359 
L 176.174074 93.84359 
L 176.27148 92.305668 
L 176.303949 93.063607 
L 176.336418 93.063607 
L 176.498761 94.646425 
L 176.661105 92.305668 
L 176.726042 95.472981 
L 176.790979 93.84359 
L 176.823448 93.84359 
L 176.888386 96.32419 
L 176.953323 94.646425 
L 177.01826 94.646425 
L 177.050729 95.472981 
L 177.083198 93.84359 
L 177.180604 92.305668 
L 177.213073 93.063607 
L 177.245541 93.063607 
L 177.375416 94.646425 
L 177.505291 93.063607 
L 177.602697 93.84359 
L 177.732572 92.305668 
L 177.862447 94.646425 
L 177.894915 93.84359 
L 177.927384 93.063607 
L 177.992321 93.84359 
L 178.02479 93.84359 
L 178.089728 94.646425 
L 178.122196 93.84359 
L 178.154665 93.063607 
L 178.219602 93.84359 
L 178.252071 93.84359 
L 178.381946 91.569016 
L 178.511821 95.472981 
L 178.641695 93.84359 
L 178.674164 93.84359 
L 178.706633 93.063607 
L 178.77157 93.84359 
L 178.804039 93.84359 
L 178.836508 93.063607 
L 178.868976 94.646425 
L 178.901445 93.84359 
L 178.966382 93.84359 
L 178.998851 93.063607 
L 179.063789 93.84359 
L 179.096257 93.84359 
L 179.161195 94.646425 
L 179.193663 93.063607 
L 179.323538 95.472981 
L 179.356007 94.646425 
L 179.388476 94.646425 
L 179.485882 95.472981 
L 179.583288 93.84359 
L 179.615756 94.646425 
L 179.648225 94.646425 
L 179.7781 95.472981 
L 179.810569 95.472981 
L 179.875506 94.646425 
L 179.907975 95.472981 
L 180.03785 96.32419 
L 180.102787 96.32419 
L 180.135256 97.201047 
L 180.167724 95.472981 
L 180.200193 96.32419 
L 180.297599 96.32419 
L 180.330068 97.201047 
L 180.362537 95.472981 
L 180.395005 96.32419 
L 180.459943 94.646425 
L 180.52488 95.472981 
L 180.589818 96.32419 
L 180.622286 95.472981 
L 180.719692 93.84359 
L 180.752161 94.646425 
L 180.78463 94.646425 
L 180.914505 95.472981 
L 180.946973 93.063607 
L 181.011911 93.84359 
L 181.044379 94.646425 
L 181.109317 93.84359 
L 181.174254 93.84359 
L 181.27166 94.646425 
L 181.336598 93.84359 
L 181.369066 94.646425 
L 181.401535 94.646425 
L 181.498941 97.201047 
L 181.563879 96.32419 
L 181.758691 93.063607 
L 181.953503 95.472981 
L 181.985972 95.472981 
L 182.050909 96.32419 
L 182.083378 95.472981 
L 182.180784 95.472981 
L 182.245721 96.32419 
L 182.27819 93.84359 
L 182.343127 94.646425 
L 182.440534 95.472981 
L 182.53794 94.646425 
L 182.635346 96.32419 
L 182.667814 95.472981 
L 182.797689 95.472981 
L 182.895095 93.84359 
L 182.927564 94.646425 
L 182.960033 94.646425 
L 182.992501 95.472981 
L 183.057439 94.646425 
L 183.089908 94.646425 
L 183.219782 93.063607 
L 183.252251 94.646425 
L 183.317188 93.84359 
L 183.349657 93.84359 
L 183.512001 95.472981 
L 183.674344 93.063607 
L 183.836688 94.646425 
L 183.934094 93.063607 
L 184.063969 95.472981 
L 184.193843 94.646425 
L 184.291249 96.32419 
L 184.356187 93.84359 
L 184.421124 94.646425 
L 184.486062 94.646425 
L 184.615937 93.063607 
L 184.77828 95.472981 
L 184.908155 93.84359 
L 185.005561 95.472981 
L 185.135436 93.84359 
L 185.330248 93.84359 
L 185.460123 95.472981 
L 185.557529 93.84359 
L 185.654935 95.472981 
L 185.752341 93.84359 
L 185.78481 94.646425 
L 185.849747 93.84359 
L 185.914685 95.472981 
L 186.012091 95.472981 
L 186.044559 94.646425 
L 186.109497 95.472981 
L 186.174434 95.472981 
L 186.206903 96.32419 
L 186.27184 95.472981 
L 186.401715 95.472981 
L 186.434184 96.32419 
L 186.466652 94.646425 
L 186.53159 94.646425 
L 186.628996 95.472981 
L 186.791339 93.84359 
L 186.888746 95.472981 
L 186.986152 79.7895 
L 187.116027 95.472981 
L 187.148495 79.7895 
L 187.213433 94.646425 
L 187.310839 94.646425 
L 187.343307 93.063607 
L 187.408245 94.646425 
L 187.440714 95.472981 
L 187.473182 94.646425 
L 187.603057 93.063607 
L 187.700463 93.84359 
L 187.732932 93.063607 
L 187.765401 71.248794 
L 187.797869 94.646425 
L 187.862807 79.489554 
L 187.895275 79.489554 
L 188.02515 93.84359 
L 188.187494 95.472981 
L 188.252431 94.646425 
L 188.317368 96.32419 
L 188.349837 94.646425 
L 188.479712 95.472981 
L 188.544649 93.84359 
L 188.609587 94.646425 
L 188.739462 71.05229 
L 188.77193 71.248794 
L 188.836868 70.900833 
L 188.901805 94.646425 
L 188.934274 94.646425 
L 188.966742 95.472981 
L 189.03168 70.900833 
L 189.064149 93.063607 
L 189.096617 93.063607 
L 189.129086 94.646425 
L 189.161555 89.565752 
L 189.226492 93.84359 
L 189.29143 94.646425 
L 189.323898 93.84359 
L 189.356367 93.84359 
L 189.388836 94.646425 
L 189.421304 71.05229 
L 189.486242 88.035812 
L 189.551179 94.336304 
L 189.616117 93.044084 
L 189.648585 70.789532 
L 189.713523 70.900833 
L 189.745991 91.247991 
L 189.843397 90.685247 
L 189.875866 89.565752 
L 189.973272 89.611164 
L 190.03821 70.714558 
L 190.103147 70.900833 
L 190.168084 70.900833 
L 190.265491 71.05229 
L 190.297959 70.900833 
L 190.362897 71.05229 
L 190.427834 71.05229 
L 190.460303 70.900833 
L 190.52524 71.05229 
L 190.590178 71.248794 
L 190.622646 70.900833 
L 190.687584 71.248794 
L 190.752521 71.803992 
L 190.78499 71.496636 
L 190.914865 71.248794 
L 190.947333 71.496636 
L 191.012271 71.248794 
L 191.077208 71.248794 
L 191.142145 71.803992 
L 191.207083 71.496636 
L 191.239552 71.496636 
L 191.336958 71.248794 
L 191.369426 71.803992 
L 191.401895 90.139764 
L 191.499301 89.611164 
L 191.53177 90.139764 
L 191.596707 71.496636 
L 191.629176 90.139764 
L 191.759051 89.611164 
L 191.823988 71.05229 
L 191.856457 71.248794 
L 191.888926 90.139764 
L 191.953863 71.248794 
L 191.986332 71.496636 
L 192.0188 89.611164 
L 192.051269 71.248794 
L 192.083738 71.248794 
L 192.116207 71.496636 
L 192.181144 71.248794 
L 192.213613 71.248794 
L 192.246081 89.611164 
L 192.311019 71.248794 
L 192.440894 71.05229 
L 192.505831 71.248794 
L 192.5383 90.139764 
L 192.570768 70.900833 
L 192.603237 71.05229 
L 192.733112 70.900833 
L 192.765581 70.900833 
L 192.798049 70.789532 
L 192.862987 70.900833 
L 193.02533 70.900833 
L 193.122736 71.248794 
L 193.252611 70.789532 
L 193.28508 70.789532 
L 193.414955 71.05229 
L 193.512361 70.900833 
L 193.544829 71.05229 
L 193.609767 70.900833 
L 193.642235 70.900833 
L 193.674704 71.05229 
L 193.707173 70.789532 
L 193.739642 70.900833 
L 193.837048 70.900833 
L 193.901985 70.789532 
L 194.03186 71.248794 
L 194.129266 70.900833 
L 194.161735 71.248794 
L 194.226672 71.05229 
L 194.29161 70.900833 
L 194.324078 71.05229 
L 194.356547 71.05229 
L 194.389016 70.900833 
L 194.453953 71.05229 
L 194.486422 71.05229 
L 194.583828 71.803992 
L 194.616297 71.248794 
L 194.648765 71.248794 
L 194.681234 70.900833 
L 194.713703 71.496636 
L 194.811109 71.803992 
L 194.940984 71.496636 
L 195.005921 71.496636 
L 195.135796 71.803992 
L 195.233202 71.05229 
L 195.298139 71.248794 
L 195.330608 72.643889 
L 195.395545 71.803992 
L 195.428014 71.496636 
L 195.460483 72.181617 
L 195.590358 73.210406 
L 195.720232 71.803992 
L 195.752701 72.181617 
L 195.78517 71.803992 
L 195.817638 72.643889 
L 195.850107 72.181617 
L 195.979982 72.643889 
L 196.012451 71.803992 
L 196.077388 72.181617 
L 196.207263 73.210406 
L 196.304669 71.803992 
L 196.337138 72.181617 
L 196.467013 71.248794 
L 196.694293 74.777535 
L 196.726762 87.559904 
L 196.7917 86.95505 
L 196.921574 75.875993 
L 196.954043 75.875993 
L 197.083918 86.367056 
L 197.148855 86.95505 
L 197.213793 79.071838 
L 197.246261 85.795538 
L 197.27873 75.875993 
L 197.311199 79.071838 
L 197.376136 75.875993 
L 197.408605 78.802908 
L 197.473542 74.777535 
L 197.506011 88.821897 
L 197.635886 73.908522 
L 197.700823 87.559904 
L 197.733292 73.210406 
L 197.798229 86.95505 
L 197.863167 86.367056 
L 197.960573 88.182036 
L 197.993041 78.204968 
L 198.02551 87.559904 
L 198.122916 85.795538 
L 198.155385 75.875993 
L 198.187854 87.559904 
L 198.220322 86.367056 
L 198.252791 86.95505 
L 198.382666 74.777535 
L 198.512541 86.95505 
L 198.609947 78.405772 
L 198.642416 78.802908 
L 198.739822 85.795538 
L 198.869696 78.685727 
L 198.934634 79.071838 
L 199.064509 86.367056 
L 199.096977 78.802908 
L 199.194383 79.071838 
L 199.226852 79.071838 
L 199.259321 78.204968 
L 199.324258 78.802908 
L 199.356727 86.95505 
L 199.454133 85.795538 
L 199.551539 85.795538 
L 199.648945 78.364971 
L 199.681414 78.685727 
L 199.811289 86.95505 
L 199.941164 78.364971 
L 200.03857 86.95505 
L 200.103507 78.405772 
L 200.135976 86.95505 
L 200.200913 86.95505 
L 200.265851 78.204968 
L 200.298319 78.802908 
L 200.363257 86.95505 
L 200.395725 78.802908 
L 200.5256 78.204968 
L 200.623006 86.95505 
L 200.655475 86.367056 
L 200.687944 86.367056 
L 200.720412 85.795538 
L 200.78535 78.364971 
L 200.817819 86.367056 
L 200.850287 86.367056 
L 200.882756 85.795538 
L 201.012631 78.364971 
L 201.499661 78.405772 
L 201.53213 78.204968 
L 201.597067 78.364971 
L 201.629536 78.364971 
L 201.662005 79.071838 
L 201.726942 78.364971 
L 201.824348 78.364971 
L 201.856817 78.215134 
L 201.921754 78.364971 
L 202.084098 78.364971 
L 202.116567 79.26411 
L 202.181504 78.832952 
L 202.213973 78.215134 
L 202.246441 80.457008 
L 202.311379 78.622411 
L 202.343847 78.622411 
L 202.376316 78.151548 
L 202.441254 78.52725 
L 202.506191 79.808292 
L 202.53866 79.26411 
L 202.571128 78.832952 
L 202.603597 79.808292 
L 202.701003 81.779531 
L 202.765941 80.886725 
L 202.895815 83.704034 
L 202.993222 86.433546 
L 203.02569 82.722228 
L 203.090628 83.390736 
L 203.155565 82.722228 
L 203.220502 86.509877 
L 203.252971 86.589941 
L 203.317909 86.509877 
L 203.382846 85.949436 
L 203.415315 86.509877 
L 203.447783 86.433546 
L 203.545189 86.761301 
L 203.577658 86.673746 
L 203.642596 86.761301 
L 203.675064 84.220141 
L 203.740002 86.589941 
L 203.77247 86.433546 
L 203.804939 83.770355 
L 203.837408 86.761301 
L 203.869876 86.761301 
L 203.902345 87.046587 
L 203.934814 92.178721 
L 203.967283 86.852617 
L 203.999751 83.770355 
L 204.064689 86.673746 
L 204.097157 86.509877 
L 204.129626 86.761301 
L 204.162095 83.770355 
L 204.227032 86.433546 
L 204.259501 86.589941 
L 204.324438 86.509877 
L 204.356907 84.220141 
L 204.486782 92.83325 
L 204.51925 92.83325 
L 204.551719 92.613289 
L 204.584188 86.852617 
L 204.649125 92.83325 
L 204.746531 91.560629 
L 204.779 92.178721 
L 204.843937 82.741738 
L 204.876406 91.967466 
L 204.941344 92.83325 
L 204.973812 85.949436 
L 205.071218 86.673746 
L 205.103687 92.395278 
L 205.168624 86.433546 
L 205.233562 86.589941 
L 205.298499 85.949436 
L 205.330968 92.613289 
L 205.428374 91.761454 
L 205.52578 92.613289 
L 205.558249 91.967466 
L 205.623186 85.522512 
L 205.655655 92.395278 
L 205.720592 92.83325 
L 205.78553 91.364935 
L 205.882936 92.83325 
L 205.915405 87.056306 
L 205.980342 91.761454 
L 206.045279 92.395278 
L 206.077748 91.560629 
L 206.142686 91.967466 
L 206.175154 92.83325 
L 206.207623 90.632471 
L 206.305029 91.364935 
L 206.369966 92.613289 
L 206.402435 90.808135 
L 206.467373 92.178721 
L 206.499841 92.613289 
L 206.597247 91.174321 
L 206.629716 92.332202 
L 206.759591 84.908252 
L 206.824528 91.192354 
L 206.889466 90.505153 
L 207.01934 84.730226 
L 207.051809 85.299699 
L 207.116747 90.98157 
L 207.149215 81.53867 
L 207.246621 83.552317 
L 207.344027 89.487534 
L 207.441434 81.707017 
L 207.473902 86.927332 
L 207.506371 78.29952 
L 207.53884 82.785098 
L 207.571308 84.363843 
L 207.636246 76.008606 
L 207.668715 84.806309 
L 207.701183 81.367826 
L 207.733652 84.339104 
L 207.766121 76.577219 
L 207.831058 79.422328 
L 207.863527 87.576902 
L 207.928464 83.165823 
L 207.960933 83.927805 
L 208.02587 76.909468 
L 208.058339 86.743138 
L 208.090808 76.79205 
L 208.123276 82.795933 
L 208.155745 82.578656 
L 208.220682 63.760783 
L 208.253151 79.045973 
L 208.28562 89.113337 
L 208.350557 88.920565 
L 208.447963 63.523934 
L 208.577838 79.422328 
L 208.610307 78.2935 
L 208.642776 86.096346 
L 208.675244 77.166752 
L 208.707713 78.2935 
L 208.740182 77.917565 
L 208.77265 79.798637 
L 208.837588 82.795933 
L 208.902525 63.403998 
L 208.967463 63.760783 
L 209.0324 63.64288 
L 209.064869 63.760783 
L 209.162275 85.94418 
L 209.194743 84.167436 
L 209.227212 85.3427 
L 209.259681 63.403998 
L 209.324618 85.94418 
L 209.422024 87.8079 
L 209.454493 87.176438 
L 209.486962 63.607613 
L 209.51943 89.768042 
L 209.584368 63.910995 
L 209.616837 64.164376 
L 209.681774 62.962001 
L 209.714243 63.87328 
L 209.77918 92.928284 
L 209.811649 91.36429 
L 209.844118 63.505 
L 209.876586 92.155118 
L 209.909055 63.601754 
L 209.941524 92.928284 
L 210.006461 62.273558 
L 210.103867 61.808343 
L 210.136336 61.928062 
L 210.168805 62.273558 
L 210.233742 62.172127 
L 210.266211 62.049477 
L 210.298679 62.295624 
L 210.363617 93.172489 
L 210.428554 92.836326 
L 210.461023 92.191231 
L 210.558429 62.172127 
L 210.590898 92.938176 
L 210.655835 61.928062 
L 210.720772 62.049477 
L 210.883116 90.196773 
L 210.915585 90.959951 
L 211.045459 88.087343 
L 211.077928 88.117637 
L 211.110397 61.465283 
L 211.175334 88.159495 
L 211.207803 86.834021 
L 211.337678 78.364971 
L 211.629896 78.364971 
L 211.662365 61.937895 
L 211.694833 65.14569 
L 211.824708 88.746398 
L 211.954583 87.416188 
L 211.987052 88.117637 
L 212.01952 86.834021 
L 212.051989 87.485882 
L 212.149395 87.445234 
L 212.181864 86.834021 
L 212.246801 89.454432 
L 212.27927 87.445234 
L 212.344208 87.485882 
L 212.376676 86.834021 
L 212.474082 88.159495 
L 212.603957 86.834021 
L 212.668895 88.087343 
L 212.701363 86.794569 
L 212.733832 86.834021 
L 212.863707 88.299157 
L 213.02605 86.202878 
L 213.058519 86.202878 
L 213.090988 87.828147 
L 213.155925 85.554385 
L 213.2858 86.164608 
L 213.318269 84.998937 
L 213.383206 85.795538 
L 213.415675 86.164608 
L 213.448143 87.918457 
L 213.513081 85.591485 
L 213.545549 85.591485 
L 213.578018 84.998937 
L 213.610487 86.202878 
L 213.642956 85.591485 
L 213.675424 85.591485 
L 213.707893 86.138019 
L 213.740362 85.591485 
L 213.77283 84.389585 
L 213.837768 84.424385 
L 213.967643 85.529006 
L 214.000111 84.938813 
L 214.065049 85.591485 
L 214.097517 85.529006 
L 214.129986 83.833365 
L 214.227392 84.366592 
L 214.357267 85.591485 
L 214.487142 84.998937 
L 214.519611 85.554385 
L 214.552079 84.389585 
L 214.584548 84.424385 
L 214.617017 84.353638 
L 214.649485 84.998937 
L 214.714423 84.938813 
L 214.811829 84.962994 
L 214.844298 84.389585 
L 214.876766 84.424385 
L 214.909235 85.513601 
L 214.941704 83.867032 
L 214.974172 84.389585 
L 215.006641 84.424385 
L 215.03911 84.366592 
L 215.071578 83.293584 
L 215.104047 85.795538 
L 215.168985 83.326132 
L 215.266391 85.795538 
L 215.298859 83.867032 
L 215.363797 86.112896 
L 215.396265 86.119239 
L 215.591078 83.833365 
L 215.78589 85.795538 
L 215.980702 84.660514 
L 216.110577 85.795538 
L 216.27292 85.795538 
L 216.305389 83.330364 
L 216.370326 84.204981 
L 216.467733 85.795538 
L 216.500201 84.204981 
L 216.565139 85.128848 
L 216.597607 85.128848 
L 216.662545 83.761753 
L 216.727482 84.204981 
L 216.922294 85.795538 
L 217.019701 84.204981 
L 217.052169 85.795538 
L 217.117107 85.128848 
L 217.246981 84.660514 
L 217.27945 86.10604 
L 217.344388 85.610505 
L 217.376856 85.128848 
L 217.409325 85.795538 
L 217.441794 85.795538 
L 217.474262 85.795538 
L 217.5392 84.660514 
L 217.571668 85.128848 
L 217.604137 85.795538 
L 217.636606 85.128848 
L 217.669075 84.204981 
L 217.701543 84.660514 
L 217.734012 85.610505 
L 217.798949 84.660514 
L 217.863887 84.660514 
L 217.961293 85.610505 
L 217.993762 85.128848 
L 218.058699 85.128848 
L 218.123636 85.610505 
L 218.221042 84.204981 
L 218.318449 84.660514 
L 218.350917 84.204981 
L 218.383386 85.128848 
L 218.448323 85.128848 
L 218.545729 85.610505 
L 218.643136 84.660514 
L 218.675604 86.10604 
L 218.740542 85.128848 
L 218.805479 85.128848 
L 218.870416 86.10604 
L 218.902885 85.507679 
L 218.935354 84.945334 
L 219.000291 85.513601 
L 219.03276 86.61604 
L 219.065229 85.128848 
L 219.097697 85.52915 
L 219.195104 85.610505 
L 219.260041 86.61604 
L 219.324978 86.10604 
L 219.487322 84.921252 
L 219.519791 84.924639 
L 219.649665 85.506836 
L 219.747071 83.833365 
L 219.77954 83.867032 
L 219.876946 85.507679 
L 219.909415 84.353638 
L 220.006821 84.424385 
L 220.136696 84.389585 
L 220.201633 84.424385 
L 220.234102 84.389585 
L 220.299039 83.867032 
L 220.461383 86.10604 
L 220.656195 83.867032 
L 220.721132 86.10604 
L 220.78607 84.424385 
L 220.818539 83.867032 
L 220.851007 84.424385 
L 220.980882 85.554385 
L 221.013351 84.998937 
L 221.045819 85.591485 
L 221.078288 85.554385 
L 221.208163 85.591485 
L 221.240632 85.554385 
L 221.402975 87.445234 
L 221.435444 85.591485 
L 221.53285 86.202878 
L 221.565319 86.794569 
L 221.597787 86.202878 
L 221.695194 84.938813 
L 221.7926 86.794569 
L 221.825068 86.202878 
L 221.857537 85.591485 
L 221.890006 86.164608 
L 221.987412 86.834021 
L 222.019881 86.164608 
L 222.052349 86.794569 
L 222.117287 87.485882 
L 222.182224 87.445234 
L 222.247161 87.485882 
L 222.27963 88.117637 
L 222.312099 87.485882 
L 222.344568 86.834021 
L 222.377036 88.087343 
L 222.409505 88.117637 
L 222.474442 86.794569 
L 222.506911 87.485882 
L 222.571848 88.812885 
L 222.604317 88.087343 
L 222.669255 88.117637 
L 222.734192 87.445234 
L 222.766661 87.416188 
L 222.831598 88.117637 
L 222.896535 88.087343 
L 222.929004 87.485882 
L 222.961473 88.781332 
L 223.091348 89.576487 
L 223.156285 88.781332 
L 223.188754 89.532167 
L 223.221222 89.499341 
L 223.253691 88.812885 
L 223.28616 89.576487 
L 223.318629 89.532167 
L 223.416035 90.322329 
L 223.513441 89.532167 
L 223.643316 90.276756 
L 223.675784 88.855967 
L 223.740722 90.276756 
L 223.805659 88.159495 
L 223.903065 88.812885 
L 224.03294 89.576487 
L 224.065409 89.532167 
L 224.097877 89.576487 
L 224.29269 91.847439 
L 224.390096 91.048022 
L 224.552439 92.676595 
L 224.584908 90.242643 
L 224.682314 90.276756 
L 224.714783 91.094862 
L 224.77972 91.048022 
L 224.877126 90.276756 
L 224.974532 92.676595 
L 225.007001 91.895561 
L 225.03947 92.610177 
L 225.071938 91.847439 
L 225.136876 92.638536 
L 225.234282 90.322329 
L 225.266751 90.322329 
L 225.396625 91.895561 
L 225.429094 91.847439 
L 225.461563 91.847439 
L 225.494032 91.094862 
L 225.558969 91.847439 
L 225.688844 93.497801 
L 225.753781 91.783704 
L 225.78625 91.847439 
L 225.818719 92.676595 
L 225.883656 91.895561 
L 225.948593 91.048022 
L 226.046 93.497801 
L 226.110937 91.810709 
L 226.143406 92.726015 
L 226.175874 92.590245 
L 226.208343 92.676595 
L 226.27328 93.497801 
L 226.305749 93.446761 
L 226.403155 92.726015 
L 226.500561 94.359252 
L 226.468093 92.676595 
L 226.53303 93.446761 
L 226.565499 93.446761 
L 226.727842 95.318212 
L 226.79278 95.318212 
L 226.987592 92.726015 
L 227.084998 95.318212 
L 227.182404 92.726015 
L 227.214873 94.359252 
L 227.27981 93.497801 
L 227.312279 93.468076 
L 227.377216 91.895561 
L 227.409685 94.359252 
L 227.507091 93.497801 
L 227.53956 93.43287 
L 227.572028 92.726015 
L 227.604497 93.468076 
L 227.669435 93.424432 
L 227.766841 95.413761 
L 227.864247 93.537204 
L 227.896715 94.321242 
L 227.961653 94.309963 
L 227.994122 96.194404 
L 228.02659 95.26159 
L 228.059059 97.185405 
L 228.091528 95.413761 
L 228.123996 97.185405 
L 228.156465 95.318212 
L 228.188934 96.327068 
L 228.221403 96.327068 
L 228.28634 95.234785 
L 228.351277 95.318212 
L 228.513621 97.185405 
L 228.54609 97.185405 
L 228.578558 94.483185 
L 228.643496 97.185405 
L 233.578738 97.185405 
L 233.611207 96.188898 
L 233.676144 97.185405 
L 233.741082 97.185405 
L 233.870957 95.592231 
L 233.935894 95.592231 
L 234.065769 76.393589 
L 234.195644 78.864929 
L 234.29305 75.866415 
L 234.325518 93.342823 
L 234.390456 92.24705 
L 234.422924 79.510348 
L 234.455393 93.141159 
L 234.487862 80.885871 
L 234.617737 93.240052 
L 234.650205 93.240052 
L 234.715143 94.213379 
L 234.78008 92.24705 
L 234.909955 94.213379 
L 234.942424 95.282487 
L 235.007361 94.213379 
L 235.072299 94.213379 
L 235.104767 93.141159 
L 235.169705 94.213379 
L 235.234642 94.213379 
L 235.364517 89.121734 
L 235.396986 73.081543 
L 235.429454 90.025541 
L 235.461923 90.025541 
L 235.591798 89.565203 
L 235.624266 89.565203 
L 235.656735 89.121734 
L 235.721673 89.565203 
L 235.78661 89.565203 
L 235.819079 89.121734 
L 235.851547 73.081543 
L 235.916485 88.694491 
L 236.04636 89.565203 
L 236.078828 73.081543 
L 236.111297 90.025541 
L 236.143766 89.121734 
L 236.176234 89.121734 
L 236.241172 72.515776 
L 236.27364 89.121734 
L 236.338578 89.121734 
L 236.371047 90.025541 
L 236.403515 89.565203 
L 236.53339 73.081543 
L 236.630796 89.121734 
L 236.663265 88.694491 
L 236.695734 89.121734 
L 236.760671 89.565203 
L 236.79314 72.515776 
L 236.923014 89.565203 
L 236.955483 73.081543 
L 237.020421 90.025541 
L 237.052889 90.025541 
L 237.085358 73.664068 
L 237.150295 90.503429 
L 237.312639 89.565203 
L 237.377576 90.025541 
L 237.410045 89.565203 
L 237.442514 89.565203 
L 237.507451 88.694491 
L 237.572389 89.121734 
L 237.604857 89.121734 
L 237.669795 89.565203 
L 237.702263 89.121734 
L 237.734732 89.121734 
L 237.767201 88.694491 
L 237.799669 89.565203 
L 237.832138 89.121734 
L 237.864607 89.565203 
L 237.897076 88.694491 
L 237.929544 89.121734 
L 237.962013 89.121734 
L 238.02695 90.025541 
L 238.059419 89.565203 
L 238.091888 89.121734 
L 238.124356 90.025541 
L 238.156825 89.565203 
L 238.2867 90.503429 
L 238.384106 89.121734 
L 238.449043 89.565203 
L 238.54645 90.025541 
L 238.643856 89.565203 
L 238.741262 90.503429 
L 238.871137 89.121734 
L 238.903605 89.121734 
L 239.03348 90.025541 
L 239.195824 89.121734 
L 239.228292 89.121734 
L 239.260761 89.565203 
L 239.29323 88.282873 
L 239.358167 88.694491 
L 239.423104 89.121734 
L 239.455573 88.694491 
L 239.488042 88.694491 
L 239.617917 89.565203 
L 239.682854 89.565203 
L 239.715323 90.025541 
L 239.78026 89.565203 
L 239.812729 89.121734 
L 239.845198 90.025541 
L 239.877666 89.565203 
L 239.910135 89.565203 
L 239.975072 89.121734 
L 240.04001 90.025541 
L 240.072479 89.121734 
L 240.104947 89.565203 
L 240.169885 89.121734 
L 240.234822 88.694491 
L 240.267291 89.121734 
L 240.299759 90.025541 
L 240.332228 88.694491 
L 240.364697 89.121734 
L 240.397166 89.121734 
L 240.429634 88.694491 
L 240.462103 89.565203 
L 240.494572 89.121734 
L 240.52704 89.121734 
L 240.624446 88.694491 
L 240.689384 89.121734 
L 240.819259 88.282873 
L 240.981602 90.025541 
L 241.079008 88.694491 
L 241.111477 89.121734 
L 241.208883 88.694491 
L 241.306289 89.121734 
L 241.371227 88.694491 
L 241.403695 89.121734 
L 241.436164 89.121734 
L 241.468633 89.565203 
L 241.501101 88.694491 
L 241.598507 88.694491 
L 241.728382 88.282873 
L 241.760851 88.282873 
L 241.890726 89.565203 
L 241.955663 88.694491 
L 242.020601 89.121734 
L 242.118007 89.121734 
L 242.215413 88.694491 
L 242.28035 89.565203 
L 242.377756 88.282873 
L 242.410225 88.694491 
L 242.442694 88.694491 
L 242.475162 87.886315 
L 242.5401 88.282873 
L 242.605037 87.886315 
L 242.702443 89.121734 
L 242.767381 89.121734 
L 242.832318 88.282873 
L 242.897256 88.694491 
L 242.929724 88.694491 
L 243.157005 87.136285 
L 243.351817 88.282873 
L 243.416755 88.694491 
L 243.514161 87.504286 
L 243.54663 87.504286 
L 243.579098 87.136285 
L 243.644036 87.504286 
L 243.676504 87.504286 
L 243.903785 86.111873 
L 243.936254 86.111873 
L 244.066129 86.781841 
L 244.163535 86.440509 
L 244.196004 86.781841 
L 244.260941 86.440509 
L 244.29341 86.440509 
L 244.423285 86.111873 
L 244.650565 86.111873 
L 244.683034 86.440509 
L 244.715503 85.795538 
L 244.78044 85.795538 
L 244.812909 86.440509 
L 244.877846 86.111873 
L 245.007721 85.795538 
L 245.105127 85.795538 
L 245.202533 86.111873 
L 245.235002 53.965435 
L 245.332408 60.685407 
L 245.364877 86.111873 
L 245.429814 60.685407 
L 245.462283 60.223549 
L 245.559689 53.568 
L 245.592158 55.744917 
L 245.689564 96.405467 
L 245.657095 54.363489 
L 245.722033 95.598008 
L 245.78697 54.075262 
L 245.851907 56.952994 
L 245.884376 57.358626 
L 245.949313 56.952994 
L 246.079188 55.562566 
L 246.338938 60.758359 
L 246.403875 60.446002 
L 246.436344 62.804728 
L 246.468813 92.205703 
L 246.501281 60.559278 
L 246.566219 92.19453 
L 246.598688 92.187677 
L 246.696094 90.8653 
L 246.825968 60.559278 
L 246.890906 90.215729 
L 246.923375 89.598224 
L 246.955843 74.69707 
L 247.020781 89.601843 
L 247.053249 89.601843 
L 247.085718 72.817385 
L 247.183124 72.858738 
L 247.215593 70.893018 
L 247.248062 72.181744 
L 247.28053 74.414969 
L 247.312999 72.894439 
L 247.410405 88.432101 
L 247.442874 74.217021 
L 247.475342 89.007601 
L 247.507811 89.002572 
L 247.637686 89.007601 
L 247.670155 88.425665 
L 247.735092 78.315276 
L 247.800029 78.960172 
L 247.832498 79.276772 
L 247.897436 85.795538 
L 247.929904 79.180764 
L 247.962373 79.276772 
L 248.059779 85.795538 
L 248.092248 79.276772 
L 248.157185 85.795538 
L 248.481872 85.795538 
L 248.514341 79.23327 
L 248.579278 85.795538 
L 248.611747 85.795538 
L 248.644216 79.106814 
L 248.709153 79.854428 
L 248.741622 85.795538 
L 248.806559 80.574644 
L 248.839028 80.368301 
L 248.968903 82.515943 
L 249.001371 72.041833 
L 249.03384 83.152486 
L 249.098778 73.556867 
L 249.131246 74.010129 
L 249.163715 77.492177 
L 249.228652 75.090039 
L 249.326058 72.43001 
L 249.423465 73.424393 
L 249.455933 73.424393 
L 249.553339 80.150837 
L 249.585808 76.869229 
L 249.618277 76.869229 
L 249.715683 74.482109 
L 249.748152 106.023812 
L 249.878026 76.241103 
L 250.007901 73.255171 
L 250.04037 78.125339 
L 250.105307 72.24152 
L 250.137776 71.645538 
L 250.300119 65.152059 
L 250.332588 62.85406 
L 250.397526 61.716218 
L 250.429994 114.26701 
L 250.494932 61.193225 
L 250.5274 114.26701 
L 250.592338 114.26701 
L 250.657275 58.098067 
L 250.722213 59.093377 
L 250.78715 57.135601 
L 250.852087 114.26701 
L 250.884556 58.59913 
L 251.014431 54.855855 
L 251.079368 114.26701 
L 251.111837 55.321753 
L 251.176774 56.258454 
L 251.209243 54.315586 
L 251.274181 114.26701 
L 251.306649 55.789334 
L 251.339118 55.789334 
L 251.468993 59.090342 
L 251.501461 59.090342 
L 251.566399 58.621565 
L 251.631336 59.573394 
L 251.728742 59.573394 
L 251.988492 62.534411 
L 252.085898 62.042512 
L 252.118367 63.025549 
L 252.183304 62.534411 
L 252.215773 62.042512 
L 252.345648 63.607512 
L 252.410585 63.607512 
L 252.443054 64.107733 
L 252.475522 63.607512 
L 252.507991 63.106294 
L 252.54046 63.607512 
L 252.670335 65.599357 
L 252.702803 64.606656 
L 252.735272 63.607512 
L 252.767741 64.107733 
L 252.800209 66.255704 
L 252.865147 64.107733 
L 253.059959 64.107733 
L 253.157365 64.606656 
L 253.222303 61.278516 
L 253.28724 61.553342 
L 253.482052 65.26285 
L 253.54699 62.910425 
L 253.611927 63.887708 
L 253.904145 67.760153 
L 253.936614 66.759941 
L 253.969083 67.261546 
L 254.03402 69.499903 
L 254.066489 67.760153 
L 254.196364 66.759941 
L 254.29377 68.25539 
L 254.326238 67.760153 
L 254.358707 67.261546 
L 254.423645 67.760153 
L 254.488582 67.760153 
L 254.521051 68.25539 
L 254.553519 67.261546 
L 254.585988 67.760153 
L 254.618457 56.051865 
L 254.683394 70.493566 
L 254.715863 56.12649 
L 254.748332 56.051865 
L 254.878206 69.999078 
L 255.008081 68.25539 
L 255.04055 68.25539 
L 255.073019 55.979752 
L 255.170425 56.051865 
L 255.202893 56.12649 
L 255.235362 56.051865 
L 255.267831 69.999078 
L 255.332768 56.051865 
L 256.339298 55.979752 
L 256.469173 55.910044 
L 256.599048 55.979752 
L 256.696454 55.910044 
L 256.79386 55.979752 
L 256.858797 55.910044 
L 256.891266 55.979752 
L 257.313359 56.051865 
L 257.378296 56.203735 
L 257.443234 56.12649 
L 258.417295 56.203735 
L 258.449764 56.283721 
L 258.514701 56.203735 
L 259.521231 56.283721 
L 259.651105 56.36657 
L 259.78098 87.444119 
L 259.845918 87.444119 
L 259.878386 86.664517 
L 259.943324 86.709552 
L 260.105667 87.444119 
L 260.138136 87.444119 
L 260.203073 86.709552 
L 260.235542 87.050485 
L 260.365417 87.490642 
L 260.430354 87.490642 
L 260.462823 85.958419 
L 260.52776 87.490642 
L 260.592698 87.490642 
L 260.657635 87.096254 
L 260.690104 87.490642 
L 260.755041 87.490642 
L 260.78751 87.096254 
L 260.852447 87.490642 
L 260.884916 87.490642 
L 260.917385 87.096254 
L 260.982322 87.490642 
L 261.014791 87.490642 
L 261.04726 87.096254 
L 261.112197 87.490642 
L 261.209603 87.490642 
L 261.242072 86.709552 
L 261.307009 87.565072 
L 261.404415 86.781757 
L 261.436884 87.490642 
L 261.501821 87.096254 
L 261.566759 86.40148 
L 261.696634 87.892927 
L 261.761571 87.096254 
L 261.79404 87.892927 
L 261.858977 87.96852 
L 261.891446 88.303324 
L 261.923915 87.169554 
L 261.988852 87.96852 
L 262.021321 87.96852 
L 262.151195 87.169554 
L 262.183664 87.169554 
L 262.248602 87.96852 
L 262.28107 87.565072 
L 262.313539 87.565072 
L 262.346008 87.169554 
L 262.378476 87.96852 
L 262.605757 87.96852 
L 262.638226 87.565072 
L 262.670695 87.666161 
L 262.768101 88.484423 
L 262.80057 88.303324 
L 262.930444 88.071195 
L 262.962913 87.96852 
L 262.995382 87.269105 
L 263.092788 87.565072 
L 263.125257 88.380113 
L 263.222663 88.071195 
L 263.2876 87.666161 
L 263.320069 88.071195 
L 263.449944 96.474654 
L 263.482412 88.071195 
L 263.54735 96.474654 
L 267.703343 96.474654 
L 267.833218 73.937898 
L 267.898156 73.427222 
L 267.930624 73.937898 
L 268.02803 73.427222 
L 268.092968 96.474654 
L 268.417655 96.474654 
L 268.450124 92.763991 
L 268.515061 96.474654 
L 268.807279 96.474654 
L 268.872217 92.268116 
L 268.904685 92.70919 
L 269.03456 96.474654 
L 269.099498 86.270602 
L 269.164435 89.148024 
L 269.29431 86.270602 
L 269.391716 82.455972 
L 269.456653 83.6072 
L 269.489122 83.6072 
L 269.683934 77.669864 
L 269.716403 78.82895 
L 269.748872 78.82895 
L 269.846278 77.859137 
L 269.976153 96.474654 
L 270.04109 77.387198 
L 270.073559 96.474654 
L 270.106027 96.474654 
L 270.235902 76.470663 
L 270.268371 76.341675 
L 270.333308 76.470663 
L 270.398246 76.470663 
L 270.430714 96.474654 
L 270.463183 76.026673 
L 270.495652 76.862717 
L 270.52812 77.006903 
L 270.657995 96.474654 
L 271.177494 96.474654 
L 271.209963 100.255324 
L 271.274901 96.474654 
L 271.307369 59.798496 
L 271.372307 96.474654 
L 271.53465 96.474654 
L 271.567119 100.255324 
L 271.632056 96.474654 
L 271.729462 96.474654 
L 271.761931 100.255324 
L 271.7944 96.474654 
L 271.826869 60.111901 
L 271.891806 100.255324 
L 271.956743 96.474654 
L 271.989212 100.255324 
L 272.411305 100.255324 
L 272.443774 95.456419 
L 272.508711 100.255324 
L 274.943864 100.164343 
L 274.976333 92.870786 
L 275.04127 99.78682 
L 275.106207 99.78682 
L 275.138676 92.870786 
L 275.236082 94.081665 
L 275.268551 94.081665 
L 275.398426 93.266032 
L 275.5283 94.081665 
L 275.625707 93.669583 
L 275.658175 94.081665 
L 275.690644 93.266032 
L 275.723113 92.870786 
L 275.852987 94.081665 
L 275.885456 94.081665 
L 275.982862 91.0118 
L 276.112737 94.081665 
L 276.145206 94.081665 
L 276.177674 93.669583 
L 276.242612 94.081665 
L 276.275081 94.081665 
L 276.307549 92.104347 
L 276.372487 93.669583 
L 276.437424 93.669583 
L 276.502362 94.081665 
L 276.599768 92.870786 
L 276.729642 94.081665 
L 276.762111 94.081665 
L 276.891986 93.669583 
L 276.956923 94.081665 
L 277.086798 92.104347 
L 277.184204 94.081665 
L 277.216673 92.483628 
L 277.249142 94.502514 
L 277.28161 94.502514 
L 277.314079 94.502514 
L 277.443954 93.266032 
L 277.508891 94.502514 
L 277.573829 94.081665 
L 277.638766 94.081665 
L 277.768641 93.669583 
L 277.80111 93.669583 
L 277.833578 93.266032 
L 277.866047 94.081665 
L 277.898516 93.669583 
L 277.995922 94.081665 
L 278.125797 91.732744 
L 278.255671 94.081665 
L 278.320609 93.669583 
L 278.353077 94.081665 
L 278.515421 94.081665 
L 278.54789 94.502514 
L 278.580358 94.081665 
L 278.612827 93.669583 
L 278.677765 94.081665 
L 278.710233 94.502514 
L 278.775171 94.081665 
L 278.807639 93.669583 
L 278.840108 94.081665 
L 278.969983 94.502514 
L 279.7817 94.527441 
L 279.879106 93.288267 
L 279.944044 93.692676 
L 280.008981 94.105655 
L 280.04145 92.564396 
L 280.106387 93.692676 
L 280.203793 94.105655 
L 280.236262 93.350919 
L 280.3012 93.692676 
L 280.366137 93.288267 
L 280.431074 94.105655 
L 280.463543 94.105655 
L 280.496012 92.953568 
L 280.560949 94.105655 
L 280.625887 94.105655 
L 280.78823 93.288267 
L 280.820699 94.171041 
L 280.885636 94.105655 
L 281.015511 93.288267 
L 281.080448 93.692676 
L 281.112917 92.504262 
L 281.145386 94.105655 
L 281.177855 93.288267 
L 281.307729 94.105655 
L 281.372667 94.105655 
L 281.502542 93.692676 
L 281.567479 94.171041 
L 281.599948 93.288267 
L 281.664885 94.105655 
L 281.729822 93.692676 
L 281.762291 94.105655 
L 281.79476 94.171041 
L 281.827229 93.692676 
L 281.892166 94.171041 
L 281.924635 94.171041 
L 281.957103 93.288267 
L 282.022041 94.105655 
L 282.086978 94.171041 
L 282.216853 93.756667 
L 282.346728 94.171041 
L 282.476603 90.734109 
L 282.574009 94.171041 
L 282.606477 93.756667 
L 282.638946 93.756667 
L 282.703883 92.892202 
L 282.736352 93.756667 
L 282.768821 93.350919 
L 282.80129 94.171041 
L 282.963633 94.171041 
L 282.996102 92.124239 
L 283.061039 93.692676 
L 283.125977 93.692676 
L 283.158445 94.105655 
L 283.190914 93.288267 
L 283.223383 93.692676 
L 283.353258 92.124239 
L 283.483132 93.692676 
L 283.515601 93.692676 
L 283.54807 93.266032 
L 283.613007 93.692676 
L 283.645476 93.692676 
L 283.710413 92.124239 
L 283.775351 94.105655 
L 283.840288 94.081665 
L 284.0351 92.483628 
L 284.164975 93.692676 
L 284.29485 92.892202 
L 284.327319 92.504262 
L 284.359787 93.288267 
L 284.392256 93.756667 
L 284.457193 93.350919 
L 284.489662 93.288267 
L 284.522131 92.504262 
L 284.554599 93.756667 
L 284.587068 92.892202 
L 284.619537 92.892202 
L 284.78188 93.692676 
L 284.814349 93.288267 
L 284.879286 93.692676 
L 284.911755 93.692676 
L 284.976693 93.266032 
L 285.009161 93.669583 
L 285.106567 93.669583 
L 285.236442 93.266032 
L 285.366317 93.669583 
L 285.561129 92.483628 
L 285.723473 93.669583 
L 285.820879 92.483628 
L 285.918285 93.669583 
L 286.015691 92.870786 
L 286.04816 93.669583 
L 286.080628 92.483628 
L 286.113097 92.104347 
L 286.242972 93.669583 
L 286.340378 91.732744 
L 286.470253 93.669583 
L 286.53519 93.266032 
L 286.567659 93.669583 
L 286.632596 93.669583 
L 286.697534 91.732744 
L 286.762471 92.483628 
L 286.859877 93.266032 
L 286.924815 92.104347 
L 286.957283 93.266032 
L 286.989752 93.266032 
L 287.054689 93.669583 
L 287.119627 92.870786 
L 287.184564 94.081665 
L 287.217033 93.266032 
L 287.314439 92.870786 
L 287.379376 92.483628 
L 287.476783 93.669583 
L 287.509251 93.669583 
L 287.671595 92.870786 
L 287.833938 93.669583 
L 287.931344 92.870786 
L 287.963813 93.669583 
L 288.028751 93.266032 
L 288.061219 92.870786 
L 288.093688 93.669583 
L 288.158625 93.669583 
L 288.2885 92.104347 
L 288.418375 93.669583 
L 288.450844 92.483628 
L 288.54825 92.870786 
L 288.645656 93.266032 
L 288.775531 92.483628 
L 288.937874 93.669583 
L 289.002812 92.104347 
L 289.03528 92.870786 
L 289.100218 93.266032 
L 289.132686 92.104347 
L 289.197624 93.266032 
L 289.327499 92.870786 
L 289.392436 93.266032 
L 289.424905 92.870786 
L 289.457373 90.662094 
L 289.489842 93.266032 
L 289.522311 92.483628 
L 289.554779 93.266032 
L 289.619717 92.870786 
L 289.78206 92.104347 
L 289.879466 92.870786 
L 289.911935 91.732744 
L 289.976873 92.483628 
L 290.106747 92.870786 
L 290.139216 92.870786 
L 290.269091 92.483628 
L 290.30156 92.483628 
L 290.431434 91.732744 
L 290.561309 92.870786 
L 290.626247 90.319332 
L 290.691184 92.104347 
L 290.756121 92.104347 
L 290.885996 91.732744 
L 290.983402 92.483628 
L 291.080808 90.319332 
L 291.113277 91.368624 
L 291.243152 92.483628 
L 291.275621 92.483628 
L 291.340558 92.870786 
L 291.373027 92.483628 
L 291.470433 91.0118 
L 291.600308 92.483628 
L 291.632776 92.483628 
L 291.730182 91.732744 
L 291.860057 92.870786 
L 291.957463 91.368624 
L 291.989932 92.104347 
L 292.119807 92.483628 
L 292.184744 92.483628 
L 292.217213 91.732744 
L 292.28215 92.483628 
L 292.412025 92.104347 
L 292.5419 93.266032 
L 292.574369 91.368624 
L 292.639306 92.104347 
L 292.769181 92.483628 
L 292.80165 92.483628 
L 292.899056 92.870786 
L 292.963993 93.266032 
L 293.028931 92.104347 
L 293.158805 93.266032 
L 293.191274 92.104347 
L 293.28868 92.483628 
L 293.321149 93.266032 
L 293.386086 92.483628 
L 293.515961 93.266032 
L 293.613367 92.870786 
L 293.678305 93.669583 
L 293.710773 93.266032 
L 293.808179 92.483628 
L 293.905585 93.266032 
L 294.03546 92.870786 
L 294.067929 93.266032 
L 294.132866 92.870786 
L 294.165335 92.870786 
L 294.197804 92.483628 
L 294.230272 92.870786 
L 294.29521 93.266032 
L 294.425085 92.104347 
L 294.554959 93.266032 
L 294.684834 93.669583 
L 294.814709 92.104347 
L 294.944584 93.266032 
L 295.074459 93.266032 
L 295.106927 91.368624 
L 295.204334 92.104347 
L 295.334208 92.870786 
L 295.366677 92.870786 
L 295.399146 92.483628 
L 295.431614 92.870786 
L 295.464083 81.487913 
L 295.561489 85.977398 
L 295.593958 92.870786 
L 295.658895 92.104347 
L 295.691364 79.012943 
L 295.723833 93.266032 
L 295.756301 83.778268 
L 295.78877 90.645753 
L 295.821239 78.693381 
L 295.853708 86.189614 
L 295.886176 65.631264 
L 295.918645 93.266032 
L 295.951114 93.266032 
L 296.04852 93.266032 
L 296.178395 92.870786 
L 296.210863 92.870786 
L 296.243332 93.266032 
L 296.308269 92.870786 
L 296.340738 88.980082 
L 296.405675 92.870786 
L 296.438144 64.27394 
L 296.470613 89.865001 
L 296.568019 85.360612 
L 296.632956 90.721508 
L 296.665425 86.908617 
L 296.697894 85.679557 
L 296.730362 87.548315 
L 296.860237 63.634882 
L 296.892706 63.119189 
L 296.925175 64.864971 
L 296.957643 88.224552 
L 297.022581 85.393257 
L 297.119987 63.522858 
L 297.087518 87.232597 
L 297.152456 64.333885 
L 297.217393 66.900718 
L 297.249862 90.287061 
L 297.314799 65.401704 
L 297.347268 89.98811 
L 297.379737 87.887488 
L 297.509611 64.227088 
L 297.54208 64.760823 
L 297.607017 91.011515 
L 297.639486 66.04207 
L 297.671955 64.046595 
L 297.736892 65.402923 
L 297.769361 68.323334 
L 297.80183 66.354306 
L 297.834298 89.251705 
L 297.866767 64.046595 
L 297.899236 64.227088 
L 297.931704 64.227088 
L 297.996642 63.522858 
L 298.029111 66.04207 
L 298.094048 65.300413 
L 298.126517 90.287061 
L 298.191454 64.227088 
L 298.321329 66.723765 
L 298.353798 65.371745 
L 298.418735 65.492552 
L 298.451204 89.632047 
L 298.516141 66.04207 
L 298.581078 65.631264 
L 298.613547 90.287061 
L 298.646016 65.300413 
L 298.678485 65.300413 
L 298.710953 66.59726 
L 298.743422 65.939599 
L 298.775891 64.333885 
L 298.808359 66.888267 
L 298.840828 66.136555 
L 298.873297 90.561256 
L 298.905765 65.51174 
L 298.938234 65.590329 
L 298.970703 66.59726 
L 299.03564 65.956206 
L 299.100578 66.04207 
L 299.165515 64.760823 
L 299.262921 65.956206 
L 299.29539 64.664333 
L 299.360327 65.402923 
L 299.392796 65.761118 
L 299.457733 65.300413 
L 299.587608 88.5259 
L 299.685014 64.864971 
L 299.717483 77.630617 
L 299.749952 64.760823 
L 299.78242 66.04207 
L 299.879827 65.300413 
L 299.912295 65.956206 
L 299.944764 66.240368 
L 300.009701 65.956206 
L 300.04217 89.5902 
L 300.074639 65.51174 
L 300.172045 66.04207 
L 300.269451 64.760823 
L 300.30192 80.68084 
L 300.366857 65.492552 
L 300.399326 65.492552 
L 300.464263 64.15637 
L 300.496732 66.59726 
L 300.529201 65.401704 
L 300.561669 89.5902 
L 300.626607 77.151182 
L 300.756481 64.864971 
L 300.918825 66.888267 
L 300.951294 90.287061 
L 301.016231 65.813058 
L 301.081168 64.864971 
L 301.113637 66.59726 
L 301.178575 90.645753 
L 301.211043 65.590329 
L 301.275981 64.034761 
L 301.340918 81.28354 
L 301.373387 66.59726 
L 301.438324 66.688239 
L 301.470793 90.287061 
L 301.568199 89.5902 
L 301.600668 63.522858 
L 301.665605 88.5259 
L 301.79548 81.28354 
L 301.827949 81.28354 
L 301.860417 88.5259 
L 301.925355 81.28354 
L 301.957823 81.28354 
L 301.990292 64.977395 
L 302.05523 81.28354 
L 302.087698 88.5259 
L 302.120167 65.042761 
L 302.185104 83.334984 
L 302.217573 89.5902 
L 302.250042 80.68084 
L 302.28251 80.68084 
L 302.314979 64.15637 
L 302.347448 88.5259 
L 302.639666 88.5259 
L 302.769541 80.68084 
L 303.029291 80.68084 
L 303.061759 81.28354 
L 303.094228 89.473714 
L 303.126697 80.68084 
L 303.159165 80.68084 
L 303.905946 80.68084 
L 303.938414 89.473714 
L 304.003352 80.68084 
L 304.133226 80.68084 
L 304.198164 89.473714 
L 304.230633 80.68084 
L 304.263101 80.68084 
L 304.29557 88.5259 
L 304.360507 80.68084 
L 304.457913 80.68084 
L 304.55532 65.631264 
L 304.685194 80.68084 
L 304.815069 80.68084 
L 304.944944 89.473714 
L 304.977413 88.5259 
L 305.04235 89.473714 
L 305.269631 89.473714 
L 305.3021 88.5259 
L 305.367037 89.473714 
L 305.691724 89.473714 
L 305.724193 77.515509 
L 305.78913 89.473714 
L 305.821599 89.473714 
L 305.886536 77.368949 
L 305.919005 89.473714 
L 306.146286 89.473714 
L 306.276161 76.751072 
L 306.470973 76.751072 
L 306.600848 77.368949 
L 306.633316 77.368949 
L 306.698254 77.515509 
L 306.763191 76.898619 
L 306.79566 77.368949 
L 306.893066 77.368949 
L 306.990472 77.515509 
L 307.022941 76.751072 
L 307.120347 77.368949 
L 307.217753 76.751072 
L 307.250222 77.368949 
L 307.315159 76.751072 
L 307.347628 76.751072 
L 307.445034 77.368949 
L 307.574909 76.751072 
L 307.737252 76.751072 
L 307.80219 76.898619 
L 307.834658 76.751072 
L 308.029471 76.751072 
L 308.094408 76.187272 
L 308.126877 76.751072 
L 308.191814 76.751072 
L 308.224283 76.187272 
L 308.28922 76.751072 
L 308.354158 76.751072 
L 308.484032 76.187272 
L 308.678845 76.187272 
L 308.711313 76.751072 
L 308.776251 76.187272 
L 308.841188 76.187272 
L 308.971063 73.564241 
L 309.068469 73.564241 
L 309.100938 55.552164 
L 309.133406 88.919625 
L 309.165875 88.919625 
L 309.29575 55.552164 
L 309.328219 55.552164 
L 309.360687 88.919625 
L 309.425625 55.552164 
L 309.523031 55.572196 
L 309.652906 88.919625 
L 309.685374 55.572196 
L 309.750312 88.919625 
L 309.78278 88.919625 
L 309.912655 56.496206 
L 309.977593 55.572196 
L 310.04253 88.919625 
L 310.074999 56.496206 
L 310.30228 56.507077 
L 310.334748 55.572196 
L 310.399686 56.507077 
L 310.497092 60.3841 
L 310.594498 90.19011 
L 310.724373 60.335376 
L 310.756842 90.19011 
L 310.821779 60.335376 
L 310.886716 60.3841 
L 311.016591 90.19011 
L 311.113997 90.19011 
L 311.146466 89.848058 
L 311.211403 90.19011 
L 311.925715 90.19011 
L 312.120527 93.254952 
L 312.250402 92.140638 
L 312.412745 59.845029 
L 312.347808 93.254952 
L 312.445214 59.999707 
L 312.477683 59.845029 
L 312.54262 59.999707 
L 312.640026 59.999707 
L 312.80237 60.327563 
L 312.867307 60.327563 
L 312.997182 60.501494 
L 313.127057 86.415235 
L 313.256932 60.682667 
L 313.2894 60.682667 
L 313.419275 60.871568 
L 313.451744 84.824845 
L 313.516681 60.871568 
L 313.743962 60.871568 
L 313.776431 87.237517 
L 313.841368 86.415235 
L 313.938774 60.871568 
L 314.03618 88.939845 
L 314.068649 86.415235 
L 314.133586 85.611317 
L 314.263461 93.464101 
L 314.29593 92.511933 
L 314.393336 98.113259 
L 314.425805 95.77675 
L 314.55568 96.793065 
L 314.588148 93.464101 
L 314.620617 98.113259 
L 314.653086 98.113259 
L 314.815429 98.113259 
L 314.912835 100.028769 
L 315.04271 98.113259 
L 315.172585 98.113259 
L 315.205054 97.839311 
L 315.334928 99.119407 
L 315.659615 99.119407 
L 315.692084 98.616082 
L 315.724553 99.756694 
L 316.276521 99.756694 
L 316.406396 111.827585 
L 316.53627 111.30641 
L 316.731083 111.30641 
L 316.79602 110.808151 
L 316.958363 113.615021 
L 319.458453 113.615021 
L 319.490922 112.010215 
L 319.55586 113.615021 
L 320.432515 113.615021 
L 320.464983 97.050901 
L 320.562389 98.299807 
L 320.627327 98.37761 
L 320.692264 98.334943 
L 320.78967 102.84601 
L 322.315699 102.84601 
L 322.380637 104.167444 
L 322.413105 102.84601 
L 322.510511 102.84601 
L 322.770261 110.007219 
L 322.80273 110.007219 
L 322.997542 114.826331 
L 323.127417 85.094091 
L 323.322229 85.094091 
L 323.452104 84.141069 
L 323.646916 87.084042 
L 323.744322 87.084042 
L 323.906666 89.220782 
L 324.231353 89.220782 
L 324.263821 114.826331 
L 324.29629 88.128788 
L 324.328759 89.220782 
L 324.361227 89.220782 
L 324.458633 114.826331 
L 324.491102 88.128788 
L 324.55604 114.826331 
L 324.620977 101.759638 
L 324.653446 114.826331 
L 324.685914 114.826331 
L 324.815789 98.827233 
L 324.913195 95.920012 
L 325.010601 102.488268 
L 325.04307 95.920012 
L 325.108008 97.237575 
L 325.237882 103.74607 
L 325.30282 101.5097 
L 325.335288 102.7296 
L 325.400226 102.7296 
L 325.562569 100.331464 
L 325.659975 100.331464 
L 325.692444 99.192081 
L 325.757382 59.414131 
L 325.78985 92.059105 
L 326.634036 92.059105 
L 326.731443 98.709879 
L 326.763911 98.204221 
L 326.893786 98.709879 
L 327.05613 98.709879 
L 327.186004 98.204221 
L 327.413285 98.204221 
L 327.54316 97.709768 
L 327.673035 98.204221 
L 327.965253 98.204221 
L 328.030191 97.709768 
L 328.062659 98.204221 
L 328.192534 98.204221 
L 328.28994 97.709768 
L 328.419815 98.204221 
L 328.517221 98.204221 
L 328.54969 97.709768 
L 328.614627 98.204221 
L 328.744502 98.204221 
L 328.841908 97.709768 
L 328.971783 98.204221 
L 329.069189 98.204221 
L 329.199064 98.709879 
L 329.328939 98.204221 
L 329.621157 98.204221 
L 329.751032 98.709879 
L 329.848438 98.709879 
L 329.978313 98.460647 
L 330.108188 98.709879 
L 330.205594 98.460647 
L 330.238062 99.22709 
L 330.303 98.709879 
L 330.367937 98.709879 
L 330.497812 65.888811 
L 330.530281 62.745085 
L 330.562749 77.499202 
L 330.627687 65.888811 
L 330.725093 65.888811 
L 330.757562 65.362922 
L 330.79003 61.69411 
L 330.919905 80.927448 
L 330.952374 80.927448 
L 330.984842 79.366801 
L 331.017311 81.5774 
L 331.04978 80.927448 
L 331.179655 81.5774 
L 331.212123 80.927448 
L 331.244592 61.69411 
L 331.309529 79.817765 
L 331.341998 82.237593 
L 331.439404 81.5774 
L 331.601748 82.908495 
L 331.764091 82.908495 
L 331.829029 83.590592 
L 331.926435 64.662625 
L 332.05631 84.776354 
L 332.121247 84.074516 
L 332.251122 82.811903 
L 332.413465 82.811903 
L 332.54334 113.615021 
L 333.517401 113.615021 
L 333.614807 114.464865 
L 333.744682 113.615021 
L 334.199244 113.615021 
L 334.329119 114.464865 
L 334.686274 114.464865 
L 334.751212 113.615021 
L 334.783681 114.464865 
L 338.355238 114.464865 
L 338.387706 78.068429 
L 338.485113 82.623761 
L 338.517581 82.623761 
L 338.55005 81.68972 
L 338.582519 83.569059 
L 338.712393 94.522912 
L 338.744862 102.019765 
L 338.874737 81.98585 
L 341.504702 81.98585 
L 341.602108 67.911454 
L 341.667045 100.640802 
L 341.731983 100.469995 
L 341.79692 97.281354 
L 341.926795 108.454177 
L 342.089138 109.447321 
L 342.381357 109.447321 
L 342.511231 109.973521 
L 342.80345 109.973521 
L 342.933325 110.520796 
L 343.128137 110.520796 
L 343.258012 111.090239 
L 343.647636 111.090239 
L 343.777511 110.520796 
L 343.80998 110.520796 
L 343.939854 111.090239 
L 344.102198 111.090239 
L 344.199604 110.520796 
L 344.329479 111.090239 
L 344.55676 111.090239 
L 344.686634 111.683038 
L 345.206134 111.683038 
L 345.30354 112.30048 
L 345.433415 111.683038 
L 345.530821 111.683038 
L 345.595758 112.30048 
L 345.628227 111.683038 
L 346.634757 111.683038 
L 346.764631 112.30048 
L 346.7971 112.30048 
L 346.926975 111.683038 
L 347.54388 111.683038 
L 347.673755 111.090239 
L 347.80363 111.090239 
L 347.868567 111.683038 
L 347.901036 111.090239 
L 348.258192 111.090239 
L 348.388066 111.683038 
L 349.492002 111.683038 
L 349.621877 111.090239 
L 351.505062 111.090239 
L 351.634937 105.597384 
L 351.699874 105.597384 
L 351.79728 105.812483 
L 351.927155 105.176595 
L 351.992092 105.176595 
L 352.024561 106.971045 
L 352.121967 106.733903 
L 352.381717 105.583537 
L 352.511592 106.995888 
L 352.608998 105.363689 
L 352.641466 106.995888 
L 352.706404 106.499458 
L 352.933685 105.549591 
L 353.031091 105.549591 
L 353.160966 107.524191 
L 353.258372 106.993136 
L 353.29084 107.524191 
L 353.355778 105.549591 
L 353.388246 106.993136 
L 353.420715 107.257146 
L 353.485653 105.549591 
L 353.518121 109.161167 
L 353.583059 105.363689 
L 353.647996 105.583537 
L 353.745402 108.269226 
L 353.875277 103.567977 
L 354.070089 101.70689 
L 354.135027 101.70689 
L 354.492182 97.332281 
L 356.635117 97.440129 
L 356.667585 97.0694 
L 356.732523 97.440129 
L 356.862398 97.440129 
L 356.992272 97.0694 
L 357.089678 97.0694 
L 357.219553 96.934148 
L 358.323489 96.934148 
L 358.388426 80.515729 
L 358.420895 91.101237 
L 358.453364 91.101237 
L 358.55077 80.515729 
L 358.680645 117.003249 
L 389.428505 117.003249 
L 389.55838 97.332281 
L 389.915536 97.332281 
L 390.04541 101.01196 
L 390.077879 100.739322 
L 390.110348 101.01196 
L 390.499972 106.2368 
L 390.56491 73.707493 
L 390.597378 110.162509 
L 398.487273 110.162509 
L 398.487273 110.162509 
" clip-path="url(#p32b20a0abe)" style="fill: none; stroke: #1f77b4; stroke-width: 1.5; stroke-linecap: square"/>
   </g>
   <g id="patch_3">
    <path d="M 57.6 307.584 
L 57.6 41.472 
" style="fill: none; stroke: #000000; stroke-width: 0.8; stroke-linejoin: miter; stroke-linecap: square"/>
   </g>
   <g id="patch_4">
    <path d="M 414.72 307.584 
L 414.72 41.472 
" style="fill: none; stroke: #000000; stroke-width: 0.8; stroke-linejoin: miter; stroke-linecap: square"/>
   </g>
   <g id="patch_5">
    <path d="M 57.6 307.584 
L 414.72 307.584 
" style="fill: none; stroke: #000000; stroke-width: 0.8; stroke-linejoin: miter; stroke-linecap: square"/>
   </g>
   <g id="patch_6">
    <path d="M 57.6 41.472 
L 414.72 41.472 
" style="fill: none; stroke: #000000; stroke-width: 0.8; stroke-linejoin: miter; stroke-linecap: square"/>
   </g>
  </g>
 </g>
 <defs>
  <clipPath id="p32b20a0abe">
   <rect x="57.6" y="41.472" width="357.12" height="266.112"/>
  </clipPath>
 </defs>
</svg>
