<?xml version="1.0" encoding="utf-8" standalone="no"?>
<!DOCTYPE svg PUBLIC "-//W3C//DTD SVG 1.1//EN"
  "http://www.w3.org/Graphics/SVG/1.1/DTD/svg11.dtd">
<svg xmlns:xlink="http://www.w3.org/1999/xlink" width="460.8pt" height="345.6pt" viewBox="0 0 460.8 345.6" xmlns="http://www.w3.org/2000/svg" version="1.1">
 <metadata>
  <rdf:RDF xmlns:dc="http://purl.org/dc/elements/1.1/" xmlns:cc="http://creativecommons.org/ns#" xmlns:rdf="http://www.w3.org/1999/02/22-rdf-syntax-ns#">
   <cc:Work>
    <dc:type rdf:resource="http://purl.org/dc/dcmitype/StillImage"/>
    <dc:date>2024-04-25T21:48:49.942855</dc:date>
    <dc:format>image/svg+xml</dc:format>
    <dc:creator>
     <cc:Agent>
      <dc:title>Matplotlib v3.7.2, https://matplotlib.org/</dc:title>
     </cc:Agent>
    </dc:creator>
   </cc:Work>
  </rdf:RDF>
 </metadata>
 <defs>
  <style type="text/css">*{stroke-linejoin: round; stroke-linecap: butt}</style>
 </defs>
 <g id="figure_1">
  <g id="patch_1">
   <path d="M 0 345.6 
L 460.8 345.6 
L 460.8 0 
L 0 0 
z
" style="fill: #ffffff"/>
  </g>
  <g id="axes_1">
   <g id="patch_2">
    <path d="M 57.6 307.584 
L 414.72 307.584 
L 414.72 41.472 
L 57.6 41.472 
z
" style="fill: #ffffff"/>
   </g>
   <g id="matplotlib.axis_1">
    <g id="xtick_1">
     <g id="line2d_1">
      <defs>
       <path id="mafd329efb5" d="M 0 0 
L 0 3.5 
" style="stroke: #000000; stroke-width: 0.8"/>
      </defs>
      <g>
       <use xlink:href="#mafd329efb5" x="73.832727" y="307.584" style="stroke: #000000; stroke-width: 0.8"/>
      </g>
     </g>
     <g id="text_1">
      <!-- 0 -->
      <g transform="translate(70.651477 322.182437) scale(0.1 -0.1)">
       <defs>
        <path id="DejaVuSans-30" d="M 2034 4250 
Q 1547 4250 1301 3770 
Q 1056 3291 1056 2328 
Q 1056 1369 1301 889 
Q 1547 409 2034 409 
Q 2525 409 2770 889 
Q 3016 1369 3016 2328 
Q 3016 3291 2770 3770 
Q 2525 4250 2034 4250 
z
M 2034 4750 
Q 2819 4750 3233 4129 
Q 3647 3509 3647 2328 
Q 3647 1150 3233 529 
Q 2819 -91 2034 -91 
Q 1250 -91 836 529 
Q 422 1150 422 2328 
Q 422 3509 836 4129 
Q 1250 4750 2034 4750 
z
" transform="scale(0.015625)"/>
       </defs>
       <use xlink:href="#DejaVuSans-30"/>
      </g>
     </g>
    </g>
    <g id="xtick_2">
     <g id="line2d_2">
      <g>
       <use xlink:href="#mafd329efb5" x="138.77013" y="307.584" style="stroke: #000000; stroke-width: 0.8"/>
      </g>
     </g>
     <g id="text_2">
      <!-- 2000 -->
      <g transform="translate(126.04513 322.182437) scale(0.1 -0.1)">
       <defs>
        <path id="DejaVuSans-32" d="M 1228 531 
L 3431 531 
L 3431 0 
L 469 0 
L 469 531 
Q 828 903 1448 1529 
Q 2069 2156 2228 2338 
Q 2531 2678 2651 2914 
Q 2772 3150 2772 3378 
Q 2772 3750 2511 3984 
Q 2250 4219 1831 4219 
Q 1534 4219 1204 4116 
Q 875 4013 500 3803 
L 500 4441 
Q 881 4594 1212 4672 
Q 1544 4750 1819 4750 
Q 2544 4750 2975 4387 
Q 3406 4025 3406 3419 
Q 3406 3131 3298 2873 
Q 3191 2616 2906 2266 
Q 2828 2175 2409 1742 
Q 1991 1309 1228 531 
z
" transform="scale(0.015625)"/>
       </defs>
       <use xlink:href="#DejaVuSans-32"/>
       <use xlink:href="#DejaVuSans-30" x="63.623047"/>
       <use xlink:href="#DejaVuSans-30" x="127.246094"/>
       <use xlink:href="#DejaVuSans-30" x="190.869141"/>
      </g>
     </g>
    </g>
    <g id="xtick_3">
     <g id="line2d_3">
      <g>
       <use xlink:href="#mafd329efb5" x="203.707533" y="307.584" style="stroke: #000000; stroke-width: 0.8"/>
      </g>
     </g>
     <g id="text_3">
      <!-- 4000 -->
      <g transform="translate(190.982533 322.182437) scale(0.1 -0.1)">
       <defs>
        <path id="DejaVuSans-34" d="M 2419 4116 
L 825 1625 
L 2419 1625 
L 2419 4116 
z
M 2253 4666 
L 3047 4666 
L 3047 1625 
L 3713 1625 
L 3713 1100 
L 3047 1100 
L 3047 0 
L 2419 0 
L 2419 1100 
L 313 1100 
L 313 1709 
L 2253 4666 
z
" transform="scale(0.015625)"/>
       </defs>
       <use xlink:href="#DejaVuSans-34"/>
       <use xlink:href="#DejaVuSans-30" x="63.623047"/>
       <use xlink:href="#DejaVuSans-30" x="127.246094"/>
       <use xlink:href="#DejaVuSans-30" x="190.869141"/>
      </g>
     </g>
    </g>
    <g id="xtick_4">
     <g id="line2d_4">
      <g>
       <use xlink:href="#mafd329efb5" x="268.644936" y="307.584" style="stroke: #000000; stroke-width: 0.8"/>
      </g>
     </g>
     <g id="text_4">
      <!-- 6000 -->
      <g transform="translate(255.919936 322.182437) scale(0.1 -0.1)">
       <defs>
        <path id="DejaVuSans-36" d="M 2113 2584 
Q 1688 2584 1439 2293 
Q 1191 2003 1191 1497 
Q 1191 994 1439 701 
Q 1688 409 2113 409 
Q 2538 409 2786 701 
Q 3034 994 3034 1497 
Q 3034 2003 2786 2293 
Q 2538 2584 2113 2584 
z
M 3366 4563 
L 3366 3988 
Q 3128 4100 2886 4159 
Q 2644 4219 2406 4219 
Q 1781 4219 1451 3797 
Q 1122 3375 1075 2522 
Q 1259 2794 1537 2939 
Q 1816 3084 2150 3084 
Q 2853 3084 3261 2657 
Q 3669 2231 3669 1497 
Q 3669 778 3244 343 
Q 2819 -91 2113 -91 
Q 1303 -91 875 529 
Q 447 1150 447 2328 
Q 447 3434 972 4092 
Q 1497 4750 2381 4750 
Q 2619 4750 2861 4703 
Q 3103 4656 3366 4563 
z
" transform="scale(0.015625)"/>
       </defs>
       <use xlink:href="#DejaVuSans-36"/>
       <use xlink:href="#DejaVuSans-30" x="63.623047"/>
       <use xlink:href="#DejaVuSans-30" x="127.246094"/>
       <use xlink:href="#DejaVuSans-30" x="190.869141"/>
      </g>
     </g>
    </g>
    <g id="xtick_5">
     <g id="line2d_5">
      <g>
       <use xlink:href="#mafd329efb5" x="333.582339" y="307.584" style="stroke: #000000; stroke-width: 0.8"/>
      </g>
     </g>
     <g id="text_5">
      <!-- 8000 -->
      <g transform="translate(320.857339 322.182437) scale(0.1 -0.1)">
       <defs>
        <path id="DejaVuSans-38" d="M 2034 2216 
Q 1584 2216 1326 1975 
Q 1069 1734 1069 1313 
Q 1069 891 1326 650 
Q 1584 409 2034 409 
Q 2484 409 2743 651 
Q 3003 894 3003 1313 
Q 3003 1734 2745 1975 
Q 2488 2216 2034 2216 
z
M 1403 2484 
Q 997 2584 770 2862 
Q 544 3141 544 3541 
Q 544 4100 942 4425 
Q 1341 4750 2034 4750 
Q 2731 4750 3128 4425 
Q 3525 4100 3525 3541 
Q 3525 3141 3298 2862 
Q 3072 2584 2669 2484 
Q 3125 2378 3379 2068 
Q 3634 1759 3634 1313 
Q 3634 634 3220 271 
Q 2806 -91 2034 -91 
Q 1263 -91 848 271 
Q 434 634 434 1313 
Q 434 1759 690 2068 
Q 947 2378 1403 2484 
z
M 1172 3481 
Q 1172 3119 1398 2916 
Q 1625 2713 2034 2713 
Q 2441 2713 2670 2916 
Q 2900 3119 2900 3481 
Q 2900 3844 2670 4047 
Q 2441 4250 2034 4250 
Q 1625 4250 1398 4047 
Q 1172 3844 1172 3481 
z
" transform="scale(0.015625)"/>
       </defs>
       <use xlink:href="#DejaVuSans-38"/>
       <use xlink:href="#DejaVuSans-30" x="63.623047"/>
       <use xlink:href="#DejaVuSans-30" x="127.246094"/>
       <use xlink:href="#DejaVuSans-30" x="190.869141"/>
      </g>
     </g>
    </g>
    <g id="xtick_6">
     <g id="line2d_6">
      <g>
       <use xlink:href="#mafd329efb5" x="398.519741" y="307.584" style="stroke: #000000; stroke-width: 0.8"/>
      </g>
     </g>
     <g id="text_6">
      <!-- 10000 -->
      <g transform="translate(382.613491 322.182437) scale(0.1 -0.1)">
       <defs>
        <path id="DejaVuSans-31" d="M 794 531 
L 1825 531 
L 1825 4091 
L 703 3866 
L 703 4441 
L 1819 4666 
L 2450 4666 
L 2450 531 
L 3481 531 
L 3481 0 
L 794 0 
L 794 531 
z
" transform="scale(0.015625)"/>
       </defs>
       <use xlink:href="#DejaVuSans-31"/>
       <use xlink:href="#DejaVuSans-30" x="63.623047"/>
       <use xlink:href="#DejaVuSans-30" x="127.246094"/>
       <use xlink:href="#DejaVuSans-30" x="190.869141"/>
       <use xlink:href="#DejaVuSans-30" x="254.492188"/>
      </g>
     </g>
    </g>
   </g>
   <g id="matplotlib.axis_2">
    <g id="ytick_1">
     <g id="line2d_7">
      <defs>
       <path id="mb040ae6d53" d="M 0 0 
L -3.5 0 
" style="stroke: #000000; stroke-width: 0.8"/>
      </defs>
      <g>
       <use xlink:href="#mb040ae6d53" x="57.6" y="295.488" style="stroke: #000000; stroke-width: 0.8"/>
      </g>
     </g>
     <g id="text_7">
      <!-- −300 -->
      <g transform="translate(23.132812 299.287219) scale(0.1 -0.1)">
       <defs>
        <path id="DejaVuSans-2212" d="M 678 2272 
L 4684 2272 
L 4684 1741 
L 678 1741 
L 678 2272 
z
" transform="scale(0.015625)"/>
        <path id="DejaVuSans-33" d="M 2597 2516 
Q 3050 2419 3304 2112 
Q 3559 1806 3559 1356 
Q 3559 666 3084 287 
Q 2609 -91 1734 -91 
Q 1441 -91 1130 -33 
Q 819 25 488 141 
L 488 750 
Q 750 597 1062 519 
Q 1375 441 1716 441 
Q 2309 441 2620 675 
Q 2931 909 2931 1356 
Q 2931 1769 2642 2001 
Q 2353 2234 1838 2234 
L 1294 2234 
L 1294 2753 
L 1863 2753 
Q 2328 2753 2575 2939 
Q 2822 3125 2822 3475 
Q 2822 3834 2567 4026 
Q 2313 4219 1838 4219 
Q 1578 4219 1281 4162 
Q 984 4106 628 3988 
L 628 4550 
Q 988 4650 1302 4700 
Q 1616 4750 1894 4750 
Q 2613 4750 3031 4423 
Q 3450 4097 3450 3541 
Q 3450 3153 3228 2886 
Q 3006 2619 2597 2516 
z
" transform="scale(0.015625)"/>
       </defs>
       <use xlink:href="#DejaVuSans-2212"/>
       <use xlink:href="#DejaVuSans-33" x="83.789062"/>
       <use xlink:href="#DejaVuSans-30" x="147.412109"/>
       <use xlink:href="#DejaVuSans-30" x="211.035156"/>
      </g>
     </g>
    </g>
    <g id="ytick_2">
     <g id="line2d_8">
      <g>
       <use xlink:href="#mb040ae6d53" x="57.6" y="262.988719" style="stroke: #000000; stroke-width: 0.8"/>
      </g>
     </g>
     <g id="text_8">
      <!-- −250 -->
      <g transform="translate(23.132812 266.787938) scale(0.1 -0.1)">
       <defs>
        <path id="DejaVuSans-35" d="M 691 4666 
L 3169 4666 
L 3169 4134 
L 1269 4134 
L 1269 2991 
Q 1406 3038 1543 3061 
Q 1681 3084 1819 3084 
Q 2600 3084 3056 2656 
Q 3513 2228 3513 1497 
Q 3513 744 3044 326 
Q 2575 -91 1722 -91 
Q 1428 -91 1123 -41 
Q 819 9 494 109 
L 494 744 
Q 775 591 1075 516 
Q 1375 441 1709 441 
Q 2250 441 2565 725 
Q 2881 1009 2881 1497 
Q 2881 1984 2565 2268 
Q 2250 2553 1709 2553 
Q 1456 2553 1204 2497 
Q 953 2441 691 2322 
L 691 4666 
z
" transform="scale(0.015625)"/>
       </defs>
       <use xlink:href="#DejaVuSans-2212"/>
       <use xlink:href="#DejaVuSans-32" x="83.789062"/>
       <use xlink:href="#DejaVuSans-35" x="147.412109"/>
       <use xlink:href="#DejaVuSans-30" x="211.035156"/>
      </g>
     </g>
    </g>
    <g id="ytick_3">
     <g id="line2d_9">
      <g>
       <use xlink:href="#mb040ae6d53" x="57.6" y="230.489438" style="stroke: #000000; stroke-width: 0.8"/>
      </g>
     </g>
     <g id="text_9">
      <!-- −200 -->
      <g transform="translate(23.132812 234.288657) scale(0.1 -0.1)">
       <use xlink:href="#DejaVuSans-2212"/>
       <use xlink:href="#DejaVuSans-32" x="83.789062"/>
       <use xlink:href="#DejaVuSans-30" x="147.412109"/>
       <use xlink:href="#DejaVuSans-30" x="211.035156"/>
      </g>
     </g>
    </g>
    <g id="ytick_4">
     <g id="line2d_10">
      <g>
       <use xlink:href="#mb040ae6d53" x="57.6" y="197.990157" style="stroke: #000000; stroke-width: 0.8"/>
      </g>
     </g>
     <g id="text_10">
      <!-- −150 -->
      <g transform="translate(23.132812 201.789376) scale(0.1 -0.1)">
       <use xlink:href="#DejaVuSans-2212"/>
       <use xlink:href="#DejaVuSans-31" x="83.789062"/>
       <use xlink:href="#DejaVuSans-35" x="147.412109"/>
       <use xlink:href="#DejaVuSans-30" x="211.035156"/>
      </g>
     </g>
    </g>
    <g id="ytick_5">
     <g id="line2d_11">
      <g>
       <use xlink:href="#mb040ae6d53" x="57.6" y="165.490876" style="stroke: #000000; stroke-width: 0.8"/>
      </g>
     </g>
     <g id="text_11">
      <!-- −100 -->
      <g transform="translate(23.132812 169.290095) scale(0.1 -0.1)">
       <use xlink:href="#DejaVuSans-2212"/>
       <use xlink:href="#DejaVuSans-31" x="83.789062"/>
       <use xlink:href="#DejaVuSans-30" x="147.412109"/>
       <use xlink:href="#DejaVuSans-30" x="211.035156"/>
      </g>
     </g>
    </g>
    <g id="ytick_6">
     <g id="line2d_12">
      <g>
       <use xlink:href="#mb040ae6d53" x="57.6" y="132.991595" style="stroke: #000000; stroke-width: 0.8"/>
      </g>
     </g>
     <g id="text_12">
      <!-- −50 -->
      <g transform="translate(29.495313 136.790813) scale(0.1 -0.1)">
       <use xlink:href="#DejaVuSans-2212"/>
       <use xlink:href="#DejaVuSans-35" x="83.789062"/>
       <use xlink:href="#DejaVuSans-30" x="147.412109"/>
      </g>
     </g>
    </g>
    <g id="ytick_7">
     <g id="line2d_13">
      <g>
       <use xlink:href="#mb040ae6d53" x="57.6" y="100.492314" style="stroke: #000000; stroke-width: 0.8"/>
      </g>
     </g>
     <g id="text_13">
      <!-- 0 -->
      <g transform="translate(44.2375 104.291532) scale(0.1 -0.1)">
       <use xlink:href="#DejaVuSans-30"/>
      </g>
     </g>
    </g>
    <g id="ytick_8">
     <g id="line2d_14">
      <g>
       <use xlink:href="#mb040ae6d53" x="57.6" y="67.993033" style="stroke: #000000; stroke-width: 0.8"/>
      </g>
     </g>
     <g id="text_14">
      <!-- 50 -->
      <g transform="translate(37.875 71.792251) scale(0.1 -0.1)">
       <use xlink:href="#DejaVuSans-35"/>
       <use xlink:href="#DejaVuSans-30" x="63.623047"/>
      </g>
     </g>
    </g>
   </g>
   <g id="line2d_15">
    <path d="M 73.832727 94.844769 
L 73.865196 295.488 
L 73.897665 68.324788 
L 73.930133 99.299782 
L 73.962602 95.778463 
L 73.995071 69.383476 
L 74.060008 99.882369 
L 74.124946 95.505622 
L 74.157414 295.488 
L 74.222352 99.704606 
L 74.25482 102.116956 
L 74.287289 78.837682 
L 74.352226 80.56433 
L 74.384695 99.804934 
L 74.417164 295.488 
L 74.449633 94.266655 
L 74.482101 99.882369 
L 74.51457 99.624073 
L 74.547039 99.882369 
L 74.611976 75.6967 
L 74.676914 295.488 
L 74.709382 72.453899 
L 74.806788 99.804934 
L 74.839257 83.954813 
L 74.904194 96.0041 
L 75.001601 295.488 
L 75.034069 82.964117 
L 75.131475 85.338168 
L 75.163944 95.111989 
L 75.196413 80.704953 
L 75.228881 72.087107 
L 75.26135 77.274773 
L 75.293819 295.488 
L 75.358756 98.924566 
L 75.423694 84.416135 
L 75.456162 98.924566 
L 75.488631 96.0041 
L 75.5211 74.296625 
L 75.553568 99.882369 
L 75.618506 295.488 
L 75.650975 99.804934 
L 75.683443 76.4436 
L 75.748381 295.488 
L 75.780849 92.662743 
L 75.813318 101.412652 
L 75.845787 81.347121 
L 75.878255 295.488 
L 75.943193 101.131244 
L 76.105536 73.670132 
L 76.138005 99.804934 
L 76.202942 99.22043 
L 76.235411 84.908665 
L 76.332817 295.488 
L 76.365286 75.053465 
L 76.462692 96.0041 
L 76.495161 93.695338 
L 76.527629 295.488 
L 76.560098 76.801885 
L 76.592567 98.924566 
L 76.625036 98.253479 
L 76.657504 102.039638 
L 76.689973 295.488 
L 76.75491 95.778463 
L 76.787379 98.924566 
L 76.819848 96.582557 
L 76.852317 295.488 
L 76.917254 75.996571 
L 76.949723 97.760161 
L 77.01466 80.704953 
L 77.079597 295.488 
L 77.112066 99.804934 
L 77.177004 99.882369 
L 77.209472 83.337982 
L 77.339347 99.804934 
L 77.371816 93.695338 
L 77.469222 89.552182 
L 77.501691 295.488 
L 77.631565 61.88848 
L 77.76144 103.19592 
L 77.793909 95.728899 
L 77.923784 295.488 
L 77.956252 295.488 
L 78.053658 75.807734 
L 78.086127 92.068474 
L 78.118596 102.334711 
L 78.151065 80.274511 
L 78.183533 61.891366 
L 78.248471 75.193616 
L 78.280939 105.608642 
L 78.345877 104.48534 
L 78.378345 84.498869 
L 78.410814 144.067069 
L 78.475752 83.780643 
L 78.573158 92.75869 
L 78.605626 69.945649 
L 78.638095 97.825701 
L 78.670564 91.483403 
L 78.735501 96.051715 
L 78.76797 78.180161 
L 78.800439 97.420767 
L 78.832907 82.600298 
L 78.865376 96.779479 
L 78.897845 77.922982 
L 78.930313 74.258967 
L 78.962782 77.554969 
L 78.995251 109.972185 
L 79.060188 74.239264 
L 79.092657 99.796125 
L 79.125126 99.796125 
L 79.190063 74.239264 
L 79.255 84.527499 
L 79.319938 74.258967 
L 79.384875 101.478548 
L 79.449813 99.796125 
L 79.482281 74.287627 
L 79.579687 75.773612 
L 79.612156 112.837355 
L 79.677094 76.55646 
L 79.709562 75.008207 
L 79.839437 88.147607 
L 79.936843 75.773612 
L 79.969312 295.488 
L 80.034249 100.535841 
L 80.066718 85.793197 
L 80.099187 86.531871 
L 80.131655 295.488 
L 80.196593 101.209142 
L 80.26153 102.116956 
L 80.326468 84.527499 
L 80.358936 84.527499 
L 80.456342 102.116956 
L 80.488811 295.488 
L 80.52128 84.66951 
L 80.553748 87.116589 
L 80.586217 102.116956 
L 80.618686 84.038523 
L 80.651155 84.228115 
L 80.683623 84.527499 
L 80.748561 111.65622 
L 80.813498 102.116956 
L 80.845967 295.488 
L 80.878435 77.422628 
L 80.975842 101.209142 
L 81.00831 103.321036 
L 81.040779 295.488 
L 81.073248 102.116956 
L 81.105716 102.116956 
L 81.138185 102.116956 
L 81.170654 85.134923 
L 81.203122 101.209142 
L 81.235591 295.488 
L 81.300529 102.116956 
L 81.462872 99.796125 
L 81.495341 85.917098 
L 81.52781 295.488 
L 81.592747 102.116956 
L 81.657684 102.116956 
L 81.75509 101.209142 
L 81.820028 102.116956 
L 81.852497 295.488 
L 81.917434 102.116956 
L 82.01484 102.116956 
L 82.047309 101.209142 
L 82.079777 85.462919 
L 82.112246 102.116956 
L 82.144715 101.209142 
L 82.177184 102.116956 
L 82.209652 85.749652 
L 82.27459 101.209142 
L 82.339527 101.209142 
L 82.371996 295.488 
L 82.436933 102.116956 
L 82.501871 102.116956 
L 82.534339 101.209142 
L 82.566808 295.488 
L 82.631745 102.116956 
L 82.664214 101.209142 
L 82.696683 102.116956 
L 82.729151 295.488 
L 82.794089 91.328051 
L 82.826558 86.536584 
L 82.956432 102.116956 
L 82.988901 90.328078 
L 83.053838 102.116956 
L 83.086307 102.116956 
L 83.118776 295.488 
L 83.183713 102.116956 
L 83.216182 103.043355 
L 83.248651 295.488 
L 83.281119 102.116956 
L 83.313588 102.116956 
L 83.378525 102.116956 
L 83.443463 80.403726 
L 83.475932 295.488 
L 83.605806 102.116956 
L 83.670744 102.116956 
L 83.703213 103.043355 
L 83.76815 102.116956 
L 83.898025 295.488 
L 83.930493 295.488 
L 84.060368 102.116956 
L 84.190243 295.488 
L 84.320118 102.116956 
L 84.385055 295.488 
L 84.417524 102.116956 
L 84.449993 102.116956 
L 84.51493 84.527499 
L 84.579867 295.488 
L 84.644805 295.488 
L 84.77468 102.116956 
L 84.807148 102.116956 
L 84.904554 295.488 
L 85.034429 102.116956 
L 85.099367 295.488 
L 85.131835 101.209142 
L 85.26171 102.116956 
L 85.391585 295.488 
L 85.424054 295.488 
L 85.488991 101.209142 
L 85.52146 295.488 
L 85.586397 295.488 
L 85.716272 102.116956 
L 85.748741 295.488 
L 85.781209 101.209142 
L 85.813678 102.116956 
L 85.846147 102.116956 
L 85.911084 101.209142 
L 86.00849 295.488 
L 86.073428 101.209142 
L 86.105896 295.488 
L 86.138365 295.488 
L 86.203303 101.209142 
L 86.235771 102.116956 
L 86.26824 295.488 
L 86.333177 102.134154 
L 86.430583 101.209142 
L 86.560458 295.488 
L 86.592927 84.871264 
L 86.657864 295.488 
L 86.722802 295.488 
L 86.852677 101.209142 
L 86.885145 101.209142 
L 86.917614 295.488 
L 86.982551 101.209142 
L 87.01502 101.209142 
L 87.047489 99.882369 
L 87.112426 101.209142 
L 87.144895 295.488 
L 87.209832 84.033799 
L 87.242301 84.038523 
L 87.307238 295.488 
L 87.339707 99.882369 
L 87.372176 100.436049 
L 87.404644 295.488 
L 87.469582 101.209142 
L 87.502051 97.293759 
L 87.534519 99.882369 
L 87.631925 96.900785 
L 87.664394 295.488 
L 87.696863 295.488 
L 87.826738 76.599104 
L 87.859206 73.985711 
L 87.956612 99.299782 
L 87.989081 76.965047 
L 88.02155 99.882369 
L 88.086487 77.831538 
L 88.151425 76.788298 
L 88.216362 96.311754 
L 88.281299 96.900785 
L 88.313768 81.299613 
L 88.346237 96.900785 
L 88.378706 81.299613 
L 88.541049 67.59586 
L 88.605986 97.521129 
L 88.638455 81.299613 
L 88.670924 68.492538 
L 88.703393 82.572281 
L 88.735861 96.311754 
L 88.76833 70.109675 
L 88.800799 68.994896 
L 88.833267 69.533756 
L 88.865736 96.632098 
L 88.898205 68.026276 
L 88.930673 94.730127 
L 89.060548 65.344679 
L 89.093017 77.046383 
L 89.157954 76.892098 
L 89.190423 67.054497 
L 89.25536 79.229182 
L 89.320298 79.977704 
L 89.352767 90.370278 
L 89.450173 88.001516 
L 89.580047 83.757374 
L 89.612516 83.757374 
L 89.839797 96.743782 
L 89.872266 94.714289 
L 89.937203 96.950845 
L 89.969672 94.904016 
L 90.067078 96.950845 
L 90.196953 94.904016 
L 90.326828 96.950845 
L 90.456702 96.950845 
L 90.489171 94.904016 
L 90.554109 96.950845 
L 90.586577 96.950845 
L 90.683983 94.904016 
L 90.813858 96.950845 
L 90.911264 96.950845 
L 90.943733 96.743782 
L 91.041139 87.744705 
L 91.171014 89.704631 
L 91.300889 90.143589 
L 100.879156 90.143589 
L 100.911624 86.568158 
L 100.976562 90.143589 
L 101.138905 90.143589 
L 101.171374 86.568158 
L 101.236311 90.143583 
L 101.26878 90.143589 
L 101.366186 86.458823 
L 101.398655 86.526062 
L 101.431123 86.526062 
L 101.463592 90.143589 
L 101.52853 86.489475 
L 101.560998 86.568158 
L 101.593467 90.143583 
L 101.658404 86.568158 
L 101.690873 86.405514 
L 101.723342 86.568158 
L 101.788279 90.143589 
L 101.820748 86.568158 
L 101.853217 86.568158 
L 101.950623 86.405514 
L 101.983091 86.568158 
L 102.048029 86.405514 
L 102.177904 90.143583 
L 102.242841 86.458823 
L 102.307778 86.461791 
L 102.372716 86.568158 
L 102.437653 86.405514 
L 102.470122 86.405514 
L 102.567528 86.568158 
L 102.599997 90.143583 
L 102.664934 86.568158 
L 102.697403 86.568158 
L 102.827278 90.143589 
L 102.924684 86.405514 
L 102.957152 86.568158 
L 103.02209 86.568158 
L 103.119496 90.143583 
L 103.151965 86.405514 
L 103.216902 90.143589 
L 103.249371 90.143583 
L 103.379246 86.568158 
L 103.444183 90.143589 
L 103.476652 86.458823 
L 103.50912 86.506464 
L 103.574058 86.405514 
L 103.638995 90.143589 
L 103.671464 90.143583 
L 103.703933 86.568158 
L 103.76887 90.143589 
L 104.2559 90.143583 
L 104.288369 86.506464 
L 104.353307 90.143589 
L 104.385775 90.143589 
L 104.51565 86.568158 
L 104.645525 90.143589 
L 104.710462 90.143589 
L 104.742931 86.568158 
L 104.807868 90.143583 
L 104.840337 90.143589 
L 104.905275 86.434521 
L 104.970212 86.568158 
L 105.067618 86.526062 
L 105.100087 90.143583 
L 105.165024 86.407151 
L 105.294899 86.568158 
L 105.327368 86.405514 
L 105.392305 86.568158 
L 105.424774 86.568158 
L 105.52218 86.405514 
L 105.554649 86.568158 
L 105.619586 86.405514 
L 105.684523 86.405514 
L 105.814398 65.651118 
L 105.911804 65.651118 
L 105.976742 69.270944 
L 106.00921 65.651118 
L 106.106616 65.651118 
L 106.139085 69.270944 
L 106.204023 65.651118 
L 106.301429 65.651118 
L 106.398835 69.270944 
L 106.463772 65.651118 
L 106.496241 69.270944 
L 106.561178 69.270944 
L 106.658584 65.651118 
L 106.788459 69.270944 
L 106.820928 69.270944 
L 106.918334 65.651118 
L 106.983271 69.7012 
L 107.048209 69.270944 
L 107.178084 65.651118 
L 107.210552 66.081379 
L 107.27549 65.651118 
L 107.307958 65.651118 
L 107.405365 66.523406 
L 107.437833 65.651118 
L 107.470302 67.444577 
L 107.632645 70.143222 
L 107.665114 67.444577 
L 107.697583 71.114127 
L 107.730052 67.924691 
L 107.892395 73.607815 
L 107.924864 70.542653 
L 107.957332 69.449586 
L 108.02227 74.663538 
L 108.087207 73.003486 
L 108.119676 69.988042 
L 108.184613 74.16242 
L 108.217082 73.547408 
L 108.249551 69.950155 
L 108.282019 74.16242 
L 108.346957 71.114127 
L 108.541769 76.425474 
L 108.574238 73.528053 
L 108.606706 73.528053 
L 108.639175 72.310712 
L 108.736581 76.394141 
L 108.704113 69.988042 
L 108.76905 75.614507 
L 108.801519 72.881196 
L 108.833987 80.777513 
L 108.866456 72.276791 
L 108.898925 74.733892 
L 108.996331 74.902582 
L 109.0288 71.114127 
L 109.126206 74.902582 
L 109.158674 73.528053 
L 109.191143 69.960123 
L 109.223612 75.656185 
L 109.256081 75.614507 
L 109.385955 71.703214 
L 109.483361 71.114127 
L 109.51583 75.614507 
L 109.548299 71.114127 
L 109.613236 76.394141 
L 109.678174 74.252457 
L 109.77558 70.542658 
L 109.872986 74.942685 
L 109.905455 72.937474 
L 109.937923 73.584401 
L 109.970392 70.542658 
L 110.002861 74.252461 
L 110.035329 71.703218 
L 110.067798 72.937474 
L 110.100267 71.114132 
L 110.132735 70.542658 
L 110.165204 72.937474 
L 110.230142 70.542658 
L 110.295079 76.394145 
L 110.360016 73.584401 
L 110.457422 71.114132 
L 110.489891 74.252461 
L 110.554829 71.703218 
L 110.652235 74.252461 
L 110.782109 69.988046 
L 110.814578 78.562405 
L 110.879516 74.252461 
L 111.00939 71.703218 
L 111.106796 77.157824 
L 111.139265 76.394145 
L 111.204203 72.310716 
L 111.26914 73.584401 
L 111.301609 75.656189 
L 111.334077 72.310716 
L 111.399015 74.942689 
L 111.463952 77.157824 
L 111.561358 72.310716 
L 111.593827 74.252461 
L 111.626296 75.656189 
L 111.658764 70.542658 
L 111.723702 72.310716 
L 111.756171 73.584401 
L 111.788639 72.310716 
L 111.821108 71.114132 
L 111.853577 72.937474 
L 111.886045 77.204132 
L 111.918514 71.114132 
L 111.950983 74.942689 
L 112.01592 72.937474 
L 112.048389 80.013846 
L 112.113326 77.872185 
L 112.27567 71.114132 
L 112.340607 77.204132 
L 112.373076 70.542658 
L 112.405545 70.542658 
L 112.502951 76.557213 
L 112.567888 72.937474 
L 112.632825 73.584401 
L 112.665294 77.948588 
L 112.730232 74.252461 
L 112.7627 70.542658 
L 112.827638 74.252461 
L 112.860106 73.584401 
L 112.892575 78.562405 
L 112.957512 77.157824 
L 113.02245 77.872185 
L 113.119856 73.60782 
L 113.217262 74.252461 
L 113.249731 71.114132 
L 113.314668 73.584401 
L 113.379606 75.656189 
L 113.477012 69.988046 
L 113.50948 72.310716 
L 113.639355 75.930462 
L 113.671824 71.703218 
L 113.76923 72.937474 
L 113.801699 72.937474 
L 113.899105 71.703218 
L 113.931574 77.872185 
L 113.964042 74.252461 
L 114.02898 76.557213 
L 114.061448 77.872185 
L 114.093917 77.204132 
L 114.126386 73.584401 
L 114.158854 77.872185 
L 114.223792 74.252461 
L 114.256261 72.310716 
L 114.321198 78.562405 
L 114.353667 77.204132 
L 114.451073 72.310716 
L 114.580948 77.872185 
L 114.710822 73.584401 
L 114.77576 78.562405 
L 114.808228 70.542658 
L 114.873166 73.584401 
L 114.970572 77.872185 
L 115.035509 71.114132 
L 115.067978 75.251107 
L 115.132915 80.777513 
L 115.165384 76.425474 
L 115.197853 72.310712 
L 115.230322 77.204132 
L 115.26279 76.394141 
L 115.295259 76.394145 
L 115.360196 77.872181 
L 115.392665 75.322967 
L 115.425134 75.930458 
L 115.457602 79.816227 
L 115.490071 75.80184 
L 115.555009 79.047664 
L 115.587477 73.540456 
L 115.652415 77.204132 
L 115.717352 77.872181 
L 115.749821 74.902582 
L 115.814758 75.656189 
L 115.879696 81.568272 
L 115.944633 78.562405 
L 115.977102 77.204132 
L 116.042039 78.562405 
L 116.106977 77.872185 
L 116.139445 79.816227 
L 116.236851 77.204132 
L 116.204383 80.013846 
L 116.26932 77.794166 
L 116.301789 77.204132 
L 116.334257 81.568272 
L 116.366726 76.557213 
L 116.399195 79.275898 
L 116.431664 78.562405 
L 116.464132 81.414065 
L 116.496601 75.930462 
L 116.52907 75.322972 
L 116.561538 72.546412 
L 116.594007 76.482294 
L 116.626476 80.013846 
L 116.691413 78.562405 
L 116.723882 72.310712 
L 116.821288 74.252457 
L 116.951163 77.872185 
L 116.983631 75.322972 
L 117.0161 78.562401 
L 117.048569 80.53605 
L 117.081038 75.930462 
L 117.113506 74.733892 
L 117.145975 79.275894 
L 117.210912 75.930458 
L 117.243381 75.322972 
L 117.373256 80.777513 
L 117.470662 74.16242 
L 117.503131 80.013846 
L 117.568068 75.251107 
L 117.665474 77.872181 
L 117.76288 74.61144 
L 117.795349 75.930458 
L 117.827818 74.733887 
L 117.860286 80.013846 
L 117.925224 76.482294 
L 117.990161 76.966394 
L 118.087567 73.607815 
L 118.152505 87.594436 
L 118.184973 77.204128 
L 118.217442 73.540456 
L 118.249911 78.421182 
L 118.28238 77.069254 
L 118.379786 76.354916 
L 118.412254 82.387572 
L 118.444723 74.007747 
L 118.542129 77.204128 
L 118.574598 75.857076 
L 118.607067 78.562401 
L 118.639535 81.221181 
L 118.672004 76.557209 
L 118.704473 77.734146 
L 118.736941 77.127669 
L 118.834347 75.930458 
L 118.866816 80.670823 
L 118.899285 81.792779 
L 118.931754 86.835253 
L 118.964222 80.670823 
L 118.996691 86.317785 
L 119.02916 80.670823 
L 119.126566 82.386565 
L 119.191503 83.644832 
L 119.223972 88.573137 
L 119.256441 79.630342 
L 119.288909 79.630342 
L 119.418784 87.594436 
L 119.451253 82.386565 
L 119.483721 80.670823 
L 119.51619 88.816278 
L 119.581128 81.402123 
L 119.646065 78.664898 
L 119.711002 88.237172 
L 119.77594 81.221181 
L 119.808408 84.311563 
L 119.840877 84.647587 
L 119.905815 81.221181 
L 119.938283 85.164234 
L 119.970752 86.66783 
L 120.003221 85.726481 
L 120.133095 81.792779 
L 120.165564 79.630342 
L 120.198033 88.397571 
L 120.26297 82.386565 
L 120.295439 80.14082 
L 120.327908 83.54603 
L 120.360376 88.816278 
L 120.425314 81.792779 
L 120.587657 84.951404 
L 120.620126 80.14082 
L 120.652595 81.792779 
L 120.685063 87.276129 
L 120.750001 81.221181 
L 120.847407 83.644832 
L 120.814938 79.630342 
L 120.879876 82.386565 
L 120.912344 80.14082 
L 120.977282 80.670823 
L 121.074688 88.397571 
L 121.107157 80.670823 
L 121.204563 83.003554 
L 121.366906 80.14082 
L 121.399375 88.307316 
L 121.496781 87.990381 
L 121.52925 78.664898 
L 121.594187 85.026821 
L 121.626656 84.375263 
L 121.756531 80.670823 
L 121.788999 79.630342 
L 121.821468 86.477457 
L 121.886405 83.644832 
L 122.01628 81.221181 
L 122.048749 81.792779 
L 122.081218 83.003554 
L 122.113686 81.221181 
L 122.146155 82.386565 
L 122.211092 80.670823 
L 122.27603 79.138611 
L 122.340967 85.726481 
L 122.470842 80.14082 
L 122.535779 79.138611 
L 122.633186 83.644832 
L 122.698123 80.14082 
L 122.730592 81.221181 
L 122.795529 80.14082 
L 122.827998 82.386565 
L 122.860466 81.792779 
L 122.892935 84.311563 
L 122.990341 70.542653 
L 123.055279 85.726481 
L 123.120216 83.003554 
L 123.152685 75.614507 
L 123.250091 78.208518 
L 123.28256 74.942689 
L 123.315028 80.670823 
L 123.347497 81.792779 
L 123.379966 72.310716 
L 123.444903 84.311563 
L 123.574778 75.930458 
L 123.607247 80.14082 
L 123.639715 73.169456 
L 123.672184 73.584401 
L 123.737121 81.983244 
L 123.76959 71.703218 
L 123.866996 72.310716 
L 123.964402 89.892879 
L 123.996871 74.942689 
L 124.02934 72.310716 
L 124.094277 75.870552 
L 124.126746 73.812023 
L 124.159214 75.161503 
L 124.191683 77.363187 
L 124.224152 72.310716 
L 124.256621 72.547027 
L 124.354027 75.870552 
L 124.386495 88.129264 
L 124.451433 73.169456 
L 124.51637 74.475695 
L 124.581308 76.604024 
L 124.613776 71.703218 
L 124.678714 77.363187 
L 124.711182 73.584401 
L 124.743651 72.547027 
L 124.77612 75.656189 
L 124.841057 73.812023 
L 124.873526 73.812023 
L 124.905995 74.475695 
L 124.938463 72.547027 
L 125.003401 95.512525 
L 125.035869 94.046183 
L 125.133276 70.241397 
L 125.100807 103.072203 
L 125.165744 72.547027 
L 125.198213 75.870552 
L 125.26315 73.812023 
L 125.295619 73.812023 
L 125.328088 74.475695 
L 125.360556 102.793207 
L 125.425494 73.584401 
L 125.457963 74.475695 
L 125.490431 87.756934 
L 125.555369 77.363187 
L 125.587837 70.79179 
L 125.652775 75.161503 
L 125.685243 75.161503 
L 125.717712 71.359018 
L 125.750181 76.604024 
L 125.78265 75.161503 
L 125.847587 102.625862 
L 125.912524 101.679804 
L 125.944993 104.737507 
L 126.074868 72.547027 
L 126.107337 97.768734 
L 126.172274 72.547027 
L 126.237211 74.475695 
L 126.26968 91.410014 
L 126.334617 70.79179 
L 126.367086 73.169456 
L 126.399555 96.399094 
L 126.464492 72.196564 
L 126.561898 75.161503 
L 126.594367 94.848196 
L 126.659304 73.812023 
L 126.691773 73.169456 
L 126.789179 76.604024 
L 126.756711 71.359018 
L 126.821648 75.656189 
L 126.854117 73.584401 
L 126.886585 77.157824 
L 126.919054 75.161503 
L 127.01646 83.599069 
L 127.081398 72.547027 
L 127.146335 79.630342 
L 127.178804 75.870552 
L 127.211272 80.786003 
L 127.243741 84.230623 
L 127.308679 80.786003 
L 127.341147 73.812023 
L 127.406085 82.99187 
L 127.438553 81.305922 
L 127.503491 86.283466 
L 127.568428 72.310716 
L 127.600897 72.884255 
L 127.633366 84.679418 
L 127.730772 82.147603 
L 127.76324 82.163499 
L 127.828178 73.140214 
L 127.860646 82.380263 
L 127.893115 82.318298 
L 127.958053 73.584401 
L 127.990521 75.580702 
L 128.02299 84.898563 
L 128.087927 73.584401 
L 128.120396 71.114132 
L 128.152865 74.942689 
L 128.185333 84.629572 
L 128.28274 83.213496 
L 128.315208 72.937474 
L 128.412614 75.656189 
L 128.445083 72.310716 
L 128.477552 82.528979 
L 128.51002 70.542658 
L 128.574958 81.884574 
L 128.704833 69.988046 
L 128.737301 75.656189 
L 128.802239 71.703218 
L 128.867176 73.812023 
L 128.899645 80.63605 
L 128.964582 74.942689 
L 129.02952 72.547027 
L 129.061988 77.363187 
L 129.126926 75.656189 
L 129.191863 71.183648 
L 129.289269 83.896407 
L 129.321738 79.979352 
L 129.354207 80.707935 
L 129.386675 79.424041 
L 129.419144 79.444629 
L 129.549019 85.426649 
L 129.613956 87.565791 
L 129.678894 80.893118 
L 129.7763 84.577117 
L 129.906175 78.269068 
L 129.938643 80.704953 
L 129.971112 67.106455 
L 130.036049 76.267346 
L 130.100987 70.931628 
L 130.133456 80.704953 
L 130.198393 76.323598 
L 130.230862 76.29121 
L 130.26333 78.870238 
L 130.328268 75.837247 
L 130.360736 75.770369 
L 130.393205 77.721517 
L 130.425674 74.597654 
L 130.458143 77.606026 
L 130.52308 77.794363 
L 130.588017 62.840196 
L 130.620486 76.756259 
L 130.685423 75.398116 
L 130.717892 64.355283 
L 130.750361 82.106796 
L 130.815298 67.061044 
L 130.945173 78.173047 
L 130.977642 80.025123 
L 131.01011 77.601442 
L 131.042579 78.173047 
L 131.204923 76.521067 
L 131.302329 78.766841 
L 131.334797 76.521067 
L 131.399735 79.383838 
L 131.52961 75.518844 
L 131.659484 81.385305 
L 131.691953 79.383838 
L 131.724422 76.521067 
L 131.756891 78.766841 
L 131.789359 80.691862 
L 131.821828 77.051077 
L 131.854297 77.601442 
L 131.886765 81.385305 
L 131.951703 77.601442 
L 132.01664 78.766841 
L 132.081578 78.173047 
L 132.114046 77.601442 
L 132.146515 80.025123 
L 132.243921 79.383838 
L 132.308859 76.010582 
L 132.373796 78.173047 
L 132.406265 77.051077 
L 132.536139 80.025123 
L 132.601077 82.106796 
L 132.666014 78.173047 
L 132.795889 80.691862 
L 132.828358 77.601442 
L 132.893295 78.766841 
L 132.925764 81.385305 
L 132.958233 77.051077 
L 132.990701 76.010582 
L 133.120576 80.691862 
L 133.250451 77.601442 
L 133.28292 81.385305 
L 133.315388 79.383838 
L 133.347857 74.588738 
L 133.412794 81.385305 
L 133.5102 77.601442 
L 133.542669 78.766841 
L 133.575138 79.383838 
L 133.607607 76.521067 
L 133.672544 78.766841 
L 133.705013 79.383838 
L 133.737481 78.766841 
L 133.834887 77.601442 
L 133.867356 80.025123 
L 133.932294 77.051077 
L 133.997231 77.051077 
L 134.094637 80.025123 
L 134.127106 78.173047 
L 134.159575 77.051077 
L 134.192043 70.868159 
L 134.224512 78.766841 
L 134.256981 75.045124 
L 134.321918 78.173047 
L 134.419324 77.601442 
L 134.451793 65.753411 
L 134.51673 70.308938 
L 134.646605 75.045124 
L 134.711542 67.889938 
L 134.77648 70.098559 
L 134.906355 71.829956 
L 135.166104 70.098559 
L 135.847947 70.098559 
L 135.880416 69.584449 
L 135.977822 67.539627 
L 136.01029 79.422975 
L 136.042759 60.3604 
L 136.107697 70.098559 
L 136.140165 70.098559 
L 136.205103 67.539627 
L 136.237571 79.422975 
L 136.334977 77.022484 
L 136.432384 60.3604 
L 136.497321 63.816979 
L 136.52979 63.816979 
L 136.594727 60.3604 
L 136.627196 69.419956 
L 136.692133 60.3604 
L 136.757071 76.926776 
L 136.822008 73.644992 
L 136.854477 63.816979 
L 136.919414 73.644992 
L 136.951883 76.926776 
L 136.984352 63.816979 
L 137.049289 76.026988 
L 137.146695 76.026988 
L 137.179164 63.816979 
L 137.244101 73.644992 
L 137.341507 76.926776 
L 137.373976 76.026988 
L 137.471382 63.816979 
L 137.536319 76.026988 
L 137.568788 63.816979 
L 137.601257 63.816979 
L 137.633726 63.997548 
L 137.698663 63.816979 
L 137.796069 76.026988 
L 137.893475 80.723607 
L 137.925944 63.816979 
L 138.02335 80.807545 
L 138.055819 77.835682 
L 138.120756 80.687328 
L 138.153225 64.146942 
L 138.250631 80.85519 
L 138.2831 66.438786 
L 138.380506 71.574173 
L 138.477912 64.932088 
L 138.51038 67.190776 
L 138.542849 71.574173 
L 138.575318 68.129127 
L 138.607787 65.334732 
L 138.640255 68.129127 
L 138.77013 71.574173 
L 138.802599 65.829982 
L 138.867536 69.319157 
L 138.997411 71.574173 
L 139.062348 67.33138 
L 139.094817 71.614113 
L 139.159755 71.574173 
L 139.192223 64.932088 
L 139.224692 71.614113 
L 139.257161 71.614113 
L 139.51691 71.658595 
L 139.549379 71.76118 
L 139.581848 71.614113 
L 139.614316 71.658595 
L 139.646785 71.614113 
L 139.679254 71.881941 
L 139.744191 71.707616 
L 139.809129 71.614113 
L 139.841597 71.819286 
L 139.874066 78.706735 
L 139.906535 71.707616 
L 139.939003 71.707616 
L 139.971472 71.614113 
L 140.003941 71.824735 
L 140.036409 71.881941 
L 140.068878 71.824735 
L 140.101347 71.76118 
L 140.133816 71.949151 
L 140.166284 71.658595 
L 140.198753 71.76118 
L 140.231222 71.819286 
L 140.26369 71.76118 
L 140.296159 71.658595 
L 140.328628 71.824735 
L 140.361096 70.502297 
L 140.426034 71.614113 
L 140.458503 72.020923 
L 140.490971 71.707616 
L 140.52344 70.013348 
L 140.555909 78.706735 
L 140.620846 70.502297 
L 140.685783 69.361421 
L 140.718252 69.393147 
L 140.750721 71.658595 
L 140.78319 69.361421 
L 140.815658 69.361421 
L 140.913064 69.361421 
L 140.945533 71.881941 
L 141.042939 70.892121 
L 141.172814 69.361421 
L 141.205283 70.165358 
L 141.27022 69.361421 
L 141.302689 78.706735 
L 141.367626 69.658334 
L 141.400095 69.658334 
L 141.52997 69.361421 
L 141.562438 69.361421 
L 141.594907 78.706735 
L 141.659845 69.361421 
L 141.692313 69.361421 
L 141.724782 69.482702 
L 141.789719 69.361421 
L 141.854657 69.361421 
L 141.887125 78.706735 
L 141.952063 69.361421 
L 142.049469 69.361421 
L 142.081938 69.482702 
L 142.146875 69.361421 
L 142.179344 69.361421 
L 142.244281 78.706735 
L 142.27675 69.361421 
L 142.309219 69.361421 
L 142.439093 69.482702 
L 142.471562 69.482702 
L 142.568968 69.361421 
L 142.666374 78.706735 
L 142.796249 69.361421 
L 142.926124 69.482702 
L 142.958593 69.361421 
L 143.055999 78.706735 
L 143.185873 69.361421 
L 143.218342 69.482702 
L 143.315748 69.361421 
L 143.348217 78.706735 
L 143.380686 78.706735 
L 143.510561 69.361421 
L 143.575498 69.361421 
L 143.672904 69.0838 
L 143.705373 78.706735 
L 143.835248 69.361421 
L 143.965122 69.361421 
L 144.03006 78.706735 
L 144.062528 69.482702 
L 144.094997 69.482702 
L 144.192403 69.361421 
L 144.224872 78.706735 
L 144.354747 69.361421 
L 144.484622 78.706735 
L 144.51709 78.706735 
L 144.582028 69.361421 
L 144.646965 69.482702 
L 144.77684 78.706735 
L 144.809309 78.706735 
L 144.841777 69.361421 
L 144.906715 69.482702 
L 145.004121 78.706735 
L 145.036589 69.361421 
L 145.101527 78.706735 
L 145.166464 78.706735 
L 145.198933 69.361421 
L 145.26387 78.706735 
L 145.296339 78.706735 
L 145.328808 69.0838 
L 145.393745 78.706735 
L 145.426214 78.706735 
L 145.458683 69.0838 
L 145.52362 78.706735 
L 145.848307 78.706735 
L 145.880776 69.0838 
L 145.945713 78.706735 
L 155.751261 78.706735 
L 155.78373 76.126488 
L 155.848667 78.706735 
L 156.238291 78.706735 
L 156.27076 78.206179 
L 156.335698 78.706735 
L 157.666914 78.706735 
L 157.796789 83.853712 
L 157.861727 78.706735 
L 157.926664 78.764309 
L 158.02407 78.706735 
L 158.056539 77.689437 
L 158.089007 78.706735 
L 158.121476 82.345475 
L 158.186414 78.706735 
L 158.251351 79.942837 
L 158.28382 78.706735 
L 158.413694 78.706735 
L 158.446163 79.942837 
L 158.511101 78.706735 
L 158.576038 78.706735 
L 158.608507 80.963866 
L 158.673444 78.706735 
L 158.738381 78.764309 
L 158.803319 78.706735 
L 158.868256 85.104615 
L 158.998131 78.706735 
L 159.0306 78.764309 
L 159.095537 78.706735 
L 159.128006 85.104615 
L 159.192943 78.764309 
L 159.322818 77.947778 
L 159.355287 78.764309 
L 159.387756 85.104615 
L 159.452693 78.540989 
L 159.51763 78.540989 
L 159.550099 84.872583 
L 159.615036 78.540989 
L 159.77738 84.872583 
L 159.874786 78.540989 
L 159.907255 80.191373 
L 159.939723 78.540989 
L 160.004661 84.872583 
L 160.03713 82.636638 
L 160.102067 78.540989 
L 160.134536 82.831876 
L 160.296879 82.831876 
L 160.394285 78.540989 
L 160.361817 83.234505 
L 160.426754 80.900123 
L 160.556629 82.831876 
L 160.589097 82.831876 
L 160.621566 78.863708 
L 160.686504 82.831876 
L 162.147595 82.831876 
L 162.212533 70.362476 
L 162.27747 70.559347 
L 162.309939 82.831876 
L 162.342407 70.362476 
L 162.374876 70.362476 
L 162.407345 70.362476 
L 162.439813 82.831876 
L 162.504751 70.537227 
L 162.569688 70.362476 
L 162.732032 71.256924 
L 162.7645 70.816137 
L 162.829438 71.256924 
L 163.089187 71.256924 
L 163.121656 84.209224 
L 163.186594 71.256924 
L 163.219062 71.256924 
L 163.348937 73.279382 
L 163.413874 71.646547 
L 163.446343 84.209224 
L 163.511281 71.646547 
L 163.608687 71.646547 
L 163.706093 71.256924 
L 163.738561 72.447719 
L 163.835968 84.209224 
L 163.933374 71.256924 
L 164.03078 84.209224 
L 164.095717 71.256924 
L 164.128186 84.209224 
L 164.225592 84.209224 
L 164.258061 71.256924 
L 164.322998 84.209224 
L 164.485342 84.209224 
L 164.51781 71.256924 
L 164.582748 84.209224 
L 164.680154 84.209224 
L 164.712623 71.256924 
L 164.77756 79.620851 
L 164.907435 84.209224 
L 165.004841 84.209224 
L 165.03731 71.256924 
L 165.102247 84.209224 
L 165.167184 84.209224 
L 165.199653 79.620851 
L 165.26459 84.209224 
L 165.978902 84.209224 
L 166.108777 72.377447 
L 166.238652 84.209224 
L 166.27112 72.726066 
L 166.336058 84.209224 
L 166.368526 84.209224 
L 166.465932 72.377447 
L 166.53087 84.209224 
L 166.563339 72.377447 
L 166.693213 78.218373 
L 166.790619 72.377447 
L 166.920494 84.177421 
L 167.050369 72.377447 
L 167.115306 70.623588 
L 167.180244 78.218373 
L 167.310119 78.218373 
L 167.439993 70.623588 
L 167.634806 70.623588 
L 167.76468 78.218373 
L 167.829618 78.218373 
L 167.959493 70.623588 
L 168.089367 78.218373 
L 168.121836 78.218373 
L 168.251711 70.623588 
L 168.316648 70.623588 
L 168.349117 78.218373 
L 168.414054 70.623588 
L 168.511461 70.623588 
L 168.641335 78.218373 
L 168.673804 78.218373 
L 168.706273 70.623588 
L 168.77121 78.218373 
L 168.901085 78.218373 
L 168.998491 70.623588 
L 169.095897 78.218373 
L 169.160835 71.757464 
L 169.193303 78.218373 
L 169.225772 79.658232 
L 169.290709 78.218373 
L 169.355647 78.218373 
L 169.388116 71.757464 
L 169.453053 78.218373 
L 169.615396 78.218373 
L 169.647865 70.623588 
L 169.712803 78.218373 
L 169.745271 78.218373 
L 169.842677 79.658232 
L 169.940083 78.218373 
L 169.972552 79.658232 
L 170.005021 70.623588 
L 170.069958 71.757464 
L 170.134896 79.658232 
L 170.167364 78.218373 
L 170.199833 71.757464 
L 170.232302 79.658232 
L 170.26477 79.658232 
L 170.329708 79.658232 
L 170.362177 78.218373 
L 170.394645 70.623588 
L 170.427114 79.658232 
L 170.459583 78.218373 
L 170.589457 79.658232 
L 170.621926 78.218373 
L 170.654395 70.623588 
L 170.719332 78.218373 
L 170.751801 78.218373 
L 170.849207 79.658232 
L 170.914145 71.757464 
L 170.946613 78.218373 
L 170.979082 78.218373 
L 171.011551 71.757464 
L 171.076488 79.658232 
L 171.206363 71.757464 
L 171.303769 70.623588 
L 171.336238 79.658232 
L 171.368706 70.623588 
L 171.433644 79.658232 
L 171.466112 79.658232 
L 171.595987 78.218373 
L 171.628456 78.218373 
L 171.660925 79.658232 
L 171.725862 78.218373 
L 171.758331 78.218373 
L 171.790799 70.623588 
L 171.888206 71.757464 
L 171.920674 71.757464 
L 171.953143 70.623588 
L 171.985612 79.658232 
L 172.050549 70.623588 
L 172.083018 70.623588 
L 172.212893 71.757464 
L 172.245361 70.623588 
L 172.27783 71.757464 
L 172.342767 70.623588 
L 172.375236 78.218373 
L 172.505111 71.757464 
L 172.53758 71.757464 
L 172.634986 70.623588 
L 172.76486 71.757464 
L 172.894735 70.623588 
L 172.992141 71.757464 
L 173.089548 70.623588 
L 173.154485 71.757464 
L 173.219422 79.658232 
L 173.251891 78.218373 
L 173.316828 70.623588 
L 173.349297 71.757464 
L 173.414235 79.658232 
L 173.479172 78.218373 
L 173.544109 70.623588 
L 173.576578 71.757464 
L 173.706453 78.218373 
L 173.77139 78.218373 
L 173.803859 70.623588 
L 173.836328 79.658232 
L 173.868796 78.218373 
L 173.901265 79.658232 
L 173.933734 78.218373 
L 174.03114 70.623588 
L 174.128546 78.218373 
L 174.225952 70.623588 
L 174.355827 78.218373 
L 174.485702 70.623588 
L 174.51817 70.623588 
L 174.648045 71.492043 
L 175.297419 71.492043 
L 175.362357 57.271057 
L 175.427294 62.81536 
L 175.557169 79.464456 
L 175.589638 74.746511 
L 175.687044 78.065048 
L 175.751981 77.647685 
L 175.881856 76.886729 
L 175.914325 74.344425 
L 175.946793 79.245936 
L 176.693573 79.245936 
L 176.726042 78.173702 
L 176.790979 79.245936 
L 176.953323 79.245936 
L 177.083198 76.153387 
L 177.213073 79.245936 
L 177.245541 79.245936 
L 177.440353 76.153387 
L 177.53776 77.143817 
L 177.570228 76.153387 
L 177.602697 78.173702 
L 177.635166 77.143817 
L 177.765041 77.143817 
L 177.894915 79.245936 
L 177.992321 75.199647 
L 178.122196 79.245936 
L 178.219602 78.173702 
L 178.349477 79.245936 
L 178.381946 79.245936 
L 178.479352 78.173702 
L 178.609227 79.245936 
L 178.804039 79.245936 
L 178.836508 78.173702 
L 178.901445 79.245936 
L 179.063789 79.245936 
L 179.128726 78.173702 
L 179.161195 79.245936 
L 181.498941 79.245936 
L 181.563879 72.391977 
L 181.628816 74.165801 
L 181.661285 73.261013 
L 181.693753 75.108179 
L 181.726222 74.165801 
L 181.791159 74.165801 
L 181.823628 73.268978 
L 181.856097 74.165801 
L 181.921034 73.261013 
L 182.050909 79.245936 
L 183.154845 79.245936 
L 183.252251 78.173702 
L 183.317188 79.245936 
L 183.349657 77.143817 
L 183.414595 79.245936 
L 184.096437 79.245936 
L 184.226312 77.143817 
L 184.258781 76.153387 
L 184.291249 78.173702 
L 184.323718 77.143817 
L 184.388656 78.173702 
L 184.51853 76.153387 
L 184.583468 74.281283 
L 184.615937 77.143817 
L 184.680874 75.199647 
L 184.745811 75.199647 
L 184.875686 76.153387 
L 184.908155 75.199647 
L 184.940624 76.153387 
L 184.973092 77.143817 
L 185.03803 76.153387 
L 185.070498 76.153387 
L 185.200373 77.143817 
L 185.232842 77.143817 
L 185.362717 78.173702 
L 185.395185 78.173702 
L 185.460123 79.245936 
L 185.492591 78.173702 
L 185.52506 78.173702 
L 185.719872 75.199647 
L 185.752341 75.199647 
L 185.78481 76.153387 
L 185.817278 75.199647 
L 185.979622 73.396318 
L 186.012091 73.396318 
L 186.044559 75.199647 
L 186.109497 74.281283 
L 186.239372 74.281283 
L 186.27184 75.199647 
L 186.304309 72.541993 
L 186.369246 74.281283 
L 186.53159 76.153387 
L 186.628996 73.396318 
L 186.661465 75.199647 
L 186.693933 75.199647 
L 186.758871 76.153387 
L 186.823808 74.281283 
L 186.921214 75.199647 
L 187.051089 74.281283 
L 187.083558 74.281283 
L 187.148495 77.143817 
L 187.180964 75.199647 
L 187.213433 75.199647 
L 187.245901 73.396318 
L 187.310839 74.281283 
L 187.343307 74.281283 
L 187.440714 71.717336 
L 187.473182 72.541993 
L 187.603057 74.281283 
L 187.667994 72.541993 
L 187.732932 73.396318 
L 187.797869 73.396318 
L 187.862807 74.281283 
L 187.927744 72.541993 
L 187.960213 72.541993 
L 188.02515 71.717336 
L 188.057619 72.541993 
L 188.122556 72.541993 
L 188.252431 70.920991 
L 188.382306 72.541993 
L 188.544649 70.920991 
L 188.609587 71.717336 
L 188.642055 70.920991 
L 188.674524 70.920991 
L 188.804399 71.717336 
L 188.836868 70.920991 
L 188.869336 71.717336 
L 188.901805 72.541993 
L 188.966742 71.717336 
L 188.999211 70.920991 
L 189.03168 71.717336 
L 189.161555 73.396318 
L 189.194023 73.396318 
L 189.226492 74.281283 
L 189.258961 72.541993 
L 189.323898 73.396318 
L 189.356367 71.717336 
L 189.388836 72.541993 
L 189.421304 70.151479 
L 189.51871 70.920991 
L 189.648585 71.717336 
L 189.713523 71.717336 
L 189.810929 70.151479 
L 189.843397 70.920991 
L 189.908335 70.920991 
L 190.03821 72.541993 
L 190.070678 70.920991 
L 190.135616 71.717336 
L 190.168084 71.717336 
L 190.200553 70.920991 
L 190.233022 72.541993 
L 190.265491 71.717336 
L 190.297959 72.541993 
L 190.330428 71.717336 
L 190.460303 70.920991 
L 190.557709 70.920991 
L 190.590178 70.151479 
L 190.622646 70.920991 
L 190.752521 71.717336 
L 190.882396 69.406387 
L 190.979802 71.717336 
L 191.012271 70.920991 
L 191.109677 71.717336 
L 191.239552 70.151479 
L 191.369426 71.717336 
L 191.53177 70.151479 
L 191.564239 70.151479 
L 191.629176 70.920991 
L 191.661645 69.406387 
L 191.79152 70.151479 
L 191.823988 68.685529 
L 191.888926 69.406387 
L 191.953863 68.685529 
L 191.986332 70.151479 
L 192.116207 69.406387 
L 192.246081 69.406387 
L 192.311019 68.685529 
L 192.343487 69.406387 
L 192.505831 70.920991 
L 192.5383 70.920991 
L 192.603237 71.717336 
L 192.733112 70.151479 
L 192.765581 70.151479 
L 192.830518 70.920991 
L 192.960393 68.685529 
L 193.090268 70.151479 
L 193.252611 68.685529 
L 193.414955 70.151479 
L 193.512361 70.151479 
L 193.544829 69.406387 
L 193.577298 70.151479 
L 193.707173 70.920991 
L 193.739642 70.151479 
L 193.804579 70.920991 
L 193.837048 70.920991 
L 193.869516 71.717336 
L 193.901985 69.406387 
L 193.966923 71.717336 
L 193.999391 71.717336 
L 194.096797 68.685529 
L 194.226672 65.403086 
L 194.259141 68.685529 
L 194.29161 66.656049 
L 194.421484 62.594097 
L 194.453953 64.222783 
L 194.51889 63.660842 
L 194.616297 59.439069 
L 194.648765 60.681483 
L 194.713703 60.681483 
L 194.843577 71.492043 
L 194.908515 71.492043 
L 194.973452 59.834521 
L 195.03839 60.248786 
L 195.168264 71.492043 
L 198.415135 71.492043 
L 198.545009 77.105763 
L 198.609947 77.105763 
L 198.642416 76.087088 
L 198.707353 77.105763 
L 198.902165 77.105763 
L 198.934634 75.108179 
L 198.999571 77.105763 
L 199.129446 77.105763 
L 199.259321 73.258228 
L 199.324258 74.165801 
L 199.356727 75.108179 
L 199.389196 73.261013 
L 199.454133 73.258228 
L 199.648945 69.241903 
L 199.681414 69.964526 
L 199.713883 69.964526 
L 199.746351 67.81178 
L 199.843757 68.501531 
L 199.908695 68.501531 
L 199.973632 67.148541 
L 200.006101 68.501531 
L 200.135976 66.510945 
L 200.168444 67.229362 
L 200.233382 67.148541 
L 200.298319 67.185819 
L 200.363257 65.309661 
L 200.428194 65.36305 
L 200.5256 63.186356 
L 200.558069 64.202746 
L 200.655475 63.897259 
L 200.850287 63.897259 
L 200.947693 62.711267 
L 200.980162 63.186356 
L 201.110037 63.897259 
L 201.207443 63.897259 
L 201.337318 61.028252 
L 201.434724 63.897259 
L 201.53213 60.152482 
L 201.597067 59.699011 
L 201.662005 63.897259 
L 201.694473 59.699011 
L 201.759411 63.897259 
L 201.79188 63.897259 
L 201.921754 59.699011 
L 202.051629 63.897259 
L 202.116567 59.699011 
L 202.149035 63.897259 
L 202.181504 63.897259 
L 202.311379 59.699011 
L 202.408785 59.699011 
L 202.441254 60.52165 
L 202.506191 60.18422 
L 202.571128 59.699011 
L 202.603597 63.897259 
L 202.668534 59.699011 
L 202.701003 60.341934 
L 202.733472 60.048932 
L 202.863347 63.897259 
L 202.960753 63.897259 
L 203.090628 61.744012 
L 203.123096 63.11631 
L 203.188034 62.053453 
L 203.317909 63.897259 
L 203.382846 60.946039 
L 203.447783 61.190478 
L 203.512721 60.52165 
L 203.577658 63.897259 
L 203.610127 63.897259 
L 203.675064 60.723075 
L 203.707533 63.897259 
L 203.967283 63.897259 
L 203.999751 59.936645 
L 204.097157 60.341934 
L 204.129626 60.341934 
L 204.227032 61.151268 
L 204.324438 60.52165 
L 204.356907 61.643836 
L 204.454313 61.190478 
L 204.486782 61.190478 
L 204.584188 63.516984 
L 204.649125 62.897778 
L 204.681594 62.739179 
L 204.876406 65.898391 
L 205.03875 69.00054 
L 205.168624 64.866945 
L 205.201093 66.456499 
L 205.233562 65.898391 
L 205.395905 61.456426 
L 205.460843 62.385047 
L 205.493312 61.456426 
L 205.623186 59.699011 
L 205.753061 60.723075 
L 205.817999 60.341934 
L 205.850467 60.52165 
L 205.882936 61.190478 
L 205.915405 60.341934 
L 206.045279 59.699011 
L 209.064869 59.699011 
L 209.227212 60.936025 
L 209.389556 71.080921 
L 209.454493 70.885625 
L 209.551899 71.279498 
L 209.584368 71.080921 
L 209.616837 71.080921 
L 209.746711 71.279498 
L 210.201273 71.279498 
L 210.233742 71.080921 
L 210.298679 71.279498 
L 210.331148 71.279498 
L 210.428554 71.080921 
L 210.52596 71.279498 
L 210.655835 69.316351 
L 210.688304 70.693524 
L 210.753241 59.274238 
L 210.818179 59.699011 
L 211.597427 59.699011 
L 211.727302 63.897259 
L 211.922114 63.897259 
L 212.376676 83.658833 
L 220.201633 83.658833 
L 220.234102 82.594352 
L 220.299039 83.658833 
L 220.331508 83.658833 
L 220.461383 82.594352 
L 220.591258 83.658833 
L 220.623726 82.594352 
L 220.688664 83.658833 
L 220.851007 83.658833 
L 220.948413 82.594352 
L 220.980882 83.658833 
L 221.013351 82.594352 
L 221.143226 80.587252 
L 221.2731 79.641318 
L 221.338038 80.587252 
L 221.435444 78.73065 
L 221.500381 77.852231 
L 221.565319 79.641318 
L 221.662725 78.73065 
L 221.760131 79.641318 
L 221.922474 77.005513 
L 221.954943 77.852231 
L 221.987412 76.188799 
L 222.019881 77.005513 
L 222.149755 77.005513 
L 222.27963 74.638105 
L 222.312099 75.400517 
L 222.344568 74.638105 
L 222.377036 73.900971 
L 222.441974 74.638105 
L 222.506911 74.638105 
L 222.53938 73.900971 
L 222.604317 74.638105 
L 222.636786 74.638105 
L 222.766661 75.400517 
L 222.864067 74.638105 
L 222.896535 76.188799 
L 222.961473 75.400517 
L 222.993942 75.400517 
L 223.058879 76.188799 
L 223.156285 73.900971 
L 223.221222 73.900971 
L 223.383566 72.498585 
L 223.416035 72.498585 
L 223.54591 71.183648 
L 223.675784 72.498585 
L 223.708253 72.498585 
L 223.740722 73.188192 
L 223.805659 72.498585 
L 223.838128 72.498585 
L 223.870597 73.188192 
L 223.903065 72.498585 
L 223.968003 71.183648 
L 224.03294 71.831048 
L 224.065409 71.831048 
L 224.130346 72.498585 
L 224.195284 71.183648 
L 224.325158 72.498585 
L 224.422564 71.183648 
L 224.487502 71.831048 
L 224.519971 71.183648 
L 224.552439 71.183648 
L 224.584908 70.555854 
L 224.649845 71.183648 
L 224.747251 71.831048 
L 224.77972 71.183648 
L 224.844658 71.831048 
L 224.877126 71.831048 
L 224.942064 70.555854 
L 224.974532 71.183648 
L 225.071938 71.831048 
L 225.266751 69.947236 
L 225.299219 70.555854 
L 225.331688 69.947236 
L 225.461563 69.356945 
L 225.591438 70.555854 
L 225.623906 70.555854 
L 225.753781 71.183648 
L 225.818719 69.947236 
L 225.883656 70.555854 
L 225.948593 70.555854 
L 225.981062 71.183648 
L 226.046 70.555854 
L 226.078468 70.555854 
L 226.208343 69.947236 
L 226.305749 69.947236 
L 226.338218 69.356945 
L 226.403155 69.947236 
L 226.53303 69.947236 
L 226.662905 70.555854 
L 226.695374 69.947236 
L 226.760311 70.583845 
L 226.79278 70.151306 
L 226.857717 70.606093 
L 226.890186 70.583845 
L 226.922654 70.106733 
L 226.987592 70.583845 
L 227.052529 70.633994 
L 227.084998 71.060478 
L 227.117467 70.567677 
L 227.149935 70.796331 
L 227.182404 70.796331 
L 227.312279 71.060478 
L 229.260401 71.060478 
L 229.29287 71.969879 
L 229.357807 71.509092 
L 229.390276 71.509092 
L 229.455213 71.060478 
L 229.812369 78.556191 
L 230.559149 78.556191 
L 230.689024 63.058895 
L 231.565679 63.058895 
L 231.663085 75.11187 
L 231.79296 63.058895 
L 231.890366 63.058895 
L 232.020241 75.11187 
L 232.150115 63.058895 
L 232.215053 63.058895 
L 232.344928 75.11187 
L 232.507271 75.11187 
L 232.604677 63.058895 
L 232.734552 75.11187 
L 232.799489 75.11187 
L 232.929364 63.058895 
L 233.124176 63.058895 
L 233.254051 75.11187 
L 233.708613 75.11187 
L 233.741082 63.058895 
L 233.806019 75.11187 
L 234.520331 75.11187 
L 234.617737 63.058895 
L 234.747611 75.11187 
L 234.877486 63.058895 
L 234.909955 63.058895 
L 235.03983 75.11187 
L 235.656735 75.11187 
L 235.78661 63.318838 
L 235.981422 63.318838 
L 236.013891 63.058895 
L 236.078828 63.318838 
L 239.260761 63.318838 
L 239.390636 66.165398 
L 241.598507 66.165398 
L 241.630976 75.11187 
L 241.695914 66.165398 
L 241.760851 66.165398 
L 241.79332 75.682965 
L 241.858257 66.165398 
L 243.579098 66.165398 
L 243.708973 75.11187 
L 243.741442 75.11187 
L 243.806379 75.682965 
L 243.838848 75.11187 
L 243.871317 75.11187 
L 243.936254 75.682965 
L 244.066129 66.165398 
L 244.098597 76.272063 
L 244.196004 75.682965 
L 244.228472 75.682965 
L 244.260941 75.11187 
L 244.325878 75.682965 
L 244.358347 75.682965 
L 244.455753 66.165398 
L 244.488222 75.682965 
L 244.585628 75.11187 
L 244.650565 66.165398 
L 244.683034 75.11187 
L 244.812909 75.682965 
L 244.845378 75.682965 
L 244.975252 66.165398 
L 245.105127 75.11187 
L 245.235002 66.165398 
L 245.364877 66.165398 
L 245.494752 75.11187 
L 245.624626 66.165398 
L 245.884376 66.165398 
L 245.916845 75.11187 
L 245.981782 66.165398 
L 247.085718 66.165398 
L 247.215593 77.874408 
L 247.248062 66.165398 
L 247.312999 77.874408 
L 247.377936 77.874408 
L 247.442874 80.043203 
L 247.507811 66.165398 
L 248.092248 66.165398 
L 248.157185 77.874408 
L 248.189654 66.165398 
L 248.222123 66.165398 
L 248.351997 77.874408 
L 248.449403 77.874408 
L 248.579278 66.165398 
L 248.676684 66.165398 
L 248.806559 77.874408 
L 248.871497 77.874408 
L 248.903965 66.165398 
L 248.968903 77.874408 
L 249.098778 71.863428 
L 252.670335 71.886472 
L 252.735272 72.196385 
L 252.832678 74.878869 
L 252.865147 74.786515 
L 252.897616 74.786515 
L 253.02749 83.685942 
L 253.28724 83.685942 
L 254.585988 83.685942 
L 254.715863 76.185445 
L 254.813269 76.185445 
L 254.845738 83.671925 
L 254.910675 76.185445 
L 255.008081 76.185445 
L 255.04055 80.819188 
L 255.105487 78.727477 
L 255.300299 76.052424 
L 255.332768 76.923247 
L 255.365237 75.400517 
L 255.495112 74.638105 
L 255.592518 72.498585 
L 255.624986 73.188192 
L 255.689924 72.498585 
L 255.722393 73.188192 
L 255.754861 73.188192 
L 255.884736 72.498585 
L 256.014611 73.900971 
L 256.079548 73.900971 
L 256.176954 71.831048 
L 256.209423 72.498585 
L 256.241892 72.498585 
L 256.339298 71.831048 
L 256.469173 73.188192 
L 256.53411 71.183648 
L 256.599048 71.831048 
L 256.761391 73.188192 
L 256.826328 73.188192 
L 256.891266 71.183648 
L 256.956203 71.831048 
L 256.988672 71.831048 
L 257.021141 72.498585 
L 257.053609 71.183648 
L 257.118547 71.183648 
L 257.28089 72.498585 
L 257.443234 70.555854 
L 257.475702 71.183648 
L 257.508171 69.947236 
L 257.54064 70.555854 
L 257.573109 70.555854 
L 257.735452 73.188192 
L 257.865327 71.183648 
L 257.897796 71.183648 
L 258.02767 70.555854 
L 258.060139 70.555854 
L 258.092608 71.183648 
L 258.157545 70.555854 
L 258.222483 70.555854 
L 258.28742 71.183648 
L 258.417295 69.947236 
L 258.449764 69.947236 
L 258.54717 71.183648 
L 258.579638 70.555854 
L 258.612107 70.555854 
L 258.644576 69.356945 
L 258.709513 70.555854 
L 258.774451 70.555854 
L 258.839388 71.183648 
L 258.871857 69.947236 
L 258.936794 71.183648 
L 259.0342 70.555854 
L 259.099138 71.183648 
L 259.131606 70.555854 
L 259.229012 69.947236 
L 259.326418 71.831048 
L 259.391356 71.183648 
L 259.456293 71.183648 
L 259.586168 71.831048 
L 259.618637 71.831048 
L 259.651105 71.183648 
L 259.716043 71.831048 
L 259.748512 72.498585 
L 259.78098 71.831048 
L 259.813449 71.183648 
L 259.878386 71.831048 
L 259.910855 71.831048 
L 259.943324 70.555854 
L 259.975792 71.831048 
L 260.04073 73.188192 
L 260.073199 71.831048 
L 260.105667 71.183648 
L 260.138136 71.831048 
L 260.268011 72.498585 
L 260.397886 71.831048 
L 260.430354 71.831048 
L 260.592698 73.188192 
L 260.755041 71.183648 
L 260.884916 71.831048 
L 260.917385 71.831048 
L 261.04726 72.498585 
L 261.079728 72.498585 
L 261.112197 71.831048 
L 261.177134 72.498585 
L 261.307009 73.188192 
L 261.339478 71.831048 
L 261.404415 72.498585 
L 261.436884 73.188192 
L 261.501821 72.498585 
L 261.53429 72.498585 
L 261.599228 71.831048 
L 261.631696 73.188192 
L 261.696634 72.498585 
L 261.729102 72.498585 
L 261.956383 75.400517 
L 262.021321 73.900971 
L 262.053789 75.400517 
L 262.183664 75.400517 
L 262.346008 73.188192 
L 262.54082 75.400517 
L 262.573289 74.638105 
L 262.638226 75.400517 
L 262.768101 76.188799 
L 262.80057 76.188799 
L 262.833038 67.185819 
L 262.865507 77.005513 
L 262.897976 76.188799 
L 262.930444 77.005513 
L 263.060319 64.268282 
L 263.092788 64.268282 
L 263.125257 76.188799 
L 263.190194 64.268282 
L 263.222663 63.755544 
L 263.352537 76.188799 
L 263.482412 62.797761 
L 263.677224 61.149762 
L 263.709693 61.528235 
L 263.774631 61.149762 
L 263.969443 60.152482 
L 269.164435 60.152482 
L 269.261841 61.256899 
L 269.326778 60.152482 
L 269.359247 61.256899 
L 269.618997 61.256899 
L 269.683934 60.152482 
L 269.716403 61.256899 
L 277.216673 61.256899 
L 277.249142 60.783128 
L 277.314079 61.256899 
L 277.411485 61.256899 
L 277.54136 60.783128 
L 277.573829 60.783128 
L 277.703703 73.29248 
L 278.807639 73.29248 
L 278.872577 60.783128 
L 278.905045 73.29248 
L 279.002452 73.29248 
L 279.03492 60.783128 
L 279.132326 61.256899 
L 279.846638 61.256899 
L 279.976513 74.310259 
L 280.106387 61.256899 
L 280.203793 61.256899 
L 280.333668 74.310259 
L 280.366137 61.256899 
L 280.431074 74.310259 
L 284.29485 74.310259 
L 284.359787 61.256899 
L 284.392256 74.310259 
L 284.489662 74.310259 
L 284.554599 61.256899 
L 284.587068 74.310259 
L 284.78188 74.310259 
L 284.814349 61.256899 
L 284.879286 74.310259 
L 285.561129 74.310259 
L 285.626067 61.256899 
L 285.658535 74.310259 
L 287.152096 74.310259 
L 287.184564 61.256899 
L 287.249502 74.310259 
L 292.087338 74.310259 
L 292.119807 61.256899 
L 292.184744 74.310259 
L 293.840648 74.310259 
L 293.970523 61.256899 
L 294.197804 61.256899 
L 294.327679 74.310259 
L 295.756301 74.310259 
L 295.886176 61.256899 
L 296.016051 61.256899 
L 296.145926 74.310259 
L 300.78895 74.310259 
L 300.918825 102.116956 
L 301.0487 74.310259 
L 301.146106 74.310259 
L 301.211043 102.116956 
L 301.243512 74.310259 
L 301.373387 74.310259 
L 301.405855 102.116956 
L 301.470793 74.310259 
L 311.438684 74.404662 
L 311.471153 74.502007 
L 311.53609 74.404662 
L 311.665965 74.310259 
L 313.191994 74.310259 
L 313.321869 73.29248 
L 313.354338 73.29248 
L 313.484212 74.310259 
L 313.516681 73.29248 
L 313.581619 74.310259 
L 313.711493 74.310259 
L 313.776431 73.29248 
L 313.808899 74.310259 
L 314.425805 74.310259 
L 314.55568 73.29248 
L 314.588148 74.310259 
L 314.653086 73.29248 
L 315.30246 73.29248 
L 315.334928 74.310259 
L 315.399866 73.29248 
L 316.406396 73.29248 
L 316.53627 73.004686 
L 316.601208 73.29248 
L 316.633676 73.004686 
L 316.666145 73.004686 
L 316.79602 73.29248 
L 316.893426 73.29248 
L 317.023301 73.004686 
L 317.05577 73.29248 
L 317.120707 73.004686 
L 317.153176 73.004686 
L 317.250582 73.29248 
L 317.315519 73.004686 
L 317.347988 73.29248 
L 317.510331 73.29248 
L 317.575269 73.004686 
L 317.607738 73.29248 
L 317.640206 73.29248 
L 317.770081 73.004686 
L 318.127237 73.004686 
L 318.257112 73.29248 
L 318.28958 73.004686 
L 318.354518 73.29248 
L 318.419455 73.29248 
L 318.54933 73.004686 
L 318.614267 73.004686 
L 318.646736 73.29248 
L 318.679205 73.004686 
L 318.711673 72.81165 
L 318.744142 73.004686 
L 318.809079 73.906084 
L 318.906486 72.434835 
L 318.938954 73.906084 
L 318.971423 72.250915 
L 319.003892 72.434835 
L 319.133766 72.069904 
L 319.198704 71.891745 
L 319.263641 72.434835 
L 319.328579 72.250915 
L 319.361047 72.250915 
L 319.523391 72.621724 
L 319.55586 72.621724 
L 319.750672 71.891745 
L 319.78314 72.250915 
L 319.848078 72.069904 
L 319.880547 72.069904 
L 320.464983 55.719932 
L 320.529921 57.300206 
L 320.594858 56.892934 
L 320.757202 54.975885 
L 320.78967 57.255057 
L 320.919545 78.062671 
L 321.04942 77.870924 
L 321.276701 77.870924 
L 321.406576 77.682117 
L 321.53645 77.870924 
L 321.7962 77.870924 
L 321.926075 77.682117 
L 322.185824 77.682117 
L 322.315699 53.568 
L 322.348168 53.911818 
L 322.380637 77.682117 
L 322.445574 54.259878 
L 322.478043 54.259878 
L 322.705324 55.719932 
L 322.737792 54.975885 
L 322.80273 55.719932 
L 322.867667 55.719932 
L 323.062479 58.140947 
L 323.192354 57.300206 
L 323.257292 56.892934 
L 323.354698 58.575064 
L 323.387166 58.140947 
L 323.452104 58.575064 
L 323.484572 58.575064 
L 323.581979 59.936645 
L 323.614447 58.575064 
L 323.679385 59.936645 
L 323.711853 59.472538 
L 323.776791 59.936645 
L 332.05631 59.936645 
L 332.186184 57.761078 
L 332.251122 57.761078 
L 332.283591 57.258063 
L 332.348528 57.761078 
L 332.900496 57.761078 
L 332.932965 58.701923 
L 332.997902 57.761078 
L 333.030371 57.761078 
L 333.160245 58.701923 
L 333.387526 58.701923 
L 333.419995 57.761078 
L 333.484932 58.701923 
L 333.971963 58.701923 
L 334.069369 59.675749 
L 334.166775 58.701923 
L 334.29665 65.132797 
L 334.426525 58.701923 
L 334.588868 58.701923 
L 334.653806 63.951048 
L 334.686274 58.701923 
L 334.718743 58.701923 
L 334.913555 62.81901 
L 335.04343 57.761078 
L 335.075899 57.258063 
L 335.205774 58.701923 
L 335.855148 58.615117 
L 335.920085 83.593719 
L 335.952554 58.615117 
L 336.04996 58.615117 
L 336.179835 83.593719 
L 336.212303 83.593719 
L 336.277241 58.615117 
L 336.30971 83.593719 
L 337.446114 83.593719 
L 337.575989 78.556191 
L 337.673395 83.593719 
L 337.770801 78.556191 
L 337.835738 83.434329 
L 337.868207 78.556191 
L 374.070809 78.556191 
L 374.135747 71.060478 
L 374.168215 78.556191 
L 374.200684 78.556191 
L 374.29809 71.060478 
L 374.427965 78.556191 
L 375.921525 78.556191 
L 376.0514 71.060478 
L 376.116337 71.060478 
L 376.246212 78.556191 
L 376.473493 78.556191 
L 376.505962 71.060478 
L 376.570899 78.556191 
L 376.603368 78.556191 
L 376.700774 71.060478 
L 376.733243 78.556191 
L 376.79818 71.060478 
L 377.187805 71.060478 
L 377.317679 78.556191 
L 377.415086 78.556191 
L 377.54496 71.060478 
L 396.636557 71.060478 
L 396.766432 67.605539 
L 397.026181 67.605539 
L 397.156056 71.060478 
L 398.389867 71.060478 
L 398.422335 78.938187 
L 398.487273 71.060478 
" clip-path="url(#pb78a74b939)" style="fill: none; stroke: #1f77b4; stroke-width: 1.5; stroke-linecap: square"/>
   </g>
   <g id="patch_3">
    <path d="M 57.6 307.584 
L 57.6 41.472 
" style="fill: none; stroke: #000000; stroke-width: 0.8; stroke-linejoin: miter; stroke-linecap: square"/>
   </g>
   <g id="patch_4">
    <path d="M 414.72 307.584 
L 414.72 41.472 
" style="fill: none; stroke: #000000; stroke-width: 0.8; stroke-linejoin: miter; stroke-linecap: square"/>
   </g>
   <g id="patch_5">
    <path d="M 57.6 307.584 
L 414.72 307.584 
" style="fill: none; stroke: #000000; stroke-width: 0.8; stroke-linejoin: miter; stroke-linecap: square"/>
   </g>
   <g id="patch_6">
    <path d="M 57.6 41.472 
L 414.72 41.472 
" style="fill: none; stroke: #000000; stroke-width: 0.8; stroke-linejoin: miter; stroke-linecap: square"/>
   </g>
  </g>
 </g>
 <defs>
  <clipPath id="pb78a74b939">
   <rect x="57.6" y="41.472" width="357.12" height="266.112"/>
  </clipPath>
 </defs>
</svg>
