<?xml version="1.0" encoding="utf-8" standalone="no"?>
<!DOCTYPE svg PUBLIC "-//W3C//DTD SVG 1.1//EN"
  "http://www.w3.org/Graphics/SVG/1.1/DTD/svg11.dtd">
<svg xmlns:xlink="http://www.w3.org/1999/xlink" width="460.8pt" height="345.6pt" viewBox="0 0 460.8 345.6" xmlns="http://www.w3.org/2000/svg" version="1.1">
 <metadata>
  <rdf:RDF xmlns:dc="http://purl.org/dc/elements/1.1/" xmlns:cc="http://creativecommons.org/ns#" xmlns:rdf="http://www.w3.org/1999/02/22-rdf-syntax-ns#">
   <cc:Work>
    <dc:type rdf:resource="http://purl.org/dc/dcmitype/StillImage"/>
    <dc:date>2024-04-25T13:48:05.976705</dc:date>
    <dc:format>image/svg+xml</dc:format>
    <dc:creator>
     <cc:Agent>
      <dc:title>Matplotlib v3.7.2, https://matplotlib.org/</dc:title>
     </cc:Agent>
    </dc:creator>
   </cc:Work>
  </rdf:RDF>
 </metadata>
 <defs>
  <style type="text/css">*{stroke-linejoin: round; stroke-linecap: butt}</style>
 </defs>
 <g id="figure_1">
  <g id="patch_1">
   <path d="M 0 345.6 
L 460.8 345.6 
L 460.8 0 
L 0 0 
z
" style="fill: #ffffff"/>
  </g>
  <g id="axes_1">
   <g id="patch_2">
    <path d="M 57.6 307.584 
L 414.72 307.584 
L 414.72 41.472 
L 57.6 41.472 
z
" style="fill: #ffffff"/>
   </g>
   <g id="matplotlib.axis_1">
    <g id="xtick_1">
     <g id="line2d_1">
      <defs>
       <path id="m84b5679645" d="M 0 0 
L 0 3.5 
" style="stroke: #000000; stroke-width: 0.8"/>
      </defs>
      <g>
       <use xlink:href="#m84b5679645" x="73.832727" y="307.584" style="stroke: #000000; stroke-width: 0.8"/>
      </g>
     </g>
     <g id="text_1">
      <!-- 0 -->
      <g transform="translate(70.651477 322.182437) scale(0.1 -0.1)">
       <defs>
        <path id="DejaVuSans-30" d="M 2034 4250 
Q 1547 4250 1301 3770 
Q 1056 3291 1056 2328 
Q 1056 1369 1301 889 
Q 1547 409 2034 409 
Q 2525 409 2770 889 
Q 3016 1369 3016 2328 
Q 3016 3291 2770 3770 
Q 2525 4250 2034 4250 
z
M 2034 4750 
Q 2819 4750 3233 4129 
Q 3647 3509 3647 2328 
Q 3647 1150 3233 529 
Q 2819 -91 2034 -91 
Q 1250 -91 836 529 
Q 422 1150 422 2328 
Q 422 3509 836 4129 
Q 1250 4750 2034 4750 
z
" transform="scale(0.015625)"/>
       </defs>
       <use xlink:href="#DejaVuSans-30"/>
      </g>
     </g>
    </g>
    <g id="xtick_2">
     <g id="line2d_2">
      <g>
       <use xlink:href="#m84b5679645" x="138.77013" y="307.584" style="stroke: #000000; stroke-width: 0.8"/>
      </g>
     </g>
     <g id="text_2">
      <!-- 2000 -->
      <g transform="translate(126.04513 322.182437) scale(0.1 -0.1)">
       <defs>
        <path id="DejaVuSans-32" d="M 1228 531 
L 3431 531 
L 3431 0 
L 469 0 
L 469 531 
Q 828 903 1448 1529 
Q 2069 2156 2228 2338 
Q 2531 2678 2651 2914 
Q 2772 3150 2772 3378 
Q 2772 3750 2511 3984 
Q 2250 4219 1831 4219 
Q 1534 4219 1204 4116 
Q 875 4013 500 3803 
L 500 4441 
Q 881 4594 1212 4672 
Q 1544 4750 1819 4750 
Q 2544 4750 2975 4387 
Q 3406 4025 3406 3419 
Q 3406 3131 3298 2873 
Q 3191 2616 2906 2266 
Q 2828 2175 2409 1742 
Q 1991 1309 1228 531 
z
" transform="scale(0.015625)"/>
       </defs>
       <use xlink:href="#DejaVuSans-32"/>
       <use xlink:href="#DejaVuSans-30" x="63.623047"/>
       <use xlink:href="#DejaVuSans-30" x="127.246094"/>
       <use xlink:href="#DejaVuSans-30" x="190.869141"/>
      </g>
     </g>
    </g>
    <g id="xtick_3">
     <g id="line2d_3">
      <g>
       <use xlink:href="#m84b5679645" x="203.707533" y="307.584" style="stroke: #000000; stroke-width: 0.8"/>
      </g>
     </g>
     <g id="text_3">
      <!-- 4000 -->
      <g transform="translate(190.982533 322.182437) scale(0.1 -0.1)">
       <defs>
        <path id="DejaVuSans-34" d="M 2419 4116 
L 825 1625 
L 2419 1625 
L 2419 4116 
z
M 2253 4666 
L 3047 4666 
L 3047 1625 
L 3713 1625 
L 3713 1100 
L 3047 1100 
L 3047 0 
L 2419 0 
L 2419 1100 
L 313 1100 
L 313 1709 
L 2253 4666 
z
" transform="scale(0.015625)"/>
       </defs>
       <use xlink:href="#DejaVuSans-34"/>
       <use xlink:href="#DejaVuSans-30" x="63.623047"/>
       <use xlink:href="#DejaVuSans-30" x="127.246094"/>
       <use xlink:href="#DejaVuSans-30" x="190.869141"/>
      </g>
     </g>
    </g>
    <g id="xtick_4">
     <g id="line2d_4">
      <g>
       <use xlink:href="#m84b5679645" x="268.644936" y="307.584" style="stroke: #000000; stroke-width: 0.8"/>
      </g>
     </g>
     <g id="text_4">
      <!-- 6000 -->
      <g transform="translate(255.919936 322.182437) scale(0.1 -0.1)">
       <defs>
        <path id="DejaVuSans-36" d="M 2113 2584 
Q 1688 2584 1439 2293 
Q 1191 2003 1191 1497 
Q 1191 994 1439 701 
Q 1688 409 2113 409 
Q 2538 409 2786 701 
Q 3034 994 3034 1497 
Q 3034 2003 2786 2293 
Q 2538 2584 2113 2584 
z
M 3366 4563 
L 3366 3988 
Q 3128 4100 2886 4159 
Q 2644 4219 2406 4219 
Q 1781 4219 1451 3797 
Q 1122 3375 1075 2522 
Q 1259 2794 1537 2939 
Q 1816 3084 2150 3084 
Q 2853 3084 3261 2657 
Q 3669 2231 3669 1497 
Q 3669 778 3244 343 
Q 2819 -91 2113 -91 
Q 1303 -91 875 529 
Q 447 1150 447 2328 
Q 447 3434 972 4092 
Q 1497 4750 2381 4750 
Q 2619 4750 2861 4703 
Q 3103 4656 3366 4563 
z
" transform="scale(0.015625)"/>
       </defs>
       <use xlink:href="#DejaVuSans-36"/>
       <use xlink:href="#DejaVuSans-30" x="63.623047"/>
       <use xlink:href="#DejaVuSans-30" x="127.246094"/>
       <use xlink:href="#DejaVuSans-30" x="190.869141"/>
      </g>
     </g>
    </g>
    <g id="xtick_5">
     <g id="line2d_5">
      <g>
       <use xlink:href="#m84b5679645" x="333.582339" y="307.584" style="stroke: #000000; stroke-width: 0.8"/>
      </g>
     </g>
     <g id="text_5">
      <!-- 8000 -->
      <g transform="translate(320.857339 322.182437) scale(0.1 -0.1)">
       <defs>
        <path id="DejaVuSans-38" d="M 2034 2216 
Q 1584 2216 1326 1975 
Q 1069 1734 1069 1313 
Q 1069 891 1326 650 
Q 1584 409 2034 409 
Q 2484 409 2743 651 
Q 3003 894 3003 1313 
Q 3003 1734 2745 1975 
Q 2488 2216 2034 2216 
z
M 1403 2484 
Q 997 2584 770 2862 
Q 544 3141 544 3541 
Q 544 4100 942 4425 
Q 1341 4750 2034 4750 
Q 2731 4750 3128 4425 
Q 3525 4100 3525 3541 
Q 3525 3141 3298 2862 
Q 3072 2584 2669 2484 
Q 3125 2378 3379 2068 
Q 3634 1759 3634 1313 
Q 3634 634 3220 271 
Q 2806 -91 2034 -91 
Q 1263 -91 848 271 
Q 434 634 434 1313 
Q 434 1759 690 2068 
Q 947 2378 1403 2484 
z
M 1172 3481 
Q 1172 3119 1398 2916 
Q 1625 2713 2034 2713 
Q 2441 2713 2670 2916 
Q 2900 3119 2900 3481 
Q 2900 3844 2670 4047 
Q 2441 4250 2034 4250 
Q 1625 4250 1398 4047 
Q 1172 3844 1172 3481 
z
" transform="scale(0.015625)"/>
       </defs>
       <use xlink:href="#DejaVuSans-38"/>
       <use xlink:href="#DejaVuSans-30" x="63.623047"/>
       <use xlink:href="#DejaVuSans-30" x="127.246094"/>
       <use xlink:href="#DejaVuSans-30" x="190.869141"/>
      </g>
     </g>
    </g>
    <g id="xtick_6">
     <g id="line2d_6">
      <g>
       <use xlink:href="#m84b5679645" x="398.519741" y="307.584" style="stroke: #000000; stroke-width: 0.8"/>
      </g>
     </g>
     <g id="text_6">
      <!-- 10000 -->
      <g transform="translate(382.613491 322.182437) scale(0.1 -0.1)">
       <defs>
        <path id="DejaVuSans-31" d="M 794 531 
L 1825 531 
L 1825 4091 
L 703 3866 
L 703 4441 
L 1819 4666 
L 2450 4666 
L 2450 531 
L 3481 531 
L 3481 0 
L 794 0 
L 794 531 
z
" transform="scale(0.015625)"/>
       </defs>
       <use xlink:href="#DejaVuSans-31"/>
       <use xlink:href="#DejaVuSans-30" x="63.623047"/>
       <use xlink:href="#DejaVuSans-30" x="127.246094"/>
       <use xlink:href="#DejaVuSans-30" x="190.869141"/>
       <use xlink:href="#DejaVuSans-30" x="254.492188"/>
      </g>
     </g>
    </g>
   </g>
   <g id="matplotlib.axis_2">
    <g id="ytick_1">
     <g id="line2d_7">
      <defs>
       <path id="me92bc835cf" d="M 0 0 
L -3.5 0 
" style="stroke: #000000; stroke-width: 0.8"/>
      </defs>
      <g>
       <use xlink:href="#me92bc835cf" x="57.6" y="295.488" style="stroke: #000000; stroke-width: 0.8"/>
      </g>
     </g>
     <g id="text_7">
      <!-- −300 -->
      <g transform="translate(23.132812 299.287219) scale(0.1 -0.1)">
       <defs>
        <path id="DejaVuSans-2212" d="M 678 2272 
L 4684 2272 
L 4684 1741 
L 678 1741 
L 678 2272 
z
" transform="scale(0.015625)"/>
        <path id="DejaVuSans-33" d="M 2597 2516 
Q 3050 2419 3304 2112 
Q 3559 1806 3559 1356 
Q 3559 666 3084 287 
Q 2609 -91 1734 -91 
Q 1441 -91 1130 -33 
Q 819 25 488 141 
L 488 750 
Q 750 597 1062 519 
Q 1375 441 1716 441 
Q 2309 441 2620 675 
Q 2931 909 2931 1356 
Q 2931 1769 2642 2001 
Q 2353 2234 1838 2234 
L 1294 2234 
L 1294 2753 
L 1863 2753 
Q 2328 2753 2575 2939 
Q 2822 3125 2822 3475 
Q 2822 3834 2567 4026 
Q 2313 4219 1838 4219 
Q 1578 4219 1281 4162 
Q 984 4106 628 3988 
L 628 4550 
Q 988 4650 1302 4700 
Q 1616 4750 1894 4750 
Q 2613 4750 3031 4423 
Q 3450 4097 3450 3541 
Q 3450 3153 3228 2886 
Q 3006 2619 2597 2516 
z
" transform="scale(0.015625)"/>
       </defs>
       <use xlink:href="#DejaVuSans-2212"/>
       <use xlink:href="#DejaVuSans-33" x="83.789062"/>
       <use xlink:href="#DejaVuSans-30" x="147.412109"/>
       <use xlink:href="#DejaVuSans-30" x="211.035156"/>
      </g>
     </g>
    </g>
    <g id="ytick_2">
     <g id="line2d_8">
      <g>
       <use xlink:href="#me92bc835cf" x="57.6" y="237.560393" style="stroke: #000000; stroke-width: 0.8"/>
      </g>
     </g>
     <g id="text_8">
      <!-- −200 -->
      <g transform="translate(23.132812 241.359612) scale(0.1 -0.1)">
       <use xlink:href="#DejaVuSans-2212"/>
       <use xlink:href="#DejaVuSans-32" x="83.789062"/>
       <use xlink:href="#DejaVuSans-30" x="147.412109"/>
       <use xlink:href="#DejaVuSans-30" x="211.035156"/>
      </g>
     </g>
    </g>
    <g id="ytick_3">
     <g id="line2d_9">
      <g>
       <use xlink:href="#me92bc835cf" x="57.6" y="179.632786" style="stroke: #000000; stroke-width: 0.8"/>
      </g>
     </g>
     <g id="text_9">
      <!-- −100 -->
      <g transform="translate(23.132812 183.432005) scale(0.1 -0.1)">
       <use xlink:href="#DejaVuSans-2212"/>
       <use xlink:href="#DejaVuSans-31" x="83.789062"/>
       <use xlink:href="#DejaVuSans-30" x="147.412109"/>
       <use xlink:href="#DejaVuSans-30" x="211.035156"/>
      </g>
     </g>
    </g>
    <g id="ytick_4">
     <g id="line2d_10">
      <g>
       <use xlink:href="#me92bc835cf" x="57.6" y="121.705179" style="stroke: #000000; stroke-width: 0.8"/>
      </g>
     </g>
     <g id="text_10">
      <!-- 0 -->
      <g transform="translate(44.2375 125.504398) scale(0.1 -0.1)">
       <use xlink:href="#DejaVuSans-30"/>
      </g>
     </g>
    </g>
    <g id="ytick_5">
     <g id="line2d_11">
      <g>
       <use xlink:href="#me92bc835cf" x="57.6" y="63.777572" style="stroke: #000000; stroke-width: 0.8"/>
      </g>
     </g>
     <g id="text_11">
      <!-- 100 -->
      <g transform="translate(31.5125 67.576791) scale(0.1 -0.1)">
       <use xlink:href="#DejaVuSans-31"/>
       <use xlink:href="#DejaVuSans-30" x="63.623047"/>
       <use xlink:href="#DejaVuSans-30" x="127.246094"/>
      </g>
     </g>
    </g>
   </g>
   <g id="line2d_12">
    <path d="M 73.832727 116.67201 
L 73.865196 295.488 
L 73.897665 93.037041 
L 73.930133 120.642379 
L 73.962602 117.504131 
L 73.995071 93.980558 
L 74.060008 121.161588 
L 74.124946 117.260971 
L 74.157414 295.488 
L 74.222352 121.003163 
L 74.25482 123.153083 
L 74.287289 102.406276 
L 74.352226 103.945087 
L 74.384695 121.092577 
L 74.417164 295.488 
L 74.449633 116.156787 
L 74.482101 121.161588 
L 74.51457 120.931391 
L 74.547039 121.161588 
L 74.611976 99.606989 
L 74.676914 295.488 
L 74.709382 96.71696 
L 74.806788 121.092577 
L 74.839257 106.966732 
L 74.904194 117.705222 
L 75.001601 295.488 
L 75.034069 106.08381 
L 75.131475 108.199598 
L 75.163944 116.91016 
L 75.196413 104.070413 
L 75.228881 96.390071 
L 75.26135 101.01339 
L 75.293819 295.488 
L 75.358756 120.307981 
L 75.423694 107.377869 
L 75.456162 120.307981 
L 75.488631 117.705222 
L 75.5211 98.359223 
L 75.553568 121.161588 
L 75.618506 295.488 
L 75.650975 121.092577 
L 75.683443 100.272637 
L 75.748381 295.488 
L 75.780849 114.727359 
L 75.813318 122.525397 
L 75.845787 104.642722 
L 75.878255 295.488 
L 75.943193 122.274603 
L 76.105536 97.800884 
L 76.138005 121.092577 
L 76.202942 120.571659 
L 76.235411 107.816818 
L 76.332817 295.488 
L 76.365286 99.033729 
L 76.462692 117.705222 
L 76.495161 115.647622 
L 76.527629 295.488 
L 76.560098 100.591945 
L 76.592567 120.307981 
L 76.625036 119.709899 
L 76.657504 123.084175 
L 76.689973 295.488 
L 76.75491 117.504131 
L 76.787379 120.307981 
L 76.819848 118.220751 
L 76.852317 295.488 
L 76.917254 99.874238 
L 76.949723 119.270247 
L 77.01466 104.070413 
L 77.079597 295.488 
L 77.112066 121.092577 
L 77.177004 121.161588 
L 77.209472 106.417004 
L 77.339347 121.092577 
L 77.371816 115.647622 
L 77.469222 111.955184 
L 77.501691 295.488 
L 77.631565 87.300915 
L 77.76144 124.11467 
L 77.793909 117.459958 
L 77.923784 295.488 
L 77.956252 295.488 
L 77.988721 86.759502 
L 78.086127 128.521016 
L 78.118596 129.087048 
L 78.151065 168.198091 
L 78.216002 125.367031 
L 78.280939 124.557608 
L 78.313408 128.521016 
L 78.378345 119.530961 
L 78.443283 166.18962 
L 78.475752 168.198091 
L 78.573158 102.838767 
L 78.605626 105.188861 
L 78.638095 110.395912 
L 78.670564 100.130927 
L 78.703032 103.814523 
L 78.735501 104.070413 
L 78.76797 97.677454 
L 78.865376 116.892064 
L 78.897845 110.146745 
L 78.930313 110.146745 
L 78.995251 109.441528 
L 79.027719 116.892064 
L 79.125126 109.623579 
L 79.157594 110.146745 
L 79.190063 116.892064 
L 79.287469 115.14171 
L 79.417344 112.441914 
L 80.131655 112.482254 
L 80.196593 111.43522 
L 80.26153 111.683761 
L 80.293999 108.92127 
L 80.358936 111.929801 
L 80.391405 111.43522 
L 80.423874 111.755704 
L 80.488811 108.92127 
L 80.52128 115.943784 
L 80.553748 111.683761 
L 80.618686 115.943784 
L 80.716092 115.943784 
L 80.845967 108.92127 
L 80.943373 110.307123 
L 80.975842 108.241496 
L 81.00831 111.223827 
L 81.040779 111.27149 
L 81.073248 109.044624 
L 81.105716 113.667429 
L 81.138185 110.373541 
L 81.203122 114.913823 
L 81.235591 110.635714 
L 81.26806 109.287451 
L 81.300529 111.510593 
L 81.332997 110.167607 
L 81.365466 91.375049 
L 81.462872 96.473765 
L 81.495341 96.417185 
L 81.52781 99.628707 
L 81.592747 98.126596 
L 81.657684 96.417185 
L 81.690153 97.729937 
L 81.820028 98.173779 
L 81.852497 98.07114 
L 81.884965 97.729937 
L 81.917434 97.795715 
L 82.01484 100.86497 
L 82.047309 98.425797 
L 82.079777 98.173779 
L 82.144715 100.470787 
L 82.177184 98.173779 
L 82.209652 96.198981 
L 82.307058 96.742657 
L 82.339527 97.729937 
L 82.371996 96.417185 
L 82.404464 95.802134 
L 82.436933 97.086136 
L 82.469402 97.086136 
L 82.566808 94.565645 
L 82.696683 97.086136 
L 82.729151 97.401742 
L 82.76162 97.086136 
L 82.826558 97.729937 
L 82.956432 92.81406 
L 82.988901 94.251873 
L 83.053838 98.07114 
L 83.118776 89.611671 
L 83.183713 87.80189 
L 83.216182 94.269007 
L 83.248651 88.162545 
L 83.281119 94.50912 
L 83.313588 88.22067 
L 83.475932 103.839855 
L 83.5084 108.735524 
L 83.540869 106.555866 
L 83.605806 87.123244 
L 83.670744 97.165138 
L 83.735681 100.549293 
L 83.800619 93.115814 
L 83.833087 94.387019 
L 83.865556 91.779892 
L 83.898025 107.959991 
L 83.962962 104.657799 
L 83.995431 71.683869 
L 84.060368 104.096015 
L 84.092837 104.709339 
L 84.125306 109.063128 
L 84.190243 92.641679 
L 84.222712 107.300614 
L 84.25518 109.030412 
L 84.287649 105.780328 
L 84.320118 88.142554 
L 84.385055 100.195214 
L 84.51493 122.373725 
L 84.579867 81.930658 
L 84.612336 110.499408 
L 84.677274 124.79927 
L 84.709742 124.557608 
L 84.742211 86.510722 
L 84.807148 113.887572 
L 84.872086 114.750073 
L 84.969492 93.53078 
L 85.001961 97.092699 
L 85.034429 88.025218 
L 85.066898 98.171369 
L 85.099367 104.071697 
L 85.131835 101.34826 
L 85.229241 80.084668 
L 85.359116 119.305641 
L 85.391585 78.602075 
L 85.488991 89.586188 
L 85.52146 83.8498 
L 85.586397 90.348541 
L 85.618866 89.122879 
L 85.651335 110.707191 
L 85.716272 90.78886 
L 85.748741 90.348541 
L 85.813678 83.514317 
L 85.846147 90.348541 
L 85.878615 89.358148 
L 86.00849 96.103802 
L 86.040959 75.970391 
L 86.105896 85.721423 
L 86.235771 110.592376 
L 86.26824 97.401742 
L 86.300709 83.287113 
L 86.333177 100.86262 
L 86.365646 97.877296 
L 86.430583 99.713587 
L 86.463052 83.57234 
L 86.592927 115.38922 
L 86.657864 84.241832 
L 86.722802 91.502022 
L 86.787739 86.325201 
L 86.820208 122.055884 
L 86.885145 88.034649 
L 86.950083 104.629768 
L 86.982551 107.891441 
L 87.112426 88.128968 
L 87.177364 84.908483 
L 87.27477 73.994616 
L 87.404644 95.688931 
L 87.372176 71.700059 
L 87.437113 92.627508 
L 87.469582 96.969735 
L 87.502051 82.203039 
L 87.566988 89.335978 
L 87.599457 109.443019 
L 87.664394 103.226458 
L 87.696863 72.749448 
L 87.7618 89.762106 
L 87.826738 94.893164 
L 87.859206 89.882705 
L 87.956612 94.251873 
L 87.989081 84.949357 
L 88.02155 105.507908 
L 88.086487 88.152565 
L 88.118956 98.929519 
L 88.183893 86.596556 
L 88.248831 84.013315 
L 88.281299 78.244252 
L 88.346237 80.410079 
L 88.378706 86.293448 
L 88.443643 84.855155 
L 88.476112 70.836367 
L 88.541049 84.631686 
L 88.573518 83.698888 
L 88.638455 78.669787 
L 88.670924 126.461374 
L 88.735861 81.242781 
L 88.800799 84.938453 
L 88.833267 74.830889 
L 88.865736 83.825919 
L 88.995611 127.02775 
L 88.963142 79.803784 
L 89.02808 125.975708 
L 89.093017 98.777487 
L 89.157954 107.693153 
L 89.222892 100.791574 
L 89.25536 75.405722 
L 89.287829 124.990847 
L 89.320298 95.725402 
L 89.417704 128.521016 
L 89.450173 79.834016 
L 89.51511 82.827902 
L 89.547579 126.441459 
L 89.612516 105.282161 
L 89.644985 97.357118 
L 89.677454 115.760371 
L 89.709922 117.21224 
L 89.742391 103.910873 
L 89.807328 119.274505 
L 89.839797 128.335704 
L 89.969672 85.415023 
L 90.067078 126.992201 
L 90.164484 93.777842 
L 90.196953 126.992201 
L 90.26189 98.238971 
L 90.391765 104.411869 
L 90.52164 88.326287 
L 90.651515 126.992201 
L 90.683983 116.861088 
L 90.716452 126.992201 
L 90.748921 102.871242 
L 90.781389 101.912547 
L 90.813858 104.529681 
L 90.846327 95.08103 
L 90.911264 101.569275 
L 90.943733 126.992201 
L 90.976202 99.39976 
L 91.00867 99.508481 
L 91.041139 96.456407 
L 91.073608 102.658594 
L 91.106076 115.941182 
L 91.138545 99.084519 
L 91.171014 103.3533 
L 91.235951 108.062628 
L 91.365826 86.029643 
L 91.430763 115.122968 
L 91.463232 91.534623 
L 91.495701 90.369652 
L 91.593107 110.122025 
L 91.625576 93.905512 
L 91.690513 100.534531 
L 91.722982 101.302251 
L 91.75545 99.847837 
L 91.852857 91.322939 
L 91.885325 101.79633 
L 91.982731 99.155559 
L 92.0152 87.011513 
L 92.080137 92.615459 
L 92.210012 100.572295 
L 92.242481 100.298451 
L 92.307418 98.389558 
L 92.339887 99.524694 
L 92.372356 101.565935 
L 92.469762 83.874422 
L 92.502231 107.990399 
L 92.599637 100.32383 
L 92.697043 103.956496 
L 92.729511 93.679092 
L 92.794449 103.265049 
L 92.924324 83.586054 
L 92.956792 89.798861 
L 92.989261 95.762493 
L 93.02173 73.143836 
L 93.086667 100.472288 
L 93.151605 82.610534 
L 93.216542 94.006793 
L 93.249011 96.746222 
L 93.281479 83.180188 
L 93.346417 97.398315 
L 93.378886 95.726427 
L 93.411354 87.854543 
L 93.476292 94.864582 
L 93.50876 95.51675 
L 93.573698 97.386967 
L 93.606166 77.24216 
L 93.638635 126.10801 
L 93.703573 95.425328 
L 93.736041 99.398209 
L 93.76851 79.670238 
L 93.865916 81.667789 
L 93.898385 124.326158 
L 93.963322 92.75844 
L 94.02826 99.934796 
L 94.060728 93.00544 
L 94.125666 96.447297 
L 94.158134 86.512107 
L 94.190603 96.525778 
L 94.288009 92.73957 
L 94.320478 100.618951 
L 94.352947 77.507502 
L 94.417884 83.74624 
L 94.547759 104.673386 
L 94.580227 98.299529 
L 94.612696 96.291189 
L 94.645165 96.364786 
L 94.742571 127.753054 
L 94.839977 78.736594 
L 94.872446 104.265244 
L 94.904914 95.835015 
L 94.937383 124.260876 
L 95.002321 92.005088 
L 95.067258 99.779865 
L 95.132195 74.457679 
L 95.197133 97.976047 
L 95.229602 82.61564 
L 95.26207 72.08841 
L 95.294539 82.727674 
L 95.391945 79.121361 
L 95.424414 96.972604 
L 95.456882 98.623234 
L 95.489351 77.392629 
L 95.52182 111.95775 
L 95.554289 101.755225 
L 95.586757 121.092577 
L 95.619226 82.580892 
L 95.651695 101.95893 
L 95.716632 102.931173 
L 95.749101 66.997056 
L 95.814038 99.509618 
L 95.846507 66.81025 
L 95.878976 85.004722 
L 95.911444 92.269102 
L 96.00885 90.92021 
L 96.073788 96.099954 
L 96.106256 79.292778 
L 96.138725 94.957581 
L 96.203663 81.723417 
L 96.333537 100.062202 
L 96.366006 90.86095 
L 96.430943 80.68022 
L 96.463412 89.17572 
L 96.495881 89.218022 
L 96.52835 100.166849 
L 96.593287 93.923312 
L 96.658224 78.204177 
L 96.723162 82.983604 
L 96.820568 98.275173 
L 96.853037 69.936489 
L 96.917974 87.750919 
L 97.047849 99.354026 
L 97.01538 86.108295 
L 97.080317 98.305182 
L 97.177724 80.072034 
L 97.210192 86.268934 
L 97.27513 101.79629 
L 97.372536 104.640927 
L 97.405005 84.318786 
L 97.502411 91.130866 
L 97.534879 89.726706 
L 97.567348 87.49059 
L 97.599817 91.139397 
L 97.632285 91.382289 
L 97.697223 86.256526 
L 97.729692 117.358181 
L 97.794629 88.87154 
L 97.859566 90.762937 
L 97.892035 91.434407 
L 97.924504 87.591062 
L 97.956972 96.014715 
L 98.054379 100.525125 
L 98.086847 88.720696 
L 98.184253 92.282718 
L 98.216722 87.091556 
L 98.249191 99.186883 
L 98.281659 98.698773 
L 98.314128 86.905411 
L 98.346597 87.999558 
L 98.379066 107.490713 
L 98.444003 83.226031 
L 98.541409 110.461905 
L 98.573878 89.656543 
L 98.606346 82.052125 
L 98.638815 95.325113 
L 98.671284 120.32318 
L 98.703753 85.15314 
L 98.736221 91.372142 
L 98.801159 97.370808 
L 98.866096 79.23074 
L 98.963502 108.248603 
L 98.995971 91.126905 
L 99.02844 72.90885 
L 99.093377 88.742182 
L 99.158314 70.957447 
L 99.288189 99.038349 
L 99.353127 100.940975 
L 99.418064 80.812341 
L 99.483001 83.222627 
L 99.51547 99.249981 
L 99.612876 99.218758 
L 99.677814 81.776691 
L 99.710282 100.228995 
L 99.742751 100.797959 
L 99.807688 81.718312 
L 99.840157 83.478009 
L 99.872626 99.257932 
L 99.905095 80.602273 
L 99.937563 89.924268 
L 100.034969 95.818587 
L 100.067438 81.997211 
L 100.164844 87.763849 
L 100.197313 120.593756 
L 100.229782 83.14622 
L 100.26225 108.271701 
L 100.359656 85.877964 
L 100.327188 123.617245 
L 100.392125 87.239611 
L 100.457062 123.617245 
L 100.489531 84.802397 
L 100.522 94.831624 
L 100.586937 95.594003 
L 100.619406 83.314928 
L 100.651875 120.593756 
L 100.716812 81.392464 
L 100.781749 83.619631 
L 100.846687 79.690288 
L 100.879156 104.884079 
L 100.944093 79.343166 
L 101.00903 78.095552 
L 101.041499 94.795249 
L 101.138905 77.819542 
L 101.171374 82.256148 
L 101.203843 82.193767 
L 101.236311 91.27733 
L 101.301249 83.159294 
L 101.333717 82.748441 
L 101.366186 105.185844 
L 101.431123 97.640008 
L 101.496061 81.083609 
L 101.560998 84.078309 
L 101.593467 93.684685 
L 101.658404 86.142703 
L 101.75581 91.754045 
L 101.885685 82.060007 
L 101.918154 94.126016 
L 102.01556 92.95101 
L 102.048029 101.067947 
L 102.080498 97.014805 
L 102.210372 81.502534 
L 102.242841 82.289741 
L 102.27531 79.994645 
L 102.307778 84.714914 
L 102.372716 98.108692 
L 102.437653 96.543602 
L 102.535059 81.155265 
L 102.567528 82.892674 
L 102.599997 97.724479 
L 102.697403 91.559953 
L 102.76234 80.22118 
L 102.827278 81.692722 
L 102.957152 93.825175 
L 102.989621 95.447405 
L 103.02209 89.679339 
L 103.054559 97.850172 
L 103.087027 92.099115 
L 103.184433 90.67943 
L 103.216902 97.929907 
L 103.249371 75.55281 
L 103.281839 100.654573 
L 103.314308 76.859999 
L 103.346777 99.993057 
L 103.411714 87.415802 
L 103.444183 73.698678 
L 103.476652 74.469026 
L 103.50912 97.598979 
L 103.574058 70.708357 
L 103.606526 94.32766 
L 103.638995 70.808665 
L 103.671464 99.860987 
L 103.703933 92.279662 
L 103.736401 98.835874 
L 103.76887 86.526905 
L 103.833807 98.148868 
L 103.866276 97.448935 
L 104.02862 83.149552 
L 104.158494 98.84806 
L 104.223432 85.250302 
L 104.2559 93.905326 
L 104.288369 93.273591 
L 104.320838 87.239242 
L 104.353307 93.792779 
L 104.385775 87.811602 
L 104.418244 99.875349 
L 104.51565 97.769798 
L 104.580588 105.773473 
L 104.645525 86.188881 
L 104.710462 98.240141 
L 104.7754 87.100885 
L 104.807868 92.088287 
L 104.840337 103.483893 
L 104.937743 102.205308 
L 105.035149 90.754798 
L 105.067618 92.648223 
L 105.100087 93.207873 
L 105.197493 111.296315 
L 105.229962 91.473891 
L 105.294899 92.265901 
L 105.327368 107.475333 
L 105.392305 100.079497 
L 105.424774 96.993636 
L 105.457242 105.688113 
L 105.489711 94.43773 
L 105.52218 95.068408 
L 105.554649 92.495617 
L 105.587117 103.972075 
L 105.619586 100.252437 
L 105.749461 77.608772 
L 105.911804 101.603064 
L 105.944273 89.745494 
L 106.041679 92.66022 
L 106.074148 92.526464 
L 106.106616 102.64824 
L 106.171554 92.526464 
L 106.301429 106.068396 
L 106.333897 93.42702 
L 106.431303 97.650821 
L 106.52871 98.794812 
L 106.561178 94.207362 
L 106.593647 96.264613 
L 106.691053 95.772028 
L 106.755991 92.523266 
L 106.788459 93.831467 
L 106.853397 98.695917 
L 106.950803 96.626186 
L 106.983271 96.650619 
L 107.048209 95.218283 
L 107.080678 100.253024 
L 107.178084 98.958205 
L 107.210552 101.358468 
L 107.243021 96.213291 
L 107.27549 95.967059 
L 107.340427 98.085965 
L 107.372896 83.99086 
L 107.437833 87.147489 
L 107.470302 96.738641 
L 107.567708 96.32051 
L 107.632645 98.10874 
L 107.697583 96.738641 
L 107.76252 98.436408 
L 107.794989 93.831467 
L 107.859926 99.1402 
L 107.924864 95.816739 
L 107.957332 95.218283 
L 108.02227 94.980444 
L 108.087207 100.389838 
L 108.217082 95.0029 
L 108.249551 116.597683 
L 108.314488 96.724294 
L 108.346957 101.463479 
L 108.379426 98.04713 
L 108.476832 193.772129 
L 108.5093 116.391644 
L 108.606706 120.307981 
L 108.639175 120.307981 
L 108.704113 117.653883 
L 108.736581 193.772129 
L 108.801519 113.984922 
L 108.833987 193.772129 
L 108.866456 193.772129 
L 108.898925 98.332765 
L 108.996331 115.834002 
L 109.0288 118.115935 
L 109.061268 117.274415 
L 109.093737 193.632899 
L 109.126206 115.070869 
L 109.191143 193.207307 
L 109.223612 97.604969 
L 109.256081 193.333389 
L 109.288549 193.333389 
L 109.321018 193.207307 
L 109.385955 100.592473 
L 109.450893 121.092577 
L 109.483361 119.070653 
L 109.51583 102.575047 
L 109.548299 116.192369 
L 109.580768 193.333389 
L 109.613236 98.8609 
L 109.645705 101.031856 
L 109.678174 103.27031 
L 109.710642 121.161588 
L 109.743111 99.058481 
L 109.77558 102.454007 
L 109.808048 103.236488 
L 109.840517 103.016212 
L 109.872986 93.964954 
L 109.937923 103.15408 
L 109.970392 102.964865 
L 110.002861 104.070413 
L 110.067798 96.400564 
L 110.100267 119.940422 
L 110.165204 100.523137 
L 110.197673 121.161588 
L 110.230142 103.991343 
L 110.392485 193.333389 
L 110.489891 120.504769 
L 110.52236 193.333389 
L 110.587297 103.823512 
L 110.652235 121.161588 
L 110.684703 120.073795 
L 110.749641 93.902112 
L 110.814578 193.333389 
L 110.847047 102.798423 
L 110.944453 121.092577 
L 110.976922 103.991343 
L 111.041859 193.333389 
L 111.074328 119.940422 
L 111.106796 119.940422 
L 111.139265 103.868362 
L 111.171734 103.991343 
L 111.204203 193.333389 
L 111.26914 96.983496 
L 111.366546 119.398309 
L 111.431484 193.333389 
L 111.463952 103.782085 
L 111.496421 103.991343 
L 111.52889 103.868362 
L 111.626296 193.333389 
L 111.658764 120.504769 
L 111.723702 121.092577 
L 111.821108 103.991343 
L 111.853577 193.333389 
L 111.918514 120.504769 
L 111.950983 121.092577 
L 112.01592 103.521119 
L 112.048389 193.333389 
L 112.178264 121.092577 
L 112.210732 121.092577 
L 112.27567 120.504769 
L 112.308138 193.333389 
L 112.438013 103.749025 
L 112.470482 193.333389 
L 112.535419 103.991343 
L 112.665294 193.333389 
L 112.730232 103.63329 
L 112.7627 103.749025 
L 112.795169 193.333389 
L 112.860106 118.877301 
L 112.892575 118.877301 
L 113.02245 91.543565 
L 113.054919 91.50112 
L 113.282199 113.464937 
L 113.314668 107.302579 
L 113.347137 100.862533 
L 113.379606 111.473932 
L 113.412074 106.790171 
L 113.50948 111.473932 
L 113.477012 104.357411 
L 113.541949 110.870517 
L 113.574418 114.051803 
L 113.639355 111.473932 
L 113.736761 100.098692 
L 113.76923 113.619012 
L 113.866636 112.84697 
L 113.899105 112.317921 
L 113.964042 113.619012 
L 114.02898 104.383226 
L 114.126386 112.739844 
L 114.353667 93.519618 
L 114.386135 95.412758 
L 114.451073 92.174677 
L 114.483541 97.484883 
L 114.548479 95.064466 
L 114.580948 94.940832 
L 114.613416 93.441905 
L 114.645885 117.274415 
L 114.743291 116.141314 
L 114.808228 121.092577 
L 114.840697 92.464969 
L 114.938103 193.333389 
L 114.970572 118.376355 
L 115.035509 120.504769 
L 115.067978 193.333389 
L 115.132915 120.504769 
L 115.197853 87.113376 
L 115.230322 120.504769 
L 115.26279 119.940422 
L 115.295259 94.830937 
L 115.327728 121.092577 
L 115.457602 193.772129 
L 115.555009 118.584318 
L 115.619946 96.995398 
L 115.684883 193.772129 
L 115.717352 193.772129 
L 115.749821 121.092577 
L 115.814758 193.333389 
L 115.847227 193.333389 
L 115.879696 193.772129 
L 115.912164 119.709899 
L 116.00957 120.504769 
L 116.042039 193.333389 
L 116.106977 121.092577 
L 116.139445 119.940422 
L 116.26932 193.772129 
L 116.366726 193.333389 
L 116.464132 121.092577 
L 116.594007 193.333389 
L 116.691413 120.504769 
L 116.723882 121.092577 
L 116.788819 120.504769 
L 116.821288 193.333389 
L 116.886225 193.772129 
L 116.951163 121.092577 
L 117.048569 193.333389 
L 117.081038 121.092577 
L 117.145975 193.333389 
L 117.178444 193.772129 
L 117.243381 193.333389 
L 117.308318 193.333389 
L 117.373256 193.772129 
L 117.405725 193.333389 
L 117.438193 193.333389 
L 117.470662 121.092577 
L 117.535599 193.772129 
L 117.600537 193.772129 
L 117.697943 193.333389 
L 117.730412 193.772129 
L 117.76288 193.333389 
L 117.795349 121.092577 
L 117.827818 193.772129 
L 117.860286 193.772129 
L 117.925224 193.772129 
L 117.957692 193.333389 
L 118.02263 117.653883 
L 118.055099 193.772129 
L 118.087567 193.772129 
L 118.120036 120.307981 
L 118.184973 193.772129 
L 118.217442 193.772129 
L 118.249911 96.439758 
L 118.347317 118.958475 
L 118.379786 116.580693 
L 118.412254 120.307981 
L 118.542129 193.772129 
L 118.607067 193.772129 
L 118.704473 117.273825 
L 118.76941 193.772129 
L 118.801879 117.273825 
L 118.834347 120.307981 
L 118.866816 193.772129 
L 118.899285 115.291103 
L 118.931754 120.307981 
L 119.02916 118.958475 
L 119.094097 117.273825 
L 119.126566 120.307981 
L 119.159034 115.291103 
L 119.191503 116.580693 
L 119.256441 114.672653 
L 119.288909 193.772129 
L 119.386315 112.233743 
L 119.418784 115.951714 
L 119.451253 91.198781 
L 119.51619 98.153487 
L 119.613596 116.846576 
L 119.646065 99.427095 
L 119.711002 112.145603 
L 119.840877 103.268627 
L 119.873346 109.064546 
L 119.905815 103.245647 
L 119.970752 93.271595 
L 120.003221 81.430825 
L 120.068158 84.252407 
L 120.165564 123.084175 
L 120.26297 86.629509 
L 120.392845 123.084175 
L 120.490251 123.084175 
L 120.555189 121.602805 
L 120.587657 123.084175 
L 120.717532 88.71787 
L 120.750001 93.480103 
L 120.78247 83.056863 
L 120.814938 91.521653 
L 120.879876 91.895954 
L 121.00975 84.50216 
L 121.074688 84.651516 
L 121.107157 87.14455 
L 121.172094 84.785164 
L 121.237031 86.016215 
L 121.2695 81.27961 
L 121.301969 85.546727 
L 121.334437 95.120119 
L 121.399375 81.939494 
L 121.431844 82.04903 
L 121.464312 81.650884 
L 121.594187 107.886538 
L 121.626656 107.132773 
L 121.659124 78.835779 
L 121.724062 102.725195 
L 121.756531 101.934585 
L 121.788999 102.319855 
L 121.821468 91.983799 
L 121.886405 97.658693 
L 121.918874 109.240157 
L 121.983811 100.865142 
L 122.048749 65.115637 
L 122.081218 100.776203 
L 122.146155 82.886495 
L 122.211092 92.61048 
L 122.243561 97.1407 
L 122.27603 87.01633 
L 122.308498 92.531154 
L 122.340967 65.92339 
L 122.405905 99.032181 
L 122.470842 68.911424 
L 122.535779 90.522266 
L 122.568248 118.704774 
L 122.600717 65.366893 
L 122.633186 93.338219 
L 122.665654 93.244429 
L 122.698123 118.704774 
L 122.76306 83.044488 
L 122.795529 109.852056 
L 122.925404 54.212313 
L 122.990341 53.568 
L 123.055279 72.219541 
L 123.087747 71.321433 
L 123.120216 57.31712 
L 123.152685 72.259045 
L 123.185153 68.875111 
L 123.315028 123.084175 
L 123.347497 79.814006 
L 123.412434 82.998295 
L 123.50984 123.084175 
L 123.542309 84.247036 
L 123.607247 105.619825 
L 123.639715 106.962414 
L 123.737121 71.076546 
L 123.834527 123.084175 
L 123.931934 56.326993 
L 124.02934 125.608643 
L 124.061808 120.307981 
L 124.094277 57.099944 
L 124.159214 116.216874 
L 124.191683 112.83621 
L 124.224152 66.353772 
L 124.256621 122.832848 
L 124.289089 107.567123 
L 124.386495 120.307981 
L 124.418964 87.603003 
L 124.451433 122.832848 
L 124.483901 122.832848 
L 124.548839 122.832848 
L 124.613776 123.617245 
L 124.711182 120.307981 
L 124.77612 123.617245 
L 124.841057 122.832848 
L 124.905995 122.832848 
L 124.970932 116.535013 
L 125.035869 118.958475 
L 125.068338 117.653883 
L 125.100807 122.832848 
L 125.133276 97.153322 
L 125.230682 100.496763 
L 125.26315 90.902749 
L 125.295619 99.839189 
L 125.328088 122.832848 
L 125.360556 88.102879 
L 125.393025 90.911027 
L 125.490431 107.977562 
L 125.555369 114.945552 
L 125.620306 74.335453 
L 125.685243 115.632704 
L 125.78265 104.559597 
L 125.815118 102.254435 
L 125.847587 113.628733 
L 125.912524 97.505073 
L 125.944993 75.911311 
L 125.977462 113.965533 
L 126.00993 91.610475 
L 126.042399 85.549378 
L 126.074868 94.356126 
L 126.139805 115.968407 
L 126.204743 114.942753 
L 126.237211 115.968407 
L 126.26968 113.972076 
L 126.334617 71.590399 
L 126.399555 94.797637 
L 126.432024 103.822199 
L 126.464492 58.192032 
L 126.52943 104.803313 
L 126.561898 103.822199 
L 126.626836 118.829775 
L 126.659304 71.714251 
L 126.724242 103.822199 
L 126.854117 100.781276 
L 126.886585 115.023652 
L 126.951523 103.822199 
L 126.983991 103.822199 
L 127.048929 101.813248 
L 127.081398 103.822199 
L 127.113866 107.563095 
L 127.146335 102.881248 
L 127.178804 102.881248 
L 127.243741 103.822199 
L 127.27621 117.776583 
L 127.308679 101.813248 
L 127.341147 86.589057 
L 127.373616 113.14307 
L 127.406085 103.822199 
L 127.535959 125.013926 
L 127.568428 90.215221 
L 127.633366 125.013926 
L 127.698303 87.095864 
L 127.730772 125.013926 
L 127.828178 115.725138 
L 127.860646 122.255285 
L 127.893115 85.891662 
L 127.958053 125.013926 
L 128.02299 90.587025 
L 128.087927 90.588516 
L 128.185333 114.691643 
L 128.217802 102.320119 
L 128.250271 95.394553 
L 128.28274 106.277154 
L 128.315208 106.29344 
L 128.347677 106.583823 
L 128.380146 87.262331 
L 128.445083 104.878251 
L 128.51002 110.132814 
L 128.542489 123.540072 
L 128.574958 100.080355 
L 128.607427 112.692481 
L 128.704833 100.015273 
L 128.737301 103.887826 
L 128.76977 104.030758 
L 128.802239 102.594661 
L 128.834707 104.232329 
L 128.867176 103.428881 
L 128.899645 103.444352 
L 128.932114 102.594661 
L 128.997051 103.024429 
L 129.02952 103.562168 
L 129.061988 101.602752 
L 129.126926 101.623814 
L 129.224332 104.948536 
L 129.256801 102.289643 
L 129.321738 100.126242 
L 129.354207 102.45193 
L 129.419144 102.245794 
L 129.451613 103.234161 
L 129.549019 97.329938 
L 129.581488 102.980914 
L 129.678894 101.87105 
L 129.743831 102.008727 
L 129.7763 127.533338 
L 129.841237 101.484505 
L 129.873706 102.245794 
L 129.906175 100.578179 
L 129.938643 101.252355 
L 130.003581 102.414352 
L 130.036049 127.533338 
L 130.100987 100.799253 
L 130.133456 98.226015 
L 130.165924 101.921314 
L 130.198393 101.320512 
L 130.26333 129.087048 
L 130.295799 101.023959 
L 130.425674 102.486802 
L 130.555549 101.023959 
L 130.588017 102.245794 
L 130.620486 101.09856 
L 130.652955 99.224571 
L 130.685423 129.087048 
L 130.717892 98.805199 
L 130.750361 127.533338 
L 130.78283 93.061891 
L 130.847767 93.701102 
L 130.880236 127.533338 
L 130.945173 111.453836 
L 130.977642 110.271081 
L 131.01011 111.775805 
L 131.042579 111.525747 
L 131.139985 112.17328 
L 131.204923 127.533338 
L 131.237391 112.344214 
L 131.367266 111.388351 
L 131.399735 127.533338 
L 131.432204 102.431009 
L 131.464672 94.426492 
L 131.52961 95.383354 
L 131.789359 118.759748 
L 131.854297 118.348692 
L 131.886765 118.279684 
L 131.919234 118.348692 
L 131.951703 115.92099 
L 131.984172 119.391175 
L 132.01664 95.676041 
L 132.081578 96.11658 
L 132.178984 118.279684 
L 132.211452 96.101266 
L 132.27639 114.03275 
L 132.373796 118.568806 
L 132.406265 112.890598 
L 132.471202 118.080431 
L 132.503671 117.108183 
L 132.536139 117.210705 
L 132.601077 93.984253 
L 132.633546 112.760347 
L 132.666014 113.017765 
L 132.698483 109.104238 
L 132.76342 113.287026 
L 132.828358 89.566239 
L 132.860826 107.150066 
L 132.958233 103.985503 
L 133.088107 102.189142 
L 133.153045 105.755186 
L 133.185513 104.176335 
L 133.217982 87.977352 
L 133.250451 105.474945 
L 133.28292 101.054077 
L 133.315388 104.881012 
L 133.412794 103.985503 
L 133.445263 103.063472 
L 133.477732 92.401859 
L 133.542669 104.340235 
L 133.640075 99.181212 
L 133.672544 101.615865 
L 133.705013 103.232763 
L 133.834887 86.077235 
L 133.867356 84.806523 
L 133.997231 108.937534 
L 134.094637 84.996465 
L 134.192043 107.867121 
L 134.256981 76.473211 
L 134.321918 88.933307 
L 134.354387 88.933307 
L 134.386855 83.188787 
L 134.484262 109.255178 
L 134.451793 82.260237 
L 134.51673 106.183897 
L 134.614136 107.185789 
L 134.646605 73.868349 
L 134.744011 118.187453 
L 134.77648 101.573709 
L 134.808949 102.105705 
L 134.841417 101.328886 
L 134.971292 75.052029 
L 135.068698 120.148008 
L 135.101167 119.328657 
L 135.133636 102.6584 
L 135.166104 120.148008 
L 135.198573 119.328657 
L 135.231042 120.148008 
L 135.360916 96.103802 
L 135.393385 96.103802 
L 135.425854 97.086136 
L 135.555729 120.148008 
L 135.653135 99.396204 
L 135.78301 120.148008 
L 135.815478 120.148008 
L 135.847947 108.915653 
L 135.945353 112.441914 
L 135.977822 112.441914 
L 136.075228 120.148008 
L 136.205103 112.441914 
L 136.302509 115.862827 
L 136.367446 112.441914 
L 136.399915 115.862827 
L 136.432384 115.592448 
L 136.464852 112.441914 
L 136.497321 115.862827 
L 136.52979 115.862827 
L 136.594727 115.862827 
L 136.724602 112.441914 
L 136.757071 115.862827 
L 136.854477 115.592448 
L 136.886945 114.740659 
L 136.919414 115.592448 
L 136.951883 97.080617 
L 137.01682 115.862827 
L 137.114226 115.01508 
L 137.146695 115.592448 
L 137.179164 115.592448 
L 137.27657 97.080617 
L 137.309039 97.431487 
L 137.341507 96.417185 
L 137.438913 120.148008 
L 137.568788 96.417185 
L 137.666194 115.862827 
L 137.698663 115.592448 
L 137.7636 96.417185 
L 137.796069 96.742657 
L 137.861006 120.148008 
L 137.925944 115.592448 
L 138.02335 115.592448 
L 138.055819 127.757137 
L 138.120756 115.592448 
L 138.153225 115.862827 
L 138.218162 115.592448 
L 138.315568 115.592448 
L 138.348037 96.103802 
L 138.380506 120.148008 
L 138.412974 115.862827 
L 138.445443 120.148008 
L 138.477912 115.592448 
L 138.51038 115.862827 
L 138.542849 115.592448 
L 138.575318 115.862827 
L 138.607787 97.795715 
L 138.672724 115.592448 
L 138.932474 115.592448 
L 138.964942 115.862827 
L 139.02988 115.592448 
L 139.062348 96.417185 
L 139.127286 115.592448 
L 139.159755 115.592448 
L 139.192223 115.862827 
L 139.224692 115.592448 
L 139.257161 95.802134 
L 139.289629 120.148008 
L 139.322098 115.592448 
L 139.354567 115.862827 
L 139.451973 96.417185 
L 139.549379 96.103802 
L 139.581848 115.592448 
L 139.614316 115.592448 
L 139.679254 115.01508 
L 139.744191 120.148008 
L 139.809129 95.802134 
L 139.841597 95.802134 
L 139.874066 120.148008 
L 139.939003 115.335692 
L 140.003941 95.802134 
L 140.036409 119.801469 
L 140.198753 119.801469 
L 140.231222 127.088367 
L 140.26369 120.148008 
L 140.361096 95.802134 
L 140.393565 113.164289 
L 140.52344 95.802134 
L 140.653315 127.088367 
L 140.78319 95.025399 
L 140.815658 94.011697 
L 140.848127 67.664096 
L 140.880596 128.980484 
L 140.913064 134.806547 
L 140.945533 123.63295 
L 140.978002 123.63295 
L 141.010471 122.274603 
L 141.042939 122.93905 
L 141.075408 108.198599 
L 141.140345 125.164238 
L 141.205283 122.274603 
L 141.335158 128.980484 
L 141.432564 122.274603 
L 141.465032 128.980484 
L 141.52997 122.274603 
L 141.594907 122.274603 
L 141.692313 131.056135 
L 141.789719 122.274603 
L 141.952063 133.682773 
L 142.017 91.913601 
L 142.081938 96.306935 
L 142.114406 114.438672 
L 142.179344 95.773957 
L 142.211812 99.10249 
L 142.309219 98.361431 
L 142.341687 99.915747 
L 142.406625 99.12543 
L 142.471562 98.377837 
L 142.504031 129.632007 
L 142.568968 98.361431 
L 142.601437 98.377837 
L 142.633906 129.632007 
L 142.698843 98.361431 
L 142.796249 109.468253 
L 142.926124 96.305253 
L 143.055999 134.806547 
L 143.153405 88.397807 
L 143.28328 121.631144 
L 143.315748 82.418599 
L 143.380686 121.027349 
L 143.510561 121.027349 
L 143.543029 86.239323 
L 143.607967 88.15544 
L 143.640435 121.631144 
L 143.705373 100.826626 
L 143.737841 101.283813 
L 143.77031 98.685206 
L 143.932654 295.488 
L 144.03006 122.274603 
L 144.062528 295.488 
L 144.127466 122.274603 
L 144.77684 122.274603 
L 144.809309 295.488 
L 144.874246 122.274603 
L 149.127646 122.274603 
L 149.160115 295.488 
L 149.225052 122.274603 
L 149.549739 122.274603 
L 149.614676 295.488 
L 149.647145 122.274603 
L 149.744551 122.274603 
L 149.874426 295.488 
L 149.939363 295.488 
L 150.036769 122.274603 
L 150.166644 295.488 
L 150.199113 295.488 
L 150.328988 122.274603 
L 150.458863 295.488 
L 150.913424 295.488 
L 150.945893 122.274603 
L 151.010831 295.488 
L 151.432924 295.488 
L 151.465392 122.274603 
L 151.53033 295.488 
L 152.309579 295.488 
L 152.342047 122.274603 
L 152.406985 295.488 
L 398.487273 295.488 
L 398.487273 295.488 
" clip-path="url(#p5eb21711ce)" style="fill: none; stroke: #1f77b4; stroke-width: 1.5; stroke-linecap: square"/>
   </g>
   <g id="patch_3">
    <path d="M 57.6 307.584 
L 57.6 41.472 
" style="fill: none; stroke: #000000; stroke-width: 0.8; stroke-linejoin: miter; stroke-linecap: square"/>
   </g>
   <g id="patch_4">
    <path d="M 414.72 307.584 
L 414.72 41.472 
" style="fill: none; stroke: #000000; stroke-width: 0.8; stroke-linejoin: miter; stroke-linecap: square"/>
   </g>
   <g id="patch_5">
    <path d="M 57.6 307.584 
L 414.72 307.584 
" style="fill: none; stroke: #000000; stroke-width: 0.8; stroke-linejoin: miter; stroke-linecap: square"/>
   </g>
   <g id="patch_6">
    <path d="M 57.6 41.472 
L 414.72 41.472 
" style="fill: none; stroke: #000000; stroke-width: 0.8; stroke-linejoin: miter; stroke-linecap: square"/>
   </g>
  </g>
 </g>
 <defs>
  <clipPath id="p5eb21711ce">
   <rect x="57.6" y="41.472" width="357.12" height="266.112"/>
  </clipPath>
 </defs>
</svg>
