<?xml version="1.0" encoding="utf-8" standalone="no"?>
<!DOCTYPE svg PUBLIC "-//W3C//DTD SVG 1.1//EN"
  "http://www.w3.org/Graphics/SVG/1.1/DTD/svg11.dtd">
<svg xmlns:xlink="http://www.w3.org/1999/xlink" width="460.8pt" height="345.6pt" viewBox="0 0 460.8 345.6" xmlns="http://www.w3.org/2000/svg" version="1.1">
 <metadata>
  <rdf:RDF xmlns:dc="http://purl.org/dc/elements/1.1/" xmlns:cc="http://creativecommons.org/ns#" xmlns:rdf="http://www.w3.org/1999/02/22-rdf-syntax-ns#">
   <cc:Work>
    <dc:type rdf:resource="http://purl.org/dc/dcmitype/StillImage"/>
    <dc:date>2024-04-25T14:53:57.224740</dc:date>
    <dc:format>image/svg+xml</dc:format>
    <dc:creator>
     <cc:Agent>
      <dc:title>Matplotlib v3.7.2, https://matplotlib.org/</dc:title>
     </cc:Agent>
    </dc:creator>
   </cc:Work>
  </rdf:RDF>
 </metadata>
 <defs>
  <style type="text/css">*{stroke-linejoin: round; stroke-linecap: butt}</style>
 </defs>
 <g id="figure_1">
  <g id="patch_1">
   <path d="M 0 345.6 
L 460.8 345.6 
L 460.8 0 
L 0 0 
z
" style="fill: #ffffff"/>
  </g>
  <g id="axes_1">
   <g id="patch_2">
    <path d="M 57.6 307.584 
L 414.72 307.584 
L 414.72 41.472 
L 57.6 41.472 
z
" style="fill: #ffffff"/>
   </g>
   <g id="matplotlib.axis_1">
    <g id="xtick_1">
     <g id="line2d_1">
      <defs>
       <path id="m63ae54e926" d="M 0 0 
L 0 3.5 
" style="stroke: #000000; stroke-width: 0.8"/>
      </defs>
      <g>
       <use xlink:href="#m63ae54e926" x="73.832727" y="307.584" style="stroke: #000000; stroke-width: 0.8"/>
      </g>
     </g>
     <g id="text_1">
      <!-- 0 -->
      <g transform="translate(70.651477 322.182437) scale(0.1 -0.1)">
       <defs>
        <path id="DejaVuSans-30" d="M 2034 4250 
Q 1547 4250 1301 3770 
Q 1056 3291 1056 2328 
Q 1056 1369 1301 889 
Q 1547 409 2034 409 
Q 2525 409 2770 889 
Q 3016 1369 3016 2328 
Q 3016 3291 2770 3770 
Q 2525 4250 2034 4250 
z
M 2034 4750 
Q 2819 4750 3233 4129 
Q 3647 3509 3647 2328 
Q 3647 1150 3233 529 
Q 2819 -91 2034 -91 
Q 1250 -91 836 529 
Q 422 1150 422 2328 
Q 422 3509 836 4129 
Q 1250 4750 2034 4750 
z
" transform="scale(0.015625)"/>
       </defs>
       <use xlink:href="#DejaVuSans-30"/>
      </g>
     </g>
    </g>
    <g id="xtick_2">
     <g id="line2d_2">
      <g>
       <use xlink:href="#m63ae54e926" x="138.77013" y="307.584" style="stroke: #000000; stroke-width: 0.8"/>
      </g>
     </g>
     <g id="text_2">
      <!-- 2000 -->
      <g transform="translate(126.04513 322.182437) scale(0.1 -0.1)">
       <defs>
        <path id="DejaVuSans-32" d="M 1228 531 
L 3431 531 
L 3431 0 
L 469 0 
L 469 531 
Q 828 903 1448 1529 
Q 2069 2156 2228 2338 
Q 2531 2678 2651 2914 
Q 2772 3150 2772 3378 
Q 2772 3750 2511 3984 
Q 2250 4219 1831 4219 
Q 1534 4219 1204 4116 
Q 875 4013 500 3803 
L 500 4441 
Q 881 4594 1212 4672 
Q 1544 4750 1819 4750 
Q 2544 4750 2975 4387 
Q 3406 4025 3406 3419 
Q 3406 3131 3298 2873 
Q 3191 2616 2906 2266 
Q 2828 2175 2409 1742 
Q 1991 1309 1228 531 
z
" transform="scale(0.015625)"/>
       </defs>
       <use xlink:href="#DejaVuSans-32"/>
       <use xlink:href="#DejaVuSans-30" x="63.623047"/>
       <use xlink:href="#DejaVuSans-30" x="127.246094"/>
       <use xlink:href="#DejaVuSans-30" x="190.869141"/>
      </g>
     </g>
    </g>
    <g id="xtick_3">
     <g id="line2d_3">
      <g>
       <use xlink:href="#m63ae54e926" x="203.707533" y="307.584" style="stroke: #000000; stroke-width: 0.8"/>
      </g>
     </g>
     <g id="text_3">
      <!-- 4000 -->
      <g transform="translate(190.982533 322.182437) scale(0.1 -0.1)">
       <defs>
        <path id="DejaVuSans-34" d="M 2419 4116 
L 825 1625 
L 2419 1625 
L 2419 4116 
z
M 2253 4666 
L 3047 4666 
L 3047 1625 
L 3713 1625 
L 3713 1100 
L 3047 1100 
L 3047 0 
L 2419 0 
L 2419 1100 
L 313 1100 
L 313 1709 
L 2253 4666 
z
" transform="scale(0.015625)"/>
       </defs>
       <use xlink:href="#DejaVuSans-34"/>
       <use xlink:href="#DejaVuSans-30" x="63.623047"/>
       <use xlink:href="#DejaVuSans-30" x="127.246094"/>
       <use xlink:href="#DejaVuSans-30" x="190.869141"/>
      </g>
     </g>
    </g>
    <g id="xtick_4">
     <g id="line2d_4">
      <g>
       <use xlink:href="#m63ae54e926" x="268.644936" y="307.584" style="stroke: #000000; stroke-width: 0.8"/>
      </g>
     </g>
     <g id="text_4">
      <!-- 6000 -->
      <g transform="translate(255.919936 322.182437) scale(0.1 -0.1)">
       <defs>
        <path id="DejaVuSans-36" d="M 2113 2584 
Q 1688 2584 1439 2293 
Q 1191 2003 1191 1497 
Q 1191 994 1439 701 
Q 1688 409 2113 409 
Q 2538 409 2786 701 
Q 3034 994 3034 1497 
Q 3034 2003 2786 2293 
Q 2538 2584 2113 2584 
z
M 3366 4563 
L 3366 3988 
Q 3128 4100 2886 4159 
Q 2644 4219 2406 4219 
Q 1781 4219 1451 3797 
Q 1122 3375 1075 2522 
Q 1259 2794 1537 2939 
Q 1816 3084 2150 3084 
Q 2853 3084 3261 2657 
Q 3669 2231 3669 1497 
Q 3669 778 3244 343 
Q 2819 -91 2113 -91 
Q 1303 -91 875 529 
Q 447 1150 447 2328 
Q 447 3434 972 4092 
Q 1497 4750 2381 4750 
Q 2619 4750 2861 4703 
Q 3103 4656 3366 4563 
z
" transform="scale(0.015625)"/>
       </defs>
       <use xlink:href="#DejaVuSans-36"/>
       <use xlink:href="#DejaVuSans-30" x="63.623047"/>
       <use xlink:href="#DejaVuSans-30" x="127.246094"/>
       <use xlink:href="#DejaVuSans-30" x="190.869141"/>
      </g>
     </g>
    </g>
    <g id="xtick_5">
     <g id="line2d_5">
      <g>
       <use xlink:href="#m63ae54e926" x="333.582339" y="307.584" style="stroke: #000000; stroke-width: 0.8"/>
      </g>
     </g>
     <g id="text_5">
      <!-- 8000 -->
      <g transform="translate(320.857339 322.182437) scale(0.1 -0.1)">
       <defs>
        <path id="DejaVuSans-38" d="M 2034 2216 
Q 1584 2216 1326 1975 
Q 1069 1734 1069 1313 
Q 1069 891 1326 650 
Q 1584 409 2034 409 
Q 2484 409 2743 651 
Q 3003 894 3003 1313 
Q 3003 1734 2745 1975 
Q 2488 2216 2034 2216 
z
M 1403 2484 
Q 997 2584 770 2862 
Q 544 3141 544 3541 
Q 544 4100 942 4425 
Q 1341 4750 2034 4750 
Q 2731 4750 3128 4425 
Q 3525 4100 3525 3541 
Q 3525 3141 3298 2862 
Q 3072 2584 2669 2484 
Q 3125 2378 3379 2068 
Q 3634 1759 3634 1313 
Q 3634 634 3220 271 
Q 2806 -91 2034 -91 
Q 1263 -91 848 271 
Q 434 634 434 1313 
Q 434 1759 690 2068 
Q 947 2378 1403 2484 
z
M 1172 3481 
Q 1172 3119 1398 2916 
Q 1625 2713 2034 2713 
Q 2441 2713 2670 2916 
Q 2900 3119 2900 3481 
Q 2900 3844 2670 4047 
Q 2441 4250 2034 4250 
Q 1625 4250 1398 4047 
Q 1172 3844 1172 3481 
z
" transform="scale(0.015625)"/>
       </defs>
       <use xlink:href="#DejaVuSans-38"/>
       <use xlink:href="#DejaVuSans-30" x="63.623047"/>
       <use xlink:href="#DejaVuSans-30" x="127.246094"/>
       <use xlink:href="#DejaVuSans-30" x="190.869141"/>
      </g>
     </g>
    </g>
    <g id="xtick_6">
     <g id="line2d_6">
      <g>
       <use xlink:href="#m63ae54e926" x="398.519741" y="307.584" style="stroke: #000000; stroke-width: 0.8"/>
      </g>
     </g>
     <g id="text_6">
      <!-- 10000 -->
      <g transform="translate(382.613491 322.182437) scale(0.1 -0.1)">
       <defs>
        <path id="DejaVuSans-31" d="M 794 531 
L 1825 531 
L 1825 4091 
L 703 3866 
L 703 4441 
L 1819 4666 
L 2450 4666 
L 2450 531 
L 3481 531 
L 3481 0 
L 794 0 
L 794 531 
z
" transform="scale(0.015625)"/>
       </defs>
       <use xlink:href="#DejaVuSans-31"/>
       <use xlink:href="#DejaVuSans-30" x="63.623047"/>
       <use xlink:href="#DejaVuSans-30" x="127.246094"/>
       <use xlink:href="#DejaVuSans-30" x="190.869141"/>
       <use xlink:href="#DejaVuSans-30" x="254.492188"/>
      </g>
     </g>
    </g>
   </g>
   <g id="matplotlib.axis_2">
    <g id="ytick_1">
     <g id="line2d_7">
      <defs>
       <path id="m37328c73e2" d="M 0 0 
L -3.5 0 
" style="stroke: #000000; stroke-width: 0.8"/>
      </defs>
      <g>
       <use xlink:href="#m37328c73e2" x="57.6" y="295.488" style="stroke: #000000; stroke-width: 0.8"/>
      </g>
     </g>
     <g id="text_7">
      <!-- −300 -->
      <g transform="translate(23.132812 299.287219) scale(0.1 -0.1)">
       <defs>
        <path id="DejaVuSans-2212" d="M 678 2272 
L 4684 2272 
L 4684 1741 
L 678 1741 
L 678 2272 
z
" transform="scale(0.015625)"/>
        <path id="DejaVuSans-33" d="M 2597 2516 
Q 3050 2419 3304 2112 
Q 3559 1806 3559 1356 
Q 3559 666 3084 287 
Q 2609 -91 1734 -91 
Q 1441 -91 1130 -33 
Q 819 25 488 141 
L 488 750 
Q 750 597 1062 519 
Q 1375 441 1716 441 
Q 2309 441 2620 675 
Q 2931 909 2931 1356 
Q 2931 1769 2642 2001 
Q 2353 2234 1838 2234 
L 1294 2234 
L 1294 2753 
L 1863 2753 
Q 2328 2753 2575 2939 
Q 2822 3125 2822 3475 
Q 2822 3834 2567 4026 
Q 2313 4219 1838 4219 
Q 1578 4219 1281 4162 
Q 984 4106 628 3988 
L 628 4550 
Q 988 4650 1302 4700 
Q 1616 4750 1894 4750 
Q 2613 4750 3031 4423 
Q 3450 4097 3450 3541 
Q 3450 3153 3228 2886 
Q 3006 2619 2597 2516 
z
" transform="scale(0.015625)"/>
       </defs>
       <use xlink:href="#DejaVuSans-2212"/>
       <use xlink:href="#DejaVuSans-33" x="83.789062"/>
       <use xlink:href="#DejaVuSans-30" x="147.412109"/>
       <use xlink:href="#DejaVuSans-30" x="211.035156"/>
      </g>
     </g>
    </g>
    <g id="ytick_2">
     <g id="line2d_8">
      <g>
       <use xlink:href="#m37328c73e2" x="57.6" y="261.831141" style="stroke: #000000; stroke-width: 0.8"/>
      </g>
     </g>
     <g id="text_8">
      <!-- −250 -->
      <g transform="translate(23.132812 265.63036) scale(0.1 -0.1)">
       <defs>
        <path id="DejaVuSans-35" d="M 691 4666 
L 3169 4666 
L 3169 4134 
L 1269 4134 
L 1269 2991 
Q 1406 3038 1543 3061 
Q 1681 3084 1819 3084 
Q 2600 3084 3056 2656 
Q 3513 2228 3513 1497 
Q 3513 744 3044 326 
Q 2575 -91 1722 -91 
Q 1428 -91 1123 -41 
Q 819 9 494 109 
L 494 744 
Q 775 591 1075 516 
Q 1375 441 1709 441 
Q 2250 441 2565 725 
Q 2881 1009 2881 1497 
Q 2881 1984 2565 2268 
Q 2250 2553 1709 2553 
Q 1456 2553 1204 2497 
Q 953 2441 691 2322 
L 691 4666 
z
" transform="scale(0.015625)"/>
       </defs>
       <use xlink:href="#DejaVuSans-2212"/>
       <use xlink:href="#DejaVuSans-32" x="83.789062"/>
       <use xlink:href="#DejaVuSans-35" x="147.412109"/>
       <use xlink:href="#DejaVuSans-30" x="211.035156"/>
      </g>
     </g>
    </g>
    <g id="ytick_3">
     <g id="line2d_9">
      <g>
       <use xlink:href="#m37328c73e2" x="57.6" y="228.174282" style="stroke: #000000; stroke-width: 0.8"/>
      </g>
     </g>
     <g id="text_9">
      <!-- −200 -->
      <g transform="translate(23.132812 231.973501) scale(0.1 -0.1)">
       <use xlink:href="#DejaVuSans-2212"/>
       <use xlink:href="#DejaVuSans-32" x="83.789062"/>
       <use xlink:href="#DejaVuSans-30" x="147.412109"/>
       <use xlink:href="#DejaVuSans-30" x="211.035156"/>
      </g>
     </g>
    </g>
    <g id="ytick_4">
     <g id="line2d_10">
      <g>
       <use xlink:href="#m37328c73e2" x="57.6" y="194.517423" style="stroke: #000000; stroke-width: 0.8"/>
      </g>
     </g>
     <g id="text_10">
      <!-- −150 -->
      <g transform="translate(23.132812 198.316642) scale(0.1 -0.1)">
       <use xlink:href="#DejaVuSans-2212"/>
       <use xlink:href="#DejaVuSans-31" x="83.789062"/>
       <use xlink:href="#DejaVuSans-35" x="147.412109"/>
       <use xlink:href="#DejaVuSans-30" x="211.035156"/>
      </g>
     </g>
    </g>
    <g id="ytick_5">
     <g id="line2d_11">
      <g>
       <use xlink:href="#m37328c73e2" x="57.6" y="160.860565" style="stroke: #000000; stroke-width: 0.8"/>
      </g>
     </g>
     <g id="text_11">
      <!-- −100 -->
      <g transform="translate(23.132812 164.659783) scale(0.1 -0.1)">
       <use xlink:href="#DejaVuSans-2212"/>
       <use xlink:href="#DejaVuSans-31" x="83.789062"/>
       <use xlink:href="#DejaVuSans-30" x="147.412109"/>
       <use xlink:href="#DejaVuSans-30" x="211.035156"/>
      </g>
     </g>
    </g>
    <g id="ytick_6">
     <g id="line2d_12">
      <g>
       <use xlink:href="#m37328c73e2" x="57.6" y="127.203706" style="stroke: #000000; stroke-width: 0.8"/>
      </g>
     </g>
     <g id="text_12">
      <!-- −50 -->
      <g transform="translate(29.495313 131.002924) scale(0.1 -0.1)">
       <use xlink:href="#DejaVuSans-2212"/>
       <use xlink:href="#DejaVuSans-35" x="83.789062"/>
       <use xlink:href="#DejaVuSans-30" x="147.412109"/>
      </g>
     </g>
    </g>
    <g id="ytick_7">
     <g id="line2d_13">
      <g>
       <use xlink:href="#m37328c73e2" x="57.6" y="93.546847" style="stroke: #000000; stroke-width: 0.8"/>
      </g>
     </g>
     <g id="text_13">
      <!-- 0 -->
      <g transform="translate(44.2375 97.346066) scale(0.1 -0.1)">
       <use xlink:href="#DejaVuSans-30"/>
      </g>
     </g>
    </g>
    <g id="ytick_8">
     <g id="line2d_14">
      <g>
       <use xlink:href="#m37328c73e2" x="57.6" y="59.889988" style="stroke: #000000; stroke-width: 0.8"/>
      </g>
     </g>
     <g id="text_14">
      <!-- 50 -->
      <g transform="translate(37.875 63.689207) scale(0.1 -0.1)">
       <use xlink:href="#DejaVuSans-35"/>
       <use xlink:href="#DejaVuSans-30" x="63.623047"/>
      </g>
     </g>
    </g>
   </g>
   <g id="line2d_15">
    <path d="M 73.832727 87.698145 
L 73.865196 295.488 
L 73.897665 60.23356 
L 73.930133 92.311839 
L 73.962602 88.665095 
L 73.995071 61.329957 
L 74.060008 92.915177 
L 74.124946 88.382536 
L 74.157414 295.488 
L 74.222352 92.731082 
L 74.25482 95.229357 
L 74.287289 71.120908 
L 74.352226 72.909057 
L 74.384695 92.834984 
L 74.417164 295.488 
L 74.449633 87.099439 
L 74.482101 92.915177 
L 74.51457 92.647681 
L 74.547039 92.915177 
L 74.611976 67.868049 
L 74.676914 295.488 
L 74.709382 64.509744 
L 74.806788 92.834984 
L 74.839257 76.420304 
L 74.904194 88.89877 
L 75.001601 295.488 
L 75.034069 75.394321 
L 75.131475 77.852933 
L 75.163944 87.974883 
L 75.196413 73.054689 
L 75.228881 64.129887 
L 75.26135 69.502331 
L 75.293819 295.488 
L 75.358756 91.923258 
L 75.423694 76.898057 
L 75.456162 91.923258 
L 75.488631 88.89877 
L 75.5211 66.418105 
L 75.553568 92.915177 
L 75.618506 295.488 
L 75.650975 92.834984 
L 75.683443 68.641552 
L 75.748381 295.488 
L 75.780849 85.438398 
L 75.813318 94.499966 
L 75.845787 73.71973 
L 75.878255 295.488 
L 75.943193 94.208535 
L 76.105536 65.769298 
L 76.138005 92.834984 
L 76.202942 92.22966 
L 76.235411 77.408131 
L 76.332817 295.488 
L 76.365286 67.201903 
L 76.462692 88.89877 
L 76.495161 86.507773 
L 76.527629 295.488 
L 76.560098 69.012599 
L 76.592567 91.923258 
L 76.625036 91.228268 
L 76.657504 95.149284 
L 76.689973 295.488 
L 76.75491 88.665095 
L 76.787379 91.923258 
L 76.819848 89.497831 
L 76.852317 295.488 
L 76.917254 68.178601 
L 76.949723 90.717379 
L 77.01466 73.054689 
L 77.079597 295.488 
L 77.112066 92.834984 
L 77.177004 92.915177 
L 77.209472 75.781502 
L 77.339347 92.834984 
L 77.371816 86.507773 
L 77.469222 82.217044 
L 77.501691 295.488 
L 77.631565 53.568 
L 77.76144 96.346751 
L 77.793909 88.613766 
L 77.923784 295.488 
L 77.956252 295.488 
L 78.053658 67.983038 
L 78.086127 84.822962 
L 78.118596 95.454868 
L 78.151065 72.608915 
L 78.183533 53.570989 
L 78.248471 67.347046 
L 78.345877 104.270881 
L 78.410814 138.673672 
L 78.475752 75.259044 
L 78.540689 91.081683 
L 78.605626 86.869627 
L 78.638095 68.905468 
L 78.703032 90.785253 
L 78.76797 77.303977 
L 78.800439 87.277558 
L 78.832907 60.797301 
L 78.897845 89.164546 
L 78.930313 68.666041 
L 78.962782 66.358701 
L 78.995251 71.314035 
L 79.060188 74.68548 
L 79.092657 66.358701 
L 79.190063 66.379106 
L 79.222532 74.747523 
L 79.287469 66.358701 
L 79.319938 67.155033 
L 79.352407 92.825861 
L 79.384875 67.125982 
L 79.449813 82.758034 
L 79.482281 66.358701 
L 79.547219 89.243609 
L 79.579687 105.142465 
L 79.612156 77.013388 
L 79.644625 88.599855 
L 79.742031 76.506996 
L 79.7745 103.986129 
L 79.839437 77.013388 
L 79.871906 295.488 
L 79.936843 93.764069 
L 79.969312 77.649562 
L 80.001781 90.561415 
L 80.099187 295.488 
L 80.196593 78.903313 
L 80.229061 295.488 
L 80.293999 95.229357 
L 80.326468 80.02213 
L 80.391405 95.229357 
L 80.423874 295.488 
L 80.488811 96.476324 
L 80.586217 77.359611 
L 80.683623 95.229357 
L 80.748561 77.808498 
L 80.781029 295.488 
L 80.845967 83.971683 
L 80.878435 95.229357 
L 80.943373 295.488 
L 80.975842 95.229357 
L 81.040779 95.229357 
L 81.138185 80.76244 
L 81.26806 95.229357 
L 81.332997 295.488 
L 81.365466 95.229357 
L 81.430403 95.229357 
L 81.560278 295.488 
L 81.657684 95.229357 
L 81.690153 295.488 
L 81.75509 100.670257 
L 81.852497 92.004077 
L 81.884965 95.229357 
L 81.982371 295.488 
L 82.112246 95.229357 
L 82.209652 94.289208 
L 82.242121 295.488 
L 82.371996 94.289208 
L 82.469402 95.229357 
L 82.501871 295.488 
L 82.566808 95.229357 
L 82.599277 94.289208 
L 82.631745 95.229357 
L 82.696683 93.629614 
L 82.729151 295.488 
L 82.794089 92.915177 
L 82.859026 95.229357 
L 82.891495 295.488 
L 82.923964 92.004077 
L 82.956432 93.780329 
L 82.988901 92.004077 
L 83.02137 94.289208 
L 83.053838 95.535748 
L 83.118776 91.389474 
L 83.151245 295.488 
L 83.281119 92.311839 
L 83.313588 95.229357 
L 83.346057 295.488 
L 83.378525 94.289208 
L 83.410994 95.229357 
L 83.443463 93.629614 
L 83.5084 295.488 
L 83.540869 93.629614 
L 83.573338 94.289208 
L 83.605806 295.488 
L 83.638275 92.915177 
L 83.670744 94.289208 
L 83.703213 92.004077 
L 83.735681 295.488 
L 83.800619 91.735284 
L 83.833087 92.915177 
L 83.898025 92.311839 
L 83.995431 295.488 
L 84.125306 92.915177 
L 84.222712 90.302102 
L 84.320118 295.488 
L 84.352587 88.445131 
L 84.417524 295.488 
L 84.449993 295.488 
L 84.547399 91.18408 
L 84.579867 92.915177 
L 84.612336 90.152548 
L 84.644805 92.004077 
L 84.742211 89.669868 
L 84.77468 295.488 
L 84.807148 295.488 
L 84.872086 91.735284 
L 84.937023 92.915177 
L 85.001961 92.915177 
L 85.034429 295.488 
L 85.066898 92.311839 
L 85.099367 92.915177 
L 85.131835 93.292726 
L 85.196773 91.18408 
L 85.229241 295.488 
L 85.359116 90.247721 
L 85.391585 92.915177 
L 85.456522 89.207819 
L 85.488991 91.18408 
L 85.618866 295.488 
L 85.683803 89.669868 
L 85.748741 92.212589 
L 85.781209 88.920953 
L 85.846147 92.739679 
L 85.878615 92.311839 
L 85.943553 295.488 
L 85.976022 91.18408 
L 86.00849 92.915177 
L 86.040959 91.735284 
L 86.073428 90.152548 
L 86.105896 92.311839 
L 86.138365 295.488 
L 86.170834 91.18408 
L 86.203303 92.311839 
L 86.235771 92.311839 
L 86.26824 92.915177 
L 86.300709 92.311839 
L 86.333177 88.765429 
L 86.398115 91.735284 
L 86.52799 295.488 
L 86.560458 72.674478 
L 86.657864 90.152548 
L 86.690333 92.311839 
L 86.722802 87.175242 
L 86.75527 91.18408 
L 86.852677 88.152168 
L 86.885145 295.488 
L 86.917614 89.207819 
L 86.982551 92.915177 
L 87.047489 295.488 
L 87.079957 86.165925 
L 87.112426 92.311839 
L 87.144895 89.207819 
L 87.242301 91.18408 
L 87.27477 58.332312 
L 87.339707 66.630606 
L 87.372176 61.279929 
L 87.437113 57.147304 
L 87.469582 58.917022 
L 87.502051 60.272437 
L 87.534519 80.928438 
L 87.599457 70.877437 
L 87.631925 70.338443 
L 87.664394 70.920072 
L 87.826738 82.782638 
L 88.183893 82.782638 
L 88.216362 82.159366 
L 88.281299 89.879236 
L 88.346237 87.759502 
L 88.378706 89.879236 
L 88.443643 87.759502 
L 88.476112 87.759502 
L 88.605986 89.879236 
L 88.638455 87.759502 
L 88.703393 89.879236 
L 88.735861 89.879236 
L 88.800799 87.759502 
L 88.833267 89.879236 
L 88.865736 89.879236 
L 88.963142 87.759502 
L 88.995611 89.879236 
L 89.060548 87.759502 
L 89.093017 87.759502 
L 89.222892 89.879236 
L 89.320298 87.759502 
L 89.417704 89.879236 
L 89.547579 87.759502 
L 89.677454 89.879236 
L 89.709922 89.879236 
L 89.807328 87.759502 
L 89.839797 89.879236 
L 89.904734 87.759502 
L 89.969672 80.432981 
L 90.034609 81.067567 
L 90.132015 89.181403 
L 90.164484 87.572909 
L 90.196953 71.763042 
L 90.229421 80.353986 
L 90.26189 111.964553 
L 90.326828 97.109755 
L 90.391765 90.831879 
L 90.489171 62.90954 
L 90.586577 92.872568 
L 90.619046 82.767733 
L 90.651515 80.990989 
L 90.683983 85.736077 
L 90.716452 81.334634 
L 90.748921 60.218674 
L 90.813858 79.848884 
L 90.846327 76.043037 
L 90.878796 80.383032 
L 90.911264 87.143713 
L 90.943733 81.830872 
L 91.041139 60.344778 
L 91.00867 84.549129 
L 91.073608 64.534343 
L 91.171014 78.413243 
L 91.203483 77.25821 
L 91.26842 74.764294 
L 91.300889 76.71646 
L 91.333357 77.823431 
L 91.365826 76.619215 
L 91.463232 75.699267 
L 91.495701 76.197137 
L 91.560638 75.699267 
L 91.593107 77.823431 
L 91.722982 73.796934 
L 91.658044 77.921987 
L 91.75545 74.764294 
L 91.787919 77.823431 
L 91.852857 75.221937 
L 92.047669 78.413243 
L 92.112606 73.501743 
L 92.177544 75.699267 
L 92.210012 77.823431 
L 92.27495 76.197137 
L 92.307418 75.699267 
L 92.404824 73.796934 
L 92.437293 81.043761 
L 92.567168 74.764294 
L 92.697043 77.25821 
L 92.794449 75.699267 
L 92.859386 77.25821 
L 92.924324 76.71646 
L 92.989261 77.823431 
L 93.02173 73.115339 
L 93.086667 76.71646 
L 93.119136 77.25821 
L 93.151605 76.71646 
L 93.184073 74.764294 
L 93.216542 75.221937 
L 93.249011 77.823431 
L 93.313948 74.32554 
L 93.378886 76.197137 
L 93.411354 75.699267 
L 93.443823 73.904924 
L 93.476292 76.71646 
L 93.50876 76.197137 
L 93.541229 77.823431 
L 93.573698 75.221937 
L 93.606166 76.197137 
L 93.638635 76.197137 
L 93.671104 77.25821 
L 93.703573 75.221937 
L 93.736041 76.197137 
L 93.833447 76.197137 
L 93.865916 75.221937 
L 93.930853 75.699267 
L 93.963322 76.71646 
L 93.995791 75.221937 
L 94.02826 73.501743 
L 94.093197 73.904924 
L 94.223072 75.699267 
L 94.385415 70.832547 
L 94.417884 70.832547 
L 94.450353 71.41451 
L 94.612696 87.953854 
L 94.872446 87.953854 
L 94.904914 86.437472 
L 94.969852 87.953854 
L 95.197133 87.953854 
L 95.229602 86.437472 
L 95.294539 87.953854 
L 95.749101 87.953854 
L 95.781569 86.437472 
L 95.846507 87.953854 
L 96.820568 87.953854 
L 96.853037 80.11558 
L 96.917974 87.953854 
L 97.307598 87.953854 
L 97.437473 80.11558 
L 97.567348 87.953854 
L 99.710282 87.953854 
L 99.742751 80.11558 
L 99.807688 87.953854 
L 100.002501 87.953854 
L 100.099907 60.393358 
L 100.132375 80.487329 
L 100.197313 86.51908 
L 100.229782 82.937403 
L 100.26225 81.901641 
L 100.294719 87.445137 
L 100.392125 86.349595 
L 100.781749 86.349595 
L 100.911624 108.179274 
L 100.976562 92.915177 
L 101.00903 100.358621 
L 101.041499 100.999265 
L 101.171374 89.207819 
L 101.26878 295.488 
L 101.333717 89.669868 
L 101.398655 91.735284 
L 101.431123 92.311839 
L 101.496061 295.488 
L 101.52853 89.669868 
L 101.560998 92.915177 
L 101.658404 295.488 
L 101.690873 87.936062 
L 101.75581 92.311839 
L 101.820748 90.656909 
L 101.885685 295.488 
L 101.950623 92.311839 
L 101.983091 295.488 
L 102.01556 295.488 
L 102.145435 88.765429 
L 102.210372 295.488 
L 102.242841 92.915177 
L 102.27531 91.18408 
L 102.372716 91.735284 
L 102.470122 295.488 
L 102.567528 86.818732 
L 102.599997 90.152548 
L 102.632465 92.915177 
L 102.697403 295.488 
L 102.729872 92.311839 
L 102.794809 88.765429 
L 102.827278 90.656909 
L 102.859746 92.311839 
L 102.892215 88.341791 
L 102.924684 90.152548 
L 102.957152 295.488 
L 103.02209 88.341791 
L 103.054559 90.656909 
L 103.087027 89.669868 
L 103.216902 295.488 
L 103.249371 92.915177 
L 103.314308 295.488 
L 103.346777 295.488 
L 103.379246 90.656909 
L 103.476652 91.18408 
L 103.50912 295.488 
L 103.574058 85.250678 
L 103.606526 84.462923 
L 103.671464 91.18408 
L 103.736401 87.936062 
L 103.76887 92.311839 
L 103.866276 91.18408 
L 103.898745 87.175242 
L 103.931213 91.735284 
L 103.963682 295.488 
L 103.996151 90.152548 
L 104.02862 92.311839 
L 104.158494 92.915177 
L 104.190963 87.547457 
L 104.2559 91.735284 
L 104.288369 90.656909 
L 104.320838 92.311839 
L 104.353307 92.311839 
L 104.385775 91.735284 
L 104.418244 92.311839 
L 104.450713 92.915177 
L 104.483181 91.18408 
L 104.51565 295.488 
L 104.548119 88.765429 
L 104.580588 92.311839 
L 104.613056 92.311839 
L 104.677994 92.915177 
L 104.710462 90.656909 
L 104.742931 92.915177 
L 104.807868 295.488 
L 104.840337 91.18408 
L 104.872806 92.311839 
L 104.937743 89.207819 
L 104.970212 295.488 
L 105.067618 87.347998 
L 105.100087 92.311839 
L 105.132555 92.915177 
L 105.165024 90.802268 
L 105.229962 295.488 
L 105.26243 92.915177 
L 105.294899 83.532654 
L 105.327368 87.134346 
L 105.359836 295.488 
L 105.424774 86.592607 
L 105.52218 92.004077 
L 105.587117 88.50205 
L 105.652055 295.488 
L 105.684523 295.488 
L 105.716992 89.084142 
L 105.814398 90.517557 
L 105.879336 86.365277 
L 105.911804 295.488 
L 106.041679 80.319945 
L 106.139085 92.004077 
L 106.171554 86.365277 
L 106.26896 295.488 
L 106.366366 81.451417 
L 106.398835 92.004077 
L 106.52871 87.700938 
L 106.561178 90.517557 
L 106.593647 81.451417 
L 106.658584 89.084142 
L 106.691053 90.517557 
L 106.723522 295.488 
L 106.755991 82.619797 
L 106.788459 87.700938 
L 106.820928 81.451417 
L 106.853397 295.488 
L 106.918334 90.517557 
L 106.983271 92.004077 
L 107.080678 85.074691 
L 107.113146 295.488 
L 107.178084 81.451417 
L 107.210552 90.517557 
L 107.307958 295.488 
L 107.340427 86.365277 
L 107.405365 87.700938 
L 107.437833 295.488 
L 107.502771 92.004077 
L 107.567708 89.084142 
L 107.600177 90.517557 
L 107.665114 92.004077 
L 107.697583 85.074691 
L 107.730052 92.004077 
L 107.76252 295.488 
L 107.794989 89.084142 
L 107.827458 92.004077 
L 107.924864 81.451417 
L 107.957332 89.084142 
L 108.02227 92.004077 
L 108.054739 87.700938 
L 108.119676 89.084142 
L 108.217082 92.004077 
L 108.346957 83.304088 
L 108.411894 77.130675 
L 108.476832 295.488 
L 108.574238 80.319945 
L 108.606706 88.50205 
L 108.671644 86.365277 
L 108.704113 295.488 
L 108.76905 82.80393 
L 108.801519 92.004077 
L 108.833987 295.488 
L 108.898925 80.955748 
L 108.931394 86.365277 
L 109.0288 295.488 
L 109.158674 89.084142 
L 109.191143 91.389474 
L 109.288549 71.554002 
L 109.321018 89.084142 
L 109.353487 87.700938 
L 109.385955 295.488 
L 109.450893 86.365277 
L 109.51583 85.813715 
L 109.580768 92.004077 
L 109.613236 295.488 
L 109.678174 92.004077 
L 109.710642 89.084142 
L 109.77558 92.004077 
L 109.872986 86.592607 
L 109.905455 295.488 
L 110.035329 74.219396 
L 110.100267 89.084142 
L 110.132735 295.488 
L 110.197673 90.517557 
L 110.230142 91.389474 
L 110.295079 85.813715 
L 110.327548 295.488 
L 110.424954 90.517557 
L 110.457422 295.488 
L 110.489891 85.074691 
L 110.52236 89.084142 
L 110.554829 89.084142 
L 110.587297 89.91947 
L 110.619766 295.488 
L 110.652235 86.365277 
L 110.684703 91.389474 
L 110.749641 92.915177 
L 110.814578 92.004077 
L 110.847047 91.735284 
L 110.879516 295.488 
L 110.944453 87.700938 
L 110.976922 79.375403 
L 111.00939 87.945618 
L 111.041859 92.915177 
L 111.106796 92.004077 
L 111.139265 295.488 
L 111.204203 81.451417 
L 111.301609 91.389474 
L 111.366546 90.517557 
L 111.431484 89.91947 
L 111.463952 92.915177 
L 111.496421 90.517557 
L 111.52889 295.488 
L 111.593827 80.319945 
L 111.691233 90.517557 
L 111.723702 80.955748 
L 111.788639 295.488 
L 111.821108 91.389474 
L 111.853577 90.517557 
L 111.886045 92.004077 
L 111.918514 295.488 
L 111.983451 88.50205 
L 112.01592 89.084142 
L 112.145795 295.488 
L 112.210732 295.488 
L 112.243201 84.781625 
L 112.308138 88.50205 
L 112.405545 295.488 
L 112.502951 75.85044 
L 112.535419 88.50205 
L 112.600357 83.826902 
L 112.632825 295.488 
L 112.697763 89.084142 
L 112.7627 92.915177 
L 112.795169 295.488 
L 112.827638 92.004077 
L 112.860106 92.004077 
L 112.892575 92.004077 
L 112.957512 295.488 
L 112.989981 87.700938 
L 113.02245 87.700938 
L 113.054919 92.915177 
L 113.119856 85.578667 
L 113.184793 82.80393 
L 113.217262 295.488 
L 113.314668 82.612097 
L 113.347137 295.488 
L 113.412074 87.945618 
L 113.444543 90.802268 
L 113.477012 85.286238 
L 113.50948 90.517557 
L 113.639355 295.488 
L 113.76923 77.461201 
L 113.899105 92.004077 
L 114.061448 82.110745 
L 114.191323 295.488 
L 114.321198 84.781625 
L 114.386135 89.91947 
L 114.418604 295.488 
L 114.483541 90.517557 
L 114.51601 90.517557 
L 114.548479 295.488 
L 114.613416 92.004077 
L 114.645885 91.389474 
L 114.678354 295.488 
L 114.710822 90.517557 
L 114.743291 91.389474 
L 114.840697 92.004077 
L 114.873166 84.024091 
L 114.905635 91.389474 
L 114.970572 90.517557 
L 115.035509 295.488 
L 115.067978 84.024091 
L 115.165384 86.592607 
L 115.197853 86.365277 
L 115.230322 80.481434 
L 115.26279 90.517557 
L 115.327728 79.176799 
L 115.360196 295.488 
L 115.392665 86.365277 
L 115.490071 90.517557 
L 115.52254 87.134346 
L 115.587477 295.488 
L 115.619946 89.34789 
L 115.652415 92.915177 
L 115.684883 91.389474 
L 115.717352 83.532654 
L 115.78229 92.915177 
L 115.814758 295.488 
L 115.879696 87.134346 
L 115.912164 92.004077 
L 115.944633 90.517557 
L 115.977102 295.488 
L 116.042039 84.781625 
L 116.139445 92.004077 
L 116.106977 82.325312 
L 116.171914 90.517557 
L 116.204383 295.488 
L 116.26932 92.004077 
L 116.366726 87.945618 
L 116.496601 295.488 
L 116.561538 295.488 
L 116.626476 85.813715 
L 116.691413 87.700938 
L 116.756351 85.077358 
L 116.788819 92.311839 
L 116.853757 81.867203 
L 116.918694 295.488 
L 116.951163 82.110745 
L 117.048569 92.311839 
L 117.113506 87.134346 
L 117.178444 89.34789 
L 117.210912 89.084142 
L 117.27585 295.488 
L 117.308318 91.389474 
L 117.340787 86.365277 
L 117.405725 91.389474 
L 117.438193 89.91947 
L 117.470662 92.004077 
L 117.600537 295.488 
L 117.633005 295.488 
L 117.697943 85.074691 
L 117.730412 92.915177 
L 117.795349 92.004077 
L 117.827818 295.488 
L 117.892755 88.278731 
L 117.957692 92.004077 
L 117.990161 89.91947 
L 118.055099 295.488 
L 118.087567 89.084142 
L 118.120036 90.240982 
L 118.184973 86.592607 
L 118.314848 295.488 
L 118.347317 87.945618 
L 118.444723 92.004077 
L 118.50966 89.34789 
L 118.574598 295.488 
L 118.607067 88.50205 
L 118.672004 89.34789 
L 118.801879 295.488 
L 118.931754 84.537715 
L 118.964222 90.802268 
L 118.996691 295.488 
L 119.02916 76.258662 
L 119.061628 92.311839 
L 119.094097 78.933281 
L 119.159034 92.004077 
L 119.191503 91.389474 
L 119.223972 85.286238 
L 119.256441 88.50205 
L 119.288909 295.488 
L 119.353847 88.50205 
L 119.386315 89.91947 
L 119.51619 295.488 
L 119.548659 76.258662 
L 119.646065 92.915177 
L 119.678534 92.915177 
L 119.743471 86.074442 
L 119.77594 295.488 
L 119.840877 92.915177 
L 119.938283 89.91947 
L 119.970752 92.004077 
L 120.003221 295.488 
L 120.068158 89.91947 
L 120.100627 83.062324 
L 120.133095 295.488 
L 120.198033 92.311839 
L 120.230502 92.004077 
L 120.26297 84.781625 
L 120.295439 92.915177 
L 120.327908 89.084142 
L 120.360376 92.915177 
L 120.425314 91.735284 
L 120.457783 295.488 
L 120.555189 90.517557 
L 120.685063 295.488 
L 120.717532 295.488 
L 120.750001 80.955748 
L 120.847407 91.389474 
L 120.912344 92.311839 
L 120.977282 84.024091 
L 121.00975 92.915177 
L 121.074688 89.34789 
L 121.107157 79.592872 
L 121.172094 90.517557 
L 121.204563 92.004077 
L 121.237031 90.517557 
L 121.2695 77.873382 
L 121.301969 295.488 
L 121.366906 91.389474 
L 121.399375 82.612097 
L 121.431844 92.004077 
L 121.464312 89.91947 
L 121.496781 89.91947 
L 121.52925 92.004077 
L 121.561718 90.802268 
L 121.691593 295.488 
L 121.756531 86.592607 
L 121.821468 92.004077 
L 121.853937 85.286238 
L 121.918874 92.004077 
L 121.951343 89.34789 
L 122.048749 295.488 
L 122.113686 84.537715 
L 122.178624 89.084142 
L 122.27603 92.004077 
L 122.308498 295.488 
L 122.373436 89.91947 
L 122.405905 92.004077 
L 122.470842 87.700938 
L 122.503311 295.488 
L 122.535779 76.060641 
L 122.600717 295.488 
L 122.633186 295.488 
L 122.698123 82.181042 
L 122.730592 295.488 
L 122.76306 295.488 
L 122.795529 78.778419 
L 122.860466 81.623684 
L 122.990341 295.488 
L 123.055279 83.83655 
L 123.120216 91.389474 
L 123.152685 92.004077 
L 123.250091 85.074691 
L 123.28256 295.488 
L 123.347497 85.578667 
L 123.477372 92.915177 
L 123.574778 84.024091 
L 123.607247 295.488 
L 123.672184 87.700938 
L 123.737121 92.004077 
L 123.76959 295.488 
L 123.802059 89.084142 
L 123.834527 92.004077 
L 123.866996 89.084142 
L 123.964402 89.91947 
L 124.02934 92.004077 
L 124.094277 90.802268 
L 124.126746 295.488 
L 124.256621 86.592607 
L 124.354027 92.915177 
L 124.386495 92.004077 
L 124.418964 81.008738 
L 124.483901 92.915177 
L 124.51637 91.389474 
L 124.548839 295.488 
L 124.613776 91.389474 
L 124.678714 82.325312 
L 124.711182 92.311839 
L 124.743651 92.004077 
L 124.77612 92.915177 
L 124.808588 88.50205 
L 124.841057 295.488 
L 124.905995 92.915177 
L 124.938463 88.278731 
L 124.970932 90.517557 
L 125.003401 295.488 
L 125.068338 87.945618 
L 125.100807 92.004077 
L 125.133276 87.945618 
L 125.165744 84.537715 
L 125.198213 86.074442 
L 125.230682 89.91947 
L 125.26315 79.483499 
L 125.393025 295.488 
L 125.425494 295.488 
L 125.555369 81.157547 
L 125.587837 295.488 
L 125.652775 90.802268 
L 125.685243 92.004077 
L 125.78265 71.669067 
L 125.815118 90.517557 
L 125.912524 87.945618 
L 125.944993 295.488 
L 125.977462 87.134346 
L 126.00993 92.915177 
L 126.042399 89.34789 
L 126.139805 89.91947 
L 126.172274 92.004077 
L 126.204743 86.074442 
L 126.237211 91.18408 
L 126.26968 295.488 
L 126.334617 86.365277 
L 126.464492 92.915177 
L 126.496961 295.488 
L 126.561898 83.532654 
L 126.691773 92.915177 
L 126.756711 295.488 
L 126.789179 92.004077 
L 126.821648 92.004077 
L 126.919054 90.240982 
L 126.951523 92.004077 
L 126.983991 85.286238 
L 127.048929 295.488 
L 127.081398 92.915177 
L 127.178804 84.781625 
L 127.211272 92.004077 
L 127.308679 85.074691 
L 127.341147 92.915177 
L 127.373616 87.700938 
L 127.471022 295.488 
L 127.535959 85.286238 
L 127.600897 85.578667 
L 127.698303 92.915177 
L 127.730772 89.704254 
L 127.76324 86.365277 
L 127.795709 90.517557 
L 127.860646 89.91947 
L 127.893115 92.915177 
L 127.958053 88.80141 
L 127.990521 295.488 
L 128.055459 85.286238 
L 128.120396 92.915177 
L 128.152865 89.084142 
L 128.217802 295.488 
L 128.250271 89.704254 
L 128.315208 89.91947 
L 128.347677 92.004077 
L 128.380146 295.488 
L 128.445083 92.004077 
L 128.51002 92.004077 
L 128.542489 85.578667 
L 128.574958 92.004077 
L 128.607427 295.488 
L 128.639895 89.084142 
L 128.672364 92.004077 
L 128.704833 92.004077 
L 128.737301 86.365277 
L 128.802239 295.488 
L 128.834707 87.413504 
L 128.867176 87.700938 
L 128.899645 295.488 
L 128.964582 90.802268 
L 128.997051 92.004077 
L 129.02952 295.488 
L 129.094457 84.781625 
L 129.126926 91.389474 
L 129.191863 85.286238 
L 129.224332 80.955748 
L 129.354207 92.915177 
L 129.386675 79.176799 
L 129.451613 88.50205 
L 129.51655 88.278731 
L 129.549019 92.004077 
L 129.581488 88.50205 
L 129.646425 92.004077 
L 129.678894 92.004077 
L 129.743831 83.532654 
L 129.7763 92.004077 
L 129.841237 92.311839 
L 129.873706 90.517557 
L 129.906175 92.004077 
L 130.003581 74.727518 
L 130.068518 92.915177 
L 130.133456 90.240982 
L 130.165924 88.80141 
L 130.198393 295.488 
L 130.26333 90.240982 
L 130.295799 92.915177 
L 130.328268 89.91947 
L 130.360736 91.389474 
L 130.425674 295.488 
L 130.458143 92.004077 
L 130.490611 87.413504 
L 130.52308 295.488 
L 130.588017 91.389474 
L 130.620486 83.532654 
L 130.685423 86.592607 
L 130.815298 92.004077 
L 130.912704 86.074442 
L 130.945173 92.004077 
L 131.01011 90.802268 
L 131.042579 295.488 
L 131.139985 79.875149 
L 131.26986 295.488 
L 131.399735 85.286238 
L 131.52961 92.004077 
L 131.562078 92.915177 
L 131.627016 90.517557 
L 131.756891 295.488 
L 131.854297 83.532654 
L 131.951703 295.488 
L 132.01664 89.91947 
L 132.049109 295.488 
L 132.081578 295.488 
L 132.114046 84.781625 
L 132.211452 87.134346 
L 132.243921 92.004077 
L 132.27639 295.488 
L 132.341327 89.34789 
L 132.373796 92.004077 
L 132.438733 295.488 
L 132.471202 92.915177 
L 132.503671 91.389474 
L 132.568608 295.488 
L 132.601077 91.389474 
L 132.633546 90.517557 
L 132.666014 80.027457 
L 132.730952 92.311839 
L 132.76342 92.004077 
L 132.795889 295.488 
L 132.828358 90.517557 
L 132.860826 92.004077 
L 132.893295 86.365277 
L 132.925764 91.389474 
L 132.990701 88.50205 
L 133.055639 295.488 
L 133.088107 89.91947 
L 133.153045 295.488 
L 133.217982 295.488 
L 133.347857 83.83655 
L 133.412794 90.802268 
L 133.445263 85.951124 
L 133.5102 87.134346 
L 133.542669 295.488 
L 133.607607 86.417363 
L 133.640075 91.389474 
L 133.672544 295.488 
L 133.737481 90.240982 
L 133.802419 92.915177 
L 133.834887 91.389474 
L 133.964762 295.488 
L 134.0297 87.134346 
L 134.094637 92.004077 
L 134.192043 89.91947 
L 134.289449 92.915177 
L 134.386855 87.134346 
L 134.419324 90.802268 
L 134.451793 92.311839 
L 134.581668 295.488 
L 134.711542 80.027457 
L 134.744011 91.389474 
L 134.841417 90.802268 
L 134.873886 295.488 
L 134.906355 90.517557 
L 134.938823 92.311839 
L 135.003761 90.517557 
L 135.036229 92.004077 
L 135.068698 92.915177 
L 135.166104 88.278731 
L 135.198573 295.488 
L 135.26351 92.311839 
L 135.295979 91.389474 
L 135.328448 92.004077 
L 135.360916 92.915177 
L 135.393385 92.311839 
L 135.458323 92.004077 
L 135.490791 295.488 
L 135.555729 71.386349 
L 135.620666 88.80141 
L 135.653135 89.084142 
L 135.685603 86.904469 
L 135.718072 92.004077 
L 135.750541 87.134346 
L 135.78301 91.389474 
L 135.815478 295.488 
L 135.880416 79.375403 
L 136.01029 92.915177 
L 136.042759 86.417363 
L 136.075228 89.91947 
L 136.140165 295.488 
L 136.172634 86.592607 
L 136.205103 89.34789 
L 136.334977 295.488 
L 136.432384 88.50205 
L 136.562258 295.488 
L 136.692133 86.592607 
L 136.724602 89.34789 
L 136.757071 295.488 
L 136.822008 92.004077 
L 136.951883 79.375403 
L 136.984352 92.004077 
L 137.01682 295.488 
L 137.081758 87.700938 
L 137.211632 92.004077 
L 137.244101 87.700938 
L 137.27657 92.915177 
L 137.309039 89.91947 
L 137.406445 87.134346 
L 137.438913 295.488 
L 137.503851 295.488 
L 137.633726 90.240982 
L 137.698663 92.004077 
L 137.7636 83.062324 
L 137.796069 92.311839 
L 137.893475 90.802268 
L 137.925944 90.240982 
L 137.990881 82.80393 
L 138.055819 295.488 
L 138.088287 85.578667 
L 138.153225 88.80141 
L 138.185693 295.488 
L 138.250631 90.517557 
L 138.315568 92.004077 
L 138.412974 85.286238 
L 138.445443 92.311839 
L 138.542849 90.517557 
L 138.640255 89.91947 
L 138.672724 295.488 
L 138.77013 87.134346 
L 138.802599 90.802268 
L 138.835068 87.413504 
L 138.867536 88.50205 
L 138.997411 295.488 
L 139.062348 89.084142 
L 139.127286 92.915177 
L 139.159755 80.481434 
L 139.224692 92.915177 
L 139.257161 91.389474 
L 139.387035 295.488 
L 139.51691 82.80393 
L 139.549379 92.004077 
L 139.581848 295.488 
L 139.646785 89.084142 
L 139.679254 92.004077 
L 139.711722 295.488 
L 139.744191 90.802268 
L 139.77666 90.802268 
L 139.809129 92.915177 
L 139.841597 295.488 
L 139.906535 89.91947 
L 139.939003 88.50205 
L 139.971472 91.389474 
L 140.003941 92.004077 
L 140.036409 90.517557 
L 140.068878 85.578667 
L 140.101347 90.802268 
L 140.133816 295.488 
L 140.166284 86.365277 
L 140.198753 88.278731 
L 140.26369 83.304088 
L 140.296159 92.915177 
L 140.328628 83.394065 
L 140.393565 92.004077 
L 140.52344 85.578667 
L 140.555909 87.945618 
L 140.588377 91.389474 
L 140.620846 87.778649 
L 140.653315 89.084142 
L 140.685783 89.084142 
L 140.718252 88.80141 
L 140.78319 88.50205 
L 140.815658 295.488 
L 140.848127 87.134346 
L 140.913064 87.945618 
L 140.945533 295.488 
L 141.010471 89.91947 
L 141.042939 92.004077 
L 141.075408 295.488 
L 141.140345 87.700938 
L 141.172814 92.915177 
L 141.237751 89.34789 
L 141.335158 295.488 
L 141.465032 90.517557 
L 141.562438 92.915177 
L 141.594907 82.325312 
L 141.724782 295.488 
L 141.854657 92.004077 
L 141.887125 89.34789 
L 141.919594 89.91947 
L 142.017 295.488 
L 142.081938 89.34789 
L 142.146875 92.004077 
L 142.179344 90.517557 
L 142.27675 88.699524 
L 142.309219 295.488 
L 142.439093 90.517557 
L 142.471562 92.004077 
L 142.601437 85.286238 
L 142.666374 90.517557 
L 142.76378 295.488 
L 142.893655 82.970386 
L 142.958593 92.004077 
L 142.991061 77.873382 
L 143.055999 92.004077 
L 143.153405 87.413504 
L 143.185873 295.488 
L 143.218342 87.134346 
L 143.250811 90.517557 
L 143.28328 88.50205 
L 143.315748 295.488 
L 143.380686 88.50205 
L 143.445623 91.389474 
L 143.510561 86.592607 
L 143.543029 89.084142 
L 143.640435 295.488 
L 143.737841 87.945618 
L 143.77031 90.240982 
L 143.835248 89.084142 
L 143.867716 295.488 
L 143.932654 85.286238 
L 143.965122 92.004077 
L 144.062528 295.488 
L 144.094997 86.592607 
L 144.192403 90.517557 
L 144.224872 84.537715 
L 144.289809 295.488 
L 144.322278 92.004077 
L 144.354747 89.34789 
L 144.387215 92.004077 
L 144.484622 91.389474 
L 144.51709 295.488 
L 144.582028 295.488 
L 144.679434 87.945618 
L 144.711902 92.004077 
L 144.77684 86.904469 
L 144.809309 92.004077 
L 144.906715 92.915177 
L 144.939183 87.945618 
L 145.036589 295.488 
L 145.069058 90.517557 
L 145.133996 92.915177 
L 145.166464 295.488 
L 145.231402 89.91947 
L 145.26387 92.915177 
L 145.361276 92.004077 
L 145.393745 295.488 
L 145.426214 295.488 
L 145.52362 84.649977 
L 145.556089 92.004077 
L 145.588557 85.286238 
L 145.621026 89.91947 
L 145.718432 295.488 
L 145.78337 85.286238 
L 145.848307 90.517557 
L 145.880776 86.592607 
L 145.945713 88.80141 
L 146.075588 295.488 
L 146.108057 86.074442 
L 146.205463 91.389474 
L 146.237931 92.915177 
L 146.2704 92.311839 
L 146.335338 91.389474 
L 146.400275 295.488 
L 146.432744 295.488 
L 146.53015 89.084142 
L 146.562618 92.915177 
L 146.660025 84.537715 
L 146.724962 92.915177 
L 146.789899 91.389474 
L 146.854837 90.517557 
L 146.919774 92.915177 
L 147.01718 90.240982 
L 147.049649 92.004077 
L 147.082118 92.004077 
L 147.114586 89.91947 
L 147.211992 90.517557 
L 147.27693 92.311839 
L 147.374336 90.517557 
L 147.406805 295.488 
L 147.536679 89.91947 
L 147.569148 295.488 
L 147.601617 81.428642 
L 147.634086 92.004077 
L 147.666554 92.915177 
L 147.699023 295.488 
L 147.731492 82.110745 
L 147.76396 89.91947 
L 147.796429 89.084142 
L 147.828898 89.34789 
L 147.958773 92.915177 
L 148.056179 82.181042 
L 148.088647 295.488 
L 148.218522 84.215099 
L 148.28346 92.915177 
L 148.315928 82.110745 
L 148.445803 295.488 
L 148.510741 87.945618 
L 148.575678 92.004077 
L 148.673084 84.298745 
L 148.738021 295.488 
L 148.77049 90.802268 
L 148.802959 85.504761 
L 148.835428 295.488 
L 148.900365 90.656909 
L 148.932834 88.50205 
L 149.062708 295.488 
L 149.192583 86.365277 
L 149.225052 295.488 
L 149.289989 90.240982 
L 149.322458 91.389474 
L 149.354927 81.008738 
L 149.387395 86.592607 
L 149.419864 295.488 
L 149.484802 85.286238 
L 149.51727 84.781625 
L 149.582208 295.488 
L 149.614676 82.612097 
L 149.647145 87.700938 
L 149.744551 83.304088 
L 149.77702 295.488 
L 149.906895 88.80141 
L 149.971832 80.606659 
L 150.036769 295.488 
L 150.101707 88.50205 
L 150.166644 92.004077 
L 150.231582 88.50205 
L 150.296519 295.488 
L 150.328988 90.802268 
L 150.361457 87.945618 
L 150.393925 91.389474 
L 150.426394 91.389474 
L 150.458863 89.91947 
L 150.5238 88.278731 
L 150.556269 295.488 
L 150.621206 75.459661 
L 150.653675 84.781625 
L 150.686144 295.488 
L 150.751081 92.004077 
L 150.78355 87.134346 
L 150.913424 295.488 
L 151.010831 295.488 
L 151.043299 88.50205 
L 151.140705 89.91947 
L 151.205643 92.915177 
L 151.303049 90.517557 
L 151.335518 295.488 
L 151.400455 87.700938 
L 151.432924 295.488 
L 151.53033 295.488 
L 151.562798 92.004077 
L 151.627736 92.915177 
L 151.692673 89.084142 
L 151.757611 295.488 
L 151.790079 91.389474 
L 151.887485 92.004077 
L 151.984892 92.311839 
L 152.01736 86.904469 
L 152.049829 295.488 
L 152.082298 83.532654 
L 152.114766 92.311839 
L 152.147235 92.004077 
L 152.212172 90.802268 
L 152.244641 295.488 
L 152.27711 85.578667 
L 152.374516 90.517557 
L 152.406985 87.134346 
L 152.439453 90.240982 
L 152.569328 295.488 
L 152.601797 87.700938 
L 152.699203 88.80141 
L 152.731672 87.945618 
L 152.76414 92.915177 
L 152.796609 295.488 
L 152.861547 85.286238 
L 152.894015 92.004077 
L 152.958953 84.537715 
L 152.991421 295.488 
L 153.02389 84.024091 
L 153.121296 84.537715 
L 153.186234 90.240982 
L 153.251171 295.488 
L 153.28364 92.004077 
L 153.381046 88.50205 
L 153.478452 92.004077 
L 153.510921 83.062324 
L 153.575858 92.004077 
L 153.608327 92.004077 
L 153.705733 91.389474 
L 153.738201 295.488 
L 153.77067 85.951124 
L 153.868076 92.004077 
L 153.933014 295.488 
L 153.965482 86.592607 
L 153.997951 81.867203 
L 154.03042 92.915177 
L 154.062888 91.389474 
L 154.127826 295.488 
L 154.160295 82.80393 
L 154.225232 92.004077 
L 154.257701 295.488 
L 154.290169 89.084142 
L 154.322638 89.084142 
L 154.355107 86.074442 
L 154.387575 91.735284 
L 154.420044 90.517557 
L 154.452513 92.915177 
L 154.484982 295.488 
L 154.51745 87.134346 
L 154.549919 90.802268 
L 154.582388 92.004077 
L 154.679794 83.83655 
L 154.712262 295.488 
L 154.744731 83.532654 
L 154.842137 91.389474 
L 154.939543 84.215099 
L 154.972012 295.488 
L 155.03695 92.915177 
L 155.069418 85.286238 
L 155.134356 92.004077 
L 155.166824 92.004077 
L 155.199293 295.488 
L 155.231762 90.517557 
L 155.26423 92.915177 
L 155.296699 79.483499 
L 155.361637 80.284166 
L 155.394105 295.488 
L 155.459043 92.915177 
L 155.491511 83.062324 
L 155.588917 295.488 
L 155.718792 85.578667 
L 155.78373 295.488 
L 155.816198 89.91947 
L 155.848667 89.704254 
L 155.881136 92.004077 
L 155.913604 295.488 
L 155.978542 84.537715 
L 156.173354 92.915177 
L 156.205823 89.91947 
L 156.238291 90.517557 
L 156.27076 295.488 
L 156.335698 92.004077 
L 156.433104 89.34789 
L 156.465572 92.915177 
L 156.498041 82.612097 
L 156.53051 83.826902 
L 156.595447 295.488 
L 156.627916 91.389474 
L 156.660385 88.50205 
L 156.692853 89.704254 
L 156.790259 295.488 
L 156.822728 89.34789 
L 156.920134 91.389474 
L 156.952603 92.004077 
L 156.985072 88.278731 
L 157.050009 89.084142 
L 157.114946 295.488 
L 157.147415 89.91947 
L 157.179884 91.389474 
L 157.212353 295.488 
L 157.27729 89.084142 
L 157.342227 92.915177 
L 157.407165 91.389474 
L 157.472102 295.488 
L 157.504571 295.488 
L 157.634446 86.592607 
L 157.666914 91.389474 
L 157.731852 85.578667 
L 157.76432 295.488 
L 157.829258 89.91947 
L 157.894195 92.311839 
L 157.926664 295.488 
L 157.959133 90.802268 
L 157.991601 92.004077 
L 158.089007 85.286238 
L 158.121476 87.778649 
L 158.186414 87.700938 
L 158.218882 295.488 
L 158.316288 92.004077 
L 158.348757 295.488 
L 158.413694 87.413504 
L 158.511101 91.389474 
L 158.543569 90.240982 
L 158.576038 89.084142 
L 158.608507 295.488 
L 158.640975 88.50205 
L 158.673444 92.004077 
L 158.705913 90.517557 
L 158.77085 92.004077 
L 158.803319 92.004077 
L 158.933194 82.110745 
L 159.0306 92.311839 
L 159.063068 91.389474 
L 159.095537 91.389474 
L 159.128006 90.517557 
L 159.225412 86.074442 
L 159.257881 295.488 
L 159.387756 88.50205 
L 159.420224 81.157547 
L 159.485162 85.104184 
L 159.51763 92.004077 
L 159.647505 295.488 
L 159.744911 86.365277 
L 159.874786 295.488 
L 159.939723 89.91947 
L 160.004661 90.517557 
L 160.069598 92.915177 
L 160.134536 91.389474 
L 160.199473 86.592607 
L 160.26441 92.915177 
L 160.296879 92.004077 
L 160.361817 295.488 
L 160.394285 92.004077 
L 160.459223 88.50205 
L 160.556629 86.417363 
L 160.589097 295.488 
L 160.686504 87.413504 
L 160.718972 91.389474 
L 160.78391 90.517557 
L 160.848847 295.488 
L 160.978722 85.104184 
L 161.108597 295.488 
L 161.141065 90.517557 
L 161.238471 92.004077 
L 161.335878 90.517557 
L 161.368346 295.488 
L 161.498221 87.134346 
L 161.53069 90.802268 
L 161.563158 295.488 
L 161.595627 89.34789 
L 161.628096 92.004077 
L 161.725502 84.024091 
L 161.822908 91.389474 
L 161.887846 90.517557 
L 161.952783 295.488 
L 161.985252 295.488 
L 162.01772 85.813715 
L 162.115126 88.80141 
L 162.180064 92.915177 
L 162.27747 83.304088 
L 162.407345 295.488 
L 162.53722 89.34789 
L 162.602157 295.488 
L 162.634626 89.91947 
L 162.732032 88.80141 
L 162.7645 89.91947 
L 162.796969 85.504761 
L 162.829438 90.517557 
L 162.861907 92.004077 
L 162.894375 87.700938 
L 162.959313 89.084142 
L 163.056719 87.945618 
L 163.089187 295.488 
L 163.121656 77.265499 
L 163.219062 92.004077 
L 163.316468 87.945618 
L 163.348937 89.34789 
L 163.381406 87.945618 
L 163.413874 91.389474 
L 163.446343 86.074442 
L 163.478812 87.945618 
L 163.511281 87.945618 
L 163.543749 90.517557 
L 163.576218 83.304088 
L 163.641155 86.904469 
L 163.803499 92.915177 
L 163.868436 83.83655 
L 163.900905 89.34789 
L 163.998311 295.488 
L 164.128186 81.157547 
L 164.193123 90.240982 
L 164.225592 295.488 
L 164.290529 87.134346 
L 164.322998 90.517557 
L 164.355467 79.176799 
L 164.387936 92.915177 
L 164.420404 89.91947 
L 164.452873 295.488 
L 164.51781 84.781625 
L 164.550279 92.915177 
L 164.582748 90.517557 
L 164.615216 295.488 
L 164.680154 82.325312 
L 164.712623 81.008738 
L 164.77756 295.488 
L 164.810029 92.004077 
L 164.842497 87.413504 
L 164.874966 295.488 
L 164.939903 92.004077 
L 165.004841 77.461201 
L 165.03731 91.389474 
L 165.069778 295.488 
L 165.102247 89.084142 
L 165.134716 89.34789 
L 165.167184 91.389474 
L 165.199653 295.488 
L 165.232122 87.700938 
L 165.26459 92.915177 
L 165.361997 89.91947 
L 165.394465 295.488 
L 165.459403 81.428642 
L 165.589277 92.004077 
L 165.621746 83.062324 
L 165.686684 92.915177 
L 165.719152 92.915177 
L 165.78409 90.517557 
L 165.816558 92.915177 
L 165.849027 295.488 
L 165.913964 89.91947 
L 165.946433 92.004077 
L 165.978902 89.084142 
L 166.011371 295.488 
L 166.076308 92.915177 
L 166.108777 91.389474 
L 166.173714 86.417363 
L 166.206183 295.488 
L 166.303589 74.077541 
L 166.336058 81.623684 
L 166.368526 91.735284 
L 166.400995 76.444878 
L 166.465932 91.389474 
L 166.498401 88.80141 
L 166.53087 295.488 
L 166.595807 88.50205 
L 166.628276 91.389474 
L 166.660745 90.240982 
L 166.693213 295.488 
L 166.758151 92.004077 
L 166.790619 90.517557 
L 166.823088 81.428642 
L 166.855557 92.004077 
L 166.920494 81.867203 
L 167.050369 295.488 
L 167.115306 295.488 
L 167.147775 85.286238 
L 167.212713 89.91947 
L 167.310119 295.488 
L 167.407525 85.104184 
L 167.439993 91.735284 
L 167.504931 92.915177 
L 167.569868 83.304088 
L 167.634806 88.50205 
L 167.667274 92.915177 
L 167.732212 91.389474 
L 167.829618 295.488 
L 167.894555 82.612097 
L 167.959493 89.34789 
L 168.056899 295.488 
L 168.121836 84.781625 
L 168.154305 295.488 
L 168.186774 295.488 
L 168.219242 91.389474 
L 168.316648 92.004077 
L 168.349117 88.50205 
L 168.381586 92.004077 
L 168.414054 295.488 
L 168.478992 86.365277 
L 168.576398 92.004077 
L 168.706273 295.488 
L 168.738742 295.488 
L 168.836148 88.80141 
L 168.868616 92.004077 
L 168.901085 92.915177 
L 168.933554 295.488 
L 168.998491 88.50205 
L 169.063429 91.389474 
L 169.095897 90.517557 
L 169.160835 88.50205 
L 169.290709 295.488 
L 169.355647 86.074442 
L 169.420584 91.389474 
L 169.453053 92.915177 
L 169.485522 85.104184 
L 169.550459 92.915177 
L 169.582928 88.50205 
L 169.712803 295.488 
L 169.77774 295.488 
L 169.842677 90.802268 
L 169.875146 92.915177 
L 169.972552 92.004077 
L 170.005021 295.488 
L 170.134896 78.396969 
L 170.199833 92.004077 
L 170.232302 91.389474 
L 170.26477 295.488 
L 170.329708 92.004077 
L 170.362177 87.945618 
L 170.394645 92.311839 
L 170.492051 90.802268 
L 170.52452 295.488 
L 170.589457 295.488 
L 170.654395 89.34789 
L 170.686864 92.004077 
L 170.719332 295.488 
L 170.78427 74.14013 
L 170.816738 84.781625 
L 170.946613 295.488 
L 171.044019 89.084142 
L 171.076488 90.802268 
L 171.108957 91.389474 
L 171.173894 80.711347 
L 171.238832 295.488 
L 171.2713 86.904469 
L 171.368706 92.915177 
L 171.433644 88.50205 
L 171.466112 92.311839 
L 171.498581 295.488 
L 171.53105 92.004077 
L 171.563519 92.004077 
L 171.595987 85.104184 
L 171.660925 91.389474 
L 171.693393 92.915177 
L 171.725862 90.517557 
L 171.758331 295.488 
L 171.790799 89.91947 
L 171.823268 89.91947 
L 171.888206 91.18408 
L 171.953143 85.813715 
L 171.985612 92.915177 
L 172.01808 295.488 
L 172.083018 90.517557 
L 172.115486 91.389474 
L 172.147955 85.578667 
L 172.180424 295.488 
L 172.245361 90.802268 
L 172.27783 92.915177 
L 172.310299 91.389474 
L 172.375236 295.488 
L 172.407705 92.004077 
L 172.440173 82.612097 
L 172.472642 295.488 
L 172.53758 91.389474 
L 172.570048 87.413504 
L 172.634986 92.004077 
L 172.667454 295.488 
L 172.699923 84.298745 
L 172.732392 91.389474 
L 172.76486 92.004077 
L 172.862267 81.428642 
L 172.894735 295.488 
L 172.992141 88.50205 
L 173.02461 295.488 
L 173.089548 89.34789 
L 173.154485 92.311839 
L 173.219422 92.004077 
L 173.316828 86.592607 
L 173.349297 295.488 
L 173.381766 82.325312 
L 173.479172 88.50205 
L 173.511641 85.286238 
L 173.576578 295.488 
L 173.609047 92.915177 
L 173.641515 90.802268 
L 173.673984 295.488 
L 173.738922 86.904469 
L 173.803859 92.915177 
L 173.836328 89.91947 
L 173.868796 87.700938 
L 173.933734 87.778649 
L 173.966202 92.915177 
L 173.998671 87.413504 
L 174.063609 92.004077 
L 174.128546 92.915177 
L 174.161015 89.34789 
L 174.258421 295.488 
L 174.355827 85.074691 
L 174.388296 92.915177 
L 174.420764 295.488 
L 174.485702 81.867203 
L 174.51817 87.700938 
L 174.550639 295.488 
L 174.615576 87.945618 
L 174.648045 92.004077 
L 174.712983 88.50205 
L 174.77792 295.488 
L 174.810389 86.365277 
L 174.907795 92.915177 
L 175.070138 83.532654 
L 175.102607 87.413504 
L 175.135076 295.488 
L 175.200013 90.517557 
L 175.26495 89.084142 
L 175.329888 79.483499 
L 175.362357 295.488 
L 175.427294 88.278731 
L 175.459763 80.284166 
L 175.492231 295.488 
L 175.557169 92.311839 
L 175.589638 87.700938 
L 175.719512 295.488 
L 175.78445 85.286238 
L 175.816918 89.91947 
L 175.914325 295.488 
L 175.979262 85.074691 
L 176.011731 92.004077 
L 176.044199 295.488 
L 176.109137 87.778649 
L 176.141605 89.34789 
L 176.206543 80.711347 
L 176.239012 295.488 
L 176.303949 91.389474 
L 176.336418 92.004077 
L 176.401355 90.517557 
L 176.466292 295.488 
L 176.53123 86.592607 
L 176.596167 92.915177 
L 176.628636 88.80141 
L 176.661105 295.488 
L 176.726042 92.004077 
L 176.758511 90.517557 
L 176.823448 90.802268 
L 176.888386 90.517557 
L 176.920854 92.915177 
L 176.953323 91.389474 
L 176.985792 81.373037 
L 177.050729 92.004077 
L 177.148135 295.488 
L 177.213073 89.084142 
L 177.27801 89.91947 
L 177.310479 92.004077 
L 177.375416 295.488 
L 177.407885 87.134346 
L 177.505291 91.389474 
L 177.53776 90.517557 
L 177.602697 295.488 
L 177.635166 91.18408 
L 177.667634 92.004077 
L 177.700103 295.488 
L 177.765041 72.263326 
L 177.862447 92.915177 
L 177.894915 86.365277 
L 177.927384 92.004077 
L 177.959853 295.488 
L 178.02479 88.50205 
L 178.089728 92.915177 
L 178.122196 87.945618 
L 178.154665 91.389474 
L 178.187134 87.413504 
L 178.219602 295.488 
L 178.252071 83.062324 
L 178.28454 89.91947 
L 178.349477 92.004077 
L 178.381946 295.488 
L 178.446883 91.735284 
L 178.479352 92.311839 
L 178.544289 92.004077 
L 178.576758 295.488 
L 178.641695 88.50205 
L 178.706633 92.004077 
L 178.77157 91.389474 
L 178.804039 295.488 
L 178.868976 89.91947 
L 178.933914 90.802268 
L 178.966382 295.488 
L 179.03132 83.83655 
L 179.096257 92.915177 
L 179.193663 89.91947 
L 179.226132 89.34789 
L 179.291069 295.488 
L 179.323538 92.004077 
L 179.356007 90.240982 
L 179.485882 295.488 
L 179.51835 86.074442 
L 179.615756 92.915177 
L 179.648225 84.781625 
L 179.680694 295.488 
L 179.713163 77.873382 
L 179.745631 92.004077 
L 179.7781 81.451417 
L 179.810569 92.915177 
L 179.843037 92.311839 
L 179.875506 92.004077 
L 179.940443 87.413504 
L 179.972912 88.50205 
L 180.005381 295.488 
L 180.03785 84.781625 
L 180.070318 92.004077 
L 180.102787 88.50205 
L 180.167724 83.83655 
L 180.200193 295.488 
L 180.297599 89.34789 
L 180.330068 295.488 
L 180.362537 86.592607 
L 180.395005 89.91947 
L 180.427474 92.311839 
L 180.459943 84.298745 
L 180.492411 92.915177 
L 180.52488 89.084142 
L 180.622286 92.915177 
L 180.589818 87.134346 
L 180.654755 92.004077 
L 180.687224 92.915177 
L 180.78463 77.345361 
L 180.882036 92.004077 
L 180.914505 87.945618 
L 180.979442 90.240982 
L 181.044379 89.91947 
L 181.141785 78.104808 
L 181.174254 295.488 
L 181.304129 88.278731 
L 181.336598 90.240982 
L 181.369066 77.265499 
L 181.498941 295.488 
L 181.53141 89.34789 
L 181.628816 91.389474 
L 181.726222 80.711347 
L 181.758691 86.074442 
L 181.856097 91.389474 
L 181.953503 295.488 
L 182.01844 83.304088 
L 182.083378 87.134346 
L 182.180784 295.488 
L 182.213253 83.79867 
L 182.27819 88.80141 
L 182.310659 295.488 
L 182.343127 82.619797 
L 182.375596 90.802268 
L 182.408065 92.004077 
L 182.473002 83.532654 
L 182.53794 295.488 
L 182.667814 86.074442 
L 182.700283 92.915177 
L 182.797689 87.700938 
L 182.830158 295.488 
L 182.862627 295.488 
L 182.895095 89.190823 
L 182.960033 89.91947 
L 183.02497 295.488 
L 183.057439 88.50205 
L 183.089908 92.915177 
L 183.187314 92.004077 
L 183.219782 295.488 
L 183.252251 295.488 
L 183.349657 92.004077 
L 183.447063 295.488 
L 183.576938 86.904469 
L 183.609407 92.915177 
L 183.674344 86.074442 
L 183.706813 89.34789 
L 183.739282 81.867203 
L 183.77175 84.781625 
L 183.804219 84.781625 
L 183.934094 295.488 
L 183.999031 86.365277 
L 184.0315 88.50205 
L 184.063969 295.488 
L 184.096437 79.483499 
L 184.128906 87.134346 
L 184.258781 92.004077 
L 184.323718 86.365277 
L 184.356187 90.517557 
L 184.388656 92.915177 
L 184.421124 90.517557 
L 184.486062 89.34789 
L 184.550999 295.488 
L 184.680874 86.074442 
L 184.713343 90.802268 
L 184.745811 90.240982 
L 184.77828 295.488 
L 184.843217 88.50205 
L 184.875686 92.004077 
L 184.908155 84.781625 
L 184.940624 90.517557 
L 184.973092 295.488 
L 185.03803 92.004077 
L 185.070498 89.34789 
L 185.200373 295.488 
L 185.330248 87.413504 
L 185.362717 75.003691 
L 185.395185 295.488 
L 185.460123 92.004077 
L 185.492591 92.915177 
L 185.52506 80.284166 
L 185.654935 295.488 
L 185.687404 83.304088 
L 185.78481 91.389474 
L 185.817278 91.389474 
L 185.849747 295.488 
L 185.882216 86.592607 
L 185.914685 92.311839 
L 185.947153 92.915177 
L 185.979622 86.592607 
L 186.012091 295.488 
L 186.077028 92.915177 
L 186.174434 85.074691 
L 186.206903 92.915177 
L 186.239372 87.700938 
L 186.27184 295.488 
L 186.336778 92.311839 
L 186.369246 92.311839 
L 186.401715 295.488 
L 186.434184 89.91947 
L 186.466652 92.004077 
L 186.499121 92.311839 
L 186.53159 86.365277 
L 186.661465 295.488 
L 186.693933 295.488 
L 186.823808 85.286238 
L 186.888746 92.311839 
L 186.921214 92.004077 
L 186.953683 87.945618 
L 187.01862 88.278731 
L 187.116027 92.004077 
L 187.148495 87.945618 
L 187.27837 295.488 
L 187.375776 82.80393 
L 187.408245 295.488 
L 187.473182 86.592607 
L 187.53812 91.735284 
L 187.603057 91.389474 
L 187.635526 295.488 
L 187.700463 81.157547 
L 187.732932 90.802268 
L 187.830338 84.781625 
L 187.862807 295.488 
L 187.960213 86.904469 
L 187.992681 92.915177 
L 188.090088 295.488 
L 188.187494 92.004077 
L 188.219962 295.488 
L 188.2849 88.50205 
L 188.317368 92.004077 
L 188.382306 90.517557 
L 188.414775 295.488 
L 188.447243 88.80141 
L 188.544649 92.915177 
L 188.609587 85.504761 
L 188.642055 91.389474 
L 188.77193 92.915177 
L 188.836868 80.711347 
L 188.869336 295.488 
L 188.901805 91.389474 
L 188.966742 295.488 
L 188.999211 295.488 
L 189.096617 81.867203 
L 189.129086 92.915177 
L 189.194023 90.802268 
L 189.29143 90.517557 
L 189.323898 295.488 
L 189.356367 295.488 
L 189.453773 83.062324 
L 189.551179 295.488 
L 189.681054 82.110745 
L 189.745991 92.311839 
L 189.77846 89.91947 
L 189.875866 295.488 
L 190.005741 87.134346 
L 190.070678 92.915177 
L 190.168084 90.802268 
L 190.200553 91.389474 
L 190.233022 89.704254 
L 190.297959 90.517557 
L 190.330428 90.517557 
L 190.362897 92.311839 
L 190.395365 89.91947 
L 190.427834 92.004077 
L 190.460303 295.488 
L 190.52524 89.34789 
L 190.557709 89.34789 
L 190.687584 295.488 
L 190.720052 295.488 
L 190.849927 85.286238 
L 190.914865 85.104184 
L 190.947333 92.004077 
L 191.012271 295.488 
L 191.044739 87.945618 
L 191.109677 92.915177 
L 191.174614 87.700938 
L 191.239552 295.488 
L 191.304489 87.700938 
L 191.369426 88.50205 
L 191.401895 295.488 
L 191.466833 87.134346 
L 191.499301 92.915177 
L 191.564239 295.488 
L 191.596707 89.91947 
L 191.629176 92.004077 
L 191.726582 86.904469 
L 191.759051 295.488 
L 191.79152 84.298745 
L 191.888926 90.517557 
L 191.921394 88.278731 
L 191.953863 92.004077 
L 191.986332 92.004077 
L 192.0188 85.286238 
L 192.051269 86.365277 
L 192.181144 295.488 
L 192.246081 295.488 
L 192.311019 85.286238 
L 192.375956 92.004077 
L 192.408425 295.488 
L 192.473362 84.781625 
L 192.505831 92.004077 
L 192.570768 88.50205 
L 192.603237 295.488 
L 192.700643 86.592607 
L 192.798049 295.488 
L 192.862987 90.517557 
L 192.895455 92.004077 
L 192.960393 86.417363 
L 193.02533 295.488 
L 193.090268 80.481434 
L 193.155205 90.802268 
L 193.220142 81.623684 
L 193.28508 295.488 
L 193.317548 295.488 
L 193.382486 85.578667 
L 193.447423 92.004077 
L 193.479892 92.915177 
L 193.512361 84.537715 
L 193.609767 87.945618 
L 193.739642 295.488 
L 193.77211 83.532654 
L 193.869516 92.915177 
L 193.966923 295.488 
L 193.999391 84.781625 
L 194.096797 85.286238 
L 194.161735 92.004077 
L 194.226672 89.91947 
L 194.259141 90.802268 
L 194.356547 88.50205 
L 194.389016 295.488 
L 194.421484 90.802268 
L 194.486422 92.004077 
L 194.583828 90.517557 
L 194.616297 295.488 
L 194.648765 73.139133 
L 194.746171 91.389474 
L 194.77864 92.915177 
L 194.876046 295.488 
L 195.005921 85.813715 
L 195.135796 92.915177 
L 195.168264 88.50205 
L 195.233202 90.240982 
L 195.265671 295.488 
L 195.330608 92.004077 
L 195.428014 88.50205 
L 195.460483 92.004077 
L 195.52542 90.240982 
L 195.557889 90.517557 
L 195.590358 295.488 
L 195.655295 92.915177 
L 195.720232 80.221632 
L 195.752701 295.488 
L 195.817638 92.004077 
L 195.850107 87.700938 
L 195.915045 91.389474 
L 195.947513 92.004077 
L 195.979982 90.656909 
L 196.012451 87.945618 
L 196.109857 86.592607 
L 196.142326 295.488 
L 196.239732 89.084142 
L 196.2722 91.389474 
L 196.304669 87.700938 
L 196.369606 295.488 
L 196.402075 85.813715 
L 196.53195 92.915177 
L 196.596887 295.488 
L 196.629356 92.915177 
L 196.694293 85.578667 
L 196.759231 295.488 
L 196.7917 92.915177 
L 196.824168 92.004077 
L 196.856637 92.915177 
L 196.889106 295.488 
L 196.921574 84.781625 
L 196.954043 91.389474 
L 196.986512 92.915177 
L 197.01898 79.852932 
L 197.083918 87.945618 
L 197.246261 92.004077 
L 197.27873 295.488 
L 197.343667 91.389474 
L 197.376136 92.004077 
L 197.473542 295.488 
L 197.506011 84.215099 
L 197.603417 92.004077 
L 197.635886 295.488 
L 197.700823 91.389474 
L 197.733292 92.311839 
L 197.765761 91.389474 
L 197.830698 295.488 
L 197.863167 92.004077 
L 197.895635 89.91947 
L 197.993041 89.34789 
L 198.02551 295.488 
L 198.090448 89.084142 
L 198.155385 90.802268 
L 198.187854 295.488 
L 198.220322 89.91947 
L 198.252791 92.004077 
L 198.28526 92.915177 
L 198.317729 295.488 
L 198.350197 82.612097 
L 198.382666 90.517557 
L 198.415135 90.240982 
L 198.447603 295.488 
L 198.480072 89.91947 
L 198.512541 91.389474 
L 198.577478 89.91947 
L 198.609947 80.221632 
L 198.642416 92.915177 
L 198.674884 295.488 
L 198.739822 89.91947 
L 198.804759 89.34789 
L 198.837228 92.004077 
L 198.869696 90.240982 
L 198.902165 81.373037 
L 198.934634 90.802268 
L 198.967103 295.488 
L 199.03204 82.619797 
L 199.064509 92.915177 
L 199.129446 83.304088 
L 199.194383 90.517557 
L 199.29179 295.488 
L 199.421664 85.813715 
L 199.551539 295.488 
L 199.648945 82.80393 
L 199.681414 89.91947 
L 199.713883 90.802268 
L 199.746351 85.813715 
L 199.77882 89.91947 
L 199.811289 92.915177 
L 199.843757 86.074442 
L 199.876226 295.488 
L 199.941164 86.417363 
L 199.973632 83.532654 
L 200.006101 295.488 
L 200.071038 83.532654 
L 200.103507 89.34789 
L 200.168444 86.592607 
L 200.200913 295.488 
L 200.298319 85.074691 
L 200.330788 88.50205 
L 200.363257 91.389474 
L 200.395725 295.488 
L 200.460663 83.062324 
L 200.493131 92.004077 
L 200.590538 89.91947 
L 200.623006 295.488 
L 200.752881 89.084142 
L 200.78535 76.685122 
L 200.850287 90.517557 
L 200.882756 90.517557 
L 200.915225 92.004077 
L 200.980162 90.517557 
L 201.077568 86.592607 
L 201.110037 295.488 
L 201.142506 83.304088 
L 201.239912 89.084142 
L 201.27238 295.488 
L 201.304849 83.532654 
L 201.337318 92.915177 
L 201.369786 81.157547 
L 201.434724 92.004077 
L 201.467193 92.004077 
L 201.499661 92.915177 
L 201.53213 90.802268 
L 201.597067 90.517557 
L 201.662005 91.389474 
L 201.759411 86.074442 
L 201.889286 295.488 
L 201.921754 82.80393 
L 201.986692 92.004077 
L 202.01916 295.488 
L 202.051629 86.592607 
L 202.084098 92.915177 
L 202.116567 90.517557 
L 202.181504 295.488 
L 202.213973 86.592607 
L 202.246441 92.004077 
L 202.343847 90.517557 
L 202.376316 295.488 
L 202.408785 295.488 
L 202.53866 87.413504 
L 202.571128 90.517557 
L 202.603597 84.537715 
L 202.636066 86.592607 
L 202.701003 80.481434 
L 202.733472 295.488 
L 202.765941 85.286238 
L 202.863347 86.074442 
L 202.895815 87.134346 
L 202.928284 92.915177 
L 203.02569 90.517557 
L 203.090628 295.488 
L 203.123096 83.83655 
L 203.155565 90.517557 
L 203.28544 295.488 
L 203.317909 90.517557 
L 203.382846 295.488 
L 203.415315 295.488 
L 203.447783 86.074442 
L 203.545189 92.004077 
L 203.577658 88.50205 
L 203.642596 295.488 
L 203.675064 86.592607 
L 203.77247 90.802268 
L 203.804939 83.83655 
L 203.934814 295.488 
L 204.064689 89.084142 
L 204.097157 88.80141 
L 204.129626 90.517557 
L 204.162095 295.488 
L 204.194563 77.873382 
L 204.227032 92.004077 
L 204.259501 92.004077 
L 204.29197 85.104184 
L 204.356907 295.488 
L 204.389376 92.915177 
L 204.421844 92.004077 
L 204.454313 295.488 
L 204.486782 87.134346 
L 204.51925 90.517557 
L 204.551719 92.004077 
L 204.616657 89.91947 
L 204.649125 91.389474 
L 204.681594 85.286238 
L 204.746531 92.915177 
L 204.779 92.004077 
L 204.811469 87.134346 
L 204.843937 90.517557 
L 204.941344 295.488 
L 205.071218 83.532654 
L 205.136156 92.004077 
L 205.201093 295.488 
L 205.233562 91.389474 
L 205.266031 91.389474 
L 205.330968 92.004077 
L 205.395905 84.298745 
L 205.460843 295.488 
L 205.493312 89.91947 
L 205.558249 92.915177 
L 205.590718 82.612097 
L 205.688124 295.488 
L 205.720592 87.134346 
L 205.817999 92.915177 
L 205.947873 89.91947 
L 205.980342 295.488 
L 206.045279 89.34789 
L 206.077748 92.311839 
L 206.110217 92.004077 
L 206.142686 295.488 
L 206.175154 90.517557 
L 206.207623 92.004077 
L 206.27256 92.915177 
L 206.305029 81.428642 
L 206.337498 295.488 
L 206.402435 85.286238 
L 206.467373 92.004077 
L 206.499841 295.488 
L 206.564779 92.004077 
L 206.629716 92.311839 
L 206.662185 89.084142 
L 206.694653 92.915177 
L 206.727122 88.50205 
L 206.759591 88.50205 
L 206.79206 295.488 
L 206.856997 92.004077 
L 206.889466 86.592607 
L 206.986872 88.50205 
L 207.01934 90.517557 
L 207.051809 295.488 
L 207.116747 86.074442 
L 207.246621 92.915177 
L 207.344027 87.945618 
L 207.376496 92.915177 
L 207.473902 84.024091 
L 207.506371 295.488 
L 207.571308 87.945618 
L 207.603777 92.004077 
L 207.701183 87.413504 
L 207.733652 295.488 
L 207.798589 87.134346 
L 207.863527 90.517557 
L 207.895995 295.488 
L 207.960933 92.004077 
L 207.993402 89.084142 
L 208.123276 295.488 
L 208.253151 89.34789 
L 208.28562 89.190823 
L 208.350557 92.915177 
L 208.415495 91.389474 
L 208.447963 295.488 
L 208.512901 89.084142 
L 208.545369 84.298745 
L 208.577838 92.915177 
L 208.610307 91.389474 
L 208.642776 92.004077 
L 208.707713 90.802268 
L 208.740182 295.488 
L 208.805119 87.700938 
L 208.870056 92.915177 
L 208.902525 86.074442 
L 208.934994 91.389474 
L 208.999931 295.488 
L 209.0324 91.389474 
L 209.064869 91.389474 
L 209.129806 90.517557 
L 209.259681 295.488 
L 209.357087 88.50205 
L 209.422024 295.488 
L 209.454493 89.34789 
L 209.486962 92.004077 
L 209.551899 90.517557 
L 209.616837 295.488 
L 209.714243 85.074691 
L 209.746711 86.365277 
L 209.811649 92.915177 
L 209.876586 89.34789 
L 209.909055 92.004077 
L 210.006461 91.389474 
L 210.071398 92.004077 
L 210.103867 295.488 
L 210.168805 92.915177 
L 210.331148 88.80141 
L 210.363617 92.915177 
L 210.396085 88.50205 
L 210.52596 295.488 
L 210.623366 88.278731 
L 210.720772 295.488 
L 210.753241 89.34789 
L 210.818179 92.004077 
L 210.883116 87.945618 
L 210.915585 295.488 
L 210.948053 77.461201 
L 211.045459 92.915177 
L 211.077928 92.915177 
L 211.110397 86.365277 
L 211.142866 295.488 
L 211.207803 87.945618 
L 211.240272 92.004077 
L 211.370146 295.488 
L 211.402615 84.537715 
L 211.500021 92.915177 
L 211.53249 295.488 
L 211.564959 89.34789 
L 211.597427 91.389474 
L 211.629896 92.004077 
L 211.662365 89.084142 
L 211.694833 91.389474 
L 211.824708 295.488 
L 211.857177 295.488 
L 211.922114 89.084142 
L 211.987052 89.91947 
L 212.01952 92.915177 
L 212.051989 85.286238 
L 212.149395 295.488 
L 212.181864 92.004077 
L 212.27927 92.915177 
L 212.311739 91.389474 
L 212.409145 88.50205 
L 212.441614 295.488 
L 212.474082 87.945618 
L 212.53902 89.084142 
L 212.668895 295.488 
L 212.798769 91.389474 
L 212.831238 295.488 
L 212.896175 84.024091 
L 212.993582 92.004077 
L 213.058519 85.504761 
L 213.123456 87.945618 
L 213.155925 92.311839 
L 213.220862 89.190823 
L 213.2858 295.488 
L 213.318269 88.50205 
L 213.350737 92.915177 
L 213.415675 86.904469 
L 213.448143 295.488 
L 213.480612 82.612097 
L 213.578018 89.34789 
L 213.610487 92.915177 
L 213.642956 295.488 
L 213.675424 91.389474 
L 213.707893 92.915177 
L 213.740362 87.945618 
L 213.77283 92.004077 
L 213.870236 82.612097 
L 213.902705 295.488 
L 214.03258 90.517557 
L 214.129986 87.134346 
L 214.194923 295.488 
L 214.227392 92.004077 
L 214.259861 87.134346 
L 214.389736 295.488 
L 214.519611 82.325312 
L 214.584548 92.915177 
L 214.617017 90.517557 
L 214.649485 295.488 
L 214.714423 92.004077 
L 214.746891 86.592607 
L 214.876766 295.488 
L 214.974172 92.004077 
L 215.006641 92.915177 
L 215.168985 81.623684 
L 215.233922 91.389474 
L 215.266391 295.488 
L 215.298859 83.826902 
L 215.331328 92.004077 
L 215.363797 89.91947 
L 215.428734 295.488 
L 215.461203 83.532654 
L 215.591078 92.004077 
L 215.623546 92.311839 
L 215.656015 91.735284 
L 215.688484 92.004077 
L 215.753421 87.413504 
L 215.78589 91.389474 
L 215.883296 87.413504 
L 215.915765 295.488 
L 215.980702 88.80141 
L 216.045639 91.389474 
L 216.078108 90.802268 
L 216.110577 87.413504 
L 216.143046 87.945618 
L 216.175514 295.488 
L 216.240452 89.91947 
L 216.27292 92.915177 
L 216.337858 92.004077 
L 216.370326 295.488 
L 216.402795 87.700938 
L 216.500201 92.915177 
L 216.597607 92.311839 
L 216.630076 295.488 
L 216.662545 82.612097 
L 216.759951 89.084142 
L 216.79242 295.488 
L 216.857357 91.389474 
L 216.889826 85.578667 
L 216.922294 89.34789 
L 216.954763 295.488 
L 217.019701 92.915177 
L 217.084638 89.34789 
L 217.117107 91.389474 
L 217.149575 92.004077 
L 217.182044 80.711347 
L 217.246981 91.389474 
L 217.27945 92.004077 
L 217.311919 88.80141 
L 217.344388 295.488 
L 217.409325 90.517557 
L 217.441794 83.83655 
L 217.506731 89.34789 
L 217.5392 87.945618 
L 217.571668 89.91947 
L 217.604137 92.004077 
L 217.636606 86.365277 
L 217.701543 91.389474 
L 217.734012 92.915177 
L 217.798949 88.80141 
L 217.831418 295.488 
L 217.863887 89.34789 
L 217.961293 89.704254 
L 217.993762 90.517557 
L 218.02623 81.623684 
L 218.091168 92.915177 
L 218.156105 92.004077 
L 218.188574 295.488 
L 218.318449 87.700938 
L 218.448323 295.488 
L 218.480792 82.110745 
L 218.578198 92.004077 
L 218.675604 86.592607 
L 218.708073 90.517557 
L 218.805479 85.286238 
L 218.837948 295.488 
L 218.967823 88.50205 
L 219.097697 295.488 
L 219.195104 89.91947 
L 219.324978 295.488 
L 219.422384 89.91947 
L 219.519791 295.488 
L 219.552259 89.34789 
L 219.649665 90.802268 
L 219.714603 85.286238 
L 219.747071 90.240982 
L 219.77954 90.802268 
L 219.876946 295.488 
L 219.909415 83.83655 
L 220.006821 92.004077 
L 220.104227 295.488 
L 220.136696 80.606659 
L 220.234102 92.004077 
L 220.299039 92.915177 
L 220.331508 83.304088 
L 220.396445 92.004077 
L 220.461383 87.134346 
L 220.493852 295.488 
L 220.52632 81.623684 
L 220.623726 88.50205 
L 220.656195 76.720287 
L 220.721132 92.311839 
L 220.78607 91.389474 
L 220.818539 85.286238 
L 220.883476 90.802268 
L 220.980882 295.488 
L 221.078288 87.700938 
L 221.110757 91.389474 
L 221.143226 90.802268 
L 221.175694 82.110745 
L 221.240632 88.50205 
L 221.305569 92.915177 
L 221.338038 91.389474 
L 221.370507 295.488 
L 221.435444 87.945618 
L 221.467913 92.915177 
L 221.500381 92.004077 
L 221.53285 295.488 
L 221.565319 91.389474 
L 221.597787 91.735284 
L 221.630256 88.278731 
L 221.662725 295.488 
L 221.727662 89.34789 
L 221.760131 92.915177 
L 221.857537 90.517557 
L 221.890006 295.488 
L 221.954943 79.592872 
L 222.019881 91.735284 
L 222.052349 89.91947 
L 222.182224 295.488 
L 222.312099 78.104808 
L 222.344568 89.91947 
L 222.377036 86.074442 
L 222.409505 295.488 
L 222.474442 92.004077 
L 222.604317 84.298745 
L 222.636786 91.389474 
L 222.734192 89.91947 
L 222.766661 90.240982 
L 222.799129 295.488 
L 222.831598 84.215099 
L 222.864067 86.592607 
L 222.961473 92.004077 
L 222.993942 84.537715 
L 223.02641 92.915177 
L 223.058879 89.91947 
L 223.123816 295.488 
L 223.156285 85.104184 
L 223.28616 90.517557 
L 223.383566 295.488 
L 223.416035 89.91947 
L 223.513441 91.735284 
L 223.54591 85.286238 
L 223.643316 295.488 
L 223.675784 82.110745 
L 223.740722 82.612097 
L 223.77319 295.488 
L 223.838128 86.074442 
L 223.903065 89.91947 
L 223.935534 295.488 
L 224.000471 91.389474 
L 224.03294 92.004077 
L 224.065409 91.389474 
L 224.097877 87.134346 
L 224.130346 295.488 
L 224.195284 91.389474 
L 224.227752 92.004077 
L 224.260221 91.389474 
L 224.357627 88.50205 
L 224.390096 295.488 
L 224.455033 86.074442 
L 224.519971 92.004077 
L 224.552439 92.915177 
L 224.617377 295.488 
L 224.649845 89.34789 
L 224.682314 92.915177 
L 224.714783 83.062324 
L 224.747251 295.488 
L 224.812189 90.517557 
L 224.844658 89.084142 
L 224.909595 90.517557 
L 224.942064 77.345361 
L 224.974532 85.578667 
L 225.007001 295.488 
L 225.071938 87.134346 
L 225.104407 83.304088 
L 225.136876 92.004077 
L 225.169345 92.311839 
L 225.201813 92.004077 
L 225.266751 84.537715 
L 225.299219 295.488 
L 225.429094 91.389474 
L 225.558969 295.488 
L 225.591438 87.945618 
L 225.688844 92.915177 
L 225.753781 87.700938 
L 225.818719 295.488 
L 225.916125 90.517557 
L 225.981062 88.50205 
L 226.046 295.488 
L 226.143406 86.074442 
L 226.175874 92.004077 
L 226.208343 86.904469 
L 226.240812 91.389474 
L 226.338218 295.488 
L 226.435624 87.134346 
L 226.468093 89.91947 
L 226.500561 85.286238 
L 226.53303 92.915177 
L 226.565499 89.91947 
L 226.695374 295.488 
L 226.825248 85.813715 
L 226.857717 92.915177 
L 226.922654 295.488 
L 226.955123 92.004077 
L 226.987592 92.004077 
L 227.020061 91.389474 
L 227.084998 90.517557 
L 227.117467 295.488 
L 227.247341 91.389474 
L 227.27981 80.711347 
L 227.344748 89.084142 
L 227.377216 91.389474 
L 227.409685 295.488 
L 227.474622 92.915177 
L 227.636966 87.413504 
L 227.669435 90.517557 
L 227.701903 75.340699 
L 227.766841 92.004077 
L 227.896715 88.50205 
L 227.929184 92.004077 
L 227.961653 295.488 
L 227.994122 90.517557 
L 228.02659 91.389474 
L 228.059059 91.389474 
L 228.123996 92.915177 
L 228.188934 83.83655 
L 228.318809 295.488 
L 228.448683 83.532654 
L 228.481152 90.517557 
L 228.578558 295.488 
L 228.643496 89.91947 
L 228.675964 295.488 
L 228.708433 295.488 
L 228.77337 89.91947 
L 228.805839 92.915177 
L 228.838308 295.488 
L 228.870777 89.084142 
L 228.903245 92.004077 
L 228.935714 78.933281 
L 229.000651 92.915177 
L 229.065589 89.084142 
L 229.098057 295.488 
L 229.162995 89.91947 
L 229.195464 89.91947 
L 229.227932 88.80141 
L 229.357807 295.488 
L 229.455213 92.004077 
L 229.520151 295.488 
L 229.552619 88.50205 
L 229.585088 90.240982 
L 229.682494 86.365277 
L 229.714963 295.488 
L 229.747431 84.298745 
L 229.844838 88.50205 
L 229.877306 85.951124 
L 229.909775 91.389474 
L 229.942244 295.488 
L 230.007181 87.134346 
L 230.137056 92.915177 
L 230.169525 92.004077 
L 230.234462 295.488 
L 230.266931 90.517557 
L 230.331868 92.915177 
L 230.364337 92.004077 
L 230.429274 295.488 
L 230.461743 92.004077 
L 230.494212 92.915177 
L 230.591618 87.700938 
L 230.721493 295.488 
L 230.753961 295.488 
L 230.818899 92.004077 
L 230.851367 295.488 
L 230.948773 295.488 
L 230.981242 87.413504 
L 231.04618 89.34789 
L 231.143586 295.488 
L 231.208523 85.813715 
L 231.27346 90.802268 
L 231.305929 89.34789 
L 231.338398 91.389474 
L 231.403335 87.700938 
L 231.468273 295.488 
L 231.565679 81.623684 
L 231.630616 295.488 
L 231.663085 92.311839 
L 231.695554 89.084142 
L 231.728022 92.004077 
L 231.79296 90.802268 
L 231.825428 295.488 
L 231.955303 92.004077 
L 231.987772 92.004077 
L 232.020241 92.915177 
L 232.052709 295.488 
L 232.085178 89.084142 
L 232.117647 89.084142 
L 232.215053 92.004077 
L 232.247521 91.389474 
L 232.27999 89.91947 
L 232.312459 92.311839 
L 232.344928 295.488 
L 232.377396 90.517557 
L 232.409865 92.004077 
L 232.474802 90.517557 
L 232.572208 295.488 
L 232.669615 81.008738 
L 232.702083 295.488 
L 232.767021 88.50205 
L 232.831958 92.915177 
L 232.864427 88.50205 
L 232.929364 295.488 
L 232.961833 92.004077 
L 232.994302 90.517557 
L 233.124176 295.488 
L 233.189114 81.008738 
L 233.221583 87.134346 
L 233.28652 295.488 
L 233.318989 92.004077 
L 233.448863 87.945618 
L 233.481332 88.50205 
L 233.513801 92.915177 
L 233.578738 90.517557 
L 233.611207 295.488 
L 233.676144 86.074442 
L 233.741082 92.915177 
L 233.77355 92.004077 
L 233.806019 295.488 
L 233.838488 90.517557 
L 233.870957 90.517557 
L 233.903425 85.813715 
L 234.000831 295.488 
L 234.130706 87.134346 
L 234.163175 85.813715 
L 234.195644 92.915177 
L 234.260581 295.488 
L 234.29305 92.004077 
L 234.325518 84.298745 
L 234.390456 89.084142 
L 234.422924 89.91947 
L 234.455393 87.413504 
L 234.520331 86.365277 
L 234.552799 295.488 
L 234.617737 92.004077 
L 234.650205 295.488 
L 234.715143 295.488 
L 234.747611 84.537715 
L 234.845018 91.389474 
L 234.909955 295.488 
L 234.942424 92.004077 
L 235.007361 92.915177 
L 235.03983 86.074442 
L 235.104767 88.50205 
L 235.137236 92.915177 
L 235.202173 87.413504 
L 235.234642 295.488 
L 235.299579 85.286238 
L 235.429454 92.915177 
L 235.494392 91.389474 
L 235.559329 295.488 
L 235.591798 89.91947 
L 235.689204 87.134346 
L 235.754141 92.915177 
L 235.851547 87.134346 
L 235.884016 295.488 
L 235.916485 295.488 
L 235.981422 87.413504 
L 236.04636 92.004077 
L 236.143766 295.488 
L 236.208703 86.592607 
L 236.27364 90.517557 
L 236.338578 92.915177 
L 236.403515 92.004077 
L 236.435984 88.50205 
L 236.565859 295.488 
L 236.695734 87.134346 
L 236.79314 90.517557 
L 236.858077 295.488 
L 236.890546 89.084142 
L 236.955483 92.915177 
L 237.020421 92.004077 
L 237.052889 89.084142 
L 237.085358 92.004077 
L 237.117827 295.488 
L 237.150295 87.700938 
L 237.182764 90.802268 
L 237.215233 89.084142 
L 237.247701 92.004077 
L 237.28017 92.004077 
L 237.377576 84.537715 
L 237.410045 295.488 
L 237.442514 295.488 
L 237.474982 86.592607 
L 237.53992 91.389474 
L 237.572389 295.488 
L 237.637326 85.578667 
L 237.702263 92.004077 
L 237.799669 295.488 
L 237.832138 87.700938 
L 237.929544 92.004077 
L 237.962013 86.074442 
L 237.994482 89.084142 
L 238.059419 295.488 
L 238.091888 85.286238 
L 238.124356 84.537715 
L 238.156825 85.286238 
L 238.189294 92.004077 
L 238.221763 91.389474 
L 238.2867 295.488 
L 238.319169 91.389474 
L 238.351637 92.915177 
L 238.384106 90.517557 
L 238.416575 90.517557 
L 238.481512 87.700938 
L 238.54645 295.488 
L 238.578918 295.488 
L 238.676324 85.813715 
L 238.708793 92.004077 
L 238.806199 90.517557 
L 238.838668 295.488 
L 238.936074 89.190823 
L 238.968543 92.311839 
L 239.001011 92.004077 
L 239.065949 89.084142 
L 239.130886 295.488 
L 239.163355 89.91947 
L 239.260761 92.311839 
L 239.29323 92.004077 
L 239.423104 295.488 
L 239.455573 90.517557 
L 239.552979 92.915177 
L 239.617917 295.488 
L 239.650385 92.004077 
L 239.682854 92.004077 
L 239.78026 295.488 
L 239.812729 84.298745 
L 239.910135 89.084142 
L 239.942604 92.004077 
L 239.975072 91.389474 
L 240.007541 85.074691 
L 240.137416 295.488 
L 240.169885 89.084142 
L 240.267291 92.004077 
L 240.299759 87.134346 
L 240.332228 92.915177 
L 240.397166 88.50205 
L 240.462103 295.488 
L 240.52704 295.488 
L 240.559509 87.945618 
L 240.624446 295.488 
L 240.656915 295.488 
L 240.754321 83.532654 
L 240.78679 295.488 
L 240.851727 80.319945 
L 240.884196 89.91947 
L 240.981602 86.365277 
L 241.014071 295.488 
L 241.04654 295.488 
L 241.176414 88.50205 
L 241.306289 92.915177 
L 241.371227 295.488 
L 241.403695 85.286238 
L 241.436164 92.915177 
L 241.53357 90.802268 
L 241.566039 87.700938 
L 241.598507 295.488 
L 241.663445 90.517557 
L 241.728382 87.700938 
L 241.79332 92.915177 
L 241.825788 89.084142 
L 241.890726 92.004077 
L 241.988132 295.488 
L 242.020601 88.50205 
L 242.118007 90.517557 
L 242.215413 295.488 
L 242.247882 87.413504 
L 242.312819 295.488 
L 242.377756 295.488 
L 242.442694 92.004077 
L 242.475162 295.488 
L 242.507631 295.488 
L 242.637506 89.91947 
L 242.669975 92.004077 
L 242.702443 85.286238 
L 242.799849 295.488 
L 242.832318 89.084142 
L 242.929724 92.915177 
L 242.962193 91.389474 
L 242.994662 295.488 
L 243.059599 77.703485 
L 243.092068 91.389474 
L 243.124536 295.488 
L 243.189474 92.004077 
L 243.221943 90.517557 
L 243.254411 91.389474 
L 243.28688 295.488 
L 243.351817 92.004077 
L 243.384286 87.945618 
L 243.449223 91.389474 
L 243.514161 89.91947 
L 243.579098 295.488 
L 243.644036 87.700938 
L 243.676504 90.656909 
L 243.708973 295.488 
L 243.741442 86.365277 
L 243.77391 91.389474 
L 243.871317 92.915177 
L 243.903785 92.004077 
L 244.001191 295.488 
L 244.066129 92.004077 
L 244.098597 295.488 
L 244.228472 295.488 
L 244.325878 88.50205 
L 244.358347 92.004077 
L 244.423285 295.488 
L 244.455753 91.389474 
L 244.553159 92.915177 
L 244.618097 88.80141 
L 244.650565 90.517557 
L 244.683034 295.488 
L 244.747972 88.278731 
L 244.78044 92.004077 
L 244.812909 90.517557 
L 244.910315 89.91947 
L 244.942784 295.488 
L 245.072659 89.704254 
L 245.202533 295.488 
L 245.235002 295.488 
L 245.364877 92.004077 
L 245.462283 89.084142 
L 245.494752 92.915177 
L 245.559689 295.488 
L 245.592158 88.50205 
L 245.624626 82.80393 
L 245.657095 92.004077 
L 245.754501 88.50205 
L 245.78697 295.488 
L 245.819439 89.91947 
L 245.884376 295.488 
L 245.916845 295.488 
L 246.04672 89.084142 
L 246.144126 295.488 
L 246.241532 92.004077 
L 246.306469 295.488 
L 246.338938 89.91947 
L 246.371407 92.004077 
L 246.436344 89.91947 
L 246.468813 295.488 
L 246.501281 89.084142 
L 246.566219 295.488 
L 246.598688 295.488 
L 246.728562 91.389474 
L 246.761031 92.915177 
L 246.7935 91.389474 
L 246.890906 87.700938 
L 246.988312 295.488 
L 247.053249 87.413504 
L 247.085718 295.488 
L 247.150655 295.488 
L 247.248062 90.517557 
L 247.312999 89.91947 
L 247.377936 295.488 
L 247.410405 91.389474 
L 247.475342 92.915177 
L 247.507811 295.488 
L 247.572749 89.34789 
L 247.670155 92.004077 
L 247.702623 295.488 
L 247.735092 89.084142 
L 247.767561 92.004077 
L 247.864967 88.278731 
L 247.897436 92.004077 
L 247.994842 295.488 
L 248.124716 89.084142 
L 248.222123 295.488 
L 248.254591 87.700938 
L 248.319529 295.488 
L 248.351997 295.488 
L 248.416935 89.91947 
L 248.449403 295.488 
L 248.481872 295.488 
L 248.611747 92.004077 
L 248.741622 295.488 
L 248.871497 295.488 
L 248.903965 85.286238 
L 248.968903 92.004077 
L 249.03384 295.488 
L 249.066309 92.004077 
L 249.098778 89.91947 
L 249.196184 295.488 
L 249.228652 89.084142 
L 249.29359 295.488 
L 249.358527 295.488 
L 249.390996 92.004077 
L 249.455933 92.915177 
L 249.520871 295.488 
L 249.553339 88.50205 
L 249.585808 92.004077 
L 249.618277 90.802268 
L 249.650745 295.488 
L 249.715683 90.517557 
L 249.748152 92.915177 
L 249.813089 91.389474 
L 249.878026 92.004077 
L 249.975432 87.700938 
L 250.105307 295.488 
L 250.202713 295.488 
L 250.267651 89.084142 
L 250.332588 92.004077 
L 250.397526 92.004077 
L 250.462463 91.389474 
L 250.494932 295.488 
L 250.5274 88.50205 
L 250.624806 89.91947 
L 250.657275 90.517557 
L 250.754681 295.488 
L 250.78715 87.700938 
L 250.852087 295.488 
L 250.884556 295.488 
L 250.917025 92.004077 
L 250.981962 92.915177 
L 251.111837 295.488 
L 251.176774 91.389474 
L 251.209243 295.488 
L 251.241712 295.488 
L 251.339118 87.945618 
L 251.371587 90.802268 
L 251.404055 295.488 
L 251.468993 90.517557 
L 251.501461 87.134346 
L 251.53393 90.517557 
L 251.631336 295.488 
L 251.663805 89.084142 
L 251.728742 295.488 
L 251.79368 295.488 
L 251.826148 90.517557 
L 251.923555 92.004077 
L 251.988492 92.915177 
L 252.020961 89.084142 
L 252.053429 92.004077 
L 252.183304 295.488 
L 252.215773 92.004077 
L 252.28071 295.488 
L 252.345648 295.488 
L 252.378116 91.389474 
L 252.443054 92.915177 
L 252.507991 295.488 
L 252.54046 92.004077 
L 252.572929 92.004077 
L 252.637866 87.945618 
L 252.702803 295.488 
L 252.735272 92.004077 
L 252.800209 295.488 
L 252.865147 295.488 
L 252.897616 89.084142 
L 252.995022 92.915177 
L 253.059959 295.488 
L 253.092428 89.91947 
L 253.124896 90.802268 
L 253.254771 295.488 
L 253.28724 295.488 
L 253.319709 92.915177 
L 253.384646 295.488 
L 253.514521 295.488 
L 253.54699 92.004077 
L 253.611927 295.488 
L 253.709333 295.488 
L 253.806739 91.389474 
L 253.904145 90.517557 
L 253.936614 295.488 
L 253.969083 90.517557 
L 254.066489 92.915177 
L 254.098958 92.004077 
L 254.228832 295.488 
L 254.261301 295.488 
L 254.29377 89.91947 
L 254.358707 295.488 
L 254.391176 295.488 
L 254.456113 92.004077 
L 254.488582 295.488 
L 254.521051 295.488 
L 254.553519 92.004077 
L 254.618457 92.915177 
L 254.683394 91.735284 
L 254.715863 295.488 
L 254.748332 92.004077 
L 254.813269 295.488 
L 254.845738 295.488 
L 254.910675 89.084142 
L 254.943144 89.34789 
L 255.073019 295.488 
L 255.105487 92.004077 
L 255.170425 295.488 
L 255.235362 295.488 
L 255.365237 88.50205 
L 255.397706 92.915177 
L 255.462643 90.517557 
L 255.560049 295.488 
L 255.592518 92.915177 
L 255.657455 295.488 
L 255.754861 295.488 
L 255.819799 86.592607 
L 255.884736 87.700938 
L 255.917205 92.915177 
L 256.04708 295.488 
L 256.144486 92.004077 
L 256.274361 295.488 
L 256.306829 295.488 
L 256.339298 92.004077 
L 256.404235 295.488 
L 256.436704 295.488 
L 256.469173 89.91947 
L 256.53411 295.488 
L 256.631516 295.488 
L 256.663985 90.517557 
L 256.728922 92.004077 
L 256.858797 295.488 
L 256.891266 90.517557 
L 256.988672 92.004077 
L 257.053609 295.488 
L 257.086078 92.004077 
L 257.118547 91.389474 
L 257.151015 92.915177 
L 257.215953 295.488 
L 257.248422 92.004077 
L 257.28089 90.517557 
L 257.313359 92.004077 
L 257.443234 295.488 
L 257.573109 92.004077 
L 257.670515 295.488 
L 257.702983 89.084142 
L 257.767921 295.488 
L 257.865327 295.488 
L 257.897796 90.517557 
L 257.962733 295.488 
L 257.995202 295.488 
L 258.125077 92.004077 
L 258.190014 89.91947 
L 258.254951 295.488 
L 258.28742 295.488 
L 258.319889 90.517557 
L 258.384826 295.488 
L 258.449764 295.488 
L 258.482232 89.91947 
L 258.579638 90.517557 
L 258.709513 295.488 
L 258.774451 87.945618 
L 258.839388 92.004077 
L 258.904325 295.488 
L 258.936794 92.915177 
L 258.969263 90.802268 
L 259.099138 295.488 
L 259.131606 295.488 
L 259.196544 92.004077 
L 259.261481 92.915177 
L 259.391356 295.488 
L 259.423825 295.488 
L 259.456293 92.004077 
L 259.521231 295.488 
L 259.586168 295.488 
L 259.683574 90.517557 
L 259.813449 295.488 
L 259.845918 295.488 
L 259.910855 90.517557 
L 259.943324 295.488 
L 259.975792 295.488 
L 260.008261 92.004077 
L 260.073199 295.488 
L 260.105667 295.488 
L 260.138136 92.004077 
L 260.203073 295.488 
L 260.268011 295.488 
L 260.30048 87.700938 
L 260.397886 92.004077 
L 260.430354 92.004077 
L 260.462823 91.735284 
L 260.592698 295.488 
L 260.625167 90.517557 
L 260.722573 90.802268 
L 260.819979 90.517557 
L 260.852447 295.488 
L 260.917385 295.488 
L 260.949854 89.91947 
L 261.014791 295.488 
L 261.079728 295.488 
L 261.144666 92.004077 
L 261.177134 295.488 
L 261.209603 295.488 
L 261.274541 92.004077 
L 261.307009 295.488 
L 261.371947 295.488 
L 261.469353 90.517557 
L 261.53429 295.488 
L 261.566759 92.004077 
L 261.599228 92.004077 
L 261.664165 89.084142 
L 261.729102 295.488 
L 261.761571 92.004077 
L 261.826508 295.488 
L 261.923915 295.488 
L 261.988852 90.517557 
L 262.021321 295.488 
L 262.118727 295.488 
L 262.151195 90.517557 
L 262.216133 295.488 
L 262.248602 295.488 
L 262.28107 92.004077 
L 262.346008 295.488 
L 262.378476 295.488 
L 262.410945 92.004077 
L 262.475882 295.488 
L 262.508351 295.488 
L 262.54082 92.004077 
L 262.605757 295.488 
L 262.638226 295.488 
L 262.670695 91.389474 
L 262.735632 295.488 
L 262.833038 295.488 
L 262.865507 92.004077 
L 262.930444 295.488 
L 262.962913 295.488 
L 263.02785 92.915177 
L 263.060319 295.488 
L 263.092788 295.488 
L 263.222663 92.004077 
L 263.352537 295.488 
L 263.385006 295.488 
L 263.417475 90.517557 
L 263.482412 92.004077 
L 263.612287 295.488 
L 263.644756 91.389474 
L 263.709693 92.004077 
L 263.807099 89.084142 
L 263.839568 295.488 
L 263.936974 85.286238 
L 264.03438 295.488 
L 264.164255 90.517557 
L 264.229192 295.488 
L 264.261661 91.389474 
L 264.29413 92.004077 
L 264.424005 295.488 
L 264.553879 92.004077 
L 264.586348 90.517557 
L 264.651285 92.004077 
L 264.716223 92.004077 
L 264.846098 295.488 
L 264.878566 90.517557 
L 264.943504 295.488 
L 265.008441 295.488 
L 265.105847 90.802268 
L 265.170785 295.488 
L 265.203253 92.004077 
L 265.30066 92.004077 
L 265.398066 295.488 
L 265.495472 91.389474 
L 265.625347 295.488 
L 265.690284 295.488 
L 265.78769 90.517557 
L 265.885096 295.488 
L 265.917565 83.532654 
L 266.014971 92.004077 
L 266.144846 295.488 
L 266.372127 295.488 
L 266.404595 92.004077 
L 266.469533 295.488 
L 266.53447 295.488 
L 266.566939 89.91947 
L 266.664345 92.004077 
L 266.696814 90.517557 
L 266.826688 295.488 
L 266.956563 295.488 
L 266.989032 92.004077 
L 267.053969 295.488 
L 267.118907 295.488 
L 267.151376 90.517557 
L 267.248782 92.004077 
L 267.28125 92.004077 
L 267.411125 295.488 
L 267.476063 295.488 
L 267.508531 90.517557 
L 267.573469 92.004077 
L 267.670875 91.389474 
L 267.703343 295.488 
L 267.833218 91.389474 
L 267.963093 295.488 
L 268.092968 295.488 
L 268.222843 89.91947 
L 268.320249 295.488 
L 268.417655 92.004077 
L 268.450124 295.488 
L 268.482592 88.50205 
L 268.515061 92.004077 
L 268.612467 92.004077 
L 268.742342 295.488 
L 268.839748 295.488 
L 268.904685 92.004077 
L 268.937154 295.488 
L 269.196904 295.488 
L 269.229372 89.084142 
L 269.29431 295.488 
L 269.359247 295.488 
L 269.456653 89.084142 
L 269.586528 295.488 
L 269.618997 295.488 
L 269.716403 90.517557 
L 269.748872 92.004077 
L 269.813809 91.389474 
L 269.878746 295.488 
L 269.943684 295.488 
L 270.073559 92.004077 
L 270.203433 295.488 
L 270.235902 89.91947 
L 270.30084 92.915177 
L 270.365777 89.91947 
L 270.398246 295.488 
L 270.430714 92.004077 
L 270.495652 92.915177 
L 270.560589 295.488 
L 270.593058 92.915177 
L 270.625527 92.004077 
L 270.690464 295.488 
L 270.722933 92.004077 
L 270.755401 90.517557 
L 270.820339 92.004077 
L 270.950214 295.488 
L 271.080088 295.488 
L 271.209963 92.915177 
L 271.274901 295.488 
L 271.307369 92.004077 
L 271.339838 92.004077 
L 271.437244 295.488 
L 271.502181 87.700938 
L 271.567119 92.915177 
L 271.599588 92.004077 
L 271.729462 295.488 
L 271.7944 295.488 
L 271.924275 90.517557 
L 271.956743 89.084142 
L 271.989212 92.004077 
L 272.119087 295.488 
L 272.184024 90.517557 
L 272.248962 92.004077 
L 272.346368 92.004077 
L 272.443774 295.488 
L 272.476243 90.517557 
L 272.573649 92.915177 
L 272.703523 295.488 
L 272.768461 295.488 
L 272.898336 86.365277 
L 272.963273 295.488 
L 272.995742 65.826572 
L 273.02821 92.004077 
L 273.093148 295.488 
L 273.125617 86.365277 
L 273.158085 90.517557 
L 273.255491 295.488 
L 273.320429 83.826902 
L 273.352897 92.004077 
L 273.385366 295.488 
L 273.450304 90.517557 
L 273.482772 92.004077 
L 273.580178 63.513628 
L 273.612647 64.604735 
L 273.742522 63.513628 
L 273.774991 63.863577 
L 273.839928 63.513628 
L 277.249142 63.513628 
L 277.28161 63.863577 
L 277.346548 63.513628 
L 277.508891 63.513628 
L 277.54136 63.863577 
L 277.606297 63.513628 
L 277.866047 63.513628 
L 277.898516 63.863577 
L 277.963453 63.513628 
L 278.02839 63.513628 
L 278.060859 63.863577 
L 278.125797 63.513628 
L 278.190734 63.513628 
L 278.255671 64.227134 
L 278.28814 63.863577 
L 278.418015 63.513628 
L 278.54789 63.513628 
L 278.580358 64.604735 
L 278.645296 63.863577 
L 278.775171 63.513628 
L 278.872577 63.863577 
L 279.002452 63.513628 
L 279.03492 63.513628 
L 279.164795 63.863577 
L 279.262201 63.513628 
L 279.29467 64.227134 
L 279.359607 63.863577 
L 279.424545 63.863577 
L 279.457013 64.227134 
L 279.489482 63.513628 
L 279.521951 63.863577 
L 279.554419 63.863577 
L 279.619357 63.513628 
L 279.651826 64.227134 
L 279.716763 63.863577 
L 279.814169 63.513628 
L 279.846638 64.227134 
L 279.911575 63.513628 
L 279.976513 63.863577 
L 280.008981 63.513628 
L 280.04145 63.513628 
L 280.171325 64.604735 
L 280.236262 63.513628 
L 280.268731 64.604735 
L 280.431074 63.513628 
L 280.463543 64.227134 
L 280.52848 63.863577 
L 280.560949 63.863577 
L 280.593418 64.227134 
L 280.625887 63.863577 
L 280.690824 64.227134 
L 280.755761 63.513628 
L 280.853167 64.227134 
L 280.885636 63.863577 
L 280.983042 63.513628 
L 281.04798 64.604735 
L 281.080448 63.513628 
L 281.210323 64.227134 
L 281.307729 63.513628 
L 281.340198 64.604735 
L 281.405135 63.863577 
L 281.437604 63.513628 
L 281.470073 63.863577 
L 281.502542 64.996843 
L 281.567479 64.604735 
L 281.599948 63.513628 
L 281.664885 63.863577 
L 281.729822 63.513628 
L 281.79476 64.996843 
L 281.827229 63.513628 
L 281.892166 63.863577 
L 282.054509 64.996843 
L 282.119447 63.863577 
L 282.151916 64.996843 
L 282.184384 64.996843 
L 282.314259 63.863577 
L 282.411665 64.996843 
L 282.509071 63.513628 
L 282.54154 64.227134 
L 282.574009 64.227134 
L 282.671415 63.863577 
L 282.768821 64.996843 
L 282.866227 64.227134 
L 282.963633 65.826572 
L 282.996102 65.403948 
L 283.093508 64.227134 
L 283.125977 65.403948 
L 283.223383 64.996843 
L 283.28832 65.826572 
L 283.450664 63.863577 
L 283.483132 63.513628 
L 283.54807 63.863577 
L 283.580538 64.227134 
L 283.613007 63.513628 
L 283.937694 63.513628 
L 283.970163 63.863577 
L 284.0351 63.513628 
L 288.905405 63.513628 
L 289.03528 60.073794 
L 301.470793 60.073794 
L 301.503262 60.394392 
L 301.568199 60.073794 
L 301.925355 60.073794 
L 301.957823 60.394392 
L 302.022761 60.073794 
L 307.28269 60.073794 
L 307.315159 60.394392 
L 307.380097 60.073794 
L 309.652906 60.073794 
L 309.78278 60.394392 
L 309.912655 60.073794 
L 310.010061 60.073794 
L 310.04253 60.394392 
L 310.107467 60.073794 
L 310.269811 60.073794 
L 310.367217 60.394392 
L 310.497092 60.073794 
L 310.659435 60.073794 
L 310.691904 60.394392 
L 310.756842 60.073794 
L 311.146466 60.073794 
L 311.178935 63.513628 
L 311.243872 60.073794 
L 311.308809 60.073794 
L 311.373747 63.513628 
L 311.406216 60.073794 
L 311.471153 60.073794 
L 311.503622 63.513628 
L 311.568559 60.073794 
L 311.601028 60.394392 
L 311.665965 60.073794 
L 311.730903 60.073794 
L 311.828309 63.513628 
L 311.860777 60.073794 
L 311.925715 63.513628 
L 398.487273 63.513628 
L 398.487273 63.513628 
" clip-path="url(#p4bbb661fdc)" style="fill: none; stroke: #1f77b4; stroke-width: 1.5; stroke-linecap: square"/>
   </g>
   <g id="patch_3">
    <path d="M 57.6 307.584 
L 57.6 41.472 
" style="fill: none; stroke: #000000; stroke-width: 0.8; stroke-linejoin: miter; stroke-linecap: square"/>
   </g>
   <g id="patch_4">
    <path d="M 414.72 307.584 
L 414.72 41.472 
" style="fill: none; stroke: #000000; stroke-width: 0.8; stroke-linejoin: miter; stroke-linecap: square"/>
   </g>
   <g id="patch_5">
    <path d="M 57.6 307.584 
L 414.72 307.584 
" style="fill: none; stroke: #000000; stroke-width: 0.8; stroke-linejoin: miter; stroke-linecap: square"/>
   </g>
   <g id="patch_6">
    <path d="M 57.6 41.472 
L 414.72 41.472 
" style="fill: none; stroke: #000000; stroke-width: 0.8; stroke-linejoin: miter; stroke-linecap: square"/>
   </g>
  </g>
 </g>
 <defs>
  <clipPath id="p4bbb661fdc">
   <rect x="57.6" y="41.472" width="357.12" height="266.112"/>
  </clipPath>
 </defs>
</svg>
