<?xml version="1.0" encoding="utf-8" standalone="no"?>
<!DOCTYPE svg PUBLIC "-//W3C//DTD SVG 1.1//EN"
  "http://www.w3.org/Graphics/SVG/1.1/DTD/svg11.dtd">
<svg xmlns:xlink="http://www.w3.org/1999/xlink" width="460.8pt" height="345.6pt" viewBox="0 0 460.8 345.6" xmlns="http://www.w3.org/2000/svg" version="1.1">
 <metadata>
  <rdf:RDF xmlns:dc="http://purl.org/dc/elements/1.1/" xmlns:cc="http://creativecommons.org/ns#" xmlns:rdf="http://www.w3.org/1999/02/22-rdf-syntax-ns#">
   <cc:Work>
    <dc:type rdf:resource="http://purl.org/dc/dcmitype/StillImage"/>
    <dc:date>2024-04-25T18:45:04.424935</dc:date>
    <dc:format>image/svg+xml</dc:format>
    <dc:creator>
     <cc:Agent>
      <dc:title>Matplotlib v3.7.2, https://matplotlib.org/</dc:title>
     </cc:Agent>
    </dc:creator>
   </cc:Work>
  </rdf:RDF>
 </metadata>
 <defs>
  <style type="text/css">*{stroke-linejoin: round; stroke-linecap: butt}</style>
 </defs>
 <g id="figure_1">
  <g id="patch_1">
   <path d="M 0 345.6 
L 460.8 345.6 
L 460.8 0 
L 0 0 
z
" style="fill: #ffffff"/>
  </g>
  <g id="axes_1">
   <g id="patch_2">
    <path d="M 57.6 307.584 
L 414.72 307.584 
L 414.72 41.472 
L 57.6 41.472 
z
" style="fill: #ffffff"/>
   </g>
   <g id="matplotlib.axis_1">
    <g id="xtick_1">
     <g id="line2d_1">
      <defs>
       <path id="mbfad7d271d" d="M 0 0 
L 0 3.5 
" style="stroke: #000000; stroke-width: 0.8"/>
      </defs>
      <g>
       <use xlink:href="#mbfad7d271d" x="73.832727" y="307.584" style="stroke: #000000; stroke-width: 0.8"/>
      </g>
     </g>
     <g id="text_1">
      <!-- 0 -->
      <g transform="translate(70.651477 322.182437) scale(0.1 -0.1)">
       <defs>
        <path id="DejaVuSans-30" d="M 2034 4250 
Q 1547 4250 1301 3770 
Q 1056 3291 1056 2328 
Q 1056 1369 1301 889 
Q 1547 409 2034 409 
Q 2525 409 2770 889 
Q 3016 1369 3016 2328 
Q 3016 3291 2770 3770 
Q 2525 4250 2034 4250 
z
M 2034 4750 
Q 2819 4750 3233 4129 
Q 3647 3509 3647 2328 
Q 3647 1150 3233 529 
Q 2819 -91 2034 -91 
Q 1250 -91 836 529 
Q 422 1150 422 2328 
Q 422 3509 836 4129 
Q 1250 4750 2034 4750 
z
" transform="scale(0.015625)"/>
       </defs>
       <use xlink:href="#DejaVuSans-30"/>
      </g>
     </g>
    </g>
    <g id="xtick_2">
     <g id="line2d_2">
      <g>
       <use xlink:href="#mbfad7d271d" x="138.77013" y="307.584" style="stroke: #000000; stroke-width: 0.8"/>
      </g>
     </g>
     <g id="text_2">
      <!-- 2000 -->
      <g transform="translate(126.04513 322.182437) scale(0.1 -0.1)">
       <defs>
        <path id="DejaVuSans-32" d="M 1228 531 
L 3431 531 
L 3431 0 
L 469 0 
L 469 531 
Q 828 903 1448 1529 
Q 2069 2156 2228 2338 
Q 2531 2678 2651 2914 
Q 2772 3150 2772 3378 
Q 2772 3750 2511 3984 
Q 2250 4219 1831 4219 
Q 1534 4219 1204 4116 
Q 875 4013 500 3803 
L 500 4441 
Q 881 4594 1212 4672 
Q 1544 4750 1819 4750 
Q 2544 4750 2975 4387 
Q 3406 4025 3406 3419 
Q 3406 3131 3298 2873 
Q 3191 2616 2906 2266 
Q 2828 2175 2409 1742 
Q 1991 1309 1228 531 
z
" transform="scale(0.015625)"/>
       </defs>
       <use xlink:href="#DejaVuSans-32"/>
       <use xlink:href="#DejaVuSans-30" x="63.623047"/>
       <use xlink:href="#DejaVuSans-30" x="127.246094"/>
       <use xlink:href="#DejaVuSans-30" x="190.869141"/>
      </g>
     </g>
    </g>
    <g id="xtick_3">
     <g id="line2d_3">
      <g>
       <use xlink:href="#mbfad7d271d" x="203.707533" y="307.584" style="stroke: #000000; stroke-width: 0.8"/>
      </g>
     </g>
     <g id="text_3">
      <!-- 4000 -->
      <g transform="translate(190.982533 322.182437) scale(0.1 -0.1)">
       <defs>
        <path id="DejaVuSans-34" d="M 2419 4116 
L 825 1625 
L 2419 1625 
L 2419 4116 
z
M 2253 4666 
L 3047 4666 
L 3047 1625 
L 3713 1625 
L 3713 1100 
L 3047 1100 
L 3047 0 
L 2419 0 
L 2419 1100 
L 313 1100 
L 313 1709 
L 2253 4666 
z
" transform="scale(0.015625)"/>
       </defs>
       <use xlink:href="#DejaVuSans-34"/>
       <use xlink:href="#DejaVuSans-30" x="63.623047"/>
       <use xlink:href="#DejaVuSans-30" x="127.246094"/>
       <use xlink:href="#DejaVuSans-30" x="190.869141"/>
      </g>
     </g>
    </g>
    <g id="xtick_4">
     <g id="line2d_4">
      <g>
       <use xlink:href="#mbfad7d271d" x="268.644936" y="307.584" style="stroke: #000000; stroke-width: 0.8"/>
      </g>
     </g>
     <g id="text_4">
      <!-- 6000 -->
      <g transform="translate(255.919936 322.182437) scale(0.1 -0.1)">
       <defs>
        <path id="DejaVuSans-36" d="M 2113 2584 
Q 1688 2584 1439 2293 
Q 1191 2003 1191 1497 
Q 1191 994 1439 701 
Q 1688 409 2113 409 
Q 2538 409 2786 701 
Q 3034 994 3034 1497 
Q 3034 2003 2786 2293 
Q 2538 2584 2113 2584 
z
M 3366 4563 
L 3366 3988 
Q 3128 4100 2886 4159 
Q 2644 4219 2406 4219 
Q 1781 4219 1451 3797 
Q 1122 3375 1075 2522 
Q 1259 2794 1537 2939 
Q 1816 3084 2150 3084 
Q 2853 3084 3261 2657 
Q 3669 2231 3669 1497 
Q 3669 778 3244 343 
Q 2819 -91 2113 -91 
Q 1303 -91 875 529 
Q 447 1150 447 2328 
Q 447 3434 972 4092 
Q 1497 4750 2381 4750 
Q 2619 4750 2861 4703 
Q 3103 4656 3366 4563 
z
" transform="scale(0.015625)"/>
       </defs>
       <use xlink:href="#DejaVuSans-36"/>
       <use xlink:href="#DejaVuSans-30" x="63.623047"/>
       <use xlink:href="#DejaVuSans-30" x="127.246094"/>
       <use xlink:href="#DejaVuSans-30" x="190.869141"/>
      </g>
     </g>
    </g>
    <g id="xtick_5">
     <g id="line2d_5">
      <g>
       <use xlink:href="#mbfad7d271d" x="333.582339" y="307.584" style="stroke: #000000; stroke-width: 0.8"/>
      </g>
     </g>
     <g id="text_5">
      <!-- 8000 -->
      <g transform="translate(320.857339 322.182437) scale(0.1 -0.1)">
       <defs>
        <path id="DejaVuSans-38" d="M 2034 2216 
Q 1584 2216 1326 1975 
Q 1069 1734 1069 1313 
Q 1069 891 1326 650 
Q 1584 409 2034 409 
Q 2484 409 2743 651 
Q 3003 894 3003 1313 
Q 3003 1734 2745 1975 
Q 2488 2216 2034 2216 
z
M 1403 2484 
Q 997 2584 770 2862 
Q 544 3141 544 3541 
Q 544 4100 942 4425 
Q 1341 4750 2034 4750 
Q 2731 4750 3128 4425 
Q 3525 4100 3525 3541 
Q 3525 3141 3298 2862 
Q 3072 2584 2669 2484 
Q 3125 2378 3379 2068 
Q 3634 1759 3634 1313 
Q 3634 634 3220 271 
Q 2806 -91 2034 -91 
Q 1263 -91 848 271 
Q 434 634 434 1313 
Q 434 1759 690 2068 
Q 947 2378 1403 2484 
z
M 1172 3481 
Q 1172 3119 1398 2916 
Q 1625 2713 2034 2713 
Q 2441 2713 2670 2916 
Q 2900 3119 2900 3481 
Q 2900 3844 2670 4047 
Q 2441 4250 2034 4250 
Q 1625 4250 1398 4047 
Q 1172 3844 1172 3481 
z
" transform="scale(0.015625)"/>
       </defs>
       <use xlink:href="#DejaVuSans-38"/>
       <use xlink:href="#DejaVuSans-30" x="63.623047"/>
       <use xlink:href="#DejaVuSans-30" x="127.246094"/>
       <use xlink:href="#DejaVuSans-30" x="190.869141"/>
      </g>
     </g>
    </g>
    <g id="xtick_6">
     <g id="line2d_6">
      <g>
       <use xlink:href="#mbfad7d271d" x="398.519741" y="307.584" style="stroke: #000000; stroke-width: 0.8"/>
      </g>
     </g>
     <g id="text_6">
      <!-- 10000 -->
      <g transform="translate(382.613491 322.182437) scale(0.1 -0.1)">
       <defs>
        <path id="DejaVuSans-31" d="M 794 531 
L 1825 531 
L 1825 4091 
L 703 3866 
L 703 4441 
L 1819 4666 
L 2450 4666 
L 2450 531 
L 3481 531 
L 3481 0 
L 794 0 
L 794 531 
z
" transform="scale(0.015625)"/>
       </defs>
       <use xlink:href="#DejaVuSans-31"/>
       <use xlink:href="#DejaVuSans-30" x="63.623047"/>
       <use xlink:href="#DejaVuSans-30" x="127.246094"/>
       <use xlink:href="#DejaVuSans-30" x="190.869141"/>
       <use xlink:href="#DejaVuSans-30" x="254.492188"/>
      </g>
     </g>
    </g>
   </g>
   <g id="matplotlib.axis_2">
    <g id="ytick_1">
     <g id="line2d_7">
      <defs>
       <path id="ma56eb39340" d="M 0 0 
L -3.5 0 
" style="stroke: #000000; stroke-width: 0.8"/>
      </defs>
      <g>
       <use xlink:href="#ma56eb39340" x="57.6" y="295.488" style="stroke: #000000; stroke-width: 0.8"/>
      </g>
     </g>
     <g id="text_7">
      <!-- −300 -->
      <g transform="translate(23.132812 299.287219) scale(0.1 -0.1)">
       <defs>
        <path id="DejaVuSans-2212" d="M 678 2272 
L 4684 2272 
L 4684 1741 
L 678 1741 
L 678 2272 
z
" transform="scale(0.015625)"/>
        <path id="DejaVuSans-33" d="M 2597 2516 
Q 3050 2419 3304 2112 
Q 3559 1806 3559 1356 
Q 3559 666 3084 287 
Q 2609 -91 1734 -91 
Q 1441 -91 1130 -33 
Q 819 25 488 141 
L 488 750 
Q 750 597 1062 519 
Q 1375 441 1716 441 
Q 2309 441 2620 675 
Q 2931 909 2931 1356 
Q 2931 1769 2642 2001 
Q 2353 2234 1838 2234 
L 1294 2234 
L 1294 2753 
L 1863 2753 
Q 2328 2753 2575 2939 
Q 2822 3125 2822 3475 
Q 2822 3834 2567 4026 
Q 2313 4219 1838 4219 
Q 1578 4219 1281 4162 
Q 984 4106 628 3988 
L 628 4550 
Q 988 4650 1302 4700 
Q 1616 4750 1894 4750 
Q 2613 4750 3031 4423 
Q 3450 4097 3450 3541 
Q 3450 3153 3228 2886 
Q 3006 2619 2597 2516 
z
" transform="scale(0.015625)"/>
       </defs>
       <use xlink:href="#DejaVuSans-2212"/>
       <use xlink:href="#DejaVuSans-33" x="83.789062"/>
       <use xlink:href="#DejaVuSans-30" x="147.412109"/>
       <use xlink:href="#DejaVuSans-30" x="211.035156"/>
      </g>
     </g>
    </g>
    <g id="ytick_2">
     <g id="line2d_8">
      <g>
       <use xlink:href="#ma56eb39340" x="57.6" y="265.856046" style="stroke: #000000; stroke-width: 0.8"/>
      </g>
     </g>
     <g id="text_8">
      <!-- −250 -->
      <g transform="translate(23.132812 269.655265) scale(0.1 -0.1)">
       <defs>
        <path id="DejaVuSans-35" d="M 691 4666 
L 3169 4666 
L 3169 4134 
L 1269 4134 
L 1269 2991 
Q 1406 3038 1543 3061 
Q 1681 3084 1819 3084 
Q 2600 3084 3056 2656 
Q 3513 2228 3513 1497 
Q 3513 744 3044 326 
Q 2575 -91 1722 -91 
Q 1428 -91 1123 -41 
Q 819 9 494 109 
L 494 744 
Q 775 591 1075 516 
Q 1375 441 1709 441 
Q 2250 441 2565 725 
Q 2881 1009 2881 1497 
Q 2881 1984 2565 2268 
Q 2250 2553 1709 2553 
Q 1456 2553 1204 2497 
Q 953 2441 691 2322 
L 691 4666 
z
" transform="scale(0.015625)"/>
       </defs>
       <use xlink:href="#DejaVuSans-2212"/>
       <use xlink:href="#DejaVuSans-32" x="83.789062"/>
       <use xlink:href="#DejaVuSans-35" x="147.412109"/>
       <use xlink:href="#DejaVuSans-30" x="211.035156"/>
      </g>
     </g>
    </g>
    <g id="ytick_3">
     <g id="line2d_9">
      <g>
       <use xlink:href="#ma56eb39340" x="57.6" y="236.224092" style="stroke: #000000; stroke-width: 0.8"/>
      </g>
     </g>
     <g id="text_9">
      <!-- −200 -->
      <g transform="translate(23.132812 240.02331) scale(0.1 -0.1)">
       <use xlink:href="#DejaVuSans-2212"/>
       <use xlink:href="#DejaVuSans-32" x="83.789062"/>
       <use xlink:href="#DejaVuSans-30" x="147.412109"/>
       <use xlink:href="#DejaVuSans-30" x="211.035156"/>
      </g>
     </g>
    </g>
    <g id="ytick_4">
     <g id="line2d_10">
      <g>
       <use xlink:href="#ma56eb39340" x="57.6" y="206.592137" style="stroke: #000000; stroke-width: 0.8"/>
      </g>
     </g>
     <g id="text_10">
      <!-- −150 -->
      <g transform="translate(23.132812 210.391356) scale(0.1 -0.1)">
       <use xlink:href="#DejaVuSans-2212"/>
       <use xlink:href="#DejaVuSans-31" x="83.789062"/>
       <use xlink:href="#DejaVuSans-35" x="147.412109"/>
       <use xlink:href="#DejaVuSans-30" x="211.035156"/>
      </g>
     </g>
    </g>
    <g id="ytick_5">
     <g id="line2d_11">
      <g>
       <use xlink:href="#ma56eb39340" x="57.6" y="176.960183" style="stroke: #000000; stroke-width: 0.8"/>
      </g>
     </g>
     <g id="text_11">
      <!-- −100 -->
      <g transform="translate(23.132812 180.759402) scale(0.1 -0.1)">
       <use xlink:href="#DejaVuSans-2212"/>
       <use xlink:href="#DejaVuSans-31" x="83.789062"/>
       <use xlink:href="#DejaVuSans-30" x="147.412109"/>
       <use xlink:href="#DejaVuSans-30" x="211.035156"/>
      </g>
     </g>
    </g>
    <g id="ytick_6">
     <g id="line2d_12">
      <g>
       <use xlink:href="#ma56eb39340" x="57.6" y="147.328229" style="stroke: #000000; stroke-width: 0.8"/>
      </g>
     </g>
     <g id="text_12">
      <!-- −50 -->
      <g transform="translate(29.495313 151.127448) scale(0.1 -0.1)">
       <use xlink:href="#DejaVuSans-2212"/>
       <use xlink:href="#DejaVuSans-35" x="83.789062"/>
       <use xlink:href="#DejaVuSans-30" x="147.412109"/>
      </g>
     </g>
    </g>
    <g id="ytick_7">
     <g id="line2d_13">
      <g>
       <use xlink:href="#ma56eb39340" x="57.6" y="117.696275" style="stroke: #000000; stroke-width: 0.8"/>
      </g>
     </g>
     <g id="text_13">
      <!-- 0 -->
      <g transform="translate(44.2375 121.495494) scale(0.1 -0.1)">
       <use xlink:href="#DejaVuSans-30"/>
      </g>
     </g>
    </g>
    <g id="ytick_8">
     <g id="line2d_14">
      <g>
       <use xlink:href="#ma56eb39340" x="57.6" y="88.064321" style="stroke: #000000; stroke-width: 0.8"/>
      </g>
     </g>
     <g id="text_14">
      <!-- 50 -->
      <g transform="translate(37.875 91.863539) scale(0.1 -0.1)">
       <use xlink:href="#DejaVuSans-35"/>
       <use xlink:href="#DejaVuSans-30" x="63.623047"/>
      </g>
     </g>
    </g>
    <g id="ytick_9">
     <g id="line2d_15">
      <g>
       <use xlink:href="#ma56eb39340" x="57.6" y="58.432367" style="stroke: #000000; stroke-width: 0.8"/>
      </g>
     </g>
     <g id="text_15">
      <!-- 100 -->
      <g transform="translate(31.5125 62.231585) scale(0.1 -0.1)">
       <use xlink:href="#DejaVuSans-31"/>
       <use xlink:href="#DejaVuSans-30" x="63.623047"/>
       <use xlink:href="#DejaVuSans-30" x="127.246094"/>
      </g>
     </g>
    </g>
   </g>
   <g id="line2d_16">
    <path d="M 73.832727 112.546998 
L 73.865196 295.488 
L 73.897665 88.366806 
L 73.930133 116.608957 
L 73.962602 113.398315 
L 73.995071 89.332089 
L 74.060008 117.140144 
L 74.124946 113.149546 
L 74.157414 295.488 
L 74.222352 116.978065 
L 74.25482 119.177579 
L 74.287289 97.952175 
L 74.352226 99.526485 
L 74.384695 117.069541 
L 74.417164 295.488 
L 74.449633 112.019889 
L 74.482101 117.140144 
L 74.51457 116.904637 
L 74.547039 117.140144 
L 74.611976 95.088313 
L 74.676914 295.488 
L 74.709382 92.131616 
L 74.806788 117.069541 
L 74.839257 102.617835 
L 74.904194 113.604045 
L 75.001601 295.488 
L 75.034069 101.714545 
L 75.131475 103.87914 
L 75.163944 112.790642 
L 75.196413 99.654702 
L 75.228881 91.797185 
L 75.26135 96.527158 
L 75.293819 295.488 
L 75.358756 116.266846 
L 75.423694 103.038455 
L 75.456162 116.266846 
L 75.488631 113.604045 
L 75.5211 93.811763 
L 75.553568 117.140144 
L 75.618506 295.488 
L 75.650975 117.069541 
L 75.683443 95.769316 
L 75.748381 295.488 
L 75.780849 110.557487 
L 75.813318 118.535414 
L 75.845787 100.240213 
L 75.878255 295.488 
L 75.943193 118.278834 
L 76.105536 93.240545 
L 76.138005 117.069541 
L 76.202942 116.536606 
L 76.235411 103.487531 
L 76.332817 295.488 
L 76.365286 94.501829 
L 76.462692 113.604045 
L 76.495161 111.498979 
L 76.527629 295.488 
L 76.560098 96.095991 
L 76.592567 116.266846 
L 76.625036 115.654967 
L 76.657504 119.107082 
L 76.689973 295.488 
L 76.75491 113.398315 
L 76.787379 116.266846 
L 76.819848 114.131466 
L 76.852317 295.488 
L 76.917254 95.361728 
L 76.949723 115.205173 
L 77.01466 99.654702 
L 77.079597 295.488 
L 77.112066 117.069541 
L 77.177004 117.140144 
L 77.209472 102.055425 
L 77.339347 117.069541 
L 77.371816 111.498979 
L 77.469222 107.721363 
L 77.501691 295.488 
L 77.631565 82.498357 
L 77.76144 120.161349 
L 77.793909 113.353124 
L 77.923784 295.488 
L 77.956252 295.488 
L 78.053658 95.189551 
L 78.086127 110.015649 
L 78.118596 119.376122 
L 78.151065 99.262236 
L 78.183533 82.500988 
L 78.248471 94.629615 
L 78.280939 122.361203 
L 78.345877 121.337007 
L 78.378345 103.11389 
L 78.410814 157.426543 
L 78.475752 102.459031 
L 78.573158 110.644969 
L 78.605626 89.844662 
L 78.638095 115.26493 
L 78.670564 109.482197 
L 78.735501 113.647459 
L 78.76797 97.352666 
L 78.800439 114.895723 
L 78.832907 101.382825 
L 78.865376 114.311014 
L 78.897845 97.118177 
L 78.930313 93.777428 
L 78.962782 96.782632 
L 78.995251 126.339762 
L 79.060188 93.759463 
L 79.092657 117.061509 
L 79.125126 117.061509 
L 79.190063 93.759463 
L 79.255 103.139994 
L 79.319938 93.777428 
L 79.384875 118.595496 
L 79.449813 117.061509 
L 79.482281 93.803559 
L 79.579687 95.15844 
L 79.612156 128.952145 
L 79.677094 95.872219 
L 79.709562 94.460565 
L 79.839437 106.44071 
L 79.936843 95.15844 
L 79.969312 295.488 
L 80.034249 117.735962 
L 80.066718 104.294023 
L 80.099187 104.967525 
L 80.131655 295.488 
L 80.196593 118.349859 
L 80.26153 119.177579 
L 80.326468 103.139994 
L 80.358936 103.139994 
L 80.456342 119.177579 
L 80.488811 295.488 
L 80.52128 103.269476 
L 80.553748 105.500655 
L 80.618686 102.694159 
L 80.683623 119.177579 
L 80.716092 119.177579 
L 80.748561 97.800767 
L 80.813498 118.349859 
L 80.845967 295.488 
L 80.910904 119.177579 
L 80.943373 103.70009 
L 80.975842 295.488 
L 81.00831 103.139994 
L 81.040779 119.177579 
L 81.073248 118.349859 
L 81.105716 119.177579 
L 81.138185 103.84002 
L 81.203122 118.349859 
L 81.235591 118.349859 
L 81.300529 119.177579 
L 81.332997 118.349859 
L 81.365466 116.241558 
L 81.430403 119.177579 
L 81.462872 295.488 
L 81.495341 118.349859 
L 81.52781 118.349859 
L 81.657684 119.177579 
L 81.722622 118.349859 
L 81.787559 104.25432 
L 81.820028 295.488 
L 81.884965 118.349859 
L 81.949903 119.177579 
L 82.01484 119.177579 
L 82.047309 117.059332 
L 82.112246 119.177579 
L 82.144715 119.177579 
L 82.177184 103.70009 
L 82.242121 119.177579 
L 82.27459 119.177579 
L 82.307058 295.488 
L 82.339527 118.349859 
L 82.371996 118.349859 
L 82.469402 119.177579 
L 82.501871 295.488 
L 82.534339 118.349859 
L 82.566808 119.177579 
L 82.599277 119.177579 
L 82.631745 295.488 
L 82.696683 119.177579 
L 82.729151 118.349859 
L 82.76162 119.177579 
L 82.794089 295.488 
L 82.859026 119.177579 
L 82.891495 119.177579 
L 82.956432 118.349859 
L 83.02137 295.488 
L 83.053838 295.488 
L 83.183713 119.177579 
L 83.346057 119.177579 
L 83.378525 120.022244 
L 83.410994 295.488 
L 83.443463 119.177579 
L 83.475932 119.177579 
L 83.5084 119.177579 
L 83.540869 118.595496 
L 83.605806 119.177579 
L 83.76815 119.177579 
L 83.800619 295.488 
L 83.865556 119.177579 
L 83.930493 119.177579 
L 83.962962 295.488 
L 84.0279 119.177579 
L 84.060368 118.349859 
L 84.125306 119.177579 
L 84.222712 119.177579 
L 84.352587 295.488 
L 84.449993 295.488 
L 84.579867 119.177579 
L 84.709742 295.488 
L 84.742211 295.488 
L 84.77468 119.177579 
L 84.839617 295.488 
L 85.001961 295.488 
L 85.131835 119.177579 
L 85.164304 295.488 
L 85.229241 119.177579 
L 85.553928 119.177579 
L 85.618866 295.488 
L 85.651335 118.349859 
L 85.748741 119.177579 
L 85.846147 295.488 
L 85.976022 118.349859 
L 86.105896 295.488 
L 86.138365 295.488 
L 86.203303 118.349859 
L 86.235771 119.177579 
L 86.300709 118.349859 
L 86.333177 295.488 
L 86.398115 118.349859 
L 86.430583 120.022244 
L 86.495521 295.488 
L 86.52799 119.177579 
L 86.625396 118.349859 
L 86.657864 119.177579 
L 86.75527 295.488 
L 86.885145 118.349859 
L 86.917614 118.349859 
L 86.950083 119.177579 
L 86.982551 118.349859 
L 87.047489 295.488 
L 87.079957 118.349859 
L 87.112426 118.349859 
L 87.242301 295.488 
L 87.27477 295.488 
L 87.404644 102.867024 
L 87.437113 102.867024 
L 87.534519 118.349859 
L 87.566988 117.769144 
L 87.599457 118.349859 
L 87.631925 117.769144 
L 87.729331 295.488 
L 87.826738 101.88185 
L 87.859206 117.293937 
L 87.891675 117.769144 
L 87.924144 114.98723 
L 87.989081 98.605318 
L 88.02155 113.884555 
L 88.054018 112.891089 
L 88.118956 93.93835 
L 88.183893 99.090475 
L 88.281299 95.18247 
L 88.313768 115.422988 
L 88.346237 98.036794 
L 88.411174 99.090475 
L 88.476112 98.036794 
L 88.541049 114.421617 
L 88.703393 89.994217 
L 88.800799 86.2331 
L 88.833267 122.166386 
L 88.930673 88.519756 
L 88.963142 101.35728 
L 88.995611 85.649625 
L 89.060548 102.697256 
L 89.093017 87.207708 
L 89.222892 98.803144 
L 89.25536 90.049304 
L 89.287829 101.05853 
L 89.320298 98.803144 
L 89.450173 106.307508 
L 89.580047 102.437815 
L 89.742391 107.819932 
L 89.77486 104.23926 
L 89.807328 108.12528 
L 89.937203 114.46726 
L 89.969672 114.46726 
L 90.099547 112.601018 
L 90.229421 114.46726 
L 90.294359 112.601018 
L 90.326828 114.46726 
L 90.716452 114.46726 
L 90.813858 114.088899 
L 90.911264 106.024751 
L 90.976202 107.148728 
L 91.106076 108.260591 
L 98.02191 108.260591 
L 98.054379 104.852317 
L 98.119316 108.260591 
L 98.184253 108.260591 
L 98.216722 105.000611 
L 98.281659 108.260586 
L 98.411534 108.260591 
L 98.444003 104.852317 
L 98.50894 108.260591 
L 98.606346 108.260591 
L 98.736221 104.852317 
L 98.76869 104.852317 
L 98.833627 108.260586 
L 98.866096 104.852317 
L 98.963502 105.000611 
L 98.995971 104.852317 
L 99.02844 108.260591 
L 99.093377 104.94436 
L 99.158314 105.000611 
L 99.223252 104.852317 
L 99.872626 104.852317 
L 99.905095 105.000611 
L 99.970032 104.852317 
L 101.00903 104.852317 
L 101.041499 106.093522 
L 101.106436 104.852317 
L 101.52853 104.852317 
L 101.560998 105.201161 
L 101.625936 104.852317 
L 101.788279 104.852317 
L 101.820748 106.198499 
L 101.885685 104.852317 
L 102.567528 104.852317 
L 102.599997 105.547049 
L 102.664934 104.852317 
L 103.833807 104.852317 
L 103.866276 108.071052 
L 103.931213 104.852317 
L 104.645525 104.852317 
L 104.677994 107.884807 
L 104.742931 104.852317 
L 105.035149 104.852317 
L 105.067618 107.884807 
L 105.132555 104.852317 
L 105.52218 104.852317 
L 105.652055 107.884807 
L 105.749461 107.884807 
L 105.846867 104.852317 
L 105.879336 107.884807 
L 105.944273 104.852317 
L 105.976742 104.852317 
L 106.106616 107.884807 
L 106.139085 107.884807 
L 106.204023 104.852317 
L 106.236491 107.884807 
L 106.301429 107.884807 
L 106.366366 104.852317 
L 106.398835 107.884807 
L 106.431303 107.884807 
L 106.463772 104.852317 
L 106.52871 107.884807 
L 106.755991 107.884807 
L 106.853397 104.852317 
L 106.983271 107.884807 
L 107.210552 107.884807 
L 107.243021 111.560841 
L 107.340427 111.508933 
L 107.437833 106.093522 
L 107.502771 111.560841 
L 107.535239 107.884807 
L 107.567708 107.884807 
L 107.665114 111.508933 
L 107.730052 111.560841 
L 107.76252 104.852317 
L 107.827458 111.560841 
L 107.859926 111.508933 
L 108.02227 98.386062 
L 108.087207 98.386062 
L 108.119676 105.352884 
L 108.184613 98.386062 
L 108.282019 98.386062 
L 108.379426 108.017576 
L 108.5093 98.386062 
L 108.574238 105.677205 
L 108.639175 104.919666 
L 108.736581 98.386062 
L 108.866456 101.593972 
L 108.963862 98.386062 
L 108.996331 101.593972 
L 109.061268 98.386062 
L 109.093737 98.386062 
L 109.126206 101.593972 
L 109.191143 98.386062 
L 109.223612 98.386062 
L 109.256081 98.955923 
L 109.321018 103.50857 
L 109.353487 98.386062 
L 109.385955 98.386062 
L 109.418424 101.593972 
L 109.483361 98.386062 
L 109.580768 98.386062 
L 109.645705 101.593972 
L 109.678174 101.495859 
L 109.710642 98.386062 
L 109.743111 101.593972 
L 109.77558 101.593972 
L 110.847047 101.593972 
L 110.879516 101.816137 
L 110.944453 101.593972 
L 111.139265 101.593972 
L 111.171734 101.816137 
L 111.236671 101.593972 
L 111.301609 101.593972 
L 111.334077 96.063073 
L 111.366546 101.816137 
L 111.399015 101.593972 
L 111.463952 101.816137 
L 111.496421 101.593972 
L 111.593827 101.593972 
L 111.626296 95.88716 
L 111.691233 101.593972 
L 111.723702 101.816137 
L 111.788639 101.593972 
L 111.821108 101.593972 
L 111.853577 101.816137 
L 111.886045 96.203572 
L 111.950983 101.593972 
L 112.01592 101.593972 
L 112.080858 101.816137 
L 112.113326 101.593972 
L 112.178264 101.593972 
L 112.243201 101.816137 
L 112.27567 101.593972 
L 112.340607 101.593972 
L 112.373076 102.045634 
L 112.438013 101.593972 
L 112.535419 101.593972 
L 112.567888 101.816137 
L 112.600357 95.88716 
L 112.665294 101.593972 
L 112.697763 101.816137 
L 112.7627 92.399609 
L 112.795169 101.593972 
L 112.860106 101.593972 
L 112.892575 92.370786 
L 112.925044 102.045634 
L 112.957512 101.816137 
L 112.989981 101.816137 
L 113.054919 101.593972 
L 113.119856 101.816137 
L 113.184793 93.70085 
L 113.217262 92.663116 
L 113.347137 101.593972 
L 113.379606 101.593972 
L 113.50948 92.663116 
L 113.639355 101.593972 
L 113.671824 101.593972 
L 113.704293 92.370786 
L 113.801699 94.102094 
L 113.931574 102.282577 
L 113.964042 92.370786 
L 114.02898 101.593972 
L 114.061448 102.045634 
L 114.093917 101.593972 
L 114.126386 92.370786 
L 114.158854 102.045634 
L 114.191323 101.816137 
L 114.223792 101.816137 
L 114.256261 92.370786 
L 114.321198 102.045634 
L 114.353667 102.045634 
L 114.483541 92.370786 
L 114.51601 92.370786 
L 114.580948 101.816137 
L 114.613416 92.370786 
L 114.645885 92.663116 
L 114.710822 92.370786 
L 114.840697 102.282577 
L 114.970572 92.370786 
L 115.003041 102.045634 
L 115.067978 92.370786 
L 115.100447 92.370786 
L 115.230322 92.961152 
L 115.327728 103.677735 
L 115.392665 92.663116 
L 115.457602 92.961152 
L 115.490071 92.370786 
L 115.52254 96.855406 
L 115.587477 96.52627 
L 115.619946 92.663116 
L 115.684883 96.52627 
L 115.717352 96.855406 
L 115.749821 92.961152 
L 115.814758 96.23463 
L 115.847227 96.203572 
L 115.879696 92.370786 
L 115.912164 97.411337 
L 115.944633 97.191134 
L 116.042039 97.533616 
L 116.074508 97.10286 
L 116.139445 97.191134 
L 116.26932 98.974536 
L 116.301789 93.454943 
L 116.366726 97.533616 
L 116.431664 99.353432 
L 116.464132 98.974536 
L 116.496601 97.794635 
L 116.52907 99.623583 
L 116.561538 100.538117 
L 116.594007 97.378521 
L 116.658944 99.485426 
L 116.691413 99.338451 
L 116.723882 99.353432 
L 116.756351 96.591397 
L 116.821288 99.623583 
L 116.886225 98.674901 
L 116.918694 101.370105 
L 116.983631 100.646551 
L 117.048569 96.977625 
L 117.081038 100.646551 
L 117.113506 102.335202 
L 117.145975 101.750503 
L 117.210912 98.239521 
L 117.27585 99.3627 
L 117.308318 98.334914 
L 117.340787 103.575364 
L 117.405725 97.491686 
L 117.503131 102.335202 
L 117.568068 100.538117 
L 117.600537 100.603595 
L 117.633005 99.338451 
L 117.665474 99.353432 
L 117.697943 101.370105 
L 117.76288 99.353432 
L 117.827818 100.135009 
L 117.957692 96.196057 
L 117.990161 99.740186 
L 118.055099 95.872902 
L 118.120036 101.03521 
L 118.152505 98.104151 
L 118.217442 99.338451 
L 118.249911 96.24517 
L 118.314848 99.485426 
L 118.347317 95.872902 
L 118.379786 95.739079 
L 118.412254 100.949738 
L 118.477192 95.301447 
L 118.50966 95.872902 
L 118.542129 94.065182 
L 118.639535 100.710159 
L 118.672004 95.12282 
L 118.736941 96.462745 
L 118.76941 97.628619 
L 118.866816 93.689399 
L 118.899285 101.135968 
L 118.964222 98.764585 
L 119.02916 94.029041 
L 119.061628 99.465105 
L 119.094097 96.393032 
L 119.191503 95.872902 
L 119.223972 99.72086 
L 119.288909 94.682034 
L 119.353847 95.708968 
L 119.386315 93.626625 
L 119.418784 95.872902 
L 119.451253 94.146305 
L 119.51619 96.339771 
L 119.548659 93.183725 
L 119.613596 95.23454 
L 119.646065 98.844386 
L 119.678534 94.098804 
L 119.711002 95.301447 
L 119.743471 94.682034 
L 119.77594 96.462745 
L 119.808408 94.210447 
L 119.840877 94.747554 
L 119.905815 94.747554 
L 119.938283 95.23454 
L 120.068158 98.176016 
L 120.100627 94.210447 
L 120.198033 95.872902 
L 120.230502 95.23454 
L 120.26297 95.872902 
L 120.295439 98.351725 
L 120.360376 97.701182 
L 120.425314 95.301447 
L 120.457783 98.277721 
L 120.490251 95.184177 
L 120.52272 92.589442 
L 120.555189 96.300258 
L 120.620126 98.277721 
L 120.652595 96.462745 
L 120.717532 93.626625 
L 120.750001 96.946001 
L 120.78247 101.370105 
L 120.814938 95.23454 
L 120.847407 95.301447 
L 120.879876 93.689399 
L 120.944813 95.75279 
L 120.977282 94.747554 
L 121.00975 95.872902 
L 121.074688 94.747554 
L 121.139625 101.816689 
L 121.204563 94.210447 
L 121.237031 97.628619 
L 121.334437 100.596633 
L 121.366906 94.098804 
L 121.431844 99.024565 
L 121.496781 95.872902 
L 121.52925 100.603595 
L 121.594187 99.885126 
L 121.691593 93.689399 
L 121.724062 96.462745 
L 121.756531 100.168191 
L 121.788999 98.277721 
L 121.821468 92.692782 
L 121.886405 94.747554 
L 121.951343 101.370105 
L 122.01628 97.499059 
L 122.048749 94.747554 
L 122.146155 95.872902 
L 122.178624 94.043352 
L 122.308498 100.89376 
L 122.340967 94.098804 
L 122.373436 101.135968 
L 122.438373 96.904994 
L 122.470842 97.628619 
L 122.535779 100.538117 
L 122.600717 93.122309 
L 122.730592 98.176016 
L 122.827998 94.747554 
L 122.860466 95.301447 
L 123.02281 97.701182 
L 123.055279 97.000725 
L 123.087747 102.335202 
L 123.185153 100.206759 
L 123.217622 101.187949 
L 123.28256 94.682034 
L 123.315028 98.226554 
L 123.347497 101.187949 
L 123.379966 96.843772 
L 123.412434 98.226554 
L 123.477372 100.646551 
L 123.574778 102.943109 
L 123.542309 100.125384 
L 123.639715 101.750503 
L 123.672184 99.465105 
L 123.737121 101.187949 
L 123.76959 102.335202 
L 123.834527 98.674901 
L 123.866996 99.140341 
L 123.899465 102.943109 
L 123.964402 99.623583 
L 124.02934 100.646551 
L 124.061808 99.140341 
L 124.094277 102.943109 
L 124.159214 101.750503 
L 124.191683 98.674901 
L 124.256621 101.750503 
L 124.321558 99.140341 
L 124.451433 103.575364 
L 124.483901 99.623583 
L 124.581308 99.740186 
L 124.613776 102.015441 
L 124.646245 98.577992 
L 124.678714 101.570974 
L 124.808588 99.885126 
L 124.841057 99.885126 
L 124.873526 102.38769 
L 124.938463 100.949738 
L 125.003401 99.353432 
L 125.035869 102.469642 
L 125.133276 101.476246 
L 125.230682 100.135009 
L 125.26315 100.603595 
L 125.360556 100.949738 
L 125.457963 98.966243 
L 125.425494 101.135968 
L 125.5229 99.767588 
L 125.587837 102.469642 
L 125.685243 101.370105 
L 125.717712 99.338451 
L 125.78265 100.949738 
L 125.944993 98.197732 
L 125.977462 101.034468 
L 126.042399 100.710159 
L 126.074868 99.740186 
L 126.107337 101.476246 
L 126.139805 103.40841 
L 126.172274 99.885126 
L 126.204743 101.370105 
L 126.237211 98.334914 
L 126.302149 100.293293 
L 126.334617 99.885126 
L 126.367086 100.603595 
L 126.399555 96.657982 
L 126.464492 99.740186 
L 126.496961 98.577992 
L 126.52943 99.885126 
L 126.659304 102.686189 
L 126.756711 99.338451 
L 126.789179 99.485426 
L 126.854117 102.38769 
L 126.886585 100.135009 
L 126.919054 98.966243 
L 126.951523 100.596633 
L 126.983991 100.135009 
L 127.048929 100.596633 
L 127.081398 105.091489 
L 127.113866 100.293293 
L 127.146335 100.710159 
L 127.178804 99.353432 
L 127.211272 102.469642 
L 127.243741 101.370105 
L 127.27621 96.002379 
L 127.308679 102.015441 
L 127.341147 97.036431 
L 127.471022 105.091489 
L 127.535959 95.828611 
L 127.600897 99.093967 
L 127.633366 96.371117 
L 127.76324 107.593711 
L 127.795709 95.46862 
L 127.893115 96.196057 
L 127.958053 102.38769 
L 128.02299 101.476246 
L 128.055459 99.885126 
L 128.152865 100.168191 
L 128.185333 100.603595 
L 128.217802 99.740186 
L 128.28274 97.036431 
L 128.347677 105.4198 
L 128.412614 105.091489 
L 128.542489 96.002379 
L 128.574958 95.357423 
L 128.607427 105.757462 
L 128.704833 104.160698 
L 128.737301 105.585347 
L 128.76977 93.619805 
L 128.867176 96.954128 
L 128.932114 94.345067 
L 128.997051 95.027912 
L 129.094457 94.940164 
L 129.126926 96.862276 
L 129.159394 96.105751 
L 129.191863 105.757462 
L 129.256801 96.57116 
L 129.321738 95.218994 
L 129.354207 96.196057 
L 129.386675 96.48008 
L 129.419144 96.28721 
L 129.451613 98.033422 
L 129.51655 95.567906 
L 129.581488 97.422767 
L 129.646425 96.48008 
L 129.678894 94.770243 
L 129.743831 97.131789 
L 129.841237 94.877001 
L 129.873706 95.739079 
L 129.906175 97.228363 
L 129.938643 97.036431 
L 129.971112 94.940164 
L 130.100987 104.160698 
L 130.198393 95.218994 
L 130.230862 95.923916 
L 130.26333 95.828611 
L 130.295799 96.657982 
L 130.328268 103.677735 
L 130.393205 94.940164 
L 130.425674 95.005841 
L 130.490611 102.045634 
L 130.52308 94.213093 
L 130.555549 94.213093 
L 130.685423 92.370786 
L 130.717892 93.265028 
L 130.78283 92.961152 
L 130.912704 92.370786 
L 131.01011 92.663116 
L 131.042579 101.816137 
L 131.107517 92.370786 
L 131.139985 92.663116 
L 131.204923 92.370786 
L 131.302329 92.370786 
L 131.334797 92.663116 
L 131.399735 92.370786 
L 131.464672 92.370786 
L 131.497141 101.816137 
L 131.594547 101.593972 
L 131.724422 92.370786 
L 131.756891 92.370786 
L 131.789359 101.593972 
L 131.854297 92.663116 
L 131.984172 92.370786 
L 132.049109 92.370786 
L 132.178984 104.462126 
L 132.308859 92.370786 
L 132.925764 92.370786 
L 132.958233 107.846462 
L 133.02317 92.370786 
L 133.380326 92.370786 
L 133.412794 92.663116 
L 133.477732 92.370786 
L 135.101167 92.370786 
L 135.231042 107.023497 
L 135.360916 92.370786 
L 135.945353 92.370786 
L 135.977822 107.023497 
L 136.042759 92.370786 
L 136.172634 92.370786 
L 136.205103 91.722101 
L 136.237571 110.281565 
L 136.302509 104.799316 
L 136.334977 91.409251 
L 136.399915 105.533751 
L 136.432384 105.037672 
L 136.464852 105.533751 
L 136.497321 91.409251 
L 136.562258 91.454192 
L 136.659665 105.533751 
L 136.692133 104.799316 
L 136.789539 105.282456 
L 136.822008 91.409251 
L 136.951883 110.281565 
L 137.049289 91.409251 
L 137.081758 101.205224 
L 137.114226 110.281565 
L 137.146695 92.509921 
L 137.179164 92.509921 
L 137.244101 93.65523 
L 137.27657 91.409251 
L 137.309039 92.519982 
L 137.341507 110.281565 
L 137.438913 105.037672 
L 137.536319 91.409251 
L 137.568788 92.503628 
L 137.633726 102.510138 
L 137.666194 92.50111 
L 137.698663 92.50111 
L 137.7636 93.65523 
L 137.893475 111.530609 
L 137.990881 93.65523 
L 138.055819 95.522803 
L 138.153225 97.489702 
L 138.185693 96.493157 
L 138.218162 94.577258 
L 138.380506 104.353914 
L 138.477912 97.247819 
L 138.51038 98.358253 
L 138.575318 96.167823 
L 138.607787 97.247819 
L 138.672724 98.596643 
L 138.705193 96.167823 
L 138.737661 100.650142 
L 138.77013 101.846549 
L 138.802599 92.370786 
L 138.867536 98.358253 
L 138.932474 98.358253 
L 138.964942 92.370786 
L 138.997411 97.247819 
L 139.02988 107.023497 
L 139.062348 92.370786 
L 139.127286 92.370786 
L 139.192223 98.358253 
L 139.224692 92.370786 
L 139.257161 92.370786 
L 139.387035 107.023497 
L 139.51691 92.370786 
L 139.614316 97.247819 
L 139.744191 92.370786 
L 139.77666 98.358253 
L 139.841597 92.370786 
L 139.874066 92.370786 
L 139.939003 99.489013 
L 140.003941 97.247819 
L 140.068878 92.370786 
L 140.101347 111.310231 
L 140.166284 92.370786 
L 140.231222 92.370786 
L 140.26369 99.110747 
L 140.328628 92.370786 
L 140.620846 92.370786 
L 140.718252 100.74423 
L 140.750721 100.66061 
L 140.880596 92.370786 
L 140.913064 92.370786 
L 140.978002 101.561814 
L 141.042939 99.095193 
L 141.107877 102.769959 
L 141.140345 92.370786 
L 141.205283 99.285187 
L 141.27022 101.644453 
L 141.302689 101.378763 
L 141.465032 97.169548 
L 141.594907 104.49727 
L 141.724782 98.800908 
L 141.854657 101.950617 
L 141.887125 100.490789 
L 141.919594 100.391747 
L 142.049469 97.169548 
L 142.114406 101.950617 
L 142.179344 99.629199 
L 142.211812 99.54136 
L 142.309219 100.301043 
L 142.341687 97.169548 
L 142.374156 97.169548 
L 142.406625 101.869587 
L 142.471562 97.972102 
L 142.601437 97.005423 
L 142.633906 97.005423 
L 142.698843 99.629199 
L 142.731312 97.005423 
L 142.828718 99.187667 
L 142.893655 97.005423 
L 142.958593 97.811213 
L 142.991061 97.005423 
L 143.02353 99.54136 
L 143.088467 97.655696 
L 143.153405 97.832781 
L 143.185873 97.005423 
L 143.218342 98.866357 
L 143.28328 97.832781 
L 143.315748 97.005423 
L 143.380686 97.655696 
L 143.478092 99.049979 
L 143.640435 97.005423 
L 143.737841 97.655696 
L 143.77031 97.005423 
L 143.867716 98.630436 
L 143.900185 97.832781 
L 143.965122 98.630436 
L 144.224872 98.630436 
L 144.257341 99.251305 
L 144.322278 98.630436 
L 144.679434 98.630436 
L 144.711902 98.4627 
L 144.77684 98.630436 
L 144.841777 98.630436 
L 144.971652 98.299887 
L 145.101527 98.630436 
L 145.296339 98.630436 
L 145.328808 98.4627 
L 145.393745 98.630436 
L 145.556089 98.630436 
L 145.588557 97.946842 
L 145.685964 98.125413 
L 145.718432 98.4627 
L 145.815838 89.578733 
L 145.913244 98.125413 
L 145.945713 97.283044 
L 146.010651 97.946842 
L 146.043119 89.578993 
L 146.140525 91.074139 
L 146.172994 91.18324 
L 146.205463 97.441517 
L 146.2704 91.405303 
L 146.302869 91.405303 
L 146.367806 98.299887 
L 146.400275 93.095657 
L 146.465212 91.074139 
L 146.497681 93.14561 
L 146.53015 93.929665 
L 146.562618 91.18324 
L 146.660025 91.811262 
L 146.692493 91.811262 
L 146.724962 91.074139 
L 146.757431 91.811262 
L 146.789899 93.608728 
L 146.854837 91.18324 
L 146.919774 91.074139 
L 147.049649 91.811262 
L 147.179524 91.254623 
L 147.374336 91.254623 
L 147.406805 91.811262 
L 147.471742 91.326607 
L 147.536679 91.074139 
L 147.569148 91.254623 
L 147.666554 91.326607 
L 147.699023 91.811262 
L 147.731492 91.254623 
L 147.76396 91.326852 
L 147.796429 91.106512 
L 147.861367 91.254623 
L 147.893835 91.254623 
L 147.926304 91.106512 
L 147.991241 91.254623 
L 148.186054 91.254623 
L 148.218522 91.811262 
L 148.28346 91.106512 
L 148.380866 91.326607 
L 148.413334 91.254623 
L 148.445803 91.074139 
L 148.478272 91.476394 
L 148.543209 91.106512 
L 148.640615 91.326852 
L 148.608147 91.074139 
L 148.673084 91.254623 
L 148.705553 91.326607 
L 148.77049 91.961276 
L 148.802959 91.254623 
L 148.835428 91.811262 
L 148.867896 91.961276 
L 148.900365 91.074139 
L 148.997771 91.18324 
L 149.03024 91.106512 
L 149.062708 91.254623 
L 149.192583 91.254623 
L 149.225052 91.106512 
L 149.289989 91.254623 
L 149.322458 91.18324 
L 149.354927 91.326607 
L 149.387395 91.254623 
L 149.419864 91.254623 
L 149.51727 91.476394 
L 149.549739 91.254623 
L 149.582208 91.811262 
L 149.614676 91.074139 
L 149.647145 91.254623 
L 149.679614 91.326607 
L 149.712082 91.254623 
L 149.809489 91.326607 
L 149.841957 91.106512 
L 149.971832 91.326852 
L 150.101707 91.074139 
L 150.199113 91.254623 
L 150.231582 91.18324 
L 150.296519 91.254623 
L 150.328988 91.811262 
L 150.393925 91.254623 
L 150.426394 91.254623 
L 150.458863 91.106512 
L 150.5238 91.254623 
L 151.400455 91.254623 
L 151.432924 91.811262 
L 151.465392 91.074139 
L 151.497861 91.254623 
L 151.53033 91.254623 
L 151.562798 91.074139 
L 151.627736 91.254623 
L 152.504391 91.254623 
L 152.53686 91.106512 
L 152.601797 91.254623 
L 173.544109 91.254623 
L 173.576578 79.696994 
L 173.641515 86.682635 
L 173.77139 88.170687 
L 174.161015 88.170687 
L 174.225952 87.751573 
L 174.258421 88.170687 
L 174.323358 88.170687 
L 174.355827 87.402904 
L 174.420764 88.170687 
L 174.648045 88.170687 
L 174.745451 87.402904 
L 174.77792 89.87401 
L 174.842857 88.170687 
L 174.875326 87.402904 
L 175.03767 92.262302 
L 175.102607 86.682635 
L 175.167544 88.563022 
L 175.200013 89.932889 
L 175.232482 83.230929 
L 175.329888 84.266717 
L 175.459763 82.702529 
L 175.5247 83.843054 
L 175.557169 83.441572 
L 175.622106 83.843054 
L 175.687044 82.702529 
L 175.719512 82.363843 
L 175.751981 80.53573 
L 175.849387 80.963048 
L 175.881856 80.739921 
L 175.914325 84.266717 
L 175.979262 81.745891 
L 176.011731 80.739921 
L 176.044199 81.205045 
L 176.076668 82.702529 
L 176.141605 81.465949 
L 176.174074 82.045089 
L 176.206543 80.53573 
L 176.27148 80.963048 
L 176.401355 91.254623 
L 182.602877 91.254623 
L 182.635346 100.920894 
L 182.700283 91.254623 
L 183.02497 91.254623 
L 183.057439 100.920894 
L 183.122376 91.254623 
L 183.252251 91.254623 
L 183.28472 100.706323 
L 183.349657 91.254623 
L 183.414595 91.254623 
L 183.512001 100.920894 
L 183.609407 91.254623 
L 183.674344 100.920894 
L 183.706813 91.254623 
L 183.804219 91.254623 
L 183.836688 100.706323 
L 183.901625 91.254623 
L 183.966562 91.254623 
L 183.999031 100.920894 
L 184.063969 91.254623 
L 184.356187 91.254623 
L 184.388656 100.706323 
L 184.453593 91.254623 
L 184.486062 91.254623 
L 184.550999 100.920894 
L 184.583468 91.254623 
L 184.680874 91.254623 
L 184.745811 100.920894 
L 184.77828 91.254623 
L 184.908155 91.254623 
L 185.03803 100.920894 
L 185.070498 91.254623 
L 185.135436 100.706323 
L 185.167904 100.706323 
L 185.232842 100.920894 
L 185.265311 91.254623 
L 185.395185 100.920894 
L 185.427654 100.497349 
L 185.492591 100.920894 
L 186.012091 100.920894 
L 186.109497 97.214722 
L 186.239372 100.920894 
L 186.304309 96.026152 
L 186.369246 96.905237 
L 186.434184 98.003618 
L 186.499121 97.376388 
L 186.53159 98.837352 
L 186.564059 98.003618 
L 186.661465 95.991932 
L 186.791339 98.837352 
L 186.953683 95.574126 
L 186.986152 95.991932 
L 187.245901 95.991932 
L 187.310839 95.699693 
L 187.343307 95.991932 
L 189.51871 95.991932 
L 189.648585 99.477298 
L 189.810929 99.477298 
L 189.843397 99.173348 
L 189.908335 99.477298 
L 190.103147 99.477298 
L 190.135616 91.254623 
L 190.200553 99.477298 
L 190.590178 99.477298 
L 190.622646 91.254623 
L 190.687584 99.477298 
L 190.720052 99.477298 
L 190.752521 99.173348 
L 190.817458 99.477298 
L 191.044739 99.477298 
L 191.077208 99.173348 
L 191.142145 99.477298 
L 191.174614 99.477298 
L 191.207083 99.173348 
L 191.27202 99.477298 
L 192.0188 99.477298 
L 192.051269 91.254623 
L 192.116207 99.477298 
L 192.311019 99.477298 
L 192.343487 91.254623 
L 192.408425 99.477298 
L 192.635706 99.477298 
L 192.668174 99.173348 
L 192.733112 99.477298 
L 192.992861 99.477298 
L 193.02533 91.254623 
L 193.090268 97.462875 
L 193.155205 97.462875 
L 193.187674 91.254623 
L 193.252611 97.571553 
L 193.317548 97.462875 
L 193.350017 100.920894 
L 193.382486 91.254623 
L 193.447423 100.497349 
L 193.544829 100.920894 
L 193.577298 100.706323 
L 193.674704 91.254623 
L 193.77211 100.920894 
L 193.869516 91.254623 
L 193.966923 100.920894 
L 194.096797 91.254623 
L 194.129266 91.254623 
L 194.161735 100.497349 
L 194.226672 91.254623 
L 194.453953 91.254623 
L 194.486422 100.920894 
L 194.551359 91.254623 
L 198.999571 91.254623 
L 199.03204 79.141155 
L 199.064509 93.1108 
L 199.096977 93.071195 
L 199.161915 113.7977 
L 199.194383 93.704072 
L 199.226852 93.612687 
L 199.259321 113.7977 
L 199.324258 89.036746 
L 199.681414 89.036746 
L 199.713883 88.027818 
L 199.843757 78.910392 
L 199.876226 79.447582 
L 200.006101 89.036746 
L 200.03857 89.036746 
L 200.071038 81.121608 
L 200.135976 89.036746 
L 200.363257 89.036746 
L 200.493131 89.502358 
L 200.623006 89.41766 
L 200.687944 89.344999 
L 200.817819 108.260586 
L 201.986692 108.260586 
L 202.116567 103.359727 
L 203.512721 103.359727 
L 203.545189 102.347968 
L 203.610127 103.359727 
L 203.642596 103.359727 
L 203.675064 102.347968 
L 203.707533 103.359727 
L 203.77247 89.558771 
L 203.804939 102.347968 
L 203.869876 102.347968 
L 203.902345 90.535517 
L 203.967283 102.347968 
L 203.999751 103.359727 
L 204.064689 102.347968 
L 204.097157 102.347968 
L 204.194563 89.799916 
L 204.227032 89.911445 
L 204.259501 89.911445 
L 204.29197 90.026766 
L 204.389376 89.996894 
L 204.421844 89.996894 
L 204.486782 90.113154 
L 204.51925 89.996894 
L 204.551719 89.996894 
L 204.681594 90.233108 
L 204.714063 90.113154 
L 204.746531 90.233108 
L 204.876406 90.614294 
L 204.908875 90.483764 
L 204.941344 90.483764 
L 205.136156 90.885331 
L 205.233562 90.885331 
L 205.395905 91.169093 
L 205.493312 91.025664 
L 205.655655 91.315529 
L 205.720592 91.315529 
L 205.817999 91.169093 
L 205.980342 91.464888 
L 206.012811 91.464888 
L 206.142686 80.855128 
L 206.175154 82.166161 
L 206.240092 80.855128 
L 206.27256 81.453124 
L 206.337498 80.855128 
L 206.434904 80.855128 
L 206.53231 81.584968 
L 206.564779 81.453124 
L 206.597247 81.453124 
L 206.759591 82.803422 
L 206.79206 82.803422 
L 206.824528 83.462968 
L 206.856997 82.803422 
L 206.889466 73.666193 
L 206.954403 75.570293 
L 207.01934 73.976888 
L 207.116747 79.245536 
L 207.149215 77.563311 
L 207.181684 83.262883 
L 207.27909 81.548911 
L 207.408965 90.615311 
L 207.344027 81.498876 
L 207.473902 88.980693 
L 207.53884 84.169397 
L 207.636246 94.616462 
L 207.668715 93.564583 
L 207.701183 93.572141 
L 207.733652 94.622862 
L 207.766121 91.564314 
L 207.831058 94.622862 
L 207.863527 93.561574 
L 207.993402 85.008535 
L 208.123276 94.614604 
L 208.188214 94.614604 
L 208.253151 90.635946 
L 208.318089 92.550907 
L 208.350557 93.563032 
L 208.415495 92.550907 
L 208.447963 91.588138 
L 208.480432 94.617209 
L 208.512901 89.747451 
L 208.545369 94.614604 
L 208.577838 89.747451 
L 208.610307 94.617209 
L 208.642776 94.617209 
L 208.675244 93.563032 
L 208.740182 94.614604 
L 208.805119 94.614604 
L 208.837588 88.060134 
L 208.870056 94.617209 
L 208.902525 92.559961 
L 209.064869 94.635512 
L 210.03893 94.670837 
L 210.168805 94.722719 
L 210.655835 94.830741 
L 210.78571 94.87464 
L 210.915585 94.87464 
L 212.01952 94.97408 
L 212.149395 95.02957 
L 212.798769 95.088876 
L 212.863707 95.218879 
L 212.928644 95.151984 
L 212.961113 95.088876 
L 212.993582 95.151984 
L 213.123456 95.218879 
L 213.253331 91.254623 
L 213.318269 91.254623 
L 213.448143 95.218879 
L 213.480612 95.218879 
L 213.610487 91.254623 
L 215.623546 91.254623 
L 215.753421 95.218879 
L 215.78589 95.289552 
L 215.915765 91.254623 
L 218.221042 91.254623 
L 218.318449 84.705966 
L 218.448323 91.254623 
L 218.513261 91.254623 
L 218.545729 84.329906 
L 218.610667 91.254623 
L 218.740542 91.254623 
L 218.870416 84.705966 
L 218.935354 91.254623 
L 218.967823 84.329906 
L 219.065229 88.78567 
L 219.097697 88.78567 
L 219.162635 90.401031 
L 219.195104 88.27874 
L 219.227572 89.84611 
L 219.260041 92.801124 
L 219.324978 90.401031 
L 219.357447 86.840545 
L 219.422384 90.973436 
L 219.454853 90.401031 
L 219.519791 85.518504 
L 219.552259 88.78567 
L 219.682134 93.451017 
L 219.714603 85.518504 
L 219.77954 88.27874 
L 219.909415 93.451017 
L 219.941884 92.801124 
L 219.974352 93.451017 
L 220.006821 94.818262 
L 220.03929 94.123116 
L 220.071758 81.424569 
L 220.136696 92.17236 
L 220.169165 92.801124 
L 220.234102 93.451017 
L 220.331508 77.303527 
L 220.461383 90.993119 
L 220.493852 91.167338 
L 220.558789 77.303527 
L 220.623726 77.610353 
L 220.656195 76.22649 
L 220.688664 91.215321 
L 220.78607 90.736526 
L 220.851007 92.909407 
L 220.883476 90.847823 
L 220.948413 90.736526 
L 221.078288 77.463189 
L 221.175694 77.971796 
L 221.208163 77.715179 
L 221.2731 77.575071 
L 221.435444 79.048475 
L 221.467913 92.060207 
L 221.500381 78.033863 
L 221.53285 78.500815 
L 221.597787 78.973882 
L 221.630256 77.576722 
L 221.890006 82.286817 
L 222.052349 80.304432 
L 222.084818 80.304432 
L 222.117287 80.042708 
L 222.149755 77.424857 
L 222.214693 77.580957 
L 222.312099 80.839809 
L 222.344568 80.570061 
L 222.377036 78.074943 
L 222.409505 81.281453 
L 222.441974 80.99233 
L 222.474442 80.99233 
L 222.506911 72.607289 
L 222.571848 80.527424 
L 222.604317 80.99233 
L 222.636786 79.95402 
L 222.864067 66.42289 
L 222.961473 70.509378 
L 223.02641 69.143658 
L 223.058879 74.918283 
L 223.123816 69.007252 
L 223.383566 71.899939 
L 223.448503 71.55196 
L 223.578378 68.998398 
L 223.675784 77.133284 
L 223.708253 69.917852 
L 223.740722 69.917852 
L 223.77319 73.412606 
L 223.805659 64.494051 
L 223.870597 69.917852 
L 223.903065 69.917852 
L 224.03294 71.437514 
L 224.130346 70.66274 
L 224.162815 74.178757 
L 224.195284 74.178757 
L 224.29269 70.568249 
L 224.357627 74.178757 
L 224.390096 70.581108 
L 224.552439 74.631562 
L 224.682314 71.45735 
L 224.747251 72.915636 
L 224.77972 78.372192 
L 224.812189 71.11911 
L 224.844658 71.568475 
L 224.877126 71.45735 
L 224.909595 71.91553 
L 224.942064 71.45735 
L 224.974532 71.008394 
L 225.104407 74.178757 
L 225.201813 71.45735 
L 225.234282 71.91553 
L 225.331688 77.476829 
L 225.364157 77.403223 
L 225.494032 77.476829 
L 225.558969 77.476829 
L 225.623906 77.716845 
L 225.688844 76.680543 
L 225.883656 77.020164 
L 226.890186 77.020164 
L 227.020061 77.553812 
L 227.149935 77.020164 
L 227.27981 77.553812 
L 228.123996 77.530155 
L 228.28634 77.127985 
L 228.448683 77.127985 
L 228.481152 77.3122 
L 228.513621 76.977229 
L 228.643496 89.49025 
L 229.455213 89.49025 
L 229.585088 97.819663 
L 230.591618 97.741393 
L 230.624086 90.247992 
L 230.656555 97.819663 
L 230.689024 97.819663 
L 230.753961 97.741393 
L 230.78643 90.208297 
L 230.818899 97.819663 
L 230.851367 97.65782 
L 230.916305 97.592545 
L 230.948773 97.741393 
L 231.013711 97.65782 
L 231.078648 97.65782 
L 231.143586 97.504553 
L 231.208523 97.545328 
L 231.27346 97.592545 
L 231.338398 97.545328 
L 231.987772 97.504553 
L 232.052709 95.706101 
L 232.117647 96.587488 
L 232.150115 96.587488 
L 232.27999 95.706101 
L 232.312459 95.706101 
L 232.409865 96.707919 
L 232.53974 95.706101 
L 232.767021 95.706101 
L 232.831958 94.855398 
L 232.864427 96.707919 
L 232.896896 95.706101 
L 232.961833 96.046157 
L 233.02677 88.134931 
L 233.091708 94.855398 
L 233.124176 94.038242 
L 233.189114 85.385557 
L 233.254051 86.832316 
L 233.28652 85.385557 
L 233.318989 86.09979 
L 233.351457 95.222907 
L 233.416395 88.498246 
L 233.513801 89.040559 
L 233.643676 95.257662 
L 233.676144 92.917254 
L 233.708613 95.345106 
L 233.741082 95.345106 
L 233.77355 95.345106 
L 233.903425 89.73979 
L 233.935894 95.345106 
L 234.000831 89.036274 
L 234.0333 88.356185 
L 234.065769 89.73979 
L 234.098237 95.345106 
L 234.195644 95.257662 
L 234.228112 94.23383 
L 234.29305 86.832316 
L 234.325518 95.222907 
L 234.357987 89.54397 
L 234.455393 89.537052 
L 234.487862 96.046157 
L 234.520331 96.046157 
L 234.552799 89.526855 
L 234.650205 89.54397 
L 234.682674 95.257662 
L 234.747611 90.361971 
L 235.007361 96.320465 
L 235.03983 95.173772 
L 235.104767 95.257662 
L 235.137236 97.42461 
L 235.202173 96.320465 
L 235.234642 96.320465 
L 235.332048 97.518351 
L 235.364517 97.42461 
L 236.013891 97.334398 
L 236.078828 97.247709 
L 236.111297 97.334398 
L 237.377576 97.247709 
L 237.474982 97.164541 
L 237.604857 97.247709 
L 237.702263 97.164541 
L 237.832138 97.084896 
L 237.962013 97.164541 
L 239.228292 97.084896 
L 239.29323 97.008779 
L 239.325698 97.084896 
L 239.942604 97.164541 
L 240.072479 89.088454 
L 240.851727 89.088454 
L 240.884196 97.59527 
L 240.981602 95.200359 
L 241.014071 95.200359 
L 241.143946 96.922599 
L 241.208883 96.922599 
L 241.338758 97.897652 
L 241.468633 97.897652 
L 241.598507 98.405123 
L 241.663445 98.405123 
L 241.695914 97.897652 
L 241.760851 98.551272 
L 241.890726 98.405123 
L 242.020601 98.405123 
L 242.118007 97.897652 
L 242.247882 98.405123 
L 242.312819 98.405123 
L 242.442694 98.551272 
L 242.475162 98.405123 
L 242.5401 98.551272 
L 242.669975 98.551272 
L 242.734912 98.405123 
L 242.767381 98.551272 
L 242.832318 98.551272 
L 242.864787 98.702406 
L 242.929724 98.551272 
L 243.02713 98.551272 
L 243.124536 98.702406 
L 243.157005 98.551272 
L 243.221943 98.702406 
L 243.254411 98.702406 
L 243.351817 98.551272 
L 243.416755 98.702406 
L 243.449223 98.551272 
L 243.514161 98.551272 
L 243.54663 98.858562 
L 243.611567 98.702406 
L 243.708973 98.702406 
L 243.741442 98.858562 
L 243.77391 98.551272 
L 243.806379 98.702406 
L 243.871317 98.702406 
L 243.903785 97.055908 
L 243.968723 98.702406 
L 244.001191 98.702406 
L 244.066129 96.139279 
L 244.098597 98.702406 
L 244.163535 98.858562 
L 244.196004 98.702406 
L 244.325878 95.059492 
L 244.423285 98.702406 
L 244.455753 95.91615 
L 244.520691 98.702406 
L 244.618097 99.01978 
L 244.715503 94.863527 
L 244.747972 97.277525 
L 244.812909 94.368101 
L 244.877846 94.368101 
L 244.942784 93.507186 
L 245.04019 93.535413 
L 245.072659 93.75074 
L 245.137596 93.507186 
L 245.170065 93.535413 
L 245.202533 89.926558 
L 245.299939 90.524329 
L 245.364877 90.222341 
L 245.397346 90.524329 
L 245.52722 90.832665 
L 245.559689 90.832665 
L 245.592158 88.830364 
L 245.657095 90.832665 
L 245.78697 90.832665 
L 245.916845 88.830364 
L 245.949313 90.832665 
L 246.014251 88.830364 
L 246.111657 89.00892 
L 246.144126 88.917319 
L 246.176594 91.147497 
L 246.241532 88.917319 
L 246.566219 89.00892 
L 246.663625 89.105204 
L 246.7935 88.917319 
L 246.858437 89.00892 
L 247.020781 88.670252 
L 247.150655 88.830364 
L 247.377936 88.46414 
L 247.442874 88.404415 
L 247.507811 88.528339 
L 247.637686 88.298311 
L 247.702623 88.404415 
L 247.767561 88.349145 
L 247.929904 88.298311 
L 248.54681 88.404415 
L 248.676684 88.528339 
L 248.839028 88.404415 
L 248.903965 88.46414 
L 248.936434 88.528339 
L 248.968903 88.46414 
L 249.066309 88.404415 
L 249.131246 88.597035 
L 249.196184 88.528339 
L 249.228652 91.468979 
L 249.261121 88.404415 
L 249.29359 88.46414 
L 249.326058 88.528339 
L 249.358527 91.468979 
L 249.423465 88.528339 
L 249.455933 88.597035 
L 249.488402 91.468979 
L 249.553339 88.748019 
L 249.683214 88.670252 
L 250.007901 88.748019 
L 250.105307 91.147497 
L 250.137776 90.832665 
L 250.170245 90.832665 
L 250.300119 90.222341 
L 250.429994 90.832665 
L 250.462463 90.832665 
L 250.494932 90.524329 
L 250.5274 90.832665 
L 250.559869 93.761998 
L 250.657275 93.503578 
L 250.78715 93.249632 
L 250.819619 93.503578 
L 250.884556 93.249632 
L 251.0469 92.797603 
L 251.111837 92.754839 
L 251.144306 92.559975 
L 251.176774 92.887518 
L 251.209243 93.032052 
L 251.274181 92.786321 
L 251.339118 104.150447 
L 251.371587 93.076912 
L 251.436524 100.633915 
L 251.501461 100.483084 
L 251.566399 103.108214 
L 251.761211 103.108214 
L 251.891086 104.150447 
L 252.020961 103.108214 
L 252.150835 103.108214 
L 252.248242 102.931474 
L 252.378116 103.108214 
L 252.865147 103.108214 
L 252.962553 103.29041 
L 253.092428 103.108214 
L 253.124896 103.108214 
L 253.157365 103.29041 
L 253.222303 104.645936 
L 253.254771 103.29041 
L 253.482052 103.29041 
L 253.579458 103.108214 
L 253.676864 103.29041 
L 253.806739 103.108214 
L 253.936614 103.29041 
L 254.098958 103.29041 
L 254.228832 103.108214 
L 254.391176 103.108214 
L 254.553519 104.150447 
L 254.683394 103.108214 
L 254.715863 103.108214 
L 254.813269 103.29041 
L 254.910675 103.108214 
L 254.943144 103.29041 
L 255.008081 103.108214 
L 255.332768 103.108214 
L 255.462643 103.29041 
L 255.592518 103.108214 
L 255.819799 103.108214 
L 255.949674 103.29041 
L 256.014611 103.29041 
L 256.144486 103.108214 
L 256.371767 103.108214 
L 256.469173 103.29041 
L 256.501641 103.108214 
L 256.566579 103.29041 
L 258.54717 103.29041 
L 258.677044 103.478113 
L 258.709513 103.478113 
L 258.839388 103.29041 
L 258.871857 103.478113 
L 258.936794 103.29041 
L 258.969263 103.29041 
L 259.001731 103.478113 
L 259.066669 103.29041 
L 259.131606 103.29041 
L 259.229012 103.981644 
L 259.261481 103.29041 
L 259.326418 103.981644 
L 259.456293 103.981644 
L 259.488762 104.160198 
L 259.553699 103.981644 
L 259.78098 103.981644 
L 259.910855 104.160198 
L 259.975792 103.981644 
L 260.008261 104.160198 
L 260.105667 104.160198 
L 260.203073 103.981644 
L 260.332948 104.160198 
L 261.436884 104.160198 
L 261.566759 104.344425 
L 262.151195 104.344425 
L 262.28107 104.534378 
L 262.410945 104.344425 
L 262.443414 104.534378 
L 262.508351 104.344425 
L 262.54082 104.344425 
L 262.638226 104.534378 
L 262.670695 104.344425 
L 262.735632 104.534378 
L 263.060319 104.534378 
L 263.190194 104.730116 
L 263.255131 104.730116 
L 263.352537 104.534378 
L 263.385006 104.730116 
L 263.449944 104.534378 
L 263.514881 104.534378 
L 263.54735 104.730116 
L 263.612287 104.534378 
L 263.677224 104.534378 
L 263.774631 104.730116 
L 263.807099 104.074832 
L 263.872037 104.730116 
L 264.03438 104.730116 
L 264.164255 104.074832 
L 264.651285 104.074832 
L 264.716223 104.285143 
L 264.748692 104.074832 
L 264.78116 104.074832 
L 264.911035 104.285143 
L 265.04091 104.074832 
L 265.073379 104.074832 
L 265.203253 104.285143 
L 265.398066 104.285143 
L 265.52794 104.501263 
L 266.112377 104.501263 
L 266.242252 104.285143 
L 266.372127 104.501263 
L 266.566939 104.501263 
L 266.696814 104.723263 
L 266.729282 104.723263 
L 266.891626 105.185195 
L 266.924095 105.185195 
L 267.086438 105.671558 
L 269.067029 105.671558 
L 269.099498 94.867315 
L 269.164435 102.822169 
L 269.261841 98.980894 
L 269.29431 100.167521 
L 269.359247 100.167521 
L 269.489122 98.445683 
L 269.521591 98.162215 
L 269.586528 98.336887 
L 269.618997 98.344393 
L 269.716403 97.987676 
L 269.846278 98.285606 
L 269.976153 98.285606 
L 270.106027 97.987676 
L 270.235902 98.285606 
L 270.78787 98.285606 
L 270.917745 101.622858 
L 273.417835 101.622858 
L 273.482772 105.274289 
L 273.515241 101.622858 
L 273.54771 101.622858 
L 273.580178 106.188495 
L 273.612647 98.28052 
L 273.645116 98.477818 
L 273.710053 101.622858 
L 273.742522 98.795819 
L 273.807459 99.387407 
L 273.839928 99.27937 
L 273.872397 98.884942 
L 274.002271 101.622858 
L 274.619177 101.622858 
L 274.749052 98.285606 
L 274.846458 98.285606 
L 274.878926 97.987676 
L 274.911395 98.285606 
L 274.943864 101.622858 
L 274.976333 97.987676 
L 275.008801 97.987676 
L 275.073739 97.987676 
L 275.106207 98.285606 
L 275.171145 97.987676 
L 276.340018 97.987676 
L 276.372487 97.694893 
L 276.437424 97.987676 
L 276.567299 97.987676 
L 276.599768 97.694893 
L 276.664705 97.987676 
L 276.697174 97.987676 
L 276.827049 97.694893 
L 276.989392 97.694893 
L 277.119267 97.987676 
L 277.184204 97.987676 
L 277.249142 97.694893 
L 277.28161 97.987676 
L 277.314079 97.987676 
L 277.411485 97.694893 
L 277.54136 97.993535 
L 277.638766 97.993535 
L 277.703703 97.765809 
L 277.80111 98.713297 
L 277.866047 97.765809 
L 277.898516 99.220988 
L 277.963453 98.713297 
L 277.995922 97.883419 
L 278.02839 98.33935 
L 278.125797 102.611167 
L 278.158265 99.906083 
L 278.190734 99.906083 
L 278.28814 98.713297 
L 278.320609 102.611167 
L 278.385546 99.906083 
L 278.580358 102.611167 
L 278.937514 102.611167 
L 278.969983 102.822169 
L 279.03492 102.611167 
L 279.521951 102.611167 
L 279.554419 102.405608 
L 279.619357 102.611167 
L 279.651826 102.611167 
L 279.7817 102.822169 
L 279.911575 102.611167 
L 279.944044 102.611167 
L 280.04145 102.822169 
L 280.171325 102.611167 
L 280.333668 102.611167 
L 280.463543 102.822169 
L 281.567479 102.822169 
L 281.599948 102.611167 
L 281.664885 102.822169 
L 282.151916 102.822169 
L 282.28179 102.172813 
L 282.411665 102.506922 
L 282.703883 102.506922 
L 282.736352 102.117538 
L 282.80129 102.506922 
L 282.833758 102.506922 
L 282.963633 102.117538 
L 283.125977 102.117538 
L 283.158445 101.687895 
L 283.223383 102.117538 
L 283.255851 102.117538 
L 283.385726 101.796037 
L 283.483132 101.746236 
L 283.613007 101.548805 
L 283.775351 105.725227 
L 283.807819 105.671558 
L 283.937694 105.671558 
L 283.970163 101.746236 
L 284.002632 105.705121 
L 284.0351 105.705121 
L 284.164975 105.810186 
L 284.29485 105.810186 
L 284.327319 105.975502 
L 284.359787 105.810186 
L 284.424725 105.975502 
L 284.457193 101.746236 
L 284.554599 105.975502 
L 284.652006 101.746236 
L 284.749412 105.975502 
L 284.879286 101.746236 
L 285.009161 105.975502 
L 285.074099 105.975502 
L 285.106567 106.192849 
L 285.139036 105.975502 
L 285.203973 106.192849 
L 285.236442 101.746236 
L 285.268911 106.192849 
L 285.333848 101.746236 
L 285.463723 101.812268 
L 285.528661 105.975502 
L 285.561129 101.812268 
L 285.755941 101.746236 
L 285.853348 106.192849 
L 285.983222 101.746236 
L 286.015691 105.975502 
L 286.080628 101.812268 
L 286.178035 101.746236 
L 286.210503 106.192849 
L 286.275441 105.975502 
L 286.405315 101.746236 
L 286.957283 101.812268 
L 286.989752 106.192849 
L 287.054689 101.812268 
L 287.671595 101.886687 
L 287.736532 101.970315 
L 287.769001 100.902805 
L 287.833938 101.886687 
L 287.898876 101.886687 
L 288.028751 100.902805 
L 288.483312 100.98511 
L 288.515781 99.95764 
L 288.613187 100.03864 
L 288.743062 99.95764 
L 288.807999 65.398835 
L 288.872937 66.102627 
L 288.970343 63.804173 
L 289.100218 60.174752 
L 289.197624 59.91898 
L 289.230092 60.003234 
L 289.392436 59.690146 
L 289.522311 59.91898 
L 289.652186 59.526024 
L 289.684654 59.720166 
L 289.749592 59.572078 
L 289.846998 59.408659 
L 289.911935 59.468946 
L 290.009341 59.354309 
L 290.04181 59.493871 
L 290.074279 59.283355 
L 290.106747 59.468946 
L 290.30156 59.080135 
L 290.334028 59.254536 
L 290.398966 59.192171 
L 290.561309 58.883707 
L 290.626247 59.268393 
L 290.691184 59.192171 
L 290.723653 59.187896 
L 290.78859 59.045505 
L 290.821059 59.130381 
L 290.853528 59.318943 
L 290.885996 59.07018 
L 290.918465 59.07018 
L 291.145746 59.07018 
L 291.178215 59.187896 
L 291.210683 59.011246 
L 291.243152 59.045505 
L 291.373027 59.07018 
L 291.437964 58.86221 
L 291.502902 59.022835 
L 291.567839 58.009197 
L 291.600308 59.041259 
L 291.697714 58.75177 
L 291.762651 58.849578 
L 291.79512 58.75177 
L 291.827589 58.295359 
L 291.957463 98.861931 
L 292.022401 58.273206 
L 292.054869 97.945349 
L 292.087338 98.814646 
L 292.119807 58.739074 
L 292.184744 99.766778 
L 292.249682 98.814646 
L 292.314619 98.861931 
L 292.379557 98.861931 
L 292.444494 98.814646 
L 292.509431 99.766778 
L 292.639306 98.861931 
L 292.671775 98.814646 
L 292.769181 99.718187 
L 292.80165 98.814646 
L 292.834118 58.505614 
L 292.899056 96.485444 
L 292.931524 96.518398 
L 292.963993 95.58371 
L 293.028931 96.518398 
L 293.093868 96.518398 
L 293.256211 94.772435 
L 293.28868 96.518398 
L 293.321149 94.772435 
L 293.386086 53.568 
L 293.418555 96.495782 
L 293.54843 94.793742 
L 293.613367 95.629515 
L 293.645836 95.502268 
L 293.775711 90.862778 
L 293.840648 94.669269 
L 293.873117 89.816179 
L 294.002992 90.862778 
L 294.067929 90.862778 
L 294.100398 90.330774 
L 294.132866 91.413066 
L 294.165335 90.862778 
L 294.197804 90.862778 
L 294.327679 90.330774 
L 294.360147 90.862778 
L 294.392616 89.318175 
L 294.457553 90.330774 
L 294.587428 90.330774 
L 294.717303 89.816179 
L 294.749772 89.816179 
L 294.879647 89.318175 
L 294.912115 89.816179 
L 294.977053 89.318175 
L 295.106927 88.835993 
L 295.204334 88.835993 
L 295.236802 88.368912 
L 295.30174 88.835993 
L 295.334208 88.835993 
L 295.464083 88.368912 
L 295.496552 88.368912 
L 295.561489 87.916253 
L 295.626427 88.835993 
L 295.658895 88.368912 
L 295.723833 88.835993 
L 295.756301 88.835993 
L 295.78877 88.368912 
L 295.821239 89.318175 
L 295.853708 88.835993 
L 295.983582 90.42389 
L 296.016051 89.318175 
L 296.080988 90.330774 
L 296.178395 90.330774 
L 296.308269 90.862778 
L 296.340738 90.862778 
L 296.470613 95.138052 
L 296.568019 95.138052 
L 296.665425 101.493572 
L 296.697894 101.471516 
L 297.834298 101.454405 
L 297.899236 95.395177 
L 297.931704 101.454405 
L 298.094048 101.454405 
L 298.223923 95.2179 
L 298.28886 95.2179 
L 298.386266 101.454405 
L 298.516141 95.2179 
L 298.581078 95.2179 
L 298.710953 95.0581 
L 299.068109 95.0581 
L 299.165515 94.915472 
L 299.197984 95.0581 
L 299.262921 94.915472 
L 299.29539 94.915472 
L 299.392796 95.0581 
L 299.522671 94.915472 
L 299.912295 94.915472 
L 300.04217 94.789823 
L 300.30192 94.789823 
L 300.431794 94.915472 
L 300.561669 94.789823 
L 300.626607 94.789823 
L 300.756481 94.915472 
L 300.853888 94.915472 
L 300.983762 94.789823 
L 301.113637 94.915472 
L 301.146106 94.681066 
L 301.211043 94.789823 
L 301.990292 94.789823 
L 302.022761 101.436591 
L 302.087698 94.789823 
L 302.120167 94.789823 
L 302.152636 101.436591 
L 302.217573 94.789823 
L 302.347448 94.789823 
L 302.379917 94.915472 
L 302.444854 94.789823 
L 302.574729 93.950902 
L 302.607197 93.950902 
L 302.639666 94.915472 
L 302.737072 94.789823 
L 302.866947 94.915472 
L 302.899416 94.915472 
L 303.029291 94.789823 
L 303.094228 94.789823 
L 303.126697 94.915472 
L 303.159165 94.789823 
L 303.224103 93.950902 
L 303.321509 100.472826 
L 303.353978 100.466479 
L 303.483852 99.547626 
L 303.613727 99.547626 
L 303.678665 100.472826 
L 303.711133 100.466479 
L 303.743602 99.547626 
L 303.808539 100.466479 
L 303.841008 100.472826 
L 303.970883 93.950902 
L 304.003352 93.950902 
L 304.133226 100.472826 
L 304.263101 93.950902 
L 304.490382 93.950902 
L 304.522851 94.789823 
L 304.55532 93.843805 
L 304.587788 93.843805 
L 304.652726 100.466479 
L 304.685194 93.843805 
L 305.009881 93.843805 
L 305.04235 100.466479 
L 305.074819 93.040361 
L 305.107287 93.040361 
L 305.626787 92.952411 
L 305.756661 93.753879 
L 305.821599 93.753879 
L 305.854068 92.952411 
L 305.886536 99.547626 
L 305.951474 92.952411 
L 306.016411 92.952411 
L 306.081348 99.547626 
L 306.113817 92.952411 
L 306.211223 92.952411 
L 306.276161 100.472826 
L 306.341098 99.547626 
L 306.406036 99.547626 
L 306.438504 92.952411 
L 306.503442 99.559398 
L 306.665785 99.559398 
L 306.79566 100.483226 
L 306.893066 99.559398 
L 306.925535 92.882047 
L 306.990472 99.559398 
L 307.120347 99.559398 
L 307.152816 88.091121 
L 307.250222 92.182862 
L 307.28269 88.091121 
L 307.315159 88.21505 
L 307.445034 99.559398 
L 307.574909 98.671834 
L 307.639846 98.671834 
L 307.704784 87.296274 
L 307.737252 98.671834 
L 307.769721 98.671834 
L 307.834658 86.406747 
L 307.867127 87.296274 
L 307.899596 97.69642 
L 307.932064 86.85792 
L 307.964533 86.860416 
L 308.029471 85.965957 
L 308.094408 98.671834 
L 308.159345 98.539939 
L 308.191814 85.965957 
L 308.256751 98.539939 
L 308.28922 98.539939 
L 308.321689 97.69642 
L 308.451564 85.965957 
L 308.711313 85.965957 
L 308.776251 85.537511 
L 308.808719 98.539939 
L 308.873657 82.18998 
L 308.938594 85.537511 
L 308.971063 85.537511 
L 309.068469 82.18998 
L 309.165875 97.69642 
L 309.263281 81.718636 
L 309.29575 82.18998 
L 309.328219 82.18998 
L 309.458093 81.718636 
L 309.523031 81.718636 
L 309.5555 87.819144 
L 309.620437 81.718636 
L 309.717843 81.718636 
L 309.847718 81.259125 
L 309.977593 92.728961 
L 310.010061 92.728961 
L 310.107467 92.962675 
L 310.237342 92.728961 
L 310.367217 92.962675 
L 310.497092 92.728961 
L 310.562029 93.499127 
L 310.594498 92.728961 
L 310.724373 92.728961 
L 310.78931 92.962675 
L 310.821779 92.230493 
L 310.951654 92.962675 
L 311.016591 92.230493 
L 311.04906 92.962675 
L 311.081529 92.962675 
L 311.211403 91.526334 
L 311.243872 91.526334 
L 311.341278 92.508487 
L 311.373747 92.230493 
L 311.438684 92.508487 
L 311.471153 91.526334 
L 311.53609 92.508487 
L 311.601028 92.508487 
L 311.665965 91.526334 
L 311.698434 92.230493 
L 311.730903 92.230493 
L 311.79584 92.508487 
L 311.925715 91.526334 
L 311.958183 92.230493 
L 312.023121 91.526334 
L 312.152996 91.526334 
L 312.250402 92.508487 
L 312.28287 92.230493 
L 312.380277 91.526334 
L 312.412745 92.230493 
L 312.477683 91.526334 
L 312.510151 91.526334 
L 312.640026 92.508487 
L 312.672495 92.508487 
L 312.737432 92.230493 
L 312.769901 92.508487 
L 312.80237 92.508487 
L 312.899776 91.526334 
L 312.932244 92.230493 
L 312.997182 92.230493 
L 313.029651 92.508487 
L 313.094588 92.230493 
L 313.127057 92.230493 
L 313.159525 92.508487 
L 313.191994 91.526334 
L 313.256932 92.508487 
L 313.321869 91.526334 
L 313.386806 92.230493 
L 313.419275 92.230493 
L 313.54915 91.526334 
L 313.971243 91.526334 
L 314.101118 92.230493 
L 314.198524 92.230493 
L 314.328399 89.924092 
L 314.360867 89.924092 
L 314.458273 89.27426 
L 314.490742 89.924092 
L 314.55568 89.29299 
L 314.588148 89.27426 
L 314.685554 89.924092 
L 314.815429 89.29299 
L 314.847898 89.29299 
L 314.880367 90.624816 
L 314.945304 89.924092 
L 315.04271 89.924092 
L 315.107647 89.946095 
L 315.172585 89.29299 
L 315.30246 89.29299 
L 315.399866 90.624816 
L 315.529741 88.66418 
L 315.562209 100.635863 
L 315.627147 89.29299 
L 315.659615 88.66418 
L 315.692084 100.635863 
L 315.757022 89.29299 
L 315.821959 89.29299 
L 315.951834 100.635863 
L 316.211583 100.635863 
L 316.341458 100.046801 
L 316.373927 94.828812 
L 316.438864 98.653885 
L 316.568739 98.653885 
L 316.698614 102.363203 
L 316.893426 102.363203 
L 317.023301 103.243255 
L 317.120707 102.363203 
L 317.218113 103.243255 
L 317.347988 102.363203 
L 317.477863 102.363203 
L 317.575269 103.243255 
L 317.672675 101.759967 
L 317.705144 102.363203 
L 317.770081 102.363203 
L 317.80255 101.759967 
L 317.867487 102.363203 
L 317.964893 102.363203 
L 318.094768 99.267346 
L 318.159705 99.267346 
L 318.257112 99.898788 
L 318.386986 98.405123 
L 318.451924 99.267346 
L 318.484392 98.405123 
L 318.516861 98.405123 
L 318.646736 99.267346 
L 318.744142 98.405123 
L 318.776611 99.267346 
L 318.841548 98.405123 
L 319.068829 98.405123 
L 319.166235 98.551272 
L 319.231173 97.875941 
L 319.263641 98.551272 
L 319.393516 98.551272 
L 319.523391 98.035712 
L 319.815609 98.035712 
L 319.945484 98.200402 
L 320.367577 98.200402 
L 320.497452 98.370054 
L 321.016951 98.370054 
L 321.146826 98.544714 
L 321.244232 98.544714 
L 321.276701 98.724428 
L 321.341638 98.544714 
L 321.406576 98.544714 
L 321.53645 98.722037 
L 321.698794 98.722037 
L 321.828669 100.443683 
L 321.893606 90.641942 
L 321.926075 102.337839 
L 321.958543 90.972458 
L 322.088418 91.310206 
L 322.120887 91.310206 
L 322.250762 89.429015 
L 322.380637 89.967596 
L 323.257292 90.059212 
L 323.419635 90.059212 
L 326.634036 90.082917 
L 326.666505 87.159738 
L 326.731443 90.082917 
L 326.828849 90.082917 
L 326.958724 87.159738 
L 327.54316 87.159738 
L 327.80291 82.89875 
L 328.030191 81.354452 
L 328.225003 80.808647 
L 328.387346 80.680769 
L 328.744502 80.97903 
L 328.906846 80.702776 
L 329.069189 80.702776 
L 329.199064 100.128469 
L 329.231533 100.128469 
L 329.361407 80.679222 
L 329.426345 100.128469 
L 329.458814 80.679222 
L 329.783501 80.679222 
L 329.880907 100.128469 
L 329.945844 80.679222 
L 329.978313 100.128469 
L 336.277241 100.128469 
L 336.30971 92.725516 
L 336.374647 100.128469 
L 336.439584 100.128469 
L 336.569459 92.725516 
L 339.816329 92.725516 
L 339.913735 93.097867 
L 340.04361 92.725516 
L 340.173485 93.097867 
L 340.205954 93.097867 
L 340.238422 92.725516 
L 340.30336 93.097867 
L 344.524291 93.097867 
L 344.55676 100.920894 
L 344.621697 96.503164 
L 344.751572 93.097867 
L 344.881447 96.503164 
L 345.011321 93.097867 
L 345.141196 96.503164 
L 345.173665 96.503164 
L 345.30354 97.462875 
L 345.368477 97.462875 
L 345.465883 93.097867 
L 345.595758 97.462875 
L 345.693164 97.462875 
L 345.725633 96.503164 
L 345.79057 97.462875 
L 345.920445 97.462875 
L 345.985383 100.920894 
L 346.017851 97.462875 
L 347.089318 97.462875 
L 347.186724 100.920894 
L 347.316599 97.462875 
L 347.868567 97.462875 
L 347.901036 100.706323 
L 347.965973 97.462875 
L 350.011502 97.462875 
L 350.04397 100.497349 
L 350.141376 99.534243 
L 350.173845 97.462875 
L 350.206314 100.920894 
L 350.271251 100.920894 
L 350.401126 97.462875 
L 350.466063 100.095933 
L 350.531001 99.903369 
L 350.660876 97.462875 
L 350.758282 100.920894 
L 350.823219 100.706323 
L 350.855688 100.293906 
L 350.888156 100.497349 
L 350.920625 100.920894 
L 351.0505 97.462875 
L 351.115437 97.462875 
L 351.180375 100.920894 
L 351.245312 99.357574 
L 351.375187 97.462875 
L 351.602468 97.462875 
L 351.634937 98.551272 
L 351.699874 97.462875 
L 352.251842 97.462875 
L 352.284311 97.996238 
L 352.349248 97.462875 
L 353.096028 97.518933 
L 353.128497 98.127638 
L 353.160966 97.462875 
L 353.193434 97.462875 
L 353.355778 97.462875 
L 353.388246 98.127638 
L 353.453184 97.462875 
L 354.03762 97.462875 
L 354.070089 97.996238 
L 354.135027 97.462875 
L 354.199964 97.462875 
L 354.329839 98.405123 
L 354.459714 97.462875 
L 354.492182 98.551272 
L 354.55712 97.996238 
L 354.654526 97.462875 
L 354.719463 98.551272 
L 354.751932 98.263923 
L 354.849338 97.462875 
L 354.881807 97.518933 
L 354.914275 97.462875 
L 354.979213 98.858562 
L 355.011682 97.518933 
L 355.141556 97.462875 
L 355.206494 97.462875 
L 355.3039 97.996238 
L 355.336369 97.631064 
L 355.368837 97.518933 
L 355.401306 97.996238 
L 355.433775 97.462875 
L 355.466243 97.462875 
L 355.693524 97.462875 
L 355.725993 97.869693 
L 355.79093 97.462875 
L 355.823399 97.462875 
L 355.888336 98.263923 
L 355.920805 97.869693 
L 355.985743 97.462875 
L 356.018211 97.996238 
L 356.115617 98.702406 
L 356.213023 97.462875 
L 356.245492 97.631064 
L 356.31043 97.869693 
L 356.342898 97.462875 
L 356.375367 98.263923 
L 356.440304 98.127638 
L 356.472773 99.186102 
L 356.602648 97.462875 
L 356.79746 97.462875 
L 356.829929 97.996238 
L 356.894866 97.518933 
L 356.927335 97.631064 
L 356.959804 98.858562 
L 357.024741 98.263923 
L 357.05721 97.747977 
L 357.122147 97.996238 
L 357.187085 97.747977 
L 357.284491 98.858562 
L 357.349428 98.263923 
L 357.381897 99.186102 
L 357.446834 98.551272 
L 357.479303 97.518933 
L 357.54424 98.127638 
L 357.576709 98.127638 
L 357.641646 97.462875 
L 357.674115 97.518933 
L 357.901396 99.186102 
L 357.933865 99.01978 
L 357.966333 98.127638 
L 358.063739 98.405123 
L 358.096208 99.01978 
L 358.128677 98.263923 
L 358.193614 98.551272 
L 358.226083 97.996238 
L 358.29102 99.01978 
L 358.420895 97.462875 
L 358.485833 97.631064 
L 358.518301 98.702406 
L 358.583239 97.631064 
L 358.615707 97.462875 
L 358.713113 98.702406 
L 358.745582 98.263923 
L 358.81052 97.869693 
L 358.842988 98.405123 
L 358.875457 98.127638 
L 358.907926 98.405123 
L 358.972863 98.858562 
L 359.037801 97.869693 
L 359.070269 98.263923 
L 359.102738 98.858562 
L 359.135207 98.127638 
L 359.232613 97.462875 
L 359.265081 97.631064 
L 359.29755 97.996238 
L 359.330019 97.518933 
L 359.394956 97.462875 
L 359.524831 97.996238 
L 359.589768 97.631064 
L 359.622237 97.747977 
L 359.654706 98.127638 
L 359.687175 97.462875 
L 359.719643 97.747977 
L 359.752112 97.462875 
L 359.784581 98.405123 
L 359.849518 97.462875 
L 359.881987 97.518933 
L 359.914455 97.996238 
L 359.979393 97.462875 
L 360.011862 97.462875 
L 360.141736 99.186102 
L 360.271611 98.858562 
L 360.336549 97.869693 
L 360.401486 98.405123 
L 360.466423 99.186102 
L 360.563829 97.996238 
L 360.693704 99.534243 
L 360.726173 99.357574 
L 360.758642 98.127638 
L 360.823579 99.186102 
L 360.856048 99.534243 
L 360.953454 98.263923 
L 360.985923 99.186102 
L 361.05086 97.996238 
L 361.083329 98.263923 
L 361.115797 97.869693 
L 361.148266 97.869693 
L 361.213204 98.405123 
L 361.245672 97.747977 
L 361.31061 98.127638 
L 361.375547 98.263923 
L 361.408016 98.127638 
L 361.440484 98.127638 
L 361.537891 97.747977 
L 361.667765 98.702406 
L 361.765171 98.263923 
L 361.79764 98.405123 
L 361.830109 98.551272 
L 361.862578 98.405123 
L 361.895046 97.996238 
L 361.927515 98.263923 
L 361.959984 98.702406 
L 361.992452 97.869693 
L 362.05739 97.869693 
L 362.089858 99.186102 
L 362.154796 97.996238 
L 362.219733 98.127638 
L 362.317139 97.747977 
L 362.414545 98.263923 
L 362.511952 97.869693 
L 362.54442 98.127638 
L 362.576889 97.518933 
L 362.609358 97.518933 
L 362.706764 97.462875 
L 362.739232 98.127638 
L 362.771701 97.462875 
L 362.836639 97.631064 
L 362.869107 98.127638 
L 362.934045 97.518933 
L 362.966513 97.462875 
L 362.998982 97.747977 
L 363.063919 97.462875 
L 363.096388 97.462875 
L 363.128857 97.631064 
L 363.193794 97.462875 
L 363.2912 97.462875 
L 363.323669 97.631064 
L 363.388606 97.462875 
L 363.421075 97.462875 
L 363.518481 98.127638 
L 363.55095 97.631064 
L 363.615887 97.747977 
L 363.648356 98.405123 
L 363.680825 97.631064 
L 363.713294 97.869693 
L 363.843168 97.462875 
L 364.135387 97.518933 
L 364.167855 97.747977 
L 364.200324 97.462875 
L 364.232793 97.462875 
L 364.525011 97.462875 
L 364.622417 97.996238 
L 364.654886 97.631064 
L 364.687355 97.631064 
L 364.719823 97.462875 
L 364.752292 97.869693 
L 364.784761 97.518933 
L 364.817229 97.747977 
L 364.849698 97.462875 
L 364.882167 97.462875 
L 364.914635 97.518933 
L 364.947104 97.869693 
L 364.979573 97.462875 
L 365.012042 97.462875 
L 365.04451 97.462875 
L 365.076979 97.747977 
L 365.141916 97.462875 
L 365.661416 97.462875 
L 365.693884 97.631064 
L 365.758822 97.462875 
L 370.856408 97.358797 
L 370.888877 97.869693 
L 370.953814 97.358797 
L 371.148626 97.358797 
L 371.213564 97.869693 
L 371.278501 97.518933 
L 371.408376 97.358797 
L 371.473313 97.358797 
L 371.570719 97.631064 
L 371.668125 97.358797 
L 371.700594 97.411561 
L 371.830469 97.358797 
L 371.927875 97.518933 
L 372.05775 97.358797 
L 372.090218 97.631064 
L 372.155156 97.411561 
L 372.220093 97.358797 
L 372.349968 97.869693 
L 372.382437 97.869693 
L 372.54478 97.358797 
L 372.609718 97.358797 
L 372.772061 97.869693 
L 372.901936 97.411561 
L 372.966873 97.358797 
L 373.06428 97.869693 
L 373.096748 97.358797 
L 373.161686 97.747977 
L 373.194154 97.747977 
L 373.259092 97.869693 
L 373.324029 97.518933 
L 373.421435 97.747977 
L 373.55131 97.411561 
L 373.648716 97.747977 
L 373.681185 97.631064 
L 373.713654 97.747977 
L 373.746122 97.518933 
L 373.81106 97.358797 
L 373.843528 97.518933 
L 373.875997 97.518933 
L 373.908466 97.747977 
L 373.940934 97.411561 
L 373.973403 97.631064 
L 374.103278 97.358797 
L 374.29809 97.518933 
L 374.395496 97.358797 
L 374.460434 97.631064 
L 374.492902 97.358797 
L 374.525371 97.358797 
L 374.687715 97.631064 
L 374.720183 97.631064 
L 374.785121 97.358797 
L 374.817589 97.411561 
L 374.850058 97.747977 
L 374.914995 97.358797 
L 375.174745 97.869693 
L 375.30462 97.518933 
L 375.369557 97.358797 
L 375.402026 97.518933 
L 375.466963 97.411561 
L 375.499432 97.747977 
L 375.531901 97.358797 
L 375.596838 97.631064 
L 375.694244 97.631064 
L 375.79165 97.411561 
L 375.921525 97.631064 
L 376.0514 97.411561 
L 376.116337 97.358797 
L 376.181275 97.747977 
L 376.278681 97.358797 
L 376.31115 97.518933 
L 376.343618 97.358797 
L 376.408556 97.411561 
L 376.441024 97.518933 
L 376.473493 97.358797 
L 376.505962 97.358797 
L 376.538431 97.411561 
L 376.570899 97.747977 
L 376.668305 97.631064 
L 376.733243 97.411561 
L 376.79818 97.869693 
L 376.830649 97.358797 
L 376.863118 97.631064 
L 376.960524 97.358797 
L 377.025461 97.631064 
L 377.05793 97.358797 
L 377.122867 97.411561 
L 377.187805 97.358797 
L 377.220273 97.631064 
L 377.350148 97.358797 
L 377.415086 97.518933 
L 377.512492 97.747977 
L 377.609898 97.358797 
L 377.642366 97.411561 
L 377.772241 97.518933 
L 377.80471 97.518933 
L 377.869647 97.747977 
L 377.999522 97.358797 
L 378.161866 97.518933 
L 378.29174 97.358797 
L 378.454084 97.411561 
L 378.746302 97.358797 
L 378.843708 97.869693 
L 378.876177 97.518933 
L 378.941114 97.518933 
L 379.038521 97.358797 
L 379.103458 97.631064 
L 379.168395 97.518933 
L 379.200864 97.358797 
L 379.265801 97.411561 
L 379.363208 97.631064 
L 379.493082 97.358797 
L 379.622957 97.631064 
L 379.720363 97.358797 
L 379.752832 97.411561 
L 379.882707 97.358797 
L 379.915176 97.518933 
L 379.980113 97.358797 
L 380.04505 97.631064 
L 380.142456 97.411561 
L 380.272331 97.358797 
L 380.402206 97.631064 
L 380.434675 97.518933 
L 380.499612 97.411561 
L 380.532081 97.631064 
L 380.56455 97.358797 
L 380.597018 97.518933 
L 380.726893 97.358797 
L 380.824299 97.518933 
L 380.856768 97.358797 
L 380.889237 97.411561 
L 380.954174 97.631064 
L 380.986643 97.358797 
L 381.019111 97.518933 
L 381.084049 97.358797 
L 381.278861 97.518933 
L 381.31133 97.358797 
L 381.376267 97.411561 
L 381.506142 97.518933 
L 381.571079 97.358797 
L 381.603548 97.411561 
L 381.700954 97.631064 
L 381.733423 97.518933 
L 381.765891 97.518933 
L 381.830829 97.358797 
L 381.863298 97.631064 
L 381.928235 97.358797 
L 381.993172 97.411561 
L 382.155516 97.358797 
L 382.285391 97.518933 
L 382.415266 97.358797 
L 382.480203 97.411561 
L 382.610078 97.163578 
L 382.642546 97.163578 
L 382.772421 97.358797 
L 382.837359 97.411561 
L 382.902296 97.358797 
L 383.259452 97.411561 
L 383.356858 97.163578 
L 383.454264 97.411561 
L 383.486733 97.358797 
L 383.649076 97.358797 
L 383.681545 97.163578 
L 383.746482 97.358797 
L 383.778951 97.358797 
L 383.81142 97.163578 
L 383.876357 97.358797 
L 383.941294 97.358797 
L 384.071169 97.163578 
L 384.525731 97.163578 
L 384.590669 97.358797 
L 384.623137 97.163578 
L 384.753012 97.163578 
L 384.850418 97.358797 
L 384.980293 97.163578 
L 385.369917 97.163578 
L 385.499792 97.358797 
L 385.662136 97.358797 
L 385.79201 97.163578 
L 386.31151 97.163578 
L 386.408916 97.358797 
L 386.538791 97.163578 
L 386.571259 97.163578 
L 386.603728 97.358797 
L 386.668665 97.163578 
L 388.389507 97.163578 
L 388.519381 96.248548 
L 388.616787 97.163578 
L 388.714194 96.248548 
L 388.844068 97.163578 
L 388.909006 97.163578 
L 389.006412 96.248548 
L 389.136287 97.163578 
L 389.266162 96.248548 
L 389.331099 97.163578 
L 389.363568 96.248548 
L 389.818129 96.248548 
L 389.850598 94.332198 
L 389.915536 96.248548 
L 390.175285 96.248548 
L 390.30516 94.332198 
L 390.435035 96.248548 
L 390.56491 94.332198 
L 390.857128 94.332198 
L 390.987003 96.248548 
L 391.116878 94.332198 
L 391.214284 94.332198 
L 391.279221 96.248548 
L 391.31169 94.332198 
L 392.026001 94.332198 
L 392.155876 92.67992 
L 393.000062 92.67992 
L 393.032531 94.332198 
L 393.097468 92.67992 
L 393.129937 92.67992 
L 393.259812 94.332198 
L 393.616968 94.332198 
L 393.649436 96.248548 
L 393.714374 94.332198 
L 393.746842 94.332198 
L 393.876717 96.248548 
L 393.909186 94.332198 
L 393.974123 96.248548 
L 394.266342 96.248548 
L 394.29881 89.548224 
L 394.363748 96.248548 
L 394.396216 96.248548 
L 394.428685 89.077074 
L 394.526091 89.548224 
L 394.720903 89.548224 
L 394.850778 89.077074 
L 394.883247 89.077074 
L 394.915716 97.163578 
L 394.980653 89.077074 
L 395.207934 89.077074 
L 395.402746 87.95539 
L 395.630027 87.95539 
L 395.857308 86.504246 
L 395.889777 86.598961 
L 395.954714 85.965801 
L 395.987183 86.700414 
L 396.019651 86.700414 
L 396.149526 86.160096 
L 396.181995 86.266434 
L 396.31187 87.842785 
L 396.571619 87.842785 
L 396.604088 97.163578 
L 396.669025 87.842785 
L 396.701494 87.842785 
L 396.831369 97.163578 
L 396.961244 97.163578 
L 397.091119 87.842785 
L 398.487273 87.842785 
L 398.487273 87.842785 
" clip-path="url(#p008af81f99)" style="fill: none; stroke: #1f77b4; stroke-width: 1.5; stroke-linecap: square"/>
   </g>
   <g id="patch_3">
    <path d="M 57.6 307.584 
L 57.6 41.472 
" style="fill: none; stroke: #000000; stroke-width: 0.8; stroke-linejoin: miter; stroke-linecap: square"/>
   </g>
   <g id="patch_4">
    <path d="M 414.72 307.584 
L 414.72 41.472 
" style="fill: none; stroke: #000000; stroke-width: 0.8; stroke-linejoin: miter; stroke-linecap: square"/>
   </g>
   <g id="patch_5">
    <path d="M 57.6 307.584 
L 414.72 307.584 
" style="fill: none; stroke: #000000; stroke-width: 0.8; stroke-linejoin: miter; stroke-linecap: square"/>
   </g>
   <g id="patch_6">
    <path d="M 57.6 41.472 
L 414.72 41.472 
" style="fill: none; stroke: #000000; stroke-width: 0.8; stroke-linejoin: miter; stroke-linecap: square"/>
   </g>
  </g>
 </g>
 <defs>
  <clipPath id="p008af81f99">
   <rect x="57.6" y="41.472" width="357.12" height="266.112"/>
  </clipPath>
 </defs>
</svg>
