<?xml version="1.0" encoding="utf-8" standalone="no"?>
<!DOCTYPE svg PUBLIC "-//W3C//DTD SVG 1.1//EN"
  "http://www.w3.org/Graphics/SVG/1.1/DTD/svg11.dtd">
<svg xmlns:xlink="http://www.w3.org/1999/xlink" width="460.8pt" height="345.6pt" viewBox="0 0 460.8 345.6" xmlns="http://www.w3.org/2000/svg" version="1.1">
 <metadata>
  <rdf:RDF xmlns:dc="http://purl.org/dc/elements/1.1/" xmlns:cc="http://creativecommons.org/ns#" xmlns:rdf="http://www.w3.org/1999/02/22-rdf-syntax-ns#">
   <cc:Work>
    <dc:type rdf:resource="http://purl.org/dc/dcmitype/StillImage"/>
    <dc:date>2024-04-26T05:11:33.427122</dc:date>
    <dc:format>image/svg+xml</dc:format>
    <dc:creator>
     <cc:Agent>
      <dc:title>Matplotlib v3.7.2, https://matplotlib.org/</dc:title>
     </cc:Agent>
    </dc:creator>
   </cc:Work>
  </rdf:RDF>
 </metadata>
 <defs>
  <style type="text/css">*{stroke-linejoin: round; stroke-linecap: butt}</style>
 </defs>
 <g id="figure_1">
  <g id="patch_1">
   <path d="M 0 345.6 
L 460.8 345.6 
L 460.8 0 
L 0 0 
z
" style="fill: #ffffff"/>
  </g>
  <g id="axes_1">
   <g id="patch_2">
    <path d="M 57.6 307.584 
L 414.72 307.584 
L 414.72 41.472 
L 57.6 41.472 
z
" style="fill: #ffffff"/>
   </g>
   <g id="matplotlib.axis_1">
    <g id="xtick_1">
     <g id="line2d_1">
      <defs>
       <path id="m7ed57dbd04" d="M 0 0 
L 0 3.5 
" style="stroke: #000000; stroke-width: 0.8"/>
      </defs>
      <g>
       <use xlink:href="#m7ed57dbd04" x="73.832727" y="307.584" style="stroke: #000000; stroke-width: 0.8"/>
      </g>
     </g>
     <g id="text_1">
      <!-- 0 -->
      <g transform="translate(70.651477 322.182437) scale(0.1 -0.1)">
       <defs>
        <path id="DejaVuSans-30" d="M 2034 4250 
Q 1547 4250 1301 3770 
Q 1056 3291 1056 2328 
Q 1056 1369 1301 889 
Q 1547 409 2034 409 
Q 2525 409 2770 889 
Q 3016 1369 3016 2328 
Q 3016 3291 2770 3770 
Q 2525 4250 2034 4250 
z
M 2034 4750 
Q 2819 4750 3233 4129 
Q 3647 3509 3647 2328 
Q 3647 1150 3233 529 
Q 2819 -91 2034 -91 
Q 1250 -91 836 529 
Q 422 1150 422 2328 
Q 422 3509 836 4129 
Q 1250 4750 2034 4750 
z
" transform="scale(0.015625)"/>
       </defs>
       <use xlink:href="#DejaVuSans-30"/>
      </g>
     </g>
    </g>
    <g id="xtick_2">
     <g id="line2d_2">
      <g>
       <use xlink:href="#m7ed57dbd04" x="138.776625" y="307.584" style="stroke: #000000; stroke-width: 0.8"/>
      </g>
     </g>
     <g id="text_2">
      <!-- 1000 -->
      <g transform="translate(126.051625 322.182437) scale(0.1 -0.1)">
       <defs>
        <path id="DejaVuSans-31" d="M 794 531 
L 1825 531 
L 1825 4091 
L 703 3866 
L 703 4441 
L 1819 4666 
L 2450 4666 
L 2450 531 
L 3481 531 
L 3481 0 
L 794 0 
L 794 531 
z
" transform="scale(0.015625)"/>
       </defs>
       <use xlink:href="#DejaVuSans-31"/>
       <use xlink:href="#DejaVuSans-30" x="63.623047"/>
       <use xlink:href="#DejaVuSans-30" x="127.246094"/>
       <use xlink:href="#DejaVuSans-30" x="190.869141"/>
      </g>
     </g>
    </g>
    <g id="xtick_3">
     <g id="line2d_3">
      <g>
       <use xlink:href="#m7ed57dbd04" x="203.720523" y="307.584" style="stroke: #000000; stroke-width: 0.8"/>
      </g>
     </g>
     <g id="text_3">
      <!-- 2000 -->
      <g transform="translate(190.995523 322.182437) scale(0.1 -0.1)">
       <defs>
        <path id="DejaVuSans-32" d="M 1228 531 
L 3431 531 
L 3431 0 
L 469 0 
L 469 531 
Q 828 903 1448 1529 
Q 2069 2156 2228 2338 
Q 2531 2678 2651 2914 
Q 2772 3150 2772 3378 
Q 2772 3750 2511 3984 
Q 2250 4219 1831 4219 
Q 1534 4219 1204 4116 
Q 875 4013 500 3803 
L 500 4441 
Q 881 4594 1212 4672 
Q 1544 4750 1819 4750 
Q 2544 4750 2975 4387 
Q 3406 4025 3406 3419 
Q 3406 3131 3298 2873 
Q 3191 2616 2906 2266 
Q 2828 2175 2409 1742 
Q 1991 1309 1228 531 
z
" transform="scale(0.015625)"/>
       </defs>
       <use xlink:href="#DejaVuSans-32"/>
       <use xlink:href="#DejaVuSans-30" x="63.623047"/>
       <use xlink:href="#DejaVuSans-30" x="127.246094"/>
       <use xlink:href="#DejaVuSans-30" x="190.869141"/>
      </g>
     </g>
    </g>
    <g id="xtick_4">
     <g id="line2d_4">
      <g>
       <use xlink:href="#m7ed57dbd04" x="268.664421" y="307.584" style="stroke: #000000; stroke-width: 0.8"/>
      </g>
     </g>
     <g id="text_4">
      <!-- 3000 -->
      <g transform="translate(255.939421 322.182437) scale(0.1 -0.1)">
       <defs>
        <path id="DejaVuSans-33" d="M 2597 2516 
Q 3050 2419 3304 2112 
Q 3559 1806 3559 1356 
Q 3559 666 3084 287 
Q 2609 -91 1734 -91 
Q 1441 -91 1130 -33 
Q 819 25 488 141 
L 488 750 
Q 750 597 1062 519 
Q 1375 441 1716 441 
Q 2309 441 2620 675 
Q 2931 909 2931 1356 
Q 2931 1769 2642 2001 
Q 2353 2234 1838 2234 
L 1294 2234 
L 1294 2753 
L 1863 2753 
Q 2328 2753 2575 2939 
Q 2822 3125 2822 3475 
Q 2822 3834 2567 4026 
Q 2313 4219 1838 4219 
Q 1578 4219 1281 4162 
Q 984 4106 628 3988 
L 628 4550 
Q 988 4650 1302 4700 
Q 1616 4750 1894 4750 
Q 2613 4750 3031 4423 
Q 3450 4097 3450 3541 
Q 3450 3153 3228 2886 
Q 3006 2619 2597 2516 
z
" transform="scale(0.015625)"/>
       </defs>
       <use xlink:href="#DejaVuSans-33"/>
       <use xlink:href="#DejaVuSans-30" x="63.623047"/>
       <use xlink:href="#DejaVuSans-30" x="127.246094"/>
       <use xlink:href="#DejaVuSans-30" x="190.869141"/>
      </g>
     </g>
    </g>
    <g id="xtick_5">
     <g id="line2d_5">
      <g>
       <use xlink:href="#m7ed57dbd04" x="333.608319" y="307.584" style="stroke: #000000; stroke-width: 0.8"/>
      </g>
     </g>
     <g id="text_5">
      <!-- 4000 -->
      <g transform="translate(320.883319 322.182437) scale(0.1 -0.1)">
       <defs>
        <path id="DejaVuSans-34" d="M 2419 4116 
L 825 1625 
L 2419 1625 
L 2419 4116 
z
M 2253 4666 
L 3047 4666 
L 3047 1625 
L 3713 1625 
L 3713 1100 
L 3047 1100 
L 3047 0 
L 2419 0 
L 2419 1100 
L 313 1100 
L 313 1709 
L 2253 4666 
z
" transform="scale(0.015625)"/>
       </defs>
       <use xlink:href="#DejaVuSans-34"/>
       <use xlink:href="#DejaVuSans-30" x="63.623047"/>
       <use xlink:href="#DejaVuSans-30" x="127.246094"/>
       <use xlink:href="#DejaVuSans-30" x="190.869141"/>
      </g>
     </g>
    </g>
    <g id="xtick_6">
     <g id="line2d_6">
      <g>
       <use xlink:href="#m7ed57dbd04" x="398.552217" y="307.584" style="stroke: #000000; stroke-width: 0.8"/>
      </g>
     </g>
     <g id="text_6">
      <!-- 5000 -->
      <g transform="translate(385.827217 322.182437) scale(0.1 -0.1)">
       <defs>
        <path id="DejaVuSans-35" d="M 691 4666 
L 3169 4666 
L 3169 4134 
L 1269 4134 
L 1269 2991 
Q 1406 3038 1543 3061 
Q 1681 3084 1819 3084 
Q 2600 3084 3056 2656 
Q 3513 2228 3513 1497 
Q 3513 744 3044 326 
Q 2575 -91 1722 -91 
Q 1428 -91 1123 -41 
Q 819 9 494 109 
L 494 744 
Q 775 591 1075 516 
Q 1375 441 1709 441 
Q 2250 441 2565 725 
Q 2881 1009 2881 1497 
Q 2881 1984 2565 2268 
Q 2250 2553 1709 2553 
Q 1456 2553 1204 2497 
Q 953 2441 691 2322 
L 691 4666 
z
" transform="scale(0.015625)"/>
       </defs>
       <use xlink:href="#DejaVuSans-35"/>
       <use xlink:href="#DejaVuSans-30" x="63.623047"/>
       <use xlink:href="#DejaVuSans-30" x="127.246094"/>
       <use xlink:href="#DejaVuSans-30" x="190.869141"/>
      </g>
     </g>
    </g>
   </g>
   <g id="matplotlib.axis_2">
    <g id="ytick_1">
     <g id="line2d_7">
      <defs>
       <path id="m694d82b07e" d="M 0 0 
L -3.5 0 
" style="stroke: #000000; stroke-width: 0.8"/>
      </defs>
      <g>
       <use xlink:href="#m694d82b07e" x="57.6" y="295.488" style="stroke: #000000; stroke-width: 0.8"/>
      </g>
     </g>
     <g id="text_7">
      <!-- −300 -->
      <g transform="translate(23.132812 299.287219) scale(0.1 -0.1)">
       <defs>
        <path id="DejaVuSans-2212" d="M 678 2272 
L 4684 2272 
L 4684 1741 
L 678 1741 
L 678 2272 
z
" transform="scale(0.015625)"/>
       </defs>
       <use xlink:href="#DejaVuSans-2212"/>
       <use xlink:href="#DejaVuSans-33" x="83.789062"/>
       <use xlink:href="#DejaVuSans-30" x="147.412109"/>
       <use xlink:href="#DejaVuSans-30" x="211.035156"/>
      </g>
     </g>
    </g>
    <g id="ytick_2">
     <g id="line2d_8">
      <g>
       <use xlink:href="#m694d82b07e" x="57.6" y="265.269573" style="stroke: #000000; stroke-width: 0.8"/>
      </g>
     </g>
     <g id="text_8">
      <!-- −250 -->
      <g transform="translate(23.132812 269.068792) scale(0.1 -0.1)">
       <use xlink:href="#DejaVuSans-2212"/>
       <use xlink:href="#DejaVuSans-32" x="83.789062"/>
       <use xlink:href="#DejaVuSans-35" x="147.412109"/>
       <use xlink:href="#DejaVuSans-30" x="211.035156"/>
      </g>
     </g>
    </g>
    <g id="ytick_3">
     <g id="line2d_9">
      <g>
       <use xlink:href="#m694d82b07e" x="57.6" y="235.051146" style="stroke: #000000; stroke-width: 0.8"/>
      </g>
     </g>
     <g id="text_9">
      <!-- −200 -->
      <g transform="translate(23.132812 238.850364) scale(0.1 -0.1)">
       <use xlink:href="#DejaVuSans-2212"/>
       <use xlink:href="#DejaVuSans-32" x="83.789062"/>
       <use xlink:href="#DejaVuSans-30" x="147.412109"/>
       <use xlink:href="#DejaVuSans-30" x="211.035156"/>
      </g>
     </g>
    </g>
    <g id="ytick_4">
     <g id="line2d_10">
      <g>
       <use xlink:href="#m694d82b07e" x="57.6" y="204.832719" style="stroke: #000000; stroke-width: 0.8"/>
      </g>
     </g>
     <g id="text_10">
      <!-- −150 -->
      <g transform="translate(23.132812 208.631937) scale(0.1 -0.1)">
       <use xlink:href="#DejaVuSans-2212"/>
       <use xlink:href="#DejaVuSans-31" x="83.789062"/>
       <use xlink:href="#DejaVuSans-35" x="147.412109"/>
       <use xlink:href="#DejaVuSans-30" x="211.035156"/>
      </g>
     </g>
    </g>
    <g id="ytick_5">
     <g id="line2d_11">
      <g>
       <use xlink:href="#m694d82b07e" x="57.6" y="174.614291" style="stroke: #000000; stroke-width: 0.8"/>
      </g>
     </g>
     <g id="text_11">
      <!-- −100 -->
      <g transform="translate(23.132812 178.41351) scale(0.1 -0.1)">
       <use xlink:href="#DejaVuSans-2212"/>
       <use xlink:href="#DejaVuSans-31" x="83.789062"/>
       <use xlink:href="#DejaVuSans-30" x="147.412109"/>
       <use xlink:href="#DejaVuSans-30" x="211.035156"/>
      </g>
     </g>
    </g>
    <g id="ytick_6">
     <g id="line2d_12">
      <g>
       <use xlink:href="#m694d82b07e" x="57.6" y="144.395864" style="stroke: #000000; stroke-width: 0.8"/>
      </g>
     </g>
     <g id="text_12">
      <!-- −50 -->
      <g transform="translate(29.495313 148.195083) scale(0.1 -0.1)">
       <use xlink:href="#DejaVuSans-2212"/>
       <use xlink:href="#DejaVuSans-35" x="83.789062"/>
       <use xlink:href="#DejaVuSans-30" x="147.412109"/>
      </g>
     </g>
    </g>
    <g id="ytick_7">
     <g id="line2d_13">
      <g>
       <use xlink:href="#m694d82b07e" x="57.6" y="114.177437" style="stroke: #000000; stroke-width: 0.8"/>
      </g>
     </g>
     <g id="text_13">
      <!-- 0 -->
      <g transform="translate(44.2375 117.976656) scale(0.1 -0.1)">
       <use xlink:href="#DejaVuSans-30"/>
      </g>
     </g>
    </g>
    <g id="ytick_8">
     <g id="line2d_14">
      <g>
       <use xlink:href="#m694d82b07e" x="57.6" y="83.95901" style="stroke: #000000; stroke-width: 0.8"/>
      </g>
     </g>
     <g id="text_14">
      <!-- 50 -->
      <g transform="translate(37.875 87.758229) scale(0.1 -0.1)">
       <use xlink:href="#DejaVuSans-35"/>
       <use xlink:href="#DejaVuSans-30" x="63.623047"/>
      </g>
     </g>
    </g>
    <g id="ytick_9">
     <g id="line2d_15">
      <g>
       <use xlink:href="#m694d82b07e" x="57.6" y="53.740583" style="stroke: #000000; stroke-width: 0.8"/>
      </g>
     </g>
     <g id="text_15">
      <!-- 100 -->
      <g transform="translate(31.5125 57.539802) scale(0.1 -0.1)">
       <use xlink:href="#DejaVuSans-31"/>
       <use xlink:href="#DejaVuSans-30" x="63.623047"/>
       <use xlink:href="#DejaVuSans-30" x="127.246094"/>
      </g>
     </g>
    </g>
   </g>
   <g id="line2d_16">
    <path d="M 73.832727 295.488 
L 73.897671 85.927597 
L 73.962615 94.630699 
L 74.027559 123.578397 
L 74.092503 295.488 
L 74.157447 82.588862 
L 74.222391 295.488 
L 74.287335 90.607269 
L 74.417222 295.488 
L 74.482166 295.488 
L 74.54711 136.613771 
L 74.676998 295.488 
L 76.04082 295.488 
L 76.105764 137.22324 
L 76.235651 295.488 
L 110.071422 295.488 
L 110.136366 58.313483 
L 110.20131 295.488 
L 110.331198 54.891599 
L 110.396142 295.488 
L 110.461086 66.708227 
L 110.52603 295.488 
L 110.655917 59.465331 
L 110.720861 295.488 
L 110.785805 62.274769 
L 110.915693 295.488 
L 110.980637 80.955522 
L 111.110525 295.488 
L 111.630076 295.488 
L 111.69502 67.942599 
L 111.759964 295.488 
L 111.824908 72.250416 
L 111.954795 295.488 
L 112.019739 214.614078 
L 112.149627 295.488 
L 112.409403 295.488 
L 112.474347 151.175772 
L 112.53929 295.488 
L 112.604234 81.086941 
L 112.669178 95.770391 
L 112.734122 295.488 
L 112.799066 136.368914 
L 112.86401 295.488 
L 112.928954 92.22125 
L 113.058842 295.488 
L 113.188729 295.488 
L 113.253673 100.472232 
L 113.383561 295.488 
L 114.033 295.488 
L 114.097944 95.992824 
L 114.162888 295.488 
L 114.227832 105.307052 
L 114.292776 295.488 
L 114.35772 131.019162 
L 114.487607 295.488 
L 114.552551 295.488 
L 114.617495 87.26469 
L 114.747383 295.488 
L 115.52671 295.488 
L 115.591654 95.892661 
L 115.721541 295.488 
L 117.799746 295.488 
L 117.86469 134.214694 
L 117.994578 295.488 
L 118.059522 295.488 
L 118.124466 135.286513 
L 118.254353 295.488 
L 118.319297 295.488 
L 118.384241 137.140867 
L 118.514129 295.488 
L 118.579073 295.488 
L 118.644017 142.669801 
L 118.773905 295.488 
L 119.293456 295.488 
L 119.3584 207.280231 
L 119.488287 295.488 
L 119.553231 295.488 
L 119.618175 260.230126 
L 119.748063 295.488 
L 120.137726 295.488 
L 120.20267 173.241051 
L 120.332558 295.488 
L 120.462446 295.488 
L 120.52739 126.645357 
L 120.592334 126.876352 
L 120.657278 295.488 
L 120.722222 149.127954 
L 120.787165 295.488 
L 120.852109 293.478807 
L 120.917053 247.027003 
L 121.046941 295.488 
L 121.176829 295.488 
L 121.241773 244.936508 
L 121.371661 295.488 
L 122.475707 295.488 
L 122.540651 204.856538 
L 122.670538 295.488 
L 123.125146 295.488 
L 123.255034 126.702694 
L 123.384921 295.488 
L 123.514809 295.488 
L 123.579753 125.624218 
L 123.644697 295.488 
L 123.709641 121.745478 
L 123.839529 295.488 
L 123.904473 136.051678 
L 124.03436 295.488 
L 124.099304 113.805788 
L 124.164248 295.488 
L 124.229192 133.443657 
L 124.35908 295.488 
L 124.424024 153.275748 
L 124.553912 295.488 
L 124.618855 179.616827 
L 124.683799 295.488 
L 124.748743 130.305428 
L 124.813687 295.488 
L 124.878631 132.827993 
L 125.008519 295.488 
L 125.073463 174.086255 
L 125.138407 295.488 
L 125.20335 141.57812 
L 125.268294 295.488 
L 125.333238 154.725881 
L 125.463126 295.488 
L 125.52807 295.488 
L 125.593014 188.283557 
L 125.657958 295.488 
L 125.722902 265.575781 
L 125.852789 295.488 
L 125.917733 281.842758 
L 125.982677 295.488 
L 126.112565 141.190199 
L 126.242453 295.488 
L 126.632116 295.488 
L 126.69706 155.001833 
L 126.826948 295.488 
L 126.891892 174.102723 
L 127.02178 295.488 
L 127.086724 295.488 
L 127.281555 102.476606 
L 127.411443 295.488 
L 127.541331 108.405757 
L 127.671219 295.488 
L 127.736163 295.488 
L 127.801106 199.424309 
L 127.86605 295.488 
L 127.930994 140.243263 
L 127.995938 295.488 
L 128.060882 86.490534 
L 128.125826 295.488 
L 128.19077 70.786975 
L 128.255714 131.387291 
L 128.385601 295.488 
L 128.450545 285.550713 
L 128.515489 295.488 
L 128.645377 131.094755 
L 128.775265 295.488 
L 128.840209 132.000562 
L 128.905153 176.49952 
L 129.03504 295.488 
L 129.099984 100.675691 
L 129.164928 295.488 
L 129.229872 124.371765 
L 129.294816 295.488 
L 129.35976 139.707348 
L 129.489648 295.488 
L 129.554592 97.784414 
L 129.619536 295.488 
L 129.749423 126.54934 
L 129.814367 201.211265 
L 129.944255 127.143897 
L 130.074143 295.488 
L 130.139087 126.68207 
L 130.204031 127.041362 
L 130.268975 126.743311 
L 130.398862 295.488 
L 130.52875 116.212514 
L 130.593694 275.2032 
L 130.658638 103.814967 
L 130.723582 295.488 
L 130.788526 83.796886 
L 130.85347 126.511167 
L 130.918414 295.488 
L 130.983357 234.267192 
L 131.113245 103.035064 
L 131.178189 126.609949 
L 131.243133 126.524738 
L 131.308077 295.488 
L 131.373021 279.58976 
L 131.437965 126.723252 
L 131.502909 292.857042 
L 131.567852 105.79395 
L 131.69774 295.488 
L 131.827628 295.488 
L 131.892572 228.00816 
L 132.02246 295.488 
L 132.347179 295.488 
L 132.412123 128.673041 
L 132.477067 295.488 
L 132.542011 209.143617 
L 132.606955 126.101642 
L 132.736843 295.488 
L 132.801787 295.488 
L 132.86673 115.415529 
L 132.931674 295.488 
L 132.996618 213.027764 
L 133.126506 295.488 
L 133.256394 295.488 
L 133.386282 94.957768 
L 133.516169 237.719129 
L 133.581113 153.714066 
L 133.775945 295.488 
L 133.840889 126.08887 
L 133.905833 295.488 
L 133.970777 128.910009 
L 134.035721 295.488 
L 134.100664 127.548298 
L 134.165608 295.488 
L 134.230552 127.033846 
L 134.295496 178.24444 
L 134.36044 295.488 
L 134.490328 101.689743 
L 134.555272 134.454573 
L 134.620216 101.892741 
L 134.750103 148.131339 
L 134.815047 86.328474 
L 134.879991 97.29591 
L 134.944935 93.273087 
L 135.009879 129.060894 
L 135.074823 126.214502 
L 135.139767 91.285336 
L 135.204711 295.488 
L 135.269655 128.701707 
L 135.334599 129.732549 
L 135.399542 128.115458 
L 135.464486 147.627238 
L 135.594374 102.681528 
L 135.724262 128.406884 
L 135.789206 295.488 
L 135.919094 126.14969 
L 135.984038 127.799363 
L 136.048981 127.522644 
L 136.178869 295.488 
L 136.243813 186.233391 
L 136.308757 295.488 
L 136.373701 128.077775 
L 136.503589 295.488 
L 136.69842 295.488 
L 136.828308 101.099606 
L 136.893252 295.488 
L 136.958196 113.495543 
L 137.02314 295.488 
L 137.088084 129.022548 
L 137.153028 174.681802 
L 137.217972 161.277176 
L 137.282915 295.488 
L 137.412803 99.499002 
L 137.477747 125.877602 
L 137.607635 102.037385 
L 137.672579 112.897553 
L 137.802467 102.064154 
L 137.932354 188.548295 
L 137.997298 102.76595 
L 138.127186 295.488 
L 138.19213 101.97993 
L 138.257074 130.849744 
L 138.322018 101.934622 
L 138.386962 127.337451 
L 138.451906 100.992652 
L 138.51685 124.596015 
L 138.581793 124.41466 
L 138.646737 295.488 
L 138.711681 126.861951 
L 138.776625 131.152837 
L 138.906513 295.488 
L 138.971457 102.13919 
L 139.036401 102.429497 
L 139.101345 295.488 
L 139.166289 127.022407 
L 139.231232 295.488 
L 139.36112 102.065306 
L 139.426064 130.097654 
L 139.491008 295.488 
L 139.620896 124.485921 
L 139.68584 117.288917 
L 139.750784 155.541717 
L 139.815728 102.318682 
L 139.880671 295.488 
L 139.945615 113.47234 
L 140.010559 124.423051 
L 140.075503 129.725917 
L 140.140447 295.488 
L 140.205391 124.627462 
L 140.270335 140.811956 
L 140.335279 100.640791 
L 140.400223 295.488 
L 140.465166 126.822259 
L 140.53011 295.488 
L 140.659998 126.414725 
L 140.789886 295.488 
L 140.919774 117.432698 
L 140.984718 102.40326 
L 141.049662 125.249079 
L 141.179549 295.488 
L 141.244493 126.459318 
L 141.374381 295.488 
L 141.504269 295.488 
L 141.634157 126.042588 
L 141.699101 131.302221 
L 141.764044 132.910901 
L 141.828988 295.488 
L 141.958876 110.491559 
L 142.02382 128.96228 
L 142.088764 196.596848 
L 142.153708 94.217819 
L 142.34854 295.488 
L 142.413483 120.853864 
L 142.478427 230.990928 
L 142.608315 295.488 
L 142.673259 105.59373 
L 142.738203 295.488 
L 142.803147 102.427728 
L 142.868091 295.488 
L 142.933035 125.722841 
L 142.997979 125.924482 
L 143.127866 295.488 
L 143.19281 178.091229 
L 143.257754 185.60482 
L 143.387642 295.488 
L 143.51753 295.488 
L 143.582474 130.011816 
L 143.647417 140.91803 
L 143.712361 103.425324 
L 143.777305 295.488 
L 143.907193 123.599187 
L 143.972137 295.488 
L 144.102025 104.917379 
L 144.166969 295.488 
L 144.296856 104.479708 
L 144.3618 103.245552 
L 144.426744 129.888204 
L 144.491688 126.076826 
L 144.556632 264.58347 
L 144.621576 123.659754 
L 144.68652 123.926492 
L 144.751464 174.027104 
L 144.881352 121.072542 
L 144.946295 295.488 
L 145.011239 102.980776 
L 145.076183 103.101065 
L 145.141127 295.488 
L 145.206071 167.69812 
L 145.271015 103.298218 
L 145.335959 124.200245 
L 145.400903 102.571857 
L 145.465847 162.263084 
L 145.595734 102.103033 
L 145.660678 295.488 
L 145.725622 186.69395 
L 145.790566 123.720381 
L 145.85551 123.872588 
L 145.985398 295.488 
L 146.115286 103.269178 
L 146.18023 153.42129 
L 146.245173 106.218638 
L 146.310117 121.316533 
L 146.375061 103.123372 
L 146.440005 103.570618 
L 146.504949 102.925163 
L 146.569893 102.980777 
L 146.634837 134.194226 
L 146.699781 102.980777 
L 146.764725 105.5235 
L 146.829668 106.218638 
L 146.959556 77.355457 
L 147.0245 130.851155 
L 147.089444 78.41137 
L 147.154388 79.036446 
L 147.219332 78.810737 
L 147.284276 102.357692 
L 147.34922 79.282283 
L 147.414164 295.488 
L 147.544051 77.810306 
L 147.673939 80.342087 
L 147.738883 127.53972 
L 147.803827 82.202239 
L 147.868771 83.667089 
L 147.933715 124.192765 
L 147.998659 82.909112 
L 148.063603 127.074094 
L 148.128546 123.426299 
L 148.258434 82.549611 
L 148.323378 295.488 
L 148.388322 83.667089 
L 148.453266 113.359622 
L 148.583154 127.141044 
L 148.648098 82.974485 
L 148.713042 125.038995 
L 148.777985 123.052567 
L 148.842929 84.699238 
L 148.907873 115.526669 
L 148.972817 295.488 
L 149.102705 85.514665 
L 149.167649 133.885929 
L 149.232593 295.488 
L 149.297537 119.400659 
L 149.36248 121.971221 
L 149.427424 86.8127 
L 149.492368 89.788433 
L 149.557312 87.885315 
L 149.622256 104.248449 
L 149.6872 88.424588 
L 149.752144 94.32301 
L 149.817088 127.100091 
L 149.882032 119.492447 
L 149.946976 85.028519 
L 150.011919 86.512019 
L 150.076863 136.474753 
L 150.141807 119.632619 
L 150.206751 84.720766 
L 150.271695 119.647126 
L 150.401583 295.488 
L 150.531471 295.488 
L 150.596415 120.174477 
L 150.726302 295.488 
L 150.791246 295.488 
L 150.921134 121.873455 
L 150.986078 94.873815 
L 151.051022 295.488 
L 151.18091 122.434028 
L 151.245854 125.55541 
L 151.375741 295.488 
L 151.440685 295.488 
L 151.505629 124.996679 
L 151.635517 295.488 
L 151.700461 125.004551 
L 151.765405 126.240692 
L 151.895293 295.488 
L 152.02518 124.996679 
L 152.155068 124.713609 
L 152.220012 295.488 
L 152.284956 123.666528 
L 152.3499 124.185919 
L 152.479788 122.583449 
L 152.609675 295.488 
L 152.674619 122.571926 
L 152.739563 295.488 
L 152.804507 123.733506 
L 152.934395 295.488 
L 152.999339 121.384919 
L 153.064283 121.515375 
L 153.19417 295.488 
L 153.324058 295.488 
L 153.389002 120.693878 
L 153.453946 120.938931 
L 153.51889 121.22137 
L 153.648778 295.488 
L 153.713722 119.964889 
L 153.778666 295.488 
L 153.843609 120.06698 
L 153.908553 295.488 
L 154.038441 119.761401 
L 154.103385 119.882282 
L 154.168329 119.979111 
L 154.233273 119.647126 
L 154.298217 119.708953 
L 154.363161 295.488 
L 154.428105 119.632619 
L 154.493048 295.488 
L 154.557992 119.647126 
L 154.622936 295.488 
L 154.68788 74.360154 
L 154.752824 119.708953 
L 154.817768 295.488 
L 154.882712 119.680056 
L 154.947656 119.747018 
L 155.0126 295.488 
L 155.077544 119.575952 
L 155.142487 119.775932 
L 155.207431 295.488 
L 155.272375 119.647126 
L 155.337319 119.708953 
L 155.467207 119.761401 
L 155.532151 119.896518 
L 155.597095 119.694431 
L 155.726982 295.488 
L 155.85687 119.775932 
L 155.986758 119.775932 
L 156.116646 295.488 
L 156.18159 82.058242 
L 156.246534 119.964889 
L 156.311478 119.747018 
L 156.506309 80.806585 
L 156.571253 120.131963 
L 156.636197 119.896518 
L 156.701141 119.910896 
L 156.766085 119.761401 
L 156.831029 122.814739 
L 157.02586 80.205698 
L 157.155748 119.979111 
L 157.220692 295.488 
L 157.285636 81.943684 
L 157.415524 295.488 
L 157.480468 82.590526 
L 157.545412 86.229536 
L 157.610356 84.924048 
L 157.675299 90.384739 
L 157.740243 86.128516 
L 157.805187 120.05278 
L 157.870131 295.488 
L 157.935075 88.21185 
L 158.000019 295.488 
L 158.064963 88.356001 
L 158.129907 295.488 
L 158.194851 84.966311 
L 158.259795 120.244586 
L 158.389682 120.05278 
L 158.51957 295.488 
L 159.558672 295.488 
L 159.68856 88.139429 
L 159.753504 82.502859 
L 159.818448 57.50345 
L 159.948336 120.779679 
L 160.01328 295.488 
L 160.078224 112.520727 
L 160.208111 295.488 
L 160.273055 76.399639 
L 160.402943 295.488 
L 160.597775 295.488 
L 160.662719 234.889403 
L 160.792607 295.488 
L 161.377102 295.488 
L 161.442046 120.444223 
L 161.506989 120.472141 
L 161.701821 295.488 
L 161.766765 295.488 
L 161.896653 120.680128 
L 162.026541 295.488 
L 162.091484 120.348605 
L 162.156428 120.472141 
L 162.221372 120.666508 
L 162.286316 295.488 
L 162.416204 120.444223 
L 162.546092 295.488 
L 162.611036 120.334658 
L 162.67598 120.362689 
L 162.740923 120.820287 
L 162.805867 295.488 
L 162.870811 120.334658 
L 162.935755 295.488 
L 163.000699 120.587141 
L 163.065643 295.488 
L 163.130587 120.587141 
L 163.195531 120.952497 
L 163.325419 295.488 
L 163.390362 120.430462 
L 163.455306 295.488 
L 163.52025 121.063814 
L 163.650138 295.488 
L 163.780026 120.793089 
L 163.909914 295.488 
L 164.299577 295.488 
L 164.364521 120.966195 
L 164.494409 295.488 
L 164.68924 295.488 
L 164.819128 121.84814 
L 164.949016 295.488 
L 165.01396 295.488 
L 165.078904 121.717181 
L 165.143848 295.488 
L 165.208792 120.938931 
L 165.273735 121.104191 
L 165.338679 121.371717 
L 165.403623 295.488 
L 165.468567 121.371717 
L 165.533511 295.488 
L 165.598455 121.528307 
L 165.728343 295.488 
L 165.793287 295.488 
L 165.858231 84.244501 
L 165.923174 100.224465 
L 166.053062 295.488 
L 166.118006 121.248172 
L 166.18295 121.56786 
L 166.247894 121.358639 
L 166.312838 121.704161 
L 166.377782 121.371717 
L 166.442726 99.326324 
L 166.572613 122.232121 
L 166.637557 121.117915 
L 166.702501 122.421817 
L 166.767445 121.541362 
L 166.832389 81.952227 
L 166.962277 121.912375 
L 167.027221 121.411716 
L 167.092165 295.488 
L 167.157109 115.925916 
L 167.222052 121.22137 
L 167.286996 121.743619 
L 167.35194 295.488 
L 167.416884 121.384919 
L 167.481828 121.730332 
L 167.546772 120.952497 
L 167.611716 121.261774 
L 167.741604 122.434028 
L 167.806547 103.550383 
L 167.871491 295.488 
L 168.001379 121.090602 
L 168.066323 121.19507 
L 168.131267 295.488 
L 168.196211 121.411716 
L 168.261155 295.488 
L 168.326099 121.594908 
L 168.391043 277.745602 
L 168.52093 121.117915 
L 168.585874 122.113962 
L 168.650818 121.899269 
L 168.715762 178.705692 
L 168.780706 121.439067 
L 168.84565 122.654921 
L 168.910594 295.488 
L 169.040482 121.234706 
L 169.170369 123.706807 
L 169.235313 121.581313 
L 169.300257 295.488 
L 169.430145 123.492213 
L 169.495089 121.912375 
L 169.560033 122.484164 
L 169.624977 140.786071 
L 169.689921 123.287657 
L 169.754864 141.358642 
L 169.884752 121.554545 
L 170.079584 123.514095 
L 170.144528 122.087724 
L 170.209472 124.773945 
L 170.274416 295.488 
L 170.33936 125.020518 
L 170.404303 125.327422 
L 170.469247 120.111279 
L 170.534191 126.263386 
L 170.599135 125.053488 
L 170.664079 116.047621 
L 170.729023 163.343782 
L 170.923855 112.467223 
L 170.988798 111.332006 
L 171.053742 123.06913 
L 171.118686 91.113859 
L 171.18363 121.3363 
L 171.248574 101.634424 
L 171.313518 108.121285 
L 171.378462 106.645017 
L 171.50835 102.872278 
L 171.573294 111.314321 
L 171.638237 111.28012 
L 171.703181 198.536782 
L 171.768125 107.581947 
L 171.833069 198.946307 
L 171.898013 124.721973 
L 171.962957 125.004551 
L 172.027901 109.140966 
L 172.092845 110.795044 
L 172.157789 295.488 
L 172.222733 112.784045 
L 172.287676 123.265102 
L 172.35262 124.185919 
L 172.417564 137.138739 
L 172.547452 108.672098 
L 172.67734 124.204679 
L 172.742284 295.488 
L 172.807228 117.67708 
L 172.872172 143.250497 
L 173.002059 119.006407 
L 173.067003 173.162856 
L 173.196891 123.023241 
L 173.261835 123.243008 
L 173.326779 123.931778 
L 173.391723 123.922128 
L 173.456667 119.242171 
L 173.521611 121.781951 
L 173.586554 124.185919 
L 173.651498 123.460222 
L 173.781386 123.221336 
L 173.84633 102.594636 
L 173.911274 123.931778 
L 173.976218 123.000963 
L 174.041162 123.000963 
L 174.106106 122.219804 
L 174.171049 295.488 
L 174.300937 101.185872 
L 174.430825 122.811247 
L 174.495769 123.696599 
L 174.560713 123.470782 
L 174.625657 295.488 
L 174.755545 122.60681 
L 174.820488 123.023241 
L 174.885432 295.488 
L 174.950376 122.811247 
L 175.01532 123.931778 
L 175.080264 122.60681 
L 175.145208 123.023241 
L 175.210152 123.911469 
L 175.469927 117.618682 
L 175.534871 123.706807 
L 175.599815 123.221336 
L 175.664759 295.488 
L 175.729703 110.121314 
L 175.794647 295.488 
L 175.924535 107.243784 
L 175.989479 295.488 
L 176.054423 121.701158 
L 176.119366 123.243008 
L 176.18431 295.488 
L 176.249254 73.075384 
L 176.314198 295.488 
L 176.444086 65.539172 
L 176.50903 295.488 
L 176.573974 124.440387 
L 176.703861 295.488 
L 177.028581 295.488 
L 177.158469 79.880318 
L 177.223413 72.459934 
L 177.3533 295.488 
L 177.483188 295.488 
L 177.613076 66.489807 
L 177.742964 295.488 
L 177.807908 295.488 
L 177.872852 85.646329 
L 178.002739 295.488 
L 178.067683 295.488 
L 178.132627 77.726473 
L 178.197571 295.488 
L 178.262515 70.779202 
L 178.327459 295.488 
L 178.392403 163.40351 
L 178.457347 72.117553 
L 178.522291 295.488 
L 178.587235 71.402962 
L 178.652178 295.488 
L 178.717122 231.601544 
L 178.782066 295.488 
L 178.911954 74.160297 
L 178.976898 68.172724 
L 179.17173 105.854181 
L 179.236674 82.667915 
L 179.301617 126.320019 
L 179.366561 83.667845 
L 179.496449 196.630275 
L 179.561393 183.78037 
L 179.626337 101.809973 
L 179.756225 194.838127 
L 179.821169 181.23034 
L 179.886112 194.298124 
L 179.951056 121.110344 
L 180.016 160.445545 
L 180.080944 127.126794 
L 180.210832 170.144235 
L 180.275776 67.95104 
L 180.405664 185.434722 
L 180.470608 78.567584 
L 180.600495 295.488 
L 180.665439 177.443532 
L 180.730383 171.24953 
L 180.795327 148.64119 
L 180.860271 168.444709 
L 180.990159 69.533399 
L 181.120047 295.488 
L 181.249934 138.314979 
L 181.314878 144.212535 
L 181.379822 129.371072 
L 181.444766 295.488 
L 181.50971 119.203748 
L 181.574654 123.672186 
L 181.639598 130.632462 
L 181.834429 118.216941 
L 181.899373 155.387771 
L 181.964317 142.504987 
L 182.029261 295.488 
L 182.094205 143.279593 
L 182.159149 295.488 
L 182.224093 111.850403 
L 182.289037 295.488 
L 182.353981 106.440559 
L 182.418925 108.487412 
L 182.483868 295.488 
L 182.613756 106.726289 
L 182.743644 104.459103 
L 182.808588 104.839014 
L 182.873532 295.488 
L 182.938476 113.112989 
L 183.00342 295.488 
L 183.133307 109.259042 
L 183.198251 114.762134 
L 183.328139 295.488 
L 183.393083 114.404646 
L 183.458027 116.730553 
L 183.522971 161.106469 
L 183.652859 295.488 
L 183.84769 295.488 
L 183.912634 115.049326 
L 184.042522 295.488 
L 184.107466 124.841957 
L 184.237354 295.488 
L 184.302298 111.481731 
L 184.367241 295.488 
L 184.497129 107.599281 
L 184.562073 295.488 
L 184.627017 109.613662 
L 184.691961 295.488 
L 184.756905 72.356812 
L 184.821849 295.488 
L 184.951737 112.037281 
L 185.081624 295.488 
L 185.3414 295.488 
L 185.406344 73.874788 
L 185.536232 295.488 
L 185.731063 295.488 
L 185.796007 73.030914 
L 185.925895 295.488 
L 186.705222 295.488 
L 186.770166 95.249068 
L 186.900053 295.488 
L 189.238034 295.488 
L 189.367922 268.177059 
L 189.432865 281.320566 
L 189.497809 267.927321 
L 189.562753 153.455049 
L 189.692641 295.488 
L 189.952417 209.093087 
L 190.017361 247.193461 
L 190.082304 231.994871 
L 190.147248 217.129766 
L 190.277136 295.488 
L 190.471968 295.488 
L 190.601856 131.411236 
L 190.6668 295.488 
L 190.731743 251.312736 
L 190.861631 295.488 
L 192.615116 295.488 
L 192.68006 131.125196 
L 192.809948 295.488 
L 193.00478 295.488 
L 193.069724 115.021835 
L 193.134668 115.939758 
L 193.264555 295.488 
L 193.394443 295.488 
L 193.459387 110.997239 
L 193.589275 295.488 
L 194.108826 295.488 
L 194.17377 139.36647 
L 194.303658 295.488 
L 194.368602 115.939758 
L 194.49849 295.488 
L 195.797367 295.488 
L 195.862311 145.013887 
L 195.992199 295.488 
L 196.057143 295.488 
L 196.122087 143.732321 
L 196.187031 295.488 
L 196.251975 116.850349 
L 196.381863 295.488 
L 196.576694 295.488 
L 196.641638 81.511405 
L 196.771526 295.488 
L 197.291077 295.488 
L 197.356021 87.462583 
L 197.485909 295.488 
L 198.914675 295.488 
L 198.979618 106.342566 
L 199.109506 295.488 
L 199.434226 295.488 
L 199.49917 184.046331 
L 199.629057 295.488 
L 200.018721 295.488 
L 200.148609 84.351217 
L 200.278496 295.488 
L 200.538272 295.488 
L 200.603216 109.584796 
L 200.66816 295.488 
L 200.733104 85.848475 
L 200.862992 295.488 
L 201.252655 295.488 
L 201.317599 87.592873 
L 201.447487 295.488 
L 202.096926 295.488 
L 202.161869 239.394899 
L 202.291757 295.488 
L 202.486589 295.488 
L 202.551533 239.394899 
L 202.681421 295.488 
L 203.136028 295.488 
L 203.200972 207.288567 
L 203.265916 256.815758 
L 203.395804 295.488 
L 203.655579 295.488 
L 203.720523 230.126761 
L 203.850411 295.488 
L 203.915355 237.453306 
L 204.045243 295.488 
L 204.49985 295.488 
L 204.564794 212.546129 
L 204.694681 295.488 
L 205.279177 295.488 
L 205.34412 291.369095 
L 205.409064 244.531489 
L 205.538952 295.488 
L 205.603896 295.488 
L 205.66884 98.458992 
L 205.733784 295.488 
L 205.798728 93.733075 
L 205.928616 295.488 
L 206.058503 295.488 
L 206.188391 95.381921 
L 206.253335 106.199899 
L 206.383223 295.488 
L 206.513111 116.644762 
L 206.578055 295.488 
L 206.642998 118.462968 
L 206.772886 295.488 
L 207.292437 295.488 
L 207.487269 284.539114 
L 207.617157 61.686781 
L 207.682101 295.488 
L 207.747045 70.031845 
L 207.876932 295.488 
L 207.941876 295.488 
L 208.00682 106.329855 
L 208.136708 295.488 
L 208.980979 295.488 
L 209.045923 101.327287 
L 209.110867 295.488 
L 209.17581 248.172712 
L 209.305698 295.488 
L 209.50053 295.488 
L 209.565474 290.108074 
L 209.695362 295.488 
L 210.734464 295.488 
L 210.864352 73.236845 
L 211.059183 96.158603 
L 211.124127 89.663278 
L 211.189071 93.053425 
L 211.254015 108.113935 
L 211.318959 295.488 
L 211.383903 214.070583 
L 211.448847 295.488 
L 211.513791 105.670592 
L 211.643679 295.488 
L 211.773566 103.963415 
L 211.83851 107.671782 
L 211.903454 295.488 
L 212.033342 98.092892 
L 212.228174 107.013949 
L 212.358061 88.088754 
L 212.423005 180.630757 
L 212.487949 86.655769 
L 212.552893 102.994439 
L 212.682781 295.488 
L 212.812669 295.488 
L 212.877613 108.292512 
L 212.942557 295.488 
L 213.0075 90.229082 
L 213.072444 101.94979 
L 213.202332 295.488 
L 213.267276 89.746538 
L 213.33222 94.894609 
L 213.462108 295.488 
L 213.591995 96.796619 
L 213.721883 295.488 
L 215.929976 295.488 
L 216.059864 65.803217 
L 216.189751 295.488 
L 216.254695 64.294367 
L 216.384583 295.488 
L 216.774246 295.488 
L 216.904134 73.352104 
L 216.969078 199.60701 
L 217.098966 83.758029 
L 217.16391 82.823505 
L 217.228854 84.945649 
L 217.293798 83.758029 
L 217.553573 79.149333 
L 217.748405 81.325315 
L 217.813349 295.488 
L 217.878293 70.162043 
L 217.943237 81.204743 
L 218.073124 69.889857 
L 218.138068 295.488 
L 218.203012 73.378408 
L 218.267956 295.488 
L 218.397844 70.841138 
L 218.462788 295.488 
L 218.592676 70.493368 
L 218.65762 72.817086 
L 218.722563 71.83782 
L 218.852451 295.488 
L 220.476049 295.488 
L 220.540993 190.515296 
L 220.67088 295.488 
L 220.735824 192.359635 
L 220.865712 295.488 
L 220.9956 295.488 
L 221.060544 146.405707 
L 221.190432 295.488 
L 221.255375 295.488 
L 221.385263 85.44127 
L 221.515151 295.488 
L 221.645039 295.488 
L 221.709983 78.845901 
L 221.774927 119.598324 
L 221.839871 295.488 
L 221.904814 175.510815 
L 221.969758 78.554194 
L 222.034702 121.435393 
L 222.099646 65.714161 
L 222.16459 77.257974 
L 222.229534 122.364116 
L 222.294478 107.504724 
L 222.359422 104.262365 
L 222.424366 60.547648 
L 222.554253 295.488 
L 222.619197 79.180388 
L 222.684141 91.265288 
L 222.749085 65.715984 
L 222.814029 85.505582 
L 222.878973 75.440027 
L 223.008861 295.488 
L 224.567514 295.488 
L 224.632458 78.397425 
L 224.762346 295.488 
L 225.087065 295.488 
L 225.152009 76.052721 
L 225.281897 295.488 
L 225.736504 295.488 
L 225.801448 75.280454 
L 225.931336 295.488 
L 231.061904 295.488 
L 231.126848 79.007779 
L 231.191792 295.488 
L 231.256736 79.595783 
L 231.386624 295.488 
L 231.646399 295.488 
L 231.711343 81.082386 
L 231.841231 295.488 
L 232.555614 295.488 
L 232.620558 78.376726 
L 232.750445 295.488 
L 234.179211 295.488 
L 234.244155 78.116776 
L 234.374043 295.488 
L 234.438987 78.116782 
L 234.568875 295.488 
L 234.893594 295.488 
L 234.958538 75.685999 
L 235.088426 295.488 
L 235.283257 295.488 
L 235.413145 66.434696 
L 235.478089 295.488 
L 235.543033 66.954772 
L 235.607977 295.488 
L 235.672921 67.149806 
L 235.737865 71.212218 
L 235.867752 295.488 
L 235.932696 68.067918 
L 235.99764 295.488 
L 236.062584 67.683855 
L 236.127528 68.067918 
L 236.192472 295.488 
L 236.32236 67.149806 
L 236.452248 295.488 
L 236.517191 67.18692 
L 236.582135 295.488 
L 236.647079 67.633091 
L 236.776967 295.488 
L 236.971799 295.488 
L 237.036743 67.370045 
L 237.16663 295.488 
L 237.621238 295.488 
L 237.686182 67.633091 
L 237.816069 295.488 
L 237.945957 295.488 
L 238.010901 65.759934 
L 238.140789 295.488 
L 238.270677 295.488 
L 238.400564 67.633942 
L 238.530452 295.488 
L 238.66034 295.488 
L 238.725284 68.06437 
L 238.855172 295.488 
L 238.920116 70.187475 
L 239.050003 295.488 
L 240.024162 295.488 
L 240.089106 80.689291 
L 240.218994 295.488 
L 244.765066 295.488 
L 244.83001 102.52105 
L 244.959898 295.488 
L 250.545073 295.488 
L 250.610017 169.689377 
L 250.739905 295.488 
L 251.194512 295.488 
L 251.259456 103.327185 
L 251.3244 295.488 
L 251.389344 103.38797 
L 251.454288 148.904335 
L 251.519232 141.968724 
L 251.584176 295.488 
L 251.779007 104.33876 
L 251.843951 295.488 
L 251.908895 138.409021 
L 251.973839 139.339957 
L 252.038783 133.631233 
L 252.168671 138.409021 
L 252.233615 139.339957 
L 252.363503 130.695215 
L 252.428446 135.907349 
L 252.49339 133.631233 
L 252.623278 126.703493 
L 252.688222 131.512231 
L 252.753166 295.488 
L 252.81811 89.323889 
L 252.883054 114.899013 
L 252.947998 90.047515 
L 253.012941 125.936199 
L 253.077885 231.973373 
L 253.142829 126.952312 
L 253.207773 295.488 
L 253.272717 233.305596 
L 253.337661 119.379932 
L 253.402605 122.631094 
L 253.467549 122.380203 
L 253.532493 120.138674 
L 253.597437 122.631094 
L 253.66238 295.488 
L 253.727324 231.973373 
L 253.792268 115.141203 
L 253.857212 116.108601 
L 253.922156 118.713958 
L 253.9871 97.57268 
L 254.116988 295.488 
L 254.181932 295.488 
L 254.311819 118.713958 
L 254.376763 295.488 
L 254.441707 64.689119 
L 254.506651 122.631094 
L 254.571595 116.108601 
L 254.636539 70.665962 
L 254.701483 82.936313 
L 254.766427 117.979592 
L 254.831371 93.438373 
L 254.896315 63.197978 
L 254.961258 78.461859 
L 255.091146 295.488 
L 255.15609 71.113841 
L 255.285978 295.488 
L 255.415866 295.488 
L 255.48081 81.835842 
L 255.610697 295.488 
L 256.195192 295.488 
L 256.32508 74.480324 
L 256.454968 119.379932 
L 256.584856 64.358088 
L 256.714744 295.488 
L 256.779688 295.488 
L 256.844631 63.260206 
L 256.974519 295.488 
L 257.234295 295.488 
L 257.299239 93.345696 
L 257.364183 98.896061 
L 257.429127 100.159414 
L 257.559014 130.40884 
L 257.623958 99.960842 
L 257.688902 100.39676 
L 257.753846 100.159414 
L 257.883734 103.422956 
L 258.078566 137.252884 
L 258.143509 135.140254 
L 258.208453 127.794684 
L 258.338341 142.77936 
L 258.403285 133.209036 
L 258.533173 295.488 
L 258.663061 295.488 
L 258.728005 130.151284 
L 258.857892 295.488 
L 259.117668 295.488 
L 259.182612 119.348769 
L 259.247556 295.488 
L 259.377443 112.00724 
L 259.442387 113.502936 
L 259.572275 295.488 
L 260.091826 295.488 
L 260.15677 142.909491 
L 260.286658 295.488 
L 261.260817 295.488 
L 261.32576 83.485225 
L 261.390704 295.488 
L 261.455648 83.940882 
L 261.585536 295.488 
L 261.65048 295.488 
L 261.715424 162.426162 
L 261.780368 295.488 
L 261.845312 99.775839 
L 261.975199 295.488 
L 262.170031 295.488 
L 262.299919 89.238132 
L 262.364863 120.748372 
L 262.429807 118.959386 
L 262.559694 116.450261 
L 262.624638 118.157602 
L 262.949358 113.242041 
L 263.014302 114.562268 
L 263.209133 112.811848 
L 263.274077 113.454169 
L 263.403965 105.608959 
L 263.468909 108.942566 
L 263.598797 104.85339 
L 263.663741 176.0607 
L 263.728685 102.618523 
L 263.793629 177.413982 
L 263.858572 159.592824 
L 263.923516 143.314766 
L 263.98846 146.37158 
L 264.248236 131.279313 
L 264.31318 131.200066 
L 264.378124 133.677482 
L 264.443068 131.506475 
L 264.508011 121.169084 
L 264.572955 124.872582 
L 264.637899 119.297912 
L 264.702843 126.987433 
L 264.767787 78.591707 
L 264.832731 136.99041 
L 264.897675 131.85088 
L 264.962619 79.354733 
L 265.027563 129.061005 
L 265.092507 79.241579 
L 265.15745 131.562944 
L 265.222394 80.154485 
L 265.287338 126.323308 
L 265.352282 80.574065 
L 265.48217 295.488 
L 265.677002 295.488 
L 265.741945 121.539062 
L 265.806889 295.488 
L 265.871833 119.665373 
L 265.936777 295.488 
L 266.001721 78.966679 
L 266.131609 295.488 
L 267.235655 295.488 
L 267.300599 86.965353 
L 267.430487 295.488 
L 267.495431 86.965353 
L 267.560375 87.93565 
L 267.690262 295.488 
L 267.755206 89.742424 
L 267.885094 295.488 
L 268.859253 295.488 
L 268.98914 70.977302 
L 269.054084 295.488 
L 269.119028 69.973447 
L 269.183972 295.488 
L 269.248916 70.189075 
L 269.31386 70.459626 
L 269.378804 69.257753 
L 269.443748 70.739092 
L 269.508692 69.474731 
L 269.573635 77.033185 
L 269.638579 69.741215 
L 269.768467 76.949661 
L 269.833411 74.91771 
L 269.898355 295.488 
L 270.028243 74.91771 
L 270.093187 74.882243 
L 270.158131 94.683536 
L 270.223074 295.488 
L 270.288018 81.426299 
L 270.417906 295.488 
L 270.48285 295.488 
L 270.547794 98.709328 
L 270.612738 295.488 
L 270.677682 119.583503 
L 270.742626 181.1922 
L 270.80757 116.190906 
L 270.872513 116.20731 
L 270.937457 295.488 
L 271.067345 81.15723 
L 271.132289 295.488 
L 271.262177 73.398465 
L 271.327121 73.594352 
L 271.392065 72.514341 
L 271.457008 73.594352 
L 271.521952 72.704155 
L 271.586896 73.793709 
L 271.65184 73.106776 
L 271.781728 73.993969 
L 271.846672 73.793709 
L 272.041504 76.163034 
L 272.106447 74.303159 
L 272.171391 75.22021 
L 272.431167 77.089375 
L 272.496111 76.717059 
L 272.561055 79.28102 
L 272.690943 295.488 
L 272.82083 80.342627 
L 273.080606 79.857517 
L 273.14555 80.992279 
L 273.210494 79.719188 
L 273.275438 81.052528 
L 273.340382 80.590422 
L 273.405325 80.465923 
L 273.470269 80.817819 
L 273.535213 80.622964 
L 273.600157 80.590422 
L 273.665101 81.297453 
L 273.730045 96.289952 
L 273.859933 81.606259 
L 274.054764 107.020007 
L 274.119708 107.725903 
L 274.184652 75.320018 
L 274.249596 82.8102 
L 274.31454 295.488 
L 274.379484 83.048982 
L 274.509372 295.488 
L 274.574316 79.68735 
L 274.639259 80.79167 
L 274.704203 96.128045 
L 274.769147 80.734386 
L 274.834091 295.488 
L 274.963979 79.950614 
L 275.028923 111.846902 
L 275.093867 109.338997 
L 275.158811 295.488 
L 275.288698 83.62511 
L 275.353642 74.025608 
L 275.418586 108.359276 
L 275.548474 82.961645 
L 275.613418 85.267552 
L 275.678362 84.994418 
L 275.743306 75.15385 
L 275.80825 128.168665 
L 275.938137 83.27042 
L 276.003081 77.193339 
L 276.068025 77.229917 
L 276.132969 78.399523 
L 276.197913 77.53508 
L 276.392745 80.493041 
L 276.522633 295.488 
L 276.65252 295.488 
L 276.782408 112.052762 
L 276.847352 114.671927 
L 276.912296 112.178186 
L 277.107128 117.711313 
L 277.172072 117.711313 
L 277.366903 140.166706 
L 277.496791 295.488 
L 277.561735 295.488 
L 277.626679 143.704766 
L 277.691623 295.488 
L 277.82151 108.744698 
L 277.951398 295.488 
L 278.211174 295.488 
L 278.276118 134.255119 
L 278.341062 135.749308 
L 278.406006 135.749308 
L 278.470949 295.488 
L 278.535893 134.255119 
L 278.600837 135.749308 
L 278.665781 149.707525 
L 278.795669 295.488 
L 278.925557 295.488 
L 278.990501 131.844495 
L 279.055445 135.300518 
L 279.185332 134.15441 
L 279.250276 158.94621 
L 279.380164 71.216514 
L 279.445108 134.002296 
L 279.510052 71.035959 
L 279.704884 295.488 
L 280.224435 295.488 
L 280.354323 91.97761 
L 280.419266 92.906099 
L 280.614098 89.871403 
L 280.679042 295.488 
L 280.743986 87.801854 
L 280.873874 295.488 
L 280.938818 295.488 
L 281.003761 76.641087 
L 281.068705 124.866909 
L 281.133649 122.959443 
L 281.198593 126.248524 
L 281.263537 107.827854 
L 281.328481 113.034878 
L 281.458369 114.457137 
L 281.523313 113.170332 
L 281.588257 295.488 
L 281.6532 100.082195 
L 281.718144 100.222667 
L 281.783088 99.311276 
L 281.848032 101.155789 
L 281.912976 99.311276 
L 281.97792 100.369827 
L 282.302639 94.697489 
L 282.367583 101.456405 
L 282.432527 99.458863 
L 282.562415 99.613582 
L 282.692303 101.456405 
L 282.757247 101.617918 
L 282.952078 104.553721 
L 283.017022 98.665835 
L 283.14691 105.582595 
L 283.211854 104.553721 
L 283.276798 105.582595 
L 283.341742 100.514695 
L 283.406686 109.981781 
L 283.47163 108.836744 
L 283.731405 114.904794 
L 283.796349 123.695765 
L 283.861293 295.488 
L 283.991181 93.966781 
L 284.121069 295.488 
L 284.250956 91.376115 
L 284.3159 92.012747 
L 284.445788 295.488 
L 284.510732 295.488 
L 284.575676 120.900498 
L 284.705564 295.488 
L 285.355003 295.488 
L 285.419947 147.974912 
L 285.549834 295.488 
L 286.004442 295.488 
L 286.134329 64.102771 
L 286.199273 295.488 
L 286.264217 63.710389 
L 286.394105 295.488 
L 286.523993 295.488 
L 286.588937 128.397098 
L 286.718824 295.488 
L 289.251637 295.488 
L 289.31658 103.072874 
L 289.381524 295.488 
L 289.511412 116.993245 
L 289.6413 295.488 
L 292.433888 295.488 
L 292.498831 115.784407 
L 292.628719 295.488 
L 292.693663 120.755709 
L 292.758607 136.474165 
L 292.823551 295.488 
L 292.888495 131.641928 
L 293.018383 295.488 
L 293.083326 110.490562 
L 293.14827 127.174172 
L 293.213214 113.9472 
L 293.278158 123.120209 
L 293.343102 295.488 
L 293.408046 108.549402 
L 293.537934 295.488 
L 293.667822 295.488 
L 293.732765 127.777907 
L 293.862653 295.488 
L 294.382204 295.488 
L 294.447148 277.883727 
L 294.512092 295.488 
L 294.64198 253.106512 
L 294.706924 295.488 
L 294.836812 235.990075 
L 294.9667 295.488 
L 295.486251 295.488 
L 295.551195 244.2505 
L 295.681082 295.488 
L 295.746026 290.343016 
L 295.81097 295.488 
L 295.875914 89.992816 
L 296.005802 295.488 
L 296.200634 295.488 
L 296.265577 292.520396 
L 296.395465 295.488 
L 297.044904 295.488 
L 297.109848 256.916895 
L 297.239736 295.488 
L 297.564455 295.488 
L 297.694343 112.589324 
L 297.759287 295.488 
L 297.889175 106.962995 
L 298.019063 295.488 
L 298.084007 90.103479 
L 298.148951 111.014358 
L 298.213894 105.619321 
L 298.343782 295.488 
L 298.47367 295.488 
L 298.603558 91.301112 
L 298.668502 92.31047 
L 298.733446 295.488 
L 298.798389 89.453006 
L 298.863333 92.522369 
L 298.928277 92.522369 
L 299.058165 295.488 
L 299.902436 295.488 
L 299.96738 86.864328 
L 300.097267 295.488 
L 318.021783 295.488 
L 318.151671 86.775746 
L 318.281559 295.488 
L 318.411447 87.066009 
L 318.476391 86.775746 
L 318.541334 87.724052 
L 318.606278 87.43399 
L 318.736166 86.871273 
L 318.866054 88.397113 
L 318.930998 88.107232 
L 318.995942 87.823286 
L 319.190773 89.218102 
L 319.255717 295.488 
L 319.320661 92.866562 
L 319.450549 295.488 
L 325.815051 295.488 
L 325.879995 131.487339 
L 326.009883 295.488 
L 327.373705 295.488 
L 327.438648 122.907023 
L 327.503592 128.868641 
L 327.568536 295.488 
L 327.63348 128.868641 
L 327.763368 295.488 
L 329.062246 295.488 
L 329.12719 135.583975 
L 329.257078 295.488 
L 329.322021 139.5728 
L 329.386965 150.457685 
L 329.451909 149.858706 
L 329.516853 295.488 
L 329.581797 136.434329 
L 329.646741 157.05841 
L 329.711685 295.488 
L 329.776629 150.995544 
L 329.841573 154.976144 
L 329.906517 156.90533 
L 330.036404 143.142328 
L 330.101348 148.723433 
L 330.231236 110.61238 
L 330.361124 134.966803 
L 330.426068 134.917451 
L 330.491012 153.484558 
L 330.555956 295.488 
L 330.620899 129.461543 
L 330.685843 136.434329 
L 330.750787 174.941442 
L 330.815731 134.917451 
L 330.880675 134.966803 
L 331.010563 134.917451 
L 331.075507 174.941442 
L 331.270338 109.120724 
L 331.335282 157.036253 
L 331.400226 137.364445 
L 331.46517 128.118921 
L 331.530114 237.343392 
L 331.595058 105.569407 
L 331.660002 134.917451 
L 331.78989 182.931981 
L 331.919777 133.20568 
L 331.984721 199.253996 
L 332.114609 133.484055 
L 332.244497 295.488 
L 332.309441 115.32884 
L 332.374385 199.253996 
L 332.439329 132.129824 
L 332.569216 295.488 
L 332.63416 134.157488 
L 332.764048 295.488 
L 333.153711 295.488 
L 333.218655 122.662513 
L 333.348543 295.488 
L 333.478431 295.488 
L 333.543375 193.248821 
L 333.673263 295.488 
L 338.673943 295.488 
L 338.803831 104.343917 
L 338.868774 103.127145 
L 338.933718 103.134936 
L 339.063606 295.488 
L 340.29754 295.488 
L 340.427428 79.684841 
L 340.492372 295.488 
L 340.557316 78.106694 
L 340.62226 78.356576 
L 340.687204 76.812885 
L 340.752148 295.488 
L 340.882035 75.347943 
L 341.011923 295.488 
L 341.79125 295.488 
L 341.856194 70.304843 
L 341.921138 125.68124 
L 342.051025 69.069139 
L 342.115969 69.069139 
L 342.310801 218.363632 
L 342.375745 125.68124 
L 342.570577 295.488 
L 342.765408 67.890191 
L 342.830352 67.890191 
L 342.895296 66.763989 
L 343.025184 295.488 
L 343.090128 66.763989 
L 343.155072 125.68124 
L 343.220016 125.68124 
L 343.28496 295.488 
L 343.349903 125.68124 
L 343.414847 295.488 
L 343.479791 65.65489 
L 343.544735 295.488 
L 343.609679 64.60393 
L 343.674623 127.876383 
L 343.804511 295.488 
L 343.999342 295.488 
L 344.12923 134.191383 
L 344.194174 138.183493 
L 344.324062 295.488 
L 344.973501 295.488 
L 345.038445 147.488564 
L 345.103389 152.973973 
L 345.233276 295.488 
L 345.29822 295.488 
L 345.363164 158.738126 
L 345.428108 159.171807 
L 345.493052 159.171807 
L 345.557996 165.448464 
L 345.62294 159.171807 
L 345.752828 174.420901 
L 345.882715 166.246821 
L 345.947659 176.238153 
L 346.012603 174.420901 
L 346.077547 176.238153 
L 346.272379 186.573513 
L 346.402267 186.573513 
L 346.467211 199.031603 
L 346.532154 184.000385 
L 346.726986 209.32325 
L 346.856874 190.635067 
L 346.921818 209.32325 
L 346.986762 199.031603 
L 347.051706 209.32325 
L 347.181593 199.031603 
L 347.311481 233.928845 
L 347.376425 214.401968 
L 347.441369 233.928845 
L 347.506313 143.849686 
L 347.571257 214.401968 
L 347.701145 143.849686 
L 347.96092 143.849686 
L 348.025864 223.926743 
L 348.090808 176.655512 
L 348.155752 143.849686 
L 348.220696 223.926743 
L 348.350584 145.084114 
L 348.415527 146.263687 
L 348.480471 295.488 
L 348.545415 153.519889 
L 348.610359 223.926743 
L 348.675303 295.488 
L 348.740247 152.025078 
L 348.805191 295.488 
L 348.870135 151.774037 
L 348.935079 295.488 
L 349.12991 93.519225 
L 349.194854 295.488 
L 349.259798 94.1921 
L 349.389686 295.488 
L 350.753508 295.488 
L 350.818452 177.784054 
L 350.948339 295.488 
L 351.013283 167.814685 
L 351.078227 295.488 
L 351.208115 175.336947 
L 351.532835 213.932272 
L 351.597778 227.535304 
L 351.727666 295.488 
L 351.79261 295.488 
L 351.857554 255.155539 
L 351.922498 295.488 
L 351.987442 65.341374 
L 352.11733 295.488 
L 352.182274 65.341374 
L 352.247217 295.488 
L 352.377105 64.245787 
L 352.636881 61.238109 
L 352.766769 61.238109 
L 352.896656 59.437121 
L 352.9616 295.488 
L 353.091488 57.692739 
L 353.156432 295.488 
L 353.28632 56.14236 
L 353.351264 295.488 
L 353.481152 54.707779 
L 353.611039 54.030305 
L 353.740927 295.488 
L 353.805871 97.999663 
L 353.870815 295.488 
L 354.000703 97.816049 
L 354.195534 97.816049 
L 354.325422 98.818813 
L 354.390366 98.818813 
L 354.45531 99.897869 
L 354.585198 295.488 
L 354.650142 295.488 
L 354.715086 99.897869 
L 354.780029 142.634814 
L 354.844973 142.634814 
L 354.909917 295.488 
L 354.974861 142.634814 
L 355.039805 143.897993 
L 355.169693 295.488 
L 355.494412 295.488 
L 355.559356 140.789144 
L 355.689244 295.488 
L 355.819132 140.789144 
L 355.884076 295.488 
L 355.94902 140.789144 
L 356.078907 295.488 
L 359.001383 295.488 
L 359.131271 150.812667 
L 359.196215 295.488 
L 359.261158 145.53426 
L 359.326102 153.184981 
L 359.391046 153.184981 
L 359.45599 149.329846 
L 359.520934 158.204814 
L 359.585878 295.488 
L 359.715766 143.816036 
L 359.845653 137.662229 
L 359.975541 138.773556 
L 360.105429 129.513573 
L 360.170373 130.468992 
L 360.235317 130.468992 
L 360.300261 126.302504 
L 360.365205 106.995483 
L 360.430149 126.639089 
L 360.495092 123.888616 
L 360.62498 107.873329 
L 360.689924 295.488 
L 360.819812 111.919333 
L 360.884756 111.073763 
L 360.9497 111.486253 
L 361.014644 111.37517 
L 361.079588 116.025448 
L 361.144531 115.473462 
L 361.209475 114.003662 
L 361.274419 114.406183 
L 361.339363 114.406183 
L 361.404307 115.776254 
L 361.469251 114.902867 
L 361.599139 114.598719 
L 361.664083 75.080803 
L 361.79397 113.466815 
L 361.858914 113.466815 
L 361.988802 75.656614 
L 362.053746 74.952378 
L 362.11869 118.625871 
L 362.183634 74.84326 
L 362.313522 120.595324 
L 362.443409 125.002692 
L 362.573297 118.625871 
L 362.703185 295.488 
L 364.911278 295.488 
L 364.976221 83.02267 
L 365.106109 295.488 
L 365.171053 295.488 
L 365.235997 82.227776 
L 365.300941 83.67108 
L 365.495773 83.67108 
L 365.62566 82.307164 
L 365.690604 82.34954 
L 365.820492 81.741725 
L 365.885436 81.822319 
L 365.95038 82.493629 
L 366.015324 82.254413 
L 366.080268 81.854276 
L 366.210155 82.974299 
L 366.340043 295.488 
L 366.859594 295.488 
L 366.989482 87.327686 
L 367.11937 295.488 
L 367.833753 295.488 
L 367.963641 83.514879 
L 368.028585 83.514879 
L 368.158472 82.994772 
L 368.223416 83.271397 
L 368.28836 83.131102 
L 368.353304 83.271397 
L 368.483192 82.758773 
L 368.548136 83.564094 
L 368.678024 82.421089 
L 368.742968 82.421089 
L 368.937799 83.063404 
L 369.067687 82.580762 
L 369.197575 82.580762 
L 369.327463 82.32735 
L 369.522294 82.32735 
L 369.587238 82.503676 
L 369.717126 82.32735 
L 369.847014 82.32735 
L 369.911958 82.503676 
L 370.171733 81.803789 
L 370.301621 82.478058 
L 370.431509 82.303219 
L 370.496453 82.303219 
L 370.561397 82.478058 
L 370.821172 81.515027 
L 370.95106 82.022879 
L 371.080948 81.797543 
L 371.145892 81.797543 
L 371.470611 80.900129 
L 371.665443 81.609209 
L 371.730387 81.609209 
L 371.925218 80.542009 
L 372.055106 80.900129 
L 372.184994 80.718255 
L 372.314882 80.718255 
L 372.44477 80.542009 
L 372.574657 80.542009 
L 372.639601 80.205942 
L 372.704545 80.542009 
L 372.769489 80.205942 
L 372.834433 80.371275 
L 372.899377 76.934474 
L 372.964321 77.375383 
L 373.029265 77.375383 
L 373.094209 77.659804 
L 373.159153 77.515822 
L 373.224096 98.148369 
L 373.28904 295.488 
L 373.353984 98.148369 
L 373.418928 100.624528 
L 373.548816 100.624528 
L 373.61376 295.488 
L 373.743648 100.624528 
L 373.808592 295.488 
L 373.938479 100.7541 
L 374.133311 100.7541 
L 374.198255 295.488 
L 374.328143 71.063006 
L 374.393087 71.063006 
L 374.522974 295.488 
L 374.587918 100.294741 
L 374.652862 295.488 
L 374.717806 76.692477 
L 374.847694 295.488 
L 374.912638 295.488 
L 375.042526 56.218768 
L 375.107469 56.621331 
L 375.172413 61.4182 
L 375.302301 55.050393 
L 375.367245 55.927568 
L 375.432189 55.389094 
L 375.497133 54.28835 
L 375.562077 75.167906 
L 375.627021 54.605566 
L 375.691965 73.888873 
L 375.756908 54.72219 
L 375.886796 74.260285 
L 375.95174 74.260285 
L 376.016684 73.751207 
L 376.146572 53.568 
L 376.27646 72.906381 
L 376.341404 295.488 
L 376.406347 69.675843 
L 376.536235 295.488 
L 376.601179 69.6089 
L 376.666123 295.488 
L 376.796011 69.16641 
L 376.860955 68.594846 
L 376.990843 295.488 
L 377.12073 295.488 
L 377.185674 77.603946 
L 377.250618 295.488 
L 377.380506 78.717154 
L 377.510394 79.319777 
L 377.640282 295.488 
L 377.705225 295.488 
L 377.770169 78.261039 
L 377.835113 78.857207 
L 377.900057 78.261039 
L 378.029945 79.462132 
L 378.159833 295.488 
L 378.224777 100.7541 
L 378.28972 137.976072 
L 378.419608 80.15373 
L 378.874216 80.235052 
L 379.004103 81.413353 
L 379.198935 81.497716 
L 379.328823 82.801751 
L 379.523655 82.893878 
L 379.653542 84.150527 
L 379.78343 84.150527 
L 379.913318 85.452688 
L 380.10815 85.54773 
L 380.238037 86.997403 
L 380.367925 86.997403 
L 380.497813 88.400275 
L 380.692645 88.503993 
L 380.822533 89.963791 
L 380.887476 89.963791 
L 381.082308 93.184233 
L 381.147252 93.184233 
L 381.212196 93.297335 
L 381.342084 94.961127 
L 381.407028 94.961127 
L 381.536915 96.824506 
L 381.666803 96.824506 
L 381.796691 98.782728 
L 381.861635 98.782728 
L 381.991523 100.713765 
L 382.056467 100.713765 
L 382.12141 100.845224 
L 382.251298 102.883603 
L 382.316242 102.883603 
L 382.44613 105.179848 
L 382.576018 105.179848 
L 382.705906 107.469551 
L 382.835793 107.616351 
L 382.965681 107.616351 
L 383.095569 110.053015 
L 383.225457 110.209054 
L 383.485232 110.209054 
L 383.61512 112.976413 
L 384.004784 112.976413 
L 384.069727 113.154337 
L 384.199615 115.939932 
L 384.329503 115.939932 
L 384.394447 117.319457 
L 384.459391 115.939932 
L 384.589279 295.488 
L 385.9531 295.488 
L 386.082988 88.470813 
L 386.27782 88.41249 
L 386.407708 295.488 
L 386.797371 295.488 
L 386.862315 89.673197 
L 386.992203 295.488 
L 387.057147 295.488 
L 387.122091 88.757042 
L 387.251978 295.488 
L 387.381866 295.488 
L 387.44681 89.968343 
L 387.511754 295.488 
L 387.576698 89.968343 
L 387.641642 89.981851 
L 387.706586 90.859414 
L 387.77153 90.849697 
L 387.836473 90.849697 
L 387.901417 295.488 
L 387.966361 93.212926 
L 388.031305 102.917589 
L 388.096249 97.201071 
L 388.161193 100.540587 
L 388.291081 295.488 
L 388.420969 90.98823 
L 388.680744 86.306361 
L 388.745688 86.722417 
L 388.94052 83.842758 
L 389.005464 83.842758 
L 389.265239 79.946896 
L 389.395127 79.946896 
L 389.460071 78.74635 
L 389.525015 78.968932 
L 389.654903 295.488 
L 389.719847 295.488 
L 389.849734 89.544468 
L 389.979622 89.544468 
L 390.10951 295.488 
L 391.083668 295.488 
L 391.148612 100.026964 
L 391.2785 295.488 
L 391.408388 295.488 
L 391.538276 100.773957 
L 391.668163 94.521949 
L 391.798051 100.545949 
L 391.862995 95.143507 
L 391.992883 100.545949 
L 392.057827 101.108771 
L 392.122771 96.567839 
L 392.187715 97.18638 
L 392.252659 95.962174 
L 392.317602 97.067884 
L 392.382546 101.758912 
L 392.44749 100.10339 
L 392.577378 295.488 
L 392.837154 295.488 
L 392.967041 99.637925 
L 393.096929 295.488 
L 393.356705 295.488 
L 393.421649 102.845647 
L 393.486593 103.362972 
L 393.876256 103.362972 
L 394.006144 295.488 
L 394.525695 295.488 
L 394.590639 104.053326 
L 394.655583 295.488 
L 394.785471 104.053326 
L 394.850414 104.053326 
L 394.915358 295.488 
L 394.980302 104.053326 
L 395.11019 295.488 
L 395.43491 295.488 
L 395.564797 89.833181 
L 395.889517 89.833181 
L 396.019405 295.488 
L 396.084349 89.833181 
L 396.214236 295.488 
L 397.77289 295.488 
L 397.837834 68.424654 
L 397.967722 295.488 
L 398.097609 68.424654 
L 398.162553 124.963828 
L 398.227497 123.53671 
L 398.422329 123.53671 
L 398.487273 122.210286 
L 398.487273 122.210286 
" clip-path="url(#p07dc976cbe)" style="fill: none; stroke: #1f77b4; stroke-width: 1.5; stroke-linecap: square"/>
   </g>
   <g id="patch_3">
    <path d="M 57.6 307.584 
L 57.6 41.472 
" style="fill: none; stroke: #000000; stroke-width: 0.8; stroke-linejoin: miter; stroke-linecap: square"/>
   </g>
   <g id="patch_4">
    <path d="M 414.72 307.584 
L 414.72 41.472 
" style="fill: none; stroke: #000000; stroke-width: 0.8; stroke-linejoin: miter; stroke-linecap: square"/>
   </g>
   <g id="patch_5">
    <path d="M 57.6 307.584 
L 414.72 307.584 
" style="fill: none; stroke: #000000; stroke-width: 0.8; stroke-linejoin: miter; stroke-linecap: square"/>
   </g>
   <g id="patch_6">
    <path d="M 57.6 41.472 
L 414.72 41.472 
" style="fill: none; stroke: #000000; stroke-width: 0.8; stroke-linejoin: miter; stroke-linecap: square"/>
   </g>
  </g>
 </g>
 <defs>
  <clipPath id="p07dc976cbe">
   <rect x="57.6" y="41.472" width="357.12" height="266.112"/>
  </clipPath>
 </defs>
</svg>
