<?xml version="1.0" encoding="utf-8" standalone="no"?>
<!DOCTYPE svg PUBLIC "-//W3C//DTD SVG 1.1//EN"
  "http://www.w3.org/Graphics/SVG/1.1/DTD/svg11.dtd">
<svg xmlns:xlink="http://www.w3.org/1999/xlink" width="720pt" height="432pt" viewBox="0 0 720 432" xmlns="http://www.w3.org/2000/svg" version="1.1">
 <metadata>
  <rdf:RDF xmlns:dc="http://purl.org/dc/elements/1.1/" xmlns:cc="http://creativecommons.org/ns#" xmlns:rdf="http://www.w3.org/1999/02/22-rdf-syntax-ns#">
   <cc:Work>
    <dc:type rdf:resource="http://purl.org/dc/dcmitype/StillImage"/>
    <dc:date>2024-05-02T12:49:31.590875</dc:date>
    <dc:format>image/svg+xml</dc:format>
    <dc:creator>
     <cc:Agent>
      <dc:title>Matplotlib v3.8.2, https://matplotlib.org/</dc:title>
     </cc:Agent>
    </dc:creator>
   </cc:Work>
  </rdf:RDF>
 </metadata>
 <defs>
  <style type="text/css">*{stroke-linejoin: round; stroke-linecap: butt}</style>
 </defs>
 <g id="figure_1">
  <g id="patch_1">
   <path d="M 0 432 
L 720 432 
L 720 0 
L 0 0 
z
" style="fill: #ffffff"/>
  </g>
  <g id="axes_1">
   <g id="patch_2">
    <path d="M 90 384.48 
L 648 384.48 
L 648 51.84 
L 90 51.84 
z
" style="fill: #ffffff"/>
   </g>
   <g id="matplotlib.axis_1">
    <g id="xtick_1">
     <g id="line2d_1">
      <path d="M 115.025229 384.48 
L 115.025229 51.84 
" clip-path="url(#p5653f93479)" style="fill: none; stroke: #808080; stroke-opacity: 0.2; stroke-linecap: square"/>
     </g>
     <g id="line2d_2">
      <defs>
       <path id="m40e1c65cae" d="M 0 0 
L 0 3.5 
" style="stroke: #000000; stroke-width: 0.8"/>
      </defs>
      <g>
       <use xlink:href="#m40e1c65cae" x="115.025229" y="384.48" style="stroke: #000000; stroke-width: 0.8"/>
      </g>
     </g>
     <g id="text_1">
      <!-- 0.0 -->
      <g transform="translate(107.073666 399.078438) scale(0.1 -0.1)">
       <defs>
        <path id="DejaVuSans-30" d="M 2034 4250 
Q 1547 4250 1301 3770 
Q 1056 3291 1056 2328 
Q 1056 1369 1301 889 
Q 1547 409 2034 409 
Q 2525 409 2770 889 
Q 3016 1369 3016 2328 
Q 3016 3291 2770 3770 
Q 2525 4250 2034 4250 
z
M 2034 4750 
Q 2819 4750 3233 4129 
Q 3647 3509 3647 2328 
Q 3647 1150 3233 529 
Q 2819 -91 2034 -91 
Q 1250 -91 836 529 
Q 422 1150 422 2328 
Q 422 3509 836 4129 
Q 1250 4750 2034 4750 
z
" transform="scale(0.015625)"/>
        <path id="DejaVuSans-2e" d="M 684 794 
L 1344 794 
L 1344 0 
L 684 0 
L 684 794 
z
" transform="scale(0.015625)"/>
       </defs>
       <use xlink:href="#DejaVuSans-30"/>
       <use xlink:href="#DejaVuSans-2e" x="63.623047"/>
       <use xlink:href="#DejaVuSans-30" x="95.410156"/>
      </g>
     </g>
    </g>
    <g id="xtick_2">
     <g id="line2d_3">
      <path d="M 199.627085 384.48 
L 199.627085 51.84 
" clip-path="url(#p5653f93479)" style="fill: none; stroke: #808080; stroke-opacity: 0.2; stroke-linecap: square"/>
     </g>
     <g id="line2d_4">
      <g>
       <use xlink:href="#m40e1c65cae" x="199.627085" y="384.48" style="stroke: #000000; stroke-width: 0.8"/>
      </g>
     </g>
     <g id="text_2">
      <!-- 0.5 -->
      <g transform="translate(191.675522 399.078438) scale(0.1 -0.1)">
       <defs>
        <path id="DejaVuSans-35" d="M 691 4666 
L 3169 4666 
L 3169 4134 
L 1269 4134 
L 1269 2991 
Q 1406 3038 1543 3061 
Q 1681 3084 1819 3084 
Q 2600 3084 3056 2656 
Q 3513 2228 3513 1497 
Q 3513 744 3044 326 
Q 2575 -91 1722 -91 
Q 1428 -91 1123 -41 
Q 819 9 494 109 
L 494 744 
Q 775 591 1075 516 
Q 1375 441 1709 441 
Q 2250 441 2565 725 
Q 2881 1009 2881 1497 
Q 2881 1984 2565 2268 
Q 2250 2553 1709 2553 
Q 1456 2553 1204 2497 
Q 953 2441 691 2322 
L 691 4666 
z
" transform="scale(0.015625)"/>
       </defs>
       <use xlink:href="#DejaVuSans-30"/>
       <use xlink:href="#DejaVuSans-2e" x="63.623047"/>
       <use xlink:href="#DejaVuSans-35" x="95.410156"/>
      </g>
     </g>
    </g>
    <g id="xtick_3">
     <g id="line2d_5">
      <path d="M 284.228941 384.48 
L 284.228941 51.84 
" clip-path="url(#p5653f93479)" style="fill: none; stroke: #808080; stroke-opacity: 0.2; stroke-linecap: square"/>
     </g>
     <g id="line2d_6">
      <g>
       <use xlink:href="#m40e1c65cae" x="284.228941" y="384.48" style="stroke: #000000; stroke-width: 0.8"/>
      </g>
     </g>
     <g id="text_3">
      <!-- 1.0 -->
      <g transform="translate(276.277378 399.078438) scale(0.1 -0.1)">
       <defs>
        <path id="DejaVuSans-31" d="M 794 531 
L 1825 531 
L 1825 4091 
L 703 3866 
L 703 4441 
L 1819 4666 
L 2450 4666 
L 2450 531 
L 3481 531 
L 3481 0 
L 794 0 
L 794 531 
z
" transform="scale(0.015625)"/>
       </defs>
       <use xlink:href="#DejaVuSans-31"/>
       <use xlink:href="#DejaVuSans-2e" x="63.623047"/>
       <use xlink:href="#DejaVuSans-30" x="95.410156"/>
      </g>
     </g>
    </g>
    <g id="xtick_4">
     <g id="line2d_7">
      <path d="M 368.830796 384.48 
L 368.830796 51.84 
" clip-path="url(#p5653f93479)" style="fill: none; stroke: #808080; stroke-opacity: 0.2; stroke-linecap: square"/>
     </g>
     <g id="line2d_8">
      <g>
       <use xlink:href="#m40e1c65cae" x="368.830796" y="384.48" style="stroke: #000000; stroke-width: 0.8"/>
      </g>
     </g>
     <g id="text_4">
      <!-- 1.5 -->
      <g transform="translate(360.879234 399.078438) scale(0.1 -0.1)">
       <use xlink:href="#DejaVuSans-31"/>
       <use xlink:href="#DejaVuSans-2e" x="63.623047"/>
       <use xlink:href="#DejaVuSans-35" x="95.410156"/>
      </g>
     </g>
    </g>
    <g id="xtick_5">
     <g id="line2d_9">
      <path d="M 453.432652 384.48 
L 453.432652 51.84 
" clip-path="url(#p5653f93479)" style="fill: none; stroke: #808080; stroke-opacity: 0.2; stroke-linecap: square"/>
     </g>
     <g id="line2d_10">
      <g>
       <use xlink:href="#m40e1c65cae" x="453.432652" y="384.48" style="stroke: #000000; stroke-width: 0.8"/>
      </g>
     </g>
     <g id="text_5">
      <!-- 2.0 -->
      <g transform="translate(445.48109 399.078438) scale(0.1 -0.1)">
       <defs>
        <path id="DejaVuSans-32" d="M 1228 531 
L 3431 531 
L 3431 0 
L 469 0 
L 469 531 
Q 828 903 1448 1529 
Q 2069 2156 2228 2338 
Q 2531 2678 2651 2914 
Q 2772 3150 2772 3378 
Q 2772 3750 2511 3984 
Q 2250 4219 1831 4219 
Q 1534 4219 1204 4116 
Q 875 4013 500 3803 
L 500 4441 
Q 881 4594 1212 4672 
Q 1544 4750 1819 4750 
Q 2544 4750 2975 4387 
Q 3406 4025 3406 3419 
Q 3406 3131 3298 2873 
Q 3191 2616 2906 2266 
Q 2828 2175 2409 1742 
Q 1991 1309 1228 531 
z
" transform="scale(0.015625)"/>
       </defs>
       <use xlink:href="#DejaVuSans-32"/>
       <use xlink:href="#DejaVuSans-2e" x="63.623047"/>
       <use xlink:href="#DejaVuSans-30" x="95.410156"/>
      </g>
     </g>
    </g>
    <g id="xtick_6">
     <g id="line2d_11">
      <path d="M 538.034508 384.48 
L 538.034508 51.84 
" clip-path="url(#p5653f93479)" style="fill: none; stroke: #808080; stroke-opacity: 0.2; stroke-linecap: square"/>
     </g>
     <g id="line2d_12">
      <g>
       <use xlink:href="#m40e1c65cae" x="538.034508" y="384.48" style="stroke: #000000; stroke-width: 0.8"/>
      </g>
     </g>
     <g id="text_6">
      <!-- 2.5 -->
      <g transform="translate(530.082945 399.078438) scale(0.1 -0.1)">
       <use xlink:href="#DejaVuSans-32"/>
       <use xlink:href="#DejaVuSans-2e" x="63.623047"/>
       <use xlink:href="#DejaVuSans-35" x="95.410156"/>
      </g>
     </g>
    </g>
    <g id="xtick_7">
     <g id="line2d_13">
      <path d="M 622.636364 384.48 
L 622.636364 51.84 
" clip-path="url(#p5653f93479)" style="fill: none; stroke: #808080; stroke-opacity: 0.2; stroke-linecap: square"/>
     </g>
     <g id="line2d_14">
      <g>
       <use xlink:href="#m40e1c65cae" x="622.636364" y="384.48" style="stroke: #000000; stroke-width: 0.8"/>
      </g>
     </g>
     <g id="text_7">
      <!-- 3.0 -->
      <g transform="translate(614.684801 399.078438) scale(0.1 -0.1)">
       <defs>
        <path id="DejaVuSans-33" d="M 2597 2516 
Q 3050 2419 3304 2112 
Q 3559 1806 3559 1356 
Q 3559 666 3084 287 
Q 2609 -91 1734 -91 
Q 1441 -91 1130 -33 
Q 819 25 488 141 
L 488 750 
Q 750 597 1062 519 
Q 1375 441 1716 441 
Q 2309 441 2620 675 
Q 2931 909 2931 1356 
Q 2931 1769 2642 2001 
Q 2353 2234 1838 2234 
L 1294 2234 
L 1294 2753 
L 1863 2753 
Q 2328 2753 2575 2939 
Q 2822 3125 2822 3475 
Q 2822 3834 2567 4026 
Q 2313 4219 1838 4219 
Q 1578 4219 1281 4162 
Q 984 4106 628 3988 
L 628 4550 
Q 988 4650 1302 4700 
Q 1616 4750 1894 4750 
Q 2613 4750 3031 4423 
Q 3450 4097 3450 3541 
Q 3450 3153 3228 2886 
Q 3006 2619 2597 2516 
z
" transform="scale(0.015625)"/>
       </defs>
       <use xlink:href="#DejaVuSans-33"/>
       <use xlink:href="#DejaVuSans-2e" x="63.623047"/>
       <use xlink:href="#DejaVuSans-30" x="95.410156"/>
      </g>
     </g>
    </g>
    <g id="text_8">
     <!-- Timesteps -->
     <g transform="translate(338.215312 414.27625) scale(0.12 -0.12)">
      <defs>
       <path id="DejaVuSans-54" d="M -19 4666 
L 3928 4666 
L 3928 4134 
L 2272 4134 
L 2272 0 
L 1638 0 
L 1638 4134 
L -19 4134 
L -19 4666 
z
" transform="scale(0.015625)"/>
       <path id="DejaVuSans-69" d="M 603 3500 
L 1178 3500 
L 1178 0 
L 603 0 
L 603 3500 
z
M 603 4863 
L 1178 4863 
L 1178 4134 
L 603 4134 
L 603 4863 
z
" transform="scale(0.015625)"/>
       <path id="DejaVuSans-6d" d="M 3328 2828 
Q 3544 3216 3844 3400 
Q 4144 3584 4550 3584 
Q 5097 3584 5394 3201 
Q 5691 2819 5691 2113 
L 5691 0 
L 5113 0 
L 5113 2094 
Q 5113 2597 4934 2840 
Q 4756 3084 4391 3084 
Q 3944 3084 3684 2787 
Q 3425 2491 3425 1978 
L 3425 0 
L 2847 0 
L 2847 2094 
Q 2847 2600 2669 2842 
Q 2491 3084 2119 3084 
Q 1678 3084 1418 2786 
Q 1159 2488 1159 1978 
L 1159 0 
L 581 0 
L 581 3500 
L 1159 3500 
L 1159 2956 
Q 1356 3278 1631 3431 
Q 1906 3584 2284 3584 
Q 2666 3584 2933 3390 
Q 3200 3197 3328 2828 
z
" transform="scale(0.015625)"/>
       <path id="DejaVuSans-65" d="M 3597 1894 
L 3597 1613 
L 953 1613 
Q 991 1019 1311 708 
Q 1631 397 2203 397 
Q 2534 397 2845 478 
Q 3156 559 3463 722 
L 3463 178 
Q 3153 47 2828 -22 
Q 2503 -91 2169 -91 
Q 1331 -91 842 396 
Q 353 884 353 1716 
Q 353 2575 817 3079 
Q 1281 3584 2069 3584 
Q 2775 3584 3186 3129 
Q 3597 2675 3597 1894 
z
M 3022 2063 
Q 3016 2534 2758 2815 
Q 2500 3097 2075 3097 
Q 1594 3097 1305 2825 
Q 1016 2553 972 2059 
L 3022 2063 
z
" transform="scale(0.015625)"/>
       <path id="DejaVuSans-73" d="M 2834 3397 
L 2834 2853 
Q 2591 2978 2328 3040 
Q 2066 3103 1784 3103 
Q 1356 3103 1142 2972 
Q 928 2841 928 2578 
Q 928 2378 1081 2264 
Q 1234 2150 1697 2047 
L 1894 2003 
Q 2506 1872 2764 1633 
Q 3022 1394 3022 966 
Q 3022 478 2636 193 
Q 2250 -91 1575 -91 
Q 1294 -91 989 -36 
Q 684 19 347 128 
L 347 722 
Q 666 556 975 473 
Q 1284 391 1588 391 
Q 1994 391 2212 530 
Q 2431 669 2431 922 
Q 2431 1156 2273 1281 
Q 2116 1406 1581 1522 
L 1381 1569 
Q 847 1681 609 1914 
Q 372 2147 372 2553 
Q 372 3047 722 3315 
Q 1072 3584 1716 3584 
Q 2034 3584 2315 3537 
Q 2597 3491 2834 3397 
z
" transform="scale(0.015625)"/>
       <path id="DejaVuSans-74" d="M 1172 4494 
L 1172 3500 
L 2356 3500 
L 2356 3053 
L 1172 3053 
L 1172 1153 
Q 1172 725 1289 603 
Q 1406 481 1766 481 
L 2356 481 
L 2356 0 
L 1766 0 
Q 1100 0 847 248 
Q 594 497 594 1153 
L 594 3053 
L 172 3053 
L 172 3500 
L 594 3500 
L 594 4494 
L 1172 4494 
z
" transform="scale(0.015625)"/>
       <path id="DejaVuSans-70" d="M 1159 525 
L 1159 -1331 
L 581 -1331 
L 581 3500 
L 1159 3500 
L 1159 2969 
Q 1341 3281 1617 3432 
Q 1894 3584 2278 3584 
Q 2916 3584 3314 3078 
Q 3713 2572 3713 1747 
Q 3713 922 3314 415 
Q 2916 -91 2278 -91 
Q 1894 -91 1617 61 
Q 1341 213 1159 525 
z
M 3116 1747 
Q 3116 2381 2855 2742 
Q 2594 3103 2138 3103 
Q 1681 3103 1420 2742 
Q 1159 2381 1159 1747 
Q 1159 1113 1420 752 
Q 1681 391 2138 391 
Q 2594 391 2855 752 
Q 3116 1113 3116 1747 
z
" transform="scale(0.015625)"/>
      </defs>
      <use xlink:href="#DejaVuSans-54"/>
      <use xlink:href="#DejaVuSans-69" x="57.958984"/>
      <use xlink:href="#DejaVuSans-6d" x="85.742188"/>
      <use xlink:href="#DejaVuSans-65" x="183.154297"/>
      <use xlink:href="#DejaVuSans-73" x="244.677734"/>
      <use xlink:href="#DejaVuSans-74" x="296.777344"/>
      <use xlink:href="#DejaVuSans-65" x="335.986328"/>
      <use xlink:href="#DejaVuSans-70" x="397.509766"/>
      <use xlink:href="#DejaVuSans-73" x="460.986328"/>
     </g>
    </g>
    <g id="text_9">
     <!-- 1e6 -->
     <g transform="translate(629.121875 411.756563) scale(0.1 -0.1)">
      <defs>
       <path id="DejaVuSans-36" d="M 2113 2584 
Q 1688 2584 1439 2293 
Q 1191 2003 1191 1497 
Q 1191 994 1439 701 
Q 1688 409 2113 409 
Q 2538 409 2786 701 
Q 3034 994 3034 1497 
Q 3034 2003 2786 2293 
Q 2538 2584 2113 2584 
z
M 3366 4563 
L 3366 3988 
Q 3128 4100 2886 4159 
Q 2644 4219 2406 4219 
Q 1781 4219 1451 3797 
Q 1122 3375 1075 2522 
Q 1259 2794 1537 2939 
Q 1816 3084 2150 3084 
Q 2853 3084 3261 2657 
Q 3669 2231 3669 1497 
Q 3669 778 3244 343 
Q 2819 -91 2113 -91 
Q 1303 -91 875 529 
Q 447 1150 447 2328 
Q 447 3434 972 4092 
Q 1497 4750 2381 4750 
Q 2619 4750 2861 4703 
Q 3103 4656 3366 4563 
z
" transform="scale(0.015625)"/>
      </defs>
      <use xlink:href="#DejaVuSans-31"/>
      <use xlink:href="#DejaVuSans-65" x="63.623047"/>
      <use xlink:href="#DejaVuSans-36" x="125.146484"/>
     </g>
    </g>
   </g>
   <g id="matplotlib.axis_2">
    <g id="ytick_1">
     <g id="line2d_15">
      <path d="M 90 358.722564 
L 648 358.722564 
" clip-path="url(#p5653f93479)" style="fill: none; stroke: #808080; stroke-opacity: 0.2; stroke-linecap: square"/>
     </g>
     <g id="line2d_16">
      <defs>
       <path id="m3b1232e887" d="M 0 0 
L -3.5 0 
" style="stroke: #000000; stroke-width: 0.8"/>
      </defs>
      <g>
       <use xlink:href="#m3b1232e887" x="90" y="358.722564" style="stroke: #000000; stroke-width: 0.8"/>
      </g>
     </g>
     <g id="text_10">
      <!-- −300 -->
      <g transform="translate(55.532812 362.521783) scale(0.1 -0.1)">
       <defs>
        <path id="DejaVuSans-2212" d="M 678 2272 
L 4684 2272 
L 4684 1741 
L 678 1741 
L 678 2272 
z
" transform="scale(0.015625)"/>
       </defs>
       <use xlink:href="#DejaVuSans-2212"/>
       <use xlink:href="#DejaVuSans-33" x="83.789062"/>
       <use xlink:href="#DejaVuSans-30" x="147.412109"/>
       <use xlink:href="#DejaVuSans-30" x="211.035156"/>
      </g>
     </g>
    </g>
    <g id="ytick_2">
     <g id="line2d_17">
      <path d="M 90 314.808397 
L 648 314.808397 
" clip-path="url(#p5653f93479)" style="fill: none; stroke: #808080; stroke-opacity: 0.2; stroke-linecap: square"/>
     </g>
     <g id="line2d_18">
      <g>
       <use xlink:href="#m3b1232e887" x="90" y="314.808397" style="stroke: #000000; stroke-width: 0.8"/>
      </g>
     </g>
     <g id="text_11">
      <!-- −275 -->
      <g transform="translate(55.532812 318.607616) scale(0.1 -0.1)">
       <defs>
        <path id="DejaVuSans-37" d="M 525 4666 
L 3525 4666 
L 3525 4397 
L 1831 0 
L 1172 0 
L 2766 4134 
L 525 4134 
L 525 4666 
z
" transform="scale(0.015625)"/>
       </defs>
       <use xlink:href="#DejaVuSans-2212"/>
       <use xlink:href="#DejaVuSans-32" x="83.789062"/>
       <use xlink:href="#DejaVuSans-37" x="147.412109"/>
       <use xlink:href="#DejaVuSans-35" x="211.035156"/>
      </g>
     </g>
    </g>
    <g id="ytick_3">
     <g id="line2d_19">
      <path d="M 90 270.89423 
L 648 270.89423 
" clip-path="url(#p5653f93479)" style="fill: none; stroke: #808080; stroke-opacity: 0.2; stroke-linecap: square"/>
     </g>
     <g id="line2d_20">
      <g>
       <use xlink:href="#m3b1232e887" x="90" y="270.89423" style="stroke: #000000; stroke-width: 0.8"/>
      </g>
     </g>
     <g id="text_12">
      <!-- −250 -->
      <g transform="translate(55.532812 274.693449) scale(0.1 -0.1)">
       <use xlink:href="#DejaVuSans-2212"/>
       <use xlink:href="#DejaVuSans-32" x="83.789062"/>
       <use xlink:href="#DejaVuSans-35" x="147.412109"/>
       <use xlink:href="#DejaVuSans-30" x="211.035156"/>
      </g>
     </g>
    </g>
    <g id="ytick_4">
     <g id="line2d_21">
      <path d="M 90 226.980063 
L 648 226.980063 
" clip-path="url(#p5653f93479)" style="fill: none; stroke: #808080; stroke-opacity: 0.2; stroke-linecap: square"/>
     </g>
     <g id="line2d_22">
      <g>
       <use xlink:href="#m3b1232e887" x="90" y="226.980063" style="stroke: #000000; stroke-width: 0.8"/>
      </g>
     </g>
     <g id="text_13">
      <!-- −225 -->
      <g transform="translate(55.532812 230.779282) scale(0.1 -0.1)">
       <use xlink:href="#DejaVuSans-2212"/>
       <use xlink:href="#DejaVuSans-32" x="83.789062"/>
       <use xlink:href="#DejaVuSans-32" x="147.412109"/>
       <use xlink:href="#DejaVuSans-35" x="211.035156"/>
      </g>
     </g>
    </g>
    <g id="ytick_5">
     <g id="line2d_23">
      <path d="M 90 183.065896 
L 648 183.065896 
" clip-path="url(#p5653f93479)" style="fill: none; stroke: #808080; stroke-opacity: 0.2; stroke-linecap: square"/>
     </g>
     <g id="line2d_24">
      <g>
       <use xlink:href="#m3b1232e887" x="90" y="183.065896" style="stroke: #000000; stroke-width: 0.8"/>
      </g>
     </g>
     <g id="text_14">
      <!-- −200 -->
      <g transform="translate(55.532812 186.865115) scale(0.1 -0.1)">
       <use xlink:href="#DejaVuSans-2212"/>
       <use xlink:href="#DejaVuSans-32" x="83.789062"/>
       <use xlink:href="#DejaVuSans-30" x="147.412109"/>
       <use xlink:href="#DejaVuSans-30" x="211.035156"/>
      </g>
     </g>
    </g>
    <g id="ytick_6">
     <g id="line2d_25">
      <path d="M 90 139.151729 
L 648 139.151729 
" clip-path="url(#p5653f93479)" style="fill: none; stroke: #808080; stroke-opacity: 0.2; stroke-linecap: square"/>
     </g>
     <g id="line2d_26">
      <g>
       <use xlink:href="#m3b1232e887" x="90" y="139.151729" style="stroke: #000000; stroke-width: 0.8"/>
      </g>
     </g>
     <g id="text_15">
      <!-- −175 -->
      <g transform="translate(55.532812 142.950948) scale(0.1 -0.1)">
       <use xlink:href="#DejaVuSans-2212"/>
       <use xlink:href="#DejaVuSans-31" x="83.789062"/>
       <use xlink:href="#DejaVuSans-37" x="147.412109"/>
       <use xlink:href="#DejaVuSans-35" x="211.035156"/>
      </g>
     </g>
    </g>
    <g id="ytick_7">
     <g id="line2d_27">
      <path d="M 90 95.237562 
L 648 95.237562 
" clip-path="url(#p5653f93479)" style="fill: none; stroke: #808080; stroke-opacity: 0.2; stroke-linecap: square"/>
     </g>
     <g id="line2d_28">
      <g>
       <use xlink:href="#m3b1232e887" x="90" y="95.237562" style="stroke: #000000; stroke-width: 0.8"/>
      </g>
     </g>
     <g id="text_16">
      <!-- −150 -->
      <g transform="translate(55.532812 99.036781) scale(0.1 -0.1)">
       <use xlink:href="#DejaVuSans-2212"/>
       <use xlink:href="#DejaVuSans-31" x="83.789062"/>
       <use xlink:href="#DejaVuSans-35" x="147.412109"/>
       <use xlink:href="#DejaVuSans-30" x="211.035156"/>
      </g>
     </g>
    </g>
    <g id="text_17">
     <!-- Rewards -->
     <g transform="translate(49.037187 243.630937) rotate(-90) scale(0.12 -0.12)">
      <defs>
       <path id="DejaVuSans-52" d="M 2841 2188 
Q 3044 2119 3236 1894 
Q 3428 1669 3622 1275 
L 4263 0 
L 3584 0 
L 2988 1197 
Q 2756 1666 2539 1819 
Q 2322 1972 1947 1972 
L 1259 1972 
L 1259 0 
L 628 0 
L 628 4666 
L 2053 4666 
Q 2853 4666 3247 4331 
Q 3641 3997 3641 3322 
Q 3641 2881 3436 2590 
Q 3231 2300 2841 2188 
z
M 1259 4147 
L 1259 2491 
L 2053 2491 
Q 2509 2491 2742 2702 
Q 2975 2913 2975 3322 
Q 2975 3731 2742 3939 
Q 2509 4147 2053 4147 
L 1259 4147 
z
" transform="scale(0.015625)"/>
       <path id="DejaVuSans-77" d="M 269 3500 
L 844 3500 
L 1563 769 
L 2278 3500 
L 2956 3500 
L 3675 769 
L 4391 3500 
L 4966 3500 
L 4050 0 
L 3372 0 
L 2619 2869 
L 1863 0 
L 1184 0 
L 269 3500 
z
" transform="scale(0.015625)"/>
       <path id="DejaVuSans-61" d="M 2194 1759 
Q 1497 1759 1228 1600 
Q 959 1441 959 1056 
Q 959 750 1161 570 
Q 1363 391 1709 391 
Q 2188 391 2477 730 
Q 2766 1069 2766 1631 
L 2766 1759 
L 2194 1759 
z
M 3341 1997 
L 3341 0 
L 2766 0 
L 2766 531 
Q 2569 213 2275 61 
Q 1981 -91 1556 -91 
Q 1019 -91 701 211 
Q 384 513 384 1019 
Q 384 1609 779 1909 
Q 1175 2209 1959 2209 
L 2766 2209 
L 2766 2266 
Q 2766 2663 2505 2880 
Q 2244 3097 1772 3097 
Q 1472 3097 1187 3025 
Q 903 2953 641 2809 
L 641 3341 
Q 956 3463 1253 3523 
Q 1550 3584 1831 3584 
Q 2591 3584 2966 3190 
Q 3341 2797 3341 1997 
z
" transform="scale(0.015625)"/>
       <path id="DejaVuSans-72" d="M 2631 2963 
Q 2534 3019 2420 3045 
Q 2306 3072 2169 3072 
Q 1681 3072 1420 2755 
Q 1159 2438 1159 1844 
L 1159 0 
L 581 0 
L 581 3500 
L 1159 3500 
L 1159 2956 
Q 1341 3275 1631 3429 
Q 1922 3584 2338 3584 
Q 2397 3584 2469 3576 
Q 2541 3569 2628 3553 
L 2631 2963 
z
" transform="scale(0.015625)"/>
       <path id="DejaVuSans-64" d="M 2906 2969 
L 2906 4863 
L 3481 4863 
L 3481 0 
L 2906 0 
L 2906 525 
Q 2725 213 2448 61 
Q 2172 -91 1784 -91 
Q 1150 -91 751 415 
Q 353 922 353 1747 
Q 353 2572 751 3078 
Q 1150 3584 1784 3584 
Q 2172 3584 2448 3432 
Q 2725 3281 2906 2969 
z
M 947 1747 
Q 947 1113 1208 752 
Q 1469 391 1925 391 
Q 2381 391 2643 752 
Q 2906 1113 2906 1747 
Q 2906 2381 2643 2742 
Q 2381 3103 1925 3103 
Q 1469 3103 1208 2742 
Q 947 2381 947 1747 
z
" transform="scale(0.015625)"/>
      </defs>
      <use xlink:href="#DejaVuSans-52"/>
      <use xlink:href="#DejaVuSans-65" x="64.982422"/>
      <use xlink:href="#DejaVuSans-77" x="126.505859"/>
      <use xlink:href="#DejaVuSans-61" x="208.292969"/>
      <use xlink:href="#DejaVuSans-72" x="269.572266"/>
      <use xlink:href="#DejaVuSans-64" x="308.935547"/>
      <use xlink:href="#DejaVuSans-73" x="372.412109"/>
     </g>
    </g>
   </g>
   <g id="line2d_29">
    <path d="M 115.363636 343.382906 
L 115.702044 343.932316 
L 116.378859 344.410717 
L 116.717266 344.612211 
L 118.409303 345.055869 
L 120.10134 345.588905 
L 122.8086 346.838786 
L 123.485415 346.838903 
L 124.162229 346.562446 
L 124.839044 346.216487 
L 125.854266 346.185443 
L 126.531081 346.344639 
L 127.207896 346.780601 
L 128.223118 347.787852 
L 128.899933 348.093834 
L 129.576748 348.229469 
L 130.253563 348.10337 
L 130.930378 347.643881 
L 131.9456 346.947225 
L 133.29923 346.370466 
L 133.976045 346.304486 
L 134.991267 346.249802 
L 135.668082 346.033025 
L 136.683304 346.018061 
L 138.375341 346.475246 
L 139.052156 346.862625 
L 139.728971 347.048338 
L 142.43623 347.066255 
L 143.113045 347.256656 
L 143.78986 347.743225 
L 145.481897 349.026954 
L 147.173934 350.320776 
L 148.527564 350.585098 
L 149.204379 350.853992 
L 150.219601 351.098038 
L 150.896416 351.56301 
L 151.573231 352.115171 
L 152.250045 352.318211 
L 153.265268 352.372313 
L 153.942083 352.102548 
L 154.957305 351.570288 
L 156.649342 351.184212 
L 158.002972 351.299247 
L 159.018194 351.533647 
L 162.740676 353.377601 
L 164.77112 353.13434 
L 166.12475 352.456069 
L 166.801565 352.496258 
L 167.816787 352.777395 
L 168.493602 353.417526 
L 170.185639 355.090075 
L 171.200861 355.476088 
L 172.216083 355.419354 
L 173.231306 355.39354 
L 173.908121 355.701595 
L 174.923343 356.108553 
L 177.96901 356.977628 
L 179.322639 357.890834 
L 179.999454 358.09447 
L 180.676269 357.986765 
L 181.353084 357.61246 
L 184.060343 355.404801 
L 184.737158 355.393426 
L 185.75238 355.605891 
L 186.429195 356.067629 
L 187.444417 356.954345 
L 189.813269 357.696742 
L 191.505307 357.432294 
L 192.182121 357.356123 
L 193.197344 356.893497 
L 193.874159 356.876467 
L 194.212566 356.940685 
L 194.889381 357.25376 
L 195.566196 357.343326 
L 196.581418 357.660202 
L 197.258233 357.641554 
L 197.59664 357.534655 
L 199.288677 356.275717 
L 199.965492 355.925522 
L 201.319122 355.643466 
L 201.995937 355.770975 
L 203.011159 356.066292 
L 205.041603 356.471589 
L 207.072048 356.275865 
L 208.425678 356.763151 
L 209.102493 357.275912 
L 210.456122 358.356661 
L 211.471345 358.505858 
L 212.824974 358.252318 
L 213.501789 358.017275 
L 217.901086 357.203993 
L 218.916308 356.873351 
L 219.593123 356.910089 
L 220.946752 357.381541 
L 221.961975 358.260856 
L 222.638789 358.83403 
L 223.315604 359.03565 
L 224.330827 359.092292 
L 226.022864 358.557181 
L 226.361271 358.492297 
L 227.038086 358.707968 
L 227.714901 359.11818 
L 228.391716 359.556425 
L 229.745345 360.210482 
L 230.42216 360.451143 
L 232.452605 360.247222 
L 233.12942 360.17637 
L 233.806234 360.214918 
L 234.483049 360.609329 
L 235.498272 361.428981 
L 236.513494 361.970739 
L 237.528716 361.94701 
L 238.882346 360.910757 
L 239.897568 360.629853 
L 240.574383 360.483245 
L 240.91279 360.374315 
L 241.928013 360.392553 
L 242.604827 360.138553 
L 244.635272 358.779496 
L 245.650494 358.380547 
L 246.327309 358.442843 
L 247.342531 359.050004 
L 249.711383 360.663465 
L 250.388198 361.02877 
L 252.418643 361.991917 
L 253.433865 362.270988 
L 254.11068 362.170003 
L 255.46431 361.820537 
L 256.141124 361.745382 
L 258.509976 362.145506 
L 259.186791 361.638121 
L 259.863606 360.797535 
L 260.878828 359.381754 
L 261.217236 359.123328 
L 261.555643 359.020024 
L 261.894051 359.035823 
L 262.232458 359.237323 
L 262.909273 360.091814 
L 264.262903 362.126809 
L 264.60131 362.279908 
L 265.278125 362.104647 
L 265.95494 361.656645 
L 266.631755 361.00735 
L 267.646977 360.533103 
L 267.985384 360.674973 
L 270.015829 362.642334 
L 270.692644 362.859468 
L 271.031051 362.869602 
L 271.707866 362.510538 
L 272.384681 362.105243 
L 273.061496 362.045042 
L 273.73831 362.393667 
L 274.415125 362.914594 
L 276.107162 364.724964 
L 276.783977 364.898015 
L 277.460792 364.642596 
L 278.137607 364.058015 
L 280.506459 361.331555 
L 281.183274 360.803696 
L 281.860089 360.510478 
L 283.552126 360.805528 
L 285.244163 361.954175 
L 287.274607 361.734579 
L 287.613015 361.5516 
L 288.28983 361.68041 
L 288.628237 361.856814 
L 290.997089 364.013351 
L 291.673904 364.180124 
L 292.012311 364.210013 
L 292.350719 364.097662 
L 293.027534 363.551779 
L 294.042756 362.653912 
L 295.057978 361.862959 
L 295.734793 361.554436 
L 296.750015 361.736895 
L 297.42683 361.986758 
L 298.103645 362.618982 
L 298.78046 363.27577 
L 299.457275 363.547201 
L 300.134089 363.830063 
L 300.810904 364.082908 
L 301.149312 363.919447 
L 303.179756 361.717072 
L 304.194978 360.527944 
L 304.871793 360.091239 
L 306.225423 359.846793 
L 306.902238 359.817106 
L 308.255868 360.171241 
L 308.932682 360.52642 
L 310.286312 361.615792 
L 310.62472 361.713177 
L 311.639942 361.561999 
L 312.316757 361.091167 
L 312.993571 360.584724 
L 313.670386 360.185392 
L 314.008794 360.171433 
L 315.362423 361.014314 
L 316.377646 361.960752 
L 317.054461 362.277425 
L 317.392868 362.196089 
L 320.100127 360.598186 
L 320.438535 360.587261 
L 322.468979 361.455539 
L 323.484202 361.486599 
L 325.176239 361.411428 
L 325.514646 361.561642 
L 327.206683 363.467691 
L 327.883498 363.672949 
L 328.221906 363.560378 
L 328.89872 362.742293 
L 329.913943 360.888304 
L 330.590757 359.728258 
L 331.267572 359.117783 
L 331.60598 359.060793 
L 333.298017 359.660316 
L 333.636424 359.700124 
L 334.313239 359.329395 
L 336.343684 357.825223 
L 336.682091 357.745013 
L 337.020499 357.782825 
L 338.035721 358.375253 
L 339.38935 359.093773 
L 340.066165 359.193342 
L 342.09661 358.356943 
L 343.111832 357.275662 
L 343.45024 357.033282 
L 344.803869 356.6756 
L 345.142277 356.859699 
L 345.480684 357.285501 
L 346.157499 358.852449 
L 347.172721 361.345158 
L 347.849536 362.851715 
L 348.187943 363.279105 
L 348.526351 363.419277 
L 348.864758 363.352436 
L 349.203166 362.963845 
L 349.879981 361.682728 
L 351.23361 358.943666 
L 351.572018 358.542891 
L 351.910425 358.328016 
L 352.248833 358.319556 
L 355.632907 360.564618 
L 355.971314 360.567792 
L 356.309722 360.726594 
L 356.986536 361.64491 
L 357.663351 362.589867 
L 358.340166 362.979508 
L 359.355388 362.848815 
L 359.693796 362.507551 
L 360.370611 361.009358 
L 361.047426 359.510904 
L 361.72424 358.462215 
L 362.401055 357.761365 
L 362.739463 357.614945 
L 363.07787 357.832071 
L 363.754685 358.912538 
L 366.123537 363.489781 
L 366.461944 363.65608 
L 367.477167 363.674408 
L 368.153981 363.605623 
L 369.507611 362.730022 
L 370.184426 362.509204 
L 370.861241 361.943953 
L 371.538056 361.051274 
L 372.214871 360.365289 
L 373.230093 358.885372 
L 374.245315 357.431679 
L 374.92213 356.84482 
L 375.598945 356.470067 
L 376.614167 356.211933 
L 376.952574 356.294423 
L 377.967797 356.936164 
L 378.644612 357.043011 
L 379.321426 356.939984 
L 380.336649 357.071113 
L 382.028686 356.186275 
L 382.367093 356.247628 
L 384.05913 355.784782 
L 384.397538 355.847984 
L 385.074353 355.589657 
L 386.427982 354.311516 
L 387.104797 353.37025 
L 387.781612 352.249567 
L 388.458427 351.708583 
L 389.135242 351.324101 
L 390.150464 351.152454 
L 391.504094 351.584631 
L 392.180908 351.634605 
L 392.857723 351.875168 
L 394.54976 351.856777 
L 395.226575 351.907746 
L 396.241798 351.691751 
L 396.918612 351.869537 
L 397.933835 352.116013 
L 398.61065 352.257973 
L 399.287464 352.527129 
L 399.964279 352.302334 
L 400.979501 351.517635 
L 402.671539 349.914605 
L 403.009946 349.842513 
L 403.348353 349.932797 
L 404.025168 350.460078 
L 404.363576 350.87124 
L 406.732428 354.910607 
L 407.070835 355.164404 
L 407.409243 355.225839 
L 408.424465 354.783862 
L 409.10128 354.746541 
L 410.116502 354.043193 
L 410.454909 353.973484 
L 410.793317 354.202712 
L 411.470132 355.056262 
L 411.808539 355.210267 
L 412.823761 355.104837 
L 413.162169 354.950045 
L 413.500576 354.570959 
L 414.177391 353.202291 
L 415.869428 348.432605 
L 416.546243 346.914275 
L 417.223058 346.044453 
L 417.899873 345.509341 
L 418.915095 345.109451 
L 419.59191 345.277623 
L 420.268725 345.35912 
L 421.622354 345.831755 
L 421.960762 346.086786 
L 422.975984 346.395438 
L 424.329614 348.047633 
L 425.683243 350.45711 
L 426.021651 351.13734 
L 428.390503 353.993005 
L 428.72891 354.309736 
L 429.405725 354.458647 
L 429.744132 354.496777 
L 430.08254 354.413221 
L 430.420947 354.188277 
L 432.112984 352.365258 
L 432.451392 352.309758 
L 432.789799 352.43521 
L 433.466614 353.02992 
L 435.497059 354.989999 
L 436.173873 354.95226 
L 436.850688 354.699655 
L 437.865911 354.648177 
L 438.204318 354.452214 
L 439.21954 353.164627 
L 439.896355 352.523513 
L 441.249985 350.760478 
L 441.9268 350.634209 
L 442.265207 350.664346 
L 442.942022 350.271257 
L 443.280429 350.055963 
L 444.295652 350.051874 
L 445.649281 348.460039 
L 445.987689 348.278264 
L 446.664504 348.293428 
L 447.341318 348.009228 
L 447.679726 348.064991 
L 449.033356 349.356358 
L 449.371763 349.43294 
L 450.725393 349.099992 
L 451.0638 348.836965 
L 452.079022 347.552586 
L 452.755837 347.214449 
L 453.432652 346.960532 
L 454.109467 346.615283 
L 454.786282 345.571264 
L 455.124689 344.754831 
L 455.801504 342.074377 
L 456.816726 336.318427 
L 457.493541 332.202739 
L 458.508763 328.19234 
L 459.185578 326.851026 
L 459.523986 326.628105 
L 459.862393 326.70505 
L 460.200801 326.98516 
L 460.877615 328.281957 
L 461.892838 329.188549 
L 462.231245 329.717847 
L 463.584875 332.578022 
L 464.600097 334.272018 
L 465.276912 336.209333 
L 465.615319 336.901026 
L 466.292134 337.614691 
L 466.630542 337.817279 
L 467.307356 337.90258 
L 467.984171 338.229659 
L 468.322579 338.031125 
L 470.353023 335.919545 
L 470.691431 335.73349 
L 471.706653 334.690322 
L 472.04506 334.674138 
L 472.383468 334.813916 
L 473.060283 335.712946 
L 473.737097 337.248753 
L 474.413912 339.006021 
L 476.782764 345.74824 
L 477.121172 346.231456 
L 478.474801 346.498539 
L 478.813209 346.112122 
L 479.490024 344.410377 
L 480.505246 341.90714 
L 481.182061 341.816289 
L 481.858876 341.363654 
L 482.197283 341.388728 
L 482.53569 341.690938 
L 483.212505 342.85409 
L 483.550913 343.200444 
L 483.88932 343.183066 
L 484.904542 342.299171 
L 485.581357 341.353372 
L 485.919765 340.546384 
L 486.934987 337.091019 
L 487.611802 335.651144 
L 488.627024 334.013624 
L 488.965431 333.712845 
L 489.303839 333.696796 
L 489.980654 334.189092 
L 490.657469 334.425235 
L 491.334283 334.554009 
L 492.011098 335.026249 
L 492.349506 335.030839 
L 493.026321 334.81875 
L 494.718358 335.009388 
L 495.395173 334.617234 
L 496.071987 335.007663 
L 496.410395 335.172141 
L 496.748802 335.106187 
L 497.08721 334.680961 
L 497.425617 333.987175 
L 497.764025 333.023153 
L 498.440839 330.072761 
L 498.779247 328.097123 
L 499.456062 322.24732 
L 500.809691 308.458026 
L 501.486506 303.362263 
L 502.163321 299.874446 
L 502.501728 298.614877 
L 502.840136 297.908597 
L 503.178543 297.736747 
L 503.516951 297.979608 
L 504.193766 298.838645 
L 504.87058 299.22253 
L 505.547395 299.153825 
L 505.885803 299.303308 
L 506.22421 299.27427 
L 506.562618 298.95697 
L 506.901025 298.467055 
L 507.57784 297.222785 
L 508.254655 297.082907 
L 509.269877 297.605296 
L 509.608284 298.15834 
L 510.623507 301.820981 
L 511.300321 304.109788 
L 512.992359 309.21908 
L 513.669173 309.710753 
L 514.345988 309.713863 
L 514.684396 309.653645 
L 515.361211 308.636156 
L 515.699618 308.016449 
L 518.06847 300.972698 
L 518.406877 300.579402 
L 519.760507 301.070099 
L 520.098914 301.461091 
L 520.437322 302.183274 
L 521.114137 304.652433 
L 521.790952 307.525376 
L 522.467766 309.224305 
L 523.482989 312.739341 
L 523.821396 313.17748 
L 524.159804 313.280789 
L 524.498211 313.053853 
L 525.175026 311.887544 
L 525.851841 310.448395 
L 526.528655 308.291523 
L 526.867063 307.561829 
L 527.543878 306.856803 
L 527.882285 306.665844 
L 528.220693 306.718157 
L 528.5591 307.046449 
L 529.235915 308.425973 
L 530.251137 310.575579 
L 531.604767 312.5476 
L 531.943174 312.688977 
L 533.296804 311.708969 
L 534.312026 311.451049 
L 534.988841 311.38195 
L 535.327248 311.836343 
L 536.004063 313.627245 
L 537.357693 316.523223 
L 538.034508 318.3321 
L 538.372915 318.814355 
L 538.711323 318.386453 
L 539.388138 315.598625 
L 540.064952 311.259191 
L 540.741767 304.414554 
L 542.772212 280.429951 
L 543.449027 275.981222 
L 544.125841 273.37341 
L 544.464249 272.671379 
L 544.802656 272.594243 
L 545.141064 273.089062 
L 545.817879 274.956083 
L 546.833101 278.710973 
L 547.509916 282.298967 
L 548.186731 286.055132 
L 548.525138 287.464399 
L 548.863545 288.265611 
L 549.54036 289.191984 
L 549.878768 289.274336 
L 550.217175 288.900625 
L 550.555583 288.127603 
L 551.232397 285.600271 
L 551.909212 282.799235 
L 552.586027 281.036957 
L 553.262842 279.282162 
L 553.939657 278.49446 
L 554.278064 278.473062 
L 554.616472 278.946763 
L 554.954879 280.045465 
L 555.631694 281.486398 
L 556.308509 284.033848 
L 556.646916 284.778893 
L 557.323731 287.221583 
L 557.662138 288.481557 
L 558.000546 289.281782 
L 558.677361 289.632593 
L 559.015768 288.504475 
L 560.707805 273.366828 
L 561.723027 263.857305 
L 562.061435 260.817852 
L 562.399842 259.463251 
L 562.73825 259.446397 
L 563.753472 256.00543 
L 564.430287 252.452347 
L 565.445509 246.709568 
L 565.783917 244.957407 
L 566.122324 244.659823 
L 566.799139 249.767301 
L 567.475954 256.340684 
L 569.167991 276.779035 
L 569.506398 279.034433 
L 569.844806 278.987765 
L 570.183213 279.665372 
L 570.860028 282.913402 
L 572.213658 287.804134 
L 572.552065 287.718085 
L 572.890472 288.242616 
L 573.22888 290.043299 
L 573.567287 290.483813 
L 573.905695 289.751568 
L 574.244102 289.291516 
L 574.58251 289.119453 
L 574.920917 288.75654 
L 575.259324 288.166987 
L 575.936139 286.625763 
L 577.289769 285.20479 
L 577.628176 284.999613 
L 577.966584 284.237236 
L 578.304991 282.943471 
L 578.643399 282.187591 
L 579.320213 283.318556 
L 579.658621 282.858998 
L 580.335436 281.065123 
L 580.673843 280.376663 
L 581.350658 277.529986 
L 582.36588 275.212951 
L 582.704288 275.142065 
L 584.396325 282.741454 
L 584.734732 283.532626 
L 585.07314 283.938578 
L 585.411547 284.012348 
L 585.749955 283.959112 
L 586.088362 282.941834 
L 587.441992 272.496619 
L 587.780399 271.985792 
L 588.118806 272.001599 
L 588.457214 271.793028 
L 588.795621 271.103472 
L 589.134029 268.574571 
L 590.487658 252.208873 
L 590.826066 250.327857 
L 592.179696 236.355875 
L 592.518103 236.073427 
L 592.85651 237.375762 
L 593.194918 237.401007 
L 593.533325 237.129529 
L 593.871733 235.659476 
L 594.548548 228.739048 
L 594.886955 224.365316 
L 595.225362 221.535442 
L 595.56377 220.460841 
L 595.902177 217.700499 
L 596.240585 216.081069 
L 596.578992 217.01186 
L 596.917399 218.716297 
L 597.594214 223.616872 
L 598.609437 234.064302 
L 598.947844 235.591868 
L 599.624659 240.281718 
L 599.963066 243.200691 
L 600.639881 250.543919 
L 601.316696 255.521719 
L 601.655103 257.462838 
L 602.670326 265.182484 
L 603.008733 265.753278 
L 603.347141 265.438927 
L 603.685548 264.241565 
L 604.023955 263.644023 
L 604.362363 263.809506 
L 604.70077 264.26824 
L 605.039178 265.789906 
L 605.377585 266.125853 
L 605.715992 265.84013 
L 606.392807 266.814612 
L 606.731215 266.786913 
L 607.069622 266.58222 
L 607.40803 266.889503 
L 608.084844 267.840377 
L 608.761659 265.542261 
L 609.100067 264.849065 
L 609.438474 263.400281 
L 609.776882 261.2987 
L 610.453696 254.393414 
L 611.807326 228.074275 
L 612.484141 221.160242 
L 613.499363 213.353383 
L 613.837771 211.061169 
L 614.852993 207.198482 
L 615.1914 205.185544 
L 615.529808 200.474749 
L 616.54503 177.30319 
L 617.221845 160.609764 
L 617.89866 148.561258 
L 618.237067 141.190442 
L 618.575475 136.400645 
L 618.913882 134.82195 
L 619.252289 135.469554 
L 619.590697 138.743336 
L 620.944327 166.470112 
L 621.959549 196.459123 
L 622.297956 200.432744 
L 622.636364 198.880167 
L 622.636364 198.880167 
" clip-path="url(#p5653f93479)" style="fill: none; stroke: #ff0000; stroke-width: 1.5; stroke-linecap: square"/>
   </g>
   <g id="line2d_30">
    <path d="M 115.363636 343.382906 
L 115.702044 344.115453 
L 116.040451 344.273676 
L 116.717266 345.075905 
L 117.732488 345.448082 
L 118.070896 346.071722 
L 118.409303 346.171085 
L 118.747711 346.100783 
L 119.086118 345.752446 
L 119.424525 345.693572 
L 120.439748 348.319552 
L 120.778155 348.30991 
L 121.116563 348.875642 
L 121.793377 346.859884 
L 122.131785 345.07406 
L 122.470192 344.801773 
L 122.8086 344.917648 
L 123.147007 345.540097 
L 123.485415 345.130524 
L 123.823822 345.164875 
L 124.162229 344.951257 
L 124.500637 345.770207 
L 125.515859 349.468112 
L 125.854266 349.337619 
L 126.192674 348.768413 
L 126.531081 347.969878 
L 126.869489 347.664664 
L 127.546304 348.813966 
L 127.884711 349.648765 
L 128.223118 349.119375 
L 128.561526 348.340181 
L 128.899933 347.181491 
L 129.238341 346.940159 
L 129.576748 346.390588 
L 130.59197 343.941211 
L 131.268785 346.410222 
L 131.607193 348.205843 
L 131.9456 348.407887 
L 132.284008 348.322264 
L 132.960822 346.051238 
L 133.29923 344.998079 
L 133.976045 344.130999 
L 134.314452 344.937887 
L 134.652859 346.069487 
L 134.991267 346.507692 
L 135.668082 345.702833 
L 136.683304 348.298395 
L 137.021711 348.060204 
L 137.698526 346.735245 
L 138.036934 346.726619 
L 138.375341 347.210045 
L 138.713749 347.215569 
L 139.390563 346.574344 
L 139.728971 346.532264 
L 140.067378 346.123589 
L 140.405786 345.952168 
L 140.744193 346.321906 
L 141.421008 348.909816 
L 141.759415 349.143576 
L 142.097823 349.157805 
L 142.43623 348.200964 
L 143.113045 347.985218 
L 143.451452 348.83163 
L 144.466675 352.011933 
L 144.805082 351.678536 
L 145.14349 350.232043 
L 145.481897 349.614805 
L 145.820304 349.62915 
L 146.158712 351.18217 
L 146.835527 351.687885 
L 147.512342 349.916349 
L 147.850749 349.392365 
L 148.189156 349.218074 
L 149.204379 354.220659 
L 149.881194 353.147338 
L 150.219601 353.104283 
L 150.558008 353.818327 
L 150.896416 354.184747 
L 151.911638 349.930226 
L 152.588453 350.516763 
L 152.92686 351.201219 
L 153.265268 350.969567 
L 153.603675 351.608898 
L 153.942083 351.472081 
L 154.28049 351.8895 
L 154.618897 351.763144 
L 154.957305 351.876521 
L 155.295712 351.652207 
L 155.63412 350.992714 
L 155.972527 350.044656 
L 156.310935 349.508864 
L 156.649342 350.189827 
L 157.326157 352.712744 
L 157.664564 352.543743 
L 158.341379 353.115779 
L 158.679787 354.199678 
L 159.695009 352.709797 
L 160.033416 353.26737 
L 160.371824 353.406022 
L 161.048638 351.74755 
L 161.387046 352.866054 
L 162.063861 356.480092 
L 162.402268 355.389088 
L 163.079083 351.112922 
L 163.41749 350.172183 
L 163.755898 350.786688 
L 164.094305 351.808464 
L 164.432713 352.418285 
L 164.77112 352.281214 
L 165.109528 351.8725 
L 165.447935 352.839354 
L 166.12475 353.530114 
L 166.463157 352.720864 
L 167.47838 356.158016 
L 167.816787 356.247562 
L 168.155194 356.478862 
L 168.493602 356.926865 
L 168.832009 357.039676 
L 169.170417 356.595557 
L 169.847231 354.600722 
L 170.185639 353.897275 
L 170.524046 353.642827 
L 170.862454 353.552461 
L 171.877676 356.756615 
L 172.554491 356.559879 
L 173.569713 358.028135 
L 174.246528 357.041413 
L 174.923343 354.400473 
L 175.26175 354.072581 
L 175.600158 354.666203 
L 176.276973 358.465071 
L 177.292195 360.441696 
L 177.630602 360.665346 
L 177.96901 358.867442 
L 178.307417 357.728777 
L 178.645824 357.231141 
L 178.984232 357.490879 
L 179.661047 355.433686 
L 179.999454 355.407357 
L 180.337862 357.066063 
L 180.676269 357.640968 
L 181.014676 356.584881 
L 181.353084 354.859171 
L 181.691491 353.908244 
L 182.029899 354.802629 
L 182.368306 355.26527 
L 182.706714 354.766873 
L 183.045121 353.300472 
L 183.383528 353.004003 
L 183.721936 354.560282 
L 184.398751 359.09238 
L 184.737158 359.40782 
L 185.75238 356.616987 
L 186.090788 356.445585 
L 187.10601 358.454336 
L 187.782825 357.160937 
L 188.121232 356.540245 
L 188.45964 357.793496 
L 188.798047 358.06715 
L 189.136455 359.473926 
L 189.474862 358.705272 
L 189.813269 358.30052 
L 190.151677 356.424975 
L 190.828492 354.612003 
L 191.166899 354.543848 
L 191.505307 355.610123 
L 192.182121 359.650831 
L 192.520529 358.868984 
L 192.858936 356.718965 
L 193.197344 355.715127 
L 193.535751 356.465708 
L 193.874159 357.665501 
L 194.212566 358.009671 
L 195.227788 359.971678 
L 196.581418 354.608451 
L 196.919825 354.817443 
L 197.258233 355.485992 
L 197.59664 355.778324 
L 197.935048 354.968703 
L 198.273455 354.71078 
L 198.611862 355.356787 
L 198.95027 356.351043 
L 199.288677 356.429678 
L 199.627085 355.917112 
L 199.965492 355.769795 
L 200.3039 356.289504 
L 200.642307 356.592649 
L 200.980714 355.878546 
L 201.319122 354.680802 
L 201.657529 354.929044 
L 202.334344 358.113718 
L 202.672752 358.297494 
L 203.011159 356.712954 
L 203.349566 356.068392 
L 203.687974 355.909832 
L 204.026381 356.554024 
L 204.364789 356.614586 
L 205.380011 354.757212 
L 205.718418 355.159954 
L 206.056826 355.376851 
L 207.072048 358.604581 
L 207.410455 360.701024 
L 207.748863 361.008931 
L 208.08727 360.815318 
L 208.425678 358.06834 
L 209.102493 356.346027 
L 209.779307 359.191684 
L 210.117715 359.60317 
L 210.79453 358.409778 
L 211.132937 358.448949 
L 211.471345 358.615882 
L 212.148159 356.214519 
L 212.486567 355.348024 
L 213.163382 357.796229 
L 213.501789 359.878268 
L 213.840196 359.776133 
L 214.178604 359.283592 
L 214.517011 357.759985 
L 214.855419 357.387983 
L 215.532234 355.737357 
L 215.870641 354.96964 
L 216.209048 355.357431 
L 216.885863 358.010042 
L 217.224271 358.516655 
L 217.562678 358.275557 
L 218.5779 354.970479 
L 218.916308 355.220614 
L 219.254715 356.749705 
L 219.93153 360.76672 
L 220.269938 360.975536 
L 220.608345 360.215002 
L 220.946752 359.933834 
L 221.28516 360.132248 
L 221.623567 359.978138 
L 221.961975 358.814706 
L 222.300382 358.548 
L 222.638789 358.952811 
L 222.977197 359.130595 
L 223.654012 356.614996 
L 223.992419 356.70261 
L 224.330827 357.892859 
L 224.669234 358.292244 
L 225.346049 359.713931 
L 225.684456 361.142059 
L 226.022864 360.845394 
L 226.699679 358.389714 
L 227.038086 359.288959 
L 227.714901 362.487901 
L 228.730123 359.088086 
L 229.068531 360.361363 
L 229.406938 360.871352 
L 229.745345 361.05306 
L 230.083753 360.110135 
L 230.42216 360.372136 
L 230.760568 360.080585 
L 231.098975 360.219256 
L 231.437382 358.591348 
L 231.77579 358.648378 
L 232.114197 358.867754 
L 232.452605 360.885307 
L 232.791012 361.231937 
L 233.467827 362.487667 
L 233.806234 363.481123 
L 234.144642 363.69074 
L 234.821457 364.366042 
L 235.159864 363.757352 
L 235.498272 361.066214 
L 236.175086 358.444246 
L 236.513494 359.655516 
L 236.851901 359.109106 
L 237.190309 360.711681 
L 237.528716 360.612922 
L 237.867124 360.800192 
L 238.205531 360.045142 
L 238.543938 360.06056 
L 238.882346 361.347558 
L 239.559161 362.432979 
L 239.897568 361.549797 
L 240.91279 357.29346 
L 241.589605 358.197409 
L 241.928013 359.974528 
L 242.26642 360.036847 
L 242.604827 360.47025 
L 243.62005 355.844605 
L 243.958457 355.558324 
L 244.296865 356.566008 
L 244.973679 359.999686 
L 245.650494 361.230687 
L 245.988902 361.153769 
L 246.327309 361.778639 
L 247.004124 359.686919 
L 247.342531 359.001819 
L 247.680939 359.369644 
L 248.019346 360.961308 
L 248.357754 361.110577 
L 248.696161 362.62302 
L 249.034569 362.593783 
L 249.372976 363.289345 
L 250.049791 361.125118 
L 250.388198 361.063033 
L 251.065013 363.518947 
L 251.40342 363.539285 
L 252.080235 361.98363 
L 252.75705 362.27928 
L 253.095458 361.500281 
L 253.433865 360.432308 
L 253.772272 359.887734 
L 254.11068 361.085166 
L 254.449087 361.302921 
L 254.787495 362.032814 
L 255.125902 361.749733 
L 255.46431 362.993929 
L 255.802717 363.389254 
L 256.141124 363.987502 
L 256.479532 363.52125 
L 256.817939 362.811695 
L 257.156347 362.59107 
L 257.833162 361.331222 
L 258.848384 355.877629 
L 259.186791 354.827826 
L 259.525199 354.942491 
L 259.863606 355.895507 
L 260.540421 359.686782 
L 261.555643 367.104432 
L 261.894051 366.859762 
L 262.570865 362.094196 
L 262.909273 361.223505 
L 263.24768 361.503541 
L 263.586088 360.767871 
L 263.924495 360.400905 
L 264.262903 361.00005 
L 264.60131 360.784949 
L 265.278125 357.823065 
L 265.616532 357.958692 
L 266.293347 360.265396 
L 267.308569 365.103273 
L 267.985384 366.091342 
L 268.662199 364.760918 
L 269.677421 358.841659 
L 270.015829 358.366508 
L 270.354236 359.372806 
L 270.692644 361.977541 
L 271.031051 363.373992 
L 271.369458 363.577109 
L 271.707866 362.257557 
L 272.384681 363.084041 
L 272.723088 364.392488 
L 273.061496 363.806068 
L 273.73831 365.155775 
L 274.076718 366.967556 
L 274.415125 367.557489 
L 275.430348 364.935228 
L 275.768755 364.589302 
L 276.783977 360.581695 
L 277.122385 360.848986 
L 277.799199 361.943053 
L 278.137607 361.485194 
L 278.476014 360.692183 
L 279.152829 359.609435 
L 279.829644 360.334038 
L 280.168051 361.508342 
L 280.506459 361.119067 
L 281.183274 358.779379 
L 281.521681 358.940261 
L 282.536903 363.619072 
L 283.213718 362.256581 
L 283.552126 363.18518 
L 283.890533 365.603524 
L 284.228941 365.814155 
L 284.567348 362.747444 
L 284.905755 358.474634 
L 285.244163 356.14369 
L 285.920978 358.875444 
L 286.259385 361.171667 
L 286.597792 361.952363 
L 286.9362 365.179196 
L 287.274607 366.467774 
L 287.613015 367.268964 
L 288.28983 362.936782 
L 288.628237 361.643715 
L 288.966644 362.680031 
L 289.643459 365.930245 
L 289.981867 366.137793 
L 290.320274 365.520887 
L 290.997089 363.69113 
L 291.335496 362.865758 
L 291.673904 361.599254 
L 292.350719 360.317 
L 292.689126 360.700302 
L 293.027534 360.689899 
L 293.365941 361.175297 
L 294.042756 361.614107 
L 294.381163 362.017395 
L 294.719571 361.965401 
L 295.396385 361.373028 
L 295.734793 362.301822 
L 296.0732 364.380153 
L 296.411608 364.367115 
L 296.750015 363.64989 
L 297.088423 360.959649 
L 297.42683 361.816268 
L 297.765237 364.805027 
L 298.103645 368.903429 
L 298.442052 369.204856 
L 299.118867 361.730196 
L 299.457275 360.681565 
L 299.795682 361.249815 
L 300.134089 362.412584 
L 300.810904 361.546362 
L 301.149312 361.847808 
L 301.487719 361.990032 
L 301.826127 361.102946 
L 302.164534 358.310961 
L 302.502941 356.661057 
L 302.841349 357.409296 
L 303.179756 359.222522 
L 303.518164 360.352931 
L 303.856571 360.588955 
L 304.194978 361.079057 
L 304.533386 361.996238 
L 304.871793 361.997448 
L 305.210201 360.899106 
L 305.887016 357.287351 
L 306.225423 356.517273 
L 306.56383 357.206003 
L 307.240645 362.306838 
L 307.579053 364.760235 
L 307.91746 365.282775 
L 308.255868 364.582022 
L 308.594275 363.235945 
L 308.932682 363.29924 
L 309.609497 360.280073 
L 309.947905 358.291854 
L 310.62472 360.157308 
L 310.963127 360.197865 
L 311.301534 358.993036 
L 311.639942 359.394275 
L 311.978349 360.382929 
L 312.316757 360.676764 
L 312.655164 359.697634 
L 312.993571 359.535386 
L 313.331979 360.061048 
L 313.670386 362.196877 
L 314.008794 363.598715 
L 314.347201 365.531914 
L 314.685609 365.269542 
L 315.024016 363.977236 
L 315.362423 362.205758 
L 315.700831 361.439211 
L 316.039238 361.903882 
L 316.716053 360.324709 
L 317.054461 358.310434 
L 317.392868 357.962732 
L 317.731275 358.093147 
L 318.069683 360.395499 
L 318.40809 361.906888 
L 318.746498 362.763936 
L 319.084905 361.848511 
L 319.423313 361.344884 
L 320.438535 361.645374 
L 320.776942 361.491401 
L 321.11535 362.068023 
L 321.792164 363.599047 
L 322.130572 362.796667 
L 322.468979 359.398608 
L 322.807387 357.200031 
L 323.145794 356.98489 
L 323.484202 360.251772 
L 324.161016 363.869402 
L 324.499424 364.408726 
L 325.176239 366.735065 
L 325.514646 367.24242 
L 325.853054 366.726126 
L 326.191461 364.691807 
L 326.868276 363.242874 
L 327.206683 361.718974 
L 327.883498 356.686547 
L 328.221906 355.576397 
L 328.560313 354.937338 
L 328.89872 355.325871 
L 329.913943 362.495728 
L 331.267572 360.920263 
L 331.944387 358.48494 
L 332.282795 357.885619 
L 333.298017 359.229587 
L 334.313239 354.786157 
L 334.651647 355.183492 
L 334.990054 356.086562 
L 335.666869 359.390079 
L 336.005276 360.470523 
L 336.682091 361.147953 
L 337.358906 360.414509 
L 338.035721 357.035499 
L 338.374128 356.276857 
L 338.712536 357.5863 
L 339.050943 360.406428 
L 339.38935 361.015976 
L 339.727758 360.091964 
L 340.066165 357.841841 
L 340.404573 356.559411 
L 340.74298 356.66379 
L 341.081388 356.904439 
L 341.419795 358.226568 
L 341.758202 357.071567 
L 342.435017 352.951091 
L 342.773425 352.592751 
L 343.111832 354.328864 
L 343.45024 357.237699 
L 344.127054 360.464727 
L 344.465462 359.759485 
L 344.803869 363.038058 
L 345.142277 364.646253 
L 345.480684 367.321543 
L 345.819092 366.418688 
L 346.157499 366.951552 
L 346.495906 367.183809 
L 347.172721 363.623522 
L 347.511129 360.267152 
L 347.849536 359.928564 
L 348.187943 358.118559 
L 348.526351 357.379337 
L 348.864758 354.92877 
L 349.203166 354.410798 
L 349.541573 355.53662 
L 349.879981 357.580698 
L 350.218388 358.876693 
L 350.556795 358.595701 
L 350.895203 358.997115 
L 351.23361 360.789067 
L 351.572018 361.877084 
L 351.910425 362.538627 
L 352.248833 361.099862 
L 352.58724 362.176169 
L 352.925647 361.610262 
L 353.264055 360.488616 
L 353.602462 356.543602 
L 353.94087 354.63556 
L 354.279277 356.897452 
L 354.956092 365.749065 
L 355.294499 365.782147 
L 355.632907 366.100105 
L 355.971314 364.12065 
L 356.648129 366.427158 
L 356.986536 366.975793 
L 357.324944 364.401739 
L 357.663351 360.163925 
L 358.001759 357.563581 
L 358.340166 356.913534 
L 358.678574 358.079173 
L 359.016981 358.303759 
L 359.355388 358.808714 
L 360.032203 356.675305 
L 360.370611 355.125877 
L 360.709018 355.068222 
L 361.047426 355.474555 
L 362.062648 360.210415 
L 362.401055 360.51311 
L 363.07787 365.946249 
L 363.416278 369.36 
L 363.754685 368.503049 
L 364.4315 362.035722 
L 364.769907 361.569197 
L 365.108315 361.676426 
L 365.446722 363.431314 
L 366.461944 362.432296 
L 366.800352 363.021663 
L 367.138759 364.487713 
L 367.477167 364.406911 
L 367.815574 364.773956 
L 368.830796 358.443641 
L 369.169204 359.469651 
L 369.507611 361.768197 
L 369.846019 362.429525 
L 370.184426 362.056528 
L 370.522833 358.963038 
L 370.861241 358.668013 
L 371.199648 356.84132 
L 371.538056 357.160059 
L 371.876463 355.284787 
L 372.214871 355.727032 
L 372.553278 355.904348 
L 372.891685 357.483482 
L 373.230093 357.675494 
L 373.5685 356.186609 
L 373.906908 354.046779 
L 374.245315 352.903449 
L 374.92213 357.251674 
L 375.260537 358.640103 
L 375.598945 358.95365 
L 376.27576 357.78649 
L 376.614167 356.430244 
L 376.952574 355.577529 
L 377.290982 356.88865 
L 377.629389 357.474738 
L 377.967797 358.966375 
L 378.644612 355.866445 
L 378.983019 354.640459 
L 379.321426 355.192665 
L 379.659834 356.844248 
L 379.998241 357.847364 
L 380.336649 357.356521 
L 381.013464 354.087492 
L 381.351871 353.295358 
L 382.028686 356.318136 
L 382.367093 358.014238 
L 383.043908 355.275458 
L 383.382315 354.993022 
L 384.05913 357.643681 
L 384.397538 355.465577 
L 384.735945 351.365399 
L 385.074353 348.89713 
L 385.41276 348.852221 
L 385.751167 351.013071 
L 386.089575 350.719861 
L 386.427982 351.740777 
L 386.76639 351.071662 
L 387.104797 352.072905 
L 387.443205 350.554412 
L 387.781612 350.607811 
L 388.120019 350.934943 
L 388.458427 352.463624 
L 388.796834 352.262849 
L 389.135242 350.917553 
L 389.473649 350.451828 
L 389.812057 351.605736 
L 390.150464 353.780171 
L 390.488871 352.405989 
L 390.827279 352.016324 
L 391.165686 350.620888 
L 391.504094 351.978812 
L 391.842501 351.442356 
L 392.180908 351.760431 
L 392.519316 352.413172 
L 393.196131 352.850674 
L 393.534538 351.568536 
L 393.872946 351.035243 
L 394.211353 350.964277 
L 394.54976 352.004887 
L 394.888168 352.227873 
L 395.564983 349.6894 
L 395.90339 350.499158 
L 396.580205 355.349858 
L 396.918612 355.512243 
L 397.25702 354.782526 
L 397.595427 353.104654 
L 397.933835 352.4929 
L 398.272242 350.68432 
L 398.61065 350.136583 
L 398.949057 350.062261 
L 399.287464 350.661914 
L 399.625872 350.784405 
L 399.964279 349.474845 
L 400.302687 349.52967 
L 400.641094 349.776936 
L 400.979501 349.813414 
L 401.317909 348.735175 
L 401.656316 346.562653 
L 401.994724 347.51157 
L 402.333131 349.51228 
L 402.671539 352.210444 
L 403.348353 355.384463 
L 403.686761 358.166806 
L 404.025168 359.375987 
L 404.363576 358.452872 
L 405.378798 351.891491 
L 405.717205 351.655623 
L 406.39402 357.699598 
L 406.732428 359.738621 
L 407.070835 357.93449 
L 407.74765 348.299468 
L 408.086057 346.572529 
L 408.424465 350.547952 
L 408.762872 355.90991 
L 409.10128 358.089673 
L 409.778094 355.681635 
L 410.454909 358.378257 
L 410.793317 358.690497 
L 411.470132 354.811451 
L 412.823761 348.673344 
L 413.162169 347.734654 
L 413.500576 345.971646 
L 413.838984 345.277939 
L 414.177391 343.692482 
L 414.515798 344.838251 
L 414.854206 344.561611 
L 415.192613 346.413442 
L 415.531021 346.356042 
L 415.869428 346.941349 
L 416.207836 345.335145 
L 416.546243 345.455723 
L 416.88465 344.669386 
L 417.223058 344.402818 
L 417.561465 343.14779 
L 418.23828 343.854554 
L 418.576687 344.469958 
L 419.253502 349.66717 
L 419.59191 350.777144 
L 420.268725 344.517775 
L 420.607132 343.837203 
L 420.945539 344.406994 
L 421.622354 344.778977 
L 421.960762 345.698715 
L 423.314391 355.579481 
L 423.652799 355.429646 
L 423.991206 353.025921 
L 424.329614 349.467839 
L 424.668021 348.785354 
L 425.006429 349.798054 
L 425.344836 352.835489 
L 425.683243 353.698432 
L 426.021651 355.755957 
L 426.360058 355.21593 
L 426.698466 356.3172 
L 427.036873 355.878058 
L 427.37528 357.911538 
L 427.713688 357.305717 
L 428.052095 356.450679 
L 428.390503 353.797424 
L 429.067318 351.488632 
L 429.405725 350.582283 
L 429.744132 348.834147 
L 430.08254 348.306104 
L 430.420947 348.719463 
L 431.097762 353.711587 
L 431.43617 354.870374 
L 431.774577 355.413407 
L 432.112984 355.309301 
L 432.451392 357.734515 
L 432.789799 358.904857 
L 433.128207 358.299427 
L 434.143429 350.788504 
L 434.481836 350.038918 
L 434.820244 352.741357 
L 435.158651 356.365232 
L 435.497059 358.751918 
L 435.835466 358.706755 
L 436.512281 353.77699 
L 436.850688 353.954539 
L 437.189096 353.344464 
L 437.527503 353.507181 
L 437.865911 348.844375 
L 438.204318 347.541958 
L 438.542725 345.718974 
L 439.557948 353.783762 
L 439.896355 353.712289 
L 440.234763 351.780632 
L 440.57317 348.509456 
L 440.911577 348.854973 
L 441.588392 353.143045 
L 442.265207 348.736853 
L 442.603615 346.489853 
L 442.942022 347.236394 
L 443.280429 346.819229 
L 443.618837 349.034416 
L 443.957244 350.270336 
L 444.295652 351.035613 
L 444.972466 343.764481 
L 445.310874 343.348917 
L 445.649281 345.66493 
L 445.987689 349.707747 
L 446.326096 351.152698 
L 446.664504 351.857101 
L 447.002911 350.836477 
L 447.679726 352.333209 
L 448.018133 352.260058 
L 448.356541 350.649559 
L 449.371763 344.222731 
L 449.71017 344.864482 
L 450.048578 346.344234 
L 450.386985 347.222068 
L 450.725393 347.106389 
L 451.0638 346.628036 
L 451.402208 347.176476 
L 451.740615 346.895874 
L 452.079022 347.521836 
L 452.41743 347.801111 
L 452.755837 348.574644 
L 453.094245 348.102791 
L 453.432652 347.030446 
L 453.771059 344.108944 
L 455.124689 325.904707 
L 455.463097 324.446229 
L 455.801504 322.300564 
L 456.139911 323.476741 
L 456.816726 324.706923 
L 457.155134 324.58693 
L 457.493541 325.759517 
L 457.831949 330.823855 
L 458.170356 332.953477 
L 458.508763 332.330384 
L 458.847171 326.005338 
L 459.185578 324.130555 
L 459.523986 325.407501 
L 459.862393 329.458261 
L 460.539208 332.779401 
L 460.877615 335.480591 
L 461.216023 335.679766 
L 461.892838 327.843586 
L 462.231245 330.171895 
L 462.90806 340.930651 
L 463.246467 341.369305 
L 463.923282 338.838776 
L 464.26169 338.515977 
L 464.600097 337.924502 
L 464.938504 338.997901 
L 465.276912 338.65418 
L 465.615319 339.819096 
L 466.968949 333.537809 
L 467.307356 335.260083 
L 467.645764 337.61722 
L 467.984171 341.342976 
L 468.322579 340.995195 
L 468.660986 337.136858 
L 468.999394 331.889212 
L 469.337801 329.323298 
L 469.676208 329.666336 
L 470.014616 329.749187 
L 470.353023 331.521563 
L 470.691431 332.64276 
L 471.029838 338.497904 
L 471.706653 342.572221 
L 472.04506 340.988325 
L 472.383468 340.177533 
L 472.721875 340.239989 
L 473.737097 343.053794 
L 474.075505 345.279364 
L 474.413912 348.25489 
L 474.75232 347.71744 
L 475.090727 346.304086 
L 475.429135 346.561638 
L 475.767542 352.488606 
L 476.105949 354.594476 
L 476.444357 354.075606 
L 477.121172 342.120823 
L 477.459579 334.957115 
L 477.797987 330.548249 
L 478.813209 345.083253 
L 479.151616 342.24552 
L 479.490024 340.456125 
L 479.828431 340.464263 
L 480.505246 344.77761 
L 480.843653 344.91513 
L 481.182061 342.467745 
L 481.520468 341.475499 
L 482.197283 342.890297 
L 483.212505 348.966417 
L 483.550913 344.696789 
L 484.227728 332.099786 
L 484.566135 330.294035 
L 485.581357 335.223996 
L 486.258172 332.367643 
L 486.59658 332.202369 
L 486.934987 333.938579 
L 487.273394 334.797384 
L 487.611802 335.193548 
L 487.950209 333.712236 
L 488.288617 332.991555 
L 488.627024 332.85183 
L 488.965431 335.917176 
L 489.303839 337.685707 
L 489.642246 338.472902 
L 490.319061 333.585919 
L 490.657469 332.001496 
L 490.995876 332.462868 
L 492.011098 337.278652 
L 492.349506 336.51232 
L 492.687913 334.575003 
L 493.026321 334.138047 
L 493.703135 337.27549 
L 494.718358 330.247428 
L 495.056765 331.95157 
L 495.395173 334.509795 
L 495.73358 338.733635 
L 496.071987 341.231532 
L 496.410395 342.177814 
L 496.748802 336.493466 
L 497.08721 327.348507 
L 497.764025 302.392535 
L 498.102432 296.188771 
L 498.779247 299.098875 
L 499.117654 301.171565 
L 499.456062 300.759728 
L 500.132876 295.900733 
L 500.471284 294.293162 
L 500.809691 294.973031 
L 501.148099 295.073663 
L 501.486506 297.274719 
L 501.824914 300.969033 
L 502.163321 302.144781 
L 502.501728 300.790936 
L 502.840136 297.568183 
L 503.178543 298.585157 
L 503.516951 301.933954 
L 503.855358 306.525424 
L 504.193766 303.865826 
L 504.532173 299.23372 
L 504.87058 292.223185 
L 505.885803 295.836325 
L 506.562618 292.934946 
L 506.901025 293.819806 
L 507.239432 296.550018 
L 507.916247 304.112955 
L 508.254655 305.530934 
L 508.593062 306.45116 
L 509.269877 300.357396 
L 509.608284 301.087152 
L 510.285099 316.429415 
L 510.623507 316.987047 
L 510.961914 313.113271 
L 511.300321 310.637976 
L 511.638729 309.702838 
L 511.977136 309.32303 
L 512.315544 307.04404 
L 512.653951 306.945087 
L 513.330766 312.285948 
L 513.669173 311.578403 
L 514.007581 306.777355 
L 514.345988 305.272484 
L 514.684396 305.1667 
L 515.022803 301.541986 
L 515.699618 291.515386 
L 516.71484 303.840531 
L 517.391655 300.2246 
L 517.730062 296.914096 
L 518.06847 297.702228 
L 518.406877 301.418148 
L 518.745285 309.657168 
L 519.083692 312.434202 
L 519.4221 310.157282 
L 519.760507 302.703896 
L 520.098914 303.557919 
L 520.437322 308.484503 
L 520.775729 317.654777 
L 521.114137 319.289067 
L 521.452544 320.353449 
L 521.790952 318.176809 
L 522.129359 316.865395 
L 522.806174 313.245482 
L 523.144581 312.305211 
L 523.482989 308.918414 
L 523.821396 303.95139 
L 524.159804 301.952847 
L 524.498211 303.673404 
L 524.836618 307.094942 
L 525.175026 306.824333 
L 525.513433 304.583735 
L 525.851841 303.309092 
L 526.190248 304.809317 
L 526.528655 308.825062 
L 526.867063 310.153378 
L 527.20547 310.801746 
L 527.543878 308.202457 
L 527.882285 310.341331 
L 528.220693 310.842635 
L 528.5591 314.562712 
L 528.897507 315.008275 
L 529.235915 316.800246 
L 529.91273 314.72859 
L 530.589545 309.368817 
L 530.927952 307.99284 
L 531.266359 310.179044 
L 531.604767 313.476705 
L 531.943174 312.577264 
L 532.281582 307.65355 
L 532.619989 304.631513 
L 532.958397 308.046084 
L 533.296804 316.259399 
L 533.635211 317.847999 
L 533.973619 315.796407 
L 534.312026 310.460777 
L 534.650434 312.828044 
L 535.327248 323.12049 
L 535.665656 324.192406 
L 536.680878 315.317899 
L 537.357693 321.567334 
L 537.6961 324.586755 
L 538.034508 323.320621 
L 538.372915 316.046054 
L 538.711323 303.04223 
L 539.04973 283.24465 
L 539.388138 272.526412 
L 539.726545 267.410353 
L 541.418582 278.762634 
L 541.75699 275.618575 
L 542.433804 265.648634 
L 542.772212 266.663559 
L 543.110619 269.893045 
L 543.449027 274.354042 
L 543.787434 275.99165 
L 544.125841 274.966205 
L 544.464249 275.769073 
L 544.802656 278.953943 
L 545.479471 290.088488 
L 545.817879 291.25034 
L 546.156286 291.189757 
L 546.494693 290.067546 
L 547.509916 295.942149 
L 547.848323 293.319048 
L 548.186731 292.132253 
L 548.525138 286.402313 
L 548.863545 283.311829 
L 549.201953 276.707568 
L 549.54036 279.463797 
L 549.878768 279.92835 
L 550.217175 282.541419 
L 550.555583 277.262565 
L 550.89399 278.2811 
L 551.232397 273.405574 
L 551.570805 274.288756 
L 551.909212 276.472969 
L 552.24762 281.742259 
L 552.586027 283.664079 
L 552.924434 276.73538 
L 553.262842 278.941999 
L 553.601249 279.642147 
L 553.939657 283.269067 
L 554.278064 281.073709 
L 554.954879 291.802546 
L 555.293286 299.573109 
L 555.631694 300.456915 
L 555.970101 299.334664 
L 556.308509 288.052393 
L 556.646916 280.640423 
L 556.985324 276.620715 
L 557.662138 295.186766 
L 558.000546 296.469958 
L 558.338953 289.730265 
L 558.677361 285.556468 
L 559.354176 235.48448 
L 559.692583 204.181115 
L 560.03099 213.972687 
L 561.046213 283.297367 
L 561.38462 295.977299 
L 561.723027 299.896356 
L 562.061435 290.784927 
L 562.399842 274.173408 
L 563.415065 173.771589 
L 563.753472 191.517558 
L 565.107102 285.269269 
L 565.445509 295.889295 
L 565.783917 292.682039 
L 566.460731 283.653364 
L 567.137546 264.286026 
L 567.475954 250.992934 
L 567.814361 261.080468 
L 568.491176 298.653975 
L 568.829583 306.569143 
L 569.167991 310.648476 
L 569.506398 296.436115 
L 569.844806 274.427154 
L 570.183213 262.151778 
L 570.52162 275.109463 
L 570.860028 296.517619 
L 571.198435 299.695014 
L 571.536843 305.617864 
L 571.87525 302.603635 
L 572.213658 306.68291 
L 572.552065 286.662187 
L 572.890472 277.954594 
L 573.22888 261.601738 
L 573.567287 270.856835 
L 573.905695 272.909793 
L 574.58251 299.972259 
L 574.920917 314.760853 
L 575.259324 315.576758 
L 575.936139 257.379011 
L 576.274547 246.962551 
L 576.612954 269.572335 
L 576.951362 283.625981 
L 577.289769 286.413282 
L 577.628176 280.56897 
L 578.304991 304.666137 
L 578.643399 302.660411 
L 578.981806 289.403329 
L 579.320213 264.30568 
L 579.997028 251.807611 
L 580.335436 263.718948 
L 581.012251 261.584544 
L 581.350658 267.029627 
L 582.027473 304.351302 
L 582.36588 304.413718 
L 582.704288 303.176373 
L 583.381103 314.878367 
L 583.71951 305.534974 
L 584.396325 238.153349 
L 584.734732 219.499138 
L 585.411547 266.07747 
L 585.749955 289.00859 
L 586.088362 295.695156 
L 586.426769 298.370407 
L 586.765177 301.946035 
L 587.441992 252.568692 
L 587.780399 228.374172 
L 588.118806 257.528104 
L 588.457214 269.252933 
L 588.795621 271.144209 
L 589.472436 187.663299 
L 589.810844 167.49159 
L 590.149251 192.757401 
L 590.826066 267.340403 
L 591.164473 289.942946 
L 591.502881 302.992636 
L 591.841288 281.242594 
L 592.518103 215.587225 
L 592.85651 199.521608 
L 593.533325 136.962891 
L 593.871733 155.171754 
L 594.21014 184.150107 
L 594.548548 239.549664 
L 594.886955 247.577583 
L 595.56377 267.048871 
L 595.902177 270.890795 
L 596.240585 268.421921 
L 596.578992 227.909482 
L 596.917399 201.574566 
L 597.255807 188.911086 
L 597.932622 244.842648 
L 598.271029 254.822406 
L 598.609437 258.741404 
L 598.947844 252.925333 
L 599.963066 309.860149 
L 600.301474 305.392399 
L 601.316696 219.335621 
L 601.655103 218.572061 
L 601.993511 230.031649 
L 602.670326 279.333479 
L 603.008733 289.568193 
L 603.347141 306.094928 
L 603.685548 302.469121 
L 604.023955 295.20968 
L 604.70077 239.087062 
L 605.039178 231.621888 
L 605.715992 248.856247 
L 606.0544 252.916843 
L 606.392807 279.201619 
L 607.069622 305.030995 
L 607.40803 297.964308 
L 608.084844 269.535643 
L 608.423252 227.838048 
L 608.761659 213.09454 
L 609.100067 186.65099 
L 609.438474 216.054491 
L 609.776882 225.368042 
L 610.115289 242.766074 
L 610.792104 188.233793 
L 611.130511 176.768741 
L 611.468919 178.573516 
L 611.807326 204.100665 
L 612.145734 220.020917 
L 612.484141 257.290187 
L 612.822548 269.323293 
L 613.160956 262.375135 
L 614.176178 117.931623 
L 614.514585 99.802469 
L 615.1914 155.125907 
L 615.529808 171.957739 
L 615.868215 159.107419 
L 616.206623 163.686711 
L 616.883437 94.424994 
L 617.221845 66.96 
L 617.560252 114.186759 
L 617.89866 113.989223 
L 618.575475 132.592162 
L 619.252289 279.248207 
L 619.590697 313.835083 
L 619.929104 274.989431 
L 620.605919 146.661032 
L 621.621141 220.160973 
L 621.959549 203.082442 
L 622.297956 165.736331 
L 622.636364 91.322428 
L 622.636364 91.322428 
" clip-path="url(#p5653f93479)" style="fill: none; stroke: #ff0000; stroke-opacity: 0.1; stroke-width: 2; stroke-linecap: square"/>
   </g>
   <g id="patch_3">
    <path d="M 90 384.48 
L 90 51.84 
" style="fill: none; stroke: #000000; stroke-width: 0.8; stroke-linejoin: miter; stroke-linecap: square"/>
   </g>
   <g id="patch_4">
    <path d="M 648 384.48 
L 648 51.84 
" style="fill: none; stroke: #000000; stroke-width: 0.8; stroke-linejoin: miter; stroke-linecap: square"/>
   </g>
   <g id="patch_5">
    <path d="M 90 384.48 
L 648 384.48 
" style="fill: none; stroke: #000000; stroke-width: 0.8; stroke-linejoin: miter; stroke-linecap: square"/>
   </g>
   <g id="patch_6">
    <path d="M 90 51.84 
L 648 51.84 
" style="fill: none; stroke: #000000; stroke-width: 0.8; stroke-linejoin: miter; stroke-linecap: square"/>
   </g>
   <g id="text_18">
    <!-- two_action_scale_mid -->
    <g transform="translate(292.957031 45.84) scale(0.14 -0.14)">
     <defs>
      <path id="DejaVuSans-6f" d="M 1959 3097 
Q 1497 3097 1228 2736 
Q 959 2375 959 1747 
Q 959 1119 1226 758 
Q 1494 397 1959 397 
Q 2419 397 2687 759 
Q 2956 1122 2956 1747 
Q 2956 2369 2687 2733 
Q 2419 3097 1959 3097 
z
M 1959 3584 
Q 2709 3584 3137 3096 
Q 3566 2609 3566 1747 
Q 3566 888 3137 398 
Q 2709 -91 1959 -91 
Q 1206 -91 779 398 
Q 353 888 353 1747 
Q 353 2609 779 3096 
Q 1206 3584 1959 3584 
z
" transform="scale(0.015625)"/>
      <path id="DejaVuSans-5f" d="M 3263 -1063 
L 3263 -1509 
L -63 -1509 
L -63 -1063 
L 3263 -1063 
z
" transform="scale(0.015625)"/>
      <path id="DejaVuSans-63" d="M 3122 3366 
L 3122 2828 
Q 2878 2963 2633 3030 
Q 2388 3097 2138 3097 
Q 1578 3097 1268 2742 
Q 959 2388 959 1747 
Q 959 1106 1268 751 
Q 1578 397 2138 397 
Q 2388 397 2633 464 
Q 2878 531 3122 666 
L 3122 134 
Q 2881 22 2623 -34 
Q 2366 -91 2075 -91 
Q 1284 -91 818 406 
Q 353 903 353 1747 
Q 353 2603 823 3093 
Q 1294 3584 2113 3584 
Q 2378 3584 2631 3529 
Q 2884 3475 3122 3366 
z
" transform="scale(0.015625)"/>
      <path id="DejaVuSans-6e" d="M 3513 2113 
L 3513 0 
L 2938 0 
L 2938 2094 
Q 2938 2591 2744 2837 
Q 2550 3084 2163 3084 
Q 1697 3084 1428 2787 
Q 1159 2491 1159 1978 
L 1159 0 
L 581 0 
L 581 3500 
L 1159 3500 
L 1159 2956 
Q 1366 3272 1645 3428 
Q 1925 3584 2291 3584 
Q 2894 3584 3203 3211 
Q 3513 2838 3513 2113 
z
" transform="scale(0.015625)"/>
      <path id="DejaVuSans-6c" d="M 603 4863 
L 1178 4863 
L 1178 0 
L 603 0 
L 603 4863 
z
" transform="scale(0.015625)"/>
     </defs>
     <use xlink:href="#DejaVuSans-74"/>
     <use xlink:href="#DejaVuSans-77" x="39.208984"/>
     <use xlink:href="#DejaVuSans-6f" x="120.996094"/>
     <use xlink:href="#DejaVuSans-5f" x="182.177734"/>
     <use xlink:href="#DejaVuSans-61" x="232.177734"/>
     <use xlink:href="#DejaVuSans-63" x="293.457031"/>
     <use xlink:href="#DejaVuSans-74" x="348.4375"/>
     <use xlink:href="#DejaVuSans-69" x="387.646484"/>
     <use xlink:href="#DejaVuSans-6f" x="415.429688"/>
     <use xlink:href="#DejaVuSans-6e" x="476.611328"/>
     <use xlink:href="#DejaVuSans-5f" x="539.990234"/>
     <use xlink:href="#DejaVuSans-73" x="589.990234"/>
     <use xlink:href="#DejaVuSans-63" x="642.089844"/>
     <use xlink:href="#DejaVuSans-61" x="697.070312"/>
     <use xlink:href="#DejaVuSans-6c" x="758.349609"/>
     <use xlink:href="#DejaVuSans-65" x="786.132812"/>
     <use xlink:href="#DejaVuSans-5f" x="847.65625"/>
     <use xlink:href="#DejaVuSans-6d" x="897.65625"/>
     <use xlink:href="#DejaVuSans-69" x="995.068359"/>
     <use xlink:href="#DejaVuSans-64" x="1022.851562"/>
    </g>
   </g>
   <g id="legend_1">
    <g id="patch_7">
     <path d="M 97 74.79625 
L 225.382812 74.79625 
Q 227.382812 74.79625 227.382812 72.79625 
L 227.382812 58.84 
Q 227.382812 56.84 225.382812 56.84 
L 97 56.84 
Q 95 56.84 95 58.84 
L 95 72.79625 
Q 95 74.79625 97 74.79625 
z
" style="fill: #ffffff; opacity: 0.8; stroke: #cccccc; stroke-linejoin: miter"/>
    </g>
    <g id="line2d_31">
     <path d="M 99 64.938437 
L 109 64.938437 
L 119 64.938437 
" style="fill: none; stroke: #ff0000; stroke-width: 1.5; stroke-linecap: square"/>
    </g>
    <g id="text_19">
     <!-- reward_avg_2_runs -->
     <g transform="translate(127 68.438437) scale(0.1 -0.1)">
      <defs>
       <path id="DejaVuSans-76" d="M 191 3500 
L 800 3500 
L 1894 563 
L 2988 3500 
L 3597 3500 
L 2284 0 
L 1503 0 
L 191 3500 
z
" transform="scale(0.015625)"/>
       <path id="DejaVuSans-67" d="M 2906 1791 
Q 2906 2416 2648 2759 
Q 2391 3103 1925 3103 
Q 1463 3103 1205 2759 
Q 947 2416 947 1791 
Q 947 1169 1205 825 
Q 1463 481 1925 481 
Q 2391 481 2648 825 
Q 2906 1169 2906 1791 
z
M 3481 434 
Q 3481 -459 3084 -895 
Q 2688 -1331 1869 -1331 
Q 1566 -1331 1297 -1286 
Q 1028 -1241 775 -1147 
L 775 -588 
Q 1028 -725 1275 -790 
Q 1522 -856 1778 -856 
Q 2344 -856 2625 -561 
Q 2906 -266 2906 331 
L 2906 616 
Q 2728 306 2450 153 
Q 2172 0 1784 0 
Q 1141 0 747 490 
Q 353 981 353 1791 
Q 353 2603 747 3093 
Q 1141 3584 1784 3584 
Q 2172 3584 2450 3431 
Q 2728 3278 2906 2969 
L 2906 3500 
L 3481 3500 
L 3481 434 
z
" transform="scale(0.015625)"/>
       <path id="DejaVuSans-75" d="M 544 1381 
L 544 3500 
L 1119 3500 
L 1119 1403 
Q 1119 906 1312 657 
Q 1506 409 1894 409 
Q 2359 409 2629 706 
Q 2900 1003 2900 1516 
L 2900 3500 
L 3475 3500 
L 3475 0 
L 2900 0 
L 2900 538 
Q 2691 219 2414 64 
Q 2138 -91 1772 -91 
Q 1169 -91 856 284 
Q 544 659 544 1381 
z
M 1991 3584 
L 1991 3584 
z
" transform="scale(0.015625)"/>
      </defs>
      <use xlink:href="#DejaVuSans-72"/>
      <use xlink:href="#DejaVuSans-65" x="38.863281"/>
      <use xlink:href="#DejaVuSans-77" x="100.386719"/>
      <use xlink:href="#DejaVuSans-61" x="182.173828"/>
      <use xlink:href="#DejaVuSans-72" x="243.453125"/>
      <use xlink:href="#DejaVuSans-64" x="282.816406"/>
      <use xlink:href="#DejaVuSans-5f" x="346.292969"/>
      <use xlink:href="#DejaVuSans-61" x="396.292969"/>
      <use xlink:href="#DejaVuSans-76" x="457.572266"/>
      <use xlink:href="#DejaVuSans-67" x="516.751953"/>
      <use xlink:href="#DejaVuSans-5f" x="580.228516"/>
      <use xlink:href="#DejaVuSans-32" x="630.228516"/>
      <use xlink:href="#DejaVuSans-5f" x="693.851562"/>
      <use xlink:href="#DejaVuSans-72" x="743.851562"/>
      <use xlink:href="#DejaVuSans-75" x="784.964844"/>
      <use xlink:href="#DejaVuSans-6e" x="848.34375"/>
      <use xlink:href="#DejaVuSans-73" x="911.722656"/>
     </g>
    </g>
   </g>
  </g>
 </g>
 <defs>
  <clipPath id="p5653f93479">
   <rect x="90" y="51.84" width="558" height="332.64"/>
  </clipPath>
 </defs>
</svg>
