<?xml version="1.0" encoding="utf-8" standalone="no"?>
<!DOCTYPE svg PUBLIC "-//W3C//DTD SVG 1.1//EN"
  "http://www.w3.org/Graphics/SVG/1.1/DTD/svg11.dtd">
<svg xmlns:xlink="http://www.w3.org/1999/xlink" width="460.8pt" height="345.6pt" viewBox="0 0 460.8 345.6" xmlns="http://www.w3.org/2000/svg" version="1.1">
 <metadata>
  <rdf:RDF xmlns:dc="http://purl.org/dc/elements/1.1/" xmlns:cc="http://creativecommons.org/ns#" xmlns:rdf="http://www.w3.org/1999/02/22-rdf-syntax-ns#">
   <cc:Work>
    <dc:type rdf:resource="http://purl.org/dc/dcmitype/StillImage"/>
    <dc:date>2024-04-30T18:20:16.141425</dc:date>
    <dc:format>image/svg+xml</dc:format>
    <dc:creator>
     <cc:Agent>
      <dc:title>Matplotlib v3.7.2, https://matplotlib.org/</dc:title>
     </cc:Agent>
    </dc:creator>
   </cc:Work>
  </rdf:RDF>
 </metadata>
 <defs>
  <style type="text/css">*{stroke-linejoin: round; stroke-linecap: butt}</style>
 </defs>
 <g id="figure_1">
  <g id="patch_1">
   <path d="M 0 345.6 
L 460.8 345.6 
L 460.8 0 
L 0 0 
z
" style="fill: #ffffff"/>
  </g>
  <g id="axes_1">
   <g id="patch_2">
    <path d="M 57.6 307.584 
L 414.72 307.584 
L 414.72 41.472 
L 57.6 41.472 
z
" style="fill: #ffffff"/>
   </g>
   <g id="matplotlib.axis_1">
    <g id="xtick_1">
     <g id="line2d_1">
      <defs>
       <path id="m36c71fe85d" d="M 0 0 
L 0 3.5 
" style="stroke: #000000; stroke-width: 0.8"/>
      </defs>
      <g>
       <use xlink:href="#m36c71fe85d" x="73.832727" y="307.584" style="stroke: #000000; stroke-width: 0.8"/>
      </g>
     </g>
     <g id="text_1">
      <!-- 0 -->
      <g transform="translate(70.651477 322.182437) scale(0.1 -0.1)">
       <defs>
        <path id="DejaVuSans-30" d="M 2034 4250 
Q 1547 4250 1301 3770 
Q 1056 3291 1056 2328 
Q 1056 1369 1301 889 
Q 1547 409 2034 409 
Q 2525 409 2770 889 
Q 3016 1369 3016 2328 
Q 3016 3291 2770 3770 
Q 2525 4250 2034 4250 
z
M 2034 4750 
Q 2819 4750 3233 4129 
Q 3647 3509 3647 2328 
Q 3647 1150 3233 529 
Q 2819 -91 2034 -91 
Q 1250 -91 836 529 
Q 422 1150 422 2328 
Q 422 3509 836 4129 
Q 1250 4750 2034 4750 
z
" transform="scale(0.015625)"/>
       </defs>
       <use xlink:href="#DejaVuSans-30"/>
      </g>
     </g>
    </g>
    <g id="xtick_2">
     <g id="line2d_2">
      <g>
       <use xlink:href="#m36c71fe85d" x="127.941818" y="307.584" style="stroke: #000000; stroke-width: 0.8"/>
      </g>
     </g>
     <g id="text_2">
      <!-- 50 -->
      <g transform="translate(121.579318 322.182437) scale(0.1 -0.1)">
       <defs>
        <path id="DejaVuSans-35" d="M 691 4666 
L 3169 4666 
L 3169 4134 
L 1269 4134 
L 1269 2991 
Q 1406 3038 1543 3061 
Q 1681 3084 1819 3084 
Q 2600 3084 3056 2656 
Q 3513 2228 3513 1497 
Q 3513 744 3044 326 
Q 2575 -91 1722 -91 
Q 1428 -91 1123 -41 
Q 819 9 494 109 
L 494 744 
Q 775 591 1075 516 
Q 1375 441 1709 441 
Q 2250 441 2565 725 
Q 2881 1009 2881 1497 
Q 2881 1984 2565 2268 
Q 2250 2553 1709 2553 
Q 1456 2553 1204 2497 
Q 953 2441 691 2322 
L 691 4666 
z
" transform="scale(0.015625)"/>
       </defs>
       <use xlink:href="#DejaVuSans-35"/>
       <use xlink:href="#DejaVuSans-30" x="63.623047"/>
      </g>
     </g>
    </g>
    <g id="xtick_3">
     <g id="line2d_3">
      <g>
       <use xlink:href="#m36c71fe85d" x="182.050909" y="307.584" style="stroke: #000000; stroke-width: 0.8"/>
      </g>
     </g>
     <g id="text_3">
      <!-- 100 -->
      <g transform="translate(172.507159 322.182437) scale(0.1 -0.1)">
       <defs>
        <path id="DejaVuSans-31" d="M 794 531 
L 1825 531 
L 1825 4091 
L 703 3866 
L 703 4441 
L 1819 4666 
L 2450 4666 
L 2450 531 
L 3481 531 
L 3481 0 
L 794 0 
L 794 531 
z
" transform="scale(0.015625)"/>
       </defs>
       <use xlink:href="#DejaVuSans-31"/>
       <use xlink:href="#DejaVuSans-30" x="63.623047"/>
       <use xlink:href="#DejaVuSans-30" x="127.246094"/>
      </g>
     </g>
    </g>
    <g id="xtick_4">
     <g id="line2d_4">
      <g>
       <use xlink:href="#m36c71fe85d" x="236.16" y="307.584" style="stroke: #000000; stroke-width: 0.8"/>
      </g>
     </g>
     <g id="text_4">
      <!-- 150 -->
      <g transform="translate(226.61625 322.182437) scale(0.1 -0.1)">
       <use xlink:href="#DejaVuSans-31"/>
       <use xlink:href="#DejaVuSans-35" x="63.623047"/>
       <use xlink:href="#DejaVuSans-30" x="127.246094"/>
      </g>
     </g>
    </g>
    <g id="xtick_5">
     <g id="line2d_5">
      <g>
       <use xlink:href="#m36c71fe85d" x="290.269091" y="307.584" style="stroke: #000000; stroke-width: 0.8"/>
      </g>
     </g>
     <g id="text_5">
      <!-- 200 -->
      <g transform="translate(280.725341 322.182437) scale(0.1 -0.1)">
       <defs>
        <path id="DejaVuSans-32" d="M 1228 531 
L 3431 531 
L 3431 0 
L 469 0 
L 469 531 
Q 828 903 1448 1529 
Q 2069 2156 2228 2338 
Q 2531 2678 2651 2914 
Q 2772 3150 2772 3378 
Q 2772 3750 2511 3984 
Q 2250 4219 1831 4219 
Q 1534 4219 1204 4116 
Q 875 4013 500 3803 
L 500 4441 
Q 881 4594 1212 4672 
Q 1544 4750 1819 4750 
Q 2544 4750 2975 4387 
Q 3406 4025 3406 3419 
Q 3406 3131 3298 2873 
Q 3191 2616 2906 2266 
Q 2828 2175 2409 1742 
Q 1991 1309 1228 531 
z
" transform="scale(0.015625)"/>
       </defs>
       <use xlink:href="#DejaVuSans-32"/>
       <use xlink:href="#DejaVuSans-30" x="63.623047"/>
       <use xlink:href="#DejaVuSans-30" x="127.246094"/>
      </g>
     </g>
    </g>
    <g id="xtick_6">
     <g id="line2d_6">
      <g>
       <use xlink:href="#m36c71fe85d" x="344.378182" y="307.584" style="stroke: #000000; stroke-width: 0.8"/>
      </g>
     </g>
     <g id="text_6">
      <!-- 250 -->
      <g transform="translate(334.834432 322.182437) scale(0.1 -0.1)">
       <use xlink:href="#DejaVuSans-32"/>
       <use xlink:href="#DejaVuSans-35" x="63.623047"/>
       <use xlink:href="#DejaVuSans-30" x="127.246094"/>
      </g>
     </g>
    </g>
    <g id="xtick_7">
     <g id="line2d_7">
      <g>
       <use xlink:href="#m36c71fe85d" x="398.487273" y="307.584" style="stroke: #000000; stroke-width: 0.8"/>
      </g>
     </g>
     <g id="text_7">
      <!-- 300 -->
      <g transform="translate(388.943523 322.182437) scale(0.1 -0.1)">
       <defs>
        <path id="DejaVuSans-33" d="M 2597 2516 
Q 3050 2419 3304 2112 
Q 3559 1806 3559 1356 
Q 3559 666 3084 287 
Q 2609 -91 1734 -91 
Q 1441 -91 1130 -33 
Q 819 25 488 141 
L 488 750 
Q 750 597 1062 519 
Q 1375 441 1716 441 
Q 2309 441 2620 675 
Q 2931 909 2931 1356 
Q 2931 1769 2642 2001 
Q 2353 2234 1838 2234 
L 1294 2234 
L 1294 2753 
L 1863 2753 
Q 2328 2753 2575 2939 
Q 2822 3125 2822 3475 
Q 2822 3834 2567 4026 
Q 2313 4219 1838 4219 
Q 1578 4219 1281 4162 
Q 984 4106 628 3988 
L 628 4550 
Q 988 4650 1302 4700 
Q 1616 4750 1894 4750 
Q 2613 4750 3031 4423 
Q 3450 4097 3450 3541 
Q 3450 3153 3228 2886 
Q 3006 2619 2597 2516 
z
" transform="scale(0.015625)"/>
       </defs>
       <use xlink:href="#DejaVuSans-33"/>
       <use xlink:href="#DejaVuSans-30" x="63.623047"/>
       <use xlink:href="#DejaVuSans-30" x="127.246094"/>
      </g>
     </g>
    </g>
   </g>
   <g id="matplotlib.axis_2">
    <g id="ytick_1">
     <g id="line2d_8">
      <defs>
       <path id="m820164b5f0" d="M 0 0 
L -3.5 0 
" style="stroke: #000000; stroke-width: 0.8"/>
      </defs>
      <g>
       <use xlink:href="#m820164b5f0" x="57.6" y="306.333898" style="stroke: #000000; stroke-width: 0.8"/>
      </g>
     </g>
     <g id="text_8">
      <!-- −25 -->
      <g transform="translate(29.495313 310.133116) scale(0.1 -0.1)">
       <defs>
        <path id="DejaVuSans-2212" d="M 678 2272 
L 4684 2272 
L 4684 1741 
L 678 1741 
L 678 2272 
z
" transform="scale(0.015625)"/>
       </defs>
       <use xlink:href="#DejaVuSans-2212"/>
       <use xlink:href="#DejaVuSans-32" x="83.789062"/>
       <use xlink:href="#DejaVuSans-35" x="147.412109"/>
      </g>
     </g>
    </g>
    <g id="ytick_2">
     <g id="line2d_9">
      <g>
       <use xlink:href="#m820164b5f0" x="57.6" y="270.021482" style="stroke: #000000; stroke-width: 0.8"/>
      </g>
     </g>
     <g id="text_9">
      <!-- 0 -->
      <g transform="translate(44.2375 273.820701) scale(0.1 -0.1)">
       <use xlink:href="#DejaVuSans-30"/>
      </g>
     </g>
    </g>
    <g id="ytick_3">
     <g id="line2d_10">
      <g>
       <use xlink:href="#m820164b5f0" x="57.6" y="233.709067" style="stroke: #000000; stroke-width: 0.8"/>
      </g>
     </g>
     <g id="text_10">
      <!-- 25 -->
      <g transform="translate(37.875 237.508286) scale(0.1 -0.1)">
       <use xlink:href="#DejaVuSans-32"/>
       <use xlink:href="#DejaVuSans-35" x="63.623047"/>
      </g>
     </g>
    </g>
    <g id="ytick_4">
     <g id="line2d_11">
      <g>
       <use xlink:href="#m820164b5f0" x="57.6" y="197.396652" style="stroke: #000000; stroke-width: 0.8"/>
      </g>
     </g>
     <g id="text_11">
      <!-- 50 -->
      <g transform="translate(37.875 201.195871) scale(0.1 -0.1)">
       <use xlink:href="#DejaVuSans-35"/>
       <use xlink:href="#DejaVuSans-30" x="63.623047"/>
      </g>
     </g>
    </g>
    <g id="ytick_5">
     <g id="line2d_12">
      <g>
       <use xlink:href="#m820164b5f0" x="57.6" y="161.084237" style="stroke: #000000; stroke-width: 0.8"/>
      </g>
     </g>
     <g id="text_12">
      <!-- 75 -->
      <g transform="translate(37.875 164.883456) scale(0.1 -0.1)">
       <defs>
        <path id="DejaVuSans-37" d="M 525 4666 
L 3525 4666 
L 3525 4397 
L 1831 0 
L 1172 0 
L 2766 4134 
L 525 4134 
L 525 4666 
z
" transform="scale(0.015625)"/>
       </defs>
       <use xlink:href="#DejaVuSans-37"/>
       <use xlink:href="#DejaVuSans-35" x="63.623047"/>
      </g>
     </g>
    </g>
    <g id="ytick_6">
     <g id="line2d_13">
      <g>
       <use xlink:href="#m820164b5f0" x="57.6" y="124.771822" style="stroke: #000000; stroke-width: 0.8"/>
      </g>
     </g>
     <g id="text_13">
      <!-- 100 -->
      <g transform="translate(31.5125 128.571041) scale(0.1 -0.1)">
       <use xlink:href="#DejaVuSans-31"/>
       <use xlink:href="#DejaVuSans-30" x="63.623047"/>
       <use xlink:href="#DejaVuSans-30" x="127.246094"/>
      </g>
     </g>
    </g>
    <g id="ytick_7">
     <g id="line2d_14">
      <g>
       <use xlink:href="#m820164b5f0" x="57.6" y="88.459407" style="stroke: #000000; stroke-width: 0.8"/>
      </g>
     </g>
     <g id="text_14">
      <!-- 125 -->
      <g transform="translate(31.5125 92.258626) scale(0.1 -0.1)">
       <use xlink:href="#DejaVuSans-31"/>
       <use xlink:href="#DejaVuSans-32" x="63.623047"/>
       <use xlink:href="#DejaVuSans-35" x="127.246094"/>
      </g>
     </g>
    </g>
    <g id="ytick_8">
     <g id="line2d_15">
      <g>
       <use xlink:href="#m820164b5f0" x="57.6" y="52.146992" style="stroke: #000000; stroke-width: 0.8"/>
      </g>
     </g>
     <g id="text_15">
      <!-- 150 -->
      <g transform="translate(31.5125 55.946211) scale(0.1 -0.1)">
       <use xlink:href="#DejaVuSans-31"/>
       <use xlink:href="#DejaVuSans-35" x="63.623047"/>
       <use xlink:href="#DejaVuSans-30" x="127.246094"/>
      </g>
     </g>
    </g>
   </g>
   <g id="line2d_16">
    <path d="M 73.832727 270.021482 
L 74.914909 129.056836 
L 75.997091 128.790231 
L 77.079273 217.822956 
L 78.161455 118.983751 
L 79.243636 132.659469 
L 80.325818 53.568 
L 81.408 130.292174 
L 82.490182 270.021482 
L 83.572364 143.232805 
L 84.654545 272.40084 
L 85.736727 270.021482 
L 86.818909 270.021482 
L 87.901091 284.197451 
L 88.983273 284.81638 
L 90.065455 295.488 
L 91.147636 184.047323 
L 92.229818 130.292174 
L 93.312 270.021482 
L 94.394182 270.021482 
L 95.476364 270.021482 
L 96.558545 270.021482 
L 97.640727 104.591022 
L 98.722909 284.197451 
L 99.805091 270.021482 
L 100.887273 129.056836 
L 101.969455 270.021482 
L 103.051636 143.896045 
L 104.133818 270.021482 
L 105.216 270.021482 
L 106.298182 121.497968 
L 107.380364 270.021482 
L 108.462545 217.822956 
L 109.544727 291.41098 
L 110.626909 270.021482 
L 111.709091 91.778018 
L 112.791273 270.021482 
L 113.873455 143.851734 
L 114.955636 78.95385 
L 116.037818 284.197451 
L 117.12 272.40084 
L 118.202182 153.423105 
L 119.284364 264.580839 
L 120.366545 129.056836 
L 121.448727 270.021482 
L 122.530909 270.021482 
L 123.613091 237.936192 
L 124.695273 270.021482 
L 125.777455 270.021482 
L 126.859636 140.466462 
L 127.941818 270.021482 
L 129.024 284.197451 
L 130.106182 128.477824 
L 131.188364 61.637093 
L 132.270545 137.74555 
L 133.352727 270.021482 
L 134.434909 85.688113 
L 135.517091 143.232805 
L 136.599273 155.616953 
L 137.681455 149.58355 
L 138.763636 123.616193 
L 139.845818 142.14306 
L 140.928 129.056836 
L 142.010182 223.2636 
L 143.092364 143.851734 
L 144.174545 123.616193 
L 145.256727 100.831168 
L 146.338909 141.471497 
L 147.421091 129.056836 
L 148.503273 270.021482 
L 149.585455 270.021482 
L 150.667636 121.091738 
L 151.749818 109.904549 
L 152.832 85.688113 
L 153.914182 99.864081 
L 154.996364 270.021482 
L 156.078545 178.263107 
L 157.160727 264.580839 
L 158.242909 284.197451 
L 159.325091 106.368224 
L 160.407273 270.021482 
L 161.489455 129.056836 
L 162.571636 272.40084 
L 163.653818 270.021482 
L 164.736 270.021482 
L 165.818182 270.021482 
L 166.900364 284.197451 
L 167.982545 270.021482 
L 169.064727 160.425865 
L 170.146909 140.410603 
L 171.229091 270.021482 
L 172.311273 270.021482 
L 173.393455 135.244103 
L 174.475636 143.851734 
L 175.557818 270.021482 
L 176.64 270.021482 
L 177.722182 270.021482 
L 178.804364 130.14009 
L 179.886545 107.762301 
L 180.968727 96.975518 
L 182.050909 105.93048 
" clip-path="url(#p494fcf4e90)" style="fill: none; stroke: #1f77b4; stroke-width: 1.5; stroke-linecap: square"/>
   </g>
   <g id="line2d_17">
    <path d="M 73.832727 270.021482 
L 74.914909 129.056836 
L 75.997091 128.790231 
L 77.079273 217.822956 
L 78.161455 118.983751 
L 79.243636 132.659469 
L 80.325818 53.568 
L 81.408 130.292174 
L 82.490182 270.021482 
L 83.572364 143.232805 
L 84.654545 272.40084 
L 85.736727 270.021482 
L 86.818909 270.021482 
L 87.901091 284.197451 
L 88.983273 284.81638 
L 90.065455 295.488 
L 91.147636 184.047323 
L 92.229818 130.292174 
L 93.312 270.021482 
L 96.558545 270.021482 
L 97.640727 104.591022 
L 98.722909 284.197451 
L 99.805091 270.021482 
L 100.887273 129.056836 
L 101.969455 270.021482 
L 103.051636 143.896045 
L 104.133818 270.021482 
L 105.216 270.021482 
L 106.298182 121.497968 
L 107.380364 270.021482 
L 108.462545 217.822956 
L 109.544727 291.41098 
L 110.626909 270.021482 
L 111.709091 91.778018 
L 112.791273 270.021482 
L 113.873455 143.851734 
L 114.955636 78.95385 
L 116.037818 284.197451 
L 117.12 272.40084 
L 118.202182 153.423105 
L 119.284364 264.580839 
L 120.366545 129.056836 
L 121.448727 270.021482 
L 122.530909 270.021482 
L 123.613091 237.936192 
L 124.695273 270.021482 
L 125.777455 270.021482 
L 126.859636 140.466462 
L 127.941818 270.021482 
L 129.024 284.197451 
L 130.106182 128.477824 
L 131.188364 61.637093 
L 132.270545 137.74555 
L 133.352727 270.021482 
L 134.434909 85.688113 
L 135.517091 143.232805 
L 136.599273 155.616953 
L 137.681455 149.58355 
L 138.763636 123.616193 
L 139.845818 142.14306 
L 140.928 129.056836 
L 142.010182 223.2636 
L 143.092364 143.851734 
L 144.174545 123.616193 
L 145.256727 100.831168 
L 146.338909 141.471497 
L 147.421091 129.056836 
L 148.503273 270.021482 
L 149.585455 270.021482 
L 150.667636 121.091738 
L 151.749818 109.904549 
L 152.832 85.688113 
L 153.914182 99.864081 
L 154.996364 270.021482 
L 156.078545 178.263107 
L 157.160727 264.580839 
L 158.242909 284.197451 
L 159.325091 106.368224 
L 160.407273 270.021482 
L 161.489455 129.056836 
L 162.571636 272.40084 
L 163.653818 270.021482 
L 165.818182 270.021482 
L 166.900364 284.197451 
L 167.982545 270.021482 
L 169.064727 160.425865 
L 170.146909 140.410603 
L 171.229091 270.021482 
L 172.311273 270.021482 
L 173.393455 135.244103 
L 174.475636 143.851734 
L 175.557818 270.021482 
L 177.722182 270.021482 
L 178.804364 130.14009 
L 179.886545 107.762301 
L 180.968727 96.975518 
L 182.050909 105.93048 
L 183.133091 105.93048 
L 184.215273 97.594446 
L 185.297455 97.594446 
L 186.379636 82.799549 
L 187.461818 135.042229 
L 188.544 97.594446 
L 189.626182 135.042229 
L 190.708364 141.071746 
L 191.790545 82.799549 
L 192.872727 120.247332 
L 193.954909 141.071746 
L 195.037091 141.071746 
L 196.119273 120.247332 
L 197.201455 141.071746 
L 198.283636 120.247332 
L 199.365818 120.247332 
L 200.448 141.071746 
L 201.530182 120.247332 
L 202.612364 135.042229 
L 203.694545 82.799549 
L 204.776727 135.042229 
L 210.187636 135.042229 
L 211.269818 143.378263 
L 212.352 120.953407 
L 213.434182 143.378263 
L 217.762909 143.378263 
L 218.845091 270.021482 
L 219.927273 144.084337 
L 221.009455 143.378263 
L 222.091636 144.084337 
L 223.173818 144.084337 
L 224.256 137.866528 
L 225.338182 97.972701 
L 226.420364 143.378263 
L 227.502545 144.084337 
L 228.584727 143.378263 
L 229.666909 143.378263 
L 230.749091 144.084337 
L 231.831273 270.021482 
L 232.913455 135.748304 
L 233.995636 144.084337 
L 235.077818 135.042229 
L 236.16 135.042229 
L 237.242182 135.748304 
L 238.324364 135.042229 
L 239.406545 143.378263 
L 240.488727 105.93048 
L 241.570909 143.378263 
L 242.653091 135.042229 
L 243.735273 143.378263 
L 245.899636 143.378263 
L 246.981818 97.594446 
L 248.064 135.042229 
L 249.146182 135.042229 
L 250.228364 164.202676 
L 251.310545 135.042229 
L 252.392727 270.021482 
L 253.474909 99.864081 
L 254.557091 84.104598 
L 255.639273 86.030384 
L 256.721455 85.273875 
L 257.803636 73.368445 
L 258.885818 85.273875 
L 259.968 100.431463 
L 261.050182 82.04304 
L 262.132364 85.273875 
L 263.214545 87.544413 
L 264.296727 91.036173 
L 265.378909 87.544413 
L 266.461091 96.975518 
L 267.543273 96.786391 
L 268.625455 73.368445 
L 269.707636 101.050392 
L 270.789818 92.019635 
L 271.872 82.04304 
L 272.954182 85.273875 
L 274.036364 122.993216 
L 275.118545 73.368445 
L 276.200727 73.368445 
L 277.282909 82.04304 
L 278.365091 83.340747 
L 279.447273 96.975518 
L 280.529455 101.050392 
L 281.611636 87.544413 
L 282.693818 96.975518 
L 283.776 97.255884 
L 284.858182 72.862392 
L 285.940364 96.786391 
L 287.022545 82.801913 
L 288.104727 96.786391 
L 289.186909 82.801913 
L 290.269091 105.741353 
L 290.269091 105.741353 
" clip-path="url(#p494fcf4e90)" style="fill: none; stroke: #ff7f0e; stroke-width: 1.5; stroke-linecap: square"/>
   </g>
   <g id="line2d_18">
    <path d="M 73.832727 270.021482 
L 74.914909 129.056836 
L 75.997091 128.790231 
L 77.079273 217.822956 
L 78.161455 118.983751 
L 79.243636 132.659469 
L 80.325818 53.568 
L 81.408 130.292174 
L 82.490182 270.021482 
L 83.572364 143.232805 
L 84.654545 272.40084 
L 85.736727 270.021482 
L 86.818909 270.021482 
L 87.901091 284.197451 
L 88.983273 284.81638 
L 90.065455 295.488 
L 91.147636 184.047323 
L 92.229818 130.292174 
L 93.312 270.021482 
L 96.558545 270.021482 
L 97.640727 104.591022 
L 98.722909 284.197451 
L 99.805091 270.021482 
L 100.887273 129.056836 
L 101.969455 270.021482 
L 103.051636 143.896045 
L 104.133818 270.021482 
L 105.216 270.021482 
L 106.298182 121.497968 
L 107.380364 270.021482 
L 108.462545 217.822956 
L 109.544727 291.41098 
L 110.626909 270.021482 
L 111.709091 91.778018 
L 112.791273 270.021482 
L 113.873455 143.851734 
L 114.955636 78.95385 
L 116.037818 284.197451 
L 117.12 272.40084 
L 118.202182 153.423105 
L 119.284364 264.580839 
L 120.366545 129.056836 
L 121.448727 270.021482 
L 122.530909 270.021482 
L 123.613091 237.936192 
L 124.695273 270.021482 
L 125.777455 270.021482 
L 126.859636 140.466462 
L 127.941818 270.021482 
L 129.024 284.197451 
L 130.106182 128.477824 
L 131.188364 61.637093 
L 132.270545 137.74555 
L 133.352727 270.021482 
L 134.434909 85.688113 
L 135.517091 143.232805 
L 136.599273 155.616953 
L 137.681455 149.58355 
L 138.763636 123.616193 
L 139.845818 142.14306 
L 140.928 129.056836 
L 142.010182 223.2636 
L 143.092364 143.851734 
L 144.174545 123.616193 
L 145.256727 100.831168 
L 146.338909 141.471497 
L 147.421091 129.056836 
L 148.503273 270.021482 
L 149.585455 270.021482 
L 150.667636 121.091738 
L 151.749818 109.904549 
L 152.832 85.688113 
L 153.914182 99.864081 
L 154.996364 270.021482 
L 156.078545 178.263107 
L 157.160727 264.580839 
L 158.242909 284.197451 
L 159.325091 106.368224 
L 160.407273 270.021482 
L 161.489455 129.056836 
L 162.571636 272.40084 
L 163.653818 270.021482 
L 165.818182 270.021482 
L 166.900364 284.197451 
L 167.982545 270.021482 
L 169.064727 160.425865 
L 170.146909 140.410603 
L 171.229091 270.021482 
L 172.311273 270.021482 
L 173.393455 135.244103 
L 174.475636 143.851734 
L 175.557818 270.021482 
L 177.722182 270.021482 
L 178.804364 130.14009 
L 179.886545 107.762301 
L 180.968727 96.975518 
L 182.050909 105.93048 
L 183.133091 105.93048 
L 184.215273 97.594446 
L 185.297455 97.594446 
L 186.379636 82.799549 
L 187.461818 135.042229 
L 188.544 97.594446 
L 189.626182 135.042229 
L 190.708364 141.071746 
L 191.790545 82.799549 
L 192.872727 120.247332 
L 193.954909 141.071746 
L 195.037091 141.071746 
L 196.119273 120.247332 
L 197.201455 141.071746 
L 198.283636 120.247332 
L 199.365818 120.247332 
L 200.448 141.071746 
L 201.530182 120.247332 
L 202.612364 135.042229 
L 203.694545 82.799549 
L 204.776727 135.042229 
L 210.187636 135.042229 
L 211.269818 143.378263 
L 212.352 120.953407 
L 213.434182 143.378263 
L 217.762909 143.378263 
L 218.845091 270.021482 
L 219.927273 144.084337 
L 221.009455 143.378263 
L 222.091636 144.084337 
L 223.173818 144.084337 
L 224.256 137.866528 
L 225.338182 97.972701 
L 226.420364 143.378263 
L 227.502545 144.084337 
L 228.584727 143.378263 
L 229.666909 143.378263 
L 230.749091 144.084337 
L 231.831273 270.021482 
L 232.913455 135.748304 
L 233.995636 144.084337 
L 235.077818 135.042229 
L 236.16 135.042229 
L 237.242182 135.748304 
L 238.324364 135.042229 
L 239.406545 143.378263 
L 240.488727 105.93048 
L 241.570909 143.378263 
L 242.653091 135.042229 
L 243.735273 143.378263 
L 245.899636 143.378263 
L 246.981818 97.594446 
L 248.064 135.042229 
L 249.146182 135.042229 
L 250.228364 164.202676 
L 251.310545 135.042229 
L 252.392727 270.021482 
L 253.474909 99.864081 
L 254.557091 84.104598 
L 255.639273 86.030384 
L 256.721455 85.273875 
L 257.803636 73.368445 
L 258.885818 85.273875 
L 259.968 100.431463 
L 261.050182 82.04304 
L 262.132364 85.273875 
L 263.214545 87.544413 
L 264.296727 91.036173 
L 265.378909 87.544413 
L 266.461091 96.975518 
L 267.543273 96.786391 
L 268.625455 73.368445 
L 269.707636 101.050392 
L 270.789818 92.019635 
L 271.872 82.04304 
L 272.954182 85.273875 
L 274.036364 122.993216 
L 275.118545 73.368445 
L 276.200727 73.368445 
L 277.282909 82.04304 
L 278.365091 83.340747 
L 279.447273 96.975518 
L 280.529455 101.050392 
L 281.611636 87.544413 
L 282.693818 96.975518 
L 283.776 97.255884 
L 284.858182 72.862392 
L 285.940364 96.786391 
L 287.022545 82.801913 
L 288.104727 96.786391 
L 289.186909 82.801913 
L 290.269091 105.741353 
L 291.351273 88.300922 
L 292.433455 105.93048 
L 293.515636 96.975518 
L 294.597818 143.378263 
L 295.68 135.042229 
L 302.173091 135.042229 
L 303.255273 155.866643 
L 304.337455 135.042229 
L 306.501818 135.042229 
L 307.584 135.748304 
L 308.666182 143.378263 
L 309.748364 135.042229 
L 310.830545 143.378263 
L 311.912727 135.042229 
L 315.159273 135.042229 
L 316.241455 117.894348 
L 317.323636 135.042229 
L 319.488 135.042229 
L 320.570182 97.594446 
L 321.652364 155.866643 
L 322.734545 135.042229 
L 324.898909 135.042229 
L 325.981091 143.896045 
L 327.063273 135.042229 
L 328.145455 155.866643 
L 329.227636 135.042229 
L 330.309818 135.042229 
L 331.392 155.866643 
L 332.474182 155.866643 
L 333.556364 135.042229 
L 334.638545 155.866643 
L 335.720727 135.042229 
L 343.296 135.042229 
L 344.378182 105.93048 
L 345.460364 135.042229 
L 346.542545 97.594446 
L 347.624727 143.378263 
L 348.706909 143.378263 
L 349.789091 97.594446 
L 350.871273 97.594446 
L 351.953455 143.378263 
L 353.035636 105.93048 
L 354.117818 134.423301 
L 355.2 97.594446 
L 356.282182 143.378263 
L 357.364364 135.042229 
L 358.446545 143.378263 
L 359.528727 164.606148 
L 360.610909 143.378263 
L 361.693091 97.594446 
L 362.775273 97.594446 
L 363.857455 105.93048 
L 364.939636 105.93048 
L 366.021818 143.378263 
L 367.104 97.594446 
L 368.186182 97.594446 
L 369.268364 105.93048 
L 370.350545 134.423301 
L 371.432727 97.594446 
L 372.514909 105.93048 
L 373.597091 97.594446 
L 374.679273 105.93048 
L 377.925818 105.93048 
L 379.008 97.594446 
L 380.090182 97.594446 
L 381.172364 105.93048 
L 382.254545 105.93048 
L 383.336727 97.594446 
L 384.418909 105.93048 
L 389.829818 105.93048 
L 390.912 126.958968 
L 391.994182 143.378263 
L 393.076364 106.308734 
L 394.158545 143.378263 
L 395.240727 122.532602 
L 396.322909 105.93048 
L 397.405091 97.594446 
L 398.487273 106.448613 
L 398.487273 106.448613 
" clip-path="url(#p494fcf4e90)" style="fill: none; stroke: #2ca02c; stroke-width: 1.5; stroke-linecap: square"/>
   </g>
   <g id="patch_3">
    <path d="M 57.6 307.584 
L 57.6 41.472 
" style="fill: none; stroke: #000000; stroke-width: 0.8; stroke-linejoin: miter; stroke-linecap: square"/>
   </g>
   <g id="patch_4">
    <path d="M 414.72 307.584 
L 414.72 41.472 
" style="fill: none; stroke: #000000; stroke-width: 0.8; stroke-linejoin: miter; stroke-linecap: square"/>
   </g>
   <g id="patch_5">
    <path d="M 57.6 307.584 
L 414.72 307.584 
" style="fill: none; stroke: #000000; stroke-width: 0.8; stroke-linejoin: miter; stroke-linecap: square"/>
   </g>
   <g id="patch_6">
    <path d="M 57.6 41.472 
L 414.72 41.472 
" style="fill: none; stroke: #000000; stroke-width: 0.8; stroke-linejoin: miter; stroke-linecap: square"/>
   </g>
  </g>
 </g>
 <defs>
  <clipPath id="p494fcf4e90">
   <rect x="57.6" y="41.472" width="357.12" height="266.112"/>
  </clipPath>
 </defs>
</svg>
