<?xml version="1.0" encoding="utf-8" standalone="no"?>
<!DOCTYPE svg PUBLIC "-//W3C//DTD SVG 1.1//EN"
  "http://www.w3.org/Graphics/SVG/1.1/DTD/svg11.dtd">
<svg xmlns:xlink="http://www.w3.org/1999/xlink" width="460.8pt" height="345.6pt" viewBox="0 0 460.8 345.6" xmlns="http://www.w3.org/2000/svg" version="1.1">
 <metadata>
  <rdf:RDF xmlns:dc="http://purl.org/dc/elements/1.1/" xmlns:cc="http://creativecommons.org/ns#" xmlns:rdf="http://www.w3.org/1999/02/22-rdf-syntax-ns#">
   <cc:Work>
    <dc:type rdf:resource="http://purl.org/dc/dcmitype/StillImage"/>
    <dc:date>2024-04-30T18:10:22.691625</dc:date>
    <dc:format>image/svg+xml</dc:format>
    <dc:creator>
     <cc:Agent>
      <dc:title>Matplotlib v3.7.2, https://matplotlib.org/</dc:title>
     </cc:Agent>
    </dc:creator>
   </cc:Work>
  </rdf:RDF>
 </metadata>
 <defs>
  <style type="text/css">*{stroke-linejoin: round; stroke-linecap: butt}</style>
 </defs>
 <g id="figure_1">
  <g id="patch_1">
   <path d="M 0 345.6 
L 460.8 345.6 
L 460.8 0 
L 0 0 
z
" style="fill: #ffffff"/>
  </g>
  <g id="axes_1">
   <g id="patch_2">
    <path d="M 57.6 307.584 
L 414.72 307.584 
L 414.72 41.472 
L 57.6 41.472 
z
" style="fill: #ffffff"/>
   </g>
   <g id="matplotlib.axis_1">
    <g id="xtick_1">
     <g id="line2d_1">
      <defs>
       <path id="m38ca69e143" d="M 0 0 
L 0 3.5 
" style="stroke: #000000; stroke-width: 0.8"/>
      </defs>
      <g>
       <use xlink:href="#m38ca69e143" x="73.832727" y="307.584" style="stroke: #000000; stroke-width: 0.8"/>
      </g>
     </g>
     <g id="text_1">
      <!-- 0 -->
      <g transform="translate(70.651477 322.182437) scale(0.1 -0.1)">
       <defs>
        <path id="DejaVuSans-30" d="M 2034 4250 
Q 1547 4250 1301 3770 
Q 1056 3291 1056 2328 
Q 1056 1369 1301 889 
Q 1547 409 2034 409 
Q 2525 409 2770 889 
Q 3016 1369 3016 2328 
Q 3016 3291 2770 3770 
Q 2525 4250 2034 4250 
z
M 2034 4750 
Q 2819 4750 3233 4129 
Q 3647 3509 3647 2328 
Q 3647 1150 3233 529 
Q 2819 -91 2034 -91 
Q 1250 -91 836 529 
Q 422 1150 422 2328 
Q 422 3509 836 4129 
Q 1250 4750 2034 4750 
z
" transform="scale(0.015625)"/>
       </defs>
       <use xlink:href="#DejaVuSans-30"/>
      </g>
     </g>
    </g>
    <g id="xtick_2">
     <g id="line2d_2">
      <g>
       <use xlink:href="#m38ca69e143" x="114.414545" y="307.584" style="stroke: #000000; stroke-width: 0.8"/>
      </g>
     </g>
     <g id="text_2">
      <!-- 25 -->
      <g transform="translate(108.052045 322.182437) scale(0.1 -0.1)">
       <defs>
        <path id="DejaVuSans-32" d="M 1228 531 
L 3431 531 
L 3431 0 
L 469 0 
L 469 531 
Q 828 903 1448 1529 
Q 2069 2156 2228 2338 
Q 2531 2678 2651 2914 
Q 2772 3150 2772 3378 
Q 2772 3750 2511 3984 
Q 2250 4219 1831 4219 
Q 1534 4219 1204 4116 
Q 875 4013 500 3803 
L 500 4441 
Q 881 4594 1212 4672 
Q 1544 4750 1819 4750 
Q 2544 4750 2975 4387 
Q 3406 4025 3406 3419 
Q 3406 3131 3298 2873 
Q 3191 2616 2906 2266 
Q 2828 2175 2409 1742 
Q 1991 1309 1228 531 
z
" transform="scale(0.015625)"/>
        <path id="DejaVuSans-35" d="M 691 4666 
L 3169 4666 
L 3169 4134 
L 1269 4134 
L 1269 2991 
Q 1406 3038 1543 3061 
Q 1681 3084 1819 3084 
Q 2600 3084 3056 2656 
Q 3513 2228 3513 1497 
Q 3513 744 3044 326 
Q 2575 -91 1722 -91 
Q 1428 -91 1123 -41 
Q 819 9 494 109 
L 494 744 
Q 775 591 1075 516 
Q 1375 441 1709 441 
Q 2250 441 2565 725 
Q 2881 1009 2881 1497 
Q 2881 1984 2565 2268 
Q 2250 2553 1709 2553 
Q 1456 2553 1204 2497 
Q 953 2441 691 2322 
L 691 4666 
z
" transform="scale(0.015625)"/>
       </defs>
       <use xlink:href="#DejaVuSans-32"/>
       <use xlink:href="#DejaVuSans-35" x="63.623047"/>
      </g>
     </g>
    </g>
    <g id="xtick_3">
     <g id="line2d_3">
      <g>
       <use xlink:href="#m38ca69e143" x="154.996364" y="307.584" style="stroke: #000000; stroke-width: 0.8"/>
      </g>
     </g>
     <g id="text_3">
      <!-- 50 -->
      <g transform="translate(148.633864 322.182437) scale(0.1 -0.1)">
       <use xlink:href="#DejaVuSans-35"/>
       <use xlink:href="#DejaVuSans-30" x="63.623047"/>
      </g>
     </g>
    </g>
    <g id="xtick_4">
     <g id="line2d_4">
      <g>
       <use xlink:href="#m38ca69e143" x="195.578182" y="307.584" style="stroke: #000000; stroke-width: 0.8"/>
      </g>
     </g>
     <g id="text_4">
      <!-- 75 -->
      <g transform="translate(189.215682 322.182437) scale(0.1 -0.1)">
       <defs>
        <path id="DejaVuSans-37" d="M 525 4666 
L 3525 4666 
L 3525 4397 
L 1831 0 
L 1172 0 
L 2766 4134 
L 525 4134 
L 525 4666 
z
" transform="scale(0.015625)"/>
       </defs>
       <use xlink:href="#DejaVuSans-37"/>
       <use xlink:href="#DejaVuSans-35" x="63.623047"/>
      </g>
     </g>
    </g>
    <g id="xtick_5">
     <g id="line2d_5">
      <g>
       <use xlink:href="#m38ca69e143" x="236.16" y="307.584" style="stroke: #000000; stroke-width: 0.8"/>
      </g>
     </g>
     <g id="text_5">
      <!-- 100 -->
      <g transform="translate(226.61625 322.182437) scale(0.1 -0.1)">
       <defs>
        <path id="DejaVuSans-31" d="M 794 531 
L 1825 531 
L 1825 4091 
L 703 3866 
L 703 4441 
L 1819 4666 
L 2450 4666 
L 2450 531 
L 3481 531 
L 3481 0 
L 794 0 
L 794 531 
z
" transform="scale(0.015625)"/>
       </defs>
       <use xlink:href="#DejaVuSans-31"/>
       <use xlink:href="#DejaVuSans-30" x="63.623047"/>
       <use xlink:href="#DejaVuSans-30" x="127.246094"/>
      </g>
     </g>
    </g>
    <g id="xtick_6">
     <g id="line2d_6">
      <g>
       <use xlink:href="#m38ca69e143" x="276.741818" y="307.584" style="stroke: #000000; stroke-width: 0.8"/>
      </g>
     </g>
     <g id="text_6">
      <!-- 125 -->
      <g transform="translate(267.198068 322.182437) scale(0.1 -0.1)">
       <use xlink:href="#DejaVuSans-31"/>
       <use xlink:href="#DejaVuSans-32" x="63.623047"/>
       <use xlink:href="#DejaVuSans-35" x="127.246094"/>
      </g>
     </g>
    </g>
    <g id="xtick_7">
     <g id="line2d_7">
      <g>
       <use xlink:href="#m38ca69e143" x="317.323636" y="307.584" style="stroke: #000000; stroke-width: 0.8"/>
      </g>
     </g>
     <g id="text_7">
      <!-- 150 -->
      <g transform="translate(307.779886 322.182437) scale(0.1 -0.1)">
       <use xlink:href="#DejaVuSans-31"/>
       <use xlink:href="#DejaVuSans-35" x="63.623047"/>
       <use xlink:href="#DejaVuSans-30" x="127.246094"/>
      </g>
     </g>
    </g>
    <g id="xtick_8">
     <g id="line2d_8">
      <g>
       <use xlink:href="#m38ca69e143" x="357.905455" y="307.584" style="stroke: #000000; stroke-width: 0.8"/>
      </g>
     </g>
     <g id="text_8">
      <!-- 175 -->
      <g transform="translate(348.361705 322.182437) scale(0.1 -0.1)">
       <use xlink:href="#DejaVuSans-31"/>
       <use xlink:href="#DejaVuSans-37" x="63.623047"/>
       <use xlink:href="#DejaVuSans-35" x="127.246094"/>
      </g>
     </g>
    </g>
    <g id="xtick_9">
     <g id="line2d_9">
      <g>
       <use xlink:href="#m38ca69e143" x="398.487273" y="307.584" style="stroke: #000000; stroke-width: 0.8"/>
      </g>
     </g>
     <g id="text_9">
      <!-- 200 -->
      <g transform="translate(388.943523 322.182437) scale(0.1 -0.1)">
       <use xlink:href="#DejaVuSans-32"/>
       <use xlink:href="#DejaVuSans-30" x="63.623047"/>
       <use xlink:href="#DejaVuSans-30" x="127.246094"/>
      </g>
     </g>
    </g>
   </g>
   <g id="matplotlib.axis_2">
    <g id="ytick_1">
     <g id="line2d_10">
      <defs>
       <path id="m6bce9ff2f6" d="M 0 0 
L -3.5 0 
" style="stroke: #000000; stroke-width: 0.8"/>
      </defs>
      <g>
       <use xlink:href="#m6bce9ff2f6" x="57.6" y="306.333898" style="stroke: #000000; stroke-width: 0.8"/>
      </g>
     </g>
     <g id="text_10">
      <!-- −25 -->
      <g transform="translate(29.495313 310.133116) scale(0.1 -0.1)">
       <defs>
        <path id="DejaVuSans-2212" d="M 678 2272 
L 4684 2272 
L 4684 1741 
L 678 1741 
L 678 2272 
z
" transform="scale(0.015625)"/>
       </defs>
       <use xlink:href="#DejaVuSans-2212"/>
       <use xlink:href="#DejaVuSans-32" x="83.789062"/>
       <use xlink:href="#DejaVuSans-35" x="147.412109"/>
      </g>
     </g>
    </g>
    <g id="ytick_2">
     <g id="line2d_11">
      <g>
       <use xlink:href="#m6bce9ff2f6" x="57.6" y="270.021482" style="stroke: #000000; stroke-width: 0.8"/>
      </g>
     </g>
     <g id="text_11">
      <!-- 0 -->
      <g transform="translate(44.2375 273.820701) scale(0.1 -0.1)">
       <use xlink:href="#DejaVuSans-30"/>
      </g>
     </g>
    </g>
    <g id="ytick_3">
     <g id="line2d_12">
      <g>
       <use xlink:href="#m6bce9ff2f6" x="57.6" y="233.709067" style="stroke: #000000; stroke-width: 0.8"/>
      </g>
     </g>
     <g id="text_12">
      <!-- 25 -->
      <g transform="translate(37.875 237.508286) scale(0.1 -0.1)">
       <use xlink:href="#DejaVuSans-32"/>
       <use xlink:href="#DejaVuSans-35" x="63.623047"/>
      </g>
     </g>
    </g>
    <g id="ytick_4">
     <g id="line2d_13">
      <g>
       <use xlink:href="#m6bce9ff2f6" x="57.6" y="197.396652" style="stroke: #000000; stroke-width: 0.8"/>
      </g>
     </g>
     <g id="text_13">
      <!-- 50 -->
      <g transform="translate(37.875 201.195871) scale(0.1 -0.1)">
       <use xlink:href="#DejaVuSans-35"/>
       <use xlink:href="#DejaVuSans-30" x="63.623047"/>
      </g>
     </g>
    </g>
    <g id="ytick_5">
     <g id="line2d_14">
      <g>
       <use xlink:href="#m6bce9ff2f6" x="57.6" y="161.084237" style="stroke: #000000; stroke-width: 0.8"/>
      </g>
     </g>
     <g id="text_14">
      <!-- 75 -->
      <g transform="translate(37.875 164.883456) scale(0.1 -0.1)">
       <use xlink:href="#DejaVuSans-37"/>
       <use xlink:href="#DejaVuSans-35" x="63.623047"/>
      </g>
     </g>
    </g>
    <g id="ytick_6">
     <g id="line2d_15">
      <g>
       <use xlink:href="#m6bce9ff2f6" x="57.6" y="124.771822" style="stroke: #000000; stroke-width: 0.8"/>
      </g>
     </g>
     <g id="text_15">
      <!-- 100 -->
      <g transform="translate(31.5125 128.571041) scale(0.1 -0.1)">
       <use xlink:href="#DejaVuSans-31"/>
       <use xlink:href="#DejaVuSans-30" x="63.623047"/>
       <use xlink:href="#DejaVuSans-30" x="127.246094"/>
      </g>
     </g>
    </g>
    <g id="ytick_7">
     <g id="line2d_16">
      <g>
       <use xlink:href="#m6bce9ff2f6" x="57.6" y="88.459407" style="stroke: #000000; stroke-width: 0.8"/>
      </g>
     </g>
     <g id="text_16">
      <!-- 125 -->
      <g transform="translate(31.5125 92.258626) scale(0.1 -0.1)">
       <use xlink:href="#DejaVuSans-31"/>
       <use xlink:href="#DejaVuSans-32" x="63.623047"/>
       <use xlink:href="#DejaVuSans-35" x="127.246094"/>
      </g>
     </g>
    </g>
    <g id="ytick_8">
     <g id="line2d_17">
      <g>
       <use xlink:href="#m6bce9ff2f6" x="57.6" y="52.146992" style="stroke: #000000; stroke-width: 0.8"/>
      </g>
     </g>
     <g id="text_17">
      <!-- 150 -->
      <g transform="translate(31.5125 55.946211) scale(0.1 -0.1)">
       <use xlink:href="#DejaVuSans-31"/>
       <use xlink:href="#DejaVuSans-35" x="63.623047"/>
       <use xlink:href="#DejaVuSans-30" x="127.246094"/>
      </g>
     </g>
    </g>
   </g>
   <g id="line2d_18">
    <path d="M 73.832727 270.021482 
L 75.456 129.056836 
L 77.079273 128.790231 
L 78.702545 217.822956 
L 80.325818 118.983751 
L 81.949091 132.659469 
L 83.572364 53.568 
L 85.195636 130.292174 
L 86.818909 270.021482 
L 88.442182 143.232805 
L 90.065455 272.40084 
L 91.688727 270.021482 
L 93.312 270.021482 
L 94.935273 284.197451 
L 96.558545 284.81638 
L 98.181818 295.488 
L 99.805091 184.047323 
L 101.428364 130.292174 
L 103.051636 270.021482 
L 104.674909 270.021482 
L 106.298182 270.021482 
L 107.921455 270.021482 
L 109.544727 104.591022 
L 111.168 284.197451 
L 112.791273 270.021482 
L 114.414545 129.056836 
L 116.037818 270.021482 
L 117.661091 143.896045 
L 119.284364 270.021482 
L 120.907636 270.021482 
L 122.530909 121.497968 
L 124.154182 270.021482 
L 125.777455 217.822956 
L 127.400727 291.41098 
L 129.024 270.021482 
L 130.647273 91.778018 
L 132.270545 270.021482 
L 133.893818 143.851734 
L 135.517091 78.95385 
L 137.140364 284.197451 
L 138.763636 272.40084 
L 140.386909 153.423105 
L 142.010182 264.580839 
L 143.633455 129.056836 
L 145.256727 270.021482 
L 146.88 270.021482 
L 148.503273 237.936192 
L 150.126545 270.021482 
L 151.749818 270.021482 
L 153.373091 140.466462 
L 154.996364 270.021482 
L 156.619636 284.197451 
L 158.242909 128.477824 
L 159.866182 61.637093 
L 161.489455 137.74555 
L 163.112727 270.021482 
L 164.736 85.688113 
L 166.359273 143.232805 
L 167.982545 155.616953 
L 169.605818 149.58355 
L 171.229091 123.616193 
L 172.852364 142.14306 
L 174.475636 129.056836 
L 176.098909 223.2636 
L 177.722182 143.851734 
L 179.345455 123.616193 
L 180.968727 100.831168 
L 182.592 141.471497 
L 184.215273 129.056836 
L 185.838545 270.021482 
L 187.461818 270.021482 
L 189.085091 121.091738 
L 190.708364 109.904549 
L 192.331636 85.688113 
L 193.954909 99.864081 
L 195.578182 270.021482 
L 197.201455 178.263107 
L 198.824727 264.580839 
L 200.448 284.197451 
L 202.071273 106.368224 
L 203.694545 270.021482 
L 205.317818 129.056836 
L 206.941091 272.40084 
L 208.564364 270.021482 
L 210.187636 270.021482 
L 211.810909 270.021482 
L 213.434182 284.197451 
L 215.057455 270.021482 
L 216.680727 160.425865 
L 218.304 140.410603 
L 219.927273 270.021482 
L 221.550545 270.021482 
L 223.173818 135.244103 
L 224.797091 143.851734 
L 226.420364 270.021482 
L 228.043636 270.021482 
L 229.666909 270.021482 
L 231.290182 130.14009 
L 232.913455 107.762301 
L 234.536727 96.975518 
L 236.16 105.93048 
" clip-path="url(#p46cf38e75a)" style="fill: none; stroke: #1f77b4; stroke-width: 1.5; stroke-linecap: square"/>
   </g>
   <g id="line2d_19">
    <path d="M 73.832727 270.021482 
L 75.456 129.056836 
L 77.079273 128.790231 
L 78.702545 217.822956 
L 80.325818 118.983751 
L 81.949091 132.659469 
L 83.572364 53.568 
L 85.195636 130.292174 
L 86.818909 270.021482 
L 88.442182 143.232805 
L 90.065455 272.40084 
L 91.688727 270.021482 
L 93.312 270.021482 
L 94.935273 284.197451 
L 96.558545 284.81638 
L 98.181818 295.488 
L 99.805091 184.047323 
L 101.428364 130.292174 
L 103.051636 270.021482 
L 107.921455 270.021482 
L 109.544727 104.591022 
L 111.168 284.197451 
L 112.791273 270.021482 
L 114.414545 129.056836 
L 116.037818 270.021482 
L 117.661091 143.896045 
L 119.284364 270.021482 
L 120.907636 270.021482 
L 122.530909 121.497968 
L 124.154182 270.021482 
L 125.777455 217.822956 
L 127.400727 291.41098 
L 129.024 270.021482 
L 130.647273 91.778018 
L 132.270545 270.021482 
L 133.893818 143.851734 
L 135.517091 78.95385 
L 137.140364 284.197451 
L 138.763636 272.40084 
L 140.386909 153.423105 
L 142.010182 264.580839 
L 143.633455 129.056836 
L 145.256727 270.021482 
L 146.88 270.021482 
L 148.503273 237.936192 
L 150.126545 270.021482 
L 151.749818 270.021482 
L 153.373091 140.466462 
L 154.996364 270.021482 
L 156.619636 284.197451 
L 158.242909 128.477824 
L 159.866182 61.637093 
L 161.489455 137.74555 
L 163.112727 270.021482 
L 164.736 85.688113 
L 166.359273 143.232805 
L 167.982545 155.616953 
L 169.605818 149.58355 
L 171.229091 123.616193 
L 172.852364 142.14306 
L 174.475636 129.056836 
L 176.098909 223.2636 
L 177.722182 143.851734 
L 179.345455 123.616193 
L 180.968727 100.831168 
L 182.592 141.471497 
L 184.215273 129.056836 
L 185.838545 270.021482 
L 187.461818 270.021482 
L 189.085091 121.091738 
L 190.708364 109.904549 
L 192.331636 85.688113 
L 193.954909 99.864081 
L 195.578182 270.021482 
L 197.201455 178.263107 
L 198.824727 264.580839 
L 200.448 284.197451 
L 202.071273 106.368224 
L 203.694545 270.021482 
L 205.317818 129.056836 
L 206.941091 272.40084 
L 208.564364 270.021482 
L 211.810909 270.021482 
L 213.434182 284.197451 
L 215.057455 270.021482 
L 216.680727 160.425865 
L 218.304 140.410603 
L 219.927273 270.021482 
L 221.550545 270.021482 
L 223.173818 135.244103 
L 224.797091 143.851734 
L 226.420364 270.021482 
L 229.666909 270.021482 
L 231.290182 130.14009 
L 232.913455 107.762301 
L 234.536727 96.975518 
L 236.16 105.93048 
L 237.783273 105.93048 
L 239.406545 97.594446 
L 241.029818 97.594446 
L 242.653091 82.799549 
L 244.276364 135.042229 
L 245.899636 97.594446 
L 247.522909 135.042229 
L 249.146182 141.071746 
L 250.769455 82.799549 
L 252.392727 120.247332 
L 254.016 141.071746 
L 255.639273 141.071746 
L 257.262545 120.247332 
L 258.885818 141.071746 
L 260.509091 120.247332 
L 262.132364 120.247332 
L 263.755636 141.071746 
L 265.378909 120.247332 
L 267.002182 135.042229 
L 268.625455 82.799549 
L 270.248727 135.042229 
L 278.365091 135.042229 
L 279.988364 143.378263 
L 281.611636 120.953407 
L 283.234909 143.378263 
L 289.728 143.378263 
L 291.351273 270.021482 
L 292.974545 144.084337 
L 294.597818 143.378263 
L 296.221091 144.084337 
L 297.844364 144.084337 
L 299.467636 137.866528 
L 301.090909 97.972701 
L 302.714182 143.378263 
L 304.337455 144.084337 
L 305.960727 143.378263 
L 307.584 143.378263 
L 309.207273 144.084337 
L 310.830545 270.021482 
L 312.453818 135.748304 
L 314.077091 144.084337 
L 315.700364 135.042229 
L 317.323636 135.042229 
L 318.946909 135.748304 
L 320.570182 135.042229 
L 322.193455 143.378263 
L 323.816727 105.93048 
L 325.44 143.378263 
L 327.063273 135.042229 
L 328.686545 143.378263 
L 331.933091 143.378263 
L 333.556364 97.594446 
L 335.179636 135.042229 
L 336.802909 135.042229 
L 338.426182 164.202676 
L 340.049455 135.042229 
L 341.672727 270.021482 
L 343.296 99.864081 
L 344.919273 84.104598 
L 346.542545 86.030384 
L 348.165818 85.273875 
L 349.789091 73.368445 
L 351.412364 85.273875 
L 353.035636 100.431463 
L 354.658909 82.04304 
L 356.282182 85.273875 
L 357.905455 87.544413 
L 359.528727 91.036173 
L 361.152 87.544413 
L 362.775273 96.975518 
L 364.398545 96.786391 
L 366.021818 73.368445 
L 367.645091 101.050392 
L 369.268364 92.019635 
L 370.891636 82.04304 
L 372.514909 85.273875 
L 374.138182 122.993216 
L 375.761455 73.368445 
L 377.384727 73.368445 
L 379.008 82.04304 
L 380.631273 83.340747 
L 382.254545 96.975518 
L 383.877818 101.050392 
L 385.501091 87.544413 
L 387.124364 96.975518 
L 388.747636 97.255884 
L 390.370909 72.862392 
L 391.994182 96.786391 
L 393.617455 82.801913 
L 395.240727 96.786391 
L 396.864 82.801913 
L 398.487273 105.741353 
L 398.487273 105.741353 
" clip-path="url(#p46cf38e75a)" style="fill: none; stroke: #ff7f0e; stroke-width: 1.5; stroke-linecap: square"/>
   </g>
   <g id="patch_3">
    <path d="M 57.6 307.584 
L 57.6 41.472 
" style="fill: none; stroke: #000000; stroke-width: 0.8; stroke-linejoin: miter; stroke-linecap: square"/>
   </g>
   <g id="patch_4">
    <path d="M 414.72 307.584 
L 414.72 41.472 
" style="fill: none; stroke: #000000; stroke-width: 0.8; stroke-linejoin: miter; stroke-linecap: square"/>
   </g>
   <g id="patch_5">
    <path d="M 57.6 307.584 
L 414.72 307.584 
" style="fill: none; stroke: #000000; stroke-width: 0.8; stroke-linejoin: miter; stroke-linecap: square"/>
   </g>
   <g id="patch_6">
    <path d="M 57.6 41.472 
L 414.72 41.472 
" style="fill: none; stroke: #000000; stroke-width: 0.8; stroke-linejoin: miter; stroke-linecap: square"/>
   </g>
  </g>
 </g>
 <defs>
  <clipPath id="p46cf38e75a">
   <rect x="57.6" y="41.472" width="357.12" height="266.112"/>
  </clipPath>
 </defs>
</svg>
