<?xml version="1.0" encoding="utf-8" standalone="no"?>
<!DOCTYPE svg PUBLIC "-//W3C//DTD SVG 1.1//EN"
  "http://www.w3.org/Graphics/SVG/1.1/DTD/svg11.dtd">
<svg xmlns:xlink="http://www.w3.org/1999/xlink" width="720pt" height="432pt" viewBox="0 0 720 432" xmlns="http://www.w3.org/2000/svg" version="1.1">
 <metadata>
  <rdf:RDF xmlns:dc="http://purl.org/dc/elements/1.1/" xmlns:cc="http://creativecommons.org/ns#" xmlns:rdf="http://www.w3.org/1999/02/22-rdf-syntax-ns#">
   <cc:Work>
    <dc:type rdf:resource="http://purl.org/dc/dcmitype/StillImage"/>
    <dc:date>2024-05-04T19:39:30.066977</dc:date>
    <dc:format>image/svg+xml</dc:format>
    <dc:creator>
     <cc:Agent>
      <dc:title>Matplotlib v3.7.2, https://matplotlib.org/</dc:title>
     </cc:Agent>
    </dc:creator>
   </cc:Work>
  </rdf:RDF>
 </metadata>
 <defs>
  <style type="text/css">*{stroke-linejoin: round; stroke-linecap: butt}</style>
 </defs>
 <g id="figure_1">
  <g id="patch_1">
   <path d="M 0 432 
L 720 432 
L 720 0 
L 0 0 
z
" style="fill: #ffffff"/>
  </g>
  <g id="axes_1">
   <g id="patch_2">
    <path d="M 90 384.48 
L 648 384.48 
L 648 51.84 
L 90 51.84 
z
" style="fill: #ffffff"/>
   </g>
   <g id="matplotlib.axis_1">
    <g id="xtick_1">
     <g id="line2d_1">
      <path d="M 115.21866 384.48 
L 115.21866 51.84 
" clip-path="url(#p7904130165)" style="fill: none; stroke: #808080; stroke-opacity: 0.2; stroke-linecap: square"/>
     </g>
     <g id="line2d_2">
      <defs>
       <path id="m8bdc95873a" d="M 0 0 
L 0 3.5 
" style="stroke: #000000; stroke-width: 0.8"/>
      </defs>
      <g>
       <use xlink:href="#m8bdc95873a" x="115.21866" y="384.48" style="stroke: #000000; stroke-width: 0.8"/>
      </g>
     </g>
     <g id="text_1">
      <!-- 0 -->
      <g transform="translate(112.03741 399.078438) scale(0.1 -0.1)">
       <defs>
        <path id="DejaVuSans-30" d="M 2034 4250 
Q 1547 4250 1301 3770 
Q 1056 3291 1056 2328 
Q 1056 1369 1301 889 
Q 1547 409 2034 409 
Q 2525 409 2770 889 
Q 3016 1369 3016 2328 
Q 3016 3291 2770 3770 
Q 2525 4250 2034 4250 
z
M 2034 4750 
Q 2819 4750 3233 4129 
Q 3647 3509 3647 2328 
Q 3647 1150 3233 529 
Q 2819 -91 2034 -91 
Q 1250 -91 836 529 
Q 422 1150 422 2328 
Q 422 3509 836 4129 
Q 1250 4750 2034 4750 
z
" transform="scale(0.015625)"/>
       </defs>
       <use xlink:href="#DejaVuSans-30"/>
      </g>
     </g>
    </g>
    <g id="xtick_2">
     <g id="line2d_3">
      <path d="M 187.706903 384.48 
L 187.706903 51.84 
" clip-path="url(#p7904130165)" style="fill: none; stroke: #808080; stroke-opacity: 0.2; stroke-linecap: square"/>
     </g>
     <g id="line2d_4">
      <g>
       <use xlink:href="#m8bdc95873a" x="187.706903" y="384.48" style="stroke: #000000; stroke-width: 0.8"/>
      </g>
     </g>
     <g id="text_2">
      <!-- 1 -->
      <g transform="translate(184.525653 399.078438) scale(0.1 -0.1)">
       <defs>
        <path id="DejaVuSans-31" d="M 794 531 
L 1825 531 
L 1825 4091 
L 703 3866 
L 703 4441 
L 1819 4666 
L 2450 4666 
L 2450 531 
L 3481 531 
L 3481 0 
L 794 0 
L 794 531 
z
" transform="scale(0.015625)"/>
       </defs>
       <use xlink:href="#DejaVuSans-31"/>
      </g>
     </g>
    </g>
    <g id="xtick_3">
     <g id="line2d_5">
      <path d="M 260.195147 384.48 
L 260.195147 51.84 
" clip-path="url(#p7904130165)" style="fill: none; stroke: #808080; stroke-opacity: 0.2; stroke-linecap: square"/>
     </g>
     <g id="line2d_6">
      <g>
       <use xlink:href="#m8bdc95873a" x="260.195147" y="384.48" style="stroke: #000000; stroke-width: 0.8"/>
      </g>
     </g>
     <g id="text_3">
      <!-- 2 -->
      <g transform="translate(257.013897 399.078438) scale(0.1 -0.1)">
       <defs>
        <path id="DejaVuSans-32" d="M 1228 531 
L 3431 531 
L 3431 0 
L 469 0 
L 469 531 
Q 828 903 1448 1529 
Q 2069 2156 2228 2338 
Q 2531 2678 2651 2914 
Q 2772 3150 2772 3378 
Q 2772 3750 2511 3984 
Q 2250 4219 1831 4219 
Q 1534 4219 1204 4116 
Q 875 4013 500 3803 
L 500 4441 
Q 881 4594 1212 4672 
Q 1544 4750 1819 4750 
Q 2544 4750 2975 4387 
Q 3406 4025 3406 3419 
Q 3406 3131 3298 2873 
Q 3191 2616 2906 2266 
Q 2828 2175 2409 1742 
Q 1991 1309 1228 531 
z
" transform="scale(0.015625)"/>
       </defs>
       <use xlink:href="#DejaVuSans-32"/>
      </g>
     </g>
    </g>
    <g id="xtick_4">
     <g id="line2d_7">
      <path d="M 332.68339 384.48 
L 332.68339 51.84 
" clip-path="url(#p7904130165)" style="fill: none; stroke: #808080; stroke-opacity: 0.2; stroke-linecap: square"/>
     </g>
     <g id="line2d_8">
      <g>
       <use xlink:href="#m8bdc95873a" x="332.68339" y="384.48" style="stroke: #000000; stroke-width: 0.8"/>
      </g>
     </g>
     <g id="text_4">
      <!-- 3 -->
      <g transform="translate(329.50214 399.078438) scale(0.1 -0.1)">
       <defs>
        <path id="DejaVuSans-33" d="M 2597 2516 
Q 3050 2419 3304 2112 
Q 3559 1806 3559 1356 
Q 3559 666 3084 287 
Q 2609 -91 1734 -91 
Q 1441 -91 1130 -33 
Q 819 25 488 141 
L 488 750 
Q 750 597 1062 519 
Q 1375 441 1716 441 
Q 2309 441 2620 675 
Q 2931 909 2931 1356 
Q 2931 1769 2642 2001 
Q 2353 2234 1838 2234 
L 1294 2234 
L 1294 2753 
L 1863 2753 
Q 2328 2753 2575 2939 
Q 2822 3125 2822 3475 
Q 2822 3834 2567 4026 
Q 2313 4219 1838 4219 
Q 1578 4219 1281 4162 
Q 984 4106 628 3988 
L 628 4550 
Q 988 4650 1302 4700 
Q 1616 4750 1894 4750 
Q 2613 4750 3031 4423 
Q 3450 4097 3450 3541 
Q 3450 3153 3228 2886 
Q 3006 2619 2597 2516 
z
" transform="scale(0.015625)"/>
       </defs>
       <use xlink:href="#DejaVuSans-33"/>
      </g>
     </g>
    </g>
    <g id="xtick_5">
     <g id="line2d_9">
      <path d="M 405.171633 384.48 
L 405.171633 51.84 
" clip-path="url(#p7904130165)" style="fill: none; stroke: #808080; stroke-opacity: 0.2; stroke-linecap: square"/>
     </g>
     <g id="line2d_10">
      <g>
       <use xlink:href="#m8bdc95873a" x="405.171633" y="384.48" style="stroke: #000000; stroke-width: 0.8"/>
      </g>
     </g>
     <g id="text_5">
      <!-- 4 -->
      <g transform="translate(401.990383 399.078438) scale(0.1 -0.1)">
       <defs>
        <path id="DejaVuSans-34" d="M 2419 4116 
L 825 1625 
L 2419 1625 
L 2419 4116 
z
M 2253 4666 
L 3047 4666 
L 3047 1625 
L 3713 1625 
L 3713 1100 
L 3047 1100 
L 3047 0 
L 2419 0 
L 2419 1100 
L 313 1100 
L 313 1709 
L 2253 4666 
z
" transform="scale(0.015625)"/>
       </defs>
       <use xlink:href="#DejaVuSans-34"/>
      </g>
     </g>
    </g>
    <g id="xtick_6">
     <g id="line2d_11">
      <path d="M 477.659877 384.48 
L 477.659877 51.84 
" clip-path="url(#p7904130165)" style="fill: none; stroke: #808080; stroke-opacity: 0.2; stroke-linecap: square"/>
     </g>
     <g id="line2d_12">
      <g>
       <use xlink:href="#m8bdc95873a" x="477.659877" y="384.48" style="stroke: #000000; stroke-width: 0.8"/>
      </g>
     </g>
     <g id="text_6">
      <!-- 5 -->
      <g transform="translate(474.478627 399.078438) scale(0.1 -0.1)">
       <defs>
        <path id="DejaVuSans-35" d="M 691 4666 
L 3169 4666 
L 3169 4134 
L 1269 4134 
L 1269 2991 
Q 1406 3038 1543 3061 
Q 1681 3084 1819 3084 
Q 2600 3084 3056 2656 
Q 3513 2228 3513 1497 
Q 3513 744 3044 326 
Q 2575 -91 1722 -91 
Q 1428 -91 1123 -41 
Q 819 9 494 109 
L 494 744 
Q 775 591 1075 516 
Q 1375 441 1709 441 
Q 2250 441 2565 725 
Q 2881 1009 2881 1497 
Q 2881 1984 2565 2268 
Q 2250 2553 1709 2553 
Q 1456 2553 1204 2497 
Q 953 2441 691 2322 
L 691 4666 
z
" transform="scale(0.015625)"/>
       </defs>
       <use xlink:href="#DejaVuSans-35"/>
      </g>
     </g>
    </g>
    <g id="xtick_7">
     <g id="line2d_13">
      <path d="M 550.14812 384.48 
L 550.14812 51.84 
" clip-path="url(#p7904130165)" style="fill: none; stroke: #808080; stroke-opacity: 0.2; stroke-linecap: square"/>
     </g>
     <g id="line2d_14">
      <g>
       <use xlink:href="#m8bdc95873a" x="550.14812" y="384.48" style="stroke: #000000; stroke-width: 0.8"/>
      </g>
     </g>
     <g id="text_7">
      <!-- 6 -->
      <g transform="translate(546.96687 399.078438) scale(0.1 -0.1)">
       <defs>
        <path id="DejaVuSans-36" d="M 2113 2584 
Q 1688 2584 1439 2293 
Q 1191 2003 1191 1497 
Q 1191 994 1439 701 
Q 1688 409 2113 409 
Q 2538 409 2786 701 
Q 3034 994 3034 1497 
Q 3034 2003 2786 2293 
Q 2538 2584 2113 2584 
z
M 3366 4563 
L 3366 3988 
Q 3128 4100 2886 4159 
Q 2644 4219 2406 4219 
Q 1781 4219 1451 3797 
Q 1122 3375 1075 2522 
Q 1259 2794 1537 2939 
Q 1816 3084 2150 3084 
Q 2853 3084 3261 2657 
Q 3669 2231 3669 1497 
Q 3669 778 3244 343 
Q 2819 -91 2113 -91 
Q 1303 -91 875 529 
Q 447 1150 447 2328 
Q 447 3434 972 4092 
Q 1497 4750 2381 4750 
Q 2619 4750 2861 4703 
Q 3103 4656 3366 4563 
z
" transform="scale(0.015625)"/>
       </defs>
       <use xlink:href="#DejaVuSans-36"/>
      </g>
     </g>
    </g>
    <g id="xtick_8">
     <g id="line2d_15">
      <path d="M 622.636364 384.48 
L 622.636364 51.84 
" clip-path="url(#p7904130165)" style="fill: none; stroke: #808080; stroke-opacity: 0.2; stroke-linecap: square"/>
     </g>
     <g id="line2d_16">
      <g>
       <use xlink:href="#m8bdc95873a" x="622.636364" y="384.48" style="stroke: #000000; stroke-width: 0.8"/>
      </g>
     </g>
     <g id="text_8">
      <!-- 7 -->
      <g transform="translate(619.455114 399.078438) scale(0.1 -0.1)">
       <defs>
        <path id="DejaVuSans-37" d="M 525 4666 
L 3525 4666 
L 3525 4397 
L 1831 0 
L 1172 0 
L 2766 4134 
L 525 4134 
L 525 4666 
z
" transform="scale(0.015625)"/>
       </defs>
       <use xlink:href="#DejaVuSans-37"/>
      </g>
     </g>
    </g>
    <g id="text_9">
     <!-- Timesteps -->
     <g transform="translate(338.215312 414.27625) scale(0.12 -0.12)">
      <defs>
       <path id="DejaVuSans-54" d="M -19 4666 
L 3928 4666 
L 3928 4134 
L 2272 4134 
L 2272 0 
L 1638 0 
L 1638 4134 
L -19 4134 
L -19 4666 
z
" transform="scale(0.015625)"/>
       <path id="DejaVuSans-69" d="M 603 3500 
L 1178 3500 
L 1178 0 
L 603 0 
L 603 3500 
z
M 603 4863 
L 1178 4863 
L 1178 4134 
L 603 4134 
L 603 4863 
z
" transform="scale(0.015625)"/>
       <path id="DejaVuSans-6d" d="M 3328 2828 
Q 3544 3216 3844 3400 
Q 4144 3584 4550 3584 
Q 5097 3584 5394 3201 
Q 5691 2819 5691 2113 
L 5691 0 
L 5113 0 
L 5113 2094 
Q 5113 2597 4934 2840 
Q 4756 3084 4391 3084 
Q 3944 3084 3684 2787 
Q 3425 2491 3425 1978 
L 3425 0 
L 2847 0 
L 2847 2094 
Q 2847 2600 2669 2842 
Q 2491 3084 2119 3084 
Q 1678 3084 1418 2786 
Q 1159 2488 1159 1978 
L 1159 0 
L 581 0 
L 581 3500 
L 1159 3500 
L 1159 2956 
Q 1356 3278 1631 3431 
Q 1906 3584 2284 3584 
Q 2666 3584 2933 3390 
Q 3200 3197 3328 2828 
z
" transform="scale(0.015625)"/>
       <path id="DejaVuSans-65" d="M 3597 1894 
L 3597 1613 
L 953 1613 
Q 991 1019 1311 708 
Q 1631 397 2203 397 
Q 2534 397 2845 478 
Q 3156 559 3463 722 
L 3463 178 
Q 3153 47 2828 -22 
Q 2503 -91 2169 -91 
Q 1331 -91 842 396 
Q 353 884 353 1716 
Q 353 2575 817 3079 
Q 1281 3584 2069 3584 
Q 2775 3584 3186 3129 
Q 3597 2675 3597 1894 
z
M 3022 2063 
Q 3016 2534 2758 2815 
Q 2500 3097 2075 3097 
Q 1594 3097 1305 2825 
Q 1016 2553 972 2059 
L 3022 2063 
z
" transform="scale(0.015625)"/>
       <path id="DejaVuSans-73" d="M 2834 3397 
L 2834 2853 
Q 2591 2978 2328 3040 
Q 2066 3103 1784 3103 
Q 1356 3103 1142 2972 
Q 928 2841 928 2578 
Q 928 2378 1081 2264 
Q 1234 2150 1697 2047 
L 1894 2003 
Q 2506 1872 2764 1633 
Q 3022 1394 3022 966 
Q 3022 478 2636 193 
Q 2250 -91 1575 -91 
Q 1294 -91 989 -36 
Q 684 19 347 128 
L 347 722 
Q 666 556 975 473 
Q 1284 391 1588 391 
Q 1994 391 2212 530 
Q 2431 669 2431 922 
Q 2431 1156 2273 1281 
Q 2116 1406 1581 1522 
L 1381 1569 
Q 847 1681 609 1914 
Q 372 2147 372 2553 
Q 372 3047 722 3315 
Q 1072 3584 1716 3584 
Q 2034 3584 2315 3537 
Q 2597 3491 2834 3397 
z
" transform="scale(0.015625)"/>
       <path id="DejaVuSans-74" d="M 1172 4494 
L 1172 3500 
L 2356 3500 
L 2356 3053 
L 1172 3053 
L 1172 1153 
Q 1172 725 1289 603 
Q 1406 481 1766 481 
L 2356 481 
L 2356 0 
L 1766 0 
Q 1100 0 847 248 
Q 594 497 594 1153 
L 594 3053 
L 172 3053 
L 172 3500 
L 594 3500 
L 594 4494 
L 1172 4494 
z
" transform="scale(0.015625)"/>
       <path id="DejaVuSans-70" d="M 1159 525 
L 1159 -1331 
L 581 -1331 
L 581 3500 
L 1159 3500 
L 1159 2969 
Q 1341 3281 1617 3432 
Q 1894 3584 2278 3584 
Q 2916 3584 3314 3078 
Q 3713 2572 3713 1747 
Q 3713 922 3314 415 
Q 2916 -91 2278 -91 
Q 1894 -91 1617 61 
Q 1341 213 1159 525 
z
M 3116 1747 
Q 3116 2381 2855 2742 
Q 2594 3103 2138 3103 
Q 1681 3103 1420 2742 
Q 1159 2381 1159 1747 
Q 1159 1113 1420 752 
Q 1681 391 2138 391 
Q 2594 391 2855 752 
Q 3116 1113 3116 1747 
z
" transform="scale(0.015625)"/>
      </defs>
      <use xlink:href="#DejaVuSans-54"/>
      <use xlink:href="#DejaVuSans-69" x="57.958984"/>
      <use xlink:href="#DejaVuSans-6d" x="85.742188"/>
      <use xlink:href="#DejaVuSans-65" x="183.154297"/>
      <use xlink:href="#DejaVuSans-73" x="244.677734"/>
      <use xlink:href="#DejaVuSans-74" x="296.777344"/>
      <use xlink:href="#DejaVuSans-65" x="335.986328"/>
      <use xlink:href="#DejaVuSans-70" x="397.509766"/>
      <use xlink:href="#DejaVuSans-73" x="460.986328"/>
     </g>
    </g>
    <g id="text_10">
     <!-- 1e6 -->
     <g transform="translate(629.121875 411.756563) scale(0.1 -0.1)">
      <use xlink:href="#DejaVuSans-31"/>
      <use xlink:href="#DejaVuSans-65" x="63.623047"/>
      <use xlink:href="#DejaVuSans-36" x="125.146484"/>
     </g>
    </g>
   </g>
   <g id="matplotlib.axis_2">
    <g id="ytick_1">
     <g id="line2d_17">
      <path d="M 90 343.196486 
L 648 343.196486 
" clip-path="url(#p7904130165)" style="fill: none; stroke: #808080; stroke-opacity: 0.2; stroke-linecap: square"/>
     </g>
     <g id="line2d_18">
      <defs>
       <path id="m22231df059" d="M 0 0 
L -3.5 0 
" style="stroke: #000000; stroke-width: 0.8"/>
      </defs>
      <g>
       <use xlink:href="#m22231df059" x="90" y="343.196486" style="stroke: #000000; stroke-width: 0.8"/>
      </g>
     </g>
     <g id="text_11">
      <!-- −300 -->
      <g transform="translate(55.532812 346.995705) scale(0.1 -0.1)">
       <defs>
        <path id="DejaVuSans-2212" d="M 678 2272 
L 4684 2272 
L 4684 1741 
L 678 1741 
L 678 2272 
z
" transform="scale(0.015625)"/>
       </defs>
       <use xlink:href="#DejaVuSans-2212"/>
       <use xlink:href="#DejaVuSans-33" x="83.789062"/>
       <use xlink:href="#DejaVuSans-30" x="147.412109"/>
       <use xlink:href="#DejaVuSans-30" x="211.035156"/>
      </g>
     </g>
    </g>
    <g id="ytick_2">
     <g id="line2d_19">
      <path d="M 90 298.833519 
L 648 298.833519 
" clip-path="url(#p7904130165)" style="fill: none; stroke: #808080; stroke-opacity: 0.2; stroke-linecap: square"/>
     </g>
     <g id="line2d_20">
      <g>
       <use xlink:href="#m22231df059" x="90" y="298.833519" style="stroke: #000000; stroke-width: 0.8"/>
      </g>
     </g>
     <g id="text_12">
      <!-- −250 -->
      <g transform="translate(55.532812 302.632738) scale(0.1 -0.1)">
       <use xlink:href="#DejaVuSans-2212"/>
       <use xlink:href="#DejaVuSans-32" x="83.789062"/>
       <use xlink:href="#DejaVuSans-35" x="147.412109"/>
       <use xlink:href="#DejaVuSans-30" x="211.035156"/>
      </g>
     </g>
    </g>
    <g id="ytick_3">
     <g id="line2d_21">
      <path d="M 90 254.470552 
L 648 254.470552 
" clip-path="url(#p7904130165)" style="fill: none; stroke: #808080; stroke-opacity: 0.2; stroke-linecap: square"/>
     </g>
     <g id="line2d_22">
      <g>
       <use xlink:href="#m22231df059" x="90" y="254.470552" style="stroke: #000000; stroke-width: 0.8"/>
      </g>
     </g>
     <g id="text_13">
      <!-- −200 -->
      <g transform="translate(55.532812 258.26977) scale(0.1 -0.1)">
       <use xlink:href="#DejaVuSans-2212"/>
       <use xlink:href="#DejaVuSans-32" x="83.789062"/>
       <use xlink:href="#DejaVuSans-30" x="147.412109"/>
       <use xlink:href="#DejaVuSans-30" x="211.035156"/>
      </g>
     </g>
    </g>
    <g id="ytick_4">
     <g id="line2d_23">
      <path d="M 90 210.107584 
L 648 210.107584 
" clip-path="url(#p7904130165)" style="fill: none; stroke: #808080; stroke-opacity: 0.2; stroke-linecap: square"/>
     </g>
     <g id="line2d_24">
      <g>
       <use xlink:href="#m22231df059" x="90" y="210.107584" style="stroke: #000000; stroke-width: 0.8"/>
      </g>
     </g>
     <g id="text_14">
      <!-- −150 -->
      <g transform="translate(55.532812 213.906803) scale(0.1 -0.1)">
       <use xlink:href="#DejaVuSans-2212"/>
       <use xlink:href="#DejaVuSans-31" x="83.789062"/>
       <use xlink:href="#DejaVuSans-35" x="147.412109"/>
       <use xlink:href="#DejaVuSans-30" x="211.035156"/>
      </g>
     </g>
    </g>
    <g id="ytick_5">
     <g id="line2d_25">
      <path d="M 90 165.744617 
L 648 165.744617 
" clip-path="url(#p7904130165)" style="fill: none; stroke: #808080; stroke-opacity: 0.2; stroke-linecap: square"/>
     </g>
     <g id="line2d_26">
      <g>
       <use xlink:href="#m22231df059" x="90" y="165.744617" style="stroke: #000000; stroke-width: 0.8"/>
      </g>
     </g>
     <g id="text_15">
      <!-- −100 -->
      <g transform="translate(55.532812 169.543835) scale(0.1 -0.1)">
       <use xlink:href="#DejaVuSans-2212"/>
       <use xlink:href="#DejaVuSans-31" x="83.789062"/>
       <use xlink:href="#DejaVuSans-30" x="147.412109"/>
       <use xlink:href="#DejaVuSans-30" x="211.035156"/>
      </g>
     </g>
    </g>
    <g id="ytick_6">
     <g id="line2d_27">
      <path d="M 90 121.381649 
L 648 121.381649 
" clip-path="url(#p7904130165)" style="fill: none; stroke: #808080; stroke-opacity: 0.2; stroke-linecap: square"/>
     </g>
     <g id="line2d_28">
      <g>
       <use xlink:href="#m22231df059" x="90" y="121.381649" style="stroke: #000000; stroke-width: 0.8"/>
      </g>
     </g>
     <g id="text_16">
      <!-- −50 -->
      <g transform="translate(61.895313 125.180868) scale(0.1 -0.1)">
       <use xlink:href="#DejaVuSans-2212"/>
       <use xlink:href="#DejaVuSans-35" x="83.789062"/>
       <use xlink:href="#DejaVuSans-30" x="147.412109"/>
      </g>
     </g>
    </g>
    <g id="ytick_7">
     <g id="line2d_29">
      <path d="M 90 77.018682 
L 648 77.018682 
" clip-path="url(#p7904130165)" style="fill: none; stroke: #808080; stroke-opacity: 0.2; stroke-linecap: square"/>
     </g>
     <g id="line2d_30">
      <g>
       <use xlink:href="#m22231df059" x="90" y="77.018682" style="stroke: #000000; stroke-width: 0.8"/>
      </g>
     </g>
     <g id="text_17">
      <!-- 0 -->
      <g transform="translate(76.6375 80.817901) scale(0.1 -0.1)">
       <use xlink:href="#DejaVuSans-30"/>
      </g>
     </g>
    </g>
    <g id="text_18">
     <!-- Rewards -->
     <g transform="translate(49.037187 243.630937) rotate(-90) scale(0.12 -0.12)">
      <defs>
       <path id="DejaVuSans-52" d="M 2841 2188 
Q 3044 2119 3236 1894 
Q 3428 1669 3622 1275 
L 4263 0 
L 3584 0 
L 2988 1197 
Q 2756 1666 2539 1819 
Q 2322 1972 1947 1972 
L 1259 1972 
L 1259 0 
L 628 0 
L 628 4666 
L 2053 4666 
Q 2853 4666 3247 4331 
Q 3641 3997 3641 3322 
Q 3641 2881 3436 2590 
Q 3231 2300 2841 2188 
z
M 1259 4147 
L 1259 2491 
L 2053 2491 
Q 2509 2491 2742 2702 
Q 2975 2913 2975 3322 
Q 2975 3731 2742 3939 
Q 2509 4147 2053 4147 
L 1259 4147 
z
" transform="scale(0.015625)"/>
       <path id="DejaVuSans-77" d="M 269 3500 
L 844 3500 
L 1563 769 
L 2278 3500 
L 2956 3500 
L 3675 769 
L 4391 3500 
L 4966 3500 
L 4050 0 
L 3372 0 
L 2619 2869 
L 1863 0 
L 1184 0 
L 269 3500 
z
" transform="scale(0.015625)"/>
       <path id="DejaVuSans-61" d="M 2194 1759 
Q 1497 1759 1228 1600 
Q 959 1441 959 1056 
Q 959 750 1161 570 
Q 1363 391 1709 391 
Q 2188 391 2477 730 
Q 2766 1069 2766 1631 
L 2766 1759 
L 2194 1759 
z
M 3341 1997 
L 3341 0 
L 2766 0 
L 2766 531 
Q 2569 213 2275 61 
Q 1981 -91 1556 -91 
Q 1019 -91 701 211 
Q 384 513 384 1019 
Q 384 1609 779 1909 
Q 1175 2209 1959 2209 
L 2766 2209 
L 2766 2266 
Q 2766 2663 2505 2880 
Q 2244 3097 1772 3097 
Q 1472 3097 1187 3025 
Q 903 2953 641 2809 
L 641 3341 
Q 956 3463 1253 3523 
Q 1550 3584 1831 3584 
Q 2591 3584 2966 3190 
Q 3341 2797 3341 1997 
z
" transform="scale(0.015625)"/>
       <path id="DejaVuSans-72" d="M 2631 2963 
Q 2534 3019 2420 3045 
Q 2306 3072 2169 3072 
Q 1681 3072 1420 2755 
Q 1159 2438 1159 1844 
L 1159 0 
L 581 0 
L 581 3500 
L 1159 3500 
L 1159 2956 
Q 1341 3275 1631 3429 
Q 1922 3584 2338 3584 
Q 2397 3584 2469 3576 
Q 2541 3569 2628 3553 
L 2631 2963 
z
" transform="scale(0.015625)"/>
       <path id="DejaVuSans-64" d="M 2906 2969 
L 2906 4863 
L 3481 4863 
L 3481 0 
L 2906 0 
L 2906 525 
Q 2725 213 2448 61 
Q 2172 -91 1784 -91 
Q 1150 -91 751 415 
Q 353 922 353 1747 
Q 353 2572 751 3078 
Q 1150 3584 1784 3584 
Q 2172 3584 2448 3432 
Q 2725 3281 2906 2969 
z
M 947 1747 
Q 947 1113 1208 752 
Q 1469 391 1925 391 
Q 2381 391 2643 752 
Q 2906 1113 2906 1747 
Q 2906 2381 2643 2742 
Q 2381 3103 1925 3103 
Q 1469 3103 1208 2742 
Q 947 2381 947 1747 
z
" transform="scale(0.015625)"/>
      </defs>
      <use xlink:href="#DejaVuSans-52"/>
      <use xlink:href="#DejaVuSans-65" x="64.982422"/>
      <use xlink:href="#DejaVuSans-77" x="126.505859"/>
      <use xlink:href="#DejaVuSans-61" x="208.292969"/>
      <use xlink:href="#DejaVuSans-72" x="269.572266"/>
      <use xlink:href="#DejaVuSans-64" x="308.935547"/>
      <use xlink:href="#DejaVuSans-73" x="372.412109"/>
     </g>
    </g>
   </g>
   <g id="line2d_31">
    <path d="M 115.363636 344.38914 
L 115.653589 344.416182 
L 116.088519 344.35195 
L 116.668425 344.496022 
L 117.248331 344.839166 
L 117.828237 345.46622 
L 118.408143 346.365905 
L 119.278002 348.207959 
L 120.14786 350.19252 
L 122.322508 354.265234 
L 122.757437 354.651395 
L 123.48232 355.112388 
L 123.772273 355.283452 
L 124.207202 356.131535 
L 124.932084 357.904405 
L 125.367014 358.969281 
L 126.236873 359.795183 
L 127.396685 360.639785 
L 127.686638 360.429851 
L 128.701473 359.250599 
L 128.991426 359.212039 
L 129.716309 359.361933 
L 130.296215 359.171922 
L 130.586167 358.755127 
L 131.166073 357.731402 
L 131.601003 357.218069 
L 131.890956 357.231512 
L 133.050768 358.095919 
L 133.340721 357.966126 
L 133.630674 357.749316 
L 134.065603 357.84463 
L 134.355556 358.140928 
L 134.645509 358.709342 
L 135.660345 361.267939 
L 135.950297 361.599452 
L 136.24025 361.59558 
L 136.530203 361.402521 
L 136.965133 360.94003 
L 137.545039 360.667907 
L 138.414898 361.002901 
L 138.849827 361.084956 
L 139.57471 361.131147 
L 140.009639 361.479327 
L 140.299592 361.484581 
L 140.589545 361.480369 
L 141.169451 360.798823 
L 141.749357 360.325164 
L 141.894333 360.232882 
L 142.184286 360.48988 
L 143.344098 362.068294 
L 143.779028 361.998736 
L 144.213957 361.740124 
L 144.648887 361.468882 
L 145.518746 361.413633 
L 145.808699 361.307334 
L 146.678558 360.569676 
L 147.113487 360.616901 
L 148.128322 361.284093 
L 148.563252 361.077638 
L 149.578087 360.272723 
L 149.86804 360.285195 
L 150.157993 360.556133 
L 150.882876 361.608951 
L 151.607758 362.04626 
L 152.042688 362.128582 
L 152.33264 362.35462 
L 152.912546 363.306901 
L 153.492452 363.94781 
L 153.782405 364.045556 
L 154.072358 363.739607 
L 154.797241 362.919142 
L 155.23217 362.538397 
L 155.6671 362.880788 
L 156.102029 363.706331 
L 156.971888 366.098724 
L 157.116865 366.212608 
L 157.551794 365.974885 
L 157.841747 365.282284 
L 158.276676 363.835913 
L 158.711606 363.139096 
L 159.001559 362.722288 
L 159.291512 362.678463 
L 159.581465 362.803115 
L 160.161371 362.540647 
L 160.451324 362.338501 
L 160.886253 361.925454 
L 161.321183 361.939243 
L 161.901089 362.165988 
L 162.191042 362.504024 
L 162.770948 362.745101 
L 163.350853 362.643482 
L 163.640806 362.491338 
L 164.365689 362.571507 
L 165.090571 362.880182 
L 165.670477 362.726617 
L 166.830289 361.436128 
L 167.555172 360.255907 
L 168.135078 358.981753 
L 168.85996 357.84407 
L 169.149913 357.826451 
L 169.439866 358.029722 
L 169.729819 358.53971 
L 170.164748 359.426158 
L 170.599678 360.313837 
L 170.889631 360.908379 
L 171.32456 361.24928 
L 171.614513 361.340526 
L 172.049443 360.951001 
L 172.629349 360.14947 
L 173.209255 359.565453 
L 173.644184 359.300867 
L 174.22409 359.095828 
L 174.514043 359.2754 
L 175.963808 361.151843 
L 176.833667 361.304448 
L 177.12362 360.995767 
L 177.848502 359.699478 
L 178.283432 359.382642 
L 178.718361 359.410222 
L 179.008314 359.303217 
L 179.298267 358.798003 
L 180.313102 356.46777 
L 180.458079 356.404083 
L 180.748032 356.682899 
L 181.182961 357.613986 
L 181.907844 359.65846 
L 182.197797 359.993293 
L 182.632726 360.18624 
L 183.357609 359.498048 
L 183.647562 359.563963 
L 184.082491 359.873104 
L 184.662397 360.67635 
L 185.097327 360.747605 
L 185.532256 360.49379 
L 185.967185 359.979796 
L 186.257138 359.991377 
L 186.692068 360.317415 
L 186.982021 360.634768 
L 187.41695 361.421706 
L 187.706903 361.57227 
L 187.996856 361.46675 
L 188.431786 361.14501 
L 188.866715 360.536551 
L 189.301645 360.479126 
L 189.736574 360.708247 
L 190.171504 361.145681 
L 190.31648 361.094304 
L 190.751409 360.359055 
L 191.766245 357.994995 
L 192.056198 358.029361 
L 192.926057 358.891705 
L 193.21601 358.883779 
L 193.505963 358.584328 
L 193.940892 357.908858 
L 194.520798 357.745913 
L 194.810751 357.794431 
L 195.68061 358.902771 
L 196.260516 359.570989 
L 196.695445 359.507096 
L 197.130375 359.140017 
L 197.565304 358.661023 
L 198.000234 358.442031 
L 198.290187 358.195161 
L 198.58014 357.985501 
L 200.029905 356.495134 
L 200.319858 356.470218 
L 200.899764 356.806651 
L 201.189717 357.107417 
L 201.914599 358.083814 
L 202.784458 358.565859 
L 203.219387 358.477673 
L 203.50934 358.391567 
L 203.799293 358.134624 
L 204.234223 358.158937 
L 204.524176 358.247483 
L 204.959105 358.170378 
L 205.249058 358.31701 
L 205.539011 357.975014 
L 205.973941 357.155329 
L 206.40887 356.96031 
L 206.698823 356.498334 
L 206.988776 356.397224 
L 207.278729 356.546028 
L 207.423705 356.619465 
L 207.858635 356.395818 
L 208.293564 356.991253 
L 208.583517 357.406417 
L 209.163423 357.502948 
L 209.3084 357.434278 
L 209.743329 356.605088 
L 210.468212 354.928724 
L 210.758165 354.498065 
L 211.483047 354.262638 
L 212.062953 354.993354 
L 212.932812 356.180647 
L 213.367741 356.39636 
L 213.657694 356.441708 
L 214.092624 356.843136 
L 214.527553 357.322931 
L 214.962483 357.535605 
L 215.687365 357.495636 
L 215.977318 357.362467 
L 216.412248 357.547127 
L 216.702201 357.613368 
L 218.151965 355.878419 
L 218.586895 355.96673 
L 219.311777 356.599333 
L 220.03666 357.186861 
L 220.761542 356.995436 
L 221.196472 356.527312 
L 221.486425 356.279681 
L 223.516096 355.993963 
L 224.675907 356.985502 
L 224.96586 356.612213 
L 225.545766 355.540196 
L 226.125672 354.819224 
L 226.270649 354.771927 
L 226.705578 355.098322 
L 226.995531 354.746643 
L 228.010367 353.219454 
L 228.155343 353.190353 
L 228.590273 354.004836 
L 229.170178 355.198622 
L 229.460131 355.545597 
L 229.605108 355.549046 
L 230.040037 354.955707 
L 230.619943 354.012242 
L 231.199849 353.515917 
L 231.344826 353.501282 
L 231.924732 353.821153 
L 232.214685 353.872267 
L 232.504638 354.259383 
L 232.794591 354.690054 
L 233.22952 354.766954 
L 233.809426 354.84863 
L 234.389332 354.439763 
L 234.824261 354.647819 
L 235.114214 355.081808 
L 235.549144 355.952712 
L 236.419003 356.918359 
L 236.998909 356.897151 
L 237.433838 357.700864 
L 237.723791 358.07992 
L 238.303697 358.424752 
L 238.448674 358.383494 
L 238.738627 357.812114 
L 239.898439 354.153038 
L 240.188391 353.778951 
L 240.333368 353.746715 
L 240.623321 353.881343 
L 240.913274 353.855064 
L 241.49318 354.293342 
L 241.928109 354.227688 
L 242.218062 354.476006 
L 242.363039 354.308553 
L 242.508015 353.75258 
L 242.797968 348.887983 
L 243.95778 324.440897 
L 244.102757 324.670359 
L 244.972616 339.623971 
L 245.407545 345.973744 
L 245.552521 346.340596 
L 245.987451 343.329979 
L 246.277404 343.206325 
L 246.567357 343.022499 
L 247.002286 341.716151 
L 247.292239 342.313356 
L 247.582192 342.185218 
L 247.872145 342.492944 
L 248.017122 342.805906 
L 249.32191 350.032966 
L 249.466887 350.043622 
L 249.611863 349.534886 
L 250.336746 344.312322 
L 250.771675 341.104701 
L 250.916652 340.934726 
L 251.061628 341.293647 
L 251.496557 344.144732 
L 252.366416 351.883818 
L 252.511393 351.686686 
L 252.946322 349.147615 
L 253.381252 344.800599 
L 253.671205 341.142838 
L 253.961158 339.641621 
L 254.251111 339.42335 
L 254.541064 339.687992 
L 254.68604 339.312157 
L 254.831017 339.288027 
L 255.265946 341.181006 
L 255.845852 342.441845 
L 255.990829 342.218315 
L 256.135805 342.35182 
L 256.280782 342.898024 
L 256.425758 342.993614 
L 256.570734 342.607391 
L 257.005664 339.659808 
L 257.295617 337.406046 
L 257.440593 337.248716 
L 257.58557 337.397315 
L 257.875523 336.610228 
L 258.020499 337.168744 
L 258.310452 339.240279 
L 258.600405 340.162835 
L 258.745382 340.223764 
L 259.180311 338.558998 
L 259.325288 338.083947 
L 259.760217 335.279101 
L 259.905194 335.392699 
L 260.05017 335.303884 
L 260.195147 335.47506 
L 260.4851 336.565812 
L 260.630076 336.413384 
L 260.775053 335.744921 
L 261.065006 332.601757 
L 261.499935 322.270797 
L 261.789888 312.697054 
L 262.369794 283.060418 
L 263.674582 217.035783 
L 263.819559 214.986349 
L 263.964535 214.536366 
L 264.109512 216.258488 
L 265.269324 241.487053 
L 265.4143 241.863874 
L 265.559277 240.981197 
L 265.84923 237.537051 
L 266.284159 234.837315 
L 266.574112 232.944328 
L 266.864065 234.193047 
L 267.009042 234.69401 
L 267.298995 239.372272 
L 268.023877 256.362714 
L 268.168853 257.090503 
L 268.748759 262.702122 
L 268.893736 262.434502 
L 269.038712 260.595455 
L 270.053548 225.407157 
L 270.633454 206.326654 
L 270.77843 205.924144 
L 270.923407 205.064072 
L 271.068383 205.303952 
L 271.503313 211.390566 
L 271.793266 210.669359 
L 272.228195 208.727792 
L 272.518148 210.910274 
L 272.808101 208.863234 
L 272.953078 208.723885 
L 273.098054 210.447506 
L 273.532983 219.26314 
L 274.547819 228.669781 
L 274.837772 227.540558 
L 274.982748 227.6989 
L 275.127725 226.829676 
L 275.997584 212.912262 
L 276.14256 212.875358 
L 276.432513 218.948616 
L 277.447349 246.719029 
L 277.592325 248.368831 
L 277.737302 247.869142 
L 279.187066 234.519494 
L 279.477019 225.163643 
L 280.201902 182.270439 
L 281.071761 133.952157 
L 281.94162 118.31502 
L 282.376549 113.122214 
L 282.811479 107.911786 
L 282.956455 107.013864 
L 283.101432 107.246835 
L 283.246408 108.622091 
L 283.536361 115.048333 
L 284.116267 134.617018 
L 284.40622 138.604675 
L 284.551196 138.663287 
L 284.696173 138.265044 
L 284.841149 137.374789 
L 284.986126 134.831699 
L 285.566032 118.135588 
L 285.855985 114.925587 
L 286.000961 114.569232 
L 286.435891 112.470149 
L 286.725844 112.547955 
L 286.87082 113.08481 
L 287.160773 115.139525 
L 287.30575 115.180628 
L 287.450726 114.70117 
L 287.595703 114.686966 
L 288.030632 113.237053 
L 288.175609 113.724928 
L 288.320585 114.603492 
L 288.465562 113.896462 
L 288.900491 108.479044 
L 289.190444 106.720717 
L 289.480397 107.871155 
L 289.625373 107.042112 
L 289.77035 105.349873 
L 289.915326 105.145475 
L 290.205279 110.856391 
L 290.785185 124.731107 
L 291.075138 128.574738 
L 291.365091 134.647082 
L 291.510068 134.607375 
L 291.800021 129.075302 
L 292.23495 117.294666 
L 292.66988 105.683145 
L 292.959833 98.38645 
L 293.104809 98.120173 
L 293.394762 100.289075 
L 293.829692 105.085131 
L 294.119645 112.188965 
L 294.409598 119.854352 
L 294.699551 122.94073 
L 294.844527 124.086248 
L 295.569409 133.63312 
L 295.714386 133.727894 
L 295.859362 133.328997 
L 296.004339 132.519397 
L 296.294292 132.703779 
L 296.439268 131.294165 
L 296.874198 124.968426 
L 297.454104 116.069821 
L 298.03401 106.110878 
L 298.323963 103.229569 
L 298.468939 103.956643 
L 298.613916 105.690383 
L 298.903869 114.741778 
L 299.483775 149.736473 
L 300.208657 199.374208 
L 300.643586 216.112356 
L 300.933539 221.207254 
L 301.368469 219.345576 
L 301.803398 213.388128 
L 302.093351 201.696342 
L 302.96321 161.499873 
L 303.253163 153.03938 
L 303.39814 152.690347 
L 303.543116 155.125443 
L 304.412975 183.475505 
L 304.557952 184.395271 
L 304.702928 182.87316 
L 304.992881 174.840917 
L 305.717764 143.163955 
L 306.152693 133.895991 
L 306.587622 132.92257 
L 306.732599 132.828091 
L 307.022552 129.074637 
L 307.312505 124.602867 
L 307.602458 125.943584 
L 307.747434 125.674234 
L 307.892411 126.385763 
L 308.32734 132.350136 
L 308.76227 143.552544 
L 308.907246 144.449357 
L 309.197199 144.571336 
L 309.487152 143.49615 
L 309.632129 143.895645 
L 309.777105 143.831643 
L 310.212035 138.344326 
L 310.357011 138.73621 
L 310.646964 142.219367 
L 310.791941 142.83165 
L 310.936917 142.587417 
L 311.081894 141.928835 
L 311.22687 142.180813 
L 311.516823 149.17928 
L 312.096729 165.670652 
L 313.546494 243.30848 
L 313.69147 244.237149 
L 314.1264 239.439302 
L 314.416353 233.475726 
L 314.561329 232.768185 
L 314.996259 235.34026 
L 315.431188 247.019478 
L 316.156071 270.585613 
L 316.301047 271.713946 
L 316.446024 271.140691 
L 316.880953 264.539479 
L 317.750812 240.679266 
L 317.895788 240.88121 
L 318.185741 243.560031 
L 318.330718 244.178025 
L 318.620671 248.224714 
L 318.765647 250.085106 
L 318.910624 250.42114 
L 319.200577 254.064626 
L 319.345553 254.007281 
L 319.49053 252.568975 
L 319.635506 252.599671 
L 319.925459 256.300273 
L 320.070436 256.787968 
L 320.940295 264.796721 
L 321.085271 265.365954 
L 321.665177 259.798878 
L 322.100107 256.609438 
L 322.245083 256.470747 
L 322.535036 254.658481 
L 322.680012 254.93869 
L 322.969965 257.503599 
L 323.259918 261.653425 
L 323.404895 262.74825 
L 323.549871 262.59023 
L 323.694848 261.499803 
L 323.839824 261.306788 
L 324.129777 262.458272 
L 324.274754 262.647112 
L 324.41973 262.47559 
L 324.564707 262.098397 
L 324.709683 262.274829 
L 324.999636 266.427696 
L 325.434566 272.919816 
L 325.579542 273.517852 
L 325.724519 272.566399 
L 326.159448 264.938598 
L 326.594378 254.538623 
L 327.174284 240.749848 
L 327.31926 241.181913 
L 327.609213 243.904936 
L 328.769025 261.672174 
L 329.203954 257.593978 
L 329.493907 254.873786 
L 329.638884 255.280117 
L 330.21879 259.605721 
L 330.798696 270.892618 
L 330.943672 271.110549 
L 331.088649 269.957361 
L 331.523578 264.568103 
L 331.813531 264.7871 
L 331.958508 264.547763 
L 332.103484 264.673758 
L 332.248461 265.306327 
L 332.828367 272.344566 
L 332.973343 272.455235 
L 333.553249 267.350169 
L 333.843202 260.953182 
L 334.278131 248.884686 
L 334.713061 239.776365 
L 335.003014 232.457418 
L 335.14799 231.173462 
L 335.292967 231.973936 
L 336.452779 249.333246 
L 336.597755 249.235913 
L 336.742732 248.578468 
L 337.032685 245.050912 
L 337.612591 231.966546 
L 337.757567 232.358547 
L 338.337473 240.720737 
L 339.207332 258.622549 
L 339.497285 256.012524 
L 340.367144 242.422171 
L 340.802073 230.155348 
L 341.237003 217.648227 
L 341.671932 201.989637 
L 341.816909 202.05647 
L 342.541791 217.639316 
L 343.121697 243.047307 
L 343.41165 246.733636 
L 343.701603 248.639295 
L 343.84658 248.213941 
L 344.861415 239.897097 
L 345.151368 237.421799 
L 345.296344 235.534962 
L 345.731274 222.704479 
L 346.891086 183.188149 
L 347.326015 179.158365 
L 347.760945 183.065211 
L 348.050898 188.499558 
L 349.21071 227.158581 
L 349.645639 242.307044 
L 349.935592 245.11019 
L 350.515498 240.914718 
L 350.660474 238.468566 
L 351.385357 216.07961 
L 351.820286 210.51025 
L 351.965263 211.557885 
L 352.400192 218.441848 
L 352.690145 226.442406 
L 353.125075 239.005309 
L 353.270051 240.844236 
L 353.704981 238.0075 
L 353.849957 238.143588 
L 353.994934 237.747193 
L 354.429863 233.105894 
L 354.719816 227.467714 
L 354.864793 227.888116 
L 355.154746 229.18558 
L 355.299722 228.652372 
L 355.589675 225.605666 
L 355.879628 218.962139 
L 356.169581 220.484389 
L 356.459534 215.731207 
L 356.894463 207.380675 
L 357.03944 206.918497 
L 357.474369 212.89073 
L 357.619346 213.677978 
L 357.909299 221.994543 
L 358.344228 234.311318 
L 358.634181 236.457322 
L 359.069111 238.188714 
L 359.214087 237.76895 
L 359.50404 235.350104 
L 359.649017 234.731844 
L 359.793993 235.173456 
L 360.083946 238.07983 
L 360.663852 239.148451 
L 360.808828 238.912656 
L 360.953805 238.156331 
L 361.243758 238.380818 
L 361.388734 237.678769 
L 361.678687 237.464369 
L 361.96864 235.583129 
L 362.693523 228.207264 
L 363.128452 221.702581 
L 363.273429 221.864454 
L 363.418405 221.812881 
L 363.563382 221.591873 
L 363.708358 221.707738 
L 363.853335 222.272647 
L 363.998311 221.877511 
L 364.143288 221.819481 
L 364.288264 222.118115 
L 364.433241 221.539085 
L 364.578217 219.029046 
L 365.158123 202.572739 
L 365.448076 197.567674 
L 365.738029 194.054215 
L 365.883006 193.696294 
L 366.027982 195.40813 
L 367.187794 231.790548 
L 367.477747 234.506829 
L 367.622723 233.875242 
L 367.912676 231.339137 
L 368.347606 222.99485 
L 368.492582 219.485699 
L 368.637559 218.823568 
L 368.927512 222.867738 
L 369.362441 231.527776 
L 370.087324 251.495639 
L 370.2323 251.382421 
L 370.377277 250.461995 
L 370.812206 241.850293 
L 371.537089 222.661782 
L 371.972018 210.914651 
L 372.406947 204.570152 
L 372.6969 199.682979 
L 372.841877 198.363763 
L 372.986853 198.564804 
L 373.276806 202.71498 
L 374.291642 222.712554 
L 374.581595 227.335087 
L 375.161501 231.765263 
L 375.451454 235.824823 
L 375.59643 236.264305 
L 375.741407 236.087536 
L 375.886383 236.2768 
L 376.03136 237.09214 
L 376.466289 243.52717 
L 376.611266 243.363842 
L 377.191172 238.843459 
L 377.336148 238.305757 
L 377.481124 236.932486 
L 378.206007 221.679189 
L 378.350983 220.462379 
L 378.640936 212.977605 
L 379.945725 168.168592 
L 380.090701 167.845417 
L 380.235678 169.292792 
L 380.525631 176.416191 
L 380.96056 188.120873 
L 381.105537 188.990257 
L 381.250513 188.562034 
L 381.39549 185.703496 
L 381.685443 171.103531 
L 382.700278 109.423435 
L 382.990231 105.585969 
L 383.280184 107.925532 
L 383.86009 114.672046 
L 385.019902 136.690031 
L 385.164878 136.669547 
L 385.599808 127.853103 
L 386.469667 94.618492 
L 386.614643 92.960349 
L 386.75962 92.964951 
L 386.904596 93.388909 
L 387.049573 94.459631 
L 387.629479 104.045998 
L 387.919432 103.969169 
L 388.209384 101.620151 
L 388.499337 98.330337 
L 388.644314 99.369017 
L 388.78929 102.877418 
L 389.079243 119.299452 
L 389.514173 164.454127 
L 390.384032 269.189536 
L 390.673985 285.821409 
L 390.963938 292.526447 
L 391.108914 293.778326 
L 391.253891 293.790243 
L 391.398867 293.931879 
L 391.543844 294.470896 
L 391.68882 293.748715 
L 392.12375 288.34989 
L 392.268726 288.109578 
L 392.413703 286.909909 
L 392.703656 280.16166 
L 393.718491 236.969083 
L 394.298397 200.408003 
L 394.878303 175.638554 
L 395.023279 174.152906 
L 395.168256 175.262832 
L 396.183091 192.976793 
L 396.328068 193.310641 
L 396.473044 192.676657 
L 397.05295 187.31263 
L 398.067786 161.508656 
L 398.502715 160.164867 
L 398.647692 161.838171 
L 398.937645 170.132184 
L 399.662527 200.163531 
L 400.387409 216.697089 
L 401.112292 223.57976 
L 401.257268 224.111744 
L 401.402245 223.890758 
L 401.692198 221.171647 
L 401.982151 215.787085 
L 402.41708 203.253259 
L 402.85201 189.96333 
L 403.721869 171.447744 
L 404.156798 173.114463 
L 404.301775 171.635553 
L 404.591728 167.42025 
L 404.736704 166.070308 
L 405.171633 155.634351 
L 405.751539 138.075254 
L 405.896516 137.965349 
L 406.186469 139.06606 
L 407.346281 158.696054 
L 407.491257 157.806459 
L 407.636234 155.586492 
L 408.21614 135.870359 
L 409.230975 83.229664 
L 409.665905 75.296471 
L 409.810881 75.090598 
L 410.100834 77.551515 
L 410.535763 86.844406 
L 410.825716 93.475854 
L 411.115669 96.539109 
L 411.405622 102.892504 
L 411.985528 121.163785 
L 412.420458 132.418466 
L 412.710411 138.847279 
L 412.855387 137.982343 
L 413.290317 125.186922 
L 413.725246 111.933313 
L 414.160176 103.547904 
L 414.305152 102.886182 
L 414.450129 104.544619 
L 414.740082 112.079486 
L 415.464964 134.663736 
L 415.899893 142.190208 
L 416.04487 141.972466 
L 416.479799 140.649619 
L 416.769752 135.778324 
L 417.204682 125.606987 
L 417.639611 119.747427 
L 418.219517 107.647344 
L 418.654447 103.051087 
L 419.234353 91.88142 
L 419.959235 83.139226 
L 420.104212 83.15052 
L 420.394165 88.181172 
L 421.264023 110.221275 
L 421.553976 117.534423 
L 421.843929 119.082381 
L 421.988906 120.05911 
L 422.133882 120.149141 
L 422.278859 119.798109 
L 422.423835 120.332239 
L 422.568812 121.319012 
L 422.713788 120.980858 
L 423.003741 118.794283 
L 423.8736 108.269615 
L 424.163553 105.311576 
L 424.453506 104.784204 
L 424.598483 104.798753 
L 424.743459 104.594466 
L 424.888436 104.168279 
L 426.048248 94.033059 
L 426.193224 93.577233 
L 426.338201 93.560853 
L 426.483177 93.98133 
L 426.918106 96.786786 
L 427.063083 97.225226 
L 427.932942 102.68123 
L 428.077918 102.283852 
L 428.512848 97.547861 
L 429.382707 82.090234 
L 429.527683 81.632882 
L 429.817636 83.809856 
L 430.252566 89.255055 
L 430.832472 97.176003 
L 430.977448 96.721246 
L 431.267401 95.372633 
L 431.412378 95.368917 
L 431.557354 94.92703 
L 432.282236 88.774502 
L 432.427213 88.573239 
L 432.572189 87.709407 
L 433.152095 82.039769 
L 433.876978 77.193683 
L 434.311907 74.042172 
L 435.326743 68.093132 
L 435.906649 68.100371 
L 436.051625 68.560244 
L 437.356414 76.641288 
L 437.50139 76.628679 
L 437.646366 76.170484 
L 437.936319 76.156791 
L 438.081296 76.599969 
L 438.371249 79.035144 
L 439.386084 93.244969 
L 439.531061 93.694123 
L 439.676037 93.25743 
L 439.96599 88.392709 
L 440.40092 80.418664 
L 440.835849 76.025343 
L 440.980826 75.812617 
L 441.125802 77.385937 
L 441.415755 86.759 
L 442.575567 131.434547 
L 442.720544 131.575318 
L 443.300449 129.859474 
L 443.590402 128.14041 
L 443.735379 128.011148 
L 443.880355 128.988265 
L 444.170308 132.629741 
L 444.315285 132.830076 
L 444.605238 130.528434 
L 444.895191 126.870698 
L 445.620073 110.129508 
L 445.910026 107.781184 
L 446.489932 98.602007 
L 446.779885 93.3026 
L 447.504768 75.271677 
L 448.084674 68.66486 
L 448.22965 68.649626 
L 449.534438 76.248688 
L 449.679415 76.263208 
L 449.969368 74.585885 
L 450.114344 74.415713 
L 450.404297 75.441505 
L 450.69425 77.821392 
L 451.12918 82.48098 
L 451.564109 87.966914 
L 451.854062 87.077569 
L 452.144015 83.450736 
L 453.013874 70.385462 
L 453.448804 68.065263 
L 454.173686 68.034123 
L 454.753592 68.122878 
L 454.898568 68.560608 
L 455.478474 72.523192 
L 456.348333 82.377851 
L 456.783263 84.915741 
L 456.928239 84.909191 
L 457.073216 84.463986 
L 457.653122 84.52585 
L 457.798098 84.12748 
L 458.667957 78.51487 
L 459.39284 71.113902 
L 459.827769 68.97173 
L 459.972745 69.436037 
L 461.132557 76.367539 
L 461.277534 76.351363 
L 462.582322 68.562315 
L 462.727299 68.809771 
L 463.162228 73.7659 
L 463.452181 83.471141 
L 464.177064 120.374306 
L 464.75697 150.289124 
L 465.191899 155.388038 
L 465.481852 154.95292 
L 465.626828 155.461262 
L 465.771805 154.329025 
L 466.061758 150.067472 
L 466.206734 151.195669 
L 467.22157 168.131472 
L 467.366546 169.930459 
L 467.511523 170.094116 
L 467.656499 169.984082 
L 467.801476 170.04241 
L 467.946452 170.336402 
L 468.091429 170.001221 
L 468.236405 169.243182 
L 468.381382 170.263244 
L 468.671335 172.926031 
L 468.961288 173.416309 
L 469.106264 171.477421 
L 469.396217 162.502623 
L 469.831147 141.196211 
L 470.411053 111.395085 
L 470.845982 101.105451 
L 471.280911 95.134179 
L 471.570864 92.896162 
L 472.005794 83.3256 
L 472.295747 78.107213 
L 472.730676 75.189615 
L 473.020629 73.877434 
L 473.165606 74.961344 
L 474.615371 101.349308 
L 475.340253 97.528739 
L 475.48523 97.503509 
L 475.630206 96.155813 
L 476.065135 90.125018 
L 476.210112 90.3564 
L 476.355088 89.929781 
L 477.079971 81.890421 
L 477.224947 81.471518 
L 477.659877 77.529465 
L 477.804853 77.753063 
L 478.094806 81.499388 
L 479.109642 95.578758 
L 479.254618 95.120812 
L 479.544571 90.229379 
L 480.559407 70.314199 
L 480.704383 69.664883 
L 480.84936 70.347016 
L 482.299124 83.042251 
L 483.168983 83.076004 
L 483.458936 84.170962 
L 483.603913 84.390371 
L 483.893866 86.564417 
L 484.763725 95.833467 
L 485.198654 92.099751 
L 485.488607 86.829429 
L 486.068513 76.655746 
L 486.21349 75.535856 
L 486.358466 75.971126 
L 486.793396 79.050787 
L 487.228325 83.522042 
L 487.373301 84.201133 
L 487.663254 86.012751 
L 488.533113 83.460237 
L 488.67809 83.462114 
L 488.823066 83.026032 
L 489.113019 80.827856 
L 489.257996 80.389476 
L 489.402972 80.396509 
L 489.547949 80.845723 
L 489.837902 83.05047 
L 491.14269 94.661867 
L 491.57762 94.67715 
L 491.722596 95.114949 
L 491.867573 95.992833 
L 492.012549 95.545772 
L 492.592455 87.112129 
L 492.882408 82.408267 
L 493.172361 81.049718 
L 493.317337 80.600855 
L 493.462314 81.252117 
L 493.752267 85.554215 
L 494.477149 103.375434 
L 494.767102 103.874293 
L 494.912079 103.261832 
L 495.057055 101.779516 
L 495.491985 90.765156 
L 495.926914 82.3758 
L 496.361844 80.878207 
L 496.50682 81.075559 
L 496.796773 82.962539 
L 497.086726 82.957909 
L 497.376679 84.057672 
L 497.666632 83.083923 
L 497.811609 83.034852 
L 498.101561 83.857715 
L 498.391514 86.002621 
L 498.681467 87.935876 
L 498.826444 88.355568 
L 499.261373 92.295476 
L 499.986256 92.274135 
L 500.131232 92.051633 
L 500.276209 91.610069 
L 500.566162 88.084479 
L 501.001091 83.668372 
L 501.146068 82.776243 
L 501.291044 82.757208 
L 501.580997 83.823655 
L 501.87095 86.014912 
L 502.30588 95.743886 
L 502.740809 106.384402 
L 503.175739 110.420692 
L 503.320715 111.318966 
L 503.465691 110.882204 
L 503.900621 104.678424 
L 504.33555 95.621282 
L 504.625503 94.293971 
L 505.205409 92.570391 
L 505.350386 92.592106 
L 505.495362 93.481964 
L 505.640339 93.482994 
L 506.220245 85.100965 
L 506.800151 79.308892 
L 507.090104 77.297774 
L 507.380057 77.263421 
L 507.525033 77.909062 
L 508.684845 87.93519 
L 508.829822 88.372608 
L 508.974798 87.49038 
L 510.279586 68.953024 
L 510.424563 68.932847 
L 511.729351 80.764858 
L 511.874328 80.773282 
L 512.59921 74.62539 
L 513.03414 73.25403 
L 513.179116 73.238583 
L 513.469069 76.098703 
L 513.759022 80.296686 
L 514.048975 85.617223 
L 514.628881 90.109695 
L 515.06381 88.830509 
L 515.353763 83.977649 
L 515.49874 81.767215 
L 515.643716 81.325281 
L 515.788693 81.765617 
L 515.933669 82.647838 
L 516.223622 87.055694 
L 516.803528 101.396479 
L 517.093481 105.822656 
L 517.238458 105.597739 
L 517.383434 105.146319 
L 517.673387 101.606176 
L 518.543246 85.222579 
L 519.703058 71.691593 
L 519.993011 70.423002 
L 520.137987 70.669033 
L 520.42794 72.914027 
L 521.297799 82.651199 
L 521.442776 83.091 
L 521.732729 84.847937 
L 521.877705 84.845008 
L 523.037517 77.282803 
L 523.472447 73.304293 
L 524.342306 68.53331 
L 524.922212 68.617667 
L 525.067188 69.984239 
L 525.357141 80.845682 
L 525.647094 102.601811 
L 526.082023 155.717833 
L 527.096859 307.386965 
L 527.531788 336.231809 
L 527.821741 341.808114 
L 528.256671 341.86285 
L 545.508873 341.88899 
L 548.698355 341.863407 
L 595.815714 341.698492 
L 599.440126 341.695161 
L 622.636364 341.68998 
L 622.636364 341.68998 
" clip-path="url(#p7904130165)" style="fill: none; stroke: #ff0000; stroke-width: 1.5; stroke-linecap: square"/>
   </g>
   <g id="line2d_32">
    <path d="M 115.363636 344.38914 
L 115.508613 344.464942 
L 115.943542 344.27429 
L 116.233495 344.406343 
L 116.668425 345.279909 
L 117.103354 346.091328 
L 117.68326 346.847273 
L 118.408143 348.723264 
L 118.698096 349.974852 
L 118.843072 350.306125 
L 119.133025 350.374267 
L 119.278002 350.698471 
L 119.567954 351.608119 
L 119.857907 350.699161 
L 120.002884 350.914756 
L 120.437813 353.478403 
L 120.872743 352.597433 
L 121.452649 355.647456 
L 121.597625 354.93618 
L 121.742602 355.207711 
L 121.887578 354.948463 
L 122.032555 355.092396 
L 122.612461 353.981498 
L 123.04739 356.932385 
L 123.192367 356.79553 
L 123.627296 355.63048 
L 123.772273 356.325726 
L 124.062226 359.734153 
L 124.207202 361.274849 
L 124.352179 361.544369 
L 124.787108 359.143593 
L 124.932084 358.972263 
L 125.077061 359.125276 
L 125.222037 358.697893 
L 125.367014 359.094715 
L 125.51199 358.927683 
L 125.656967 359.980959 
L 125.801943 360.15636 
L 125.94692 361.707053 
L 126.091896 361.922243 
L 126.236873 362.44545 
L 126.671802 360.879023 
L 126.961755 358.939957 
L 127.106732 358.928176 
L 127.251708 359.185393 
L 127.686638 358.156921 
L 127.976591 359.2866 
L 128.266544 360.847821 
L 128.41152 360.445774 
L 128.701473 357.975615 
L 128.84645 358.245213 
L 129.136403 360.275519 
L 129.281379 360.29637 
L 129.426356 360.519535 
L 129.716309 359.001563 
L 130.006262 356.962867 
L 130.151238 356.757674 
L 130.296215 356.257831 
L 130.441191 356.21543 
L 130.586167 355.73704 
L 131.166073 358.069674 
L 131.456026 357.809727 
L 131.601003 357.849161 
L 132.035932 359.344222 
L 132.470862 357.333308 
L 132.615838 357.849772 
L 132.760815 357.764575 
L 132.905791 357.392153 
L 133.050768 356.552707 
L 133.195744 356.45988 
L 133.485697 356.945004 
L 133.77565 359.291095 
L 134.065603 362.059561 
L 134.21058 361.779177 
L 134.355556 361.03591 
L 134.500533 360.986322 
L 134.645509 361.633588 
L 134.935462 361.646019 
L 135.080439 361.338022 
L 135.370392 363.310439 
L 135.515368 363.280262 
L 135.805321 360.406686 
L 135.950297 359.945774 
L 136.095274 360.261638 
L 136.385227 358.761086 
L 136.530203 359.003692 
L 136.965133 362.790988 
L 137.110109 363.114296 
L 137.545039 360.048065 
L 137.834992 361.133203 
L 137.979968 361.477391 
L 138.269921 359.113476 
L 138.414898 359.557263 
L 138.704851 363.29015 
L 138.994804 361.693103 
L 139.13978 360.589382 
L 139.429733 362.740483 
L 139.57471 362.929006 
L 139.719686 361.363191 
L 139.864663 361.096628 
L 140.009639 360.170093 
L 140.154616 360.26637 
L 140.299592 360.176057 
L 140.444569 360.73297 
L 140.589545 360.296734 
L 140.879498 358.778762 
L 141.314427 361.771636 
L 141.60438 360.493046 
L 141.749357 359.275391 
L 141.894333 360.253633 
L 142.184286 364.602772 
L 142.329263 364.558438 
L 142.619216 361.604062 
L 142.764192 361.92524 
L 142.909169 362.5304 
L 143.054145 362.569962 
L 143.344098 359.944907 
L 143.489075 359.743361 
L 143.779028 362.219711 
L 143.924004 362.170163 
L 144.068981 360.113742 
L 144.213957 360.420487 
L 144.358934 361.070257 
L 144.50391 363.617953 
L 144.648887 363.492948 
L 144.793863 363.143023 
L 145.083816 359.833674 
L 145.228793 359.433244 
L 145.373769 359.92449 
L 145.518746 359.978869 
L 145.808699 359.396255 
L 145.953675 360.033603 
L 146.243628 361.774031 
L 146.388605 361.593829 
L 146.533581 360.131192 
L 146.678558 360.563908 
L 146.96851 362.927281 
L 147.40344 360.957674 
L 147.548416 361.298697 
L 147.693393 361.017869 
L 147.983346 360.037408 
L 148.273299 361.331101 
L 148.418275 360.831703 
L 148.708228 358.621056 
L 148.853205 358.384247 
L 149.143158 359.425091 
L 149.578087 363.499977 
L 150.013017 361.360558 
L 150.157993 362.180238 
L 150.447946 362.414544 
L 150.592923 361.634061 
L 150.737899 361.797622 
L 150.882876 361.594923 
L 151.172829 362.226238 
L 151.317805 362.022789 
L 151.462782 361.578243 
L 151.607758 361.575581 
L 151.897711 364.135837 
L 152.042688 364.219712 
L 152.33264 363.715966 
L 152.622593 366.326214 
L 152.76757 366.542597 
L 153.202499 362.092163 
L 153.347476 362.358705 
L 153.492452 363.124203 
L 153.782405 362.228357 
L 153.927382 361.99902 
L 154.217335 363.296075 
L 154.362311 364.094481 
L 154.507288 363.375938 
L 154.797241 361.366316 
L 154.942217 360.920005 
L 155.23217 362.119895 
L 155.6671 368.581657 
L 155.957053 369.36 
L 156.247006 366.529081 
L 156.391982 366.151858 
L 156.536959 366.568386 
L 156.681935 366.461462 
L 157.116865 361.786423 
L 157.551794 365.449099 
L 157.986723 359.155867 
L 158.1317 359.923662 
L 158.566629 364.275481 
L 158.711606 365.004286 
L 158.856582 364.357691 
L 159.001559 364.732883 
L 159.581465 359.298785 
L 159.726441 359.400938 
L 160.161371 363.54646 
L 160.306347 363.890194 
L 160.5963 361.506049 
L 160.741277 360.7079 
L 160.886253 361.189308 
L 161.03123 361.148395 
L 161.321183 363.043995 
L 161.466159 364.375456 
L 161.611136 363.814087 
L 161.756112 362.572022 
L 162.191042 364.452569 
L 162.480995 360.926886 
L 162.625971 361.191871 
L 162.770948 361.953829 
L 162.915924 361.904981 
L 163.060901 361.39948 
L 163.205877 361.332984 
L 163.350853 362.160866 
L 163.640806 364.571343 
L 163.785783 365.178534 
L 164.220712 361.815801 
L 164.365689 361.968055 
L 164.510665 362.441497 
L 164.655642 362.074142 
L 164.800618 362.197274 
L 165.090571 363.458444 
L 165.235548 363.87169 
L 165.815454 359.820542 
L 165.96043 360.087716 
L 166.105407 360.819172 
L 166.250383 362.431826 
L 166.39536 361.984696 
L 166.540336 360.83464 
L 166.685313 358.576832 
L 166.830289 358.568452 
L 167.120242 360.036206 
L 167.265219 359.135509 
L 167.555172 356.633448 
L 167.700148 356.810791 
L 167.845125 357.219739 
L 167.990101 357.097149 
L 168.135078 356.663871 
L 168.280054 356.796299 
L 168.425031 357.186329 
L 168.85996 360.863358 
L 169.004936 360.177309 
L 169.294889 357.868375 
L 169.439866 358.661121 
L 169.729819 362.257124 
L 169.874795 362.717424 
L 170.019772 361.425969 
L 170.164748 361.170705 
L 170.309725 361.185877 
L 170.454701 362.174382 
L 170.599678 362.135895 
L 170.744654 361.91476 
L 171.034607 360.979412 
L 171.179584 361.256936 
L 171.32456 360.95165 
L 171.469537 360.370515 
L 171.75949 357.879544 
L 171.904466 358.310023 
L 172.194419 360.18981 
L 172.339396 360.068413 
L 172.484372 360.601252 
L 172.774325 360.380709 
L 173.209255 356.76278 
L 173.354231 356.839036 
L 173.789161 360.842921 
L 173.934137 360.721446 
L 174.079114 359.972382 
L 174.22409 360.474857 
L 174.514043 362.481325 
L 175.093949 359.946099 
L 175.238925 359.949195 
L 175.528878 361.142667 
L 175.963808 364.423378 
L 176.253761 361.098906 
L 176.543714 358.54842 
L 176.978643 357.663191 
L 177.268596 358.6647 
L 177.848502 361.335114 
L 177.993479 360.692255 
L 178.138455 360.780005 
L 178.428408 358.87293 
L 179.008314 355.095847 
L 179.298267 354.33097 
L 179.443244 354.718624 
L 179.878173 357.650947 
L 180.023149 357.679724 
L 180.313102 358.139373 
L 180.458079 358.40286 
L 180.893008 360.236401 
L 181.182961 360.349211 
L 181.472914 363.04504 
L 181.617891 363.42876 
L 182.05282 356.209249 
L 182.197797 356.927377 
L 182.632726 360.061995 
L 182.777703 359.661822 
L 183.212632 361.015089 
L 183.357609 360.798095 
L 183.502585 359.920882 
L 183.647562 360.516075 
L 183.792538 360.605422 
L 183.937515 362.282588 
L 184.082491 361.511708 
L 184.227468 362.388281 
L 184.372444 361.397912 
L 184.517421 361.252717 
L 184.807374 358.436842 
L 184.95235 358.049612 
L 185.387279 360.498547 
L 185.532256 360.442886 
L 185.677232 359.21064 
L 185.967185 359.770225 
L 186.257138 362.255379 
L 186.402115 363.270384 
L 186.547091 363.443035 
L 186.982021 360.530084 
L 187.126997 361.474719 
L 187.271974 361.454283 
L 187.41695 361.956984 
L 187.561927 360.204992 
L 187.85188 359.962159 
L 187.996856 360.592034 
L 188.431786 359.12851 
L 188.721739 359.779817 
L 189.156668 364.018117 
L 189.591598 360.300688 
L 189.881551 360.851232 
L 190.026527 360.963894 
L 190.461457 355.876566 
L 190.606433 355.83102 
L 191.041362 356.701037 
L 191.476292 360.000962 
L 191.621268 359.816944 
L 191.766245 359.182751 
L 192.056198 360.247551 
L 192.201174 360.49063 
L 192.346151 359.959724 
L 192.636104 356.78161 
L 192.78108 356.234654 
L 192.926057 356.528288 
L 193.071033 357.340771 
L 193.360986 357.588996 
L 193.505963 357.557923 
L 193.650939 357.191918 
L 194.085869 359.430109 
L 194.665775 357.658922 
L 194.955728 358.955425 
L 195.245681 361.588387 
L 195.68061 360.381172 
L 195.825587 360.631882 
L 196.260516 356.030023 
L 196.405492 356.327373 
L 196.550469 357.603025 
L 196.695445 360.112963 
L 197.130375 358.218024 
L 197.275351 359.782824 
L 197.710281 356.496455 
L 197.855257 357.274847 
L 198.14521 356.63118 
L 198.290187 356.520795 
L 198.58014 358.001464 
L 199.015069 355.330271 
L 199.160046 355.680817 
L 199.305022 356.776405 
L 199.449999 356.533207 
L 199.594975 356.650966 
L 199.739952 355.938852 
L 199.884928 356.480474 
L 200.029905 356.36796 
L 200.319858 356.971553 
L 200.609811 359.340013 
L 200.754787 359.331426 
L 201.04474 357.659504 
L 201.189717 357.80183 
L 201.334693 358.970272 
L 201.47967 358.842507 
L 201.624646 358.985986 
L 201.769622 358.147674 
L 201.914599 358.236804 
L 202.204552 359.255654 
L 202.349528 359.27405 
L 202.639481 357.996239 
L 202.929434 357.321961 
L 203.364364 358.655541 
L 203.654317 356.234832 
L 203.799293 356.653864 
L 204.089246 361.245274 
L 204.234223 361.47536 
L 204.524176 358.53586 
L 204.814129 354.941474 
L 204.959105 354.668257 
L 205.249058 357.633783 
L 205.394035 357.521062 
L 205.683988 355.421698 
L 205.828964 355.441395 
L 206.263894 359.281315 
L 206.553847 355.217372 
L 206.698823 353.393748 
L 206.8438 353.664767 
L 207.423705 359.217788 
L 207.568682 359.703602 
L 207.858635 356.746346 
L 208.003611 356.479429 
L 208.293564 358.997323 
L 208.438541 359.231688 
L 208.728494 356.682276 
L 209.018447 354.437382 
L 209.163423 354.67779 
L 209.453376 352.943385 
L 209.598353 353.302351 
L 209.888306 356.48287 
L 210.323235 352.67914 
L 210.468212 354.19866 
L 210.613188 354.419667 
L 210.758165 354.428717 
L 210.903141 353.652177 
L 211.193094 354.440271 
L 211.917977 358.632197 
L 212.20793 357.300036 
L 212.497883 354.206734 
L 212.642859 353.352047 
L 213.222765 358.899597 
L 213.512718 358.217117 
L 213.947647 356.474796 
L 214.2376 357.746199 
L 214.382577 359.496042 
L 214.67253 357.838819 
L 214.817506 355.801415 
L 215.107459 355.306936 
L 215.542389 360.029778 
L 215.977318 356.992147 
L 216.267271 358.28999 
L 216.702201 354.855459 
L 216.847177 355.221877 
L 216.992154 355.185973 
L 217.282107 354.972212 
L 217.427083 354.829935 
L 217.862013 357.596449 
L 218.006989 357.327038 
L 218.296942 356.382215 
L 218.586895 356.99403 
L 218.876848 356.556355 
L 219.021824 356.714415 
L 219.456754 358.704548 
L 219.60173 358.430384 
L 219.746707 358.579454 
L 220.03666 355.904387 
L 220.326613 353.369782 
L 220.761542 358.08531 
L 221.051495 357.318313 
L 221.196472 356.142843 
L 221.341448 356.424409 
L 221.486425 355.166039 
L 221.631401 355.483382 
L 221.776378 355.282585 
L 221.921354 356.732062 
L 222.066331 356.834954 
L 222.211307 356.66116 
L 222.50126 355.15131 
L 222.646237 355.031797 
L 222.791213 354.369862 
L 222.93619 354.411583 
L 223.081166 355.03508 
L 223.371119 359.601034 
L 223.516096 360.78523 
L 223.661072 360.491833 
L 224.240978 354.079343 
L 224.385954 354.091696 
L 224.675907 354.631603 
L 224.820884 354.864519 
L 225.255813 353.754222 
L 225.690743 356.765551 
L 226.125672 354.282684 
L 226.270649 354.749697 
L 226.560602 356.499915 
L 226.850555 351.289849 
L 226.995531 347.714598 
L 227.86539 356.833653 
L 228.010367 357.723091 
L 228.30032 356.819979 
L 228.445296 355.504223 
L 228.590273 355.743931 
L 228.735249 354.809676 
L 228.880226 355.176706 
L 229.025202 354.105754 
L 229.170178 355.278504 
L 229.460131 354.735156 
L 229.605108 353.086885 
L 230.040037 352.234307 
L 230.185014 352.595185 
L 230.32999 353.384432 
L 230.474967 355.036686 
L 230.619943 355.140663 
L 230.76492 354.969955 
L 231.054873 352.046415 
L 231.199849 352.117445 
L 231.344826 352.937648 
L 231.634779 356.020696 
L 231.779755 356.412786 
L 232.214685 352.968731 
L 232.359661 353.955975 
L 232.649614 357.824081 
L 232.794591 357.606387 
L 233.22952 352.162006 
L 233.374497 352.406455 
L 233.519473 352.254892 
L 233.66445 352.973325 
L 233.809426 352.874475 
L 234.244356 358.587469 
L 234.389332 357.821291 
L 234.824261 353.76896 
L 235.259191 360.09858 
L 235.404167 359.593266 
L 235.69412 355.590671 
L 235.839097 354.042355 
L 235.984073 353.863868 
L 236.274026 357.800391 
L 236.563979 360.131162 
L 236.998909 357.02118 
L 237.433838 360.699323 
L 237.578815 360.452044 
L 237.723791 359.845908 
L 238.303697 354.025083 
L 238.448674 353.941197 
L 238.59365 352.918493 
L 238.738627 353.482011 
L 238.883603 352.817049 
L 239.02858 352.948117 
L 239.173556 353.276433 
L 239.463509 355.61722 
L 239.898439 351.398243 
L 240.333368 356.258354 
L 240.768297 353.903558 
L 241.05825 354.39363 
L 241.203227 354.757565 
L 241.638156 352.45139 
L 242.218062 357.836571 
L 242.508015 343.069303 
L 242.942945 260.371713 
L 243.377874 352.528227 
L 243.812804 350.968474 
L 244.102757 352.345165 
L 244.247733 352.811519 
L 244.39271 352.434177 
L 244.827639 328.343844 
L 245.117592 341.540141 
L 245.407545 353.484633 
L 245.697498 343.275295 
L 245.842474 335.817614 
L 246.132427 341.049871 
L 246.277404 343.116811 
L 246.42238 339.325394 
L 246.567357 341.915935 
L 246.712333 340.618673 
L 246.85731 341.147627 
L 247.002286 338.225547 
L 247.437216 349.006211 
L 247.727169 347.403979 
L 247.872145 347.678684 
L 248.017122 349.225345 
L 248.307075 354.638879 
L 248.452051 354.980799 
L 248.886981 349.460478 
L 249.176934 348.214273 
L 249.466887 340.07916 
L 249.611863 331.158014 
L 249.75684 332.302687 
L 249.901816 331.986497 
L 250.046793 341.477274 
L 250.191769 341.142708 
L 250.336746 342.986433 
L 250.481722 339.33958 
L 251.061628 356.152228 
L 251.206604 357.605539 
L 251.351581 357.751848 
L 251.641534 356.806325 
L 251.78651 355.758413 
L 252.076463 350.654158 
L 252.511393 328.460085 
L 252.801346 331.691335 
L 253.091299 345.837128 
L 253.236275 351.837909 
L 253.671205 323.448173 
L 254.106134 347.305513 
L 254.251111 347.700037 
L 254.541064 352.193375 
L 254.975993 325.307987 
L 255.555899 354.141215 
L 255.700876 355.086846 
L 255.845852 354.992471 
L 256.280782 320.842894 
L 256.425758 329.483045 
L 256.715711 330.184848 
L 256.860687 322.355001 
L 257.295617 353.247351 
L 257.440593 353.721255 
L 257.875523 337.434506 
L 258.020499 343.03952 
L 258.165476 343.36892 
L 258.310452 340.229048 
L 258.455429 326.800505 
L 258.745382 322.046146 
L 258.890358 329.375746 
L 259.035335 330.466405 
L 259.180311 341.489419 
L 259.470264 345.843891 
L 259.615241 340.47261 
L 259.760217 343.383067 
L 259.905194 343.546855 
L 260.340123 322.029318 
L 260.630076 336.585428 
L 260.775053 325.832446 
L 261.065006 282.271532 
L 261.209982 277.822113 
L 261.354959 284.688426 
L 261.644912 275.03327 
L 261.934865 256.792253 
L 262.369794 188.280235 
L 262.51477 203.159574 
L 262.659747 190.380092 
L 262.804723 199.166247 
L 262.9497 185.242131 
L 263.094676 207.831774 
L 263.239653 210.380259 
L 263.384629 222.165941 
L 263.529606 224.711705 
L 263.819559 259.322519 
L 263.964535 270.213855 
L 264.254488 264.537712 
L 264.544441 217.838502 
L 264.689418 202.215432 
L 265.124347 256.292272 
L 265.269324 257.31687 
L 265.4143 240.078416 
L 265.559277 237.195228 
L 265.84923 203.807254 
L 265.994206 192.610406 
L 266.284159 245.745135 
L 266.429136 270.549633 
L 266.719089 281.378604 
L 267.009042 246.078025 
L 267.154018 215.234731 
L 267.298995 228.640657 
L 267.733924 313.849023 
L 267.8789 302.544688 
L 268.023877 281.806854 
L 268.31383 225.968075 
L 268.458806 203.984992 
L 268.603783 211.379224 
L 268.748759 237.093903 
L 268.893736 284.322047 
L 269.038712 286.283995 
L 269.473642 145.392258 
L 269.908571 170.196283 
L 270.343501 275.180949 
L 270.488477 265.428155 
L 270.923407 165.83216 
L 271.21336 192.206644 
L 271.503313 249.331368 
L 271.938242 158.471456 
L 272.083219 175.695782 
L 272.373172 233.474673 
L 272.663125 247.937158 
L 272.808101 257.628751 
L 272.953078 252.030943 
L 273.532983 178.986351 
L 273.67796 192.727771 
L 274.112889 301.251675 
L 274.692795 192.709799 
L 274.982748 143.351216 
L 275.127725 152.514209 
L 275.562654 272.134495 
L 275.707631 262.179258 
L 275.997584 222.240047 
L 276.14256 225.323343 
L 276.432513 266.879179 
L 276.57749 275.051538 
L 276.722466 272.441447 
L 276.867443 279.38929 
L 277.157396 228.222719 
L 277.302372 184.160473 
L 277.447349 188.319235 
L 277.592325 207.624579 
L 277.882278 264.769286 
L 278.027255 280.44567 
L 278.172231 280.195789 
L 278.317208 278.135691 
L 278.60716 209.140688 
L 278.897113 151.58101 
L 279.187066 197.284961 
L 279.332043 204.712475 
L 279.766972 106.851328 
L 279.911949 100.909244 
L 280.056925 104.301828 
L 280.346878 137.165155 
L 280.636831 128.515826 
L 280.781808 112.652319 
L 281.216737 124.324265 
L 281.50669 115.205013 
L 281.651667 119.749003 
L 282.086596 72.2478 
L 282.231573 72.72411 
L 282.376549 82.654031 
L 282.811479 149.973178 
L 283.101432 161.436144 
L 283.246408 156.927615 
L 283.391385 137.332177 
L 283.826314 174.830034 
L 284.261243 101.327961 
L 284.40622 90.773775 
L 284.696173 89.992908 
L 285.131102 140.663944 
L 285.276079 135.244298 
L 285.566032 97.496085 
L 285.711008 94.552464 
L 285.855985 116.625929 
L 286.145938 115.934784 
L 286.290914 104.371389 
L 286.580867 125.003974 
L 286.725844 126.009604 
L 286.87082 107.489209 
L 287.015797 108.932464 
L 287.30575 142.095044 
L 287.740679 75.202846 
L 287.885656 85.648807 
L 288.320585 140.808498 
L 288.465562 130.609659 
L 288.755515 82.197348 
L 288.900491 73.139278 
L 289.045468 73.775335 
L 289.335421 112.663271 
L 289.480397 146.921065 
L 289.625373 151.784961 
L 289.915326 111.430937 
L 290.060303 124.735568 
L 290.350256 177.291991 
L 290.640209 141.391359 
L 290.785185 103.066595 
L 291.075138 106.957671 
L 291.220115 134.332363 
L 291.510068 123.522202 
L 291.800021 88.159751 
L 291.944997 76.834713 
L 292.23495 74.043297 
L 292.66988 104.092583 
L 292.814856 104.082083 
L 292.959833 117.342076 
L 293.249786 157.594844 
L 293.394762 144.081184 
L 293.684715 83.462994 
L 293.829692 87.189198 
L 294.264621 154.618118 
L 294.409598 162.717475 
L 294.554574 149.625047 
L 294.699551 150.275388 
L 294.844527 117.742447 
L 294.989503 118.899314 
L 295.13448 121.577546 
L 295.279456 144.690544 
L 295.569409 128.839251 
L 295.714386 129.695634 
L 295.859362 122.828641 
L 296.004339 126.823201 
L 296.149315 111.54144 
L 296.294292 111.040434 
L 296.439268 106.859323 
L 296.584245 112.65292 
L 296.729221 128.647672 
L 297.019174 118.170687 
L 297.309127 84.483067 
L 297.454104 74.424907 
L 297.744057 72.435672 
L 298.323963 156.459211 
L 298.613916 169.734287 
L 298.758892 167.278382 
L 299.193822 221.885459 
L 299.338798 216.518141 
L 299.773728 249.128895 
L 300.208657 206.1544 
L 300.49861 215.315639 
L 300.643586 232.244311 
L 300.933539 218.953816 
L 301.078516 188.657665 
L 301.223492 192.572668 
L 301.368469 191.207935 
L 301.513445 206.837629 
L 301.658422 202.245047 
L 301.803398 183.959134 
L 302.238328 80.152896 
L 302.383304 85.82202 
L 303.253163 244.795284 
L 303.688093 187.528194 
L 303.833069 189.831717 
L 304.123022 158.0213 
L 304.412975 128.468278 
L 304.557952 128.391047 
L 304.702928 128.701401 
L 304.992881 116.160069 
L 305.137858 111.951394 
L 305.572787 173.028809 
L 305.86274 152.478808 
L 306.152693 95.911805 
L 306.297669 102.029281 
L 306.442646 122.598792 
L 306.587622 122.576413 
L 306.877575 112.076191 
L 307.022552 126.960352 
L 307.167528 121.115669 
L 307.747434 164.332741 
L 308.037387 157.70376 
L 308.32734 138.74567 
L 308.617293 149.894557 
L 308.76227 153.818865 
L 309.052223 114.928464 
L 309.197199 105.452386 
L 309.632129 176.785731 
L 309.777105 172.298121 
L 310.212035 115.564935 
L 310.501988 162.570052 
L 310.646964 163.931818 
L 310.936917 123.010332 
L 311.22687 168.018998 
L 311.516823 209.277425 
L 311.661799 220.031087 
L 311.806776 217.717115 
L 311.951752 222.548764 
L 312.096729 235.673272 
L 312.386682 277.148674 
L 312.531658 277.967259 
L 312.821611 250.132366 
L 312.966588 251.237743 
L 313.401517 201.484468 
L 313.69147 231.309484 
L 313.981423 218.451568 
L 314.1264 220.298606 
L 314.416353 239.17006 
L 314.851282 297.638647 
L 314.996259 293.070237 
L 315.431188 265.614529 
L 315.866118 290.759065 
L 316.156071 266.814044 
L 316.591 195.70425 
L 316.735977 200.764792 
L 317.025929 239.0621 
L 317.170906 252.26306 
L 317.315882 251.695756 
L 317.460859 275.534374 
L 317.605835 272.209754 
L 317.750812 262.661296 
L 317.895788 234.88229 
L 318.040765 257.253726 
L 318.185741 256.785776 
L 318.330718 257.628515 
L 318.475694 226.313563 
L 318.910624 264.071624 
L 319.0556 261.60947 
L 319.200577 262.411395 
L 319.345553 258.81129 
L 319.49053 251.684261 
L 319.635506 258.93735 
L 319.925459 287.479616 
L 320.070436 281.0815 
L 320.215412 255.057651 
L 320.650342 260.966581 
L 320.940295 244.22523 
L 321.230248 262.837555 
L 321.375224 264.120581 
L 321.665177 236.266977 
L 321.810154 239.765362 
L 322.100107 273.936874 
L 322.245083 274.072585 
L 322.390059 267.59569 
L 322.535036 255.076905 
L 322.680012 257.606639 
L 322.969965 282.609302 
L 323.114942 283.869861 
L 323.259918 275.09805 
L 323.694848 215.586401 
L 323.839824 222.269544 
L 324.41973 316.271133 
L 324.85466 290.183992 
L 325.289589 221.462355 
L 325.579542 261.374425 
L 325.724519 257.969567 
L 326.014472 218.678766 
L 326.449401 259.094326 
L 326.739354 248.042082 
L 326.884331 220.110063 
L 327.174284 215.256794 
L 327.464237 289.39162 
L 327.609213 305.912932 
L 327.899166 285.043596 
L 328.044142 278.43098 
L 328.479072 218.660468 
L 328.769025 244.948179 
L 328.914001 241.664836 
L 329.058978 230.673339 
L 329.203954 234.952906 
L 329.638884 317.337825 
L 329.78386 314.958768 
L 330.073813 284.282722 
L 330.363766 233.705124 
L 330.508743 223.035574 
L 330.798696 259.252968 
L 330.943672 262.497045 
L 331.088649 252.645006 
L 331.233625 262.332803 
L 331.523578 294.428779 
L 331.668555 293.122694 
L 332.103484 270.716132 
L 332.248461 270.651569 
L 332.68339 259.087435 
L 332.828367 257.277939 
L 332.973343 253.82787 
L 333.11832 254.247652 
L 333.408272 269.201551 
L 333.553249 264.953048 
L 333.843202 204.928336 
L 333.988178 172.603989 
L 334.133155 184.947009 
L 334.568084 262.791043 
L 334.713061 253.268246 
L 334.858037 228.894867 
L 335.292967 260.82813 
L 335.437943 249.978072 
L 335.58292 259.623517 
L 335.727896 261.673441 
L 335.872873 278.10929 
L 336.017849 279.806144 
L 336.162826 259.280138 
L 336.452779 176.929871 
L 336.597755 181.089718 
L 337.032685 251.443351 
L 337.322638 228.693666 
L 337.467614 229.87588 
L 337.902544 276.254109 
L 338.337473 288.49188 
L 338.48245 278.950421 
L 338.917379 212.290834 
L 339.207332 245.110843 
L 339.352308 240.115129 
L 339.497285 227.182871 
L 339.642261 233.74511 
L 339.932214 269.944177 
L 340.077191 268.84922 
L 340.367144 185.529583 
L 340.51212 137.648514 
L 340.657097 135.523962 
L 340.94705 209.720039 
L 341.381979 188.729869 
L 341.816909 271.304839 
L 341.961885 271.935049 
L 342.396815 235.379816 
L 342.541791 252.933069 
L 342.686768 255.952827 
L 342.831744 256.572706 
L 342.976721 243.719669 
L 343.266674 256.494982 
L 343.41165 251.643004 
L 343.701603 209.251152 
L 343.84658 207.978832 
L 344.281509 272.137403 
L 344.426485 269.632887 
L 344.716438 237.491651 
L 345.151368 181.075561 
L 345.441321 156.717798 
L 345.586297 159.39529 
L 345.87625 214.419004 
L 346.021227 209.817312 
L 346.166203 192.814752 
L 346.31118 161.328737 
L 346.456156 166.469991 
L 346.601133 143.380505 
L 346.746109 155.961537 
L 346.891086 153.979853 
L 347.181039 209.086605 
L 347.470992 238.493051 
L 347.760945 208.082287 
L 347.905921 172.497883 
L 348.195874 197.993093 
L 348.485827 276.37943 
L 348.630804 299.240475 
L 348.920757 269.132128 
L 349.21071 215.380497 
L 349.355686 210.553767 
L 349.500663 249.87996 
L 349.645639 254.881017 
L 349.790616 254.967732 
L 349.935592 228.591346 
L 350.080568 226.561198 
L 350.225545 229.393251 
L 350.370521 218.980335 
L 350.515498 198.764969 
L 350.660474 161.705161 
L 350.805451 165.823928 
L 351.095404 227.619037 
L 351.24038 228.291708 
L 351.385357 209.252414 
L 351.530333 215.124641 
L 351.820286 255.513969 
L 351.965263 258.931228 
L 352.400192 230.231799 
L 352.545169 239.019295 
L 352.690145 259.799934 
L 352.835122 263.672851 
L 352.980098 257.822331 
L 353.125075 244.485217 
L 353.560004 171.198767 
L 353.704981 188.299666 
L 354.13991 291.626025 
L 354.284887 281.044492 
L 354.429863 256.275079 
L 354.719816 156.89313 
L 354.864793 149.122808 
L 355.299722 266.291222 
L 355.444698 263.974884 
L 355.734651 209.962636 
L 355.879628 178.557785 
L 356.024604 172.649624 
L 356.169581 190.708358 
L 356.314557 188.592827 
L 356.60451 178.130402 
L 357.03944 271.874745 
L 357.184416 268.339371 
L 357.329393 262.048131 
L 357.619346 229.531052 
L 357.764322 227.026141 
L 358.054275 243.529027 
L 358.199252 239.393945 
L 358.489205 214.698027 
L 358.634181 221.877139 
L 358.924134 245.766389 
L 359.069111 244.170565 
L 359.214087 245.850788 
L 359.359064 250.919188 
L 359.50404 250.145152 
L 359.793993 228.199788 
L 359.93897 230.123011 
L 360.083946 244.704133 
L 360.518876 226.306426 
L 360.663852 242.046427 
L 360.953805 236.936927 
L 361.098781 221.216958 
L 361.533711 266.793983 
L 361.96864 185.555886 
L 362.113617 208.212812 
L 362.258593 206.321648 
L 362.40357 216.994245 
L 362.548546 206.705536 
L 362.693523 211.206356 
L 362.838499 230.998027 
L 362.983476 234.835689 
L 363.128452 250.768482 
L 363.273429 248.184861 
L 363.418405 239.802488 
L 363.708358 203.809137 
L 363.853335 203.662424 
L 364.143288 187.286179 
L 364.433241 206.429332 
L 364.578217 198.75512 
L 364.86817 154.051475 
L 365.013147 166.188789 
L 365.3031 213.318773 
L 365.448076 223.261776 
L 365.738029 222.995075 
L 366.172959 250.990533 
L 366.317935 244.180581 
L 366.462911 245.363377 
L 366.607888 237.720613 
L 366.897841 246.485464 
L 367.042817 247.505566 
L 367.477747 176.869479 
L 367.912676 234.872954 
L 368.057653 218.981627 
L 368.347606 211.28476 
L 368.637559 240.164599 
L 368.927512 290.611227 
L 369.072488 293.474551 
L 369.652394 238.273327 
L 369.797371 227.969475 
L 369.942347 229.840469 
L 370.087324 219.904022 
L 370.2323 232.094462 
L 370.522253 227.383874 
L 370.812206 195.760561 
L 371.102159 231.00756 
L 371.247136 230.860728 
L 371.682065 168.781518 
L 371.827041 161.626422 
L 372.261971 215.774421 
L 372.551924 231.620646 
L 372.841877 200.187956 
L 373.13183 205.60701 
L 373.276806 227.9622 
L 373.421783 226.199137 
L 373.566759 238.271325 
L 373.711736 231.806389 
L 373.856712 242.432759 
L 374.146665 245.618759 
L 374.291642 242.54062 
L 374.726571 205.522169 
L 374.871548 207.995769 
L 375.016524 226.344341 
L 375.306477 282.840985 
L 375.451454 292.988018 
L 375.886383 196.153055 
L 376.176336 226.271734 
L 376.321313 265.745015 
L 376.466289 263.069071 
L 376.611266 254.814749 
L 376.901219 214.103071 
L 377.046195 211.562443 
L 377.191172 218.142299 
L 377.336148 219.596212 
L 377.626101 203.693941 
L 377.771077 199.759015 
L 378.06103 216.638217 
L 378.206007 226.16963 
L 378.350983 215.784999 
L 378.49596 195.221571 
L 378.785913 127.642802 
L 378.930889 107.366106 
L 379.365819 159.248784 
L 379.800748 219.098361 
L 380.090701 213.210705 
L 380.235678 218.045489 
L 380.380654 215.750839 
L 380.670607 197.518409 
L 380.815584 180.559216 
L 381.39549 68.166436 
L 381.540466 68.084335 
L 381.685443 67.799919 
L 381.830419 77.154393 
L 381.975396 97.052337 
L 382.265349 156.591324 
L 382.410325 156.411555 
L 382.700278 96.89335 
L 382.845254 87.058287 
L 382.990231 106.947724 
L 383.280184 107.582085 
L 383.42516 102.785955 
L 383.570137 117.577318 
L 383.86009 172.510817 
L 384.005066 175.405373 
L 384.150043 157.610036 
L 384.295019 154.428679 
L 384.439996 161.206334 
L 384.584972 156.269318 
L 385.019902 67.34718 
L 385.164878 67.498576 
L 385.309855 68.012378 
L 385.744784 98.216047 
L 385.889761 87.852385 
L 386.034737 87.385183 
L 386.179714 96.895509 
L 386.32469 116.485989 
L 386.469667 116.4685 
L 386.75962 97.362632 
L 387.049573 127.065728 
L 387.194549 136.749908 
L 387.629479 67.104456 
L 388.064408 66.96 
L 388.209384 76.548513 
L 388.354361 96.116013 
L 389.079243 316.927921 
L 389.22422 317.496152 
L 389.514173 296.819716 
L 389.804126 279.666282 
L 390.384032 302.544235 
L 390.529008 309.199301 
L 390.818961 281.718444 
L 390.963938 268.457338 
L 391.543844 320.829891 
L 391.978773 222.548636 
L 392.413703 284.402127 
L 392.558679 267.819418 
L 392.848632 213.772212 
L 392.993609 200.726167 
L 393.283562 220.36447 
L 393.428538 215.500948 
L 393.863467 97.86067 
L 394.008444 107.731923 
L 394.298397 181.055075 
L 394.733326 227.995571 
L 394.878303 251.000993 
L 395.023279 239.67564 
L 395.458209 134.534747 
L 395.603185 146.317235 
L 395.893138 213.252031 
L 396.038115 211.384853 
L 396.183091 192.309369 
L 396.328068 208.475618 
L 396.473044 208.886143 
L 396.618021 184.747711 
L 396.907974 120.009453 
L 397.197927 161.293532 
L 397.342903 161.332029 
L 397.48788 131.882226 
L 397.632856 133.253307 
L 397.777833 129.644035 
L 398.212762 219.095758 
L 398.502715 230.570486 
L 398.647692 204.143801 
L 398.792668 203.637906 
L 398.937645 209.511612 
L 399.082621 225.061591 
L 399.51755 198.409829 
L 399.662527 219.566607 
L 399.95248 229.085914 
L 400.097456 222.77955 
L 400.387409 253.096266 
L 400.532386 254.957716 
L 400.967315 195.968544 
L 401.257268 203.037596 
L 401.402245 185.988454 
L 401.547221 188.398536 
L 401.837174 227.923348 
L 401.982151 219.631988 
L 402.41708 127.432383 
L 402.562057 127.542512 
L 402.996986 196.007801 
L 403.141963 190.906148 
L 403.286939 195.698561 
L 403.431916 176.117014 
L 403.576892 186.007303 
L 403.866845 185.892502 
L 404.446751 107.482978 
L 404.591728 107.447931 
L 404.736704 117.279603 
L 404.88168 141.812945 
L 405.026657 146.717784 
L 405.171633 161.400536 
L 405.606563 119.691371 
L 405.751539 122.177846 
L 406.041492 166.317264 
L 406.186469 190.859636 
L 406.331445 190.868814 
L 406.476422 193.325912 
L 406.911351 131.9091 
L 407.201304 156.455544 
L 407.491257 126.913613 
L 407.78121 82.68332 
L 407.926187 67.926383 
L 408.506093 67.899194 
L 408.941022 68.268234 
L 409.230975 68.096382 
L 409.665905 112.216891 
L 410.100834 97.615008 
L 410.390787 97.480164 
L 410.535763 107.302519 
L 410.825716 107.177573 
L 410.970693 87.326062 
L 411.115669 87.220114 
L 411.260646 116.707468 
L 411.550599 220.071931 
L 411.695575 210.475757 
L 412.420458 77.675106 
L 412.565434 82.559538 
L 412.855387 131.706637 
L 413.000364 126.88388 
L 413.435293 67.953021 
L 413.58027 77.797952 
L 414.160176 146.663927 
L 414.450129 158.858794 
L 414.595105 151.459534 
L 414.740082 153.931744 
L 414.885058 131.852335 
L 415.030035 134.32422 
L 415.175011 126.995428 
L 415.464964 161.476219 
L 415.609941 161.459617 
L 416.04487 102.360445 
L 416.334823 126.894655 
L 416.479799 141.614544 
L 416.914729 97.523561 
L 417.059705 97.654668 
L 417.494635 112.209734 
L 417.929564 97.739155 
L 418.074541 87.975812 
L 418.364494 87.844754 
L 418.50947 97.702373 
L 418.9444 68.412384 
L 419.234353 68.482015 
L 419.669282 97.774902 
L 419.814259 87.965767 
L 419.959235 87.950939 
L 420.104212 102.612851 
L 420.394165 167.140778 
L 420.539141 160.366632 
L 420.829094 105.676143 
L 421.119047 87.876666 
L 421.409 97.671201 
L 421.553976 136.181224 
L 421.698953 145.065864 
L 421.843929 168.439904 
L 422.278859 97.692396 
L 422.568812 87.951156 
L 422.713788 97.758842 
L 423.003741 97.423508 
L 423.148718 107.041843 
L 423.293694 106.995813 
L 423.438671 116.964478 
L 423.583647 107.41876 
L 423.728624 107.650364 
L 423.8736 97.886016 
L 424.018577 97.864554 
L 424.30853 117.308005 
L 424.453506 122.105377 
L 424.743459 82.80937 
L 424.888436 68.163469 
L 425.178389 68.447697 
L 425.323365 78.281035 
L 425.758295 136.461105 
L 425.903271 126.531372 
L 426.193224 77.840895 
L 426.338201 68.221772 
L 426.483177 68.261008 
L 427.208059 141.665265 
L 427.353036 132.097307 
L 427.787965 68.81591 
L 428.077918 68.275155 
L 428.367871 68.324723 
L 428.802801 97.725649 
L 429.23773 68.285595 
L 429.382707 78.109114 
L 429.67266 127.2996 
L 429.817636 132.069378 
L 430.107589 92.499652 
L 430.252566 87.635765 
L 430.397542 97.540645 
L 430.832472 68.377801 
L 430.977448 78.114132 
L 431.267401 117.23381 
L 431.412378 117.197748 
L 431.847307 68.267347 
L 432.282236 68.583221 
L 432.717166 97.752434 
L 433.152095 68.411241 
L 433.587025 68.235938 
L 433.732001 68.297977 
L 434.021954 68.070168 
L 434.311907 67.861574 
L 435.616696 68.248133 
L 435.761672 68.168309 
L 435.906649 68.243746 
L 436.341578 97.822577 
L 436.776508 68.080037 
L 437.356414 68.247463 
L 437.50139 68.101203 
L 437.936319 97.721607 
L 438.226272 97.84744 
L 438.516225 117.423477 
L 438.661202 122.357132 
L 438.951155 83.019069 
L 439.096131 68.213352 
L 439.676037 68.344667 
L 440.110967 68.062311 
L 440.545896 97.9923 
L 440.835849 78.733665 
L 440.980826 83.419055 
L 441.560732 191.604717 
L 441.705708 155.435136 
L 441.850685 148.730817 
L 441.995661 127.62064 
L 442.140638 127.685006 
L 442.430591 83.492599 
L 442.575567 75.30982 
L 442.720544 91.372054 
L 443.155473 187.289314 
L 443.445426 165.427017 
L 443.590402 135.708167 
L 443.735379 135.679824 
L 443.880355 116.296017 
L 444.025332 112.180346 
L 444.315285 78.355614 
L 444.460261 85.224727 
L 444.750214 139.252935 
L 444.895191 131.436989 
L 445.185144 86.999837 
L 445.33012 97.504337 
L 445.475097 117.177992 
L 445.620073 117.257835 
L 446.055003 68.339885 
L 446.344956 68.232123 
L 446.634909 67.674342 
L 446.779885 67.80196 
L 447.069838 68.920922 
L 447.214815 68.924501 
L 447.649744 67.771448 
L 448.084674 67.786945 
L 448.519603 97.009276 
L 448.954532 68.12091 
L 449.099509 68.216428 
L 449.534438 68.127604 
L 449.824391 68.395625 
L 449.969368 68.342498 
L 450.404297 113.297504 
L 450.839227 98.694418 
L 451.274156 68.28455 
L 451.419133 68.437632 
L 451.999039 67.926452 
L 452.288992 68.27895 
L 452.433968 68.32358 
L 452.723921 67.692068 
L 452.868898 67.52897 
L 453.448804 68.333093 
L 453.59378 68.366079 
L 453.738757 68.040475 
L 454.02871 68.105876 
L 454.173686 68.503614 
L 454.463639 68.365715 
L 454.608615 67.91891 
L 454.753592 67.841413 
L 455.188521 97.281546 
L 455.333498 87.325914 
L 455.623451 87.32341 
L 455.768427 97.254494 
L 456.203357 67.219425 
L 456.638286 97.317056 
L 456.928239 78.10934 
L 457.073216 77.999271 
L 457.363169 97.178437 
L 457.798098 67.894688 
L 457.943075 67.920172 
L 458.088051 67.830362 
L 458.233028 68.015208 
L 458.378004 68.004708 
L 458.522981 68.187464 
L 458.667957 67.941309 
L 458.812934 68.244032 
L 458.95791 68.191013 
L 459.102887 68.471929 
L 459.247863 68.246565 
L 459.39284 68.249109 
L 459.682792 67.997403 
L 460.117722 97.372342 
L 460.552651 67.883529 
L 460.697628 67.879418 
L 460.842604 67.695094 
L 461.132557 67.898365 
L 461.712463 68.698388 
L 461.85744 68.682427 
L 462.292369 67.717838 
L 462.582322 67.847299 
L 463.307205 143.359014 
L 463.597158 201.572445 
L 463.742134 188.981564 
L 464.032087 133.444699 
L 464.177064 130.354838 
L 464.32204 146.444281 
L 464.611993 188.869247 
L 465.046922 125.72298 
L 465.191899 140.931443 
L 465.336875 141.877163 
L 465.481852 132.533494 
L 465.626828 132.744257 
L 466.061758 197.162145 
L 466.206734 202.699836 
L 466.496687 185.984195 
L 466.641664 185.328905 
L 466.78664 180.641386 
L 467.22157 119.817224 
L 467.946452 216.765835 
L 468.091429 218.417685 
L 468.236405 210.465879 
L 468.816311 117.303983 
L 468.961288 108.033306 
L 469.106264 88.8841 
L 469.396217 88.581455 
L 469.541194 108.235473 
L 469.68617 108.544367 
L 469.831147 108.184514 
L 469.976123 87.788837 
L 470.1211 86.729824 
L 470.266076 96.278687 
L 470.411053 116.206265 
L 470.556029 116.866613 
L 470.990958 68.929854 
L 471.280911 68.549634 
L 471.425888 68.44331 
L 471.715841 68.614127 
L 472.15077 68.668319 
L 472.5857 97.916755 
L 473.020629 68.28178 
L 473.165606 82.862172 
L 473.455559 142.060648 
L 473.600535 142.149177 
L 474.035465 68.571529 
L 474.470394 112.718745 
L 474.760347 82.756972 
L 474.905324 82.480493 
L 475.195277 112.300234 
L 475.630206 68.317517 
L 475.775183 68.470667 
L 476.210112 97.973598 
L 476.645041 68.522809 
L 476.934994 68.508869 
L 477.369924 68.325886 
L 477.5149 78.166766 
L 477.94983 132.34851 
L 478.239783 122.394998 
L 478.529736 83.100618 
L 478.674712 68.323185 
L 479.109642 68.250657 
L 480.559407 68.602199 
L 480.994336 112.582107 
L 481.429266 68.35005 
L 481.574242 68.384229 
L 481.864195 68.624784 
L 482.299124 112.786295 
L 482.734054 68.501436 
L 483.168983 68.128383 
L 483.458936 107.596094 
L 483.603913 132.330785 
L 483.748889 127.6241 
L 484.038842 97.938325 
L 484.183819 97.859063 
L 484.618748 68.468094 
L 484.908701 68.509106 
L 485.343631 68.545651 
L 485.633584 68.25044 
L 486.068513 97.959984 
L 486.503443 97.99994 
L 486.938372 68.608163 
L 487.228325 68.782933 
L 487.663254 112.802246 
L 488.098184 68.544162 
L 488.388137 68.720727 
L 488.67809 68.915322 
L 489.113019 98.16154 
L 489.257996 88.225684 
L 489.547949 88.139521 
L 489.692925 107.855765 
L 489.982878 107.845423 
L 490.272831 78.510993 
L 490.417808 68.67312 
L 490.852737 112.671276 
L 490.997714 112.685187 
L 491.287667 113.010456 
L 491.722596 68.457211 
L 492.012549 68.157544 
L 492.737431 68.496221 
L 493.027384 107.749668 
L 493.172361 132.349683 
L 493.317337 127.397268 
L 493.60729 97.582041 
L 493.897243 123.072253 
L 494.04222 130.844487 
L 494.477149 68.687671 
L 494.622126 68.880897 
L 494.767102 68.638655 
L 494.912079 68.617046 
L 495.057055 68.727085 
L 495.202032 69.074221 
L 495.636961 97.999664 
L 495.781938 88.240265 
L 496.071891 88.709014 
L 496.216867 98.858521 
L 496.651797 68.504531 
L 496.94175 68.37228 
L 497.086726 68.432545 
L 497.521656 112.745826 
L 497.811609 93.124815 
L 497.956585 88.1041 
L 498.101561 97.863697 
L 498.536491 68.350769 
L 498.97142 122.383621 
L 499.116397 117.426444 
L 499.261373 112.52063 
L 499.551326 78.272192 
L 499.696303 68.521645 
L 499.986256 68.641485 
L 500.421185 97.690888 
L 500.856115 68.269674 
L 501.001091 68.381951 
L 501.146068 78.135929 
L 501.580997 127.247764 
L 501.87095 107.689877 
L 502.015927 107.74402 
L 502.30588 127.555298 
L 502.450856 117.698695 
L 502.740809 117.450469 
L 502.885786 117.477797 
L 503.320715 68.445312 
L 503.755644 97.774143 
L 504.045597 78.253806 
L 504.190574 83.337496 
L 504.480527 132.414433 
L 504.625503 127.439324 
L 505.060433 68.573373 
L 505.350386 68.59791 
L 505.640339 68.446573 
L 506.075268 97.91359 
L 506.510198 68.455121 
L 506.655174 68.493194 
L 507.090104 68.234026 
L 507.380057 87.936694 
L 507.525033 112.449136 
L 507.814986 122.173499 
L 508.104939 82.95142 
L 508.249916 68.262516 
L 508.684845 68.380088 
L 509.69968 68.271024 
L 509.989633 67.991607 
L 510.13461 67.807244 
L 510.279586 67.884337 
L 510.714516 112.485701 
L 511.149445 68.163508 
L 511.439398 68.434221 
L 511.584375 68.423495 
L 512.164281 68.030459 
L 512.454234 68.084936 
L 512.889163 97.61696 
L 513.03414 87.77191 
L 513.324093 87.791351 
L 513.469069 97.692347 
L 513.614046 87.927506 
L 513.903999 97.830484 
L 514.048975 112.595337 
L 514.483904 68.217523 
L 515.208787 68.396759 
L 515.353763 68.309107 
L 515.49874 78.00976 
L 515.933669 156.677674 
L 516.368599 107.448326 
L 516.513575 107.523437 
L 516.803528 78.209502 
L 516.948505 68.383253 
L 517.093481 68.302285 
L 517.528411 112.218242 
L 517.96334 68.220756 
L 519.413105 68.577296 
L 519.703058 68.477687 
L 520.137987 98.001803 
L 520.282964 88.170329 
L 520.572917 88.070848 
L 520.717893 97.880071 
L 521.152823 68.60213 
L 521.297799 68.679617 
L 521.732729 97.859241 
L 522.167658 68.401806 
L 522.602588 68.373867 
L 522.892541 68.309295 
L 523.472447 68.699659 
L 523.7624 68.696603 
L 524.052353 68.575916 
L 524.922212 68.789046 
L 525.067188 98.798878 
L 525.647094 340.916979 
L 525.937047 341.880868 
L 527.386812 341.839512 
L 541.304555 341.863695 
L 541.88446 341.856212 
L 542.609343 341.876599 
L 543.189249 341.875219 
L 544.494037 341.929983 
L 545.363896 341.881962 
L 548.408402 341.867283 
L 548.988308 341.895478 
L 549.568214 341.858391 
L 555.077321 341.812362 
L 555.657227 341.840084 
L 557.541921 341.808892 
L 558.121827 341.772987 
L 565.370651 341.642452 
L 565.805581 341.671928 
L 566.24051 341.682664 
L 566.820416 341.737379 
L 567.980228 341.707389 
L 568.705111 341.717415 
L 569.429993 341.670036 
L 570.299852 341.638213 
L 571.169711 341.702943 
L 572.184546 341.731276 
L 572.764452 341.70664 
L 573.199382 341.616701 
L 574.069241 341.689545 
L 575.519005 341.657525 
L 576.678817 341.6614 
L 583.202759 341.683128 
L 583.782665 341.652606 
L 584.942477 341.657397 
L 585.377407 341.610353 
L 585.957312 341.730734 
L 586.537218 341.69621 
L 587.986983 341.683364 
L 588.711866 341.679086 
L 596.540596 341.697787 
L 597.120502 341.672964 
L 601.179844 341.669838 
L 604.659279 341.690452 
L 605.239185 341.665846 
L 608.863597 341.694287 
L 609.298527 341.627802 
L 609.733456 341.771311 
L 611.763127 341.667709 
L 614.662657 341.716577 
L 622.636364 341.701238 
L 622.636364 341.701238 
" clip-path="url(#p7904130165)" style="fill: none; stroke: #ff0000; stroke-opacity: 0.1; stroke-width: 2; stroke-linecap: square"/>
   </g>
   <g id="patch_3">
    <path d="M 90 384.48 
L 90 51.84 
" style="fill: none; stroke: #000000; stroke-width: 0.8; stroke-linejoin: miter; stroke-linecap: square"/>
   </g>
   <g id="patch_4">
    <path d="M 648 384.48 
L 648 51.84 
" style="fill: none; stroke: #000000; stroke-width: 0.8; stroke-linejoin: miter; stroke-linecap: square"/>
   </g>
   <g id="patch_5">
    <path d="M 90 384.48 
L 648 384.48 
" style="fill: none; stroke: #000000; stroke-width: 0.8; stroke-linejoin: miter; stroke-linecap: square"/>
   </g>
   <g id="patch_6">
    <path d="M 90 51.84 
L 648 51.84 
" style="fill: none; stroke: #000000; stroke-width: 0.8; stroke-linejoin: miter; stroke-linecap: square"/>
   </g>
   <g id="text_19">
    <!-- scale_12_12 -->
    <g transform="translate(326.147969 45.84) scale(0.14 -0.14)">
     <defs>
      <path id="DejaVuSans-63" d="M 3122 3366 
L 3122 2828 
Q 2878 2963 2633 3030 
Q 2388 3097 2138 3097 
Q 1578 3097 1268 2742 
Q 959 2388 959 1747 
Q 959 1106 1268 751 
Q 1578 397 2138 397 
Q 2388 397 2633 464 
Q 2878 531 3122 666 
L 3122 134 
Q 2881 22 2623 -34 
Q 2366 -91 2075 -91 
Q 1284 -91 818 406 
Q 353 903 353 1747 
Q 353 2603 823 3093 
Q 1294 3584 2113 3584 
Q 2378 3584 2631 3529 
Q 2884 3475 3122 3366 
z
" transform="scale(0.015625)"/>
      <path id="DejaVuSans-6c" d="M 603 4863 
L 1178 4863 
L 1178 0 
L 603 0 
L 603 4863 
z
" transform="scale(0.015625)"/>
      <path id="DejaVuSans-5f" d="M 3263 -1063 
L 3263 -1509 
L -63 -1509 
L -63 -1063 
L 3263 -1063 
z
" transform="scale(0.015625)"/>
     </defs>
     <use xlink:href="#DejaVuSans-73"/>
     <use xlink:href="#DejaVuSans-63" x="52.099609"/>
     <use xlink:href="#DejaVuSans-61" x="107.080078"/>
     <use xlink:href="#DejaVuSans-6c" x="168.359375"/>
     <use xlink:href="#DejaVuSans-65" x="196.142578"/>
     <use xlink:href="#DejaVuSans-5f" x="257.666016"/>
     <use xlink:href="#DejaVuSans-31" x="307.666016"/>
     <use xlink:href="#DejaVuSans-32" x="371.289062"/>
     <use xlink:href="#DejaVuSans-5f" x="434.912109"/>
     <use xlink:href="#DejaVuSans-31" x="484.912109"/>
     <use xlink:href="#DejaVuSans-32" x="548.535156"/>
    </g>
   </g>
   <g id="legend_1">
    <g id="patch_7">
     <path d="M 97 74.79625 
L 225.382812 74.79625 
Q 227.382812 74.79625 227.382812 72.79625 
L 227.382812 58.84 
Q 227.382812 56.84 225.382812 56.84 
L 97 56.84 
Q 95 56.84 95 58.84 
L 95 72.79625 
Q 95 74.79625 97 74.79625 
z
" style="fill: #ffffff; opacity: 0.8; stroke: #cccccc; stroke-linejoin: miter"/>
    </g>
    <g id="line2d_33">
     <path d="M 99 64.938437 
L 109 64.938437 
L 119 64.938437 
" style="fill: none; stroke: #ff0000; stroke-width: 1.5; stroke-linecap: square"/>
    </g>
    <g id="text_20">
     <!-- reward_avg_1_runs -->
     <g transform="translate(127 68.438437) scale(0.1 -0.1)">
      <defs>
       <path id="DejaVuSans-76" d="M 191 3500 
L 800 3500 
L 1894 563 
L 2988 3500 
L 3597 3500 
L 2284 0 
L 1503 0 
L 191 3500 
z
" transform="scale(0.015625)"/>
       <path id="DejaVuSans-67" d="M 2906 1791 
Q 2906 2416 2648 2759 
Q 2391 3103 1925 3103 
Q 1463 3103 1205 2759 
Q 947 2416 947 1791 
Q 947 1169 1205 825 
Q 1463 481 1925 481 
Q 2391 481 2648 825 
Q 2906 1169 2906 1791 
z
M 3481 434 
Q 3481 -459 3084 -895 
Q 2688 -1331 1869 -1331 
Q 1566 -1331 1297 -1286 
Q 1028 -1241 775 -1147 
L 775 -588 
Q 1028 -725 1275 -790 
Q 1522 -856 1778 -856 
Q 2344 -856 2625 -561 
Q 2906 -266 2906 331 
L 2906 616 
Q 2728 306 2450 153 
Q 2172 0 1784 0 
Q 1141 0 747 490 
Q 353 981 353 1791 
Q 353 2603 747 3093 
Q 1141 3584 1784 3584 
Q 2172 3584 2450 3431 
Q 2728 3278 2906 2969 
L 2906 3500 
L 3481 3500 
L 3481 434 
z
" transform="scale(0.015625)"/>
       <path id="DejaVuSans-75" d="M 544 1381 
L 544 3500 
L 1119 3500 
L 1119 1403 
Q 1119 906 1312 657 
Q 1506 409 1894 409 
Q 2359 409 2629 706 
Q 2900 1003 2900 1516 
L 2900 3500 
L 3475 3500 
L 3475 0 
L 2900 0 
L 2900 538 
Q 2691 219 2414 64 
Q 2138 -91 1772 -91 
Q 1169 -91 856 284 
Q 544 659 544 1381 
z
M 1991 3584 
L 1991 3584 
z
" transform="scale(0.015625)"/>
       <path id="DejaVuSans-6e" d="M 3513 2113 
L 3513 0 
L 2938 0 
L 2938 2094 
Q 2938 2591 2744 2837 
Q 2550 3084 2163 3084 
Q 1697 3084 1428 2787 
Q 1159 2491 1159 1978 
L 1159 0 
L 581 0 
L 581 3500 
L 1159 3500 
L 1159 2956 
Q 1366 3272 1645 3428 
Q 1925 3584 2291 3584 
Q 2894 3584 3203 3211 
Q 3513 2838 3513 2113 
z
" transform="scale(0.015625)"/>
      </defs>
      <use xlink:href="#DejaVuSans-72"/>
      <use xlink:href="#DejaVuSans-65" x="38.863281"/>
      <use xlink:href="#DejaVuSans-77" x="100.386719"/>
      <use xlink:href="#DejaVuSans-61" x="182.173828"/>
      <use xlink:href="#DejaVuSans-72" x="243.453125"/>
      <use xlink:href="#DejaVuSans-64" x="282.816406"/>
      <use xlink:href="#DejaVuSans-5f" x="346.292969"/>
      <use xlink:href="#DejaVuSans-61" x="396.292969"/>
      <use xlink:href="#DejaVuSans-76" x="457.572266"/>
      <use xlink:href="#DejaVuSans-67" x="516.751953"/>
      <use xlink:href="#DejaVuSans-5f" x="580.228516"/>
      <use xlink:href="#DejaVuSans-31" x="630.228516"/>
      <use xlink:href="#DejaVuSans-5f" x="693.851562"/>
      <use xlink:href="#DejaVuSans-72" x="743.851562"/>
      <use xlink:href="#DejaVuSans-75" x="784.964844"/>
      <use xlink:href="#DejaVuSans-6e" x="848.34375"/>
      <use xlink:href="#DejaVuSans-73" x="911.722656"/>
     </g>
    </g>
   </g>
  </g>
 </g>
 <defs>
  <clipPath id="p7904130165">
   <rect x="90" y="51.84" width="558" height="332.64"/>
  </clipPath>
 </defs>
</svg>
