<?xml version="1.0" encoding="utf-8" standalone="no"?>
<!DOCTYPE svg PUBLIC "-//W3C//DTD SVG 1.1//EN"
  "http://www.w3.org/Graphics/SVG/1.1/DTD/svg11.dtd">
<svg xmlns:xlink="http://www.w3.org/1999/xlink" width="460.8pt" height="345.6pt" viewBox="0 0 460.8 345.6" xmlns="http://www.w3.org/2000/svg" version="1.1">
 <metadata>
  <rdf:RDF xmlns:dc="http://purl.org/dc/elements/1.1/" xmlns:cc="http://creativecommons.org/ns#" xmlns:rdf="http://www.w3.org/1999/02/22-rdf-syntax-ns#">
   <cc:Work>
    <dc:type rdf:resource="http://purl.org/dc/dcmitype/StillImage"/>
    <dc:date>2024-04-28T15:29:17.563122</dc:date>
    <dc:format>image/svg+xml</dc:format>
    <dc:creator>
     <cc:Agent>
      <dc:title>Matplotlib v3.8.2, https://matplotlib.org/</dc:title>
     </cc:Agent>
    </dc:creator>
   </cc:Work>
  </rdf:RDF>
 </metadata>
 <defs>
  <style type="text/css">*{stroke-linejoin: round; stroke-linecap: butt}</style>
 </defs>
 <g id="figure_1">
  <g id="patch_1">
   <path d="M 0 345.6 
L 460.8 345.6 
L 460.8 0 
L 0 0 
z
" style="fill: #ffffff"/>
  </g>
  <g id="axes_1">
   <g id="patch_2">
    <path d="M 57.6 307.584 
L 414.72 307.584 
L 414.72 41.472 
L 57.6 41.472 
z
" style="fill: #ffffff"/>
   </g>
   <g id="matplotlib.axis_1">
    <g id="xtick_1">
     <g id="line2d_1">
      <defs>
       <path id="m8fea1a70c8" d="M 0 0 
L 0 3.5 
" style="stroke: #000000; stroke-width: 0.8"/>
      </defs>
      <g>
       <use xlink:href="#m8fea1a70c8" x="73.832727" y="307.584" style="stroke: #000000; stroke-width: 0.8"/>
      </g>
     </g>
     <g id="text_1">
      <!-- 0 -->
      <g transform="translate(70.651477 322.182437) scale(0.1 -0.1)">
       <defs>
        <path id="DejaVuSans-30" d="M 2034 4250 
Q 1547 4250 1301 3770 
Q 1056 3291 1056 2328 
Q 1056 1369 1301 889 
Q 1547 409 2034 409 
Q 2525 409 2770 889 
Q 3016 1369 3016 2328 
Q 3016 3291 2770 3770 
Q 2525 4250 2034 4250 
z
M 2034 4750 
Q 2819 4750 3233 4129 
Q 3647 3509 3647 2328 
Q 3647 1150 3233 529 
Q 2819 -91 2034 -91 
Q 1250 -91 836 529 
Q 422 1150 422 2328 
Q 422 3509 836 4129 
Q 1250 4750 2034 4750 
z
" transform="scale(0.015625)"/>
       </defs>
       <use xlink:href="#DejaVuSans-30"/>
      </g>
     </g>
    </g>
    <g id="xtick_2">
     <g id="line2d_2">
      <g>
       <use xlink:href="#m8fea1a70c8" x="127.941818" y="307.584" style="stroke: #000000; stroke-width: 0.8"/>
      </g>
     </g>
     <g id="text_2">
      <!-- 100 -->
      <g transform="translate(118.398068 322.182437) scale(0.1 -0.1)">
       <defs>
        <path id="DejaVuSans-31" d="M 794 531 
L 1825 531 
L 1825 4091 
L 703 3866 
L 703 4441 
L 1819 4666 
L 2450 4666 
L 2450 531 
L 3481 531 
L 3481 0 
L 794 0 
L 794 531 
z
" transform="scale(0.015625)"/>
       </defs>
       <use xlink:href="#DejaVuSans-31"/>
       <use xlink:href="#DejaVuSans-30" x="63.623047"/>
       <use xlink:href="#DejaVuSans-30" x="127.246094"/>
      </g>
     </g>
    </g>
    <g id="xtick_3">
     <g id="line2d_3">
      <g>
       <use xlink:href="#m8fea1a70c8" x="182.050909" y="307.584" style="stroke: #000000; stroke-width: 0.8"/>
      </g>
     </g>
     <g id="text_3">
      <!-- 200 -->
      <g transform="translate(172.507159 322.182437) scale(0.1 -0.1)">
       <defs>
        <path id="DejaVuSans-32" d="M 1228 531 
L 3431 531 
L 3431 0 
L 469 0 
L 469 531 
Q 828 903 1448 1529 
Q 2069 2156 2228 2338 
Q 2531 2678 2651 2914 
Q 2772 3150 2772 3378 
Q 2772 3750 2511 3984 
Q 2250 4219 1831 4219 
Q 1534 4219 1204 4116 
Q 875 4013 500 3803 
L 500 4441 
Q 881 4594 1212 4672 
Q 1544 4750 1819 4750 
Q 2544 4750 2975 4387 
Q 3406 4025 3406 3419 
Q 3406 3131 3298 2873 
Q 3191 2616 2906 2266 
Q 2828 2175 2409 1742 
Q 1991 1309 1228 531 
z
" transform="scale(0.015625)"/>
       </defs>
       <use xlink:href="#DejaVuSans-32"/>
       <use xlink:href="#DejaVuSans-30" x="63.623047"/>
       <use xlink:href="#DejaVuSans-30" x="127.246094"/>
      </g>
     </g>
    </g>
    <g id="xtick_4">
     <g id="line2d_4">
      <g>
       <use xlink:href="#m8fea1a70c8" x="236.16" y="307.584" style="stroke: #000000; stroke-width: 0.8"/>
      </g>
     </g>
     <g id="text_4">
      <!-- 300 -->
      <g transform="translate(226.61625 322.182437) scale(0.1 -0.1)">
       <defs>
        <path id="DejaVuSans-33" d="M 2597 2516 
Q 3050 2419 3304 2112 
Q 3559 1806 3559 1356 
Q 3559 666 3084 287 
Q 2609 -91 1734 -91 
Q 1441 -91 1130 -33 
Q 819 25 488 141 
L 488 750 
Q 750 597 1062 519 
Q 1375 441 1716 441 
Q 2309 441 2620 675 
Q 2931 909 2931 1356 
Q 2931 1769 2642 2001 
Q 2353 2234 1838 2234 
L 1294 2234 
L 1294 2753 
L 1863 2753 
Q 2328 2753 2575 2939 
Q 2822 3125 2822 3475 
Q 2822 3834 2567 4026 
Q 2313 4219 1838 4219 
Q 1578 4219 1281 4162 
Q 984 4106 628 3988 
L 628 4550 
Q 988 4650 1302 4700 
Q 1616 4750 1894 4750 
Q 2613 4750 3031 4423 
Q 3450 4097 3450 3541 
Q 3450 3153 3228 2886 
Q 3006 2619 2597 2516 
z
" transform="scale(0.015625)"/>
       </defs>
       <use xlink:href="#DejaVuSans-33"/>
       <use xlink:href="#DejaVuSans-30" x="63.623047"/>
       <use xlink:href="#DejaVuSans-30" x="127.246094"/>
      </g>
     </g>
    </g>
    <g id="xtick_5">
     <g id="line2d_5">
      <g>
       <use xlink:href="#m8fea1a70c8" x="290.269091" y="307.584" style="stroke: #000000; stroke-width: 0.8"/>
      </g>
     </g>
     <g id="text_5">
      <!-- 400 -->
      <g transform="translate(280.725341 322.182437) scale(0.1 -0.1)">
       <defs>
        <path id="DejaVuSans-34" d="M 2419 4116 
L 825 1625 
L 2419 1625 
L 2419 4116 
z
M 2253 4666 
L 3047 4666 
L 3047 1625 
L 3713 1625 
L 3713 1100 
L 3047 1100 
L 3047 0 
L 2419 0 
L 2419 1100 
L 313 1100 
L 313 1709 
L 2253 4666 
z
" transform="scale(0.015625)"/>
       </defs>
       <use xlink:href="#DejaVuSans-34"/>
       <use xlink:href="#DejaVuSans-30" x="63.623047"/>
       <use xlink:href="#DejaVuSans-30" x="127.246094"/>
      </g>
     </g>
    </g>
    <g id="xtick_6">
     <g id="line2d_6">
      <g>
       <use xlink:href="#m8fea1a70c8" x="344.378182" y="307.584" style="stroke: #000000; stroke-width: 0.8"/>
      </g>
     </g>
     <g id="text_6">
      <!-- 500 -->
      <g transform="translate(334.834432 322.182437) scale(0.1 -0.1)">
       <defs>
        <path id="DejaVuSans-35" d="M 691 4666 
L 3169 4666 
L 3169 4134 
L 1269 4134 
L 1269 2991 
Q 1406 3038 1543 3061 
Q 1681 3084 1819 3084 
Q 2600 3084 3056 2656 
Q 3513 2228 3513 1497 
Q 3513 744 3044 326 
Q 2575 -91 1722 -91 
Q 1428 -91 1123 -41 
Q 819 9 494 109 
L 494 744 
Q 775 591 1075 516 
Q 1375 441 1709 441 
Q 2250 441 2565 725 
Q 2881 1009 2881 1497 
Q 2881 1984 2565 2268 
Q 2250 2553 1709 2553 
Q 1456 2553 1204 2497 
Q 953 2441 691 2322 
L 691 4666 
z
" transform="scale(0.015625)"/>
       </defs>
       <use xlink:href="#DejaVuSans-35"/>
       <use xlink:href="#DejaVuSans-30" x="63.623047"/>
       <use xlink:href="#DejaVuSans-30" x="127.246094"/>
      </g>
     </g>
    </g>
    <g id="xtick_7">
     <g id="line2d_7">
      <g>
       <use xlink:href="#m8fea1a70c8" x="398.487273" y="307.584" style="stroke: #000000; stroke-width: 0.8"/>
      </g>
     </g>
     <g id="text_7">
      <!-- 600 -->
      <g transform="translate(388.943523 322.182437) scale(0.1 -0.1)">
       <defs>
        <path id="DejaVuSans-36" d="M 2113 2584 
Q 1688 2584 1439 2293 
Q 1191 2003 1191 1497 
Q 1191 994 1439 701 
Q 1688 409 2113 409 
Q 2538 409 2786 701 
Q 3034 994 3034 1497 
Q 3034 2003 2786 2293 
Q 2538 2584 2113 2584 
z
M 3366 4563 
L 3366 3988 
Q 3128 4100 2886 4159 
Q 2644 4219 2406 4219 
Q 1781 4219 1451 3797 
Q 1122 3375 1075 2522 
Q 1259 2794 1537 2939 
Q 1816 3084 2150 3084 
Q 2853 3084 3261 2657 
Q 3669 2231 3669 1497 
Q 3669 778 3244 343 
Q 2819 -91 2113 -91 
Q 1303 -91 875 529 
Q 447 1150 447 2328 
Q 447 3434 972 4092 
Q 1497 4750 2381 4750 
Q 2619 4750 2861 4703 
Q 3103 4656 3366 4563 
z
" transform="scale(0.015625)"/>
       </defs>
       <use xlink:href="#DejaVuSans-36"/>
       <use xlink:href="#DejaVuSans-30" x="63.623047"/>
       <use xlink:href="#DejaVuSans-30" x="127.246094"/>
      </g>
     </g>
    </g>
   </g>
   <g id="matplotlib.axis_2">
    <g id="ytick_1">
     <g id="line2d_8">
      <defs>
       <path id="m333219ee41" d="M 0 0 
L -3.5 0 
" style="stroke: #000000; stroke-width: 0.8"/>
      </defs>
      <g>
       <use xlink:href="#m333219ee41" x="57.6" y="284.031785" style="stroke: #000000; stroke-width: 0.8"/>
      </g>
     </g>
     <g id="text_8">
      <!-- −150 -->
      <g transform="translate(23.132812 287.831003) scale(0.1 -0.1)">
       <defs>
        <path id="DejaVuSans-2212" d="M 678 2272 
L 4684 2272 
L 4684 1741 
L 678 1741 
L 678 2272 
z
" transform="scale(0.015625)"/>
       </defs>
       <use xlink:href="#DejaVuSans-2212"/>
       <use xlink:href="#DejaVuSans-31" x="83.789062"/>
       <use xlink:href="#DejaVuSans-35" x="147.412109"/>
       <use xlink:href="#DejaVuSans-30" x="211.035156"/>
      </g>
     </g>
    </g>
    <g id="ytick_2">
     <g id="line2d_9">
      <g>
       <use xlink:href="#m333219ee41" x="57.6" y="250.409856" style="stroke: #000000; stroke-width: 0.8"/>
      </g>
     </g>
     <g id="text_9">
      <!-- −125 -->
      <g transform="translate(23.132812 254.209075) scale(0.1 -0.1)">
       <use xlink:href="#DejaVuSans-2212"/>
       <use xlink:href="#DejaVuSans-31" x="83.789062"/>
       <use xlink:href="#DejaVuSans-32" x="147.412109"/>
       <use xlink:href="#DejaVuSans-35" x="211.035156"/>
      </g>
     </g>
    </g>
    <g id="ytick_3">
     <g id="line2d_10">
      <g>
       <use xlink:href="#m333219ee41" x="57.6" y="216.787927" style="stroke: #000000; stroke-width: 0.8"/>
      </g>
     </g>
     <g id="text_10">
      <!-- −100 -->
      <g transform="translate(23.132812 220.587146) scale(0.1 -0.1)">
       <use xlink:href="#DejaVuSans-2212"/>
       <use xlink:href="#DejaVuSans-31" x="83.789062"/>
       <use xlink:href="#DejaVuSans-30" x="147.412109"/>
       <use xlink:href="#DejaVuSans-30" x="211.035156"/>
      </g>
     </g>
    </g>
    <g id="ytick_4">
     <g id="line2d_11">
      <g>
       <use xlink:href="#m333219ee41" x="57.6" y="183.165998" style="stroke: #000000; stroke-width: 0.8"/>
      </g>
     </g>
     <g id="text_11">
      <!-- −75 -->
      <g transform="translate(29.495313 186.965217) scale(0.1 -0.1)">
       <defs>
        <path id="DejaVuSans-37" d="M 525 4666 
L 3525 4666 
L 3525 4397 
L 1831 0 
L 1172 0 
L 2766 4134 
L 525 4134 
L 525 4666 
z
" transform="scale(0.015625)"/>
       </defs>
       <use xlink:href="#DejaVuSans-2212"/>
       <use xlink:href="#DejaVuSans-37" x="83.789062"/>
       <use xlink:href="#DejaVuSans-35" x="147.412109"/>
      </g>
     </g>
    </g>
    <g id="ytick_5">
     <g id="line2d_12">
      <g>
       <use xlink:href="#m333219ee41" x="57.6" y="149.54407" style="stroke: #000000; stroke-width: 0.8"/>
      </g>
     </g>
     <g id="text_12">
      <!-- −50 -->
      <g transform="translate(29.495313 153.343289) scale(0.1 -0.1)">
       <use xlink:href="#DejaVuSans-2212"/>
       <use xlink:href="#DejaVuSans-35" x="83.789062"/>
       <use xlink:href="#DejaVuSans-30" x="147.412109"/>
      </g>
     </g>
    </g>
    <g id="ytick_6">
     <g id="line2d_13">
      <g>
       <use xlink:href="#m333219ee41" x="57.6" y="115.922141" style="stroke: #000000; stroke-width: 0.8"/>
      </g>
     </g>
     <g id="text_13">
      <!-- −25 -->
      <g transform="translate(29.495313 119.72136) scale(0.1 -0.1)">
       <use xlink:href="#DejaVuSans-2212"/>
       <use xlink:href="#DejaVuSans-32" x="83.789062"/>
       <use xlink:href="#DejaVuSans-35" x="147.412109"/>
      </g>
     </g>
    </g>
    <g id="ytick_7">
     <g id="line2d_14">
      <g>
       <use xlink:href="#m333219ee41" x="57.6" y="82.300212" style="stroke: #000000; stroke-width: 0.8"/>
      </g>
     </g>
     <g id="text_14">
      <!-- 0 -->
      <g transform="translate(44.2375 86.099431) scale(0.1 -0.1)">
       <use xlink:href="#DejaVuSans-30"/>
      </g>
     </g>
    </g>
    <g id="ytick_8">
     <g id="line2d_15">
      <g>
       <use xlink:href="#m333219ee41" x="57.6" y="48.678284" style="stroke: #000000; stroke-width: 0.8"/>
      </g>
     </g>
     <g id="text_15">
      <!-- 25 -->
      <g transform="translate(37.875 52.477502) scale(0.1 -0.1)">
       <use xlink:href="#DejaVuSans-32"/>
       <use xlink:href="#DejaVuSans-35" x="63.623047"/>
      </g>
     </g>
    </g>
   </g>
   <g id="line2d_16">
    <path d="M 73.832727 82.209341 
" clip-path="url(#pd0aced3017)" style="fill: none; stroke: #1f77b4; stroke-width: 1.5; stroke-linecap: square"/>
   </g>
   <g id="line2d_17">
    <path d="M 73.832727 82.209341 
L 74.373818 79.725526 
L 74.914909 78.903433 
L 75.456 81.85175 
L 75.997091 81.353863 
L 76.538182 62.400515 
L 77.079273 79.562294 
L 77.620364 81.880744 
L 78.161455 78.951138 
L 78.702545 78.063151 
L 79.243636 76.961338 
L 79.784727 74.419513 
L 80.325818 76.086035 
L 80.866909 80.295701 
L 81.408 64.748623 
L 81.949091 53.568 
L 82.490182 81.880744 
L 83.031273 73.980657 
L 83.572364 80.694284 
L 84.113455 83.912761 
L 84.654545 111.130464 
L 85.195636 88.129984 
L 85.736727 67.670165 
L 86.277818 83.503298 
L 86.818909 69.582693 
L 87.36 77.456546 
L 87.901091 125.98086 
L 88.442182 94.973068 
L 88.983273 80.159521 
L 89.524364 71.188294 
L 90.065455 71.370064 
L 90.606545 119.000818 
L 91.147636 83.034099 
L 91.688727 72.678078 
L 92.229818 70.534597 
L 92.770909 80.001121 
L 93.312 80.989181 
L 93.853091 112.764783 
L 94.394182 81.246459 
L 94.935273 82.300212 
L 95.476364 82.176747 
L 96.017455 81.655416 
L 96.558545 81.804481 
L 97.099636 74.798889 
L 97.640727 84.661762 
L 98.181818 82.300212 
L 98.722909 93.672375 
L 99.264 82.13789 
L 99.805091 79.506516 
L 100.346182 69.229281 
L 100.887273 94.207447 
L 101.428364 83.371699 
L 101.969455 82.300212 
L 102.510545 82.300212 
L 103.051636 93.077813 
L 103.592727 82.300212 
L 104.133818 81.379674 
L 104.674909 82.723595 
L 105.216 82.300212 
L 105.757091 82.300212 
L 106.298182 82.300212 
L 106.839273 78.456373 
L 107.380364 64.245861 
L 107.921455 73.2028 
L 108.462545 82.300212 
L 109.003636 82.300212 
L 109.544727 80.244901 
L 110.085818 75.572871 
L 110.626909 75.626154 
L 111.168 76.682492 
L 111.709091 79.489034 
L 112.250182 85.714904 
L 112.791273 99.609883 
L 113.332364 107.883247 
L 113.873455 94.910205 
L 114.414545 82.300212 
L 114.955636 99.801643 
L 115.496727 82.723595 
L 116.037818 82.300212 
L 116.578909 82.300212 
L 117.12 82.300212 
L 117.661091 87.170799 
L 118.202182 110.485351 
L 118.743273 228.326883 
L 119.284364 90.789397 
L 119.825455 169.641977 
L 120.366545 116.163977 
L 120.907636 97.739787 
L 121.448727 99.801643 
L 121.989818 122.000617 
L 122.530909 153.949106 
L 123.072 86.321706 
L 123.613091 90.355403 
L 124.154182 82.129189 
L 124.695273 99.801643 
L 125.236364 80.856019 
L 125.777455 101.072357 
L 126.318545 153.961102 
L 126.859636 81.138071 
L 127.400727 90.559376 
L 127.941818 99.661307 
" clip-path="url(#pd0aced3017)" style="fill: none; stroke: #ff7f0e; stroke-width: 1.5; stroke-linecap: square"/>
   </g>
   <g id="line2d_18">
    <path d="M 73.832727 82.209341 
L 74.373818 79.725526 
L 74.914909 78.903433 
L 75.456 81.85175 
L 75.997091 81.353863 
L 76.538182 62.400515 
L 77.079273 79.562294 
L 77.620364 81.880744 
L 78.161455 78.951138 
L 78.702545 78.063151 
L 79.243636 76.961338 
L 79.784727 74.419513 
L 80.325818 76.086035 
L 80.866909 80.295701 
L 81.408 64.748623 
L 81.949091 53.568 
L 82.490182 81.880744 
L 83.031273 73.980657 
L 83.572364 80.694284 
L 84.113455 83.912761 
L 84.654545 111.130464 
L 85.736727 67.670165 
L 86.277818 83.503298 
L 86.818909 69.582693 
L 87.36 77.456546 
L 87.901091 125.98086 
L 88.442182 94.973068 
L 88.983273 80.159521 
L 89.524364 71.188294 
L 90.065455 71.370064 
L 90.606545 119.000818 
L 91.147636 83.034099 
L 91.688727 72.678078 
L 92.229818 70.534597 
L 92.770909 80.001121 
L 93.312 80.989181 
L 93.853091 112.764783 
L 94.394182 81.246459 
L 94.935273 82.300212 
L 95.476364 82.176747 
L 96.017455 81.655416 
L 96.558545 81.804481 
L 97.099636 74.798889 
L 97.640727 84.661762 
L 98.181818 82.300212 
L 98.722909 93.672375 
L 99.264 82.13789 
L 99.805091 79.506516 
L 100.346182 69.229281 
L 100.887273 94.207447 
L 101.428364 83.371699 
L 101.969455 82.300212 
L 102.510545 82.300212 
L 103.051636 93.077813 
L 103.592727 82.300212 
L 104.133818 81.379674 
L 104.674909 82.723595 
L 105.216 82.300212 
L 106.298182 82.300212 
L 106.839273 78.456373 
L 107.380364 64.245861 
L 108.462545 82.300212 
L 109.003636 82.300212 
L 109.544727 80.244901 
L 110.085818 75.572871 
L 110.626909 75.626154 
L 111.168 76.682492 
L 111.709091 79.489034 
L 112.250182 85.714904 
L 112.791273 99.609883 
L 113.332364 107.883247 
L 114.414545 82.300212 
L 114.955636 99.801643 
L 115.496727 82.723595 
L 116.037818 82.300212 
L 117.12 82.300212 
L 117.661091 87.170799 
L 118.202182 110.485351 
L 118.743273 228.326883 
L 119.284364 90.789397 
L 119.825455 169.641977 
L 120.366545 116.163977 
L 120.907636 97.739787 
L 121.448727 99.801643 
L 121.989818 122.000617 
L 122.530909 153.949106 
L 123.072 86.321706 
L 123.613091 90.355403 
L 124.154182 82.129189 
L 124.695273 99.801643 
L 125.236364 80.856019 
L 125.777455 101.072357 
L 126.318545 153.961102 
L 126.859636 81.138071 
L 127.941818 99.661307 
L 129.024 82.300212 
L 129.565091 82.300212 
L 130.106182 157.779956 
L 130.647273 90.370445 
L 131.188364 82.300212 
L 131.729455 82.300212 
L 132.270545 84.0888 
L 132.811636 81.802599 
L 133.352727 93.565788 
L 133.893818 77.62118 
L 134.434909 119.975907 
L 134.976 82.300212 
L 135.517091 87.40116 
L 136.058182 82.300212 
L 136.599273 129.061329 
L 137.140364 77.481926 
L 137.681455 82.300212 
L 138.222545 81.250867 
L 138.763636 121.477976 
L 139.304727 121.477976 
L 139.845818 122.493371 
L 140.386909 82.267147 
L 142.010182 82.300212 
L 142.551273 121.359047 
L 143.092364 82.300212 
L 143.633455 82.129189 
L 144.174545 96.024277 
L 144.715636 82.24499 
L 145.256727 163.83239 
L 145.797818 81.082876 
L 146.338909 114.087843 
L 146.88 122.721719 
L 147.421091 86.847185 
L 147.962182 90.194372 
L 148.503273 82.24499 
L 149.044364 82.300212 
L 150.126545 154.083078 
L 150.667636 75.221065 
L 151.208727 82.300212 
L 151.749818 82.300212 
L 152.290909 81.189353 
L 152.832 92.966508 
L 153.373091 82.300212 
L 153.914182 82.264255 
L 154.455273 121.477976 
L 154.996364 82.300212 
L 155.537455 78.804588 
L 156.078545 82.300212 
L 156.619636 82.351482 
L 157.160727 82.24499 
L 157.701818 79.812758 
L 158.242909 82.300212 
L 158.784 82.300212 
L 159.325091 82.129189 
L 159.866182 82.300212 
L 160.948364 76.857927 
L 161.489455 92.930015 
L 162.030545 90.610409 
L 162.571636 82.300212 
L 164.194909 82.300212 
L 164.736 82.129189 
L 165.277091 82.351482 
L 166.359273 82.24499 
L 166.900364 76.857927 
L 167.441455 82.354094 
L 167.982545 82.575306 
L 168.523636 85.834178 
L 169.064727 80.856019 
L 169.605818 90.610409 
L 170.146909 82.300212 
L 170.688 83.749962 
L 171.229091 82.24499 
L 172.311273 82.267147 
L 172.852364 76.979269 
L 173.393455 80.415063 
L 173.934545 77.602312 
L 174.475636 82.354094 
L 175.557818 82.300212 
L 176.64 82.300212 
L 177.181091 81.709322 
L 177.722182 72.440885 
L 178.263273 86.4975 
L 178.804364 86.200543 
L 179.345455 87.33583 
L 179.886545 82.300212 
L 180.427636 82.575306 
L 180.968727 93.534114 
L 181.509818 82.604614 
L 182.050909 82.300212 
L 182.050909 82.300212 
" clip-path="url(#pd0aced3017)" style="fill: none; stroke: #2ca02c; stroke-width: 1.5; stroke-linecap: square"/>
   </g>
   <g id="line2d_19">
    <path d="M 73.832727 82.209341 
L 74.373818 79.725526 
L 74.914909 78.903433 
L 75.456 81.85175 
L 75.997091 81.353863 
L 76.538182 62.400515 
L 77.079273 79.562294 
L 77.620364 81.880744 
L 78.161455 78.951138 
L 78.702545 78.063151 
L 79.243636 76.961338 
L 79.784727 74.419513 
L 80.325818 76.086035 
L 80.866909 80.295701 
L 81.408 64.748623 
L 81.949091 53.568 
L 82.490182 81.880744 
L 83.031273 73.980657 
L 83.572364 80.694284 
L 84.113455 83.912761 
L 84.654545 111.130464 
L 85.736727 67.670165 
L 86.277818 83.503298 
L 86.818909 69.582693 
L 87.36 77.456546 
L 87.901091 125.98086 
L 88.442182 94.973068 
L 88.983273 80.159521 
L 89.524364 71.188294 
L 90.065455 71.370064 
L 90.606545 119.000818 
L 91.147636 83.034099 
L 91.688727 72.678078 
L 92.229818 70.534597 
L 92.770909 80.001121 
L 93.312 80.989181 
L 93.853091 112.764783 
L 94.394182 81.246459 
L 94.935273 82.300212 
L 95.476364 82.176747 
L 96.017455 81.655416 
L 96.558545 81.804481 
L 97.099636 74.798889 
L 97.640727 84.661762 
L 98.181818 82.300212 
L 98.722909 93.672375 
L 99.264 82.13789 
L 99.805091 79.506516 
L 100.346182 69.229281 
L 100.887273 94.207447 
L 101.428364 83.371699 
L 101.969455 82.300212 
L 102.510545 82.300212 
L 103.051636 93.077813 
L 103.592727 82.300212 
L 104.133818 81.379674 
L 104.674909 82.723595 
L 105.216 82.300212 
L 106.298182 82.300212 
L 106.839273 78.456373 
L 107.380364 64.245861 
L 108.462545 82.300212 
L 109.003636 82.300212 
L 109.544727 80.244901 
L 110.085818 75.572871 
L 110.626909 75.626154 
L 111.168 76.682492 
L 111.709091 79.489034 
L 112.250182 85.714904 
L 112.791273 99.609883 
L 113.332364 107.883247 
L 114.414545 82.300212 
L 114.955636 99.801643 
L 115.496727 82.723595 
L 116.037818 82.300212 
L 117.12 82.300212 
L 117.661091 87.170799 
L 118.202182 110.485351 
L 118.743273 228.326883 
L 119.284364 90.789397 
L 119.825455 169.641977 
L 120.366545 116.163977 
L 120.907636 97.739787 
L 121.448727 99.801643 
L 121.989818 122.000617 
L 122.530909 153.949106 
L 123.072 86.321706 
L 123.613091 90.355403 
L 124.154182 82.129189 
L 124.695273 99.801643 
L 125.236364 80.856019 
L 125.777455 101.072357 
L 126.318545 153.961102 
L 126.859636 81.138071 
L 127.941818 99.661307 
L 129.024 82.300212 
L 129.565091 82.300212 
L 130.106182 157.779956 
L 130.647273 90.370445 
L 131.188364 82.300212 
L 131.729455 82.300212 
L 132.270545 84.0888 
L 132.811636 81.802599 
L 133.352727 93.565788 
L 133.893818 77.62118 
L 134.434909 119.975907 
L 134.976 82.300212 
L 135.517091 87.40116 
L 136.058182 82.300212 
L 136.599273 129.061329 
L 137.140364 77.481926 
L 137.681455 82.300212 
L 138.222545 81.250867 
L 138.763636 121.477976 
L 139.304727 121.477976 
L 139.845818 122.493371 
L 140.386909 82.267147 
L 142.010182 82.300212 
L 142.551273 121.359047 
L 143.092364 82.300212 
L 143.633455 82.129189 
L 144.174545 96.024277 
L 144.715636 82.24499 
L 145.256727 163.83239 
L 145.797818 81.082876 
L 146.338909 114.087843 
L 146.88 122.721719 
L 147.421091 86.847185 
L 147.962182 90.194372 
L 148.503273 82.24499 
L 149.044364 82.300212 
L 150.126545 154.083078 
L 150.667636 75.221065 
L 151.208727 82.300212 
L 151.749818 82.300212 
L 152.290909 81.189353 
L 152.832 92.966508 
L 153.373091 82.300212 
L 153.914182 82.264255 
L 154.455273 121.477976 
L 154.996364 82.300212 
L 155.537455 78.804588 
L 156.078545 82.300212 
L 156.619636 82.351482 
L 157.160727 82.24499 
L 157.701818 79.812758 
L 158.242909 82.300212 
L 158.784 82.300212 
L 159.325091 82.129189 
L 159.866182 82.300212 
L 160.948364 76.857927 
L 161.489455 92.930015 
L 162.030545 90.610409 
L 162.571636 82.300212 
L 164.194909 82.300212 
L 164.736 82.129189 
L 165.277091 82.351482 
L 166.359273 82.24499 
L 166.900364 76.857927 
L 167.441455 82.354094 
L 167.982545 82.575306 
L 168.523636 85.834178 
L 169.064727 80.856019 
L 169.605818 90.610409 
L 170.146909 82.300212 
L 170.688 83.749962 
L 171.229091 82.24499 
L 172.311273 82.267147 
L 172.852364 76.979269 
L 173.393455 80.415063 
L 173.934545 77.602312 
L 174.475636 82.354094 
L 175.557818 82.300212 
L 176.64 82.300212 
L 177.181091 81.709322 
L 177.722182 72.440885 
L 178.263273 86.4975 
L 178.804364 86.200543 
L 179.345455 87.33583 
L 179.886545 82.300212 
L 180.427636 82.575306 
L 180.968727 93.534114 
L 181.509818 82.604614 
L 182.050909 82.300212 
L 183.674182 82.351482 
L 184.215273 76.857927 
L 184.756364 82.300212 
L 185.297455 82.300212 
L 186.379636 79.564649 
L 186.920727 76.051599 
L 187.461818 81.203727 
L 188.002909 88.44682 
L 188.544 87.202484 
L 189.085091 86.852211 
L 189.626182 79.812758 
L 190.167273 84.298533 
L 190.708364 82.300212 
L 191.249455 82.300212 
L 191.790545 88.287568 
L 192.331636 82.291507 
L 193.413818 82.300212 
L 193.954909 86.266502 
L 194.496 93.167655 
L 195.037091 83.659958 
L 195.578182 82.507674 
L 196.119273 82.300212 
L 196.660364 82.300212 
L 197.201455 81.682878 
L 197.742545 82.300212 
L 198.283636 82.300212 
L 198.824727 77.274877 
L 199.365818 78.262783 
L 199.906909 77.122656 
L 200.448 86.852211 
L 200.989091 76.513933 
L 201.530182 77.122656 
L 202.612364 87.643967 
L 203.153455 83.985262 
L 203.694545 84.46694 
L 204.235636 114.878002 
L 204.776727 85.502456 
L 205.317818 80.696687 
L 205.858909 114.254627 
L 206.4 79.972234 
L 206.941091 87.121647 
L 207.482182 82.300212 
L 208.023273 79.751065 
L 208.564364 93.412512 
L 209.105455 79.721249 
L 209.646545 73.728049 
L 210.187636 72.335458 
L 210.728727 73.888183 
L 211.810909 182.114981 
L 212.352 82.482503 
L 212.893091 163.016635 
L 213.434182 116.642484 
L 213.975273 104.929699 
L 214.516364 66.787244 
L 215.057455 171.821361 
L 215.598545 182.032751 
L 216.139636 164.459432 
L 216.680727 128.620905 
L 217.221818 132.453816 
L 218.304 74.124978 
L 218.845091 82.300212 
L 219.386182 146.747449 
L 219.927273 166.474472 
L 220.468364 137.334883 
L 221.009455 295.488 
L 221.550545 105.953649 
L 222.091636 94.328239 
L 222.632727 91.86812 
L 223.173818 102.566635 
L 223.714909 99.12044 
L 224.256 207.933534 
L 224.797091 106.43665 
L 225.338182 182.941365 
L 225.879273 83.86425 
L 226.420364 104.181627 
L 226.961455 91.742934 
L 227.502545 138.009454 
L 228.043636 89.375648 
L 228.584727 95.514415 
L 229.125818 109.675507 
L 229.666909 108.341998 
L 230.208 90.630982 
L 230.749091 120.213792 
L 231.290182 103.266555 
L 231.831273 92.759589 
L 232.372364 88.278722 
L 232.913455 108.234469 
L 233.454545 85.275368 
L 233.995636 105.947912 
L 234.536727 89.898174 
L 235.077818 168.890034 
L 235.618909 99.12044 
L 236.16 96.328976 
L 236.16 96.328976 
" clip-path="url(#pd0aced3017)" style="fill: none; stroke: #d62728; stroke-width: 1.5; stroke-linecap: square"/>
   </g>
   <g id="line2d_20">
    <path d="M 73.832727 82.209341 
L 74.373818 79.725526 
L 74.914909 78.903433 
L 75.456 81.85175 
L 75.997091 81.353863 
L 76.538182 62.400515 
L 77.079273 79.562294 
L 77.620364 81.880744 
L 78.161455 78.951138 
L 78.702545 78.063151 
L 79.243636 76.961338 
L 79.784727 74.419513 
L 80.325818 76.086035 
L 80.866909 80.295701 
L 81.408 64.748623 
L 81.949091 53.568 
L 82.490182 81.880744 
L 83.031273 73.980657 
L 83.572364 80.694284 
L 84.113455 83.912761 
L 84.654545 111.130464 
L 85.736727 67.670165 
L 86.277818 83.503298 
L 86.818909 69.582693 
L 87.36 77.456546 
L 87.901091 125.98086 
L 88.442182 94.973068 
L 88.983273 80.159521 
L 89.524364 71.188294 
L 90.065455 71.370064 
L 90.606545 119.000818 
L 91.147636 83.034099 
L 91.688727 72.678078 
L 92.229818 70.534597 
L 92.770909 80.001121 
L 93.312 80.989181 
L 93.853091 112.764783 
L 94.394182 81.246459 
L 94.935273 82.300212 
L 95.476364 82.176747 
L 96.017455 81.655416 
L 96.558545 81.804481 
L 97.099636 74.798889 
L 97.640727 84.661762 
L 98.181818 82.300212 
L 98.722909 93.672375 
L 99.264 82.13789 
L 99.805091 79.506516 
L 100.346182 69.229281 
L 100.887273 94.207447 
L 101.428364 83.371699 
L 101.969455 82.300212 
L 102.510545 82.300212 
L 103.051636 93.077813 
L 103.592727 82.300212 
L 104.133818 81.379674 
L 104.674909 82.723595 
L 105.216 82.300212 
L 106.298182 82.300212 
L 106.839273 78.456373 
L 107.380364 64.245861 
L 108.462545 82.300212 
L 109.003636 82.300212 
L 109.544727 80.244901 
L 110.085818 75.572871 
L 110.626909 75.626154 
L 111.168 76.682492 
L 111.709091 79.489034 
L 112.250182 85.714904 
L 112.791273 99.609883 
L 113.332364 107.883247 
L 114.414545 82.300212 
L 114.955636 99.801643 
L 115.496727 82.723595 
L 116.037818 82.300212 
L 117.12 82.300212 
L 117.661091 87.170799 
L 118.202182 110.485351 
L 118.743273 228.326883 
L 119.284364 90.789397 
L 119.825455 169.641977 
L 120.366545 116.163977 
L 120.907636 97.739787 
L 121.448727 99.801643 
L 121.989818 122.000617 
L 122.530909 153.949106 
L 123.072 86.321706 
L 123.613091 90.355403 
L 124.154182 82.129189 
L 124.695273 99.801643 
L 125.236364 80.856019 
L 125.777455 101.072357 
L 126.318545 153.961102 
L 126.859636 81.138071 
L 127.941818 99.661307 
L 129.024 82.300212 
L 129.565091 82.300212 
L 130.106182 157.779956 
L 130.647273 90.370445 
L 131.188364 82.300212 
L 131.729455 82.300212 
L 132.270545 84.0888 
L 132.811636 81.802599 
L 133.352727 93.565788 
L 133.893818 77.62118 
L 134.434909 119.975907 
L 134.976 82.300212 
L 135.517091 87.40116 
L 136.058182 82.300212 
L 136.599273 129.061329 
L 137.140364 77.481926 
L 137.681455 82.300212 
L 138.222545 81.250867 
L 138.763636 121.477976 
L 139.304727 121.477976 
L 139.845818 122.493371 
L 140.386909 82.267147 
L 142.010182 82.300212 
L 142.551273 121.359047 
L 143.092364 82.300212 
L 143.633455 82.129189 
L 144.174545 96.024277 
L 144.715636 82.24499 
L 145.256727 163.83239 
L 145.797818 81.082876 
L 146.338909 114.087843 
L 146.88 122.721719 
L 147.421091 86.847185 
L 147.962182 90.194372 
L 148.503273 82.24499 
L 149.044364 82.300212 
L 150.126545 154.083078 
L 150.667636 75.221065 
L 151.208727 82.300212 
L 151.749818 82.300212 
L 152.290909 81.189353 
L 152.832 92.966508 
L 153.373091 82.300212 
L 153.914182 82.264255 
L 154.455273 121.477976 
L 154.996364 82.300212 
L 155.537455 78.804588 
L 156.078545 82.300212 
L 156.619636 82.351482 
L 157.160727 82.24499 
L 157.701818 79.812758 
L 158.242909 82.300212 
L 158.784 82.300212 
L 159.325091 82.129189 
L 159.866182 82.300212 
L 160.948364 76.857927 
L 161.489455 92.930015 
L 162.030545 90.610409 
L 162.571636 82.300212 
L 164.194909 82.300212 
L 164.736 82.129189 
L 165.277091 82.351482 
L 166.359273 82.24499 
L 166.900364 76.857927 
L 167.441455 82.354094 
L 167.982545 82.575306 
L 168.523636 85.834178 
L 169.064727 80.856019 
L 169.605818 90.610409 
L 170.146909 82.300212 
L 170.688 83.749962 
L 171.229091 82.24499 
L 172.311273 82.267147 
L 172.852364 76.979269 
L 173.393455 80.415063 
L 173.934545 77.602312 
L 174.475636 82.354094 
L 175.557818 82.300212 
L 176.64 82.300212 
L 177.181091 81.709322 
L 177.722182 72.440885 
L 178.263273 86.4975 
L 178.804364 86.200543 
L 179.345455 87.33583 
L 179.886545 82.300212 
L 180.427636 82.575306 
L 180.968727 93.534114 
L 181.509818 82.604614 
L 182.050909 82.300212 
L 183.674182 82.351482 
L 184.215273 76.857927 
L 184.756364 82.300212 
L 185.297455 82.300212 
L 186.379636 79.564649 
L 186.920727 76.051599 
L 187.461818 81.203727 
L 188.002909 88.44682 
L 188.544 87.202484 
L 189.085091 86.852211 
L 189.626182 79.812758 
L 190.167273 84.298533 
L 190.708364 82.300212 
L 191.249455 82.300212 
L 191.790545 88.287568 
L 192.331636 82.291507 
L 193.413818 82.300212 
L 193.954909 86.266502 
L 194.496 93.167655 
L 195.037091 83.659958 
L 195.578182 82.507674 
L 196.119273 82.300212 
L 196.660364 82.300212 
L 197.201455 81.682878 
L 197.742545 82.300212 
L 198.283636 82.300212 
L 198.824727 77.274877 
L 199.365818 78.262783 
L 199.906909 77.122656 
L 200.448 86.852211 
L 200.989091 76.513933 
L 201.530182 77.122656 
L 202.612364 87.643967 
L 203.153455 83.985262 
L 203.694545 84.46694 
L 204.235636 114.878002 
L 204.776727 85.502456 
L 205.317818 80.696687 
L 205.858909 114.254627 
L 206.4 79.972234 
L 206.941091 87.121647 
L 207.482182 82.300212 
L 208.023273 79.751065 
L 208.564364 93.412512 
L 209.105455 79.721249 
L 209.646545 73.728049 
L 210.187636 72.335458 
L 210.728727 73.888183 
L 211.810909 182.114981 
L 212.352 82.482503 
L 212.893091 163.016635 
L 213.434182 116.642484 
L 213.975273 104.929699 
L 214.516364 66.787244 
L 215.057455 171.821361 
L 215.598545 182.032751 
L 216.139636 164.459432 
L 216.680727 128.620905 
L 217.221818 132.453816 
L 218.304 74.124978 
L 218.845091 82.300212 
L 219.386182 146.747449 
L 219.927273 166.474472 
L 220.468364 137.334883 
L 221.009455 295.488 
L 221.550545 105.953649 
L 222.091636 94.328239 
L 222.632727 91.86812 
L 223.173818 102.566635 
L 223.714909 99.12044 
L 224.256 207.933534 
L 224.797091 106.43665 
L 225.338182 182.941365 
L 225.879273 83.86425 
L 226.420364 104.181627 
L 226.961455 91.742934 
L 227.502545 138.009454 
L 228.043636 89.375648 
L 228.584727 95.514415 
L 229.125818 109.675507 
L 229.666909 108.341998 
L 230.208 90.630982 
L 230.749091 120.213792 
L 231.290182 103.266555 
L 231.831273 92.759589 
L 232.372364 88.278722 
L 232.913455 108.234469 
L 233.454545 85.275368 
L 233.995636 105.947912 
L 234.536727 89.898174 
L 235.077818 168.890034 
L 235.618909 99.12044 
L 236.16 96.328976 
L 236.701091 100.413874 
L 237.242182 103.378585 
L 237.783273 91.102404 
L 238.324364 143.024512 
L 238.865455 107.690707 
L 239.406545 101.815078 
L 239.947636 90.883911 
L 240.488727 84.654451 
L 241.029818 122.51767 
L 241.570909 87.136404 
L 242.112 106.003526 
L 242.653091 90.380967 
L 243.735273 77.109841 
L 244.276364 90.236861 
L 244.817455 106.887604 
L 245.358545 99.967765 
L 245.899636 83.963042 
L 246.440727 185.624087 
L 246.981818 84.10263 
L 247.522909 118.66133 
L 248.064 116.256549 
L 248.605091 104.329791 
L 249.146182 83.761393 
L 249.687273 93.127259 
L 250.228364 99.632647 
L 250.769455 121.656605 
L 251.851636 97.705637 
L 252.392727 104.799249 
L 252.933818 94.377828 
L 253.474909 93.089386 
L 254.016 96.196215 
L 254.557091 185.624087 
L 255.098182 111.570425 
L 255.639273 90.650848 
L 256.180364 124.222598 
L 256.721455 95.06616 
L 257.262545 91.328985 
L 257.803636 103.266555 
L 258.344727 83.949085 
L 258.885818 91.563699 
L 259.426909 93.360028 
L 259.968 90.94203 
L 260.509091 86.598151 
L 261.050182 241.658857 
L 261.591273 112.314731 
L 262.132364 91.197123 
L 262.673455 170.096406 
L 263.755636 86.364448 
L 264.296727 95.968335 
L 264.837818 90.432233 
L 265.378909 108.395434 
L 265.92 190.149939 
L 266.461091 151.273831 
L 267.002182 91.341022 
L 267.543273 95.640708 
L 268.084364 143.235491 
L 268.625455 91.143216 
L 269.166545 106.010963 
L 269.707636 179.991089 
L 270.248727 105.133497 
L 270.789818 95.514415 
L 271.330909 115.746503 
L 271.872 96.57419 
L 272.413091 117.820477 
L 272.954182 91.225967 
L 273.495273 95.640708 
L 274.036364 161.296979 
L 274.577455 186.952742 
L 275.118545 90.656633 
L 275.659636 102.680875 
L 276.200727 184.992791 
L 276.741818 100.523297 
L 277.282909 90.35309 
L 277.824 91.620604 
L 278.365091 185.624087 
L 278.906182 101.49136 
L 279.447273 104.253615 
L 279.988364 186.952742 
L 280.529455 84.126732 
L 281.070545 92.546526 
L 281.611636 91.776429 
L 282.152727 185.624087 
L 282.693818 93.681888 
L 283.234909 95.671297 
L 283.776 103.28711 
L 284.317091 91.620604 
L 284.858182 108.167768 
L 285.399273 103.430501 
L 285.940364 90.457825 
L 286.481455 138.258593 
L 287.022545 92.029671 
L 287.563636 92.58855 
L 288.104727 109.360327 
L 288.645818 99.116857 
L 289.186909 92.670464 
L 289.728 82.816538 
L 290.269091 91.023134 
L 290.269091 91.023134 
" clip-path="url(#pd0aced3017)" style="fill: none; stroke: #9467bd; stroke-width: 1.5; stroke-linecap: square"/>
   </g>
   <g id="line2d_21">
    <path d="M 73.832727 82.209341 
L 74.373818 79.725526 
L 74.914909 78.903433 
L 75.456 81.85175 
L 75.997091 81.353863 
L 76.538182 62.400515 
L 77.079273 79.562294 
L 77.620364 81.880744 
L 78.161455 78.951138 
L 78.702545 78.063151 
L 79.243636 76.961338 
L 79.784727 74.419513 
L 80.325818 76.086035 
L 80.866909 80.295701 
L 81.408 64.748623 
L 81.949091 53.568 
L 82.490182 81.880744 
L 83.031273 73.980657 
L 83.572364 80.694284 
L 84.113455 83.912761 
L 84.654545 111.130464 
L 85.736727 67.670165 
L 86.277818 83.503298 
L 86.818909 69.582693 
L 87.36 77.456546 
L 87.901091 125.98086 
L 88.442182 94.973068 
L 88.983273 80.159521 
L 89.524364 71.188294 
L 90.065455 71.370064 
L 90.606545 119.000818 
L 91.147636 83.034099 
L 91.688727 72.678078 
L 92.229818 70.534597 
L 92.770909 80.001121 
L 93.312 80.989181 
L 93.853091 112.764783 
L 94.394182 81.246459 
L 94.935273 82.300212 
L 95.476364 82.176747 
L 96.017455 81.655416 
L 96.558545 81.804481 
L 97.099636 74.798889 
L 97.640727 84.661762 
L 98.181818 82.300212 
L 98.722909 93.672375 
L 99.264 82.13789 
L 99.805091 79.506516 
L 100.346182 69.229281 
L 100.887273 94.207447 
L 101.428364 83.371699 
L 101.969455 82.300212 
L 102.510545 82.300212 
L 103.051636 93.077813 
L 103.592727 82.300212 
L 104.133818 81.379674 
L 104.674909 82.723595 
L 105.216 82.300212 
L 106.298182 82.300212 
L 106.839273 78.456373 
L 107.380364 64.245861 
L 108.462545 82.300212 
L 109.003636 82.300212 
L 109.544727 80.244901 
L 110.085818 75.572871 
L 110.626909 75.626154 
L 111.168 76.682492 
L 111.709091 79.489034 
L 112.250182 85.714904 
L 112.791273 99.609883 
L 113.332364 107.883247 
L 114.414545 82.300212 
L 114.955636 99.801643 
L 115.496727 82.723595 
L 116.037818 82.300212 
L 117.12 82.300212 
L 117.661091 87.170799 
L 118.202182 110.485351 
L 118.743273 228.326883 
L 119.284364 90.789397 
L 119.825455 169.641977 
L 120.366545 116.163977 
L 120.907636 97.739787 
L 121.448727 99.801643 
L 121.989818 122.000617 
L 122.530909 153.949106 
L 123.072 86.321706 
L 123.613091 90.355403 
L 124.154182 82.129189 
L 124.695273 99.801643 
L 125.236364 80.856019 
L 125.777455 101.072357 
L 126.318545 153.961102 
L 126.859636 81.138071 
L 127.941818 99.661307 
L 129.024 82.300212 
L 129.565091 82.300212 
L 130.106182 157.779956 
L 130.647273 90.370445 
L 131.188364 82.300212 
L 131.729455 82.300212 
L 132.270545 84.0888 
L 132.811636 81.802599 
L 133.352727 93.565788 
L 133.893818 77.62118 
L 134.434909 119.975907 
L 134.976 82.300212 
L 135.517091 87.40116 
L 136.058182 82.300212 
L 136.599273 129.061329 
L 137.140364 77.481926 
L 137.681455 82.300212 
L 138.222545 81.250867 
L 138.763636 121.477976 
L 139.304727 121.477976 
L 139.845818 122.493371 
L 140.386909 82.267147 
L 142.010182 82.300212 
L 142.551273 121.359047 
L 143.092364 82.300212 
L 143.633455 82.129189 
L 144.174545 96.024277 
L 144.715636 82.24499 
L 145.256727 163.83239 
L 145.797818 81.082876 
L 146.338909 114.087843 
L 146.88 122.721719 
L 147.421091 86.847185 
L 147.962182 90.194372 
L 148.503273 82.24499 
L 149.044364 82.300212 
L 150.126545 154.083078 
L 150.667636 75.221065 
L 151.208727 82.300212 
L 151.749818 82.300212 
L 152.290909 81.189353 
L 152.832 92.966508 
L 153.373091 82.300212 
L 153.914182 82.264255 
L 154.455273 121.477976 
L 154.996364 82.300212 
L 155.537455 78.804588 
L 156.078545 82.300212 
L 156.619636 82.351482 
L 157.160727 82.24499 
L 157.701818 79.812758 
L 158.242909 82.300212 
L 158.784 82.300212 
L 159.325091 82.129189 
L 159.866182 82.300212 
L 160.948364 76.857927 
L 161.489455 92.930015 
L 162.030545 90.610409 
L 162.571636 82.300212 
L 164.194909 82.300212 
L 164.736 82.129189 
L 165.277091 82.351482 
L 166.359273 82.24499 
L 166.900364 76.857927 
L 167.441455 82.354094 
L 167.982545 82.575306 
L 168.523636 85.834178 
L 169.064727 80.856019 
L 169.605818 90.610409 
L 170.146909 82.300212 
L 170.688 83.749962 
L 171.229091 82.24499 
L 172.311273 82.267147 
L 172.852364 76.979269 
L 173.393455 80.415063 
L 173.934545 77.602312 
L 174.475636 82.354094 
L 175.557818 82.300212 
L 176.64 82.300212 
L 177.181091 81.709322 
L 177.722182 72.440885 
L 178.263273 86.4975 
L 178.804364 86.200543 
L 179.345455 87.33583 
L 179.886545 82.300212 
L 180.427636 82.575306 
L 180.968727 93.534114 
L 181.509818 82.604614 
L 182.050909 82.300212 
L 183.674182 82.351482 
L 184.215273 76.857927 
L 184.756364 82.300212 
L 185.297455 82.300212 
L 186.379636 79.564649 
L 186.920727 76.051599 
L 187.461818 81.203727 
L 188.002909 88.44682 
L 188.544 87.202484 
L 189.085091 86.852211 
L 189.626182 79.812758 
L 190.167273 84.298533 
L 190.708364 82.300212 
L 191.249455 82.300212 
L 191.790545 88.287568 
L 192.331636 82.291507 
L 193.413818 82.300212 
L 193.954909 86.266502 
L 194.496 93.167655 
L 195.037091 83.659958 
L 195.578182 82.507674 
L 196.119273 82.300212 
L 196.660364 82.300212 
L 197.201455 81.682878 
L 197.742545 82.300212 
L 198.283636 82.300212 
L 198.824727 77.274877 
L 199.365818 78.262783 
L 199.906909 77.122656 
L 200.448 86.852211 
L 200.989091 76.513933 
L 201.530182 77.122656 
L 202.612364 87.643967 
L 203.153455 83.985262 
L 203.694545 84.46694 
L 204.235636 114.878002 
L 204.776727 85.502456 
L 205.317818 80.696687 
L 205.858909 114.254627 
L 206.4 79.972234 
L 206.941091 87.121647 
L 207.482182 82.300212 
L 208.023273 79.751065 
L 208.564364 93.412512 
L 209.105455 79.721249 
L 209.646545 73.728049 
L 210.187636 72.335458 
L 210.728727 73.888183 
L 211.810909 182.114981 
L 212.352 82.482503 
L 212.893091 163.016635 
L 213.434182 116.642484 
L 213.975273 104.929699 
L 214.516364 66.787244 
L 215.057455 171.821361 
L 215.598545 182.032751 
L 216.139636 164.459432 
L 216.680727 128.620905 
L 217.221818 132.453816 
L 218.304 74.124978 
L 218.845091 82.300212 
L 219.386182 146.747449 
L 219.927273 166.474472 
L 220.468364 137.334883 
L 221.009455 295.488 
L 221.550545 105.953649 
L 222.091636 94.328239 
L 222.632727 91.86812 
L 223.173818 102.566635 
L 223.714909 99.12044 
L 224.256 207.933534 
L 224.797091 106.43665 
L 225.338182 182.941365 
L 225.879273 83.86425 
L 226.420364 104.181627 
L 226.961455 91.742934 
L 227.502545 138.009454 
L 228.043636 89.375648 
L 228.584727 95.514415 
L 229.125818 109.675507 
L 229.666909 108.341998 
L 230.208 90.630982 
L 230.749091 120.213792 
L 231.290182 103.266555 
L 231.831273 92.759589 
L 232.372364 88.278722 
L 232.913455 108.234469 
L 233.454545 85.275368 
L 233.995636 105.947912 
L 234.536727 89.898174 
L 235.077818 168.890034 
L 235.618909 99.12044 
L 236.16 96.328976 
L 236.701091 100.413874 
L 237.242182 103.378585 
L 237.783273 91.102404 
L 238.324364 143.024512 
L 238.865455 107.690707 
L 239.406545 101.815078 
L 239.947636 90.883911 
L 240.488727 84.654451 
L 241.029818 122.51767 
L 241.570909 87.136404 
L 242.112 106.003526 
L 242.653091 90.380967 
L 243.735273 77.109841 
L 244.276364 90.236861 
L 244.817455 106.887604 
L 245.358545 99.967765 
L 245.899636 83.963042 
L 246.440727 185.624087 
L 246.981818 84.10263 
L 247.522909 118.66133 
L 248.064 116.256549 
L 248.605091 104.329791 
L 249.146182 83.761393 
L 249.687273 93.127259 
L 250.228364 99.632647 
L 250.769455 121.656605 
L 251.851636 97.705637 
L 252.392727 104.799249 
L 252.933818 94.377828 
L 253.474909 93.089386 
L 254.016 96.196215 
L 254.557091 185.624087 
L 255.098182 111.570425 
L 255.639273 90.650848 
L 256.180364 124.222598 
L 256.721455 95.06616 
L 257.262545 91.328985 
L 257.803636 103.266555 
L 258.344727 83.949085 
L 258.885818 91.563699 
L 259.426909 93.360028 
L 259.968 90.94203 
L 260.509091 86.598151 
L 261.050182 241.658857 
L 261.591273 112.314731 
L 262.132364 91.197123 
L 262.673455 170.096406 
L 263.755636 86.364448 
L 264.296727 95.968335 
L 264.837818 90.432233 
L 265.378909 108.395434 
L 265.92 190.149939 
L 266.461091 151.273831 
L 267.002182 91.341022 
L 267.543273 95.640708 
L 268.084364 143.235491 
L 268.625455 91.143216 
L 269.166545 106.010963 
L 269.707636 179.991089 
L 270.248727 105.133497 
L 270.789818 95.514415 
L 271.330909 115.746503 
L 271.872 96.57419 
L 272.413091 117.820477 
L 272.954182 91.225967 
L 273.495273 95.640708 
L 274.036364 161.296979 
L 274.577455 186.952742 
L 275.118545 90.656633 
L 275.659636 102.680875 
L 276.200727 184.992791 
L 276.741818 100.523297 
L 277.282909 90.35309 
L 277.824 91.620604 
L 278.365091 185.624087 
L 278.906182 101.49136 
L 279.447273 104.253615 
L 279.988364 186.952742 
L 280.529455 84.126732 
L 281.070545 92.546526 
L 281.611636 91.776429 
L 282.152727 185.624087 
L 282.693818 93.681888 
L 283.234909 95.671297 
L 283.776 103.28711 
L 284.317091 91.620604 
L 284.858182 108.167768 
L 285.399273 103.430501 
L 285.940364 90.457825 
L 286.481455 138.258593 
L 287.022545 92.029671 
L 287.563636 92.58855 
L 288.104727 109.360327 
L 288.645818 99.116857 
L 289.186909 92.670464 
L 289.728 82.816538 
L 290.269091 91.023134 
L 290.810182 125.841539 
L 291.351273 85.937839 
L 291.892364 105.735968 
L 292.433455 103.700605 
L 292.974545 102.479009 
L 293.515636 90.432233 
L 294.056727 102.479009 
L 294.597818 91.608215 
L 295.138909 85.349994 
L 295.68 106.052089 
L 296.221091 91.523995 
L 296.762182 187.398701 
L 297.303273 91.964388 
L 297.844364 96.464537 
L 298.385455 150.797809 
L 298.926545 102.92596 
L 299.467636 96.288975 
L 300.008727 91.523995 
L 300.549818 82.300212 
L 301.090909 132.75099 
L 301.632 91.652827 
L 302.173091 108.13963 
L 302.714182 92.156056 
L 303.255273 138.258593 
L 303.796364 91.204583 
L 304.337455 96.206064 
L 304.878545 93.149683 
L 305.419636 100.346094 
L 305.960727 84.585117 
L 306.501818 85.760229 
L 307.042909 93.298828 
L 307.584 117.24451 
L 308.125091 214.338406 
L 308.666182 90.776612 
L 309.207273 177.765017 
L 309.748364 84.84971 
L 310.289455 146.619726 
L 310.830545 98.838052 
L 311.371636 83.026723 
L 312.453818 108.101776 
L 312.994909 115.529934 
L 313.536 93.354958 
L 314.077091 100.384701 
L 314.618182 91.249895 
L 315.159273 86.884142 
L 315.700364 93.804869 
L 316.782545 91.748165 
L 317.323636 91.906475 
L 317.864727 118.573016 
L 318.405818 184.614765 
L 318.946909 95.453795 
L 319.488 90.354313 
L 320.029091 185.624087 
L 320.570182 93.923456 
L 321.111273 100.581745 
L 321.652364 92.670464 
L 322.193455 91.86812 
L 322.734545 95.671297 
L 323.275636 91.225967 
L 323.816727 102.322002 
L 324.357818 122.801766 
L 324.898909 89.637288 
L 325.44 91.617705 
L 325.981091 170.206593 
L 326.522182 98.691132 
L 327.063273 92.593464 
L 327.604364 91.334034 
L 328.145455 154.103228 
L 328.686545 96.190957 
L 329.227636 97.12556 
L 329.768727 104.275413 
L 330.309818 77.15537 
L 330.850909 91.748165 
L 331.392 90.380967 
L 331.933091 95.640708 
L 332.474182 90.457825 
L 333.015273 91.906475 
L 334.097455 92.759183 
L 334.638545 94.963377 
L 335.179636 84.267266 
L 335.720727 130.320322 
L 336.261818 90.681377 
L 336.802909 90.35309 
L 337.344 95.640708 
L 337.885091 92.58855 
L 338.426182 92.279596 
L 338.967273 90.897559 
L 339.508364 109.577418 
L 340.049455 91.748165 
L 340.590545 92.58855 
L 341.131636 92.156056 
L 341.672727 100.346094 
L 342.213818 102.575208 
L 342.754909 91.617705 
L 343.296 91.563699 
L 343.837091 177.811321 
L 344.378182 106.322471 
L 344.378182 106.322471 
" clip-path="url(#pd0aced3017)" style="fill: none; stroke: #8c564b; stroke-width: 1.5; stroke-linecap: square"/>
   </g>
   <g id="line2d_22">
    <path d="M 73.832727 82.209341 
L 74.373818 79.725526 
L 74.914909 78.903433 
L 75.456 81.85175 
L 75.997091 81.353863 
L 76.538182 62.400515 
L 77.079273 79.562294 
L 77.620364 81.880744 
L 78.161455 78.951138 
L 78.702545 78.063151 
L 79.243636 76.961338 
L 79.784727 74.419513 
L 80.325818 76.086035 
L 80.866909 80.295701 
L 81.408 64.748623 
L 81.949091 53.568 
L 82.490182 81.880744 
L 83.031273 73.980657 
L 83.572364 80.694284 
L 84.113455 83.912761 
L 84.654545 111.130464 
L 85.736727 67.670165 
L 86.277818 83.503298 
L 86.818909 69.582693 
L 87.36 77.456546 
L 87.901091 125.98086 
L 88.442182 94.973068 
L 88.983273 80.159521 
L 89.524364 71.188294 
L 90.065455 71.370064 
L 90.606545 119.000818 
L 91.147636 83.034099 
L 91.688727 72.678078 
L 92.229818 70.534597 
L 92.770909 80.001121 
L 93.312 80.989181 
L 93.853091 112.764783 
L 94.394182 81.246459 
L 94.935273 82.300212 
L 95.476364 82.176747 
L 96.017455 81.655416 
L 96.558545 81.804481 
L 97.099636 74.798889 
L 97.640727 84.661762 
L 98.181818 82.300212 
L 98.722909 93.672375 
L 99.264 82.13789 
L 99.805091 79.506516 
L 100.346182 69.229281 
L 100.887273 94.207447 
L 101.428364 83.371699 
L 101.969455 82.300212 
L 102.510545 82.300212 
L 103.051636 93.077813 
L 103.592727 82.300212 
L 104.133818 81.379674 
L 104.674909 82.723595 
L 105.216 82.300212 
L 106.298182 82.300212 
L 106.839273 78.456373 
L 107.380364 64.245861 
L 108.462545 82.300212 
L 109.003636 82.300212 
L 109.544727 80.244901 
L 110.085818 75.572871 
L 110.626909 75.626154 
L 111.168 76.682492 
L 111.709091 79.489034 
L 112.250182 85.714904 
L 112.791273 99.609883 
L 113.332364 107.883247 
L 114.414545 82.300212 
L 114.955636 99.801643 
L 115.496727 82.723595 
L 116.037818 82.300212 
L 117.12 82.300212 
L 117.661091 87.170799 
L 118.202182 110.485351 
L 118.743273 228.326883 
L 119.284364 90.789397 
L 119.825455 169.641977 
L 120.366545 116.163977 
L 120.907636 97.739787 
L 121.448727 99.801643 
L 121.989818 122.000617 
L 122.530909 153.949106 
L 123.072 86.321706 
L 123.613091 90.355403 
L 124.154182 82.129189 
L 124.695273 99.801643 
L 125.236364 80.856019 
L 125.777455 101.072357 
L 126.318545 153.961102 
L 126.859636 81.138071 
L 127.941818 99.661307 
L 129.024 82.300212 
L 129.565091 82.300212 
L 130.106182 157.779956 
L 130.647273 90.370445 
L 131.188364 82.300212 
L 131.729455 82.300212 
L 132.270545 84.0888 
L 132.811636 81.802599 
L 133.352727 93.565788 
L 133.893818 77.62118 
L 134.434909 119.975907 
L 134.976 82.300212 
L 135.517091 87.40116 
L 136.058182 82.300212 
L 136.599273 129.061329 
L 137.140364 77.481926 
L 137.681455 82.300212 
L 138.222545 81.250867 
L 138.763636 121.477976 
L 139.304727 121.477976 
L 139.845818 122.493371 
L 140.386909 82.267147 
L 142.010182 82.300212 
L 142.551273 121.359047 
L 143.092364 82.300212 
L 143.633455 82.129189 
L 144.174545 96.024277 
L 144.715636 82.24499 
L 145.256727 163.83239 
L 145.797818 81.082876 
L 146.338909 114.087843 
L 146.88 122.721719 
L 147.421091 86.847185 
L 147.962182 90.194372 
L 148.503273 82.24499 
L 149.044364 82.300212 
L 150.126545 154.083078 
L 150.667636 75.221065 
L 151.208727 82.300212 
L 151.749818 82.300212 
L 152.290909 81.189353 
L 152.832 92.966508 
L 153.373091 82.300212 
L 153.914182 82.264255 
L 154.455273 121.477976 
L 154.996364 82.300212 
L 155.537455 78.804588 
L 156.078545 82.300212 
L 156.619636 82.351482 
L 157.160727 82.24499 
L 157.701818 79.812758 
L 158.242909 82.300212 
L 158.784 82.300212 
L 159.325091 82.129189 
L 159.866182 82.300212 
L 160.948364 76.857927 
L 161.489455 92.930015 
L 162.030545 90.610409 
L 162.571636 82.300212 
L 164.194909 82.300212 
L 164.736 82.129189 
L 165.277091 82.351482 
L 166.359273 82.24499 
L 166.900364 76.857927 
L 167.441455 82.354094 
L 167.982545 82.575306 
L 168.523636 85.834178 
L 169.064727 80.856019 
L 169.605818 90.610409 
L 170.146909 82.300212 
L 170.688 83.749962 
L 171.229091 82.24499 
L 172.311273 82.267147 
L 172.852364 76.979269 
L 173.393455 80.415063 
L 173.934545 77.602312 
L 174.475636 82.354094 
L 175.557818 82.300212 
L 176.64 82.300212 
L 177.181091 81.709322 
L 177.722182 72.440885 
L 178.263273 86.4975 
L 178.804364 86.200543 
L 179.345455 87.33583 
L 179.886545 82.300212 
L 180.427636 82.575306 
L 180.968727 93.534114 
L 181.509818 82.604614 
L 182.050909 82.300212 
L 183.674182 82.351482 
L 184.215273 76.857927 
L 184.756364 82.300212 
L 185.297455 82.300212 
L 186.379636 79.564649 
L 186.920727 76.051599 
L 187.461818 81.203727 
L 188.002909 88.44682 
L 188.544 87.202484 
L 189.085091 86.852211 
L 189.626182 79.812758 
L 190.167273 84.298533 
L 190.708364 82.300212 
L 191.249455 82.300212 
L 191.790545 88.287568 
L 192.331636 82.291507 
L 193.413818 82.300212 
L 193.954909 86.266502 
L 194.496 93.167655 
L 195.037091 83.659958 
L 195.578182 82.507674 
L 196.119273 82.300212 
L 196.660364 82.300212 
L 197.201455 81.682878 
L 197.742545 82.300212 
L 198.283636 82.300212 
L 198.824727 77.274877 
L 199.365818 78.262783 
L 199.906909 77.122656 
L 200.448 86.852211 
L 200.989091 76.513933 
L 201.530182 77.122656 
L 202.612364 87.643967 
L 203.153455 83.985262 
L 203.694545 84.46694 
L 204.235636 114.878002 
L 204.776727 85.502456 
L 205.317818 80.696687 
L 205.858909 114.254627 
L 206.4 79.972234 
L 206.941091 87.121647 
L 207.482182 82.300212 
L 208.023273 79.751065 
L 208.564364 93.412512 
L 209.105455 79.721249 
L 209.646545 73.728049 
L 210.187636 72.335458 
L 210.728727 73.888183 
L 211.810909 182.114981 
L 212.352 82.482503 
L 212.893091 163.016635 
L 213.434182 116.642484 
L 213.975273 104.929699 
L 214.516364 66.787244 
L 215.057455 171.821361 
L 215.598545 182.032751 
L 216.139636 164.459432 
L 216.680727 128.620905 
L 217.221818 132.453816 
L 218.304 74.124978 
L 218.845091 82.300212 
L 219.386182 146.747449 
L 219.927273 166.474472 
L 220.468364 137.334883 
L 221.009455 295.488 
L 221.550545 105.953649 
L 222.091636 94.328239 
L 222.632727 91.86812 
L 223.173818 102.566635 
L 223.714909 99.12044 
L 224.256 207.933534 
L 224.797091 106.43665 
L 225.338182 182.941365 
L 225.879273 83.86425 
L 226.420364 104.181627 
L 226.961455 91.742934 
L 227.502545 138.009454 
L 228.043636 89.375648 
L 228.584727 95.514415 
L 229.125818 109.675507 
L 229.666909 108.341998 
L 230.208 90.630982 
L 230.749091 120.213792 
L 231.290182 103.266555 
L 231.831273 92.759589 
L 232.372364 88.278722 
L 232.913455 108.234469 
L 233.454545 85.275368 
L 233.995636 105.947912 
L 234.536727 89.898174 
L 235.077818 168.890034 
L 235.618909 99.12044 
L 236.16 96.328976 
L 236.701091 100.413874 
L 237.242182 103.378585 
L 237.783273 91.102404 
L 238.324364 143.024512 
L 238.865455 107.690707 
L 239.406545 101.815078 
L 239.947636 90.883911 
L 240.488727 84.654451 
L 241.029818 122.51767 
L 241.570909 87.136404 
L 242.112 106.003526 
L 242.653091 90.380967 
L 243.735273 77.109841 
L 244.276364 90.236861 
L 244.817455 106.887604 
L 245.358545 99.967765 
L 245.899636 83.963042 
L 246.440727 185.624087 
L 246.981818 84.10263 
L 247.522909 118.66133 
L 248.064 116.256549 
L 248.605091 104.329791 
L 249.146182 83.761393 
L 249.687273 93.127259 
L 250.228364 99.632647 
L 250.769455 121.656605 
L 251.851636 97.705637 
L 252.392727 104.799249 
L 252.933818 94.377828 
L 253.474909 93.089386 
L 254.016 96.196215 
L 254.557091 185.624087 
L 255.098182 111.570425 
L 255.639273 90.650848 
L 256.180364 124.222598 
L 256.721455 95.06616 
L 257.262545 91.328985 
L 257.803636 103.266555 
L 258.344727 83.949085 
L 258.885818 91.563699 
L 259.426909 93.360028 
L 259.968 90.94203 
L 260.509091 86.598151 
L 261.050182 241.658857 
L 261.591273 112.314731 
L 262.132364 91.197123 
L 262.673455 170.096406 
L 263.755636 86.364448 
L 264.296727 95.968335 
L 264.837818 90.432233 
L 265.378909 108.395434 
L 265.92 190.149939 
L 266.461091 151.273831 
L 267.002182 91.341022 
L 267.543273 95.640708 
L 268.084364 143.235491 
L 268.625455 91.143216 
L 269.166545 106.010963 
L 269.707636 179.991089 
L 270.248727 105.133497 
L 270.789818 95.514415 
L 271.330909 115.746503 
L 271.872 96.57419 
L 272.413091 117.820477 
L 272.954182 91.225967 
L 273.495273 95.640708 
L 274.036364 161.296979 
L 274.577455 186.952742 
L 275.118545 90.656633 
L 275.659636 102.680875 
L 276.200727 184.992791 
L 276.741818 100.523297 
L 277.282909 90.35309 
L 277.824 91.620604 
L 278.365091 185.624087 
L 278.906182 101.49136 
L 279.447273 104.253615 
L 279.988364 186.952742 
L 280.529455 84.126732 
L 281.070545 92.546526 
L 281.611636 91.776429 
L 282.152727 185.624087 
L 282.693818 93.681888 
L 283.234909 95.671297 
L 283.776 103.28711 
L 284.317091 91.620604 
L 284.858182 108.167768 
L 285.399273 103.430501 
L 285.940364 90.457825 
L 286.481455 138.258593 
L 287.022545 92.029671 
L 287.563636 92.58855 
L 288.104727 109.360327 
L 288.645818 99.116857 
L 289.186909 92.670464 
L 289.728 82.816538 
L 290.269091 91.023134 
L 290.810182 125.841539 
L 291.351273 85.937839 
L 291.892364 105.735968 
L 292.433455 103.700605 
L 292.974545 102.479009 
L 293.515636 90.432233 
L 294.056727 102.479009 
L 294.597818 91.608215 
L 295.138909 85.349994 
L 295.68 106.052089 
L 296.221091 91.523995 
L 296.762182 187.398701 
L 297.303273 91.964388 
L 297.844364 96.464537 
L 298.385455 150.797809 
L 298.926545 102.92596 
L 299.467636 96.288975 
L 300.008727 91.523995 
L 300.549818 82.300212 
L 301.090909 132.75099 
L 301.632 91.652827 
L 302.173091 108.13963 
L 302.714182 92.156056 
L 303.255273 138.258593 
L 303.796364 91.204583 
L 304.337455 96.206064 
L 304.878545 93.149683 
L 305.419636 100.346094 
L 305.960727 84.585117 
L 306.501818 85.760229 
L 307.042909 93.298828 
L 307.584 117.24451 
L 308.125091 214.338406 
L 308.666182 90.776612 
L 309.207273 177.765017 
L 309.748364 84.84971 
L 310.289455 146.619726 
L 310.830545 98.838052 
L 311.371636 83.026723 
L 312.453818 108.101776 
L 312.994909 115.529934 
L 313.536 93.354958 
L 314.077091 100.384701 
L 314.618182 91.249895 
L 315.159273 86.884142 
L 315.700364 93.804869 
L 316.782545 91.748165 
L 317.323636 91.906475 
L 317.864727 118.573016 
L 318.405818 184.614765 
L 318.946909 95.453795 
L 319.488 90.354313 
L 320.029091 185.624087 
L 320.570182 93.923456 
L 321.111273 100.581745 
L 321.652364 92.670464 
L 322.193455 91.86812 
L 322.734545 95.671297 
L 323.275636 91.225967 
L 323.816727 102.322002 
L 324.357818 122.801766 
L 324.898909 89.637288 
L 325.44 91.617705 
L 325.981091 170.206593 
L 326.522182 98.691132 
L 327.063273 92.593464 
L 327.604364 91.334034 
L 328.145455 154.103228 
L 328.686545 96.190957 
L 329.227636 97.12556 
L 329.768727 104.275413 
L 330.309818 77.15537 
L 330.850909 91.748165 
L 331.392 90.380967 
L 331.933091 95.640708 
L 332.474182 90.457825 
L 333.015273 91.906475 
L 334.097455 92.759183 
L 334.638545 94.963377 
L 335.179636 84.267266 
L 335.720727 130.320322 
L 336.261818 90.681377 
L 336.802909 90.35309 
L 337.344 95.640708 
L 337.885091 92.58855 
L 338.426182 92.279596 
L 338.967273 90.897559 
L 339.508364 109.577418 
L 340.049455 91.748165 
L 340.590545 92.58855 
L 341.131636 92.156056 
L 341.672727 100.346094 
L 342.213818 102.575208 
L 342.754909 91.617705 
L 343.296 91.563699 
L 343.837091 177.811321 
L 344.378182 106.322471 
L 344.919273 118.790227 
L 345.460364 91.906475 
L 346.001455 95.640708 
L 346.542545 90.681377 
L 347.083636 105.192124 
L 347.624727 91.341022 
L 348.165818 104.097891 
L 348.706909 96.024049 
L 349.248 107.085344 
L 349.789091 90.35309 
L 350.330182 101.539017 
L 350.871273 95.640708 
L 351.412364 99.765788 
L 351.953455 91.531897 
L 352.494545 93.923456 
L 353.035636 90.407448 
L 353.576727 99.765788 
L 354.117818 118.340734 
L 354.658909 113.17641 
L 355.2 95.671297 
L 355.741091 91.620604 
L 356.282182 91.531897 
L 356.823273 118.518983 
L 357.364364 96.024049 
L 357.905455 93.40891 
L 358.446545 96.628527 
L 358.987636 92.116628 
L 359.528727 93.089386 
L 360.069818 95.453795 
L 360.610909 90.681377 
L 361.152 179.991089 
L 361.693091 93.655425 
L 362.234182 90.380967 
L 362.775273 93.583873 
L 363.316364 184.614765 
L 363.857455 106.003526 
L 364.398545 91.563699 
L 364.939636 90.681377 
L 365.480727 101.732347 
L 366.021818 91.563699 
L 366.562909 116.263257 
L 367.104 92.58855 
L 367.645091 93.37147 
L 368.186182 90.432233 
L 368.727273 90.380967 
L 369.268364 91.742934 
L 369.809455 74.895123 
L 370.350545 90.897559 
L 370.891636 169.189153 
L 371.432727 95.843022 
L 371.973818 105.951242 
L 372.514909 91.906475 
L 373.056 90.380967 
L 373.597091 91.531897 
L 374.138182 122.971499 
L 374.679273 142.808707 
L 375.220364 90.883911 
L 375.761455 91.906475 
L 376.302545 87.286827 
L 376.843636 97.705637 
L 377.384727 90.656633 
L 377.925818 94.328239 
L 378.466909 90.457825 
L 379.008 90.407448 
L 379.549091 118.573016 
L 380.090182 91.341022 
L 380.631273 95.514415 
L 381.172364 95.151834 
L 381.713455 95.640708 
L 382.254545 179.991089 
L 382.795636 144.633334 
L 383.336727 91.563699 
L 383.877818 91.86812 
L 384.418909 85.770596 
L 384.96 91.86812 
L 385.501091 95.671297 
L 386.042182 96.024049 
L 386.583273 92.279596 
L 387.124364 102.575208 
L 387.665455 90.380967 
L 388.206545 95.779109 
L 388.747636 90.35309 
L 389.288727 95.151834 
L 389.829818 120.467961 
L 390.370909 185.624087 
L 390.912 92.670464 
L 391.453091 115.682679 
L 391.994182 95.151834 
L 392.535273 90.656633 
L 393.076364 90.890364 
L 393.617455 92.156056 
L 394.158545 100.412982 
L 394.699636 113.201795 
L 395.240727 90.457825 
L 395.781818 91.531897 
L 396.322909 90.380967 
L 396.864 179.991089 
L 397.405091 103.482954 
L 397.946182 95.671297 
L 398.487273 90.380967 
L 398.487273 90.380967 
" clip-path="url(#pd0aced3017)" style="fill: none; stroke: #e377c2; stroke-width: 1.5; stroke-linecap: square"/>
   </g>
   <g id="patch_3">
    <path d="M 57.6 307.584 
L 57.6 41.472 
" style="fill: none; stroke: #000000; stroke-width: 0.8; stroke-linejoin: miter; stroke-linecap: square"/>
   </g>
   <g id="patch_4">
    <path d="M 414.72 307.584 
L 414.72 41.472 
" style="fill: none; stroke: #000000; stroke-width: 0.8; stroke-linejoin: miter; stroke-linecap: square"/>
   </g>
   <g id="patch_5">
    <path d="M 57.6 307.584 
L 414.72 307.584 
" style="fill: none; stroke: #000000; stroke-width: 0.8; stroke-linejoin: miter; stroke-linecap: square"/>
   </g>
   <g id="patch_6">
    <path d="M 57.6 41.472 
L 414.72 41.472 
" style="fill: none; stroke: #000000; stroke-width: 0.8; stroke-linejoin: miter; stroke-linecap: square"/>
   </g>
  </g>
 </g>
 <defs>
  <clipPath id="pd0aced3017">
   <rect x="57.6" y="41.472" width="357.12" height="266.112"/>
  </clipPath>
 </defs>
</svg>
