<?xml version="1.0" encoding="utf-8" standalone="no"?>
<!DOCTYPE svg PUBLIC "-//W3C//DTD SVG 1.1//EN"
  "http://www.w3.org/Graphics/SVG/1.1/DTD/svg11.dtd">
<svg xmlns:xlink="http://www.w3.org/1999/xlink" width="460.8pt" height="345.6pt" viewBox="0 0 460.8 345.6" xmlns="http://www.w3.org/2000/svg" version="1.1">
 <metadata>
  <rdf:RDF xmlns:dc="http://purl.org/dc/elements/1.1/" xmlns:cc="http://creativecommons.org/ns#" xmlns:rdf="http://www.w3.org/1999/02/22-rdf-syntax-ns#">
   <cc:Work>
    <dc:type rdf:resource="http://purl.org/dc/dcmitype/StillImage"/>
    <dc:date>2024-04-28T15:23:40.140707</dc:date>
    <dc:format>image/svg+xml</dc:format>
    <dc:creator>
     <cc:Agent>
      <dc:title>Matplotlib v3.8.2, https://matplotlib.org/</dc:title>
     </cc:Agent>
    </dc:creator>
   </cc:Work>
  </rdf:RDF>
 </metadata>
 <defs>
  <style type="text/css">*{stroke-linejoin: round; stroke-linecap: butt}</style>
 </defs>
 <g id="figure_1">
  <g id="patch_1">
   <path d="M 0 345.6 
L 460.8 345.6 
L 460.8 0 
L 0 0 
z
" style="fill: #ffffff"/>
  </g>
  <g id="axes_1">
   <g id="patch_2">
    <path d="M 57.6 307.584 
L 414.72 307.584 
L 414.72 41.472 
L 57.6 41.472 
z
" style="fill: #ffffff"/>
   </g>
   <g id="matplotlib.axis_1">
    <g id="xtick_1">
     <g id="line2d_1">
      <defs>
       <path id="mab0bae2c99" d="M 0 0 
L 0 3.5 
" style="stroke: #000000; stroke-width: 0.8"/>
      </defs>
      <g>
       <use xlink:href="#mab0bae2c99" x="73.832727" y="307.584" style="stroke: #000000; stroke-width: 0.8"/>
      </g>
     </g>
     <g id="text_1">
      <!-- 0 -->
      <g transform="translate(70.651477 322.182437) scale(0.1 -0.1)">
       <defs>
        <path id="DejaVuSans-30" d="M 2034 4250 
Q 1547 4250 1301 3770 
Q 1056 3291 1056 2328 
Q 1056 1369 1301 889 
Q 1547 409 2034 409 
Q 2525 409 2770 889 
Q 3016 1369 3016 2328 
Q 3016 3291 2770 3770 
Q 2525 4250 2034 4250 
z
M 2034 4750 
Q 2819 4750 3233 4129 
Q 3647 3509 3647 2328 
Q 3647 1150 3233 529 
Q 2819 -91 2034 -91 
Q 1250 -91 836 529 
Q 422 1150 422 2328 
Q 422 3509 836 4129 
Q 1250 4750 2034 4750 
z
" transform="scale(0.015625)"/>
       </defs>
       <use xlink:href="#DejaVuSans-30"/>
      </g>
     </g>
    </g>
    <g id="xtick_2">
     <g id="line2d_2">
      <g>
       <use xlink:href="#mab0bae2c99" x="114.414545" y="307.584" style="stroke: #000000; stroke-width: 0.8"/>
      </g>
     </g>
     <g id="text_2">
      <!-- 50 -->
      <g transform="translate(108.052045 322.182437) scale(0.1 -0.1)">
       <defs>
        <path id="DejaVuSans-35" d="M 691 4666 
L 3169 4666 
L 3169 4134 
L 1269 4134 
L 1269 2991 
Q 1406 3038 1543 3061 
Q 1681 3084 1819 3084 
Q 2600 3084 3056 2656 
Q 3513 2228 3513 1497 
Q 3513 744 3044 326 
Q 2575 -91 1722 -91 
Q 1428 -91 1123 -41 
Q 819 9 494 109 
L 494 744 
Q 775 591 1075 516 
Q 1375 441 1709 441 
Q 2250 441 2565 725 
Q 2881 1009 2881 1497 
Q 2881 1984 2565 2268 
Q 2250 2553 1709 2553 
Q 1456 2553 1204 2497 
Q 953 2441 691 2322 
L 691 4666 
z
" transform="scale(0.015625)"/>
       </defs>
       <use xlink:href="#DejaVuSans-35"/>
       <use xlink:href="#DejaVuSans-30" x="63.623047"/>
      </g>
     </g>
    </g>
    <g id="xtick_3">
     <g id="line2d_3">
      <g>
       <use xlink:href="#mab0bae2c99" x="154.996364" y="307.584" style="stroke: #000000; stroke-width: 0.8"/>
      </g>
     </g>
     <g id="text_3">
      <!-- 100 -->
      <g transform="translate(145.452614 322.182437) scale(0.1 -0.1)">
       <defs>
        <path id="DejaVuSans-31" d="M 794 531 
L 1825 531 
L 1825 4091 
L 703 3866 
L 703 4441 
L 1819 4666 
L 2450 4666 
L 2450 531 
L 3481 531 
L 3481 0 
L 794 0 
L 794 531 
z
" transform="scale(0.015625)"/>
       </defs>
       <use xlink:href="#DejaVuSans-31"/>
       <use xlink:href="#DejaVuSans-30" x="63.623047"/>
       <use xlink:href="#DejaVuSans-30" x="127.246094"/>
      </g>
     </g>
    </g>
    <g id="xtick_4">
     <g id="line2d_4">
      <g>
       <use xlink:href="#mab0bae2c99" x="195.578182" y="307.584" style="stroke: #000000; stroke-width: 0.8"/>
      </g>
     </g>
     <g id="text_4">
      <!-- 150 -->
      <g transform="translate(186.034432 322.182437) scale(0.1 -0.1)">
       <use xlink:href="#DejaVuSans-31"/>
       <use xlink:href="#DejaVuSans-35" x="63.623047"/>
       <use xlink:href="#DejaVuSans-30" x="127.246094"/>
      </g>
     </g>
    </g>
    <g id="xtick_5">
     <g id="line2d_5">
      <g>
       <use xlink:href="#mab0bae2c99" x="236.16" y="307.584" style="stroke: #000000; stroke-width: 0.8"/>
      </g>
     </g>
     <g id="text_5">
      <!-- 200 -->
      <g transform="translate(226.61625 322.182437) scale(0.1 -0.1)">
       <defs>
        <path id="DejaVuSans-32" d="M 1228 531 
L 3431 531 
L 3431 0 
L 469 0 
L 469 531 
Q 828 903 1448 1529 
Q 2069 2156 2228 2338 
Q 2531 2678 2651 2914 
Q 2772 3150 2772 3378 
Q 2772 3750 2511 3984 
Q 2250 4219 1831 4219 
Q 1534 4219 1204 4116 
Q 875 4013 500 3803 
L 500 4441 
Q 881 4594 1212 4672 
Q 1544 4750 1819 4750 
Q 2544 4750 2975 4387 
Q 3406 4025 3406 3419 
Q 3406 3131 3298 2873 
Q 3191 2616 2906 2266 
Q 2828 2175 2409 1742 
Q 1991 1309 1228 531 
z
" transform="scale(0.015625)"/>
       </defs>
       <use xlink:href="#DejaVuSans-32"/>
       <use xlink:href="#DejaVuSans-30" x="63.623047"/>
       <use xlink:href="#DejaVuSans-30" x="127.246094"/>
      </g>
     </g>
    </g>
    <g id="xtick_6">
     <g id="line2d_6">
      <g>
       <use xlink:href="#mab0bae2c99" x="276.741818" y="307.584" style="stroke: #000000; stroke-width: 0.8"/>
      </g>
     </g>
     <g id="text_6">
      <!-- 250 -->
      <g transform="translate(267.198068 322.182437) scale(0.1 -0.1)">
       <use xlink:href="#DejaVuSans-32"/>
       <use xlink:href="#DejaVuSans-35" x="63.623047"/>
       <use xlink:href="#DejaVuSans-30" x="127.246094"/>
      </g>
     </g>
    </g>
    <g id="xtick_7">
     <g id="line2d_7">
      <g>
       <use xlink:href="#mab0bae2c99" x="317.323636" y="307.584" style="stroke: #000000; stroke-width: 0.8"/>
      </g>
     </g>
     <g id="text_7">
      <!-- 300 -->
      <g transform="translate(307.779886 322.182437) scale(0.1 -0.1)">
       <defs>
        <path id="DejaVuSans-33" d="M 2597 2516 
Q 3050 2419 3304 2112 
Q 3559 1806 3559 1356 
Q 3559 666 3084 287 
Q 2609 -91 1734 -91 
Q 1441 -91 1130 -33 
Q 819 25 488 141 
L 488 750 
Q 750 597 1062 519 
Q 1375 441 1716 441 
Q 2309 441 2620 675 
Q 2931 909 2931 1356 
Q 2931 1769 2642 2001 
Q 2353 2234 1838 2234 
L 1294 2234 
L 1294 2753 
L 1863 2753 
Q 2328 2753 2575 2939 
Q 2822 3125 2822 3475 
Q 2822 3834 2567 4026 
Q 2313 4219 1838 4219 
Q 1578 4219 1281 4162 
Q 984 4106 628 3988 
L 628 4550 
Q 988 4650 1302 4700 
Q 1616 4750 1894 4750 
Q 2613 4750 3031 4423 
Q 3450 4097 3450 3541 
Q 3450 3153 3228 2886 
Q 3006 2619 2597 2516 
z
" transform="scale(0.015625)"/>
       </defs>
       <use xlink:href="#DejaVuSans-33"/>
       <use xlink:href="#DejaVuSans-30" x="63.623047"/>
       <use xlink:href="#DejaVuSans-30" x="127.246094"/>
      </g>
     </g>
    </g>
    <g id="xtick_8">
     <g id="line2d_8">
      <g>
       <use xlink:href="#mab0bae2c99" x="357.905455" y="307.584" style="stroke: #000000; stroke-width: 0.8"/>
      </g>
     </g>
     <g id="text_8">
      <!-- 350 -->
      <g transform="translate(348.361705 322.182437) scale(0.1 -0.1)">
       <use xlink:href="#DejaVuSans-33"/>
       <use xlink:href="#DejaVuSans-35" x="63.623047"/>
       <use xlink:href="#DejaVuSans-30" x="127.246094"/>
      </g>
     </g>
    </g>
    <g id="xtick_9">
     <g id="line2d_9">
      <g>
       <use xlink:href="#mab0bae2c99" x="398.487273" y="307.584" style="stroke: #000000; stroke-width: 0.8"/>
      </g>
     </g>
     <g id="text_9">
      <!-- 400 -->
      <g transform="translate(388.943523 322.182437) scale(0.1 -0.1)">
       <defs>
        <path id="DejaVuSans-34" d="M 2419 4116 
L 825 1625 
L 2419 1625 
L 2419 4116 
z
M 2253 4666 
L 3047 4666 
L 3047 1625 
L 3713 1625 
L 3713 1100 
L 3047 1100 
L 3047 0 
L 2419 0 
L 2419 1100 
L 313 1100 
L 313 1709 
L 2253 4666 
z
" transform="scale(0.015625)"/>
       </defs>
       <use xlink:href="#DejaVuSans-34"/>
       <use xlink:href="#DejaVuSans-30" x="63.623047"/>
       <use xlink:href="#DejaVuSans-30" x="127.246094"/>
      </g>
     </g>
    </g>
   </g>
   <g id="matplotlib.axis_2">
    <g id="ytick_1">
     <g id="line2d_10">
      <defs>
       <path id="md02474959f" d="M 0 0 
L -3.5 0 
" style="stroke: #000000; stroke-width: 0.8"/>
      </defs>
      <g>
       <use xlink:href="#md02474959f" x="57.6" y="284.031785" style="stroke: #000000; stroke-width: 0.8"/>
      </g>
     </g>
     <g id="text_10">
      <!-- −150 -->
      <g transform="translate(23.132812 287.831003) scale(0.1 -0.1)">
       <defs>
        <path id="DejaVuSans-2212" d="M 678 2272 
L 4684 2272 
L 4684 1741 
L 678 1741 
L 678 2272 
z
" transform="scale(0.015625)"/>
       </defs>
       <use xlink:href="#DejaVuSans-2212"/>
       <use xlink:href="#DejaVuSans-31" x="83.789062"/>
       <use xlink:href="#DejaVuSans-35" x="147.412109"/>
       <use xlink:href="#DejaVuSans-30" x="211.035156"/>
      </g>
     </g>
    </g>
    <g id="ytick_2">
     <g id="line2d_11">
      <g>
       <use xlink:href="#md02474959f" x="57.6" y="250.409856" style="stroke: #000000; stroke-width: 0.8"/>
      </g>
     </g>
     <g id="text_11">
      <!-- −125 -->
      <g transform="translate(23.132812 254.209075) scale(0.1 -0.1)">
       <use xlink:href="#DejaVuSans-2212"/>
       <use xlink:href="#DejaVuSans-31" x="83.789062"/>
       <use xlink:href="#DejaVuSans-32" x="147.412109"/>
       <use xlink:href="#DejaVuSans-35" x="211.035156"/>
      </g>
     </g>
    </g>
    <g id="ytick_3">
     <g id="line2d_12">
      <g>
       <use xlink:href="#md02474959f" x="57.6" y="216.787927" style="stroke: #000000; stroke-width: 0.8"/>
      </g>
     </g>
     <g id="text_12">
      <!-- −100 -->
      <g transform="translate(23.132812 220.587146) scale(0.1 -0.1)">
       <use xlink:href="#DejaVuSans-2212"/>
       <use xlink:href="#DejaVuSans-31" x="83.789062"/>
       <use xlink:href="#DejaVuSans-30" x="147.412109"/>
       <use xlink:href="#DejaVuSans-30" x="211.035156"/>
      </g>
     </g>
    </g>
    <g id="ytick_4">
     <g id="line2d_13">
      <g>
       <use xlink:href="#md02474959f" x="57.6" y="183.165998" style="stroke: #000000; stroke-width: 0.8"/>
      </g>
     </g>
     <g id="text_13">
      <!-- −75 -->
      <g transform="translate(29.495313 186.965217) scale(0.1 -0.1)">
       <defs>
        <path id="DejaVuSans-37" d="M 525 4666 
L 3525 4666 
L 3525 4397 
L 1831 0 
L 1172 0 
L 2766 4134 
L 525 4134 
L 525 4666 
z
" transform="scale(0.015625)"/>
       </defs>
       <use xlink:href="#DejaVuSans-2212"/>
       <use xlink:href="#DejaVuSans-37" x="83.789062"/>
       <use xlink:href="#DejaVuSans-35" x="147.412109"/>
      </g>
     </g>
    </g>
    <g id="ytick_5">
     <g id="line2d_14">
      <g>
       <use xlink:href="#md02474959f" x="57.6" y="149.54407" style="stroke: #000000; stroke-width: 0.8"/>
      </g>
     </g>
     <g id="text_14">
      <!-- −50 -->
      <g transform="translate(29.495313 153.343289) scale(0.1 -0.1)">
       <use xlink:href="#DejaVuSans-2212"/>
       <use xlink:href="#DejaVuSans-35" x="83.789062"/>
       <use xlink:href="#DejaVuSans-30" x="147.412109"/>
      </g>
     </g>
    </g>
    <g id="ytick_6">
     <g id="line2d_15">
      <g>
       <use xlink:href="#md02474959f" x="57.6" y="115.922141" style="stroke: #000000; stroke-width: 0.8"/>
      </g>
     </g>
     <g id="text_15">
      <!-- −25 -->
      <g transform="translate(29.495313 119.72136) scale(0.1 -0.1)">
       <use xlink:href="#DejaVuSans-2212"/>
       <use xlink:href="#DejaVuSans-32" x="83.789062"/>
       <use xlink:href="#DejaVuSans-35" x="147.412109"/>
      </g>
     </g>
    </g>
    <g id="ytick_7">
     <g id="line2d_16">
      <g>
       <use xlink:href="#md02474959f" x="57.6" y="82.300212" style="stroke: #000000; stroke-width: 0.8"/>
      </g>
     </g>
     <g id="text_16">
      <!-- 0 -->
      <g transform="translate(44.2375 86.099431) scale(0.1 -0.1)">
       <use xlink:href="#DejaVuSans-30"/>
      </g>
     </g>
    </g>
    <g id="ytick_8">
     <g id="line2d_17">
      <g>
       <use xlink:href="#md02474959f" x="57.6" y="48.678284" style="stroke: #000000; stroke-width: 0.8"/>
      </g>
     </g>
     <g id="text_17">
      <!-- 25 -->
      <g transform="translate(37.875 52.477502) scale(0.1 -0.1)">
       <use xlink:href="#DejaVuSans-32"/>
       <use xlink:href="#DejaVuSans-35" x="63.623047"/>
      </g>
     </g>
    </g>
   </g>
   <g id="line2d_18">
    <path d="M 73.832727 82.209341 
" clip-path="url(#p7aa16f7e28)" style="fill: none; stroke: #1f77b4; stroke-width: 1.5; stroke-linecap: square"/>
   </g>
   <g id="line2d_19">
    <path d="M 73.832727 82.209341 
L 74.644364 79.725526 
L 75.456 78.903433 
L 76.267636 81.85175 
L 77.079273 81.353863 
L 77.890909 62.400515 
L 78.702545 79.562294 
L 79.514182 81.880744 
L 80.325818 78.951138 
L 81.137455 78.063151 
L 81.949091 76.961338 
L 82.760727 74.419513 
L 83.572364 76.086035 
L 84.384 80.295701 
L 85.195636 64.748623 
L 86.007273 53.568 
L 86.818909 81.880744 
L 87.630545 73.980657 
L 88.442182 80.694284 
L 89.253818 83.912761 
L 90.065455 111.130464 
L 90.877091 88.129984 
L 91.688727 67.670165 
L 92.500364 83.503298 
L 93.312 69.582693 
L 94.123636 77.456546 
L 94.935273 125.98086 
L 95.746909 94.973068 
L 96.558545 80.159521 
L 97.370182 71.188294 
L 98.181818 71.370064 
L 98.993455 119.000818 
L 99.805091 83.034099 
L 100.616727 72.678078 
L 101.428364 70.534597 
L 102.24 80.001121 
L 103.051636 80.989181 
L 103.863273 112.764783 
L 104.674909 81.246459 
L 105.486545 82.300212 
L 106.298182 82.176747 
L 107.109818 81.655416 
L 107.921455 81.804481 
L 108.733091 74.798889 
L 109.544727 84.661762 
L 110.356364 82.300212 
L 111.168 93.672375 
L 111.979636 82.13789 
L 112.791273 79.506516 
L 113.602909 69.229281 
L 114.414545 94.207447 
L 115.226182 83.371699 
L 116.037818 82.300212 
L 116.849455 82.300212 
L 117.661091 93.077813 
L 118.472727 82.300212 
L 119.284364 81.379674 
L 120.096 82.723595 
L 120.907636 82.300212 
L 121.719273 82.300212 
L 122.530909 82.300212 
L 123.342545 78.456373 
L 124.154182 64.245861 
L 124.965818 73.2028 
L 125.777455 82.300212 
L 126.589091 82.300212 
L 127.400727 80.244901 
L 128.212364 75.572871 
L 129.024 75.626154 
L 129.835636 76.682492 
L 130.647273 79.489034 
L 131.458909 85.714904 
L 132.270545 99.609883 
L 133.082182 107.883247 
L 133.893818 94.910205 
L 134.705455 82.300212 
L 135.517091 99.801643 
L 136.328727 82.723595 
L 137.140364 82.300212 
L 137.952 82.300212 
L 138.763636 82.300212 
L 139.575273 87.170799 
L 140.386909 110.485351 
L 141.198545 228.326883 
L 142.010182 90.789397 
L 142.821818 169.641977 
L 143.633455 116.163977 
L 144.445091 97.739787 
L 145.256727 99.801643 
L 146.068364 122.000617 
L 146.88 153.949106 
L 147.691636 86.321706 
L 148.503273 90.355403 
L 149.314909 82.129189 
L 150.126545 99.801643 
L 150.938182 80.856019 
L 151.749818 101.072357 
L 152.561455 153.961102 
L 153.373091 81.138071 
L 154.184727 90.559376 
L 154.996364 99.661307 
" clip-path="url(#p7aa16f7e28)" style="fill: none; stroke: #ff7f0e; stroke-width: 1.5; stroke-linecap: square"/>
   </g>
   <g id="line2d_20">
    <path d="M 73.832727 82.209341 
L 74.644364 79.725526 
L 75.456 78.903433 
L 76.267636 81.85175 
L 77.079273 81.353863 
L 77.890909 62.400515 
L 78.702545 79.562294 
L 79.514182 81.880744 
L 80.325818 78.951138 
L 81.137455 78.063151 
L 81.949091 76.961338 
L 82.760727 74.419513 
L 83.572364 76.086035 
L 84.384 80.295701 
L 85.195636 64.748623 
L 86.007273 53.568 
L 86.818909 81.880744 
L 87.630545 73.980657 
L 88.442182 80.694284 
L 89.253818 83.912761 
L 90.065455 111.130464 
L 91.688727 67.670165 
L 92.500364 83.503298 
L 93.312 69.582693 
L 94.123636 77.456546 
L 94.935273 125.98086 
L 95.746909 94.973068 
L 96.558545 80.159521 
L 97.370182 71.188294 
L 98.181818 71.370064 
L 98.993455 119.000818 
L 99.805091 83.034099 
L 100.616727 72.678078 
L 101.428364 70.534597 
L 102.24 80.001121 
L 103.051636 80.989181 
L 103.863273 112.764783 
L 104.674909 81.246459 
L 105.486545 82.300212 
L 106.298182 82.176747 
L 107.109818 81.655416 
L 107.921455 81.804481 
L 108.733091 74.798889 
L 109.544727 84.661762 
L 110.356364 82.300212 
L 111.168 93.672375 
L 111.979636 82.13789 
L 112.791273 79.506516 
L 113.602909 69.229281 
L 114.414545 94.207447 
L 115.226182 83.371699 
L 116.037818 82.300212 
L 116.849455 82.300212 
L 117.661091 93.077813 
L 118.472727 82.300212 
L 119.284364 81.379674 
L 120.096 82.723595 
L 120.907636 82.300212 
L 122.530909 82.300212 
L 123.342545 78.456373 
L 124.154182 64.245861 
L 125.777455 82.300212 
L 126.589091 82.300212 
L 127.400727 80.244901 
L 128.212364 75.572871 
L 129.024 75.626154 
L 129.835636 76.682492 
L 130.647273 79.489034 
L 131.458909 85.714904 
L 132.270545 99.609883 
L 133.082182 107.883247 
L 134.705455 82.300212 
L 135.517091 99.801643 
L 136.328727 82.723595 
L 137.140364 82.300212 
L 138.763636 82.300212 
L 139.575273 87.170799 
L 140.386909 110.485351 
L 141.198545 228.326883 
L 142.010182 90.789397 
L 142.821818 169.641977 
L 143.633455 116.163977 
L 144.445091 97.739787 
L 145.256727 99.801643 
L 146.068364 122.000617 
L 146.88 153.949106 
L 147.691636 86.321706 
L 148.503273 90.355403 
L 149.314909 82.129189 
L 150.126545 99.801643 
L 150.938182 80.856019 
L 151.749818 101.072357 
L 152.561455 153.961102 
L 153.373091 81.138071 
L 154.996364 99.661307 
L 156.619636 82.300212 
L 157.431273 82.300212 
L 158.242909 157.779956 
L 159.054545 90.370445 
L 159.866182 82.300212 
L 160.677818 82.300212 
L 161.489455 84.0888 
L 162.301091 81.802599 
L 163.112727 93.565788 
L 163.924364 77.62118 
L 164.736 119.975907 
L 165.547636 82.300212 
L 166.359273 87.40116 
L 167.170909 82.300212 
L 167.982545 129.061329 
L 168.794182 77.481926 
L 169.605818 82.300212 
L 170.417455 81.250867 
L 171.229091 121.477976 
L 172.040727 121.477976 
L 172.852364 122.493371 
L 173.664 82.267147 
L 176.098909 82.300212 
L 176.910545 121.359047 
L 177.722182 82.300212 
L 178.533818 82.129189 
L 179.345455 96.024277 
L 180.157091 82.24499 
L 180.968727 163.83239 
L 181.780364 81.082876 
L 182.592 114.087843 
L 183.403636 122.721719 
L 184.215273 86.847185 
L 185.026909 90.194372 
L 185.838545 82.24499 
L 186.650182 82.300212 
L 188.273455 154.083078 
L 189.085091 75.221065 
L 189.896727 82.300212 
L 190.708364 82.300212 
L 191.52 81.189353 
L 192.331636 92.966508 
L 193.143273 82.300212 
L 193.954909 82.264255 
L 194.766545 121.477976 
L 195.578182 82.300212 
L 196.389818 78.804588 
L 197.201455 82.300212 
L 198.013091 82.351482 
L 198.824727 82.24499 
L 199.636364 79.812758 
L 200.448 82.300212 
L 201.259636 82.300212 
L 202.071273 82.129189 
L 202.882909 82.300212 
L 204.506182 76.857927 
L 205.317818 92.930015 
L 206.129455 90.610409 
L 206.941091 82.300212 
L 209.376 82.300212 
L 210.187636 82.129189 
L 210.999273 82.351482 
L 212.622545 82.24499 
L 213.434182 76.857927 
L 214.245818 82.354094 
L 215.057455 82.575306 
L 215.869091 85.834178 
L 216.680727 80.856019 
L 217.492364 90.610409 
L 218.304 82.300212 
L 219.115636 83.749962 
L 219.927273 82.24499 
L 221.550545 82.267147 
L 222.362182 76.979269 
L 223.173818 80.415063 
L 223.985455 77.602312 
L 224.797091 82.354094 
L 226.420364 82.300212 
L 228.043636 82.300212 
L 228.855273 81.709322 
L 229.666909 72.440885 
L 230.478545 86.4975 
L 231.290182 86.200543 
L 232.101818 87.33583 
L 232.913455 82.300212 
L 233.725091 82.575306 
L 234.536727 93.534114 
L 235.348364 82.604614 
L 236.16 82.300212 
L 236.16 82.300212 
" clip-path="url(#p7aa16f7e28)" style="fill: none; stroke: #2ca02c; stroke-width: 1.5; stroke-linecap: square"/>
   </g>
   <g id="line2d_21">
    <path d="M 73.832727 82.209341 
L 74.644364 79.725526 
L 75.456 78.903433 
L 76.267636 81.85175 
L 77.079273 81.353863 
L 77.890909 62.400515 
L 78.702545 79.562294 
L 79.514182 81.880744 
L 80.325818 78.951138 
L 81.137455 78.063151 
L 81.949091 76.961338 
L 82.760727 74.419513 
L 83.572364 76.086035 
L 84.384 80.295701 
L 85.195636 64.748623 
L 86.007273 53.568 
L 86.818909 81.880744 
L 87.630545 73.980657 
L 88.442182 80.694284 
L 89.253818 83.912761 
L 90.065455 111.130464 
L 91.688727 67.670165 
L 92.500364 83.503298 
L 93.312 69.582693 
L 94.123636 77.456546 
L 94.935273 125.98086 
L 95.746909 94.973068 
L 96.558545 80.159521 
L 97.370182 71.188294 
L 98.181818 71.370064 
L 98.993455 119.000818 
L 99.805091 83.034099 
L 100.616727 72.678078 
L 101.428364 70.534597 
L 102.24 80.001121 
L 103.051636 80.989181 
L 103.863273 112.764783 
L 104.674909 81.246459 
L 105.486545 82.300212 
L 106.298182 82.176747 
L 107.109818 81.655416 
L 107.921455 81.804481 
L 108.733091 74.798889 
L 109.544727 84.661762 
L 110.356364 82.300212 
L 111.168 93.672375 
L 111.979636 82.13789 
L 112.791273 79.506516 
L 113.602909 69.229281 
L 114.414545 94.207447 
L 115.226182 83.371699 
L 116.037818 82.300212 
L 116.849455 82.300212 
L 117.661091 93.077813 
L 118.472727 82.300212 
L 119.284364 81.379674 
L 120.096 82.723595 
L 120.907636 82.300212 
L 122.530909 82.300212 
L 123.342545 78.456373 
L 124.154182 64.245861 
L 125.777455 82.300212 
L 126.589091 82.300212 
L 127.400727 80.244901 
L 128.212364 75.572871 
L 129.024 75.626154 
L 129.835636 76.682492 
L 130.647273 79.489034 
L 131.458909 85.714904 
L 132.270545 99.609883 
L 133.082182 107.883247 
L 134.705455 82.300212 
L 135.517091 99.801643 
L 136.328727 82.723595 
L 137.140364 82.300212 
L 138.763636 82.300212 
L 139.575273 87.170799 
L 140.386909 110.485351 
L 141.198545 228.326883 
L 142.010182 90.789397 
L 142.821818 169.641977 
L 143.633455 116.163977 
L 144.445091 97.739787 
L 145.256727 99.801643 
L 146.068364 122.000617 
L 146.88 153.949106 
L 147.691636 86.321706 
L 148.503273 90.355403 
L 149.314909 82.129189 
L 150.126545 99.801643 
L 150.938182 80.856019 
L 151.749818 101.072357 
L 152.561455 153.961102 
L 153.373091 81.138071 
L 154.996364 99.661307 
L 156.619636 82.300212 
L 157.431273 82.300212 
L 158.242909 157.779956 
L 159.054545 90.370445 
L 159.866182 82.300212 
L 160.677818 82.300212 
L 161.489455 84.0888 
L 162.301091 81.802599 
L 163.112727 93.565788 
L 163.924364 77.62118 
L 164.736 119.975907 
L 165.547636 82.300212 
L 166.359273 87.40116 
L 167.170909 82.300212 
L 167.982545 129.061329 
L 168.794182 77.481926 
L 169.605818 82.300212 
L 170.417455 81.250867 
L 171.229091 121.477976 
L 172.040727 121.477976 
L 172.852364 122.493371 
L 173.664 82.267147 
L 176.098909 82.300212 
L 176.910545 121.359047 
L 177.722182 82.300212 
L 178.533818 82.129189 
L 179.345455 96.024277 
L 180.157091 82.24499 
L 180.968727 163.83239 
L 181.780364 81.082876 
L 182.592 114.087843 
L 183.403636 122.721719 
L 184.215273 86.847185 
L 185.026909 90.194372 
L 185.838545 82.24499 
L 186.650182 82.300212 
L 188.273455 154.083078 
L 189.085091 75.221065 
L 189.896727 82.300212 
L 190.708364 82.300212 
L 191.52 81.189353 
L 192.331636 92.966508 
L 193.143273 82.300212 
L 193.954909 82.264255 
L 194.766545 121.477976 
L 195.578182 82.300212 
L 196.389818 78.804588 
L 197.201455 82.300212 
L 198.013091 82.351482 
L 198.824727 82.24499 
L 199.636364 79.812758 
L 200.448 82.300212 
L 201.259636 82.300212 
L 202.071273 82.129189 
L 202.882909 82.300212 
L 204.506182 76.857927 
L 205.317818 92.930015 
L 206.129455 90.610409 
L 206.941091 82.300212 
L 209.376 82.300212 
L 210.187636 82.129189 
L 210.999273 82.351482 
L 212.622545 82.24499 
L 213.434182 76.857927 
L 214.245818 82.354094 
L 215.057455 82.575306 
L 215.869091 85.834178 
L 216.680727 80.856019 
L 217.492364 90.610409 
L 218.304 82.300212 
L 219.115636 83.749962 
L 219.927273 82.24499 
L 221.550545 82.267147 
L 222.362182 76.979269 
L 223.173818 80.415063 
L 223.985455 77.602312 
L 224.797091 82.354094 
L 226.420364 82.300212 
L 228.043636 82.300212 
L 228.855273 81.709322 
L 229.666909 72.440885 
L 230.478545 86.4975 
L 231.290182 86.200543 
L 232.101818 87.33583 
L 232.913455 82.300212 
L 233.725091 82.575306 
L 234.536727 93.534114 
L 235.348364 82.604614 
L 236.16 82.300212 
L 238.594909 82.351482 
L 239.406545 76.857927 
L 240.218182 82.300212 
L 241.029818 82.300212 
L 242.653091 79.564649 
L 243.464727 76.051599 
L 244.276364 81.203727 
L 245.088 88.44682 
L 245.899636 87.202484 
L 246.711273 86.852211 
L 247.522909 79.812758 
L 248.334545 84.298533 
L 249.146182 82.300212 
L 249.957818 82.300212 
L 250.769455 88.287568 
L 251.581091 82.291507 
L 253.204364 82.300212 
L 254.016 86.266502 
L 254.827636 93.167655 
L 255.639273 83.659958 
L 256.450909 82.507674 
L 257.262545 82.300212 
L 258.074182 82.300212 
L 258.885818 81.682878 
L 259.697455 82.300212 
L 260.509091 82.300212 
L 261.320727 77.274877 
L 262.132364 78.262783 
L 262.944 77.122656 
L 263.755636 86.852211 
L 264.567273 76.513933 
L 265.378909 77.122656 
L 267.002182 87.643967 
L 267.813818 83.985262 
L 268.625455 84.46694 
L 269.437091 114.878002 
L 270.248727 85.502456 
L 271.060364 80.696687 
L 271.872 114.254627 
L 272.683636 79.972234 
L 273.495273 87.121647 
L 274.306909 82.300212 
L 275.118545 79.751065 
L 275.930182 93.412512 
L 276.741818 79.721249 
L 277.553455 73.728049 
L 278.365091 72.335458 
L 279.176727 73.888183 
L 279.988364 132.281598 
L 280.8 182.114981 
L 281.611636 82.482503 
L 282.423273 163.016635 
L 283.234909 116.642484 
L 284.046545 104.929699 
L 284.858182 66.787244 
L 285.669818 171.821361 
L 286.481455 182.032751 
L 287.293091 164.459432 
L 288.104727 128.620905 
L 288.916364 132.453816 
L 289.728 100.871749 
L 290.539636 74.124978 
L 291.351273 82.300212 
L 292.162909 146.747449 
L 292.974545 166.474472 
L 293.786182 137.334883 
L 294.597818 295.488 
L 295.409455 105.953649 
L 296.221091 94.328239 
L 297.032727 91.86812 
L 297.844364 102.566635 
L 298.656 99.12044 
L 299.467636 207.933534 
L 300.279273 106.43665 
L 301.090909 182.941365 
L 301.902545 83.86425 
L 302.714182 104.181627 
L 303.525818 91.742934 
L 304.337455 138.009454 
L 305.149091 89.375648 
L 305.960727 95.514415 
L 306.772364 109.675507 
L 307.584 108.341998 
L 308.395636 90.630982 
L 309.207273 120.213792 
L 310.018909 103.266555 
L 310.830545 92.759589 
L 311.642182 88.278722 
L 312.453818 108.234469 
L 313.265455 85.275368 
L 314.077091 105.947912 
L 314.888727 89.898174 
L 315.700364 168.890034 
L 316.512 99.12044 
L 317.323636 96.328976 
L 317.323636 96.328976 
" clip-path="url(#p7aa16f7e28)" style="fill: none; stroke: #d62728; stroke-width: 1.5; stroke-linecap: square"/>
   </g>
   <g id="line2d_22">
    <path d="M 73.832727 82.209341 
L 74.644364 79.725526 
L 75.456 78.903433 
L 76.267636 81.85175 
L 77.079273 81.353863 
L 77.890909 62.400515 
L 78.702545 79.562294 
L 79.514182 81.880744 
L 80.325818 78.951138 
L 81.137455 78.063151 
L 81.949091 76.961338 
L 82.760727 74.419513 
L 83.572364 76.086035 
L 84.384 80.295701 
L 85.195636 64.748623 
L 86.007273 53.568 
L 86.818909 81.880744 
L 87.630545 73.980657 
L 88.442182 80.694284 
L 89.253818 83.912761 
L 90.065455 111.130464 
L 91.688727 67.670165 
L 92.500364 83.503298 
L 93.312 69.582693 
L 94.123636 77.456546 
L 94.935273 125.98086 
L 95.746909 94.973068 
L 96.558545 80.159521 
L 97.370182 71.188294 
L 98.181818 71.370064 
L 98.993455 119.000818 
L 99.805091 83.034099 
L 100.616727 72.678078 
L 101.428364 70.534597 
L 102.24 80.001121 
L 103.051636 80.989181 
L 103.863273 112.764783 
L 104.674909 81.246459 
L 105.486545 82.300212 
L 106.298182 82.176747 
L 107.109818 81.655416 
L 107.921455 81.804481 
L 108.733091 74.798889 
L 109.544727 84.661762 
L 110.356364 82.300212 
L 111.168 93.672375 
L 111.979636 82.13789 
L 112.791273 79.506516 
L 113.602909 69.229281 
L 114.414545 94.207447 
L 115.226182 83.371699 
L 116.037818 82.300212 
L 116.849455 82.300212 
L 117.661091 93.077813 
L 118.472727 82.300212 
L 119.284364 81.379674 
L 120.096 82.723595 
L 120.907636 82.300212 
L 122.530909 82.300212 
L 123.342545 78.456373 
L 124.154182 64.245861 
L 125.777455 82.300212 
L 126.589091 82.300212 
L 127.400727 80.244901 
L 128.212364 75.572871 
L 129.024 75.626154 
L 129.835636 76.682492 
L 130.647273 79.489034 
L 131.458909 85.714904 
L 132.270545 99.609883 
L 133.082182 107.883247 
L 134.705455 82.300212 
L 135.517091 99.801643 
L 136.328727 82.723595 
L 137.140364 82.300212 
L 138.763636 82.300212 
L 139.575273 87.170799 
L 140.386909 110.485351 
L 141.198545 228.326883 
L 142.010182 90.789397 
L 142.821818 169.641977 
L 143.633455 116.163977 
L 144.445091 97.739787 
L 145.256727 99.801643 
L 146.068364 122.000617 
L 146.88 153.949106 
L 147.691636 86.321706 
L 148.503273 90.355403 
L 149.314909 82.129189 
L 150.126545 99.801643 
L 150.938182 80.856019 
L 151.749818 101.072357 
L 152.561455 153.961102 
L 153.373091 81.138071 
L 154.996364 99.661307 
L 156.619636 82.300212 
L 157.431273 82.300212 
L 158.242909 157.779956 
L 159.054545 90.370445 
L 159.866182 82.300212 
L 160.677818 82.300212 
L 161.489455 84.0888 
L 162.301091 81.802599 
L 163.112727 93.565788 
L 163.924364 77.62118 
L 164.736 119.975907 
L 165.547636 82.300212 
L 166.359273 87.40116 
L 167.170909 82.300212 
L 167.982545 129.061329 
L 168.794182 77.481926 
L 169.605818 82.300212 
L 170.417455 81.250867 
L 171.229091 121.477976 
L 172.040727 121.477976 
L 172.852364 122.493371 
L 173.664 82.267147 
L 176.098909 82.300212 
L 176.910545 121.359047 
L 177.722182 82.300212 
L 178.533818 82.129189 
L 179.345455 96.024277 
L 180.157091 82.24499 
L 180.968727 163.83239 
L 181.780364 81.082876 
L 182.592 114.087843 
L 183.403636 122.721719 
L 184.215273 86.847185 
L 185.026909 90.194372 
L 185.838545 82.24499 
L 186.650182 82.300212 
L 188.273455 154.083078 
L 189.085091 75.221065 
L 189.896727 82.300212 
L 190.708364 82.300212 
L 191.52 81.189353 
L 192.331636 92.966508 
L 193.143273 82.300212 
L 193.954909 82.264255 
L 194.766545 121.477976 
L 195.578182 82.300212 
L 196.389818 78.804588 
L 197.201455 82.300212 
L 198.013091 82.351482 
L 198.824727 82.24499 
L 199.636364 79.812758 
L 200.448 82.300212 
L 201.259636 82.300212 
L 202.071273 82.129189 
L 202.882909 82.300212 
L 204.506182 76.857927 
L 205.317818 92.930015 
L 206.129455 90.610409 
L 206.941091 82.300212 
L 209.376 82.300212 
L 210.187636 82.129189 
L 210.999273 82.351482 
L 212.622545 82.24499 
L 213.434182 76.857927 
L 214.245818 82.354094 
L 215.057455 82.575306 
L 215.869091 85.834178 
L 216.680727 80.856019 
L 217.492364 90.610409 
L 218.304 82.300212 
L 219.115636 83.749962 
L 219.927273 82.24499 
L 221.550545 82.267147 
L 222.362182 76.979269 
L 223.173818 80.415063 
L 223.985455 77.602312 
L 224.797091 82.354094 
L 226.420364 82.300212 
L 228.043636 82.300212 
L 228.855273 81.709322 
L 229.666909 72.440885 
L 230.478545 86.4975 
L 231.290182 86.200543 
L 232.101818 87.33583 
L 232.913455 82.300212 
L 233.725091 82.575306 
L 234.536727 93.534114 
L 235.348364 82.604614 
L 236.16 82.300212 
L 238.594909 82.351482 
L 239.406545 76.857927 
L 240.218182 82.300212 
L 241.029818 82.300212 
L 242.653091 79.564649 
L 243.464727 76.051599 
L 244.276364 81.203727 
L 245.088 88.44682 
L 245.899636 87.202484 
L 246.711273 86.852211 
L 247.522909 79.812758 
L 248.334545 84.298533 
L 249.146182 82.300212 
L 249.957818 82.300212 
L 250.769455 88.287568 
L 251.581091 82.291507 
L 253.204364 82.300212 
L 254.016 86.266502 
L 254.827636 93.167655 
L 255.639273 83.659958 
L 256.450909 82.507674 
L 257.262545 82.300212 
L 258.074182 82.300212 
L 258.885818 81.682878 
L 259.697455 82.300212 
L 260.509091 82.300212 
L 261.320727 77.274877 
L 262.132364 78.262783 
L 262.944 77.122656 
L 263.755636 86.852211 
L 264.567273 76.513933 
L 265.378909 77.122656 
L 267.002182 87.643967 
L 267.813818 83.985262 
L 268.625455 84.46694 
L 269.437091 114.878002 
L 270.248727 85.502456 
L 271.060364 80.696687 
L 271.872 114.254627 
L 272.683636 79.972234 
L 273.495273 87.121647 
L 274.306909 82.300212 
L 275.118545 79.751065 
L 275.930182 93.412512 
L 276.741818 79.721249 
L 277.553455 73.728049 
L 278.365091 72.335458 
L 279.176727 73.888183 
L 279.988364 132.281598 
L 280.8 182.114981 
L 281.611636 82.482503 
L 282.423273 163.016635 
L 283.234909 116.642484 
L 284.046545 104.929699 
L 284.858182 66.787244 
L 285.669818 171.821361 
L 286.481455 182.032751 
L 287.293091 164.459432 
L 288.104727 128.620905 
L 288.916364 132.453816 
L 289.728 100.871749 
L 290.539636 74.124978 
L 291.351273 82.300212 
L 292.162909 146.747449 
L 292.974545 166.474472 
L 293.786182 137.334883 
L 294.597818 295.488 
L 295.409455 105.953649 
L 296.221091 94.328239 
L 297.032727 91.86812 
L 297.844364 102.566635 
L 298.656 99.12044 
L 299.467636 207.933534 
L 300.279273 106.43665 
L 301.090909 182.941365 
L 301.902545 83.86425 
L 302.714182 104.181627 
L 303.525818 91.742934 
L 304.337455 138.009454 
L 305.149091 89.375648 
L 305.960727 95.514415 
L 306.772364 109.675507 
L 307.584 108.341998 
L 308.395636 90.630982 
L 309.207273 120.213792 
L 310.018909 103.266555 
L 310.830545 92.759589 
L 311.642182 88.278722 
L 312.453818 108.234469 
L 313.265455 85.275368 
L 314.077091 105.947912 
L 314.888727 89.898174 
L 315.700364 168.890034 
L 316.512 99.12044 
L 317.323636 96.328976 
L 318.135273 100.413874 
L 318.946909 103.378585 
L 319.758545 91.102404 
L 320.570182 143.024512 
L 321.381818 107.690707 
L 322.193455 101.815078 
L 323.005091 90.883911 
L 323.816727 84.654451 
L 324.628364 122.51767 
L 325.44 87.136404 
L 326.251636 106.003526 
L 327.063273 90.380967 
L 328.686545 77.109841 
L 329.498182 90.236861 
L 330.309818 106.887604 
L 331.121455 99.967765 
L 331.933091 83.963042 
L 332.744727 185.624087 
L 333.556364 84.10263 
L 334.368 118.66133 
L 335.179636 116.256549 
L 335.991273 104.329791 
L 336.802909 83.761393 
L 337.614545 93.127259 
L 338.426182 99.632647 
L 339.237818 121.656605 
L 340.861091 97.705637 
L 341.672727 104.799249 
L 342.484364 94.377828 
L 343.296 93.089386 
L 344.107636 96.196215 
L 344.919273 185.624087 
L 345.730909 111.570425 
L 346.542545 90.650848 
L 347.354182 124.222598 
L 348.165818 95.06616 
L 348.977455 91.328985 
L 349.789091 103.266555 
L 350.600727 83.949085 
L 351.412364 91.563699 
L 352.224 93.360028 
L 353.035636 90.94203 
L 353.847273 86.598151 
L 354.658909 241.658857 
L 355.470545 112.314731 
L 356.282182 91.197123 
L 357.093818 170.096406 
L 358.717091 86.364448 
L 359.528727 95.968335 
L 360.340364 90.432233 
L 361.152 108.395434 
L 361.963636 190.149939 
L 362.775273 151.273831 
L 363.586909 91.341022 
L 364.398545 95.640708 
L 365.210182 143.235491 
L 366.021818 91.143216 
L 366.833455 106.010963 
L 367.645091 179.991089 
L 368.456727 105.133497 
L 369.268364 95.514415 
L 370.08 115.746503 
L 370.891636 96.57419 
L 371.703273 117.820477 
L 372.514909 91.225967 
L 373.326545 95.640708 
L 374.138182 161.296979 
L 374.949818 186.952742 
L 375.761455 90.656633 
L 376.573091 102.680875 
L 377.384727 184.992791 
L 378.196364 100.523297 
L 379.008 90.35309 
L 379.819636 91.620604 
L 380.631273 185.624087 
L 381.442909 101.49136 
L 382.254545 104.253615 
L 383.066182 186.952742 
L 383.877818 84.126732 
L 384.689455 92.546526 
L 385.501091 91.776429 
L 386.312727 185.624087 
L 387.124364 93.681888 
L 387.936 95.671297 
L 388.747636 103.28711 
L 389.559273 91.620604 
L 390.370909 108.167768 
L 391.182545 103.430501 
L 391.994182 90.457825 
L 392.805818 138.258593 
L 393.617455 92.029671 
L 394.429091 92.58855 
L 395.240727 109.360327 
L 396.052364 99.116857 
L 396.864 92.670464 
L 397.675636 82.816538 
L 398.487273 91.023134 
L 398.487273 91.023134 
" clip-path="url(#p7aa16f7e28)" style="fill: none; stroke: #9467bd; stroke-width: 1.5; stroke-linecap: square"/>
   </g>
   <g id="patch_3">
    <path d="M 57.6 307.584 
L 57.6 41.472 
" style="fill: none; stroke: #000000; stroke-width: 0.8; stroke-linejoin: miter; stroke-linecap: square"/>
   </g>
   <g id="patch_4">
    <path d="M 414.72 307.584 
L 414.72 41.472 
" style="fill: none; stroke: #000000; stroke-width: 0.8; stroke-linejoin: miter; stroke-linecap: square"/>
   </g>
   <g id="patch_5">
    <path d="M 57.6 307.584 
L 414.72 307.584 
" style="fill: none; stroke: #000000; stroke-width: 0.8; stroke-linejoin: miter; stroke-linecap: square"/>
   </g>
   <g id="patch_6">
    <path d="M 57.6 41.472 
L 414.72 41.472 
" style="fill: none; stroke: #000000; stroke-width: 0.8; stroke-linejoin: miter; stroke-linecap: square"/>
   </g>
  </g>
 </g>
 <defs>
  <clipPath id="p7aa16f7e28">
   <rect x="57.6" y="41.472" width="357.12" height="266.112"/>
  </clipPath>
 </defs>
</svg>
