<?xml version="1.0" encoding="utf-8" standalone="no"?>
<!DOCTYPE svg PUBLIC "-//W3C//DTD SVG 1.1//EN"
  "http://www.w3.org/Graphics/SVG/1.1/DTD/svg11.dtd">
<svg xmlns:xlink="http://www.w3.org/1999/xlink" width="460.8pt" height="345.6pt" viewBox="0 0 460.8 345.6" xmlns="http://www.w3.org/2000/svg" version="1.1">
 <metadata>
  <rdf:RDF xmlns:dc="http://purl.org/dc/elements/1.1/" xmlns:cc="http://creativecommons.org/ns#" xmlns:rdf="http://www.w3.org/1999/02/22-rdf-syntax-ns#">
   <cc:Work>
    <dc:type rdf:resource="http://purl.org/dc/dcmitype/StillImage"/>
    <dc:date>2024-04-28T15:33:43.450090</dc:date>
    <dc:format>image/svg+xml</dc:format>
    <dc:creator>
     <cc:Agent>
      <dc:title>Matplotlib v3.8.2, https://matplotlib.org/</dc:title>
     </cc:Agent>
    </dc:creator>
   </cc:Work>
  </rdf:RDF>
 </metadata>
 <defs>
  <style type="text/css">*{stroke-linejoin: round; stroke-linecap: butt}</style>
 </defs>
 <g id="figure_1">
  <g id="patch_1">
   <path d="M 0 345.6 
L 460.8 345.6 
L 460.8 0 
L 0 0 
z
" style="fill: #ffffff"/>
  </g>
  <g id="axes_1">
   <g id="patch_2">
    <path d="M 57.6 307.584 
L 414.72 307.584 
L 414.72 41.472 
L 57.6 41.472 
z
" style="fill: #ffffff"/>
   </g>
   <g id="matplotlib.axis_1">
    <g id="xtick_1">
     <g id="line2d_1">
      <defs>
       <path id="mfd29b3f5be" d="M 0 0 
L 0 3.5 
" style="stroke: #000000; stroke-width: 0.8"/>
      </defs>
      <g>
       <use xlink:href="#mfd29b3f5be" x="73.832727" y="307.584" style="stroke: #000000; stroke-width: 0.8"/>
      </g>
     </g>
     <g id="text_1">
      <!-- 0 -->
      <g transform="translate(70.651477 322.182437) scale(0.1 -0.1)">
       <defs>
        <path id="DejaVuSans-30" d="M 2034 4250 
Q 1547 4250 1301 3770 
Q 1056 3291 1056 2328 
Q 1056 1369 1301 889 
Q 1547 409 2034 409 
Q 2525 409 2770 889 
Q 3016 1369 3016 2328 
Q 3016 3291 2770 3770 
Q 2525 4250 2034 4250 
z
M 2034 4750 
Q 2819 4750 3233 4129 
Q 3647 3509 3647 2328 
Q 3647 1150 3233 529 
Q 2819 -91 2034 -91 
Q 1250 -91 836 529 
Q 422 1150 422 2328 
Q 422 3509 836 4129 
Q 1250 4750 2034 4750 
z
" transform="scale(0.015625)"/>
       </defs>
       <use xlink:href="#DejaVuSans-30"/>
      </g>
     </g>
    </g>
    <g id="xtick_2">
     <g id="line2d_2">
      <g>
       <use xlink:href="#mfd29b3f5be" x="114.414545" y="307.584" style="stroke: #000000; stroke-width: 0.8"/>
      </g>
     </g>
     <g id="text_2">
      <!-- 100 -->
      <g transform="translate(104.870795 322.182437) scale(0.1 -0.1)">
       <defs>
        <path id="DejaVuSans-31" d="M 794 531 
L 1825 531 
L 1825 4091 
L 703 3866 
L 703 4441 
L 1819 4666 
L 2450 4666 
L 2450 531 
L 3481 531 
L 3481 0 
L 794 0 
L 794 531 
z
" transform="scale(0.015625)"/>
       </defs>
       <use xlink:href="#DejaVuSans-31"/>
       <use xlink:href="#DejaVuSans-30" x="63.623047"/>
       <use xlink:href="#DejaVuSans-30" x="127.246094"/>
      </g>
     </g>
    </g>
    <g id="xtick_3">
     <g id="line2d_3">
      <g>
       <use xlink:href="#mfd29b3f5be" x="154.996364" y="307.584" style="stroke: #000000; stroke-width: 0.8"/>
      </g>
     </g>
     <g id="text_3">
      <!-- 200 -->
      <g transform="translate(145.452614 322.182437) scale(0.1 -0.1)">
       <defs>
        <path id="DejaVuSans-32" d="M 1228 531 
L 3431 531 
L 3431 0 
L 469 0 
L 469 531 
Q 828 903 1448 1529 
Q 2069 2156 2228 2338 
Q 2531 2678 2651 2914 
Q 2772 3150 2772 3378 
Q 2772 3750 2511 3984 
Q 2250 4219 1831 4219 
Q 1534 4219 1204 4116 
Q 875 4013 500 3803 
L 500 4441 
Q 881 4594 1212 4672 
Q 1544 4750 1819 4750 
Q 2544 4750 2975 4387 
Q 3406 4025 3406 3419 
Q 3406 3131 3298 2873 
Q 3191 2616 2906 2266 
Q 2828 2175 2409 1742 
Q 1991 1309 1228 531 
z
" transform="scale(0.015625)"/>
       </defs>
       <use xlink:href="#DejaVuSans-32"/>
       <use xlink:href="#DejaVuSans-30" x="63.623047"/>
       <use xlink:href="#DejaVuSans-30" x="127.246094"/>
      </g>
     </g>
    </g>
    <g id="xtick_4">
     <g id="line2d_4">
      <g>
       <use xlink:href="#mfd29b3f5be" x="195.578182" y="307.584" style="stroke: #000000; stroke-width: 0.8"/>
      </g>
     </g>
     <g id="text_4">
      <!-- 300 -->
      <g transform="translate(186.034432 322.182437) scale(0.1 -0.1)">
       <defs>
        <path id="DejaVuSans-33" d="M 2597 2516 
Q 3050 2419 3304 2112 
Q 3559 1806 3559 1356 
Q 3559 666 3084 287 
Q 2609 -91 1734 -91 
Q 1441 -91 1130 -33 
Q 819 25 488 141 
L 488 750 
Q 750 597 1062 519 
Q 1375 441 1716 441 
Q 2309 441 2620 675 
Q 2931 909 2931 1356 
Q 2931 1769 2642 2001 
Q 2353 2234 1838 2234 
L 1294 2234 
L 1294 2753 
L 1863 2753 
Q 2328 2753 2575 2939 
Q 2822 3125 2822 3475 
Q 2822 3834 2567 4026 
Q 2313 4219 1838 4219 
Q 1578 4219 1281 4162 
Q 984 4106 628 3988 
L 628 4550 
Q 988 4650 1302 4700 
Q 1616 4750 1894 4750 
Q 2613 4750 3031 4423 
Q 3450 4097 3450 3541 
Q 3450 3153 3228 2886 
Q 3006 2619 2597 2516 
z
" transform="scale(0.015625)"/>
       </defs>
       <use xlink:href="#DejaVuSans-33"/>
       <use xlink:href="#DejaVuSans-30" x="63.623047"/>
       <use xlink:href="#DejaVuSans-30" x="127.246094"/>
      </g>
     </g>
    </g>
    <g id="xtick_5">
     <g id="line2d_5">
      <g>
       <use xlink:href="#mfd29b3f5be" x="236.16" y="307.584" style="stroke: #000000; stroke-width: 0.8"/>
      </g>
     </g>
     <g id="text_5">
      <!-- 400 -->
      <g transform="translate(226.61625 322.182437) scale(0.1 -0.1)">
       <defs>
        <path id="DejaVuSans-34" d="M 2419 4116 
L 825 1625 
L 2419 1625 
L 2419 4116 
z
M 2253 4666 
L 3047 4666 
L 3047 1625 
L 3713 1625 
L 3713 1100 
L 3047 1100 
L 3047 0 
L 2419 0 
L 2419 1100 
L 313 1100 
L 313 1709 
L 2253 4666 
z
" transform="scale(0.015625)"/>
       </defs>
       <use xlink:href="#DejaVuSans-34"/>
       <use xlink:href="#DejaVuSans-30" x="63.623047"/>
       <use xlink:href="#DejaVuSans-30" x="127.246094"/>
      </g>
     </g>
    </g>
    <g id="xtick_6">
     <g id="line2d_6">
      <g>
       <use xlink:href="#mfd29b3f5be" x="276.741818" y="307.584" style="stroke: #000000; stroke-width: 0.8"/>
      </g>
     </g>
     <g id="text_6">
      <!-- 500 -->
      <g transform="translate(267.198068 322.182437) scale(0.1 -0.1)">
       <defs>
        <path id="DejaVuSans-35" d="M 691 4666 
L 3169 4666 
L 3169 4134 
L 1269 4134 
L 1269 2991 
Q 1406 3038 1543 3061 
Q 1681 3084 1819 3084 
Q 2600 3084 3056 2656 
Q 3513 2228 3513 1497 
Q 3513 744 3044 326 
Q 2575 -91 1722 -91 
Q 1428 -91 1123 -41 
Q 819 9 494 109 
L 494 744 
Q 775 591 1075 516 
Q 1375 441 1709 441 
Q 2250 441 2565 725 
Q 2881 1009 2881 1497 
Q 2881 1984 2565 2268 
Q 2250 2553 1709 2553 
Q 1456 2553 1204 2497 
Q 953 2441 691 2322 
L 691 4666 
z
" transform="scale(0.015625)"/>
       </defs>
       <use xlink:href="#DejaVuSans-35"/>
       <use xlink:href="#DejaVuSans-30" x="63.623047"/>
       <use xlink:href="#DejaVuSans-30" x="127.246094"/>
      </g>
     </g>
    </g>
    <g id="xtick_7">
     <g id="line2d_7">
      <g>
       <use xlink:href="#mfd29b3f5be" x="317.323636" y="307.584" style="stroke: #000000; stroke-width: 0.8"/>
      </g>
     </g>
     <g id="text_7">
      <!-- 600 -->
      <g transform="translate(307.779886 322.182437) scale(0.1 -0.1)">
       <defs>
        <path id="DejaVuSans-36" d="M 2113 2584 
Q 1688 2584 1439 2293 
Q 1191 2003 1191 1497 
Q 1191 994 1439 701 
Q 1688 409 2113 409 
Q 2538 409 2786 701 
Q 3034 994 3034 1497 
Q 3034 2003 2786 2293 
Q 2538 2584 2113 2584 
z
M 3366 4563 
L 3366 3988 
Q 3128 4100 2886 4159 
Q 2644 4219 2406 4219 
Q 1781 4219 1451 3797 
Q 1122 3375 1075 2522 
Q 1259 2794 1537 2939 
Q 1816 3084 2150 3084 
Q 2853 3084 3261 2657 
Q 3669 2231 3669 1497 
Q 3669 778 3244 343 
Q 2819 -91 2113 -91 
Q 1303 -91 875 529 
Q 447 1150 447 2328 
Q 447 3434 972 4092 
Q 1497 4750 2381 4750 
Q 2619 4750 2861 4703 
Q 3103 4656 3366 4563 
z
" transform="scale(0.015625)"/>
       </defs>
       <use xlink:href="#DejaVuSans-36"/>
       <use xlink:href="#DejaVuSans-30" x="63.623047"/>
       <use xlink:href="#DejaVuSans-30" x="127.246094"/>
      </g>
     </g>
    </g>
    <g id="xtick_8">
     <g id="line2d_8">
      <g>
       <use xlink:href="#mfd29b3f5be" x="357.905455" y="307.584" style="stroke: #000000; stroke-width: 0.8"/>
      </g>
     </g>
     <g id="text_8">
      <!-- 700 -->
      <g transform="translate(348.361705 322.182437) scale(0.1 -0.1)">
       <defs>
        <path id="DejaVuSans-37" d="M 525 4666 
L 3525 4666 
L 3525 4397 
L 1831 0 
L 1172 0 
L 2766 4134 
L 525 4134 
L 525 4666 
z
" transform="scale(0.015625)"/>
       </defs>
       <use xlink:href="#DejaVuSans-37"/>
       <use xlink:href="#DejaVuSans-30" x="63.623047"/>
       <use xlink:href="#DejaVuSans-30" x="127.246094"/>
      </g>
     </g>
    </g>
    <g id="xtick_9">
     <g id="line2d_9">
      <g>
       <use xlink:href="#mfd29b3f5be" x="398.487273" y="307.584" style="stroke: #000000; stroke-width: 0.8"/>
      </g>
     </g>
     <g id="text_9">
      <!-- 800 -->
      <g transform="translate(388.943523 322.182437) scale(0.1 -0.1)">
       <defs>
        <path id="DejaVuSans-38" d="M 2034 2216 
Q 1584 2216 1326 1975 
Q 1069 1734 1069 1313 
Q 1069 891 1326 650 
Q 1584 409 2034 409 
Q 2484 409 2743 651 
Q 3003 894 3003 1313 
Q 3003 1734 2745 1975 
Q 2488 2216 2034 2216 
z
M 1403 2484 
Q 997 2584 770 2862 
Q 544 3141 544 3541 
Q 544 4100 942 4425 
Q 1341 4750 2034 4750 
Q 2731 4750 3128 4425 
Q 3525 4100 3525 3541 
Q 3525 3141 3298 2862 
Q 3072 2584 2669 2484 
Q 3125 2378 3379 2068 
Q 3634 1759 3634 1313 
Q 3634 634 3220 271 
Q 2806 -91 2034 -91 
Q 1263 -91 848 271 
Q 434 634 434 1313 
Q 434 1759 690 2068 
Q 947 2378 1403 2484 
z
M 1172 3481 
Q 1172 3119 1398 2916 
Q 1625 2713 2034 2713 
Q 2441 2713 2670 2916 
Q 2900 3119 2900 3481 
Q 2900 3844 2670 4047 
Q 2441 4250 2034 4250 
Q 1625 4250 1398 4047 
Q 1172 3844 1172 3481 
z
" transform="scale(0.015625)"/>
       </defs>
       <use xlink:href="#DejaVuSans-38"/>
       <use xlink:href="#DejaVuSans-30" x="63.623047"/>
       <use xlink:href="#DejaVuSans-30" x="127.246094"/>
      </g>
     </g>
    </g>
   </g>
   <g id="matplotlib.axis_2">
    <g id="ytick_1">
     <g id="line2d_10">
      <defs>
       <path id="m45b0b3ecfd" d="M 0 0 
L -3.5 0 
" style="stroke: #000000; stroke-width: 0.8"/>
      </defs>
      <g>
       <use xlink:href="#m45b0b3ecfd" x="57.6" y="275.272752" style="stroke: #000000; stroke-width: 0.8"/>
      </g>
     </g>
     <g id="text_10">
      <!-- −150 -->
      <g transform="translate(23.132812 279.071971) scale(0.1 -0.1)">
       <defs>
        <path id="DejaVuSans-2212" d="M 678 2272 
L 4684 2272 
L 4684 1741 
L 678 1741 
L 678 2272 
z
" transform="scale(0.015625)"/>
       </defs>
       <use xlink:href="#DejaVuSans-2212"/>
       <use xlink:href="#DejaVuSans-31" x="83.789062"/>
       <use xlink:href="#DejaVuSans-35" x="147.412109"/>
       <use xlink:href="#DejaVuSans-30" x="211.035156"/>
      </g>
     </g>
    </g>
    <g id="ytick_2">
     <g id="line2d_11">
      <g>
       <use xlink:href="#m45b0b3ecfd" x="57.6" y="242.928663" style="stroke: #000000; stroke-width: 0.8"/>
      </g>
     </g>
     <g id="text_11">
      <!-- −125 -->
      <g transform="translate(23.132812 246.727881) scale(0.1 -0.1)">
       <use xlink:href="#DejaVuSans-2212"/>
       <use xlink:href="#DejaVuSans-31" x="83.789062"/>
       <use xlink:href="#DejaVuSans-32" x="147.412109"/>
       <use xlink:href="#DejaVuSans-35" x="211.035156"/>
      </g>
     </g>
    </g>
    <g id="ytick_3">
     <g id="line2d_12">
      <g>
       <use xlink:href="#m45b0b3ecfd" x="57.6" y="210.584573" style="stroke: #000000; stroke-width: 0.8"/>
      </g>
     </g>
     <g id="text_12">
      <!-- −100 -->
      <g transform="translate(23.132812 214.383791) scale(0.1 -0.1)">
       <use xlink:href="#DejaVuSans-2212"/>
       <use xlink:href="#DejaVuSans-31" x="83.789062"/>
       <use xlink:href="#DejaVuSans-30" x="147.412109"/>
       <use xlink:href="#DejaVuSans-30" x="211.035156"/>
      </g>
     </g>
    </g>
    <g id="ytick_4">
     <g id="line2d_13">
      <g>
       <use xlink:href="#m45b0b3ecfd" x="57.6" y="178.240483" style="stroke: #000000; stroke-width: 0.8"/>
      </g>
     </g>
     <g id="text_13">
      <!-- −75 -->
      <g transform="translate(29.495313 182.039701) scale(0.1 -0.1)">
       <use xlink:href="#DejaVuSans-2212"/>
       <use xlink:href="#DejaVuSans-37" x="83.789062"/>
       <use xlink:href="#DejaVuSans-35" x="147.412109"/>
      </g>
     </g>
    </g>
    <g id="ytick_5">
     <g id="line2d_14">
      <g>
       <use xlink:href="#m45b0b3ecfd" x="57.6" y="145.896393" style="stroke: #000000; stroke-width: 0.8"/>
      </g>
     </g>
     <g id="text_14">
      <!-- −50 -->
      <g transform="translate(29.495313 149.695611) scale(0.1 -0.1)">
       <use xlink:href="#DejaVuSans-2212"/>
       <use xlink:href="#DejaVuSans-35" x="83.789062"/>
       <use xlink:href="#DejaVuSans-30" x="147.412109"/>
      </g>
     </g>
    </g>
    <g id="ytick_6">
     <g id="line2d_15">
      <g>
       <use xlink:href="#m45b0b3ecfd" x="57.6" y="113.552303" style="stroke: #000000; stroke-width: 0.8"/>
      </g>
     </g>
     <g id="text_15">
      <!-- −25 -->
      <g transform="translate(29.495313 117.351521) scale(0.1 -0.1)">
       <use xlink:href="#DejaVuSans-2212"/>
       <use xlink:href="#DejaVuSans-32" x="83.789062"/>
       <use xlink:href="#DejaVuSans-35" x="147.412109"/>
      </g>
     </g>
    </g>
    <g id="ytick_7">
     <g id="line2d_16">
      <g>
       <use xlink:href="#m45b0b3ecfd" x="57.6" y="81.208213" style="stroke: #000000; stroke-width: 0.8"/>
      </g>
     </g>
     <g id="text_16">
      <!-- 0 -->
      <g transform="translate(44.2375 85.007431) scale(0.1 -0.1)">
       <use xlink:href="#DejaVuSans-30"/>
      </g>
     </g>
    </g>
    <g id="ytick_8">
     <g id="line2d_17">
      <g>
       <use xlink:href="#m45b0b3ecfd" x="57.6" y="48.864123" style="stroke: #000000; stroke-width: 0.8"/>
      </g>
     </g>
     <g id="text_17">
      <!-- 25 -->
      <g transform="translate(37.875 52.663341) scale(0.1 -0.1)">
       <use xlink:href="#DejaVuSans-32"/>
       <use xlink:href="#DejaVuSans-35" x="63.623047"/>
      </g>
     </g>
    </g>
   </g>
   <g id="line2d_18">
    <path d="M 73.832727 81.120795 
" clip-path="url(#pdec4004fdd)" style="fill: none; stroke: #1f77b4; stroke-width: 1.5; stroke-linecap: square"/>
   </g>
   <g id="line2d_19">
    <path d="M 73.832727 81.120795 
L 74.238545 78.73138 
L 74.644364 77.940532 
L 75.050182 80.776794 
L 75.456 80.29783 
L 75.861818 62.064825 
L 76.267636 78.574352 
L 76.673455 80.804687 
L 77.079273 77.986424 
L 77.485091 77.132185 
L 77.890909 76.072248 
L 78.296727 73.627029 
L 78.702545 75.230212 
L 79.108364 79.279885 
L 79.514182 64.323691 
L 79.92 53.568 
L 80.325818 80.804687 
L 80.731636 73.204851 
L 81.137455 79.66332 
L 81.543273 82.759475 
L 81.949091 108.942739 
L 82.354909 86.816417 
L 82.760727 67.134197 
L 83.166545 82.365574 
L 83.572364 68.974037 
L 83.978182 76.548635 
L 84.384 123.228729 
L 84.789818 93.399423 
L 85.195636 79.148881 
L 85.601455 70.518615 
L 86.007273 70.693477 
L 86.413091 116.513971 
L 86.818909 81.914207 
L 87.224727 71.951778 
L 87.630545 69.889762 
L 88.036364 78.996501 
L 88.442182 79.947008 
L 88.848 110.514943 
L 89.253818 80.194508 
L 89.659636 81.208213 
L 90.065455 81.08944 
L 90.471273 80.587923 
L 90.877091 80.731322 
L 91.282909 73.991986 
L 91.688727 83.480009 
L 92.094545 81.208213 
L 92.500364 92.148164 
L 92.906182 81.052059 
L 93.312 78.520694 
L 93.717818 68.634057 
L 94.123636 92.662899 
L 94.529455 82.238976 
L 94.935273 81.208213 
L 95.341091 81.208213 
L 95.746909 91.576199 
L 96.152727 81.208213 
L 96.558545 80.32266 
L 96.964364 81.615504 
L 97.370182 81.208213 
L 97.776 81.208213 
L 98.181818 81.208213 
L 98.587636 77.510463 
L 98.993455 63.840037 
L 99.399273 72.456558 
L 99.805091 81.208213 
L 100.210909 81.208213 
L 100.616727 79.231016 
L 101.022545 74.736552 
L 101.428364 74.787809 
L 101.834182 75.804 
L 102.24 78.503877 
L 102.645818 84.493125 
L 103.051636 97.86001 
L 103.457455 105.818936 
L 103.863273 93.338949 
L 104.269091 81.208213 
L 104.674909 98.044482 
L 105.080727 81.615504 
L 105.486545 81.208213 
L 105.892364 81.208213 
L 106.298182 81.208213 
L 106.704 85.893687 
L 107.109818 108.322144 
L 107.515636 221.684978 
L 107.921455 89.374757 
L 108.327273 165.230457 
L 108.733091 113.784947 
L 109.138909 96.060989 
L 109.544727 98.044482 
L 109.950545 119.39976 
L 110.356364 150.134011 
L 110.762182 85.076865 
L 111.168 88.957257 
L 111.573818 81.043689 
L 111.979636 98.044482 
L 112.385455 79.818907 
L 112.791273 99.266901 
L 113.197091 150.14555 
L 113.602909 80.09024 
L 114.008727 89.153478 
L 114.414545 97.909479 
" clip-path="url(#pdec4004fdd)" style="fill: none; stroke: #ff7f0e; stroke-width: 1.5; stroke-linecap: square"/>
   </g>
   <g id="line2d_20">
    <path d="M 73.832727 81.120795 
L 74.238545 78.73138 
L 74.644364 77.940532 
L 75.050182 80.776794 
L 75.456 80.29783 
L 75.861818 62.064825 
L 76.267636 78.574352 
L 76.673455 80.804687 
L 77.079273 77.986424 
L 77.890909 76.072248 
L 78.296727 73.627029 
L 78.702545 75.230212 
L 79.108364 79.279885 
L 79.514182 64.323691 
L 79.92 53.568 
L 80.325818 80.804687 
L 80.731636 73.204851 
L 81.137455 79.66332 
L 81.543273 82.759475 
L 81.949091 108.942739 
L 82.760727 67.134197 
L 83.166545 82.365574 
L 83.572364 68.974037 
L 83.978182 76.548635 
L 84.384 123.228729 
L 84.789818 93.399423 
L 85.195636 79.148881 
L 85.601455 70.518615 
L 86.007273 70.693477 
L 86.413091 116.513971 
L 86.818909 81.914207 
L 87.224727 71.951778 
L 87.630545 69.889762 
L 88.036364 78.996501 
L 88.442182 79.947008 
L 88.848 110.514943 
L 89.253818 80.194508 
L 89.659636 81.208213 
L 90.065455 81.08944 
L 90.471273 80.587923 
L 90.877091 80.731322 
L 91.282909 73.991986 
L 91.688727 83.480009 
L 92.094545 81.208213 
L 92.500364 92.148164 
L 92.906182 81.052059 
L 93.312 78.520694 
L 93.717818 68.634057 
L 94.123636 92.662899 
L 94.529455 82.238976 
L 94.935273 81.208213 
L 95.341091 81.208213 
L 95.746909 91.576199 
L 96.152727 81.208213 
L 96.558545 80.32266 
L 96.964364 81.615504 
L 97.370182 81.208213 
L 98.181818 81.208213 
L 98.587636 77.510463 
L 98.993455 63.840037 
L 99.805091 81.208213 
L 100.210909 81.208213 
L 100.616727 79.231016 
L 101.022545 74.736552 
L 101.428364 74.787809 
L 101.834182 75.804 
L 102.24 78.503877 
L 102.645818 84.493125 
L 103.051636 97.86001 
L 103.457455 105.818936 
L 104.269091 81.208213 
L 104.674909 98.044482 
L 105.080727 81.615504 
L 105.486545 81.208213 
L 106.298182 81.208213 
L 106.704 85.893687 
L 107.109818 108.322144 
L 107.515636 221.684978 
L 107.921455 89.374757 
L 108.327273 165.230457 
L 108.733091 113.784947 
L 109.138909 96.060989 
L 109.544727 98.044482 
L 109.950545 119.39976 
L 110.356364 150.134011 
L 110.762182 85.076865 
L 111.168 88.957257 
L 111.573818 81.043689 
L 111.979636 98.044482 
L 112.385455 79.818907 
L 112.791273 99.266901 
L 113.197091 150.14555 
L 113.602909 80.09024 
L 114.414545 97.909479 
L 115.226182 81.208213 
L 115.632 81.208213 
L 116.037818 153.819265 
L 116.443636 88.971727 
L 116.849455 81.208213 
L 117.255273 81.208213 
L 117.661091 82.928823 
L 118.066909 80.729512 
L 118.472727 92.045628 
L 118.878545 76.707012 
L 119.284364 117.452001 
L 119.690182 81.208213 
L 120.096 86.115294 
L 120.501818 81.208213 
L 120.907636 126.192122 
L 121.313455 76.573051 
L 121.719273 81.208213 
L 122.125091 80.198749 
L 122.530909 118.896982 
L 122.936727 118.896982 
L 123.342545 119.873785 
L 123.748364 81.176404 
L 124.965818 81.208213 
L 125.371636 118.782573 
L 125.777455 81.208213 
L 126.183273 81.043689 
L 126.589091 94.410679 
L 126.994909 81.155089 
L 127.400727 159.64167 
L 127.806545 80.037143 
L 128.212364 111.78772 
L 128.618182 120.093456 
L 129.024 85.582373 
L 129.429818 88.802346 
L 129.835636 81.155089 
L 130.241455 81.208213 
L 131.053091 150.262891 
L 131.458909 74.398116 
L 131.864727 81.208213 
L 132.270545 81.208213 
L 132.676364 80.139573 
L 133.082182 91.469124 
L 133.488 81.208213 
L 133.893818 81.173622 
L 134.299636 118.896982 
L 134.705455 81.208213 
L 135.111273 77.845443 
L 135.517091 81.208213 
L 135.922909 81.257534 
L 136.328727 81.155089 
L 136.734545 78.815297 
L 137.140364 81.208213 
L 137.546182 81.208213 
L 137.952 81.043689 
L 138.357818 81.208213 
L 139.169455 75.972767 
L 139.575273 91.434018 
L 139.981091 89.202571 
L 140.386909 81.208213 
L 141.604364 81.208213 
L 142.010182 81.043689 
L 142.416 81.257534 
L 143.227636 81.155089 
L 143.633455 75.972767 
L 144.039273 81.260047 
L 144.445091 81.472851 
L 144.850909 84.607866 
L 145.256727 79.818907 
L 145.662545 89.202571 
L 146.068364 81.208213 
L 146.474182 82.602863 
L 146.88 81.155089 
L 147.691636 81.176404 
L 148.097455 76.089497 
L 148.503273 79.394711 
L 148.909091 76.688861 
L 149.314909 81.260047 
L 150.126545 81.208213 
L 150.938182 81.208213 
L 151.344 80.63978 
L 151.749818 71.7236 
L 152.155636 85.245977 
L 152.561455 84.960307 
L 152.967273 86.052446 
L 153.373091 81.208213 
L 153.778909 81.472851 
L 154.184727 92.015158 
L 154.590545 81.501045 
L 154.996364 81.208213 
L 154.996364 81.208213 
" clip-path="url(#pdec4004fdd)" style="fill: none; stroke: #2ca02c; stroke-width: 1.5; stroke-linecap: square"/>
   </g>
   <g id="line2d_21">
    <path d="M 73.832727 81.120795 
L 74.238545 78.73138 
L 74.644364 77.940532 
L 75.050182 80.776794 
L 75.456 80.29783 
L 75.861818 62.064825 
L 76.267636 78.574352 
L 76.673455 80.804687 
L 77.079273 77.986424 
L 77.890909 76.072248 
L 78.296727 73.627029 
L 78.702545 75.230212 
L 79.108364 79.279885 
L 79.514182 64.323691 
L 79.92 53.568 
L 80.325818 80.804687 
L 80.731636 73.204851 
L 81.137455 79.66332 
L 81.543273 82.759475 
L 81.949091 108.942739 
L 82.760727 67.134197 
L 83.166545 82.365574 
L 83.572364 68.974037 
L 83.978182 76.548635 
L 84.384 123.228729 
L 84.789818 93.399423 
L 85.195636 79.148881 
L 85.601455 70.518615 
L 86.007273 70.693477 
L 86.413091 116.513971 
L 86.818909 81.914207 
L 87.224727 71.951778 
L 87.630545 69.889762 
L 88.036364 78.996501 
L 88.442182 79.947008 
L 88.848 110.514943 
L 89.253818 80.194508 
L 89.659636 81.208213 
L 90.065455 81.08944 
L 90.471273 80.587923 
L 90.877091 80.731322 
L 91.282909 73.991986 
L 91.688727 83.480009 
L 92.094545 81.208213 
L 92.500364 92.148164 
L 92.906182 81.052059 
L 93.312 78.520694 
L 93.717818 68.634057 
L 94.123636 92.662899 
L 94.529455 82.238976 
L 94.935273 81.208213 
L 95.341091 81.208213 
L 95.746909 91.576199 
L 96.152727 81.208213 
L 96.558545 80.32266 
L 96.964364 81.615504 
L 97.370182 81.208213 
L 98.181818 81.208213 
L 98.587636 77.510463 
L 98.993455 63.840037 
L 99.805091 81.208213 
L 100.210909 81.208213 
L 100.616727 79.231016 
L 101.022545 74.736552 
L 101.428364 74.787809 
L 101.834182 75.804 
L 102.24 78.503877 
L 102.645818 84.493125 
L 103.051636 97.86001 
L 103.457455 105.818936 
L 104.269091 81.208213 
L 104.674909 98.044482 
L 105.080727 81.615504 
L 105.486545 81.208213 
L 106.298182 81.208213 
L 106.704 85.893687 
L 107.109818 108.322144 
L 107.515636 221.684978 
L 107.921455 89.374757 
L 108.327273 165.230457 
L 108.733091 113.784947 
L 109.138909 96.060989 
L 109.544727 98.044482 
L 109.950545 119.39976 
L 110.356364 150.134011 
L 110.762182 85.076865 
L 111.168 88.957257 
L 111.573818 81.043689 
L 111.979636 98.044482 
L 112.385455 79.818907 
L 112.791273 99.266901 
L 113.197091 150.14555 
L 113.602909 80.09024 
L 114.414545 97.909479 
L 115.226182 81.208213 
L 115.632 81.208213 
L 116.037818 153.819265 
L 116.443636 88.971727 
L 116.849455 81.208213 
L 117.255273 81.208213 
L 117.661091 82.928823 
L 118.066909 80.729512 
L 118.472727 92.045628 
L 118.878545 76.707012 
L 119.284364 117.452001 
L 119.690182 81.208213 
L 120.096 86.115294 
L 120.501818 81.208213 
L 120.907636 126.192122 
L 121.313455 76.573051 
L 121.719273 81.208213 
L 122.125091 80.198749 
L 122.530909 118.896982 
L 122.936727 118.896982 
L 123.342545 119.873785 
L 123.748364 81.176404 
L 124.965818 81.208213 
L 125.371636 118.782573 
L 125.777455 81.208213 
L 126.183273 81.043689 
L 126.589091 94.410679 
L 126.994909 81.155089 
L 127.400727 159.64167 
L 127.806545 80.037143 
L 128.212364 111.78772 
L 128.618182 120.093456 
L 129.024 85.582373 
L 129.429818 88.802346 
L 129.835636 81.155089 
L 130.241455 81.208213 
L 131.053091 150.262891 
L 131.458909 74.398116 
L 131.864727 81.208213 
L 132.270545 81.208213 
L 132.676364 80.139573 
L 133.082182 91.469124 
L 133.488 81.208213 
L 133.893818 81.173622 
L 134.299636 118.896982 
L 134.705455 81.208213 
L 135.111273 77.845443 
L 135.517091 81.208213 
L 135.922909 81.257534 
L 136.328727 81.155089 
L 136.734545 78.815297 
L 137.140364 81.208213 
L 137.546182 81.208213 
L 137.952 81.043689 
L 138.357818 81.208213 
L 139.169455 75.972767 
L 139.575273 91.434018 
L 139.981091 89.202571 
L 140.386909 81.208213 
L 141.604364 81.208213 
L 142.010182 81.043689 
L 142.416 81.257534 
L 143.227636 81.155089 
L 143.633455 75.972767 
L 144.039273 81.260047 
L 144.445091 81.472851 
L 144.850909 84.607866 
L 145.256727 79.818907 
L 145.662545 89.202571 
L 146.068364 81.208213 
L 146.474182 82.602863 
L 146.88 81.155089 
L 147.691636 81.176404 
L 148.097455 76.089497 
L 148.503273 79.394711 
L 148.909091 76.688861 
L 149.314909 81.260047 
L 150.126545 81.208213 
L 150.938182 81.208213 
L 151.344 80.63978 
L 151.749818 71.7236 
L 152.155636 85.245977 
L 152.561455 84.960307 
L 152.967273 86.052446 
L 153.373091 81.208213 
L 153.778909 81.472851 
L 154.184727 92.015158 
L 154.590545 81.501045 
L 154.996364 81.208213 
L 156.213818 81.257534 
L 156.619636 75.972767 
L 157.025455 81.208213 
L 157.431273 81.208213 
L 158.242909 78.576617 
L 158.648727 75.197085 
L 159.054545 80.1534 
L 159.460364 87.121211 
L 159.866182 85.924168 
L 160.272 85.587207 
L 160.677818 78.815297 
L 161.083636 83.130585 
L 161.489455 81.208213 
L 161.895273 81.208213 
L 162.301091 86.968012 
L 162.706909 81.199839 
L 163.518545 81.208213 
L 163.924364 85.023759 
L 164.330182 91.662626 
L 164.736 82.51628 
L 165.141818 81.407789 
L 165.547636 81.208213 
L 165.953455 81.208213 
L 166.359273 80.614341 
L 166.765091 81.208213 
L 167.170909 81.208213 
L 167.576727 76.373871 
L 167.982545 77.32423 
L 168.388364 76.227435 
L 168.794182 85.587207 
L 169.2 75.641847 
L 169.605818 76.227435 
L 170.417455 86.348872 
L 170.823273 82.82922 
L 171.229091 83.292592 
L 171.634909 112.547848 
L 172.040727 84.288752 
L 172.446545 79.665631 
L 172.852364 111.948164 
L 173.258182 78.968712 
L 173.664 85.846403 
L 174.069818 81.208213 
L 174.475636 78.755948 
L 174.881455 91.898177 
L 175.287273 78.727266 
L 175.693091 72.961844 
L 176.098909 71.62218 
L 176.504727 73.115892 
L 177.316364 177.229411 
L 177.722182 81.383575 
L 178.128 158.856918 
L 178.533818 114.245268 
L 178.939636 102.97764 
L 179.345455 66.284832 
L 179.751273 167.32701 
L 180.157091 177.150306 
L 180.562909 160.24488 
L 180.968727 125.768436 
L 181.374545 129.455673 
L 182.186182 73.343687 
L 182.592 81.208213 
L 182.997818 143.206061 
L 183.403636 162.183336 
L 183.809455 134.15123 
L 184.215273 286.293562 
L 184.621091 103.962674 
L 185.026909 92.779101 
L 185.432727 90.412481 
L 185.838545 100.704387 
L 186.244364 97.389169 
L 186.650182 202.0667 
L 187.056 104.427318 
L 187.461818 178.024387 
L 187.867636 82.712808 
L 188.273455 102.258 
L 188.679273 90.292053 
L 189.085091 134.800162 
L 189.490909 88.014739 
L 189.896727 93.920195 
L 190.302545 107.543079 
L 190.708364 106.260251 
L 191.114182 89.222362 
L 191.52 117.680844 
L 191.925818 101.377707 
L 192.331636 91.270069 
L 192.737455 86.959503 
L 193.143273 106.156809 
L 193.549091 84.070295 
L 193.954909 103.957155 
L 194.360727 88.517406 
L 194.766545 164.507092 
L 195.172364 97.389169 
L 195.578182 94.703797 
L 195.578182 94.703797 
" clip-path="url(#pdec4004fdd)" style="fill: none; stroke: #d62728; stroke-width: 1.5; stroke-linecap: square"/>
   </g>
   <g id="line2d_22">
    <path d="M 73.832727 81.120795 
L 74.238545 78.73138 
L 74.644364 77.940532 
L 75.050182 80.776794 
L 75.456 80.29783 
L 75.861818 62.064825 
L 76.267636 78.574352 
L 76.673455 80.804687 
L 77.079273 77.986424 
L 77.890909 76.072248 
L 78.296727 73.627029 
L 78.702545 75.230212 
L 79.108364 79.279885 
L 79.514182 64.323691 
L 79.92 53.568 
L 80.325818 80.804687 
L 80.731636 73.204851 
L 81.137455 79.66332 
L 81.543273 82.759475 
L 81.949091 108.942739 
L 82.760727 67.134197 
L 83.166545 82.365574 
L 83.572364 68.974037 
L 83.978182 76.548635 
L 84.384 123.228729 
L 84.789818 93.399423 
L 85.195636 79.148881 
L 85.601455 70.518615 
L 86.007273 70.693477 
L 86.413091 116.513971 
L 86.818909 81.914207 
L 87.224727 71.951778 
L 87.630545 69.889762 
L 88.036364 78.996501 
L 88.442182 79.947008 
L 88.848 110.514943 
L 89.253818 80.194508 
L 89.659636 81.208213 
L 90.065455 81.08944 
L 90.471273 80.587923 
L 90.877091 80.731322 
L 91.282909 73.991986 
L 91.688727 83.480009 
L 92.094545 81.208213 
L 92.500364 92.148164 
L 92.906182 81.052059 
L 93.312 78.520694 
L 93.717818 68.634057 
L 94.123636 92.662899 
L 94.529455 82.238976 
L 94.935273 81.208213 
L 95.341091 81.208213 
L 95.746909 91.576199 
L 96.152727 81.208213 
L 96.558545 80.32266 
L 96.964364 81.615504 
L 97.370182 81.208213 
L 98.181818 81.208213 
L 98.587636 77.510463 
L 98.993455 63.840037 
L 99.805091 81.208213 
L 100.210909 81.208213 
L 100.616727 79.231016 
L 101.022545 74.736552 
L 101.428364 74.787809 
L 101.834182 75.804 
L 102.24 78.503877 
L 102.645818 84.493125 
L 103.051636 97.86001 
L 103.457455 105.818936 
L 104.269091 81.208213 
L 104.674909 98.044482 
L 105.080727 81.615504 
L 105.486545 81.208213 
L 106.298182 81.208213 
L 106.704 85.893687 
L 107.109818 108.322144 
L 107.515636 221.684978 
L 107.921455 89.374757 
L 108.327273 165.230457 
L 108.733091 113.784947 
L 109.138909 96.060989 
L 109.544727 98.044482 
L 109.950545 119.39976 
L 110.356364 150.134011 
L 110.762182 85.076865 
L 111.168 88.957257 
L 111.573818 81.043689 
L 111.979636 98.044482 
L 112.385455 79.818907 
L 112.791273 99.266901 
L 113.197091 150.14555 
L 113.602909 80.09024 
L 114.414545 97.909479 
L 115.226182 81.208213 
L 115.632 81.208213 
L 116.037818 153.819265 
L 116.443636 88.971727 
L 116.849455 81.208213 
L 117.255273 81.208213 
L 117.661091 82.928823 
L 118.066909 80.729512 
L 118.472727 92.045628 
L 118.878545 76.707012 
L 119.284364 117.452001 
L 119.690182 81.208213 
L 120.096 86.115294 
L 120.501818 81.208213 
L 120.907636 126.192122 
L 121.313455 76.573051 
L 121.719273 81.208213 
L 122.125091 80.198749 
L 122.530909 118.896982 
L 122.936727 118.896982 
L 123.342545 119.873785 
L 123.748364 81.176404 
L 124.965818 81.208213 
L 125.371636 118.782573 
L 125.777455 81.208213 
L 126.183273 81.043689 
L 126.589091 94.410679 
L 126.994909 81.155089 
L 127.400727 159.64167 
L 127.806545 80.037143 
L 128.212364 111.78772 
L 128.618182 120.093456 
L 129.024 85.582373 
L 129.429818 88.802346 
L 129.835636 81.155089 
L 130.241455 81.208213 
L 131.053091 150.262891 
L 131.458909 74.398116 
L 131.864727 81.208213 
L 132.270545 81.208213 
L 132.676364 80.139573 
L 133.082182 91.469124 
L 133.488 81.208213 
L 133.893818 81.173622 
L 134.299636 118.896982 
L 134.705455 81.208213 
L 135.111273 77.845443 
L 135.517091 81.208213 
L 135.922909 81.257534 
L 136.328727 81.155089 
L 136.734545 78.815297 
L 137.140364 81.208213 
L 137.546182 81.208213 
L 137.952 81.043689 
L 138.357818 81.208213 
L 139.169455 75.972767 
L 139.575273 91.434018 
L 139.981091 89.202571 
L 140.386909 81.208213 
L 141.604364 81.208213 
L 142.010182 81.043689 
L 142.416 81.257534 
L 143.227636 81.155089 
L 143.633455 75.972767 
L 144.039273 81.260047 
L 144.445091 81.472851 
L 144.850909 84.607866 
L 145.256727 79.818907 
L 145.662545 89.202571 
L 146.068364 81.208213 
L 146.474182 82.602863 
L 146.88 81.155089 
L 147.691636 81.176404 
L 148.097455 76.089497 
L 148.503273 79.394711 
L 148.909091 76.688861 
L 149.314909 81.260047 
L 150.126545 81.208213 
L 150.938182 81.208213 
L 151.344 80.63978 
L 151.749818 71.7236 
L 152.155636 85.245977 
L 152.561455 84.960307 
L 152.967273 86.052446 
L 153.373091 81.208213 
L 153.778909 81.472851 
L 154.184727 92.015158 
L 154.590545 81.501045 
L 154.996364 81.208213 
L 156.213818 81.257534 
L 156.619636 75.972767 
L 157.025455 81.208213 
L 157.431273 81.208213 
L 158.242909 78.576617 
L 158.648727 75.197085 
L 159.054545 80.1534 
L 159.460364 87.121211 
L 159.866182 85.924168 
L 160.272 85.587207 
L 160.677818 78.815297 
L 161.083636 83.130585 
L 161.489455 81.208213 
L 161.895273 81.208213 
L 162.301091 86.968012 
L 162.706909 81.199839 
L 163.518545 81.208213 
L 163.924364 85.023759 
L 164.330182 91.662626 
L 164.736 82.51628 
L 165.141818 81.407789 
L 165.547636 81.208213 
L 165.953455 81.208213 
L 166.359273 80.614341 
L 166.765091 81.208213 
L 167.170909 81.208213 
L 167.576727 76.373871 
L 167.982545 77.32423 
L 168.388364 76.227435 
L 168.794182 85.587207 
L 169.2 75.641847 
L 169.605818 76.227435 
L 170.417455 86.348872 
L 170.823273 82.82922 
L 171.229091 83.292592 
L 171.634909 112.547848 
L 172.040727 84.288752 
L 172.446545 79.665631 
L 172.852364 111.948164 
L 173.258182 78.968712 
L 173.664 85.846403 
L 174.069818 81.208213 
L 174.475636 78.755948 
L 174.881455 91.898177 
L 175.287273 78.727266 
L 175.693091 72.961844 
L 176.098909 71.62218 
L 176.504727 73.115892 
L 177.316364 177.229411 
L 177.722182 81.383575 
L 178.128 158.856918 
L 178.533818 114.245268 
L 178.939636 102.97764 
L 179.345455 66.284832 
L 179.751273 167.32701 
L 180.157091 177.150306 
L 180.562909 160.24488 
L 180.968727 125.768436 
L 181.374545 129.455673 
L 182.186182 73.343687 
L 182.592 81.208213 
L 182.997818 143.206061 
L 183.403636 162.183336 
L 183.809455 134.15123 
L 184.215273 286.293562 
L 184.621091 103.962674 
L 185.026909 92.779101 
L 185.432727 90.412481 
L 185.838545 100.704387 
L 186.244364 97.389169 
L 186.650182 202.0667 
L 187.056 104.427318 
L 187.461818 178.024387 
L 187.867636 82.712808 
L 188.273455 102.258 
L 188.679273 90.292053 
L 189.085091 134.800162 
L 189.490909 88.014739 
L 189.896727 93.920195 
L 190.302545 107.543079 
L 190.708364 106.260251 
L 191.114182 89.222362 
L 191.52 117.680844 
L 191.925818 101.377707 
L 192.331636 91.270069 
L 192.737455 86.959503 
L 193.143273 106.156809 
L 193.549091 84.070295 
L 193.954909 103.957155 
L 194.360727 88.517406 
L 194.766545 164.507092 
L 195.172364 97.389169 
L 195.578182 94.703797 
L 196.389818 101.485478 
L 196.795636 89.675867 
L 197.201455 139.624618 
L 197.607273 105.633714 
L 198.013091 99.981395 
L 198.418909 89.465678 
L 198.824727 83.472976 
L 199.230545 119.897162 
L 199.636364 85.860599 
L 200.042182 104.010655 
L 200.448 88.981849 
L 201.259636 76.215107 
L 202.071273 104.861133 
L 202.477091 98.20429 
L 202.882909 82.807845 
L 203.288727 180.605149 
L 203.694545 82.942127 
L 204.100364 116.187385 
L 204.506182 113.874001 
L 204.912 102.400532 
L 205.317818 82.613859 
L 205.723636 91.623765 
L 206.129455 97.881909 
L 206.535273 119.068822 
L 207.346909 96.028137 
L 207.752727 102.852148 
L 208.158545 92.826805 
L 208.564364 91.587332 
L 208.970182 94.576082 
L 209.376 180.605149 
L 209.781818 109.365978 
L 210.187636 89.241473 
L 210.593455 121.537292 
L 210.999273 93.488976 
L 211.405091 89.893837 
L 211.810909 101.377707 
L 212.216727 82.794418 
L 212.622545 90.11963 
L 213.028364 91.847688 
L 213.434182 89.521588 
L 213.84 85.342803 
L 214.245818 234.510255 
L 214.651636 110.081997 
L 215.057455 89.766986 
L 215.463273 165.667615 
L 216.274909 85.117982 
L 216.680727 94.356863 
L 217.086545 89.031167 
L 217.492364 106.311656 
L 217.898182 184.95899 
L 218.304 147.560412 
L 218.709818 89.905416 
L 219.115636 94.041688 
L 219.521455 139.827578 
L 219.927273 89.715128 
L 220.333091 104.01781 
L 220.738909 175.186239 
L 221.144727 103.173693 
L 221.550545 93.920195 
L 221.956364 113.38334 
L 222.362182 94.939692 
L 222.768 115.37849 
L 223.173818 89.794734 
L 223.579636 94.041688 
L 223.985455 157.20262 
L 224.391273 181.883307 
L 224.797091 89.247039 
L 225.202909 100.814285 
L 225.608727 179.997846 
L 226.014545 98.738709 
L 226.420364 88.955032 
L 226.826182 90.174373 
L 227.232 180.605149 
L 227.637818 99.669979 
L 228.043636 102.327252 
L 228.449455 181.883307 
L 228.855273 82.965313 
L 229.261091 91.065104 
L 229.666909 90.324275 
L 230.072727 180.605149 
L 230.478545 92.157315 
L 230.884364 94.071114 
L 231.290182 101.39748 
L 231.696 90.174373 
L 232.101818 106.092643 
L 232.507636 101.535421 
L 232.913455 89.055786 
L 233.319273 135.039833 
L 233.725091 90.567893 
L 234.130909 91.10553 
L 234.536727 107.239877 
L 234.942545 97.385722 
L 235.348364 91.184331 
L 235.754182 81.704915 
L 236.16 89.59961 
L 236.16 89.59961 
" clip-path="url(#pdec4004fdd)" style="fill: none; stroke: #9467bd; stroke-width: 1.5; stroke-linecap: square"/>
   </g>
   <g id="line2d_23">
    <path d="M 73.832727 81.120795 
L 74.238545 78.73138 
L 74.644364 77.940532 
L 75.050182 80.776794 
L 75.456 80.29783 
L 75.861818 62.064825 
L 76.267636 78.574352 
L 76.673455 80.804687 
L 77.079273 77.986424 
L 77.890909 76.072248 
L 78.296727 73.627029 
L 78.702545 75.230212 
L 79.108364 79.279885 
L 79.514182 64.323691 
L 79.92 53.568 
L 80.325818 80.804687 
L 80.731636 73.204851 
L 81.137455 79.66332 
L 81.543273 82.759475 
L 81.949091 108.942739 
L 82.760727 67.134197 
L 83.166545 82.365574 
L 83.572364 68.974037 
L 83.978182 76.548635 
L 84.384 123.228729 
L 84.789818 93.399423 
L 85.195636 79.148881 
L 85.601455 70.518615 
L 86.007273 70.693477 
L 86.413091 116.513971 
L 86.818909 81.914207 
L 87.224727 71.951778 
L 87.630545 69.889762 
L 88.036364 78.996501 
L 88.442182 79.947008 
L 88.848 110.514943 
L 89.253818 80.194508 
L 89.659636 81.208213 
L 90.065455 81.08944 
L 90.471273 80.587923 
L 90.877091 80.731322 
L 91.282909 73.991986 
L 91.688727 83.480009 
L 92.094545 81.208213 
L 92.500364 92.148164 
L 92.906182 81.052059 
L 93.312 78.520694 
L 93.717818 68.634057 
L 94.123636 92.662899 
L 94.529455 82.238976 
L 94.935273 81.208213 
L 95.341091 81.208213 
L 95.746909 91.576199 
L 96.152727 81.208213 
L 96.558545 80.32266 
L 96.964364 81.615504 
L 97.370182 81.208213 
L 98.181818 81.208213 
L 98.587636 77.510463 
L 98.993455 63.840037 
L 99.805091 81.208213 
L 100.210909 81.208213 
L 100.616727 79.231016 
L 101.022545 74.736552 
L 101.428364 74.787809 
L 101.834182 75.804 
L 102.24 78.503877 
L 102.645818 84.493125 
L 103.051636 97.86001 
L 103.457455 105.818936 
L 104.269091 81.208213 
L 104.674909 98.044482 
L 105.080727 81.615504 
L 105.486545 81.208213 
L 106.298182 81.208213 
L 106.704 85.893687 
L 107.109818 108.322144 
L 107.515636 221.684978 
L 107.921455 89.374757 
L 108.327273 165.230457 
L 108.733091 113.784947 
L 109.138909 96.060989 
L 109.544727 98.044482 
L 109.950545 119.39976 
L 110.356364 150.134011 
L 110.762182 85.076865 
L 111.168 88.957257 
L 111.573818 81.043689 
L 111.979636 98.044482 
L 112.385455 79.818907 
L 112.791273 99.266901 
L 113.197091 150.14555 
L 113.602909 80.09024 
L 114.414545 97.909479 
L 115.226182 81.208213 
L 115.632 81.208213 
L 116.037818 153.819265 
L 116.443636 88.971727 
L 116.849455 81.208213 
L 117.255273 81.208213 
L 117.661091 82.928823 
L 118.066909 80.729512 
L 118.472727 92.045628 
L 118.878545 76.707012 
L 119.284364 117.452001 
L 119.690182 81.208213 
L 120.096 86.115294 
L 120.501818 81.208213 
L 120.907636 126.192122 
L 121.313455 76.573051 
L 121.719273 81.208213 
L 122.125091 80.198749 
L 122.530909 118.896982 
L 122.936727 118.896982 
L 123.342545 119.873785 
L 123.748364 81.176404 
L 124.965818 81.208213 
L 125.371636 118.782573 
L 125.777455 81.208213 
L 126.183273 81.043689 
L 126.589091 94.410679 
L 126.994909 81.155089 
L 127.400727 159.64167 
L 127.806545 80.037143 
L 128.212364 111.78772 
L 128.618182 120.093456 
L 129.024 85.582373 
L 129.429818 88.802346 
L 129.835636 81.155089 
L 130.241455 81.208213 
L 131.053091 150.262891 
L 131.458909 74.398116 
L 131.864727 81.208213 
L 132.270545 81.208213 
L 132.676364 80.139573 
L 133.082182 91.469124 
L 133.488 81.208213 
L 133.893818 81.173622 
L 134.299636 118.896982 
L 134.705455 81.208213 
L 135.111273 77.845443 
L 135.517091 81.208213 
L 135.922909 81.257534 
L 136.328727 81.155089 
L 136.734545 78.815297 
L 137.140364 81.208213 
L 137.546182 81.208213 
L 137.952 81.043689 
L 138.357818 81.208213 
L 139.169455 75.972767 
L 139.575273 91.434018 
L 139.981091 89.202571 
L 140.386909 81.208213 
L 141.604364 81.208213 
L 142.010182 81.043689 
L 142.416 81.257534 
L 143.227636 81.155089 
L 143.633455 75.972767 
L 144.039273 81.260047 
L 144.445091 81.472851 
L 144.850909 84.607866 
L 145.256727 79.818907 
L 145.662545 89.202571 
L 146.068364 81.208213 
L 146.474182 82.602863 
L 146.88 81.155089 
L 147.691636 81.176404 
L 148.097455 76.089497 
L 148.503273 79.394711 
L 148.909091 76.688861 
L 149.314909 81.260047 
L 150.126545 81.208213 
L 150.938182 81.208213 
L 151.344 80.63978 
L 151.749818 71.7236 
L 152.155636 85.245977 
L 152.561455 84.960307 
L 152.967273 86.052446 
L 153.373091 81.208213 
L 153.778909 81.472851 
L 154.184727 92.015158 
L 154.590545 81.501045 
L 154.996364 81.208213 
L 156.213818 81.257534 
L 156.619636 75.972767 
L 157.025455 81.208213 
L 157.431273 81.208213 
L 158.242909 78.576617 
L 158.648727 75.197085 
L 159.054545 80.1534 
L 159.460364 87.121211 
L 159.866182 85.924168 
L 160.272 85.587207 
L 160.677818 78.815297 
L 161.083636 83.130585 
L 161.489455 81.208213 
L 161.895273 81.208213 
L 162.301091 86.968012 
L 162.706909 81.199839 
L 163.518545 81.208213 
L 163.924364 85.023759 
L 164.330182 91.662626 
L 164.736 82.51628 
L 165.141818 81.407789 
L 165.547636 81.208213 
L 165.953455 81.208213 
L 166.359273 80.614341 
L 166.765091 81.208213 
L 167.170909 81.208213 
L 167.576727 76.373871 
L 167.982545 77.32423 
L 168.388364 76.227435 
L 168.794182 85.587207 
L 169.2 75.641847 
L 169.605818 76.227435 
L 170.417455 86.348872 
L 170.823273 82.82922 
L 171.229091 83.292592 
L 171.634909 112.547848 
L 172.040727 84.288752 
L 172.446545 79.665631 
L 172.852364 111.948164 
L 173.258182 78.968712 
L 173.664 85.846403 
L 174.069818 81.208213 
L 174.475636 78.755948 
L 174.881455 91.898177 
L 175.287273 78.727266 
L 175.693091 72.961844 
L 176.098909 71.62218 
L 176.504727 73.115892 
L 177.316364 177.229411 
L 177.722182 81.383575 
L 178.128 158.856918 
L 178.533818 114.245268 
L 178.939636 102.97764 
L 179.345455 66.284832 
L 179.751273 167.32701 
L 180.157091 177.150306 
L 180.562909 160.24488 
L 180.968727 125.768436 
L 181.374545 129.455673 
L 182.186182 73.343687 
L 182.592 81.208213 
L 182.997818 143.206061 
L 183.403636 162.183336 
L 183.809455 134.15123 
L 184.215273 286.293562 
L 184.621091 103.962674 
L 185.026909 92.779101 
L 185.432727 90.412481 
L 185.838545 100.704387 
L 186.244364 97.389169 
L 186.650182 202.0667 
L 187.056 104.427318 
L 187.461818 178.024387 
L 187.867636 82.712808 
L 188.273455 102.258 
L 188.679273 90.292053 
L 189.085091 134.800162 
L 189.490909 88.014739 
L 189.896727 93.920195 
L 190.302545 107.543079 
L 190.708364 106.260251 
L 191.114182 89.222362 
L 191.52 117.680844 
L 191.925818 101.377707 
L 192.331636 91.270069 
L 192.737455 86.959503 
L 193.143273 106.156809 
L 193.549091 84.070295 
L 193.954909 103.957155 
L 194.360727 88.517406 
L 194.766545 164.507092 
L 195.172364 97.389169 
L 195.578182 94.703797 
L 196.389818 101.485478 
L 196.795636 89.675867 
L 197.201455 139.624618 
L 197.607273 105.633714 
L 198.013091 99.981395 
L 198.418909 89.465678 
L 198.824727 83.472976 
L 199.230545 119.897162 
L 199.636364 85.860599 
L 200.042182 104.010655 
L 200.448 88.981849 
L 201.259636 76.215107 
L 202.071273 104.861133 
L 202.477091 98.20429 
L 202.882909 82.807845 
L 203.288727 180.605149 
L 203.694545 82.942127 
L 204.100364 116.187385 
L 204.506182 113.874001 
L 204.912 102.400532 
L 205.317818 82.613859 
L 205.723636 91.623765 
L 206.129455 97.881909 
L 206.535273 119.068822 
L 207.346909 96.028137 
L 207.752727 102.852148 
L 208.158545 92.826805 
L 208.564364 91.587332 
L 208.970182 94.576082 
L 209.376 180.605149 
L 209.781818 109.365978 
L 210.187636 89.241473 
L 210.593455 121.537292 
L 210.999273 93.488976 
L 211.405091 89.893837 
L 211.810909 101.377707 
L 212.216727 82.794418 
L 212.622545 90.11963 
L 213.028364 91.847688 
L 213.434182 89.521588 
L 213.84 85.342803 
L 214.245818 234.510255 
L 214.651636 110.081997 
L 215.057455 89.766986 
L 215.463273 165.667615 
L 216.274909 85.117982 
L 216.680727 94.356863 
L 217.086545 89.031167 
L 217.492364 106.311656 
L 217.898182 184.95899 
L 218.304 147.560412 
L 218.709818 89.905416 
L 219.115636 94.041688 
L 219.521455 139.827578 
L 219.927273 89.715128 
L 220.333091 104.01781 
L 220.738909 175.186239 
L 221.144727 103.173693 
L 221.550545 93.920195 
L 221.956364 113.38334 
L 222.362182 94.939692 
L 222.768 115.37849 
L 223.173818 89.794734 
L 223.579636 94.041688 
L 223.985455 157.20262 
L 224.391273 181.883307 
L 224.797091 89.247039 
L 225.202909 100.814285 
L 225.608727 179.997846 
L 226.014545 98.738709 
L 226.420364 88.955032 
L 226.826182 90.174373 
L 227.232 180.605149 
L 227.637818 99.669979 
L 228.043636 102.327252 
L 228.449455 181.883307 
L 228.855273 82.965313 
L 229.261091 91.065104 
L 229.666909 90.324275 
L 230.072727 180.605149 
L 230.478545 92.157315 
L 230.884364 94.071114 
L 231.290182 101.39748 
L 231.696 90.174373 
L 232.101818 106.092643 
L 232.507636 101.535421 
L 232.913455 89.055786 
L 233.319273 135.039833 
L 233.725091 90.567893 
L 234.130909 91.10553 
L 234.536727 107.239877 
L 234.942545 97.385722 
L 235.348364 91.184331 
L 235.754182 81.704915 
L 236.16 89.59961 
L 236.565818 123.094702 
L 236.971636 84.707588 
L 237.377455 103.753266 
L 237.783273 101.79526 
L 238.189091 100.620092 
L 238.594909 89.031167 
L 239.000727 100.620092 
L 239.406545 90.162454 
L 239.812364 84.142084 
L 240.218182 104.057373 
L 240.624 90.081436 
L 241.029818 182.312316 
L 241.435636 90.505091 
L 241.841455 94.834206 
L 242.247273 147.102482 
L 242.653091 101.050056 
L 243.058909 94.665317 
L 243.464727 90.081436 
L 243.870545 81.208213 
L 244.276364 129.741553 
L 244.682182 90.205371 
L 245.088 106.065574 
L 245.493818 90.689474 
L 245.899636 135.039833 
L 246.305455 89.774163 
L 246.711273 94.585557 
L 247.117091 91.645337 
L 247.522909 98.568241 
L 247.928727 83.406277 
L 248.334545 84.536727 
L 248.740364 91.788814 
L 249.146182 114.824413 
L 249.552 208.228148 
L 249.957818 89.362458 
L 250.363636 173.044771 
L 250.769455 83.660814 
L 251.175273 143.083192 
L 251.581091 97.117513 
L 251.986909 81.907112 
L 252.798545 106.029159 
L 253.204364 113.175002 
L 253.610182 91.84281 
L 254.016 98.605381 
L 254.421818 89.817753 
L 254.827636 85.617925 
L 255.233455 92.275622 
L 256.045091 90.297085 
L 256.450909 90.449378 
L 256.856727 116.102428 
L 257.262545 179.634187 
L 257.668364 93.861879 
L 258.074182 88.956208 
L 258.48 180.605149 
L 258.885818 92.389702 
L 259.291636 98.794935 
L 259.697455 91.184331 
L 260.103273 90.412481 
L 260.509091 94.071114 
L 260.914909 89.794734 
L 261.320727 100.469052 
L 261.726545 120.17046 
L 262.132364 88.266435 
L 262.538182 90.171584 
L 262.944 165.773614 
L 263.349818 96.976177 
L 263.755636 91.110258 
L 264.161455 89.898694 
L 264.567273 150.282275 
L 264.973091 94.571024 
L 265.378909 95.470107 
L 265.784727 102.348221 
L 266.190545 76.258906 
L 266.596364 90.297085 
L 267.002182 88.981849 
L 267.408 94.041688 
L 267.813818 89.055786 
L 268.219636 90.449378 
L 269.031273 91.269679 
L 269.437091 93.3901 
L 269.842909 83.100506 
L 270.248727 127.403265 
L 270.654545 89.270842 
L 271.060364 88.955032 
L 271.466182 94.041688 
L 271.872 91.10553 
L 272.277818 90.808319 
L 272.683636 89.478808 
L 273.089455 107.448717 
L 273.495273 90.297085 
L 273.901091 91.10553 
L 274.306909 90.689474 
L 274.712727 98.568241 
L 275.118545 100.712635 
L 275.524364 90.171584 
L 275.930182 90.11963 
L 276.336 173.089316 
L 276.741818 104.317479 
L 276.741818 104.317479 
" clip-path="url(#pdec4004fdd)" style="fill: none; stroke: #8c564b; stroke-width: 1.5; stroke-linecap: square"/>
   </g>
   <g id="line2d_24">
    <path d="M 73.832727 81.120795 
L 74.238545 78.73138 
L 74.644364 77.940532 
L 75.050182 80.776794 
L 75.456 80.29783 
L 75.861818 62.064825 
L 76.267636 78.574352 
L 76.673455 80.804687 
L 77.079273 77.986424 
L 77.890909 76.072248 
L 78.296727 73.627029 
L 78.702545 75.230212 
L 79.108364 79.279885 
L 79.514182 64.323691 
L 79.92 53.568 
L 80.325818 80.804687 
L 80.731636 73.204851 
L 81.137455 79.66332 
L 81.543273 82.759475 
L 81.949091 108.942739 
L 82.760727 67.134197 
L 83.166545 82.365574 
L 83.572364 68.974037 
L 83.978182 76.548635 
L 84.384 123.228729 
L 84.789818 93.399423 
L 85.195636 79.148881 
L 85.601455 70.518615 
L 86.007273 70.693477 
L 86.413091 116.513971 
L 86.818909 81.914207 
L 87.224727 71.951778 
L 87.630545 69.889762 
L 88.036364 78.996501 
L 88.442182 79.947008 
L 88.848 110.514943 
L 89.253818 80.194508 
L 89.659636 81.208213 
L 90.065455 81.08944 
L 90.471273 80.587923 
L 90.877091 80.731322 
L 91.282909 73.991986 
L 91.688727 83.480009 
L 92.094545 81.208213 
L 92.500364 92.148164 
L 92.906182 81.052059 
L 93.312 78.520694 
L 93.717818 68.634057 
L 94.123636 92.662899 
L 94.529455 82.238976 
L 94.935273 81.208213 
L 95.341091 81.208213 
L 95.746909 91.576199 
L 96.152727 81.208213 
L 96.558545 80.32266 
L 96.964364 81.615504 
L 97.370182 81.208213 
L 98.181818 81.208213 
L 98.587636 77.510463 
L 98.993455 63.840037 
L 99.805091 81.208213 
L 100.210909 81.208213 
L 100.616727 79.231016 
L 101.022545 74.736552 
L 101.428364 74.787809 
L 101.834182 75.804 
L 102.24 78.503877 
L 102.645818 84.493125 
L 103.051636 97.86001 
L 103.457455 105.818936 
L 104.269091 81.208213 
L 104.674909 98.044482 
L 105.080727 81.615504 
L 105.486545 81.208213 
L 106.298182 81.208213 
L 106.704 85.893687 
L 107.109818 108.322144 
L 107.515636 221.684978 
L 107.921455 89.374757 
L 108.327273 165.230457 
L 108.733091 113.784947 
L 109.138909 96.060989 
L 109.544727 98.044482 
L 109.950545 119.39976 
L 110.356364 150.134011 
L 110.762182 85.076865 
L 111.168 88.957257 
L 111.573818 81.043689 
L 111.979636 98.044482 
L 112.385455 79.818907 
L 112.791273 99.266901 
L 113.197091 150.14555 
L 113.602909 80.09024 
L 114.414545 97.909479 
L 115.226182 81.208213 
L 115.632 81.208213 
L 116.037818 153.819265 
L 116.443636 88.971727 
L 116.849455 81.208213 
L 117.255273 81.208213 
L 117.661091 82.928823 
L 118.066909 80.729512 
L 118.472727 92.045628 
L 118.878545 76.707012 
L 119.284364 117.452001 
L 119.690182 81.208213 
L 120.096 86.115294 
L 120.501818 81.208213 
L 120.907636 126.192122 
L 121.313455 76.573051 
L 121.719273 81.208213 
L 122.125091 80.198749 
L 122.530909 118.896982 
L 122.936727 118.896982 
L 123.342545 119.873785 
L 123.748364 81.176404 
L 124.965818 81.208213 
L 125.371636 118.782573 
L 125.777455 81.208213 
L 126.183273 81.043689 
L 126.589091 94.410679 
L 126.994909 81.155089 
L 127.400727 159.64167 
L 127.806545 80.037143 
L 128.212364 111.78772 
L 128.618182 120.093456 
L 129.024 85.582373 
L 129.429818 88.802346 
L 129.835636 81.155089 
L 130.241455 81.208213 
L 131.053091 150.262891 
L 131.458909 74.398116 
L 131.864727 81.208213 
L 132.270545 81.208213 
L 132.676364 80.139573 
L 133.082182 91.469124 
L 133.488 81.208213 
L 133.893818 81.173622 
L 134.299636 118.896982 
L 134.705455 81.208213 
L 135.111273 77.845443 
L 135.517091 81.208213 
L 135.922909 81.257534 
L 136.328727 81.155089 
L 136.734545 78.815297 
L 137.140364 81.208213 
L 137.546182 81.208213 
L 137.952 81.043689 
L 138.357818 81.208213 
L 139.169455 75.972767 
L 139.575273 91.434018 
L 139.981091 89.202571 
L 140.386909 81.208213 
L 141.604364 81.208213 
L 142.010182 81.043689 
L 142.416 81.257534 
L 143.227636 81.155089 
L 143.633455 75.972767 
L 144.039273 81.260047 
L 144.445091 81.472851 
L 144.850909 84.607866 
L 145.256727 79.818907 
L 145.662545 89.202571 
L 146.068364 81.208213 
L 146.474182 82.602863 
L 146.88 81.155089 
L 147.691636 81.176404 
L 148.097455 76.089497 
L 148.503273 79.394711 
L 148.909091 76.688861 
L 149.314909 81.260047 
L 150.126545 81.208213 
L 150.938182 81.208213 
L 151.344 80.63978 
L 151.749818 71.7236 
L 152.155636 85.245977 
L 152.561455 84.960307 
L 152.967273 86.052446 
L 153.373091 81.208213 
L 153.778909 81.472851 
L 154.184727 92.015158 
L 154.590545 81.501045 
L 154.996364 81.208213 
L 156.213818 81.257534 
L 156.619636 75.972767 
L 157.025455 81.208213 
L 157.431273 81.208213 
L 158.242909 78.576617 
L 158.648727 75.197085 
L 159.054545 80.1534 
L 159.460364 87.121211 
L 159.866182 85.924168 
L 160.272 85.587207 
L 160.677818 78.815297 
L 161.083636 83.130585 
L 161.489455 81.208213 
L 161.895273 81.208213 
L 162.301091 86.968012 
L 162.706909 81.199839 
L 163.518545 81.208213 
L 163.924364 85.023759 
L 164.330182 91.662626 
L 164.736 82.51628 
L 165.141818 81.407789 
L 165.547636 81.208213 
L 165.953455 81.208213 
L 166.359273 80.614341 
L 166.765091 81.208213 
L 167.170909 81.208213 
L 167.576727 76.373871 
L 167.982545 77.32423 
L 168.388364 76.227435 
L 168.794182 85.587207 
L 169.2 75.641847 
L 169.605818 76.227435 
L 170.417455 86.348872 
L 170.823273 82.82922 
L 171.229091 83.292592 
L 171.634909 112.547848 
L 172.040727 84.288752 
L 172.446545 79.665631 
L 172.852364 111.948164 
L 173.258182 78.968712 
L 173.664 85.846403 
L 174.069818 81.208213 
L 174.475636 78.755948 
L 174.881455 91.898177 
L 175.287273 78.727266 
L 175.693091 72.961844 
L 176.098909 71.62218 
L 176.504727 73.115892 
L 177.316364 177.229411 
L 177.722182 81.383575 
L 178.128 158.856918 
L 178.533818 114.245268 
L 178.939636 102.97764 
L 179.345455 66.284832 
L 179.751273 167.32701 
L 180.157091 177.150306 
L 180.562909 160.24488 
L 180.968727 125.768436 
L 181.374545 129.455673 
L 182.186182 73.343687 
L 182.592 81.208213 
L 182.997818 143.206061 
L 183.403636 162.183336 
L 183.809455 134.15123 
L 184.215273 286.293562 
L 184.621091 103.962674 
L 185.026909 92.779101 
L 185.432727 90.412481 
L 185.838545 100.704387 
L 186.244364 97.389169 
L 186.650182 202.0667 
L 187.056 104.427318 
L 187.461818 178.024387 
L 187.867636 82.712808 
L 188.273455 102.258 
L 188.679273 90.292053 
L 189.085091 134.800162 
L 189.490909 88.014739 
L 189.896727 93.920195 
L 190.302545 107.543079 
L 190.708364 106.260251 
L 191.114182 89.222362 
L 191.52 117.680844 
L 191.925818 101.377707 
L 192.331636 91.270069 
L 192.737455 86.959503 
L 193.143273 106.156809 
L 193.549091 84.070295 
L 193.954909 103.957155 
L 194.360727 88.517406 
L 194.766545 164.507092 
L 195.172364 97.389169 
L 195.578182 94.703797 
L 196.389818 101.485478 
L 196.795636 89.675867 
L 197.201455 139.624618 
L 197.607273 105.633714 
L 198.013091 99.981395 
L 198.418909 89.465678 
L 198.824727 83.472976 
L 199.230545 119.897162 
L 199.636364 85.860599 
L 200.042182 104.010655 
L 200.448 88.981849 
L 201.259636 76.215107 
L 202.071273 104.861133 
L 202.477091 98.20429 
L 202.882909 82.807845 
L 203.288727 180.605149 
L 203.694545 82.942127 
L 204.100364 116.187385 
L 204.506182 113.874001 
L 204.912 102.400532 
L 205.317818 82.613859 
L 205.723636 91.623765 
L 206.129455 97.881909 
L 206.535273 119.068822 
L 207.346909 96.028137 
L 207.752727 102.852148 
L 208.158545 92.826805 
L 208.564364 91.587332 
L 208.970182 94.576082 
L 209.376 180.605149 
L 209.781818 109.365978 
L 210.187636 89.241473 
L 210.593455 121.537292 
L 210.999273 93.488976 
L 211.405091 89.893837 
L 211.810909 101.377707 
L 212.216727 82.794418 
L 212.622545 90.11963 
L 213.028364 91.847688 
L 213.434182 89.521588 
L 213.84 85.342803 
L 214.245818 234.510255 
L 214.651636 110.081997 
L 215.057455 89.766986 
L 215.463273 165.667615 
L 216.274909 85.117982 
L 216.680727 94.356863 
L 217.086545 89.031167 
L 217.492364 106.311656 
L 217.898182 184.95899 
L 218.304 147.560412 
L 218.709818 89.905416 
L 219.115636 94.041688 
L 219.521455 139.827578 
L 219.927273 89.715128 
L 220.333091 104.01781 
L 220.738909 175.186239 
L 221.144727 103.173693 
L 221.550545 93.920195 
L 221.956364 113.38334 
L 222.362182 94.939692 
L 222.768 115.37849 
L 223.173818 89.794734 
L 223.579636 94.041688 
L 223.985455 157.20262 
L 224.391273 181.883307 
L 224.797091 89.247039 
L 225.202909 100.814285 
L 225.608727 179.997846 
L 226.014545 98.738709 
L 226.420364 88.955032 
L 226.826182 90.174373 
L 227.232 180.605149 
L 227.637818 99.669979 
L 228.043636 102.327252 
L 228.449455 181.883307 
L 228.855273 82.965313 
L 229.261091 91.065104 
L 229.666909 90.324275 
L 230.072727 180.605149 
L 230.478545 92.157315 
L 230.884364 94.071114 
L 231.290182 101.39748 
L 231.696 90.174373 
L 232.101818 106.092643 
L 232.507636 101.535421 
L 232.913455 89.055786 
L 233.319273 135.039833 
L 233.725091 90.567893 
L 234.130909 91.10553 
L 234.536727 107.239877 
L 234.942545 97.385722 
L 235.348364 91.184331 
L 235.754182 81.704915 
L 236.16 89.59961 
L 236.565818 123.094702 
L 236.971636 84.707588 
L 237.377455 103.753266 
L 237.783273 101.79526 
L 238.189091 100.620092 
L 238.594909 89.031167 
L 239.000727 100.620092 
L 239.406545 90.162454 
L 239.812364 84.142084 
L 240.218182 104.057373 
L 240.624 90.081436 
L 241.029818 182.312316 
L 241.435636 90.505091 
L 241.841455 94.834206 
L 242.247273 147.102482 
L 242.653091 101.050056 
L 243.058909 94.665317 
L 243.464727 90.081436 
L 243.870545 81.208213 
L 244.276364 129.741553 
L 244.682182 90.205371 
L 245.088 106.065574 
L 245.493818 90.689474 
L 245.899636 135.039833 
L 246.305455 89.774163 
L 246.711273 94.585557 
L 247.117091 91.645337 
L 247.522909 98.568241 
L 247.928727 83.406277 
L 248.334545 84.536727 
L 248.740364 91.788814 
L 249.146182 114.824413 
L 249.552 208.228148 
L 249.957818 89.362458 
L 250.363636 173.044771 
L 250.769455 83.660814 
L 251.175273 143.083192 
L 251.581091 97.117513 
L 251.986909 81.907112 
L 252.798545 106.029159 
L 253.204364 113.175002 
L 253.610182 91.84281 
L 254.016 98.605381 
L 254.421818 89.817753 
L 254.827636 85.617925 
L 255.233455 92.275622 
L 256.045091 90.297085 
L 256.450909 90.449378 
L 256.856727 116.102428 
L 257.262545 179.634187 
L 257.668364 93.861879 
L 258.074182 88.956208 
L 258.48 180.605149 
L 258.885818 92.389702 
L 259.291636 98.794935 
L 259.697455 91.184331 
L 260.103273 90.412481 
L 260.509091 94.071114 
L 260.914909 89.794734 
L 261.320727 100.469052 
L 261.726545 120.17046 
L 262.132364 88.266435 
L 262.538182 90.171584 
L 262.944 165.773614 
L 263.349818 96.976177 
L 263.755636 91.110258 
L 264.161455 89.898694 
L 264.567273 150.282275 
L 264.973091 94.571024 
L 265.378909 95.470107 
L 265.784727 102.348221 
L 266.190545 76.258906 
L 266.596364 90.297085 
L 267.002182 88.981849 
L 267.408 94.041688 
L 267.813818 89.055786 
L 268.219636 90.449378 
L 269.031273 91.269679 
L 269.437091 93.3901 
L 269.842909 83.100506 
L 270.248727 127.403265 
L 270.654545 89.270842 
L 271.060364 88.955032 
L 271.466182 94.041688 
L 271.872 91.10553 
L 272.277818 90.808319 
L 272.683636 89.478808 
L 273.089455 107.448717 
L 273.495273 90.297085 
L 273.901091 91.10553 
L 274.306909 90.689474 
L 274.712727 98.568241 
L 275.118545 100.712635 
L 275.524364 90.171584 
L 275.930182 90.11963 
L 276.336 173.089316 
L 276.741818 104.317479 
L 277.147636 116.311384 
L 277.553455 90.449378 
L 277.959273 94.041688 
L 278.365091 89.270842 
L 278.770909 103.230092 
L 279.176727 89.905416 
L 279.582545 102.177447 
L 279.988364 94.410459 
L 280.394182 105.051358 
L 280.8 88.955032 
L 281.205818 99.715826 
L 281.611636 94.041688 
L 282.017455 98.00999 
L 282.423273 90.089037 
L 282.829091 92.389702 
L 283.234909 89.007323 
L 283.640727 98.00999 
L 284.046545 115.878975 
L 284.452364 110.910926 
L 284.858182 94.071114 
L 285.264 90.174373 
L 285.669818 90.089037 
L 286.075636 116.050449 
L 286.481455 94.410459 
L 286.887273 91.894712 
L 287.293091 94.991963 
L 287.698909 90.651545 
L 288.104727 91.587332 
L 288.510545 93.861879 
L 288.916364 89.270842 
L 289.322182 175.186239 
L 289.728 92.131858 
L 290.133818 88.981849 
L 290.539636 92.063025 
L 290.945455 179.634187 
L 291.351273 104.010655 
L 291.757091 90.11963 
L 292.162909 89.270842 
L 292.568727 99.901808 
L 292.974545 90.11963 
L 293.380364 113.880454 
L 293.786182 91.10553 
L 294.192 91.858695 
L 294.597818 89.031167 
L 295.003636 88.981849 
L 295.409455 90.292053 
L 295.815273 74.084562 
L 296.221091 89.478808 
L 296.626909 164.794843 
L 297.032727 94.236313 
L 297.438545 103.960359 
L 297.844364 90.449378 
L 298.250182 88.981849 
L 298.656 90.089037 
L 299.061818 120.333741 
L 299.467636 139.417015 
L 299.873455 89.465678 
L 300.279273 90.449378 
L 300.685091 86.005306 
L 301.090909 96.028137 
L 301.496727 89.247039 
L 301.902545 92.779101 
L 302.308364 89.055786 
L 302.714182 89.007323 
L 303.12 116.102428 
L 303.525818 89.905416 
L 303.931636 93.920195 
L 304.337455 93.571394 
L 304.743273 94.041688 
L 305.149091 175.186239 
L 305.554909 141.172295 
L 305.960727 90.11963 
L 306.366545 90.412481 
L 306.772364 84.546701 
L 307.178182 90.412481 
L 307.584 94.071114 
L 307.989818 94.410459 
L 308.395636 90.808319 
L 308.801455 100.712635 
L 309.207273 88.981849 
L 309.613091 94.174829 
L 310.018909 88.955032 
L 310.424727 93.571394 
L 310.830545 117.925354 
L 311.236364 180.605149 
L 311.642182 91.184331 
L 312.048 113.321941 
L 312.453818 93.571394 
L 312.859636 89.247039 
L 313.265455 89.471886 
L 313.671273 90.689474 
L 314.077091 98.632586 
L 314.482909 110.935346 
L 314.888727 89.055786 
L 315.294545 90.089037 
L 315.700364 88.981849 
L 316.106182 175.186239 
L 316.512 101.58588 
L 316.917818 94.071114 
L 317.323636 88.981849 
L 317.323636 88.981849 
" clip-path="url(#pdec4004fdd)" style="fill: none; stroke: #e377c2; stroke-width: 1.5; stroke-linecap: square"/>
   </g>
   <g id="line2d_25">
    <path d="M 73.832727 81.120795 
L 74.238545 78.73138 
L 74.644364 77.940532 
L 75.050182 80.776794 
L 75.456 80.29783 
L 75.861818 62.064825 
L 76.267636 78.574352 
L 76.673455 80.804687 
L 77.079273 77.986424 
L 77.890909 76.072248 
L 78.296727 73.627029 
L 78.702545 75.230212 
L 79.108364 79.279885 
L 79.514182 64.323691 
L 79.92 53.568 
L 80.325818 80.804687 
L 80.731636 73.204851 
L 81.137455 79.66332 
L 81.543273 82.759475 
L 81.949091 108.942739 
L 82.760727 67.134197 
L 83.166545 82.365574 
L 83.572364 68.974037 
L 83.978182 76.548635 
L 84.384 123.228729 
L 84.789818 93.399423 
L 85.195636 79.148881 
L 85.601455 70.518615 
L 86.007273 70.693477 
L 86.413091 116.513971 
L 86.818909 81.914207 
L 87.224727 71.951778 
L 87.630545 69.889762 
L 88.036364 78.996501 
L 88.442182 79.947008 
L 88.848 110.514943 
L 89.253818 80.194508 
L 89.659636 81.208213 
L 90.065455 81.08944 
L 90.471273 80.587923 
L 90.877091 80.731322 
L 91.282909 73.991986 
L 91.688727 83.480009 
L 92.094545 81.208213 
L 92.500364 92.148164 
L 92.906182 81.052059 
L 93.312 78.520694 
L 93.717818 68.634057 
L 94.123636 92.662899 
L 94.529455 82.238976 
L 94.935273 81.208213 
L 95.341091 81.208213 
L 95.746909 91.576199 
L 96.152727 81.208213 
L 96.558545 80.32266 
L 96.964364 81.615504 
L 97.370182 81.208213 
L 98.181818 81.208213 
L 98.587636 77.510463 
L 98.993455 63.840037 
L 99.805091 81.208213 
L 100.210909 81.208213 
L 100.616727 79.231016 
L 101.022545 74.736552 
L 101.428364 74.787809 
L 101.834182 75.804 
L 102.24 78.503877 
L 102.645818 84.493125 
L 103.051636 97.86001 
L 103.457455 105.818936 
L 104.269091 81.208213 
L 104.674909 98.044482 
L 105.080727 81.615504 
L 105.486545 81.208213 
L 106.298182 81.208213 
L 106.704 85.893687 
L 107.109818 108.322144 
L 107.515636 221.684978 
L 107.921455 89.374757 
L 108.327273 165.230457 
L 108.733091 113.784947 
L 109.138909 96.060989 
L 109.544727 98.044482 
L 109.950545 119.39976 
L 110.356364 150.134011 
L 110.762182 85.076865 
L 111.168 88.957257 
L 111.573818 81.043689 
L 111.979636 98.044482 
L 112.385455 79.818907 
L 112.791273 99.266901 
L 113.197091 150.14555 
L 113.602909 80.09024 
L 114.414545 97.909479 
L 115.226182 81.208213 
L 115.632 81.208213 
L 116.037818 153.819265 
L 116.443636 88.971727 
L 116.849455 81.208213 
L 117.255273 81.208213 
L 117.661091 82.928823 
L 118.066909 80.729512 
L 118.472727 92.045628 
L 118.878545 76.707012 
L 119.284364 117.452001 
L 119.690182 81.208213 
L 120.096 86.115294 
L 120.501818 81.208213 
L 120.907636 126.192122 
L 121.313455 76.573051 
L 121.719273 81.208213 
L 122.125091 80.198749 
L 122.530909 118.896982 
L 122.936727 118.896982 
L 123.342545 119.873785 
L 123.748364 81.176404 
L 124.965818 81.208213 
L 125.371636 118.782573 
L 125.777455 81.208213 
L 126.183273 81.043689 
L 126.589091 94.410679 
L 126.994909 81.155089 
L 127.400727 159.64167 
L 127.806545 80.037143 
L 128.212364 111.78772 
L 128.618182 120.093456 
L 129.024 85.582373 
L 129.429818 88.802346 
L 129.835636 81.155089 
L 130.241455 81.208213 
L 131.053091 150.262891 
L 131.458909 74.398116 
L 131.864727 81.208213 
L 132.270545 81.208213 
L 132.676364 80.139573 
L 133.082182 91.469124 
L 133.488 81.208213 
L 133.893818 81.173622 
L 134.299636 118.896982 
L 134.705455 81.208213 
L 135.111273 77.845443 
L 135.517091 81.208213 
L 135.922909 81.257534 
L 136.328727 81.155089 
L 136.734545 78.815297 
L 137.140364 81.208213 
L 137.546182 81.208213 
L 137.952 81.043689 
L 138.357818 81.208213 
L 139.169455 75.972767 
L 139.575273 91.434018 
L 139.981091 89.202571 
L 140.386909 81.208213 
L 141.604364 81.208213 
L 142.010182 81.043689 
L 142.416 81.257534 
L 143.227636 81.155089 
L 143.633455 75.972767 
L 144.039273 81.260047 
L 144.445091 81.472851 
L 144.850909 84.607866 
L 145.256727 79.818907 
L 145.662545 89.202571 
L 146.068364 81.208213 
L 146.474182 82.602863 
L 146.88 81.155089 
L 147.691636 81.176404 
L 148.097455 76.089497 
L 148.503273 79.394711 
L 148.909091 76.688861 
L 149.314909 81.260047 
L 150.126545 81.208213 
L 150.938182 81.208213 
L 151.344 80.63978 
L 151.749818 71.7236 
L 152.155636 85.245977 
L 152.561455 84.960307 
L 152.967273 86.052446 
L 153.373091 81.208213 
L 153.778909 81.472851 
L 154.184727 92.015158 
L 154.590545 81.501045 
L 154.996364 81.208213 
L 156.213818 81.257534 
L 156.619636 75.972767 
L 157.025455 81.208213 
L 157.431273 81.208213 
L 158.242909 78.576617 
L 158.648727 75.197085 
L 159.054545 80.1534 
L 159.460364 87.121211 
L 159.866182 85.924168 
L 160.272 85.587207 
L 160.677818 78.815297 
L 161.083636 83.130585 
L 161.489455 81.208213 
L 161.895273 81.208213 
L 162.301091 86.968012 
L 162.706909 81.199839 
L 163.518545 81.208213 
L 163.924364 85.023759 
L 164.330182 91.662626 
L 164.736 82.51628 
L 165.141818 81.407789 
L 165.547636 81.208213 
L 165.953455 81.208213 
L 166.359273 80.614341 
L 166.765091 81.208213 
L 167.170909 81.208213 
L 167.576727 76.373871 
L 167.982545 77.32423 
L 168.388364 76.227435 
L 168.794182 85.587207 
L 169.2 75.641847 
L 169.605818 76.227435 
L 170.417455 86.348872 
L 170.823273 82.82922 
L 171.229091 83.292592 
L 171.634909 112.547848 
L 172.040727 84.288752 
L 172.446545 79.665631 
L 172.852364 111.948164 
L 173.258182 78.968712 
L 173.664 85.846403 
L 174.069818 81.208213 
L 174.475636 78.755948 
L 174.881455 91.898177 
L 175.287273 78.727266 
L 175.693091 72.961844 
L 176.098909 71.62218 
L 176.504727 73.115892 
L 177.316364 177.229411 
L 177.722182 81.383575 
L 178.128 158.856918 
L 178.533818 114.245268 
L 178.939636 102.97764 
L 179.345455 66.284832 
L 179.751273 167.32701 
L 180.157091 177.150306 
L 180.562909 160.24488 
L 180.968727 125.768436 
L 181.374545 129.455673 
L 182.186182 73.343687 
L 182.592 81.208213 
L 182.997818 143.206061 
L 183.403636 162.183336 
L 183.809455 134.15123 
L 184.215273 286.293562 
L 184.621091 103.962674 
L 185.026909 92.779101 
L 185.432727 90.412481 
L 185.838545 100.704387 
L 186.244364 97.389169 
L 186.650182 202.0667 
L 187.056 104.427318 
L 187.461818 178.024387 
L 187.867636 82.712808 
L 188.273455 102.258 
L 188.679273 90.292053 
L 189.085091 134.800162 
L 189.490909 88.014739 
L 189.896727 93.920195 
L 190.302545 107.543079 
L 190.708364 106.260251 
L 191.114182 89.222362 
L 191.52 117.680844 
L 191.925818 101.377707 
L 192.331636 91.270069 
L 192.737455 86.959503 
L 193.143273 106.156809 
L 193.549091 84.070295 
L 193.954909 103.957155 
L 194.360727 88.517406 
L 194.766545 164.507092 
L 195.172364 97.389169 
L 195.578182 94.703797 
L 196.389818 101.485478 
L 196.795636 89.675867 
L 197.201455 139.624618 
L 197.607273 105.633714 
L 198.013091 99.981395 
L 198.418909 89.465678 
L 198.824727 83.472976 
L 199.230545 119.897162 
L 199.636364 85.860599 
L 200.042182 104.010655 
L 200.448 88.981849 
L 201.259636 76.215107 
L 202.071273 104.861133 
L 202.477091 98.20429 
L 202.882909 82.807845 
L 203.288727 180.605149 
L 203.694545 82.942127 
L 204.100364 116.187385 
L 204.506182 113.874001 
L 204.912 102.400532 
L 205.317818 82.613859 
L 205.723636 91.623765 
L 206.129455 97.881909 
L 206.535273 119.068822 
L 207.346909 96.028137 
L 207.752727 102.852148 
L 208.158545 92.826805 
L 208.564364 91.587332 
L 208.970182 94.576082 
L 209.376 180.605149 
L 209.781818 109.365978 
L 210.187636 89.241473 
L 210.593455 121.537292 
L 210.999273 93.488976 
L 211.405091 89.893837 
L 211.810909 101.377707 
L 212.216727 82.794418 
L 212.622545 90.11963 
L 213.028364 91.847688 
L 213.434182 89.521588 
L 213.84 85.342803 
L 214.245818 234.510255 
L 214.651636 110.081997 
L 215.057455 89.766986 
L 215.463273 165.667615 
L 216.274909 85.117982 
L 216.680727 94.356863 
L 217.086545 89.031167 
L 217.492364 106.311656 
L 217.898182 184.95899 
L 218.304 147.560412 
L 218.709818 89.905416 
L 219.115636 94.041688 
L 219.521455 139.827578 
L 219.927273 89.715128 
L 220.333091 104.01781 
L 220.738909 175.186239 
L 221.144727 103.173693 
L 221.550545 93.920195 
L 221.956364 113.38334 
L 222.362182 94.939692 
L 222.768 115.37849 
L 223.173818 89.794734 
L 223.579636 94.041688 
L 223.985455 157.20262 
L 224.391273 181.883307 
L 224.797091 89.247039 
L 225.202909 100.814285 
L 225.608727 179.997846 
L 226.014545 98.738709 
L 226.420364 88.955032 
L 226.826182 90.174373 
L 227.232 180.605149 
L 227.637818 99.669979 
L 228.043636 102.327252 
L 228.449455 181.883307 
L 228.855273 82.965313 
L 229.261091 91.065104 
L 229.666909 90.324275 
L 230.072727 180.605149 
L 230.478545 92.157315 
L 230.884364 94.071114 
L 231.290182 101.39748 
L 231.696 90.174373 
L 232.101818 106.092643 
L 232.507636 101.535421 
L 232.913455 89.055786 
L 233.319273 135.039833 
L 233.725091 90.567893 
L 234.130909 91.10553 
L 234.536727 107.239877 
L 234.942545 97.385722 
L 235.348364 91.184331 
L 235.754182 81.704915 
L 236.16 89.59961 
L 236.565818 123.094702 
L 236.971636 84.707588 
L 237.377455 103.753266 
L 237.783273 101.79526 
L 238.189091 100.620092 
L 238.594909 89.031167 
L 239.000727 100.620092 
L 239.406545 90.162454 
L 239.812364 84.142084 
L 240.218182 104.057373 
L 240.624 90.081436 
L 241.029818 182.312316 
L 241.435636 90.505091 
L 241.841455 94.834206 
L 242.247273 147.102482 
L 242.653091 101.050056 
L 243.058909 94.665317 
L 243.464727 90.081436 
L 243.870545 81.208213 
L 244.276364 129.741553 
L 244.682182 90.205371 
L 245.088 106.065574 
L 245.493818 90.689474 
L 245.899636 135.039833 
L 246.305455 89.774163 
L 246.711273 94.585557 
L 247.117091 91.645337 
L 247.522909 98.568241 
L 247.928727 83.406277 
L 248.334545 84.536727 
L 248.740364 91.788814 
L 249.146182 114.824413 
L 249.552 208.228148 
L 249.957818 89.362458 
L 250.363636 173.044771 
L 250.769455 83.660814 
L 251.175273 143.083192 
L 251.581091 97.117513 
L 251.986909 81.907112 
L 252.798545 106.029159 
L 253.204364 113.175002 
L 253.610182 91.84281 
L 254.016 98.605381 
L 254.421818 89.817753 
L 254.827636 85.617925 
L 255.233455 92.275622 
L 256.045091 90.297085 
L 256.450909 90.449378 
L 256.856727 116.102428 
L 257.262545 179.634187 
L 257.668364 93.861879 
L 258.074182 88.956208 
L 258.48 180.605149 
L 258.885818 92.389702 
L 259.291636 98.794935 
L 259.697455 91.184331 
L 260.103273 90.412481 
L 260.509091 94.071114 
L 260.914909 89.794734 
L 261.320727 100.469052 
L 261.726545 120.17046 
L 262.132364 88.266435 
L 262.538182 90.171584 
L 262.944 165.773614 
L 263.349818 96.976177 
L 263.755636 91.110258 
L 264.161455 89.898694 
L 264.567273 150.282275 
L 264.973091 94.571024 
L 265.378909 95.470107 
L 265.784727 102.348221 
L 266.190545 76.258906 
L 266.596364 90.297085 
L 267.002182 88.981849 
L 267.408 94.041688 
L 267.813818 89.055786 
L 268.219636 90.449378 
L 269.031273 91.269679 
L 269.437091 93.3901 
L 269.842909 83.100506 
L 270.248727 127.403265 
L 270.654545 89.270842 
L 271.060364 88.955032 
L 271.466182 94.041688 
L 271.872 91.10553 
L 272.277818 90.808319 
L 272.683636 89.478808 
L 273.089455 107.448717 
L 273.495273 90.297085 
L 273.901091 91.10553 
L 274.306909 90.689474 
L 274.712727 98.568241 
L 275.118545 100.712635 
L 275.524364 90.171584 
L 275.930182 90.11963 
L 276.336 173.089316 
L 276.741818 104.317479 
L 277.147636 116.311384 
L 277.553455 90.449378 
L 277.959273 94.041688 
L 278.365091 89.270842 
L 278.770909 103.230092 
L 279.176727 89.905416 
L 279.582545 102.177447 
L 279.988364 94.410459 
L 280.394182 105.051358 
L 280.8 88.955032 
L 281.205818 99.715826 
L 281.611636 94.041688 
L 282.017455 98.00999 
L 282.423273 90.089037 
L 282.829091 92.389702 
L 283.234909 89.007323 
L 283.640727 98.00999 
L 284.046545 115.878975 
L 284.452364 110.910926 
L 284.858182 94.071114 
L 285.264 90.174373 
L 285.669818 90.089037 
L 286.075636 116.050449 
L 286.481455 94.410459 
L 286.887273 91.894712 
L 287.293091 94.991963 
L 287.698909 90.651545 
L 288.104727 91.587332 
L 288.510545 93.861879 
L 288.916364 89.270842 
L 289.322182 175.186239 
L 289.728 92.131858 
L 290.133818 88.981849 
L 290.539636 92.063025 
L 290.945455 179.634187 
L 291.351273 104.010655 
L 291.757091 90.11963 
L 292.162909 89.270842 
L 292.568727 99.901808 
L 292.974545 90.11963 
L 293.380364 113.880454 
L 293.786182 91.10553 
L 294.192 91.858695 
L 294.597818 89.031167 
L 295.003636 88.981849 
L 295.409455 90.292053 
L 295.815273 74.084562 
L 296.221091 89.478808 
L 296.626909 164.794843 
L 297.032727 94.236313 
L 297.438545 103.960359 
L 297.844364 90.449378 
L 298.250182 88.981849 
L 298.656 90.089037 
L 299.061818 120.333741 
L 299.467636 139.417015 
L 299.873455 89.465678 
L 300.279273 90.449378 
L 300.685091 86.005306 
L 301.090909 96.028137 
L 301.496727 89.247039 
L 301.902545 92.779101 
L 302.308364 89.055786 
L 302.714182 89.007323 
L 303.12 116.102428 
L 303.525818 89.905416 
L 303.931636 93.920195 
L 304.337455 93.571394 
L 304.743273 94.041688 
L 305.149091 175.186239 
L 305.554909 141.172295 
L 305.960727 90.11963 
L 306.366545 90.412481 
L 306.772364 84.546701 
L 307.178182 90.412481 
L 307.584 94.071114 
L 307.989818 94.410459 
L 308.395636 90.808319 
L 308.801455 100.712635 
L 309.207273 88.981849 
L 309.613091 94.174829 
L 310.018909 88.955032 
L 310.424727 93.571394 
L 310.830545 117.925354 
L 311.236364 180.605149 
L 311.642182 91.184331 
L 312.048 113.321941 
L 312.453818 93.571394 
L 312.859636 89.247039 
L 313.265455 89.471886 
L 313.671273 90.689474 
L 314.077091 98.632586 
L 314.482909 110.935346 
L 314.888727 89.055786 
L 315.294545 90.089037 
L 315.700364 88.981849 
L 316.106182 175.186239 
L 316.512 101.58588 
L 316.917818 94.071114 
L 317.323636 88.981849 
L 317.729455 89.055786 
L 318.135273 98.632586 
L 318.946909 88.955032 
L 319.352727 88.981849 
L 319.758545 146.807898 
L 320.570182 90.11963 
L 320.976 114.466221 
L 321.381818 89.247039 
L 321.787636 89.478808 
L 322.193455 93.571394 
L 322.599273 90.11963 
L 323.005091 93.920195 
L 323.410909 84.321143 
L 323.816727 89.055786 
L 324.222545 90.11963 
L 324.628364 93.783459 
L 325.034182 100.31246 
L 325.44 90.297085 
L 325.845818 90.11963 
L 326.657455 90.449378 
L 327.063273 83.856538 
L 327.469091 91.587332 
L 327.874909 90.297085 
L 328.686545 159.205037 
L 329.092364 100.368841 
L 329.498182 98.862494 
L 330.309818 159.863522 
L 330.715636 112.879681 
L 331.121455 144.390932 
L 331.527273 161.062133 
L 331.933091 191.941857 
L 332.338909 151.993905 
L 332.744727 193.999635 
L 333.150545 184.99792 
L 333.556364 164.027494 
L 333.962182 122.251544 
L 334.368 220.881631 
L 334.773818 141.50048 
L 335.179636 161.5512 
L 335.585455 258.873751 
L 335.991273 138.956028 
L 336.397091 131.116161 
L 336.802909 142.249321 
L 337.208727 162.722214 
L 337.614545 295.488 
L 338.020364 181.409581 
L 338.426182 106.710103 
L 338.832 197.676566 
L 339.237818 72.986511 
L 339.643636 218.557665 
L 340.049455 119.061282 
L 340.455273 198.669547 
L 340.861091 102.284947 
L 341.672727 272.317258 
L 342.078545 102.863266 
L 342.484364 191.73078 
L 342.890182 159.721838 
L 343.296 138.821146 
L 343.701818 246.139019 
L 344.107636 152.468388 
L 344.513455 129.556654 
L 344.919273 198.725405 
L 345.325091 132.605446 
L 345.730909 99.981395 
L 346.136727 183.841621 
L 346.542545 146.118785 
L 347.354182 106.710103 
L 347.76 103.616964 
L 348.165818 98.396737 
L 348.571636 204.353875 
L 348.977455 240.744773 
L 349.383273 196.76689 
L 349.789091 113.904357 
L 350.194909 123.189704 
L 350.600727 123.405686 
L 351.006545 159.721838 
L 351.412364 163.610383 
L 352.224 222.019223 
L 352.629818 157.060117 
L 353.035636 177.678684 
L 353.441455 209.917662 
L 353.847273 162.293225 
L 354.253091 91.860349 
L 354.658909 113.917614 
L 355.064727 104.72596 
L 355.470545 179.997846 
L 355.876364 101.079852 
L 356.282182 106.410915 
L 356.688 179.997846 
L 357.093818 93.035125 
L 357.499636 89.349416 
L 357.905455 96.053535 
L 357.905455 96.053535 
" clip-path="url(#pdec4004fdd)" style="fill: none; stroke: #7f7f7f; stroke-width: 1.5; stroke-linecap: square"/>
   </g>
   <g id="line2d_26">
    <path d="M 73.832727 81.120795 
L 74.238545 78.73138 
L 74.644364 77.940532 
L 75.050182 80.776794 
L 75.456 80.29783 
L 75.861818 62.064825 
L 76.267636 78.574352 
L 76.673455 80.804687 
L 77.079273 77.986424 
L 77.890909 76.072248 
L 78.296727 73.627029 
L 78.702545 75.230212 
L 79.108364 79.279885 
L 79.514182 64.323691 
L 79.92 53.568 
L 80.325818 80.804687 
L 80.731636 73.204851 
L 81.137455 79.66332 
L 81.543273 82.759475 
L 81.949091 108.942739 
L 82.760727 67.134197 
L 83.166545 82.365574 
L 83.572364 68.974037 
L 83.978182 76.548635 
L 84.384 123.228729 
L 84.789818 93.399423 
L 85.195636 79.148881 
L 85.601455 70.518615 
L 86.007273 70.693477 
L 86.413091 116.513971 
L 86.818909 81.914207 
L 87.224727 71.951778 
L 87.630545 69.889762 
L 88.036364 78.996501 
L 88.442182 79.947008 
L 88.848 110.514943 
L 89.253818 80.194508 
L 89.659636 81.208213 
L 90.065455 81.08944 
L 90.471273 80.587923 
L 90.877091 80.731322 
L 91.282909 73.991986 
L 91.688727 83.480009 
L 92.094545 81.208213 
L 92.500364 92.148164 
L 92.906182 81.052059 
L 93.312 78.520694 
L 93.717818 68.634057 
L 94.123636 92.662899 
L 94.529455 82.238976 
L 94.935273 81.208213 
L 95.341091 81.208213 
L 95.746909 91.576199 
L 96.152727 81.208213 
L 96.558545 80.32266 
L 96.964364 81.615504 
L 97.370182 81.208213 
L 98.181818 81.208213 
L 98.587636 77.510463 
L 98.993455 63.840037 
L 99.805091 81.208213 
L 100.210909 81.208213 
L 100.616727 79.231016 
L 101.022545 74.736552 
L 101.428364 74.787809 
L 101.834182 75.804 
L 102.24 78.503877 
L 102.645818 84.493125 
L 103.051636 97.86001 
L 103.457455 105.818936 
L 104.269091 81.208213 
L 104.674909 98.044482 
L 105.080727 81.615504 
L 105.486545 81.208213 
L 106.298182 81.208213 
L 106.704 85.893687 
L 107.109818 108.322144 
L 107.515636 221.684978 
L 107.921455 89.374757 
L 108.327273 165.230457 
L 108.733091 113.784947 
L 109.138909 96.060989 
L 109.544727 98.044482 
L 109.950545 119.39976 
L 110.356364 150.134011 
L 110.762182 85.076865 
L 111.168 88.957257 
L 111.573818 81.043689 
L 111.979636 98.044482 
L 112.385455 79.818907 
L 112.791273 99.266901 
L 113.197091 150.14555 
L 113.602909 80.09024 
L 114.414545 97.909479 
L 115.226182 81.208213 
L 115.632 81.208213 
L 116.037818 153.819265 
L 116.443636 88.971727 
L 116.849455 81.208213 
L 117.255273 81.208213 
L 117.661091 82.928823 
L 118.066909 80.729512 
L 118.472727 92.045628 
L 118.878545 76.707012 
L 119.284364 117.452001 
L 119.690182 81.208213 
L 120.096 86.115294 
L 120.501818 81.208213 
L 120.907636 126.192122 
L 121.313455 76.573051 
L 121.719273 81.208213 
L 122.125091 80.198749 
L 122.530909 118.896982 
L 122.936727 118.896982 
L 123.342545 119.873785 
L 123.748364 81.176404 
L 124.965818 81.208213 
L 125.371636 118.782573 
L 125.777455 81.208213 
L 126.183273 81.043689 
L 126.589091 94.410679 
L 126.994909 81.155089 
L 127.400727 159.64167 
L 127.806545 80.037143 
L 128.212364 111.78772 
L 128.618182 120.093456 
L 129.024 85.582373 
L 129.429818 88.802346 
L 129.835636 81.155089 
L 130.241455 81.208213 
L 131.053091 150.262891 
L 131.458909 74.398116 
L 131.864727 81.208213 
L 132.270545 81.208213 
L 132.676364 80.139573 
L 133.082182 91.469124 
L 133.488 81.208213 
L 133.893818 81.173622 
L 134.299636 118.896982 
L 134.705455 81.208213 
L 135.111273 77.845443 
L 135.517091 81.208213 
L 135.922909 81.257534 
L 136.328727 81.155089 
L 136.734545 78.815297 
L 137.140364 81.208213 
L 137.546182 81.208213 
L 137.952 81.043689 
L 138.357818 81.208213 
L 139.169455 75.972767 
L 139.575273 91.434018 
L 139.981091 89.202571 
L 140.386909 81.208213 
L 141.604364 81.208213 
L 142.010182 81.043689 
L 142.416 81.257534 
L 143.227636 81.155089 
L 143.633455 75.972767 
L 144.039273 81.260047 
L 144.445091 81.472851 
L 144.850909 84.607866 
L 145.256727 79.818907 
L 145.662545 89.202571 
L 146.068364 81.208213 
L 146.474182 82.602863 
L 146.88 81.155089 
L 147.691636 81.176404 
L 148.097455 76.089497 
L 148.503273 79.394711 
L 148.909091 76.688861 
L 149.314909 81.260047 
L 150.126545 81.208213 
L 150.938182 81.208213 
L 151.344 80.63978 
L 151.749818 71.7236 
L 152.155636 85.245977 
L 152.561455 84.960307 
L 152.967273 86.052446 
L 153.373091 81.208213 
L 153.778909 81.472851 
L 154.184727 92.015158 
L 154.590545 81.501045 
L 154.996364 81.208213 
L 156.213818 81.257534 
L 156.619636 75.972767 
L 157.025455 81.208213 
L 157.431273 81.208213 
L 158.242909 78.576617 
L 158.648727 75.197085 
L 159.054545 80.1534 
L 159.460364 87.121211 
L 159.866182 85.924168 
L 160.272 85.587207 
L 160.677818 78.815297 
L 161.083636 83.130585 
L 161.489455 81.208213 
L 161.895273 81.208213 
L 162.301091 86.968012 
L 162.706909 81.199839 
L 163.518545 81.208213 
L 163.924364 85.023759 
L 164.330182 91.662626 
L 164.736 82.51628 
L 165.141818 81.407789 
L 165.547636 81.208213 
L 165.953455 81.208213 
L 166.359273 80.614341 
L 166.765091 81.208213 
L 167.170909 81.208213 
L 167.576727 76.373871 
L 167.982545 77.32423 
L 168.388364 76.227435 
L 168.794182 85.587207 
L 169.2 75.641847 
L 169.605818 76.227435 
L 170.417455 86.348872 
L 170.823273 82.82922 
L 171.229091 83.292592 
L 171.634909 112.547848 
L 172.040727 84.288752 
L 172.446545 79.665631 
L 172.852364 111.948164 
L 173.258182 78.968712 
L 173.664 85.846403 
L 174.069818 81.208213 
L 174.475636 78.755948 
L 174.881455 91.898177 
L 175.287273 78.727266 
L 175.693091 72.961844 
L 176.098909 71.62218 
L 176.504727 73.115892 
L 177.316364 177.229411 
L 177.722182 81.383575 
L 178.128 158.856918 
L 178.533818 114.245268 
L 178.939636 102.97764 
L 179.345455 66.284832 
L 179.751273 167.32701 
L 180.157091 177.150306 
L 180.562909 160.24488 
L 180.968727 125.768436 
L 181.374545 129.455673 
L 182.186182 73.343687 
L 182.592 81.208213 
L 182.997818 143.206061 
L 183.403636 162.183336 
L 183.809455 134.15123 
L 184.215273 286.293562 
L 184.621091 103.962674 
L 185.026909 92.779101 
L 185.432727 90.412481 
L 185.838545 100.704387 
L 186.244364 97.389169 
L 186.650182 202.0667 
L 187.056 104.427318 
L 187.461818 178.024387 
L 187.867636 82.712808 
L 188.273455 102.258 
L 188.679273 90.292053 
L 189.085091 134.800162 
L 189.490909 88.014739 
L 189.896727 93.920195 
L 190.302545 107.543079 
L 190.708364 106.260251 
L 191.114182 89.222362 
L 191.52 117.680844 
L 191.925818 101.377707 
L 192.331636 91.270069 
L 192.737455 86.959503 
L 193.143273 106.156809 
L 193.549091 84.070295 
L 193.954909 103.957155 
L 194.360727 88.517406 
L 194.766545 164.507092 
L 195.172364 97.389169 
L 195.578182 94.703797 
L 196.389818 101.485478 
L 196.795636 89.675867 
L 197.201455 139.624618 
L 197.607273 105.633714 
L 198.013091 99.981395 
L 198.418909 89.465678 
L 198.824727 83.472976 
L 199.230545 119.897162 
L 199.636364 85.860599 
L 200.042182 104.010655 
L 200.448 88.981849 
L 201.259636 76.215107 
L 202.071273 104.861133 
L 202.477091 98.20429 
L 202.882909 82.807845 
L 203.288727 180.605149 
L 203.694545 82.942127 
L 204.100364 116.187385 
L 204.506182 113.874001 
L 204.912 102.400532 
L 205.317818 82.613859 
L 205.723636 91.623765 
L 206.129455 97.881909 
L 206.535273 119.068822 
L 207.346909 96.028137 
L 207.752727 102.852148 
L 208.158545 92.826805 
L 208.564364 91.587332 
L 208.970182 94.576082 
L 209.376 180.605149 
L 209.781818 109.365978 
L 210.187636 89.241473 
L 210.593455 121.537292 
L 210.999273 93.488976 
L 211.405091 89.893837 
L 211.810909 101.377707 
L 212.216727 82.794418 
L 212.622545 90.11963 
L 213.028364 91.847688 
L 213.434182 89.521588 
L 213.84 85.342803 
L 214.245818 234.510255 
L 214.651636 110.081997 
L 215.057455 89.766986 
L 215.463273 165.667615 
L 216.274909 85.117982 
L 216.680727 94.356863 
L 217.086545 89.031167 
L 217.492364 106.311656 
L 217.898182 184.95899 
L 218.304 147.560412 
L 218.709818 89.905416 
L 219.115636 94.041688 
L 219.521455 139.827578 
L 219.927273 89.715128 
L 220.333091 104.01781 
L 220.738909 175.186239 
L 221.144727 103.173693 
L 221.550545 93.920195 
L 221.956364 113.38334 
L 222.362182 94.939692 
L 222.768 115.37849 
L 223.173818 89.794734 
L 223.579636 94.041688 
L 223.985455 157.20262 
L 224.391273 181.883307 
L 224.797091 89.247039 
L 225.202909 100.814285 
L 225.608727 179.997846 
L 226.014545 98.738709 
L 226.420364 88.955032 
L 226.826182 90.174373 
L 227.232 180.605149 
L 227.637818 99.669979 
L 228.043636 102.327252 
L 228.449455 181.883307 
L 228.855273 82.965313 
L 229.261091 91.065104 
L 229.666909 90.324275 
L 230.072727 180.605149 
L 230.478545 92.157315 
L 230.884364 94.071114 
L 231.290182 101.39748 
L 231.696 90.174373 
L 232.101818 106.092643 
L 232.507636 101.535421 
L 232.913455 89.055786 
L 233.319273 135.039833 
L 233.725091 90.567893 
L 234.130909 91.10553 
L 234.536727 107.239877 
L 234.942545 97.385722 
L 235.348364 91.184331 
L 235.754182 81.704915 
L 236.16 89.59961 
L 236.565818 123.094702 
L 236.971636 84.707588 
L 237.377455 103.753266 
L 237.783273 101.79526 
L 238.189091 100.620092 
L 238.594909 89.031167 
L 239.000727 100.620092 
L 239.406545 90.162454 
L 239.812364 84.142084 
L 240.218182 104.057373 
L 240.624 90.081436 
L 241.029818 182.312316 
L 241.435636 90.505091 
L 241.841455 94.834206 
L 242.247273 147.102482 
L 242.653091 101.050056 
L 243.058909 94.665317 
L 243.464727 90.081436 
L 243.870545 81.208213 
L 244.276364 129.741553 
L 244.682182 90.205371 
L 245.088 106.065574 
L 245.493818 90.689474 
L 245.899636 135.039833 
L 246.305455 89.774163 
L 246.711273 94.585557 
L 247.117091 91.645337 
L 247.522909 98.568241 
L 247.928727 83.406277 
L 248.334545 84.536727 
L 248.740364 91.788814 
L 249.146182 114.824413 
L 249.552 208.228148 
L 249.957818 89.362458 
L 250.363636 173.044771 
L 250.769455 83.660814 
L 251.175273 143.083192 
L 251.581091 97.117513 
L 251.986909 81.907112 
L 252.798545 106.029159 
L 253.204364 113.175002 
L 253.610182 91.84281 
L 254.016 98.605381 
L 254.421818 89.817753 
L 254.827636 85.617925 
L 255.233455 92.275622 
L 256.045091 90.297085 
L 256.450909 90.449378 
L 256.856727 116.102428 
L 257.262545 179.634187 
L 257.668364 93.861879 
L 258.074182 88.956208 
L 258.48 180.605149 
L 258.885818 92.389702 
L 259.291636 98.794935 
L 259.697455 91.184331 
L 260.103273 90.412481 
L 260.509091 94.071114 
L 260.914909 89.794734 
L 261.320727 100.469052 
L 261.726545 120.17046 
L 262.132364 88.266435 
L 262.538182 90.171584 
L 262.944 165.773614 
L 263.349818 96.976177 
L 263.755636 91.110258 
L 264.161455 89.898694 
L 264.567273 150.282275 
L 264.973091 94.571024 
L 265.378909 95.470107 
L 265.784727 102.348221 
L 266.190545 76.258906 
L 266.596364 90.297085 
L 267.002182 88.981849 
L 267.408 94.041688 
L 267.813818 89.055786 
L 268.219636 90.449378 
L 269.031273 91.269679 
L 269.437091 93.3901 
L 269.842909 83.100506 
L 270.248727 127.403265 
L 270.654545 89.270842 
L 271.060364 88.955032 
L 271.466182 94.041688 
L 271.872 91.10553 
L 272.277818 90.808319 
L 272.683636 89.478808 
L 273.089455 107.448717 
L 273.495273 90.297085 
L 273.901091 91.10553 
L 274.306909 90.689474 
L 274.712727 98.568241 
L 275.118545 100.712635 
L 275.524364 90.171584 
L 275.930182 90.11963 
L 276.336 173.089316 
L 276.741818 104.317479 
L 277.147636 116.311384 
L 277.553455 90.449378 
L 277.959273 94.041688 
L 278.365091 89.270842 
L 278.770909 103.230092 
L 279.176727 89.905416 
L 279.582545 102.177447 
L 279.988364 94.410459 
L 280.394182 105.051358 
L 280.8 88.955032 
L 281.205818 99.715826 
L 281.611636 94.041688 
L 282.017455 98.00999 
L 282.423273 90.089037 
L 282.829091 92.389702 
L 283.234909 89.007323 
L 283.640727 98.00999 
L 284.046545 115.878975 
L 284.452364 110.910926 
L 284.858182 94.071114 
L 285.264 90.174373 
L 285.669818 90.089037 
L 286.075636 116.050449 
L 286.481455 94.410459 
L 286.887273 91.894712 
L 287.293091 94.991963 
L 287.698909 90.651545 
L 288.104727 91.587332 
L 288.510545 93.861879 
L 288.916364 89.270842 
L 289.322182 175.186239 
L 289.728 92.131858 
L 290.133818 88.981849 
L 290.539636 92.063025 
L 290.945455 179.634187 
L 291.351273 104.010655 
L 291.757091 90.11963 
L 292.162909 89.270842 
L 292.568727 99.901808 
L 292.974545 90.11963 
L 293.380364 113.880454 
L 293.786182 91.10553 
L 294.192 91.858695 
L 294.597818 89.031167 
L 295.003636 88.981849 
L 295.409455 90.292053 
L 295.815273 74.084562 
L 296.221091 89.478808 
L 296.626909 164.794843 
L 297.032727 94.236313 
L 297.438545 103.960359 
L 297.844364 90.449378 
L 298.250182 88.981849 
L 298.656 90.089037 
L 299.061818 120.333741 
L 299.467636 139.417015 
L 299.873455 89.465678 
L 300.279273 90.449378 
L 300.685091 86.005306 
L 301.090909 96.028137 
L 301.496727 89.247039 
L 301.902545 92.779101 
L 302.308364 89.055786 
L 302.714182 89.007323 
L 303.12 116.102428 
L 303.525818 89.905416 
L 303.931636 93.920195 
L 304.337455 93.571394 
L 304.743273 94.041688 
L 305.149091 175.186239 
L 305.554909 141.172295 
L 305.960727 90.11963 
L 306.366545 90.412481 
L 306.772364 84.546701 
L 307.178182 90.412481 
L 307.584 94.071114 
L 307.989818 94.410459 
L 308.395636 90.808319 
L 308.801455 100.712635 
L 309.207273 88.981849 
L 309.613091 94.174829 
L 310.018909 88.955032 
L 310.424727 93.571394 
L 310.830545 117.925354 
L 311.236364 180.605149 
L 311.642182 91.184331 
L 312.048 113.321941 
L 312.453818 93.571394 
L 312.859636 89.247039 
L 313.265455 89.471886 
L 313.671273 90.689474 
L 314.077091 98.632586 
L 314.482909 110.935346 
L 314.888727 89.055786 
L 315.294545 90.089037 
L 315.700364 88.981849 
L 316.106182 175.186239 
L 316.512 101.58588 
L 316.917818 94.071114 
L 317.323636 88.981849 
L 317.729455 89.055786 
L 318.135273 98.632586 
L 318.946909 88.955032 
L 319.352727 88.981849 
L 319.758545 146.807898 
L 320.570182 90.11963 
L 320.976 114.466221 
L 321.381818 89.247039 
L 321.787636 89.478808 
L 322.193455 93.571394 
L 322.599273 90.11963 
L 323.005091 93.920195 
L 323.410909 84.321143 
L 323.816727 89.055786 
L 324.222545 90.11963 
L 324.628364 93.783459 
L 325.034182 100.31246 
L 325.44 90.297085 
L 325.845818 90.11963 
L 326.657455 90.449378 
L 327.063273 83.856538 
L 327.469091 91.587332 
L 327.874909 90.297085 
L 328.686545 159.205037 
L 329.092364 100.368841 
L 329.498182 98.862494 
L 330.309818 159.863522 
L 330.715636 112.879681 
L 331.121455 144.390932 
L 331.527273 161.062133 
L 331.933091 191.941857 
L 332.338909 151.993905 
L 332.744727 193.999635 
L 333.150545 184.99792 
L 333.556364 164.027494 
L 333.962182 122.251544 
L 334.368 220.881631 
L 334.773818 141.50048 
L 335.179636 161.5512 
L 335.585455 258.873751 
L 335.991273 138.956028 
L 336.397091 131.116161 
L 336.802909 142.249321 
L 337.208727 162.722214 
L 337.614545 295.488 
L 338.020364 181.409581 
L 338.426182 106.710103 
L 338.832 197.676566 
L 339.237818 72.986511 
L 339.643636 218.557665 
L 340.049455 119.061282 
L 340.455273 198.669547 
L 340.861091 102.284947 
L 341.672727 272.317258 
L 342.078545 102.863266 
L 342.484364 191.73078 
L 342.890182 159.721838 
L 343.296 138.821146 
L 343.701818 246.139019 
L 344.107636 152.468388 
L 344.513455 129.556654 
L 344.919273 198.725405 
L 345.325091 132.605446 
L 345.730909 99.981395 
L 346.136727 183.841621 
L 346.542545 146.118785 
L 347.354182 106.710103 
L 347.76 103.616964 
L 348.165818 98.396737 
L 348.571636 204.353875 
L 348.977455 240.744773 
L 349.383273 196.76689 
L 349.789091 113.904357 
L 350.194909 123.189704 
L 350.600727 123.405686 
L 351.006545 159.721838 
L 351.412364 163.610383 
L 352.224 222.019223 
L 352.629818 157.060117 
L 353.035636 177.678684 
L 353.441455 209.917662 
L 353.847273 162.293225 
L 354.253091 91.860349 
L 354.658909 113.917614 
L 355.064727 104.72596 
L 355.470545 179.997846 
L 355.876364 101.079852 
L 356.282182 106.410915 
L 356.688 179.997846 
L 357.093818 93.035125 
L 357.499636 89.349416 
L 357.905455 96.053535 
L 358.311273 132.605446 
L 358.717091 94.124366 
L 359.122909 179.246937 
L 359.528727 98.00999 
L 359.934545 134.690296 
L 360.340364 109.131546 
L 360.746182 163.403001 
L 361.152 101.90068 
L 361.557818 160.271572 
L 361.963636 162.362416 
L 362.369455 123.327213 
L 362.775273 72.735247 
L 363.181091 99.901808 
L 363.586909 99.288917 
L 363.992727 88.956208 
L 364.398545 133.638568 
L 364.804364 99.907855 
L 365.210182 179.997846 
L 365.616 105.86256 
L 366.021818 185.786837 
L 366.427636 116.086277 
L 366.833455 116.102428 
L 367.239273 136.857472 
L 367.645091 116.102428 
L 368.050909 145.165489 
L 368.862545 180.605149 
L 369.268364 167.237387 
L 370.08 131.224362 
L 370.485818 98.632586 
L 370.891636 101.485478 
L 371.297455 190.102183 
L 371.703273 181.648087 
L 372.109091 151.043833 
L 372.514909 97.500399 
L 372.920727 161.669585 
L 373.326545 177.417623 
L 373.732364 92.389702 
L 374.138182 220.830607 
L 374.544 99.744917 
L 374.949818 180.605149 
L 375.355636 98.44347 
L 375.761455 130.910844 
L 376.167273 132.605446 
L 376.978909 198.3993 
L 377.384727 167.960519 
L 377.790545 162.362416 
L 378.196364 292.168953 
L 378.602182 144.6705 
L 379.008 166.208244 
L 379.413818 275.291362 
L 379.819636 192.433512 
L 380.225455 197.177239 
L 380.631273 220.076276 
L 381.037091 99.085662 
L 381.442909 197.604862 
L 381.848727 157.62414 
L 382.254545 159.509113 
L 382.660364 210.725702 
L 383.066182 241.246094 
L 383.472 214.315544 
L 383.877818 223.86006 
L 384.283636 213.134851 
L 384.689455 242.750253 
L 385.095273 98.515442 
L 385.501091 141.795781 
L 385.906909 211.594007 
L 386.312727 250.932773 
L 386.718545 203.552528 
L 387.124364 210.607169 
L 387.530182 183.841621 
L 387.936 201.655636 
L 388.341818 99.040903 
L 388.747636 117.959006 
L 389.153455 185.438164 
L 389.559273 114.82543 
L 389.965091 193.712419 
L 390.370909 184.473537 
L 390.776727 152.131861 
L 391.182545 179.011761 
L 391.588364 181.337086 
L 391.994182 176.741515 
L 392.4 69.694733 
L 392.805818 104.436472 
L 393.211636 112.342567 
L 393.617455 107.427714 
L 394.023273 201.881288 
L 394.429091 203.46019 
L 394.834909 210.325417 
L 395.240727 180.605149 
L 395.646545 185.338456 
L 396.052364 99.901808 
L 396.458182 217.148281 
L 396.864 177.678684 
L 397.269818 97.525675 
L 397.675636 180.605149 
L 398.081455 201.532307 
L 398.487273 179.634187 
L 398.487273 179.634187 
" clip-path="url(#pdec4004fdd)" style="fill: none; stroke: #bcbd22; stroke-width: 1.5; stroke-linecap: square"/>
   </g>
   <g id="patch_3">
    <path d="M 57.6 307.584 
L 57.6 41.472 
" style="fill: none; stroke: #000000; stroke-width: 0.8; stroke-linejoin: miter; stroke-linecap: square"/>
   </g>
   <g id="patch_4">
    <path d="M 414.72 307.584 
L 414.72 41.472 
" style="fill: none; stroke: #000000; stroke-width: 0.8; stroke-linejoin: miter; stroke-linecap: square"/>
   </g>
   <g id="patch_5">
    <path d="M 57.6 307.584 
L 414.72 307.584 
" style="fill: none; stroke: #000000; stroke-width: 0.8; stroke-linejoin: miter; stroke-linecap: square"/>
   </g>
   <g id="patch_6">
    <path d="M 57.6 41.472 
L 414.72 41.472 
" style="fill: none; stroke: #000000; stroke-width: 0.8; stroke-linejoin: miter; stroke-linecap: square"/>
   </g>
  </g>
 </g>
 <defs>
  <clipPath id="pdec4004fdd">
   <rect x="57.6" y="41.472" width="357.12" height="266.112"/>
  </clipPath>
 </defs>
</svg>
