<?xml version="1.0" encoding="utf-8" standalone="no"?>
<!DOCTYPE svg PUBLIC "-//W3C//DTD SVG 1.1//EN"
  "http://www.w3.org/Graphics/SVG/1.1/DTD/svg11.dtd">
<svg xmlns:xlink="http://www.w3.org/1999/xlink" width="460.8pt" height="345.6pt" viewBox="0 0 460.8 345.6" xmlns="http://www.w3.org/2000/svg" version="1.1">
 <metadata>
  <rdf:RDF xmlns:dc="http://purl.org/dc/elements/1.1/" xmlns:cc="http://creativecommons.org/ns#" xmlns:rdf="http://www.w3.org/1999/02/22-rdf-syntax-ns#">
   <cc:Work>
    <dc:type rdf:resource="http://purl.org/dc/dcmitype/StillImage"/>
    <dc:date>2024-04-28T15:26:22.427900</dc:date>
    <dc:format>image/svg+xml</dc:format>
    <dc:creator>
     <cc:Agent>
      <dc:title>Matplotlib v3.8.2, https://matplotlib.org/</dc:title>
     </cc:Agent>
    </dc:creator>
   </cc:Work>
  </rdf:RDF>
 </metadata>
 <defs>
  <style type="text/css">*{stroke-linejoin: round; stroke-linecap: butt}</style>
 </defs>
 <g id="figure_1">
  <g id="patch_1">
   <path d="M 0 345.6 
L 460.8 345.6 
L 460.8 0 
L 0 0 
z
" style="fill: #ffffff"/>
  </g>
  <g id="axes_1">
   <g id="patch_2">
    <path d="M 57.6 307.584 
L 414.72 307.584 
L 414.72 41.472 
L 57.6 41.472 
z
" style="fill: #ffffff"/>
   </g>
   <g id="matplotlib.axis_1">
    <g id="xtick_1">
     <g id="line2d_1">
      <defs>
       <path id="m878505d79f" d="M 0 0 
L 0 3.5 
" style="stroke: #000000; stroke-width: 0.8"/>
      </defs>
      <g>
       <use xlink:href="#m878505d79f" x="73.832727" y="307.584" style="stroke: #000000; stroke-width: 0.8"/>
      </g>
     </g>
     <g id="text_1">
      <!-- 0 -->
      <g transform="translate(70.651477 322.182437) scale(0.1 -0.1)">
       <defs>
        <path id="DejaVuSans-30" d="M 2034 4250 
Q 1547 4250 1301 3770 
Q 1056 3291 1056 2328 
Q 1056 1369 1301 889 
Q 1547 409 2034 409 
Q 2525 409 2770 889 
Q 3016 1369 3016 2328 
Q 3016 3291 2770 3770 
Q 2525 4250 2034 4250 
z
M 2034 4750 
Q 2819 4750 3233 4129 
Q 3647 3509 3647 2328 
Q 3647 1150 3233 529 
Q 2819 -91 2034 -91 
Q 1250 -91 836 529 
Q 422 1150 422 2328 
Q 422 3509 836 4129 
Q 1250 4750 2034 4750 
z
" transform="scale(0.015625)"/>
       </defs>
       <use xlink:href="#DejaVuSans-30"/>
      </g>
     </g>
    </g>
    <g id="xtick_2">
     <g id="line2d_2">
      <g>
       <use xlink:href="#m878505d79f" x="138.763636" y="307.584" style="stroke: #000000; stroke-width: 0.8"/>
      </g>
     </g>
     <g id="text_2">
      <!-- 100 -->
      <g transform="translate(129.219886 322.182437) scale(0.1 -0.1)">
       <defs>
        <path id="DejaVuSans-31" d="M 794 531 
L 1825 531 
L 1825 4091 
L 703 3866 
L 703 4441 
L 1819 4666 
L 2450 4666 
L 2450 531 
L 3481 531 
L 3481 0 
L 794 0 
L 794 531 
z
" transform="scale(0.015625)"/>
       </defs>
       <use xlink:href="#DejaVuSans-31"/>
       <use xlink:href="#DejaVuSans-30" x="63.623047"/>
       <use xlink:href="#DejaVuSans-30" x="127.246094"/>
      </g>
     </g>
    </g>
    <g id="xtick_3">
     <g id="line2d_3">
      <g>
       <use xlink:href="#m878505d79f" x="203.694545" y="307.584" style="stroke: #000000; stroke-width: 0.8"/>
      </g>
     </g>
     <g id="text_3">
      <!-- 200 -->
      <g transform="translate(194.150795 322.182437) scale(0.1 -0.1)">
       <defs>
        <path id="DejaVuSans-32" d="M 1228 531 
L 3431 531 
L 3431 0 
L 469 0 
L 469 531 
Q 828 903 1448 1529 
Q 2069 2156 2228 2338 
Q 2531 2678 2651 2914 
Q 2772 3150 2772 3378 
Q 2772 3750 2511 3984 
Q 2250 4219 1831 4219 
Q 1534 4219 1204 4116 
Q 875 4013 500 3803 
L 500 4441 
Q 881 4594 1212 4672 
Q 1544 4750 1819 4750 
Q 2544 4750 2975 4387 
Q 3406 4025 3406 3419 
Q 3406 3131 3298 2873 
Q 3191 2616 2906 2266 
Q 2828 2175 2409 1742 
Q 1991 1309 1228 531 
z
" transform="scale(0.015625)"/>
       </defs>
       <use xlink:href="#DejaVuSans-32"/>
       <use xlink:href="#DejaVuSans-30" x="63.623047"/>
       <use xlink:href="#DejaVuSans-30" x="127.246094"/>
      </g>
     </g>
    </g>
    <g id="xtick_4">
     <g id="line2d_4">
      <g>
       <use xlink:href="#m878505d79f" x="268.625455" y="307.584" style="stroke: #000000; stroke-width: 0.8"/>
      </g>
     </g>
     <g id="text_4">
      <!-- 300 -->
      <g transform="translate(259.081705 322.182437) scale(0.1 -0.1)">
       <defs>
        <path id="DejaVuSans-33" d="M 2597 2516 
Q 3050 2419 3304 2112 
Q 3559 1806 3559 1356 
Q 3559 666 3084 287 
Q 2609 -91 1734 -91 
Q 1441 -91 1130 -33 
Q 819 25 488 141 
L 488 750 
Q 750 597 1062 519 
Q 1375 441 1716 441 
Q 2309 441 2620 675 
Q 2931 909 2931 1356 
Q 2931 1769 2642 2001 
Q 2353 2234 1838 2234 
L 1294 2234 
L 1294 2753 
L 1863 2753 
Q 2328 2753 2575 2939 
Q 2822 3125 2822 3475 
Q 2822 3834 2567 4026 
Q 2313 4219 1838 4219 
Q 1578 4219 1281 4162 
Q 984 4106 628 3988 
L 628 4550 
Q 988 4650 1302 4700 
Q 1616 4750 1894 4750 
Q 2613 4750 3031 4423 
Q 3450 4097 3450 3541 
Q 3450 3153 3228 2886 
Q 3006 2619 2597 2516 
z
" transform="scale(0.015625)"/>
       </defs>
       <use xlink:href="#DejaVuSans-33"/>
       <use xlink:href="#DejaVuSans-30" x="63.623047"/>
       <use xlink:href="#DejaVuSans-30" x="127.246094"/>
      </g>
     </g>
    </g>
    <g id="xtick_5">
     <g id="line2d_5">
      <g>
       <use xlink:href="#m878505d79f" x="333.556364" y="307.584" style="stroke: #000000; stroke-width: 0.8"/>
      </g>
     </g>
     <g id="text_5">
      <!-- 400 -->
      <g transform="translate(324.012614 322.182437) scale(0.1 -0.1)">
       <defs>
        <path id="DejaVuSans-34" d="M 2419 4116 
L 825 1625 
L 2419 1625 
L 2419 4116 
z
M 2253 4666 
L 3047 4666 
L 3047 1625 
L 3713 1625 
L 3713 1100 
L 3047 1100 
L 3047 0 
L 2419 0 
L 2419 1100 
L 313 1100 
L 313 1709 
L 2253 4666 
z
" transform="scale(0.015625)"/>
       </defs>
       <use xlink:href="#DejaVuSans-34"/>
       <use xlink:href="#DejaVuSans-30" x="63.623047"/>
       <use xlink:href="#DejaVuSans-30" x="127.246094"/>
      </g>
     </g>
    </g>
    <g id="xtick_6">
     <g id="line2d_6">
      <g>
       <use xlink:href="#m878505d79f" x="398.487273" y="307.584" style="stroke: #000000; stroke-width: 0.8"/>
      </g>
     </g>
     <g id="text_6">
      <!-- 500 -->
      <g transform="translate(388.943523 322.182437) scale(0.1 -0.1)">
       <defs>
        <path id="DejaVuSans-35" d="M 691 4666 
L 3169 4666 
L 3169 4134 
L 1269 4134 
L 1269 2991 
Q 1406 3038 1543 3061 
Q 1681 3084 1819 3084 
Q 2600 3084 3056 2656 
Q 3513 2228 3513 1497 
Q 3513 744 3044 326 
Q 2575 -91 1722 -91 
Q 1428 -91 1123 -41 
Q 819 9 494 109 
L 494 744 
Q 775 591 1075 516 
Q 1375 441 1709 441 
Q 2250 441 2565 725 
Q 2881 1009 2881 1497 
Q 2881 1984 2565 2268 
Q 2250 2553 1709 2553 
Q 1456 2553 1204 2497 
Q 953 2441 691 2322 
L 691 4666 
z
" transform="scale(0.015625)"/>
       </defs>
       <use xlink:href="#DejaVuSans-35"/>
       <use xlink:href="#DejaVuSans-30" x="63.623047"/>
       <use xlink:href="#DejaVuSans-30" x="127.246094"/>
      </g>
     </g>
    </g>
   </g>
   <g id="matplotlib.axis_2">
    <g id="ytick_1">
     <g id="line2d_7">
      <defs>
       <path id="mf9b354636c" d="M 0 0 
L -3.5 0 
" style="stroke: #000000; stroke-width: 0.8"/>
      </defs>
      <g>
       <use xlink:href="#mf9b354636c" x="57.6" y="284.031785" style="stroke: #000000; stroke-width: 0.8"/>
      </g>
     </g>
     <g id="text_7">
      <!-- −150 -->
      <g transform="translate(23.132812 287.831003) scale(0.1 -0.1)">
       <defs>
        <path id="DejaVuSans-2212" d="M 678 2272 
L 4684 2272 
L 4684 1741 
L 678 1741 
L 678 2272 
z
" transform="scale(0.015625)"/>
       </defs>
       <use xlink:href="#DejaVuSans-2212"/>
       <use xlink:href="#DejaVuSans-31" x="83.789062"/>
       <use xlink:href="#DejaVuSans-35" x="147.412109"/>
       <use xlink:href="#DejaVuSans-30" x="211.035156"/>
      </g>
     </g>
    </g>
    <g id="ytick_2">
     <g id="line2d_8">
      <g>
       <use xlink:href="#mf9b354636c" x="57.6" y="250.409856" style="stroke: #000000; stroke-width: 0.8"/>
      </g>
     </g>
     <g id="text_8">
      <!-- −125 -->
      <g transform="translate(23.132812 254.209075) scale(0.1 -0.1)">
       <use xlink:href="#DejaVuSans-2212"/>
       <use xlink:href="#DejaVuSans-31" x="83.789062"/>
       <use xlink:href="#DejaVuSans-32" x="147.412109"/>
       <use xlink:href="#DejaVuSans-35" x="211.035156"/>
      </g>
     </g>
    </g>
    <g id="ytick_3">
     <g id="line2d_9">
      <g>
       <use xlink:href="#mf9b354636c" x="57.6" y="216.787927" style="stroke: #000000; stroke-width: 0.8"/>
      </g>
     </g>
     <g id="text_9">
      <!-- −100 -->
      <g transform="translate(23.132812 220.587146) scale(0.1 -0.1)">
       <use xlink:href="#DejaVuSans-2212"/>
       <use xlink:href="#DejaVuSans-31" x="83.789062"/>
       <use xlink:href="#DejaVuSans-30" x="147.412109"/>
       <use xlink:href="#DejaVuSans-30" x="211.035156"/>
      </g>
     </g>
    </g>
    <g id="ytick_4">
     <g id="line2d_10">
      <g>
       <use xlink:href="#mf9b354636c" x="57.6" y="183.165998" style="stroke: #000000; stroke-width: 0.8"/>
      </g>
     </g>
     <g id="text_10">
      <!-- −75 -->
      <g transform="translate(29.495313 186.965217) scale(0.1 -0.1)">
       <defs>
        <path id="DejaVuSans-37" d="M 525 4666 
L 3525 4666 
L 3525 4397 
L 1831 0 
L 1172 0 
L 2766 4134 
L 525 4134 
L 525 4666 
z
" transform="scale(0.015625)"/>
       </defs>
       <use xlink:href="#DejaVuSans-2212"/>
       <use xlink:href="#DejaVuSans-37" x="83.789062"/>
       <use xlink:href="#DejaVuSans-35" x="147.412109"/>
      </g>
     </g>
    </g>
    <g id="ytick_5">
     <g id="line2d_11">
      <g>
       <use xlink:href="#mf9b354636c" x="57.6" y="149.54407" style="stroke: #000000; stroke-width: 0.8"/>
      </g>
     </g>
     <g id="text_11">
      <!-- −50 -->
      <g transform="translate(29.495313 153.343289) scale(0.1 -0.1)">
       <use xlink:href="#DejaVuSans-2212"/>
       <use xlink:href="#DejaVuSans-35" x="83.789062"/>
       <use xlink:href="#DejaVuSans-30" x="147.412109"/>
      </g>
     </g>
    </g>
    <g id="ytick_6">
     <g id="line2d_12">
      <g>
       <use xlink:href="#mf9b354636c" x="57.6" y="115.922141" style="stroke: #000000; stroke-width: 0.8"/>
      </g>
     </g>
     <g id="text_12">
      <!-- −25 -->
      <g transform="translate(29.495313 119.72136) scale(0.1 -0.1)">
       <use xlink:href="#DejaVuSans-2212"/>
       <use xlink:href="#DejaVuSans-32" x="83.789062"/>
       <use xlink:href="#DejaVuSans-35" x="147.412109"/>
      </g>
     </g>
    </g>
    <g id="ytick_7">
     <g id="line2d_13">
      <g>
       <use xlink:href="#mf9b354636c" x="57.6" y="82.300212" style="stroke: #000000; stroke-width: 0.8"/>
      </g>
     </g>
     <g id="text_13">
      <!-- 0 -->
      <g transform="translate(44.2375 86.099431) scale(0.1 -0.1)">
       <use xlink:href="#DejaVuSans-30"/>
      </g>
     </g>
    </g>
    <g id="ytick_8">
     <g id="line2d_14">
      <g>
       <use xlink:href="#mf9b354636c" x="57.6" y="48.678284" style="stroke: #000000; stroke-width: 0.8"/>
      </g>
     </g>
     <g id="text_14">
      <!-- 25 -->
      <g transform="translate(37.875 52.477502) scale(0.1 -0.1)">
       <use xlink:href="#DejaVuSans-32"/>
       <use xlink:href="#DejaVuSans-35" x="63.623047"/>
      </g>
     </g>
    </g>
   </g>
   <g id="line2d_15">
    <path d="M 73.832727 82.209341 
" clip-path="url(#p5ff488b367)" style="fill: none; stroke: #1f77b4; stroke-width: 1.5; stroke-linecap: square"/>
   </g>
   <g id="line2d_16">
    <path d="M 73.832727 82.209341 
L 74.482036 79.725526 
L 75.131345 78.903433 
L 75.780655 81.85175 
L 76.429964 81.353863 
L 77.079273 62.400515 
L 77.728582 79.562294 
L 78.377891 81.880744 
L 79.0272 78.951138 
L 79.676509 78.063151 
L 80.325818 76.961338 
L 80.975127 74.419513 
L 81.624436 76.086035 
L 82.273745 80.295701 
L 82.923055 64.748623 
L 83.572364 53.568 
L 84.221673 81.880744 
L 84.870982 73.980657 
L 85.520291 80.694284 
L 86.1696 83.912761 
L 86.818909 111.130464 
L 87.468218 88.129984 
L 88.117527 67.670165 
L 88.766836 83.503298 
L 89.416145 69.582693 
L 90.065455 77.456546 
L 90.714764 125.98086 
L 91.364073 94.973068 
L 92.013382 80.159521 
L 92.662691 71.188294 
L 93.312 71.370064 
L 93.961309 119.000818 
L 94.610618 83.034099 
L 95.259927 72.678078 
L 95.909236 70.534597 
L 96.558545 80.001121 
L 97.207855 80.989181 
L 97.857164 112.764783 
L 98.506473 81.246459 
L 99.155782 82.300212 
L 99.805091 82.176747 
L 100.4544 81.655416 
L 101.103709 81.804481 
L 101.753018 74.798889 
L 102.402327 84.661762 
L 103.051636 82.300212 
L 103.700945 93.672375 
L 104.350255 82.13789 
L 104.999564 79.506516 
L 105.648873 69.229281 
L 106.298182 94.207447 
L 106.947491 83.371699 
L 107.5968 82.300212 
L 108.246109 82.300212 
L 108.895418 93.077813 
L 109.544727 82.300212 
L 110.194036 81.379674 
L 110.843345 82.723595 
L 111.492655 82.300212 
L 112.141964 82.300212 
L 112.791273 82.300212 
L 113.440582 78.456373 
L 114.089891 64.245861 
L 114.7392 73.2028 
L 115.388509 82.300212 
L 116.037818 82.300212 
L 116.687127 80.244901 
L 117.336436 75.572871 
L 117.985745 75.626154 
L 118.635055 76.682492 
L 119.284364 79.489034 
L 119.933673 85.714904 
L 120.582982 99.609883 
L 121.232291 107.883247 
L 121.8816 94.910205 
L 122.530909 82.300212 
L 123.180218 99.801643 
L 123.829527 82.723595 
L 124.478836 82.300212 
L 125.128145 82.300212 
L 125.777455 82.300212 
L 126.426764 87.170799 
L 127.076073 110.485351 
L 127.725382 228.326883 
L 128.374691 90.789397 
L 129.024 169.641977 
L 129.673309 116.163977 
L 130.322618 97.739787 
L 130.971927 99.801643 
L 131.621236 122.000617 
L 132.270545 153.949106 
L 132.919855 86.321706 
L 133.569164 90.355403 
L 134.218473 82.129189 
L 134.867782 99.801643 
L 135.517091 80.856019 
L 136.1664 101.072357 
L 136.815709 153.961102 
L 137.465018 81.138071 
L 138.114327 90.559376 
L 138.763636 99.661307 
" clip-path="url(#p5ff488b367)" style="fill: none; stroke: #ff7f0e; stroke-width: 1.5; stroke-linecap: square"/>
   </g>
   <g id="line2d_17">
    <path d="M 73.832727 82.209341 
L 74.482036 79.725526 
L 75.131345 78.903433 
L 75.780655 81.85175 
L 76.429964 81.353863 
L 77.079273 62.400515 
L 77.728582 79.562294 
L 78.377891 81.880744 
L 79.0272 78.951138 
L 79.676509 78.063151 
L 80.325818 76.961338 
L 80.975127 74.419513 
L 81.624436 76.086035 
L 82.273745 80.295701 
L 82.923055 64.748623 
L 83.572364 53.568 
L 84.221673 81.880744 
L 84.870982 73.980657 
L 85.520291 80.694284 
L 86.1696 83.912761 
L 86.818909 111.130464 
L 88.117527 67.670165 
L 88.766836 83.503298 
L 89.416145 69.582693 
L 90.065455 77.456546 
L 90.714764 125.98086 
L 91.364073 94.973068 
L 92.013382 80.159521 
L 92.662691 71.188294 
L 93.312 71.370064 
L 93.961309 119.000818 
L 94.610618 83.034099 
L 95.259927 72.678078 
L 95.909236 70.534597 
L 96.558545 80.001121 
L 97.207855 80.989181 
L 97.857164 112.764783 
L 98.506473 81.246459 
L 99.155782 82.300212 
L 99.805091 82.176747 
L 100.4544 81.655416 
L 101.103709 81.804481 
L 101.753018 74.798889 
L 102.402327 84.661762 
L 103.051636 82.300212 
L 103.700945 93.672375 
L 104.350255 82.13789 
L 104.999564 79.506516 
L 105.648873 69.229281 
L 106.298182 94.207447 
L 106.947491 83.371699 
L 107.5968 82.300212 
L 108.246109 82.300212 
L 108.895418 93.077813 
L 109.544727 82.300212 
L 110.194036 81.379674 
L 110.843345 82.723595 
L 111.492655 82.300212 
L 112.791273 82.300212 
L 113.440582 78.456373 
L 114.089891 64.245861 
L 115.388509 82.300212 
L 116.037818 82.300212 
L 116.687127 80.244901 
L 117.336436 75.572871 
L 117.985745 75.626154 
L 118.635055 76.682492 
L 119.284364 79.489034 
L 119.933673 85.714904 
L 120.582982 99.609883 
L 121.232291 107.883247 
L 122.530909 82.300212 
L 123.180218 99.801643 
L 123.829527 82.723595 
L 124.478836 82.300212 
L 125.777455 82.300212 
L 126.426764 87.170799 
L 127.076073 110.485351 
L 127.725382 228.326883 
L 128.374691 90.789397 
L 129.024 169.641977 
L 129.673309 116.163977 
L 130.322618 97.739787 
L 130.971927 99.801643 
L 131.621236 122.000617 
L 132.270545 153.949106 
L 132.919855 86.321706 
L 133.569164 90.355403 
L 134.218473 82.129189 
L 134.867782 99.801643 
L 135.517091 80.856019 
L 136.1664 101.072357 
L 136.815709 153.961102 
L 137.465018 81.138071 
L 138.763636 99.661307 
L 140.062255 82.300212 
L 140.711564 82.300212 
L 141.360873 157.779956 
L 142.010182 90.370445 
L 142.659491 82.300212 
L 143.3088 82.300212 
L 143.958109 84.0888 
L 144.607418 81.802599 
L 145.256727 93.565788 
L 145.906036 77.62118 
L 146.555345 119.975907 
L 147.204655 82.300212 
L 147.853964 87.40116 
L 148.503273 82.300212 
L 149.152582 129.061329 
L 149.801891 77.481926 
L 150.4512 82.300212 
L 151.100509 81.250867 
L 151.749818 121.477976 
L 152.399127 121.477976 
L 153.048436 122.493371 
L 153.697745 82.267147 
L 155.645673 82.300212 
L 156.294982 121.359047 
L 156.944291 82.300212 
L 157.5936 82.129189 
L 158.242909 96.024277 
L 158.892218 82.24499 
L 159.541527 163.83239 
L 160.190836 81.082876 
L 160.840145 114.087843 
L 161.489455 122.721719 
L 162.138764 86.847185 
L 162.788073 90.194372 
L 163.437382 82.24499 
L 164.086691 82.300212 
L 165.385309 154.083078 
L 166.034618 75.221065 
L 166.683927 82.300212 
L 167.333236 82.300212 
L 167.982545 81.189353 
L 168.631855 92.966508 
L 169.281164 82.300212 
L 169.930473 82.264255 
L 170.579782 121.477976 
L 171.229091 82.300212 
L 171.8784 78.804588 
L 172.527709 82.300212 
L 173.177018 82.351482 
L 173.826327 82.24499 
L 174.475636 79.812758 
L 175.124945 82.300212 
L 175.774255 82.300212 
L 176.423564 82.129189 
L 177.072873 82.300212 
L 178.371491 76.857927 
L 179.0208 92.930015 
L 179.670109 90.610409 
L 180.319418 82.300212 
L 182.267345 82.300212 
L 182.916655 82.129189 
L 183.565964 82.351482 
L 184.864582 82.24499 
L 185.513891 76.857927 
L 186.1632 82.354094 
L 186.812509 82.575306 
L 187.461818 85.834178 
L 188.111127 80.856019 
L 188.760436 90.610409 
L 189.409745 82.300212 
L 190.059055 83.749962 
L 190.708364 82.24499 
L 192.006982 82.267147 
L 192.656291 76.979269 
L 193.3056 80.415063 
L 193.954909 77.602312 
L 194.604218 82.354094 
L 195.902836 82.300212 
L 197.201455 82.300212 
L 197.850764 81.709322 
L 198.500073 72.440885 
L 199.149382 86.4975 
L 199.798691 86.200543 
L 200.448 87.33583 
L 201.097309 82.300212 
L 201.746618 82.575306 
L 202.395927 93.534114 
L 203.045236 82.604614 
L 203.694545 82.300212 
L 203.694545 82.300212 
" clip-path="url(#p5ff488b367)" style="fill: none; stroke: #2ca02c; stroke-width: 1.5; stroke-linecap: square"/>
   </g>
   <g id="line2d_18">
    <path d="M 73.832727 82.209341 
L 74.482036 79.725526 
L 75.131345 78.903433 
L 75.780655 81.85175 
L 76.429964 81.353863 
L 77.079273 62.400515 
L 77.728582 79.562294 
L 78.377891 81.880744 
L 79.0272 78.951138 
L 79.676509 78.063151 
L 80.325818 76.961338 
L 80.975127 74.419513 
L 81.624436 76.086035 
L 82.273745 80.295701 
L 82.923055 64.748623 
L 83.572364 53.568 
L 84.221673 81.880744 
L 84.870982 73.980657 
L 85.520291 80.694284 
L 86.1696 83.912761 
L 86.818909 111.130464 
L 88.117527 67.670165 
L 88.766836 83.503298 
L 89.416145 69.582693 
L 90.065455 77.456546 
L 90.714764 125.98086 
L 91.364073 94.973068 
L 92.013382 80.159521 
L 92.662691 71.188294 
L 93.312 71.370064 
L 93.961309 119.000818 
L 94.610618 83.034099 
L 95.259927 72.678078 
L 95.909236 70.534597 
L 96.558545 80.001121 
L 97.207855 80.989181 
L 97.857164 112.764783 
L 98.506473 81.246459 
L 99.155782 82.300212 
L 99.805091 82.176747 
L 100.4544 81.655416 
L 101.103709 81.804481 
L 101.753018 74.798889 
L 102.402327 84.661762 
L 103.051636 82.300212 
L 103.700945 93.672375 
L 104.350255 82.13789 
L 104.999564 79.506516 
L 105.648873 69.229281 
L 106.298182 94.207447 
L 106.947491 83.371699 
L 107.5968 82.300212 
L 108.246109 82.300212 
L 108.895418 93.077813 
L 109.544727 82.300212 
L 110.194036 81.379674 
L 110.843345 82.723595 
L 111.492655 82.300212 
L 112.791273 82.300212 
L 113.440582 78.456373 
L 114.089891 64.245861 
L 115.388509 82.300212 
L 116.037818 82.300212 
L 116.687127 80.244901 
L 117.336436 75.572871 
L 117.985745 75.626154 
L 118.635055 76.682492 
L 119.284364 79.489034 
L 119.933673 85.714904 
L 120.582982 99.609883 
L 121.232291 107.883247 
L 122.530909 82.300212 
L 123.180218 99.801643 
L 123.829527 82.723595 
L 124.478836 82.300212 
L 125.777455 82.300212 
L 126.426764 87.170799 
L 127.076073 110.485351 
L 127.725382 228.326883 
L 128.374691 90.789397 
L 129.024 169.641977 
L 129.673309 116.163977 
L 130.322618 97.739787 
L 130.971927 99.801643 
L 131.621236 122.000617 
L 132.270545 153.949106 
L 132.919855 86.321706 
L 133.569164 90.355403 
L 134.218473 82.129189 
L 134.867782 99.801643 
L 135.517091 80.856019 
L 136.1664 101.072357 
L 136.815709 153.961102 
L 137.465018 81.138071 
L 138.763636 99.661307 
L 140.062255 82.300212 
L 140.711564 82.300212 
L 141.360873 157.779956 
L 142.010182 90.370445 
L 142.659491 82.300212 
L 143.3088 82.300212 
L 143.958109 84.0888 
L 144.607418 81.802599 
L 145.256727 93.565788 
L 145.906036 77.62118 
L 146.555345 119.975907 
L 147.204655 82.300212 
L 147.853964 87.40116 
L 148.503273 82.300212 
L 149.152582 129.061329 
L 149.801891 77.481926 
L 150.4512 82.300212 
L 151.100509 81.250867 
L 151.749818 121.477976 
L 152.399127 121.477976 
L 153.048436 122.493371 
L 153.697745 82.267147 
L 155.645673 82.300212 
L 156.294982 121.359047 
L 156.944291 82.300212 
L 157.5936 82.129189 
L 158.242909 96.024277 
L 158.892218 82.24499 
L 159.541527 163.83239 
L 160.190836 81.082876 
L 160.840145 114.087843 
L 161.489455 122.721719 
L 162.138764 86.847185 
L 162.788073 90.194372 
L 163.437382 82.24499 
L 164.086691 82.300212 
L 165.385309 154.083078 
L 166.034618 75.221065 
L 166.683927 82.300212 
L 167.333236 82.300212 
L 167.982545 81.189353 
L 168.631855 92.966508 
L 169.281164 82.300212 
L 169.930473 82.264255 
L 170.579782 121.477976 
L 171.229091 82.300212 
L 171.8784 78.804588 
L 172.527709 82.300212 
L 173.177018 82.351482 
L 173.826327 82.24499 
L 174.475636 79.812758 
L 175.124945 82.300212 
L 175.774255 82.300212 
L 176.423564 82.129189 
L 177.072873 82.300212 
L 178.371491 76.857927 
L 179.0208 92.930015 
L 179.670109 90.610409 
L 180.319418 82.300212 
L 182.267345 82.300212 
L 182.916655 82.129189 
L 183.565964 82.351482 
L 184.864582 82.24499 
L 185.513891 76.857927 
L 186.1632 82.354094 
L 186.812509 82.575306 
L 187.461818 85.834178 
L 188.111127 80.856019 
L 188.760436 90.610409 
L 189.409745 82.300212 
L 190.059055 83.749962 
L 190.708364 82.24499 
L 192.006982 82.267147 
L 192.656291 76.979269 
L 193.3056 80.415063 
L 193.954909 77.602312 
L 194.604218 82.354094 
L 195.902836 82.300212 
L 197.201455 82.300212 
L 197.850764 81.709322 
L 198.500073 72.440885 
L 199.149382 86.4975 
L 199.798691 86.200543 
L 200.448 87.33583 
L 201.097309 82.300212 
L 201.746618 82.575306 
L 202.395927 93.534114 
L 203.045236 82.604614 
L 203.694545 82.300212 
L 205.642473 82.351482 
L 206.291782 76.857927 
L 206.941091 82.300212 
L 207.5904 82.300212 
L 208.889018 79.564649 
L 209.538327 76.051599 
L 210.187636 81.203727 
L 210.836945 88.44682 
L 211.486255 87.202484 
L 212.135564 86.852211 
L 212.784873 79.812758 
L 213.434182 84.298533 
L 214.083491 82.300212 
L 214.7328 82.300212 
L 215.382109 88.287568 
L 216.031418 82.291507 
L 217.330036 82.300212 
L 217.979345 86.266502 
L 218.628655 93.167655 
L 219.277964 83.659958 
L 219.927273 82.507674 
L 220.576582 82.300212 
L 221.225891 82.300212 
L 221.8752 81.682878 
L 222.524509 82.300212 
L 223.173818 82.300212 
L 223.823127 77.274877 
L 224.472436 78.262783 
L 225.121745 77.122656 
L 225.771055 86.852211 
L 226.420364 76.513933 
L 227.069673 77.122656 
L 228.368291 87.643967 
L 229.0176 83.985262 
L 229.666909 84.46694 
L 230.316218 114.878002 
L 230.965527 85.502456 
L 231.614836 80.696687 
L 232.264145 114.254627 
L 232.913455 79.972234 
L 233.562764 87.121647 
L 234.212073 82.300212 
L 234.861382 79.751065 
L 235.510691 93.412512 
L 236.16 79.721249 
L 236.809309 73.728049 
L 237.458618 72.335458 
L 238.107927 73.888183 
L 239.406545 182.114981 
L 240.055855 82.482503 
L 240.705164 163.016635 
L 241.354473 116.642484 
L 242.003782 104.929699 
L 242.653091 66.787244 
L 243.3024 171.821361 
L 243.951709 182.032751 
L 244.601018 164.459432 
L 245.250327 128.620905 
L 245.899636 132.453816 
L 247.198255 74.124978 
L 247.847564 82.300212 
L 248.496873 146.747449 
L 249.146182 166.474472 
L 249.795491 137.334883 
L 250.4448 295.488 
L 251.094109 105.953649 
L 251.743418 94.328239 
L 252.392727 91.86812 
L 253.042036 102.566635 
L 253.691345 99.12044 
L 254.340655 207.933534 
L 254.989964 106.43665 
L 255.639273 182.941365 
L 256.288582 83.86425 
L 256.937891 104.181627 
L 257.5872 91.742934 
L 258.236509 138.009454 
L 258.885818 89.375648 
L 259.535127 95.514415 
L 260.184436 109.675507 
L 260.833745 108.341998 
L 261.483055 90.630982 
L 262.132364 120.213792 
L 262.781673 103.266555 
L 263.430982 92.759589 
L 264.080291 88.278722 
L 264.7296 108.234469 
L 265.378909 85.275368 
L 266.028218 105.947912 
L 266.677527 89.898174 
L 267.326836 168.890034 
L 267.976145 99.12044 
L 268.625455 96.328976 
L 268.625455 96.328976 
" clip-path="url(#p5ff488b367)" style="fill: none; stroke: #d62728; stroke-width: 1.5; stroke-linecap: square"/>
   </g>
   <g id="line2d_19">
    <path d="M 73.832727 82.209341 
L 74.482036 79.725526 
L 75.131345 78.903433 
L 75.780655 81.85175 
L 76.429964 81.353863 
L 77.079273 62.400515 
L 77.728582 79.562294 
L 78.377891 81.880744 
L 79.0272 78.951138 
L 79.676509 78.063151 
L 80.325818 76.961338 
L 80.975127 74.419513 
L 81.624436 76.086035 
L 82.273745 80.295701 
L 82.923055 64.748623 
L 83.572364 53.568 
L 84.221673 81.880744 
L 84.870982 73.980657 
L 85.520291 80.694284 
L 86.1696 83.912761 
L 86.818909 111.130464 
L 88.117527 67.670165 
L 88.766836 83.503298 
L 89.416145 69.582693 
L 90.065455 77.456546 
L 90.714764 125.98086 
L 91.364073 94.973068 
L 92.013382 80.159521 
L 92.662691 71.188294 
L 93.312 71.370064 
L 93.961309 119.000818 
L 94.610618 83.034099 
L 95.259927 72.678078 
L 95.909236 70.534597 
L 96.558545 80.001121 
L 97.207855 80.989181 
L 97.857164 112.764783 
L 98.506473 81.246459 
L 99.155782 82.300212 
L 99.805091 82.176747 
L 100.4544 81.655416 
L 101.103709 81.804481 
L 101.753018 74.798889 
L 102.402327 84.661762 
L 103.051636 82.300212 
L 103.700945 93.672375 
L 104.350255 82.13789 
L 104.999564 79.506516 
L 105.648873 69.229281 
L 106.298182 94.207447 
L 106.947491 83.371699 
L 107.5968 82.300212 
L 108.246109 82.300212 
L 108.895418 93.077813 
L 109.544727 82.300212 
L 110.194036 81.379674 
L 110.843345 82.723595 
L 111.492655 82.300212 
L 112.791273 82.300212 
L 113.440582 78.456373 
L 114.089891 64.245861 
L 115.388509 82.300212 
L 116.037818 82.300212 
L 116.687127 80.244901 
L 117.336436 75.572871 
L 117.985745 75.626154 
L 118.635055 76.682492 
L 119.284364 79.489034 
L 119.933673 85.714904 
L 120.582982 99.609883 
L 121.232291 107.883247 
L 122.530909 82.300212 
L 123.180218 99.801643 
L 123.829527 82.723595 
L 124.478836 82.300212 
L 125.777455 82.300212 
L 126.426764 87.170799 
L 127.076073 110.485351 
L 127.725382 228.326883 
L 128.374691 90.789397 
L 129.024 169.641977 
L 129.673309 116.163977 
L 130.322618 97.739787 
L 130.971927 99.801643 
L 131.621236 122.000617 
L 132.270545 153.949106 
L 132.919855 86.321706 
L 133.569164 90.355403 
L 134.218473 82.129189 
L 134.867782 99.801643 
L 135.517091 80.856019 
L 136.1664 101.072357 
L 136.815709 153.961102 
L 137.465018 81.138071 
L 138.763636 99.661307 
L 140.062255 82.300212 
L 140.711564 82.300212 
L 141.360873 157.779956 
L 142.010182 90.370445 
L 142.659491 82.300212 
L 143.3088 82.300212 
L 143.958109 84.0888 
L 144.607418 81.802599 
L 145.256727 93.565788 
L 145.906036 77.62118 
L 146.555345 119.975907 
L 147.204655 82.300212 
L 147.853964 87.40116 
L 148.503273 82.300212 
L 149.152582 129.061329 
L 149.801891 77.481926 
L 150.4512 82.300212 
L 151.100509 81.250867 
L 151.749818 121.477976 
L 152.399127 121.477976 
L 153.048436 122.493371 
L 153.697745 82.267147 
L 155.645673 82.300212 
L 156.294982 121.359047 
L 156.944291 82.300212 
L 157.5936 82.129189 
L 158.242909 96.024277 
L 158.892218 82.24499 
L 159.541527 163.83239 
L 160.190836 81.082876 
L 160.840145 114.087843 
L 161.489455 122.721719 
L 162.138764 86.847185 
L 162.788073 90.194372 
L 163.437382 82.24499 
L 164.086691 82.300212 
L 165.385309 154.083078 
L 166.034618 75.221065 
L 166.683927 82.300212 
L 167.333236 82.300212 
L 167.982545 81.189353 
L 168.631855 92.966508 
L 169.281164 82.300212 
L 169.930473 82.264255 
L 170.579782 121.477976 
L 171.229091 82.300212 
L 171.8784 78.804588 
L 172.527709 82.300212 
L 173.177018 82.351482 
L 173.826327 82.24499 
L 174.475636 79.812758 
L 175.124945 82.300212 
L 175.774255 82.300212 
L 176.423564 82.129189 
L 177.072873 82.300212 
L 178.371491 76.857927 
L 179.0208 92.930015 
L 179.670109 90.610409 
L 180.319418 82.300212 
L 182.267345 82.300212 
L 182.916655 82.129189 
L 183.565964 82.351482 
L 184.864582 82.24499 
L 185.513891 76.857927 
L 186.1632 82.354094 
L 186.812509 82.575306 
L 187.461818 85.834178 
L 188.111127 80.856019 
L 188.760436 90.610409 
L 189.409745 82.300212 
L 190.059055 83.749962 
L 190.708364 82.24499 
L 192.006982 82.267147 
L 192.656291 76.979269 
L 193.3056 80.415063 
L 193.954909 77.602312 
L 194.604218 82.354094 
L 195.902836 82.300212 
L 197.201455 82.300212 
L 197.850764 81.709322 
L 198.500073 72.440885 
L 199.149382 86.4975 
L 199.798691 86.200543 
L 200.448 87.33583 
L 201.097309 82.300212 
L 201.746618 82.575306 
L 202.395927 93.534114 
L 203.045236 82.604614 
L 203.694545 82.300212 
L 205.642473 82.351482 
L 206.291782 76.857927 
L 206.941091 82.300212 
L 207.5904 82.300212 
L 208.889018 79.564649 
L 209.538327 76.051599 
L 210.187636 81.203727 
L 210.836945 88.44682 
L 211.486255 87.202484 
L 212.135564 86.852211 
L 212.784873 79.812758 
L 213.434182 84.298533 
L 214.083491 82.300212 
L 214.7328 82.300212 
L 215.382109 88.287568 
L 216.031418 82.291507 
L 217.330036 82.300212 
L 217.979345 86.266502 
L 218.628655 93.167655 
L 219.277964 83.659958 
L 219.927273 82.507674 
L 220.576582 82.300212 
L 221.225891 82.300212 
L 221.8752 81.682878 
L 222.524509 82.300212 
L 223.173818 82.300212 
L 223.823127 77.274877 
L 224.472436 78.262783 
L 225.121745 77.122656 
L 225.771055 86.852211 
L 226.420364 76.513933 
L 227.069673 77.122656 
L 228.368291 87.643967 
L 229.0176 83.985262 
L 229.666909 84.46694 
L 230.316218 114.878002 
L 230.965527 85.502456 
L 231.614836 80.696687 
L 232.264145 114.254627 
L 232.913455 79.972234 
L 233.562764 87.121647 
L 234.212073 82.300212 
L 234.861382 79.751065 
L 235.510691 93.412512 
L 236.16 79.721249 
L 236.809309 73.728049 
L 237.458618 72.335458 
L 238.107927 73.888183 
L 239.406545 182.114981 
L 240.055855 82.482503 
L 240.705164 163.016635 
L 241.354473 116.642484 
L 242.003782 104.929699 
L 242.653091 66.787244 
L 243.3024 171.821361 
L 243.951709 182.032751 
L 244.601018 164.459432 
L 245.250327 128.620905 
L 245.899636 132.453816 
L 247.198255 74.124978 
L 247.847564 82.300212 
L 248.496873 146.747449 
L 249.146182 166.474472 
L 249.795491 137.334883 
L 250.4448 295.488 
L 251.094109 105.953649 
L 251.743418 94.328239 
L 252.392727 91.86812 
L 253.042036 102.566635 
L 253.691345 99.12044 
L 254.340655 207.933534 
L 254.989964 106.43665 
L 255.639273 182.941365 
L 256.288582 83.86425 
L 256.937891 104.181627 
L 257.5872 91.742934 
L 258.236509 138.009454 
L 258.885818 89.375648 
L 259.535127 95.514415 
L 260.184436 109.675507 
L 260.833745 108.341998 
L 261.483055 90.630982 
L 262.132364 120.213792 
L 262.781673 103.266555 
L 263.430982 92.759589 
L 264.080291 88.278722 
L 264.7296 108.234469 
L 265.378909 85.275368 
L 266.028218 105.947912 
L 266.677527 89.898174 
L 267.326836 168.890034 
L 267.976145 99.12044 
L 268.625455 96.328976 
L 269.274764 100.413874 
L 269.924073 103.378585 
L 270.573382 91.102404 
L 271.222691 143.024512 
L 271.872 107.690707 
L 272.521309 101.815078 
L 273.170618 90.883911 
L 273.819927 84.654451 
L 274.469236 122.51767 
L 275.118545 87.136404 
L 275.767855 106.003526 
L 276.417164 90.380967 
L 277.715782 77.109841 
L 278.365091 90.236861 
L 279.0144 106.887604 
L 279.663709 99.967765 
L 280.313018 83.963042 
L 280.962327 185.624087 
L 281.611636 84.10263 
L 282.260945 118.66133 
L 282.910255 116.256549 
L 283.559564 104.329791 
L 284.208873 83.761393 
L 284.858182 93.127259 
L 285.507491 99.632647 
L 286.1568 121.656605 
L 287.455418 97.705637 
L 288.104727 104.799249 
L 288.754036 94.377828 
L 289.403345 93.089386 
L 290.052655 96.196215 
L 290.701964 185.624087 
L 291.351273 111.570425 
L 292.000582 90.650848 
L 292.649891 124.222598 
L 293.2992 95.06616 
L 293.948509 91.328985 
L 294.597818 103.266555 
L 295.247127 83.949085 
L 295.896436 91.563699 
L 296.545745 93.360028 
L 297.195055 90.94203 
L 297.844364 86.598151 
L 298.493673 241.658857 
L 299.142982 112.314731 
L 299.792291 91.197123 
L 300.4416 170.096406 
L 301.740218 86.364448 
L 302.389527 95.968335 
L 303.038836 90.432233 
L 303.688145 108.395434 
L 304.337455 190.149939 
L 304.986764 151.273831 
L 305.636073 91.341022 
L 306.285382 95.640708 
L 306.934691 143.235491 
L 307.584 91.143216 
L 308.233309 106.010963 
L 308.882618 179.991089 
L 309.531927 105.133497 
L 310.181236 95.514415 
L 310.830545 115.746503 
L 311.479855 96.57419 
L 312.129164 117.820477 
L 312.778473 91.225967 
L 313.427782 95.640708 
L 314.077091 161.296979 
L 314.7264 186.952742 
L 315.375709 90.656633 
L 316.025018 102.680875 
L 316.674327 184.992791 
L 317.323636 100.523297 
L 317.972945 90.35309 
L 318.622255 91.620604 
L 319.271564 185.624087 
L 319.920873 101.49136 
L 320.570182 104.253615 
L 321.219491 186.952742 
L 321.8688 84.126732 
L 322.518109 92.546526 
L 323.167418 91.776429 
L 323.816727 185.624087 
L 324.466036 93.681888 
L 325.115345 95.671297 
L 325.764655 103.28711 
L 326.413964 91.620604 
L 327.063273 108.167768 
L 327.712582 103.430501 
L 328.361891 90.457825 
L 329.0112 138.258593 
L 329.660509 92.029671 
L 330.309818 92.58855 
L 330.959127 109.360327 
L 331.608436 99.116857 
L 332.257745 92.670464 
L 332.907055 82.816538 
L 333.556364 91.023134 
L 333.556364 91.023134 
" clip-path="url(#p5ff488b367)" style="fill: none; stroke: #9467bd; stroke-width: 1.5; stroke-linecap: square"/>
   </g>
   <g id="line2d_20">
    <path d="M 73.832727 82.209341 
L 74.482036 79.725526 
L 75.131345 78.903433 
L 75.780655 81.85175 
L 76.429964 81.353863 
L 77.079273 62.400515 
L 77.728582 79.562294 
L 78.377891 81.880744 
L 79.0272 78.951138 
L 79.676509 78.063151 
L 80.325818 76.961338 
L 80.975127 74.419513 
L 81.624436 76.086035 
L 82.273745 80.295701 
L 82.923055 64.748623 
L 83.572364 53.568 
L 84.221673 81.880744 
L 84.870982 73.980657 
L 85.520291 80.694284 
L 86.1696 83.912761 
L 86.818909 111.130464 
L 88.117527 67.670165 
L 88.766836 83.503298 
L 89.416145 69.582693 
L 90.065455 77.456546 
L 90.714764 125.98086 
L 91.364073 94.973068 
L 92.013382 80.159521 
L 92.662691 71.188294 
L 93.312 71.370064 
L 93.961309 119.000818 
L 94.610618 83.034099 
L 95.259927 72.678078 
L 95.909236 70.534597 
L 96.558545 80.001121 
L 97.207855 80.989181 
L 97.857164 112.764783 
L 98.506473 81.246459 
L 99.155782 82.300212 
L 99.805091 82.176747 
L 100.4544 81.655416 
L 101.103709 81.804481 
L 101.753018 74.798889 
L 102.402327 84.661762 
L 103.051636 82.300212 
L 103.700945 93.672375 
L 104.350255 82.13789 
L 104.999564 79.506516 
L 105.648873 69.229281 
L 106.298182 94.207447 
L 106.947491 83.371699 
L 107.5968 82.300212 
L 108.246109 82.300212 
L 108.895418 93.077813 
L 109.544727 82.300212 
L 110.194036 81.379674 
L 110.843345 82.723595 
L 111.492655 82.300212 
L 112.791273 82.300212 
L 113.440582 78.456373 
L 114.089891 64.245861 
L 115.388509 82.300212 
L 116.037818 82.300212 
L 116.687127 80.244901 
L 117.336436 75.572871 
L 117.985745 75.626154 
L 118.635055 76.682492 
L 119.284364 79.489034 
L 119.933673 85.714904 
L 120.582982 99.609883 
L 121.232291 107.883247 
L 122.530909 82.300212 
L 123.180218 99.801643 
L 123.829527 82.723595 
L 124.478836 82.300212 
L 125.777455 82.300212 
L 126.426764 87.170799 
L 127.076073 110.485351 
L 127.725382 228.326883 
L 128.374691 90.789397 
L 129.024 169.641977 
L 129.673309 116.163977 
L 130.322618 97.739787 
L 130.971927 99.801643 
L 131.621236 122.000617 
L 132.270545 153.949106 
L 132.919855 86.321706 
L 133.569164 90.355403 
L 134.218473 82.129189 
L 134.867782 99.801643 
L 135.517091 80.856019 
L 136.1664 101.072357 
L 136.815709 153.961102 
L 137.465018 81.138071 
L 138.763636 99.661307 
L 140.062255 82.300212 
L 140.711564 82.300212 
L 141.360873 157.779956 
L 142.010182 90.370445 
L 142.659491 82.300212 
L 143.3088 82.300212 
L 143.958109 84.0888 
L 144.607418 81.802599 
L 145.256727 93.565788 
L 145.906036 77.62118 
L 146.555345 119.975907 
L 147.204655 82.300212 
L 147.853964 87.40116 
L 148.503273 82.300212 
L 149.152582 129.061329 
L 149.801891 77.481926 
L 150.4512 82.300212 
L 151.100509 81.250867 
L 151.749818 121.477976 
L 152.399127 121.477976 
L 153.048436 122.493371 
L 153.697745 82.267147 
L 155.645673 82.300212 
L 156.294982 121.359047 
L 156.944291 82.300212 
L 157.5936 82.129189 
L 158.242909 96.024277 
L 158.892218 82.24499 
L 159.541527 163.83239 
L 160.190836 81.082876 
L 160.840145 114.087843 
L 161.489455 122.721719 
L 162.138764 86.847185 
L 162.788073 90.194372 
L 163.437382 82.24499 
L 164.086691 82.300212 
L 165.385309 154.083078 
L 166.034618 75.221065 
L 166.683927 82.300212 
L 167.333236 82.300212 
L 167.982545 81.189353 
L 168.631855 92.966508 
L 169.281164 82.300212 
L 169.930473 82.264255 
L 170.579782 121.477976 
L 171.229091 82.300212 
L 171.8784 78.804588 
L 172.527709 82.300212 
L 173.177018 82.351482 
L 173.826327 82.24499 
L 174.475636 79.812758 
L 175.124945 82.300212 
L 175.774255 82.300212 
L 176.423564 82.129189 
L 177.072873 82.300212 
L 178.371491 76.857927 
L 179.0208 92.930015 
L 179.670109 90.610409 
L 180.319418 82.300212 
L 182.267345 82.300212 
L 182.916655 82.129189 
L 183.565964 82.351482 
L 184.864582 82.24499 
L 185.513891 76.857927 
L 186.1632 82.354094 
L 186.812509 82.575306 
L 187.461818 85.834178 
L 188.111127 80.856019 
L 188.760436 90.610409 
L 189.409745 82.300212 
L 190.059055 83.749962 
L 190.708364 82.24499 
L 192.006982 82.267147 
L 192.656291 76.979269 
L 193.3056 80.415063 
L 193.954909 77.602312 
L 194.604218 82.354094 
L 195.902836 82.300212 
L 197.201455 82.300212 
L 197.850764 81.709322 
L 198.500073 72.440885 
L 199.149382 86.4975 
L 199.798691 86.200543 
L 200.448 87.33583 
L 201.097309 82.300212 
L 201.746618 82.575306 
L 202.395927 93.534114 
L 203.045236 82.604614 
L 203.694545 82.300212 
L 205.642473 82.351482 
L 206.291782 76.857927 
L 206.941091 82.300212 
L 207.5904 82.300212 
L 208.889018 79.564649 
L 209.538327 76.051599 
L 210.187636 81.203727 
L 210.836945 88.44682 
L 211.486255 87.202484 
L 212.135564 86.852211 
L 212.784873 79.812758 
L 213.434182 84.298533 
L 214.083491 82.300212 
L 214.7328 82.300212 
L 215.382109 88.287568 
L 216.031418 82.291507 
L 217.330036 82.300212 
L 217.979345 86.266502 
L 218.628655 93.167655 
L 219.277964 83.659958 
L 219.927273 82.507674 
L 220.576582 82.300212 
L 221.225891 82.300212 
L 221.8752 81.682878 
L 222.524509 82.300212 
L 223.173818 82.300212 
L 223.823127 77.274877 
L 224.472436 78.262783 
L 225.121745 77.122656 
L 225.771055 86.852211 
L 226.420364 76.513933 
L 227.069673 77.122656 
L 228.368291 87.643967 
L 229.0176 83.985262 
L 229.666909 84.46694 
L 230.316218 114.878002 
L 230.965527 85.502456 
L 231.614836 80.696687 
L 232.264145 114.254627 
L 232.913455 79.972234 
L 233.562764 87.121647 
L 234.212073 82.300212 
L 234.861382 79.751065 
L 235.510691 93.412512 
L 236.16 79.721249 
L 236.809309 73.728049 
L 237.458618 72.335458 
L 238.107927 73.888183 
L 239.406545 182.114981 
L 240.055855 82.482503 
L 240.705164 163.016635 
L 241.354473 116.642484 
L 242.003782 104.929699 
L 242.653091 66.787244 
L 243.3024 171.821361 
L 243.951709 182.032751 
L 244.601018 164.459432 
L 245.250327 128.620905 
L 245.899636 132.453816 
L 247.198255 74.124978 
L 247.847564 82.300212 
L 248.496873 146.747449 
L 249.146182 166.474472 
L 249.795491 137.334883 
L 250.4448 295.488 
L 251.094109 105.953649 
L 251.743418 94.328239 
L 252.392727 91.86812 
L 253.042036 102.566635 
L 253.691345 99.12044 
L 254.340655 207.933534 
L 254.989964 106.43665 
L 255.639273 182.941365 
L 256.288582 83.86425 
L 256.937891 104.181627 
L 257.5872 91.742934 
L 258.236509 138.009454 
L 258.885818 89.375648 
L 259.535127 95.514415 
L 260.184436 109.675507 
L 260.833745 108.341998 
L 261.483055 90.630982 
L 262.132364 120.213792 
L 262.781673 103.266555 
L 263.430982 92.759589 
L 264.080291 88.278722 
L 264.7296 108.234469 
L 265.378909 85.275368 
L 266.028218 105.947912 
L 266.677527 89.898174 
L 267.326836 168.890034 
L 267.976145 99.12044 
L 268.625455 96.328976 
L 269.274764 100.413874 
L 269.924073 103.378585 
L 270.573382 91.102404 
L 271.222691 143.024512 
L 271.872 107.690707 
L 272.521309 101.815078 
L 273.170618 90.883911 
L 273.819927 84.654451 
L 274.469236 122.51767 
L 275.118545 87.136404 
L 275.767855 106.003526 
L 276.417164 90.380967 
L 277.715782 77.109841 
L 278.365091 90.236861 
L 279.0144 106.887604 
L 279.663709 99.967765 
L 280.313018 83.963042 
L 280.962327 185.624087 
L 281.611636 84.10263 
L 282.260945 118.66133 
L 282.910255 116.256549 
L 283.559564 104.329791 
L 284.208873 83.761393 
L 284.858182 93.127259 
L 285.507491 99.632647 
L 286.1568 121.656605 
L 287.455418 97.705637 
L 288.104727 104.799249 
L 288.754036 94.377828 
L 289.403345 93.089386 
L 290.052655 96.196215 
L 290.701964 185.624087 
L 291.351273 111.570425 
L 292.000582 90.650848 
L 292.649891 124.222598 
L 293.2992 95.06616 
L 293.948509 91.328985 
L 294.597818 103.266555 
L 295.247127 83.949085 
L 295.896436 91.563699 
L 296.545745 93.360028 
L 297.195055 90.94203 
L 297.844364 86.598151 
L 298.493673 241.658857 
L 299.142982 112.314731 
L 299.792291 91.197123 
L 300.4416 170.096406 
L 301.740218 86.364448 
L 302.389527 95.968335 
L 303.038836 90.432233 
L 303.688145 108.395434 
L 304.337455 190.149939 
L 304.986764 151.273831 
L 305.636073 91.341022 
L 306.285382 95.640708 
L 306.934691 143.235491 
L 307.584 91.143216 
L 308.233309 106.010963 
L 308.882618 179.991089 
L 309.531927 105.133497 
L 310.181236 95.514415 
L 310.830545 115.746503 
L 311.479855 96.57419 
L 312.129164 117.820477 
L 312.778473 91.225967 
L 313.427782 95.640708 
L 314.077091 161.296979 
L 314.7264 186.952742 
L 315.375709 90.656633 
L 316.025018 102.680875 
L 316.674327 184.992791 
L 317.323636 100.523297 
L 317.972945 90.35309 
L 318.622255 91.620604 
L 319.271564 185.624087 
L 319.920873 101.49136 
L 320.570182 104.253615 
L 321.219491 186.952742 
L 321.8688 84.126732 
L 322.518109 92.546526 
L 323.167418 91.776429 
L 323.816727 185.624087 
L 324.466036 93.681888 
L 325.115345 95.671297 
L 325.764655 103.28711 
L 326.413964 91.620604 
L 327.063273 108.167768 
L 327.712582 103.430501 
L 328.361891 90.457825 
L 329.0112 138.258593 
L 329.660509 92.029671 
L 330.309818 92.58855 
L 330.959127 109.360327 
L 331.608436 99.116857 
L 332.257745 92.670464 
L 332.907055 82.816538 
L 333.556364 91.023134 
L 334.205673 125.841539 
L 334.854982 85.937839 
L 335.504291 105.735968 
L 336.1536 103.700605 
L 336.802909 102.479009 
L 337.452218 90.432233 
L 338.101527 102.479009 
L 338.750836 91.608215 
L 339.400145 85.349994 
L 340.049455 106.052089 
L 340.698764 91.523995 
L 341.348073 187.398701 
L 341.997382 91.964388 
L 342.646691 96.464537 
L 343.296 150.797809 
L 343.945309 102.92596 
L 344.594618 96.288975 
L 345.243927 91.523995 
L 345.893236 82.300212 
L 346.542545 132.75099 
L 347.191855 91.652827 
L 347.841164 108.13963 
L 348.490473 92.156056 
L 349.139782 138.258593 
L 349.789091 91.204583 
L 350.4384 96.206064 
L 351.087709 93.149683 
L 351.737018 100.346094 
L 352.386327 84.585117 
L 353.035636 85.760229 
L 353.684945 93.298828 
L 354.334255 117.24451 
L 354.983564 214.338406 
L 355.632873 90.776612 
L 356.282182 177.765017 
L 356.931491 84.84971 
L 357.5808 146.619726 
L 358.230109 98.838052 
L 358.879418 83.026723 
L 360.178036 108.101776 
L 360.827345 115.529934 
L 361.476655 93.354958 
L 362.125964 100.384701 
L 362.775273 91.249895 
L 363.424582 86.884142 
L 364.073891 93.804869 
L 365.372509 91.748165 
L 366.021818 91.906475 
L 366.671127 118.573016 
L 367.320436 184.614765 
L 367.969745 95.453795 
L 368.619055 90.354313 
L 369.268364 185.624087 
L 369.917673 93.923456 
L 370.566982 100.581745 
L 371.216291 92.670464 
L 371.8656 91.86812 
L 372.514909 95.671297 
L 373.164218 91.225967 
L 373.813527 102.322002 
L 374.462836 122.801766 
L 375.112145 89.637288 
L 375.761455 91.617705 
L 376.410764 170.206593 
L 377.060073 98.691132 
L 377.709382 92.593464 
L 378.358691 91.334034 
L 379.008 154.103228 
L 379.657309 96.190957 
L 380.306618 97.12556 
L 380.955927 104.275413 
L 381.605236 77.15537 
L 382.254545 91.748165 
L 382.903855 90.380967 
L 383.553164 95.640708 
L 384.202473 90.457825 
L 384.851782 91.906475 
L 386.1504 92.759183 
L 386.799709 94.963377 
L 387.449018 84.267266 
L 388.098327 130.320322 
L 388.747636 90.681377 
L 389.396945 90.35309 
L 390.046255 95.640708 
L 390.695564 92.58855 
L 391.344873 92.279596 
L 391.994182 90.897559 
L 392.643491 109.577418 
L 393.2928 91.748165 
L 393.942109 92.58855 
L 394.591418 92.156056 
L 395.240727 100.346094 
L 395.890036 102.575208 
L 396.539345 91.617705 
L 397.188655 91.563699 
L 397.837964 177.811321 
L 398.487273 106.322471 
L 398.487273 106.322471 
" clip-path="url(#p5ff488b367)" style="fill: none; stroke: #8c564b; stroke-width: 1.5; stroke-linecap: square"/>
   </g>
   <g id="patch_3">
    <path d="M 57.6 307.584 
L 57.6 41.472 
" style="fill: none; stroke: #000000; stroke-width: 0.8; stroke-linejoin: miter; stroke-linecap: square"/>
   </g>
   <g id="patch_4">
    <path d="M 414.72 307.584 
L 414.72 41.472 
" style="fill: none; stroke: #000000; stroke-width: 0.8; stroke-linejoin: miter; stroke-linecap: square"/>
   </g>
   <g id="patch_5">
    <path d="M 57.6 307.584 
L 414.72 307.584 
" style="fill: none; stroke: #000000; stroke-width: 0.8; stroke-linejoin: miter; stroke-linecap: square"/>
   </g>
   <g id="patch_6">
    <path d="M 57.6 41.472 
L 414.72 41.472 
" style="fill: none; stroke: #000000; stroke-width: 0.8; stroke-linejoin: miter; stroke-linecap: square"/>
   </g>
  </g>
 </g>
 <defs>
  <clipPath id="p5ff488b367">
   <rect x="57.6" y="41.472" width="357.12" height="266.112"/>
  </clipPath>
 </defs>
</svg>
