<?xml version="1.0" encoding="utf-8" standalone="no"?>
<!DOCTYPE svg PUBLIC "-//W3C//DTD SVG 1.1//EN"
  "http://www.w3.org/Graphics/SVG/1.1/DTD/svg11.dtd">
<svg xmlns:xlink="http://www.w3.org/1999/xlink" width="460.8pt" height="345.6pt" viewBox="0 0 460.8 345.6" xmlns="http://www.w3.org/2000/svg" version="1.1">
 <metadata>
  <rdf:RDF xmlns:dc="http://purl.org/dc/elements/1.1/" xmlns:cc="http://creativecommons.org/ns#" xmlns:rdf="http://www.w3.org/1999/02/22-rdf-syntax-ns#">
   <cc:Work>
    <dc:type rdf:resource="http://purl.org/dc/dcmitype/StillImage"/>
    <dc:date>2024-04-28T15:21:16.258487</dc:date>
    <dc:format>image/svg+xml</dc:format>
    <dc:creator>
     <cc:Agent>
      <dc:title>Matplotlib v3.8.2, https://matplotlib.org/</dc:title>
     </cc:Agent>
    </dc:creator>
   </cc:Work>
  </rdf:RDF>
 </metadata>
 <defs>
  <style type="text/css">*{stroke-linejoin: round; stroke-linecap: butt}</style>
 </defs>
 <g id="figure_1">
  <g id="patch_1">
   <path d="M 0 345.6 
L 460.8 345.6 
L 460.8 0 
L 0 0 
z
" style="fill: #ffffff"/>
  </g>
  <g id="axes_1">
   <g id="patch_2">
    <path d="M 57.6 307.584 
L 414.72 307.584 
L 414.72 41.472 
L 57.6 41.472 
z
" style="fill: #ffffff"/>
   </g>
   <g id="matplotlib.axis_1">
    <g id="xtick_1">
     <g id="line2d_1">
      <defs>
       <path id="m9621a03d14" d="M 0 0 
L 0 3.5 
" style="stroke: #000000; stroke-width: 0.8"/>
      </defs>
      <g>
       <use xlink:href="#m9621a03d14" x="73.832727" y="307.584" style="stroke: #000000; stroke-width: 0.8"/>
      </g>
     </g>
     <g id="text_1">
      <!-- 0 -->
      <g transform="translate(70.651477 322.182437) scale(0.1 -0.1)">
       <defs>
        <path id="DejaVuSans-30" d="M 2034 4250 
Q 1547 4250 1301 3770 
Q 1056 3291 1056 2328 
Q 1056 1369 1301 889 
Q 1547 409 2034 409 
Q 2525 409 2770 889 
Q 3016 1369 3016 2328 
Q 3016 3291 2770 3770 
Q 2525 4250 2034 4250 
z
M 2034 4750 
Q 2819 4750 3233 4129 
Q 3647 3509 3647 2328 
Q 3647 1150 3233 529 
Q 2819 -91 2034 -91 
Q 1250 -91 836 529 
Q 422 1150 422 2328 
Q 422 3509 836 4129 
Q 1250 4750 2034 4750 
z
" transform="scale(0.015625)"/>
       </defs>
       <use xlink:href="#DejaVuSans-30"/>
      </g>
     </g>
    </g>
    <g id="xtick_2">
     <g id="line2d_2">
      <g>
       <use xlink:href="#m9621a03d14" x="127.941818" y="307.584" style="stroke: #000000; stroke-width: 0.8"/>
      </g>
     </g>
     <g id="text_2">
      <!-- 50 -->
      <g transform="translate(121.579318 322.182437) scale(0.1 -0.1)">
       <defs>
        <path id="DejaVuSans-35" d="M 691 4666 
L 3169 4666 
L 3169 4134 
L 1269 4134 
L 1269 2991 
Q 1406 3038 1543 3061 
Q 1681 3084 1819 3084 
Q 2600 3084 3056 2656 
Q 3513 2228 3513 1497 
Q 3513 744 3044 326 
Q 2575 -91 1722 -91 
Q 1428 -91 1123 -41 
Q 819 9 494 109 
L 494 744 
Q 775 591 1075 516 
Q 1375 441 1709 441 
Q 2250 441 2565 725 
Q 2881 1009 2881 1497 
Q 2881 1984 2565 2268 
Q 2250 2553 1709 2553 
Q 1456 2553 1204 2497 
Q 953 2441 691 2322 
L 691 4666 
z
" transform="scale(0.015625)"/>
       </defs>
       <use xlink:href="#DejaVuSans-35"/>
       <use xlink:href="#DejaVuSans-30" x="63.623047"/>
      </g>
     </g>
    </g>
    <g id="xtick_3">
     <g id="line2d_3">
      <g>
       <use xlink:href="#m9621a03d14" x="182.050909" y="307.584" style="stroke: #000000; stroke-width: 0.8"/>
      </g>
     </g>
     <g id="text_3">
      <!-- 100 -->
      <g transform="translate(172.507159 322.182437) scale(0.1 -0.1)">
       <defs>
        <path id="DejaVuSans-31" d="M 794 531 
L 1825 531 
L 1825 4091 
L 703 3866 
L 703 4441 
L 1819 4666 
L 2450 4666 
L 2450 531 
L 3481 531 
L 3481 0 
L 794 0 
L 794 531 
z
" transform="scale(0.015625)"/>
       </defs>
       <use xlink:href="#DejaVuSans-31"/>
       <use xlink:href="#DejaVuSans-30" x="63.623047"/>
       <use xlink:href="#DejaVuSans-30" x="127.246094"/>
      </g>
     </g>
    </g>
    <g id="xtick_4">
     <g id="line2d_4">
      <g>
       <use xlink:href="#m9621a03d14" x="236.16" y="307.584" style="stroke: #000000; stroke-width: 0.8"/>
      </g>
     </g>
     <g id="text_4">
      <!-- 150 -->
      <g transform="translate(226.61625 322.182437) scale(0.1 -0.1)">
       <use xlink:href="#DejaVuSans-31"/>
       <use xlink:href="#DejaVuSans-35" x="63.623047"/>
       <use xlink:href="#DejaVuSans-30" x="127.246094"/>
      </g>
     </g>
    </g>
    <g id="xtick_5">
     <g id="line2d_5">
      <g>
       <use xlink:href="#m9621a03d14" x="290.269091" y="307.584" style="stroke: #000000; stroke-width: 0.8"/>
      </g>
     </g>
     <g id="text_5">
      <!-- 200 -->
      <g transform="translate(280.725341 322.182437) scale(0.1 -0.1)">
       <defs>
        <path id="DejaVuSans-32" d="M 1228 531 
L 3431 531 
L 3431 0 
L 469 0 
L 469 531 
Q 828 903 1448 1529 
Q 2069 2156 2228 2338 
Q 2531 2678 2651 2914 
Q 2772 3150 2772 3378 
Q 2772 3750 2511 3984 
Q 2250 4219 1831 4219 
Q 1534 4219 1204 4116 
Q 875 4013 500 3803 
L 500 4441 
Q 881 4594 1212 4672 
Q 1544 4750 1819 4750 
Q 2544 4750 2975 4387 
Q 3406 4025 3406 3419 
Q 3406 3131 3298 2873 
Q 3191 2616 2906 2266 
Q 2828 2175 2409 1742 
Q 1991 1309 1228 531 
z
" transform="scale(0.015625)"/>
       </defs>
       <use xlink:href="#DejaVuSans-32"/>
       <use xlink:href="#DejaVuSans-30" x="63.623047"/>
       <use xlink:href="#DejaVuSans-30" x="127.246094"/>
      </g>
     </g>
    </g>
    <g id="xtick_6">
     <g id="line2d_6">
      <g>
       <use xlink:href="#m9621a03d14" x="344.378182" y="307.584" style="stroke: #000000; stroke-width: 0.8"/>
      </g>
     </g>
     <g id="text_6">
      <!-- 250 -->
      <g transform="translate(334.834432 322.182437) scale(0.1 -0.1)">
       <use xlink:href="#DejaVuSans-32"/>
       <use xlink:href="#DejaVuSans-35" x="63.623047"/>
       <use xlink:href="#DejaVuSans-30" x="127.246094"/>
      </g>
     </g>
    </g>
    <g id="xtick_7">
     <g id="line2d_7">
      <g>
       <use xlink:href="#m9621a03d14" x="398.487273" y="307.584" style="stroke: #000000; stroke-width: 0.8"/>
      </g>
     </g>
     <g id="text_7">
      <!-- 300 -->
      <g transform="translate(388.943523 322.182437) scale(0.1 -0.1)">
       <defs>
        <path id="DejaVuSans-33" d="M 2597 2516 
Q 3050 2419 3304 2112 
Q 3559 1806 3559 1356 
Q 3559 666 3084 287 
Q 2609 -91 1734 -91 
Q 1441 -91 1130 -33 
Q 819 25 488 141 
L 488 750 
Q 750 597 1062 519 
Q 1375 441 1716 441 
Q 2309 441 2620 675 
Q 2931 909 2931 1356 
Q 2931 1769 2642 2001 
Q 2353 2234 1838 2234 
L 1294 2234 
L 1294 2753 
L 1863 2753 
Q 2328 2753 2575 2939 
Q 2822 3125 2822 3475 
Q 2822 3834 2567 4026 
Q 2313 4219 1838 4219 
Q 1578 4219 1281 4162 
Q 984 4106 628 3988 
L 628 4550 
Q 988 4650 1302 4700 
Q 1616 4750 1894 4750 
Q 2613 4750 3031 4423 
Q 3450 4097 3450 3541 
Q 3450 3153 3228 2886 
Q 3006 2619 2597 2516 
z
" transform="scale(0.015625)"/>
       </defs>
       <use xlink:href="#DejaVuSans-33"/>
       <use xlink:href="#DejaVuSans-30" x="63.623047"/>
       <use xlink:href="#DejaVuSans-30" x="127.246094"/>
      </g>
     </g>
    </g>
   </g>
   <g id="matplotlib.axis_2">
    <g id="ytick_1">
     <g id="line2d_8">
      <defs>
       <path id="m224ccb3e71" d="M 0 0 
L -3.5 0 
" style="stroke: #000000; stroke-width: 0.8"/>
      </defs>
      <g>
       <use xlink:href="#m224ccb3e71" x="57.6" y="284.031785" style="stroke: #000000; stroke-width: 0.8"/>
      </g>
     </g>
     <g id="text_8">
      <!-- −150 -->
      <g transform="translate(23.132812 287.831003) scale(0.1 -0.1)">
       <defs>
        <path id="DejaVuSans-2212" d="M 678 2272 
L 4684 2272 
L 4684 1741 
L 678 1741 
L 678 2272 
z
" transform="scale(0.015625)"/>
       </defs>
       <use xlink:href="#DejaVuSans-2212"/>
       <use xlink:href="#DejaVuSans-31" x="83.789062"/>
       <use xlink:href="#DejaVuSans-35" x="147.412109"/>
       <use xlink:href="#DejaVuSans-30" x="211.035156"/>
      </g>
     </g>
    </g>
    <g id="ytick_2">
     <g id="line2d_9">
      <g>
       <use xlink:href="#m224ccb3e71" x="57.6" y="250.409856" style="stroke: #000000; stroke-width: 0.8"/>
      </g>
     </g>
     <g id="text_9">
      <!-- −125 -->
      <g transform="translate(23.132812 254.209075) scale(0.1 -0.1)">
       <use xlink:href="#DejaVuSans-2212"/>
       <use xlink:href="#DejaVuSans-31" x="83.789062"/>
       <use xlink:href="#DejaVuSans-32" x="147.412109"/>
       <use xlink:href="#DejaVuSans-35" x="211.035156"/>
      </g>
     </g>
    </g>
    <g id="ytick_3">
     <g id="line2d_10">
      <g>
       <use xlink:href="#m224ccb3e71" x="57.6" y="216.787927" style="stroke: #000000; stroke-width: 0.8"/>
      </g>
     </g>
     <g id="text_10">
      <!-- −100 -->
      <g transform="translate(23.132812 220.587146) scale(0.1 -0.1)">
       <use xlink:href="#DejaVuSans-2212"/>
       <use xlink:href="#DejaVuSans-31" x="83.789062"/>
       <use xlink:href="#DejaVuSans-30" x="147.412109"/>
       <use xlink:href="#DejaVuSans-30" x="211.035156"/>
      </g>
     </g>
    </g>
    <g id="ytick_4">
     <g id="line2d_11">
      <g>
       <use xlink:href="#m224ccb3e71" x="57.6" y="183.165998" style="stroke: #000000; stroke-width: 0.8"/>
      </g>
     </g>
     <g id="text_11">
      <!-- −75 -->
      <g transform="translate(29.495313 186.965217) scale(0.1 -0.1)">
       <defs>
        <path id="DejaVuSans-37" d="M 525 4666 
L 3525 4666 
L 3525 4397 
L 1831 0 
L 1172 0 
L 2766 4134 
L 525 4134 
L 525 4666 
z
" transform="scale(0.015625)"/>
       </defs>
       <use xlink:href="#DejaVuSans-2212"/>
       <use xlink:href="#DejaVuSans-37" x="83.789062"/>
       <use xlink:href="#DejaVuSans-35" x="147.412109"/>
      </g>
     </g>
    </g>
    <g id="ytick_5">
     <g id="line2d_12">
      <g>
       <use xlink:href="#m224ccb3e71" x="57.6" y="149.54407" style="stroke: #000000; stroke-width: 0.8"/>
      </g>
     </g>
     <g id="text_12">
      <!-- −50 -->
      <g transform="translate(29.495313 153.343289) scale(0.1 -0.1)">
       <use xlink:href="#DejaVuSans-2212"/>
       <use xlink:href="#DejaVuSans-35" x="83.789062"/>
       <use xlink:href="#DejaVuSans-30" x="147.412109"/>
      </g>
     </g>
    </g>
    <g id="ytick_6">
     <g id="line2d_13">
      <g>
       <use xlink:href="#m224ccb3e71" x="57.6" y="115.922141" style="stroke: #000000; stroke-width: 0.8"/>
      </g>
     </g>
     <g id="text_13">
      <!-- −25 -->
      <g transform="translate(29.495313 119.72136) scale(0.1 -0.1)">
       <use xlink:href="#DejaVuSans-2212"/>
       <use xlink:href="#DejaVuSans-32" x="83.789062"/>
       <use xlink:href="#DejaVuSans-35" x="147.412109"/>
      </g>
     </g>
    </g>
    <g id="ytick_7">
     <g id="line2d_14">
      <g>
       <use xlink:href="#m224ccb3e71" x="57.6" y="82.300212" style="stroke: #000000; stroke-width: 0.8"/>
      </g>
     </g>
     <g id="text_14">
      <!-- 0 -->
      <g transform="translate(44.2375 86.099431) scale(0.1 -0.1)">
       <use xlink:href="#DejaVuSans-30"/>
      </g>
     </g>
    </g>
    <g id="ytick_8">
     <g id="line2d_15">
      <g>
       <use xlink:href="#m224ccb3e71" x="57.6" y="48.678284" style="stroke: #000000; stroke-width: 0.8"/>
      </g>
     </g>
     <g id="text_15">
      <!-- 25 -->
      <g transform="translate(37.875 52.477502) scale(0.1 -0.1)">
       <use xlink:href="#DejaVuSans-32"/>
       <use xlink:href="#DejaVuSans-35" x="63.623047"/>
      </g>
     </g>
    </g>
   </g>
   <g id="line2d_16">
    <path d="M 73.832727 82.209341 
" clip-path="url(#peadf0a3c1a)" style="fill: none; stroke: #1f77b4; stroke-width: 1.5; stroke-linecap: square"/>
   </g>
   <g id="line2d_17">
    <path d="M 73.832727 82.209341 
L 74.914909 79.725526 
L 75.997091 78.903433 
L 77.079273 81.85175 
L 78.161455 81.353863 
L 79.243636 62.400515 
L 80.325818 79.562294 
L 81.408 81.880744 
L 82.490182 78.951138 
L 83.572364 78.063151 
L 84.654545 76.961338 
L 85.736727 74.419513 
L 86.818909 76.086035 
L 87.901091 80.295701 
L 88.983273 64.748623 
L 90.065455 53.568 
L 91.147636 81.880744 
L 92.229818 73.980657 
L 93.312 80.694284 
L 94.394182 83.912761 
L 95.476364 111.130464 
L 96.558545 88.129984 
L 97.640727 67.670165 
L 98.722909 83.503298 
L 99.805091 69.582693 
L 100.887273 77.456546 
L 101.969455 125.98086 
L 103.051636 94.973068 
L 104.133818 80.159521 
L 105.216 71.188294 
L 106.298182 71.370064 
L 107.380364 119.000818 
L 108.462545 83.034099 
L 109.544727 72.678078 
L 110.626909 70.534597 
L 111.709091 80.001121 
L 112.791273 80.989181 
L 113.873455 112.764783 
L 114.955636 81.246459 
L 116.037818 82.300212 
L 117.12 82.176747 
L 118.202182 81.655416 
L 119.284364 81.804481 
L 120.366545 74.798889 
L 121.448727 84.661762 
L 122.530909 82.300212 
L 123.613091 93.672375 
L 124.695273 82.13789 
L 125.777455 79.506516 
L 126.859636 69.229281 
L 127.941818 94.207447 
L 129.024 83.371699 
L 130.106182 82.300212 
L 131.188364 82.300212 
L 132.270545 93.077813 
L 133.352727 82.300212 
L 134.434909 81.379674 
L 135.517091 82.723595 
L 136.599273 82.300212 
L 137.681455 82.300212 
L 138.763636 82.300212 
L 139.845818 78.456373 
L 140.928 64.245861 
L 142.010182 73.2028 
L 143.092364 82.300212 
L 144.174545 82.300212 
L 145.256727 80.244901 
L 146.338909 75.572871 
L 147.421091 75.626154 
L 148.503273 76.682492 
L 149.585455 79.489034 
L 150.667636 85.714904 
L 151.749818 99.609883 
L 152.832 107.883247 
L 153.914182 94.910205 
L 154.996364 82.300212 
L 156.078545 99.801643 
L 157.160727 82.723595 
L 158.242909 82.300212 
L 159.325091 82.300212 
L 160.407273 82.300212 
L 161.489455 87.170799 
L 162.571636 110.485351 
L 163.653818 228.326883 
L 164.736 90.789397 
L 165.818182 169.641977 
L 166.900364 116.163977 
L 167.982545 97.739787 
L 169.064727 99.801643 
L 170.146909 122.000617 
L 171.229091 153.949106 
L 172.311273 86.321706 
L 173.393455 90.355403 
L 174.475636 82.129189 
L 175.557818 99.801643 
L 176.64 80.856019 
L 177.722182 101.072357 
L 178.804364 153.961102 
L 179.886545 81.138071 
L 180.968727 90.559376 
L 182.050909 99.661307 
" clip-path="url(#peadf0a3c1a)" style="fill: none; stroke: #ff7f0e; stroke-width: 1.5; stroke-linecap: square"/>
   </g>
   <g id="line2d_18">
    <path d="M 73.832727 82.209341 
L 74.914909 79.725526 
L 75.997091 78.903433 
L 77.079273 81.85175 
L 78.161455 81.353863 
L 79.243636 62.400515 
L 80.325818 79.562294 
L 81.408 81.880744 
L 82.490182 78.951138 
L 83.572364 78.063151 
L 84.654545 76.961338 
L 85.736727 74.419513 
L 86.818909 76.086035 
L 87.901091 80.295701 
L 88.983273 64.748623 
L 90.065455 53.568 
L 91.147636 81.880744 
L 92.229818 73.980657 
L 93.312 80.694284 
L 94.394182 83.912761 
L 95.476364 111.130464 
L 96.558545 88.129984 
L 97.640727 67.670165 
L 98.722909 83.503298 
L 99.805091 69.582693 
L 100.887273 77.456546 
L 101.969455 125.98086 
L 103.051636 94.973068 
L 104.133818 80.159521 
L 105.216 71.188294 
L 106.298182 71.370064 
L 107.380364 119.000818 
L 108.462545 83.034099 
L 109.544727 72.678078 
L 110.626909 70.534597 
L 111.709091 80.001121 
L 112.791273 80.989181 
L 113.873455 112.764783 
L 114.955636 81.246459 
L 116.037818 82.300212 
L 117.12 82.176747 
L 118.202182 81.655416 
L 119.284364 81.804481 
L 120.366545 74.798889 
L 121.448727 84.661762 
L 122.530909 82.300212 
L 123.613091 93.672375 
L 124.695273 82.13789 
L 125.777455 79.506516 
L 126.859636 69.229281 
L 127.941818 94.207447 
L 129.024 83.371699 
L 130.106182 82.300212 
L 131.188364 82.300212 
L 132.270545 93.077813 
L 133.352727 82.300212 
L 134.434909 81.379674 
L 135.517091 82.723595 
L 136.599273 82.300212 
L 138.763636 82.300212 
L 139.845818 78.456373 
L 140.928 64.245861 
L 143.092364 82.300212 
L 144.174545 82.300212 
L 145.256727 80.244901 
L 146.338909 75.572871 
L 147.421091 75.626154 
L 148.503273 76.682492 
L 149.585455 79.489034 
L 150.667636 85.714904 
L 151.749818 99.609883 
L 152.832 107.883247 
L 154.996364 82.300212 
L 156.078545 99.801643 
L 157.160727 82.723595 
L 158.242909 82.300212 
L 160.407273 82.300212 
L 161.489455 87.170799 
L 162.571636 110.485351 
L 163.653818 228.326883 
L 164.736 90.789397 
L 165.818182 169.641977 
L 166.900364 116.163977 
L 167.982545 97.739787 
L 169.064727 99.801643 
L 170.146909 122.000617 
L 171.229091 153.949106 
L 172.311273 86.321706 
L 173.393455 90.355403 
L 174.475636 82.129189 
L 175.557818 99.801643 
L 176.64 80.856019 
L 177.722182 101.072357 
L 178.804364 153.961102 
L 179.886545 81.138071 
L 182.050909 99.661307 
L 184.215273 82.300212 
L 185.297455 82.300212 
L 186.379636 157.779956 
L 187.461818 90.370445 
L 188.544 82.300212 
L 189.626182 82.300212 
L 190.708364 84.0888 
L 191.790545 81.802599 
L 192.872727 93.565788 
L 193.954909 77.62118 
L 195.037091 119.975907 
L 196.119273 82.300212 
L 197.201455 87.40116 
L 198.283636 82.300212 
L 199.365818 129.061329 
L 200.448 77.481926 
L 201.530182 82.300212 
L 202.612364 81.250867 
L 203.694545 121.477976 
L 204.776727 121.477976 
L 205.858909 122.493371 
L 206.941091 82.267147 
L 210.187636 82.300212 
L 211.269818 121.359047 
L 212.352 82.300212 
L 213.434182 82.129189 
L 214.516364 96.024277 
L 215.598545 82.24499 
L 216.680727 163.83239 
L 217.762909 81.082876 
L 218.845091 114.087843 
L 219.927273 122.721719 
L 221.009455 86.847185 
L 222.091636 90.194372 
L 223.173818 82.24499 
L 224.256 82.300212 
L 226.420364 154.083078 
L 227.502545 75.221065 
L 228.584727 82.300212 
L 229.666909 82.300212 
L 230.749091 81.189353 
L 231.831273 92.966508 
L 232.913455 82.300212 
L 233.995636 82.264255 
L 235.077818 121.477976 
L 236.16 82.300212 
L 237.242182 78.804588 
L 238.324364 82.300212 
L 239.406545 82.351482 
L 240.488727 82.24499 
L 241.570909 79.812758 
L 242.653091 82.300212 
L 243.735273 82.300212 
L 244.817455 82.129189 
L 245.899636 82.300212 
L 248.064 76.857927 
L 249.146182 92.930015 
L 250.228364 90.610409 
L 251.310545 82.300212 
L 254.557091 82.300212 
L 255.639273 82.129189 
L 256.721455 82.351482 
L 258.885818 82.24499 
L 259.968 76.857927 
L 261.050182 82.354094 
L 262.132364 82.575306 
L 263.214545 85.834178 
L 264.296727 80.856019 
L 265.378909 90.610409 
L 266.461091 82.300212 
L 267.543273 83.749962 
L 268.625455 82.24499 
L 270.789818 82.267147 
L 271.872 76.979269 
L 272.954182 80.415063 
L 274.036364 77.602312 
L 275.118545 82.354094 
L 277.282909 82.300212 
L 279.447273 82.300212 
L 280.529455 81.709322 
L 281.611636 72.440885 
L 282.693818 86.4975 
L 283.776 86.200543 
L 284.858182 87.33583 
L 285.940364 82.300212 
L 287.022545 82.575306 
L 288.104727 93.534114 
L 289.186909 82.604614 
L 290.269091 82.300212 
L 290.269091 82.300212 
" clip-path="url(#peadf0a3c1a)" style="fill: none; stroke: #2ca02c; stroke-width: 1.5; stroke-linecap: square"/>
   </g>
   <g id="line2d_19">
    <path d="M 73.832727 82.209341 
L 74.914909 79.725526 
L 75.997091 78.903433 
L 77.079273 81.85175 
L 78.161455 81.353863 
L 79.243636 62.400515 
L 80.325818 79.562294 
L 81.408 81.880744 
L 82.490182 78.951138 
L 83.572364 78.063151 
L 84.654545 76.961338 
L 85.736727 74.419513 
L 86.818909 76.086035 
L 87.901091 80.295701 
L 88.983273 64.748623 
L 90.065455 53.568 
L 91.147636 81.880744 
L 92.229818 73.980657 
L 93.312 80.694284 
L 94.394182 83.912761 
L 95.476364 111.130464 
L 96.558545 88.129984 
L 97.640727 67.670165 
L 98.722909 83.503298 
L 99.805091 69.582693 
L 100.887273 77.456546 
L 101.969455 125.98086 
L 103.051636 94.973068 
L 104.133818 80.159521 
L 105.216 71.188294 
L 106.298182 71.370064 
L 107.380364 119.000818 
L 108.462545 83.034099 
L 109.544727 72.678078 
L 110.626909 70.534597 
L 111.709091 80.001121 
L 112.791273 80.989181 
L 113.873455 112.764783 
L 114.955636 81.246459 
L 116.037818 82.300212 
L 117.12 82.176747 
L 118.202182 81.655416 
L 119.284364 81.804481 
L 120.366545 74.798889 
L 121.448727 84.661762 
L 122.530909 82.300212 
L 123.613091 93.672375 
L 124.695273 82.13789 
L 125.777455 79.506516 
L 126.859636 69.229281 
L 127.941818 94.207447 
L 129.024 83.371699 
L 130.106182 82.300212 
L 131.188364 82.300212 
L 132.270545 93.077813 
L 133.352727 82.300212 
L 134.434909 81.379674 
L 135.517091 82.723595 
L 136.599273 82.300212 
L 138.763636 82.300212 
L 139.845818 78.456373 
L 140.928 64.245861 
L 143.092364 82.300212 
L 144.174545 82.300212 
L 145.256727 80.244901 
L 146.338909 75.572871 
L 147.421091 75.626154 
L 148.503273 76.682492 
L 149.585455 79.489034 
L 150.667636 85.714904 
L 151.749818 99.609883 
L 152.832 107.883247 
L 154.996364 82.300212 
L 156.078545 99.801643 
L 157.160727 82.723595 
L 158.242909 82.300212 
L 160.407273 82.300212 
L 161.489455 87.170799 
L 162.571636 110.485351 
L 163.653818 228.326883 
L 164.736 90.789397 
L 165.818182 169.641977 
L 166.900364 116.163977 
L 167.982545 97.739787 
L 169.064727 99.801643 
L 170.146909 122.000617 
L 171.229091 153.949106 
L 172.311273 86.321706 
L 173.393455 90.355403 
L 174.475636 82.129189 
L 175.557818 99.801643 
L 176.64 80.856019 
L 177.722182 101.072357 
L 178.804364 153.961102 
L 179.886545 81.138071 
L 182.050909 99.661307 
L 184.215273 82.300212 
L 185.297455 82.300212 
L 186.379636 157.779956 
L 187.461818 90.370445 
L 188.544 82.300212 
L 189.626182 82.300212 
L 190.708364 84.0888 
L 191.790545 81.802599 
L 192.872727 93.565788 
L 193.954909 77.62118 
L 195.037091 119.975907 
L 196.119273 82.300212 
L 197.201455 87.40116 
L 198.283636 82.300212 
L 199.365818 129.061329 
L 200.448 77.481926 
L 201.530182 82.300212 
L 202.612364 81.250867 
L 203.694545 121.477976 
L 204.776727 121.477976 
L 205.858909 122.493371 
L 206.941091 82.267147 
L 210.187636 82.300212 
L 211.269818 121.359047 
L 212.352 82.300212 
L 213.434182 82.129189 
L 214.516364 96.024277 
L 215.598545 82.24499 
L 216.680727 163.83239 
L 217.762909 81.082876 
L 218.845091 114.087843 
L 219.927273 122.721719 
L 221.009455 86.847185 
L 222.091636 90.194372 
L 223.173818 82.24499 
L 224.256 82.300212 
L 226.420364 154.083078 
L 227.502545 75.221065 
L 228.584727 82.300212 
L 229.666909 82.300212 
L 230.749091 81.189353 
L 231.831273 92.966508 
L 232.913455 82.300212 
L 233.995636 82.264255 
L 235.077818 121.477976 
L 236.16 82.300212 
L 237.242182 78.804588 
L 238.324364 82.300212 
L 239.406545 82.351482 
L 240.488727 82.24499 
L 241.570909 79.812758 
L 242.653091 82.300212 
L 243.735273 82.300212 
L 244.817455 82.129189 
L 245.899636 82.300212 
L 248.064 76.857927 
L 249.146182 92.930015 
L 250.228364 90.610409 
L 251.310545 82.300212 
L 254.557091 82.300212 
L 255.639273 82.129189 
L 256.721455 82.351482 
L 258.885818 82.24499 
L 259.968 76.857927 
L 261.050182 82.354094 
L 262.132364 82.575306 
L 263.214545 85.834178 
L 264.296727 80.856019 
L 265.378909 90.610409 
L 266.461091 82.300212 
L 267.543273 83.749962 
L 268.625455 82.24499 
L 270.789818 82.267147 
L 271.872 76.979269 
L 272.954182 80.415063 
L 274.036364 77.602312 
L 275.118545 82.354094 
L 277.282909 82.300212 
L 279.447273 82.300212 
L 280.529455 81.709322 
L 281.611636 72.440885 
L 282.693818 86.4975 
L 283.776 86.200543 
L 284.858182 87.33583 
L 285.940364 82.300212 
L 287.022545 82.575306 
L 288.104727 93.534114 
L 289.186909 82.604614 
L 290.269091 82.300212 
L 293.515636 82.351482 
L 294.597818 76.857927 
L 295.68 82.300212 
L 296.762182 82.300212 
L 298.926545 79.564649 
L 300.008727 76.051599 
L 301.090909 81.203727 
L 302.173091 88.44682 
L 303.255273 87.202484 
L 304.337455 86.852211 
L 305.419636 79.812758 
L 306.501818 84.298533 
L 307.584 82.300212 
L 308.666182 82.300212 
L 309.748364 88.287568 
L 310.830545 82.291507 
L 312.994909 82.300212 
L 314.077091 86.266502 
L 315.159273 93.167655 
L 316.241455 83.659958 
L 317.323636 82.507674 
L 318.405818 82.300212 
L 319.488 82.300212 
L 320.570182 81.682878 
L 321.652364 82.300212 
L 322.734545 82.300212 
L 323.816727 77.274877 
L 324.898909 78.262783 
L 325.981091 77.122656 
L 327.063273 86.852211 
L 328.145455 76.513933 
L 329.227636 77.122656 
L 331.392 87.643967 
L 332.474182 83.985262 
L 333.556364 84.46694 
L 334.638545 114.878002 
L 335.720727 85.502456 
L 336.802909 80.696687 
L 337.885091 114.254627 
L 338.967273 79.972234 
L 340.049455 87.121647 
L 341.131636 82.300212 
L 342.213818 79.751065 
L 343.296 93.412512 
L 344.378182 79.721249 
L 345.460364 73.728049 
L 346.542545 72.335458 
L 347.624727 73.888183 
L 348.706909 132.281598 
L 349.789091 182.114981 
L 350.871273 82.482503 
L 351.953455 163.016635 
L 353.035636 116.642484 
L 354.117818 104.929699 
L 355.2 66.787244 
L 356.282182 171.821361 
L 357.364364 182.032751 
L 358.446545 164.459432 
L 359.528727 128.620905 
L 360.610909 132.453816 
L 361.693091 100.871749 
L 362.775273 74.124978 
L 363.857455 82.300212 
L 364.939636 146.747449 
L 366.021818 166.474472 
L 367.104 137.334883 
L 368.186182 295.488 
L 369.268364 105.953649 
L 370.350545 94.328239 
L 371.432727 91.86812 
L 372.514909 102.566635 
L 373.597091 99.12044 
L 374.679273 207.933534 
L 375.761455 106.43665 
L 376.843636 182.941365 
L 377.925818 83.86425 
L 379.008 104.181627 
L 380.090182 91.742934 
L 381.172364 138.009454 
L 382.254545 89.375648 
L 383.336727 95.514415 
L 384.418909 109.675507 
L 385.501091 108.341998 
L 386.583273 90.630982 
L 387.665455 120.213792 
L 388.747636 103.266555 
L 389.829818 92.759589 
L 390.912 88.278722 
L 391.994182 108.234469 
L 393.076364 85.275368 
L 394.158545 105.947912 
L 395.240727 89.898174 
L 396.322909 168.890034 
L 397.405091 99.12044 
L 398.487273 96.328976 
L 398.487273 96.328976 
" clip-path="url(#peadf0a3c1a)" style="fill: none; stroke: #d62728; stroke-width: 1.5; stroke-linecap: square"/>
   </g>
   <g id="patch_3">
    <path d="M 57.6 307.584 
L 57.6 41.472 
" style="fill: none; stroke: #000000; stroke-width: 0.8; stroke-linejoin: miter; stroke-linecap: square"/>
   </g>
   <g id="patch_4">
    <path d="M 414.72 307.584 
L 414.72 41.472 
" style="fill: none; stroke: #000000; stroke-width: 0.8; stroke-linejoin: miter; stroke-linecap: square"/>
   </g>
   <g id="patch_5">
    <path d="M 57.6 307.584 
L 414.72 307.584 
" style="fill: none; stroke: #000000; stroke-width: 0.8; stroke-linejoin: miter; stroke-linecap: square"/>
   </g>
   <g id="patch_6">
    <path d="M 57.6 41.472 
L 414.72 41.472 
" style="fill: none; stroke: #000000; stroke-width: 0.8; stroke-linejoin: miter; stroke-linecap: square"/>
   </g>
  </g>
 </g>
 <defs>
  <clipPath id="peadf0a3c1a">
   <rect x="57.6" y="41.472" width="357.12" height="266.112"/>
  </clipPath>
 </defs>
</svg>
