<?xml version="1.0" encoding="utf-8" standalone="no"?>
<!DOCTYPE svg PUBLIC "-//W3C//DTD SVG 1.1//EN"
  "http://www.w3.org/Graphics/SVG/1.1/DTD/svg11.dtd">
<svg xmlns:xlink="http://www.w3.org/1999/xlink" width="460.8pt" height="345.6pt" viewBox="0 0 460.8 345.6" xmlns="http://www.w3.org/2000/svg" version="1.1">
 <metadata>
  <rdf:RDF xmlns:dc="http://purl.org/dc/elements/1.1/" xmlns:cc="http://creativecommons.org/ns#" xmlns:rdf="http://www.w3.org/1999/02/22-rdf-syntax-ns#">
   <cc:Work>
    <dc:type rdf:resource="http://purl.org/dc/dcmitype/StillImage"/>
    <dc:date>2024-04-28T15:20:05.629571</dc:date>
    <dc:format>image/svg+xml</dc:format>
    <dc:creator>
     <cc:Agent>
      <dc:title>Matplotlib v3.8.2, https://matplotlib.org/</dc:title>
     </cc:Agent>
    </dc:creator>
   </cc:Work>
  </rdf:RDF>
 </metadata>
 <defs>
  <style type="text/css">*{stroke-linejoin: round; stroke-linecap: butt}</style>
 </defs>
 <g id="figure_1">
  <g id="patch_1">
   <path d="M 0 345.6 
L 460.8 345.6 
L 460.8 0 
L 0 0 
z
" style="fill: #ffffff"/>
  </g>
  <g id="axes_1">
   <g id="patch_2">
    <path d="M 57.6 307.584 
L 414.72 307.584 
L 414.72 41.472 
L 57.6 41.472 
z
" style="fill: #ffffff"/>
   </g>
   <g id="matplotlib.axis_1">
    <g id="xtick_1">
     <g id="line2d_1">
      <defs>
       <path id="mcb8792ff28" d="M 0 0 
L 0 3.5 
" style="stroke: #000000; stroke-width: 0.8"/>
      </defs>
      <g>
       <use xlink:href="#mcb8792ff28" x="73.832727" y="307.584" style="stroke: #000000; stroke-width: 0.8"/>
      </g>
     </g>
     <g id="text_1">
      <!-- 0 -->
      <g transform="translate(70.651477 322.182437) scale(0.1 -0.1)">
       <defs>
        <path id="DejaVuSans-30" d="M 2034 4250 
Q 1547 4250 1301 3770 
Q 1056 3291 1056 2328 
Q 1056 1369 1301 889 
Q 1547 409 2034 409 
Q 2525 409 2770 889 
Q 3016 1369 3016 2328 
Q 3016 3291 2770 3770 
Q 2525 4250 2034 4250 
z
M 2034 4750 
Q 2819 4750 3233 4129 
Q 3647 3509 3647 2328 
Q 3647 1150 3233 529 
Q 2819 -91 2034 -91 
Q 1250 -91 836 529 
Q 422 1150 422 2328 
Q 422 3509 836 4129 
Q 1250 4750 2034 4750 
z
" transform="scale(0.015625)"/>
       </defs>
       <use xlink:href="#DejaVuSans-30"/>
      </g>
     </g>
    </g>
    <g id="xtick_2">
     <g id="line2d_2">
      <g>
       <use xlink:href="#mcb8792ff28" x="114.414545" y="307.584" style="stroke: #000000; stroke-width: 0.8"/>
      </g>
     </g>
     <g id="text_2">
      <!-- 25 -->
      <g transform="translate(108.052045 322.182437) scale(0.1 -0.1)">
       <defs>
        <path id="DejaVuSans-32" d="M 1228 531 
L 3431 531 
L 3431 0 
L 469 0 
L 469 531 
Q 828 903 1448 1529 
Q 2069 2156 2228 2338 
Q 2531 2678 2651 2914 
Q 2772 3150 2772 3378 
Q 2772 3750 2511 3984 
Q 2250 4219 1831 4219 
Q 1534 4219 1204 4116 
Q 875 4013 500 3803 
L 500 4441 
Q 881 4594 1212 4672 
Q 1544 4750 1819 4750 
Q 2544 4750 2975 4387 
Q 3406 4025 3406 3419 
Q 3406 3131 3298 2873 
Q 3191 2616 2906 2266 
Q 2828 2175 2409 1742 
Q 1991 1309 1228 531 
z
" transform="scale(0.015625)"/>
        <path id="DejaVuSans-35" d="M 691 4666 
L 3169 4666 
L 3169 4134 
L 1269 4134 
L 1269 2991 
Q 1406 3038 1543 3061 
Q 1681 3084 1819 3084 
Q 2600 3084 3056 2656 
Q 3513 2228 3513 1497 
Q 3513 744 3044 326 
Q 2575 -91 1722 -91 
Q 1428 -91 1123 -41 
Q 819 9 494 109 
L 494 744 
Q 775 591 1075 516 
Q 1375 441 1709 441 
Q 2250 441 2565 725 
Q 2881 1009 2881 1497 
Q 2881 1984 2565 2268 
Q 2250 2553 1709 2553 
Q 1456 2553 1204 2497 
Q 953 2441 691 2322 
L 691 4666 
z
" transform="scale(0.015625)"/>
       </defs>
       <use xlink:href="#DejaVuSans-32"/>
       <use xlink:href="#DejaVuSans-35" x="63.623047"/>
      </g>
     </g>
    </g>
    <g id="xtick_3">
     <g id="line2d_3">
      <g>
       <use xlink:href="#mcb8792ff28" x="154.996364" y="307.584" style="stroke: #000000; stroke-width: 0.8"/>
      </g>
     </g>
     <g id="text_3">
      <!-- 50 -->
      <g transform="translate(148.633864 322.182437) scale(0.1 -0.1)">
       <use xlink:href="#DejaVuSans-35"/>
       <use xlink:href="#DejaVuSans-30" x="63.623047"/>
      </g>
     </g>
    </g>
    <g id="xtick_4">
     <g id="line2d_4">
      <g>
       <use xlink:href="#mcb8792ff28" x="195.578182" y="307.584" style="stroke: #000000; stroke-width: 0.8"/>
      </g>
     </g>
     <g id="text_4">
      <!-- 75 -->
      <g transform="translate(189.215682 322.182437) scale(0.1 -0.1)">
       <defs>
        <path id="DejaVuSans-37" d="M 525 4666 
L 3525 4666 
L 3525 4397 
L 1831 0 
L 1172 0 
L 2766 4134 
L 525 4134 
L 525 4666 
z
" transform="scale(0.015625)"/>
       </defs>
       <use xlink:href="#DejaVuSans-37"/>
       <use xlink:href="#DejaVuSans-35" x="63.623047"/>
      </g>
     </g>
    </g>
    <g id="xtick_5">
     <g id="line2d_5">
      <g>
       <use xlink:href="#mcb8792ff28" x="236.16" y="307.584" style="stroke: #000000; stroke-width: 0.8"/>
      </g>
     </g>
     <g id="text_5">
      <!-- 100 -->
      <g transform="translate(226.61625 322.182437) scale(0.1 -0.1)">
       <defs>
        <path id="DejaVuSans-31" d="M 794 531 
L 1825 531 
L 1825 4091 
L 703 3866 
L 703 4441 
L 1819 4666 
L 2450 4666 
L 2450 531 
L 3481 531 
L 3481 0 
L 794 0 
L 794 531 
z
" transform="scale(0.015625)"/>
       </defs>
       <use xlink:href="#DejaVuSans-31"/>
       <use xlink:href="#DejaVuSans-30" x="63.623047"/>
       <use xlink:href="#DejaVuSans-30" x="127.246094"/>
      </g>
     </g>
    </g>
    <g id="xtick_6">
     <g id="line2d_6">
      <g>
       <use xlink:href="#mcb8792ff28" x="276.741818" y="307.584" style="stroke: #000000; stroke-width: 0.8"/>
      </g>
     </g>
     <g id="text_6">
      <!-- 125 -->
      <g transform="translate(267.198068 322.182437) scale(0.1 -0.1)">
       <use xlink:href="#DejaVuSans-31"/>
       <use xlink:href="#DejaVuSans-32" x="63.623047"/>
       <use xlink:href="#DejaVuSans-35" x="127.246094"/>
      </g>
     </g>
    </g>
    <g id="xtick_7">
     <g id="line2d_7">
      <g>
       <use xlink:href="#mcb8792ff28" x="317.323636" y="307.584" style="stroke: #000000; stroke-width: 0.8"/>
      </g>
     </g>
     <g id="text_7">
      <!-- 150 -->
      <g transform="translate(307.779886 322.182437) scale(0.1 -0.1)">
       <use xlink:href="#DejaVuSans-31"/>
       <use xlink:href="#DejaVuSans-35" x="63.623047"/>
       <use xlink:href="#DejaVuSans-30" x="127.246094"/>
      </g>
     </g>
    </g>
    <g id="xtick_8">
     <g id="line2d_8">
      <g>
       <use xlink:href="#mcb8792ff28" x="357.905455" y="307.584" style="stroke: #000000; stroke-width: 0.8"/>
      </g>
     </g>
     <g id="text_8">
      <!-- 175 -->
      <g transform="translate(348.361705 322.182437) scale(0.1 -0.1)">
       <use xlink:href="#DejaVuSans-31"/>
       <use xlink:href="#DejaVuSans-37" x="63.623047"/>
       <use xlink:href="#DejaVuSans-35" x="127.246094"/>
      </g>
     </g>
    </g>
    <g id="xtick_9">
     <g id="line2d_9">
      <g>
       <use xlink:href="#mcb8792ff28" x="398.487273" y="307.584" style="stroke: #000000; stroke-width: 0.8"/>
      </g>
     </g>
     <g id="text_9">
      <!-- 200 -->
      <g transform="translate(388.943523 322.182437) scale(0.1 -0.1)">
       <use xlink:href="#DejaVuSans-32"/>
       <use xlink:href="#DejaVuSans-30" x="63.623047"/>
       <use xlink:href="#DejaVuSans-30" x="127.246094"/>
      </g>
     </g>
    </g>
   </g>
   <g id="matplotlib.axis_2">
    <g id="ytick_1">
     <g id="line2d_10">
      <defs>
       <path id="m94b4f05a9b" d="M 0 0 
L -3.5 0 
" style="stroke: #000000; stroke-width: 0.8"/>
      </defs>
      <g>
       <use xlink:href="#m94b4f05a9b" x="57.6" y="279.514539" style="stroke: #000000; stroke-width: 0.8"/>
      </g>
     </g>
     <g id="text_10">
      <!-- −100 -->
      <g transform="translate(23.132812 283.313758) scale(0.1 -0.1)">
       <defs>
        <path id="DejaVuSans-2212" d="M 678 2272 
L 4684 2272 
L 4684 1741 
L 678 1741 
L 678 2272 
z
" transform="scale(0.015625)"/>
       </defs>
       <use xlink:href="#DejaVuSans-2212"/>
       <use xlink:href="#DejaVuSans-31" x="83.789062"/>
       <use xlink:href="#DejaVuSans-30" x="147.412109"/>
       <use xlink:href="#DejaVuSans-30" x="211.035156"/>
      </g>
     </g>
    </g>
    <g id="ytick_2">
     <g id="line2d_11">
      <g>
       <use xlink:href="#m94b4f05a9b" x="57.6" y="242.280073" style="stroke: #000000; stroke-width: 0.8"/>
      </g>
     </g>
     <g id="text_11">
      <!-- −80 -->
      <g transform="translate(29.495313 246.079292) scale(0.1 -0.1)">
       <defs>
        <path id="DejaVuSans-38" d="M 2034 2216 
Q 1584 2216 1326 1975 
Q 1069 1734 1069 1313 
Q 1069 891 1326 650 
Q 1584 409 2034 409 
Q 2484 409 2743 651 
Q 3003 894 3003 1313 
Q 3003 1734 2745 1975 
Q 2488 2216 2034 2216 
z
M 1403 2484 
Q 997 2584 770 2862 
Q 544 3141 544 3541 
Q 544 4100 942 4425 
Q 1341 4750 2034 4750 
Q 2731 4750 3128 4425 
Q 3525 4100 3525 3541 
Q 3525 3141 3298 2862 
Q 3072 2584 2669 2484 
Q 3125 2378 3379 2068 
Q 3634 1759 3634 1313 
Q 3634 634 3220 271 
Q 2806 -91 2034 -91 
Q 1263 -91 848 271 
Q 434 634 434 1313 
Q 434 1759 690 2068 
Q 947 2378 1403 2484 
z
M 1172 3481 
Q 1172 3119 1398 2916 
Q 1625 2713 2034 2713 
Q 2441 2713 2670 2916 
Q 2900 3119 2900 3481 
Q 2900 3844 2670 4047 
Q 2441 4250 2034 4250 
Q 1625 4250 1398 4047 
Q 1172 3844 1172 3481 
z
" transform="scale(0.015625)"/>
       </defs>
       <use xlink:href="#DejaVuSans-2212"/>
       <use xlink:href="#DejaVuSans-38" x="83.789062"/>
       <use xlink:href="#DejaVuSans-30" x="147.412109"/>
      </g>
     </g>
    </g>
    <g id="ytick_3">
     <g id="line2d_12">
      <g>
       <use xlink:href="#m94b4f05a9b" x="57.6" y="205.045608" style="stroke: #000000; stroke-width: 0.8"/>
      </g>
     </g>
     <g id="text_12">
      <!-- −60 -->
      <g transform="translate(29.495313 208.844827) scale(0.1 -0.1)">
       <defs>
        <path id="DejaVuSans-36" d="M 2113 2584 
Q 1688 2584 1439 2293 
Q 1191 2003 1191 1497 
Q 1191 994 1439 701 
Q 1688 409 2113 409 
Q 2538 409 2786 701 
Q 3034 994 3034 1497 
Q 3034 2003 2786 2293 
Q 2538 2584 2113 2584 
z
M 3366 4563 
L 3366 3988 
Q 3128 4100 2886 4159 
Q 2644 4219 2406 4219 
Q 1781 4219 1451 3797 
Q 1122 3375 1075 2522 
Q 1259 2794 1537 2939 
Q 1816 3084 2150 3084 
Q 2853 3084 3261 2657 
Q 3669 2231 3669 1497 
Q 3669 778 3244 343 
Q 2819 -91 2113 -91 
Q 1303 -91 875 529 
Q 447 1150 447 2328 
Q 447 3434 972 4092 
Q 1497 4750 2381 4750 
Q 2619 4750 2861 4703 
Q 3103 4656 3366 4563 
z
" transform="scale(0.015625)"/>
       </defs>
       <use xlink:href="#DejaVuSans-2212"/>
       <use xlink:href="#DejaVuSans-36" x="83.789062"/>
       <use xlink:href="#DejaVuSans-30" x="147.412109"/>
      </g>
     </g>
    </g>
    <g id="ytick_4">
     <g id="line2d_13">
      <g>
       <use xlink:href="#m94b4f05a9b" x="57.6" y="167.811143" style="stroke: #000000; stroke-width: 0.8"/>
      </g>
     </g>
     <g id="text_13">
      <!-- −40 -->
      <g transform="translate(29.495313 171.610361) scale(0.1 -0.1)">
       <defs>
        <path id="DejaVuSans-34" d="M 2419 4116 
L 825 1625 
L 2419 1625 
L 2419 4116 
z
M 2253 4666 
L 3047 4666 
L 3047 1625 
L 3713 1625 
L 3713 1100 
L 3047 1100 
L 3047 0 
L 2419 0 
L 2419 1100 
L 313 1100 
L 313 1709 
L 2253 4666 
z
" transform="scale(0.015625)"/>
       </defs>
       <use xlink:href="#DejaVuSans-2212"/>
       <use xlink:href="#DejaVuSans-34" x="83.789062"/>
       <use xlink:href="#DejaVuSans-30" x="147.412109"/>
      </g>
     </g>
    </g>
    <g id="ytick_5">
     <g id="line2d_14">
      <g>
       <use xlink:href="#m94b4f05a9b" x="57.6" y="130.576677" style="stroke: #000000; stroke-width: 0.8"/>
      </g>
     </g>
     <g id="text_14">
      <!-- −20 -->
      <g transform="translate(29.495313 134.375896) scale(0.1 -0.1)">
       <use xlink:href="#DejaVuSans-2212"/>
       <use xlink:href="#DejaVuSans-32" x="83.789062"/>
       <use xlink:href="#DejaVuSans-30" x="147.412109"/>
      </g>
     </g>
    </g>
    <g id="ytick_6">
     <g id="line2d_15">
      <g>
       <use xlink:href="#m94b4f05a9b" x="57.6" y="93.342212" style="stroke: #000000; stroke-width: 0.8"/>
      </g>
     </g>
     <g id="text_15">
      <!-- 0 -->
      <g transform="translate(44.2375 97.14143) scale(0.1 -0.1)">
       <use xlink:href="#DejaVuSans-30"/>
      </g>
     </g>
    </g>
    <g id="ytick_7">
     <g id="line2d_16">
      <g>
       <use xlink:href="#m94b4f05a9b" x="57.6" y="56.107746" style="stroke: #000000; stroke-width: 0.8"/>
      </g>
     </g>
     <g id="text_16">
      <!-- 20 -->
      <g transform="translate(37.875 59.906965) scale(0.1 -0.1)">
       <use xlink:href="#DejaVuSans-32"/>
       <use xlink:href="#DejaVuSans-30" x="63.623047"/>
      </g>
     </g>
    </g>
   </g>
   <g id="line2d_17">
    <path d="M 73.832727 93.216418 
" clip-path="url(#pd6c5c6fe48)" style="fill: none; stroke: #1f77b4; stroke-width: 1.5; stroke-linecap: square"/>
   </g>
   <g id="line2d_18">
    <path d="M 73.832727 93.216418 
L 75.456 89.778055 
L 77.079273 88.640025 
L 78.702545 92.721401 
L 80.325818 92.032173 
L 81.949091 65.794915 
L 83.572364 89.552091 
L 85.195636 92.761539 
L 86.818909 88.706064 
L 88.442182 87.476816 
L 90.065455 85.951569 
L 91.688727 82.432903 
L 93.312 84.739881 
L 94.935273 90.567352 
L 96.558545 69.045418 
L 98.181818 53.568 
L 99.805091 92.761539 
L 101.428364 81.82539 
L 103.051636 91.119114 
L 104.674909 95.574474 
L 106.298182 133.25214 
L 107.921455 101.412407 
L 109.544727 73.08973 
L 111.168 95.007652 
L 112.791273 75.737256 
L 114.414545 86.637088 
L 116.037818 153.809652 
L 117.661091 110.885339 
L 119.284364 90.378837 
L 120.907636 77.959902 
L 122.530909 78.211527 
L 124.154182 144.147128 
L 125.777455 94.358136 
L 127.400727 80.02222 
L 129.024 77.054984 
L 130.647273 90.159563 
L 132.270545 91.527341 
L 133.893818 135.514539 
L 135.517091 91.883493 
L 137.140364 93.342212 
L 138.763636 93.171298 
L 140.386909 92.449616 
L 142.010182 92.655967 
L 143.633455 82.958075 
L 145.256727 96.611322 
L 146.88 93.342212 
L 148.503273 109.08478 
L 150.126545 93.117507 
L 151.749818 89.474877 
L 153.373091 75.248026 
L 154.996364 109.825483 
L 156.619636 94.825478 
L 158.242909 93.342212 
L 159.866182 93.342212 
L 161.489455 108.261723 
L 163.112727 93.342212 
L 164.736 92.067903 
L 166.359273 93.928303 
L 167.982545 93.342212 
L 169.605818 93.342212 
L 171.229091 93.342212 
L 172.852364 88.021157 
L 174.475636 68.349441 
L 176.098909 80.748598 
L 177.722182 93.342212 
L 179.345455 93.342212 
L 180.968727 90.497029 
L 182.592 84.029504 
L 184.215273 84.103264 
L 185.838545 85.56556 
L 187.461818 89.450678 
L 189.085091 98.069194 
L 190.708364 117.304116 
L 192.331636 128.756994 
L 193.954909 110.798317 
L 195.578182 93.342212 
L 197.201455 117.56957 
L 198.824727 93.928303 
L 200.448 93.342212 
L 202.071273 93.342212 
L 203.694545 93.342212 
L 205.317818 100.0846 
L 206.941091 132.359105 
L 208.564364 295.488 
L 210.187636 105.093852 
L 211.810909 214.250055 
L 213.434182 140.220068 
L 215.057455 114.715328 
L 216.680727 117.56957 
L 218.304 148.299773 
L 219.927273 192.526299 
L 221.550545 98.909194 
L 223.173818 104.49307 
L 224.797091 93.105462 
L 226.420364 117.56957 
L 228.043636 91.343004 
L 229.666909 119.328628 
L 231.290182 192.542905 
L 232.913455 91.733451 
L 234.536727 104.775433 
L 236.16 117.375302 
" clip-path="url(#pd6c5c6fe48)" style="fill: none; stroke: #ff7f0e; stroke-width: 1.5; stroke-linecap: square"/>
   </g>
   <g id="line2d_19">
    <path d="M 73.832727 93.216418 
L 75.456 89.778055 
L 77.079273 88.640025 
L 78.702545 92.721401 
L 80.325818 92.032173 
L 81.949091 65.794915 
L 83.572364 89.552091 
L 85.195636 92.761539 
L 86.818909 88.706064 
L 88.442182 87.476816 
L 90.065455 85.951569 
L 91.688727 82.432903 
L 93.312 84.739881 
L 94.935273 90.567352 
L 96.558545 69.045418 
L 98.181818 53.568 
L 99.805091 92.761539 
L 101.428364 81.82539 
L 103.051636 91.119114 
L 104.674909 95.574474 
L 106.298182 133.25214 
L 107.921455 101.412407 
L 109.544727 73.08973 
L 111.168 95.007652 
L 112.791273 75.737256 
L 114.414545 86.637088 
L 116.037818 153.809652 
L 117.661091 110.885339 
L 119.284364 90.378837 
L 120.907636 77.959902 
L 122.530909 78.211527 
L 124.154182 144.147128 
L 125.777455 94.358136 
L 127.400727 80.02222 
L 129.024 77.054984 
L 130.647273 90.159563 
L 132.270545 91.527341 
L 133.893818 135.514539 
L 135.517091 91.883493 
L 137.140364 93.342212 
L 138.763636 93.171298 
L 140.386909 92.449616 
L 142.010182 92.655967 
L 143.633455 82.958075 
L 145.256727 96.611322 
L 146.88 93.342212 
L 148.503273 109.08478 
L 150.126545 93.117507 
L 151.749818 89.474877 
L 153.373091 75.248026 
L 154.996364 109.825483 
L 156.619636 94.825478 
L 158.242909 93.342212 
L 159.866182 93.342212 
L 161.489455 108.261723 
L 163.112727 93.342212 
L 164.736 92.067903 
L 166.359273 93.928303 
L 167.982545 93.342212 
L 171.229091 93.342212 
L 172.852364 88.021157 
L 174.475636 68.349441 
L 177.722182 93.342212 
L 179.345455 93.342212 
L 180.968727 90.497029 
L 182.592 84.029504 
L 184.215273 84.103264 
L 185.838545 85.56556 
L 187.461818 89.450678 
L 189.085091 98.069194 
L 190.708364 117.304116 
L 192.331636 128.756994 
L 195.578182 93.342212 
L 197.201455 117.56957 
L 198.824727 93.928303 
L 200.448 93.342212 
L 203.694545 93.342212 
L 205.317818 100.0846 
L 206.941091 132.359105 
L 208.564364 295.488 
L 210.187636 105.093852 
L 211.810909 214.250055 
L 213.434182 140.220068 
L 215.057455 114.715328 
L 216.680727 117.56957 
L 218.304 148.299773 
L 219.927273 192.526299 
L 221.550545 98.909194 
L 223.173818 104.49307 
L 224.797091 93.105462 
L 226.420364 117.56957 
L 228.043636 91.343004 
L 229.666909 119.328628 
L 231.290182 192.542905 
L 232.913455 91.733451 
L 236.16 117.375302 
L 237.783273 104.775433 
L 239.406545 93.342212 
L 241.029818 93.342212 
L 242.653091 197.829373 
L 244.276364 104.513894 
L 245.899636 93.342212 
L 247.522909 93.342212 
L 249.146182 95.818166 
L 250.769455 92.653362 
L 252.392727 108.937231 
L 254.016 86.864993 
L 255.639273 145.496951 
L 257.262545 93.342212 
L 258.885818 100.403491 
L 260.509091 93.342212 
L 262.132364 158.073968 
L 263.755636 86.672222 
L 265.378909 93.342212 
L 267.002182 91.889595 
L 268.625455 147.576277 
L 270.248727 147.576277 
L 271.872 148.981895 
L 273.495273 93.296439 
L 278.365091 93.342212 
L 279.988364 147.411642 
L 281.611636 93.342212 
L 283.234909 93.105462 
L 284.858182 112.340534 
L 286.481455 93.265767 
L 288.104727 206.207802 
L 289.728 91.657044 
L 291.351273 137.346062 
L 292.974545 149.298 
L 294.597818 99.636619 
L 296.221091 104.270155 
L 297.844364 93.265767 
L 299.467636 93.342212 
L 302.714182 192.711758 
L 304.337455 83.542496 
L 305.960727 93.342212 
L 307.584 93.342212 
L 309.207273 91.804441 
L 310.830545 108.107642 
L 312.453818 93.342212 
L 314.077091 93.292435 
L 315.700364 147.576277 
L 317.323636 93.342212 
L 318.946909 88.503193 
L 320.570182 93.342212 
L 322.193455 93.413185 
L 323.816727 93.265767 
L 325.44 89.898811 
L 327.063273 93.342212 
L 328.686545 93.342212 
L 330.309818 93.105462 
L 331.933091 93.342212 
L 335.179636 85.808416 
L 336.802909 108.057125 
L 338.426182 104.846078 
L 340.049455 93.342212 
L 344.919273 93.342212 
L 346.542545 93.105462 
L 348.165818 93.413185 
L 351.412364 93.265767 
L 353.035636 85.808416 
L 354.658909 93.4168 
L 356.282182 93.723025 
L 357.905455 98.234306 
L 359.528727 91.343004 
L 361.152 104.846078 
L 362.775273 93.342212 
L 364.398545 95.349111 
L 366.021818 93.265767 
L 367.645091 93.342212 
L 369.268364 93.296439 
L 370.891636 85.97639 
L 372.514909 90.732586 
L 374.138182 86.838874 
L 375.761455 93.4168 
L 379.008 93.342212 
L 380.631273 93.4168 
L 382.254545 93.342212 
L 383.877818 92.524238 
L 385.501091 79.693872 
L 387.124364 99.152547 
L 388.747636 98.741468 
L 390.370909 100.313054 
L 391.994182 93.342212 
L 393.617455 93.723025 
L 395.240727 108.893385 
L 396.864 93.763597 
L 398.487273 93.342212 
L 398.487273 93.342212 
" clip-path="url(#pd6c5c6fe48)" style="fill: none; stroke: #2ca02c; stroke-width: 1.5; stroke-linecap: square"/>
   </g>
   <g id="patch_3">
    <path d="M 57.6 307.584 
L 57.6 41.472 
" style="fill: none; stroke: #000000; stroke-width: 0.8; stroke-linejoin: miter; stroke-linecap: square"/>
   </g>
   <g id="patch_4">
    <path d="M 414.72 307.584 
L 414.72 41.472 
" style="fill: none; stroke: #000000; stroke-width: 0.8; stroke-linejoin: miter; stroke-linecap: square"/>
   </g>
   <g id="patch_5">
    <path d="M 57.6 307.584 
L 414.72 307.584 
" style="fill: none; stroke: #000000; stroke-width: 0.8; stroke-linejoin: miter; stroke-linecap: square"/>
   </g>
   <g id="patch_6">
    <path d="M 57.6 41.472 
L 414.72 41.472 
" style="fill: none; stroke: #000000; stroke-width: 0.8; stroke-linejoin: miter; stroke-linecap: square"/>
   </g>
  </g>
 </g>
 <defs>
  <clipPath id="pd6c5c6fe48">
   <rect x="57.6" y="41.472" width="357.12" height="266.112"/>
  </clipPath>
 </defs>
</svg>
