<?xml version="1.0" encoding="utf-8" standalone="no"?>
<!DOCTYPE svg PUBLIC "-//W3C//DTD SVG 1.1//EN"
  "http://www.w3.org/Graphics/SVG/1.1/DTD/svg11.dtd">
<svg xmlns:xlink="http://www.w3.org/1999/xlink" width="460.8pt" height="345.6pt" viewBox="0 0 460.8 345.6" xmlns="http://www.w3.org/2000/svg" version="1.1">
 <metadata>
  <rdf:RDF xmlns:dc="http://purl.org/dc/elements/1.1/" xmlns:cc="http://creativecommons.org/ns#" xmlns:rdf="http://www.w3.org/1999/02/22-rdf-syntax-ns#">
   <cc:Work>
    <dc:type rdf:resource="http://purl.org/dc/dcmitype/StillImage"/>
    <dc:date>2024-04-28T15:31:31.728910</dc:date>
    <dc:format>image/svg+xml</dc:format>
    <dc:creator>
     <cc:Agent>
      <dc:title>Matplotlib v3.8.2, https://matplotlib.org/</dc:title>
     </cc:Agent>
    </dc:creator>
   </cc:Work>
  </rdf:RDF>
 </metadata>
 <defs>
  <style type="text/css">*{stroke-linejoin: round; stroke-linecap: butt}</style>
 </defs>
 <g id="figure_1">
  <g id="patch_1">
   <path d="M 0 345.6 
L 460.8 345.6 
L 460.8 0 
L 0 0 
z
" style="fill: #ffffff"/>
  </g>
  <g id="axes_1">
   <g id="patch_2">
    <path d="M 57.6 307.584 
L 414.72 307.584 
L 414.72 41.472 
L 57.6 41.472 
z
" style="fill: #ffffff"/>
   </g>
   <g id="matplotlib.axis_1">
    <g id="xtick_1">
     <g id="line2d_1">
      <defs>
       <path id="m604db4b5b7" d="M 0 0 
L 0 3.5 
" style="stroke: #000000; stroke-width: 0.8"/>
      </defs>
      <g>
       <use xlink:href="#m604db4b5b7" x="73.832727" y="307.584" style="stroke: #000000; stroke-width: 0.8"/>
      </g>
     </g>
     <g id="text_1">
      <!-- 0 -->
      <g transform="translate(70.651477 322.182437) scale(0.1 -0.1)">
       <defs>
        <path id="DejaVuSans-30" d="M 2034 4250 
Q 1547 4250 1301 3770 
Q 1056 3291 1056 2328 
Q 1056 1369 1301 889 
Q 1547 409 2034 409 
Q 2525 409 2770 889 
Q 3016 1369 3016 2328 
Q 3016 3291 2770 3770 
Q 2525 4250 2034 4250 
z
M 2034 4750 
Q 2819 4750 3233 4129 
Q 3647 3509 3647 2328 
Q 3647 1150 3233 529 
Q 2819 -91 2034 -91 
Q 1250 -91 836 529 
Q 422 1150 422 2328 
Q 422 3509 836 4129 
Q 1250 4750 2034 4750 
z
" transform="scale(0.015625)"/>
       </defs>
       <use xlink:href="#DejaVuSans-30"/>
      </g>
     </g>
    </g>
    <g id="xtick_2">
     <g id="line2d_2">
      <g>
       <use xlink:href="#m604db4b5b7" x="120.211948" y="307.584" style="stroke: #000000; stroke-width: 0.8"/>
      </g>
     </g>
     <g id="text_2">
      <!-- 100 -->
      <g transform="translate(110.668198 322.182437) scale(0.1 -0.1)">
       <defs>
        <path id="DejaVuSans-31" d="M 794 531 
L 1825 531 
L 1825 4091 
L 703 3866 
L 703 4441 
L 1819 4666 
L 2450 4666 
L 2450 531 
L 3481 531 
L 3481 0 
L 794 0 
L 794 531 
z
" transform="scale(0.015625)"/>
       </defs>
       <use xlink:href="#DejaVuSans-31"/>
       <use xlink:href="#DejaVuSans-30" x="63.623047"/>
       <use xlink:href="#DejaVuSans-30" x="127.246094"/>
      </g>
     </g>
    </g>
    <g id="xtick_3">
     <g id="line2d_3">
      <g>
       <use xlink:href="#m604db4b5b7" x="166.591169" y="307.584" style="stroke: #000000; stroke-width: 0.8"/>
      </g>
     </g>
     <g id="text_3">
      <!-- 200 -->
      <g transform="translate(157.047419 322.182437) scale(0.1 -0.1)">
       <defs>
        <path id="DejaVuSans-32" d="M 1228 531 
L 3431 531 
L 3431 0 
L 469 0 
L 469 531 
Q 828 903 1448 1529 
Q 2069 2156 2228 2338 
Q 2531 2678 2651 2914 
Q 2772 3150 2772 3378 
Q 2772 3750 2511 3984 
Q 2250 4219 1831 4219 
Q 1534 4219 1204 4116 
Q 875 4013 500 3803 
L 500 4441 
Q 881 4594 1212 4672 
Q 1544 4750 1819 4750 
Q 2544 4750 2975 4387 
Q 3406 4025 3406 3419 
Q 3406 3131 3298 2873 
Q 3191 2616 2906 2266 
Q 2828 2175 2409 1742 
Q 1991 1309 1228 531 
z
" transform="scale(0.015625)"/>
       </defs>
       <use xlink:href="#DejaVuSans-32"/>
       <use xlink:href="#DejaVuSans-30" x="63.623047"/>
       <use xlink:href="#DejaVuSans-30" x="127.246094"/>
      </g>
     </g>
    </g>
    <g id="xtick_4">
     <g id="line2d_4">
      <g>
       <use xlink:href="#m604db4b5b7" x="212.97039" y="307.584" style="stroke: #000000; stroke-width: 0.8"/>
      </g>
     </g>
     <g id="text_4">
      <!-- 300 -->
      <g transform="translate(203.42664 322.182437) scale(0.1 -0.1)">
       <defs>
        <path id="DejaVuSans-33" d="M 2597 2516 
Q 3050 2419 3304 2112 
Q 3559 1806 3559 1356 
Q 3559 666 3084 287 
Q 2609 -91 1734 -91 
Q 1441 -91 1130 -33 
Q 819 25 488 141 
L 488 750 
Q 750 597 1062 519 
Q 1375 441 1716 441 
Q 2309 441 2620 675 
Q 2931 909 2931 1356 
Q 2931 1769 2642 2001 
Q 2353 2234 1838 2234 
L 1294 2234 
L 1294 2753 
L 1863 2753 
Q 2328 2753 2575 2939 
Q 2822 3125 2822 3475 
Q 2822 3834 2567 4026 
Q 2313 4219 1838 4219 
Q 1578 4219 1281 4162 
Q 984 4106 628 3988 
L 628 4550 
Q 988 4650 1302 4700 
Q 1616 4750 1894 4750 
Q 2613 4750 3031 4423 
Q 3450 4097 3450 3541 
Q 3450 3153 3228 2886 
Q 3006 2619 2597 2516 
z
" transform="scale(0.015625)"/>
       </defs>
       <use xlink:href="#DejaVuSans-33"/>
       <use xlink:href="#DejaVuSans-30" x="63.623047"/>
       <use xlink:href="#DejaVuSans-30" x="127.246094"/>
      </g>
     </g>
    </g>
    <g id="xtick_5">
     <g id="line2d_5">
      <g>
       <use xlink:href="#m604db4b5b7" x="259.34961" y="307.584" style="stroke: #000000; stroke-width: 0.8"/>
      </g>
     </g>
     <g id="text_5">
      <!-- 400 -->
      <g transform="translate(249.80586 322.182437) scale(0.1 -0.1)">
       <defs>
        <path id="DejaVuSans-34" d="M 2419 4116 
L 825 1625 
L 2419 1625 
L 2419 4116 
z
M 2253 4666 
L 3047 4666 
L 3047 1625 
L 3713 1625 
L 3713 1100 
L 3047 1100 
L 3047 0 
L 2419 0 
L 2419 1100 
L 313 1100 
L 313 1709 
L 2253 4666 
z
" transform="scale(0.015625)"/>
       </defs>
       <use xlink:href="#DejaVuSans-34"/>
       <use xlink:href="#DejaVuSans-30" x="63.623047"/>
       <use xlink:href="#DejaVuSans-30" x="127.246094"/>
      </g>
     </g>
    </g>
    <g id="xtick_6">
     <g id="line2d_6">
      <g>
       <use xlink:href="#m604db4b5b7" x="305.728831" y="307.584" style="stroke: #000000; stroke-width: 0.8"/>
      </g>
     </g>
     <g id="text_6">
      <!-- 500 -->
      <g transform="translate(296.185081 322.182437) scale(0.1 -0.1)">
       <defs>
        <path id="DejaVuSans-35" d="M 691 4666 
L 3169 4666 
L 3169 4134 
L 1269 4134 
L 1269 2991 
Q 1406 3038 1543 3061 
Q 1681 3084 1819 3084 
Q 2600 3084 3056 2656 
Q 3513 2228 3513 1497 
Q 3513 744 3044 326 
Q 2575 -91 1722 -91 
Q 1428 -91 1123 -41 
Q 819 9 494 109 
L 494 744 
Q 775 591 1075 516 
Q 1375 441 1709 441 
Q 2250 441 2565 725 
Q 2881 1009 2881 1497 
Q 2881 1984 2565 2268 
Q 2250 2553 1709 2553 
Q 1456 2553 1204 2497 
Q 953 2441 691 2322 
L 691 4666 
z
" transform="scale(0.015625)"/>
       </defs>
       <use xlink:href="#DejaVuSans-35"/>
       <use xlink:href="#DejaVuSans-30" x="63.623047"/>
       <use xlink:href="#DejaVuSans-30" x="127.246094"/>
      </g>
     </g>
    </g>
    <g id="xtick_7">
     <g id="line2d_7">
      <g>
       <use xlink:href="#m604db4b5b7" x="352.108052" y="307.584" style="stroke: #000000; stroke-width: 0.8"/>
      </g>
     </g>
     <g id="text_7">
      <!-- 600 -->
      <g transform="translate(342.564302 322.182437) scale(0.1 -0.1)">
       <defs>
        <path id="DejaVuSans-36" d="M 2113 2584 
Q 1688 2584 1439 2293 
Q 1191 2003 1191 1497 
Q 1191 994 1439 701 
Q 1688 409 2113 409 
Q 2538 409 2786 701 
Q 3034 994 3034 1497 
Q 3034 2003 2786 2293 
Q 2538 2584 2113 2584 
z
M 3366 4563 
L 3366 3988 
Q 3128 4100 2886 4159 
Q 2644 4219 2406 4219 
Q 1781 4219 1451 3797 
Q 1122 3375 1075 2522 
Q 1259 2794 1537 2939 
Q 1816 3084 2150 3084 
Q 2853 3084 3261 2657 
Q 3669 2231 3669 1497 
Q 3669 778 3244 343 
Q 2819 -91 2113 -91 
Q 1303 -91 875 529 
Q 447 1150 447 2328 
Q 447 3434 972 4092 
Q 1497 4750 2381 4750 
Q 2619 4750 2861 4703 
Q 3103 4656 3366 4563 
z
" transform="scale(0.015625)"/>
       </defs>
       <use xlink:href="#DejaVuSans-36"/>
       <use xlink:href="#DejaVuSans-30" x="63.623047"/>
       <use xlink:href="#DejaVuSans-30" x="127.246094"/>
      </g>
     </g>
    </g>
    <g id="xtick_8">
     <g id="line2d_8">
      <g>
       <use xlink:href="#m604db4b5b7" x="398.487273" y="307.584" style="stroke: #000000; stroke-width: 0.8"/>
      </g>
     </g>
     <g id="text_8">
      <!-- 700 -->
      <g transform="translate(388.943523 322.182437) scale(0.1 -0.1)">
       <defs>
        <path id="DejaVuSans-37" d="M 525 4666 
L 3525 4666 
L 3525 4397 
L 1831 0 
L 1172 0 
L 2766 4134 
L 525 4134 
L 525 4666 
z
" transform="scale(0.015625)"/>
       </defs>
       <use xlink:href="#DejaVuSans-37"/>
       <use xlink:href="#DejaVuSans-30" x="63.623047"/>
       <use xlink:href="#DejaVuSans-30" x="127.246094"/>
      </g>
     </g>
    </g>
   </g>
   <g id="matplotlib.axis_2">
    <g id="ytick_1">
     <g id="line2d_9">
      <defs>
       <path id="m012e4bc366" d="M 0 0 
L -3.5 0 
" style="stroke: #000000; stroke-width: 0.8"/>
      </defs>
      <g>
       <use xlink:href="#m012e4bc366" x="57.6" y="275.272752" style="stroke: #000000; stroke-width: 0.8"/>
      </g>
     </g>
     <g id="text_9">
      <!-- −150 -->
      <g transform="translate(23.132812 279.071971) scale(0.1 -0.1)">
       <defs>
        <path id="DejaVuSans-2212" d="M 678 2272 
L 4684 2272 
L 4684 1741 
L 678 1741 
L 678 2272 
z
" transform="scale(0.015625)"/>
       </defs>
       <use xlink:href="#DejaVuSans-2212"/>
       <use xlink:href="#DejaVuSans-31" x="83.789062"/>
       <use xlink:href="#DejaVuSans-35" x="147.412109"/>
       <use xlink:href="#DejaVuSans-30" x="211.035156"/>
      </g>
     </g>
    </g>
    <g id="ytick_2">
     <g id="line2d_10">
      <g>
       <use xlink:href="#m012e4bc366" x="57.6" y="242.928663" style="stroke: #000000; stroke-width: 0.8"/>
      </g>
     </g>
     <g id="text_10">
      <!-- −125 -->
      <g transform="translate(23.132812 246.727881) scale(0.1 -0.1)">
       <use xlink:href="#DejaVuSans-2212"/>
       <use xlink:href="#DejaVuSans-31" x="83.789062"/>
       <use xlink:href="#DejaVuSans-32" x="147.412109"/>
       <use xlink:href="#DejaVuSans-35" x="211.035156"/>
      </g>
     </g>
    </g>
    <g id="ytick_3">
     <g id="line2d_11">
      <g>
       <use xlink:href="#m012e4bc366" x="57.6" y="210.584573" style="stroke: #000000; stroke-width: 0.8"/>
      </g>
     </g>
     <g id="text_11">
      <!-- −100 -->
      <g transform="translate(23.132812 214.383791) scale(0.1 -0.1)">
       <use xlink:href="#DejaVuSans-2212"/>
       <use xlink:href="#DejaVuSans-31" x="83.789062"/>
       <use xlink:href="#DejaVuSans-30" x="147.412109"/>
       <use xlink:href="#DejaVuSans-30" x="211.035156"/>
      </g>
     </g>
    </g>
    <g id="ytick_4">
     <g id="line2d_12">
      <g>
       <use xlink:href="#m012e4bc366" x="57.6" y="178.240483" style="stroke: #000000; stroke-width: 0.8"/>
      </g>
     </g>
     <g id="text_12">
      <!-- −75 -->
      <g transform="translate(29.495313 182.039701) scale(0.1 -0.1)">
       <use xlink:href="#DejaVuSans-2212"/>
       <use xlink:href="#DejaVuSans-37" x="83.789062"/>
       <use xlink:href="#DejaVuSans-35" x="147.412109"/>
      </g>
     </g>
    </g>
    <g id="ytick_5">
     <g id="line2d_13">
      <g>
       <use xlink:href="#m012e4bc366" x="57.6" y="145.896393" style="stroke: #000000; stroke-width: 0.8"/>
      </g>
     </g>
     <g id="text_13">
      <!-- −50 -->
      <g transform="translate(29.495313 149.695611) scale(0.1 -0.1)">
       <use xlink:href="#DejaVuSans-2212"/>
       <use xlink:href="#DejaVuSans-35" x="83.789062"/>
       <use xlink:href="#DejaVuSans-30" x="147.412109"/>
      </g>
     </g>
    </g>
    <g id="ytick_6">
     <g id="line2d_14">
      <g>
       <use xlink:href="#m012e4bc366" x="57.6" y="113.552303" style="stroke: #000000; stroke-width: 0.8"/>
      </g>
     </g>
     <g id="text_14">
      <!-- −25 -->
      <g transform="translate(29.495313 117.351521) scale(0.1 -0.1)">
       <use xlink:href="#DejaVuSans-2212"/>
       <use xlink:href="#DejaVuSans-32" x="83.789062"/>
       <use xlink:href="#DejaVuSans-35" x="147.412109"/>
      </g>
     </g>
    </g>
    <g id="ytick_7">
     <g id="line2d_15">
      <g>
       <use xlink:href="#m012e4bc366" x="57.6" y="81.208213" style="stroke: #000000; stroke-width: 0.8"/>
      </g>
     </g>
     <g id="text_15">
      <!-- 0 -->
      <g transform="translate(44.2375 85.007431) scale(0.1 -0.1)">
       <use xlink:href="#DejaVuSans-30"/>
      </g>
     </g>
    </g>
    <g id="ytick_8">
     <g id="line2d_16">
      <g>
       <use xlink:href="#m012e4bc366" x="57.6" y="48.864123" style="stroke: #000000; stroke-width: 0.8"/>
      </g>
     </g>
     <g id="text_16">
      <!-- 25 -->
      <g transform="translate(37.875 52.663341) scale(0.1 -0.1)">
       <use xlink:href="#DejaVuSans-32"/>
       <use xlink:href="#DejaVuSans-35" x="63.623047"/>
      </g>
     </g>
    </g>
   </g>
   <g id="line2d_17">
    <path d="M 73.832727 81.120795 
" clip-path="url(#pf824216a19)" style="fill: none; stroke: #1f77b4; stroke-width: 1.5; stroke-linecap: square"/>
   </g>
   <g id="line2d_18">
    <path d="M 73.832727 81.120795 
L 74.296519 78.73138 
L 74.760312 77.940532 
L 75.224104 80.776794 
L 75.687896 80.29783 
L 76.151688 62.064825 
L 76.615481 78.574352 
L 77.079273 80.804687 
L 77.543065 77.986424 
L 78.006857 77.132185 
L 78.470649 76.072248 
L 78.934442 73.627029 
L 79.398234 75.230212 
L 79.862026 79.279885 
L 80.325818 64.323691 
L 80.78961 53.568 
L 81.253403 80.804687 
L 81.717195 73.204851 
L 82.180987 79.66332 
L 82.644779 82.759475 
L 83.108571 108.942739 
L 83.572364 86.816417 
L 84.036156 67.134197 
L 84.499948 82.365574 
L 84.96374 68.974037 
L 85.427532 76.548635 
L 85.891325 123.228729 
L 86.355117 93.399423 
L 86.818909 79.148881 
L 87.282701 70.518615 
L 87.746494 70.693477 
L 88.210286 116.513971 
L 88.674078 81.914207 
L 89.13787 71.951778 
L 89.601662 69.889762 
L 90.065455 78.996501 
L 90.529247 79.947008 
L 90.993039 110.514943 
L 91.456831 80.194508 
L 91.920623 81.208213 
L 92.384416 81.08944 
L 92.848208 80.587923 
L 93.312 80.731322 
L 93.775792 73.991986 
L 94.239584 83.480009 
L 94.703377 81.208213 
L 95.167169 92.148164 
L 95.630961 81.052059 
L 96.094753 78.520694 
L 96.558545 68.634057 
L 97.022338 92.662899 
L 97.48613 82.238976 
L 97.949922 81.208213 
L 98.413714 81.208213 
L 98.877506 91.576199 
L 99.341299 81.208213 
L 99.805091 80.32266 
L 100.268883 81.615504 
L 100.732675 81.208213 
L 101.196468 81.208213 
L 101.66026 81.208213 
L 102.124052 77.510463 
L 102.587844 63.840037 
L 103.051636 72.456558 
L 103.515429 81.208213 
L 103.979221 81.208213 
L 104.443013 79.231016 
L 104.906805 74.736552 
L 105.370597 74.787809 
L 105.83439 75.804 
L 106.298182 78.503877 
L 106.761974 84.493125 
L 107.225766 97.86001 
L 107.689558 105.818936 
L 108.153351 93.338949 
L 108.617143 81.208213 
L 109.080935 98.044482 
L 109.544727 81.615504 
L 110.008519 81.208213 
L 110.472312 81.208213 
L 110.936104 81.208213 
L 111.399896 85.893687 
L 111.863688 108.322144 
L 112.327481 221.684978 
L 112.791273 89.374757 
L 113.255065 165.230457 
L 113.718857 113.784947 
L 114.182649 96.060989 
L 114.646442 98.044482 
L 115.110234 119.39976 
L 115.574026 150.134011 
L 116.037818 85.076865 
L 116.50161 88.957257 
L 116.965403 81.043689 
L 117.429195 98.044482 
L 117.892987 79.818907 
L 118.356779 99.266901 
L 118.820571 150.14555 
L 119.284364 80.09024 
L 119.748156 89.153478 
L 120.211948 97.909479 
" clip-path="url(#pf824216a19)" style="fill: none; stroke: #ff7f0e; stroke-width: 1.5; stroke-linecap: square"/>
   </g>
   <g id="line2d_19">
    <path d="M 73.832727 81.120795 
L 74.296519 78.73138 
L 74.760312 77.940532 
L 75.224104 80.776794 
L 75.687896 80.29783 
L 76.151688 62.064825 
L 76.615481 78.574352 
L 77.079273 80.804687 
L 77.543065 77.986424 
L 78.470649 76.072248 
L 78.934442 73.627029 
L 79.398234 75.230212 
L 79.862026 79.279885 
L 80.325818 64.323691 
L 80.78961 53.568 
L 81.253403 80.804687 
L 81.717195 73.204851 
L 82.180987 79.66332 
L 82.644779 82.759475 
L 83.108571 108.942739 
L 84.036156 67.134197 
L 84.499948 82.365574 
L 84.96374 68.974037 
L 85.427532 76.548635 
L 85.891325 123.228729 
L 86.355117 93.399423 
L 86.818909 79.148881 
L 87.282701 70.518615 
L 87.746494 70.693477 
L 88.210286 116.513971 
L 88.674078 81.914207 
L 89.13787 71.951778 
L 89.601662 69.889762 
L 90.065455 78.996501 
L 90.529247 79.947008 
L 90.993039 110.514943 
L 91.456831 80.194508 
L 91.920623 81.208213 
L 92.384416 81.08944 
L 92.848208 80.587923 
L 93.312 80.731322 
L 93.775792 73.991986 
L 94.239584 83.480009 
L 94.703377 81.208213 
L 95.167169 92.148164 
L 95.630961 81.052059 
L 96.094753 78.520694 
L 96.558545 68.634057 
L 97.022338 92.662899 
L 97.48613 82.238976 
L 97.949922 81.208213 
L 98.413714 81.208213 
L 98.877506 91.576199 
L 99.341299 81.208213 
L 99.805091 80.32266 
L 100.268883 81.615504 
L 100.732675 81.208213 
L 101.66026 81.208213 
L 102.124052 77.510463 
L 102.587844 63.840037 
L 103.515429 81.208213 
L 103.979221 81.208213 
L 104.443013 79.231016 
L 104.906805 74.736552 
L 105.370597 74.787809 
L 105.83439 75.804 
L 106.298182 78.503877 
L 106.761974 84.493125 
L 107.225766 97.86001 
L 107.689558 105.818936 
L 108.617143 81.208213 
L 109.080935 98.044482 
L 109.544727 81.615504 
L 110.008519 81.208213 
L 110.936104 81.208213 
L 111.399896 85.893687 
L 111.863688 108.322144 
L 112.327481 221.684978 
L 112.791273 89.374757 
L 113.255065 165.230457 
L 113.718857 113.784947 
L 114.182649 96.060989 
L 114.646442 98.044482 
L 115.110234 119.39976 
L 115.574026 150.134011 
L 116.037818 85.076865 
L 116.50161 88.957257 
L 116.965403 81.043689 
L 117.429195 98.044482 
L 117.892987 79.818907 
L 118.356779 99.266901 
L 118.820571 150.14555 
L 119.284364 80.09024 
L 120.211948 97.909479 
L 121.139532 81.208213 
L 121.603325 81.208213 
L 122.067117 153.819265 
L 122.530909 88.971727 
L 122.994701 81.208213 
L 123.458494 81.208213 
L 123.922286 82.928823 
L 124.386078 80.729512 
L 124.84987 92.045628 
L 125.313662 76.707012 
L 125.777455 117.452001 
L 126.241247 81.208213 
L 126.705039 86.115294 
L 127.168831 81.208213 
L 127.632623 126.192122 
L 128.096416 76.573051 
L 128.560208 81.208213 
L 129.024 80.198749 
L 129.487792 118.896982 
L 129.951584 118.896982 
L 130.415377 119.873785 
L 130.879169 81.176404 
L 132.270545 81.208213 
L 132.734338 118.782573 
L 133.19813 81.208213 
L 133.661922 81.043689 
L 134.125714 94.410679 
L 134.589506 81.155089 
L 135.053299 159.64167 
L 135.517091 80.037143 
L 135.980883 111.78772 
L 136.444675 120.093456 
L 136.908468 85.582373 
L 137.37226 88.802346 
L 137.836052 81.155089 
L 138.299844 81.208213 
L 139.227429 150.262891 
L 139.691221 74.398116 
L 140.155013 81.208213 
L 140.618805 81.208213 
L 141.082597 80.139573 
L 141.54639 91.469124 
L 142.010182 81.208213 
L 142.473974 81.173622 
L 142.937766 118.896982 
L 143.401558 81.208213 
L 143.865351 77.845443 
L 144.329143 81.208213 
L 144.792935 81.257534 
L 145.256727 81.155089 
L 145.720519 78.815297 
L 146.184312 81.208213 
L 146.648104 81.208213 
L 147.111896 81.043689 
L 147.575688 81.208213 
L 148.503273 75.972767 
L 148.967065 91.434018 
L 149.430857 89.202571 
L 149.894649 81.208213 
L 151.286026 81.208213 
L 151.749818 81.043689 
L 152.21361 81.257534 
L 153.141195 81.155089 
L 153.604987 75.972767 
L 154.068779 81.260047 
L 154.532571 81.472851 
L 154.996364 84.607866 
L 155.460156 79.818907 
L 155.923948 89.202571 
L 156.38774 81.208213 
L 156.851532 82.602863 
L 157.315325 81.155089 
L 158.242909 81.176404 
L 158.706701 76.089497 
L 159.170494 79.394711 
L 159.634286 76.688861 
L 160.098078 81.260047 
L 161.025662 81.208213 
L 161.953247 81.208213 
L 162.417039 80.63978 
L 162.880831 71.7236 
L 163.344623 85.245977 
L 163.808416 84.960307 
L 164.272208 86.052446 
L 164.736 81.208213 
L 165.199792 81.472851 
L 165.663584 92.015158 
L 166.127377 81.501045 
L 166.591169 81.208213 
L 166.591169 81.208213 
" clip-path="url(#pf824216a19)" style="fill: none; stroke: #2ca02c; stroke-width: 1.5; stroke-linecap: square"/>
   </g>
   <g id="line2d_20">
    <path d="M 73.832727 81.120795 
L 74.296519 78.73138 
L 74.760312 77.940532 
L 75.224104 80.776794 
L 75.687896 80.29783 
L 76.151688 62.064825 
L 76.615481 78.574352 
L 77.079273 80.804687 
L 77.543065 77.986424 
L 78.470649 76.072248 
L 78.934442 73.627029 
L 79.398234 75.230212 
L 79.862026 79.279885 
L 80.325818 64.323691 
L 80.78961 53.568 
L 81.253403 80.804687 
L 81.717195 73.204851 
L 82.180987 79.66332 
L 82.644779 82.759475 
L 83.108571 108.942739 
L 84.036156 67.134197 
L 84.499948 82.365574 
L 84.96374 68.974037 
L 85.427532 76.548635 
L 85.891325 123.228729 
L 86.355117 93.399423 
L 86.818909 79.148881 
L 87.282701 70.518615 
L 87.746494 70.693477 
L 88.210286 116.513971 
L 88.674078 81.914207 
L 89.13787 71.951778 
L 89.601662 69.889762 
L 90.065455 78.996501 
L 90.529247 79.947008 
L 90.993039 110.514943 
L 91.456831 80.194508 
L 91.920623 81.208213 
L 92.384416 81.08944 
L 92.848208 80.587923 
L 93.312 80.731322 
L 93.775792 73.991986 
L 94.239584 83.480009 
L 94.703377 81.208213 
L 95.167169 92.148164 
L 95.630961 81.052059 
L 96.094753 78.520694 
L 96.558545 68.634057 
L 97.022338 92.662899 
L 97.48613 82.238976 
L 97.949922 81.208213 
L 98.413714 81.208213 
L 98.877506 91.576199 
L 99.341299 81.208213 
L 99.805091 80.32266 
L 100.268883 81.615504 
L 100.732675 81.208213 
L 101.66026 81.208213 
L 102.124052 77.510463 
L 102.587844 63.840037 
L 103.515429 81.208213 
L 103.979221 81.208213 
L 104.443013 79.231016 
L 104.906805 74.736552 
L 105.370597 74.787809 
L 105.83439 75.804 
L 106.298182 78.503877 
L 106.761974 84.493125 
L 107.225766 97.86001 
L 107.689558 105.818936 
L 108.617143 81.208213 
L 109.080935 98.044482 
L 109.544727 81.615504 
L 110.008519 81.208213 
L 110.936104 81.208213 
L 111.399896 85.893687 
L 111.863688 108.322144 
L 112.327481 221.684978 
L 112.791273 89.374757 
L 113.255065 165.230457 
L 113.718857 113.784947 
L 114.182649 96.060989 
L 114.646442 98.044482 
L 115.110234 119.39976 
L 115.574026 150.134011 
L 116.037818 85.076865 
L 116.50161 88.957257 
L 116.965403 81.043689 
L 117.429195 98.044482 
L 117.892987 79.818907 
L 118.356779 99.266901 
L 118.820571 150.14555 
L 119.284364 80.09024 
L 120.211948 97.909479 
L 121.139532 81.208213 
L 121.603325 81.208213 
L 122.067117 153.819265 
L 122.530909 88.971727 
L 122.994701 81.208213 
L 123.458494 81.208213 
L 123.922286 82.928823 
L 124.386078 80.729512 
L 124.84987 92.045628 
L 125.313662 76.707012 
L 125.777455 117.452001 
L 126.241247 81.208213 
L 126.705039 86.115294 
L 127.168831 81.208213 
L 127.632623 126.192122 
L 128.096416 76.573051 
L 128.560208 81.208213 
L 129.024 80.198749 
L 129.487792 118.896982 
L 129.951584 118.896982 
L 130.415377 119.873785 
L 130.879169 81.176404 
L 132.270545 81.208213 
L 132.734338 118.782573 
L 133.19813 81.208213 
L 133.661922 81.043689 
L 134.125714 94.410679 
L 134.589506 81.155089 
L 135.053299 159.64167 
L 135.517091 80.037143 
L 135.980883 111.78772 
L 136.444675 120.093456 
L 136.908468 85.582373 
L 137.37226 88.802346 
L 137.836052 81.155089 
L 138.299844 81.208213 
L 139.227429 150.262891 
L 139.691221 74.398116 
L 140.155013 81.208213 
L 140.618805 81.208213 
L 141.082597 80.139573 
L 141.54639 91.469124 
L 142.010182 81.208213 
L 142.473974 81.173622 
L 142.937766 118.896982 
L 143.401558 81.208213 
L 143.865351 77.845443 
L 144.329143 81.208213 
L 144.792935 81.257534 
L 145.256727 81.155089 
L 145.720519 78.815297 
L 146.184312 81.208213 
L 146.648104 81.208213 
L 147.111896 81.043689 
L 147.575688 81.208213 
L 148.503273 75.972767 
L 148.967065 91.434018 
L 149.430857 89.202571 
L 149.894649 81.208213 
L 151.286026 81.208213 
L 151.749818 81.043689 
L 152.21361 81.257534 
L 153.141195 81.155089 
L 153.604987 75.972767 
L 154.068779 81.260047 
L 154.532571 81.472851 
L 154.996364 84.607866 
L 155.460156 79.818907 
L 155.923948 89.202571 
L 156.38774 81.208213 
L 156.851532 82.602863 
L 157.315325 81.155089 
L 158.242909 81.176404 
L 158.706701 76.089497 
L 159.170494 79.394711 
L 159.634286 76.688861 
L 160.098078 81.260047 
L 161.025662 81.208213 
L 161.953247 81.208213 
L 162.417039 80.63978 
L 162.880831 71.7236 
L 163.344623 85.245977 
L 163.808416 84.960307 
L 164.272208 86.052446 
L 164.736 81.208213 
L 165.199792 81.472851 
L 165.663584 92.015158 
L 166.127377 81.501045 
L 166.591169 81.208213 
L 167.982545 81.257534 
L 168.446338 75.972767 
L 168.91013 81.208213 
L 169.373922 81.208213 
L 170.301506 78.576617 
L 170.765299 75.197085 
L 171.229091 80.1534 
L 171.692883 87.121211 
L 172.156675 85.924168 
L 172.620468 85.587207 
L 173.08426 78.815297 
L 173.548052 83.130585 
L 174.011844 81.208213 
L 174.475636 81.208213 
L 174.939429 86.968012 
L 175.403221 81.199839 
L 176.330805 81.208213 
L 176.794597 85.023759 
L 177.25839 91.662626 
L 177.722182 82.51628 
L 178.185974 81.407789 
L 178.649766 81.208213 
L 179.113558 81.208213 
L 179.577351 80.614341 
L 180.041143 81.208213 
L 180.504935 81.208213 
L 180.968727 76.373871 
L 181.432519 77.32423 
L 181.896312 76.227435 
L 182.360104 85.587207 
L 182.823896 75.641847 
L 183.287688 76.227435 
L 184.215273 86.348872 
L 184.679065 82.82922 
L 185.142857 83.292592 
L 185.606649 112.547848 
L 186.070442 84.288752 
L 186.534234 79.665631 
L 186.998026 111.948164 
L 187.461818 78.968712 
L 187.92561 85.846403 
L 188.389403 81.208213 
L 188.853195 78.755948 
L 189.316987 91.898177 
L 189.780779 78.727266 
L 190.244571 72.961844 
L 190.708364 71.62218 
L 191.172156 73.115892 
L 192.09974 177.229411 
L 192.563532 81.383575 
L 193.027325 158.856918 
L 193.491117 114.245268 
L 193.954909 102.97764 
L 194.418701 66.284832 
L 194.882494 167.32701 
L 195.346286 177.150306 
L 195.810078 160.24488 
L 196.27387 125.768436 
L 196.737662 129.455673 
L 197.665247 73.343687 
L 198.129039 81.208213 
L 198.592831 143.206061 
L 199.056623 162.183336 
L 199.520416 134.15123 
L 199.984208 286.293562 
L 200.448 103.962674 
L 200.911792 92.779101 
L 201.375584 90.412481 
L 201.839377 100.704387 
L 202.303169 97.389169 
L 202.766961 202.0667 
L 203.230753 104.427318 
L 203.694545 178.024387 
L 204.158338 82.712808 
L 204.62213 102.258 
L 205.085922 90.292053 
L 205.549714 134.800162 
L 206.013506 88.014739 
L 206.477299 93.920195 
L 206.941091 107.543079 
L 207.404883 106.260251 
L 207.868675 89.222362 
L 208.332468 117.680844 
L 208.79626 101.377707 
L 209.260052 91.270069 
L 209.723844 86.959503 
L 210.187636 106.156809 
L 210.651429 84.070295 
L 211.115221 103.957155 
L 211.579013 88.517406 
L 212.042805 164.507092 
L 212.506597 97.389169 
L 212.97039 94.703797 
L 212.97039 94.703797 
" clip-path="url(#pf824216a19)" style="fill: none; stroke: #d62728; stroke-width: 1.5; stroke-linecap: square"/>
   </g>
   <g id="line2d_21">
    <path d="M 73.832727 81.120795 
L 74.296519 78.73138 
L 74.760312 77.940532 
L 75.224104 80.776794 
L 75.687896 80.29783 
L 76.151688 62.064825 
L 76.615481 78.574352 
L 77.079273 80.804687 
L 77.543065 77.986424 
L 78.470649 76.072248 
L 78.934442 73.627029 
L 79.398234 75.230212 
L 79.862026 79.279885 
L 80.325818 64.323691 
L 80.78961 53.568 
L 81.253403 80.804687 
L 81.717195 73.204851 
L 82.180987 79.66332 
L 82.644779 82.759475 
L 83.108571 108.942739 
L 84.036156 67.134197 
L 84.499948 82.365574 
L 84.96374 68.974037 
L 85.427532 76.548635 
L 85.891325 123.228729 
L 86.355117 93.399423 
L 86.818909 79.148881 
L 87.282701 70.518615 
L 87.746494 70.693477 
L 88.210286 116.513971 
L 88.674078 81.914207 
L 89.13787 71.951778 
L 89.601662 69.889762 
L 90.065455 78.996501 
L 90.529247 79.947008 
L 90.993039 110.514943 
L 91.456831 80.194508 
L 91.920623 81.208213 
L 92.384416 81.08944 
L 92.848208 80.587923 
L 93.312 80.731322 
L 93.775792 73.991986 
L 94.239584 83.480009 
L 94.703377 81.208213 
L 95.167169 92.148164 
L 95.630961 81.052059 
L 96.094753 78.520694 
L 96.558545 68.634057 
L 97.022338 92.662899 
L 97.48613 82.238976 
L 97.949922 81.208213 
L 98.413714 81.208213 
L 98.877506 91.576199 
L 99.341299 81.208213 
L 99.805091 80.32266 
L 100.268883 81.615504 
L 100.732675 81.208213 
L 101.66026 81.208213 
L 102.124052 77.510463 
L 102.587844 63.840037 
L 103.515429 81.208213 
L 103.979221 81.208213 
L 104.443013 79.231016 
L 104.906805 74.736552 
L 105.370597 74.787809 
L 105.83439 75.804 
L 106.298182 78.503877 
L 106.761974 84.493125 
L 107.225766 97.86001 
L 107.689558 105.818936 
L 108.617143 81.208213 
L 109.080935 98.044482 
L 109.544727 81.615504 
L 110.008519 81.208213 
L 110.936104 81.208213 
L 111.399896 85.893687 
L 111.863688 108.322144 
L 112.327481 221.684978 
L 112.791273 89.374757 
L 113.255065 165.230457 
L 113.718857 113.784947 
L 114.182649 96.060989 
L 114.646442 98.044482 
L 115.110234 119.39976 
L 115.574026 150.134011 
L 116.037818 85.076865 
L 116.50161 88.957257 
L 116.965403 81.043689 
L 117.429195 98.044482 
L 117.892987 79.818907 
L 118.356779 99.266901 
L 118.820571 150.14555 
L 119.284364 80.09024 
L 120.211948 97.909479 
L 121.139532 81.208213 
L 121.603325 81.208213 
L 122.067117 153.819265 
L 122.530909 88.971727 
L 122.994701 81.208213 
L 123.458494 81.208213 
L 123.922286 82.928823 
L 124.386078 80.729512 
L 124.84987 92.045628 
L 125.313662 76.707012 
L 125.777455 117.452001 
L 126.241247 81.208213 
L 126.705039 86.115294 
L 127.168831 81.208213 
L 127.632623 126.192122 
L 128.096416 76.573051 
L 128.560208 81.208213 
L 129.024 80.198749 
L 129.487792 118.896982 
L 129.951584 118.896982 
L 130.415377 119.873785 
L 130.879169 81.176404 
L 132.270545 81.208213 
L 132.734338 118.782573 
L 133.19813 81.208213 
L 133.661922 81.043689 
L 134.125714 94.410679 
L 134.589506 81.155089 
L 135.053299 159.64167 
L 135.517091 80.037143 
L 135.980883 111.78772 
L 136.444675 120.093456 
L 136.908468 85.582373 
L 137.37226 88.802346 
L 137.836052 81.155089 
L 138.299844 81.208213 
L 139.227429 150.262891 
L 139.691221 74.398116 
L 140.155013 81.208213 
L 140.618805 81.208213 
L 141.082597 80.139573 
L 141.54639 91.469124 
L 142.010182 81.208213 
L 142.473974 81.173622 
L 142.937766 118.896982 
L 143.401558 81.208213 
L 143.865351 77.845443 
L 144.329143 81.208213 
L 144.792935 81.257534 
L 145.256727 81.155089 
L 145.720519 78.815297 
L 146.184312 81.208213 
L 146.648104 81.208213 
L 147.111896 81.043689 
L 147.575688 81.208213 
L 148.503273 75.972767 
L 148.967065 91.434018 
L 149.430857 89.202571 
L 149.894649 81.208213 
L 151.286026 81.208213 
L 151.749818 81.043689 
L 152.21361 81.257534 
L 153.141195 81.155089 
L 153.604987 75.972767 
L 154.068779 81.260047 
L 154.532571 81.472851 
L 154.996364 84.607866 
L 155.460156 79.818907 
L 155.923948 89.202571 
L 156.38774 81.208213 
L 156.851532 82.602863 
L 157.315325 81.155089 
L 158.242909 81.176404 
L 158.706701 76.089497 
L 159.170494 79.394711 
L 159.634286 76.688861 
L 160.098078 81.260047 
L 161.025662 81.208213 
L 161.953247 81.208213 
L 162.417039 80.63978 
L 162.880831 71.7236 
L 163.344623 85.245977 
L 163.808416 84.960307 
L 164.272208 86.052446 
L 164.736 81.208213 
L 165.199792 81.472851 
L 165.663584 92.015158 
L 166.127377 81.501045 
L 166.591169 81.208213 
L 167.982545 81.257534 
L 168.446338 75.972767 
L 168.91013 81.208213 
L 169.373922 81.208213 
L 170.301506 78.576617 
L 170.765299 75.197085 
L 171.229091 80.1534 
L 171.692883 87.121211 
L 172.156675 85.924168 
L 172.620468 85.587207 
L 173.08426 78.815297 
L 173.548052 83.130585 
L 174.011844 81.208213 
L 174.475636 81.208213 
L 174.939429 86.968012 
L 175.403221 81.199839 
L 176.330805 81.208213 
L 176.794597 85.023759 
L 177.25839 91.662626 
L 177.722182 82.51628 
L 178.185974 81.407789 
L 178.649766 81.208213 
L 179.113558 81.208213 
L 179.577351 80.614341 
L 180.041143 81.208213 
L 180.504935 81.208213 
L 180.968727 76.373871 
L 181.432519 77.32423 
L 181.896312 76.227435 
L 182.360104 85.587207 
L 182.823896 75.641847 
L 183.287688 76.227435 
L 184.215273 86.348872 
L 184.679065 82.82922 
L 185.142857 83.292592 
L 185.606649 112.547848 
L 186.070442 84.288752 
L 186.534234 79.665631 
L 186.998026 111.948164 
L 187.461818 78.968712 
L 187.92561 85.846403 
L 188.389403 81.208213 
L 188.853195 78.755948 
L 189.316987 91.898177 
L 189.780779 78.727266 
L 190.244571 72.961844 
L 190.708364 71.62218 
L 191.172156 73.115892 
L 192.09974 177.229411 
L 192.563532 81.383575 
L 193.027325 158.856918 
L 193.491117 114.245268 
L 193.954909 102.97764 
L 194.418701 66.284832 
L 194.882494 167.32701 
L 195.346286 177.150306 
L 195.810078 160.24488 
L 196.27387 125.768436 
L 196.737662 129.455673 
L 197.665247 73.343687 
L 198.129039 81.208213 
L 198.592831 143.206061 
L 199.056623 162.183336 
L 199.520416 134.15123 
L 199.984208 286.293562 
L 200.448 103.962674 
L 200.911792 92.779101 
L 201.375584 90.412481 
L 201.839377 100.704387 
L 202.303169 97.389169 
L 202.766961 202.0667 
L 203.230753 104.427318 
L 203.694545 178.024387 
L 204.158338 82.712808 
L 204.62213 102.258 
L 205.085922 90.292053 
L 205.549714 134.800162 
L 206.013506 88.014739 
L 206.477299 93.920195 
L 206.941091 107.543079 
L 207.404883 106.260251 
L 207.868675 89.222362 
L 208.332468 117.680844 
L 208.79626 101.377707 
L 209.260052 91.270069 
L 209.723844 86.959503 
L 210.187636 106.156809 
L 210.651429 84.070295 
L 211.115221 103.957155 
L 211.579013 88.517406 
L 212.042805 164.507092 
L 212.506597 97.389169 
L 212.97039 94.703797 
L 213.434182 98.633444 
L 213.897974 101.485478 
L 214.361766 89.675867 
L 214.825558 139.624618 
L 215.289351 105.633714 
L 215.753143 99.981395 
L 216.216935 89.465678 
L 216.680727 83.472976 
L 217.144519 119.897162 
L 217.608312 85.860599 
L 218.072104 104.010655 
L 218.535896 88.981849 
L 219.463481 76.215107 
L 219.927273 88.84322 
L 220.391065 104.861133 
L 220.854857 98.20429 
L 221.318649 82.807845 
L 221.782442 180.605149 
L 222.246234 82.942127 
L 222.710026 116.187385 
L 223.173818 113.874001 
L 223.63761 102.400532 
L 224.101403 82.613859 
L 224.565195 91.623765 
L 225.028987 97.881909 
L 225.492779 119.068822 
L 226.420364 96.028137 
L 226.884156 102.852148 
L 227.347948 92.826805 
L 227.81174 91.587332 
L 228.275532 94.576082 
L 228.739325 180.605149 
L 229.203117 109.365978 
L 229.666909 89.241473 
L 230.130701 121.537292 
L 230.594494 93.488976 
L 231.058286 89.893837 
L 231.522078 101.377707 
L 231.98587 82.794418 
L 232.449662 90.11963 
L 232.913455 91.847688 
L 233.377247 89.521588 
L 233.841039 85.342803 
L 234.304831 234.510255 
L 234.768623 110.081997 
L 235.232416 89.766986 
L 235.696208 165.667615 
L 236.623792 85.117982 
L 237.087584 94.356863 
L 237.551377 89.031167 
L 238.015169 106.311656 
L 238.478961 184.95899 
L 238.942753 147.560412 
L 239.406545 89.905416 
L 239.870338 94.041688 
L 240.33413 139.827578 
L 240.797922 89.715128 
L 241.261714 104.01781 
L 241.725506 175.186239 
L 242.189299 103.173693 
L 242.653091 93.920195 
L 243.116883 113.38334 
L 243.580675 94.939692 
L 244.044468 115.37849 
L 244.50826 89.794734 
L 244.972052 94.041688 
L 245.435844 157.20262 
L 245.899636 181.883307 
L 246.363429 89.247039 
L 246.827221 100.814285 
L 247.291013 179.997846 
L 247.754805 98.738709 
L 248.218597 88.955032 
L 248.68239 90.174373 
L 249.146182 180.605149 
L 249.609974 99.669979 
L 250.073766 102.327252 
L 250.537558 181.883307 
L 251.001351 82.965313 
L 251.465143 91.065104 
L 251.928935 90.324275 
L 252.392727 180.605149 
L 252.856519 92.157315 
L 253.320312 94.071114 
L 253.784104 101.39748 
L 254.247896 90.174373 
L 254.711688 106.092643 
L 255.175481 101.535421 
L 255.639273 89.055786 
L 256.103065 135.039833 
L 256.566857 90.567893 
L 257.030649 91.10553 
L 257.494442 107.239877 
L 257.958234 97.385722 
L 258.422026 91.184331 
L 258.885818 81.704915 
L 259.34961 89.59961 
L 259.34961 89.59961 
" clip-path="url(#pf824216a19)" style="fill: none; stroke: #9467bd; stroke-width: 1.5; stroke-linecap: square"/>
   </g>
   <g id="line2d_22">
    <path d="M 73.832727 81.120795 
L 74.296519 78.73138 
L 74.760312 77.940532 
L 75.224104 80.776794 
L 75.687896 80.29783 
L 76.151688 62.064825 
L 76.615481 78.574352 
L 77.079273 80.804687 
L 77.543065 77.986424 
L 78.470649 76.072248 
L 78.934442 73.627029 
L 79.398234 75.230212 
L 79.862026 79.279885 
L 80.325818 64.323691 
L 80.78961 53.568 
L 81.253403 80.804687 
L 81.717195 73.204851 
L 82.180987 79.66332 
L 82.644779 82.759475 
L 83.108571 108.942739 
L 84.036156 67.134197 
L 84.499948 82.365574 
L 84.96374 68.974037 
L 85.427532 76.548635 
L 85.891325 123.228729 
L 86.355117 93.399423 
L 86.818909 79.148881 
L 87.282701 70.518615 
L 87.746494 70.693477 
L 88.210286 116.513971 
L 88.674078 81.914207 
L 89.13787 71.951778 
L 89.601662 69.889762 
L 90.065455 78.996501 
L 90.529247 79.947008 
L 90.993039 110.514943 
L 91.456831 80.194508 
L 91.920623 81.208213 
L 92.384416 81.08944 
L 92.848208 80.587923 
L 93.312 80.731322 
L 93.775792 73.991986 
L 94.239584 83.480009 
L 94.703377 81.208213 
L 95.167169 92.148164 
L 95.630961 81.052059 
L 96.094753 78.520694 
L 96.558545 68.634057 
L 97.022338 92.662899 
L 97.48613 82.238976 
L 97.949922 81.208213 
L 98.413714 81.208213 
L 98.877506 91.576199 
L 99.341299 81.208213 
L 99.805091 80.32266 
L 100.268883 81.615504 
L 100.732675 81.208213 
L 101.66026 81.208213 
L 102.124052 77.510463 
L 102.587844 63.840037 
L 103.515429 81.208213 
L 103.979221 81.208213 
L 104.443013 79.231016 
L 104.906805 74.736552 
L 105.370597 74.787809 
L 105.83439 75.804 
L 106.298182 78.503877 
L 106.761974 84.493125 
L 107.225766 97.86001 
L 107.689558 105.818936 
L 108.617143 81.208213 
L 109.080935 98.044482 
L 109.544727 81.615504 
L 110.008519 81.208213 
L 110.936104 81.208213 
L 111.399896 85.893687 
L 111.863688 108.322144 
L 112.327481 221.684978 
L 112.791273 89.374757 
L 113.255065 165.230457 
L 113.718857 113.784947 
L 114.182649 96.060989 
L 114.646442 98.044482 
L 115.110234 119.39976 
L 115.574026 150.134011 
L 116.037818 85.076865 
L 116.50161 88.957257 
L 116.965403 81.043689 
L 117.429195 98.044482 
L 117.892987 79.818907 
L 118.356779 99.266901 
L 118.820571 150.14555 
L 119.284364 80.09024 
L 120.211948 97.909479 
L 121.139532 81.208213 
L 121.603325 81.208213 
L 122.067117 153.819265 
L 122.530909 88.971727 
L 122.994701 81.208213 
L 123.458494 81.208213 
L 123.922286 82.928823 
L 124.386078 80.729512 
L 124.84987 92.045628 
L 125.313662 76.707012 
L 125.777455 117.452001 
L 126.241247 81.208213 
L 126.705039 86.115294 
L 127.168831 81.208213 
L 127.632623 126.192122 
L 128.096416 76.573051 
L 128.560208 81.208213 
L 129.024 80.198749 
L 129.487792 118.896982 
L 129.951584 118.896982 
L 130.415377 119.873785 
L 130.879169 81.176404 
L 132.270545 81.208213 
L 132.734338 118.782573 
L 133.19813 81.208213 
L 133.661922 81.043689 
L 134.125714 94.410679 
L 134.589506 81.155089 
L 135.053299 159.64167 
L 135.517091 80.037143 
L 135.980883 111.78772 
L 136.444675 120.093456 
L 136.908468 85.582373 
L 137.37226 88.802346 
L 137.836052 81.155089 
L 138.299844 81.208213 
L 139.227429 150.262891 
L 139.691221 74.398116 
L 140.155013 81.208213 
L 140.618805 81.208213 
L 141.082597 80.139573 
L 141.54639 91.469124 
L 142.010182 81.208213 
L 142.473974 81.173622 
L 142.937766 118.896982 
L 143.401558 81.208213 
L 143.865351 77.845443 
L 144.329143 81.208213 
L 144.792935 81.257534 
L 145.256727 81.155089 
L 145.720519 78.815297 
L 146.184312 81.208213 
L 146.648104 81.208213 
L 147.111896 81.043689 
L 147.575688 81.208213 
L 148.503273 75.972767 
L 148.967065 91.434018 
L 149.430857 89.202571 
L 149.894649 81.208213 
L 151.286026 81.208213 
L 151.749818 81.043689 
L 152.21361 81.257534 
L 153.141195 81.155089 
L 153.604987 75.972767 
L 154.068779 81.260047 
L 154.532571 81.472851 
L 154.996364 84.607866 
L 155.460156 79.818907 
L 155.923948 89.202571 
L 156.38774 81.208213 
L 156.851532 82.602863 
L 157.315325 81.155089 
L 158.242909 81.176404 
L 158.706701 76.089497 
L 159.170494 79.394711 
L 159.634286 76.688861 
L 160.098078 81.260047 
L 161.025662 81.208213 
L 161.953247 81.208213 
L 162.417039 80.63978 
L 162.880831 71.7236 
L 163.344623 85.245977 
L 163.808416 84.960307 
L 164.272208 86.052446 
L 164.736 81.208213 
L 165.199792 81.472851 
L 165.663584 92.015158 
L 166.127377 81.501045 
L 166.591169 81.208213 
L 167.982545 81.257534 
L 168.446338 75.972767 
L 168.91013 81.208213 
L 169.373922 81.208213 
L 170.301506 78.576617 
L 170.765299 75.197085 
L 171.229091 80.1534 
L 171.692883 87.121211 
L 172.156675 85.924168 
L 172.620468 85.587207 
L 173.08426 78.815297 
L 173.548052 83.130585 
L 174.011844 81.208213 
L 174.475636 81.208213 
L 174.939429 86.968012 
L 175.403221 81.199839 
L 176.330805 81.208213 
L 176.794597 85.023759 
L 177.25839 91.662626 
L 177.722182 82.51628 
L 178.185974 81.407789 
L 178.649766 81.208213 
L 179.113558 81.208213 
L 179.577351 80.614341 
L 180.041143 81.208213 
L 180.504935 81.208213 
L 180.968727 76.373871 
L 181.432519 77.32423 
L 181.896312 76.227435 
L 182.360104 85.587207 
L 182.823896 75.641847 
L 183.287688 76.227435 
L 184.215273 86.348872 
L 184.679065 82.82922 
L 185.142857 83.292592 
L 185.606649 112.547848 
L 186.070442 84.288752 
L 186.534234 79.665631 
L 186.998026 111.948164 
L 187.461818 78.968712 
L 187.92561 85.846403 
L 188.389403 81.208213 
L 188.853195 78.755948 
L 189.316987 91.898177 
L 189.780779 78.727266 
L 190.244571 72.961844 
L 190.708364 71.62218 
L 191.172156 73.115892 
L 192.09974 177.229411 
L 192.563532 81.383575 
L 193.027325 158.856918 
L 193.491117 114.245268 
L 193.954909 102.97764 
L 194.418701 66.284832 
L 194.882494 167.32701 
L 195.346286 177.150306 
L 195.810078 160.24488 
L 196.27387 125.768436 
L 196.737662 129.455673 
L 197.665247 73.343687 
L 198.129039 81.208213 
L 198.592831 143.206061 
L 199.056623 162.183336 
L 199.520416 134.15123 
L 199.984208 286.293562 
L 200.448 103.962674 
L 200.911792 92.779101 
L 201.375584 90.412481 
L 201.839377 100.704387 
L 202.303169 97.389169 
L 202.766961 202.0667 
L 203.230753 104.427318 
L 203.694545 178.024387 
L 204.158338 82.712808 
L 204.62213 102.258 
L 205.085922 90.292053 
L 205.549714 134.800162 
L 206.013506 88.014739 
L 206.477299 93.920195 
L 206.941091 107.543079 
L 207.404883 106.260251 
L 207.868675 89.222362 
L 208.332468 117.680844 
L 208.79626 101.377707 
L 209.260052 91.270069 
L 209.723844 86.959503 
L 210.187636 106.156809 
L 210.651429 84.070295 
L 211.115221 103.957155 
L 211.579013 88.517406 
L 212.042805 164.507092 
L 212.506597 97.389169 
L 212.97039 94.703797 
L 213.434182 98.633444 
L 213.897974 101.485478 
L 214.361766 89.675867 
L 214.825558 139.624618 
L 215.289351 105.633714 
L 215.753143 99.981395 
L 216.216935 89.465678 
L 216.680727 83.472976 
L 217.144519 119.897162 
L 217.608312 85.860599 
L 218.072104 104.010655 
L 218.535896 88.981849 
L 219.463481 76.215107 
L 219.927273 88.84322 
L 220.391065 104.861133 
L 220.854857 98.20429 
L 221.318649 82.807845 
L 221.782442 180.605149 
L 222.246234 82.942127 
L 222.710026 116.187385 
L 223.173818 113.874001 
L 223.63761 102.400532 
L 224.101403 82.613859 
L 224.565195 91.623765 
L 225.028987 97.881909 
L 225.492779 119.068822 
L 226.420364 96.028137 
L 226.884156 102.852148 
L 227.347948 92.826805 
L 227.81174 91.587332 
L 228.275532 94.576082 
L 228.739325 180.605149 
L 229.203117 109.365978 
L 229.666909 89.241473 
L 230.130701 121.537292 
L 230.594494 93.488976 
L 231.058286 89.893837 
L 231.522078 101.377707 
L 231.98587 82.794418 
L 232.449662 90.11963 
L 232.913455 91.847688 
L 233.377247 89.521588 
L 233.841039 85.342803 
L 234.304831 234.510255 
L 234.768623 110.081997 
L 235.232416 89.766986 
L 235.696208 165.667615 
L 236.623792 85.117982 
L 237.087584 94.356863 
L 237.551377 89.031167 
L 238.015169 106.311656 
L 238.478961 184.95899 
L 238.942753 147.560412 
L 239.406545 89.905416 
L 239.870338 94.041688 
L 240.33413 139.827578 
L 240.797922 89.715128 
L 241.261714 104.01781 
L 241.725506 175.186239 
L 242.189299 103.173693 
L 242.653091 93.920195 
L 243.116883 113.38334 
L 243.580675 94.939692 
L 244.044468 115.37849 
L 244.50826 89.794734 
L 244.972052 94.041688 
L 245.435844 157.20262 
L 245.899636 181.883307 
L 246.363429 89.247039 
L 246.827221 100.814285 
L 247.291013 179.997846 
L 247.754805 98.738709 
L 248.218597 88.955032 
L 248.68239 90.174373 
L 249.146182 180.605149 
L 249.609974 99.669979 
L 250.073766 102.327252 
L 250.537558 181.883307 
L 251.001351 82.965313 
L 251.465143 91.065104 
L 251.928935 90.324275 
L 252.392727 180.605149 
L 252.856519 92.157315 
L 253.320312 94.071114 
L 253.784104 101.39748 
L 254.247896 90.174373 
L 254.711688 106.092643 
L 255.175481 101.535421 
L 255.639273 89.055786 
L 256.103065 135.039833 
L 256.566857 90.567893 
L 257.030649 91.10553 
L 257.494442 107.239877 
L 257.958234 97.385722 
L 258.422026 91.184331 
L 258.885818 81.704915 
L 259.34961 89.59961 
L 259.813403 123.094702 
L 260.277195 84.707588 
L 260.740987 103.753266 
L 261.204779 101.79526 
L 261.668571 100.620092 
L 262.132364 89.031167 
L 262.596156 100.620092 
L 263.059948 90.162454 
L 263.52374 84.142084 
L 263.987532 104.057373 
L 264.451325 90.081436 
L 264.915117 182.312316 
L 265.378909 90.505091 
L 265.842701 94.834206 
L 266.306494 147.102482 
L 266.770286 101.050056 
L 267.234078 94.665317 
L 267.69787 90.081436 
L 268.161662 81.208213 
L 268.625455 129.741553 
L 269.089247 90.205371 
L 269.553039 106.065574 
L 270.016831 90.689474 
L 270.480623 135.039833 
L 270.944416 89.774163 
L 271.408208 94.585557 
L 271.872 91.645337 
L 272.335792 98.568241 
L 272.799584 83.406277 
L 273.263377 84.536727 
L 273.727169 91.788814 
L 274.190961 114.824413 
L 274.654753 208.228148 
L 275.118545 89.362458 
L 275.582338 173.044771 
L 276.04613 83.660814 
L 276.509922 143.083192 
L 276.973714 97.117513 
L 277.437506 81.907112 
L 278.365091 106.029159 
L 278.828883 113.175002 
L 279.292675 91.84281 
L 279.756468 98.605381 
L 280.22026 89.817753 
L 280.684052 85.617925 
L 281.147844 92.275622 
L 282.075429 90.297085 
L 282.539221 90.449378 
L 283.003013 116.102428 
L 283.466805 179.634187 
L 283.930597 93.861879 
L 284.39439 88.956208 
L 284.858182 180.605149 
L 285.321974 92.389702 
L 285.785766 98.794935 
L 286.249558 91.184331 
L 286.713351 90.412481 
L 287.177143 94.071114 
L 287.640935 89.794734 
L 288.104727 100.469052 
L 288.568519 120.17046 
L 289.032312 88.266435 
L 289.496104 90.171584 
L 289.959896 165.773614 
L 290.423688 96.976177 
L 290.887481 91.110258 
L 291.351273 89.898694 
L 291.815065 150.282275 
L 292.278857 94.571024 
L 292.742649 95.470107 
L 293.206442 102.348221 
L 293.670234 76.258906 
L 294.134026 90.297085 
L 294.597818 88.981849 
L 295.06161 94.041688 
L 295.525403 89.055786 
L 295.989195 90.449378 
L 296.916779 91.269679 
L 297.380571 93.3901 
L 297.844364 83.100506 
L 298.308156 127.403265 
L 298.771948 89.270842 
L 299.23574 88.955032 
L 299.699532 94.041688 
L 300.163325 91.10553 
L 300.627117 90.808319 
L 301.090909 89.478808 
L 301.554701 107.448717 
L 302.018494 90.297085 
L 302.482286 91.10553 
L 302.946078 90.689474 
L 303.40987 98.568241 
L 303.873662 100.712635 
L 304.337455 90.171584 
L 304.801247 90.11963 
L 305.265039 173.089316 
L 305.728831 104.317479 
L 305.728831 104.317479 
" clip-path="url(#pf824216a19)" style="fill: none; stroke: #8c564b; stroke-width: 1.5; stroke-linecap: square"/>
   </g>
   <g id="line2d_23">
    <path d="M 73.832727 81.120795 
L 74.296519 78.73138 
L 74.760312 77.940532 
L 75.224104 80.776794 
L 75.687896 80.29783 
L 76.151688 62.064825 
L 76.615481 78.574352 
L 77.079273 80.804687 
L 77.543065 77.986424 
L 78.470649 76.072248 
L 78.934442 73.627029 
L 79.398234 75.230212 
L 79.862026 79.279885 
L 80.325818 64.323691 
L 80.78961 53.568 
L 81.253403 80.804687 
L 81.717195 73.204851 
L 82.180987 79.66332 
L 82.644779 82.759475 
L 83.108571 108.942739 
L 84.036156 67.134197 
L 84.499948 82.365574 
L 84.96374 68.974037 
L 85.427532 76.548635 
L 85.891325 123.228729 
L 86.355117 93.399423 
L 86.818909 79.148881 
L 87.282701 70.518615 
L 87.746494 70.693477 
L 88.210286 116.513971 
L 88.674078 81.914207 
L 89.13787 71.951778 
L 89.601662 69.889762 
L 90.065455 78.996501 
L 90.529247 79.947008 
L 90.993039 110.514943 
L 91.456831 80.194508 
L 91.920623 81.208213 
L 92.384416 81.08944 
L 92.848208 80.587923 
L 93.312 80.731322 
L 93.775792 73.991986 
L 94.239584 83.480009 
L 94.703377 81.208213 
L 95.167169 92.148164 
L 95.630961 81.052059 
L 96.094753 78.520694 
L 96.558545 68.634057 
L 97.022338 92.662899 
L 97.48613 82.238976 
L 97.949922 81.208213 
L 98.413714 81.208213 
L 98.877506 91.576199 
L 99.341299 81.208213 
L 99.805091 80.32266 
L 100.268883 81.615504 
L 100.732675 81.208213 
L 101.66026 81.208213 
L 102.124052 77.510463 
L 102.587844 63.840037 
L 103.515429 81.208213 
L 103.979221 81.208213 
L 104.443013 79.231016 
L 104.906805 74.736552 
L 105.370597 74.787809 
L 105.83439 75.804 
L 106.298182 78.503877 
L 106.761974 84.493125 
L 107.225766 97.86001 
L 107.689558 105.818936 
L 108.617143 81.208213 
L 109.080935 98.044482 
L 109.544727 81.615504 
L 110.008519 81.208213 
L 110.936104 81.208213 
L 111.399896 85.893687 
L 111.863688 108.322144 
L 112.327481 221.684978 
L 112.791273 89.374757 
L 113.255065 165.230457 
L 113.718857 113.784947 
L 114.182649 96.060989 
L 114.646442 98.044482 
L 115.110234 119.39976 
L 115.574026 150.134011 
L 116.037818 85.076865 
L 116.50161 88.957257 
L 116.965403 81.043689 
L 117.429195 98.044482 
L 117.892987 79.818907 
L 118.356779 99.266901 
L 118.820571 150.14555 
L 119.284364 80.09024 
L 120.211948 97.909479 
L 121.139532 81.208213 
L 121.603325 81.208213 
L 122.067117 153.819265 
L 122.530909 88.971727 
L 122.994701 81.208213 
L 123.458494 81.208213 
L 123.922286 82.928823 
L 124.386078 80.729512 
L 124.84987 92.045628 
L 125.313662 76.707012 
L 125.777455 117.452001 
L 126.241247 81.208213 
L 126.705039 86.115294 
L 127.168831 81.208213 
L 127.632623 126.192122 
L 128.096416 76.573051 
L 128.560208 81.208213 
L 129.024 80.198749 
L 129.487792 118.896982 
L 129.951584 118.896982 
L 130.415377 119.873785 
L 130.879169 81.176404 
L 132.270545 81.208213 
L 132.734338 118.782573 
L 133.19813 81.208213 
L 133.661922 81.043689 
L 134.125714 94.410679 
L 134.589506 81.155089 
L 135.053299 159.64167 
L 135.517091 80.037143 
L 135.980883 111.78772 
L 136.444675 120.093456 
L 136.908468 85.582373 
L 137.37226 88.802346 
L 137.836052 81.155089 
L 138.299844 81.208213 
L 139.227429 150.262891 
L 139.691221 74.398116 
L 140.155013 81.208213 
L 140.618805 81.208213 
L 141.082597 80.139573 
L 141.54639 91.469124 
L 142.010182 81.208213 
L 142.473974 81.173622 
L 142.937766 118.896982 
L 143.401558 81.208213 
L 143.865351 77.845443 
L 144.329143 81.208213 
L 144.792935 81.257534 
L 145.256727 81.155089 
L 145.720519 78.815297 
L 146.184312 81.208213 
L 146.648104 81.208213 
L 147.111896 81.043689 
L 147.575688 81.208213 
L 148.503273 75.972767 
L 148.967065 91.434018 
L 149.430857 89.202571 
L 149.894649 81.208213 
L 151.286026 81.208213 
L 151.749818 81.043689 
L 152.21361 81.257534 
L 153.141195 81.155089 
L 153.604987 75.972767 
L 154.068779 81.260047 
L 154.532571 81.472851 
L 154.996364 84.607866 
L 155.460156 79.818907 
L 155.923948 89.202571 
L 156.38774 81.208213 
L 156.851532 82.602863 
L 157.315325 81.155089 
L 158.242909 81.176404 
L 158.706701 76.089497 
L 159.170494 79.394711 
L 159.634286 76.688861 
L 160.098078 81.260047 
L 161.025662 81.208213 
L 161.953247 81.208213 
L 162.417039 80.63978 
L 162.880831 71.7236 
L 163.344623 85.245977 
L 163.808416 84.960307 
L 164.272208 86.052446 
L 164.736 81.208213 
L 165.199792 81.472851 
L 165.663584 92.015158 
L 166.127377 81.501045 
L 166.591169 81.208213 
L 167.982545 81.257534 
L 168.446338 75.972767 
L 168.91013 81.208213 
L 169.373922 81.208213 
L 170.301506 78.576617 
L 170.765299 75.197085 
L 171.229091 80.1534 
L 171.692883 87.121211 
L 172.156675 85.924168 
L 172.620468 85.587207 
L 173.08426 78.815297 
L 173.548052 83.130585 
L 174.011844 81.208213 
L 174.475636 81.208213 
L 174.939429 86.968012 
L 175.403221 81.199839 
L 176.330805 81.208213 
L 176.794597 85.023759 
L 177.25839 91.662626 
L 177.722182 82.51628 
L 178.185974 81.407789 
L 178.649766 81.208213 
L 179.113558 81.208213 
L 179.577351 80.614341 
L 180.041143 81.208213 
L 180.504935 81.208213 
L 180.968727 76.373871 
L 181.432519 77.32423 
L 181.896312 76.227435 
L 182.360104 85.587207 
L 182.823896 75.641847 
L 183.287688 76.227435 
L 184.215273 86.348872 
L 184.679065 82.82922 
L 185.142857 83.292592 
L 185.606649 112.547848 
L 186.070442 84.288752 
L 186.534234 79.665631 
L 186.998026 111.948164 
L 187.461818 78.968712 
L 187.92561 85.846403 
L 188.389403 81.208213 
L 188.853195 78.755948 
L 189.316987 91.898177 
L 189.780779 78.727266 
L 190.244571 72.961844 
L 190.708364 71.62218 
L 191.172156 73.115892 
L 192.09974 177.229411 
L 192.563532 81.383575 
L 193.027325 158.856918 
L 193.491117 114.245268 
L 193.954909 102.97764 
L 194.418701 66.284832 
L 194.882494 167.32701 
L 195.346286 177.150306 
L 195.810078 160.24488 
L 196.27387 125.768436 
L 196.737662 129.455673 
L 197.665247 73.343687 
L 198.129039 81.208213 
L 198.592831 143.206061 
L 199.056623 162.183336 
L 199.520416 134.15123 
L 199.984208 286.293562 
L 200.448 103.962674 
L 200.911792 92.779101 
L 201.375584 90.412481 
L 201.839377 100.704387 
L 202.303169 97.389169 
L 202.766961 202.0667 
L 203.230753 104.427318 
L 203.694545 178.024387 
L 204.158338 82.712808 
L 204.62213 102.258 
L 205.085922 90.292053 
L 205.549714 134.800162 
L 206.013506 88.014739 
L 206.477299 93.920195 
L 206.941091 107.543079 
L 207.404883 106.260251 
L 207.868675 89.222362 
L 208.332468 117.680844 
L 208.79626 101.377707 
L 209.260052 91.270069 
L 209.723844 86.959503 
L 210.187636 106.156809 
L 210.651429 84.070295 
L 211.115221 103.957155 
L 211.579013 88.517406 
L 212.042805 164.507092 
L 212.506597 97.389169 
L 212.97039 94.703797 
L 213.434182 98.633444 
L 213.897974 101.485478 
L 214.361766 89.675867 
L 214.825558 139.624618 
L 215.289351 105.633714 
L 215.753143 99.981395 
L 216.216935 89.465678 
L 216.680727 83.472976 
L 217.144519 119.897162 
L 217.608312 85.860599 
L 218.072104 104.010655 
L 218.535896 88.981849 
L 219.463481 76.215107 
L 219.927273 88.84322 
L 220.391065 104.861133 
L 220.854857 98.20429 
L 221.318649 82.807845 
L 221.782442 180.605149 
L 222.246234 82.942127 
L 222.710026 116.187385 
L 223.173818 113.874001 
L 223.63761 102.400532 
L 224.101403 82.613859 
L 224.565195 91.623765 
L 225.028987 97.881909 
L 225.492779 119.068822 
L 226.420364 96.028137 
L 226.884156 102.852148 
L 227.347948 92.826805 
L 227.81174 91.587332 
L 228.275532 94.576082 
L 228.739325 180.605149 
L 229.203117 109.365978 
L 229.666909 89.241473 
L 230.130701 121.537292 
L 230.594494 93.488976 
L 231.058286 89.893837 
L 231.522078 101.377707 
L 231.98587 82.794418 
L 232.449662 90.11963 
L 232.913455 91.847688 
L 233.377247 89.521588 
L 233.841039 85.342803 
L 234.304831 234.510255 
L 234.768623 110.081997 
L 235.232416 89.766986 
L 235.696208 165.667615 
L 236.623792 85.117982 
L 237.087584 94.356863 
L 237.551377 89.031167 
L 238.015169 106.311656 
L 238.478961 184.95899 
L 238.942753 147.560412 
L 239.406545 89.905416 
L 239.870338 94.041688 
L 240.33413 139.827578 
L 240.797922 89.715128 
L 241.261714 104.01781 
L 241.725506 175.186239 
L 242.189299 103.173693 
L 242.653091 93.920195 
L 243.116883 113.38334 
L 243.580675 94.939692 
L 244.044468 115.37849 
L 244.50826 89.794734 
L 244.972052 94.041688 
L 245.435844 157.20262 
L 245.899636 181.883307 
L 246.363429 89.247039 
L 246.827221 100.814285 
L 247.291013 179.997846 
L 247.754805 98.738709 
L 248.218597 88.955032 
L 248.68239 90.174373 
L 249.146182 180.605149 
L 249.609974 99.669979 
L 250.073766 102.327252 
L 250.537558 181.883307 
L 251.001351 82.965313 
L 251.465143 91.065104 
L 251.928935 90.324275 
L 252.392727 180.605149 
L 252.856519 92.157315 
L 253.320312 94.071114 
L 253.784104 101.39748 
L 254.247896 90.174373 
L 254.711688 106.092643 
L 255.175481 101.535421 
L 255.639273 89.055786 
L 256.103065 135.039833 
L 256.566857 90.567893 
L 257.030649 91.10553 
L 257.494442 107.239877 
L 257.958234 97.385722 
L 258.422026 91.184331 
L 258.885818 81.704915 
L 259.34961 89.59961 
L 259.813403 123.094702 
L 260.277195 84.707588 
L 260.740987 103.753266 
L 261.204779 101.79526 
L 261.668571 100.620092 
L 262.132364 89.031167 
L 262.596156 100.620092 
L 263.059948 90.162454 
L 263.52374 84.142084 
L 263.987532 104.057373 
L 264.451325 90.081436 
L 264.915117 182.312316 
L 265.378909 90.505091 
L 265.842701 94.834206 
L 266.306494 147.102482 
L 266.770286 101.050056 
L 267.234078 94.665317 
L 267.69787 90.081436 
L 268.161662 81.208213 
L 268.625455 129.741553 
L 269.089247 90.205371 
L 269.553039 106.065574 
L 270.016831 90.689474 
L 270.480623 135.039833 
L 270.944416 89.774163 
L 271.408208 94.585557 
L 271.872 91.645337 
L 272.335792 98.568241 
L 272.799584 83.406277 
L 273.263377 84.536727 
L 273.727169 91.788814 
L 274.190961 114.824413 
L 274.654753 208.228148 
L 275.118545 89.362458 
L 275.582338 173.044771 
L 276.04613 83.660814 
L 276.509922 143.083192 
L 276.973714 97.117513 
L 277.437506 81.907112 
L 278.365091 106.029159 
L 278.828883 113.175002 
L 279.292675 91.84281 
L 279.756468 98.605381 
L 280.22026 89.817753 
L 280.684052 85.617925 
L 281.147844 92.275622 
L 282.075429 90.297085 
L 282.539221 90.449378 
L 283.003013 116.102428 
L 283.466805 179.634187 
L 283.930597 93.861879 
L 284.39439 88.956208 
L 284.858182 180.605149 
L 285.321974 92.389702 
L 285.785766 98.794935 
L 286.249558 91.184331 
L 286.713351 90.412481 
L 287.177143 94.071114 
L 287.640935 89.794734 
L 288.104727 100.469052 
L 288.568519 120.17046 
L 289.032312 88.266435 
L 289.496104 90.171584 
L 289.959896 165.773614 
L 290.423688 96.976177 
L 290.887481 91.110258 
L 291.351273 89.898694 
L 291.815065 150.282275 
L 292.278857 94.571024 
L 292.742649 95.470107 
L 293.206442 102.348221 
L 293.670234 76.258906 
L 294.134026 90.297085 
L 294.597818 88.981849 
L 295.06161 94.041688 
L 295.525403 89.055786 
L 295.989195 90.449378 
L 296.916779 91.269679 
L 297.380571 93.3901 
L 297.844364 83.100506 
L 298.308156 127.403265 
L 298.771948 89.270842 
L 299.23574 88.955032 
L 299.699532 94.041688 
L 300.163325 91.10553 
L 300.627117 90.808319 
L 301.090909 89.478808 
L 301.554701 107.448717 
L 302.018494 90.297085 
L 302.482286 91.10553 
L 302.946078 90.689474 
L 303.40987 98.568241 
L 303.873662 100.712635 
L 304.337455 90.171584 
L 304.801247 90.11963 
L 305.265039 173.089316 
L 305.728831 104.317479 
L 306.192623 116.311384 
L 306.656416 90.449378 
L 307.120208 94.041688 
L 307.584 89.270842 
L 308.047792 103.230092 
L 308.511584 89.905416 
L 308.975377 102.177447 
L 309.439169 94.410459 
L 309.902961 105.051358 
L 310.366753 88.955032 
L 310.830545 99.715826 
L 311.294338 94.041688 
L 311.75813 98.00999 
L 312.221922 90.089037 
L 312.685714 92.389702 
L 313.149506 89.007323 
L 313.613299 98.00999 
L 314.077091 115.878975 
L 314.540883 110.910926 
L 315.004675 94.071114 
L 315.468468 90.174373 
L 315.93226 90.089037 
L 316.396052 116.050449 
L 316.859844 94.410459 
L 317.323636 91.894712 
L 317.787429 94.991963 
L 318.251221 90.651545 
L 318.715013 91.587332 
L 319.178805 93.861879 
L 319.642597 89.270842 
L 320.10639 175.186239 
L 320.570182 92.131858 
L 321.033974 88.981849 
L 321.497766 92.063025 
L 321.961558 179.634187 
L 322.425351 104.010655 
L 322.889143 90.11963 
L 323.352935 89.270842 
L 323.816727 99.901808 
L 324.280519 90.11963 
L 324.744312 113.880454 
L 325.208104 91.10553 
L 325.671896 91.858695 
L 326.135688 89.031167 
L 326.599481 88.981849 
L 327.063273 90.292053 
L 327.527065 74.084562 
L 327.990857 89.478808 
L 328.454649 164.794843 
L 328.918442 94.236313 
L 329.382234 103.960359 
L 329.846026 90.449378 
L 330.309818 88.981849 
L 330.77361 90.089037 
L 331.237403 120.333741 
L 331.701195 139.417015 
L 332.164987 89.465678 
L 332.628779 90.449378 
L 333.092571 86.005306 
L 333.556364 96.028137 
L 334.020156 89.247039 
L 334.483948 92.779101 
L 334.94774 89.055786 
L 335.411532 89.007323 
L 335.875325 116.102428 
L 336.339117 89.905416 
L 336.802909 93.920195 
L 337.266701 93.571394 
L 337.730494 94.041688 
L 338.194286 175.186239 
L 338.658078 141.172295 
L 339.12187 90.11963 
L 339.585662 90.412481 
L 340.049455 84.546701 
L 340.513247 90.412481 
L 340.977039 94.071114 
L 341.440831 94.410459 
L 341.904623 90.808319 
L 342.368416 100.712635 
L 342.832208 88.981849 
L 343.296 94.174829 
L 343.759792 88.955032 
L 344.223584 93.571394 
L 344.687377 117.925354 
L 345.151169 180.605149 
L 345.614961 91.184331 
L 346.078753 113.321941 
L 346.542545 93.571394 
L 347.006338 89.247039 
L 347.47013 89.471886 
L 347.933922 90.689474 
L 348.397714 98.632586 
L 348.861506 110.935346 
L 349.325299 89.055786 
L 349.789091 90.089037 
L 350.252883 88.981849 
L 350.716675 175.186239 
L 351.180468 101.58588 
L 351.64426 94.071114 
L 352.108052 88.981849 
L 352.108052 88.981849 
" clip-path="url(#pf824216a19)" style="fill: none; stroke: #e377c2; stroke-width: 1.5; stroke-linecap: square"/>
   </g>
   <g id="line2d_24">
    <path d="M 73.832727 81.120795 
L 74.296519 78.73138 
L 74.760312 77.940532 
L 75.224104 80.776794 
L 75.687896 80.29783 
L 76.151688 62.064825 
L 76.615481 78.574352 
L 77.079273 80.804687 
L 77.543065 77.986424 
L 78.470649 76.072248 
L 78.934442 73.627029 
L 79.398234 75.230212 
L 79.862026 79.279885 
L 80.325818 64.323691 
L 80.78961 53.568 
L 81.253403 80.804687 
L 81.717195 73.204851 
L 82.180987 79.66332 
L 82.644779 82.759475 
L 83.108571 108.942739 
L 84.036156 67.134197 
L 84.499948 82.365574 
L 84.96374 68.974037 
L 85.427532 76.548635 
L 85.891325 123.228729 
L 86.355117 93.399423 
L 86.818909 79.148881 
L 87.282701 70.518615 
L 87.746494 70.693477 
L 88.210286 116.513971 
L 88.674078 81.914207 
L 89.13787 71.951778 
L 89.601662 69.889762 
L 90.065455 78.996501 
L 90.529247 79.947008 
L 90.993039 110.514943 
L 91.456831 80.194508 
L 91.920623 81.208213 
L 92.384416 81.08944 
L 92.848208 80.587923 
L 93.312 80.731322 
L 93.775792 73.991986 
L 94.239584 83.480009 
L 94.703377 81.208213 
L 95.167169 92.148164 
L 95.630961 81.052059 
L 96.094753 78.520694 
L 96.558545 68.634057 
L 97.022338 92.662899 
L 97.48613 82.238976 
L 97.949922 81.208213 
L 98.413714 81.208213 
L 98.877506 91.576199 
L 99.341299 81.208213 
L 99.805091 80.32266 
L 100.268883 81.615504 
L 100.732675 81.208213 
L 101.66026 81.208213 
L 102.124052 77.510463 
L 102.587844 63.840037 
L 103.515429 81.208213 
L 103.979221 81.208213 
L 104.443013 79.231016 
L 104.906805 74.736552 
L 105.370597 74.787809 
L 105.83439 75.804 
L 106.298182 78.503877 
L 106.761974 84.493125 
L 107.225766 97.86001 
L 107.689558 105.818936 
L 108.617143 81.208213 
L 109.080935 98.044482 
L 109.544727 81.615504 
L 110.008519 81.208213 
L 110.936104 81.208213 
L 111.399896 85.893687 
L 111.863688 108.322144 
L 112.327481 221.684978 
L 112.791273 89.374757 
L 113.255065 165.230457 
L 113.718857 113.784947 
L 114.182649 96.060989 
L 114.646442 98.044482 
L 115.110234 119.39976 
L 115.574026 150.134011 
L 116.037818 85.076865 
L 116.50161 88.957257 
L 116.965403 81.043689 
L 117.429195 98.044482 
L 117.892987 79.818907 
L 118.356779 99.266901 
L 118.820571 150.14555 
L 119.284364 80.09024 
L 120.211948 97.909479 
L 121.139532 81.208213 
L 121.603325 81.208213 
L 122.067117 153.819265 
L 122.530909 88.971727 
L 122.994701 81.208213 
L 123.458494 81.208213 
L 123.922286 82.928823 
L 124.386078 80.729512 
L 124.84987 92.045628 
L 125.313662 76.707012 
L 125.777455 117.452001 
L 126.241247 81.208213 
L 126.705039 86.115294 
L 127.168831 81.208213 
L 127.632623 126.192122 
L 128.096416 76.573051 
L 128.560208 81.208213 
L 129.024 80.198749 
L 129.487792 118.896982 
L 129.951584 118.896982 
L 130.415377 119.873785 
L 130.879169 81.176404 
L 132.270545 81.208213 
L 132.734338 118.782573 
L 133.19813 81.208213 
L 133.661922 81.043689 
L 134.125714 94.410679 
L 134.589506 81.155089 
L 135.053299 159.64167 
L 135.517091 80.037143 
L 135.980883 111.78772 
L 136.444675 120.093456 
L 136.908468 85.582373 
L 137.37226 88.802346 
L 137.836052 81.155089 
L 138.299844 81.208213 
L 139.227429 150.262891 
L 139.691221 74.398116 
L 140.155013 81.208213 
L 140.618805 81.208213 
L 141.082597 80.139573 
L 141.54639 91.469124 
L 142.010182 81.208213 
L 142.473974 81.173622 
L 142.937766 118.896982 
L 143.401558 81.208213 
L 143.865351 77.845443 
L 144.329143 81.208213 
L 144.792935 81.257534 
L 145.256727 81.155089 
L 145.720519 78.815297 
L 146.184312 81.208213 
L 146.648104 81.208213 
L 147.111896 81.043689 
L 147.575688 81.208213 
L 148.503273 75.972767 
L 148.967065 91.434018 
L 149.430857 89.202571 
L 149.894649 81.208213 
L 151.286026 81.208213 
L 151.749818 81.043689 
L 152.21361 81.257534 
L 153.141195 81.155089 
L 153.604987 75.972767 
L 154.068779 81.260047 
L 154.532571 81.472851 
L 154.996364 84.607866 
L 155.460156 79.818907 
L 155.923948 89.202571 
L 156.38774 81.208213 
L 156.851532 82.602863 
L 157.315325 81.155089 
L 158.242909 81.176404 
L 158.706701 76.089497 
L 159.170494 79.394711 
L 159.634286 76.688861 
L 160.098078 81.260047 
L 161.025662 81.208213 
L 161.953247 81.208213 
L 162.417039 80.63978 
L 162.880831 71.7236 
L 163.344623 85.245977 
L 163.808416 84.960307 
L 164.272208 86.052446 
L 164.736 81.208213 
L 165.199792 81.472851 
L 165.663584 92.015158 
L 166.127377 81.501045 
L 166.591169 81.208213 
L 167.982545 81.257534 
L 168.446338 75.972767 
L 168.91013 81.208213 
L 169.373922 81.208213 
L 170.301506 78.576617 
L 170.765299 75.197085 
L 171.229091 80.1534 
L 171.692883 87.121211 
L 172.156675 85.924168 
L 172.620468 85.587207 
L 173.08426 78.815297 
L 173.548052 83.130585 
L 174.011844 81.208213 
L 174.475636 81.208213 
L 174.939429 86.968012 
L 175.403221 81.199839 
L 176.330805 81.208213 
L 176.794597 85.023759 
L 177.25839 91.662626 
L 177.722182 82.51628 
L 178.185974 81.407789 
L 178.649766 81.208213 
L 179.113558 81.208213 
L 179.577351 80.614341 
L 180.041143 81.208213 
L 180.504935 81.208213 
L 180.968727 76.373871 
L 181.432519 77.32423 
L 181.896312 76.227435 
L 182.360104 85.587207 
L 182.823896 75.641847 
L 183.287688 76.227435 
L 184.215273 86.348872 
L 184.679065 82.82922 
L 185.142857 83.292592 
L 185.606649 112.547848 
L 186.070442 84.288752 
L 186.534234 79.665631 
L 186.998026 111.948164 
L 187.461818 78.968712 
L 187.92561 85.846403 
L 188.389403 81.208213 
L 188.853195 78.755948 
L 189.316987 91.898177 
L 189.780779 78.727266 
L 190.244571 72.961844 
L 190.708364 71.62218 
L 191.172156 73.115892 
L 192.09974 177.229411 
L 192.563532 81.383575 
L 193.027325 158.856918 
L 193.491117 114.245268 
L 193.954909 102.97764 
L 194.418701 66.284832 
L 194.882494 167.32701 
L 195.346286 177.150306 
L 195.810078 160.24488 
L 196.27387 125.768436 
L 196.737662 129.455673 
L 197.665247 73.343687 
L 198.129039 81.208213 
L 198.592831 143.206061 
L 199.056623 162.183336 
L 199.520416 134.15123 
L 199.984208 286.293562 
L 200.448 103.962674 
L 200.911792 92.779101 
L 201.375584 90.412481 
L 201.839377 100.704387 
L 202.303169 97.389169 
L 202.766961 202.0667 
L 203.230753 104.427318 
L 203.694545 178.024387 
L 204.158338 82.712808 
L 204.62213 102.258 
L 205.085922 90.292053 
L 205.549714 134.800162 
L 206.013506 88.014739 
L 206.477299 93.920195 
L 206.941091 107.543079 
L 207.404883 106.260251 
L 207.868675 89.222362 
L 208.332468 117.680844 
L 208.79626 101.377707 
L 209.260052 91.270069 
L 209.723844 86.959503 
L 210.187636 106.156809 
L 210.651429 84.070295 
L 211.115221 103.957155 
L 211.579013 88.517406 
L 212.042805 164.507092 
L 212.506597 97.389169 
L 212.97039 94.703797 
L 213.434182 98.633444 
L 213.897974 101.485478 
L 214.361766 89.675867 
L 214.825558 139.624618 
L 215.289351 105.633714 
L 215.753143 99.981395 
L 216.216935 89.465678 
L 216.680727 83.472976 
L 217.144519 119.897162 
L 217.608312 85.860599 
L 218.072104 104.010655 
L 218.535896 88.981849 
L 219.463481 76.215107 
L 219.927273 88.84322 
L 220.391065 104.861133 
L 220.854857 98.20429 
L 221.318649 82.807845 
L 221.782442 180.605149 
L 222.246234 82.942127 
L 222.710026 116.187385 
L 223.173818 113.874001 
L 223.63761 102.400532 
L 224.101403 82.613859 
L 224.565195 91.623765 
L 225.028987 97.881909 
L 225.492779 119.068822 
L 226.420364 96.028137 
L 226.884156 102.852148 
L 227.347948 92.826805 
L 227.81174 91.587332 
L 228.275532 94.576082 
L 228.739325 180.605149 
L 229.203117 109.365978 
L 229.666909 89.241473 
L 230.130701 121.537292 
L 230.594494 93.488976 
L 231.058286 89.893837 
L 231.522078 101.377707 
L 231.98587 82.794418 
L 232.449662 90.11963 
L 232.913455 91.847688 
L 233.377247 89.521588 
L 233.841039 85.342803 
L 234.304831 234.510255 
L 234.768623 110.081997 
L 235.232416 89.766986 
L 235.696208 165.667615 
L 236.623792 85.117982 
L 237.087584 94.356863 
L 237.551377 89.031167 
L 238.015169 106.311656 
L 238.478961 184.95899 
L 238.942753 147.560412 
L 239.406545 89.905416 
L 239.870338 94.041688 
L 240.33413 139.827578 
L 240.797922 89.715128 
L 241.261714 104.01781 
L 241.725506 175.186239 
L 242.189299 103.173693 
L 242.653091 93.920195 
L 243.116883 113.38334 
L 243.580675 94.939692 
L 244.044468 115.37849 
L 244.50826 89.794734 
L 244.972052 94.041688 
L 245.435844 157.20262 
L 245.899636 181.883307 
L 246.363429 89.247039 
L 246.827221 100.814285 
L 247.291013 179.997846 
L 247.754805 98.738709 
L 248.218597 88.955032 
L 248.68239 90.174373 
L 249.146182 180.605149 
L 249.609974 99.669979 
L 250.073766 102.327252 
L 250.537558 181.883307 
L 251.001351 82.965313 
L 251.465143 91.065104 
L 251.928935 90.324275 
L 252.392727 180.605149 
L 252.856519 92.157315 
L 253.320312 94.071114 
L 253.784104 101.39748 
L 254.247896 90.174373 
L 254.711688 106.092643 
L 255.175481 101.535421 
L 255.639273 89.055786 
L 256.103065 135.039833 
L 256.566857 90.567893 
L 257.030649 91.10553 
L 257.494442 107.239877 
L 257.958234 97.385722 
L 258.422026 91.184331 
L 258.885818 81.704915 
L 259.34961 89.59961 
L 259.813403 123.094702 
L 260.277195 84.707588 
L 260.740987 103.753266 
L 261.204779 101.79526 
L 261.668571 100.620092 
L 262.132364 89.031167 
L 262.596156 100.620092 
L 263.059948 90.162454 
L 263.52374 84.142084 
L 263.987532 104.057373 
L 264.451325 90.081436 
L 264.915117 182.312316 
L 265.378909 90.505091 
L 265.842701 94.834206 
L 266.306494 147.102482 
L 266.770286 101.050056 
L 267.234078 94.665317 
L 267.69787 90.081436 
L 268.161662 81.208213 
L 268.625455 129.741553 
L 269.089247 90.205371 
L 269.553039 106.065574 
L 270.016831 90.689474 
L 270.480623 135.039833 
L 270.944416 89.774163 
L 271.408208 94.585557 
L 271.872 91.645337 
L 272.335792 98.568241 
L 272.799584 83.406277 
L 273.263377 84.536727 
L 273.727169 91.788814 
L 274.190961 114.824413 
L 274.654753 208.228148 
L 275.118545 89.362458 
L 275.582338 173.044771 
L 276.04613 83.660814 
L 276.509922 143.083192 
L 276.973714 97.117513 
L 277.437506 81.907112 
L 278.365091 106.029159 
L 278.828883 113.175002 
L 279.292675 91.84281 
L 279.756468 98.605381 
L 280.22026 89.817753 
L 280.684052 85.617925 
L 281.147844 92.275622 
L 282.075429 90.297085 
L 282.539221 90.449378 
L 283.003013 116.102428 
L 283.466805 179.634187 
L 283.930597 93.861879 
L 284.39439 88.956208 
L 284.858182 180.605149 
L 285.321974 92.389702 
L 285.785766 98.794935 
L 286.249558 91.184331 
L 286.713351 90.412481 
L 287.177143 94.071114 
L 287.640935 89.794734 
L 288.104727 100.469052 
L 288.568519 120.17046 
L 289.032312 88.266435 
L 289.496104 90.171584 
L 289.959896 165.773614 
L 290.423688 96.976177 
L 290.887481 91.110258 
L 291.351273 89.898694 
L 291.815065 150.282275 
L 292.278857 94.571024 
L 292.742649 95.470107 
L 293.206442 102.348221 
L 293.670234 76.258906 
L 294.134026 90.297085 
L 294.597818 88.981849 
L 295.06161 94.041688 
L 295.525403 89.055786 
L 295.989195 90.449378 
L 296.916779 91.269679 
L 297.380571 93.3901 
L 297.844364 83.100506 
L 298.308156 127.403265 
L 298.771948 89.270842 
L 299.23574 88.955032 
L 299.699532 94.041688 
L 300.163325 91.10553 
L 300.627117 90.808319 
L 301.090909 89.478808 
L 301.554701 107.448717 
L 302.018494 90.297085 
L 302.482286 91.10553 
L 302.946078 90.689474 
L 303.40987 98.568241 
L 303.873662 100.712635 
L 304.337455 90.171584 
L 304.801247 90.11963 
L 305.265039 173.089316 
L 305.728831 104.317479 
L 306.192623 116.311384 
L 306.656416 90.449378 
L 307.120208 94.041688 
L 307.584 89.270842 
L 308.047792 103.230092 
L 308.511584 89.905416 
L 308.975377 102.177447 
L 309.439169 94.410459 
L 309.902961 105.051358 
L 310.366753 88.955032 
L 310.830545 99.715826 
L 311.294338 94.041688 
L 311.75813 98.00999 
L 312.221922 90.089037 
L 312.685714 92.389702 
L 313.149506 89.007323 
L 313.613299 98.00999 
L 314.077091 115.878975 
L 314.540883 110.910926 
L 315.004675 94.071114 
L 315.468468 90.174373 
L 315.93226 90.089037 
L 316.396052 116.050449 
L 316.859844 94.410459 
L 317.323636 91.894712 
L 317.787429 94.991963 
L 318.251221 90.651545 
L 318.715013 91.587332 
L 319.178805 93.861879 
L 319.642597 89.270842 
L 320.10639 175.186239 
L 320.570182 92.131858 
L 321.033974 88.981849 
L 321.497766 92.063025 
L 321.961558 179.634187 
L 322.425351 104.010655 
L 322.889143 90.11963 
L 323.352935 89.270842 
L 323.816727 99.901808 
L 324.280519 90.11963 
L 324.744312 113.880454 
L 325.208104 91.10553 
L 325.671896 91.858695 
L 326.135688 89.031167 
L 326.599481 88.981849 
L 327.063273 90.292053 
L 327.527065 74.084562 
L 327.990857 89.478808 
L 328.454649 164.794843 
L 328.918442 94.236313 
L 329.382234 103.960359 
L 329.846026 90.449378 
L 330.309818 88.981849 
L 330.77361 90.089037 
L 331.237403 120.333741 
L 331.701195 139.417015 
L 332.164987 89.465678 
L 332.628779 90.449378 
L 333.092571 86.005306 
L 333.556364 96.028137 
L 334.020156 89.247039 
L 334.483948 92.779101 
L 334.94774 89.055786 
L 335.411532 89.007323 
L 335.875325 116.102428 
L 336.339117 89.905416 
L 336.802909 93.920195 
L 337.266701 93.571394 
L 337.730494 94.041688 
L 338.194286 175.186239 
L 338.658078 141.172295 
L 339.12187 90.11963 
L 339.585662 90.412481 
L 340.049455 84.546701 
L 340.513247 90.412481 
L 340.977039 94.071114 
L 341.440831 94.410459 
L 341.904623 90.808319 
L 342.368416 100.712635 
L 342.832208 88.981849 
L 343.296 94.174829 
L 343.759792 88.955032 
L 344.223584 93.571394 
L 344.687377 117.925354 
L 345.151169 180.605149 
L 345.614961 91.184331 
L 346.078753 113.321941 
L 346.542545 93.571394 
L 347.006338 89.247039 
L 347.47013 89.471886 
L 347.933922 90.689474 
L 348.397714 98.632586 
L 348.861506 110.935346 
L 349.325299 89.055786 
L 349.789091 90.089037 
L 350.252883 88.981849 
L 350.716675 175.186239 
L 351.180468 101.58588 
L 351.64426 94.071114 
L 352.108052 88.981849 
L 352.571844 89.055786 
L 353.035636 98.632586 
L 353.963221 88.955032 
L 354.427013 88.981849 
L 354.890805 146.807898 
L 355.81839 90.11963 
L 356.282182 114.466221 
L 356.745974 89.247039 
L 357.209766 89.478808 
L 357.673558 93.571394 
L 358.137351 90.11963 
L 358.601143 93.920195 
L 359.064935 84.321143 
L 359.528727 89.055786 
L 359.992519 90.11963 
L 360.456312 93.783459 
L 360.920104 100.31246 
L 361.383896 90.297085 
L 361.847688 90.11963 
L 362.775273 90.449378 
L 363.239065 83.856538 
L 363.702857 91.587332 
L 364.166649 90.297085 
L 365.094234 159.205037 
L 365.558026 100.368841 
L 366.021818 98.862494 
L 366.949403 159.863522 
L 367.413195 112.879681 
L 367.876987 144.390932 
L 368.340779 161.062133 
L 368.804571 191.941857 
L 369.268364 151.993905 
L 369.732156 193.999635 
L 370.195948 184.99792 
L 370.65974 164.027494 
L 371.123532 122.251544 
L 371.587325 220.881631 
L 372.051117 141.50048 
L 372.514909 161.5512 
L 372.978701 258.873751 
L 373.442494 138.956028 
L 373.906286 131.116161 
L 374.370078 142.249321 
L 374.83387 162.722214 
L 375.297662 295.488 
L 375.761455 181.409581 
L 376.225247 106.710103 
L 376.689039 197.676566 
L 377.152831 72.986511 
L 377.616623 218.557665 
L 378.080416 119.061282 
L 378.544208 198.669547 
L 379.008 102.284947 
L 379.935584 272.317258 
L 380.399377 102.863266 
L 380.863169 191.73078 
L 381.326961 159.721838 
L 381.790753 138.821146 
L 382.254545 246.139019 
L 382.718338 152.468388 
L 383.18213 129.556654 
L 383.645922 198.725405 
L 384.109714 132.605446 
L 384.573506 99.981395 
L 385.037299 183.841621 
L 385.501091 146.118785 
L 386.428675 106.710103 
L 386.892468 103.616964 
L 387.35626 98.396737 
L 387.820052 204.353875 
L 388.283844 240.744773 
L 388.747636 196.76689 
L 389.211429 113.904357 
L 389.675221 123.189704 
L 390.139013 123.405686 
L 390.602805 159.721838 
L 391.066597 163.610383 
L 391.994182 222.019223 
L 392.457974 157.060117 
L 392.921766 177.678684 
L 393.385558 209.917662 
L 393.849351 162.293225 
L 394.313143 91.860349 
L 394.776935 113.917614 
L 395.240727 104.72596 
L 395.704519 179.997846 
L 396.168312 101.079852 
L 396.632104 106.410915 
L 397.095896 179.997846 
L 397.559688 93.035125 
L 398.023481 89.349416 
L 398.487273 96.053535 
L 398.487273 96.053535 
" clip-path="url(#pf824216a19)" style="fill: none; stroke: #7f7f7f; stroke-width: 1.5; stroke-linecap: square"/>
   </g>
   <g id="patch_3">
    <path d="M 57.6 307.584 
L 57.6 41.472 
" style="fill: none; stroke: #000000; stroke-width: 0.8; stroke-linejoin: miter; stroke-linecap: square"/>
   </g>
   <g id="patch_4">
    <path d="M 414.72 307.584 
L 414.72 41.472 
" style="fill: none; stroke: #000000; stroke-width: 0.8; stroke-linejoin: miter; stroke-linecap: square"/>
   </g>
   <g id="patch_5">
    <path d="M 57.6 307.584 
L 414.72 307.584 
" style="fill: none; stroke: #000000; stroke-width: 0.8; stroke-linejoin: miter; stroke-linecap: square"/>
   </g>
   <g id="patch_6">
    <path d="M 57.6 41.472 
L 414.72 41.472 
" style="fill: none; stroke: #000000; stroke-width: 0.8; stroke-linejoin: miter; stroke-linecap: square"/>
   </g>
  </g>
 </g>
 <defs>
  <clipPath id="pf824216a19">
   <rect x="57.6" y="41.472" width="357.12" height="266.112"/>
  </clipPath>
 </defs>
</svg>
