<?xml version="1.0" encoding="utf-8" standalone="no"?>
<!DOCTYPE svg PUBLIC "-//W3C//DTD SVG 1.1//EN"
  "http://www.w3.org/Graphics/SVG/1.1/DTD/svg11.dtd">
<svg xmlns:xlink="http://www.w3.org/1999/xlink" width="460.8pt" height="345.6pt" viewBox="0 0 460.8 345.6" xmlns="http://www.w3.org/2000/svg" version="1.1">
 <metadata>
  <rdf:RDF xmlns:dc="http://purl.org/dc/elements/1.1/" xmlns:cc="http://creativecommons.org/ns#" xmlns:rdf="http://www.w3.org/1999/02/22-rdf-syntax-ns#">
   <cc:Work>
    <dc:type rdf:resource="http://purl.org/dc/dcmitype/StillImage"/>
    <dc:date>2024-04-17T22:21:49.044376</dc:date>
    <dc:format>image/svg+xml</dc:format>
    <dc:creator>
     <cc:Agent>
      <dc:title>Matplotlib v3.7.2, https://matplotlib.org/</dc:title>
     </cc:Agent>
    </dc:creator>
   </cc:Work>
  </rdf:RDF>
 </metadata>
 <defs>
  <style type="text/css">*{stroke-linejoin: round; stroke-linecap: butt}</style>
 </defs>
 <g id="figure_1">
  <g id="patch_1">
   <path d="M 0 345.6 
L 460.8 345.6 
L 460.8 0 
L 0 0 
z
" style="fill: #ffffff"/>
  </g>
  <g id="axes_1">
   <g id="patch_2">
    <path d="M 57.6 307.584 
L 414.72 307.584 
L 414.72 41.472 
L 57.6 41.472 
z
" style="fill: #ffffff"/>
   </g>
   <g id="matplotlib.axis_1">
    <g id="xtick_1">
     <g id="line2d_1">
      <defs>
       <path id="m85f7c9ad6d" d="M 0 0 
L 0 3.5 
" style="stroke: #000000; stroke-width: 0.8"/>
      </defs>
      <g>
       <use xlink:href="#m85f7c9ad6d" x="73.832727" y="307.584" style="stroke: #000000; stroke-width: 0.8"/>
      </g>
     </g>
     <g id="text_1">
      <!-- 0 -->
      <g transform="translate(70.651477 322.182437) scale(0.1 -0.1)">
       <defs>
        <path id="DejaVuSans-30" d="M 2034 4250 
Q 1547 4250 1301 3770 
Q 1056 3291 1056 2328 
Q 1056 1369 1301 889 
Q 1547 409 2034 409 
Q 2525 409 2770 889 
Q 3016 1369 3016 2328 
Q 3016 3291 2770 3770 
Q 2525 4250 2034 4250 
z
M 2034 4750 
Q 2819 4750 3233 4129 
Q 3647 3509 3647 2328 
Q 3647 1150 3233 529 
Q 2819 -91 2034 -91 
Q 1250 -91 836 529 
Q 422 1150 422 2328 
Q 422 3509 836 4129 
Q 1250 4750 2034 4750 
z
" transform="scale(0.015625)"/>
       </defs>
       <use xlink:href="#DejaVuSans-30"/>
      </g>
     </g>
    </g>
    <g id="xtick_2">
     <g id="line2d_2">
      <g>
       <use xlink:href="#m85f7c9ad6d" x="114.434847" y="307.584" style="stroke: #000000; stroke-width: 0.8"/>
      </g>
     </g>
     <g id="text_2">
      <!-- 250 -->
      <g transform="translate(104.891097 322.182437) scale(0.1 -0.1)">
       <defs>
        <path id="DejaVuSans-32" d="M 1228 531 
L 3431 531 
L 3431 0 
L 469 0 
L 469 531 
Q 828 903 1448 1529 
Q 2069 2156 2228 2338 
Q 2531 2678 2651 2914 
Q 2772 3150 2772 3378 
Q 2772 3750 2511 3984 
Q 2250 4219 1831 4219 
Q 1534 4219 1204 4116 
Q 875 4013 500 3803 
L 500 4441 
Q 881 4594 1212 4672 
Q 1544 4750 1819 4750 
Q 2544 4750 2975 4387 
Q 3406 4025 3406 3419 
Q 3406 3131 3298 2873 
Q 3191 2616 2906 2266 
Q 2828 2175 2409 1742 
Q 1991 1309 1228 531 
z
" transform="scale(0.015625)"/>
        <path id="DejaVuSans-35" d="M 691 4666 
L 3169 4666 
L 3169 4134 
L 1269 4134 
L 1269 2991 
Q 1406 3038 1543 3061 
Q 1681 3084 1819 3084 
Q 2600 3084 3056 2656 
Q 3513 2228 3513 1497 
Q 3513 744 3044 326 
Q 2575 -91 1722 -91 
Q 1428 -91 1123 -41 
Q 819 9 494 109 
L 494 744 
Q 775 591 1075 516 
Q 1375 441 1709 441 
Q 2250 441 2565 725 
Q 2881 1009 2881 1497 
Q 2881 1984 2565 2268 
Q 2250 2553 1709 2553 
Q 1456 2553 1204 2497 
Q 953 2441 691 2322 
L 691 4666 
z
" transform="scale(0.015625)"/>
       </defs>
       <use xlink:href="#DejaVuSans-32"/>
       <use xlink:href="#DejaVuSans-35" x="63.623047"/>
       <use xlink:href="#DejaVuSans-30" x="127.246094"/>
      </g>
     </g>
    </g>
    <g id="xtick_3">
     <g id="line2d_3">
      <g>
       <use xlink:href="#m85f7c9ad6d" x="155.036966" y="307.584" style="stroke: #000000; stroke-width: 0.8"/>
      </g>
     </g>
     <g id="text_3">
      <!-- 500 -->
      <g transform="translate(145.493216 322.182437) scale(0.1 -0.1)">
       <use xlink:href="#DejaVuSans-35"/>
       <use xlink:href="#DejaVuSans-30" x="63.623047"/>
       <use xlink:href="#DejaVuSans-30" x="127.246094"/>
      </g>
     </g>
    </g>
    <g id="xtick_4">
     <g id="line2d_4">
      <g>
       <use xlink:href="#m85f7c9ad6d" x="195.639085" y="307.584" style="stroke: #000000; stroke-width: 0.8"/>
      </g>
     </g>
     <g id="text_4">
      <!-- 750 -->
      <g transform="translate(186.095335 322.182437) scale(0.1 -0.1)">
       <defs>
        <path id="DejaVuSans-37" d="M 525 4666 
L 3525 4666 
L 3525 4397 
L 1831 0 
L 1172 0 
L 2766 4134 
L 525 4134 
L 525 4666 
z
" transform="scale(0.015625)"/>
       </defs>
       <use xlink:href="#DejaVuSans-37"/>
       <use xlink:href="#DejaVuSans-35" x="63.623047"/>
       <use xlink:href="#DejaVuSans-30" x="127.246094"/>
      </g>
     </g>
    </g>
    <g id="xtick_5">
     <g id="line2d_5">
      <g>
       <use xlink:href="#m85f7c9ad6d" x="236.241204" y="307.584" style="stroke: #000000; stroke-width: 0.8"/>
      </g>
     </g>
     <g id="text_5">
      <!-- 1000 -->
      <g transform="translate(223.516204 322.182437) scale(0.1 -0.1)">
       <defs>
        <path id="DejaVuSans-31" d="M 794 531 
L 1825 531 
L 1825 4091 
L 703 3866 
L 703 4441 
L 1819 4666 
L 2450 4666 
L 2450 531 
L 3481 531 
L 3481 0 
L 794 0 
L 794 531 
z
" transform="scale(0.015625)"/>
       </defs>
       <use xlink:href="#DejaVuSans-31"/>
       <use xlink:href="#DejaVuSans-30" x="63.623047"/>
       <use xlink:href="#DejaVuSans-30" x="127.246094"/>
       <use xlink:href="#DejaVuSans-30" x="190.869141"/>
      </g>
     </g>
    </g>
    <g id="xtick_6">
     <g id="line2d_6">
      <g>
       <use xlink:href="#m85f7c9ad6d" x="276.843323" y="307.584" style="stroke: #000000; stroke-width: 0.8"/>
      </g>
     </g>
     <g id="text_6">
      <!-- 1250 -->
      <g transform="translate(264.118323 322.182437) scale(0.1 -0.1)">
       <use xlink:href="#DejaVuSans-31"/>
       <use xlink:href="#DejaVuSans-32" x="63.623047"/>
       <use xlink:href="#DejaVuSans-35" x="127.246094"/>
       <use xlink:href="#DejaVuSans-30" x="190.869141"/>
      </g>
     </g>
    </g>
    <g id="xtick_7">
     <g id="line2d_7">
      <g>
       <use xlink:href="#m85f7c9ad6d" x="317.445443" y="307.584" style="stroke: #000000; stroke-width: 0.8"/>
      </g>
     </g>
     <g id="text_7">
      <!-- 1500 -->
      <g transform="translate(304.720443 322.182437) scale(0.1 -0.1)">
       <use xlink:href="#DejaVuSans-31"/>
       <use xlink:href="#DejaVuSans-35" x="63.623047"/>
       <use xlink:href="#DejaVuSans-30" x="127.246094"/>
       <use xlink:href="#DejaVuSans-30" x="190.869141"/>
      </g>
     </g>
    </g>
    <g id="xtick_8">
     <g id="line2d_8">
      <g>
       <use xlink:href="#m85f7c9ad6d" x="358.047562" y="307.584" style="stroke: #000000; stroke-width: 0.8"/>
      </g>
     </g>
     <g id="text_8">
      <!-- 1750 -->
      <g transform="translate(345.322562 322.182437) scale(0.1 -0.1)">
       <use xlink:href="#DejaVuSans-31"/>
       <use xlink:href="#DejaVuSans-37" x="63.623047"/>
       <use xlink:href="#DejaVuSans-35" x="127.246094"/>
       <use xlink:href="#DejaVuSans-30" x="190.869141"/>
      </g>
     </g>
    </g>
    <g id="xtick_9">
     <g id="line2d_9">
      <g>
       <use xlink:href="#m85f7c9ad6d" x="398.649681" y="307.584" style="stroke: #000000; stroke-width: 0.8"/>
      </g>
     </g>
     <g id="text_9">
      <!-- 2000 -->
      <g transform="translate(385.924681 322.182437) scale(0.1 -0.1)">
       <use xlink:href="#DejaVuSans-32"/>
       <use xlink:href="#DejaVuSans-30" x="63.623047"/>
       <use xlink:href="#DejaVuSans-30" x="127.246094"/>
       <use xlink:href="#DejaVuSans-30" x="190.869141"/>
      </g>
     </g>
    </g>
   </g>
   <g id="matplotlib.axis_2">
    <g id="ytick_1">
     <g id="line2d_10">
      <defs>
       <path id="m77161fce5d" d="M 0 0 
L -3.5 0 
" style="stroke: #000000; stroke-width: 0.8"/>
      </defs>
      <g>
       <use xlink:href="#m77161fce5d" x="57.6" y="297.273709" style="stroke: #000000; stroke-width: 0.8"/>
      </g>
     </g>
     <g id="text_10">
      <!-- 0 -->
      <g transform="translate(44.2375 301.072928) scale(0.1 -0.1)">
       <use xlink:href="#DejaVuSans-30"/>
      </g>
     </g>
    </g>
    <g id="ytick_2">
     <g id="line2d_11">
      <g>
       <use xlink:href="#m77161fce5d" x="57.6" y="242.231261" style="stroke: #000000; stroke-width: 0.8"/>
      </g>
     </g>
     <g id="text_11">
      <!-- 1000 -->
      <g transform="translate(25.15 246.03048) scale(0.1 -0.1)">
       <use xlink:href="#DejaVuSans-31"/>
       <use xlink:href="#DejaVuSans-30" x="63.623047"/>
       <use xlink:href="#DejaVuSans-30" x="127.246094"/>
       <use xlink:href="#DejaVuSans-30" x="190.869141"/>
      </g>
     </g>
    </g>
    <g id="ytick_3">
     <g id="line2d_12">
      <g>
       <use xlink:href="#m77161fce5d" x="57.6" y="187.188812" style="stroke: #000000; stroke-width: 0.8"/>
      </g>
     </g>
     <g id="text_12">
      <!-- 2000 -->
      <g transform="translate(25.15 190.988031) scale(0.1 -0.1)">
       <use xlink:href="#DejaVuSans-32"/>
       <use xlink:href="#DejaVuSans-30" x="63.623047"/>
       <use xlink:href="#DejaVuSans-30" x="127.246094"/>
       <use xlink:href="#DejaVuSans-30" x="190.869141"/>
      </g>
     </g>
    </g>
    <g id="ytick_4">
     <g id="line2d_13">
      <g>
       <use xlink:href="#m77161fce5d" x="57.6" y="132.146364" style="stroke: #000000; stroke-width: 0.8"/>
      </g>
     </g>
     <g id="text_13">
      <!-- 3000 -->
      <g transform="translate(25.15 135.945583) scale(0.1 -0.1)">
       <defs>
        <path id="DejaVuSans-33" d="M 2597 2516 
Q 3050 2419 3304 2112 
Q 3559 1806 3559 1356 
Q 3559 666 3084 287 
Q 2609 -91 1734 -91 
Q 1441 -91 1130 -33 
Q 819 25 488 141 
L 488 750 
Q 750 597 1062 519 
Q 1375 441 1716 441 
Q 2309 441 2620 675 
Q 2931 909 2931 1356 
Q 2931 1769 2642 2001 
Q 2353 2234 1838 2234 
L 1294 2234 
L 1294 2753 
L 1863 2753 
Q 2328 2753 2575 2939 
Q 2822 3125 2822 3475 
Q 2822 3834 2567 4026 
Q 2313 4219 1838 4219 
Q 1578 4219 1281 4162 
Q 984 4106 628 3988 
L 628 4550 
Q 988 4650 1302 4700 
Q 1616 4750 1894 4750 
Q 2613 4750 3031 4423 
Q 3450 4097 3450 3541 
Q 3450 3153 3228 2886 
Q 3006 2619 2597 2516 
z
" transform="scale(0.015625)"/>
       </defs>
       <use xlink:href="#DejaVuSans-33"/>
       <use xlink:href="#DejaVuSans-30" x="63.623047"/>
       <use xlink:href="#DejaVuSans-30" x="127.246094"/>
       <use xlink:href="#DejaVuSans-30" x="190.869141"/>
      </g>
     </g>
    </g>
    <g id="ytick_5">
     <g id="line2d_14">
      <g>
       <use xlink:href="#m77161fce5d" x="57.6" y="77.103915" style="stroke: #000000; stroke-width: 0.8"/>
      </g>
     </g>
     <g id="text_14">
      <!-- 4000 -->
      <g transform="translate(25.15 80.903134) scale(0.1 -0.1)">
       <defs>
        <path id="DejaVuSans-34" d="M 2419 4116 
L 825 1625 
L 2419 1625 
L 2419 4116 
z
M 2253 4666 
L 3047 4666 
L 3047 1625 
L 3713 1625 
L 3713 1100 
L 3047 1100 
L 3047 0 
L 2419 0 
L 2419 1100 
L 313 1100 
L 313 1709 
L 2253 4666 
z
" transform="scale(0.015625)"/>
       </defs>
       <use xlink:href="#DejaVuSans-34"/>
       <use xlink:href="#DejaVuSans-30" x="63.623047"/>
       <use xlink:href="#DejaVuSans-30" x="127.246094"/>
       <use xlink:href="#DejaVuSans-30" x="190.869141"/>
      </g>
     </g>
    </g>
   </g>
   <g id="line2d_15">
    <path d="M 73.832727 220.67968 
L 74.157544 108.047398 
L 74.319953 253.115872 
L 74.482361 236.298736 
L 74.64477 151.865611 
L 74.807178 165.544256 
L 74.969587 149.313455 
L 75.131995 97.794097 
L 75.294404 286.264933 
L 75.456812 290.440899 
L 75.619221 260.445812 
L 75.781629 200.961538 
L 75.944037 193.982176 
L 76.106446 234.171789 
L 76.268854 246.443955 
L 76.431263 230.817432 
L 76.593671 266.118073 
L 76.75608 234.64194 
L 76.918488 230.208578 
L 77.080897 271.797704 
L 77.243305 188.133458 
L 77.405714 185.78433 
L 77.730531 289.748564 
L 77.892939 290.351681 
L 78.055348 184.796497 
L 78.217756 280.760975 
L 78.380165 231.002199 
L 78.542573 240.521518 
L 78.704982 289.978079 
L 78.86739 240.237162 
L 79.029799 280.760975 
L 79.192207 261.965339 
L 79.354615 184.546545 
L 79.517024 266.257907 
L 79.679432 266.07888 
L 79.841841 238.755322 
L 80.004249 237.958683 
L 80.166658 235.676642 
L 80.329066 284.367409 
L 80.491475 235.127188 
L 80.653883 286.107632 
L 80.816292 233.506169 
L 80.9787 251.334191 
L 81.141109 199.9424 
L 81.303517 273.82118 
L 81.628334 222.702981 
L 81.953151 266.704726 
L 82.11556 261.75721 
L 82.277968 186.391864 
L 82.765194 249.129518 
L 82.927602 253.928492 
L 83.09001 266.430996 
L 83.252419 222.618264 
L 83.577236 294.347522 
L 83.739644 238.535458 
L 83.902053 228.794712 
L 84.064461 234.30528 
L 84.22687 212.953101 
L 84.389278 217.830211 
L 84.551687 248.290934 
L 84.714095 173.760762 
L 84.876504 256.502439 
L 85.038912 218.293087 
L 85.201321 266.730137 
L 85.363729 251.384136 
L 85.526138 277.50331 
L 85.688546 277.774493 
L 85.850955 212.165635 
L 86.175772 291.492712 
L 86.33818 235.382569 
L 86.500588 266.388908 
L 86.825405 85.798643 
L 87.150222 273.483294 
L 87.312631 184.959619 
L 87.475039 160.748661 
L 87.637448 285.5904 
L 87.799856 209.34563 
L 87.962265 217.773136 
L 88.124673 253.885055 
L 88.287082 227.938091 
L 88.44949 262.80134 
L 88.774307 211.484082 
L 89.099124 211.225549 
L 89.261533 210.499893 
L 89.423941 254.931369 
L 89.58635 217.527424 
L 89.748758 212.086034 
L 89.911166 217.648842 
L 90.073575 204.094667 
L 90.235983 219.831491 
L 90.398392 273.06477 
L 90.5608 274.726725 
L 90.723209 254.570614 
L 90.885617 287.092245 
L 91.048026 211.888598 
L 91.210434 245.801513 
L 91.372843 239.036236 
L 91.535251 240.861818 
L 91.69766 294.032037 
L 91.860068 234.561727 
L 92.022477 229.328973 
L 92.184885 241.789952 
L 92.347294 190.745718 
L 92.509702 237.642633 
L 92.672111 209.029631 
L 92.996928 262.126255 
L 93.159336 236.625985 
L 93.321745 170.216551 
L 93.484153 242.756948 
L 93.646561 228.712297 
L 93.80897 243.319083 
L 93.971378 184.79437 
L 94.133787 254.437121 
L 94.296195 228.92145 
L 94.458604 233.671816 
L 94.621012 250.339872 
L 94.783421 231.717436 
L 94.945829 267.803346 
L 95.108238 156.521082 
L 95.270646 238.971118 
L 95.595463 209.078441 
L 95.757872 170.318589 
L 96.082689 234.625504 
L 96.245097 239.747573 
L 96.407506 212.990691 
L 96.569914 239.54217 
L 96.732323 229.449133 
L 96.894731 203.620881 
L 97.057139 207.592482 
L 97.219548 239.079867 
L 97.381956 233.393739 
L 97.544365 239.139094 
L 97.869182 106.746942 
L 98.03159 239.779058 
L 98.193999 272.556799 
L 98.356407 211.950866 
L 98.518816 211.252425 
L 98.681224 281.682397 
L 98.843633 278.421217 
L 99.006041 268.918603 
L 99.16845 284.877601 
L 99.330858 249.220922 
L 99.493267 255.719967 
L 99.655675 267.014656 
L 99.980492 239.767303 
L 100.142901 242.654823 
L 100.305309 233.284272 
L 100.467717 264.742476 
L 100.630126 194.537925 
L 100.954943 264.988645 
L 101.117351 237.469729 
L 101.27976 181.605254 
L 101.442168 270.548302 
L 101.604577 254.250816 
L 101.766985 164.748705 
L 101.929394 232.958417 
L 102.091802 249.848927 
L 102.254211 233.270782 
L 102.579028 257.377354 
L 102.741436 236.070597 
L 102.903845 240.126904 
L 103.066253 250.250208 
L 103.228662 212.559015 
L 103.39107 285.711938 
L 103.553479 266.862782 
L 103.715887 265.184599 
L 103.878296 252.801698 
L 104.040704 270.509184 
L 104.203112 228.671153 
L 104.365521 248.768543 
L 104.527929 224.325787 
L 104.690338 288.256468 
L 105.015155 267.188519 
L 105.177563 266.735198 
L 105.339972 237.477084 
L 105.50238 244.158124 
L 105.664789 293.688897 
L 105.827197 212.730521 
L 105.989606 241.753462 
L 106.152014 210.151341 
L 106.476831 286.345621 
L 106.63924 274.909117 
L 106.801648 208.926891 
L 107.126465 269.473265 
L 107.288874 229.526943 
L 107.451282 248.251893 
L 107.61369 233.172521 
L 107.776099 248.272648 
L 107.938507 281.657843 
L 108.100916 266.180298 
L 108.263324 183.684083 
L 108.588141 254.28886 
L 108.75055 238.611341 
L 108.912958 238.295505 
L 109.075367 239.132973 
L 109.237775 246.363018 
L 109.400184 225.00691 
L 109.562592 276.44096 
L 109.725001 265.424882 
L 109.887409 212.708349 
L 110.049818 203.911647 
L 110.212226 185.693746 
L 110.374635 287.727003 
L 110.537043 267.392696 
L 110.699452 262.544513 
L 110.86186 223.12207 
L 111.349085 267.088683 
L 111.673902 242.495351 
L 111.836311 260.680582 
L 111.998719 237.424705 
L 112.161128 239.277219 
L 112.323536 294.678796 
L 112.485945 238.390333 
L 112.648353 119.953129 
L 112.97317 210.595393 
L 113.135579 266.470502 
L 113.297987 251.588477 
L 113.460396 266.040483 
L 113.622804 261.685284 
L 113.785213 239.638324 
L 113.947621 267.520405 
L 114.11003 241.394293 
L 114.272438 244.494849 
L 114.434847 267.712155 
L 114.597255 217.575356 
L 114.759663 257.440368 
L 114.922072 266.877449 
L 115.246889 213.508641 
L 115.409297 231.548657 
L 115.571706 291.678033 
L 115.734114 236.916879 
L 115.896523 233.01903 
L 116.058931 213.069968 
L 116.22134 278.638538 
L 116.546157 211.91021 
L 116.708565 228.108919 
L 116.870974 265.879109 
L 117.195791 210.116747 
L 117.358199 233.73749 
L 117.520608 212.722342 
L 117.845425 248.463888 
L 118.007833 287.135931 
L 118.170241 251.748788 
L 118.33265 172.327001 
L 118.495058 185.143132 
L 118.819875 238.935579 
L 118.982284 164.94937 
L 119.144692 262.176024 
L 119.307101 250.038735 
L 119.469509 212.292511 
L 119.631918 278.691706 
L 120.119143 212.236221 
L 120.281552 242.280386 
L 120.44396 244.213992 
L 120.606369 289.86893 
L 120.768777 239.402657 
L 120.931186 224.49717 
L 121.093594 223.317968 
L 121.256003 122.067992 
L 121.58082 237.247982 
L 121.743228 236.596777 
L 121.905636 240.014186 
L 122.068045 137.376315 
L 122.230453 118.430128 
L 122.55527 260.227845 
L 122.717679 86.145493 
L 122.880087 196.687103 
L 123.204904 227.895477 
L 123.367313 294.582648 
L 123.529721 109.873784 
L 123.69213 233.295519 
L 123.854538 231.266686 
L 124.016947 291.921463 
L 124.179355 202.9241 
L 124.341764 291.849167 
L 124.504172 293.837147 
L 124.991398 194.548855 
L 125.153806 240.702447 
L 125.316214 169.529717 
L 125.478623 292.844958 
L 125.641031 116.149986 
L 125.80344 277.594868 
L 125.965848 89.297736 
L 126.290665 250.185515 
L 126.453074 69.782169 
L 126.615482 69.855651 
L 126.777891 137.558936 
L 126.940299 69.792352 
L 127.102708 221.057583 
L 127.265116 69.91317 
L 127.427525 294.912788 
L 127.589933 124.803124 
L 127.752342 136.038152 
L 127.91475 69.571081 
L 128.077159 70.183428 
L 128.239567 282.110716 
L 128.401976 158.558481 
L 128.564384 147.362478 
L 128.726792 239.465356 
L 128.889201 211.901523 
L 129.051609 209.815488 
L 129.214018 239.129787 
L 129.538835 112.927582 
L 129.701243 115.669171 
L 129.863652 256.438527 
L 130.02606 69.998486 
L 130.350877 289.025289 
L 130.513286 233.438958 
L 130.675694 109.340571 
L 130.838103 238.326368 
L 131.000511 183.184162 
L 131.16292 65.274516 
L 131.325328 253.811892 
L 131.487737 284.768379 
L 131.650145 289.179631 
L 131.812554 99.171746 
L 131.974962 184.603082 
L 132.137371 100.228402 
L 132.299779 266.948179 
L 132.624596 117.488058 
L 132.787004 183.445164 
L 132.949413 97.110453 
L 133.111821 241.604832 
L 133.27423 82.331237 
L 133.436638 116.589409 
L 133.599047 251.960296 
L 133.761455 141.224515 
L 133.923864 266.751679 
L 134.248681 133.614987 
L 134.411089 114.769169 
L 134.573498 73.93786 
L 134.735906 188.284978 
L 134.898315 116.753646 
L 135.223132 287.336398 
L 135.547949 138.514193 
L 135.710357 232.809987 
L 135.872765 243.762614 
L 136.035174 236.02992 
L 136.197582 140.741412 
L 136.359991 240.458552 
L 136.522399 262.956819 
L 136.684808 265.587405 
L 136.847216 241.379561 
L 137.009625 292.792467 
L 137.172033 118.607788 
L 137.334442 238.850516 
L 137.49685 202.989734 
L 137.659259 195.855263 
L 137.821667 204.907383 
L 137.984076 240.006084 
L 138.146484 136.651764 
L 138.308893 163.648968 
L 138.471301 237.692101 
L 138.796118 142.491357 
L 138.958527 168.310999 
L 139.120935 239.923981 
L 139.283343 223.834598 
L 139.60816 289.082614 
L 139.770569 217.443219 
L 139.932977 245.800329 
L 140.257794 189.890227 
L 140.582611 266.876297 
L 140.74502 206.335742 
L 140.907428 211.643139 
L 141.069837 237.944697 
L 141.232245 165.599619 
L 141.557062 266.835918 
L 141.719471 143.297515 
L 142.206696 288.031399 
L 142.369105 196.792743 
L 142.693922 260.625301 
L 142.85633 279.415527 
L 143.018738 180.453455 
L 143.181147 182.178506 
L 143.343555 276.716448 
L 143.505964 252.476656 
L 143.668372 254.15287 
L 143.830781 240.225721 
L 143.993189 260.155358 
L 144.155598 163.694441 
L 144.318006 285.6675 
L 144.480415 257.677575 
L 144.642823 264.352842 
L 144.805232 264.950853 
L 144.96764 267.201301 
L 145.130049 161.67296 
L 145.292457 286.26522 
L 145.617274 210.573975 
L 145.779683 272.602719 
L 145.942091 267.819061 
L 146.266908 251.504353 
L 146.429316 157.176917 
L 146.754133 294.787658 
L 146.916542 293.847937 
L 147.07895 207.490938 
L 147.241359 266.753071 
L 147.403767 203.353037 
L 147.566176 258.536228 
L 147.728584 239.322092 
L 147.890993 267.125391 
L 148.053401 225.663054 
L 148.21581 275.761026 
L 148.378218 252.123162 
L 148.540627 289.871654 
L 148.703035 285.163749 
L 148.865444 228.742562 
L 149.027852 238.062914 
L 149.190261 240.224306 
L 149.352669 261.737418 
L 149.515078 219.070193 
L 149.677486 213.665972 
L 149.839894 190.703764 
L 150.002303 233.842425 
L 150.164711 184.982523 
L 150.489528 237.264936 
L 150.814345 232.093909 
L 150.976754 205.33835 
L 151.301571 266.3737 
L 151.463979 266.828874 
L 151.626388 267.841663 
L 151.788796 285.163838 
L 151.951205 243.595862 
L 152.113613 239.670121 
L 152.276022 211.127245 
L 152.600839 274.27219 
L 152.763247 211.575825 
L 152.925656 212.86708 
L 153.088064 148.385456 
L 153.412881 238.143591 
L 153.575289 290.042453 
L 153.737698 288.511924 
L 153.900106 267.513802 
L 154.062515 266.904845 
L 154.224923 211.90052 
L 154.387332 242.737852 
L 154.54974 137.626121 
L 154.712149 267.479594 
L 154.874557 190.786325 
L 155.036966 190.668312 
L 155.199374 262.05133 
L 155.361783 270.041598 
L 155.524191 239.397905 
L 155.6866 183.08893 
L 155.849008 261.159304 
L 156.011417 248.460831 
L 156.173825 211.893113 
L 156.336234 200.442126 
L 156.498642 236.51609 
L 156.661051 181.391842 
L 156.823459 173.204603 
L 156.985867 171.281075 
L 157.148276 161.408453 
L 157.310684 289.408087 
L 157.635501 211.668233 
L 157.960318 253.458242 
L 158.122727 158.111014 
L 158.285135 285.163851 
L 158.609952 146.002699 
L 158.934769 285.475715 
L 159.097178 229.249493 
L 159.259586 229.869818 
L 159.421995 250.5534 
L 159.584403 207.593695 
L 159.746812 208.547921 
L 159.90922 287.814514 
L 160.071629 265.954826 
L 160.234037 224.263345 
L 160.558854 204.708658 
L 160.721262 169.789541 
L 161.046079 266.790136 
L 161.208488 234.665889 
L 161.370896 247.892741 
L 161.695713 144.516528 
L 161.858122 230.973441 
L 162.02053 238.126934 
L 162.182939 110.580796 
L 162.345347 247.385692 
L 162.507756 209.80571 
L 162.670164 295.488 
L 162.832573 162.303439 
L 162.994981 278.838868 
L 163.15739 292.523435 
L 163.319798 144.285402 
L 163.482207 186.11589 
L 163.644615 285.006707 
L 164.13184 232.911824 
L 164.294249 267.826374 
L 164.619066 198.570996 
L 164.781474 210.136779 
L 164.943883 244.478586 
L 165.106291 140.278465 
L 165.593517 290.399809 
L 165.918334 239.892066 
L 166.080742 284.211328 
L 166.243151 289.801714 
L 166.567968 144.753655 
L 166.730376 231.609934 
L 166.892785 211.57268 
L 167.055193 107.785408 
L 167.217602 127.269522 
L 167.542418 286.995685 
L 167.704827 225.59294 
L 167.867235 239.885363 
L 168.029644 167.481769 
L 168.192052 253.700284 
L 168.354461 275.355927 
L 168.841686 197.392057 
L 169.004095 195.259602 
L 169.166503 174.832164 
L 169.328912 237.664833 
L 169.49132 97.478403 
L 169.816137 246.417803 
L 169.978546 238.010782 
L 170.140954 265.556401 
L 170.303363 266.95413 
L 170.465771 90.311917 
L 170.790588 225.206136 
L 170.952996 199.856757 
L 171.115405 212.083072 
L 171.277813 84.585954 
L 171.440222 209.346029 
L 171.60263 139.725459 
L 171.765039 120.910827 
L 171.927447 178.080676 
L 172.089856 53.568 
L 172.252264 291.849931 
L 172.414673 237.513114 
L 172.73949 282.01651 
L 172.901898 145.060957 
L 173.064307 284.312093 
L 173.226715 158.235354 
L 173.389124 285.298553 
L 173.551532 286.637002 
L 173.713941 294.692271 
L 173.876349 267.255423 
L 174.038758 294.502491 
L 174.201166 229.863469 
L 174.363575 239.285083 
L 174.525983 267.038986 
L 174.688391 242.831224 
L 174.8508 122.534737 
L 175.175617 256.961721 
L 175.338025 292.205268 
L 175.500434 122.714147 
L 175.662842 172.308961 
L 175.825251 186.426218 
L 176.150068 285.989605 
L 176.312476 281.999427 
L 176.474885 262.264833 
L 176.637293 198.115537 
L 176.799702 224.329432 
L 176.96211 294.135992 
L 177.124519 265.744854 
L 177.286927 285.163692 
L 177.449336 151.599651 
L 177.774153 256.408471 
L 177.936561 238.842318 
L 178.098969 187.538544 
L 178.261378 270.119231 
L 178.586195 168.509295 
L 178.748603 239.833882 
L 179.07342 235.917287 
L 179.398237 134.216921 
L 179.560646 204.773846 
L 179.723054 157.266195 
L 179.885463 198.257043 
L 180.047871 135.124347 
L 180.372688 284.95989 
L 180.535097 285.604481 
L 180.697505 225.247147 
L 180.859914 237.03351 
L 181.022322 135.647496 
L 181.184731 265.363329 
L 181.347139 153.618187 
L 181.509548 159.151141 
L 181.671956 255.877621 
L 181.834364 254.764602 
L 181.996773 291.70217 
L 182.159181 176.622386 
L 182.646407 262.221275 
L 182.808815 140.599047 
L 182.971224 286.26522 
L 183.296041 118.58823 
L 183.620858 145.344945 
L 183.783266 187.791549 
L 183.945675 264.097041 
L 184.108083 92.86908 
L 184.270492 125.162792 
L 184.4329 295.131974 
L 184.595309 125.25652 
L 184.920126 289.865409 
L 185.082534 254.711427 
L 185.244942 254.318582 
L 185.407351 192.632215 
L 185.569759 265.2504 
L 185.732168 158.979348 
L 185.894576 158.835028 
L 186.056985 216.312813 
L 186.381802 158.061021 
L 186.54421 212.105771 
L 186.706619 139.248514 
L 186.869027 274.404231 
L 187.031436 130.160417 
L 187.193844 239.393215 
L 187.518661 262.137331 
L 187.68107 292.370091 
L 187.843478 157.404726 
L 188.005887 236.767192 
L 188.330704 98.533058 
L 188.493112 278.929451 
L 188.65552 184.821073 
L 188.817929 253.443898 
L 188.980337 201.773071 
L 189.142746 254.646126 
L 189.305154 106.642144 
L 189.467563 245.449547 
L 189.629971 167.097901 
L 189.79238 202.259174 
L 189.954788 292.321107 
L 190.117197 115.923597 
L 190.279605 260.30096 
L 190.442014 226.999892 
L 190.604422 233.476296 
L 190.929239 290.912908 
L 191.091648 117.773529 
L 191.254056 132.753086 
L 191.416465 118.840884 
L 191.578873 185.461242 
L 191.741282 143.636942 
L 191.90369 278.811044 
L 192.228507 153.432717 
L 192.390915 258.741966 
L 192.553324 245.90025 
L 192.715732 274.776209 
L 192.878141 163.624998 
L 193.040549 153.422491 
L 193.202958 275.08469 
L 193.365366 160.592404 
L 193.527775 152.138327 
L 193.690183 195.624411 
L 193.852592 272.316578 
L 194.015 207.780454 
L 194.177409 239.601459 
L 194.339817 225.948234 
L 194.502226 280.696722 
L 194.664634 129.396167 
L 194.827043 265.236375 
L 194.989451 152.182808 
L 195.15186 133.178117 
L 195.314268 283.931252 
L 195.476677 192.880283 
L 195.801493 167.316096 
L 195.963902 162.677618 
L 196.12631 266.95864 
L 196.288719 246.199888 
L 196.451127 115.530605 
L 196.613536 247.646895 
L 196.775944 259.728065 
L 196.938353 146.443043 
L 197.100761 173.497078 
L 197.26317 172.352187 
L 197.425578 180.478519 
L 197.587987 265.943048 
L 197.750395 173.576095 
L 197.912804 266.949083 
L 198.075212 146.531897 
L 198.237621 138.605308 
L 198.400029 124.452467 
L 198.562438 267.423558 
L 198.887255 159.908866 
L 199.049663 265.825081 
L 199.212071 158.655406 
L 199.37448 181.38474 
L 199.699297 262.314315 
L 199.861705 144.534043 
L 200.024114 107.868751 
L 200.186522 154.943727 
L 200.348931 285.512729 
L 200.511339 266.73567 
L 200.673748 284.015531 
L 200.836156 229.026496 
L 200.998565 255.239875 
L 201.323382 206.139489 
L 201.48579 161.917392 
L 201.648199 260.286122 
L 201.810607 264.48473 
L 202.135424 185.518549 
L 202.297833 294.626379 
L 202.460241 247.256794 
L 202.62265 294.270903 
L 202.785058 167.70681 
L 202.947466 153.536269 
L 203.109875 164.517704 
L 203.272283 210.6665 
L 203.434692 289.30047 
L 203.5971 277.228872 
L 203.759509 243.352362 
L 203.921917 182.172497 
L 204.084326 294.131688 
L 204.246734 291.978917 
L 204.409143 265.854588 
L 204.571551 183.43952 
L 204.73396 253.140476 
L 204.896368 239.592195 
L 205.058777 255.903129 
L 205.221185 293.664906 
L 205.383594 186.176648 
L 205.546002 198.5952 
L 205.708411 294.547546 
L 205.870819 281.565835 
L 206.033228 232.639869 
L 206.195636 267.895903 
L 206.358044 252.216353 
L 206.520453 266.829202 
L 206.682861 158.626121 
L 207.007678 294.768254 
L 207.170087 285.134553 
L 207.332495 266.641022 
L 207.494904 124.249214 
L 207.657312 294.974375 
L 207.819721 293.900201 
L 207.982129 261.869314 
L 208.306946 288.808846 
L 208.469355 134.375288 
L 208.631763 254.625486 
L 208.794172 280.760975 
L 208.95658 219.214945 
L 209.118989 273.267496 
L 209.281397 195.816121 
L 209.443806 266.860634 
L 209.606214 141.045174 
L 209.768622 210.541926 
L 209.931031 190.482445 
L 210.093439 277.637459 
L 210.255848 279.815711 
L 210.418256 264.764853 
L 210.580665 173.042406 
L 210.743073 193.563437 
L 210.905482 239.62556 
L 211.06789 253.130173 
L 211.230299 291.515299 
L 211.392707 77.356451 
L 211.555116 283.790198 
L 212.042341 182.932952 
L 212.20475 243.223506 
L 212.367158 234.719184 
L 212.529567 253.022167 
L 212.691975 157.432497 
L 212.854384 295.331742 
L 213.016792 155.21474 
L 213.179201 175.665338 
L 213.341609 168.605235 
L 213.666426 292.630659 
L 213.828834 128.839214 
L 213.991243 286.26522 
L 214.153651 238.433545 
L 214.31606 136.035767 
L 214.478468 134.170862 
L 214.803285 248.654631 
L 214.965694 287.12026 
L 215.128102 294.71982 
L 215.290511 184.012047 
L 215.452919 285.163728 
L 215.615328 283.257491 
L 215.777736 278.398131 
L 215.940145 260.373426 
L 216.102553 284.486594 
L 216.264962 197.658969 
L 216.42737 259.752608 
L 216.589779 259.790927 
L 216.752187 257.822329 
L 216.914595 263.68948 
L 217.077004 205.490531 
L 217.239412 196.503549 
L 217.401821 233.196401 
L 217.564229 236.266676 
L 217.726638 244.25074 
L 218.051455 89.848529 
L 218.213863 289.479265 
L 218.376272 69.766207 
L 218.53868 227.40401 
L 218.701089 264.817581 
L 218.863497 87.500058 
L 219.025906 70.738256 
L 219.188314 266.291641 
L 219.350723 266.040168 
L 219.513131 240.148509 
L 219.67554 242.793806 
L 219.837948 291.505244 
L 220.000357 197.546462 
L 220.162765 238.587434 
L 220.325173 249.66732 
L 220.64999 202.261967 
L 220.812399 119.865843 
L 220.974807 260.40798 
L 221.137216 202.6743 
L 221.299624 239.15104 
L 221.462033 247.298226 
L 221.624441 279.37856 
L 221.78685 229.898486 
L 221.949258 284.613765 
L 222.274075 144.663971 
L 222.436484 161.831838 
L 222.598892 196.282341 
L 222.761301 135.370497 
L 222.923709 134.020383 
L 223.086118 284.901763 
L 223.248526 280.197839 
L 223.410935 266.243338 
L 223.573343 200.86789 
L 223.735752 241.712063 
L 223.89816 214.058686 
L 224.060568 231.975226 
L 224.222977 292.752603 
L 224.385385 265.275127 
L 224.547794 115.261284 
L 224.710202 248.914883 
L 224.872611 236.934416 
L 225.035019 143.291758 
L 225.197428 260.365342 
L 225.359836 184.721746 
L 225.684653 239.178217 
L 225.847062 149.506759 
L 226.00947 173.558326 
L 226.171879 216.822015 
L 226.334287 132.015787 
L 226.496696 243.372052 
L 226.659104 185.35129 
L 226.821513 267.096942 
L 226.983921 261.208404 
L 227.14633 264.401226 
L 227.471146 225.29585 
L 227.633555 242.257499 
L 227.795963 290.193194 
L 228.283189 130.068211 
L 228.608006 225.262871 
L 228.770414 236.772474 
L 228.932823 289.55142 
L 229.095231 294.435092 
L 229.25764 257.868151 
L 229.420048 191.086781 
L 229.744865 266.766442 
L 229.907274 284.872262 
L 230.069682 151.148282 
L 230.232091 230.699766 
L 230.394499 238.060702 
L 230.556908 90.174765 
L 230.719316 256.644486 
L 231.044133 128.618291 
L 231.36895 277.322779 
L 231.531358 219.258876 
L 231.693767 212.490849 
L 231.856175 285.343936 
L 232.180992 141.180271 
L 232.343401 144.233754 
L 232.505809 290.232615 
L 232.668218 185.114276 
L 232.830626 251.545568 
L 233.155443 287.640489 
L 233.317852 253.492561 
L 233.48026 132.920081 
L 233.805077 288.495071 
L 233.967486 294.670256 
L 234.129894 194.729989 
L 234.292303 231.699295 
L 234.454711 185.931122 
L 234.779528 246.716436 
L 234.941936 82.274603 
L 235.104345 225.181994 
L 235.266753 265.291139 
L 235.429162 227.264995 
L 235.59157 264.777112 
L 235.753979 207.579836 
L 235.916387 275.456995 
L 236.078796 269.7456 
L 236.241204 245.645693 
L 236.403613 125.63562 
L 236.72843 290.803073 
L 237.053247 124.71837 
L 237.215655 288.038977 
L 237.378064 171.876955 
L 237.540472 244.539191 
L 237.702881 150.949673 
L 237.865289 252.084279 
L 238.027697 234.174823 
L 238.514923 73.604113 
L 238.677331 87.519598 
L 238.83974 223.848401 
L 239.002148 264.50548 
L 239.164557 226.494078 
L 239.326965 274.150406 
L 239.489374 146.937572 
L 239.814191 232.729042 
L 239.976599 183.750443 
L 240.139008 172.092138 
L 240.301416 199.102539 
L 240.463825 93.098842 
L 240.788642 234.08978 
L 240.95105 160.996094 
L 241.113459 195.618942 
L 241.438276 106.639988 
L 241.763092 266.87024 
L 241.925501 149.311459 
L 242.087909 114.838722 
L 242.250318 127.461005 
L 242.412726 267.092458 
L 242.575135 224.256914 
L 242.737543 239.35384 
L 242.899952 135.391639 
L 243.06236 271.349737 
L 243.224769 229.735266 
L 243.387177 232.173892 
L 243.549586 106.871102 
L 243.711994 155.006359 
L 243.874403 159.847154 
L 244.036811 160.503551 
L 244.19922 104.71638 
L 244.361628 176.823079 
L 244.524037 183.710902 
L 244.686445 254.271485 
L 244.848854 244.898004 
L 245.011262 292.20824 
L 245.498487 97.890421 
L 245.660896 184.704893 
L 245.823304 150.686587 
L 245.985713 267.397106 
L 246.148121 254.195515 
L 246.472938 77.149502 
L 246.635347 267.01237 
L 246.797755 266.94583 
L 246.960164 264.355009 
L 247.122572 107.934074 
L 247.284981 294.329585 
L 247.447389 167.842642 
L 247.772206 277.584914 
L 247.934615 125.21348 
L 248.097023 267.476636 
L 248.259432 236.947195 
L 248.42184 152.43759 
L 248.584248 255.484957 
L 248.746657 261.17899 
L 248.909065 170.214697 
L 249.071474 257.04861 
L 249.396291 185.788685 
L 249.558699 258.402249 
L 249.883516 158.276691 
L 250.53315 294.470173 
L 250.695559 231.419602 
L 250.857967 121.685291 
L 251.020376 239.285675 
L 251.182784 211.228389 
L 251.345193 267.082772 
L 251.507601 131.368127 
L 251.67001 121.026154 
L 251.994827 265.699971 
L 252.157235 208.304059 
L 252.482052 266.419871 
L 252.64446 92.262881 
L 252.806869 69.707862 
L 252.969277 112.812702 
L 253.131686 240.206073 
L 253.294094 252.378755 
L 253.456503 251.529856 
L 253.618911 291.728063 
L 253.78132 130.960878 
L 253.943728 237.371295 
L 254.106137 100.191565 
L 254.268545 110.045372 
L 254.593362 204.793909 
L 254.755771 190.239433 
L 254.918179 203.800846 
L 255.080588 232.714249 
L 255.242996 135.645422 
L 255.405405 105.522642 
L 255.567813 289.958866 
L 255.730221 183.659339 
L 256.055038 203.752874 
L 256.217447 144.417159 
L 256.379855 203.42595 
L 256.542264 161.564697 
L 256.704672 230.607073 
L 256.867081 236.726647 
L 257.029489 132.966605 
L 257.516715 239.650462 
L 257.679123 238.857031 
L 257.841532 124.303072 
L 258.00394 111.173549 
L 258.166349 137.315269 
L 258.328757 280.739131 
L 258.653574 171.847208 
L 258.815983 237.531831 
L 258.978391 69.97812 
L 259.140799 229.956292 
L 259.303208 221.209449 
L 259.465616 110.469838 
L 259.628025 242.233991 
L 259.790433 97.499344 
L 259.952842 107.94297 
L 260.11525 189.383667 
L 260.277659 143.935325 
L 260.440067 132.820252 
L 260.927293 291.910855 
L 261.089701 148.372208 
L 261.25211 239.682053 
L 261.414518 167.669768 
L 261.576927 222.780599 
L 261.739335 68.288112 
L 261.901744 215.117959 
L 262.064152 187.683519 
L 262.226561 257.304915 
L 262.551378 90.454796 
L 262.713786 289.404447 
L 262.876194 235.488007 
L 263.038603 229.681679 
L 263.201011 260.108498 
L 263.36342 203.647078 
L 263.688237 227.377758 
L 263.850645 224.488605 
L 264.175462 98.185999 
L 264.337871 251.267901 
L 264.500279 174.151715 
L 264.662688 261.113388 
L 264.825096 102.25045 
L 264.987505 236.170141 
L 265.149913 275.991404 
L 265.47473 247.147325 
L 265.799547 104.982782 
L 265.961956 141.296239 
L 266.286772 70.024631 
L 266.449181 141.685167 
L 266.611589 292.08424 
L 266.773998 256.026771 
L 266.936406 249.00422 
L 267.098815 130.141993 
L 267.261223 208.098475 
L 267.423632 172.824366 
L 267.748449 288.608209 
L 267.910857 238.204826 
L 268.073266 295.020168 
L 268.235674 229.025166 
L 268.398083 258.001669 
L 268.560491 262.339095 
L 268.7229 277.645501 
L 268.885308 180.895001 
L 269.210125 238.798546 
L 269.372534 244.612386 
L 269.534942 266.875016 
L 269.69735 164.150722 
L 269.859759 237.477142 
L 270.022167 246.069292 
L 270.184576 166.536242 
L 270.346984 229.988673 
L 270.509393 143.279159 
L 270.671801 284.753081 
L 270.83421 184.328509 
L 270.996618 246.105626 
L 271.159027 249.298181 
L 271.321435 167.941047 
L 271.483844 295.300153 
L 271.646252 289.939395 
L 271.808661 237.886193 
L 271.971069 289.077474 
L 272.133478 272.155562 
L 272.295886 98.026376 
L 272.458295 183.219541 
L 272.620703 175.331716 
L 272.94552 261.777923 
L 273.107929 188.851928 
L 273.270337 286.153988 
L 273.432745 231.353695 
L 273.595154 103.460642 
L 273.757562 210.566265 
L 273.919971 97.498519 
L 274.082379 266.70072 
L 274.244788 150.70261 
L 274.732013 294.395373 
L 275.05683 177.214015 
L 275.219239 214.864643 
L 275.381647 178.897392 
L 275.706464 260.002441 
L 275.868873 181.422932 
L 276.031281 219.587007 
L 276.19369 205.764645 
L 276.356098 212.703764 
L 276.518507 240.229155 
L 276.680915 222.853064 
L 276.843323 243.673405 
L 277.005732 237.718962 
L 277.16814 250.972703 
L 277.330549 85.274751 
L 277.492957 294.38682 
L 277.817774 234.323937 
L 277.980183 237.929076 
L 278.142591 165.5338 
L 278.305 176.048751 
L 278.467408 138.760023 
L 278.629817 286.264938 
L 278.954634 164.291803 
L 279.117042 165.544159 
L 279.279451 274.185635 
L 279.441859 69.794003 
L 279.604268 239.060913 
L 279.766676 112.834888 
L 279.929085 113.22369 
L 280.091493 244.427025 
L 280.253901 69.977294 
L 280.41631 267.485657 
L 280.578718 164.484353 
L 280.741127 195.082187 
L 280.903535 190.436691 
L 281.065944 189.630128 
L 281.228352 190.452167 
L 281.390761 240.850988 
L 281.553169 97.989222 
L 281.715578 170.747667 
L 281.877986 173.334405 
L 282.202803 196.56931 
L 282.365212 140.451984 
L 282.52762 220.760091 
L 282.690029 70.505977 
L 283.014846 291.707663 
L 283.339663 211.571719 
L 283.502071 266.868167 
L 283.826888 184.032019 
L 283.989296 291.907354 
L 284.151705 90.321533 
L 284.314113 264.919788 
L 284.476522 274.600122 
L 284.63893 243.004214 
L 284.801339 99.462912 
L 284.963747 239.299718 
L 285.126156 176.527344 
L 285.450973 294.791081 
L 285.613381 181.002796 
L 285.77579 289.863478 
L 286.100607 241.524925 
L 286.425424 184.391712 
L 286.587832 265.184325 
L 286.750241 245.503642 
L 286.912649 92.279669 
L 287.075058 218.795044 
L 287.237466 73.263111 
L 287.399874 204.832188 
L 287.562283 222.377992 
L 287.724691 220.403927 
L 287.8871 167.236914 
L 288.049508 169.935641 
L 288.211917 264.586149 
L 288.699142 85.452227 
L 288.861551 178.268741 
L 289.023959 97.35073 
L 289.186368 248.996856 
L 289.348776 261.5323 
L 289.673593 197.635967 
L 289.836002 223.825321 
L 289.99841 178.05789 
L 290.160819 166.94043 
L 290.323227 98.675221 
L 290.648044 247.416852 
L 290.972861 155.458308 
L 291.135269 193.840897 
L 291.297678 265.507318 
L 291.460086 264.359861 
L 291.622495 294.599378 
L 291.784903 123.578003 
L 292.10972 291.861443 
L 292.434537 167.955832 
L 292.596946 205.692102 
L 292.759354 98.074538 
L 292.921763 231.278644 
L 293.084171 69.818497 
L 293.408988 247.28237 
L 293.571397 183.568249 
L 293.733805 258.590475 
L 293.896214 128.41572 
L 294.058622 92.744227 
L 294.221031 125.546482 
L 294.383439 243.192976 
L 294.545847 126.099903 
L 294.708256 168.085514 
L 294.870664 104.52786 
L 295.033073 239.920202 
L 295.195481 226.809325 
L 295.35789 116.476228 
L 295.520298 229.541848 
L 295.682707 185.740747 
L 295.845115 87.403149 
L 296.007524 211.855175 
L 296.169932 184.190048 
L 296.332341 276.048265 
L 296.494749 121.281643 
L 296.657158 130.301193 
L 296.819566 267.299335 
L 296.981975 196.457706 
L 297.144383 276.956534 
L 297.306792 255.379927 
L 297.4692 196.015414 
L 297.631609 239.025509 
L 297.794017 194.961215 
L 298.118834 293.739296 
L 298.281242 238.03351 
L 298.606059 284.028596 
L 298.768468 270.832969 
L 298.930876 122.943267 
L 299.093285 190.45343 
L 299.255693 137.036604 
L 299.418102 238.08985 
L 299.58051 158.897387 
L 299.905327 211.947421 
L 300.067736 292.828469 
L 300.230144 97.656491 
L 300.392553 220.336219 
L 300.554961 69.623372 
L 300.879778 274.261491 
L 301.042187 162.985987 
L 301.204595 248.649968 
L 301.367004 238.076169 
L 301.529412 294.627463 
L 301.69182 231.882851 
L 301.854229 247.463823 
L 302.016637 145.845511 
L 302.179046 148.299456 
L 302.341454 167.325241 
L 302.503863 264.891826 
L 302.666271 177.455429 
L 302.82868 152.770375 
L 303.153497 285.77567 
L 303.478314 258.874457 
L 303.640722 243.357721 
L 303.803131 292.655863 
L 303.965539 184.617614 
L 304.127948 209.62303 
L 304.452765 196.98533 
L 304.615173 153.579009 
L 304.777582 59.555007 
L 304.93999 206.96947 
L 305.102398 207.581598 
L 305.264807 109.08472 
L 305.589624 266.762661 
L 306.076849 212.659141 
L 306.239258 218.594648 
L 306.401666 133.41953 
L 306.564075 267.163025 
L 306.726483 205.313574 
L 307.0513 239.187528 
L 307.213709 170.632229 
L 307.376117 288.197385 
L 307.700934 203.061259 
L 307.863343 153.024393 
L 308.025751 294.339198 
L 308.350568 72.574735 
L 308.512976 217.579415 
L 308.675385 233.217611 
L 309.000202 69.967112 
L 309.16261 257.734911 
L 309.325019 228.484558 
L 309.487427 251.605359 
L 309.649836 162.842555 
L 309.812244 240.024609 
L 309.974653 204.374332 
L 310.137061 293.808814 
L 310.29947 101.129257 
L 310.461878 144.816708 
L 310.624287 221.723519 
L 310.786695 223.172126 
L 311.111512 124.243286 
L 311.273921 267.143975 
L 311.436329 153.737155 
L 311.598738 225.404368 
L 311.761146 83.970864 
L 311.923555 199.136221 
L 312.085963 70.235719 
L 312.248371 216.42583 
L 312.41078 247.690965 
L 312.573188 97.52549 
L 312.735597 291.110018 
L 312.898005 213.760889 
L 313.060414 69.913996 
L 313.385231 184.981183 
L 313.547639 215.236333 
L 313.710048 201.908027 
L 313.872456 69.929132 
L 314.034865 275.320771 
L 314.359682 175.626335 
L 314.52209 163.781379 
L 314.684499 170.228993 
L 314.846907 266.689518 
L 315.009316 267.6512 
L 315.171724 211.63495 
L 315.334133 221.675651 
L 315.496541 280.13184 
L 315.658949 98.110866 
L 315.821358 266.996034 
L 315.983766 288.343195 
L 316.146175 210.252886 
L 316.308583 285.305026 
L 316.470992 112.274655 
L 316.6334 219.216866 
L 316.795809 198.743435 
L 316.958217 92.254349 
L 317.283034 265.283 
L 317.445443 164.065803 
L 317.607851 146.20497 
L 317.77026 286.77197 
L 317.932668 100.54445 
L 318.095077 284.448262 
L 318.257485 148.394529 
L 318.582302 258.228799 
L 318.744711 214.622738 
L 318.907119 105.608304 
L 319.231936 263.669618 
L 319.556753 128.329556 
L 319.719161 183.557759 
L 319.88157 290.02342 
L 320.043978 241.548595 
L 320.206387 136.027675 
L 320.368795 245.980973 
L 320.531204 172.447145 
L 320.693612 160.445224 
L 321.018429 259.917622 
L 321.180838 247.771257 
L 321.343246 256.887094 
L 321.505655 212.615885 
L 321.668063 217.726833 
L 321.830472 256.131052 
L 321.99288 239.927502 
L 322.155289 247.24306 
L 322.317697 207.98512 
L 322.480106 266.911182 
L 322.642514 143.818059 
L 322.804922 270.290334 
L 322.967331 290.521291 
L 323.129739 269.809475 
L 323.292148 191.283819 
L 323.454556 239.159548 
L 323.616965 104.477755 
L 323.779373 252.112107 
L 323.941782 220.29044 
L 324.10419 294.363153 
L 324.266599 159.720469 
L 324.429007 134.844486 
L 324.591416 212.676561 
L 324.916233 118.752332 
L 325.078641 216.013727 
L 325.24105 217.193206 
L 325.403458 213.218871 
L 325.565867 294.070056 
L 325.728275 138.795515 
L 325.890684 211.291532 
L 326.2155 149.565012 
L 326.377909 218.368035 
L 326.540317 147.497921 
L 326.702726 289.735196 
L 327.027543 161.260145 
L 327.189951 152.669114 
L 327.514768 214.2877 
L 327.677177 236.731465 
L 328.001994 190.908943 
L 328.164402 230.745828 
L 328.326811 99.908384 
L 328.651628 227.686717 
L 328.814036 131.962361 
L 328.976445 114.547791 
L 329.138853 247.000549 
L 329.301262 153.442326 
L 329.46367 251.144243 
L 329.950895 171.274669 
L 330.275712 248.717486 
L 330.438121 131.68036 
L 330.600529 141.309618 
L 330.762938 95.315429 
L 330.925346 253.538271 
L 331.087755 189.808538 
L 331.250163 235.779658 
L 331.57498 134.274125 
L 331.737389 261.424451 
L 331.899797 170.227073 
L 332.062206 279.725389 
L 332.224614 263.281574 
L 332.387023 152.619453 
L 332.549431 175.051478 
L 332.71184 240.289284 
L 332.874248 169.153728 
L 333.036657 242.602009 
L 333.361473 129.485385 
L 333.523882 255.888347 
L 333.68629 177.34708 
L 333.848699 182.693652 
L 334.011107 202.793296 
L 334.173516 108.179888 
L 334.498333 252.883519 
L 334.660741 294.620688 
L 334.82315 166.03651 
L 334.985558 266.396158 
L 335.147967 294.389902 
L 335.310375 259.01322 
L 335.635192 122.183866 
L 335.797601 261.622581 
L 335.960009 129.108819 
L 336.284826 200.06209 
L 336.447235 122.64747 
L 336.609643 237.955185 
L 336.772051 137.286272 
L 336.93446 195.112275 
L 337.096868 169.29598 
L 337.259277 233.945075 
L 337.421685 233.972421 
L 337.584094 231.933798 
L 337.746502 294.87433 
L 337.908911 236.271741 
L 338.071319 235.423558 
L 338.233728 107.008334 
L 338.396136 218.502706 
L 338.558545 165.194435 
L 338.720953 289.657144 
L 338.883362 240.053982 
L 339.04577 149.504295 
L 339.208179 184.82126 
L 339.370587 285.175432 
L 339.532996 273.153099 
L 339.857813 218.058951 
L 340.182629 243.469171 
L 340.345038 141.722769 
L 340.669855 248.908593 
L 340.832263 160.707037 
L 340.994672 212.739367 
L 341.15708 143.329109 
L 341.319489 237.63219 
L 341.481897 227.724223 
L 341.644306 232.356771 
L 341.806714 263.045457 
L 341.969123 212.289487 
L 342.131531 110.559265 
L 342.29394 198.251884 
L 342.456348 97.668688 
L 342.618757 216.321053 
L 342.781165 241.305191 
L 342.943574 166.682877 
L 343.268391 282.548602 
L 343.430799 184.559044 
L 343.755616 225.500675 
L 343.918024 131.396659 
L 344.080433 212.120953 
L 344.242841 223.103038 
L 344.40525 212.864625 
L 344.567658 266.778096 
L 344.730067 73.689596 
L 344.892475 207.050569 
L 345.054884 107.00103 
L 345.217292 143.761798 
L 345.379701 127.802984 
L 345.542109 283.530424 
L 345.704518 90.947322 
L 345.866926 184.369763 
L 346.029335 127.637985 
L 346.191743 167.25552 
L 346.354152 293.502535 
L 346.51656 211.695725 
L 346.678969 197.192315 
L 347.003786 259.408931 
L 347.166194 194.154057 
L 347.328602 239.382015 
L 347.491011 92.670746 
L 347.653419 244.585735 
L 347.815828 150.79333 
L 347.978236 167.584892 
L 348.140645 198.535752 
L 348.465462 126.772253 
L 348.62787 265.832474 
L 348.790279 97.647792 
L 348.952687 243.636589 
L 349.115096 187.381216 
L 349.277504 184.75043 
L 349.439913 109.628567 
L 349.602321 245.459441 
L 349.76473 93.357974 
L 349.927138 126.112103 
L 350.089547 208.247392 
L 350.251955 121.001996 
L 350.414364 184.489256 
L 350.576772 70.701928 
L 350.73918 231.05563 
L 350.901589 140.657756 
L 351.063997 234.713277 
L 351.226406 197.590857 
L 351.388814 120.013383 
L 351.551223 238.044476 
L 351.713631 262.749647 
L 351.87604 267.414912 
L 352.038448 233.485554 
L 352.200857 105.344599 
L 352.363265 70.394516 
L 352.525674 293.211178 
L 352.688082 218.54419 
L 352.850491 232.737306 
L 353.012899 92.253524 
L 353.175308 120.103889 
L 353.337716 128.466234 
L 353.500125 130.082684 
L 353.662533 138.678737 
L 353.98735 235.772164 
L 354.149759 242.096526 
L 354.312167 184.12338 
L 354.636984 257.612498 
L 354.799392 234.578589 
L 355.124209 129.719263 
L 355.286618 166.238795 
L 355.449026 240.640958 
L 355.611435 118.279599 
L 355.773843 196.082198 
L 355.936252 198.616543 
L 356.09866 212.11421 
L 356.261069 242.463518 
L 356.423477 209.14211 
L 356.585886 237.702328 
L 356.748294 138.854914 
L 356.910703 183.453976 
L 357.073111 179.272093 
L 357.23552 131.378925 
L 357.397928 178.995139 
L 357.560337 186.992639 
L 357.722745 136.318185 
L 357.885153 216.496823 
L 358.047562 103.03411 
L 358.20997 112.700557 
L 358.372379 294.542764 
L 358.534787 209.860877 
L 359.022013 288.689946 
L 359.184421 191.076463 
L 359.34683 256.204426 
L 359.509238 238.175142 
L 359.671647 109.70104 
L 359.996464 280.897666 
L 360.158872 169.929355 
L 360.321281 244.285754 
L 360.483689 127.416016 
L 360.646098 119.95573 
L 360.808506 198.226615 
L 360.970915 156.120905 
L 361.133323 239.542199 
L 361.295732 264.344178 
L 361.45814 234.993653 
L 361.620548 126.672163 
L 361.782957 107.597204 
L 361.945365 218.008896 
L 362.107774 119.357681 
L 362.270182 119.925451 
L 362.432591 266.442463 
L 362.594999 266.347455 
L 362.757408 113.144757 
L 362.919816 268.785002 
L 363.082225 196.975277 
L 363.244633 207.225876 
L 363.407042 97.313576 
L 363.56945 256.157412 
L 363.731859 122.285482 
L 363.894267 172.986011 
L 364.056676 152.654761 
L 364.219084 258.968325 
L 364.381493 110.471758 
L 364.543901 260.233194 
L 364.70631 149.142765 
L 364.868718 253.893047 
L 365.031126 211.422185 
L 365.193535 209.712338 
L 365.355943 263.552906 
L 365.518352 244.179435 
L 365.68076 159.046468 
L 365.843169 216.576186 
L 366.005577 192.953809 
L 366.167986 70.273698 
L 366.330394 112.398499 
L 366.655211 238.996725 
L 366.81762 214.177332 
L 366.980028 231.82718 
L 367.142437 236.53154 
L 367.304845 255.147938 
L 367.467254 201.143865 
L 367.629662 278.872075 
L 367.792071 189.195083 
L 367.954479 164.310284 
L 368.116888 181.373304 
L 368.279296 141.526623 
L 368.441704 257.353179 
L 368.604113 117.549767 
L 368.766521 255.222742 
L 368.92893 203.958466 
L 369.091338 287.081764 
L 369.253747 73.041503 
L 369.740972 266.792642 
L 370.065789 69.670708 
L 370.228198 268.57498 
L 370.390606 294.974734 
L 370.553015 240.264025 
L 370.715423 234.43246 
L 370.877832 237.822833 
L 371.04024 152.748483 
L 371.202649 258.814742 
L 371.365057 232.938008 
L 371.527466 248.774122 
L 371.689874 173.582882 
L 371.852283 232.083336 
L 372.014691 163.31449 
L 372.177099 239.3732 
L 372.339508 245.392212 
L 372.664325 119.35992 
L 372.826733 173.570273 
L 372.989142 130.141212 
L 373.15155 182.270942 
L 373.313959 173.765416 
L 373.476367 284.020356 
L 373.638776 184.619014 
L 373.801184 184.795095 
L 374.126001 250.610577 
L 374.450818 152.382356 
L 374.613227 176.732812 
L 374.775635 112.765771 
L 374.938044 212.446242 
L 375.100452 195.302036 
L 375.262861 253.171472 
L 375.425269 83.521569 
L 375.587677 214.168071 
L 375.750086 137.083338 
L 375.912494 146.814805 
L 376.074903 212.314662 
L 376.237311 131.610356 
L 376.39972 121.06946 
L 376.562128 216.766143 
L 376.724537 169.903282 
L 376.886945 184.930659 
L 377.049354 239.548638 
L 377.211762 75.606298 
L 377.374171 114.256188 
L 377.536579 240.470178 
L 377.698988 265.457216 
L 377.861396 163.215986 
L 378.023805 178.997224 
L 378.186213 98.332962 
L 378.348622 136.439536 
L 378.51103 131.308137 
L 378.998255 244.419302 
L 379.160664 214.800776 
L 379.323072 105.215069 
L 379.485481 175.810462 
L 379.647889 139.626045 
L 379.810298 258.028808 
L 380.135115 151.294709 
L 380.297523 285.513813 
L 380.62234 118.956235 
L 380.947157 216.770241 
L 381.109566 203.096947 
L 381.271974 295.2425 
L 381.596791 238.748801 
L 381.7592 243.302401 
L 381.921608 106.593656 
L 382.084017 227.018423 
L 382.408834 279.035891 
L 382.571242 137.183423 
L 382.896059 252.872663 
L 383.058467 243.050643 
L 383.220876 164.016135 
L 383.383284 162.721275 
L 383.545693 177.487683 
L 383.708101 180.936922 
L 383.87051 219.321881 
L 384.195327 103.471461 
L 384.520144 91.63552 
L 384.682552 238.344269 
L 384.844961 109.684594 
L 385.007369 264.409455 
L 385.169778 161.668948 
L 385.332186 143.792455 
L 385.494595 225.102991 
L 385.657003 64.455936 
L 385.819412 153.133321 
L 385.98182 170.571334 
L 386.144228 134.077925 
L 386.469045 236.071256 
L 386.631454 239.554103 
L 386.956271 152.11716 
L 387.118679 230.199561 
L 387.281088 106.478923 
L 387.443496 131.727895 
L 387.605905 199.709948 
L 387.768313 210.045118 
L 388.09313 252.254915 
L 388.255539 141.844999 
L 388.417947 163.53822 
L 388.580356 69.707862 
L 388.742764 294.093391 
L 388.905173 217.297934 
L 389.067581 204.527475 
L 389.22999 111.225468 
L 389.392398 161.669357 
L 389.554806 163.705816 
L 389.879623 122.86172 
L 390.042032 104.013535 
L 390.20444 272.068465 
L 390.366849 146.246797 
L 390.529257 159.936671 
L 390.691666 108.278565 
L 390.854074 140.657324 
L 391.016483 277.316418 
L 391.178891 257.25306 
L 391.3413 212.328311 
L 391.503708 69.892804 
L 391.828525 266.408552 
L 392.153342 210.732483 
L 392.315751 240.265934 
L 392.478159 78.221485 
L 392.640568 143.806734 
L 392.802976 260.433099 
L 392.965385 102.205225 
L 393.290201 244.882308 
L 393.45261 118.142908 
L 393.615018 126.834139 
L 393.777427 210.574095 
L 393.939835 224.725259 
L 394.102244 223.315238 
L 394.264652 290.12573 
L 394.427061 162.775667 
L 394.589469 285.163875 
L 394.751878 97.203766 
L 395.076695 258.275108 
L 395.239103 248.009157 
L 395.401512 191.265658 
L 395.56392 235.458703 
L 395.726329 112.406476 
L 396.051146 233.15504 
L 396.375963 95.829969 
L 396.538371 68.106454 
L 396.700779 264.016743 
L 396.863188 163.349778 
L 397.188005 264.207545 
L 397.350413 194.188726 
L 397.512822 257.203456 
L 397.67523 230.924121 
L 398.000047 278.437362 
L 398.162456 134.844988 
L 398.324864 97.193921 
L 398.487273 166.646379 
L 398.487273 166.646379 
" clip-path="url(#p54eb58b589)" style="fill: none; stroke: #1f77b4; stroke-width: 1.5; stroke-linecap: square"/>
   </g>
   <g id="patch_3">
    <path d="M 57.6 307.584 
L 57.6 41.472 
" style="fill: none; stroke: #000000; stroke-width: 0.8; stroke-linejoin: miter; stroke-linecap: square"/>
   </g>
   <g id="patch_4">
    <path d="M 414.72 307.584 
L 414.72 41.472 
" style="fill: none; stroke: #000000; stroke-width: 0.8; stroke-linejoin: miter; stroke-linecap: square"/>
   </g>
   <g id="patch_5">
    <path d="M 57.6 307.584 
L 414.72 307.584 
" style="fill: none; stroke: #000000; stroke-width: 0.8; stroke-linejoin: miter; stroke-linecap: square"/>
   </g>
   <g id="patch_6">
    <path d="M 57.6 41.472 
L 414.72 41.472 
" style="fill: none; stroke: #000000; stroke-width: 0.8; stroke-linejoin: miter; stroke-linecap: square"/>
   </g>
  </g>
 </g>
 <defs>
  <clipPath id="p54eb58b589">
   <rect x="57.6" y="41.472" width="357.12" height="266.112"/>
  </clipPath>
 </defs>
</svg>
