<?xml version="1.0" encoding="utf-8" standalone="no"?>
<!DOCTYPE svg PUBLIC "-//W3C//DTD SVG 1.1//EN"
  "http://www.w3.org/Graphics/SVG/1.1/DTD/svg11.dtd">
<svg xmlns:xlink="http://www.w3.org/1999/xlink" width="460.8pt" height="345.6pt" viewBox="0 0 460.8 345.6" xmlns="http://www.w3.org/2000/svg" version="1.1">
 <metadata>
  <rdf:RDF xmlns:dc="http://purl.org/dc/elements/1.1/" xmlns:cc="http://creativecommons.org/ns#" xmlns:rdf="http://www.w3.org/1999/02/22-rdf-syntax-ns#">
   <cc:Work>
    <dc:type rdf:resource="http://purl.org/dc/dcmitype/StillImage"/>
    <dc:date>2024-04-17T15:09:38.135201</dc:date>
    <dc:format>image/svg+xml</dc:format>
    <dc:creator>
     <cc:Agent>
      <dc:title>Matplotlib v3.7.2, https://matplotlib.org/</dc:title>
     </cc:Agent>
    </dc:creator>
   </cc:Work>
  </rdf:RDF>
 </metadata>
 <defs>
  <style type="text/css">*{stroke-linejoin: round; stroke-linecap: butt}</style>
 </defs>
 <g id="figure_1">
  <g id="patch_1">
   <path d="M 0 345.6 
L 460.8 345.6 
L 460.8 0 
L 0 0 
z
" style="fill: #ffffff"/>
  </g>
  <g id="axes_1">
   <g id="patch_2">
    <path d="M 57.6 307.584 
L 414.72 307.584 
L 414.72 41.472 
L 57.6 41.472 
z
" style="fill: #ffffff"/>
   </g>
   <g id="matplotlib.axis_1">
    <g id="xtick_1">
     <g id="line2d_1">
      <defs>
       <path id="m0cc46de1f7" d="M 0 0 
L 0 3.5 
" style="stroke: #000000; stroke-width: 0.8"/>
      </defs>
      <g>
       <use xlink:href="#m0cc46de1f7" x="73.832727" y="307.584" style="stroke: #000000; stroke-width: 0.8"/>
      </g>
     </g>
     <g id="text_1">
      <!-- 0 -->
      <g transform="translate(70.651477 322.182437) scale(0.1 -0.1)">
       <defs>
        <path id="DejaVuSans-30" d="M 2034 4250 
Q 1547 4250 1301 3770 
Q 1056 3291 1056 2328 
Q 1056 1369 1301 889 
Q 1547 409 2034 409 
Q 2525 409 2770 889 
Q 3016 1369 3016 2328 
Q 3016 3291 2770 3770 
Q 2525 4250 2034 4250 
z
M 2034 4750 
Q 2819 4750 3233 4129 
Q 3647 3509 3647 2328 
Q 3647 1150 3233 529 
Q 2819 -91 2034 -91 
Q 1250 -91 836 529 
Q 422 1150 422 2328 
Q 422 3509 836 4129 
Q 1250 4750 2034 4750 
z
" transform="scale(0.015625)"/>
       </defs>
       <use xlink:href="#DejaVuSans-30"/>
      </g>
     </g>
    </g>
    <g id="xtick_2">
     <g id="line2d_2">
      <g>
       <use xlink:href="#m0cc46de1f7" x="138.828632" y="307.584" style="stroke: #000000; stroke-width: 0.8"/>
      </g>
     </g>
     <g id="text_2">
      <!-- 200 -->
      <g transform="translate(129.284882 322.182437) scale(0.1 -0.1)">
       <defs>
        <path id="DejaVuSans-32" d="M 1228 531 
L 3431 531 
L 3431 0 
L 469 0 
L 469 531 
Q 828 903 1448 1529 
Q 2069 2156 2228 2338 
Q 2531 2678 2651 2914 
Q 2772 3150 2772 3378 
Q 2772 3750 2511 3984 
Q 2250 4219 1831 4219 
Q 1534 4219 1204 4116 
Q 875 4013 500 3803 
L 500 4441 
Q 881 4594 1212 4672 
Q 1544 4750 1819 4750 
Q 2544 4750 2975 4387 
Q 3406 4025 3406 3419 
Q 3406 3131 3298 2873 
Q 3191 2616 2906 2266 
Q 2828 2175 2409 1742 
Q 1991 1309 1228 531 
z
" transform="scale(0.015625)"/>
       </defs>
       <use xlink:href="#DejaVuSans-32"/>
       <use xlink:href="#DejaVuSans-30" x="63.623047"/>
       <use xlink:href="#DejaVuSans-30" x="127.246094"/>
      </g>
     </g>
    </g>
    <g id="xtick_3">
     <g id="line2d_3">
      <g>
       <use xlink:href="#m0cc46de1f7" x="203.824537" y="307.584" style="stroke: #000000; stroke-width: 0.8"/>
      </g>
     </g>
     <g id="text_3">
      <!-- 400 -->
      <g transform="translate(194.280787 322.182437) scale(0.1 -0.1)">
       <defs>
        <path id="DejaVuSans-34" d="M 2419 4116 
L 825 1625 
L 2419 1625 
L 2419 4116 
z
M 2253 4666 
L 3047 4666 
L 3047 1625 
L 3713 1625 
L 3713 1100 
L 3047 1100 
L 3047 0 
L 2419 0 
L 2419 1100 
L 313 1100 
L 313 1709 
L 2253 4666 
z
" transform="scale(0.015625)"/>
       </defs>
       <use xlink:href="#DejaVuSans-34"/>
       <use xlink:href="#DejaVuSans-30" x="63.623047"/>
       <use xlink:href="#DejaVuSans-30" x="127.246094"/>
      </g>
     </g>
    </g>
    <g id="xtick_4">
     <g id="line2d_4">
      <g>
       <use xlink:href="#m0cc46de1f7" x="268.820442" y="307.584" style="stroke: #000000; stroke-width: 0.8"/>
      </g>
     </g>
     <g id="text_4">
      <!-- 600 -->
      <g transform="translate(259.276692 322.182437) scale(0.1 -0.1)">
       <defs>
        <path id="DejaVuSans-36" d="M 2113 2584 
Q 1688 2584 1439 2293 
Q 1191 2003 1191 1497 
Q 1191 994 1439 701 
Q 1688 409 2113 409 
Q 2538 409 2786 701 
Q 3034 994 3034 1497 
Q 3034 2003 2786 2293 
Q 2538 2584 2113 2584 
z
M 3366 4563 
L 3366 3988 
Q 3128 4100 2886 4159 
Q 2644 4219 2406 4219 
Q 1781 4219 1451 3797 
Q 1122 3375 1075 2522 
Q 1259 2794 1537 2939 
Q 1816 3084 2150 3084 
Q 2853 3084 3261 2657 
Q 3669 2231 3669 1497 
Q 3669 778 3244 343 
Q 2819 -91 2113 -91 
Q 1303 -91 875 529 
Q 447 1150 447 2328 
Q 447 3434 972 4092 
Q 1497 4750 2381 4750 
Q 2619 4750 2861 4703 
Q 3103 4656 3366 4563 
z
" transform="scale(0.015625)"/>
       </defs>
       <use xlink:href="#DejaVuSans-36"/>
       <use xlink:href="#DejaVuSans-30" x="63.623047"/>
       <use xlink:href="#DejaVuSans-30" x="127.246094"/>
      </g>
     </g>
    </g>
    <g id="xtick_5">
     <g id="line2d_5">
      <g>
       <use xlink:href="#m0cc46de1f7" x="333.816347" y="307.584" style="stroke: #000000; stroke-width: 0.8"/>
      </g>
     </g>
     <g id="text_5">
      <!-- 800 -->
      <g transform="translate(324.272597 322.182437) scale(0.1 -0.1)">
       <defs>
        <path id="DejaVuSans-38" d="M 2034 2216 
Q 1584 2216 1326 1975 
Q 1069 1734 1069 1313 
Q 1069 891 1326 650 
Q 1584 409 2034 409 
Q 2484 409 2743 651 
Q 3003 894 3003 1313 
Q 3003 1734 2745 1975 
Q 2488 2216 2034 2216 
z
M 1403 2484 
Q 997 2584 770 2862 
Q 544 3141 544 3541 
Q 544 4100 942 4425 
Q 1341 4750 2034 4750 
Q 2731 4750 3128 4425 
Q 3525 4100 3525 3541 
Q 3525 3141 3298 2862 
Q 3072 2584 2669 2484 
Q 3125 2378 3379 2068 
Q 3634 1759 3634 1313 
Q 3634 634 3220 271 
Q 2806 -91 2034 -91 
Q 1263 -91 848 271 
Q 434 634 434 1313 
Q 434 1759 690 2068 
Q 947 2378 1403 2484 
z
M 1172 3481 
Q 1172 3119 1398 2916 
Q 1625 2713 2034 2713 
Q 2441 2713 2670 2916 
Q 2900 3119 2900 3481 
Q 2900 3844 2670 4047 
Q 2441 4250 2034 4250 
Q 1625 4250 1398 4047 
Q 1172 3844 1172 3481 
z
" transform="scale(0.015625)"/>
       </defs>
       <use xlink:href="#DejaVuSans-38"/>
       <use xlink:href="#DejaVuSans-30" x="63.623047"/>
       <use xlink:href="#DejaVuSans-30" x="127.246094"/>
      </g>
     </g>
    </g>
    <g id="xtick_6">
     <g id="line2d_6">
      <g>
       <use xlink:href="#m0cc46de1f7" x="398.812252" y="307.584" style="stroke: #000000; stroke-width: 0.8"/>
      </g>
     </g>
     <g id="text_6">
      <!-- 1000 -->
      <g transform="translate(386.087252 322.182437) scale(0.1 -0.1)">
       <defs>
        <path id="DejaVuSans-31" d="M 794 531 
L 1825 531 
L 1825 4091 
L 703 3866 
L 703 4441 
L 1819 4666 
L 2450 4666 
L 2450 531 
L 3481 531 
L 3481 0 
L 794 0 
L 794 531 
z
" transform="scale(0.015625)"/>
       </defs>
       <use xlink:href="#DejaVuSans-31"/>
       <use xlink:href="#DejaVuSans-30" x="63.623047"/>
       <use xlink:href="#DejaVuSans-30" x="127.246094"/>
       <use xlink:href="#DejaVuSans-30" x="190.869141"/>
      </g>
     </g>
    </g>
   </g>
   <g id="matplotlib.axis_2">
    <g id="ytick_1">
     <g id="line2d_7">
      <defs>
       <path id="m9b17bbcaef" d="M 0 0 
L -3.5 0 
" style="stroke: #000000; stroke-width: 0.8"/>
      </defs>
      <g>
       <use xlink:href="#m9b17bbcaef" x="57.6" y="295.491762" style="stroke: #000000; stroke-width: 0.8"/>
      </g>
     </g>
     <g id="text_7">
      <!-- 0.0 -->
      <g transform="translate(34.696875 299.29098) scale(0.1 -0.1)">
       <defs>
        <path id="DejaVuSans-2e" d="M 684 794 
L 1344 794 
L 1344 0 
L 684 0 
L 684 794 
z
" transform="scale(0.015625)"/>
       </defs>
       <use xlink:href="#DejaVuSans-30"/>
       <use xlink:href="#DejaVuSans-2e" x="63.623047"/>
       <use xlink:href="#DejaVuSans-30" x="95.410156"/>
      </g>
     </g>
    </g>
    <g id="ytick_2">
     <g id="line2d_8">
      <g>
       <use xlink:href="#m9b17bbcaef" x="57.6" y="261.924935" style="stroke: #000000; stroke-width: 0.8"/>
      </g>
     </g>
     <g id="text_8">
      <!-- 0.5 -->
      <g transform="translate(34.696875 265.724153) scale(0.1 -0.1)">
       <defs>
        <path id="DejaVuSans-35" d="M 691 4666 
L 3169 4666 
L 3169 4134 
L 1269 4134 
L 1269 2991 
Q 1406 3038 1543 3061 
Q 1681 3084 1819 3084 
Q 2600 3084 3056 2656 
Q 3513 2228 3513 1497 
Q 3513 744 3044 326 
Q 2575 -91 1722 -91 
Q 1428 -91 1123 -41 
Q 819 9 494 109 
L 494 744 
Q 775 591 1075 516 
Q 1375 441 1709 441 
Q 2250 441 2565 725 
Q 2881 1009 2881 1497 
Q 2881 1984 2565 2268 
Q 2250 2553 1709 2553 
Q 1456 2553 1204 2497 
Q 953 2441 691 2322 
L 691 4666 
z
" transform="scale(0.015625)"/>
       </defs>
       <use xlink:href="#DejaVuSans-30"/>
       <use xlink:href="#DejaVuSans-2e" x="63.623047"/>
       <use xlink:href="#DejaVuSans-35" x="95.410156"/>
      </g>
     </g>
    </g>
    <g id="ytick_3">
     <g id="line2d_9">
      <g>
       <use xlink:href="#m9b17bbcaef" x="57.6" y="228.358107" style="stroke: #000000; stroke-width: 0.8"/>
      </g>
     </g>
     <g id="text_9">
      <!-- 1.0 -->
      <g transform="translate(34.696875 232.157326) scale(0.1 -0.1)">
       <use xlink:href="#DejaVuSans-31"/>
       <use xlink:href="#DejaVuSans-2e" x="63.623047"/>
       <use xlink:href="#DejaVuSans-30" x="95.410156"/>
      </g>
     </g>
    </g>
    <g id="ytick_4">
     <g id="line2d_10">
      <g>
       <use xlink:href="#m9b17bbcaef" x="57.6" y="194.79128" style="stroke: #000000; stroke-width: 0.8"/>
      </g>
     </g>
     <g id="text_10">
      <!-- 1.5 -->
      <g transform="translate(34.696875 198.590499) scale(0.1 -0.1)">
       <use xlink:href="#DejaVuSans-31"/>
       <use xlink:href="#DejaVuSans-2e" x="63.623047"/>
       <use xlink:href="#DejaVuSans-35" x="95.410156"/>
      </g>
     </g>
    </g>
    <g id="ytick_5">
     <g id="line2d_11">
      <g>
       <use xlink:href="#m9b17bbcaef" x="57.6" y="161.224453" style="stroke: #000000; stroke-width: 0.8"/>
      </g>
     </g>
     <g id="text_11">
      <!-- 2.0 -->
      <g transform="translate(34.696875 165.023672) scale(0.1 -0.1)">
       <use xlink:href="#DejaVuSans-32"/>
       <use xlink:href="#DejaVuSans-2e" x="63.623047"/>
       <use xlink:href="#DejaVuSans-30" x="95.410156"/>
      </g>
     </g>
    </g>
    <g id="ytick_6">
     <g id="line2d_12">
      <g>
       <use xlink:href="#m9b17bbcaef" x="57.6" y="127.657626" style="stroke: #000000; stroke-width: 0.8"/>
      </g>
     </g>
     <g id="text_12">
      <!-- 2.5 -->
      <g transform="translate(34.696875 131.456845) scale(0.1 -0.1)">
       <use xlink:href="#DejaVuSans-32"/>
       <use xlink:href="#DejaVuSans-2e" x="63.623047"/>
       <use xlink:href="#DejaVuSans-35" x="95.410156"/>
      </g>
     </g>
    </g>
    <g id="ytick_7">
     <g id="line2d_13">
      <g>
       <use xlink:href="#m9b17bbcaef" x="57.6" y="94.090799" style="stroke: #000000; stroke-width: 0.8"/>
      </g>
     </g>
     <g id="text_13">
      <!-- 3.0 -->
      <g transform="translate(34.696875 97.890018) scale(0.1 -0.1)">
       <defs>
        <path id="DejaVuSans-33" d="M 2597 2516 
Q 3050 2419 3304 2112 
Q 3559 1806 3559 1356 
Q 3559 666 3084 287 
Q 2609 -91 1734 -91 
Q 1441 -91 1130 -33 
Q 819 25 488 141 
L 488 750 
Q 750 597 1062 519 
Q 1375 441 1716 441 
Q 2309 441 2620 675 
Q 2931 909 2931 1356 
Q 2931 1769 2642 2001 
Q 2353 2234 1838 2234 
L 1294 2234 
L 1294 2753 
L 1863 2753 
Q 2328 2753 2575 2939 
Q 2822 3125 2822 3475 
Q 2822 3834 2567 4026 
Q 2313 4219 1838 4219 
Q 1578 4219 1281 4162 
Q 984 4106 628 3988 
L 628 4550 
Q 988 4650 1302 4700 
Q 1616 4750 1894 4750 
Q 2613 4750 3031 4423 
Q 3450 4097 3450 3541 
Q 3450 3153 3228 2886 
Q 3006 2619 2597 2516 
z
" transform="scale(0.015625)"/>
       </defs>
       <use xlink:href="#DejaVuSans-33"/>
       <use xlink:href="#DejaVuSans-2e" x="63.623047"/>
       <use xlink:href="#DejaVuSans-30" x="95.410156"/>
      </g>
     </g>
    </g>
    <g id="ytick_8">
     <g id="line2d_14">
      <g>
       <use xlink:href="#m9b17bbcaef" x="57.6" y="60.523972" style="stroke: #000000; stroke-width: 0.8"/>
      </g>
     </g>
     <g id="text_14">
      <!-- 3.5 -->
      <g transform="translate(34.696875 64.323191) scale(0.1 -0.1)">
       <use xlink:href="#DejaVuSans-33"/>
       <use xlink:href="#DejaVuSans-2e" x="63.623047"/>
       <use xlink:href="#DejaVuSans-35" x="95.410156"/>
      </g>
     </g>
    </g>
    <g id="text_15">
     <!-- 1e6 -->
     <g transform="translate(57.6 38.472) scale(0.1 -0.1)">
      <defs>
       <path id="DejaVuSans-65" d="M 3597 1894 
L 3597 1613 
L 953 1613 
Q 991 1019 1311 708 
Q 1631 397 2203 397 
Q 2534 397 2845 478 
Q 3156 559 3463 722 
L 3463 178 
Q 3153 47 2828 -22 
Q 2503 -91 2169 -91 
Q 1331 -91 842 396 
Q 353 884 353 1716 
Q 353 2575 817 3079 
Q 1281 3584 2069 3584 
Q 2775 3584 3186 3129 
Q 3597 2675 3597 1894 
z
M 3022 2063 
Q 3016 2534 2758 2815 
Q 2500 3097 2075 3097 
Q 1594 3097 1305 2825 
Q 1016 2553 972 2059 
L 3022 2063 
z
" transform="scale(0.015625)"/>
      </defs>
      <use xlink:href="#DejaVuSans-31"/>
      <use xlink:href="#DejaVuSans-65" x="63.623047"/>
      <use xlink:href="#DejaVuSans-36" x="125.146484"/>
     </g>
    </g>
   </g>
   <g id="line2d_15">
    <path d="M 73.832727 238.225264 
L 74.157707 237.018858 
L 74.482686 270.261983 
L 75.132645 132.457569 
L 75.457625 239.502996 
L 75.782604 151.777332 
L 76.107584 224.45602 
L 76.432563 126.403081 
L 76.757543 136.930606 
L 77.082523 295.484717 
L 77.407502 96.534129 
L 77.732482 145.056241 
L 78.057461 139.139756 
L 78.382441 149.904315 
L 78.70742 295.391061 
L 79.0324 288.742857 
L 79.357379 264.344123 
L 79.682359 288.740648 
L 80.332318 288.771818 
L 80.657297 295.451073 
L 81.307256 295.451921 
L 81.632236 234.808592 
L 81.957215 289.431383 
L 82.282195 295.451716 
L 82.607174 265.771597 
L 82.932154 288.771879 
L 83.257133 288.771994 
L 83.582113 265.992799 
L 83.907093 288.737827 
L 84.232072 295.484637 
L 84.557052 271.300393 
L 84.882031 146.406033 
L 85.53199 97.775644 
L 85.85697 98.768812 
L 86.181949 142.655781 
L 86.506929 87.038826 
L 86.831908 146.112513 
L 87.156888 53.614183 
L 87.481867 150.241178 
L 87.806847 142.714487 
L 88.131826 68.887367 
L 88.456806 97.96903 
L 88.781785 89.073619 
L 89.106765 91.699174 
L 89.431744 125.020089 
L 89.756724 123.685312 
L 90.081704 288.066241 
L 90.406683 239.829395 
L 90.731663 246.387471 
L 91.056642 288.738868 
L 91.381622 295.451826 
L 91.706601 288.73868 
L 92.031581 265.406303 
L 92.35656 295.451228 
L 92.68154 232.948635 
L 93.006519 295.451492 
L 93.331499 230.063385 
L 93.656478 230.778891 
L 93.981458 237.983307 
L 94.306437 288.738063 
L 94.631417 288.739501 
L 94.956396 230.400201 
L 95.281376 288.77182 
L 95.606355 288.738878 
L 95.931335 295.451858 
L 96.256314 291.826537 
L 96.581294 224.80994 
L 96.906274 295.45158 
L 97.231253 237.88076 
L 97.556233 283.299712 
L 97.881212 288.738285 
L 98.206192 227.804264 
L 98.531171 288.771254 
L 98.856151 267.968868 
L 99.18113 288.73822 
L 99.50611 245.219725 
L 99.831089 276.11615 
L 100.156069 274.442794 
L 100.481048 261.287495 
L 100.806028 288.771895 
L 101.131007 295.451805 
L 101.455987 295.451716 
L 101.780966 282.208347 
L 102.105946 277.477984 
L 102.430925 229.785889 
L 102.755905 288.738604 
L 103.080885 288.738321 
L 103.405864 283.430077 
L 103.730844 295.451708 
L 104.055823 289.968261 
L 104.380803 288.738297 
L 104.705782 210.355037 
L 105.030762 278.902865 
L 105.355741 249.384242 
L 105.680721 295.451765 
L 106.0057 288.738574 
L 106.33068 295.451661 
L 106.655659 219.439694 
L 106.980639 288.771717 
L 107.305618 295.45185 
L 107.630598 253.147032 
L 107.955577 295.451515 
L 108.280557 205.178206 
L 108.605536 282.769305 
L 108.930516 295.45128 
L 109.580475 295.451788 
L 109.905455 228.095775 
L 110.230434 267.599644 
L 110.555414 254.902729 
L 110.880393 285.992614 
L 111.205373 295.451265 
L 111.530352 295.451528 
L 111.855332 288.737804 
L 112.180311 288.771329 
L 112.505291 276.06348 
L 112.83027 273.152281 
L 113.15525 216.46998 
L 113.480229 253.778989 
L 113.805209 269.425711 
L 114.130188 295.418316 
L 114.455168 286.339797 
L 114.780147 288.771308 
L 115.105127 295.451775 
L 115.430106 295.452225 
L 116.080066 226.642037 
L 116.405045 135.578053 
L 117.055004 54.7566 
L 117.379984 111.629131 
L 117.704963 101.872173 
L 118.029943 125.397791 
L 118.354922 121.659855 
L 119.004881 70.835695 
L 119.65484 133.424805 
L 119.97982 117.101389 
L 120.304799 120.602049 
L 120.629779 75.086244 
L 121.279738 59.552725 
L 121.604717 148.465394 
L 122.254676 106.921694 
L 122.579656 71.918827 
L 122.904636 53.568 
L 123.229615 61.431784 
L 123.554595 139.536898 
L 123.879574 65.547802 
L 124.204554 119.012902 
L 124.529533 79.932198 
L 124.854513 83.007808 
L 125.179492 64.027069 
L 125.504472 145.264462 
L 125.829451 153.450242 
L 126.154431 259.283156 
L 126.47941 246.185067 
L 126.80439 282.062748 
L 127.129369 260.556602 
L 127.454349 288.775723 
L 127.779328 288.74247 
L 128.104308 272.14681 
L 128.429287 288.708862 
L 128.754267 295.456382 
L 129.079247 288.741371 
L 129.729206 288.743184 
L 130.054185 295.424628 
L 130.379165 288.743553 
L 130.704144 231.306968 
L 131.029124 295.452638 
L 131.354103 275.421446 
L 131.679083 295.451485 
L 132.004062 261.59752 
L 132.329042 295.421154 
L 132.654021 295.451823 
L 132.979001 290.150092 
L 133.30398 288.321777 
L 133.62896 278.186303 
L 133.953939 295.485212 
L 134.603898 284.11363 
L 134.928878 295.060349 
L 135.253857 214.093257 
L 135.578837 260.216186 
L 135.903817 288.738474 
L 136.228796 280.269508 
L 136.553776 288.772078 
L 136.878755 271.390811 
L 137.203735 272.94542 
L 137.528714 281.118712 
L 137.853694 248.280307 
L 138.178673 270.177621 
L 138.503653 267.070289 
L 138.828632 295.451805 
L 139.153612 267.323797 
L 139.478591 219.024876 
L 139.803571 228.275295 
L 140.12855 291.871047 
L 140.45353 288.706477 
L 140.778509 288.772013 
L 141.103489 295.451493 
L 141.428468 241.010759 
L 141.753448 288.772557 
L 142.078428 267.201131 
L 142.403407 268.433259 
L 142.728387 252.946461 
L 143.053366 295.485606 
L 143.378346 295.451396 
L 143.703325 229.761844 
L 144.028305 288.771632 
L 144.353284 288.77238 
L 144.678264 229.818806 
L 145.003243 295.451455 
L 145.328223 282.058951 
L 145.653202 286.332222 
L 145.978182 256.850882 
L 146.303161 269.640513 
L 146.628141 291.505067 
L 146.95312 227.257943 
L 147.2781 295.452393 
L 147.603079 288.738207 
L 148.253038 288.738408 
L 148.578018 236.453422 
L 148.902998 288.771774 
L 149.227977 288.739129 
L 149.552957 295.454838 
L 150.852875 295.451517 
L 151.177854 279.02537 
L 151.827813 268.789608 
L 152.152793 234.374939 
L 152.477772 295.451571 
L 152.802752 288.737764 
L 153.127731 233.111072 
L 153.77769 251.69466 
L 154.10267 295.485247 
L 154.427649 282.001466 
L 154.752629 285.337232 
L 155.077609 264.684283 
L 155.402588 295.451762 
L 156.052547 295.452199 
L 156.377527 228.095866 
L 156.702506 288.739115 
L 157.027486 268.822254 
L 157.352465 279.786731 
L 157.677445 295.451819 
L 158.002424 289.714773 
L 158.327404 248.835516 
L 158.652383 183.077353 
L 158.977363 229.864174 
L 159.302342 236.088167 
L 159.627322 261.164884 
L 159.952301 295.451525 
L 160.277281 271.158167 
L 160.60226 288.740398 
L 160.92724 288.754365 
L 161.252219 280.679546 
L 161.577199 263.297586 
L 161.902179 270.840552 
L 162.227158 288.738768 
L 162.552138 279.0461 
L 162.877117 295.484724 
L 163.202097 288.771376 
L 163.527076 295.484887 
L 163.852056 259.324732 
L 164.177035 295.452507 
L 164.502015 268.757409 
L 164.826994 295.45152 
L 165.151974 221.531283 
L 165.476953 282.485818 
L 165.801933 295.451573 
L 166.126912 244.399361 
L 166.451892 288.771679 
L 166.776871 243.567326 
L 167.101851 295.484868 
L 167.42683 295.484688 
L 168.07679 236.758148 
L 168.401769 283.256223 
L 169.051728 295.451908 
L 169.376708 288.60607 
L 169.701687 295.451623 
L 170.676626 253.13487 
L 171.001605 288.772873 
L 171.326585 288.738598 
L 171.651564 234.905221 
L 171.976544 295.484994 
L 172.301523 258.021961 
L 172.626503 295.484913 
L 172.951482 288.771761 
L 173.276462 295.484806 
L 173.601441 279.58666 
L 173.926421 214.618029 
L 174.2514 288.772927 
L 174.57638 282.058613 
L 174.90136 282.02514 
L 175.226339 295.451476 
L 175.551319 254.413359 
L 175.876298 264.407444 
L 176.201278 295.485283 
L 176.526257 288.739161 
L 177.176216 253.259815 
L 177.501196 295.452566 
L 177.826175 218.839498 
L 178.476134 288.705652 
L 178.801114 286.4757 
L 179.126093 295.485205 
L 179.451073 234.719279 
L 179.776052 280.104348 
L 180.101032 198.898179 
L 180.426011 270.259874 
L 180.750991 249.959723 
L 181.075971 271.649179 
L 181.40095 280.438631 
L 181.72593 285.913644 
L 182.050909 295.485312 
L 182.700868 295.42004 
L 183.025848 288.773634 
L 183.350827 263.296298 
L 183.675807 288.738861 
L 184.000786 238.570704 
L 184.325766 288.771152 
L 184.650745 288.77186 
L 184.975725 217.205849 
L 185.300704 263.566082 
L 185.625684 286.404542 
L 185.950663 295.451784 
L 186.275643 295.485471 
L 186.600622 288.771598 
L 186.925602 295.42082 
L 187.250581 295.45181 
L 187.575561 288.739132 
L 187.900541 295.45059 
L 188.22552 289.503151 
L 188.5505 217.007234 
L 188.875479 295.451731 
L 189.525438 295.452107 
L 189.850418 244.05859 
L 190.175397 275.133415 
L 190.500377 295.451996 
L 190.825356 275.28964 
L 191.150336 243.596215 
L 191.475315 274.896341 
L 191.800295 216.502328 
L 192.125274 242.563866 
L 192.450254 288.773047 
L 192.775233 288.771279 
L 193.100213 214.380081 
L 193.750172 295.451254 
L 194.075152 221.118504 
L 194.400131 249.686629 
L 194.725111 229.863076 
L 195.37507 288.737637 
L 195.700049 275.713327 
L 196.025029 295.485351 
L 196.350008 295.451975 
L 196.674988 231.587357 
L 196.999967 262.598792 
L 197.324947 248.518053 
L 197.649926 295.451471 
L 197.974906 258.472572 
L 198.299885 295.485165 
L 198.624865 288.738556 
L 198.949844 295.451375 
L 199.274824 217.308657 
L 199.599803 295.484382 
L 199.924783 295.484865 
L 200.574742 282.025554 
L 200.899722 280.046881 
L 201.549681 295.48503 
L 201.87466 288.738128 
L 202.19964 287.390725 
L 202.524619 279.116193 
L 202.849599 241.013064 
L 203.174578 277.038154 
L 203.499558 288.772395 
L 203.824537 281.428287 
L 204.149517 288.706671 
L 204.474496 288.738626 
L 204.799476 290.162583 
L 205.124455 295.451724 
L 206.099394 295.452425 
L 206.424373 288.771075 
L 206.749353 288.772484 
L 207.074333 287.017485 
L 207.399312 295.488 
L 207.724292 288.770967 
L 208.049271 295.451826 
L 208.374251 295.452505 
L 208.69923 263.308027 
L 209.02421 295.484559 
L 209.349189 295.453817 
L 209.674169 258.203233 
L 209.999148 285.810737 
L 210.324128 295.451598 
L 210.649107 288.772944 
L 210.974087 295.484885 
L 211.299066 288.738801 
L 211.624046 284.520785 
L 211.949025 270.189308 
L 212.274005 295.451221 
L 212.598984 282.058065 
L 213.248943 295.451648 
L 213.573923 295.485381 
L 214.223882 228.386575 
L 214.548862 242.2297 
L 214.873841 217.186517 
L 215.198821 295.451469 
L 215.5238 288.739223 
L 215.84878 254.024968 
L 216.173759 258.666624 
L 216.498739 288.772722 
L 216.823718 295.451705 
L 217.148698 268.613907 
L 217.473677 282.023888 
L 217.798657 288.771925 
L 218.123636 270.29975 
L 218.448616 288.73787 
L 218.773595 295.48544 
L 219.098575 295.484555 
L 219.423554 254.903612 
L 219.748534 288.771947 
L 220.398493 288.737725 
L 220.723473 266.639488 
L 221.048452 201.959336 
L 221.373432 284.094693 
L 221.698411 283.467733 
L 222.023391 234.228063 
L 222.34837 263.741492 
L 222.67335 263.734773 
L 222.998329 278.232543 
L 223.323309 261.649078 
L 223.648288 295.484607 
L 223.973268 217.204563 
L 224.298247 241.195485 
L 224.623227 245.182416 
L 224.948206 295.453621 
L 225.273186 290.610427 
L 225.598165 220.164061 
L 225.923145 295.453495 
L 226.248124 288.737845 
L 226.573104 254.756336 
L 226.898084 265.121303 
L 227.548043 295.453987 
L 227.873022 280.72427 
L 228.198002 295.420253 
L 228.522981 245.218489 
L 228.847961 216.013508 
L 229.17294 273.348136 
L 229.49792 278.805955 
L 229.822899 295.451866 
L 230.147879 288.772194 
L 230.472858 266.95288 
L 230.797838 278.271876 
L 231.122817 295.420472 
L 231.772776 271.318123 
L 232.097756 295.45354 
L 232.422735 275.523259 
L 232.747715 288.771993 
L 233.072695 238.456331 
L 233.397674 279.628385 
L 233.722654 295.243141 
L 234.047633 282.090988 
L 234.372613 291.962944 
L 234.697592 295.454408 
L 235.022572 295.484865 
L 235.347551 249.822365 
L 235.672531 278.742073 
L 236.32249 295.452659 
L 236.647469 240.840007 
L 236.972449 288.740242 
L 237.297428 283.124785 
L 237.622408 282.738092 
L 237.947387 227.895484 
L 238.597346 295.049734 
L 238.922326 288.772364 
L 239.247305 265.514817 
L 239.572285 288.738038 
L 239.897265 288.738008 
L 240.222244 295.451769 
L 240.547224 288.738849 
L 240.872203 293.066955 
L 241.197183 246.893764 
L 241.522162 284.063855 
L 241.847142 295.485407 
L 242.172121 288.738667 
L 242.497101 228.005092 
L 242.82208 245.389583 
L 243.14706 288.771582 
L 243.472039 279.807092 
L 243.797019 261.91998 
L 244.121998 275.72201 
L 244.446978 265.614172 
L 244.771957 277.698736 
L 245.096937 295.486443 
L 245.746896 295.486335 
L 246.071876 288.092443 
L 246.396855 295.451538 
L 246.721835 283.200976 
L 247.046814 286.805784 
L 247.371794 259.801979 
L 247.696773 288.738469 
L 248.021753 271.976403 
L 248.346732 288.772127 
L 248.996691 233.297572 
L 249.321671 234.988003 
L 249.64665 295.485679 
L 249.97163 295.274314 
L 250.296609 263.496202 
L 250.621589 295.484594 
L 250.946568 275.221187 
L 251.271548 283.739861 
L 251.596527 269.419004 
L 251.921507 276.335108 
L 252.246486 258.08527 
L 252.571466 288.771082 
L 252.896446 263.87847 
L 253.221425 288.738471 
L 253.546405 288.77197 
L 254.196364 228.082593 
L 254.521343 288.771222 
L 254.846323 295.48503 
L 255.171302 265.412802 
L 255.496282 288.771412 
L 255.821261 295.484773 
L 256.146241 288.738664 
L 256.7962 288.771424 
L 257.121179 282.060013 
L 257.446159 288.739195 
L 257.771138 267.835467 
L 258.096118 279.331279 
L 258.421097 242.257385 
L 258.746077 258.783433 
L 259.071057 286.243647 
L 259.721016 226.792204 
L 260.045995 288.741497 
L 260.370975 285.907505 
L 260.695954 282.026058 
L 261.020934 281.527688 
L 261.345913 288.740419 
L 261.670893 275.554264 
L 261.995872 288.774865 
L 262.320852 295.453758 
L 262.645831 288.775668 
L 262.970811 242.993399 
L 263.29579 295.486134 
L 264.595708 295.42301 
L 264.920688 288.772321 
L 265.570647 238.757406 
L 265.895627 284.366885 
L 266.220606 288.77333 
L 266.545586 295.454416 
L 267.195545 282.06287 
L 267.520524 288.772571 
L 267.845504 285.190558 
L 268.170483 288.741656 
L 268.495463 290.931711 
L 268.820442 226.069405 
L 269.145422 252.540184 
L 269.470401 267.040497 
L 269.795381 267.718842 
L 270.12036 288.741066 
L 270.44534 261.043795 
L 270.770319 257.279589 
L 271.095299 288.772843 
L 271.420278 295.454148 
L 271.745258 288.740619 
L 272.070238 270.530875 
L 272.720197 295.485903 
L 273.045176 288.740207 
L 273.370156 263.238536 
L 273.695135 288.772511 
L 274.020115 288.774642 
L 274.670074 247.875312 
L 274.995053 275.859504 
L 275.320033 288.967354 
L 275.969992 282.029245 
L 276.294971 280.87337 
L 276.619951 259.294099 
L 277.26991 288.73936 
L 277.594889 295.423083 
L 277.919869 240.679722 
L 278.244848 295.487125 
L 278.569828 295.455651 
L 278.894808 288.741686 
L 279.219787 284.490313 
L 279.544767 284.263702 
L 279.869746 230.199889 
L 280.194726 247.171409 
L 280.519705 288.773233 
L 280.844685 215.06931 
L 281.169664 289.381523 
L 281.494644 285.682876 
L 281.819623 295.45414 
L 282.144603 263.127969 
L 282.469582 288.738081 
L 282.794562 266.671879 
L 283.119541 233.004827 
L 283.444521 249.212514 
L 284.09448 261.238386 
L 284.419459 260.928347 
L 284.744439 295.45419 
L 285.069419 295.424628 
L 285.394398 252.005767 
L 285.719378 276.461188 
L 286.044357 288.739927 
L 286.369337 282.058479 
L 286.694316 282.061068 
L 287.019296 276.548293 
L 287.344275 282.060796 
L 287.669255 196.791336 
L 287.994234 242.25832 
L 288.319214 237.148185 
L 288.644193 237.178602 
L 288.969173 282.724357 
L 289.294152 251.638486 
L 289.619132 295.484953 
L 290.269091 211.640987 
L 290.59407 278.5071 
L 290.91905 288.77217 
L 291.244029 295.451427 
L 291.569009 295.451443 
L 291.893989 268.610154 
L 292.218968 266.226007 
L 292.543948 295.484941 
L 292.868927 270.22047 
L 293.193907 270.311565 
L 293.843866 282.058381 
L 294.168845 234.686679 
L 294.493825 295.452336 
L 294.818804 294.157189 
L 295.143784 288.738886 
L 295.468763 288.771569 
L 295.793743 295.451633 
L 296.118722 288.772814 
L 296.768681 279.196549 
L 297.093661 288.737802 
L 297.41864 252.172861 
L 297.74362 288.73766 
L 298.0686 246.814516 
L 298.393579 240.01178 
L 298.718559 295.484852 
L 299.043538 295.451878 
L 299.368518 263.553975 
L 299.693497 279.149125 
L 300.018477 288.738543 
L 300.343456 288.739451 
L 300.668436 284.480918 
L 300.993415 295.450241 
L 301.318395 279.696974 
L 301.643374 246.323773 
L 301.968354 282.062788 
L 302.293333 295.454182 
L 302.618313 288.74456 
L 302.943292 295.485697 
L 303.593251 295.453585 
L 303.918231 243.698029 
L 304.24321 282.059095 
L 304.56819 220.458585 
L 304.89317 295.421431 
L 305.218149 295.456321 
L 305.543129 288.386589 
L 305.868108 275.496666 
L 306.193088 288.771965 
L 306.518067 270.261474 
L 306.843047 276.698022 
L 307.168026 254.938455 
L 307.493006 295.485613 
L 307.817985 295.421061 
L 308.142965 280.56241 
L 308.467944 227.462173 
L 308.792924 278.21093 
L 309.117903 271.323377 
L 309.442883 295.454611 
L 310.092842 295.387758 
L 310.417821 258.990902 
L 310.742801 288.73998 
L 311.067781 284.669118 
L 311.71774 280.061213 
L 312.042719 239.836118 
L 312.367699 282.027469 
L 312.692678 261.450448 
L 313.017658 295.453186 
L 313.667617 295.485729 
L 313.992596 282.058109 
L 314.317576 295.485327 
L 314.642555 288.772096 
L 314.967535 288.772284 
L 315.292514 246.693842 
L 315.617494 219.077301 
L 315.942473 295.450969 
L 316.267453 295.451432 
L 316.592432 288.738642 
L 316.917412 288.738586 
L 317.567371 235.246184 
L 317.892351 295.452509 
L 318.21733 251.353327 
L 318.54231 287.682307 
L 318.867289 288.772329 
L 319.192269 288.771561 
L 319.517248 279.806642 
L 319.842228 295.451584 
L 320.817166 247.23585 
L 321.142146 288.772344 
L 321.467125 215.675593 
L 321.792105 226.979394 
L 322.117084 281.564303 
L 322.442064 288.772191 
L 322.767043 272.113391 
L 323.092023 288.737769 
L 323.417002 288.774737 
L 323.741982 258.773593 
L 324.066962 282.358 
L 324.391941 277.257206 
L 324.716921 207.441916 
L 325.0419 288.741875 
L 325.36688 194.211428 
L 325.691859 295.4527 
L 326.016839 288.774509 
L 326.341818 258.902076 
L 326.666798 288.773915 
L 326.991777 288.740381 
L 327.316757 278.89357 
L 327.641736 232.581368 
L 327.966716 288.772137 
L 328.291695 295.486958 
L 328.616675 245.900489 
L 328.941654 295.456497 
L 329.591613 265.933437 
L 329.916593 274.389499 
L 330.241572 295.423486 
L 330.566552 288.774028 
L 330.891532 288.774938 
L 331.216511 295.454128 
L 331.541491 288.74162 
L 331.86647 246.121336 
L 332.19145 295.487412 
L 332.841409 295.451959 
L 333.166388 288.772815 
L 333.491368 295.422853 
L 333.816347 268.080383 
L 334.141327 251.708868 
L 334.466306 288.740771 
L 334.791286 271.633773 
L 335.116265 295.487617 
L 335.441245 294.146382 
L 335.766224 288.742115 
L 336.091204 281.323629 
L 336.416183 295.45329 
L 336.741163 295.451499 
L 337.066143 226.599576 
L 337.391122 262.215337 
L 337.716102 278.17525 
L 338.041081 214.86088 
L 338.366061 285.124838 
L 338.69104 233.610839 
L 339.01602 295.485506 
L 339.340999 198.22 
L 339.665979 295.486646 
L 340.315938 277.580398 
L 340.640917 278.716185 
L 340.965897 287.967033 
L 341.290876 232.788148 
L 341.615856 295.484858 
L 341.940835 295.485658 
L 342.265815 288.738776 
L 342.590794 259.77022 
L 342.915774 280.814027 
L 343.240753 257.40603 
L 343.565733 288.771239 
L 343.890713 271.97809 
L 344.215692 282.783849 
L 344.540672 276.219529 
L 344.865651 288.772061 
L 345.190631 295.486544 
L 345.51561 254.50401 
L 345.84059 295.454599 
L 346.165569 231.353484 
L 346.490549 227.885509 
L 346.815528 295.487108 
L 347.140508 219.950969 
L 347.465487 283.098745 
L 347.790467 288.772375 
L 348.115446 245.565245 
L 348.440426 273.911995 
L 348.765405 288.740155 
L 349.090385 279.304862 
L 349.415364 225.862815 
L 349.740344 288.741079 
L 350.065324 295.453653 
L 350.390303 282.061567 
L 350.715283 242.82857 
L 351.040262 288.773058 
L 351.365242 253.827502 
L 351.690221 282.026442 
L 352.015201 285.420314 
L 352.34018 295.422155 
L 352.66516 288.7079 
L 352.990139 295.454567 
L 353.315119 284.366705 
L 353.640098 295.48623 
L 353.965078 239.766563 
L 354.290057 253.808741 
L 354.615037 295.453691 
L 355.264996 295.421702 
L 355.589975 218.080186 
L 355.914955 295.453562 
L 356.239934 260.190637 
L 356.564914 295.48624 
L 356.889894 295.453098 
L 357.214873 288.741092 
L 357.539853 295.453591 
L 357.864832 288.770494 
L 358.189812 244.161324 
L 358.514791 288.772661 
L 358.839771 282.058618 
L 359.16475 288.738755 
L 359.48973 257.633673 
L 360.139689 295.454654 
L 360.464668 295.453153 
L 360.789648 253.347868 
L 361.114627 288.74015 
L 361.439607 282.058578 
L 361.764586 228.559394 
L 362.089566 295.484059 
L 362.414545 236.641826 
L 362.739525 295.484539 
L 363.064505 283.468335 
L 363.389484 279.63714 
L 363.714464 253.361435 
L 364.039443 282.778059 
L 364.364423 295.451889 
L 364.689402 288.77148 
L 365.014382 220.781996 
L 365.339361 295.484675 
L 365.664341 267.892435 
L 365.98932 288.740872 
L 366.3143 288.774001 
L 366.639279 295.452631 
L 366.964259 252.172101 
L 367.289238 288.740259 
L 367.614218 288.774606 
L 367.939197 295.453521 
L 368.264177 295.454168 
L 368.589156 282.062826 
L 368.914136 294.074069 
L 369.239115 254.292473 
L 369.564095 288.675375 
L 369.889075 288.773386 
L 370.214054 240.096617 
L 370.539034 252.252703 
L 370.864013 240.094259 
L 371.188993 246.466847 
L 371.513972 274.514972 
L 371.838952 275.782064 
L 372.163931 288.555295 
L 372.488911 288.774176 
L 372.81389 279.537688 
L 373.13887 288.739341 
L 373.463849 215.08201 
L 374.113808 288.739668 
L 374.763767 288.737672 
L 375.088747 295.45457 
L 375.738706 265.616573 
L 376.063686 267.779639 
L 376.388665 217.923912 
L 376.713645 295.45392 
L 377.038624 295.420948 
L 377.363604 285.60565 
L 377.688583 231.969221 
L 378.013563 273.580047 
L 378.338542 288.740339 
L 378.663522 198.951389 
L 378.988501 295.452402 
L 379.313481 295.455306 
L 379.63846 288.740722 
L 380.288419 288.771549 
L 380.613399 295.485176 
L 380.938378 288.772146 
L 381.263358 291.877063 
L 381.913317 273.139434 
L 382.238296 295.485016 
L 382.563276 288.771499 
L 382.888256 295.45106 
L 383.213235 295.451667 
L 383.538215 263.637404 
L 383.863194 288.77184 
L 384.188174 295.48478 
L 384.513153 248.946596 
L 384.838133 293.532937 
L 385.163112 280.576804 
L 385.813071 295.453421 
L 386.138051 288.738897 
L 386.46303 278.969251 
L 386.78801 258.756359 
L 387.112989 266.201103 
L 387.437969 288.6046 
L 387.762948 207.543663 
L 388.087928 295.485709 
L 388.412907 250.872338 
L 388.737887 257.729964 
L 389.062867 288.774585 
L 389.387846 282.374247 
L 389.712826 288.740264 
L 390.037805 282.719961 
L 390.362785 278.874393 
L 390.687764 288.772175 
L 391.012744 288.773161 
L 391.337723 282.686919 
L 391.662703 243.580406 
L 391.987682 285.610447 
L 392.312662 233.241758 
L 392.637641 270.792252 
L 393.2876 288.741872 
L 393.61258 295.487078 
L 393.937559 241.011453 
L 394.262539 295.4539 
L 394.587518 242.381985 
L 394.912498 288.773556 
L 395.237477 282.0291 
L 395.562457 282.236006 
L 395.887437 295.453494 
L 396.212416 265.381528 
L 396.537396 254.227719 
L 396.862375 295.485866 
L 397.187355 267.885163 
L 397.512334 282.061763 
L 397.837314 270.980131 
L 398.162293 282.172245 
L 398.487273 288.772171 
L 398.487273 288.772171 
" clip-path="url(#pa11da8b1a8)" style="fill: none; stroke: #1f77b4; stroke-width: 1.5; stroke-linecap: square"/>
   </g>
   <g id="patch_3">
    <path d="M 57.6 307.584 
L 57.6 41.472 
" style="fill: none; stroke: #000000; stroke-width: 0.8; stroke-linejoin: miter; stroke-linecap: square"/>
   </g>
   <g id="patch_4">
    <path d="M 414.72 307.584 
L 414.72 41.472 
" style="fill: none; stroke: #000000; stroke-width: 0.8; stroke-linejoin: miter; stroke-linecap: square"/>
   </g>
   <g id="patch_5">
    <path d="M 57.6 307.584 
L 414.72 307.584 
" style="fill: none; stroke: #000000; stroke-width: 0.8; stroke-linejoin: miter; stroke-linecap: square"/>
   </g>
   <g id="patch_6">
    <path d="M 57.6 41.472 
L 414.72 41.472 
" style="fill: none; stroke: #000000; stroke-width: 0.8; stroke-linejoin: miter; stroke-linecap: square"/>
   </g>
  </g>
 </g>
 <defs>
  <clipPath id="pa11da8b1a8">
   <rect x="57.6" y="41.472" width="357.12" height="266.112"/>
  </clipPath>
 </defs>
</svg>
