<?xml version="1.0" encoding="utf-8" standalone="no"?>
<!DOCTYPE svg PUBLIC "-//W3C//DTD SVG 1.1//EN"
  "http://www.w3.org/Graphics/SVG/1.1/DTD/svg11.dtd">
<svg xmlns:xlink="http://www.w3.org/1999/xlink" width="460.8pt" height="345.6pt" viewBox="0 0 460.8 345.6" xmlns="http://www.w3.org/2000/svg" version="1.1">
 <metadata>
  <rdf:RDF xmlns:dc="http://purl.org/dc/elements/1.1/" xmlns:cc="http://creativecommons.org/ns#" xmlns:rdf="http://www.w3.org/1999/02/22-rdf-syntax-ns#">
   <cc:Work>
    <dc:type rdf:resource="http://purl.org/dc/dcmitype/StillImage"/>
    <dc:date>2024-04-17T22:52:41.505957</dc:date>
    <dc:format>image/svg+xml</dc:format>
    <dc:creator>
     <cc:Agent>
      <dc:title>Matplotlib v3.7.2, https://matplotlib.org/</dc:title>
     </cc:Agent>
    </dc:creator>
   </cc:Work>
  </rdf:RDF>
 </metadata>
 <defs>
  <style type="text/css">*{stroke-linejoin: round; stroke-linecap: butt}</style>
 </defs>
 <g id="figure_1">
  <g id="patch_1">
   <path d="M 0 345.6 
L 460.8 345.6 
L 460.8 0 
L 0 0 
z
" style="fill: #ffffff"/>
  </g>
  <g id="axes_1">
   <g id="patch_2">
    <path d="M 57.6 307.584 
L 414.72 307.584 
L 414.72 41.472 
L 57.6 41.472 
z
" style="fill: #ffffff"/>
   </g>
   <g id="matplotlib.axis_1">
    <g id="xtick_1">
     <g id="line2d_1">
      <defs>
       <path id="m89e022b1cd" d="M 0 0 
L 0 3.5 
" style="stroke: #000000; stroke-width: 0.8"/>
      </defs>
      <g>
       <use xlink:href="#m89e022b1cd" x="73.832727" y="307.584" style="stroke: #000000; stroke-width: 0.8"/>
      </g>
     </g>
     <g id="text_1">
      <!-- 0 -->
      <g transform="translate(70.651477 322.182437) scale(0.1 -0.1)">
       <defs>
        <path id="DejaVuSans-30" d="M 2034 4250 
Q 1547 4250 1301 3770 
Q 1056 3291 1056 2328 
Q 1056 1369 1301 889 
Q 1547 409 2034 409 
Q 2525 409 2770 889 
Q 3016 1369 3016 2328 
Q 3016 3291 2770 3770 
Q 2525 4250 2034 4250 
z
M 2034 4750 
Q 2819 4750 3233 4129 
Q 3647 3509 3647 2328 
Q 3647 1150 3233 529 
Q 2819 -91 2034 -91 
Q 1250 -91 836 529 
Q 422 1150 422 2328 
Q 422 3509 836 4129 
Q 1250 4750 2034 4750 
z
" transform="scale(0.015625)"/>
       </defs>
       <use xlink:href="#DejaVuSans-30"/>
      </g>
     </g>
    </g>
    <g id="xtick_2">
     <g id="line2d_2">
      <g>
       <use xlink:href="#m89e022b1cd" x="114.434847" y="307.584" style="stroke: #000000; stroke-width: 0.8"/>
      </g>
     </g>
     <g id="text_2">
      <!-- 250 -->
      <g transform="translate(104.891097 322.182437) scale(0.1 -0.1)">
       <defs>
        <path id="DejaVuSans-32" d="M 1228 531 
L 3431 531 
L 3431 0 
L 469 0 
L 469 531 
Q 828 903 1448 1529 
Q 2069 2156 2228 2338 
Q 2531 2678 2651 2914 
Q 2772 3150 2772 3378 
Q 2772 3750 2511 3984 
Q 2250 4219 1831 4219 
Q 1534 4219 1204 4116 
Q 875 4013 500 3803 
L 500 4441 
Q 881 4594 1212 4672 
Q 1544 4750 1819 4750 
Q 2544 4750 2975 4387 
Q 3406 4025 3406 3419 
Q 3406 3131 3298 2873 
Q 3191 2616 2906 2266 
Q 2828 2175 2409 1742 
Q 1991 1309 1228 531 
z
" transform="scale(0.015625)"/>
        <path id="DejaVuSans-35" d="M 691 4666 
L 3169 4666 
L 3169 4134 
L 1269 4134 
L 1269 2991 
Q 1406 3038 1543 3061 
Q 1681 3084 1819 3084 
Q 2600 3084 3056 2656 
Q 3513 2228 3513 1497 
Q 3513 744 3044 326 
Q 2575 -91 1722 -91 
Q 1428 -91 1123 -41 
Q 819 9 494 109 
L 494 744 
Q 775 591 1075 516 
Q 1375 441 1709 441 
Q 2250 441 2565 725 
Q 2881 1009 2881 1497 
Q 2881 1984 2565 2268 
Q 2250 2553 1709 2553 
Q 1456 2553 1204 2497 
Q 953 2441 691 2322 
L 691 4666 
z
" transform="scale(0.015625)"/>
       </defs>
       <use xlink:href="#DejaVuSans-32"/>
       <use xlink:href="#DejaVuSans-35" x="63.623047"/>
       <use xlink:href="#DejaVuSans-30" x="127.246094"/>
      </g>
     </g>
    </g>
    <g id="xtick_3">
     <g id="line2d_3">
      <g>
       <use xlink:href="#m89e022b1cd" x="155.036966" y="307.584" style="stroke: #000000; stroke-width: 0.8"/>
      </g>
     </g>
     <g id="text_3">
      <!-- 500 -->
      <g transform="translate(145.493216 322.182437) scale(0.1 -0.1)">
       <use xlink:href="#DejaVuSans-35"/>
       <use xlink:href="#DejaVuSans-30" x="63.623047"/>
       <use xlink:href="#DejaVuSans-30" x="127.246094"/>
      </g>
     </g>
    </g>
    <g id="xtick_4">
     <g id="line2d_4">
      <g>
       <use xlink:href="#m89e022b1cd" x="195.639085" y="307.584" style="stroke: #000000; stroke-width: 0.8"/>
      </g>
     </g>
     <g id="text_4">
      <!-- 750 -->
      <g transform="translate(186.095335 322.182437) scale(0.1 -0.1)">
       <defs>
        <path id="DejaVuSans-37" d="M 525 4666 
L 3525 4666 
L 3525 4397 
L 1831 0 
L 1172 0 
L 2766 4134 
L 525 4134 
L 525 4666 
z
" transform="scale(0.015625)"/>
       </defs>
       <use xlink:href="#DejaVuSans-37"/>
       <use xlink:href="#DejaVuSans-35" x="63.623047"/>
       <use xlink:href="#DejaVuSans-30" x="127.246094"/>
      </g>
     </g>
    </g>
    <g id="xtick_5">
     <g id="line2d_5">
      <g>
       <use xlink:href="#m89e022b1cd" x="236.241204" y="307.584" style="stroke: #000000; stroke-width: 0.8"/>
      </g>
     </g>
     <g id="text_5">
      <!-- 1000 -->
      <g transform="translate(223.516204 322.182437) scale(0.1 -0.1)">
       <defs>
        <path id="DejaVuSans-31" d="M 794 531 
L 1825 531 
L 1825 4091 
L 703 3866 
L 703 4441 
L 1819 4666 
L 2450 4666 
L 2450 531 
L 3481 531 
L 3481 0 
L 794 0 
L 794 531 
z
" transform="scale(0.015625)"/>
       </defs>
       <use xlink:href="#DejaVuSans-31"/>
       <use xlink:href="#DejaVuSans-30" x="63.623047"/>
       <use xlink:href="#DejaVuSans-30" x="127.246094"/>
       <use xlink:href="#DejaVuSans-30" x="190.869141"/>
      </g>
     </g>
    </g>
    <g id="xtick_6">
     <g id="line2d_6">
      <g>
       <use xlink:href="#m89e022b1cd" x="276.843323" y="307.584" style="stroke: #000000; stroke-width: 0.8"/>
      </g>
     </g>
     <g id="text_6">
      <!-- 1250 -->
      <g transform="translate(264.118323 322.182437) scale(0.1 -0.1)">
       <use xlink:href="#DejaVuSans-31"/>
       <use xlink:href="#DejaVuSans-32" x="63.623047"/>
       <use xlink:href="#DejaVuSans-35" x="127.246094"/>
       <use xlink:href="#DejaVuSans-30" x="190.869141"/>
      </g>
     </g>
    </g>
    <g id="xtick_7">
     <g id="line2d_7">
      <g>
       <use xlink:href="#m89e022b1cd" x="317.445443" y="307.584" style="stroke: #000000; stroke-width: 0.8"/>
      </g>
     </g>
     <g id="text_7">
      <!-- 1500 -->
      <g transform="translate(304.720443 322.182437) scale(0.1 -0.1)">
       <use xlink:href="#DejaVuSans-31"/>
       <use xlink:href="#DejaVuSans-35" x="63.623047"/>
       <use xlink:href="#DejaVuSans-30" x="127.246094"/>
       <use xlink:href="#DejaVuSans-30" x="190.869141"/>
      </g>
     </g>
    </g>
    <g id="xtick_8">
     <g id="line2d_8">
      <g>
       <use xlink:href="#m89e022b1cd" x="358.047562" y="307.584" style="stroke: #000000; stroke-width: 0.8"/>
      </g>
     </g>
     <g id="text_8">
      <!-- 1750 -->
      <g transform="translate(345.322562 322.182437) scale(0.1 -0.1)">
       <use xlink:href="#DejaVuSans-31"/>
       <use xlink:href="#DejaVuSans-37" x="63.623047"/>
       <use xlink:href="#DejaVuSans-35" x="127.246094"/>
       <use xlink:href="#DejaVuSans-30" x="190.869141"/>
      </g>
     </g>
    </g>
    <g id="xtick_9">
     <g id="line2d_9">
      <g>
       <use xlink:href="#m89e022b1cd" x="398.649681" y="307.584" style="stroke: #000000; stroke-width: 0.8"/>
      </g>
     </g>
     <g id="text_9">
      <!-- 2000 -->
      <g transform="translate(385.924681 322.182437) scale(0.1 -0.1)">
       <use xlink:href="#DejaVuSans-32"/>
       <use xlink:href="#DejaVuSans-30" x="63.623047"/>
       <use xlink:href="#DejaVuSans-30" x="127.246094"/>
       <use xlink:href="#DejaVuSans-30" x="190.869141"/>
      </g>
     </g>
    </g>
   </g>
   <g id="matplotlib.axis_2">
    <g id="ytick_1">
     <g id="line2d_10">
      <defs>
       <path id="mf529b10ef9" d="M 0 0 
L -3.5 0 
" style="stroke: #000000; stroke-width: 0.8"/>
      </defs>
      <g>
       <use xlink:href="#mf529b10ef9" x="57.6" y="297.510355" style="stroke: #000000; stroke-width: 0.8"/>
      </g>
     </g>
     <g id="text_10">
      <!-- 0 -->
      <g transform="translate(44.2375 301.309574) scale(0.1 -0.1)">
       <use xlink:href="#DejaVuSans-30"/>
      </g>
     </g>
    </g>
    <g id="ytick_2">
     <g id="line2d_11">
      <g>
       <use xlink:href="#mf529b10ef9" x="57.6" y="240.966993" style="stroke: #000000; stroke-width: 0.8"/>
      </g>
     </g>
     <g id="text_11">
      <!-- 1000 -->
      <g transform="translate(25.15 244.766212) scale(0.1 -0.1)">
       <use xlink:href="#DejaVuSans-31"/>
       <use xlink:href="#DejaVuSans-30" x="63.623047"/>
       <use xlink:href="#DejaVuSans-30" x="127.246094"/>
       <use xlink:href="#DejaVuSans-30" x="190.869141"/>
      </g>
     </g>
    </g>
    <g id="ytick_3">
     <g id="line2d_12">
      <g>
       <use xlink:href="#mf529b10ef9" x="57.6" y="184.423631" style="stroke: #000000; stroke-width: 0.8"/>
      </g>
     </g>
     <g id="text_12">
      <!-- 2000 -->
      <g transform="translate(25.15 188.22285) scale(0.1 -0.1)">
       <use xlink:href="#DejaVuSans-32"/>
       <use xlink:href="#DejaVuSans-30" x="63.623047"/>
       <use xlink:href="#DejaVuSans-30" x="127.246094"/>
       <use xlink:href="#DejaVuSans-30" x="190.869141"/>
      </g>
     </g>
    </g>
    <g id="ytick_4">
     <g id="line2d_13">
      <g>
       <use xlink:href="#mf529b10ef9" x="57.6" y="127.880269" style="stroke: #000000; stroke-width: 0.8"/>
      </g>
     </g>
     <g id="text_13">
      <!-- 3000 -->
      <g transform="translate(25.15 131.679488) scale(0.1 -0.1)">
       <defs>
        <path id="DejaVuSans-33" d="M 2597 2516 
Q 3050 2419 3304 2112 
Q 3559 1806 3559 1356 
Q 3559 666 3084 287 
Q 2609 -91 1734 -91 
Q 1441 -91 1130 -33 
Q 819 25 488 141 
L 488 750 
Q 750 597 1062 519 
Q 1375 441 1716 441 
Q 2309 441 2620 675 
Q 2931 909 2931 1356 
Q 2931 1769 2642 2001 
Q 2353 2234 1838 2234 
L 1294 2234 
L 1294 2753 
L 1863 2753 
Q 2328 2753 2575 2939 
Q 2822 3125 2822 3475 
Q 2822 3834 2567 4026 
Q 2313 4219 1838 4219 
Q 1578 4219 1281 4162 
Q 984 4106 628 3988 
L 628 4550 
Q 988 4650 1302 4700 
Q 1616 4750 1894 4750 
Q 2613 4750 3031 4423 
Q 3450 4097 3450 3541 
Q 3450 3153 3228 2886 
Q 3006 2619 2597 2516 
z
" transform="scale(0.015625)"/>
       </defs>
       <use xlink:href="#DejaVuSans-33"/>
       <use xlink:href="#DejaVuSans-30" x="63.623047"/>
       <use xlink:href="#DejaVuSans-30" x="127.246094"/>
       <use xlink:href="#DejaVuSans-30" x="190.869141"/>
      </g>
     </g>
    </g>
    <g id="ytick_5">
     <g id="line2d_14">
      <g>
       <use xlink:href="#mf529b10ef9" x="57.6" y="71.336907" style="stroke: #000000; stroke-width: 0.8"/>
      </g>
     </g>
     <g id="text_14">
      <!-- 4000 -->
      <g transform="translate(25.15 75.136126) scale(0.1 -0.1)">
       <defs>
        <path id="DejaVuSans-34" d="M 2419 4116 
L 825 1625 
L 2419 1625 
L 2419 4116 
z
M 2253 4666 
L 3047 4666 
L 3047 1625 
L 3713 1625 
L 3713 1100 
L 3047 1100 
L 3047 0 
L 2419 0 
L 2419 1100 
L 313 1100 
L 313 1709 
L 2253 4666 
z
" transform="scale(0.015625)"/>
       </defs>
       <use xlink:href="#DejaVuSans-34"/>
       <use xlink:href="#DejaVuSans-30" x="63.623047"/>
       <use xlink:href="#DejaVuSans-30" x="127.246094"/>
       <use xlink:href="#DejaVuSans-30" x="190.869141"/>
      </g>
     </g>
    </g>
   </g>
   <g id="line2d_15">
    <path d="M 73.832727 216.289178 
L 73.995136 123.660124 
L 74.319953 249.859138 
L 74.64477 284.689666 
L 74.969587 85.919292 
L 75.131995 231.625178 
L 75.294404 224.115711 
L 75.456812 259.163878 
L 75.619221 263.635929 
L 75.781629 274.233693 
L 75.944037 183.80851 
L 76.106446 261.624387 
L 76.593671 220.111373 
L 76.75608 292.610907 
L 76.918488 180.535855 
L 77.080897 268.787263 
L 77.243305 274.409101 
L 77.405714 263.449553 
L 77.568122 223.832836 
L 77.730531 233.436085 
L 77.892939 292.797369 
L 78.055348 252.920465 
L 78.217756 240.899971 
L 78.380165 210.439432 
L 78.542573 258.352898 
L 78.704982 238.377589 
L 79.029799 249.228041 
L 79.192207 178.512897 
L 79.354615 292.872625 
L 79.517024 260.602561 
L 79.679432 254.12968 
L 79.841841 292.324315 
L 80.004249 224.905959 
L 80.166658 250.95153 
L 80.491475 212.075177 
L 80.653883 262.774606 
L 80.816292 258.355251 
L 80.9787 176.920393 
L 81.141109 265.348356 
L 81.303517 196.808031 
L 81.465926 263.920254 
L 81.628334 151.658234 
L 81.790743 243.142837 
L 81.953151 219.926211 
L 82.277968 236.233388 
L 82.440377 169.224341 
L 82.765194 247.558445 
L 82.927602 265.574711 
L 83.09001 231.77591 
L 83.252419 153.51331 
L 83.414827 188.068574 
L 83.577236 294.36118 
L 83.902053 257.240819 
L 84.064461 217.921137 
L 84.22687 238.752851 
L 84.389278 237.444464 
L 84.551687 252.857615 
L 84.714095 181.85106 
L 84.876504 290.136212 
L 85.038912 263.913565 
L 85.201321 209.779927 
L 85.363729 231.806119 
L 85.526138 287.099449 
L 85.688546 215.02547 
L 86.013363 283.316986 
L 86.175772 209.275915 
L 86.33818 211.054162 
L 86.500588 207.000353 
L 86.662997 216.112747 
L 86.825405 252.549769 
L 86.987814 175.378154 
L 87.150222 253.633812 
L 87.312631 139.451883 
L 87.475039 204.910676 
L 87.637448 198.318357 
L 87.799856 238.434651 
L 87.962265 199.957861 
L 88.124673 292.292111 
L 88.287082 237.739739 
L 88.44949 237.196912 
L 88.611899 236.003695 
L 88.936716 286.547458 
L 89.099124 220.185866 
L 89.261533 294.295005 
L 89.423941 272.034228 
L 89.748758 204.803623 
L 90.073575 288.562007 
L 90.235983 293.407976 
L 90.5608 233.18728 
L 90.723209 291.881323 
L 90.885617 205.241191 
L 91.048026 290.183149 
L 91.210434 223.232001 
L 91.535251 292.037155 
L 91.69766 236.71678 
L 91.860068 266.730806 
L 92.022477 237.911922 
L 92.347294 273.929546 
L 92.509702 274.917481 
L 92.672111 241.366612 
L 92.834519 271.193945 
L 92.996928 161.411586 
L 93.159336 292.558754 
L 93.484153 235.132266 
L 93.646561 209.943558 
L 93.80897 247.750932 
L 93.971378 209.498364 
L 94.133787 265.142958 
L 94.296195 241.413413 
L 94.458604 260.374367 
L 94.621012 259.195622 
L 94.783421 292.65632 
L 95.108238 225.897218 
L 95.270646 261.165207 
L 95.433055 263.260141 
L 95.595463 222.956253 
L 95.92028 275.654174 
L 96.082689 237.006775 
L 96.245097 249.719404 
L 96.407506 292.664797 
L 96.894731 200.15701 
L 97.057139 265.083038 
L 97.219548 278.288243 
L 97.381956 272.500919 
L 97.544365 231.618261 
L 97.706773 223.379075 
L 97.869182 227.994848 
L 98.03159 292.211298 
L 98.193999 252.056445 
L 98.356407 290.746835 
L 98.518816 221.93287 
L 98.681224 295.488 
L 98.843633 230.059627 
L 99.006041 293.379779 
L 99.330858 230.536545 
L 99.493267 247.491259 
L 99.655675 295.144677 
L 99.818084 202.543557 
L 99.980492 255.641209 
L 100.142901 262.212796 
L 100.305309 289.421522 
L 100.467717 207.447038 
L 100.630126 277.993396 
L 100.792534 227.247751 
L 100.954943 214.668404 
L 101.27976 244.488082 
L 101.442168 193.167251 
L 101.604577 248.07623 
L 101.766985 232.784319 
L 101.929394 241.748669 
L 102.091802 293.551465 
L 102.254211 292.844267 
L 102.579028 216.989992 
L 102.741436 236.646943 
L 102.903845 291.61399 
L 103.066253 263.617108 
L 103.228662 259.716581 
L 103.39107 63.750484 
L 103.553479 283.341282 
L 103.878296 64.081828 
L 104.040704 265.175518 
L 104.203112 217.345674 
L 104.365521 230.111231 
L 104.527929 255.278947 
L 104.690338 63.788651 
L 105.015155 292.142636 
L 105.177563 224.260722 
L 105.339972 271.450525 
L 105.50238 58.502977 
L 105.664789 266.220091 
L 105.827197 266.988509 
L 105.989606 65.391054 
L 106.152014 264.355789 
L 106.476831 68.52473 
L 106.63924 207.785885 
L 106.801648 237.543678 
L 106.964057 212.366694 
L 107.126465 246.234211 
L 107.288874 252.683933 
L 107.451282 240.055927 
L 107.61369 63.662842 
L 107.776099 220.39893 
L 107.938507 234.036461 
L 108.100916 280.820325 
L 108.263324 226.262804 
L 108.425733 230.609178 
L 108.588141 256.780263 
L 108.75055 252.790523 
L 109.075367 213.672723 
L 109.237775 164.608223 
L 109.400184 261.746899 
L 109.562592 264.157874 
L 109.725001 245.354589 
L 109.887409 264.089797 
L 110.049818 210.765757 
L 110.212226 271.336988 
L 110.374635 87.658714 
L 110.537043 292.028935 
L 110.699452 281.103296 
L 111.024268 213.743236 
L 111.186677 251.801103 
L 111.349085 222.732172 
L 111.511494 242.780062 
L 111.673902 210.045592 
L 111.836311 261.887393 
L 111.998719 238.054744 
L 112.161128 235.388251 
L 112.323536 287.391782 
L 112.485945 267.062274 
L 112.648353 228.834899 
L 112.810762 259.452897 
L 112.97317 195.39548 
L 113.135579 207.930815 
L 113.297987 267.312736 
L 113.460396 237.447109 
L 113.785213 260.616489 
L 114.11003 215.432705 
L 114.272438 63.967328 
L 114.434847 208.354487 
L 114.597255 53.568 
L 114.759663 262.074148 
L 114.922072 265.758092 
L 115.08448 138.831691 
L 115.246889 264.229669 
L 115.409297 292.867609 
L 115.571706 270.476904 
L 115.734114 288.729658 
L 116.058931 223.244631 
L 116.383748 251.361363 
L 116.708565 292.178781 
L 116.870974 224.816931 
L 117.033382 238.272141 
L 117.195791 214.939193 
L 117.358199 267.139267 
L 117.520608 243.355254 
L 117.683016 291.968849 
L 117.845425 275.635441 
L 118.007833 293.775326 
L 118.170241 231.927415 
L 118.33265 225.015701 
L 118.495058 206.28806 
L 118.657467 233.280344 
L 118.819875 293.004605 
L 118.982284 236.356957 
L 119.144692 245.887487 
L 119.307101 293.413025 
L 119.469509 258.268413 
L 119.794326 235.135339 
L 119.956735 234.625525 
L 120.119143 201.124985 
L 120.281552 284.832821 
L 120.606369 204.907514 
L 120.768777 232.274554 
L 120.931186 289.820056 
L 121.093594 217.889293 
L 121.256003 203.447286 
L 121.418411 206.855366 
L 121.743228 292.393651 
L 121.905636 206.54718 
L 122.068045 292.902827 
L 122.230453 281.922556 
L 122.392862 236.518342 
L 122.55527 292.092949 
L 122.717679 231.335146 
L 122.880087 93.019873 
L 123.042496 234.985783 
L 123.204904 237.100743 
L 123.367313 292.644018 
L 123.529721 92.76571 
L 123.69213 233.235544 
L 123.854538 222.568231 
L 124.016947 263.122566 
L 124.179355 236.474499 
L 124.341764 63.837278 
L 124.504172 256.152304 
L 124.666581 291.660073 
L 124.991398 235.8863 
L 125.316214 284.179088 
L 125.478623 203.648248 
L 125.641031 265.252601 
L 125.80344 59.447817 
L 125.965848 224.953262 
L 126.128257 266.861429 
L 126.290665 234.907082 
L 126.453074 292.947082 
L 126.615482 274.716664 
L 126.777891 93.032029 
L 126.940299 240.77308 
L 127.102708 245.062082 
L 127.265116 252.458152 
L 127.427525 78.837114 
L 127.589933 226.803108 
L 127.752342 63.863288 
L 128.077159 229.609743 
L 128.239567 188.594801 
L 128.401976 115.899849 
L 128.564384 192.562798 
L 128.726792 92.25993 
L 128.889201 275.658547 
L 129.051609 102.378764 
L 129.214018 87.203257 
L 129.376426 87.317757 
L 129.538835 275.798247 
L 129.701243 63.901455 
L 129.863652 70.676929 
L 130.02606 275.044797 
L 130.350877 266.166638 
L 130.513286 110.877745 
L 130.675694 92.363122 
L 130.838103 169.97029 
L 131.000511 100.535134 
L 131.16292 293.000044 
L 131.325328 280.589914 
L 131.487737 104.901746 
L 131.650145 61.819262 
L 131.812554 290.892365 
L 131.974962 63.519055 
L 132.137371 232.141692 
L 132.299779 213.798947 
L 132.462187 88.353405 
L 132.624596 76.619608 
L 132.949413 131.571232 
L 133.111821 223.004446 
L 133.27423 76.579977 
L 133.436638 228.664572 
L 133.599047 266.442357 
L 133.761455 252.40556 
L 133.923864 254.883436 
L 134.086272 87.492194 
L 134.248681 264.475961 
L 134.411089 264.811046 
L 134.573498 237.163991 
L 134.735906 234.669579 
L 134.898315 278.387753 
L 135.060723 230.072857 
L 135.223132 246.760104 
L 135.38554 175.680536 
L 135.547949 255.26548 
L 135.710357 82.038304 
L 135.872765 64.835834 
L 136.035174 81.810151 
L 136.197582 234.273436 
L 136.359991 237.685744 
L 136.522399 236.768681 
L 136.684808 293.879581 
L 136.847216 223.437626 
L 137.009625 266.636827 
L 137.172033 92.310253 
L 137.49685 243.226563 
L 137.659259 221.851159 
L 137.821667 279.335996 
L 137.984076 265.41482 
L 138.146484 210.029516 
L 138.308893 196.79201 
L 138.471301 129.546734 
L 138.63371 220.433297 
L 138.796118 84.748561 
L 138.958527 289.89272 
L 139.120935 70.817988 
L 139.445752 290.295162 
L 139.60816 258.527318 
L 139.770569 258.09478 
L 139.932977 87.961707 
L 140.095386 238.758508 
L 140.257794 211.7852 
L 140.420203 220.772197 
L 140.582611 238.202826 
L 140.74502 221.551812 
L 140.907428 235.553258 
L 141.069837 265.531987 
L 141.232245 261.568941 
L 141.394654 234.919434 
L 141.557062 76.422134 
L 141.719471 154.152219 
L 141.881879 290.833918 
L 142.044288 186.050937 
L 142.206696 240.124135 
L 142.369105 207.365115 
L 142.693922 87.567679 
L 142.85633 284.269556 
L 143.018738 233.031066 
L 143.181147 290.650399 
L 143.343555 284.493742 
L 143.668372 203.992185 
L 143.993189 237.894094 
L 144.318006 184.357408 
L 144.480415 244.371329 
L 144.642823 237.577939 
L 144.96764 285.584488 
L 145.130049 287.434092 
L 145.292457 217.3138 
L 145.454866 245.901762 
L 145.617274 81.859852 
L 145.779683 266.97271 
L 145.942091 64.663276 
L 146.429316 263.838976 
L 146.591725 263.661179 
L 146.754133 289.028573 
L 146.916542 92.684005 
L 147.07895 293.165389 
L 147.241359 182.133357 
L 147.403767 235.590054 
L 147.566176 237.600971 
L 147.728584 231.705832 
L 147.890993 232.200808 
L 148.053401 259.928589 
L 148.21581 237.996738 
L 148.378218 277.653712 
L 148.540627 213.967051 
L 148.703035 274.599511 
L 148.865444 237.246594 
L 149.027852 237.424198 
L 149.190261 242.61853 
L 149.352669 236.856609 
L 149.677486 266.260458 
L 150.002303 210.069885 
L 150.164711 265.107458 
L 150.32712 228.515291 
L 150.489528 238.08019 
L 150.651937 292.4412 
L 150.814345 238.921257 
L 150.976754 275.521288 
L 151.301571 261.428105 
L 151.463979 287.580921 
L 151.626388 104.436037 
L 151.951205 257.13733 
L 152.113613 259.206413 
L 152.276022 207.592707 
L 152.43843 284.503883 
L 152.600839 72.62834 
L 152.763247 292.668475 
L 152.925656 263.840502 
L 153.088064 292.082552 
L 153.412881 207.526408 
L 153.575289 286.841484 
L 153.737698 269.651141 
L 153.900106 215.772105 
L 154.062515 86.860604 
L 154.224923 237.015382 
L 154.387332 207.973581 
L 154.712149 245.085711 
L 154.874557 224.634049 
L 155.036966 291.631616 
L 155.199374 98.64675 
L 155.361783 254.980497 
L 155.524191 229.399633 
L 155.6866 260.787492 
L 155.849008 129.838931 
L 156.173825 240.445877 
L 156.336234 215.30486 
L 156.498642 293.835171 
L 156.661051 217.065038 
L 156.823459 63.929161 
L 156.985867 247.965185 
L 157.310684 290.265285 
L 157.473093 245.004372 
L 157.635501 246.095217 
L 157.79791 224.439289 
L 157.960318 282.644812 
L 158.122727 64.231951 
L 158.285135 224.11877 
L 158.447544 231.119196 
L 158.609952 64.509579 
L 158.772361 235.76067 
L 158.934769 92.792568 
L 159.097178 92.537946 
L 159.259586 210.361645 
L 159.421995 64.255416 
L 159.584403 262.168303 
L 159.746812 112.207702 
L 159.90922 289.491046 
L 160.071629 245.585796 
L 160.234037 144.152349 
L 160.558854 209.533928 
L 160.721262 264.617428 
L 160.883671 263.885983 
L 161.046079 76.514017 
L 161.208488 229.103411 
L 161.370896 237.365864 
L 161.533305 237.732567 
L 161.695713 291.749876 
L 161.858122 91.522073 
L 162.02053 262.542493 
L 162.182939 266.35224 
L 162.345347 199.357113 
L 162.507756 276.229315 
L 162.670164 269.343615 
L 162.832573 237.734686 
L 162.994981 289.668946 
L 163.15739 63.662842 
L 163.319798 233.861906 
L 163.482207 274.397886 
L 163.644615 220.328823 
L 163.807024 268.359808 
L 163.969432 281.110634 
L 164.13184 63.816357 
L 164.294249 281.675292 
L 164.456657 228.117638 
L 164.619066 64.080132 
L 164.781474 232.680011 
L 164.943883 92.467161 
L 165.106291 189.986402 
L 165.2687 189.999011 
L 165.431108 270.604632 
L 165.593517 203.847847 
L 165.755925 197.942791 
L 165.918334 93.183848 
L 166.080742 295.27782 
L 166.243151 292.534155 
L 166.405559 259.98351 
L 166.567968 250.50102 
L 166.892785 264.401506 
L 167.055193 238.180986 
L 167.217602 265.726006 
L 167.542418 92.553955 
L 167.867235 63.977788 
L 168.192052 238.061709 
L 168.354461 64.33175 
L 168.516869 264.16668 
L 168.679278 160.945798 
L 168.841686 241.348248 
L 169.004095 210.247446 
L 169.166503 211.347884 
L 169.328912 264.907036 
L 169.49132 274.179404 
L 169.653729 63.842367 
L 169.816137 231.964469 
L 169.978546 237.52047 
L 170.140954 159.329348 
L 170.303363 276.334097 
L 170.465771 191.972313 
L 170.62818 293.868599 
L 170.952996 207.413619 
L 171.115405 267.272364 
L 171.277813 122.176356 
L 171.440222 82.141495 
L 171.60263 240.686391 
L 171.765039 231.253241 
L 172.252264 264.969614 
L 172.414673 63.751332 
L 172.577081 63.902303 
L 172.73949 289.028568 
L 172.901898 274.72952 
L 173.064307 176.468521 
L 173.226715 263.891678 
L 173.551532 200.796894 
L 173.876349 274.514 
L 174.038758 237.574536 
L 174.201166 292.271524 
L 174.363575 236.286074 
L 174.525983 76.422134 
L 174.688391 291.000763 
L 174.8508 242.894523 
L 175.013208 264.502733 
L 175.175617 137.470599 
L 175.338025 124.103524 
L 175.500434 237.69252 
L 175.662842 257.217532 
L 175.825251 92.428995 
L 175.987659 64.47226 
L 176.150068 263.624361 
L 176.312476 92.629441 
L 176.474885 220.521337 
L 176.637293 207.781005 
L 176.799702 245.082956 
L 176.96211 240.13438 
L 177.124519 264.662613 
L 177.286927 263.889374 
L 177.449336 64.824525 
L 177.611744 243.43193 
L 177.774153 235.510177 
L 177.936561 235.711834 
L 178.098969 257.933704 
L 178.261378 246.98706 
L 178.423786 128.296395 
L 178.586195 174.687922 
L 178.748603 120.413958 
L 178.911012 287.188038 
L 179.235829 154.540967 
L 179.398237 166.366384 
L 179.560646 234.941276 
L 179.723054 98.100521 
L 179.885463 264.684157 
L 180.047871 250.383358 
L 180.21028 293.525093 
L 180.372688 231.080823 
L 180.697505 252.223234 
L 180.859914 92.314494 
L 181.022322 264.425412 
L 181.184731 278.3111 
L 181.347139 233.773144 
L 181.509548 260.818728 
L 181.671956 235.370201 
L 181.996773 287.57573 
L 182.159181 207.482266 
L 182.32159 201.243566 
L 182.483998 246.934439 
L 182.646407 260.46272 
L 182.808815 160.909322 
L 182.971224 193.748247 
L 183.133632 120.026336 
L 183.296041 140.088559 
L 183.620858 238.98703 
L 183.783266 236.759723 
L 183.945675 203.965625 
L 184.108083 197.184251 
L 184.4329 263.927602 
L 184.595309 193.489028 
L 184.757717 255.768019 
L 185.082534 210.148137 
L 185.244942 265.746404 
L 185.407351 123.015568 
L 185.569759 234.276257 
L 185.732168 92.591274 
L 185.894576 263.838954 
L 186.056985 235.428862 
L 186.219393 266.612856 
L 186.381802 238.361065 
L 186.54421 251.337051 
L 186.706619 234.753085 
L 186.869027 233.34214 
L 187.031436 263.748897 
L 187.193844 167.779803 
L 187.356253 292.699861 
L 187.518661 266.192087 
L 187.68107 206.957475 
L 188.005887 264.727981 
L 188.168295 232.761936 
L 188.330704 238.271228 
L 188.493112 109.233832 
L 188.65552 179.883187 
L 188.817929 130.418183 
L 188.980337 288.742195 
L 189.142746 225.369542 
L 189.467563 287.589686 
L 189.629971 64.065431 
L 189.79238 274.508211 
L 190.117197 63.864136 
L 190.279605 247.801427 
L 190.442014 184.434951 
L 190.604422 293.987596 
L 190.766831 99.230336 
L 190.929239 213.544944 
L 191.091648 91.532311 
L 191.254056 222.861975 
L 191.416465 192.697511 
L 191.578873 287.347684 
L 191.90369 205.320014 
L 192.066099 258.863885 
L 192.228507 187.797966 
L 192.390915 187.313406 
L 192.553324 277.648038 
L 192.715732 283.426583 
L 192.878141 263.635864 
L 193.040549 266.790009 
L 193.202958 137.67046 
L 193.365366 266.361054 
L 193.527775 162.466315 
L 193.690183 231.399876 
L 193.852592 218.677102 
L 194.015 251.798747 
L 194.177409 243.830423 
L 194.339817 171.295702 
L 194.502226 223.042785 
L 194.664634 142.120563 
L 194.827043 234.939381 
L 194.989451 203.891844 
L 195.15186 294.036051 
L 195.476677 92.222611 
L 195.639085 248.443131 
L 195.801493 93.032029 
L 195.963902 218.476155 
L 196.288719 243.200218 
L 196.451127 208.561476 
L 196.613536 266.963474 
L 196.775944 238.486672 
L 196.938353 184.785593 
L 197.100761 293.636446 
L 197.26317 125.314892 
L 197.425578 236.748389 
L 197.587987 242.508956 
L 197.912804 174.059238 
L 198.075212 201.563699 
L 198.237621 191.339416 
L 198.400029 245.348872 
L 198.562438 92.336263 
L 198.724846 248.819116 
L 198.887255 241.718204 
L 199.049663 223.056236 
L 199.212071 229.066522 
L 199.37448 166.857862 
L 199.536888 234.427605 
L 199.699297 226.587254 
L 199.861705 287.953498 
L 200.024114 208.245239 
L 200.186522 249.050937 
L 200.348931 238.628386 
L 200.511339 163.282366 
L 200.673748 169.895184 
L 200.836156 159.293325 
L 200.998565 182.869093 
L 201.160973 293.219792 
L 201.323382 208.462811 
L 201.48579 212.038867 
L 201.648199 235.955907 
L 201.810607 193.534398 
L 201.973016 235.703777 
L 202.135424 237.495703 
L 202.297833 264.049858 
L 202.460241 214.733435 
L 202.62265 59.181498 
L 202.785058 289.643752 
L 202.947466 295.047648 
L 203.434692 177.184386 
L 203.759509 293.880036 
L 203.921917 100.200151 
L 204.084326 256.112858 
L 204.246734 178.920378 
L 204.409143 255.392576 
L 204.571551 265.000035 
L 204.73396 224.366012 
L 204.896368 145.096998 
L 205.058777 229.007058 
L 205.221185 160.144625 
L 205.383594 140.414241 
L 205.546002 264.151165 
L 205.708411 167.657711 
L 205.870819 264.707709 
L 206.195636 216.311557 
L 206.358044 199.774965 
L 206.520453 249.495314 
L 206.682861 248.610746 
L 206.84527 236.512676 
L 207.007678 255.270572 
L 207.170087 234.051251 
L 207.494904 241.443075 
L 207.657312 265.747034 
L 207.819721 230.754244 
L 207.982129 253.86228 
L 208.144538 235.63081 
L 208.306946 263.773813 
L 208.469355 266.173432 
L 208.631763 153.168506 
L 208.794172 213.069209 
L 208.95658 203.235926 
L 209.118989 291.963641 
L 209.443806 219.142599 
L 209.768622 280.52178 
L 209.931031 86.927325 
L 210.093439 293.808639 
L 210.255848 236.952299 
L 210.418256 234.304946 
L 210.580665 291.912335 
L 210.743073 165.944018 
L 210.905482 263.63711 
L 211.06789 291.307622 
L 211.230299 271.980726 
L 211.392707 236.681138 
L 211.555116 235.438997 
L 211.717524 182.336697 
L 211.879933 260.899116 
L 212.042341 237.425902 
L 212.20475 233.228127 
L 212.367158 86.938634 
L 212.529567 294.783564 
L 212.691975 187.327991 
L 212.854384 295.102764 
L 213.016792 202.40776 
L 213.179201 263.042285 
L 213.341609 199.165767 
L 213.504017 257.200522 
L 213.666426 86.813673 
L 213.828834 248.828165 
L 214.153651 229.660024 
L 214.31606 233.594828 
L 214.478468 289.838026 
L 214.640877 235.472392 
L 214.965694 265.286059 
L 215.128102 286.718486 
L 215.290511 92.90622 
L 215.452919 221.802101 
L 215.615328 192.478817 
L 215.777736 264.2861 
L 216.102553 237.597903 
L 216.264962 189.368995 
L 216.42737 92.754402 
L 216.589779 245.422077 
L 216.752187 265.131629 
L 216.914595 87.705738 
L 217.239412 160.316736 
L 217.401821 285.447268 
L 217.564229 243.854846 
L 217.726638 241.768845 
L 217.889046 249.586836 
L 218.051455 167.736529 
L 218.213863 236.173552 
L 218.376272 101.824635 
L 218.53868 237.599318 
L 218.701089 195.252692 
L 219.025906 259.637359 
L 219.188314 163.829439 
L 219.350723 193.209108 
L 219.513131 283.537023 
L 220.000357 227.969632 
L 220.162765 289.733823 
L 220.325173 294.463368 
L 220.487582 258.507857 
L 220.64999 292.497093 
L 221.137216 92.542647 
L 221.299624 261.482211 
L 221.462033 294.908435 
L 221.624441 261.137229 
L 221.78685 264.578605 
L 221.949258 252.584801 
L 222.111667 117.315085 
L 222.436484 291.678923 
L 222.598892 86.949943 
L 222.761301 289.860471 
L 222.923709 77.546726 
L 223.086118 92.417686 
L 223.248526 267.194443 
L 223.410935 287.235505 
L 223.573343 260.224186 
L 223.89816 142.843026 
L 224.060568 141.550713 
L 224.222977 236.111545 
L 224.385385 206.863629 
L 224.547794 217.71988 
L 224.710202 257.271674 
L 224.872611 223.523884 
L 225.035019 261.061467 
L 225.359836 172.752367 
L 225.522245 263.624361 
L 225.684653 198.014951 
L 225.847062 184.062467 
L 226.00947 207.673191 
L 226.171879 271.632992 
L 226.334287 259.910082 
L 226.496696 203.484154 
L 226.821513 289.761601 
L 226.983921 186.854594 
L 227.14633 250.53575 
L 227.308738 101.734254 
L 227.471146 251.732607 
L 227.633555 211.929653 
L 227.958372 235.883702 
L 228.12078 238.538705 
L 228.283189 264.158413 
L 228.445597 261.453779 
L 228.608006 154.346466 
L 228.770414 245.390041 
L 228.932823 64.070519 
L 229.095231 110.70543 
L 229.25764 229.512566 
L 229.420048 265.916761 
L 229.582457 230.56194 
L 229.907274 92.352661 
L 230.069682 264.588641 
L 230.232091 241.700236 
L 230.394499 200.841691 
L 230.556908 211.083837 
L 230.719316 268.181929 
L 230.881724 243.282193 
L 231.044133 264.03576 
L 231.206541 237.353687 
L 231.36895 135.596921 
L 231.531358 286.769373 
L 231.693767 131.365205 
L 231.856175 146.615176 
L 232.018584 263.899651 
L 232.180992 228.3964 
L 232.343401 240.682987 
L 232.505809 87.404551 
L 232.668218 92.20169 
L 232.830626 203.151171 
L 232.993035 138.086668 
L 233.155443 240.648965 
L 233.317852 247.604522 
L 233.48026 140.330082 
L 233.805077 265.168594 
L 233.967486 264.966312 
L 234.129894 253.135977 
L 234.292303 63.588205 
L 234.454711 263.548819 
L 234.617119 149.176885 
L 234.779528 184.779978 
L 234.941936 264.023261 
L 235.104345 99.43285 
L 235.266753 118.459036 
L 235.429162 263.965729 
L 235.59157 233.02356 
L 235.753979 263.628114 
L 235.916387 244.113677 
L 236.078796 260.48468 
L 236.241204 208.648738 
L 236.403613 252.073165 
L 236.566021 233.470031 
L 236.72843 129.101496 
L 236.890838 147.518097 
L 237.053247 92.325803 
L 237.215655 264.082549 
L 237.378064 64.319593 
L 237.540472 191.693173 
L 237.702881 158.64894 
L 237.865289 279.621662 
L 238.027697 92.841196 
L 238.190106 276.214921 
L 238.352514 240.894124 
L 238.514923 63.615063 
L 238.677331 210.307489 
L 238.83974 93.222015 
L 239.002148 234.176734 
L 239.164557 219.606103 
L 239.489374 291.886726 
L 239.651782 263.494577 
L 239.814191 72.135272 
L 240.139008 157.274768 
L 240.301416 93.320761 
L 240.626233 292.104955 
L 240.788642 233.731856 
L 240.95105 291.433906 
L 241.113459 230.867125 
L 241.275867 266.172407 
L 241.438276 264.020348 
L 241.600684 62.740588 
L 241.763092 286.585027 
L 241.925501 259.564598 
L 242.087909 213.6329 
L 242.250318 263.879661 
L 242.412726 63.723626 
L 242.737543 236.270582 
L 242.899952 235.319007 
L 243.224769 268.839866 
L 243.387177 92.265867 
L 243.549586 289.094461 
L 243.711994 273.659921 
L 243.874403 199.521781 
L 244.036811 234.749999 
L 244.19922 244.952432 
L 244.361628 220.136939 
L 244.524037 292.531586 
L 244.686445 83.367672 
L 244.848854 283.192855 
L 245.011262 236.085446 
L 245.17367 92.049023 
L 245.336079 223.016996 
L 245.498487 93.019873 
L 245.660896 293.546424 
L 245.823304 93.89679 
L 245.985713 64.118299 
L 246.148121 265.56392 
L 246.31053 59.170189 
L 246.472938 107.736979 
L 246.635347 276.811954 
L 246.797755 272.873151 
L 246.960164 102.688116 
L 247.122572 205.335406 
L 247.284981 175.161362 
L 247.447389 79.885171 
L 247.609798 150.99998 
L 247.772206 64.917841 
L 247.934615 234.18921 
L 248.097023 151.739579 
L 248.259432 127.867174 
L 248.42184 261.25278 
L 248.584248 87.317757 
L 248.746657 229.459386 
L 248.909065 240.884857 
L 249.071474 234.823327 
L 249.233882 63.879686 
L 249.396291 215.296695 
L 249.558699 92.907069 
L 249.721108 219.463692 
L 249.883516 113.086058 
L 250.045925 289.56926 
L 250.208333 294.096287 
L 250.370742 224.029367 
L 250.53315 64.330902 
L 250.695559 181.029067 
L 250.857967 88.745616 
L 251.182784 263.029328 
L 251.345193 237.796252 
L 251.507601 259.258623 
L 251.67001 64.015955 
L 251.832418 232.284529 
L 251.994827 232.70096 
L 252.157235 76.49762 
L 252.319643 280.0698 
L 252.482052 114.823903 
L 252.64446 259.575035 
L 252.806869 149.172288 
L 252.969277 181.362901 
L 253.131686 260.526884 
L 253.294094 240.444858 
L 253.456503 92.754402 
L 253.618911 294.962462 
L 253.78132 238.563631 
L 253.943728 89.896194 
L 254.106137 93.927131 
L 254.268545 213.454079 
L 254.593362 90.200601 
L 254.755771 64.005495 
L 254.918179 100.965514 
L 255.242996 264.25447 
L 255.405405 63.788651 
L 255.567813 293.172465 
L 255.730221 227.78184 
L 255.89263 239.208271 
L 256.055038 237.545251 
L 256.217447 150.3359 
L 256.379855 207.593135 
L 256.542264 86.800668 
L 256.704672 92.564416 
L 256.867081 255.070888 
L 257.029489 103.190694 
L 257.191898 292.494772 
L 257.354306 107.565932 
L 257.516715 263.975038 
L 257.679123 96.99717 
L 258.00394 235.231626 
L 258.166349 209.188378 
L 258.328757 265.710262 
L 258.491166 256.758872 
L 258.653574 259.223839 
L 258.815983 64.004646 
L 258.978391 58.818772 
L 259.140799 128.096638 
L 259.303208 145.093393 
L 259.465616 292.073131 
L 259.790433 58.578463 
L 259.952842 119.843683 
L 260.11525 231.766542 
L 260.277659 212.605369 
L 260.440067 257.522866 
L 260.602476 143.001546 
L 260.764884 280.261464 
L 260.927293 108.610201 
L 261.089701 101.20304 
L 261.25211 260.07943 
L 261.576927 134.75601 
L 261.739335 144.686937 
L 261.901744 143.848764 
L 262.064152 236.639747 
L 262.226561 99.919697 
L 262.551378 292.97988 
L 262.713786 120.081696 
L 262.876194 108.844194 
L 263.038603 240.660078 
L 263.201011 120.594693 
L 263.36342 215.957531 
L 263.525828 232.874138 
L 263.688237 266.886804 
L 263.850645 64.053274 
L 264.337871 250.25818 
L 264.500279 87.343767 
L 264.662688 204.840405 
L 264.825096 228.085613 
L 264.987505 282.521825 
L 265.149913 180.160547 
L 265.47473 276.998639 
L 265.637139 105.722972 
L 265.799547 213.155809 
L 265.961956 236.341567 
L 266.124364 93.134373 
L 266.286772 229.590616 
L 266.449181 188.391742 
L 266.611589 293.200027 
L 266.773998 93.171692 
L 266.936406 264.412395 
L 267.098815 120.750948 
L 267.261223 93.499908 
L 267.423632 290.100467 
L 267.58604 264.289632 
L 267.910857 261.790391 
L 268.073266 293.162432 
L 268.235674 250.467735 
L 268.398083 164.739661 
L 268.560491 290.46751 
L 268.7229 87.457419 
L 268.885308 238.522112 
L 269.047717 74.692327 
L 269.210125 272.494228 
L 269.372534 92.640749 
L 269.534942 104.855594 
L 269.69735 63.96648 
L 269.859759 61.940263 
L 270.022167 264.764459 
L 270.346984 105.209879 
L 270.509393 120.433903 
L 270.671801 264.523922 
L 270.996618 86.785967 
L 271.159027 279.352876 
L 271.321435 251.258576 
L 271.483844 250.071082 
L 271.646252 92.666759 
L 271.808661 229.672143 
L 271.971069 98.200097 
L 272.133478 249.246007 
L 272.295886 253.027288 
L 272.458295 237.58642 
L 272.620703 294.436338 
L 272.783112 139.010546 
L 272.94552 291.864532 
L 273.432745 227.131776 
L 273.595154 235.594536 
L 273.757562 254.947193 
L 273.919971 64.532196 
L 274.082379 64.004646 
L 274.244788 234.062244 
L 274.407196 258.761506 
L 274.569605 235.135905 
L 274.894422 96.685054 
L 275.219239 293.25835 
L 275.381647 107.342237 
L 275.544056 63.776494 
L 275.706464 253.674319 
L 275.868873 96.22778 
L 276.031281 92.754402 
L 276.19369 291.26501 
L 276.356098 244.00532 
L 276.518507 87.13908 
L 276.680915 265.154182 
L 276.843323 95.956203 
L 277.005732 234.775658 
L 277.16814 222.200363 
L 277.330549 231.834386 
L 277.492957 178.949965 
L 277.655366 292.755562 
L 277.817774 235.751663 
L 277.980183 94.065925 
L 278.305 265.256425 
L 278.467408 266.334523 
L 278.629817 259.272418 
L 278.792225 233.239109 
L 278.954634 92.629441 
L 279.441859 264.701364 
L 279.604268 232.545401 
L 279.766676 104.692262 
L 279.929085 287.329956 
L 280.091493 276.701814 
L 280.253901 234.70444 
L 280.41631 92.639901 
L 280.578718 240.7624 
L 280.741127 231.058502 
L 280.903535 293.819726 
L 281.228352 106.277349 
L 281.390761 265.755948 
L 281.553169 119.566366 
L 281.715578 263.374889 
L 281.877986 233.689349 
L 282.202803 239.002502 
L 282.365212 64.537285 
L 282.52762 279.549203 
L 282.690029 288.29107 
L 282.852437 64.015955 
L 283.014846 264.088708 
L 283.177254 254.654938 
L 283.339663 269.922164 
L 283.502071 109.561568 
L 283.66448 92.590426 
L 283.989296 208.321473 
L 284.151705 90.162873 
L 284.314113 215.445922 
L 284.476522 235.287806 
L 284.63893 293.076185 
L 284.801339 260.260475 
L 284.963747 144.885542 
L 285.126156 263.915709 
L 285.288564 87.278742 
L 285.450973 264.887287 
L 285.613381 148.401834 
L 285.77579 258.164096 
L 285.938198 264.010014 
L 286.100607 87.052286 
L 286.263015 92.440303 
L 286.425424 288.272263 
L 286.587832 92.678916 
L 286.750241 87.290899 
L 286.912649 229.761684 
L 287.237466 275.226539 
L 287.399874 219.552248 
L 287.562283 293.442734 
L 287.724691 153.367855 
L 287.8871 286.739954 
L 288.211917 208.01141 
L 288.374325 87.404551 
L 288.536734 64.308284 
L 288.699142 176.008279 
L 288.861551 92.753553 
L 289.023959 99.845626 
L 289.186368 92.945834 
L 289.348776 64.167774 
L 289.511185 152.640001 
L 289.673593 73.831379 
L 289.836002 184.436017 
L 289.99841 172.105717 
L 290.160819 63.842367 
L 290.323227 63.814661 
L 290.485636 73.397147 
L 290.648044 276.952277 
L 290.810452 287.002509 
L 290.972861 230.192747 
L 291.135269 213.171443 
L 291.297678 288.920172 
L 291.460086 92.454156 
L 291.784903 271.128335 
L 291.947312 232.826632 
L 292.10972 92.630289 
L 292.272129 259.0379 
L 292.434537 258.797329 
L 292.759354 106.57569 
L 293.084171 259.368614 
L 293.24658 194.891179 
L 293.408988 292.486129 
L 293.571397 64.168622 
L 293.733805 183.259749 
L 293.896214 107.423395 
L 294.058622 287.724039 
L 294.221031 209.710069 
L 294.383439 64.130455 
L 294.545847 226.741041 
L 294.708256 264.632714 
L 294.870664 128.976414 
L 295.033073 92.743941 
L 295.195481 274.076572 
L 295.35789 284.13743 
L 295.520298 179.287898 
L 295.682707 210.048926 
L 295.845115 281.393199 
L 296.007524 115.043972 
L 296.332341 63.852828 
L 296.494749 230.062649 
L 296.657158 237.810264 
L 296.819566 284.383836 
L 297.144383 180.984118 
L 297.306792 185.735795 
L 297.4692 129.098085 
L 297.794017 272.440828 
L 297.956425 92.591274 
L 298.118834 268.277826 
L 298.281242 135.353744 
L 298.443651 189.658584 
L 298.606059 87.268282 
L 298.768468 238.499495 
L 298.930876 234.889436 
L 299.093285 288.529015 
L 299.255693 228.508915 
L 299.418102 212.527287 
L 299.58051 237.462982 
L 299.742919 119.24431 
L 299.905327 134.784697 
L 300.067736 276.394548 
L 300.230144 244.46149 
L 300.392553 254.493605 
L 300.554961 159.242131 
L 300.71737 222.056458 
L 300.879778 206.002363 
L 301.042187 94.574675 
L 301.204595 232.501445 
L 301.367004 265.232744 
L 301.529412 67.122013 
L 301.69182 251.764723 
L 301.854229 235.666354 
L 302.016637 238.892973 
L 302.179046 262.587996 
L 302.341454 237.604298 
L 302.503863 245.759511 
L 302.666271 223.023354 
L 302.82868 87.381086 
L 302.991088 232.721521 
L 303.153497 248.102554 
L 303.315905 200.896703 
L 303.478314 233.48353 
L 303.640722 236.747559 
L 303.803131 119.459266 
L 303.965539 225.631482 
L 304.127948 200.273863 
L 304.290356 213.101963 
L 304.452765 236.105562 
L 304.615173 64.119995 
L 304.777582 253.750233 
L 304.93999 227.051563 
L 305.264807 291.302916 
L 305.427215 97.630932 
L 305.589624 245.724086 
L 305.752032 82.914514 
L 305.914441 191.980919 
L 306.401666 265.600355 
L 306.564075 263.329541 
L 306.726483 211.633051 
L 306.888892 229.467742 
L 307.0513 126.458694 
L 307.376117 292.40881 
L 307.538526 116.216891 
L 307.700934 212.838582 
L 307.863343 53.744005 
L 308.18816 258.851869 
L 308.350568 134.324884 
L 308.512976 119.385106 
L 308.837793 277.601743 
L 309.000202 235.875236 
L 309.16261 133.101613 
L 309.325019 111.901758 
L 309.487427 263.901079 
L 309.649836 164.554666 
L 309.812244 292.105059 
L 309.974653 265.440253 
L 310.137061 290.684806 
L 310.29947 291.486614 
L 310.461878 208.219231 
L 310.786695 265.917717 
L 310.949104 117.32763 
L 311.111512 264.186284 
L 311.273921 96.98553 
L 311.436329 92.238161 
L 311.598738 261.554271 
L 311.761146 182.151888 
L 311.923555 166.311345 
L 312.085963 232.928081 
L 312.248371 87.567679 
L 312.41078 105.25413 
L 312.573188 236.564838 
L 312.898005 92.527097 
L 313.060414 96.892899 
L 313.222822 222.288323 
L 313.385231 93.096206 
L 313.547639 174.625087 
L 313.710048 179.650969 
L 313.872456 270.344118 
L 314.197273 221.189887 
L 314.359682 181.80241 
L 314.52209 208.13801 
L 314.684499 147.768301 
L 314.846907 265.234968 
L 315.009316 172.286103 
L 315.171724 293.316515 
L 315.334133 218.090574 
L 315.496541 291.197889 
L 315.658949 224.023654 
L 315.821358 249.74068 
L 315.983766 217.553564 
L 316.146175 258.690334 
L 316.308583 227.661552 
L 316.470992 104.069911 
L 316.6334 269.56158 
L 316.795809 99.330916 
L 317.120626 247.960614 
L 317.283034 181.822484 
L 317.445443 256.138084 
L 317.607851 110.828866 
L 317.77026 154.202433 
L 317.932668 228.75012 
L 318.095077 237.219912 
L 318.257485 101.130744 
L 318.419894 234.930225 
L 318.582302 264.392582 
L 318.744711 93.221167 
L 319.069527 238.725885 
L 319.231936 171.661796 
L 319.394344 288.309864 
L 319.556753 295.13093 
L 319.719161 64.482721 
L 319.88157 199.774758 
L 320.043978 107.483275 
L 320.206387 270.464331 
L 320.368795 247.801477 
L 320.531204 259.511347 
L 320.693612 69.523055 
L 320.856021 201.804273 
L 321.018429 173.162239 
L 321.180838 193.959392 
L 321.343246 262.76621 
L 321.505655 228.085464 
L 321.668063 235.381358 
L 321.830472 276.446849 
L 322.155289 223.110242 
L 322.317697 92.580813 
L 322.480106 240.485714 
L 322.642514 208.481108 
L 322.804922 238.794572 
L 322.967331 92.325803 
L 323.129739 87.577291 
L 323.292148 256.978759 
L 323.454556 70.866886 
L 323.616965 212.170835 
L 323.779373 93.145682 
L 323.941782 176.457289 
L 324.10419 66.786961 
L 324.266599 264.147594 
L 324.429007 260.821021 
L 324.591416 245.44463 
L 324.753824 264.351009 
L 324.916233 262.723702 
L 325.078641 264.28459 
L 325.24105 92.135674 
L 325.403458 235.660743 
L 325.565867 121.374979 
L 325.728275 269.492008 
L 325.890684 259.423438 
L 326.2155 222.16504 
L 326.540317 265.480098 
L 326.702726 244.123844 
L 326.865134 291.446157 
L 327.189951 245.842129 
L 327.35236 172.824132 
L 327.514768 293.623811 
L 327.839585 79.633518 
L 328.001994 93.297501 
L 328.164402 118.761262 
L 328.326811 226.687301 
L 328.489219 179.591852 
L 328.651628 287.532235 
L 328.814036 216.295708 
L 328.976445 93.372986 
L 329.138853 231.972423 
L 329.301262 93.259334 
L 329.46367 221.771235 
L 329.788487 265.586267 
L 329.950895 121.807178 
L 330.113304 96.646484 
L 330.275712 228.164323 
L 330.438121 186.946034 
L 330.600529 286.459123 
L 330.762938 58.341546 
L 330.925346 219.963825 
L 331.087755 64.184172 
L 331.250163 77.542486 
L 331.412572 242.29416 
L 331.57498 266.123557 
L 331.899797 199.668284 
L 332.062206 261.956893 
L 332.224614 264.526166 
L 332.387023 288.802058 
L 332.549431 128.713045 
L 332.71184 292.00925 
L 332.874248 92.878514 
L 333.036657 111.60974 
L 333.199065 272.401121 
L 333.361473 98.262565 
L 333.523882 126.42047 
L 333.68629 72.465063 
L 334.011107 292.467755 
L 334.173516 266.254851 
L 334.335924 209.784598 
L 334.660741 266.065432 
L 334.82315 265.045267 
L 334.985558 181.864162 
L 335.147967 194.330658 
L 335.310375 136.200871 
L 335.472784 150.103766 
L 335.635192 92.51494 
L 335.797601 264.344267 
L 335.960009 236.277583 
L 336.122418 283.348516 
L 336.284826 167.001079 
L 336.447235 183.141706 
L 336.772051 272.337922 
L 336.93446 273.352812 
L 337.096868 207.708794 
L 337.259277 208.500451 
L 337.584094 287.062589 
L 337.746502 284.839207 
L 337.908911 241.09902 
L 338.071319 233.783676 
L 338.233728 155.040405 
L 338.396136 260.056227 
L 338.558545 92.613891 
L 338.720953 127.695325 
L 338.883362 266.049876 
L 339.04577 106.565178 
L 339.208179 291.833816 
L 339.370587 272.419793 
L 339.532996 218.814993 
L 339.857813 226.112164 
L 340.020221 247.318622 
L 340.182629 180.505211 
L 340.345038 292.378227 
L 340.507446 95.187928 
L 340.832263 248.151684 
L 340.994672 92.570532 
L 341.15708 218.253925 
L 341.481897 263.792046 
L 341.644306 267.173159 
L 341.806714 153.638521 
L 342.131531 238.028604 
L 342.29394 198.027287 
L 342.456348 208.012445 
L 342.781165 252.68562 
L 342.943574 158.612032 
L 343.105982 219.597412 
L 343.268391 234.899929 
L 343.430799 283.201258 
L 343.593208 114.67194 
L 343.755616 232.392966 
L 343.918024 264.251752 
L 344.080433 151.875218 
L 344.242841 258.296231 
L 344.40525 198.914736 
L 344.567658 240.6464 
L 344.730067 237.932073 
L 344.892475 245.017901 
L 345.054884 183.503763 
L 345.379701 293.716324 
L 345.542109 258.126812 
L 345.704518 154.223853 
L 346.029335 291.488144 
L 346.191743 218.295547 
L 346.354152 92.441151 
L 346.678969 291.19385 
L 346.841377 230.138376 
L 347.003786 295.398635 
L 347.166194 130.165186 
L 347.328602 271.00277 
L 347.491011 233.096466 
L 347.653419 110.526065 
L 347.815828 219.027197 
L 347.978236 237.92755 
L 348.140645 292.286741 
L 348.303053 254.672393 
L 348.62787 158.889497 
L 348.790279 291.688471 
L 348.952687 262.519734 
L 349.115096 253.504836 
L 349.277504 92.792568 
L 349.439913 228.387154 
L 349.602321 100.756397 
L 349.76473 105.871321 
L 349.927138 294.248616 
L 350.089547 83.875207 
L 350.251955 281.688849 
L 350.414364 154.58336 
L 350.576772 210.853602 
L 350.73918 146.87994 
L 350.901589 176.567035 
L 351.063997 263.652278 
L 351.226406 180.756968 
L 351.388814 210.419745 
L 351.551223 201.593756 
L 351.713631 99.531397 
L 351.87604 289.404216 
L 352.363265 64.407235 
L 352.525674 278.362292 
L 352.688082 235.153007 
L 352.850491 260.90407 
L 353.012899 144.186402 
L 353.175308 236.526146 
L 353.337716 233.106712 
L 353.662533 257.467136 
L 353.824942 272.708579 
L 353.98735 127.237282 
L 354.312167 262.293525 
L 354.474575 130.734699 
L 354.636984 264.49266 
L 354.799392 208.295338 
L 354.961801 209.269665 
L 355.124209 227.995394 
L 355.286618 178.136796 
L 355.449026 250.150737 
L 355.773843 227.415391 
L 355.936252 82.117941 
L 356.09866 63.956867 
L 356.261069 239.977151 
L 356.423477 179.706968 
L 356.585886 193.871738 
L 356.910703 155.136027 
L 357.073111 237.864441 
L 357.23552 195.455684 
L 357.397928 292.921471 
L 357.560337 91.84369 
L 357.722745 264.09474 
L 357.885153 202.863103 
L 358.047562 231.810867 
L 358.20997 282.38641 
L 358.372379 82.739235 
L 358.534787 216.936894 
L 358.697196 229.449703 
L 358.859604 201.387856 
L 359.184421 264.574794 
L 359.34683 224.72807 
L 359.509238 215.594765 
L 359.671647 232.378727 
L 359.834055 290.748948 
L 360.158872 190.958733 
L 360.321281 194.241383 
L 360.483689 230.636233 
L 360.646098 232.138393 
L 360.808506 128.140315 
L 361.133323 265.462632 
L 361.295732 92.719283 
L 361.45814 213.406921 
L 361.620548 133.816976 
L 361.782957 136.952572 
L 361.945365 266.688339 
L 362.270182 193.288707 
L 362.432591 58.59062 
L 362.757408 232.299141 
L 362.919816 290.268836 
L 363.082225 97.843541 
L 363.244633 108.420719 
L 363.56945 294.356364 
L 364.056676 187.895545 
L 364.219084 187.716814 
L 364.381493 271.165789 
L 364.543901 238.483966 
L 364.70631 228.953314 
L 365.031126 279.191064 
L 365.193535 160.77027 
L 365.355943 207.62572 
L 365.518352 129.760269 
L 365.68076 238.071335 
L 365.843169 114.81477 
L 366.005577 121.884128 
L 366.167986 258.419719 
L 366.330394 114.699531 
L 366.492803 278.250283 
L 366.655211 92.592122 
L 366.81762 246.896599 
L 366.980028 270.083165 
L 367.142437 259.039901 
L 367.304845 149.886939 
L 367.467254 144.067307 
L 367.629662 237.932143 
L 367.792071 133.077851 
L 367.954479 238.307761 
L 368.116888 263.073949 
L 368.279296 155.701606 
L 368.604113 246.640602 
L 368.766521 214.16144 
L 369.091338 263.691474 
L 369.253747 259.855234 
L 369.416155 264.149414 
L 369.578564 265.299776 
L 369.740972 243.083987 
L 369.903381 264.635564 
L 370.065789 92.894912 
L 370.390606 291.777916 
L 370.553015 262.948069 
L 370.715423 172.360656 
L 370.877832 229.410762 
L 371.04024 92.732632 
L 371.202649 210.963671 
L 371.365057 205.881067 
L 371.527466 172.945388 
L 371.689874 253.82931 
L 372.177099 209.215163 
L 372.339508 219.384291 
L 372.501916 93.782833 
L 372.664325 183.091131 
L 372.826733 135.010576 
L 373.15155 286.955709 
L 373.313959 64.145157 
L 373.476367 230.285299 
L 373.638776 253.933101 
L 373.963593 100.190278 
L 374.126001 100.891173 
L 374.28841 284.839168 
L 374.613227 122.455916 
L 374.775635 211.130491 
L 374.938044 133.823036 
L 375.100452 207.613023 
L 375.262861 222.705605 
L 375.425269 265.230053 
L 375.587677 195.627188 
L 375.750086 64.47226 
L 375.912494 195.81371 
L 376.074903 147.411625 
L 376.237311 223.696659 
L 376.39972 240.43056 
L 376.562128 289.027578 
L 376.886945 256.278812 
L 377.049354 91.351278 
L 377.211762 207.801659 
L 377.374171 209.199541 
L 377.536579 207.671263 
L 377.861396 264.866846 
L 378.023805 222.596798 
L 378.186213 289.990915 
L 378.348622 187.492687 
L 378.673439 231.09839 
L 378.835847 107.947484 
L 378.998255 128.187195 
L 379.323072 266.087114 
L 379.485481 290.105245 
L 379.647889 266.643623 
L 379.810298 291.261974 
L 380.135115 208.251935 
L 380.459932 149.602689 
L 380.62234 263.70856 
L 380.784749 204.590993 
L 381.109566 250.874363 
L 381.271974 208.494166 
L 381.434383 238.013796 
L 381.596791 244.793153 
L 381.921608 139.448069 
L 382.084017 132.955052 
L 382.246425 206.37727 
L 382.408834 200.229809 
L 382.73365 92.689377 
L 382.896059 194.266507 
L 383.058467 223.58835 
L 383.383284 141.016244 
L 383.545693 205.607688 
L 383.708101 216.725682 
L 383.87051 87.317757 
L 384.195327 140.469499 
L 384.357735 289.343865 
L 384.520144 246.880874 
L 384.682552 285.148364 
L 384.844961 120.750071 
L 385.007369 86.602593 
L 385.169778 97.824547 
L 385.332186 291.4546 
L 385.494595 290.144879 
L 385.657003 191.307926 
L 385.819412 254.563641 
L 385.98182 194.827867 
L 386.144228 193.560945 
L 386.306637 179.652171 
L 386.793862 290.463897 
L 387.118679 236.982751 
L 387.281088 235.883548 
L 387.443496 260.692957 
L 387.605905 263.604685 
L 387.768313 107.353454 
L 387.930722 264.326829 
L 388.09313 150.498252 
L 388.255539 161.564323 
L 388.742764 270.913027 
L 388.905173 249.38209 
L 389.22999 270.428178 
L 389.392398 201.401731 
L 389.554806 244.816654 
L 389.717215 131.425451 
L 389.879623 145.188188 
L 390.042032 102.728613 
L 390.20444 92.315342 
L 390.529257 292.730925 
L 390.691666 289.997732 
L 390.854074 90.643619 
L 391.016483 232.849037 
L 391.178891 121.869863 
L 391.3413 93.359119 
L 391.503708 179.266379 
L 391.666117 87.392395 
L 391.828525 91.186899 
L 391.990934 194.8252 
L 392.315751 250.091703 
L 392.478159 205.033989 
L 392.640568 81.681732 
L 393.127793 253.981358 
L 393.290201 263.945634 
L 393.45261 92.61898 
L 393.615018 286.107813 
L 393.777427 228.388503 
L 393.939835 274.974424 
L 394.102244 188.602047 
L 394.427061 279.274142 
L 394.589469 215.714514 
L 394.751878 253.237862 
L 394.914286 68.559915 
L 395.076695 293.858587 
L 395.239103 199.866524 
L 395.401512 265.972143 
L 395.56392 262.993002 
L 395.726329 95.351781 
L 395.888737 231.921879 
L 396.051146 226.394098 
L 396.213554 198.878555 
L 396.375963 290.826204 
L 396.538371 192.224708 
L 396.700779 252.017219 
L 396.863188 65.248492 
L 397.025596 89.143416 
L 397.188005 260.19668 
L 397.350413 134.093047 
L 397.512822 240.093984 
L 397.837639 226.391215 
L 398.000047 132.524969 
L 398.162456 214.056491 
L 398.324864 87.442718 
L 398.487273 224.309964 
L 398.487273 224.309964 
" clip-path="url(#p59f9e0fdb4)" style="fill: none; stroke: #1f77b4; stroke-width: 1.5; stroke-linecap: square"/>
   </g>
   <g id="patch_3">
    <path d="M 57.6 307.584 
L 57.6 41.472 
" style="fill: none; stroke: #000000; stroke-width: 0.8; stroke-linejoin: miter; stroke-linecap: square"/>
   </g>
   <g id="patch_4">
    <path d="M 414.72 307.584 
L 414.72 41.472 
" style="fill: none; stroke: #000000; stroke-width: 0.8; stroke-linejoin: miter; stroke-linecap: square"/>
   </g>
   <g id="patch_5">
    <path d="M 57.6 307.584 
L 414.72 307.584 
" style="fill: none; stroke: #000000; stroke-width: 0.8; stroke-linejoin: miter; stroke-linecap: square"/>
   </g>
   <g id="patch_6">
    <path d="M 57.6 41.472 
L 414.72 41.472 
" style="fill: none; stroke: #000000; stroke-width: 0.8; stroke-linejoin: miter; stroke-linecap: square"/>
   </g>
  </g>
 </g>
 <defs>
  <clipPath id="p59f9e0fdb4">
   <rect x="57.6" y="41.472" width="357.12" height="266.112"/>
  </clipPath>
 </defs>
</svg>
