<?xml version="1.0" encoding="utf-8" standalone="no"?>
<!DOCTYPE svg PUBLIC "-//W3C//DTD SVG 1.1//EN"
  "http://www.w3.org/Graphics/SVG/1.1/DTD/svg11.dtd">
<svg xmlns:xlink="http://www.w3.org/1999/xlink" width="460.8pt" height="345.6pt" viewBox="0 0 460.8 345.6" xmlns="http://www.w3.org/2000/svg" version="1.1">
 <metadata>
  <rdf:RDF xmlns:dc="http://purl.org/dc/elements/1.1/" xmlns:cc="http://creativecommons.org/ns#" xmlns:rdf="http://www.w3.org/1999/02/22-rdf-syntax-ns#">
   <cc:Work>
    <dc:type rdf:resource="http://purl.org/dc/dcmitype/StillImage"/>
    <dc:date>2024-04-17T16:30:42.125800</dc:date>
    <dc:format>image/svg+xml</dc:format>
    <dc:creator>
     <cc:Agent>
      <dc:title>Matplotlib v3.7.2, https://matplotlib.org/</dc:title>
     </cc:Agent>
    </dc:creator>
   </cc:Work>
  </rdf:RDF>
 </metadata>
 <defs>
  <style type="text/css">*{stroke-linejoin: round; stroke-linecap: butt}</style>
 </defs>
 <g id="figure_1">
  <g id="patch_1">
   <path d="M 0 345.6 
L 460.8 345.6 
L 460.8 0 
L 0 0 
z
" style="fill: #ffffff"/>
  </g>
  <g id="axes_1">
   <g id="patch_2">
    <path d="M 57.6 307.584 
L 414.72 307.584 
L 414.72 41.472 
L 57.6 41.472 
z
" style="fill: #ffffff"/>
   </g>
   <g id="matplotlib.axis_1">
    <g id="xtick_1">
     <g id="line2d_1">
      <defs>
       <path id="mee2a4dbb5d" d="M 0 0 
L 0 3.5 
" style="stroke: #000000; stroke-width: 0.8"/>
      </defs>
      <g>
       <use xlink:href="#mee2a4dbb5d" x="73.832727" y="307.584" style="stroke: #000000; stroke-width: 0.8"/>
      </g>
     </g>
     <g id="text_1">
      <!-- 0 -->
      <g transform="translate(70.651477 322.182437) scale(0.1 -0.1)">
       <defs>
        <path id="DejaVuSans-30" d="M 2034 4250 
Q 1547 4250 1301 3770 
Q 1056 3291 1056 2328 
Q 1056 1369 1301 889 
Q 1547 409 2034 409 
Q 2525 409 2770 889 
Q 3016 1369 3016 2328 
Q 3016 3291 2770 3770 
Q 2525 4250 2034 4250 
z
M 2034 4750 
Q 2819 4750 3233 4129 
Q 3647 3509 3647 2328 
Q 3647 1150 3233 529 
Q 2819 -91 2034 -91 
Q 1250 -91 836 529 
Q 422 1150 422 2328 
Q 422 3509 836 4129 
Q 1250 4750 2034 4750 
z
" transform="scale(0.015625)"/>
       </defs>
       <use xlink:href="#DejaVuSans-30"/>
      </g>
     </g>
    </g>
    <g id="xtick_2">
     <g id="line2d_2">
      <g>
       <use xlink:href="#mee2a4dbb5d" x="137.303802" y="307.584" style="stroke: #000000; stroke-width: 0.8"/>
      </g>
     </g>
     <g id="text_2">
      <!-- 200 -->
      <g transform="translate(127.760052 322.182437) scale(0.1 -0.1)">
       <defs>
        <path id="DejaVuSans-32" d="M 1228 531 
L 3431 531 
L 3431 0 
L 469 0 
L 469 531 
Q 828 903 1448 1529 
Q 2069 2156 2228 2338 
Q 2531 2678 2651 2914 
Q 2772 3150 2772 3378 
Q 2772 3750 2511 3984 
Q 2250 4219 1831 4219 
Q 1534 4219 1204 4116 
Q 875 4013 500 3803 
L 500 4441 
Q 881 4594 1212 4672 
Q 1544 4750 1819 4750 
Q 2544 4750 2975 4387 
Q 3406 4025 3406 3419 
Q 3406 3131 3298 2873 
Q 3191 2616 2906 2266 
Q 2828 2175 2409 1742 
Q 1991 1309 1228 531 
z
" transform="scale(0.015625)"/>
       </defs>
       <use xlink:href="#DejaVuSans-32"/>
       <use xlink:href="#DejaVuSans-30" x="63.623047"/>
       <use xlink:href="#DejaVuSans-30" x="127.246094"/>
      </g>
     </g>
    </g>
    <g id="xtick_3">
     <g id="line2d_3">
      <g>
       <use xlink:href="#mee2a4dbb5d" x="200.774876" y="307.584" style="stroke: #000000; stroke-width: 0.8"/>
      </g>
     </g>
     <g id="text_3">
      <!-- 400 -->
      <g transform="translate(191.231126 322.182437) scale(0.1 -0.1)">
       <defs>
        <path id="DejaVuSans-34" d="M 2419 4116 
L 825 1625 
L 2419 1625 
L 2419 4116 
z
M 2253 4666 
L 3047 4666 
L 3047 1625 
L 3713 1625 
L 3713 1100 
L 3047 1100 
L 3047 0 
L 2419 0 
L 2419 1100 
L 313 1100 
L 313 1709 
L 2253 4666 
z
" transform="scale(0.015625)"/>
       </defs>
       <use xlink:href="#DejaVuSans-34"/>
       <use xlink:href="#DejaVuSans-30" x="63.623047"/>
       <use xlink:href="#DejaVuSans-30" x="127.246094"/>
      </g>
     </g>
    </g>
    <g id="xtick_4">
     <g id="line2d_4">
      <g>
       <use xlink:href="#mee2a4dbb5d" x="264.24595" y="307.584" style="stroke: #000000; stroke-width: 0.8"/>
      </g>
     </g>
     <g id="text_4">
      <!-- 600 -->
      <g transform="translate(254.7022 322.182437) scale(0.1 -0.1)">
       <defs>
        <path id="DejaVuSans-36" d="M 2113 2584 
Q 1688 2584 1439 2293 
Q 1191 2003 1191 1497 
Q 1191 994 1439 701 
Q 1688 409 2113 409 
Q 2538 409 2786 701 
Q 3034 994 3034 1497 
Q 3034 2003 2786 2293 
Q 2538 2584 2113 2584 
z
M 3366 4563 
L 3366 3988 
Q 3128 4100 2886 4159 
Q 2644 4219 2406 4219 
Q 1781 4219 1451 3797 
Q 1122 3375 1075 2522 
Q 1259 2794 1537 2939 
Q 1816 3084 2150 3084 
Q 2853 3084 3261 2657 
Q 3669 2231 3669 1497 
Q 3669 778 3244 343 
Q 2819 -91 2113 -91 
Q 1303 -91 875 529 
Q 447 1150 447 2328 
Q 447 3434 972 4092 
Q 1497 4750 2381 4750 
Q 2619 4750 2861 4703 
Q 3103 4656 3366 4563 
z
" transform="scale(0.015625)"/>
       </defs>
       <use xlink:href="#DejaVuSans-36"/>
       <use xlink:href="#DejaVuSans-30" x="63.623047"/>
       <use xlink:href="#DejaVuSans-30" x="127.246094"/>
      </g>
     </g>
    </g>
    <g id="xtick_5">
     <g id="line2d_5">
      <g>
       <use xlink:href="#mee2a4dbb5d" x="327.717025" y="307.584" style="stroke: #000000; stroke-width: 0.8"/>
      </g>
     </g>
     <g id="text_5">
      <!-- 800 -->
      <g transform="translate(318.173275 322.182437) scale(0.1 -0.1)">
       <defs>
        <path id="DejaVuSans-38" d="M 2034 2216 
Q 1584 2216 1326 1975 
Q 1069 1734 1069 1313 
Q 1069 891 1326 650 
Q 1584 409 2034 409 
Q 2484 409 2743 651 
Q 3003 894 3003 1313 
Q 3003 1734 2745 1975 
Q 2488 2216 2034 2216 
z
M 1403 2484 
Q 997 2584 770 2862 
Q 544 3141 544 3541 
Q 544 4100 942 4425 
Q 1341 4750 2034 4750 
Q 2731 4750 3128 4425 
Q 3525 4100 3525 3541 
Q 3525 3141 3298 2862 
Q 3072 2584 2669 2484 
Q 3125 2378 3379 2068 
Q 3634 1759 3634 1313 
Q 3634 634 3220 271 
Q 2806 -91 2034 -91 
Q 1263 -91 848 271 
Q 434 634 434 1313 
Q 434 1759 690 2068 
Q 947 2378 1403 2484 
z
M 1172 3481 
Q 1172 3119 1398 2916 
Q 1625 2713 2034 2713 
Q 2441 2713 2670 2916 
Q 2900 3119 2900 3481 
Q 2900 3844 2670 4047 
Q 2441 4250 2034 4250 
Q 1625 4250 1398 4047 
Q 1172 3844 1172 3481 
z
" transform="scale(0.015625)"/>
       </defs>
       <use xlink:href="#DejaVuSans-38"/>
       <use xlink:href="#DejaVuSans-30" x="63.623047"/>
       <use xlink:href="#DejaVuSans-30" x="127.246094"/>
      </g>
     </g>
    </g>
    <g id="xtick_6">
     <g id="line2d_6">
      <g>
       <use xlink:href="#mee2a4dbb5d" x="391.188099" y="307.584" style="stroke: #000000; stroke-width: 0.8"/>
      </g>
     </g>
     <g id="text_6">
      <!-- 1000 -->
      <g transform="translate(378.463099 322.182437) scale(0.1 -0.1)">
       <defs>
        <path id="DejaVuSans-31" d="M 794 531 
L 1825 531 
L 1825 4091 
L 703 3866 
L 703 4441 
L 1819 4666 
L 2450 4666 
L 2450 531 
L 3481 531 
L 3481 0 
L 794 0 
L 794 531 
z
" transform="scale(0.015625)"/>
       </defs>
       <use xlink:href="#DejaVuSans-31"/>
       <use xlink:href="#DejaVuSans-30" x="63.623047"/>
       <use xlink:href="#DejaVuSans-30" x="127.246094"/>
       <use xlink:href="#DejaVuSans-30" x="190.869141"/>
      </g>
     </g>
    </g>
   </g>
   <g id="matplotlib.axis_2">
    <g id="ytick_1">
     <g id="line2d_7">
      <defs>
       <path id="m13d96b308c" d="M 0 0 
L -3.5 0 
" style="stroke: #000000; stroke-width: 0.8"/>
      </defs>
      <g>
       <use xlink:href="#m13d96b308c" x="57.6" y="295.492623" style="stroke: #000000; stroke-width: 0.8"/>
      </g>
     </g>
     <g id="text_7">
      <!-- 0.0 -->
      <g transform="translate(34.696875 299.291842) scale(0.1 -0.1)">
       <defs>
        <path id="DejaVuSans-2e" d="M 684 794 
L 1344 794 
L 1344 0 
L 684 0 
L 684 794 
z
" transform="scale(0.015625)"/>
       </defs>
       <use xlink:href="#DejaVuSans-30"/>
       <use xlink:href="#DejaVuSans-2e" x="63.623047"/>
       <use xlink:href="#DejaVuSans-30" x="95.410156"/>
      </g>
     </g>
    </g>
    <g id="ytick_2">
     <g id="line2d_8">
      <g>
       <use xlink:href="#m13d96b308c" x="57.6" y="262.091644" style="stroke: #000000; stroke-width: 0.8"/>
      </g>
     </g>
     <g id="text_8">
      <!-- 0.5 -->
      <g transform="translate(34.696875 265.890863) scale(0.1 -0.1)">
       <defs>
        <path id="DejaVuSans-35" d="M 691 4666 
L 3169 4666 
L 3169 4134 
L 1269 4134 
L 1269 2991 
Q 1406 3038 1543 3061 
Q 1681 3084 1819 3084 
Q 2600 3084 3056 2656 
Q 3513 2228 3513 1497 
Q 3513 744 3044 326 
Q 2575 -91 1722 -91 
Q 1428 -91 1123 -41 
Q 819 9 494 109 
L 494 744 
Q 775 591 1075 516 
Q 1375 441 1709 441 
Q 2250 441 2565 725 
Q 2881 1009 2881 1497 
Q 2881 1984 2565 2268 
Q 2250 2553 1709 2553 
Q 1456 2553 1204 2497 
Q 953 2441 691 2322 
L 691 4666 
z
" transform="scale(0.015625)"/>
       </defs>
       <use xlink:href="#DejaVuSans-30"/>
       <use xlink:href="#DejaVuSans-2e" x="63.623047"/>
       <use xlink:href="#DejaVuSans-35" x="95.410156"/>
      </g>
     </g>
    </g>
    <g id="ytick_3">
     <g id="line2d_9">
      <g>
       <use xlink:href="#m13d96b308c" x="57.6" y="228.690666" style="stroke: #000000; stroke-width: 0.8"/>
      </g>
     </g>
     <g id="text_9">
      <!-- 1.0 -->
      <g transform="translate(34.696875 232.489885) scale(0.1 -0.1)">
       <use xlink:href="#DejaVuSans-31"/>
       <use xlink:href="#DejaVuSans-2e" x="63.623047"/>
       <use xlink:href="#DejaVuSans-30" x="95.410156"/>
      </g>
     </g>
    </g>
    <g id="ytick_4">
     <g id="line2d_10">
      <g>
       <use xlink:href="#m13d96b308c" x="57.6" y="195.289688" style="stroke: #000000; stroke-width: 0.8"/>
      </g>
     </g>
     <g id="text_10">
      <!-- 1.5 -->
      <g transform="translate(34.696875 199.088906) scale(0.1 -0.1)">
       <use xlink:href="#DejaVuSans-31"/>
       <use xlink:href="#DejaVuSans-2e" x="63.623047"/>
       <use xlink:href="#DejaVuSans-35" x="95.410156"/>
      </g>
     </g>
    </g>
    <g id="ytick_5">
     <g id="line2d_11">
      <g>
       <use xlink:href="#m13d96b308c" x="57.6" y="161.888709" style="stroke: #000000; stroke-width: 0.8"/>
      </g>
     </g>
     <g id="text_11">
      <!-- 2.0 -->
      <g transform="translate(34.696875 165.687928) scale(0.1 -0.1)">
       <use xlink:href="#DejaVuSans-32"/>
       <use xlink:href="#DejaVuSans-2e" x="63.623047"/>
       <use xlink:href="#DejaVuSans-30" x="95.410156"/>
      </g>
     </g>
    </g>
    <g id="ytick_6">
     <g id="line2d_12">
      <g>
       <use xlink:href="#m13d96b308c" x="57.6" y="128.487731" style="stroke: #000000; stroke-width: 0.8"/>
      </g>
     </g>
     <g id="text_12">
      <!-- 2.5 -->
      <g transform="translate(34.696875 132.286949) scale(0.1 -0.1)">
       <use xlink:href="#DejaVuSans-32"/>
       <use xlink:href="#DejaVuSans-2e" x="63.623047"/>
       <use xlink:href="#DejaVuSans-35" x="95.410156"/>
      </g>
     </g>
    </g>
    <g id="ytick_7">
     <g id="line2d_13">
      <g>
       <use xlink:href="#m13d96b308c" x="57.6" y="95.086752" style="stroke: #000000; stroke-width: 0.8"/>
      </g>
     </g>
     <g id="text_13">
      <!-- 3.0 -->
      <g transform="translate(34.696875 98.885971) scale(0.1 -0.1)">
       <defs>
        <path id="DejaVuSans-33" d="M 2597 2516 
Q 3050 2419 3304 2112 
Q 3559 1806 3559 1356 
Q 3559 666 3084 287 
Q 2609 -91 1734 -91 
Q 1441 -91 1130 -33 
Q 819 25 488 141 
L 488 750 
Q 750 597 1062 519 
Q 1375 441 1716 441 
Q 2309 441 2620 675 
Q 2931 909 2931 1356 
Q 2931 1769 2642 2001 
Q 2353 2234 1838 2234 
L 1294 2234 
L 1294 2753 
L 1863 2753 
Q 2328 2753 2575 2939 
Q 2822 3125 2822 3475 
Q 2822 3834 2567 4026 
Q 2313 4219 1838 4219 
Q 1578 4219 1281 4162 
Q 984 4106 628 3988 
L 628 4550 
Q 988 4650 1302 4700 
Q 1616 4750 1894 4750 
Q 2613 4750 3031 4423 
Q 3450 4097 3450 3541 
Q 3450 3153 3228 2886 
Q 3006 2619 2597 2516 
z
" transform="scale(0.015625)"/>
       </defs>
       <use xlink:href="#DejaVuSans-33"/>
       <use xlink:href="#DejaVuSans-2e" x="63.623047"/>
       <use xlink:href="#DejaVuSans-30" x="95.410156"/>
      </g>
     </g>
    </g>
    <g id="ytick_8">
     <g id="line2d_14">
      <g>
       <use xlink:href="#m13d96b308c" x="57.6" y="61.685774" style="stroke: #000000; stroke-width: 0.8"/>
      </g>
     </g>
     <g id="text_14">
      <!-- 3.5 -->
      <g transform="translate(34.696875 65.484993) scale(0.1 -0.1)">
       <use xlink:href="#DejaVuSans-33"/>
       <use xlink:href="#DejaVuSans-2e" x="63.623047"/>
       <use xlink:href="#DejaVuSans-35" x="95.410156"/>
      </g>
     </g>
    </g>
    <g id="text_15">
     <!-- 1e6 -->
     <g transform="translate(57.6 38.472) scale(0.1 -0.1)">
      <defs>
       <path id="DejaVuSans-65" d="M 3597 1894 
L 3597 1613 
L 953 1613 
Q 991 1019 1311 708 
Q 1631 397 2203 397 
Q 2534 397 2845 478 
Q 3156 559 3463 722 
L 3463 178 
Q 3153 47 2828 -22 
Q 2503 -91 2169 -91 
Q 1331 -91 842 396 
Q 353 884 353 1716 
Q 353 2575 817 3079 
Q 1281 3584 2069 3584 
Q 2775 3584 3186 3129 
Q 3597 2675 3597 1894 
z
M 3022 2063 
Q 3016 2534 2758 2815 
Q 2500 3097 2075 3097 
Q 1594 3097 1305 2825 
Q 1016 2553 972 2059 
L 3022 2063 
z
" transform="scale(0.015625)"/>
      </defs>
      <use xlink:href="#DejaVuSans-31"/>
      <use xlink:href="#DejaVuSans-65" x="63.623047"/>
      <use xlink:href="#DejaVuSans-36" x="125.146484"/>
     </g>
    </g>
   </g>
   <g id="line2d_15">
    <path d="M 73.832727 140.726716 
L 74.467438 280.58003 
L 74.784793 82.005671 
L 75.102149 101.808851 
L 75.73686 295.453312 
L 76.054215 95.187347 
L 76.37157 126.908557 
L 76.688926 108.172382 
L 77.006281 76.18716 
L 77.640992 270.409009 
L 77.958347 266.25022 
L 78.593058 196.108116 
L 78.910413 221.710621 
L 79.227769 172.489113 
L 79.545124 104.129469 
L 79.862479 93.142639 
L 80.179835 123.782443 
L 80.49719 281.481246 
L 80.814545 181.194807 
L 81.131901 288.810549 
L 81.449256 295.456864 
L 81.766612 263.201861 
L 82.083967 275.816042 
L 82.401322 266.547118 
L 82.718678 270.335739 
L 83.353388 295.454205 
L 83.670744 288.806482 
L 83.988099 216.585229 
L 84.305455 295.454155 
L 84.62281 288.806269 
L 84.940165 288.808816 
L 85.257521 288.262917 
L 85.574876 288.420749 
L 85.892231 288.772947 
L 86.526942 219.130775 
L 86.844298 267.733735 
L 87.161653 256.115068 
L 87.479008 287.260103 
L 87.796364 292.231742 
L 88.113719 120.671756 
L 88.431074 155.085848 
L 88.74843 147.477663 
L 89.065785 166.07518 
L 89.38314 74.757581 
L 89.700496 118.816774 
L 90.017851 95.753283 
L 90.335207 225.167884 
L 90.652562 191.18809 
L 90.969917 53.767404 
L 91.287273 177.141541 
L 91.604628 175.406497 
L 91.921983 86.907802 
L 92.239339 54.163873 
L 92.556694 117.544161 
L 92.87405 115.226179 
L 93.191405 142.240885 
L 93.50876 82.79198 
L 93.826116 185.415742 
L 94.143471 107.046598 
L 94.460826 161.759668 
L 94.778182 160.458704 
L 95.095537 107.505713 
L 95.412893 124.291769 
L 95.730248 53.568 
L 96.047603 128.434224 
L 96.364959 107.11351 
L 96.682314 127.521426 
L 96.999669 112.831442 
L 97.317025 295.455201 
L 97.63438 182.772733 
L 97.951736 243.231183 
L 98.269091 207.471906 
L 98.586446 295.452538 
L 98.903802 288.440795 
L 99.221157 295.453545 
L 100.173223 295.420654 
L 100.490579 293.014941 
L 100.807934 248.283394 
L 101.125289 225.742115 
L 102.077355 295.453167 
L 102.394711 288.773663 
L 102.712066 225.342304 
L 103.029421 295.45295 
L 103.346777 267.807078 
L 103.664132 284.009291 
L 103.981488 210.982917 
L 104.298843 288.805091 
L 104.616198 204.934409 
L 105.250909 277.330255 
L 105.568264 295.45415 
L 105.88562 180.408528 
L 106.520331 295.485411 
L 106.837686 295.454883 
L 107.155041 259.935397 
L 107.472397 268.899042 
L 107.789752 261.82408 
L 108.107107 295.454041 
L 108.424463 258.941269 
L 108.741818 267.470413 
L 109.059174 257.418786 
L 109.376529 241.913818 
L 110.01124 295.366159 
L 110.328595 295.454239 
L 110.64595 229.528225 
L 110.963306 245.649581 
L 111.280661 229.064563 
L 111.598017 257.919335 
L 112.232727 204.181092 
L 112.867438 250.583341 
L 113.184793 226.343138 
L 113.502149 251.062334 
L 113.819504 237.961697 
L 114.13686 256.469478 
L 114.454215 196.89301 
L 114.77157 274.652189 
L 115.088926 280.889117 
L 115.406281 294.706794 
L 115.723636 295.454626 
L 116.040992 256.624918 
L 116.358347 287.95326 
L 116.675702 232.116314 
L 116.993058 219.867676 
L 117.310413 260.158318 
L 117.627769 284.697043 
L 117.945124 288.773902 
L 118.262479 223.275962 
L 118.579835 222.049992 
L 118.89719 288.806431 
L 119.214545 255.285234 
L 119.531901 250.973755 
L 119.849256 280.547579 
L 120.166612 269.452662 
L 120.483967 197.092723 
L 120.801322 240.221376 
L 121.118678 252.93427 
L 121.436033 295.454989 
L 121.753388 295.453611 
L 122.070744 256.955346 
L 122.388099 295.454483 
L 122.705455 244.74687 
L 123.02281 249.221194 
L 123.340165 220.985084 
L 123.657521 288.771988 
L 123.974876 275.974344 
L 124.292231 279.245042 
L 124.609587 234.299518 
L 124.926942 279.479616 
L 125.244298 263.740528 
L 125.561653 288.502801 
L 125.879008 279.141924 
L 126.196364 288.773805 
L 126.513719 232.444305 
L 126.831074 261.039837 
L 127.14843 270.610133 
L 127.465785 231.474497 
L 127.78314 233.492531 
L 128.100496 295.45472 
L 128.417851 236.386628 
L 128.735207 253.64122 
L 129.052562 231.295102 
L 129.369917 242.740324 
L 129.687273 295.453011 
L 130.004628 230.28618 
L 130.956694 291.899532 
L 131.27405 230.041224 
L 131.591405 283.656516 
L 131.90876 258.537862 
L 132.226116 295.486465 
L 132.543471 224.054171 
L 132.860826 268.113122 
L 133.178182 295.485987 
L 133.495537 288.771905 
L 133.812893 219.885195 
L 134.130248 197.740459 
L 134.447603 286.055424 
L 134.764959 236.583583 
L 135.082314 150.458118 
L 135.399669 159.977769 
L 135.717025 105.877084 
L 136.03438 112.081122 
L 136.351736 168.014308 
L 136.669091 100.633366 
L 136.986446 63.218972 
L 137.303802 140.2603 
L 137.621157 100.876859 
L 137.938512 181.392836 
L 138.255868 109.388323 
L 138.573223 72.971248 
L 138.890579 72.950285 
L 139.207934 61.615257 
L 139.525289 66.804899 
L 139.842645 77.898943 
L 140.16 160.095994 
L 140.477355 76.102204 
L 140.794711 53.960127 
L 141.112066 54.029268 
L 141.429421 111.209889 
L 141.746777 202.721992 
L 142.064132 109.200663 
L 142.381488 126.377221 
L 143.016198 106.114333 
L 143.333554 183.744271 
L 143.650909 57.334026 
L 143.968264 117.290178 
L 144.28562 91.616882 
L 144.602975 53.901676 
L 144.920331 167.877907 
L 145.237686 223.484511 
L 145.555041 256.975713 
L 145.872397 227.339609 
L 146.189752 295.421621 
L 146.507107 267.638512 
L 146.824463 264.135007 
L 147.141818 284.139755 
L 147.776529 256.773905 
L 148.093884 246.0947 
L 148.41124 263.651126 
L 148.728595 195.685978 
L 149.04595 252.249102 
L 149.363306 176.582001 
L 149.680661 269.988268 
L 149.998017 234.98362 
L 150.315372 266.533887 
L 150.632727 211.551086 
L 150.950083 282.129207 
L 151.267438 194.444981 
L 151.584793 252.723215 
L 151.902149 263.779453 
L 152.219504 268.153873 
L 152.53686 184.594308 
L 152.854215 267.4332 
L 153.488926 242.542517 
L 153.806281 239.115802 
L 154.123636 263.267473 
L 154.440992 265.453208 
L 154.758347 295.452404 
L 155.075702 211.5004 
L 155.393058 252.266026 
L 155.710413 255.957768 
L 156.027769 228.610309 
L 156.345124 295.453436 
L 156.662479 266.595373 
L 156.979835 274.804714 
L 157.29719 250.0964 
L 157.614545 238.542451 
L 157.931901 288.774023 
L 158.249256 253.076827 
L 158.566612 184.328563 
L 158.883967 288.772529 
L 159.201322 255.568352 
L 159.518678 257.069567 
L 159.836033 245.310112 
L 160.153388 243.723836 
L 160.470744 263.358205 
L 160.788099 235.854901 
L 161.105455 289.53435 
L 161.42281 232.358822 
L 161.740165 259.261261 
L 162.057521 246.947487 
L 162.374876 250.686011 
L 162.692231 235.052185 
L 163.009587 234.0188 
L 163.326942 293.567312 
L 163.961653 195.999199 
L 164.913719 288.774181 
L 165.231074 257.875971 
L 165.54843 204.31157 
L 165.865785 263.641675 
L 166.18314 262.523715 
L 166.500496 266.359576 
L 166.817851 260.725802 
L 167.135207 237.274867 
L 167.452562 295.485417 
L 167.769917 288.273859 
L 168.404628 253.004426 
L 168.721983 288.603026 
L 169.039339 288.806208 
L 169.356694 243.478845 
L 169.67405 246.320348 
L 169.991405 237.889596 
L 170.30876 254.522798 
L 170.626116 232.682614 
L 170.943471 245.303503 
L 171.260826 268.447111 
L 171.578182 225.672932 
L 171.895537 237.056217 
L 172.212893 195.515332 
L 172.847603 288.80452 
L 173.164959 250.772407 
L 173.482314 288.772644 
L 174.117025 288.80762 
L 174.43438 253.71681 
L 174.751736 246.234434 
L 175.069091 288.805078 
L 175.386446 288.774038 
L 175.703802 295.454277 
L 176.021157 223.742732 
L 176.338512 282.095004 
L 176.655868 288.807124 
L 176.973223 176.714296 
L 177.290579 237.635664 
L 177.607934 266.616008 
L 177.925289 249.933955 
L 178.242645 241.751827 
L 178.56 271.348935 
L 178.877355 287.561657 
L 179.194711 257.731735 
L 179.512066 278.178843 
L 179.829421 254.562855 
L 180.146777 295.485603 
L 180.464132 259.329499 
L 180.781488 258.974669 
L 181.098843 239.263216 
L 181.733554 282.12628 
L 182.050909 288.805333 
L 182.368264 244.884268 
L 182.68562 253.160009 
L 183.002975 243.352213 
L 183.320331 286.529219 
L 183.637686 238.847648 
L 183.955041 295.453384 
L 184.272397 270.552555 
L 184.589752 295.185743 
L 184.907107 227.319722 
L 185.224463 288.772742 
L 185.541818 262.722388 
L 185.859174 189.196095 
L 186.176529 258.044455 
L 186.493884 275.923515 
L 186.81124 171.979658 
L 187.128595 184.270436 
L 187.763306 293.431106 
L 188.398017 218.636794 
L 188.715372 228.243154 
L 189.350083 280.421686 
L 189.984793 295.453734 
L 190.302149 195.992126 
L 190.93686 269.582417 
L 191.254215 272.01683 
L 191.57157 282.686757 
L 191.888926 282.12847 
L 192.206281 283.709304 
L 192.840992 257.335776 
L 193.158347 178.142972 
L 193.475702 248.702503 
L 193.793058 225.659533 
L 194.110413 279.411428 
L 194.745124 171.905168 
L 195.062479 262.531079 
L 195.379835 221.709206 
L 196.014545 241.663231 
L 196.331901 271.991983 
L 196.649256 164.586192 
L 196.966612 291.270247 
L 197.283967 68.387967 
L 197.601322 154.325364 
L 197.918678 168.363511 
L 198.236033 139.136495 
L 198.553388 59.60934 
L 198.870744 100.602458 
L 199.188099 115.921104 
L 199.505455 163.792036 
L 199.82281 76.596604 
L 200.140165 72.349579 
L 200.457521 127.453271 
L 200.774876 91.555951 
L 201.092231 86.351541 
L 201.726942 140.365303 
L 202.044298 148.318174 
L 202.361653 56.946502 
L 202.679008 65.804448 
L 202.996364 69.774391 
L 203.313719 128.46468 
L 203.631074 80.501547 
L 203.94843 80.275288 
L 204.265785 115.579791 
L 204.58314 125.145307 
L 204.900496 152.404813 
L 205.217851 109.036147 
L 205.535207 90.575047 
L 205.852562 85.431691 
L 206.169917 74.480717 
L 206.487273 162.442773 
L 206.804628 73.574762 
L 207.121983 167.336721 
L 207.756694 246.519091 
L 208.07405 251.971787 
L 208.391405 295.487472 
L 208.70876 240.299314 
L 209.026116 220.316701 
L 209.343471 284.886461 
L 209.660826 282.125739 
L 209.978182 245.764984 
L 210.295537 235.977522 
L 210.612893 242.968866 
L 210.930248 222.999616 
L 211.247603 220.786441 
L 211.564959 225.495145 
L 211.882314 268.304359 
L 212.199669 290.907703 
L 212.517025 191.779007 
L 212.83438 274.664778 
L 213.151736 248.690362 
L 213.786446 288.808816 
L 214.103802 231.085095 
L 214.421157 255.599308 
L 215.055868 274.234077 
L 215.373223 288.698802 
L 215.690579 238.82857 
L 216.007934 262.706811 
L 216.325289 261.052181 
L 216.642645 230.982233 
L 216.96 242.437641 
L 217.277355 295.455686 
L 217.594711 242.697534 
L 217.912066 234.48489 
L 218.546777 295.486516 
L 218.864132 284.041006 
L 219.181488 236.694953 
L 219.816198 286.374755 
L 220.768264 221.723352 
L 221.08562 295.4224 
L 221.402975 216.946247 
L 222.355041 291.17919 
L 222.672397 288.775056 
L 222.989752 282.883114 
L 223.307107 295.452669 
L 223.624463 214.832405 
L 223.941818 214.671317 
L 224.259174 272.847927 
L 224.576529 295.454477 
L 224.893884 268.228364 
L 225.21124 228.892762 
L 225.84595 270.546296 
L 226.163306 274.382314 
L 226.480661 280.620012 
L 226.798017 270.834025 
L 227.115372 233.734442 
L 227.432727 226.643339 
L 227.750083 224.472973 
L 228.067438 288.80629 
L 228.384793 211.276197 
L 228.702149 252.466764 
L 229.019504 262.369248 
L 229.33686 277.622527 
L 229.654215 240.6069 
L 229.97157 269.685662 
L 230.288926 263.111032 
L 230.606281 235.484157 
L 230.923636 288.806722 
L 231.240992 280.509631 
L 231.558347 268.908529 
L 231.875702 295.454549 
L 232.193058 223.86335 
L 232.510413 277.095353 
L 232.827769 278.509291 
L 233.145124 227.060815 
L 233.462479 295.485825 
L 234.09719 295.487178 
L 234.414545 279.54862 
L 234.731901 289.533625 
L 235.049256 295.424484 
L 235.366612 276.110356 
L 235.683967 295.453858 
L 236.001322 192.440056 
L 236.318678 249.191049 
L 236.636033 250.750721 
L 236.953388 282.126974 
L 237.588099 228.394284 
L 237.905455 226.462372 
L 238.22281 177.537026 
L 238.540165 290.717046 
L 238.857521 231.158326 
L 239.174876 295.488 
L 239.492231 282.003594 
L 239.809587 237.126874 
L 240.126942 260.556518 
L 240.444298 295.485939 
L 240.761653 278.64857 
L 241.079008 234.57275 
L 241.396364 288.774961 
L 241.713719 237.3543 
L 242.031074 277.238948 
L 242.34843 277.889482 
L 242.665785 295.454463 
L 242.98314 288.398295 
L 243.617851 222.931354 
L 243.935207 250.737883 
L 244.252562 232.43788 
L 244.569917 271.086647 
L 244.887273 264.903799 
L 245.204628 286.018383 
L 245.521983 288.773303 
L 245.839339 258.534414 
L 246.156694 267.915169 
L 246.47405 271.438364 
L 246.791405 248.568856 
L 247.10876 245.971406 
L 247.426116 295.486785 
L 247.743471 276.266439 
L 248.060826 235.708477 
L 248.378182 276.855501 
L 249.012893 237.062696 
L 249.330248 248.84834 
L 249.647603 253.155823 
L 249.964959 295.486444 
L 250.282314 287.477258 
L 250.599669 221.586787 
L 250.917025 288.774318 
L 251.23438 288.773107 
L 251.551736 282.124472 
L 251.869091 201.207735 
L 252.186446 225.193158 
L 252.503802 262.145247 
L 253.138512 282.125435 
L 253.773223 295.486473 
L 254.090579 243.471785 
L 254.407934 231.783985 
L 255.042645 270.701388 
L 255.36 295.454013 
L 255.677355 248.498101 
L 255.994711 282.094355 
L 256.312066 244.713986 
L 256.629421 239.207919 
L 256.946777 288.806046 
L 257.581488 201.797866 
L 257.898843 278.102127 
L 258.216198 247.967762 
L 258.533554 203.911981 
L 258.850909 265.659797 
L 259.168264 229.780559 
L 259.48562 246.215897 
L 259.802975 228.137161 
L 260.120331 217.082693 
L 260.437686 288.805478 
L 260.755041 205.07961 
L 261.072397 241.244577 
L 261.389752 236.25346 
L 261.707107 244.879335 
L 262.024463 288.773034 
L 262.341818 215.717678 
L 262.976529 295.452773 
L 263.293884 249.838604 
L 263.61124 252.933993 
L 263.928595 251.772221 
L 264.24595 255.157514 
L 264.563306 269.598877 
L 264.880661 239.747196 
L 265.198017 273.776619 
L 265.515372 236.052916 
L 265.832727 248.181164 
L 266.150083 224.558415 
L 266.784793 295.487897 
L 267.102149 240.352756 
L 267.419504 226.09179 
L 267.73686 288.807571 
L 268.054215 227.572099 
L 268.37157 229.176802 
L 268.688926 282.059786 
L 269.006281 232.422064 
L 269.640992 268.082013 
L 269.958347 273.895089 
L 270.275702 210.8028 
L 270.910413 288.808993 
L 271.227769 260.426772 
L 271.545124 282.128987 
L 272.179835 158.791142 
L 272.814545 288.807363 
L 273.131901 242.294363 
L 273.449256 249.064434 
L 273.766612 237.303236 
L 274.083967 277.15574 
L 274.401322 290.468452 
L 274.718678 288.776063 
L 275.036033 288.452255 
L 275.353388 219.028954 
L 275.670744 216.039865 
L 275.988099 279.086125 
L 276.305455 155.431927 
L 276.940165 230.075505 
L 277.257521 238.990649 
L 277.574876 152.963951 
L 277.892231 284.737883 
L 278.209587 191.633965 
L 278.526942 275.315167 
L 278.844298 251.478735 
L 279.161653 279.921779 
L 279.479008 238.37457 
L 279.796364 283.865587 
L 280.113719 228.913883 
L 280.431074 285.761033 
L 280.74843 288.809295 
L 281.065785 215.013696 
L 281.38314 270.015653 
L 281.700496 282.129386 
L 282.017851 270.631747 
L 282.335207 172.980593 
L 282.652562 268.126833 
L 282.969917 263.445681 
L 283.287273 220.236568 
L 283.604628 243.714338 
L 283.921983 200.354995 
L 284.239339 288.775843 
L 284.556694 189.678718 
L 284.87405 267.229425 
L 285.191405 288.774554 
L 285.50876 190.278046 
L 285.826116 295.45433 
L 286.143471 260.173678 
L 286.460826 249.541141 
L 286.778182 223.368036 
L 287.095537 295.453727 
L 287.412893 200.534385 
L 287.730248 191.25297 
L 288.047603 295.452798 
L 288.364959 245.7788 
L 288.682314 244.886054 
L 288.999669 280.199797 
L 289.317025 294.803074 
L 289.63438 241.238133 
L 289.951736 295.454326 
L 290.269091 248.015187 
L 290.586446 276.584846 
L 290.903802 282.564312 
L 291.221157 243.087488 
L 291.538512 272.996371 
L 291.855868 264.388155 
L 292.173223 205.50974 
L 292.490579 271.797826 
L 292.807934 288.773665 
L 293.125289 276.47569 
L 293.442645 217.668103 
L 293.76 259.874988 
L 294.077355 247.740673 
L 294.394711 263.135187 
L 294.712066 295.487139 
L 295.029421 235.837233 
L 295.346777 230.261648 
L 295.664132 208.781249 
L 295.981488 213.791909 
L 296.298843 192.675222 
L 296.616198 276.939813 
L 296.933554 249.568213 
L 297.250909 241.103716 
L 297.568264 223.503462 
L 297.88562 294.623891 
L 298.202975 267.277844 
L 298.520331 295.452441 
L 299.155041 262.650264 
L 299.472397 236.260957 
L 299.789752 230.26439 
L 300.107107 238.916782 
L 300.424463 239.336545 
L 300.741818 220.285581 
L 301.059174 231.162655 
L 301.376529 208.273213 
L 301.693884 288.4416 
L 302.01124 249.775791 
L 302.328595 233.852057 
L 302.64595 288.806436 
L 302.963306 265.663877 
L 303.280661 219.380173 
L 303.598017 295.453594 
L 303.915372 253.532527 
L 304.232727 240.826523 
L 304.550083 285.566092 
L 305.184793 256.896266 
L 305.502149 174.200727 
L 305.819504 272.557204 
L 306.13686 230.232844 
L 306.454215 260.33985 
L 306.77157 235.478057 
L 307.088926 235.9427 
L 307.406281 235.965814 
L 307.723636 286.18223 
L 308.040992 261.149715 
L 308.358347 253.296714 
L 308.675702 240.980524 
L 308.993058 234.300115 
L 309.310413 209.052625 
L 309.627769 222.105305 
L 309.945124 288.772701 
L 310.262479 276.451767 
L 310.579835 230.729585 
L 310.89719 258.725064 
L 311.214545 266.621021 
L 311.849256 292.597718 
L 312.166612 295.421715 
L 312.483967 227.511054 
L 312.801322 277.993248 
L 313.436033 198.707328 
L 313.753388 258.055357 
L 314.070744 240.461728 
L 314.388099 288.806352 
L 314.705455 284.254437 
L 315.02281 189.036382 
L 315.340165 217.754307 
L 315.657521 284.253941 
L 315.974876 210.225251 
L 316.292231 176.535859 
L 316.609587 274.446398 
L 316.926942 275.563325 
L 317.244298 288.77182 
L 317.561653 230.307007 
L 317.879008 235.5406 
L 318.196364 264.348872 
L 318.513719 256.871142 
L 318.831074 190.258394 
L 319.14843 288.775649 
L 319.465785 202.466862 
L 319.78314 288.492154 
L 320.100496 288.774617 
L 320.417851 233.137683 
L 320.735207 247.904281 
L 321.052562 268.372858 
L 321.369917 234.346121 
L 321.687273 256.703819 
L 322.004628 288.806684 
L 322.321983 224.13383 
L 322.639339 224.297781 
L 322.956694 227.003568 
L 323.27405 245.167633 
L 323.591405 285.425256 
L 323.90876 295.485859 
L 324.226116 259.834534 
L 324.860826 252.177369 
L 325.178182 263.713048 
L 325.812893 295.454481 
L 326.130248 193.887109 
L 326.447603 262.297712 
L 326.764959 206.289572 
L 327.082314 289.200167 
L 327.399669 212.046648 
L 327.717025 288.107696 
L 328.03438 281.538 
L 328.351736 231.113624 
L 328.669091 215.70532 
L 328.986446 208.094016 
L 329.303802 266.34901 
L 329.621157 271.308716 
L 329.938512 294.122301 
L 330.255868 286.774394 
L 330.573223 176.286148 
L 330.890579 254.366239 
L 331.207934 197.437511 
L 331.842645 279.699059 
L 332.16 247.441502 
L 332.477355 267.975841 
L 332.794711 174.125645 
L 333.112066 251.328523 
L 333.429421 288.773266 
L 333.746777 285.726494 
L 334.064132 272.680151 
L 334.381488 217.4774 
L 334.698843 212.583561 
L 335.016198 250.627996 
L 335.650909 195.439879 
L 335.968264 255.211653 
L 336.28562 259.144649 
L 336.602975 294.344119 
L 336.920331 243.230886 
L 337.237686 288.806074 
L 337.555041 230.061792 
L 337.872397 262.551335 
L 338.189752 243.248553 
L 338.507107 278.420901 
L 338.824463 288.806304 
L 339.141818 295.454025 
L 339.459174 234.108769 
L 339.776529 244.750034 
L 340.093884 288.80728 
L 340.41124 276.912948 
L 340.728595 221.813651 
L 341.04595 236.537366 
L 341.363306 170.522398 
L 341.998017 273.598169 
L 342.315372 258.970117 
L 342.632727 202.151248 
L 343.267438 295.4538 
L 343.584793 235.772475 
L 343.902149 228.941758 
L 344.219504 269.536829 
L 344.53686 236.287415 
L 344.854215 295.454892 
L 345.17157 186.788106 
L 345.806281 281.5549 
L 346.123636 256.495751 
L 346.440992 278.557009 
L 346.758347 250.737793 
L 347.075702 288.805538 
L 347.393058 241.501316 
L 347.710413 252.472991 
L 348.027769 250.141316 
L 348.345124 288.775392 
L 348.662479 295.421201 
L 348.979835 295.48653 
L 349.29719 292.572106 
L 349.614545 230.699416 
L 349.931901 270.405094 
L 350.249256 251.387109 
L 350.566612 192.955482 
L 350.883967 231.798352 
L 351.201322 295.485853 
L 351.518678 221.588213 
L 351.836033 258.348704 
L 352.153388 263.526431 
L 352.470744 290.695502 
L 352.788099 287.799884 
L 353.105455 172.848778 
L 353.42281 279.95808 
L 353.740165 269.585023 
L 354.057521 288.774256 
L 354.374876 295.486715 
L 354.692231 256.108264 
L 355.009587 295.455704 
L 355.326942 238.18116 
L 355.644298 277.162953 
L 355.961653 210.37482 
L 356.279008 295.452918 
L 356.596364 258.45129 
L 356.913719 182.169114 
L 357.54843 238.810822 
L 357.865785 194.606052 
L 358.18314 274.755302 
L 358.500496 271.941767 
L 358.817851 247.484098 
L 359.135207 288.771924 
L 359.452562 290.986591 
L 359.769917 238.505619 
L 360.404628 295.486763 
L 360.721983 271.274754 
L 361.039339 183.441355 
L 361.356694 268.908993 
L 361.67405 213.610988 
L 361.991405 282.12784 
L 362.30876 234.24345 
L 362.626116 282.128941 
L 363.260826 257.757446 
L 363.578182 256.794458 
L 363.895537 280.818221 
L 364.212893 213.147411 
L 364.530248 257.136609 
L 364.847603 278.748035 
L 365.164959 248.07801 
L 365.482314 248.608208 
L 365.799669 282.127414 
L 366.117025 212.825538 
L 366.43438 288.807513 
L 366.751736 241.257033 
L 367.069091 241.379585 
L 367.386446 207.035451 
L 367.703802 283.48217 
L 368.021157 243.272203 
L 368.338512 221.252763 
L 368.655868 289.531855 
L 368.973223 295.485864 
L 369.290579 248.681728 
L 369.607934 273.170469 
L 369.925289 241.288704 
L 370.242645 245.40673 
L 370.56 280.347016 
L 370.877355 243.30683 
L 371.194711 223.863938 
L 371.512066 252.158608 
L 371.829421 236.800584 
L 372.146777 229.064402 
L 372.464132 248.611869 
L 372.781488 237.058174 
L 373.098843 249.895595 
L 373.416198 244.559201 
L 373.733554 223.177315 
L 374.368264 249.120499 
L 374.68562 281.744923 
L 375.002975 295.487228 
L 375.320331 242.8696 
L 375.637686 288.806545 
L 375.955041 288.774491 
L 376.272397 295.452939 
L 376.589752 253.764146 
L 376.907107 249.614905 
L 377.224463 288.772054 
L 377.541818 163.986845 
L 377.859174 289.682835 
L 378.176529 287.034681 
L 378.493884 288.806341 
L 378.81124 288.80527 
L 379.128595 257.764698 
L 379.44595 288.367077 
L 379.763306 231.113079 
L 380.080661 226.947595 
L 380.398017 239.027887 
L 380.715372 287.225997 
L 381.032727 203.598822 
L 381.350083 233.591031 
L 381.667438 226.932695 
L 381.984793 234.288915 
L 382.302149 227.756292 
L 382.619504 277.376135 
L 382.93686 253.178329 
L 383.254215 257.919761 
L 383.57157 256.949795 
L 383.888926 238.712306 
L 384.206281 288.806113 
L 384.523636 257.424627 
L 384.840992 288.804895 
L 385.158347 295.486266 
L 385.475702 288.772744 
L 385.793058 236.247385 
L 386.110413 295.486268 
L 386.427769 295.486474 
L 386.745124 267.958613 
L 387.062479 254.103954 
L 387.379835 278.97801 
L 387.69719 239.288854 
L 388.014545 231.146197 
L 388.331901 216.600166 
L 388.649256 246.08063 
L 388.966612 295.453618 
L 389.283967 288.806234 
L 389.601322 218.282065 
L 389.918678 295.451676 
L 390.236033 268.722475 
L 390.553388 203.488939 
L 390.870744 243.298698 
L 391.188099 199.608202 
L 391.505455 193.006288 
L 391.82281 260.546128 
L 392.140165 295.486336 
L 392.457521 272.454822 
L 392.774876 182.968648 
L 393.092231 207.861532 
L 393.409587 173.549722 
L 393.726942 253.216084 
L 394.044298 222.122274 
L 394.361653 288.806429 
L 394.679008 282.229325 
L 394.996364 288.773313 
L 395.313719 234.430467 
L 395.631074 244.718936 
L 395.94843 282.127051 
L 396.265785 166.862765 
L 396.58314 239.499177 
L 396.900496 203.012817 
L 397.217851 230.503055 
L 397.535207 281.201815 
L 397.852562 241.102195 
L 398.169917 238.136359 
L 398.487273 295.452846 
L 398.487273 295.452846 
" clip-path="url(#pb8e670fab1)" style="fill: none; stroke: #1f77b4; stroke-width: 1.5; stroke-linecap: square"/>
   </g>
   <g id="patch_3">
    <path d="M 57.6 307.584 
L 57.6 41.472 
" style="fill: none; stroke: #000000; stroke-width: 0.8; stroke-linejoin: miter; stroke-linecap: square"/>
   </g>
   <g id="patch_4">
    <path d="M 414.72 307.584 
L 414.72 41.472 
" style="fill: none; stroke: #000000; stroke-width: 0.8; stroke-linejoin: miter; stroke-linecap: square"/>
   </g>
   <g id="patch_5">
    <path d="M 57.6 307.584 
L 414.72 307.584 
" style="fill: none; stroke: #000000; stroke-width: 0.8; stroke-linejoin: miter; stroke-linecap: square"/>
   </g>
   <g id="patch_6">
    <path d="M 57.6 41.472 
L 414.72 41.472 
" style="fill: none; stroke: #000000; stroke-width: 0.8; stroke-linejoin: miter; stroke-linecap: square"/>
   </g>
  </g>
 </g>
 <defs>
  <clipPath id="pb8e670fab1">
   <rect x="57.6" y="41.472" width="357.12" height="266.112"/>
  </clipPath>
 </defs>
</svg>
