<?xml version="1.0" encoding="utf-8" standalone="no"?>
<!DOCTYPE svg PUBLIC "-//W3C//DTD SVG 1.1//EN"
  "http://www.w3.org/Graphics/SVG/1.1/DTD/svg11.dtd">
<svg xmlns:xlink="http://www.w3.org/1999/xlink" width="460.8pt" height="345.6pt" viewBox="0 0 460.8 345.6" xmlns="http://www.w3.org/2000/svg" version="1.1">
 <metadata>
  <rdf:RDF xmlns:dc="http://purl.org/dc/elements/1.1/" xmlns:cc="http://creativecommons.org/ns#" xmlns:rdf="http://www.w3.org/1999/02/22-rdf-syntax-ns#">
   <cc:Work>
    <dc:type rdf:resource="http://purl.org/dc/dcmitype/StillImage"/>
    <dc:date>2024-04-19T11:42:42.557418</dc:date>
    <dc:format>image/svg+xml</dc:format>
    <dc:creator>
     <cc:Agent>
      <dc:title>Matplotlib v3.7.2, https://matplotlib.org/</dc:title>
     </cc:Agent>
    </dc:creator>
   </cc:Work>
  </rdf:RDF>
 </metadata>
 <defs>
  <style type="text/css">*{stroke-linejoin: round; stroke-linecap: butt}</style>
 </defs>
 <g id="figure_1">
  <g id="patch_1">
   <path d="M 0 345.6 
L 460.8 345.6 
L 460.8 0 
L 0 0 
z
" style="fill: #ffffff"/>
  </g>
  <g id="axes_1">
   <g id="patch_2">
    <path d="M 57.6 307.584 
L 414.72 307.584 
L 414.72 41.472 
L 57.6 41.472 
z
" style="fill: #ffffff"/>
   </g>
   <g id="matplotlib.axis_1">
    <g id="xtick_1">
     <g id="line2d_1">
      <defs>
       <path id="m569c791707" d="M 0 0 
L 0 3.5 
" style="stroke: #000000; stroke-width: 0.8"/>
      </defs>
      <g>
       <use xlink:href="#m569c791707" x="73.832727" y="307.584" style="stroke: #000000; stroke-width: 0.8"/>
      </g>
     </g>
     <g id="text_1">
      <!-- 0 -->
      <g transform="translate(70.651477 322.182437) scale(0.1 -0.1)">
       <defs>
        <path id="DejaVuSans-30" d="M 2034 4250 
Q 1547 4250 1301 3770 
Q 1056 3291 1056 2328 
Q 1056 1369 1301 889 
Q 1547 409 2034 409 
Q 2525 409 2770 889 
Q 3016 1369 3016 2328 
Q 3016 3291 2770 3770 
Q 2525 4250 2034 4250 
z
M 2034 4750 
Q 2819 4750 3233 4129 
Q 3647 3509 3647 2328 
Q 3647 1150 3233 529 
Q 2819 -91 2034 -91 
Q 1250 -91 836 529 
Q 422 1150 422 2328 
Q 422 3509 836 4129 
Q 1250 4750 2034 4750 
z
" transform="scale(0.015625)"/>
       </defs>
       <use xlink:href="#DejaVuSans-30"/>
      </g>
     </g>
    </g>
    <g id="xtick_2">
     <g id="line2d_2">
      <g>
       <use xlink:href="#m569c791707" x="138.828632" y="307.584" style="stroke: #000000; stroke-width: 0.8"/>
      </g>
     </g>
     <g id="text_2">
      <!-- 200 -->
      <g transform="translate(129.284882 322.182437) scale(0.1 -0.1)">
       <defs>
        <path id="DejaVuSans-32" d="M 1228 531 
L 3431 531 
L 3431 0 
L 469 0 
L 469 531 
Q 828 903 1448 1529 
Q 2069 2156 2228 2338 
Q 2531 2678 2651 2914 
Q 2772 3150 2772 3378 
Q 2772 3750 2511 3984 
Q 2250 4219 1831 4219 
Q 1534 4219 1204 4116 
Q 875 4013 500 3803 
L 500 4441 
Q 881 4594 1212 4672 
Q 1544 4750 1819 4750 
Q 2544 4750 2975 4387 
Q 3406 4025 3406 3419 
Q 3406 3131 3298 2873 
Q 3191 2616 2906 2266 
Q 2828 2175 2409 1742 
Q 1991 1309 1228 531 
z
" transform="scale(0.015625)"/>
       </defs>
       <use xlink:href="#DejaVuSans-32"/>
       <use xlink:href="#DejaVuSans-30" x="63.623047"/>
       <use xlink:href="#DejaVuSans-30" x="127.246094"/>
      </g>
     </g>
    </g>
    <g id="xtick_3">
     <g id="line2d_3">
      <g>
       <use xlink:href="#m569c791707" x="203.824537" y="307.584" style="stroke: #000000; stroke-width: 0.8"/>
      </g>
     </g>
     <g id="text_3">
      <!-- 400 -->
      <g transform="translate(194.280787 322.182437) scale(0.1 -0.1)">
       <defs>
        <path id="DejaVuSans-34" d="M 2419 4116 
L 825 1625 
L 2419 1625 
L 2419 4116 
z
M 2253 4666 
L 3047 4666 
L 3047 1625 
L 3713 1625 
L 3713 1100 
L 3047 1100 
L 3047 0 
L 2419 0 
L 2419 1100 
L 313 1100 
L 313 1709 
L 2253 4666 
z
" transform="scale(0.015625)"/>
       </defs>
       <use xlink:href="#DejaVuSans-34"/>
       <use xlink:href="#DejaVuSans-30" x="63.623047"/>
       <use xlink:href="#DejaVuSans-30" x="127.246094"/>
      </g>
     </g>
    </g>
    <g id="xtick_4">
     <g id="line2d_4">
      <g>
       <use xlink:href="#m569c791707" x="268.820442" y="307.584" style="stroke: #000000; stroke-width: 0.8"/>
      </g>
     </g>
     <g id="text_4">
      <!-- 600 -->
      <g transform="translate(259.276692 322.182437) scale(0.1 -0.1)">
       <defs>
        <path id="DejaVuSans-36" d="M 2113 2584 
Q 1688 2584 1439 2293 
Q 1191 2003 1191 1497 
Q 1191 994 1439 701 
Q 1688 409 2113 409 
Q 2538 409 2786 701 
Q 3034 994 3034 1497 
Q 3034 2003 2786 2293 
Q 2538 2584 2113 2584 
z
M 3366 4563 
L 3366 3988 
Q 3128 4100 2886 4159 
Q 2644 4219 2406 4219 
Q 1781 4219 1451 3797 
Q 1122 3375 1075 2522 
Q 1259 2794 1537 2939 
Q 1816 3084 2150 3084 
Q 2853 3084 3261 2657 
Q 3669 2231 3669 1497 
Q 3669 778 3244 343 
Q 2819 -91 2113 -91 
Q 1303 -91 875 529 
Q 447 1150 447 2328 
Q 447 3434 972 4092 
Q 1497 4750 2381 4750 
Q 2619 4750 2861 4703 
Q 3103 4656 3366 4563 
z
" transform="scale(0.015625)"/>
       </defs>
       <use xlink:href="#DejaVuSans-36"/>
       <use xlink:href="#DejaVuSans-30" x="63.623047"/>
       <use xlink:href="#DejaVuSans-30" x="127.246094"/>
      </g>
     </g>
    </g>
    <g id="xtick_5">
     <g id="line2d_5">
      <g>
       <use xlink:href="#m569c791707" x="333.816347" y="307.584" style="stroke: #000000; stroke-width: 0.8"/>
      </g>
     </g>
     <g id="text_5">
      <!-- 800 -->
      <g transform="translate(324.272597 322.182437) scale(0.1 -0.1)">
       <defs>
        <path id="DejaVuSans-38" d="M 2034 2216 
Q 1584 2216 1326 1975 
Q 1069 1734 1069 1313 
Q 1069 891 1326 650 
Q 1584 409 2034 409 
Q 2484 409 2743 651 
Q 3003 894 3003 1313 
Q 3003 1734 2745 1975 
Q 2488 2216 2034 2216 
z
M 1403 2484 
Q 997 2584 770 2862 
Q 544 3141 544 3541 
Q 544 4100 942 4425 
Q 1341 4750 2034 4750 
Q 2731 4750 3128 4425 
Q 3525 4100 3525 3541 
Q 3525 3141 3298 2862 
Q 3072 2584 2669 2484 
Q 3125 2378 3379 2068 
Q 3634 1759 3634 1313 
Q 3634 634 3220 271 
Q 2806 -91 2034 -91 
Q 1263 -91 848 271 
Q 434 634 434 1313 
Q 434 1759 690 2068 
Q 947 2378 1403 2484 
z
M 1172 3481 
Q 1172 3119 1398 2916 
Q 1625 2713 2034 2713 
Q 2441 2713 2670 2916 
Q 2900 3119 2900 3481 
Q 2900 3844 2670 4047 
Q 2441 4250 2034 4250 
Q 1625 4250 1398 4047 
Q 1172 3844 1172 3481 
z
" transform="scale(0.015625)"/>
       </defs>
       <use xlink:href="#DejaVuSans-38"/>
       <use xlink:href="#DejaVuSans-30" x="63.623047"/>
       <use xlink:href="#DejaVuSans-30" x="127.246094"/>
      </g>
     </g>
    </g>
    <g id="xtick_6">
     <g id="line2d_6">
      <g>
       <use xlink:href="#m569c791707" x="398.812252" y="307.584" style="stroke: #000000; stroke-width: 0.8"/>
      </g>
     </g>
     <g id="text_6">
      <!-- 1000 -->
      <g transform="translate(386.087252 322.182437) scale(0.1 -0.1)">
       <defs>
        <path id="DejaVuSans-31" d="M 794 531 
L 1825 531 
L 1825 4091 
L 703 3866 
L 703 4441 
L 1819 4666 
L 2450 4666 
L 2450 531 
L 3481 531 
L 3481 0 
L 794 0 
L 794 531 
z
" transform="scale(0.015625)"/>
       </defs>
       <use xlink:href="#DejaVuSans-31"/>
       <use xlink:href="#DejaVuSans-30" x="63.623047"/>
       <use xlink:href="#DejaVuSans-30" x="127.246094"/>
       <use xlink:href="#DejaVuSans-30" x="190.869141"/>
      </g>
     </g>
    </g>
   </g>
   <g id="matplotlib.axis_2">
    <g id="ytick_1">
     <g id="line2d_7">
      <defs>
       <path id="m2ca224f1f4" d="M 0 0 
L -3.5 0 
" style="stroke: #000000; stroke-width: 0.8"/>
      </defs>
      <g>
       <use xlink:href="#m2ca224f1f4" x="57.6" y="281.89581" style="stroke: #000000; stroke-width: 0.8"/>
      </g>
     </g>
     <g id="text_7">
      <!-- −3000 -->
      <g transform="translate(16.770313 285.695029) scale(0.1 -0.1)">
       <defs>
        <path id="DejaVuSans-2212" d="M 678 2272 
L 4684 2272 
L 4684 1741 
L 678 1741 
L 678 2272 
z
" transform="scale(0.015625)"/>
        <path id="DejaVuSans-33" d="M 2597 2516 
Q 3050 2419 3304 2112 
Q 3559 1806 3559 1356 
Q 3559 666 3084 287 
Q 2609 -91 1734 -91 
Q 1441 -91 1130 -33 
Q 819 25 488 141 
L 488 750 
Q 750 597 1062 519 
Q 1375 441 1716 441 
Q 2309 441 2620 675 
Q 2931 909 2931 1356 
Q 2931 1769 2642 2001 
Q 2353 2234 1838 2234 
L 1294 2234 
L 1294 2753 
L 1863 2753 
Q 2328 2753 2575 2939 
Q 2822 3125 2822 3475 
Q 2822 3834 2567 4026 
Q 2313 4219 1838 4219 
Q 1578 4219 1281 4162 
Q 984 4106 628 3988 
L 628 4550 
Q 988 4650 1302 4700 
Q 1616 4750 1894 4750 
Q 2613 4750 3031 4423 
Q 3450 4097 3450 3541 
Q 3450 3153 3228 2886 
Q 3006 2619 2597 2516 
z
" transform="scale(0.015625)"/>
       </defs>
       <use xlink:href="#DejaVuSans-2212"/>
       <use xlink:href="#DejaVuSans-33" x="83.789062"/>
       <use xlink:href="#DejaVuSans-30" x="147.412109"/>
       <use xlink:href="#DejaVuSans-30" x="211.035156"/>
       <use xlink:href="#DejaVuSans-30" x="274.658203"/>
      </g>
     </g>
    </g>
    <g id="ytick_2">
     <g id="line2d_8">
      <g>
       <use xlink:href="#m2ca224f1f4" x="57.6" y="240.985777" style="stroke: #000000; stroke-width: 0.8"/>
      </g>
     </g>
     <g id="text_8">
      <!-- −2000 -->
      <g transform="translate(16.770313 244.784996) scale(0.1 -0.1)">
       <use xlink:href="#DejaVuSans-2212"/>
       <use xlink:href="#DejaVuSans-32" x="83.789062"/>
       <use xlink:href="#DejaVuSans-30" x="147.412109"/>
       <use xlink:href="#DejaVuSans-30" x="211.035156"/>
       <use xlink:href="#DejaVuSans-30" x="274.658203"/>
      </g>
     </g>
    </g>
    <g id="ytick_3">
     <g id="line2d_9">
      <g>
       <use xlink:href="#m2ca224f1f4" x="57.6" y="200.075745" style="stroke: #000000; stroke-width: 0.8"/>
      </g>
     </g>
     <g id="text_9">
      <!-- −1000 -->
      <g transform="translate(16.770313 203.874963) scale(0.1 -0.1)">
       <use xlink:href="#DejaVuSans-2212"/>
       <use xlink:href="#DejaVuSans-31" x="83.789062"/>
       <use xlink:href="#DejaVuSans-30" x="147.412109"/>
       <use xlink:href="#DejaVuSans-30" x="211.035156"/>
       <use xlink:href="#DejaVuSans-30" x="274.658203"/>
      </g>
     </g>
    </g>
    <g id="ytick_4">
     <g id="line2d_10">
      <g>
       <use xlink:href="#m2ca224f1f4" x="57.6" y="159.165712" style="stroke: #000000; stroke-width: 0.8"/>
      </g>
     </g>
     <g id="text_10">
      <!-- 0 -->
      <g transform="translate(44.2375 162.96493) scale(0.1 -0.1)">
       <use xlink:href="#DejaVuSans-30"/>
      </g>
     </g>
    </g>
    <g id="ytick_5">
     <g id="line2d_11">
      <g>
       <use xlink:href="#m2ca224f1f4" x="57.6" y="118.255679" style="stroke: #000000; stroke-width: 0.8"/>
      </g>
     </g>
     <g id="text_11">
      <!-- 1000 -->
      <g transform="translate(25.15 122.054898) scale(0.1 -0.1)">
       <use xlink:href="#DejaVuSans-31"/>
       <use xlink:href="#DejaVuSans-30" x="63.623047"/>
       <use xlink:href="#DejaVuSans-30" x="127.246094"/>
       <use xlink:href="#DejaVuSans-30" x="190.869141"/>
      </g>
     </g>
    </g>
    <g id="ytick_6">
     <g id="line2d_12">
      <g>
       <use xlink:href="#m2ca224f1f4" x="57.6" y="77.345646" style="stroke: #000000; stroke-width: 0.8"/>
      </g>
     </g>
     <g id="text_12">
      <!-- 2000 -->
      <g transform="translate(25.15 81.144865) scale(0.1 -0.1)">
       <use xlink:href="#DejaVuSans-32"/>
       <use xlink:href="#DejaVuSans-30" x="63.623047"/>
       <use xlink:href="#DejaVuSans-30" x="127.246094"/>
       <use xlink:href="#DejaVuSans-30" x="190.869141"/>
      </g>
     </g>
    </g>
   </g>
   <g id="line2d_13">
    <path d="M 73.832727 134.239952 
L 74.157707 182.553491 
L 74.807666 130.72254 
L 75.132645 151.208587 
L 75.457625 156.647728 
L 75.782604 156.880571 
L 76.107584 215.630431 
L 76.432563 203.204443 
L 76.757543 278.865656 
L 77.082523 230.485943 
L 77.407502 254.024965 
L 77.732482 187.096486 
L 78.057461 178.305297 
L 78.382441 228.039703 
L 78.70742 228.792809 
L 79.0324 265.87933 
L 79.357379 221.079109 
L 80.007338 281.196807 
L 80.332318 197.499585 
L 80.657297 222.362342 
L 81.307256 254.544502 
L 81.632236 244.20158 
L 81.957215 198.203206 
L 82.282195 238.804182 
L 82.607174 239.462682 
L 82.932154 227.213614 
L 83.257133 186.259214 
L 83.907093 280.469923 
L 84.232072 139.593111 
L 84.557052 205.979969 
L 84.882031 135.411491 
L 85.207011 205.00537 
L 85.53199 238.840485 
L 85.85697 247.685575 
L 86.506929 152.237002 
L 86.831908 207.13102 
L 87.156888 195.203296 
L 87.481867 235.831677 
L 87.806847 260.604714 
L 88.131826 198.946611 
L 88.456806 222.408238 
L 88.781785 228.79773 
L 89.106765 221.350159 
L 89.431744 177.373475 
L 89.756724 164.476697 
L 90.081704 286.424161 
L 90.406683 209.539558 
L 90.731663 171.821101 
L 91.056642 212.960338 
L 91.381622 239.322267 
L 91.706601 179.557755 
L 92.031581 256.28923 
L 93.006519 119.91683 
L 93.331499 214.366534 
L 93.656478 208.779182 
L 93.981458 231.426044 
L 94.306437 244.29961 
L 94.956396 122.844224 
L 95.281376 238.292927 
L 95.606355 229.459032 
L 95.931335 226.71038 
L 96.256314 258.528909 
L 96.581294 217.336584 
L 96.906274 209.356813 
L 97.231253 242.068161 
L 97.556233 261.057105 
L 97.881212 193.508951 
L 98.206192 221.518652 
L 98.531171 292.532561 
L 98.856151 255.707012 
L 99.18113 115.450469 
L 99.50611 134.54605 
L 99.831089 78.789894 
L 100.156069 228.168887 
L 100.481048 238.056312 
L 100.806028 129.58586 
L 101.455987 264.995896 
L 102.105946 211.667053 
L 102.430925 236.894243 
L 102.755905 170.037545 
L 103.405864 192.481215 
L 103.730844 234.209708 
L 104.380803 271.380635 
L 104.705782 195.0127 
L 105.030762 232.874998 
L 105.355741 290.212776 
L 105.680721 209.62177 
L 106.0057 242.748882 
L 106.33068 205.035692 
L 106.655659 250.473237 
L 106.980639 263.322951 
L 107.305618 224.1354 
L 107.630598 284.565823 
L 107.955577 263.98434 
L 108.280557 154.974021 
L 108.605536 156.742333 
L 108.930516 191.969239 
L 109.255495 191.99763 
L 109.580475 228.034274 
L 109.905455 179.560098 
L 110.230434 209.976837 
L 110.555414 215.628186 
L 110.880393 203.849273 
L 111.205373 215.464471 
L 111.530352 219.920744 
L 111.855332 193.832471 
L 112.180311 226.95056 
L 112.505291 163.147123 
L 112.83027 201.777154 
L 113.15525 220.698706 
L 113.480229 267.369661 
L 113.805209 213.071511 
L 114.130188 242.694026 
L 114.455168 138.122268 
L 114.780147 239.252916 
L 115.105127 290.070158 
L 115.430106 181.7636 
L 115.755086 285.973874 
L 116.405045 196.915788 
L 116.730025 250.032295 
L 117.055004 217.425725 
L 117.379984 161.840558 
L 117.704963 193.848238 
L 118.029943 163.149839 
L 118.354922 238.751935 
L 118.679902 192.986571 
L 119.004881 247.906964 
L 119.329861 267.641397 
L 119.65484 253.214417 
L 119.97982 193.101222 
L 120.304799 190.846047 
L 120.629779 251.756971 
L 120.954758 226.991216 
L 121.279738 238.621674 
L 121.604717 280.272936 
L 121.929697 201.356064 
L 122.254676 212.732127 
L 122.579656 208.890287 
L 122.904636 173.442791 
L 123.229615 192.423804 
L 123.554595 249.907917 
L 123.879574 195.788912 
L 124.204554 258.556313 
L 124.529533 261.475266 
L 124.854513 224.91088 
L 125.179492 207.252019 
L 125.504472 139.933119 
L 125.829451 221.556077 
L 126.154431 238.480669 
L 126.47941 214.565709 
L 126.80439 178.564658 
L 127.129369 264.796501 
L 127.779328 214.810292 
L 128.104308 236.97296 
L 128.429287 215.58795 
L 128.754267 92.547638 
L 129.079247 120.994225 
L 129.404226 210.680579 
L 129.729206 205.499509 
L 130.054185 211.164873 
L 130.379165 262.145516 
L 130.704144 186.315977 
L 131.029124 255.021469 
L 131.354103 243.443928 
L 132.004062 173.933334 
L 132.329042 204.928125 
L 132.979001 241.809612 
L 133.30398 237.404339 
L 133.62896 196.835337 
L 134.278919 216.060707 
L 134.603898 240.490506 
L 134.928878 216.127648 
L 135.253857 221.395697 
L 135.578837 176.03396 
L 135.903817 258.750951 
L 136.228796 161.35451 
L 136.553776 174.862067 
L 136.878755 213.314584 
L 137.203735 210.515994 
L 137.528714 277.619351 
L 137.853694 196.838303 
L 138.178673 202.291892 
L 138.503653 210.355989 
L 138.828632 244.221854 
L 139.153612 202.592853 
L 139.478591 223.869736 
L 139.803571 203.266995 
L 140.12855 238.406977 
L 140.45353 220.971201 
L 140.778509 254.708548 
L 141.103489 195.789701 
L 141.428468 265.336635 
L 141.753448 215.799038 
L 142.078428 203.00628 
L 142.403407 199.830487 
L 142.728387 235.037609 
L 143.053366 221.791422 
L 143.378346 191.061449 
L 143.703325 185.786934 
L 144.353284 229.591931 
L 144.678264 179.62356 
L 145.003243 226.39604 
L 145.328223 228.076027 
L 145.653202 184.333108 
L 145.978182 239.247386 
L 146.303161 160.038868 
L 146.628141 203.88611 
L 146.95312 197.715275 
L 147.2781 238.143719 
L 147.603079 190.671332 
L 147.928059 177.534105 
L 148.253038 265.661609 
L 148.902998 225.464864 
L 149.227977 213.885232 
L 149.552957 246.112189 
L 149.877936 165.394916 
L 150.202916 172.180395 
L 150.527895 254.940608 
L 150.852875 184.390303 
L 151.177854 197.523214 
L 151.502834 187.314528 
L 151.827813 227.134307 
L 152.152793 120.553676 
L 152.477772 215.835858 
L 152.802752 216.80397 
L 153.127731 247.258617 
L 153.452711 206.721809 
L 153.77769 258.973526 
L 154.10267 277.945249 
L 154.427649 222.676541 
L 155.077609 175.12066 
L 155.402588 170.442936 
L 156.052547 231.491211 
L 156.377527 246.603744 
L 156.702506 206.040399 
L 157.027486 238.98385 
L 157.352465 235.585862 
L 157.677445 230.597367 
L 158.002424 205.857519 
L 158.327404 214.702497 
L 158.652383 228.845063 
L 158.977363 259.642222 
L 159.302342 201.521953 
L 159.627322 223.716569 
L 159.952301 272.433148 
L 160.277281 234.685675 
L 160.60226 220.99674 
L 160.92724 236.198384 
L 161.252219 146.077059 
L 161.577199 179.927462 
L 161.902179 92.106836 
L 162.227158 240.518752 
L 162.552138 164.894138 
L 162.877117 254.467359 
L 163.202097 184.625067 
L 163.527076 182.475195 
L 163.852056 252.411476 
L 164.502015 166.855795 
L 164.826994 234.411012 
L 165.151974 210.63301 
L 165.476953 274.64874 
L 165.801933 196.418268 
L 166.126912 227.500061 
L 166.451892 223.019645 
L 166.776871 189.397885 
L 167.101851 243.158002 
L 167.42683 253.947337 
L 167.75181 238.34085 
L 168.07679 253.24195 
L 168.401769 220.278121 
L 168.726749 214.231552 
L 169.051728 175.585147 
L 170.026667 257.496927 
L 170.351646 184.480644 
L 170.676626 224.47883 
L 171.001605 240.35672 
L 171.326585 278.610742 
L 171.651564 166.280843 
L 172.301523 211.951042 
L 172.626503 180.82846 
L 172.951482 260.744385 
L 173.276462 234.727554 
L 173.601441 257.405841 
L 173.926421 206.549362 
L 174.2514 262.396784 
L 174.57638 262.675795 
L 174.90136 206.566061 
L 175.226339 243.529631 
L 175.551319 259.312317 
L 175.876298 217.821791 
L 176.201278 143.003592 
L 176.526257 257.767342 
L 176.851237 279.344919 
L 177.501196 212.83522 
L 177.826175 214.325817 
L 178.151155 239.176931 
L 178.476134 193.824777 
L 178.801114 241.883289 
L 179.451073 182.487966 
L 179.776052 142.499521 
L 180.101032 177.382182 
L 180.426011 191.457672 
L 180.750991 184.459322 
L 181.075971 144.012536 
L 181.40095 231.642377 
L 181.72593 178.982839 
L 182.050909 183.01723 
L 182.375889 116.662766 
L 182.700868 104.489544 
L 183.025848 163.920665 
L 183.350827 189.64335 
L 183.675807 264.350073 
L 184.000786 215.139142 
L 184.325766 196.538283 
L 184.975725 250.416501 
L 185.300704 180.894112 
L 185.625684 268.923804 
L 185.950663 199.916528 
L 186.275643 181.830679 
L 186.600622 192.807322 
L 186.925602 233.370668 
L 187.250581 169.779922 
L 187.575561 242.981498 
L 187.900541 220.643753 
L 188.22552 243.647365 
L 188.5505 187.199759 
L 188.875479 190.013047 
L 189.200459 295.488 
L 189.525438 257.350951 
L 189.850418 180.790255 
L 190.175397 144.391183 
L 190.825356 264.443408 
L 191.150336 230.420449 
L 191.475315 259.211462 
L 191.800295 208.656235 
L 192.125274 229.375542 
L 192.450254 235.389518 
L 192.775233 182.122296 
L 193.100213 186.683255 
L 193.425192 253.106078 
L 193.750172 129.72217 
L 194.075152 254.939192 
L 194.400131 219.143726 
L 194.725111 213.742379 
L 195.05009 224.386078 
L 195.37507 146.754826 
L 195.700049 271.269067 
L 196.025029 246.374714 
L 196.350008 243.51533 
L 196.674988 206.156735 
L 196.999967 247.963161 
L 197.649926 136.63687 
L 197.974906 226.48096 
L 198.624865 154.792567 
L 198.949844 210.246409 
L 199.274824 196.58387 
L 199.599803 254.525013 
L 199.924783 286.773715 
L 200.249762 200.319793 
L 200.574742 191.378555 
L 200.899722 132.352523 
L 201.224701 177.097932 
L 201.549681 184.757417 
L 201.87466 176.743956 
L 202.19964 249.105622 
L 202.524619 215.56432 
L 202.849599 164.641743 
L 203.174578 239.875619 
L 203.499558 178.269675 
L 203.824537 170.892214 
L 204.149517 213.022301 
L 204.474496 199.984532 
L 204.799476 240.708973 
L 205.124455 216.093467 
L 205.449435 258.504921 
L 205.774414 258.462928 
L 206.424373 167.963265 
L 207.074333 230.328074 
L 207.399312 206.678031 
L 207.724292 203.772564 
L 208.049271 163.803621 
L 208.374251 184.652968 
L 208.69923 215.773095 
L 209.02421 182.598979 
L 209.349189 187.565388 
L 209.674169 214.209517 
L 209.999148 181.287722 
L 210.324128 251.149459 
L 210.649107 242.666094 
L 211.299066 186.354676 
L 211.624046 226.717631 
L 211.949025 199.834564 
L 212.274005 129.350956 
L 212.598984 247.401672 
L 212.923964 198.009686 
L 213.248943 228.837476 
L 213.573923 169.497998 
L 213.898903 197.367718 
L 214.223882 210.370861 
L 214.548862 200.315885 
L 214.873841 248.553491 
L 215.198821 193.655215 
L 215.5238 220.064693 
L 215.84878 193.714326 
L 216.173759 278.391657 
L 216.498739 169.386096 
L 216.823718 262.448685 
L 217.148698 117.824294 
L 217.473677 256.477455 
L 217.798657 161.167991 
L 218.123636 241.672829 
L 218.773595 216.914981 
L 219.098575 228.366595 
L 219.748534 269.172871 
L 220.073514 258.112793 
L 220.398493 223.575402 
L 220.723473 256.803529 
L 221.048452 246.039362 
L 221.373432 203.405558 
L 222.023391 227.041332 
L 222.34837 229.552191 
L 222.67335 230.006092 
L 222.998329 193.510367 
L 223.323309 222.650679 
L 223.648288 180.125001 
L 223.973268 234.143824 
L 224.298247 171.331844 
L 224.623227 223.885786 
L 225.273186 169.896074 
L 225.598165 183.06523 
L 225.923145 182.464432 
L 226.248124 127.457644 
L 226.573104 236.899712 
L 226.898084 246.755986 
L 227.223063 230.743498 
L 227.548043 226.621965 
L 227.873022 180.310884 
L 228.198002 181.04206 
L 228.522981 213.612688 
L 228.847961 223.797947 
L 229.17294 199.911081 
L 229.49792 218.444048 
L 229.822899 255.923096 
L 230.797838 141.045686 
L 231.122817 179.228311 
L 231.447797 232.739961 
L 231.772776 191.5175 
L 232.097756 243.386655 
L 232.422735 138.724462 
L 232.747715 242.229854 
L 233.072695 205.239579 
L 233.397674 189.650156 
L 233.722654 237.477174 
L 234.047633 185.318221 
L 234.372613 224.805704 
L 235.022572 127.200017 
L 235.347551 208.458071 
L 235.672531 186.432043 
L 235.99751 182.382498 
L 236.32249 171.487854 
L 236.647469 168.027985 
L 236.972449 246.573508 
L 237.297428 254.352892 
L 237.622408 219.399862 
L 237.947387 252.672603 
L 238.272367 239.989238 
L 238.922326 181.066274 
L 239.247305 193.756931 
L 239.572285 173.946274 
L 239.897265 197.112012 
L 240.222244 174.753234 
L 240.547224 167.750253 
L 240.872203 231.508784 
L 241.197183 216.286633 
L 241.522162 215.204695 
L 241.847142 236.997338 
L 242.172121 245.641189 
L 242.497101 228.29694 
L 242.82208 204.430777 
L 243.14706 208.268963 
L 243.472039 219.062005 
L 243.797019 196.52631 
L 244.121998 254.713847 
L 244.446978 187.43015 
L 244.771957 198.734959 
L 245.096937 198.011743 
L 245.421916 259.251112 
L 245.746896 129.136215 
L 246.071876 235.534809 
L 246.396855 195.142378 
L 246.721835 210.900317 
L 247.046814 212.634401 
L 247.371794 186.487015 
L 247.696773 197.055109 
L 248.021753 185.333969 
L 248.671712 230.972632 
L 248.996691 170.592424 
L 249.321671 201.901044 
L 249.64665 172.415686 
L 249.97163 179.892524 
L 250.296609 221.419223 
L 250.621589 131.551948 
L 251.271548 231.739208 
L 251.596527 239.91272 
L 251.921507 245.109324 
L 252.246486 163.215525 
L 252.571466 274.970916 
L 252.896446 167.714757 
L 253.221425 169.652367 
L 253.546405 193.383746 
L 253.871384 168.182014 
L 254.521343 249.493886 
L 254.846323 179.67479 
L 255.171302 251.087253 
L 255.496282 106.878817 
L 255.821261 251.911296 
L 256.146241 198.266949 
L 256.47122 253.26619 
L 256.7962 171.551895 
L 257.121179 219.28207 
L 257.446159 244.722281 
L 257.771138 232.709081 
L 258.421097 170.683074 
L 258.746077 221.221929 
L 259.071057 192.953712 
L 259.396036 185.316762 
L 259.721016 166.892059 
L 260.045995 278.300768 
L 260.370975 197.364992 
L 260.695954 251.929666 
L 261.020934 244.244939 
L 261.345913 246.528686 
L 261.670893 219.554749 
L 261.995872 177.457545 
L 262.320852 196.750847 
L 262.970811 250.219215 
L 263.62077 175.953524 
L 263.945749 198.294704 
L 264.270729 178.166044 
L 264.595708 191.612978 
L 264.920688 229.829116 
L 265.245667 59.385868 
L 265.570647 192.685694 
L 265.895627 187.08645 
L 266.220606 241.967753 
L 266.545586 201.45183 
L 266.870565 219.602967 
L 267.195545 181.086897 
L 267.520524 169.108439 
L 267.845504 146.62036 
L 268.170483 180.120607 
L 268.495463 229.098377 
L 268.820442 202.664523 
L 269.145422 247.099886 
L 269.470401 186.307767 
L 269.795381 227.692324 
L 270.12036 230.451293 
L 270.44534 209.329329 
L 270.770319 279.474197 
L 271.095299 248.742038 
L 271.420278 247.937028 
L 271.745258 261.525925 
L 272.070238 236.55107 
L 272.395217 242.668558 
L 272.720197 256.119183 
L 273.045176 113.153044 
L 273.370156 217.225331 
L 273.695135 178.785735 
L 274.020115 178.198593 
L 274.345094 195.277182 
L 274.670074 163.147063 
L 274.995053 228.521603 
L 275.320033 214.27915 
L 275.645012 224.910414 
L 275.969992 189.698347 
L 276.294971 206.148472 
L 276.619951 195.233615 
L 276.94493 222.689567 
L 277.26991 225.153711 
L 277.594889 216.017887 
L 277.919869 228.000626 
L 278.244848 212.062411 
L 278.569828 215.125803 
L 278.894808 214.787898 
L 279.219787 232.035799 
L 279.544767 267.082054 
L 279.869746 225.605462 
L 280.194726 276.109316 
L 280.519705 208.575091 
L 280.844685 173.835134 
L 281.169664 208.941161 
L 281.819623 129.940939 
L 282.144603 181.292913 
L 282.469582 167.61922 
L 282.794562 173.079056 
L 283.119541 259.131803 
L 283.444521 253.5936 
L 283.7695 82.95205 
L 284.09448 206.518806 
L 284.419459 140.970065 
L 284.744439 256.104138 
L 285.069419 230.600362 
L 285.394398 184.245654 
L 285.719378 227.877829 
L 286.044357 226.40943 
L 286.369337 226.555657 
L 286.694316 273.13884 
L 287.019296 207.157194 
L 287.344275 258.724954 
L 287.669255 224.445469 
L 287.994234 154.038144 
L 288.319214 199.010847 
L 288.644193 273.095082 
L 289.294152 127.739301 
L 289.619132 168.429435 
L 289.944111 254.02502 
L 290.269091 235.480694 
L 290.59407 274.092708 
L 290.91905 122.450965 
L 291.569009 236.106318 
L 291.893989 205.889868 
L 292.218968 238.553419 
L 292.543948 168.116193 
L 292.868927 210.689076 
L 293.193907 169.548922 
L 293.518886 222.520331 
L 293.843866 197.241576 
L 294.168845 257.279473 
L 294.493825 237.059841 
L 294.818804 186.204561 
L 295.143784 225.016829 
L 295.468763 208.856412 
L 295.793743 246.118725 
L 296.118722 266.115056 
L 296.443702 267.775719 
L 296.768681 162.319135 
L 297.093661 173.219399 
L 297.41864 228.363684 
L 297.74362 201.169049 
L 298.0686 244.442819 
L 298.393579 174.891587 
L 298.718559 214.472335 
L 299.043538 187.27736 
L 299.368518 209.654014 
L 299.693497 192.182545 
L 300.018477 198.011171 
L 300.343456 147.291297 
L 300.668436 242.085249 
L 300.993415 189.826686 
L 301.318395 236.114673 
L 301.643374 222.869069 
L 301.968354 114.496103 
L 302.293333 155.795939 
L 302.618313 159.723682 
L 302.943292 169.260479 
L 303.268272 268.356357 
L 303.593251 221.056689 
L 303.918231 203.3319 
L 304.24321 171.115346 
L 304.56819 276.803121 
L 304.89317 211.37944 
L 305.218149 209.09231 
L 305.543129 192.813405 
L 305.868108 224.854001 
L 306.193088 242.558529 
L 306.518067 195.099719 
L 307.168026 247.846367 
L 307.493006 209.381331 
L 307.817985 220.963599 
L 308.142965 245.253286 
L 308.467944 235.192099 
L 308.792924 228.796445 
L 309.117903 194.19905 
L 309.442883 222.082949 
L 309.767862 185.187469 
L 310.092842 244.251905 
L 310.417821 238.156383 
L 310.742801 238.461053 
L 311.067781 284.807787 
L 311.39276 187.529681 
L 311.71774 282.275763 
L 312.042719 172.53745 
L 312.367699 239.887629 
L 312.692678 254.430938 
L 313.017658 215.05772 
L 313.342637 230.084686 
L 313.667617 225.112124 
L 313.992596 222.071775 
L 314.317576 217.498316 
L 314.642555 272.630156 
L 314.967535 233.758296 
L 315.292514 259.443849 
L 315.617494 218.015988 
L 315.942473 153.514963 
L 316.267453 225.519508 
L 316.592432 184.61068 
L 316.917412 230.934442 
L 317.242391 213.608317 
L 317.567371 238.913282 
L 317.892351 245.298885 
L 318.54231 171.236954 
L 318.867289 112.772107 
L 319.192269 204.878342 
L 319.517248 164.61431 
L 319.842228 167.299116 
L 320.167207 204.260857 
L 320.492187 185.082981 
L 320.817166 173.158366 
L 321.142146 258.124078 
L 321.467125 234.49485 
L 321.792105 236.070369 
L 322.767043 162.323336 
L 323.092023 170.740788 
L 323.417002 154.693928 
L 324.066962 218.065491 
L 324.391941 227.722854 
L 324.716921 134.54845 
L 325.0419 199.585322 
L 325.691859 184.679468 
L 326.016839 209.848016 
L 326.341818 253.11161 
L 326.666798 217.74907 
L 326.991777 165.752729 
L 327.316757 170.685268 
L 327.641736 282.237265 
L 327.966716 187.15694 
L 328.291695 183.238958 
L 328.616675 192.653704 
L 328.941654 53.568 
L 329.266634 187.587959 
L 329.591613 181.520551 
L 329.916593 257.626894 
L 330.241572 184.288472 
L 330.566552 164.176843 
L 330.891532 182.435202 
L 331.216511 163.537122 
L 331.541491 222.372658 
L 331.86647 250.568386 
L 332.19145 211.375294 
L 332.516429 194.098176 
L 332.841409 194.758864 
L 333.166388 226.148178 
L 333.491368 144.231812 
L 333.816347 159.127075 
L 334.141327 185.577316 
L 334.466306 269.282841 
L 334.791286 236.687575 
L 335.116265 254.580188 
L 335.441245 191.187524 
L 335.766224 195.421981 
L 336.091204 195.246151 
L 336.416183 206.772448 
L 336.741163 255.078571 
L 337.066143 223.052783 
L 337.391122 214.952127 
L 337.716102 234.020277 
L 338.041081 187.651362 
L 338.366061 217.15485 
L 338.69104 209.153898 
L 339.01602 126.861817 
L 339.340999 287.519527 
L 339.665979 166.993186 
L 339.990958 272.552303 
L 340.315938 192.410107 
L 340.640917 207.824017 
L 340.965897 210.09057 
L 341.290876 225.848688 
L 341.615856 220.106589 
L 341.940835 233.276036 
L 342.265815 229.097399 
L 342.590794 212.853707 
L 342.915774 271.876923 
L 343.240753 173.210054 
L 343.565733 199.318698 
L 343.890713 257.70938 
L 344.215692 185.001364 
L 344.540672 225.909438 
L 344.865651 180.98093 
L 345.190631 254.654496 
L 345.84059 210.711308 
L 346.165569 158.015579 
L 346.490549 155.635415 
L 346.815528 235.095701 
L 347.140508 204.305922 
L 347.465487 197.920726 
L 347.790467 169.760945 
L 348.115446 191.15487 
L 348.440426 189.050626 
L 348.765405 184.787656 
L 349.090385 113.30653 
L 349.415364 224.950474 
L 349.740344 240.096008 
L 350.065324 216.353896 
L 350.390303 173.64553 
L 350.715283 175.344813 
L 351.040262 198.953319 
L 351.365242 236.21636 
L 352.015201 132.488492 
L 352.34018 154.10603 
L 352.66516 193.854373 
L 352.990139 213.760208 
L 353.640098 103.80268 
L 353.965078 128.038266 
L 354.290057 239.607546 
L 354.615037 185.147368 
L 354.940016 183.267559 
L 355.264996 212.108429 
L 355.589975 171.56474 
L 355.914955 261.083081 
L 356.239934 258.038454 
L 356.564914 192.000896 
L 356.889894 235.601928 
L 357.214873 206.548664 
L 357.539853 268.516385 
L 357.864832 236.843405 
L 358.189812 237.02967 
L 358.514791 224.028722 
L 358.839771 184.886014 
L 359.16475 226.480329 
L 359.48973 244.462469 
L 359.814709 255.808466 
L 360.139689 207.174505 
L 360.464668 240.308376 
L 360.789648 236.050611 
L 361.114627 180.43701 
L 361.439607 266.607867 
L 361.764586 190.40177 
L 362.089566 191.463966 
L 362.414545 150.87331 
L 362.739525 210.132557 
L 363.064505 181.347125 
L 363.389484 166.945156 
L 363.714464 229.764571 
L 364.039443 182.811108 
L 364.364423 169.691069 
L 364.689402 197.615349 
L 365.014382 201.941031 
L 365.339361 213.547486 
L 365.664341 152.276436 
L 365.98932 256.48738 
L 366.3143 267.192732 
L 366.639279 161.889107 
L 366.964259 173.317079 
L 367.289238 243.349662 
L 367.614218 217.502585 
L 367.939197 234.805587 
L 368.589156 213.05928 
L 368.914136 259.068308 
L 369.239115 216.223838 
L 369.564095 248.369619 
L 369.889075 243.764084 
L 370.214054 247.139717 
L 370.539034 114.578443 
L 370.864013 178.636987 
L 371.188993 167.779056 
L 371.513972 205.814352 
L 371.838952 279.861866 
L 372.163931 168.755945 
L 372.81389 277.392571 
L 373.13887 249.417369 
L 373.463849 262.008792 
L 373.788829 234.395588 
L 374.113808 175.438054 
L 374.438788 198.560354 
L 374.763767 276.509411 
L 375.088747 287.986784 
L 375.413726 161.423041 
L 375.738706 229.767071 
L 376.063686 184.027115 
L 376.388665 169.005806 
L 376.713645 203.972959 
L 377.038624 193.363875 
L 377.363604 195.001475 
L 377.688583 199.118334 
L 378.013563 180.330129 
L 378.338542 220.875828 
L 378.663522 176.009593 
L 378.988501 163.136768 
L 379.313481 236.291322 
L 379.63846 191.555339 
L 379.96344 195.236103 
L 380.288419 247.269195 
L 380.613399 197.764335 
L 380.938378 211.431675 
L 381.263358 191.171127 
L 381.588337 156.040861 
L 381.913317 229.872881 
L 382.238296 185.765289 
L 382.563276 170.742468 
L 382.888256 210.790315 
L 383.213235 235.19368 
L 383.538215 284.49513 
L 383.863194 192.693383 
L 384.188174 140.740423 
L 384.513153 219.439841 
L 384.838133 265.149163 
L 385.488092 143.171394 
L 386.138051 246.508698 
L 386.46303 172.635481 
L 386.78801 208.680115 
L 387.112989 209.744752 
L 387.437969 202.72528 
L 387.762948 210.239485 
L 388.087928 205.202846 
L 388.412907 215.855263 
L 388.737887 212.036464 
L 389.062867 244.265126 
L 389.387846 227.699323 
L 389.712826 106.181112 
L 390.362785 239.443438 
L 390.687764 164.181378 
L 391.012744 217.223813 
L 391.337723 232.375275 
L 391.662703 203.716875 
L 392.637641 231.566629 
L 392.962621 226.361014 
L 393.61258 135.415384 
L 393.937559 177.273451 
L 394.262539 233.675239 
L 394.587518 248.306655 
L 394.912498 205.992998 
L 395.562457 273.958775 
L 395.887437 245.845918 
L 396.212416 195.155185 
L 396.537396 243.87151 
L 396.862375 245.600519 
L 397.187355 208.064876 
L 397.512334 155.527132 
L 397.837314 235.147575 
L 398.162293 173.900729 
L 398.487273 204.76461 
L 398.487273 204.76461 
" clip-path="url(#pb452e9293c)" style="fill: none; stroke: #1f77b4; stroke-width: 1.5; stroke-linecap: square"/>
   </g>
   <g id="patch_3">
    <path d="M 57.6 307.584 
L 57.6 41.472 
" style="fill: none; stroke: #000000; stroke-width: 0.8; stroke-linejoin: miter; stroke-linecap: square"/>
   </g>
   <g id="patch_4">
    <path d="M 414.72 307.584 
L 414.72 41.472 
" style="fill: none; stroke: #000000; stroke-width: 0.8; stroke-linejoin: miter; stroke-linecap: square"/>
   </g>
   <g id="patch_5">
    <path d="M 57.6 307.584 
L 414.72 307.584 
" style="fill: none; stroke: #000000; stroke-width: 0.8; stroke-linejoin: miter; stroke-linecap: square"/>
   </g>
   <g id="patch_6">
    <path d="M 57.6 41.472 
L 414.72 41.472 
" style="fill: none; stroke: #000000; stroke-width: 0.8; stroke-linejoin: miter; stroke-linecap: square"/>
   </g>
  </g>
 </g>
 <defs>
  <clipPath id="pb452e9293c">
   <rect x="57.6" y="41.472" width="357.12" height="266.112"/>
  </clipPath>
 </defs>
</svg>
