<?xml version="1.0" encoding="utf-8" standalone="no"?>
<!DOCTYPE svg PUBLIC "-//W3C//DTD SVG 1.1//EN"
  "http://www.w3.org/Graphics/SVG/1.1/DTD/svg11.dtd">
<svg xmlns:xlink="http://www.w3.org/1999/xlink" width="460.8pt" height="345.6pt" viewBox="0 0 460.8 345.6" xmlns="http://www.w3.org/2000/svg" version="1.1">
 <metadata>
  <rdf:RDF xmlns:dc="http://purl.org/dc/elements/1.1/" xmlns:cc="http://creativecommons.org/ns#" xmlns:rdf="http://www.w3.org/1999/02/22-rdf-syntax-ns#">
   <cc:Work>
    <dc:type rdf:resource="http://purl.org/dc/dcmitype/StillImage"/>
    <dc:date>2024-04-17T21:17:31.853220</dc:date>
    <dc:format>image/svg+xml</dc:format>
    <dc:creator>
     <cc:Agent>
      <dc:title>Matplotlib v3.7.2, https://matplotlib.org/</dc:title>
     </cc:Agent>
    </dc:creator>
   </cc:Work>
  </rdf:RDF>
 </metadata>
 <defs>
  <style type="text/css">*{stroke-linejoin: round; stroke-linecap: butt}</style>
 </defs>
 <g id="figure_1">
  <g id="patch_1">
   <path d="M 0 345.6 
L 460.8 345.6 
L 460.8 0 
L 0 0 
z
" style="fill: #ffffff"/>
  </g>
  <g id="axes_1">
   <g id="patch_2">
    <path d="M 57.6 307.584 
L 414.72 307.584 
L 414.72 41.472 
L 57.6 41.472 
z
" style="fill: #ffffff"/>
   </g>
   <g id="matplotlib.axis_1">
    <g id="xtick_1">
     <g id="line2d_1">
      <defs>
       <path id="mb97dae7d62" d="M 0 0 
L 0 3.5 
" style="stroke: #000000; stroke-width: 0.8"/>
      </defs>
      <g>
       <use xlink:href="#mb97dae7d62" x="73.832727" y="307.584" style="stroke: #000000; stroke-width: 0.8"/>
      </g>
     </g>
     <g id="text_1">
      <!-- 0 -->
      <g transform="translate(70.651477 322.182437) scale(0.1 -0.1)">
       <defs>
        <path id="DejaVuSans-30" d="M 2034 4250 
Q 1547 4250 1301 3770 
Q 1056 3291 1056 2328 
Q 1056 1369 1301 889 
Q 1547 409 2034 409 
Q 2525 409 2770 889 
Q 3016 1369 3016 2328 
Q 3016 3291 2770 3770 
Q 2525 4250 2034 4250 
z
M 2034 4750 
Q 2819 4750 3233 4129 
Q 3647 3509 3647 2328 
Q 3647 1150 3233 529 
Q 2819 -91 2034 -91 
Q 1250 -91 836 529 
Q 422 1150 422 2328 
Q 422 3509 836 4129 
Q 1250 4750 2034 4750 
z
" transform="scale(0.015625)"/>
       </defs>
       <use xlink:href="#DejaVuSans-30"/>
      </g>
     </g>
    </g>
    <g id="xtick_2">
     <g id="line2d_2">
      <g>
       <use xlink:href="#mb97dae7d62" x="138.828632" y="307.584" style="stroke: #000000; stroke-width: 0.8"/>
      </g>
     </g>
     <g id="text_2">
      <!-- 200 -->
      <g transform="translate(129.284882 322.182437) scale(0.1 -0.1)">
       <defs>
        <path id="DejaVuSans-32" d="M 1228 531 
L 3431 531 
L 3431 0 
L 469 0 
L 469 531 
Q 828 903 1448 1529 
Q 2069 2156 2228 2338 
Q 2531 2678 2651 2914 
Q 2772 3150 2772 3378 
Q 2772 3750 2511 3984 
Q 2250 4219 1831 4219 
Q 1534 4219 1204 4116 
Q 875 4013 500 3803 
L 500 4441 
Q 881 4594 1212 4672 
Q 1544 4750 1819 4750 
Q 2544 4750 2975 4387 
Q 3406 4025 3406 3419 
Q 3406 3131 3298 2873 
Q 3191 2616 2906 2266 
Q 2828 2175 2409 1742 
Q 1991 1309 1228 531 
z
" transform="scale(0.015625)"/>
       </defs>
       <use xlink:href="#DejaVuSans-32"/>
       <use xlink:href="#DejaVuSans-30" x="63.623047"/>
       <use xlink:href="#DejaVuSans-30" x="127.246094"/>
      </g>
     </g>
    </g>
    <g id="xtick_3">
     <g id="line2d_3">
      <g>
       <use xlink:href="#mb97dae7d62" x="203.824537" y="307.584" style="stroke: #000000; stroke-width: 0.8"/>
      </g>
     </g>
     <g id="text_3">
      <!-- 400 -->
      <g transform="translate(194.280787 322.182437) scale(0.1 -0.1)">
       <defs>
        <path id="DejaVuSans-34" d="M 2419 4116 
L 825 1625 
L 2419 1625 
L 2419 4116 
z
M 2253 4666 
L 3047 4666 
L 3047 1625 
L 3713 1625 
L 3713 1100 
L 3047 1100 
L 3047 0 
L 2419 0 
L 2419 1100 
L 313 1100 
L 313 1709 
L 2253 4666 
z
" transform="scale(0.015625)"/>
       </defs>
       <use xlink:href="#DejaVuSans-34"/>
       <use xlink:href="#DejaVuSans-30" x="63.623047"/>
       <use xlink:href="#DejaVuSans-30" x="127.246094"/>
      </g>
     </g>
    </g>
    <g id="xtick_4">
     <g id="line2d_4">
      <g>
       <use xlink:href="#mb97dae7d62" x="268.820442" y="307.584" style="stroke: #000000; stroke-width: 0.8"/>
      </g>
     </g>
     <g id="text_4">
      <!-- 600 -->
      <g transform="translate(259.276692 322.182437) scale(0.1 -0.1)">
       <defs>
        <path id="DejaVuSans-36" d="M 2113 2584 
Q 1688 2584 1439 2293 
Q 1191 2003 1191 1497 
Q 1191 994 1439 701 
Q 1688 409 2113 409 
Q 2538 409 2786 701 
Q 3034 994 3034 1497 
Q 3034 2003 2786 2293 
Q 2538 2584 2113 2584 
z
M 3366 4563 
L 3366 3988 
Q 3128 4100 2886 4159 
Q 2644 4219 2406 4219 
Q 1781 4219 1451 3797 
Q 1122 3375 1075 2522 
Q 1259 2794 1537 2939 
Q 1816 3084 2150 3084 
Q 2853 3084 3261 2657 
Q 3669 2231 3669 1497 
Q 3669 778 3244 343 
Q 2819 -91 2113 -91 
Q 1303 -91 875 529 
Q 447 1150 447 2328 
Q 447 3434 972 4092 
Q 1497 4750 2381 4750 
Q 2619 4750 2861 4703 
Q 3103 4656 3366 4563 
z
" transform="scale(0.015625)"/>
       </defs>
       <use xlink:href="#DejaVuSans-36"/>
       <use xlink:href="#DejaVuSans-30" x="63.623047"/>
       <use xlink:href="#DejaVuSans-30" x="127.246094"/>
      </g>
     </g>
    </g>
    <g id="xtick_5">
     <g id="line2d_5">
      <g>
       <use xlink:href="#mb97dae7d62" x="333.816347" y="307.584" style="stroke: #000000; stroke-width: 0.8"/>
      </g>
     </g>
     <g id="text_5">
      <!-- 800 -->
      <g transform="translate(324.272597 322.182437) scale(0.1 -0.1)">
       <defs>
        <path id="DejaVuSans-38" d="M 2034 2216 
Q 1584 2216 1326 1975 
Q 1069 1734 1069 1313 
Q 1069 891 1326 650 
Q 1584 409 2034 409 
Q 2484 409 2743 651 
Q 3003 894 3003 1313 
Q 3003 1734 2745 1975 
Q 2488 2216 2034 2216 
z
M 1403 2484 
Q 997 2584 770 2862 
Q 544 3141 544 3541 
Q 544 4100 942 4425 
Q 1341 4750 2034 4750 
Q 2731 4750 3128 4425 
Q 3525 4100 3525 3541 
Q 3525 3141 3298 2862 
Q 3072 2584 2669 2484 
Q 3125 2378 3379 2068 
Q 3634 1759 3634 1313 
Q 3634 634 3220 271 
Q 2806 -91 2034 -91 
Q 1263 -91 848 271 
Q 434 634 434 1313 
Q 434 1759 690 2068 
Q 947 2378 1403 2484 
z
M 1172 3481 
Q 1172 3119 1398 2916 
Q 1625 2713 2034 2713 
Q 2441 2713 2670 2916 
Q 2900 3119 2900 3481 
Q 2900 3844 2670 4047 
Q 2441 4250 2034 4250 
Q 1625 4250 1398 4047 
Q 1172 3844 1172 3481 
z
" transform="scale(0.015625)"/>
       </defs>
       <use xlink:href="#DejaVuSans-38"/>
       <use xlink:href="#DejaVuSans-30" x="63.623047"/>
       <use xlink:href="#DejaVuSans-30" x="127.246094"/>
      </g>
     </g>
    </g>
    <g id="xtick_6">
     <g id="line2d_6">
      <g>
       <use xlink:href="#mb97dae7d62" x="398.812252" y="307.584" style="stroke: #000000; stroke-width: 0.8"/>
      </g>
     </g>
     <g id="text_6">
      <!-- 1000 -->
      <g transform="translate(386.087252 322.182437) scale(0.1 -0.1)">
       <defs>
        <path id="DejaVuSans-31" d="M 794 531 
L 1825 531 
L 1825 4091 
L 703 3866 
L 703 4441 
L 1819 4666 
L 2450 4666 
L 2450 531 
L 3481 531 
L 3481 0 
L 794 0 
L 794 531 
z
" transform="scale(0.015625)"/>
       </defs>
       <use xlink:href="#DejaVuSans-31"/>
       <use xlink:href="#DejaVuSans-30" x="63.623047"/>
       <use xlink:href="#DejaVuSans-30" x="127.246094"/>
       <use xlink:href="#DejaVuSans-30" x="190.869141"/>
      </g>
     </g>
    </g>
   </g>
   <g id="matplotlib.axis_2">
    <g id="ytick_1">
     <g id="line2d_7">
      <defs>
       <path id="m4ae1040676" d="M 0 0 
L -3.5 0 
" style="stroke: #000000; stroke-width: 0.8"/>
      </defs>
      <g>
       <use xlink:href="#m4ae1040676" x="57.6" y="297.273709" style="stroke: #000000; stroke-width: 0.8"/>
      </g>
     </g>
     <g id="text_7">
      <!-- 0 -->
      <g transform="translate(44.2375 301.072928) scale(0.1 -0.1)">
       <use xlink:href="#DejaVuSans-30"/>
      </g>
     </g>
    </g>
    <g id="ytick_2">
     <g id="line2d_8">
      <g>
       <use xlink:href="#m4ae1040676" x="57.6" y="242.231261" style="stroke: #000000; stroke-width: 0.8"/>
      </g>
     </g>
     <g id="text_8">
      <!-- 1000 -->
      <g transform="translate(25.15 246.03048) scale(0.1 -0.1)">
       <use xlink:href="#DejaVuSans-31"/>
       <use xlink:href="#DejaVuSans-30" x="63.623047"/>
       <use xlink:href="#DejaVuSans-30" x="127.246094"/>
       <use xlink:href="#DejaVuSans-30" x="190.869141"/>
      </g>
     </g>
    </g>
    <g id="ytick_3">
     <g id="line2d_9">
      <g>
       <use xlink:href="#m4ae1040676" x="57.6" y="187.188812" style="stroke: #000000; stroke-width: 0.8"/>
      </g>
     </g>
     <g id="text_9">
      <!-- 2000 -->
      <g transform="translate(25.15 190.988031) scale(0.1 -0.1)">
       <use xlink:href="#DejaVuSans-32"/>
       <use xlink:href="#DejaVuSans-30" x="63.623047"/>
       <use xlink:href="#DejaVuSans-30" x="127.246094"/>
       <use xlink:href="#DejaVuSans-30" x="190.869141"/>
      </g>
     </g>
    </g>
    <g id="ytick_4">
     <g id="line2d_10">
      <g>
       <use xlink:href="#m4ae1040676" x="57.6" y="132.146364" style="stroke: #000000; stroke-width: 0.8"/>
      </g>
     </g>
     <g id="text_10">
      <!-- 3000 -->
      <g transform="translate(25.15 135.945583) scale(0.1 -0.1)">
       <defs>
        <path id="DejaVuSans-33" d="M 2597 2516 
Q 3050 2419 3304 2112 
Q 3559 1806 3559 1356 
Q 3559 666 3084 287 
Q 2609 -91 1734 -91 
Q 1441 -91 1130 -33 
Q 819 25 488 141 
L 488 750 
Q 750 597 1062 519 
Q 1375 441 1716 441 
Q 2309 441 2620 675 
Q 2931 909 2931 1356 
Q 2931 1769 2642 2001 
Q 2353 2234 1838 2234 
L 1294 2234 
L 1294 2753 
L 1863 2753 
Q 2328 2753 2575 2939 
Q 2822 3125 2822 3475 
Q 2822 3834 2567 4026 
Q 2313 4219 1838 4219 
Q 1578 4219 1281 4162 
Q 984 4106 628 3988 
L 628 4550 
Q 988 4650 1302 4700 
Q 1616 4750 1894 4750 
Q 2613 4750 3031 4423 
Q 3450 4097 3450 3541 
Q 3450 3153 3228 2886 
Q 3006 2619 2597 2516 
z
" transform="scale(0.015625)"/>
       </defs>
       <use xlink:href="#DejaVuSans-33"/>
       <use xlink:href="#DejaVuSans-30" x="63.623047"/>
       <use xlink:href="#DejaVuSans-30" x="127.246094"/>
       <use xlink:href="#DejaVuSans-30" x="190.869141"/>
      </g>
     </g>
    </g>
    <g id="ytick_5">
     <g id="line2d_11">
      <g>
       <use xlink:href="#m4ae1040676" x="57.6" y="77.103915" style="stroke: #000000; stroke-width: 0.8"/>
      </g>
     </g>
     <g id="text_11">
      <!-- 4000 -->
      <g transform="translate(25.15 80.903134) scale(0.1 -0.1)">
       <use xlink:href="#DejaVuSans-34"/>
       <use xlink:href="#DejaVuSans-30" x="63.623047"/>
       <use xlink:href="#DejaVuSans-30" x="127.246094"/>
       <use xlink:href="#DejaVuSans-30" x="190.869141"/>
      </g>
     </g>
    </g>
   </g>
   <g id="line2d_12">
    <path d="M 73.832727 220.67968 
L 74.157707 174.86459 
L 74.482686 108.047398 
L 74.807666 253.115872 
L 75.132645 236.298736 
L 75.457625 151.865611 
L 75.782604 165.544256 
L 76.107584 149.313455 
L 76.432563 97.794097 
L 76.757543 286.264933 
L 77.082523 290.440899 
L 77.407502 260.445812 
L 77.732482 200.961538 
L 78.057461 193.982176 
L 78.382441 234.171789 
L 78.70742 246.443955 
L 79.0324 230.817432 
L 79.357379 266.118073 
L 79.682359 234.64194 
L 80.007338 230.208578 
L 80.332318 271.797704 
L 80.657297 188.133458 
L 80.982277 185.78433 
L 81.632236 289.748564 
L 81.957215 290.351681 
L 82.282195 184.796497 
L 82.607174 280.760975 
L 82.932154 231.002199 
L 83.257133 240.521518 
L 83.582113 289.978079 
L 83.907093 240.237162 
L 84.232072 280.760975 
L 84.557052 261.965339 
L 84.882031 184.546545 
L 85.207011 266.257907 
L 85.53199 266.07888 
L 85.85697 238.755322 
L 86.181949 237.958683 
L 86.506929 235.676642 
L 86.831908 284.367409 
L 87.156888 235.127188 
L 87.481867 286.107632 
L 87.806847 233.506169 
L 88.131826 251.334191 
L 88.456806 199.9424 
L 88.781785 273.82118 
L 89.431744 222.702981 
L 90.081704 266.704726 
L 90.406683 261.75721 
L 90.731663 186.391864 
L 91.056642 207.153973 
L 91.381622 238.248547 
L 91.706601 249.129518 
L 92.031581 253.928492 
L 92.35656 266.430996 
L 92.68154 222.618264 
L 93.006519 267.360353 
L 93.331499 294.347522 
L 93.656478 238.535458 
L 93.981458 228.794712 
L 94.306437 234.30528 
L 94.631417 212.953101 
L 94.956396 217.830211 
L 95.281376 248.290934 
L 95.606355 173.760762 
L 95.931335 256.502439 
L 96.256314 218.293087 
L 96.581294 266.730137 
L 96.906274 251.384136 
L 97.231253 277.50331 
L 97.556233 277.774493 
L 97.881212 212.165635 
L 98.531171 291.492712 
L 98.856151 235.382569 
L 99.18113 266.388908 
L 99.831089 85.798643 
L 100.156069 159.037673 
L 100.481048 273.483294 
L 100.806028 184.959619 
L 101.131007 160.748661 
L 101.455987 285.5904 
L 101.780966 209.34563 
L 102.105946 217.773136 
L 102.430925 253.885055 
L 102.755905 227.938091 
L 103.080885 262.80134 
L 103.730844 211.484082 
L 104.055823 211.26215 
L 104.380803 211.225549 
L 104.705782 210.499893 
L 105.030762 254.931369 
L 105.355741 217.527424 
L 105.680721 212.086034 
L 106.0057 217.648842 
L 106.33068 204.094667 
L 106.655659 219.831491 
L 106.980639 273.06477 
L 107.305618 274.726725 
L 107.630598 254.570614 
L 107.955577 287.092245 
L 108.280557 211.888598 
L 108.605536 245.801513 
L 108.930516 239.036236 
L 109.255495 240.861818 
L 109.580475 294.032037 
L 109.905455 234.561727 
L 110.230434 229.328973 
L 110.555414 241.789952 
L 110.880393 190.745718 
L 111.205373 237.642633 
L 111.530352 209.029631 
L 112.180311 262.126255 
L 112.505291 236.625985 
L 112.83027 170.216551 
L 113.15525 242.756948 
L 113.480229 228.712297 
L 113.805209 243.319083 
L 114.130188 184.79437 
L 114.455168 254.437121 
L 114.780147 228.92145 
L 115.105127 233.671816 
L 115.430106 250.339872 
L 115.755086 231.717436 
L 116.080066 267.803346 
L 116.405045 156.521082 
L 116.730025 238.971118 
L 117.379984 209.078441 
L 117.704963 170.318589 
L 118.029943 211.189148 
L 118.354922 234.625504 
L 118.679902 239.747573 
L 119.004881 212.990691 
L 119.329861 239.54217 
L 119.65484 229.449133 
L 119.97982 203.620881 
L 120.304799 207.592482 
L 120.629779 239.079867 
L 120.954758 233.393739 
L 121.279738 239.139094 
L 121.604717 184.421449 
L 121.929697 106.746942 
L 122.254676 239.779058 
L 122.579656 272.556799 
L 122.904636 211.950866 
L 123.229615 211.252425 
L 123.554595 281.682397 
L 123.879574 278.421217 
L 124.204554 268.918603 
L 124.529533 284.877601 
L 124.854513 249.220922 
L 125.179492 255.719967 
L 125.504472 267.014656 
L 126.154431 239.767303 
L 126.47941 242.654823 
L 126.80439 233.284272 
L 127.129369 264.742476 
L 127.454349 194.537925 
L 127.779328 222.785979 
L 128.104308 264.988645 
L 128.429287 237.469729 
L 128.754267 181.605254 
L 129.079247 270.548302 
L 129.404226 254.250816 
L 129.729206 164.748705 
L 130.054185 232.958417 
L 130.379165 249.848927 
L 130.704144 233.270782 
L 131.029124 249.251652 
L 131.354103 257.377354 
L 131.679083 236.070597 
L 132.004062 240.126904 
L 132.329042 250.250208 
L 132.654021 212.559015 
L 132.979001 285.711938 
L 133.30398 266.862782 
L 133.62896 265.184599 
L 133.953939 252.801698 
L 134.278919 270.509184 
L 134.603898 228.671153 
L 134.928878 248.768543 
L 135.253857 224.325787 
L 135.578837 288.256468 
L 135.903817 272.606884 
L 136.228796 267.188519 
L 136.553776 266.735198 
L 136.878755 237.477084 
L 137.203735 244.158124 
L 137.528714 293.688897 
L 137.853694 212.730521 
L 138.178673 241.753462 
L 138.503653 210.151341 
L 139.153612 286.345621 
L 139.478591 274.909117 
L 139.803571 208.926891 
L 140.12855 245.796055 
L 140.45353 269.473265 
L 140.778509 229.526943 
L 141.103489 248.251893 
L 141.428468 233.172521 
L 141.753448 248.272648 
L 142.078428 281.657843 
L 142.403407 266.180298 
L 142.728387 183.684083 
L 143.053366 233.957024 
L 143.378346 254.28886 
L 143.703325 238.611341 
L 144.028305 238.295505 
L 144.353284 239.132973 
L 144.678264 246.363018 
L 145.003243 225.00691 
L 145.328223 276.44096 
L 145.653202 265.424882 
L 145.978182 212.708349 
L 146.303161 203.911647 
L 146.628141 185.693746 
L 146.95312 287.727003 
L 147.2781 267.392696 
L 147.603079 262.544513 
L 147.928059 223.12207 
L 148.253038 239.735432 
L 148.578018 263.79722 
L 148.902998 267.088683 
L 149.227977 252.239049 
L 149.552957 242.495351 
L 149.877936 260.680582 
L 150.202916 237.424705 
L 150.527895 239.277219 
L 150.852875 294.678796 
L 151.177854 238.390333 
L 151.502834 119.953129 
L 151.827813 154.782408 
L 152.477772 266.470502 
L 152.802752 251.588477 
L 153.127731 266.040483 
L 153.452711 261.685284 
L 153.77769 239.638324 
L 154.10267 267.520405 
L 154.427649 241.394293 
L 154.752629 244.494849 
L 155.077609 267.712155 
L 155.402588 217.575356 
L 155.727568 257.440368 
L 156.052547 266.877449 
L 156.702506 213.508641 
L 157.027486 231.548657 
L 157.352465 291.678033 
L 157.677445 236.916879 
L 158.002424 233.01903 
L 158.327404 213.069968 
L 158.652383 278.638538 
L 158.977363 253.469969 
L 159.302342 211.91021 
L 159.627322 228.108919 
L 159.952301 265.879109 
L 160.60226 210.116747 
L 160.92724 233.73749 
L 161.252219 212.722342 
L 161.577199 227.524385 
L 161.902179 248.463888 
L 162.227158 287.135931 
L 162.552138 251.748788 
L 162.877117 172.327001 
L 163.202097 185.143132 
L 163.527076 220.158158 
L 163.852056 238.935579 
L 164.177035 164.94937 
L 164.502015 262.176024 
L 164.826994 250.038735 
L 165.151974 212.292511 
L 165.476953 278.691706 
L 165.801933 251.487117 
L 166.126912 239.338819 
L 166.451892 212.236221 
L 166.776871 242.280386 
L 167.101851 244.213992 
L 167.42683 289.86893 
L 167.75181 239.402657 
L 168.07679 224.49717 
L 168.401769 223.317968 
L 168.726749 122.067992 
L 169.376708 237.247982 
L 169.701687 236.596777 
L 170.026667 240.014186 
L 170.351646 137.376315 
L 170.676626 118.430128 
L 171.001605 212.687864 
L 171.326585 260.227845 
L 171.651564 86.145493 
L 171.976544 196.687103 
L 172.301523 220.092854 
L 172.626503 227.895477 
L 172.951482 294.582648 
L 173.276462 109.873784 
L 173.601441 233.295519 
L 173.926421 231.266686 
L 174.2514 291.921463 
L 174.57638 202.9241 
L 174.90136 291.849167 
L 175.226339 293.837147 
L 175.876298 206.554425 
L 176.201278 194.548855 
L 176.526257 240.702447 
L 176.851237 169.529717 
L 177.176216 292.844958 
L 177.501196 116.149986 
L 177.826175 277.594868 
L 178.151155 89.297736 
L 178.801114 250.185515 
L 179.126093 69.782169 
L 179.451073 69.855651 
L 179.776052 137.558936 
L 180.101032 69.792352 
L 180.426011 221.057583 
L 180.750991 69.91317 
L 181.075971 294.912788 
L 181.40095 124.803124 
L 181.72593 136.038152 
L 182.050909 69.571081 
L 182.375889 70.183428 
L 182.700868 282.110716 
L 183.025848 158.558481 
L 183.350827 147.362478 
L 183.675807 239.465356 
L 184.000786 211.901523 
L 184.325766 209.815488 
L 184.650745 239.129787 
L 184.975725 147.570873 
L 185.300704 112.927582 
L 185.625684 115.669171 
L 185.950663 256.438527 
L 186.275643 69.998486 
L 186.925602 289.025289 
L 187.250581 233.438958 
L 187.575561 109.340571 
L 187.900541 238.326368 
L 188.22552 183.184162 
L 188.5505 65.274516 
L 188.875479 253.811892 
L 189.200459 284.768379 
L 189.525438 289.179631 
L 189.850418 99.171746 
L 190.175397 184.603082 
L 190.500377 100.228402 
L 190.825356 266.948179 
L 191.150336 166.327905 
L 191.475315 117.488058 
L 191.800295 183.445164 
L 192.125274 97.110453 
L 192.450254 241.604832 
L 192.775233 82.331237 
L 193.100213 116.589409 
L 193.425192 251.960296 
L 193.750172 141.224515 
L 194.075152 266.751679 
L 194.400131 168.078887 
L 194.725111 133.614987 
L 195.05009 114.769169 
L 195.37507 73.93786 
L 195.700049 188.284978 
L 196.025029 116.753646 
L 196.350008 233.954298 
L 196.674988 287.336398 
L 196.999967 227.961914 
L 197.324947 138.514193 
L 197.649926 232.809987 
L 197.974906 243.762614 
L 198.299885 236.02992 
L 198.624865 140.741412 
L 198.949844 240.458552 
L 199.274824 262.956819 
L 199.599803 265.587405 
L 199.924783 241.379561 
L 200.249762 292.792467 
L 200.574742 118.607788 
L 200.899722 238.850516 
L 201.224701 202.989734 
L 201.549681 195.855263 
L 201.87466 204.907383 
L 202.19964 240.006084 
L 202.524619 136.651764 
L 202.849599 163.648968 
L 203.174578 237.692101 
L 203.499558 174.869439 
L 203.824537 142.491357 
L 204.149517 168.310999 
L 204.474496 239.923981 
L 204.799476 223.834598 
L 205.449435 289.082614 
L 205.774414 217.443219 
L 206.099394 245.800329 
L 206.424373 210.141021 
L 206.749353 189.890227 
L 207.074333 239.54874 
L 207.399312 266.876297 
L 207.724292 206.335742 
L 208.049271 211.643139 
L 208.374251 237.944697 
L 208.69923 165.599619 
L 209.349189 266.835918 
L 209.674169 143.297515 
L 210.324128 267.243393 
L 210.649107 288.031399 
L 210.974087 196.792743 
L 211.624046 260.625301 
L 211.949025 279.415527 
L 212.274005 180.453455 
L 212.598984 182.178506 
L 212.923964 276.716448 
L 213.248943 252.476656 
L 213.573923 254.15287 
L 213.898903 240.225721 
L 214.223882 260.155358 
L 214.548862 163.694441 
L 214.873841 285.6675 
L 215.198821 257.677575 
L 215.5238 264.352842 
L 215.84878 264.950853 
L 216.173759 267.201301 
L 216.498739 161.67296 
L 216.823718 286.26522 
L 217.148698 240.095976 
L 217.473677 210.573975 
L 217.798657 272.602719 
L 218.123636 267.819061 
L 218.448616 256.654464 
L 218.773595 251.504353 
L 219.098575 157.176917 
L 219.748534 294.787658 
L 220.073514 293.847937 
L 220.398493 207.490938 
L 220.723473 266.753071 
L 221.048452 203.353037 
L 221.373432 258.536228 
L 221.698411 239.322092 
L 222.023391 267.125391 
L 222.34837 225.663054 
L 222.67335 275.761026 
L 222.998329 252.123162 
L 223.323309 289.871654 
L 223.648288 285.163749 
L 223.973268 228.742562 
L 224.298247 238.062914 
L 224.623227 240.224306 
L 224.948206 261.737418 
L 225.273186 219.070193 
L 225.598165 213.665972 
L 225.923145 190.703764 
L 226.248124 233.842425 
L 226.573104 184.982523 
L 227.223063 237.264936 
L 227.873022 232.093909 
L 228.198002 205.33835 
L 228.522981 245.320473 
L 228.847961 266.3737 
L 229.17294 266.828874 
L 229.49792 267.841663 
L 229.822899 285.163838 
L 230.147879 243.595862 
L 230.472858 239.670121 
L 230.797838 211.127245 
L 231.447797 274.27219 
L 231.772776 211.575825 
L 232.097756 212.86708 
L 232.422735 148.385456 
L 232.747715 184.792742 
L 233.397674 290.042453 
L 233.722654 288.511924 
L 234.047633 267.513802 
L 234.372613 266.904845 
L 234.697592 211.90052 
L 235.022572 242.737852 
L 235.347551 137.626121 
L 235.672531 267.479594 
L 235.99751 190.786325 
L 236.32249 190.668312 
L 236.647469 262.05133 
L 236.972449 270.041598 
L 237.297428 239.397905 
L 237.622408 183.08893 
L 237.947387 261.159304 
L 238.272367 248.460831 
L 238.597346 211.893113 
L 238.922326 200.442126 
L 239.247305 236.51609 
L 239.572285 181.391842 
L 239.897265 173.204603 
L 240.222244 171.281075 
L 240.547224 161.408453 
L 240.872203 289.408087 
L 241.522162 211.668233 
L 241.847142 239.404041 
L 242.172121 253.458242 
L 242.497101 158.111014 
L 242.82208 285.163851 
L 243.472039 146.002699 
L 244.121998 285.475715 
L 244.446978 229.249493 
L 244.771957 229.869818 
L 245.096937 250.5534 
L 245.421916 207.593695 
L 245.746896 208.547921 
L 246.071876 287.814514 
L 246.396855 265.954826 
L 246.721835 224.263345 
L 247.371794 204.708658 
L 247.696773 169.789541 
L 248.346732 266.790136 
L 248.671712 234.665889 
L 248.996691 247.892741 
L 249.321671 180.046578 
L 249.64665 144.516528 
L 249.97163 230.973441 
L 250.296609 238.126934 
L 250.621589 110.580796 
L 250.946568 247.385692 
L 251.271548 209.80571 
L 251.596527 295.488 
L 251.921507 162.303439 
L 252.246486 278.838868 
L 252.571466 292.523435 
L 252.896446 144.285402 
L 253.221425 186.11589 
L 253.546405 285.006707 
L 254.196364 240.192771 
L 254.521343 232.911824 
L 254.846323 267.826374 
L 255.496282 198.570996 
L 255.821261 210.136779 
L 256.146241 244.478586 
L 256.47122 140.278465 
L 256.7962 205.096725 
L 257.121179 236.717211 
L 257.446159 290.399809 
L 258.096118 239.892066 
L 258.421097 284.211328 
L 258.746077 289.801714 
L 259.396036 144.753655 
L 259.721016 231.609934 
L 260.045995 211.57268 
L 260.370975 107.785408 
L 260.695954 127.269522 
L 261.345913 286.995685 
L 261.670893 225.59294 
L 261.995872 239.885363 
L 262.320852 167.481769 
L 262.645831 253.700284 
L 262.970811 275.355927 
L 263.945749 197.392057 
L 264.270729 195.259602 
L 264.595708 174.832164 
L 264.920688 237.664833 
L 265.245667 97.478403 
L 265.895627 246.417803 
L 266.220606 238.010782 
L 266.545586 265.556401 
L 266.870565 266.95413 
L 267.195545 90.311917 
L 267.845504 225.206136 
L 268.170483 199.856757 
L 268.495463 212.083072 
L 268.820442 84.585954 
L 269.145422 209.346029 
L 269.470401 139.725459 
L 269.795381 120.910827 
L 270.12036 178.080676 
L 270.44534 53.568 
L 270.770319 291.849931 
L 271.095299 237.513114 
L 271.745258 282.01651 
L 272.070238 145.060957 
L 272.395217 284.312093 
L 272.720197 158.235354 
L 273.045176 285.298553 
L 273.370156 286.637002 
L 273.695135 294.692271 
L 274.020115 267.255423 
L 274.345094 294.502491 
L 274.670074 229.863469 
L 274.995053 239.285083 
L 275.320033 267.038986 
L 275.645012 242.831224 
L 275.969992 122.534737 
L 276.294971 210.020494 
L 276.94493 292.205268 
L 277.26991 122.714147 
L 277.594889 172.308961 
L 277.919869 186.426218 
L 278.569828 285.989605 
L 278.894808 281.999427 
L 279.219787 262.264833 
L 279.544767 198.115537 
L 279.869746 224.329432 
L 280.194726 294.135992 
L 280.519705 265.744854 
L 280.844685 285.163692 
L 281.169664 151.599651 
L 281.819623 256.408471 
L 282.144603 238.842318 
L 282.469582 187.538544 
L 282.794562 270.119231 
L 283.444521 168.509295 
L 283.7695 239.833882 
L 284.09448 236.892379 
L 284.419459 235.917287 
L 285.069419 134.216921 
L 285.394398 204.773846 
L 285.719378 157.266195 
L 286.044357 198.257043 
L 286.369337 135.124347 
L 286.694316 246.017578 
L 287.019296 284.95989 
L 287.344275 285.604481 
L 287.669255 225.247147 
L 287.994234 237.03351 
L 288.319214 135.647496 
L 288.644193 265.363329 
L 288.969173 153.618187 
L 289.294152 159.151141 
L 289.619132 255.877621 
L 289.944111 254.764602 
L 290.269091 291.70217 
L 290.59407 176.622386 
L 291.244029 237.59566 
L 291.569009 262.221275 
L 291.893989 140.599047 
L 292.218968 286.26522 
L 292.543948 177.061312 
L 292.868927 118.58823 
L 293.518886 145.344945 
L 293.843866 187.791549 
L 294.168845 264.097041 
L 294.493825 92.86908 
L 294.818804 125.162792 
L 295.143784 295.131974 
L 295.468763 125.25652 
L 295.793743 193.262825 
L 296.118722 289.865409 
L 296.443702 254.711427 
L 296.768681 254.318582 
L 297.093661 192.632215 
L 297.41864 265.2504 
L 297.74362 158.979348 
L 298.0686 158.835028 
L 298.393579 216.312813 
L 298.718559 192.888804 
L 299.043538 158.061021 
L 299.368518 212.105771 
L 299.693497 139.248514 
L 300.018477 274.404231 
L 300.343456 130.160417 
L 300.668436 239.393215 
L 300.993415 253.128376 
L 301.318395 262.137331 
L 301.643374 292.370091 
L 301.968354 157.404726 
L 302.293333 236.767192 
L 302.618313 145.649324 
L 302.943292 98.533058 
L 303.268272 278.929451 
L 303.593251 184.821073 
L 303.918231 253.443898 
L 304.24321 201.773071 
L 304.56819 254.646126 
L 304.89317 106.642144 
L 305.218149 245.449547 
L 305.543129 167.097901 
L 305.868108 202.259174 
L 306.193088 292.321107 
L 306.518067 115.923597 
L 306.843047 260.30096 
L 307.168026 226.999892 
L 307.493006 233.476296 
L 308.142965 290.912908 
L 308.467944 117.773529 
L 308.792924 132.753086 
L 309.117903 118.840884 
L 309.442883 185.461242 
L 309.767862 143.636942 
L 310.092842 278.811044 
L 310.742801 153.432717 
L 311.067781 258.741966 
L 311.39276 245.90025 
L 311.71774 274.776209 
L 312.042719 163.624998 
L 312.367699 153.422491 
L 312.692678 275.08469 
L 313.017658 160.592404 
L 313.342637 152.138327 
L 313.667617 195.624411 
L 313.992596 272.316578 
L 314.317576 207.780454 
L 314.642555 239.601459 
L 314.967535 225.948234 
L 315.292514 280.696722 
L 315.617494 129.396167 
L 315.942473 265.236375 
L 316.267453 152.182808 
L 316.592432 133.178117 
L 316.917412 283.931252 
L 317.242391 192.880283 
L 317.567371 175.671289 
L 317.892351 167.316096 
L 318.21733 162.677618 
L 318.54231 266.95864 
L 318.867289 246.199888 
L 319.192269 115.530605 
L 319.517248 247.646895 
L 319.842228 259.728065 
L 320.167207 146.443043 
L 320.492187 173.497078 
L 320.817166 172.352187 
L 321.142146 180.478519 
L 321.467125 265.943048 
L 321.792105 173.576095 
L 322.117084 266.949083 
L 322.442064 146.531897 
L 322.767043 138.605308 
L 323.092023 124.452467 
L 323.417002 267.423558 
L 323.741982 200.804466 
L 324.066962 159.908866 
L 324.391941 265.825081 
L 324.716921 158.655406 
L 325.0419 181.38474 
L 325.36688 239.834229 
L 325.691859 262.314315 
L 326.016839 144.534043 
L 326.341818 107.868751 
L 326.666798 154.943727 
L 326.991777 285.512729 
L 327.316757 266.73567 
L 327.641736 284.015531 
L 327.966716 229.026496 
L 328.291695 255.239875 
L 328.616675 234.818637 
L 328.941654 206.139489 
L 329.266634 161.917392 
L 329.591613 260.286122 
L 329.916593 264.48473 
L 330.241572 211.614206 
L 330.566552 185.518549 
L 330.891532 294.626379 
L 331.216511 247.256794 
L 331.541491 294.270903 
L 331.86647 167.70681 
L 332.19145 153.536269 
L 332.516429 164.517704 
L 332.841409 210.6665 
L 333.166388 289.30047 
L 333.491368 277.228872 
L 333.816347 243.352362 
L 334.141327 182.172497 
L 334.466306 294.131688 
L 334.791286 291.978917 
L 335.116265 265.854588 
L 335.441245 183.43952 
L 335.766224 253.140476 
L 336.091204 239.592195 
L 336.416183 255.903129 
L 336.741163 293.664906 
L 337.066143 186.176648 
L 337.391122 198.5952 
L 337.716102 294.547546 
L 338.041081 281.565835 
L 338.366061 232.639869 
L 338.69104 267.895903 
L 339.01602 252.216353 
L 339.340999 266.829202 
L 339.665979 158.626121 
L 340.315938 294.768254 
L 340.640917 285.134553 
L 340.965897 266.641022 
L 341.290876 124.249214 
L 341.615856 294.974375 
L 341.940835 293.900201 
L 342.265815 261.869314 
L 342.590794 280.801318 
L 342.915774 288.808846 
L 343.240753 134.375288 
L 343.565733 254.625486 
L 343.890713 280.760975 
L 344.215692 219.214945 
L 344.540672 273.267496 
L 344.865651 195.816121 
L 345.190631 266.860634 
L 345.51561 141.045174 
L 345.84059 210.541926 
L 346.165569 190.482445 
L 346.490549 277.637459 
L 346.815528 279.815711 
L 347.140508 264.764853 
L 347.465487 173.042406 
L 347.790467 193.563437 
L 348.115446 239.62556 
L 348.440426 253.130173 
L 348.765405 291.515299 
L 349.090385 77.356451 
L 349.415364 283.790198 
L 350.065324 203.646295 
L 350.390303 182.932952 
L 350.715283 243.223506 
L 351.040262 234.719184 
L 351.365242 253.022167 
L 351.690221 157.432497 
L 352.015201 295.331742 
L 352.34018 155.21474 
L 352.66516 175.665338 
L 352.990139 168.605235 
L 353.315119 250.012595 
L 353.640098 292.630659 
L 353.965078 128.839214 
L 354.290057 286.26522 
L 354.615037 238.433545 
L 354.940016 136.035767 
L 355.264996 134.170862 
L 355.589975 220.816471 
L 355.914955 248.654631 
L 356.239934 287.12026 
L 356.564914 294.71982 
L 356.889894 184.012047 
L 357.214873 285.163728 
L 357.539853 283.257491 
L 357.864832 278.398131 
L 358.189812 260.373426 
L 358.514791 284.486594 
L 358.839771 197.658969 
L 359.16475 259.752608 
L 359.48973 259.790927 
L 359.814709 257.822329 
L 360.139689 263.68948 
L 360.464668 205.490531 
L 360.789648 196.503549 
L 361.114627 233.196401 
L 361.439607 236.266676 
L 361.764586 244.25074 
L 362.414545 89.848529 
L 362.739525 289.479265 
L 363.064505 69.766207 
L 363.389484 227.40401 
L 363.714464 264.817581 
L 364.039443 87.500058 
L 364.364423 70.738256 
L 364.689402 266.291641 
L 365.014382 266.040168 
L 365.339361 240.148509 
L 365.664341 242.793806 
L 365.98932 291.505244 
L 366.3143 197.546462 
L 366.639279 238.587434 
L 366.964259 249.66732 
L 367.614218 202.261967 
L 367.939197 119.865843 
L 368.264177 260.40798 
L 368.589156 202.6743 
L 368.914136 239.15104 
L 369.239115 247.298226 
L 369.564095 279.37856 
L 369.889075 229.898486 
L 370.214054 284.613765 
L 370.539034 199.077885 
L 370.864013 144.663971 
L 371.188993 161.831838 
L 371.513972 196.282341 
L 371.838952 135.370497 
L 372.163931 134.020383 
L 372.488911 284.901763 
L 372.81389 280.197839 
L 373.13887 266.243338 
L 373.463849 200.86789 
L 373.788829 241.712063 
L 374.113808 214.058686 
L 374.438788 231.975226 
L 374.763767 292.752603 
L 375.088747 265.275127 
L 375.413726 115.261284 
L 375.738706 248.914883 
L 376.063686 236.934416 
L 376.388665 143.291758 
L 376.713645 260.365342 
L 377.038624 184.721746 
L 377.363604 205.016629 
L 377.688583 239.178217 
L 378.013563 149.506759 
L 378.338542 173.558326 
L 378.663522 216.822015 
L 378.988501 132.015787 
L 379.313481 243.372052 
L 379.63846 185.35129 
L 379.96344 267.096942 
L 380.288419 261.208404 
L 380.613399 264.401226 
L 380.938378 238.176811 
L 381.263358 225.29585 
L 381.588337 242.257499 
L 381.913317 290.193194 
L 382.563276 179.537944 
L 382.888256 130.068211 
L 383.213235 199.144673 
L 383.538215 225.262871 
L 383.863194 236.772474 
L 384.188174 289.55142 
L 384.513153 294.435092 
L 384.838133 257.868151 
L 385.163112 191.086781 
L 385.488092 239.764145 
L 386.138051 284.872262 
L 386.46303 151.148282 
L 386.78801 230.699766 
L 387.112989 238.060702 
L 387.437969 90.174765 
L 387.762948 256.644486 
L 388.087928 165.588281 
L 388.412907 128.618291 
L 389.062867 277.322779 
L 389.387846 219.258876 
L 389.712826 212.490849 
L 390.037805 285.343936 
L 390.362785 224.057471 
L 390.687764 141.180271 
L 391.012744 144.233754 
L 391.337723 290.232615 
L 391.662703 185.114276 
L 391.987682 251.545568 
L 392.312662 266.643166 
L 392.637641 287.640489 
L 392.962621 253.492561 
L 393.2876 132.920081 
L 393.61258 250.588454 
L 393.937559 288.495071 
L 394.262539 294.670256 
L 394.587518 194.729989 
L 394.912498 231.699295 
L 395.237477 185.931122 
L 395.562457 228.083004 
L 395.887437 246.716436 
L 396.212416 82.274603 
L 396.537396 225.181994 
L 396.862375 265.291139 
L 397.187355 227.264995 
L 397.512334 264.777112 
L 397.837314 207.579836 
L 398.162293 275.456995 
L 398.487273 269.7456 
L 398.487273 269.7456 
" clip-path="url(#pd3d66bbbb3)" style="fill: none; stroke: #1f77b4; stroke-width: 1.5; stroke-linecap: square"/>
   </g>
   <g id="patch_3">
    <path d="M 57.6 307.584 
L 57.6 41.472 
" style="fill: none; stroke: #000000; stroke-width: 0.8; stroke-linejoin: miter; stroke-linecap: square"/>
   </g>
   <g id="patch_4">
    <path d="M 414.72 307.584 
L 414.72 41.472 
" style="fill: none; stroke: #000000; stroke-width: 0.8; stroke-linejoin: miter; stroke-linecap: square"/>
   </g>
   <g id="patch_5">
    <path d="M 57.6 307.584 
L 414.72 307.584 
" style="fill: none; stroke: #000000; stroke-width: 0.8; stroke-linejoin: miter; stroke-linecap: square"/>
   </g>
   <g id="patch_6">
    <path d="M 57.6 41.472 
L 414.72 41.472 
" style="fill: none; stroke: #000000; stroke-width: 0.8; stroke-linejoin: miter; stroke-linecap: square"/>
   </g>
  </g>
 </g>
 <defs>
  <clipPath id="pd3d66bbbb3">
   <rect x="57.6" y="41.472" width="357.12" height="266.112"/>
  </clipPath>
 </defs>
</svg>
