<?xml version="1.0" encoding="utf-8" standalone="no"?>
<!DOCTYPE svg PUBLIC "-//W3C//DTD SVG 1.1//EN"
  "http://www.w3.org/Graphics/SVG/1.1/DTD/svg11.dtd">
<svg xmlns:xlink="http://www.w3.org/1999/xlink" width="460.8pt" height="345.6pt" viewBox="0 0 460.8 345.6" xmlns="http://www.w3.org/2000/svg" version="1.1">
 <metadata>
  <rdf:RDF xmlns:dc="http://purl.org/dc/elements/1.1/" xmlns:cc="http://creativecommons.org/ns#" xmlns:rdf="http://www.w3.org/1999/02/22-rdf-syntax-ns#">
   <cc:Work>
    <dc:type rdf:resource="http://purl.org/dc/dcmitype/StillImage"/>
    <dc:date>2024-04-18T00:02:14.495949</dc:date>
    <dc:format>image/svg+xml</dc:format>
    <dc:creator>
     <cc:Agent>
      <dc:title>Matplotlib v3.7.2, https://matplotlib.org/</dc:title>
     </cc:Agent>
    </dc:creator>
   </cc:Work>
  </rdf:RDF>
 </metadata>
 <defs>
  <style type="text/css">*{stroke-linejoin: round; stroke-linecap: butt}</style>
 </defs>
 <g id="figure_1">
  <g id="patch_1">
   <path d="M 0 345.6 
L 460.8 345.6 
L 460.8 0 
L 0 0 
z
" style="fill: #ffffff"/>
  </g>
  <g id="axes_1">
   <g id="patch_2">
    <path d="M 57.6 307.584 
L 414.72 307.584 
L 414.72 41.472 
L 57.6 41.472 
z
" style="fill: #ffffff"/>
   </g>
   <g id="matplotlib.axis_1">
    <g id="xtick_1">
     <g id="line2d_1">
      <defs>
       <path id="m312773199e" d="M 0 0 
L 0 3.5 
" style="stroke: #000000; stroke-width: 0.8"/>
      </defs>
      <g>
       <use xlink:href="#m312773199e" x="73.832727" y="307.584" style="stroke: #000000; stroke-width: 0.8"/>
      </g>
     </g>
     <g id="text_1">
      <!-- 0 -->
      <g transform="translate(70.651477 322.182437) scale(0.1 -0.1)">
       <defs>
        <path id="DejaVuSans-30" d="M 2034 4250 
Q 1547 4250 1301 3770 
Q 1056 3291 1056 2328 
Q 1056 1369 1301 889 
Q 1547 409 2034 409 
Q 2525 409 2770 889 
Q 3016 1369 3016 2328 
Q 3016 3291 2770 3770 
Q 2525 4250 2034 4250 
z
M 2034 4750 
Q 2819 4750 3233 4129 
Q 3647 3509 3647 2328 
Q 3647 1150 3233 529 
Q 2819 -91 2034 -91 
Q 1250 -91 836 529 
Q 422 1150 422 2328 
Q 422 3509 836 4129 
Q 1250 4750 2034 4750 
z
" transform="scale(0.015625)"/>
       </defs>
       <use xlink:href="#DejaVuSans-30"/>
      </g>
     </g>
    </g>
    <g id="xtick_2">
     <g id="line2d_2">
      <g>
       <use xlink:href="#m312773199e" x="114.424693" y="307.584" style="stroke: #000000; stroke-width: 0.8"/>
      </g>
     </g>
     <g id="text_2">
      <!-- 500 -->
      <g transform="translate(104.880943 322.182437) scale(0.1 -0.1)">
       <defs>
        <path id="DejaVuSans-35" d="M 691 4666 
L 3169 4666 
L 3169 4134 
L 1269 4134 
L 1269 2991 
Q 1406 3038 1543 3061 
Q 1681 3084 1819 3084 
Q 2600 3084 3056 2656 
Q 3513 2228 3513 1497 
Q 3513 744 3044 326 
Q 2575 -91 1722 -91 
Q 1428 -91 1123 -41 
Q 819 9 494 109 
L 494 744 
Q 775 591 1075 516 
Q 1375 441 1709 441 
Q 2250 441 2565 725 
Q 2881 1009 2881 1497 
Q 2881 1984 2565 2268 
Q 2250 2553 1709 2553 
Q 1456 2553 1204 2497 
Q 953 2441 691 2322 
L 691 4666 
z
" transform="scale(0.015625)"/>
       </defs>
       <use xlink:href="#DejaVuSans-35"/>
       <use xlink:href="#DejaVuSans-30" x="63.623047"/>
       <use xlink:href="#DejaVuSans-30" x="127.246094"/>
      </g>
     </g>
    </g>
    <g id="xtick_3">
     <g id="line2d_3">
      <g>
       <use xlink:href="#m312773199e" x="155.01666" y="307.584" style="stroke: #000000; stroke-width: 0.8"/>
      </g>
     </g>
     <g id="text_3">
      <!-- 1000 -->
      <g transform="translate(142.29166 322.182437) scale(0.1 -0.1)">
       <defs>
        <path id="DejaVuSans-31" d="M 794 531 
L 1825 531 
L 1825 4091 
L 703 3866 
L 703 4441 
L 1819 4666 
L 2450 4666 
L 2450 531 
L 3481 531 
L 3481 0 
L 794 0 
L 794 531 
z
" transform="scale(0.015625)"/>
       </defs>
       <use xlink:href="#DejaVuSans-31"/>
       <use xlink:href="#DejaVuSans-30" x="63.623047"/>
       <use xlink:href="#DejaVuSans-30" x="127.246094"/>
       <use xlink:href="#DejaVuSans-30" x="190.869141"/>
      </g>
     </g>
    </g>
    <g id="xtick_4">
     <g id="line2d_4">
      <g>
       <use xlink:href="#m312773199e" x="195.608626" y="307.584" style="stroke: #000000; stroke-width: 0.8"/>
      </g>
     </g>
     <g id="text_4">
      <!-- 1500 -->
      <g transform="translate(182.883626 322.182437) scale(0.1 -0.1)">
       <use xlink:href="#DejaVuSans-31"/>
       <use xlink:href="#DejaVuSans-35" x="63.623047"/>
       <use xlink:href="#DejaVuSans-30" x="127.246094"/>
       <use xlink:href="#DejaVuSans-30" x="190.869141"/>
      </g>
     </g>
    </g>
    <g id="xtick_5">
     <g id="line2d_5">
      <g>
       <use xlink:href="#m312773199e" x="236.200592" y="307.584" style="stroke: #000000; stroke-width: 0.8"/>
      </g>
     </g>
     <g id="text_5">
      <!-- 2000 -->
      <g transform="translate(223.475592 322.182437) scale(0.1 -0.1)">
       <defs>
        <path id="DejaVuSans-32" d="M 1228 531 
L 3431 531 
L 3431 0 
L 469 0 
L 469 531 
Q 828 903 1448 1529 
Q 2069 2156 2228 2338 
Q 2531 2678 2651 2914 
Q 2772 3150 2772 3378 
Q 2772 3750 2511 3984 
Q 2250 4219 1831 4219 
Q 1534 4219 1204 4116 
Q 875 4013 500 3803 
L 500 4441 
Q 881 4594 1212 4672 
Q 1544 4750 1819 4750 
Q 2544 4750 2975 4387 
Q 3406 4025 3406 3419 
Q 3406 3131 3298 2873 
Q 3191 2616 2906 2266 
Q 2828 2175 2409 1742 
Q 1991 1309 1228 531 
z
" transform="scale(0.015625)"/>
       </defs>
       <use xlink:href="#DejaVuSans-32"/>
       <use xlink:href="#DejaVuSans-30" x="63.623047"/>
       <use xlink:href="#DejaVuSans-30" x="127.246094"/>
       <use xlink:href="#DejaVuSans-30" x="190.869141"/>
      </g>
     </g>
    </g>
    <g id="xtick_6">
     <g id="line2d_6">
      <g>
       <use xlink:href="#m312773199e" x="276.792558" y="307.584" style="stroke: #000000; stroke-width: 0.8"/>
      </g>
     </g>
     <g id="text_6">
      <!-- 2500 -->
      <g transform="translate(264.067558 322.182437) scale(0.1 -0.1)">
       <use xlink:href="#DejaVuSans-32"/>
       <use xlink:href="#DejaVuSans-35" x="63.623047"/>
       <use xlink:href="#DejaVuSans-30" x="127.246094"/>
       <use xlink:href="#DejaVuSans-30" x="190.869141"/>
      </g>
     </g>
    </g>
    <g id="xtick_7">
     <g id="line2d_7">
      <g>
       <use xlink:href="#m312773199e" x="317.384524" y="307.584" style="stroke: #000000; stroke-width: 0.8"/>
      </g>
     </g>
     <g id="text_7">
      <!-- 3000 -->
      <g transform="translate(304.659524 322.182437) scale(0.1 -0.1)">
       <defs>
        <path id="DejaVuSans-33" d="M 2597 2516 
Q 3050 2419 3304 2112 
Q 3559 1806 3559 1356 
Q 3559 666 3084 287 
Q 2609 -91 1734 -91 
Q 1441 -91 1130 -33 
Q 819 25 488 141 
L 488 750 
Q 750 597 1062 519 
Q 1375 441 1716 441 
Q 2309 441 2620 675 
Q 2931 909 2931 1356 
Q 2931 1769 2642 2001 
Q 2353 2234 1838 2234 
L 1294 2234 
L 1294 2753 
L 1863 2753 
Q 2328 2753 2575 2939 
Q 2822 3125 2822 3475 
Q 2822 3834 2567 4026 
Q 2313 4219 1838 4219 
Q 1578 4219 1281 4162 
Q 984 4106 628 3988 
L 628 4550 
Q 988 4650 1302 4700 
Q 1616 4750 1894 4750 
Q 2613 4750 3031 4423 
Q 3450 4097 3450 3541 
Q 3450 3153 3228 2886 
Q 3006 2619 2597 2516 
z
" transform="scale(0.015625)"/>
       </defs>
       <use xlink:href="#DejaVuSans-33"/>
       <use xlink:href="#DejaVuSans-30" x="63.623047"/>
       <use xlink:href="#DejaVuSans-30" x="127.246094"/>
       <use xlink:href="#DejaVuSans-30" x="190.869141"/>
      </g>
     </g>
    </g>
    <g id="xtick_8">
     <g id="line2d_8">
      <g>
       <use xlink:href="#m312773199e" x="357.97649" y="307.584" style="stroke: #000000; stroke-width: 0.8"/>
      </g>
     </g>
     <g id="text_8">
      <!-- 3500 -->
      <g transform="translate(345.25149 322.182437) scale(0.1 -0.1)">
       <use xlink:href="#DejaVuSans-33"/>
       <use xlink:href="#DejaVuSans-35" x="63.623047"/>
       <use xlink:href="#DejaVuSans-30" x="127.246094"/>
       <use xlink:href="#DejaVuSans-30" x="190.869141"/>
      </g>
     </g>
    </g>
    <g id="xtick_9">
     <g id="line2d_9">
      <g>
       <use xlink:href="#m312773199e" x="398.568457" y="307.584" style="stroke: #000000; stroke-width: 0.8"/>
      </g>
     </g>
     <g id="text_9">
      <!-- 4000 -->
      <g transform="translate(385.843457 322.182437) scale(0.1 -0.1)">
       <defs>
        <path id="DejaVuSans-34" d="M 2419 4116 
L 825 1625 
L 2419 1625 
L 2419 4116 
z
M 2253 4666 
L 3047 4666 
L 3047 1625 
L 3713 1625 
L 3713 1100 
L 3047 1100 
L 3047 0 
L 2419 0 
L 2419 1100 
L 313 1100 
L 313 1709 
L 2253 4666 
z
" transform="scale(0.015625)"/>
       </defs>
       <use xlink:href="#DejaVuSans-34"/>
       <use xlink:href="#DejaVuSans-30" x="63.623047"/>
       <use xlink:href="#DejaVuSans-30" x="127.246094"/>
       <use xlink:href="#DejaVuSans-30" x="190.869141"/>
      </g>
     </g>
    </g>
   </g>
   <g id="matplotlib.axis_2">
    <g id="ytick_1">
     <g id="line2d_10">
      <defs>
       <path id="m7c26b5b0b5" d="M 0 0 
L -3.5 0 
" style="stroke: #000000; stroke-width: 0.8"/>
      </defs>
      <g>
       <use xlink:href="#m7c26b5b0b5" x="57.6" y="297.273709" style="stroke: #000000; stroke-width: 0.8"/>
      </g>
     </g>
     <g id="text_10">
      <!-- 0 -->
      <g transform="translate(44.2375 301.072928) scale(0.1 -0.1)">
       <use xlink:href="#DejaVuSans-30"/>
      </g>
     </g>
    </g>
    <g id="ytick_2">
     <g id="line2d_11">
      <g>
       <use xlink:href="#m7c26b5b0b5" x="57.6" y="242.231261" style="stroke: #000000; stroke-width: 0.8"/>
      </g>
     </g>
     <g id="text_11">
      <!-- 1000 -->
      <g transform="translate(25.15 246.03048) scale(0.1 -0.1)">
       <use xlink:href="#DejaVuSans-31"/>
       <use xlink:href="#DejaVuSans-30" x="63.623047"/>
       <use xlink:href="#DejaVuSans-30" x="127.246094"/>
       <use xlink:href="#DejaVuSans-30" x="190.869141"/>
      </g>
     </g>
    </g>
    <g id="ytick_3">
     <g id="line2d_12">
      <g>
       <use xlink:href="#m7c26b5b0b5" x="57.6" y="187.188812" style="stroke: #000000; stroke-width: 0.8"/>
      </g>
     </g>
     <g id="text_12">
      <!-- 2000 -->
      <g transform="translate(25.15 190.988031) scale(0.1 -0.1)">
       <use xlink:href="#DejaVuSans-32"/>
       <use xlink:href="#DejaVuSans-30" x="63.623047"/>
       <use xlink:href="#DejaVuSans-30" x="127.246094"/>
       <use xlink:href="#DejaVuSans-30" x="190.869141"/>
      </g>
     </g>
    </g>
    <g id="ytick_4">
     <g id="line2d_13">
      <g>
       <use xlink:href="#m7c26b5b0b5" x="57.6" y="132.146364" style="stroke: #000000; stroke-width: 0.8"/>
      </g>
     </g>
     <g id="text_13">
      <!-- 3000 -->
      <g transform="translate(25.15 135.945583) scale(0.1 -0.1)">
       <use xlink:href="#DejaVuSans-33"/>
       <use xlink:href="#DejaVuSans-30" x="63.623047"/>
       <use xlink:href="#DejaVuSans-30" x="127.246094"/>
       <use xlink:href="#DejaVuSans-30" x="190.869141"/>
      </g>
     </g>
    </g>
    <g id="ytick_5">
     <g id="line2d_14">
      <g>
       <use xlink:href="#m7c26b5b0b5" x="57.6" y="77.103915" style="stroke: #000000; stroke-width: 0.8"/>
      </g>
     </g>
     <g id="text_14">
      <!-- 4000 -->
      <g transform="translate(25.15 80.903134) scale(0.1 -0.1)">
       <use xlink:href="#DejaVuSans-34"/>
       <use xlink:href="#DejaVuSans-30" x="63.623047"/>
       <use xlink:href="#DejaVuSans-30" x="127.246094"/>
       <use xlink:href="#DejaVuSans-30" x="190.869141"/>
      </g>
     </g>
    </g>
   </g>
   <g id="line2d_15">
    <path d="M 73.832727 220.67968 
L 73.995095 108.047398 
L 74.076279 253.115872 
L 74.157463 236.298736 
L 74.238647 151.865611 
L 74.319831 165.544256 
L 74.401015 149.313455 
L 74.482199 97.794097 
L 74.644567 290.440899 
L 74.888118 193.982176 
L 75.050486 246.443955 
L 75.13167 230.817432 
L 75.212854 266.118073 
L 75.375222 230.208578 
L 75.456406 271.797704 
L 75.618774 185.78433 
L 75.862326 290.351681 
L 75.94351 184.796497 
L 76.024693 280.760975 
L 76.105877 231.002199 
L 76.187061 240.521518 
L 76.268245 289.978079 
L 76.349429 240.237162 
L 76.430613 280.760975 
L 76.511797 261.965339 
L 76.592981 184.546545 
L 76.674165 266.257907 
L 76.755349 266.07888 
L 76.917717 237.958683 
L 76.998901 235.676642 
L 77.080085 284.367409 
L 77.161268 235.127188 
L 77.242452 286.107632 
L 77.486004 199.9424 
L 77.567188 273.82118 
L 77.648372 249.98411 
L 77.729556 222.702981 
L 77.891924 266.704726 
L 77.973108 261.75721 
L 78.054292 186.391864 
L 78.135476 207.153973 
L 78.297844 249.129518 
L 78.379027 253.928492 
L 78.460211 266.430996 
L 78.541395 222.618264 
L 78.703763 294.347522 
L 78.866131 228.794712 
L 78.947315 234.30528 
L 79.028499 212.953101 
L 79.109683 217.830211 
L 79.190867 248.290934 
L 79.272051 173.760762 
L 79.353235 256.502439 
L 79.434419 218.293087 
L 79.515603 266.730137 
L 79.596786 251.384136 
L 79.759154 277.774493 
L 79.840338 212.165635 
L 80.002706 291.492712 
L 80.08389 235.382569 
L 80.165074 266.388908 
L 80.327442 85.798643 
L 80.48981 273.483294 
L 80.652178 160.748661 
L 80.733362 285.5904 
L 80.814545 209.34563 
L 80.895729 217.773136 
L 80.976913 253.885055 
L 81.058097 227.938091 
L 81.139281 262.80134 
L 81.382833 211.26215 
L 81.464017 211.225549 
L 81.545201 210.499893 
L 81.626385 254.931369 
L 81.788753 212.086034 
L 81.869937 217.648842 
L 81.951121 204.094667 
L 82.032304 219.831491 
L 82.194672 274.726725 
L 82.275856 254.570614 
L 82.35704 287.092245 
L 82.438224 211.888598 
L 82.519408 245.801513 
L 82.600592 239.036236 
L 82.681776 240.861818 
L 82.76296 294.032037 
L 82.925328 229.328973 
L 83.006512 241.789952 
L 83.087696 190.745718 
L 83.168879 237.642633 
L 83.250063 209.029631 
L 83.412431 262.126255 
L 83.493615 236.625985 
L 83.574799 170.216551 
L 83.655983 242.756948 
L 83.737167 228.712297 
L 83.818351 243.319083 
L 83.899535 184.79437 
L 83.980719 254.437121 
L 84.061903 228.92145 
L 84.143087 233.671816 
L 84.224271 250.339872 
L 84.305455 231.717436 
L 84.386638 267.803346 
L 84.467822 156.521082 
L 84.549006 238.971118 
L 84.63019 224.779363 
L 84.711374 209.078441 
L 84.792558 170.318589 
L 85.03611 239.747573 
L 85.117294 212.990691 
L 85.198478 239.54217 
L 85.279662 229.449133 
L 85.360846 203.620881 
L 85.44203 207.592482 
L 85.523214 239.079867 
L 85.604397 233.393739 
L 85.685581 239.139094 
L 85.847949 106.746942 
L 86.010317 272.556799 
L 86.172685 211.252425 
L 86.253869 281.682397 
L 86.335053 278.421217 
L 86.416237 268.918603 
L 86.497421 284.877601 
L 86.578605 249.220922 
L 86.659789 255.719967 
L 86.740973 267.014656 
L 87.065708 233.284272 
L 87.146892 264.742476 
L 87.228076 194.537925 
L 87.390444 264.988645 
L 87.552812 181.605254 
L 87.633996 270.548302 
L 87.71518 254.250816 
L 87.796364 164.748705 
L 87.958732 249.848927 
L 88.039915 233.270782 
L 88.202283 257.377354 
L 88.283467 236.070597 
L 88.364651 240.126904 
L 88.445835 250.250208 
L 88.527019 212.559015 
L 88.608203 285.711938 
L 88.689387 266.862782 
L 88.770571 265.184599 
L 88.851755 252.801698 
L 88.932939 270.509184 
L 89.014123 228.671153 
L 89.095307 248.768543 
L 89.17649 224.325787 
L 89.257674 288.256468 
L 89.338858 272.606884 
L 89.501226 266.735198 
L 89.58241 237.477084 
L 89.663594 244.158124 
L 89.744778 293.688897 
L 89.825962 212.730521 
L 89.907146 241.753462 
L 89.98833 210.151341 
L 90.150698 286.345621 
L 90.231882 274.909117 
L 90.313066 208.926891 
L 90.475433 269.473265 
L 90.556617 229.526943 
L 90.637801 248.251893 
L 90.718985 233.172521 
L 90.881353 281.657843 
L 90.962537 266.180298 
L 91.043721 183.684083 
L 91.206089 254.28886 
L 91.368457 238.295505 
L 91.449641 239.132973 
L 91.530825 246.363018 
L 91.612008 225.00691 
L 91.693192 276.44096 
L 91.774376 265.424882 
L 91.936744 203.911647 
L 92.017928 185.693746 
L 92.099112 287.727003 
L 92.180296 267.392696 
L 92.26148 262.544513 
L 92.342664 223.12207 
L 92.586216 267.088683 
L 92.748584 242.495351 
L 92.829767 260.680582 
L 92.910951 237.424705 
L 92.992135 239.277219 
L 93.073319 294.678796 
L 93.235687 119.953129 
L 93.316871 154.782408 
L 93.479239 266.470502 
L 93.560423 251.588477 
L 93.641607 266.040483 
L 93.722791 261.685284 
L 93.803975 239.638324 
L 93.885159 267.520405 
L 93.966342 241.394293 
L 94.047526 244.494849 
L 94.12871 267.712155 
L 94.209894 217.575356 
L 94.372262 266.877449 
L 94.53463 213.508641 
L 94.615814 231.548657 
L 94.696998 291.678033 
L 94.859366 233.01903 
L 94.94055 213.069968 
L 95.021734 278.638538 
L 95.184101 211.91021 
L 95.265285 228.108919 
L 95.346469 265.879109 
L 95.508837 210.116747 
L 95.590021 233.73749 
L 95.671205 212.722342 
L 95.833573 248.463888 
L 95.914757 287.135931 
L 96.077125 172.327001 
L 96.158309 185.143132 
L 96.320677 238.935579 
L 96.40186 164.94937 
L 96.483044 262.176024 
L 96.564228 250.038735 
L 96.645412 212.292511 
L 96.726596 278.691706 
L 96.970148 212.236221 
L 97.2137 289.86893 
L 97.376068 224.49717 
L 97.457252 223.317968 
L 97.538436 122.067992 
L 97.700803 237.247982 
L 97.781987 236.596777 
L 97.863171 240.014186 
L 98.025539 118.430128 
L 98.187907 260.227845 
L 98.269091 86.145493 
L 98.431459 220.092854 
L 98.512643 227.895477 
L 98.593827 294.582648 
L 98.675011 109.873784 
L 98.756195 233.295519 
L 98.837378 231.266686 
L 98.918562 291.921463 
L 98.999746 202.9241 
L 99.162114 293.837147 
L 99.405666 194.548855 
L 99.48685 240.702447 
L 99.568034 169.529717 
L 99.649218 292.844958 
L 99.730402 116.149986 
L 99.811586 277.594868 
L 99.89277 89.297736 
L 100.055137 250.185515 
L 100.136321 69.782169 
L 100.217505 69.855651 
L 100.298689 137.558936 
L 100.379873 69.792352 
L 100.461057 221.057583 
L 100.542241 69.91317 
L 100.623425 294.912788 
L 100.704609 124.803124 
L 100.785793 136.038152 
L 100.866977 69.571081 
L 100.948161 70.183428 
L 101.029345 282.110716 
L 101.191712 147.362478 
L 101.272896 239.465356 
L 101.35408 211.901523 
L 101.435264 209.815488 
L 101.516448 239.129787 
L 101.678816 112.927582 
L 101.76 115.669171 
L 101.841184 256.438527 
L 101.922368 69.998486 
L 102.084736 289.025289 
L 102.16592 233.438958 
L 102.247104 109.340571 
L 102.328288 238.326368 
L 102.490655 65.274516 
L 102.653023 284.768379 
L 102.734207 289.179631 
L 102.815391 99.171746 
L 102.896575 184.603082 
L 102.977759 100.228402 
L 103.058943 266.948179 
L 103.221311 117.488058 
L 103.302495 183.445164 
L 103.383679 97.110453 
L 103.464863 241.604832 
L 103.546047 82.331237 
L 103.62723 116.589409 
L 103.708414 251.960296 
L 103.789598 141.224515 
L 103.870782 266.751679 
L 104.03315 133.614987 
L 104.195518 73.93786 
L 104.276702 188.284978 
L 104.357886 116.753646 
L 104.520254 287.336398 
L 104.682622 138.514193 
L 104.844989 243.762614 
L 104.926173 236.02992 
L 105.007357 140.741412 
L 105.169725 262.956819 
L 105.250909 265.587405 
L 105.332093 241.379561 
L 105.413277 292.792467 
L 105.494461 118.607788 
L 105.575645 238.850516 
L 105.656829 202.989734 
L 105.738013 195.855263 
L 105.819197 204.907383 
L 105.900381 240.006084 
L 105.981564 136.651764 
L 106.062748 163.648968 
L 106.143932 237.692101 
L 106.3063 142.491357 
L 106.387484 168.310999 
L 106.468668 239.923981 
L 106.549852 223.834598 
L 106.71222 289.082614 
L 106.793404 217.443219 
L 106.874588 245.800329 
L 107.036956 189.890227 
L 107.199323 266.876297 
L 107.280507 206.335742 
L 107.361691 211.643139 
L 107.442875 237.944697 
L 107.524059 165.599619 
L 107.686427 266.835918 
L 107.767611 143.297515 
L 108.011163 288.031399 
L 108.092347 196.792743 
L 108.335899 279.415527 
L 108.417082 180.453455 
L 108.498266 182.178506 
L 108.57945 276.716448 
L 108.660634 252.476656 
L 108.741818 254.15287 
L 108.823002 240.225721 
L 108.904186 260.155358 
L 108.98537 163.694441 
L 109.066554 285.6675 
L 109.147738 257.677575 
L 109.310106 264.950853 
L 109.39129 267.201301 
L 109.472474 161.67296 
L 109.553658 286.26522 
L 109.716025 210.573975 
L 109.797209 272.602719 
L 109.878393 267.819061 
L 110.040761 251.504353 
L 110.121945 157.176917 
L 110.284313 294.787658 
L 110.365497 293.847937 
L 110.446681 207.490938 
L 110.527865 266.753071 
L 110.609049 203.353037 
L 110.690233 258.536228 
L 110.771416 239.322092 
L 110.8526 267.125391 
L 110.933784 225.663054 
L 111.014968 275.761026 
L 111.096152 252.123162 
L 111.177336 289.871654 
L 111.25852 285.163749 
L 111.339704 228.742562 
L 111.420888 238.062914 
L 111.502072 240.224306 
L 111.583256 261.737418 
L 111.826808 190.703764 
L 111.907992 233.842425 
L 111.989175 184.982523 
L 112.151543 237.264936 
L 112.232727 234.371692 
L 112.313911 232.093909 
L 112.395095 205.33835 
L 112.557463 266.3737 
L 112.719831 267.841663 
L 112.801015 285.163838 
L 113.044567 211.127245 
L 113.206934 274.27219 
L 113.450486 148.385456 
L 113.694038 290.042453 
L 113.775222 288.511924 
L 114.018774 211.90052 
L 114.099958 242.737852 
L 114.181142 137.626121 
L 114.262326 267.479594 
L 114.424693 190.668312 
L 114.587061 270.041598 
L 114.749429 183.08893 
L 114.830613 261.159304 
L 114.911797 248.460831 
L 115.074165 200.442126 
L 115.155349 236.51609 
L 115.317717 173.204603 
L 115.398901 171.281075 
L 115.480085 161.408453 
L 115.561268 289.408087 
L 115.642452 255.354414 
L 115.723636 211.668233 
L 115.886004 253.458242 
L 115.967188 158.111014 
L 116.048372 285.163851 
L 116.21074 146.002699 
L 116.373108 285.475715 
L 116.454292 229.249493 
L 116.535476 229.869818 
L 116.61666 250.5534 
L 116.697844 207.593695 
L 116.779027 208.547921 
L 116.860211 287.814514 
L 116.941395 265.954826 
L 117.103763 213.7382 
L 117.184947 204.708658 
L 117.266131 169.789541 
L 117.428499 266.790136 
L 117.509683 234.665889 
L 117.590867 247.892741 
L 117.753235 144.516528 
L 117.915603 238.126934 
L 117.996786 110.580796 
L 118.07797 247.385692 
L 118.159154 209.80571 
L 118.240338 295.488 
L 118.321522 162.303439 
L 118.48389 292.523435 
L 118.565074 144.285402 
L 118.646258 186.11589 
L 118.727442 285.006707 
L 118.808626 263.953152 
L 118.970994 232.911824 
L 119.052178 267.826374 
L 119.214545 198.570996 
L 119.295729 210.136779 
L 119.376913 244.478586 
L 119.458097 140.278465 
L 119.701649 290.399809 
L 119.864017 239.892066 
L 120.026385 289.801714 
L 120.188753 144.753655 
L 120.269937 231.609934 
L 120.351121 211.57268 
L 120.432304 107.785408 
L 120.513488 127.269522 
L 120.675856 286.995685 
L 120.919408 167.481769 
L 121.081776 275.355927 
L 121.487696 174.832164 
L 121.568879 237.664833 
L 121.650063 97.478403 
L 121.812431 246.417803 
L 121.893615 238.010782 
L 122.055983 266.95413 
L 122.137167 90.311917 
L 122.299535 225.206136 
L 122.380719 199.856757 
L 122.461903 212.083072 
L 122.543087 84.585954 
L 122.624271 209.346029 
L 122.786638 120.910827 
L 122.867822 178.080676 
L 122.949006 53.568 
L 123.03019 291.849931 
L 123.111374 237.513114 
L 123.273742 282.01651 
L 123.354926 145.060957 
L 123.43611 284.312093 
L 123.517294 158.235354 
L 123.679662 286.637002 
L 123.760846 294.692271 
L 123.84203 267.255423 
L 123.923214 294.502491 
L 124.004397 229.863469 
L 124.085581 239.285083 
L 124.166765 267.038986 
L 124.247949 242.831224 
L 124.329133 122.534737 
L 124.572685 292.205268 
L 124.653869 122.714147 
L 124.735053 172.308961 
L 124.816237 186.426218 
L 124.978605 285.989605 
L 125.059789 281.999427 
L 125.140973 262.264833 
L 125.222156 198.115537 
L 125.30334 224.329432 
L 125.384524 294.135992 
L 125.465708 265.744854 
L 125.546892 285.163692 
L 125.628076 151.599651 
L 125.790444 256.408471 
L 125.871628 238.842318 
L 125.952812 187.538544 
L 126.033996 270.119231 
L 126.196364 168.509295 
L 126.277548 239.833882 
L 126.358732 236.892379 
L 126.439915 235.917287 
L 126.602283 134.216921 
L 126.683467 204.773846 
L 126.764651 157.266195 
L 126.845835 198.257043 
L 126.927019 135.124347 
L 127.089387 284.95989 
L 127.170571 285.604481 
L 127.414123 135.647496 
L 127.495307 265.363329 
L 127.57649 153.618187 
L 127.657674 159.151141 
L 127.738858 255.877621 
L 127.820042 254.764602 
L 127.901226 291.70217 
L 127.98241 176.622386 
L 128.063594 209.708986 
L 128.225962 262.221275 
L 128.307146 140.599047 
L 128.38833 286.26522 
L 128.550698 118.58823 
L 128.713066 145.344945 
L 128.875433 264.097041 
L 128.956617 92.86908 
L 129.037801 125.162792 
L 129.118985 295.131974 
L 129.200169 125.25652 
L 129.362537 289.865409 
L 129.443721 254.711427 
L 129.524905 254.318582 
L 129.606089 192.632215 
L 129.687273 265.2504 
L 129.849641 158.835028 
L 129.930825 216.312813 
L 130.093192 158.061021 
L 130.174376 212.105771 
L 130.25556 139.248514 
L 130.336744 274.404231 
L 130.417928 130.160417 
L 130.580296 253.128376 
L 130.66148 262.137331 
L 130.742664 292.370091 
L 130.823848 157.404726 
L 130.905032 236.767192 
L 131.0674 98.533058 
L 131.148584 278.929451 
L 131.229767 184.821073 
L 131.310951 253.443898 
L 131.392135 201.773071 
L 131.473319 254.646126 
L 131.554503 106.642144 
L 131.635687 245.449547 
L 131.716871 167.097901 
L 131.798055 202.259174 
L 131.879239 292.321107 
L 131.960423 115.923597 
L 132.041607 260.30096 
L 132.122791 226.999892 
L 132.203975 233.476296 
L 132.366342 290.912908 
L 132.447526 117.773529 
L 132.52871 132.753086 
L 132.609894 118.840884 
L 132.691078 185.461242 
L 132.772262 143.636942 
L 132.853446 278.811044 
L 133.015814 153.432717 
L 133.096998 258.741966 
L 133.178182 245.90025 
L 133.259366 274.776209 
L 133.421734 153.422491 
L 133.502918 275.08469 
L 133.665285 152.138327 
L 133.827653 272.316578 
L 133.908837 207.780454 
L 133.990021 239.601459 
L 134.071205 225.948234 
L 134.152389 280.696722 
L 134.233573 129.396167 
L 134.314757 265.236375 
L 134.477125 133.178117 
L 134.558309 283.931252 
L 134.720677 175.671289 
L 134.883044 162.677618 
L 134.964228 266.95864 
L 135.045412 246.199888 
L 135.126596 115.530605 
L 135.288964 259.728065 
L 135.370148 146.443043 
L 135.451332 173.497078 
L 135.532516 172.352187 
L 135.6137 180.478519 
L 135.694884 265.943048 
L 135.776068 173.576095 
L 135.857252 266.949083 
L 136.019619 138.605308 
L 136.100803 124.452467 
L 136.181987 267.423558 
L 136.344355 159.908866 
L 136.425539 265.825081 
L 136.506723 158.655406 
L 136.587907 181.38474 
L 136.750275 262.314315 
L 136.912643 107.868751 
L 136.993827 154.943727 
L 137.075011 285.512729 
L 137.156195 266.73567 
L 137.237378 284.015531 
L 137.318562 229.026496 
L 137.399746 255.239875 
L 137.562114 206.139489 
L 137.643298 161.917392 
L 137.805666 264.48473 
L 137.968034 185.518549 
L 138.049218 294.626379 
L 138.130402 247.256794 
L 138.211586 294.270903 
L 138.373953 153.536269 
L 138.455137 164.517704 
L 138.617505 289.30047 
L 138.698689 277.228872 
L 138.861057 182.172497 
L 138.942241 294.131688 
L 139.023425 291.978917 
L 139.104609 265.854588 
L 139.185793 183.43952 
L 139.266977 253.140476 
L 139.348161 239.592195 
L 139.510529 293.664906 
L 139.591712 186.176648 
L 139.672896 198.5952 
L 139.75408 294.547546 
L 139.835264 281.565835 
L 139.916448 232.639869 
L 139.997632 267.895903 
L 140.078816 252.216353 
L 140.16 266.829202 
L 140.241184 158.626121 
L 140.403552 294.768254 
L 140.484736 285.134553 
L 140.56592 266.641022 
L 140.647104 124.249214 
L 140.728288 294.974375 
L 140.809471 293.900201 
L 140.890655 261.869314 
L 141.053023 288.808846 
L 141.134207 134.375288 
L 141.296575 280.760975 
L 141.377759 219.214945 
L 141.458943 273.267496 
L 141.540127 195.816121 
L 141.621311 266.860634 
L 141.702495 141.045174 
L 141.946047 277.637459 
L 142.02723 279.815711 
L 142.108414 264.764853 
L 142.189598 173.042406 
L 142.270782 193.563437 
L 142.514334 291.515299 
L 142.595518 77.356451 
L 142.676702 283.790198 
L 142.757886 243.554311 
L 142.920254 182.932952 
L 143.001438 243.223506 
L 143.082622 234.719184 
L 143.163805 253.022167 
L 143.244989 157.432497 
L 143.326173 295.331742 
L 143.407357 155.21474 
L 143.488541 175.665338 
L 143.569725 168.605235 
L 143.732093 292.630659 
L 143.813277 128.839214 
L 143.894461 286.26522 
L 143.975645 238.433545 
L 144.138013 134.170862 
L 144.381564 287.12026 
L 144.462748 294.71982 
L 144.543932 184.012047 
L 144.625116 285.163728 
L 144.7063 283.257491 
L 144.787484 278.398131 
L 144.868668 260.373426 
L 144.949852 284.486594 
L 145.031036 197.658969 
L 145.193404 259.790927 
L 145.274588 257.822329 
L 145.355772 263.68948 
L 145.51814 196.503549 
L 145.680507 236.266676 
L 145.761691 244.25074 
L 145.924059 89.848529 
L 146.005243 289.479265 
L 146.086427 69.766207 
L 146.248795 264.817581 
L 146.411163 70.738256 
L 146.492347 266.291641 
L 146.573531 266.040168 
L 146.654715 240.148509 
L 146.735899 242.793806 
L 146.817082 291.505244 
L 146.898266 197.546462 
L 147.060634 249.66732 
L 147.223002 202.261967 
L 147.304186 119.865843 
L 147.38537 260.40798 
L 147.466554 202.6743 
L 147.710106 279.37856 
L 147.79129 229.898486 
L 147.872474 284.613765 
L 148.034841 144.663971 
L 148.197209 196.282341 
L 148.359577 134.020383 
L 148.440761 284.901763 
L 148.521945 280.197839 
L 148.603129 266.243338 
L 148.684313 200.86789 
L 148.765497 241.712063 
L 148.846681 214.058686 
L 148.927865 231.975226 
L 149.009049 292.752603 
L 149.090233 265.275127 
L 149.171416 115.261284 
L 149.2526 248.914883 
L 149.333784 236.934416 
L 149.414968 143.291758 
L 149.496152 260.365342 
L 149.577336 184.721746 
L 149.65852 205.016629 
L 149.739704 239.178217 
L 149.820888 149.506759 
L 149.902072 173.558326 
L 149.983256 216.822015 
L 150.06444 132.015787 
L 150.145624 243.372052 
L 150.226808 185.35129 
L 150.307992 267.096942 
L 150.389175 261.208404 
L 150.470359 264.401226 
L 150.632727 225.29585 
L 150.713911 242.257499 
L 150.795095 290.193194 
L 151.038647 130.068211 
L 151.201015 225.262871 
L 151.282199 236.772474 
L 151.444567 294.435092 
L 151.606934 191.086781 
L 151.850486 284.872262 
L 151.93167 151.148282 
L 152.094038 238.060702 
L 152.175222 90.174765 
L 152.256406 256.644486 
L 152.418774 128.618291 
L 152.581142 277.322779 
L 152.74351 212.490849 
L 152.824693 285.343936 
L 152.987061 141.180271 
L 153.068245 144.233754 
L 153.149429 290.232615 
L 153.230613 185.114276 
L 153.392981 266.643166 
L 153.474165 287.640489 
L 153.555349 253.492561 
L 153.636533 132.920081 
L 153.798901 288.495071 
L 153.880085 294.670256 
L 153.961268 194.729989 
L 154.042452 231.699295 
L 154.123636 185.931122 
L 154.286004 246.716436 
L 154.367188 82.274603 
L 154.529556 265.291139 
L 154.61074 227.264995 
L 154.691924 264.777112 
L 154.773108 207.579836 
L 154.854292 275.456995 
L 154.935476 269.7456 
L 155.01666 245.645693 
L 155.097844 125.63562 
L 155.260211 290.803073 
L 155.422579 124.71837 
L 155.503763 288.038977 
L 155.584947 171.876955 
L 155.666131 244.539191 
L 155.747315 150.949673 
L 155.828499 252.084279 
L 155.909683 234.174823 
L 156.153235 73.604113 
L 156.234419 87.519598 
L 156.396786 264.50548 
L 156.47797 226.494078 
L 156.559154 274.150406 
L 156.640338 146.937572 
L 156.802706 232.729042 
L 156.965074 172.092138 
L 157.046258 199.102539 
L 157.127442 93.098842 
L 157.28981 234.08978 
L 157.370994 160.996094 
L 157.452178 195.618942 
L 157.614545 106.639988 
L 157.776913 266.87024 
L 157.939281 114.838722 
L 158.020465 127.461005 
L 158.101649 267.092458 
L 158.182833 224.256914 
L 158.264017 239.35384 
L 158.345201 135.391639 
L 158.426385 271.349737 
L 158.507569 229.735266 
L 158.588753 232.173892 
L 158.669937 106.871102 
L 158.832304 159.847154 
L 158.913488 160.503551 
L 158.994672 104.71638 
L 159.238224 254.271485 
L 159.319408 244.898004 
L 159.400592 292.20824 
L 159.644144 97.890421 
L 159.725328 184.704893 
L 159.806512 150.686587 
L 159.887696 267.397106 
L 159.968879 254.195515 
L 160.131247 77.149502 
L 160.212431 267.01237 
L 160.293615 266.94583 
L 160.374799 264.355009 
L 160.455983 107.934074 
L 160.537167 294.329585 
L 160.618351 167.842642 
L 160.699535 213.294539 
L 160.780719 277.584914 
L 160.861903 125.21348 
L 160.943087 267.476636 
L 161.024271 236.947195 
L 161.105455 152.43759 
L 161.267822 261.17899 
L 161.349006 170.214697 
L 161.43019 257.04861 
L 161.592558 185.788685 
L 161.673742 258.402249 
L 161.83611 158.276691 
L 162.160846 294.470173 
L 162.323214 121.685291 
L 162.404397 239.285675 
L 162.485581 211.228389 
L 162.566765 267.082772 
L 162.729133 121.026154 
L 162.891501 265.699971 
L 162.972685 208.304059 
L 163.135053 266.419871 
L 163.297421 69.707862 
L 163.378605 112.812702 
L 163.540973 252.378755 
L 163.622156 251.529856 
L 163.70334 291.728063 
L 163.784524 130.960878 
L 163.865708 237.371295 
L 163.946892 100.191565 
L 164.028076 110.045372 
L 164.190444 204.793909 
L 164.271628 190.239433 
L 164.433996 232.714249 
L 164.596364 105.522642 
L 164.677548 289.958866 
L 164.758732 183.659339 
L 164.839915 193.509211 
L 164.921099 203.752874 
L 165.002283 144.417159 
L 165.083467 203.42595 
L 165.164651 161.564697 
L 165.327019 236.726647 
L 165.408203 132.966605 
L 165.651755 239.650462 
L 165.732939 238.857031 
L 165.895307 111.173549 
L 165.97649 137.315269 
L 166.057674 280.739131 
L 166.138858 239.669436 
L 166.220042 171.847208 
L 166.301226 237.531831 
L 166.38241 69.97812 
L 166.463594 229.956292 
L 166.544778 221.209449 
L 166.625962 110.469838 
L 166.707146 242.233991 
L 166.78833 97.499344 
L 166.869514 107.94297 
L 166.950698 189.383667 
L 167.113066 132.820252 
L 167.356617 291.910855 
L 167.437801 148.372208 
L 167.518985 239.682053 
L 167.600169 167.669768 
L 167.681353 222.780599 
L 167.762537 68.288112 
L 167.843721 215.117959 
L 167.924905 187.683519 
L 168.006089 257.304915 
L 168.168457 90.454796 
L 168.249641 289.404447 
L 168.330825 235.488007 
L 168.412008 229.681679 
L 168.493192 260.108498 
L 168.574376 203.647078 
L 168.65556 212.923176 
L 168.736744 227.377758 
L 168.817928 224.488605 
L 168.980296 98.185999 
L 169.06148 251.267901 
L 169.142664 174.151715 
L 169.223848 261.113388 
L 169.305032 102.25045 
L 169.4674 275.991404 
L 169.629767 247.147325 
L 169.792135 104.982782 
L 169.873319 141.296239 
L 170.035687 70.024631 
L 170.198055 292.08424 
L 170.279239 256.026771 
L 170.360423 249.00422 
L 170.441607 130.141993 
L 170.522791 208.098475 
L 170.603975 172.824366 
L 170.766342 288.608209 
L 170.847526 238.204826 
L 170.92871 295.020168 
L 171.009894 229.025166 
L 171.253446 277.645501 
L 171.33463 180.895001 
L 171.415814 210.127556 
L 171.659366 266.875016 
L 171.74055 164.150722 
L 171.902918 246.069292 
L 171.984101 166.536242 
L 172.065285 229.988673 
L 172.146469 143.279159 
L 172.227653 284.753081 
L 172.308837 184.328509 
L 172.471205 249.298181 
L 172.552389 167.941047 
L 172.633573 295.300153 
L 172.714757 289.939395 
L 172.795941 237.886193 
L 172.877125 289.077474 
L 172.958309 272.155562 
L 173.039493 98.026376 
L 173.283044 239.257336 
L 173.364228 261.777923 
L 173.445412 188.851928 
L 173.526596 286.153988 
L 173.688964 103.460642 
L 173.770148 210.566265 
L 173.851332 97.498519 
L 173.932516 266.70072 
L 174.0137 150.70261 
L 174.257252 294.395373 
L 174.419619 177.214015 
L 174.500803 214.864643 
L 174.581987 178.897392 
L 174.744355 260.002441 
L 174.825539 181.422932 
L 174.906723 219.587007 
L 174.987907 205.764645 
L 175.069091 212.703764 
L 175.150275 240.229155 
L 175.231459 222.853064 
L 175.312643 243.673405 
L 175.393827 237.718962 
L 175.475011 250.972703 
L 175.556195 85.274751 
L 175.637378 294.38682 
L 175.718562 267.190854 
L 176.124482 138.760023 
L 176.205666 286.264938 
L 176.368034 164.291803 
L 176.449218 165.544159 
L 176.530402 274.185635 
L 176.611586 69.794003 
L 176.69277 239.060913 
L 176.773953 112.834888 
L 176.855137 113.22369 
L 176.936321 244.427025 
L 177.017505 69.977294 
L 177.098689 267.485657 
L 177.179873 164.484353 
L 177.261057 195.082187 
L 177.423425 189.630128 
L 177.504609 190.452167 
L 177.585793 240.850988 
L 177.666977 97.989222 
L 177.829345 173.334405 
L 177.991712 196.56931 
L 178.072896 140.451984 
L 178.15408 220.760091 
L 178.235264 70.505977 
L 178.397632 291.707663 
L 178.56 211.571719 
L 178.641184 266.868167 
L 178.803552 184.032019 
L 178.884736 291.907354 
L 178.96592 90.321533 
L 179.128288 274.600122 
L 179.209471 243.004214 
L 179.290655 99.462912 
L 179.371839 239.299718 
L 179.453023 176.527344 
L 179.615391 294.791081 
L 179.696575 181.002796 
L 179.777759 289.863478 
L 179.858943 267.455893 
L 180.102495 184.391712 
L 180.183679 265.184325 
L 180.264863 245.503642 
L 180.346047 92.279669 
L 180.42723 218.795044 
L 180.508414 73.263111 
L 180.670782 222.377992 
L 180.751966 220.403927 
L 180.83315 167.236914 
L 180.914334 169.935641 
L 180.995518 264.586149 
L 181.23907 85.452227 
L 181.320254 178.268741 
L 181.401438 97.35073 
L 181.563805 261.5323 
L 181.726173 197.635967 
L 181.807357 223.825321 
L 182.050909 98.675221 
L 182.213277 247.416852 
L 182.294461 205.696261 
L 182.375645 155.458308 
L 182.700381 294.599378 
L 182.781564 123.578003 
L 182.943932 291.861443 
L 183.1063 167.955832 
L 183.187484 205.692102 
L 183.268668 98.074538 
L 183.349852 231.278644 
L 183.431036 69.818497 
L 183.593404 247.28237 
L 183.674588 183.568249 
L 183.755772 258.590475 
L 183.91814 92.744227 
L 183.999323 125.546482 
L 184.080507 243.192976 
L 184.161691 126.099903 
L 184.242875 168.085514 
L 184.324059 104.52786 
L 184.405243 239.920202 
L 184.486427 226.809325 
L 184.567611 116.476228 
L 184.648795 229.541848 
L 184.811163 87.403149 
L 184.892347 211.855175 
L 184.973531 184.190048 
L 185.054715 276.048265 
L 185.135899 121.281643 
L 185.217082 130.301193 
L 185.298266 267.299335 
L 185.37945 196.457706 
L 185.460634 276.956534 
L 185.541818 255.379927 
L 185.623002 196.015414 
L 185.704186 239.025509 
L 185.78537 194.961215 
L 185.947738 293.739296 
L 186.028922 238.03351 
L 186.19129 284.028596 
L 186.272474 270.832969 
L 186.353658 122.943267 
L 186.434841 190.45343 
L 186.516025 137.036604 
L 186.597209 238.08985 
L 186.678393 158.897387 
L 186.921945 292.828469 
L 187.003129 97.656491 
L 187.084313 220.336219 
L 187.165497 69.623372 
L 187.327865 274.261491 
L 187.409049 162.985987 
L 187.490233 248.649968 
L 187.571416 238.076169 
L 187.6526 294.627463 
L 187.896152 145.845511 
L 187.977336 148.299456 
L 188.05852 167.325241 
L 188.139704 264.891826 
L 188.302072 152.770375 
L 188.46444 285.77567 
L 188.707992 243.357721 
L 188.789175 292.655863 
L 188.870359 184.617614 
L 188.951543 209.62303 
L 189.113911 196.98533 
L 189.276279 59.555007 
L 189.438647 207.581598 
L 189.519831 109.08472 
L 189.682199 266.762661 
L 189.763383 249.434439 
L 189.925751 212.659141 
L 190.006934 218.594648 
L 190.088118 133.41953 
L 190.169302 267.163025 
L 190.250486 205.313574 
L 190.33167 226.958101 
L 190.412854 239.187528 
L 190.494038 170.632229 
L 190.575222 288.197385 
L 190.656406 253.60873 
L 190.818774 153.024393 
L 190.899958 294.339198 
L 191.062326 72.574735 
L 191.224693 233.217611 
L 191.387061 69.967112 
L 191.468245 257.734911 
L 191.549429 228.484558 
L 191.630613 251.605359 
L 191.711797 162.842555 
L 191.792981 240.024609 
L 191.874165 204.374332 
L 191.955349 293.808814 
L 192.036533 101.129257 
L 192.117717 144.816708 
L 192.280085 223.172126 
L 192.442452 124.243286 
L 192.523636 267.143975 
L 192.60482 153.737155 
L 192.686004 225.404368 
L 192.767188 83.970864 
L 192.848372 199.136221 
L 192.929556 70.235719 
L 193.091924 247.690965 
L 193.173108 97.52549 
L 193.254292 291.110018 
L 193.41666 69.913996 
L 193.497844 136.068654 
L 193.660211 215.236333 
L 193.741395 201.908027 
L 193.822579 69.929132 
L 193.903763 275.320771 
L 193.984947 222.208946 
L 194.147315 163.781379 
L 194.228499 170.228993 
L 194.390867 267.6512 
L 194.472051 211.63495 
L 194.553235 221.675651 
L 194.634419 280.13184 
L 194.715603 98.110866 
L 194.87797 288.343195 
L 194.959154 210.252886 
L 195.040338 285.305026 
L 195.121522 112.274655 
L 195.202706 219.216866 
L 195.28389 198.743435 
L 195.365074 92.254349 
L 195.527442 265.283 
L 195.68981 146.20497 
L 195.770994 286.77197 
L 195.852178 100.54445 
L 195.933362 284.448262 
L 196.014545 148.394529 
L 196.176913 258.228799 
L 196.258097 214.622738 
L 196.339281 105.608304 
L 196.501649 263.669618 
L 196.664017 128.329556 
L 196.826385 290.02342 
L 196.907569 241.548595 
L 196.988753 136.027675 
L 197.069937 245.980973 
L 197.232304 160.445224 
L 197.394672 259.917622 
L 197.475856 247.771257 
L 197.55704 256.887094 
L 197.638224 212.615885 
L 197.719408 217.726833 
L 197.800592 256.131052 
L 197.881776 239.927502 
L 197.96296 247.24306 
L 198.044144 207.98512 
L 198.125328 266.911182 
L 198.206512 143.818059 
L 198.368879 290.521291 
L 198.450063 269.809475 
L 198.531247 191.283819 
L 198.612431 239.159548 
L 198.693615 104.477755 
L 198.774799 252.112107 
L 198.855983 220.29044 
L 198.937167 294.363153 
L 199.099535 134.844486 
L 199.180719 212.676561 
L 199.343087 118.752332 
L 199.505455 217.193206 
L 199.586638 213.218871 
L 199.667822 294.070056 
L 199.749006 138.795515 
L 199.83019 211.291532 
L 199.992558 149.565012 
L 200.073742 218.368035 
L 200.154926 147.497921 
L 200.23611 289.735196 
L 200.479662 152.669114 
L 200.723214 236.731465 
L 200.885581 190.908943 
L 200.966765 230.745828 
L 201.047949 99.908384 
L 201.210317 227.686717 
L 201.372685 114.547791 
L 201.453869 247.000549 
L 201.535053 153.442326 
L 201.616237 251.144243 
L 201.697421 217.10547 
L 201.859789 171.274669 
L 202.022156 248.717486 
L 202.10334 131.68036 
L 202.184524 141.309618 
L 202.265708 95.315429 
L 202.346892 253.538271 
L 202.428076 189.808538 
L 202.50926 235.779658 
L 202.671628 134.274125 
L 202.752812 261.424451 
L 202.833996 170.227073 
L 202.91518 279.725389 
L 202.996364 263.281574 
L 203.077548 152.619453 
L 203.158732 175.051478 
L 203.239915 240.289284 
L 203.321099 169.153728 
L 203.402283 242.602009 
L 203.564651 129.485385 
L 203.645835 255.888347 
L 203.727019 177.34708 
L 203.808203 182.693652 
L 203.889387 202.793296 
L 203.970571 108.179888 
L 204.214123 294.620688 
L 204.295307 166.03651 
L 204.457674 294.389902 
L 204.538858 259.01322 
L 204.701226 122.183866 
L 204.78241 261.622581 
L 204.863594 129.108819 
L 204.944778 158.197035 
L 205.025962 200.06209 
L 205.107146 122.64747 
L 205.18833 237.955185 
L 205.269514 137.286272 
L 205.350698 195.112275 
L 205.431882 169.29598 
L 205.594249 233.972421 
L 205.675433 231.933798 
L 205.756617 294.87433 
L 206.000169 107.008334 
L 206.081353 218.502706 
L 206.162537 165.194435 
L 206.243721 289.657144 
L 206.406089 149.504295 
L 206.487273 184.82126 
L 206.568457 285.175432 
L 206.649641 273.153099 
L 206.812008 218.058951 
L 206.893192 228.638333 
L 206.974376 243.469171 
L 207.05556 141.722769 
L 207.217928 248.908593 
L 207.299112 160.707037 
L 207.380296 212.739367 
L 207.46148 143.329109 
L 207.542664 237.63219 
L 207.623848 227.724223 
L 207.705032 232.356771 
L 207.786216 263.045457 
L 207.948584 110.559265 
L 208.029767 198.251884 
L 208.110951 97.668688 
L 208.273319 241.305191 
L 208.354503 166.682877 
L 208.516871 282.548602 
L 208.598055 184.559044 
L 208.679239 211.916797 
L 208.760423 225.500675 
L 208.841607 131.396659 
L 209.003975 223.103038 
L 209.085159 212.864625 
L 209.166342 266.778096 
L 209.247526 73.689596 
L 209.32871 207.050569 
L 209.409894 107.00103 
L 209.491078 143.761798 
L 209.572262 127.802984 
L 209.653446 283.530424 
L 209.73463 90.947322 
L 209.815814 184.369763 
L 209.896998 127.637985 
L 209.978182 167.25552 
L 210.059366 293.502535 
L 210.221734 197.192315 
L 210.384101 259.408931 
L 210.465285 194.154057 
L 210.546469 239.382015 
L 210.627653 92.670746 
L 210.708837 244.585735 
L 210.790021 150.79333 
L 210.871205 167.584892 
L 210.952389 198.535752 
L 211.114757 126.772253 
L 211.195941 265.832474 
L 211.277125 97.647792 
L 211.358309 243.636589 
L 211.60186 109.628567 
L 211.683044 245.459441 
L 211.764228 93.357974 
L 211.845412 126.112103 
L 211.926596 208.247392 
L 212.00778 121.001996 
L 212.088964 184.489256 
L 212.170148 70.701928 
L 212.251332 231.05563 
L 212.332516 140.657756 
L 212.4137 234.713277 
L 212.576068 120.013383 
L 212.738436 262.749647 
L 212.819619 267.414912 
L 212.900803 233.485554 
L 213.063171 70.394516 
L 213.144355 293.211178 
L 213.225539 218.54419 
L 213.306723 232.737306 
L 213.387907 92.253524 
L 213.469091 120.103889 
L 213.712643 138.678737 
L 213.875011 235.772164 
L 213.956195 242.096526 
L 214.037378 184.12338 
L 214.199746 257.612498 
L 214.362114 193.923216 
L 214.443298 129.719263 
L 214.605666 240.640958 
L 214.68685 118.279599 
L 214.849218 198.616543 
L 215.011586 242.463518 
L 215.09277 209.14211 
L 215.173953 237.702328 
L 215.255137 138.854914 
L 215.336321 183.453976 
L 215.417505 179.272093 
L 215.498689 131.378925 
L 215.661057 186.992639 
L 215.742241 136.318185 
L 215.823425 216.496823 
L 215.904609 103.03411 
L 215.985793 112.700557 
L 216.066977 294.542764 
L 216.148161 209.860877 
L 216.229345 239.902252 
L 216.391712 288.689946 
L 216.472896 191.076463 
L 216.55408 256.204426 
L 216.635264 238.175142 
L 216.716448 109.70104 
L 216.878816 280.897666 
L 216.96 169.929355 
L 217.041184 244.285754 
L 217.203552 119.95573 
L 217.284736 198.226615 
L 217.36592 156.120905 
L 217.528288 264.344178 
L 217.609471 234.993653 
L 217.771839 107.597204 
L 217.853023 218.008896 
L 217.934207 119.357681 
L 218.015391 119.925451 
L 218.096575 266.442463 
L 218.177759 266.347455 
L 218.258943 113.144757 
L 218.340127 268.785002 
L 218.583679 97.313576 
L 218.664863 256.157412 
L 218.746047 122.285482 
L 218.82723 172.986011 
L 218.908414 152.654761 
L 218.989598 258.968325 
L 219.070782 110.471758 
L 219.151966 260.233194 
L 219.23315 149.142765 
L 219.314334 253.893047 
L 219.476702 209.712338 
L 219.557886 263.552906 
L 219.63907 244.179435 
L 219.720254 159.046468 
L 219.801438 216.576186 
L 219.882622 192.953809 
L 219.963805 70.273698 
L 220.044989 112.398499 
L 220.207357 238.996725 
L 220.288541 214.177332 
L 220.532093 255.147938 
L 220.613277 201.143865 
L 220.694461 278.872075 
L 220.856829 164.310284 
L 220.938013 181.373304 
L 221.019197 141.526623 
L 221.100381 257.353179 
L 221.181564 117.549767 
L 221.262748 255.222742 
L 221.343932 203.958466 
L 221.425116 287.081764 
L 221.5063 73.041503 
L 221.587484 146.376309 
L 221.749852 266.792642 
L 221.91222 69.670708 
L 222.074588 294.974734 
L 222.236956 234.43246 
L 222.31814 237.822833 
L 222.399323 152.748483 
L 222.480507 258.814742 
L 222.561691 232.938008 
L 222.642875 248.774122 
L 222.724059 173.582882 
L 222.805243 232.083336 
L 222.886427 163.31449 
L 223.048795 245.392212 
L 223.211163 119.35992 
L 223.292347 173.570273 
L 223.373531 130.141212 
L 223.617082 284.020356 
L 223.698266 184.619014 
L 223.77945 184.795095 
L 223.941818 250.610577 
L 224.104186 152.382356 
L 224.18537 176.732812 
L 224.266554 112.765771 
L 224.347738 212.446242 
L 224.428922 195.302036 
L 224.510106 253.171472 
L 224.59129 83.521569 
L 224.672474 214.168071 
L 224.753658 137.083338 
L 224.834841 146.814805 
L 224.916025 212.314662 
L 225.078393 121.06946 
L 225.159577 216.766143 
L 225.240761 169.903282 
L 225.321945 184.930659 
L 225.403129 239.548638 
L 225.484313 75.606298 
L 225.565497 114.256188 
L 225.727865 265.457216 
L 225.971416 98.332962 
L 226.214968 171.443002 
L 226.377336 244.419302 
L 226.45852 214.800776 
L 226.539704 105.215069 
L 226.620888 175.810462 
L 226.702072 139.626045 
L 226.783256 258.028808 
L 226.945624 151.294709 
L 227.026808 285.513813 
L 227.189175 118.956235 
L 227.270359 169.958001 
L 227.513911 295.2425 
L 227.676279 238.748801 
L 227.757463 243.302401 
L 227.838647 106.593656 
L 228.001015 259.20877 
L 228.082199 279.035891 
L 228.163383 137.183423 
L 228.325751 252.872663 
L 228.406934 243.050643 
L 228.569302 162.721275 
L 228.812854 219.321881 
L 229.056406 95.803266 
L 229.13759 91.63552 
L 229.218774 238.344269 
L 229.299958 109.684594 
L 229.381142 264.409455 
L 229.54351 143.792455 
L 229.624693 225.102991 
L 229.705877 64.455936 
L 229.868245 170.571334 
L 229.949429 134.077925 
L 230.192981 239.554103 
L 230.355349 152.11716 
L 230.436533 230.199561 
L 230.517717 106.478923 
L 230.598901 131.727895 
L 230.761268 210.045118 
L 230.923636 252.254915 
L 231.167188 69.707862 
L 231.248372 294.093391 
L 231.329556 217.297934 
L 231.41074 204.527475 
L 231.491924 111.225468 
L 231.654292 163.705816 
L 231.897844 104.013535 
L 231.979027 272.068465 
L 232.060211 146.246797 
L 232.141395 159.936671 
L 232.222579 108.278565 
L 232.303763 140.657324 
L 232.384947 277.316418 
L 232.466131 257.25306 
L 232.547315 212.328311 
L 232.628499 69.892804 
L 232.790867 266.408552 
L 232.953235 210.732483 
L 233.034419 240.265934 
L 233.115603 78.221485 
L 233.27797 260.433099 
L 233.359154 102.205225 
L 233.521522 244.882308 
L 233.602706 118.142908 
L 233.68389 126.834139 
L 233.846258 224.725259 
L 233.927442 223.315238 
L 234.008626 290.12573 
L 234.08981 162.775667 
L 234.170994 285.163875 
L 234.252178 97.203766 
L 234.414545 258.275108 
L 234.495729 248.009157 
L 234.576913 191.265658 
L 234.658097 235.458703 
L 234.739281 112.406476 
L 234.901649 233.15504 
L 235.145201 68.106454 
L 235.226385 264.016743 
L 235.307569 163.349778 
L 235.469937 264.207545 
L 235.551121 194.188726 
L 235.632304 257.203456 
L 235.713488 230.924121 
L 235.875856 278.437362 
L 236.038224 97.193921 
L 236.119408 166.646379 
L 236.200592 131.086525 
L 236.444144 231.237353 
L 236.525328 227.442494 
L 236.606512 152.568552 
L 236.768879 239.684736 
L 236.850063 231.989982 
L 236.931247 125.659552 
L 237.012431 194.806959 
L 237.093615 149.47996 
L 237.174799 163.288073 
L 237.255983 150.027812 
L 237.337167 114.7952 
L 237.418351 209.993816 
L 237.499535 144.350136 
L 237.743087 209.017752 
L 237.824271 156.327137 
L 237.986638 290.528839 
L 238.067822 139.044508 
L 238.149006 183.253404 
L 238.311374 135.718429 
L 238.392558 161.454537 
L 238.554926 70.26269 
L 238.63611 231.518516 
L 238.717294 127.046179 
L 238.798478 174.891352 
L 238.879662 139.393486 
L 238.960846 151.42465 
L 239.123214 287.067422 
L 239.204397 142.595281 
L 239.285581 294.905111 
L 239.447949 136.775734 
L 239.529133 237.610252 
L 239.610317 218.059493 
L 239.935053 123.009931 
L 240.016237 106.71601 
L 240.178605 268.028231 
L 240.259789 114.607525 
L 240.340973 120.48075 
L 240.422156 234.274072 
L 240.50334 142.716116 
L 240.584524 197.261449 
L 240.665708 182.1986 
L 240.828076 283.226108 
L 240.90926 154.306381 
L 240.990444 203.673444 
L 241.152812 158.928928 
L 241.233996 244.348437 
L 241.31518 77.22347 
L 241.558732 264.333206 
L 241.639915 147.944369 
L 241.721099 151.800346 
L 241.883467 222.120715 
L 241.964651 148.052398 
L 242.045835 166.350738 
L 242.127019 239.524668 
L 242.208203 98.444423 
L 242.289387 137.108558 
L 242.451755 265.038296 
L 242.614123 96.812653 
L 242.77649 292.93494 
L 242.938858 278.496445 
L 243.101226 184.041588 
L 243.263594 125.270038 
L 243.344778 142.448083 
L 243.425962 121.537618 
L 243.58833 240.838271 
L 243.750698 140.632452 
L 243.913066 247.720988 
L 244.075433 214.211188 
L 244.156617 221.398728 
L 244.237801 181.175947 
L 244.318985 218.241114 
L 244.400169 77.592632 
L 244.562537 218.866984 
L 244.643721 161.480026 
L 244.724905 186.009671 
L 244.806089 294.558457 
L 244.968457 119.021605 
L 245.049641 278.883342 
L 245.130825 204.928818 
L 245.212008 272.25456 
L 245.293192 156.941029 
L 245.45556 294.613107 
L 245.617928 102.460498 
L 245.699112 167.197633 
L 245.86148 94.108273 
L 246.023848 234.244679 
L 246.105032 169.716787 
L 246.186216 285.810036 
L 246.2674 230.122433 
L 246.348584 250.813177 
L 246.510951 136.525112 
L 246.592135 265.84143 
L 246.673319 245.23404 
L 246.754503 217.570134 
L 246.835687 83.860109 
L 246.916871 130.369467 
L 246.998055 127.550423 
L 247.160423 244.908834 
L 247.241607 150.811555 
L 247.322791 210.714033 
L 247.403975 188.446787 
L 247.485159 69.929958 
L 247.566342 198.328735 
L 247.647526 177.187068 
L 247.72871 232.598271 
L 247.891078 144.284304 
L 247.972262 263.183159 
L 248.053446 220.126218 
L 248.13463 294.487805 
L 248.215814 130.58447 
L 248.296998 236.898401 
L 248.378182 236.51667 
L 248.459366 203.004441 
L 248.54055 70.738256 
L 248.621734 158.652642 
L 248.702918 157.270119 
L 248.865285 92.537268 
L 248.946469 293.566627 
L 249.027653 169.020945 
L 249.108837 175.180999 
L 249.190021 187.552131 
L 249.271205 286.128031 
L 249.433573 137.397128 
L 249.677125 259.231148 
L 249.920677 69.967112 
L 250.083044 243.866526 
L 250.245412 87.241456 
L 250.488964 282.816083 
L 250.651332 124.706712 
L 250.894884 264.484795 
L 251.138436 118.534692 
L 251.300803 227.38731 
L 251.381987 237.429005 
L 251.463171 226.728228 
L 251.625539 89.806103 
L 251.706723 96.151687 
L 251.787907 131.485476 
L 251.869091 74.188248 
L 251.950275 97.673278 
L 252.031459 266.570355 
L 252.112643 201.506686 
L 252.275011 284.969652 
L 252.356195 199.572169 
L 252.437378 275.466618 
L 252.518562 265.861345 
L 252.599746 131.262581 
L 252.843298 248.941675 
L 252.924482 129.381821 
L 253.005666 147.570358 
L 253.08685 272.43187 
L 253.168034 97.65922 
L 253.249218 267.002412 
L 253.330402 119.623546 
L 253.49277 273.624007 
L 253.655137 188.254926 
L 253.736321 251.779964 
L 253.817505 135.940384 
L 253.898689 234.942128 
L 253.979873 225.882134 
L 254.061057 294.244275 
L 254.142241 169.780365 
L 254.223425 210.875334 
L 254.304609 244.316317 
L 254.548161 108.838341 
L 254.629345 239.901493 
L 254.710529 192.499187 
L 254.872896 72.677847 
L 254.95408 291.783329 
L 255.035264 92.660563 
L 255.197632 264.762129 
L 255.278816 259.222556 
L 255.36 137.295623 
L 255.522368 234.648039 
L 255.603552 178.970681 
L 255.684736 199.129996 
L 255.76592 193.180733 
L 255.847104 96.430373 
L 255.928288 199.180821 
L 256.009471 190.303205 
L 256.171839 256.075247 
L 256.253023 193.118304 
L 256.334207 264.495555 
L 256.415391 160.308535 
L 256.496575 248.193147 
L 256.577759 239.241944 
L 256.740127 184.764286 
L 256.821311 264.240835 
L 256.902495 235.058024 
L 256.983679 198.311986 
L 257.064863 80.48132 
L 257.146047 249.690678 
L 257.22723 71.078176 
L 257.389598 212.792619 
L 257.470782 130.776794 
L 257.63315 295.227137 
L 257.714334 171.017932 
L 257.876702 286.801221 
L 257.957886 217.593449 
L 258.03907 253.67555 
L 258.120254 144.692931 
L 258.201438 218.549849 
L 258.363805 104.456551 
L 258.607357 243.451359 
L 258.769725 166.674603 
L 258.850909 294.966063 
L 259.013277 94.169908 
L 259.338013 239.624266 
L 259.419197 239.927924 
L 259.581564 179.438566 
L 259.662748 233.911666 
L 259.9063 115.653517 
L 259.987484 151.153575 
L 260.068668 242.62231 
L 260.231036 106.038964 
L 260.31222 163.507858 
L 260.393404 117.400538 
L 260.474588 267.163722 
L 260.636956 117.600519 
L 260.71814 155.564844 
L 260.799323 133.578391 
L 261.042875 236.40996 
L 261.205243 96.40405 
L 261.286427 266.977669 
L 261.367611 239.20698 
L 261.529979 112.149088 
L 261.611163 224.860524 
L 261.692347 153.853388 
L 261.773531 225.098974 
L 261.854715 126.668529 
L 261.935899 290.916025 
L 262.017082 267.047409 
L 262.098266 247.489245 
L 262.17945 82.574954 
L 262.260634 239.355159 
L 262.341818 185.401321 
L 262.423002 185.099931 
L 262.504186 214.760103 
L 262.58537 286.263568 
L 262.666554 146.76727 
L 262.747738 288.11652 
L 262.910106 203.645363 
L 262.99129 211.768278 
L 263.072474 238.244127 
L 263.153658 148.545268 
L 263.234841 231.812016 
L 263.316025 149.154571 
L 263.478393 252.349112 
L 263.559577 171.55488 
L 263.640761 221.197406 
L 263.721945 151.86092 
L 263.803129 159.908618 
L 263.884313 159.42921 
L 263.965497 275.767496 
L 264.046681 123.427418 
L 264.127865 167.042492 
L 264.209049 95.054359 
L 264.290233 253.939895 
L 264.371416 206.293443 
L 264.533784 252.015577 
L 264.614968 240.067258 
L 264.696152 275.589651 
L 264.777336 273.917262 
L 264.85852 98.036741 
L 264.939704 288.137616 
L 265.020888 228.278508 
L 265.102072 147.050642 
L 265.26444 242.438145 
L 265.345624 151.290561 
L 265.507992 291.095692 
L 265.589175 191.870045 
L 265.670359 267.040568 
L 265.751543 249.056762 
L 265.832727 265.027145 
L 265.913911 181.005229 
L 265.995095 239.298252 
L 266.076279 117.640299 
L 266.157463 180.943592 
L 266.238647 119.96822 
L 266.319831 266.645058 
L 266.401015 198.254554 
L 266.563383 266.09354 
L 266.644567 111.928699 
L 266.725751 263.995828 
L 266.806934 155.779948 
L 266.888118 287.521039 
L 266.969302 140.763423 
L 267.212854 273.497811 
L 267.294038 181.392243 
L 267.375222 256.102871 
L 267.456406 162.811928 
L 267.618774 294.630047 
L 267.781142 111.063418 
L 267.862326 129.949757 
L 267.94351 281.629948 
L 268.105877 98.755316 
L 268.187061 148.283608 
L 268.268245 288.632559 
L 268.430613 165.994336 
L 268.592981 182.507063 
L 268.674165 291.360881 
L 268.755349 167.60634 
L 268.917717 238.85936 
L 268.998901 237.969454 
L 269.080085 249.984471 
L 269.161268 237.868871 
L 269.323636 130.602783 
L 269.40482 260.881244 
L 269.486004 225.295365 
L 269.648372 286.694962 
L 269.81074 171.672621 
L 269.891924 282.476197 
L 269.973108 260.658113 
L 270.135476 239.685101 
L 270.21666 275.771617 
L 270.297844 252.987895 
L 270.460211 129.258419 
L 270.622579 255.663574 
L 270.703763 161.346383 
L 270.784947 256.125449 
L 270.866131 236.815389 
L 270.947315 190.706105 
L 271.109683 261.37446 
L 271.190867 184.872612 
L 271.272051 264.078328 
L 271.434419 69.671534 
L 271.515603 267.132862 
L 271.596786 229.089654 
L 271.759154 282.279821 
L 271.840338 262.390495 
L 271.921522 163.87911 
L 272.002706 182.168409 
L 272.165074 145.513444 
L 272.246258 247.495918 
L 272.327442 183.054331 
L 272.408626 266.924747 
L 272.48981 231.449362 
L 272.570994 239.205642 
L 272.652178 100.278183 
L 272.733362 178.92484 
L 272.814545 73.224738 
L 272.895729 253.33307 
L 272.976913 196.69451 
L 273.058097 218.820969 
L 273.139281 216.566191 
L 273.220465 92.468188 
L 273.382833 292.560384 
L 273.464017 246.598031 
L 273.545201 94.661772 
L 273.626385 141.400461 
L 273.707569 130.923608 
L 273.788753 222.577079 
L 273.951121 97.203766 
L 274.032304 232.989053 
L 274.194672 163.135125 
L 274.275856 267.869725 
L 274.519408 114.09441 
L 274.600592 255.067836 
L 274.681776 102.807474 
L 274.76296 127.535785 
L 274.844144 184.489996 
L 274.925328 130.311951 
L 275.006512 247.871854 
L 275.087696 73.506419 
L 275.331247 288.024061 
L 275.412431 108.391827 
L 275.574799 225.622552 
L 275.655983 97.60998 
L 275.737167 238.53928 
L 275.818351 149.146363 
L 275.980719 285.026256 
L 276.061903 289.547755 
L 276.224271 122.361916 
L 276.305455 234.317246 
L 276.386638 232.188248 
L 276.63019 98.00601 
L 276.711374 230.171935 
L 276.954926 97.857395 
L 277.03611 273.285494 
L 277.117294 103.286379 
L 277.198478 235.891014 
L 277.360846 126.046203 
L 277.44203 152.660974 
L 277.604397 105.050542 
L 277.685581 250.324824 
L 277.766765 157.09458 
L 277.847949 176.348887 
L 277.929133 139.761097 
L 278.010317 259.992417 
L 278.091501 239.55758 
L 278.172685 284.613765 
L 278.335053 168.216234 
L 278.416237 224.844636 
L 278.497421 129.014173 
L 278.578605 154.091956 
L 278.659789 294.311267 
L 278.822156 143.254303 
L 278.90334 251.468012 
L 278.984524 244.495387 
L 279.228076 93.051639 
L 279.30926 267.26615 
L 279.390444 114.112616 
L 279.552812 265.962789 
L 279.633996 109.229307 
L 279.71518 266.795734 
L 279.796364 201.353278 
L 279.877548 224.080595 
L 280.039915 70.283881 
L 280.202283 286.685638 
L 280.283467 117.400904 
L 280.364651 148.131228 
L 280.445835 234.193756 
L 280.527019 197.801565 
L 280.608203 295.127781 
L 280.851755 77.348616 
L 280.932939 262.186361 
L 281.014123 199.921212 
L 281.095307 292.324449 
L 281.257674 179.85004 
L 281.338858 240.107134 
L 281.501226 98.332962 
L 281.744778 221.929481 
L 281.825962 111.081787 
L 281.907146 242.697861 
L 281.98833 127.754555 
L 282.069514 214.060668 
L 282.150698 203.326352 
L 282.231882 215.365465 
L 282.313066 133.613437 
L 282.394249 204.080135 
L 282.556617 116.586419 
L 282.637801 294.712262 
L 282.718985 232.65182 
L 282.800169 183.04957 
L 282.881353 257.720081 
L 282.962537 240.813188 
L 283.043721 64.426539 
L 283.124905 267.31852 
L 283.206089 167.822713 
L 283.287273 275.339567 
L 283.368457 237.372609 
L 283.449641 243.792785 
L 283.530825 267.374567 
L 283.612008 197.434107 
L 283.693192 226.826581 
L 283.774376 179.847277 
L 283.936744 216.846098 
L 284.017928 215.127926 
L 284.099112 194.020877 
L 284.180296 99.514903 
L 284.342664 213.747451 
L 284.423848 211.549602 
L 284.505032 132.349489 
L 284.6674 270.532199 
L 284.748584 114.339546 
L 284.829767 242.712037 
L 284.910951 198.279086 
L 284.992135 175.693644 
L 285.073319 293.957951 
L 285.154503 260.670283 
L 285.235687 174.949557 
L 285.316871 203.529412 
L 285.398055 239.67342 
L 285.641607 145.335379 
L 285.722791 153.155489 
L 285.803975 106.732908 
L 285.885159 157.704022 
L 285.966342 292.680282 
L 286.12871 64.942562 
L 286.291078 254.10904 
L 286.372262 124.992748 
L 286.615814 290.104576 
L 286.859366 97.303393 
L 286.94055 161.393103 
L 287.021734 154.998535 
L 287.102918 186.805027 
L 287.184101 280.877815 
L 287.346469 205.268092 
L 287.427653 256.929608 
L 287.508837 211.044074 
L 287.671205 239.814054 
L 287.752389 177.047626 
L 287.833573 239.528829 
L 287.914757 231.001262 
L 287.995941 248.347398 
L 288.077125 194.980426 
L 288.239493 243.660119 
L 288.320677 240.066478 
L 288.40186 266.990789 
L 288.483044 128.945823 
L 288.564228 170.389229 
L 288.645412 280.095492 
L 288.888964 67.441001 
L 288.970148 171.675733 
L 289.051332 127.300592 
L 289.132516 232.943621 
L 289.2137 97.805931 
L 289.294884 206.944046 
L 289.538436 72.874482 
L 289.619619 96.025116 
L 289.700803 177.644058 
L 289.781987 64.41553 
L 290.025539 266.800522 
L 290.106723 154.459704 
L 290.187907 253.916106 
L 290.269091 189.816866 
L 290.350275 256.289087 
L 290.431459 239.223418 
L 290.512643 249.781455 
L 290.593827 208.697912 
L 290.756195 265.406293 
L 290.837378 190.846465 
L 290.918562 262.149766 
L 290.999746 94.294276 
L 291.08093 135.908161 
L 291.162114 96.836245 
L 291.324482 276.807325 
L 291.405666 202.489861 
L 291.48685 220.826055 
L 291.568034 180.481062 
L 291.649218 290.256682 
L 291.89277 170.299077 
L 291.973953 212.106428 
L 292.136321 117.987606 
L 292.217505 69.891979 
L 292.461057 252.324393 
L 292.623425 148.677996 
L 292.704609 265.540984 
L 292.785793 259.334273 
L 292.866977 123.828523 
L 292.948161 143.565865 
L 293.029345 268.065959 
L 293.110529 172.49895 
L 293.272896 269.854685 
L 293.435264 127.117623 
L 293.516448 177.404887 
L 293.678816 97.647133 
L 293.76 232.922018 
L 293.841184 164.15746 
L 293.922368 211.534206 
L 294.003552 166.512412 
L 294.084736 283.683756 
L 294.247104 175.610949 
L 294.328288 211.00014 
L 294.409471 195.542497 
L 294.490655 294.322175 
L 294.571839 129.272611 
L 294.653023 183.353322 
L 294.734207 282.61061 
L 294.815391 255.152127 
L 294.977759 69.523745 
L 295.058943 266.679322 
L 295.221311 125.322482 
L 295.302495 148.15056 
L 295.383679 245.116523 
L 295.464863 121.69038 
L 295.546047 141.624546 
L 295.870782 264.116241 
L 295.951966 243.149202 
L 296.03315 247.679057 
L 296.114334 102.513914 
L 296.276702 239.210456 
L 296.357886 198.753781 
L 296.43907 239.738946 
L 296.520254 235.050584 
L 296.682622 93.785392 
L 296.763805 237.223879 
L 296.844989 212.93578 
L 296.926173 198.91638 
L 297.007357 231.543436 
L 297.088541 164.446038 
L 297.169725 196.059915 
L 297.332093 109.332567 
L 297.413277 180.528731 
L 297.494461 119.366207 
L 297.738013 239.168658 
L 297.819197 130.351041 
L 297.900381 256.372498 
L 297.981564 246.164213 
L 298.143932 115.723494 
L 298.225116 199.526001 
L 298.3063 161.734495 
L 298.387484 240.215599 
L 298.468668 149.490432 
L 298.549852 162.993376 
L 298.631036 168.04065 
L 298.71222 154.039635 
L 298.793404 166.234902 
L 298.874588 201.798543 
L 299.036956 137.215331 
L 299.11814 169.660979 
L 299.199323 152.62159 
L 299.280507 190.725145 
L 299.442875 77.957118 
L 299.605243 254.679328 
L 299.686427 152.10343 
L 299.767611 257.266966 
L 299.848795 213.836153 
L 299.929979 237.433947 
L 300.011163 112.896029 
L 300.173531 285.276959 
L 300.254715 256.136519 
L 300.335899 100.067621 
L 300.498266 271.912218 
L 300.57945 241.015508 
L 300.660634 276.123756 
L 300.741818 129.877101 
L 300.904186 245.978281 
L 301.147738 125.840777 
L 301.228922 282.214716 
L 301.310106 233.332821 
L 301.39129 259.319734 
L 301.553658 92.645426 
L 301.716025 255.442751 
L 301.797209 237.547289 
L 301.878393 243.829476 
L 302.121945 136.00033 
L 302.203129 246.439104 
L 302.284313 93.59309 
L 302.365497 219.975965 
L 302.446681 102.72784 
L 302.527865 137.312628 
L 302.609049 142.24417 
L 302.690233 175.24114 
L 302.771416 138.782519 
L 302.8526 232.002626 
L 302.933784 224.225159 
L 303.014968 181.680336 
L 303.096152 260.976254 
L 303.177336 106.575344 
L 303.25852 263.350983 
L 303.420888 97.499344 
L 303.66444 227.781257 
L 303.826808 127.607431 
L 303.989175 256.231135 
L 304.151543 186.545509 
L 304.395095 289.88629 
L 304.476279 267.283701 
L 304.557463 140.23063 
L 304.719831 280.149193 
L 304.801015 98.005184 
L 304.882199 189.604789 
L 304.963383 92.881833 
L 305.206934 235.7657 
L 305.288118 174.66795 
L 305.450486 239.651132 
L 305.53167 218.965857 
L 305.612854 92.828717 
L 305.694038 97.414029 
L 305.775222 274.297735 
L 305.93759 104.664718 
L 306.018774 109.127776 
L 306.099958 187.559646 
L 306.34351 87.683349 
L 306.505877 267.591939 
L 306.587061 149.333589 
L 306.668245 205.128684 
L 306.749429 199.293748 
L 306.830613 175.079755 
L 306.911797 277.523189 
L 306.992981 246.270628 
L 307.074165 240.405577 
L 307.155349 187.026933 
L 307.236533 273.927498 
L 307.398901 111.557774 
L 307.480085 220.030595 
L 307.561268 113.253838 
L 307.642452 256.519311 
L 307.723636 187.585679 
L 307.80482 263.775385 
L 307.967188 153.416446 
L 308.129556 264.509958 
L 308.21074 267.876194 
L 308.291924 179.346507 
L 308.373108 214.653771 
L 308.454292 72.464194 
L 308.535476 243.878981 
L 308.61666 207.862189 
L 308.697844 265.891517 
L 308.779027 223.113535 
L 308.860211 237.95976 
L 308.941395 239.310254 
L 309.103763 200.821354 
L 309.184947 195.242593 
L 309.266131 78.261378 
L 309.347315 266.649008 
L 309.428499 207.240788 
L 309.590867 70.663949 
L 309.753235 293.231081 
L 309.915603 114.715223 
L 309.996786 257.93044 
L 310.07797 257.714377 
L 310.159154 193.497978 
L 310.240338 237.717124 
L 310.321522 222.57466 
L 310.402706 252.882989 
L 310.48389 217.088702 
L 310.565074 279.995482 
L 310.646258 149.735431 
L 310.727442 294.603484 
L 310.970994 110.726043 
L 311.133362 208.949372 
L 311.214545 116.559817 
L 311.295729 139.861486 
L 311.376913 256.330099 
L 311.458097 247.186773 
L 311.539281 278.132785 
L 311.620465 210.970539 
L 311.701649 266.975505 
L 311.782833 100.736931 
L 311.864017 266.096999 
L 311.945201 254.325807 
L 312.026385 85.360464 
L 312.107569 242.947551 
L 312.188753 120.612746 
L 312.269937 179.199495 
L 312.351121 97.451182 
L 312.594672 267.542313 
L 312.675856 198.605002 
L 312.838224 260.975747 
L 313.000592 168.251597 
L 313.16296 294.023328 
L 313.325328 175.69788 
L 313.406512 270.960791 
L 313.650063 177.287653 
L 313.731247 239.716664 
L 313.812431 214.164219 
L 313.893615 217.648586 
L 313.974799 199.085434 
L 314.137167 293.789182 
L 314.218351 258.114594 
L 314.299535 121.69298 
L 314.380719 138.600533 
L 314.543087 264.703346 
L 314.624271 210.617313 
L 314.786638 242.984934 
L 314.867822 247.012813 
L 314.949006 140.942671 
L 315.03019 243.959878 
L 315.111374 223.932323 
L 315.192558 146.798582 
L 315.273742 181.052916 
L 315.354926 163.491402 
L 315.43611 185.149516 
L 315.517294 102.959963 
L 315.679662 174.762952 
L 315.84203 215.685452 
L 316.004397 134.459573 
L 316.085581 165.911466 
L 316.166765 137.471277 
L 316.247949 253.026222 
L 316.329133 216.547587 
L 316.410317 158.515171 
L 316.572685 294.744 
L 316.735053 150.405402 
L 316.816237 216.886544 
L 316.897421 215.384939 
L 316.978605 167.249093 
L 317.222156 241.987926 
L 317.30334 98.053347 
L 317.384524 247.152649 
L 317.465708 243.750547 
L 317.546892 186.411317 
L 317.628076 250.915387 
L 317.70926 139.229429 
L 317.790444 243.496855 
L 317.871628 234.250989 
L 317.952812 129.978121 
L 318.033996 266.537018 
L 318.11518 153.701899 
L 318.277548 267.111854 
L 318.358732 78.062471 
L 318.439915 258.59581 
L 318.521099 97.377701 
L 318.602283 288.885049 
L 318.683467 238.424966 
L 318.764651 157.437402 
L 318.927019 286.477874 
L 319.089387 123.022887 
L 319.170571 97.300178 
L 319.332939 251.104622 
L 319.414123 114.445993 
L 319.495307 257.244364 
L 319.57649 104.508252 
L 319.738858 267.668828 
L 319.901226 211.89224 
L 319.98241 265.122163 
L 320.144778 127.095663 
L 320.225962 266.923968 
L 320.307146 233.843211 
L 320.38833 220.358417 
L 320.550698 102.279848 
L 320.631882 266.258358 
L 320.713066 97.583009 
L 320.794249 262.902687 
L 320.875433 217.205318 
L 320.956617 179.978063 
L 321.118985 230.564837 
L 321.200169 294.4454 
L 321.281353 211.624449 
L 321.362537 262.280841 
L 321.443721 212.613499 
L 321.524905 70.642758 
L 321.606089 169.72264 
L 321.687273 166.274914 
L 321.768457 135.090701 
L 321.849641 263.677633 
L 321.930825 235.966634 
L 322.012008 292.54265 
L 322.174376 184.300941 
L 322.336744 252.292847 
L 322.417928 110.1925 
L 322.499112 234.99222 
L 322.742664 154.435751 
L 322.823848 118.60314 
L 322.905032 212.379841 
L 322.986216 69.856476 
L 323.148584 269.458662 
L 323.229767 121.743612 
L 323.310951 226.978445 
L 323.392135 206.515227 
L 323.473319 146.310988 
L 323.554503 232.997352 
L 323.635687 216.304751 
L 323.716871 87.115152 
L 323.960423 247.659924 
L 324.041607 174.14085 
L 324.203975 220.651323 
L 324.285159 110.436302 
L 324.366342 294.449859 
L 324.52871 151.935035 
L 324.609894 288.795322 
L 324.853446 111.070221 
L 325.015814 209.239505 
L 325.096998 182.926455 
L 325.259366 280.760975 
L 325.665285 220.058686 
L 325.827653 267.225163 
L 325.908837 112.040249 
L 326.071205 268.873435 
L 326.152389 157.618729 
L 326.314757 283.80573 
L 326.395941 97.609154 
L 326.558309 291.829543 
L 326.639493 232.853347 
L 326.720677 262.700855 
L 326.80186 251.85214 
L 326.883044 253.944496 
L 326.964228 261.318443 
L 327.045412 247.749875 
L 327.126596 163.404042 
L 327.288964 241.121753 
L 327.370148 221.090313 
L 327.532516 122.396139 
L 327.694884 286.301342 
L 327.938436 97.340547 
L 328.019619 178.549111 
L 328.100803 109.643934 
L 328.181987 121.0781 
L 328.344355 258.780571 
L 328.587907 96.686416 
L 328.669091 259.090457 
L 328.750275 70.114901 
L 328.831459 290.409967 
L 328.912643 230.588726 
L 328.993827 222.850164 
L 329.075011 122.135838 
L 329.156195 215.395331 
L 329.237378 211.4586 
L 329.399746 293.34855 
L 329.562114 224.799997 
L 329.643298 245.804786 
L 329.724482 210.732944 
L 329.805666 82.984759 
L 329.88685 232.654039 
L 329.968034 98.532866 
L 330.049218 151.304164 
L 330.130402 111.763789 
L 330.211586 236.609196 
L 330.29277 182.690675 
L 330.455137 290.851223 
L 330.536321 294.442516 
L 330.617505 169.905972 
L 330.698689 262.387259 
L 330.861057 70.199391 
L 330.942241 268.609318 
L 331.023425 165.33019 
L 331.104609 183.410963 
L 331.185793 184.46967 
L 331.266977 109.719962 
L 331.348161 163.517976 
L 331.510529 102.039916 
L 331.672896 294.635164 
L 331.75408 93.088351 
L 331.835264 279.547129 
L 331.997632 64.463692 
L 332.16 247.597502 
L 332.241184 93.040631 
L 332.322368 113.562544 
L 332.484736 220.792876 
L 332.56592 209.382779 
L 332.647104 98.053347 
L 332.890655 293.022198 
L 332.971839 108.213632 
L 333.134207 293.953407 
L 333.296575 137.670208 
L 333.377759 239.019501 
L 333.458943 90.441459 
L 333.540127 288.709054 
L 333.621311 260.371443 
L 333.702495 266.413969 
L 333.783679 183.400058 
L 333.864863 212.1536 
L 333.946047 254.912068 
L 334.02723 92.623409 
L 334.189598 226.280881 
L 334.270782 192.068971 
L 334.43315 294.001357 
L 334.514334 289.32139 
L 334.595518 158.433091 
L 334.676702 247.095263 
L 334.757886 128.568931 
L 334.83907 283.073919 
L 335.001438 144.835893 
L 335.163805 237.056597 
L 335.407357 92.940178 
L 335.488541 210.226656 
L 335.569725 169.184169 
L 335.650909 145.576634 
L 335.732093 241.93727 
L 335.813277 211.81304 
L 335.975645 240.184722 
L 336.056829 221.087197 
L 336.138013 92.464612 
L 336.300381 291.904837 
L 336.381564 216.1715 
L 336.462748 253.222013 
L 336.625116 122.5428 
L 336.7063 195.680783 
L 336.868668 105.139496 
L 337.031036 239.40999 
L 337.11222 136.251941 
L 337.193404 274.428742 
L 337.274588 196.793925 
L 337.436956 238.438449 
L 337.51814 100.574745 
L 337.599323 142.587159 
L 337.761691 263.288108 
L 337.842875 274.88394 
L 338.005243 79.370437 
L 338.086427 221.730999 
L 338.248795 70.616613 
L 338.411163 268.02205 
L 338.492347 119.302357 
L 338.573531 264.347706 
L 338.735899 69.956103 
L 338.898266 237.921578 
L 339.060634 121.5699 
L 339.141818 271.152852 
L 339.223002 263.960378 
L 339.304186 70.77541 
L 339.466554 264.059533 
L 339.547738 178.728529 
L 339.628922 184.424758 
L 339.79129 143.168428 
L 339.953658 285.120651 
L 340.034841 262.87344 
L 340.116025 132.58709 
L 340.197209 253.190914 
L 340.278393 98.20031 
L 340.440761 240.021831 
L 340.521945 70.522057 
L 340.603129 107.541227 
L 340.684313 112.001868 
L 340.765497 239.93936 
L 340.846681 156.979334 
L 340.927865 230.443161 
L 341.009049 125.27567 
L 341.090233 161.041639 
L 341.171416 211.121347 
L 341.2526 208.821924 
L 341.333784 184.921114 
L 341.496152 282.310453 
L 341.65852 93.67725 
L 341.820888 256.368254 
L 341.902072 178.952046 
L 341.983256 239.77225 
L 342.06444 236.312842 
L 342.145624 267.248595 
L 342.226808 168.073891 
L 342.307992 210.086728 
L 342.389175 105.135703 
L 342.470359 267.065716 
L 342.632727 153.527303 
L 342.713911 238.783522 
L 342.876279 141.483275 
L 343.038647 251.429085 
L 343.119831 102.665861 
L 343.201015 264.694525 
L 343.363383 115.787128 
L 343.444567 153.707179 
L 343.525751 116.681612 
L 343.688118 249.204615 
L 343.769302 211.053047 
L 343.850486 279.748622 
L 343.93167 239.169867 
L 344.012854 278.551098 
L 344.094038 215.179617 
L 344.175222 275.649402 
L 344.256406 141.402181 
L 344.33759 205.080741 
L 344.418774 93.668797 
L 344.499958 128.920575 
L 344.581142 148.638637 
L 344.662326 237.068667 
L 344.74351 97.832076 
L 344.905877 225.301527 
L 344.987061 70.373325 
L 345.068245 116.642284 
L 345.149429 280.619582 
L 345.230613 223.134714 
L 345.311797 155.243827 
L 345.392981 266.277994 
L 345.474165 81.902646 
L 345.555349 239.83085 
L 345.636533 99.7205 
L 345.717717 294.08889 
L 345.798901 174.927421 
L 345.880085 267.093545 
L 345.961268 97.794097 
L 346.042452 259.133877 
L 346.123636 98.275443 
L 346.20482 153.336529 
L 346.448372 264.185392 
L 346.529556 189.424345 
L 346.61074 190.498731 
L 346.691924 235.634402 
L 346.773108 143.064524 
L 346.854292 178.661643 
L 346.935476 266.938497 
L 347.01666 261.973232 
L 347.097844 97.916566 
L 347.179027 241.628851 
L 347.260211 153.912326 
L 347.341395 233.918476 
L 347.503763 162.672621 
L 347.666131 294.205713 
L 347.828499 212.119327 
L 347.909683 293.086694 
L 347.990867 93.720287 
L 348.072051 166.539304 
L 348.153235 221.798196 
L 348.234419 219.730482 
L 348.315603 222.628449 
L 348.396786 212.554228 
L 348.559154 97.646308 
L 348.640338 97.387883 
L 348.802706 264.286169 
L 348.88389 86.986512 
L 349.127442 273.022051 
L 349.28981 126.795622 
L 349.370994 161.323354 
L 349.452178 260.797917 
L 349.533362 148.946876 
L 349.614545 220.86313 
L 349.695729 156.955025 
L 349.858097 266.549279 
L 349.939281 261.66073 
L 350.101649 158.836392 
L 350.264017 264.757774 
L 350.345201 116.345202 
L 350.426385 293.693554 
L 350.669937 66.487714 
L 350.751121 96.436517 
L 350.832304 223.117565 
L 350.913488 197.339793 
L 350.994672 212.134331 
L 351.075856 290.078014 
L 351.238224 98.089675 
L 351.319408 265.874948 
L 351.400592 254.916913 
L 351.644144 207.684654 
L 351.725328 237.301957 
L 351.806512 206.030495 
L 351.887696 266.855554 
L 352.050063 108.068693 
L 352.131247 185.126717 
L 352.212431 152.656651 
L 352.293615 250.270244 
L 352.374799 126.150688 
L 352.455983 266.755251 
L 352.618351 98.370942 
L 352.699535 174.551817 
L 352.780719 215.322153 
L 352.861903 193.831216 
L 353.024271 277.689804 
L 353.186638 94.127207 
L 353.267822 251.099488 
L 353.349006 106.621585 
L 353.43019 263.149683 
L 353.511374 239.889672 
L 353.592558 167.131562 
L 353.673742 269.256051 
L 353.754926 157.166545 
L 353.83611 212.964739 
L 353.917294 131.303136 
L 353.998478 160.025139 
L 354.079662 251.46781 
L 354.160846 249.409063 
L 354.323214 113.156529 
L 354.404397 256.537033 
L 354.566765 97.573652 
L 354.647949 181.334408 
L 354.810317 124.888156 
L 354.891501 119.682719 
L 354.972685 257.128977 
L 355.053869 69.944671 
L 355.135053 122.810123 
L 355.378605 261.861634 
L 355.540973 160.96339 
L 355.622156 191.527002 
L 355.70334 290.687455 
L 355.784524 185.621982 
L 355.865708 201.214131 
L 355.946892 261.411755 
L 356.028076 260.398252 
L 356.190444 98.0905 
L 356.271628 206.430315 
L 356.352812 182.775369 
L 356.433996 146.455449 
L 356.51518 293.826356 
L 356.596364 149.532011 
L 356.677548 228.936536 
L 356.758732 131.224287 
L 356.839915 190.820843 
L 357.083467 75.184255 
L 357.164651 183.651371 
L 357.408203 98.005184 
L 357.489387 187.167527 
L 357.570571 154.417089 
L 357.651755 239.975621 
L 357.732939 164.150771 
L 357.814123 187.740347 
L 357.895307 279.017579 
L 357.97649 91.321655 
L 358.057674 241.99182 
L 358.138858 219.407678 
L 358.220042 204.64746 
L 358.301226 145.165539 
L 358.38241 267.1832 
L 358.463594 207.898438 
L 358.544778 212.107284 
L 358.625962 266.412999 
L 358.707146 253.311138 
L 358.78833 98.164808 
L 358.869514 113.408233 
L 358.950698 238.235097 
L 359.031882 209.714786 
L 359.113066 112.074548 
L 359.194249 259.224613 
L 359.275433 92.717619 
L 359.356617 285.428895 
L 359.437801 247.600498 
L 359.518985 231.335046 
L 359.600169 259.019237 
L 359.681353 209.235513 
L 359.762537 286.323565 
L 359.843721 261.743438 
L 359.924905 98.064355 
L 360.006089 271.555071 
L 360.087273 267.989684 
L 360.249641 65.027052 
L 360.330825 255.065671 
L 360.412008 195.251455 
L 360.493192 261.386077 
L 360.574376 239.387479 
L 360.65556 239.239831 
L 360.736744 111.896453 
L 360.817928 179.332849 
L 360.899112 118.660715 
L 360.980296 264.776795 
L 361.06148 217.102101 
L 361.223848 292.635961 
L 361.305032 134.600993 
L 361.386216 204.952532 
L 361.4674 129.404708 
L 361.629767 294.452689 
L 361.710951 148.780753 
L 361.792135 157.989377 
L 361.873319 244.761473 
L 361.954503 135.900148 
L 362.035687 199.708239 
L 362.116871 154.490841 
L 362.198055 285.978086 
L 362.279239 184.578859 
L 362.360423 294.820839 
L 362.441607 92.402138 
L 362.522791 284.202647 
L 362.603975 156.560032 
L 362.685159 200.095521 
L 362.766342 224.621376 
L 362.847526 183.811719 
L 362.92871 235.14197 
L 363.009894 134.688682 
L 363.091078 199.371816 
L 363.172262 125.186756 
L 363.253446 294.175595 
L 363.415814 137.958301 
L 363.496998 131.949415 
L 363.659366 291.92545 
L 363.902918 250.105657 
L 363.984101 87.273591 
L 364.065285 124.673384 
L 364.146469 107.451054 
L 364.308837 293.221417 
L 364.471205 132.097026 
L 364.552389 230.144058 
L 364.633573 138.685224 
L 364.714757 217.692858 
L 364.795941 213.575275 
L 364.877125 97.94339 
L 364.958309 187.195002 
L 365.039493 116.781409 
L 365.120677 263.053969 
L 365.20186 161.137394 
L 365.283044 170.690938 
L 365.364228 289.693745 
L 365.445412 275.438583 
L 365.526596 97.906383 
L 365.60778 142.911335 
L 365.770148 294.373076 
L 365.851332 138.356213 
L 365.932516 150.538798 
L 366.0137 238.367453 
L 366.094884 204.501056 
L 366.176068 222.705749 
L 366.257252 196.020133 
L 366.338436 71.980603 
L 366.419619 180.028568 
L 366.500803 118.700958 
L 366.581987 268.560712 
L 366.663171 70.395342 
L 366.744355 122.222471 
L 366.825539 250.919707 
L 366.906723 148.297946 
L 366.987907 161.173415 
L 367.150275 256.442824 
L 367.231459 215.556559 
L 367.312643 225.559081 
L 367.475011 158.763261 
L 367.556195 185.334522 
L 367.637378 160.251961 
L 367.718562 278.947162 
L 367.799746 97.868404 
L 367.962114 237.467323 
L 368.205666 134.089363 
L 368.28685 264.019865 
L 368.368034 136.135473 
L 368.449218 254.405194 
L 368.530402 232.60347 
L 368.611586 225.361 
L 368.69277 250.994871 
L 368.773953 69.783618 
L 368.855137 114.947082 
L 368.936321 231.638513 
L 369.017505 88.436998 
L 369.098689 231.304309 
L 369.179873 87.381862 
L 369.261057 282.845017 
L 369.342241 92.745053 
L 369.423425 191.036889 
L 369.504609 180.014264 
L 369.585793 238.366523 
L 369.666977 119.736859 
L 369.748161 267.193935 
L 369.829345 131.972338 
L 369.991712 248.932818 
L 370.072896 229.493794 
L 370.15408 116.278527 
L 370.235264 168.142986 
L 370.316448 126.080856 
L 370.397632 185.564718 
L 370.478816 97.83125 
L 370.56 109.302486 
L 370.722368 266.494737 
L 370.803552 168.846095 
L 370.96592 234.483819 
L 371.047104 99.327594 
L 371.290655 266.139108 
L 371.371839 242.261811 
L 371.453023 135.340279 
L 371.534207 269.627292 
L 371.615391 171.630987 
L 371.696575 294.251102 
L 371.777759 155.327821 
L 371.858943 247.385578 
L 371.940127 238.681956 
L 372.021311 270.799984 
L 372.102495 80.386966 
L 372.183679 110.470605 
L 372.346047 213.647517 
L 372.42723 199.552913 
L 372.508414 224.018225 
L 372.589598 148.390562 
L 372.670782 211.502071 
L 372.751966 181.219657 
L 372.83315 294.701538 
L 373.076702 139.401228 
L 373.157886 265.23351 
L 373.23907 259.893577 
L 373.401438 132.651351 
L 373.482622 208.617638 
L 373.563805 166.838918 
L 373.644989 240.420963 
L 373.726173 165.681985 
L 373.807357 280.760975 
L 373.888541 239.978453 
L 373.969725 267.388687 
L 374.050909 164.656919 
L 374.132093 249.361722 
L 374.213277 205.848962 
L 374.294461 211.677851 
L 374.375645 198.307511 
L 374.456829 205.801675 
L 374.538013 275.939767 
L 374.619197 255.187992 
L 374.700381 198.96485 
L 374.781564 244.626387 
L 374.943932 121.373288 
L 375.1063 273.345208 
L 375.187484 122.65108 
L 375.268668 181.8641 
L 375.349852 171.104337 
L 375.431036 212.343497 
L 375.593404 132.78218 
L 375.674588 125.684322 
L 375.755772 291.207567 
L 375.836956 152.306252 
L 375.91814 160.167973 
L 375.999323 261.966256 
L 376.080507 135.589567 
L 376.161691 145.324095 
L 376.242875 159.702867 
L 376.486427 270.616289 
L 376.567611 121.645567 
L 376.648795 157.203957 
L 376.729979 288.263119 
L 376.811163 156.207847 
L 376.892347 172.561575 
L 376.973531 143.907533 
L 377.054715 156.000214 
L 377.135899 264.16067 
L 377.217082 240.812409 
L 377.298266 241.891541 
L 377.37945 157.169752 
L 377.623002 273.472153 
L 377.704186 112.072084 
L 377.78537 261.720245 
L 377.866554 256.161251 
L 378.028922 183.58568 
L 378.19129 238.061659 
L 378.434841 92.938136 
L 378.516025 153.178329 
L 378.597209 92.84468 
L 378.678393 285.651979 
L 378.840761 97.128046 
L 378.921945 194.055876 
L 379.003129 143.626334 
L 379.084313 263.430255 
L 379.327865 123.025535 
L 379.409049 188.676964 
L 379.490233 107.216933 
L 379.571416 271.263395 
L 379.6526 87.506692 
L 379.896152 225.507771 
L 379.977336 209.624314 
L 380.05852 212.309065 
L 380.139704 208.833875 
L 380.220888 189.768644 
L 380.302072 266.689268 
L 380.46444 146.46865 
L 380.626808 250.490705 
L 380.707992 124.655226 
L 380.789175 147.623522 
L 380.870359 99.308 
L 380.951543 278.357586 
L 381.032727 86.495108 
L 381.113911 102.916347 
L 381.195095 237.224462 
L 381.276279 228.691889 
L 381.357463 225.924902 
L 381.438647 157.641356 
L 381.519831 211.932624 
L 381.601015 59.609774 
L 381.763383 263.925433 
L 381.844567 247.147667 
L 381.925751 97.699424 
L 382.006934 294.82084 
L 382.088118 215.861279 
L 382.169302 290.789226 
L 382.33167 168.322356 
L 382.412854 245.189012 
L 382.494038 236.353992 
L 382.575222 226.654745 
L 382.656406 202.2771 
L 382.73759 70.627621 
L 382.899958 249.785932 
L 382.981142 156.273347 
L 383.062326 233.565371 
L 383.14351 165.909583 
L 383.224693 266.039172 
L 383.305877 92.877705 
L 383.549429 289.343537 
L 383.630613 288.390393 
L 383.711797 174.339254 
L 383.792981 262.460775 
L 383.874165 98.127654 
L 383.955349 210.610487 
L 384.036533 199.390167 
L 384.117717 237.902294 
L 384.361268 93.968576 
L 384.523636 280.31882 
L 384.60482 266.30001 
L 384.686004 143.243489 
L 384.848372 248.76855 
L 384.929556 203.135183 
L 385.091924 249.809349 
L 385.173108 148.380567 
L 385.254292 294.949197 
L 385.335476 209.637892 
L 385.497844 288.914615 
L 385.741395 109.396024 
L 385.822579 132.500415 
L 385.903763 97.783914 
L 385.984947 167.84371 
L 386.066131 92.892016 
L 386.147315 142.876679 
L 386.228499 293.10364 
L 386.309683 152.621155 
L 386.390867 200.916819 
L 386.553235 272.159439 
L 386.87797 106.516275 
L 386.959154 124.889709 
L 387.040338 221.316955 
L 387.121522 194.139182 
L 387.202706 139.351939 
L 387.28389 178.60736 
L 387.365074 120.412844 
L 387.527442 289.017457 
L 387.68981 182.585196 
L 387.770994 154.62494 
L 387.852178 78.725264 
L 388.014545 219.532205 
L 388.095729 102.366473 
L 388.176913 152.116629 
L 388.258097 294.312756 
L 388.339281 247.233712 
L 388.420465 239.83014 
L 388.501649 265.249176 
L 388.582833 235.850763 
L 388.664017 239.60175 
L 388.745201 234.063947 
L 388.826385 259.132381 
L 388.988753 139.945182 
L 389.069937 171.449075 
L 389.232304 258.213355 
L 389.313488 122.542803 
L 389.475856 261.924822 
L 389.55704 127.573929 
L 389.719408 264.681824 
L 389.800592 149.311716 
L 389.881776 235.886801 
L 389.96296 125.015817 
L 390.044144 130.739998 
L 390.125328 251.584442 
L 390.206512 243.777681 
L 390.287696 97.387883 
L 390.368879 212.83422 
L 390.450063 201.032516 
L 390.531247 157.411446 
L 390.612431 170.476322 
L 390.855983 263.522132 
L 390.937167 101.59134 
L 391.018351 267.065194 
L 391.099535 265.425743 
L 391.261903 146.826069 
L 391.343087 249.640718 
L 391.424271 229.687889 
L 391.586638 294.501996 
L 391.749006 92.929995 
L 391.83019 219.646007 
L 391.911374 147.017383 
L 392.073742 258.121863 
L 392.23611 237.066962 
L 392.317294 127.355984 
L 392.479662 227.068069 
L 392.560846 176.007658 
L 392.64203 280.326545 
L 392.723214 106.621073 
L 392.804397 212.686046 
L 392.885581 124.850121 
L 393.047949 262.382274 
L 393.129133 166.692574 
L 393.210317 254.319135 
L 393.291501 174.644871 
L 393.372685 211.67916 
L 393.453869 106.517952 
L 393.616237 191.521401 
L 393.697421 202.657483 
L 393.778605 293.72055 
L 393.859789 177.1028 
L 393.940973 193.710115 
L 394.10334 123.376028 
L 394.184524 266.96329 
L 394.346892 177.982322 
L 394.50926 256.417553 
L 394.590444 186.558407 
L 394.671628 221.526347 
L 394.752812 209.252245 
L 394.833996 232.229999 
L 394.91518 193.036349 
L 394.996364 239.589555 
L 395.158732 131.07149 
L 395.239915 191.562821 
L 395.321099 171.155321 
L 395.402283 97.783914 
L 395.564651 238.652273 
L 395.645835 224.691606 
L 395.727019 250.541026 
L 395.808203 222.024655 
L 395.889387 222.12392 
L 395.970571 292.844547 
L 396.132939 136.398958 
L 396.214123 283.916548 
L 396.295307 253.780503 
L 396.37649 117.229454 
L 396.457674 276.029469 
L 396.538858 266.952786 
L 396.620042 177.131317 
L 396.701226 177.20701 
L 396.78241 257.995485 
L 396.944778 211.916165 
L 397.025962 266.150824 
L 397.18833 186.848102 
L 397.269514 282.677916 
L 397.431882 150.766557 
L 397.594249 292.877157 
L 397.675433 224.235231 
L 397.756617 241.158282 
L 397.837801 294.185915 
L 398.000169 121.381148 
L 398.081353 136.327504 
L 398.243721 266.216274 
L 398.324905 70.273698 
L 398.406089 256.572858 
L 398.487273 214.743893 
" clip-path="url(#p1af670af38)" style="fill: none; stroke: #1f77b4; stroke-width: 1.5; stroke-linecap: square"/>
   </g>
   <g id="patch_3">
    <path d="M 57.6 307.584 
L 57.6 41.472 
" style="fill: none; stroke: #000000; stroke-width: 0.8; stroke-linejoin: miter; stroke-linecap: square"/>
   </g>
   <g id="patch_4">
    <path d="M 414.72 307.584 
L 414.72 41.472 
" style="fill: none; stroke: #000000; stroke-width: 0.8; stroke-linejoin: miter; stroke-linecap: square"/>
   </g>
   <g id="patch_5">
    <path d="M 57.6 307.584 
L 414.72 307.584 
" style="fill: none; stroke: #000000; stroke-width: 0.8; stroke-linejoin: miter; stroke-linecap: square"/>
   </g>
   <g id="patch_6">
    <path d="M 57.6 41.472 
L 414.72 41.472 
" style="fill: none; stroke: #000000; stroke-width: 0.8; stroke-linejoin: miter; stroke-linecap: square"/>
   </g>
  </g>
 </g>
 <defs>
  <clipPath id="p1af670af38">
   <rect x="57.6" y="41.472" width="357.12" height="266.112"/>
  </clipPath>
 </defs>
</svg>
