<?xml version="1.0" encoding="utf-8" standalone="no"?>
<!DOCTYPE svg PUBLIC "-//W3C//DTD SVG 1.1//EN"
  "http://www.w3.org/Graphics/SVG/1.1/DTD/svg11.dtd">
<svg xmlns:xlink="http://www.w3.org/1999/xlink" width="460.8pt" height="345.6pt" viewBox="0 0 460.8 345.6" xmlns="http://www.w3.org/2000/svg" version="1.1">
 <metadata>
  <rdf:RDF xmlns:dc="http://purl.org/dc/elements/1.1/" xmlns:cc="http://creativecommons.org/ns#" xmlns:rdf="http://www.w3.org/1999/02/22-rdf-syntax-ns#">
   <cc:Work>
    <dc:type rdf:resource="http://purl.org/dc/dcmitype/StillImage"/>
    <dc:date>2024-04-17T17:38:40.610679</dc:date>
    <dc:format>image/svg+xml</dc:format>
    <dc:creator>
     <cc:Agent>
      <dc:title>Matplotlib v3.8.2, https://matplotlib.org/</dc:title>
     </cc:Agent>
    </dc:creator>
   </cc:Work>
  </rdf:RDF>
 </metadata>
 <defs>
  <style type="text/css">*{stroke-linejoin: round; stroke-linecap: butt}</style>
 </defs>
 <g id="figure_1">
  <g id="patch_1">
   <path d="M 0 345.6 
L 460.8 345.6 
L 460.8 0 
L 0 0 
z
" style="fill: #ffffff"/>
  </g>
  <g id="axes_1">
   <g id="patch_2">
    <path d="M 57.6 307.584 
L 414.72 307.584 
L 414.72 41.472 
L 57.6 41.472 
z
" style="fill: #ffffff"/>
   </g>
   <g id="matplotlib.axis_1">
    <g id="xtick_1">
     <g id="line2d_1">
      <defs>
       <path id="m6459bce70c" d="M 0 0 
L 0 3.5 
" style="stroke: #000000; stroke-width: 0.8"/>
      </defs>
      <g>
       <use xlink:href="#m6459bce70c" x="73.832727" y="307.584" style="stroke: #000000; stroke-width: 0.8"/>
      </g>
     </g>
     <g id="text_1">
      <!-- 0 -->
      <g transform="translate(70.651477 322.182437) scale(0.1 -0.1)">
       <defs>
        <path id="DejaVuSans-30" d="M 2034 4250 
Q 1547 4250 1301 3770 
Q 1056 3291 1056 2328 
Q 1056 1369 1301 889 
Q 1547 409 2034 409 
Q 2525 409 2770 889 
Q 3016 1369 3016 2328 
Q 3016 3291 2770 3770 
Q 2525 4250 2034 4250 
z
M 2034 4750 
Q 2819 4750 3233 4129 
Q 3647 3509 3647 2328 
Q 3647 1150 3233 529 
Q 2819 -91 2034 -91 
Q 1250 -91 836 529 
Q 422 1150 422 2328 
Q 422 3509 836 4129 
Q 1250 4750 2034 4750 
z
" transform="scale(0.015625)"/>
       </defs>
       <use xlink:href="#DejaVuSans-30"/>
      </g>
     </g>
    </g>
    <g id="xtick_2">
     <g id="line2d_2">
      <g>
       <use xlink:href="#m6459bce70c" x="114.434847" y="307.584" style="stroke: #000000; stroke-width: 0.8"/>
      </g>
     </g>
     <g id="text_2">
      <!-- 250 -->
      <g transform="translate(104.891097 322.182437) scale(0.1 -0.1)">
       <defs>
        <path id="DejaVuSans-32" d="M 1228 531 
L 3431 531 
L 3431 0 
L 469 0 
L 469 531 
Q 828 903 1448 1529 
Q 2069 2156 2228 2338 
Q 2531 2678 2651 2914 
Q 2772 3150 2772 3378 
Q 2772 3750 2511 3984 
Q 2250 4219 1831 4219 
Q 1534 4219 1204 4116 
Q 875 4013 500 3803 
L 500 4441 
Q 881 4594 1212 4672 
Q 1544 4750 1819 4750 
Q 2544 4750 2975 4387 
Q 3406 4025 3406 3419 
Q 3406 3131 3298 2873 
Q 3191 2616 2906 2266 
Q 2828 2175 2409 1742 
Q 1991 1309 1228 531 
z
" transform="scale(0.015625)"/>
        <path id="DejaVuSans-35" d="M 691 4666 
L 3169 4666 
L 3169 4134 
L 1269 4134 
L 1269 2991 
Q 1406 3038 1543 3061 
Q 1681 3084 1819 3084 
Q 2600 3084 3056 2656 
Q 3513 2228 3513 1497 
Q 3513 744 3044 326 
Q 2575 -91 1722 -91 
Q 1428 -91 1123 -41 
Q 819 9 494 109 
L 494 744 
Q 775 591 1075 516 
Q 1375 441 1709 441 
Q 2250 441 2565 725 
Q 2881 1009 2881 1497 
Q 2881 1984 2565 2268 
Q 2250 2553 1709 2553 
Q 1456 2553 1204 2497 
Q 953 2441 691 2322 
L 691 4666 
z
" transform="scale(0.015625)"/>
       </defs>
       <use xlink:href="#DejaVuSans-32"/>
       <use xlink:href="#DejaVuSans-35" x="63.623047"/>
       <use xlink:href="#DejaVuSans-30" x="127.246094"/>
      </g>
     </g>
    </g>
    <g id="xtick_3">
     <g id="line2d_3">
      <g>
       <use xlink:href="#m6459bce70c" x="155.036966" y="307.584" style="stroke: #000000; stroke-width: 0.8"/>
      </g>
     </g>
     <g id="text_3">
      <!-- 500 -->
      <g transform="translate(145.493216 322.182437) scale(0.1 -0.1)">
       <use xlink:href="#DejaVuSans-35"/>
       <use xlink:href="#DejaVuSans-30" x="63.623047"/>
       <use xlink:href="#DejaVuSans-30" x="127.246094"/>
      </g>
     </g>
    </g>
    <g id="xtick_4">
     <g id="line2d_4">
      <g>
       <use xlink:href="#m6459bce70c" x="195.639085" y="307.584" style="stroke: #000000; stroke-width: 0.8"/>
      </g>
     </g>
     <g id="text_4">
      <!-- 750 -->
      <g transform="translate(186.095335 322.182437) scale(0.1 -0.1)">
       <defs>
        <path id="DejaVuSans-37" d="M 525 4666 
L 3525 4666 
L 3525 4397 
L 1831 0 
L 1172 0 
L 2766 4134 
L 525 4134 
L 525 4666 
z
" transform="scale(0.015625)"/>
       </defs>
       <use xlink:href="#DejaVuSans-37"/>
       <use xlink:href="#DejaVuSans-35" x="63.623047"/>
       <use xlink:href="#DejaVuSans-30" x="127.246094"/>
      </g>
     </g>
    </g>
    <g id="xtick_5">
     <g id="line2d_5">
      <g>
       <use xlink:href="#m6459bce70c" x="236.241204" y="307.584" style="stroke: #000000; stroke-width: 0.8"/>
      </g>
     </g>
     <g id="text_5">
      <!-- 1000 -->
      <g transform="translate(223.516204 322.182437) scale(0.1 -0.1)">
       <defs>
        <path id="DejaVuSans-31" d="M 794 531 
L 1825 531 
L 1825 4091 
L 703 3866 
L 703 4441 
L 1819 4666 
L 2450 4666 
L 2450 531 
L 3481 531 
L 3481 0 
L 794 0 
L 794 531 
z
" transform="scale(0.015625)"/>
       </defs>
       <use xlink:href="#DejaVuSans-31"/>
       <use xlink:href="#DejaVuSans-30" x="63.623047"/>
       <use xlink:href="#DejaVuSans-30" x="127.246094"/>
       <use xlink:href="#DejaVuSans-30" x="190.869141"/>
      </g>
     </g>
    </g>
    <g id="xtick_6">
     <g id="line2d_6">
      <g>
       <use xlink:href="#m6459bce70c" x="276.843323" y="307.584" style="stroke: #000000; stroke-width: 0.8"/>
      </g>
     </g>
     <g id="text_6">
      <!-- 1250 -->
      <g transform="translate(264.118323 322.182437) scale(0.1 -0.1)">
       <use xlink:href="#DejaVuSans-31"/>
       <use xlink:href="#DejaVuSans-32" x="63.623047"/>
       <use xlink:href="#DejaVuSans-35" x="127.246094"/>
       <use xlink:href="#DejaVuSans-30" x="190.869141"/>
      </g>
     </g>
    </g>
    <g id="xtick_7">
     <g id="line2d_7">
      <g>
       <use xlink:href="#m6459bce70c" x="317.445443" y="307.584" style="stroke: #000000; stroke-width: 0.8"/>
      </g>
     </g>
     <g id="text_7">
      <!-- 1500 -->
      <g transform="translate(304.720443 322.182437) scale(0.1 -0.1)">
       <use xlink:href="#DejaVuSans-31"/>
       <use xlink:href="#DejaVuSans-35" x="63.623047"/>
       <use xlink:href="#DejaVuSans-30" x="127.246094"/>
       <use xlink:href="#DejaVuSans-30" x="190.869141"/>
      </g>
     </g>
    </g>
    <g id="xtick_8">
     <g id="line2d_8">
      <g>
       <use xlink:href="#m6459bce70c" x="358.047562" y="307.584" style="stroke: #000000; stroke-width: 0.8"/>
      </g>
     </g>
     <g id="text_8">
      <!-- 1750 -->
      <g transform="translate(345.322562 322.182437) scale(0.1 -0.1)">
       <use xlink:href="#DejaVuSans-31"/>
       <use xlink:href="#DejaVuSans-37" x="63.623047"/>
       <use xlink:href="#DejaVuSans-35" x="127.246094"/>
       <use xlink:href="#DejaVuSans-30" x="190.869141"/>
      </g>
     </g>
    </g>
    <g id="xtick_9">
     <g id="line2d_9">
      <g>
       <use xlink:href="#m6459bce70c" x="398.649681" y="307.584" style="stroke: #000000; stroke-width: 0.8"/>
      </g>
     </g>
     <g id="text_9">
      <!-- 2000 -->
      <g transform="translate(385.924681 322.182437) scale(0.1 -0.1)">
       <use xlink:href="#DejaVuSans-32"/>
       <use xlink:href="#DejaVuSans-30" x="63.623047"/>
       <use xlink:href="#DejaVuSans-30" x="127.246094"/>
       <use xlink:href="#DejaVuSans-30" x="190.869141"/>
      </g>
     </g>
    </g>
   </g>
   <g id="matplotlib.axis_2">
    <g id="ytick_1">
     <g id="line2d_10">
      <defs>
       <path id="m1ba7027868" d="M 0 0 
L -3.5 0 
" style="stroke: #000000; stroke-width: 0.8"/>
      </defs>
      <g>
       <use xlink:href="#m1ba7027868" x="57.6" y="295.491194" style="stroke: #000000; stroke-width: 0.8"/>
      </g>
     </g>
     <g id="text_10">
      <!-- 0.0 -->
      <g transform="translate(34.696875 299.290413) scale(0.1 -0.1)">
       <defs>
        <path id="DejaVuSans-2e" d="M 684 794 
L 1344 794 
L 1344 0 
L 684 0 
L 684 794 
z
" transform="scale(0.015625)"/>
       </defs>
       <use xlink:href="#DejaVuSans-30"/>
       <use xlink:href="#DejaVuSans-2e" x="63.623047"/>
       <use xlink:href="#DejaVuSans-30" x="95.410156"/>
      </g>
     </g>
    </g>
    <g id="ytick_2">
     <g id="line2d_11">
      <g>
       <use xlink:href="#m1ba7027868" x="57.6" y="262.27632" style="stroke: #000000; stroke-width: 0.8"/>
      </g>
     </g>
     <g id="text_11">
      <!-- 0.5 -->
      <g transform="translate(34.696875 266.075539) scale(0.1 -0.1)">
       <use xlink:href="#DejaVuSans-30"/>
       <use xlink:href="#DejaVuSans-2e" x="63.623047"/>
       <use xlink:href="#DejaVuSans-35" x="95.410156"/>
      </g>
     </g>
    </g>
    <g id="ytick_3">
     <g id="line2d_12">
      <g>
       <use xlink:href="#m1ba7027868" x="57.6" y="229.061446" style="stroke: #000000; stroke-width: 0.8"/>
      </g>
     </g>
     <g id="text_12">
      <!-- 1.0 -->
      <g transform="translate(34.696875 232.860664) scale(0.1 -0.1)">
       <use xlink:href="#DejaVuSans-31"/>
       <use xlink:href="#DejaVuSans-2e" x="63.623047"/>
       <use xlink:href="#DejaVuSans-30" x="95.410156"/>
      </g>
     </g>
    </g>
    <g id="ytick_4">
     <g id="line2d_13">
      <g>
       <use xlink:href="#m1ba7027868" x="57.6" y="195.846571" style="stroke: #000000; stroke-width: 0.8"/>
      </g>
     </g>
     <g id="text_13">
      <!-- 1.5 -->
      <g transform="translate(34.696875 199.64579) scale(0.1 -0.1)">
       <use xlink:href="#DejaVuSans-31"/>
       <use xlink:href="#DejaVuSans-2e" x="63.623047"/>
       <use xlink:href="#DejaVuSans-35" x="95.410156"/>
      </g>
     </g>
    </g>
    <g id="ytick_5">
     <g id="line2d_14">
      <g>
       <use xlink:href="#m1ba7027868" x="57.6" y="162.631697" style="stroke: #000000; stroke-width: 0.8"/>
      </g>
     </g>
     <g id="text_14">
      <!-- 2.0 -->
      <g transform="translate(34.696875 166.430916) scale(0.1 -0.1)">
       <use xlink:href="#DejaVuSans-32"/>
       <use xlink:href="#DejaVuSans-2e" x="63.623047"/>
       <use xlink:href="#DejaVuSans-30" x="95.410156"/>
      </g>
     </g>
    </g>
    <g id="ytick_6">
     <g id="line2d_15">
      <g>
       <use xlink:href="#m1ba7027868" x="57.6" y="129.416823" style="stroke: #000000; stroke-width: 0.8"/>
      </g>
     </g>
     <g id="text_15">
      <!-- 2.5 -->
      <g transform="translate(34.696875 133.216041) scale(0.1 -0.1)">
       <use xlink:href="#DejaVuSans-32"/>
       <use xlink:href="#DejaVuSans-2e" x="63.623047"/>
       <use xlink:href="#DejaVuSans-35" x="95.410156"/>
      </g>
     </g>
    </g>
    <g id="ytick_7">
     <g id="line2d_16">
      <g>
       <use xlink:href="#m1ba7027868" x="57.6" y="96.201948" style="stroke: #000000; stroke-width: 0.8"/>
      </g>
     </g>
     <g id="text_16">
      <!-- 3.0 -->
      <g transform="translate(34.696875 100.001167) scale(0.1 -0.1)">
       <defs>
        <path id="DejaVuSans-33" d="M 2597 2516 
Q 3050 2419 3304 2112 
Q 3559 1806 3559 1356 
Q 3559 666 3084 287 
Q 2609 -91 1734 -91 
Q 1441 -91 1130 -33 
Q 819 25 488 141 
L 488 750 
Q 750 597 1062 519 
Q 1375 441 1716 441 
Q 2309 441 2620 675 
Q 2931 909 2931 1356 
Q 2931 1769 2642 2001 
Q 2353 2234 1838 2234 
L 1294 2234 
L 1294 2753 
L 1863 2753 
Q 2328 2753 2575 2939 
Q 2822 3125 2822 3475 
Q 2822 3834 2567 4026 
Q 2313 4219 1838 4219 
Q 1578 4219 1281 4162 
Q 984 4106 628 3988 
L 628 4550 
Q 988 4650 1302 4700 
Q 1616 4750 1894 4750 
Q 2613 4750 3031 4423 
Q 3450 4097 3450 3541 
Q 3450 3153 3228 2886 
Q 3006 2619 2597 2516 
z
" transform="scale(0.015625)"/>
       </defs>
       <use xlink:href="#DejaVuSans-33"/>
       <use xlink:href="#DejaVuSans-2e" x="63.623047"/>
       <use xlink:href="#DejaVuSans-30" x="95.410156"/>
      </g>
     </g>
    </g>
    <g id="ytick_8">
     <g id="line2d_17">
      <g>
       <use xlink:href="#m1ba7027868" x="57.6" y="62.987074" style="stroke: #000000; stroke-width: 0.8"/>
      </g>
     </g>
     <g id="text_17">
      <!-- 3.5 -->
      <g transform="translate(34.696875 66.786293) scale(0.1 -0.1)">
       <use xlink:href="#DejaVuSans-33"/>
       <use xlink:href="#DejaVuSans-2e" x="63.623047"/>
       <use xlink:href="#DejaVuSans-35" x="95.410156"/>
      </g>
     </g>
    </g>
    <g id="text_18">
     <!-- 1e6 -->
     <g transform="translate(57.6 38.472) scale(0.1 -0.1)">
      <defs>
       <path id="DejaVuSans-65" d="M 3597 1894 
L 3597 1613 
L 953 1613 
Q 991 1019 1311 708 
Q 1631 397 2203 397 
Q 2534 397 2845 478 
Q 3156 559 3463 722 
L 3463 178 
Q 3153 47 2828 -22 
Q 2503 -91 2169 -91 
Q 1331 -91 842 396 
Q 353 884 353 1716 
Q 353 2575 817 3079 
Q 1281 3584 2069 3584 
Q 2775 3584 3186 3129 
Q 3597 2675 3597 1894 
z
M 3022 2063 
Q 3016 2534 2758 2815 
Q 2500 3097 2075 3097 
Q 1594 3097 1305 2825 
Q 1016 2553 972 2059 
L 3022 2063 
z
" transform="scale(0.015625)"/>
       <path id="DejaVuSans-36" d="M 2113 2584 
Q 1688 2584 1439 2293 
Q 1191 2003 1191 1497 
Q 1191 994 1439 701 
Q 1688 409 2113 409 
Q 2538 409 2786 701 
Q 3034 994 3034 1497 
Q 3034 2003 2786 2293 
Q 2538 2584 2113 2584 
z
M 3366 4563 
L 3366 3988 
Q 3128 4100 2886 4159 
Q 2644 4219 2406 4219 
Q 1781 4219 1451 3797 
Q 1122 3375 1075 2522 
Q 1259 2794 1537 2939 
Q 1816 3084 2150 3084 
Q 2853 3084 3261 2657 
Q 3669 2231 3669 1497 
Q 3669 778 3244 343 
Q 2819 -91 2113 -91 
Q 1303 -91 875 529 
Q 447 1150 447 2328 
Q 447 3434 972 4092 
Q 1497 4750 2381 4750 
Q 2619 4750 2861 4703 
Q 3103 4656 3366 4563 
z
" transform="scale(0.015625)"/>
      </defs>
      <use xlink:href="#DejaVuSans-31"/>
      <use xlink:href="#DejaVuSans-65" x="63.623047"/>
      <use xlink:href="#DejaVuSans-36" x="125.146484"/>
     </g>
    </g>
   </g>
   <g id="line2d_18">
    <path d="M 73.832727 54.441551 
L 74.157544 295.454326 
L 74.319953 288.811201 
L 74.482361 295.454659 
L 74.64477 295.454217 
L 74.807178 288.811409 
L 74.969587 295.454455 
L 75.131995 295.454121 
L 75.294404 288.811397 
L 75.456812 295.454412 
L 75.619221 288.811832 
L 75.781629 295.454796 
L 75.944037 288.811858 
L 76.431263 288.811648 
L 76.593671 295.454117 
L 76.75608 282.168579 
L 76.918488 288.811462 
L 77.080897 288.811508 
L 77.243305 295.45466 
L 77.405714 288.811989 
L 77.568122 288.813961 
L 77.730531 295.454557 
L 77.892939 295.453942 
L 78.055348 288.845527 
L 78.217756 295.39155 
L 79.029799 295.486541 
L 79.679432 295.451371 
L 80.004249 295.485354 
L 80.166658 288.807643 
L 80.329066 295.451127 
L 80.816292 295.451033 
L 80.9787 243.79596 
L 81.141109 288.808879 
L 81.303517 265.53049 
L 81.628334 295.454529 
L 81.953151 295.452895 
L 82.11556 275.200418 
L 82.277968 295.452022 
L 82.440377 295.45464 
L 82.602785 265.146821 
L 82.765194 295.454131 
L 82.927602 283.947907 
L 83.09001 288.845585 
L 83.252419 288.811886 
L 83.577236 232.523075 
L 83.739644 295.453224 
L 83.902053 288.811489 
L 84.22687 288.811504 
L 84.389278 295.454268 
L 85.526138 295.454624 
L 86.013363 215.033772 
L 86.175772 221.810235 
L 86.33818 157.061539 
L 86.500588 295.454592 
L 86.662997 295.454181 
L 86.825405 288.811604 
L 86.987814 288.811954 
L 87.150222 53.701524 
L 87.312631 53.938014 
L 87.475039 53.925724 
L 87.637448 54.059248 
L 87.799856 53.65768 
L 87.962265 54.015404 
L 88.124673 53.70252 
L 88.287082 54.237612 
L 88.44949 53.7922 
L 88.611899 53.848334 
L 88.774307 53.65768 
L 89.099124 54.027694 
L 89.261533 53.75965 
L 89.423941 54.115381 
L 89.748758 53.924728 
L 89.911166 53.880884 
L 90.073575 288.811506 
L 90.235983 54.117374 
L 90.398392 54.206058 
L 90.5608 54.071537 
L 90.723209 54.084823 
L 90.885617 54.441551 
L 91.048026 54.04098 
L 91.210434 53.938014 
L 91.372843 53.568 
L 91.535251 53.65768 
L 91.69766 54.071537 
L 91.860068 53.880884 
L 92.022477 54.103092 
L 92.184885 253.474515 
L 92.347294 208.128276 
L 92.509702 290.23009 
L 92.672111 215.237569 
L 92.834519 287.021321 
L 92.996928 284.786249 
L 93.159336 295.452028 
L 93.321745 288.81164 
L 93.484153 158.191511 
L 93.646561 295.454594 
L 93.80897 288.809364 
L 93.971378 295.454643 
L 94.133787 295.454659 
L 94.296195 121.590959 
L 94.458604 295.454661 
L 94.621012 295.454659 
L 94.783421 54.014408 
L 94.945829 288.809183 
L 95.108238 53.74736 
L 95.270646 53.816779 
L 95.433055 53.71481 
L 95.595463 125.243685 
L 95.757872 54.117374 
L 95.92028 54.339582 
L 96.082689 295.454482 
L 96.245097 295.454664 
L 96.407506 53.581286 
L 96.569914 158.038712 
L 96.894731 53.924728 
L 97.057139 53.836044 
L 97.219548 288.811384 
L 97.381956 202.827085 
L 97.544365 53.879888 
L 97.706773 288.810972 
L 97.869182 214.050453 
L 98.03159 213.774556 
L 98.356407 295.454331 
L 98.518816 105.182222 
L 98.681224 295.39155 
L 98.843633 288.811555 
L 99.16845 295.453897 
L 99.330858 295.452092 
L 99.493267 231.946972 
L 99.655675 295.454503 
L 99.818084 193.493915 
L 99.980492 295.451447 
L 100.142901 167.031536 
L 100.305309 295.453992 
L 100.467717 295.45466 
L 100.630126 282.169659 
L 100.792534 197.168113 
L 100.954943 282.20179 
L 101.117351 295.451461 
L 101.27976 85.840188 
L 101.442168 53.71481 
L 101.604577 295.451744 
L 101.766985 53.880884 
L 101.929394 53.71481 
L 102.091802 295.454859 
L 102.254211 54.071537 
L 102.416619 295.451612 
L 102.579028 295.452583 
L 102.741436 172.070381 
L 102.903845 159.231829 
L 103.066253 178.809868 
L 103.228662 53.848334 
L 103.39107 288.841551 
L 103.553479 152.743561 
L 103.715887 142.689494 
L 103.878296 295.451449 
L 104.203112 113.045615 
L 104.365521 295.451457 
L 104.527929 274.372238 
L 104.690338 96.61047 
L 104.852746 295.451439 
L 105.015155 135.554133 
L 105.177563 292.880084 
L 105.339972 295.452117 
L 105.50238 282.791159 
L 105.664789 126.696479 
L 105.827197 288.80848 
L 105.989606 270.035933 
L 106.152014 295.451175 
L 106.314423 288.811624 
L 106.476831 151.676327 
L 106.63924 126.126475 
L 106.964057 288.841271 
L 107.126465 288.808925 
L 107.288874 295.451373 
L 107.451282 295.454583 
L 107.61369 72.126013 
L 107.776099 132.773901 
L 107.938507 295.45125 
L 108.100916 88.006259 
L 108.263324 295.451614 
L 108.425733 125.768007 
L 108.75055 73.190217 
L 108.912958 125.966703 
L 109.075367 90.993426 
L 109.237775 295.451593 
L 109.400184 293.996399 
L 109.562592 136.351184 
L 109.725001 288.813736 
L 109.887409 295.451709 
L 110.049818 109.231543 
L 110.374635 96.870543 
L 110.537043 154.274823 
L 110.699452 113.57151 
L 110.86186 135.27322 
L 111.024268 110.687379 
L 111.186677 295.48505 
L 111.349085 163.876864 
L 111.511494 159.762602 
L 111.673902 295.424764 
L 111.836311 167.841499 
L 111.998719 295.421416 
L 112.161128 288.846172 
L 112.323536 153.373398 
L 112.485945 157.501787 
L 112.648353 295.454434 
L 112.810762 292.899264 
L 112.97317 53.80449 
L 113.135579 54.205061 
L 113.297987 116.397884 
L 113.460396 292.931577 
L 113.622804 288.846013 
L 113.785213 68.912883 
L 113.947621 120.645554 
L 114.11003 295.39155 
L 114.272438 135.931559 
L 114.434847 286.39123 
L 114.597255 93.704121 
L 114.759663 98.206065 
L 114.922072 107.927986 
L 115.08448 295.423934 
L 115.246889 53.93901 
L 115.409297 288.924582 
L 115.571706 295.454237 
L 115.896523 295.39155 
L 116.058931 87.49498 
L 116.22134 295.454563 
L 116.383748 289.581913 
L 116.546157 54.294741 
L 116.870974 54.161218 
L 117.033382 53.74736 
L 117.195791 54.128667 
L 117.520608 54.105749 
L 117.683016 129.219471 
L 117.845425 54.237612 
L 118.007833 71.972432 
L 118.170241 54.219344 
L 118.33265 288.812826 
L 118.495058 54.161218 
L 118.657467 53.670966 
L 118.819875 54.843119 
L 118.982284 95.156346 
L 119.144692 54.532892 
L 119.307101 277.848132 
L 119.469509 295.39155 
L 119.631918 54.059248 
L 119.794326 53.835048 
L 119.956735 54.072534 
L 120.281552 53.791204 
L 120.44396 54.339582 
L 120.606369 295.423435 
L 120.768777 295.423326 
L 120.931186 53.626126 
L 121.093594 54.147932 
L 121.256003 288.844864 
L 121.418411 55.238708 
L 121.58082 55.919945 
L 121.743228 71.292113 
L 121.905636 55.462909 
L 122.230453 53.9513 
L 122.392862 79.275648 
L 122.55527 54.652466 
L 122.717679 81.253742 
L 122.880087 62.273768 
L 123.042496 98.474236 
L 123.204904 288.811518 
L 123.367313 104.854655 
L 123.529721 54.192772 
L 123.854538 141.388791 
L 124.016947 98.001848 
L 124.179355 295.454357 
L 124.341764 53.982854 
L 124.666581 107.502544 
L 124.828989 54.147932 
L 124.991398 295.451619 
L 125.153806 55.349314 
L 125.316214 55.30547 
L 125.478623 55.539303 
L 125.641031 106.5521 
L 125.80344 82.656258 
L 125.965848 133.53469 
L 126.290665 295.451263 
L 126.453074 55.167296 
L 126.615482 280.707801 
L 126.777891 177.18971 
L 126.940299 191.005549 
L 127.102708 84.686027 
L 127.265116 289.853966 
L 127.427525 286.386678 
L 127.589933 295.452062 
L 127.752342 288.843451 
L 127.91475 295.423084 
L 128.077159 295.451125 
L 128.239567 273.29836 
L 128.401976 54.219344 
L 128.564384 54.575075 
L 128.889201 283.415926 
L 129.051609 205.765914 
L 129.214018 295.484616 
L 129.376426 294.929891 
L 129.538835 288.786 
L 129.701243 245.390542 
L 129.863652 295.451839 
L 130.188469 239.262599 
L 130.350877 294.414276 
L 130.513286 254.138676 
L 130.675694 295.451134 
L 131.000511 288.808706 
L 131.16292 272.100841 
L 131.325328 107.947124 
L 131.487737 279.254837 
L 131.650145 291.568185 
L 131.812554 101.041638 
L 131.974962 291.703404 
L 132.137371 80.889412 
L 132.299779 288.146684 
L 132.462187 212.828859 
L 132.624596 277.643328 
L 132.787004 295.484637 
L 132.949413 295.452609 
L 133.111821 291.941508 
L 133.27423 295.451254 
L 133.436638 268.686287 
L 133.599047 295.451116 
L 133.761455 242.353522 
L 133.923864 288.808879 
L 134.086272 148.794647 
L 134.248681 295.450983 
L 134.411089 295.451043 
L 134.573498 288.841013 
L 134.898315 116.43098 
L 135.060723 138.240222 
L 135.223132 190.294268 
L 135.38554 150.049464 
L 135.547949 183.840714 
L 135.710357 285.543339 
L 135.872765 295.454387 
L 136.035174 290.185016 
L 136.197582 165.862789 
L 136.359991 240.038961 
L 136.522399 112.008599 
L 136.684808 267.00403 
L 136.847216 284.210556 
L 137.009625 103.398015 
L 137.49685 288.844718 
L 137.659259 288.779862 
L 137.821667 263.46694 
L 137.984076 154.306996 
L 138.146484 123.982991 
L 138.308893 206.455335 
L 138.63371 258.548246 
L 138.796118 112.275499 
L 138.958527 159.13547 
L 139.120935 251.351283 
L 139.283343 141.952827 
L 139.60816 119.16988 
L 139.770569 199.310815 
L 140.095386 134.551152 
L 140.257794 181.159909 
L 140.420203 169.961572 
L 140.582611 218.100537 
L 140.74502 115.774724 
L 140.907428 156.200247 
L 141.069837 291.730375 
L 141.394654 139.44844 
L 141.557062 142.179696 
L 141.881879 79.200632 
L 142.044288 180.026769 
L 142.206696 177.800569 
L 142.369105 169.534086 
L 142.531513 127.38181 
L 142.85633 282.203727 
L 143.018738 248.14004 
L 143.181147 288.845588 
L 143.343555 295.451148 
L 143.505964 209.335906 
L 143.668372 270.584933 
L 143.830781 206.03871 
L 143.993189 204.976693 
L 144.155598 200.155814 
L 144.480415 236.646745 
L 144.805232 248.099215 
L 144.96764 205.986924 
L 145.130049 288.814738 
L 145.292457 295.451154 
L 145.454866 295.451232 
L 145.617274 262.026674 
L 145.779683 288.842824 
L 145.942091 269.447586 
L 146.1045 287.430073 
L 146.266908 259.700506 
L 146.429316 288.813742 
L 146.591725 253.179921 
L 146.754133 295.451501 
L 146.916542 211.065851 
L 147.07895 273.603901 
L 147.403767 295.45473 
L 147.566176 288.807827 
L 147.728584 288.77458 
L 147.890993 252.974365 
L 148.053401 295.418143 
L 148.21581 281.069986 
L 148.378218 220.400034 
L 148.540627 236.513528 
L 148.703035 269.857268 
L 148.865444 195.882642 
L 149.027852 278.645938 
L 149.190261 212.714225 
L 149.352669 233.106884 
L 149.515078 228.706006 
L 149.677486 232.311155 
L 149.839894 295.453992 
L 150.002303 249.280345 
L 150.164711 288.843633 
L 150.32712 210.309627 
L 150.489528 232.042177 
L 150.651937 225.700796 
L 150.814345 205.543023 
L 150.976754 288.843858 
L 151.139162 234.914274 
L 151.301571 288.091916 
L 151.463979 295.39155 
L 151.788796 202.288963 
L 151.951205 254.033251 
L 152.113613 253.861995 
L 152.276022 209.036489 
L 152.43843 224.143186 
L 152.600839 225.214941 
L 152.763247 236.633772 
L 152.925656 189.896567 
L 153.088064 198.666729 
L 153.250473 276.798527 
L 153.412881 189.280803 
L 153.575289 227.991926 
L 153.737698 203.023052 
L 153.900106 295.452345 
L 154.062515 202.175228 
L 154.224923 232.631131 
L 154.387332 229.792276 
L 154.54974 244.387451 
L 154.712149 192.649253 
L 154.874557 195.855582 
L 155.036966 208.01237 
L 155.199374 232.768952 
L 155.361783 186.882357 
L 155.524191 211.797705 
L 155.6866 191.544177 
L 155.849008 257.443887 
L 156.011417 212.809649 
L 156.173825 220.045023 
L 156.336234 178.250665 
L 156.498642 288.000355 
L 156.661051 230.862489 
L 156.823459 273.890241 
L 156.985867 165.483633 
L 157.310684 224.975676 
L 157.473093 218.359279 
L 157.635501 276.224741 
L 157.79791 214.95989 
L 157.960318 236.696428 
L 158.122727 229.735769 
L 158.447544 190.937254 
L 158.609952 193.756727 
L 158.772361 172.119875 
L 158.934769 244.380475 
L 159.097178 189.255439 
L 159.259586 292.406931 
L 159.421995 187.447256 
L 159.584403 203.985739 
L 159.746812 254.321556 
L 159.90922 265.448667 
L 160.071629 252.297183 
L 160.234037 206.889674 
L 160.396445 193.509621 
L 160.721262 220.076708 
L 160.883671 184.433051 
L 161.046079 174.02654 
L 161.208488 210.926124 
L 161.370896 157.154702 
L 161.695713 253.887236 
L 161.858122 194.122936 
L 162.02053 295.185228 
L 162.182939 167.24474 
L 162.345347 197.827919 
L 162.507756 198.011125 
L 162.670164 168.222244 
L 162.832573 295.451145 
L 162.994981 180.68276 
L 163.15739 223.833369 
L 163.319798 162.900458 
L 163.482207 221.649399 
L 164.13184 193.350957 
L 164.294249 214.731197 
L 164.456657 218.632778 
L 164.619066 195.652025 
L 164.781474 282.203352 
L 164.943883 184.756765 
L 165.106291 178.455842 
L 165.431108 213.258452 
L 165.593517 195.840341 
L 165.918334 278.591648 
L 166.080742 165.35437 
L 166.405559 221.240649 
L 166.567968 136.835226 
L 166.730376 167.819719 
L 166.892785 241.123102 
L 167.055193 198.579889 
L 167.217602 120.290798 
L 167.38001 188.324165 
L 167.542418 173.073155 
L 167.704827 187.927958 
L 167.867235 271.596967 
L 168.029644 116.260074 
L 168.192052 196.148048 
L 168.354461 212.300907 
L 168.516869 151.864998 
L 168.679278 134.847156 
L 168.841686 199.491389 
L 169.004095 174.001906 
L 169.166503 236.356908 
L 169.328912 156.789636 
L 169.49132 202.901738 
L 169.816137 171.007286 
L 169.978546 276.352119 
L 170.140954 273.055653 
L 170.303363 278.45927 
L 170.465771 288.807672 
L 170.62818 218.664732 
L 170.790588 295.452138 
L 170.952996 243.961549 
L 171.115405 264.577098 
L 171.277813 245.28824 
L 171.440222 285.81776 
L 171.765039 246.314621 
L 171.927447 295.251251 
L 172.089856 241.25613 
L 172.252264 262.87808 
L 172.414673 230.052319 
L 172.577081 273.073003 
L 172.901898 255.118329 
L 173.064307 247.115723 
L 173.389124 288.158496 
L 173.551532 275.187075 
L 173.713941 237.456665 
L 173.876349 238.467719 
L 174.038758 234.007981 
L 174.201166 295.451384 
L 174.363575 263.163157 
L 174.525983 265.281468 
L 174.688391 295.455643 
L 174.8508 276.497265 
L 175.013208 281.644533 
L 175.175617 271.916604 
L 175.338025 278.503114 
L 175.500434 239.573621 
L 175.662842 275.35607 
L 175.825251 286.092243 
L 175.987659 274.823902 
L 176.150068 291.70038 
L 176.312476 282.438744 
L 176.474885 172.126889 
L 176.637293 286.864627 
L 176.799702 292.276326 
L 176.96211 278.542673 
L 177.286927 201.421023 
L 177.449336 267.543202 
L 177.611744 268.286968 
L 177.774153 261.941513 
L 177.936561 282.286986 
L 178.098969 276.307011 
L 178.261378 260.173357 
L 178.423786 271.535958 
L 178.586195 269.335856 
L 178.748603 273.521082 
L 178.911012 246.700774 
L 179.07342 275.444356 
L 179.235829 228.816312 
L 179.398237 269.554562 
L 179.560646 136.636702 
L 179.723054 288.57672 
L 179.885463 269.268383 
L 180.047871 275.325857 
L 180.21028 219.400899 
L 180.535097 288.334511 
L 180.697505 288.811281 
L 180.859914 273.643778 
L 181.022322 135.424073 
L 181.184731 248.398746 
L 181.509548 294.451567 
L 181.671956 58.958411 
L 181.834364 244.757793 
L 181.996773 284.482788 
L 182.159181 177.559123 
L 182.32159 288.841777 
L 182.483998 288.780856 
L 182.646407 283.638333 
L 182.808815 150.867742 
L 182.971224 282.311532 
L 183.133632 212.366699 
L 183.296041 212.43873 
L 183.458449 271.694397 
L 183.620858 257.364883 
L 183.783266 284.46085 
L 183.945675 281.018874 
L 184.108083 207.297017 
L 184.270492 286.877162 
L 184.4329 243.641734 
L 184.595309 246.373927 
L 184.757717 289.713037 
L 184.920126 111.111854 
L 185.082534 273.545616 
L 185.244942 90.919626 
L 185.407351 77.874822 
L 185.569759 263.702603 
L 185.732168 54.519606 
L 186.056985 169.927778 
L 186.219393 271.440303 
L 186.381802 261.037565 
L 186.54421 72.434014 
L 186.706619 276.681566 
L 186.869027 288.845513 
L 187.031436 115.502425 
L 187.193844 122.549789 
L 187.356253 283.77365 
L 187.68107 168.456404 
L 187.843478 99.145254 
L 188.168295 292.276326 
L 188.330704 282.110973 
L 188.493112 252.662916 
L 188.65552 81.355748 
L 188.817929 288.843691 
L 188.980337 234.104064 
L 189.142746 270.409247 
L 189.305154 146.065444 
L 189.467563 279.310499 
L 189.629971 258.536239 
L 189.954788 54.231633 
L 190.117197 145.511249 
L 190.279605 54.780011 
L 190.604422 54.858066 
L 190.766831 54.02869 
L 190.929239 55.193204 
L 191.091648 54.587697 
L 191.254056 54.698966 
L 191.416465 55.304474 
L 191.578873 54.863048 
L 191.741282 114.887695 
L 191.90369 283.472724 
L 192.066099 54.698302 
L 192.390915 55.583146 
L 192.553324 171.26856 
L 192.715732 55.329385 
L 192.878141 55.202504 
L 193.040549 139.11609 
L 193.365366 55.136074 
L 193.527775 55.437997 
L 193.690183 214.122922 
L 193.852592 54.978304 
L 194.339817 55.575839 
L 194.502226 154.164428 
L 194.664634 55.367582 
L 194.827043 54.843119 
L 194.989451 71.463356 
L 195.15186 54.913867 
L 195.314268 55.090238 
L 195.476677 55.550928 
L 195.801493 256.935511 
L 196.12631 55.481177 
L 196.288719 288.80951 
L 196.451127 55.437333 
L 196.613536 55.615697 
L 196.775944 54.888956 
L 196.938353 288.780527 
L 197.100761 55.068316 
L 197.26317 55.144378 
L 197.425578 54.888956 
L 197.587987 55.201508 
L 197.750395 55.175932 
L 197.912804 54.820201 
L 198.075212 295.451843 
L 198.237621 113.113014 
L 198.400029 278.681255 
L 198.562438 55.394154 
L 198.887255 55.526681 
L 199.049663 295.452045 
L 199.212071 55.291188 
L 199.37448 55.602411 
L 199.536888 54.607626 
L 199.699297 55.539303 
L 199.861705 55.303809 
L 200.024114 55.697738 
L 200.186522 55.245683 
L 200.348931 55.405779 
L 200.511339 54.921174 
L 200.673748 54.946085 
L 200.998565 54.519606 
L 201.160973 54.621576 
L 201.323382 54.365489 
L 201.48579 54.500674 
L 201.810607 53.982854 
L 201.973016 295.454656 
L 202.135424 55.205493 
L 202.297833 55.127106 
L 202.460241 55.30547 
L 202.62265 54.775361 
L 202.785058 55.373228 
L 203.109875 54.680698 
L 203.434692 55.393157 
L 203.759509 54.697306 
L 203.921917 55.214793 
L 204.084326 54.678041 
L 204.246734 55.425708 
L 204.409143 55.627987 
L 204.571551 55.469552 
L 204.73396 235.146936 
L 204.896368 55.157664 
L 205.058777 54.711256 
L 205.221185 295.451255 
L 205.383594 54.55116 
L 205.546002 54.876334 
L 205.708411 54.721885 
L 205.870819 261.81376 
L 206.033228 54.264848 
L 206.195636 54.900249 
L 206.358044 54.327292 
L 206.520453 54.264848 
L 206.682861 136.315108 
L 207.007678 54.450187 
L 207.170087 54.729524 
L 207.332495 54.181147 
L 207.494904 138.858106 
L 207.657312 54.721885 
L 207.819721 55.11382 
L 207.982129 54.026697 
L 208.144538 54.192772 
L 208.306946 54.161218 
L 208.469355 55.291188 
L 208.631763 54.014408 
L 208.95658 54.577732 
L 209.118989 135.88581 
L 209.281397 53.981857 
L 209.443806 54.531231 
L 209.606214 54.072534 
L 209.768622 54.240269 
L 209.931031 54.060244 
L 210.255848 54.583711 
L 210.418256 288.844325 
L 210.580665 53.880884 
L 210.743073 54.281455 
L 210.905482 53.656684 
L 211.06789 54.026033 
L 211.230299 54.015404 
L 211.392707 54.295738 
L 211.555116 54.115381 
L 211.717524 270.813144 
L 211.879933 54.685681 
L 212.042341 262.586095 
L 212.20475 54.685681 
L 212.367158 109.365559 
L 212.529567 54.104088 
L 212.691975 244.708023 
L 212.854384 55.023144 
L 213.016792 53.861619 
L 213.179201 54.354528 
L 213.341609 54.339582 
L 213.504017 54.08582 
L 213.828834 55.067984 
L 213.991243 54.666416 
L 214.153651 54.652466 
L 214.31606 53.880884 
L 214.478468 281.359029 
L 214.640877 53.791204 
L 214.803285 54.967011 
L 215.128102 54.105749 
L 215.290511 54.442548 
L 215.615328 54.161218 
L 215.777736 54.507317 
L 215.940145 53.9513 
L 216.264962 54.284113 
L 216.42737 54.174504 
L 216.589779 54.709595 
L 216.752187 54.372796 
L 216.914595 54.428265 
L 217.077004 54.161218 
L 217.401821 54.473105 
L 217.564229 54.339582 
L 217.726638 264.474709 
L 217.889046 54.360507 
L 218.051455 54.014408 
L 218.213863 284.863627 
L 218.376272 54.845112 
L 218.701089 54.219344 
L 218.863497 54.798279 
L 219.025906 54.250898 
L 219.188314 54.654126 
L 219.350723 54.55116 
L 219.513131 277.750133 
L 219.67554 54.326296 
L 219.837948 288.840899 
L 220.000357 53.924728 
L 220.325173 55.066323 
L 220.487582 54.282452 
L 220.64999 245.376565 
L 220.812399 53.74736 
L 220.974807 54.429926 
L 221.137216 295.452709 
L 221.299624 261.173246 
L 221.462033 53.836044 
L 221.624441 55.76151 
L 221.78685 54.845776 
L 221.949258 258.218458 
L 222.111667 54.218347 
L 222.274075 54.162878 
L 222.436484 54.383425 
L 222.598892 95.208863 
L 222.761301 59.266087 
L 222.923709 95.799044 
L 223.086118 65.976907 
L 223.248526 277.487732 
L 223.410935 99.424091 
L 223.573343 288.842652 
L 223.735752 173.920664 
L 223.89816 279.34509 
L 224.060568 58.014316 
L 224.222977 291.439924 
L 224.385385 175.946211 
L 224.547794 272.950088 
L 224.872611 55.08127 
L 225.035019 105.279104 
L 225.197428 114.85007 
L 225.684653 288.811613 
L 225.847062 84.642042 
L 226.00947 55.2035 
L 226.171879 101.607852 
L 226.334287 260.400959 
L 226.496696 295.455834 
L 226.659104 54.926821 
L 226.983921 119.534985 
L 227.14633 102.997365 
L 227.308738 260.178889 
L 227.471146 96.257926 
L 227.633555 288.808013 
L 227.795963 295.419941 
L 227.958372 292.777672 
L 228.12078 231.242284 
L 228.283189 54.812561 
L 228.445597 288.844061 
L 228.608006 234.667119 
L 228.770414 295.453802 
L 228.932823 81.520433 
L 229.095231 287.942144 
L 229.25764 60.04082 
L 229.420048 222.192457 
L 229.744865 288.84423 
L 229.907274 295.484536 
L 230.069682 295.454631 
L 230.232091 260.435273 
L 230.394499 79.258179 
L 230.719316 137.065589 
L 230.881724 224.121025 
L 231.044133 96.645458 
L 231.206541 57.633353 
L 231.36895 94.522604 
L 231.531358 285.371917 
L 231.693767 290.008056 
L 231.856175 111.52245 
L 232.180992 131.22788 
L 232.343401 275.703652 
L 232.505809 54.442548 
L 232.668218 55.373228 
L 232.830626 55.157664 
L 232.993035 81.907632 
L 233.155443 54.864044 
L 233.317852 54.684684 
L 233.48026 124.335736 
L 233.642669 290.673442 
L 233.805077 54.410994 
L 233.967486 137.675568 
L 234.129894 55.087248 
L 234.292303 54.339582 
L 234.454711 135.418281 
L 234.617119 54.639844 
L 234.779528 66.028228 
L 234.941936 55.304474 
L 235.104345 264.66694 
L 235.266753 288.810811 
L 235.429162 79.221038 
L 235.59157 276.515746 
L 235.753979 295.454431 
L 236.078796 267.293435 
L 236.241204 54.78765 
L 236.403613 54.295738 
L 236.566021 290.619409 
L 236.72843 152.549614 
L 236.890838 288.811175 
L 237.053247 54.532892 
L 237.215655 111.963773 
L 237.378064 54.946749 
L 237.540472 226.062475 
L 237.702881 54.507317 
L 237.865289 53.74736 
L 238.027697 69.831643 
L 238.190106 64.894415 
L 238.352514 53.880884 
L 238.514923 53.881881 
L 238.677331 108.514262 
L 238.83974 99.209314 
L 239.002148 78.252437 
L 239.164557 93.955171 
L 239.326965 54.563782 
L 239.489374 273.27898 
L 239.651782 268.124862 
L 239.814191 288.255801 
L 239.976599 254.827443 
L 240.139008 288.81043 
L 240.301416 278.996416 
L 240.463825 286.753996 
L 240.626233 276.194407 
L 240.788642 294.593493 
L 240.95105 263.391239 
L 241.113459 266.052933 
L 241.275867 264.700573 
L 241.438276 255.718376 
L 241.600684 81.73433 
L 241.763092 53.613837 
L 241.925501 269.16993 
L 242.087909 120.201417 
L 242.250318 136.091327 
L 242.412726 264.530051 
L 242.575135 265.785892 
L 242.737543 54.386082 
L 242.899952 55.673823 
L 243.06236 55.301816 
L 243.224769 81.181706 
L 243.387177 53.791204 
L 243.549586 54.284113 
L 243.874403 53.7922 
L 244.036811 128.865082 
L 244.19922 54.340578 
L 244.361628 87.888956 
L 244.524037 254.844323 
L 244.686445 295.453281 
L 244.848854 295.451652 
L 245.011262 65.381493 
L 245.17367 262.755676 
L 245.336079 272.786283 
L 245.498487 256.11497 
L 245.660896 73.236271 
L 245.823304 77.710212 
L 245.985713 89.600512 
L 246.148121 85.998203 
L 246.31053 137.842289 
L 246.472938 136.158559 
L 246.635347 55.317095 
L 246.797755 123.487469 
L 246.960164 245.813194 
L 247.122572 96.784205 
L 247.284981 149.236802 
L 247.609798 86.058747 
L 247.772206 255.385749 
L 247.934615 66.855881 
L 248.097023 256.833355 
L 248.259432 278.025045 
L 248.42184 141.478735 
L 248.584248 124.040768 
L 248.746657 121.318757 
L 248.909065 80.907821 
L 249.071474 288.844895 
L 249.396291 55.168293 
L 249.558699 113.395095 
L 249.721108 54.79994 
L 249.883516 54.997568 
L 250.045925 122.867274 
L 250.208333 54.327956 
L 250.53315 108.575791 
L 250.695559 130.121545 
L 250.857967 83.409702 
L 251.020376 140.947314 
L 251.182784 139.334612 
L 251.345193 111.094502 
L 251.507601 150.464479 
L 251.67001 70.978401 
L 251.832418 55.201508 
L 251.994827 120.322372 
L 252.157235 134.790881 
L 252.319643 119.820001 
L 252.64446 58.093579 
L 252.806869 137.332355 
L 252.969277 65.58161 
L 253.131686 90.736773 
L 253.294094 62.885471 
L 253.456503 76.952076 
L 253.618911 81.325962 
L 253.78132 135.180118 
L 253.943728 66.439707 
L 254.268545 119.057816 
L 254.430954 83.662436 
L 254.593362 99.591979 
L 254.755771 61.72599 
L 254.918179 106.389554 
L 255.080588 63.224059 
L 255.405405 86.621826 
L 255.567813 76.54662 
L 255.730221 103.219784 
L 255.89263 54.88962 
L 256.217447 143.912538 
L 256.379855 74.754621 
L 256.542264 86.221885 
L 256.704672 287.030859 
L 256.867081 113.038443 
L 257.029489 95.874379 
L 257.191898 265.113745 
L 257.354306 229.300208 
L 257.516715 247.375194 
L 257.841532 58.839541 
L 258.00394 145.81762 
L 258.166349 129.523442 
L 258.328757 274.497596 
L 258.491166 112.174884 
L 258.653574 99.949087 
L 258.815983 295.484733 
L 258.978391 57.920471 
L 259.140799 228.40005 
L 259.303208 233.140772 
L 259.465616 295.452136 
L 259.790433 69.907812 
L 259.952842 70.538471 
L 260.11525 117.853064 
L 260.277659 230.730194 
L 260.440067 61.736529 
L 260.602476 251.239023 
L 260.764884 83.573397 
L 260.927293 271.999213 
L 261.089701 91.37793 
L 261.25211 77.056144 
L 261.414518 289.05155 
L 261.576927 61.055245 
L 261.739335 224.051978 
L 262.064152 65.571634 
L 262.226561 143.668688 
L 262.551378 55.641272 
L 262.713786 205.34657 
L 262.876194 55.137735 
L 263.038603 142.311947 
L 263.201011 95.338798 
L 263.36342 131.171291 
L 263.525828 115.408112 
L 263.688237 236.324463 
L 263.850645 92.938545 
L 264.013054 206.321016 
L 264.337871 89.300906 
L 264.500279 70.402236 
L 264.662688 138.399896 
L 264.825096 64.703622 
L 265.149913 106.846003 
L 265.312322 288.843663 
L 265.47473 288.845808 
L 265.637139 170.062382 
L 265.799547 188.672233 
L 265.961956 192.246916 
L 266.124364 125.855447 
L 266.286772 141.974841 
L 266.449181 288.843431 
L 266.611589 219.34456 
L 266.773998 225.417211 
L 266.936406 282.201891 
L 267.098815 69.015126 
L 267.58604 295.486362 
L 267.748449 135.476601 
L 267.910857 265.511552 
L 268.073266 192.434139 
L 268.235674 215.345313 
L 268.398083 96.245164 
L 268.560491 138.929033 
L 268.7229 54.898588 
L 268.885308 258.4733 
L 269.372534 58.992459 
L 269.69735 208.085415 
L 269.859759 137.590078 
L 270.022167 273.892421 
L 270.346984 75.844746 
L 270.509393 263.118748 
L 270.671801 284.811533 
L 270.83421 244.279032 
L 270.996618 288.844528 
L 271.159027 290.376976 
L 271.321435 110.717526 
L 271.483844 91.666073 
L 271.646252 288.812868 
L 271.808661 221.133047 
L 271.971069 288.810476 
L 272.133478 74.174546 
L 272.295886 295.451421 
L 272.458295 72.373261 
L 272.620703 64.836411 
L 272.783112 119.090407 
L 272.94552 285.112747 
L 273.107929 211.532187 
L 273.270337 65.945148 
L 273.432745 96.139208 
L 273.595154 261.278677 
L 273.757562 138.704415 
L 273.919971 267.673562 
L 274.082379 81.622691 
L 274.244788 293.884937 
L 274.407196 81.579654 
L 274.569605 248.434751 
L 274.732013 79.918205 
L 274.894422 64.595443 
L 275.05683 253.119284 
L 275.219239 120.034363 
L 275.381647 288.042157 
L 275.544056 249.534542 
L 275.868873 291.483746 
L 276.031281 124.480822 
L 276.19369 136.760662 
L 276.356098 114.246511 
L 276.518507 147.35237 
L 276.680915 295.485146 
L 276.843323 143.835988 
L 277.005732 281.456119 
L 277.16814 233.717452 
L 277.330549 225.224403 
L 277.492957 241.815094 
L 277.655366 55.166632 
L 277.817774 288.778353 
L 277.980183 249.999881 
L 278.142591 282.809665 
L 278.305 277.66155 
L 278.467408 65.275285 
L 278.629817 286.332926 
L 278.792225 164.397032 
L 278.954634 284.759184 
L 279.117042 254.895974 
L 279.279451 287.488726 
L 279.441859 218.134241 
L 279.604268 275.600576 
L 279.929085 208.447497 
L 280.091493 222.670177 
L 280.253901 215.89877 
L 280.41631 262.270465 
L 280.578718 251.737061 
L 280.741127 228.692686 
L 280.903535 186.016955 
L 281.065944 288.812743 
L 281.228352 161.451907 
L 281.553169 216.592913 
L 281.715578 192.461301 
L 281.877986 140.917029 
L 282.040395 140.127881 
L 282.365212 226.92417 
L 282.52762 174.064323 
L 282.852437 230.7852 
L 283.014846 195.33256 
L 283.177254 261.946305 
L 283.826888 112.818183 
L 283.989296 134.93016 
L 284.314113 231.33257 
L 284.476522 182.345705 
L 284.63893 98.061488 
L 284.801339 203.705779 
L 284.963747 190.859113 
L 285.126156 129.431404 
L 285.288564 138.775042 
L 285.450973 174.61746 
L 285.613381 183.171195 
L 285.77579 287.480023 
L 286.100607 99.973975 
L 286.263015 175.490236 
L 286.425424 153.213019 
L 286.587832 270.230285 
L 286.750241 241.820075 
L 287.075058 54.754435 
L 287.237466 145.874887 
L 287.399874 150.152788 
L 287.562283 139.084221 
L 287.724691 55.121128 
L 287.8871 154.779368 
L 288.049508 185.091818 
L 288.211917 107.830696 
L 288.374325 189.11567 
L 288.536734 149.048269 
L 288.699142 229.554912 
L 288.861551 101.949097 
L 289.023959 199.032158 
L 289.186368 222.604003 
L 289.348776 139.949796 
L 289.511185 138.056591 
L 289.673593 243.862012 
L 289.836002 205.521956 
L 289.99841 227.066228 
L 290.160819 295.453595 
L 290.323227 281.314093 
L 290.485636 195.197927 
L 290.648044 266.459268 
L 290.810452 246.531963 
L 290.972861 288.841138 
L 291.135269 217.101397 
L 291.297678 260.030549 
L 291.622495 207.751583 
L 291.784903 252.768675 
L 291.947312 233.520989 
L 292.10972 287.013761 
L 292.272129 258.403216 
L 292.434537 266.392354 
L 292.596946 295.485343 
L 292.759354 288.842783 
L 292.921763 241.953138 
L 293.084171 260.635645 
L 293.24658 295.488 
L 293.408988 278.030084 
L 293.571397 276.773689 
L 293.733805 211.762252 
L 293.896214 257.309443 
L 294.058622 229.716988 
L 294.221031 239.601179 
L 294.383439 295.422398 
L 294.545847 280.927727 
L 294.708256 282.310433 
L 294.870664 255.02983 
L 295.033073 206.795302 
L 295.195481 195.981754 
L 295.35789 292.340013 
L 295.520298 287.402707 
L 295.682707 258.630978 
L 295.845115 249.586889 
L 296.169932 188.602382 
L 296.332341 288.794361 
L 296.494749 255.605112 
L 296.657158 148.96051 
L 296.819566 242.485235 
L 296.981975 110.76499 
L 297.144383 253.243407 
L 297.4692 137.832741 
L 297.631609 200.933296 
L 297.794017 201.500168 
L 297.956425 287.355603 
L 298.118834 202.924411 
L 298.281242 261.2068 
L 298.443651 219.659785 
L 298.606059 245.096358 
L 298.768468 288.810219 
L 298.930876 266.597438 
L 299.093285 285.176441 
L 299.255693 282.200798 
L 299.418102 294.280955 
L 299.58051 260.528815 
L 299.742919 142.758685 
L 299.905327 250.844994 
L 300.067736 59.963983 
L 300.230144 211.567563 
L 300.392553 216.341965 
L 300.554961 278.643469 
L 300.71737 229.511948 
L 300.879778 279.592156 
L 301.042187 116.58016 
L 301.367004 288.840736 
L 301.529412 265.621077 
L 301.69182 288.845526 
L 302.016637 250.245095 
L 302.179046 204.972688 
L 302.341454 279.493032 
L 302.503863 199.690482 
L 302.82868 263.398049 
L 303.153497 185.695231 
L 303.315905 288.809651 
L 303.478314 195.847668 
L 303.640722 172.496902 
L 303.803131 172.831389 
L 303.965539 234.544822 
L 304.127948 235.504355 
L 304.290356 288.811299 
L 304.452765 270.640932 
L 304.615173 295.484842 
L 304.777582 180.820248 
L 304.93999 282.349251 
L 305.102398 165.972628 
L 305.264807 138.54555 
L 305.427215 206.36321 
L 305.589624 226.055506 
L 305.752032 218.572455 
L 305.914441 284.097491 
L 306.076849 122.535228 
L 306.239258 237.021699 
L 306.401666 259.455498 
L 306.564075 102.896325 
L 306.726483 109.441579 
L 306.888892 225.481164 
L 307.213709 280.428723 
L 307.376117 92.264377 
L 307.700934 282.201786 
L 307.863343 262.18949 
L 308.025751 258.523485 
L 308.18816 285.765828 
L 308.350568 258.87412 
L 308.512976 281.98614 
L 308.675385 211.564266 
L 308.837793 190.266867 
L 309.000202 208.953697 
L 309.16261 255.165347 
L 309.487427 232.866317 
L 309.649836 143.623205 
L 309.974653 288.812413 
L 310.137061 288.397161 
L 310.29947 224.286898 
L 310.461878 54.888956 
L 310.624287 261.833291 
L 310.949104 184.208831 
L 311.111512 202.82568 
L 311.273921 250.077285 
L 311.436329 182.296359 
L 311.598738 282.85107 
L 311.761146 281.129544 
L 312.085963 154.145206 
L 312.248371 270.759842 
L 312.41078 228.072986 
L 312.573188 274.096081 
L 312.735597 279.038705 
L 312.898005 146.604189 
L 313.222822 244.949646 
L 313.385231 89.328037 
L 313.547639 206.519175 
L 313.710048 187.838631 
L 313.872456 251.842531 
L 314.034865 243.64765 
L 314.197273 158.80202 
L 314.359682 284.408147 
L 314.52209 267.600034 
L 314.684499 173.876703 
L 315.171724 275.634961 
L 315.334133 277.2514 
L 315.496541 249.394717 
L 315.658949 273.547666 
L 315.821358 71.593614 
L 315.983766 287.99426 
L 316.146175 242.254091 
L 316.308583 261.885703 
L 316.470992 247.284074 
L 316.6334 295.486719 
L 316.795809 275.334747 
L 316.958217 282.169515 
L 317.120626 276.442125 
L 317.283034 276.099464 
L 317.445443 206.576784 
L 317.607851 185.355983 
L 317.77026 196.770387 
L 317.932668 288.844082 
L 318.095077 251.409742 
L 318.257485 185.075288 
L 318.419894 280.290054 
L 318.582302 212.437945 
L 318.744711 64.614402 
L 318.907119 96.514505 
L 319.069527 69.391518 
L 319.231936 279.827123 
L 319.394344 77.211242 
L 319.556753 88.33688 
L 319.719161 108.446066 
L 319.88157 87.027072 
L 320.043978 90.66925 
L 320.206387 288.814405 
L 320.368795 55.067984 
L 320.531204 267.480375 
L 320.693612 97.920192 
L 320.856021 54.88962 
L 321.018429 71.594586 
L 321.180838 54.9793 
L 321.343246 258.513294 
L 321.505655 140.700806 
L 321.668063 295.45525 
L 321.99288 111.658681 
L 322.155289 258.568666 
L 322.317697 258.389377 
L 322.480106 281.000392 
L 322.642514 197.081832 
L 322.804922 256.240105 
L 322.967331 249.893681 
L 323.129739 149.734824 
L 323.292148 202.798421 
L 323.454556 54.383425 
L 323.779373 246.663038 
L 323.941782 114.844486 
L 324.10419 255.251319 
L 324.266599 73.824588 
L 324.429007 54.129664 
L 324.591416 108.363306 
L 324.753824 54.96535 
L 324.916233 126.111492 
L 325.078641 262.518183 
L 325.24105 54.596 
L 325.403458 247.638543 
L 325.565867 222.874955 
L 325.728275 152.972878 
L 325.890684 249.249446 
L 326.053092 54.530235 
L 326.2155 149.051686 
L 326.377909 83.25482 
L 326.540317 193.949551 
L 326.702726 219.993846 
L 326.865134 54.978304 
L 327.027543 96.033699 
L 327.189951 89.073712 
L 327.35236 54.51861 
L 327.514768 57.691226 
L 327.677177 288.842981 
L 327.839585 54.50632 
L 328.001994 54.740817 
L 328.164402 139.421715 
L 328.326811 54.252559 
L 328.489219 83.877821 
L 328.651628 228.722683 
L 328.814036 54.609286 
L 328.976445 216.023406 
L 329.138853 92.150022 
L 329.301262 54.513295 
L 329.626078 279.887377 
L 329.788487 65.821072 
L 330.113304 203.680597 
L 330.275712 54.992586 
L 330.438121 235.010297 
L 330.600529 54.444208 
L 330.762938 256.316979 
L 330.925346 171.405867 
L 331.250163 141.40978 
L 331.57498 67.241343 
L 331.737389 267.853891 
L 331.899797 219.902558 
L 332.062206 102.44748 
L 332.224614 97.820467 
L 332.387023 209.321554 
L 332.549431 187.251014 
L 332.71184 57.477645 
L 332.874248 234.411058 
L 333.036657 288.811652 
L 333.199065 54.619915 
L 333.361473 217.103267 
L 333.523882 81.742911 
L 333.68629 53.861619 
L 334.011107 54.901245 
L 334.173516 79.478339 
L 334.335924 69.705521 
L 334.498333 288.811982 
L 334.660741 97.127448 
L 334.82315 119.062479 
L 334.985558 247.495912 
L 335.147967 103.944987 
L 335.472784 73.370588 
L 335.635192 279.702031 
L 335.797601 217.07226 
L 335.960009 54.84478 
L 336.122418 59.749952 
L 336.284826 54.141953 
L 336.447235 54.442548 
L 336.609643 53.835048 
L 336.93446 54.368146 
L 337.096868 288.810838 
L 337.259277 54.015072 
L 337.421685 116.914733 
L 337.746502 66.696637 
L 337.908911 273.721816 
L 338.071319 264.414901 
L 338.233728 110.400077 
L 338.396136 288.844419 
L 338.558545 126.257098 
L 338.720953 216.528215 
L 338.883362 67.780031 
L 339.370587 294.624825 
L 339.532996 159.392254 
L 339.695404 241.419596 
L 339.857813 237.720772 
L 340.020221 119.505901 
L 340.182629 104.349285 
L 340.345038 60.552092 
L 340.507446 280.335963 
L 340.669855 63.347533 
L 340.832263 105.967135 
L 340.994672 74.858899 
L 341.15708 258.837874 
L 341.319489 187.84658 
L 341.481897 223.148597 
L 341.644306 295.423634 
L 341.806714 115.043266 
L 341.969123 143.391947 
L 342.131531 252.069862 
L 342.29394 243.926569 
L 342.456348 88.348294 
L 342.618757 98.035771 
L 342.781165 240.72872 
L 342.943574 95.325975 
L 343.105982 134.30878 
L 343.430799 101.866982 
L 343.593208 122.4991 
L 343.755616 116.159927 
L 344.080433 65.031782 
L 344.242841 131.780787 
L 344.567658 54.739108 
L 344.730067 116.621935 
L 344.892475 59.234125 
L 345.054884 54.666416 
L 345.217292 62.648947 
L 345.379701 93.779329 
L 345.542109 95.414943 
L 345.704518 112.808887 
L 345.866926 294.589445 
L 346.029335 86.546875 
L 346.191743 117.203584 
L 346.354152 114.761396 
L 346.51656 98.315564 
L 346.678969 129.921051 
L 346.841377 84.61397 
L 347.003786 126.716363 
L 347.166194 233.838708 
L 347.328602 61.030599 
L 347.491011 222.972331 
L 347.653419 99.475845 
L 347.815828 259.730769 
L 348.140645 73.505133 
L 348.303053 54.487388 
L 348.465462 63.544087 
L 348.62787 110.595674 
L 348.790279 288.842161 
L 348.952687 91.595957 
L 349.115096 55.390832 
L 349.277504 264.093681 
L 349.439913 233.312713 
L 349.602321 131.510282 
L 349.76473 259.572445 
L 349.927138 285.938261 
L 350.089547 233.764259 
L 350.251955 261.098055 
L 350.414364 164.813692 
L 350.576772 161.293802 
L 350.73918 254.529661 
L 350.901589 178.815629 
L 351.063997 285.913842 
L 351.226406 55.462909 
L 351.551223 74.858235 
L 351.713631 194.782402 
L 351.87604 156.266394 
L 352.038448 270.599304 
L 352.200857 280.272802 
L 352.363265 61.155933 
L 352.525674 106.233636 
L 352.688082 269.095827 
L 352.850491 246.727205 
L 353.012899 208.625238 
L 353.175308 250.998984 
L 353.337716 244.261027 
L 353.500125 243.417396 
L 353.662533 282.976334 
L 353.824942 162.371894 
L 354.149759 282.852643 
L 354.312167 188.307053 
L 354.474575 268.602485 
L 354.636984 247.812238 
L 354.799392 272.651667 
L 354.961801 187.252791 
L 355.124209 219.075385 
L 355.286618 186.785834 
L 355.611435 257.141361 
L 355.773843 240.113008 
L 355.936252 235.629194 
L 356.09866 205.847935 
L 356.261069 264.192977 
L 356.423477 55.214793 
L 356.585886 295.453708 
L 356.748294 54.174504 
L 356.910703 54.384422 
L 357.073111 54.173507 
L 357.23552 120.290378 
L 357.397928 258.422474 
L 357.722745 54.767721 
L 357.885153 122.429362 
L 358.047562 54.387079 
L 358.20997 116.771481 
L 358.372379 228.142483 
L 358.534787 261.49433 
L 358.697196 270.88443 
L 358.859604 233.538657 
L 359.022013 54.531231 
L 359.184421 277.130913 
L 359.34683 54.205061 
L 359.509238 54.428265 
L 359.671647 53.836044 
L 359.834055 54.666416 
L 360.158872 277.680769 
L 360.321281 249.250936 
L 360.483689 248.908467 
L 360.646098 274.617276 
L 360.808506 255.483798 
L 360.970915 295.455783 
L 361.133323 157.046062 
L 361.295732 202.002482 
L 361.45814 286.462523 
L 361.620548 270.381176 
L 361.782957 288.810973 
L 361.945365 267.883342 
L 362.107774 180.125434 
L 362.270182 288.844462 
L 362.432591 152.000597 
L 362.594999 287.207088 
L 362.757408 181.176556 
L 362.919816 213.58158 
L 363.082225 277.747496 
L 363.244633 236.865936 
L 363.407042 237.51379 
L 363.56945 160.480732 
L 363.731859 295.451718 
L 363.894267 182.301266 
L 364.056676 288.844649 
L 364.381493 165.421605 
L 364.543901 223.244252 
L 364.70631 213.995104 
L 364.868718 288.810975 
L 365.031126 270.423873 
L 365.193535 137.225544 
L 365.355943 180.78678 
L 365.518352 178.656557 
L 365.68076 61.342059 
L 365.843169 161.077487 
L 366.005577 148.411723 
L 366.167986 226.8475 
L 366.330394 121.543703 
L 366.655211 92.335274 
L 366.81762 87.946903 
L 367.142437 75.886654 
L 367.304845 268.699412 
L 367.629662 131.210138 
L 367.792071 276.01575 
L 367.954479 258.719631 
L 368.279296 90.338811 
L 368.441704 118.345692 
L 368.604113 114.157709 
L 368.766521 270.698354 
L 368.92893 94.787204 
L 369.253747 174.434025 
L 369.416155 175.817895 
L 369.578564 256.775937 
L 369.740972 173.193994 
L 369.903381 153.728691 
L 370.065789 217.872078 
L 370.228198 173.118469 
L 370.390606 204.908426 
L 370.553015 189.34922 
L 370.715423 210.132282 
L 370.877832 247.479757 
L 371.04024 204.672624 
L 371.365057 231.877093 
L 371.689874 243.299728 
L 372.014691 185.906575 
L 372.177099 170.797746 
L 372.339508 266.647244 
L 372.501916 154.459265 
L 372.826733 288.776259 
L 372.989142 169.613796 
L 373.15155 171.738154 
L 373.476367 217.204352 
L 373.638776 288.539712 
L 373.801184 178.847633 
L 374.28841 288.810132 
L 374.450818 237.59515 
L 374.613227 246.239932 
L 374.775635 112.275721 
L 374.938044 290.552423 
L 375.100452 128.895716 
L 375.262861 142.098031 
L 375.425269 217.670323 
L 375.587677 176.679024 
L 375.750086 82.474095 
L 375.912494 57.603024 
L 376.074903 78.040757 
L 376.237311 76.778355 
L 376.39972 85.537117 
L 376.562128 108.806361 
L 377.049354 55.775858 
L 377.211762 137.214346 
L 377.374171 87.220307 
L 377.536579 97.416168 
L 377.698988 128.486415 
L 377.861396 70.144967 
L 378.023805 126.335569 
L 378.186213 110.728665 
L 378.348622 196.985959 
L 378.51103 99.096232 
L 378.673439 131.532876 
L 378.835847 269.61428 
L 378.998255 86.814043 
L 379.160664 109.953526 
L 379.323072 295.150741 
L 379.485481 66.066026 
L 379.647889 78.869786 
L 379.810298 132.999919 
L 379.972706 77.474306 
L 380.135115 139.100527 
L 380.297523 67.10904 
L 380.459932 59.646242 
L 380.62234 106.440119 
L 380.784749 110.048095 
L 380.947157 96.136714 
L 381.109566 127.895878 
L 381.271974 288.844984 
L 381.596791 108.457273 
L 381.7592 230.904715 
L 382.084017 106.281957 
L 382.571242 295.451494 
L 382.73365 260.901896 
L 382.896059 260.512201 
L 383.058467 239.704154 
L 383.383284 288.84495 
L 383.708101 139.378986 
L 384.032918 272.842776 
L 384.195327 192.300225 
L 384.357735 266.534732 
L 384.520144 256.69297 
L 384.682552 237.523913 
L 384.844961 246.271907 
L 385.007369 287.273078 
L 385.169778 196.323087 
L 385.332186 286.20129 
L 385.494595 281.353973 
L 385.657003 211.211004 
L 385.819412 245.636117 
L 385.98182 230.18909 
L 386.144228 235.721833 
L 386.469045 156.626075 
L 386.631454 180.061363 
L 386.793862 229.21974 
L 386.956271 234.264453 
L 387.118679 263.327327 
L 387.281088 253.495502 
L 387.443496 204.684785 
L 387.605905 236.450927 
L 387.768313 223.899464 
L 387.930722 184.673798 
L 388.09313 277.701802 
L 388.255539 182.779881 
L 388.580356 155.006365 
L 388.742764 258.681811 
L 388.905173 216.257443 
L 389.067581 240.595772 
L 389.22999 288.789594 
L 389.554806 185.851927 
L 389.717215 222.034908 
L 389.879623 295.424764 
L 390.042032 249.933922 
L 390.20444 162.735164 
L 390.366849 244.615801 
L 390.529257 103.701392 
L 390.691666 269.497176 
L 390.854074 214.378633 
L 391.016483 236.090776 
L 391.178891 188.771655 
L 391.3413 189.33798 
L 391.503708 167.917177 
L 391.666117 248.419741 
L 391.828525 213.198182 
L 391.990934 122.542223 
L 392.153342 268.569608 
L 392.315751 145.4685 
L 392.640568 244.265166 
L 392.802976 229.248325 
L 392.965385 177.269572 
L 393.127793 81.02678 
L 393.290201 274.564026 
L 393.45261 179.004694 
L 393.615018 292.472626 
L 393.777427 211.729867 
L 393.939835 213.034013 
L 394.102244 284.528766 
L 394.264652 54.104088 
L 394.427061 190.125571 
L 394.589469 225.868229 
L 394.751878 228.145236 
L 394.914286 270.412001 
L 395.076695 265.888323 
L 395.239103 214.240276 
L 395.401512 264.032837 
L 395.56392 219.941121 
L 395.726329 288.811696 
L 395.888737 263.786476 
L 396.213554 295.419225 
L 396.375963 232.941249 
L 396.538371 272.037334 
L 396.700779 269.6512 
L 396.863188 285.582692 
L 397.025596 262.431653 
L 397.188005 258.217947 
L 397.350413 282.201968 
L 397.512822 241.856141 
L 397.67523 276.657468 
L 397.837639 273.340338 
L 398.000047 246.462274 
L 398.324864 288.808093 
L 398.487273 241.743831 
L 398.487273 241.743831 
" clip-path="url(#pc789894ebe)" style="fill: none; stroke: #1f77b4; stroke-width: 1.5; stroke-linecap: square"/>
   </g>
   <g id="patch_3">
    <path d="M 57.6 307.584 
L 57.6 41.472 
" style="fill: none; stroke: #000000; stroke-width: 0.8; stroke-linejoin: miter; stroke-linecap: square"/>
   </g>
   <g id="patch_4">
    <path d="M 414.72 307.584 
L 414.72 41.472 
" style="fill: none; stroke: #000000; stroke-width: 0.8; stroke-linejoin: miter; stroke-linecap: square"/>
   </g>
   <g id="patch_5">
    <path d="M 57.6 307.584 
L 414.72 307.584 
" style="fill: none; stroke: #000000; stroke-width: 0.8; stroke-linejoin: miter; stroke-linecap: square"/>
   </g>
   <g id="patch_6">
    <path d="M 57.6 41.472 
L 414.72 41.472 
" style="fill: none; stroke: #000000; stroke-width: 0.8; stroke-linejoin: miter; stroke-linecap: square"/>
   </g>
  </g>
 </g>
 <defs>
  <clipPath id="pc789894ebe">
   <rect x="57.6" y="41.472" width="357.12" height="266.112"/>
  </clipPath>
 </defs>
</svg>
