<?xml version="1.0" encoding="utf-8" standalone="no"?>
<!DOCTYPE svg PUBLIC "-//W3C//DTD SVG 1.1//EN"
  "http://www.w3.org/Graphics/SVG/1.1/DTD/svg11.dtd">
<svg xmlns:xlink="http://www.w3.org/1999/xlink" width="460.8pt" height="345.6pt" viewBox="0 0 460.8 345.6" xmlns="http://www.w3.org/2000/svg" version="1.1">
 <metadata>
  <rdf:RDF xmlns:dc="http://purl.org/dc/elements/1.1/" xmlns:cc="http://creativecommons.org/ns#" xmlns:rdf="http://www.w3.org/1999/02/22-rdf-syntax-ns#">
   <cc:Work>
    <dc:type rdf:resource="http://purl.org/dc/dcmitype/StillImage"/>
    <dc:date>2024-04-24T19:36:22.235196</dc:date>
    <dc:format>image/svg+xml</dc:format>
    <dc:creator>
     <cc:Agent>
      <dc:title>Matplotlib v3.7.2, https://matplotlib.org/</dc:title>
     </cc:Agent>
    </dc:creator>
   </cc:Work>
  </rdf:RDF>
 </metadata>
 <defs>
  <style type="text/css">*{stroke-linejoin: round; stroke-linecap: butt}</style>
 </defs>
 <g id="figure_1">
  <g id="patch_1">
   <path d="M 0 345.6 
L 460.8 345.6 
L 460.8 0 
L 0 0 
z
" style="fill: #ffffff"/>
  </g>
  <g id="axes_1">
   <g id="patch_2">
    <path d="M 57.6 307.584 
L 414.72 307.584 
L 414.72 41.472 
L 57.6 41.472 
z
" style="fill: #ffffff"/>
   </g>
   <g id="matplotlib.axis_1">
    <g id="xtick_1">
     <g id="line2d_1">
      <defs>
       <path id="m13d54d2e17" d="M 0 0 
L 0 3.5 
" style="stroke: #000000; stroke-width: 0.8"/>
      </defs>
      <g>
       <use xlink:href="#m13d54d2e17" x="73.832727" y="307.584" style="stroke: #000000; stroke-width: 0.8"/>
      </g>
     </g>
     <g id="text_1">
      <!-- 0 -->
      <g transform="translate(70.651477 322.182437) scale(0.1 -0.1)">
       <defs>
        <path id="DejaVuSans-30" d="M 2034 4250 
Q 1547 4250 1301 3770 
Q 1056 3291 1056 2328 
Q 1056 1369 1301 889 
Q 1547 409 2034 409 
Q 2525 409 2770 889 
Q 3016 1369 3016 2328 
Q 3016 3291 2770 3770 
Q 2525 4250 2034 4250 
z
M 2034 4750 
Q 2819 4750 3233 4129 
Q 3647 3509 3647 2328 
Q 3647 1150 3233 529 
Q 2819 -91 2034 -91 
Q 1250 -91 836 529 
Q 422 1150 422 2328 
Q 422 3509 836 4129 
Q 1250 4750 2034 4750 
z
" transform="scale(0.015625)"/>
       </defs>
       <use xlink:href="#DejaVuSans-30"/>
      </g>
     </g>
    </g>
    <g id="xtick_2">
     <g id="line2d_2">
      <g>
       <use xlink:href="#m13d54d2e17" x="138.828632" y="307.584" style="stroke: #000000; stroke-width: 0.8"/>
      </g>
     </g>
     <g id="text_2">
      <!-- 200 -->
      <g transform="translate(129.284882 322.182437) scale(0.1 -0.1)">
       <defs>
        <path id="DejaVuSans-32" d="M 1228 531 
L 3431 531 
L 3431 0 
L 469 0 
L 469 531 
Q 828 903 1448 1529 
Q 2069 2156 2228 2338 
Q 2531 2678 2651 2914 
Q 2772 3150 2772 3378 
Q 2772 3750 2511 3984 
Q 2250 4219 1831 4219 
Q 1534 4219 1204 4116 
Q 875 4013 500 3803 
L 500 4441 
Q 881 4594 1212 4672 
Q 1544 4750 1819 4750 
Q 2544 4750 2975 4387 
Q 3406 4025 3406 3419 
Q 3406 3131 3298 2873 
Q 3191 2616 2906 2266 
Q 2828 2175 2409 1742 
Q 1991 1309 1228 531 
z
" transform="scale(0.015625)"/>
       </defs>
       <use xlink:href="#DejaVuSans-32"/>
       <use xlink:href="#DejaVuSans-30" x="63.623047"/>
       <use xlink:href="#DejaVuSans-30" x="127.246094"/>
      </g>
     </g>
    </g>
    <g id="xtick_3">
     <g id="line2d_3">
      <g>
       <use xlink:href="#m13d54d2e17" x="203.824537" y="307.584" style="stroke: #000000; stroke-width: 0.8"/>
      </g>
     </g>
     <g id="text_3">
      <!-- 400 -->
      <g transform="translate(194.280787 322.182437) scale(0.1 -0.1)">
       <defs>
        <path id="DejaVuSans-34" d="M 2419 4116 
L 825 1625 
L 2419 1625 
L 2419 4116 
z
M 2253 4666 
L 3047 4666 
L 3047 1625 
L 3713 1625 
L 3713 1100 
L 3047 1100 
L 3047 0 
L 2419 0 
L 2419 1100 
L 313 1100 
L 313 1709 
L 2253 4666 
z
" transform="scale(0.015625)"/>
       </defs>
       <use xlink:href="#DejaVuSans-34"/>
       <use xlink:href="#DejaVuSans-30" x="63.623047"/>
       <use xlink:href="#DejaVuSans-30" x="127.246094"/>
      </g>
     </g>
    </g>
    <g id="xtick_4">
     <g id="line2d_4">
      <g>
       <use xlink:href="#m13d54d2e17" x="268.820442" y="307.584" style="stroke: #000000; stroke-width: 0.8"/>
      </g>
     </g>
     <g id="text_4">
      <!-- 600 -->
      <g transform="translate(259.276692 322.182437) scale(0.1 -0.1)">
       <defs>
        <path id="DejaVuSans-36" d="M 2113 2584 
Q 1688 2584 1439 2293 
Q 1191 2003 1191 1497 
Q 1191 994 1439 701 
Q 1688 409 2113 409 
Q 2538 409 2786 701 
Q 3034 994 3034 1497 
Q 3034 2003 2786 2293 
Q 2538 2584 2113 2584 
z
M 3366 4563 
L 3366 3988 
Q 3128 4100 2886 4159 
Q 2644 4219 2406 4219 
Q 1781 4219 1451 3797 
Q 1122 3375 1075 2522 
Q 1259 2794 1537 2939 
Q 1816 3084 2150 3084 
Q 2853 3084 3261 2657 
Q 3669 2231 3669 1497 
Q 3669 778 3244 343 
Q 2819 -91 2113 -91 
Q 1303 -91 875 529 
Q 447 1150 447 2328 
Q 447 3434 972 4092 
Q 1497 4750 2381 4750 
Q 2619 4750 2861 4703 
Q 3103 4656 3366 4563 
z
" transform="scale(0.015625)"/>
       </defs>
       <use xlink:href="#DejaVuSans-36"/>
       <use xlink:href="#DejaVuSans-30" x="63.623047"/>
       <use xlink:href="#DejaVuSans-30" x="127.246094"/>
      </g>
     </g>
    </g>
    <g id="xtick_5">
     <g id="line2d_5">
      <g>
       <use xlink:href="#m13d54d2e17" x="333.816347" y="307.584" style="stroke: #000000; stroke-width: 0.8"/>
      </g>
     </g>
     <g id="text_5">
      <!-- 800 -->
      <g transform="translate(324.272597 322.182437) scale(0.1 -0.1)">
       <defs>
        <path id="DejaVuSans-38" d="M 2034 2216 
Q 1584 2216 1326 1975 
Q 1069 1734 1069 1313 
Q 1069 891 1326 650 
Q 1584 409 2034 409 
Q 2484 409 2743 651 
Q 3003 894 3003 1313 
Q 3003 1734 2745 1975 
Q 2488 2216 2034 2216 
z
M 1403 2484 
Q 997 2584 770 2862 
Q 544 3141 544 3541 
Q 544 4100 942 4425 
Q 1341 4750 2034 4750 
Q 2731 4750 3128 4425 
Q 3525 4100 3525 3541 
Q 3525 3141 3298 2862 
Q 3072 2584 2669 2484 
Q 3125 2378 3379 2068 
Q 3634 1759 3634 1313 
Q 3634 634 3220 271 
Q 2806 -91 2034 -91 
Q 1263 -91 848 271 
Q 434 634 434 1313 
Q 434 1759 690 2068 
Q 947 2378 1403 2484 
z
M 1172 3481 
Q 1172 3119 1398 2916 
Q 1625 2713 2034 2713 
Q 2441 2713 2670 2916 
Q 2900 3119 2900 3481 
Q 2900 3844 2670 4047 
Q 2441 4250 2034 4250 
Q 1625 4250 1398 4047 
Q 1172 3844 1172 3481 
z
" transform="scale(0.015625)"/>
       </defs>
       <use xlink:href="#DejaVuSans-38"/>
       <use xlink:href="#DejaVuSans-30" x="63.623047"/>
       <use xlink:href="#DejaVuSans-30" x="127.246094"/>
      </g>
     </g>
    </g>
    <g id="xtick_6">
     <g id="line2d_6">
      <g>
       <use xlink:href="#m13d54d2e17" x="398.812252" y="307.584" style="stroke: #000000; stroke-width: 0.8"/>
      </g>
     </g>
     <g id="text_6">
      <!-- 1000 -->
      <g transform="translate(386.087252 322.182437) scale(0.1 -0.1)">
       <defs>
        <path id="DejaVuSans-31" d="M 794 531 
L 1825 531 
L 1825 4091 
L 703 3866 
L 703 4441 
L 1819 4666 
L 2450 4666 
L 2450 531 
L 3481 531 
L 3481 0 
L 794 0 
L 794 531 
z
" transform="scale(0.015625)"/>
       </defs>
       <use xlink:href="#DejaVuSans-31"/>
       <use xlink:href="#DejaVuSans-30" x="63.623047"/>
       <use xlink:href="#DejaVuSans-30" x="127.246094"/>
       <use xlink:href="#DejaVuSans-30" x="190.869141"/>
      </g>
     </g>
    </g>
   </g>
   <g id="matplotlib.axis_2">
    <g id="ytick_1">
     <g id="line2d_7">
      <defs>
       <path id="m515a45a086" d="M 0 0 
L -3.5 0 
" style="stroke: #000000; stroke-width: 0.8"/>
      </defs>
      <g>
       <use xlink:href="#m515a45a086" x="57.6" y="295.488" style="stroke: #000000; stroke-width: 0.8"/>
      </g>
     </g>
     <g id="text_7">
      <!-- −500 -->
      <g transform="translate(23.132812 299.287219) scale(0.1 -0.1)">
       <defs>
        <path id="DejaVuSans-2212" d="M 678 2272 
L 4684 2272 
L 4684 1741 
L 678 1741 
L 678 2272 
z
" transform="scale(0.015625)"/>
        <path id="DejaVuSans-35" d="M 691 4666 
L 3169 4666 
L 3169 4134 
L 1269 4134 
L 1269 2991 
Q 1406 3038 1543 3061 
Q 1681 3084 1819 3084 
Q 2600 3084 3056 2656 
Q 3513 2228 3513 1497 
Q 3513 744 3044 326 
Q 2575 -91 1722 -91 
Q 1428 -91 1123 -41 
Q 819 9 494 109 
L 494 744 
Q 775 591 1075 516 
Q 1375 441 1709 441 
Q 2250 441 2565 725 
Q 2881 1009 2881 1497 
Q 2881 1984 2565 2268 
Q 2250 2553 1709 2553 
Q 1456 2553 1204 2497 
Q 953 2441 691 2322 
L 691 4666 
z
" transform="scale(0.015625)"/>
       </defs>
       <use xlink:href="#DejaVuSans-2212"/>
       <use xlink:href="#DejaVuSans-35" x="83.789062"/>
       <use xlink:href="#DejaVuSans-30" x="147.412109"/>
       <use xlink:href="#DejaVuSans-30" x="211.035156"/>
      </g>
     </g>
    </g>
    <g id="ytick_2">
     <g id="line2d_8">
      <g>
       <use xlink:href="#m515a45a086" x="57.6" y="255.075706" style="stroke: #000000; stroke-width: 0.8"/>
      </g>
     </g>
     <g id="text_8">
      <!-- −400 -->
      <g transform="translate(23.132812 258.874924) scale(0.1 -0.1)">
       <use xlink:href="#DejaVuSans-2212"/>
       <use xlink:href="#DejaVuSans-34" x="83.789062"/>
       <use xlink:href="#DejaVuSans-30" x="147.412109"/>
       <use xlink:href="#DejaVuSans-30" x="211.035156"/>
      </g>
     </g>
    </g>
    <g id="ytick_3">
     <g id="line2d_9">
      <g>
       <use xlink:href="#m515a45a086" x="57.6" y="214.663411" style="stroke: #000000; stroke-width: 0.8"/>
      </g>
     </g>
     <g id="text_9">
      <!-- −300 -->
      <g transform="translate(23.132812 218.46263) scale(0.1 -0.1)">
       <defs>
        <path id="DejaVuSans-33" d="M 2597 2516 
Q 3050 2419 3304 2112 
Q 3559 1806 3559 1356 
Q 3559 666 3084 287 
Q 2609 -91 1734 -91 
Q 1441 -91 1130 -33 
Q 819 25 488 141 
L 488 750 
Q 750 597 1062 519 
Q 1375 441 1716 441 
Q 2309 441 2620 675 
Q 2931 909 2931 1356 
Q 2931 1769 2642 2001 
Q 2353 2234 1838 2234 
L 1294 2234 
L 1294 2753 
L 1863 2753 
Q 2328 2753 2575 2939 
Q 2822 3125 2822 3475 
Q 2822 3834 2567 4026 
Q 2313 4219 1838 4219 
Q 1578 4219 1281 4162 
Q 984 4106 628 3988 
L 628 4550 
Q 988 4650 1302 4700 
Q 1616 4750 1894 4750 
Q 2613 4750 3031 4423 
Q 3450 4097 3450 3541 
Q 3450 3153 3228 2886 
Q 3006 2619 2597 2516 
z
" transform="scale(0.015625)"/>
       </defs>
       <use xlink:href="#DejaVuSans-2212"/>
       <use xlink:href="#DejaVuSans-33" x="83.789062"/>
       <use xlink:href="#DejaVuSans-30" x="147.412109"/>
       <use xlink:href="#DejaVuSans-30" x="211.035156"/>
      </g>
     </g>
    </g>
    <g id="ytick_4">
     <g id="line2d_10">
      <g>
       <use xlink:href="#m515a45a086" x="57.6" y="174.251117" style="stroke: #000000; stroke-width: 0.8"/>
      </g>
     </g>
     <g id="text_10">
      <!-- −200 -->
      <g transform="translate(23.132812 178.050336) scale(0.1 -0.1)">
       <use xlink:href="#DejaVuSans-2212"/>
       <use xlink:href="#DejaVuSans-32" x="83.789062"/>
       <use xlink:href="#DejaVuSans-30" x="147.412109"/>
       <use xlink:href="#DejaVuSans-30" x="211.035156"/>
      </g>
     </g>
    </g>
    <g id="ytick_5">
     <g id="line2d_11">
      <g>
       <use xlink:href="#m515a45a086" x="57.6" y="133.838823" style="stroke: #000000; stroke-width: 0.8"/>
      </g>
     </g>
     <g id="text_11">
      <!-- −100 -->
      <g transform="translate(23.132812 137.638041) scale(0.1 -0.1)">
       <use xlink:href="#DejaVuSans-2212"/>
       <use xlink:href="#DejaVuSans-31" x="83.789062"/>
       <use xlink:href="#DejaVuSans-30" x="147.412109"/>
       <use xlink:href="#DejaVuSans-30" x="211.035156"/>
      </g>
     </g>
    </g>
    <g id="ytick_6">
     <g id="line2d_12">
      <g>
       <use xlink:href="#m515a45a086" x="57.6" y="93.426528" style="stroke: #000000; stroke-width: 0.8"/>
      </g>
     </g>
     <g id="text_12">
      <!-- 0 -->
      <g transform="translate(44.2375 97.225747) scale(0.1 -0.1)">
       <use xlink:href="#DejaVuSans-30"/>
      </g>
     </g>
    </g>
    <g id="ytick_7">
     <g id="line2d_13">
      <g>
       <use xlink:href="#m515a45a086" x="57.6" y="53.014234" style="stroke: #000000; stroke-width: 0.8"/>
      </g>
     </g>
     <g id="text_13">
      <!-- 100 -->
      <g transform="translate(31.5125 56.813453) scale(0.1 -0.1)">
       <use xlink:href="#DejaVuSans-31"/>
       <use xlink:href="#DejaVuSans-30" x="63.623047"/>
       <use xlink:href="#DejaVuSans-30" x="127.246094"/>
      </g>
     </g>
    </g>
   </g>
   <g id="line2d_14">
    <path d="M 73.832727 295.488 
L 74.157707 77.941417 
L 74.482686 90.664117 
L 74.807666 113.713157 
L 75.132645 77.768983 
L 75.457625 79.518894 
L 75.782604 86.238639 
L 76.107584 295.488 
L 76.432563 78.259654 
L 76.757543 295.488 
L 77.082523 295.488 
L 77.407502 69.823976 
L 77.732482 295.488 
L 92.35656 295.488 
L 92.68154 91.852643 
L 93.006519 295.488 
L 93.331499 100.070385 
L 93.656478 295.488 
L 110.880393 295.488 
L 111.205373 77.547859 
L 111.530352 295.488 
L 112.505291 295.488 
L 112.83027 281.887588 
L 113.15525 295.488 
L 114.130188 295.488 
L 114.455168 65.137951 
L 114.780147 295.488 
L 117.379984 295.488 
L 117.704963 91.008876 
L 118.029943 295.488 
L 118.354922 101.994918 
L 118.679902 295.488 
L 119.004881 98.677591 
L 119.329861 90.862691 
L 119.65484 99.169873 
L 119.97982 295.488 
L 124.529533 295.488 
L 124.854513 64.31009 
L 125.179492 295.488 
L 125.504472 295.488 
L 125.829451 78.305614 
L 126.154431 295.488 
L 127.454349 295.488 
L 127.779328 63.04033 
L 128.104308 295.488 
L 128.429287 64.600134 
L 128.754267 65.083552 
L 129.079247 295.488 
L 129.404226 62.295975 
L 129.729206 295.488 
L 130.054185 115.000933 
L 130.379165 60.315108 
L 130.704144 295.488 
L 131.029124 64.514948 
L 131.354103 295.488 
L 131.679083 103.623517 
L 132.004062 95.523977 
L 132.329042 130.130433 
L 132.654021 80.679272 
L 132.979001 295.488 
L 133.30398 88.325299 
L 133.62896 92.78185 
L 133.953939 139.424429 
L 134.278919 295.488 
L 134.603898 117.575153 
L 134.928878 99.485509 
L 135.253857 295.488 
L 135.578837 88.337977 
L 135.903817 81.102911 
L 136.228796 89.239058 
L 136.553776 69.980005 
L 136.878755 96.088435 
L 137.203735 96.470834 
L 137.528714 73.254448 
L 137.853694 90.923534 
L 138.178673 69.726547 
L 138.503653 71.750317 
L 138.828632 295.488 
L 139.153612 295.488 
L 139.478591 90.67846 
L 139.803571 70.078781 
L 140.12855 295.488 
L 140.778509 295.488 
L 141.103489 112.512488 
L 141.428468 68.702298 
L 141.753448 85.144179 
L 142.078428 295.488 
L 142.403407 295.488 
L 142.728387 86.391497 
L 143.053366 93.179435 
L 143.378346 61.143331 
L 143.703325 295.488 
L 144.028305 67.67958 
L 144.353284 86.002137 
L 144.678264 295.488 
L 145.003243 295.488 
L 145.328223 59.710153 
L 145.653202 295.488 
L 145.978182 76.924194 
L 146.303161 93.120962 
L 146.628141 77.913746 
L 146.95312 295.488 
L 147.2781 76.89497 
L 147.603079 63.622423 
L 147.928059 65.9891 
L 148.253038 295.488 
L 148.578018 61.466724 
L 148.902998 295.488 
L 149.227977 295.488 
L 149.552957 90.930173 
L 149.877936 60.074166 
L 150.202916 295.488 
L 150.852875 295.488 
L 151.177854 79.246164 
L 151.502834 104.478295 
L 151.827813 92.52648 
L 152.152793 295.488 
L 152.802752 295.488 
L 153.127731 86.656659 
L 153.452711 295.488 
L 153.77769 99.845225 
L 154.10267 86.510661 
L 154.427649 295.488 
L 154.752629 295.488 
L 155.077609 96.579865 
L 155.402588 295.488 
L 155.727568 105.841684 
L 156.052547 83.969361 
L 156.377527 85.900157 
L 156.702506 99.345192 
L 157.027486 295.488 
L 157.677445 295.488 
L 158.002424 88.26524 
L 158.327404 87.019224 
L 158.652383 295.488 
L 158.977363 91.593518 
L 159.302342 135.163997 
L 159.627322 295.488 
L 160.60226 295.488 
L 160.92724 60.921557 
L 161.252219 295.488 
L 161.577199 295.488 
L 161.902179 91.975814 
L 162.227158 88.361873 
L 162.552138 57.732674 
L 162.877117 86.306091 
L 163.527076 295.488 
L 163.852056 295.488 
L 164.177035 101.941538 
L 164.502015 295.488 
L 164.826994 96.619317 
L 165.151974 180.355725 
L 165.476953 295.488 
L 165.801933 295.488 
L 166.126912 83.613135 
L 166.451892 219.792861 
L 166.776871 94.040208 
L 167.101851 66.85222 
L 167.42683 88.461838 
L 167.75181 73.0081 
L 168.07679 91.450589 
L 168.401769 81.992022 
L 168.726749 295.488 
L 169.051728 87.221966 
L 169.376708 295.488 
L 169.701687 117.895572 
L 170.026667 91.366571 
L 170.351646 87.275829 
L 170.676626 91.334052 
L 171.001605 295.488 
L 171.326585 89.09512 
L 171.651564 84.807536 
L 171.976544 91.3085 
L 172.301523 295.488 
L 172.626503 295.488 
L 172.951482 84.652479 
L 173.276462 295.488 
L 173.601441 295.488 
L 173.926421 276.231743 
L 174.2514 67.962984 
L 174.57638 295.488 
L 174.90136 295.488 
L 175.226339 107.97324 
L 175.551319 132.148745 
L 175.876298 81.805202 
L 176.201278 92.144338 
L 176.526257 295.488 
L 176.851237 143.081429 
L 177.176216 295.488 
L 177.501196 295.488 
L 177.826175 92.182202 
L 178.151155 295.488 
L 178.476134 84.499161 
L 178.801114 140.577746 
L 179.126093 295.488 
L 179.451073 295.488 
L 179.776052 82.232022 
L 180.101032 111.933003 
L 180.426011 295.488 
L 180.750991 119.284585 
L 181.075971 295.488 
L 182.050909 295.488 
L 182.375889 77.161655 
L 182.700868 244.874965 
L 183.025848 87.187117 
L 183.350827 295.488 
L 183.675807 105.805636 
L 184.000786 295.488 
L 184.325766 295.488 
L 184.650745 104.434085 
L 184.975725 115.049875 
L 185.300704 115.344356 
L 185.625684 295.488 
L 185.950663 114.277348 
L 186.275643 92.544263 
L 186.600622 101.22427 
L 186.925602 103.966035 
L 187.250581 103.751234 
L 187.575561 102.781004 
L 187.900541 110.546115 
L 188.22552 99.315564 
L 188.5505 91.993771 
L 188.875479 96.667981 
L 189.200459 86.408943 
L 189.525438 95.074558 
L 189.850418 95.732633 
L 190.175397 295.488 
L 190.500377 132.575711 
L 190.825356 100.948547 
L 191.150336 99.485523 
L 191.475315 295.488 
L 191.800295 295.488 
L 192.125274 92.557204 
L 192.450254 88.874003 
L 192.775233 109.778465 
L 193.100213 75.018875 
L 193.425192 230.392006 
L 193.750172 92.864144 
L 194.075152 82.500589 
L 194.400131 295.488 
L 194.725111 295.488 
L 195.05009 105.631131 
L 195.37507 295.488 
L 195.700049 91.422239 
L 196.025029 68.707966 
L 196.350008 87.281506 
L 196.674988 295.488 
L 196.999967 295.488 
L 197.324947 91.392532 
L 197.649926 106.589381 
L 197.974906 169.661405 
L 198.299885 85.670481 
L 198.624865 87.964388 
L 198.949844 102.80906 
L 199.274824 88.205627 
L 199.599803 105.269015 
L 199.924783 295.488 
L 201.224701 295.488 
L 201.549681 113.970467 
L 201.87466 295.488 
L 203.174578 295.488 
L 203.499558 78.123041 
L 203.824537 295.488 
L 204.149517 238.554008 
L 204.474496 135.913397 
L 204.799476 119.153409 
L 205.124455 92.724123 
L 205.449435 295.488 
L 205.774414 64.093529 
L 206.099394 114.438643 
L 206.424373 87.022722 
L 206.749353 92.814577 
L 207.074333 295.488 
L 207.399312 87.174876 
L 207.724292 215.267618 
L 208.049271 295.488 
L 208.374251 113.003752 
L 208.69923 123.570637 
L 209.02421 295.488 
L 209.349189 295.488 
L 209.674169 67.137515 
L 209.999148 295.488 
L 210.324128 87.94505 
L 210.649107 295.488 
L 210.974087 64.15996 
L 211.624046 106.319643 
L 211.949025 110.484336 
L 212.274005 295.488 
L 212.598984 88.290566 
L 212.923964 90.447607 
L 213.248943 71.46636 
L 213.573923 101.760005 
L 213.898903 295.488 
L 214.223882 95.648956 
L 214.548862 295.488 
L 215.84878 295.488 
L 216.173759 86.817807 
L 216.498739 90.455592 
L 216.823718 86.533253 
L 217.148698 119.953404 
L 217.473677 88.595981 
L 217.798657 95.898166 
L 218.123636 93.847095 
L 218.448616 87.652954 
L 218.773595 295.488 
L 219.098575 93.470854 
L 219.423554 88.364769 
L 219.748534 94.809835 
L 220.073514 295.488 
L 220.723473 295.488 
L 221.048452 92.074646 
L 221.373432 295.488 
L 221.698411 114.912933 
L 222.023391 295.488 
L 222.34837 105.056811 
L 222.67335 223.52906 
L 222.998329 295.488 
L 223.323309 295.488 
L 223.648288 93.463979 
L 223.973268 295.488 
L 224.623227 86.79196 
L 224.948206 295.488 
L 225.273186 132.898575 
L 225.598165 295.488 
L 225.923145 295.488 
L 226.573104 91.474026 
L 226.898084 295.488 
L 227.223063 89.935574 
L 227.548043 100.886762 
L 227.873022 82.330957 
L 228.198002 190.651273 
L 228.522981 90.373142 
L 228.847961 78.217791 
L 229.17294 259.693508 
L 229.49792 75.218287 
L 229.822899 90.942624 
L 230.147879 86.929873 
L 230.472858 102.157587 
L 230.797838 84.731696 
L 231.122817 80.065456 
L 231.447797 84.450786 
L 231.772776 127.86773 
L 232.097756 87.764217 
L 232.422735 102.106578 
L 232.747715 78.498534 
L 233.072695 88.695738 
L 233.722654 88.078171 
L 234.372613 90.484778 
L 234.697592 295.488 
L 235.022572 295.488 
L 235.347551 84.097654 
L 235.672531 295.488 
L 236.32249 295.488 
L 236.647469 76.818596 
L 236.972449 112.828049 
L 237.297428 92.929383 
L 237.622408 91.153515 
L 237.947387 91.40161 
L 238.272367 86.654475 
L 238.597346 92.650971 
L 238.922326 100.809122 
L 239.247305 136.90208 
L 239.572285 91.778394 
L 239.897265 295.488 
L 240.222244 87.81513 
L 240.547224 88.839641 
L 240.872203 295.488 
L 241.197183 102.794699 
L 241.522162 87.335975 
L 241.847142 295.488 
L 242.172121 91.123049 
L 242.497101 98.797163 
L 242.82208 97.928073 
L 243.14706 104.850472 
L 243.472039 86.932203 
L 243.797019 295.488 
L 244.446978 295.488 
L 244.771957 104.954269 
L 245.421916 89.896379 
L 245.746896 69.300007 
L 246.396855 91.131862 
L 246.721835 94.305614 
L 247.046814 295.488 
L 247.371794 295.488 
L 247.696773 69.926761 
L 248.021753 295.488 
L 248.996691 295.488 
L 249.321671 89.372447 
L 249.64665 121.064988 
L 249.97163 295.488 
L 250.946568 295.488 
L 251.271548 68.838641 
L 251.596527 71.939146 
L 251.921507 97.876223 
L 252.246486 295.488 
L 252.571466 295.488 
L 252.896446 112.028275 
L 253.221425 295.488 
L 254.521343 295.488 
L 254.846323 103.491017 
L 255.171302 98.51002 
L 255.496282 64.772284 
L 255.821261 101.992451 
L 256.146241 65.796042 
L 256.7962 87.387029 
L 257.121179 107.221665 
L 257.446159 295.488 
L 257.771138 91.012895 
L 258.096118 93.74443 
L 258.421097 295.488 
L 259.071057 295.488 
L 259.396036 185.326791 
L 259.721016 295.488 
L 261.345913 295.488 
L 261.670893 152.001919 
L 261.995872 295.488 
L 262.320852 73.778622 
L 262.645831 295.488 
L 262.970811 84.768103 
L 263.29579 295.488 
L 263.62077 73.238422 
L 263.945749 92.261406 
L 264.270729 88.465881 
L 264.595708 120.374332 
L 264.920688 87.932433 
L 265.245667 109.28645 
L 265.570647 65.040807 
L 265.895627 295.488 
L 266.220606 71.302899 
L 266.545586 73.972949 
L 266.870565 295.488 
L 267.195545 69.617831 
L 267.520524 295.488 
L 267.845504 88.350804 
L 268.170483 295.488 
L 268.495463 69.570221 
L 268.820442 295.488 
L 269.145422 65.509731 
L 269.470401 295.488 
L 270.770319 295.488 
L 271.095299 91.259379 
L 271.420278 88.044305 
L 271.745258 295.488 
L 272.070238 68.043392 
L 272.395217 295.488 
L 272.720197 88.676727 
L 273.045176 77.266125 
L 273.370156 222.516482 
L 273.695135 78.510807 
L 274.020115 96.831834 
L 274.345094 92.823069 
L 274.670074 70.64422 
L 274.995053 295.488 
L 275.969992 295.488 
L 276.294971 73.309621 
L 276.619951 295.488 
L 276.94493 93.596842 
L 277.26991 101.632499 
L 277.594889 295.488 
L 277.919869 77.097773 
L 278.244848 96.762541 
L 278.569828 72.657328 
L 278.894808 105.936369 
L 279.219787 295.488 
L 279.544767 69.454463 
L 279.869746 90.947075 
L 280.194726 69.545598 
L 280.519705 223.902948 
L 281.169664 78.333236 
L 281.494644 66.567642 
L 281.819623 295.488 
L 282.144603 81.023094 
L 282.469582 295.488 
L 282.794562 295.488 
L 283.119541 100.659078 
L 283.444521 295.488 
L 284.09448 295.488 
L 284.419459 70.906849 
L 284.744439 69.881239 
L 285.069419 71.667093 
L 285.394398 100.910574 
L 285.719378 295.488 
L 286.044357 69.336929 
L 286.369337 295.488 
L 286.694316 91.336094 
L 287.019296 295.488 
L 288.319214 295.488 
L 288.644193 94.199723 
L 288.969173 295.488 
L 289.294152 107.123363 
L 289.619132 295.488 
L 290.269091 295.488 
L 290.59407 72.254204 
L 290.91905 122.563631 
L 291.244029 119.089541 
L 291.569009 295.488 
L 291.893989 295.488 
L 292.218968 101.975446 
L 292.543948 228.027392 
L 292.868927 295.488 
L 293.193907 269.212318 
L 293.518886 80.976871 
L 293.843866 78.541609 
L 294.168845 78.521532 
L 294.493825 295.488 
L 294.818804 295.488 
L 295.143784 82.949371 
L 295.468763 236.364248 
L 295.793743 80.42249 
L 296.118722 295.488 
L 296.443702 295.488 
L 296.768681 85.519948 
L 297.41864 91.897638 
L 297.74362 92.457219 
L 298.0686 94.867774 
L 298.393579 96.062616 
L 298.718559 89.570463 
L 299.043538 89.536209 
L 299.368518 295.488 
L 300.018477 295.488 
L 300.343456 94.58235 
L 300.668436 94.497401 
L 300.993415 96.604789 
L 301.318395 295.488 
L 301.643374 120.089643 
L 301.968354 295.488 
L 302.293333 143.58468 
L 302.618313 295.488 
L 303.268272 295.488 
L 303.593251 91.315522 
L 303.918231 295.488 
L 305.218149 295.488 
L 305.543129 94.65876 
L 305.868108 53.568 
L 306.193088 140.559944 
L 306.518067 295.488 
L 306.843047 295.488 
L 307.168026 74.143151 
L 307.493006 295.488 
L 307.817985 295.488 
L 308.142965 73.756715 
L 308.467944 78.750601 
L 308.792924 108.766338 
L 309.117903 104.748879 
L 309.442883 98.865342 
L 309.767862 109.068907 
L 310.092842 131.544356 
L 310.417821 101.014628 
L 310.742801 295.488 
L 311.067781 98.542641 
L 311.39276 295.488 
L 313.017658 295.488 
L 313.342637 76.745366 
L 313.667617 295.488 
L 313.992596 86.620542 
L 314.317576 295.488 
L 314.967535 295.488 
L 315.292514 106.491135 
L 315.617494 295.488 
L 316.267453 295.488 
L 316.592432 111.615502 
L 316.917412 105.54262 
L 317.242391 295.488 
L 317.567371 139.697849 
L 317.892351 76.420774 
L 318.21733 295.488 
L 318.54231 295.488 
L 318.867289 138.367631 
L 319.192269 295.488 
L 319.842228 295.488 
L 320.167207 100.08374 
L 320.492187 101.565056 
L 320.817166 295.488 
L 321.467125 295.488 
L 321.792105 89.571041 
L 322.117084 116.733903 
L 322.442064 88.178287 
L 322.767043 295.488 
L 323.092023 99.742645 
L 323.417002 295.488 
L 323.741982 295.488 
L 324.066962 138.566753 
L 324.391941 136.99171 
L 324.716921 78.307118 
L 325.0419 295.488 
L 325.36688 103.385164 
L 325.691859 295.488 
L 326.016839 93.586937 
L 326.341818 100.802114 
L 326.666798 100.121649 
L 326.991777 295.488 
L 327.316757 295.488 
L 327.641736 159.528929 
L 327.966716 100.621797 
L 328.291695 295.488 
L 328.616675 89.989101 
L 328.941654 295.488 
L 329.266634 103.227136 
L 329.591613 68.523559 
L 329.916593 295.488 
L 330.241572 295.488 
L 330.566552 100.957024 
L 330.891532 100.85267 
L 331.216511 69.876602 
L 331.541491 295.488 
L 331.86647 107.831108 
L 332.19145 295.488 
L 332.516429 63.272501 
L 332.841409 295.488 
L 337.066143 295.488 
L 337.391122 113.805741 
L 337.716102 295.488 
L 341.615856 295.488 
L 341.940835 81.702607 
L 342.265815 295.488 
L 344.865651 295.488 
L 345.190631 58.392384 
L 345.51561 295.488 
L 346.165569 295.488 
L 346.490549 86.480684 
L 346.815528 295.488 
L 349.740344 295.488 
L 350.065324 82.687287 
L 350.390303 295.488 
L 350.715283 295.488 
L 351.040262 85.54508 
L 351.365242 295.488 
L 352.34018 295.488 
L 352.66516 102.398642 
L 352.990139 295.488 
L 353.315119 226.651965 
L 353.640098 295.488 
L 355.589975 295.488 
L 355.914955 71.573603 
L 356.239934 295.488 
L 357.864832 295.488 
L 358.189812 63.501663 
L 358.514791 295.488 
L 359.814709 295.488 
L 360.139689 94.236132 
L 360.464668 295.488 
L 363.714464 295.488 
L 364.039443 83.280767 
L 364.364423 295.488 
L 366.639279 295.488 
L 366.964259 94.341605 
L 367.289238 295.488 
L 367.939197 76.976142 
L 368.264177 295.488 
L 368.589156 100.979008 
L 368.914136 60.814337 
L 369.239115 295.488 
L 373.463849 295.488 
L 373.788829 55.398046 
L 374.113808 295.488 
L 374.438788 133.776203 
L 374.763767 295.488 
L 378.013563 295.488 
L 378.338542 91.4825 
L 378.663522 152.113248 
L 378.988501 295.488 
L 380.288419 295.488 
L 380.613399 91.310098 
L 380.938378 295.488 
L 381.263358 295.488 
L 381.588337 94.053317 
L 381.913317 93.351205 
L 382.238296 102.591136 
L 382.563276 295.488 
L 383.538215 295.488 
L 383.863194 105.385645 
L 384.188174 295.488 
L 384.838133 295.488 
L 385.163112 154.034265 
L 385.488092 295.488 
L 385.813071 295.488 
L 386.138051 150.40593 
L 386.46303 150.226255 
L 386.78801 295.488 
L 398.487273 295.488 
L 398.487273 295.488 
" clip-path="url(#pb0c2399e09)" style="fill: none; stroke: #1f77b4; stroke-width: 1.5; stroke-linecap: square"/>
   </g>
   <g id="patch_3">
    <path d="M 57.6 307.584 
L 57.6 41.472 
" style="fill: none; stroke: #000000; stroke-width: 0.8; stroke-linejoin: miter; stroke-linecap: square"/>
   </g>
   <g id="patch_4">
    <path d="M 414.72 307.584 
L 414.72 41.472 
" style="fill: none; stroke: #000000; stroke-width: 0.8; stroke-linejoin: miter; stroke-linecap: square"/>
   </g>
   <g id="patch_5">
    <path d="M 57.6 307.584 
L 414.72 307.584 
" style="fill: none; stroke: #000000; stroke-width: 0.8; stroke-linejoin: miter; stroke-linecap: square"/>
   </g>
   <g id="patch_6">
    <path d="M 57.6 41.472 
L 414.72 41.472 
" style="fill: none; stroke: #000000; stroke-width: 0.8; stroke-linejoin: miter; stroke-linecap: square"/>
   </g>
  </g>
 </g>
 <defs>
  <clipPath id="pb0c2399e09">
   <rect x="57.6" y="41.472" width="357.12" height="266.112"/>
  </clipPath>
 </defs>
</svg>
