   <?xml version="1.0" encoding="utf-8" standalone="no"?>
<!DOCTYPE svg PUBLIC "-//W3C//DTD SVG 1.1//EN"
  "http://www.w3.org/Graphics/SVG/1.1/DTD/svg11.dtd">
<svg xmlns:xlink="http://www.w3.org/1999/xlink" width="460.8pt" height="345.6pt" viewBox="0 0 460.8 345.6" xmlns="http://www.w3.org/2000/svg" version="1.1">
 <metadata>
  <rdf:RDF xmlns:dc="http://purl.org/dc/elements/1.1/" xmlns:cc="http://creativecommons.org/ns#" xmlns:rdf="http://www.w3.org/1999/02/22-rdf-syntax-ns#">
   <cc:Work>
    <dc:type rdf:resource="http://purl.org/dc/dcmitype/StillImage"/>
    <dc:date>2024-04-23T12:19:48.821732</dc:date>
    <dc:format>image/svg+xml</dc:format>
    <dc:creator>
     <cc:Agent>
      <dc:title>Matplotlib v3.7.2, https://matplotlib.org/</dc:title>
     </cc:Agent>
    </dc:creator>
   </cc:Work>
  </rdf:RDF>
 </metadata>
 <defs>
  <style type="text/css">*{stroke-linejoin: round; stroke-linecap: butt}</style>
 </defs>
 <g id="figure_1">
  <g id="patch_1">
   <path d="M 0 345.6 
L 460.8 345.6 
L 460.8 0 
L 0 0 
z
" style="fill: #ffffff"/>
  </g>
  <g id="axes_1">
   <g id="patch_2">
    <path d="M 57.6 307.584 
L 414.72 307.584 
L 414.72 41.472 
L 57.6 41.472 
z
" style="fill: #ffffff"/>
   </g>
   <g id="matplotlib.axis_1">
    <g id="xtick_1">
     <g id="line2d_1">
      <defs>
       <path id="m5d88f871c9" d="M 0 0 
L 0 3.5 
" style="stroke: #000000; stroke-width: 0.8"/>
      </defs>
      <g>
       <use xlink:href="#m5d88f871c9" x="73.832727" y="307.584" style="stroke: #000000; stroke-width: 0.8"/>
      </g>
     </g>
     <g id="text_1">
      <!-- 0 -->
      <g transform="translate(70.651477 322.182437) scale(0.1 -0.1)">
       <defs>
        <path id="DejaVuSans-30" d="M 2034 4250 
Q 1547 4250 1301 3770 
Q 1056 3291 1056 2328 
Q 1056 1369 1301 889 
Q 1547 409 2034 409 
Q 2525 409 2770 889 
Q 3016 1369 3016 2328 
Q 3016 3291 2770 3770 
Q 2525 4250 2034 4250 
z
M 2034 4750 
Q 2819 4750 3233 4129 
Q 3647 3509 3647 2328 
Q 3647 1150 3233 529 
Q 2819 -91 2034 -91 
Q 1250 -91 836 529 
Q 422 1150 422 2328 
Q 422 3509 836 4129 
Q 1250 4750 2034 4750 
z
" transform="scale(0.015625)"/>
       </defs>
       <use xlink:href="#DejaVuSans-30"/>
      </g>
     </g>
    </g>
    <g id="xtick_2">
     <g id="line2d_2">
      <g>
       <use xlink:href="#m5d88f871c9" x="138.77013" y="307.584" style="stroke: #000000; stroke-width: 0.8"/>
      </g>
     </g>
     <g id="text_2">
      <!-- 2000 -->
      <g transform="translate(126.04513 322.182437) scale(0.1 -0.1)">
       <defs>
        <path id="DejaVuSans-32" d="M 1228 531 
L 3431 531 
L 3431 0 
L 469 0 
L 469 531 
Q 828 903 1448 1529 
Q 2069 2156 2228 2338 
Q 2531 2678 2651 2914 
Q 2772 3150 2772 3378 
Q 2772 3750 2511 3984 
Q 2250 4219 1831 4219 
Q 1534 4219 1204 4116 
Q 875 4013 500 3803 
L 500 4441 
Q 881 4594 1212 4672 
Q 1544 4750 1819 4750 
Q 2544 4750 2975 4387 
Q 3406 4025 3406 3419 
Q 3406 3131 3298 2873 
Q 3191 2616 2906 2266 
Q 2828 2175 2409 1742 
Q 1991 1309 1228 531 
z
" transform="scale(0.015625)"/>
       </defs>
       <use xlink:href="#DejaVuSans-32"/>
       <use xlink:href="#DejaVuSans-30" x="63.623047"/>
       <use xlink:href="#DejaVuSans-30" x="127.246094"/>
       <use xlink:href="#DejaVuSans-30" x="190.869141"/>
      </g>
     </g>
    </g>
    <g id="xtick_3">
     <g id="line2d_3">
      <g>
       <use xlink:href="#m5d88f871c9" x="203.707533" y="307.584" style="stroke: #000000; stroke-width: 0.8"/>
      </g>
     </g>
     <g id="text_3">
      <!-- 4000 -->
      <g transform="translate(190.982533 322.182437) scale(0.1 -0.1)">
       <defs>
        <path id="DejaVuSans-34" d="M 2419 4116 
L 825 1625 
L 2419 1625 
L 2419 4116 
z
M 2253 4666 
L 3047 4666 
L 3047 1625 
L 3713 1625 
L 3713 1100 
L 3047 1100 
L 3047 0 
L 2419 0 
L 2419 1100 
L 313 1100 
L 313 1709 
L 2253 4666 
z
" transform="scale(0.015625)"/>
       </defs>
       <use xlink:href="#DejaVuSans-34"/>
       <use xlink:href="#DejaVuSans-30" x="63.623047"/>
       <use xlink:href="#DejaVuSans-30" x="127.246094"/>
       <use xlink:href="#DejaVuSans-30" x="190.869141"/>
      </g>
     </g>
    </g>
    <g id="xtick_4">
     <g id="line2d_4">
      <g>
       <use xlink:href="#m5d88f871c9" x="268.644936" y="307.584" style="stroke: #000000; stroke-width: 0.8"/>
      </g>
     </g>
     <g id="text_4">
      <!-- 6000 -->
      <g transform="translate(255.919936 322.182437) scale(0.1 -0.1)">
       <defs>
        <path id="DejaVuSans-36" d="M 2113 2584 
Q 1688 2584 1439 2293 
Q 1191 2003 1191 1497 
Q 1191 994 1439 701 
Q 1688 409 2113 409 
Q 2538 409 2786 701 
Q 3034 994 3034 1497 
Q 3034 2003 2786 2293 
Q 2538 2584 2113 2584 
z
M 3366 4563 
L 3366 3988 
Q 3128 4100 2886 4159 
Q 2644 4219 2406 4219 
Q 1781 4219 1451 3797 
Q 1122 3375 1075 2522 
Q 1259 2794 1537 2939 
Q 1816 3084 2150 3084 
Q 2853 3084 3261 2657 
Q 3669 2231 3669 1497 
Q 3669 778 3244 343 
Q 2819 -91 2113 -91 
Q 1303 -91 875 529 
Q 447 1150 447 2328 
Q 447 3434 972 4092 
Q 1497 4750 2381 4750 
Q 2619 4750 2861 4703 
Q 3103 4656 3366 4563 
z
" transform="scale(0.015625)"/>
       </defs>
       <use xlink:href="#DejaVuSans-36"/>
       <use xlink:href="#DejaVuSans-30" x="63.623047"/>
       <use xlink:href="#DejaVuSans-30" x="127.246094"/>
       <use xlink:href="#DejaVuSans-30" x="190.869141"/>
      </g>
     </g>
    </g>
    <g id="xtick_5">
     <g id="line2d_5">
      <g>
       <use xlink:href="#m5d88f871c9" x="333.582339" y="307.584" style="stroke: #000000; stroke-width: 0.8"/>
      </g>
     </g>
     <g id="text_5">
      <!-- 8000 -->
      <g transform="translate(320.857339 322.182437) scale(0.1 -0.1)">
       <defs>
        <path id="DejaVuSans-38" d="M 2034 2216 
Q 1584 2216 1326 1975 
Q 1069 1734 1069 1313 
Q 1069 891 1326 650 
Q 1584 409 2034 409 
Q 2484 409 2743 651 
Q 3003 894 3003 1313 
Q 3003 1734 2745 1975 
Q 2488 2216 2034 2216 
z
M 1403 2484 
Q 997 2584 770 2862 
Q 544 3141 544 3541 
Q 544 4100 942 4425 
Q 1341 4750 2034 4750 
Q 2731 4750 3128 4425 
Q 3525 4100 3525 3541 
Q 3525 3141 3298 2862 
Q 3072 2584 2669 2484 
Q 3125 2378 3379 2068 
Q 3634 1759 3634 1313 
Q 3634 634 3220 271 
Q 2806 -91 2034 -91 
Q 1263 -91 848 271 
Q 434 634 434 1313 
Q 434 1759 690 2068 
Q 947 2378 1403 2484 
z
M 1172 3481 
Q 1172 3119 1398 2916 
Q 1625 2713 2034 2713 
Q 2441 2713 2670 2916 
Q 2900 3119 2900 3481 
Q 2900 3844 2670 4047 
Q 2441 4250 2034 4250 
Q 1625 4250 1398 4047 
Q 1172 3844 1172 3481 
z
" transform="scale(0.015625)"/>
       </defs>
       <use xlink:href="#DejaVuSans-38"/>
       <use xlink:href="#DejaVuSans-30" x="63.623047"/>
       <use xlink:href="#DejaVuSans-30" x="127.246094"/>
       <use xlink:href="#DejaVuSans-30" x="190.869141"/>
      </g>
     </g>
    </g>
    <g id="xtick_6">
     <g id="line2d_6">
      <g>
       <use xlink:href="#m5d88f871c9" x="398.519741" y="307.584" style="stroke: #000000; stroke-width: 0.8"/>
      </g>
     </g>
     <g id="text_6">
      <!-- 10000 -->
      <g transform="translate(382.613491 322.182437) scale(0.1 -0.1)">
       <defs>
        <path id="DejaVuSans-31" d="M 794 531 
L 1825 531 
L 1825 4091 
L 703 3866 
L 703 4441 
L 1819 4666 
L 2450 4666 
L 2450 531 
L 3481 531 
L 3481 0 
L 794 0 
L 794 531 
z
" transform="scale(0.015625)"/>
       </defs>
       <use xlink:href="#DejaVuSans-31"/>
       <use xlink:href="#DejaVuSans-30" x="63.623047"/>
       <use xlink:href="#DejaVuSans-30" x="127.246094"/>
       <use xlink:href="#DejaVuSans-30" x="190.869141"/>
       <use xlink:href="#DejaVuSans-30" x="254.492188"/>
      </g>
     </g>
    </g>
   </g>
   <g id="matplotlib.axis_2">
    <g id="ytick_1">
     <g id="line2d_7">
      <defs>
       <path id="m1c0a3d338f" d="M 0 0 
L -3.5 0 
" style="stroke: #000000; stroke-width: 0.8"/>
      </defs>
      <g>
       <use xlink:href="#m1c0a3d338f" x="57.6" y="278.148416" style="stroke: #000000; stroke-width: 0.8"/>
      </g>
     </g>
     <g id="text_7">
      <!-- −3500 -->
      <g transform="translate(16.770313 281.947635) scale(0.1 -0.1)">
       <defs>
        <path id="DejaVuSans-2212" d="M 678 2272 
L 4684 2272 
L 4684 1741 
L 678 1741 
L 678 2272 
z
" transform="scale(0.015625)"/>
        <path id="DejaVuSans-33" d="M 2597 2516 
Q 3050 2419 3304 2112 
Q 3559 1806 3559 1356 
Q 3559 666 3084 287 
Q 2609 -91 1734 -91 
Q 1441 -91 1130 -33 
Q 819 25 488 141 
L 488 750 
Q 750 597 1062 519 
Q 1375 441 1716 441 
Q 2309 441 2620 675 
Q 2931 909 2931 1356 
Q 2931 1769 2642 2001 
Q 2353 2234 1838 2234 
L 1294 2234 
L 1294 2753 
L 1863 2753 
Q 2328 2753 2575 2939 
Q 2822 3125 2822 3475 
Q 2822 3834 2567 4026 
Q 2313 4219 1838 4219 
Q 1578 4219 1281 4162 
Q 984 4106 628 3988 
L 628 4550 
Q 988 4650 1302 4700 
Q 1616 4750 1894 4750 
Q 2613 4750 3031 4423 
Q 3450 4097 3450 3541 
Q 3450 3153 3228 2886 
Q 3006 2619 2597 2516 
z
" transform="scale(0.015625)"/>
        <path id="DejaVuSans-35" d="M 691 4666 
L 3169 4666 
L 3169 4134 
L 1269 4134 
L 1269 2991 
Q 1406 3038 1543 3061 
Q 1681 3084 1819 3084 
Q 2600 3084 3056 2656 
Q 3513 2228 3513 1497 
Q 3513 744 3044 326 
Q 2575 -91 1722 -91 
Q 1428 -91 1123 -41 
Q 819 9 494 109 
L 494 744 
Q 775 591 1075 516 
Q 1375 441 1709 441 
Q 2250 441 2565 725 
Q 2881 1009 2881 1497 
Q 2881 1984 2565 2268 
Q 2250 2553 1709 2553 
Q 1456 2553 1204 2497 
Q 953 2441 691 2322 
L 691 4666 
z
" transform="scale(0.015625)"/>
       </defs>
       <use xlink:href="#DejaVuSans-2212"/>
       <use xlink:href="#DejaVuSans-33" x="83.789062"/>
       <use xlink:href="#DejaVuSans-35" x="147.412109"/>
       <use xlink:href="#DejaVuSans-30" x="211.035156"/>
       <use xlink:href="#DejaVuSans-30" x="274.658203"/>
      </g>
     </g>
    </g>
    <g id="ytick_2">
     <g id="line2d_8">
      <g>
       <use xlink:href="#m1c0a3d338f" x="57.6" y="246.69292" style="stroke: #000000; stroke-width: 0.8"/>
      </g>
     </g>
     <g id="text_8">
      <!-- −3000 -->
      <g transform="translate(16.770313 250.492138) scale(0.1 -0.1)">
       <use xlink:href="#DejaVuSans-2212"/>
       <use xlink:href="#DejaVuSans-33" x="83.789062"/>
       <use xlink:href="#DejaVuSans-30" x="147.412109"/>
       <use xlink:href="#DejaVuSans-30" x="211.035156"/>
       <use xlink:href="#DejaVuSans-30" x="274.658203"/>
      </g>
     </g>
    </g>
    <g id="ytick_3">
     <g id="line2d_9">
      <g>
       <use xlink:href="#m1c0a3d338f" x="57.6" y="215.237423" style="stroke: #000000; stroke-width: 0.8"/>
      </g>
     </g>
     <g id="text_9">
      <!-- −2500 -->
      <g transform="translate(16.770313 219.036642) scale(0.1 -0.1)">
       <use xlink:href="#DejaVuSans-2212"/>
       <use xlink:href="#DejaVuSans-32" x="83.789062"/>
       <use xlink:href="#DejaVuSans-35" x="147.412109"/>
       <use xlink:href="#DejaVuSans-30" x="211.035156"/>
       <use xlink:href="#DejaVuSans-30" x="274.658203"/>
      </g>
     </g>
    </g>
    <g id="ytick_4">
     <g id="line2d_10">
      <g>
       <use xlink:href="#m1c0a3d338f" x="57.6" y="183.781927" style="stroke: #000000; stroke-width: 0.8"/>
      </g>
     </g>
     <g id="text_10">
      <!-- −2000 -->
      <g transform="translate(16.770313 187.581146) scale(0.1 -0.1)">
       <use xlink:href="#DejaVuSans-2212"/>
       <use xlink:href="#DejaVuSans-32" x="83.789062"/>
       <use xlink:href="#DejaVuSans-30" x="147.412109"/>
       <use xlink:href="#DejaVuSans-30" x="211.035156"/>
       <use xlink:href="#DejaVuSans-30" x="274.658203"/>
      </g>
     </g>
    </g>
    <g id="ytick_5">
     <g id="line2d_11">
      <g>
       <use xlink:href="#m1c0a3d338f" x="57.6" y="152.326431" style="stroke: #000000; stroke-width: 0.8"/>
      </g>
     </g>
     <g id="text_11">
      <!-- −1500 -->
      <g transform="translate(16.770313 156.125649) scale(0.1 -0.1)">
       <use xlink:href="#DejaVuSans-2212"/>
       <use xlink:href="#DejaVuSans-31" x="83.789062"/>
       <use xlink:href="#DejaVuSans-35" x="147.412109"/>
       <use xlink:href="#DejaVuSans-30" x="211.035156"/>
       <use xlink:href="#DejaVuSans-30" x="274.658203"/>
      </g>
     </g>
    </g>
    <g id="ytick_6">
     <g id="line2d_12">
      <g>
       <use xlink:href="#m1c0a3d338f" x="57.6" y="120.870934" style="stroke: #000000; stroke-width: 0.8"/>
      </g>
     </g>
     <g id="text_12">
      <!-- −1000 -->
      <g transform="translate(16.770313 124.670153) scale(0.1 -0.1)">
       <use xlink:href="#DejaVuSans-2212"/>
       <use xlink:href="#DejaVuSans-31" x="83.789062"/>
       <use xlink:href="#DejaVuSans-30" x="147.412109"/>
       <use xlink:href="#DejaVuSans-30" x="211.035156"/>
       <use xlink:href="#DejaVuSans-30" x="274.658203"/>
      </g>
     </g>
    </g>
    <g id="ytick_7">
     <g id="line2d_13">
      <g>
       <use xlink:href="#m1c0a3d338f" x="57.6" y="89.415438" style="stroke: #000000; stroke-width: 0.8"/>
      </g>
     </g>
     <g id="text_13">
      <!-- −500 -->
      <g transform="translate(23.132812 93.214657) scale(0.1 -0.1)">
       <use xlink:href="#DejaVuSans-2212"/>
       <use xlink:href="#DejaVuSans-35" x="83.789062"/>
       <use xlink:href="#DejaVuSans-30" x="147.412109"/>
       <use xlink:href="#DejaVuSans-30" x="211.035156"/>
      </g>
     </g>
    </g>
    <g id="ytick_8">
     <g id="line2d_14">
      <g>
       <use xlink:href="#m1c0a3d338f" x="57.6" y="57.959942" style="stroke: #000000; stroke-width: 0.8"/>
      </g>
     </g>
     <g id="text_14">
      <!-- 0 -->
      <g transform="translate(44.2375 61.75916) scale(0.1 -0.1)">
       <use xlink:href="#DejaVuSans-30"/>
      </g>
     </g>
    </g>
   </g>
   <g id="line2d_15">
    <path d="M 73.832727 58.114832 
L 73.865196 54.044512 
L 73.897665 54.746948 
L 73.995071 99.103478 
L 74.092477 57.793912 
L 74.124946 61.093302 
L 74.189883 97.129027 
L 74.222352 53.954455 
L 74.352226 57.46482 
L 74.384695 55.031316 
L 74.417164 57.786424 
L 74.449633 55.296738 
L 74.482101 136.490553 
L 74.547039 93.679015 
L 74.579507 57.786424 
L 74.644445 59.058159 
L 74.676914 99.689944 
L 74.709382 54.614046 
L 74.741851 57.959942 
L 74.77432 54.794123 
L 74.839257 57.959942 
L 74.871726 58.223606 
L 74.904194 57.760541 
L 74.936663 92.847012 
L 74.969132 53.69711 
L 75.001601 58.63775 
L 75.066538 57.751786 
L 75.099007 59.701778 
L 75.131475 59.080686 
L 75.196413 54.575709 
L 75.228881 58.298943 
L 75.26135 57.28111 
L 75.326288 57.912016 
L 75.358756 58.194309 
L 75.423694 57.534771 
L 75.456162 102.068062 
L 75.586037 57.793912 
L 75.618506 54.310601 
L 75.650975 58.77787 
L 75.683443 58.436195 
L 75.715912 58.177133 
L 75.780849 54.014063 
L 75.845787 54.661647 
L 75.878255 58.80898 
L 75.975662 57.874841 
L 76.00813 59.320696 
L 76.040599 57.810641 
L 76.073068 57.959942 
L 76.105536 57.959942 
L 76.170474 57.698355 
L 76.202942 80.215273 
L 76.26788 57.281128 
L 76.300349 57.639026 
L 76.332817 87.386623 
L 76.397755 57.959942 
L 76.430223 53.891743 
L 76.495161 58.184546 
L 76.527629 54.885792 
L 76.592567 59.101678 
L 76.657504 57.219128 
L 76.75491 58.014881 
L 76.787379 57.959942 
L 76.819848 57.751786 
L 76.852317 54.779157 
L 76.884785 57.959942 
L 76.917254 57.959942 
L 76.949723 78.170013 
L 77.01466 57.045181 
L 77.047129 57.435772 
L 77.079597 54.660034 
L 77.112066 57.578114 
L 77.144535 55.16572 
L 77.177004 58.145747 
L 77.241941 57.631233 
L 77.27441 81.849151 
L 77.339347 57.299532 
L 77.371816 57.96768 
L 77.404284 57.793912 
L 77.469222 54.081795 
L 77.501691 54.285468 
L 77.566628 57.959942 
L 77.599097 54.839398 
L 77.631565 54.15234 
L 77.664034 104.66195 
L 77.728971 65.621975 
L 77.76144 54.27319 
L 77.858846 58.615852 
L 77.891315 54.772425 
L 77.956252 57.959942 
L 77.988721 57.959942 
L 78.02119 57.786424 
L 78.053658 57.793912 
L 78.086127 53.568 
L 78.151065 57.959942 
L 78.183533 60.443013 
L 78.216002 57.491337 
L 78.248471 58.534466 
L 78.345877 54.242875 
L 78.378345 58.138329 
L 78.475752 57.959942 
L 78.50822 57.534771 
L 78.540689 54.797615 
L 78.573158 67.246837 
L 78.638095 57.44389 
L 78.703032 58.532707 
L 78.735501 57.342162 
L 78.76797 57.959942 
L 78.897845 86.636528 
L 79.027719 57.747501 
L 79.157594 78.351454 
L 79.287469 54.680116 
L 79.352407 54.266315 
L 79.417344 58.167146 
L 79.449813 58.269539 
L 79.482281 57.959942 
L 79.51475 58.228 
L 79.547219 62.927922 
L 79.612156 57.744289 
L 79.644625 57.421177 
L 79.677094 58.285343 
L 79.709562 57.959942 
L 79.742031 54.708403 
L 79.806968 57.959942 
L 79.839437 61.11383 
L 79.904374 57.421177 
L 79.936843 57.544291 
L 79.969312 182.180363 
L 80.034249 57.623982 
L 80.066718 57.959942 
L 80.099187 57.786424 
L 80.131655 66.46389 
L 80.196593 57.183183 
L 80.293999 57.959942 
L 80.326468 57.537025 
L 80.423874 57.577522 
L 80.456342 54.32147 
L 80.488811 55.983045 
L 80.52128 63.584461 
L 80.586217 60.251135 
L 80.683623 57.959942 
L 80.716092 62.18061 
L 80.781029 58.676801 
L 80.813498 58.670332 
L 80.845967 85.74453 
L 80.878435 57.959942 
L 80.910904 57.959942 
L 80.943373 57.959942 
L 81.073248 58.720811 
L 81.170654 57.959942 
L 81.235591 58.793793 
L 81.26806 58.676801 
L 81.332997 58.720811 
L 81.365466 57.959942 
L 81.397935 60.599131 
L 81.462872 58.670332 
L 81.560278 57.959942 
L 81.592747 59.054588 
L 81.657684 58.676801 
L 81.690153 57.959942 
L 81.75509 58.09887 
L 81.787559 58.670332 
L 81.820028 57.959942 
L 81.852497 57.959942 
L 81.884965 57.959942 
L 81.982371 58.919399 
L 82.01484 58.791521 
L 82.047309 58.676801 
L 82.177184 57.959942 
L 82.242121 57.959942 
L 82.27459 58.676801 
L 82.371996 58.670332 
L 82.469402 57.959942 
L 82.501871 58.676801 
L 82.534339 121.493467 
L 82.566808 57.959942 
L 82.599277 57.959942 
L 82.76162 62.219883 
L 82.794089 57.959942 
L 82.859026 58.831765 
L 82.891495 59.789315 
L 82.923964 58.84478 
L 82.988901 57.959942 
L 83.02137 58.831765 
L 83.053838 59.673945 
L 83.118776 58.831765 
L 83.151245 58.84478 
L 83.216182 59.144058 
L 83.281119 57.959942 
L 83.378525 59.466119 
L 83.410994 59.332286 
L 83.475932 57.959942 
L 83.5084 60.045676 
L 83.573338 57.959942 
L 83.703213 59.144058 
L 83.76815 57.959942 
L 83.800619 60.023001 
L 83.865556 57.959942 
L 84.0279 58.84478 
L 84.060368 57.959942 
L 84.092837 58.84478 
L 84.125306 60.656558 
L 84.157774 58.831765 
L 84.287649 57.959942 
L 84.385055 59.226851 
L 84.417524 58.831765 
L 84.482461 57.959942 
L 84.51493 58.84478 
L 84.547399 58.84478 
L 84.677274 57.959942 
L 84.77468 57.959942 
L 84.872086 59.332286 
L 84.937023 59.55639 
L 84.969492 57.959942 
L 85.034429 59.144058 
L 85.066898 57.959942 
L 85.099367 57.959942 
L 85.131835 58.831765 
L 85.229241 58.738125 
L 85.326648 57.959942 
L 85.359116 58.460194 
L 85.424054 57.959942 
L 85.456522 57.959942 
L 85.488991 58.478726 
L 85.553928 58.200685 
L 85.618866 58.272011 
L 85.651335 57.959942 
L 85.683803 58.478726 
L 85.781209 58.319346 
L 85.846147 58.478726 
L 85.878615 295.488 
L 85.943553 58.289312 
L 86.00849 58.460194 
L 86.105896 57.959942 
L 86.138365 58.478726 
L 86.235771 58.460194 
L 86.333177 57.959942 
L 86.430583 59.203481 
L 86.463052 57.959942 
L 86.52799 59.124293 
L 86.560458 58.734116 
L 86.592927 63.079183 
L 86.625396 58.411576 
L 86.690333 59.246319 
L 86.722802 56.575248 
L 86.75527 63.092215 
L 86.820208 57.696429 
L 86.852677 58.162013 
L 86.917614 62.687579 
L 86.950083 58.209613 
L 86.982551 59.288559 
L 87.01502 57.959942 
L 87.047489 58.353496 
L 87.079957 57.786424 
L 87.112426 58.313943 
L 87.177364 62.687579 
L 87.209832 58.209613 
L 87.27477 57.959942 
L 87.339707 59.288559 
L 87.372176 59.288559 
L 87.404644 60.324557 
L 87.437113 57.959942 
L 87.469582 57.623982 
L 87.502051 57.959942 
L 87.664394 59.288559 
L 87.696863 62.687579 
L 87.729331 57.623982 
L 87.7618 59.288559 
L 87.891675 57.623982 
L 88.02155 62.687579 
L 88.054018 57.959942 
L 88.151425 58.209613 
L 88.183893 58.353496 
L 88.216362 57.786424 
L 88.248831 57.959942 
L 88.281299 59.288559 
L 88.346237 58.478726 
L 88.411174 57.959942 
L 88.541049 59.288559 
L 88.573518 58.478726 
L 88.605986 62.687579 
L 88.638455 57.959942 
L 88.703393 61.752488 
L 88.735861 57.945588 
L 88.865736 74.246276 
L 88.963142 57.866821 
L 88.995611 58.230695 
L 89.02808 60.008224 
L 89.060548 56.603057 
L 89.093017 57.866821 
L 89.125486 58.084669 
L 89.157954 57.662567 
L 89.190423 60.494063 
L 89.287829 60.008224 
L 89.417704 58.594691 
L 89.547579 60.008224 
L 89.580047 60.008224 
L 89.612516 60.405737 
L 89.644985 58.230695 
L 89.709922 58.594691 
L 89.742391 87.377748 
L 89.77486 57.662567 
L 89.807328 60.008224 
L 89.904734 57.662567 
L 89.937203 58.230695 
L 89.969672 60.008224 
L 90.002141 58.084669 
L 90.034609 58.230695 
L 90.067078 57.662567 
L 90.099547 58.317232 
L 90.132015 58.084669 
L 90.164484 68.670102 
L 90.229421 60.008224 
L 90.26189 58.317232 
L 90.391765 68.670102 
L 90.489171 58.809043 
L 90.52164 60.008224 
L 90.554109 58.230695 
L 90.619046 58.594691 
L 90.651515 158.834386 
L 90.716452 58.317232 
L 90.748921 57.662567 
L 90.781389 60.008224 
L 90.813858 158.834386 
L 90.846327 58.317232 
L 90.878796 58.594691 
L 90.911264 58.594691 
L 90.943733 58.809043 
L 90.976202 58.594691 
L 91.00867 58.230695 
L 91.041139 58.594691 
L 91.073608 87.377748 
L 91.106076 57.662567 
L 91.138545 60.008224 
L 91.203483 58.230695 
L 91.26842 58.317232 
L 91.300889 65.118036 
L 91.365826 60.008224 
L 91.463232 58.317232 
L 91.52817 57.358593 
L 91.560638 65.118036 
L 91.593107 87.377748 
L 91.658044 58.230695 
L 91.690513 60.008224 
L 91.722982 68.670102 
L 91.75545 58.594691 
L 91.787919 60.008224 
L 91.820388 60.008224 
L 91.950263 57.662567 
L 91.982731 58.809043 
L 92.0152 158.834386 
L 92.047669 58.230695 
L 92.080137 58.594691 
L 92.112606 58.317232 
L 92.145075 60.008224 
L 92.210012 58.809043 
L 92.242481 74.246276 
L 92.372356 56.406482 
L 92.534699 68.670102 
L 92.567168 74.246276 
L 92.632105 58.084669 
L 92.664574 58.230695 
L 92.697043 87.377748 
L 92.76198 60.494063 
L 92.891855 58.317232 
L 92.924324 68.670102 
L 92.989261 58.230695 
L 93.02173 60.008224 
L 93.086667 58.230695 
L 93.119136 68.670102 
L 93.249011 58.230695 
L 93.313948 56.245906 
L 93.346417 57.178734 
L 93.443823 59.860528 
L 93.541229 74.246276 
L 93.671104 57.866821 
L 93.76851 158.834386 
L 93.865916 58.084669 
L 93.898385 158.834386 
L 93.963322 87.377748 
L 94.060728 58.084669 
L 94.093197 158.834386 
L 94.158134 57.662567 
L 94.288009 87.377748 
L 94.417884 58.317232 
L 94.482821 57.866821 
L 94.547759 158.834386 
L 94.612696 57.866821 
L 94.645165 58.317232 
L 94.677634 158.834386 
L 94.742571 58.084669 
L 94.937383 158.834386 
L 94.969852 58.084669 
L 95.067258 74.246276 
L 95.132195 58.317232 
L 95.197133 158.834386 
L 95.229602 68.670102 
L 95.26207 57.662567 
L 95.294539 74.246276 
L 95.327008 58.084669 
L 95.359476 158.834386 
L 95.424414 58.317232 
L 95.456882 58.084669 
L 95.489351 58.317232 
L 95.52182 158.834386 
L 95.554289 58.084669 
L 95.586757 58.317232 
L 95.619226 57.662567 
L 95.684163 58.084669 
L 95.716632 58.317232 
L 95.781569 158.834386 
L 95.814038 58.084669 
L 95.846507 58.317232 
L 95.911444 57.662567 
L 95.943913 68.670102 
L 96.00885 57.662567 
L 96.073788 158.834386 
L 96.106256 58.084669 
L 96.138725 58.084669 
L 96.203663 58.317232 
L 96.2686 158.834386 
L 96.301069 58.084669 
L 96.366006 87.377748 
L 96.398475 74.246276 
L 96.430943 58.084669 
L 96.463412 158.834386 
L 96.52835 58.317232 
L 96.560818 57.662567 
L 96.658224 57.866821 
L 96.723162 57.662567 
L 96.75563 59.198971 
L 96.885505 55.08007 
L 96.982911 68.670102 
L 97.112786 57.959942 
L 398.487273 57.959942 
L 398.487273 57.959942 
" clip-path="url(#p77fc16d7da)" style="fill: none; stroke: #1f77b4; stroke-width: 1.5; stroke-linecap: square"/>
   </g>
   <g id="patch_3">
    <path d="M 57.6 307.584 
L 57.6 41.472 
" style="fill: none; stroke: #000000; stroke-width: 0.8; stroke-linejoin: miter; stroke-linecap: square"/>
   </g>
   <g id="patch_4">
    <path d="M 414.72 307.584 
L 414.72 41.472 
" style="fill: none; stroke: #000000; stroke-width: 0.8; stroke-linejoin: miter; stroke-linecap: square"/>
   </g>
   <g id="patch_5">
    <path d="M 57.6 307.584 
L 414.72 307.584 
" style="fill: none; stroke: #000000; stroke-width: 0.8; stroke-linejoin: miter; stroke-linecap: square"/>
   </g>
   <g id="patch_6">
    <path d="M 57.6 41.472 
L 414.72 41.472 
" style="fill: none; stroke: #000000; stroke-width: 0.8; stroke-linejoin: miter; stroke-linecap: square"/>
   </g>
  </g>
 </g>
 <defs>
  <clipPath id="p77fc16d7da">
   <rect x="57.6" y="41.472" width="357.12" height="266.112"/>
  </clipPath>
 </defs>
</svg>
