<?xml version="1.0" encoding="utf-8" standalone="no"?>
<!DOCTYPE svg PUBLIC "-//W3C//DTD SVG 1.1//EN"
  "http://www.w3.org/Graphics/SVG/1.1/DTD/svg11.dtd">
<svg xmlns:xlink="http://www.w3.org/1999/xlink" width="460.8pt" height="345.6pt" viewBox="0 0 460.8 345.6" xmlns="http://www.w3.org/2000/svg" version="1.1">
 <metadata>
  <rdf:RDF xmlns:dc="http://purl.org/dc/elements/1.1/" xmlns:cc="http://creativecommons.org/ns#" xmlns:rdf="http://www.w3.org/1999/02/22-rdf-syntax-ns#">
   <cc:Work>
    <dc:type rdf:resource="http://purl.org/dc/dcmitype/StillImage"/>
    <dc:date>2024-04-23T12:03:38.007138</dc:date>
    <dc:format>image/svg+xml</dc:format>
    <dc:creator>
     <cc:Agent>
      <dc:title>Matplotlib v3.7.2, https://matplotlib.org/</dc:title>
     </cc:Agent>
    </dc:creator>
   </cc:Work>
  </rdf:RDF>
 </metadata>
 <defs>
  <style type="text/css">*{stroke-linejoin: round; stroke-linecap: butt}</style>
 </defs>
 <g id="figure_1">
  <g id="patch_1">
   <path d="M 0 345.6 
L 460.8 345.6 
L 460.8 0 
L 0 0 
z
" style="fill: #ffffff"/>
  </g>
  <g id="axes_1">
   <g id="patch_2">
    <path d="M 57.6 307.584 
L 414.72 307.584 
L 414.72 41.472 
L 57.6 41.472 
z
" style="fill: #ffffff"/>
   </g>
   <g id="matplotlib.axis_1">
    <g id="xtick_1">
     <g id="line2d_1">
      <defs>
       <path id="m893b80bb99" d="M 0 0 
L 0 3.5 
" style="stroke: #000000; stroke-width: 0.8"/>
      </defs>
      <g>
       <use xlink:href="#m893b80bb99" x="73.832727" y="307.584" style="stroke: #000000; stroke-width: 0.8"/>
      </g>
     </g>
     <g id="text_1">
      <!-- 0 -->
      <g transform="translate(70.651477 322.182437) scale(0.1 -0.1)">
       <defs>
        <path id="DejaVuSans-30" d="M 2034 4250 
Q 1547 4250 1301 3770 
Q 1056 3291 1056 2328 
Q 1056 1369 1301 889 
Q 1547 409 2034 409 
Q 2525 409 2770 889 
Q 3016 1369 3016 2328 
Q 3016 3291 2770 3770 
Q 2525 4250 2034 4250 
z
M 2034 4750 
Q 2819 4750 3233 4129 
Q 3647 3509 3647 2328 
Q 3647 1150 3233 529 
Q 2819 -91 2034 -91 
Q 1250 -91 836 529 
Q 422 1150 422 2328 
Q 422 3509 836 4129 
Q 1250 4750 2034 4750 
z
" transform="scale(0.015625)"/>
       </defs>
       <use xlink:href="#DejaVuSans-30"/>
      </g>
     </g>
    </g>
    <g id="xtick_2">
     <g id="line2d_2">
      <g>
       <use xlink:href="#m893b80bb99" x="138.828632" y="307.584" style="stroke: #000000; stroke-width: 0.8"/>
      </g>
     </g>
     <g id="text_2">
      <!-- 200 -->
      <g transform="translate(129.284882 322.182437) scale(0.1 -0.1)">
       <defs>
        <path id="DejaVuSans-32" d="M 1228 531 
L 3431 531 
L 3431 0 
L 469 0 
L 469 531 
Q 828 903 1448 1529 
Q 2069 2156 2228 2338 
Q 2531 2678 2651 2914 
Q 2772 3150 2772 3378 
Q 2772 3750 2511 3984 
Q 2250 4219 1831 4219 
Q 1534 4219 1204 4116 
Q 875 4013 500 3803 
L 500 4441 
Q 881 4594 1212 4672 
Q 1544 4750 1819 4750 
Q 2544 4750 2975 4387 
Q 3406 4025 3406 3419 
Q 3406 3131 3298 2873 
Q 3191 2616 2906 2266 
Q 2828 2175 2409 1742 
Q 1991 1309 1228 531 
z
" transform="scale(0.015625)"/>
       </defs>
       <use xlink:href="#DejaVuSans-32"/>
       <use xlink:href="#DejaVuSans-30" x="63.623047"/>
       <use xlink:href="#DejaVuSans-30" x="127.246094"/>
      </g>
     </g>
    </g>
    <g id="xtick_3">
     <g id="line2d_3">
      <g>
       <use xlink:href="#m893b80bb99" x="203.824537" y="307.584" style="stroke: #000000; stroke-width: 0.8"/>
      </g>
     </g>
     <g id="text_3">
      <!-- 400 -->
      <g transform="translate(194.280787 322.182437) scale(0.1 -0.1)">
       <defs>
        <path id="DejaVuSans-34" d="M 2419 4116 
L 825 1625 
L 2419 1625 
L 2419 4116 
z
M 2253 4666 
L 3047 4666 
L 3047 1625 
L 3713 1625 
L 3713 1100 
L 3047 1100 
L 3047 0 
L 2419 0 
L 2419 1100 
L 313 1100 
L 313 1709 
L 2253 4666 
z
" transform="scale(0.015625)"/>
       </defs>
       <use xlink:href="#DejaVuSans-34"/>
       <use xlink:href="#DejaVuSans-30" x="63.623047"/>
       <use xlink:href="#DejaVuSans-30" x="127.246094"/>
      </g>
     </g>
    </g>
    <g id="xtick_4">
     <g id="line2d_4">
      <g>
       <use xlink:href="#m893b80bb99" x="268.820442" y="307.584" style="stroke: #000000; stroke-width: 0.8"/>
      </g>
     </g>
     <g id="text_4">
      <!-- 600 -->
      <g transform="translate(259.276692 322.182437) scale(0.1 -0.1)">
       <defs>
        <path id="DejaVuSans-36" d="M 2113 2584 
Q 1688 2584 1439 2293 
Q 1191 2003 1191 1497 
Q 1191 994 1439 701 
Q 1688 409 2113 409 
Q 2538 409 2786 701 
Q 3034 994 3034 1497 
Q 3034 2003 2786 2293 
Q 2538 2584 2113 2584 
z
M 3366 4563 
L 3366 3988 
Q 3128 4100 2886 4159 
Q 2644 4219 2406 4219 
Q 1781 4219 1451 3797 
Q 1122 3375 1075 2522 
Q 1259 2794 1537 2939 
Q 1816 3084 2150 3084 
Q 2853 3084 3261 2657 
Q 3669 2231 3669 1497 
Q 3669 778 3244 343 
Q 2819 -91 2113 -91 
Q 1303 -91 875 529 
Q 447 1150 447 2328 
Q 447 3434 972 4092 
Q 1497 4750 2381 4750 
Q 2619 4750 2861 4703 
Q 3103 4656 3366 4563 
z
" transform="scale(0.015625)"/>
       </defs>
       <use xlink:href="#DejaVuSans-36"/>
       <use xlink:href="#DejaVuSans-30" x="63.623047"/>
       <use xlink:href="#DejaVuSans-30" x="127.246094"/>
      </g>
     </g>
    </g>
    <g id="xtick_5">
     <g id="line2d_5">
      <g>
       <use xlink:href="#m893b80bb99" x="333.816347" y="307.584" style="stroke: #000000; stroke-width: 0.8"/>
      </g>
     </g>
     <g id="text_5">
      <!-- 800 -->
      <g transform="translate(324.272597 322.182437) scale(0.1 -0.1)">
       <defs>
        <path id="DejaVuSans-38" d="M 2034 2216 
Q 1584 2216 1326 1975 
Q 1069 1734 1069 1313 
Q 1069 891 1326 650 
Q 1584 409 2034 409 
Q 2484 409 2743 651 
Q 3003 894 3003 1313 
Q 3003 1734 2745 1975 
Q 2488 2216 2034 2216 
z
M 1403 2484 
Q 997 2584 770 2862 
Q 544 3141 544 3541 
Q 544 4100 942 4425 
Q 1341 4750 2034 4750 
Q 2731 4750 3128 4425 
Q 3525 4100 3525 3541 
Q 3525 3141 3298 2862 
Q 3072 2584 2669 2484 
Q 3125 2378 3379 2068 
Q 3634 1759 3634 1313 
Q 3634 634 3220 271 
Q 2806 -91 2034 -91 
Q 1263 -91 848 271 
Q 434 634 434 1313 
Q 434 1759 690 2068 
Q 947 2378 1403 2484 
z
M 1172 3481 
Q 1172 3119 1398 2916 
Q 1625 2713 2034 2713 
Q 2441 2713 2670 2916 
Q 2900 3119 2900 3481 
Q 2900 3844 2670 4047 
Q 2441 4250 2034 4250 
Q 1625 4250 1398 4047 
Q 1172 3844 1172 3481 
z
" transform="scale(0.015625)"/>
       </defs>
       <use xlink:href="#DejaVuSans-38"/>
       <use xlink:href="#DejaVuSans-30" x="63.623047"/>
       <use xlink:href="#DejaVuSans-30" x="127.246094"/>
      </g>
     </g>
    </g>
    <g id="xtick_6">
     <g id="line2d_6">
      <g>
       <use xlink:href="#m893b80bb99" x="398.812252" y="307.584" style="stroke: #000000; stroke-width: 0.8"/>
      </g>
     </g>
     <g id="text_6">
      <!-- 1000 -->
      <g transform="translate(386.087252 322.182437) scale(0.1 -0.1)">
       <defs>
        <path id="DejaVuSans-31" d="M 794 531 
L 1825 531 
L 1825 4091 
L 703 3866 
L 703 4441 
L 1819 4666 
L 2450 4666 
L 2450 531 
L 3481 531 
L 3481 0 
L 794 0 
L 794 531 
z
" transform="scale(0.015625)"/>
       </defs>
       <use xlink:href="#DejaVuSans-31"/>
       <use xlink:href="#DejaVuSans-30" x="63.623047"/>
       <use xlink:href="#DejaVuSans-30" x="127.246094"/>
       <use xlink:href="#DejaVuSans-30" x="190.869141"/>
      </g>
     </g>
    </g>
   </g>
   <g id="matplotlib.axis_2">
    <g id="ytick_1">
     <g id="line2d_7">
      <defs>
       <path id="m0691a29ba8" d="M 0 0 
L -3.5 0 
" style="stroke: #000000; stroke-width: 0.8"/>
      </defs>
      <g>
       <use xlink:href="#m0691a29ba8" x="57.6" y="286.626567" style="stroke: #000000; stroke-width: 0.8"/>
      </g>
     </g>
     <g id="text_7">
      <!-- −1200 -->
      <g transform="translate(16.770313 290.425786) scale(0.1 -0.1)">
       <defs>
        <path id="DejaVuSans-2212" d="M 678 2272 
L 4684 2272 
L 4684 1741 
L 678 1741 
L 678 2272 
z
" transform="scale(0.015625)"/>
       </defs>
       <use xlink:href="#DejaVuSans-2212"/>
       <use xlink:href="#DejaVuSans-31" x="83.789062"/>
       <use xlink:href="#DejaVuSans-32" x="147.412109"/>
       <use xlink:href="#DejaVuSans-30" x="211.035156"/>
       <use xlink:href="#DejaVuSans-30" x="274.658203"/>
      </g>
     </g>
    </g>
    <g id="ytick_2">
     <g id="line2d_8">
      <g>
       <use xlink:href="#m0691a29ba8" x="57.6" y="249.918997" style="stroke: #000000; stroke-width: 0.8"/>
      </g>
     </g>
     <g id="text_8">
      <!-- −1000 -->
      <g transform="translate(16.770313 253.718215) scale(0.1 -0.1)">
       <use xlink:href="#DejaVuSans-2212"/>
       <use xlink:href="#DejaVuSans-31" x="83.789062"/>
       <use xlink:href="#DejaVuSans-30" x="147.412109"/>
       <use xlink:href="#DejaVuSans-30" x="211.035156"/>
       <use xlink:href="#DejaVuSans-30" x="274.658203"/>
      </g>
     </g>
    </g>
    <g id="ytick_3">
     <g id="line2d_9">
      <g>
       <use xlink:href="#m0691a29ba8" x="57.6" y="213.211426" style="stroke: #000000; stroke-width: 0.8"/>
      </g>
     </g>
     <g id="text_9">
      <!-- −800 -->
      <g transform="translate(23.132812 217.010645) scale(0.1 -0.1)">
       <use xlink:href="#DejaVuSans-2212"/>
       <use xlink:href="#DejaVuSans-38" x="83.789062"/>
       <use xlink:href="#DejaVuSans-30" x="147.412109"/>
       <use xlink:href="#DejaVuSans-30" x="211.035156"/>
      </g>
     </g>
    </g>
    <g id="ytick_4">
     <g id="line2d_10">
      <g>
       <use xlink:href="#m0691a29ba8" x="57.6" y="176.503855" style="stroke: #000000; stroke-width: 0.8"/>
      </g>
     </g>
     <g id="text_10">
      <!-- −600 -->
      <g transform="translate(23.132812 180.303074) scale(0.1 -0.1)">
       <use xlink:href="#DejaVuSans-2212"/>
       <use xlink:href="#DejaVuSans-36" x="83.789062"/>
       <use xlink:href="#DejaVuSans-30" x="147.412109"/>
       <use xlink:href="#DejaVuSans-30" x="211.035156"/>
      </g>
     </g>
    </g>
    <g id="ytick_5">
     <g id="line2d_11">
      <g>
       <use xlink:href="#m0691a29ba8" x="57.6" y="139.796284" style="stroke: #000000; stroke-width: 0.8"/>
      </g>
     </g>
     <g id="text_11">
      <!-- −400 -->
      <g transform="translate(23.132812 143.595503) scale(0.1 -0.1)">
       <use xlink:href="#DejaVuSans-2212"/>
       <use xlink:href="#DejaVuSans-34" x="83.789062"/>
       <use xlink:href="#DejaVuSans-30" x="147.412109"/>
       <use xlink:href="#DejaVuSans-30" x="211.035156"/>
      </g>
     </g>
    </g>
    <g id="ytick_6">
     <g id="line2d_12">
      <g>
       <use xlink:href="#m0691a29ba8" x="57.6" y="103.088713" style="stroke: #000000; stroke-width: 0.8"/>
      </g>
     </g>
     <g id="text_12">
      <!-- −200 -->
      <g transform="translate(23.132812 106.887932) scale(0.1 -0.1)">
       <use xlink:href="#DejaVuSans-2212"/>
       <use xlink:href="#DejaVuSans-32" x="83.789062"/>
       <use xlink:href="#DejaVuSans-30" x="147.412109"/>
       <use xlink:href="#DejaVuSans-30" x="211.035156"/>
      </g>
     </g>
    </g>
    <g id="ytick_7">
     <g id="line2d_13">
      <g>
       <use xlink:href="#m0691a29ba8" x="57.6" y="66.381143" style="stroke: #000000; stroke-width: 0.8"/>
      </g>
     </g>
     <g id="text_13">
      <!-- 0 -->
      <g transform="translate(44.2375 70.180361) scale(0.1 -0.1)">
       <use xlink:href="#DejaVuSans-30"/>
      </g>
     </g>
    </g>
   </g>
   <g id="line2d_14">
    <path d="M 73.832727 66.833022 
L 74.157707 54.958187 
L 74.482686 57.007489 
L 74.807666 125.726155 
L 75.132645 65.31239 
L 75.457625 186.414162 
L 75.782604 66.381143 
L 76.107584 66.381143 
L 76.432563 65.896764 
L 76.757543 75.522474 
L 77.407502 180.653857 
L 77.732482 54.695451 
L 78.057461 57.306707 
L 78.382441 64.359755 
L 78.70742 57.328217 
L 79.0324 64.936663 
L 79.357379 57.837108 
L 79.682359 65.874918 
L 80.007338 58.611456 
L 80.332318 295.488 
L 80.657297 66.381143 
L 80.982277 170.588719 
L 81.307256 65.874918 
L 81.632236 66.381143 
L 81.957215 69.585106 
L 82.282195 188.12513 
L 82.607174 56.619758 
L 82.932154 66.381143 
L 83.257133 57.145116 
L 83.582113 65.874918 
L 83.907093 66.381143 
L 84.232072 67.150362 
L 84.557052 65.799407 
L 84.882031 168.161417 
L 85.207011 53.944667 
L 85.53199 68.358595 
L 85.85697 65.981656 
L 86.181949 65.773864 
L 86.506929 71.462813 
L 86.831908 69.650826 
L 87.156888 59.104081 
L 87.481867 56.507912 
L 87.806847 67.370152 
L 88.131826 64.400705 
L 88.456806 64.85197 
L 88.781785 66.241325 
L 89.106765 67.064892 
L 89.431744 147.12964 
L 89.756724 65.140741 
L 90.081704 195.063101 
L 90.406683 66.370471 
L 90.731663 71.082911 
L 91.056642 70.367136 
L 91.381622 65.896764 
L 91.706601 55.73448 
L 92.031581 68.767385 
L 92.68154 67.014782 
L 93.006519 59.346497 
L 93.331499 54.869353 
L 93.656478 66.381143 
L 93.981458 56.758629 
L 94.306437 68.858145 
L 94.631417 65.577268 
L 94.956396 66.316094 
L 95.281376 66.132868 
L 95.606355 70.351035 
L 95.931335 65.94557 
L 96.256314 66.381143 
L 96.581294 66.381143 
L 96.906274 78.108744 
L 97.231253 65.617984 
L 97.556233 131.309316 
L 97.881212 65.874918 
L 98.206192 64.400758 
L 98.531171 65.444896 
L 98.856151 152.231161 
L 99.18113 66.381143 
L 99.50611 66.381143 
L 99.831089 54.512494 
L 100.156069 54.541739 
L 100.481048 67.036408 
L 100.806028 57.412555 
L 101.131007 66.381143 
L 101.455987 69.712068 
L 101.780966 65.140741 
L 102.105946 64.219878 
L 102.430925 66.381143 
L 102.755905 66.360192 
L 103.080885 66.541425 
L 103.405864 66.381143 
L 103.730844 65.773864 
L 104.055823 57.101455 
L 104.380803 66.381143 
L 104.705782 66.381143 
L 105.030762 125.342432 
L 105.355741 66.93467 
L 105.680721 63.7124 
L 106.0057 64.851919 
L 106.33068 56.753923 
L 106.655659 65.267192 
L 106.980639 58.229223 
L 107.305618 66.923215 
L 107.630598 64.966311 
L 107.955577 65.422162 
L 108.280557 136.076025 
L 108.605536 65.773864 
L 108.930516 64.45445 
L 109.255495 66.40372 
L 109.580475 65.896764 
L 109.905455 56.106398 
L 110.230434 55.066957 
L 110.555414 55.661156 
L 110.880393 64.45445 
L 111.205373 66.381143 
L 111.530352 57.277205 
L 111.855332 55.272765 
L 112.180311 202.630564 
L 112.505291 64.78279 
L 112.83027 88.734519 
L 113.15525 55.625337 
L 113.480229 57.770724 
L 113.805209 66.35596 
L 114.130188 68.294709 
L 114.455168 57.081815 
L 114.780147 66.381143 
L 115.430106 66.381143 
L 115.755086 65.874918 
L 116.080066 65.896764 
L 116.405045 53.568 
L 116.730025 64.434537 
L 117.055004 66.381143 
L 117.379984 73.625307 
L 117.704963 65.014026 
L 118.029943 68.057272 
L 118.354922 56.381185 
L 118.679902 66.381143 
L 119.004881 55.536894 
L 119.329861 66.901574 
L 119.65484 64.400758 
L 119.97982 66.381143 
L 120.304799 66.381143 
L 120.629779 65.140741 
L 120.954758 57.155304 
L 121.279738 93.474927 
L 121.604717 64.85197 
L 121.929697 64.875602 
L 122.254676 65.874918 
L 122.579656 68.052141 
L 122.904636 64.578819 
L 123.229615 66.381143 
L 123.554595 126.824137 
L 123.879574 66.381143 
L 124.204554 70.306742 
L 124.529533 150.042819 
L 124.854513 66.381143 
L 125.179492 66.40372 
L 125.504472 65.896764 
L 125.829451 65.761363 
L 126.154431 90.384239 
L 126.47941 66.901574 
L 126.80439 66.397431 
L 127.129369 125.87177 
L 127.454349 66.381143 
L 127.779328 66.381143 
L 128.104308 63.769914 
L 128.429287 56.812509 
L 128.754267 57.187526 
L 129.079247 63.595534 
L 129.404226 57.848149 
L 129.729206 56.840391 
L 130.054185 56.998047 
L 130.379165 63.187772 
L 130.704144 66.901574 
L 131.029124 59.882642 
L 131.354103 77.449094 
L 131.679083 66.381143 
L 132.004062 64.538214 
L 132.329042 57.935378 
L 132.654021 65.874918 
L 132.979001 57.035818 
L 133.30398 83.006448 
L 133.62896 66.381143 
L 133.953939 64.538214 
L 134.278919 65.874918 
L 134.603898 64.956334 
L 134.928878 65.874918 
L 135.253857 64.956334 
L 135.578837 66.381143 
L 136.228796 66.381143 
L 136.553776 65.401006 
L 136.878755 66.381143 
L 137.203735 65.874918 
L 137.528714 66.381143 
L 137.853694 64.538214 
L 138.178673 66.381143 
L 138.503653 65.401006 
L 138.828632 82.978487 
L 139.153612 66.381143 
L 139.478591 65.874918 
L 139.803571 65.874918 
L 140.12855 82.978487 
L 140.45353 64.956334 
L 140.778509 65.401006 
L 141.103489 66.381143 
L 141.428468 65.874918 
L 141.753448 82.978487 
L 142.078428 66.381143 
L 142.403407 66.381143 
L 142.728387 57.935378 
L 143.378346 58.114892 
L 143.703325 66.381143 
L 144.028305 66.381143 
L 144.353284 65.874918 
L 144.678264 66.381143 
L 145.003243 82.978487 
L 145.328223 66.381143 
L 145.653202 65.874918 
L 146.303161 65.874918 
L 146.628141 66.381143 
L 146.95312 66.381143 
L 147.2781 64.538214 
L 147.603079 64.956334 
L 147.928059 66.381143 
L 148.253038 58.114892 
L 148.578018 66.381143 
L 148.902998 66.381143 
L 149.227977 65.401006 
L 149.552957 65.401006 
L 149.877936 65.874918 
L 150.202916 65.874918 
L 150.527895 65.401006 
L 150.852875 66.381143 
L 151.502834 66.381143 
L 151.827813 65.874918 
L 152.152793 58.114892 
L 152.477772 66.381143 
L 153.127731 66.381143 
L 153.452711 65.874918 
L 153.77769 66.381143 
L 154.427649 65.401006 
L 154.752629 66.381143 
L 155.077609 66.381143 
L 155.402588 65.874918 
L 155.727568 66.381143 
L 157.352465 66.381143 
L 157.677445 65.401006 
L 158.002424 66.381143 
L 158.327404 65.401006 
L 158.652383 66.381143 
L 160.60226 66.381143 
L 160.92724 65.401006 
L 161.252219 66.381143 
L 164.502015 66.381143 
L 164.826994 65.874918 
L 165.151974 66.381143 
L 166.126912 66.381143 
L 166.451892 65.874918 
L 166.776871 65.874918 
L 167.101851 66.381143 
L 169.051728 66.381143 
L 169.376708 65.874918 
L 169.701687 66.381143 
L 170.026667 65.874918 
L 170.351646 66.381143 
L 172.626503 66.381143 
L 172.951482 65.874918 
L 173.276462 65.874918 
L 173.601441 66.381143 
L 174.2514 66.381143 
L 174.57638 65.874918 
L 174.90136 66.381143 
L 175.226339 65.874918 
L 175.551319 66.381143 
L 178.151155 66.381143 
L 178.476134 65.874918 
L 178.801114 66.381143 
L 183.675807 66.381143 
L 184.000786 65.401006 
L 184.325766 66.381143 
L 185.300704 66.381143 
L 185.625684 82.978487 
L 185.950663 66.381143 
L 193.425192 66.381143 
L 193.750172 82.978487 
L 194.075152 66.381143 
L 209.02421 66.381143 
L 209.349189 65.874918 
L 209.674169 66.381143 
L 213.248943 66.381143 
L 213.573923 65.874918 
L 213.898903 66.381143 
L 227.223063 66.381143 
L 227.548043 65.874918 
L 227.873022 66.381143 
L 280.194726 66.381143 
L 280.519705 82.978487 
L 280.844685 66.381143 
L 398.487273 66.381143 
L 398.487273 66.381143 
" clip-path="url(#pc04605be8d)" style="fill: none; stroke: #1f77b4; stroke-width: 1.5; stroke-linecap: square"/>
   </g>
   <g id="patch_3">
    <path d="M 57.6 307.584 
L 57.6 41.472 
" style="fill: none; stroke: #000000; stroke-width: 0.8; stroke-linejoin: miter; stroke-linecap: square"/>
   </g>
   <g id="patch_4">
    <path d="M 414.72 307.584 
L 414.72 41.472 
" style="fill: none; stroke: #000000; stroke-width: 0.8; stroke-linejoin: miter; stroke-linecap: square"/>
   </g>
   <g id="patch_5">
    <path d="M 57.6 307.584 
L 414.72 307.584 
" style="fill: none; stroke: #000000; stroke-width: 0.8; stroke-linejoin: miter; stroke-linecap: square"/>
   </g>
   <g id="patch_6">
    <path d="M 57.6 41.472 
L 414.72 41.472 
" style="fill: none; stroke: #000000; stroke-width: 0.8; stroke-linejoin: miter; stroke-linecap: square"/>
   </g>
  </g>
 </g>
 <defs>
  <clipPath id="pc04605be8d">
   <rect x="57.6" y="41.472" width="357.12" height="266.112"/>
  </clipPath>
 </defs>
</svg>
