<?xml version="1.0" encoding="utf-8" standalone="no"?>
<!DOCTYPE svg PUBLIC "-//W3C//DTD SVG 1.1//EN"
  "http://www.w3.org/Graphics/SVG/1.1/DTD/svg11.dtd">
<svg xmlns:xlink="http://www.w3.org/1999/xlink" width="460.8pt" height="345.6pt" viewBox="0 0 460.8 345.6" xmlns="http://www.w3.org/2000/svg" version="1.1">
 <metadata>
  <rdf:RDF xmlns:dc="http://purl.org/dc/elements/1.1/" xmlns:cc="http://creativecommons.org/ns#" xmlns:rdf="http://www.w3.org/1999/02/22-rdf-syntax-ns#">
   <cc:Work>
    <dc:type rdf:resource="http://purl.org/dc/dcmitype/StillImage"/>
    <dc:date>2024-04-23T18:38:56.384009</dc:date>
    <dc:format>image/svg+xml</dc:format>
    <dc:creator>
     <cc:Agent>
      <dc:title>Matplotlib v3.7.2, https://matplotlib.org/</dc:title>
     </cc:Agent>
    </dc:creator>
   </cc:Work>
  </rdf:RDF>
 </metadata>
 <defs>
  <style type="text/css">*{stroke-linejoin: round; stroke-linecap: butt}</style>
 </defs>
 <g id="figure_1">
  <g id="patch_1">
   <path d="M 0 345.6 
L 460.8 345.6 
L 460.8 0 
L 0 0 
z
" style="fill: #ffffff"/>
  </g>
  <g id="axes_1">
   <g id="patch_2">
    <path d="M 57.6 307.584 
L 414.72 307.584 
L 414.72 41.472 
L 57.6 41.472 
z
" style="fill: #ffffff"/>
   </g>
   <g id="matplotlib.axis_1">
    <g id="xtick_1">
     <g id="line2d_1">
      <defs>
       <path id="m7bd50e1c55" d="M 0 0 
L 0 3.5 
" style="stroke: #000000; stroke-width: 0.8"/>
      </defs>
      <g>
       <use xlink:href="#m7bd50e1c55" x="73.832727" y="307.584" style="stroke: #000000; stroke-width: 0.8"/>
      </g>
     </g>
     <g id="text_1">
      <!-- 0 -->
      <g transform="translate(70.651477 322.182437) scale(0.1 -0.1)">
       <defs>
        <path id="DejaVuSans-30" d="M 2034 4250 
Q 1547 4250 1301 3770 
Q 1056 3291 1056 2328 
Q 1056 1369 1301 889 
Q 1547 409 2034 409 
Q 2525 409 2770 889 
Q 3016 1369 3016 2328 
Q 3016 3291 2770 3770 
Q 2525 4250 2034 4250 
z
M 2034 4750 
Q 2819 4750 3233 4129 
Q 3647 3509 3647 2328 
Q 3647 1150 3233 529 
Q 2819 -91 2034 -91 
Q 1250 -91 836 529 
Q 422 1150 422 2328 
Q 422 3509 836 4129 
Q 1250 4750 2034 4750 
z
" transform="scale(0.015625)"/>
       </defs>
       <use xlink:href="#DejaVuSans-30"/>
      </g>
     </g>
    </g>
    <g id="xtick_2">
     <g id="line2d_2">
      <g>
       <use xlink:href="#m7bd50e1c55" x="114.516254" y="307.584" style="stroke: #000000; stroke-width: 0.8"/>
      </g>
     </g>
     <g id="text_2">
      <!-- 50 -->
      <g transform="translate(108.153754 322.182437) scale(0.1 -0.1)">
       <defs>
        <path id="DejaVuSans-35" d="M 691 4666 
L 3169 4666 
L 3169 4134 
L 1269 4134 
L 1269 2991 
Q 1406 3038 1543 3061 
Q 1681 3084 1819 3084 
Q 2600 3084 3056 2656 
Q 3513 2228 3513 1497 
Q 3513 744 3044 326 
Q 2575 -91 1722 -91 
Q 1428 -91 1123 -41 
Q 819 9 494 109 
L 494 744 
Q 775 591 1075 516 
Q 1375 441 1709 441 
Q 2250 441 2565 725 
Q 2881 1009 2881 1497 
Q 2881 1984 2565 2268 
Q 2250 2553 1709 2553 
Q 1456 2553 1204 2497 
Q 953 2441 691 2322 
L 691 4666 
z
" transform="scale(0.015625)"/>
       </defs>
       <use xlink:href="#DejaVuSans-35"/>
       <use xlink:href="#DejaVuSans-30" x="63.623047"/>
      </g>
     </g>
    </g>
    <g id="xtick_3">
     <g id="line2d_3">
      <g>
       <use xlink:href="#m7bd50e1c55" x="155.199781" y="307.584" style="stroke: #000000; stroke-width: 0.8"/>
      </g>
     </g>
     <g id="text_3">
      <!-- 100 -->
      <g transform="translate(145.656031 322.182437) scale(0.1 -0.1)">
       <defs>
        <path id="DejaVuSans-31" d="M 794 531 
L 1825 531 
L 1825 4091 
L 703 3866 
L 703 4441 
L 1819 4666 
L 2450 4666 
L 2450 531 
L 3481 531 
L 3481 0 
L 794 0 
L 794 531 
z
" transform="scale(0.015625)"/>
       </defs>
       <use xlink:href="#DejaVuSans-31"/>
       <use xlink:href="#DejaVuSans-30" x="63.623047"/>
       <use xlink:href="#DejaVuSans-30" x="127.246094"/>
      </g>
     </g>
    </g>
    <g id="xtick_4">
     <g id="line2d_4">
      <g>
       <use xlink:href="#m7bd50e1c55" x="195.883308" y="307.584" style="stroke: #000000; stroke-width: 0.8"/>
      </g>
     </g>
     <g id="text_4">
      <!-- 150 -->
      <g transform="translate(186.339558 322.182437) scale(0.1 -0.1)">
       <use xlink:href="#DejaVuSans-31"/>
       <use xlink:href="#DejaVuSans-35" x="63.623047"/>
       <use xlink:href="#DejaVuSans-30" x="127.246094"/>
      </g>
     </g>
    </g>
    <g id="xtick_5">
     <g id="line2d_5">
      <g>
       <use xlink:href="#m7bd50e1c55" x="236.566835" y="307.584" style="stroke: #000000; stroke-width: 0.8"/>
      </g>
     </g>
     <g id="text_5">
      <!-- 200 -->
      <g transform="translate(227.023085 322.182437) scale(0.1 -0.1)">
       <defs>
        <path id="DejaVuSans-32" d="M 1228 531 
L 3431 531 
L 3431 0 
L 469 0 
L 469 531 
Q 828 903 1448 1529 
Q 2069 2156 2228 2338 
Q 2531 2678 2651 2914 
Q 2772 3150 2772 3378 
Q 2772 3750 2511 3984 
Q 2250 4219 1831 4219 
Q 1534 4219 1204 4116 
Q 875 4013 500 3803 
L 500 4441 
Q 881 4594 1212 4672 
Q 1544 4750 1819 4750 
Q 2544 4750 2975 4387 
Q 3406 4025 3406 3419 
Q 3406 3131 3298 2873 
Q 3191 2616 2906 2266 
Q 2828 2175 2409 1742 
Q 1991 1309 1228 531 
z
" transform="scale(0.015625)"/>
       </defs>
       <use xlink:href="#DejaVuSans-32"/>
       <use xlink:href="#DejaVuSans-30" x="63.623047"/>
       <use xlink:href="#DejaVuSans-30" x="127.246094"/>
      </g>
     </g>
    </g>
    <g id="xtick_6">
     <g id="line2d_6">
      <g>
       <use xlink:href="#m7bd50e1c55" x="277.250362" y="307.584" style="stroke: #000000; stroke-width: 0.8"/>
      </g>
     </g>
     <g id="text_6">
      <!-- 250 -->
      <g transform="translate(267.706612 322.182437) scale(0.1 -0.1)">
       <use xlink:href="#DejaVuSans-32"/>
       <use xlink:href="#DejaVuSans-35" x="63.623047"/>
       <use xlink:href="#DejaVuSans-30" x="127.246094"/>
      </g>
     </g>
    </g>
    <g id="xtick_7">
     <g id="line2d_7">
      <g>
       <use xlink:href="#m7bd50e1c55" x="317.933889" y="307.584" style="stroke: #000000; stroke-width: 0.8"/>
      </g>
     </g>
     <g id="text_7">
      <!-- 300 -->
      <g transform="translate(308.390139 322.182437) scale(0.1 -0.1)">
       <defs>
        <path id="DejaVuSans-33" d="M 2597 2516 
Q 3050 2419 3304 2112 
Q 3559 1806 3559 1356 
Q 3559 666 3084 287 
Q 2609 -91 1734 -91 
Q 1441 -91 1130 -33 
Q 819 25 488 141 
L 488 750 
Q 750 597 1062 519 
Q 1375 441 1716 441 
Q 2309 441 2620 675 
Q 2931 909 2931 1356 
Q 2931 1769 2642 2001 
Q 2353 2234 1838 2234 
L 1294 2234 
L 1294 2753 
L 1863 2753 
Q 2328 2753 2575 2939 
Q 2822 3125 2822 3475 
Q 2822 3834 2567 4026 
Q 2313 4219 1838 4219 
Q 1578 4219 1281 4162 
Q 984 4106 628 3988 
L 628 4550 
Q 988 4650 1302 4700 
Q 1616 4750 1894 4750 
Q 2613 4750 3031 4423 
Q 3450 4097 3450 3541 
Q 3450 3153 3228 2886 
Q 3006 2619 2597 2516 
z
" transform="scale(0.015625)"/>
       </defs>
       <use xlink:href="#DejaVuSans-33"/>
       <use xlink:href="#DejaVuSans-30" x="63.623047"/>
       <use xlink:href="#DejaVuSans-30" x="127.246094"/>
      </g>
     </g>
    </g>
    <g id="xtick_8">
     <g id="line2d_8">
      <g>
       <use xlink:href="#m7bd50e1c55" x="358.617416" y="307.584" style="stroke: #000000; stroke-width: 0.8"/>
      </g>
     </g>
     <g id="text_8">
      <!-- 350 -->
      <g transform="translate(349.073666 322.182437) scale(0.1 -0.1)">
       <use xlink:href="#DejaVuSans-33"/>
       <use xlink:href="#DejaVuSans-35" x="63.623047"/>
       <use xlink:href="#DejaVuSans-30" x="127.246094"/>
      </g>
     </g>
    </g>
    <g id="xtick_9">
     <g id="line2d_9">
      <g>
       <use xlink:href="#m7bd50e1c55" x="399.300943" y="307.584" style="stroke: #000000; stroke-width: 0.8"/>
      </g>
     </g>
     <g id="text_9">
      <!-- 400 -->
      <g transform="translate(389.757193 322.182437) scale(0.1 -0.1)">
       <defs>
        <path id="DejaVuSans-34" d="M 2419 4116 
L 825 1625 
L 2419 1625 
L 2419 4116 
z
M 2253 4666 
L 3047 4666 
L 3047 1625 
L 3713 1625 
L 3713 1100 
L 3047 1100 
L 3047 0 
L 2419 0 
L 2419 1100 
L 313 1100 
L 313 1709 
L 2253 4666 
z
" transform="scale(0.015625)"/>
       </defs>
       <use xlink:href="#DejaVuSans-34"/>
       <use xlink:href="#DejaVuSans-30" x="63.623047"/>
       <use xlink:href="#DejaVuSans-30" x="127.246094"/>
      </g>
     </g>
    </g>
   </g>
   <g id="matplotlib.axis_2">
    <g id="ytick_1">
     <g id="line2d_10">
      <defs>
       <path id="m7812f4c0e8" d="M 0 0 
L -3.5 0 
" style="stroke: #000000; stroke-width: 0.8"/>
      </defs>
      <g>
       <use xlink:href="#m7812f4c0e8" x="57.6" y="287.994116" style="stroke: #000000; stroke-width: 0.8"/>
      </g>
     </g>
     <g id="text_10">
      <!-- −2000 -->
      <g transform="translate(16.770313 291.793335) scale(0.1 -0.1)">
       <defs>
        <path id="DejaVuSans-2212" d="M 678 2272 
L 4684 2272 
L 4684 1741 
L 678 1741 
L 678 2272 
z
" transform="scale(0.015625)"/>
       </defs>
       <use xlink:href="#DejaVuSans-2212"/>
       <use xlink:href="#DejaVuSans-32" x="83.789062"/>
       <use xlink:href="#DejaVuSans-30" x="147.412109"/>
       <use xlink:href="#DejaVuSans-30" x="211.035156"/>
       <use xlink:href="#DejaVuSans-30" x="274.658203"/>
      </g>
     </g>
    </g>
    <g id="ytick_2">
     <g id="line2d_11">
      <g>
       <use xlink:href="#m7812f4c0e8" x="57.6" y="250.586003" style="stroke: #000000; stroke-width: 0.8"/>
      </g>
     </g>
     <g id="text_11">
      <!-- −1500 -->
      <g transform="translate(16.770313 254.385222) scale(0.1 -0.1)">
       <use xlink:href="#DejaVuSans-2212"/>
       <use xlink:href="#DejaVuSans-31" x="83.789062"/>
       <use xlink:href="#DejaVuSans-35" x="147.412109"/>
       <use xlink:href="#DejaVuSans-30" x="211.035156"/>
       <use xlink:href="#DejaVuSans-30" x="274.658203"/>
      </g>
     </g>
    </g>
    <g id="ytick_3">
     <g id="line2d_12">
      <g>
       <use xlink:href="#m7812f4c0e8" x="57.6" y="213.177891" style="stroke: #000000; stroke-width: 0.8"/>
      </g>
     </g>
     <g id="text_12">
      <!-- −1000 -->
      <g transform="translate(16.770313 216.97711) scale(0.1 -0.1)">
       <use xlink:href="#DejaVuSans-2212"/>
       <use xlink:href="#DejaVuSans-31" x="83.789062"/>
       <use xlink:href="#DejaVuSans-30" x="147.412109"/>
       <use xlink:href="#DejaVuSans-30" x="211.035156"/>
       <use xlink:href="#DejaVuSans-30" x="274.658203"/>
      </g>
     </g>
    </g>
    <g id="ytick_4">
     <g id="line2d_13">
      <g>
       <use xlink:href="#m7812f4c0e8" x="57.6" y="175.769779" style="stroke: #000000; stroke-width: 0.8"/>
      </g>
     </g>
     <g id="text_13">
      <!-- −500 -->
      <g transform="translate(23.132812 179.568997) scale(0.1 -0.1)">
       <use xlink:href="#DejaVuSans-2212"/>
       <use xlink:href="#DejaVuSans-35" x="83.789062"/>
       <use xlink:href="#DejaVuSans-30" x="147.412109"/>
       <use xlink:href="#DejaVuSans-30" x="211.035156"/>
      </g>
     </g>
    </g>
    <g id="ytick_5">
     <g id="line2d_14">
      <g>
       <use xlink:href="#m7812f4c0e8" x="57.6" y="138.361666" style="stroke: #000000; stroke-width: 0.8"/>
      </g>
     </g>
     <g id="text_14">
      <!-- 0 -->
      <g transform="translate(44.2375 142.160885) scale(0.1 -0.1)">
       <use xlink:href="#DejaVuSans-30"/>
      </g>
     </g>
    </g>
    <g id="ytick_6">
     <g id="line2d_15">
      <g>
       <use xlink:href="#m7812f4c0e8" x="57.6" y="100.953554" style="stroke: #000000; stroke-width: 0.8"/>
      </g>
     </g>
     <g id="text_15">
      <!-- 500 -->
      <g transform="translate(31.5125 104.752773) scale(0.1 -0.1)">
       <use xlink:href="#DejaVuSans-35"/>
       <use xlink:href="#DejaVuSans-30" x="63.623047"/>
       <use xlink:href="#DejaVuSans-30" x="127.246094"/>
      </g>
     </g>
    </g>
    <g id="ytick_7">
     <g id="line2d_16">
      <g>
       <use xlink:href="#m7812f4c0e8" x="57.6" y="63.545441" style="stroke: #000000; stroke-width: 0.8"/>
      </g>
     </g>
     <g id="text_16">
      <!-- 1000 -->
      <g transform="translate(25.15 67.34466) scale(0.1 -0.1)">
       <use xlink:href="#DejaVuSans-31"/>
       <use xlink:href="#DejaVuSans-30" x="63.623047"/>
       <use xlink:href="#DejaVuSans-30" x="127.246094"/>
       <use xlink:href="#DejaVuSans-30" x="190.869141"/>
      </g>
     </g>
    </g>
   </g>
   <g id="line2d_17">
    <path d="M 73.832727 135.843495 
L 74.646398 124.695854 
L 75.460068 134.639409 
L 76.273739 135.974985 
L 77.087409 141.138056 
L 77.90108 159.803984 
L 78.714751 149.073046 
L 79.528421 134.88333 
L 80.342092 137.791095 
L 81.155762 99.331656 
L 81.969433 138.609041 
L 82.783103 106.323384 
L 83.596774 140.797564 
L 84.410444 134.485554 
L 85.224115 132.349634 
L 86.037785 136.50369 
L 86.851456 144.667449 
L 87.665126 135.702153 
L 88.478797 147.735508 
L 89.292468 136.623739 
L 90.106138 135.523574 
L 90.919809 135.705522 
L 91.733479 138.011668 
L 92.54715 229.023374 
L 93.36082 137.506459 
L 94.174491 140.837236 
L 94.988161 135.853075 
L 95.801832 127.868768 
L 96.615502 102.478728 
L 97.429173 136.284617 
L 98.242843 134.055414 
L 99.056514 132.48225 
L 99.870185 146.209776 
L 100.683855 138.459465 
L 101.497526 134.894444 
L 102.311196 119.149303 
L 103.124867 134.093229 
L 103.938537 135.060538 
L 104.752208 133.899208 
L 105.565878 134.730187 
L 106.379549 135.058511 
L 107.193219 133.163224 
L 108.00689 131.924944 
L 109.634231 137.416962 
L 110.447902 139.313581 
L 111.261572 131.604959 
L 112.075243 135.794132 
L 112.888913 138.130732 
L 113.702584 133.599773 
L 115.329925 135.996289 
L 116.143595 134.654011 
L 116.957266 137.370306 
L 117.770936 138.42356 
L 118.584607 136.029028 
L 119.398278 150.578683 
L 120.211948 149.503913 
L 121.025619 138.27263 
L 121.839289 133.98309 
L 122.65296 138.81453 
L 123.46663 138.641677 
L 124.280301 135.102747 
L 125.093971 132.609033 
L 125.907642 134.471093 
L 126.721312 133.204841 
L 127.534983 134.172989 
L 128.348653 136.674046 
L 129.162324 133.408847 
L 129.975995 132.353303 
L 130.789665 137.52512 
L 131.603336 135.107012 
L 132.417006 133.985215 
L 133.230677 133.682905 
L 134.044347 138.74229 
L 134.858018 137.558474 
L 135.671688 135.492727 
L 136.485359 148.933096 
L 137.299029 134.887162 
L 138.92637 134.851218 
L 140.553712 134.813923 
L 142.181053 136.570312 
L 143.808394 135.722177 
L 144.622064 134.861702 
L 145.435735 135.559412 
L 146.249405 138.430721 
L 147.063076 138.544765 
L 147.876746 138.413853 
L 148.690417 133.64586 
L 149.504087 136.481319 
L 150.317758 135.265324 
L 151.131429 186.360816 
L 151.945099 135.557221 
L 152.75877 133.499205 
L 153.57244 134.887162 
L 154.386111 132.830094 
L 155.199781 137.70041 
L 156.013452 136.366017 
L 156.827122 135.436313 
L 157.640793 135.43426 
L 158.454463 135.133693 
L 159.268134 133.910255 
L 160.081805 133.91733 
L 160.895475 137.409168 
L 161.709146 134.16257 
L 162.522816 132.931171 
L 163.336487 134.597313 
L 164.150157 131.263291 
L 165.777498 134.597313 
L 166.591169 132.833692 
L 167.404839 134.459953 
L 168.21851 134.165399 
L 169.03218 137.230053 
L 169.845851 133.172452 
L 170.659522 133.541077 
L 171.473192 131.908468 
L 172.286863 132.289321 
L 173.100533 135.140296 
L 173.914204 136.694059 
L 174.727874 133.919467 
L 175.541545 134.174941 
L 176.355215 135.503534 
L 177.168886 138.10342 
L 177.982556 134.802845 
L 178.796227 137.149167 
L 179.609897 133.593076 
L 180.423568 146.641216 
L 181.237239 135.503534 
L 182.050909 133.666633 
L 182.86458 133.774103 
L 183.67825 137.312296 
L 184.491921 137.888909 
L 185.305591 133.45763 
L 186.119262 133.909513 
L 186.932932 138.267102 
L 187.746603 137.200071 
L 188.560273 137.729705 
L 189.373944 135.967549 
L 190.187614 134.642655 
L 191.001285 136.636439 
L 191.814956 136.996363 
L 192.628626 137.144171 
L 193.442297 141.570425 
L 194.255967 138.004227 
L 195.069638 135.605294 
L 195.883308 152.607651 
L 196.696979 136.558128 
L 197.510649 136.996363 
L 198.32432 136.996363 
L 199.13799 135.17196 
L 199.951661 138.004227 
L 200.765332 138.004227 
L 201.579002 138.346235 
L 202.392673 146.209776 
L 203.206343 136.996363 
L 204.020014 138.004227 
L 205.647355 137.897266 
L 206.461025 141.477521 
L 207.274696 136.026745 
L 208.088366 136.550981 
L 208.902037 141.477521 
L 209.715707 142.321367 
L 210.529378 135.648594 
L 211.343049 144.38354 
L 212.156719 135.643682 
L 212.97039 143.282192 
L 213.78406 140.732169 
L 214.597731 139.480952 
L 215.411401 138.953588 
L 216.225072 139.480952 
L 217.038742 139.524555 
L 217.852413 140.091885 
L 218.666083 135.290535 
L 219.479754 138.667126 
L 220.293424 138.350626 
L 221.920766 140.543656 
L 222.734436 140.543656 
L 223.548107 149.264212 
L 224.361777 142.320888 
L 225.175448 139.750726 
L 225.989118 138.597843 
L 226.802789 137.730551 
L 227.616459 139.59378 
L 228.43013 139.342312 
L 229.2438 268.182093 
L 230.057471 138.500545 
L 230.871141 138.756988 
L 231.684812 295.488 
L 232.498483 58.779129 
L 233.312153 145.695666 
L 234.125824 139.351088 
L 234.939494 288.820322 
L 235.753165 288.820322 
L 236.566835 145.660666 
L 237.380506 143.678362 
L 238.194176 142.275987 
L 239.007847 141.391095 
L 239.821517 145.3957 
L 240.635188 138.829036 
L 242.262529 135.747021 
L 243.0762 135.747021 
L 243.88987 140.709805 
L 244.703541 139.004114 
L 245.517211 138.407973 
L 246.330882 142.169849 
L 247.144552 141.236199 
L 247.958223 139.716608 
L 248.771893 131.876821 
L 249.585564 137.372768 
L 250.399234 137.372768 
L 251.212905 137.211966 
L 252.840246 138.288397 
L 253.653917 137.993825 
L 254.467587 138.150387 
L 255.281258 136.067971 
L 256.094928 135.603337 
L 256.908599 145.664483 
L 257.722269 141.076824 
L 258.53594 145.076883 
L 259.34961 136.93424 
L 260.163281 136.934025 
L 260.976951 139.821606 
L 261.790622 137.300004 
L 262.604293 138.753237 
L 263.417963 135.188671 
L 264.231634 139.957112 
L 265.045304 142.240812 
L 265.858975 132.398662 
L 266.672645 136.986982 
L 267.486316 137.240988 
L 268.299986 145.398191 
L 269.113657 138.727926 
L 269.927327 138.397167 
L 270.740998 140.266145 
L 271.554668 137.689621 
L 272.368339 96.618107 
L 273.18201 138.361666 
L 341.530335 138.361666 
L 342.344005 176.036887 
L 343.157676 138.361666 
L 348.85337 138.361666 
L 349.66704 54.218705 
L 350.480711 54.218705 
L 351.294381 112.414606 
L 352.108052 53.568 
L 352.921722 53.568 
L 353.735393 142.043621 
L 354.549064 142.093597 
L 355.362734 152.136052 
L 356.176405 123.185482 
L 356.990075 146.628929 
L 357.803746 101.220662 
L 358.617416 138.628775 
L 359.431087 156.51871 
L 360.244757 138.361666 
L 362.685769 138.361666 
L 363.49944 138.628775 
L 364.31311 138.361666 
L 398.487273 138.361666 
L 398.487273 138.361666 
" clip-path="url(#pa747559df1)" style="fill: none; stroke: #1f77b4; stroke-width: 1.5; stroke-linecap: square"/>
   </g>
   <g id="patch_3">
    <path d="M 57.6 307.584 
L 57.6 41.472 
" style="fill: none; stroke: #000000; stroke-width: 0.8; stroke-linejoin: miter; stroke-linecap: square"/>
   </g>
   <g id="patch_4">
    <path d="M 414.72 307.584 
L 414.72 41.472 
" style="fill: none; stroke: #000000; stroke-width: 0.8; stroke-linejoin: miter; stroke-linecap: square"/>
   </g>
   <g id="patch_5">
    <path d="M 57.6 307.584 
L 414.72 307.584 
" style="fill: none; stroke: #000000; stroke-width: 0.8; stroke-linejoin: miter; stroke-linecap: square"/>
   </g>
   <g id="patch_6">
    <path d="M 57.6 41.472 
L 414.72 41.472 
" style="fill: none; stroke: #000000; stroke-width: 0.8; stroke-linejoin: miter; stroke-linecap: square"/>
   </g>
  </g>
 </g>
 <defs>
  <clipPath id="pa747559df1">
   <rect x="57.6" y="41.472" width="357.12" height="266.112"/>
  </clipPath>
 </defs>
</svg>
