<?xml version="1.0" encoding="utf-8" standalone="no"?>
<!DOCTYPE svg PUBLIC "-//W3C//DTD SVG 1.1//EN"
  "http://www.w3.org/Graphics/SVG/1.1/DTD/svg11.dtd">
<svg xmlns:xlink="http://www.w3.org/1999/xlink" width="460.8pt" height="345.6pt" viewBox="0 0 460.8 345.6" xmlns="http://www.w3.org/2000/svg" version="1.1">
 <metadata>
  <rdf:RDF xmlns:dc="http://purl.org/dc/elements/1.1/" xmlns:cc="http://creativecommons.org/ns#" xmlns:rdf="http://www.w3.org/1999/02/22-rdf-syntax-ns#">
   <cc:Work>
    <dc:type rdf:resource="http://purl.org/dc/dcmitype/StillImage"/>
    <dc:date>2024-04-21T04:57:32.781334</dc:date>
    <dc:format>image/svg+xml</dc:format>
    <dc:creator>
     <cc:Agent>
      <dc:title>Matplotlib v3.7.2, https://matplotlib.org/</dc:title>
     </cc:Agent>
    </dc:creator>
   </cc:Work>
  </rdf:RDF>
 </metadata>
 <defs>
  <style type="text/css">*{stroke-linejoin: round; stroke-linecap: butt}</style>
 </defs>
 <g id="figure_1">
  <g id="patch_1">
   <path d="M 0 345.6 
L 460.8 345.6 
L 460.8 0 
L 0 0 
z
" style="fill: #ffffff"/>
  </g>
  <g id="axes_1">
   <g id="patch_2">
    <path d="M 57.6 307.584 
L 414.72 307.584 
L 414.72 41.472 
L 57.6 41.472 
z
" style="fill: #ffffff"/>
   </g>
   <g id="matplotlib.axis_1">
    <g id="xtick_1">
     <g id="line2d_1">
      <defs>
       <path id="m2d9cce4453" d="M 0 0 
L 0 3.5 
" style="stroke: #000000; stroke-width: 0.8"/>
      </defs>
      <g>
       <use xlink:href="#m2d9cce4453" x="73.832727" y="307.584" style="stroke: #000000; stroke-width: 0.8"/>
      </g>
     </g>
     <g id="text_1">
      <!-- 0 -->
      <g transform="translate(70.651477 322.182437) scale(0.1 -0.1)">
       <defs>
        <path id="DejaVuSans-30" d="M 2034 4250 
Q 1547 4250 1301 3770 
Q 1056 3291 1056 2328 
Q 1056 1369 1301 889 
Q 1547 409 2034 409 
Q 2525 409 2770 889 
Q 3016 1369 3016 2328 
Q 3016 3291 2770 3770 
Q 2525 4250 2034 4250 
z
M 2034 4750 
Q 2819 4750 3233 4129 
Q 3647 3509 3647 2328 
Q 3647 1150 3233 529 
Q 2819 -91 2034 -91 
Q 1250 -91 836 529 
Q 422 1150 422 2328 
Q 422 3509 836 4129 
Q 1250 4750 2034 4750 
z
" transform="scale(0.015625)"/>
       </defs>
       <use xlink:href="#DejaVuSans-30"/>
      </g>
     </g>
    </g>
    <g id="xtick_2">
     <g id="line2d_2">
      <g>
       <use xlink:href="#m2d9cce4453" x="127.959861" y="307.584" style="stroke: #000000; stroke-width: 0.8"/>
      </g>
     </g>
     <g id="text_2">
      <!-- 500 -->
      <g transform="translate(118.416111 322.182437) scale(0.1 -0.1)">
       <defs>
        <path id="DejaVuSans-35" d="M 691 4666 
L 3169 4666 
L 3169 4134 
L 1269 4134 
L 1269 2991 
Q 1406 3038 1543 3061 
Q 1681 3084 1819 3084 
Q 2600 3084 3056 2656 
Q 3513 2228 3513 1497 
Q 3513 744 3044 326 
Q 2575 -91 1722 -91 
Q 1428 -91 1123 -41 
Q 819 9 494 109 
L 494 744 
Q 775 591 1075 516 
Q 1375 441 1709 441 
Q 2250 441 2565 725 
Q 2881 1009 2881 1497 
Q 2881 1984 2565 2268 
Q 2250 2553 1709 2553 
Q 1456 2553 1204 2497 
Q 953 2441 691 2322 
L 691 4666 
z
" transform="scale(0.015625)"/>
       </defs>
       <use xlink:href="#DejaVuSans-35"/>
       <use xlink:href="#DejaVuSans-30" x="63.623047"/>
       <use xlink:href="#DejaVuSans-30" x="127.246094"/>
      </g>
     </g>
    </g>
    <g id="xtick_3">
     <g id="line2d_3">
      <g>
       <use xlink:href="#m2d9cce4453" x="182.086994" y="307.584" style="stroke: #000000; stroke-width: 0.8"/>
      </g>
     </g>
     <g id="text_3">
      <!-- 1000 -->
      <g transform="translate(169.361994 322.182437) scale(0.1 -0.1)">
       <defs>
        <path id="DejaVuSans-31" d="M 794 531 
L 1825 531 
L 1825 4091 
L 703 3866 
L 703 4441 
L 1819 4666 
L 2450 4666 
L 2450 531 
L 3481 531 
L 3481 0 
L 794 0 
L 794 531 
z
" transform="scale(0.015625)"/>
       </defs>
       <use xlink:href="#DejaVuSans-31"/>
       <use xlink:href="#DejaVuSans-30" x="63.623047"/>
       <use xlink:href="#DejaVuSans-30" x="127.246094"/>
       <use xlink:href="#DejaVuSans-30" x="190.869141"/>
      </g>
     </g>
    </g>
    <g id="xtick_4">
     <g id="line2d_4">
      <g>
       <use xlink:href="#m2d9cce4453" x="236.214127" y="307.584" style="stroke: #000000; stroke-width: 0.8"/>
      </g>
     </g>
     <g id="text_4">
      <!-- 1500 -->
      <g transform="translate(223.489127 322.182437) scale(0.1 -0.1)">
       <use xlink:href="#DejaVuSans-31"/>
       <use xlink:href="#DejaVuSans-35" x="63.623047"/>
       <use xlink:href="#DejaVuSans-30" x="127.246094"/>
       <use xlink:href="#DejaVuSans-30" x="190.869141"/>
      </g>
     </g>
    </g>
    <g id="xtick_5">
     <g id="line2d_5">
      <g>
       <use xlink:href="#m2d9cce4453" x="290.34126" y="307.584" style="stroke: #000000; stroke-width: 0.8"/>
      </g>
     </g>
     <g id="text_5">
      <!-- 2000 -->
      <g transform="translate(277.61626 322.182437) scale(0.1 -0.1)">
       <defs>
        <path id="DejaVuSans-32" d="M 1228 531 
L 3431 531 
L 3431 0 
L 469 0 
L 469 531 
Q 828 903 1448 1529 
Q 2069 2156 2228 2338 
Q 2531 2678 2651 2914 
Q 2772 3150 2772 3378 
Q 2772 3750 2511 3984 
Q 2250 4219 1831 4219 
Q 1534 4219 1204 4116 
Q 875 4013 500 3803 
L 500 4441 
Q 881 4594 1212 4672 
Q 1544 4750 1819 4750 
Q 2544 4750 2975 4387 
Q 3406 4025 3406 3419 
Q 3406 3131 3298 2873 
Q 3191 2616 2906 2266 
Q 2828 2175 2409 1742 
Q 1991 1309 1228 531 
z
" transform="scale(0.015625)"/>
       </defs>
       <use xlink:href="#DejaVuSans-32"/>
       <use xlink:href="#DejaVuSans-30" x="63.623047"/>
       <use xlink:href="#DejaVuSans-30" x="127.246094"/>
       <use xlink:href="#DejaVuSans-30" x="190.869141"/>
      </g>
     </g>
    </g>
    <g id="xtick_6">
     <g id="line2d_6">
      <g>
       <use xlink:href="#m2d9cce4453" x="344.468394" y="307.584" style="stroke: #000000; stroke-width: 0.8"/>
      </g>
     </g>
     <g id="text_6">
      <!-- 2500 -->
      <g transform="translate(331.743394 322.182437) scale(0.1 -0.1)">
       <use xlink:href="#DejaVuSans-32"/>
       <use xlink:href="#DejaVuSans-35" x="63.623047"/>
       <use xlink:href="#DejaVuSans-30" x="127.246094"/>
       <use xlink:href="#DejaVuSans-30" x="190.869141"/>
      </g>
     </g>
    </g>
    <g id="xtick_7">
     <g id="line2d_7">
      <g>
       <use xlink:href="#m2d9cce4453" x="398.595527" y="307.584" style="stroke: #000000; stroke-width: 0.8"/>
      </g>
     </g>
     <g id="text_7">
      <!-- 3000 -->
      <g transform="translate(385.870527 322.182437) scale(0.1 -0.1)">
       <defs>
        <path id="DejaVuSans-33" d="M 2597 2516 
Q 3050 2419 3304 2112 
Q 3559 1806 3559 1356 
Q 3559 666 3084 287 
Q 2609 -91 1734 -91 
Q 1441 -91 1130 -33 
Q 819 25 488 141 
L 488 750 
Q 750 597 1062 519 
Q 1375 441 1716 441 
Q 2309 441 2620 675 
Q 2931 909 2931 1356 
Q 2931 1769 2642 2001 
Q 2353 2234 1838 2234 
L 1294 2234 
L 1294 2753 
L 1863 2753 
Q 2328 2753 2575 2939 
Q 2822 3125 2822 3475 
Q 2822 3834 2567 4026 
Q 2313 4219 1838 4219 
Q 1578 4219 1281 4162 
Q 984 4106 628 3988 
L 628 4550 
Q 988 4650 1302 4700 
Q 1616 4750 1894 4750 
Q 2613 4750 3031 4423 
Q 3450 4097 3450 3541 
Q 3450 3153 3228 2886 
Q 3006 2619 2597 2516 
z
" transform="scale(0.015625)"/>
       </defs>
       <use xlink:href="#DejaVuSans-33"/>
       <use xlink:href="#DejaVuSans-30" x="63.623047"/>
       <use xlink:href="#DejaVuSans-30" x="127.246094"/>
       <use xlink:href="#DejaVuSans-30" x="190.869141"/>
      </g>
     </g>
    </g>
   </g>
   <g id="matplotlib.axis_2">
    <g id="ytick_1">
     <g id="line2d_8">
      <defs>
       <path id="mce7530a1e5" d="M 0 0 
L -3.5 0 
" style="stroke: #000000; stroke-width: 0.8"/>
      </defs>
      <g>
       <use xlink:href="#mce7530a1e5" x="57.6" y="287.867187" style="stroke: #000000; stroke-width: 0.8"/>
      </g>
     </g>
     <g id="text_8">
      <!-- −3000 -->
      <g transform="translate(16.770313 291.666406) scale(0.1 -0.1)">
       <defs>
        <path id="DejaVuSans-2212" d="M 678 2272 
L 4684 2272 
L 4684 1741 
L 678 1741 
L 678 2272 
z
" transform="scale(0.015625)"/>
       </defs>
       <use xlink:href="#DejaVuSans-2212"/>
       <use xlink:href="#DejaVuSans-33" x="83.789062"/>
       <use xlink:href="#DejaVuSans-30" x="147.412109"/>
       <use xlink:href="#DejaVuSans-30" x="211.035156"/>
       <use xlink:href="#DejaVuSans-30" x="274.658203"/>
      </g>
     </g>
    </g>
    <g id="ytick_2">
     <g id="line2d_9">
      <g>
       <use xlink:href="#mce7530a1e5" x="57.6" y="254.625943" style="stroke: #000000; stroke-width: 0.8"/>
      </g>
     </g>
     <g id="text_9">
      <!-- −2000 -->
      <g transform="translate(16.770313 258.425162) scale(0.1 -0.1)">
       <use xlink:href="#DejaVuSans-2212"/>
       <use xlink:href="#DejaVuSans-32" x="83.789062"/>
       <use xlink:href="#DejaVuSans-30" x="147.412109"/>
       <use xlink:href="#DejaVuSans-30" x="211.035156"/>
       <use xlink:href="#DejaVuSans-30" x="274.658203"/>
      </g>
     </g>
    </g>
    <g id="ytick_3">
     <g id="line2d_10">
      <g>
       <use xlink:href="#mce7530a1e5" x="57.6" y="221.3847" style="stroke: #000000; stroke-width: 0.8"/>
      </g>
     </g>
     <g id="text_10">
      <!-- −1000 -->
      <g transform="translate(16.770313 225.183918) scale(0.1 -0.1)">
       <use xlink:href="#DejaVuSans-2212"/>
       <use xlink:href="#DejaVuSans-31" x="83.789062"/>
       <use xlink:href="#DejaVuSans-30" x="147.412109"/>
       <use xlink:href="#DejaVuSans-30" x="211.035156"/>
       <use xlink:href="#DejaVuSans-30" x="274.658203"/>
      </g>
     </g>
    </g>
    <g id="ytick_4">
     <g id="line2d_11">
      <g>
       <use xlink:href="#mce7530a1e5" x="57.6" y="188.143456" style="stroke: #000000; stroke-width: 0.8"/>
      </g>
     </g>
     <g id="text_11">
      <!-- 0 -->
      <g transform="translate(44.2375 191.942675) scale(0.1 -0.1)">
       <use xlink:href="#DejaVuSans-30"/>
      </g>
     </g>
    </g>
    <g id="ytick_5">
     <g id="line2d_12">
      <g>
       <use xlink:href="#mce7530a1e5" x="57.6" y="154.902212" style="stroke: #000000; stroke-width: 0.8"/>
      </g>
     </g>
     <g id="text_12">
      <!-- 1000 -->
      <g transform="translate(25.15 158.701431) scale(0.1 -0.1)">
       <use xlink:href="#DejaVuSans-31"/>
       <use xlink:href="#DejaVuSans-30" x="63.623047"/>
       <use xlink:href="#DejaVuSans-30" x="127.246094"/>
       <use xlink:href="#DejaVuSans-30" x="190.869141"/>
      </g>
     </g>
    </g>
    <g id="ytick_6">
     <g id="line2d_13">
      <g>
       <use xlink:href="#mce7530a1e5" x="57.6" y="121.660968" style="stroke: #000000; stroke-width: 0.8"/>
      </g>
     </g>
     <g id="text_13">
      <!-- 2000 -->
      <g transform="translate(25.15 125.460187) scale(0.1 -0.1)">
       <use xlink:href="#DejaVuSans-32"/>
       <use xlink:href="#DejaVuSans-30" x="63.623047"/>
       <use xlink:href="#DejaVuSans-30" x="127.246094"/>
       <use xlink:href="#DejaVuSans-30" x="190.869141"/>
      </g>
     </g>
    </g>
    <g id="ytick_7">
     <g id="line2d_14">
      <g>
       <use xlink:href="#mce7530a1e5" x="57.6" y="88.419725" style="stroke: #000000; stroke-width: 0.8"/>
      </g>
     </g>
     <g id="text_14">
      <!-- 3000 -->
      <g transform="translate(25.15 92.218943) scale(0.1 -0.1)">
       <use xlink:href="#DejaVuSans-33"/>
       <use xlink:href="#DejaVuSans-30" x="63.623047"/>
       <use xlink:href="#DejaVuSans-30" x="127.246094"/>
       <use xlink:href="#DejaVuSans-30" x="190.869141"/>
      </g>
     </g>
    </g>
    <g id="ytick_8">
     <g id="line2d_15">
      <g>
       <use xlink:href="#mce7530a1e5" x="57.6" y="55.178481" style="stroke: #000000; stroke-width: 0.8"/>
      </g>
     </g>
     <g id="text_15">
      <!-- 4000 -->
      <g transform="translate(25.15 58.9777) scale(0.1 -0.1)">
       <defs>
        <path id="DejaVuSans-34" d="M 2419 4116 
L 825 1625 
L 2419 1625 
L 2419 4116 
z
M 2253 4666 
L 3047 4666 
L 3047 1625 
L 3713 1625 
L 3713 1100 
L 3047 1100 
L 3047 0 
L 2419 0 
L 2419 1100 
L 313 1100 
L 313 1709 
L 2253 4666 
z
" transform="scale(0.015625)"/>
       </defs>
       <use xlink:href="#DejaVuSans-34"/>
       <use xlink:href="#DejaVuSans-30" x="63.623047"/>
       <use xlink:href="#DejaVuSans-30" x="127.246094"/>
       <use xlink:href="#DejaVuSans-30" x="190.869141"/>
      </g>
     </g>
    </g>
   </g>
   <g id="line2d_16">
    <path d="M 73.832727 148.124751 
L 73.940982 102.347686 
L 74.049236 171.840487 
L 74.15749 171.452393 
L 74.265744 187.292025 
L 74.482253 92.752357 
L 74.590507 91.32562 
L 74.698761 79.812096 
L 74.807016 165.170771 
L 74.91527 134.400524 
L 75.131778 205.613654 
L 75.348287 156.74091 
L 75.564796 221.978206 
L 75.781304 221.944897 
L 75.997813 220.501661 
L 76.214321 142.743236 
L 76.322575 154.180713 
L 76.43083 198.480374 
L 76.647338 154.424865 
L 76.755592 121.724294 
L 76.863847 180.844704 
L 77.080355 153.26262 
L 77.296864 232.329136 
L 77.405118 128.967574 
L 77.513372 205.021808 
L 77.621627 203.518516 
L 77.729881 200.518659 
L 77.838135 166.414527 
L 78.054644 269.75972 
L 78.271152 251.901318 
L 78.379406 255.055683 
L 78.487661 222.680872 
L 78.595915 257.314924 
L 78.704169 221.015196 
L 78.920678 259.821843 
L 79.028932 228.859778 
L 79.245441 259.095356 
L 79.353695 259.521345 
L 79.461949 151.024146 
L 79.678458 262.532224 
L 79.786712 187.642187 
L 79.894966 200.338417 
L 80.00322 140.262016 
L 80.111475 174.143339 
L 80.219729 174.011689 
L 80.327983 204.994406 
L 80.436238 176.584951 
L 80.544492 186.238575 
L 80.652746 140.057052 
L 80.761 168.37851 
L 80.869255 92.067996 
L 80.977509 210.813972 
L 81.085763 203.67191 
L 81.194017 207.945168 
L 81.302272 205.000966 
L 81.410526 207.060691 
L 81.735289 148.158709 
L 81.951797 206.068628 
L 82.060052 146.771695 
L 82.168306 211.221163 
L 82.27656 208.169339 
L 82.384814 181.61895 
L 82.493069 182.521958 
L 82.601323 135.780352 
L 82.709577 215.447371 
L 82.817831 160.722353 
L 82.926086 213.41923 
L 83.03434 209.987082 
L 83.142594 130.119304 
L 83.359103 202.074043 
L 83.467357 147.583337 
L 83.575611 211.791395 
L 83.683866 179.216959 
L 83.79212 207.549021 
L 83.900374 194.139727 
L 84.008628 209.81609 
L 84.116883 135.87946 
L 84.225137 211.149284 
L 84.441645 138.228462 
L 84.658154 215.004529 
L 84.874662 220.170979 
L 84.982917 215.56516 
L 85.091171 219.167685 
L 85.30768 217.505678 
L 85.415934 213.031412 
L 85.524188 215.184704 
L 85.632442 138.983261 
L 85.848951 216.153851 
L 85.957205 147.87747 
L 86.065459 149.86952 
L 86.173714 213.399676 
L 86.498476 136.955139 
L 86.714985 142.974374 
L 86.823239 136.321506 
L 86.931494 137.215703 
L 87.039748 135.982404 
L 87.148002 164.910698 
L 87.256256 156.954813 
L 87.364511 170.074946 
L 87.472765 166.141891 
L 87.581019 175.420135 
L 87.689273 208.536099 
L 87.797528 204.907119 
L 87.905782 206.82534 
L 88.12229 205.86994 
L 88.230545 189.52919 
L 88.338799 203.409362 
L 88.447053 203.344798 
L 88.663562 200.949708 
L 88.771816 200.881812 
L 88.88007 153.664925 
L 88.988325 199.189664 
L 89.096579 196.911591 
L 89.204833 197.527611 
L 89.313087 193.012871 
L 89.421342 224.087361 
L 89.63785 139.063157 
L 89.746104 181.803919 
L 89.962613 153.76694 
L 90.070867 155.95858 
L 90.287376 153.153612 
L 90.39563 159.002698 
L 90.503884 156.34799 
L 90.720393 235.339418 
L 90.828647 203.62158 
L 90.936901 232.396397 
L 91.261664 199.340061 
L 91.369918 216.566666 
L 91.586427 197.811393 
L 91.694681 141.269854 
L 91.91119 223.296197 
L 92.127698 148.088784 
L 92.235953 252.524919 
L 92.560715 180.395578 
L 92.66897 223.246771 
L 92.777224 194.887073 
L 92.885478 222.96189 
L 93.101987 192.397781 
L 93.42675 189.911706 
L 93.859767 188.145812 
L 94.184529 188.144526 
L 94.292784 188.833246 
L 94.401038 145.68413 
L 94.509292 188.303445 
L 94.617546 187.723861 
L 94.725801 221.347018 
L 94.834055 144.930892 
L 95.050564 218.025921 
L 95.158818 203.736364 
L 95.375326 218.025921 
L 95.700089 131.481337 
L 95.808343 218.025921 
L 96.024852 148.686762 
L 96.133106 148.686762 
L 96.349615 172.784901 
L 96.457869 168.63035 
L 96.566123 157.86271 
L 96.782632 218.389664 
L 96.99914 179.833153 
L 97.107395 253.522671 
L 97.215649 137.233095 
L 97.323903 158.927921 
L 97.540412 253.580193 
L 97.75692 167.469384 
L 97.865174 190.387854 
L 97.973429 249.691964 
L 98.189937 185.894104 
L 98.406446 190.304774 
L 98.5147 150.1689 
L 98.731209 190.080128 
L 98.839463 222.491368 
L 98.947717 219.719222 
L 99.055971 249.342123 
L 99.27248 188.143013 
L 99.380734 188.436883 
L 99.488988 188.315476 
L 99.597243 218.197039 
L 99.705497 188.312322 
L 99.813751 218.192588 
L 99.922006 218.02592 
L 100.03026 218.02592 
L 100.246768 188.143321 
L 102.844871 188.143456 
L 103.061379 101.576434 
L 103.386142 101.576398 
L 103.494396 184.510564 
L 103.710905 102.407466 
L 103.819159 184.583234 
L 103.927413 113.683697 
L 104.035668 214.704517 
L 104.252176 101.598753 
L 104.36043 158.156975 
L 104.468685 104.877986 
L 104.685193 120.636226 
L 104.793448 158.156959 
L 105.009956 132.406126 
L 105.11821 150.629279 
L 105.226465 188.417685 
L 105.334719 158.929942 
L 105.551227 190.667335 
L 105.767736 192.328495 
L 105.87599 253.19715 
L 105.984244 223.989013 
L 106.092499 138.181601 
L 106.309007 226.540566 
L 106.417262 227.369164 
L 106.525516 155.130354 
L 106.850279 262.563197 
L 106.958533 200.666025 
L 107.066787 201.49091 
L 107.283296 202.820283 
L 107.39155 203.726389 
L 107.608058 151.556988 
L 107.824567 254.676745 
L 107.932821 233.025209 
L 108.041076 235.802994 
L 108.14933 235.019848 
L 108.257584 257.754438 
L 108.690601 177.371657 
L 108.798855 206.943273 
L 108.90711 269.683473 
L 109.015364 267.810902 
L 109.123618 134.370442 
L 109.231872 186.004625 
L 109.340127 149.792502 
L 109.448381 202.808303 
L 109.556635 148.460177 
L 109.66489 258.300516 
L 109.773144 147.522532 
L 109.989652 228.352633 
L 110.097907 228.584406 
L 110.206161 241.807754 
L 110.314415 189.021116 
L 110.422669 226.231948 
L 110.530924 141.662463 
L 110.639178 147.864275 
L 110.747432 201.786315 
L 110.855686 145.894572 
L 110.963941 146.535949 
L 111.180449 200.568203 
L 111.288704 149.291035 
L 111.396958 150.117868 
L 111.505212 215.152924 
L 111.613466 196.953321 
L 111.721721 205.505334 
L 111.829975 198.471144 
L 111.938229 201.715049 
L 112.046483 161.225071 
L 112.262992 273.058387 
L 112.371246 241.306491 
L 112.4795 249.512729 
L 112.587755 239.708979 
L 112.804263 154.833083 
L 112.912518 128.945259 
L 113.020772 212.064976 
L 113.23728 202.569332 
L 113.345535 144.488999 
L 113.453789 149.916363 
L 113.562043 201.87466 
L 113.670297 132.640308 
L 113.778552 133.469158 
L 113.886806 220.909928 
L 114.103314 135.335869 
L 114.211569 136.82265 
L 114.319823 136.62113 
L 114.75284 139.333371 
L 114.861094 136.621747 
L 114.969349 156.397902 
L 115.185857 141.735987 
L 115.294111 141.962983 
L 115.402366 143.003426 
L 115.51062 184.398266 
L 115.618874 147.195282 
L 115.727128 148.028708 
L 115.943637 180.888913 
L 116.051891 164.157646 
L 116.2684 251.02943 
L 116.376654 268.594423 
L 116.484908 236.058146 
L 116.593163 147.538166 
L 116.701417 151.601225 
L 116.809671 218.246956 
L 116.917925 155.36662 
L 117.02618 267.331769 
L 117.134434 167.036066 
L 117.242688 272.242202 
L 117.350942 157.980651 
L 117.459197 242.444431 
L 117.567451 240.807242 
L 117.675705 142.075617 
L 117.78396 181.842919 
L 117.892214 181.299986 
L 118.000468 213.230618 
L 118.108722 141.389662 
L 118.216977 176.058626 
L 118.325231 157.800444 
L 118.433485 241.033242 
L 118.541739 211.974705 
L 118.649994 237.325035 
L 118.866502 173.053987 
L 118.974756 204.643164 
L 119.083011 124.211271 
L 119.191265 233.609941 
L 119.407774 115.233082 
L 119.516028 117.80558 
L 119.624282 125.988723 
L 119.840791 198.335573 
L 119.949045 168.766792 
L 120.165553 196.406801 
L 120.273808 165.826498 
L 120.490316 225.513348 
L 120.59857 151.084769 
L 120.706825 258.701503 
L 120.815079 152.260801 
L 121.031587 226.699408 
L 121.139842 123.962669 
L 121.248096 227.441598 
L 121.464605 142.042241 
L 121.572859 155.351508 
L 121.789367 140.41484 
L 122.005876 139.157034 
L 122.222384 149.804439 
L 122.438893 107.889706 
L 122.87191 110.472477 
L 122.980164 109.875611 
L 123.088419 110.700984 
L 123.196673 110.199198 
L 123.304927 209.942438 
L 123.413181 110.484464 
L 123.846198 238.331908 
L 124.062707 191.289348 
L 124.38747 188.814857 
L 124.603978 205.313287 
L 124.820487 167.768039 
L 124.928741 138.869125 
L 125.036995 235.217756 
L 125.253504 182.858397 
L 125.361758 217.616159 
L 125.470012 186.671528 
L 125.578267 211.566423 
L 125.686521 194.533898 
L 125.794775 211.542042 
L 126.119538 209.942472 
L 126.227792 198.485779 
L 126.336047 210.451575 
L 126.444301 245.152973 
L 126.660809 207.579734 
L 126.769064 210.562523 
L 126.877318 209.747286 
L 127.093826 212.940596 
L 127.202081 207.210083 
L 127.418589 173.091245 
L 127.526843 191.673153 
L 127.635098 156.852707 
L 127.851606 238.469789 
L 127.959861 235.837048 
L 128.068115 203.877988 
L 128.176369 123.124962 
L 128.392878 194.430743 
L 128.501132 208.481012 
L 128.71764 158.389536 
L 128.825895 130.292074 
L 129.042403 211.373171 
L 129.258912 163.757006 
L 129.47542 210.189022 
L 129.691929 113.359552 
L 129.800183 119.466935 
L 129.908437 115.031839 
L 130.124946 118.807518 
L 130.341454 120.1122 
L 130.449709 133.112517 
L 130.557963 121.506258 
L 130.666217 122.014512 
L 130.774471 136.301017 
L 130.882726 171.245316 
L 130.99098 141.245925 
L 131.207489 213.426398 
L 131.315743 139.956394 
L 131.423997 140.796582 
L 131.532251 127.983211 
L 131.74876 199.175394 
L 131.857014 143.818821 
L 132.073523 234.421152 
L 132.181777 228.730255 
L 132.50654 236.874911 
L 132.614794 237.208151 
L 132.723048 216.997412 
L 132.831303 217.032326 
L 133.047811 131.862966 
L 133.156065 216.550096 
L 133.26432 167.991298 
L 133.372574 234.615515 
L 133.480828 177.339211 
L 133.589082 206.384137 
L 133.697337 185.133445 
L 133.805591 136.730097 
L 133.913845 154.107319 
L 134.022099 138.459852 
L 134.130354 237.876718 
L 134.346862 140.931018 
L 134.563371 159.228159 
L 134.888134 160.605649 
L 134.996388 159.769775 
L 135.104642 161.784449 
L 135.212896 273.663795 
L 135.429405 219.690751 
L 135.537659 233.163581 
L 135.645913 172.475237 
L 135.862422 245.609081 
L 135.970676 245.33066 
L 136.078931 242.988353 
L 136.187185 143.563185 
L 136.295439 159.849606 
L 136.403693 260.06693 
L 136.511948 155.033152 
L 136.620202 241.688182 
L 136.83671 153.662362 
L 136.944965 273.194257 
L 137.053219 236.493167 
L 137.161473 239.956434 
L 137.269727 235.738742 
L 137.377982 255.07061 
L 137.486236 181.188539 
L 137.59449 256.844546 
L 137.702745 202.875489 
L 137.919253 242.397341 
L 138.135762 277.332728 
L 138.244016 246.598604 
L 138.35227 160.874392 
L 138.460524 295.488 
L 138.677033 244.984625 
L 138.785287 251.562319 
L 138.893541 159.204413 
L 139.001796 159.646704 
L 139.11005 175.86944 
L 139.651321 172.132429 
L 139.759576 226.052344 
L 139.86783 173.599314 
L 139.976084 175.870815 
L 140.192593 182.535672 
L 140.300847 234.667584 
L 140.409101 201.398461 
L 140.517355 205.243375 
L 140.62561 181.199716 
L 140.733864 235.953292 
L 140.842118 233.293079 
L 140.950373 247.522702 
L 141.275135 175.554438 
L 141.38339 246.008551 
L 141.491644 233.342723 
L 141.708152 145.313542 
L 141.924661 276.033834 
L 142.032915 159.618271 
L 142.141169 201.590571 
L 142.249424 141.252161 
L 142.357678 160.08475 
L 142.574187 240.680625 
L 142.682441 135.991553 
L 142.790695 265.851948 
L 142.898949 212.531907 
L 143.007204 249.706105 
L 143.115458 135.91017 
L 143.223712 220.52868 
L 143.331966 174.925602 
L 143.440221 219.997181 
L 143.656729 187.008894 
L 143.764983 219.774188 
L 143.981492 99.07466 
L 144.198001 218.149704 
L 144.522763 126.85482 
L 144.739272 146.821589 
L 144.847526 115.875529 
L 144.95578 121.765552 
L 145.064035 117.524407 
L 145.172289 104.328779 
L 145.497052 106.816098 
L 145.605306 109.963334 
L 145.71356 93.258816 
L 145.930069 119.682842 
L 146.038323 112.529437 
L 146.363086 114.626998 
L 146.579594 201.296611 
L 146.687849 233.944005 
L 146.796103 199.557043 
L 146.904357 203.647393 
L 147.012611 231.124672 
L 147.120866 230.644962 
L 147.22912 215.487711 
L 147.445629 152.254658 
L 147.553883 221.028116 
L 147.662137 184.150957 
L 147.770391 100.591259 
L 147.9869 214.941801 
L 148.095154 103.772224 
L 148.203408 200.117692 
L 148.311663 198.273392 
L 148.419917 233.020867 
L 148.636425 205.604041 
L 148.961188 239.452739 
L 149.069443 234.78303 
L 149.177697 232.933781 
L 149.50246 150.772342 
L 149.610714 190.951945 
L 149.718968 150.051259 
L 149.935477 162.700439 
L 150.043731 151.573348 
L 150.151985 152.413216 
L 150.368494 204.893674 
L 150.476748 202.866018 
L 150.585002 242.448585 
L 150.693257 165.862392 
L 150.801511 176.648312 
L 151.018019 240.743388 
L 151.234528 198.190399 
L 151.342782 233.208551 
L 151.559291 158.530933 
L 151.884053 236.620422 
L 152.100562 237.861049 
L 152.208816 237.118902 
L 152.317071 238.923921 
L 152.425325 237.118902 
L 152.533579 237.528127 
L 152.641833 236.875241 
L 152.750088 237.61738 
L 153.07485 235.711315 
L 153.183105 236.8623 
L 153.291359 236.120176 
L 153.399613 236.951553 
L 153.507867 236.209429 
L 153.724376 153.848781 
L 153.83263 152.805218 
L 154.049139 237.008045 
L 154.157393 268.369608 
L 154.265647 259.863642 
L 154.373902 269.518783 
L 154.482156 252.300917 
L 154.59041 270.346958 
L 154.698664 234.735311 
L 154.806919 239.145006 
L 155.023427 257.577904 
L 155.131681 241.068838 
L 155.34819 275.137649 
L 155.456444 154.26956 
L 155.564699 242.013266 
L 155.672953 241.742008 
L 155.781207 275.057578 
L 155.889461 243.544976 
L 156.10597 277.927576 
L 156.214224 148.862191 
L 156.430733 242.345224 
L 156.538987 246.413935 
L 156.647241 197.118221 
L 156.86375 244.948131 
L 156.972004 244.816596 
L 157.188513 243.68461 
L 157.296767 243.273058 
L 157.405021 242.027768 
L 157.513275 218.745245 
L 157.62153 270.181376 
L 157.729784 152.32646 
L 157.946292 237.297439 
L 158.054547 236.789628 
L 158.162801 233.62913 
L 158.271055 150.947498 
L 158.379309 155.374279 
L 158.487564 236.716514 
L 158.595818 236.150544 
L 158.704072 239.857206 
L 158.920581 197.668327 
L 159.137089 241.44735 
L 159.353598 275.247443 
L 159.570106 277.417267 
L 159.894869 164.152495 
L 160.003123 194.152909 
L 160.219632 277.657978 
L 160.327886 247.588796 
L 160.436141 146.369465 
L 160.544395 280.327314 
L 160.652649 164.151118 
L 160.760903 251.081124 
L 160.869158 217.463045 
L 160.977412 253.017842 
L 161.085666 251.811725 
L 161.410429 134.384347 
L 161.626937 250.629568 
L 161.843446 249.321579 
L 162.059955 214.768692 
L 162.168209 248.133639 
L 162.276463 246.730188 
L 162.492972 211.68954 
L 163.142497 207.55485 
L 163.250751 240.767304 
L 163.359006 239.595237 
L 163.46726 205.870121 
L 163.575514 238.26664 
L 163.792023 203.675849 
L 164.22504 201.031681 
L 164.658057 198.811498 
L 164.98282 196.894488 
L 165.091074 196.48473 
L 165.524091 193.738661 
L 165.957108 191.779536 
L 166.065362 158.534495 
L 166.173617 224.715784 
L 166.281871 140.14356 
L 166.390125 154.651722 
L 166.498379 141.817073 
L 166.714888 244.151485 
L 166.823142 247.579214 
L 167.039651 194.237109 
L 167.256159 230.234187 
L 167.364414 245.82215 
L 167.472668 244.016625 
L 167.580922 244.781053 
L 167.689176 227.481669 
L 167.797431 227.511983 
L 168.122193 225.050604 
L 168.230448 257.394234 
L 168.338702 256.565237 
L 168.555211 221.956672 
L 168.663465 236.840658 
L 168.771719 221.734542 
L 168.879973 254.176699 
L 168.988228 218.487547 
L 169.204736 221.956672 
L 169.31299 136.88512 
L 169.421245 240.39847 
L 169.529499 222.994526 
L 169.637753 138.95221 
L 169.854262 204.058207 
L 169.962516 219.8818 
L 170.07077 202.012245 
L 170.179025 216.860304 
L 170.287279 216.609658 
L 170.395533 214.972708 
L 170.503787 180.568081 
L 170.612042 214.205983 
L 170.82855 178.267388 
L 171.045059 209.626023 
L 171.261567 208.272519 
L 171.58633 205.815508 
L 171.694584 119.107484 
L 171.802839 204.177593 
L 171.911093 150.833352 
L 172.019347 154.867031 
L 172.235856 204.236621 
L 174.184432 189.944895 
L 174.400941 189.924295 
L 174.617449 189.54148 
L 174.942212 189.482309 
L 175.050467 189.6151 
L 175.266975 164.269672 
L 175.375229 189.320492 
L 175.591738 187.93308 
L 175.699992 187.79856 
L 175.808246 188.053 
L 176.024755 189.485014 
L 176.133009 189.382687 
L 176.241263 189.471836 
L 176.349518 189.318605 
L 176.457772 189.480857 
L 177.107298 189.346321 
L 177.215552 181.702487 
L 177.323806 187.77309 
L 177.540315 184.945821 
L 177.756823 151.931548 
L 177.865077 156.75633 
L 177.973332 187.853524 
L 178.081586 105.099204 
L 178.18984 148.559953 
L 178.406349 77.013736 
L 178.514603 97.80023 
L 178.622857 70.047007 
L 178.839366 188.031885 
L 178.94762 86.208256 
L 179.055874 188.052759 
L 179.272383 70.109662 
L 179.488891 117.025682 
L 179.597146 186.80493 
L 179.813654 81.978454 
L 179.921909 81.608007 
L 180.030163 189.576482 
L 180.138417 69.968987 
L 180.246671 70.003602 
L 180.46318 69.983093 
L 180.679688 187.582293 
L 180.896197 187.560644 
L 181.004451 116.865734 
L 181.112705 189.02105 
L 181.329214 69.753857 
L 181.437468 203.982476 
L 181.545723 188.037776 
L 181.653977 69.961675 
L 181.762231 69.971614 
L 182.195248 70.010023 
L 182.303502 77.055698 
L 182.411757 70.028478 
L 182.520011 70.037532 
L 182.628265 70.046476 
L 182.736519 86.927904 
L 182.953028 204.244021 
L 183.061282 204.428788 
L 183.169537 204.86734 
L 183.277791 204.285224 
L 183.386045 204.544909 
L 183.494299 220.960544 
L 183.602554 187.825316 
L 183.710808 187.975647 
L 183.819062 221.955761 
L 184.035571 120.842998 
L 184.143825 108.132022 
L 184.360333 120.9178 
L 184.468588 121.757063 
L 184.685096 194.052048 
L 184.793351 183.22601 
L 184.901605 194.071874 
L 185.009859 193.254559 
L 185.226368 178.127758 
L 185.334622 110.976039 
L 185.55113 194.123388 
L 185.659385 149.632169 
L 185.767639 194.023805 
L 185.875893 121.052036 
L 185.984147 121.88188 
L 186.092402 122.711709 
L 186.200656 138.411007 
L 186.30891 121.734163 
L 186.417165 61.443272 
L 186.633673 197.472369 
L 186.741927 161.604014 
L 187.06669 197.472369 
L 187.932724 190.833955 
L 188.040979 136.642777 
L 188.149233 189.174186 
L 188.257487 188.344278 
L 188.473996 188.130423 
L 188.58225 140.665814 
L 188.690504 188.132568 
L 188.907013 142.261859 
L 189.015267 138.182019 
L 189.123521 163.801336 
L 189.231775 159.715331 
L 189.34003 161.906861 
L 189.556538 149.32325 
L 189.773047 188.140353 
L 190.09781 117.903202 
L 190.206064 117.738238 
L 190.422572 149.993313 
L 190.530827 120.227954 
L 190.747335 121.887684 
L 190.855589 135.118588 
L 190.963844 123.547348 
L 191.180352 125.20694 
L 191.288607 152.501996 
L 191.396861 126.866459 
L 191.505115 127.696189 
L 191.829878 86.973445 
L 191.938132 204.085758 
L 192.046386 203.331774 
L 192.154641 202.480775 
L 192.262895 96.537127 
L 192.371149 98.304238 
L 192.479403 82.644092 
L 192.587658 83.044782 
L 192.695912 83.394551 
L 192.804166 84.444878 
L 192.912421 68.261146 
L 193.128929 86.681931 
L 193.561946 89.469249 
L 193.6702 132.014419 
L 193.778455 90.266086 
L 193.886709 129.979346 
L 193.994963 92.006166 
L 194.103217 92.53633 
L 194.536235 94.402888 
L 195.077506 97.865177 
L 195.727031 102.454783 
L 195.835286 218.604558 
L 195.94354 103.784223 
L 196.051794 104.955179 
L 196.268303 105.848158 
L 196.376557 107.00924 
L 196.484811 166.789249 
L 196.593066 146.356085 
L 196.70132 152.993859 
L 196.809574 168.738029 
L 196.917828 167.166085 
L 197.026083 189.21817 
L 197.242591 151.349712 
L 197.350845 189.567456 
L 197.4591 182.078875 
L 197.567354 106.921729 
L 197.783862 142.785063 
L 198.758151 150.065187 
L 198.866405 149.938659 
L 199.082914 158.859046 
L 199.299422 225.311501 
L 199.515931 170.670851 
L 199.624185 187.263382 
L 199.840694 236.30502 
L 199.948948 233.761811 
L 200.165456 238.749432 
L 200.381965 240.413192 
L 200.814982 160.440222 
L 201.139745 240.587885 
L 201.247999 193.041732 
L 201.356253 201.312466 
L 201.464508 171.234669 
L 201.572762 238.741489 
L 201.78927 191.245147 
L 202.005779 235.656327 
L 202.114033 117.495074 
L 202.222287 200.896241 
L 202.330542 115.817539 
L 202.438796 234.144561 
L 202.54705 233.932807 
L 202.655304 153.845247 
L 202.763559 232.586525 
L 202.871813 231.70323 
L 203.088322 230.150385 
L 203.30483 227.258224 
L 203.954356 223.954153 
L 204.712136 218.531564 
L 205.145153 81.104672 
L 205.253407 98.932753 
L 205.361661 98.709807 
L 205.469915 215.314603 
L 205.57817 97.33599 
L 205.686424 213.665608 
L 205.794678 117.889389 
L 205.902932 154.514338 
L 206.011187 100.638415 
L 206.119441 210.451584 
L 206.444204 178.112483 
L 206.552458 193.437373 
L 206.660712 192.997011 
L 206.768967 209.282954 
L 206.877221 190.5427 
L 206.985475 86.483621 
L 207.093729 188.702148 
L 207.201984 156.582869 
L 207.418492 222.063071 
L 207.526746 185.971004 
L 207.635001 219.66542 
L 207.851509 201.41673 
L 208.284526 199.05673 
L 208.501035 163.274354 
L 208.717543 161.630327 
L 208.825798 195.752738 
L 209.042306 192.252643 
L 209.15056 192.625311 
L 209.583578 190.16402 
L 209.691832 190.171603 
L 210.016595 188.532024 
L 210.449612 188.560513 
L 210.66612 187.906854 
L 212.398188 188.013299 
L 212.506443 205.531134 
L 212.614697 204.385548 
L 212.831206 172.300685 
L 212.93946 87.35792 
L 213.047714 99.655986 
L 213.155968 70.166733 
L 213.264223 156.59178 
L 213.372477 156.15291 
L 213.480731 188.030875 
L 213.588985 176.498259 
L 213.69724 205.122026 
L 213.805494 156.514424 
L 213.913748 165.147603 
L 214.022002 78.550115 
L 214.130257 172.978758 
L 214.238511 156.491711 
L 214.346765 199.462466 
L 214.45502 198.206968 
L 214.563274 102.278509 
L 214.779782 216.486609 
L 214.888037 199.402417 
L 215.104545 64.673871 
L 215.212799 172.216345 
L 215.429308 158.397593 
L 215.537562 172.98205 
L 215.754071 152.566877 
L 215.862325 126.264135 
L 215.970579 155.883156 
L 216.078834 92.89495 
L 216.187088 188.108666 
L 216.295342 188.104473 
L 216.403596 172.205741 
L 216.511851 172.883037 
L 216.620105 130.714482 
L 216.728359 172.313679 
L 216.836613 155.736247 
L 216.944868 75.636116 
L 217.053122 189.277829 
L 217.26963 155.215744 
L 217.486139 85.659835 
L 217.594393 139.164555 
L 217.702648 130.925806 
L 217.810902 205.290055 
L 217.919156 94.876938 
L 218.135665 102.56842 
L 218.243919 102.581992 
L 218.352173 220.846465 
L 218.460427 70.227141 
L 218.568682 115.181889 
L 218.78519 66.976766 
L 218.893444 136.23493 
L 219.001699 102.334923 
L 219.109953 172.281733 
L 219.218207 70.019849 
L 219.54297 154.465811 
L 219.651224 70.042212 
L 219.759479 89.947568 
L 219.867733 71.055842 
L 219.975987 71.538977 
L 220.084241 55.854145 
L 220.192496 56.225592 
L 220.409004 61.33224 
L 220.517258 112.884518 
L 220.625513 82.426678 
L 220.733767 176.090474 
L 220.842021 155.439763 
L 221.05853 62.003576 
L 221.275038 80.180088 
L 221.599801 82.008176 
L 221.81631 165.384304 
L 221.924564 91.114231 
L 222.141072 164.950132 
L 222.357581 103.307823 
L 222.465835 98.924034 
L 222.682344 130.674902 
L 222.790598 89.316785 
L 222.898852 203.302457 
L 223.115361 147.207375 
L 223.331869 179.324338 
L 223.440124 107.874688 
L 223.548378 197.843808 
L 223.656632 153.211388 
L 223.764886 192.42645 
L 223.873141 157.622696 
L 223.981395 173.255433 
L 224.089649 165.777089 
L 224.197904 174.970992 
L 224.306158 208.42643 
L 224.414412 167.020252 
L 224.522666 172.994723 
L 224.630921 192.370978 
L 224.739175 175.304462 
L 224.955683 180.881401 
L 225.063938 166.170475 
L 225.172192 202.856508 
L 225.280446 174.900578 
L 225.3887 204.572207 
L 225.496955 199.904265 
L 225.605209 203.08067 
L 225.713463 202.055569 
L 225.821718 179.545758 
L 225.929972 201.633443 
L 226.14648 199.808279 
L 226.254735 111.447026 
L 226.471243 214.114259 
L 226.687752 196.011687 
L 226.796006 195.138916 
L 226.90426 195.631928 
L 227.120769 193.473646 
L 227.229023 176.249608 
L 227.337277 194.316115 
L 227.445532 194.018598 
L 227.986803 191.424374 
L 228.095057 88.037695 
L 228.203311 158.078128 
L 228.311566 155.694486 
L 228.636328 120.602268 
L 228.744583 113.613584 
L 228.852837 115.151628 
L 228.961091 108.993782 
L 229.1776 120.110635 
L 229.285854 109.252191 
L 229.610617 191.409521 
L 229.718871 190.377556 
L 229.827125 173.735033 
L 229.93538 196.887161 
L 230.043634 172.86459 
L 230.151888 204.705591 
L 230.260142 124.161584 
L 230.368397 204.538923 
L 230.476651 155.61245 
L 230.69316 188.372397 
L 230.801414 121.75783 
L 230.909668 189.186608 
L 231.017922 164.628831 
L 231.126177 190.653086 
L 231.342685 71.685013 
L 231.450939 72.200775 
L 231.559194 89.671709 
L 231.667448 73.682958 
L 231.775702 126.044274 
L 231.883956 75.284374 
L 231.992211 211.871804 
L 232.100465 211.82245 
L 232.208719 77.138972 
L 232.316974 77.895035 
L 232.641736 79.99732 
L 232.749991 97.715246 
L 232.858245 81.505943 
L 232.966499 81.922888 
L 233.183008 83.257006 
L 233.399516 166.350355 
L 233.50777 84.934629 
L 233.832533 200.283032 
L 233.940788 98.90652 
L 234.157296 207.522822 
L 234.373805 208.793025 
L 234.590313 207.440027 
L 234.806822 86.504703 
L 235.02333 144.978478 
L 235.131584 140.341568 
L 235.348093 104.122609 
L 235.456347 87.007968 
L 235.672856 206.567857 
L 235.78111 196.177859 
L 235.889364 191.844153 
L 235.997619 163.201251 
L 236.105873 205.573114 
L 236.214127 193.884425 
L 236.322381 204.116771 
L 236.430636 203.604719 
L 236.53889 183.689908 
L 236.755398 200.594543 
L 236.863653 199.771053 
L 237.188416 197.188374 
L 237.946195 202.937065 
L 238.162704 196.338675 
L 238.920484 190.60727 
L 239.136992 195.421859 
L 239.245247 193.500935 
L 239.353501 92.863574 
L 239.570009 195.444851 
L 239.678264 194.862471 
L 239.894772 195.692689 
L 240.003026 165.025744 
L 240.111281 76.854165 
L 240.219535 195.753476 
L 240.327789 181.244982 
L 240.436044 198.197693 
L 240.544298 142.133858 
L 240.652552 196.49107 
L 240.760806 162.60921 
L 240.869061 214.683399 
L 240.977315 163.857711 
L 241.085569 197.64277 
L 241.193823 195.548885 
L 241.302078 200.846606 
L 241.410332 194.85821 
L 241.518586 181.234377 
L 241.62684 193.661702 
L 241.735095 191.558018 
L 241.843349 193.556655 
L 242.059858 191.848021 
L 242.168112 103.493804 
L 242.276366 190.77002 
L 242.38462 185.135659 
L 242.601129 190.61989 
L 242.709383 190.11227 
L 242.817637 70.895438 
L 243.034146 205.581763 
L 243.250654 172.141179 
L 243.467163 189.097577 
L 244.008434 187.788054 
L 244.333197 187.826273 
L 244.549706 187.523167 
L 245.199231 187.595177 
L 245.307486 118.127193 
L 245.41574 139.283816 
L 245.523994 109.178024 
L 245.632248 118.161863 
L 245.740503 117.176596 
L 245.848757 85.165962 
L 245.957011 189.245334 
L 246.065265 155.535108 
L 246.281774 189.245576 
L 246.9313 189.308484 
L 247.039554 187.753712 
L 247.256062 53.898818 
L 247.364317 189.27232 
L 247.472571 189.154105 
L 247.905588 189.098763 
L 248.122096 189.25793 
L 248.338605 189.056994 
L 248.555114 101.790889 
L 248.663368 187.895504 
L 248.771622 128.024449 
L 248.879876 187.881194 
L 248.988131 140.580246 
L 249.204639 188.053927 
L 249.421148 70.374906 
L 249.529402 53.568 
L 249.637656 70.353678 
L 249.74591 188.081113 
L 249.854165 187.785385 
L 249.962419 187.968997 
L 250.070673 86.777172 
L 250.178928 188.149363 
L 250.287182 114.0286 
L 250.395436 114.761605 
L 250.611945 117.40287 
L 250.720199 191.062518 
L 250.828453 118.322414 
L 250.936707 120.418615 
L 251.044962 177.044341 
L 251.26147 122.894646 
L 251.477979 124.531363 
L 251.694487 81.276037 
L 251.802742 200.010691 
L 251.910996 82.832013 
L 252.01925 83.248844 
L 252.127504 84.089294 
L 252.235759 117.280639 
L 252.344013 85.353771 
L 252.452267 178.588635 
L 252.560521 87.107433 
L 252.668776 150.227511 
L 252.77703 142.774434 
L 252.993538 86.815517 
L 253.318301 84.849018 
L 253.426556 85.687573 
L 253.53481 68.311969 
L 253.751318 88.052662 
L 254.076081 89.907719 
L 254.29259 90.903966 
L 254.509098 92.22091 
L 255.158624 96.340286 
L 255.266878 143.594702 
L 255.375132 122.890267 
L 255.483387 150.390408 
L 255.591641 137.5957 
L 255.699895 104.913566 
L 255.808149 174.773951 
L 255.916404 145.133768 
L 256.024658 192.057706 
L 256.132912 179.158017 
L 256.241166 221.605359 
L 256.349421 139.643624 
L 256.565929 224.170651 
L 256.998946 221.460634 
L 257.107201 216.487791 
L 257.215455 220.195665 
L 257.323709 156.090779 
L 257.431963 162.395888 
L 257.540218 199.834141 
L 257.648472 108.583643 
L 257.756726 220.119391 
L 257.86498 219.80451 
L 258.081489 218.176584 
L 258.189743 205.234737 
L 258.514506 81.045774 
L 258.62276 155.241405 
L 258.731015 82.858236 
L 258.839269 134.839936 
L 258.947523 84.497401 
L 259.164032 220.107743 
L 259.272286 99.233497 
L 259.488794 222.825744 
L 259.705303 89.658106 
L 259.813557 208.727913 
L 259.921812 167.955677 
L 260.13832 194.085671 
L 260.246574 211.039187 
L 260.354829 109.810211 
L 260.463083 110.296605 
L 260.571337 111.115848 
L 260.679591 182.946402 
L 260.787846 112.753717 
L 260.8961 113.239324 
L 261.112608 200.12468 
L 261.220863 119.690288 
L 261.329117 194.243447 
L 261.437371 100.144746 
L 261.545626 117.301374 
L 261.65388 236.411311 
L 261.762134 221.129953 
L 261.870388 236.758425 
L 261.978643 220.485955 
L 262.086897 237.774739 
L 262.195151 163.418642 
L 262.303405 237.551006 
L 262.41166 119.665483 
L 262.519914 120.054883 
L 262.628168 119.639144 
L 262.736422 153.950099 
L 262.844677 123.143809 
L 262.952931 232.044068 
L 263.16944 123.457284 
L 263.385948 186.477251 
L 263.494202 152.732644 
L 263.602457 176.015735 
L 263.710711 244.405305 
L 264.035474 209.034076 
L 264.143728 241.460989 
L 264.251982 207.7045 
L 264.360236 121.338969 
L 264.576745 205.170357 
L 264.793254 237.308208 
L 265.334525 233.022897 
L 265.442779 168.39357 
L 265.551033 229.97002 
L 265.659288 229.138878 
L 266.308813 224.444893 
L 266.417068 256.844313 
L 266.633576 222.026216 
L 267.283102 217.173884 
L 267.391356 217.35696 
L 267.49961 216.768284 
L 267.716119 215.069542 
L 268.040882 212.516811 
L 268.149136 212.54987 
L 268.365644 210.637051 
L 268.582153 242.475989 
L 268.690407 239.542594 
L 268.798661 240.822677 
L 268.906916 239.818245 
L 269.01517 205.689458 
L 269.123424 206.899036 
L 269.231678 204.025297 
L 269.339933 178.10185 
L 269.448187 199.24205 
L 269.556441 152.104727 
L 269.77295 204.623658 
L 270.097713 148.044111 
L 270.205967 98.8659 
L 270.314221 203.776346 
L 270.422475 180.806392 
L 270.53073 202.990661 
L 270.638984 173.394389 
L 270.747238 87.036248 
L 270.855492 226.838612 
L 270.963747 203.418706 
L 271.072001 234.704636 
L 271.180255 217.72978 
L 271.28851 168.317946 
L 271.396764 233.377891 
L 271.505018 228.733809 
L 271.613272 232.875406 
L 271.829781 85.163288 
L 272.046289 199.486321 
L 272.479306 195.738854 
L 272.587561 123.32346 
L 272.695815 124.869823 
L 272.804069 114.232639 
L 272.912324 77.135682 
L 273.020578 82.104266 
L 273.345341 111.688918 
L 273.453595 106.204171 
L 273.561849 133.29576 
L 273.670103 117.339967 
L 273.778358 152.907852 
L 273.886612 152.243039 
L 273.994866 179.168385 
L 274.10312 149.88838 
L 274.211375 170.9518 
L 274.319629 126.189492 
L 274.427883 193.009115 
L 274.536138 178.832648 
L 274.8609 83.834757 
L 274.969155 83.37229 
L 275.077409 86.568107 
L 275.185663 116.740493 
L 275.402172 200.279932 
L 275.61868 138.30015 
L 275.726934 173.099468 
L 275.835189 142.730119 
L 276.051697 177.825268 
L 276.159951 162.309894 
L 276.268206 208.300539 
L 276.37646 171.59179 
L 276.484714 183.262807 
L 276.592969 207.801059 
L 276.809477 134.713283 
L 277.025986 160.61249 
L 277.13424 147.693132 
L 277.242494 152.218061 
L 277.350748 132.476828 
L 277.459003 209.584117 
L 277.783765 150.844333 
L 278.000274 209.452524 
L 278.108528 209.148282 
L 278.325037 214.744729 
L 278.433291 215.250009 
L 278.6498 205.310594 
L 278.758054 204.485289 
L 278.866308 180.555683 
L 278.974562 194.907488 
L 279.082817 163.878951 
L 279.299325 198.896627 
L 279.624088 217.773068 
L 279.840597 206.98808 
L 279.948851 210.409477 
L 280.490122 206.035982 
L 280.598376 213.372028 
L 281.572665 206.152963 
L 281.680919 205.663118 
L 282.113936 201.876481 
L 282.871716 195.94839 
L 282.97997 196.005916 
L 283.304733 196.0656 
L 283.846004 196.062653 
L 284.062513 167.672506 
L 284.712039 195.729647 
L 284.928547 211.67755 
L 285.036801 216.079941 
L 285.145056 211.805052 
L 285.25331 217.696384 
L 285.361564 194.317946 
L 285.686327 216.363974 
L 285.794581 215.458585 
L 286.01109 193.117204 
L 286.119344 216.373328 
L 286.227598 206.464199 
L 286.335853 208.344615 
L 286.444107 182.062257 
L 286.552361 206.932972 
L 286.660615 200.233236 
L 286.76887 204.240315 
L 286.877124 201.482598 
L 286.985378 202.79506 
L 287.201887 210.595411 
L 287.310141 209.238186 
L 287.418395 204.944856 
L 287.526649 209.732353 
L 287.743158 203.077308 
L 287.851412 214.501628 
L 287.959667 188.143445 
L 288.176175 205.889152 
L 288.392684 208.013373 
L 288.500938 171.576034 
L 288.609192 208.94797 
L 288.717446 175.891797 
L 288.825701 179.96946 
L 288.933955 129.797474 
L 289.150463 167.022868 
L 289.258718 177.517986 
L 289.366972 174.673641 
L 289.475226 164.305421 
L 289.691735 177.009734 
L 290.233006 173.488118 
L 290.34126 206.052882 
L 290.449515 205.560397 
L 291.748566 199.360986 
L 292.289837 196.153194 
L 292.506346 196.394176 
L 292.6146 196.406704 
L 292.831109 195.312365 
L 293.047617 195.312365 
L 293.264126 194.742897 
L 293.37238 194.657342 
L 293.588888 193.76939 
L 293.697143 193.876516 
L 293.805397 193.840292 
L 294.13016 192.680728 
L 294.346668 192.692563 
L 294.454923 193.6327 
L 295.212702 190.432723 
L 295.320957 187.57072 
L 295.429211 189.759236 
L 295.537465 149.521057 
L 295.753974 189.255805 
L 295.970482 191.948612 
L 296.186991 190.96279 
L 296.295245 185.793986 
L 296.511754 190.481139 
L 296.944771 188.497939 
L 297.053025 157.705646 
L 297.269533 188.331738 
L 297.486042 188.143441 
L 298.568585 188.23623 
L 298.676839 182.92936 
L 298.785093 184.253261 
L 299.001602 188.1095 
L 300.625416 188.120523 
L 300.73367 188.075138 
L 300.841924 181.857891 
L 300.950179 188.08663 
L 301.058433 188.080879 
L 301.599704 188.109517 
L 301.707958 183.273141 
L 301.924467 188.126541 
L 302.032721 163.844014 
L 302.24923 188.143456 
L 303.981298 188.143456 
L 304.089552 188.491788 
L 304.306061 188.177475 
L 304.414315 188.143456 
L 304.522569 174.309346 
L 304.630824 188.223727 
L 304.739078 188.166083 
L 304.955586 188.183365 
L 305.172095 188.126542 
L 305.280349 184.276046 
L 305.496858 188.132192 
L 305.605112 154.375907 
L 305.821621 188.143456 
L 306.254638 188.143456 
L 306.471146 188.23996 
L 306.5794 220.00087 
L 306.795909 188.143456 
L 307.012417 188.143461 
L 307.120672 159.441185 
L 307.33718 188.143456 
L 307.445435 188.143456 
L 307.661943 108.914565 
L 307.878452 68.194167 
L 307.986706 156.680271 
L 308.203214 71.429038 
L 308.419723 68.194167 
L 308.636231 68.194167 
L 308.744486 135.175032 
L 308.960994 68.194167 
L 309.61052 68.194167 
L 309.935283 188.143463 
L 310.151791 117.889583 
L 310.260045 172.737662 
L 310.3683 152.792935 
L 310.476554 160.272208 
L 310.584808 181.047965 
L 310.693063 157.779117 
L 310.909571 175.230753 
L 311.12608 163.596329 
L 311.342588 188.143456 
L 311.559097 149.468814 
L 311.667351 166.92045 
L 311.883859 140.32748 
L 312.100368 188.143456 
L 312.208622 169.413541 
L 312.316877 188.143456 
L 312.533385 182.710026 
L 312.966402 188.143456 
L 313.615928 188.143456 
L 313.724182 181.047965 
L 313.940691 188.143456 
L 314.373708 188.143456 
L 314.481962 156.183871 
L 314.69847 175.230753 
L 314.806725 180.216935 
L 314.914979 117.956398 
L 315.131487 188.143456 
L 315.347996 110.189698 
L 315.564505 175.563175 
L 315.781013 188.143458 
L 315.889267 157.039934 
L 316.105776 188.143455 
L 316.21403 176.394208 
L 316.430539 96.848255 
L 316.647047 87.585664 
L 316.863556 188.143454 
L 316.97181 179.452724 
L 317.188319 71.495852 
L 317.296573 157.325382 
L 317.513081 71.473913 
L 317.621336 109.601631 
L 317.72959 187.609233 
L 317.837844 156.280438 
L 317.946098 178.932131 
L 318.054353 71.47391 
L 318.162607 114.012328 
L 318.270861 107.67781 
L 318.379115 69.132315 
L 318.595624 72.374899 
L 318.703878 72.873517 
L 318.812133 159.09548 
L 318.920387 114.248495 
L 319.028641 115.079525 
L 319.24515 116.741586 
L 319.461658 153.639413 
L 319.678167 198.968237 
L 319.786421 166.44437 
L 319.894675 200.630297 
L 320.002929 112.515541 
L 320.219438 195.858895 
L 320.435947 194.196834 
L 320.544201 191.467577 
L 320.652455 183.157274 
L 320.868964 194.196834 
L 321.085472 192.534774 
L 321.193726 193.365804 
L 321.301981 162.352209 
L 321.410235 163.164833 
L 321.734998 160.671742 
L 321.843252 191.703744 
L 321.951506 159.009682 
L 322.059761 190.041341 
L 322.384523 188.078977 
L 324.116592 188.458282 
L 326.60644 188.372983 
L 326.822948 168.442769 
L 327.039457 188.356195 
L 327.905491 188.320559 
L 328.013745 181.52427 
L 328.121999 188.311234 
L 328.230254 183.509273 
L 328.446762 155.577028 
L 328.555017 153.743877 
L 328.771525 141.102241 
L 328.879779 148.908844 
L 328.988034 188.271735 
L 329.096288 151.225452 
L 329.204542 154.378181 
L 329.312796 144.899072 
L 329.529305 188.388715 
L 329.637559 188.23983 
L 329.745813 148.201514 
L 329.962322 188.223077 
L 330.178831 136.876805 
L 330.287085 143.685399 
L 330.503593 189.168316 
L 330.611848 188.663653 
L 330.720102 189.156152 
L 330.828356 128.341411 
L 331.044865 188.30633 
L 331.153119 126.350728 
L 331.261373 188.150002 
L 331.369627 183.678679 
L 331.586136 188.143431 
L 331.69439 180.686985 
L 331.802645 143.124461 
L 331.910899 188.143438 
L 332.127407 147.113383 
L 332.235662 187.002828 
L 332.343916 178.692522 
L 332.45217 188.143447 
L 332.560424 170.193235 
L 332.668679 185.650354 
L 332.776933 180.49797 
L 332.885187 148.918861 
L 333.101696 189.782714 
L 333.20995 168.863578 
L 333.426459 182.492445 
L 333.534713 177.672465 
L 333.642967 178.503496 
L 333.859476 192.608208 
L 334.509001 188.143456 
L 339.272189 188.143456 
L 339.488697 187.845665 
L 339.705206 187.979376 
L 339.921715 188.169269 
L 342.195054 188.143447 
L 344.251885 188.143456 
L 344.576648 136.217201 
L 345.009665 188.143456 
L 345.659191 188.143456 
L 345.875699 166.134295 
L 346.092208 188.143456 
L 346.308716 188.143456 
L 346.416971 181.092841 
L 346.525225 166.134295 
L 346.633479 183.585932 
L 346.741733 178.76597 
L 346.958242 188.143456 
L 347.17475 158.488841 
L 347.283005 155.730144 
L 347.391259 183.419726 
L 347.607767 159.386662 
L 347.716022 164.040431 
L 347.93253 183.652746 
L 348.149039 188.143456 
L 349.556344 188.143456 
L 349.664599 181.990686 
L 349.881107 188.143456 
L 350.747141 188.143456 
L 350.855395 179.09839 
L 351.071904 188.143457 
L 355.726837 188.143456 
L 355.835092 190.319402 
L 356.0516 188.143456 
L 356.268109 188.143456 
L 356.376363 190.860655 
L 356.484617 188.967163 
L 356.701126 220.611474 
L 356.80938 221.771102 
L 356.917634 224.18729 
L 357.025889 219.993493 
L 357.242397 188.143456 
L 357.350651 188.143456 
L 357.458906 185.974186 
L 357.56716 157.396514 
L 357.783668 187.953401 
L 357.891923 188.748661 
L 358.000177 184.135461 
L 358.108431 156.233287 
L 358.32494 158.899445 
L 358.433194 117.864442 
L 358.541448 187.953401 
L 358.649703 187.127139 
L 358.757957 187.127139 
L 358.974465 188.143456 
L 360.598279 188.143456 
L 360.706534 190.730643 
L 360.923042 188.143456 
L 361.680822 188.143456 
L 361.897331 149.661911 
L 362.005585 186.244033 
L 362.113839 152.487315 
L 362.222093 160.246258 
L 362.330348 157.920418 
L 362.438602 203.198915 
L 362.65511 157.920663 
L 362.763365 157.488747 
L 362.871619 216.075407 
L 363.088128 140.822314 
L 363.196382 200.486419 
L 363.41289 173.644818 
L 363.737653 188.143518 
L 363.845907 188.14361 
L 363.954162 179.455594 
L 364.062416 183.61093 
L 364.278924 175.300235 
L 364.495433 185.273201 
L 364.603687 174.469255 
L 364.711942 178.624687 
L 364.92845 189.351903 
L 365.144959 188.107832 
L 365.253213 188.105578 
L 365.361467 172.194078 
L 365.469721 216.571672 
L 365.577976 186.348494 
L 365.68623 218.798539 
L 365.794484 218.366554 
L 365.902738 187.269135 
L 366.010993 220.749067 
L 366.119247 188.575385 
L 366.227501 217.648554 
L 366.44401 142.456492 
L 366.660518 181.967745 
L 366.768773 172.615697 
L 366.877027 160.821356 
L 367.20179 172.970683 
L 367.310044 186.744428 
L 367.418298 71.776894 
L 367.634807 221.855126 
L 367.851315 124.337913 
L 367.95957 219.90537 
L 368.176078 188.143456 
L 368.609095 188.143456 
L 368.825604 219.90537 
L 368.933858 118.771212 
L 369.042112 177.80974 
L 369.150366 118.771212 
L 369.258621 219.766265 
L 369.366875 188.143456 
L 369.475129 220.012306 
L 369.691638 188.143456 
L 369.799892 188.143456 
L 369.908146 220.234326 
L 370.016401 219.374451 
L 370.124655 220.982349 
L 370.232909 220.039156 
L 370.341163 220.283495 
L 370.449418 105.814794 
L 370.665926 188.143455 
L 371.315452 188.143454 
L 371.53196 188.535268 
L 371.640215 185.727401 
L 371.856723 154.104587 
L 371.964977 156.912455 
L 372.181486 188.143456 
L 373.8053 188.143456 
L 373.913554 187.661859 
L 374.021808 183.059171 
L 374.130063 188.084088 
L 374.346571 219.395703 
L 374.454826 188.110763 
L 374.56308 199.528722 
L 374.779588 188.060847 
L 375.104351 188.115853 
L 375.645622 188.129722 
L 375.862131 188.187142 
L 375.970385 219.47227 
L 376.295148 177.918873 
L 376.403402 173.756795 
L 376.619911 142.455583 
L 376.728165 143.286613 
L 376.836419 140.793522 
L 376.944674 149.934856 
L 377.052928 149.103825 
L 377.269436 150.765886 
L 377.377691 153.258977 
L 377.702454 127.497022 
L 377.810708 136.638368 
L 378.027216 119.167862 
L 379.001505 126.647134 
L 379.109759 105.196758 
L 379.218013 106.605057 
L 379.326268 105.694436 
L 379.542776 98.882697 
L 379.65103 110.500217 
L 379.759285 100.527844 
L 379.975793 153.572611 
L 380.192302 123.323121 
L 380.40881 158.226365 
L 380.517064 161.550486 
L 380.625319 161.051871 
L 380.733573 139.943726 
L 381.058336 143.600254 
L 381.16659 141.938193 
L 381.274844 142.603016 
L 381.491353 147.589193 
L 381.599607 142.270598 
L 381.816116 142.602993 
L 382.032624 134.292691 
L 382.140878 136.287162 
L 382.465641 166.869081 
L 382.573896 190.636542 
L 382.68215 185.484172 
L 382.790404 221.753873 
L 382.898658 221.319093 
L 383.006913 106.852148 
L 383.115167 120.483804 
L 383.331675 188.067571 
L 383.43993 126.67043 
L 383.656438 170.408507 
L 383.872947 141.421552 
L 383.981201 144.488165 
L 384.089455 162.111449 
L 384.305964 221.598653 
L 384.414218 201.342346 
L 384.522472 207.327839 
L 384.738981 224.598543 
L 384.955489 226.264559 
L 385.063744 225.786611 
L 385.171998 226.830573 
L 385.388506 144.584211 
L 385.496761 147.582935 
L 385.713269 178.211539 
L 385.821524 235.852782 
L 385.929778 229.785319 
L 386.146286 198.860288 
L 386.471049 113.048981 
L 386.579303 117.27695 
L 386.687558 114.387731 
L 386.795812 118.279578 
L 386.904066 115.390617 
L 387.01232 116.227669 
L 387.120575 120.442901 
L 387.228829 117.886576 
L 387.337083 122.099515 
L 387.445338 119.209683 
L 387.553592 123.091043 
L 387.661846 120.196634 
L 387.986609 122.348893 
L 388.203117 239.701981 
L 388.311372 240.555303 
L 388.419626 274.257559 
L 388.52788 273.196278 
L 388.636134 231.7992 
L 388.744389 274.684309 
L 388.960897 163.441111 
L 389.069152 152.65151 
L 389.177406 190.174829 
L 389.28566 155.869009 
L 389.393914 214.975107 
L 389.610423 177.328512 
L 389.826931 173.203994 
L 389.935186 176.298515 
L 390.368203 171.024041 
L 390.476457 172.504676 
L 390.584711 203.681423 
L 390.692966 187.527133 
L 390.80122 250.278699 
L 391.125983 166.839485 
L 391.234237 168.108097 
L 391.667254 170.772129 
L 391.883762 171.76693 
L 391.992017 203.04676 
L 392.31678 189.104217 
L 392.425034 179.090873 
L 392.533288 190.133327 
L 392.641542 187.166258 
L 392.749797 188.801122 
L 393.291068 254.317046 
L 393.399322 174.784406 
L 393.507576 234.309681 
L 393.615831 170.285151 
L 393.724085 281.60012 
L 393.832339 254.994966 
L 393.940594 162.280735 
L 394.048848 163.115179 
L 394.157102 163.949725 
L 394.265356 253.075961 
L 394.481865 208.088094 
L 394.698373 249.997312 
L 394.806628 244.2261 
L 394.914882 248.667667 
L 395.023136 247.836641 
L 395.239645 149.916066 
L 395.347899 147.422975 
L 395.456153 150.747093 
L 395.564408 170.193156 
L 395.672662 248.833877 
L 395.780916 202.10467 
L 395.997425 248.00285 
L 396.213933 246.340797 
L 396.322187 214.237625 
L 396.538696 246.389302 
L 396.64695 232.944116 
L 396.755204 274.329912 
L 396.971713 124.650386 
L 397.296476 227.154269 
L 397.40473 128.828283 
L 397.621239 212.701461 
L 397.729493 243.208907 
L 397.837747 197.832014 
L 397.946001 246.305015 
L 398.054256 245.79765 
L 398.16251 245.140964 
L 398.270764 260.840395 
L 398.379018 234.57993 
L 398.487273 255.404144 
L 398.487273 255.404144 
" clip-path="url(#p39286ff7ee)" style="fill: none; stroke: #1f77b4; stroke-width: 1.5; stroke-linecap: square"/>
   </g>
   <g id="patch_3">
    <path d="M 57.6 307.584 
L 57.6 41.472 
" style="fill: none; stroke: #000000; stroke-width: 0.8; stroke-linejoin: miter; stroke-linecap: square"/>
   </g>
   <g id="patch_4">
    <path d="M 414.72 307.584 
L 414.72 41.472 
" style="fill: none; stroke: #000000; stroke-width: 0.8; stroke-linejoin: miter; stroke-linecap: square"/>
   </g>
   <g id="patch_5">
    <path d="M 57.6 307.584 
L 414.72 307.584 
" style="fill: none; stroke: #000000; stroke-width: 0.8; stroke-linejoin: miter; stroke-linecap: square"/>
   </g>
   <g id="patch_6">
    <path d="M 57.6 41.472 
L 414.72 41.472 
" style="fill: none; stroke: #000000; stroke-width: 0.8; stroke-linejoin: miter; stroke-linecap: square"/>
   </g>
  </g>
 </g>
 <defs>
  <clipPath id="p39286ff7ee">
   <rect x="57.6" y="41.472" width="357.12" height="266.112"/>
  </clipPath>
 </defs>
</svg>
