<?xml version="1.0" encoding="utf-8" standalone="no"?>
<!DOCTYPE svg PUBLIC "-//W3C//DTD SVG 1.1//EN"
  "http://www.w3.org/Graphics/SVG/1.1/DTD/svg11.dtd">
<svg xmlns:xlink="http://www.w3.org/1999/xlink" width="460.8pt" height="345.6pt" viewBox="0 0 460.8 345.6" xmlns="http://www.w3.org/2000/svg" version="1.1">
 <metadata>
  <rdf:RDF xmlns:dc="http://purl.org/dc/elements/1.1/" xmlns:cc="http://creativecommons.org/ns#" xmlns:rdf="http://www.w3.org/1999/02/22-rdf-syntax-ns#">
   <cc:Work>
    <dc:type rdf:resource="http://purl.org/dc/dcmitype/StillImage"/>
    <dc:date>2024-04-23T14:03:15.068264</dc:date>
    <dc:format>image/svg+xml</dc:format>
    <dc:creator>
     <cc:Agent>
      <dc:title>Matplotlib v3.7.2, https://matplotlib.org/</dc:title>
     </cc:Agent>
    </dc:creator>
   </cc:Work>
  </rdf:RDF>
 </metadata>
 <defs>
  <style type="text/css">*{stroke-linejoin: round; stroke-linecap: butt}</style>
 </defs>
 <g id="figure_1">
  <g id="patch_1">
   <path d="M 0 345.6 
L 460.8 345.6 
L 460.8 0 
L 0 0 
z
" style="fill: #ffffff"/>
  </g>
  <g id="axes_1">
   <g id="patch_2">
    <path d="M 57.6 307.584 
L 414.72 307.584 
L 414.72 41.472 
L 57.6 41.472 
z
" style="fill: #ffffff"/>
   </g>
   <g id="matplotlib.axis_1">
    <g id="xtick_1">
     <g id="line2d_1">
      <defs>
       <path id="m63f040841c" d="M 0 0 
L 0 3.5 
" style="stroke: #000000; stroke-width: 0.8"/>
      </defs>
      <g>
       <use xlink:href="#m63f040841c" x="73.832727" y="307.584" style="stroke: #000000; stroke-width: 0.8"/>
      </g>
     </g>
     <g id="text_1">
      <!-- 0 -->
      <g transform="translate(70.651477 322.182437) scale(0.1 -0.1)">
       <defs>
        <path id="DejaVuSans-30" d="M 2034 4250 
Q 1547 4250 1301 3770 
Q 1056 3291 1056 2328 
Q 1056 1369 1301 889 
Q 1547 409 2034 409 
Q 2525 409 2770 889 
Q 3016 1369 3016 2328 
Q 3016 3291 2770 3770 
Q 2525 4250 2034 4250 
z
M 2034 4750 
Q 2819 4750 3233 4129 
Q 3647 3509 3647 2328 
Q 3647 1150 3233 529 
Q 2819 -91 2034 -91 
Q 1250 -91 836 529 
Q 422 1150 422 2328 
Q 422 3509 836 4129 
Q 1250 4750 2034 4750 
z
" transform="scale(0.015625)"/>
       </defs>
       <use xlink:href="#DejaVuSans-30"/>
      </g>
     </g>
    </g>
    <g id="xtick_2">
     <g id="line2d_2">
      <g>
       <use xlink:href="#m63f040841c" x="138.828632" y="307.584" style="stroke: #000000; stroke-width: 0.8"/>
      </g>
     </g>
     <g id="text_2">
      <!-- 200 -->
      <g transform="translate(129.284882 322.182437) scale(0.1 -0.1)">
       <defs>
        <path id="DejaVuSans-32" d="M 1228 531 
L 3431 531 
L 3431 0 
L 469 0 
L 469 531 
Q 828 903 1448 1529 
Q 2069 2156 2228 2338 
Q 2531 2678 2651 2914 
Q 2772 3150 2772 3378 
Q 2772 3750 2511 3984 
Q 2250 4219 1831 4219 
Q 1534 4219 1204 4116 
Q 875 4013 500 3803 
L 500 4441 
Q 881 4594 1212 4672 
Q 1544 4750 1819 4750 
Q 2544 4750 2975 4387 
Q 3406 4025 3406 3419 
Q 3406 3131 3298 2873 
Q 3191 2616 2906 2266 
Q 2828 2175 2409 1742 
Q 1991 1309 1228 531 
z
" transform="scale(0.015625)"/>
       </defs>
       <use xlink:href="#DejaVuSans-32"/>
       <use xlink:href="#DejaVuSans-30" x="63.623047"/>
       <use xlink:href="#DejaVuSans-30" x="127.246094"/>
      </g>
     </g>
    </g>
    <g id="xtick_3">
     <g id="line2d_3">
      <g>
       <use xlink:href="#m63f040841c" x="203.824537" y="307.584" style="stroke: #000000; stroke-width: 0.8"/>
      </g>
     </g>
     <g id="text_3">
      <!-- 400 -->
      <g transform="translate(194.280787 322.182437) scale(0.1 -0.1)">
       <defs>
        <path id="DejaVuSans-34" d="M 2419 4116 
L 825 1625 
L 2419 1625 
L 2419 4116 
z
M 2253 4666 
L 3047 4666 
L 3047 1625 
L 3713 1625 
L 3713 1100 
L 3047 1100 
L 3047 0 
L 2419 0 
L 2419 1100 
L 313 1100 
L 313 1709 
L 2253 4666 
z
" transform="scale(0.015625)"/>
       </defs>
       <use xlink:href="#DejaVuSans-34"/>
       <use xlink:href="#DejaVuSans-30" x="63.623047"/>
       <use xlink:href="#DejaVuSans-30" x="127.246094"/>
      </g>
     </g>
    </g>
    <g id="xtick_4">
     <g id="line2d_4">
      <g>
       <use xlink:href="#m63f040841c" x="268.820442" y="307.584" style="stroke: #000000; stroke-width: 0.8"/>
      </g>
     </g>
     <g id="text_4">
      <!-- 600 -->
      <g transform="translate(259.276692 322.182437) scale(0.1 -0.1)">
       <defs>
        <path id="DejaVuSans-36" d="M 2113 2584 
Q 1688 2584 1439 2293 
Q 1191 2003 1191 1497 
Q 1191 994 1439 701 
Q 1688 409 2113 409 
Q 2538 409 2786 701 
Q 3034 994 3034 1497 
Q 3034 2003 2786 2293 
Q 2538 2584 2113 2584 
z
M 3366 4563 
L 3366 3988 
Q 3128 4100 2886 4159 
Q 2644 4219 2406 4219 
Q 1781 4219 1451 3797 
Q 1122 3375 1075 2522 
Q 1259 2794 1537 2939 
Q 1816 3084 2150 3084 
Q 2853 3084 3261 2657 
Q 3669 2231 3669 1497 
Q 3669 778 3244 343 
Q 2819 -91 2113 -91 
Q 1303 -91 875 529 
Q 447 1150 447 2328 
Q 447 3434 972 4092 
Q 1497 4750 2381 4750 
Q 2619 4750 2861 4703 
Q 3103 4656 3366 4563 
z
" transform="scale(0.015625)"/>
       </defs>
       <use xlink:href="#DejaVuSans-36"/>
       <use xlink:href="#DejaVuSans-30" x="63.623047"/>
       <use xlink:href="#DejaVuSans-30" x="127.246094"/>
      </g>
     </g>
    </g>
    <g id="xtick_5">
     <g id="line2d_5">
      <g>
       <use xlink:href="#m63f040841c" x="333.816347" y="307.584" style="stroke: #000000; stroke-width: 0.8"/>
      </g>
     </g>
     <g id="text_5">
      <!-- 800 -->
      <g transform="translate(324.272597 322.182437) scale(0.1 -0.1)">
       <defs>
        <path id="DejaVuSans-38" d="M 2034 2216 
Q 1584 2216 1326 1975 
Q 1069 1734 1069 1313 
Q 1069 891 1326 650 
Q 1584 409 2034 409 
Q 2484 409 2743 651 
Q 3003 894 3003 1313 
Q 3003 1734 2745 1975 
Q 2488 2216 2034 2216 
z
M 1403 2484 
Q 997 2584 770 2862 
Q 544 3141 544 3541 
Q 544 4100 942 4425 
Q 1341 4750 2034 4750 
Q 2731 4750 3128 4425 
Q 3525 4100 3525 3541 
Q 3525 3141 3298 2862 
Q 3072 2584 2669 2484 
Q 3125 2378 3379 2068 
Q 3634 1759 3634 1313 
Q 3634 634 3220 271 
Q 2806 -91 2034 -91 
Q 1263 -91 848 271 
Q 434 634 434 1313 
Q 434 1759 690 2068 
Q 947 2378 1403 2484 
z
M 1172 3481 
Q 1172 3119 1398 2916 
Q 1625 2713 2034 2713 
Q 2441 2713 2670 2916 
Q 2900 3119 2900 3481 
Q 2900 3844 2670 4047 
Q 2441 4250 2034 4250 
Q 1625 4250 1398 4047 
Q 1172 3844 1172 3481 
z
" transform="scale(0.015625)"/>
       </defs>
       <use xlink:href="#DejaVuSans-38"/>
       <use xlink:href="#DejaVuSans-30" x="63.623047"/>
       <use xlink:href="#DejaVuSans-30" x="127.246094"/>
      </g>
     </g>
    </g>
    <g id="xtick_6">
     <g id="line2d_6">
      <g>
       <use xlink:href="#m63f040841c" x="398.812252" y="307.584" style="stroke: #000000; stroke-width: 0.8"/>
      </g>
     </g>
     <g id="text_6">
      <!-- 1000 -->
      <g transform="translate(386.087252 322.182437) scale(0.1 -0.1)">
       <defs>
        <path id="DejaVuSans-31" d="M 794 531 
L 1825 531 
L 1825 4091 
L 703 3866 
L 703 4441 
L 1819 4666 
L 2450 4666 
L 2450 531 
L 3481 531 
L 3481 0 
L 794 0 
L 794 531 
z
" transform="scale(0.015625)"/>
       </defs>
       <use xlink:href="#DejaVuSans-31"/>
       <use xlink:href="#DejaVuSans-30" x="63.623047"/>
       <use xlink:href="#DejaVuSans-30" x="127.246094"/>
       <use xlink:href="#DejaVuSans-30" x="190.869141"/>
      </g>
     </g>
    </g>
   </g>
   <g id="matplotlib.axis_2">
    <g id="ytick_1">
     <g id="line2d_7">
      <defs>
       <path id="m725a221d0e" d="M 0 0 
L -3.5 0 
" style="stroke: #000000; stroke-width: 0.8"/>
      </defs>
      <g>
       <use xlink:href="#m725a221d0e" x="57.6" y="295.488" style="stroke: #000000; stroke-width: 0.8"/>
      </g>
     </g>
     <g id="text_7">
      <!-- 0 -->
      <g transform="translate(44.2375 299.287219) scale(0.1 -0.1)">
       <use xlink:href="#DejaVuSans-30"/>
      </g>
     </g>
    </g>
    <g id="ytick_2">
     <g id="line2d_8">
      <g>
       <use xlink:href="#m725a221d0e" x="57.6" y="263.870125" style="stroke: #000000; stroke-width: 0.8"/>
      </g>
     </g>
     <g id="text_8">
      <!-- 2500 -->
      <g transform="translate(25.15 267.669344) scale(0.1 -0.1)">
       <defs>
        <path id="DejaVuSans-35" d="M 691 4666 
L 3169 4666 
L 3169 4134 
L 1269 4134 
L 1269 2991 
Q 1406 3038 1543 3061 
Q 1681 3084 1819 3084 
Q 2600 3084 3056 2656 
Q 3513 2228 3513 1497 
Q 3513 744 3044 326 
Q 2575 -91 1722 -91 
Q 1428 -91 1123 -41 
Q 819 9 494 109 
L 494 744 
Q 775 591 1075 516 
Q 1375 441 1709 441 
Q 2250 441 2565 725 
Q 2881 1009 2881 1497 
Q 2881 1984 2565 2268 
Q 2250 2553 1709 2553 
Q 1456 2553 1204 2497 
Q 953 2441 691 2322 
L 691 4666 
z
" transform="scale(0.015625)"/>
       </defs>
       <use xlink:href="#DejaVuSans-32"/>
       <use xlink:href="#DejaVuSans-35" x="63.623047"/>
       <use xlink:href="#DejaVuSans-30" x="127.246094"/>
       <use xlink:href="#DejaVuSans-30" x="190.869141"/>
      </g>
     </g>
    </g>
    <g id="ytick_3">
     <g id="line2d_9">
      <g>
       <use xlink:href="#m725a221d0e" x="57.6" y="232.25225" style="stroke: #000000; stroke-width: 0.8"/>
      </g>
     </g>
     <g id="text_9">
      <!-- 5000 -->
      <g transform="translate(25.15 236.051469) scale(0.1 -0.1)">
       <use xlink:href="#DejaVuSans-35"/>
       <use xlink:href="#DejaVuSans-30" x="63.623047"/>
       <use xlink:href="#DejaVuSans-30" x="127.246094"/>
       <use xlink:href="#DejaVuSans-30" x="190.869141"/>
      </g>
     </g>
    </g>
    <g id="ytick_4">
     <g id="line2d_10">
      <g>
       <use xlink:href="#m725a221d0e" x="57.6" y="200.634375" style="stroke: #000000; stroke-width: 0.8"/>
      </g>
     </g>
     <g id="text_10">
      <!-- 7500 -->
      <g transform="translate(25.15 204.433594) scale(0.1 -0.1)">
       <defs>
        <path id="DejaVuSans-37" d="M 525 4666 
L 3525 4666 
L 3525 4397 
L 1831 0 
L 1172 0 
L 2766 4134 
L 525 4134 
L 525 4666 
z
" transform="scale(0.015625)"/>
       </defs>
       <use xlink:href="#DejaVuSans-37"/>
       <use xlink:href="#DejaVuSans-35" x="63.623047"/>
       <use xlink:href="#DejaVuSans-30" x="127.246094"/>
       <use xlink:href="#DejaVuSans-30" x="190.869141"/>
      </g>
     </g>
    </g>
    <g id="ytick_5">
     <g id="line2d_11">
      <g>
       <use xlink:href="#m725a221d0e" x="57.6" y="169.0165" style="stroke: #000000; stroke-width: 0.8"/>
      </g>
     </g>
     <g id="text_11">
      <!-- 10000 -->
      <g transform="translate(18.7875 172.815719) scale(0.1 -0.1)">
       <use xlink:href="#DejaVuSans-31"/>
       <use xlink:href="#DejaVuSans-30" x="63.623047"/>
       <use xlink:href="#DejaVuSans-30" x="127.246094"/>
       <use xlink:href="#DejaVuSans-30" x="190.869141"/>
       <use xlink:href="#DejaVuSans-30" x="254.492188"/>
      </g>
     </g>
    </g>
    <g id="ytick_6">
     <g id="line2d_12">
      <g>
       <use xlink:href="#m725a221d0e" x="57.6" y="137.398625" style="stroke: #000000; stroke-width: 0.8"/>
      </g>
     </g>
     <g id="text_12">
      <!-- 12500 -->
      <g transform="translate(18.7875 141.197844) scale(0.1 -0.1)">
       <use xlink:href="#DejaVuSans-31"/>
       <use xlink:href="#DejaVuSans-32" x="63.623047"/>
       <use xlink:href="#DejaVuSans-35" x="127.246094"/>
       <use xlink:href="#DejaVuSans-30" x="190.869141"/>
       <use xlink:href="#DejaVuSans-30" x="254.492188"/>
      </g>
     </g>
    </g>
    <g id="ytick_7">
     <g id="line2d_13">
      <g>
       <use xlink:href="#m725a221d0e" x="57.6" y="105.780751" style="stroke: #000000; stroke-width: 0.8"/>
      </g>
     </g>
     <g id="text_13">
      <!-- 15000 -->
      <g transform="translate(18.7875 109.579969) scale(0.1 -0.1)">
       <use xlink:href="#DejaVuSans-31"/>
       <use xlink:href="#DejaVuSans-35" x="63.623047"/>
       <use xlink:href="#DejaVuSans-30" x="127.246094"/>
       <use xlink:href="#DejaVuSans-30" x="190.869141"/>
       <use xlink:href="#DejaVuSans-30" x="254.492188"/>
      </g>
     </g>
    </g>
    <g id="ytick_8">
     <g id="line2d_14">
      <g>
       <use xlink:href="#m725a221d0e" x="57.6" y="74.162876" style="stroke: #000000; stroke-width: 0.8"/>
      </g>
     </g>
     <g id="text_14">
      <!-- 17500 -->
      <g transform="translate(18.7875 77.962094) scale(0.1 -0.1)">
       <use xlink:href="#DejaVuSans-31"/>
       <use xlink:href="#DejaVuSans-37" x="63.623047"/>
       <use xlink:href="#DejaVuSans-35" x="127.246094"/>
       <use xlink:href="#DejaVuSans-30" x="190.869141"/>
       <use xlink:href="#DejaVuSans-30" x="254.492188"/>
      </g>
     </g>
    </g>
    <g id="ytick_9">
     <g id="line2d_15">
      <g>
       <use xlink:href="#m725a221d0e" x="57.6" y="42.545001" style="stroke: #000000; stroke-width: 0.8"/>
      </g>
     </g>
     <g id="text_15">
      <!-- 20000 -->
      <g transform="translate(18.7875 46.34422) scale(0.1 -0.1)">
       <use xlink:href="#DejaVuSans-32"/>
       <use xlink:href="#DejaVuSans-30" x="63.623047"/>
       <use xlink:href="#DejaVuSans-30" x="127.246094"/>
       <use xlink:href="#DejaVuSans-30" x="190.869141"/>
       <use xlink:href="#DejaVuSans-30" x="254.492188"/>
      </g>
     </g>
    </g>
   </g>
   <g id="line2d_16">
    <path d="M 73.832727 269.320516 
L 74.157707 276.099293 
L 74.482686 246.452286 
L 74.807666 200.524679 
L 75.132645 292.345179 
L 75.457625 236.598484 
L 75.782604 295.488 
L 76.107584 295.488 
L 76.432563 292.304912 
L 76.757543 229.719542 
L 77.082523 223.13844 
L 77.407502 268.539866 
L 77.732482 259.345896 
L 78.057461 267.982484 
L 79.0324 282.839303 
L 79.357379 233.477339 
L 79.682359 292.306417 
L 80.007338 263.433052 
L 80.332318 261.344845 
L 80.657297 295.488 
L 80.982277 285.090842 
L 81.307256 292.306417 
L 81.632236 295.488 
L 81.957215 282.288512 
L 82.282195 262.571774 
L 82.607174 273.201994 
L 82.932154 295.488 
L 83.257133 279.904824 
L 83.582113 273.186139 
L 83.907093 282.668702 
L 84.232072 282.468499 
L 84.557052 282.698796 
L 84.882031 217.500263 
L 85.207011 273.701314 
L 85.53199 279.464994 
L 85.85697 289.156241 
L 86.181949 292.31338 
L 86.506929 271.079542 
L 86.831908 288.648315 
L 87.156888 280.218942 
L 87.481867 257.424792 
L 87.806847 292.203384 
L 88.131826 282.97726 
L 88.456806 289.195323 
L 88.781785 273.059252 
L 89.106765 275.534448 
L 89.431744 267.479146 
L 89.756724 286.130619 
L 90.081704 270.063241 
L 90.406683 285.768319 
L 90.731663 284.919919 
L 91.056642 257.468914 
L 91.381622 292.304912 
L 91.706601 270.104293 
L 92.031581 268.782412 
L 92.35656 285.430763 
L 92.68154 292.227872 
L 93.006519 276.727889 
L 93.331499 283.645415 
L 93.656478 295.488 
L 93.981458 265.517472 
L 94.306437 288.703327 
L 94.631417 282.739131 
L 94.956396 285.890882 
L 95.281376 253.14463 
L 95.606355 256.651088 
L 96.256314 295.488 
L 96.581294 295.488 
L 96.906274 281.853305 
L 97.231253 289.141033 
L 97.556233 273.208795 
L 97.881212 285.837624 
L 98.206192 282.832269 
L 98.531171 289.152961 
L 98.856151 106.642533 
L 99.18113 295.488 
L 99.50611 295.488 
L 100.156069 260.189081 
L 100.481048 292.226382 
L 100.806028 274.855468 
L 101.131007 295.488 
L 101.455987 278.225604 
L 101.780966 285.965922 
L 102.105946 283.043995 
L 102.430925 295.488 
L 102.755905 289.020651 
L 103.080885 279.372255 
L 103.405864 295.488 
L 103.730844 292.31338 
L 104.055823 274.202284 
L 104.380803 295.488 
L 104.705782 295.488 
L 105.030762 268.199983 
L 105.355741 288.979574 
L 105.680721 252.473497 
L 106.0057 273.583842 
L 106.33068 271.676131 
L 106.655659 292.348294 
L 106.980639 285.243247 
L 107.305618 292.234181 
L 107.630598 284.973186 
L 107.955577 289.154527 
L 108.280557 268.936037 
L 108.605536 292.31338 
L 108.930516 289.229678 
L 109.255495 289.01616 
L 109.580475 292.304912 
L 109.905455 277.327192 
L 110.230434 270.291955 
L 110.555414 283.139889 
L 110.880393 276.614131 
L 111.205373 295.488 
L 111.530352 275.928411 
L 111.855332 293.036986 
L 112.180311 268.870902 
L 112.505291 279.620755 
L 112.83027 284.355356 
L 113.15525 270.551496 
L 113.480229 219.605734 
L 113.805209 292.27327 
L 114.130188 260.298026 
L 114.455168 271.987161 
L 114.780147 295.488 
L 115.430106 295.488 
L 115.755086 292.306417 
L 116.080066 292.304912 
L 116.405045 256.029034 
L 116.730025 279.847321 
L 117.055004 295.488 
L 117.379984 193.61775 
L 117.704963 276.293985 
L 118.029943 276.462073 
L 118.354922 277.739146 
L 118.679902 295.488 
L 119.004881 219.920858 
L 119.329861 292.235673 
L 119.65484 289.233378 
L 119.97982 295.488 
L 120.304799 295.488 
L 120.629779 292.357007 
L 120.954758 267.830565 
L 121.279738 229.064076 
L 121.604717 289.195323 
L 121.929697 286.101669 
L 122.254676 292.306417 
L 122.579656 282.161518 
L 123.229615 295.488 
L 123.554595 252.557465 
L 123.879574 295.488 
L 124.204554 292.001031 
L 124.529533 248.148528 
L 124.854513 295.488 
L 125.179492 289.095359 
L 125.504472 292.304912 
L 125.829451 276.652247 
L 126.154431 279.891983 
L 126.47941 292.235673 
L 126.80439 270.944933 
L 127.129369 190.322218 
L 127.454349 282.736004 
L 127.779328 289.095359 
L 128.104308 246.114713 
L 128.429287 235.808603 
L 128.754267 295.488 
L 129.079247 285.954069 
L 129.404226 282.50445 
L 129.729206 292.226382 
L 130.054185 288.979574 
L 130.379165 283.203766 
L 130.704144 295.488 
L 131.029124 282.784178 
L 131.354103 282.226196 
L 131.679083 282.150692 
L 132.004062 267.457988 
L 132.329042 292.253912 
L 132.654021 183.630184 
L 133.30398 211.873881 
L 133.62896 278.208833 
L 133.953939 295.488 
L 134.278919 284.940581 
L 134.603898 280.579281 
L 134.928878 251.282618 
L 135.253857 295.488 
L 135.578837 199.480239 
L 135.903817 271.623073 
L 136.228796 282.599089 
L 136.553776 280.405748 
L 136.878755 292.516227 
L 137.203735 279.934933 
L 137.528714 277.181215 
L 137.853694 282.933894 
L 138.178673 271.067109 
L 138.503653 214.994378 
L 138.828632 241.015513 
L 139.153612 295.488 
L 139.478591 207.443726 
L 139.803571 222.192667 
L 140.12855 295.488 
L 140.45353 288.826062 
L 140.778509 270.025278 
L 141.103489 273.250508 
L 141.428468 288.446376 
L 141.753448 292.227872 
L 142.078428 241.977957 
L 142.403407 284.682632 
L 142.728387 292.227872 
L 143.053366 284.69124 
L 143.378346 284.921459 
L 143.703325 295.488 
L 144.028305 208.679764 
L 144.353284 285.069532 
L 144.678264 277.324973 
L 145.003243 295.488 
L 145.328223 295.488 
L 145.653202 281.676282 
L 145.978182 295.488 
L 146.303161 292.227872 
L 146.628141 254.310237 
L 146.95312 131.853295 
L 147.2781 215.56365 
L 147.928059 295.488 
L 148.253038 278.854478 
L 148.578018 295.488 
L 149.227977 295.488 
L 149.552957 282.584226 
L 149.877936 295.488 
L 150.202916 247.996439 
L 150.527895 295.488 
L 150.852875 292.096269 
L 151.177854 295.488 
L 151.502834 288.686658 
L 151.827813 295.488 
L 152.152793 277.926686 
L 152.477772 278.204603 
L 152.802752 295.488 
L 153.127731 292.096269 
L 154.10267 292.096269 
L 154.427649 278.143343 
L 154.752629 295.488 
L 155.077609 295.488 
L 155.402588 272.834483 
L 155.727568 295.488 
L 156.052547 295.488 
L 156.377527 292.096269 
L 156.702506 285.127121 
L 157.027486 295.488 
L 158.327404 295.488 
L 158.652383 285.123886 
L 158.977363 295.488 
L 160.277281 295.488 
L 160.60226 281.545509 
L 160.92724 288.502506 
L 161.252219 262.076838 
L 161.577199 292.096269 
L 161.902179 285.57194 
L 162.227158 295.488 
L 162.877117 295.488 
L 163.202097 281.131796 
L 163.527076 292.167242 
L 163.852056 295.488 
L 164.502015 295.488 
L 164.826994 292.170967 
L 165.151974 295.488 
L 165.476953 282.301766 
L 166.126912 295.488 
L 166.451892 292.167242 
L 166.776871 295.488 
L 167.101851 295.488 
L 167.42683 292.167242 
L 167.75181 295.488 
L 168.07679 292.170967 
L 168.401769 295.488 
L 168.726749 292.170967 
L 169.051728 295.488 
L 169.376708 295.488 
L 169.701687 292.170967 
L 170.026667 292.167242 
L 170.351646 295.488 
L 170.676626 292.256573 
L 171.001605 295.488 
L 171.326585 282.305625 
L 171.976544 295.488 
L 172.301523 289.270227 
L 172.626503 288.860657 
L 172.951482 295.488 
L 173.601441 295.488 
L 173.926421 289.032598 
L 174.2514 295.488 
L 174.90136 295.488 
L 175.226339 292.167242 
L 175.551319 285.596712 
L 175.876298 295.488 
L 176.201278 295.488 
L 176.526257 281.74537 
L 176.851237 295.488 
L 177.176216 288.87417 
L 177.501196 295.488 
L 178.151155 295.488 
L 178.476134 288.87417 
L 178.801114 292.167242 
L 179.126093 292.170967 
L 179.451073 288.87417 
L 179.776052 295.488 
L 180.426011 295.488 
L 180.750991 292.26504 
L 181.075971 295.488 
L 181.40095 271.992499 
L 181.72593 288.906156 
L 182.050909 292.167242 
L 182.700868 292.199707 
L 183.025848 203.155827 
L 183.350827 288.655285 
L 183.675807 271.992499 
L 184.000786 271.992499 
L 184.325766 203.155827 
L 184.650745 203.155827 
L 184.975725 285.49137 
L 185.300704 292.199707 
L 185.625684 203.155827 
L 185.950663 278.383933 
L 186.600622 275.183732 
L 186.925602 277.604013 
L 187.250581 282.511163 
L 187.575561 282.569293 
L 187.900541 280.660563 
L 188.22552 277.292858 
L 188.5505 251.001998 
L 195.37507 251.001998 
L 195.700049 256.643683 
L 196.025029 282.934543 
L 203.824537 282.934543 
L 204.149517 289.152961 
L 204.474496 282.934543 
L 204.799476 292.304912 
L 205.124455 295.488 
L 206.099394 295.488 
L 206.424373 286.030118 
L 206.749353 295.488 
L 207.074333 295.488 
L 207.399312 292.304912 
L 207.724292 295.488 
L 208.049271 292.304912 
L 208.374251 295.488 
L 208.69923 295.488 
L 209.02421 282.934543 
L 209.349189 295.488 
L 209.674169 282.934543 
L 237.297428 282.934543 
L 237.622408 197.57795 
L 237.947387 197.363331 
L 248.671712 197.363331 
L 248.996691 196.73666 
L 249.321671 197.147793 
L 249.64665 197.363331 
L 267.845504 197.363331 
L 268.170483 194.321375 
L 268.495463 295.488 
L 268.820442 188.490111 
L 269.145422 187.861574 
L 269.470401 189.528242 
L 269.795381 187.861574 
L 270.12036 193.072545 
L 270.44534 295.488 
L 271.095299 295.488 
L 271.420278 187.861574 
L 271.745258 188.490111 
L 272.070238 196.090998 
L 272.395217 188.490111 
L 272.720197 295.488 
L 273.045176 188.490111 
L 273.370156 187.861574 
L 273.695135 187.861574 
L 274.020115 295.488 
L 274.345094 295.488 
L 274.670074 187.861574 
L 274.995053 187.861574 
L 275.320033 295.488 
L 275.969992 295.488 
L 276.294971 188.490111 
L 276.619951 188.490111 
L 276.94493 295.488 
L 277.26991 189.528242 
L 277.594889 295.488 
L 277.919869 189.042493 
L 278.244848 295.488 
L 278.569828 188.490111 
L 278.894808 295.488 
L 281.169664 295.488 
L 281.494644 187.861574 
L 281.819623 187.861574 
L 282.144603 188.490111 
L 282.469582 295.488 
L 283.119541 295.488 
L 283.444521 189.042493 
L 283.7695 295.488 
L 285.069419 295.488 
L 285.394398 187.861574 
L 285.719378 188.490111 
L 286.044357 187.861574 
L 286.369337 187.861574 
L 286.694316 295.488 
L 287.019296 189.528242 
L 287.344275 295.488 
L 287.669255 295.488 
L 287.994234 184.327712 
L 288.319214 170.421762 
L 288.644193 295.488 
L 288.969173 295.488 
L 289.294152 170.004059 
L 289.619132 174.115502 
L 289.944111 295.488 
L 290.59407 295.488 
L 290.91905 177.930641 
L 291.244029 295.488 
L 291.569009 295.488 
L 291.893989 171.510106 
L 292.218968 295.488 
L 292.868927 295.488 
L 293.193907 172.756729 
L 293.518886 177.39415 
L 293.843866 295.488 
L 294.168845 182.276896 
L 294.493825 174.443687 
L 294.818804 171.279516 
L 295.143784 295.488 
L 295.468763 176.585551 
L 295.793743 181.213983 
L 296.118722 174.634506 
L 296.443702 295.488 
L 297.093661 295.488 
L 297.41864 172.575918 
L 297.74362 295.488 
L 298.0686 173.447895 
L 298.393579 295.488 
L 299.043538 295.488 
L 299.368518 177.201458 
L 299.693497 295.488 
L 300.018477 178.717915 
L 300.343456 295.488 
L 300.668436 180.451124 
L 300.993415 295.488 
L 301.318395 174.539647 
L 301.643374 176.30929 
L 301.968354 170.256412 
L 302.293333 177.547761 
L 302.618313 295.488 
L 302.943292 170.546984 
L 303.268272 174.031946 
L 303.593251 295.488 
L 304.24321 295.488 
L 304.56819 169.591084 
L 304.89317 295.488 
L 305.218149 177.500117 
L 305.543129 174.030523 
L 305.868108 177.011807 
L 306.193088 295.488 
L 306.518067 175.353043 
L 306.843047 175.64175 
L 307.168026 175.731663 
L 307.493006 295.488 
L 307.817985 178.891739 
L 308.142965 175.147162 
L 308.467944 177.875044 
L 308.792924 183.366806 
L 309.117903 173.753214 
L 309.442883 177.858646 
L 309.767862 295.488 
L 311.39276 295.488 
L 311.71774 175.830107 
L 312.042719 295.488 
L 312.367699 170.490363 
L 312.692678 178.13954 
L 313.017658 170.028767 
L 313.342637 176.264136 
L 313.667617 295.488 
L 313.992596 169.834001 
L 314.317576 295.488 
L 315.292514 295.488 
L 315.617494 172.014416 
L 315.942473 181.577678 
L 316.267453 295.488 
L 317.242391 295.488 
L 317.567371 174.424027 
L 317.892351 177.435021 
L 318.21733 295.488 
L 318.54231 168.368236 
L 318.867289 295.488 
L 319.192269 179.268519 
L 319.517248 295.488 
L 319.842228 174.665564 
L 320.167207 172.375249 
L 320.492187 174.958279 
L 320.817166 295.488 
L 321.142146 295.488 
L 321.467125 171.702656 
L 321.792105 168.518935 
L 322.117084 176.92463 
L 322.442064 295.488 
L 322.767043 175.339133 
L 323.092023 174.998126 
L 323.417002 295.488 
L 324.066962 295.488 
L 324.391941 173.077451 
L 324.716921 172.130061 
L 325.0419 295.488 
L 325.36688 178.174041 
L 325.691859 178.186899 
L 326.016839 170.54235 
L 326.341818 295.488 
L 326.991777 295.488 
L 327.316757 174.475253 
L 327.641736 174.369265 
L 327.966716 172.17145 
L 328.291695 295.488 
L 329.591613 295.488 
L 329.916593 172.419811 
L 330.241572 295.488 
L 330.566552 172.379805 
L 330.891532 170.402529 
L 331.216511 295.488 
L 331.541491 177.841942 
L 331.86647 181.180266 
L 332.19145 174.402359 
L 332.516429 177.659496 
L 332.841409 88.211459 
L 333.166388 295.488 
L 333.491368 73.197127 
L 333.816347 295.488 
L 334.141327 295.488 
L 334.466306 196.515925 
L 334.791286 208.114462 
L 335.116265 197.855576 
L 335.441245 295.488 
L 335.766224 222.168088 
L 336.091204 295.488 
L 336.416183 130.761517 
L 336.741163 183.274501 
L 337.066143 200.454421 
L 337.391122 295.488 
L 337.716102 295.488 
L 338.041081 179.213558 
L 338.366061 212.455683 
L 338.69104 82.617844 
L 339.01602 82.514711 
L 339.340999 295.488 
L 339.665979 72.36352 
L 339.990958 76.49904 
L 340.315938 208.600836 
L 340.640917 185.098386 
L 340.965897 295.488 
L 341.290876 199.582768 
L 341.615856 295.488 
L 341.940835 182.153757 
L 342.265815 295.488 
L 343.890713 295.488 
L 344.215692 197.533203 
L 344.540672 295.488 
L 344.865651 212.903295 
L 345.190631 208.719839 
L 345.51561 295.488 
L 345.84059 182.130855 
L 346.165569 295.488 
L 346.490549 295.488 
L 346.815528 180.922801 
L 347.140508 295.488 
L 347.465487 202.928493 
L 347.790467 222.492514 
L 348.115446 295.488 
L 348.440426 210.221807 
L 348.765405 295.488 
L 349.090385 295.488 
L 349.415364 182.41936 
L 349.740344 223.095938 
L 350.065324 295.488 
L 350.390303 130.441799 
L 350.715283 200.675663 
L 351.040262 73.200479 
L 351.690221 295.488 
L 352.015201 127.706614 
L 352.34018 295.488 
L 352.66516 71.856154 
L 352.990139 295.488 
L 353.315119 190.354125 
L 353.640098 295.488 
L 353.965078 210.089897 
L 354.290057 295.488 
L 354.615037 295.488 
L 354.940016 221.146608 
L 355.264996 295.488 
L 355.589975 295.488 
L 355.914955 181.949831 
L 356.239934 132.781345 
L 356.564914 295.488 
L 356.889894 178.413621 
L 357.214873 295.488 
L 357.539853 181.575023 
L 357.864832 295.488 
L 358.189812 179.089067 
L 358.514791 198.703021 
L 358.839771 295.488 
L 359.16475 295.488 
L 359.814709 131.130406 
L 360.139689 295.488 
L 360.464668 214.937327 
L 360.789648 201.667464 
L 361.114627 201.493006 
L 361.439607 295.488 
L 361.764586 295.488 
L 362.414545 131.136974 
L 362.739525 129.122546 
L 363.064505 180.014937 
L 363.389484 71.663109 
L 363.714464 295.488 
L 364.039443 295.488 
L 364.364423 183.236188 
L 364.689402 164.193587 
L 365.014382 198.312098 
L 365.339361 295.488 
L 365.664341 295.488 
L 365.98932 212.416845 
L 366.3143 295.488 
L 367.289238 295.488 
L 367.614218 197.295105 
L 367.939197 213.286351 
L 368.264177 206.533444 
L 368.589156 212.823828 
L 368.914136 295.488 
L 369.239115 295.488 
L 369.564095 198.780551 
L 369.889075 295.488 
L 370.214054 206.911112 
L 370.539034 207.179444 
L 370.864013 295.488 
L 371.188993 181.019241 
L 371.513972 208.347773 
L 371.838952 211.584698 
L 372.163931 216.616513 
L 372.488911 184.752656 
L 372.81389 218.021032 
L 373.13887 295.488 
L 373.463849 182.781869 
L 373.788829 295.488 
L 374.438788 295.488 
L 374.763767 129.51685 
L 375.088747 200.060447 
L 375.413726 183.699023 
L 375.738706 295.488 
L 376.063686 71.165097 
L 376.713645 185.392165 
L 377.038624 295.488 
L 377.363604 75.675717 
L 377.688583 295.488 
L 378.013563 200.46279 
L 378.338542 295.488 
L 378.663522 199.735551 
L 378.988501 295.488 
L 379.313481 78.409903 
L 379.63846 295.488 
L 380.288419 295.488 
L 380.613399 74.128223 
L 380.938378 207.848779 
L 381.263358 295.488 
L 381.588337 163.692392 
L 381.913317 295.488 
L 382.238296 162.828653 
L 382.563276 295.488 
L 382.888256 209.395927 
L 383.213235 205.598611 
L 383.538215 197.663475 
L 383.863194 295.488 
L 384.188174 295.488 
L 384.513153 53.568 
L 384.838133 295.488 
L 385.163112 173.839921 
L 385.488092 295.488 
L 386.78801 295.488 
L 387.112989 169.95303 
L 387.437969 166.239897 
L 387.762948 188.490111 
L 388.087928 295.488 
L 388.412907 189.955327 
L 388.737887 187.861574 
L 389.062867 295.488 
L 390.037805 295.488 
L 390.362785 188.490111 
L 390.687764 295.488 
L 391.987682 295.488 
L 392.312662 187.861574 
L 392.637641 189.042493 
L 392.962621 188.490111 
L 393.61258 188.490111 
L 393.937559 187.861574 
L 394.262539 295.488 
L 394.587518 187.861574 
L 394.912498 295.488 
L 396.862375 295.488 
L 397.187355 187.861574 
L 397.512334 295.488 
L 397.837314 187.861574 
L 398.162293 187.861574 
L 398.487273 295.488 
L 398.487273 295.488 
" clip-path="url(#p95016a3ed7)" style="fill: none; stroke: #1f77b4; stroke-width: 1.5; stroke-linecap: square"/>
   </g>
   <g id="patch_3">
    <path d="M 57.6 307.584 
L 57.6 41.472 
" style="fill: none; stroke: #000000; stroke-width: 0.8; stroke-linejoin: miter; stroke-linecap: square"/>
   </g>
   <g id="patch_4">
    <path d="M 414.72 307.584 
L 414.72 41.472 
" style="fill: none; stroke: #000000; stroke-width: 0.8; stroke-linejoin: miter; stroke-linecap: square"/>
   </g>
   <g id="patch_5">
    <path d="M 57.6 307.584 
L 414.72 307.584 
" style="fill: none; stroke: #000000; stroke-width: 0.8; stroke-linejoin: miter; stroke-linecap: square"/>
   </g>
   <g id="patch_6">
    <path d="M 57.6 41.472 
L 414.72 41.472 
" style="fill: none; stroke: #000000; stroke-width: 0.8; stroke-linejoin: miter; stroke-linecap: square"/>
   </g>
  </g>
 </g>
 <defs>
  <clipPath id="p95016a3ed7">
   <rect x="57.6" y="41.472" width="357.12" height="266.112"/>
  </clipPath>
 </defs>
</svg>
