<?xml version="1.0" encoding="utf-8" standalone="no"?>
<!DOCTYPE svg PUBLIC "-//W3C//DTD SVG 1.1//EN"
  "http://www.w3.org/Graphics/SVG/1.1/DTD/svg11.dtd">
<svg xmlns:xlink="http://www.w3.org/1999/xlink" width="460.8pt" height="345.6pt" viewBox="0 0 460.8 345.6" xmlns="http://www.w3.org/2000/svg" version="1.1">
 <metadata>
  <rdf:RDF xmlns:dc="http://purl.org/dc/elements/1.1/" xmlns:cc="http://creativecommons.org/ns#" xmlns:rdf="http://www.w3.org/1999/02/22-rdf-syntax-ns#">
   <cc:Work>
    <dc:type rdf:resource="http://purl.org/dc/dcmitype/StillImage"/>
    <dc:date>2024-04-23T15:14:17.743289</dc:date>
    <dc:format>image/svg+xml</dc:format>
    <dc:creator>
     <cc:Agent>
      <dc:title>Matplotlib v3.7.2, https://matplotlib.org/</dc:title>
     </cc:Agent>
    </dc:creator>
   </cc:Work>
  </rdf:RDF>
 </metadata>
 <defs>
  <style type="text/css">*{stroke-linejoin: round; stroke-linecap: butt}</style>
 </defs>
 <g id="figure_1">
  <g id="patch_1">
   <path d="M 0 345.6 
L 460.8 345.6 
L 460.8 0 
L 0 0 
z
" style="fill: #ffffff"/>
  </g>
  <g id="axes_1">
   <g id="patch_2">
    <path d="M 57.6 307.584 
L 414.72 307.584 
L 414.72 41.472 
L 57.6 41.472 
z
" style="fill: #ffffff"/>
   </g>
   <g id="matplotlib.axis_1">
    <g id="xtick_1">
     <g id="line2d_1">
      <defs>
       <path id="m1de1fc359b" d="M 0 0 
L 0 3.5 
" style="stroke: #000000; stroke-width: 0.8"/>
      </defs>
      <g>
       <use xlink:href="#m1de1fc359b" x="73.832727" y="307.584" style="stroke: #000000; stroke-width: 0.8"/>
      </g>
     </g>
     <g id="text_1">
      <!-- 0 -->
      <g transform="translate(70.651477 322.182437) scale(0.1 -0.1)">
       <defs>
        <path id="DejaVuSans-30" d="M 2034 4250 
Q 1547 4250 1301 3770 
Q 1056 3291 1056 2328 
Q 1056 1369 1301 889 
Q 1547 409 2034 409 
Q 2525 409 2770 889 
Q 3016 1369 3016 2328 
Q 3016 3291 2770 3770 
Q 2525 4250 2034 4250 
z
M 2034 4750 
Q 2819 4750 3233 4129 
Q 3647 3509 3647 2328 
Q 3647 1150 3233 529 
Q 2819 -91 2034 -91 
Q 1250 -91 836 529 
Q 422 1150 422 2328 
Q 422 3509 836 4129 
Q 1250 4750 2034 4750 
z
" transform="scale(0.015625)"/>
       </defs>
       <use xlink:href="#DejaVuSans-30"/>
      </g>
     </g>
    </g>
    <g id="xtick_2">
     <g id="line2d_2">
      <g>
       <use xlink:href="#m1de1fc359b" x="138.893758" y="307.584" style="stroke: #000000; stroke-width: 0.8"/>
      </g>
     </g>
     <g id="text_2">
      <!-- 100 -->
      <g transform="translate(129.350008 322.182437) scale(0.1 -0.1)">
       <defs>
        <path id="DejaVuSans-31" d="M 794 531 
L 1825 531 
L 1825 4091 
L 703 3866 
L 703 4441 
L 1819 4666 
L 2450 4666 
L 2450 531 
L 3481 531 
L 3481 0 
L 794 0 
L 794 531 
z
" transform="scale(0.015625)"/>
       </defs>
       <use xlink:href="#DejaVuSans-31"/>
       <use xlink:href="#DejaVuSans-30" x="63.623047"/>
       <use xlink:href="#DejaVuSans-30" x="127.246094"/>
      </g>
     </g>
    </g>
    <g id="xtick_3">
     <g id="line2d_3">
      <g>
       <use xlink:href="#m1de1fc359b" x="203.95479" y="307.584" style="stroke: #000000; stroke-width: 0.8"/>
      </g>
     </g>
     <g id="text_3">
      <!-- 200 -->
      <g transform="translate(194.41104 322.182437) scale(0.1 -0.1)">
       <defs>
        <path id="DejaVuSans-32" d="M 1228 531 
L 3431 531 
L 3431 0 
L 469 0 
L 469 531 
Q 828 903 1448 1529 
Q 2069 2156 2228 2338 
Q 2531 2678 2651 2914 
Q 2772 3150 2772 3378 
Q 2772 3750 2511 3984 
Q 2250 4219 1831 4219 
Q 1534 4219 1204 4116 
Q 875 4013 500 3803 
L 500 4441 
Q 881 4594 1212 4672 
Q 1544 4750 1819 4750 
Q 2544 4750 2975 4387 
Q 3406 4025 3406 3419 
Q 3406 3131 3298 2873 
Q 3191 2616 2906 2266 
Q 2828 2175 2409 1742 
Q 1991 1309 1228 531 
z
" transform="scale(0.015625)"/>
       </defs>
       <use xlink:href="#DejaVuSans-32"/>
       <use xlink:href="#DejaVuSans-30" x="63.623047"/>
       <use xlink:href="#DejaVuSans-30" x="127.246094"/>
      </g>
     </g>
    </g>
    <g id="xtick_4">
     <g id="line2d_4">
      <g>
       <use xlink:href="#m1de1fc359b" x="269.015821" y="307.584" style="stroke: #000000; stroke-width: 0.8"/>
      </g>
     </g>
     <g id="text_4">
      <!-- 300 -->
      <g transform="translate(259.472071 322.182437) scale(0.1 -0.1)">
       <defs>
        <path id="DejaVuSans-33" d="M 2597 2516 
Q 3050 2419 3304 2112 
Q 3559 1806 3559 1356 
Q 3559 666 3084 287 
Q 2609 -91 1734 -91 
Q 1441 -91 1130 -33 
Q 819 25 488 141 
L 488 750 
Q 750 597 1062 519 
Q 1375 441 1716 441 
Q 2309 441 2620 675 
Q 2931 909 2931 1356 
Q 2931 1769 2642 2001 
Q 2353 2234 1838 2234 
L 1294 2234 
L 1294 2753 
L 1863 2753 
Q 2328 2753 2575 2939 
Q 2822 3125 2822 3475 
Q 2822 3834 2567 4026 
Q 2313 4219 1838 4219 
Q 1578 4219 1281 4162 
Q 984 4106 628 3988 
L 628 4550 
Q 988 4650 1302 4700 
Q 1616 4750 1894 4750 
Q 2613 4750 3031 4423 
Q 3450 4097 3450 3541 
Q 3450 3153 3228 2886 
Q 3006 2619 2597 2516 
z
" transform="scale(0.015625)"/>
       </defs>
       <use xlink:href="#DejaVuSans-33"/>
       <use xlink:href="#DejaVuSans-30" x="63.623047"/>
       <use xlink:href="#DejaVuSans-30" x="127.246094"/>
      </g>
     </g>
    </g>
    <g id="xtick_5">
     <g id="line2d_5">
      <g>
       <use xlink:href="#m1de1fc359b" x="334.076852" y="307.584" style="stroke: #000000; stroke-width: 0.8"/>
      </g>
     </g>
     <g id="text_5">
      <!-- 400 -->
      <g transform="translate(324.533102 322.182437) scale(0.1 -0.1)">
       <defs>
        <path id="DejaVuSans-34" d="M 2419 4116 
L 825 1625 
L 2419 1625 
L 2419 4116 
z
M 2253 4666 
L 3047 4666 
L 3047 1625 
L 3713 1625 
L 3713 1100 
L 3047 1100 
L 3047 0 
L 2419 0 
L 2419 1100 
L 313 1100 
L 313 1709 
L 2253 4666 
z
" transform="scale(0.015625)"/>
       </defs>
       <use xlink:href="#DejaVuSans-34"/>
       <use xlink:href="#DejaVuSans-30" x="63.623047"/>
       <use xlink:href="#DejaVuSans-30" x="127.246094"/>
      </g>
     </g>
    </g>
    <g id="xtick_6">
     <g id="line2d_6">
      <g>
       <use xlink:href="#m1de1fc359b" x="399.137883" y="307.584" style="stroke: #000000; stroke-width: 0.8"/>
      </g>
     </g>
     <g id="text_6">
      <!-- 500 -->
      <g transform="translate(389.594133 322.182437) scale(0.1 -0.1)">
       <defs>
        <path id="DejaVuSans-35" d="M 691 4666 
L 3169 4666 
L 3169 4134 
L 1269 4134 
L 1269 2991 
Q 1406 3038 1543 3061 
Q 1681 3084 1819 3084 
Q 2600 3084 3056 2656 
Q 3513 2228 3513 1497 
Q 3513 744 3044 326 
Q 2575 -91 1722 -91 
Q 1428 -91 1123 -41 
Q 819 9 494 109 
L 494 744 
Q 775 591 1075 516 
Q 1375 441 1709 441 
Q 2250 441 2565 725 
Q 2881 1009 2881 1497 
Q 2881 1984 2565 2268 
Q 2250 2553 1709 2553 
Q 1456 2553 1204 2497 
Q 953 2441 691 2322 
L 691 4666 
z
" transform="scale(0.015625)"/>
       </defs>
       <use xlink:href="#DejaVuSans-35"/>
       <use xlink:href="#DejaVuSans-30" x="63.623047"/>
       <use xlink:href="#DejaVuSans-30" x="127.246094"/>
      </g>
     </g>
    </g>
   </g>
   <g id="matplotlib.axis_2">
    <g id="ytick_1">
     <g id="line2d_7">
      <defs>
       <path id="me88891b79b" d="M 0 0 
L -3.5 0 
" style="stroke: #000000; stroke-width: 0.8"/>
      </defs>
      <g>
       <use xlink:href="#me88891b79b" x="57.6" y="279.106175" style="stroke: #000000; stroke-width: 0.8"/>
      </g>
     </g>
     <g id="text_7">
      <!-- −100000 -->
      <g transform="translate(4.045313 282.905393) scale(0.1 -0.1)">
       <defs>
        <path id="DejaVuSans-2212" d="M 678 2272 
L 4684 2272 
L 4684 1741 
L 678 1741 
L 678 2272 
z
" transform="scale(0.015625)"/>
       </defs>
       <use xlink:href="#DejaVuSans-2212"/>
       <use xlink:href="#DejaVuSans-31" x="83.789062"/>
       <use xlink:href="#DejaVuSans-30" x="147.412109"/>
       <use xlink:href="#DejaVuSans-30" x="211.035156"/>
       <use xlink:href="#DejaVuSans-30" x="274.658203"/>
       <use xlink:href="#DejaVuSans-30" x="338.28125"/>
       <use xlink:href="#DejaVuSans-30" x="401.904297"/>
      </g>
     </g>
    </g>
    <g id="ytick_2">
     <g id="line2d_8">
      <g>
       <use xlink:href="#me88891b79b" x="57.6" y="234.035168" style="stroke: #000000; stroke-width: 0.8"/>
      </g>
     </g>
     <g id="text_8">
      <!-- −80000 -->
      <g transform="translate(10.407812 237.834387) scale(0.1 -0.1)">
       <defs>
        <path id="DejaVuSans-38" d="M 2034 2216 
Q 1584 2216 1326 1975 
Q 1069 1734 1069 1313 
Q 1069 891 1326 650 
Q 1584 409 2034 409 
Q 2484 409 2743 651 
Q 3003 894 3003 1313 
Q 3003 1734 2745 1975 
Q 2488 2216 2034 2216 
z
M 1403 2484 
Q 997 2584 770 2862 
Q 544 3141 544 3541 
Q 544 4100 942 4425 
Q 1341 4750 2034 4750 
Q 2731 4750 3128 4425 
Q 3525 4100 3525 3541 
Q 3525 3141 3298 2862 
Q 3072 2584 2669 2484 
Q 3125 2378 3379 2068 
Q 3634 1759 3634 1313 
Q 3634 634 3220 271 
Q 2806 -91 2034 -91 
Q 1263 -91 848 271 
Q 434 634 434 1313 
Q 434 1759 690 2068 
Q 947 2378 1403 2484 
z
M 1172 3481 
Q 1172 3119 1398 2916 
Q 1625 2713 2034 2713 
Q 2441 2713 2670 2916 
Q 2900 3119 2900 3481 
Q 2900 3844 2670 4047 
Q 2441 4250 2034 4250 
Q 1625 4250 1398 4047 
Q 1172 3844 1172 3481 
z
" transform="scale(0.015625)"/>
       </defs>
       <use xlink:href="#DejaVuSans-2212"/>
       <use xlink:href="#DejaVuSans-38" x="83.789062"/>
       <use xlink:href="#DejaVuSans-30" x="147.412109"/>
       <use xlink:href="#DejaVuSans-30" x="211.035156"/>
       <use xlink:href="#DejaVuSans-30" x="274.658203"/>
       <use xlink:href="#DejaVuSans-30" x="338.28125"/>
      </g>
     </g>
    </g>
    <g id="ytick_3">
     <g id="line2d_9">
      <g>
       <use xlink:href="#me88891b79b" x="57.6" y="188.964161" style="stroke: #000000; stroke-width: 0.8"/>
      </g>
     </g>
     <g id="text_9">
      <!-- −60000 -->
      <g transform="translate(10.407812 192.76338) scale(0.1 -0.1)">
       <defs>
        <path id="DejaVuSans-36" d="M 2113 2584 
Q 1688 2584 1439 2293 
Q 1191 2003 1191 1497 
Q 1191 994 1439 701 
Q 1688 409 2113 409 
Q 2538 409 2786 701 
Q 3034 994 3034 1497 
Q 3034 2003 2786 2293 
Q 2538 2584 2113 2584 
z
M 3366 4563 
L 3366 3988 
Q 3128 4100 2886 4159 
Q 2644 4219 2406 4219 
Q 1781 4219 1451 3797 
Q 1122 3375 1075 2522 
Q 1259 2794 1537 2939 
Q 1816 3084 2150 3084 
Q 2853 3084 3261 2657 
Q 3669 2231 3669 1497 
Q 3669 778 3244 343 
Q 2819 -91 2113 -91 
Q 1303 -91 875 529 
Q 447 1150 447 2328 
Q 447 3434 972 4092 
Q 1497 4750 2381 4750 
Q 2619 4750 2861 4703 
Q 3103 4656 3366 4563 
z
" transform="scale(0.015625)"/>
       </defs>
       <use xlink:href="#DejaVuSans-2212"/>
       <use xlink:href="#DejaVuSans-36" x="83.789062"/>
       <use xlink:href="#DejaVuSans-30" x="147.412109"/>
       <use xlink:href="#DejaVuSans-30" x="211.035156"/>
       <use xlink:href="#DejaVuSans-30" x="274.658203"/>
       <use xlink:href="#DejaVuSans-30" x="338.28125"/>
      </g>
     </g>
    </g>
    <g id="ytick_4">
     <g id="line2d_10">
      <g>
       <use xlink:href="#me88891b79b" x="57.6" y="143.893155" style="stroke: #000000; stroke-width: 0.8"/>
      </g>
     </g>
     <g id="text_10">
      <!-- −40000 -->
      <g transform="translate(10.407812 147.692374) scale(0.1 -0.1)">
       <use xlink:href="#DejaVuSans-2212"/>
       <use xlink:href="#DejaVuSans-34" x="83.789062"/>
       <use xlink:href="#DejaVuSans-30" x="147.412109"/>
       <use xlink:href="#DejaVuSans-30" x="211.035156"/>
       <use xlink:href="#DejaVuSans-30" x="274.658203"/>
       <use xlink:href="#DejaVuSans-30" x="338.28125"/>
      </g>
     </g>
    </g>
    <g id="ytick_5">
     <g id="line2d_11">
      <g>
       <use xlink:href="#me88891b79b" x="57.6" y="98.822148" style="stroke: #000000; stroke-width: 0.8"/>
      </g>
     </g>
     <g id="text_11">
      <!-- −20000 -->
      <g transform="translate(10.407812 102.621367) scale(0.1 -0.1)">
       <use xlink:href="#DejaVuSans-2212"/>
       <use xlink:href="#DejaVuSans-32" x="83.789062"/>
       <use xlink:href="#DejaVuSans-30" x="147.412109"/>
       <use xlink:href="#DejaVuSans-30" x="211.035156"/>
       <use xlink:href="#DejaVuSans-30" x="274.658203"/>
       <use xlink:href="#DejaVuSans-30" x="338.28125"/>
      </g>
     </g>
    </g>
    <g id="ytick_6">
     <g id="line2d_12">
      <g>
       <use xlink:href="#me88891b79b" x="57.6" y="53.751142" style="stroke: #000000; stroke-width: 0.8"/>
      </g>
     </g>
     <g id="text_12">
      <!-- 0 -->
      <g transform="translate(44.2375 57.55036) scale(0.1 -0.1)">
       <use xlink:href="#DejaVuSans-30"/>
      </g>
     </g>
    </g>
   </g>
   <g id="line2d_13">
    <path d="M 73.832727 53.684831 
L 74.483338 53.790305 
L 75.133948 53.609566 
L 75.784558 53.736293 
L 76.435169 53.654886 
L 77.085779 53.923439 
L 77.736389 53.636811 
L 79.03761 53.759229 
L 82.290661 53.635902 
L 82.941272 53.592509 
L 83.591882 53.739947 
L 85.543713 53.795695 
L 89.447375 53.804768 
L 91.399206 53.726713 
L 92.700426 53.797194 
L 102.459581 53.744892 
L 103.110191 53.915434 
L 105.062022 53.895446 
L 105.712633 53.941469 
L 106.363243 53.830052 
L 107.013853 53.903554 
L 107.664463 53.680298 
L 108.315074 53.634628 
L 108.965684 53.943631 
L 109.616294 53.666971 
L 110.266905 53.943631 
L 112.218736 53.943631 
L 112.869346 103.855669 
L 113.519956 53.784804 
L 114.170567 53.914025 
L 114.821177 54.775971 
L 115.471787 53.751142 
L 116.122398 55.379681 
L 116.773008 82.25642 
L 117.423618 53.67071 
L 118.074228 54.649715 
L 118.724839 55.062836 
L 119.375449 53.74069 
L 120.026059 53.723353 
L 120.67667 53.924568 
L 121.32728 53.781373 
L 131.737045 53.781909 
L 134.339486 53.840076 
L 134.990097 53.928562 
L 135.640707 53.808735 
L 136.291317 53.972537 
L 136.941927 53.791065 
L 138.243148 53.891588 
L 138.893758 61.456522 
L 139.544369 61.456522 
L 140.194979 53.857567 
L 140.845589 53.969899 
L 141.4962 53.759576 
L 142.14681 53.762215 
L 142.79742 61.412357 
L 143.448031 53.589357 
L 144.098641 53.633158 
L 144.749251 60.754569 
L 145.399862 140.567603 
L 146.050472 53.727913 
L 146.701082 53.727966 
L 147.351692 61.325381 
L 148.002303 82.272049 
L 148.652913 53.771898 
L 149.303523 53.771898 
L 149.954134 53.568 
L 150.604744 53.678265 
L 151.255354 65.017386 
L 151.905965 168.071832 
L 152.556575 103.979464 
L 153.207185 168.071832 
L 153.857796 53.756763 
L 155.159016 53.739724 
L 157.761457 53.739883 
L 158.412068 53.915123 
L 159.062678 53.836494 
L 159.713288 53.962895 
L 160.363899 53.778235 
L 161.014509 53.840877 
L 161.665119 53.702296 
L 162.31573 109.269897 
L 162.96634 53.997604 
L 163.61695 53.793622 
L 164.267561 53.732556 
L 164.918171 285.603621 
L 165.568781 62.555362 
L 166.219392 64.490125 
L 166.870002 53.68223 
L 168.171222 53.821734 
L 168.821833 84.749044 
L 170.123053 84.770275 
L 170.773664 53.754156 
L 174.677326 53.755185 
L 175.327936 53.950155 
L 175.978546 53.743394 
L 177.930377 53.759588 
L 178.580987 53.979022 
L 179.231598 53.748984 
L 181.183429 53.866833 
L 182.484649 53.765178 
L 183.13526 53.765178 
L 183.78587 54.596367 
L 184.43648 84.542322 
L 185.087091 84.542322 
L 185.737701 53.945544 
L 186.388311 53.729999 
L 188.340142 53.720888 
L 188.990752 54.531221 
L 189.641363 53.774562 
L 190.291973 53.970062 
L 191.593194 53.866222 
L 192.243804 53.794771 
L 192.894414 55.741657 
L 193.545025 53.953765 
L 194.195635 53.92709 
L 194.846245 53.759237 
L 195.496856 53.91933 
L 196.147466 53.748311 
L 199.400517 53.724955 
L 200.701738 53.757711 
L 202.653569 53.724955 
L 203.304179 54.08309 
L 203.95479 53.738869 
L 204.6054 54.067942 
L 205.25601 54.08309 
L 205.906621 53.753364 
L 214.364555 53.953366 
L 215.015165 53.724955 
L 216.316385 53.724955 
L 216.966996 53.873774 
L 219.569437 53.756269 
L 220.220047 53.952862 
L 220.870658 53.748974 
L 222.171878 53.890515 
L 222.822489 53.684288 
L 224.123709 53.753108 
L 226.07554 53.751534 
L 226.72615 53.890515 
L 228.027371 53.724955 
L 228.677981 62.587873 
L 229.328592 53.724955 
L 231.280423 53.720428 
L 231.931033 53.97327 
L 232.581643 53.709092 
L 233.232254 53.720251 
L 233.882864 54.144527 
L 234.533474 53.724955 
L 235.184085 53.785945 
L 235.834695 53.722429 
L 236.485305 53.779783 
L 237.786526 53.724955 
L 240.388967 53.753818 
L 241.039577 53.693608 
L 242.340798 53.753818 
L 252.750563 53.762876 
L 253.401173 53.953765 
L 254.702394 53.953765 
L 255.353004 53.819047 
L 256.003615 295.488 
L 256.654225 53.852739 
L 257.304835 53.656738 
L 258.606056 53.805653 
L 259.907276 53.70786 
L 261.208497 53.70786 
L 261.859107 53.978137 
L 262.509718 53.70786 
L 264.461549 53.763237 
L 265.112159 54.279457 
L 265.762769 54.279457 
L 266.413379 53.761743 
L 267.7146 53.697899 
L 271.618262 53.70786 
L 273.570093 53.761741 
L 280.076196 53.682 
L 280.726806 54.010184 
L 281.377417 54.010184 
L 282.028027 53.691631 
L 282.678637 53.688681 
L 283.329248 53.992197 
L 283.979858 53.691631 
L 284.630468 54.010184 
L 285.281079 53.690101 
L 285.931689 54.010184 
L 290.485961 53.729979 
L 291.787182 53.660413 
L 292.437792 53.800399 
L 293.088402 53.660413 
L 293.739013 54.010184 
L 295.040233 54.010184 
L 295.690844 53.595939 
L 296.341454 53.595939 
L 296.992064 54.010184 
L 298.943895 54.010184 
L 300.245116 53.66892 
L 301.546336 53.824228 
L 302.847557 53.687397 
L 303.498167 54.08309 
L 304.148778 53.743113 
L 306.751219 53.743113 
L 307.401829 54.010184 
L 308.052439 54.010184 
L 308.70305 53.743113 
L 311.305491 53.743113 
L 311.956101 54.010184 
L 313.257322 54.010184 
L 313.907932 53.743113 
L 314.558543 53.743113 
L 315.209153 54.010184 
L 315.859763 53.743113 
L 316.510373 54.010184 
L 317.811594 53.992197 
L 318.462204 53.739854 
L 319.112815 53.607158 
L 321.715256 53.795574 
L 322.365866 53.629695 
L 323.667087 53.613695 
L 324.968308 53.795574 
L 325.618918 53.795574 
L 326.269528 65.279598 
L 326.920138 53.759588 
L 329.52258 53.795574 
L 330.17319 53.795574 
L 330.8238 53.636808 
L 331.474411 53.795574 
L 332.775631 53.694608 
L 335.378073 53.694608 
L 336.028683 53.992197 
L 337.329903 53.992197 
L 338.631124 53.765693 
L 347.739668 53.729979 
L 348.390279 53.992197 
L 349.040889 53.729979 
L 351.64333 53.729979 
L 358.149433 53.765693 
L 358.800044 54.003618 
L 359.450654 53.700775 
L 360.101264 53.700775 
L 360.751875 54.184676 
L 362.053095 54.243918 
L 362.703706 53.831902 
L 363.354316 53.861884 
L 364.655537 53.757018 
L 367.257978 53.740484 
L 385.475066 53.657421 
L 386.125677 53.915768 
L 387.426897 53.70786 
L 388.077508 53.772132 
L 388.728118 53.682 
L 391.330559 53.761743 
L 392.63178 53.682 
L 393.933001 53.772132 
L 398.487273 53.705762 
L 398.487273 53.705762 
" clip-path="url(#p4aeda9201a)" style="fill: none; stroke: #1f77b4; stroke-width: 1.5; stroke-linecap: square"/>
   </g>
   <g id="patch_3">
    <path d="M 57.6 307.584 
L 57.6 41.472 
" style="fill: none; stroke: #000000; stroke-width: 0.8; stroke-linejoin: miter; stroke-linecap: square"/>
   </g>
   <g id="patch_4">
    <path d="M 414.72 307.584 
L 414.72 41.472 
" style="fill: none; stroke: #000000; stroke-width: 0.8; stroke-linejoin: miter; stroke-linecap: square"/>
   </g>
   <g id="patch_5">
    <path d="M 57.6 307.584 
L 414.72 307.584 
" style="fill: none; stroke: #000000; stroke-width: 0.8; stroke-linejoin: miter; stroke-linecap: square"/>
   </g>
   <g id="patch_6">
    <path d="M 57.6 41.472 
L 414.72 41.472 
" style="fill: none; stroke: #000000; stroke-width: 0.8; stroke-linejoin: miter; stroke-linecap: square"/>
   </g>
  </g>
 </g>
 <defs>
  <clipPath id="p4aeda9201a">
   <rect x="57.6" y="41.472" width="357.12" height="266.112"/>
  </clipPath>
 </defs>
</svg>
