<?xml version="1.0" encoding="utf-8" standalone="no"?>
<!DOCTYPE svg PUBLIC "-//W3C//DTD SVG 1.1//EN"
  "http://www.w3.org/Graphics/SVG/1.1/DTD/svg11.dtd">
<svg xmlns:xlink="http://www.w3.org/1999/xlink" width="460.8pt" height="345.6pt" viewBox="0 0 460.8 345.6" xmlns="http://www.w3.org/2000/svg" version="1.1">
 <metadata>
  <rdf:RDF xmlns:dc="http://purl.org/dc/elements/1.1/" xmlns:cc="http://creativecommons.org/ns#" xmlns:rdf="http://www.w3.org/1999/02/22-rdf-syntax-ns#">
   <cc:Work>
    <dc:type rdf:resource="http://purl.org/dc/dcmitype/StillImage"/>
    <dc:date>2024-04-24T15:19:08.274428</dc:date>
    <dc:format>image/svg+xml</dc:format>
    <dc:creator>
     <cc:Agent>
      <dc:title>Matplotlib v3.7.2, https://matplotlib.org/</dc:title>
     </cc:Agent>
    </dc:creator>
   </cc:Work>
  </rdf:RDF>
 </metadata>
 <defs>
  <style type="text/css">*{stroke-linejoin: round; stroke-linecap: butt}</style>
 </defs>
 <g id="figure_1">
  <g id="patch_1">
   <path d="M 0 345.6 
L 460.8 345.6 
L 460.8 0 
L 0 0 
z
" style="fill: #ffffff"/>
  </g>
  <g id="axes_1">
   <g id="patch_2">
    <path d="M 57.6 307.584 
L 414.72 307.584 
L 414.72 41.472 
L 57.6 41.472 
z
" style="fill: #ffffff"/>
   </g>
   <g id="matplotlib.axis_1">
    <g id="xtick_1">
     <g id="line2d_1">
      <defs>
       <path id="m2f54e07f03" d="M 0 0 
L 0 3.5 
" style="stroke: #000000; stroke-width: 0.8"/>
      </defs>
      <g>
       <use xlink:href="#m2f54e07f03" x="73.832727" y="307.584" style="stroke: #000000; stroke-width: 0.8"/>
      </g>
     </g>
     <g id="text_1">
      <!-- 0 -->
      <g transform="translate(70.651477 322.182437) scale(0.1 -0.1)">
       <defs>
        <path id="DejaVuSans-30" d="M 2034 4250 
Q 1547 4250 1301 3770 
Q 1056 3291 1056 2328 
Q 1056 1369 1301 889 
Q 1547 409 2034 409 
Q 2525 409 2770 889 
Q 3016 1369 3016 2328 
Q 3016 3291 2770 3770 
Q 2525 4250 2034 4250 
z
M 2034 4750 
Q 2819 4750 3233 4129 
Q 3647 3509 3647 2328 
Q 3647 1150 3233 529 
Q 2819 -91 2034 -91 
Q 1250 -91 836 529 
Q 422 1150 422 2328 
Q 422 3509 836 4129 
Q 1250 4750 2034 4750 
z
" transform="scale(0.015625)"/>
       </defs>
       <use xlink:href="#DejaVuSans-30"/>
      </g>
     </g>
    </g>
    <g id="xtick_2">
     <g id="line2d_2">
      <g>
       <use xlink:href="#m2f54e07f03" x="114.434847" y="307.584" style="stroke: #000000; stroke-width: 0.8"/>
      </g>
     </g>
     <g id="text_2">
      <!-- 250 -->
      <g transform="translate(104.891097 322.182437) scale(0.1 -0.1)">
       <defs>
        <path id="DejaVuSans-32" d="M 1228 531 
L 3431 531 
L 3431 0 
L 469 0 
L 469 531 
Q 828 903 1448 1529 
Q 2069 2156 2228 2338 
Q 2531 2678 2651 2914 
Q 2772 3150 2772 3378 
Q 2772 3750 2511 3984 
Q 2250 4219 1831 4219 
Q 1534 4219 1204 4116 
Q 875 4013 500 3803 
L 500 4441 
Q 881 4594 1212 4672 
Q 1544 4750 1819 4750 
Q 2544 4750 2975 4387 
Q 3406 4025 3406 3419 
Q 3406 3131 3298 2873 
Q 3191 2616 2906 2266 
Q 2828 2175 2409 1742 
Q 1991 1309 1228 531 
z
" transform="scale(0.015625)"/>
        <path id="DejaVuSans-35" d="M 691 4666 
L 3169 4666 
L 3169 4134 
L 1269 4134 
L 1269 2991 
Q 1406 3038 1543 3061 
Q 1681 3084 1819 3084 
Q 2600 3084 3056 2656 
Q 3513 2228 3513 1497 
Q 3513 744 3044 326 
Q 2575 -91 1722 -91 
Q 1428 -91 1123 -41 
Q 819 9 494 109 
L 494 744 
Q 775 591 1075 516 
Q 1375 441 1709 441 
Q 2250 441 2565 725 
Q 2881 1009 2881 1497 
Q 2881 1984 2565 2268 
Q 2250 2553 1709 2553 
Q 1456 2553 1204 2497 
Q 953 2441 691 2322 
L 691 4666 
z
" transform="scale(0.015625)"/>
       </defs>
       <use xlink:href="#DejaVuSans-32"/>
       <use xlink:href="#DejaVuSans-35" x="63.623047"/>
       <use xlink:href="#DejaVuSans-30" x="127.246094"/>
      </g>
     </g>
    </g>
    <g id="xtick_3">
     <g id="line2d_3">
      <g>
       <use xlink:href="#m2f54e07f03" x="155.036966" y="307.584" style="stroke: #000000; stroke-width: 0.8"/>
      </g>
     </g>
     <g id="text_3">
      <!-- 500 -->
      <g transform="translate(145.493216 322.182437) scale(0.1 -0.1)">
       <use xlink:href="#DejaVuSans-35"/>
       <use xlink:href="#DejaVuSans-30" x="63.623047"/>
       <use xlink:href="#DejaVuSans-30" x="127.246094"/>
      </g>
     </g>
    </g>
    <g id="xtick_4">
     <g id="line2d_4">
      <g>
       <use xlink:href="#m2f54e07f03" x="195.639085" y="307.584" style="stroke: #000000; stroke-width: 0.8"/>
      </g>
     </g>
     <g id="text_4">
      <!-- 750 -->
      <g transform="translate(186.095335 322.182437) scale(0.1 -0.1)">
       <defs>
        <path id="DejaVuSans-37" d="M 525 4666 
L 3525 4666 
L 3525 4397 
L 1831 0 
L 1172 0 
L 2766 4134 
L 525 4134 
L 525 4666 
z
" transform="scale(0.015625)"/>
       </defs>
       <use xlink:href="#DejaVuSans-37"/>
       <use xlink:href="#DejaVuSans-35" x="63.623047"/>
       <use xlink:href="#DejaVuSans-30" x="127.246094"/>
      </g>
     </g>
    </g>
    <g id="xtick_5">
     <g id="line2d_5">
      <g>
       <use xlink:href="#m2f54e07f03" x="236.241204" y="307.584" style="stroke: #000000; stroke-width: 0.8"/>
      </g>
     </g>
     <g id="text_5">
      <!-- 1000 -->
      <g transform="translate(223.516204 322.182437) scale(0.1 -0.1)">
       <defs>
        <path id="DejaVuSans-31" d="M 794 531 
L 1825 531 
L 1825 4091 
L 703 3866 
L 703 4441 
L 1819 4666 
L 2450 4666 
L 2450 531 
L 3481 531 
L 3481 0 
L 794 0 
L 794 531 
z
" transform="scale(0.015625)"/>
       </defs>
       <use xlink:href="#DejaVuSans-31"/>
       <use xlink:href="#DejaVuSans-30" x="63.623047"/>
       <use xlink:href="#DejaVuSans-30" x="127.246094"/>
       <use xlink:href="#DejaVuSans-30" x="190.869141"/>
      </g>
     </g>
    </g>
    <g id="xtick_6">
     <g id="line2d_6">
      <g>
       <use xlink:href="#m2f54e07f03" x="276.843323" y="307.584" style="stroke: #000000; stroke-width: 0.8"/>
      </g>
     </g>
     <g id="text_6">
      <!-- 1250 -->
      <g transform="translate(264.118323 322.182437) scale(0.1 -0.1)">
       <use xlink:href="#DejaVuSans-31"/>
       <use xlink:href="#DejaVuSans-32" x="63.623047"/>
       <use xlink:href="#DejaVuSans-35" x="127.246094"/>
       <use xlink:href="#DejaVuSans-30" x="190.869141"/>
      </g>
     </g>
    </g>
    <g id="xtick_7">
     <g id="line2d_7">
      <g>
       <use xlink:href="#m2f54e07f03" x="317.445443" y="307.584" style="stroke: #000000; stroke-width: 0.8"/>
      </g>
     </g>
     <g id="text_7">
      <!-- 1500 -->
      <g transform="translate(304.720443 322.182437) scale(0.1 -0.1)">
       <use xlink:href="#DejaVuSans-31"/>
       <use xlink:href="#DejaVuSans-35" x="63.623047"/>
       <use xlink:href="#DejaVuSans-30" x="127.246094"/>
       <use xlink:href="#DejaVuSans-30" x="190.869141"/>
      </g>
     </g>
    </g>
    <g id="xtick_8">
     <g id="line2d_8">
      <g>
       <use xlink:href="#m2f54e07f03" x="358.047562" y="307.584" style="stroke: #000000; stroke-width: 0.8"/>
      </g>
     </g>
     <g id="text_8">
      <!-- 1750 -->
      <g transform="translate(345.322562 322.182437) scale(0.1 -0.1)">
       <use xlink:href="#DejaVuSans-31"/>
       <use xlink:href="#DejaVuSans-37" x="63.623047"/>
       <use xlink:href="#DejaVuSans-35" x="127.246094"/>
       <use xlink:href="#DejaVuSans-30" x="190.869141"/>
      </g>
     </g>
    </g>
    <g id="xtick_9">
     <g id="line2d_9">
      <g>
       <use xlink:href="#m2f54e07f03" x="398.649681" y="307.584" style="stroke: #000000; stroke-width: 0.8"/>
      </g>
     </g>
     <g id="text_9">
      <!-- 2000 -->
      <g transform="translate(385.924681 322.182437) scale(0.1 -0.1)">
       <use xlink:href="#DejaVuSans-32"/>
       <use xlink:href="#DejaVuSans-30" x="63.623047"/>
       <use xlink:href="#DejaVuSans-30" x="127.246094"/>
       <use xlink:href="#DejaVuSans-30" x="190.869141"/>
      </g>
     </g>
    </g>
   </g>
   <g id="matplotlib.axis_2">
    <g id="ytick_1">
     <g id="line2d_10">
      <defs>
       <path id="mb53bea99b9" d="M 0 0 
L -3.5 0 
" style="stroke: #000000; stroke-width: 0.8"/>
      </defs>
      <g>
       <use xlink:href="#mb53bea99b9" x="57.6" y="293.582576" style="stroke: #000000; stroke-width: 0.8"/>
      </g>
     </g>
     <g id="text_10">
      <!-- 0 -->
      <g transform="translate(44.2375 297.381795) scale(0.1 -0.1)">
       <use xlink:href="#DejaVuSans-30"/>
      </g>
     </g>
    </g>
    <g id="ytick_2">
     <g id="line2d_11">
      <g>
       <use xlink:href="#mb53bea99b9" x="57.6" y="240.203674" style="stroke: #000000; stroke-width: 0.8"/>
      </g>
     </g>
     <g id="text_11">
      <!-- 5000 -->
      <g transform="translate(25.15 244.002893) scale(0.1 -0.1)">
       <use xlink:href="#DejaVuSans-35"/>
       <use xlink:href="#DejaVuSans-30" x="63.623047"/>
       <use xlink:href="#DejaVuSans-30" x="127.246094"/>
       <use xlink:href="#DejaVuSans-30" x="190.869141"/>
      </g>
     </g>
    </g>
    <g id="ytick_3">
     <g id="line2d_12">
      <g>
       <use xlink:href="#mb53bea99b9" x="57.6" y="186.824771" style="stroke: #000000; stroke-width: 0.8"/>
      </g>
     </g>
     <g id="text_12">
      <!-- 10000 -->
      <g transform="translate(18.7875 190.62399) scale(0.1 -0.1)">
       <use xlink:href="#DejaVuSans-31"/>
       <use xlink:href="#DejaVuSans-30" x="63.623047"/>
       <use xlink:href="#DejaVuSans-30" x="127.246094"/>
       <use xlink:href="#DejaVuSans-30" x="190.869141"/>
       <use xlink:href="#DejaVuSans-30" x="254.492188"/>
      </g>
     </g>
    </g>
    <g id="ytick_4">
     <g id="line2d_13">
      <g>
       <use xlink:href="#mb53bea99b9" x="57.6" y="133.445869" style="stroke: #000000; stroke-width: 0.8"/>
      </g>
     </g>
     <g id="text_13">
      <!-- 15000 -->
      <g transform="translate(18.7875 137.245088) scale(0.1 -0.1)">
       <use xlink:href="#DejaVuSans-31"/>
       <use xlink:href="#DejaVuSans-35" x="63.623047"/>
       <use xlink:href="#DejaVuSans-30" x="127.246094"/>
       <use xlink:href="#DejaVuSans-30" x="190.869141"/>
       <use xlink:href="#DejaVuSans-30" x="254.492188"/>
      </g>
     </g>
    </g>
    <g id="ytick_5">
     <g id="line2d_14">
      <g>
       <use xlink:href="#mb53bea99b9" x="57.6" y="80.066967" style="stroke: #000000; stroke-width: 0.8"/>
      </g>
     </g>
     <g id="text_14">
      <!-- 20000 -->
      <g transform="translate(18.7875 83.866185) scale(0.1 -0.1)">
       <use xlink:href="#DejaVuSans-32"/>
       <use xlink:href="#DejaVuSans-30" x="63.623047"/>
       <use xlink:href="#DejaVuSans-30" x="127.246094"/>
       <use xlink:href="#DejaVuSans-30" x="190.869141"/>
       <use xlink:href="#DejaVuSans-30" x="254.492188"/>
      </g>
     </g>
    </g>
   </g>
   <g id="line2d_15">
    <path d="M 73.832727 291.216555 
L 73.995136 289.140808 
L 74.157544 291.210066 
L 74.319953 291.220084 
L 74.482361 289.959606 
L 74.64477 291.06817 
L 74.807178 289.884473 
L 74.969587 291.29982 
L 75.131995 290.408211 
L 75.294404 291.210066 
L 75.619221 291.210066 
L 75.781629 291.105915 
L 76.106446 289.035855 
L 76.268854 291.210066 
L 76.75608 291.298436 
L 76.918488 289.671381 
L 77.080897 290.528236 
L 77.243305 290.173863 
L 77.405714 291.210066 
L 77.568122 291.140511 
L 77.730531 291.580409 
L 77.892939 291.310904 
L 78.055348 289.892316 
L 78.217756 291.312321 
L 78.380165 289.830478 
L 78.542573 291.199572 
L 78.704982 291.067415 
L 80.004249 291.301922 
L 80.166658 290.061798 
L 80.329066 291.221356 
L 80.491475 291.350985 
L 80.653883 291.229653 
L 80.816292 289.940725 
L 80.9787 291.210066 
L 81.141109 291.210066 
L 81.303517 291.440296 
L 81.628334 291.239208 
L 82.277968 291.234534 
L 82.602785 291.22154 
L 82.765194 290.329407 
L 82.927602 291.186006 
L 83.09001 290.714875 
L 83.252419 291.446076 
L 83.414827 291.321704 
L 83.577236 291.3928 
L 83.902053 291.230957 
L 84.714095 291.220084 
L 85.038912 291.516983 
L 85.201321 291.553095 
L 85.363729 289.8146 
L 85.526138 289.678936 
L 85.688546 291.314131 
L 86.013363 291.210066 
L 86.500588 291.220084 
L 86.662997 290.171902 
L 86.825405 291.210066 
L 86.987814 289.620345 
L 87.150222 291.255707 
L 87.312631 289.50124 
L 87.637448 290.111511 
L 87.799856 291.312321 
L 87.962265 289.013353 
L 88.124673 291.285038 
L 88.611899 291.221356 
L 88.774307 291.228407 
L 88.936716 291.347561 
L 89.099124 291.210066 
L 89.261533 289.102724 
L 89.423941 289.817532 
L 89.58635 291.210066 
L 89.748758 291.396175 
L 89.911166 291.304434 
L 90.073575 291.705043 
L 90.235983 291.406184 
L 90.398392 291.430761 
L 90.723209 291.301852 
L 91.535251 291.301852 
L 91.69766 291.419441 
L 92.184885 291.38601 
L 92.347294 290.485625 
L 92.509702 290.704254 
L 92.672111 290.472704 
L 92.834519 290.51556 
L 92.996928 290.435231 
L 93.159336 290.505098 
L 93.321745 290.871265 
L 93.484153 290.52345 
L 93.646561 291.339753 
L 94.133787 291.38004 
L 100.792534 291.322819 
L 100.954943 291.29877 
L 101.117351 291.419975 
L 101.27976 291.29877 
L 101.442168 291.427575 
L 101.604577 291.322819 
L 101.766985 291.621378 
L 102.091802 291.51506 
L 102.416619 291.493124 
L 102.579028 291.604647 
L 102.741436 291.459436 
L 103.553479 291.606667 
L 103.715887 291.476992 
L 104.527929 291.618526 
L 104.690338 291.506483 
L 105.015155 291.51506 
L 108.912958 291.549319 
L 109.075367 291.672174 
L 109.725001 291.541614 
L 110.537043 291.498068 
L 111.186677 291.607499 
L 111.511494 291.516549 
L 111.673902 291.498068 
L 111.836311 291.601956 
L 111.998719 291.516549 
L 112.323536 291.60934 
L 112.485945 291.507497 
L 112.648353 291.642229 
L 113.297987 291.508744 
L 113.947621 291.600573 
L 114.11003 291.507497 
L 114.272438 291.636871 
L 114.597255 291.597397 
L 114.922072 291.681211 
L 115.409297 291.686307 
L 115.571706 291.498068 
L 116.058931 291.700869 
L 116.22134 291.430864 
L 116.546157 291.605078 
L 117.195791 291.583529 
L 117.358199 291.653477 
L 117.520608 291.551723 
L 117.845425 291.640301 
L 118.007833 291.546082 
L 118.33265 291.583529 
L 119.307101 291.546304 
L 119.469509 291.419472 
L 119.794326 291.797607 
L 120.119143 291.832773 
L 120.281552 291.614754 
L 120.44396 291.643215 
L 120.606369 291.536601 
L 120.768777 291.679066 
L 120.931186 291.633756 
L 121.093594 291.408899 
L 121.256003 291.578824 
L 121.418411 291.509592 
L 121.58082 291.776046 
L 121.743228 291.262255 
L 121.905636 291.70438 
L 122.880087 291.53236 
L 123.042496 291.62671 
L 123.367313 291.948493 
L 123.69213 291.605557 
L 123.854538 291.648454 
L 124.179355 291.549899 
L 124.341764 291.528519 
L 124.504172 291.681143 
L 124.666581 291.583971 
L 124.828989 291.789233 
L 125.153806 291.447933 
L 125.316214 291.554055 
L 125.478623 291.80149 
L 125.80344 291.590163 
L 126.453074 291.647924 
L 126.615482 291.523295 
L 126.777891 291.814881 
L 126.940299 291.628313 
L 127.102708 291.643746 
L 127.265116 291.51506 
L 127.427525 291.634942 
L 128.239567 291.424549 
L 128.401976 291.616205 
L 129.214018 291.560373 
L 129.376426 291.760417 
L 129.701243 291.531616 
L 129.863652 291.620217 
L 130.02606 291.523069 
L 130.675694 291.605787 
L 130.838103 291.5169 
L 131.000511 291.623501 
L 131.325328 291.533791 
L 131.487737 291.588927 
L 131.650145 291.336319 
L 131.974962 291.577874 
L 132.137371 291.503994 
L 132.462187 291.759012 
L 132.624596 291.450934 
L 132.787004 291.545748 
L 132.949413 290.2932 
L 133.111821 290.773342 
L 133.27423 291.635621 
L 133.436638 291.42678 
L 133.761455 291.632483 
L 133.923864 291.962653 
L 134.086272 291.531263 
L 134.248681 291.581523 
L 134.411089 291.798615 
L 134.735906 291.524498 
L 136.035174 291.558812 
L 136.684808 291.526803 
L 137.984076 291.566918 
L 138.146484 291.430513 
L 138.471301 291.512436 
L 139.770569 291.627769 
L 139.932977 291.445595 
L 140.095386 291.454743 
L 140.257794 291.624487 
L 140.582611 291.413385 
L 140.74502 291.564641 
L 141.232245 291.380627 
L 141.394654 291.619201 
L 141.557062 291.437706 
L 142.044288 291.793853 
L 142.206696 291.577971 
L 142.369105 291.633901 
L 142.531513 291.525001 
L 142.693922 291.909641 
L 142.85633 291.924526 
L 143.018738 291.506491 
L 143.181147 291.711758 
L 143.505964 290.8451 
L 143.668372 291.924151 
L 143.993189 291.276234 
L 144.155598 291.627221 
L 144.318006 291.43779 
L 144.480415 290.453361 
L 144.642823 291.53667 
L 145.130049 291.417252 
L 145.292457 290.624856 
L 145.454866 291.764332 
L 145.617274 291.445987 
L 145.942091 291.647636 
L 146.1045 291.419725 
L 146.266908 291.645663 
L 146.754133 291.566661 
L 146.916542 291.320046 
L 147.07895 290.320753 
L 147.241359 291.569479 
L 147.566176 291.622138 
L 147.728584 291.729495 
L 147.890993 291.392256 
L 148.053401 291.711249 
L 148.21581 291.617665 
L 148.378218 291.375628 
L 148.865444 291.722503 
L 149.027852 291.500727 
L 149.190261 291.58782 
L 149.352669 291.539321 
L 149.515078 291.366638 
L 149.677486 291.626808 
L 149.839894 291.363519 
L 150.002303 291.618474 
L 150.164711 291.487893 
L 150.489528 291.520468 
L 150.651937 291.44861 
L 150.976754 291.746234 
L 151.139162 291.423768 
L 151.301571 291.688431 
L 151.788796 291.38148 
L 151.951205 291.810024 
L 152.276022 291.413665 
L 152.600839 291.639463 
L 152.925656 291.665136 
L 153.088064 291.688787 
L 153.250473 291.401413 
L 153.412881 291.595611 
L 153.737698 291.61344 
L 153.900106 278.914186 
L 154.062515 291.282587 
L 154.224923 53.568 
L 154.387332 291.100129 
L 154.54974 291.200854 
L 154.874557 291.047997 
L 155.036966 291.284452 
L 155.199374 291.054338 
L 155.524191 291.538367 
L 155.6866 291.233438 
L 155.849008 291.274174 
L 156.011417 291.746727 
L 156.173825 291.519072 
L 156.498642 291.669683 
L 156.661051 291.889617 
L 156.985867 291.565982 
L 157.148276 291.717432 
L 157.310684 291.587496 
L 157.473093 291.659221 
L 157.635501 291.420406 
L 157.79791 291.775324 
L 157.960318 291.594774 
L 158.122727 291.684507 
L 158.285135 291.404605 
L 158.447544 291.608961 
L 158.772361 291.367454 
L 159.746812 291.578003 
L 160.071629 291.401413 
L 160.234037 291.632866 
L 160.396445 291.555547 
L 160.558854 291.66821 
L 160.721262 291.518557 
L 161.208488 291.621675 
L 161.370896 291.535403 
L 161.695713 291.552245 
L 162.182939 291.481411 
L 162.345347 291.660129 
L 162.670164 291.498345 
L 162.832573 291.50015 
L 162.994981 291.644647 
L 163.319798 291.496049 
L 163.644615 291.715662 
L 163.969432 291.482694 
L 164.13184 291.766647 
L 164.456657 291.417252 
L 164.781474 291.635817 
L 164.943883 291.612728 
L 165.106291 291.855076 
L 165.593517 291.67487 
L 165.755925 291.77406 
L 166.243151 291.642016 
L 166.405559 291.757467 
L 166.730376 291.636272 
L 166.892785 291.843961 
L 167.055193 291.659492 
L 167.217602 291.849624 
L 167.704827 291.769278 
L 167.867235 291.600035 
L 168.354461 291.7587 
L 168.679278 291.668944 
L 168.841686 291.853586 
L 169.004095 291.675508 
L 169.166503 291.983449 
L 169.328912 291.659492 
L 169.49132 291.914607 
L 169.653729 291.615401 
L 169.816137 291.770606 
L 169.978546 291.707318 
L 170.140954 291.819119 
L 170.465771 291.678091 
L 170.952996 291.698974 
L 171.115405 291.586425 
L 171.277813 291.971067 
L 171.440222 291.685823 
L 171.60263 291.980349 
L 171.765039 291.670884 
L 172.414673 291.723252 
L 172.577081 292.121517 
L 172.73949 291.993665 
L 172.901898 291.710694 
L 173.064307 291.845265 
L 173.226715 291.651068 
L 173.389124 290.29345 
L 173.551532 291.740985 
L 174.038758 291.845265 
L 174.201166 290.760171 
L 174.363575 291.707318 
L 174.525983 291.870959 
L 174.688391 291.745184 
L 174.8508 291.870849 
L 175.013208 291.693291 
L 175.175617 290.84088 
L 175.338025 292.086886 
L 175.500434 291.730862 
L 175.662842 292.367564 
L 175.825251 291.657577 
L 175.987659 292.129443 
L 176.150068 291.755976 
L 176.312476 292.004213 
L 176.799702 291.990341 
L 176.96211 291.708406 
L 177.124519 291.989747 
L 177.286927 291.67642 
L 177.449336 292.164757 
L 177.611744 291.873924 
L 178.261378 292.103235 
L 178.423786 291.769755 
L 178.586195 291.868808 
L 178.748603 291.747696 
L 178.911012 291.887319 
L 179.07342 291.705094 
L 179.398237 291.774863 
L 179.560646 292.362701 
L 179.723054 290.245593 
L 179.885463 292.556865 
L 180.047871 291.768442 
L 180.21028 291.727993 
L 180.372688 291.811559 
L 180.535097 291.659367 
L 180.859914 291.779145 
L 181.022322 291.656127 
L 181.184731 289.198592 
L 181.347139 291.530306 
L 181.671956 291.676299 
L 181.996773 291.48966 
L 182.32159 292.00382 
L 182.483998 291.639986 
L 182.646407 292.119098 
L 182.808815 292.086638 
L 182.971224 291.727688 
L 183.133632 292.13053 
L 183.296041 292.073801 
L 183.458449 291.747077 
L 183.620858 292.131622 
L 183.945675 292.056479 
L 184.108083 291.627525 
L 184.4329 291.725725 
L 184.595309 291.992243 
L 184.757717 291.623212 
L 184.920126 291.732094 
L 185.082534 291.578943 
L 185.407351 291.749235 
L 185.569759 291.417242 
L 185.732168 291.61447 
L 185.894576 291.563659 
L 186.056985 292.11282 
L 186.219393 291.590133 
L 186.54421 291.572123 
L 186.706619 291.827239 
L 187.031436 291.599382 
L 187.68107 291.89463 
L 187.843478 291.68857 
L 188.168295 291.825111 
L 188.330704 291.599382 
L 188.493112 291.826375 
L 188.65552 291.52962 
L 188.817929 289.073311 
L 189.142746 292.018674 
L 189.305154 291.608972 
L 189.467563 291.820904 
L 189.629971 291.581644 
L 189.79238 291.666473 
L 189.954788 291.606698 
L 190.117197 290.793285 
L 190.279605 291.611452 
L 190.442014 291.513747 
L 190.604422 292.060646 
L 190.766831 291.618797 
L 190.929239 292.062513 
L 191.091648 291.608419 
L 191.254056 291.623624 
L 191.416465 292.052261 
L 191.578873 291.554951 
L 191.90369 291.640295 
L 192.066099 292.069446 
L 192.228507 292.065276 
L 192.390915 291.576667 
L 192.553324 291.964919 
L 192.715732 292.02773 
L 192.878141 291.637366 
L 193.040549 292.034035 
L 193.202958 291.479818 
L 193.365366 291.521628 
L 193.527775 292.059036 
L 193.690183 291.634034 
L 193.852592 291.674031 
L 194.015 291.569454 
L 194.177409 289.762484 
L 194.339817 291.752104 
L 194.664634 291.559293 
L 194.827043 291.846568 
L 194.989451 291.634034 
L 195.314268 291.683593 
L 196.288719 291.65276 
L 196.451127 291.606698 
L 196.613536 292.036454 
L 196.775944 291.702612 
L 197.425578 291.618797 
L 197.587987 292.109283 
L 197.750395 292.02902 
L 197.912804 292.079125 
L 198.075212 291.677468 
L 198.400029 291.673636 
L 198.562438 292.025029 
L 198.724846 291.606698 
L 198.887255 291.673636 
L 199.049663 292.023689 
L 199.212071 291.618797 
L 199.37448 291.65276 
L 199.536888 292.008119 
L 199.699297 291.673636 
L 199.861705 291.720524 
L 200.024114 292.219051 
L 200.836156 292.006256 
L 200.998565 291.896536 
L 201.160973 292.032964 
L 201.48579 292.034035 
L 201.810607 292.194773 
L 201.973016 292.017625 
L 202.135424 291.340215 
L 202.297833 292.20189 
L 202.460241 292.032964 
L 202.62265 292.197779 
L 202.785058 291.879486 
L 202.947466 292.043598 
L 203.109875 290.952084 
L 203.434692 292.105401 
L 203.759509 292.190934 
L 203.921917 292.183699 
L 204.084326 292.026348 
L 204.246734 292.186817 
L 204.409143 291.82457 
L 204.571551 292.147998 
L 204.73396 291.931946 
L 204.896368 292.043605 
L 205.058777 291.77059 
L 205.221185 292.297753 
L 205.546002 292.211481 
L 205.708411 291.611473 
L 205.870819 291.539199 
L 206.033228 292.248574 
L 206.195636 292.08087 
L 206.358044 291.680071 
L 206.520453 292.133169 
L 206.682861 291.663708 
L 206.84527 292.094631 
L 207.007678 292.074583 
L 207.170087 291.389241 
L 207.332495 292.089322 
L 207.494904 291.587756 
L 207.657312 292.092766 
L 207.819721 292.114318 
L 207.982129 291.780438 
L 208.144538 292.053625 
L 208.306946 291.826193 
L 208.469355 292.082567 
L 208.794172 292.112458 
L 208.95658 292.250978 
L 209.118989 291.601847 
L 209.281397 291.634229 
L 209.443806 292.221033 
L 209.606214 292.067483 
L 209.768622 291.691001 
L 209.931031 292.084869 
L 210.093439 291.346332 
L 210.255848 292.064971 
L 210.580665 291.578352 
L 210.743073 291.681976 
L 210.905482 292.090009 
L 211.06789 291.753672 
L 211.230299 291.696165 
L 211.392707 291.886693 
L 211.555116 291.673203 
L 211.717524 291.94141 
L 212.20475 291.660176 
L 212.691975 291.718598 
L 212.854384 292.14548 
L 213.179201 291.710499 
L 213.341609 291.638274 
L 213.504017 291.792182 
L 213.666426 292.123032 
L 213.828834 291.880068 
L 213.991243 292.091702 
L 214.31606 291.713073 
L 214.478468 291.843451 
L 214.640877 291.469478 
L 214.803285 291.654749 
L 214.965694 291.616958 
L 215.290511 291.791949 
L 215.452919 291.62856 
L 215.615328 291.853053 
L 215.777736 291.679664 
L 215.940145 292.199734 
L 216.264962 291.57007 
L 216.42737 291.85677 
L 216.589779 291.895587 
L 216.752187 291.755056 
L 217.077004 291.90534 
L 217.239412 291.892731 
L 217.401821 291.678556 
L 217.564229 292.063709 
L 217.889046 291.582219 
L 218.051455 291.880068 
L 218.213863 291.875341 
L 218.376272 292.077191 
L 218.701089 291.902804 
L 219.025906 291.80989 
L 219.188314 292.239031 
L 219.350723 291.843282 
L 219.67554 291.734631 
L 219.837948 291.832948 
L 220.000357 292.209146 
L 220.162765 291.769802 
L 220.325173 291.867575 
L 220.64999 291.444468 
L 220.812399 291.766847 
L 220.974807 291.613118 
L 221.137216 291.773283 
L 221.299624 291.593301 
L 221.462033 291.80938 
L 221.624441 291.596102 
L 221.78685 291.680673 
L 221.949258 292.303542 
L 222.111667 291.764156 
L 222.436484 291.723916 
L 222.598892 291.737364 
L 222.761301 291.963743 
L 222.923709 291.708751 
L 223.086118 291.760132 
L 223.248526 292.045039 
L 223.410935 291.715274 
L 223.573343 291.720732 
L 223.89816 291.438574 
L 224.060568 291.610962 
L 224.222977 292.028475 
L 224.385385 292.811545 
L 224.547794 291.705536 
L 224.710202 291.797887 
L 224.872611 291.633714 
L 225.035019 291.831383 
L 225.197428 291.596381 
L 225.522245 291.811764 
L 225.684653 291.482161 
L 225.847062 292.816617 
L 226.171879 291.572442 
L 226.496696 292.671332 
L 226.659104 295.488 
L 226.821513 291.609198 
L 227.308738 291.957469 
L 227.633555 291.570586 
L 227.958372 291.65245 
L 228.12078 291.938451 
L 228.283189 291.549874 
L 228.445597 291.529127 
L 228.608006 291.727184 
L 228.770414 291.562729 
L 228.932823 291.632609 
L 229.25764 291.574109 
L 229.420048 291.806606 
L 229.582457 291.610096 
L 229.744865 292.002575 
L 229.907274 291.590336 
L 231.044133 291.583087 
L 231.36895 291.765432 
L 231.531358 291.645433 
L 231.693767 291.910808 
L 231.856175 291.646825 
L 232.180992 291.517339 
L 232.343401 292.058846 
L 232.505809 291.726277 
L 233.317852 291.692232 
L 233.48026 291.84967 
L 233.642669 291.779423 
L 233.805077 292.028639 
L 233.967486 291.737933 
L 234.129894 292.062689 
L 234.292303 291.757 
L 234.617119 292.057814 
L 234.941936 292.067271 
L 235.266753 291.720602 
L 235.429162 292.051701 
L 235.59157 291.856945 
L 235.753979 291.842834 
L 235.916387 291.608119 
L 236.078796 292.062048 
L 236.241204 291.711081 
L 236.403613 291.687499 
L 236.566021 291.80317 
L 236.72843 291.57972 
L 236.890838 291.56509 
L 237.215655 291.77294 
L 237.540472 291.72374 
L 237.702881 291.549219 
L 237.865289 291.663589 
L 238.027697 291.428011 
L 238.352514 291.742007 
L 238.677331 291.53748 
L 238.83974 291.739194 
L 239.002148 291.532723 
L 239.164557 291.778192 
L 239.651782 291.686664 
L 239.814191 291.812254 
L 239.976599 291.65989 
L 240.139008 291.837477 
L 240.301416 291.685775 
L 240.463825 291.825103 
L 240.626233 291.763543 
L 240.788642 292.096464 
L 241.275867 291.952158 
L 241.438276 291.555329 
L 241.925501 291.932002 
L 242.087909 291.755149 
L 242.412726 291.956614 
L 242.575135 291.931267 
L 242.737543 291.593285 
L 243.224769 291.897214 
L 243.387177 292.931708 
L 243.549586 291.58257 
L 243.711994 291.940123 
L 244.361628 291.870599 
L 244.524037 291.456714 
L 244.686445 291.909465 
L 246.472938 291.587829 
L 246.960164 291.765438 
L 247.284981 291.554622 
L 247.447389 291.688605 
L 248.42184 291.678639 
L 249.396291 291.709872 
L 249.721108 291.713075 
L 250.53315 291.666279 
L 250.695559 291.986454 
L 250.857967 291.659514 
L 251.182784 291.652451 
L 251.345193 292.06775 
L 251.67001 291.968867 
L 251.832418 291.664664 
L 251.994827 292.003314 
L 252.157235 291.986673 
L 252.319643 291.632526 
L 252.64446 291.671614 
L 252.806869 291.971616 
L 253.78132 292.028216 
L 253.943728 291.636021 
L 254.106137 291.635819 
L 254.268545 292.020842 
L 254.430954 292.034762 
L 254.593362 291.714256 
L 254.755771 289.996525 
L 254.918179 292.025308 
L 255.080588 291.663136 
L 255.242996 291.889708 
L 255.405405 291.652451 
L 255.567813 291.632526 
L 255.730221 291.999261 
L 256.055038 291.66134 
L 256.217447 292.042589 
L 256.542264 292.017116 
L 256.704672 291.778555 
L 256.867081 292.675278 
L 257.029489 292.692725 
L 257.191898 292.035673 
L 257.354306 291.881529 
L 257.679123 293.036048 
L 258.166349 292.945036 
L 258.328757 291.314108 
L 258.491166 292.826433 
L 258.653574 291.609543 
L 258.815983 291.665484 
L 258.978391 292.719341 
L 259.303208 292.765843 
L 259.465616 291.785538 
L 259.790433 291.748153 
L 260.11525 292.062296 
L 260.277659 291.678635 
L 260.440067 292.660687 
L 260.602476 292.745756 
L 260.764884 293.073202 
L 261.089701 292.680648 
L 261.414518 292.844071 
L 261.576927 292.85036 
L 261.739335 291.729452 
L 261.901744 292.751101 
L 262.064152 292.779987 
L 262.226561 291.748339 
L 262.388969 291.881155 
L 262.551378 291.659549 
L 262.713786 291.635259 
L 262.876194 293.572607 
L 263.038603 293.039518 
L 263.201011 292.903477 
L 263.36342 292.942791 
L 263.525828 293.212415 
L 263.688237 292.825399 
L 263.850645 292.794831 
L 264.013054 293.032455 
L 264.337871 292.752803 
L 264.500279 292.871659 
L 264.662688 293.339968 
L 264.825096 293.165455 
L 264.987505 293.335051 
L 265.149913 293.195171 
L 265.312322 292.855391 
L 265.47473 293.30482 
L 265.961956 293.297422 
L 266.124364 292.995061 
L 266.286772 290.971933 
L 266.449181 187.322001 
L 266.611589 291.076122 
L 266.773998 291.78661 
L 266.936406 291.535763 
L 267.098815 292.709878 
L 267.261223 291.548941 
L 267.423632 293.12176 
L 267.58604 292.766313 
L 267.748449 293.036328 
L 267.910857 286.753947 
L 268.073266 291.803551 
L 268.235674 291.892402 
L 268.398083 291.138644 
L 268.560491 291.122882 
L 268.7229 292.650946 
L 268.885308 291.860016 
L 269.372534 291.85243 
L 269.534942 291.826096 
L 269.69735 291.961704 
L 269.859759 288.538406 
L 270.022167 291.741472 
L 270.184576 291.376157 
L 270.346984 291.439064 
L 270.509393 292.164494 
L 270.671801 292.187453 
L 270.83421 291.707219 
L 270.996618 292.221392 
L 271.159027 291.890887 
L 271.321435 290.841738 
L 271.483844 292.136114 
L 271.646252 291.288967 
L 271.808661 291.390296 
L 271.971069 291.95703 
L 272.133478 291.481429 
L 272.295886 292.164133 
L 272.458295 292.195959 
L 272.620703 291.564455 
L 272.783112 291.466606 
L 272.94552 292.144624 
L 273.107929 291.432583 
L 273.270337 292.201053 
L 273.432745 291.605227 
L 273.595154 292.184381 
L 273.757562 292.203195 
L 274.082379 291.674048 
L 274.244788 291.578847 
L 274.569605 291.880313 
L 274.732013 291.723308 
L 275.05683 292.119739 
L 275.219239 287.079381 
L 275.381647 291.89417 
L 275.544056 291.898263 
L 275.706464 291.570188 
L 275.868873 291.580386 
L 276.031281 291.849196 
L 276.19369 292.746421 
L 276.518507 292.748557 
L 276.680915 291.716056 
L 276.843323 292.806419 
L 277.005732 291.46989 
L 277.16814 291.545888 
L 277.330549 291.454286 
L 277.655366 291.597931 
L 277.817774 292.754201 
L 277.980183 291.532261 
L 278.629817 291.461163 
L 278.792225 291.655141 
L 278.954634 291.48052 
L 279.766676 291.561568 
L 279.929085 291.529687 
L 280.091493 291.880652 
L 280.253901 291.655141 
L 280.741127 291.551141 
L 280.903535 291.406163 
L 281.228352 291.658776 
L 281.553169 291.561805 
L 282.040395 291.665845 
L 282.52762 291.583792 
L 283.014846 291.632807 
L 283.177254 291.083154 
L 283.339663 291.140914 
L 283.502071 291.784848 
L 283.66448 291.557545 
L 283.826888 292.112324 
L 283.989296 291.632759 
L 284.151705 291.674989 
L 284.314113 291.540651 
L 284.476522 292.079182 
L 284.63893 291.539907 
L 284.801339 292.099057 
L 285.126156 291.002496 
L 285.288564 291.659089 
L 285.450973 290.956693 
L 285.613381 291.674989 
L 285.77579 291.045435 
L 285.938198 291.674989 
L 286.263015 291.65945 
L 286.425424 293.322348 
L 286.587832 290.960756 
L 286.750241 291.63876 
L 287.075058 291.127704 
L 287.399874 292.110651 
L 287.562283 291.595827 
L 287.724691 291.653015 
L 287.8871 291.316485 
L 288.049508 291.612575 
L 288.211917 291.494444 
L 288.699142 291.723159 
L 288.861551 291.494444 
L 289.023959 292.846284 
L 289.186368 292.851201 
L 289.348776 291.703797 
L 289.511185 292.848381 
L 290.485636 292.928551 
L 290.810452 293.101341 
L 290.972861 292.92754 
L 291.135269 292.919404 
L 291.297678 181.893701 
L 291.460086 293.088578 
L 291.784903 292.976869 
L 292.10972 293.006137 
L 292.272129 292.783597 
L 292.434537 291.400834 
L 292.596946 291.36239 
L 292.759354 292.937116 
L 292.921763 292.945494 
L 293.084171 292.311462 
L 293.24658 292.927717 
L 293.408988 291.382732 
L 293.571397 292.304735 
L 293.733805 292.156873 
L 293.896214 293.040621 
L 294.058622 292.978827 
L 294.221031 289.419733 
L 294.383439 291.433493 
L 294.545847 291.517967 
L 294.708256 292.956277 
L 295.033073 292.929848 
L 295.195481 292.841903 
L 295.35789 292.914694 
L 295.520298 293.122899 
L 295.682707 292.062424 
L 295.845115 289.545521 
L 296.007524 293.102905 
L 296.169932 292.044501 
L 296.332341 292.988277 
L 296.494749 293.049614 
L 296.819566 292.883678 
L 296.981975 291.31513 
L 297.144383 291.032918 
L 297.306792 291.476653 
L 297.4692 291.198445 
L 297.631609 292.853991 
L 297.794017 291.36956 
L 297.956425 292.969884 
L 298.118834 291.402514 
L 298.768468 291.364583 
L 298.930876 292.93459 
L 299.093285 292.10825 
L 299.255693 292.884319 
L 299.418102 292.318311 
L 299.58051 292.862038 
L 299.742919 291.440857 
L 299.905327 291.39344 
L 300.067736 290.404612 
L 300.230144 292.598304 
L 300.392553 292.833515 
L 300.554961 291.459661 
L 300.71737 292.858594 
L 301.042187 291.409147 
L 301.204595 291.370871 
L 301.367004 292.225003 
L 301.529412 292.232249 
L 301.69182 291.432891 
L 301.854229 292.598299 
L 302.016637 292.255922 
L 302.503863 292.263286 
L 302.666271 292.450168 
L 302.82868 292.254795 
L 303.153497 292.270743 
L 303.315905 292.733169 
L 303.478314 292.267031 
L 303.803131 292.315185 
L 303.965539 291.772264 
L 304.290356 291.754328 
L 304.452765 292.285165 
L 304.615173 288.942592 
L 304.777582 291.759153 
L 304.93999 292.250253 
L 305.102398 292.255454 
L 305.264807 291.721218 
L 305.427215 291.741631 
L 305.589624 291.615793 
L 305.752032 291.105305 
L 305.914441 291.369479 
L 306.076849 292.805529 
L 306.239258 292.786283 
L 306.401666 291.190847 
L 306.564075 292.528432 
L 306.726483 291.658136 
L 306.888892 291.413776 
L 307.0513 291.481451 
L 307.213709 290.800597 
L 307.376117 291.334169 
L 307.538526 289.805552 
L 307.700934 291.429051 
L 307.863343 291.5683 
L 308.18816 291.558705 
L 308.350568 290.943082 
L 308.512976 291.084088 
L 308.675385 291.482932 
L 308.837793 291.251058 
L 309.000202 291.538655 
L 309.16261 291.336349 
L 309.325019 291.505542 
L 309.487427 291.495145 
L 309.649836 290.609995 
L 309.974653 292.255061 
L 310.624287 291.362047 
L 311.273921 291.317953 
L 311.436329 291.465889 
L 311.598738 291.854122 
L 311.761146 291.2873 
L 311.923555 291.934287 
L 312.248371 291.531621 
L 312.41078 291.949408 
L 312.573188 291.873268 
L 312.735597 279.863383 
L 312.898005 291.888569 
L 313.060414 291.345865 
L 313.222822 291.942047 
L 313.385231 291.631064 
L 313.547639 291.639878 
L 313.710048 291.986423 
L 313.872456 292.014301 
L 314.034865 291.627916 
L 314.197273 292.940685 
L 314.359682 292.709006 
L 314.52209 291.913985 
L 314.684499 292.821188 
L 314.846907 291.58857 
L 315.009316 291.609035 
L 315.171724 291.135846 
L 315.334133 292.956635 
L 315.496541 293.145308 
L 315.821358 291.430623 
L 316.146175 291.392171 
L 316.308583 292.889717 
L 316.470992 289.962498 
L 316.6334 292.835807 
L 316.795809 275.911096 
L 316.958217 288.542391 
L 317.120626 291.448254 
L 317.283034 291.451151 
L 317.445443 290.899188 
L 317.607851 291.485656 
L 317.77026 291.283025 
L 317.932668 293.09994 
L 318.095077 291.254326 
L 318.257485 291.190137 
L 318.419894 291.303295 
L 318.582302 290.999811 
L 318.744711 292.887476 
L 319.069527 293.46662 
L 319.231936 293.331967 
L 319.394344 291.415248 
L 319.556753 291.328845 
L 319.719161 291.445953 
L 319.88157 291.256452 
L 320.043978 292.970443 
L 320.206387 292.717699 
L 320.368795 291.681662 
L 320.693612 291.572844 
L 320.856021 291.277818 
L 321.018429 291.629098 
L 321.180838 291.295538 
L 321.343246 291.584551 
L 321.505655 291.412909 
L 321.830472 293.051412 
L 321.99288 291.585812 
L 322.155289 291.290383 
L 322.317697 292.595466 
L 322.480106 291.419883 
L 322.642514 293.613491 
L 322.804922 293.36635 
L 322.967331 293.363798 
L 323.129739 291.427822 
L 323.292148 291.290383 
L 323.454556 291.423156 
L 323.616965 292.379533 
L 323.779373 292.335664 
L 323.941782 292.735935 
L 324.10419 292.317956 
L 324.266599 291.283382 
L 324.429007 291.223147 
L 324.591416 292.737545 
L 324.753824 291.331294 
L 324.916233 291.865207 
L 325.078641 294.06607 
L 325.24105 292.061777 
L 325.403458 292.256694 
L 325.728275 292.256962 
L 325.890684 292.279677 
L 326.053092 291.207624 
L 326.2155 292.289476 
L 326.377909 291.667821 
L 326.540317 291.776986 
L 326.702726 292.428819 
L 326.865134 292.085018 
L 328.164402 292.116033 
L 328.489219 292.603916 
L 328.651628 292.062473 
L 328.814036 292.369634 
L 328.976445 292.043275 
L 329.138853 292.391486 
L 329.46367 292.431375 
L 329.626078 292.05831 
L 330.438121 292.065895 
L 330.762938 292.297947 
L 331.087755 292.274802 
L 331.250163 291.534507 
L 331.57498 291.543035 
L 331.899797 291.57187 
L 332.062206 291.765047 
L 332.224614 292.223002 
L 332.387023 292.223002 
L 332.549431 292.057361 
L 332.71184 292.261673 
L 332.874248 292.227463 
L 333.036657 291.609317 
L 333.199065 292.242469 
L 333.361473 291.548838 
L 333.68629 291.580864 
L 333.848699 291.510566 
L 334.173516 291.554464 
L 334.335924 292.432907 
L 334.498333 291.561265 
L 334.660741 292.486221 
L 334.82315 292.321998 
L 334.985558 291.553124 
L 335.472784 291.573102 
L 336.447235 291.571723 
L 336.609643 291.708983 
L 336.772051 291.507941 
L 336.93446 292.320861 
L 337.096868 291.525819 
L 337.421685 291.863796 
L 337.584094 292.580354 
L 337.746502 292.619433 
L 337.908911 291.835293 
L 338.071319 291.811182 
L 338.233728 292.638921 
L 338.396136 291.845157 
L 338.558545 292.619433 
L 338.720953 291.640734 
L 338.883362 291.702753 
L 339.04577 292.584855 
L 339.695404 292.609389 
L 339.857813 291.725014 
L 340.020221 291.674792 
L 340.182629 292.619433 
L 340.507446 292.638921 
L 340.669855 291.62746 
L 340.832263 292.470686 
L 340.994672 291.813393 
L 341.15708 292.590374 
L 341.319489 291.638704 
L 341.481897 292.818889 
L 341.806714 292.625148 
L 341.969123 292.605983 
L 342.131531 291.926306 
L 342.29394 292.621252 
L 342.456348 291.729318 
L 342.943574 291.709017 
L 343.105982 292.65895 
L 343.268391 291.894846 
L 343.430799 291.720859 
L 343.593208 292.704306 
L 343.755616 291.882663 
L 343.918024 292.743641 
L 344.080433 291.842744 
L 344.40525 291.667636 
L 344.730067 291.720859 
L 345.054884 292.775365 
L 345.217292 291.695466 
L 345.379701 291.836912 
L 345.542109 291.701853 
L 345.704518 291.713739 
L 345.866926 291.869146 
L 346.029335 291.696126 
L 346.191743 291.834402 
L 346.354152 292.227596 
L 346.51656 291.879237 
L 347.003786 291.851598 
L 347.166194 291.72091 
L 347.328602 291.846227 
L 347.491011 291.677571 
L 347.653419 291.8958 
L 348.140645 291.916518 
L 348.303053 291.823382 
L 348.465462 291.889364 
L 348.62787 291.798515 
L 348.790279 291.882182 
L 349.277504 291.763635 
L 349.602321 291.875732 
L 350.089547 291.901509 
L 350.251955 291.592518 
L 350.414364 291.886772 
L 351.063997 291.742961 
L 351.226406 292.420409 
L 351.388814 291.90246 
L 351.551223 291.913965 
L 351.713631 291.734245 
L 351.87604 291.919504 
L 352.038448 291.712868 
L 352.200857 292.109347 
L 352.525674 292.047247 
L 352.688082 291.903391 
L 352.850491 292.093386 
L 353.012899 292.101336 
L 353.175308 291.978715 
L 353.337716 292.098434 
L 353.662533 291.921401 
L 353.824942 292.116044 
L 354.149759 291.397859 
L 354.312167 294.129735 
L 354.474575 294.159431 
L 354.636984 294.063049 
L 354.961801 290.603155 
L 355.124209 291.859532 
L 355.773843 291.865275 
L 355.936252 290.841759 
L 356.09866 292.350091 
L 356.261069 292.71023 
L 356.423477 291.866576 
L 356.585886 292.453524 
L 356.748294 290.590685 
L 356.910703 292.403434 
L 357.23552 289.955901 
L 357.397928 290.553517 
L 357.560337 291.87759 
L 357.722745 290.545408 
L 357.885153 290.551808 
L 358.047562 291.866576 
L 358.20997 290.546781 
L 358.372379 294.304195 
L 358.534787 294.03571 
L 358.697196 290.622721 
L 358.859604 292.763876 
L 359.022013 290.548751 
L 359.184421 292.609491 
L 359.509238 292.814584 
L 359.671647 293.55356 
L 359.834055 290.880065 
L 359.996464 290.880065 
L 360.158872 292.056479 
L 360.321281 290.878704 
L 360.646098 291.977793 
L 360.808506 291.97532 
L 360.970915 291.554532 
L 361.133323 292.046948 
L 361.295732 291.860229 
L 361.45814 292.047169 
L 361.620548 292.59527 
L 361.782957 292.059902 
L 361.945365 292.098755 
L 362.107774 291.968465 
L 362.270182 292.014294 
L 362.432591 292.56963 
L 362.594999 292.021368 
L 362.757408 292.46726 
L 362.919816 292.056883 
L 363.082225 292.573043 
L 363.244633 292.014294 
L 363.731859 291.994797 
L 363.894267 291.892016 
L 364.056676 292.110654 
L 364.219084 292.096751 
L 364.381493 291.744076 
L 364.70631 291.734669 
L 364.868718 291.913351 
L 365.193535 291.556246 
L 366.005577 291.617576 
L 366.167986 291.562544 
L 366.330394 292.623816 
L 366.492803 291.562544 
L 366.655211 291.545776 
L 366.81762 292.548734 
L 366.980028 292.548984 
L 367.142437 291.655936 
L 367.467254 291.576922 
L 367.792071 291.614532 
L 367.954479 292.215787 
L 368.116888 291.579931 
L 368.279296 292.440995 
L 368.441704 291.610476 
L 368.604113 291.567455 
L 368.766521 292.475052 
L 368.92893 292.470032 
L 369.091338 291.692627 
L 369.253747 291.706018 
L 369.416155 291.983037 
L 369.578564 291.687597 
L 369.740972 291.735333 
L 369.903381 292.390107 
L 370.065789 291.712484 
L 370.390606 291.652819 
L 371.04024 291.636431 
L 371.527466 291.640417 
L 371.852283 291.626566 
L 372.014691 291.798419 
L 372.177099 291.571543 
L 372.989142 291.639429 
L 373.15155 292.462394 
L 373.313959 291.604315 
L 373.476367 291.534625 
L 373.801184 291.574041 
L 373.963593 291.544926 
L 374.28841 291.651289 
L 374.613227 291.512014 
L 374.775635 291.779916 
L 375.100452 291.551118 
L 375.587677 291.56273 
L 375.750086 291.53913 
L 375.912494 292.437567 
L 376.074903 291.580097 
L 376.237311 291.571543 
L 376.39972 292.455365 
L 376.562128 291.685067 
L 376.724537 292.476282 
L 376.886945 291.735333 
L 377.211762 291.611939 
L 377.374171 292.456412 
L 377.536579 291.743575 
L 377.698988 291.580097 
L 377.861396 292.457538 
L 378.51103 292.445372 
L 378.673439 292.084893 
L 378.835847 292.422374 
L 379.323072 292.45093 
L 379.485481 291.599104 
L 379.810298 291.651289 
L 379.972706 292.417086 
L 380.135115 291.052897 
L 380.297523 291.587362 
L 380.459932 292.583569 
L 380.62234 291.62937 
L 380.784749 291.574041 
L 380.947157 292.432011 
L 381.109566 290.986213 
L 381.271974 292.456652 
L 381.596791 290.986213 
L 381.7592 292.480453 
L 381.921608 292.432011 
L 382.084017 292.735118 
L 382.246425 291.878824 
L 382.571242 291.875201 
L 382.73365 292.473517 
L 382.896059 290.924153 
L 383.220876 291.858616 
L 383.383284 291.877031 
L 383.545693 292.998493 
L 383.708101 291.781497 
L 383.87051 292.955725 
L 384.032918 292.463577 
L 384.195327 292.892797 
L 384.357735 291.635318 
L 384.520144 291.633968 
L 384.682552 292.90225 
L 384.844961 291.826963 
L 385.007369 291.642787 
L 385.169778 292.846604 
L 385.332186 291.89474 
L 385.494595 291.606542 
L 385.657003 291.849708 
L 385.819412 291.784121 
L 385.98182 292.454934 
L 386.144228 291.853843 
L 386.306637 292.650234 
L 386.469045 292.075333 
L 386.631454 291.96767 
L 386.793862 291.478331 
L 386.956271 292.671318 
L 387.118679 291.824062 
L 387.930722 291.985645 
L 388.09313 291.713012 
L 388.255539 292.80149 
L 388.417947 292.98508 
L 388.580356 292.987397 
L 388.742764 292.66652 
L 388.905173 291.718423 
L 389.067581 291.543505 
L 389.22999 291.618245 
L 389.392398 292.480465 
L 389.554806 292.507779 
L 389.717215 291.768235 
L 389.879623 292.479028 
L 390.20444 291.746903 
L 390.366849 291.79806 
L 390.529257 292.672861 
L 390.691666 291.79221 
L 390.854074 291.830228 
L 391.016483 291.698469 
L 391.178891 292.796303 
L 391.3413 291.777966 
L 391.503708 292.98508 
L 391.828525 292.978696 
L 391.990934 292.477928 
L 392.153342 292.987397 
L 394.264652 292.981532 
L 394.589469 292.98508 
L 394.751878 293.198234 
L 394.914286 292.699374 
L 395.239103 292.607034 
L 395.56392 292.608205 
L 395.726329 292.978696 
L 396.538371 292.978226 
L 396.700779 292.71663 
L 397.025596 292.838109 
L 397.67523 292.813848 
L 397.837639 291.766587 
L 398.487273 291.783199 
L 398.487273 291.783199 
" clip-path="url(#pdad43e0b5a)" style="fill: none; stroke: #1f77b4; stroke-width: 1.5; stroke-linecap: square"/>
   </g>
   <g id="patch_3">
    <path d="M 57.6 307.584 
L 57.6 41.472 
" style="fill: none; stroke: #000000; stroke-width: 0.8; stroke-linejoin: miter; stroke-linecap: square"/>
   </g>
   <g id="patch_4">
    <path d="M 414.72 307.584 
L 414.72 41.472 
" style="fill: none; stroke: #000000; stroke-width: 0.8; stroke-linejoin: miter; stroke-linecap: square"/>
   </g>
   <g id="patch_5">
    <path d="M 57.6 307.584 
L 414.72 307.584 
" style="fill: none; stroke: #000000; stroke-width: 0.8; stroke-linejoin: miter; stroke-linecap: square"/>
   </g>
   <g id="patch_6">
    <path d="M 57.6 41.472 
L 414.72 41.472 
" style="fill: none; stroke: #000000; stroke-width: 0.8; stroke-linejoin: miter; stroke-linecap: square"/>
   </g>
  </g>
 </g>
 <defs>
  <clipPath id="pdad43e0b5a">
   <rect x="57.6" y="41.472" width="357.12" height="266.112"/>
  </clipPath>
 </defs>
</svg>
