<?xml version="1.0" encoding="utf-8" standalone="no"?>
<!DOCTYPE svg PUBLIC "-//W3C//DTD SVG 1.1//EN"
  "http://www.w3.org/Graphics/SVG/1.1/DTD/svg11.dtd">
<svg xmlns:xlink="http://www.w3.org/1999/xlink" width="460.8pt" height="345.6pt" viewBox="0 0 460.8 345.6" xmlns="http://www.w3.org/2000/svg" version="1.1">
 <metadata>
  <rdf:RDF xmlns:dc="http://purl.org/dc/elements/1.1/" xmlns:cc="http://creativecommons.org/ns#" xmlns:rdf="http://www.w3.org/1999/02/22-rdf-syntax-ns#">
   <cc:Work>
    <dc:type rdf:resource="http://purl.org/dc/dcmitype/StillImage"/>
    <dc:date>2024-04-23T13:40:47.221334</dc:date>
    <dc:format>image/svg+xml</dc:format>
    <dc:creator>
     <cc:Agent>
      <dc:title>Matplotlib v3.7.2, https://matplotlib.org/</dc:title>
     </cc:Agent>
    </dc:creator>
   </cc:Work>
  </rdf:RDF>
 </metadata>
 <defs>
  <style type="text/css">*{stroke-linejoin: round; stroke-linecap: butt}</style>
 </defs>
 <g id="figure_1">
  <g id="patch_1">
   <path d="M 0 345.6 
L 460.8 345.6 
L 460.8 0 
L 0 0 
z
" style="fill: #ffffff"/>
  </g>
  <g id="axes_1">
   <g id="patch_2">
    <path d="M 57.6 307.584 
L 414.72 307.584 
L 414.72 41.472 
L 57.6 41.472 
z
" style="fill: #ffffff"/>
   </g>
   <g id="matplotlib.axis_1">
    <g id="xtick_1">
     <g id="line2d_1">
      <defs>
       <path id="m32e609e878" d="M 0 0 
L 0 3.5 
" style="stroke: #000000; stroke-width: 0.8"/>
      </defs>
      <g>
       <use xlink:href="#m32e609e878" x="73.832727" y="307.584" style="stroke: #000000; stroke-width: 0.8"/>
      </g>
     </g>
     <g id="text_1">
      <!-- 0 -->
      <g transform="translate(70.651477 322.182437) scale(0.1 -0.1)">
       <defs>
        <path id="DejaVuSans-30" d="M 2034 4250 
Q 1547 4250 1301 3770 
Q 1056 3291 1056 2328 
Q 1056 1369 1301 889 
Q 1547 409 2034 409 
Q 2525 409 2770 889 
Q 3016 1369 3016 2328 
Q 3016 3291 2770 3770 
Q 2525 4250 2034 4250 
z
M 2034 4750 
Q 2819 4750 3233 4129 
Q 3647 3509 3647 2328 
Q 3647 1150 3233 529 
Q 2819 -91 2034 -91 
Q 1250 -91 836 529 
Q 422 1150 422 2328 
Q 422 3509 836 4129 
Q 1250 4750 2034 4750 
z
" transform="scale(0.015625)"/>
       </defs>
       <use xlink:href="#DejaVuSans-30"/>
      </g>
     </g>
    </g>
    <g id="xtick_2">
     <g id="line2d_2">
      <g>
       <use xlink:href="#m32e609e878" x="138.893758" y="307.584" style="stroke: #000000; stroke-width: 0.8"/>
      </g>
     </g>
     <g id="text_2">
      <!-- 100 -->
      <g transform="translate(129.350008 322.182437) scale(0.1 -0.1)">
       <defs>
        <path id="DejaVuSans-31" d="M 794 531 
L 1825 531 
L 1825 4091 
L 703 3866 
L 703 4441 
L 1819 4666 
L 2450 4666 
L 2450 531 
L 3481 531 
L 3481 0 
L 794 0 
L 794 531 
z
" transform="scale(0.015625)"/>
       </defs>
       <use xlink:href="#DejaVuSans-31"/>
       <use xlink:href="#DejaVuSans-30" x="63.623047"/>
       <use xlink:href="#DejaVuSans-30" x="127.246094"/>
      </g>
     </g>
    </g>
    <g id="xtick_3">
     <g id="line2d_3">
      <g>
       <use xlink:href="#m32e609e878" x="203.95479" y="307.584" style="stroke: #000000; stroke-width: 0.8"/>
      </g>
     </g>
     <g id="text_3">
      <!-- 200 -->
      <g transform="translate(194.41104 322.182437) scale(0.1 -0.1)">
       <defs>
        <path id="DejaVuSans-32" d="M 1228 531 
L 3431 531 
L 3431 0 
L 469 0 
L 469 531 
Q 828 903 1448 1529 
Q 2069 2156 2228 2338 
Q 2531 2678 2651 2914 
Q 2772 3150 2772 3378 
Q 2772 3750 2511 3984 
Q 2250 4219 1831 4219 
Q 1534 4219 1204 4116 
Q 875 4013 500 3803 
L 500 4441 
Q 881 4594 1212 4672 
Q 1544 4750 1819 4750 
Q 2544 4750 2975 4387 
Q 3406 4025 3406 3419 
Q 3406 3131 3298 2873 
Q 3191 2616 2906 2266 
Q 2828 2175 2409 1742 
Q 1991 1309 1228 531 
z
" transform="scale(0.015625)"/>
       </defs>
       <use xlink:href="#DejaVuSans-32"/>
       <use xlink:href="#DejaVuSans-30" x="63.623047"/>
       <use xlink:href="#DejaVuSans-30" x="127.246094"/>
      </g>
     </g>
    </g>
    <g id="xtick_4">
     <g id="line2d_4">
      <g>
       <use xlink:href="#m32e609e878" x="269.015821" y="307.584" style="stroke: #000000; stroke-width: 0.8"/>
      </g>
     </g>
     <g id="text_4">
      <!-- 300 -->
      <g transform="translate(259.472071 322.182437) scale(0.1 -0.1)">
       <defs>
        <path id="DejaVuSans-33" d="M 2597 2516 
Q 3050 2419 3304 2112 
Q 3559 1806 3559 1356 
Q 3559 666 3084 287 
Q 2609 -91 1734 -91 
Q 1441 -91 1130 -33 
Q 819 25 488 141 
L 488 750 
Q 750 597 1062 519 
Q 1375 441 1716 441 
Q 2309 441 2620 675 
Q 2931 909 2931 1356 
Q 2931 1769 2642 2001 
Q 2353 2234 1838 2234 
L 1294 2234 
L 1294 2753 
L 1863 2753 
Q 2328 2753 2575 2939 
Q 2822 3125 2822 3475 
Q 2822 3834 2567 4026 
Q 2313 4219 1838 4219 
Q 1578 4219 1281 4162 
Q 984 4106 628 3988 
L 628 4550 
Q 988 4650 1302 4700 
Q 1616 4750 1894 4750 
Q 2613 4750 3031 4423 
Q 3450 4097 3450 3541 
Q 3450 3153 3228 2886 
Q 3006 2619 2597 2516 
z
" transform="scale(0.015625)"/>
       </defs>
       <use xlink:href="#DejaVuSans-33"/>
       <use xlink:href="#DejaVuSans-30" x="63.623047"/>
       <use xlink:href="#DejaVuSans-30" x="127.246094"/>
      </g>
     </g>
    </g>
    <g id="xtick_5">
     <g id="line2d_5">
      <g>
       <use xlink:href="#m32e609e878" x="334.076852" y="307.584" style="stroke: #000000; stroke-width: 0.8"/>
      </g>
     </g>
     <g id="text_5">
      <!-- 400 -->
      <g transform="translate(324.533102 322.182437) scale(0.1 -0.1)">
       <defs>
        <path id="DejaVuSans-34" d="M 2419 4116 
L 825 1625 
L 2419 1625 
L 2419 4116 
z
M 2253 4666 
L 3047 4666 
L 3047 1625 
L 3713 1625 
L 3713 1100 
L 3047 1100 
L 3047 0 
L 2419 0 
L 2419 1100 
L 313 1100 
L 313 1709 
L 2253 4666 
z
" transform="scale(0.015625)"/>
       </defs>
       <use xlink:href="#DejaVuSans-34"/>
       <use xlink:href="#DejaVuSans-30" x="63.623047"/>
       <use xlink:href="#DejaVuSans-30" x="127.246094"/>
      </g>
     </g>
    </g>
    <g id="xtick_6">
     <g id="line2d_6">
      <g>
       <use xlink:href="#m32e609e878" x="399.137883" y="307.584" style="stroke: #000000; stroke-width: 0.8"/>
      </g>
     </g>
     <g id="text_6">
      <!-- 500 -->
      <g transform="translate(389.594133 322.182437) scale(0.1 -0.1)">
       <defs>
        <path id="DejaVuSans-35" d="M 691 4666 
L 3169 4666 
L 3169 4134 
L 1269 4134 
L 1269 2991 
Q 1406 3038 1543 3061 
Q 1681 3084 1819 3084 
Q 2600 3084 3056 2656 
Q 3513 2228 3513 1497 
Q 3513 744 3044 326 
Q 2575 -91 1722 -91 
Q 1428 -91 1123 -41 
Q 819 9 494 109 
L 494 744 
Q 775 591 1075 516 
Q 1375 441 1709 441 
Q 2250 441 2565 725 
Q 2881 1009 2881 1497 
Q 2881 1984 2565 2268 
Q 2250 2553 1709 2553 
Q 1456 2553 1204 2497 
Q 953 2441 691 2322 
L 691 4666 
z
" transform="scale(0.015625)"/>
       </defs>
       <use xlink:href="#DejaVuSans-35"/>
       <use xlink:href="#DejaVuSans-30" x="63.623047"/>
       <use xlink:href="#DejaVuSans-30" x="127.246094"/>
      </g>
     </g>
    </g>
   </g>
   <g id="matplotlib.axis_2">
    <g id="ytick_1">
     <g id="line2d_7">
      <defs>
       <path id="m079943892e" d="M 0 0 
L -3.5 0 
" style="stroke: #000000; stroke-width: 0.8"/>
      </defs>
      <g>
       <use xlink:href="#m079943892e" x="57.6" y="269.288262" style="stroke: #000000; stroke-width: 0.8"/>
      </g>
     </g>
     <g id="text_7">
      <!-- −25000 -->
      <g transform="translate(10.407812 273.087481) scale(0.1 -0.1)">
       <defs>
        <path id="DejaVuSans-2212" d="M 678 2272 
L 4684 2272 
L 4684 1741 
L 678 1741 
L 678 2272 
z
" transform="scale(0.015625)"/>
       </defs>
       <use xlink:href="#DejaVuSans-2212"/>
       <use xlink:href="#DejaVuSans-32" x="83.789062"/>
       <use xlink:href="#DejaVuSans-35" x="147.412109"/>
       <use xlink:href="#DejaVuSans-30" x="211.035156"/>
       <use xlink:href="#DejaVuSans-30" x="274.658203"/>
       <use xlink:href="#DejaVuSans-30" x="338.28125"/>
      </g>
     </g>
    </g>
    <g id="ytick_2">
     <g id="line2d_8">
      <g>
       <use xlink:href="#m079943892e" x="57.6" y="226.289899" style="stroke: #000000; stroke-width: 0.8"/>
      </g>
     </g>
     <g id="text_8">
      <!-- −20000 -->
      <g transform="translate(10.407812 230.089118) scale(0.1 -0.1)">
       <use xlink:href="#DejaVuSans-2212"/>
       <use xlink:href="#DejaVuSans-32" x="83.789062"/>
       <use xlink:href="#DejaVuSans-30" x="147.412109"/>
       <use xlink:href="#DejaVuSans-30" x="211.035156"/>
       <use xlink:href="#DejaVuSans-30" x="274.658203"/>
       <use xlink:href="#DejaVuSans-30" x="338.28125"/>
      </g>
     </g>
    </g>
    <g id="ytick_3">
     <g id="line2d_9">
      <g>
       <use xlink:href="#m079943892e" x="57.6" y="183.291536" style="stroke: #000000; stroke-width: 0.8"/>
      </g>
     </g>
     <g id="text_9">
      <!-- −15000 -->
      <g transform="translate(10.407812 187.090755) scale(0.1 -0.1)">
       <use xlink:href="#DejaVuSans-2212"/>
       <use xlink:href="#DejaVuSans-31" x="83.789062"/>
       <use xlink:href="#DejaVuSans-35" x="147.412109"/>
       <use xlink:href="#DejaVuSans-30" x="211.035156"/>
       <use xlink:href="#DejaVuSans-30" x="274.658203"/>
       <use xlink:href="#DejaVuSans-30" x="338.28125"/>
      </g>
     </g>
    </g>
    <g id="ytick_4">
     <g id="line2d_10">
      <g>
       <use xlink:href="#m079943892e" x="57.6" y="140.293172" style="stroke: #000000; stroke-width: 0.8"/>
      </g>
     </g>
     <g id="text_10">
      <!-- −10000 -->
      <g transform="translate(10.407812 144.092391) scale(0.1 -0.1)">
       <use xlink:href="#DejaVuSans-2212"/>
       <use xlink:href="#DejaVuSans-31" x="83.789062"/>
       <use xlink:href="#DejaVuSans-30" x="147.412109"/>
       <use xlink:href="#DejaVuSans-30" x="211.035156"/>
       <use xlink:href="#DejaVuSans-30" x="274.658203"/>
       <use xlink:href="#DejaVuSans-30" x="338.28125"/>
      </g>
     </g>
    </g>
    <g id="ytick_5">
     <g id="line2d_11">
      <g>
       <use xlink:href="#m079943892e" x="57.6" y="97.294809" style="stroke: #000000; stroke-width: 0.8"/>
      </g>
     </g>
     <g id="text_11">
      <!-- −5000 -->
      <g transform="translate(16.770313 101.094028) scale(0.1 -0.1)">
       <use xlink:href="#DejaVuSans-2212"/>
       <use xlink:href="#DejaVuSans-35" x="83.789062"/>
       <use xlink:href="#DejaVuSans-30" x="147.412109"/>
       <use xlink:href="#DejaVuSans-30" x="211.035156"/>
       <use xlink:href="#DejaVuSans-30" x="274.658203"/>
      </g>
     </g>
    </g>
    <g id="ytick_6">
     <g id="line2d_12">
      <g>
       <use xlink:href="#m079943892e" x="57.6" y="54.296446" style="stroke: #000000; stroke-width: 0.8"/>
      </g>
     </g>
     <g id="text_12">
      <!-- 0 -->
      <g transform="translate(44.2375 58.095665) scale(0.1 -0.1)">
       <use xlink:href="#DejaVuSans-30"/>
      </g>
     </g>
    </g>
   </g>
   <g id="line2d_13">
    <path d="M 73.832727 53.975472 
L 75.784558 53.909324 
L 76.435169 54.64311 
L 77.085779 116.152396 
L 77.736389 53.820236 
L 78.386999 53.851573 
L 79.03761 54.144926 
L 79.68822 55.76048 
L 80.33883 55.194948 
L 80.989441 55.76048 
L 81.640051 54.41306 
L 82.290661 54.413858 
L 82.941272 54.217764 
L 83.591882 54.340457 
L 84.893103 54.280702 
L 85.543713 54.472183 
L 86.194323 54.299969 
L 88.796764 54.272226 
L 89.447375 54.989645 
L 90.097985 54.275593 
L 90.748595 54.182512 
L 91.399206 54.383171 
L 94.001647 54.365569 
L 94.652257 54.211321 
L 95.953478 54.530609 
L 96.604088 54.193156 
L 97.905309 54.388983 
L 98.555919 54.364499 
L 99.85714 53.988545 
L 101.15836 54.344592 
L 101.808971 54.300041 
L 102.459581 54.375572 
L 103.110191 54.185489 
L 103.760802 54.20378 
L 104.411412 54.473901 
L 105.062022 54.134129 
L 105.712633 54.140881 
L 106.363243 54.471391 
L 107.013853 286.706611 
L 107.664463 54.163213 
L 108.315074 54.097301 
L 109.616294 54.249554 
L 110.266905 54.074761 
L 110.917515 54.145713 
L 111.568125 54.533985 
L 112.218736 55.451421 
L 112.869346 54.290728 
L 117.423618 54.236899 
L 118.074228 54.1458 
L 118.724839 54.347507 
L 119.375449 54.229694 
L 121.97789 54.30176 
L 122.628501 54.268968 
L 123.279111 55.015587 
L 123.929721 54.29438 
L 125.230942 54.275261 
L 125.881552 53.649185 
L 127.182773 53.99622 
L 127.833383 54.333457 
L 128.483993 54.09511 
L 129.134604 54.148914 
L 129.785214 54.087923 
L 130.435824 53.74828 
L 131.086435 54.445572 
L 131.737045 53.663576 
L 132.387655 54.189658 
L 133.688876 53.920478 
L 134.990097 54.699405 
L 135.640707 54.170758 
L 136.291317 54.462143 
L 136.941927 53.976487 
L 137.592538 54.315028 
L 138.243148 54.498016 
L 139.544369 53.96825 
L 140.194979 54.34466 
L 140.845589 54.498651 
L 141.4962 54.230396 
L 142.14681 54.38303 
L 142.79742 54.293393 
L 143.448031 55.015587 
L 144.098641 54.327887 
L 144.749251 54.519007 
L 145.399862 54.288371 
L 147.351692 54.074793 
L 148.002303 53.740204 
L 148.652913 54.596103 
L 149.303523 54.315028 
L 149.954134 54.214244 
L 150.604744 54.315028 
L 151.255354 53.687175 
L 151.905965 54.356666 
L 152.556575 54.189658 
L 153.207185 54.766278 
L 153.857796 54.354671 
L 154.508406 54.305305 
L 155.159016 54.714004 
L 155.809627 54.656754 
L 156.460237 61.094645 
L 157.110847 54.529602 
L 157.761457 54.247917 
L 158.412068 54.666923 
L 159.062678 54.209905 
L 159.713288 54.040581 
L 160.363899 73.851225 
L 161.014509 54.120147 
L 161.665119 54.096663 
L 162.31573 54.482747 
L 163.61695 54.200012 
L 164.267561 56.340512 
L 164.918171 54.422296 
L 165.568781 54.295644 
L 166.219392 53.898932 
L 166.870002 54.467676 
L 167.520612 54.545565 
L 170.123053 53.946539 
L 170.773664 54.486104 
L 171.424274 54.407548 
L 172.074884 87.695532 
L 172.725495 72.727428 
L 173.376105 181.314522 
L 174.026715 54.249634 
L 174.677326 56.215474 
L 175.327936 53.891109 
L 176.629156 53.781366 
L 177.930377 53.781366 
L 178.580987 53.835294 
L 179.231598 53.735715 
L 179.882208 53.779742 
L 181.183429 54.155114 
L 182.484649 54.210095 
L 183.13526 53.779742 
L 183.78587 54.190915 
L 184.43648 53.84291 
L 185.087091 53.865873 
L 185.737701 53.762217 
L 186.388311 54.333109 
L 187.038921 54.08561 
L 187.689532 54.210095 
L 188.340142 53.793618 
L 188.990752 53.85745 
L 190.291973 54.210095 
L 190.942583 53.780399 
L 191.593194 54.303081 
L 192.894414 53.883305 
L 194.846245 53.778649 
L 195.496856 54.210095 
L 196.147466 53.81435 
L 197.448686 53.693866 
L 198.099297 53.568 
L 198.749907 53.86186 
L 200.701738 53.779571 
L 201.352348 54.076704 
L 202.002959 53.725588 
L 202.653569 53.853959 
L 203.304179 54.209226 
L 204.6054 54.198606 
L 205.25601 54.100506 
L 205.906621 53.676681 
L 206.557231 53.986017 
L 207.207841 54.107364 
L 207.858451 53.820138 
L 208.509062 54.318772 
L 209.159672 54.209226 
L 209.810282 53.971608 
L 210.460893 54.210095 
L 211.111503 53.915543 
L 211.762113 54.093295 
L 212.412724 54.591218 
L 213.063334 54.200219 
L 213.713944 53.95294 
L 214.364555 54.116498 
L 215.665775 53.808065 
L 216.316385 53.976634 
L 216.966996 53.685407 
L 217.617606 53.624568 
L 218.918827 53.984701 
L 219.569437 53.655311 
L 220.220047 58.50709 
L 220.870658 53.971608 
L 221.521268 54.969395 
L 222.171878 54.063523 
L 222.822489 53.881432 
L 224.123709 53.910231 
L 224.77432 54.209226 
L 225.42493 53.669198 
L 226.07554 53.869786 
L 226.72615 53.85169 
L 227.376761 54.786046 
L 228.027371 54.003163 
L 228.677981 54.282835 
L 229.328592 67.788037 
L 229.979202 54.210095 
L 230.629812 54.210095 
L 231.280423 54.851151 
L 231.931033 60.177477 
L 232.581643 54.210095 
L 233.232254 54.038652 
L 233.882864 54.210095 
L 235.834695 54.211027 
L 236.485305 54.39013 
L 237.135915 54.120529 
L 237.786526 54.523296 
L 238.437136 54.090251 
L 239.087746 57.066989 
L 239.738357 54.066847 
L 240.388967 54.360815 
L 241.690188 54.067264 
L 242.340798 54.49471 
L 242.991408 53.940372 
L 244.292629 54.829903 
L 244.943239 53.873479 
L 245.59385 54.045135 
L 246.24446 53.987135 
L 246.89507 57.254814 
L 247.54568 54.045135 
L 248.196291 54.56254 
L 248.846901 53.72453 
L 249.497511 54.263413 
L 250.148122 54.045135 
L 250.798732 54.131781 
L 251.449342 54.066847 
L 252.099953 55.989639 
L 252.750563 55.534068 
L 253.401173 54.078775 
L 254.051784 57.156801 
L 254.702394 53.905649 
L 256.003615 54.173976 
L 256.654225 54.045135 
L 257.304835 54.979169 
L 257.955445 54.066847 
L 258.606056 54.045135 
L 259.256666 54.528205 
L 259.907276 54.252001 
L 261.208497 54.179818 
L 261.859107 53.86258 
L 262.509718 53.871202 
L 263.160328 54.469847 
L 263.810938 53.77999 
L 264.461549 54.902376 
L 265.112159 54.505234 
L 265.762769 53.710467 
L 266.413379 54.377255 
L 267.06399 54.127965 
L 267.7146 54.067264 
L 269.015821 54.210095 
L 269.666431 53.739661 
L 270.317041 54.29815 
L 270.967652 54.286949 
L 271.618262 53.808814 
L 272.919483 54.515895 
L 273.570093 54.036656 
L 274.220703 54.10085 
L 274.871314 53.763695 
L 275.521924 54.471828 
L 276.172534 54.330861 
L 276.823144 54.438365 
L 277.473755 72.547236 
L 278.124365 54.123058 
L 278.774975 53.996375 
L 279.425586 54.446537 
L 280.076196 53.708353 
L 280.726806 53.697664 
L 281.377417 54.090948 
L 282.028027 55.058128 
L 282.678637 54.401986 
L 283.329248 54.177785 
L 283.979858 56.654598 
L 284.630468 54.455897 
L 285.281079 165.577015 
L 285.931689 54.292931 
L 286.582299 71.479623 
L 287.232909 54.164201 
L 287.88352 75.487615 
L 288.53413 54.102977 
L 289.18474 53.830007 
L 289.835351 54.211027 
L 290.485961 54.077578 
L 291.787182 54.33302 
L 292.437792 54.406027 
L 293.739013 53.879309 
L 294.389623 53.898797 
L 295.690844 54.406027 
L 296.341454 54.106725 
L 296.992064 54.083894 
L 297.642674 54.276293 
L 299.594505 53.943164 
L 300.245116 54.045835 
L 300.895726 54.280751 
L 301.546336 54.834205 
L 302.196947 54.256424 
L 302.847557 54.098118 
L 303.498167 54.256424 
L 304.148778 54.06026 
L 304.799388 54.209479 
L 305.449998 54.590337 
L 306.100608 53.803576 
L 306.751219 54.539196 
L 307.401829 54.083894 
L 308.052439 54.486234 
L 308.70305 55.469564 
L 309.35366 54.280192 
L 310.00427 54.384359 
L 310.654881 53.802665 
L 311.305491 54.438809 
L 311.956101 53.802665 
L 312.606712 54.335704 
L 313.257322 54.083894 
L 313.907932 65.088064 
L 314.558543 55.665884 
L 315.209153 53.751696 
L 315.859763 54.770883 
L 316.510373 54.256424 
L 317.160984 54.075893 
L 317.811594 54.332728 
L 318.462204 61.009216 
L 319.112815 54.112019 
L 319.763425 124.02112 
L 320.414035 54.332728 
L 321.064646 53.994275 
L 321.715256 54.738482 
L 322.365866 54.256424 
L 323.016477 54.12836 
L 324.317697 54.232986 
L 324.968308 54.584494 
L 325.618918 54.539196 
L 326.269528 54.667163 
L 326.920138 59.420025 
L 327.570749 54.464795 
L 328.221359 54.494156 
L 328.871969 58.895017 
L 329.52258 54.044531 
L 330.17319 54.464795 
L 330.8238 54.667163 
L 331.474411 54.269483 
L 332.125021 56.834612 
L 332.775631 54.334194 
L 333.426242 78.16289 
L 334.076852 54.962853 
L 334.727462 56.007543 
L 335.378073 54.317358 
L 336.028683 54.667163 
L 337.980514 53.997102 
L 338.631124 54.190597 
L 339.932345 54.190597 
L 340.582955 54.406027 
L 341.233565 54.044531 
L 341.884176 54.191214 
L 342.534786 54.210095 
L 343.185396 54.044531 
L 344.486617 54.097502 
L 345.137227 53.827616 
L 345.787837 54.175151 
L 346.438448 53.997102 
L 347.089058 53.954661 
L 348.390279 54.097502 
L 349.691499 53.720017 
L 350.99272 53.700348 
L 351.64333 53.891363 
L 352.293941 54.314063 
L 353.595161 54.042519 
L 354.245772 54.152327 
L 354.896382 54.379386 
L 355.546992 54.227641 
L 356.197602 54.382042 
L 356.848213 54.210095 
L 357.498823 54.314063 
L 358.149433 295.488 
L 358.800044 53.956701 
L 359.450654 54.162365 
L 360.101264 53.891516 
L 361.402485 54.028693 
L 362.053095 53.910777 
L 362.703706 54.235568 
L 363.354316 54.363166 
L 364.004926 54.318059 
L 364.655537 53.836085 
L 365.306147 53.997695 
L 367.908588 53.950171 
L 368.559198 54.426047 
L 369.209809 54.459869 
L 370.511029 53.966201 
L 371.16164 53.950171 
L 371.81225 54.179593 
L 372.46286 53.992994 
L 373.113471 53.944307 
L 373.764081 54.210095 
L 374.414691 53.988148 
L 375.065302 53.959898 
L 375.715912 54.296972 
L 377.017132 54.210095 
L 377.667743 62.91905 
L 378.318353 54.280192 
L 378.968963 54.042204 
L 379.619574 54.130646 
L 380.270184 53.950171 
L 380.920794 54.344836 
L 381.571405 54.167616 
L 382.222015 54.192614 
L 382.872625 53.840438 
L 383.523236 53.950171 
L 384.173846 54.210705 
L 384.824456 53.942004 
L 385.475066 54.065969 
L 386.125677 54.917351 
L 387.426897 53.607136 
L 388.077508 54.220296 
L 388.728118 54.090361 
L 389.378728 54.711981 
L 390.029339 53.880148 
L 390.679949 54.337133 
L 391.330559 54.114063 
L 394.583611 54.189849 
L 395.234221 53.968631 
L 395.884831 54.208677 
L 398.487273 54.093986 
L 398.487273 54.093986 
" clip-path="url(#pe6e24adcd1)" style="fill: none; stroke: #1f77b4; stroke-width: 1.5; stroke-linecap: square"/>
   </g>
   <g id="patch_3">
    <path d="M 57.6 307.584 
L 57.6 41.472 
" style="fill: none; stroke: #000000; stroke-width: 0.8; stroke-linejoin: miter; stroke-linecap: square"/>
   </g>
   <g id="patch_4">
    <path d="M 414.72 307.584 
L 414.72 41.472 
" style="fill: none; stroke: #000000; stroke-width: 0.8; stroke-linejoin: miter; stroke-linecap: square"/>
   </g>
   <g id="patch_5">
    <path d="M 57.6 307.584 
L 414.72 307.584 
" style="fill: none; stroke: #000000; stroke-width: 0.8; stroke-linejoin: miter; stroke-linecap: square"/>
   </g>
   <g id="patch_6">
    <path d="M 57.6 41.472 
L 414.72 41.472 
" style="fill: none; stroke: #000000; stroke-width: 0.8; stroke-linejoin: miter; stroke-linecap: square"/>
   </g>
  </g>
 </g>
 <defs>
  <clipPath id="pe6e24adcd1">
   <rect x="57.6" y="41.472" width="357.12" height="266.112"/>
  </clipPath>
 </defs>
</svg>
