<?xml version="1.0" encoding="utf-8" standalone="no"?>
<!DOCTYPE svg PUBLIC "-//W3C//DTD SVG 1.1//EN"
  "http://www.w3.org/Graphics/SVG/1.1/DTD/svg11.dtd">
<svg xmlns:xlink="http://www.w3.org/1999/xlink" width="460.8pt" height="345.6pt" viewBox="0 0 460.8 345.6" xmlns="http://www.w3.org/2000/svg" version="1.1">
 <metadata>
  <rdf:RDF xmlns:dc="http://purl.org/dc/elements/1.1/" xmlns:cc="http://creativecommons.org/ns#" xmlns:rdf="http://www.w3.org/1999/02/22-rdf-syntax-ns#">
   <cc:Work>
    <dc:type rdf:resource="http://purl.org/dc/dcmitype/StillImage"/>
    <dc:date>2024-04-23T20:47:01.193788</dc:date>
    <dc:format>image/svg+xml</dc:format>
    <dc:creator>
     <cc:Agent>
      <dc:title>Matplotlib v3.7.2, https://matplotlib.org/</dc:title>
     </cc:Agent>
    </dc:creator>
   </cc:Work>
  </rdf:RDF>
 </metadata>
 <defs>
  <style type="text/css">*{stroke-linejoin: round; stroke-linecap: butt}</style>
 </defs>
 <g id="figure_1">
  <g id="patch_1">
   <path d="M 0 345.6 
L 460.8 345.6 
L 460.8 0 
L 0 0 
z
" style="fill: #ffffff"/>
  </g>
  <g id="axes_1">
   <g id="patch_2">
    <path d="M 57.6 307.584 
L 414.72 307.584 
L 414.72 41.472 
L 57.6 41.472 
z
" style="fill: #ffffff"/>
   </g>
   <g id="matplotlib.axis_1">
    <g id="xtick_1">
     <g id="line2d_1">
      <defs>
       <path id="me9c5f00c15" d="M 0 0 
L 0 3.5 
" style="stroke: #000000; stroke-width: 0.8"/>
      </defs>
      <g>
       <use xlink:href="#me9c5f00c15" x="73.832727" y="307.584" style="stroke: #000000; stroke-width: 0.8"/>
      </g>
     </g>
     <g id="text_1">
      <!-- 0 -->
      <g transform="translate(70.651477 322.182437) scale(0.1 -0.1)">
       <defs>
        <path id="DejaVuSans-30" d="M 2034 4250 
Q 1547 4250 1301 3770 
Q 1056 3291 1056 2328 
Q 1056 1369 1301 889 
Q 1547 409 2034 409 
Q 2525 409 2770 889 
Q 3016 1369 3016 2328 
Q 3016 3291 2770 3770 
Q 2525 4250 2034 4250 
z
M 2034 4750 
Q 2819 4750 3233 4129 
Q 3647 3509 3647 2328 
Q 3647 1150 3233 529 
Q 2819 -91 2034 -91 
Q 1250 -91 836 529 
Q 422 1150 422 2328 
Q 422 3509 836 4129 
Q 1250 4750 2034 4750 
z
" transform="scale(0.015625)"/>
       </defs>
       <use xlink:href="#DejaVuSans-30"/>
      </g>
     </g>
    </g>
    <g id="xtick_2">
     <g id="line2d_2">
      <g>
       <use xlink:href="#me9c5f00c15" x="138.77013" y="307.584" style="stroke: #000000; stroke-width: 0.8"/>
      </g>
     </g>
     <g id="text_2">
      <!-- 2000 -->
      <g transform="translate(126.04513 322.182437) scale(0.1 -0.1)">
       <defs>
        <path id="DejaVuSans-32" d="M 1228 531 
L 3431 531 
L 3431 0 
L 469 0 
L 469 531 
Q 828 903 1448 1529 
Q 2069 2156 2228 2338 
Q 2531 2678 2651 2914 
Q 2772 3150 2772 3378 
Q 2772 3750 2511 3984 
Q 2250 4219 1831 4219 
Q 1534 4219 1204 4116 
Q 875 4013 500 3803 
L 500 4441 
Q 881 4594 1212 4672 
Q 1544 4750 1819 4750 
Q 2544 4750 2975 4387 
Q 3406 4025 3406 3419 
Q 3406 3131 3298 2873 
Q 3191 2616 2906 2266 
Q 2828 2175 2409 1742 
Q 1991 1309 1228 531 
z
" transform="scale(0.015625)"/>
       </defs>
       <use xlink:href="#DejaVuSans-32"/>
       <use xlink:href="#DejaVuSans-30" x="63.623047"/>
       <use xlink:href="#DejaVuSans-30" x="127.246094"/>
       <use xlink:href="#DejaVuSans-30" x="190.869141"/>
      </g>
     </g>
    </g>
    <g id="xtick_3">
     <g id="line2d_3">
      <g>
       <use xlink:href="#me9c5f00c15" x="203.707533" y="307.584" style="stroke: #000000; stroke-width: 0.8"/>
      </g>
     </g>
     <g id="text_3">
      <!-- 4000 -->
      <g transform="translate(190.982533 322.182437) scale(0.1 -0.1)">
       <defs>
        <path id="DejaVuSans-34" d="M 2419 4116 
L 825 1625 
L 2419 1625 
L 2419 4116 
z
M 2253 4666 
L 3047 4666 
L 3047 1625 
L 3713 1625 
L 3713 1100 
L 3047 1100 
L 3047 0 
L 2419 0 
L 2419 1100 
L 313 1100 
L 313 1709 
L 2253 4666 
z
" transform="scale(0.015625)"/>
       </defs>
       <use xlink:href="#DejaVuSans-34"/>
       <use xlink:href="#DejaVuSans-30" x="63.623047"/>
       <use xlink:href="#DejaVuSans-30" x="127.246094"/>
       <use xlink:href="#DejaVuSans-30" x="190.869141"/>
      </g>
     </g>
    </g>
    <g id="xtick_4">
     <g id="line2d_4">
      <g>
       <use xlink:href="#me9c5f00c15" x="268.644936" y="307.584" style="stroke: #000000; stroke-width: 0.8"/>
      </g>
     </g>
     <g id="text_4">
      <!-- 6000 -->
      <g transform="translate(255.919936 322.182437) scale(0.1 -0.1)">
       <defs>
        <path id="DejaVuSans-36" d="M 2113 2584 
Q 1688 2584 1439 2293 
Q 1191 2003 1191 1497 
Q 1191 994 1439 701 
Q 1688 409 2113 409 
Q 2538 409 2786 701 
Q 3034 994 3034 1497 
Q 3034 2003 2786 2293 
Q 2538 2584 2113 2584 
z
M 3366 4563 
L 3366 3988 
Q 3128 4100 2886 4159 
Q 2644 4219 2406 4219 
Q 1781 4219 1451 3797 
Q 1122 3375 1075 2522 
Q 1259 2794 1537 2939 
Q 1816 3084 2150 3084 
Q 2853 3084 3261 2657 
Q 3669 2231 3669 1497 
Q 3669 778 3244 343 
Q 2819 -91 2113 -91 
Q 1303 -91 875 529 
Q 447 1150 447 2328 
Q 447 3434 972 4092 
Q 1497 4750 2381 4750 
Q 2619 4750 2861 4703 
Q 3103 4656 3366 4563 
z
" transform="scale(0.015625)"/>
       </defs>
       <use xlink:href="#DejaVuSans-36"/>
       <use xlink:href="#DejaVuSans-30" x="63.623047"/>
       <use xlink:href="#DejaVuSans-30" x="127.246094"/>
       <use xlink:href="#DejaVuSans-30" x="190.869141"/>
      </g>
     </g>
    </g>
    <g id="xtick_5">
     <g id="line2d_5">
      <g>
       <use xlink:href="#me9c5f00c15" x="333.582339" y="307.584" style="stroke: #000000; stroke-width: 0.8"/>
      </g>
     </g>
     <g id="text_5">
      <!-- 8000 -->
      <g transform="translate(320.857339 322.182437) scale(0.1 -0.1)">
       <defs>
        <path id="DejaVuSans-38" d="M 2034 2216 
Q 1584 2216 1326 1975 
Q 1069 1734 1069 1313 
Q 1069 891 1326 650 
Q 1584 409 2034 409 
Q 2484 409 2743 651 
Q 3003 894 3003 1313 
Q 3003 1734 2745 1975 
Q 2488 2216 2034 2216 
z
M 1403 2484 
Q 997 2584 770 2862 
Q 544 3141 544 3541 
Q 544 4100 942 4425 
Q 1341 4750 2034 4750 
Q 2731 4750 3128 4425 
Q 3525 4100 3525 3541 
Q 3525 3141 3298 2862 
Q 3072 2584 2669 2484 
Q 3125 2378 3379 2068 
Q 3634 1759 3634 1313 
Q 3634 634 3220 271 
Q 2806 -91 2034 -91 
Q 1263 -91 848 271 
Q 434 634 434 1313 
Q 434 1759 690 2068 
Q 947 2378 1403 2484 
z
M 1172 3481 
Q 1172 3119 1398 2916 
Q 1625 2713 2034 2713 
Q 2441 2713 2670 2916 
Q 2900 3119 2900 3481 
Q 2900 3844 2670 4047 
Q 2441 4250 2034 4250 
Q 1625 4250 1398 4047 
Q 1172 3844 1172 3481 
z
" transform="scale(0.015625)"/>
       </defs>
       <use xlink:href="#DejaVuSans-38"/>
       <use xlink:href="#DejaVuSans-30" x="63.623047"/>
       <use xlink:href="#DejaVuSans-30" x="127.246094"/>
       <use xlink:href="#DejaVuSans-30" x="190.869141"/>
      </g>
     </g>
    </g>
    <g id="xtick_6">
     <g id="line2d_6">
      <g>
       <use xlink:href="#me9c5f00c15" x="398.519741" y="307.584" style="stroke: #000000; stroke-width: 0.8"/>
      </g>
     </g>
     <g id="text_6">
      <!-- 10000 -->
      <g transform="translate(382.613491 322.182437) scale(0.1 -0.1)">
       <defs>
        <path id="DejaVuSans-31" d="M 794 531 
L 1825 531 
L 1825 4091 
L 703 3866 
L 703 4441 
L 1819 4666 
L 2450 4666 
L 2450 531 
L 3481 531 
L 3481 0 
L 794 0 
L 794 531 
z
" transform="scale(0.015625)"/>
       </defs>
       <use xlink:href="#DejaVuSans-31"/>
       <use xlink:href="#DejaVuSans-30" x="63.623047"/>
       <use xlink:href="#DejaVuSans-30" x="127.246094"/>
       <use xlink:href="#DejaVuSans-30" x="190.869141"/>
       <use xlink:href="#DejaVuSans-30" x="254.492188"/>
      </g>
     </g>
    </g>
   </g>
   <g id="matplotlib.axis_2">
    <g id="ytick_1">
     <g id="line2d_7">
      <defs>
       <path id="macf506d0e5" d="M 0 0 
L -3.5 0 
" style="stroke: #000000; stroke-width: 0.8"/>
      </defs>
      <g>
       <use xlink:href="#macf506d0e5" x="57.6" y="286.115475" style="stroke: #000000; stroke-width: 0.8"/>
      </g>
     </g>
     <g id="text_7">
      <!-- −5000 -->
      <g transform="translate(16.770313 289.914694) scale(0.1 -0.1)">
       <defs>
        <path id="DejaVuSans-2212" d="M 678 2272 
L 4684 2272 
L 4684 1741 
L 678 1741 
L 678 2272 
z
" transform="scale(0.015625)"/>
        <path id="DejaVuSans-35" d="M 691 4666 
L 3169 4666 
L 3169 4134 
L 1269 4134 
L 1269 2991 
Q 1406 3038 1543 3061 
Q 1681 3084 1819 3084 
Q 2600 3084 3056 2656 
Q 3513 2228 3513 1497 
Q 3513 744 3044 326 
Q 2575 -91 1722 -91 
Q 1428 -91 1123 -41 
Q 819 9 494 109 
L 494 744 
Q 775 591 1075 516 
Q 1375 441 1709 441 
Q 2250 441 2565 725 
Q 2881 1009 2881 1497 
Q 2881 1984 2565 2268 
Q 2250 2553 1709 2553 
Q 1456 2553 1204 2497 
Q 953 2441 691 2322 
L 691 4666 
z
" transform="scale(0.015625)"/>
       </defs>
       <use xlink:href="#DejaVuSans-2212"/>
       <use xlink:href="#DejaVuSans-35" x="83.789062"/>
       <use xlink:href="#DejaVuSans-30" x="147.412109"/>
       <use xlink:href="#DejaVuSans-30" x="211.035156"/>
       <use xlink:href="#DejaVuSans-30" x="274.658203"/>
      </g>
     </g>
    </g>
    <g id="ytick_2">
     <g id="line2d_8">
      <g>
       <use xlink:href="#macf506d0e5" x="57.6" y="251.010981" style="stroke: #000000; stroke-width: 0.8"/>
      </g>
     </g>
     <g id="text_8">
      <!-- −4000 -->
      <g transform="translate(16.770313 254.8102) scale(0.1 -0.1)">
       <use xlink:href="#DejaVuSans-2212"/>
       <use xlink:href="#DejaVuSans-34" x="83.789062"/>
       <use xlink:href="#DejaVuSans-30" x="147.412109"/>
       <use xlink:href="#DejaVuSans-30" x="211.035156"/>
       <use xlink:href="#DejaVuSans-30" x="274.658203"/>
      </g>
     </g>
    </g>
    <g id="ytick_3">
     <g id="line2d_9">
      <g>
       <use xlink:href="#macf506d0e5" x="57.6" y="215.906488" style="stroke: #000000; stroke-width: 0.8"/>
      </g>
     </g>
     <g id="text_9">
      <!-- −3000 -->
      <g transform="translate(16.770313 219.705706) scale(0.1 -0.1)">
       <defs>
        <path id="DejaVuSans-33" d="M 2597 2516 
Q 3050 2419 3304 2112 
Q 3559 1806 3559 1356 
Q 3559 666 3084 287 
Q 2609 -91 1734 -91 
Q 1441 -91 1130 -33 
Q 819 25 488 141 
L 488 750 
Q 750 597 1062 519 
Q 1375 441 1716 441 
Q 2309 441 2620 675 
Q 2931 909 2931 1356 
Q 2931 1769 2642 2001 
Q 2353 2234 1838 2234 
L 1294 2234 
L 1294 2753 
L 1863 2753 
Q 2328 2753 2575 2939 
Q 2822 3125 2822 3475 
Q 2822 3834 2567 4026 
Q 2313 4219 1838 4219 
Q 1578 4219 1281 4162 
Q 984 4106 628 3988 
L 628 4550 
Q 988 4650 1302 4700 
Q 1616 4750 1894 4750 
Q 2613 4750 3031 4423 
Q 3450 4097 3450 3541 
Q 3450 3153 3228 2886 
Q 3006 2619 2597 2516 
z
" transform="scale(0.015625)"/>
       </defs>
       <use xlink:href="#DejaVuSans-2212"/>
       <use xlink:href="#DejaVuSans-33" x="83.789062"/>
       <use xlink:href="#DejaVuSans-30" x="147.412109"/>
       <use xlink:href="#DejaVuSans-30" x="211.035156"/>
       <use xlink:href="#DejaVuSans-30" x="274.658203"/>
      </g>
     </g>
    </g>
    <g id="ytick_4">
     <g id="line2d_10">
      <g>
       <use xlink:href="#macf506d0e5" x="57.6" y="180.801994" style="stroke: #000000; stroke-width: 0.8"/>
      </g>
     </g>
     <g id="text_10">
      <!-- −2000 -->
      <g transform="translate(16.770313 184.601213) scale(0.1 -0.1)">
       <use xlink:href="#DejaVuSans-2212"/>
       <use xlink:href="#DejaVuSans-32" x="83.789062"/>
       <use xlink:href="#DejaVuSans-30" x="147.412109"/>
       <use xlink:href="#DejaVuSans-30" x="211.035156"/>
       <use xlink:href="#DejaVuSans-30" x="274.658203"/>
      </g>
     </g>
    </g>
    <g id="ytick_5">
     <g id="line2d_11">
      <g>
       <use xlink:href="#macf506d0e5" x="57.6" y="145.6975" style="stroke: #000000; stroke-width: 0.8"/>
      </g>
     </g>
     <g id="text_11">
      <!-- −1000 -->
      <g transform="translate(16.770313 149.496719) scale(0.1 -0.1)">
       <use xlink:href="#DejaVuSans-2212"/>
       <use xlink:href="#DejaVuSans-31" x="83.789062"/>
       <use xlink:href="#DejaVuSans-30" x="147.412109"/>
       <use xlink:href="#DejaVuSans-30" x="211.035156"/>
       <use xlink:href="#DejaVuSans-30" x="274.658203"/>
      </g>
     </g>
    </g>
    <g id="ytick_6">
     <g id="line2d_12">
      <g>
       <use xlink:href="#macf506d0e5" x="57.6" y="110.593006" style="stroke: #000000; stroke-width: 0.8"/>
      </g>
     </g>
     <g id="text_12">
      <!-- 0 -->
      <g transform="translate(44.2375 114.392225) scale(0.1 -0.1)">
       <use xlink:href="#DejaVuSans-30"/>
      </g>
     </g>
    </g>
    <g id="ytick_7">
     <g id="line2d_13">
      <g>
       <use xlink:href="#macf506d0e5" x="57.6" y="75.488513" style="stroke: #000000; stroke-width: 0.8"/>
      </g>
     </g>
     <g id="text_13">
      <!-- 1000 -->
      <g transform="translate(25.15 79.287731) scale(0.1 -0.1)">
       <use xlink:href="#DejaVuSans-31"/>
       <use xlink:href="#DejaVuSans-30" x="63.623047"/>
       <use xlink:href="#DejaVuSans-30" x="127.246094"/>
       <use xlink:href="#DejaVuSans-30" x="190.869141"/>
      </g>
     </g>
    </g>
   </g>
   <g id="line2d_14">
    <path d="M 73.832727 110.571669 
L 73.865196 114.822749 
L 73.930133 110.593006 
L 73.995071 110.560064 
L 74.027539 110.17465 
L 74.092477 114.951871 
L 74.124946 110.180813 
L 74.189883 111.762078 
L 74.222352 110.593006 
L 74.25482 110.267535 
L 74.287289 110.593006 
L 74.319758 110.935481 
L 74.352226 114.726431 
L 74.417164 110.593006 
L 74.449633 110.740061 
L 74.482101 110.302425 
L 74.51457 114.714082 
L 74.579507 110.593006 
L 74.611976 109.481537 
L 74.676914 110.181947 
L 74.709382 110.911668 
L 74.741851 115.652569 
L 74.77432 110.593006 
L 74.806788 110.749264 
L 74.871726 110.818407 
L 74.936663 110.191421 
L 75.034069 110.778011 
L 75.066538 110.593006 
L 75.099007 110.676574 
L 75.131475 114.354904 
L 75.196413 110.383587 
L 75.228881 110.138051 
L 75.26135 110.593006 
L 75.293819 110.732351 
L 75.358756 110.593006 
L 75.423694 110.214558 
L 75.456162 110.461045 
L 75.5211 110.593006 
L 75.553568 110.038825 
L 75.586037 110.290965 
L 75.618506 114.195053 
L 75.683443 110.25677 
L 75.780849 110.631721 
L 75.845787 109.423762 
L 75.878255 110.346482 
L 76.040599 110.736226 
L 76.138005 110.110812 
L 76.235411 110.213505 
L 76.365286 110.593006 
L 76.495161 110.160183 
L 76.625036 110.825429 
L 76.657504 110.387975 
L 76.722442 110.593006 
L 76.75491 110.778011 
L 76.819848 110.560064 
L 76.852317 110.646994 
L 76.884785 110.217136 
L 76.949723 110.593006 
L 77.079597 110.593006 
L 77.177004 110.593006 
L 77.209472 109.943799 
L 77.27441 110.524314 
L 77.371816 110.593006 
L 77.404284 110.560064 
L 77.501691 110.524314 
L 77.566628 110.151308 
L 77.631565 110.476177 
L 77.826378 110.560064 
L 77.891315 110.069497 
L 77.923784 110.593006 
L 78.02119 110.560064 
L 78.053658 110.593006 
L 78.086127 110.593006 
L 78.118596 110.25677 
L 78.183533 110.461045 
L 78.248471 110.593006 
L 78.313408 110.233699 
L 78.345877 110.498532 
L 78.443283 110.631721 
L 78.50822 110.223604 
L 78.573158 110.394866 
L 78.670564 110.597323 
L 78.703032 110.472091 
L 78.76797 110.593006 
L 78.800439 110.593006 
L 78.832907 110.25677 
L 78.897845 110.593006 
L 78.930313 110.593006 
L 78.962782 110.40685 
L 79.060188 110.489991 
L 79.222532 110.524314 
L 79.352407 109.484116 
L 79.287469 110.593006 
L 79.417344 109.69585 
L 79.449813 215.52067 
L 79.51475 111.273422 
L 79.579687 109.026757 
L 79.644625 109.870956 
L 79.7745 113.698252 
L 79.806968 113.698252 
L 79.871906 113.817891 
L 79.936843 113.297737 
L 80.034249 108.822943 
L 80.066718 108.867828 
L 80.099187 108.856445 
L 80.131655 109.091005 
L 80.196593 109.059843 
L 80.229061 108.888937 
L 80.358936 110.945538 
L 80.391405 110.945538 
L 80.423874 109.714608 
L 80.488811 110.945538 
L 80.52128 110.945538 
L 80.553748 109.704368 
L 80.651155 109.714608 
L 80.716092 109.744735 
L 80.781029 110.547521 
L 80.813498 109.744735 
L 80.975842 109.714608 
L 81.00831 110.506837 
L 81.073248 109.744735 
L 81.105716 109.728022 
L 81.138185 110.589968 
L 81.203122 110.506837 
L 81.26806 109.704368 
L 81.300529 110.547521 
L 81.332997 110.506837 
L 81.397935 110.547521 
L 81.430403 109.744735 
L 81.462872 110.547521 
L 81.52781 110.506837 
L 81.560278 109.704368 
L 81.625216 109.714608 
L 81.657684 110.547521 
L 81.722622 109.704368 
L 81.75509 110.506837 
L 81.820028 109.714608 
L 81.884965 109.764885 
L 81.917434 109.728022 
L 81.982371 110.547521 
L 82.01484 109.704368 
L 82.177184 109.816141 
L 82.209652 109.728022 
L 82.27459 109.704368 
L 82.404464 110.634286 
L 82.436933 110.506837 
L 82.566808 109.704368 
L 82.599277 109.714608 
L 82.664214 110.506837 
L 82.696683 109.714608 
L 82.794089 109.728022 
L 82.859026 109.714608 
L 82.891495 110.506837 
L 82.956432 109.728022 
L 82.988901 109.744735 
L 83.053838 109.704368 
L 83.118776 110.589968 
L 83.216182 109.704368 
L 83.248651 110.506837 
L 83.313588 109.704368 
L 83.378525 109.764885 
L 83.410994 110.506837 
L 83.475932 109.704368 
L 83.5084 109.714608 
L 83.540869 110.589968 
L 83.605806 110.506837 
L 83.670744 109.704368 
L 83.735681 109.764885 
L 83.865556 109.704368 
L 83.898025 109.816141 
L 83.962962 109.744735 
L 84.0279 109.728022 
L 84.092837 109.704368 
L 84.125306 110.506837 
L 84.222712 109.714608 
L 84.25518 109.728022 
L 84.385055 109.714608 
L 84.417524 110.506837 
L 84.482461 109.744735 
L 84.51493 109.847615 
L 84.579867 109.704368 
L 84.612336 109.704368 
L 84.742211 110.506837 
L 84.77468 110.506837 
L 84.839617 110.589968 
L 84.904554 109.714608 
L 84.937023 110.506837 
L 85.001961 109.714608 
L 85.034429 109.764885 
L 85.099367 109.704368 
L 85.196773 110.547521 
L 85.26171 109.714608 
L 85.326648 109.728022 
L 85.424054 109.704368 
L 85.456522 110.201072 
L 85.52146 109.704368 
L 85.586397 109.704368 
L 85.683803 110.547521 
L 85.716272 109.704368 
L 85.813678 109.728022 
L 85.846147 110.547521 
L 85.878615 109.714608 
L 85.911084 109.728022 
L 86.00849 109.704368 
L 86.105896 110.547521 
L 86.138365 109.744735 
L 86.203303 110.506837 
L 86.235771 110.506837 
L 86.26824 109.704368 
L 86.333177 110.547521 
L 86.365646 109.714608 
L 86.398115 109.714608 
L 86.495521 110.547521 
L 86.463052 109.704368 
L 86.52799 110.506837 
L 86.657864 109.704368 
L 86.690333 109.88327 
L 86.787739 109.816141 
L 86.885145 109.704368 
L 86.917614 109.744735 
L 86.950083 109.714608 
L 86.982551 109.78863 
L 87.01502 110.502147 
L 87.047489 154.921391 
L 87.112426 110.177975 
L 87.144895 110.325723 
L 87.177364 110.042479 
L 87.242301 112.997997 
L 87.27477 109.510511 
L 87.372176 110.024296 
L 87.404644 110.355635 
L 87.469582 110.034091 
L 87.534519 108.098561 
L 87.566988 109.909111 
L 87.631925 109.909111 
L 87.696863 107.46384 
L 87.729331 108.369679 
L 87.859206 109.624205 
L 88.118956 109.624205 
L 88.346237 107.454533 
L 88.378706 107.617932 
L 88.50858 112.610966 
L 88.541049 112.067794 
L 88.605986 108.995396 
L 88.670924 109.516571 
L 88.735861 108.05381 
L 88.76833 109.443276 
L 88.800799 109.39575 
L 88.833267 110.310312 
L 88.930673 110.210745 
L 89.417704 110.401738 
L 89.450173 110.733678 
L 89.51511 107.993805 
L 89.580047 108.681929 
L 89.677454 112.950245 
L 89.709922 108.681929 
L 89.77486 113.007903 
L 89.807328 109.237163 
L 89.872266 109.226374 
L 89.904734 108.519087 
L 89.937203 109.823912 
L 90.002141 108.580289 
L 90.034609 108.242614 
L 90.067078 108.478905 
L 90.099547 109.801936 
L 90.196953 109.798487 
L 91.625576 109.803649 
L 91.787919 110.568515 
L 91.820388 108.435488 
L 91.885325 109.721639 
L 91.982731 109.241373 
L 92.112606 111.144818 
L 92.242481 110.908729 
L 92.27495 109.082109 
L 92.339887 110.498019 
L 92.404824 110.498019 
L 92.437293 109.497863 
L 92.502231 110.613667 
L 92.567168 112.016584 
L 92.599637 111.049762 
L 92.729511 108.658074 
L 92.794449 108.895552 
L 92.956792 108.92244 
L 93.086667 109.599256 
L 93.216542 109.599256 
L 93.249011 108.334968 
L 93.313948 109.428175 
L 93.346417 109.341528 
L 93.378886 109.491965 
L 93.411354 109.491965 
L 93.443823 109.665396 
L 93.541229 109.593912 
L 93.573698 109.273804 
L 93.638635 109.575549 
L 93.76851 109.665396 
L 93.833447 109.665396 
L 93.995791 109.273804 
L 94.158134 109.665396 
L 94.190603 109.491965 
L 94.25554 109.575549 
L 94.385415 109.665396 
L 94.51529 109.491965 
L 94.645165 109.665396 
L 94.710102 109.210581 
L 94.742571 109.665396 
L 94.77504 109.665396 
L 94.807508 109.341528 
L 94.872446 109.665396 
L 94.904914 109.665396 
L 94.969852 108.996926 
L 95.002321 109.665396 
L 95.132195 109.575549 
L 95.164664 109.341528 
L 95.229602 109.665396 
L 95.359476 109.491965 
L 95.424414 109.665396 
L 95.456882 109.414113 
L 95.489351 109.044946 
L 95.554289 109.491965 
L 95.716632 109.665396 
L 95.814038 109.414113 
L 95.846507 109.491965 
L 96.00885 109.665396 
L 96.106256 109.273804 
L 96.138725 109.491965 
L 96.171194 109.665396 
L 96.203663 109.491965 
L 96.333537 109.210581 
L 96.463412 109.665396 
L 96.495881 109.414113 
L 96.560818 109.575549 
L 96.690693 109.665396 
L 96.723162 109.665396 
L 96.788099 109.414113 
L 96.820568 111.262919 
L 96.885505 109.345625 
L 97.01538 109.436198 
L 97.145255 109.436198 
L 97.242661 109.226145 
L 97.372536 109.436198 
L 97.405005 109.226145 
L 97.469942 109.436198 
L 97.567348 109.436198 
L 97.599817 109.226145 
L 97.664754 109.263847 
L 97.794629 109.436198 
L 97.827098 109.312716 
L 97.859566 109.394612 
L 97.892035 109.532531 
L 97.924504 110.408315 
L 97.956972 109.229156 
L 97.989441 108.13276 
L 98.054379 109.39123 
L 98.086847 117.180066 
L 98.119316 108.952147 
L 98.151785 108.952147 
L 98.216722 108.952147 
L 98.249191 113.949397 
L 98.314128 108.952147 
L 98.346597 108.952147 
L 98.50894 110.593006 
L 98.541409 110.593006 
L 98.671284 109.682835 
L 98.703753 110.034091 
L 98.736221 112.729375 
L 98.833627 112.691062 
L 99.093377 112.763613 
L 99.190783 110.593006 
L 99.223252 111.066707 
L 99.385595 108.62032 
L 99.418064 108.715091 
L 99.450533 110.151179 
L 99.483001 108.640469 
L 99.51547 108.645937 
L 99.580407 108.831883 
L 99.612876 108.577334 
L 99.677814 109.705188 
L 99.742751 109.596308 
L 99.77522 109.344052 
L 99.807688 228.843706 
L 99.840157 108.776466 
L 99.872626 109.622127 
L 100.067438 108.24908 
L 100.099907 110.023154 
L 100.164844 107.846722 
L 100.229782 107.817913 
L 100.619406 109.817562 
L 100.749281 109.762818 
L 100.814218 109.813265 
L 100.879156 109.646343 
L 100.944093 109.585929 
L 101.041499 109.795496 
L 101.106436 109.42955 
L 101.138905 109.669499 
L 101.203843 109.574668 
L 101.26878 109.779344 
L 101.366186 109.587147 
L 101.398655 109.655353 
L 101.431123 109.652435 
L 101.463592 109.49419 
L 101.52853 109.540652 
L 101.658404 109.662872 
L 101.690873 109.547338 
L 101.75581 109.663698 
L 101.820748 109.593619 
L 101.853217 109.343194 
L 101.918154 109.667204 
L 102.01556 109.55383 
L 102.048029 109.669452 
L 102.080498 109.598013 
L 102.112966 109.410662 
L 102.145435 109.670447 
L 102.210372 109.448815 
L 102.340247 109.672691 
L 102.405185 109.670447 
L 102.567528 109.426541 
L 102.664934 109.719123 
L 102.697403 109.571345 
L 102.794809 109.719123 
L 102.827278 109.655216 
L 102.859746 109.509835 
L 102.957152 109.559671 
L 102.989621 109.61053 
L 103.02209 109.501332 
L 103.054559 109.563885 
L 103.119496 109.372272 
L 103.151965 109.118078 
L 103.184433 109.606415 
L 103.216902 109.755587 
L 103.281839 109.655216 
L 103.346777 109.672445 
L 103.379246 109.360561 
L 103.50912 109.77219 
L 103.541589 109.722943 
L 103.638995 109.77219 
L 103.671464 109.617813 
L 103.703933 108.914611 
L 103.736401 109.77219 
L 103.76887 109.567762 
L 103.801339 109.77219 
L 103.833807 109.655216 
L 103.931213 109.247743 
L 103.963682 109.324422 
L 103.996151 109.324422 
L 104.158494 108.925243 
L 104.190963 109.046951 
L 104.2559 109.002819 
L 104.353307 108.853754 
L 104.385775 108.954041 
L 104.677994 108.499955 
L 104.710462 108.093438 
L 104.7754 109.580997 
L 104.807868 108.109287 
L 104.840337 108.156121 
L 104.970212 108.589644 
L 105.002681 108.282376 
L 105.035149 108.638568 
L 105.067618 108.393689 
L 105.424774 109.865601 
L 105.554649 108.421066 
L 105.684523 109.865601 
L 105.716992 108.489092 
L 105.781929 109.865601 
L 105.846867 109.830059 
L 105.879336 108.628184 
L 105.911804 110.15085 
L 105.944273 110.00037 
L 105.976742 110.11613 
L 106.00921 109.916968 
L 106.041679 110.053846 
L 106.074148 109.861273 
L 106.106616 110.083834 
L 106.139085 109.935067 
L 106.301429 110.15085 
L 106.333897 110.083834 
L 106.496241 110.026057 
L 106.52871 110.11613 
L 106.561178 108.718466 
L 106.593647 110.15085 
L 106.626116 110.00037 
L 106.691053 110.083834 
L 106.820928 109.556914 
L 106.853397 109.599039 
L 106.885865 109.515136 
L 106.950803 110.053846 
L 106.983271 109.599526 
L 107.080678 109.451326 
L 107.145615 110.117694 
L 107.210552 109.923202 
L 107.307958 109.793738 
L 107.340427 109.601724 
L 107.405365 109.764281 
L 107.502771 109.787203 
L 107.600177 110.282837 
L 107.632645 109.822378 
L 107.697583 110.019981 
L 107.730052 110.238563 
L 107.794989 110.080885 
L 107.892395 109.663409 
L 107.924864 110.211491 
L 107.957332 109.026757 
L 107.989801 109.49287 
L 108.02227 109.916104 
L 108.054739 109.375236 
L 108.087207 109.793738 
L 108.152145 109.916104 
L 108.184613 109.026757 
L 108.346957 110.400818 
L 108.476832 109.026757 
L 108.5093 110.575824 
L 108.574238 109.026757 
L 108.736581 109.026757 
L 108.76905 109.565303 
L 108.833987 109.026757 
L 108.996331 109.026757 
L 109.0288 109.675351 
L 109.093737 109.026757 
L 109.126206 109.026757 
L 109.158674 109.522114 
L 109.223612 109.026757 
L 109.321018 109.026757 
L 109.353487 109.713708 
L 109.418424 109.026757 
L 110.360016 109.026757 
L 110.489891 112.800211 
L 110.911984 112.800211 
L 110.944453 110.451895 
L 111.00939 112.666895 
L 111.074328 112.684981 
L 111.204203 110.034091 
L 112.925044 110.034091 
L 113.087387 109.640599 
L 113.119856 109.682835 
L 113.184793 109.600039 
L 113.249731 109.726839 
L 113.282199 109.640599 
L 113.379606 109.682835 
L 113.477012 109.726839 
L 113.671824 109.977108 
L 113.736761 110.034091 
L 113.866636 112.691062 
L 114.840697 112.714509 
L 114.873166 112.823308 
L 114.938103 115.146758 
L 114.970572 112.888041 
L 115.100447 112.697933 
L 115.327728 112.691062 
L 115.360196 118.224573 
L 115.392665 110.561548 
L 115.425134 108.8639 
L 115.457602 109.871178 
L 115.490071 118.897337 
L 115.555009 108.402989 
L 115.684883 114.349283 
L 115.717352 114.509349 
L 115.749821 110.767141 
L 115.847227 110.829559 
L 116.171914 110.829559 
L 116.334257 109.237047 
L 116.431664 109.237047 
L 116.496601 108.919097 
L 116.52907 109.237047 
L 116.561538 109.237047 
L 116.691413 108.919097 
L 116.723882 108.919097 
L 116.821288 109.237047 
L 116.918694 117.526769 
L 116.951163 108.428725 
L 117.048569 109.389675 
L 117.210912 155.350512 
L 117.243381 111.966816 
L 117.308318 130.361626 
L 117.340787 130.361626 
L 117.405725 138.39942 
L 117.503131 114.04678 
L 117.535599 114.899977 
L 117.697943 120.76949 
L 118.249911 120.76949 
L 118.379786 184.435431 
L 119.548659 184.435431 
L 119.678534 109.438203 
L 119.711002 108.79774 
L 119.77594 109.483445 
L 120.457783 109.549486 
L 120.587657 109.617401 
L 120.685063 109.617401 
L 120.717532 242.873328 
L 120.814938 227.368041 
L 120.944813 111.267283 
L 121.107157 110.05177 
L 121.139625 121.772456 
L 121.204563 110.746539 
L 121.237031 110.719085 
L 121.301969 109.946644 
L 121.334437 110.775374 
L 121.52925 110.719085 
L 121.659124 109.735402 
L 121.724062 109.617401 
L 121.756531 109.735402 
L 121.788999 109.735402 
L 121.853937 109.617401 
L 121.886405 109.735402 
L 121.918874 109.735402 
L 122.01628 109.617401 
L 122.146155 109.72244 
L 122.243561 109.617401 
L 122.27603 109.604439 
L 122.340967 109.72244 
L 122.373436 109.604439 
L 123.347497 109.604439 
L 123.412434 109.273558 
L 123.444903 109.722439 
L 123.477372 109.722439 
L 123.607247 110.193252 
L 123.704653 110.193252 
L 123.737121 109.822627 
L 123.802059 110.193252 
L 123.834527 110.193252 
L 123.964402 109.762647 
L 124.02934 109.791701 
L 124.191683 110.281964 
L 124.51637 110.225771 
L 124.646245 109.409741 
L 124.711182 109.391559 
L 124.841057 109.221344 
L 126.172274 109.221344 
L 126.302149 109.942917 
L 128.217802 109.942917 
L 128.347677 110.07185 
L 128.380146 109.942917 
L 128.445083 110.07185 
L 129.159394 110.07185 
L 129.224332 110.31428 
L 129.289269 110.255135 
L 129.451613 109.75023 
L 129.484081 109.825613 
L 129.51655 109.787163 
L 129.581488 109.616304 
L 129.613956 110.289217 
L 129.711362 110.155972 
L 129.7763 109.404832 
L 129.808769 109.995762 
L 129.873706 110.255136 
L 129.906175 110.144657 
L 130.068518 109.680635 
L 130.100987 109.714744 
L 130.165924 109.647841 
L 130.393205 109.303846 
L 130.458143 109.502124 
L 130.490611 109.502124 
L 130.52308 109.715713 
L 130.588017 109.426571 
L 131.139985 109.426571 
L 131.172454 111.777676 
L 131.237391 110.660272 
L 131.52961 109.600955 
L 131.562078 109.539415 
L 131.627016 109.600955 
L 131.756891 109.600955 
L 131.821828 109.371941 
L 131.886765 109.446086 
L 131.984172 109.967637 
L 132.01664 109.654483 
L 132.114046 109.600955 
L 132.146515 109.65171 
L 132.178984 108.753436 
L 132.243921 109.646726 
L 132.341327 109.638693 
L 132.373796 111.231639 
L 132.471202 111.097206 
L 132.503671 111.107699 
L 132.666014 109.880917 
L 132.828358 109.585562 
L 133.088107 109.585562 
L 133.217982 109.801715 
L 133.347857 109.585562 
L 135.198573 109.585562 
L 135.231042 111.21245 
L 135.26351 107.522124 
L 135.295979 109.575675 
L 135.588197 109.638943 
L 135.653135 108.833197 
L 135.685603 109.477759 
L 135.718072 109.626497 
L 135.750541 108.861379 
L 135.78301 109.631006 
L 135.815478 109.631006 
L 136.27004 109.626497 
L 136.367446 112.508382 
L 136.399915 110.191649 
L 136.52979 110.163443 
L 136.659665 109.802358 
L 136.822008 109.802358 
L 136.854477 110.054985 
L 136.919414 110.028097 
L 136.951883 111.822962 
L 137.01682 111.770063 
L 137.049289 109.990301 
L 137.146695 110.095321 
L 137.27657 109.467286 
L 137.438913 109.356279 
L 138.185693 109.34018 
L 141.724782 109.33206 
L 141.854657 112.478675 
L 141.984532 110.677776 
L 142.309219 110.677776 
L 142.439093 110.301066 
L 142.471562 110.335127 
L 142.504031 110.335127 
L 142.568968 108.170124 
L 142.601437 112.449001 
L 142.666374 110.715949 
L 142.698843 109.548112 
L 142.796249 109.6779 
L 142.926124 109.971129 
L 143.055999 110.072971 
L 143.120936 109.011776 
L 143.153405 109.30298 
L 143.315748 110.427516 
L 143.965122 110.427516 
L 144.094997 109.328565 
L 144.127466 109.270632 
L 144.289809 110.346547 
L 144.322278 110.327224 
L 144.484622 110.351544 
L 144.614496 110.635124 
L 144.874246 110.635124 
L 145.101527 112.274446 
L 145.166464 111.196371 
L 145.231402 111.232407 
L 145.26387 111.270084 
L 145.296339 114.062575 
L 145.361276 112.578271 
L 145.393745 112.800635 
L 145.52362 110.176343 
L 145.556089 110.249079 
L 145.718432 112.184812 
L 145.750901 117.009451 
L 145.78337 112.993605 
L 145.913244 109.29527 
L 146.140525 109.29527 
L 146.2704 109.7001 
L 146.400275 109.738028 
L 146.497681 116.802886 
L 146.53015 199.288505 
L 146.627556 178.084874 
L 146.660025 200.200125 
L 146.692493 179.025016 
L 146.724962 108.88162 
L 146.822368 109.29527 
L 146.919774 109.210087 
L 147.049649 109.18243 
L 148.056179 109.194479 
L 148.088647 108.132891 
L 148.153585 109.222149 
L 148.28346 109.167163 
L 148.348397 108.195279 
L 148.510741 114.779186 
L 148.575678 114.779186 
L 148.738021 110.880194 
L 148.900365 110.540476 
L 149.062708 110.437118 
L 149.095177 111.992318 
L 149.127646 109.142151 
L 149.160115 109.173524 
L 149.354927 109.900071 
L 149.679614 109.957554 
L 149.744551 110.036629 
L 149.874426 112.961391 
L 150.036769 109.391609 
L 150.134176 110.26443 
L 150.199113 109.128294 
L 150.26405 109.173003 
L 150.296519 109.079565 
L 150.361457 109.205068 
L 150.426394 109.122826 
L 150.458863 120.268089 
L 150.5238 112.455314 
L 150.556269 109.578304 
L 150.653675 109.928208 
L 155.166824 109.829689 
L 155.199293 109.788259 
L 155.231762 109.852651 
L 155.361637 109.903367 
L 155.653855 109.648315 
L 155.751261 109.829689 
L 155.78373 109.808241 
L 155.881136 109.808241 
L 155.946073 109.524025 
L 155.978542 109.833432 
L 156.173354 110.488082 
L 156.205823 209.898371 
L 156.303229 209.852488 
L 156.400635 209.311204 
L 156.498041 239.516243 
L 156.627916 110.804979 
L 156.757791 132.724325 
L 156.855197 132.724325 
L 156.920134 74.538302 
L 157.01754 214.439219 
L 157.050009 213.101865 
L 157.082478 211.937586 
L 157.212353 111.116382 
L 157.504571 111.116382 
L 157.53704 111.623728 
L 157.569508 211.266771 
L 157.634446 193.604489 
L 157.699383 211.237726 
L 157.731852 145.566953 
L 157.76432 193.657491 
L 157.796789 113.994476 
L 157.829258 116.058193 
L 157.894195 113.855786 
L 157.926664 114.137461 
L 157.959133 113.721216 
L 158.02407 114.730816 
L 158.089007 109.320149 
L 158.121476 109.320149 
L 158.153945 115.103685 
L 158.218882 109.320149 
L 158.413694 109.320149 
L 158.446163 108.639237 
L 158.511101 109.320149 
L 158.803319 109.320149 
L 158.835788 126.853751 
L 158.900725 108.284537 
L 158.933194 108.29701 
L 159.0306 234.657109 
L 159.063068 108.29701 
L 159.128006 108.32388 
L 159.225412 234.657109 
L 159.257881 108.284537 
L 159.322818 234.657109 
L 159.355287 234.657109 
L 159.420224 108.199662 
L 159.452693 108.210323 
L 159.51763 234.657109 
L 159.550099 108.24685 
L 159.615036 108.210323 
L 159.647505 108.285251 
L 159.809849 108.234541 
L 159.907255 108.710329 
L 160.03713 108.245155 
L 160.069598 108.245155 
L 160.167004 108.643182 
L 160.329348 107.773034 
L 160.491691 108.262584 
L 160.621566 117.517954 
L 160.718972 108.616259 
L 160.78391 108.964196 
L 160.913784 109.588933 
L 160.946253 109.284892 
L 160.978722 109.278844 
L 161.011191 109.603056 
L 161.108597 111.682156 
L 161.238471 108.60752 
L 161.27094 108.60752 
L 161.303409 111.300321 
L 161.368346 108.615277 
L 161.595627 108.729008 
L 161.628096 107.499057 
L 161.725502 107.931248 
L 161.822908 107.931248 
L 161.952783 220.677836 
L 162.115126 221.448244 
L 162.180064 221.367039 
L 162.212533 216.25093 
L 162.245001 216.312124 
L 162.27747 108.823153 
L 162.342407 171.013253 
L 162.374876 171.044866 
L 162.407345 111.506586 
L 162.472282 164.179027 
L 162.504751 164.179027 
L 162.569688 110.737135 
L 162.602157 164.179027 
L 162.634626 164.179027 
L 162.667094 108.981531 
L 162.699563 172.206422 
L 162.732032 172.206422 
L 162.926844 172.206422 
L 162.991781 107.877459 
L 163.056719 110.970975 
L 163.121656 108.595599 
L 163.154125 111.009562 
L 163.186594 110.981614 
L 163.251531 170.291305 
L 163.284 165.828864 
L 163.348937 108.595599 
L 163.413874 111.059029 
L 163.478812 109.687479 
L 163.576218 110.28338 
L 163.738561 110.334619 
L 163.803499 110.334619 
L 163.835968 110.523 
L 163.868436 110.424851 
L 163.900905 110.243208 
L 163.933374 110.523 
L 163.965842 111.093749 
L 163.998311 110.890102 
L 164.03078 108.233504 
L 164.095717 110.644372 
L 164.128186 110.599368 
L 164.160655 111.327011 
L 164.258061 111.304766 
L 164.290529 110.115173 
L 164.355467 111.310069 
L 164.647685 111.310069 
L 164.712623 110.551658 
L 164.745091 111.53593 
L 164.77756 113.094044 
L 164.842497 111.211327 
L 164.907435 111.529378 
L 165.069778 108.723322 
L 165.102247 109.378516 
L 165.167184 108.723322 
L 165.199653 108.723322 
L 165.329528 110.115173 
L 165.459403 109.361028 
L 165.556809 110.115173 
L 165.686684 109.361028 
L 165.719152 110.115173 
L 165.78409 109.370228 
L 165.816558 109.370228 
L 165.881496 108.754718 
L 165.946433 110.115173 
L 166.076308 108.754718 
L 166.108777 110.988701 
L 166.173714 109.431195 
L 166.238652 109.436301 
L 166.368526 108.754718 
L 166.400995 108.754718 
L 166.433464 181.192435 
L 166.498401 108.754718 
L 166.563339 108.754718 
L 166.725682 111.783616 
L 166.888026 109.494899 
L 166.952963 109.448229 
L 167.0179 109.494899 
L 167.245181 109.448229 
L 167.375056 111.885596 
L 167.862087 111.789673 
L 168.02443 110.270534 
L 168.056899 110.954351 
L 168.154305 110.699104 
L 168.186774 110.369743 
L 168.219242 110.822475 
L 168.251711 110.583448 
L 168.28418 110.954351 
L 168.316648 108.434928 
L 168.349117 110.44796 
L 168.381586 112.795243 
L 168.511461 93.670646 
L 168.641335 111.938169 
L 168.673804 108.546079 
L 168.738742 110.112173 
L 168.77121 110.217538 
L 168.803679 110.071214 
L 168.868616 109.706956 
L 168.901085 109.741484 
L 169.128366 110.365186 
L 169.160835 110.365186 
L 169.258241 108.67677 
L 169.290709 108.765905 
L 169.420584 108.715007 
L 169.453053 108.919791 
L 169.485522 108.660122 
L 169.550459 108.321526 
L 169.615396 108.437253 
L 169.77774 108.408644 
L 169.907615 108.566298 
L 170.394645 108.566298 
L 170.427114 107.726966 
L 170.52452 107.946271 
L 170.654395 108.736903 
L 170.816738 109.031936 
L 170.881676 108.566298 
L 170.914145 109.435785 
L 170.946613 108.566298 
L 171.011551 109.190259 
L 171.044019 110.287947 
L 171.141425 109.931595 
L 171.336238 109.428203 
L 171.53105 108.706142 
L 171.563519 108.742663 
L 171.790799 108.645526 
L 171.823268 108.665145 
L 171.855737 110.392662 
L 171.888206 108.63431 
L 171.920674 108.671903 
L 171.953143 108.665145 
L 172.083018 110.392662 
L 172.115486 110.392662 
L 172.147955 110.607743 
L 172.180424 110.134056 
L 172.212893 110.392662 
L 172.472642 110.392662 
L 172.634986 108.504042 
L 172.76486 110.392662 
L 172.829798 110.392662 
L 172.862267 108.504251 
L 172.927204 108.632129 
L 173.02461 110.392662 
L 173.057079 108.823339 
L 173.122016 110.392662 
L 173.186954 110.392662 
L 173.28436 108.48648 
L 173.381766 110.392662 
L 173.414235 110.292295 
L 173.511641 110.392662 
L 173.673984 107.828095 
L 173.803859 107.74399 
L 173.836328 108.979584 
L 173.933734 108.681055 
L 174.583108 108.667399 
L 174.712983 108.106684 
L 174.842857 109.059109 
L 175.102607 109.475676 
L 175.719512 109.475676 
L 175.816918 110.443449 
L 175.849387 110.347433 
L 176.044199 109.92559 
L 176.076668 109.969559 
L 176.206543 110.284876 
L 176.466292 111.617634 
L 176.596167 108.308258 
L 176.726042 108.217734 
L 176.758511 108.278318 
L 176.790979 108.191291 
L 176.985792 108.137742 
L 177.148135 108.983647 
L 177.245541 109.886786 
L 177.27801 110.759208 
L 177.342947 173.865012 
L 177.375416 116.100526 
L 177.407885 115.636895 
L 177.53776 110.333347 
L 177.635166 110.333347 
L 177.765041 115.636895 
L 177.797509 117.34163 
L 177.862447 115.636895 
L 177.927384 114.909363 
L 177.959853 116.100526 
L 178.02479 115.636895 
L 178.057259 115.245056 
L 178.187134 168.00479 
L 178.252071 157.615616 
L 178.28454 171.721832 
L 178.317008 175.167863 
L 178.381946 171.721832 
L 178.414415 171.721832 
L 178.446883 176.779622 
L 178.576758 113.894493 
L 178.609227 113.910325 
L 178.77157 112.283138 
L 178.804039 112.332641 
L 178.933914 111.632601 
L 178.966382 111.57194 
L 179.096257 110.472144 
L 179.128726 110.709412 
L 179.193663 110.649946 
L 179.291069 110.59698 
L 179.323538 110.709412 
L 179.388476 110.59698 
L 179.51835 110.49682 
L 179.713163 110.836406 
L 179.907975 110.836406 
L 180.167724 112.879695 
L 180.200193 112.815501 
L 180.427474 112.879695 
L 180.492411 113.020882 
L 180.622286 110.333347 
L 183.349657 110.351995 
L 183.382126 108.482879 
L 183.447063 110.297123 
L 183.544469 110.197607 
L 183.576938 110.097037 
L 183.641875 110.372689 
L 183.706813 110.27314 
L 184.161375 110.168784 
L 184.291249 110.932473 
L 184.713343 110.932473 
L 184.843217 110.27314 
L 184.973092 111.045071 
L 185.167904 111.045071 
L 185.979622 111.045071 
L 186.012091 110.552358 
L 186.077028 111.045071 
L 186.141965 111.045071 
L 186.27184 110.249524 
L 186.401715 110.373781 
L 186.434184 110.373781 
L 186.499121 110.613868 
L 186.53159 110.303396 
L 186.564059 110.303396 
L 186.661465 110.620146 
L 186.693933 109.454446 
L 186.726402 110.844858 
L 186.791339 109.454446 
L 186.986152 109.454446 
L 187.01862 109.864368 
L 187.083558 109.454446 
L 187.700463 109.454446 
L 187.830338 108.523239 
L 187.992681 108.523239 
L 188.057619 110.27424 
L 188.090088 108.523239 
L 188.155025 108.523239 
L 188.219962 110.27424 
L 188.252431 108.523239 
L 188.479712 108.523239 
L 188.577118 110.27424 
L 188.706993 108.523239 
L 188.77193 108.523239 
L 188.804399 110.27424 
L 188.869336 108.523239 
L 191.499301 108.523239 
L 191.53177 109.738706 
L 191.629176 109.542263 
L 191.79152 109.456833 
L 192.473362 109.449845 
L 192.603237 108.523239 
L 192.830518 108.523239 
L 192.895455 108.392331 
L 192.927924 108.446077 
L 192.992861 108.572771 
L 193.122736 109.172849 
L 193.252611 109.124525 
L 193.350017 110.443449 
L 193.382486 109.232823 
L 193.479892 109.290288 
L 193.804579 109.290288 
L 193.901985 109.028688 
L 193.934454 109.07622 
L 193.966923 109.129278 
L 194.03186 109.07622 
L 194.064329 108.280177 
L 194.161735 108.451525 
L 194.194203 108.409373 
L 194.259141 108.468936 
L 194.681234 108.617544 
L 194.77864 108.617544 
L 194.908515 109.889901 
L 195.298139 109.889901 
L 195.428014 109.20672 
L 195.622826 109.140925 
L 195.752701 110.10992 
L 195.915045 109.799797 
L 196.012451 110.910491 
L 196.044919 110.361347 
L 196.109857 109.627866 
L 196.142326 109.653384 
L 196.174794 112.092508 
L 196.2722 112.038251 
L 196.337138 112.038251 
L 196.402075 111.849435 
L 196.434544 112.038251 
L 196.629356 113.384746 
L 196.661825 113.288266 
L 196.759231 112.702165 
L 196.856637 108.963285 
L 196.889106 108.985785 
L 196.921574 108.916425 
L 196.986512 109.02861 
L 197.148855 109.286235 
L 197.311199 109.889901 
L 198.804759 109.889901 
L 198.869696 108.611453 
L 198.902165 109.862806 
L 199.03204 109.862806 
L 199.064509 109.173101 
L 199.129446 109.829779 
L 199.161915 110.145817 
L 199.226852 109.829779 
L 199.29179 109.733479 
L 199.389196 109.38988 
L 199.454133 109.55359 
L 199.584008 113.154072 
L 199.713883 108.989559 
L 199.77882 109.313854 
L 199.941164 110.260775 
L 200.071038 109.505106 
L 201.597067 109.505106 
L 201.629536 109.325208 
L 201.726942 109.138227 
L 201.759411 109.889901 
L 201.79188 109.889901 
L 201.824348 109.15495 
L 201.889286 109.463658 
L 202.051629 109.505106 
L 202.53866 109.505106 
L 202.603597 108.900256 
L 202.668534 109.008367 
L 202.733472 109.07244 
L 202.765941 109.319195 
L 202.798409 145.326351 
L 202.830878 109.226303 
L 202.863347 109.32346 
L 202.928284 109.332148 
L 203.058159 145.326351 
L 203.350377 145.326351 
L 203.480252 145.05045 
L 203.675064 145.05045 
L 203.740002 136.402262 
L 203.869876 110.443449 
L 204.779 110.443449 
L 204.811469 108.514707 
L 204.908875 108.522701 
L 206.53231 108.5229 
L 206.629716 110.435249 
L 206.694653 108.5229 
L 206.727122 110.435249 
L 206.824528 110.188031 
L 206.856997 110.435249 
L 206.921934 110.188031 
L 207.603777 110.216599 
L 207.668715 110.426535 
L 207.701183 110.380438 
L 207.733652 110.297211 
L 207.766121 110.453373 
L 207.895995 108.566572 
L 207.960933 110.426535 
L 207.993402 108.566572 
L 208.155745 108.526668 
L 208.253151 108.600466 
L 208.318089 111.068972 
L 208.383026 110.928231 
L 208.512901 109.484622 
L 208.805119 109.443903 
L 208.870056 109.43273 
L 208.902525 108.746239 
L 208.967463 109.400306 
L 209.389556 109.364281 
L 209.422024 108.842416 
L 209.486962 108.92645 
L 209.584368 109.364281 
L 209.649305 108.842416 
L 209.714243 108.882092 
L 209.77918 108.976157 
L 209.811649 108.92645 
L 209.909055 109.364281 
L 210.03893 108.522701 
L 210.168805 109.341047 
L 210.266211 108.92645 
L 210.396085 109.341047 
L 210.493492 109.345576 
L 210.52596 108.521779 
L 210.590898 109.341047 
L 210.623366 109.341047 
L 210.720772 109.224877 
L 210.753241 109.277799 
L 210.850647 109.341047 
L 211.370146 108.5229 
L 214.811829 108.54003 
L 214.909235 108.996109 
L 214.941704 108.917687 
L 214.974172 108.996109 
L 215.104047 108.517094 
L 215.883296 108.5229 
L 215.980702 108.219295 
L 216.110577 108.595154 
L 216.143046 108.595154 
L 216.240452 109.392897 
L 216.27292 104.334798 
L 216.337858 108.64701 
L 216.727482 108.669429 
L 216.759951 126.250791 
L 216.824888 109.608825 
L 217.052169 109.608825 
L 217.117107 109.062287 
L 217.149575 109.341009 
L 217.182044 109.538659 
L 217.27945 114.528029 
L 217.409325 130.007119 
L 217.5392 108.193048 
L 217.604137 214.610722 
L 217.636606 110.789633 
L 217.766481 110.789633 
L 217.798949 110.671293 
L 217.831418 110.071729 
L 217.863887 110.299698 
L 217.993762 289.528723 
L 218.02623 295.488 
L 218.058699 114.108434 
L 218.156105 114.508882 
L 218.221042 130.029245 
L 218.253511 124.642565 
L 218.383386 110.180243 
L 218.578198 109.193181 
L 218.77301 109.116595 
L 218.935354 108.999826 
L 219.357447 108.927921 
L 219.454853 109.889901 
L 219.487322 109.515978 
L 219.552259 109.48662 
L 219.682134 109.980112 
L 219.77954 109.918406 
L 219.812009 109.948434 
L 219.974352 109.980112 
L 220.104227 110.086565 
L 220.136696 109.042285 
L 220.234102 109.130916 
L 220.331508 109.042285 
L 220.493852 108.940502 
L 220.623726 108.940502 
L 221.435444 108.958456 
L 221.565319 112.655558 
L 221.597787 111.660298 
L 221.662725 112.655558 
L 221.760131 112.655558 
L 221.890006 111.660298 
L 222.019881 112.655558 
L 222.117287 112.655558 
L 222.247161 111.660298 
L 222.377036 111.660298 
L 222.441974 112.925249 
L 222.474442 111.660298 
L 222.669255 111.660298 
L 222.734192 113.125525 
L 222.766661 111.660298 
L 222.896535 111.660298 
L 222.929004 113.392212 
L 222.993942 111.660298 
L 223.253691 111.660298 
L 223.28616 113.748204 
L 223.351097 111.660298 
L 224.130346 111.660298 
L 224.260221 114.304992 
L 224.390096 114.238667 
L 224.552439 114.440092 
L 224.584908 114.372131 
L 224.617377 114.508882 
L 224.682314 114.578509 
L 224.877126 114.939484 
L 225.169345 115.402069 
L 225.299219 115.402069 
L 225.429094 115.579726 
L 225.558969 115.402069 
L 225.591438 115.402069 
L 225.721312 115.579726 
L 225.753781 115.579726 
L 225.818719 115.228994 
L 225.883656 115.402069 
L 225.916125 115.402069 
L 226.046 115.228994 
L 226.143406 115.402069 
L 226.208343 115.228994 
L 226.240812 115.402069 
L 226.27328 115.402069 
L 226.305749 115.228994 
L 226.468093 134.185331 
L 226.565499 132.644282 
L 226.597967 115.384091 
L 226.695374 115.554728 
L 226.727842 115.554728 
L 226.760311 115.384091 
L 226.79278 115.554728 
L 226.825248 109.282994 
L 226.922654 110.215418 
L 226.955123 110.215418 
L 226.987592 109.282994 
L 227.052529 110.215418 
L 227.084998 110.215418 
L 227.117467 109.282994 
L 227.182404 110.215418 
L 227.864247 110.215418 
L 227.994122 109.282994 
L 228.02659 109.193181 
L 228.059059 109.954874 
L 228.123996 109.193181 
L 228.28634 109.387115 
L 228.416215 109.282994 
L 229.227932 109.193181 
L 229.260401 109.116595 
L 229.325338 109.193181 
L 229.552619 109.282994 
L 229.650025 109.387115 
L 229.7799 109.282994 
L 229.974712 109.193181 
L 230.007181 109.116595 
L 230.072118 109.193181 
L 230.104587 109.282994 
L 230.137056 109.193181 
L 230.169525 110.215418 
L 230.234462 109.282994 
L 230.396805 109.193181 
L 230.461743 109.116595 
L 230.494212 110.104896 
L 230.559149 109.193181 
L 230.689024 109.193181 
L 230.721493 110.215418 
L 230.78643 109.193181 
L 230.948773 109.153293 
L 231.078648 110.215418 
L 231.598147 110.292535 
L 231.630616 109.773445 
L 231.695554 110.292535 
L 231.857897 110.292535 
L 231.890366 109.198459 
L 231.955303 110.244543 
L 233.676144 110.13501 
L 233.806019 109.813012 
L 233.870957 109.854013 
L 234.29305 110.244543 
L 235.591798 110.244543 
L 235.656735 108.510273 
L 235.721673 108.56211 
L 235.851547 108.510273 
L 235.884016 108.535786 
L 235.916485 110.159019 
L 235.948953 108.485533 
L 236.013891 109.954874 
L 236.27364 110.002944 
L 236.371047 109.525782 
L 236.500921 110.292535 
L 242.410225 110.292535 
L 242.442694 108.326005 
L 242.572569 117.868488 
L 249.553339 117.868488 
L 249.618277 120.148157 
L 249.683214 107.856027 
L 249.748152 109.045007 
L 249.878026 109.045007 
L 249.942964 108.933626 
L 250.072839 112.083296 
L 250.689744 112.083296 
L 250.819619 112.427309 
L 251.014431 112.427309 
L 251.144306 112.083296 
L 251.339118 112.083296 
L 251.468993 112.427309 
L 251.501461 109.073367 
L 251.566399 112.083296 
L 251.923555 112.083296 
L 252.053429 109.073367 
L 252.085898 109.073367 
L 252.215773 112.427309 
L 252.28071 112.427309 
L 252.345648 111.973816 
L 252.378116 109.073367 
L 252.443054 111.973816 
L 252.507991 111.973816 
L 252.637866 111.398724 
L 252.670335 111.57838 
L 252.702803 111.57838 
L 252.735272 111.398724 
L 252.767741 111.57838 
L 252.897616 111.973816 
L 253.092428 111.913512 
L 253.157365 109.39154 
L 253.189834 112.407119 
L 257.215953 112.407119 
L 257.410765 111.449246 
L 257.54064 110.034091 
L 258.092608 110.126523 
L 258.190014 110.186075 
L 258.222483 110.063247 
L 258.254951 110.294761 
L 258.384826 110.382231 
L 258.54717 108.467631 
L 258.579638 107.261473 
L 258.612107 107.265668 
L 258.741982 111.869236 
L 258.936794 111.951517 
L 258.969263 111.997648 
L 259.131606 110.47203 
L 259.29395 110.381276 
L 259.521231 108.995397 
L 260.592698 108.995397 
L 260.722573 110.034091 
L 260.819979 110.034091 
L 260.852447 108.689519 
L 260.917385 110.034091 
L 261.274541 110.034091 
L 261.371947 108.81865 
L 261.404415 110.034091 
L 261.469353 108.759541 
L 261.501821 108.689519 
L 261.599228 107.35989 
L 261.631696 107.561615 
L 261.729102 107.918562 
L 261.761571 110.342878 
L 261.826508 107.683536 
L 261.923915 107.339599 
L 261.956383 107.421389 
L 262.021321 107.288526 
L 262.053789 107.442649 
L 262.086258 107.483888 
L 262.118727 107.440904 
L 262.216133 107.200742 
L 262.248602 108.772116 
L 262.313539 107.277746 
L 262.346008 107.732223 
L 262.378476 107.313371 
L 262.443414 110.311716 
L 262.475882 110.177864 
L 262.508351 108.373527 
L 262.573289 110.614186 
L 262.605757 109.985167 
L 262.703163 110.178825 
L 262.865507 110.54892 
L 263.092788 108.619534 
L 263.320069 108.11092 
L 263.385006 108.140911 
L 263.417475 108.145908 
L 263.449944 108.569089 
L 263.579818 116.407135 
L 263.839568 116.407135 
L 263.936974 108.470372 
L 263.969443 112.674287 
L 264.001911 108.441492 
L 264.03438 108.470372 
L 264.196724 108.602176 
L 264.456473 108.853738 
L 264.618817 108.441492 
L 264.683754 108.616991 
L 264.748692 108.668911 
L 264.78116 113.089395 
L 264.813629 108.659795 
L 264.846098 108.721437 
L 264.911035 109.394247 
L 264.943504 109.295437 
L 265.008441 108.789055 
L 265.04091 109.394247 
L 265.073379 108.797726 
L 265.105847 112.398957 
L 265.170785 111.988047 
L 265.203253 109.254416 
L 265.30066 109.374732 
L 265.333128 109.297182 
L 265.365597 110.505769 
L 265.430534 110.077312 
L 265.495472 108.797568 
L 265.560409 108.858206 
L 265.592878 108.716144 
L 265.657815 108.740102 
L 265.755221 109.129049 
L 265.78769 108.921868 
L 265.917565 115.742834 
L 265.950034 115.742834 
L 266.079908 108.706558 
L 266.144846 108.601333 
L 266.209783 109.55011 
L 266.242252 112.068945 
L 266.307189 110.558499 
L 266.339658 110.550623 
L 266.404595 111.58587 
L 266.469533 111.567213 
L 266.566939 111.587396 
L 266.696814 108.512611 
L 266.729282 115.174228 
L 266.79422 112.180427 
L 266.989032 110.834338 
L 267.118907 109.945002 
L 267.151376 115.297076 
L 267.183844 109.151399 
L 267.248782 114.62168 
L 267.28125 109.331334 
L 267.378656 109.41915 
L 267.541 109.197972 
L 267.703343 109.685269 
L 267.865687 109.953268 
L 267.898156 109.953268 
L 267.930624 109.802364 
L 267.995562 109.953268 
L 268.060499 109.916206 
L 268.092968 110.025858 
L 268.125437 109.953268 
L 268.190374 110.025858 
L 268.54753 110.532266 
L 268.644936 107.907306 
L 268.612467 110.680997 
L 268.677404 109.586439 
L 268.709873 110.738733 
L 268.742342 93.978261 
L 268.807279 110.432909 
L 269.099498 110.700444 
L 269.131966 85.343811 
L 269.196904 110.57762 
L 269.261841 110.641084 
L 269.29431 110.57762 
L 269.456653 110.57762 
L 269.554059 110.757763 
L 269.586528 110.680997 
L 269.618997 101.997286 
L 269.683934 109.715071 
L 269.716403 110.680997 
L 269.748872 101.963268 
L 269.813809 110.700444 
L 269.878746 110.641084 
L 269.911215 90.524286 
L 269.976153 110.680997 
L 270.008621 110.738733 
L 270.04109 90.39771 
L 270.106027 94.538262 
L 270.138496 110.195078 
L 270.235902 110.026484 
L 270.722933 109.974044 
L 270.885276 102.250879 
L 271.015151 110.026484 
L 271.04762 111.700539 
L 271.112557 90.790134 
L 271.145026 110.700444 
L 271.209963 110.757763 
L 271.274901 85.573144 
L 271.307369 110.738733 
L 271.372307 110.719659 
L 271.404775 110.757763 
L 271.469713 88.099524 
L 271.502181 110.757763 
L 271.696994 110.661236 
L 271.729462 108.257667 
L 271.826869 108.396777 
L 271.924275 108.492201 
L 272.054149 108.700484 
L 272.184024 108.912547 
L 272.313899 109.858363 
L 272.378836 109.858363 
L 272.476243 113.437256 
L 272.508711 108.176841 
L 272.606117 108.787498 
L 272.735992 109.858363 
L 272.768461 109.858363 
L 272.865867 110.161361 
L 272.898336 110.149619 
L 273.02821 110.137727 
L 273.158085 109.944665 
L 273.190554 110.076129 
L 273.255491 110.037925 
L 273.28796 109.964502 
L 273.352897 110.088707 
L 273.515241 110.012465 
L 273.580178 109.98766 
L 273.612647 110.125685 
L 273.677584 109.98766 
L 273.839928 110.101168 
L 273.872397 110.012465 
L 273.904865 110.025157 
L 274.03474 110.22883 
L 274.716583 110.343054 
L 275.625707 110.415953 
L 275.723113 118.645075 
L 275.852987 110.415953 
L 275.885456 117.560209 
L 275.950394 110.415953 
L 276.0478 110.415953 
L 276.080268 118.645075 
L 276.177674 117.560209 
L 276.210143 110.415953 
L 276.242612 118.019821 
L 276.275081 117.560209 
L 276.307549 117.294047 
L 276.340018 118.579627 
L 276.437424 118.325616 
L 276.469893 117.294047 
L 276.502362 118.579627 
L 276.53483 118.019821 
L 276.567299 118.325616 
L 276.632236 117.560209 
L 276.664705 118.019821 
L 276.827049 118.579627 
L 276.859517 118.579627 
L 276.989392 110.415953 
L 277.086798 118.579627 
L 277.216673 110.415953 
L 277.249142 110.415953 
L 277.28161 117.726943 
L 277.346548 110.415953 
L 277.443954 110.415953 
L 277.508891 118.532519 
L 277.54136 117.938926 
L 277.671235 110.415953 
L 279.29467 110.353151 
L 279.424545 53.568 
L 279.554419 111.626623 
L 279.651826 111.626623 
L 279.684294 54.188879 
L 279.749232 111.698426 
L 280.106387 111.698426 
L 280.236262 112.946396 
L 305.074819 112.946396 
L 305.107287 111.922998 
L 305.172225 112.946396 
L 306.178755 112.946396 
L 306.211223 111.889088 
L 306.276161 112.946396 
L 306.406036 112.946396 
L 306.53591 111.84677 
L 306.633316 111.969933 
L 306.665785 111.889088 
L 306.79566 112.946396 
L 306.828129 112.946396 
L 306.893066 111.915615 
L 306.925535 112.946396 
L 307.087878 112.946396 
L 307.217753 111.941757 
L 307.347628 112.946396 
L 308.321689 112.946396 
L 308.419095 111.84677 
L 308.451564 111.966855 
L 308.581439 111.915615 
L 308.678845 111.857352 
L 308.711313 112.946396 
L 309.5555 112.946396 
L 309.587968 111.857352 
L 309.652906 112.946396 
L 309.750312 112.946396 
L 309.847718 111.857352 
L 309.977593 112.946396 
L 314.101118 112.946396 
L 314.133586 111.891335 
L 314.198524 112.946396 
L 314.328399 112.946396 
L 314.360867 111.889088 
L 314.425805 111.891335 
L 314.458273 112.946396 
L 314.523211 111.966855 
L 314.588148 111.891335 
L 314.750492 113.740336 
L 314.78296 108.785581 
L 314.847898 112.946396 
L 316.146646 112.946396 
L 316.276521 111.827613 
L 316.406396 112.946396 
L 316.471333 112.946396 
L 316.503802 111.891335 
L 316.568739 112.946396 
L 316.601208 113.746865 
L 316.633676 111.86876 
L 316.666145 112.946396 
L 316.893426 112.946396 
L 317.023301 111.891335 
L 317.153176 112.946396 
L 317.218113 112.946396 
L 317.250582 111.891335 
L 317.315519 112.946396 
L 318.419455 112.946396 
L 318.484392 111.966855 
L 318.516861 112.946396 
L 321.666325 112.946396 
L 321.698794 111.891335 
L 321.763731 112.946396 
L 322.218293 112.946396 
L 322.250762 114.003186 
L 322.315699 112.946396 
L 322.445574 112.946396 
L 322.478043 108.76202 
L 322.54298 112.946396 
L 324.231353 112.946396 
L 324.263821 111.847743 
L 324.328759 112.946396 
L 324.848258 112.946396 
L 324.880727 108.683871 
L 324.945664 112.946396 
L 325.270351 112.946396 
L 325.30282 108.773238 
L 325.367757 112.946396 
L 325.952194 112.946396 
L 325.984662 108.615598 
L 326.0496 112.946396 
L 326.504162 112.946396 
L 326.53663 108.594007 
L 326.634036 108.65185 
L 326.763911 108.800202 
L 326.893786 112.946396 
L 327.023661 112.946396 
L 327.05613 108.753469 
L 327.121067 112.946396 
L 327.608098 112.946396 
L 327.640566 108.800202 
L 327.705504 108.879059 
L 327.737972 112.946396 
L 327.80291 109.044628 
L 327.965253 109.253307 
L 327.997722 109.449103 
L 328.030191 109.37841 
L 328.095128 108.413211 
L 328.127597 108.620214 
L 328.257472 112.427309 
L 329.069189 112.427309 
L 329.134127 111.004721 
L 329.199064 111.166241 
L 329.231533 111.351725 
L 329.264001 111.004721 
L 329.393876 110.051911 
L 329.55622 110.051911 
L 329.588688 109.885471 
L 329.686094 109.960273 
L 330.173125 109.960273 
L 330.270531 111.59023 
L 330.303 111.416818 
L 330.335468 111.263795 
L 330.367937 111.416818 
L 330.497812 111.59023 
L 330.530281 111.59023 
L 330.725093 112.286858 
L 331.244592 112.286858 
L 331.374467 112.427309 
L 331.439404 112.427309 
L 331.569279 112.286858 
L 331.861497 112.286858 
L 331.991372 112.427309 
L 332.478403 112.427309 
L 332.608278 112.286858 
L 332.640746 112.286858 
L 332.770621 112.427309 
L 334.069369 112.427309 
L 334.134307 110.006237 
L 334.166775 112.427309 
L 334.394056 112.427309 
L 334.523931 110.006237 
L 334.588868 110.006237 
L 334.718743 112.427309 
L 334.881087 112.427309 
L 334.913555 110.006237 
L 334.978493 112.427309 
L 335.920085 112.427309 
L 335.952554 110.383729 
L 336.017491 112.427309 
L 336.699334 112.427309 
L 336.764271 110.006237 
L 336.829209 110.438079 
L 336.861677 110.438079 
L 336.991552 112.427309 
L 337.024021 112.427309 
L 337.153896 110.438079 
L 337.80327 110.496884 
L 337.965613 110.705139 
L 338.225363 110.787369 
L 338.517581 111.342967 
L 338.55005 111.342967 
L 338.614987 111.207316 
L 338.647456 111.342967 
L 338.777331 111.66848 
L 338.874737 111.342967 
L 338.907206 111.495526 
L 339.03708 111.866395 
L 339.102018 111.495526 
L 339.166955 111.66848 
L 339.231893 111.866395 
L 339.264361 111.495526 
L 339.329299 111.66848 
L 339.361767 111.66848 
L 339.459174 112.095374 
L 339.491642 111.866395 
L 339.524111 111.866395 
L 339.589048 111.66848 
L 339.621517 111.866395 
L 339.848798 111.866395 
L 339.978673 112.095374 
L 340.04361 111.866395 
L 340.076079 112.095374 
L 340.108548 112.095374 
L 340.238422 112.363765 
L 340.368297 112.363765 
L 340.400766 112.095374 
L 340.465703 112.363765 
L 340.822859 112.363765 
L 340.952734 112.683308 
L 341.504702 112.683308 
L 341.602108 112.363765 
L 341.731983 112.683308 
L 344.978853 112.683308 
L 345.04379 112.286858 
L 345.076259 112.683308 
L 345.693164 112.683308 
L 345.823039 109.960273 
L 345.952914 112.683308 
L 346.407476 112.683308 
L 346.439944 109.960273 
L 346.504882 112.683308 
L 354.427245 112.683308 
L 354.55712 110.051911 
L 354.589588 110.051911 
L 354.622057 109.617752 
L 354.719463 109.758581 
L 354.784401 109.732906 
L 354.881807 110.190004 
L 354.914275 110.051911 
L 354.979213 110.051911 
L 355.011682 109.448294 
L 355.076619 110.051911 
L 355.823399 110.051911 
L 355.953274 97.361275 
L 355.985743 97.361275 
L 356.115617 112.683308 
L 356.31043 112.683308 
L 356.342898 97.361275 
L 356.407836 112.683308 
L 398.487273 112.683308 
L 398.487273 112.683308 
" clip-path="url(#pf27400b534)" style="fill: none; stroke: #1f77b4; stroke-width: 1.5; stroke-linecap: square"/>
   </g>
   <g id="patch_3">
    <path d="M 57.6 307.584 
L 57.6 41.472 
" style="fill: none; stroke: #000000; stroke-width: 0.8; stroke-linejoin: miter; stroke-linecap: square"/>
   </g>
   <g id="patch_4">
    <path d="M 414.72 307.584 
L 414.72 41.472 
" style="fill: none; stroke: #000000; stroke-width: 0.8; stroke-linejoin: miter; stroke-linecap: square"/>
   </g>
   <g id="patch_5">
    <path d="M 57.6 307.584 
L 414.72 307.584 
" style="fill: none; stroke: #000000; stroke-width: 0.8; stroke-linejoin: miter; stroke-linecap: square"/>
   </g>
   <g id="patch_6">
    <path d="M 57.6 41.472 
L 414.72 41.472 
" style="fill: none; stroke: #000000; stroke-width: 0.8; stroke-linejoin: miter; stroke-linecap: square"/>
   </g>
  </g>
 </g>
 <defs>
  <clipPath id="pf27400b534">
   <rect x="57.6" y="41.472" width="357.12" height="266.112"/>
  </clipPath>
 </defs>
</svg>
