<?xml version="1.0" encoding="utf-8" standalone="no"?>
<!DOCTYPE svg PUBLIC "-//W3C//DTD SVG 1.1//EN"
  "http://www.w3.org/Graphics/SVG/1.1/DTD/svg11.dtd">
<svg xmlns:xlink="http://www.w3.org/1999/xlink" width="460.8pt" height="345.6pt" viewBox="0 0 460.8 345.6" xmlns="http://www.w3.org/2000/svg" version="1.1">
 <metadata>
  <rdf:RDF xmlns:dc="http://purl.org/dc/elements/1.1/" xmlns:cc="http://creativecommons.org/ns#" xmlns:rdf="http://www.w3.org/1999/02/22-rdf-syntax-ns#">
   <cc:Work>
    <dc:type rdf:resource="http://purl.org/dc/dcmitype/StillImage"/>
    <dc:date>2024-04-23T12:26:46.351380</dc:date>
    <dc:format>image/svg+xml</dc:format>
    <dc:creator>
     <cc:Agent>
      <dc:title>Matplotlib v3.7.2, https://matplotlib.org/</dc:title>
     </cc:Agent>
    </dc:creator>
   </cc:Work>
  </rdf:RDF>
 </metadata>
 <defs>
  <style type="text/css">*{stroke-linejoin: round; stroke-linecap: butt}</style>
 </defs>
 <g id="figure_1">
  <g id="patch_1">
   <path d="M 0 345.6 
L 460.8 345.6 
L 460.8 0 
L 0 0 
z
" style="fill: #ffffff"/>
  </g>
  <g id="axes_1">
   <g id="patch_2">
    <path d="M 57.6 307.584 
L 414.72 307.584 
L 414.72 41.472 
L 57.6 41.472 
z
" style="fill: #ffffff"/>
   </g>
   <g id="matplotlib.axis_1">
    <g id="xtick_1">
     <g id="line2d_1">
      <defs>
       <path id="me5f5a5bc0a" d="M 0 0 
L 0 3.5 
" style="stroke: #000000; stroke-width: 0.8"/>
      </defs>
      <g>
       <use xlink:href="#me5f5a5bc0a" x="73.832727" y="307.584" style="stroke: #000000; stroke-width: 0.8"/>
      </g>
     </g>
     <g id="text_1">
      <!-- 0 -->
      <g transform="translate(70.651477 322.182437) scale(0.1 -0.1)">
       <defs>
        <path id="DejaVuSans-30" d="M 2034 4250 
Q 1547 4250 1301 3770 
Q 1056 3291 1056 2328 
Q 1056 1369 1301 889 
Q 1547 409 2034 409 
Q 2525 409 2770 889 
Q 3016 1369 3016 2328 
Q 3016 3291 2770 3770 
Q 2525 4250 2034 4250 
z
M 2034 4750 
Q 2819 4750 3233 4129 
Q 3647 3509 3647 2328 
Q 3647 1150 3233 529 
Q 2819 -91 2034 -91 
Q 1250 -91 836 529 
Q 422 1150 422 2328 
Q 422 3509 836 4129 
Q 1250 4750 2034 4750 
z
" transform="scale(0.015625)"/>
       </defs>
       <use xlink:href="#DejaVuSans-30"/>
      </g>
     </g>
    </g>
    <g id="xtick_2">
     <g id="line2d_2">
      <g>
       <use xlink:href="#me5f5a5bc0a" x="138.828632" y="307.584" style="stroke: #000000; stroke-width: 0.8"/>
      </g>
     </g>
     <g id="text_2">
      <!-- 200 -->
      <g transform="translate(129.284882 322.182437) scale(0.1 -0.1)">
       <defs>
        <path id="DejaVuSans-32" d="M 1228 531 
L 3431 531 
L 3431 0 
L 469 0 
L 469 531 
Q 828 903 1448 1529 
Q 2069 2156 2228 2338 
Q 2531 2678 2651 2914 
Q 2772 3150 2772 3378 
Q 2772 3750 2511 3984 
Q 2250 4219 1831 4219 
Q 1534 4219 1204 4116 
Q 875 4013 500 3803 
L 500 4441 
Q 881 4594 1212 4672 
Q 1544 4750 1819 4750 
Q 2544 4750 2975 4387 
Q 3406 4025 3406 3419 
Q 3406 3131 3298 2873 
Q 3191 2616 2906 2266 
Q 2828 2175 2409 1742 
Q 1991 1309 1228 531 
z
" transform="scale(0.015625)"/>
       </defs>
       <use xlink:href="#DejaVuSans-32"/>
       <use xlink:href="#DejaVuSans-30" x="63.623047"/>
       <use xlink:href="#DejaVuSans-30" x="127.246094"/>
      </g>
     </g>
    </g>
    <g id="xtick_3">
     <g id="line2d_3">
      <g>
       <use xlink:href="#me5f5a5bc0a" x="203.824537" y="307.584" style="stroke: #000000; stroke-width: 0.8"/>
      </g>
     </g>
     <g id="text_3">
      <!-- 400 -->
      <g transform="translate(194.280787 322.182437) scale(0.1 -0.1)">
       <defs>
        <path id="DejaVuSans-34" d="M 2419 4116 
L 825 1625 
L 2419 1625 
L 2419 4116 
z
M 2253 4666 
L 3047 4666 
L 3047 1625 
L 3713 1625 
L 3713 1100 
L 3047 1100 
L 3047 0 
L 2419 0 
L 2419 1100 
L 313 1100 
L 313 1709 
L 2253 4666 
z
" transform="scale(0.015625)"/>
       </defs>
       <use xlink:href="#DejaVuSans-34"/>
       <use xlink:href="#DejaVuSans-30" x="63.623047"/>
       <use xlink:href="#DejaVuSans-30" x="127.246094"/>
      </g>
     </g>
    </g>
    <g id="xtick_4">
     <g id="line2d_4">
      <g>
       <use xlink:href="#me5f5a5bc0a" x="268.820442" y="307.584" style="stroke: #000000; stroke-width: 0.8"/>
      </g>
     </g>
     <g id="text_4">
      <!-- 600 -->
      <g transform="translate(259.276692 322.182437) scale(0.1 -0.1)">
       <defs>
        <path id="DejaVuSans-36" d="M 2113 2584 
Q 1688 2584 1439 2293 
Q 1191 2003 1191 1497 
Q 1191 994 1439 701 
Q 1688 409 2113 409 
Q 2538 409 2786 701 
Q 3034 994 3034 1497 
Q 3034 2003 2786 2293 
Q 2538 2584 2113 2584 
z
M 3366 4563 
L 3366 3988 
Q 3128 4100 2886 4159 
Q 2644 4219 2406 4219 
Q 1781 4219 1451 3797 
Q 1122 3375 1075 2522 
Q 1259 2794 1537 2939 
Q 1816 3084 2150 3084 
Q 2853 3084 3261 2657 
Q 3669 2231 3669 1497 
Q 3669 778 3244 343 
Q 2819 -91 2113 -91 
Q 1303 -91 875 529 
Q 447 1150 447 2328 
Q 447 3434 972 4092 
Q 1497 4750 2381 4750 
Q 2619 4750 2861 4703 
Q 3103 4656 3366 4563 
z
" transform="scale(0.015625)"/>
       </defs>
       <use xlink:href="#DejaVuSans-36"/>
       <use xlink:href="#DejaVuSans-30" x="63.623047"/>
       <use xlink:href="#DejaVuSans-30" x="127.246094"/>
      </g>
     </g>
    </g>
    <g id="xtick_5">
     <g id="line2d_5">
      <g>
       <use xlink:href="#me5f5a5bc0a" x="333.816347" y="307.584" style="stroke: #000000; stroke-width: 0.8"/>
      </g>
     </g>
     <g id="text_5">
      <!-- 800 -->
      <g transform="translate(324.272597 322.182437) scale(0.1 -0.1)">
       <defs>
        <path id="DejaVuSans-38" d="M 2034 2216 
Q 1584 2216 1326 1975 
Q 1069 1734 1069 1313 
Q 1069 891 1326 650 
Q 1584 409 2034 409 
Q 2484 409 2743 651 
Q 3003 894 3003 1313 
Q 3003 1734 2745 1975 
Q 2488 2216 2034 2216 
z
M 1403 2484 
Q 997 2584 770 2862 
Q 544 3141 544 3541 
Q 544 4100 942 4425 
Q 1341 4750 2034 4750 
Q 2731 4750 3128 4425 
Q 3525 4100 3525 3541 
Q 3525 3141 3298 2862 
Q 3072 2584 2669 2484 
Q 3125 2378 3379 2068 
Q 3634 1759 3634 1313 
Q 3634 634 3220 271 
Q 2806 -91 2034 -91 
Q 1263 -91 848 271 
Q 434 634 434 1313 
Q 434 1759 690 2068 
Q 947 2378 1403 2484 
z
M 1172 3481 
Q 1172 3119 1398 2916 
Q 1625 2713 2034 2713 
Q 2441 2713 2670 2916 
Q 2900 3119 2900 3481 
Q 2900 3844 2670 4047 
Q 2441 4250 2034 4250 
Q 1625 4250 1398 4047 
Q 1172 3844 1172 3481 
z
" transform="scale(0.015625)"/>
       </defs>
       <use xlink:href="#DejaVuSans-38"/>
       <use xlink:href="#DejaVuSans-30" x="63.623047"/>
       <use xlink:href="#DejaVuSans-30" x="127.246094"/>
      </g>
     </g>
    </g>
    <g id="xtick_6">
     <g id="line2d_6">
      <g>
       <use xlink:href="#me5f5a5bc0a" x="398.812252" y="307.584" style="stroke: #000000; stroke-width: 0.8"/>
      </g>
     </g>
     <g id="text_6">
      <!-- 1000 -->
      <g transform="translate(386.087252 322.182437) scale(0.1 -0.1)">
       <defs>
        <path id="DejaVuSans-31" d="M 794 531 
L 1825 531 
L 1825 4091 
L 703 3866 
L 703 4441 
L 1819 4666 
L 2450 4666 
L 2450 531 
L 3481 531 
L 3481 0 
L 794 0 
L 794 531 
z
" transform="scale(0.015625)"/>
       </defs>
       <use xlink:href="#DejaVuSans-31"/>
       <use xlink:href="#DejaVuSans-30" x="63.623047"/>
       <use xlink:href="#DejaVuSans-30" x="127.246094"/>
       <use xlink:href="#DejaVuSans-30" x="190.869141"/>
      </g>
     </g>
    </g>
   </g>
   <g id="matplotlib.axis_2">
    <g id="ytick_1">
     <g id="line2d_7">
      <defs>
       <path id="mf292531a30" d="M 0 0 
L -3.5 0 
" style="stroke: #000000; stroke-width: 0.8"/>
      </defs>
      <g>
       <use xlink:href="#mf292531a30" x="57.6" y="278.148416" style="stroke: #000000; stroke-width: 0.8"/>
      </g>
     </g>
     <g id="text_7">
      <!-- −3500 -->
      <g transform="translate(16.770313 281.947635) scale(0.1 -0.1)">
       <defs>
        <path id="DejaVuSans-2212" d="M 678 2272 
L 4684 2272 
L 4684 1741 
L 678 1741 
L 678 2272 
z
" transform="scale(0.015625)"/>
        <path id="DejaVuSans-33" d="M 2597 2516 
Q 3050 2419 3304 2112 
Q 3559 1806 3559 1356 
Q 3559 666 3084 287 
Q 2609 -91 1734 -91 
Q 1441 -91 1130 -33 
Q 819 25 488 141 
L 488 750 
Q 750 597 1062 519 
Q 1375 441 1716 441 
Q 2309 441 2620 675 
Q 2931 909 2931 1356 
Q 2931 1769 2642 2001 
Q 2353 2234 1838 2234 
L 1294 2234 
L 1294 2753 
L 1863 2753 
Q 2328 2753 2575 2939 
Q 2822 3125 2822 3475 
Q 2822 3834 2567 4026 
Q 2313 4219 1838 4219 
Q 1578 4219 1281 4162 
Q 984 4106 628 3988 
L 628 4550 
Q 988 4650 1302 4700 
Q 1616 4750 1894 4750 
Q 2613 4750 3031 4423 
Q 3450 4097 3450 3541 
Q 3450 3153 3228 2886 
Q 3006 2619 2597 2516 
z
" transform="scale(0.015625)"/>
        <path id="DejaVuSans-35" d="M 691 4666 
L 3169 4666 
L 3169 4134 
L 1269 4134 
L 1269 2991 
Q 1406 3038 1543 3061 
Q 1681 3084 1819 3084 
Q 2600 3084 3056 2656 
Q 3513 2228 3513 1497 
Q 3513 744 3044 326 
Q 2575 -91 1722 -91 
Q 1428 -91 1123 -41 
Q 819 9 494 109 
L 494 744 
Q 775 591 1075 516 
Q 1375 441 1709 441 
Q 2250 441 2565 725 
Q 2881 1009 2881 1497 
Q 2881 1984 2565 2268 
Q 2250 2553 1709 2553 
Q 1456 2553 1204 2497 
Q 953 2441 691 2322 
L 691 4666 
z
" transform="scale(0.015625)"/>
       </defs>
       <use xlink:href="#DejaVuSans-2212"/>
       <use xlink:href="#DejaVuSans-33" x="83.789062"/>
       <use xlink:href="#DejaVuSans-35" x="147.412109"/>
       <use xlink:href="#DejaVuSans-30" x="211.035156"/>
       <use xlink:href="#DejaVuSans-30" x="274.658203"/>
      </g>
     </g>
    </g>
    <g id="ytick_2">
     <g id="line2d_8">
      <g>
       <use xlink:href="#mf292531a30" x="57.6" y="246.69292" style="stroke: #000000; stroke-width: 0.8"/>
      </g>
     </g>
     <g id="text_8">
      <!-- −3000 -->
      <g transform="translate(16.770313 250.492138) scale(0.1 -0.1)">
       <use xlink:href="#DejaVuSans-2212"/>
       <use xlink:href="#DejaVuSans-33" x="83.789062"/>
       <use xlink:href="#DejaVuSans-30" x="147.412109"/>
       <use xlink:href="#DejaVuSans-30" x="211.035156"/>
       <use xlink:href="#DejaVuSans-30" x="274.658203"/>
      </g>
     </g>
    </g>
    <g id="ytick_3">
     <g id="line2d_9">
      <g>
       <use xlink:href="#mf292531a30" x="57.6" y="215.237423" style="stroke: #000000; stroke-width: 0.8"/>
      </g>
     </g>
     <g id="text_9">
      <!-- −2500 -->
      <g transform="translate(16.770313 219.036642) scale(0.1 -0.1)">
       <use xlink:href="#DejaVuSans-2212"/>
       <use xlink:href="#DejaVuSans-32" x="83.789062"/>
       <use xlink:href="#DejaVuSans-35" x="147.412109"/>
       <use xlink:href="#DejaVuSans-30" x="211.035156"/>
       <use xlink:href="#DejaVuSans-30" x="274.658203"/>
      </g>
     </g>
    </g>
    <g id="ytick_4">
     <g id="line2d_10">
      <g>
       <use xlink:href="#mf292531a30" x="57.6" y="183.781927" style="stroke: #000000; stroke-width: 0.8"/>
      </g>
     </g>
     <g id="text_10">
      <!-- −2000 -->
      <g transform="translate(16.770313 187.581146) scale(0.1 -0.1)">
       <use xlink:href="#DejaVuSans-2212"/>
       <use xlink:href="#DejaVuSans-32" x="83.789062"/>
       <use xlink:href="#DejaVuSans-30" x="147.412109"/>
       <use xlink:href="#DejaVuSans-30" x="211.035156"/>
       <use xlink:href="#DejaVuSans-30" x="274.658203"/>
      </g>
     </g>
    </g>
    <g id="ytick_5">
     <g id="line2d_11">
      <g>
       <use xlink:href="#mf292531a30" x="57.6" y="152.326431" style="stroke: #000000; stroke-width: 0.8"/>
      </g>
     </g>
     <g id="text_11">
      <!-- −1500 -->
      <g transform="translate(16.770313 156.125649) scale(0.1 -0.1)">
       <use xlink:href="#DejaVuSans-2212"/>
       <use xlink:href="#DejaVuSans-31" x="83.789062"/>
       <use xlink:href="#DejaVuSans-35" x="147.412109"/>
       <use xlink:href="#DejaVuSans-30" x="211.035156"/>
       <use xlink:href="#DejaVuSans-30" x="274.658203"/>
      </g>
     </g>
    </g>
    <g id="ytick_6">
     <g id="line2d_12">
      <g>
       <use xlink:href="#mf292531a30" x="57.6" y="120.870934" style="stroke: #000000; stroke-width: 0.8"/>
      </g>
     </g>
     <g id="text_12">
      <!-- −1000 -->
      <g transform="translate(16.770313 124.670153) scale(0.1 -0.1)">
       <use xlink:href="#DejaVuSans-2212"/>
       <use xlink:href="#DejaVuSans-31" x="83.789062"/>
       <use xlink:href="#DejaVuSans-30" x="147.412109"/>
       <use xlink:href="#DejaVuSans-30" x="211.035156"/>
       <use xlink:href="#DejaVuSans-30" x="274.658203"/>
      </g>
     </g>
    </g>
    <g id="ytick_7">
     <g id="line2d_13">
      <g>
       <use xlink:href="#mf292531a30" x="57.6" y="89.415438" style="stroke: #000000; stroke-width: 0.8"/>
      </g>
     </g>
     <g id="text_13">
      <!-- −500 -->
      <g transform="translate(23.132812 93.214657) scale(0.1 -0.1)">
       <use xlink:href="#DejaVuSans-2212"/>
       <use xlink:href="#DejaVuSans-35" x="83.789062"/>
       <use xlink:href="#DejaVuSans-30" x="147.412109"/>
       <use xlink:href="#DejaVuSans-30" x="211.035156"/>
      </g>
     </g>
    </g>
    <g id="ytick_8">
     <g id="line2d_14">
      <g>
       <use xlink:href="#mf292531a30" x="57.6" y="57.959942" style="stroke: #000000; stroke-width: 0.8"/>
      </g>
     </g>
     <g id="text_14">
      <!-- 0 -->
      <g transform="translate(44.2375 61.75916) scale(0.1 -0.1)">
       <use xlink:href="#DejaVuSans-30"/>
      </g>
     </g>
    </g>
   </g>
   <g id="line2d_15">
    <path d="M 73.832727 58.114832 
L 74.157707 54.044512 
L 74.482686 54.746948 
L 74.807666 78.301542 
L 75.132645 57.593607 
L 75.457625 99.103478 
L 75.782604 57.959942 
L 76.107584 57.959942 
L 76.432563 57.793912 
L 76.757543 61.093302 
L 77.407502 97.129027 
L 77.732482 53.954455 
L 78.057461 54.849511 
L 78.382441 57.267073 
L 78.70742 54.856884 
L 79.0324 57.46482 
L 79.357379 55.031316 
L 79.682359 57.786424 
L 80.007338 55.296738 
L 80.332318 136.490553 
L 80.657297 57.959942 
L 80.982277 93.679015 
L 81.307256 57.786424 
L 81.632236 57.959942 
L 81.957215 59.058159 
L 82.282195 99.689944 
L 82.607174 54.614046 
L 82.932154 57.959942 
L 83.257133 54.794123 
L 83.582113 57.786424 
L 84.232072 58.223606 
L 84.557052 57.760541 
L 84.882031 92.847012 
L 85.207011 53.69711 
L 85.53199 58.63775 
L 85.85697 57.82301 
L 86.181949 57.751786 
L 86.506929 59.701778 
L 86.831908 59.080686 
L 87.156888 55.465594 
L 87.481867 54.575709 
L 87.806847 58.298943 
L 88.131826 57.28111 
L 88.456806 57.435789 
L 89.106765 58.194309 
L 89.431744 85.637982 
L 89.756724 57.534771 
L 90.081704 102.068062 
L 90.406683 57.956284 
L 90.731663 59.57156 
L 91.056642 59.326214 
L 91.381622 57.793912 
L 91.706601 54.310601 
L 92.031581 58.77787 
L 92.68154 58.177133 
L 93.006519 55.548687 
L 93.331499 54.014063 
L 93.656478 57.959942 
L 93.981458 54.661647 
L 94.306437 58.80898 
L 94.631417 57.684399 
L 94.956396 57.937645 
L 95.281376 57.874841 
L 95.606355 59.320696 
L 95.931335 57.810641 
L 96.256314 57.959942 
L 96.581294 57.959942 
L 96.906274 61.979794 
L 97.231253 57.698355 
L 97.556233 80.215273 
L 97.881212 57.786424 
L 98.206192 57.281128 
L 98.531171 57.639026 
L 98.856151 87.386623 
L 99.18113 57.959942 
L 99.50611 57.959942 
L 99.831089 53.891743 
L 100.156069 53.901767 
L 100.481048 58.184546 
L 100.806028 54.885792 
L 101.131007 57.959942 
L 101.455987 59.101678 
L 101.780966 57.534771 
L 102.105946 57.219128 
L 102.430925 57.959942 
L 103.405864 57.959942 
L 103.730844 57.751786 
L 104.055823 54.779157 
L 104.380803 57.959942 
L 104.705782 57.959942 
L 105.030762 78.170013 
L 105.355741 58.149673 
L 105.680721 57.045181 
L 106.0057 57.435772 
L 106.33068 54.660034 
L 106.655659 57.578114 
L 106.980639 55.16572 
L 107.305618 58.145747 
L 107.630598 57.474982 
L 107.955577 57.631233 
L 108.280557 81.849151 
L 108.605536 57.751786 
L 108.930516 57.299532 
L 109.255495 57.96768 
L 109.580475 57.793912 
L 109.905455 54.438083 
L 110.230434 54.081795 
L 110.555414 54.285468 
L 110.880393 57.299532 
L 111.205373 57.959942 
L 111.530352 54.839398 
L 111.855332 54.15234 
L 112.180311 104.66195 
L 112.505291 57.412077 
L 112.83027 65.621975 
L 113.15525 54.27319 
L 113.480229 55.008561 
L 113.805209 57.95131 
L 114.130188 58.615852 
L 114.455168 54.772425 
L 114.780147 57.959942 
L 115.430106 57.959942 
L 115.755086 57.786424 
L 116.080066 57.793912 
L 116.405045 53.568 
L 116.730025 57.292707 
L 117.055004 57.959942 
L 117.379984 60.443013 
L 117.704963 57.491337 
L 118.029943 58.534466 
L 118.354922 54.532271 
L 118.679902 57.959942 
L 119.004881 54.242875 
L 119.329861 58.138329 
L 119.65484 57.281128 
L 119.97982 57.959942 
L 120.304799 57.959942 
L 120.629779 57.534771 
L 120.954758 54.797615 
L 121.279738 67.246837 
L 121.604717 57.435789 
L 121.929697 57.44389 
L 122.254676 57.786424 
L 122.579656 58.532707 
L 122.904636 57.342162 
L 123.229615 57.959942 
L 123.554595 78.677895 
L 123.879574 57.959942 
L 124.204554 59.305513 
L 124.529533 86.636528 
L 124.854513 57.959942 
L 125.179492 57.96768 
L 125.504472 57.793912 
L 125.829451 57.747501 
L 126.154431 66.187447 
L 126.47941 58.138329 
L 126.80439 57.965525 
L 127.129369 78.351454 
L 127.454349 57.959942 
L 127.779328 57.959942 
L 128.104308 57.064895 
L 128.429287 54.680116 
L 128.754267 57.044634 
L 129.079247 54.266315 
L 129.404226 56.855724 
L 129.729206 58.167146 
L 130.054185 58.269539 
L 130.379165 57.959942 
L 130.704144 58.228 
L 131.029124 62.927922 
L 131.354103 57.95276 
L 132.004062 57.421177 
L 132.329042 58.285343 
L 132.654021 57.959942 
L 132.979001 54.708403 
L 133.30398 57.959942 
L 133.62896 57.959942 
L 133.953939 61.11383 
L 134.278919 57.959942 
L 134.603898 57.421177 
L 134.928878 57.544291 
L 135.253857 182.180363 
L 135.578837 65.044645 
L 135.903817 57.623982 
L 136.228796 57.959942 
L 136.553776 57.786424 
L 136.878755 66.46389 
L 137.203735 57.959942 
L 137.528714 57.183183 
L 137.853694 57.959942 
L 138.178673 57.744289 
L 138.503653 57.959942 
L 138.828632 57.537025 
L 139.153612 57.959942 
L 139.478591 57.959942 
L 139.803571 57.577522 
L 140.12855 54.32147 
L 140.45353 55.983045 
L 140.778509 63.584461 
L 141.103489 62.42939 
L 141.753448 58.676801 
L 142.078428 57.959942 
L 142.403407 57.959942 
L 142.728387 62.18061 
L 143.053366 57.959942 
L 143.378346 58.676801 
L 143.703325 58.670332 
L 144.028305 85.74453 
L 144.353284 57.959942 
L 145.003243 57.959942 
L 145.328223 58.670332 
L 145.653202 57.959942 
L 145.978182 57.959942 
L 146.303161 58.720811 
L 146.628141 57.959942 
L 146.95312 58.676801 
L 147.2781 57.959942 
L 147.603079 58.676801 
L 147.928059 58.793793 
L 148.253038 58.676801 
L 148.578018 57.959942 
L 148.902998 58.720811 
L 149.227977 57.959942 
L 149.552957 60.599131 
L 149.877936 57.959942 
L 150.202916 58.670332 
L 150.527895 57.959942 
L 151.177854 57.959942 
L 151.502834 59.054588 
L 152.152793 58.676801 
L 152.477772 57.959942 
L 152.802752 58.597345 
L 153.127731 58.09887 
L 153.452711 58.670332 
L 153.77769 57.959942 
L 154.427649 57.959942 
L 154.752629 58.670332 
L 155.077609 58.465741 
L 155.402588 58.919399 
L 156.052547 58.676801 
L 156.377527 57.959942 
L 156.702506 57.959942 
L 157.027486 58.676801 
L 157.352465 57.959942 
L 158.002424 57.959942 
L 158.327404 58.676801 
L 158.652383 58.670332 
L 158.977363 57.959942 
L 159.302342 58.670332 
L 159.627322 57.959942 
L 159.952301 58.654994 
L 160.277281 57.959942 
L 160.60226 58.676801 
L 160.92724 121.493467 
L 161.252219 57.959942 
L 161.577199 57.959942 
L 161.902179 58.676801 
L 162.227158 57.959942 
L 162.552138 57.959942 
L 162.877117 58.920709 
L 163.202097 62.219883 
L 163.527076 57.959942 
L 163.852056 59.144058 
L 164.177035 58.831765 
L 164.502015 59.789315 
L 165.151974 57.959942 
L 165.476953 57.959942 
L 166.126912 59.673945 
L 166.451892 58.831765 
L 167.101851 58.84478 
L 167.42683 57.959942 
L 167.75181 59.144058 
L 168.07679 57.959942 
L 168.401769 57.959942 
L 169.051728 59.446217 
L 169.376708 59.466119 
L 169.701687 59.332286 
L 170.026667 57.959942 
L 170.351646 57.959942 
L 170.676626 60.045676 
L 171.001605 59.564331 
L 171.326585 57.959942 
L 171.651564 58.831765 
L 171.976544 57.959942 
L 172.301523 58.84478 
L 172.626503 59.144058 
L 172.951482 57.959942 
L 173.276462 57.959942 
L 173.601441 60.023001 
L 174.2514 57.959942 
L 174.57638 58.38627 
L 174.90136 57.959942 
L 175.226339 57.959942 
L 175.551319 58.84478 
L 175.876298 58.84478 
L 176.201278 57.959942 
L 176.526257 58.84478 
L 176.851237 60.656558 
L 177.176216 58.831765 
L 177.501196 57.959942 
L 177.826175 57.959942 
L 178.151155 58.831765 
L 178.476134 57.959942 
L 178.801114 59.127965 
L 179.126093 57.959942 
L 179.451073 59.226851 
L 179.776052 58.831765 
L 180.101032 57.959942 
L 180.426011 57.959942 
L 180.750991 58.84478 
L 181.075971 58.84478 
L 181.40095 57.959942 
L 183.350827 57.959942 
L 183.675807 58.425057 
L 184.000786 57.959942 
L 184.325766 59.332286 
L 184.650745 57.959942 
L 184.975725 59.55639 
L 185.300704 57.959942 
L 185.625684 58.831765 
L 185.950663 59.144058 
L 186.275643 57.959942 
L 186.600622 57.959942 
L 186.925602 58.831765 
L 187.250581 57.959942 
L 187.575561 58.478726 
L 187.900541 58.738125 
L 188.22552 57.959942 
L 188.5505 58.478726 
L 188.875479 57.959942 
L 189.200459 58.460194 
L 189.525438 57.959942 
L 190.175397 57.959942 
L 190.500377 58.478726 
L 190.825356 57.959942 
L 191.150336 58.200685 
L 191.475315 57.959942 
L 191.800295 58.272011 
L 192.125274 57.959942 
L 192.450254 58.478726 
L 192.775233 57.959942 
L 193.100213 57.959942 
L 193.425192 58.319346 
L 193.750172 58.460194 
L 194.075152 58.478726 
L 194.400131 295.488 
L 194.725111 58.40822 
L 195.37507 58.152619 
L 195.700049 58.460194 
L 196.350008 57.959942 
L 196.674988 57.959942 
L 196.999967 58.478726 
L 197.324947 58.289312 
L 197.649926 58.460194 
L 197.974906 58.460194 
L 198.299885 57.959942 
L 198.949844 57.959942 
L 199.274824 58.319346 
L 199.599803 58.460194 
L 199.924783 59.203481 
L 200.249762 57.959942 
L 200.574742 58.234286 
L 200.899722 59.124293 
L 201.224701 58.734116 
L 201.549681 63.079183 
L 201.87466 58.411576 
L 202.19964 56.838229 
L 202.524619 59.246319 
L 202.849599 56.575248 
L 203.174578 63.092215 
L 203.499558 57.744289 
L 203.824537 57.696429 
L 204.149517 58.162013 
L 204.474496 62.687579 
L 204.799476 62.687579 
L 205.124455 58.209613 
L 205.449435 59.288559 
L 205.774414 57.959942 
L 206.099394 58.353496 
L 206.424373 57.786424 
L 206.749353 58.313943 
L 207.074333 61.379141 
L 207.399312 62.687579 
L 207.724292 58.209613 
L 208.049271 59.288559 
L 208.374251 57.959942 
L 208.69923 59.288559 
L 209.349189 59.288559 
L 209.674169 60.324557 
L 209.999148 57.959942 
L 210.324128 57.623982 
L 210.974087 58.209613 
L 211.624046 58.478726 
L 211.949025 59.288559 
L 212.274005 59.288559 
L 212.598984 62.687579 
L 212.923964 57.623982 
L 213.248943 59.288559 
L 213.573923 57.959942 
L 213.898903 58.313943 
L 214.223882 59.288559 
L 214.548862 57.623982 
L 214.873841 59.288559 
L 215.198821 58.40822 
L 215.5238 58.40822 
L 215.84878 62.687579 
L 216.173759 57.959942 
L 216.498739 58.209613 
L 216.823718 59.288559 
L 217.148698 58.209613 
L 217.473677 58.353496 
L 217.798657 57.786424 
L 218.123636 57.959942 
L 218.448616 59.288559 
L 218.773595 57.959942 
L 219.098575 58.478726 
L 219.423554 57.959942 
L 219.748534 57.959942 
L 220.073514 59.288559 
L 220.398493 58.209613 
L 220.723473 57.959942 
L 221.048452 59.288559 
L 221.373432 58.478726 
L 221.698411 62.687579 
L 222.023391 57.959942 
L 222.34837 58.40822 
L 222.67335 61.752488 
L 222.998329 57.945588 
L 223.323309 68.670102 
L 223.648288 58.594691 
L 223.973268 58.230695 
L 224.298247 74.246276 
L 224.623227 65.118036 
L 224.948206 68.670102 
L 225.273186 57.866821 
L 225.598165 58.230695 
L 225.923145 60.008224 
L 226.248124 56.603057 
L 226.573104 57.866821 
L 226.898084 58.084669 
L 227.223063 57.662567 
L 227.548043 60.494063 
L 227.873022 57.662567 
L 228.198002 60.008224 
L 228.522981 60.008224 
L 228.847961 58.594691 
L 229.17294 58.594691 
L 229.49792 60.008224 
L 229.822899 58.594691 
L 230.147879 60.008224 
L 230.472858 60.008224 
L 230.797838 58.594691 
L 231.122817 60.008224 
L 231.447797 60.008224 
L 231.772776 60.405737 
L 232.097756 58.230695 
L 232.422735 60.008224 
L 232.747715 58.594691 
L 233.072695 87.377748 
L 233.397674 57.662567 
L 233.722654 60.008224 
L 234.047633 57.866821 
L 234.372613 60.008224 
L 234.697592 57.662567 
L 235.022572 58.230695 
L 235.347551 60.008224 
L 235.672531 58.084669 
L 235.99751 58.230695 
L 236.32249 57.662567 
L 236.647469 58.317232 
L 236.972449 58.084669 
L 237.297428 68.670102 
L 237.622408 58.809043 
L 237.947387 60.008224 
L 238.272367 58.317232 
L 238.597346 65.118036 
L 238.922326 58.594691 
L 239.247305 68.670102 
L 239.572285 68.670102 
L 239.897265 60.008224 
L 240.222244 65.118036 
L 240.547224 58.809043 
L 240.872203 60.008224 
L 241.197183 58.230695 
L 241.522162 60.008224 
L 241.847142 58.594691 
L 242.172121 158.834386 
L 242.497101 58.809043 
L 243.14706 57.662567 
L 243.472039 60.008224 
L 243.797019 158.834386 
L 244.121998 58.317232 
L 244.446978 58.594691 
L 244.771957 58.594691 
L 245.096937 58.809043 
L 245.421916 58.594691 
L 245.746896 58.230695 
L 246.071876 58.594691 
L 246.396855 87.377748 
L 246.721835 57.662567 
L 247.046814 60.008224 
L 247.371794 58.594691 
L 247.696773 58.230695 
L 248.021753 60.008224 
L 248.346732 58.317232 
L 248.671712 65.118036 
L 248.996691 60.008224 
L 249.321671 60.008224 
L 249.64665 58.594691 
L 249.97163 58.594691 
L 250.296609 58.317232 
L 250.621589 60.008224 
L 250.946568 57.358593 
L 251.271548 65.118036 
L 251.596527 87.377748 
L 251.921507 60.008224 
L 252.246486 58.230695 
L 252.571466 60.008224 
L 252.896446 68.670102 
L 253.221425 58.594691 
L 253.546405 60.008224 
L 253.871384 60.008224 
L 254.196364 58.317232 
L 254.521343 58.809043 
L 254.846323 58.594691 
L 255.171302 57.662567 
L 255.496282 58.809043 
L 255.821261 158.834386 
L 256.146241 58.230695 
L 256.47122 58.594691 
L 256.7962 58.317232 
L 257.121179 60.008224 
L 257.446159 68.670102 
L 257.771138 58.809043 
L 258.096118 74.246276 
L 258.421097 60.494063 
L 258.746077 60.008224 
L 259.396036 56.406482 
L 260.045995 60.008224 
L 260.370975 60.008224 
L 260.695954 57.866821 
L 261.020934 68.670102 
L 261.345913 74.246276 
L 261.670893 60.008224 
L 261.995872 58.084669 
L 262.320852 58.230695 
L 262.645831 87.377748 
L 262.970811 58.594691 
L 263.29579 60.494063 
L 263.62077 58.594691 
L 263.945749 60.008224 
L 264.270729 58.594691 
L 264.595708 58.317232 
L 264.920688 68.670102 
L 265.245667 58.809043 
L 265.570647 58.230695 
L 265.895627 60.008224 
L 266.220606 68.670102 
L 266.545586 58.230695 
L 266.870565 68.670102 
L 267.195545 58.594691 
L 267.520524 58.809043 
L 267.845504 60.008224 
L 268.495463 56.603057 
L 268.820442 56.245906 
L 269.145422 57.178734 
L 269.795381 58.400483 
L 270.12036 59.860528 
L 270.770319 74.246276 
L 271.095299 74.246276 
L 271.420278 58.317232 
L 271.745258 74.246276 
L 272.070238 57.866821 
L 272.395217 57.866821 
L 272.720197 87.377748 
L 273.045176 158.834386 
L 273.370156 158.834386 
L 273.695135 58.317232 
L 274.020115 58.317232 
L 274.345094 58.084669 
L 274.670074 158.834386 
L 274.995053 68.670102 
L 275.320033 87.377748 
L 275.645012 58.084669 
L 275.969992 87.377748 
L 276.294971 58.084669 
L 276.619951 158.834386 
L 276.94493 87.377748 
L 277.26991 57.662567 
L 277.594889 87.377748 
L 277.919869 87.377748 
L 278.244848 58.084669 
L 278.569828 87.377748 
L 278.894808 58.317232 
L 279.869746 58.317232 
L 280.194726 158.834386 
L 280.519705 57.866821 
L 280.844685 87.377748 
L 281.169664 158.834386 
L 281.494644 58.317232 
L 281.819623 57.866821 
L 282.144603 58.317232 
L 282.469582 158.834386 
L 282.794562 68.670102 
L 283.119541 58.084669 
L 283.444521 87.377748 
L 283.7695 58.317232 
L 284.09448 158.834386 
L 284.419459 87.377748 
L 284.744439 158.834386 
L 285.069419 158.834386 
L 285.394398 58.084669 
L 285.719378 158.834386 
L 286.044357 87.377748 
L 286.369337 74.246276 
L 286.694316 68.670102 
L 287.019296 58.317232 
L 287.344275 87.377748 
L 287.669255 158.834386 
L 287.994234 68.670102 
L 288.319214 57.662567 
L 288.644193 74.246276 
L 288.969173 58.084669 
L 289.294152 158.834386 
L 289.619132 58.317232 
L 289.944111 58.317232 
L 290.269091 58.084669 
L 290.59407 58.317232 
L 290.91905 158.834386 
L 291.244029 58.084669 
L 291.569009 58.317232 
L 291.893989 57.662567 
L 292.218968 58.317232 
L 292.543948 58.084669 
L 292.868927 58.317232 
L 293.193907 158.834386 
L 293.518886 158.834386 
L 293.843866 58.084669 
L 294.168845 58.317232 
L 294.493825 68.670102 
L 294.818804 57.662567 
L 295.143784 68.670102 
L 295.468763 58.084669 
L 295.793743 57.662567 
L 296.118722 158.834386 
L 296.443702 158.834386 
L 296.768681 58.084669 
L 297.093661 58.084669 
L 297.41864 58.317232 
L 297.74362 58.317232 
L 298.0686 158.834386 
L 298.393579 158.834386 
L 298.718559 58.084669 
L 299.043538 87.377748 
L 299.368518 87.377748 
L 300.018477 58.084669 
L 300.343456 158.834386 
L 300.668436 74.246276 
L 300.993415 58.317232 
L 301.318395 57.662567 
L 301.643374 58.084669 
L 301.968354 58.084669 
L 302.293333 57.866821 
L 302.618313 58.317232 
L 302.943292 57.662567 
L 303.268272 59.198971 
L 303.593251 57.662567 
L 303.918231 57.621022 
L 304.24321 55.342498 
L 304.56819 55.08007 
L 304.89317 68.670102 
L 305.543129 68.670102 
L 305.868108 58.351777 
L 306.193088 57.959942 
L 398.487273 57.959942 
L 398.487273 57.959942 
" clip-path="url(#pca9e060a3b)" style="fill: none; stroke: #1f77b4; stroke-width: 1.5; stroke-linecap: square"/>
   </g>
   <g id="patch_3">
    <path d="M 57.6 307.584 
L 57.6 41.472 
" style="fill: none; stroke: #000000; stroke-width: 0.8; stroke-linejoin: miter; stroke-linecap: square"/>
   </g>
   <g id="patch_4">
    <path d="M 414.72 307.584 
L 414.72 41.472 
" style="fill: none; stroke: #000000; stroke-width: 0.8; stroke-linejoin: miter; stroke-linecap: square"/>
   </g>
   <g id="patch_5">
    <path d="M 57.6 307.584 
L 414.72 307.584 
" style="fill: none; stroke: #000000; stroke-width: 0.8; stroke-linejoin: miter; stroke-linecap: square"/>
   </g>
   <g id="patch_6">
    <path d="M 57.6 41.472 
L 414.72 41.472 
" style="fill: none; stroke: #000000; stroke-width: 0.8; stroke-linejoin: miter; stroke-linecap: square"/>
   </g>
  </g>
 </g>
 <defs>
  <clipPath id="pca9e060a3b">
   <rect x="57.6" y="41.472" width="357.12" height="266.112"/>
  </clipPath>
 </defs>
</svg>
