<?xml version="1.0" encoding="utf-8" standalone="no"?>
<!DOCTYPE svg PUBLIC "-//W3C//DTD SVG 1.1//EN"
  "http://www.w3.org/Graphics/SVG/1.1/DTD/svg11.dtd">
<svg xmlns:xlink="http://www.w3.org/1999/xlink" width="460.8pt" height="345.6pt" viewBox="0 0 460.8 345.6" xmlns="http://www.w3.org/2000/svg" version="1.1">
 <metadata>
  <rdf:RDF xmlns:dc="http://purl.org/dc/elements/1.1/" xmlns:cc="http://creativecommons.org/ns#" xmlns:rdf="http://www.w3.org/1999/02/22-rdf-syntax-ns#">
   <cc:Work>
    <dc:type rdf:resource="http://purl.org/dc/dcmitype/StillImage"/>
    <dc:date>2024-04-22T19:05:40.954594</dc:date>
    <dc:format>image/svg+xml</dc:format>
    <dc:creator>
     <cc:Agent>
      <dc:title>Matplotlib v3.7.2, https://matplotlib.org/</dc:title>
     </cc:Agent>
    </dc:creator>
   </cc:Work>
  </rdf:RDF>
 </metadata>
 <defs>
  <style type="text/css">*{stroke-linejoin: round; stroke-linecap: butt}</style>
 </defs>
 <g id="figure_1">
  <g id="patch_1">
   <path d="M 0 345.6 
L 460.8 345.6 
L 460.8 0 
L 0 0 
z
" style="fill: #ffffff"/>
  </g>
  <g id="axes_1">
   <g id="patch_2">
    <path d="M 57.6 307.584 
L 414.72 307.584 
L 414.72 41.472 
L 57.6 41.472 
z
" style="fill: #ffffff"/>
   </g>
   <g id="matplotlib.axis_1">
    <g id="xtick_1">
     <g id="line2d_1">
      <defs>
       <path id="m9797e99c9a" d="M 0 0 
L 0 3.5 
" style="stroke: #000000; stroke-width: 0.8"/>
      </defs>
      <g>
       <use xlink:href="#m9797e99c9a" x="73.832727" y="307.584" style="stroke: #000000; stroke-width: 0.8"/>
      </g>
     </g>
     <g id="text_1">
      <!-- 0 -->
      <g transform="translate(70.651477 322.182437) scale(0.1 -0.1)">
       <defs>
        <path id="DejaVuSans-30" d="M 2034 4250 
Q 1547 4250 1301 3770 
Q 1056 3291 1056 2328 
Q 1056 1369 1301 889 
Q 1547 409 2034 409 
Q 2525 409 2770 889 
Q 3016 1369 3016 2328 
Q 3016 3291 2770 3770 
Q 2525 4250 2034 4250 
z
M 2034 4750 
Q 2819 4750 3233 4129 
Q 3647 3509 3647 2328 
Q 3647 1150 3233 529 
Q 2819 -91 2034 -91 
Q 1250 -91 836 529 
Q 422 1150 422 2328 
Q 422 3509 836 4129 
Q 1250 4750 2034 4750 
z
" transform="scale(0.015625)"/>
       </defs>
       <use xlink:href="#DejaVuSans-30"/>
      </g>
     </g>
    </g>
    <g id="xtick_2">
     <g id="line2d_2">
      <g>
       <use xlink:href="#m9797e99c9a" x="141.469091" y="307.584" style="stroke: #000000; stroke-width: 0.8"/>
      </g>
     </g>
     <g id="text_2">
      <!-- 200 -->
      <g transform="translate(131.925341 322.182437) scale(0.1 -0.1)">
       <defs>
        <path id="DejaVuSans-32" d="M 1228 531 
L 3431 531 
L 3431 0 
L 469 0 
L 469 531 
Q 828 903 1448 1529 
Q 2069 2156 2228 2338 
Q 2531 2678 2651 2914 
Q 2772 3150 2772 3378 
Q 2772 3750 2511 3984 
Q 2250 4219 1831 4219 
Q 1534 4219 1204 4116 
Q 875 4013 500 3803 
L 500 4441 
Q 881 4594 1212 4672 
Q 1544 4750 1819 4750 
Q 2544 4750 2975 4387 
Q 3406 4025 3406 3419 
Q 3406 3131 3298 2873 
Q 3191 2616 2906 2266 
Q 2828 2175 2409 1742 
Q 1991 1309 1228 531 
z
" transform="scale(0.015625)"/>
       </defs>
       <use xlink:href="#DejaVuSans-32"/>
       <use xlink:href="#DejaVuSans-30" x="63.623047"/>
       <use xlink:href="#DejaVuSans-30" x="127.246094"/>
      </g>
     </g>
    </g>
    <g id="xtick_3">
     <g id="line2d_3">
      <g>
       <use xlink:href="#m9797e99c9a" x="209.105455" y="307.584" style="stroke: #000000; stroke-width: 0.8"/>
      </g>
     </g>
     <g id="text_3">
      <!-- 400 -->
      <g transform="translate(199.561705 322.182437) scale(0.1 -0.1)">
       <defs>
        <path id="DejaVuSans-34" d="M 2419 4116 
L 825 1625 
L 2419 1625 
L 2419 4116 
z
M 2253 4666 
L 3047 4666 
L 3047 1625 
L 3713 1625 
L 3713 1100 
L 3047 1100 
L 3047 0 
L 2419 0 
L 2419 1100 
L 313 1100 
L 313 1709 
L 2253 4666 
z
" transform="scale(0.015625)"/>
       </defs>
       <use xlink:href="#DejaVuSans-34"/>
       <use xlink:href="#DejaVuSans-30" x="63.623047"/>
       <use xlink:href="#DejaVuSans-30" x="127.246094"/>
      </g>
     </g>
    </g>
    <g id="xtick_4">
     <g id="line2d_4">
      <g>
       <use xlink:href="#m9797e99c9a" x="276.741818" y="307.584" style="stroke: #000000; stroke-width: 0.8"/>
      </g>
     </g>
     <g id="text_4">
      <!-- 600 -->
      <g transform="translate(267.198068 322.182437) scale(0.1 -0.1)">
       <defs>
        <path id="DejaVuSans-36" d="M 2113 2584 
Q 1688 2584 1439 2293 
Q 1191 2003 1191 1497 
Q 1191 994 1439 701 
Q 1688 409 2113 409 
Q 2538 409 2786 701 
Q 3034 994 3034 1497 
Q 3034 2003 2786 2293 
Q 2538 2584 2113 2584 
z
M 3366 4563 
L 3366 3988 
Q 3128 4100 2886 4159 
Q 2644 4219 2406 4219 
Q 1781 4219 1451 3797 
Q 1122 3375 1075 2522 
Q 1259 2794 1537 2939 
Q 1816 3084 2150 3084 
Q 2853 3084 3261 2657 
Q 3669 2231 3669 1497 
Q 3669 778 3244 343 
Q 2819 -91 2113 -91 
Q 1303 -91 875 529 
Q 447 1150 447 2328 
Q 447 3434 972 4092 
Q 1497 4750 2381 4750 
Q 2619 4750 2861 4703 
Q 3103 4656 3366 4563 
z
" transform="scale(0.015625)"/>
       </defs>
       <use xlink:href="#DejaVuSans-36"/>
       <use xlink:href="#DejaVuSans-30" x="63.623047"/>
       <use xlink:href="#DejaVuSans-30" x="127.246094"/>
      </g>
     </g>
    </g>
    <g id="xtick_5">
     <g id="line2d_5">
      <g>
       <use xlink:href="#m9797e99c9a" x="344.378182" y="307.584" style="stroke: #000000; stroke-width: 0.8"/>
      </g>
     </g>
     <g id="text_5">
      <!-- 800 -->
      <g transform="translate(334.834432 322.182437) scale(0.1 -0.1)">
       <defs>
        <path id="DejaVuSans-38" d="M 2034 2216 
Q 1584 2216 1326 1975 
Q 1069 1734 1069 1313 
Q 1069 891 1326 650 
Q 1584 409 2034 409 
Q 2484 409 2743 651 
Q 3003 894 3003 1313 
Q 3003 1734 2745 1975 
Q 2488 2216 2034 2216 
z
M 1403 2484 
Q 997 2584 770 2862 
Q 544 3141 544 3541 
Q 544 4100 942 4425 
Q 1341 4750 2034 4750 
Q 2731 4750 3128 4425 
Q 3525 4100 3525 3541 
Q 3525 3141 3298 2862 
Q 3072 2584 2669 2484 
Q 3125 2378 3379 2068 
Q 3634 1759 3634 1313 
Q 3634 634 3220 271 
Q 2806 -91 2034 -91 
Q 1263 -91 848 271 
Q 434 634 434 1313 
Q 434 1759 690 2068 
Q 947 2378 1403 2484 
z
M 1172 3481 
Q 1172 3119 1398 2916 
Q 1625 2713 2034 2713 
Q 2441 2713 2670 2916 
Q 2900 3119 2900 3481 
Q 2900 3844 2670 4047 
Q 2441 4250 2034 4250 
Q 1625 4250 1398 4047 
Q 1172 3844 1172 3481 
z
" transform="scale(0.015625)"/>
       </defs>
       <use xlink:href="#DejaVuSans-38"/>
       <use xlink:href="#DejaVuSans-30" x="63.623047"/>
       <use xlink:href="#DejaVuSans-30" x="127.246094"/>
      </g>
     </g>
    </g>
    <g id="xtick_6">
     <g id="line2d_6">
      <g>
       <use xlink:href="#m9797e99c9a" x="412.014545" y="307.584" style="stroke: #000000; stroke-width: 0.8"/>
      </g>
     </g>
     <g id="text_6">
      <!-- 1000 -->
      <g transform="translate(399.289545 322.182437) scale(0.1 -0.1)">
       <defs>
        <path id="DejaVuSans-31" d="M 794 531 
L 1825 531 
L 1825 4091 
L 703 3866 
L 703 4441 
L 1819 4666 
L 2450 4666 
L 2450 531 
L 3481 531 
L 3481 0 
L 794 0 
L 794 531 
z
" transform="scale(0.015625)"/>
       </defs>
       <use xlink:href="#DejaVuSans-31"/>
       <use xlink:href="#DejaVuSans-30" x="63.623047"/>
       <use xlink:href="#DejaVuSans-30" x="127.246094"/>
       <use xlink:href="#DejaVuSans-30" x="190.869141"/>
      </g>
     </g>
    </g>
   </g>
   <g id="matplotlib.axis_2">
    <g id="ytick_1">
     <g id="line2d_7">
      <defs>
       <path id="m3a12f3f08f" d="M 0 0 
L -3.5 0 
" style="stroke: #000000; stroke-width: 0.8"/>
      </defs>
      <g>
       <use xlink:href="#m3a12f3f08f" x="57.6" y="304.767187" style="stroke: #000000; stroke-width: 0.8"/>
      </g>
     </g>
     <g id="text_7">
      <!-- −150 -->
      <g transform="translate(23.132812 308.566405) scale(0.1 -0.1)">
       <defs>
        <path id="DejaVuSans-2212" d="M 678 2272 
L 4684 2272 
L 4684 1741 
L 678 1741 
L 678 2272 
z
" transform="scale(0.015625)"/>
        <path id="DejaVuSans-35" d="M 691 4666 
L 3169 4666 
L 3169 4134 
L 1269 4134 
L 1269 2991 
Q 1406 3038 1543 3061 
Q 1681 3084 1819 3084 
Q 2600 3084 3056 2656 
Q 3513 2228 3513 1497 
Q 3513 744 3044 326 
Q 2575 -91 1722 -91 
Q 1428 -91 1123 -41 
Q 819 9 494 109 
L 494 744 
Q 775 591 1075 516 
Q 1375 441 1709 441 
Q 2250 441 2565 725 
Q 2881 1009 2881 1497 
Q 2881 1984 2565 2268 
Q 2250 2553 1709 2553 
Q 1456 2553 1204 2497 
Q 953 2441 691 2322 
L 691 4666 
z
" transform="scale(0.015625)"/>
       </defs>
       <use xlink:href="#DejaVuSans-2212"/>
       <use xlink:href="#DejaVuSans-31" x="83.789062"/>
       <use xlink:href="#DejaVuSans-35" x="147.412109"/>
       <use xlink:href="#DejaVuSans-30" x="211.035156"/>
      </g>
     </g>
    </g>
    <g id="ytick_2">
     <g id="line2d_8">
      <g>
       <use xlink:href="#m3a12f3f08f" x="57.6" y="268.413895" style="stroke: #000000; stroke-width: 0.8"/>
      </g>
     </g>
     <g id="text_8">
      <!-- −100 -->
      <g transform="translate(23.132812 272.213114) scale(0.1 -0.1)">
       <use xlink:href="#DejaVuSans-2212"/>
       <use xlink:href="#DejaVuSans-31" x="83.789062"/>
       <use xlink:href="#DejaVuSans-30" x="147.412109"/>
       <use xlink:href="#DejaVuSans-30" x="211.035156"/>
      </g>
     </g>
    </g>
    <g id="ytick_3">
     <g id="line2d_9">
      <g>
       <use xlink:href="#m3a12f3f08f" x="57.6" y="232.060603" style="stroke: #000000; stroke-width: 0.8"/>
      </g>
     </g>
     <g id="text_9">
      <!-- −50 -->
      <g transform="translate(29.495313 235.859822) scale(0.1 -0.1)">
       <use xlink:href="#DejaVuSans-2212"/>
       <use xlink:href="#DejaVuSans-35" x="83.789062"/>
       <use xlink:href="#DejaVuSans-30" x="147.412109"/>
      </g>
     </g>
    </g>
    <g id="ytick_4">
     <g id="line2d_10">
      <g>
       <use xlink:href="#m3a12f3f08f" x="57.6" y="195.707311" style="stroke: #000000; stroke-width: 0.8"/>
      </g>
     </g>
     <g id="text_10">
      <!-- 0 -->
      <g transform="translate(44.2375 199.50653) scale(0.1 -0.1)">
       <use xlink:href="#DejaVuSans-30"/>
      </g>
     </g>
    </g>
    <g id="ytick_5">
     <g id="line2d_11">
      <g>
       <use xlink:href="#m3a12f3f08f" x="57.6" y="159.35402" style="stroke: #000000; stroke-width: 0.8"/>
      </g>
     </g>
     <g id="text_11">
      <!-- 50 -->
      <g transform="translate(37.875 163.153238) scale(0.1 -0.1)">
       <use xlink:href="#DejaVuSans-35"/>
       <use xlink:href="#DejaVuSans-30" x="63.623047"/>
      </g>
     </g>
    </g>
    <g id="ytick_6">
     <g id="line2d_12">
      <g>
       <use xlink:href="#m3a12f3f08f" x="57.6" y="123.000728" style="stroke: #000000; stroke-width: 0.8"/>
      </g>
     </g>
     <g id="text_12">
      <!-- 100 -->
      <g transform="translate(31.5125 126.799947) scale(0.1 -0.1)">
       <use xlink:href="#DejaVuSans-31"/>
       <use xlink:href="#DejaVuSans-30" x="63.623047"/>
       <use xlink:href="#DejaVuSans-30" x="127.246094"/>
      </g>
     </g>
    </g>
    <g id="ytick_7">
     <g id="line2d_13">
      <g>
       <use xlink:href="#m3a12f3f08f" x="57.6" y="86.647436" style="stroke: #000000; stroke-width: 0.8"/>
      </g>
     </g>
     <g id="text_13">
      <!-- 150 -->
      <g transform="translate(31.5125 90.446655) scale(0.1 -0.1)">
       <use xlink:href="#DejaVuSans-31"/>
       <use xlink:href="#DejaVuSans-35" x="63.623047"/>
       <use xlink:href="#DejaVuSans-30" x="127.246094"/>
      </g>
     </g>
    </g>
    <g id="ytick_8">
     <g id="line2d_14">
      <g>
       <use xlink:href="#m3a12f3f08f" x="57.6" y="50.294145" style="stroke: #000000; stroke-width: 0.8"/>
      </g>
     </g>
     <g id="text_14">
      <!-- 200 -->
      <g transform="translate(31.5125 54.093363) scale(0.1 -0.1)">
       <use xlink:href="#DejaVuSans-32"/>
       <use xlink:href="#DejaVuSans-30" x="63.623047"/>
       <use xlink:href="#DejaVuSans-30" x="127.246094"/>
      </g>
     </g>
    </g>
   </g>
   <g id="line2d_15">
    <path d="M 73.832727 268.413895 
L 74.170909 195.327202 
L 74.509091 268.413895 
L 74.847273 195.707311 
L 75.185455 268.413895 
L 75.523636 174.282463 
L 75.861818 268.413895 
L 76.2 123.465037 
L 76.538182 268.413895 
L 76.876364 151.048484 
L 77.214545 268.413895 
L 77.552727 201.387211 
L 77.890909 268.413895 
L 78.229091 185.257687 
L 78.567273 268.413895 
L 78.905455 152.781693 
L 79.243636 268.413895 
L 79.581818 195.707311 
L 79.92 268.413895 
L 80.258182 195.707311 
L 80.596364 268.413895 
L 80.934545 103.3315 
L 81.272727 268.413895 
L 81.610909 195.707311 
L 81.949091 268.413895 
L 82.287273 209.278471 
L 82.625455 268.413895 
L 82.963636 185.257687 
L 83.301818 268.413895 
L 83.64 195.707311 
L 83.978182 268.413895 
L 84.316364 195.707311 
L 84.654545 268.413895 
L 84.992727 184.287761 
L 85.330909 268.413895 
L 85.669091 176.973761 
L 86.007273 268.413895 
L 86.345455 136.348769 
L 86.683636 268.413895 
L 87.021818 108.549653 
L 87.36 268.413895 
L 87.698182 97.848771 
L 88.036364 268.413895 
L 88.374545 209.278471 
L 88.712727 268.413895 
L 89.050909 187.346068 
L 89.389091 268.413895 
L 89.727273 61.72728 
L 90.065455 268.413895 
L 90.403636 130.619675 
L 90.741818 268.413895 
L 91.08 167.955151 
L 91.418182 268.413895 
L 91.756364 172.094681 
L 92.094545 268.413895 
L 92.432727 101.463523 
L 92.770909 268.413895 
L 93.109091 58.804408 
L 93.447273 268.413895 
L 93.785455 187.035471 
L 94.123636 268.413895 
L 94.461818 172.210364 
L 94.8 268.413895 
L 95.138182 195.707311 
L 95.476364 268.413895 
L 95.814545 62.327834 
L 96.152727 268.413895 
L 96.490909 167.834629 
L 96.829091 268.413895 
L 97.167273 195.707311 
L 97.505455 268.413895 
L 97.843636 195.707311 
L 98.181818 268.413895 
L 98.52 195.707311 
L 98.858182 268.413895 
L 99.196364 195.707311 
L 99.534545 268.413895 
L 99.872727 187.035471 
L 100.210909 268.413895 
L 100.549091 195.707311 
L 100.887273 268.413895 
L 101.225455 205.432304 
L 101.563636 268.413895 
L 101.901818 195.707311 
L 102.24 268.413895 
L 102.578182 195.707311 
L 102.916364 268.413895 
L 103.254545 184.287761 
L 103.592727 268.413895 
L 103.930909 67.330629 
L 104.269091 268.413895 
L 104.607273 195.707311 
L 104.945455 268.413895 
L 105.283636 71.547115 
L 105.621818 268.413895 
L 105.96 187.035471 
L 106.298182 268.413895 
L 106.636364 195.707311 
L 106.974545 268.413895 
L 107.312727 209.814794 
L 107.650909 268.413895 
L 107.989091 105.485469 
L 108.327273 268.413895 
L 108.665455 163.272541 
L 109.003636 268.413895 
L 109.341818 156.353452 
L 109.68 268.413895 
L 110.018182 126.408433 
L 110.356364 268.413895 
L 110.694545 62.926843 
L 111.032727 268.413895 
L 111.370909 142.047668 
L 111.709091 268.413895 
L 112.047273 70.182316 
L 112.385455 268.413895 
L 112.723636 187.346068 
L 113.061818 268.413895 
L 113.4 197.818083 
L 113.738182 268.413895 
L 114.076364 195.707311 
L 114.414545 268.413895 
L 114.752727 209.278471 
L 115.090909 268.413895 
L 115.429091 132.61107 
L 115.767273 268.413895 
L 116.105455 195.707311 
L 116.443636 268.413895 
L 116.781818 195.707311 
L 117.12 268.413895 
L 117.458182 140.697321 
L 117.796364 268.413895 
L 118.134545 128.460669 
L 118.472727 268.413895 
L 118.810909 163.821477 
L 119.149091 268.413895 
L 119.487273 195.707311 
L 119.825455 268.413895 
L 120.163636 205.225215 
L 120.501818 268.413895 
L 120.84 184.287761 
L 121.178182 268.413895 
L 121.516364 195.707311 
L 121.854545 268.413895 
L 122.192727 103.114391 
L 122.530909 268.413895 
L 122.869091 185.633666 
L 123.207273 268.413895 
L 123.545455 195.707311 
L 123.883636 268.413895 
L 124.221818 189.405761 
L 124.56 268.413895 
L 124.898182 195.707311 
L 125.236364 268.413895 
L 125.574545 195.707311 
L 125.912727 268.413895 
L 126.250909 197.357506 
L 126.589091 268.413895 
L 126.927273 195.707311 
L 127.265455 268.413895 
L 127.603636 220.087368 
L 127.941818 268.413895 
L 128.28 107.965271 
L 128.618182 268.413895 
L 128.956364 195.707311 
L 129.294545 268.413895 
L 129.632727 209.278471 
L 129.970909 268.413895 
L 130.309091 134.086642 
L 130.647273 268.413895 
L 130.985455 108.388068 
L 131.323636 268.413895 
L 131.661818 184.287761 
L 132 268.413895 
L 132.338182 63.901166 
L 132.676364 268.413895 
L 133.014545 106.303427 
L 133.352727 268.413895 
L 133.690909 105.202743 
L 134.029091 268.413895 
L 134.367273 195.707311 
L 134.705455 268.413895 
L 135.043636 195.707311 
L 135.381818 268.413895 
L 135.72 187.035471 
L 136.058182 268.413895 
L 136.396364 204.887631 
L 136.734545 268.413895 
L 137.072727 102.782327 
L 137.410909 268.413895 
L 137.749091 155.030617 
L 138.087273 268.413895 
L 138.425455 128.625472 
L 138.763636 268.413895 
L 139.101818 195.707311 
L 139.44 268.413895 
L 139.778182 132.476167 
L 140.116364 268.413895 
L 140.454545 172.210364 
L 140.792727 268.413895 
L 141.130909 108.388068 
L 141.469091 268.413895 
L 141.807273 104.751984 
L 142.145455 268.413895 
L 142.483636 102.389321 
L 142.821818 268.413895 
L 143.16 136.764885 
L 143.498182 268.413895 
L 143.836364 195.707311 
L 144.174545 268.413895 
L 144.512727 195.707311 
L 144.850909 268.413895 
L 145.189091 195.707311 
L 145.527273 268.413895 
L 145.865455 181.3456 
L 146.203636 268.413895 
L 146.541818 205.432304 
L 146.88 268.413895 
L 147.218182 187.035471 
L 147.556364 268.413895 
L 147.894545 195.707311 
L 148.232727 268.413895 
L 148.570909 179.412496 
L 148.909091 268.413895 
L 149.247273 195.707311 
L 149.585455 268.413895 
L 149.923636 195.707311 
L 150.261818 268.413895 
L 150.6 102.699575 
L 150.938182 268.413895 
L 151.276364 195.707311 
L 151.614545 268.413895 
L 151.952727 102.269471 
L 152.290909 268.413895 
L 152.629091 176.792976 
L 152.967273 268.413895 
L 153.305455 195.707311 
L 153.643636 268.413895 
L 153.981818 195.707311 
L 154.32 268.413895 
L 154.658182 187.035471 
L 154.996364 268.413895 
L 155.334545 99.72903 
L 155.672727 268.413895 
L 156.010909 195.707311 
L 156.349091 268.413895 
L 156.687273 184.287761 
L 157.025455 268.413895 
L 157.363636 119.772233 
L 157.701818 268.413895 
L 158.04 184.287761 
L 158.378182 268.413895 
L 158.716364 184.287761 
L 159.054545 268.413895 
L 159.392727 201.387211 
L 159.730909 268.413895 
L 160.069091 195.707311 
L 160.407273 268.413895 
L 160.745455 95.269616 
L 161.083636 268.413895 
L 161.421818 209.278471 
L 161.76 268.413895 
L 162.098182 162.659367 
L 162.436364 268.413895 
L 162.774545 134.401621 
L 163.112727 268.413895 
L 163.450909 195.707311 
L 163.789091 268.413895 
L 164.127273 195.707311 
L 164.465455 268.413895 
L 164.803636 195.707311 
L 165.141818 268.413895 
L 165.48 187.035471 
L 165.818182 268.413895 
L 166.156364 195.707311 
L 166.494545 268.413895 
L 166.832727 195.707311 
L 167.170909 268.413895 
L 167.509091 147.943493 
L 167.847273 268.413895 
L 168.185455 102.782327 
L 168.523636 268.413895 
L 168.861818 97.416461 
L 169.2 268.413895 
L 169.538182 195.707311 
L 169.876364 268.413895 
L 170.214545 199.080647 
L 170.552727 268.413895 
L 170.890909 187.346068 
L 171.229091 268.413895 
L 171.567273 195.707311 
L 171.905455 268.413895 
L 172.243636 179.434653 
L 172.581818 268.413895 
L 172.92 195.707311 
L 173.258182 268.413895 
L 173.596364 187.346068 
L 173.934545 268.413895 
L 174.272727 133.553545 
L 174.610909 268.413895 
L 174.949091 199.080647 
L 175.287273 268.413895 
L 175.625455 195.707311 
L 175.963636 268.413895 
L 176.301818 195.707311 
L 176.64 268.413895 
L 176.978182 144.834285 
L 177.316364 268.413895 
L 177.654545 184.287761 
L 177.992727 268.413895 
L 178.330909 203.634888 
L 178.669091 268.413895 
L 179.007273 96.584633 
L 179.345455 268.413895 
L 179.683636 170.078496 
L 180.021818 268.413895 
L 180.36 148.26547 
L 180.698182 268.413895 
L 181.036364 125.064894 
L 181.374545 268.413895 
L 181.712727 205.432304 
L 182.050909 268.413895 
L 182.389091 178.812481 
L 182.727273 268.413895 
L 183.065455 176.792976 
L 183.403636 268.413895 
L 183.741818 195.707311 
L 184.08 268.413895 
L 184.418182 176.792976 
L 184.756364 268.413895 
L 185.094545 187.346068 
L 185.432727 268.413895 
L 185.770909 99.957499 
L 186.109091 268.413895 
L 186.447273 192.610628 
L 186.785455 268.413895 
L 187.123636 184.287761 
L 187.461818 268.413895 
L 187.8 131.766256 
L 188.138182 268.413895 
L 188.476364 122.948964 
L 188.814545 268.413895 
L 189.152727 99.225565 
L 189.490909 268.413895 
L 189.829091 195.707311 
L 190.167273 268.413895 
L 190.505455 144.686355 
L 190.843636 268.413895 
L 191.181818 187.346068 
L 191.52 268.413895 
L 191.858182 195.707311 
L 192.196364 268.413895 
L 192.534545 195.707311 
L 192.872727 268.413895 
L 193.210909 195.707311 
L 193.549091 268.413895 
L 193.887273 161.572135 
L 194.225455 268.413895 
L 194.563636 149.549543 
L 194.901818 268.413895 
L 195.24 65.224631 
L 195.578182 268.413895 
L 195.916364 61.60024 
L 196.254545 268.413895 
L 196.592727 187.035471 
L 196.930909 268.413895 
L 197.269091 207.408539 
L 197.607273 268.413895 
L 197.945455 67.883515 
L 198.283636 268.413895 
L 198.621818 163.041552 
L 198.96 268.413895 
L 199.298182 195.707311 
L 199.636364 268.413895 
L 199.974545 195.707311 
L 200.312727 268.413895 
L 200.650909 93.21375 
L 200.989091 268.413895 
L 201.327273 62.035008 
L 201.665455 268.413895 
L 202.003636 209.278471 
L 202.341818 268.413895 
L 202.68 195.707311 
L 203.018182 268.413895 
L 203.356364 195.707311 
L 203.694545 268.413895 
L 204.032727 195.707311 
L 204.370909 268.413895 
L 204.709091 187.035471 
L 205.047273 268.413895 
L 205.385455 184.287761 
L 205.723636 268.413895 
L 206.061818 161.89243 
L 206.4 268.413895 
L 206.738182 157.245419 
L 207.076364 268.413895 
L 207.414545 195.707311 
L 207.752727 268.413895 
L 208.090909 159.531256 
L 208.429091 268.413895 
L 208.767273 190.339461 
L 209.105455 268.413895 
L 209.443636 154.908334 
L 209.781818 268.413895 
L 210.12 94.46113 
L 210.458182 268.413895 
L 210.796364 103.919315 
L 211.134545 268.413895 
L 211.472727 104.548413 
L 211.810909 268.413895 
L 212.149091 195.707311 
L 212.487273 268.413895 
L 212.825455 131.523612 
L 213.163636 268.413895 
L 213.501818 195.707311 
L 213.84 268.413895 
L 214.178182 148.037094 
L 214.516364 268.413895 
L 214.854545 100.480413 
L 215.192727 268.413895 
L 215.530909 209.278471 
L 215.869091 268.413895 
L 216.207273 99.72903 
L 216.545455 268.413895 
L 216.883636 195.707311 
L 217.221818 268.413895 
L 217.56 195.707311 
L 217.898182 268.413895 
L 218.236364 102.782327 
L 218.574545 268.413895 
L 218.912727 190.339461 
L 219.250909 268.413895 
L 219.589091 145.675521 
L 219.927273 268.413895 
L 220.265455 195.707311 
L 220.603636 268.413895 
L 220.941818 195.707311 
L 221.28 268.413895 
L 221.618182 108.797892 
L 221.956364 268.413895 
L 222.294545 101.308932 
L 222.632727 268.413895 
L 222.970909 176.973761 
L 223.309091 268.413895 
L 223.647273 195.707311 
L 223.985455 268.413895 
L 224.323636 187.035471 
L 224.661818 268.413895 
L 225 203.634888 
L 225.338182 268.413895 
L 225.676364 102.782327 
L 226.014545 268.413895 
L 226.352727 100.268297 
L 226.690909 268.413895 
L 227.029091 195.707311 
L 227.367273 268.413895 
L 227.705455 172.094681 
L 228.043636 268.413895 
L 228.381818 165.815632 
L 228.72 268.413895 
L 229.058182 195.707311 
L 229.396364 268.413895 
L 229.734545 195.707311 
L 230.072727 268.413895 
L 230.410909 195.707311 
L 230.749091 268.413895 
L 231.087273 185.257687 
L 231.425455 268.413895 
L 231.763636 187.346068 
L 232.101818 268.413895 
L 232.44 195.707311 
L 232.778182 268.413895 
L 233.116364 195.707311 
L 233.454545 268.413895 
L 233.792727 192.610628 
L 234.130909 268.413895 
L 234.469091 184.287761 
L 234.807273 268.413895 
L 235.145455 98.367945 
L 235.483636 268.413895 
L 235.821818 144.420185 
L 236.16 268.413895 
L 236.498182 209.278471 
L 236.836364 268.413895 
L 237.174545 195.707311 
L 237.512727 268.413895 
L 237.850909 195.707311 
L 238.189091 268.413895 
L 238.527273 100.480413 
L 238.865455 268.413895 
L 239.203636 180.218409 
L 239.541818 268.413895 
L 239.88 162.659367 
L 240.218182 268.413895 
L 240.556364 195.707311 
L 240.894545 268.413895 
L 241.232727 195.707311 
L 241.570909 268.413895 
L 241.909091 96.705097 
L 242.247273 268.413895 
L 242.585455 69.309236 
L 242.923636 268.413895 
L 243.261818 161.791859 
L 243.6 268.413895 
L 243.938182 66.086043 
L 244.276364 268.413895 
L 244.614545 97.251618 
L 244.952727 268.413895 
L 245.290909 65.62107 
L 245.629091 268.413895 
L 245.967273 166.186355 
L 246.305455 268.413895 
L 246.643636 142.969502 
L 246.981818 268.413895 
L 247.32 90.723454 
L 247.658182 268.413895 
L 247.996364 120.706684 
L 248.334545 268.413895 
L 248.672727 142.047668 
L 249.010909 268.413895 
L 249.349091 123.413316 
L 249.687273 268.413895 
L 250.025455 123.708021 
L 250.363636 268.413895 
L 250.701818 100.03969 
L 251.04 268.413895 
L 251.378182 120.451697 
L 251.716364 268.413895 
L 252.054545 121.023375 
L 252.392727 268.413895 
L 252.730909 124.701386 
L 253.069091 268.413895 
L 253.407273 127.069962 
L 253.745455 268.413895 
L 254.083636 122.745507 
L 254.421818 268.413895 
L 254.76 122.745507 
L 255.098182 268.413895 
L 255.436364 125.182402 
L 255.774545 268.413895 
L 256.112727 125.182402 
L 256.450909 268.413895 
L 256.789091 154.330512 
L 257.127273 268.413895 
L 257.465455 149.1686 
L 257.803636 268.413895 
L 258.141818 129.373052 
L 258.48 268.413895 
L 258.818182 126.28501 
L 259.156364 268.413895 
L 259.494545 129.373052 
L 259.832727 268.413895 
L 260.170909 145.712163 
L 260.509091 268.413895 
L 260.847273 145.644758 
L 261.185455 268.413895 
L 261.523636 164.480062 
L 261.861818 268.413895 
L 262.2 184.355187 
L 262.538182 268.413895 
L 262.876364 195.707311 
L 263.214545 268.413895 
L 263.552727 195.707311 
L 263.890909 268.413895 
L 264.229091 195.707311 
L 264.567273 268.413895 
L 264.905455 195.707311 
L 265.243636 268.413895 
L 265.581818 199.16289 
L 265.92 268.413895 
L 266.258182 195.707311 
L 266.596364 268.413895 
L 266.934545 199.16289 
L 267.272727 268.413895 
L 267.610909 195.707311 
L 267.949091 268.413895 
L 268.287273 199.16289 
L 268.625455 268.413895 
L 268.963636 195.707311 
L 269.301818 268.413895 
L 269.64 142.888741 
L 269.978182 268.413895 
L 270.316364 195.707311 
L 270.654545 268.413895 
L 270.992727 199.16289 
L 271.330909 268.413895 
L 271.669091 195.707311 
L 272.007273 268.413895 
L 272.345455 196.106728 
L 272.683636 268.413895 
L 273.021818 195.707311 
L 273.36 268.413895 
L 273.698182 150.360994 
L 274.036364 268.413895 
L 274.374545 195.707311 
L 274.712727 268.413895 
L 275.050909 195.707311 
L 275.389091 268.413895 
L 275.727273 195.707311 
L 276.065455 268.413895 
L 276.403636 188.789303 
L 276.741818 268.413895 
L 277.08 195.707311 
L 277.418182 268.413895 
L 277.756364 195.707311 
L 278.094545 268.413895 
L 278.432727 195.707311 
L 278.770909 268.413895 
L 279.109091 199.16289 
L 279.447273 268.413895 
L 279.785455 141.734722 
L 280.123636 268.413895 
L 280.461818 195.707311 
L 280.8 268.413895 
L 281.138182 195.707311 
L 281.476364 268.413895 
L 281.814545 199.16289 
L 282.152727 268.413895 
L 282.490909 195.707311 
L 282.829091 268.413895 
L 283.167273 195.707311 
L 283.505455 268.413895 
L 283.843636 188.789303 
L 284.181818 268.413895 
L 284.52 195.707311 
L 284.858182 268.413895 
L 285.196364 195.707311 
L 285.534545 268.413895 
L 285.872727 195.707311 
L 286.210909 268.413895 
L 286.549091 156.303469 
L 286.887273 268.413895 
L 287.225455 142.300505 
L 287.563636 268.413895 
L 287.901818 195.707311 
L 288.24 268.413895 
L 288.578182 195.707311 
L 288.916364 268.413895 
L 289.254545 195.707311 
L 289.592727 268.413895 
L 289.930909 195.707311 
L 290.269091 268.413895 
L 290.607273 195.707311 
L 290.945455 268.413895 
L 291.283636 195.707311 
L 291.621818 268.413895 
L 291.96 195.707311 
L 292.298182 268.413895 
L 292.636364 195.707311 
L 292.974545 268.413895 
L 293.312727 195.707311 
L 293.650909 268.413895 
L 293.989091 196.106728 
L 294.327273 268.413895 
L 294.665455 195.707311 
L 295.003636 268.413895 
L 295.341818 195.707311 
L 295.68 268.413895 
L 296.018182 199.16289 
L 296.356364 268.413895 
L 296.694545 195.707311 
L 297.032727 268.413895 
L 297.370909 195.707311 
L 297.709091 268.413895 
L 298.047273 150.360994 
L 298.385455 268.413895 
L 298.723636 196.106728 
L 299.061818 268.413895 
L 299.4 195.707311 
L 299.738182 268.413895 
L 300.076364 141.734722 
L 300.414545 268.413895 
L 300.752727 195.707311 
L 301.090909 268.413895 
L 301.429091 138.013788 
L 301.767273 268.413895 
L 302.105455 195.707311 
L 302.443636 268.413895 
L 302.781818 195.707311 
L 303.12 268.413895 
L 303.458182 195.707311 
L 303.796364 268.413895 
L 304.134545 195.707311 
L 304.472727 268.413895 
L 304.810909 195.707311 
L 305.149091 268.413895 
L 305.487273 195.707311 
L 305.825455 268.413895 
L 306.163636 195.707311 
L 306.501818 268.413895 
L 306.84 199.16289 
L 307.178182 268.413895 
L 307.516364 195.707311 
L 307.854545 268.413895 
L 308.192727 156.303469 
L 308.530909 268.413895 
L 308.869091 141.734722 
L 309.207273 268.413895 
L 309.545455 195.707311 
L 309.883636 268.413895 
L 310.221818 195.707311 
L 310.56 268.413895 
L 310.898182 195.707311 
L 311.236364 268.413895 
L 311.574545 195.707311 
L 311.912727 268.413895 
L 312.250909 195.707311 
L 312.589091 268.413895 
L 312.927273 195.707311 
L 313.265455 268.413895 
L 313.603636 195.707311 
L 313.941818 268.413895 
L 314.28 156.303469 
L 314.618182 268.413895 
L 314.956364 195.707311 
L 315.294545 268.413895 
L 315.632727 195.707311 
L 315.970909 268.413895 
L 316.309091 195.707311 
L 316.647273 268.413895 
L 316.985455 195.707311 
L 317.323636 268.413895 
L 317.661818 195.707311 
L 318 268.413895 
L 318.338182 195.707311 
L 318.676364 268.413895 
L 319.014545 195.707311 
L 319.352727 268.413895 
L 319.690909 138.547594 
L 320.029091 268.413895 
L 320.367273 195.707311 
L 320.705455 268.413895 
L 321.043636 142.300505 
L 321.381818 268.413895 
L 321.72 195.707311 
L 322.058182 268.413895 
L 322.396364 195.707311 
L 322.734545 268.413895 
L 323.072727 195.707311 
L 323.410909 268.413895 
L 323.749091 195.707311 
L 324.087273 268.413895 
L 324.425455 190.864994 
L 324.763636 268.413895 
L 325.101818 195.707311 
L 325.44 268.413895 
L 325.778182 195.707311 
L 326.116364 268.413895 
L 326.454545 195.707311 
L 326.792727 268.413895 
L 327.130909 194.97343 
L 327.469091 268.413895 
L 327.807273 195.707311 
L 328.145455 268.413895 
L 328.483636 195.707311 
L 328.821818 268.413895 
L 329.16 195.707311 
L 329.498182 268.413895 
L 329.836364 156.303469 
L 330.174545 268.413895 
L 330.512727 195.707311 
L 330.850909 268.413895 
L 331.189091 195.707311 
L 331.527273 268.413895 
L 331.865455 195.707311 
L 332.203636 268.413895 
L 332.541818 195.707311 
L 332.88 268.413895 
L 333.218182 157.650179 
L 333.556364 268.413895 
L 333.894545 138.547594 
L 334.232727 268.413895 
L 334.570909 195.707311 
L 334.909091 268.413895 
L 335.247273 196.106728 
L 335.585455 268.413895 
L 335.923636 157.650179 
L 336.261818 268.413895 
L 336.6 195.707311 
L 336.938182 268.413895 
L 337.276364 195.707311 
L 337.614545 268.413895 
L 337.952727 142.300505 
L 338.290909 268.413895 
L 338.629091 195.707311 
L 338.967273 268.413895 
L 339.305455 156.303469 
L 339.643636 268.413895 
L 339.981818 195.707311 
L 340.32 268.413895 
L 340.658182 195.707311 
L 340.996364 268.413895 
L 341.334545 156.303469 
L 341.672727 268.413895 
L 342.010909 195.707311 
L 342.349091 268.413895 
L 342.687273 195.707311 
L 343.025455 268.413895 
L 343.363636 194.97343 
L 343.701818 268.413895 
L 344.04 195.707311 
L 344.378182 268.413895 
L 344.716364 200.436062 
L 345.054545 268.413895 
L 345.392727 216.515283 
L 345.730909 268.413895 
L 346.069091 181.56228 
L 346.407273 268.413895 
L 346.745455 224.828944 
L 347.083636 268.413895 
L 347.421818 232.003798 
L 347.76 268.413895 
L 348.098182 188.150876 
L 348.436364 268.413895 
L 348.774545 178.805132 
L 349.112727 268.413895 
L 349.450909 231.629912 
L 349.789091 268.413895 
L 350.127273 177.018015 
L 350.465455 268.413895 
L 350.803636 176.442724 
L 351.141818 268.413895 
L 351.48 211.679484 
L 351.818182 268.413895 
L 352.156364 237.226703 
L 352.494545 268.413895 
L 352.832727 220.087368 
L 353.170909 268.413895 
L 353.509091 170.741 
L 353.847273 268.413895 
L 354.185455 237.808508 
L 354.523636 268.413895 
L 354.861818 195.707311 
L 355.2 268.413895 
L 355.538182 208.745847 
L 355.876364 268.413895 
L 356.214545 209.278471 
L 356.552727 268.413895 
L 356.890909 224.93126 
L 357.229091 268.413895 
L 357.567273 264.288004 
L 357.905455 268.413895 
L 358.243636 195.707311 
L 358.92 123.568587 
L 359.258182 123.568587 
L 359.596364 188.835183 
L 359.934545 134.914324 
L 360.272727 226.167944 
L 360.949091 105.975748 
L 361.287273 166.110758 
L 361.625455 268.413895 
L 361.963636 95.704395 
L 362.301818 177.793201 
L 362.64 177.793201 
L 362.978182 180.667158 
L 363.316364 295.488 
L 363.654545 177.793201 
L 363.992727 176.213192 
L 364.330909 268.413895 
L 364.669091 148.787942 
L 365.007273 268.413895 
L 365.345455 148.126059 
L 365.683636 268.413895 
L 366.021818 148.126059 
L 366.36 268.413895 
L 366.698182 147.10665 
L 367.036364 268.413895 
L 367.374545 147.196872 
L 367.712727 268.413895 
L 368.050909 151.057635 
L 368.389091 268.413895 
L 368.727273 147.020253 
L 369.065455 268.413895 
L 369.403636 153.905804 
L 369.741818 268.413895 
L 370.08 151.989238 
L 370.418182 268.413895 
L 370.756364 147.845356 
L 371.094545 268.413895 
L 371.432727 147.387811 
L 371.770909 268.413895 
L 372.109091 147.020253 
L 372.447273 268.413895 
L 372.785455 146.859721 
L 373.123636 268.413895 
L 373.461818 148.533842 
L 373.8 268.413895 
L 374.138182 148.126059 
L 374.476364 268.413895 
L 374.814545 148.533842 
L 375.152727 268.413895 
L 375.490909 147.487933 
L 375.829091 268.413895 
L 376.167273 149.588379 
L 376.505455 268.413895 
L 376.843636 151.550793 
L 377.181818 268.413895 
L 377.52 148.906505 
L 377.858182 268.413895 
L 378.196364 151.989238 
L 378.534545 268.413895 
L 378.872727 91.306227 
L 379.210909 175.289371 
L 379.549091 177.793201 
L 379.887273 104.717751 
L 380.225455 140.906326 
L 380.563636 140.764321 
L 380.901818 151.507392 
L 381.24 268.413895 
L 381.578182 95.284336 
L 381.916364 268.413895 
L 382.254545 53.568 
L 382.592727 140.764321 
L 382.930909 139.646536 
L 383.269091 131.361936 
L 383.607273 268.413895 
L 383.945455 95.688203 
L 384.283636 268.413895 
L 384.621818 95.284336 
L 384.96 268.413895 
L 385.298182 124.567765 
L 385.974545 131.361936 
L 386.312727 268.413895 
L 386.650909 67.467623 
L 386.989091 130.181998 
L 387.327273 268.413895 
L 387.665455 155.759815 
L 388.003636 268.413895 
L 388.341818 95.284336 
L 388.68 268.413895 
L 389.018182 95.688203 
L 389.356364 268.413895 
L 389.694545 66.691356 
L 390.032727 268.413895 
L 390.370909 65.537217 
L 390.709091 268.413895 
L 391.047273 67.467623 
L 391.385455 129.372746 
L 391.723636 268.413895 
L 392.061818 68.129007 
L 392.4 268.413895 
L 392.738182 64.800066 
L 393.076364 131.361936 
L 393.414545 268.413895 
L 393.752727 97.912127 
L 394.090909 268.413895 
L 394.429091 95.092895 
L 394.767273 268.413895 
L 395.105455 95.284336 
L 395.443636 132.336594 
L 395.781818 140.764321 
L 396.458182 140.764321 
L 396.796364 139.060261 
L 397.134545 143.888432 
L 397.472727 111.635636 
L 397.810909 143.888432 
L 398.149091 89.406198 
L 398.487273 124.593759 
L 398.487273 124.593759 
" clip-path="url(#pf2600dc1db)" style="fill: none; stroke: #1f77b4; stroke-width: 1.5; stroke-linecap: square"/>
   </g>
   <g id="patch_3">
    <path d="M 57.6 307.584 
L 57.6 41.472 
" style="fill: none; stroke: #000000; stroke-width: 0.8; stroke-linejoin: miter; stroke-linecap: square"/>
   </g>
   <g id="patch_4">
    <path d="M 414.72 307.584 
L 414.72 41.472 
" style="fill: none; stroke: #000000; stroke-width: 0.8; stroke-linejoin: miter; stroke-linecap: square"/>
   </g>
   <g id="patch_5">
    <path d="M 57.6 307.584 
L 414.72 307.584 
" style="fill: none; stroke: #000000; stroke-width: 0.8; stroke-linejoin: miter; stroke-linecap: square"/>
   </g>
   <g id="patch_6">
    <path d="M 57.6 41.472 
L 414.72 41.472 
" style="fill: none; stroke: #000000; stroke-width: 0.8; stroke-linejoin: miter; stroke-linecap: square"/>
   </g>
  </g>
 </g>
 <defs>
  <clipPath id="pf2600dc1db">
   <rect x="57.6" y="41.472" width="357.12" height="266.112"/>
  </clipPath>
 </defs>
</svg>
