<?xml version="1.0" encoding="utf-8" standalone="no"?>
<!DOCTYPE svg PUBLIC "-//W3C//DTD SVG 1.1//EN"
  "http://www.w3.org/Graphics/SVG/1.1/DTD/svg11.dtd">
<svg xmlns:xlink="http://www.w3.org/1999/xlink" width="460.8pt" height="345.6pt" viewBox="0 0 460.8 345.6" xmlns="http://www.w3.org/2000/svg" version="1.1">
 <metadata>
  <rdf:RDF xmlns:dc="http://purl.org/dc/elements/1.1/" xmlns:cc="http://creativecommons.org/ns#" xmlns:rdf="http://www.w3.org/1999/02/22-rdf-syntax-ns#">
   <cc:Work>
    <dc:type rdf:resource="http://purl.org/dc/dcmitype/StillImage"/>
    <dc:date>2024-04-22T19:17:21.158835</dc:date>
    <dc:format>image/svg+xml</dc:format>
    <dc:creator>
     <cc:Agent>
      <dc:title>Matplotlib v3.7.2, https://matplotlib.org/</dc:title>
     </cc:Agent>
    </dc:creator>
   </cc:Work>
  </rdf:RDF>
 </metadata>
 <defs>
  <style type="text/css">*{stroke-linejoin: round; stroke-linecap: butt}</style>
 </defs>
 <g id="figure_1">
  <g id="patch_1">
   <path d="M 0 345.6 
L 460.8 345.6 
L 460.8 0 
L 0 0 
z
" style="fill: #ffffff"/>
  </g>
  <g id="axes_1">
   <g id="patch_2">
    <path d="M 57.6 307.584 
L 414.72 307.584 
L 414.72 41.472 
L 57.6 41.472 
z
" style="fill: #ffffff"/>
   </g>
   <g id="matplotlib.axis_1">
    <g id="xtick_1">
     <g id="line2d_1">
      <defs>
       <path id="mfed5a03962" d="M 0 0 
L 0 3.5 
" style="stroke: #000000; stroke-width: 0.8"/>
      </defs>
      <g>
       <use xlink:href="#mfed5a03962" x="73.832727" y="307.584" style="stroke: #000000; stroke-width: 0.8"/>
      </g>
     </g>
     <g id="text_1">
      <!-- 0 -->
      <g transform="translate(70.651477 322.182437) scale(0.1 -0.1)">
       <defs>
        <path id="DejaVuSans-30" d="M 2034 4250 
Q 1547 4250 1301 3770 
Q 1056 3291 1056 2328 
Q 1056 1369 1301 889 
Q 1547 409 2034 409 
Q 2525 409 2770 889 
Q 3016 1369 3016 2328 
Q 3016 3291 2770 3770 
Q 2525 4250 2034 4250 
z
M 2034 4750 
Q 2819 4750 3233 4129 
Q 3647 3509 3647 2328 
Q 3647 1150 3233 529 
Q 2819 -91 2034 -91 
Q 1250 -91 836 529 
Q 422 1150 422 2328 
Q 422 3509 836 4129 
Q 1250 4750 2034 4750 
z
" transform="scale(0.015625)"/>
       </defs>
       <use xlink:href="#DejaVuSans-30"/>
      </g>
     </g>
    </g>
    <g id="xtick_2">
     <g id="line2d_2">
      <g>
       <use xlink:href="#mfed5a03962" x="138.828632" y="307.584" style="stroke: #000000; stroke-width: 0.8"/>
      </g>
     </g>
     <g id="text_2">
      <!-- 200 -->
      <g transform="translate(129.284882 322.182437) scale(0.1 -0.1)">
       <defs>
        <path id="DejaVuSans-32" d="M 1228 531 
L 3431 531 
L 3431 0 
L 469 0 
L 469 531 
Q 828 903 1448 1529 
Q 2069 2156 2228 2338 
Q 2531 2678 2651 2914 
Q 2772 3150 2772 3378 
Q 2772 3750 2511 3984 
Q 2250 4219 1831 4219 
Q 1534 4219 1204 4116 
Q 875 4013 500 3803 
L 500 4441 
Q 881 4594 1212 4672 
Q 1544 4750 1819 4750 
Q 2544 4750 2975 4387 
Q 3406 4025 3406 3419 
Q 3406 3131 3298 2873 
Q 3191 2616 2906 2266 
Q 2828 2175 2409 1742 
Q 1991 1309 1228 531 
z
" transform="scale(0.015625)"/>
       </defs>
       <use xlink:href="#DejaVuSans-32"/>
       <use xlink:href="#DejaVuSans-30" x="63.623047"/>
       <use xlink:href="#DejaVuSans-30" x="127.246094"/>
      </g>
     </g>
    </g>
    <g id="xtick_3">
     <g id="line2d_3">
      <g>
       <use xlink:href="#mfed5a03962" x="203.824537" y="307.584" style="stroke: #000000; stroke-width: 0.8"/>
      </g>
     </g>
     <g id="text_3">
      <!-- 400 -->
      <g transform="translate(194.280787 322.182437) scale(0.1 -0.1)">
       <defs>
        <path id="DejaVuSans-34" d="M 2419 4116 
L 825 1625 
L 2419 1625 
L 2419 4116 
z
M 2253 4666 
L 3047 4666 
L 3047 1625 
L 3713 1625 
L 3713 1100 
L 3047 1100 
L 3047 0 
L 2419 0 
L 2419 1100 
L 313 1100 
L 313 1709 
L 2253 4666 
z
" transform="scale(0.015625)"/>
       </defs>
       <use xlink:href="#DejaVuSans-34"/>
       <use xlink:href="#DejaVuSans-30" x="63.623047"/>
       <use xlink:href="#DejaVuSans-30" x="127.246094"/>
      </g>
     </g>
    </g>
    <g id="xtick_4">
     <g id="line2d_4">
      <g>
       <use xlink:href="#mfed5a03962" x="268.820442" y="307.584" style="stroke: #000000; stroke-width: 0.8"/>
      </g>
     </g>
     <g id="text_4">
      <!-- 600 -->
      <g transform="translate(259.276692 322.182437) scale(0.1 -0.1)">
       <defs>
        <path id="DejaVuSans-36" d="M 2113 2584 
Q 1688 2584 1439 2293 
Q 1191 2003 1191 1497 
Q 1191 994 1439 701 
Q 1688 409 2113 409 
Q 2538 409 2786 701 
Q 3034 994 3034 1497 
Q 3034 2003 2786 2293 
Q 2538 2584 2113 2584 
z
M 3366 4563 
L 3366 3988 
Q 3128 4100 2886 4159 
Q 2644 4219 2406 4219 
Q 1781 4219 1451 3797 
Q 1122 3375 1075 2522 
Q 1259 2794 1537 2939 
Q 1816 3084 2150 3084 
Q 2853 3084 3261 2657 
Q 3669 2231 3669 1497 
Q 3669 778 3244 343 
Q 2819 -91 2113 -91 
Q 1303 -91 875 529 
Q 447 1150 447 2328 
Q 447 3434 972 4092 
Q 1497 4750 2381 4750 
Q 2619 4750 2861 4703 
Q 3103 4656 3366 4563 
z
" transform="scale(0.015625)"/>
       </defs>
       <use xlink:href="#DejaVuSans-36"/>
       <use xlink:href="#DejaVuSans-30" x="63.623047"/>
       <use xlink:href="#DejaVuSans-30" x="127.246094"/>
      </g>
     </g>
    </g>
    <g id="xtick_5">
     <g id="line2d_5">
      <g>
       <use xlink:href="#mfed5a03962" x="333.816347" y="307.584" style="stroke: #000000; stroke-width: 0.8"/>
      </g>
     </g>
     <g id="text_5">
      <!-- 800 -->
      <g transform="translate(324.272597 322.182437) scale(0.1 -0.1)">
       <defs>
        <path id="DejaVuSans-38" d="M 2034 2216 
Q 1584 2216 1326 1975 
Q 1069 1734 1069 1313 
Q 1069 891 1326 650 
Q 1584 409 2034 409 
Q 2484 409 2743 651 
Q 3003 894 3003 1313 
Q 3003 1734 2745 1975 
Q 2488 2216 2034 2216 
z
M 1403 2484 
Q 997 2584 770 2862 
Q 544 3141 544 3541 
Q 544 4100 942 4425 
Q 1341 4750 2034 4750 
Q 2731 4750 3128 4425 
Q 3525 4100 3525 3541 
Q 3525 3141 3298 2862 
Q 3072 2584 2669 2484 
Q 3125 2378 3379 2068 
Q 3634 1759 3634 1313 
Q 3634 634 3220 271 
Q 2806 -91 2034 -91 
Q 1263 -91 848 271 
Q 434 634 434 1313 
Q 434 1759 690 2068 
Q 947 2378 1403 2484 
z
M 1172 3481 
Q 1172 3119 1398 2916 
Q 1625 2713 2034 2713 
Q 2441 2713 2670 2916 
Q 2900 3119 2900 3481 
Q 2900 3844 2670 4047 
Q 2441 4250 2034 4250 
Q 1625 4250 1398 4047 
Q 1172 3844 1172 3481 
z
" transform="scale(0.015625)"/>
       </defs>
       <use xlink:href="#DejaVuSans-38"/>
       <use xlink:href="#DejaVuSans-30" x="63.623047"/>
       <use xlink:href="#DejaVuSans-30" x="127.246094"/>
      </g>
     </g>
    </g>
    <g id="xtick_6">
     <g id="line2d_6">
      <g>
       <use xlink:href="#mfed5a03962" x="398.812252" y="307.584" style="stroke: #000000; stroke-width: 0.8"/>
      </g>
     </g>
     <g id="text_6">
      <!-- 1000 -->
      <g transform="translate(386.087252 322.182437) scale(0.1 -0.1)">
       <defs>
        <path id="DejaVuSans-31" d="M 794 531 
L 1825 531 
L 1825 4091 
L 703 3866 
L 703 4441 
L 1819 4666 
L 2450 4666 
L 2450 531 
L 3481 531 
L 3481 0 
L 794 0 
L 794 531 
z
" transform="scale(0.015625)"/>
       </defs>
       <use xlink:href="#DejaVuSans-31"/>
       <use xlink:href="#DejaVuSans-30" x="63.623047"/>
       <use xlink:href="#DejaVuSans-30" x="127.246094"/>
       <use xlink:href="#DejaVuSans-30" x="190.869141"/>
      </g>
     </g>
    </g>
   </g>
   <g id="matplotlib.axis_2">
    <g id="ytick_1">
     <g id="line2d_7">
      <defs>
       <path id="m3f7f977017" d="M 0 0 
L -3.5 0 
" style="stroke: #000000; stroke-width: 0.8"/>
      </defs>
      <g>
       <use xlink:href="#m3f7f977017" x="57.6" y="293.107357" style="stroke: #000000; stroke-width: 0.8"/>
      </g>
     </g>
     <g id="text_7">
      <!-- −3000 -->
      <g transform="translate(16.770313 296.906576) scale(0.1 -0.1)">
       <defs>
        <path id="DejaVuSans-2212" d="M 678 2272 
L 4684 2272 
L 4684 1741 
L 678 1741 
L 678 2272 
z
" transform="scale(0.015625)"/>
        <path id="DejaVuSans-33" d="M 2597 2516 
Q 3050 2419 3304 2112 
Q 3559 1806 3559 1356 
Q 3559 666 3084 287 
Q 2609 -91 1734 -91 
Q 1441 -91 1130 -33 
Q 819 25 488 141 
L 488 750 
Q 750 597 1062 519 
Q 1375 441 1716 441 
Q 2309 441 2620 675 
Q 2931 909 2931 1356 
Q 2931 1769 2642 2001 
Q 2353 2234 1838 2234 
L 1294 2234 
L 1294 2753 
L 1863 2753 
Q 2328 2753 2575 2939 
Q 2822 3125 2822 3475 
Q 2822 3834 2567 4026 
Q 2313 4219 1838 4219 
Q 1578 4219 1281 4162 
Q 984 4106 628 3988 
L 628 4550 
Q 988 4650 1302 4700 
Q 1616 4750 1894 4750 
Q 2613 4750 3031 4423 
Q 3450 4097 3450 3541 
Q 3450 3153 3228 2886 
Q 3006 2619 2597 2516 
z
" transform="scale(0.015625)"/>
       </defs>
       <use xlink:href="#DejaVuSans-2212"/>
       <use xlink:href="#DejaVuSans-33" x="83.789062"/>
       <use xlink:href="#DejaVuSans-30" x="147.412109"/>
       <use xlink:href="#DejaVuSans-30" x="211.035156"/>
       <use xlink:href="#DejaVuSans-30" x="274.658203"/>
      </g>
     </g>
    </g>
    <g id="ytick_2">
     <g id="line2d_8">
      <g>
       <use xlink:href="#m3f7f977017" x="57.6" y="255.541926" style="stroke: #000000; stroke-width: 0.8"/>
      </g>
     </g>
     <g id="text_8">
      <!-- −2500 -->
      <g transform="translate(16.770313 259.341144) scale(0.1 -0.1)">
       <defs>
        <path id="DejaVuSans-35" d="M 691 4666 
L 3169 4666 
L 3169 4134 
L 1269 4134 
L 1269 2991 
Q 1406 3038 1543 3061 
Q 1681 3084 1819 3084 
Q 2600 3084 3056 2656 
Q 3513 2228 3513 1497 
Q 3513 744 3044 326 
Q 2575 -91 1722 -91 
Q 1428 -91 1123 -41 
Q 819 9 494 109 
L 494 744 
Q 775 591 1075 516 
Q 1375 441 1709 441 
Q 2250 441 2565 725 
Q 2881 1009 2881 1497 
Q 2881 1984 2565 2268 
Q 2250 2553 1709 2553 
Q 1456 2553 1204 2497 
Q 953 2441 691 2322 
L 691 4666 
z
" transform="scale(0.015625)"/>
       </defs>
       <use xlink:href="#DejaVuSans-2212"/>
       <use xlink:href="#DejaVuSans-32" x="83.789062"/>
       <use xlink:href="#DejaVuSans-35" x="147.412109"/>
       <use xlink:href="#DejaVuSans-30" x="211.035156"/>
       <use xlink:href="#DejaVuSans-30" x="274.658203"/>
      </g>
     </g>
    </g>
    <g id="ytick_3">
     <g id="line2d_9">
      <g>
       <use xlink:href="#m3f7f977017" x="57.6" y="217.976495" style="stroke: #000000; stroke-width: 0.8"/>
      </g>
     </g>
     <g id="text_9">
      <!-- −2000 -->
      <g transform="translate(16.770313 221.775713) scale(0.1 -0.1)">
       <use xlink:href="#DejaVuSans-2212"/>
       <use xlink:href="#DejaVuSans-32" x="83.789062"/>
       <use xlink:href="#DejaVuSans-30" x="147.412109"/>
       <use xlink:href="#DejaVuSans-30" x="211.035156"/>
       <use xlink:href="#DejaVuSans-30" x="274.658203"/>
      </g>
     </g>
    </g>
    <g id="ytick_4">
     <g id="line2d_10">
      <g>
       <use xlink:href="#m3f7f977017" x="57.6" y="180.411063" style="stroke: #000000; stroke-width: 0.8"/>
      </g>
     </g>
     <g id="text_10">
      <!-- −1500 -->
      <g transform="translate(16.770313 184.210282) scale(0.1 -0.1)">
       <use xlink:href="#DejaVuSans-2212"/>
       <use xlink:href="#DejaVuSans-31" x="83.789062"/>
       <use xlink:href="#DejaVuSans-35" x="147.412109"/>
       <use xlink:href="#DejaVuSans-30" x="211.035156"/>
       <use xlink:href="#DejaVuSans-30" x="274.658203"/>
      </g>
     </g>
    </g>
    <g id="ytick_5">
     <g id="line2d_11">
      <g>
       <use xlink:href="#m3f7f977017" x="57.6" y="142.845632" style="stroke: #000000; stroke-width: 0.8"/>
      </g>
     </g>
     <g id="text_11">
      <!-- −1000 -->
      <g transform="translate(16.770313 146.644851) scale(0.1 -0.1)">
       <use xlink:href="#DejaVuSans-2212"/>
       <use xlink:href="#DejaVuSans-31" x="83.789062"/>
       <use xlink:href="#DejaVuSans-30" x="147.412109"/>
       <use xlink:href="#DejaVuSans-30" x="211.035156"/>
       <use xlink:href="#DejaVuSans-30" x="274.658203"/>
      </g>
     </g>
    </g>
    <g id="ytick_6">
     <g id="line2d_12">
      <g>
       <use xlink:href="#m3f7f977017" x="57.6" y="105.280201" style="stroke: #000000; stroke-width: 0.8"/>
      </g>
     </g>
     <g id="text_12">
      <!-- −500 -->
      <g transform="translate(23.132812 109.07942) scale(0.1 -0.1)">
       <use xlink:href="#DejaVuSans-2212"/>
       <use xlink:href="#DejaVuSans-35" x="83.789062"/>
       <use xlink:href="#DejaVuSans-30" x="147.412109"/>
       <use xlink:href="#DejaVuSans-30" x="211.035156"/>
      </g>
     </g>
    </g>
    <g id="ytick_7">
     <g id="line2d_13">
      <g>
       <use xlink:href="#m3f7f977017" x="57.6" y="67.71477" style="stroke: #000000; stroke-width: 0.8"/>
      </g>
     </g>
     <g id="text_13">
      <!-- 0 -->
      <g transform="translate(44.2375 71.513989) scale(0.1 -0.1)">
       <use xlink:href="#DejaVuSans-30"/>
      </g>
     </g>
    </g>
   </g>
   <g id="line2d_14">
    <path d="M 73.832727 67.675492 
L 74.157707 67.71477 
L 74.482686 65.500848 
L 74.807666 60.249663 
L 75.132645 63.09998 
L 75.457625 68.301699 
L 75.782604 66.634965 
L 76.107584 63.27908 
L 76.432563 67.71477 
L 76.757543 67.71477 
L 77.082523 58.169177 
L 77.407502 67.71477 
L 77.732482 69.117137 
L 78.057461 66.634965 
L 78.382441 67.71477 
L 78.70742 67.71477 
L 79.0324 66.534739 
L 79.357379 65.778951 
L 80.007338 58.708392 
L 80.332318 57.602623 
L 80.657297 69.117137 
L 80.982277 66.850767 
L 81.307256 53.870033 
L 81.632236 60.988983 
L 81.957215 64.847019 
L 82.282195 65.274775 
L 82.607174 57.976151 
L 82.932154 53.568 
L 83.257133 66.818671 
L 83.582113 65.286729 
L 83.907093 67.71477 
L 84.232072 53.932091 
L 84.557052 64.834565 
L 84.882031 67.71477 
L 85.85697 67.71477 
L 86.181949 66.818671 
L 86.831908 68.719696 
L 87.156888 67.71477 
L 87.481867 67.71477 
L 87.806847 66.534739 
L 88.131826 54.449051 
L 88.456806 67.71477 
L 88.781785 54.884759 
L 89.106765 66.818671 
L 89.431744 67.71477 
L 89.756724 69.172557 
L 90.081704 58.391756 
L 90.406683 64.363145 
L 90.731663 63.648165 
L 91.056642 60.553817 
L 91.381622 53.993989 
L 91.706601 62.169887 
L 92.031581 54.743729 
L 92.35656 66.850767 
L 92.68154 67.932885 
L 93.006519 67.71477 
L 93.331499 69.117137 
L 93.656478 61.194762 
L 93.981458 67.71477 
L 94.306437 67.71477 
L 94.631417 62.03035 
L 94.956396 60.765883 
L 95.606355 67.71477 
L 95.931335 68.698296 
L 96.256314 66.534739 
L 96.581294 67.71477 
L 96.906274 58.146743 
L 97.231253 66.673817 
L 97.556233 67.71477 
L 97.881212 67.063604 
L 98.206192 67.71477 
L 98.531171 67.71477 
L 98.856151 67.885292 
L 99.18113 67.71477 
L 99.50611 70.234067 
L 99.831089 58.648005 
L 100.156069 67.71477 
L 100.481048 69.117137 
L 100.806028 61.347239 
L 101.131007 58.691694 
L 101.455987 66.534739 
L 101.780966 54.09467 
L 102.105946 58.476279 
L 102.430925 58.362541 
L 102.755905 67.71477 
L 103.080885 67.71477 
L 103.405864 66.818671 
L 103.730844 68.663412 
L 104.055823 58.112429 
L 104.380803 63.511471 
L 104.705782 60.782913 
L 105.030762 67.71477 
L 105.355741 61.180822 
L 105.680721 65.286729 
L 106.0057 58.691694 
L 106.655659 58.071818 
L 106.980639 61.623994 
L 107.305618 67.71477 
L 107.955577 67.71477 
L 108.280557 66.230712 
L 108.605536 68.719696 
L 108.930516 66.818671 
L 109.255495 67.71477 
L 109.580475 66.030956 
L 109.905455 67.71477 
L 110.230434 67.71477 
L 110.555414 58.103878 
L 110.880393 67.71477 
L 111.205373 58.059433 
L 111.530352 65.76027 
L 111.855332 67.71477 
L 112.180311 67.71477 
L 112.505291 66.818671 
L 112.83027 57.796919 
L 113.15525 67.71477 
L 113.480229 66.534739 
L 113.805209 59.86807 
L 114.130188 66.534739 
L 114.455168 66.534739 
L 114.780147 68.301699 
L 115.105127 67.71477 
L 115.430106 57.336108 
L 115.755086 69.117137 
L 116.080066 64.299783 
L 116.405045 61.379788 
L 116.730025 67.71477 
L 117.379984 67.71477 
L 117.704963 66.818671 
L 118.029943 67.71477 
L 118.354922 67.71477 
L 119.004881 58.112429 
L 119.329861 57.557951 
L 119.65484 67.71477 
L 119.97982 68.063352 
L 120.304799 66.850767 
L 120.629779 67.71477 
L 120.954758 66.033246 
L 121.279738 67.71477 
L 121.604717 66.850767 
L 121.929697 61.292152 
L 122.254676 68.063352 
L 122.579656 67.71477 
L 122.904636 67.71477 
L 123.229615 62.45784 
L 123.554595 66.534739 
L 123.879574 68.533961 
L 124.204554 57.471994 
L 124.529533 65.066434 
L 125.179492 60.414983 
L 125.504472 68.719696 
L 125.829451 65.968954 
L 126.154431 65.76027 
L 126.47941 67.71477 
L 126.80439 65.76027 
L 127.129369 66.850767 
L 127.454349 57.820527 
L 127.779328 67.394776 
L 128.104308 66.534739 
L 128.429287 61.107464 
L 128.754267 60.196335 
L 129.079247 57.744893 
L 129.404226 67.71477 
L 129.729206 62.442554 
L 130.054185 66.850767 
L 130.379165 67.71477 
L 131.029124 67.71477 
L 131.354103 64.187435 
L 131.679083 62.945088 
L 132.004062 54.231429 
L 132.329042 53.856905 
L 132.654021 66.818671 
L 132.979001 68.923909 
L 133.30398 54.506183 
L 133.62896 64.339276 
L 133.953939 67.71477 
L 134.278919 67.71477 
L 134.603898 57.123666 
L 134.928878 53.901832 
L 135.253857 69.117137 
L 135.578837 67.71477 
L 136.228796 67.71477 
L 136.553776 66.818671 
L 136.878755 66.534739 
L 137.203735 64.220532 
L 137.528714 63.740336 
L 137.853694 67.71477 
L 138.178673 63.976542 
L 138.503653 67.160087 
L 138.828632 63.498835 
L 139.153612 57.252564 
L 139.478591 58.229919 
L 139.803571 58.294926 
L 140.12855 67.71477 
L 140.45353 61.08239 
L 140.778509 67.71477 
L 141.428468 57.874562 
L 141.753448 69.117137 
L 142.078428 57.796919 
L 142.403407 67.71477 
L 142.728387 67.71477 
L 143.053366 58.112429 
L 143.378346 67.160087 
L 143.703325 62.544769 
L 144.028305 67.71477 
L 144.353284 67.71477 
L 144.678264 58.734043 
L 145.003243 57.960177 
L 145.328223 65.778951 
L 145.653202 67.71477 
L 145.978182 66.818671 
L 146.303161 68.533961 
L 146.628141 58.112429 
L 146.95312 57.852643 
L 147.2781 67.71477 
L 147.603079 65.274775 
L 147.928059 64.625933 
L 148.253038 67.71477 
L 148.902998 67.71477 
L 149.227977 66.634965 
L 149.552957 66.850767 
L 149.877936 67.71477 
L 150.202916 67.71477 
L 150.527895 67.394776 
L 150.852875 66.534739 
L 151.177854 57.656272 
L 151.502834 62.415049 
L 151.827813 69.117137 
L 152.152793 67.71477 
L 152.477772 67.71477 
L 152.802752 57.874562 
L 153.127731 66.114235 
L 153.452711 64.299783 
L 153.77769 67.71477 
L 154.10267 67.71477 
L 154.427649 57.484442 
L 154.752629 54.653509 
L 155.077609 64.210139 
L 155.402588 54.320443 
L 155.727568 57.540917 
L 156.052547 54.272395 
L 156.377527 64.664242 
L 156.702506 62.265144 
L 157.027486 56.866333 
L 157.677445 62.169887 
L 158.002424 60.244318 
L 158.327404 60.274772 
L 158.652383 57.82902 
L 158.977363 59.938281 
L 159.302342 59.997355 
L 159.952301 60.622175 
L 160.277281 60.175311 
L 160.60226 60.175311 
L 160.92724 60.427126 
L 161.252219 60.427126 
L 161.577199 63.439126 
L 161.902179 62.905723 
L 162.227158 60.860164 
L 162.552138 60.541063 
L 162.877117 60.860164 
L 163.202097 62.548555 
L 163.527076 62.54159 
L 164.502015 67.71477 
L 165.476953 67.71477 
L 165.801933 68.07185 
L 166.126912 67.71477 
L 166.451892 68.07185 
L 166.776871 67.71477 
L 167.101851 68.07185 
L 167.42683 67.71477 
L 167.75181 62.256798 
L 168.07679 67.71477 
L 168.401769 68.07185 
L 168.726749 67.71477 
L 169.376708 67.71477 
L 169.701687 63.028939 
L 170.026667 67.71477 
L 170.676626 67.71477 
L 171.001605 66.999902 
L 171.326585 67.71477 
L 171.976544 67.71477 
L 172.301523 68.07185 
L 172.626503 62.137549 
L 172.951482 67.71477 
L 173.276462 67.71477 
L 173.601441 68.07185 
L 173.926421 67.71477 
L 174.2514 67.71477 
L 174.57638 66.999902 
L 174.90136 67.71477 
L 175.551319 67.71477 
L 175.876298 63.643 
L 176.201278 62.196013 
L 176.526257 67.71477 
L 180.101032 67.71477 
L 180.426011 68.07185 
L 180.750991 67.71477 
L 181.075971 67.71477 
L 181.40095 63.028939 
L 181.72593 67.756044 
L 182.050909 67.71477 
L 182.375889 62.137549 
L 182.700868 67.71477 
L 183.025848 61.753048 
L 183.350827 67.71477 
L 185.300704 67.71477 
L 185.625684 68.07185 
L 185.950663 67.71477 
L 186.275643 63.643 
L 186.600622 62.137549 
L 186.925602 67.71477 
L 188.875479 67.71477 
L 189.200459 63.643 
L 189.525438 67.71477 
L 191.475315 67.71477 
L 191.800295 61.808209 
L 192.125274 67.71477 
L 192.450254 62.196013 
L 192.775233 67.71477 
L 193.750172 67.71477 
L 194.075152 67.214393 
L 194.400131 67.71477 
L 196.350008 67.71477 
L 196.674988 63.643 
L 196.999967 67.71477 
L 197.974906 67.71477 
L 198.299885 63.782162 
L 198.624865 61.808209 
L 198.949844 67.71477 
L 199.274824 67.756044 
L 199.599803 63.782162 
L 199.924783 67.71477 
L 200.249762 67.71477 
L 200.574742 62.196013 
L 200.899722 67.71477 
L 201.224701 63.643 
L 201.549681 67.71477 
L 201.87466 67.71477 
L 202.19964 63.643 
L 202.524619 67.71477 
L 203.499558 67.71477 
L 203.824537 68.203412 
L 204.149517 69.864948 
L 204.474496 66.253103 
L 204.799476 70.724035 
L 205.124455 71.465443 
L 205.449435 66.933931 
L 205.774414 65.968195 
L 206.099394 71.426808 
L 206.424373 65.783524 
L 206.749353 65.724077 
L 207.399312 72.005149 
L 207.724292 70.234067 
L 208.049271 65.134893 
L 208.374251 72.065269 
L 208.69923 67.71477 
L 209.02421 69.062098 
L 209.349189 69.117137 
L 209.674169 70.734607 
L 209.999148 74.80151 
L 210.649107 62.552684 
L 211.299066 58.748048 
L 211.624046 62.986574 
L 211.949025 63.292783 
L 212.274005 62.783931 
L 212.598984 62.764533 
L 212.923964 63.622038 
L 213.248943 63.292783 
L 213.573923 63.504873 
L 213.898903 63.292783 
L 214.223882 63.622038 
L 214.548862 63.395239 
L 215.84878 63.395239 
L 216.173759 62.667137 
L 216.498739 63.395239 
L 216.823718 62.764533 
L 217.473677 62.667137 
L 217.798657 63.395239 
L 218.123636 63.504873 
L 218.448616 62.866388 
L 218.773595 62.71167 
L 223.323309 62.683725 
L 223.973268 62.775667 
L 224.623227 62.667137 
L 224.948206 62.830216 
L 225.273186 62.176531 
L 225.598165 62.360727 
L 225.923145 62.19794 
L 226.248124 62.683725 
L 226.573104 62.683725 
L 226.898084 63.063728 
L 227.223063 62.12094 
L 227.548043 62.105127 
L 227.873022 58.875276 
L 228.198002 71.674229 
L 228.522981 68.324703 
L 228.847961 68.324703 
L 229.17294 66.798879 
L 229.49792 60.732282 
L 229.822899 58.04261 
L 230.147879 61.861185 
L 230.472858 57.337629 
L 230.797838 67.397813 
L 231.122817 57.215739 
L 231.447797 57.317847 
L 231.772776 54.545035 
L 232.097756 57.252991 
L 232.422735 57.293073 
L 232.747715 58.299615 
L 233.072695 57.298767 
L 233.397674 61.861185 
L 233.722654 57.033816 
L 234.047633 57.014399 
L 234.372613 57.272671 
L 234.697592 58.3852 
L 235.022572 58.086907 
L 235.347551 53.780457 
L 235.672531 57.317847 
L 235.99751 56.99568 
L 236.32249 63.009903 
L 236.647469 57.471994 
L 236.972449 62.985518 
L 237.297428 56.765219 
L 237.622408 58.888721 
L 237.947387 59.936362 
L 238.272367 62.360101 
L 238.597346 66.543946 
L 238.922326 61.861185 
L 239.247305 61.48345 
L 239.572285 66.147296 
L 239.897265 58.702007 
L 240.222244 60.111031 
L 240.547224 69.115627 
L 240.872203 59.208768 
L 241.197183 56.043669 
L 241.522162 60.3945 
L 241.847142 60.186359 
L 242.172121 58.441398 
L 242.497101 58.776816 
L 243.14706 57.766625 
L 243.472039 57.749688 
L 243.797019 65.043646 
L 244.121998 56.537064 
L 244.446978 58.776816 
L 244.771957 58.776816 
L 245.096937 62.8307 
L 245.421916 61.946284 
L 245.746896 64.920676 
L 246.071876 65.076463 
L 246.396855 55.843229 
L 246.721835 55.609371 
L 247.046814 55.93251 
L 247.371794 55.77357 
L 247.696773 55.396596 
L 248.021753 59.670689 
L 248.346732 55.159641 
L 248.671712 56.227626 
L 248.996691 58.625312 
L 249.321671 55.77357 
L 249.64665 55.77357 
L 249.97163 57.502456 
L 250.296609 60.670581 
L 250.621589 55.615123 
L 250.946568 58.088202 
L 251.271548 55.93251 
L 251.596527 55.77357 
L 251.921507 55.93251 
L 252.571466 60.326262 
L 252.896446 55.462169 
L 253.221425 59.935621 
L 253.546405 62.107698 
L 253.871384 58.112429 
L 254.196364 62.107698 
L 254.521343 57.055244 
L 254.846323 63.73027 
L 255.171302 62.387495 
L 255.821261 64.369245 
L 256.146241 68.19935 
L 256.47122 61.563095 
L 256.7962 57.851714 
L 257.121179 60.15119 
L 257.446159 63.884474 
L 257.771138 55.918403 
L 258.096118 60.298853 
L 258.421097 60.298853 
L 258.746077 55.615123 
L 259.071057 59.26401 
L 259.396036 60.849023 
L 259.721016 55.461935 
L 260.045995 61.773389 
L 260.370975 295.488 
L 260.695954 66.959684 
L 261.020934 64.945798 
L 261.670893 57.41427 
L 262.645831 60.926235 
L 262.970811 60.333355 
L 263.29579 60.298853 
L 263.945749 55.613461 
L 264.270729 54.119259 
L 264.595708 61.386671 
L 264.920688 64.640537 
L 265.245667 58.899904 
L 265.570647 56.592025 
L 265.895627 56.910422 
L 266.220606 57.011616 
L 266.545586 60.615305 
L 266.870565 54.755837 
L 267.195545 59.834606 
L 267.520524 60.726172 
L 267.845504 121.567145 
L 268.170483 61.698372 
L 268.495463 53.648384 
L 268.820442 56.740498 
L 269.470401 58.231642 
L 269.795381 62.107698 
L 270.12036 60.519262 
L 270.44534 60.519262 
L 270.770319 56.921973 
L 271.095299 55.416838 
L 271.420278 58.917644 
L 272.070238 62.905723 
L 272.395217 56.921973 
L 272.720197 57.94881 
L 273.045176 57.250474 
L 273.695135 57.046442 
L 274.345094 62.905723 
L 274.670074 61.714002 
L 274.995053 56.583421 
L 275.320033 62.905723 
L 275.645012 57.41427 
L 275.969992 57.500283 
L 276.94493 61.877967 
L 277.26991 54.612884 
L 277.594889 60.099079 
L 277.919869 60.973917 
L 278.244848 54.286798 
L 278.569828 56.446921 
L 278.894808 60.973917 
L 279.219787 57.41427 
L 279.869746 56.921973 
L 280.194726 62.446568 
L 280.519705 57.41427 
L 280.844685 59.572073 
L 281.169664 62.905723 
L 281.494644 62.736599 
L 281.819623 60.182278 
L 282.144603 59.723279 
L 282.469582 57.523086 
L 282.794562 62.446599 
L 283.119541 62.446599 
L 283.444521 55.171454 
L 283.7695 67.71477 
L 284.09448 55.085871 
L 284.419459 55.61046 
L 284.744439 61.791327 
L 285.069419 62.222296 
L 285.394398 61.281956 
L 285.719378 57.670327 
L 286.044357 62.531534 
L 286.369337 55.31438 
L 286.694316 66.850767 
L 287.019296 55.31438 
L 287.344275 56.864759 
L 287.669255 55.56498 
L 288.319214 55.770209 
L 288.644193 55.461935 
L 288.969173 67.71477 
L 289.294152 55.770209 
L 289.619132 67.71477 
L 289.944111 63.496282 
L 290.269091 62.207131 
L 290.59407 66.850767 
L 290.91905 67.71477 
L 291.244029 65.331018 
L 291.569009 55.770209 
L 291.893989 55.43175 
L 292.218968 67.71477 
L 292.543948 55.770209 
L 292.868927 66.850767 
L 293.193907 55.461935 
L 293.518886 66.850767 
L 293.843866 55.532441 
L 294.168845 67.71477 
L 294.493825 66.850767 
L 294.818804 63.245394 
L 295.143784 67.71477 
L 295.468763 66.850767 
L 295.793743 58.66681 
L 296.118722 66.850767 
L 296.443702 67.71477 
L 296.768681 55.770209 
L 297.093661 61.554216 
L 297.41864 63.823918 
L 297.74362 70.007009 
L 298.0686 58.66681 
L 298.393579 66.850767 
L 298.718559 67.71477 
L 299.043538 66.850767 
L 299.368518 67.71477 
L 301.968354 67.71477 
L 302.293333 58.66681 
L 302.618313 67.71477 
L 303.268272 67.71477 
L 303.593251 69.104886 
L 303.918231 67.71477 
L 304.24321 67.71477 
L 304.56819 67.298349 
L 304.89317 72.820905 
L 305.218149 66.059425 
L 305.543129 67.71477 
L 305.868108 67.71477 
L 306.193088 66.261048 
L 306.518067 67.71477 
L 307.168026 67.71477 
L 307.493006 68.997775 
L 307.817985 67.71477 
L 308.142965 58.66681 
L 308.467944 66.850767 
L 308.792924 66.850767 
L 309.117903 66.059425 
L 309.442883 67.71477 
L 309.767862 67.71477 
L 310.092842 67.883686 
L 310.417821 66.850767 
L 310.742801 67.71477 
L 311.39276 67.71477 
L 311.71774 58.66681 
L 312.042719 67.71477 
L 312.367699 63.782162 
L 312.692678 67.71477 
L 313.342637 67.71477 
L 313.667617 58.66681 
L 313.992596 67.71477 
L 315.617494 67.71477 
L 315.942473 66.850767 
L 316.267453 67.71477 
L 316.917412 67.71477 
L 317.242391 63.286023 
L 317.567371 68.523485 
L 317.892351 67.71477 
L 319.192269 67.71477 
L 319.517248 66.850767 
L 319.842228 67.71477 
L 323.417002 67.71477 
L 323.741982 66.850767 
L 324.066962 66.850767 
L 324.391941 67.71477 
L 326.016839 67.71477 
L 326.341818 65.331018 
L 326.666798 67.71477 
L 327.316757 67.71477 
L 327.641736 66.850767 
L 327.966716 67.71477 
L 329.916593 67.71477 
L 330.241572 63.782162 
L 330.566552 75.015765 
L 330.891532 67.71477 
L 331.86647 67.71477 
L 332.19145 66.850767 
L 332.516429 67.71477 
L 333.816347 67.71477 
L 334.141327 66.850767 
L 334.466306 67.71477 
L 335.116265 67.71477 
L 335.441245 66.850767 
L 335.766224 67.71477 
L 336.091204 66.759635 
L 336.416183 66.850767 
L 336.741163 67.71477 
L 338.041081 67.71477 
L 338.366061 66.850767 
L 338.69104 67.71477 
L 339.01602 67.71477 
L 339.340999 64.030241 
L 339.665979 66.850767 
L 339.990958 67.71477 
L 344.865651 67.71477 
L 345.190631 66.850767 
L 345.51561 67.71477 
L 346.490549 67.71477 
L 346.815528 66.850767 
L 347.140508 66.534739 
L 347.465487 67.71477 
L 348.440426 67.71477 
L 348.765405 58.66681 
L 349.090385 67.71477 
L 351.690221 67.71477 
L 352.015201 63.782162 
L 352.34018 67.71477 
L 362.089566 67.71477 
L 362.414545 66.850767 
L 362.739525 67.71477 
L 363.714464 67.71477 
L 364.039443 66.298534 
L 364.364423 67.71477 
L 364.689402 63.782162 
L 365.014382 67.71477 
L 368.589156 67.71477 
L 368.914136 63.782162 
L 369.239115 67.71477 
L 374.438788 67.71477 
L 374.763767 66.850767 
L 375.088747 67.71477 
L 382.888256 67.71477 
L 383.213235 63.782162 
L 383.538215 67.71477 
L 384.513153 67.71477 
L 384.838133 63.782162 
L 385.163112 67.71477 
L 390.687764 67.71477 
L 391.012744 66.850767 
L 391.337723 67.71477 
L 391.662703 67.71477 
L 391.987682 66.850767 
L 392.312662 67.71477 
L 392.962621 67.71477 
L 393.2876 55.770209 
L 393.61258 67.71477 
L 397.187355 67.71477 
L 397.512334 66.850767 
L 397.837314 67.71477 
L 398.487273 67.71477 
L 398.487273 67.71477 
" clip-path="url(#pf8c7e8e83e)" style="fill: none; stroke: #1f77b4; stroke-width: 1.5; stroke-linecap: square"/>
   </g>
   <g id="patch_3">
    <path d="M 57.6 307.584 
L 57.6 41.472 
" style="fill: none; stroke: #000000; stroke-width: 0.8; stroke-linejoin: miter; stroke-linecap: square"/>
   </g>
   <g id="patch_4">
    <path d="M 414.72 307.584 
L 414.72 41.472 
" style="fill: none; stroke: #000000; stroke-width: 0.8; stroke-linejoin: miter; stroke-linecap: square"/>
   </g>
   <g id="patch_5">
    <path d="M 57.6 307.584 
L 414.72 307.584 
" style="fill: none; stroke: #000000; stroke-width: 0.8; stroke-linejoin: miter; stroke-linecap: square"/>
   </g>
   <g id="patch_6">
    <path d="M 57.6 41.472 
L 414.72 41.472 
" style="fill: none; stroke: #000000; stroke-width: 0.8; stroke-linejoin: miter; stroke-linecap: square"/>
   </g>
  </g>
 </g>
 <defs>
  <clipPath id="pf8c7e8e83e">
   <rect x="57.6" y="41.472" width="357.12" height="266.112"/>
  </clipPath>
 </defs>
</svg>
