<?xml version="1.0" encoding="utf-8" standalone="no"?>
<!DOCTYPE svg PUBLIC "-//W3C//DTD SVG 1.1//EN"
  "http://www.w3.org/Graphics/SVG/1.1/DTD/svg11.dtd">
<svg xmlns:xlink="http://www.w3.org/1999/xlink" width="460.8pt" height="345.6pt" viewBox="0 0 460.8 345.6" xmlns="http://www.w3.org/2000/svg" version="1.1">
 <metadata>
  <rdf:RDF xmlns:dc="http://purl.org/dc/elements/1.1/" xmlns:cc="http://creativecommons.org/ns#" xmlns:rdf="http://www.w3.org/1999/02/22-rdf-syntax-ns#">
   <cc:Work>
    <dc:type rdf:resource="http://purl.org/dc/dcmitype/StillImage"/>
    <dc:date>2024-04-23T16:10:18.742848</dc:date>
    <dc:format>image/svg+xml</dc:format>
    <dc:creator>
     <cc:Agent>
      <dc:title>Matplotlib v3.7.2, https://matplotlib.org/</dc:title>
     </cc:Agent>
    </dc:creator>
   </cc:Work>
  </rdf:RDF>
 </metadata>
 <defs>
  <style type="text/css">*{stroke-linejoin: round; stroke-linecap: butt}</style>
 </defs>
 <g id="figure_1">
  <g id="patch_1">
   <path d="M 0 345.6 
L 460.8 345.6 
L 460.8 0 
L 0 0 
z
" style="fill: #ffffff"/>
  </g>
  <g id="axes_1">
   <g id="patch_2">
    <path d="M 57.6 307.584 
L 414.72 307.584 
L 414.72 41.472 
L 57.6 41.472 
z
" style="fill: #ffffff"/>
   </g>
   <g id="matplotlib.axis_1">
    <g id="xtick_1">
     <g id="line2d_1">
      <defs>
       <path id="mdc893744eb" d="M 0 0 
L 0 3.5 
" style="stroke: #000000; stroke-width: 0.8"/>
      </defs>
      <g>
       <use xlink:href="#mdc893744eb" x="73.832727" y="307.584" style="stroke: #000000; stroke-width: 0.8"/>
      </g>
     </g>
     <g id="text_1">
      <!-- 0 -->
      <g transform="translate(70.651477 322.182437) scale(0.1 -0.1)">
       <defs>
        <path id="DejaVuSans-30" d="M 2034 4250 
Q 1547 4250 1301 3770 
Q 1056 3291 1056 2328 
Q 1056 1369 1301 889 
Q 1547 409 2034 409 
Q 2525 409 2770 889 
Q 3016 1369 3016 2328 
Q 3016 3291 2770 3770 
Q 2525 4250 2034 4250 
z
M 2034 4750 
Q 2819 4750 3233 4129 
Q 3647 3509 3647 2328 
Q 3647 1150 3233 529 
Q 2819 -91 2034 -91 
Q 1250 -91 836 529 
Q 422 1150 422 2328 
Q 422 3509 836 4129 
Q 1250 4750 2034 4750 
z
" transform="scale(0.015625)"/>
       </defs>
       <use xlink:href="#DejaVuSans-30"/>
      </g>
     </g>
    </g>
    <g id="xtick_2">
     <g id="line2d_2">
      <g>
       <use xlink:href="#mdc893744eb" x="138.893758" y="307.584" style="stroke: #000000; stroke-width: 0.8"/>
      </g>
     </g>
     <g id="text_2">
      <!-- 100 -->
      <g transform="translate(129.350008 322.182437) scale(0.1 -0.1)">
       <defs>
        <path id="DejaVuSans-31" d="M 794 531 
L 1825 531 
L 1825 4091 
L 703 3866 
L 703 4441 
L 1819 4666 
L 2450 4666 
L 2450 531 
L 3481 531 
L 3481 0 
L 794 0 
L 794 531 
z
" transform="scale(0.015625)"/>
       </defs>
       <use xlink:href="#DejaVuSans-31"/>
       <use xlink:href="#DejaVuSans-30" x="63.623047"/>
       <use xlink:href="#DejaVuSans-30" x="127.246094"/>
      </g>
     </g>
    </g>
    <g id="xtick_3">
     <g id="line2d_3">
      <g>
       <use xlink:href="#mdc893744eb" x="203.95479" y="307.584" style="stroke: #000000; stroke-width: 0.8"/>
      </g>
     </g>
     <g id="text_3">
      <!-- 200 -->
      <g transform="translate(194.41104 322.182437) scale(0.1 -0.1)">
       <defs>
        <path id="DejaVuSans-32" d="M 1228 531 
L 3431 531 
L 3431 0 
L 469 0 
L 469 531 
Q 828 903 1448 1529 
Q 2069 2156 2228 2338 
Q 2531 2678 2651 2914 
Q 2772 3150 2772 3378 
Q 2772 3750 2511 3984 
Q 2250 4219 1831 4219 
Q 1534 4219 1204 4116 
Q 875 4013 500 3803 
L 500 4441 
Q 881 4594 1212 4672 
Q 1544 4750 1819 4750 
Q 2544 4750 2975 4387 
Q 3406 4025 3406 3419 
Q 3406 3131 3298 2873 
Q 3191 2616 2906 2266 
Q 2828 2175 2409 1742 
Q 1991 1309 1228 531 
z
" transform="scale(0.015625)"/>
       </defs>
       <use xlink:href="#DejaVuSans-32"/>
       <use xlink:href="#DejaVuSans-30" x="63.623047"/>
       <use xlink:href="#DejaVuSans-30" x="127.246094"/>
      </g>
     </g>
    </g>
    <g id="xtick_4">
     <g id="line2d_4">
      <g>
       <use xlink:href="#mdc893744eb" x="269.015821" y="307.584" style="stroke: #000000; stroke-width: 0.8"/>
      </g>
     </g>
     <g id="text_4">
      <!-- 300 -->
      <g transform="translate(259.472071 322.182437) scale(0.1 -0.1)">
       <defs>
        <path id="DejaVuSans-33" d="M 2597 2516 
Q 3050 2419 3304 2112 
Q 3559 1806 3559 1356 
Q 3559 666 3084 287 
Q 2609 -91 1734 -91 
Q 1441 -91 1130 -33 
Q 819 25 488 141 
L 488 750 
Q 750 597 1062 519 
Q 1375 441 1716 441 
Q 2309 441 2620 675 
Q 2931 909 2931 1356 
Q 2931 1769 2642 2001 
Q 2353 2234 1838 2234 
L 1294 2234 
L 1294 2753 
L 1863 2753 
Q 2328 2753 2575 2939 
Q 2822 3125 2822 3475 
Q 2822 3834 2567 4026 
Q 2313 4219 1838 4219 
Q 1578 4219 1281 4162 
Q 984 4106 628 3988 
L 628 4550 
Q 988 4650 1302 4700 
Q 1616 4750 1894 4750 
Q 2613 4750 3031 4423 
Q 3450 4097 3450 3541 
Q 3450 3153 3228 2886 
Q 3006 2619 2597 2516 
z
" transform="scale(0.015625)"/>
       </defs>
       <use xlink:href="#DejaVuSans-33"/>
       <use xlink:href="#DejaVuSans-30" x="63.623047"/>
       <use xlink:href="#DejaVuSans-30" x="127.246094"/>
      </g>
     </g>
    </g>
    <g id="xtick_5">
     <g id="line2d_5">
      <g>
       <use xlink:href="#mdc893744eb" x="334.076852" y="307.584" style="stroke: #000000; stroke-width: 0.8"/>
      </g>
     </g>
     <g id="text_5">
      <!-- 400 -->
      <g transform="translate(324.533102 322.182437) scale(0.1 -0.1)">
       <defs>
        <path id="DejaVuSans-34" d="M 2419 4116 
L 825 1625 
L 2419 1625 
L 2419 4116 
z
M 2253 4666 
L 3047 4666 
L 3047 1625 
L 3713 1625 
L 3713 1100 
L 3047 1100 
L 3047 0 
L 2419 0 
L 2419 1100 
L 313 1100 
L 313 1709 
L 2253 4666 
z
" transform="scale(0.015625)"/>
       </defs>
       <use xlink:href="#DejaVuSans-34"/>
       <use xlink:href="#DejaVuSans-30" x="63.623047"/>
       <use xlink:href="#DejaVuSans-30" x="127.246094"/>
      </g>
     </g>
    </g>
    <g id="xtick_6">
     <g id="line2d_6">
      <g>
       <use xlink:href="#mdc893744eb" x="399.137883" y="307.584" style="stroke: #000000; stroke-width: 0.8"/>
      </g>
     </g>
     <g id="text_6">
      <!-- 500 -->
      <g transform="translate(389.594133 322.182437) scale(0.1 -0.1)">
       <defs>
        <path id="DejaVuSans-35" d="M 691 4666 
L 3169 4666 
L 3169 4134 
L 1269 4134 
L 1269 2991 
Q 1406 3038 1543 3061 
Q 1681 3084 1819 3084 
Q 2600 3084 3056 2656 
Q 3513 2228 3513 1497 
Q 3513 744 3044 326 
Q 2575 -91 1722 -91 
Q 1428 -91 1123 -41 
Q 819 9 494 109 
L 494 744 
Q 775 591 1075 516 
Q 1375 441 1709 441 
Q 2250 441 2565 725 
Q 2881 1009 2881 1497 
Q 2881 1984 2565 2268 
Q 2250 2553 1709 2553 
Q 1456 2553 1204 2497 
Q 953 2441 691 2322 
L 691 4666 
z
" transform="scale(0.015625)"/>
       </defs>
       <use xlink:href="#DejaVuSans-35"/>
       <use xlink:href="#DejaVuSans-30" x="63.623047"/>
       <use xlink:href="#DejaVuSans-30" x="127.246094"/>
      </g>
     </g>
    </g>
   </g>
   <g id="matplotlib.axis_2">
    <g id="ytick_1">
     <g id="line2d_7">
      <defs>
       <path id="md5e1724907" d="M 0 0 
L -3.5 0 
" style="stroke: #000000; stroke-width: 0.8"/>
      </defs>
      <g>
       <use xlink:href="#md5e1724907" x="57.6" y="273.221265" style="stroke: #000000; stroke-width: 0.8"/>
      </g>
     </g>
     <g id="text_7">
      <!-- −25000 -->
      <g transform="translate(10.407812 277.020484) scale(0.1 -0.1)">
       <defs>
        <path id="DejaVuSans-2212" d="M 678 2272 
L 4684 2272 
L 4684 1741 
L 678 1741 
L 678 2272 
z
" transform="scale(0.015625)"/>
       </defs>
       <use xlink:href="#DejaVuSans-2212"/>
       <use xlink:href="#DejaVuSans-32" x="83.789062"/>
       <use xlink:href="#DejaVuSans-35" x="147.412109"/>
       <use xlink:href="#DejaVuSans-30" x="211.035156"/>
       <use xlink:href="#DejaVuSans-30" x="274.658203"/>
       <use xlink:href="#DejaVuSans-30" x="338.28125"/>
      </g>
     </g>
    </g>
    <g id="ytick_2">
     <g id="line2d_8">
      <g>
       <use xlink:href="#md5e1724907" x="57.6" y="229.443218" style="stroke: #000000; stroke-width: 0.8"/>
      </g>
     </g>
     <g id="text_8">
      <!-- −20000 -->
      <g transform="translate(10.407812 233.242437) scale(0.1 -0.1)">
       <use xlink:href="#DejaVuSans-2212"/>
       <use xlink:href="#DejaVuSans-32" x="83.789062"/>
       <use xlink:href="#DejaVuSans-30" x="147.412109"/>
       <use xlink:href="#DejaVuSans-30" x="211.035156"/>
       <use xlink:href="#DejaVuSans-30" x="274.658203"/>
       <use xlink:href="#DejaVuSans-30" x="338.28125"/>
      </g>
     </g>
    </g>
    <g id="ytick_3">
     <g id="line2d_9">
      <g>
       <use xlink:href="#md5e1724907" x="57.6" y="185.665172" style="stroke: #000000; stroke-width: 0.8"/>
      </g>
     </g>
     <g id="text_9">
      <!-- −15000 -->
      <g transform="translate(10.407812 189.464391) scale(0.1 -0.1)">
       <use xlink:href="#DejaVuSans-2212"/>
       <use xlink:href="#DejaVuSans-31" x="83.789062"/>
       <use xlink:href="#DejaVuSans-35" x="147.412109"/>
       <use xlink:href="#DejaVuSans-30" x="211.035156"/>
       <use xlink:href="#DejaVuSans-30" x="274.658203"/>
       <use xlink:href="#DejaVuSans-30" x="338.28125"/>
      </g>
     </g>
    </g>
    <g id="ytick_4">
     <g id="line2d_10">
      <g>
       <use xlink:href="#md5e1724907" x="57.6" y="141.887126" style="stroke: #000000; stroke-width: 0.8"/>
      </g>
     </g>
     <g id="text_10">
      <!-- −10000 -->
      <g transform="translate(10.407812 145.686344) scale(0.1 -0.1)">
       <use xlink:href="#DejaVuSans-2212"/>
       <use xlink:href="#DejaVuSans-31" x="83.789062"/>
       <use xlink:href="#DejaVuSans-30" x="147.412109"/>
       <use xlink:href="#DejaVuSans-30" x="211.035156"/>
       <use xlink:href="#DejaVuSans-30" x="274.658203"/>
       <use xlink:href="#DejaVuSans-30" x="338.28125"/>
      </g>
     </g>
    </g>
    <g id="ytick_5">
     <g id="line2d_11">
      <g>
       <use xlink:href="#md5e1724907" x="57.6" y="98.109079" style="stroke: #000000; stroke-width: 0.8"/>
      </g>
     </g>
     <g id="text_11">
      <!-- −5000 -->
      <g transform="translate(16.770313 101.908298) scale(0.1 -0.1)">
       <use xlink:href="#DejaVuSans-2212"/>
       <use xlink:href="#DejaVuSans-35" x="83.789062"/>
       <use xlink:href="#DejaVuSans-30" x="147.412109"/>
       <use xlink:href="#DejaVuSans-30" x="211.035156"/>
       <use xlink:href="#DejaVuSans-30" x="274.658203"/>
      </g>
     </g>
    </g>
    <g id="ytick_6">
     <g id="line2d_12">
      <g>
       <use xlink:href="#md5e1724907" x="57.6" y="54.331033" style="stroke: #000000; stroke-width: 0.8"/>
      </g>
     </g>
     <g id="text_12">
      <!-- 0 -->
      <g transform="translate(44.2375 58.130252) scale(0.1 -0.1)">
       <use xlink:href="#DejaVuSans-30"/>
      </g>
     </g>
    </g>
   </g>
   <g id="line2d_13">
    <path d="M 73.832727 54.036336 
L 74.483338 54.354293 
L 75.133948 53.895424 
L 75.784558 54.051724 
L 76.435169 54.745582 
L 77.085779 56.840389 
L 77.736389 64.382139 
L 78.386999 53.923969 
L 79.03761 53.883869 
L 79.68822 54.616102 
L 80.33883 54.881118 
L 80.989441 54.567628 
L 81.640051 54.978603 
L 82.290661 54.3878 
L 82.941272 54.289646 
L 84.893103 54.487477 
L 85.543713 54.204433 
L 86.194323 56.485108 
L 86.844934 54.430605 
L 87.495544 54.485415 
L 89.447375 54.204433 
L 90.097985 54.276458 
L 90.748595 54.668072 
L 91.399206 54.326792 
L 92.049816 53.828501 
L 92.700426 295.488 
L 93.351037 53.912895 
L 94.001647 54.17845 
L 94.652257 53.895836 
L 95.302868 53.899025 
L 95.953478 56.318666 
L 96.604088 53.840831 
L 97.254698 53.600975 
L 97.905309 53.834775 
L 98.555919 53.923969 
L 99.206529 54.757382 
L 99.85714 53.89121 
L 100.50775 54.757382 
L 101.808971 54.861884 
L 103.110191 54.861884 
L 103.760802 53.980705 
L 104.411412 54.213705 
L 105.062022 54.212143 
L 105.712633 53.892791 
L 106.363243 53.923969 
L 107.013853 54.814073 
L 107.664463 54.832937 
L 108.965684 53.651063 
L 109.616294 54.243117 
L 110.266905 53.892791 
L 110.917515 54.129124 
L 111.568125 53.85573 
L 112.218736 54.421358 
L 112.869346 54.250382 
L 113.519956 54.245082 
L 114.170567 54.08197 
L 114.821177 54.237576 
L 115.471787 54.116843 
L 116.122398 54.329035 
L 117.423618 54.245082 
L 131.737045 54.329035 
L 132.387655 54.070741 
L 134.339486 54.329035 
L 134.990097 76.978059 
L 135.640707 54.307989 
L 136.291317 54.614667 
L 136.941927 53.928725 
L 137.592538 54.826627 
L 138.243148 54.296152 
L 138.893758 54.41595 
L 139.544369 54.883131 
L 140.194979 56.890195 
L 140.845589 54.954243 
L 141.4962 54.500764 
L 142.79742 54.535104 
L 143.448031 57.212349 
L 144.098641 54.742753 
L 144.749251 53.596105 
L 146.701082 54.953201 
L 147.351692 54.205316 
L 148.002303 54.531675 
L 148.652913 53.948939 
L 149.303523 54.544145 
L 149.954134 54.373934 
L 150.604744 54.372978 
L 151.255354 115.91038 
L 151.905965 62.408317 
L 152.556575 62.355263 
L 153.207185 62.467629 
L 153.857796 54.209239 
L 155.159016 55.522747 
L 155.809627 61.320086 
L 156.460237 55.522747 
L 157.110847 61.320086 
L 157.761457 54.581166 
L 158.412068 54.614124 
L 159.062678 54.527442 
L 159.713288 54.564692 
L 160.363899 54.216585 
L 161.014509 54.614124 
L 162.31573 54.533585 
L 162.96634 54.581166 
L 163.61695 59.685086 
L 164.267561 61.320086 
L 164.918171 81.276455 
L 165.568781 96.623838 
L 166.219392 54.581166 
L 166.870002 54.552164 
L 167.520612 54.273792 
L 168.171222 141.689281 
L 168.821833 61.635049 
L 169.472443 54.260252 
L 170.123053 81.417651 
L 170.773664 59.878517 
L 171.424274 81.417651 
L 172.074884 61.635049 
L 172.725495 54.161582 
L 173.376105 61.635049 
L 174.026715 53.580894 
L 174.677326 53.942177 
L 175.327936 54.083582 
L 175.978546 81.417651 
L 176.629156 54.28142 
L 177.279767 57.4012 
L 177.930377 141.689281 
L 178.580987 54.273792 
L 179.231598 63.776601 
L 179.882208 63.995537 
L 180.532818 67.213658 
L 181.183429 84.876839 
L 181.834039 84.813948 
L 183.13526 84.876839 
L 183.78587 84.876839 
L 184.43648 139.344303 
L 185.087091 105.217843 
L 185.737701 55.366481 
L 186.388311 54.701507 
L 187.038921 87.112503 
L 187.689532 55.019119 
L 188.340142 57.261402 
L 188.990752 56.761498 
L 189.641363 55.15797 
L 190.291973 54.51053 
L 190.942583 54.649633 
L 191.593194 55.721784 
L 192.243804 55.312053 
L 192.894414 54.521293 
L 193.545025 57.806021 
L 194.195635 54.843473 
L 194.846245 54.733736 
L 195.496856 54.353038 
L 196.798076 54.353038 
L 197.448686 54.013458 
L 198.099297 54.440638 
L 198.749907 57.105166 
L 199.400517 54.348335 
L 201.352348 54.38652 
L 202.002959 57.105166 
L 202.653569 54.348335 
L 203.95479 54.353038 
L 204.6054 53.651882 
L 205.25601 54.353038 
L 206.557231 54.24734 
L 207.207841 53.837491 
L 207.858451 54.24734 
L 208.509062 54.24734 
L 209.159672 53.781904 
L 209.810282 54.24734 
L 210.460893 53.781904 
L 211.111503 54.291995 
L 213.713944 54.189989 
L 215.015165 54.214366 
L 215.665775 54.24734 
L 216.316385 54.809163 
L 216.966996 54.189989 
L 218.268216 54.189989 
L 218.918827 53.823375 
L 219.569437 54.24734 
L 220.870658 54.215817 
L 222.171878 54.189989 
L 222.822489 54.462856 
L 223.473099 54.226512 
L 225.42493 54.24734 
L 226.07554 53.969357 
L 226.72615 54.189989 
L 228.027371 54.189989 
L 228.677981 53.839658 
L 230.629812 54.24734 
L 231.931033 53.630351 
L 232.581643 53.797264 
L 233.882864 54.545963 
L 235.834695 54.168416 
L 237.135915 54.254244 
L 237.786526 55.209364 
L 238.437136 55.919604 
L 239.087746 54.814104 
L 239.738357 54.935961 
L 240.388967 54.199362 
L 241.039577 55.170883 
L 241.690188 53.898348 
L 242.340798 54.2145 
L 243.642019 54.150759 
L 244.292629 53.568 
L 245.59385 54.077879 
L 248.196291 54.077879 
L 248.846901 54.327928 
L 249.497511 54.150759 
L 250.148122 54.150759 
L 250.798732 53.772193 
L 251.449342 54.24734 
L 252.099953 54.189989 
L 252.750563 54.24734 
L 253.401173 53.981559 
L 254.051784 54.150759 
L 255.353004 53.612215 
L 256.003615 54.193099 
L 256.654225 54.150759 
L 257.304835 54.24734 
L 257.955445 53.869735 
L 258.606056 53.869735 
L 259.256666 54.24734 
L 262.509718 53.826482 
L 264.461549 54.243117 
L 265.112159 54.103475 
L 266.413379 54.111287 
L 267.06399 54.402558 
L 267.7146 53.568746 
L 268.36521 53.623498 
L 269.015821 54.806898 
L 270.967652 54.806898 
L 271.618262 54.176832 
L 272.268872 54.025359 
L 272.919483 54.189989 
L 274.871314 54.150759 
L 276.172534 54.150759 
L 276.823144 53.779915 
L 277.473755 54.150759 
L 278.124365 53.718298 
L 278.774975 53.828048 
L 279.425586 53.717962 
L 280.726806 53.828048 
L 282.678637 53.710778 
L 283.979858 53.799358 
L 289.18474 53.761743 
L 289.835351 54.009944 
L 290.485961 53.763779 
L 291.136571 53.718298 
L 291.787182 54.120174 
L 293.088402 53.736345 
L 295.690844 53.710778 
L 296.341454 53.873469 
L 296.992064 53.904323 
L 297.642674 54.380301 
L 303.498167 54.345405 
L 304.148778 54.871806 
L 304.799388 54.341269 
L 307.401829 54.345405 
L 310.00427 54.341269 
L 310.654881 53.90673 
L 311.305491 54.341269 
L 312.606712 54.380301 
L 313.257322 53.974105 
L 313.907932 54.307989 
L 318.462204 54.213705 
L 319.112815 53.962918 
L 319.763425 54.380301 
L 323.016477 54.380301 
L 323.667087 53.903905 
L 324.317697 54.380301 
L 328.871969 54.380301 
L 329.52258 54.243117 
L 334.076852 54.243117 
L 334.727462 54.411183 
L 336.028683 54.345405 
L 337.980514 54.243117 
L 338.631124 54.341269 
L 339.281734 54.243117 
L 341.884176 54.276458 
L 346.438448 54.276458 
L 347.089058 53.879082 
L 347.739668 57.627674 
L 348.390279 54.328908 
L 349.040889 54.243117 
L 349.691499 62.699989 
L 350.34211 56.968714 
L 350.99272 67.449118 
L 351.64333 54.276458 
L 355.546992 54.27818 
L 356.197602 54.668072 
L 356.848213 54.27818 
L 358.800044 54.27818 
L 359.450654 53.861722 
L 361.402485 53.915363 
L 364.004926 53.915363 
L 364.655537 54.244065 
L 365.306147 54.24734 
L 365.956757 53.930228 
L 370.511029 53.924969 
L 372.46286 53.966487 
L 373.764081 53.896579 
L 374.414691 54.243117 
L 375.065302 53.861722 
L 375.715912 53.861722 
L 376.366522 54.24734 
L 377.667743 53.713558 
L 378.318353 53.861722 
L 378.968963 53.861722 
L 379.619574 54.24734 
L 380.920794 54.24734 
L 381.571405 53.930228 
L 384.173846 53.923969 
L 384.824456 54.24734 
L 386.125677 53.925482 
L 386.776287 53.923969 
L 387.426897 54.112706 
L 388.077508 53.923969 
L 391.98117 53.923969 
L 392.63178 55.114118 
L 393.28239 53.958504 
L 393.933001 77.892486 
L 394.583611 53.943498 
L 396.535442 54.235607 
L 397.186052 53.925482 
L 397.836662 54.243117 
L 398.487273 53.925482 
L 398.487273 53.925482 
" clip-path="url(#pa91e061505)" style="fill: none; stroke: #1f77b4; stroke-width: 1.5; stroke-linecap: square"/>
   </g>
   <g id="patch_3">
    <path d="M 57.6 307.584 
L 57.6 41.472 
" style="fill: none; stroke: #000000; stroke-width: 0.8; stroke-linejoin: miter; stroke-linecap: square"/>
   </g>
   <g id="patch_4">
    <path d="M 414.72 307.584 
L 414.72 41.472 
" style="fill: none; stroke: #000000; stroke-width: 0.8; stroke-linejoin: miter; stroke-linecap: square"/>
   </g>
   <g id="patch_5">
    <path d="M 57.6 307.584 
L 414.72 307.584 
" style="fill: none; stroke: #000000; stroke-width: 0.8; stroke-linejoin: miter; stroke-linecap: square"/>
   </g>
   <g id="patch_6">
    <path d="M 57.6 41.472 
L 414.72 41.472 
" style="fill: none; stroke: #000000; stroke-width: 0.8; stroke-linejoin: miter; stroke-linecap: square"/>
   </g>
  </g>
 </g>
 <defs>
  <clipPath id="pa91e061505">
   <rect x="57.6" y="41.472" width="357.12" height="266.112"/>
  </clipPath>
 </defs>
</svg>
