<?xml version="1.0" encoding="utf-8" standalone="no"?>
<!DOCTYPE svg PUBLIC "-//W3C//DTD SVG 1.1//EN"
  "http://www.w3.org/Graphics/SVG/1.1/DTD/svg11.dtd">
<svg xmlns:xlink="http://www.w3.org/1999/xlink" width="460.8pt" height="345.6pt" viewBox="0 0 460.8 345.6" xmlns="http://www.w3.org/2000/svg" version="1.1">
 <metadata>
  <rdf:RDF xmlns:dc="http://purl.org/dc/elements/1.1/" xmlns:cc="http://creativecommons.org/ns#" xmlns:rdf="http://www.w3.org/1999/02/22-rdf-syntax-ns#">
   <cc:Work>
    <dc:type rdf:resource="http://purl.org/dc/dcmitype/StillImage"/>
    <dc:date>2024-04-24T17:30:54.579869</dc:date>
    <dc:format>image/svg+xml</dc:format>
    <dc:creator>
     <cc:Agent>
      <dc:title>Matplotlib v3.7.2, https://matplotlib.org/</dc:title>
     </cc:Agent>
    </dc:creator>
   </cc:Work>
  </rdf:RDF>
 </metadata>
 <defs>
  <style type="text/css">*{stroke-linejoin: round; stroke-linecap: butt}</style>
 </defs>
 <g id="figure_1">
  <g id="patch_1">
   <path d="M 0 345.6 
L 460.8 345.6 
L 460.8 0 
L 0 0 
z
" style="fill: #ffffff"/>
  </g>
  <g id="axes_1">
   <g id="patch_2">
    <path d="M 57.6 307.584 
L 414.72 307.584 
L 414.72 41.472 
L 57.6 41.472 
z
" style="fill: #ffffff"/>
   </g>
   <g id="matplotlib.axis_1">
    <g id="xtick_1">
     <g id="line2d_1">
      <defs>
       <path id="mc371ee093d" d="M 0 0 
L 0 3.5 
" style="stroke: #000000; stroke-width: 0.8"/>
      </defs>
      <g>
       <use xlink:href="#mc371ee093d" x="73.832727" y="307.584" style="stroke: #000000; stroke-width: 0.8"/>
      </g>
     </g>
     <g id="text_1">
      <!-- 0 -->
      <g transform="translate(70.651477 322.182437) scale(0.1 -0.1)">
       <defs>
        <path id="DejaVuSans-30" d="M 2034 4250 
Q 1547 4250 1301 3770 
Q 1056 3291 1056 2328 
Q 1056 1369 1301 889 
Q 1547 409 2034 409 
Q 2525 409 2770 889 
Q 3016 1369 3016 2328 
Q 3016 3291 2770 3770 
Q 2525 4250 2034 4250 
z
M 2034 4750 
Q 2819 4750 3233 4129 
Q 3647 3509 3647 2328 
Q 3647 1150 3233 529 
Q 2819 -91 2034 -91 
Q 1250 -91 836 529 
Q 422 1150 422 2328 
Q 422 3509 836 4129 
Q 1250 4750 2034 4750 
z
" transform="scale(0.015625)"/>
       </defs>
       <use xlink:href="#DejaVuSans-30"/>
      </g>
     </g>
    </g>
    <g id="xtick_2">
     <g id="line2d_2">
      <g>
       <use xlink:href="#mc371ee093d" x="128.032151" y="307.584" style="stroke: #000000; stroke-width: 0.8"/>
      </g>
     </g>
     <g id="text_2">
      <!-- 100 -->
      <g transform="translate(118.488401 322.182437) scale(0.1 -0.1)">
       <defs>
        <path id="DejaVuSans-31" d="M 794 531 
L 1825 531 
L 1825 4091 
L 703 3866 
L 703 4441 
L 1819 4666 
L 2450 4666 
L 2450 531 
L 3481 531 
L 3481 0 
L 794 0 
L 794 531 
z
" transform="scale(0.015625)"/>
       </defs>
       <use xlink:href="#DejaVuSans-31"/>
       <use xlink:href="#DejaVuSans-30" x="63.623047"/>
       <use xlink:href="#DejaVuSans-30" x="127.246094"/>
      </g>
     </g>
    </g>
    <g id="xtick_3">
     <g id="line2d_3">
      <g>
       <use xlink:href="#mc371ee093d" x="182.231574" y="307.584" style="stroke: #000000; stroke-width: 0.8"/>
      </g>
     </g>
     <g id="text_3">
      <!-- 200 -->
      <g transform="translate(172.687824 322.182437) scale(0.1 -0.1)">
       <defs>
        <path id="DejaVuSans-32" d="M 1228 531 
L 3431 531 
L 3431 0 
L 469 0 
L 469 531 
Q 828 903 1448 1529 
Q 2069 2156 2228 2338 
Q 2531 2678 2651 2914 
Q 2772 3150 2772 3378 
Q 2772 3750 2511 3984 
Q 2250 4219 1831 4219 
Q 1534 4219 1204 4116 
Q 875 4013 500 3803 
L 500 4441 
Q 881 4594 1212 4672 
Q 1544 4750 1819 4750 
Q 2544 4750 2975 4387 
Q 3406 4025 3406 3419 
Q 3406 3131 3298 2873 
Q 3191 2616 2906 2266 
Q 2828 2175 2409 1742 
Q 1991 1309 1228 531 
z
" transform="scale(0.015625)"/>
       </defs>
       <use xlink:href="#DejaVuSans-32"/>
       <use xlink:href="#DejaVuSans-30" x="63.623047"/>
       <use xlink:href="#DejaVuSans-30" x="127.246094"/>
      </g>
     </g>
    </g>
    <g id="xtick_4">
     <g id="line2d_4">
      <g>
       <use xlink:href="#mc371ee093d" x="236.430997" y="307.584" style="stroke: #000000; stroke-width: 0.8"/>
      </g>
     </g>
     <g id="text_4">
      <!-- 300 -->
      <g transform="translate(226.887247 322.182437) scale(0.1 -0.1)">
       <defs>
        <path id="DejaVuSans-33" d="M 2597 2516 
Q 3050 2419 3304 2112 
Q 3559 1806 3559 1356 
Q 3559 666 3084 287 
Q 2609 -91 1734 -91 
Q 1441 -91 1130 -33 
Q 819 25 488 141 
L 488 750 
Q 750 597 1062 519 
Q 1375 441 1716 441 
Q 2309 441 2620 675 
Q 2931 909 2931 1356 
Q 2931 1769 2642 2001 
Q 2353 2234 1838 2234 
L 1294 2234 
L 1294 2753 
L 1863 2753 
Q 2328 2753 2575 2939 
Q 2822 3125 2822 3475 
Q 2822 3834 2567 4026 
Q 2313 4219 1838 4219 
Q 1578 4219 1281 4162 
Q 984 4106 628 3988 
L 628 4550 
Q 988 4650 1302 4700 
Q 1616 4750 1894 4750 
Q 2613 4750 3031 4423 
Q 3450 4097 3450 3541 
Q 3450 3153 3228 2886 
Q 3006 2619 2597 2516 
z
" transform="scale(0.015625)"/>
       </defs>
       <use xlink:href="#DejaVuSans-33"/>
       <use xlink:href="#DejaVuSans-30" x="63.623047"/>
       <use xlink:href="#DejaVuSans-30" x="127.246094"/>
      </g>
     </g>
    </g>
    <g id="xtick_5">
     <g id="line2d_5">
      <g>
       <use xlink:href="#mc371ee093d" x="290.63042" y="307.584" style="stroke: #000000; stroke-width: 0.8"/>
      </g>
     </g>
     <g id="text_5">
      <!-- 400 -->
      <g transform="translate(281.08667 322.182437) scale(0.1 -0.1)">
       <defs>
        <path id="DejaVuSans-34" d="M 2419 4116 
L 825 1625 
L 2419 1625 
L 2419 4116 
z
M 2253 4666 
L 3047 4666 
L 3047 1625 
L 3713 1625 
L 3713 1100 
L 3047 1100 
L 3047 0 
L 2419 0 
L 2419 1100 
L 313 1100 
L 313 1709 
L 2253 4666 
z
" transform="scale(0.015625)"/>
       </defs>
       <use xlink:href="#DejaVuSans-34"/>
       <use xlink:href="#DejaVuSans-30" x="63.623047"/>
       <use xlink:href="#DejaVuSans-30" x="127.246094"/>
      </g>
     </g>
    </g>
    <g id="xtick_6">
     <g id="line2d_6">
      <g>
       <use xlink:href="#mc371ee093d" x="344.829844" y="307.584" style="stroke: #000000; stroke-width: 0.8"/>
      </g>
     </g>
     <g id="text_6">
      <!-- 500 -->
      <g transform="translate(335.286094 322.182437) scale(0.1 -0.1)">
       <defs>
        <path id="DejaVuSans-35" d="M 691 4666 
L 3169 4666 
L 3169 4134 
L 1269 4134 
L 1269 2991 
Q 1406 3038 1543 3061 
Q 1681 3084 1819 3084 
Q 2600 3084 3056 2656 
Q 3513 2228 3513 1497 
Q 3513 744 3044 326 
Q 2575 -91 1722 -91 
Q 1428 -91 1123 -41 
Q 819 9 494 109 
L 494 744 
Q 775 591 1075 516 
Q 1375 441 1709 441 
Q 2250 441 2565 725 
Q 2881 1009 2881 1497 
Q 2881 1984 2565 2268 
Q 2250 2553 1709 2553 
Q 1456 2553 1204 2497 
Q 953 2441 691 2322 
L 691 4666 
z
" transform="scale(0.015625)"/>
       </defs>
       <use xlink:href="#DejaVuSans-35"/>
       <use xlink:href="#DejaVuSans-30" x="63.623047"/>
       <use xlink:href="#DejaVuSans-30" x="127.246094"/>
      </g>
     </g>
    </g>
    <g id="xtick_7">
     <g id="line2d_7">
      <g>
       <use xlink:href="#mc371ee093d" x="399.029267" y="307.584" style="stroke: #000000; stroke-width: 0.8"/>
      </g>
     </g>
     <g id="text_7">
      <!-- 600 -->
      <g transform="translate(389.485517 322.182437) scale(0.1 -0.1)">
       <defs>
        <path id="DejaVuSans-36" d="M 2113 2584 
Q 1688 2584 1439 2293 
Q 1191 2003 1191 1497 
Q 1191 994 1439 701 
Q 1688 409 2113 409 
Q 2538 409 2786 701 
Q 3034 994 3034 1497 
Q 3034 2003 2786 2293 
Q 2538 2584 2113 2584 
z
M 3366 4563 
L 3366 3988 
Q 3128 4100 2886 4159 
Q 2644 4219 2406 4219 
Q 1781 4219 1451 3797 
Q 1122 3375 1075 2522 
Q 1259 2794 1537 2939 
Q 1816 3084 2150 3084 
Q 2853 3084 3261 2657 
Q 3669 2231 3669 1497 
Q 3669 778 3244 343 
Q 2819 -91 2113 -91 
Q 1303 -91 875 529 
Q 447 1150 447 2328 
Q 447 3434 972 4092 
Q 1497 4750 2381 4750 
Q 2619 4750 2861 4703 
Q 3103 4656 3366 4563 
z
" transform="scale(0.015625)"/>
       </defs>
       <use xlink:href="#DejaVuSans-36"/>
       <use xlink:href="#DejaVuSans-30" x="63.623047"/>
       <use xlink:href="#DejaVuSans-30" x="127.246094"/>
      </g>
     </g>
    </g>
   </g>
   <g id="matplotlib.axis_2">
    <g id="ytick_1">
     <g id="line2d_8">
      <defs>
       <path id="m291d7ff7a9" d="M 0 0 
L -3.5 0 
" style="stroke: #000000; stroke-width: 0.8"/>
      </defs>
      <g>
       <use xlink:href="#m291d7ff7a9" x="57.6" y="299.824257" style="stroke: #000000; stroke-width: 0.8"/>
      </g>
     </g>
     <g id="text_8">
      <!-- 0 -->
      <g transform="translate(44.2375 303.623476) scale(0.1 -0.1)">
       <use xlink:href="#DejaVuSans-30"/>
      </g>
     </g>
    </g>
    <g id="ytick_2">
     <g id="line2d_9">
      <g>
       <use xlink:href="#m291d7ff7a9" x="57.6" y="263.089456" style="stroke: #000000; stroke-width: 0.8"/>
      </g>
     </g>
     <g id="text_9">
      <!-- 1000 -->
      <g transform="translate(25.15 266.888675) scale(0.1 -0.1)">
       <use xlink:href="#DejaVuSans-31"/>
       <use xlink:href="#DejaVuSans-30" x="63.623047"/>
       <use xlink:href="#DejaVuSans-30" x="127.246094"/>
       <use xlink:href="#DejaVuSans-30" x="190.869141"/>
      </g>
     </g>
    </g>
    <g id="ytick_3">
     <g id="line2d_10">
      <g>
       <use xlink:href="#m291d7ff7a9" x="57.6" y="226.354654" style="stroke: #000000; stroke-width: 0.8"/>
      </g>
     </g>
     <g id="text_10">
      <!-- 2000 -->
      <g transform="translate(25.15 230.153873) scale(0.1 -0.1)">
       <use xlink:href="#DejaVuSans-32"/>
       <use xlink:href="#DejaVuSans-30" x="63.623047"/>
       <use xlink:href="#DejaVuSans-30" x="127.246094"/>
       <use xlink:href="#DejaVuSans-30" x="190.869141"/>
      </g>
     </g>
    </g>
    <g id="ytick_4">
     <g id="line2d_11">
      <g>
       <use xlink:href="#m291d7ff7a9" x="57.6" y="189.619853" style="stroke: #000000; stroke-width: 0.8"/>
      </g>
     </g>
     <g id="text_11">
      <!-- 3000 -->
      <g transform="translate(25.15 193.419071) scale(0.1 -0.1)">
       <use xlink:href="#DejaVuSans-33"/>
       <use xlink:href="#DejaVuSans-30" x="63.623047"/>
       <use xlink:href="#DejaVuSans-30" x="127.246094"/>
       <use xlink:href="#DejaVuSans-30" x="190.869141"/>
      </g>
     </g>
    </g>
    <g id="ytick_5">
     <g id="line2d_12">
      <g>
       <use xlink:href="#m291d7ff7a9" x="57.6" y="152.885051" style="stroke: #000000; stroke-width: 0.8"/>
      </g>
     </g>
     <g id="text_12">
      <!-- 4000 -->
      <g transform="translate(25.15 156.68427) scale(0.1 -0.1)">
       <use xlink:href="#DejaVuSans-34"/>
       <use xlink:href="#DejaVuSans-30" x="63.623047"/>
       <use xlink:href="#DejaVuSans-30" x="127.246094"/>
       <use xlink:href="#DejaVuSans-30" x="190.869141"/>
      </g>
     </g>
    </g>
    <g id="ytick_6">
     <g id="line2d_13">
      <g>
       <use xlink:href="#m291d7ff7a9" x="57.6" y="116.150249" style="stroke: #000000; stroke-width: 0.8"/>
      </g>
     </g>
     <g id="text_13">
      <!-- 5000 -->
      <g transform="translate(25.15 119.949468) scale(0.1 -0.1)">
       <use xlink:href="#DejaVuSans-35"/>
       <use xlink:href="#DejaVuSans-30" x="63.623047"/>
       <use xlink:href="#DejaVuSans-30" x="127.246094"/>
       <use xlink:href="#DejaVuSans-30" x="190.869141"/>
      </g>
     </g>
    </g>
    <g id="ytick_7">
     <g id="line2d_14">
      <g>
       <use xlink:href="#m291d7ff7a9" x="57.6" y="79.415448" style="stroke: #000000; stroke-width: 0.8"/>
      </g>
     </g>
     <g id="text_14">
      <!-- 6000 -->
      <g transform="translate(25.15 83.214667) scale(0.1 -0.1)">
       <use xlink:href="#DejaVuSans-36"/>
       <use xlink:href="#DejaVuSans-30" x="63.623047"/>
       <use xlink:href="#DejaVuSans-30" x="127.246094"/>
       <use xlink:href="#DejaVuSans-30" x="190.869141"/>
      </g>
     </g>
    </g>
    <g id="ytick_8">
     <g id="line2d_15">
      <g>
       <use xlink:href="#m291d7ff7a9" x="57.6" y="42.680646" style="stroke: #000000; stroke-width: 0.8"/>
      </g>
     </g>
     <g id="text_15">
      <!-- 7000 -->
      <g transform="translate(25.15 46.479865) scale(0.1 -0.1)">
       <defs>
        <path id="DejaVuSans-37" d="M 525 4666 
L 3525 4666 
L 3525 4397 
L 1831 0 
L 1172 0 
L 2766 4134 
L 525 4134 
L 525 4666 
z
" transform="scale(0.015625)"/>
       </defs>
       <use xlink:href="#DejaVuSans-37"/>
       <use xlink:href="#DejaVuSans-30" x="63.623047"/>
       <use xlink:href="#DejaVuSans-30" x="127.246094"/>
       <use xlink:href="#DejaVuSans-30" x="190.869141"/>
      </g>
     </g>
    </g>
   </g>
   <g id="line2d_16">
    <path d="M 73.832727 291.682903 
L 74.374722 284.540366 
L 74.916716 291.660575 
L 75.45871 291.695047 
L 76.000704 287.357806 
L 76.542698 291.172316 
L 77.084693 287.099277 
L 77.626687 291.969413 
L 78.168681 288.901432 
L 78.710675 291.660575 
L 79.794664 291.660575 
L 80.336658 291.302195 
L 80.878652 286.893505 
L 81.420647 284.179227 
L 81.962641 291.660575 
L 82.504635 291.660575 
L 83.046629 291.506691 
L 83.588623 291.964651 
L 84.130618 286.366038 
L 84.672612 289.314432 
L 85.214606 288.095055 
L 85.7566 291.660575 
L 86.298595 291.421238 
L 86.840589 292.934905 
L 87.382583 292.007551 
L 87.924577 287.126266 
L 88.466572 292.012426 
L 89.008566 286.913485 
L 89.55056 291.624465 
L 90.092554 291.169718 
L 90.634548 291.274614 
L 91.176543 291.040071 
L 92.260531 291.685514 
L 93.886514 291.685217 
L 94.428508 291.976644 
L 94.970502 287.709444 
L 95.512497 291.699423 
L 96.054491 292.145469 
L 96.596485 291.727972 
L 97.138479 287.292838 
L 97.680474 291.660575 
L 98.222468 291.660575 
L 98.764462 292.452783 
L 99.306456 292.012426 
L 99.84845 291.760848 
L 100.390445 291.664842 
L 100.932439 291.72593 
L 101.474433 291.660575 
L 102.558422 291.798665 
L 103.100416 291.700056 
L 103.64241 288.630273 
L 104.184404 291.577785 
L 104.726399 289.956648 
L 105.268393 292.472672 
L 105.810387 292.044715 
L 106.352381 292.289353 
L 106.894375 291.783165 
L 107.978364 291.764029 
L 108.520358 291.744768 
L 109.062352 292.103073 
L 109.604347 291.656058 
L 110.146341 291.695047 
L 110.688335 292.470301 
L 111.230329 292.71666 
L 111.772324 292.84092 
L 112.314318 286.85885 
L 112.856312 286.392034 
L 113.398306 292.018655 
L 113.940301 291.660575 
L 116.108277 291.695047 
L 116.650272 288.088307 
L 117.192266 291.660575 
L 117.73426 286.190428 
L 118.276254 291.817621 
L 118.818249 285.780591 
L 119.360243 287.208705 
L 119.902237 287.880502 
L 120.444231 292.012426 
L 120.986226 284.1018 
L 121.52822 291.918548 
L 122.070214 291.736699 
L 122.612208 291.810353 
L 123.154202 291.699423 
L 123.696197 291.723683 
L 124.238191 292.133688 
L 124.780185 291.660575 
L 125.322179 284.409322 
L 125.864174 286.868939 
L 126.406168 291.660575 
L 126.948162 292.300964 
L 127.490156 291.985289 
L 128.032151 293.374849 
L 128.574145 292.205144 
L 129.658133 292.653083 
L 130.200127 292.573368 
L 130.742122 292.266337 
L 131.284116 292.316758 
L 131.82611 289.542154 
L 132.368104 289.980196 
L 132.910099 291.546043 
L 133.452093 292.103279 
L 133.994087 292.282019 
L 134.536081 291.976405 
L 135.078076 292.581784 
L 135.62007 291.553775 
L 136.162064 292.60585 
L 136.704058 292.855632 
L 137.246053 292.615802 
L 137.788047 293.610258 
L 138.330041 293.50675 
L 138.872035 293.05749 
L 139.414029 291.523293 
L 139.956024 292.288447 
L 140.498018 293.911893 
L 141.040012 292.984461 
L 141.582006 293.256468 
L 142.124001 292.884631 
L 142.665995 293.302325 
L 143.207989 293.018345 
L 143.749983 293.272458 
L 144.291978 292.851414 
L 145.375966 293.001765 
L 145.91796 292.795779 
L 146.459954 293.1866 
L 147.001949 293.23578 
L 147.543943 293.001765 
L 148.085937 293.001765 
L 148.627931 293.250721 
L 149.169926 293.741433 
L 149.71192 293.475727 
L 150.253914 292.762515 
L 150.795908 292.56814 
L 151.879897 292.677486 
L 152.421891 292.829539 
L 152.963885 292.004701 
L 153.505879 292.413895 
L 154.047874 292.413895 
L 154.589868 293.394343 
L 155.131862 293.086952 
L 155.673856 292.050823 
L 156.215851 292.880498 
L 156.757845 292.690551 
L 157.299839 292.152301 
L 157.841833 292.067005 
L 158.383828 293.53522 
L 159.467816 292.132081 
L 160.00981 293.18514 
L 161.093799 293.235408 
L 161.635793 293.491317 
L 162.177787 293.230146 
L 162.719781 293.749119 
L 163.261776 293.20622 
L 163.80377 293.22158 
L 164.345764 292.846586 
L 164.887758 293.01928 
L 165.429753 293.986424 
L 165.971747 292.669851 
L 166.513741 293.223549 
L 167.055735 292.669851 
L 167.59773 292.608801 
L 168.681718 292.675586 
L 169.223712 293.270962 
L 169.765706 292.729448 
L 170.307701 292.740647 
L 170.849695 292.603305 
L 171.933683 292.685173 
L 173.017672 292.646685 
L 173.559666 292.745953 
L 174.10166 292.669851 
L 174.643655 292.735145 
L 175.185649 293.004103 
L 175.727643 292.675153 
L 176.269637 292.654752 
L 176.811632 293.274931 
L 177.353626 292.729448 
L 178.979608 292.675586 
L 179.521603 291.684318 
L 180.063597 293.010242 
L 180.605591 292.751064 
L 181.147585 293.179237 
L 181.68958 293.288935 
L 182.231574 292.95192 
L 182.773568 292.949817 
L 183.315562 291.934571 
L 183.857557 292.675153 
L 184.399551 292.118997 
L 184.941545 292.664353 
L 185.483539 292.042227 
L 186.025533 292.914288 
L 186.567528 292.495821 
L 187.109522 292.711178 
L 187.651516 291.959619 
L 188.19351 292.704693 
L 188.735505 292.616157 
L 189.277499 293.715325 
L 189.819493 293.775842 
L 190.361487 292.922507 
L 190.903482 292.680308 
L 191.98747 293.026554 
L 193.071458 293.705414 
L 193.613453 293.257017 
L 194.155447 293.372464 
L 194.697441 293.883067 
L 195.239435 292.281263 
L 195.78143 292.981831 
L 196.323424 292.909512 
L 196.865418 293.721383 
L 197.407412 293.293539 
L 197.949407 293.76473 
L 198.491401 292.808338 
L 199.033395 293.200209 
L 199.575389 294.288321 
L 200.117384 292.745953 
L 200.659378 292.464401 
L 201.201372 293.784262 
L 201.743366 292.822688 
L 202.28536 293.199478 
L 202.827355 292.751064 
L 203.911343 293.318921 
L 204.453337 292.796001 
L 204.995332 293.334527 
L 205.537326 293.260872 
L 206.07932 293.522899 
L 206.621314 292.793318 
L 207.163309 293.509021 
L 207.705303 292.368432 
L 208.247297 293.435895 
L 208.789291 292.152786 
L 209.331285 293.066169 
L 209.87328 293.070763 
L 210.415274 292.715146 
L 210.957268 293.185678 
L 212.041257 292.870702 
L 212.583251 293.658796 
L 213.125245 293.09659 
L 213.667239 292.760703 
L 214.209234 293.348209 
L 214.751228 293.700214 
L 215.835216 292.648566 
L 216.377211 293.393037 
L 216.919205 292.947871 
L 217.461199 293.90126 
L 218.003193 292.618986 
L 218.545187 293.022155 
L 219.087182 293.585032 
L 219.629176 293.133209 
L 221.797153 293.275856 
L 222.339147 294.282653 
L 222.881141 293.242598 
L 223.423136 293.304591 
L 223.96513 293.746505 
L 224.507124 293.340467 
L 225.049118 293.177387 
L 225.591112 292.765231 
L 226.133107 293.185244 
L 226.675101 293.239627 
L 228.301084 293.086734 
L 228.843078 294.239808 
L 229.927066 292.894561 
L 230.469061 293.354767 
L 231.011055 293.077781 
L 231.553049 293.247837 
L 232.095043 287.63627 
L 232.637037 291.035154 
L 233.179032 292.305838 
L 233.721026 292.052605 
L 234.26302 156.567807 
L 234.805014 293.721095 
L 235.347009 293.157383 
L 235.889003 289.850738 
L 236.430997 292.816693 
L 236.972991 293.198805 
L 237.514986 293.239627 
L 238.05698 282.63873 
L 238.598974 293.644297 
L 239.682963 293.016493 
L 240.224957 293.918953 
L 240.766951 293.998103 
L 241.308945 293.682396 
L 241.850939 294.14947 
L 242.392934 292.672269 
L 242.934928 288.623263 
L 243.476922 292.582552 
L 244.018916 53.568 
L 244.560911 293.853891 
L 245.102905 292.912967 
L 245.644899 292.698446 
L 246.186893 293.659676 
L 246.728888 289.02499 
L 247.270882 292.341516 
L 247.812876 292.992038 
L 248.35487 293.959947 
L 248.896864 293.189151 
L 249.438859 293.441635 
L 251.064841 293.139869 
L 251.606836 293.876526 
L 252.14883 293.562519 
L 252.690824 292.307006 
L 253.232818 293.086734 
L 253.774813 292.986391 
L 254.316807 293.133209 
L 254.858801 293.903897 
L 255.400795 292.939434 
L 255.942789 291.711509 
L 256.484784 292.608801 
L 257.026778 293.147125 
L 257.568772 293.525181 
L 258.110766 293.222031 
L 258.652761 292.676398 
L 259.194755 293.045107 
L 259.736749 292.982372 
L 260.278743 293.235496 
L 261.362732 293.358658 
L 262.44672 293.409486 
L 263.530709 293.106167 
L 264.072703 293.297622 
L 264.614697 293.256453 
L 265.156691 293.718928 
L 265.698686 293.395588 
L 266.24068 293.320979 
L 266.782674 293.590643 
L 267.866663 293.255794 
L 268.950651 293.301537 
L 269.492645 293.693895 
L 270.03464 293.350191 
L 271.118628 293.339292 
L 271.660622 293.652624 
L 272.202616 293.45496 
L 272.744611 293.086734 
L 273.286605 293.491049 
L 273.828599 293.525181 
L 274.370593 293.304591 
L 274.912588 292.437212 
L 275.454582 293.528284 
L 275.996576 293.313195 
L 276.53857 293.714497 
L 277.080565 292.719707 
L 277.622559 293.419771 
L 278.164553 293.221657 
L 279.248542 292.991815 
L 279.790536 292.278273 
L 280.33253 293.272558 
L 280.874524 293.7114 
L 281.416518 293.3376 
L 282.500507 293.590643 
L 283.042501 293.245113 
L 283.584495 293.645355 
L 284.12649 293.455928 
L 284.668484 293.77588 
L 285.210478 293.62205 
L 285.752472 293.678917 
L 286.294467 293.563074 
L 286.836461 293.652624 
L 287.378455 293.367044 
L 287.920449 294.024439 
L 288.462443 293.953036 
L 289.004438 293.074044 
L 289.546432 293.534885 
L 290.088426 293.491049 
L 290.63042 293.590643 
L 291.172415 293.015337 
L 291.714409 293.477905 
L 292.256403 293.558366 
L 292.798397 294.228788 
L 293.340392 293.491049 
L 293.882386 293.852379 
L 294.42438 293.7114 
L 295.508368 293.788686 
L 296.592357 291.990171 
L 297.134351 292.142515 
L 297.676345 294.196125 
L 298.21834 293.739665 
L 298.760334 293.682396 
L 299.302328 295.488 
L 299.844322 291.21595 
L 300.386317 293.455928 
L 300.928311 293.455928 
L 301.470305 292.929733 
L 302.012299 290.872763 
L 302.554294 293.739665 
L 303.096288 295.144055 
L 303.638282 293.62205 
L 304.180276 294.736703 
L 304.72227 293.815042 
L 305.264265 293.508489 
L 305.806259 295.351429 
L 306.348253 294.340645 
L 306.890247 295.135061 
L 307.432242 293.682396 
L 307.974236 293.558366 
L 308.51623 292.165354 
L 309.058224 293.558366 
L 309.600219 293.898602 
L 310.142213 294.515772 
L 310.684207 294.628173 
L 311.226201 293.607854 
L 311.768195 293.682396 
L 312.31019 293.370756 
L 312.852184 295.261193 
L 313.394178 293.755498 
L 313.936172 293.558366 
L 314.478167 293.178157 
L 315.020161 293.092192 
L 315.562155 293.350734 
L 316.104149 292.255845 
L 316.646144 293.163885 
L 317.188138 293.44839 
L 317.730132 293.469901 
L 318.272126 293.115236 
L 318.814121 293.682396 
L 319.356115 293.455928 
L 319.898109 293.902053 
L 320.440103 292.828336 
L 320.982097 293.44839 
L 321.524092 293.558366 
L 322.066086 294.27911 
L 322.60808 293.337696 
L 323.150074 293.133209 
L 323.692069 294.56834 
L 324.234063 293.422346 
L 324.776057 293.396103 
L 325.318051 294.568309 
L 325.860046 293.221657 
L 326.40204 293.62205 
L 326.944034 293.178157 
L 327.486028 293.261433 
L 328.570017 294.161939 
L 329.112011 293.678737 
L 329.654005 293.491049 
L 330.195999 294.953206 
L 330.737994 293.365653 
L 331.279988 293.3215 
L 331.821982 295.440975 
L 332.363976 295.457905 
L 333.447965 293.419667 
L 333.989959 295.25566 
L 334.531953 293.417608 
L 335.073947 293.358895 
L 335.615942 293.453917 
L 336.157936 293.255571 
L 336.69993 293.311736 
L 337.241924 293.187408 
L 337.783919 293.755515 
L 338.325913 293.04252 
L 338.867907 293.284201 
L 339.409901 293.325686 
L 339.951896 293.013981 
L 340.49389 293.851712 
L 341.035884 293.328927 
L 341.577878 293.623758 
L 342.119873 293.380203 
L 342.661867 293.361651 
L 343.203861 293.755498 
L 343.745855 293.392377 
L 344.287849 293.290577 
L 344.829844 294.052407 
L 345.913832 292.866406 
L 346.455826 293.585011 
L 346.997821 293.269843 
L 347.539815 293.369869 
L 348.081809 293.133959 
L 348.623803 293.456177 
L 349.165798 293.236992 
L 349.707792 293.167856 
L 350.249786 293.512481 
L 350.79178 293.2144 
L 351.333774 293.27014 
L 351.875769 292.897279 
L 352.417763 293.360388 
L 352.959757 293.388428 
L 353.501751 293.069571 
L 354.58574 293.279691 
L 355.127734 292.997729 
L 355.669728 293.014337 
L 356.211723 293.345073 
L 357.837705 293.371603 
L 358.379699 293.046614 
L 358.921694 293.411888 
L 359.463688 293.151878 
L 360.547676 293.440907 
L 362.173659 293.195377 
L 362.715653 293.401459 
L 363.257648 293.3859 
L 363.799642 292.84664 
L 364.341636 293.400404 
L 364.88363 293.400673 
L 365.425625 293.531127 
L 365.967619 293.26649 
L 366.509613 291.892536 
L 367.051607 293.542455 
L 367.593601 293.203564 
L 368.135596 293.218169 
L 368.67759 293.085515 
L 369.761578 293.099513 
L 370.303573 293.677538 
L 370.845567 293.553991 
L 371.387561 293.696826 
L 371.929555 292.991047 
L 372.47155 293.46965 
L 373.013544 293.6831 
L 373.555538 293.7444 
L 374.097532 293.401244 
L 374.639526 293.369008 
L 375.181521 291.79416 
L 375.723515 293.600865 
L 376.265509 293.63018 
L 376.807503 293.457606 
L 377.349498 293.597799 
L 377.891492 293.488577 
L 378.433486 293.985299 
L 378.97548 293.366684 
L 379.517475 293.61241 
L 380.059469 123.222027 
L 380.601463 293.346254 
L 381.143457 293.435805 
L 381.685452 293.723194 
L 382.227446 290.956192 
L 382.76944 292.976976 
L 383.853428 293.75863 
L 384.395423 293.449379 
L 384.937417 293.617261 
L 385.479411 293.660054 
L 386.021405 292.837833 
L 386.5634 293.772175 
L 387.105394 292.051769 
L 387.647388 293.60201 
L 388.189382 293.436214 
L 388.731377 293.640084 
L 389.273371 293.639626 
L 389.815365 294.222172 
L 390.357359 293.870396 
L 391.441348 293.894628 
L 391.983342 293.337093 
L 393.06733 292.987239 
L 393.609325 293.6381 
L 394.151319 293.274209 
L 394.693313 293.700827 
L 395.235307 293.705107 
L 395.777302 293.303822 
L 396.86129 293.29915 
L 397.403284 293.017561 
L 397.945278 293.388945 
L 398.487273 292.820497 
L 398.487273 292.820497 
" clip-path="url(#pe9cc81132d)" style="fill: none; stroke: #1f77b4; stroke-width: 1.5; stroke-linecap: square"/>
   </g>
   <g id="patch_3">
    <path d="M 57.6 307.584 
L 57.6 41.472 
" style="fill: none; stroke: #000000; stroke-width: 0.8; stroke-linejoin: miter; stroke-linecap: square"/>
   </g>
   <g id="patch_4">
    <path d="M 414.72 307.584 
L 414.72 41.472 
" style="fill: none; stroke: #000000; stroke-width: 0.8; stroke-linejoin: miter; stroke-linecap: square"/>
   </g>
   <g id="patch_5">
    <path d="M 57.6 307.584 
L 414.72 307.584 
" style="fill: none; stroke: #000000; stroke-width: 0.8; stroke-linejoin: miter; stroke-linecap: square"/>
   </g>
   <g id="patch_6">
    <path d="M 57.6 41.472 
L 414.72 41.472 
" style="fill: none; stroke: #000000; stroke-width: 0.8; stroke-linejoin: miter; stroke-linecap: square"/>
   </g>
  </g>
 </g>
 <defs>
  <clipPath id="pe9cc81132d">
   <rect x="57.6" y="41.472" width="357.12" height="266.112"/>
  </clipPath>
 </defs>
</svg>
