<?xml version="1.0" encoding="utf-8" standalone="no"?>
<!DOCTYPE svg PUBLIC "-//W3C//DTD SVG 1.1//EN"
  "http://www.w3.org/Graphics/SVG/1.1/DTD/svg11.dtd">
<svg xmlns:xlink="http://www.w3.org/1999/xlink" width="460.8pt" height="345.6pt" viewBox="0 0 460.8 345.6" xmlns="http://www.w3.org/2000/svg" version="1.1">
 <metadata>
  <rdf:RDF xmlns:dc="http://purl.org/dc/elements/1.1/" xmlns:cc="http://creativecommons.org/ns#" xmlns:rdf="http://www.w3.org/1999/02/22-rdf-syntax-ns#">
   <cc:Work>
    <dc:type rdf:resource="http://purl.org/dc/dcmitype/StillImage"/>
    <dc:date>2024-04-20T16:41:21.057982</dc:date>
    <dc:format>image/svg+xml</dc:format>
    <dc:creator>
     <cc:Agent>
      <dc:title>Matplotlib v3.7.2, https://matplotlib.org/</dc:title>
     </cc:Agent>
    </dc:creator>
   </cc:Work>
  </rdf:RDF>
 </metadata>
 <defs>
  <style type="text/css">*{stroke-linejoin: round; stroke-linecap: butt}</style>
 </defs>
 <g id="figure_1">
  <g id="patch_1">
   <path d="M 0 345.6 
L 460.8 345.6 
L 460.8 0 
L 0 0 
z
" style="fill: #ffffff"/>
  </g>
  <g id="axes_1">
   <g id="patch_2">
    <path d="M 57.6 307.584 
L 414.72 307.584 
L 414.72 41.472 
L 57.6 41.472 
z
" style="fill: #ffffff"/>
   </g>
   <g id="matplotlib.axis_1">
    <g id="xtick_1">
     <g id="line2d_1">
      <defs>
       <path id="md713367f6b" d="M 0 0 
L 0 3.5 
" style="stroke: #000000; stroke-width: 0.8"/>
      </defs>
      <g>
       <use xlink:href="#md713367f6b" x="73.832727" y="307.584" style="stroke: #000000; stroke-width: 0.8"/>
      </g>
     </g>
     <g id="text_1">
      <!-- 0 -->
      <g transform="translate(70.651477 322.182437) scale(0.1 -0.1)">
       <defs>
        <path id="DejaVuSans-30" d="M 2034 4250 
Q 1547 4250 1301 3770 
Q 1056 3291 1056 2328 
Q 1056 1369 1301 889 
Q 1547 409 2034 409 
Q 2525 409 2770 889 
Q 3016 1369 3016 2328 
Q 3016 3291 2770 3770 
Q 2525 4250 2034 4250 
z
M 2034 4750 
Q 2819 4750 3233 4129 
Q 3647 3509 3647 2328 
Q 3647 1150 3233 529 
Q 2819 -91 2034 -91 
Q 1250 -91 836 529 
Q 422 1150 422 2328 
Q 422 3509 836 4129 
Q 1250 4750 2034 4750 
z
" transform="scale(0.015625)"/>
       </defs>
       <use xlink:href="#DejaVuSans-30"/>
      </g>
     </g>
    </g>
    <g id="xtick_2">
     <g id="line2d_2">
      <g>
       <use xlink:href="#md713367f6b" x="138.828632" y="307.584" style="stroke: #000000; stroke-width: 0.8"/>
      </g>
     </g>
     <g id="text_2">
      <!-- 200 -->
      <g transform="translate(129.284882 322.182437) scale(0.1 -0.1)">
       <defs>
        <path id="DejaVuSans-32" d="M 1228 531 
L 3431 531 
L 3431 0 
L 469 0 
L 469 531 
Q 828 903 1448 1529 
Q 2069 2156 2228 2338 
Q 2531 2678 2651 2914 
Q 2772 3150 2772 3378 
Q 2772 3750 2511 3984 
Q 2250 4219 1831 4219 
Q 1534 4219 1204 4116 
Q 875 4013 500 3803 
L 500 4441 
Q 881 4594 1212 4672 
Q 1544 4750 1819 4750 
Q 2544 4750 2975 4387 
Q 3406 4025 3406 3419 
Q 3406 3131 3298 2873 
Q 3191 2616 2906 2266 
Q 2828 2175 2409 1742 
Q 1991 1309 1228 531 
z
" transform="scale(0.015625)"/>
       </defs>
       <use xlink:href="#DejaVuSans-32"/>
       <use xlink:href="#DejaVuSans-30" x="63.623047"/>
       <use xlink:href="#DejaVuSans-30" x="127.246094"/>
      </g>
     </g>
    </g>
    <g id="xtick_3">
     <g id="line2d_3">
      <g>
       <use xlink:href="#md713367f6b" x="203.824537" y="307.584" style="stroke: #000000; stroke-width: 0.8"/>
      </g>
     </g>
     <g id="text_3">
      <!-- 400 -->
      <g transform="translate(194.280787 322.182437) scale(0.1 -0.1)">
       <defs>
        <path id="DejaVuSans-34" d="M 2419 4116 
L 825 1625 
L 2419 1625 
L 2419 4116 
z
M 2253 4666 
L 3047 4666 
L 3047 1625 
L 3713 1625 
L 3713 1100 
L 3047 1100 
L 3047 0 
L 2419 0 
L 2419 1100 
L 313 1100 
L 313 1709 
L 2253 4666 
z
" transform="scale(0.015625)"/>
       </defs>
       <use xlink:href="#DejaVuSans-34"/>
       <use xlink:href="#DejaVuSans-30" x="63.623047"/>
       <use xlink:href="#DejaVuSans-30" x="127.246094"/>
      </g>
     </g>
    </g>
    <g id="xtick_4">
     <g id="line2d_4">
      <g>
       <use xlink:href="#md713367f6b" x="268.820442" y="307.584" style="stroke: #000000; stroke-width: 0.8"/>
      </g>
     </g>
     <g id="text_4">
      <!-- 600 -->
      <g transform="translate(259.276692 322.182437) scale(0.1 -0.1)">
       <defs>
        <path id="DejaVuSans-36" d="M 2113 2584 
Q 1688 2584 1439 2293 
Q 1191 2003 1191 1497 
Q 1191 994 1439 701 
Q 1688 409 2113 409 
Q 2538 409 2786 701 
Q 3034 994 3034 1497 
Q 3034 2003 2786 2293 
Q 2538 2584 2113 2584 
z
M 3366 4563 
L 3366 3988 
Q 3128 4100 2886 4159 
Q 2644 4219 2406 4219 
Q 1781 4219 1451 3797 
Q 1122 3375 1075 2522 
Q 1259 2794 1537 2939 
Q 1816 3084 2150 3084 
Q 2853 3084 3261 2657 
Q 3669 2231 3669 1497 
Q 3669 778 3244 343 
Q 2819 -91 2113 -91 
Q 1303 -91 875 529 
Q 447 1150 447 2328 
Q 447 3434 972 4092 
Q 1497 4750 2381 4750 
Q 2619 4750 2861 4703 
Q 3103 4656 3366 4563 
z
" transform="scale(0.015625)"/>
       </defs>
       <use xlink:href="#DejaVuSans-36"/>
       <use xlink:href="#DejaVuSans-30" x="63.623047"/>
       <use xlink:href="#DejaVuSans-30" x="127.246094"/>
      </g>
     </g>
    </g>
    <g id="xtick_5">
     <g id="line2d_5">
      <g>
       <use xlink:href="#md713367f6b" x="333.816347" y="307.584" style="stroke: #000000; stroke-width: 0.8"/>
      </g>
     </g>
     <g id="text_5">
      <!-- 800 -->
      <g transform="translate(324.272597 322.182437) scale(0.1 -0.1)">
       <defs>
        <path id="DejaVuSans-38" d="M 2034 2216 
Q 1584 2216 1326 1975 
Q 1069 1734 1069 1313 
Q 1069 891 1326 650 
Q 1584 409 2034 409 
Q 2484 409 2743 651 
Q 3003 894 3003 1313 
Q 3003 1734 2745 1975 
Q 2488 2216 2034 2216 
z
M 1403 2484 
Q 997 2584 770 2862 
Q 544 3141 544 3541 
Q 544 4100 942 4425 
Q 1341 4750 2034 4750 
Q 2731 4750 3128 4425 
Q 3525 4100 3525 3541 
Q 3525 3141 3298 2862 
Q 3072 2584 2669 2484 
Q 3125 2378 3379 2068 
Q 3634 1759 3634 1313 
Q 3634 634 3220 271 
Q 2806 -91 2034 -91 
Q 1263 -91 848 271 
Q 434 634 434 1313 
Q 434 1759 690 2068 
Q 947 2378 1403 2484 
z
M 1172 3481 
Q 1172 3119 1398 2916 
Q 1625 2713 2034 2713 
Q 2441 2713 2670 2916 
Q 2900 3119 2900 3481 
Q 2900 3844 2670 4047 
Q 2441 4250 2034 4250 
Q 1625 4250 1398 4047 
Q 1172 3844 1172 3481 
z
" transform="scale(0.015625)"/>
       </defs>
       <use xlink:href="#DejaVuSans-38"/>
       <use xlink:href="#DejaVuSans-30" x="63.623047"/>
       <use xlink:href="#DejaVuSans-30" x="127.246094"/>
      </g>
     </g>
    </g>
    <g id="xtick_6">
     <g id="line2d_6">
      <g>
       <use xlink:href="#md713367f6b" x="398.812252" y="307.584" style="stroke: #000000; stroke-width: 0.8"/>
      </g>
     </g>
     <g id="text_6">
      <!-- 1000 -->
      <g transform="translate(386.087252 322.182437) scale(0.1 -0.1)">
       <defs>
        <path id="DejaVuSans-31" d="M 794 531 
L 1825 531 
L 1825 4091 
L 703 3866 
L 703 4441 
L 1819 4666 
L 2450 4666 
L 2450 531 
L 3481 531 
L 3481 0 
L 794 0 
L 794 531 
z
" transform="scale(0.015625)"/>
       </defs>
       <use xlink:href="#DejaVuSans-31"/>
       <use xlink:href="#DejaVuSans-30" x="63.623047"/>
       <use xlink:href="#DejaVuSans-30" x="127.246094"/>
       <use xlink:href="#DejaVuSans-30" x="190.869141"/>
      </g>
     </g>
    </g>
   </g>
   <g id="matplotlib.axis_2">
    <g id="ytick_1">
     <g id="line2d_7">
      <defs>
       <path id="m4b6b70bd5c" d="M 0 0 
L -3.5 0 
" style="stroke: #000000; stroke-width: 0.8"/>
      </defs>
      <g>
       <use xlink:href="#m4b6b70bd5c" x="57.6" y="298.521164" style="stroke: #000000; stroke-width: 0.8"/>
      </g>
     </g>
     <g id="text_7">
      <!-- 0 -->
      <g transform="translate(44.2375 302.320383) scale(0.1 -0.1)">
       <use xlink:href="#DejaVuSans-30"/>
      </g>
     </g>
    </g>
    <g id="ytick_2">
     <g id="line2d_8">
      <g>
       <use xlink:href="#m4b6b70bd5c" x="57.6" y="241.768136" style="stroke: #000000; stroke-width: 0.8"/>
      </g>
     </g>
     <g id="text_8">
      <!-- 1000 -->
      <g transform="translate(25.15 245.567354) scale(0.1 -0.1)">
       <use xlink:href="#DejaVuSans-31"/>
       <use xlink:href="#DejaVuSans-30" x="63.623047"/>
       <use xlink:href="#DejaVuSans-30" x="127.246094"/>
       <use xlink:href="#DejaVuSans-30" x="190.869141"/>
      </g>
     </g>
    </g>
    <g id="ytick_3">
     <g id="line2d_9">
      <g>
       <use xlink:href="#m4b6b70bd5c" x="57.6" y="185.015108" style="stroke: #000000; stroke-width: 0.8"/>
      </g>
     </g>
     <g id="text_9">
      <!-- 2000 -->
      <g transform="translate(25.15 188.814326) scale(0.1 -0.1)">
       <use xlink:href="#DejaVuSans-32"/>
       <use xlink:href="#DejaVuSans-30" x="63.623047"/>
       <use xlink:href="#DejaVuSans-30" x="127.246094"/>
       <use xlink:href="#DejaVuSans-30" x="190.869141"/>
      </g>
     </g>
    </g>
    <g id="ytick_4">
     <g id="line2d_10">
      <g>
       <use xlink:href="#m4b6b70bd5c" x="57.6" y="128.262079" style="stroke: #000000; stroke-width: 0.8"/>
      </g>
     </g>
     <g id="text_10">
      <!-- 3000 -->
      <g transform="translate(25.15 132.061298) scale(0.1 -0.1)">
       <defs>
        <path id="DejaVuSans-33" d="M 2597 2516 
Q 3050 2419 3304 2112 
Q 3559 1806 3559 1356 
Q 3559 666 3084 287 
Q 2609 -91 1734 -91 
Q 1441 -91 1130 -33 
Q 819 25 488 141 
L 488 750 
Q 750 597 1062 519 
Q 1375 441 1716 441 
Q 2309 441 2620 675 
Q 2931 909 2931 1356 
Q 2931 1769 2642 2001 
Q 2353 2234 1838 2234 
L 1294 2234 
L 1294 2753 
L 1863 2753 
Q 2328 2753 2575 2939 
Q 2822 3125 2822 3475 
Q 2822 3834 2567 4026 
Q 2313 4219 1838 4219 
Q 1578 4219 1281 4162 
Q 984 4106 628 3988 
L 628 4550 
Q 988 4650 1302 4700 
Q 1616 4750 1894 4750 
Q 2613 4750 3031 4423 
Q 3450 4097 3450 3541 
Q 3450 3153 3228 2886 
Q 3006 2619 2597 2516 
z
" transform="scale(0.015625)"/>
       </defs>
       <use xlink:href="#DejaVuSans-33"/>
       <use xlink:href="#DejaVuSans-30" x="63.623047"/>
       <use xlink:href="#DejaVuSans-30" x="127.246094"/>
       <use xlink:href="#DejaVuSans-30" x="190.869141"/>
      </g>
     </g>
    </g>
    <g id="ytick_5">
     <g id="line2d_11">
      <g>
       <use xlink:href="#m4b6b70bd5c" x="57.6" y="71.509051" style="stroke: #000000; stroke-width: 0.8"/>
      </g>
     </g>
     <g id="text_11">
      <!-- 4000 -->
      <g transform="translate(25.15 75.30827) scale(0.1 -0.1)">
       <use xlink:href="#DejaVuSans-34"/>
       <use xlink:href="#DejaVuSans-30" x="63.623047"/>
       <use xlink:href="#DejaVuSans-30" x="127.246094"/>
       <use xlink:href="#DejaVuSans-30" x="190.869141"/>
      </g>
     </g>
    </g>
   </g>
   <g id="line2d_12">
    <path d="M 73.832727 237.15988 
L 74.157707 211.054411 
L 74.482686 295.020254 
L 80.657297 295.020254 
L 80.982277 290.516223 
L 81.307256 266.643739 
L 81.632236 198.601883 
L 81.957215 295.020254 
L 82.282195 238.970848 
L 82.607174 238.415867 
L 82.932154 295.110557 
L 83.257133 210.063196 
L 83.907093 210.039353 
L 84.232072 209.34678 
L 84.557052 266.692512 
L 84.882031 210.390362 
L 85.207011 207.417612 
L 85.53199 114.54911 
L 85.85697 266.733045 
L 86.181949 266.733311 
L 86.506929 295.069359 
L 86.831908 264.687155 
L 87.156888 266.733045 
L 87.481867 266.733045 
L 87.806847 295.488 
L 88.131826 295.069177 
L 88.456806 293.671091 
L 88.781785 294.234903 
L 89.106765 208.248959 
L 89.431744 266.990168 
L 89.756724 295.181328 
L 90.081704 295.181328 
L 90.406683 238.768269 
L 91.056642 293.467284 
L 91.381622 267.307689 
L 91.706601 295.069026 
L 92.031581 265.925783 
L 92.35656 266.716196 
L 93.006519 266.716196 
L 93.331499 265.925783 
L 93.656478 63.61584 
L 93.981458 267.120564 
L 94.306437 210.441222 
L 94.631417 210.348417 
L 94.956396 205.977627 
L 95.281376 208.591623 
L 95.606355 214.9678 
L 95.931335 266.783122 
L 96.256314 264.826989 
L 96.581294 209.832738 
L 96.906274 264.510106 
L 97.231253 264.760177 
L 97.556233 267.055138 
L 97.881212 267.249791 
L 99.18113 267.19202 
L 99.50611 239.574624 
L 99.831089 267.249791 
L 101.131007 267.249791 
L 101.455987 238.575258 
L 101.780966 267.137943 
L 102.430925 267.249791 
L 103.405864 267.278329 
L 103.730844 290.037576 
L 104.055823 256.728154 
L 104.380803 266.871828 
L 104.705782 239.591214 
L 105.030762 267.063112 
L 105.355741 145.643796 
L 106.0057 264.995565 
L 106.33068 267.251426 
L 106.655659 243.864761 
L 106.980639 268.099356 
L 107.305618 267.058136 
L 107.630598 198.614882 
L 107.955577 295.059274 
L 108.280557 266.732373 
L 108.605536 264.785328 
L 108.930516 267.649541 
L 109.255495 266.688798 
L 109.580475 97.541027 
L 109.905455 264.008328 
L 110.230434 294.300853 
L 110.880393 182.963908 
L 111.205373 186.901014 
L 111.530352 267.19202 
L 111.855332 294.276645 
L 112.180311 261.763421 
L 112.505291 267.249791 
L 113.15525 267.137943 
L 113.480229 267.19202 
L 113.805209 197.803109 
L 114.130188 267.137943 
L 115.105127 267.19202 
L 115.430106 235.558931 
L 115.755086 87.483893 
L 116.080066 266.53857 
L 116.405045 267.307689 
L 116.730025 264.687155 
L 117.055004 266.028801 
L 117.379984 87.940188 
L 117.704963 294.452028 
L 118.029943 64.553684 
L 118.354922 266.028801 
L 118.679902 137.528167 
L 119.004881 87.444734 
L 119.329861 64.313335 
L 119.65484 64.100795 
L 119.97982 215.087724 
L 120.304799 264.982191 
L 120.629779 266.856027 
L 120.954758 264.787263 
L 121.279738 265.135691 
L 121.604717 107.834229 
L 121.929697 87.498649 
L 122.254676 228.855113 
L 122.579656 127.120378 
L 122.904636 61.0808 
L 123.229615 63.452959 
L 123.554595 63.730765 
L 124.204554 63.844838 
L 124.529533 210.611422 
L 124.854513 264.388745 
L 125.179492 267.307689 
L 125.504472 123.885012 
L 125.829451 264.029217 
L 126.154431 264.701928 
L 126.47941 121.89803 
L 126.80439 264.590739 
L 127.129369 266.452965 
L 127.454349 264.493429 
L 127.779328 196.929788 
L 128.104308 266.66473 
L 128.429287 265.267112 
L 128.754267 225.785323 
L 129.079247 58.981104 
L 129.404226 64.57979 
L 129.729206 266.72254 
L 130.054185 63.61584 
L 130.379165 209.452446 
L 130.704144 264.682391 
L 131.029124 63.567032 
L 131.354103 236.647274 
L 131.679083 191.867331 
L 132.004062 209.364209 
L 132.329042 292.362257 
L 132.654021 64.072986 
L 132.979001 98.946046 
L 133.30398 292.062415 
L 133.62896 64.301984 
L 133.953939 93.093079 
L 134.278919 64.035529 
L 134.603898 170.474165 
L 134.928878 87.442985 
L 135.253857 64.286377 
L 135.578837 292.170612 
L 135.903817 136.847169 
L 136.228796 209.479899 
L 136.553776 64.199261 
L 136.878755 64.149602 
L 137.203735 238.590325 
L 137.528714 241.055622 
L 137.853694 93.261919 
L 138.178673 92.738656 
L 138.503653 87.602932 
L 138.828632 64.275878 
L 139.153612 82.667046 
L 139.478591 92.956304 
L 139.803571 253.612629 
L 140.12855 63.921455 
L 140.45353 130.314851 
L 141.103489 59.243303 
L 141.428468 231.918187 
L 141.753448 215.483498 
L 142.078428 176.046332 
L 142.403407 87.696434 
L 142.728387 92.939846 
L 143.053366 64.362142 
L 143.378346 267.167458 
L 143.703325 87.657274 
L 144.028305 93.032921 
L 144.353284 63.844838 
L 144.678264 128.939517 
L 145.003243 114.357413 
L 145.328223 69.851396 
L 145.653202 64.466568 
L 145.978182 93.032921 
L 146.303161 108.144249 
L 146.628141 87.784146 
L 146.95312 87.299452 
L 147.2781 88.039506 
L 147.603079 177.584072 
L 147.928059 64.476216 
L 148.253038 102.124984 
L 148.578018 124.073925 
L 148.902998 131.977286 
L 149.227977 64.313335 
L 149.877936 97.349698 
L 150.202916 129.110352 
L 150.527895 76.910221 
L 150.852875 92.038972 
L 151.177854 90.024609 
L 151.502834 64.149602 
L 151.827813 93.310727 
L 152.152793 102.64692 
L 152.477772 92.096867 
L 152.802752 63.769073 
L 153.127731 64.793181 
L 153.452711 77.736667 
L 153.77769 60.587907 
L 154.10267 93.512768 
L 154.427649 87.664514 
L 154.752629 69.256078 
L 155.077609 64.362993 
L 155.402588 92.738656 
L 155.727568 64.526726 
L 156.052547 64.111294 
L 156.377527 64.236718 
L 156.702506 64.781831 
L 157.027486 64.401302 
L 157.352465 182.810126 
L 157.677445 78.893389 
L 158.002424 93.196653 
L 158.327404 100.680433 
L 158.652383 111.569799 
L 158.977363 169.187566 
L 159.302342 88.076963 
L 159.627322 181.901487 
L 159.952301 83.749235 
L 160.277281 64.477067 
L 160.60226 245.966331 
L 160.92724 64.602491 
L 161.252219 92.85273 
L 161.577199 111.224501 
L 161.902179 87.979347 
L 162.227158 92.890187 
L 162.552138 64.516227 
L 162.877117 156.506349 
L 163.202097 92.968506 
L 163.527076 64.516227 
L 163.852056 93.436151 
L 164.177035 64.591992 
L 164.826994 64.160953 
L 165.151974 72.625133 
L 165.476953 64.133995 
L 165.801933 64.744374 
L 166.126912 64.314186 
L 166.451892 89.245647 
L 166.776871 63.921455 
L 167.101851 64.275878 
L 167.42683 92.843082 
L 167.75181 137.846983 
L 168.401769 64.43961 
L 168.726749 69.069527 
L 169.051728 64.708698 
L 169.376708 191.896146 
L 169.701687 125.642883 
L 170.026667 85.906845 
L 170.351646 65.147805 
L 170.676626 129.388059 
L 171.001605 93.748955 
L 171.326585 287.977167 
L 171.651564 212.50713 
L 171.976544 89.932863 
L 172.626503 197.539622 
L 172.951482 233.314495 
L 173.276462 97.789381 
L 173.601441 123.048408 
L 173.926421 208.170629 
L 174.2514 78.29419 
L 174.57638 236.445371 
L 174.90136 150.861095 
L 175.226339 208.410167 
L 175.551319 136.791943 
L 175.876298 209.367762 
L 176.526257 279.75191 
L 176.851237 103.555423 
L 177.176216 205.79605 
L 177.501196 209.224345 
L 177.826175 111.813935 
L 178.476134 241.790251 
L 178.801114 187.12136 
L 179.126093 193.690387 
L 179.451073 238.413916 
L 179.776052 93.09393 
L 180.101032 126.213841 
L 180.426011 286.031147 
L 180.750991 97.392972 
L 181.075971 235.879616 
L 181.40095 269.527662 
L 181.72593 80.610118 
L 182.050909 197.563699 
L 182.375889 95.654645 
L 182.700868 82.211365 
L 183.025848 82.132285 
L 183.350827 93.196653 
L 183.675807 82.132285 
L 184.000786 81.904156 
L 184.325766 82.132285 
L 184.650745 93.033772 
L 184.975725 80.938102 
L 185.300704 92.891889 
L 185.625684 261.844356 
L 185.950663 118.958555 
L 186.275643 282.301621 
L 186.600622 294.981841 
L 186.925602 290.5724 
L 187.250581 265.999885 
L 187.575561 264.867613 
L 187.900541 258.322711 
L 188.22552 237.25355 
L 188.5505 127.918156 
L 188.875479 102.038858 
L 189.200459 125.495127 
L 189.525438 114.657487 
L 189.850418 265.187701 
L 190.175397 209.338044 
L 190.500377 209.802639 
L 190.825356 238.678642 
L 191.150336 76.840431 
L 191.475315 230.545468 
L 191.800295 63.57527 
L 192.125274 64.488418 
L 192.450254 92.072943 
L 192.775233 92.087638 
L 193.100213 87.086055 
L 193.425192 259.247835 
L 193.750172 90.650785 
L 194.075152 87.429127 
L 194.400131 210.07529 
L 195.05009 84.89124 
L 195.37507 182.06293 
L 195.700049 94.335024 
L 196.025029 103.169868 
L 196.350008 89.043607 
L 196.674988 270.17527 
L 196.999967 105.188322 
L 197.324947 231.724009 
L 197.649926 76.732413 
L 197.974906 87.924581 
L 198.624865 154.547262 
L 198.949844 84.719392 
L 199.274824 53.824807 
L 199.599803 208.469121 
L 199.924783 61.561791 
L 200.249762 233.572254 
L 200.899722 183.235879 
L 201.224701 93.474459 
L 201.549681 93.361237 
L 201.87466 98.665182 
L 202.19964 234.272961 
L 202.524619 180.514847 
L 202.849599 264.164739 
L 203.174578 89.212874 
L 203.499558 90.458183 
L 203.824537 232.744067 
L 204.149517 247.659508 
L 204.474496 236.617256 
L 204.799476 208.914726 
L 205.124455 93.322929 
L 205.449435 182.994443 
L 205.774414 98.292136 
L 206.099394 189.805757 
L 206.424373 84.291441 
L 207.074333 171.314414 
L 207.399312 281.495256 
L 208.049271 64.287228 
L 208.69923 87.581509 
L 209.02421 237.352321 
L 209.674169 89.405698 
L 209.999148 294.382203 
L 210.324128 53.568 
L 210.649107 63.817881 
L 210.974087 89.342978 
L 211.299066 82.440819 
L 211.624046 88.567762 
L 211.949025 103.811255 
L 212.274005 82.097747 
L 212.598984 192.198672 
L 212.923964 133.366727 
L 213.248943 207.486892 
L 213.573923 150.977995 
L 213.898903 210.070653 
L 214.223882 223.949707 
L 214.548862 284.977032 
L 214.873841 140.205342 
L 215.198821 262.072741 
L 215.5238 209.075114 
L 215.84878 252.758183 
L 216.173759 64.172303 
L 216.498739 239.465397 
L 216.823718 91.62793 
L 217.148698 113.060799 
L 217.473677 265.908014 
L 217.798657 63.807381 
L 218.123636 179.087109 
L 218.448616 237.090612 
L 218.773595 92.37346 
L 219.098575 237.306461 
L 219.748534 286.460735 
L 220.073514 207.849032 
L 220.398493 203.2204 
L 220.723473 192.588233 
L 221.048452 233.035888 
L 221.373432 63.730765 
L 221.698411 209.412307 
L 222.023391 185.283342 
L 222.34837 177.851956 
L 222.67335 64.830638 
L 222.998329 243.910883 
L 223.323309 129.787177 
L 223.648288 261.999317 
L 223.973268 64.237569 
L 224.298247 68.103374 
L 224.623227 271.900325 
L 224.948206 106.943948 
L 225.273186 64.248069 
L 225.923145 252.335509 
L 226.248124 234.517478 
L 226.573104 145.344029 
L 226.898084 180.58808 
L 227.223063 156.93018 
L 227.548043 290.375375 
L 227.873022 63.643649 
L 228.198002 109.865143 
L 228.522981 123.745839 
L 228.847961 64.782682 
L 229.17294 255.895968 
L 229.49792 112.264317 
L 229.822899 64.249771 
L 230.147879 158.848894 
L 230.472858 181.565267 
L 230.797838 286.34165 
L 231.122817 209.639215 
L 231.447797 257.569087 
L 231.772776 233.216459 
L 232.097756 239.151907 
L 232.422735 239.156049 
L 232.747715 243.482047 
L 233.072695 234.046575 
L 233.397674 290.532892 
L 233.722654 187.420283 
L 234.047633 228.950709 
L 234.372613 198.496411 
L 234.697592 114.039221 
L 235.022572 265.249095 
L 235.672531 150.136722 
L 235.99751 201.737213 
L 236.32249 173.931944 
L 236.647469 174.613334 
L 236.972449 237.404881 
L 237.622408 172.364561 
L 237.947387 239.063173 
L 238.597346 63.681106 
L 238.922326 197.778697 
L 239.247305 210.396828 
L 239.572285 254.632548 
L 240.222244 210.252919 
L 240.547224 214.873105 
L 240.872203 231.607877 
L 241.197183 93.169696 
L 241.847142 243.137861 
L 242.172121 208.409931 
L 242.497101 212.600635 
L 242.82208 290.032856 
L 243.14706 206.793288 
L 243.472039 205.129914 
L 243.797019 250.960669 
L 244.121998 239.016756 
L 244.446978 262.412256 
L 245.096937 208.238856 
L 245.746896 240.548651 
L 246.071876 225.553046 
L 246.396855 124.720865 
L 246.721835 253.227024 
L 247.046814 290.698728 
L 247.371794 251.462195 
L 247.696773 107.159324 
L 248.021753 114.717817 
L 248.346732 193.084161 
L 248.671712 89.772689 
L 248.996691 241.629543 
L 249.321671 259.282404 
L 249.64665 180.654723 
L 249.97163 277.237718 
L 250.296609 145.002716 
L 250.621589 82.559194 
L 250.946568 195.379519 
L 251.271548 266.912066 
L 251.596527 158.35087 
L 251.921507 250.39121 
L 252.246486 265.19743 
L 252.571466 265.798389 
L 252.896446 291.451199 
L 253.221425 288.396668 
L 253.546405 217.581528 
L 253.871384 73.555435 
L 254.196364 238.302223 
L 254.521343 242.178144 
L 254.846323 232.2129 
L 255.171302 266.355911 
L 255.496282 264.579821 
L 255.821261 105.068271 
L 256.146241 156.267788 
L 256.47122 64.61895 
L 256.7962 246.545004 
L 257.121179 244.068239 
L 257.446159 210.556562 
L 257.771138 82.059439 
L 258.096118 243.092998 
L 258.421097 160.108582 
L 258.746077 144.034774 
L 259.071057 252.137482 
L 259.396036 233.192779 
L 259.721016 86.000005 
L 260.045995 210.536182 
L 260.370975 88.259427 
L 260.695954 238.70431 
L 261.020934 275.944849 
L 261.345913 111.379269 
L 261.670893 234.526956 
L 261.995872 232.945521 
L 262.320852 174.809567 
L 262.645831 257.988075 
L 262.970811 247.884783 
L 263.29579 100.696931 
L 263.62077 64.275878 
L 263.945749 114.317938 
L 264.270729 117.546253 
L 264.595708 264.93886 
L 264.920688 212.731786 
L 265.245667 124.303465 
L 265.570647 83.165126 
L 265.895627 64.591992 
L 266.220606 70.393618 
L 266.545586 64.668609 
L 266.870565 93.446702 
L 267.195545 91.935177 
L 267.520524 88.029703 
L 267.845504 93.446702 
L 268.170483 93.446702 
L 268.495463 93.234075 
L 268.820442 101.617741 
L 269.145422 94.862341 
L 269.470401 99.110678 
L 269.795381 112.861533 
L 270.12036 156.456211 
L 270.770319 64.106867 
L 271.095299 107.319932 
L 271.420278 82.42192 
L 271.745258 94.351161 
L 272.070238 63.948413 
L 272.395217 63.567032 
L 273.045176 63.643649 
L 273.370156 63.921455 
L 273.695135 92.652392 
L 274.020115 63.986721 
L 274.345094 63.605341 
L 274.670074 63.921455 
L 275.320033 63.921455 
L 275.645012 216.941778 
L 276.294971 63.643649 
L 276.619951 63.921455 
L 276.94493 63.883147 
L 277.26991 64.378601 
L 277.594889 146.061883 
L 277.919869 140.937716 
L 278.244848 182.942315 
L 278.569828 63.643649 
L 278.894808 63.643649 
L 279.219787 247.999502 
L 279.544767 63.681957 
L 279.869746 227.395311 
L 280.194726 64.008571 
L 280.519705 64.324685 
L 280.844685 197.488091 
L 281.169664 212.483606 
L 281.494644 84.800348 
L 281.819623 195.807788 
L 282.144603 258.294915 
L 282.469582 239.378977 
L 282.794562 64.110443 
L 283.119541 265.431404 
L 283.444521 218.342299 
L 283.7695 210.653307 
L 284.09448 238.337332 
L 284.419459 224.517678 
L 284.744439 151.119003 
L 285.069419 125.074523 
L 285.394398 207.882121 
L 285.719378 120.502316 
L 286.044357 128.389965 
L 286.369337 295.435941 
L 286.694316 266.807703 
L 287.019296 266.316152 
L 287.344275 295.487064 
L 287.669255 86.88453 
L 287.994234 93.169696 
L 288.319214 63.452107 
L 288.644193 295.354907 
L 288.969173 254.876467 
L 289.619132 291.091582 
L 289.944111 261.773778 
L 290.269091 265.1519 
L 290.59407 264.680199 
L 290.91905 294.422455 
L 291.244029 237.71972 
L 291.569009 261.062644 
L 291.893989 225.502137 
L 292.218968 228.199722 
L 292.543948 92.755115 
L 292.868927 264.55572 
L 293.193907 264.793168 
L 293.518886 264.734059 
L 293.843866 85.528943 
L 294.168845 176.153582 
L 294.493825 102.197422 
L 294.818804 265.599698 
L 295.143784 294.108189 
L 295.468763 115.221642 
L 295.793743 259.357158 
L 296.118722 254.853657 
L 296.768681 136.007102 
L 297.093661 191.583332 
L 297.41864 144.800425 
L 297.74362 122.778986 
L 298.0686 265.405442 
L 298.393579 117.657352 
L 298.718559 224.616424 
L 299.043538 64.035529 
L 299.368518 209.024705 
L 299.693497 209.456257 
L 300.018477 236.264845 
L 300.343456 236.264845 
L 300.668436 205.213226 
L 300.993415 115.188029 
L 301.318395 185.806738 
L 301.968354 259.558789 
L 302.293333 198.398776 
L 302.618313 158.601187 
L 302.943292 170.698484 
L 303.268272 165.692582 
L 303.593251 169.744022 
L 303.918231 203.8752 
L 304.56819 113.884627 
L 304.89317 117.754436 
L 305.218149 239.802732 
L 305.543129 201.479733 
L 305.868108 200.006534 
L 306.193088 222.836427 
L 306.518067 93.196653 
L 306.843047 178.485961 
L 307.168026 65.896016 
L 307.493006 265.380067 
L 307.817985 137.586657 
L 308.142965 237.748028 
L 308.467944 77.102901 
L 308.792924 236.240511 
L 309.117903 224.504924 
L 309.442883 266.724924 
L 309.767862 150.91013 
L 310.092842 265.135788 
L 310.417821 156.804312 
L 310.742801 238.908652 
L 311.067781 210.44843 
L 311.39276 110.365583 
L 311.71774 222.695495 
L 312.042719 136.496061 
L 312.367699 208.431054 
L 312.692678 177.705164 
L 313.017658 264.794903 
L 313.342637 216.399667 
L 313.667617 264.862341 
L 313.992596 214.569656 
L 314.317576 208.076584 
L 314.642555 264.930686 
L 314.967535 238.660713 
L 315.292514 131.298845 
L 315.617494 207.692003 
L 315.942473 237.957942 
L 316.267453 281.035533 
L 316.592432 92.918847 
L 316.917412 266.405435 
L 317.242391 142.492049 
L 317.567371 237.916731 
L 317.892351 192.330328 
L 318.21733 293.271941 
L 318.54231 207.201223 
L 318.867289 265.341901 
L 319.517248 118.683997 
L 319.842228 130.018686 
L 320.167207 162.56952 
L 320.492187 175.039747 
L 320.817166 294.40747 
L 321.142146 211.488836 
L 321.792105 271.256123 
L 322.117084 264.288344 
L 322.442064 289.306991 
L 322.767043 237.988156 
L 323.092023 279.769077 
L 323.417002 265.58082 
L 323.741982 236.527845 
L 324.066962 255.64904 
L 324.391941 238.986087 
L 324.716921 274.093774 
L 325.0419 275.5126 
L 325.36688 268.418472 
L 325.691859 269.837297 
L 326.016839 276.931426 
L 326.341818 274.093774 
L 326.666798 208.598884 
L 326.991777 93.521761 
L 327.641736 295.227748 
L 327.966716 204.668265 
L 328.291695 265.553458 
L 328.616675 92.624583 
L 328.941654 266.140104 
L 329.266634 217.289162 
L 329.591613 210.551872 
L 329.916593 246.171127 
L 330.241572 211.173732 
L 330.566552 208.264856 
L 330.891532 215.487941 
L 331.216511 203.761793 
L 331.541491 92.526968 
L 331.86647 231.613572 
L 332.19145 250.825937 
L 332.516429 237.051769 
L 332.841409 236.918022 
L 333.166388 174.046472 
L 333.491368 144.680663 
L 333.816347 216.626973 
L 334.141327 167.995755 
L 334.466306 160.069452 
L 335.116265 229.29246 
L 335.441245 201.462956 
L 335.766224 198.004083 
L 336.091204 237.141021 
L 336.416183 214.453857 
L 336.741163 210.211762 
L 337.066143 290.376036 
L 338.041081 289.831568 
L 349.090385 289.831568 
L 349.415364 233.044886 
L 349.740344 289.831568 
L 351.690221 289.831568 
L 352.015201 236.502922 
L 352.34018 289.831568 
L 354.615037 289.831568 
L 354.940016 236.992905 
L 355.264996 289.831568 
L 365.664341 289.831568 
L 365.98932 236.568087 
L 366.3143 289.831568 
L 378.338542 289.831568 
L 378.663522 263.481773 
L 378.988501 289.831568 
L 381.263358 289.831568 
L 381.588337 282.387355 
L 381.913317 290.183734 
L 382.238296 289.832655 
L 382.888256 203.885327 
L 383.213235 165.315403 
L 383.538215 180.472832 
L 383.863194 238.781978 
L 384.188174 225.967002 
L 384.513153 240.000942 
L 384.838133 127.906575 
L 385.163112 290.804585 
L 385.813071 290.804585 
L 386.138051 162.425934 
L 386.46303 290.804585 
L 389.062867 290.804585 
L 389.387846 167.687717 
L 389.712826 205.63294 
L 390.037805 290.804585 
L 390.687764 290.804585 
L 391.012744 208.174558 
L 391.337723 266.601777 
L 391.662703 187.391866 
L 391.987682 210.485387 
L 392.312662 173.416738 
L 392.962621 216.200364 
L 393.2876 191.765937 
L 393.61258 211.147403 
L 393.937559 239.53313 
L 394.587518 189.654986 
L 394.912498 186.131794 
L 395.237477 177.828527 
L 395.562457 204.53144 
L 395.887437 169.141328 
L 396.537396 290.804585 
L 397.187355 181.161311 
L 397.512334 182.044464 
L 397.837314 124.694364 
L 398.487273 266.384074 
L 398.487273 266.384074 
" clip-path="url(#p5a4ede9cd0)" style="fill: none; stroke: #1f77b4; stroke-width: 1.5; stroke-linecap: square"/>
   </g>
   <g id="patch_3">
    <path d="M 57.6 307.584 
L 57.6 41.472 
" style="fill: none; stroke: #000000; stroke-width: 0.8; stroke-linejoin: miter; stroke-linecap: square"/>
   </g>
   <g id="patch_4">
    <path d="M 414.72 307.584 
L 414.72 41.472 
" style="fill: none; stroke: #000000; stroke-width: 0.8; stroke-linejoin: miter; stroke-linecap: square"/>
   </g>
   <g id="patch_5">
    <path d="M 57.6 307.584 
L 414.72 307.584 
" style="fill: none; stroke: #000000; stroke-width: 0.8; stroke-linejoin: miter; stroke-linecap: square"/>
   </g>
   <g id="patch_6">
    <path d="M 57.6 41.472 
L 414.72 41.472 
" style="fill: none; stroke: #000000; stroke-width: 0.8; stroke-linejoin: miter; stroke-linecap: square"/>
   </g>
  </g>
 </g>
 <defs>
  <clipPath id="p5a4ede9cd0">
   <rect x="57.6" y="41.472" width="357.12" height="266.112"/>
  </clipPath>
 </defs>
</svg>
