<?xml version="1.0" encoding="utf-8" standalone="no"?>
<!DOCTYPE svg PUBLIC "-//W3C//DTD SVG 1.1//EN"
  "http://www.w3.org/Graphics/SVG/1.1/DTD/svg11.dtd">
<svg xmlns:xlink="http://www.w3.org/1999/xlink" width="460.8pt" height="345.6pt" viewBox="0 0 460.8 345.6" xmlns="http://www.w3.org/2000/svg" version="1.1">
 <metadata>
  <rdf:RDF xmlns:dc="http://purl.org/dc/elements/1.1/" xmlns:cc="http://creativecommons.org/ns#" xmlns:rdf="http://www.w3.org/1999/02/22-rdf-syntax-ns#">
   <cc:Work>
    <dc:type rdf:resource="http://purl.org/dc/dcmitype/StillImage"/>
    <dc:date>2024-04-22T03:36:19.190736</dc:date>
    <dc:format>image/svg+xml</dc:format>
    <dc:creator>
     <cc:Agent>
      <dc:title>Matplotlib v3.7.2, https://matplotlib.org/</dc:title>
     </cc:Agent>
    </dc:creator>
   </cc:Work>
  </rdf:RDF>
 </metadata>
 <defs>
  <style type="text/css">*{stroke-linejoin: round; stroke-linecap: butt}</style>
 </defs>
 <g id="figure_1">
  <g id="patch_1">
   <path d="M 0 345.6 
L 460.8 345.6 
L 460.8 0 
L 0 0 
z
" style="fill: #ffffff"/>
  </g>
  <g id="axes_1">
   <g id="patch_2">
    <path d="M 57.6 307.584 
L 414.72 307.584 
L 414.72 41.472 
L 57.6 41.472 
z
" style="fill: #ffffff"/>
   </g>
   <g id="matplotlib.axis_1">
    <g id="xtick_1">
     <g id="line2d_1">
      <defs>
       <path id="m720fe3d4e4" d="M 0 0 
L 0 3.5 
" style="stroke: #000000; stroke-width: 0.8"/>
      </defs>
      <g>
       <use xlink:href="#m720fe3d4e4" x="73.832727" y="307.584" style="stroke: #000000; stroke-width: 0.8"/>
      </g>
     </g>
     <g id="text_1">
      <!-- 0 -->
      <g transform="translate(70.651477 322.182437) scale(0.1 -0.1)">
       <defs>
        <path id="DejaVuSans-30" d="M 2034 4250 
Q 1547 4250 1301 3770 
Q 1056 3291 1056 2328 
Q 1056 1369 1301 889 
Q 1547 409 2034 409 
Q 2525 409 2770 889 
Q 3016 1369 3016 2328 
Q 3016 3291 2770 3770 
Q 2525 4250 2034 4250 
z
M 2034 4750 
Q 2819 4750 3233 4129 
Q 3647 3509 3647 2328 
Q 3647 1150 3233 529 
Q 2819 -91 2034 -91 
Q 1250 -91 836 529 
Q 422 1150 422 2328 
Q 422 3509 836 4129 
Q 1250 4750 2034 4750 
z
" transform="scale(0.015625)"/>
       </defs>
       <use xlink:href="#DejaVuSans-30"/>
      </g>
     </g>
    </g>
    <g id="xtick_2">
     <g id="line2d_2">
      <g>
       <use xlink:href="#m720fe3d4e4" x="138.828632" y="307.584" style="stroke: #000000; stroke-width: 0.8"/>
      </g>
     </g>
     <g id="text_2">
      <!-- 200 -->
      <g transform="translate(129.284882 322.182437) scale(0.1 -0.1)">
       <defs>
        <path id="DejaVuSans-32" d="M 1228 531 
L 3431 531 
L 3431 0 
L 469 0 
L 469 531 
Q 828 903 1448 1529 
Q 2069 2156 2228 2338 
Q 2531 2678 2651 2914 
Q 2772 3150 2772 3378 
Q 2772 3750 2511 3984 
Q 2250 4219 1831 4219 
Q 1534 4219 1204 4116 
Q 875 4013 500 3803 
L 500 4441 
Q 881 4594 1212 4672 
Q 1544 4750 1819 4750 
Q 2544 4750 2975 4387 
Q 3406 4025 3406 3419 
Q 3406 3131 3298 2873 
Q 3191 2616 2906 2266 
Q 2828 2175 2409 1742 
Q 1991 1309 1228 531 
z
" transform="scale(0.015625)"/>
       </defs>
       <use xlink:href="#DejaVuSans-32"/>
       <use xlink:href="#DejaVuSans-30" x="63.623047"/>
       <use xlink:href="#DejaVuSans-30" x="127.246094"/>
      </g>
     </g>
    </g>
    <g id="xtick_3">
     <g id="line2d_3">
      <g>
       <use xlink:href="#m720fe3d4e4" x="203.824537" y="307.584" style="stroke: #000000; stroke-width: 0.8"/>
      </g>
     </g>
     <g id="text_3">
      <!-- 400 -->
      <g transform="translate(194.280787 322.182437) scale(0.1 -0.1)">
       <defs>
        <path id="DejaVuSans-34" d="M 2419 4116 
L 825 1625 
L 2419 1625 
L 2419 4116 
z
M 2253 4666 
L 3047 4666 
L 3047 1625 
L 3713 1625 
L 3713 1100 
L 3047 1100 
L 3047 0 
L 2419 0 
L 2419 1100 
L 313 1100 
L 313 1709 
L 2253 4666 
z
" transform="scale(0.015625)"/>
       </defs>
       <use xlink:href="#DejaVuSans-34"/>
       <use xlink:href="#DejaVuSans-30" x="63.623047"/>
       <use xlink:href="#DejaVuSans-30" x="127.246094"/>
      </g>
     </g>
    </g>
    <g id="xtick_4">
     <g id="line2d_4">
      <g>
       <use xlink:href="#m720fe3d4e4" x="268.820442" y="307.584" style="stroke: #000000; stroke-width: 0.8"/>
      </g>
     </g>
     <g id="text_4">
      <!-- 600 -->
      <g transform="translate(259.276692 322.182437) scale(0.1 -0.1)">
       <defs>
        <path id="DejaVuSans-36" d="M 2113 2584 
Q 1688 2584 1439 2293 
Q 1191 2003 1191 1497 
Q 1191 994 1439 701 
Q 1688 409 2113 409 
Q 2538 409 2786 701 
Q 3034 994 3034 1497 
Q 3034 2003 2786 2293 
Q 2538 2584 2113 2584 
z
M 3366 4563 
L 3366 3988 
Q 3128 4100 2886 4159 
Q 2644 4219 2406 4219 
Q 1781 4219 1451 3797 
Q 1122 3375 1075 2522 
Q 1259 2794 1537 2939 
Q 1816 3084 2150 3084 
Q 2853 3084 3261 2657 
Q 3669 2231 3669 1497 
Q 3669 778 3244 343 
Q 2819 -91 2113 -91 
Q 1303 -91 875 529 
Q 447 1150 447 2328 
Q 447 3434 972 4092 
Q 1497 4750 2381 4750 
Q 2619 4750 2861 4703 
Q 3103 4656 3366 4563 
z
" transform="scale(0.015625)"/>
       </defs>
       <use xlink:href="#DejaVuSans-36"/>
       <use xlink:href="#DejaVuSans-30" x="63.623047"/>
       <use xlink:href="#DejaVuSans-30" x="127.246094"/>
      </g>
     </g>
    </g>
    <g id="xtick_5">
     <g id="line2d_5">
      <g>
       <use xlink:href="#m720fe3d4e4" x="333.816347" y="307.584" style="stroke: #000000; stroke-width: 0.8"/>
      </g>
     </g>
     <g id="text_5">
      <!-- 800 -->
      <g transform="translate(324.272597 322.182437) scale(0.1 -0.1)">
       <defs>
        <path id="DejaVuSans-38" d="M 2034 2216 
Q 1584 2216 1326 1975 
Q 1069 1734 1069 1313 
Q 1069 891 1326 650 
Q 1584 409 2034 409 
Q 2484 409 2743 651 
Q 3003 894 3003 1313 
Q 3003 1734 2745 1975 
Q 2488 2216 2034 2216 
z
M 1403 2484 
Q 997 2584 770 2862 
Q 544 3141 544 3541 
Q 544 4100 942 4425 
Q 1341 4750 2034 4750 
Q 2731 4750 3128 4425 
Q 3525 4100 3525 3541 
Q 3525 3141 3298 2862 
Q 3072 2584 2669 2484 
Q 3125 2378 3379 2068 
Q 3634 1759 3634 1313 
Q 3634 634 3220 271 
Q 2806 -91 2034 -91 
Q 1263 -91 848 271 
Q 434 634 434 1313 
Q 434 1759 690 2068 
Q 947 2378 1403 2484 
z
M 1172 3481 
Q 1172 3119 1398 2916 
Q 1625 2713 2034 2713 
Q 2441 2713 2670 2916 
Q 2900 3119 2900 3481 
Q 2900 3844 2670 4047 
Q 2441 4250 2034 4250 
Q 1625 4250 1398 4047 
Q 1172 3844 1172 3481 
z
" transform="scale(0.015625)"/>
       </defs>
       <use xlink:href="#DejaVuSans-38"/>
       <use xlink:href="#DejaVuSans-30" x="63.623047"/>
       <use xlink:href="#DejaVuSans-30" x="127.246094"/>
      </g>
     </g>
    </g>
    <g id="xtick_6">
     <g id="line2d_6">
      <g>
       <use xlink:href="#m720fe3d4e4" x="398.812252" y="307.584" style="stroke: #000000; stroke-width: 0.8"/>
      </g>
     </g>
     <g id="text_6">
      <!-- 1000 -->
      <g transform="translate(386.087252 322.182437) scale(0.1 -0.1)">
       <defs>
        <path id="DejaVuSans-31" d="M 794 531 
L 1825 531 
L 1825 4091 
L 703 3866 
L 703 4441 
L 1819 4666 
L 2450 4666 
L 2450 531 
L 3481 531 
L 3481 0 
L 794 0 
L 794 531 
z
" transform="scale(0.015625)"/>
       </defs>
       <use xlink:href="#DejaVuSans-31"/>
       <use xlink:href="#DejaVuSans-30" x="63.623047"/>
       <use xlink:href="#DejaVuSans-30" x="127.246094"/>
       <use xlink:href="#DejaVuSans-30" x="190.869141"/>
      </g>
     </g>
    </g>
   </g>
   <g id="matplotlib.axis_2">
    <g id="ytick_1">
     <g id="line2d_7">
      <defs>
       <path id="m742f1a3baf" d="M 0 0 
L -3.5 0 
" style="stroke: #000000; stroke-width: 0.8"/>
      </defs>
      <g>
       <use xlink:href="#m742f1a3baf" x="57.6" y="266.895281" style="stroke: #000000; stroke-width: 0.8"/>
      </g>
     </g>
     <g id="text_7">
      <!-- 0 -->
      <g transform="translate(44.2375 270.694499) scale(0.1 -0.1)">
       <use xlink:href="#DejaVuSans-30"/>
      </g>
     </g>
    </g>
    <g id="ytick_2">
     <g id="line2d_8">
      <g>
       <use xlink:href="#m742f1a3baf" x="57.6" y="209.286901" style="stroke: #000000; stroke-width: 0.8"/>
      </g>
     </g>
     <g id="text_8">
      <!-- 10000 -->
      <g transform="translate(18.7875 213.08612) scale(0.1 -0.1)">
       <use xlink:href="#DejaVuSans-31"/>
       <use xlink:href="#DejaVuSans-30" x="63.623047"/>
       <use xlink:href="#DejaVuSans-30" x="127.246094"/>
       <use xlink:href="#DejaVuSans-30" x="190.869141"/>
       <use xlink:href="#DejaVuSans-30" x="254.492188"/>
      </g>
     </g>
    </g>
    <g id="ytick_3">
     <g id="line2d_9">
      <g>
       <use xlink:href="#m742f1a3baf" x="57.6" y="151.678522" style="stroke: #000000; stroke-width: 0.8"/>
      </g>
     </g>
     <g id="text_9">
      <!-- 20000 -->
      <g transform="translate(18.7875 155.477741) scale(0.1 -0.1)">
       <use xlink:href="#DejaVuSans-32"/>
       <use xlink:href="#DejaVuSans-30" x="63.623047"/>
       <use xlink:href="#DejaVuSans-30" x="127.246094"/>
       <use xlink:href="#DejaVuSans-30" x="190.869141"/>
       <use xlink:href="#DejaVuSans-30" x="254.492188"/>
      </g>
     </g>
    </g>
    <g id="ytick_4">
     <g id="line2d_10">
      <g>
       <use xlink:href="#m742f1a3baf" x="57.6" y="94.070142" style="stroke: #000000; stroke-width: 0.8"/>
      </g>
     </g>
     <g id="text_10">
      <!-- 30000 -->
      <g transform="translate(18.7875 97.869361) scale(0.1 -0.1)">
       <defs>
        <path id="DejaVuSans-33" d="M 2597 2516 
Q 3050 2419 3304 2112 
Q 3559 1806 3559 1356 
Q 3559 666 3084 287 
Q 2609 -91 1734 -91 
Q 1441 -91 1130 -33 
Q 819 25 488 141 
L 488 750 
Q 750 597 1062 519 
Q 1375 441 1716 441 
Q 2309 441 2620 675 
Q 2931 909 2931 1356 
Q 2931 1769 2642 2001 
Q 2353 2234 1838 2234 
L 1294 2234 
L 1294 2753 
L 1863 2753 
Q 2328 2753 2575 2939 
Q 2822 3125 2822 3475 
Q 2822 3834 2567 4026 
Q 2313 4219 1838 4219 
Q 1578 4219 1281 4162 
Q 984 4106 628 3988 
L 628 4550 
Q 988 4650 1302 4700 
Q 1616 4750 1894 4750 
Q 2613 4750 3031 4423 
Q 3450 4097 3450 3541 
Q 3450 3153 3228 2886 
Q 3006 2619 2597 2516 
z
" transform="scale(0.015625)"/>
       </defs>
       <use xlink:href="#DejaVuSans-33"/>
       <use xlink:href="#DejaVuSans-30" x="63.623047"/>
       <use xlink:href="#DejaVuSans-30" x="127.246094"/>
       <use xlink:href="#DejaVuSans-30" x="190.869141"/>
       <use xlink:href="#DejaVuSans-30" x="254.492188"/>
      </g>
     </g>
    </g>
   </g>
   <g id="line2d_11">
    <path d="M 73.832727 184.461439 
L 74.157707 266.895281 
L 76.107584 266.895281 
L 76.432563 255.320726 
L 76.757543 266.895281 
L 77.082523 266.895281 
L 77.407502 295.488 
L 77.732482 266.895281 
L 83.257133 266.895281 
L 83.582113 278.43386 
L 83.907093 266.896299 
L 85.207011 266.895281 
L 85.53199 266.764524 
L 85.85697 266.895281 
L 86.181949 237.789238 
L 86.506929 266.895281 
L 91.381622 266.895281 
L 92.68154 266.895281 
L 93.006519 261.120941 
L 93.331499 266.895281 
L 93.656478 243.199368 
L 93.981458 266.895281 
L 99.18113 266.895281 
L 99.50611 261.07101 
L 99.831089 266.895281 
L 101.131007 266.895281 
L 101.455987 255.206728 
L 101.780966 266.895281 
L 102.755905 266.895281 
L 103.080885 266.76207 
L 103.405864 266.895281 
L 106.980639 266.895281 
L 107.305618 226.505212 
L 107.630598 266.895281 
L 111.205373 266.895281 
L 111.530352 261.154302 
L 111.855332 261.00903 
L 112.180311 266.895281 
L 117.055004 266.895281 
L 117.379984 266.690303 
L 117.704963 266.895281 
L 118.029943 243.729143 
L 118.354922 266.895281 
L 123.554595 266.895281 
L 123.879574 260.956712 
L 124.204554 266.900846 
L 126.80439 266.895281 
L 127.129369 272.592737 
L 127.454349 266.895281 
L 130.054185 266.895281 
L 130.379165 99.663174 
L 130.704144 266.895281 
L 133.953939 266.895281 
L 134.278919 266.753678 
L 134.603898 266.895281 
L 135.578837 266.832372 
L 135.903817 261.309308 
L 136.228796 266.895281 
L 137.853694 266.895281 
L 138.178673 272.752188 
L 138.503653 266.895281 
L 139.803571 266.895281 
L 140.45353 266.88539 
L 141.428468 266.895281 
L 141.753448 261.218596 
L 142.078428 266.895281 
L 144.353284 266.895281 
L 144.678264 261.104313 
L 145.003243 266.895281 
L 145.328223 255.349052 
L 145.653202 266.895281 
L 149.552957 266.895281 
L 149.877936 261.129727 
L 150.202916 266.895281 
L 150.527895 266.895281 
L 150.852875 267.132176 
L 151.177854 266.895281 
L 152.477772 266.895281 
L 152.802752 243.550604 
L 153.127731 266.895281 
L 154.427649 266.895281 
L 154.752629 261.157788 
L 155.077609 266.895281 
L 155.402588 266.895281 
L 155.727568 53.568 
L 156.052547 266.895281 
L 156.702506 266.895281 
L 157.027486 261.145716 
L 157.352465 266.895281 
L 158.652383 266.895281 
L 158.977363 266.761437 
L 159.302342 277.402922 
L 159.627322 266.991353 
L 159.952301 266.518499 
L 160.277281 266.895281 
L 162.227158 266.895281 
L 162.552138 272.597823 
L 162.877117 266.895281 
L 163.527076 266.895281 
L 165.151974 266.895281 
L 165.476953 261.135198 
L 165.801933 266.892222 
L 166.126912 266.830677 
L 166.776871 266.895281 
L 168.401769 266.895281 
L 168.726749 261.184032 
L 169.051728 266.894796 
L 169.701687 266.895281 
L 170.026667 261.085781 
L 170.351646 266.683894 
L 170.676626 266.895281 
L 171.001605 266.798711 
L 171.326585 266.895281 
L 171.651564 255.208941 
L 171.976544 266.895281 
L 172.301523 266.895281 
L 172.626503 272.516355 
L 172.951482 266.895281 
L 173.601441 266.898578 
L 173.926421 272.591877 
L 174.2514 266.895281 
L 174.57638 266.912068 
L 174.90136 267.119879 
L 175.226339 266.895281 
L 175.551319 272.494063 
L 175.876298 255.386944 
L 176.201278 266.908207 
L 176.526257 266.895281 
L 176.851237 266.760788 
L 177.176216 266.895281 
L 177.501196 261.090537 
L 177.826175 266.895281 
L 178.151155 266.817768 
L 178.476134 266.924347 
L 178.801114 266.768238 
L 179.126093 266.895281 
L 181.40095 266.895281 
L 184.325766 266.875434 
L 184.650745 261.140768 
L 184.975725 266.895281 
L 190.175397 266.900875 
L 190.500377 83.02016 
L 190.825356 266.895281 
L 191.150336 266.895281 
L 191.475315 272.526945 
L 191.800295 266.895281 
L 192.775233 266.895281 
L 193.100213 255.237426 
L 193.425192 266.895281 
L 193.750172 272.634319 
L 194.075152 266.895281 
L 207.399312 266.855345 
L 207.724292 260.971923 
L 208.049271 266.895281 
L 211.949025 266.895281 
L 212.274005 261.139844 
L 212.598984 266.895281 
L 217.798657 266.895281 
L 218.123636 260.93326 
L 218.448616 266.895281 
L 221.048452 266.895281 
L 221.373432 272.639849 
L 221.698411 266.895281 
L 223.648288 266.895281 
L 223.973268 272.460918 
L 224.298247 266.66175 
L 224.623227 266.895281 
L 225.273186 266.895281 
L 225.598165 272.573715 
L 225.923145 266.895281 
L 226.573104 266.897949 
L 226.898084 255.443875 
L 227.223063 267.154332 
L 227.548043 266.895281 
L 228.522981 266.895281 
L 230.797838 266.895281 
L 231.122817 261.164512 
L 231.447797 266.895281 
L 233.397674 266.895281 
L 233.722654 261.261312 
L 234.047633 266.905951 
L 235.99751 266.895281 
L 236.32249 261.176196 
L 236.647469 266.895281 
L 237.297428 266.895281 
L 237.622408 266.745141 
L 237.947387 266.895281 
L 238.272367 261.232645 
L 238.597346 266.620489 
L 238.922326 266.895281 
L 239.247305 266.740782 
L 239.897265 266.895281 
L 240.872203 266.895281 
L 241.197183 268.140303 
L 241.522162 261.163123 
L 241.847142 266.895281 
L 243.472039 266.895281 
L 243.797019 255.486726 
L 244.121998 266.895281 
L 244.446978 266.623149 
L 244.771957 266.895281 
L 245.096937 261.239383 
L 245.421916 267.036597 
L 245.746896 266.895281 
L 246.721835 266.895281 
L 247.046814 261.14144 
L 247.371794 266.895281 
L 248.671712 266.895281 
L 248.996691 267.072472 
L 249.321671 266.895281 
L 250.621589 266.893179 
L 250.946568 272.430825 
L 251.271548 266.895281 
L 253.221425 266.895281 
L 253.546405 272.89158 
L 253.871384 266.895042 
L 259.396036 266.895281 
L 259.721016 261.137776 
L 260.045995 266.895281 
L 260.370975 261.091922 
L 260.695954 266.996101 
L 261.345913 266.895281 
L 268.170483 266.895281 
L 268.495463 261.14311 
L 268.820442 266.895281 
L 272.395217 266.895281 
L 272.720197 261.182687 
L 273.045176 266.895281 
L 279.219787 266.896352 
L 279.544767 261.140428 
L 279.869746 266.895281 
L 281.819623 266.942837 
L 282.144603 272.577593 
L 282.469582 272.341981 
L 282.794562 266.895281 
L 285.719378 266.895281 
L 286.044357 261.249718 
L 286.369337 266.895281 
L 288.319214 266.895281 
L 288.644193 267.054783 
L 288.969173 266.895281 
L 289.619132 266.895281 
L 289.944111 261.051841 
L 290.269091 266.895281 
L 298.0686 266.895281 
L 298.393579 260.997557 
L 298.718559 266.895281 
L 299.043538 266.825186 
L 299.368518 272.540484 
L 299.693497 266.895281 
L 312.367699 266.895281 
L 312.692678 261.213786 
L 313.017658 266.895281 
L 334.791286 266.895131 
L 365.98932 266.895281 
L 366.3143 266.78738 
L 366.964259 266.895281 
L 371.513972 266.896809 
L 371.838952 261.236101 
L 372.163931 266.895281 
L 377.038624 266.895281 
L 377.363604 255.637875 
L 377.688583 266.895281 
L 378.338542 266.895281 
L 378.663522 261.140653 
L 378.988501 266.895281 
L 384.513153 266.895281 
L 384.838133 261.268712 
L 385.163112 266.895473 
L 392.962621 266.895281 
L 393.2876 266.731301 
L 393.61258 266.895281 
L 398.487273 266.895281 
L 398.487273 266.895281 
" clip-path="url(#pbd532aff96)" style="fill: none; stroke: #1f77b4; stroke-width: 1.5; stroke-linecap: square"/>
   </g>
   <g id="patch_3">
    <path d="M 57.6 307.584 
L 57.6 41.472 
" style="fill: none; stroke: #000000; stroke-width: 0.8; stroke-linejoin: miter; stroke-linecap: square"/>
   </g>
   <g id="patch_4">
    <path d="M 414.72 307.584 
L 414.72 41.472 
" style="fill: none; stroke: #000000; stroke-width: 0.8; stroke-linejoin: miter; stroke-linecap: square"/>
   </g>
   <g id="patch_5">
    <path d="M 57.6 307.584 
L 414.72 307.584 
" style="fill: none; stroke: #000000; stroke-width: 0.8; stroke-linejoin: miter; stroke-linecap: square"/>
   </g>
   <g id="patch_6">
    <path d="M 57.6 41.472 
L 414.72 41.472 
" style="fill: none; stroke: #000000; stroke-width: 0.8; stroke-linejoin: miter; stroke-linecap: square"/>
   </g>
  </g>
 </g>
 <defs>
  <clipPath id="pbd532aff96">
   <rect x="57.6" y="41.472" width="357.12" height="266.112"/>
  </clipPath>
 </defs>
</svg>
