<?xml version="1.0" encoding="utf-8" standalone="no"?>
<!DOCTYPE svg PUBLIC "-//W3C//DTD SVG 1.1//EN"
  "http://www.w3.org/Graphics/SVG/1.1/DTD/svg11.dtd">
<svg xmlns:xlink="http://www.w3.org/1999/xlink" width="460.8pt" height="345.6pt" viewBox="0 0 460.8 345.6" xmlns="http://www.w3.org/2000/svg" version="1.1">
 <metadata>
  <rdf:RDF xmlns:dc="http://purl.org/dc/elements/1.1/" xmlns:cc="http://creativecommons.org/ns#" xmlns:rdf="http://www.w3.org/1999/02/22-rdf-syntax-ns#">
   <cc:Work>
    <dc:type rdf:resource="http://purl.org/dc/dcmitype/StillImage"/>
    <dc:date>2024-04-20T05:07:47.067136</dc:date>
    <dc:format>image/svg+xml</dc:format>
    <dc:creator>
     <cc:Agent>
      <dc:title>Matplotlib v3.7.2, https://matplotlib.org/</dc:title>
     </cc:Agent>
    </dc:creator>
   </cc:Work>
  </rdf:RDF>
 </metadata>
 <defs>
  <style type="text/css">*{stroke-linejoin: round; stroke-linecap: butt}</style>
 </defs>
 <g id="figure_1">
  <g id="patch_1">
   <path d="M 0 345.6 
L 460.8 345.6 
L 460.8 0 
L 0 0 
z
" style="fill: #ffffff"/>
  </g>
  <g id="axes_1">
   <g id="patch_2">
    <path d="M 57.6 307.584 
L 414.72 307.584 
L 414.72 41.472 
L 57.6 41.472 
z
" style="fill: #ffffff"/>
   </g>
   <g id="matplotlib.axis_1">
    <g id="xtick_1">
     <g id="line2d_1">
      <defs>
       <path id="m77d1fe1375" d="M 0 0 
L 0 3.5 
" style="stroke: #000000; stroke-width: 0.8"/>
      </defs>
      <g>
       <use xlink:href="#m77d1fe1375" x="73.832727" y="307.584" style="stroke: #000000; stroke-width: 0.8"/>
      </g>
     </g>
     <g id="text_1">
      <!-- 0 -->
      <g transform="translate(70.651477 322.182437) scale(0.1 -0.1)">
       <defs>
        <path id="DejaVuSans-30" d="M 2034 4250 
Q 1547 4250 1301 3770 
Q 1056 3291 1056 2328 
Q 1056 1369 1301 889 
Q 1547 409 2034 409 
Q 2525 409 2770 889 
Q 3016 1369 3016 2328 
Q 3016 3291 2770 3770 
Q 2525 4250 2034 4250 
z
M 2034 4750 
Q 2819 4750 3233 4129 
Q 3647 3509 3647 2328 
Q 3647 1150 3233 529 
Q 2819 -91 2034 -91 
Q 1250 -91 836 529 
Q 422 1150 422 2328 
Q 422 3509 836 4129 
Q 1250 4750 2034 4750 
z
" transform="scale(0.015625)"/>
       </defs>
       <use xlink:href="#DejaVuSans-30"/>
      </g>
     </g>
    </g>
    <g id="xtick_2">
     <g id="line2d_2">
      <g>
       <use xlink:href="#m77d1fe1375" x="127.959861" y="307.584" style="stroke: #000000; stroke-width: 0.8"/>
      </g>
     </g>
     <g id="text_2">
      <!-- 500 -->
      <g transform="translate(118.416111 322.182437) scale(0.1 -0.1)">
       <defs>
        <path id="DejaVuSans-35" d="M 691 4666 
L 3169 4666 
L 3169 4134 
L 1269 4134 
L 1269 2991 
Q 1406 3038 1543 3061 
Q 1681 3084 1819 3084 
Q 2600 3084 3056 2656 
Q 3513 2228 3513 1497 
Q 3513 744 3044 326 
Q 2575 -91 1722 -91 
Q 1428 -91 1123 -41 
Q 819 9 494 109 
L 494 744 
Q 775 591 1075 516 
Q 1375 441 1709 441 
Q 2250 441 2565 725 
Q 2881 1009 2881 1497 
Q 2881 1984 2565 2268 
Q 2250 2553 1709 2553 
Q 1456 2553 1204 2497 
Q 953 2441 691 2322 
L 691 4666 
z
" transform="scale(0.015625)"/>
       </defs>
       <use xlink:href="#DejaVuSans-35"/>
       <use xlink:href="#DejaVuSans-30" x="63.623047"/>
       <use xlink:href="#DejaVuSans-30" x="127.246094"/>
      </g>
     </g>
    </g>
    <g id="xtick_3">
     <g id="line2d_3">
      <g>
       <use xlink:href="#m77d1fe1375" x="182.086994" y="307.584" style="stroke: #000000; stroke-width: 0.8"/>
      </g>
     </g>
     <g id="text_3">
      <!-- 1000 -->
      <g transform="translate(169.361994 322.182437) scale(0.1 -0.1)">
       <defs>
        <path id="DejaVuSans-31" d="M 794 531 
L 1825 531 
L 1825 4091 
L 703 3866 
L 703 4441 
L 1819 4666 
L 2450 4666 
L 2450 531 
L 3481 531 
L 3481 0 
L 794 0 
L 794 531 
z
" transform="scale(0.015625)"/>
       </defs>
       <use xlink:href="#DejaVuSans-31"/>
       <use xlink:href="#DejaVuSans-30" x="63.623047"/>
       <use xlink:href="#DejaVuSans-30" x="127.246094"/>
       <use xlink:href="#DejaVuSans-30" x="190.869141"/>
      </g>
     </g>
    </g>
    <g id="xtick_4">
     <g id="line2d_4">
      <g>
       <use xlink:href="#m77d1fe1375" x="236.214127" y="307.584" style="stroke: #000000; stroke-width: 0.8"/>
      </g>
     </g>
     <g id="text_4">
      <!-- 1500 -->
      <g transform="translate(223.489127 322.182437) scale(0.1 -0.1)">
       <use xlink:href="#DejaVuSans-31"/>
       <use xlink:href="#DejaVuSans-35" x="63.623047"/>
       <use xlink:href="#DejaVuSans-30" x="127.246094"/>
       <use xlink:href="#DejaVuSans-30" x="190.869141"/>
      </g>
     </g>
    </g>
    <g id="xtick_5">
     <g id="line2d_5">
      <g>
       <use xlink:href="#m77d1fe1375" x="290.34126" y="307.584" style="stroke: #000000; stroke-width: 0.8"/>
      </g>
     </g>
     <g id="text_5">
      <!-- 2000 -->
      <g transform="translate(277.61626 322.182437) scale(0.1 -0.1)">
       <defs>
        <path id="DejaVuSans-32" d="M 1228 531 
L 3431 531 
L 3431 0 
L 469 0 
L 469 531 
Q 828 903 1448 1529 
Q 2069 2156 2228 2338 
Q 2531 2678 2651 2914 
Q 2772 3150 2772 3378 
Q 2772 3750 2511 3984 
Q 2250 4219 1831 4219 
Q 1534 4219 1204 4116 
Q 875 4013 500 3803 
L 500 4441 
Q 881 4594 1212 4672 
Q 1544 4750 1819 4750 
Q 2544 4750 2975 4387 
Q 3406 4025 3406 3419 
Q 3406 3131 3298 2873 
Q 3191 2616 2906 2266 
Q 2828 2175 2409 1742 
Q 1991 1309 1228 531 
z
" transform="scale(0.015625)"/>
       </defs>
       <use xlink:href="#DejaVuSans-32"/>
       <use xlink:href="#DejaVuSans-30" x="63.623047"/>
       <use xlink:href="#DejaVuSans-30" x="127.246094"/>
       <use xlink:href="#DejaVuSans-30" x="190.869141"/>
      </g>
     </g>
    </g>
    <g id="xtick_6">
     <g id="line2d_6">
      <g>
       <use xlink:href="#m77d1fe1375" x="344.468394" y="307.584" style="stroke: #000000; stroke-width: 0.8"/>
      </g>
     </g>
     <g id="text_6">
      <!-- 2500 -->
      <g transform="translate(331.743394 322.182437) scale(0.1 -0.1)">
       <use xlink:href="#DejaVuSans-32"/>
       <use xlink:href="#DejaVuSans-35" x="63.623047"/>
       <use xlink:href="#DejaVuSans-30" x="127.246094"/>
       <use xlink:href="#DejaVuSans-30" x="190.869141"/>
      </g>
     </g>
    </g>
    <g id="xtick_7">
     <g id="line2d_7">
      <g>
       <use xlink:href="#m77d1fe1375" x="398.595527" y="307.584" style="stroke: #000000; stroke-width: 0.8"/>
      </g>
     </g>
     <g id="text_7">
      <!-- 3000 -->
      <g transform="translate(385.870527 322.182437) scale(0.1 -0.1)">
       <defs>
        <path id="DejaVuSans-33" d="M 2597 2516 
Q 3050 2419 3304 2112 
Q 3559 1806 3559 1356 
Q 3559 666 3084 287 
Q 2609 -91 1734 -91 
Q 1441 -91 1130 -33 
Q 819 25 488 141 
L 488 750 
Q 750 597 1062 519 
Q 1375 441 1716 441 
Q 2309 441 2620 675 
Q 2931 909 2931 1356 
Q 2931 1769 2642 2001 
Q 2353 2234 1838 2234 
L 1294 2234 
L 1294 2753 
L 1863 2753 
Q 2328 2753 2575 2939 
Q 2822 3125 2822 3475 
Q 2822 3834 2567 4026 
Q 2313 4219 1838 4219 
Q 1578 4219 1281 4162 
Q 984 4106 628 3988 
L 628 4550 
Q 988 4650 1302 4700 
Q 1616 4750 1894 4750 
Q 2613 4750 3031 4423 
Q 3450 4097 3450 3541 
Q 3450 3153 3228 2886 
Q 3006 2619 2597 2516 
z
" transform="scale(0.015625)"/>
       </defs>
       <use xlink:href="#DejaVuSans-33"/>
       <use xlink:href="#DejaVuSans-30" x="63.623047"/>
       <use xlink:href="#DejaVuSans-30" x="127.246094"/>
       <use xlink:href="#DejaVuSans-30" x="190.869141"/>
      </g>
     </g>
    </g>
   </g>
   <g id="matplotlib.axis_2">
    <g id="ytick_1">
     <g id="line2d_8">
      <defs>
       <path id="mf2c0db0c7e" d="M 0 0 
L -3.5 0 
" style="stroke: #000000; stroke-width: 0.8"/>
      </defs>
      <g>
       <use xlink:href="#mf2c0db0c7e" x="57.6" y="300.030513" style="stroke: #000000; stroke-width: 0.8"/>
      </g>
     </g>
     <g id="text_8">
      <!-- 0 -->
      <g transform="translate(44.2375 303.829731) scale(0.1 -0.1)">
       <use xlink:href="#DejaVuSans-30"/>
      </g>
     </g>
    </g>
    <g id="ytick_2">
     <g id="line2d_9">
      <g>
       <use xlink:href="#mf2c0db0c7e" x="57.6" y="270.222533" style="stroke: #000000; stroke-width: 0.8"/>
      </g>
     </g>
     <g id="text_9">
      <!-- 500 -->
      <g transform="translate(31.5125 274.021751) scale(0.1 -0.1)">
       <use xlink:href="#DejaVuSans-35"/>
       <use xlink:href="#DejaVuSans-30" x="63.623047"/>
       <use xlink:href="#DejaVuSans-30" x="127.246094"/>
      </g>
     </g>
    </g>
    <g id="ytick_3">
     <g id="line2d_10">
      <g>
       <use xlink:href="#mf2c0db0c7e" x="57.6" y="240.414553" style="stroke: #000000; stroke-width: 0.8"/>
      </g>
     </g>
     <g id="text_10">
      <!-- 1000 -->
      <g transform="translate(25.15 244.213771) scale(0.1 -0.1)">
       <use xlink:href="#DejaVuSans-31"/>
       <use xlink:href="#DejaVuSans-30" x="63.623047"/>
       <use xlink:href="#DejaVuSans-30" x="127.246094"/>
       <use xlink:href="#DejaVuSans-30" x="190.869141"/>
      </g>
     </g>
    </g>
    <g id="ytick_4">
     <g id="line2d_11">
      <g>
       <use xlink:href="#mf2c0db0c7e" x="57.6" y="210.606573" style="stroke: #000000; stroke-width: 0.8"/>
      </g>
     </g>
     <g id="text_11">
      <!-- 1500 -->
      <g transform="translate(25.15 214.405792) scale(0.1 -0.1)">
       <use xlink:href="#DejaVuSans-31"/>
       <use xlink:href="#DejaVuSans-35" x="63.623047"/>
       <use xlink:href="#DejaVuSans-30" x="127.246094"/>
       <use xlink:href="#DejaVuSans-30" x="190.869141"/>
      </g>
     </g>
    </g>
    <g id="ytick_5">
     <g id="line2d_12">
      <g>
       <use xlink:href="#mf2c0db0c7e" x="57.6" y="180.798593" style="stroke: #000000; stroke-width: 0.8"/>
      </g>
     </g>
     <g id="text_12">
      <!-- 2000 -->
      <g transform="translate(25.15 184.597812) scale(0.1 -0.1)">
       <use xlink:href="#DejaVuSans-32"/>
       <use xlink:href="#DejaVuSans-30" x="63.623047"/>
       <use xlink:href="#DejaVuSans-30" x="127.246094"/>
       <use xlink:href="#DejaVuSans-30" x="190.869141"/>
      </g>
     </g>
    </g>
    <g id="ytick_6">
     <g id="line2d_13">
      <g>
       <use xlink:href="#mf2c0db0c7e" x="57.6" y="150.990613" style="stroke: #000000; stroke-width: 0.8"/>
      </g>
     </g>
     <g id="text_13">
      <!-- 2500 -->
      <g transform="translate(25.15 154.789832) scale(0.1 -0.1)">
       <use xlink:href="#DejaVuSans-32"/>
       <use xlink:href="#DejaVuSans-35" x="63.623047"/>
       <use xlink:href="#DejaVuSans-30" x="127.246094"/>
       <use xlink:href="#DejaVuSans-30" x="190.869141"/>
      </g>
     </g>
    </g>
    <g id="ytick_7">
     <g id="line2d_14">
      <g>
       <use xlink:href="#mf2c0db0c7e" x="57.6" y="121.182633" style="stroke: #000000; stroke-width: 0.8"/>
      </g>
     </g>
     <g id="text_14">
      <!-- 3000 -->
      <g transform="translate(25.15 124.981852) scale(0.1 -0.1)">
       <use xlink:href="#DejaVuSans-33"/>
       <use xlink:href="#DejaVuSans-30" x="63.623047"/>
       <use xlink:href="#DejaVuSans-30" x="127.246094"/>
       <use xlink:href="#DejaVuSans-30" x="190.869141"/>
      </g>
     </g>
    </g>
    <g id="ytick_8">
     <g id="line2d_15">
      <g>
       <use xlink:href="#mf2c0db0c7e" x="57.6" y="91.374653" style="stroke: #000000; stroke-width: 0.8"/>
      </g>
     </g>
     <g id="text_15">
      <!-- 3500 -->
      <g transform="translate(25.15 95.173872) scale(0.1 -0.1)">
       <use xlink:href="#DejaVuSans-33"/>
       <use xlink:href="#DejaVuSans-35" x="63.623047"/>
       <use xlink:href="#DejaVuSans-30" x="127.246094"/>
       <use xlink:href="#DejaVuSans-30" x="190.869141"/>
      </g>
     </g>
    </g>
    <g id="ytick_9">
     <g id="line2d_16">
      <g>
       <use xlink:href="#mf2c0db0c7e" x="57.6" y="61.566673" style="stroke: #000000; stroke-width: 0.8"/>
      </g>
     </g>
     <g id="text_16">
      <!-- 4000 -->
      <g transform="translate(25.15 65.365892) scale(0.1 -0.1)">
       <defs>
        <path id="DejaVuSans-34" d="M 2419 4116 
L 825 1625 
L 2419 1625 
L 2419 4116 
z
M 2253 4666 
L 3047 4666 
L 3047 1625 
L 3713 1625 
L 3713 1100 
L 3047 1100 
L 3047 0 
L 2419 0 
L 2419 1100 
L 313 1100 
L 313 1709 
L 2253 4666 
z
" transform="scale(0.015625)"/>
       </defs>
       <use xlink:href="#DejaVuSans-34"/>
       <use xlink:href="#DejaVuSans-30" x="63.623047"/>
       <use xlink:href="#DejaVuSans-30" x="127.246094"/>
       <use xlink:href="#DejaVuSans-30" x="190.869141"/>
      </g>
     </g>
    </g>
   </g>
   <g id="line2d_17">
    <path d="M 73.832727 230.16052 
L 73.940982 289.706708 
L 74.049236 123.790204 
L 74.265744 265.93757 
L 75.348287 265.872782 
L 75.456541 295.488 
L 75.67305 265.872782 
L 75.781304 295.488 
L 75.997813 265.872782 
L 76.647338 265.872782 
L 76.755592 295.488 
L 76.972101 265.872782 
L 77.296864 265.872782 
L 77.513372 295.488 
L 77.838135 295.488 
L 77.946389 265.872782 
L 78.054644 295.488 
L 78.162898 265.872782 
L 78.379406 295.488 
L 78.487661 295.488 
L 78.704169 266.315691 
L 78.812424 266.315691 
L 78.920678 261.387907 
L 79.028932 266.041454 
L 79.245441 265.837262 
L 79.461949 265.837262 
L 79.786712 263.942162 
L 79.894966 264.944597 
L 80.00322 204.385165 
L 80.111475 205.323811 
L 80.219729 205.433368 
L 80.436238 267.271702 
L 80.544492 266.024498 
L 80.652746 267.069832 
L 80.761 266.778657 
L 80.869255 267.044748 
L 80.977509 267.671626 
L 81.085763 266.763973 
L 81.194017 266.842192 
L 81.410526 266.740992 
L 81.51878 266.970973 
L 81.735289 266.740992 
L 82.060052 266.79365 
L 82.493069 266.740992 
L 82.601323 266.525378 
L 82.817831 266.687087 
L 83.03434 266.780871 
L 83.250848 266.718137 
L 83.359103 266.842192 
L 83.467357 266.47001 
L 83.683866 266.780871 
L 83.900374 266.687087 
L 84.008628 266.56956 
L 84.225137 266.70483 
L 84.333391 266.654928 
L 84.441645 266.770517 
L 84.5499 266.650276 
L 84.766408 266.648018 
L 84.982917 264.074292 
L 85.199425 264.074292 
L 85.415934 266.70483 
L 85.524188 266.722856 
L 85.632442 266.598373 
L 85.740697 266.710323 
L 85.848951 264.472769 
L 85.957205 265.705336 
L 86.065459 263.933934 
L 86.173714 267.232515 
L 86.281968 266.679596 
L 86.390222 266.701914 
L 86.606731 267.236202 
L 86.714985 266.79365 
L 86.823239 267.235422 
L 86.931494 266.718137 
L 87.256256 266.754466 
L 87.797528 266.754466 
L 88.014036 266.723747 
L 88.12229 266.851554 
L 88.338799 266.769045 
L 88.447053 266.851554 
L 88.555308 220.144949 
L 88.771816 267.560173 
L 88.88007 195.089947 
L 88.988325 267.271702 
L 89.096579 206.896472 
L 89.313087 267.563177 
L 89.421342 267.558817 
L 89.529596 213.763625 
L 89.63785 267.073452 
L 89.746104 266.495829 
L 89.962613 267.07399 
L 90.503884 267.07399 
L 90.720393 266.495829 
L 90.828647 267.07399 
L 91.045156 266.495829 
L 91.261664 267.07399 
L 91.478173 266.495829 
L 91.694681 266.495829 
L 91.802936 267.07399 
L 92.019444 266.495829 
L 92.235953 267.07399 
L 92.344207 267.07399 
L 92.452461 266.495829 
L 92.560715 267.274288 
L 92.66897 266.495292 
L 92.885478 267.278039 
L 92.993732 267.563177 
L 93.101987 266.495829 
L 93.318495 267.562819 
L 93.535004 230.393954 
L 93.643258 222.813513 
L 93.751512 267.562819 
L 93.859767 267.276823 
L 93.968021 267.278039 
L 94.076275 265.850576 
L 94.184529 249.410798 
L 94.292784 266.700473 
L 94.401038 252.821299 
L 94.509292 267.277435 
L 94.617546 266.700473 
L 94.725801 252.821299 
L 94.942309 267.036743 
L 95.158818 266.993434 
L 95.267072 216.964289 
L 95.483581 252.821299 
L 95.591835 245.129047 
L 95.700089 267.034678 
L 95.808343 254.312493 
L 95.916598 255.803676 
L 96.133106 249.838873 
L 96.349615 267.233598 
L 96.457869 266.909429 
L 96.566123 266.951657 
L 96.674378 233.45506 
L 96.890886 267.034725 
L 96.99914 267.193545 
L 97.107395 263.885451 
L 97.323903 265.292352 
L 97.432157 234.643156 
L 97.648666 252.821299 
L 97.75692 251.330092 
L 97.865174 243.873864 
L 97.973429 227.46887 
L 98.081683 234.925925 
L 98.298192 231.943154 
L 98.406446 227.46887 
L 98.5147 234.925925 
L 98.731209 225.977406 
L 98.839463 221.502901 
L 99.27248 236.417286 
L 99.380734 231.943154 
L 99.488988 233.434548 
L 99.705497 227.46887 
L 99.813751 231.943154 
L 99.922006 230.451743 
L 100.03026 234.925925 
L 100.138514 233.434548 
L 100.463277 243.873864 
L 100.571531 245.365136 
L 100.679785 243.873864 
L 100.896294 249.838873 
L 101.004548 248.34764 
L 101.221057 267.018407 
L 101.329311 267.318471 
L 101.54582 267.022835 
L 101.654074 263.379245 
L 101.762328 267.035031 
L 101.870582 266.015672 
L 101.978837 266.845508 
L 102.087091 207.214664 
L 102.303599 267.109684 
L 102.411854 261.391008 
L 102.520108 266.89272 
L 102.628362 265.033402 
L 102.844871 265.740361 
L 103.169634 265.740361 
L 103.277888 265.468214 
L 103.494396 265.740361 
L 103.819159 265.740361 
L 103.927413 266.623796 
L 104.143922 265.740361 
L 104.901702 265.740361 
L 105.009956 252.395075 
L 105.226465 265.740361 
L 105.551227 266.97116 
L 105.659482 265.740361 
L 105.767736 252.395075 
L 105.984244 266.989667 
L 106.092499 266.989667 
L 106.309007 265.740361 
L 106.417262 265.740361 
L 106.63377 266.623796 
L 106.742024 264.461948 
L 106.850279 265.740361 
L 107.066787 251.02132 
L 107.175041 264.891734 
L 107.39155 215.038086 
L 107.608058 242.058776 
L 107.716313 207.561138 
L 107.932821 266.086329 
L 108.041076 265.740361 
L 108.257584 266.086329 
L 108.474093 209.056716 
L 108.582347 265.730676 
L 108.690601 265.681013 
L 108.798855 242.489257 
L 108.90711 246.970603 
L 109.123618 266.978865 
L 109.231872 245.372739 
L 109.448381 266.086329 
L 109.556635 266.97116 
L 109.773144 243.879817 
L 109.881398 238.457231 
L 109.989652 244.42916 
L 110.097907 239.950275 
L 110.206161 241.443277 
L 110.422669 220.537078 
L 110.530924 219.043392 
L 110.639178 223.524279 
L 110.747432 219.043392 
L 110.855686 220.537078 
L 110.963941 228.004678 
L 111.180449 204.103019 
L 111.396958 195.135197 
L 111.505212 196.63005 
L 111.613466 189.154829 
L 111.938229 229.498041 
L 112.046483 228.004678 
L 112.154738 223.524279 
L 112.262992 230.991356 
L 112.371246 229.498041 
L 112.4795 219.043392 
L 112.587755 247.414888 
L 112.696009 245.922043 
L 112.804263 253.385906 
L 112.912518 248.907696 
L 113.020772 238.457231 
L 113.129026 265.987944 
L 113.23728 241.443277 
L 113.345535 248.907696 
L 113.453789 217.549647 
L 113.670297 266.019312 
L 113.778552 183.172777 
L 113.886806 184.66846 
L 113.99506 177.188805 
L 114.103314 154.726231 
L 114.211569 216.17567 
L 114.319823 206.54095 
L 114.428077 211.023563 
L 114.536332 203.552169 
L 114.75284 148.72807 
L 114.861094 144.226419 
L 115.185857 160.720458 
L 115.402366 181.676974 
L 115.727128 246.041871 
L 115.835383 244.548988 
L 115.943637 254.998402 
L 116.2684 227.574671 
L 116.376654 226.081205 
L 116.484908 247.534716 
L 116.593163 246.041871 
L 116.809671 240.070103 
L 116.917925 247.414888 
L 117.02618 243.051589 
L 117.134434 218.493226 
L 117.242688 246.028708 
L 117.350942 241.546551 
L 117.567451 247.509393 
L 117.675705 240.032005 
L 118.000468 250.437041 
L 118.108722 265.935398 
L 118.216977 253.444342 
L 118.325231 254.944176 
L 118.433485 254.92868 
L 118.541739 236.964145 
L 118.649994 260.896644 
L 118.758248 254.936444 
L 118.866502 238.457231 
L 118.974756 239.950275 
L 119.083011 247.479406 
L 119.191265 245.922043 
L 119.299519 232.56553 
L 119.407774 246.933271 
L 119.732536 235.536965 
L 119.840791 187.524064 
L 120.057299 245.922043 
L 120.165553 244.42916 
L 120.382062 250.400468 
L 120.490316 245.922043 
L 120.706825 248.907696 
L 120.815079 247.414888 
L 120.923333 254.878573 
L 121.031587 253.385906 
L 121.248096 247.414888 
L 121.464605 253.385906 
L 121.572859 251.893204 
L 121.681113 253.385906 
L 121.789367 251.893204 
L 121.897622 247.414888 
L 122.005876 254.878573 
L 122.11413 250.400468 
L 122.222384 251.893204 
L 122.330639 250.400468 
L 122.438893 254.878573 
L 122.655401 245.922043 
L 122.763656 247.414888 
L 122.980164 253.385906 
L 123.088419 242.936238 
L 123.196673 253.385906 
L 123.521436 248.907696 
L 123.62969 253.385906 
L 123.737944 251.893204 
L 123.846198 247.414888 
L 124.062707 256.491036 
L 124.279215 247.414888 
L 124.38747 252.013032 
L 124.495724 250.400468 
L 124.603978 257.983638 
L 124.820487 249.027524 
L 125.036995 254.878573 
L 125.14525 250.400468 
L 125.361758 253.385906 
L 125.578267 250.520296 
L 125.794775 256.491036 
L 125.903029 257.983638 
L 126.011284 256.491036 
L 126.119538 257.983638 
L 126.227792 253.385906 
L 126.552555 257.983638 
L 126.660809 236.414595 
L 126.769064 237.907725 
L 126.985572 225.961377 
L 127.093826 253.385906 
L 127.202081 228.948257 
L 127.310335 250.400468 
L 127.418589 231.934935 
L 127.635098 257.86381 
L 127.743352 256.371208 
L 127.851606 257.86381 
L 127.959861 224.467859 
L 128.176369 262.441855 
L 128.284623 260.84892 
L 128.392878 224.467859 
L 128.609386 259.35638 
L 128.71764 260.968748 
L 128.825895 259.35638 
L 128.934149 263.833907 
L 129.150657 257.86381 
L 129.258912 259.35638 
L 129.367166 257.86381 
L 129.47542 262.341428 
L 129.583675 260.968748 
L 129.691929 265.326357 
L 129.800183 257.983638 
L 130.016692 260.968748 
L 130.124946 256.371208 
L 130.2332 260.84892 
L 130.341454 259.35638 
L 130.449709 260.84892 
L 130.557963 259.35638 
L 130.882726 263.833907 
L 130.99098 259.35638 
L 131.207489 262.341428 
L 131.315743 260.84892 
L 131.423997 262.341428 
L 131.532251 260.84892 
L 131.640506 262.341428 
L 131.857014 259.35638 
L 132.073523 265.316029 
L 132.181777 257.86381 
L 132.290031 262.341428 
L 132.398285 260.84892 
L 132.723048 265.326357 
L 132.831303 263.828656 
L 132.939557 259.35638 
L 133.047811 260.84892 
L 133.156065 259.35638 
L 133.26432 260.84892 
L 133.480828 266.065828 
L 133.589082 265.326357 
L 133.697337 260.968748 
L 133.913845 266.989667 
L 134.022099 266.03337 
L 134.130354 266.069788 
L 134.238608 257.840681 
L 134.346862 257.86381 
L 134.455117 266.989667 
L 134.563371 245.922043 
L 134.671625 266.05026 
L 134.779879 266.010692 
L 134.888134 266.886138 
L 134.996388 250.400468 
L 135.321151 259.35638 
L 135.537659 262.341428 
L 135.645913 248.907696 
L 135.754168 266.086329 
L 135.970676 254.878573 
L 136.078931 257.86381 
L 136.187185 259.351282 
L 136.403693 266.07364 
L 136.83671 266.067822 
L 137.053219 262.341428 
L 137.161473 256.371208 
L 137.377982 266.069788 
L 137.486236 259.35638 
L 137.59449 266.065828 
L 137.810999 260.84892 
L 137.919253 262.341428 
L 138.027507 259.35638 
L 138.135762 266.067822 
L 138.460524 260.84892 
L 138.568779 262.341428 
L 138.677033 266.065828 
L 138.785287 259.35638 
L 138.893541 260.84892 
L 139.11005 257.86381 
L 139.218304 262.341428 
L 139.326559 260.84892 
L 139.543067 263.833907 
L 139.651321 262.341428 
L 139.86783 265.326357 
L 139.976084 257.86381 
L 140.084338 265.326357 
L 140.192593 263.833907 
L 140.300847 265.326357 
L 140.409101 263.833907 
L 140.62561 257.86381 
L 140.733864 262.341428 
L 140.842118 260.84892 
L 140.950373 256.371208 
L 141.058627 213.187872 
L 141.166881 265.321056 
L 141.38339 259.35638 
L 141.599898 262.341428 
L 141.708152 260.84892 
L 141.816407 265.326357 
L 141.924661 260.84892 
L 142.141169 266.050557 
L 142.357678 257.86381 
L 142.465932 262.341428 
L 142.574187 260.838883 
L 142.682441 262.341428 
L 142.790695 260.81689 
L 142.898949 202.728418 
L 143.115458 265.326357 
L 143.440221 260.834208 
L 143.548475 196.749878 
L 143.764983 262.341428 
L 143.873238 260.84892 
L 143.981492 262.317617 
L 144.089746 260.84892 
L 144.198001 133.829787 
L 144.414509 262.341428 
L 144.522763 263.833907 
L 144.631018 259.351282 
L 144.739272 263.833907 
L 144.847526 262.341428 
L 145.064035 265.326357 
L 145.280543 259.328795 
L 145.388797 260.84892 
L 145.497052 143.668796 
L 145.71356 266.080484 
L 145.821815 260.84892 
L 146.038323 266.07495 
L 146.254832 260.84892 
L 146.363086 262.336228 
L 146.47134 266.065828 
L 146.796103 263.81404 
L 146.904357 265.981947 
L 147.012611 265.326357 
L 147.22912 262.341428 
L 147.337374 254.944176 
L 147.445629 265.321056 
L 147.770391 260.84892 
L 147.9869 266.086329 
L 148.095154 262.341428 
L 148.311663 265.321056 
L 148.419917 263.833907 
L 148.636425 266.077388 
L 148.74468 259.276902 
L 148.852934 134.653538 
L 149.069443 263.814324 
L 149.285951 245.867315 
L 149.50246 239.90153 
L 149.610714 241.3609 
L 149.718968 239.90153 
L 149.827222 241.426723 
L 149.935477 263.833907 
L 150.043731 134.653538 
L 150.151985 242.936238 
L 150.260239 238.433795 
L 150.801511 245.922043 
L 150.909765 241.443277 
L 151.018019 263.833907 
L 151.234528 245.90888 
L 151.342782 241.443277 
L 151.451036 260.84892 
L 151.559291 244.42916 
L 151.667545 245.922043 
L 151.775799 244.42916 
L 151.884053 257.86381 
L 152.100562 245.922043 
L 152.208816 244.42916 
L 152.317071 263.833907 
L 152.533579 242.936238 
L 152.641833 244.42916 
L 152.750088 242.936238 
L 152.858342 244.42916 
L 153.07485 238.457231 
L 153.183105 245.922043 
L 153.291359 238.457231 
L 153.399613 239.950275 
L 153.507867 235.471016 
L 153.616122 239.950275 
L 153.83263 236.964145 
L 153.940885 238.457231 
L 154.049139 266.065828 
L 154.157393 241.443277 
L 154.265647 242.936238 
L 154.373902 238.457231 
L 154.482156 239.950275 
L 154.59041 235.471016 
L 154.698664 239.950275 
L 154.806919 235.471016 
L 154.915173 242.936238 
L 155.023427 238.457231 
L 155.131681 239.950275 
L 155.456444 229.498041 
L 155.564699 263.833907 
L 155.672953 247.414888 
L 155.781207 266.065828 
L 155.997716 233.977842 
L 156.10597 235.471016 
L 156.214224 233.977842 
L 156.430733 225.017798 
L 156.647241 222.030706 
L 156.755495 223.524279 
L 156.86375 228.004678 
L 157.080258 219.043392 
L 157.296767 222.030706 
L 157.405021 217.549647 
L 157.513275 222.030706 
L 157.62153 220.537078 
L 157.729784 222.030706 
L 158.271055 214.561975 
L 158.487564 220.537078 
L 158.595818 219.043392 
L 158.704072 223.524279 
L 158.812327 219.043392 
L 159.137089 223.510714 
L 159.570106 217.549647 
L 159.678361 213.068044 
L 159.786615 214.561975 
L 159.894869 213.068044 
L 160.003123 214.561975 
L 160.219632 211.574048 
L 160.436141 205.597371 
L 160.544395 207.091648 
L 161.19392 183.172777 
L 161.302175 184.66846 
L 161.410429 189.154829 
L 161.518683 220.615054 
L 161.626937 192.561629 
L 161.843446 210.380954 
L 162.059955 213.375606 
L 162.168209 217.866457 
L 162.276463 228.340488 
L 162.492972 219.363126 
L 162.601226 220.859662 
L 162.70948 219.363126 
L 162.925989 222.356069 
L 163.142497 176.749048 
L 163.46726 205.294006 
L 163.575514 206.793564 
L 163.683769 211.290992 
L 163.792023 209.79205 
L 163.900277 214.288306 
L 164.008531 213.733321 
L 164.116786 159.176606 
L 164.22504 232.17866 
L 164.333294 223.489959 
L 164.441548 230.703707 
L 164.549803 250.078894 
L 164.658057 171.601478 
L 164.766311 255.775962 
L 164.98282 232.194106 
L 165.091074 104.664871 
L 165.199328 238.155702 
L 165.307583 233.684505 
L 165.524091 105.707553 
L 165.7406 291.609453 
L 165.848854 207.576913 
L 166.065362 242.028325 
L 166.173617 245.011373 
L 166.281871 264.642695 
L 166.606634 156.884242 
L 166.714888 156.884242 
L 166.823142 155.37852 
L 166.931397 173.263314 
L 167.039651 106.625467 
L 167.147905 198.026764 
L 167.256159 104.73962 
L 167.364414 105.044922 
L 167.580922 104.884853 
L 167.689176 162.297621 
L 167.905685 104.884853 
L 168.013939 162.297621 
L 168.230448 104.884853 
L 168.338702 104.884853 
L 168.446956 107.989583 
L 168.555211 145.221447 
L 168.663465 137.756763 
L 168.771719 184.903775 
L 168.879973 137.916832 
L 168.988228 235.288696 
L 169.204736 104.998084 
L 169.31299 104.884853 
L 169.421245 162.297621 
L 169.637753 80.192567 
L 169.854262 210.704401 
L 169.962516 114.07322 
L 170.07077 127.425733 
L 170.179025 294.768723 
L 170.395533 84.279758 
L 170.612042 84.148007 
L 170.720296 84.107766 
L 170.936804 98.262754 
L 171.045059 84.107766 
L 171.153313 90.215706 
L 171.261567 89.321565 
L 171.369821 86.639118 
L 171.478076 87.53327 
L 171.694584 92.898105 
L 171.802839 92.003977 
L 171.911093 101.16362 
L 172.019347 91.26048 
L 172.34411 102.12728 
L 172.560618 93.569323 
L 172.668873 96.382123 
L 172.777127 113.000266 
L 172.885381 104.52113 
L 172.993635 105.278259 
L 173.10189 101.702126 
L 173.210144 125.360728 
L 173.318398 121.755878 
L 173.426653 130.141199 
L 173.643161 84.300744 
L 173.85967 84.134906 
L 174.076178 117.034577 
L 174.292687 100.050913 
L 174.400941 97.368663 
L 174.509195 98.142926 
L 174.617449 97.248834 
L 174.833958 112.56638 
L 174.942212 102.733079 
L 175.050467 103.627111 
L 175.158721 102.733079 
L 175.266975 107.203091 
L 175.483484 100.944979 
L 175.591738 107.203091 
L 175.699992 100.944979 
L 175.808246 101.839035 
L 175.916501 100.944979 
L 176.024755 104.52113 
L 176.133009 101.839035 
L 176.241263 105.415134 
L 176.457772 101.839035 
L 176.566026 97.368663 
L 176.782535 100.944979 
L 176.890789 100.944979 
L 177.107298 96.474564 
L 177.323806 105.415134 
L 177.43206 102.627047 
L 177.648569 111.216077 
L 177.865077 106.745256 
L 177.973332 105.851085 
L 178.18984 108.533592 
L 178.298095 104.956912 
L 178.406349 106.745256 
L 178.514603 105.851085 
L 178.622857 106.745256 
L 178.731112 105.851085 
L 178.839366 103.168559 
L 178.94762 104.956912 
L 179.055874 111.779735 
L 179.272383 104.062736 
L 179.380637 107.639426 
L 179.488891 106.745256 
L 179.7054 104.062736 
L 179.813654 103.168559 
L 180.030163 106.745256 
L 180.138417 104.062736 
L 180.354926 105.851085 
L 180.571434 103.168559 
L 180.679688 104.062736 
L 182.953028 104.062736 
L 183.169537 97.803459 
L 183.277791 102.27438 
L 183.386045 101.380199 
L 183.494299 102.27438 
L 183.602554 91.544113 
L 183.710808 101.380199 
L 183.819062 99.591832 
L 184.035571 101.380199 
L 184.143825 97.803459 
L 184.360333 99.591832 
L 184.468588 100.486016 
L 184.685096 94.226697 
L 184.901605 98.697646 
L 185.009859 90.649916 
L 185.226368 91.544113 
L 185.442876 91.544113 
L 185.55113 90.649916 
L 185.659385 93.332503 
L 185.767639 88.86152 
L 185.875893 89.755718 
L 185.984147 87.96732 
L 186.092402 90.649916 
L 186.30891 81.707899 
L 186.525419 88.86152 
L 186.741927 81.707899 
L 186.958436 87.96732 
L 187.174944 87.96732 
L 187.391453 87.073119 
L 187.607961 84.107766 
L 187.82447 86.178918 
L 187.932724 79.919486 
L 188.149233 85.284716 
L 188.257487 85.284716 
L 188.365741 84.107766 
L 188.473996 81.707899 
L 188.690504 83.496309 
L 188.798758 53.767415 
L 189.015267 83.33624 
L 189.123521 83.216412 
L 189.231775 133.751351 
L 189.448284 83.33624 
L 189.989555 83.33624 
L 190.09781 54.265217 
L 190.314318 83.33624 
L 190.530827 83.33624 
L 190.747335 54.135943 
L 190.963844 83.33624 
L 209.042306 83.33624 
L 209.15056 82.442035 
L 209.367069 83.33624 
L 209.90834 83.33624 
L 210.016595 82.442035 
L 210.124849 83.33624 
L 210.233103 77.971002 
L 210.449612 83.33624 
L 219.109953 83.33624 
L 219.326462 83.947697 
L 220.192496 83.947697 
L 220.409004 83.827869 
L 281.789173 83.827869 
L 282.005682 83.6678 
L 285.145056 83.6678 
L 285.361564 53.779339 
L 285.469818 53.939407 
L 285.578073 83.6678 
L 285.686327 83.507731 
L 285.902835 83.827869 
L 287.743158 83.827869 
L 287.959667 83.627559 
L 288.067921 83.627559 
L 288.284429 83.827869 
L 297.377788 83.827869 
L 297.486042 83.627559 
L 297.702551 53.888138 
L 298.568585 53.888138 
L 298.676839 53.647587 
L 298.893347 53.888138 
L 299.21811 53.888138 
L 299.326365 53.728069 
L 299.542873 53.888138 
L 303.115264 53.888138 
L 303.223518 53.756386 
L 303.440027 53.888138 
L 384.089455 53.888138 
L 384.19771 53.728069 
L 384.414218 53.888138 
L 384.522472 53.568 
L 384.738981 53.888138 
L 385.171998 53.888138 
L 385.280252 53.568 
L 385.496761 53.888138 
L 385.929778 53.888138 
L 386.038032 122.261039 
L 386.254541 53.888138 
L 386.579303 53.888138 
L 386.795812 53.647587 
L 387.01232 53.888138 
L 387.120575 53.888138 
L 387.228829 78.334556 
L 387.445338 54.208275 
L 387.661846 54.208275 
L 387.986609 294.722727 
L 388.094863 274.268297 
L 388.203117 293.934498 
L 388.311372 293.772324 
L 388.419626 215.582015 
L 388.52788 293.773089 
L 388.744389 204.757946 
L 388.852643 204.757946 
L 388.960897 263.78937 
L 389.069152 219.357059 
L 389.28566 279.769884 
L 389.393914 204.789939 
L 389.502169 293.770087 
L 389.610423 249.900069 
L 389.718677 287.660593 
L 389.935186 222.397146 
L 390.04344 234.128331 
L 390.151694 283.198936 
L 390.259948 234.128331 
L 390.476457 79.705127 
L 390.584711 78.214728 
L 390.692966 112.700088 
L 390.909474 91.834689 
L 391.125983 78.214728 
L 391.234237 91.628319 
L 391.450745 83.856186 
L 398.487273 83.856186 
L 398.487273 83.856186 
" clip-path="url(#p8abd46a0f9)" style="fill: none; stroke: #1f77b4; stroke-width: 1.5; stroke-linecap: square"/>
   </g>
   <g id="patch_3">
    <path d="M 57.6 307.584 
L 57.6 41.472 
" style="fill: none; stroke: #000000; stroke-width: 0.8; stroke-linejoin: miter; stroke-linecap: square"/>
   </g>
   <g id="patch_4">
    <path d="M 414.72 307.584 
L 414.72 41.472 
" style="fill: none; stroke: #000000; stroke-width: 0.8; stroke-linejoin: miter; stroke-linecap: square"/>
   </g>
   <g id="patch_5">
    <path d="M 57.6 307.584 
L 414.72 307.584 
" style="fill: none; stroke: #000000; stroke-width: 0.8; stroke-linejoin: miter; stroke-linecap: square"/>
   </g>
   <g id="patch_6">
    <path d="M 57.6 41.472 
L 414.72 41.472 
" style="fill: none; stroke: #000000; stroke-width: 0.8; stroke-linejoin: miter; stroke-linecap: square"/>
   </g>
  </g>
 </g>
 <defs>
  <clipPath id="p8abd46a0f9">
   <rect x="57.6" y="41.472" width="357.12" height="266.112"/>
  </clipPath>
 </defs>
</svg>
