<?xml version="1.0" encoding="utf-8" standalone="no"?>
<!DOCTYPE svg PUBLIC "-//W3C//DTD SVG 1.1//EN"
  "http://www.w3.org/Graphics/SVG/1.1/DTD/svg11.dtd">
<svg xmlns:xlink="http://www.w3.org/1999/xlink" width="460.8pt" height="345.6pt" viewBox="0 0 460.8 345.6" xmlns="http://www.w3.org/2000/svg" version="1.1">
 <metadata>
  <rdf:RDF xmlns:dc="http://purl.org/dc/elements/1.1/" xmlns:cc="http://creativecommons.org/ns#" xmlns:rdf="http://www.w3.org/1999/02/22-rdf-syntax-ns#">
   <cc:Work>
    <dc:type rdf:resource="http://purl.org/dc/dcmitype/StillImage"/>
    <dc:date>2024-04-20T08:59:30.709842</dc:date>
    <dc:format>image/svg+xml</dc:format>
    <dc:creator>
     <cc:Agent>
      <dc:title>Matplotlib v3.7.2, https://matplotlib.org/</dc:title>
     </cc:Agent>
    </dc:creator>
   </cc:Work>
  </rdf:RDF>
 </metadata>
 <defs>
  <style type="text/css">*{stroke-linejoin: round; stroke-linecap: butt}</style>
 </defs>
 <g id="figure_1">
  <g id="patch_1">
   <path d="M 0 345.6 
L 460.8 345.6 
L 460.8 0 
L 0 0 
z
" style="fill: #ffffff"/>
  </g>
  <g id="axes_1">
   <g id="patch_2">
    <path d="M 57.6 307.584 
L 414.72 307.584 
L 414.72 41.472 
L 57.6 41.472 
z
" style="fill: #ffffff"/>
   </g>
   <g id="matplotlib.axis_1">
    <g id="xtick_1">
     <g id="line2d_1">
      <defs>
       <path id="mc2002f3a06" d="M 0 0 
L 0 3.5 
" style="stroke: #000000; stroke-width: 0.8"/>
      </defs>
      <g>
       <use xlink:href="#mc2002f3a06" x="73.832727" y="307.584" style="stroke: #000000; stroke-width: 0.8"/>
      </g>
     </g>
     <g id="text_1">
      <!-- 0 -->
      <g transform="translate(70.651477 322.182437) scale(0.1 -0.1)">
       <defs>
        <path id="DejaVuSans-30" d="M 2034 4250 
Q 1547 4250 1301 3770 
Q 1056 3291 1056 2328 
Q 1056 1369 1301 889 
Q 1547 409 2034 409 
Q 2525 409 2770 889 
Q 3016 1369 3016 2328 
Q 3016 3291 2770 3770 
Q 2525 4250 2034 4250 
z
M 2034 4750 
Q 2819 4750 3233 4129 
Q 3647 3509 3647 2328 
Q 3647 1150 3233 529 
Q 2819 -91 2034 -91 
Q 1250 -91 836 529 
Q 422 1150 422 2328 
Q 422 3509 836 4129 
Q 1250 4750 2034 4750 
z
" transform="scale(0.015625)"/>
       </defs>
       <use xlink:href="#DejaVuSans-30"/>
      </g>
     </g>
    </g>
    <g id="xtick_2">
     <g id="line2d_2">
      <g>
       <use xlink:href="#mc2002f3a06" x="127.959861" y="307.584" style="stroke: #000000; stroke-width: 0.8"/>
      </g>
     </g>
     <g id="text_2">
      <!-- 500 -->
      <g transform="translate(118.416111 322.182437) scale(0.1 -0.1)">
       <defs>
        <path id="DejaVuSans-35" d="M 691 4666 
L 3169 4666 
L 3169 4134 
L 1269 4134 
L 1269 2991 
Q 1406 3038 1543 3061 
Q 1681 3084 1819 3084 
Q 2600 3084 3056 2656 
Q 3513 2228 3513 1497 
Q 3513 744 3044 326 
Q 2575 -91 1722 -91 
Q 1428 -91 1123 -41 
Q 819 9 494 109 
L 494 744 
Q 775 591 1075 516 
Q 1375 441 1709 441 
Q 2250 441 2565 725 
Q 2881 1009 2881 1497 
Q 2881 1984 2565 2268 
Q 2250 2553 1709 2553 
Q 1456 2553 1204 2497 
Q 953 2441 691 2322 
L 691 4666 
z
" transform="scale(0.015625)"/>
       </defs>
       <use xlink:href="#DejaVuSans-35"/>
       <use xlink:href="#DejaVuSans-30" x="63.623047"/>
       <use xlink:href="#DejaVuSans-30" x="127.246094"/>
      </g>
     </g>
    </g>
    <g id="xtick_3">
     <g id="line2d_3">
      <g>
       <use xlink:href="#mc2002f3a06" x="182.086994" y="307.584" style="stroke: #000000; stroke-width: 0.8"/>
      </g>
     </g>
     <g id="text_3">
      <!-- 1000 -->
      <g transform="translate(169.361994 322.182437) scale(0.1 -0.1)">
       <defs>
        <path id="DejaVuSans-31" d="M 794 531 
L 1825 531 
L 1825 4091 
L 703 3866 
L 703 4441 
L 1819 4666 
L 2450 4666 
L 2450 531 
L 3481 531 
L 3481 0 
L 794 0 
L 794 531 
z
" transform="scale(0.015625)"/>
       </defs>
       <use xlink:href="#DejaVuSans-31"/>
       <use xlink:href="#DejaVuSans-30" x="63.623047"/>
       <use xlink:href="#DejaVuSans-30" x="127.246094"/>
       <use xlink:href="#DejaVuSans-30" x="190.869141"/>
      </g>
     </g>
    </g>
    <g id="xtick_4">
     <g id="line2d_4">
      <g>
       <use xlink:href="#mc2002f3a06" x="236.214127" y="307.584" style="stroke: #000000; stroke-width: 0.8"/>
      </g>
     </g>
     <g id="text_4">
      <!-- 1500 -->
      <g transform="translate(223.489127 322.182437) scale(0.1 -0.1)">
       <use xlink:href="#DejaVuSans-31"/>
       <use xlink:href="#DejaVuSans-35" x="63.623047"/>
       <use xlink:href="#DejaVuSans-30" x="127.246094"/>
       <use xlink:href="#DejaVuSans-30" x="190.869141"/>
      </g>
     </g>
    </g>
    <g id="xtick_5">
     <g id="line2d_5">
      <g>
       <use xlink:href="#mc2002f3a06" x="290.34126" y="307.584" style="stroke: #000000; stroke-width: 0.8"/>
      </g>
     </g>
     <g id="text_5">
      <!-- 2000 -->
      <g transform="translate(277.61626 322.182437) scale(0.1 -0.1)">
       <defs>
        <path id="DejaVuSans-32" d="M 1228 531 
L 3431 531 
L 3431 0 
L 469 0 
L 469 531 
Q 828 903 1448 1529 
Q 2069 2156 2228 2338 
Q 2531 2678 2651 2914 
Q 2772 3150 2772 3378 
Q 2772 3750 2511 3984 
Q 2250 4219 1831 4219 
Q 1534 4219 1204 4116 
Q 875 4013 500 3803 
L 500 4441 
Q 881 4594 1212 4672 
Q 1544 4750 1819 4750 
Q 2544 4750 2975 4387 
Q 3406 4025 3406 3419 
Q 3406 3131 3298 2873 
Q 3191 2616 2906 2266 
Q 2828 2175 2409 1742 
Q 1991 1309 1228 531 
z
" transform="scale(0.015625)"/>
       </defs>
       <use xlink:href="#DejaVuSans-32"/>
       <use xlink:href="#DejaVuSans-30" x="63.623047"/>
       <use xlink:href="#DejaVuSans-30" x="127.246094"/>
       <use xlink:href="#DejaVuSans-30" x="190.869141"/>
      </g>
     </g>
    </g>
    <g id="xtick_6">
     <g id="line2d_6">
      <g>
       <use xlink:href="#mc2002f3a06" x="344.468394" y="307.584" style="stroke: #000000; stroke-width: 0.8"/>
      </g>
     </g>
     <g id="text_6">
      <!-- 2500 -->
      <g transform="translate(331.743394 322.182437) scale(0.1 -0.1)">
       <use xlink:href="#DejaVuSans-32"/>
       <use xlink:href="#DejaVuSans-35" x="63.623047"/>
       <use xlink:href="#DejaVuSans-30" x="127.246094"/>
       <use xlink:href="#DejaVuSans-30" x="190.869141"/>
      </g>
     </g>
    </g>
    <g id="xtick_7">
     <g id="line2d_7">
      <g>
       <use xlink:href="#mc2002f3a06" x="398.595527" y="307.584" style="stroke: #000000; stroke-width: 0.8"/>
      </g>
     </g>
     <g id="text_7">
      <!-- 3000 -->
      <g transform="translate(385.870527 322.182437) scale(0.1 -0.1)">
       <defs>
        <path id="DejaVuSans-33" d="M 2597 2516 
Q 3050 2419 3304 2112 
Q 3559 1806 3559 1356 
Q 3559 666 3084 287 
Q 2609 -91 1734 -91 
Q 1441 -91 1130 -33 
Q 819 25 488 141 
L 488 750 
Q 750 597 1062 519 
Q 1375 441 1716 441 
Q 2309 441 2620 675 
Q 2931 909 2931 1356 
Q 2931 1769 2642 2001 
Q 2353 2234 1838 2234 
L 1294 2234 
L 1294 2753 
L 1863 2753 
Q 2328 2753 2575 2939 
Q 2822 3125 2822 3475 
Q 2822 3834 2567 4026 
Q 2313 4219 1838 4219 
Q 1578 4219 1281 4162 
Q 984 4106 628 3988 
L 628 4550 
Q 988 4650 1302 4700 
Q 1616 4750 1894 4750 
Q 2613 4750 3031 4423 
Q 3450 4097 3450 3541 
Q 3450 3153 3228 2886 
Q 3006 2619 2597 2516 
z
" transform="scale(0.015625)"/>
       </defs>
       <use xlink:href="#DejaVuSans-33"/>
       <use xlink:href="#DejaVuSans-30" x="63.623047"/>
       <use xlink:href="#DejaVuSans-30" x="127.246094"/>
       <use xlink:href="#DejaVuSans-30" x="190.869141"/>
      </g>
     </g>
    </g>
   </g>
   <g id="matplotlib.axis_2">
    <g id="ytick_1">
     <g id="line2d_8">
      <defs>
       <path id="m83de953aa2" d="M 0 0 
L -3.5 0 
" style="stroke: #000000; stroke-width: 0.8"/>
      </defs>
      <g>
       <use xlink:href="#m83de953aa2" x="57.6" y="298.482976" style="stroke: #000000; stroke-width: 0.8"/>
      </g>
     </g>
     <g id="text_8">
      <!-- 0 -->
      <g transform="translate(44.2375 302.282195) scale(0.1 -0.1)">
       <use xlink:href="#DejaVuSans-30"/>
      </g>
     </g>
    </g>
    <g id="ytick_2">
     <g id="line2d_9">
      <g>
       <use xlink:href="#m83de953aa2" x="57.6" y="240.624557" style="stroke: #000000; stroke-width: 0.8"/>
      </g>
     </g>
     <g id="text_9">
      <!-- 1000 -->
      <g transform="translate(25.15 244.423776) scale(0.1 -0.1)">
       <use xlink:href="#DejaVuSans-31"/>
       <use xlink:href="#DejaVuSans-30" x="63.623047"/>
       <use xlink:href="#DejaVuSans-30" x="127.246094"/>
       <use xlink:href="#DejaVuSans-30" x="190.869141"/>
      </g>
     </g>
    </g>
    <g id="ytick_3">
     <g id="line2d_10">
      <g>
       <use xlink:href="#m83de953aa2" x="57.6" y="182.766138" style="stroke: #000000; stroke-width: 0.8"/>
      </g>
     </g>
     <g id="text_10">
      <!-- 2000 -->
      <g transform="translate(25.15 186.565357) scale(0.1 -0.1)">
       <use xlink:href="#DejaVuSans-32"/>
       <use xlink:href="#DejaVuSans-30" x="63.623047"/>
       <use xlink:href="#DejaVuSans-30" x="127.246094"/>
       <use xlink:href="#DejaVuSans-30" x="190.869141"/>
      </g>
     </g>
    </g>
    <g id="ytick_4">
     <g id="line2d_11">
      <g>
       <use xlink:href="#m83de953aa2" x="57.6" y="124.90772" style="stroke: #000000; stroke-width: 0.8"/>
      </g>
     </g>
     <g id="text_11">
      <!-- 3000 -->
      <g transform="translate(25.15 128.706938) scale(0.1 -0.1)">
       <use xlink:href="#DejaVuSans-33"/>
       <use xlink:href="#DejaVuSans-30" x="63.623047"/>
       <use xlink:href="#DejaVuSans-30" x="127.246094"/>
       <use xlink:href="#DejaVuSans-30" x="190.869141"/>
      </g>
     </g>
    </g>
    <g id="ytick_5">
     <g id="line2d_12">
      <g>
       <use xlink:href="#m83de953aa2" x="57.6" y="67.049301" style="stroke: #000000; stroke-width: 0.8"/>
      </g>
     </g>
     <g id="text_12">
      <!-- 4000 -->
      <g transform="translate(25.15 70.84852) scale(0.1 -0.1)">
       <defs>
        <path id="DejaVuSans-34" d="M 2419 4116 
L 825 1625 
L 2419 1625 
L 2419 4116 
z
M 2253 4666 
L 3047 4666 
L 3047 1625 
L 3713 1625 
L 3713 1100 
L 3047 1100 
L 3047 0 
L 2419 0 
L 2419 1100 
L 313 1100 
L 313 1709 
L 2253 4666 
z
" transform="scale(0.015625)"/>
       </defs>
       <use xlink:href="#DejaVuSans-34"/>
       <use xlink:href="#DejaVuSans-30" x="63.623047"/>
       <use xlink:href="#DejaVuSans-30" x="127.246094"/>
       <use xlink:href="#DejaVuSans-30" x="190.869141"/>
      </g>
     </g>
    </g>
   </g>
   <g id="line2d_13">
    <path d="M 73.832727 215.372798 
L 73.940982 288.63273 
L 74.049236 205.70808 
L 74.265744 276.201135 
L 74.482253 88.604455 
L 74.590507 211.446317 
L 74.807016 180.132398 
L 75.023524 295.488 
L 75.240033 237.810387 
L 75.348287 295.142287 
L 75.456541 237.810387 
L 75.564796 295.488 
L 75.67305 237.406273 
L 75.781304 237.810387 
L 75.997813 237.810387 
L 76.106067 237.320496 
L 76.322575 295.395618 
L 76.539084 295.395618 
L 76.647338 237.70794 
L 76.755592 295.395618 
L 76.863847 237.70794 
L 77.080355 295.395618 
L 77.18861 295.395618 
L 77.296864 237.70794 
L 77.405118 295.395618 
L 77.621627 237.70794 
L 77.838135 295.395618 
L 78.271152 295.395618 
L 78.379406 237.70794 
L 78.487661 295.395618 
L 78.595915 295.064257 
L 78.812424 295.395618 
L 78.920678 237.320496 
L 79.137186 295.395618 
L 79.245441 237.70794 
L 79.353695 295.064257 
L 79.570203 237.70794 
L 79.678458 295.395618 
L 79.894966 237.70794 
L 80.00322 237.70794 
L 80.219729 295.395618 
L 80.327983 295.395618 
L 80.436238 286.621577 
L 80.652746 295.263374 
L 80.977509 295.263374 
L 81.085763 288.895851 
L 81.302272 295.263374 
L 81.410526 295.263374 
L 81.51878 288.895851 
L 81.735289 295.263374 
L 83.250848 295.263374 
L 83.359103 288.895851 
L 83.575611 295.263374 
L 86.173714 295.263374 
L 86.281968 288.895851 
L 86.498476 295.263374 
L 88.447053 295.263374 
L 88.555308 290.702155 
L 88.771816 295.263374 
L 89.204833 295.263374 
L 89.313087 288.895851 
L 89.421342 295.263374 
L 89.529596 290.587129 
L 89.63785 294.592248 
L 89.854359 289.472068 
L 89.962613 288.324014 
L 90.070867 294.592248 
L 90.39563 283.437617 
L 90.503884 295.070989 
L 90.612139 293.526589 
L 90.828647 290.374786 
L 91.045156 231.340687 
L 91.15341 231.340687 
L 91.261664 230.839262 
L 91.478173 236.211938 
L 93.210241 236.211938 
L 93.318495 294.056413 
L 93.42675 236.167467 
L 93.535004 236.211938 
L 93.968021 236.211938 
L 94.076275 294.056413 
L 94.292784 236.211938 
L 94.509292 236.211938 
L 96.024852 236.211938 
L 96.133106 294.351171 
L 96.349615 236.211938 
L 96.566123 236.345557 
L 96.674378 236.345557 
L 96.890886 290.374786 
L 96.99914 290.374786 
L 97.107395 294.351171 
L 97.215649 236.211938 
L 97.323903 294.351171 
L 97.540412 230.844844 
L 97.648666 230.844844 
L 97.75692 236.211938 
L 97.973429 290.374786 
L 98.298192 290.374786 
L 98.406446 294.351171 
L 98.5147 236.211938 
L 98.731209 290.374786 
L 98.839463 290.374786 
L 98.947717 230.844844 
L 99.164226 290.374786 
L 100.138514 290.374786 
L 100.246768 289.333236 
L 100.463277 290.374786 
L 104.468685 290.374786 
L 104.576939 281.12545 
L 104.793448 290.374786 
L 104.901702 290.374786 
L 105.009956 180.049266 
L 105.226465 290.95791 
L 105.442973 281.12545 
L 105.551227 286.911292 
L 105.767736 281.12545 
L 105.87599 285.750928 
L 106.092499 281.12545 
L 106.200753 289.802911 
L 106.417262 284.018082 
L 106.525516 286.911292 
L 106.63377 114.021992 
L 106.742024 289.802911 
L 106.958533 236.211938 
L 107.066787 236.345557 
L 107.175041 236.211938 
L 107.283296 236.345557 
L 107.499804 290.374786 
L 107.608058 290.374786 
L 107.716313 289.333236 
L 107.824567 294.351171 
L 107.932821 290.374786 
L 108.041076 236.211938 
L 108.14933 290.374786 
L 108.257584 289.333236 
L 108.474093 290.374786 
L 108.582347 290.374786 
L 108.690601 289.333236 
L 108.798855 236.211938 
L 109.015364 293.995187 
L 109.123618 290.374786 
L 109.340127 236.211938 
L 109.448381 236.345557 
L 109.556635 236.211938 
L 109.66489 294.123445 
L 109.881398 236.211938 
L 110.097907 236.211938 
L 110.206161 293.870045 
L 110.314415 236.211938 
L 110.422669 290.060065 
L 110.530924 229.605457 
L 110.639178 293.870045 
L 110.747432 290.376206 
L 110.855686 236.942808 
L 110.963941 123.595451 
L 111.180449 292.759529 
L 111.288704 294.07274 
L 111.396958 232.580386 
L 111.505212 236.324989 
L 111.613466 236.315795 
L 111.721721 265.218989 
L 111.829975 169.88925 
L 112.046483 236.122735 
L 112.154738 236.122735 
L 112.262992 235.843707 
L 112.371246 294.524759 
L 112.804263 236.122735 
L 112.912518 294.139833 
L 113.020772 289.515889 
L 113.129026 222.398888 
L 113.23728 236.31148 
L 113.345535 294.893594 
L 113.562043 289.539305 
L 113.778552 230.342391 
L 113.886806 236.44088 
L 113.99506 236.167467 
L 114.103314 220.927243 
L 114.319823 294.776888 
L 114.428077 236.375703 
L 114.536332 294.266938 
L 114.644586 230.683793 
L 114.75284 294.235503 
L 114.861094 236.506835 
L 114.969349 294.241634 
L 115.077603 224.139437 
L 115.294111 294.629992 
L 115.402366 250.730421 
L 115.618874 293.961551 
L 115.727128 265.336533 
L 115.943637 294.017237 
L 116.160146 265.162885 
L 116.2684 294.139833 
L 116.376654 293.948332 
L 116.484908 293.948332 
L 116.593163 265.115553 
L 116.809671 294.236264 
L 117.02618 265.336533 
L 117.134434 265.115553 
L 117.350942 265.336533 
L 117.567451 265.162885 
L 117.78396 265.412303 
L 117.892214 265.162885 
L 118.108722 265.647565 
L 118.325231 265.115553 
L 118.541739 265.412303 
L 118.974756 264.968059 
L 119.083011 265.518038 
L 119.299519 264.968059 
L 119.407774 264.968059 
L 119.624282 265.162885 
L 119.840791 265.518038 
L 120.057299 265.083454 
L 120.165553 265.162885 
L 120.273808 265.490865 
L 120.490316 265.083454 
L 120.59857 265.162885 
L 120.706825 265.077913 
L 121.031587 265.490865 
L 121.248096 265.255604 
L 121.464605 265.162885 
L 121.789367 265.490865 
L 122.005876 265.083454 
L 122.11413 265.162885 
L 122.222384 208.830327 
L 122.330639 265.490865 
L 122.438893 265.162885 
L 122.547147 230.249851 
L 122.763656 265.490865 
L 122.87191 265.518038 
L 123.088419 265.162885 
L 123.196673 265.336533 
L 123.304927 265.162885 
L 123.521436 265.336533 
L 123.737944 265.336533 
L 123.954453 265.115553 
L 125.903029 265.115553 
L 126.011284 265.336533 
L 126.227792 265.115553 
L 126.336047 265.518038 
L 126.444301 265.162885 
L 126.660809 265.272253 
L 126.877318 265.162885 
L 127.093826 265.272253 
L 127.310335 265.162885 
L 127.418589 265.162885 
L 127.526843 208.189219 
L 127.635098 265.272253 
L 127.743352 264.968059 
L 127.851606 265.319584 
L 127.959861 264.74114 
L 128.176369 265.319584 
L 128.284623 265.319584 
L 128.392878 264.968059 
L 128.501132 265.319584 
L 128.825895 265.272253 
L 129.042403 264.74114 
L 129.367166 264.74114 
L 129.583675 265.319584 
L 129.691929 264.968059 
L 129.800183 265.272253 
L 130.016692 264.74114 
L 130.124946 265.319584 
L 130.2332 264.74114 
L 130.341454 265.319584 
L 130.449709 264.74114 
L 130.666217 265.319584 
L 130.882726 265.319584 
L 131.099234 265.319584 
L 131.207489 264.74114 
L 131.423997 265.319584 
L 131.640506 265.2356 
L 131.74876 265.666852 
L 132.073523 264.74114 
L 132.290031 264.74114 
L 132.398285 265.272253 
L 132.614794 264.968059 
L 132.723048 264.968059 
L 132.831303 265.319584 
L 132.939557 264.968059 
L 133.047811 265.319584 
L 133.156065 265.272253 
L 133.26432 264.74114 
L 133.372574 265.272253 
L 133.480828 264.74114 
L 133.697337 265.319584 
L 134.779879 265.272253 
L 134.888134 208.561643 
L 135.104642 265.319584 
L 135.429405 265.319584 
L 135.537659 264.74114 
L 135.754168 265.319584 
L 136.187185 265.319584 
L 136.295439 265.731967 
L 136.511948 265.319584 
L 137.377982 265.319584 
L 137.486236 265.731967 
L 137.702745 265.319584 
L 138.785287 265.319584 
L 138.893541 264.74114 
L 139.11005 265.319584 
L 139.651321 265.319584 
L 139.759576 264.74114 
L 139.86783 265.319584 
L 139.976084 264.74114 
L 140.084338 265.319584 
L 140.300847 265.319584 
L 140.409101 264.74114 
L 140.62561 265.319584 
L 143.007204 265.319584 
L 143.115458 264.74114 
L 143.331966 265.319584 
L 143.548475 265.319584 
L 143.656729 264.74114 
L 143.873238 265.319584 
L 146.47134 265.272253 
L 146.579594 264.74114 
L 146.796103 265.319584 
L 147.553883 265.319584 
L 147.662137 264.74114 
L 147.878646 265.319584 
L 147.9869 264.74114 
L 148.203408 265.319584 
L 153.291359 265.319584 
L 153.399613 206.644034 
L 153.616122 265.319584 
L 154.157393 265.319584 
L 154.265647 264.74114 
L 154.482156 265.319584 
L 154.698664 265.319584 
L 155.023427 265.319584 
L 155.131681 264.74114 
L 155.34819 265.319584 
L 160.327886 265.319584 
L 160.436141 264.366579 
L 160.652649 265.319584 
L 160.760903 265.319584 
L 160.869158 265.52702 
L 161.085666 265.319584 
L 161.626937 265.319584 
L 161.735192 264.366579 
L 161.843446 265.340144 
L 161.9517 265.319584 
L 188.907013 265.319584 
L 189.015267 265.599426 
L 189.123521 264.366579 
L 189.34003 265.319584 
L 189.773047 265.319584 
L 189.989555 264.366579 
L 190.206064 265.319584 
L 190.639081 265.340144 
L 190.747335 264.366579 
L 190.963844 265.319584 
L 191.180352 265.319584 
L 191.288607 265.669611 
L 191.396861 265.620589 
L 191.613369 265.319584 
L 192.046386 265.319584 
L 192.154641 264.366579 
L 192.371149 265.319584 
L 192.587658 265.319584 
L 192.695912 264.366579 
L 192.912421 265.319584 
L 196.70132 265.319584 
L 196.809574 205.8089 
L 196.917828 265.319584 
L 197.026083 205.625104 
L 197.242591 265.319584 
L 198.108625 265.319584 
L 198.21688 264.961331 
L 198.433388 265.319584 
L 198.649897 265.319584 
L 198.758151 208.493413 
L 198.866405 265.272253 
L 198.974659 264.74114 
L 199.082914 264.635103 
L 199.299422 264.74114 
L 200.057202 264.74114 
L 200.165456 287.791707 
L 200.273711 285.406673 
L 200.381965 229.440181 
L 200.598473 264.781452 
L 200.814982 264.74114 
L 201.356253 264.74114 
L 201.464508 265.036292 
L 201.681016 263.987212 
L 201.78927 205.8089 
L 201.897525 264.74114 
L 202.005779 264.65577 
L 202.655304 264.635103 
L 209.15056 264.635103 
L 209.258815 264.016757 
L 209.475323 264.937113 
L 209.583578 265.033473 
L 209.691832 207.808884 
L 209.800086 209.863497 
L 210.016595 264.635103 
L 210.124849 264.757779 
L 210.341357 264.635103 
L 214.346765 264.635103 
L 214.45502 205.884094 
L 214.671528 265.033473 
L 214.779782 265.033473 
L 214.996291 205.8089 
L 215.212799 264.476915 
L 215.321054 264.127281 
L 215.429308 207.025777 
L 215.645816 263.969356 
L 215.862325 263.969356 
L 215.970579 207.146284 
L 216.078834 208.529303 
L 216.295342 264.300243 
L 217.161376 264.300243 
L 217.377885 293.112096 
L 217.594393 293.112096 
L 217.702648 264.54193 
L 217.919156 293.112096 
L 218.135665 293.112096 
L 218.352173 234.771487 
L 218.460427 292.226231 
L 218.893444 206.614567 
L 219.001699 207.269708 
L 219.109953 293.2849 
L 219.218207 206.614567 
L 219.326462 207.158001 
L 219.434716 206.539655 
L 219.54297 293.056954 
L 219.759479 206.224753 
L 219.975987 206.224753 
L 220.084241 234.771562 
L 220.192496 206.09024 
L 220.30075 234.994754 
L 220.409004 206.059191 
L 220.625513 234.994754 
L 220.733767 234.994754 
L 220.950276 234.662353 
L 221.05853 293.377371 
L 221.383293 236.116248 
L 221.491547 234.352383 
L 221.599801 293.723038 
L 221.708055 293.660747 
L 221.81631 236.972814 
L 221.924564 237.142769 
L 222.032818 237.142769 
L 222.141072 236.972814 
L 222.357581 237.355553 
L 222.682344 237.355553 
L 222.790598 179.529233 
L 223.115361 293.720184 
L 224.306158 293.720184 
L 224.414412 285.664627 
L 224.522666 231.001462 
L 224.739175 236.257036 
L 224.955683 230.580478 
L 225.172192 230.580478 
L 225.3887 179.699308 
L 225.496955 183.171625 
L 225.713463 152.221602 
L 226.038226 285.664627 
L 226.254735 196.50841 
L 226.471243 258.194898 
L 226.579497 269.76659 
L 226.687752 267.741537 
L 226.796006 269.766598 
L 226.90426 257.905618 
L 227.012514 278.156065 
L 227.120769 259.641359 
L 227.337277 285.753571 
L 227.445532 251.195192 
L 227.66204 285.664628 
L 228.095057 285.664632 
L 228.203311 277.306982 
L 228.41982 285.664627 
L 228.528074 285.664627 
L 228.636328 273.259499 
L 228.852837 285.664634 
L 228.961091 285.66463 
L 229.069346 285.407846 
L 229.1776 178.194617 
L 229.285854 234.38488 
L 229.502363 231.175204 
L 229.718871 178.324945 
L 229.827125 178.329039 
L 229.93538 275.662791 
L 230.043634 248.475283 
L 230.151888 259.006085 
L 230.260142 217.220684 
L 230.476651 256.691735 
L 230.584905 184.916705 
L 230.69316 263.739613 
L 230.909668 234.223537 
L 231.342685 150.480581 
L 231.559194 254.124574 
L 231.667448 207.861331 
L 231.775702 241.64816 
L 231.992211 231.102291 
L 232.100465 151.808796 
L 232.316974 265.116697 
L 232.425228 252.217339 
L 232.641736 110.834198 
L 232.749991 237.369666 
L 232.966499 169.208265 
L 233.074753 293.175656 
L 233.183008 111.064477 
L 233.50777 268.792723 
L 233.832533 168.881645 
L 234.049042 236.177059 
L 234.482059 236.177059 
L 234.590313 221.633535 
L 234.698567 293.086279 
L 234.806822 238.414229 
L 235.02333 289.476212 
L 235.348093 145.104707 
L 235.672856 229.655117 
L 235.78111 229.655117 
L 235.889364 234.400332 
L 236.105873 229.124268 
L 236.322381 229.439064 
L 237.188416 229.439064 
L 237.404924 286.911292 
L 240.544298 286.911292 
L 240.760806 110.111008 
L 240.869061 130.072162 
L 240.977315 192.269962 
L 241.085569 186.48412 
L 241.193823 197.47722 
L 241.410332 281.12545 
L 241.518586 265.460862 
L 241.62684 164.370054 
L 241.735095 201.552648 
L 242.059858 123.757105 
L 242.168112 133.994384 
L 242.276366 142.962439 
L 242.492875 286.911292 
L 248.013842 286.911292 
L 248.122096 170.454362 
L 248.230351 286.911292 
L 248.338605 285.583442 
L 248.555114 286.911292 
L 254.725607 286.911292 
L 254.833861 286.74061 
L 255.05037 286.911292 
L 255.158624 286.74061 
L 255.375132 286.911292 
L 255.591641 285.583442 
L 255.699895 286.74061 
L 255.916404 282.401229 
L 256.024658 281.24406 
L 256.241166 276.615387 
L 256.349421 277.483263 
L 256.565929 286.911292 
L 256.674184 280.086892 
L 256.890692 286.911292 
L 257.107201 286.911292 
L 257.215455 283.847689 
L 257.431963 286.911292 
L 257.648472 286.911292 
L 257.756726 286.451318 
L 257.86498 284.426273 
L 257.973235 286.162026 
L 258.189743 284.426273 
L 258.297998 280.954768 
L 258.406252 286.911292 
L 258.62276 282.401229 
L 258.731015 286.911292 
L 258.947523 284.715565 
L 259.055777 286.911292 
L 259.164032 285.872734 
L 259.38054 282.690521 
L 259.488794 283.558397 
L 259.705303 281.533352 
L 259.813557 281.822644 
L 260.030066 286.911292 
L 260.13832 283.558397 
L 260.246574 285.004857 
L 260.354829 284.715565 
L 260.463083 285.583442 
L 260.571337 282.401229 
L 260.8961 285.872734 
L 261.220863 281.822644 
L 261.329117 284.426273 
L 261.437371 284.136981 
L 261.65388 286.911292 
L 261.978643 282.690521 
L 262.086897 282.111936 
L 262.195151 282.979813 
L 262.303405 286.911292 
L 262.41166 284.426273 
L 262.628168 286.162026 
L 262.844677 280.665476 
L 262.952931 280.376184 
L 263.061185 286.911292 
L 263.277694 281.533352 
L 263.385948 277.772555 
L 263.494202 278.640431 
L 263.710711 286.911292 
L 263.818965 278.929723 
L 263.927219 286.911292 
L 264.143728 278.640431 
L 264.251982 286.911292 
L 264.360236 285.583442 
L 264.468491 286.911292 
L 264.684999 282.979813 
L 264.901508 284.715565 
L 265.009762 285.583442 
L 265.118016 281.533352 
L 265.226271 286.911292 
L 265.334525 281.533352 
L 265.442779 286.911292 
L 265.551033 280.086892 
L 265.659288 280.954768 
L 265.767542 284.136981 
L 265.875796 280.954768 
L 266.092305 286.911292 
L 266.525322 286.911292 
L 266.633576 280.376184 
L 266.74183 286.911292 
L 266.850085 281.822644 
L 266.958339 286.911292 
L 267.066593 279.219015 
L 267.391356 286.911292 
L 267.49961 286.911292 
L 267.607864 279.508308 
L 267.824373 286.911292 
L 267.932627 286.911292 
L 268.040882 275.74751 
L 268.365644 286.911292 
L 269.556441 286.911292 
L 269.664696 284.426273 
L 269.77295 286.911292 
L 269.989458 282.111936 
L 270.097713 283.847689 
L 270.205967 282.690521 
L 270.314221 278.929723 
L 270.422475 285.004857 
L 270.53073 284.715565 
L 270.638984 282.111936 
L 270.747238 286.451318 
L 270.855492 285.583442 
L 270.963747 277.772555 
L 271.180255 286.911292 
L 271.396764 286.911292 
L 271.613272 281.24406 
L 271.721527 146.237718 
L 271.938035 263.686516 
L 272.154544 139.530567 
L 272.262798 286.451318 
L 272.479306 140.867126 
L 272.587561 134.321148 
L 272.804069 61.476957 
L 272.912324 53.851217 
L 273.020578 105.381493 
L 273.128832 77.860146 
L 273.345341 202.526224 
L 273.453595 289.424492 
L 273.561849 106.500434 
L 273.670103 148.183494 
L 273.886612 101.347433 
L 273.994866 88.759805 
L 274.10312 193.791583 
L 274.211375 88.759805 
L 274.319629 100.774873 
L 274.427883 97.998265 
L 274.536138 123.044163 
L 274.644392 99.900983 
L 274.752646 110.026129 
L 274.8609 179.238667 
L 274.969155 172.768055 
L 275.185663 198.339823 
L 275.293917 115.811923 
L 275.402172 171.321622 
L 275.510426 163.366918 
L 275.61868 53.568 
L 275.726934 155.851882 
L 275.943443 141.609534 
L 276.051697 98.510673 
L 276.268206 222.262031 
L 276.37646 126.226024 
L 276.484714 182.894642 
L 276.592969 150.966855 
L 276.701223 159.633844 
L 276.809477 106.33401 
L 276.917731 110.673391 
L 277.13424 108.937639 
L 277.242494 116.833147 
L 277.350748 96.089781 
L 277.459003 207.109518 
L 277.567257 138.348251 
L 277.783765 213.990541 
L 277.89202 114.24163 
L 278.000274 241.99507 
L 278.108528 130.255337 
L 278.216783 150.788291 
L 278.325037 98.442961 
L 278.433291 169.102134 
L 278.541545 166.209279 
L 278.6498 251.819872 
L 278.866308 138.039248 
L 279.082817 253.33041 
L 279.191071 155.013206 
L 279.299325 179.290717 
L 279.407579 170.726284 
L 279.515834 240.153818 
L 279.624088 177.380343 
L 279.840597 252.592015 
L 279.948851 237.283441 
L 280.165359 252.315586 
L 280.706631 252.315586 
L 280.923139 155.014525 
L 281.031393 134.123659 
L 281.247902 206.131007 
L 281.356156 195.629815 
L 281.464411 193.033024 
L 281.680919 239.32873 
L 281.789173 233.492233 
L 282.005682 237.69874 
L 282.113936 252.363586 
L 282.22219 244.488876 
L 282.330445 191.238346 
L 282.438699 215.812166 
L 282.546953 208.158041 
L 282.655207 208.691244 
L 282.871716 226.187515 
L 282.97997 226.187515 
L 283.196479 266.394478 
L 283.521242 169.854018 
L 283.73775 105.587872 
L 283.846004 201.24693 
L 283.954259 171.416705 
L 284.170767 194.558241 
L 284.387276 194.558241 
L 284.49553 190.219361 
L 284.603784 155.506253 
L 284.712039 158.399082 
L 284.820293 87.523727 
L 284.928547 116.452616 
L 285.036801 91.863068 
L 285.145056 107.773964 
L 285.469818 82.720919 
L 285.686327 107.009131 
L 286.01109 266.293968 
L 286.227598 150.830897 
L 286.335853 264.966709 
L 286.552361 208.55016 
L 288.717446 208.55016 
L 288.825701 208.25177 
L 288.933955 208.380727 
L 289.042209 208.99279 
L 289.258718 208.25177 
L 289.366972 208.99279 
L 289.475226 208.380727 
L 289.691735 208.99279 
L 290.124752 208.99279 
L 290.233006 208.380727 
L 290.449515 208.99279 
L 290.666023 208.72289 
L 295.104448 208.72289 
L 295.212702 263.546966 
L 295.537465 240.415445 
L 295.753974 264.668639 
L 295.862228 264.165806 
L 296.078737 207.370772 
L 296.186991 254.999607 
L 296.295245 228.11094 
L 296.403499 264.670481 
L 296.511754 264.57321 
L 296.728262 264.594098 
L 297.161279 265.430691 
L 297.269533 265.341818 
L 297.377788 265.505125 
L 297.702551 265.437836 
L 297.810805 265.65893 
L 297.919059 265.450339 
L 298.027313 266.000719 
L 298.243822 265.648177 
L 298.352076 265.460888 
L 298.46033 265.038302 
L 298.568585 265.779027 
L 298.676839 265.185374 
L 298.785093 265.379304 
L 298.893347 264.934181 
L 299.001602 265.355954 
L 299.109856 264.400869 
L 299.326365 265.241369 
L 299.542873 264.594098 
L 299.651127 264.848713 
L 299.759382 197.175963 
L 299.867636 217.325576 
L 299.97589 264.718892 
L 300.192399 206.797868 
L 300.300653 208.526758 
L 300.408907 206.785677 
L 300.625416 265.21881 
L 300.841924 246.757754 
L 300.950179 207.713301 
L 301.058433 264.154176 
L 301.166687 181.02778 
L 301.383196 266.111332 
L 301.599704 196.92384 
L 301.707958 238.681462 
L 301.816213 195.796946 
L 301.924467 235.565768 
L 302.032721 229.683223 
L 302.24923 240.699126 
L 302.357484 232.421156 
L 302.573993 263.503852 
L 305.496858 263.503852 
L 305.605112 265.471129 
L 305.713366 265.245991 
L 305.929875 263.503852 
L 306.038129 208.843571 
L 306.146383 266.899344 
L 306.254638 233.179831 
L 306.362892 266.774788 
L 306.471146 201.728776 
L 306.5794 66.758094 
L 306.795909 263.057872 
L 307.012417 58.947481 
L 307.120672 239.064268 
L 307.33718 59.352974 
L 307.445435 58.601922 
L 307.553689 59.352974 
L 307.661943 65.834182 
L 307.770197 59.352974 
L 307.878452 62.941279 
L 308.09496 59.197624 
L 308.203214 59.197624 
L 308.311469 59.543684 
L 308.419723 65.905056 
L 308.636231 58.675836 
L 308.85274 63.012151 
L 308.960994 59.197624 
L 309.069249 63.012151 
L 309.285757 59.197624 
L 309.718774 59.197624 
L 309.827028 67.351508 
L 310.043537 59.197624 
L 310.151791 59.197624 
L 310.260045 64.458604 
L 310.3683 59.197624 
L 310.476554 61.565699 
L 310.584808 59.197624 
L 310.693063 103.035485 
L 310.801317 95.360912 
L 310.909571 117.572534 
L 311.12608 243.486376 
L 311.450842 237.989861 
L 311.559097 241.751036 
L 311.775605 235.386283 
L 311.883859 235.098945 
L 311.992114 234.226753 
L 312.100368 239.721857 
L 312.316877 231.626049 
L 312.533385 233.361818 
L 312.641639 233.647377 
L 312.749894 234.517456 
L 313.074656 220.346177 
L 313.182911 207.32537 
L 313.291165 212.823195 
L 313.399419 209.639633 
L 313.615928 216.584794 
L 313.832436 203.277903 
L 313.940691 198.359617 
L 314.048945 207.907595 
L 314.157199 202.409895 
L 314.265453 188.236172 
L 314.481962 199.808675 
L 314.69847 209.066376 
L 314.806725 188.524422 
L 315.023233 209.353791 
L 315.131487 206.748546 
L 315.239742 207.034097 
L 315.347996 206.748546 
L 315.45625 208.768738 
L 315.564505 216.005369 
L 315.672759 211.664097 
L 315.781013 217.741298 
L 315.997522 215.428285 
L 316.105776 223.235272 
L 316.21403 213.688569 
L 316.430539 227.577946 
L 316.647047 217.159299 
L 316.755301 224.395114 
L 316.863556 220.634808 
L 317.080064 224.105471 
L 317.188319 223.818964 
L 317.296573 221.789045 
L 317.404827 224.973392 
L 317.513081 222.366049 
L 317.72959 228.153341 
L 317.837844 223.235272 
L 317.946098 227.577106 
L 318.054353 225.550606 
L 318.162607 228.735801 
L 318.270861 226.126525 
L 318.48737 230.181458 
L 318.595624 228.151013 
L 318.703878 230.178882 
L 318.920387 227.522775 
L 319.028641 207.379105 
L 319.136895 212.960189 
L 319.24515 203.692491 
L 319.461658 231.622903 
L 319.569912 229.018995 
L 319.678167 228.732684 
L 319.786421 231.335424 
L 319.894675 230.468526 
L 320.002929 230.759046 
L 320.219438 237.121148 
L 320.327692 231.046802 
L 320.544201 233.93593 
L 320.652455 237.121148 
L 320.760709 235.675853 
L 320.868964 256.00938 
L 320.977218 205.502519 
L 321.193726 266.640409 
L 321.626743 266.630895 
L 321.734998 127.548027 
L 321.843252 266.640409 
L 322.059761 58.836298 
L 323.250557 58.836298 
L 323.358812 62.689323 
L 323.57532 266.619406 
L 323.683575 244.969883 
L 323.900083 266.619406 
L 324.116592 266.619406 
L 324.224846 257.986921 
L 324.3331 266.619406 
L 324.441354 262.03486 
L 324.549609 266.619406 
L 324.657863 249.307615 
L 324.766117 263.772344 
L 324.874371 259.722398 
L 325.09088 266.619406 
L 325.199134 266.64986 
L 325.307389 263.771886 
L 325.523897 266.619406 
L 325.632151 263.923648 
L 325.84866 266.952601 
L 325.956914 266.619406 
L 326.065168 263.723625 
L 326.281677 266.619406 
L 326.498185 263.697272 
L 326.931203 263.697771 
L 327.039457 258.253689 
L 327.147711 266.545791 
L 327.255965 266.099519 
L 327.472474 266.619586 
L 327.580728 266.708303 
L 327.688982 266.545791 
L 327.905491 266.619406 
L 330.828356 266.619406 
L 330.93661 266.78432 
L 331.153119 266.619406 
L 331.261373 266.619406 
L 331.369627 263.697272 
L 331.477882 78.805429 
L 331.69439 266.619406 
L 332.127407 266.619406 
L 332.235662 265.866779 
L 332.343916 266.058849 
L 332.560424 265.702009 
L 332.776933 266.619406 
L 332.885187 266.329958 
L 332.993441 266.619406 
L 333.101696 209.034026 
L 333.318204 266.619406 
L 336.349324 266.619406 
L 336.457578 265.866779 
L 336.674087 229.724521 
L 336.782341 81.182022 
L 336.890595 84.653706 
L 337.107104 266.619406 
L 339.380443 266.619406 
L 339.596952 266.78432 
L 356.376363 266.78432 
L 356.484617 266.505379 
L 356.592872 266.78432 
L 356.701126 266.505379 
L 356.80938 266.78432 
L 356.917634 266.023668 
L 357.025889 266.626968 
L 357.134143 266.550686 
L 357.350651 266.78432 
L 357.56716 266.622328 
L 357.675414 266.623533 
L 357.783668 266.78432 
L 358.000177 266.627669 
L 358.216686 266.78432 
L 358.433194 266.621937 
L 358.649703 266.621802 
L 358.866211 266.78432 
L 366.877027 266.799433 
L 366.985281 260.205746 
L 367.093535 261.073463 
L 367.20179 265.41194 
L 367.310044 250.081888 
L 367.418298 129.567482 
L 367.526552 131.01393 
L 367.634807 116.549446 
L 367.743061 133.906824 
L 367.851315 239.957192 
L 367.95957 239.956753 
L 368.067824 239.378751 
L 368.176078 237.932002 
L 368.284332 239.378751 
L 368.392587 243.139834 
L 368.500841 237.06362 
L 368.609095 239.089722 
L 368.717349 237.643414 
L 368.825604 244.297048 
L 368.933858 239.378319 
L 369.042112 241.403879 
L 369.150366 237.064116 
L 369.258621 241.404489 
L 369.475129 233.882924 
L 369.583384 234.171934 
L 369.691638 240.825427 
L 369.799892 91.959791 
L 369.908146 230.411846 
L 370.016401 221.442825 
L 370.232909 235.329238 
L 370.341163 229.832486 
L 370.449418 230.12144 
L 370.557672 236.197104 
L 370.77418 229.832486 
L 370.882435 231.856719 
L 370.990689 239.090426 
L 371.098943 231.278293 
L 371.315452 235.329603 
L 371.423706 235.619227 
L 371.53196 231.278293 
L 371.748469 234.170417 
L 371.856723 234.461368 
L 371.964977 235.329238 
L 372.073232 238.511818 
L 372.181486 237.643414 
L 372.28974 239.66776 
L 372.397994 239.379625 
L 372.506249 237.353566 
L 372.614503 238.220981 
L 372.722757 240.825059 
L 372.939266 238.510881 
L 373.155774 241.403068 
L 373.372283 245.453931 
L 373.480537 239.667301 
L 373.588791 244.296474 
L 373.8053 243.717666 
L 374.021808 246.610873 
L 374.130063 245.16459 
L 374.238317 248.345948 
L 374.346571 245.742406 
L 374.454826 246.032404 
L 374.56308 248.056548 
L 374.671334 246.031828 
L 374.779588 247.478106 
L 374.887843 245.453371 
L 374.996097 247.478106 
L 375.104351 247.189529 
L 375.212605 246.321734 
L 375.32086 244.296474 
L 375.537368 248.056548 
L 375.753877 248.924392 
L 375.862131 247.478106 
L 375.970385 248.924714 
L 376.07864 248.635615 
L 376.295148 249.214365 
L 376.403402 247.767138 
L 376.511657 248.057151 
L 376.619911 251.238804 
L 376.728165 248.635801 
L 376.836419 249.503584 
L 376.944674 248.635615 
L 377.161182 249.792229 
L 377.269436 247.7678 
L 377.485945 251.23902 
L 377.594199 250.949865 
L 377.702454 251.527887 
L 377.810708 250.949692 
L 378.027216 255.577572 
L 378.135471 254.709773 
L 378.243725 265.451828 
L 378.351979 254.709773 
L 378.460233 259.080233 
L 378.568488 255.577572 
L 378.676742 257.313148 
L 378.89325 252.424331 
L 379.001505 262.553278 
L 379.218013 253.870248 
L 379.434522 252.106332 
L 379.65103 259.948517 
L 379.759285 252.106332 
L 379.867539 253.553059 
L 379.975793 251.238505 
L 380.084047 253.553059 
L 380.300556 251.817489 
L 380.517064 255.288594 
L 380.625319 264.81231 
L 380.733573 264.420785 
L 381.274844 264.742253 
L 381.491353 264.441142 
L 381.599607 251.817489 
L 381.707861 254.420831 
L 381.816116 253.553059 
L 381.92437 250.949692 
L 382.140878 256.156347 
L 382.465641 253.553059 
L 382.573896 254.420831 
L 382.790404 263.09794 
L 382.898658 255.288594 
L 383.006913 256.156347 
L 383.115167 255.288594 
L 383.223421 256.156347 
L 383.43993 264.290971 
L 383.548184 264.536069 
L 383.656438 264.264834 
L 383.872947 254.420831 
L 383.981201 266.798033 
L 384.19771 264.099639 
L 384.414218 264.099639 
L 384.522472 264.286725 
L 384.630727 264.180162 
L 384.738981 264.359222 
L 384.847235 264.209046 
L 384.955489 264.285836 
L 385.063744 264.153327 
L 385.280252 264.577656 
L 385.388506 264.211447 
L 385.496761 264.290971 
L 385.713269 264.559281 
L 386.038032 264.290971 
L 386.146286 264.367382 
L 386.362795 264.099639 
L 387.228829 264.099639 
L 387.337083 264.315808 
L 387.445338 266.708303 
L 387.661846 264.098169 
L 390.584711 264.099639 
L 390.80122 266.78432 
L 394.157102 266.78432 
L 394.373611 263.746638 
L 394.481865 264.096502 
L 394.698373 266.78432 
L 394.806628 266.78432 
L 395.023136 264.099639 
L 395.13139 264.099639 
L 395.347899 264.543357 
L 395.456153 264.099639 
L 395.564408 265.283087 
L 395.780916 264.099639 
L 395.88917 264.099639 
L 395.997425 266.95242 
L 396.213933 264.099639 
L 396.322187 264.099639 
L 396.430442 265.433962 
L 396.64695 264.254143 
L 396.755204 228.037519 
L 396.863459 264.561073 
L 396.971713 264.041589 
L 397.621239 264.041589 
L 397.837747 263.865683 
L 398.487273 263.865683 
L 398.487273 263.865683 
" clip-path="url(#pec8a812df7)" style="fill: none; stroke: #1f77b4; stroke-width: 1.5; stroke-linecap: square"/>
   </g>
   <g id="patch_3">
    <path d="M 57.6 307.584 
L 57.6 41.472 
" style="fill: none; stroke: #000000; stroke-width: 0.8; stroke-linejoin: miter; stroke-linecap: square"/>
   </g>
   <g id="patch_4">
    <path d="M 414.72 307.584 
L 414.72 41.472 
" style="fill: none; stroke: #000000; stroke-width: 0.8; stroke-linejoin: miter; stroke-linecap: square"/>
   </g>
   <g id="patch_5">
    <path d="M 57.6 307.584 
L 414.72 307.584 
" style="fill: none; stroke: #000000; stroke-width: 0.8; stroke-linejoin: miter; stroke-linecap: square"/>
   </g>
   <g id="patch_6">
    <path d="M 57.6 41.472 
L 414.72 41.472 
" style="fill: none; stroke: #000000; stroke-width: 0.8; stroke-linejoin: miter; stroke-linecap: square"/>
   </g>
  </g>
 </g>
 <defs>
  <clipPath id="pec8a812df7">
   <rect x="57.6" y="41.472" width="357.12" height="266.112"/>
  </clipPath>
 </defs>
</svg>
