<?xml version="1.0" encoding="utf-8" standalone="no"?>
<!DOCTYPE svg PUBLIC "-//W3C//DTD SVG 1.1//EN"
  "http://www.w3.org/Graphics/SVG/1.1/DTD/svg11.dtd">
<svg xmlns:xlink="http://www.w3.org/1999/xlink" width="460.8pt" height="345.6pt" viewBox="0 0 460.8 345.6" xmlns="http://www.w3.org/2000/svg" version="1.1">
 <metadata>
  <rdf:RDF xmlns:dc="http://purl.org/dc/elements/1.1/" xmlns:cc="http://creativecommons.org/ns#" xmlns:rdf="http://www.w3.org/1999/02/22-rdf-syntax-ns#">
   <cc:Work>
    <dc:type rdf:resource="http://purl.org/dc/dcmitype/StillImage"/>
    <dc:date>2024-04-20T21:04:12.571439</dc:date>
    <dc:format>image/svg+xml</dc:format>
    <dc:creator>
     <cc:Agent>
      <dc:title>Matplotlib v3.7.2, https://matplotlib.org/</dc:title>
     </cc:Agent>
    </dc:creator>
   </cc:Work>
  </rdf:RDF>
 </metadata>
 <defs>
  <style type="text/css">*{stroke-linejoin: round; stroke-linecap: butt}</style>
 </defs>
 <g id="figure_1">
  <g id="patch_1">
   <path d="M 0 345.6 
L 460.8 345.6 
L 460.8 0 
L 0 0 
z
" style="fill: #ffffff"/>
  </g>
  <g id="axes_1">
   <g id="patch_2">
    <path d="M 57.6 307.584 
L 414.72 307.584 
L 414.72 41.472 
L 57.6 41.472 
z
" style="fill: #ffffff"/>
   </g>
   <g id="matplotlib.axis_1">
    <g id="xtick_1">
     <g id="line2d_1">
      <defs>
       <path id="m42b56c511b" d="M 0 0 
L 0 3.5 
" style="stroke: #000000; stroke-width: 0.8"/>
      </defs>
      <g>
       <use xlink:href="#m42b56c511b" x="73.832727" y="307.584" style="stroke: #000000; stroke-width: 0.8"/>
      </g>
     </g>
     <g id="text_1">
      <!-- 0 -->
      <g transform="translate(70.651477 322.182437) scale(0.1 -0.1)">
       <defs>
        <path id="DejaVuSans-30" d="M 2034 4250 
Q 1547 4250 1301 3770 
Q 1056 3291 1056 2328 
Q 1056 1369 1301 889 
Q 1547 409 2034 409 
Q 2525 409 2770 889 
Q 3016 1369 3016 2328 
Q 3016 3291 2770 3770 
Q 2525 4250 2034 4250 
z
M 2034 4750 
Q 2819 4750 3233 4129 
Q 3647 3509 3647 2328 
Q 3647 1150 3233 529 
Q 2819 -91 2034 -91 
Q 1250 -91 836 529 
Q 422 1150 422 2328 
Q 422 3509 836 4129 
Q 1250 4750 2034 4750 
z
" transform="scale(0.015625)"/>
       </defs>
       <use xlink:href="#DejaVuSans-30"/>
      </g>
     </g>
    </g>
    <g id="xtick_2">
     <g id="line2d_2">
      <g>
       <use xlink:href="#m42b56c511b" x="138.828632" y="307.584" style="stroke: #000000; stroke-width: 0.8"/>
      </g>
     </g>
     <g id="text_2">
      <!-- 200 -->
      <g transform="translate(129.284882 322.182437) scale(0.1 -0.1)">
       <defs>
        <path id="DejaVuSans-32" d="M 1228 531 
L 3431 531 
L 3431 0 
L 469 0 
L 469 531 
Q 828 903 1448 1529 
Q 2069 2156 2228 2338 
Q 2531 2678 2651 2914 
Q 2772 3150 2772 3378 
Q 2772 3750 2511 3984 
Q 2250 4219 1831 4219 
Q 1534 4219 1204 4116 
Q 875 4013 500 3803 
L 500 4441 
Q 881 4594 1212 4672 
Q 1544 4750 1819 4750 
Q 2544 4750 2975 4387 
Q 3406 4025 3406 3419 
Q 3406 3131 3298 2873 
Q 3191 2616 2906 2266 
Q 2828 2175 2409 1742 
Q 1991 1309 1228 531 
z
" transform="scale(0.015625)"/>
       </defs>
       <use xlink:href="#DejaVuSans-32"/>
       <use xlink:href="#DejaVuSans-30" x="63.623047"/>
       <use xlink:href="#DejaVuSans-30" x="127.246094"/>
      </g>
     </g>
    </g>
    <g id="xtick_3">
     <g id="line2d_3">
      <g>
       <use xlink:href="#m42b56c511b" x="203.824537" y="307.584" style="stroke: #000000; stroke-width: 0.8"/>
      </g>
     </g>
     <g id="text_3">
      <!-- 400 -->
      <g transform="translate(194.280787 322.182437) scale(0.1 -0.1)">
       <defs>
        <path id="DejaVuSans-34" d="M 2419 4116 
L 825 1625 
L 2419 1625 
L 2419 4116 
z
M 2253 4666 
L 3047 4666 
L 3047 1625 
L 3713 1625 
L 3713 1100 
L 3047 1100 
L 3047 0 
L 2419 0 
L 2419 1100 
L 313 1100 
L 313 1709 
L 2253 4666 
z
" transform="scale(0.015625)"/>
       </defs>
       <use xlink:href="#DejaVuSans-34"/>
       <use xlink:href="#DejaVuSans-30" x="63.623047"/>
       <use xlink:href="#DejaVuSans-30" x="127.246094"/>
      </g>
     </g>
    </g>
    <g id="xtick_4">
     <g id="line2d_4">
      <g>
       <use xlink:href="#m42b56c511b" x="268.820442" y="307.584" style="stroke: #000000; stroke-width: 0.8"/>
      </g>
     </g>
     <g id="text_4">
      <!-- 600 -->
      <g transform="translate(259.276692 322.182437) scale(0.1 -0.1)">
       <defs>
        <path id="DejaVuSans-36" d="M 2113 2584 
Q 1688 2584 1439 2293 
Q 1191 2003 1191 1497 
Q 1191 994 1439 701 
Q 1688 409 2113 409 
Q 2538 409 2786 701 
Q 3034 994 3034 1497 
Q 3034 2003 2786 2293 
Q 2538 2584 2113 2584 
z
M 3366 4563 
L 3366 3988 
Q 3128 4100 2886 4159 
Q 2644 4219 2406 4219 
Q 1781 4219 1451 3797 
Q 1122 3375 1075 2522 
Q 1259 2794 1537 2939 
Q 1816 3084 2150 3084 
Q 2853 3084 3261 2657 
Q 3669 2231 3669 1497 
Q 3669 778 3244 343 
Q 2819 -91 2113 -91 
Q 1303 -91 875 529 
Q 447 1150 447 2328 
Q 447 3434 972 4092 
Q 1497 4750 2381 4750 
Q 2619 4750 2861 4703 
Q 3103 4656 3366 4563 
z
" transform="scale(0.015625)"/>
       </defs>
       <use xlink:href="#DejaVuSans-36"/>
       <use xlink:href="#DejaVuSans-30" x="63.623047"/>
       <use xlink:href="#DejaVuSans-30" x="127.246094"/>
      </g>
     </g>
    </g>
    <g id="xtick_5">
     <g id="line2d_5">
      <g>
       <use xlink:href="#m42b56c511b" x="333.816347" y="307.584" style="stroke: #000000; stroke-width: 0.8"/>
      </g>
     </g>
     <g id="text_5">
      <!-- 800 -->
      <g transform="translate(324.272597 322.182437) scale(0.1 -0.1)">
       <defs>
        <path id="DejaVuSans-38" d="M 2034 2216 
Q 1584 2216 1326 1975 
Q 1069 1734 1069 1313 
Q 1069 891 1326 650 
Q 1584 409 2034 409 
Q 2484 409 2743 651 
Q 3003 894 3003 1313 
Q 3003 1734 2745 1975 
Q 2488 2216 2034 2216 
z
M 1403 2484 
Q 997 2584 770 2862 
Q 544 3141 544 3541 
Q 544 4100 942 4425 
Q 1341 4750 2034 4750 
Q 2731 4750 3128 4425 
Q 3525 4100 3525 3541 
Q 3525 3141 3298 2862 
Q 3072 2584 2669 2484 
Q 3125 2378 3379 2068 
Q 3634 1759 3634 1313 
Q 3634 634 3220 271 
Q 2806 -91 2034 -91 
Q 1263 -91 848 271 
Q 434 634 434 1313 
Q 434 1759 690 2068 
Q 947 2378 1403 2484 
z
M 1172 3481 
Q 1172 3119 1398 2916 
Q 1625 2713 2034 2713 
Q 2441 2713 2670 2916 
Q 2900 3119 2900 3481 
Q 2900 3844 2670 4047 
Q 2441 4250 2034 4250 
Q 1625 4250 1398 4047 
Q 1172 3844 1172 3481 
z
" transform="scale(0.015625)"/>
       </defs>
       <use xlink:href="#DejaVuSans-38"/>
       <use xlink:href="#DejaVuSans-30" x="63.623047"/>
       <use xlink:href="#DejaVuSans-30" x="127.246094"/>
      </g>
     </g>
    </g>
    <g id="xtick_6">
     <g id="line2d_6">
      <g>
       <use xlink:href="#m42b56c511b" x="398.812252" y="307.584" style="stroke: #000000; stroke-width: 0.8"/>
      </g>
     </g>
     <g id="text_6">
      <!-- 1000 -->
      <g transform="translate(386.087252 322.182437) scale(0.1 -0.1)">
       <defs>
        <path id="DejaVuSans-31" d="M 794 531 
L 1825 531 
L 1825 4091 
L 703 3866 
L 703 4441 
L 1819 4666 
L 2450 4666 
L 2450 531 
L 3481 531 
L 3481 0 
L 794 0 
L 794 531 
z
" transform="scale(0.015625)"/>
       </defs>
       <use xlink:href="#DejaVuSans-31"/>
       <use xlink:href="#DejaVuSans-30" x="63.623047"/>
       <use xlink:href="#DejaVuSans-30" x="127.246094"/>
       <use xlink:href="#DejaVuSans-30" x="190.869141"/>
      </g>
     </g>
    </g>
   </g>
   <g id="matplotlib.axis_2">
    <g id="ytick_1">
     <g id="line2d_7">
      <defs>
       <path id="m1e77f1b5e6" d="M 0 0 
L -3.5 0 
" style="stroke: #000000; stroke-width: 0.8"/>
      </defs>
      <g>
       <use xlink:href="#m1e77f1b5e6" x="57.6" y="298.758338" style="stroke: #000000; stroke-width: 0.8"/>
      </g>
     </g>
     <g id="text_7">
      <!-- 0 -->
      <g transform="translate(44.2375 302.557556) scale(0.1 -0.1)">
       <use xlink:href="#DejaVuSans-30"/>
      </g>
     </g>
    </g>
    <g id="ytick_2">
     <g id="line2d_8">
      <g>
       <use xlink:href="#m1e77f1b5e6" x="57.6" y="269.094747" style="stroke: #000000; stroke-width: 0.8"/>
      </g>
     </g>
     <g id="text_8">
      <!-- 500 -->
      <g transform="translate(31.5125 272.893966) scale(0.1 -0.1)">
       <defs>
        <path id="DejaVuSans-35" d="M 691 4666 
L 3169 4666 
L 3169 4134 
L 1269 4134 
L 1269 2991 
Q 1406 3038 1543 3061 
Q 1681 3084 1819 3084 
Q 2600 3084 3056 2656 
Q 3513 2228 3513 1497 
Q 3513 744 3044 326 
Q 2575 -91 1722 -91 
Q 1428 -91 1123 -41 
Q 819 9 494 109 
L 494 744 
Q 775 591 1075 516 
Q 1375 441 1709 441 
Q 2250 441 2565 725 
Q 2881 1009 2881 1497 
Q 2881 1984 2565 2268 
Q 2250 2553 1709 2553 
Q 1456 2553 1204 2497 
Q 953 2441 691 2322 
L 691 4666 
z
" transform="scale(0.015625)"/>
       </defs>
       <use xlink:href="#DejaVuSans-35"/>
       <use xlink:href="#DejaVuSans-30" x="63.623047"/>
       <use xlink:href="#DejaVuSans-30" x="127.246094"/>
      </g>
     </g>
    </g>
    <g id="ytick_3">
     <g id="line2d_9">
      <g>
       <use xlink:href="#m1e77f1b5e6" x="57.6" y="239.431157" style="stroke: #000000; stroke-width: 0.8"/>
      </g>
     </g>
     <g id="text_9">
      <!-- 1000 -->
      <g transform="translate(25.15 243.230376) scale(0.1 -0.1)">
       <use xlink:href="#DejaVuSans-31"/>
       <use xlink:href="#DejaVuSans-30" x="63.623047"/>
       <use xlink:href="#DejaVuSans-30" x="127.246094"/>
       <use xlink:href="#DejaVuSans-30" x="190.869141"/>
      </g>
     </g>
    </g>
    <g id="ytick_4">
     <g id="line2d_10">
      <g>
       <use xlink:href="#m1e77f1b5e6" x="57.6" y="209.767567" style="stroke: #000000; stroke-width: 0.8"/>
      </g>
     </g>
     <g id="text_10">
      <!-- 1500 -->
      <g transform="translate(25.15 213.566786) scale(0.1 -0.1)">
       <use xlink:href="#DejaVuSans-31"/>
       <use xlink:href="#DejaVuSans-35" x="63.623047"/>
       <use xlink:href="#DejaVuSans-30" x="127.246094"/>
       <use xlink:href="#DejaVuSans-30" x="190.869141"/>
      </g>
     </g>
    </g>
    <g id="ytick_5">
     <g id="line2d_11">
      <g>
       <use xlink:href="#m1e77f1b5e6" x="57.6" y="180.103977" style="stroke: #000000; stroke-width: 0.8"/>
      </g>
     </g>
     <g id="text_11">
      <!-- 2000 -->
      <g transform="translate(25.15 183.903196) scale(0.1 -0.1)">
       <use xlink:href="#DejaVuSans-32"/>
       <use xlink:href="#DejaVuSans-30" x="63.623047"/>
       <use xlink:href="#DejaVuSans-30" x="127.246094"/>
       <use xlink:href="#DejaVuSans-30" x="190.869141"/>
      </g>
     </g>
    </g>
    <g id="ytick_6">
     <g id="line2d_12">
      <g>
       <use xlink:href="#m1e77f1b5e6" x="57.6" y="150.440387" style="stroke: #000000; stroke-width: 0.8"/>
      </g>
     </g>
     <g id="text_12">
      <!-- 2500 -->
      <g transform="translate(25.15 154.239605) scale(0.1 -0.1)">
       <use xlink:href="#DejaVuSans-32"/>
       <use xlink:href="#DejaVuSans-35" x="63.623047"/>
       <use xlink:href="#DejaVuSans-30" x="127.246094"/>
       <use xlink:href="#DejaVuSans-30" x="190.869141"/>
      </g>
     </g>
    </g>
    <g id="ytick_7">
     <g id="line2d_13">
      <g>
       <use xlink:href="#m1e77f1b5e6" x="57.6" y="120.776796" style="stroke: #000000; stroke-width: 0.8"/>
      </g>
     </g>
     <g id="text_13">
      <!-- 3000 -->
      <g transform="translate(25.15 124.576015) scale(0.1 -0.1)">
       <defs>
        <path id="DejaVuSans-33" d="M 2597 2516 
Q 3050 2419 3304 2112 
Q 3559 1806 3559 1356 
Q 3559 666 3084 287 
Q 2609 -91 1734 -91 
Q 1441 -91 1130 -33 
Q 819 25 488 141 
L 488 750 
Q 750 597 1062 519 
Q 1375 441 1716 441 
Q 2309 441 2620 675 
Q 2931 909 2931 1356 
Q 2931 1769 2642 2001 
Q 2353 2234 1838 2234 
L 1294 2234 
L 1294 2753 
L 1863 2753 
Q 2328 2753 2575 2939 
Q 2822 3125 2822 3475 
Q 2822 3834 2567 4026 
Q 2313 4219 1838 4219 
Q 1578 4219 1281 4162 
Q 984 4106 628 3988 
L 628 4550 
Q 988 4650 1302 4700 
Q 1616 4750 1894 4750 
Q 2613 4750 3031 4423 
Q 3450 4097 3450 3541 
Q 3450 3153 3228 2886 
Q 3006 2619 2597 2516 
z
" transform="scale(0.015625)"/>
       </defs>
       <use xlink:href="#DejaVuSans-33"/>
       <use xlink:href="#DejaVuSans-30" x="63.623047"/>
       <use xlink:href="#DejaVuSans-30" x="127.246094"/>
       <use xlink:href="#DejaVuSans-30" x="190.869141"/>
      </g>
     </g>
    </g>
    <g id="ytick_8">
     <g id="line2d_14">
      <g>
       <use xlink:href="#m1e77f1b5e6" x="57.6" y="91.113206" style="stroke: #000000; stroke-width: 0.8"/>
      </g>
     </g>
     <g id="text_14">
      <!-- 3500 -->
      <g transform="translate(25.15 94.912425) scale(0.1 -0.1)">
       <use xlink:href="#DejaVuSans-33"/>
       <use xlink:href="#DejaVuSans-35" x="63.623047"/>
       <use xlink:href="#DejaVuSans-30" x="127.246094"/>
       <use xlink:href="#DejaVuSans-30" x="190.869141"/>
      </g>
     </g>
    </g>
    <g id="ytick_9">
     <g id="line2d_15">
      <g>
       <use xlink:href="#m1e77f1b5e6" x="57.6" y="61.449616" style="stroke: #000000; stroke-width: 0.8"/>
      </g>
     </g>
     <g id="text_15">
      <!-- 4000 -->
      <g transform="translate(25.15 65.248835) scale(0.1 -0.1)">
       <use xlink:href="#DejaVuSans-34"/>
       <use xlink:href="#DejaVuSans-30" x="63.623047"/>
       <use xlink:href="#DejaVuSans-30" x="127.246094"/>
       <use xlink:href="#DejaVuSans-30" x="190.869141"/>
      </g>
     </g>
    </g>
   </g>
   <g id="line2d_16">
    <path d="M 73.832727 223.768591 
L 74.157707 142.072309 
L 74.482686 94.766819 
L 74.807666 230.09718 
L 75.132645 154.620634 
L 75.457625 295.488 
L 75.782604 265.537568 
L 76.757543 265.486379 
L 77.082523 265.534245 
L 77.407502 206.752359 
L 78.057461 206.857138 
L 79.0324 206.751984 
L 79.357379 206.474445 
L 83.257133 206.468855 
L 83.582113 206.749651 
L 85.85697 206.749651 
L 86.181949 266.073018 
L 86.506929 206.749651 
L 87.481867 206.749651 
L 87.806847 266.073018 
L 88.131826 206.749651 
L 108.605536 206.749651 
L 108.930516 266.073018 
L 109.255495 206.749651 
L 113.15525 206.749651 
L 113.480229 266.073018 
L 113.805209 206.749651 
L 234.047633 206.749651 
L 234.372613 265.923112 
L 234.697592 192.412747 
L 235.022572 206.749651 
L 259.071057 206.749651 
L 259.396036 205.121665 
L 259.721016 263.197138 
L 268.820442 263.197138 
L 269.145422 53.568 
L 269.470401 263.197138 
L 270.44534 263.199472 
L 270.770319 143.199558 
L 271.095299 263.197138 
L 271.420278 202.824985 
L 271.745258 69.075855 
L 272.070238 216.466332 
L 272.720197 155.672009 
L 273.045176 235.744656 
L 273.370156 225.363945 
L 273.695135 143.681808 
L 274.020115 151.099386 
L 274.345094 161.483736 
L 274.670074 243.159543 
L 274.995053 177.698222 
L 275.320033 249.0915 
L 275.645012 173.351252 
L 275.969992 192.63539 
L 276.294971 191.152017 
L 276.619951 201.439038 
L 276.94493 205.247087 
L 277.26991 201.025376 
L 277.594889 263.592328 
L 277.919869 228.671103 
L 278.244848 205.986989 
L 278.569828 206.514853 
L 278.894808 206.748735 
L 279.219787 206.753514 
L 279.544767 194.748351 
L 279.869746 193.350435 
L 280.194726 197.76656 
L 280.519705 235.448422 
L 280.844685 190.221196 
L 281.169664 191.704365 
L 281.494644 210.225862 
L 281.819623 221.79868 
L 282.144603 197.762003 
L 282.469582 207.554011 
L 282.794562 236.336621 
L 283.119541 203.993334 
L 283.444521 216.160977 
L 283.7695 189.163603 
L 284.09448 241.081831 
L 284.419459 190.221196 
L 285.069419 220.612702 
L 285.394398 214.976294 
L 285.719378 222.987013 
L 286.044357 217.943665 
L 286.369337 221.801025 
L 286.694316 219.13083 
L 287.019296 224.174135 
L 287.344275 217.943665 
L 287.669255 219.882358 
L 287.994234 239.662112 
L 288.644193 232.023014 
L 289.294152 204.306291 
L 289.944111 175.389498 
L 290.269091 183.051987 
L 290.59407 186.063568 
L 291.244029 198.139074 
L 291.569009 198.242502 
L 291.893989 206.586822 
L 292.218968 235.353641 
L 292.543948 253.37625 
L 292.868927 254.263899 
L 293.193907 252.780591 
L 293.518886 253.667751 
L 293.843866 253.971547 
L 294.168845 252.488243 
L 294.818804 251.900636 
L 295.143784 249.228172 
L 295.468763 251.306125 
L 295.793743 251.599965 
L 296.118722 238.844973 
L 296.443702 252.194779 
L 296.768681 250.701128 
L 297.093661 237.351195 
L 297.41864 149.825009 
L 297.74362 166.145679 
L 298.0686 173.563656 
L 298.393579 169.112902 
L 298.718559 176.530776 
L 299.043538 166.145679 
L 299.368518 164.662051 
L 299.693497 157.243715 
L 300.018477 167.629296 
L 300.343456 163.17841 
L 300.668436 167.629296 
L 300.993415 160.21109 
L 301.318395 161.694756 
L 301.643374 166.145679 
L 301.968354 176.530776 
L 302.293333 178.014323 
L 302.618313 182.464911 
L 302.943292 183.948424 
L 303.268272 182.464911 
L 303.593251 189.882403 
L 304.24321 198.783174 
L 304.56819 197.299727 
L 304.89317 189.882403 
L 305.218149 197.299727 
L 305.543129 186.915428 
L 305.868108 191.36588 
L 306.193088 189.882403 
L 306.518067 194.332816 
L 306.843047 180.98139 
L 307.168026 182.464911 
L 307.493006 178.014323 
L 307.817985 182.464911 
L 308.142965 183.948424 
L 308.467944 188.398919 
L 308.792924 198.783174 
L 309.117903 197.299727 
L 309.442883 183.948424 
L 309.767862 185.43193 
L 310.417821 194.332816 
L 310.742801 201.75005 
L 311.067781 200.266615 
L 311.71774 209.167152 
L 312.042719 207.683741 
L 312.367699 209.167152 
L 312.692678 207.683741 
L 313.017658 212.13396 
L 313.342637 210.650558 
L 313.667617 212.13396 
L 313.992596 207.683741 
L 314.317576 218.067523 
L 314.642555 216.584138 
L 315.292514 219.550904 
L 315.617494 215.10075 
L 315.942473 219.550904 
L 316.267453 221.03428 
L 316.592432 213.617357 
L 316.917412 221.03428 
L 317.892351 207.683741 
L 318.21733 215.10075 
L 318.54231 216.584138 
L 318.867289 212.13396 
L 319.192269 216.584138 
L 319.842228 219.550904 
L 320.167207 224.001023 
L 320.492187 225.484389 
L 320.817166 229.934465 
L 321.142146 228.45111 
L 321.467125 229.934465 
L 321.792105 222.517653 
L 322.117084 221.03428 
L 322.442064 234.384513 
L 322.767043 238.834532 
L 323.092023 234.384513 
L 323.417002 232.901167 
L 324.066962 235.867855 
L 324.391941 240.317866 
L 325.36688 235.867855 
L 325.691859 237.351195 
L 326.016839 235.867855 
L 326.341818 237.351195 
L 326.666798 235.867855 
L 326.991777 237.351195 
L 327.641736 234.384513 
L 327.966716 235.867855 
L 328.291695 234.384513 
L 328.616675 235.867855 
L 328.941654 234.384513 
L 329.266634 241.801197 
L 329.591613 246.251174 
L 329.916593 247.734495 
L 330.241572 246.251174 
L 330.566552 247.734495 
L 331.216511 244.767851 
L 331.541491 246.251174 
L 331.86647 250.701128 
L 332.19145 246.251174 
L 332.516429 244.767851 
L 333.166388 247.734495 
L 333.491368 246.251174 
L 333.816347 247.734495 
L 334.466306 244.767851 
L 334.791286 246.251174 
L 335.441245 243.284526 
L 335.766224 244.767851 
L 336.091204 240.317866 
L 336.416183 238.834532 
L 336.741163 240.317866 
L 337.066143 238.834532 
L 337.391122 240.317866 
L 337.716102 238.834532 
L 338.041081 240.317866 
L 338.69104 237.351195 
L 339.340999 240.317866 
L 339.665979 238.834532 
L 339.990958 240.317866 
L 340.640917 237.351195 
L 340.965897 238.834532 
L 341.290876 234.384513 
L 341.615856 238.834532 
L 341.940835 237.351195 
L 342.590794 240.317866 
L 342.915774 238.834532 
L 343.240753 234.384513 
L 343.565733 232.901167 
L 343.890713 237.351195 
L 344.215692 235.867855 
L 344.540672 240.317866 
L 344.865651 235.867855 
L 345.190631 234.384513 
L 345.51561 235.867855 
L 346.165569 232.901167 
L 346.490549 237.351195 
L 347.140508 234.384513 
L 347.465487 238.834532 
L 347.790467 234.384513 
L 348.115446 238.834532 
L 348.440426 237.351195 
L 348.765405 232.901167 
L 349.090385 237.351195 
L 349.415364 235.867855 
L 349.740344 237.351195 
L 350.065324 232.901167 
L 350.390303 231.417818 
L 350.715283 235.867855 
L 351.690221 231.417818 
L 352.015201 235.867855 
L 352.66516 232.901167 
L 352.990139 234.384513 
L 353.315119 229.934465 
L 353.640098 231.417818 
L 353.965078 235.867855 
L 354.615037 232.901167 
L 355.589975 237.351195 
L 355.914955 232.901167 
L 356.239934 231.417818 
L 356.564914 232.901167 
L 356.889894 231.417818 
L 357.539853 234.384513 
L 357.864832 229.934465 
L 358.189812 234.384513 
L 359.16475 229.934465 
L 359.48973 231.417818 
L 359.814709 229.934465 
L 360.139689 234.384513 
L 360.464668 229.934465 
L 361.764586 224.001023 
L 362.089566 225.484389 
L 362.414545 218.067523 
L 362.739525 216.584138 
L 363.064505 218.067523 
L 363.389484 210.650558 
L 364.039443 213.617357 
L 364.364423 200.266615 
L 364.689402 195.816274 
L 365.014382 241.317416 
L 365.339361 225.484389 
L 365.98932 234.384513 
L 366.3143 229.934465 
L 366.639279 237.351195 
L 366.964259 235.867855 
L 367.289238 237.351195 
L 367.614218 229.934465 
L 367.939197 234.384513 
L 368.264177 232.901167 
L 368.589156 228.45111 
L 368.914136 235.867855 
L 369.239115 228.45111 
L 369.564095 235.867855 
L 369.889075 231.417818 
L 370.539034 234.384513 
L 370.864013 229.934465 
L 371.513972 226.967751 
L 371.838952 228.45111 
L 372.81389 224.001023 
L 374.113808 229.934465 
L 374.438788 225.484389 
L 374.763767 226.967751 
L 375.413726 224.001023 
L 376.063686 226.967751 
L 376.388665 225.484389 
L 377.038624 228.45111 
L 377.363604 224.001023 
L 377.688583 225.484389 
L 378.338542 222.517653 
L 378.663522 112.721138 
L 388.412907 112.721138 
L 388.737887 109.889732 
L 389.387846 109.889732 
L 389.712826 109.730438 
L 390.362785 109.730438 
L 390.687764 109.889732 
L 391.012744 109.889732 
L 391.337723 139.277368 
L 391.662703 117.000018 
L 391.987682 110.208319 
L 392.312662 207.748733 
L 392.637641 119.105973 
L 392.962621 249.042488 
L 393.2876 114.194018 
L 393.61258 166.923178 
L 393.937559 156.681326 
L 394.262539 241.801197 
L 394.587518 233.364938 
L 395.237477 243.284526 
L 395.562457 232.901167 
L 395.887437 110.019406 
L 396.212416 109.913878 
L 396.537396 109.57343 
L 396.862375 109.794631 
L 397.512334 109.794631 
L 397.837314 258.310179 
L 398.162293 109.794631 
L 398.487273 109.794631 
L 398.487273 109.794631 
" clip-path="url(#p97914fc49b)" style="fill: none; stroke: #1f77b4; stroke-width: 1.5; stroke-linecap: square"/>
   </g>
   <g id="patch_3">
    <path d="M 57.6 307.584 
L 57.6 41.472 
" style="fill: none; stroke: #000000; stroke-width: 0.8; stroke-linejoin: miter; stroke-linecap: square"/>
   </g>
   <g id="patch_4">
    <path d="M 414.72 307.584 
L 414.72 41.472 
" style="fill: none; stroke: #000000; stroke-width: 0.8; stroke-linejoin: miter; stroke-linecap: square"/>
   </g>
   <g id="patch_5">
    <path d="M 57.6 307.584 
L 414.72 307.584 
" style="fill: none; stroke: #000000; stroke-width: 0.8; stroke-linejoin: miter; stroke-linecap: square"/>
   </g>
   <g id="patch_6">
    <path d="M 57.6 41.472 
L 414.72 41.472 
" style="fill: none; stroke: #000000; stroke-width: 0.8; stroke-linejoin: miter; stroke-linecap: square"/>
   </g>
  </g>
 </g>
 <defs>
  <clipPath id="p97914fc49b">
   <rect x="57.6" y="41.472" width="357.12" height="266.112"/>
  </clipPath>
 </defs>
</svg>
