<?xml version="1.0" encoding="utf-8" standalone="no"?>
<!DOCTYPE svg PUBLIC "-//W3C//DTD SVG 1.1//EN"
  "http://www.w3.org/Graphics/SVG/1.1/DTD/svg11.dtd">
<svg xmlns:xlink="http://www.w3.org/1999/xlink" width="460.8pt" height="345.6pt" viewBox="0 0 460.8 345.6" xmlns="http://www.w3.org/2000/svg" version="1.1">
 <metadata>
  <rdf:RDF xmlns:dc="http://purl.org/dc/elements/1.1/" xmlns:cc="http://creativecommons.org/ns#" xmlns:rdf="http://www.w3.org/1999/02/22-rdf-syntax-ns#">
   <cc:Work>
    <dc:type rdf:resource="http://purl.org/dc/dcmitype/StillImage"/>
    <dc:date>2024-04-20T18:56:12.148422</dc:date>
    <dc:format>image/svg+xml</dc:format>
    <dc:creator>
     <cc:Agent>
      <dc:title>Matplotlib v3.7.2, https://matplotlib.org/</dc:title>
     </cc:Agent>
    </dc:creator>
   </cc:Work>
  </rdf:RDF>
 </metadata>
 <defs>
  <style type="text/css">*{stroke-linejoin: round; stroke-linecap: butt}</style>
 </defs>
 <g id="figure_1">
  <g id="patch_1">
   <path d="M 0 345.6 
L 460.8 345.6 
L 460.8 0 
L 0 0 
z
" style="fill: #ffffff"/>
  </g>
  <g id="axes_1">
   <g id="patch_2">
    <path d="M 57.6 307.584 
L 414.72 307.584 
L 414.72 41.472 
L 57.6 41.472 
z
" style="fill: #ffffff"/>
   </g>
   <g id="matplotlib.axis_1">
    <g id="xtick_1">
     <g id="line2d_1">
      <defs>
       <path id="m9e626699e1" d="M 0 0 
L 0 3.5 
" style="stroke: #000000; stroke-width: 0.8"/>
      </defs>
      <g>
       <use xlink:href="#m9e626699e1" x="73.832727" y="307.584" style="stroke: #000000; stroke-width: 0.8"/>
      </g>
     </g>
     <g id="text_1">
      <!-- 0 -->
      <g transform="translate(70.651477 322.182437) scale(0.1 -0.1)">
       <defs>
        <path id="DejaVuSans-30" d="M 2034 4250 
Q 1547 4250 1301 3770 
Q 1056 3291 1056 2328 
Q 1056 1369 1301 889 
Q 1547 409 2034 409 
Q 2525 409 2770 889 
Q 3016 1369 3016 2328 
Q 3016 3291 2770 3770 
Q 2525 4250 2034 4250 
z
M 2034 4750 
Q 2819 4750 3233 4129 
Q 3647 3509 3647 2328 
Q 3647 1150 3233 529 
Q 2819 -91 2034 -91 
Q 1250 -91 836 529 
Q 422 1150 422 2328 
Q 422 3509 836 4129 
Q 1250 4750 2034 4750 
z
" transform="scale(0.015625)"/>
       </defs>
       <use xlink:href="#DejaVuSans-30"/>
      </g>
     </g>
    </g>
    <g id="xtick_2">
     <g id="line2d_2">
      <g>
       <use xlink:href="#m9e626699e1" x="138.893758" y="307.584" style="stroke: #000000; stroke-width: 0.8"/>
      </g>
     </g>
     <g id="text_2">
      <!-- 100 -->
      <g transform="translate(129.350008 322.182437) scale(0.1 -0.1)">
       <defs>
        <path id="DejaVuSans-31" d="M 794 531 
L 1825 531 
L 1825 4091 
L 703 3866 
L 703 4441 
L 1819 4666 
L 2450 4666 
L 2450 531 
L 3481 531 
L 3481 0 
L 794 0 
L 794 531 
z
" transform="scale(0.015625)"/>
       </defs>
       <use xlink:href="#DejaVuSans-31"/>
       <use xlink:href="#DejaVuSans-30" x="63.623047"/>
       <use xlink:href="#DejaVuSans-30" x="127.246094"/>
      </g>
     </g>
    </g>
    <g id="xtick_3">
     <g id="line2d_3">
      <g>
       <use xlink:href="#m9e626699e1" x="203.95479" y="307.584" style="stroke: #000000; stroke-width: 0.8"/>
      </g>
     </g>
     <g id="text_3">
      <!-- 200 -->
      <g transform="translate(194.41104 322.182437) scale(0.1 -0.1)">
       <defs>
        <path id="DejaVuSans-32" d="M 1228 531 
L 3431 531 
L 3431 0 
L 469 0 
L 469 531 
Q 828 903 1448 1529 
Q 2069 2156 2228 2338 
Q 2531 2678 2651 2914 
Q 2772 3150 2772 3378 
Q 2772 3750 2511 3984 
Q 2250 4219 1831 4219 
Q 1534 4219 1204 4116 
Q 875 4013 500 3803 
L 500 4441 
Q 881 4594 1212 4672 
Q 1544 4750 1819 4750 
Q 2544 4750 2975 4387 
Q 3406 4025 3406 3419 
Q 3406 3131 3298 2873 
Q 3191 2616 2906 2266 
Q 2828 2175 2409 1742 
Q 1991 1309 1228 531 
z
" transform="scale(0.015625)"/>
       </defs>
       <use xlink:href="#DejaVuSans-32"/>
       <use xlink:href="#DejaVuSans-30" x="63.623047"/>
       <use xlink:href="#DejaVuSans-30" x="127.246094"/>
      </g>
     </g>
    </g>
    <g id="xtick_4">
     <g id="line2d_4">
      <g>
       <use xlink:href="#m9e626699e1" x="269.015821" y="307.584" style="stroke: #000000; stroke-width: 0.8"/>
      </g>
     </g>
     <g id="text_4">
      <!-- 300 -->
      <g transform="translate(259.472071 322.182437) scale(0.1 -0.1)">
       <defs>
        <path id="DejaVuSans-33" d="M 2597 2516 
Q 3050 2419 3304 2112 
Q 3559 1806 3559 1356 
Q 3559 666 3084 287 
Q 2609 -91 1734 -91 
Q 1441 -91 1130 -33 
Q 819 25 488 141 
L 488 750 
Q 750 597 1062 519 
Q 1375 441 1716 441 
Q 2309 441 2620 675 
Q 2931 909 2931 1356 
Q 2931 1769 2642 2001 
Q 2353 2234 1838 2234 
L 1294 2234 
L 1294 2753 
L 1863 2753 
Q 2328 2753 2575 2939 
Q 2822 3125 2822 3475 
Q 2822 3834 2567 4026 
Q 2313 4219 1838 4219 
Q 1578 4219 1281 4162 
Q 984 4106 628 3988 
L 628 4550 
Q 988 4650 1302 4700 
Q 1616 4750 1894 4750 
Q 2613 4750 3031 4423 
Q 3450 4097 3450 3541 
Q 3450 3153 3228 2886 
Q 3006 2619 2597 2516 
z
" transform="scale(0.015625)"/>
       </defs>
       <use xlink:href="#DejaVuSans-33"/>
       <use xlink:href="#DejaVuSans-30" x="63.623047"/>
       <use xlink:href="#DejaVuSans-30" x="127.246094"/>
      </g>
     </g>
    </g>
    <g id="xtick_5">
     <g id="line2d_5">
      <g>
       <use xlink:href="#m9e626699e1" x="334.076852" y="307.584" style="stroke: #000000; stroke-width: 0.8"/>
      </g>
     </g>
     <g id="text_5">
      <!-- 400 -->
      <g transform="translate(324.533102 322.182437) scale(0.1 -0.1)">
       <defs>
        <path id="DejaVuSans-34" d="M 2419 4116 
L 825 1625 
L 2419 1625 
L 2419 4116 
z
M 2253 4666 
L 3047 4666 
L 3047 1625 
L 3713 1625 
L 3713 1100 
L 3047 1100 
L 3047 0 
L 2419 0 
L 2419 1100 
L 313 1100 
L 313 1709 
L 2253 4666 
z
" transform="scale(0.015625)"/>
       </defs>
       <use xlink:href="#DejaVuSans-34"/>
       <use xlink:href="#DejaVuSans-30" x="63.623047"/>
       <use xlink:href="#DejaVuSans-30" x="127.246094"/>
      </g>
     </g>
    </g>
    <g id="xtick_6">
     <g id="line2d_6">
      <g>
       <use xlink:href="#m9e626699e1" x="399.137883" y="307.584" style="stroke: #000000; stroke-width: 0.8"/>
      </g>
     </g>
     <g id="text_6">
      <!-- 500 -->
      <g transform="translate(389.594133 322.182437) scale(0.1 -0.1)">
       <defs>
        <path id="DejaVuSans-35" d="M 691 4666 
L 3169 4666 
L 3169 4134 
L 1269 4134 
L 1269 2991 
Q 1406 3038 1543 3061 
Q 1681 3084 1819 3084 
Q 2600 3084 3056 2656 
Q 3513 2228 3513 1497 
Q 3513 744 3044 326 
Q 2575 -91 1722 -91 
Q 1428 -91 1123 -41 
Q 819 9 494 109 
L 494 744 
Q 775 591 1075 516 
Q 1375 441 1709 441 
Q 2250 441 2565 725 
Q 2881 1009 2881 1497 
Q 2881 1984 2565 2268 
Q 2250 2553 1709 2553 
Q 1456 2553 1204 2497 
Q 953 2441 691 2322 
L 691 4666 
z
" transform="scale(0.015625)"/>
       </defs>
       <use xlink:href="#DejaVuSans-35"/>
       <use xlink:href="#DejaVuSans-30" x="63.623047"/>
       <use xlink:href="#DejaVuSans-30" x="127.246094"/>
      </g>
     </g>
    </g>
   </g>
   <g id="matplotlib.axis_2">
    <g id="ytick_1">
     <g id="line2d_7">
      <defs>
       <path id="m3bb6a357dc" d="M 0 0 
L -3.5 0 
" style="stroke: #000000; stroke-width: 0.8"/>
      </defs>
      <g>
       <use xlink:href="#m3bb6a357dc" x="57.6" y="272.412904" style="stroke: #000000; stroke-width: 0.8"/>
      </g>
     </g>
     <g id="text_7">
      <!-- −2000 -->
      <g transform="translate(16.770313 276.212122) scale(0.1 -0.1)">
       <defs>
        <path id="DejaVuSans-2212" d="M 678 2272 
L 4684 2272 
L 4684 1741 
L 678 1741 
L 678 2272 
z
" transform="scale(0.015625)"/>
       </defs>
       <use xlink:href="#DejaVuSans-2212"/>
       <use xlink:href="#DejaVuSans-32" x="83.789062"/>
       <use xlink:href="#DejaVuSans-30" x="147.412109"/>
       <use xlink:href="#DejaVuSans-30" x="211.035156"/>
       <use xlink:href="#DejaVuSans-30" x="274.658203"/>
      </g>
     </g>
    </g>
    <g id="ytick_2">
     <g id="line2d_8">
      <g>
       <use xlink:href="#m3bb6a357dc" x="57.6" y="230.799056" style="stroke: #000000; stroke-width: 0.8"/>
      </g>
     </g>
     <g id="text_8">
      <!-- −1000 -->
      <g transform="translate(16.770313 234.598275) scale(0.1 -0.1)">
       <use xlink:href="#DejaVuSans-2212"/>
       <use xlink:href="#DejaVuSans-31" x="83.789062"/>
       <use xlink:href="#DejaVuSans-30" x="147.412109"/>
       <use xlink:href="#DejaVuSans-30" x="211.035156"/>
       <use xlink:href="#DejaVuSans-30" x="274.658203"/>
      </g>
     </g>
    </g>
    <g id="ytick_3">
     <g id="line2d_9">
      <g>
       <use xlink:href="#m3bb6a357dc" x="57.6" y="189.185208" style="stroke: #000000; stroke-width: 0.8"/>
      </g>
     </g>
     <g id="text_9">
      <!-- 0 -->
      <g transform="translate(44.2375 192.984427) scale(0.1 -0.1)">
       <use xlink:href="#DejaVuSans-30"/>
      </g>
     </g>
    </g>
    <g id="ytick_4">
     <g id="line2d_10">
      <g>
       <use xlink:href="#m3bb6a357dc" x="57.6" y="147.571361" style="stroke: #000000; stroke-width: 0.8"/>
      </g>
     </g>
     <g id="text_10">
      <!-- 1000 -->
      <g transform="translate(25.15 151.37058) scale(0.1 -0.1)">
       <use xlink:href="#DejaVuSans-31"/>
       <use xlink:href="#DejaVuSans-30" x="63.623047"/>
       <use xlink:href="#DejaVuSans-30" x="127.246094"/>
       <use xlink:href="#DejaVuSans-30" x="190.869141"/>
      </g>
     </g>
    </g>
    <g id="ytick_5">
     <g id="line2d_11">
      <g>
       <use xlink:href="#m3bb6a357dc" x="57.6" y="105.957513" style="stroke: #000000; stroke-width: 0.8"/>
      </g>
     </g>
     <g id="text_11">
      <!-- 2000 -->
      <g transform="translate(25.15 109.756732) scale(0.1 -0.1)">
       <use xlink:href="#DejaVuSans-32"/>
       <use xlink:href="#DejaVuSans-30" x="63.623047"/>
       <use xlink:href="#DejaVuSans-30" x="127.246094"/>
       <use xlink:href="#DejaVuSans-30" x="190.869141"/>
      </g>
     </g>
    </g>
    <g id="ytick_6">
     <g id="line2d_12">
      <g>
       <use xlink:href="#m3bb6a357dc" x="57.6" y="64.343666" style="stroke: #000000; stroke-width: 0.8"/>
      </g>
     </g>
     <g id="text_12">
      <!-- 3000 -->
      <g transform="translate(25.15 68.142884) scale(0.1 -0.1)">
       <use xlink:href="#DejaVuSans-33"/>
       <use xlink:href="#DejaVuSans-30" x="63.623047"/>
       <use xlink:href="#DejaVuSans-30" x="127.246094"/>
       <use xlink:href="#DejaVuSans-30" x="190.869141"/>
      </g>
     </g>
    </g>
   </g>
   <g id="line2d_13">
    <path d="M 73.832727 139.086834 
L 74.483338 81.779718 
L 75.133948 168.775947 
L 75.784558 168.290101 
L 76.435169 188.119324 
L 77.085779 90.470951 
L 77.736389 69.767576 
L 78.386999 67.981481 
L 79.03761 53.568 
L 79.68822 160.426302 
L 80.33883 121.905831 
L 81.640051 211.055694 
L 82.290661 169.205785 
L 82.941272 149.873179 
L 83.591882 218.217594 
L 84.242492 231.542052 
L 85.543713 231.500352 
L 86.194323 229.754857 
L 86.844934 229.693603 
L 87.495544 134.828863 
L 88.146154 132.349855 
L 88.796764 146.668134 
L 89.447375 202.125727 
L 90.097985 148.336585 
L 90.748595 146.973782 
L 91.399206 106.03679 
L 92.049816 180.048091 
L 93.351037 145.518799 
L 94.001647 207.130177 
L 94.652257 244.500111 
L 95.302868 115.104463 
L 95.953478 210.314778 
L 96.604088 208.432846 
L 97.254698 204.677403 
L 97.905309 161.983328 
L 98.555919 251.713938 
L 99.206529 291.358484 
L 99.85714 271.640354 
L 100.50775 269.002016 
L 101.15836 272.950883 
L 101.808971 232.4217 
L 102.459581 275.779169 
L 103.110191 230.336484 
L 103.760802 273.559448 
L 104.411412 278.917515 
L 105.062022 240.156912 
L 105.712633 276.305822 
L 106.363243 278.008045 
L 107.013853 278.54133 
L 107.664463 142.71651 
L 108.315074 201.766782 
L 108.965684 282.310571 
L 109.616294 188.557684 
L 110.266905 204.451763 
L 110.917515 129.24368 
L 111.568125 171.658826 
L 112.218736 171.494017 
L 112.869346 210.280474 
L 113.519956 174.715417 
L 114.170567 186.800538 
L 114.821177 128.987091 
L 115.471787 164.441987 
L 116.122398 68.910842 
L 116.773008 217.565838 
L 117.423618 208.624876 
L 118.074228 213.974457 
L 118.724839 210.288687 
L 119.375449 212.867202 
L 120.67667 144.9619 
L 121.32728 139.129345 
L 122.628501 211.625264 
L 123.279111 137.392978 
L 123.929721 218.07559 
L 124.580332 214.255091 
L 125.230942 181.017349 
L 125.881552 182.147802 
L 126.532163 123.633203 
L 127.182773 223.366269 
L 127.833383 154.857444 
L 128.483993 220.827292 
L 129.134604 216.530675 
L 129.785214 116.546283 
L 131.086435 206.624548 
L 131.737045 138.409051 
L 132.387655 218.789447 
L 133.038266 178.010359 
L 133.688876 213.478531 
L 134.339486 196.691784 
L 134.990097 216.316614 
L 135.640707 123.757273 
L 136.291317 217.985606 
L 136.941927 129.790911 
L 137.592538 126.697927 
L 138.243148 220.059454 
L 138.893758 222.811887 
L 139.544369 227.194622 
L 140.194979 229.279631 
L 140.845589 223.513725 
L 141.4962 228.023633 
L 142.79742 225.94301 
L 143.448031 220.341792 
L 144.098641 223.037443 
L 144.749251 127.642841 
L 145.399862 220.845387 
L 146.050472 224.250693 
L 146.701082 138.777269 
L 147.351692 141.271065 
L 148.002303 220.802813 
L 149.303523 134.702907 
L 149.954134 125.103888 
L 151.255354 132.63921 
L 151.905965 124.310659 
L 152.556575 125.430081 
L 153.207185 123.886145 
L 153.857796 160.100724 
L 154.508406 150.140959 
L 155.159016 166.565711 
L 155.809627 161.642022 
L 156.460237 173.257215 
L 157.110847 214.714228 
L 157.761457 210.171202 
L 158.412068 212.572573 
L 159.062678 211.491222 
L 159.713288 211.376532 
L 160.363899 190.919973 
L 161.014509 208.296199 
L 161.665119 208.215373 
L 162.31573 205.21826 
L 163.61695 205.132025 
L 164.267561 146.022433 
L 164.918171 203.013669 
L 165.568781 200.161808 
L 166.219392 200.932987 
L 166.870002 195.281102 
L 167.520612 234.182447 
L 168.171222 198.460872 
L 168.821833 127.74286 
L 169.472443 181.248908 
L 170.123053 148.119732 
L 170.773664 146.150144 
L 171.424274 148.893801 
L 172.074884 147.492455 
L 172.725495 145.382334 
L 173.376105 152.704653 
L 174.026715 149.381293 
L 174.677326 248.003033 
L 175.327936 248.268605 
L 175.978546 208.561869 
L 176.629156 244.584314 
L 177.279767 227.212157 
L 177.930377 205.444718 
L 178.580987 203.201947 
L 179.231598 224.767486 
L 179.882208 201.684098 
L 180.532818 201.288248 
L 181.183429 130.505367 
L 181.834039 226.046059 
L 182.484649 233.19201 
L 183.13526 192.965995 
L 183.78587 139.041807 
L 184.43648 269.782686 
L 185.087091 237.339878 
L 185.737701 230.499571 
L 186.388311 179.485842 
L 187.038921 233.130134 
L 187.689532 197.627367 
L 188.340142 232.7735 
L 188.990752 195.54779 
L 189.641363 194.511087 
L 190.291973 193.065655 
L 190.942583 192.022496 
L 192.894414 190.151519 
L 193.545025 189.186522 
L 196.147466 189.186548 
L 196.798076 190.048738 
L 197.448686 136.031484 
L 198.099297 189.385494 
L 198.749907 188.659928 
L 199.400517 230.751883 
L 200.051128 135.088525 
L 200.701738 186.972497 
L 201.352348 226.594289 
L 202.002959 208.705564 
L 202.653569 219.845999 
L 203.304179 226.594289 
L 203.95479 180.044823 
L 205.25601 118.251377 
L 205.906621 226.594289 
L 206.557231 139.7904 
L 207.858451 139.7904 
L 208.509062 160.596226 
L 209.159672 169.958233 
L 209.810282 164.757259 
L 210.460893 151.277531 
L 211.111503 216.887773 
L 211.762113 227.049648 
L 212.412724 180.862447 
L 213.063334 178.781756 
L 213.713944 271.031746 
L 214.364555 125.451853 
L 215.015165 152.611041 
L 216.316385 271.103756 
L 216.966996 191.955222 
L 217.617606 163.303876 
L 218.268216 191.994912 
L 218.918827 266.236183 
L 219.569437 192.495898 
L 220.220047 186.369303 
L 220.870658 191.221504 
L 221.521268 191.890906 
L 222.171878 141.645851 
L 222.822489 190.485798 
L 223.473099 191.609677 
L 224.123709 232.184465 
L 224.77432 228.714088 
L 225.42493 265.798226 
L 226.07554 189.388247 
L 226.72615 189.184654 
L 227.376761 189.552542 
L 228.027371 189.400555 
L 228.677981 226.808507 
L 229.328592 189.396608 
L 229.979202 226.802934 
L 230.629812 226.594287 
L 231.280423 226.594287 
L 231.931033 189.18504 
L 248.196291 189.185208 
L 248.846901 114.517545 
L 249.497511 80.814208 
L 251.449342 80.814163 
L 252.099953 184.637286 
L 252.750563 86.015962 
L 253.401173 81.854556 
L 254.051784 184.728259 
L 254.702394 95.970975 
L 255.353004 222.436309 
L 256.003615 92.490713 
L 256.654225 80.842148 
L 257.304835 151.645913 
L 257.955445 84.947335 
L 259.256666 104.674665 
L 259.907276 151.645894 
L 260.557887 138.944125 
L 261.208497 119.409096 
L 261.859107 142.222188 
L 262.509718 189.528509 
L 263.160328 152.613571 
L 263.810938 191.304993 
L 265.762769 194.42435 
L 266.413379 270.624234 
L 267.06399 234.059328 
L 267.7146 126.639264 
L 268.36521 224.666834 
L 269.015821 237.253551 
L 269.666431 238.290851 
L 270.317041 147.856966 
L 270.967652 202.042966 
L 271.618262 231.615885 
L 272.268872 282.349345 
L 272.919483 204.861887 
L 273.570093 205.894539 
L 274.220703 207.321754 
L 274.871314 207.558746 
L 275.521924 208.693076 
L 276.172534 169.588279 
L 276.823144 143.383562 
L 277.473755 245.884212 
L 278.124365 272.4765 
L 278.774975 245.371506 
L 279.425586 248.848943 
L 280.076196 247.868543 
L 280.726806 276.329384 
L 281.377417 248.276583 
L 282.028027 211.765613 
L 282.678637 212.804746 
L 283.329248 175.700274 
L 283.979858 212.72021 
L 284.630468 291.263033 
L 285.281079 288.91881 
L 285.931689 121.868172 
L 286.582299 186.507662 
L 287.232909 141.174648 
L 287.88352 207.543748 
L 288.53413 139.506745 
L 289.18474 277.013005 
L 289.835351 138.332931 
L 290.485961 204.194074 
L 291.136571 239.522031 
L 291.787182 239.81218 
L 292.437792 256.366146 
L 293.088402 190.283928 
L 293.739013 236.8672 
L 294.389623 130.996864 
L 295.040233 138.760751 
L 295.690844 206.264348 
L 296.341454 136.294931 
L 296.992064 137.097854 
L 297.642674 189.754318 
L 298.293285 204.739426 
L 298.943895 140.546875 
L 299.594505 141.581965 
L 300.245116 222.997658 
L 300.895726 200.214049 
L 301.546336 210.920091 
L 302.196947 202.114173 
L 302.847557 206.175132 
L 303.498167 155.486783 
L 304.148778 251.514153 
L 304.799388 295.488 
L 305.449998 255.738628 
L 306.100608 266.011804 
L 306.751219 253.738744 
L 307.401829 183.368297 
L 308.70305 115.076527 
L 309.35366 219.131937 
L 310.00427 211.198616 
L 310.654881 207.244587 
L 311.305491 134.53533 
L 311.956101 141.329706 
L 312.606712 206.374946 
L 313.257322 119.702263 
L 313.907932 120.739879 
L 314.558543 230.204701 
L 315.209153 187.777867 
L 315.859763 123.076765 
L 316.510373 124.938028 
L 317.160984 124.68575 
L 318.462204 126.827316 
L 319.763425 128.081134 
L 320.414035 124.686522 
L 321.064646 149.443775 
L 321.715256 143.124067 
L 322.365866 131.088906 
L 323.016477 131.373077 
L 323.667087 132.675581 
L 324.317697 184.496703 
L 324.968308 137.923256 
L 325.618918 138.9666 
L 326.920138 180.103435 
L 327.570749 159.157998 
L 328.221359 247.927847 
L 329.52258 289.899679 
L 330.17319 249.168362 
L 330.8238 138.352503 
L 331.474411 143.43894 
L 332.125021 226.870996 
L 332.775631 148.15274 
L 333.426242 288.318996 
L 334.076852 162.761417 
L 334.727462 294.466239 
L 335.378073 151.425178 
L 336.028683 257.163185 
L 336.679293 255.113631 
L 337.329903 131.514081 
L 337.980514 181.29773 
L 338.631124 180.618047 
L 339.281734 220.591174 
L 339.932345 130.655351 
L 340.582955 174.056524 
L 341.233565 151.199582 
L 341.884176 255.396554 
L 342.534786 219.018929 
L 343.185396 250.754347 
L 344.486617 170.295095 
L 345.137227 209.840763 
L 345.787837 109.150171 
L 346.438448 246.103517 
L 347.739668 97.91061 
L 348.390279 101.131052 
L 349.040889 111.375316 
L 349.691499 166.612789 
L 350.34211 201.944455 
L 350.99272 164.928068 
L 351.64333 196.233875 
L 352.293941 199.529875 
L 352.944551 161.24719 
L 354.245772 235.967603 
L 354.896382 142.792404 
L 355.546992 277.514991 
L 356.197602 144.264646 
L 356.848213 216.365309 
L 357.498823 237.452401 
L 358.149433 108.838952 
L 358.800044 238.38153 
L 359.450654 134.134795 
L 360.101264 131.472297 
L 360.751875 148.133823 
L 361.402485 130.056774 
L 362.703706 128.853948 
L 363.354316 127.860383 
L 364.004926 136.902665 
L 364.655537 141.189591 
L 365.306147 104.952597 
L 365.956757 88.717629 
L 367.908588 91.792275 
L 368.559198 91.950932 
L 369.209809 91.203731 
L 369.860419 92.236995 
L 370.511029 91.608822 
L 371.16164 216.474787 
L 371.81225 91.965938 
L 373.113471 195.411738 
L 373.764081 195.62306 
L 374.414691 252.014825 
L 375.065302 193.750422 
L 375.715912 193.123469 
L 377.667743 190.025718 
L 378.318353 210.353552 
L 378.968963 210.679672 
L 379.619574 191.896928 
L 380.270184 163.677754 
L 380.920794 127.499957 
L 381.571405 248.116299 
L 382.222015 203.992143 
L 382.872625 182.568981 
L 383.523236 226.081318 
L 384.173846 187.34254 
L 384.824456 218.507811 
L 385.475066 197.185236 
L 386.125677 218.47729 
L 386.776287 217.46566 
L 387.426897 217.487541 
L 388.077508 216.474829 
L 388.728118 202.132494 
L 389.378728 217.112162 
L 390.029339 260.553938 
L 390.679949 214.531351 
L 391.330559 213.516979 
L 391.98117 217.251055 
L 392.63178 216.230481 
L 393.28239 218.429032 
L 393.933001 220.228102 
L 394.583611 213.054223 
L 395.234221 195.153823 
L 395.884831 170.341737 
L 396.535442 193.603944 
L 397.186052 150.013134 
L 397.836662 210.876251 
L 398.487273 252.187434 
L 398.487273 252.187434 
" clip-path="url(#p3614be4791)" style="fill: none; stroke: #1f77b4; stroke-width: 1.5; stroke-linecap: square"/>
   </g>
   <g id="patch_3">
    <path d="M 57.6 307.584 
L 57.6 41.472 
" style="fill: none; stroke: #000000; stroke-width: 0.8; stroke-linejoin: miter; stroke-linecap: square"/>
   </g>
   <g id="patch_4">
    <path d="M 414.72 307.584 
L 414.72 41.472 
" style="fill: none; stroke: #000000; stroke-width: 0.8; stroke-linejoin: miter; stroke-linecap: square"/>
   </g>
   <g id="patch_5">
    <path d="M 57.6 307.584 
L 414.72 307.584 
" style="fill: none; stroke: #000000; stroke-width: 0.8; stroke-linejoin: miter; stroke-linecap: square"/>
   </g>
   <g id="patch_6">
    <path d="M 57.6 41.472 
L 414.72 41.472 
" style="fill: none; stroke: #000000; stroke-width: 0.8; stroke-linejoin: miter; stroke-linecap: square"/>
   </g>
  </g>
 </g>
 <defs>
  <clipPath id="p3614be4791">
   <rect x="57.6" y="41.472" width="357.12" height="266.112"/>
  </clipPath>
 </defs>
</svg>
